<?xml version="1.0" encoding="UTF-8"?>
<svg id="Singer" xmlns="http://www.w3.org/2000/svg" viewBox="0 0 1000 1000">
  <defs>
    <style>
      .cls-1 {
        fill: #fff;
      }

      .cls-2 {
        fill: #f79fe0;
      }

      .cls-3 {
        font-family: FreeSansBold, FreeSans;
        font-size: 150px;
      }

      .cls-4 {
        fill: #ebedeb;
      }

      .cls-5 {
        fill: #373463;
      }

      .cls-6 {
        fill: #ef59ba;
      }

      .cls-7 {
        letter-spacing: 0em;
      }

      .cls-8 {
        fill: #f95954;
      }

      .cls-9 {
        fill: #1a2030;
      }

      .cls-10 {
        letter-spacing: 0em;
      }

      .cls-11 {
        fill: #ff967e;
      }

      .cls-12 {
        fill: none;
        stroke: #373463;
        stroke-miterlimit: 10;
        stroke-width: .5px;
      }

      .cls-13 {
        fill: #fb9;
      }

      .cls-14 {
        fill: red;
      }
    </style>
  </defs>
  <g>
    <ellipse class="cls-4" cx="484.04" cy="595.64" rx="124.01" ry="26.15"/>
    <g>
      <path class="cls-9" d="M523.9,103.62s11.67-6.62,6.94-22.07c-4.73-15.45-15.45-23.96-40.04-16.08-24.59,7.88-31.85,18.6-30.9,27.12,.95,8.51,5.68,12.93,1.58,17.66-4.1,4.73-25.54,18.92-25.54,39.1s18.29,17.66,7.88,29.95c-10.4,12.3-44.77,18.29-53.6,40.36s11.35,24.91,23.96,39.41c12.61,14.5,5.36,35,21.76,47.93,16.4,12.93,43.51,13.87,55.18,3.78,11.67-10.09,30.58-30.58,23.65-45.4-6.94-14.82-29.01-33.11-18.29-52.02,10.72-18.92,53.6-27.12,55.49-43.83s-21.76-27.43-23.96-41.93c-2.21-14.5-4.1-23.96-4.1-23.96Z"/>
      <path class="cls-13" d="M420.8,265.05s-8.83,17.03-22.39,38.15c-13.56,21.12-21.12,35.31-21.12,35.31,0,0-14.19-5.36-17.97-6.31-3.78-.95-7.25,5.36-8.83,9.14-1.58,3.78-7.88,4.73-2.21,7.88,5.68,3.15,17.03,4.1,18.6,5.04,1.58,.95,7.57,2.84,11.35,1.26,3.78-1.58,17.34-18.6,32.16-33.74,14.82-15.13,28.06-38.78,28.06-38.78l-17.66-17.97Z"/>
      <path class="cls-8" d="M532.1,582.87s15.13,11.35,14.19,15.45c-.95,4.1-4.73,6.62-17.34,2.21-12.61-4.41-26.8-11.67-22.7-14.5,4.1-2.84,25.85-3.15,25.85-3.15Z"/>
      <path class="cls-8" d="M427.73,583.82s-9.46,11.67-12.61,22.07c-3.15,10.4,15.13,2.52,22.07-4.1,6.94-6.62,11.98-15.76,11.98-17.34s-14.19-5.04-21.44-.63Z"/>
      <path class="cls-5" d="M468.41,339.15s-1.58,44.46,2.84,65.27c4.41,20.81,4.1,61.8,4.1,61.8,0,0-28.38,70.31-34.68,86.39-6.31,16.08-9.46,15.77-11.35,19.86-1.89,4.1-1.89,7.25-2.52,8.83-.63,1.58-2.84,1.89-.63,3.15,2.21,1.26,12.3,5.99,18.6,5.36,6.31-.63,9.77-.63,11.04-3.47,1.26-2.84,1.26-5.99,2.52-9.77,1.26-3.78,19.23-37.52,25.54-54.86,6.31-17.34,25.22-46.98,29.01-58.33,3.78-11.35,10.4-87.02,10.4-93.33s2.52-16.08,2.52-16.08l3.15,.95s-.95,79.77-4.41,95.85c-3.47,16.08-14.19,58.96-21.12,86.71-6.94,27.75-3.15,44.77-3.15,47.29s3.47,1.89,11.04,3.15c7.57,1.26,20.81-4.1,20.81-5.04s.32-22.39,.63-30.27c.32-7.88,9.77-50.76,17.34-75.99,7.57-25.22,13.24-49.82,23.96-81.98,10.72-32.16,6.94-73.46,6.94-73.46,0,0-46.03,3.47-67.79,4.41-21.76,.95-37.84,1.26-44.77,13.56Z"/>
      <path class="cls-6" d="M479.13,175.51s-33.42,11.35-34.37,17.66c-.95,6.31-.32,25.85-.32,26.8s-25.85,42.88-23.65,47.29c2.21,4.41,15.45,16.71,16.4,16.71s27.75-32.79,27.75-32.79c0,0,16.4,24.28,17.03,30.27,.63,5.99-12.3,40.99-14.82,49.82-2.52,8.83-3.47,13.24-3.47,13.24,0,0,8.51,4.73,21.12,11.04,12.61,6.31,35,13.24,35,13.24l9.14-26.49,7.57,26.8s23.02-10.4,31.85-16.71c8.83-6.31,24.59-25.85,24.59-25.85,0,0-20.49-57.7-21.44-64.64-.95-6.94-3.47-44.46-2.21-53.6,1.26-9.14,5.36-18.29,5.36-18.29,0,0,40.04,1.89,47.93,3.15,7.88,1.26,10.09,.63,10.09,.63l-5.99-29.64s-17.66-1.58-33.42-6.62c-15.76-5.04-28.38-7.88-34.05-9.46-5.68-1.58-10.72,.95-22.07,6.31-11.35,5.36-22.07,10.41-24.28,11.04-2.21,.63-33.74,10.09-33.74,10.09Z"/>
      <path class="cls-2" d="M498.36,152.49s-7.25,5.99-11.67,7.25c-4.41,1.26-8.51-1.26-11.04,4.1-2.52,5.36-4.1,28.06-4.1,28.06,0,0,6.62-8.83,9.46-5.99,2.84,2.84,12.93,11.04,19.86,13.87,6.94,2.84,17.66,6.31,17.66,6.31,0,0,5.36-17.03,6.94-21.12,1.58-4.1,2.84-8.83,2.84-8.83,0,0,6.31,9.77,6.31,8.83s1.89-14.5-2.21-22.39c-4.1-7.88-7.88-11.04-13.56-12.3-5.68-1.26-20.49,2.21-20.49,2.21Z"/>
      <path class="cls-11" d="M489.22,134.2s7.57,16.4,7.88,22.39c.32,5.99-6.94,12.3-8.2,22.39-1.26,10.09,9.46,18.92,15.77,22.7,6.31,3.78,14.5,7.25,14.5,7.25,0,0,4.73-22.39,4.73-33.11s-5.68-19.86-5.68-23.33,.95-7.25,.95-7.25c0,0-26.8-16.08-29.95-11.04Z"/>
      <path class="cls-13" d="M513.18,85.65s2.84,5.36-1.89,9.77c-4.73,4.41-9.46,4.1-18.29,9.77-8.83,5.68-7.88,17.97-7.88,17.97,0,0-4.73-2.52-5.04,2.84-.32,5.36-.63,8.2,4.1,9.77,4.73,1.58,6.94,1.26,6.94,1.26,0,0-.32,3.15,9.46,7.57,9.77,4.41,23.65,7.57,27.12,.32,3.47-7.25,5.36-19.55,2.84-28.69-2.52-9.14-7.25-20.49-9.46-23.96-2.21-3.47-7.88-6.62-7.88-6.62Z"/>
      <path class="cls-1" d="M527.05,121.27s-7.88,.63-13.87,1.26c-5.99,.63-9.77-.63-9.77-.63,0,0,6.62,9.77,11.35,11.67s12.3-12.3,12.3-12.3Z"/>
      <path class="cls-2" d="M632.68,193.79l-5.99-29.64s-8.97-.81-19.82-3.09c-2.27,2.08-4.48,6.09-5.09,14.13-.52,6.94,.16,12.33,1.13,16.36,8.6,.54,16.6,1.12,19.68,1.62,7.88,1.26,10.09,.63,10.09,.63Z"/>
      <path class="cls-2" d="M438.45,266c-3.67-4.02-8-10.44-11.15-15.38-4.22,8.06-7.33,14.99-6.51,16.64,2.21,4.41,15.45,16.71,16.4,16.71,.37,0,4.68-5.01,9.8-11.09-2.84-1.76-5.95-4.04-8.54-6.88Z"/>
      <path class="cls-12" d="M347.96,344.82s1.58-1.58,8.83,0c7.25,1.58,10.72,2.84,10.72,2.84"/>
      <g>
        <polygon class="cls-5" points="565.41 116.85 607.14 90.52 604.21 84.58 558.65 103.23 565.41 116.85"/>
        <path class="cls-5" d="M550.88,103.73c-5.33,2.63-7.52,9.08-4.89,14.41,2.63,5.33,9.08,7.52,14.41,4.89,5.33-2.63,7.52-9.08,4.89-14.41-2.63-5.33-9.08-7.52-14.41-4.89Z"/>
      </g>
      <path class="cls-13" d="M632.68,193.79s10.41-.63,18.92-4.41c8.51-3.78,11.98-7.88,7.25-17.03-4.73-9.14-39.41-63.06-46.66-69.68-7.25-6.62-16.08-8.51-19.86-7.88-3.78,.63-12.93,6.94-16.4,7.57-3.47,.63-14.19-1.26-13.56,1.89,.63,3.15,10.09,3.78,10.09,3.78,0,0,5.36,6.31,9.46,6.94s20.18-6.94,20.18-6.94c0,0,17.03,39.73,19.23,45.09,2.21,5.36,7.57,35.94,11.35,40.67Z"/>
      <path class="cls-13" d="M564.57,101.41s-.32-12.61,1.58-13.56c1.89-.95,4.1,.95,4.1,.95,0,0,2.84-2.21,6.94-2.52,4.1-.32,16.71,1.26,13.24,3.47-3.47,2.21-17.03,7.88-17.97,8.2-.95,.32-1.58,4.41-4.1,4.41s-3.78-.95-3.78-.95Z"/>
    </g>
  </g>
  <text class="cls-3" transform="translate(268.48 803.27)"><tspan class="cls-14" x="0" y="0">S</tspan><tspan x="100.05" y="0">i</tspan><tspan class="cls-10" x="141.75" y="0">ng</tspan><tspan class="cls-7" x="322.05" y="0">e</tspan><tspan x="404.7" y="0">r</tspan></text>
</svg>