<?xml version="1.0" encoding="UTF-8" standalone="no"?>
<!-- Created with Inkscape (http://www.inkscape.org/) -->

<svg
   xmlns:dc="http://purl.org/dc/elements/1.1/"
   xmlns:cc="http://creativecommons.org/ns#"
   xmlns:rdf="http://www.w3.org/1999/02/22-rdf-syntax-ns#"
   xmlns:svg="http://www.w3.org/2000/svg"
   xmlns="http://www.w3.org/2000/svg"
   xmlns:sodipodi="http://sodipodi.sourceforge.net/DTD/sodipodi-0.dtd"
   xmlns:inkscape="http://www.inkscape.org/namespaces/inkscape"
   width="1000"
   height="1000"
   viewBox="0 0 264.58333 264.58334"
   version="1.1"
   id="svg2383"
   inkscape:version="0.92.5 (2060ec1f9f, 2020-04-08)"
   sodipodi:docname="I apologize to you.svg"
   enable-background="new">
  <defs
     id="defs2377" />
  <sodipodi:namedview
     id="base"
     pagecolor="#ffffff"
     bordercolor="#666666"
     borderopacity="1.0"
     inkscape:pageopacity="0.0"
     inkscape:pageshadow="2"
     inkscape:zoom="1"
     inkscape:cx="388.36367"
     inkscape:cy="475.96494"
     inkscape:document-units="px"
     inkscape:current-layer="layer3"
     showgrid="false"
     units="px"
     inkscape:window-width="1920"
     inkscape:window-height="1031"
     inkscape:window-x="0"
     inkscape:window-y="25"
     inkscape:window-maximized="1"
     showguides="false" />
  <metadata
     id="metadata2380">
    <rdf:RDF>
      <cc:Work
         rdf:about="">
        <dc:format>image/svg+xml</dc:format>
        <dc:type
           rdf:resource="http://purl.org/dc/dcmitype/StillImage" />
        <dc:title />
      </cc:Work>
    </rdf:RDF>
  </metadata>
  <g
     inkscape:groupmode="layer"
     id="layer3"
     inkscape:label="Layer 2">
    <ellipse
       style="fill:#8ee244;fill-opacity:1;stroke-width:0.40331525"
       id="path3018"
       cx="132.42741"
       cy="208.9003"
       rx="98.300735"
       ry="27.482187" />
    <g
       id="g11013"
       transform="matrix(0.66587087,0,0,0.66610466,48.274682,20.741993)">
      <path
         inkscape:connector-curvature="0"
         id="path8908"
         style="fill:#23664a;fill-opacity:1;fill-rule:nonzero;stroke:none;stroke-width:0.01769318"
         d="m -3.4393506,172.2129 c 0,0 -14.4696354,-2.67828 -25.3461054,16.34859 2.313167,4.09234 18.219717,13.1783 23.8069339,13.3896 10.2946504,0.38885 8.9423625,-27.98961 1.5391715,-29.73819" />
      <path
         inkscape:connector-curvature="0"
         id="path8910"
         style="fill:#0e8a4a;fill-opacity:1;fill-rule:nonzero;stroke:none;stroke-width:0.01769318"
         d="m -2.462603,172.70775 c 0,0 -6.5727772,-0.86968 -13.845502,3.98456 -5.722973,3.8189 -19.755189,22.83689 -16.059939,37.01129 1.477289,5.66764 24.7924979,18.81754 35.6442836,12.09166 10.8500204,-6.72409 3.651349,-53.6129 -5.7388426,-53.08751" />
      <path
         inkscape:connector-curvature="0"
         id="path8912"
         style="fill:#23664a;fill-opacity:1;fill-rule:nonzero;stroke:none;stroke-width:0.01769318"
         d="m 4.3235113,178.9187 c 6.2642377,11.61421 9.0939927,40.1791 0.4390101,45.54311 -4.09212348,2.53552 -6.5798338,1.38495 -15.0567444,0.83984 -7.879226,-2.01527 -8.820713,-4.89703 -10.035479,-6.81465 -3.129475,-4.93787 11.8955331,-30.3664 16.5906281,-35.41008 2.3607712,-2.53587 5.5114039,-3.66319 8.0625852,-4.15822" />
      <path
         inkscape:connector-curvature="0"
         id="path8914"
         style="fill:#105b37;fill-opacity:1;fill-rule:nonzero;stroke:none;stroke-width:0.01769318"
         d="m -18.702374,197.63822 c 0,0 -8.126058,-4.40307 -10.368702,-4.29014 -2.241939,0.11292 -6.200946,9.25997 -4.782015,11.96949 1.418755,2.70953 9.820912,8.24222 15.150717,-7.67935" />
      <path
         inkscape:connector-curvature="0"
         id="path8916"
         style="fill:#fabd99;fill-opacity:1;fill-rule:nonzero;stroke:none;stroke-width:0.01769318"
         d="m 57.11732,156.58536 c -0.689366,0.0113 -0.698182,1.91727 -0.814549,2.37732 -0.01939,-0.0751 -0.211568,-2.43467 -0.248591,-2.94834 -0.08286,-1.19994 -1.22711,-1.27114 -1.341708,-0.22763 -0.09697,0.87464 -0.17631,2.8956 -0.18689,2.99983 -0.02644,-0.0966 -0.375534,-2.5135 -0.431953,-2.9606 -0.167493,-1.31462 -1.643196,-1.31516 -1.47923,0.20064 0.109315,1.02576 0.368487,2.8253 0.349091,2.9851 -0.06347,-0.0528 -0.578292,-1.33132 -0.934435,-2.06392 -0.59063,-1.20917 -1.696086,-0.87003 -1.26942,0.60777 0.342039,1.16745 1.027881,3.99558 1.027881,3.99558 0,0 -1.837137,-0.75959 -2.233831,0.26971 -0.407275,1.03285 2.845617,2.2548 2.845617,2.2548 l 0.181602,0.007 c -0.229205,2.3798 -3.767716,13.8912 -26.153601,10.842 -0.0053,1.48208 0.146333,4.356 0.227436,5.25908 26.894099,3.62393 29.591618,-13.12931 30.111726,-16.12044 0,0 1.165399,-0.18856 0.990853,-4.30203 -0.07052,-1.70384 0.02469,-3.18379 -0.639998,-3.17561" />
      <path
         inkscape:connector-curvature="0"
         id="path8918"
         style="fill:#fabd99;fill-opacity:1;fill-rule:nonzero;stroke:none;stroke-width:0.01769318"
         d="m 23.452982,236.16106 c 0,0 -4.319561,27.77175 -4.093884,31.83248 -2.665784,0.68715 -4.342479,3.06819 -4.342479,3.06819 l 1.544461,-32.6457 6.891902,-2.25497" />
      <path
         inkscape:connector-curvature="0"
         id="path8920"
         style="fill:#e0dedc;fill-opacity:1;fill-rule:nonzero;stroke:none;stroke-width:0.01769318"
         d="m 14.24615,269.2897 c -0.521871,1.16835 -1.465121,2.55151 2.140384,5.96594 2.623474,2.48403 6.288927,3.82103 9.591184,2.80185 3.457408,-1.06888 1.874155,-4.68929 1.874155,-4.68929 L 14.24615,269.2897" />
      <path
         inkscape:connector-curvature="0"
         id="path8922"
         style="fill:#43afbd;fill-opacity:1;fill-rule:nonzero;stroke:none;stroke-width:0.01769318"
         d="m 14.307857,265.09403 c -0.342034,0.88069 -0.915037,3.02559 0.04583,4.83134 3.871734,4.62892 6.646829,7.25853 11.553489,5.90555 3.847055,-1.05824 1.285288,-4.34661 -0.740491,-5.64987 -2.024022,-1.30683 -5.888704,-4.93433 -5.888704,-4.93433 0,0 -1.50215,1.53766 -4.970138,-0.15269" />
      <path
         inkscape:connector-curvature="0"
         id="path8924"
         style="fill:#43afbd;fill-opacity:1;fill-rule:nonzero;stroke:none;stroke-width:0.01769318"
         d="m 19.277995,265.24672 c 0.816308,-1.1772 0.400223,-2.18217 -2.053993,-2.0348 -1.706666,0.10121 -3.400988,0.82742 -1.613224,2.39169 0.576533,0.5966 2.977852,0.46876 3.667217,-0.35689" />
      <path
         inkscape:connector-curvature="0"
         id="path8926"
         style="fill:#f4f1f0;fill-opacity:1;fill-rule:nonzero;stroke:none;stroke-width:0.01769318"
         d="m 25.559866,270.45448 c 2.149197,1.33524 4.048041,4.55612 0.447823,5.54867 -2.743357,0.75462 -5.153497,0.14738 -7.080549,-1.1772 0.0088,-2.97053 3.642534,-4.30754 6.632726,-4.37147" />
      <path
         inkscape:connector-curvature="0"
         id="path8928"
         style="fill:#e0e0de;fill-opacity:1;fill-rule:nonzero;stroke:none;stroke-width:0.01769318"
         d="m 17.273369,268.33269 c 0.125179,0 0.250357,-0.0604 0.326172,-0.17225 0.62413,-0.89843 2.099832,-1.57848 3.489144,-1.15767 0.211568,0.0639 0.431953,-0.0568 0.495424,-0.2681 0.06347,-0.21131 -0.05642,-0.43503 -0.266224,-0.49895 -1.800109,-0.54332 -3.594931,0.3498 -4.368922,1.46662 -0.126942,0.18111 -0.08286,0.43147 0.09697,0.55754 0.07052,0.048 0.149861,0.0728 0.22744,0.0728" />
      <path
         inkscape:connector-curvature="0"
         id="path8930"
         style="fill:#e0e0de;fill-opacity:1;fill-rule:nonzero;stroke:none;stroke-width:0.01769318"
         d="m 18.786095,269.65903 c 0.125178,0 0.248596,-0.0604 0.326171,-0.17224 0.622366,-0.89842 2.098068,-1.57848 3.489144,-1.15767 0.209809,0.0639 0.431958,-0.055 0.493665,-0.26633 0.06347,-0.21307 -0.05466,-0.43503 -0.266229,-0.49894 -1.800109,-0.54686 -3.593166,0.34803 -4.368923,1.46485 -0.125177,0.1811 -0.0811,0.43146 0.09874,0.55753 0.06876,0.0497 0.148097,0.0728 0.227436,0.0728" />
      <path
         inkscape:connector-curvature="0"
         id="path8932"
         style="fill:#e0e0de;fill-opacity:1;fill-rule:nonzero;stroke:none;stroke-width:0.01769318"
         d="m 20.297061,270.98539 c 0.125177,0 0.248591,-0.0604 0.326166,-0.17046 0.624136,-0.90022 2.098073,-1.58026 3.489148,-1.15768 0.209805,0.0621 0.431954,-0.0568 0.495425,-0.2681 0.06347,-0.21308 -0.05642,-0.43503 -0.266224,-0.49895 -1.800109,-0.54687 -3.59493,0.34802 -4.370687,1.46664 -0.125182,0.18111 -0.0811,0.42967 0.09873,0.55751 0.07052,0.048 0.149861,0.071 0.227441,0.071" />
      <path
         inkscape:connector-curvature="0"
         id="path8934"
         style="fill:#fabd99;fill-opacity:1;fill-rule:nonzero;stroke:none;stroke-width:0.01769318"
         d="m -3.3600118,235.61951 c 0,0 -6.54457,31.50754 -6.7684812,35.5683 2.6657839,0.68715 4.3424777,3.06819 4.3424777,3.06819 l 9.317903,-36.38329 -6.8918995,-2.2532" />
      <path
         inkscape:connector-curvature="0"
         id="path8936"
         style="fill:#e0dedc;fill-opacity:1;fill-rule:nonzero;stroke:none;stroke-width:0.01769318"
         d="m -5.0173109,272.48397 c 0.5236362,1.16832 1.466886,2.5515 -2.1403842,5.96593 -2.6234699,2.48401 -6.2889239,3.82281 -9.5894179,2.80185 -3.459173,-1.0689 -1.875923,-4.68929 -1.875923,-4.68929 l 13.6057251,-4.07849" />
      <path
         inkscape:connector-curvature="0"
         id="path8938"
         style="fill:#43afbd;fill-opacity:1;fill-rule:nonzero;stroke:none;stroke-width:0.01769318"
         d="m -5.0772555,268.28828 c 0.342038,0.8807 0.9150411,3.02558 -0.047603,4.83134 -3.8699714,4.62892 -6.6450665,7.25854 -11.5534945,5.90556 -3.847052,-1.05825 -1.283526,-4.34661 0.742259,-5.64988 2.024021,-1.30682 5.88694,-4.93432 5.88694,-4.93432 0,0 1.5039111,1.53766 4.9718988,-0.1527" />
      <path
         inkscape:connector-curvature="0"
         id="path8940"
         style="fill:#43afbd;fill-opacity:1;fill-rule:nonzero;stroke:none;stroke-width:0.01769318"
         d="m -10.049154,268.44098 c -0.814545,-1.1772 -0.400221,-2.18218 2.0539928,-2.0348 1.7084293,0.10121 3.4009908,0.82741 1.6132227,2.39169 -0.5747648,0.5966 -2.9778503,0.46876 -3.6672155,-0.35689" />
      <path
         inkscape:connector-curvature="0"
         id="path8942"
         style="fill:#f4f1f0;fill-opacity:1;fill-rule:nonzero;stroke:none;stroke-width:0.01769318"
         d="m -16.331026,273.64875 c -2.147438,1.33522 -4.048043,4.55611 -0.44606,5.54866 2.743361,0.75462 5.151734,0.14738 7.0787851,-1.17721 -0.00704,-2.97052 -3.6407701,-4.30753 -6.6327251,-4.37145" />
      <path
         inkscape:connector-curvature="0"
         id="path8944"
         style="fill:#e0e0de;fill-opacity:1;fill-rule:nonzero;stroke:none;stroke-width:0.01769318"
         d="m -8.0445271,271.52693 c -0.1251794,0 -0.2485947,-0.0604 -0.3261707,-0.17223 -0.6223682,-0.89844 -2.0980702,-1.57848 -3.4891442,-1.15766 -0.209807,0.0639 -0.431956,-0.0568 -0.493665,-0.26813 -0.06347,-0.21128 0.05466,-0.43501 0.266228,-0.49892 1.798346,-0.54333 3.5949281,0.34977 4.3689231,1.46661 0.1251784,0.18111 0.081101,0.43147 -0.098733,0.55754 -0.068761,0.0479 -0.1480994,0.0728 -0.2274382,0.0728" />
      <path
         inkscape:connector-curvature="0"
         id="path8946"
         style="fill:#e0e0de;fill-opacity:1;fill-rule:nonzero;stroke:none;stroke-width:0.01769318"
         d="m -9.555491,272.85328 c -0.1251784,0 -0.2485951,-0.0604 -0.3261697,-0.17223 -0.6241323,-0.89844 -2.0980713,-1.57848 -3.4891453,-1.15766 -0.209807,0.0639 -0.431957,-0.055 -0.495427,-0.26634 -0.06347,-0.21307 0.05642,-0.43502 0.266226,-0.49894 1.80011,-0.54509 3.59493,0.34801 4.3706873,1.46485 0.1251794,0.1811 0.081101,0.43146 -0.098733,0.55753 -0.070523,0.0497 -0.1498617,0.0728 -0.2274378,0.0728" />
      <path
         inkscape:connector-curvature="0"
         id="path8948"
         style="fill:#e0e0de;fill-opacity:1;fill-rule:nonzero;stroke:none;stroke-width:0.01769318"
         d="m -11.068218,274.17964 c -0.125178,0 -0.248595,-0.0604 -0.32617,-0.17046 -0.622369,-0.90022 -2.098071,-1.58025 -3.489145,-1.15767 -0.209807,0.0622 -0.431956,-0.0568 -0.493663,-0.2681 -0.06347,-0.21131 0.05466,-0.43503 0.266225,-0.49895 1.800109,-0.54688 3.594931,0.34801 4.368924,1.46663 0.12518,0.1811 0.0811,0.42969 -0.09873,0.55753 -0.06876,0.0479 -0.148099,0.071 -0.227438,0.071" />
      <path
         inkscape:connector-curvature="0"
         id="path8950"
         style="fill:#ee2722;fill-opacity:1;fill-rule:nonzero;stroke:none;stroke-width:0.01769318"
         d="m -4.7052447,215.07434 c -1.2658946,6.59271 -14.2333843,41.67805 -13.9019233,43.56015 4.321321,5.75819 22.8672085,4.71239 24.2459395,3.32388 2.330797,-10.58775 4.9154835,-29.4763 6.8107985,-31.01394 2.438343,-1.978 0.886831,21.16483 0.608263,30.08176 1.860056,1.77203 21.562523,0.5167 23.568913,-3.50498 0.876255,-5.09058 -8.267105,-43.56369 -8.267105,-43.56369 l -33.0648857,1.11682" />
      <path
         inkscape:connector-curvature="0"
         id="path8952"
         style="fill:#fabd99;fill-opacity:1;fill-rule:nonzero;stroke:none;stroke-width:0.01769318"
         d="m 23.144442,173.30168 c 0,0 -5.52551,-1.02629 -8.016749,-1.25285 -0.232728,-2.62021 0,-6.31891 0,-6.31891 L 8.7664846,165.2269 c 0,0 -0.054655,5.05932 0,6.77985 -2.6111286,0.54048 -7.1969119,1.27468 -8.48043636,1.42952 C 4.0343634,192.47946 23.81794,185.83846 23.144442,173.30168" />
      <path
         inkscape:connector-curvature="0"
         id="path8954"
         style="fill:#efa378;fill-opacity:1;fill-rule:nonzero;stroke:none;stroke-width:0.01769318"
         d="m 14.616401,170.30504 0.002,2.01936 c 0,0 -3.036035,-1.58062 -5.5219807,0 0.077574,-1.1884 0.077574,-2.29724 0.077574,-2.29724 l 5.4426427,0.27788" />
      <path
         inkscape:connector-curvature="0"
         id="path8956"
         style="fill:#070605;fill-opacity:1;fill-rule:nonzero;stroke:none;stroke-width:0.01769318"
         d="m 11.871279,173.68928 c 1.641431,0 3.748315,-0.35458 4.093882,-1.69389 0.08463,-0.32565 -0.109315,-0.65838 -0.433721,-0.74291 -0.322644,-0.0847 -0.652343,0.11098 -0.736969,0.43662 -0.06876,0.26651 -0.900935,0.69602 -2.466556,0.77095 -1.923522,0.0922 -3.2934426,-0.38938 -3.3992242,-0.68235 -0.031735,-0.33504 -0.327935,-0.57564 -0.6593944,-0.54528 -0.3332225,0.0322 -0.5765318,0.33292 -0.544796,0.66798 0.1287056,1.35742 2.3413766,1.67986 3.2846266,1.75533 0.260936,0.0209 0.553612,0.0335 0.862152,0.0335" />
      <path
         inkscape:connector-curvature="0"
         id="path8958"
         style="fill:#ee2722;fill-opacity:1;fill-rule:nonzero;stroke:none;stroke-width:0.01769318"
         d="m 11.460476,174.58133 c 0,0.55558 0.447826,1.00586 0.999669,1.00586 0.551848,0 0.999669,-0.45028 0.999669,-1.00586 0,-0.55557 -0.447821,-1.00587 -0.999669,-1.00587 -0.551843,0 -0.999669,0.4503 -0.999669,1.00587" />
      <path
         inkscape:connector-curvature="0"
         id="path8960"
         style="fill:#070605;fill-opacity:1;fill-rule:nonzero;stroke:none;stroke-width:0.01769318"
         d="m 19.239208,172.08363 c 0,0 5.038897,1.07067 7.685283,2.13371 1.937631,10.18824 2.214435,32.25258 1.879448,40.70785 -7.729358,3.5991 -28.14059286,3.21557 -36.1308899,0.52735 1.2376855,-17.90133 0.9115142,-39.63168 3.353386,-40.99869 1.4351514,-0.80345 8.7307936,-2.13087 8.7307936,-2.13087 0,0 -0.4742685,8.66871 8.6126713,8.4638 9.016413,-0.2033 5.869308,-8.70315 5.869308,-8.70315" />
      <path
         inkscape:connector-curvature="0"
         id="path8962"
         style="fill:#070605;fill-opacity:1;fill-rule:nonzero;stroke:none;stroke-width:0.01769318"
         d="m -15.292568,224.38545 c -0.835703,1.18254 -1.435153,2.50888 -1.784243,3.9187 -0.04055,0.16868 0.118128,0.34091 0.276805,0.36221 0.186887,0.0266 0.317355,-0.10653 0.359669,-0.27698 0.320881,-1.29617 0.890358,-2.52664 1.659063,-3.61329 0.23978,-0.33736 -0.269753,-0.72976 -0.511294,-0.39064 v 0" />
      <path
         inkscape:connector-curvature="0"
         id="path8964"
         style="fill:#070605;fill-opacity:1;fill-rule:nonzero;stroke:none;stroke-width:0.01769318"
         d="m -14.10425,225.1383 c -0.685839,1.68147 -1.149531,3.45349 -1.375206,5.25748 -0.05113,0.41193 0.585345,0.49893 0.636475,0.0852 0.218622,-1.75072 0.664682,-3.46237 1.331128,-5.09413 0.156915,-0.38707 -0.435482,-0.63388 -0.592397,-0.24857 v 0" />
      <path
         inkscape:connector-curvature="0"
         id="path8966"
         style="fill:#070605;fill-opacity:1;fill-rule:nonzero;stroke:none;stroke-width:0.01769318"
         d="m -13.229759,225.30165 c -0.64,2.27096 -0.888595,4.6307 -0.726391,6.98511 0.01233,0.174 0.197466,0.2983 0.361433,0.27699 0.181597,-0.0248 0.287382,-0.18999 0.275041,-0.364 -0.153388,-2.23366 0.07581,-4.49575 0.684076,-6.64952 0.04584,-0.16868 -0.0017,-0.34979 -0.174545,-0.42258 -0.144573,-0.0622 -0.37201,0.005 -0.419614,0.174 v 0" />
      <path
         inkscape:connector-curvature="0"
         id="path8968"
         style="fill:#070605;fill-opacity:1;fill-rule:nonzero;stroke:none;stroke-width:0.01769318"
         d="m -11.427887,225.54846 c -0.08286,1.49149 -0.165729,2.98296 -0.250358,4.47445 -0.0088,0.17399 0.09521,0.33912 0.276804,0.36221 0.160442,0.0231 0.350855,-0.1012 0.359669,-0.27698 0.08463,-1.49148 0.167494,-2.98297 0.250359,-4.47445 0.01058,-0.17401 -0.09344,-0.33914 -0.275041,-0.364 -0.162204,-0.0213 -0.350854,0.10298 -0.361433,0.27877 v 0" />
      <path
         inkscape:connector-curvature="0"
         id="path8970"
         style="fill:#070605;fill-opacity:1;fill-rule:nonzero;stroke:none;stroke-width:0.01769318"
         d="m -8.1749957,225.54667 c -0.8339381,1.38141 -1.3981258,2.90662 -1.6520099,4.50464 -0.065234,0.41193 0.5712394,0.49539 0.6364732,0.0852 0.2362537,-1.48083 0.7528381,-2.9155 1.5268316,-4.19923 0.089917,-0.14915 0.086391,-0.33914 -0.061709,-0.45277 -0.126942,-0.0959 -0.3596689,-0.087 -0.4495864,0.0621 v 0" />
      <path
         inkscape:connector-curvature="0"
         id="path8972"
         style="fill:#070605;fill-opacity:1;fill-rule:nonzero;stroke:none;stroke-width:0.01769318"
         d="m -7.1012768,226.33326 c -0.7704676,2.13069 -1.0049587,4.44071 -0.6646824,6.68326 0.061708,0.41193 0.6981815,0.32494 0.6347105,-0.087 -0.3208817,-2.12891 -0.1093116,-4.32351 0.6223681,-6.34945 0.1410472,-0.39062 -0.4513491,-0.63921 -0.5923962,-0.2468 v 0" />
      <path
         inkscape:connector-curvature="0"
         id="path8974"
         style="fill:#070605;fill-opacity:1;fill-rule:nonzero;stroke:none;stroke-width:0.01769318"
         d="m -6.404858,226.81267 c 0.2098073,1.54651 0.4178509,3.09482 0.6276582,4.64134 0.056419,0.41194 0.6928925,0.32493 0.6364733,-0.087 -0.2098074,-1.5483 -0.4196137,-3.09482 -0.6276583,-4.64134 -0.056419,-0.41195 -0.6928925,-0.32493 -0.6364732,0.087 v 0" />
      <path
         inkscape:connector-curvature="0"
         id="path8976"
         style="fill:#070605;fill-opacity:1;fill-rule:nonzero;stroke:none;stroke-width:0.01769318"
         d="m -3.9347766,226.96358 c -0.082865,1.54298 0.1463352,3.08063 0.6787874,4.5295 0.1428098,0.39063 0.7334434,0.13672 0.5906336,-0.25391 -0.490138,-1.33524 -0.7087598,-2.76634 -0.6329478,-4.18858 0.00882,-0.17401 -0.095207,-0.33913 -0.2750411,-0.364 -0.162204,-0.0213 -0.3526172,0.10299 -0.3614321,0.27699 v 0" />
      <path
         inkscape:connector-curvature="0"
         id="path8978"
         style="fill:#070605;fill-opacity:1;fill-rule:nonzero;stroke:none;stroke-width:0.01769318"
         d="m -0.75417231,226.90145 c -0.74049719,2.05789 -0.76870439,4.32351 -0.089919,6.40093 0.0546547,0.16692 0.27151618,0.23438 0.4213778,0.17045 0.17102199,-0.0728 0.22391285,-0.25745 0.16925781,-0.42434 -0.62237111,-1.9052 -0.58534299,-4.01459 0.0916782,-5.90024 0.14105066,-0.39063 -0.45134912,-0.63921 -0.59239478,-0.2468 v 0" />
      <path
         inkscape:connector-curvature="0"
         id="path8980"
         style="fill:#070605;fill-opacity:1;fill-rule:nonzero;stroke:none;stroke-width:0.01769318"
         d="m 2.1372892,225.92666 c 0.2327232,2.06854 0.4636885,4.13886 0.6964169,6.2074 0.047576,0.41372 0.6823141,0.3267 0.6364747,-0.087 -0.2327284,-2.06855 -0.4654576,-4.13886 -0.6964221,-6.20742 -0.047576,-0.41369 -0.6823141,-0.3267 -0.6364695,0.087 v 0" />
      <path
         inkscape:connector-curvature="0"
         id="path8982"
         style="fill:#070605;fill-opacity:1;fill-rule:nonzero;stroke:none;stroke-width:0.01769318"
         d="m 0.78147226,227.17488 c -0.0617069,1.26599 0.0440798,2.5302 0.32969964,3.76422 0.038782,0.17046 0.1780688,0.30184 0.3614302,0.27699 0.1586775,-0.0213 0.3138314,-0.19354 0.2732803,-0.364 -0.2715162,-1.17542 -0.3878781,-2.38459 -0.3296996,-3.59021 0.00885,-0.17399 -0.091678,-0.33913 -0.2750396,-0.36399 -0.16044181,-0.0213 -0.35261414,0.10121 -0.35967094,0.27699 v 0" />
      <path
         inkscape:connector-curvature="0"
         id="path8984"
         style="fill:#070605;fill-opacity:1;fill-rule:nonzero;stroke:none;stroke-width:0.01769318"
         d="m 4.18423,226.93695 c 0.1886494,1.51102 0.4795569,3.00606 0.8727275,4.478 0.044076,0.16869 0.1727811,0.30186 0.3614296,0.27699 0.1551488,-0.0213 0.319119,-0.19532 0.2750391,-0.36399 -0.3931654,-1.47196 -0.6858368,-2.96698 -0.8727266,-4.47977 -0.051129,-0.41194 -0.6876008,-0.32494 -0.6364696,0.0888 v 0" />
      <path
         inkscape:connector-curvature="0"
         id="path8986"
         style="fill:#070605;fill-opacity:1;fill-rule:nonzero;stroke:none;stroke-width:0.01769318"
         d="m 4.8841713,226.21785 c 0.8868345,1.55895 1.6766942,3.17118 2.3642958,4.82779 0.1604423,0.38352 0.7510776,0.13138 0.5906353,-0.25392 -0.6876007,-1.65661 -1.4774656,-3.26883 -2.3642958,-4.82777 -0.08639,-0.15094 -0.2485967,-0.24327 -0.4213778,-0.17046 -0.1463387,0.0639 -0.2556481,0.27343 -0.1692575,0.42436 v 0" />
      <path
         inkscape:connector-curvature="0"
         id="path8988"
         style="fill:#afc8d8;fill-opacity:1;fill-rule:nonzero;stroke:none;stroke-width:0.01769318"
         d="m 11.497504,218.61484 c -7.8845132,0 -15.2066065,-0.82032 -19.1594422,-2.14844 -0.5553717,-0.18822 -0.855095,-0.79191 -0.6699714,-1.35122 0.1851241,-0.5593 0.7863353,-0.86115 1.3417071,-0.67472 8.1013744,2.72551 27.9924965,2.94214 35.3498435,-0.48294 0.530688,-0.24682 1.160111,-0.0142 1.406943,0.52023 0.245068,0.53446 0.01234,1.17011 -0.518348,1.41691 -3.66721,1.70811 -8.859497,2.69888 -17.48098,2.72018 -0.08992,0 -0.179838,0 -0.269752,0" />
      <path
         inkscape:connector-curvature="0"
         id="path8990"
         style="fill:#43afbd;fill-opacity:1;fill-rule:nonzero;stroke:none;stroke-width:0.01769318"
         d="m 4.0766793,171.89169 c 0,0 2.4771348,37.64997 2.300825,54.77538 -5.55900392,1.05823 -19.4256653,0.41725 -22.1760773,-1.1488 3.036032,-15.42618 6.1637432,-49.75582 8.5985642,-51.45328 2.970797,-2.07014 7.54247634,-1.99218 11.2766881,-2.1733" />
      <path
         inkscape:connector-curvature="0"
         id="path8992"
         style="fill:#bed9ea;fill-opacity:1;fill-rule:nonzero;stroke:none;stroke-width:0.01769318"
         d="m -7.7553805,174.18556 0.6188427,10.74506 5.9451199,-0.89596 -5.9451199,3.25534 13.1631874,21.78113 -1.9499703,-37.28615 -11.8320598,2.40058" />
      <path
         inkscape:connector-curvature="0"
         id="path8994"
         style="fill:#105b37;fill-opacity:1;fill-rule:nonzero;stroke:none;stroke-width:0.01769318"
         d="m -7.2000088,174.06499 c -0.2591738,1.03144 1.7384006,10.67368 3.034268,12.95548 0.6840765,1.2056 6.5921726,0.93271 7.1845676,-1.7564 0.8057323,-3.65432 0.3226476,-10.93238 -0.070522,-13.18062 -1.5250643,-1.11807 -10.1712338,0.19123 -10.1483128,1.98154" />
      <path
         inkscape:connector-curvature="0"
         id="path8996"
         style="fill:#0e8a4a;fill-opacity:1;fill-rule:nonzero;stroke:none;stroke-width:0.01769318"
         d="m -4.3491021,171.76208 c 0,0 1.4474927,21.70621 0.8215982,24.33316 -0.6258961,2.62607 -16.2979551,21.02635 -16.2979551,21.02635 l 2.522974,2.51065 c 0,0 17.50214262,-19.68578 18.12803716,-23.36299 0.62589454,-3.67721 -0.67173361,-25.12934 -0.67173361,-25.12934 l -4.50292065,0.62217" />
      <path
         inkscape:connector-curvature="0"
         id="path8998"
         style="fill:#fabd99;fill-opacity:1;fill-rule:nonzero;stroke:none;stroke-width:0.01769318"
         d="m -20.655872,188.62647 c 0.758126,-2.0634 4.7903,-6.40041 11.2819797,-10.71611 0.2203844,1.48597 -0.5871072,3.43661 -0.3032517,4.7706 -1.29763,1.53516 -7.09818,7.51476 -5.9222,9.0398 2.006389,2.59891 7.6976267,3.23457 7.7346519,3.07122 3.5561415,0.17222 3.9422569,-3.07122 4.4835235,-1.96752 0.3579067,0.731 0.095207,1.845 0.1586776,3.0595 0.026448,0.51845 1.012013,0.68714 1.8177404,0.58771 1.25002485,-0.19176 1.96407419,-0.63211 2.14038379,-0.68715 1.01906541,0.63565 0.24154486,1.70632 -0.12694209,1.67259 0.7193419,0.12607 0.5694752,1.27664 -0.37729789,1.68148 0.38082625,0.48117 -0.27856797,1.51278 -1.63790791,1.68501 -4.0286471,0.51136 -7.3185636,-2.06854 -7.3185636,-2.06854 -9.3549277,-1.74363 -15.4781207,-4.2099 -11.9307937,-10.12859" />
      <path
         inkscape:connector-curvature="0"
         id="path9000"
         style="fill:#43afbd;fill-opacity:1;fill-rule:nonzero;stroke:none;stroke-width:0.01769318"
         d="m -7.4997336,174.50836 c -9.9296934,2.60707 -23.5544584,11.49986 -19.9863284,22.42496 3.570246,10.9251 10.456854,11.61402 12.11768,11.51281 0.126943,-1.41335 4.157355,-14.39103 2.720441,-16.04071 -2.332561,-1.15821 -0.865675,-2.22585 -0.865675,-2.22585 l 4.0339384,-0.77895 c 0,0 1.8671069,-9.71381 1.979944,-14.89226" />
      <path
         inkscape:connector-curvature="0"
         id="path9002"
         style="fill:#070605;fill-opacity:1;fill-rule:nonzero;stroke:none;stroke-width:0.01769318"
         d="m 43.234792,222.65959 c 0.987324,1.05826 1.759558,2.2905 2.29201,3.63994 0.06523,0.16157 -0.06876,0.3551 -0.223914,0.39772 -0.181597,0.0497 -0.329699,-0.0639 -0.39493,-0.22727 -0.490141,-1.23935 -1.220058,-2.38104 -2.128044,-3.35406 -0.282096,-0.30362 0.171017,-0.75995 0.454878,-0.45633 v 0" />
      <path
         inkscape:connector-curvature="0"
         id="path9004"
         style="fill:#070605;fill-opacity:1;fill-rule:nonzero;stroke:none;stroke-width:0.01769318"
         d="m 42.159307,223.56692 c 0.904463,1.57138 1.602644,3.26529 2.066338,5.02132 0.107546,0.40306 -0.511297,0.5735 -0.618843,0.17224 -0.451349,-1.70634 -1.123088,-3.33987 -2.001102,-4.86862 -0.208046,-0.36045 0.347326,-0.68538 0.553607,-0.32494 v 0" />
      <path
         inkscape:connector-curvature="0"
         id="path9006"
         style="fill:#070605;fill-opacity:1;fill-rule:nonzero;stroke:none;stroke-width:0.01769318"
         d="m 41.313028,223.84745 c 0.939722,2.16265 1.502145,4.46735 1.6573,6.82176 0.01059,0.17401 -0.155155,0.32316 -0.320884,0.32316 -0.183362,0 -0.310304,-0.14738 -0.320879,-0.32316 -0.148102,-2.23366 -0.67879,-4.44425 -1.569149,-6.49504 -0.06876,-0.15981 -0.04758,-0.34803 0.114603,-0.44212 0.135757,-0.0799 0.370245,-0.0462 0.439009,0.1154 v 0" />
      <path
         inkscape:connector-curvature="0"
         id="path9008"
         style="fill:#070605;fill-opacity:1;fill-rule:nonzero;stroke:none;stroke-width:0.01769318"
         d="m 39.562282,224.33574 c 0.282096,1.46662 0.564188,2.93325 0.846284,4.39987 0.03348,0.17045 -0.04763,0.34801 -0.223913,0.39774 -0.156913,0.0426 -0.361436,-0.0533 -0.39493,-0.22552 -0.282097,-1.46661 -0.564188,-2.93323 -0.848043,-4.39986 -0.03173,-0.17046 0.04937,-0.34801 0.225672,-0.39773 0.156913,-0.0426 0.361435,0.0533 0.39493,0.2255 v 0" />
      <path
         inkscape:connector-curvature="0"
         id="path9010"
         style="fill:#070605;fill-opacity:1;fill-rule:nonzero;stroke:none;stroke-width:0.01769318"
         d="m 36.337603,224.77785 c 1.012008,1.25534 1.775425,2.69 2.242642,4.23831 0.11989,0.39772 -0.500717,0.56818 -0.620607,0.17045 -0.431953,-1.43467 -1.137187,-2.78587 -2.075149,-3.95243 -0.109309,-0.13495 -0.132229,-0.32493 0,-0.45633 0.112839,-0.11363 0.343803,-0.13672 0.453114,0 v 0" />
      <path
         inkscape:connector-curvature="0"
         id="path9012"
         style="fill:#070605;fill-opacity:1;fill-rule:nonzero;stroke:none;stroke-width:0.01769318"
         d="m 35.380244,225.70294 c 1.049037,2.00638 1.590305,4.26315 1.555041,6.53233 -0.0071,0.41548 -0.648814,0.41548 -0.641762,0 0.03348,-2.15555 -0.470741,-4.30043 -1.466887,-6.20741 -0.193936,-0.36754 0.361436,-0.69425 0.553608,-0.32492 v 0" />
      <path
         inkscape:connector-curvature="0"
         id="path9014"
         style="fill:#070605;fill-opacity:1;fill-rule:nonzero;stroke:none;stroke-width:0.01769318"
         d="m 34.754349,226.2729 c 0,1.56072 0,3.12145 0,4.68396 0,0.41548 -0.641762,0.41548 -0.641762,0 0,-1.56251 0,-3.12324 0,-4.68396 0,-0.41727 0.641762,-0.41727 0.641762,0 v 0" />
      <path
         inkscape:connector-curvature="0"
         id="path9016"
         style="fill:#070605;fill-opacity:1;fill-rule:nonzero;stroke:none;stroke-width:0.01769318"
         d="m 32.326582,226.75762 c 0.289148,1.51812 0.267993,3.07352 -0.06523,4.58099 -0.08816,0.4066 -0.708762,0.23437 -0.618843,-0.17224 0.306775,-1.3885 0.331459,-2.83735 0.06523,-4.23652 -0.03174,-0.17045 0.04758,-0.34801 0.223913,-0.39773 0.156913,-0.0426 0.363195,0.0533 0.39493,0.2255 v 0" />
      <path
         inkscape:connector-curvature="0"
         id="path9018"
         style="fill:#070605;fill-opacity:1;fill-rule:nonzero;stroke:none;stroke-width:0.01769318"
         d="m 29.167138,227.12694 c 1.00848,1.93893 1.341703,4.17971 0.946773,6.3317 -0.03174,0.17223 -0.238016,0.26988 -0.39493,0.22549 -0.178074,-0.0497 -0.255648,-0.22549 -0.223912,-0.39773 0.361435,-1.97266 0.04233,-4.05718 -0.881544,-5.83276 -0.192172,-0.36754 0.361436,-0.69424 0.553613,-0.3267 v 0" />
      <path
         inkscape:connector-curvature="0"
         id="path9020"
         style="fill:#070605;fill-opacity:1;fill-rule:nonzero;stroke:none;stroke-width:0.01769318"
         d="m 26.171654,226.55521 c 0.04763,2.08275 0.09344,4.16371 0.141046,6.24646 0.0106,0.41548 -0.632944,0.41548 -0.64176,0 -0.04758,-2.08275 -0.09344,-4.16371 -0.141046,-6.24646 -0.0106,-0.41549 0.632944,-0.41549 0.64176,0 v 0" />
      <path
         inkscape:connector-curvature="0"
         id="path9022"
         style="fill:#070605;fill-opacity:1;fill-rule:nonzero;stroke:none;stroke-width:0.01769318"
         d="m 27.68262,227.60812 c 0.230965,1.24468 0.296195,2.51421 0.178069,3.77487 -0.01589,0.17402 -0.135758,0.32316 -0.320879,0.32316 -0.160441,0 -0.336751,-0.14738 -0.320883,-0.32316 0.111074,-1.20206 0.06523,-2.41477 -0.155149,-3.60263 -0.03173,-0.17224 0.04758,-0.34802 0.223907,-0.39774 0.156919,-0.0426 0.363199,0.0533 0.394935,0.2255 v 0" />
      <path
         inkscape:connector-curvature="0"
         id="path9024"
         style="fill:#070605;fill-opacity:1;fill-rule:nonzero;stroke:none;stroke-width:0.01769318"
         d="m 24.278105,227.83362 c 0.01764,1.52344 -0.07052,3.0451 -0.264464,4.55612 -0.02114,0.17401 -0.130466,0.32317 -0.320879,0.32317 -0.155155,0 -0.342039,-0.14916 -0.320883,-0.32317 0.193941,-1.51102 0.280331,-3.03268 0.264464,-4.55612 -0.0053,-0.41549 0.636469,-0.41549 0.641762,0 v 0" />
      <path
         inkscape:connector-curvature="0"
         id="path9026"
         style="fill:#070605;fill-opacity:1;fill-rule:nonzero;stroke:none;stroke-width:0.01769318"
         d="m 23.48824,227.21927 c -0.669969,1.66372 -1.235921,3.36827 -1.696086,5.10478 -0.105787,0.40128 -0.726389,0.23082 -0.618843,-0.17224 0.460165,-1.73473 1.026117,-3.44106 1.696087,-5.10477 0.06523,-0.16157 0.215097,-0.27699 0.394934,-0.22549 0.153385,0.0408 0.290908,0.23437 0.223908,0.39772 v 0" />
      <path
         inkscape:connector-curvature="0"
         id="path9028"
         style="fill:#43afbd;fill-opacity:1;fill-rule:nonzero;stroke:none;stroke-width:0.01769318"
         d="m 21.728682,172.38033 c 0,0 0.356144,38.16097 0.534217,55.28461 5.559003,1.06002 18.739826,-3.19426 21.490236,-4.76031 -3.006059,-15.28059 -6.19195,-26.14888 -7.084074,-35.20058 11.754489,7.03111 19.476797,-1.44104 20.76385,-7.01013 -1.151295,-2.78356 -8.205398,-11.3935 -9.300273,-11.63054 -5.014213,3.43414 -12.15823,5.32938 -15.107874,5.06039 -2.94964,-0.26882 -7.561869,-1.56251 -11.296082,-1.74344" />
      <path
         inkscape:connector-curvature="0"
         id="path9030"
         style="fill:#bed9ea;fill-opacity:1;fill-rule:nonzero;stroke:none;stroke-width:0.01769318"
         d="m 31.878761,173.98367 0.495424,11.36118 -5.946882,-0.89595 5.946882,3.25515 -10.292883,21.78079 -0.92033,-37.40121 10.717789,1.90004" />
      <path
         inkscape:connector-curvature="0"
         id="path9032"
         style="fill:#fabd99;fill-opacity:1;fill-rule:nonzero;stroke:none;stroke-width:0.01769318"
         d="m -24.480002,143.66966 c 4.598123,20.56257 23.58830738,30.63894 43.250229,26.18172 C 38.430383,165.39487 51.30619,148.09474 46.708068,127.5297 42.113468,106.96856 22.619041,94.653184 2.9571199,99.109874 -16.703036,103.56656 -29.074602,123.10852 -24.480002,143.66966" />
      <path
         inkscape:connector-curvature="0"
         id="path9034"
         style="fill:#fabd99;fill-opacity:1;fill-rule:nonzero;stroke:none;stroke-width:0.01769318"
         d="m -24.480002,143.66966 c 4.598123,20.56257 23.58830738,30.63894 43.250229,26.18172 C 38.430383,165.39487 51.30619,148.09474 46.708068,127.5297 42.113468,106.96856 22.619041,94.653184 2.9571199,99.109874 -16.703036,103.56656 -29.074602,123.10852 -24.480002,143.66966" />
      <path
         inkscape:connector-curvature="0"
         id="path9036"
         style="fill:#fabd99;fill-opacity:1;fill-rule:nonzero;stroke:none;stroke-width:0.01769318"
         d="m -23.025458,143.50311 c 0,0 -1.412231,-4.06819 -6.57807,-3.66158 -5.447754,0.43323 -6.190543,7.89277 -2.51169,11.52542 3.67709,3.62555 9.620449,2.5222 10.822872,-1.13139 l -1.733112,-6.73245" />
      <path
         inkscape:connector-curvature="0"
         id="path9038"
         style="fill:#d37658;fill-opacity:1;fill-rule:nonzero;stroke:none;stroke-width:0.01769318"
         d="m -30.285136,141.88219 c 3.354445,-1.27184 7.30023,4.34696 3.190479,8.42883 1.181266,-4.71824 -0.913279,-5.86596 -3.018401,-3.32192 -0.235019,-1.42348 0.463691,-2.48013 2.584682,-2.71912 -0.511295,-1.84393 -2.75676,-2.38779 -2.75676,-2.38779" />
      <path
         inkscape:connector-curvature="0"
         id="path9040"
         style="fill:#fabd99;fill-opacity:1;fill-rule:nonzero;stroke:none;stroke-width:0.01769318"
         d="m 45.547956,127.97181 c 0,0 -0.454877,-4.28445 4.386555,-6.14525 5.107655,-1.95846 8.951183,4.46023 7.175757,9.32886 -1.782481,4.8633 -7.621818,6.42935 -10.259391,3.64703 l -1.302921,-6.83064" />
      <path
         inkscape:connector-curvature="0"
         id="path9042"
         style="fill:#d37658;fill-opacity:1;fill-rule:nonzero;stroke:none;stroke-width:0.01769318"
         d="m 51.420793,123.37486 c -3.573775,0.29829 -4.74799,7.07921 0.701705,8.99327 -3.074818,-3.75355 -1.671402,-5.69426 1.313501,-4.30576 -0.393171,-1.38495 -1.473938,-2.03836 -3.490908,-1.34056 -0.322647,-1.88566 1.475702,-3.34695 1.475702,-3.34695" />
      <path
         inkscape:connector-curvature="0"
         id="path9044"
         style="fill:#ee5b63;fill-opacity:1;fill-rule:nonzero;stroke:none;stroke-width:0.01769318"
         d="m 9.4382188,140.32981 c 1.0737202,0.53942 1.1847942,-2.11649 3.4027532,-2.39525 2.262038,-0.28409 2.843858,2.33133 3.825895,1.34056 0.802203,-0.80612 -0.692895,-3.89561 -4.38479,-3.31145 -3.0818749,0.48828 -3.8646832,3.85477 -2.8438582,4.36614" />
      <path
         inkscape:connector-curvature="0"
         id="path9046"
         style="fill:#f79883;fill-opacity:1;fill-rule:nonzero;stroke:none;stroke-width:0.01769318"
         d="m 47.631921,136.46794 c -0.178069,9.34892 -4.051567,17.60569 -10.421592,23.69609 -0.590635,-0.22496 -1.165398,-0.50621 -1.719011,-0.84908 -5.345671,-3.31233 -6.652116,-10.95369 -2.917903,-17.06468 3.422149,-5.60123 9.887379,-7.97339 15.058506,-5.78233" />
      <path
         inkscape:connector-curvature="0"
         id="path9048"
         style="fill:#f79883;fill-opacity:1;fill-rule:nonzero;stroke:none;stroke-width:0.01769318"
         d="m -21.530363,152.10488 c 3.533222,-4.18734 10.148317,-5.15342 15.7055599,-2.00516 6.21134554,3.51813 8.7519519,10.83704 5.67536997,16.34593 -0.5465557,0.97781 -1.23592137,1.83027 -2.02930937,2.55577 -8.2865005,-2.77985 -15.2418705,-8.56146 -19.3516205,-16.89654" />
      <path
         inkscape:connector-curvature="0"
         id="path9050"
         style="fill:#ffffff;fill-opacity:1;fill-rule:nonzero;stroke:none;stroke-width:0.01769318"
         d="m 20.721962,132.00059 c 1.946448,2.32245 7.124623,4.42829 11.377184,3.44106 4.25256,-0.98722 5.559004,-4.16372 6.689144,-7.63496 -0.347327,-1.70988 -5.222258,-6.95493 -9.474818,-5.9677 -4.252559,0.98722 -7.646496,5.67473 -8.59151,10.1616" />
      <path
         inkscape:connector-curvature="0"
         id="path9052"
         style="fill:#43afbd;fill-opacity:1;fill-rule:nonzero;stroke:none;stroke-width:0.01769318"
         d="m 25.52813,127.54213 c -0.900934,2.52664 0.289146,5.27167 2.65873,6.13106 2.371349,0.85583 5.024793,-0.49894 5.925727,-3.02736 0.900939,-2.53196 -0.290907,-5.27345 -2.660491,-6.13283 -2.371354,-0.85583 -5.023029,0.50072 -5.923966,3.02913" />
      <path
         inkscape:connector-curvature="0"
         id="path9054"
         style="fill:#070605;fill-opacity:1;fill-rule:nonzero;stroke:none;stroke-width:0.01769318"
         d="m 28.458376,127.41251 c -0.851571,0.86826 -0.883307,2.22834 -0.07229,3.03979 0.814543,0.80965 2.165067,0.76526 3.018403,-0.10299 0.851567,-0.86826 0.883302,-2.22834 0.07229,-3.03979 -0.814544,-0.80965 -2.165068,-0.76349 -3.018398,0.10299" />
      <path
         inkscape:connector-curvature="0"
         id="path9056"
         style="fill:#ffffff;fill-opacity:1;fill-rule:nonzero;stroke:none;stroke-width:0.01769318"
         d="m 29.756004,126.50874 c 0.02999,0.78481 0.654107,1.3956 1.385789,1.36543 0.73344,-0.0302 1.302915,-0.68539 1.274708,-1.47196 -0.02999,-0.78125 -0.648814,-1.39383 -1.38226,-1.37075 -0.73344,0.0356 -1.309972,0.69425 -1.278237,1.47728" />
      <path
         inkscape:connector-curvature="0"
         id="path9058"
         style="fill:#ffffff;fill-opacity:1;fill-rule:nonzero;stroke:none;stroke-width:0.01769318"
         d="m 27.490443,131.72005 c 0.01764,0.48828 0.403746,0.86293 0.862147,0.84872 0.454877,-0.0177 0.809255,-0.42791 0.789864,-0.91619 -0.02469,-0.48296 -0.403746,-0.86293 -0.862151,-0.84517 -0.453114,0.0177 -0.807492,0.42791 -0.78986,0.91264" />
      <path
         inkscape:connector-curvature="0"
         id="path9060"
         style="fill:#6d3a2c;fill-opacity:1;fill-rule:nonzero;stroke:none;stroke-width:0.01769318"
         d="m 38.78829,127.80669 c 0,0 -5.543137,-8.89207 -14.749966,-2.51066 9.24914,-11.03874 14.749966,2.51066 14.749966,2.51066" />
      <path
         inkscape:connector-curvature="0"
         id="path9062"
         style="fill:#ffffff;fill-opacity:1;fill-rule:nonzero;stroke:none;stroke-width:0.01769318"
         d="m 2.5727705,136.06843 c -0.7916296,2.93325 -4.6034156,7.04299 -8.8718437,7.95617 -4.2701908,0.91299 -6.7843498,-1.40999 -9.2650108,-4.07654 -0.401983,-1.69745 1.819504,-8.52453 6.0879318,-9.43717 4.2684282,-0.91264 9.30908715,1.89276 12.0489227,5.55754" />
      <path
         inkscape:connector-curvature="0"
         id="path9064"
         style="fill:#43afbd;fill-opacity:1;fill-rule:nonzero;stroke:none;stroke-width:0.01769318"
         d="m -3.654446,134.06914 c 1.8759209,1.90873 1.9482079,4.90413 0.1604404,6.6893 -1.7912936,1.78391 -4.7638542,1.68413 -6.6415394,-0.22444 -1.877686,-1.9123 -1.946445,-4.90591 -0.158678,-6.69036 1.7912934,-1.78445 4.7638547,-1.68325 6.639777,0.2255" />
      <path
         inkscape:connector-curvature="0"
         id="path9066"
         style="fill:#070605;fill-opacity:1;fill-rule:nonzero;stroke:none;stroke-width:0.01769318"
         d="m -5.4228194,135.83228 c 0.8533323,0.86826 0.8850678,2.22835 0.072285,3.03978 -0.8127812,0.80967 -2.1633047,0.76527 -3.0166375,-0.10298 -0.8533328,-0.86826 -0.8850683,-2.22834 -0.072287,-3.03979 0.8145455,-0.80965 2.165069,-0.76349 3.0166391,0.10299" />
      <path
         inkscape:connector-curvature="0"
         id="path9068"
         style="fill:#ffffff;fill-opacity:1;fill-rule:nonzero;stroke:none;stroke-width:0.01769318"
         d="m -8.3830392,135.65649 c 0.3014875,0.72622 -0.00704,1.54298 -0.6840766,1.82885 -0.6770246,0.28231 -1.4686502,-0.0693 -1.7719002,-0.79368 -0.299725,-0.72089 0.0036,-1.53942 0.677025,-1.82884 0.6823134,-0.28054 1.479227,0.071 1.7789518,0.79367" />
      <path
         inkscape:connector-curvature="0"
         id="path9070"
         style="fill:#ffffff;fill-opacity:1;fill-rule:nonzero;stroke:none;stroke-width:0.01769318"
         d="m -3.1590199,138.1352 c 0.1886504,0.44922 -0.00355,0.95526 -0.4249033,1.13636 -0.4196136,0.17579 -0.9150406,-0.0444 -1.1001646,-0.49538 -0.1798345,-0.44745 0.00355,-0.95348 0.4266669,-1.13281 0.4178509,-0.17579 0.9115142,0.0444 1.098401,0.49183" />
      <path
         inkscape:connector-curvature="0"
         id="path9072"
         style="fill:#6d3a2c;fill-opacity:1;fill-rule:nonzero;stroke:none;stroke-width:0.01769318"
         d="m -15.564084,139.94806 c 0,0 1.297631,-10.41729 12.3186734,-8.54761 -13.0115664,-6.07246 -12.3186734,8.54761 -12.3186734,8.54761" />
      <path
         inkscape:connector-curvature="0"
         id="path9074"
         style="fill:#b26942;fill-opacity:1;fill-rule:nonzero;stroke:none;stroke-width:0.01769318"
         d="m 29.653746,115.83577 c -3.841763,-0.6463 -4.166167,3.56181 -1.694322,3.29902 2.649916,-0.28942 4.973662,0.43856 5.275149,0.1456 0.669969,-0.64809 -1.421047,-3.0824 -3.580827,-3.44462" />
      <path
         inkscape:connector-curvature="0"
         id="path9076"
         style="fill:#b26942;fill-opacity:1;fill-rule:nonzero;stroke:none;stroke-width:0.01769318"
         d="m -12.947666,125.49844 c 3.464462,-1.79333 5.044186,2.11649 2.611129,2.62253 -2.612892,0.53622 -4.605177,1.9407 -4.982477,1.75426 -0.83394,-0.41371 0.42314,-3.37181 2.371348,-4.37679" />
      <g
         id="g11018"
         transform="matrix(-0.65439937,0,0,-0.41968797,28.411919,213.39349)">
        <path
           d="m 37.400987,127.05707 c 1.71771,12.54989 -3.757744,23.83928 -13.011342,25.94824 -9.25564,2.10876 -19.0274055,-5.70628 -22.8504335,-17.77538 l 35.8617755,-8.17286"
           style="fill:#712131;fill-opacity:1;fill-rule:nonzero;stroke:none;stroke-width:0.02046466"
           id="path9078"
           inkscape:connector-curvature="0" />
        <path
           d="m 34.285852,145.27588 c -2.323598,3.95741 -5.724334,6.77852 -9.896208,7.72943 -4.173909,0.95071 -8.449821,-0.12112 -12.240206,-2.68521 2.774443,-1.95746 6.440388,-3.58706 10.614298,-4.53838 4.173915,-0.95132 8.180541,-1.06957 11.522116,-0.50584"
           style="fill:#ee5b63;fill-opacity:1;fill-rule:nonzero;stroke:none;stroke-width:0.02046466"
           id="path9080"
           inkscape:connector-curvature="0" />
        <path
           d="m 20.574781,136.05069 c -8.923113,2.03321 -16.6201674,2.34484 -18.8784861,-0.85648 l 35.5476091,-8.10019 c -0.669131,3.86831 -7.748051,6.92366 -16.669123,8.95667"
           style="fill:#fef0f4;fill-opacity:1;fill-rule:nonzero;stroke:none;stroke-width:0.02046466"
           id="path9082"
           inkscape:connector-curvature="0" />
      </g>
      <path
         inkscape:connector-curvature="0"
         id="path9084"
         style="fill:#ee5b63;fill-opacity:1;fill-rule:nonzero;stroke:none;stroke-width:0.01769318"
         d="m 36.910607,142.08816 c 0.398452,0.49468 1.117794,0.57067 1.609695,0.16974 0.491901,-0.40092 0.567711,-1.12695 0.169253,-1.62162 -0.398454,-0.49468 -1.119559,-0.57103 -1.61146,-0.16976 -0.490137,0.40075 -0.565947,1.12679 -0.167488,1.62164" />
      <path
         inkscape:connector-curvature="0"
         id="path9086"
         style="fill:#ee5b63;fill-opacity:1;fill-rule:nonzero;stroke:none;stroke-width:0.01769318"
         d="m 34.207794,145.77709 c 0.398458,0.49468 1.119559,0.57085 1.61146,0.16992 0.490136,-0.40092 0.565952,-1.12713 0.167494,-1.62181 -0.396694,-0.49467 -1.117796,-0.57084 -1.609697,-0.16974 -0.4919,0.40093 -0.565951,1.12695 -0.169257,1.62163" />
      <path
         inkscape:connector-curvature="0"
         id="path9088"
         style="fill:#ee5b63;fill-opacity:1;fill-rule:nonzero;stroke:none;stroke-width:0.01769318"
         d="m 38.160631,145.68458 c 0.396694,0.49486 1.117795,0.57085 1.609696,0.16992 0.491901,-0.40091 0.565951,-1.12695 0.169258,-1.6218 -0.398459,-0.49467 -1.119559,-0.57067 -1.61146,-0.16975 -0.490137,0.40093 -0.565952,1.12696 -0.167494,1.62163" />
      <path
         inkscape:connector-curvature="0"
         id="path9090"
         style="fill:#ee5b63;fill-opacity:1;fill-rule:nonzero;stroke:none;stroke-width:0.01769318"
         d="m -9.3738923,152.85542 c 0.5959217,0.21644 1.251789,-0.0936 1.4668859,-0.69248 0.2150969,-0.59872 -0.093444,-1.25976 -0.6876028,-1.47622 -0.5941596,-0.21643 -1.2517906,0.0934 -1.4651238,0.6923 -0.215096,0.5989 0.09168,1.25977 0.6858407,1.4764" />
      <path
         inkscape:connector-curvature="0"
         id="path9092"
         style="fill:#ee5b63;fill-opacity:1;fill-rule:nonzero;stroke:none;stroke-width:0.01769318"
         d="m -9.8023219,157.14875 c 0.594159,0.21663 1.251789,-0.0934 1.4668859,-0.69229 0.2133327,-0.5989 -0.093444,-1.25978 -0.6876028,-1.47639 -0.5959232,-0.21645 -1.2517902,0.0936 -1.4668862,0.69247 -0.215097,0.5989 0.09344,1.25977 0.6876031,1.47621" />
      <path
         inkscape:connector-curvature="0"
         id="path9094"
         style="fill:#ee5b63;fill-opacity:1;fill-rule:nonzero;stroke:none;stroke-width:0.01769318"
         d="m -6.1597897,155.25138 c 0.5959231,0.21643 1.2517905,-0.0934 1.4668858,-0.6923 0.215097,-0.59891 -0.093442,-1.25977 -0.6876019,-1.47639 -0.5941599,-0.21644 -1.2517905,0.0936 -1.4668869,0.69247 -0.2133332,0.59891 0.093444,1.25977 0.687603,1.47622" />
      <path
         inkscape:connector-curvature="0"
         id="path9096"
         style="fill:#925536;fill-opacity:1;fill-rule:nonzero;stroke:none;stroke-width:0.01769318"
         d="m -25.257523,103.69795 c -4.817453,1.34411 -8.111954,-2.12536 -6.078235,-6.134603 -8.474443,6.205633 -14.605747,0.213073 -9.123258,-4.573876 -8.185297,2.038359 -5.432417,-4.652002 -2.897982,-6.709892 -13.137274,3.306118 -12.914948,-18.687909 3.583469,-19.04835 -12.50362,-3.499656 -3.077817,-7.331346 2.826049,-6.226939 -12.079952,-10.07638 11.055247,-25.767122 19.510999,-7.46806 2.369587,-6.864368 8.1472166,-3.128563 8.1119547,2.121808 2.2479327,-10.36047 17.6625818,-3.812157 11.4388906,5.902004 7.6764732,-4.208107 5.6030839,3.627497 3.0589548,5.466992 7.2568549,-3.755338 9.0463879,3.556474 4.416525,7.876444 10.5414829,-2.995393 4.0533309,10.358698 -1.512725,12.743292 -5.5660607,2.382821 -27.9554711,14.54905 -33.3346421,16.05118" />
      <path
         inkscape:connector-curvature="0"
         id="path9098"
         style="fill:#faba09;fill-opacity:1;fill-rule:nonzero;stroke:none;stroke-width:0.01769318"
         d="m -12.826013,86.844212 c 0,0 -16.239773,-14.424761 -26.889863,-12.629654 -2.531084,8.322112 0.881013,17.288758 0.881013,17.288758 l 26.00885,-4.659104" />
      <path
         inkscape:connector-curvature="0"
         id="path9100"
         style="fill:#faba09;fill-opacity:1;fill-rule:nonzero;stroke:none;stroke-width:0.01769318"
         d="m -13.215655,87.405293 c 0,0 -4.513497,-19.135354 1.320551,-28.288439 8.5932741,0.937505 15.4305152,7.627868 15.4305152,7.627868 L -13.215655,87.405293" />
      <path
         inkscape:connector-curvature="0"
         id="path9102"
         style="fill:#c87e52;fill-opacity:1;fill-rule:nonzero;stroke:none;stroke-width:0.01769318"
         d="m 4.1330988,83.417355 c -4.27548014,-8.082414 -11.1550369,-9.121124 -10.9311245,0.596591 -5.5766373,-4.559671 -7.7187863,-1.335232 -6.2818713,2.718405 -5.807602,-5.55932 -17.93498,-3.75179 -14.730573,5.94462 -3.830654,-1.633528 -10.666487,2.761015 -6.917288,6.516352 -6.753318,-3.762439 -15.511794,3.769547 -10.960568,12.413037 -7.995412,0.95703 -9.768899,11.33881 0.908166,12.84094 -7.045463,3.75711 -2.607426,15.77419 4.275481,10.99791 -2.719207,8.00108 3.333286,16.47643 7.767445,7.33045 2.183756,5.11294 5.372825,0.27149 6.213816,-2.33754 4.092119,6.70297 9.793935,-5.75286 3.185894,-11.17546 6.348868,2.52309 7.933882,-6.56784 6.313605,-9.09271 5.518457,6.49327 8.0431939,-0.39062 4.155592,-2.99895 4.4976292,1.90697 10.469195,1.82884 10.2840744,-4.3679 3.9686999,0.48828 8.5897464,-5.0089 4.3107388,-7.27808 3.3710172,-0.36044 12.1282628,-5.836311 11.5252878,2.03481 -0.602975,7.87289 13.253103,1.61932 15.210126,-2.98474 -0.38435,8.33277 6.916585,11.79158 10.266442,8.71274 -3.938728,9.40165 2.427768,12.3935 5.248706,7.8942 -0.23978,7.64206 10.432172,5.34624 8.59504,0.27698 4.991293,2.16266 6.784351,-4.75497 1.713719,-7.70421 6.9395,0.47763 5.042419,-12.31182 -2.690468,-12.09875 5.812888,-3.1623 2.043413,-7.029499 -0.63824,-6.583831 3.085398,-5.241494 -1.96231,-11.390303 -7.450796,-7.995408 4.55934,-8.742924 -8.921206,-12.425463 -12.027764,-9.89882 0.715813,-5.921539 -4.545232,-9.955642 -7.19691,0.378193 -4.150302,-4.772738 -7.098178,-0.678269 -6.973,2.633179 C 12.641748,72.446086 4.1278114,73.339198 4.1330988,83.417355" />
      <g
         id="g14370"
         transform="matrix(0.84747083,0,0,0.78507612,40.744906,20.702092)">
        <g
           transform="matrix(0.04902145,0,0,-0.04296717,-496.36481,403.2483)"
           id="g1269">
          <path
             inkscape:connector-curvature="0"
             id="path1271"
             style="fill:#fabd99;fill-opacity:1;fill-rule:nonzero;stroke:none"
             d="m 15346.9,3884.67 c 0,0 640.2,-244.57 702.8,-282.94 62.6,-38.47 122.7,-74.39 143.2,-41.98 20.4,32.51 -97.1,116.18 -97.1,116.18 0,0 204.2,181.5 177.2,215.96 -27.1,34.56 -173.3,-70.88 -173.3,-70.88 0,0 104.9,113.35 65.6,138.05 -28.6,18.07 -135.1,-97.92 -135.1,-97.92 0,0 57.5,91.87 20.4,112.47 -37.2,20.7 -88.5,-110.52 -88.5,-110.52 0,0 4.4,79.57 -31.1,77.13 -28.7,-2.05 -40.6,-96.85 -40.6,-96.85 0,0 -407,163.53 -467.1,204.24 -38,-81.52 -76.4,-162.94 -76.4,-162.94" />
        </g>
        <path
           inkscape:connector-curvature="0"
           id="path1273"
           style="fill:#fabd99;fill-opacity:1;fill-rule:nonzero;stroke:none;stroke-width:0.04480755"
           d="m 190.68021,208.49368 c 0,0 -27.46227,-16.95599 -30.73592,-18.269 -3.27843,-1.30883 -6.38457,-2.59248 -5.62359,-4.09846 0.75619,-1.50599 7.38006,0.67538 7.38006,0.67538 0,0 1.79477,-11.63259 3.93891,-11.49835 2.14415,0.13844 1.85698,7.8865 1.85698,7.8865 0,0 1.73733,-6.46442 3.81926,-5.65479 1.51717,0.5831 -0.29195,7.16077 -0.29195,7.16077 0,0 2.16808,-4.25367 4.02506,-3.41887 1.85698,0.8264 -2.07714,5.80161 -2.07714,5.80161 0,0 3.11571,-2.06392 3.98676,-0.73831 0.69876,1.06971 -2.82854,3.76706 -2.82854,3.76706 0,0 17.78969,10.58805 21.08727,11.75844 -2.27336,3.30561 -4.53716,6.62802 -4.53716,6.62802" />
        <path
           inkscape:connector-curvature="0"
           id="path1275"
           style="fill:#fabd99;fill-opacity:1;fill-rule:nonzero;stroke:none;stroke-width:0.04480755"
           d="m 237.00904,216.22915 c 0,0 -3.32151,-1.79543 -6.3415,-3.98519 1.18215,-3.20075 3.56081,-6.38891 3.56081,-6.38891 l -6.1692,-2.99519 c 0,0 -2.97692,4.85356 -3.88148,6.90908 -5.2072,-0.69637 -9.40456,-1.62764 -9.40456,-1.62764 0,0 -6.78659,9.50994 5.25986,14.67392 4.21171,1.80802 12.68299,0.13844 16.97607,-6.58607" />
        <path
           inkscape:connector-curvature="0"
           id="path1277"
           style="fill:#efa378;fill-opacity:1;fill-rule:nonzero;stroke:none;stroke-width:0.04480755"
           d="m 227.6667,210.28911 c -1.03379,-0.44885 -2.14415,-0.46984 -2.96735,-0.13423 l 1.45496,-2.56732 4.88654,2.12684 -1.45496,2.56731 c -0.19144,-0.77606 -0.88541,-1.54374 -1.91919,-1.9926" />
        <path
           inkscape:connector-curvature="0"
           id="path1279"
           style="fill:#f9a90c;fill-opacity:1;fill-rule:nonzero;stroke:none;stroke-width:0.04480755"
           d="m 215.19907,208.28393 c -13.70242,13.86849 16.81334,24.19646 23.66695,8.60384 2.64189,0.87674 15.89443,8.17595 21.17821,11.52351 -0.91892,2.43308 -9.0456,11.41026 -11.08446,11.15017 -1.37359,-0.43208 -4.42229,-2.25269 -7.75816,-4.47601 -2.66582,6.33018 -9.83053,23.412 -9.54336,25.01447 0,0 -21.13992,-0.68378 -45.38598,-12.06886 -0.01,-0.004 8.58615,-23.19806 12.1326,-28.3956 -0.35895,-0.3314 -6.8536,-4.33338 -11.33333,-7.65997 -1.01943,-4.63542 7.34178,-9.74906 9.78265,-11.2047 4.64724,1.86255 16.74634,6.92165 18.34488,7.51315" />
        <path
           inkscape:connector-curvature="0"
           id="path1281"
           style="fill:#ffffff;fill-opacity:1;fill-rule:nonzero;stroke:none;stroke-width:0.04480755"
           d="m 216.86462,208.14549 c -2.6419,4.43826 -3.99156,10.86072 4.21171,13.02112 7.22691,1.9087 11.24718,-1.77446 14.00394,-6.64899 1.64161,1.09908 4.80518,2.46663 4.80518,2.46663 0,0 -5.73368,13.25184 -21.13035,8.32277 -14.63092,-4.68576 -7.09291,-18.47035 -7.09291,-18.47035 l 5.20243,1.30882" />
        <path
           inkscape:connector-curvature="0"
           id="path1283"
           style="fill:#ffffff;fill-opacity:1;fill-rule:nonzero;stroke:none;stroke-width:0.04480755"
           d="m 252.6163,242.32173 c 7.94961,-7.14819 7.94003,-7.13561 10.94088,-12.53869 -1.27787,-1.18298 -3.80969,-2.51278 -3.80969,-2.51278 -1.15821,2.52116 -4.87218,7.28243 -11.16103,12.12339 1.63682,1.34239 4.02984,2.92808 4.02984,2.92808" />
        <path
           inkscape:connector-curvature="0"
           id="path1285"
           style="fill:#ffffff;fill-opacity:1;fill-rule:nonzero;stroke:none;stroke-width:0.04480755"
           d="m 193.73849,198.20346 c -7.23649,7.71032 -7.2317,7.69774 -9.7013,13.30219 1.38795,1.08229 4.03463,2.22332 4.03463,2.22332 0.91414,-2.60087 4.15906,-7.61383 9.96453,-12.90366 -1.76126,-1.21654 -4.29786,-2.62185 -4.29786,-2.62185" />
        <path
           inkscape:connector-curvature="0"
           id="path1287"
           style="fill:#fabd99;fill-opacity:1;fill-rule:nonzero;stroke:none;stroke-width:0.04480755"
           d="m 218.70724,308.80744 c 0,0 0.26323,9.21631 0.57911,14.22507 -3.77619,0.85158 -6.15485,0.22653 -6.15485,0.22653 l -1.94312,-15.23605 7.51886,0.78445" />
        <path
           inkscape:connector-curvature="0"
           id="path1289"
           style="fill:#e0e0de;fill-opacity:1;fill-rule:nonzero;stroke:none;stroke-width:0.04480755"
           d="m 211.97329,325.54529 c -0.74184,1.44306 -0.96679,4.03134 2.85726,6.90068 3.82883,2.87354 7.62416,5.29403 13.38175,3.54473 4.73339,-1.43886 2.7424,-6.32178 2.7424,-6.32178 l -18.98141,-4.12363" />
        <path
           inkscape:connector-curvature="0"
           id="path1291"
           style="fill:#302f30;fill-opacity:1;fill-rule:nonzero;stroke:none;stroke-width:0.04480755"
           d="m 212.60026,319.52134 c -0.92371,1.30463 -1.90963,6.36373 0.98113,8.58706 2.88119,2.22332 8.97382,6.69094 14.63091,4.85775 5.15457,-1.6654 2.18243,-5.62543 -0.68918,-7.23209 -2.86684,-1.61086 -8.34685,-6.08687 -8.34685,-6.08687 0,0 -0.78013,2.78545 -6.57601,-0.12585" />
        <path
           inkscape:connector-curvature="0"
           id="path1293"
           style="fill:#fccb06;fill-opacity:1;fill-rule:nonzero;stroke:none;stroke-width:0.04480755"
           d="m 222.34941,321.967 c -2.15371,-0.56632 -5.15456,0.33979 -6.2027,1.657 -1.03857,1.31721 0.21537,2.36595 1.11036,2.30302 0.89977,-0.0629 3.51295,-1.14941 6.45636,-1.46822 2.94341,-0.31043 0.35417,-2.04714 -1.36402,-2.4918" />
        <path
           inkscape:connector-curvature="0"
           id="path1295"
           style="fill:#fccb06;fill-opacity:1;fill-rule:nonzero;stroke:none;stroke-width:0.04480755"
           d="m 226.79085,325.1174 c -2.14893,-0.56632 -5.15456,0.34398 -6.19791,1.6612 -1.03858,1.31722 0.21058,2.36595 1.11035,2.29883 0.89978,-0.0629 3.51296,-1.14522 6.45637,-1.46404 2.94341,-0.31462 0.35416,-2.04713 -1.36881,-2.49599" />
        <path
           inkscape:connector-curvature="0"
           id="path1297"
           style="fill:#fabd99;fill-opacity:1;fill-rule:nonzero;stroke:none;stroke-width:0.04480755"
           d="m 152.9136,274.3082 c 0,0 -10.54842,4.00198 -14.66441,7.49218 2.11543,2.86934 4.34572,3.82998 4.34572,3.82998 l 16.44003,-7.42086 -6.12134,-3.9013" />
        <path
           inkscape:connector-curvature="0"
           id="path1299"
           style="fill:#e0e0de;fill-opacity:1;fill-rule:nonzero;stroke:none;stroke-width:0.04480755"
           d="m 142.31254,288.51649 c -0.57433,1.50179 -2.75197,3.54473 -7.78688,3.37274 -5.03013,-0.172 -9.76352,-1.32981 -12.67821,-6.02395 -2.44567,-3.94745 3.34065,-5.62123 3.34065,-5.62123 l 17.12444,8.27244" />
        <path
           inkscape:connector-curvature="0"
           id="path1301"
           style="fill:#302f30;fill-opacity:1;fill-rule:nonzero;stroke:none;stroke-width:0.04480755"
           d="m 146.51946,283.72585 c -0.33023,1.506 -3.52731,5.80581 -7.37528,5.71772 -3.83361,-0.0839 -10.74944,-0.18458 -14.56391,-5.55411 -2.98648,-4.20334 2.82376,-5.02136 6.17399,-4.49279 3.35501,0.52856 10.91695,0.0545 10.91695,0.0545 0,0 -1.66076,2.95743 4.84825,4.27464" />
        <path
           inkscape:connector-curvature="0"
           id="path1303"
           style="fill:#fccb06;fill-opacity:1;fill-rule:nonzero;stroke:none;stroke-width:0.04480755"
           d="m 138.32098,279.06947 c 2.01971,0.86415 3.51774,3.314 3.26408,4.90389 -0.25845,1.58569 -1.99099,1.61086 -2.59882,1.02776 -0.61261,-0.58309 -1.68947,-2.93227 -3.5991,-4.92067 -1.9192,-1.98002 1.32573,-1.71154 2.93384,-1.01098" />
        <path
           inkscape:connector-curvature="0"
           id="path1305"
           style="fill:#fccb06;fill-opacity:1;fill-rule:nonzero;stroke:none;stroke-width:0.04480755"
           d="m 133.03241,279.24985 c 2.01492,0.86835 3.51295,3.3182 3.26408,4.90809 -0.25845,1.58569 -1.99099,1.61086 -2.59882,1.02776 -0.61261,-0.57891 -1.68947,-2.92807 -3.60388,-4.92067 -1.9192,-1.98002 1.33051,-1.71155 2.93862,-1.01518" />
        <path
           inkscape:connector-curvature="0"
           id="path1307"
           style="fill:#abaaab;fill-opacity:1;fill-rule:nonzero;stroke:none;stroke-width:0.04480755"
           d="m 183.78353,249.20564 c -6.80095,8.68773 -23.04476,17.61458 -32.95664,24.42718 0.51689,1.03615 5.47044,6.57348 13.41048,10.05108 6.80574,-1.53115 18.67032,-5.60025 35.19171,-11.22567 2.19679,11.10822 5.5518,29.04581 6.95412,36.84841 9.45242,0.31882 16.86598,-0.68377 16.86598,-0.68377 0,0 5.53266,-24.5782 6.8919,-46.38773 -6.02562,-1.87094 -33.23903,-9.28342 -46.35755,-13.0295" />
        <path
           inkscape:connector-curvature="0"
           id="path1309"
           style="fill:#615f5f;fill-opacity:1;fill-rule:nonzero;stroke:none;stroke-width:0.04480755"
           d="m 184.70723,253.98368 c 0,0 -4.37922,3.86355 -9.28012,4.70673 0.10051,1.34658 0.49296,3.67477 0.49296,3.67477 0,0 9.41893,-1.7409 12.66864,-6.09945 -2.55574,-0.93547 -3.88148,-2.28205 -3.88148,-2.28205" />
        <path
           inkscape:connector-curvature="0"
           id="path1311"
           style="fill:#615f5f;fill-opacity:1;fill-rule:nonzero;stroke:none;stroke-width:0.04480755"
           d="m 221.46399,266.79505 c 0,0 2.31644,5.05491 6.46594,7.49218 -0.69398,1.21653 -2.08672,3.22591 -2.08672,3.22591 0,0 -7.91131,-4.80322 -8.97859,-9.92524 2.7759,0.008 4.59937,-0.79285 4.59937,-0.79285" />
        <path
           inkscape:connector-curvature="0"
           id="path1313"
           style="fill:#615f5f;fill-opacity:1;fill-rule:nonzero;stroke:none;stroke-width:0.04480755"
           d="m 165.90769,283.65454 c 0,0 -7.37528,-6.66577 -10.16076,-13.7762 -4.25478,1.79963 -6.45635,3.91808 -7.28434,4.30402 0,0 0.46425,8.27662 8.48085,12.16953 1.88092,-0.73831 6.40372,-1.29204 8.96425,-2.69735" />
        <path
           inkscape:connector-curvature="0"
           id="path1315"
           style="fill:#615f5f;fill-opacity:1;fill-rule:nonzero;stroke:none;stroke-width:0.04480755"
           d="m 224.09632,306.69739 c 0,0 -10.57714,2.75608 -18.42146,-0.29365 -0.41639,3.46083 1.16301,7.55091 0.91892,8.34795 0,0 11.66836,2.52116 16.21988,-0.2475 0.66047,-1.71154 0.71791,-5.20594 1.28266,-7.8068" />
        <path
           inkscape:connector-curvature="0"
           id="path1317"
           style="fill:#615f5f;fill-opacity:1;fill-rule:nonzero;stroke:none;stroke-width:0.04480755"
           d="m 187.77987,242.27139 -4.14471,6.8923 c 0,0 16.39696,15.76881 46.19004,15.13118 2.46481,-6.69934 2.61318,-7.66418 2.61318,-7.66418 0,0 -19.44088,2.78544 -44.65851,-14.3593" />
        <path
           inkscape:connector-curvature="0"
           id="path1319"
           style="fill:#fccb06;fill-opacity:1;fill-rule:nonzero;stroke:none;stroke-width:0.04480755"
           d="m 210.0158,257.68782 c -0.5839,1.17878 -2.14415,1.71993 -3.48902,1.20815 v 0 c -1.34488,-0.5076 -1.96228,-1.87515 -1.37838,-3.05393 v 0 c 0.57911,-1.17878 2.14414,-1.72412 3.48902,-1.21234 v 0 c 1.34009,0.51179 1.96227,1.87934 1.37838,3.05812 v 0" />
        <g
           transform="matrix(0.05015048,0,0,-0.04395675,-496.36481,403.2483)"
           id="g1321">
          <path
             inkscape:connector-curvature="0"
             id="path1323"
             style="fill:#503228;fill-opacity:1;fill-rule:nonzero;stroke:none"
             d="m 13874.5,6091.24 c -278.5,-615.73 363.5,-485.75 956.5,-753.91 592.9,-268.27 911.9,-832.95 1190.4,-217.12 278.6,615.76 13.8,1310.12 -579.2,1578.32 -593,268.23 -1289.3,8.5 -1567.7,-607.29" />
        </g>
        <g
           transform="matrix(0.0490808,0,0,-0.04301919,-496.36481,403.2483)"
           id="g1325">
          <path
             inkscape:connector-curvature="0"
             id="path1327"
             style="fill:#fabd99;fill-opacity:1;fill-rule:nonzero;stroke:none"
             d="m 14104.8,5905.82 c -252.1,-557.29 -64.1,-1088.74 472.5,-1331.45 536.6,-242.81 1218.5,-104.73 1470.6,452.65 252.1,557.3 12.4,1185.68 -524.2,1428.44 -536.7,242.76 -1166.9,7.68 -1418.9,-549.64" />
        </g>
        <g
           transform="matrix(0.04930047,0,0,-0.04321173,-496.36481,403.2483)"
           id="g1329">
          <path
             inkscape:connector-curvature="0"
             id="path1331"
             style="fill:#fabd99;fill-opacity:1;fill-rule:nonzero;stroke:none"
             d="m 15938.4,5016.25 c 0,0 64.1,106.79 208.9,64.85 152.7,-44.27 130.3,-259.69 4.4,-340.84 -126,-81.07 -288.9,-14.86 -301.9,95.52 l 88.6,180.47" />
        </g>
        <g
           transform="matrix(0.0488616,0,0,-0.04282705,-496.36481,403.2483)"
           id="g1333">
          <path
             inkscape:connector-curvature="0"
             id="path1335"
             style="fill:#d37658;fill-opacity:1;fill-rule:nonzero;stroke:none"
             d="m 16300,5064.45 c -89,56.22 -235.6,-80.81 -141.3,-221.76 -6.3,141.73 60.7,162.11 106.1,77.09 15.2,39.18 1.4,73.46 -58.1,92.85 25.5,49.57 93.3,51.82 93.3,51.82" />
        </g>
        <path
           inkscape:connector-curvature="0"
           id="path1337"
           style="fill:#f36457;fill-opacity:1;fill-rule:nonzero;stroke:none;stroke-width:0.04480755"
           d="m 239.37812,168.88918 c -1.68468,2.24429 -10.2804,2.22332 -9.12697,6.20852 0.70834,2.46663 4.71425,3.4818 6.59038,-0.18877 1.08643,-2.12684 2.53659,-6.01975 2.53659,-6.01975" />
        <path
           inkscape:connector-curvature="0"
           id="path1339"
           style="fill:#f36457;fill-opacity:1;fill-rule:nonzero;stroke:none;stroke-width:0.04480755"
           d="m 248.39502,189.89747 c -1.21565,2.37854 1.90962,5.91907 6.98283,7.90748 5.06841,1.9926 10.16554,1.67378 11.38119,-0.70476 1.21565,-2.37853 -1.90963,-5.92326 -6.97804,-7.91166 -5.0732,-1.98841 -10.17033,-1.67379 -11.38598,0.70894" />
        <path
           inkscape:connector-curvature="0"
           id="path1341"
           style="fill:#f36457;fill-opacity:1;fill-rule:nonzero;stroke:none;stroke-width:0.04480755"
           d="m 196.24158,169.43452 c -1.21565,2.37854 1.90963,5.92326 6.98283,7.91167 5.06841,1.98841 10.16554,1.67379 11.38119,-0.70894 1.21566,-2.37854 -1.90963,-5.91907 -6.97804,-7.91168 -5.07798,-1.98841 -10.17032,-1.66959 -11.38598,0.70895" />
        <path
           inkscape:connector-curvature="0"
           id="path1343"
           style="fill:#503228;fill-opacity:1;fill-rule:nonzero;stroke:none;stroke-width:0.04480755"
           d="m 217.80268,142.5663 c 5.56137,0.11788 4.89133,5.33304 1.49324,4.42777 -3.63739,-0.97742 -7.09291,-0.63638 -7.4375,-1.06593 -0.76576,-0.95016 2.81419,-3.42854 5.94426,-3.36184" />
        <path
           inkscape:connector-curvature="0"
           id="path1345"
           style="fill:#503228;fill-opacity:1;fill-rule:nonzero;stroke:none;stroke-width:0.04480755"
           d="m 274.93358,163.1379 c -4.37921,-3.00357 -7.63851,1.39692 -4.36007,2.58829 3.52252,1.27107 5.94425,3.45663 6.51858,3.3182 1.28266,-0.30623 0.3063,-4.21592 -2.15851,-5.90649" />
        <path
           inkscape:connector-curvature="0"
           id="path1347"
           style="fill:#4e1f22;fill-opacity:1;fill-rule:nonzero;stroke:none;stroke-width:0.04480755"
           d="m 230.44259,186.21431 c -4.02505,-4.20753 -11.65399,4.97101 -7.76773,8.15917 3.88147,3.18816 12.06081,-3.67897 7.76773,-8.15917" />
        <path
           inkscape:connector-curvature="0"
           id="path1349"
           style="fill:#ffffff;fill-opacity:1;fill-rule:nonzero;stroke:none;stroke-width:0.04480755"
           d="m 258.83815,171.93052 c -3.91976,3.61185 -3.94369,9.16595 -0.0575,12.40864 3.89105,3.2427 10.21819,2.94486 14.13796,-0.6628 3.91976,-3.62024 3.9389,-9.17015 0.0575,-12.41284 -3.89584,-3.2427 -10.22297,-2.94066 -14.13795,0.667" />
        <path
           inkscape:connector-curvature="0"
           id="path1351"
           style="fill:#1d1b1a;fill-opacity:1;fill-rule:nonzero;stroke:none;stroke-width:0.04480755"
           d="m 262.13573,173.17222 c -2.41695,2.23171 -2.4361,5.65479 -0.0383,7.65578 2.39781,1.99679 6.30321,1.8164 8.72016,-0.41111 2.41695,-2.22752 2.4313,-5.65478 0.0383,-7.65578 -2.4026,-1.99679 -6.30322,-1.81222 -8.72017,0.41111" />
        <path
           inkscape:connector-curvature="0"
           id="path1353"
           style="fill:#ffffff;fill-opacity:1;fill-rule:nonzero;stroke:none;stroke-width:0.04480755"
           d="m 267.99862,175.71855 c -0.3733,0.83899 0.0527,1.76607 0.94764,2.0765 0.89977,0.31042 1.92877,-0.11327 2.31165,-0.94806 0.37331,-0.8306 -0.0479,-1.75768 -0.94285,-2.0765 -0.89978,-0.30623 -1.93834,0.11746 -2.31644,0.94806" />
        <path
           inkscape:connector-curvature="0"
           id="path1355"
           style="fill:#ffffff;fill-opacity:1;fill-rule:nonzero;stroke:none;stroke-width:0.04480755"
           d="m 261.58054,177.50979 c -0.23451,0.52018 0.0287,1.09069 0.58869,1.28786 0.55518,0.19296 1.20129,-0.0671 1.43102,-0.5873 0.22495,-0.52017 -0.0287,-1.09488 -0.58868,-1.28785 -0.55517,-0.19297 -1.19651,0.0713 -1.43103,0.58729" />
        <path
           inkscape:connector-curvature="0"
           id="path1357"
           style="fill:#694237;fill-opacity:1;fill-rule:nonzero;stroke:none;stroke-width:0.04480755"
           d="m 277.18302,177.78246 c 0,0 -3.70439,-9.92105 -16.03322,-8.30599 14.00394,-5.64221 16.03322,8.30599 16.03322,8.30599" />
        <path
           inkscape:connector-curvature="0"
           id="path1359"
           style="fill:#ffffff;fill-opacity:1;fill-rule:nonzero;stroke:none;stroke-width:0.04480755"
           d="m 222.50257,158.59897 c -0.18667,4.97521 -4.68554,8.89329 -10.05068,8.73807 -5.36036,-0.1552 -9.5625,-4.3124 -9.37585,-9.296 0.18666,-4.9836 4.68554,-8.89286 10.0459,-8.74395 5.36992,0.15815 9.56728,4.31829 9.38063,9.30188" />
        <path
           inkscape:connector-curvature="0"
           id="path1361"
           style="fill:#1d1b1a;fill-opacity:1;fill-rule:nonzero;stroke:none;stroke-width:0.04480755"
           d="m 219.37728,157.48311 c -0.11486,3.07071 -2.89077,5.487 -6.19792,5.39051 -3.30714,-0.0923 -5.90118,-2.6596 -5.78631,-5.7303 0.11965,-3.07489 2.89555,-5.48699 6.19792,-5.3947 3.31193,0.0965 5.90118,2.66379 5.78631,5.73449" />
        <path
           inkscape:connector-curvature="0"
           id="path1363"
           style="fill:#ffffff;fill-opacity:1;fill-rule:nonzero;stroke:none;stroke-width:0.04480755"
           d="m 213.18894,155.60378 c -0.41639,0.8264 -1.46932,1.20814 -2.34995,0.86835 -0.88063,-0.34398 -1.25873,-1.28365 -0.85191,-2.10586 0.41639,-0.82221 1.46453,-1.20815 2.34994,-0.87255 0.88064,0.34818 1.2683,1.29205 0.85192,2.11006" />
        <path
           inkscape:connector-curvature="0"
           id="path1365"
           style="fill:#ffffff;fill-opacity:1;fill-rule:nonzero;stroke:none;stroke-width:0.04480755"
           d="m 216.23765,160.86844 c -0.25367,0.51597 -0.90457,0.7509 -1.45975,0.53695 -0.54561,-0.20974 -0.78491,-0.79704 -0.52646,-1.30463 0.26323,-0.50339 0.90935,-0.75089 1.45974,-0.53695 0.54561,0.21394 0.78491,0.79704 0.52647,1.30463" />
        <path
           inkscape:connector-curvature="0"
           id="path1367"
           style="fill:#694237;fill-opacity:1;fill-rule:nonzero;stroke:none;stroke-width:0.04480755"
           d="m 204.87081,151.24439 c 0,0 10.66807,-4.64716 18.00506,4.18739 -5.23592,-12.70481 -18.00506,-4.18739 -18.00506,-4.18739" />
        <g
           transform="matrix(0.05062142,0,0,-0.04436954,-496.36481,403.2483)"
           id="g1369">
          <path
             inkscape:connector-curvature="0"
             id="path1371"
             style="fill:#694237;fill-opacity:1;fill-rule:nonzero;stroke:none"
             d="m 15878.7,6456.48 c 293.6,-183.41 421.3,-584.87 80.6,-1328.53 -159.6,-4.91 -561.6,257.26 -561.6,257.26 0,0 100.2,206.3 52.1,452.14 -56.3,-254.26 -167,-306.73 -214.9,-392.48 -103.2,26.09 -66.4,12.48 -331.2,143.99 0,0 5.3,454.27 14.4,662.26 -187.2,-143.98 -433.8,-370.68 -482.3,-446.32 -248.6,113.88 -249.4,105.26 -296.5,154.9 62.6,165.08 136.6,297.05 228.4,359.89 -132.2,-44.32 -274.5,-182.85 -350.1,-302.03 -59.1,39.03 -229,32.38 -314.5,144.12 293.8,641.13 711.1,1212.44 2050.1,387.26 58.9,-49.52 125.5,-92.46 125.5,-92.46" />
        </g>
      </g>
    </g>
  </g>
  <g
     inkscape:groupmode="layer"
     id="layer2"
     inkscape:label="Layer 3" />
  <g
     inkscape:label="Layer 1"
     inkscape:groupmode="layer"
     id="layer1"
     transform="translate(0,-32.41665)">
    <text
       xml:space="preserve"
       style="font-style:normal;font-variant:normal;font-weight:bold;font-stretch:normal;font-size:10.58333302px;line-height:1.25;font-family:sans-serif;-inkscape-font-specification:'sans-serif Bold';letter-spacing:0px;word-spacing:0px;fill:#000000;fill-opacity:1;stroke:none;stroke-width:0.26458332"
       x="150.05655"
       y="89.869026"
       id="text8811" />
    <text
       xml:space="preserve"
       style="font-style:normal;font-variant:normal;font-weight:bold;font-stretch:normal;font-size:10.58333302px;line-height:1.25;font-family:sans-serif;-inkscape-font-specification:'sans-serif Bold';letter-spacing:0px;word-spacing:0px;fill:#000000;fill-opacity:1;stroke:none;stroke-width:0.26458332"
       x="160.63989"
       y="97.806526"
       id="text8815" />
    <text
       xml:space="preserve"
       style="font-style:normal;font-variant:normal;font-weight:bold;font-stretch:normal;font-size:10.58333302px;line-height:1.25;font-family:sans-serif;-inkscape-font-specification:'sans-serif Bold';letter-spacing:0px;word-spacing:0px;fill:#000000;fill-opacity:1;stroke:none;stroke-width:0.26458332"
       x="156.86011"
       y="88.7351"
       id="text8819" />
    <flowRoot
       xml:space="preserve"
       id="flowRoot8821"
       style="font-style:normal;font-variant:normal;font-weight:bold;font-stretch:normal;font-size:40px;line-height:1.25;font-family:sans-serif;-inkscape-font-specification:'sans-serif Bold';letter-spacing:0px;word-spacing:0px;fill:#000000;fill-opacity:1;stroke:none"><flowRegion
         id="flowRegion8823"
         style="font-style:normal;font-variant:normal;font-weight:bold;font-stretch:normal;font-family:sans-serif;-inkscape-font-specification:'sans-serif Bold'" /><flowPara
         id="flowPara8827" /></flowRoot>    <flowRoot
       xml:space="preserve"
       id="flowRoot8829"
       style="font-style:normal;font-variant:normal;font-weight:bold;font-stretch:normal;font-size:40px;line-height:1.25;font-family:sans-serif;-inkscape-font-specification:'sans-serif Bold';letter-spacing:0px;word-spacing:0px;fill:#000000;fill-opacity:1;stroke:none"><flowRegion
         id="flowRegion8831"
         style="font-style:normal;font-variant:normal;font-weight:bold;font-stretch:normal;font-family:sans-serif;-inkscape-font-specification:'sans-serif Bold'" /><flowPara
         id="flowPara8835" /></flowRoot>    <flowRoot
       xml:space="preserve"
       id="flowRoot8837"
       style="font-style:normal;font-variant:normal;font-weight:bold;font-stretch:normal;font-size:40px;line-height:1.25;font-family:sans-serif;-inkscape-font-specification:'sans-serif Bold';letter-spacing:0px;word-spacing:0px;fill:#000000;fill-opacity:1;stroke:none"><flowRegion
         id="flowRegion8839"
         style="font-style:normal;font-variant:normal;font-weight:bold;font-stretch:normal;font-family:sans-serif;-inkscape-font-specification:'sans-serif Bold'" /><flowPara
         id="flowPara8843" /></flowRoot>    <text
       xml:space="preserve"
       style="font-style:normal;font-variant:normal;font-weight:bold;font-stretch:normal;font-size:10.58333302px;line-height:1.25;font-family:sans-serif;-inkscape-font-specification:'sans-serif Bold';letter-spacing:0px;word-spacing:0px;fill:#000000;fill-opacity:1;stroke:none;stroke-width:0.26458332"
       x="209.39882"
       y="107.25594"
       id="text8847" />
    <flowRoot
       xml:space="preserve"
       id="flowRoot8849"
       style="font-style:normal;font-variant:normal;font-weight:bold;font-stretch:normal;font-size:40px;line-height:1.25;font-family:sans-serif;-inkscape-font-specification:'sans-serif Bold';letter-spacing:0px;word-spacing:0px;fill:#000000;fill-opacity:1;stroke:none"><flowRegion
         id="flowRegion8851"
         style="font-style:normal;font-variant:normal;font-weight:bold;font-stretch:normal;font-family:sans-serif;-inkscape-font-specification:'sans-serif Bold'" /><flowPara
         id="flowPara8855" /></flowRoot>    <flowRoot
       xml:space="preserve"
       id="flowRoot8857"
       style="font-style:normal;font-variant:normal;font-weight:bold;font-stretch:normal;font-size:40px;line-height:1.25;font-family:sans-serif;-inkscape-font-specification:'sans-serif Bold';letter-spacing:0px;word-spacing:0px;fill:#000000;fill-opacity:1;stroke:none"><flowRegion
         id="flowRegion8859"
         style="font-style:normal;font-variant:normal;font-weight:bold;font-stretch:normal;font-family:sans-serif;-inkscape-font-specification:'sans-serif Bold'" /><flowPara
         id="flowPara8863" /></flowRoot>    <flowRoot
       xml:space="preserve"
       id="flowRoot8865"
       style="font-style:normal;font-variant:normal;font-weight:bold;font-stretch:normal;font-size:40px;line-height:1.25;font-family:sans-serif;-inkscape-font-specification:'sans-serif Bold';letter-spacing:0px;word-spacing:0px;fill:#000000;fill-opacity:1;stroke:none"><flowRegion
         id="flowRegion8867"
         style="font-style:normal;font-variant:normal;font-weight:bold;font-stretch:normal;font-family:sans-serif;-inkscape-font-specification:'sans-serif Bold'" /><flowPara
         id="flowPara8871" /></flowRoot>    <flowRoot
       xml:space="preserve"
       id="flowRoot8873"
       style="font-style:normal;font-variant:normal;font-weight:bold;font-stretch:normal;font-size:40px;line-height:1.25;font-family:sans-serif;-inkscape-font-specification:'sans-serif Bold';letter-spacing:0px;word-spacing:0px;fill:#000000;fill-opacity:1;stroke:none"><flowRegion
         id="flowRegion8875"
         style="font-style:normal;font-variant:normal;font-weight:bold;font-stretch:normal;font-family:sans-serif;-inkscape-font-specification:'sans-serif Bold'" /><flowPara
         id="flowPara8879" /></flowRoot>    <path
       style="fill:#f3f422;fill-opacity:1;stroke-width:0.42226771"
       d="m 158.12407,108.90773 c -21.41325,-0.96998 -32.81024,-2.26098 -38.17368,-4.32416 l -2.5096,-0.96538 -9.03013,0.609 c -4.96659,0.33495 -9.096166,0.55198 -9.17684,0.48229 -0.0806,-0.0697 2.40334,-1.60425 5.52002,-3.41013 3.11668,-1.80589 5.66669,-3.34837 5.66669,-3.42774 0,-0.0794 -0.40977,-0.83817 -0.91058,-1.68623 -3.18986,-5.401527 -2.89042,-13.204231 0.75296,-19.620574 1.95931,-3.450521 6.48978,-7.614537 9.75353,-8.964602 6.85992,-2.83763 29.48928,-4.241476 62.18657,-3.857835 35.68565,0.418706 55.44927,2.394558 62.51969,6.250363 9.19318,5.013438 11.31821,17.60635 4.66597,27.650588 -1.8189,2.74635 -5.59558,6.02786 -8.17829,7.106 -3.67612,1.53458 -12.45681,2.64902 -28.56796,3.62578 -6.71614,0.40719 -48.3157,0.8136 -54.51835,0.53263 z"
       id="path2520"
       inkscape:connector-curvature="0" />
    <text
       xml:space="preserve"
       style="font-style:normal;font-weight:normal;font-size:10.58333302px;line-height:1.25;font-family:sans-serif;letter-spacing:0px;word-spacing:0px;fill:#000000;fill-opacity:1;stroke:none;stroke-width:0.26458332"
       x="113.37574"
       y="88.957397"
       id="text2524"><tspan
         sodipodi:role="line"
         id="tspan2522"
         x="113.37574"
         y="88.957397"
         style="font-style:normal;font-variant:normal;font-weight:bold;font-stretch:normal;font-size:12.69999981px;font-family:sans-serif;-inkscape-font-specification:'sans-serif Bold';stroke-width:0.26458332">I apologize to you.</tspan></text>
  </g>
</svg>
