<?xml version="1.0" encoding="UTF-8" standalone="no"?>
<!-- Created with Inkscape (http://www.inkscape.org/) -->

<svg
   version="1.1"
   id="svg10827"
   width="3360"
   height="2116.6133"
   viewBox="0 0 3360 2116.6133"
   xmlns="http://www.w3.org/2000/svg"
   xmlns:svg="http://www.w3.org/2000/svg">
  <defs
     id="defs10831" />
  <g
     id="g10835"
     transform="matrix(1.3333333,0,0,-1.3333333,0,2116.6133)">
    <g
       id="g10837"
       transform="scale(0.1)">
      <path
         d="M 25200,0 H 0 V 15874.6 H 25200 0 V 0 h 25200 v 0"
         style="fill:#ffffff;fill-opacity:1;fill-rule:nonzero;stroke:none"
         id="path10839" />
      <path
         d="M 0,0 H 25200 V 15874.6 H 0 Z"
         style="fill:#ffffff;fill-opacity:1;fill-rule:nonzero;stroke:none"
         id="path10841" />
      <path
         d="m 13050.3,1386.9 c -1320.3,0 -2390.6,84.5 -2390.6,188.6 0,104.2 1070.3,188.6 2390.6,188.6 1320.3,0 2390.7,-84.4 2390.7,-188.6 0,-104.1 -1070.4,-188.6 -2390.7,-188.6"
         style="fill:#e0e0e0;fill-opacity:1;fill-rule:nonzero;stroke:none"
         id="path10843" />
      <path
         d="m 17240.7,8206.75 c 71.4,-5.64 102.5,585.54 31.4,595.64 -1063.5,150.81 -2382.6,416.54 -2650.9,490.28 l -68.4,-772.68 c 614.7,-75.41 1744.8,-238.59 2687.9,-313.24"
         style="fill:#fac09f;fill-opacity:1;fill-rule:nonzero;stroke:none"
         id="path10845" />
      <path
         d="m 15348.5,9194.26 c -27.6,-292.25 -96.8,-812.93 -161,-1079.99 -464.6,54.89 -1074,124.5 -1104.6,153.36 -318.7,300.32 69.4,1122.35 114.2,1159.48 353.9,-59.83 606.3,-120.83 1151.4,-232.85"
         style="fill:#b82025;fill-opacity:1;fill-rule:nonzero;stroke:none"
         id="path10847" />
      <path
         d="m 12333,2035.3 c -3.7,-23.1 -744.4,28.9 -743.6,57.2 6.9,246.4 50.8,3140 57.4,3282.7 l 1040.7,-163.1 c -45.3,-241.4 -327.8,-3010 -354.5,-3176.8"
         style="fill:#fac09f;fill-opacity:1;fill-rule:nonzero;stroke:none"
         id="path10849" />
      <path
         d="m 12410.6,1941 c -2.4,-14.1 -1008.9,51.9 -1010.2,69.3 -11.1,151.2 14.7,453.8 11.4,541.4 l 1075.1,-70.1 c -27.6,-161.4 -58.5,-438.4 -76.3,-540.6"
         style="fill:#ffffff;fill-opacity:1;fill-rule:nonzero;stroke:none"
         id="path10851" />
      <path
         d="m 11286.1,2234.2 c 14,51.1 42.9,115.8 65.3,175 16.6,43.9 446.3,36.9 447.5,-68.7 0.3,-27 -0.8,-50.9 -3,-72.5 73.6,-0.7 153.3,0.2 237.5,3.3 183.1,6.6 347.2,21.5 462.3,39.9 7.5,-167 -7.1,-456.1 -0.4,-641.6 0,0 -1917,-359 -2219.1,-80.9 -85.2,78.4 396.1,426.5 1009.9,645.5"
         style="fill:#ed2924;fill-opacity:1;fill-rule:nonzero;stroke:none"
         id="path10853" />
      <path
         d="m 12493.6,1785.9 c 0.1,-41.2 0.4,-81 1.7,-116.3 0,0 -1917,-359 -2219.1,-80.9 -12,11.1 -12.6,27.5 -3.3,48.2 529,-114.8 1744.1,68.8 2220.7,149"
         style="fill:#982121;fill-opacity:1;fill-rule:nonzero;stroke:none"
         id="path10855" />
      <path
         d="m 10820.7,2060 c 2.5,-14.6 16,-24.7 31,-21.9 89.3,16.6 206.8,-27.1 284.8,-103.4 5.5,-5.3 12.7,-7.8 19.8,-7.6 6.6,0.3 13.2,3 18.2,8.1 10.4,10.6 10.2,27.6 -0.4,37.9 -89.7,87.5 -225.7,136.2 -331.5,117.8 -14.6,-2.4 -24.4,-16.3 -21.9,-30.9 z m 456.8,-51.2 c 5.5,-5.9 13,-8.7 20.5,-8.4 6.2,0.2 12.5,2.7 17.4,7.3 10.8,10.2 11.3,27.2 1.1,38 -84.9,89.7 -200.8,133.7 -318.1,119.9 -14.8,-1.6 -25.3,-14.9 -23.6,-29.7 1.6,-14.7 15.1,-26.3 29.7,-23.5 59.1,6.8 172.9,2.3 273,-103.6 z m 135.5,65.5 c 5.5,-7.3 14,-11 22.4,-10.7 5.3,0.2 10.6,2 15.2,5.4 11.8,8.9 14.2,25.7 5.2,37.6 -74.4,98.7 -204.1,150.2 -315.5,126 -14.5,-3.2 -23.6,-17.5 -20.4,-32 3.2,-14.4 17.4,-23.3 32,-20.4 91.5,20.6 198.9,-23.4 261.1,-105.9"
         style="fill:#d2dae5;fill-opacity:1;fill-rule:nonzero;stroke:none"
         id="path10857" />
      <path
         d="m 13835.2,2035.3 c 3.7,-23.1 725.7,15.4 724.9,43.7 -6.9,246.4 -139.6,3226.6 -146.2,3369.3 L 13317,5414.6 c 45.2,-241.4 491.6,-3212.5 518.2,-3379.3"
         style="fill:#fac09f;fill-opacity:1;fill-rule:nonzero;stroke:none"
         id="path10859" />
      <path
         d="m 13757.6,1941 c 2.5,-14.1 1009,51.9 1010.2,69.3 11.1,151.2 -14.7,453.8 -11.3,541.4 l -1075.2,-70.1 c 27.6,-161.4 58.5,-438.4 76.3,-540.6"
         style="fill:#ffffff;fill-opacity:1;fill-rule:nonzero;stroke:none"
         id="path10861" />
      <path
         d="m 14882.1,2234.2 c -14,51.1 -42.9,115.8 -65.3,175 -16.6,43.9 -446.3,36.9 -447.5,-68.7 -0.3,-27 0.8,-50.9 3,-72.5 -73.5,-0.7 -153.3,0.2 -237.4,3.3 -183.1,6.6 -347.2,21.5 -462.4,39.9 -7.5,-167 7.1,-456.1 0.4,-641.6 0,0 1917,-359 2219.1,-80.9 85.1,78.4 -396.2,426.5 -1009.9,645.5"
         style="fill:#ed2924;fill-opacity:1;fill-rule:nonzero;stroke:none"
         id="path10863" />
      <path
         d="m 13674.6,1785.9 c -0.1,-41.2 -0.4,-81 -1.7,-116.3 0,0 1917,-359 2219.1,-80.9 12,11.1 12.6,27.5 3.3,48.2 -529,-114.8 -1744.1,68.8 -2220.7,149"
         style="fill:#982121;fill-opacity:1;fill-rule:nonzero;stroke:none"
         id="path10865" />
      <path
         d="m 15325.6,2090.9 c -105.8,18.4 -241.8,-30.3 -331.4,-117.8 -10.6,-10.3 -10.8,-27.3 -0.5,-37.9 5,-5.1 11.6,-7.8 18.2,-8.1 7.1,-0.2 14.3,2.3 19.8,7.6 78,76.3 195.6,120 284.8,103.4 15,-2.8 28.5,7.3 31,21.9 2.5,14.6 -7.3,28.5 -21.9,30.9 z m -161.9,21.5 c 14.6,-2.8 28.1,8.8 29.7,23.5 1.7,14.8 -8.8,28.1 -23.5,29.7 -117.4,13.8 -233.3,-30.2 -318.2,-119.9 -10.1,-10.8 -9.7,-27.8 1.1,-38 4.9,-4.6 11.1,-7.1 17.4,-7.3 7.5,-0.3 15,2.5 20.5,8.4 100.1,105.9 213.9,110.4 273,103.6 z m -147.4,67.8 c 14.6,-2.9 28.8,6 32,20.4 3.2,14.5 -5.9,28.8 -20.4,32 -111.4,24.2 -241.1,-27.3 -315.5,-126 -9,-11.9 -6.6,-28.7 5.2,-37.6 4.6,-3.4 9.9,-5.2 15.2,-5.4 8.4,-0.3 16.9,3.4 22.4,10.7 62.3,82.5 169.6,126.5 261.1,105.9"
         style="fill:#d2dae5;fill-opacity:1;fill-rule:nonzero;stroke:none"
         id="path10867" />
      <path
         d="m 12624.9,4036.9 c 65.9,501.1 142.1,1037.5 192.2,1288.4 29.1,145.1 367.5,154.7 406.2,3.3 11.9,-46.6 101.6,-651.6 202.1,-1279 49.5,0.2 825.9,38.1 1197.5,127 -69.7,1120.5 -168.5,2464.85 -185.6,2794.58 -520,58.69 -2281,58.15 -2840.3,-6.8 -61.3,-384.64 -88.2,-1722.48 -117.8,-2860.18 365.9,-64.1 762,-64.1 1145.7,-67.3"
         style="fill:#134c6e;fill-opacity:1;fill-rule:nonzero;stroke:none"
         id="path10869" />
      <path
         d="m 14457.1,6618.37 c -261.5,-8.77 -471.1,-222.1 -471.1,-485.61 0,-269.06 218.2,-487.26 487.3,-487.26 14,0 27.1,2.9 40.8,4.1 -22.6,379.32 -42.7,719.48 -57,968.77"
         style="fill:#071e25;fill-opacity:1;fill-rule:nonzero;stroke:none"
         id="path10871" />
      <path
         d="m 11564,6618.57 c -16.5,-251 -29.9,-591.24 -41.7,-970.37 9.3,-0.5 18.1,-2.7 27.4,-2.7 269.2,0 487.3,218.2 487.3,487.26 0,264.19 -210.6,478.11 -473,485.81"
         style="fill:#071e25;fill-opacity:1;fill-rule:nonzero;stroke:none"
         id="path10873" />
      <path
         d="m 12975.3,5712.1 c -349.2,0 -697.5,46.1 -1034.6,129.8 13.4,18 25.6,36.91 36.5,56.69 269.5,-63.29 569.7,-94.19 877.2,-94.19 392.7,0 797.5,50.4 1166.2,147.84 11.1,-27.95 24.8,-54.61 40.7,-79.74 -355.6,-110.1 -721.4,-160.4 -1086,-160.4 m 1515.7,325.94 c -1.4,24.29 -2.8,48.29 -4.2,71.99 2,0.84 4,1.7 6,2.54 1.3,-23.6 2.8,-47.55 4.2,-71.75 -2,-0.92 -4,-1.86 -6,-2.78"
         style="fill:#0e3248;fill-opacity:1;fill-rule:nonzero;stroke:none"
         id="path10875" />
      <path
         d="m 14061.3,5872.5 c -15.9,25.13 -29.6,51.79 -40.7,79.74 164,43.36 320.7,96.05 466.2,157.79 1.4,-23.7 2.8,-47.7 4.2,-71.99 -141,-65.61 -284.5,-120.56 -429.7,-165.54"
         style="fill:#07151a;fill-opacity:1;fill-rule:nonzero;stroke:none"
         id="path10877" />
      <path
         d="m 11940.7,5841.9 c -135.7,33.63 -269.6,73.36 -401.1,118.65 1,27.97 1.9,55.17 2.8,81.66 131.5,-59.03 278,-106.81 434.8,-143.62 -10.9,-19.78 -23.1,-38.69 -36.5,-56.69"
         style="fill:#07151a;fill-opacity:1;fill-rule:nonzero;stroke:none"
         id="path10879" />
      <path
         d="m 11373.7,6129.14 c 775.4,-458.54 2293.1,-417.54 3232.9,35.1 0,0 -301.7,2646.33 -422,3248.23 -658.6,78.36 -1860.9,48.71 -2458.1,-52.4 -87.3,-767.71 -250.4,-2097.05 -352.8,-3230.93"
         style="fill:#ed2924;fill-opacity:1;fill-rule:nonzero;stroke:none"
         id="path10881" />
      <path
         d="m 8574.56,9605.96 c 164.89,-162.52 369.47,-328.63 768.82,-603.62 289,-199.01 515.61,-37.01 598.67,129.2 47.71,95.48 103.85,712.95 31.24,876.36 -47.9,107.9 -153.91,322.4 -181.28,326.7 -132.14,20.7 -145.07,-163.9 -72.68,-346.46 16.38,-55.6 21.4,-109.44 -11.31,-196.65 -37.8,-24.22 -182.88,333.31 -266.22,476.41 -66.56,114.3 -382.02,335.6 -421.79,318.6 -97.93,-41.7 130.24,-294.8 201.71,-397.3 24.84,-35.6 72.07,-151.4 87.99,-233.57 -80.54,59.87 -198.96,198.97 -249.8,243.47 -97.95,85.9 -286.68,302.3 -369.52,267.6 -64.67,-27.2 24.95,-192.1 165.64,-370.6 34.11,-43.4 156.09,-207.81 232.58,-317.43 -3.94,-4.02 -242.46,195.45 -268.89,230.83 -78.43,104.9 -171.96,257.4 -300.16,228.3 -35.04,-8 77.9,-287.82 168,-388.93 40.18,-45.12 124.98,-148.25 239.13,-260.25 -80.67,48.33 -217.83,155.49 -246.43,178.44 -114.36,174.42 -207.09,226.96 -303.63,206.88 -29.86,-6.24 119.37,-290.52 197.93,-367.98"
         style="fill:#fac09f;fill-opacity:1;fill-rule:nonzero;stroke:none"
         id="path10883" />
      <path
         d="m 9502.74,8983.34 c -23.34,38.12 414.3,331.66 440.9,295.75 397.76,-536.56 1142.06,-1258.62 1278.76,-1391.38 0,0 -377.2,-309.85 -735.1,-206.95 -284.9,81.92 -676.39,799.08 -984.56,1302.58"
         style="fill:#fac09f;fill-opacity:1;fill-rule:nonzero;stroke:none"
         id="path10885" />
      <path
         d="m 10600.9,8526.9 c 158.2,-233.78 493.8,-727.07 709.5,-866.39 170,121.39 223.2,160.76 253.1,185.06 227.8,493.69 742,1561.7 744.6,1587.8 -496.6,-33.26 -750,-106.33 -850.7,-147.61 -192.8,-203.92 -510.9,-457.94 -856.5,-758.86"
         style="fill:#b82025;fill-opacity:1;fill-rule:nonzero;stroke:none"
         id="path10887" />
      <path
         d="m 14422.7,8824.87 -88.8,-418.39 -674.7,1067.09 537.9,-46.46 225.6,-602.24"
         style="fill:#b82025;fill-opacity:1;fill-rule:nonzero;stroke:none"
         id="path10889" />
      <path
         d="m 13690.2,9360.44 c 0.6,38.92 -7.2,76.15 -17.7,112.68 -399.8,14.26 -999.2,3.82 -1425.4,-43.82 -2.7,-16.86 -9.3,-32.75 -9.6,-50.17 -3.8,-300.91 318.2,-549.01 719.4,-554.17 401.1,-5.16 729.5,234.57 733.3,535.48"
         style="fill:#b82025;fill-opacity:1;fill-rule:nonzero;stroke:none"
         id="path10891" />
      <path
         d="m 13497,10174.8 v -880.18 c 1.3,-190 -236.3,-345.65 -534.2,-347.57 -297.9,-1.94 -543.3,150.58 -544.5,340.58 v 887.17 H 13497"
         style="fill:#fac09f;fill-opacity:1;fill-rule:nonzero;stroke:none"
         id="path10893" />
      <path
         d="m 13123.2,9299.68 c -10.5,0 -21,0.16 -31.6,0.48 -282.4,8.52 -528,122.23 -673.3,288.3 v 427.74 c 258.6,19.2 556,27.6 841.7,27.6 80.3,0 159.7,-0.7 237,-1.9 v -672.62 c -112.6,-43.26 -238.7,-69.6 -373.8,-69.6"
         style="fill:#dda184;fill-opacity:1;fill-rule:nonzero;stroke:none"
         id="path10895" />
      <path
         d="m 15392.3,12482.1 c 62.6,-1418.2 -1116.7,-2140.7 -2523.1,-2144 -1406.4,-3.3 -2388.8,793.8 -2491.9,2209.6 -104.9,1439.3 1162.9,1780.8 2551.7,1628.8 1313.1,-143.8 2404.9,-373.6 2463.3,-1694.4"
         style="fill:#822c19;fill-opacity:1;fill-rule:nonzero;stroke:none"
         id="path10897" />
      <path
         d="m 10339.3,11189.2 c 132.4,-502.5 613.8,-814.9 973.3,-762.8 359.6,52.1 425.3,465.9 357.8,950.5 -67.6,484.7 -414,836.7 -773.4,783.3 -491.3,-72.9 -682.1,-498.6 -557.7,-971"
         style="fill:#fcc1a0;fill-opacity:1;fill-rule:nonzero;stroke:none"
         id="path10899" />
      <path
         d="m 10773.2,11083.6 c 29.7,-212.5 202.3,-363.2 385.5,-336.7 183.3,26.6 307.8,220.4 278.1,433 -29.6,212.5 -202.2,363.2 -385.3,336.6 -183.4,-26.5 -307.8,-220.3 -278.3,-432.9"
         style="fill:#e0956c;fill-opacity:1;fill-rule:nonzero;stroke:none"
         id="path10901" />
      <path
         d="m 15780.6,11201.9 c -129.3,-503.2 -608.9,-817.8 -968.8,-767.3 -359.9,50.4 -428,463.9 -363.4,948.8 64.7,485 409,838.6 768.8,786.9 491.7,-70.7 685,-495.5 563.4,-968.4"
         style="fill:#fcc1a0;fill-opacity:1;fill-rule:nonzero;stroke:none"
         id="path10903" />
      <path
         d="m 15320.9,11094.2 c -28.4,-212.6 -200.1,-364.1 -383.4,-338.5 -183.4,25.8 -309.2,219 -280.8,431.7 28.3,212.6 200,364.1 383.4,338.4 183.4,-25.7 309.1,-218.9 280.8,-431.6"
         style="fill:#e0956c;fill-opacity:1;fill-rule:nonzero;stroke:none"
         id="path10905" />
      <path
         d="m 14949.2,13460.9 c 123,-286 49.6,-2810.6 -225.3,-3163.2 -291.5,-373.93 -1122.2,-782.44 -1667.6,-783.71 -740.4,-1.72 -1494.8,366.12 -1722.3,775.81 -269.2,484.9 -395,2730.4 -310.4,2997.9 286.1,903.7 1029,935.8 2000.9,938.1 909.1,2.1 1605.4,-22.9 1924.7,-764.9"
         style="fill:#fcc1a0;fill-opacity:1;fill-rule:nonzero;stroke:none"
         id="path10907" />
      <path
         d="m 11975.8,10918.2 c 0.2,-73.9 -133.4,-134.1 -298.4,-134.5 -165,-0.4 -298.9,59.2 -299.1,133.1 -0.2,73.9 133.3,134.1 298.4,134.5 164.9,0.4 298.8,-59.2 299.1,-133.1"
         style="fill:#f69597;fill-opacity:1;fill-rule:nonzero;stroke:none"
         id="path10909" />
      <path
         d="m 14103,14766.4 c -1101,307.3 -1462.6,390.7 -2621.5,-508.8 -74.1,-57.6 111.1,-404.1 -177.1,-322.3 -210,30.8 -596,-259.1 -701.8,-684.4 -108.1,-433.6 -90.2,-1009.1 101.7,-1112.5 192,-103.4 517.1,164.6 726.2,598.4 105.7,219.3 161.4,438.8 166,615.8 144.5,-191.8 357.9,-393.4 616.9,-570.6 588.4,-402.2 1189.7,-525.2 1343.2,-274.6 35.6,58.1 43.6,131.5 28,214.7 33.1,-8.3 66.4,-16.4 100,-24 1113.5,-252.4 2109.8,6 2225.3,577 115.7,571.3 -952.6,1252.8 -1806.9,1491.3"
         style="fill:#822c19;fill-opacity:1;fill-rule:nonzero;stroke:none"
         id="path10911" />
      <path
         d="m 13681.3,10555.9 c 4,-277.3 -291.7,-506.4 -660.5,-511.7 -368.9,-5.4 -671.1,215.1 -675.2,492.4 -4,277.2 310.2,229.6 678.7,253.4 368.1,23.8 652.9,43.1 657,-234.1"
         style="fill:#61120c;fill-opacity:1;fill-rule:nonzero;stroke:none"
         id="path10913" />
      <path
         d="m 13056.6,10307.3 c -199.4,-2.9 -373.4,-65.4 -472.5,-157.1 118.9,-72.3 271.2,-114.8 436.8,-112.4 186.4,2.7 354.3,61.7 475.7,154.9 -104.6,72.2 -263.1,117.1 -440,114.6"
         style="fill:#e96d60;fill-opacity:1;fill-rule:nonzero;stroke:none"
         id="path10915" />
      <path
         d="m 13489.9,10793.3 c -119.1,25.3 -281.9,14.8 -465.4,2.9 -207,-13.3 -396.9,-4.8 -524.9,-41.8 54.4,-110.8 255,-191.1 493.6,-187.6 255.8,3.7 465.2,102.2 496.7,226.5"
         style="fill:#ffffff;fill-opacity:1;fill-rule:nonzero;stroke:none"
         id="path10917" />
      <path
         d="m 14728.2,10957.1 c 0.2,-73.9 -133.3,-134.1 -298.3,-134.5 -165,-0.4 -298.9,59.2 -299.1,133.1 -0.3,73.9 133.3,134.1 298.3,134.5 165,0.4 298.9,-59.2 299.1,-133.1"
         style="fill:#f69597;fill-opacity:1;fill-rule:nonzero;stroke:none"
         id="path10919" />
      <path
         d="m 11716.6,12664.8 c -10.7,-0.1 -21.6,2.2 -32,7 -38.8,17.9 -56.1,64.6 -38.5,104.4 58.9,133.5 197.3,232.6 361.2,258.4 170.9,27.2 338.1,-30.8 446.7,-154.7 28.5,-32.5 25.8,-82.4 -5.9,-111.4 -31.7,-29.1 -80.5,-26.3 -109,6.1 -74.7,85.3 -187.1,123.1 -308.2,104 -112.9,-17.7 -206.5,-81.9 -244.2,-167.4 -12.8,-29.1 -40.8,-46.4 -70.1,-46.4"
         style="fill:#461d14;fill-opacity:1;fill-rule:nonzero;stroke:none"
         id="path10921" />
      <path
         d="m 14285.5,12709 c -29.3,-0.1 -57.4,17 -70.4,46.1 -38.3,85.3 -132.3,149 -245.3,166.3 -121.6,18.5 -233.5,-19.9 -307.6,-105.5 -28.3,-32.5 -77.1,-35.6 -109,-6.6 -31.9,28.9 -34.8,78.8 -6.5,111.4 107.7,124.3 274.3,183.1 445.8,156.7 164,-25 303,-123.3 362.8,-256.7 17.8,-39.6 0.8,-86.4 -37.9,-104.6 -10.4,-4.8 -21.2,-7.1 -31.9,-7.1"
         style="fill:#461d14;fill-opacity:1;fill-rule:nonzero;stroke:none"
         id="path10923" />
      <path
         d="m 13175.9,11064.8 c -9.6,0 -18.1,7.1 -19.7,17.1 -11.7,71 -66.8,116.7 -140.3,116.6 -73.8,-0.2 -129.9,-47.2 -139.5,-116.9 -1.5,-11.1 -11.7,-18.9 -22.5,-17.3 -10.9,1.5 -18.5,11.9 -17,23.1 12.2,89.2 85.8,151.7 178.9,151.9 92.6,0.3 164.9,-60.3 179.8,-150.7 1.8,-11.1 -5.5,-21.6 -16.4,-23.5 l -3.3,-0.3"
         style="fill:#c4735b;fill-opacity:1;fill-rule:nonzero;stroke:none"
         id="path10925" />
      <path
         d="m 12516.2,11247.2 c 0,0 -453,-156.7 -743.1,-27.3 -123.2,54.9 -216.9,161.3 -234.4,353.1 -25.9,283.1 259.4,460.9 446.2,453.6 206.7,-8 402.3,-182.6 489.3,-421 40,-109.4 57.1,-232.1 42,-358.4"
         style="fill:#ffffff;fill-opacity:1;fill-rule:nonzero;stroke:none"
         id="path10927" />
      <path
         d="m 11769.7,11221.4 c -109.1,65.6 -188.7,139.6 -218.9,332.9 -28.5,182.3 122.8,482.6 440.3,457.6 196.9,-15.4 369.5,-148.6 499.1,-455 -40.2,143 -164.8,388 -377.8,470.3 -382.5,147.6 -660.7,-157.6 -607.8,-449 46.9,-258.8 208.7,-348.6 265.1,-356.8"
         style="fill:#923e21;fill-opacity:1;fill-rule:nonzero;stroke:none"
         id="path10929" />
      <path
         d="m 12338.7,11654.1 c 58.4,-148.8 -12.2,-317.8 -157.7,-377.4 -145.5,-59.6 -310.8,12.7 -369.2,161.5 -58.4,148.8 12.2,317.8 157.7,377.4 145.4,59.6 310.8,-12.7 369.2,-161.5"
         style="fill:#772615;fill-opacity:1;fill-rule:nonzero;stroke:none"
         id="path10931" />
      <path
         d="m 12020.8,11695.2 c 16.2,-41.3 -3.4,-88.2 -43.7,-104.7 -40.4,-16.6 -86.3,3.5 -102.5,44.8 -16.2,41.3 3.4,88.1 43.8,104.7 40.3,16.5 86.2,-3.5 102.4,-44.8"
         style="fill:#fefffe;fill-opacity:1;fill-rule:nonzero;stroke:none"
         id="path10933" />
      <path
         d="m 13493.2,11249.4 c 0,0 453.8,-154.5 743.2,-23.8 122.8,55.5 216,162.4 232.4,354.2 24.1,283.3 -262.2,459.7 -449,451.6 -206.7,-9 -401.2,-184.5 -486.8,-423.3 -39.3,-109.6 -55.7,-232.4 -39.8,-358.7"
         style="fill:#ffffff;fill-opacity:1;fill-rule:nonzero;stroke:none"
         id="path10935" />
      <path
         d="m 14239.8,11227.2 c 108.7,66 187.9,140.4 216.9,333.8 27.4,182.6 -125.6,482.1 -443,455.7 -196.8,-16.4 -368.6,-150.4 -496.4,-457.4 39.3,143.2 162.5,388.8 375,472 381.6,149.5 661.7,-154.5 610.5,-446.1 -45.4,-259 -206.6,-349.5 -263,-358"
         style="fill:#923e21;fill-opacity:1;fill-rule:nonzero;stroke:none"
         id="path10937" />
      <path
         d="m 14231.2,11667.5 c 58.5,-148.8 -12.1,-317.8 -157.6,-377.4 -145.5,-59.7 -310.8,12.7 -369.2,161.5 -58.4,148.8 12.1,317.8 157.6,377.4 145.5,59.6 310.8,-12.7 369.2,-161.5"
         style="fill:#772615;fill-opacity:1;fill-rule:nonzero;stroke:none"
         id="path10939" />
      <path
         d="m 13913.4,11708.6 c 16.2,-41.3 -3.4,-88.2 -43.8,-104.7 -40.3,-16.6 -86.2,3.5 -102.4,44.7 -16.2,41.3 3.4,88.2 43.7,104.8 40.4,16.5 86.3,-3.6 102.5,-44.8"
         style="fill:#fefffe;fill-opacity:1;fill-rule:nonzero;stroke:none"
         id="path10941" />
      <path
         d="m 14209.2,10665.9 c -492.3,-1.2 -893.9,407.4 -895.4,910.8 -1.5,503.4 397.7,913.8 890,915 492.2,1.1 893.9,-407.5 895.4,-910.8 1.5,-503.4 -397.8,-913.9 -890,-915 z m -2375.5,-5.5 c -492.3,-1.2 -894,407.4 -895.5,910.8 -1.5,503.3 397.8,913.8 890,914.9 492.3,1.2 894,-407.4 895.4,-910.8 1.6,-503.3 -397.7,-913.8 -889.9,-914.9 z m 2369.8,1916.7 c -538.3,-1.3 -974.9,-450.1 -973.2,-1000.6 0.1,-59.9 6.4,-118.3 16.5,-175.3 -81.5,50.9 -182,66 -267.8,58.9 -71.8,-5.9 -135.7,-26.6 -187,-57.3 9.5,56.3 15.3,113.7 15.2,172.7 -1.7,550.5 -441,997.3 -979.2,996 -538.3,-1.2 -974.9,-450.1 -973.3,-1000.5 1.7,-550.5 441,-997.3 979.2,-996.1 419.3,1 775.9,274.2 912.7,654.9 5.1,4.7 9.9,9.8 12.3,16.8 22.4,67.4 113.6,119.1 226.9,128.4 105.3,8.9 241,-21.5 299.4,-133.4 l 5.5,-4.6 c 137.5,-383.2 497.2,-657.5 918.7,-656.5 538.3,1.3 974.9,450.1 973.3,1000.6 -1.6,550.4 -441,997.2 -979.2,996"
         style="fill:#bf2026;fill-opacity:1;fill-rule:nonzero;stroke:none"
         id="path10943" />
      <path
         d="m 10566.9,5454.8 c -149,1011.22 -766.79,1875.36 -1740.75,2433.48 -660.77,380.05 -1422.76,514.21 -2232.02,656.51 -779.19,137.47 -1661.97,293.62 -1970.85,643.56 -26.76,44.41 -81.18,254.01 -14.34,501.79 59.68,222.97 179.53,362.36 367.63,425.46 572.94,192.3 2345.64,454.5 2684.16,-454.11 280.25,-751.48 1120.54,-1133.43 1870.12,-856.05 364.27,135.58 653.65,404.88 815.45,758.17 161.9,353.32 176.2,748.59 40.6,1112.39 -1043.67,2804.5 -4441.61,2835.1 -6337.49,2196.3 -1115.8,-374.8 -1936.03,-1259.5 -2250.17,-2426.8 -306.05,-1139.22 -58.72,-2381.99 630.68,-3166.9 990.19,-1127.21 2471.21,-1388.87 3662.41,-1598.9 474.1,-83.6 1064.2,-187.2 1286.23,-314.7 130.35,-74.5 289.81,-192.8 309.84,-332.7 19.58,-132.8 -60.6,-316.1 -204.33,-467.9 -152.79,-162.8 -1410.36,-379.6 -2306.51,-151.8 -740.01,187.1 -967.75,465.9 -1092.85,713.7 -174.74,346.6 -474.08,604.9 -844.09,727.2 -369.54,121.23 -763.45,91.64 -1109.1,-82.6 -347.57,-174.8 -605.86,-474.6 -727.13,-843.7 -121.73,-368.6 -92.63,-762.9 82.11,-1109.5 C 2050.36,2699 3052.03,1949.9 4463.8,1592.3 4937.91,1472 5522.3,1406.1 6109.54,1406.1 c 719.01,0 2497.45,113.2 3487.67,1159.2 766.79,809.3 1120.09,1862.5 969.69,2889.5"
         style="fill:#0081ae;fill-opacity:1;fill-rule:nonzero;stroke:none"
         id="path10945" />
      <path
         d="m 10385.5,5428.1 c -140.4,954.35 -726.71,1771.74 -1650.56,2301.21 -633.06,363.8 -1378.34,495.09 -2169.94,634.52 -849.37,149.9 -1727.83,304.58 -2087.36,713.77 -48.67,55.37 -134.15,332.77 -45.82,659.82 75.45,283.08 239.19,468.78 486.51,551.88 642.62,216.3 2524.21,483.7 2914.28,-563.82 244.91,-656.48 979.69,-991.64 1634.24,-748.16 318.46,118.42 571.55,353.77 712.85,662.68 141.3,308.91 153.7,654.1 35.3,972.1 -998.3,2681.3 -4275.91,2703.7 -6107.37,2086.4 C 3051.54,12343.7 2274.28,11504.9 1976.36,10397.7 1685.6,9316.3 1917.64,8139.43 2567.43,7399.39 3515.61,6320.4 4960.8,6065.45 6123.85,5860.1 6637.57,5769.9 7220.53,5667.3 7469.75,5524 7710.38,5386 7845,5229.9 7869.84,5059 7897.52,4870 7801.1,4632.2 7617.75,4438.8 7390.49,4197.2 6049.84,4001 5132.69,4234.9 c -811.64,205.3 -1068.03,524.3 -1211.73,808.8 -152.78,303.7 -414.9,529 -737.63,635.5 -323.24,106 -667.46,80.2 -969.21,-72.1 -303.64,-152.8 -529.47,-414.4 -635.47,-737.1 -106.46,-322.3 -81.16,-666.6 71.63,-969.7 539.03,-1069.5 1500.57,-1786.1 2858.41,-2130.4 460.24,-116.5 1028.86,-180.4 1600.85,-180.4 695.14,0 2413.43,107.4 3354.46,1101.9 728.1,768.7 1063.7,1766.1 921.5,2736.7"
         style="fill:#00b7e2;fill-opacity:1;fill-rule:nonzero;stroke:none"
         id="path10947" />
      <path
         d="m 6071.74,4314.1 c -199.64,0 -403.1,12 -598.07,40.3 193.18,-28 394.31,-39.9 591.7,-39.9 389.83,0 764.81,46.5 1033.52,107.2 -2.43,-1.3 -4.92,-2.8 -7.35,-4.1 -266.86,-59.1 -636.18,-103.5 -1019.8,-103.5 m -599.92,40.6 c -0.29,0 -0.65,0.1 -0.94,0.1 0.29,0 0.65,-0.1 0.94,-0.1"
         style="fill:#ffffff;fill-opacity:1;fill-rule:nonzero;stroke:none"
         id="path10949" />
      <path
         d="m 1834.98,3573.5 c -79.47,16 -158.59,33.2 -237.26,51.4 -36.94,64.4 -77.41,125.7 -111.22,192.8 v 0 c -103.75,205.8 -156.16,428.4 -156.14,652.5 0.02,153.3 24.58,307.3 74.03,457 121.27,369.1 379.56,668.9 727.13,843.7 205.59,103.6 428.18,156.08 652.64,156.08 152.91,0 306.72,-24.38 456.46,-73.48 370.01,-122.3 669.35,-380.6 844.09,-727.2 125.1,-247.8 352.84,-526.6 1092.85,-713.7 94.47,-24.1 192.78,-43.1 293.32,-57.8 0.29,0 0.65,-0.1 0.94,-0.1 0.62,-0.1 1.23,-0.2 1.85,-0.3 194.97,-28.3 398.43,-40.3 598.07,-40.3 383.62,0 752.94,44.4 1019.8,103.5 -165.17,-94 -334.21,-182.1 -506.8,-263.9 -160.78,-15.3 -330.4,-23.8 -501.72,-23.8 -326.73,0 -659.75,30.9 -950.33,105 -811.64,205.3 -1068.03,524.3 -1211.73,808.8 -152.78,303.7 -414.9,529 -737.63,635.5 -131.04,43 -265.59,64.3 -399.3,64.3 -196.11,0 -390.49,-45.8 -569.91,-136.4 -303.64,-152.8 -529.47,-414.4 -635.47,-737.1 -106.46,-322.3 -81.16,-666.6 71.63,-969.7 56.88,-112.9 118.44,-221.8 184.7,-326.8"
         style="fill:#339abe;fill-opacity:1;fill-rule:nonzero;stroke:none"
         id="path10951" />
      <path
         d="m 3337.48,3420.4 c -514.12,0 -1015.72,55.2 -1502.5,153.1 -66.26,105 -127.82,213.9 -184.7,326.8 -152.79,303.1 -178.09,647.4 -71.63,969.7 106,322.7 331.83,584.3 635.47,737.1 179.42,90.6 373.8,136.4 569.91,136.4 133.71,0 268.26,-21.3 399.3,-64.3 322.73,-106.5 584.85,-331.8 737.63,-635.5 143.7,-284.5 400.09,-603.5 1211.73,-808.8 290.58,-74.1 623.6,-105 950.33,-105 171.32,0 340.94,8.5 501.72,23.8 -919.65,-436.2 -1940.93,-695.9 -3023.33,-729.8 -74.94,-2.4 -149.51,-3.5 -223.93,-3.5"
         style="fill:#33c5e8;fill-opacity:1;fill-rule:nonzero;stroke:none"
         id="path10953" />
      <path
         d="m 7616.29,4749.3 c 54.49,100 83.68,199.8 72.39,281 11.18,-80.2 -13.68,-178.5 -66.68,-277.1 -1.91,-1.3 -3.81,-2.6 -5.71,-3.9 m 72.37,281.2 c -0.03,0.2 -0.06,0.4 -0.09,0.6 0.03,-0.2 0.06,-0.4 0.09,-0.6 m -0.14,0.9 c -0.04,0.3 -0.08,0.6 -0.12,0.9 -20.03,139.9 -179.49,258.2 -309.84,332.7 -222.03,127.5 -812.13,231.1 -1286.23,314.7 -1191.2,210.03 -2672.22,471.69 -3662.41,1598.9 -492.81,561.09 -759.73,1356.14 -760.08,2180.08 0.35,-823.94 267.27,-1618.99 760.08,-2180.08 990.19,-1127.21 2471.21,-1388.87 3662.41,-1598.9 474.1,-83.6 1064.2,-187.2 1286.23,-314.7 130.35,-74.5 289.81,-192.8 309.84,-332.7 0.04,-0.3 0.08,-0.6 0.12,-0.9 m 1142.32,2854.19 -0.12,0.07 c 0.05,-0.03 0.07,-0.04 0.12,-0.07"
         style="fill:#ffffff;fill-opacity:1;fill-rule:nonzero;stroke:none"
         id="path10955" />
      <path
         d="m 7622,4753.2 c 53,98.6 77.86,196.9 66.68,277.1 -0.01,0 -0.01,0.1 -0.02,0.2 -0.03,0.2 -0.06,0.4 -0.09,0.6 -0.02,0.1 -0.03,0.2 -0.05,0.3 -0.04,0.3 -0.08,0.6 -0.12,0.9 -20.03,139.9 -179.49,258.2 -309.84,332.7 -222.03,127.5 -812.13,231.1 -1286.23,314.7 -1191.2,210.03 -2672.22,471.69 -3662.41,1598.9 -492.81,561.09 -759.73,1356.14 -760.08,2180.08 -0.15,328.67 42.13,661.92 129.4,986.82 314.14,1167.3 1134.37,2052 2250.17,2426.8 603.11,203.2 1358.11,338.6 2141.08,338.6 1678.31,0 3484.74,-622.5 4196.41,-2534.9 61.4,-164.8 92.1,-336.1 92.2,-507.1 0.1,-206.29 -44.3,-412.07 -132.8,-605.29 -73.5,-160.45 -173.3,-303.55 -294.5,-424.7 -129.75,-129.75 -284.09,-234.32 -456.86,-307.91 -21.1,-8.99 -42.46,-17.51 -64.09,-25.56 -165.76,-61.34 -335.86,-90.42 -503.45,-90.42 -590.28,0 -1148.39,361.17 -1366.67,946.47 -184.84,496.11 -797.08,643.11 -1408.31,643.11 -508.2,0 -1015.74,-101.7 -1275.85,-189 -188.1,-63.1 -307.95,-202.49 -367.63,-425.46 -23.5,-87.11 -32.01,-169.5 -32,-241.65 0.01,-133.09 28.99,-231.34 46.34,-260.14 308.88,-349.94 1191.66,-506.09 1970.85,-643.56 809.26,-142.3 1571.25,-276.46 2232.02,-656.51 1.53,-0.87 3.05,-1.74 4.57,-2.62 l 0.12,-0.07 c 394.63,-226.85 727.1,-506.14 996.95,-823.01 -32.97,-53.57 -66.54,-106.63 -100.79,-159.3 -263.22,320.19 -596.73,599.46 -992.06,826.03 -633.06,363.8 -1378.34,495.09 -2169.94,634.52 -849.37,149.9 -1727.83,304.58 -2087.36,713.77 -48.67,55.37 -134.15,332.77 -45.82,659.82 75.45,283.08 239.19,468.78 486.51,551.88 280.83,94.5 798.49,198.8 1324.67,198.8 677.87,0 1370,-172.9 1589.61,-762.62 190.71,-511.19 678.53,-827.58 1194.13,-827.58 146.54,0 295.25,25.53 440.11,79.42 318.46,118.42 571.55,353.77 712.85,662.68 141.3,308.91 153.7,654.1 35.3,972.1 -678.34,1821.9 -2409.53,2416.3 -4023.87,2416.3 -761.42,0 -1496.52,-132.1 -2083.5,-329.9 C 3051.54,12343.7 2274.28,11504.9 1976.36,10397.7 1685.6,9316.3 1917.64,8139.43 2567.43,7399.39 3515.61,6320.4 4960.8,6065.45 6123.85,5860.1 c 513.72,-90.2 1096.68,-192.8 1345.9,-336.1 240.63,-138 375.25,-294.1 400.09,-465 5.98,-40.9 6.17,-84 0.93,-128.5 -81.67,-60.6 -164.63,-119.8 -248.77,-177.3"
         style="fill:#339abe;fill-opacity:1;fill-rule:nonzero;stroke:none"
         id="path10957" />
      <path
         d="m 7870.77,4930.5 c 5.24,44.5 5.05,87.6 -0.93,128.5 -24.84,170.9 -159.46,327 -400.09,465 -249.22,143.3 -832.18,245.9 -1345.9,336.1 -1163.05,205.35 -2608.24,460.3 -3556.42,1539.29 -649.79,740.04 -881.83,1916.91 -591.07,2998.31 297.92,1107.2 1075.18,1946 2131.27,2300.8 586.98,197.8 1322.08,329.9 2083.5,329.9 1614.34,0 3345.53,-594.4 4023.87,-2416.3 118.4,-318 106,-663.19 -35.3,-972.1 -141.3,-308.91 -394.39,-544.26 -712.85,-662.68 -144.86,-53.89 -293.57,-79.42 -440.11,-79.42 -515.6,0 -1003.42,316.39 -1194.13,827.58 -219.61,589.72 -911.74,762.62 -1589.61,762.62 -526.18,0 -1043.84,-104.3 -1324.67,-198.8 -247.32,-83.1 -411.06,-268.8 -486.51,-551.88 -88.33,-327.05 -2.85,-604.45 45.82,-659.82 C 4837.17,8668.41 5715.63,8513.73 6565,8363.83 7356.6,8224.4 8101.88,8093.11 8734.94,7729.31 9130.27,7502.74 9463.78,7223.47 9727,6903.28 9230.95,6140.48 8601.19,5473.1 7870.77,4930.5 M 2385.96,9632.67 c -170.33,0 -322.08,-163.56 -346.2,-380.6 -25.52,-229.53 101.35,-431.97 283.35,-452.23 9.88,-1.09 19.7,-1.63 29.47,-1.63 170.36,0 322.16,163.53 346.29,380.61 25.51,229.52 -101.36,431.99 -283.39,452.21 -9.9,1.11 -19.73,1.64 -29.52,1.64 m 1345.98,2577.53 c -217.84,0 -620.05,-337.3 -971.44,-832.6 -406.19,-572.6 -590.63,-1139.5 -411.96,-1266.3 24.13,-17.1 53.63,-25.4 87.64,-25.4 217.85,0 620.07,337.3 971.44,832.6 406.21,572.6 590.64,1139.6 411.96,1266.3 -24.13,17.1 -53.64,25.4 -87.64,25.4"
         style="fill:#33c5e8;fill-opacity:1;fill-rule:nonzero;stroke:none"
         id="path10959" />
      <path
         d="m 2436.18,10085.9 c -34.01,0 -63.51,8.3 -87.64,25.4 -178.67,126.8 5.77,693.7 411.96,1266.3 351.39,495.3 753.6,832.6 971.44,832.6 34,0 63.51,-8.3 87.64,-25.4 178.68,-126.7 -5.75,-693.7 -411.96,-1266.3 -351.37,-495.3 -753.59,-832.6 -971.44,-832.6"
         style="fill:#68d4ee;fill-opacity:1;fill-rule:nonzero;stroke:none"
         id="path10961" />
      <path
         d="m 2352.58,8798.21 c -9.77,0 -19.59,0.54 -29.47,1.63 -182,20.26 -308.87,222.7 -283.35,452.23 24.12,217.04 175.87,380.6 346.2,380.6 9.79,0 19.62,-0.53 29.52,-1.64 182.03,-20.22 308.9,-222.69 283.39,-452.21 -24.13,-217.08 -175.93,-380.61 -346.29,-380.61"
         style="fill:#68d4ee;fill-opacity:1;fill-rule:nonzero;stroke:none"
         id="path10963" />
      <path
         d="m 22421.7,6683.25 c -708.5,444.02 -1661.5,587.25 -2577.2,695.14 l -185.7,21.49 c -354.3,40.1 -755.8,84.98 -942,167.59 l 22,42.47 c 466.9,255.9 1807.5,206.25 2650.2,-216.27 812.1,-408.69 1524,-359.04 2004.8,137.51 239.6,247.78 362.3,584.39 344.7,946.75 -19.6,406.78 -211.5,794.93 -527.6,1064.2 -1531.1,1304.37 -5255.1,1144.37 -6438.2,57.77 -754.4,-693.24 -1087.2,-1732.13 -868.5,-2711.82 204.8,-915.26 869.9,-1585.08 1924.6,-1936.48 423.5,-141.3 1163.5,-228.2 1816.1,-305.1 470.8,-55.4 958.3,-112.2 1111,-171.4 76.4,-29.6 104.1,-87.9 105.1,-132.7 0.9,-39.7 -16.7,-67.3 -52.6,-82.6 -464.5,-201 -1702.5,-255 -2521.3,349 -334.7,246.3 -695.1,388.6 -1072.8,423 -423.5,35.3 -992.1,-112.2 -1304.4,-640.7 -341.8,-577.2 -105.5,-1320.6 161.4,-1641 735.7,-884.2 2087.4,-1391.7 3708.3,-1391.7 994,0.5 1971.8,205.8 2490.8,522.3 918.1,560.5 1448,1466.7 1453.7,2485.5 6.7,948.7 -468.3,1793.29 -1302.4,2317.05"
         style="fill:#0081ae;fill-opacity:1;fill-rule:nonzero;stroke:none"
         id="path10965" />
      <path
         d="m 22324.2,6528.11 c -684.2,428.76 -1613.1,563.33 -2501.2,668.36 -423.4,50.13 -932.9,93.06 -1189,209.11 -131.2,59.45 -147.6,274.72 16.4,364.9 533.4,293.41 1926.7,235.76 2820.9,-213.18 664.3,-333.51 1330.1,-375 1790.5,101.13 462.5,478.36 363.1,1289.78 -169.7,1744.3 -1433.7,1221.77 -5074.7,1090.97 -6195.2,62.07 C 16190.8,8815.97 15879,7843.9 16083.3,6928.18 16285.8,6022 16956,5435.6 17886.5,5125.5 c 735.1,-245.1 2546.1,-329 2935.1,-479.2 273.4,-105.6 297.5,-452.3 59.3,-555.1 -482.8,-208.4 -1801.8,-294.5 -2702.6,369.9 -307.3,226.7 -640.9,357.2 -979.8,387.8 -334.2,29.1 -847.7,-72 -1130.9,-551.2 -303.5,-513.7 -72.6,-1169.4 144.7,-1430.1 700.8,-842.7 2001.4,-1325.9 3567.4,-1325.9 962.5,0.5 1902.6,194.8 2395.2,495.6 862.8,526.6 1360.8,1376.4 1366,2330.4 6.2,904.7 -458.5,1684.41 -1216.7,2160.41"
         style="fill:#00b7e2;fill-opacity:1;fill-rule:nonzero;stroke:none"
         id="path10967" />
      <path
         d="m 19949.9,4121.8 c -531.2,0 -1165.9,124.5 -1654.2,480.7 486.8,-355.1 1115.9,-477.2 1645.2,-477.2 79.8,0 157.3,2.8 231.7,7.9 -3.2,-1.5 -6.5,-3 -9.8,-4.5 -68.6,-4.5 -139.8,-6.9 -212.9,-6.9 m -1654.6,481 c -1.8,1.3 -3.5,2.5 -5.3,3.9 1.8,-1.3 3.5,-2.6 5.3,-3.9"
         style="fill:#ffffff;fill-opacity:1;fill-rule:nonzero;stroke:none"
         id="path10969" />
      <path
         d="m 15944.2,3490.1 c -62.2,8.3 -124.2,17.3 -185.9,27 -40.5,286.8 -11.3,598.9 151.6,874 283.6,479.9 778.4,645.6 1184.1,645.6 41.1,0 81.4,-1.7 120.3,-4.9 377.7,-34.4 738.1,-176.7 1072.8,-423 1,-0.7 1.9,-1.4 2.9,-2.1 1.8,-1.4 3.5,-2.6 5.3,-3.9 0.2,-0.1 0.3,-0.2 0.4,-0.3 488.3,-356.2 1123,-480.7 1654.2,-480.7 73.1,0 144.3,2.4 212.9,6.9 -140.2,-65.2 -282.7,-126.2 -427.5,-183 -515.4,29.4 -1091.9,172.4 -1557,515.4 -307.3,226.7 -640.9,357.2 -979.8,387.8 -34.1,2.9 -70.1,4.5 -107.5,4.5 -329.1,0 -769.1,-125.3 -1023.4,-555.7 -151.3,-256.1 -169.8,-547.5 -123.4,-807.6"
         style="fill:#339abe;fill-opacity:1;fill-rule:nonzero;stroke:none"
         id="path10971" />
      <path
         d="m 16964.7,3420.4 c -345.8,0 -686.2,24.8 -1020.5,69.7 -46.4,260.1 -27.9,551.5 123.4,807.6 254.3,430.4 694.3,555.7 1023.4,555.7 37.4,0 73.4,-1.6 107.5,-4.5 338.9,-30.6 672.5,-161.1 979.8,-387.8 465.1,-343 1041.6,-486 1557,-515.4 -791.3,-310.4 -1648,-493.7 -2546.4,-521.8 -75,-2.4 -149.7,-3.5 -224.2,-3.5"
         style="fill:#33c5e8;fill-opacity:1;fill-rule:nonzero;stroke:none"
         id="path10973" />
      <path
         d="m 20785.8,4452.7 c -10.9,7.2 -15.8,17 -29.9,22.4 -152.7,59.2 -640.2,116 -1111,171.4 -652.6,76.9 -1392.6,163.8 -1816.1,305.1 -1054.7,351.4 -1719.8,1021.22 -1924.6,1936.48 -44.4,199 -66.1,400.44 -66.1,600.93 0,-200.49 21.7,-401.93 66.1,-600.93 204.8,-915.26 869.9,-1585.08 1924.6,-1936.48 423.5,-141.3 1163.5,-228.2 1816.1,-305.1 470.8,-55.4 958.3,-112.2 1111,-171.4 13.8,-5.3 25.9,-11.6 36.6,-18.5 -2.2,-1.3 -4.4,-2.6 -6.7,-3.9"
         style="fill:#ffffff;fill-opacity:1;fill-rule:nonzero;stroke:none"
         id="path10975" />
      <path
         d="m 20792.5,4456.6 c -10.7,6.9 -22.8,13.2 -36.6,18.5 -152.7,59.2 -640.2,116 -1111,171.4 -652.6,76.9 -1392.6,163.8 -1816.1,305.1 -1054.7,351.4 -1719.8,1021.22 -1924.6,1936.48 -44.4,199 -66.1,400.44 -66.1,600.93 0,786.55 333.4,1558.46 934.6,2110.89 604.2,554.9 1870.8,868.2 3169.9,868.2 1244.6,0 2519.1,-287.7 3268.3,-925.97 316.1,-269.27 508,-657.42 527.6,-1064.2 1.1,-22.65 1.6,-45.19 1.6,-67.63 0.2,-336.46 -121.6,-646.83 -346.3,-879.12 -265.3,-273.95 -600.8,-411.85 -984.7,-411.85 -312,0 -656,91.12 -1020.1,274.34 -504.7,253.09 -1188.1,372.38 -1755.4,372.38 -379.8,0 -707.6,-53.49 -894.8,-156.11 l -22,-42.47 v 0 c 186.2,-82.61 587.7,-127.49 942,-167.59 l 185.7,-21.49 c 915.7,-107.89 1868.7,-251.12 2577.2,-695.14 182.4,-114.53 344.2,-246.83 491,-389.79 -37.5,-47 -75.6,-93.53 -114.3,-139.64 -141.1,139.38 -299.9,264.85 -474.2,374.29 -684.2,428.76 -1613.1,563.33 -2501.2,668.36 -423.4,50.13 -932.9,93.06 -1189,209.11 -131.2,59.45 -147.6,274.72 16.4,364.9 217.8,119.8 579,181.08 991,181.08 597.1,0 1300.8,-128.63 1829.9,-394.26 319.8,-160.57 640.1,-253.46 937.5,-253.46 320.3,0 614.2,107.69 853,354.59 462.5,478.36 363.1,1289.78 -169.7,1744.3 -705.9,601.57 -1947,875.17 -3158.8,875.17 -1249.3,0 -2467.6,-290.81 -3036.4,-813.1 C 16190.8,8815.97 15879,7843.9 16083.3,6928.18 16285.8,6022 16956,5435.6 17886.5,5125.5 c 735.1,-245.1 2546.1,-329 2935.1,-479.2 55.7,-21.5 101.1,-53.1 136,-90.5 -54.5,-33.7 -109.6,-66.8 -165.1,-99.2"
         style="fill:#339abe;fill-opacity:1;fill-rule:nonzero;stroke:none"
         id="path10977" />
      <path
         d="m 20957.6,4555.8 c -34.9,37.4 -80.3,69 -136,90.5 -389,150.2 -2200,234.1 -2935.1,479.2 -930.5,310.1 -1600.7,896.5 -1803.2,1802.68 -204.3,915.72 107.5,1887.79 813.6,2536.62 568.8,522.29 1787.1,813.1 3036.4,813.1 1211.8,0 2452.9,-273.6 3158.8,-875.17 532.8,-454.52 632.2,-1265.94 169.7,-1744.3 -238.8,-246.9 -532.7,-354.59 -853,-354.59 -297.4,0 -617.7,92.89 -937.5,253.46 -529.1,265.63 -1232.8,394.26 -1829.9,394.26 -412,0 -773.2,-61.28 -991,-181.08 -164,-90.18 -147.6,-305.45 -16.4,-364.9 256.1,-116.05 765.6,-158.98 1189,-209.11 888.1,-105.03 1817,-239.6 2501.2,-668.36 174.3,-109.44 333.1,-234.91 474.2,-374.29 C 22274.9,5529.2 21655.1,4987.2 20957.6,4555.8 m -4245.3,2443.07 c -21,0 -42,-2.44 -62.9,-7.49 -178,-43.1 -278.2,-259.99 -223.9,-484.44 47.9,-198.1 200.3,-335.89 357.8,-335.89 20.9,0 42,2.44 62.9,7.49 177.9,43.07 278.2,259.97 223.9,484.41 -48,198.14 -200.3,335.92 -357.8,335.92 m 852.4,2560.73 c -211.8,0 -575.6,-362.58 -866.1,-880.63 -327.4,-583.68 -437.8,-1143.71 -246.8,-1250.9 21.5,-12.05 45.8,-17.85 72.7,-17.85 211.7,0 575.5,362.59 866.1,880.63 327.3,583.68 437.8,1143.74 246.7,1250.9 -21.5,12.05 -45.8,17.85 -72.6,17.85"
         style="fill:#33c5e8;fill-opacity:1;fill-rule:nonzero;stroke:none"
         id="path10979" />
      <path
         d="m 16524.5,7410.22 c -26.9,0 -51.2,5.8 -72.7,17.85 -191,107.19 -80.6,667.22 246.8,1250.9 290.5,518.05 654.3,880.63 866.1,880.63 26.8,0 51.1,-5.8 72.6,-17.85 191.1,-107.16 80.6,-667.22 -246.7,-1250.9 -290.6,-518.04 -654.4,-880.63 -866.1,-880.63"
         style="fill:#68d4ee;fill-opacity:1;fill-rule:nonzero;stroke:none"
         id="path10981" />
      <path
         d="m 16783.3,6171.05 c -157.5,0 -309.9,137.79 -357.8,335.89 -54.3,224.45 45.9,441.34 223.9,484.44 20.9,5.05 41.9,7.49 62.9,7.49 157.5,0 309.8,-137.78 357.8,-335.92 54.3,-224.44 -46,-441.34 -223.9,-484.41 -20.9,-5.05 -42,-7.49 -62.9,-7.49"
         style="fill:#68d4ee;fill-opacity:1;fill-rule:nonzero;stroke:none"
         id="path10983" />
    </g>
  </g>
</svg>
