<?xml version="1.0" encoding="UTF-8" standalone="no"?>
<!-- Created with Inkscape (http://www.inkscape.org/) -->

<svg
   version="1.1"
   id="svg14001"
   width="3313.3333"
   height="2146.5867"
   viewBox="0 0 3313.3333 2146.5867"
   xmlns="http://www.w3.org/2000/svg"
   xmlns:svg="http://www.w3.org/2000/svg">
  <defs
     id="defs14005" />
  <g
     id="g14009"
     transform="matrix(1.3333333,0,0,-1.3333333,0,2146.5867)">
    <g
       id="g14011"
       transform="scale(0.1)">
      <path
         d="M 0,0 H 24850 V 16099.4 H 0 Z"
         style="fill:#ffffff;fill-opacity:1;fill-rule:nonzero;stroke:none"
         id="path14013" />
      <path
         d="m 8737.34,8102.67 c -43.31,5.91 -22.3,543.04 21.36,543.65 1110.87,15.64 1588.1,65.55 1768.8,52.99 221.5,-156.64 294.3,-662.95 -55.8,-742.86 -143.4,-32.69 -554.29,-14.37 -1734.36,146.22"
         style="fill:#fcc1a0;fill-opacity:1;fill-rule:nonzero;stroke:none"
         id="path14015" />
      <path
         d="m 10254.7,8756.72 c 17.4,-142.03 107.5,-807.41 201.4,-1164.82 210.9,34.04 950.5,188.35 1084.3,229.43 16.7,549.13 -11.9,1325.14 -20.8,1363.83 -89.7,-16.64 -881.2,-306.3 -1264.9,-428.44"
         style="fill:#12b6b5;fill-opacity:1;fill-rule:nonzero;stroke:none"
         id="path14017" />
      <path
         d="m 16474.4,7195.17 c 43,-7.72 188.4,509.79 147.1,523.81 -1052.2,356.85 -1490.8,551.24 -1666.7,594.93 -258.9,-80.85 -484,-540.15 -175.5,-723.95 126.3,-75.24 522.9,-184.32 1695.1,-394.79"
         style="fill:#fcc1a0;fill-opacity:1;fill-rule:nonzero;stroke:none"
         id="path14019" />
      <path
         d="m 10881.6,11404.9 c 62.6,787.6 -528.2,1480.2 -1317.76,1543.3 -799.45,59.3 -1478.8,-517.9 -1541.9,-1316.4 -18.83,-233.5 -29.18,-873.8 -42.36,-1692.55 -21.67,-1318.75 -79.1,-4821.55 -225.98,-5142.15 -249.54,-401.6 -1064.5,-636.5 -1975.99,-564 -806.5,64.5 -1200.54,367.7 -1226.91,396.9 -224.58,534.3 -285.3,4622.33 -39.56,6801.2 42.39,381.4 -65.89,755.7 -304.6,1054.6 -238.7,299.9 -579.55,488.3 -959.52,530.6 -380.86,44.3 -755.15,-63.1 -1055.53,-303.2 -299.43,-238.2 -488.22,-579.5 -531.54,-960.4 -7.06,-65 -545.2,-6830.9 347.93,-8444.4 598.39,-1081.9 1922.76,-1805.1 3542.35,-1935 169.47,-13.2 338.03,-19.3 505.63,-19.3 1541.9,0 2994.32,626.2 3985.34,1718.4 784.4,864 841.8,4109.22 833.3,7359.2 -1.4,437.4 -2.3,850.7 7.1,973.2"
         style="fill:#f28a20;fill-opacity:1;fill-rule:nonzero;stroke:none"
         id="path14021" />
      <path
         d="m 10701.3,11419 c 54.6,688.8 -461.4,1293.8 -1151.12,1348.8 -692.09,52.3 -1292.82,-451.9 -1347.92,-1150.6 -18.36,-228.4 -28.71,-869.1 -41.9,-1680.8 -25.91,-1577.64 -80.03,-4860.6 -253.28,-5234.4 -289.09,-466.1 -1151.6,-724.6 -2144.07,-649.2 -856.85,68.7 -1315.41,396.8 -1378.98,507 -256.58,611.1 -288.61,4797.99 -52.74,6891.7 37.2,332.8 -56.95,660 -266.01,921.8 -208.55,261.8 -507.04,426.5 -838.96,463.7 -335.21,39.1 -660.54,-56 -922.31,-265 -261.76,-208.6 -426.54,-506.6 -464.22,-839.5 -70.15,-627.1 -481.63,-6877 326.27,-8336.5 569.21,-1029.2 1839.45,-1717.5 3398.28,-1842.3 164.78,-12.7 328.63,-18.8 491.52,-18.8 1490.57,0 2894.52,604.5 3851.68,1659.1 741.06,816.4 794.26,4163.82 786.26,7237.2 -1.4,480.7 -2.4,860.2 7.5,987.8"
         style="fill:#ffce00;fill-opacity:1;fill-rule:nonzero;stroke:none"
         id="path14023" />
      <path
         d="m 6104.22,4220 c -106.91,0 -216.01,4.3 -326.61,13.1 107.36,-8.6 213.17,-12.7 316.81,-12.7 250.32,0 487.89,24 703.53,67.3 -2.06,-1.3 -4.12,-2.5 -6.18,-3.7 -210.71,-41.7 -443.27,-64 -687.55,-64"
         style="fill:#ffffff;fill-opacity:1;fill-rule:nonzero;stroke:none"
         id="path14025" />
      <path
         d="m 2361.75,3091.8 c -71.84,2.5 -143.57,5.5 -215.44,7.9 -46.63,69.3 -98.25,136.1 -138.43,208.7 v 0 c -403.82,729.5 -515.05,2512.4 -515.05,4252.98 -0.01,2108.97 163.25,4155.82 167.12,4191.42 43.32,380.9 232.11,722.2 531.54,960.4 256.14,204.8 566.01,313 887.88,313 55.6,0 111.56,-3.2 167.65,-9.8 379.97,-42.3 720.82,-230.7 959.52,-530.6 204.67,-256.3 313.46,-568 313.6,-892.1 0.03,-53.9 -2.95,-108.1 -9,-162.5 -110.03,-975.6 -158.62,-2333.93 -158.57,-3584.66 0.06,-1542.6 74.11,-2921.44 198.13,-3216.54 26.37,-29.2 420.41,-332.4 1226.91,-396.9 v 0 c 110.6,-8.8 219.7,-13.1 326.61,-13.1 244.28,0 476.84,22.3 687.55,64 -138.1,-82.3 -278.75,-160.9 -421.77,-235.5 -87.89,-5.8 -177.83,-8.7 -269.43,-8.7 -110.35,0 -223.07,4.3 -337.56,13 -856.85,68.7 -1315.41,396.8 -1378.98,507 -256.58,611.1 -288.61,4797.99 -52.74,6891.7 37.2,332.8 -56.95,660 -266.01,921.8 -208.55,261.8 -507.04,426.5 -838.96,463.7 -49.37,5.8 -98.54,8.6 -147.31,8.6 -282.36,0 -551.78,-95.4 -775,-273.6 -261.76,-208.6 -426.54,-506.6 -464.22,-839.5 -70.15,-627.1 -481.63,-6877 326.27,-8336.5 58.08,-105.1 123.44,-206.5 195.69,-304.2"
         style="fill:#f5a14d;fill-opacity:1;fill-rule:nonzero;stroke:none"
         id="path14027" />
      <path
         d="m 2585.96,3087.3 c -75.06,0 -149.71,2 -224.21,4.5 -72.25,97.7 -137.61,199.1 -195.69,304.2 -807.9,1459.5 -396.42,7709.4 -326.27,8336.5 37.68,332.9 202.46,630.9 464.22,839.5 223.22,178.2 492.64,273.6 775,273.6 48.77,0 97.94,-2.8 147.31,-8.6 331.92,-37.2 630.41,-201.9 838.96,-463.7 209.06,-261.8 303.21,-589 266.01,-921.8 -235.87,-2093.71 -203.84,-6280.6 52.74,-6891.7 63.57,-110.2 522.13,-438.3 1378.98,-507 114.49,-8.7 227.21,-13 337.56,-13 91.6,0 181.54,2.9 269.43,8.7 -1100.61,-574.4 -2343.07,-917.9 -3667.11,-959.4 -39.12,-1.3 -78.08,-1.8 -116.93,-1.8 m -427.04,4440.12 c -174.97,0 -323.08,-174.47 -333.65,-396.63 -10.82,-227.45 126.62,-418.83 307.01,-427.41 4.21,-0.2 8.39,-0.3 12.57,-0.3 174.95,0 323.07,174.47 333.66,396.64 10.8,227.49 -126.63,418.83 -307.02,427.4 -4.21,0.2 -8.39,0.3 -12.57,0.3 M 2314.25,10653 c -213.56,0 -411.79,-548.6 -444.39,-1233.68 -32.9,-691.52 115.33,-1260.44 331.16,-1270.72 1.97,-0.09 3.94,-0.14 5.91,-0.14 213.55,0 411.81,548.47 444.41,1233.66 32.92,691.48 -115.36,1260.38 -331.15,1270.68 -1.99,0.1 -3.95,0.2 -5.94,0.2"
         style="fill:#ffd833;fill-opacity:1;fill-rule:nonzero;stroke:none"
         id="path14029" />
      <path
         d="m 2206.93,8148.46 c -1.97,0 -3.94,0.05 -5.91,0.14 -215.83,10.28 -364.06,579.2 -331.16,1270.72 32.6,685.08 230.83,1233.68 444.39,1233.68 1.99,0 3.95,-0.1 5.94,-0.2 215.79,-10.3 364.07,-579.2 331.15,-1270.68 -32.6,-685.19 -230.86,-1233.66 -444.41,-1233.66"
         style="fill:#ffea8f;fill-opacity:1;fill-rule:nonzero;stroke:none"
         id="path14031" />
      <path
         d="m 2144.85,6703.08 c -4.18,0 -8.36,0.1 -12.57,0.3 -180.39,8.58 -317.83,199.96 -307.01,427.41 10.57,222.16 158.68,396.63 333.65,396.63 4.18,0 8.36,-0.1 12.57,-0.3 180.39,-8.57 317.82,-199.91 307.02,-427.4 -10.59,-222.17 -158.71,-396.64 -333.66,-396.64"
         style="fill:#ffea8f;fill-opacity:1;fill-rule:nonzero;stroke:none"
         id="path14033" />
      <path
         d="m 7794.91,4991.6 c 115.13,804.6 164.02,3691.72 183.96,4904.81 C 7959,8687.54 7910.61,5809.3 7796.37,4992.8 c -0.51,-0.4 -0.96,-0.7 -1.46,-1.2 m 183.99,4906.52 c 0.02,1.13 0.04,2.36 0.06,3.48 -0.02,-1.16 -0.04,-2.31 -0.06,-3.48 m 0.11,6.62 c 0.03,1.57 0.05,2.99 0.08,4.55 -0.03,-1.48 -0.05,-3.06 -0.08,-4.55 m 0.18,10.97 c 0,0.22 0.01,0.54 0.01,0.76 0,-0.33 0,-0.43 -0.01,-0.76 m 0.12,7.08 c 0,0.37 0.01,0.85 0.02,1.22 -0.01,-0.41 -0.02,-0.81 -0.02,-1.22 m 0.07,4.09 c 0,0.22 0,0.38 0,0.6 0,-0.16 0,-0.44 0,-0.6 m 0.16,9.91 c 0.01,0.8 0.03,1.67 0.04,2.46 -0.02,-0.8 -0.03,-1.65 -0.04,-2.46 m 2894.96,522.71 c -1.4,426.6 -2.1,824.8 7.1,945 -9.2,-120.1 -8.5,-518.5 -7.1,-944.8 0,-0.1 0,-0.1 0,-0.2"
         style="fill:#ffffff;fill-opacity:1;fill-rule:nonzero;stroke:none"
         id="path14035" />
      <path
         d="m 7796.37,4992.8 c 114.24,816.5 162.63,3694.74 182.5,4903.61 0.01,0.6 0.02,1.11 0.03,1.71 0.02,1.17 0.04,2.32 0.06,3.48 0.02,1.04 0.03,2.1 0.05,3.14 0.03,1.49 0.05,3.07 0.08,4.55 0.03,2.15 0.07,4.28 0.1,6.42 0.01,0.33 0.01,0.43 0.01,0.76 0.04,2.14 0.07,4.19 0.11,6.32 0,0.41 0.01,0.81 0.02,1.22 0.01,0.95 0.03,1.92 0.05,2.87 0,0.16 0,0.44 0,0.6 0.06,3.15 0.11,6.19 0.16,9.31 0.01,0.81 0.02,1.66 0.04,2.46 v 0 c 13.18,818.75 23.53,1459.05 42.36,1692.55 60.12,760.7 679.51,1320.6 1429.26,1320.6 37.23,0 74.82,-1.4 112.64,-4.2 750.96,-60.1 1322.26,-689.6 1322.36,-1428.7 0,-37.9 -1.5,-76.2 -4.6,-114.6 v 0 c 0,-0.1 0,-0.3 0,-0.4 -9.2,-120.2 -8.5,-518.4 -7.1,-945 -43.1,-317.9 -103.6,-630.32 -180.7,-936.28 0.9,303.5 0.8,607.08 0,907.98 -1.4,480.7 -2.4,860.2 7.5,987.8 54.6,688.8 -461.4,1293.8 -1151.12,1348.8 -32.99,2.5 -65.83,3.8 -98.36,3.8 -649.81,0 -1197.09,-489 -1249.56,-1154.4 -18.36,-228.4 -28.71,-869.1 -41.9,-1680.8 -21.28,-1296.09 -61.61,-3743.16 -171.39,-4782.6 -63.32,-54.5 -127.66,-108.3 -192.6,-161"
         style="fill:#f7b36e;fill-opacity:1;fill-rule:nonzero;stroke:none"
         id="path14037" />
      <path
         d="m 7988.97,5153.8 c 109.78,1039.44 150.11,3486.51 171.39,4782.6 13.19,811.7 23.54,1452.4 41.9,1680.8 52.47,665.4 599.75,1154.4 1249.56,1154.4 32.53,0 65.37,-1.3 98.36,-3.8 689.72,-55 1205.72,-660 1151.12,-1348.8 -9.9,-127.6 -8.9,-507.1 -7.5,-987.8 0.8,-300.9 0.9,-604.48 0,-907.98 C 10259.6,7800.64 9300.52,6283.2 7988.97,5153.8"
         style="fill:#ffdf59;fill-opacity:1;fill-rule:nonzero;stroke:none"
         id="path14039" />
      <path
         d="m 23400,3453.4 c -77.2,1988.2 -137.9,3558.83 -137.9,5373.33 0,790.95 -643.2,1434.07 -1434.1,1434.07 -791,0 -1434.1,-643.12 -1434.1,-1434.07 0,-1045.66 18.8,-2062.13 62.2,-3387.03 C 19881.7,4742 19135,4259.4 18626.5,4259.4 c -130.9,2.4 -188.8,35.8 -270.2,155.9 -311.7,456.2 -131.8,2270.19 -44.8,3148.73 43.4,435.02 82.9,841.32 100.8,1189.72 40.5,789.53 -569.7,1465.15 -1361.6,1506.15 -805.1,37.2 -1463.3,-573.03 -1503.3,-1360.66 -14.6,-292.85 -48.4,-632.29 -85.2,-1002.35 l -4.7,-48.51 c -174.6,-1749.08 -372.4,-3731.58 530.6,-5052.18 605,-885.1 1521.7,-1383.7 2581.9,-1404.4 l 67.8,-1 c 714.2,0 1475.5,225.5 2211.8,654.4 268.9,-350.7 689.3,-562.6 1137.1,-562.6 l 53.6,0.5 c 383.2,15.1 737.3,178.4 997.2,459 260.3,281.1 395.9,646.9 380.9,1029.2 l -18.4,482.1"
         style="fill:#f28a20;fill-opacity:1;fill-rule:nonzero;stroke:none"
         id="path14041" />
      <path
         d="m 23219.2,3446.3 c -77.2,1993.9 -137.9,3569.23 -137.9,5380.43 0,691.13 -562.2,1253.27 -1253.3,1253.27 -691.1,0 -1253.3,-562.14 -1253.3,-1253.27 0,-1056.49 19.3,-2093.21 64.5,-3448.63 -615.3,-769.3 -1427.5,-1305.3 -2016,-1299.4 -188.8,1.8 -302.2,66.8 -416.2,234.4 -349.8,511.8 -170.9,2305.54 -75.3,3268.82 42.8,431.72 82.4,835.19 100.3,1181.23 35.3,689.74 -497.7,1280.15 -1189.7,1315.95 -703.4,33.4 -1279.2,-502.38 -1314,-1188.81 -15.1,-297.08 -49.5,-641.71 -86.2,-1010.84 l -4.7,-48.96 C 15466,6112.05 15272,4163.9 16137.4,2898.3 c 571.1,-835.6 1436.4,-1306.5 2435.4,-1325.8 l 65,-0.9 c 733.1,0 1510.4,246.7 2266,717.1 218.9,-377.6 627.1,-625.3 1081,-625.3 l 48.5,0.5 c 334.7,13.2 644,155.4 871.4,401.1 227.9,245.8 346,565 332.9,899.3 l -18.4,482"
         style="fill:#ffce00;fill-opacity:1;fill-rule:nonzero;stroke:none"
         id="path14043" />
      <path
         d="m 21833.1,10260.8 c -0.1,0 -0.1,0 -0.2,0 0.1,0 0.1,0 0.2,0 m -2.2,0 c -0.2,0 -0.3,0 -0.5,0 0.2,0 0.3,0 0.5,0"
         style="fill:#ffffff;fill-opacity:1;fill-rule:nonzero;stroke:none"
         id="path14045" />
      <path
         d="m 16243.9,2467.5 c -90.2,103 -176,212 -255.8,328.7 v 0 c -527.8,771.8 -679.5,1769.8 -679.6,2815.1 -0.1,743.21 76.4,1510.31 149,2237.08 l 4.7,48.51 c 36.8,370.06 70.6,709.5 85.2,1002.35 38.9,764.8 660.5,1362.26 1433.6,1362.26 23.1,0 46.4,-0.6 69.7,-1.6 767.2,-39.7 1363.8,-675.01 1363.5,-1432.48 0,-24.43 -0.6,-48.99 -1.9,-73.67 -17.9,-348.4 -57.4,-754.7 -100.8,-1189.72 -50.1,-506.19 -131.1,-1322.93 -131.1,-2011.53 0,-506.6 43.8,-943.9 175.9,-1137.2 81.4,-120.1 139.3,-153.5 270.2,-155.9 508.5,0 1255.2,482.6 1829.6,1180.3 v 0 0 c -43.4,1324.9 -62.2,2341.37 -62.2,3387.03 0,790.95 643.1,1434.07 1434.1,1434.07 0.8,0 1.6,0 2.4,0 0.2,0 0.3,0 0.5,0 0.7,0 1.3,0 2,0 0.1,0 0.1,0 0.2,0 423.2,-1.5 799.6,-190.8 1061.4,-484.44 -9.7,-81.03 -20.5,-161.79 -32.5,-242.13 -226,329.38 -605.2,545.77 -1034,545.77 -691.1,0 -1253.3,-562.14 -1253.3,-1253.27 0,-1056.49 19.3,-2093.21 64.5,-3448.63 -612,-765.1 -1418.7,-1299.4 -2006.4,-1299.5 -3.2,0 -6.4,0 -9.6,0.1 -188.8,1.8 -302.2,66.8 -416.2,234.4 -349.8,511.8 -170.9,2305.54 -75.3,3268.82 42.8,431.72 82.4,835.19 100.3,1181.23 35.3,689.74 -497.7,1280.15 -1189.7,1315.95 -20.9,1 -41.7,1.4 -62.4,1.4 -674.8,0 -1217.9,-524.14 -1251.6,-1190.21 -15.1,-297.08 -49.5,-641.71 -86.2,-1010.84 l -4.7,-48.96 C 15466,6112.05 15272,4163.9 16137.4,2898.3 c 94.6,-138.5 197.3,-266.9 307.4,-384.9 -66.7,-16.1 -133.6,-31.4 -200.9,-45.9"
         style="fill:#f7b36e;fill-opacity:1;fill-rule:nonzero;stroke:none"
         id="path14047" />
      <path
         d="m 16444.8,2513.4 c -110.1,118 -212.8,246.4 -307.4,384.9 -865.4,1265.6 -671.4,3213.75 -500,4932.19 l 4.7,48.96 c 36.7,369.13 71.1,713.76 86.2,1010.84 33.7,666.07 576.8,1190.21 1251.6,1190.21 20.7,0 41.5,-0.4 62.4,-1.4 692,-35.8 1225,-626.21 1189.7,-1315.95 -17.9,-346.04 -57.5,-749.51 -100.3,-1181.23 -95.6,-963.28 -274.5,-2757.02 75.3,-3268.82 114,-167.6 227.4,-232.6 416.2,-234.4 3.2,-0.1 6.4,-0.1 9.6,-0.1 587.7,0.1 1394.4,534.4 2006.4,1299.5 -45.2,1355.42 -64.5,2392.14 -64.5,3448.63 0,691.13 562.2,1253.27 1253.3,1253.27 428.8,0 808,-216.39 1034,-545.77 C 22352.9,6105.83 19800.5,3322.7 16444.8,2513.4 m -295.3,3128.8 c -175.7,0 -323.6,-175.8 -332.8,-398.8 -9.4,-227.5 129.3,-418 309.7,-425.5 3.6,-0.1 7.3,-0.2 10.9,-0.2 175.7,0 323.6,175.8 332.8,398.8 9.4,227.5 -129.3,418 -309.7,425.5 -3.7,0.1 -7.3,0.2 -10.9,0.2 m 134.6,3126.41 c -213.9,0 -409.1,-550.25 -437.3,-1236.42 -28.6,-691.75 123.3,-1259.7 339.1,-1268.6 1.8,-0.07 3.5,-0.11 5.2,-0.11 213.9,0 409.1,550.24 437.4,1236.46 28.5,691.71 -123.4,1259.67 -339.3,1268.56 -1.7,0.08 -3.4,0.11 -5.1,0.11"
         style="fill:#ffdf59;fill-opacity:1;fill-rule:nonzero;stroke:none"
         id="path14049" />
      <path
         d="m 16191.1,6263.48 c -1.7,0 -3.4,0.04 -5.2,0.11 -215.8,8.9 -367.7,576.85 -339.1,1268.6 28.2,686.17 223.4,1236.42 437.3,1236.42 1.7,0 3.4,-0.03 5.1,-0.11 215.9,-8.89 367.8,-576.85 339.3,-1268.56 -28.3,-686.22 -223.5,-1236.46 -437.4,-1236.46"
         style="fill:#ffeda4;fill-opacity:1;fill-rule:nonzero;stroke:none"
         id="path14051" />
      <path
         d="m 16137.3,4817.7 c -3.6,0 -7.3,0.1 -10.9,0.2 -180.4,7.5 -319.1,198 -309.7,425.5 9.2,223 157.1,398.8 332.8,398.8 3.6,0 7.2,-0.1 10.9,-0.2 180.4,-7.5 319.1,-198 309.7,-425.5 -9.2,-223 -157.1,-398.8 -332.8,-398.8"
         style="fill:#ffeda4;fill-opacity:1;fill-rule:nonzero;stroke:none"
         id="path14053" />
      <path
         d="m 12083.7,9124.7 h 1269.6 v 484.242 h -1269.6 z"
         style="fill:#08928e;fill-opacity:1;fill-rule:nonzero;stroke:none"
         id="path14055" />
      <path
         d="m 15326.2,8206.67 c -120.4,-221.09 -482.9,-740.17 -580.8,-891.18 -196.3,106.5 -628.7,380.82 -738.8,441.12 -16.6,549.13 -9.8,1409.69 -0.9,1448.39 89.7,-16.64 849.8,-630.96 1320.5,-998.33"
         style="fill:#12b6b5;fill-opacity:1;fill-rule:nonzero;stroke:none"
         id="path14057" />
      <path
         d="m 13009.9,1279.6 c -1629.2,0 -2950,83.1 -2950,185.6 0,102.5 1320.8,185.6 2950,185.6 1629.3,0 2950,-83.1 2950,-185.6 0,-102.5 -1320.7,-185.6 -2950,-185.6"
         style="fill:#e3e3e3;fill-opacity:1;fill-rule:nonzero;stroke:none"
         id="path14059" />
      <path
         d="m 15442.1,3628.1 c -58.8,-152.7 -226,-667.4 -368.1,-752.5 -567,281.5 -1536.5,804.1 -1668.7,1001.4 -130.3,194.4 -222.6,540.3 -477.3,1184.7 -53.6,135.6 -120.8,196.1 -245.7,34.1 -181.8,-235.9 -263.1,-2140.1 -440.9,-3127.5 -300.9,-48.9 -556.6,142.9 -761.6,156.8 74.5,1002.4 97.6,3504.9 122.7,3916.2 503.8,112.17 1648.4,61.59 2203.6,56.6 161.4,-334.9 331.4,-1546.1 561,-1858.5 68.3,-92.8 342.1,-213.2 1075,-611.3"
         style="fill:#fac09f;fill-opacity:1;fill-rule:nonzero;stroke:none"
         id="path14061" />
      <path
         d="m 12345,1902.5 c -1.6,-15.9 -996.2,-7.4 -998.5,11.9 -19.6,167.9 0.6,524.7 0.1,654.3 l 1042.5,-29.3 c -17.9,-181.7 -32.5,-521.7 -44.1,-636.9"
         style="fill:#96d5d5;fill-opacity:1;fill-rule:nonzero;stroke:none"
         id="path14063" />
      <path
         d="m 11216.9,2161.6 c 13.7,50.5 42.1,114.4 64.1,172.8 16.3,43.3 440,37.3 441.4,-66.8 0.4,-26.7 -0.7,-50.2 -2.8,-71.5 72.5,-0.6 151.1,0.4 234.2,3.6 180.4,6.9 342.3,22 455.7,40.2 7.7,-164.5 -6.1,-449.6 1,-632.6 0,0 -1889.7,-357.7 -2188.2,-84.1 -84.1,77.1 389.8,421.3 994.6,638.4"
         style="fill:#2d8f91;fill-opacity:1;fill-rule:nonzero;stroke:none"
         id="path14065" />
      <path
         d="m 12408.6,1722 c 0.1,-40.7 0.5,-79.9 1.9,-114.7 0,0 -1889.7,-357.7 -2188.2,-84.1 -11.8,10.8 -12.4,27.1 -3.3,47.5 521.8,-112.2 1719.7,71.3 2189.6,151.3"
         style="fill:#19555b;fill-opacity:1;fill-rule:nonzero;stroke:none"
         id="path14067" />
      <path
         d="m 10758.4,1989 c 2.5,-14.4 15.7,-24.3 30.6,-21.6 87.9,16.6 203.9,-26.3 281,-101.3 5.5,-5.3 12.5,-7.7 19.5,-7.5 6.6,0.3 13,3 18,8 10.2,10.5 9.9,27.2 -0.5,37.4 -88.6,86.1 -222.9,133.9 -327.1,115.5 -14.4,-2.4 -24,-16.1 -21.5,-30.5 z m 450.5,-49.6 c 5.4,-5.7 12.9,-8.5 20.2,-8.2 6.2,0.2 12.3,2.6 17.2,7.2 10.6,10.1 11,26.8 1,37.4 -83.9,88.4 -198.3,131.6 -314,117.7 -14.5,-1.7 -24.9,-14.8 -23.2,-29.4 1.7,-14.5 15,-25.8 29.4,-23.1 58.2,6.8 170.4,2.6 269.4,-101.6 z m 133.5,64.8 c 5.4,-7.1 13.8,-10.7 22.1,-10.4 5.2,0.2 10.5,1.9 14.9,5.3 11.7,8.8 14,25.4 5.2,37.1 -73.6,97.1 -201.7,147.7 -311.4,123.6 -14.3,-3.1 -23.3,-17.3 -20.1,-31.5 3.2,-14.3 17.2,-23 31.6,-20.1 90.2,20.4 196.1,-22.7 257.7,-104"
         style="fill:#d2dae5;fill-opacity:1;fill-rule:nonzero;stroke:none"
         id="path14069" />
      <path
         d="m 15726.4,3565.5 c 14,-6.7 -295.9,-918.5 -314.1,-913.3 -163.7,46.3 -546.9,201.4 -655.7,242.2 l 365.4,931.4 c 160.2,-77 503,-211.3 604.4,-260.3"
         style="fill:#96d5d5;fill-opacity:1;fill-rule:nonzero;stroke:none"
         id="path14071" />
      <path
         d="m 15099.2,2592.7 c -42.8,30 -93.2,78.4 -140.7,118.9 -35.2,30.1 114.4,426.6 212.8,392.5 25.2,-8.7 47,-17.7 66.3,-26.9 25.2,68 50.9,142.2 76.1,221.4 54.8,172.2 95.7,329.4 117,442.4 157.5,-48.7 420.9,-158.5 595.4,-214.1 0,0 -305.6,-1898.8 -664.3,-2086.6 -101.1,-52.9 -263.9,509.8 -262.6,1152.4"
         style="fill:#2d8f91;fill-opacity:1;fill-rule:nonzero;stroke:none"
         id="path14073" />
      <path
         d="m 15917.5,3564.1 c 38.3,-13.7 75.4,-26.6 108.6,-37.2 0,0 -305.6,-1898.8 -664.3,-2086.6 -14.3,-7.4 -29.8,-2.5 -45.8,13.1 282.7,452.7 517.2,1641.6 601.5,2110.7"
         style="fill:#19555b;fill-opacity:1;fill-rule:nonzero;stroke:none"
         id="path14075" />
      <path
         d="m 15105.8,2102.7 c 14.4,-2.5 28.2,6.7 30.6,21.5 14.3,88.4 94.1,182.9 190.8,229.9 6.9,3.3 11.6,9.2 13.7,15.8 2,6.3 1.7,13.3 -1.4,19.6 -6.4,13.2 -22.2,18.6 -35.4,12.3 -111.1,-54.1 -201.6,-164.1 -219.8,-268.4 -2.5,-14.4 7.1,-28.1 21.5,-30.7 z m 199.7,406.9 c 7.2,3.2 12.4,9.2 14.6,16.2 1.9,6 1.7,12.6 -1,18.7 -5.8,13.4 -21.5,19.5 -34.9,13.6 -111.5,-48.9 -191,-141.8 -217.3,-255.3 -3.3,-14.2 5.5,-28.4 19.7,-31.8 14.3,-3.3 29.5,5.3 31.8,19.7 13.3,57.2 55.4,161.3 187.1,218.9 z m -15.7,147.6 c 8.6,2.7 14.9,9.3 17.4,17.3 1.6,5 1.7,10.5 0.1,15.8 -4.4,14 -19.2,21.8 -33.1,17.4 -116.5,-36.2 -207.5,-139.4 -222.2,-250.8 -1.8,-14.5 8.4,-27.8 22.9,-29.6 14.5,-1.9 27.5,8.3 29.7,22.9 11.3,91.8 87.9,176.7 185.2,207"
         style="fill:#d2dae5;fill-opacity:1;fill-rule:nonzero;stroke:none"
         id="path14077" />
      <path
         d="m 14539.4,4374.9 c -461,-160.6 -776.5,-230.3 -1302.1,-283.9 -49.2,137.9 -275,893.7 -309.3,970.7 -34,76.2 -211,91.3 -222.6,-6 -39.4,-332.8 -111.6,-867.2 -117.9,-928.3 -534.7,-49.7 -1145.6,37.7 -1340,108.4 0,0 82.2,1877.76 95.1,2063.47 476.1,-36.07 2095.5,-24.39 2856.4,66.8 58.7,-312.47 278.4,-1607.67 340.4,-1991.17"
         style="fill:#803126;fill-opacity:1;fill-rule:nonzero;stroke:none"
         id="path14079" />
      <path
         d="m 14291.9,5840.5 c -11.1,64.2 -21.7,125.4 -31.7,182.5 1.4,0.4 2.6,0.7 3.9,1 10.1,-58.3 20.7,-119.5 31.6,-182.7 -1.3,-0.3 -2.5,-0.5 -3.8,-0.8 m -2969.7,56.3 c -1.8,0.5 -3.6,1.1 -5.4,1.6 0.9,19.3 1.8,38.2 2.7,56.8 1.8,-0.6 3.6,-1.2 5.4,-1.8 -0.9,-18.4 -1.8,-37.3 -2.7,-56.6"
         style="fill:#cfcfcf;fill-opacity:1;fill-rule:nonzero;stroke:none"
         id="path14081" />
      <path
         d="m 12870,5702.9 c -544,-0.1 -1101.3,57 -1547.8,193.9 0.9,19.3 1.8,38.2 2.7,56.6 339,-110.2 743.3,-153.4 1156.3,-153.4 643.2,0 1307.5,104.6 1779,223 10,-57.1 20.6,-118.3 31.7,-182.5 -388.2,-85 -899,-137.6 -1421.9,-137.6"
         style="fill:#68281f;fill-opacity:1;fill-rule:nonzero;stroke:none"
         id="path14083" />
      <path
         d="m 14369.2,6051.6 c -772.1,-210.9 -2191.2,-401.4 -3098.7,-79.7 30.7,118.1 83.1,1479.77 219.9,3212.32 705.5,131.4 1753,83.35 2515.3,20.78 134.1,-521.56 262.7,-2520.26 363.5,-3153.4"
         style="fill:#ee3824;fill-opacity:1;fill-rule:nonzero;stroke:none"
         id="path14085" />
      <path
         d="m 12588,7949.26 -15.1,-6.36 -13.5,5.86 c -42,17.84 -513.2,789.1 -726.2,1282.13 22.8,2.33 46.5,3.95 69.6,6.03 191.7,-435.72 580.1,-1074.98 673.5,-1209.25 112.4,126.05 634.6,799.86 908.2,1213.26 24.6,-1.4 48.6,-2.93 72.9,-4.39 -294,-451.58 -904.6,-1257.83 -969.4,-1287.28"
         style="fill:#971b1f;fill-opacity:1;fill-rule:nonzero;stroke:none"
         id="path14087" />
      <path
         d="m 12089.1,9252.54 c 380.9,36.06 816.4,2.53 1218,-19.72 2.3,-9.27 -647.6,-964.51 -717.4,-964.51 -45.1,0 -489.6,740.93 -500.6,984.23"
         style="fill:#12b6b5;fill-opacity:1;fill-rule:nonzero;stroke:none"
         id="path14089" />
      <path
         d="m 12189.6,10061.2 -11.6,-871.3 c -2.5,-187.36 264.3,-330.33 407,-386.22 241.8,34.45 654.2,184.63 656.7,372 l 11.6,871.32 -1063.7,14.2"
         style="fill:#fac09f;fill-opacity:1;fill-rule:nonzero;stroke:none"
         id="path14091" />
      <path
         d="m 12319.4,9195.79 c -47.5,0 -93.9,3.21 -139.4,8.3 l 7.2,627.47 c 87.1,1.44 175.3,2.22 263,2.22 235.7,0 468.3,-5.6 667.5,-18.95 3.8,-16.46 11.9,-31.82 13,-48.9 18.4,-295.08 -324.9,-549.92 -767,-569.18 -14.8,-0.65 -29.6,-0.96 -44.3,-0.96"
         style="fill:#d49d83;fill-opacity:1;fill-rule:nonzero;stroke:none"
         id="path14093" />
      <path
         d="m 13433.8,9244.31 c -26.7,1.45 -53.5,2.85 -80.5,4.2 v 213.96 l 81.9,-199.49 -1.4,-18.67"
         style="fill:#d4bfba;fill-opacity:1;fill-rule:nonzero;stroke:none"
         id="path14095" />
      <path
         d="m 13353.3,9248.51 c -33.4,1.67 -67,3.25 -100.7,4.74 42,66.28 74.7,140.1 95.4,222.18 l 5.3,-12.96 v -213.96"
         style="fill:#25716a;fill-opacity:1;fill-rule:nonzero;stroke:none"
         id="path14097" />
      <path
         d="m 13378.7,8500.21 -235,145.33 c 94.8,129.14 189.7,261.71 274.2,383.84 l -39.2,-529.17 m -292.6,180.94 -109.4,67.69 c 170.4,239.38 331.6,479.36 330.4,483.98 -21.4,1.18 -43,2.41 -64.6,3.65 v 1.34 c 3.4,5.1 6.8,10.25 10.1,15.44 33.7,-1.49 67.3,-3.07 100.7,-4.74 27,-1.35 53.8,-2.75 80.5,-4.2 l -6.5,-88.38 c -99.5,-145.52 -220.9,-313.22 -341.2,-474.78"
         style="fill:#c8311e;fill-opacity:1;fill-rule:nonzero;stroke:none"
         id="path14099" />
      <path
         d="m 13143.7,8645.54 -57.6,35.61 c 120.3,161.56 241.7,329.26 341.2,474.78 l -9.4,-126.55 c -84.5,-122.13 -179.4,-254.7 -274.2,-383.84"
         style="fill:#8b1d1b;fill-opacity:1;fill-rule:nonzero;stroke:none"
         id="path14101" />
      <path
         d="m 12976.7,8748.84 -20,12.35 c 0,0 -259.7,38.65 -371.7,42.49 v 0 c 241.8,34.45 654.2,184.63 656.7,372 l 0.8,60.79 c 21.6,-1.24 43.2,-2.47 64.6,-3.65 1.2,-4.62 -160,-244.6 -330.4,-483.98"
         style="fill:#2c8b85;fill-opacity:1;fill-rule:nonzero;stroke:none"
         id="path14103" />
      <path
         d="m 12585,8803.68 c 251.5,75.28 508.1,210.54 657.5,434.13 v -1.34 l -0.8,-60.79 c -2.5,-187.37 -414.9,-337.55 -656.7,-372"
         style="fill:#d19276;fill-opacity:1;fill-rule:nonzero;stroke:none"
         id="path14105" />
      <path
         d="m 11949,9242.79 0.2,3.31 103.1,176.97 c 9.5,-33.72 19.9,-65.66 31.4,-96.01 v -74.76 c -45.5,-2.75 -90.4,-5.92 -134.7,-9.51"
         style="fill:#d4bfba;fill-opacity:1;fill-rule:nonzero;stroke:none"
         id="path14107" />
      <path
         d="m 12083.7,9252.3 v 74.76 c 9.5,-25.13 19.7,-49.18 30.7,-72.23 -7.6,-0.65 -15.2,-1.34 -22.8,-2.05 -2.6,-0.16 -5.3,-0.32 -7.9,-0.48"
         style="fill:#25716a;fill-opacity:1;fill-rule:nonzero;stroke:none"
         id="path14109" />
      <path
         d="m 11915.9,8602.66 21,405.78 c 47.9,-97.02 100.8,-198.13 155,-297.74 l -176,-108.04 m 233.4,143.29 c -74,135.44 -145.8,273.8 -205.3,400.4 l 5,96.44 c 44.3,3.59 89.2,6.76 134.7,9.51 2.6,0.16 5.3,0.32 7.9,0.48 -0.9,-0.08 -1.7,-0.16 -2.5,-0.24 4.3,-95.76 75.8,-268.62 163.7,-443.05 l -103.5,-63.54"
         style="fill:#c8311e;fill-opacity:1;fill-rule:nonzero;stroke:none"
         id="path14111" />
      <path
         d="m 12091.9,8710.7 c -54.2,99.61 -107.1,200.72 -155,297.74 l 7.1,137.91 c 59.5,-126.6 131.3,-264.96 205.3,-400.4 l -57.4,-35.25"
         style="fill:#8b1d1b;fill-opacity:1;fill-rule:nonzero;stroke:none"
         id="path14113" />
      <path
         d="m 12585,8803.68 c -111.4,16.35 -284.1,35.36 -284.1,35.36 l -48.1,-29.55 c -87.9,174.43 -159.4,347.29 -163.7,443.05 0.8,0.08 1.6,0.16 2.5,0.24 7.6,0.71 15.2,1.4 22.8,2.05 21,-44.07 44.7,-84.52 71.2,-122.12 44.3,-159.07 271.6,-278.98 399.4,-329.03 v 0"
         style="fill:#2c8b85;fill-opacity:1;fill-rule:nonzero;stroke:none"
         id="path14115" />
      <path
         d="m 12585,8803.68 c -127.8,50.05 -355.1,169.96 -399.4,329.03 95.2,-135.22 226.7,-233.44 399.4,-329.03"
         style="fill:#d19276;fill-opacity:1;fill-rule:nonzero;stroke:none"
         id="path14117" />
      <path
         d="m 12585,8803.68 c -87.9,18.9 -286.5,130.86 -286.5,130.86 l -284.5,-265.35 -64.8,576.91 73.3,334.12 c 98.9,-368.87 286.4,-623.63 562.5,-776.54"
         style="fill:#12b6b5;fill-opacity:1;fill-rule:nonzero;stroke:none"
         id="path14119" />
      <path
         d="m 12585,8803.68 c 112,-3.81 379.8,62.49 379.8,62.49 l 355.3,-274.24 115.1,671.05 -75.6,378.84 c -93.2,-370.35 -444.2,-739.23 -774.6,-838.14"
         style="fill:#12b6b5;fill-opacity:1;fill-rule:nonzero;stroke:none"
         id="path14121" />
      <path
         d="m 10285.7,11278.9 c 28.5,-445.2 349.5,-784.3 630.2,-796.5 280.6,-12.1 389.8,327.2 407.9,747.2 18.2,420.1 -194.6,771.5 -475.3,782.5 -383.6,15 -589.6,-314.7 -562.8,-733.2"
         style="fill:#f4b18c;fill-opacity:1;fill-rule:nonzero;stroke:none"
         id="path14123" />
      <path
         d="m 10387.7,12504.3 c -98.3,-1495.9 846.5,-2233.7 2231.5,-2324.8 1385,-91 2445,515.1 2543.3,2010.9 98.3,1496 -997.4,1902.6 -2279.6,2001.2 -1383.9,106.3 -2396.8,-191.4 -2495.2,-1687.3"
         style="fill:#e63b25;fill-opacity:1;fill-rule:nonzero;stroke:none"
         id="path14125" />
      <path
         d="m 10685.1,10560.3 c 82.1,-646.91 814.8,-1172.29 1412.4,-1203.7 1255.9,-66.04 2604.6,581.32 2719.8,2334.3 115.2,1753 -783.9,1858.6 -2013.8,1939.4 -821.3,54 -1507.8,82.8 -1882.8,-438 -231.5,-321.3 -286.1,-2234.5 -235.6,-2632"
         style="fill:#fcc1a0;fill-opacity:1;fill-rule:nonzero;stroke:none"
         id="path14127" />
      <path
         d="m 13977.8,10554.4 c -0.1,-101.1 -149.3,-182.9 -333.3,-182.7 -183.9,0.2 -332.9,82.4 -332.8,183.6 0.2,101.1 149.4,182.9 333.3,182.7 183.9,-0.3 332.9,-82.5 332.8,-183.6"
         style="fill:#f69597;fill-opacity:1;fill-rule:nonzero;stroke:none"
         id="path14129" />
      <path
         d="m 11283.3,10719.5 c -12.6,-88.9 -146.3,-143.3 -298.6,-121.6 -152.2,21.6 -265.5,111.2 -252.8,200 12.6,88.8 146.3,143.3 298.5,121.6 152.4,-21.6 265.5,-111.2 252.9,-200"
         style="fill:#f69597;fill-opacity:1;fill-rule:nonzero;stroke:none"
         id="path14131" />
      <path
         d="m 11755,11607.8 c 109.6,-228.2 71,-464.5 -51.3,-544 -184.3,-119.8 -593.5,-120.2 -726.2,91 -128.5,204.5 -24.8,545.1 228.2,671.9 221.5,111 443.1,1.9 549.3,-218.9"
         style="fill:#f9fdff;fill-opacity:1;fill-rule:nonzero;stroke:none"
         id="path14133" />
      <path
         d="m 11005.3,11739.8 c 217.6,316.9 654.4,161.1 753.3,-139.8 -109.6,228.1 -343.5,316.6 -548.3,214.1 -126.5,-63.4 -224,-188.4 -260.8,-334.4 -29.3,-116.4 -17.9,-251.1 35.4,-336.1 -65.1,58.4 -139.7,363.2 20.4,596.2"
         style="fill:#ad3d25;fill-opacity:1;fill-rule:nonzero;stroke:none"
         id="path14135" />
      <path
         d="m 11701.3,11492.8 c 39.2,-154.6 -39.9,-318.9 -176.6,-366.9 -136.7,-48.1 -279.2,38.2 -318.4,192.8 -39.2,154.6 39.9,318.9 176.5,366.9 136.7,48.1 279.3,-38.2 318.5,-192.8"
         style="fill:#108241;fill-opacity:1;fill-rule:nonzero;stroke:none"
         id="path14137" />
      <path
         d="m 11682.9,11520.5 c 10.8,-42.9 -11.1,-88.4 -49,-101.8 -38,-13.3 -77.5,10.6 -88.4,53.5 -10.9,42.9 11.1,88.5 49,101.8 37.9,13.4 77.5,-10.6 88.4,-53.5"
         style="fill:#fefffe;fill-opacity:1;fill-rule:nonzero;stroke:none"
         id="path14139" />
      <path
         d="m 12791,11516.5 c -165.8,-203.8 -166.5,-443.4 -43.9,-544.6 184.9,-152.3 644.8,-229.4 833.3,-46.5 182.6,177 129.7,531.5 -131.1,703.6 -228.3,150.6 -497.7,84.8 -658.3,-112.5"
         style="fill:#f9fdff;fill-opacity:1;fill-rule:nonzero;stroke:none"
         id="path14141" />
      <path
         d="m 13658.3,11506 c -185.5,352.5 -705.6,281 -872.8,3.6 165.7,203.8 445.1,247.1 656.2,107.9 130.4,-86.1 216.7,-227.3 230.8,-377.8 11.3,-120 -26.6,-250.4 -102.5,-323.9 84.2,45.1 224.8,331.1 88.3,590.2"
         style="fill:#ad3d25;fill-opacity:1;fill-rule:nonzero;stroke:none"
         id="path14143" />
      <path
         d="m 13498.1,11320.7 c 46.5,-155.2 -41.6,-318.7 -196.8,-365.2 -155.2,-46.5 -318.7,41.6 -365.2,196.8 -46.5,155.2 41.6,318.7 196.8,365.2 155.2,46.5 318.7,-41.6 365.2,-196.8"
         style="fill:#108241;fill-opacity:1;fill-rule:nonzero;stroke:none"
         id="path14145" />
      <path
         d="m 13476.7,11348.6 c 12.9,-43 -11.5,-88.4 -54.6,-101.3 -43,-12.9 -88.4,11.6 -101.3,54.6 -12.9,43.1 11.6,88.5 54.6,101.4 43.1,12.9 88.4,-11.6 101.3,-54.7"
         style="fill:#fefffe;fill-opacity:1;fill-rule:nonzero;stroke:none"
         id="path14147" />
      <path
         d="m 11063.3,12441.5 c 20.8,-4.8 43.5,-2.4 63.8,8.7 158.3,86.7 415.9,60.3 599.7,-61.6 41.1,-27.6 97.5,-16.1 125.1,25.4 27.5,41.5 16.1,97.6 -25.4,125.1 -239.1,158.8 -569.8,187.6 -786.1,69.5 -43.7,-24 -59.7,-78.9 -35.9,-122.5 12.9,-23.5 34.6,-39 58.8,-44.6"
         style="fill:#b93325;fill-opacity:1;fill-rule:nonzero;stroke:none"
         id="path14149" />
      <path
         d="m 13802.2,12201.6 c 24.9,0 49.5,10.2 67.3,30.2 33.1,37.2 29.8,94.3 -7.3,127.5 -184,163.7 -512.5,209.9 -781.7,109.2 -46.6,-17.5 -70.4,-69.4 -52.9,-116.2 17.3,-46.6 69.7,-70.2 116.1,-52.9 206.7,77.6 463.8,45 598.3,-75 17.3,-15.3 38.8,-22.8 60.2,-22.8"
         style="fill:#b93325;fill-opacity:1;fill-rule:nonzero;stroke:none"
         id="path14151" />
      <path
         d="m 11444.1,10606 c 44.2,164.7 297.7,102.6 717.1,74.8 21.9,-1.5 107.2,-7.8 129.1,-9.5 419,-33.5 678.8,-9 698.6,-178.4 38.1,-326.1 -392.3,-647.82 -818.1,-617.94 l -7.4,0.52 c -425.6,32.46 -804.6,413.42 -719.3,730.52"
         style="fill:#6f1911;fill-opacity:1;fill-rule:nonzero;stroke:none"
         id="path14153" />
      <path
         d="m 12163,9868.77 7.4,-0.53 c 138.1,-9.58 284.1,19.09 422.7,82.57 l 8.5,3.73 -6.5,6.6 c -103.3,107.26 -248.3,172.86 -408.2,184.56 -159.7,11.7 -312.7,-32.1 -430.9,-123.1 l -7.3,-5.6 7.8,-4.9 c 128.2,-83.07 268.7,-132.73 406.5,-143.33"
         style="fill:#dd6b5b;fill-opacity:1;fill-rule:nonzero;stroke:none"
         id="path14155" />
      <path
         d="m 12210,10461.5 c 292.9,-21.4 543.4,51.5 582.7,169.8 l 2.3,7.2 -1138.1,83.3 1.2,-7.5 c 22,-122.7 259.2,-231.4 551.9,-252.8"
         style="fill:#ffffff;fill-opacity:1;fill-rule:nonzero;stroke:none"
         id="path14157" />
      <path
         d="m 12029.2,10889.5 c 9.9,-0.6 19.1,5.9 21.5,15.9 16.6,71 76.4,113.7 152.3,108.7 76.3,-5 131.3,-56.1 136.8,-127.2 0.9,-11.4 10.9,-19.9 22.2,-19 11.4,0.8 19.9,10.8 19,22.2 -6.9,91 -79,159 -175.3,165.3 -95.7,6.3 -174.1,-50.2 -195.3,-140.5 -2.6,-11.1 4.3,-22.3 15.4,-24.9 l 3.4,-0.5"
         style="fill:#c4735b;fill-opacity:1;fill-rule:nonzero;stroke:none"
         id="path14159" />
      <path
         d="m 14138.6,12098.7 c -28.5,-735.7 213.2,-1220.6 524.9,-1240.2 311.7,-19.6 598.9,847.6 645.1,1582.3 52.9,841.5 -198,1185.2 -901.3,1360 -303.1,75.3 -236.4,-866 -268.7,-1702.1"
         style="fill:#e63b25;fill-opacity:1;fill-rule:nonzero;stroke:none"
         id="path14161" />
      <path
         d="m 15258.1,10654.2 c -175.9,-464.2 -672.7,-713.88 -1016.9,-629.4 -344.1,84.5 -148.9,1499.1 494,1554.5 535.4,46.2 688.2,-488.8 522.9,-925.1"
         style="fill:#fcc1a0;fill-opacity:1;fill-rule:nonzero;stroke:none"
         id="path14163" />
      <path
         d="m 14872.4,10715.9 c -48.8,-198.9 -293.3,-345.1 -458.1,-271.3 -64.2,28.8 122.7,720.5 228.9,709.3 179.6,-19 278,-239.2 229.2,-438"
         style="fill:#e0956c;fill-opacity:1;fill-rule:nonzero;stroke:none"
         id="path14165" />
      <path
         d="m 14995.3,11598.2 c -257.1,-125.6 -549,228.9 -727.2,709.1 -108.4,291.8 47.9,714.8 -79.3,721.2 -52.9,-98.7 -133.3,-172.4 -421.9,-304.5 -305.5,-139.8 -612.4,-116.2 -685.4,52.7 -35.5,82.3 -8.2,183.7 63.6,282.4 -20.4,7.6 -49.4,-76 -69.7,-67.4 -136.8,-53.1 -297.6,-80.6 -468.9,-72.2 -408.3,20 -737.5,233.9 -803.1,500.4 -41.2,-182 -175.5,-375.2 -380,-515.4 -222.5,-152.7 -469.2,-202.2 -655.8,-153.1 -161.5,-255.6 -280.2,-533.1 -370,-491 -124.3,58.4 -104.3,591 100.9,1037 22.2,48.2 45.4,94 68.7,138.9 -82.7,61.7 -139.3,144.2 -156.1,241.4 -45.3,260.6 210.3,527.6 570.8,596.4 106.7,20.4 209.4,19.1 304,3.3 -42.7,114.2 -39.6,231.4 21,323 117.7,177.9 404.2,191.9 640,31.2 54.6,-37.2 100.8,-81 139.4,-127.8 22.5,121.1 72.3,229.3 154.4,314.1 313.8,324.5 921.4,157.2 1438.1,-286.6 268.6,-230.7 459.8,-470.9 510.9,-676.9 1.1,142.6 44.4,344.4 320,421.5 303.1,84.8 479.9,-300.4 240.8,-351.9 -227.5,-48.9 -398.6,-78.4 -559.8,-266.6 388.8,135.2 811.7,-58 1052.6,-602.8 240.9,-544.9 -118,-1392.8 -248,-1456.4"
         style="fill:#e63b25;fill-opacity:1;fill-rule:nonzero;stroke:none"
         id="path14167" />
      <path
         d="m 13441.8,7395.23 -175.6,295.58 173.5,320.11 171.9,-308.04 -169.8,-307.65"
         style="fill:#f59322;fill-opacity:1;fill-rule:nonzero;stroke:none"
         id="path14169" />
      <path
         d="m 13061,6739.13 -170.2,298.76 179.4,316.87 166.2,-311.17 -175.4,-304.46"
         style="fill:#f59322;fill-opacity:1;fill-rule:nonzero;stroke:none"
         id="path14171" />
      <path
         d="m 13822.9,7432.71 -207.9,273.79 153.6,336.49 188.2,-285.39 -133.9,-324.89"
         style="fill:#f59322;fill-opacity:1;fill-rule:nonzero;stroke:none"
         id="path14173" />
      <path
         d="m 13889.2,6781.39 -223.2,274.32 151.4,337.2 205.6,-286.62 -133.8,-324.9"
         style="fill:#f59322;fill-opacity:1;fill-rule:nonzero;stroke:none"
         id="path14175" />
      <path
         d="m 13065,7376.3 -170.1,298.72 179.4,316.89 166.2,-311.16 -175.5,-304.45"
         style="fill:#f59322;fill-opacity:1;fill-rule:nonzero;stroke:none"
         id="path14177" />
      <path
         d="m 12689.8,7370.97 -170.1,298.76 179.4,316.89 166.1,-311.17 -175.4,-304.48"
         style="fill:#f59322;fill-opacity:1;fill-rule:nonzero;stroke:none"
         id="path14179" />
      <path
         d="m 14216.8,7492.09 c -4.6,49.1 -9.3,98.23 -14,147.39 0.8,-0.49 1.7,-0.99 2.5,-1.48 4.5,-46.85 9.1,-93.82 13.6,-140.79 l -2.1,-5.12"
         style="fill:#fdf690;fill-opacity:1;fill-rule:nonzero;stroke:none"
         id="path14181" />
      <path
         d="m 14205.3,7638 c -0.8,0.49 -1.7,0.99 -2.5,1.48 -13.3,139.62 -26.8,278.89 -40.4,414.11 l 1.5,-2.32 c 13.9,-134.98 27.7,-273.62 41.4,-413.27"
         style="fill:#87d26b;fill-opacity:1;fill-rule:nonzero;stroke:none"
         id="path14183" />
      <path
         d="m 14204.4,7461.95 -207.9,273.78 153.6,336.48 12.3,-18.62 c 13.6,-135.22 27.1,-274.49 40.4,-414.11 4.7,-49.16 9.4,-98.29 14,-147.39 l -12.4,-30.14"
         style="fill:#f59322;fill-opacity:1;fill-rule:nonzero;stroke:none"
         id="path14185" />
      <path
         d="m 14279.5,6832.07 c -17,173.99 -34.5,360.55 -52.4,550.72 l 3.3,-4.6 c 17.8,-185.31 35.1,-366.91 52,-538.97 l -2.9,-7.15"
         style="fill:#fdf690;fill-opacity:1;fill-rule:nonzero;stroke:none"
         id="path14187" />
      <path
         d="m 14270.6,6810.65 -223.1,274.29 151.4,337.2 28.2,-39.35 c 17.9,-190.17 35.4,-376.73 52.4,-550.72 l -8.9,-21.42"
         style="fill:#f59322;fill-opacity:1;fill-rule:nonzero;stroke:none"
         id="path14189" />
      <path
         d="m 13464.7,6747.96 -182.3,291.43 166,324.05 184.7,-307.04 -168.4,-308.44"
         style="fill:#f59322;fill-opacity:1;fill-rule:nonzero;stroke:none"
         id="path14191" />
      <path
         d="m 12670.4,6744.2 -163.2,302.61 186.7,312.63 158.9,-314.91 -182.4,-300.33"
         style="fill:#f59322;fill-opacity:1;fill-rule:nonzero;stroke:none"
         id="path14193" />
      <path
         d="m 11878.6,6753.73 -153.8,307.52 196.2,306.75 149.1,-319.69 -191.5,-294.58"
         style="fill:#f59322;fill-opacity:1;fill-rule:nonzero;stroke:none"
         id="path14195" />
      <path
         d="m 11561.6,7420.05 -171.5,293.02 0.1,7.92 173.3,314.75 169.9,-309.19 -171.8,-306.5"
         style="fill:#f59322;fill-opacity:1;fill-rule:nonzero;stroke:none"
         id="path14197" />
      <path
         d="m 12253,6748.11 -169.3,308.88 205.8,306.02 164.5,-321.04 -201,-293.86"
         style="fill:#f59322;fill-opacity:1;fill-rule:nonzero;stroke:none"
         id="path14199" />
      <path
         d="m 11525.9,6774.58 -158.2,305.2 191.7,309.59 153.8,-317.45 -187.3,-297.34"
         style="fill:#f59322;fill-opacity:1;fill-rule:nonzero;stroke:none"
         id="path14201" />
      <path
         d="m 12292.1,7380 -168.9,308.82 205.5,306.02 164.2,-320.96 -200.8,-293.88"
         style="fill:#f59322;fill-opacity:1;fill-rule:nonzero;stroke:none"
         id="path14203" />
      <path
         d="m 11914.7,7391.9 -164.3,306.85 198.6,308.05 159.7,-319.07 -194,-295.83"
         style="fill:#f59322;fill-opacity:1;fill-rule:nonzero;stroke:none"
         id="path14205" />
    </g>
  </g>
</svg>
