<?xml version="1.0" encoding="UTF-8" standalone="no"?>
<!-- Created with Inkscape (http://www.inkscape.org/) -->

<svg
   version="1.1"
   id="svg12833"
   width="3548"
   height="2004.64"
   viewBox="0 0 3548 2004.64"
   xmlns="http://www.w3.org/2000/svg"
   xmlns:svg="http://www.w3.org/2000/svg">
  <defs
     id="defs12837">
    <clipPath
       clipPathUnits="userSpaceOnUse"
       id="clipPath12919">
      <path
         d="m 12780,6173.75 c -0.5,14.35 -1.1,28.66 -1.7,42.92 3,0 5.9,0.01 8.8,0.02 -2.4,-15.18 -4.9,-29.8 -7.1,-42.94 m 2691.8,434.52 c -1.2,6.79 -2.3,13.68 -3.5,20.46 0.3,0.11 0.6,0.2 1,0.31 1.3,-6.64 2.7,-13.29 4.1,-19.98 -0.5,-0.26 -1.1,-0.53 -1.6,-0.79"
         id="path12917" />
    </clipPath>
  </defs>
  <g
     id="g12841"
     transform="matrix(1.3333333,0,0,-1.3333333,0,2004.64)">
    <g
       id="g12843"
       transform="scale(0.1)">
      <path
         d="M 0,0 H 26610 V 15034.8 H 0 Z"
         style="fill:#ffffff;fill-opacity:1;fill-rule:nonzero;stroke:none"
         id="path12845" />
      <path
         d="m 10601.4,3509.9 c -402.9,553.4 -1367.88,1738.44 -2868.03,3523.15 1239.94,1642.43 2147.57,2778.29 2773.03,3470.55 537.6,595.4 490.4,1516.9 -105,2054.5 -293.7,265.5 -669.39,397.3 -1048.96,373.4 -388.65,-20.1 -745.32,-189.6 -1005.06,-478.4 -609.7,-675.1 -1428.06,-1687.8 -2499.44,-3092 -801.65,1047.1 -1416.13,1954.7 -1925.58,2841.8 -399.61,694.7 -1291.04,935.3 -1985.72,537.1 -695.63,-400.1 -936.749,-1291 -537.14,-1985.7 677.99,-1180.73 1518.3,-2393.46 2639.85,-3808.62 0,0 -2273.18,-3079.58 -2519.05,-3390.88 -241.12,-304.1 -349.04,-684.7 -304.14,-1070.9 45.34,-385.8 237.78,-731 542.36,-971.7 606.39,-480.7 1561.29,-369.5 2043.04,238.3 279.32,353.3 1560.79,2089.3 2147.58,2884.8 723.34,-862.8 1850.14,-2219.2 2303.23,-2839.4 272.14,-373.9 711.88,-597.3 1175.47,-597.3 309.89,0 605.86,96.4 856.06,279.3 314.2,228.7 520.4,566.7 579.6,950.6 60.2,383.4 -32.9,767.7 -262.1,1081.4"
         style="fill:#a71d4a;fill-opacity:1;fill-rule:nonzero;stroke:none"
         id="path12847" />
      <path
         d="m 10453.4,3402 c -410.1,562.9 -1404.16,1782.34 -2954.46,3624.84 1286.26,1706.9 2226.38,2885.72 2871.46,3599.56 469.8,520.4 428.7,1325.8 -91.7,1795.7 -252.1,227.7 -579.66,348 -917.23,326 -339.45,-17.1 -651.22,-165.6 -878.03,-417.7 C 7853.22,11632.3 6989.5,10560.5 5848.88,9059.34 4971.32,10192.3 4304.3,11169.2 3763.35,12111.7 3414.34,12719 2636.1,12929.6 2027.83,12581 1420.01,12231.5 1209.47,11452.8 1558.48,10845.5 2248.4,9643.74 3113.07,8401.9 4270.42,6949.97 c 0,0 -2359.58,-3196.57 -2606.42,-3508.77 -210.56,-266 -305.08,-598.8 -265.93,-935.8 39.6,-337.1 207.69,-638.9 474.1,-849.4 533.81,-422.6 1363.62,-324.2 1785.66,208.2 290.77,367.6 1681.6,2253.1 2281.75,3067.1 701.39,-834.1 1966.63,-2351 2460.81,-3027.5 238.22,-327.1 622.1,-521.9 1027.45,-521.9 270.26,0 529.03,84.1 748.16,244 274.6,200.1 454.6,495.1 506.6,830.8 52.5,335.1 -28.7,670.8 -229.2,945.3"
         style="fill:#f42784;fill-opacity:1;fill-rule:nonzero;stroke:none"
         id="path12849" />
      <path
         d="m 4038.94,6945.11 c 0.01,0.03 0.03,0.05 0.05,0.07 -0.02,-0.02 -0.04,-0.04 -0.05,-0.07 m 0.31,0.43 c 0.01,0.01 0.02,0.02 0.02,0.03 0,-0.01 -0.01,-0.02 -0.02,-0.03 m 0.08,0.1 c 0.01,0.01 0.01,0.02 0.02,0.03 -0.01,-0.01 -0.01,-0.02 -0.02,-0.03 m 0.02,0.04 v 0 0"
         style="fill:#ffffff;fill-opacity:1;fill-rule:nonzero;stroke:none"
         id="path12851" />
      <path
         d="m 3221.23,5837.48 c 217.32,294.24 799.91,1083.52 817.71,1107.63 0.01,0.03 0.03,0.05 0.05,0.07 0.11,0.15 0.2,0.27 0.26,0.36 0.01,0.01 0.02,0.02 0.02,0.03 0.03,0.03 0.05,0.06 0.06,0.07 0.01,0.01 0.01,0.02 0.02,0.03 0,0 0,0 0,0.01 v 0 0 0 0 C 2917.8,8360.84 2077.49,9573.57 1399.5,10754.3 c -130.73,227.3 -192.89,475.6 -192.99,720.8 -0.21,504.3 262.07,995.7 730.13,1264.9 227.27,130.3 475.55,192.2 720.82,192.2 504.44,0 996.02,-261.9 1264.9,-729.3 509.45,-887.1 1123.93,-1794.7 1925.58,-2841.8 1071.38,1404.2 1889.74,2416.9 2499.44,3092 259.74,288.8 616.41,458.3 1005.06,478.4 24.88,1.5 49.7,2.3 74.48,2.3 135.55,0 269.29,-22.7 399.16,-60.1 -4.1,-60.6 -8.91,-121 -14.43,-181.2 -119.26,38.2 -244.25,58.2 -371.42,58.2 -26.17,0 -52.43,-0.8 -78.76,-2.6 -339.45,-17.1 -651.22,-165.6 -878.03,-417.7 C 7853.22,11632.3 6989.5,10560.5 5848.88,9059.34 4971.32,10192.3 4304.3,11169.2 3763.35,12111.7 c -234.79,408.6 -663.87,637.6 -1104.74,637.6 -214.47,0 -431.71,-54.2 -630.78,-168.3 -607.82,-349.5 -818.36,-1128.2 -469.35,-1735.5 689.92,-1201.76 1554.59,-2443.6 2711.94,-3895.53 0,0 -349.84,-473.93 -794.13,-1074.56 -84.47,-14.02 -169.64,-26.69 -255.06,-37.93"
         style="fill:#b94a6e;fill-opacity:1;fill-rule:nonzero;stroke:none"
         id="path12853" />
      <path
         d="m 3476.29,5875.41 c 444.29,600.63 794.13,1074.56 794.13,1074.56 C 3113.07,8401.9 2248.4,9643.74 1558.48,10845.5 c -349.01,607.3 -138.47,1386 469.35,1735.5 199.07,114.1 416.31,168.3 630.78,168.3 440.87,0 869.95,-229 1104.74,-637.6 540.95,-942.5 1207.97,-1919.4 2085.53,-3052.36 1140.62,1501.16 2004.34,2572.96 2634.56,3271.06 226.81,252.1 538.58,400.6 878.03,417.7 26.33,1.8 52.59,2.6 78.76,2.6 127.17,0 252.16,-20 371.42,-58.2 C 9496.29,9249.2 6880.96,6440.5 3476.29,5875.41 m 616.38,2547.86 c -55.47,0 -108.93,-14.68 -155.41,-45.64 -152.42,-101.52 -172.19,-339.64 -44.15,-531.86 88.97,-133.6 225.93,-209.84 352.37,-209.84 55.49,0 108.95,14.68 155.44,45.65 152.42,101.52 172.18,339.64 44.14,531.86 -88.99,133.59 -225.94,209.83 -352.39,209.83 m -1832.4,2618.23 c -31.46,0 -59.17,-7.4 -82.31,-22.8 -182.34,-121.4 -14.64,-693.6 374.58,-1277.92 339.79,-510.14 736.09,-860.88 952.58,-860.88 31.48,0 59.16,7.42 82.32,22.84 182.34,121.45 14.64,693.59 -374.58,1277.96 -339.82,510.1 -736.1,860.8 -952.59,860.8"
         style="fill:#f6529d;fill-opacity:1;fill-rule:nonzero;stroke:none"
         id="path12855" />
      <path
         d="m 3505.12,8879.9 c -216.49,0 -612.79,350.74 -952.58,860.88 -389.22,584.32 -556.92,1156.52 -374.58,1277.92 23.14,15.4 50.85,22.8 82.31,22.8 216.49,0 612.77,-350.7 952.59,-860.8 389.22,-584.37 556.92,-1156.51 374.58,-1277.96 -23.16,-15.42 -50.84,-22.84 -82.32,-22.84"
         style="fill:#f87fb6;fill-opacity:1;fill-rule:nonzero;stroke:none"
         id="path12857" />
      <path
         d="m 4245.48,7635.93 c -126.44,0 -263.4,76.24 -352.37,209.84 -128.04,192.22 -108.27,430.34 44.15,531.86 46.48,30.96 99.94,45.64 155.41,45.64 126.45,0 263.4,-76.24 352.39,-209.83 128.04,-192.22 108.28,-430.34 -44.14,-531.86 -46.49,-30.97 -99.95,-45.65 -155.44,-45.65"
         style="fill:#f87fb6;fill-opacity:1;fill-rule:nonzero;stroke:none"
         id="path12859" />
      <path
         d="m 22864.3,5794.05 c 0,0 1748,1710.24 2114.2,2079.28 273.6,275.52 423,641.7 421.6,1030.36 -1.5,388.64 -154.2,753.42 -430.2,1026.53 -286.5,284.58 -615,424.98 -1031.3,422.08 -388.7,-1.4 -752.9,-154.7 -1025.6,-430.2 -382,-385.31 -1913.6,-1881.63 -1913.6,-1881.63 -791.6,953.94 -1405.6,1673.45 -1818.6,2085.53 -549.1,550 -1507.8,549 -2056.9,0.9 -274.5,-274.98 -425.9,-640.24 -425.9,-1028.9 0,-388.15 151.4,-753.4 425.9,-1027.94 385.3,-385.78 1133.5,-1279.1 1827.2,-2116.55 -731.9,-797.32 -1360.2,-1558.41 -1969,-2383.91 -231.1,-312.3 -326.1,-696.1 -268.3,-1080.5 58.2,-384.3 262.1,-722.8 574.8,-953.5 251.2,-185.7 549.6,-284 862.8,-284 460.3,0 898.1,220.6 1171.2,590.6 474.1,642.6 956.3,1235.1 1507.3,1851.5 643.6,-761.5 1406.6,-1637.1 1909.3,-2070.2 588.3,-505.1 1546.5,-433 2051.1,153.7 522.9,607.9 454.1,1528.4 -153.7,2051.7 -382.9,329.9 -1170.2,1248.01 -1772.3,1965.15"
         style="fill:#a71d4a;fill-opacity:1;fill-rule:nonzero;stroke:none"
         id="path12861" />
      <path
         d="m 22614.6,5806.47 c 0,0 1866.9,1826.24 2233.5,2195.8 239.2,241.11 370.1,560.99 368.6,900.47 -1.4,339.47 -134.6,658.41 -375.7,897.12 -241.6,239.74 -538.6,372.94 -901.5,369.04 -339.4,-1.4 -657.9,-135.1 -896.1,-376.19 -382.5,-385.3 -2057.8,-2022.49 -2057.8,-2022.49 -769.2,928.17 -1482.1,1774.69 -1934.7,2226.37 -495.6,496.51 -1301.5,496.01 -1797.1,0.46 -240.2,-240.15 -372.4,-559.07 -372.4,-899.05 0,-339.45 132.2,-658.38 372.4,-898.55 395.3,-395.8 1134.9,-1279.1 1940.8,-2252.61 -773.5,-834.59 -1433.8,-1630.04 -2065,-2486.14 -201.9,-273.1 -285,-608.7 -234.4,-944.4 50.6,-335.6 229.2,-631.6 502.3,-833.1 220.1,-162.8 480.8,-248.3 753.9,-248.3 402,0 784.9,192.9 1023.7,516.1 514.2,697.1 1046.5,1346 1659.1,2021.6 737.7,-876.2 1520.2,-1775.7 2024.4,-2210.2 511.8,-439.7 1352.6,-376.7 1792.8,134.2 456.9,531.4 396.8,1335.9 -134.1,1793.3 -396.3,340.9 -1198.9,1276.2 -1902.7,2116.57"
         style="fill:#f42784;fill-opacity:1;fill-rule:nonzero;stroke:none"
         id="path12863" />
      <path
         d="m 17316.5,4010.6 c 506.6,659.6 1035.3,1290.04 1634.6,1942.91 v 0 0 c -693.7,837.45 -1441.9,1730.77 -1827.2,2116.55 -274.5,274.54 -425.9,639.79 -425.9,1027.94 0,388.66 151.4,753.92 425.9,1028.9 274.6,274.1 651.5,411.4 1028.5,411.4 376.9,0 753.9,-137.3 1028.4,-412.3 413,-412.08 1027,-1131.59 1818.6,-2085.53 0,0 1531.6,1496.32 1913.6,1881.63 272.7,275.5 636.9,428.8 1025.6,430.2 3.2,0 6.5,0 9.7,0 160.2,0 304.4,-27.4 441.2,-70 -10.5,-59 -21.6,-118 -33.4,-176.6 -123.8,41.6 -257.3,63.3 -401.3,63.3 -5.1,0 -10.1,0 -15.3,-0.1 -339.4,-1.4 -657.9,-135.1 -896.1,-376.19 -382.5,-385.3 -2057.8,-2022.49 -2057.8,-2022.49 -769.2,928.17 -1482.1,1774.69 -1934.7,2226.37 -247.8,248.21 -573.2,372.31 -898.5,372.31 -325.5,0 -650.8,-124 -898.6,-371.85 -240.2,-240.15 -372.4,-559.07 -372.4,-899.05 0,-339.45 132.2,-658.38 372.4,-898.55 395.3,-395.8 1134.9,-1279.1 1940.8,-2252.61 -600.1,-647.54 -1132.1,-1271.54 -1635.2,-1918.54 -80.6,-7.1 -161.6,-13 -242.9,-17.7"
         style="fill:#b94a6e;fill-opacity:1;fill-rule:nonzero;stroke:none"
         id="path12865" />
      <path
         d="m 17559.4,4028.3 c 503.1,647 1035.1,1271 1635.2,1918.54 -805.9,973.51 -1545.5,1856.81 -1940.8,2252.61 -240.2,240.17 -372.4,559.1 -372.4,898.55 0,339.98 132.2,658.9 372.4,899.05 247.8,247.85 573.1,371.85 898.6,371.85 325.3,0 650.7,-124.1 898.5,-372.31 452.6,-451.68 1165.5,-1298.2 1934.7,-2226.37 0,0 1675.3,1637.19 2057.8,2022.49 238.2,241.09 556.7,374.79 896.1,376.19 5.2,0.1 10.2,0.1 15.3,0.1 144,0 277.5,-21.7 401.3,-63.3 -655.2,-3254.12 -3390.4,-5775.5 -6796.7,-6077.4 m 1774.4,2891.13 c -69.8,0 -137.5,-21.71 -192.7,-66.87 -141.8,-115.87 -148.6,-342.27 -15.1,-505.65 81.5,-99.73 196.3,-152.93 305.7,-152.93 69.9,0 137.5,21.71 192.8,66.87 141.8,115.87 148.6,342.27 15.1,505.65 -81.5,99.72 -196.3,152.93 -305.8,152.93 m -1917.4,2212.93 c -43.9,0 -81.1,-11.18 -109.7,-34.6 -169.7,-138.64 21.8,-653.68 427.6,-1150.41 337.2,-412.81 716.4,-683.01 932.3,-683.01 43.9,0 81,11.19 109.7,34.61 169.7,138.62 -21.8,653.66 -427.6,1150.39 -337.3,412.81 -716.4,683.02 -932.3,683.02"
         style="fill:#f6529d;fill-opacity:1;fill-rule:nonzero;stroke:none"
         id="path12867" />
      <path
         d="m 18666.6,7264.34 c -215.9,0 -595.1,270.2 -932.3,683.01 -405.8,496.73 -597.3,1011.77 -427.6,1150.41 28.6,23.42 65.8,34.6 109.7,34.6 215.9,0 595,-270.21 932.3,-683.02 405.8,-496.73 597.3,-1011.77 427.6,-1150.39 -28.7,-23.42 -65.8,-34.61 -109.7,-34.61"
         style="fill:#f87fb6;fill-opacity:1;fill-rule:nonzero;stroke:none"
         id="path12869" />
      <path
         d="m 19431.7,6193.98 c -109.4,0 -224.2,53.2 -305.7,152.93 -133.5,163.38 -126.7,389.78 15.1,505.65 55.2,45.16 122.9,66.87 192.7,66.87 109.5,0 224.3,-53.21 305.8,-152.93 133.5,-163.38 126.7,-389.78 -15.1,-505.65 -55.3,-45.16 -122.9,-66.87 -192.8,-66.87"
         style="fill:#f87fb6;fill-opacity:1;fill-rule:nonzero;stroke:none"
         id="path12871" />
      <path
         d="m 13471.5,1077.2 c -1706.2,0 -3089.3,92.9 -3089.3,207.4 0,114.5 1383.1,207.4 3089.3,207.4 1706.2,0 3089.4,-92.9 3089.4,-207.4 0,-114.5 -1383.2,-207.4 -3089.4,-207.4"
         style="fill:#dbdbdb;fill-opacity:1;fill-rule:nonzero;stroke:none"
         id="path12873" />
      <path
         d="m 10333.2,10670.3 c -125.5,221.7 -102.8,454.3 29.5,714.5 74.5,146.2 207.8,281.6 302.9,436.3 -77.9,-458.2 -390.7,-825 -332.4,-1150.8 m 6468.7,1.5 c -86.1,35.6 -349.7,167.4 -356.9,616.8 -2.6,166.4 -119.8,203.7 -223.3,236.6 -141.1,44.9 -262.9,83.7 -190.6,392.6 90.6,386.2 -49.3,680.7 -365.1,768.6 -244.7,68 -522.1,242.6 -769.2,478.2 -103.8,142.3 -191.4,281.3 -253.3,384.7 -1298.7,16.1 -3002.3,-784.8 -3592.4,-1170.6 l -358.9,-23.5 c 21.4,-329.3 -232.2,-675.1 -357.3,-920.9 -151.5,-297.8 -187.1,-587.7 -3.4,-851.5 72.7,-104.7 131.6,-199 113.9,-293 -14.9,-79.5 -86.1,-158.9 -217.5,-242.6 -130.1,-82.88 -202.5,-171 -220.9,-269.26 -26.07,-138.63 60.6,-263.29 137,-373.18 53.9,-77.54 73.1,-206.96 63.8,-277.29 -34.6,-259.46 -99.6,-364.3 -24.7,-528.08 -46.8,179.74 33.7,294.52 68.6,512.2 13,81.29 2.6,207.79 -97.7,351.06 -71.2,101.77 -123.7,187.44 -101.5,305.57 15.9,84.54 81.3,162.29 200,237.98 144.9,92.2 220.7,179.3 238.5,274 6.7,35.8 2.3,71 -6.2,106.1 107.7,-156.8 134,-297.4 -137.1,-494.5 -498.43,-362.32 110.7,-642.27 62.8,-827.16 -82.2,-317.37 -111.3,-381.5 -44.8,-603.09 76.2,-253.97 282.9,-371.9 469.2,-388.52 -5.7,41.2 -229.9,243.34 -156.3,666.73 75.3,-209.98 377.9,-678.53 437.5,-680.22 950,-27.25 3714.7,264.33 4607.2,937.84 170.5,128.68 48.8,560.31 77.1,691.21 20.5,94.75 185.1,-393.67 252.6,-514.74 944.9,869.05 374.1,1106.15 278.5,1153.65 -112.9,56.2 -173.4,192.5 -31.1,859.5 72.6,340.1 -548.6,57 -413.2,635.3 81.2,346.6 -35.1,604.8 -348.4,739.3 -109.8,47.1 -218,131 -321.3,230.1 148.1,-76.1 294.9,-135.5 430.3,-173.1 292.9,-81.5 423.5,-325.6 338.3,-688.9 -82.7,-353.3 86.4,-407.2 222.4,-450.5 105.1,-33.5 189.2,-59.8 190.3,-190.9 4,-502 355.7,-610.7 403.1,-616.5"
         style="fill:#752a15;fill-opacity:1;fill-rule:nonzero;stroke:none"
         id="path12875" />
      <path
         d="m 17540.8,10736.5 c 31.6,-27 95.1,-16.2 194.7,-2.7 86.3,11.6 215.2,33.2 273.6,2.5 62.3,-32.9 26.7,-96.8 -63.7,-144.1 -149.2,-78 -492.5,-242 -668.7,-311.2 -292.7,-137.1 -663.7,-26 -783.8,252.7 -180.1,417.9 -224.4,591 -325.6,851.9 -25,64.3 129,59 194.2,-9.4 139.3,-146.5 132.9,-221 210.4,-290.3 75.6,-67.6 142.5,-17.5 195.1,64.9 139.4,472.2 169,758.8 315.3,786 124.2,3.2 72,-335.2 -4.4,-714 231.1,350.5 445.3,612.5 527.2,538.5 96.9,-87.5 -96.4,-393.6 -247.8,-687.7 293.7,127.9 561.6,344.1 628.7,190.4 49,-112.4 -534.3,-451.4 -445.2,-527.5"
         style="fill:#fcc1a0;fill-opacity:1;fill-rule:nonzero;stroke:none"
         id="path12877" />
      <path
         d="m 17167.1,10313.4 c 43.4,72.3 -574.8,298.5 -618.6,238.8 -571.9,-778.29 -839.8,-1002.53 -1858.4,-1566.95 184,-190.49 241.4,-625.44 426.9,-814.23 933.7,722.34 1573.5,1348.68 2050.1,2142.38"
         style="fill:#fac09f;fill-opacity:1;fill-rule:nonzero;stroke:none"
         id="path12879" />
      <path
         d="m 11751.5,2270.4 c 116.2,-56.9 580,-156 738.9,-178.5 299,727.5 1000.2,2432.2 1308.5,3036.96 73.3,143.77 620.3,147.32 633.5,-21.71 8.1,-104.35 -7.5,-2552.15 9.1,-3170.25 254.8,-50 517.6,-53 748.5,-8.3 0,0 253.2,3208.36 301.2,3844.17 -425.5,117.45 -2149.8,437.13 -2623.5,423.88 -155.1,-643.8 -733.1,-2748.55 -1116.2,-3926.25"
         style="fill:#fac09f;fill-opacity:1;fill-rule:nonzero;stroke:none"
         id="path12881" />
      <path
         d="m 12550,1794.3 c -4.7,-18.1 -940,153.2 -938.3,175.8 14.7,196.2 89.4,584.9 100.8,698.3 l 999.3,-182.4 c -52.9,-206 -128.1,-561.2 -161.8,-691.7"
         style="fill:#fcf6b4;fill-opacity:1;fill-rule:nonzero;stroke:none"
         id="path12883" />
      <path
         d="m 11505.9,2072.2 c 8.1,52.3 29.6,119.9 45.2,181.3 11.5,45.5 439.3,86.8 452.4,-18 3.3,-26.8 4.9,-50.6 5.1,-72.4 73.2,7.6 152.3,17.4 235.7,30 181.1,27.2 342.5,60.4 454.9,91.6 26.2,-165.1 44.2,-454 71.7,-637.6 0,0 -1864.5,-572.2 -2196,-329.9 -93.4,68.3 345.7,468.4 931,755"
         style="fill:#ee447a;fill-opacity:1;fill-rule:nonzero;stroke:none"
         id="path12885" />
      <path
         d="m 12756.2,1762.5 c 4.7,-41 9.5,-80.5 14.7,-115.4 0,0 -1864.5,-572.2 -2196,-329.9 -13.2,9.7 -15.6,26 -8.7,47.6 538.6,-54.6 1725.4,264.4 2190,397.7"
         style="fill:#c51f42;fill-opacity:1;fill-rule:nonzero;stroke:none"
         id="path12887" />
      <path
         d="m 11063,1846.8 c 4.1,-14.2 18.6,-22.8 33.3,-18.3 86.8,26.6 208.5,-3.7 294.6,-70.7 6.1,-4.7 13.5,-6.4 20.5,-5.3 6.6,1 12.8,4.4 17.2,10 9.1,11.7 7,28.6 -4.7,37.7 -98.9,76.9 -239.6,109.9 -342.6,79.8 -14.2,-4.1 -22.4,-19 -18.3,-33.2 z m 459.6,0.5 c 6.2,-5.2 14,-7.2 21.3,-6.1 6.3,1 12.2,4.1 16.6,9.2 9.5,11.4 8.1,28.3 -3.2,37.9 -94.5,79.6 -214.6,110.3 -329.7,83.4 -14.4,-3.3 -23.4,-17.7 -20.1,-32.2 3.4,-14.4 18.1,-24.4 32.2,-20 57.9,13.4 171.5,21.7 282.9,-72.2 z m 127.3,80.3 c 6.3,-6.7 15.2,-9.4 23.5,-8.1 5.2,0.8 10.4,3.1 14.5,7 10.7,10.2 11.2,27.2 1,38 -85.1,89.7 -219.8,126.3 -327.7,89.7 -14,-4.8 -21.5,-20 -16.7,-34 4.8,-14.1 19.9,-21.3 34.1,-16.7 88.6,30.7 200.2,-0.9 271.3,-75.9"
         style="fill:#d2dae5;fill-opacity:1;fill-rule:nonzero;stroke:none"
         id="path12889" />
      <path
         d="m 14372.8,1749.5 c 1.3,-17.7 932.6,-19.5 935,1.9 20.6,185.9 17.7,563.1 26.8,671 h -994.8 c 14.3,-201.6 23.7,-545.2 33,-672.9"
         style="fill:#fcf6b4;fill-opacity:1;fill-rule:nonzero;stroke:none"
         id="path12891" />
      <path
         d="m 15515.8,2007.2 c -14,51.1 -42.9,115.8 -65.3,175 -16.6,43.9 -446.3,36.9 -447.6,-68.7 -0.3,-27 0.9,-50.8 3.1,-72.5 -73.6,-0.7 -153.3,0.2 -237.5,3.3 -183.1,6.6 -347.2,21.5 -462.3,39.9 -7.5,-167 7.1,-456.1 0.3,-641.6 0,0 1917.1,-359 2219.2,-80.9 85.2,78.4 -396.1,426.5 -1009.9,645.5"
         style="fill:#ee447a;fill-opacity:1;fill-rule:nonzero;stroke:none"
         id="path12893" />
      <path
         d="m 14308.2,1558.9 c 0,-41.2 -0.4,-81 -1.7,-116.3 0,0 1917.1,-359 2219.2,-80.9 12,11 12.6,27.5 3.3,48.2 -529,-114.8 -1744.1,68.8 -2220.8,149"
         style="fill:#c51f42;fill-opacity:1;fill-rule:nonzero;stroke:none"
         id="path12895" />
      <path
         d="m 15959.3,1864 c -105.8,18.3 -241.8,-30.4 -331.5,-117.9 -10.5,-10.3 -10.8,-27.3 -0.4,-37.9 5,-5.1 11.6,-7.8 18.2,-8.1 7.1,-0.2 14.3,2.3 19.8,7.6 78,76.3 195.6,120.1 284.8,103.4 15,-2.8 28.5,7.3 31,21.9 2.5,14.6 -7.3,28.5 -21.9,31 z m -161.9,21.4 c 14.6,-2.7 28.1,8.8 29.8,23.6 1.6,14.7 -8.9,27.9 -23.6,29.6 -117.4,13.9 -233.3,-30.2 -318.2,-119.9 -10.2,-10.8 -9.7,-27.8 1.1,-38 4.9,-4.6 11.1,-7.1 17.4,-7.3 7.5,-0.3 15,2.6 20.5,8.4 100.1,105.9 213.9,110.4 273,103.6 z m -147.4,67.8 c 14.6,-2.9 28.8,6 32,20.4 3.2,14.5 -6,28.8 -20.4,32 -111.4,24.2 -241.1,-27.3 -315.5,-126 -9,-11.9 -6.6,-28.7 5.2,-37.6 4.6,-3.4 9.9,-5.2 15.2,-5.4 8.4,-0.3 16.9,3.4 22.4,10.7 62.2,82.5 169.6,126.5 261.1,105.9"
         style="fill:#d2dae5;fill-opacity:1;fill-rule:nonzero;stroke:none"
         id="path12897" />
      <path
         d="m 14857.7,9117.48 c -222.3,-29.68 -834.4,-130.82 -1018.6,-163.09 -222.2,-38.88 -871.6,-112.16 -1134,-209.41 155.1,-1165.46 221,-1840.86 71.5,-3058.77 314.6,-124.93 2591.7,150.18 2787.2,294.68 -140.7,1139.72 -395.9,2059.87 -706.1,3136.59"
         style="fill:#fac09f;fill-opacity:1;fill-rule:nonzero;stroke:none"
         id="path12899" />
      <path
         d="m 14488.3,4433.5 c 135.6,9.3 270.1,25.1 402.6,47.3 l 30.9,-96.8 c 340.2,60 663,162.1 949.4,301.8 l -31.9,85.1 c 113.8,53.6 220.3,113.8 321.2,178.9 l 55.7,-63.9 c 105,72.2 204.5,148.4 290.8,233.19 -246,253.91 -776.8,923.48 -952.5,1150.06 -578,-78.38 -2201.2,-108.21 -2741.4,-114.35 -200.2,-214 -571.2,-561.77 -932.5,-884.59 75.4,-96.92 161.6,-183.49 252.9,-264.91 l 59.6,60.1 c 61.7,-51.6 124.9,-101.3 192.4,-146.4 l -46,-79.3 c 246.9,-172.1 531.7,-299.4 836.4,-385.1 l 40.5,94.6 c 156,-42.1 317.4,-70.5 480.8,-91.4 l 1.6,-104.9 c 258.5,-32.5 522.4,-41.3 783.9,-23.4 l 5.6,104"
         style="fill:#11abbb;fill-opacity:1;fill-rule:nonzero;stroke:none"
         id="path12901" />
      <path
         d="m 12769.6,6120.73 c 806.6,-77.76 1508.8,-121.18 2811.3,128 0,0 -38.8,187.53 -48,229.92 -960,-212.66 -2173.4,-193.6 -2719.8,-107.84 -7.1,-28.71 -34.8,-220.35 -43.5,-250.08"
         style="fill:#2ab9c8;fill-opacity:1;fill-rule:nonzero;stroke:none"
         id="path12903" />
      <path
         d="M 13673.9,5682.56 13216.4,4549.2 c 156,-42.1 317.4,-70.5 480.8,-91.4 l -23.3,1224.76"
         style="fill:#11828d;fill-opacity:1;fill-rule:nonzero;stroke:none"
         id="path12905" />
      <path
         d="m 12385.5,4919 510.2,860.98 -702.6,-714.57 c 61.7,-51.61 124.9,-101.31 192.4,-146.41"
         style="fill:#11828d;fill-opacity:1;fill-rule:nonzero;stroke:none"
         id="path12907" />
      <path
         d="m 14890.9,4480.8 -363.5,1214.45 -39.1,-1261.75 c 135.6,9.3 270.1,25.1 402.6,47.3"
         style="fill:#11828d;fill-opacity:1;fill-rule:nonzero;stroke:none"
         id="path12909" />
      <path
         d="m 15412.6,5864.68 426.7,-1093.78 c 113.9,53.5 220.3,113.8 321.2,178.9 l -747.9,914.88"
         style="fill:#11828d;fill-opacity:1;fill-rule:nonzero;stroke:none"
         id="path12911" />
      <g
         id="g12913">
        <g
           id="g12915"
           clip-path="url(#clipPath12919)">
          <path
             d="m 12778.3,6173.75 h 2695.1 v 455.289 h -2695.1 z"
             style="fill:#cccccc;fill-opacity:1;fill-rule:nonzero;stroke:none"
             id="path12921" />
        </g>
      </g>
      <path
         d="m 13972.9,6311.91 c 583.6,80.83 1149.5,201.7 1495.4,316.82 1.2,-6.78 2.3,-13.67 3.5,-20.46 -198.4,-94.73 -535.8,-191.25 -933.5,-269.97 -192.2,-14.65 -382.7,-23.09 -565.4,-26.39"
         style="fill:#c89a7f;fill-opacity:1;fill-rule:nonzero;stroke:none"
         id="path12923" />
      <path
         d="m 12866.6,6164.77 c -28.9,0 -57.8,0.2 -86.3,0.62 -0.1,2.79 -0.2,5.57 -0.3,8.36 2.2,13.14 4.7,27.76 7.1,42.94 357.3,1.42 775.9,38.45 1185.8,95.22 182.7,3.3 373.2,11.74 565.4,26.39 -513.4,-101.61 -1127.2,-173.54 -1671.7,-173.53"
         style="fill:#2294a0;fill-opacity:1;fill-rule:nonzero;stroke:none"
         id="path12925" />
      <path
         d="m 14964.7,9155.57 c -184.3,-56.03 -1005.5,-110.27 -1224.1,-141.88 -263.6,-38.11 -944.9,-160.93 -1262.6,-229.21 87.7,-947.81 186,-1683.71 217,-2567.33 982,-13.96 2507.4,270 2974.3,489.38 -202.5,939.41 -336.7,1393.99 -704.6,2449.04"
         style="fill:#11abbb;fill-opacity:1;fill-rule:nonzero;stroke:none"
         id="path12927" />
      <path
         d="m 14364.3,7754.12 c 0,0 656.9,549.5 836.6,707.57 -67.3,205.22 -144.5,430.85 -236.2,693.88 -184.3,-56.03 -1005.5,-110.29 -1224.1,-141.88 -263,-38.02 -941.4,-159.77 -1260,-228.16 65.8,-320.26 133.3,-647.61 138.8,-705.06 406.7,-78.15 1744.9,-326.35 1744.9,-326.35"
         style="fill:#ffffff;fill-opacity:1;fill-rule:nonzero;stroke:none"
         id="path12929" />
      <path
         d="m 14421.5,7528.27 12.2,10.15 c 246,203.77 581.3,485.5 834.9,711.82 -7.3,23.03 -15,46.9 -22.5,70.36 -246.6,-219.02 -587.3,-507.71 -843.5,-720.08 -543.3,100.74 -1224,228.57 -1769.9,333.49 2.1,-23.84 4.3,-47.74 6.5,-71.55 405.2,-77.68 1782.3,-334.19 1782.3,-334.19"
         style="fill:#ffffff;fill-opacity:1;fill-rule:nonzero;stroke:none"
         id="path12931" />
      <path
         d="m 14480.8,9084.1 c -440.5,-55.59 -1012.4,-109.83 -1421.5,-185.55 -1,-17.06 814.8,-557.42 989.9,-525.57 139.2,25.31 445.9,675.88 431.6,711.12"
         style="fill:#fac09f;fill-opacity:1;fill-rule:nonzero;stroke:none"
         id="path12933" />
      <path
         d="m 14200.6,9923.15 166.4,-867.88 c 35.7,-186.6 -172.5,-383.39 -465,-439.46 -292.6,-56.06 -558.8,49.81 -594.6,236.43 l -166.3,867.89 1059.5,203.02"
         style="fill:#fac09f;fill-opacity:1;fill-rule:nonzero;stroke:none"
         id="path12935" />
      <path
         d="m 12664.1,8324.59 c 25.9,-262.36 -9.8,-480.63 -79.8,-487.54 -70,-6.92 -147.7,200.18 -173.6,462.52 -25.9,262.37 9.8,480.64 79.8,487.55 70,6.91 147.7,-200.18 173.6,-462.53"
         style="fill:#fac09f;fill-opacity:1;fill-rule:nonzero;stroke:none"
         id="path12937" />
      <path
         d="m 13384.1,6870.88 c -95.9,-30.86 -303,11.67 -402.7,-33.23 0,0 -5.8,-4.25 -8.9,-7.97 210.1,-5.58 387,-88.02 554.2,-126.17 59.1,-227.83 -249.3,-91.91 -567.6,-56.05 189.5,-50.26 310.7,-106.58 441.9,-134.95 102.5,-92.24 60.1,-163.34 -72.7,-148.56 -102.6,11.4 -282.4,63.02 -467.6,88.21 -16.2,-5 384.1,-157.74 424.3,-245.04 -10.9,-46.57 -90.9,-79.59 -213.4,-33.01 -66.4,25.19 -135.8,67.12 -287.4,103.86 -128.7,-18.71 -237.4,-96.52 -288.2,-118.44 -192.3,-57.11 -299.3,204.44 -302.7,260.39 -8.9,145.43 238.6,434.15 396.1,494.22 264,100.74 394,158.52 828.6,73.6 77.6,-44.46 12.8,-101.82 -33.9,-116.86"
         style="fill:#fac09f;fill-opacity:1;fill-rule:nonzero;stroke:none"
         id="path12939" />
      <path
         d="m 14363.1,9075.25 -132.7,692.6 c 25,0.12 49.9,0.17 74.7,0.17 195.3,0 380.3,-3.49 540.4,-9.93 13.4,-47.41 23.2,-95.69 22.3,-146.12 -3.6,-207.62 -126.3,-392.22 -318.7,-518.1 -60.2,-6.36 -123,-12.59 -186,-18.62"
         style="fill:#712713;fill-opacity:1;fill-rule:nonzero;stroke:none"
         id="path12941" />
      <path
         d="m 14363.1,9075.24 v 0.01 c 63,6.03 125.8,12.26 186,18.62 0,-0.01 0,0.01 0,0 -60.2,-6.37 -123,-12.59 -186,-18.63"
         style="fill:#1f909a;fill-opacity:1;fill-rule:nonzero;stroke:none"
         id="path12943" />
      <path
         d="m 14473.7,9049.47 c 6.1,18.4 8.7,30.58 7.1,34.63 -38,-4.79 -76.9,-9.57 -116.6,-14.36 l -1.1,5.5 c 63,6.04 125.8,12.26 186,18.63 -24,-15.73 -49.2,-30.58 -75.4,-44.4"
         style="fill:#e1d4d1;fill-opacity:1;fill-rule:nonzero;stroke:none"
         id="path12945" />
      <path
         d="m 14370.7,9002.16 c 0.8,17.7 -0.3,35.46 -3.7,53.11 l -2.8,14.47 c 39.7,4.79 78.6,9.57 116.6,14.36 1.6,-4.05 -1,-16.23 -7.1,-34.63 -32.8,-17.39 -67.2,-33.19 -103,-47.31"
         style="fill:#dda184;fill-opacity:1;fill-rule:nonzero;stroke:none"
         id="path12947" />
      <path
         d="m 13252.1,9140.83 c -167.9,130.7 -270.1,308.97 -266.8,503.83 0.4,22.57 9.1,43.15 12.8,64.97 56,6.01 114.3,11.52 174.5,16.54 l -31.5,-6.04 111,-579.3"
         style="fill:#712713;fill-opacity:1;fill-rule:nonzero;stroke:none"
         id="path12949" />
      <path
         d="m 13936.6,8922.12 c -7.4,0 -14.9,0.06 -22.3,0.19 -260,4.52 -494.1,87.69 -662.2,218.52 l -111,579.3 31.5,6.04 c 326.4,27.22 705.8,40.1 1057.8,41.68 l 132.7,-692.6 v -0.01 l 1.1,-5.5 2.8,-14.47 c 3.4,-17.65 4.5,-35.41 3.7,-53.11 -129.7,-51.16 -277.4,-80.05 -434.1,-80.04"
         style="fill:#dda184;fill-opacity:1;fill-rule:nonzero;stroke:none"
         id="path12951" />
      <path
         d="m 15725.2,11096 c -15.7,-465.5 -368,-825.5 -686.7,-843.3 -318.8,-17.8 -455.8,334.6 -492.4,773 -36.5,438.3 192.2,809.2 511.1,825.9 435.8,22.7 682.6,-318 668,-755.6"
         style="fill:#f4b18c;fill-opacity:1;fill-rule:nonzero;stroke:none"
         id="path12953" />
      <path
         d="m 10696.1,11925.2 c 161.1,-1659.4 1611.7,-2472.14 2976,-2183.82 1364.3,288.32 2118.4,1629.32 1646.6,3178.62 -262.1,860.2 -1206.3,1431.3 -2507.9,1147.4 -1385.4,-302.1 -2239.5,-855.9 -2114.7,-2142.2"
         style="fill:#752a15;fill-opacity:1;fill-rule:nonzero;stroke:none"
         id="path12955" />
      <path
         d="m 11230.4,12405.4 c -65.7,-299.7 634.9,-2690.16 984.7,-2967.51 371.1,-294.22 1683.3,-327.44 1935.8,-274.11 270.4,57.16 1099.2,574.25 1245,1014.62 172.4,521.1 -170,2622 -310.3,2859.2 -474.1,801.3 -1230.9,671.7 -2212.7,464.2 -918.5,-194.1 -1472.2,-319 -1642.5,-1096.4"
         style="fill:#fcc1a0;fill-opacity:1;fill-rule:nonzero;stroke:none"
         id="path12957" />
      <path
         d="m 10987.7,9992.62 c 223.1,-441.28 741.7,-636.19 1073.6,-516.23 331.9,119.96 -10.6,1500.61 -653.3,1487.71 -535.2,-10.7 -630.1,-556.7 -420.3,-971.48"
         style="fill:#fcc1a0;fill-opacity:1;fill-rule:nonzero;stroke:none"
         id="path12959" />
      <path
         d="m 11363.2,10094.4 c 69.3,-191.86 326.9,-310.96 482.3,-220.42 60.6,35.28 -197.5,700.72 -301.5,678.42 -175.9,-37.7 -250.1,-266.2 -180.8,-458"
         style="fill:#e0956c;fill-opacity:1;fill-rule:nonzero;stroke:none"
         id="path12961" />
      <path
         d="m 12158.9,10117.9 c 15.4,-99.5 166.1,-158.79 336.7,-132.36 170.5,26.36 296.4,128.46 280.9,227.96 -15.3,99.5 -166.1,158.7 -336.7,132.3 -170.5,-26.4 -296.3,-128.4 -280.9,-227.9"
         style="fill:#f69597;fill-opacity:1;fill-rule:nonzero;stroke:none"
         id="path12963" />
      <path
         d="m 14790.6,10648.6 c 22.4,-86.7 145.9,-129.8 275.9,-96.2 129.9,33.5 217.1,131 194.8,217.6 -22.4,86.7 -145.9,129.8 -275.9,96.3 -129.9,-33.6 -217.1,-131.1 -194.8,-217.7"
         style="fill:#f69597;fill-opacity:1;fill-rule:nonzero;stroke:none"
         id="path12965" />
      <path
         d="m 14589.7,10455.1 c -59.8,152 -294.4,65.6 -690.6,-6 -20.7,-3.8 -101.2,-18.8 -121.9,-22.9 -395.2,-76.9 -645.1,-81.6 -645.7,-244.9 -1.3,-314.51 443,-574.41 845.1,-500.19 l 6.9,1.3 c 401.7,76.66 721.4,479.99 606.2,772.69"
         style="fill:#6f1911;fill-opacity:1;fill-rule:nonzero;stroke:none"
         id="path12967" />
      <path
         d="m 13986.7,9676.44 -7,-1.3 c -130.4,-23.97 -272.5,-12.39 -411.2,33.14 l -8.5,2.61 5.4,7 c 86.9,113.21 217.8,191.22 368.8,219.57 150.7,28.3 301.1,3.07 423.3,-70.88 l 7.6,-4.53 -6.9,-5.54 c -113.1,-92.77 -241.5,-155.15 -371.5,-180.07"
         style="fill:#dd6b5b;fill-opacity:1;fill-rule:nonzero;stroke:none"
         id="path12969" />
      <path
         d="m 13878.3,10235.6 c -276.6,-51.9 -522.8,-9.5 -573,98.9 l -3,6.7 1074.4,201.6 -0.4,-7.2 c -7.7,-119.3 -221.8,-248.2 -498,-300"
         style="fill:#ffffff;fill-opacity:1;fill-rule:nonzero;stroke:none"
         id="path12971" />
      <path
         d="m 13686.1,10613.1 c 10.8,2.3 18.7,12.1 18.2,23.5 -3.6,81.1 47.6,144.8 130.4,162.3 83.3,17.6 157.6,-20.6 184.8,-95.1 4.4,-11.9 17.7,-18.1 29.5,-13.7 12,4.3 18.1,17.6 13.8,29.5 -34.9,95.4 -132.6,146.5 -237.6,124.3 -104.4,-22 -171.5,-106.1 -166.9,-209.3 0.5,-12.7 11.3,-22.5 24,-22 l 3.8,0.5"
         style="fill:#c4735b;fill-opacity:1;fill-rule:nonzero;stroke:none"
         id="path12973" />
      <path
         d="m 11886.1,11616.9 c 17.8,5.2 33.7,16.4 44.3,32.9 135.3,209.6 466.2,353.2 770.5,333.5 42.2,-2.9 79.7,28.6 83.3,70.4 3.5,41.5 -28.2,77.5 -70.8,80.3 -363,23.2 -747.3,-147.3 -913.5,-405.4 -22.9,-35.5 -12.2,-81.9 23.8,-103.7 19.3,-11.8 42,-14 62.4,-8"
         style="fill:#681f0f;fill-opacity:1;fill-rule:nonzero;stroke:none"
         id="path12975" />
      <path
         d="m 15022.6,12343.2 c 17,3 32.6,13 42.3,28.9 18.2,29.6 5.1,88.4 -24.4,106.6 -214.9,132 -555.7,118.1 -810.3,-32.7 -29.8,-17.7 -35.9,-76.5 -18.2,-106.3 17.8,-29.9 56.4,-39.7 86.1,-22 213.4,126.7 505.9,141.2 680.4,33.8 13.6,-8.4 29.3,-11 44.1,-8.3"
         style="fill:#681f0f;fill-opacity:1;fill-rule:nonzero;stroke:none"
         id="path12977" />
      <path
         d="m 14483.9,13723.5 c -413.8,95.5 -1116.2,14.3 -1723.2,-144 -660,-172.1 -1315.8,-441.2 -1615.3,-770.7 -198.2,-217.9 -175.5,-1451.9 -85.5,-1326.4 103,143.6 287.5,296 519.3,442.6 -3.1,135.9 87.7,500.5 110.8,551.8 5.2,-70.8 48.1,-313.6 72.2,-442.6 294.1,165.6 640.6,318.3 987.3,435.6 -43.8,132.4 -24.6,324.9 -26.7,334.2 51.7,-29.3 185,-195.3 241.9,-265.9 52.7,15.5 105.2,30.1 157.3,43.7 477.1,124.4 838.1,186.7 1133.9,206.3 -128.2,411 -165.5,540.1 -160.5,511.1 74.8,-74.4 208.6,-310.8 266.7,-505.7 111.6,3.7 213.9,1 309.9,-6.9 -23.9,123.2 -49.7,325.9 -54.8,360 43.1,-12.5 185.6,-260.8 245.1,-383.2 163.8,-26.7 314.3,-68.2 470.9,-117.1 171.1,-53.5 -515.8,1000.2 -849.3,1077.2"
         style="fill:#752a15;fill-opacity:1;fill-rule:nonzero;stroke:none"
         id="path12979" />
      <path
         d="m 14342.6,10906.1 c 0,0 622.6,-94.7 762.6,311 170.7,494.4 -313.7,752.3 -563.7,628.2 -231.3,-114.9 -398.5,-414.4 -198.9,-939.2"
         style="fill:#f9fdff;fill-opacity:1;fill-rule:nonzero;stroke:none"
         id="path12981" />
      <path
         d="m 15025.7,11784.4 c -141.4,136.1 -295.5,155.4 -446.8,103.7 -154.6,-52.7 -286,-220.7 -301.1,-368.1 51.2,173.4 185.9,261.7 272.4,304.6 137.6,68.5 346.1,31.8 466.5,-106.1 107.1,-122.8 146.5,-332.8 83.9,-514.2 91.6,133.8 72.4,438.4 -74.9,580.1"
         style="fill:#773220;fill-opacity:1;fill-rule:nonzero;stroke:none"
         id="path12983" />
      <path
         d="m 14372.5,11409.4 c -18.2,-168.4 85.7,-332.6 231.9,-366.8 146.3,-34.2 279.7,74.6 297.9,243 18.2,168.5 -85.7,332.7 -232,366.9 -146.2,34.2 -279.6,-74.6 -297.8,-243.1"
         style="fill:#621c10;fill-opacity:1;fill-rule:nonzero;stroke:none"
         id="path12985" />
      <path
         d="m 14382.7,11462.6 c -5,-46.7 23.8,-92.3 64.4,-101.8 40.5,-9.5 77.5,20.7 82.6,67.5 5,46.7 -23.8,92.3 -64.4,101.8 -40.5,9.4 -77.5,-20.7 -82.6,-67.5"
         style="fill:#fefffe;fill-opacity:1;fill-rule:nonzero;stroke:none"
         id="path12987" />
      <path
         d="m 13316.1,10680.1 c 0,0 -634.6,-365.8 -972.3,-63.1 -411.5,368.8 -2,819.5 326.9,820.3 304.3,0.7 623.1,-194 645.4,-757.2"
         style="fill:#f9fdff;fill-opacity:1;fill-rule:nonzero;stroke:none"
         id="path12989" />
      <path
         d="m 12171.3,11164.3 c 91.8,186.3 250.8,273.2 439.1,294.8 192.4,22 412.2,-70.1 496,-196.2 -135,133.2 -321.9,152.1 -435.7,151.8 -181.2,-0.2 -391.3,-127.2 -459.5,-305.8 -60.5,-159 -7.5,-366.1 143.5,-501.4 -160.9,79.3 -279.1,362.6 -183.4,556.8"
         style="fill:#773220;fill-opacity:1;fill-rule:nonzero;stroke:none"
         id="path12991" />
      <path
         d="m 12395.7,10981.8 c -28.4,-170.8 87,-332.3 257.8,-360.8 170.9,-28.4 332.4,87 360.8,257.9 28.5,170.8 -87,332.3 -257.8,360.8 -170.8,28.4 -332.4,-87 -360.8,-257.9"
         style="fill:#621c10;fill-opacity:1;fill-rule:nonzero;stroke:none"
         id="path12993" />
      <path
         d="m 12409.9,11035.9 c -7.9,-47.3 24.1,-92.1 71.6,-100 47.3,-8 92.2,24.1 100,71.5 7.9,47.4 -24.1,92.2 -71.5,100.1 -47.4,7.9 -92.2,-24.1 -100.1,-71.6"
         style="fill:#fefffe;fill-opacity:1;fill-rule:nonzero;stroke:none"
         id="path12995" />
      <path
         d="m 10521,11617.7 c 0,0 -53.7,-378.4 155.1,-327 208.8,51.4 340.2,247.2 293.4,437.4 -46.8,190.1 -254,302.6 -462.8,251.3 -208.8,-51.4 14.3,-361.7 14.3,-361.7"
         style="fill:#f89522;fill-opacity:1;fill-rule:nonzero;stroke:none"
         id="path12997" />
      <path
         d="m 11642.3,11893.6 c 0,0 223.1,-310.3 14.3,-361.7 -208.8,-51.4 -416,61.2 -462.8,251.4 -46.8,190.1 84.5,385.9 293.4,437.3 208.8,51.4 155.1,-327 155.1,-327"
         style="fill:#f89522;fill-opacity:1;fill-rule:nonzero;stroke:none"
         id="path12999" />
      <path
         d="m 11221.2,11784.9 c 22.2,-90.4 -24.2,-179.5 -103.8,-199.1 -79.5,-19.5 -162,37.9 -184.2,128.2 -22.2,90.4 24.2,179.5 103.7,199.1 79.6,19.5 162.1,-37.9 184.3,-128.2"
         style="fill:#f89522;fill-opacity:1;fill-rule:nonzero;stroke:none"
         id="path13001" />
      <path
         d="m 12293.9,6322.31 c 34.2,-21.3 340.1,407.41 308.3,431.93 -475.8,366.29 -1009.5,959.47 -1124.6,1086.86 0,0 -379.4,-334.73 -307.8,-675.34 57.1,-271.22 673.1,-562.21 1124.1,-843.45"
         style="fill:#fac09f;fill-opacity:1;fill-rule:nonzero;stroke:none"
         id="path13003" />
      <path
         d="m 11368.7,7753.48 c 25.7,-224.54 277.5,-469.62 520.6,-552.64 118.3,118.85 741.1,676.2 749.4,705.79 148.7,530.43 -156.9,851.87 -160.7,877.85 -284.1,-43.88 -519.9,-381.39 -1109.3,-1031"
         style="fill:#fac09f;fill-opacity:1;fill-rule:nonzero;stroke:none"
         id="path13005" />
    </g>
  </g>
</svg>
