<?xml version="1.0" encoding="UTF-8"?>
<svg id="Uncle" xmlns="http://www.w3.org/2000/svg" viewBox="0 0 1000 1000">
  <defs>
    <style>
      .cls-1 {
        fill: #7a635f;
      }

      .cls-2 {
        font-family: MicrosoftSansSerif, 'Microsoft Sans Serif';
        font-size: 80px;
      }

      .cls-3 {
        fill: #fff;
      }

      .cls-4 {
        fill: #fed1a5;
        stroke: #d6a47c;
      }

      .cls-4, .cls-5 {
        stroke-miterlimit: 10;
        stroke-width: 3px;
      }

      .cls-6 {
        fill: #d88494;
      }

      .cls-7 {
        font-family: FreeSansBold, FreeSans;
        font-size: 150px;
      }

      .cls-8 {
        fill: #706664;
      }

      .cls-9 {
        letter-spacing: 0em;
      }

      .cls-10 {
        letter-spacing: 0em;
      }

      .cls-11 {
        letter-spacing: -.01em;
      }

      .cls-12 {
        fill: #eabf98;
      }

      .cls-13 {
        letter-spacing: 0em;
      }

      .cls-14 {
        fill: #de95a0;
      }

      .cls-15 {
        fill: #231f20;
      }

      .cls-5 {
        fill: #6f5753;
        stroke: #604946;
      }

      .cls-16 {
        fill: red;
      }
    </style>
  </defs>
  <g>
    <path class="cls-4" d="M208.45,339.85s-38.04,9.73-41.58,39.81,7.08,54.85,22.12,65.47c15.04,10.62,36.27,15.04,36.27,15.04,0,0,38.04,95.55,106.17,133.59,68.12,38.04,126.51,44.24,153.06,44.24s127.4-16.81,180.48-55.74c53.08-38.93,87.59-85.82,95.55-101.74,0,0,59.28-11.5,69.01-47.77s.88-53.97-6.19-59.28-30.96-15.92-30.96-15.92l-6.19-166.33-163.67-58.39-264.53,6.19-84.93,43.35-48.66,126.51-15.92,30.96Z"/>
    <path class="cls-14" d="M395.12,516.79s3.54,63.7,38.04,75.2c34.5,11.5,84.93,8.85,101.74-1.77,16.81-10.62,37.16-43.35,39.81-63.7s-61.93-18.58-61.93-18.58c0,0-64.58-5.31-84.93,0s-32.73,8.85-32.73,8.85Z"/>
    <path class="cls-8" d="M324.34,314.2s17.69-15.04,33.62-7.96c0,0,10.62,5.31,13.27,8.85,0,0-3.54-13.27-17.69-15.04s-26.54,7.96-29.2,14.16Z"/>
    <path class="cls-8" d="M603.03,335.43s11.5-8.85,22.12-7.08,18.58,6.19,20.35,8.85l1.77,2.65s-4.42-15.04-13.27-16.81-16.81-.88-22.12,1.77-8.85,10.62-8.85,10.62Z"/>
    <path class="cls-4" d="M485.36,440.71s-11.5-4.42-12.39,1.77,5.31,12.39,10.62,10.62"/>
    <path class="cls-12" d="M214.64,431.86s-1.77-13.27-5.31-17.69-8.85-1.77-3.54-9.73,8.85-14.16,3.54-25.66c-5.31-11.5-10.62-20.35-18.58-15.92s-14.16,23.89-13.27,24.77,7.96-19.46,16.81-16.81,5.31,24.77,5.31,28.31-1.77,15.04,.88,19.46,9.73,16.81,14.16,13.27Z"/>
    <path class="cls-12" d="M773.78,453.1s7.08-17.69,13.27-20.35,10.62-5.31,7.08-11.5-3.54-15.92,0-21.23,7.08-16.81,15.04-11.5,14.16,15.92,14.16,18.58-7.96-10.62-14.16-8.85-11.5,7.08-10.62,13.27,5.31,13.27,2.65,18.58-5.31,7.96-9.73,12.39-17.69,10.62-17.69,10.62Z"/>
    <path class="cls-12" d="M741.04,314.2c0-4.42-16.81-57.51-25.66-69.89s-15.04-15.04-15.04-15.04c0,0-36.27,28.31-69.01,30.96s-96.43-1.77-114.13-7.96c-17.69-6.19-44.24-28.31-44.24-28.31,0,0,191.1-38.93,191.98-39.81s69.01,1.77,69.01,1.77l25.66,42.47-18.58,85.82Z"/>
    <path class="cls-12" d="M280.99,285l-10.62,24.77s-7.08-26.54-6.19-33.62-2.65-34.5-2.65-34.5c0,0,33.62-38.93,34.5-38.93s23.89,4.42,23.89,4.42l-38.93,77.85Z"/>
    <path class="cls-5" d="M233.22,407.97s-26.34-63.85-29.98-66.43,9.63-130.86,41.48-172.44,89.36-100.86,184.02-114.13c94.66-13.27,166.33-14.16,215.87,0s85.82,52.2,85.82,52.2c0,0,76.09,21.23,85.82,69.01s16.81,96.43,8.85,127.4-26.54,69.01-26.54,69.01l-30.96,53.97s4.42-122.97-2.65-140.67c0,0-20.35,45.12-25.66,49.54,0,0,4.42-53.97-4.42-78.74s-26.54-56.62-36.27-61.93c0,0-39.81,49.54-84.05,57.51-44.24,7.96-100.86-.88-146.86-16.81-46.01-15.92-82.28-21.23-100.86-15.92s-53.97,17.69-67.24,40.7c-13.27,23-26.54,44.24-26.54,44.24,0,0,.88-70.78,13.27-84.93,0,0-26.54,22.12-35.39,74.32-8.85,52.2-15.92,77.85-15.04,92.01s-2.65,22.12-2.65,22.12Z"/>
    <path class="cls-1" d="M726.89,112.48s-29.2-32.73-61.93-43.35c-32.73-10.62-76.09-15.04-92.01-15.92s-64.58,1.77-64.58,1.77c0,0,120.32,15.92,142.44,23.89,22.12,7.96,36.27,14.16,47.77,25.66,11.5,11.5,22.12,22.12,22.12,22.12,0,0,54.85,11.5,63.7,17.69s22.12,23,25.66,31.85c0,0-2.65-26.54-25.66-38.93s-28.31-22.12-57.51-24.77Z"/>
    <path class="cls-6" d="M409.72,565.9s9.73,19.46,29.2,25.66c19.46,6.19,53.97,7.08,59.28,6.19s30.96-5.31,33.62-7.08,10.62-8.85,10.62-8.85c0,0-84.05-31.85-132.71-15.92Z"/>
    <path class="cls-5" d="M381.78,523.73s153.95-19.99,212.47,11.73c0,0-30.63-41.16-55.8-49.32-25.17-8.16-70.12-12.74-87.9-9.95-17.78,2.78-42.05,19.46-50.08,23.54s-18.69,24-18.69,24Z"/>
    <circle class="cls-15" cx="348.19" cy="385.53" r="25.2"/>
    <circle class="cls-3" cx="335.59" cy="376.34" r="5.94"/>
    <circle class="cls-15" cx="613.8" cy="394.72" r="25.2"/>
    <circle class="cls-3" cx="601.2" cy="385.53" r="5.94"/>
  </g>
  <text class="cls-7" transform="translate(294.65 802.29)"><tspan class="cls-16" x="0" y="0">U</tspan><tspan class="cls-10" x="108.3" y="0">n</tspan><tspan class="cls-11" x="199.2" y="0">c</tspan><tspan class="cls-13" x="280.35" y="0">l</tspan><tspan class="cls-9" x="320.55" y="0">e</tspan></text>
  <text class="cls-2" transform="translate(409.43 903)"><tspan x="0" y="0">อังเคิล</tspan></text>
</svg>