<?xml version="1.0" encoding="UTF-8"?>
<svg id="Van" xmlns="http://www.w3.org/2000/svg" viewBox="0 0 1000 1000">
  <defs>
    <style>
      .cls-1 {
        fill: #a8d400;
      }

      .cls-1, .cls-2, .cls-3, .cls-4, .cls-5, .cls-6, .cls-7, .cls-8, .cls-9 {
        stroke-miterlimit: 10;
        stroke-width: 3px;
      }

      .cls-1, .cls-2, .cls-3, .cls-5 {
        stroke: #6d7f03;
      }

      .cls-10 {
        font-family: MicrosoftSansSerif, 'Microsoft Sans Serif';
        font-size: 80px;
      }

      .cls-11 {
        font-family: FreeSansBold, FreeSans;
        font-size: 150px;
      }

      .cls-12 {
        fill: red;
        letter-spacing: -.05em;
      }

      .cls-13 {
        fill: #8fb400;
      }

      .cls-2 {
        fill: #accdff;
      }

      .cls-3 {
        fill: #f8feff;
      }

      .cls-4 {
        fill: #6b6b6b;
        stroke: #3d3d3d;
      }

      .cls-14 {
        fill: #d4e8ff;
      }

      .cls-15 {
        fill: #494949;
      }

      .cls-5 {
        fill: #b7e00b;
      }

      .cls-16 {
        letter-spacing: 0em;
      }

      .cls-6 {
        fill: #fff;
        stroke: #333;
      }

      .cls-7 {
        fill: #666563;
      }

      .cls-7, .cls-9 {
        stroke: #282828;
      }

      .cls-8 {
        fill: #efe6bf;
        stroke: #af8f0b;
      }

      .cls-9 {
        fill: #454442;
      }
    </style>
  </defs>
  <g>
    <g>
      <path class="cls-9" d="M154.09,490.17s0,38.76,25.19,54.91c25.19,16.15,52.32,10.34,55.55,7.75s-2.58-50.57-2.58-50.57l-78.16-12.09Z"/>
      <path class="cls-7" d="M181.86,488.88s-7.11,33.59,12.92,54.26c20.02,20.67,40.05,12.92,51.68,1.94,11.63-10.98,20.02-16.79,20.67-22.61s-85.27-33.59-85.27-33.59Z"/>
    </g>
    <g>
      <path class="cls-9" d="M482.87,533s-1.1,40.17,12.11,53.37c13.21,13.21,39.62,9.35,45.12,8.25,5.5-1.1,18.16-38.52,18.16-38.52l-11-91.89,8.25-5.5,6.05-2.75s-21.46-11.55-47.87-5.5c-26.41,6.05-30.81,82.54-30.81,82.54Z"/>
      <path class="cls-7" d="M529.09,474.12s-18.71,32.46-15.41,79.23c3.3,46.77,18.71,42.26,27.51,40.66,8.8-1.59,18.71-11.5,27.51-39.56,8.8-28.06,8.25-64.93,3.3-80.33-4.95-15.41-7.15-20.91-24.76-19.81,0,0-11,2.75-18.16,19.81Z"/>
      <path class="cls-6" d="M543.4,564.91s-16.51-1.65-16.51-26.41,7.15-50.62,19.26-55.57c12.11-4.95,15.96,8.8,17.61,20.36,1.65,11.55,1.65,39.07-9.35,52.82,0,0-3.85,8.8-11,8.8Z"/>
    </g>
    <g>
      <path class="cls-9" d="M765.15,428.77s-.95,34.82,10.49,46.27c11.45,11.45,34.35,8.11,39.12,7.16,4.77-.95,15.74-33.39,15.74-33.39l-9.54-79.67,7.16-4.77,5.25-2.39s-18.6-10.02-41.5-4.77-26.71,71.56-26.71,71.56Z"/>
      <path class="cls-7" d="M805.22,377.72s-16.22,28.15-13.36,68.69c2.86,40.55,16.22,36.64,23.85,35.25s16.22-9.97,23.85-34.3c7.63-24.33,7.16-56.29,2.86-69.65-4.29-13.36-6.2-18.13-21.47-17.17,0,0-9.54,2.39-15.74,17.17Z"/>
      <path class="cls-6" d="M817.63,456.43s-14.31-1.43-14.31-22.9,6.2-43.89,16.7-48.18c10.49-4.29,13.83,7.63,15.27,17.65,1.43,10.02,1.43,33.87-8.11,45.8,0,0-3.34,7.63-9.54,7.63Z"/>
    </g>
    <path class="cls-5" d="M238.06,145.23v-5.81s377.24-51.68,409.54-51.68,229.31,26.48,231.9,29.07c2.58,2.58-67.18,46.51-67.18,46.51l-317.16-7.75-257.09-10.34Z"/>
    <path class="cls-1" d="M126.31,464.33s14.86-151.8,25.19-178.93,73.64-139.53,85.91-145.99c12.27-6.46,303.6,3.23,337.83,12.27,34.24,9.04-35.53,266.78-35.53,266.78l-70.41,93.02-82.04,30.36L126.31,464.33Z"/>
    <path class="cls-1" d="M454.46,522.47s11.63-182.81,20.67-213.81c9.04-31.01,48.98-122.03,71.06-160.84,0,0,296.66-39.6,318.25-34.94,8.05,1.74,14.67,3.89,17.65,6.52,10.98,9.69,3.23,113.69,1.29,142.11-1.94,28.42-1.29,107.23-6.46,129.84-2.58,11.3-8.4,18.09-15.91,23.58-.67,.49-3.38,1.51-7.76,2.95-1.57,.52-.24-20.13-6.04-33.63-5.09-11.84-17.34-16.77-19.38-16.15-7.09,2.17-18.88-11.05-26.48-8.4-6.55,2.28-8.55,20.34-18.73,23.25-5.53,1.58-5.99,57.52-11.83,59.18-79.19,22.55-182.59,51.34-188.41,55.15,0,0-7.11-65.89-20.02-65.89s-52.32,45.86-52.32,45.86l-7.11,45.22h-48.45Z"/>
    <path class="cls-2" d="M227.08,173.01s219.62,4.52,286.8,12.27c0,0-49.74,111.75-53.61,126.61-3.88,14.86-302.31-9.69-293.91-23.25,8.4-13.57,49.09-107.23,60.72-115.63Z"/>
    <path class="cls-13" d="M184.77,330.3c3.2,.44,46.83,4.2,89.46,8.07,42.63,3.88,82.36,9.37,101.09,10.66,18.73,1.29,36.82,8.4,40.05,19.38s23.9,111.75,28.42,142.11c4.52,30.36-300.69-31.97-303.28-43.6s30.04-138.56,44.25-136.62Z"/>
    <path class="cls-4" d="M488.05,497.28s28.42,1.94,25.19,8.4c-3.23,6.46-42.63,30.36-42.63,30.36l-135.65-17.44-185.39-38.11-32.3-20.02-1.94-10.98s9.04-4.52,12.92-2.58c3.88,1.94,36.17,17.44,169.24,36.82,133.07,19.38,138.69,20.59,157.2,22.24,18.5,1.66,33.36-8.68,33.36-8.68Z"/>
    <path class="cls-4" d="M513.24,505.67s-10.34,20.67-31.01,34.24c-20.67,13.57-75.58,9.04-112.4,5.17-36.82-3.88-178.28-25.84-214.46-43.92-36.17-18.09-38.76-14.21-41.99-31.65s.65-22.61,3.23-20.02,24.55,15.5,49.09,21.96c24.55,6.46,160.2,28.42,160.2,28.42,0,0,104,13.57,136.94,16.79,32.94,3.23,50.38-10.98,50.38-10.98Z"/>
    <path class="cls-6" d="M223.85,488.23v24.55s72.35,13.57,74.93,12.92,0-23.9,0-23.9l-74.93-13.57Z"/>
    <path class="cls-8" d="M424.74,430.74c-2.58,.67-14.21-1.94-13.57-10.98,.65-9.04,7.11-20.02,16.15-15.5s12.27,22.61-2.58,26.48Z"/>
    <path class="cls-8" d="M156.02,405.55c-2.58,.67-14.21-1.94-13.57-10.98,.65-9.04,7.11-20.02,16.15-15.5s12.27,22.61-2.58,26.48Z"/>
    <path class="cls-4" d="M580.96,479.32c2.68-.13,178.38-50.51,178.38-50.51,0,0,26.57-5.81,22.65,0-3.92,5.81-9.08,17.44-9.08,17.44l-191.85,54.91-.1-21.84Z"/>
    <path class="cls-4" d="M849.78,406.84s1.96,12.15,4.52,12.92,23.9-10.34,26.48-13.57c2.58-3.23,5.17-21.96,1.29-21.96s-32.3,14.86-32.3,14.86v7.75Z"/>
    <path class="cls-4" d="M486.11,498.57s17.44,7.11,23.9,4.52c6.46-2.58,11.63-35.53,25.84-43.28,14.21-7.75,27.13-7.11,30.36-1.29,3.23,5.81,13.57,38.11,13.57,38.11,0,0,.65,2.58,2.58,0,1.94-2.58,1.29-41.34-1.29-53.61-2.58-12.27-6.46-28.42-36.17-25.84-29.71,2.58-43.28,37.47-46.51,43.28-3.23,5.81-12.27,38.11-12.27,38.11Z"/>
    <path class="cls-4" d="M754.09,432.53s18.03,5.45,24.22,2.27c6.19-3.17,10.9-49.28,24.32-58.32,13.43-9.04,32.42-2.9,36.17,2.58,3.76,5.49,12.88,40.87,12.88,40.87,0,0,.88,2.51,2.57-.24,1.69-2.75-3.99-40.27-7.7-52.25-3.72-11.98-12.18-26.77-41.53-21.42-29.34,5.34-39.6,41.34-42.27,47.43-2.67,6.09-8.67,39.09-8.67,39.09Z"/>
    <path class="cls-14" d="M306.86,185.6s-77.19,6.14-97.22,90.11c0,0,.32,17.12,9.37,21.64,0,0-41.99-6.46-42.63-9.69s49.09-100.77,49.09-100.77c0,0,56.84-.65,81.39-1.29Z"/>
    <path class="cls-2" d="M539.72,187.86c-1.29,.65-47.15,116.92-47.8,120.79s91.73-14.21,100.12-20.67c8.4-6.46,16.79-109.17,11.63-109.17s-63.95,9.04-63.95,9.04Z"/>
    <path class="cls-2" d="M656.64,175.59c-1.13,.9-16.15,102.06-5.17,102.06s204.12-28.42,209.29-36.82c5.17-8.4,6.46-96.25,6.46-96.25,0,0-207.35,28.42-210.58,31.01Z"/>
    <path class="cls-4" d="M587.2,308.98s-18.73,1.94-18.73,3.88-2.58,4.52,5.17,4.52,13.57-4.52,13.57-4.52c0,0,2.58-3.88,0-3.88Z"/>
    <path class="cls-4" d="M662.13,292.19c2.66,0,23.9-3.23,23.9-3.23v7.11l-23.9,1.94s-1.29-5.81,0-5.81Z"/>
    <path class="cls-14" d="M600.44,209.18s-4.52,69.76-12.27,74.28-71.7,18.09-71.7,18.09c0,0,88.5-69.76,83.97-92.37Z"/>
    <path class="cls-14" d="M861.41,151.04s-1.29,85.91-7.11,87.85-106.58,21.32-111.75,21.96-52.32,7.11-52.32,7.11c0,0,76.87-49.09,74.93-60.72-1.94-11.63-5.81-36.82-7.75-38.11s104-18.09,104-18.09Z"/>
    <polygon class="cls-14" points="478.03 354.2 874.65 272.16 874.65 281.85 476.74 365.82 478.03 354.2"/>
    <polygon class="cls-14" points="477.39 370.99 874.65 287.02 874.65 296.71 476.74 380.68 477.39 370.99"/>
    <path class="cls-13" d="M764.84,377.45s-10.98,23.9-10.98,39.4l-2.58,9.04-164.07,47.15s1.94-23.25,0-29.07c-1.94-5.81-7.75-16.79-7.75-16.79,0,0,17.44,20.02,18.09,25.84,.65,5.81-1.29,6.46,6.46,7.11,7.75,.65,135.65-34.24,140.82-40.7,5.17-6.46,12.27-35.53,20.02-41.99Z"/>
    <path class="cls-13" d="M848.81,362.59s5.81,25.84,6.46,27.78,20.02-7.11,20.02-7.11c0,0-10.98,.65-14.86-1.94s-11.63-18.73-11.63-18.73Z"/>
    <path class="cls-13" d="M492.89,458.84s-9.04,28.42-10.34,32.3-7.75,7.75-10.34,7.75-11.63,1.29-11.63,1.29c0,0,11.63-5.17,18.09-12.92,6.46-7.75,14.21-28.42,14.21-28.42Z"/>
    <path class="cls-3" d="M173.01,331.08s-21.38-4.93-23.02,16.44,17.27,24.67,24.67,20.55,14.8-16.44,13.98-23.02-10.69-13.16-15.62-13.98Z"/>
    <path class="cls-3" d="M407.49,353.69s-21.38-4.93-23.02,16.44c-1.64,21.38,17.27,24.67,24.67,20.55s14.8-16.44,13.98-23.02-10.69-13.16-15.62-13.98Z"/>
    <path class="cls-1" d="M207.7,350.64c2.74-2.74,151.8,15.5,153.09,18.09s-.65,58.14-5.81,57.49-148.57-18.09-152.45-19.38,1.29-52.32,5.17-56.2Z"/>
    <g>
      <path class="cls-15" d="M211.86,354.93s87.32,18.23,142.24,18.65c0,0,3.09,4.62-.2,6.46-3.29,1.84-102.5-8.37-142.22-19.3,0,0-3.17-2.04,.18-5.81Z"/>
      <path class="cls-15" d="M210.18,367.16s87.32,18.23,142.24,18.65c0,0,3.09,4.62-.2,6.46s-102.5-8.37-142.22-19.3c0,0-3.17-2.04,.18-5.81Z"/>
      <path class="cls-15" d="M209.8,379.43s87.32,18.23,142.24,18.65c0,0,3.09,4.62-.2,6.46s-102.5-8.37-142.22-19.3c0,0-3.17-2.04,.18-5.81Z"/>
      <path class="cls-15" d="M208.15,391.01s87.32,18.23,142.24,18.65c0,0,3.09,4.62-.2,6.46s-102.5-8.37-142.22-19.3c0,0-3.17-2.04,.18-5.81Z"/>
    </g>
  </g>
  <text class="cls-11" transform="translate(370.03 802.6)"><tspan class="cls-12" x="0" y="0">V</tspan><tspan class="cls-16" x="92.55" y="0">a</tspan><tspan x="174.45" y="0">n</tspan></text>
  <text class="cls-10" transform="translate(431.29 902.3)"><tspan x="0" y="0">แวน</tspan></text>
</svg>