<?xml version="1.0" encoding="UTF-8"?>
<svg id="Vase" xmlns="http://www.w3.org/2000/svg" viewBox="0 0 1000 1000">
  <defs>
    <style>
      .cls-1 {
        font-family: MicrosoftSansSerif, 'Microsoft Sans Serif';
        font-size: 80px;
      }

      .cls-2 {
        fill: #b7a05c;
      }

      .cls-3 {
        font-family: FreeSansBold, FreeSans;
        font-size: 150px;
      }

      .cls-4 {
        fill: red;
        letter-spacing: -.05em;
      }

      .cls-5 {
        letter-spacing: 0em;
      }

      .cls-6 {
        fill: #b7a96a;
        stroke: #a09150;
      }

      .cls-6, .cls-7, .cls-8, .cls-9, .cls-10, .cls-11 {
        stroke-miterlimit: 10;
        stroke-width: 3px;
      }

      .cls-7 {
        fill: #309941;
        stroke: #305e1d;
      }

      .cls-8 {
        fill: #dbd745;
        stroke: #eadf53;
      }

      .cls-9 {
        fill: #c43562;
      }

      .cls-9, .cls-10 {
        stroke: #d1223f;
      }

      .cls-10 {
        fill: #db5283;
      }

      .cls-12 {
        letter-spacing: 0em;
      }

      .cls-11 {
        fill: #6796c4;
        stroke: #4b84b2;
      }
    </style>
  </defs>
  <g>
    <path class="cls-7" d="M567.06,197s-54.42,58.96-57.15,109.76-8.16,20.86-8.16,20.86c0,0-1.81-25.4,0-27.21s46.26-103.41,56.24-107.94c9.98-4.54,9.07,4.54,9.07,4.54Z"/>
    <path class="cls-7" d="M439.16,226.02s53.52,67.12,63.49,79.82c9.98,12.7,6.35,24.49,6.35,24.49,0,0-44.45-78.01-68.94-86.17-24.49-8.16-.91-18.14-.91-18.14Z"/>
    <path class="cls-7" d="M500.84,296.77c-1.81-10.88-39.91-151.48-49.89-162.37s-26.31-23.58-26.31-23.58l-6.35,8.16,25.4,21.77,51.7,156.02h5.44Z"/>
    <path class="cls-6" d="M527.6,666.41s46.26,.91,58.96-7.26c12.7-8.16-39.91-223.14-39.91-223.14,0,0-25.4-135.15-19.05-146.04,6.35-10.88-58.05-.91-59.87,0s9.98,61.68,8.16,89.8c-1.81,28.12-8.16,244.91-8.16,244.91v30.84s0,13.61,25.4,10.88,34.47,0,34.47,0Z"/>
    <path class="cls-2" d="M476.35,653.25s52.61-39.91,57.15-78.01c4.54-38.1,.91-81.64,3.63-107.94,2.72-26.31,0-68.03,0-68.03,0,0,29.93,152.39,31.75,159.64,1.81,7.26,13.61,71.66,10.88,82.54-2.72,10.88-7.26,19.05-30.84,19.96-23.58,.91-58.96,.91-66.22,0-7.26-.91-10.88-1.81-10.88-4.54s4.54-3.63,4.54-3.63Z"/>
    <g>
      <path class="cls-10" d="M440.97,159.81s-23.58,4.54-35.38,0c-11.79-4.54-22.68-2.72-29.03-15.42s-12.7-19.05-18.14-24.49,1.81-6.35,9.07-27.21c7.26-20.86,5.44-39,20.86-42.63,15.42-3.63,37.19-12.7,52.61-7.26s42.63,9.07,49.89,17.23,18.14,29.03,9.98,37.19-18.14,22.68-26.31,34.47c-8.16,11.79-5.44,31.75-33.56,28.12Z"/>
      <path class="cls-10" d="M361.13,107.06s-3.61,5.58,10.91,14.65,13.61,15.42,29.93,11.79,16.33-12.7,32.65-17.23c16.33-4.54,27.21-1.81,33.56-11.79,6.35-9.98,15.42-19.96,19.05-29.93s6.35-22.68-4.54-27.21-19.62,1.58-27.95-.57-15.59-4.87-29.19-5.78c-13.61-.91-25.4-3.63-31.75,0s-25.4,10.88-23.58,23.58c1.81,12.7,15.42,22.68,9.07,29.93-6.35,7.26-17.28,9.71-18.16,12.56Z"/>
      <path class="cls-10" d="M397.43,84.52c-1.81,7.26,11.79,24.49,26.31,19.96,14.51-4.54,26.31-6.35,29.03-14.51s25.4-22.68-2.72-25.4c-28.12-2.72-19.05-17.23-36.28-14.51s-27.21,11.79-20.86,20.86,4.54,13.61,4.54,13.61Z"/>
      <path class="cls-9" d="M418.3,84.52c9.07-3.63,7.26-20.86,0-18.14-7.26,2.72-9.07,9.98-5.44,14.51s5.44,3.63,5.44,3.63Z"/>
      <path class="cls-10" d="M435.53,87.24c2.72-3.63,10.88-15.42,2.72-16.33s-14.51-7.26-17.23,0-10.88,19.05-3.63,20.86,18.14-4.54,18.14-4.54Z"/>
    </g>
    <g>
      <path class="cls-11" d="M526.24,223.3s-30.84-18.14-20.86-35.38c9.98-17.23,11.79-35.38,11.79-46.26s9.98-21.77,19.96-18.14,10.88,7.26,19.05,18.14c8.16,10.88,19.05,18.14,30.84,19.05s15.42,4.54,29.93,7.26c14.51,2.72,21.77,0,24.49,9.07,2.72,9.07-18.14,10.88-16.33,20.86,1.81,9.98,7.26,28.12-4.54,31.75-11.79,3.63-24.49,5.44-33.56,4.54-9.07-.91-29.03,1.81-60.77-10.88Z"/>
      <path class="cls-11" d="M540.75,214.23c-.83-.25-1.64-.37-2.44-.4-7.84-.27-13.98,8.54-23.87-9.58-10.88-19.96-19.96-19.96-14.51-29.93s8.16-19.05,19.96-21.77c11.79-2.72,25.4,3.63,29.03,4.54,3.63,.91,3.63-11.79,20.86-9.07,17.23,2.72,23.58,2.72,29.03,8.16,5.44,5.44,7.26,19.05,16.33,22.68s11.79,4.54,19.05,12.7c7.26,8.16,15.42,16.33,4.54,19.96s-33.56,4.54-40.82,4.54-10.88,7.26-25.4,4.54-31.75-6.35-31.75-6.35Z"/>
      <path class="cls-11" d="M551.64,197.9c-1.81-.91-17.23-.91-19.05-13.61-1.81-12.7,1.81-43.54,2.72-43.54s8.16-1.81,19.05,7.26c10.88,9.07,11.79,15.42,23.58,20.86s10.88,2.72,20.86,8.16c9.98,5.44,16.33,7.26,19.05,12.7,2.72,5.44-1.81,14.51-9.07,15.42-7.26,.91-11.79-1.81-26.31,0-14.51,1.81-30.84-7.26-30.84-7.26Z"/>
      <path class="cls-11" d="M588.83,192.46c-11.79-2.72-20.86-.91-24.49-8.16-3.63-7.26-13.61-14.51-3.63-10.88s16.33,9.98,19.05,9.07,9.07,9.98,9.07,9.98Z"/>
    </g>
    <g>
      <path class="cls-8" d="M494.85,233.27s-12.72,25.98-21.95,26.59-16.85-6.73-24.66-.87c-7.81,5.86-13.2,24.23-35.77,17.16-22.57-7.07-32.98-10.83-33.93-14.34s-15.57-8.95-7.56-28.03c8.01-19.07,6.29-28.94,20.7-34.71,14.42-5.77,26.81-1.59,40.22-14.6,13.4-13.01,13.33-16.75,28.93-18.14,15.6-1.39,23.01-5.26,33.25,1.37,10.24,6.63,17.32,8.48,21.97,22.26,4.65,13.78-21.21,43.3-21.21,43.3Z"/>
      <path class="cls-8" d="M466.66,243.69c-7.24,1.01-25.06,1.12-35.57,3.96s-35.47-2.65-29.72-12.65c5.76-10.01,15.22-9.74,19.16-23.02,3.94-13.27-1.39-15.6,9.29-21.29s15.86-10.85,27.48-13.05,21.73-3.04,31.03,.09c9.3,3.13,14.55,1.71,20.18,8.65,5.63,6.94,16.44,8.72,11.33,17.61-5.12,8.9-8.55,13.06-15.52,17.08s-14.62,7.02-22.67,12.01c-8.05,4.99-14.99,10.62-14.99,10.62Z"/>
      <path class="cls-8" d="M484.09,210.8s-8.72,16.44-15.82,24.94-15.49,19.21-26,22.04-13,11.02-25.4,6.85c-12.4-4.17-16,3.38-24.23-13.2-8.23-16.57-12.61-15.39-6.61-24.52,5.99-9.13,.84-14.32,16.13-20.32,15.29-6,23.01-5.26,34.16-9.21,11.15-3.95,7.17-4.75,25.23-3.99,18.06,.77,23.78,1.1,26.95,5.88s-4.41,11.52-4.41,11.52Z"/>
      <path class="cls-8" d="M465.63,212.02c-14.38,19.85-25.86,29.52-36.98,23.12-11.12-6.4-14.48,2.03-20.65-10.4s-15.7-16.43-9.88-22.7,6.06-5.39,17.14-13.08,.06-7.35,22.24-10.14c22.19-2.78,21.71-4.53,30.61,.58,8.9,5.12,15.97,10.45,14.12,15.78s-10.07,13.19-11.35,15.41-5.25,1.42-5.25,1.42Z"/>
      <path class="cls-8" d="M449.09,209.91c-.57,.15-1.23,.34-1.97,.55-6.1,1.74-17.14,4.83-17.84-.85-.78-6.37-4.52-6.3,5.92-12.87,10.44-6.57,20.48-11.16,22.94-9s1.79,13.61-1.24,16.31-7.81,5.86-7.81,5.86Z"/>
    </g>
  </g>
  <text class="cls-3" transform="translate(329.9 801.9)"><tspan class="cls-4" x="0" y="0">V</tspan><tspan class="cls-12" x="92.55" y="0">a</tspan><tspan class="cls-5" x="174.45" y="0">se</tspan></text>
  <text class="cls-1" transform="translate(439.61 902.61)"><tspan x="0" y="0">วาซ</tspan></text>
</svg>