<svg height="512" viewBox="0 0 512 512" width="512" xmlns="http://www.w3.org/2000/svg"><g id="_35.4" data-name="35.4"><path d="m326.45 318.72h-.45v-248.55a59.17 59.17 0 0 0 -108.27-33l-178.43 265.22a64.5 64.5 0 0 0 53.52 100.48h124.5a19.61 19.61 0 0 1 19.61 19.62v34a44.52 44.52 0 0 0 44.52 44.51 43.64 43.64 0 0 0 5-.28 28.93 28.93 0 0 1 -24.9-28.65v-36.47a9.42 9.42 0 0 1 -8.16-9.34v-5.26a24.92 24.92 0 0 1 24.92-24.92h71a42.46 42.46 0 0 0 6.84-5.55 42.07 42.07 0 0 0 -29.75-71.82zm-89.52-13.14a13.14 13.14 0 0 1 -13.13 13.14h-71.19a13.14 13.14 0 0 1 -10.86-20.54l71.19-104.45c7.28-10.68 24-5.53 24 7.4z" fill="#ccc"/><path d="m475.51 437.7v34.37a28.94 28.94 0 0 1 -28.94 28.93h-156.07a28.93 28.93 0 0 1 -28.93-28.93v-36.47a9.22 9.22 0 0 0 5.32-.85l.12-.06c5.1-2.44 10.37-5 20.8-5s15.71 2.53 20.8 5c4.75 2.28 9.22 4.43 18.37 4.43s13.63-2.15 18.37-4.43c5.1-2.44 10.37-5 20.8-5s15.71 2.53 20.81 5c4.74 2.28 9.21 4.43 18.37 4.43s13.67-2.12 18.36-4.43c5.1-2.44 10.37-5 20.81-5s15.7 2.53 20.8 5a54.34 54.34 0 0 0 6 2.58 9.23 9.23 0 0 0 4.21.43z" fill="#f17b89"/><path d="m483.67 421v7.33a9.4 9.4 0 0 1 -12.39 8.93 54.34 54.34 0 0 1 -6-2.58c-5.1-2.44-10.37-5-20.8-5s-15.71 2.53-20.81 5c-4.74 2.28-9.22 4.43-18.37 4.43s-13.61-2.11-18.3-4.42c-5.1-2.44-10.37-5-20.8-5s-15.71 2.53-20.8 5c-4.75 2.28-9.22 4.43-18.37 4.43s-13.63-2.15-18.37-4.43c-5.1-2.44-10.37-5-20.8-5s-15.71 2.53-20.81 5l-.11.06a9.42 9.42 0 0 1 -13.49-8.49v-5.26a24.92 24.92 0 0 1 24.93-24.92h180.36a24.92 24.92 0 0 1 24.93 24.92z" fill="#f7f5fb"/><g fill="#f28a72"><path d="m301.92 354.22c5.11 8-6.25 30.6-18.6 30.6-10.27 0-18.59-13.7-18.59-30.6 0-18 15.42-32.08 18.59-30.59 2.82 1.33-4.69 14.56 1.83 22.58 5.1 6.28 13.5 2.87 16.77 8.01z"/><path d="m358.31 354.22c5.11 8-6.25 30.6-18.6 30.6-10.27 0-18.59-13.7-18.59-30.6 0-18 15.42-32.08 18.59-30.59 2.82 1.33-4.69 14.56 1.83 22.58 5.1 6.28 13.51 2.87 16.77 8.01z"/><path d="m414.7 354.22c5.11 8-6.24 30.6-18.59 30.6-10.28 0-18.6-13.7-18.6-30.6 0-18 15.43-32.08 18.6-30.59 2.81 1.33-4.7 14.56 1.82 22.58 5.07 6.28 13.51 2.87 16.77 8.01z"/><path d="m471.1 354.22c5.1 8-6.25 30.6-18.6 30.6-10.27 0-18.6-13.7-18.6-30.6 0-18 15.43-32.08 18.6-30.59 2.82 1.33-4.7 14.56 1.82 22.58 5.1 6.28 13.51 2.87 16.78 8.01z"/></g><path d="m189.08 402.87h-96.26a64.49 64.49 0 0 1 -53.52-100.48l78.69-117a496.89 496.89 0 0 0 23.15 113.77 13.18 13.18 0 0 0 6.53 18.62 497.73 497.73 0 0 0 41.41 85.09z" fill="#bfbfbf"/></g></svg>