<?xml version="1.0" encoding="UTF-8" standalone="no"?>
<!-- Created with Inkscape (http://www.inkscape.org/) -->

<svg
   xmlns:dc="http://purl.org/dc/elements/1.1/"
   xmlns:cc="http://creativecommons.org/ns#"
   xmlns:rdf="http://www.w3.org/1999/02/22-rdf-syntax-ns#"
   xmlns:svg="http://www.w3.org/2000/svg"
   xmlns="http://www.w3.org/2000/svg"
   xmlns:sodipodi="http://sodipodi.sourceforge.net/DTD/sodipodi-0.dtd"
   xmlns:inkscape="http://www.inkscape.org/namespaces/inkscape"
   width="1000"
   height="1000"
   viewBox="0 0 264.58333 264.58334"
   version="1.1"
   id="svg2383"
   inkscape:version="0.92.5 (2060ec1f9f, 2020-04-08)"
   sodipodi:docname="sixteen.svg"
   enable-background="new">
  <defs
     id="defs2377" />
  <sodipodi:namedview
     id="base"
     pagecolor="#ffffff"
     bordercolor="#666666"
     borderopacity="1.0"
     inkscape:pageopacity="0.0"
     inkscape:pageshadow="2"
     inkscape:zoom="0.70710678"
     inkscape:cx="340.03812"
     inkscape:cy="496.19842"
     inkscape:document-units="px"
     inkscape:current-layer="layer1"
     showgrid="false"
     units="px"
     inkscape:window-width="1920"
     inkscape:window-height="1031"
     inkscape:window-x="0"
     inkscape:window-y="25"
     inkscape:window-maximized="1"
     showguides="true"
     inkscape:lockguides="true"
     inkscape:object-nodes="false" />
  <metadata
     id="metadata2380">
    <rdf:RDF>
      <cc:Work
         rdf:about="">
        <dc:format>image/svg+xml</dc:format>
        <dc:type
           rdf:resource="http://purl.org/dc/dcmitype/StillImage" />
        <dc:title></dc:title>
      </cc:Work>
    </rdf:RDF>
  </metadata>
  <g
     inkscape:groupmode="layer"
     id="layer3"
     inkscape:label="Layer 2" />
  <g
     inkscape:groupmode="layer"
     id="layer2"
     inkscape:label="Layer 3" />
  <g
     inkscape:label="Layer 1"
     inkscape:groupmode="layer"
     id="layer1"
     transform="translate(0,-32.41665)">
    <text
       xml:space="preserve"
       style="font-style:normal;font-variant:normal;font-weight:bold;font-stretch:normal;font-size:10.58333302px;line-height:1.25;font-family:sans-serif;-inkscape-font-specification:'sans-serif Bold';letter-spacing:0px;word-spacing:0px;fill:#000000;fill-opacity:1;stroke:none;stroke-width:0.26458332"
       x="150.05655"
       y="89.869026"
       id="text8811" />
    <text
       xml:space="preserve"
       style="font-style:normal;font-variant:normal;font-weight:bold;font-stretch:normal;font-size:10.58333302px;line-height:1.25;font-family:sans-serif;-inkscape-font-specification:'sans-serif Bold';letter-spacing:0px;word-spacing:0px;fill:#000000;fill-opacity:1;stroke:none;stroke-width:0.26458332"
       x="160.63989"
       y="97.806526"
       id="text8815" />
    <text
       xml:space="preserve"
       style="font-style:normal;font-variant:normal;font-weight:bold;font-stretch:normal;font-size:10.58333302px;line-height:1.25;font-family:sans-serif;-inkscape-font-specification:'sans-serif Bold';letter-spacing:0px;word-spacing:0px;fill:#000000;fill-opacity:1;stroke:none;stroke-width:0.26458332"
       x="156.86011"
       y="88.7351"
       id="text8819" />
    <flowRoot
       xml:space="preserve"
       id="flowRoot8821"
       style="font-style:normal;font-variant:normal;font-weight:bold;font-stretch:normal;font-size:40px;line-height:1.25;font-family:sans-serif;-inkscape-font-specification:'sans-serif Bold';letter-spacing:0px;word-spacing:0px;fill:#000000;fill-opacity:1;stroke:none"><flowRegion
         id="flowRegion8823"
         style="font-style:normal;font-variant:normal;font-weight:bold;font-stretch:normal;font-family:sans-serif;-inkscape-font-specification:'sans-serif Bold'" /><flowPara
         id="flowPara8827" /></flowRoot>    <flowRoot
       xml:space="preserve"
       id="flowRoot8829"
       style="font-style:normal;font-variant:normal;font-weight:bold;font-stretch:normal;font-size:40px;line-height:1.25;font-family:sans-serif;-inkscape-font-specification:'sans-serif Bold';letter-spacing:0px;word-spacing:0px;fill:#000000;fill-opacity:1;stroke:none"><flowRegion
         id="flowRegion8831"
         style="font-style:normal;font-variant:normal;font-weight:bold;font-stretch:normal;font-family:sans-serif;-inkscape-font-specification:'sans-serif Bold'" /><flowPara
         id="flowPara8835" /></flowRoot>    <flowRoot
       xml:space="preserve"
       id="flowRoot8837"
       style="font-style:normal;font-variant:normal;font-weight:bold;font-stretch:normal;font-size:40px;line-height:1.25;font-family:sans-serif;-inkscape-font-specification:'sans-serif Bold';letter-spacing:0px;word-spacing:0px;fill:#000000;fill-opacity:1;stroke:none"><flowRegion
         id="flowRegion8839"
         style="font-style:normal;font-variant:normal;font-weight:bold;font-stretch:normal;font-family:sans-serif;-inkscape-font-specification:'sans-serif Bold'" /><flowPara
         id="flowPara8843" /></flowRoot>    <text
       xml:space="preserve"
       style="font-style:normal;font-variant:normal;font-weight:bold;font-stretch:normal;font-size:10.58333302px;line-height:1.25;font-family:sans-serif;-inkscape-font-specification:'sans-serif Bold';letter-spacing:0px;word-spacing:0px;fill:#000000;fill-opacity:1;stroke:none;stroke-width:0.26458332"
       x="209.39882"
       y="107.25594"
       id="text8847" />
    <flowRoot
       xml:space="preserve"
       id="flowRoot8849"
       style="font-style:normal;font-variant:normal;font-weight:bold;font-stretch:normal;font-size:40px;line-height:1.25;font-family:sans-serif;-inkscape-font-specification:'sans-serif Bold';letter-spacing:0px;word-spacing:0px;fill:#000000;fill-opacity:1;stroke:none"><flowRegion
         id="flowRegion8851"
         style="font-style:normal;font-variant:normal;font-weight:bold;font-stretch:normal;font-family:sans-serif;-inkscape-font-specification:'sans-serif Bold'" /><flowPara
         id="flowPara8855" /></flowRoot>    <flowRoot
       xml:space="preserve"
       id="flowRoot8857"
       style="font-style:normal;font-variant:normal;font-weight:bold;font-stretch:normal;font-size:40px;line-height:1.25;font-family:sans-serif;-inkscape-font-specification:'sans-serif Bold';letter-spacing:0px;word-spacing:0px;fill:#000000;fill-opacity:1;stroke:none"><flowRegion
         id="flowRegion8859"
         style="font-style:normal;font-variant:normal;font-weight:bold;font-stretch:normal;font-family:sans-serif;-inkscape-font-specification:'sans-serif Bold'" /><flowPara
         id="flowPara8863" /></flowRoot>    <flowRoot
       xml:space="preserve"
       id="flowRoot8865"
       style="font-style:normal;font-variant:normal;font-weight:bold;font-stretch:normal;font-size:40px;line-height:1.25;font-family:sans-serif;-inkscape-font-specification:'sans-serif Bold';letter-spacing:0px;word-spacing:0px;fill:#000000;fill-opacity:1;stroke:none"><flowRegion
         id="flowRegion8867"
         style="font-style:normal;font-variant:normal;font-weight:bold;font-stretch:normal;font-family:sans-serif;-inkscape-font-specification:'sans-serif Bold'" /><flowPara
         id="flowPara8871" /></flowRoot>    <flowRoot
       xml:space="preserve"
       id="flowRoot8873"
       style="font-style:normal;font-variant:normal;font-weight:bold;font-stretch:normal;font-size:40px;line-height:1.25;font-family:sans-serif;-inkscape-font-specification:'sans-serif Bold';letter-spacing:0px;word-spacing:0px;fill:#000000;fill-opacity:1;stroke:none"><flowRegion
         id="flowRegion8875"
         style="font-style:normal;font-variant:normal;font-weight:bold;font-stretch:normal;font-family:sans-serif;-inkscape-font-specification:'sans-serif Bold'" /><flowPara
         id="flowPara8879" /></flowRoot>    <text
       xml:space="preserve"
       style="font-style:normal;font-weight:normal;font-size:10.58333302px;line-height:1.25;font-family:sans-serif;letter-spacing:0px;word-spacing:0px;fill:#000000;fill-opacity:1;stroke:none;stroke-width:0.26458332"
       x="101.02788"
       y="69.125984"
       id="text977"><tspan
         sodipodi:role="line"
         id="tspan975"
         x="101.02788"
         y="78.489754"
         style="stroke-width:0.26458332" /><tspan
         sodipodi:role="line"
         x="101.02788"
         y="91.718918"
         style="stroke-width:0.26458332"
         id="tspan979" /><tspan
         sodipodi:role="line"
         x="101.02788"
         y="104.94809"
         style="stroke-width:0.26458332"
         id="tspan981" /><tspan
         sodipodi:role="line"
         x="101.02788"
         y="118.17725"
         style="stroke-width:0.26458332"
         id="tspan983" /><tspan
         sodipodi:role="line"
         x="101.02788"
         y="131.40642"
         style="stroke-width:0.26458332"
         id="tspan985" /><tspan
         sodipodi:role="line"
         x="101.02788"
         y="144.63559"
         style="stroke-width:0.26458332"
         id="tspan987" /><tspan
         sodipodi:role="line"
         x="101.02788"
         y="157.86475"
         style="stroke-width:0.26458332"
         id="tspan989" /><tspan
         sodipodi:role="line"
         x="101.02788"
         y="171.09392"
         style="stroke-width:0.26458332"
         id="tspan991" /><tspan
         sodipodi:role="line"
         x="101.02788"
         y="184.32309"
         style="stroke-width:0.26458332"
         id="tspan993" /><tspan
         sodipodi:role="line"
         x="101.02788"
         y="197.55225"
         style="stroke-width:0.26458332"
         id="tspan995" /><tspan
         sodipodi:role="line"
         x="101.02788"
         y="210.78142"
         style="stroke-width:0.26458332"
         id="tspan997" /><tspan
         sodipodi:role="line"
         x="101.02788"
         y="224.01059"
         style="stroke-width:0.26458332"
         id="tspan999" /><tspan
         sodipodi:role="line"
         x="101.02788"
         y="237.23975"
         style="stroke-width:0.26458332"
         id="tspan1001" /><tspan
         sodipodi:role="line"
         x="101.02788"
         y="250.46892"
         style="stroke-width:0.26458332"
         id="tspan1003" /><tspan
         sodipodi:role="line"
         x="101.02788"
         y="263.69809"
         style="stroke-width:0.26458332"
         id="tspan1005" /><tspan
         sodipodi:role="line"
         x="101.02788"
         y="276.92725"
         style="stroke-width:0.26458332"
         id="tspan1007" /><tspan
         sodipodi:role="line"
         x="101.02788"
         y="290.1564"
         style="stroke-width:0.26458332"
         id="tspan1009" /><tspan
         sodipodi:role="line"
         x="101.02788"
         y="303.38559"
         style="stroke-width:0.26458332"
         id="tspan1011" /><tspan
         sodipodi:role="line"
         x="101.02788"
         y="316.61475"
         style="stroke-width:0.26458332"
         id="tspan1013" /><tspan
         sodipodi:role="line"
         x="101.02788"
         y="329.8439"
         style="stroke-width:0.26458332"
         id="tspan1015" /><tspan
         sodipodi:role="line"
         x="101.02788"
         y="343.07309"
         style="stroke-width:0.26458332"
         id="tspan1017" /><tspan
         sodipodi:role="line"
         x="101.02788"
         y="356.30225"
         style="stroke-width:0.26458332"
         id="tspan1019" /><tspan
         sodipodi:role="line"
         x="101.02788"
         y="369.5314"
         style="stroke-width:0.26458332"
         id="tspan1021" /><tspan
         sodipodi:role="line"
         x="101.02788"
         y="382.76059"
         style="stroke-width:0.26458332"
         id="tspan1023" /></text>
    <g
       id="g1374"
       transform="matrix(0.02743783,0,0,-0.02774695,-124.28528,578.2618)"
       style="stroke-width:1.47438908">
      <path
         d="m 8877.99,13212.7 c -31.65,-53.5 -176.91,-78.8 -435.66,-76 -258.83,2.8 -440.64,29.6 -545.49,80.4 -51.12,24.6 -72.66,210.6 -64.63,558 7.99,347.4 14.43,704.8 19.34,1072.3 -91.2,-32.5 -183.26,-62.3 -276.22,-89.2 -93,-27 -151.04,-37.8 -174.16,-32.5 -61.89,1.7 -143.14,104.4 -243.66,307.8 -100.56,203.5 -152.65,364.5 -156.25,483.1 -1.39,53.8 82.65,142.2 252.1,265.1 169.46,122.9 407.24,268.9 713.33,437.9 55.33,31.6 147,53.8 275.07,66.6 128.03,12.8 257.92,13.8 389.6,3 131.64,-10.8 248.53,-35.4 350.6,-73.6 102.07,-38.2 155.4,-92.6 160.08,-163.1 10.58,-198.9 9.45,-451.2 -3.29,-757 -12.84,-305.9 -32.87,-606.5 -60.27,-901.9 -27.4,-295.4 -59.23,-556.2 -95.56,-782.3 -36.25,-226.1 -71.29,-359 -104.93,-398.6"
         style="fill:#ef3120;fill-opacity:1;fill-rule:nonzero;stroke:none;stroke-width:1.47438908"
         id="path1376"
         inkscape:connector-curvature="0" />
    </g>
    <g
       id="g1378"
       transform="matrix(0.02681419,0,0,-0.02711631,-124.28528,578.2618)"
       style="stroke-width:1.47438908">
      <path
         d="m 8896.88,15746.6 c -84.47,-2.1 -156,119.6 -159.81,271.8 -3.8,152.3 61.55,277.4 145.97,279.5 84.47,2.1 155.99,-119.6 159.72,-271.8 3.81,-152.2 -61.5,-277.4 -145.88,-279.5"
         style="fill:#ffffff;fill-opacity:1;fill-rule:nonzero;stroke:none;stroke-width:1.47438908"
         id="path1380"
         inkscape:connector-curvature="0" />
    </g>
    <g
       id="g1382"
       transform="matrix(0.02576229,0,0,-0.02605252,-124.28528,578.2618)"
       style="stroke-width:1.47438908">
      <path
         d="m 9241.24,16010 c -43.71,4.6 -72.46,72.2 -64.27,151 8.22,78.8 50.32,139 94.01,134.5 43.78,-4.6 72.5,-72.2 64.28,-151 -8.21,-78.8 -50.33,-139 -94.02,-134.5"
         style="fill:#ffffff;fill-opacity:1;fill-rule:nonzero;stroke:none;stroke-width:1.47438908"
         id="path1384"
         inkscape:connector-curvature="0" />
    </g>
    <g
       id="g1386"
       transform="matrix(0.02554744,0,0,-0.02583527,-124.28528,578.2618)"
       style="stroke-width:1.47438908">
      <path
         d="m 8894.49,15745.4 c 133.41,554.6 625.86,421.6 663.95,-151.2 38.09,-572.8 -10.15,-1191.7 -215.42,-1265.2 -205.19,-73.5 -797.31,-161 -720.69,355.7 76.61,516.6 144.44,529.9 272.16,1060.7"
         style="fill:#e42124;fill-opacity:1;fill-rule:nonzero;stroke:none;stroke-width:1.47438908"
         id="path1388"
         inkscape:connector-curvature="0" />
    </g>
    <g
       id="g1390"
       transform="matrix(0.02395757,0,0,-0.02422748,-124.28528,578.2618)"
       style="stroke-width:1.47438908">
      <path
         d="m 9493.89,15912.5 c 127.11,387.5 431.33,31.9 430.15,-344.1 -1.19,-375.9 -494.9,-225.5 -521.54,-45.1 -26.65,180.4 91.39,389.2 91.39,389.2"
         style="fill:#b1191f;fill-opacity:1;fill-rule:nonzero;stroke:none;stroke-width:1.47438908"
         id="path1392"
         inkscape:connector-curvature="0" />
    </g>
    <g
       id="g1394"
       transform="matrix(0.02500448,0,0,-0.02528619,-124.28528,578.2618)"
       style="stroke-width:1.47438908">
      <path
         d="m 9342.55,16040.1 c 88.76,259.9 187.36,-26.7 140.97,-264.5 -46.39,-237.8 -302.19,-207.7 -140.97,264.5"
         style="fill:#b1191f;fill-opacity:1;fill-rule:nonzero;stroke:none;stroke-width:1.47438908"
         id="path1396"
         inkscape:connector-curvature="0" />
    </g>
    <g
       id="g1398"
       transform="matrix(0.02697195,0,0,-0.02727581,-124.28528,578.2618)"
       style="stroke-width:1.47438908">
      <path
         d="m 8373.94,16241.8 c -244.54,58.2 -970,-497.7 -837.39,-579 69.42,-42.6 592.08,84.8 794.34,220.7 184.08,123.6 201.06,320.6 43.05,358.3"
         style="fill:#f25427;fill-opacity:1;fill-rule:nonzero;stroke:none;stroke-width:1.47438908"
         id="path1400"
         inkscape:connector-curvature="0" />
    </g>
    <g
       id="g1402"
       transform="matrix(0.02591315,0,0,-0.02620508,-124.28528,578.2618)"
       style="stroke-width:1.47438908">
      <path
         d="m 7973.25,16235.6 c -79.95,-39.9 41.01,-387.2 152.08,-321.8 111.06,65.4 -23.17,386.2 -152.08,321.8"
         style="fill:#f25427;fill-opacity:1;fill-rule:nonzero;stroke:none;stroke-width:1.47438908"
         id="path1404"
         inkscape:connector-curvature="0" />
    </g>
    <g
       id="g1406"
       transform="matrix(0.02716825,0,0,-0.02747434,-124.28528,578.2618)"
       style="stroke-width:1.47438908">
      <path
         d="m 8137.75,13523.2 c 61.9,-29.7 187.33,-51.3 344.44,-59.3 35.37,-1.8 72.37,-2.9 109.96,-3.3 181.4,-2 192.18,16.5 210.04,47.2 l 3.07,5.3 c 0.79,1.4 1.75,2.7 2.71,3.8 13.23,15.5 40.73,75.5 77.34,303.6 21.45,133.7 51.14,478.2 72.95,729.8 7.62,88.7 14.27,165.3 19.7,224.4 21.63,233.1 37.75,474 47.82,715.8 10.07,241.4 11.04,443.1 2.72,599.5 -2.98,44.3 -38.8,79 -109.65,105.5 -65.95,24.7 -141.09,30.4 -228.1,37 -14.49,1.1 -29.21,2.2 -44.14,3.4 -18.09,1.5 -37.77,2.8 -58.48,3.9 -106,5.3 -219.29,4 -295.64,-3.7 -97.51,-9.7 -167.46,-26.4 -207.89,-49.5 -241.6,-133.4 -431.51,-249.9 -564.79,-346.6 -176.74,-128.2 -189.49,-176.3 -189.19,-187.9 2.37,-78.1 31.25,-136.1 94.54,-263.1 7.69,-15.4 15.85,-31.8 24.48,-49.2 101.06,-204.6 152.25,-228.7 169.57,-229.6 1.82,0 4.01,-0.3 5.76,-0.7 0.09,0 0.89,-0.2 2.75,-0.3 10.58,-0.5 40.5,2.1 122,25.8 33.45,9.6 93.33,21.3 156.73,33.6 77.6,15.1 165.55,32.1 204.49,46 8.46,3 17.85,1.7 25.14,-3.5 7.31,-5.2 11.59,-13.7 11.47,-22.6 -2.67,-199.5 -12.36,-573.9 -20.14,-874.7 -3.73,-144 -6.94,-268.5 -8.97,-356.3 -3.2,-139 -4.5,-239.9 -1.11,-313.3 4.58,-99.3 17.28,-117.9 20.42,-121 z m 341.66,-114 c -167.16,8.5 -297.2,31.5 -366.15,64.9 -52.22,25.2 -57.75,131.6 -49.59,484.7 2.02,87.9 5.24,212.3 8.96,356.4 7.32,282.8 16.31,630.7 19.58,836.7 -46.4,-12.1 -111.68,-24.8 -175.31,-37.1 -62.15,-12.1 -120.85,-23.5 -151.92,-32.5 -91.89,-26.6 -123.93,-28.6 -140.04,-27.8 -3.42,0.2 -6.54,0.5 -9.46,1 -61.77,4 -128.12,84.2 -214.96,260 -8.61,17.4 -16.74,33.7 -24.4,49.1 -64.94,130.3 -97.54,195.7 -100.27,285.9 -0.94,36.7 22.26,96.3 211.78,233.8 135.1,98 326.92,215.8 570.13,350.1 47.49,27.1 122.59,45.6 229.28,56.3 78.9,7.8 195.33,9.3 303.87,3.8 21.28,-1.1 41.52,-2.4 60.19,-3.9 14.82,-1.3 29.41,-2.4 43.79,-3.5 87.42,-6.6 169.92,-12.8 243.23,-40.3 91.77,-34.4 140.56,-86.1 145.02,-153.6 8.41,-158.4 7.54,-361.8 -2.62,-605 -10.08,-242.7 -26.28,-484.5 -48,-718.6 -5.43,-58.9 -12.08,-135.4 -19.7,-224 -23.03,-266.5 -51.67,-598.1 -73.39,-733.8 -38.8,-241.5 -68.57,-304.1 -88.02,-328.3 l -1.93,-3.3 c -32.4,-55.7 -63.05,-76.5 -257.92,-74.4 -38.33,0.4 -76.05,1.6 -112.15,3.4"
         style="fill:#fabfab;fill-opacity:1;fill-rule:nonzero;stroke:none;stroke-width:1.47438908"
         id="path1408"
         inkscape:connector-curvature="0" />
    </g>
    <g
       id="g1136"
       transform="matrix(0.04569495,0,0,-0.04569495,-442.32671,869.15263)">
      <path
         d="m 13187,15192.6 c -80.7,-32 -106.3,-97.3 -76.8,-195.9 29.4,-98.7 88.3,-143.5 176.7,-134.5 85.8,7.7 125.4,63.4 119.1,167.1 -5.2,53.8 -28.9,100.2 -71.1,139.3 -42.2,39.1 -91.6,47.1 -147.9,24 z m -636.9,-391.8 c -42,121.5 -59.3,257.2 -52.1,407 7.3,149.8 47.4,295.5 120.1,437.2 72.7,141.7 181.7,270.5 326.8,386.5 145,115.9 334.4,201.7 568.1,257.4 53.9,11.1 101,-9.6 141.2,-62.3 40.2,-52.6 71.7,-113.4 94.4,-182.3 22.7,-68.9 36.2,-134.2 40.4,-195.8 4.3,-61.6 -2.5,-95.5 -20.5,-101.4 -36.9,-12.9 -74.9,-25.5 -114.3,-37.9 -39.4,-12.4 -79.6,-31.9 -120.7,-58.4 120.7,-37.7 227.9,-116.4 321.7,-236.3 93.7,-119.8 143.1,-249.1 148.3,-387.7 6.8,-191.8 -52.9,-350.7 -179.1,-477 -126.3,-126.3 -275.4,-200.9 -447.5,-224 -101.9,-12.9 -203.3,-8.2 -304.3,14.1 -101,22.2 -192.6,63.7 -274.7,124.5 -120.8,89 -203.4,201.2 -247.8,336.4"
         style="fill:#186bbe;fill-opacity:1;fill-rule:nonzero;stroke:none"
         id="path1138"
         inkscape:connector-curvature="0" />
    </g>
    <g
       id="g1140"
       transform="matrix(0.04373739,0,0,-0.04373739,-442.32671,869.15263)">
      <path
         d="m 14173.7,16098.8 c -22.3,-48.8 -111.6,-55.8 -199.6,-15.7 -88.1,40.1 -141.4,112.2 -119.2,161 22.3,48.8 111.7,55.9 199.7,15.8 88,-40.1 141.4,-112.2 119.1,-161.1"
         style="fill:#ffffff;fill-opacity:1;fill-rule:nonzero;stroke:none"
         id="path1142"
         inkscape:connector-curvature="0" />
    </g>
    <g
       id="g1144"
       transform="matrix(0.04312073,0,0,-0.04312073,-442.32671,869.15263)">
      <path
         d="m 14551.6,16164.5 c -17.5,-20.8 -62.1,-11.9 -99.7,19.7 -37.4,31.7 -53.6,74.2 -36,95 17.6,20.8 62.2,12 99.7,-19.7 37.5,-31.7 53.6,-74.2 36,-95"
         style="fill:#ffffff;fill-opacity:1;fill-rule:nonzero;stroke:none"
         id="path1146"
         inkscape:connector-curvature="0" />
    </g>
    <g
       id="g1148"
       transform="matrix(0.04530055,0,0,-0.04530055,-442.32671,869.15263)">
      <path
         d="m 13202.2,15900.8 c 144.3,-20.9 534.3,338.2 453.4,378.2 -42.3,21 -337.6,-79.9 -447.3,-169 -99.9,-81.1 -99.4,-195.8 -6.1,-209.2"
         style="fill:#4da2df;fill-opacity:1;fill-rule:nonzero;stroke:none"
         id="path1150"
         inkscape:connector-curvature="0" />
    </g>
    <g
       id="g1152"
       transform="matrix(0.04445953,0,0,-0.04445953,-442.32671,869.15263)">
      <path
         d="m 13196.3,16068.4 c 29.8,-28.6 171.2,159.1 125.3,195.4 -45.9,36.2 -173.2,-149.2 -125.3,-195.4"
         style="fill:#4da2df;fill-opacity:1;fill-rule:nonzero;stroke:none"
         id="path1154"
         inkscape:connector-curvature="0" />
    </g>
    <g
       id="g1156"
       transform="matrix(0.04404395,0,0,-0.04404395,-442.32671,869.15263)">
      <path
         d="m 13399.5,16180.7 c 132.5,119.3 264.1,102.5 92.7,-270.5 -171.3,-373 -20.1,-584.6 252,-635 272.2,-50.4 342.7,292.3 282.3,433.4 -60.5,141.1 255.1,176 332.6,-211.7 50.4,-252 -141.1,-504 -534.2,-534.2 -366.8,-28.2 -705.6,231.8 -745.9,564.5 -40.4,332.6 219.7,562.8 320.5,653.5"
         style="fill:#2252ab;fill-opacity:1;fill-rule:nonzero;stroke:none"
         id="path1158"
         inkscape:connector-curvature="0" />
    </g>
    <g
       id="g1160"
       transform="matrix(0.04137978,0,0,-0.04137978,-442.32671,869.15263)">
      <path
         d="m 14864.8,16203.7 c -154.8,-62.3 -339.2,-42.5 -478,26.9 -138.9,69.4 -174.7,-83.4 24.8,-187.5 199.6,-104.1 433.6,-91.8 618.2,70.4 127.5,112.2 4.4,158.4 -165,90.2"
         style="fill:#26398f;fill-opacity:1;fill-rule:nonzero;stroke:none"
         id="path1162"
         inkscape:connector-curvature="0" />
    </g>
    <g
       id="g1164"
       transform="matrix(0.04214283,0,0,-0.04214283,-442.32671,869.15263)">
      <path
         d="m 13893.1,16202.1 c -108.8,97.9 -125.5,-87.9 -50.2,-200.9 75.4,-113 175.8,87.9 50.2,200.9"
         style="fill:#26398f;fill-opacity:1;fill-rule:nonzero;stroke:none"
         id="path1166"
         inkscape:connector-curvature="0" />
    </g>
    <g
       id="g1168"
       transform="matrix(0.04186096,0,0,-0.04186096,-442.32671,869.15263)">
      <path
         d="m 15004.4,16201.3 c -36.4,98.7 -109.3,-13.7 -99.2,-110.8 9.9,-97 141,-3 99.2,110.8"
         style="fill:#26398f;fill-opacity:1;fill-rule:nonzero;stroke:none"
         id="path1170"
         inkscape:connector-curvature="0" />
    </g>
    <g
       id="g1172"
       transform="matrix(0.0455041,0,0,-0.0455041,-442.32671,869.15263)">
      <path
         d="m 13576.5,16266.1 c -60,0 -256.5,-60.5 -459.6,-206.1 -171,-122.6 -388.5,-337.3 -453.3,-664 -66.3,-334.2 42.4,-557.2 145.3,-685.3 136,-169.4 318.2,-247.9 438.6,-250.5 5.9,-0.1 11.8,-0.2 17.9,-0.2 174.5,0 414,55.5 562.8,211.4 92.6,96.8 136.2,218.8 129.6,362.4 -19.7,427.2 -372.1,614.5 -506.2,650.6 -5.9,1.6 -10.4,6.1 -12,12 -1.6,5.8 0.1,12.1 4.4,16.4 62.2,62.1 159.8,102.7 231.1,132.3 35.3,14.7 79.2,32.9 85.3,42.3 6.6,24.9 -28.2,198 -93.4,304.1 -26.9,43.7 -55.2,69.3 -81.8,74 -1.5,0.3 -4.4,0.6 -8.7,0.6 z m -311.1,-1840 c -6.3,0 -12.5,0.1 -18.7,0.2 -128.2,2.8 -321.4,85.3 -464.2,263.1 -107.4,133.8 -221,366.1 -152.1,713.2 66.9,337.6 290.8,558.8 466.7,684.9 202.2,145 405.6,212.5 479.4,212.5 5.4,0 10.4,-0.4 14.6,-1.1 41.8,-7.4 81.3,-44.9 117.3,-111.4 36.8,-68.1 59.1,-145.8 69.1,-186 6,-23.8 24.4,-103.2 14,-127.5 -8.6,-20.1 -39.6,-33.7 -103.4,-60.2 -60.7,-25.2 -141.2,-58.6 -198.7,-105.7 76,-26.3 184.8,-84.1 279.7,-175.7 62.6,-60.4 113,-129.3 149.7,-204.6 43.5,-89 68,-187.4 72.8,-292.4 7,-153.3 -39.7,-283.6 -138.8,-387.5 -156.2,-163.5 -405.9,-221.8 -587.4,-221.8"
         style="fill:#8cd8f7;fill-opacity:1;fill-rule:nonzero;stroke:none"
         id="path1174"
         inkscape:connector-curvature="0" />
    </g>
    <g
       id="g1176"
       transform="matrix(0.04286462,0,0,-0.04286462,-442.32671,869.15263)">
      <path
         d="m 14108.4,16264 c -23.5,0 -46.3,-4.2 -68,-12.4 -54.1,-20.8 -104.3,-73.4 -127.6,-134.2 -16.4,-42.8 -27.9,-110 11.2,-186.4 49.9,-97.3 139.8,-157.9 234.7,-157.9 v 0 c 33.4,0 65,7.4 94,21.9 107,53.5 105.1,220.2 70.3,316.1 -32.2,88.6 -122.4,152.9 -214.6,152.9 z m 50.3,-526.9 v 0 c -108.5,0.1 -210.6,68.1 -266.7,177.6 -45.1,88.2 -31.8,165.9 -12.8,215.6 27.2,71 84.1,130.3 148.4,154.9 25.7,9.8 52.9,14.8 80.8,14.8 106.7,0 211.3,-74.3 248.5,-176.6 40.4,-111.3 39.8,-296.7 -88.1,-360.6 -33.6,-16.8 -71.6,-25.7 -110.1,-25.7"
         style="fill:#8cd8f7;fill-opacity:1;fill-rule:nonzero;stroke:none"
         id="path1178"
         inkscape:connector-curvature="0" />
    </g>
  </g>
</svg>
