<svg height="512" viewBox="0 0 512 512" width="512" xmlns="http://www.w3.org/2000/svg"><g id="_34.3" data-name="34.3"><path d="m207.86 137.86c-34.59 0-54.94-38.81-35.32-67.3a121.79 121.79 0 0 1 12.93-15.79q42.53-43.77 106.88-43.77 57.4 0 96.26 36.47t38.85 86.59a100.86 100.86 0 0 1 -17 56.77 110.92 110.92 0 0 1 -27.15 28.22 13.47 13.47 0 0 0 2.09 22.85 119.18 119.18 0 0 1 42.19 34.71q23.94 31.56 23.94 74.38 0 62.79-46.3 106.4t-117.95 43.61q-67.87 0-110.69-41.07a143.77 143.77 0 0 1 -34.59-51.93c-11.28-28.76 10.27-59.83 41.17-59.83h1a44.12 44.12 0 0 1 40.69 27.59q6.65 16.11 17.79 26.17 19.5 17.6 49.32 17.6 31.08 0 51.53-20t20.5-48.86q0-31.71-27.59-53.6-17.4-13.8-44.52-19.15a43.32 43.32 0 0 1 -35.09-42.43 43.2 43.2 0 0 1 32.79-41.92 81 81 0 0 0 14.94-5.12q15.74-7.45 24.47-20.45a48.65 48.65 0 0 0 8.73-27.59q0-19-13.32-31.56t-34.91-12.54a56.48 56.48 0 0 0 -34.57 11.58 59.58 59.58 0 0 0 -12.52 12.5 42.88 42.88 0 0 1 -34.55 17.47z" fill="#90d1bb"/><g fill="#f5d367"><path d="m117 256.88 6.91 14a10 10 0 0 0 7.57 5.5l15.45 2.25a10 10 0 0 1 5.57 17.14l-11.18 10.9a10 10 0 0 0 -2.89 8.89l2.63 15.44a10 10 0 0 1 -14.58 10.59l-13.82-7.26a10 10 0 0 0 -9.35 0l-13.82 7.26a10 10 0 0 1 -14.58-10.59l2.64-15.39a10 10 0 0 0 -2.89-8.89l-11.18-10.9a10 10 0 0 1 5.57-17.14l15.45-2.25a10 10 0 0 0 7.57-5.5l6.91-14a10.05 10.05 0 0 1 18.02-.05z"/><path d="m235 256.88 6.91 14a10 10 0 0 0 7.57 5.5l15.45 2.25a10 10 0 0 1 5.57 17.14l-11.18 10.9a10 10 0 0 0 -2.89 8.89l2.63 15.44a10 10 0 0 1 -14.58 10.59l-13.82-7.26a10 10 0 0 0 -9.35 0l-13.82 7.26a10 10 0 0 1 -14.58-10.59l2.64-15.39a10 10 0 0 0 -2.89-8.89l-11.18-10.9a10 10 0 0 1 5.57-17.14l15.45-2.25a10 10 0 0 0 7.57-5.5l6.91-14a10.05 10.05 0 0 1 18.02-.05z"/><path d="m176 174.88 6.91 14a10 10 0 0 0 7.57 5.5l15.45 2.25a10 10 0 0 1 5.57 17.14l-11.18 10.9a10 10 0 0 0 -2.89 8.89l2.63 15.44a10 10 0 0 1 -14.58 10.59l-13.82-7.26a10 10 0 0 0 -9.35 0l-13.82 7.26a10 10 0 0 1 -14.58-10.59l2.64-15.39a10 10 0 0 0 -2.89-8.89l-11.18-10.9a10 10 0 0 1 5.57-17.14l15.45-2.25a10 10 0 0 0 7.57-5.5l6.91-14a10.05 10.05 0 0 1 18.02-.05z"/></g><path d="m278.94 500.84q-62.19-2.38-102.35-40.91a143.67 143.67 0 0 1 -34.59-51.93 43.7 43.7 0 0 1 14.07-50.56 502.12 502.12 0 0 0 122.87 143.4z" fill="#88bfac"/><path d="m126.48 341.54-13.82-7.26a10 10 0 0 0 -9.35 0l-13.82 7.26a10 10 0 0 1 -14.58-10.54l2.64-15.39a10 10 0 0 0 -2.89-8.89l-11.18-10.9a10 10 0 0 1 5.57-17.14l15.45-2.24a10.06 10.06 0 0 0 7.56-5.5l6.91-14a10 10 0 0 1 12.03-5.18 495.18 495.18 0 0 0 29.5 76.15l.52 3a10 10 0 0 1 -14.54 10.63z" fill="#e2c061"/></g></svg>