<svg id="Layer_2" data-name="Layer 2" xmlns="http://www.w3.org/2000/svg" viewBox="0 0 1000 1000"><defs><style>.cls-1{fill:#fed1a5;stroke:#d6a47c;}.cls-1,.cls-13,.cls-14,.cls-2,.cls-4,.cls-5,.cls-7{stroke-miterlimit:10;stroke-width:3px;}.cls-2,.cls-9{fill:#fff;}.cls-2{stroke:#c6c5c4;}.cls-3{fill:#efefef;}.cls-4{fill:#f95701;}.cls-4,.cls-5{stroke:#bf4008;}.cls-5{fill:#ffe31b;}.cls-6{fill:#d8480f;}.cls-7{fill:#e1bcb4;}.cls-13,.cls-7{stroke:#dba9a1;}.cls-8{fill:#231f20;}.cls-10{fill:#eabf98;}.cls-11{fill:#eb9eae;}.cls-12{fill:#e096a8;}.cls-13{fill:none;}.cls-14{fill:#ffbc01;stroke:#c18c08;}.cls-15{fill:#fe8d00;}.cls-16{fill:#fd8e00;}</style></defs><title>engineer</title><path class="cls-1" d="M290.38,835.39s-4.12,45.62-4.48,53.28-2.47,8.14-3.13,17.46-.92,22.16,9.65,30.92,32.9,8.46,40.57-.47,1.91-22,1.91-22,3.18,4.86,5.59,2.71.48-19.65-10.55-25.92l2.22-52L291.72,827.9Z"/><path class="cls-1" d="M726,833.71s5,45.53,5.52,53.18,2.6,8.1,3.44,17.41,1.37,22.12-8.87,31-32.25,9-40,.15-2.34-21.93-2.34-21.93-3,4.91-5.45,2.8-.88-19.64,9.86-26.07l-3.26-51.89,39.63-12.15Z"/><path class="cls-2" d="M444.5,553.5s-75,30-82,33-33,26-40,41-32,133-38,162-4,52-5,59,64,19,67,11,1-75,4-86,8-25,8-25,6,21,12,30,52-6,53-9,163,4,163,4l50,2,18-20s17,37,19,62-1,45,0,47,62-2,62-2,5-50-2-95-33-117-43-142-28-38-49-44-73-25-73-25Z"/><path class="cls-2" d="M502.5,670.5c0-1,17-54,22-59s36-30,36-30l11-28,32.23,15.56L615.5,632.5l-59,113-61,7s-23-34-22-35S502.5,670.5,502.5,670.5Z"/><path class="cls-2" d="M421.5,572.5c0-2,32-14,32-14s12,34,20,38,26,6,26,6,17,27,17,33c0,6.4,11,105,11,105s-33,20-34,20-87-84-87-84Z"/><path class="cls-1" d="M565.5,579.5l-42,32-8,17s-6-20-13-25-33-10-33-10l-19-48,38-11,64,2,17,32Z"/><path class="cls-2" d="M579.5,563.5c-5-25-17-34-35-36s-67-7-87,2-26.48,18-24.24,29,17.24,55,35.24,72,29,19,29,19-13.26-49.11-1.13-45,18.77,28.21,18.77,28.21l6.07-15.28S544.5,595.5,552.5,601.5s8,34,8,34S584.5,588.5,579.5,563.5Zm-21,4c-7,13-26,30-31,34s-12,24-12,24-5-22-16-28-26-20-32-32-6-18,0-23,60-6,77,0C544.5,542.5,565.5,554.5,558.5,567.5Z"/><path class="cls-3" d="M319.5,652.5s7-25,14-33,23-29,30-29,31,80,33,92-15,72-20,75-12-5-13-8-5-9-11,1-9,46-9,67S344,844,343,848s-11,7-22,7-35-12-35-12,45-5,47-15,1.5-37.5,2.5-47.5,5-38,9-44,23-6,27-13-2-51-14-67S336.5,635.5,319.5,652.5Z"/><path class="cls-3" d="M669.5,783.5s-7-32-13-34-19,11-19,11-27-60-17-80,29-85,37-82,34,36,35,43,8,26,8,26-16-25-26-14-18,31-20,50,1,34,5,37S666.5,757.5,669.5,783.5Z"/><path class="cls-4" d="M429.5,553.5s27,88,56,125,42,62,42,62,38-80,48-106,21-72,21-72,77,25,78,30-28,93-32,115,4.16,45.51,6,54c2.6,12,3,58,3,58s-2,84-3,88-118,6-128,4-151,7-156,1-1.78-150.29-.89-148.65S390.5,733.5,387.5,701.5s-30-117-30-117S419.5,551.5,429.5,553.5Z"/><path class="cls-5" d="M365.5,799.5c7,1,31,12,60,10s52-10,63-12,39,0,39,0,23,7,42,8,80-2,80-2v22s-46,11-78,4-45-9-45-9-18,8-45,14-76,2-86,0-32-5-32-5Z"/><path class="cls-5" d="M363.5,859.5s33,12,70,11,96-13,96-13,49,7,66,7h52v23s-65,6-83,3-37-7-37-7-39,15-82,15-82-11-82-11Z"/><path class="cls-4" d="M527.5,740.5s.55,155.21,2.78,171.61"/><path class="cls-6" d="M666.5,598.5a141.35,141.35,0,0,0-27.93-16.57C623.5,575.5,608.5,569.5,601.5,570.5s-13,39-10,37,18-23,37-17A219.67,219.67,0,0,0,666.5,598.5Z"/><path class="cls-6" d="M432.5,586.5c2-3-3-25-8-28s-61,28-61,28,34-10,43-8S432.5,586.5,432.5,586.5Z"/><path class="cls-1" d="M337,409s5.3,84.95,32.48,108.5,106.35,39.6,145,39S587,547.89,604,541.25s72.47-30.8,80.92-59.18,10.27-61.6,9.06-73.07c0,0,42.88-6,48.31-27.78s-1.81-35.63-9.66-41.07-44.69-12.68-44.69-12.68-15.7-68.85-44.09-105.08-73.07-53.75-92.39-55.56-68.85,1.81-100.85,22.95S393.79,243.53,385.94,255s-39.26,66.43-39.26,66.43l-4.83,12.68s-22.94,2.42-31.4,14.5-11.47,32-6.64,38.64S323.74,408.39,337,409Z"/><path class="cls-7" d="M380.5,329.88s18.72-8.45,36.24-6,32.61,6,32.61,6S429.42,316,418,314.18s-21.75-.6-27.18,2.42S380.5,329.88,380.5,329.88Z"/><path class="cls-7" d="M573.15,317.2s27.17-3,38.65-1.81a155.45,155.45,0,0,1,22.34,4.23s-3-12.68-13.89-15.1-23.55-.6-29,1.81S573.15,317.2,573.15,317.2Z"/><path class="cls-7" d="M437.76,470.19s123.8-3.29,144.45,1.31c0,0-5-30.2-29.72-40.05s-52.82-10.5-69.34-7.24-37.14,23-37.14,23S436.1,461.65,437.76,470.19Z"/><path class="cls-1" d="M440.89,474.22s-10.26,19.93-12.07,30.19"/><path class="cls-1" d="M578.58,476.63s10.87,21.14,11.48,27.78"/><circle class="cls-8" cx="430.59" cy="364.68" r="19.61"/><circle class="cls-9" cx="420.78" cy="357.53" r="4.62"/><circle class="cls-8" cx="596.66" cy="367.7" r="19.61" transform="translate(138.14 897.76) rotate(-80.78)"/><circle class="cls-9" cx="586.86" cy="360.55" r="4.62"/><path class="cls-10" d="M698.16,392.09s-.61-12.08,4.22-15.71,11.48-4.22,7.25-7.85-4.83-5.43-3-9.66-.6-10.26,6.64-9.06,10.87,4.83,12.08,7.85a18.4,18.4,0,0,1,1.21,6s-3-8.45-7.25-7.24-7.24,2.41-6,7.85,4.23,7.24.61,10.87S698.16,392.09,698.16,392.09Z"/><path class="cls-10" d="M334.61,393.9s.6-10.27-1.21-14.5-6.64-8.45-1.81-10.87,6.64-5.43,6-9.66-1.21-7.25-4.23-7.85-14.49-1.81-18.12,6-3.62,8.45-3.62,8.45,7.25-9.05,11.47-9.05,7.85-1.21,6,4.22-3.62,6.65-3,11.48S334.61,393.9,334.61,393.9Z"/><path class="cls-11" d="M474.71,480.26s41.67,6.64,74.28,1.2c0,0-13.89,35.63-33.82,36.24s-29.59-6-34.42-13.29S474.71,480.26,474.71,480.26Z"/><path class="cls-12" d="M485,508s7.25,6.64,15.7,7.85,13.29,1.2,16.31.6,11.47-6,11.47-6l2.41-2.41s-16.3-4.23-22.94-4.23S485,508,485,508Z"/><path class="cls-7" d="M453,460.93s4.23-11.47,6-13.28"/><line class="cls-13" x1="468.67" y1="458.52" x2="474.11" y2="442.21"/><path class="cls-7" d="M491,459.72c0-.6,1.21-20.53,1.21-20.53"/><path class="cls-7" d="M524.84,460.33S523,442.81,522.42,441"/><path class="cls-7" d="M556.84,460.33s-7.24-16.91-9.06-18.72"/><path class="cls-7" d="M371.35,225.34s16.51-5.87,24.49-1.85,15.57,27.31,6.46,38L393,283.88l-5.15-4.5s-3.16,24.34-6.15,32.53-5.14-4.5-8.69-3.91-8.86,33.77-8.86,33.77l-21.42-10.19s-7.36,9.57-9,3.38S330.45,242.26,371.35,225.34Z"/><path class="cls-7" d="M646.82,248.36s-3.62,13.28,0,21.74,10.87,18.72,10.87,18.72,3-10.87,4.23-8.46,1.81,15.71,3,18.73,2.42-3,6,0,6,20.53,6,22.34,4.83,19.32,4.83,19.32,8-12.5,9.43-12.59,23.48,5.53,23.48,5.53-.3-32.19-13.58-55.74S680,232.66,664.34,230.84,646.82,248.36,646.82,248.36Z"/><path class="cls-7" d="M335.75,298.6s-.08-37.45,9.79-55.33,35.55-61,100.49-76.64,102.44-20.53,158.75-.13,82.81,18.86,96.78,47.37,16,87.67,12.49,92-22.34-3.45-37.95-7.73-19.93-5.35-27.18.95-17.23,1.81-19.81-1.12-25.63,8.75-26.19,10.58-14.2-17.63-29.65-17.69-34.3,8.45-40.81,16.54S505.29,289,495.3,287s-58.62,19.58-58.62,19.58S448.39,288,436,286s-72.07,21.87-73.44,18.9S366.73,283.61,335.75,298.6Z"/><path class="cls-14" d="M329.06,232.27c-.37,2.89-15.17,4.67-15.17,4.67s-3.5,50.18,0,53.68,47.27,8.17,54.27,14,6.42,19.84,31.51,25.68,155.81,24.5,254.43-2.92c0,0,18.38-14.3,21.88-22.47s38.51-4.67,56-18.09V234.31l-17.51-4.08s-7.58-81.7-101-138.89L607.7,70.92s-68.85-57.77-172.14,0L428,91.34S341.61,133.94,329.06,232.27Z"/><path class="cls-15" d="M569.19,220.89c-.33,2.38,11.09-108.54,26.84-136L602.45,103S575,178.29,569.19,220.89Z"/><path class="cls-15" d="M439.06,101.85l5.84-16.93s28,77,28.59,138.89C473.49,223.81,458.32,133.94,439.06,101.85Z"/><path class="cls-16" d="M393.54,304.92c1.17,0,178.57,15.76,263.18,0,0,0-91.61,22.18-144.13,17.51S393.54,304.92,393.54,304.92Z"/><path class="cls-15" d="M722.08,244.82s-35,46.68-43.77,48.43,43.77-11.09,43.77-11.09Z"/><path class="cls-15" d="M320.6,244.82s31.51,42,46.68,48.43c0,0-42-5.25-46.68-8.17S320.6,244.82,320.6,244.82Z"/></svg>