<svg id="Layer_3" data-name="Layer 3" xmlns="http://www.w3.org/2000/svg" viewBox="0 0 1000 1000"><defs><style>.cls-1,.cls-6{fill:#a99556;}.cls-1{stroke:#8e7940;}.cls-1,.cls-2{stroke-miterlimit:10;stroke-width:3px;}.cls-2{fill:#e2d647;stroke:#c6b014;}.cls-3{fill:#e8de85;}.cls-4{fill:#d7dadd;}.cls-5{fill:#bfbfbf;}</style></defs><title>dish</title><path class="cls-1" d="M214.4,580.85S232,632.23,357.27,645.6s310.38-.7,347-14.07,59.12-17.6,65.45-41.53-75.3,2.11-270.26,4.93S214.4,580.85,214.4,580.85Z"/><path class="cls-2" d="M234.81,416.87s255.48-48.57,507.44-4.23S923.13,537.22,923.13,537.22s-30.26,51.38-222.4,78.12-368.09,9.15-427.21,0S106,578,75.75,537.92s23.93-75.31,52.79-88S175.69,430.24,234.81,416.87Z"/><path class="cls-3" d="M852.75,447.13s73.9,31,70.38,53.49-2.81,40.12-90.79,73.9-276.59,42.93-356.12,40.82-233-2.82-332.2-45S85.6,488.65,85.6,488.65s22.52-25.33,73.2-41.52c0,0-71.09,42.93-58.42,64.75s56.54,70.62,264.4,81.76,426.74-18.42,471.08-42.35,64.75-32.37,59.12-52.78-15.48-25.34-25.34-36.6S852.75,447.13,852.75,447.13Z"/><path class="cls-4" d="M335.45,464.73s97.83-10.56,125.28-9.86,148.51-.7,181.58,5.63l99.24,19s44.34,12.66,50,24.63-2.11,29.56-25.34,36.6-104.86,23.93-141.46,26.74-130.21,6.34-153.43,4.22-100.65-4.92-121.06-8.44S265.78,552,246.07,540.74,214.4,527.36,216.51,514s9.85-18.3,35.19-28.85S310.82,463.32,335.45,464.73Z"/><path class="cls-5" d="M257.68,544.61S234.11,514.78,239,508.89s7-16.37,78.83-32.74S524.07,464.37,567,465.68s150.61,16.37,172.43,24.22,40.12,17,34.49,27.5-16.54,24.39-16.54,24.39,33.08-14.06,35.89-23.22-9.09-26.19-22-31-102.26-23.17-102.26-23.17-92.9-10.48-117.54-9.82-98.47-1.18-127.71,3-80.72,3.54-98.26,8.45-70.68,16.66-70.68,16.66l-29.56,16.19-10.56,16.89,16.89,17.6Z"/><path class="cls-6" d="M784.48,492.88C748.59,468.24,644.43,457,644.43,457s-293.49-23.93-399.06,26.75,71.79,77.42,71.79,77.42c52.08,12,187.91,15.48,187.91,15.48,168.21,2.82,262.52-33.08,262.52-33.08C776.74,541.44,820.38,517.51,784.48,492.88Zm4.23,28.85c-5.63,9.15-35.9,26.75-152.73,41.53s-291.38-2.82-291.38-2.82l-45.74-7.74c-88.68-17.59-83.76-38-74.61-49.27s57-26,96.42-31.67,97.13-16.18,221.7-14.07S743,483,765.48,490.77,794.34,512.58,788.71,521.73Z"/></svg>