<svg id="Layer_2" data-name="Layer 2" xmlns="http://www.w3.org/2000/svg" viewBox="0 0 1000 1000"><defs><style>.cls-1{fill:#69add0;stroke:#4794b2;stroke-miterlimit:10;stroke-width:3px;}.cls-2{fill:#b0c7e9;}.cls-3{fill:#4da0c2;}.cls-4{fill:#a3bbd8;}</style></defs><title>dishwashing liquid</title><path class="cls-1" d="M430.5,641.5s-2,157-9,200-4,43,30,47,130,0,130,0,28-2,20-37-4-226-4-226,7-151,39-194,27-85,17-99-57-51-71-56c0,0,3-12-5-14,0,0,3-30-3-35s-15-7-15-7l-1-45s11-7,1-25-22-27-36-27-33,12-38,16c0,0-37-16-67-16a247.58,247.58,0,0,0-54,6s-4,14,7,15,81-6,104,16c0,0,0,13,6,17v41s-16,2-17,8,0,32,0,32-9,3-9,15c0,0-60,27-69,51s-5,53,7,86,31,80,34,143S430.5,641.5,430.5,641.5Z"/><path class="cls-2" d="M403.5,369.5c1.18.78,19,10,42-4s44-28,56-30,21,1,30-4,20-26,22-34-11-22-25-22-58,1-67,5-29,13-42,21-24,20-27,25-9,14-5,22S400.5,367.5,403.5,369.5Z"/><path class="cls-3" d="M460.5,269.5s.05-.43.2-1.11c.48-2.27,2-7.35,5.8-8.89,5-2,105,0,107,2s8,9-2,9S460.5,270.5,460.5,269.5Z"/><path class="cls-3" d="M466.5,224.5s54-9,101,0a7.47,7.47,0,0,1,3,3c1,2-4,3-17,2s-80,0-82,0S462.5,227.5,466.5,224.5Z"/><path class="cls-2" d="M484.5,149.5s27,4,31-1,12-14,13-17,1-8-4-8-21,5-25,7-10,6-12,8S481.5,149.5,484.5,149.5Z"/><path class="cls-2" d="M473.5,138.5s-35-12-41-13-28-1-34,0-26,4-26,4l-4-2s33-5,38-5,23-1,30,1,33,10,37,11,8,3,6,3A35.36,35.36,0,0,0,473.5,138.5Z"/><path class="cls-3" d="M639.5,334.5s-37,52-49,59-63,69-65,90-6,198-6,198,0,95-8,114-21,39-36,46-39,20-43,21-19,9,0,13,123,1,138,0,25,0,22-46-3-210,0-228,8-95,15-123,27-55,32-63,19-44,16-61-10-25-12-28S642.5,330.5,639.5,334.5Z"/><line class="cls-1" x1="480" y1="175" x2="558" y2="173"/><line class="cls-1" x1="558.5" y1="217.5" x2="480.5" y2="215.5"/><path class="cls-2" d="M412,440s118,6,210-5c0,0-13.35,29.08-20,92s-9,75-9,75-110.47,19.13-159-2C434,600,440,547,412,440Z"/><polygon class="cls-4" points="593 489 432 489 421 455 604 455 593 489"/><path class="cls-4" d="M486,475s-17,14-20,24-6,40,0,48,4,24,24,28,39,11,51-5,17-23,18-48-7-45-29-47A277.79,277.79,0,0,0,486,475Z"/><path class="cls-4" d="M448,569c1,0,129,2,129,2l10,25-146-3Z"/></svg>