<svg xmlns="http://www.w3.org/2000/svg" viewBox="0 0 1000 1000"><defs><style>.cls-1{fill:#a9665e;}.cls-1,.cls-4{stroke:#96524d;}.cls-1,.cls-12,.cls-14,.cls-15,.cls-18,.cls-4,.cls-5,.cls-7,.cls-9{stroke-miterlimit:10;stroke-width:3px;}.cls-2{fill:#509db1;}.cls-3{fill:#4493a5;}.cls-4{fill:#d0c6c5;}.cls-5{fill:#7caa62;stroke:#5a8240;}.cls-6{fill:#90ce6d;}.cls-7{fill:#5047b2;stroke:#2d2b7a;}.cls-8{fill:#9c97d1;}.cls-9{fill:#ef1818;stroke:#ad0404;}.cls-10{fill:#ff3030;}.cls-11{fill:#7e5619;}.cls-12{fill:none;stroke:#74402a;}.cls-13{fill:#ad0404;}.cls-14{fill:#aac7e7;stroke:#97bbdb;}.cls-15{fill:#3e4a64;stroke:#313c51;}.cls-16{fill:#7da5c9;}.cls-17{fill:#ad6f6a;}.cls-18{fill:#a8b7a2;stroke:#86997e;}.cls-19{fill:#b8bfb4;}</style></defs><title>refringrator</title><g id="Layer_2" data-name="Layer 2"><path class="cls-1" d="M438.5,787.5l-228-154s-9-2-10-22-4-335-4-335,1-39,51-55,266-77,266-77,31-8,55,7,201,145,201,145l-311,129-8,306Z"/><polygon class="cls-2" points="476.5 377.5 661.5 324.5 763.26 299.09 769.5 307.5 772.5 317.5 766.5 568.5 763.5 685.5 608.5 733.5 449.5 782.5 435.5 774.5 432.5 744.5 432.5 515.5 432.5 417.3 448.5 391.5 466.5 380.5 476.5 377.5"/><polygon class="cls-3" points="763 689 504.46 503.23 432.5 518.99 432 716 435 774 445 782 483 772.18 676.26 713.65 763 689"/><path class="cls-4" d="M766.13,294S513.5,360.5,472.5,373.5s-43,50-43,50-2,308,0,341,20,23,20,23l176-54,141-42,3-57s4-286,6-313S766.13,294,766.13,294ZM760.5,683.5l-302,93s-18,9-21-12-2-243-2-243v-96s9-35,27-40l203-57,94-25s10-1,10,16Z"/><g id="Layer_3" data-name="Layer 3"><path class="cls-5" d="M456.31,461.88s4.05-3,3.39-5.84,14,16.65,14.75,21.1,29.85,5.84,35.8-15.6c0,0-8.59,7.51-15.14,7.67s-13.66-1.29-16.74,1,1.66-14.1,6.63-16c0,0-8.05,1.92-15.15-30.5,0,0,19,1.64,24.12,3.66,0,0-2.61-18.44,6.39-21.07S514.3,394.3,514.3,394.3s17,16.18,18.38,20.37-2.44,14.57-2.44,14.57,17.47.34,24.1-1.25-7.71,27.13-16,28.87c0,0,7.84,10,5.11,16.39,0,0-25.35-1.31-30.49-10.92,0,0-4.09,12.05-15.15,17.11s-18.92,1.83-18.92,1.83,6.71,6.4,12.33,7.35,14.12,4.33,28.84-1.05-4.44,15.16-4.44,15.16l-6.81-7.62s-16.16,3-33.26-12.12c0,0,8.16,20.85,24,28.1l-3,5.8s-14.86-12.88-18.32-17.3c0,0-4,32.15,18,49.14l-4.28,5.08s-17.39-18.4-17.43-47.54c0,0,1.79-10.2.91-13.21s-5-10.24-7.06-17.65S460.59,464,456.31,461.88Z"/><path class="cls-6" d="M484.13,465.64s20.68-12.45,24.53-13-6.9,3.26-9.12,10.84c0,0,9-7.55,9.55-8.21s1.9,5.37,1.9,5.37-.16-4.29,1.25-6.87,7.47,10.43,7.76,11.43-2.44-9.23-4.24-11.12,15.51,8.51,23.17,16.47l-5.52-6.91,7.51,1.4s-26.41-13.52-26.63-13.71,8.43-4.62,9.46-4.51,17.08,5.3,19.35,3.06-17.6-4.23-17.6-4.23,27.12-13.83,27.87-14.72-21.85,8.45-22.85,8.74,6.63-8.78,6.63-8.78-11.62,15.16-22.1,17.3,16.06-30.32,16.06-30.32-5.91,5.23-7.47,6.19,3.1-14,2-15.36-2.72,18.5-13,32.52l2.27-42.67-4.78,49.25s-10.78-37-7.92-39.54c0,0-1.53,10.8.46,19.66l-5.86-13.24L509,449.54s-13.34-4.8-20.56-21.83c0,0,4.87,11.28,7.34,13.73S472.51,426,472.51,426l26.93,19.63s-15.33.71-19.58-1,19.21,1.43,27.22,6.28c0,0-22.78,9.55-24.66,9.1s9.74-1.25,9.74-1.25Z"/></g><circle class="cls-7" cx="637.25" cy="623.44" r="16"/><circle class="cls-7" cx="620.39" cy="600.09" r="18.22" transform="translate(-238.2 688.47) rotate(-49.92)"/><circle class="cls-7" cx="610.41" cy="621.26" r="15.73"/><circle class="cls-7" cx="564.31" cy="580.11" r="16.63"/><circle class="cls-7" cx="587.61" cy="559.79" r="21.36"/><circle class="cls-7" cx="590.47" cy="526.86" r="15.38"/><circle class="cls-7" cx="566.76" cy="532.2" r="18.89"/><circle class="cls-7" cx="520.15" cy="593.23" r="16.4"/><circle class="cls-7" cx="592.8" cy="592.1" r="19.69" transform="translate(-244.34 626.62) rotate(-47.33)"/><circle class="cls-7" cx="571.23" cy="495.44" r="18.23"/><path class="cls-8" d="M518.8,581.62s-15.67,9.34-2.09,21.07c0,0,4.39,3.7-1.66,2.35s-10.15-11.35-8.74-14.52c0,0,4.07-10,12.16-10.73S518.8,581.62,518.8,581.62Z"/><circle class="cls-7" cx="518.48" cy="569.2" r="14.03"/><circle class="cls-7" cx="540.92" cy="584.53" r="15.61"/><circle class="cls-7" cx="612.31" cy="565.05" r="14.93" transform="translate(-214.27 669.81) rotate(-49.92)"/><circle class="cls-7" cx="547.28" cy="557.65" r="18.8"/><circle class="cls-7" cx="497.93" cy="552.08" r="18.16"/><circle class="cls-7" cx="500.64" cy="520.47" r="18.33"/><circle class="cls-7" cx="524.22" cy="496.84" r="18.1"/><circle class="cls-7" cx="543.56" cy="507.94" r="21.2"/><path class="cls-8" d="M538.19,563.73s-7.84-5.32-2.63-14.45c0,0,1.23-2.31-.58-.87,0,0-3.93,2.8-4.14,9.56,0,0,1.13,5.74,7,6.55C537.88,564.54,538.79,564.59,538.19,563.73Z"/><path class="cls-8" d="M567.62,589.87s-2.35,3.41-7.84.94c0,0-1.38-.6-.43.25a9.18,9.18,0,0,0,5.64,2s3.11-.41,3.11-3C568.1,590,568.06,589.62,567.62,589.87Z"/><path class="cls-8" d="M576,567.24s-7.84-5.32-2.63-14.45c0,0,1.24-2.31-.58-.87,0,0-3.92,2.8-4.14,9.56,0,0,1.13,5.74,7,6.55C575.73,568.05,576.64,568.1,576,567.24Z"/><circle class="cls-7" cx="530.43" cy="537.26" r="20.41"/><path class="cls-8" d="M528.37,522.31s-20.5,12.73-3.51,27.45c0,0,5.51,4.63-2.24,3.11S510,538.52,512,534.33c0,0,5.61-13.18,16-14.4S528.37,522.31,528.37,522.31Z"/><path class="cls-8" d="M610.38,554.63s-14,8.36-1.88,18.87c0,0,3.94,3.31-1.49,2.11s-9.09-10.17-7.81-13c0,0,3.64-9,10.88-9.6S610.38,554.63,610.38,554.63Z"/><path class="cls-8" d="M497.82,508.68s-16,9.38-3.94,20.75c0,0,3.93,3.58-1.82,2.33s-8.82-11-7.15-14.18c0,0,4.84-9.91,12.75-10.71S497.82,508.68,497.82,508.68Z"/><path class="cls-8" d="M581.1,598.05s-5.77-7.51,2-14.54c0,0,1.9-1.81-.29-1,0,0-4.6,1.42-6.92,7.77,0,0-.73,5.81,4.62,8.43C580.54,598.71,581.39,599.05,581.1,598.05Z"/><path class="cls-8" d="M614.7,588.65s8.44-4.3,13.92,4.67c0,0,1.42,2.19,1-.11,0,0-.56-4.78-6.38-8.23,0,0-5.57-1.78-9.13,3C614.14,588,613.66,588.75,614.7,588.65Z"/><path class="cls-8" d="M487.38,558.1s-5.78-7.5,2-14.53c0,0,1.89-1.81-.3-1,0,0-4.59,1.42-6.92,7.77,0,0-.73,5.81,4.63,8.43C486.82,558.77,487.67,559.11,487.38,558.1Z"/><path class="cls-8" d="M513.37,502.52s-5.78-7.51,2-14.54c0,0,1.89-1.81-.3-1,0,0-4.59,1.42-6.92,7.77,0,0-.73,5.81,4.63,8.43C512.81,503.18,513.66,503.52,513.37,502.52Z"/><path class="cls-8" d="M530.45,515s-5.78-7.51,2-14.54c0,0,1.89-1.81-.29-1,0,0-4.6,1.42-6.93,7.78,0,0-.73,5.8,4.63,8.42C529.89,515.66,530.74,516,530.45,515Z"/><path class="cls-8" d="M563.81,518.45S573,516,576.43,526c0,0,.92,2.45,1,.12,0,0,.47-4.79-4.48-9.4,0,0-5.07-2.93-9.56,1C563.41,517.67,562.77,518.32,563.81,518.45Z"/><path class="cls-8" d="M586.59,516.08s9.16-2.41,12.61,7.51c0,0,.93,2.45,1,.12,0,0,.47-4.79-4.48-9.4,0,0-5.07-2.93-9.56,1C586.19,515.3,585.54,516,586.59,516.08Z"/><path class="cls-8" d="M602.25,626.8s-5.77-7.51,2-14.54c0,0,1.9-1.81-.29-1,0,0-4.6,1.42-6.92,7.78,0,0-.73,5.8,4.62,8.42C601.69,627.46,602.54,627.8,602.25,626.8Z"/><path class="cls-8" d="M642,613.21s8.92,3.19,6.16,13.33c0,0-.62,2.54.79.69,0,0,3.09-3.68,1.61-10.29,0,0-2.53-5.28-8.44-4.58C642.06,612.35,641.16,612.53,642,613.21Z"/><path class="cls-8" d="M511.57,575a3.22,3.22,0,0,1-1.73-4.85c1.82-3.65-1.56-.82-1.65.37s-.64,2.83.46,4.11,3.29,1.1,3.29,1.1a.58.58,0,0,0-.36-.73Z"/><path class="cls-8" d="M532.19,589.88s-5.65-5.35,2.28-12-2.1-3-3.69-.45-4.6,5.73-3.94,9.38,5.21,4.94,5.21,4.94S533.06,590.71,532.19,589.88Z"/><path class="cls-8" d="M564,484.25s2.63-5.29,7-2.13,1.54-2.28,0-2.54-3.58-1.27-5.6.26-2.43,4.88-2.43,4.88A.79.79,0,0,0,564,484.25Z"/><g id="Layer_3-2" data-name="Layer 3"><path class="cls-9" d="M512.8,559.34s11.89-7.62,31.07-6.42,29.27-.69,42.46,12.49c0,0,16.6,21.4-2.57,56.5,0,0-13.53,18.66-19.69,19.52a37.3,37.3,0,0,1-12.67-.86s-8.73-1.88-12.5-.17A23,23,0,0,1,528,642.45c-2.57-.34-17.64-12.32-22.26-23.62s-7.19-16.09-7.19-33.73C498.5,585.1,500.21,567.3,512.8,559.34Z"/><path class="cls-10" d="M586,582.07a23.43,23.43,0,0,0-5.9-13.05,4.49,4.49,0,0,0-6.3,0,4.55,4.55,0,0,0,0,6.29,9,9,0,0,0,.84,1c.12.17.23.33.33.5.5.79.87,1.62,1.29,2.45-.59-1.18,0,.13.15.5s.28.88.39,1.33.22.91.31,1.37c0,.23.09.47.12.7a32.65,32.65,0,0,1,0,6.33,4.17,4.17,0,0,0-.1.79c-.08.53-.17,1.07-.27,1.61-.22,1.13-.47,2.25-.74,3.37a4.46,4.46,0,1,0,8.59,2.37C585.92,592.55,586.71,587.29,586,582.07Z"/><path class="cls-10" d="M581,607.5A4.45,4.45,0,1,0,576.5,612,4.52,4.52,0,0,0,581,607.5Z"/></g><g id="Layer_4" data-name="Layer 4"><path class="cls-10" d="M532.65,559.34s6.79,5.32,21.32,0"/><path class="cls-11" d="M543.91,551h0a.68.68,0,0,0,0-.14.37.37,0,0,0-.07-.2,1.33,1.33,0,0,0,.11-.81c-.23-1.44-.61-2.85-.82-4.3a.46.46,0,0,0-.32-.35.52.52,0,0,0-.4-.83.54.54,0,0,0-.21,0,2.85,2.85,0,0,0-1.79.18.49.49,0,0,0-.35.45l-.44.06a.41.41,0,0,0-.37.45.53.53,0,0,0-.17.35,1.28,1.28,0,0,0,.57,1.42,1.12,1.12,0,0,0,.16.28c.34.42.89.47,1.16,1.05s.51,1.2.73,1.76a1.42,1.42,0,0,0,.33.6,8.24,8.24,0,0,1,.25,2.66,13.73,13.73,0,0,0-.06,2.22c0,.77.09,1.54.13,2.3a8.6,8.6,0,0,1,0,2.68.51.51,0,0,0,.36.63.32.32,0,0,0,.14,0l1.59.07a.51.51,0,0,0,.51-.51C544.67,557.65,544.36,554.29,543.91,551Z"/><path class="cls-12" d="M542.89,544.58s-1.06-1.15-4,.94A2.69,2.69,0,0,0,542.89,544.58Z"/><path class="cls-12" d="M545,561.63s-1.29-15.1-2.11-17"/><path class="cls-12" d="M542.24,561.39c.12-.18.56-12.34-1.65-13.51s-.22-.1-.22-.1l-1.2-.55-.28-1.71"/><path class="cls-13" d="M554,559a26.47,26.47,0,0,1-10.74,2.24,36.59,36.59,0,0,1-5.82-.41c-1.63-.24-3.57-.44-4.78-1.54-.39-.34-1,.18-.61.53,1.21,1.11,3,1.39,4.62,1.65A39.34,39.34,0,0,0,543,562a27.56,27.56,0,0,0,11.45-2.35C555,559.47,554.53,558.82,554,559Z"/></g><g id="Layer_3-3" data-name="Layer 3"><path class="cls-9" d="M572.8,591.34s11.89-7.62,31.07-6.42,29.27-.69,42.46,12.49c0,0,16.6,21.4-2.57,56.5,0,0-13.53,18.66-19.69,19.52a37.3,37.3,0,0,1-12.67-.86s-8.73-1.88-12.5-.17A23,23,0,0,1,588,674.45c-2.57-.34-17.64-12.32-22.26-23.62s-7.19-16.09-7.19-33.73C558.5,617.1,560.21,599.3,572.8,591.34Z"/><path class="cls-10" d="M646,614.07a23.43,23.43,0,0,0-5.9-13.05,4.49,4.49,0,0,0-6.3,0,4.55,4.55,0,0,0,0,6.29,9,9,0,0,0,.84,1c.12.17.23.33.33.5.5.79.87,1.62,1.29,2.45-.59-1.18,0,.13.15.5s.28.88.39,1.33.22.91.31,1.37c0,.23.09.47.12.7a32.65,32.65,0,0,1,0,6.33,4.17,4.17,0,0,0-.1.79c-.08.53-.17,1.07-.27,1.61-.22,1.13-.47,2.25-.74,3.37a4.46,4.46,0,1,0,8.59,2.37C645.92,624.55,646.71,619.29,646,614.07Z"/><path class="cls-10" d="M641,639.5A4.45,4.45,0,1,0,636.5,644,4.52,4.52,0,0,0,641,639.5Z"/></g><g id="Layer_4-2" data-name="Layer 4"><path class="cls-10" d="M592.65,591.34s6.79,5.32,21.32,0"/><path class="cls-11" d="M603.91,583h0a.68.68,0,0,0,0-.14.37.37,0,0,0-.07-.2,1.33,1.33,0,0,0,.11-.81c-.23-1.44-.61-2.85-.82-4.3a.46.46,0,0,0-.32-.35.52.52,0,0,0-.4-.83.54.54,0,0,0-.21,0,2.85,2.85,0,0,0-1.79.18.49.49,0,0,0-.35.45l-.44.06a.41.41,0,0,0-.37.45.53.53,0,0,0-.17.35,1.28,1.28,0,0,0,.57,1.42,1.12,1.12,0,0,0,.16.28c.34.42.89.47,1.16,1.05s.51,1.2.73,1.76a1.42,1.42,0,0,0,.33.6,8.24,8.24,0,0,1,.25,2.66,13.73,13.73,0,0,0-.06,2.22c0,.77.09,1.54.13,2.3a8.6,8.6,0,0,1,0,2.68.51.51,0,0,0,.36.63.32.32,0,0,0,.14,0l1.59.07a.51.51,0,0,0,.51-.51C604.67,589.65,604.36,586.29,603.91,583Z"/><path class="cls-12" d="M602.89,576.58s-1.06-1.15-4,.94A2.69,2.69,0,0,0,602.89,576.58Z"/><path class="cls-12" d="M605,593.63s-1.29-15.1-2.11-17"/><path class="cls-12" d="M602.24,593.39c.12-.18.56-12.34-1.65-13.51s-.22-.1-.22-.1l-1.2-.55-.28-1.71"/><path class="cls-13" d="M614,591a26.47,26.47,0,0,1-10.74,2.24,36.59,36.59,0,0,1-5.82-.41c-1.63-.24-3.57-.44-4.78-1.54-.39-.34-1,.18-.61.53,1.21,1.11,3,1.39,4.62,1.65A39.34,39.34,0,0,0,603,594a27.56,27.56,0,0,0,11.45-2.35C615,591.47,614.53,590.82,614,591Z"/></g><g id="Layer_3-4" data-name="Layer 3"><path class="cls-9" d="M545.8,625.34s11.89-7.62,31.07-6.42,29.27-.69,42.46,12.49c0,0,16.6,21.4-2.57,56.5,0,0-13.53,18.66-19.69,19.52a37.3,37.3,0,0,1-12.67-.86s-8.73-1.88-12.5-.17A23,23,0,0,1,561,708.45c-2.57-.34-17.64-12.32-22.26-23.62s-7.19-16.09-7.19-33.73C531.5,651.1,533.21,633.3,545.8,625.34Z"/><path class="cls-10" d="M619,648.07a23.43,23.43,0,0,0-5.9-13.05,4.49,4.49,0,0,0-6.3,0,4.55,4.55,0,0,0,0,6.29,9,9,0,0,0,.84,1c.12.17.23.33.33.5.5.79.87,1.62,1.29,2.45-.59-1.18,0,.13.15.5s.28.88.39,1.33.22.91.31,1.37c0,.23.09.47.12.7a32.65,32.65,0,0,1,0,6.33,4.17,4.17,0,0,0-.1.79c-.08.53-.17,1.07-.27,1.61-.22,1.13-.47,2.25-.74,3.37a4.46,4.46,0,1,0,8.59,2.37C618.92,658.55,619.71,653.29,619,648.07Z"/><path class="cls-10" d="M614,673.5A4.45,4.45,0,1,0,609.5,678,4.52,4.52,0,0,0,614,673.5Z"/></g><g id="Layer_4-3" data-name="Layer 4"><path class="cls-10" d="M565.65,625.34s6.79,5.32,21.32,0"/><path class="cls-11" d="M576.91,617h0a.68.68,0,0,0,0-.14.37.37,0,0,0-.07-.2,1.33,1.33,0,0,0,.11-.81c-.23-1.44-.61-2.85-.82-4.3a.46.46,0,0,0-.32-.35.52.52,0,0,0-.4-.83.54.54,0,0,0-.21,0,2.85,2.85,0,0,0-1.79.18.49.49,0,0,0-.35.45l-.44.06a.41.41,0,0,0-.37.45.53.53,0,0,0-.17.35,1.28,1.28,0,0,0,.57,1.42,1.12,1.12,0,0,0,.16.28c.34.42.89.47,1.16,1.05s.51,1.2.73,1.76a1.42,1.42,0,0,0,.33.6,8.24,8.24,0,0,1,.25,2.66,13.73,13.73,0,0,0-.06,2.22c0,.77.09,1.54.13,2.3a8.6,8.6,0,0,1,0,2.68.51.51,0,0,0,.36.63.32.32,0,0,0,.14,0l1.59.07a.51.51,0,0,0,.51-.51C577.67,623.65,577.36,620.29,576.91,617Z"/><path class="cls-12" d="M575.89,610.58s-1.06-1.15-4,.94A2.69,2.69,0,0,0,575.89,610.58Z"/><path class="cls-12" d="M578,627.63s-1.29-15.1-2.11-17"/><path class="cls-12" d="M575.24,627.39c.12-.18.56-12.34-1.65-13.51s-.22-.1-.22-.1l-1.2-.55-.28-1.71"/><path class="cls-13" d="M587,625a26.47,26.47,0,0,1-10.74,2.24,36.59,36.59,0,0,1-5.82-.41c-1.63-.24-3.57-.44-4.78-1.54-.39-.34-1,.18-.61.53,1.21,1.11,3,1.39,4.62,1.65A39.34,39.34,0,0,0,576,628a27.56,27.56,0,0,0,11.45-2.35C588,625.47,587.53,624.82,587,625Z"/></g><path class="cls-14" d="M445.5,715.5s17,25,49,21,53-11,55-16,0-126,0-126-8-10-27-13-62,0-62,0-10,3-13,7S445.5,715.5,445.5,715.5Z"/><path class="cls-14" d="M478.5,572.5v12s19,7,39,1v-12Z"/><path class="cls-15" d="M477,565.5v7s26.63,5,42,1v-7Z"/><path class="cls-16" d="M539.5,668.5s-21,6-42,4-40-5-41-8,0-52,0-52,57,11,84,2Z"/><path class="cls-17" d="M256.5,328.5s139,90,144,96,18,10,18,27v183s-13-118-18-142-6-44-35-70-95-79-95-79Z"/><path class="cls-17" d="M665.5,310.5s-176,48-188,49-103-48-119-60-95-68-95-68,175,95,194,95,68,4,113-6,91-24,100-25,27-13,24-23-29-36-29-36l-9-8s80,55,81,58-25,13-31,15S665.5,310.5,665.5,310.5Z"/></g><g id="Layer_3-5" data-name="Layer 3"><path class="cls-1" d="M769.5,299.5s-155,124-168,143-24,29-24,78v323s-1,34,5,38,36,8,45,2,31-66,31-66l5-329,164-167S836.5,291.5,769.5,299.5Z"/><path class="cls-1" d="M624.5,486.5s7-24,26-39,114-104,123-110,43.4-34.74,43.4-34.74,10.41,2.48,11,15.11-6.4,365.63-6.4,365.63-176,196-182,198a113.82,113.82,0,0,1-15,3.39Z"/><path class="cls-18" d="M642.5,584.5s-11,12,0,22c0,0,19.28-.1,19.14,4.45s2.08,64.87-1,67.71-19.11,3.84-19.11,3.84-6,12,0,18,28-1,31-7,5-6,6-18,0-78,0-78-19-12-26-14S642.5,584.5,642.5,584.5Z"/><path class="cls-19" d="M649,586s-6,3-6,4-1,5-1,7-1,6,2,6,10,0,14,1,8,7,8,8v10s1-11,1-15-1-10-3-12-6-7-8-7S649,586,649,586Z"/><path class="cls-19" d="M643,687s10-3,14-4,7-1,7-3a35.36,35.36,0,0,1,1-6s1,16,1,18-2,6-5,6-11,3-13,2-6,0-6-5A27.67,27.67,0,0,1,643,687Z"/><path class="cls-17" d="M815,548s1,127-2,131-62,72-62,72,43-66,46-84,6-48,7-70,7-95,8-100,3-64,3-64Z"/><path class="cls-17" d="M696,395s-63,53-68,60-16,30-14,43,3,40,3,50,1,67,1,67-15-84-15-93-3-46,0-55,12-28,25-37,82-48,82-48Z"/></g></svg>