<?xml version="1.0" encoding="UTF-8"?>
<svg id="Papaya" xmlns="http://www.w3.org/2000/svg" viewBox="0 0 1000 1000">
  <defs>
    <style>
      .cls-1 {
        font-family: MicrosoftSansSerif, 'Microsoft Sans Serif';
        font-size: 80px;
      }

      .cls-2 {
        font-family: FreeSansBold, FreeSans;
        font-size: 150px;
      }

      .cls-3 {
        fill: red;
        letter-spacing: -.05em;
      }

      .cls-4 {
        letter-spacing: 0em;
      }

      .cls-5 {
        fill: #603e08;
      }

      .cls-6 {
        fill: #b8b100;
      }

      .cls-7 {
        fill: #8ca814;
        stroke: #7c870f;
      }

      .cls-7, .cls-8 {
        stroke-miterlimit: 10;
        stroke-width: 3px;
      }

      .cls-9 {
        letter-spacing: 0em;
      }

      .cls-8 {
        fill: #960;
        stroke: #603e08;
      }

      .cls-10 {
        fill: #bfd127;
      }

      .cls-11 {
        fill: #d9e53e;
      }

      .cls-12 {
        letter-spacing: -.02em;
      }
    </style>
  </defs>
  <g>
    <path class="cls-8" d="M734.58,122.33s11.66-12.82,18.07-14.3c6.41-1.48,30.07,27.92,25.63,30.63s-12.81,10.27-20.12,10.27c-7.31,0-23.58-26.61-23.58-26.61Z"/>
    <path class="cls-5" d="M758.07,112.34c-3.52,2.52-7.04,5.03-10.56,7.55-2.43,1.74,.74,5.14,3.15,3.42,3.52-2.52,7.04-5.03,10.56-7.55,2.43-1.74-.74-5.14-3.15-3.42Z"/>
    <path class="cls-5" d="M773.32,128.83c-2.57,.64-5.36-.08-7.99,.03-2.63,.11-5.22,.54-7.75,1.27-2.87,.82-1.84,5.36,1.05,4.53,2.68-.77,5.39-1.21,8.19-1.17,2.56,.04,5.03,.51,7.56-.12,2.9-.73,1.86-5.26-1.05-4.53Z"/>
    <path class="cls-7" d="M704.76,95.47s59.15,36.95,60.96,76.46c0,0,48.31,55.77,18.09,109.99,0,0-9.85,23.08-30.55,35.74-20.7,12.65-45.67,26.29-86.15,96.94-40.48,70.65-58.96,114.85-162.12,174.67-103.16,59.82-247.41,24.53-279.04,9.34-31.63-15.19-15.71-131.34-15.71-131.34,0,0,7.54-86.66,58.7-181.71,0,0,17.08-25.88,60.86-57.92,43.78-32.04,71.46-41.25,92.16-46.59,20.7-5.34,58.32-20.22,97.99-53s65.29-75.26,115.81-68.36c50.52,6.89,58.08,22.58,69.01,35.8Z"/>
    <path class="cls-10" d="M659.04,87.47s28.34-1.48,26.29,16.42c-2.05,17.91-104.72,57.93-103.89,100.48s65.21-48.81,83.78-39.03c18.57,9.77,25.14,28.5,13.31,35.73,0,0-41.14,62.93-64.39,69.42,0,0-82.45,112.96-153.33,137.21s-148.67,62.46-165.43,33.71c-16.76-28.75-39.77-79.67-29.92-110.07,9.85-30.39,74.48-113.37,118.51-122.42,44.03-9.04,72.69-21.29,94.29-32.46s71.45-48.56,90.92-66.55c19.46-17.99,30.55-28.43,41.48-29.83,10.92-1.4,26.78-3.37,30.56,.82,3.78,4.19,17.83,6.57,17.83,6.57Z"/>
    <path class="cls-11" d="M446.15,217.63s-111.88-2.28-131.33,74.2c-19.45,76.48,11.26,46.33,11.26,46.33,0,0,45.74-67.37,69.81-60.55,0,0,37.29-26.05,48.21-20.13s57.08-47.49,2.05-39.84Z"/>
    <path class="cls-6" d="M444.79,537.74c-15.13,12.03-33.22,19.94-52.26,23.15-9.63,1.62-19.33,1.79-29.05,1-10.01-.81-19.98-1.94-29.92,.19-5.37,1.15-3.45,9.46,1.92,8.31,10.43-2.24,21.03-.35,31.53,.3,9.95,.61,20.01-.06,29.8-1.92,19.65-3.72,38.12-12.32,53.75-24.75,4.3-3.42-1.5-9.67-5.77-6.28Z"/>
  </g>
  <text class="cls-2" transform="translate(241.55 802.14)"><tspan class="cls-3" x="0" y="0">P</tspan><tspan x="92.55" y="0">a</tspan><tspan class="cls-9" x="175.95" y="0">p</tspan><tspan class="cls-12" x="266.1" y="0">ay</tspan><tspan class="cls-4" x="426.9" y="0">a</tspan></text>
  <text class="cls-1" transform="translate(375 901.51)"><tspan x="0" y="0">พะพายะ</tspan></text>
</svg>