<?xml version="1.0" encoding="UTF-8"?>
<svg id="Pizza" xmlns="http://www.w3.org/2000/svg" viewBox="0 0 1000 1000">
  <defs>
    <style>
      .cls-1 {
        font-family: MicrosoftSansSerif, 'Microsoft Sans Serif';
        font-size: 80px;
      }

      .cls-2 {
        fill: #ff4951;
      }

      .cls-3 {
        fill: #e2aa42;
      }

      .cls-4 {
        fill: #b5660c;
      }

      .cls-5 {
        font-family: FreeSansBold, FreeSans;
        font-size: 150px;
      }

      .cls-6 {
        fill: #e01800;
      }

      .cls-7 {
        fill: #ffce66;
        stroke: #b5660c;
      }

      .cls-7, .cls-8, .cls-9, .cls-10 {
        stroke-miterlimit: 10;
        stroke-width: 3px;
      }

      .cls-8 {
        fill: #3aa51c;
        stroke: #36b512;
      }

      .cls-11 {
        fill: #ffe0ae;
      }

      .cls-9 {
        fill: #ea1f1b;
        stroke: #b5170b;
      }

      .cls-10 {
        fill: #e89e1a;
        stroke: #ce8511;
      }

      .cls-12 {
        fill: #c27b0d;
      }

      .cls-13 {
        fill: #ffd36f;
      }

      .cls-14 {
        fill: #b15b0f;
      }

      .cls-15 {
        letter-spacing: -.02em;
      }

      .cls-16 {
        fill: red;
      }
    </style>
  </defs>
  <g>
    <path class="cls-6" d="M146.54,357.39s18.28-116.86,74.91-160.17c56.63-43.31,167.41-98.91,210.73-104.81,43.32-5.9,107.81-13.08,157.67-6.64,49.85,6.44,100.26,40.7,130.5,57.77,30.24,17.07,69.55,35.11,87.39,64.36,17.85,29.24,40.66,44.09,45.1,86.58,4.44,42.49,13.84,70.57-10.66,117.52-24.5,46.94-50.05,92.7-91.89,118.55-41.84,25.86-150.17,63.3-180.8,64.5-30.63,1.2-134.11,15.2-176.22,3.33-42.11-11.88-141.19-57.47-170.35-86.23-29.15-28.76-79.17-113.81-76.39-154.75Z"/>
    <path class="cls-7" d="M125.57,325.71c3.48-34.36,31.03-84.52,45.18-104.04,14.15-19.52,35.71-39.08,43.24-45.2,7.53-6.12,61.47-51.62,96.84-67.91,35.38-16.29,76.16-28.2,98.37-28.3,22.21-.09,36.99-2.42,36.99-2.42,7.53-6.12,8.55-7.19,46.55-10.68,38.01-3.49,100.28-6.96,117.82-2.57s58.26,20.47,77.45,25.85,57.41,35.1,66.59,45.11c9.17,10.01,56.8,35.29,75.29,66.61,18.49,31.31,47.14,101.83,45.11,136.49-2.03,34.67-23.97,89.89-31.33,109.57-7.36,19.68-31.68,65.06-87.76,103.66-56.08,38.6-88.14,56.88-118.93,61.91-30.79,5.03-30.89,13.38-33.99,12.07-3.1-1.31-117.13,24.3-156.32,15.3-39.19-9-58.76-11.24-83.75-20.11s-97.56-38.51-110.45-49.63-7.3-8.32-12.89-11.12c-5.59-2.8-51.59-46.74-61.57-54.99-9.98-8.25-35.16-48.07-40.08-63.93-4.93-15.86-15.83-81.3-12.35-115.66Zm69.36,119.12c6.05,6.44,48.69,61.26,72.27,72.08,23.58,10.82,80.85,34.63,99.46,42.46,18.61,7.83,21.9,7.57,42.72,11.68,20.82,4.12,71.69,9.49,98.02,9.63,26.33,.14,89.72-12.75,110.8-20.81,21.08-8.06,27.74-1.81,55.13-15.62,27.39-13.8,60.58-24.12,88.91-60.9,28.33-36.79,41.16-47.58,44.97-54.81,3.82-7.24,26.22-73.95,26.35-80.04,.13-6.09-3.94-19.2-2.58-25.67,1.36-6.47-15.2-64.1-38.29-101.55-23.09-37.45-83.36-70.91-91.2-72.25s-52.59-28.28-63.61-37.71c-11.02-9.43-8.66-1.85-20.24-6.57s-57.07-7.98-70.84-6.73c-13.76,1.25-94.53,5.93-94.53,5.93-4.27,3.6-37.25,14.6-74.34,25.37-37.09,10.77-81.2,35.82-91.38,44.28s-39.75,28.23-50.92,40.02c-11.16,11.79-29.13,38.55-52.41,85.11-23.27,46.56-6.42,111.66-6.42,111.66,0,0,12.07,28.01,18.12,34.45Z"/>
    <path class="cls-13" d="M717.64,172.75c3.93,1.8,38.99,25.7,53.78,40.77s28.41,35.04,33.67,60.63c5.26,25.59,8.58,44.98,9.43,62.87,.84,17.89-14.77,19.71-14.7,41.63,.07,21.91-21.76,68.78-41.5,85.5-19.74,16.72-26.19,11.16-43.68,26.43-17.5,15.27-12.95,16.88-40.52,32.26-27.57,15.37-63.72,35.68-97,39.21-33.27,3.53-60.92-3.01-89.49-1.69-28.57,1.31-157.91-28.84-181.52-41.92-23.61-13.08-25.3-16.34-52.74-39.58-27.44-23.24-52.95-40.27-62.35-68.36-9.4-28.09-27.91-44.27,.71-90.98,28.62-46.71,54.2-90.2,64.72-104.06,10.52-13.86,97-71.74,118.33-76.85,21.33-5.11,28.5-23.23,54.09-16.81,25.58,6.42,24.97,6.61,53.64-3.05,28.67-9.67,42.19-13.87,61.15-11.44,18.95,2.43,33.6,6.2,50.95,12.15,17.35,5.95,31-4.34,54.45,12.58,23.45,16.91,68.59,40.71,68.59,40.71Z"/>
    <path class="cls-9" d="M742.39,293.63c11.09-1.18,47.94,17.63,50.59,32.68,2.66,15.06,.36,61.9-41.34,49.15-41.71-12.76-56-37.06-46.76-55.05,9.24-18,37.51-26.78,37.51-26.78Z"/>
    <path class="cls-2" d="M738.69,309.91c5.59-.02,13.93,12.31,5.36,17.24-8.58,4.93-16.54,9.68-20.55,1.09-4.02-8.58,7.79-18.3,15.2-18.34Z"/>
    <path class="cls-2" d="M767.96,315.19c6.49,2.3,5.22,5.94,1.93,6.21s-4.2-7.01-1.93-6.21Z"/>
    <path class="cls-2" d="M756.44,347.51c5.32-2.41,16.54-9.68,18.9-2.09,2.36,7.59,10.97,22.3-4.08,19.42-15.05-2.89-21.65-4.62-19.87-9.71,1.79-5.09,5.05-7.62,5.05-7.62Z"/>
    <path class="cls-9" d="M665.44,406.03c3.1-.86,36.96-4.68,47.58,5.64,10.62,10.31,19.79,20.32,13.72,44.14-6.08,23.82-29.53,39.43-49.56,33.55-20.02-5.88-32.3-17.19-33.17-37.34-.87-20.15-.3-39.99,21.43-45.99Z"/>
    <path class="cls-2" d="M671.91,413.86c7.43,2.23,17.99,8.02,8.19,13.34-9.81,5.32-27.29,5.45-26.33-.14,.96-5.59,18.14-13.2,18.14-13.2Z"/>
    <path class="cls-2" d="M680.98,464.74c5.53-1.72,22.77-4.81,19.57,2.24-3.2,7.05-9.85,18.19-15.49,10.87-5.64-7.32-4.07-13.1-4.07-13.1Z"/>
    <path class="cls-2" d="M703.41,432.81c1.27-3.19,14.59-.75,9.52,4.61-5.07,5.36-13.31,4.89-9.52-4.61Z"/>
    <path class="cls-9" d="M441.76,462.68s25.7-17.06,45.61-20.22c19.91-3.16,40.49-1.99,45.64,14.56,5.14,16.55,16.42,13.81,4.51,31.88-11.91,18.07-32.26,34.98-48.57,30.22s-25.44,4.88-37.13-8.88c-11.69-13.76-10.06-47.55-10.06-47.55Z"/>
    <path class="cls-2" d="M480.72,453.6c12.35,.7,22.45,2.86,11.85,9.93-10.61,7.08-18.9,2.09-18.52-1.05s6.68-8.88,6.68-8.88Z"/>
    <path class="cls-2" d="M513.48,474.43c5,2.1,15.94,7.91,5.89,10.27-10.05,2.37-8.99-11.58-5.89-10.27Z"/>
    <path class="cls-2" d="M466.77,488.94c4.95,.73,18.74,1.74,13.26,7.98s-15.87,14.01-16.59,5.16c-.73-8.85,3.33-13.14,3.33-13.14Z"/>
    <path class="cls-9" d="M336,425.96c4.3-1.34,33.44,10.03,37.99,11.64l4.54,1.61s14.25,4.65,9.32,21.31c-4.93,16.66,7.77,29.35-18.69,35.3-26.46,5.95-56.1,3.82-61.83-10.28s-9.56-24.26-3.71-33.64c5.85-9.38,32.38-25.94,32.38-25.94Z"/>
    <path class="cls-2" d="M333.09,440.48c7.8-.91,28.26,6.35,15.16,11.93-13.09,5.58-15.92,9.49-20.74,2.66-4.82-6.82,5.58-14.59,5.58-14.59Z"/>
    <path class="cls-2" d="M346.67,473.32c3.07-.95,16.22-2.02,12.59,3.65s-2.13,10.49-8.95,8.07c-6.82-2.42-3.64-11.73-3.64-11.73Z"/>
    <path class="cls-2" d="M376.24,453.54c2.3,3.07,4.02,8.58-.72,8.54s-10.72-1.96-7.27-6.06,7.99-2.48,7.99-2.48Z"/>
    <path class="cls-9" d="M359.72,333.13c.1-8.35,10.32-29.68,24.49-31.81,14.16-2.13,43.12,10.8,45.48,18.39,2.36,7.59,15.46,19.4-2.89,31.91-18.35,12.51-34.25,24.26-47.94,14.9-13.69-9.36-19.13-33.38-19.13-33.38Z"/>
    <path class="cls-2" d="M384.45,336.79c7.78-3.17,22.43,.6,13.69,9.36-8.73,8.76-16.48,14.2-19.05,5.92s5.36-15.28,5.36-15.28Z"/>
    <path class="cls-2" d="M391.35,313.46c3.47-1.84,15.02,.63,7.67,5.18s-16.41,3.59-13.98,.56,6.3-5.74,6.3-5.74Z"/>
    <path class="cls-2" d="M416.06,332.26s14.19,.13,10.38,7.36c-3.82,7.24-8.49,11.71-11.22,7.27s.85-14.63,.85-14.63Z"/>
    <path class="cls-9" d="M264.81,292.28c7.16-2.98,54.16,5.11,60.13,22.16,5.97,17.05-14.96,53.81-55.93,49.9-40.98-3.91-54.28-31.54-36.2-49.26,18.08-17.72,32-22.8,32-22.8Z"/>
    <path class="cls-2" d="M264.89,331.58c3.74-1.16,17.72,2.81,15.14,9.67s-9.18,22.52-20.2,13.08c-11.02-9.43,3.22-22.18,5.06-22.75Z"/>
    <path class="cls-2" d="M302.84,323.57c6.17,.35,20.61,3.43,12.86,8.86-7.75,5.43-16.51,11.94-19.05,5.92s6.19-14.78,6.19-14.78Z"/>
    <path class="cls-2" d="M241.65,315.36c3.07-.95,21.2,.98,14.06,6.22s-12.64,9.22-14.14,4.39,3.76-11.76,3.76-11.76l-3.69,1.15Z"/>
    <path class="cls-9" d="M347.79,168.93c7.71-7.26,20.91-21.62,40.42-23.91s49.44-10.07,45.85,15.25c-3.59,25.32-2.42,52.94-35.75,51.95s-62.51-32.01-50.52-43.29Z"/>
    <path class="cls-2" d="M376.46,159.26c7.03,3.11,6.64,21.38-3.46,19.23s-15.56-11.05-7.6-15.79,11.06-3.44,11.06-3.44Z"/>
    <path class="cls-2" d="M402.72,170.01c5.75-1.03,23.01-1.86,17.38,8.21-5.63,10.07-10.89,17-18.17,10.94-7.27-6.06,.79-19.15,.79-19.15Z"/>
    <path class="cls-9" d="M516.25,121.12c15.98-4.97,38.96-9.08,53.88-.1,14.92,8.98,27.11,13.51,23.59,28.22-3.52,14.71-4.92,34.05-28.55,36.1-23.63,2.05-59.84,.44-62.77-19.82-2.93-20.27,13.84-44.39,13.84-44.39Z"/>
    <path class="cls-2" d="M535.42,124.24c7.65,2.92,18.42,9.4,4.5,14.48-13.92,5.08-21.46,11.2-20.95,1.97,.5-9.23,16.45-16.46,16.45-16.46Z"/>
    <path class="cls-2" d="M556.87,145.56c4.95,.73,14.25,4.65,5.64,7.32-8.6,2.67-12.48,5.39-12.96-.51-.49-5.9,7.32-6.81,7.32-6.81Z"/>
    <path class="cls-2" d="M527.37,154.73c7.38-2.29,15.15-5.46,14.81-.06-.34,5.4-1.49,12.56-11.38,11.1-9.89-1.46-3.43-11.04-3.43-11.04Z"/>
    <path class="cls-9" d="M603.41,297.49s19.95-16.03,33.93-16.59c13.98-.56,33.44,10.03,38.26,16.85,4.82,6.82,22.62,16.42,6.6,34.25-16.02,17.84-34.08,37.82-57.16,17.76-23.08-20.06-21.63-52.27-21.63-52.27Z"/>
    <path class="cls-2" d="M626.6,294.07c1.87,1.69,4.87,11.34-.93,7.85-5.8-3.49-11.36-4.03-5.22-5.94l6.15-1.91Z"/>
    <path class="cls-2" d="M659.16,299.08c3.29-.27,21.25,5.5,15.96,10.17-5.29,4.67-11.22,7.27-15.98,4.97s.02-15.13,.02-15.13Z"/>
    <path class="cls-2" d="M643.44,324.38c3.1,1.31,15.72,7.22,13.29,10.24-2.43,3.02-12.64,9.22-14.75,4.58-2.11-4.64,1.46-14.82,1.46-14.82Z"/>
    <path class="cls-9" d="M479.35,212.76c5.72-3.29,36,.91,41.06,10.69,5.06,9.77,16.13,23.73,.85,35.28-15.28,11.55-24.17,24.15-40.29,17.81-16.12-6.34-25.77-4.85-27.2-20.29-1.43-15.44,25.58-43.49,25.58-43.49Z"/>
    <path class="cls-2" d="M498.73,216.57c7.65,2.92,11.82,7.67,5.27,10.46-6.55,2.79-7.13,5.24-10.08,.11-2.94-5.14,4.8-10.57,4.8-10.57Z"/>
    <path class="cls-2" d="M466.74,256.76c2.86-1.64,9.75-9.84,13.55-1.94,3.8,7.89-4.9,18.92-9.05,16.43s-4.5-14.48-4.5-14.48Z"/>
    <path class="cls-9" d="M655.83,164.73c12.82-2.86,41.16,2.34,44.81,14.06,3.64,11.73,11.86,27.32,4.17,37.28-7.69,9.95-14.15,19.52-39.49,16.05s-36.95-10.45-39.33-20.3c-2.39-9.85,4.01-41.33,29.85-47.09Z"/>
    <path class="cls-2" d="M650.55,169.4c9.46,.09,25.56,4.16,14.95,11.24-10.61,7.08-12.24,8.34-17.21,5.35-4.97-2.99,2.26-16.58,2.26-16.58Z"/>
    <path class="cls-2" d="M666.23,206.88c3.53,2.68,13.79,1.01,11.42,8.55-2.37,7.54,1.74,7.78-6.49,7.31-8.23-.47-4.93-15.86-4.93-15.86Z"/>
    <path class="cls-2" d="M684.37,193.68c5.16,1.42,5.22,5.94,2.14,6.9s-8.42,1.1-8.26-2.73c.16-3.83,6.12-4.17,6.12-4.17Z"/>
    <path class="cls-8" d="M551.38,314.41s11.06-3.44,10.08-.11c-.99,3.33-7.26,11.33-10.39,7.77-3.13-3.57,.32-7.66,.32-7.66Z"/>
    <path class="cls-10" d="M455.78,334.29c1.84-.57,15.61-1.82,13.42,4.15-2.19,5.97-5.58,14.59-9.78,7.58s-3.64-11.73-3.64-11.73Z"/>
    <path class="cls-8" d="M419.53,247.99c3.69-1.15,14.62,1.51,7.92,8.13-6.7,6.62-12.45,7.65-12.32,1.56s4.4-9.69,4.4-9.69Z"/>
    <path class="cls-8" d="M545.11,224.85c3.07-.95,6.95-3.67,6.82,2.42-.13,6.09-5.82,11.64-7.32,6.81s.5-9.23,.5-9.23Z"/>
    <path class="cls-8" d="M611.26,218.66c5.96-.34,10.53,3.53,6.05,6.44-4.49,2.91-9.13,9.65-9.83,3.06-.7-6.59,3.79-9.5,3.79-9.5Z"/>
    <path class="cls-8" d="M735.69,267.73s13.05,7.29,5.06,9.77c-7.99,2.48-12.26,6.08-13.98,.56-1.71-5.52,8.92-10.33,8.92-10.33Z"/>
    <path class="cls-10" d="M668.81,265.07c5.16,1.42,13.21,3.46,8.72,6.37-4.49,2.91-3.82,7.24-7.38,2.29-3.56-4.94-1.34-8.66-1.34-8.66Z"/>
    <path class="cls-8" d="M676.02,364.17c4.12,.23,17.11,3,9.55,6.87-7.56,3.86-10.98,10.22-12.91,4.01s3.36-10.88,3.36-10.88Z"/>
    <path class="cls-10" d="M768.55,395.17s8.5,5.68,2.36,7.59c-6.15,1.91-9.89-1.46-8.69-4.11s6.33-3.48,6.33-3.48Z"/>
    <path class="cls-10" d="M652.05,519.11c1.84-.57,12.78,2.08,7.06,5.37-5.72,3.29-7.48,10.64-9.83,3.06-2.36-7.59,2.77-8.43,2.77-8.43Z"/>
    <path class="cls-8" d="M475.44,540.7c5.13-.84,24.08,1.59,16.12,6.34s-8.55,7.19-11.06,3.44-5.06-9.77-5.06-9.77Z"/>
    <path class="cls-8" d="M436.96,440.72c4.3-1.34,9.7,3.04,5,5.25-4.7,2.22-7.08,9.76-8.6,2.67-1.53-7.09,3.6-7.93,3.6-7.93Z"/>
    <path class="cls-10" d="M500.89,388.34c.83,.5,7.92,8.13,2.57,8.28-5.35,.15-8.9-4.8-8.72-6.37s6.15-1.91,6.15-1.91Z"/>
    <path class="cls-8" d="M591.03,409.49s16.49,3.19,10.78,6.48c-5.72,3.29-8.33,7.88-10.45,3.25-2.11-4.64-.33-9.73-.33-9.73Z"/>
    <path class="cls-10" d="M254.77,459.52s.51-.18,1.31-.44c3.58-1.13,13.02-3.66,9.41,2.4-4.43,7.43-13.68,8.03-12.91,4.01s2.19-5.97,2.19-5.97Z"/>
    <path class="cls-10" d="M323.35,385.27c5.77,1.23,17.59,8.9,10.22,11.19s-9.43,2.17-11.33-1.77,1.12-9.42,1.12-9.42Z"/>
    <path class="cls-8" d="M286.63,392.9c.46-.14,1.03-.22,1.64-.23,3.53-.09,8.72,1.78,4.37,4.41-5.1,3.1-7.35,4.55-7.38,2.29s1.36-6.47,1.36-6.47Z"/>
    <path class="cls-8" d="M205.27,350.11s12.99,2.77,6.87,6.94-6.49,7.31-9.22,2.86c-2.73-4.45,2.35-9.8,2.35-9.8Z"/>
    <path class="cls-10" d="M338.73,282.92c2.46-.76,16.81-4.47,10.93,2.65s-3.33,13.14-7.93,7c-4.6-6.13-3-9.66-3-9.66Z"/>
    <path class="cls-8" d="M296.72,212.78c1.01-1.07,7.65,2.92,3.77,5.63s-8.63,.41-9.68-.77,5.9-4.86,5.9-4.86Z"/>
    <path class="cls-10" d="M245.41,271.08s6.23,4.87,2.36,7.59-6.06,8.69-6.76,2.1c-.7-6.59,4.4-9.69,4.4-9.69Z"/>
    <path class="cls-10" d="M447.76,169.63s13.21,3.46,7.09,7.63-8.55,7.19-9.83,3.06,2.75-10.69,2.75-10.69Z"/>
    <path class="cls-3" d="M132.13,372.83c1.7,20.65,21.08,56.98,28.73,77.29,7.66,20.31,1.48,19.96,18.58,38.09,17.09,18.13,20.92,28.29,33.6,38.72,12.68,10.43,93.38,66.28,105.55,68.55,12.16,2.27,25.83,9.37,50.61,17.55,24.78,8.18,38.58,9.19,65.97,12.78s54.9-1.18,80.8-2.42c25.9-1.24,44.58-4.02,69.17-11.66,24.58-7.64,31.53-11.31,50.4-15.66,18.87-4.35,43.64-13.56,68.35-27.29,20.4-11.33,29.04-10.25,44.69-23.01,3.31-2.7,6.93-6.01,11.04-10.19,23.56-23.96,32.08-33.41,42.47-41.18,10.39-7.77,17.71-14.58,16.3-12.63-1.42,1.95-39.76,60.76-103.96,90.54-64.21,29.78-91.68,36.81-112.55,45.56-20.87,8.75-63.82,11.51-89.48,15.7-25.66,4.19-60.03,2.01-70.32,1.43-10.29-.58-84.56-18.35-117.66-33.78-33.1-15.43-58.98-29.32-83.45-45.16-24.47-15.84-75.93-68.68-81.85-81.21-5.92-12.53-21.08-56.98-22.5-72.42-1.43-15.44-4.48-29.62-4.48-29.62Z"/>
    <path class="cls-11" d="M839.87,260.32c-7.63-18.05-9.04-48.62-30.59-61.59-21.55-12.97-24.82-27.83-45.98-41.68-21.15-13.85-27.73-13.32-45.38-26.74-17.65-13.42-46.85-29.31-22.11-8.26,24.74,21.05,32.47,30.75,49.66,40.54,17.19,9.78,25.18,7.3,42.15,31.53,16.96,24.23,21.75,28.79,31.41,44.69,9.66,15.91,15.02,33.15,17.78,39.86,2.76,6.71,4.1,15.36,7.02,18.24,2.92,2.88,10.78,6.48,9.22-2.86-1.56-9.35-13.17-33.72-13.17-33.72Z"/>
    <path class="cls-11" d="M569.73,71.99c-14.59,.75-61.45,3.97-84.03,7.2-22.58,3.24-28.54,3.57-51.9,10.83s-21.94,5.3-47.78,11.07-27.16-.64-43.51,7.47c-16.35,8.11-15.12,7.72-33.93,16.59-18.81,8.87-19.4,11.32-38.18,22.45-18.78,11.13-15.74,7.92-26.47,21.08-10.74,13.17,1.84-.57-26.79,28.74-28.63,29.32-31.76,25.75-35.07,41.15s-4.18,27.77-3.72,31.41,6.69,8.51,12.94-1.75,10.44-20.64,16.93-27.95,11.64-23.28,27.88-40.43,21.4-27.85,39.42-36.46c18.02-8.61,30.44-18.52,49.46-26.7,19.02-8.18,38.42-19.5,50.13-20.87,11.71-1.37,15.79-3.39,36.51-8.32,20.71-4.92,20.5-5.61,41.61-11.42,21.11-5.8,32.01-9.78,45.13-10.92,13.13-1.13,16.12-1.97,28.1-1.58,11.97,.39,12.39-6.07,24.76-.32,12.37,5.75,12.71,.35,29.64,4.92,16.92,4.57,32.65,2.18,37.44,3.98,4.79,1.8,19.27-7.99,1.95-11.68-17.32-3.69-50.5-8.51-50.5-8.51Z"/>
    <path class="cls-14" d="M728.26,118.02s-5.86,1.75-11.47,3.51c-4.7,1.47-9.23,2.95-10,3.42-1.67,1.02-6.53,7.07-6.26,12.28,.27,5.21,7.03-5.06,7.19-4.8s18.11-11.38,18.11-11.38l2.43-3.02Z"/>
    <path class="cls-4" d="M843.67,448.22c-6.02-4.18-19.92-14.23-27.11-13.51-7.19,.72-10.69,.3-10.69,.3,0,0,3.23-4.79,6.52-5.05s18.98,2.18,18.56,3.19,11.22,10.25,11.22,10.25l1.5,4.83Z"/>
    <path class="cls-4" d="M587.35,575.51c-.16,3.83-3.73,14.02,1.33,23.79,5.06,9.77,3.61,9.47,7.17,14.41,3.56,4.94,5.86,8.01,5.86,8.01,0,0-7.38-25.92-9.14-29.42-1.76-3.5-1.63-9.59-3.72-11.96-2.09-2.38-1.5-4.83-1.5-4.83Z"/>
    <path class="cls-4" d="M264.01,523.96c-2.89-.62-10.79,8.65-14.21,15s-4.32,6.66-5.25,10.72-.67,8.26-.67,8.26c0,0-7.08-6.62-5.88-9.26s1.97-6.66,3.36-10.88c1.39-4.21,6.43-11.83,6.43-11.83,0,0,1.17-4.9,5.07-5.36s11.15,3.34,11.15,3.34Z"/>
    <path class="cls-14" d="M228.68,210.48l-11.54-13.05s2.37-7.54-4.42-7.7-6.17-.35-6.17-.35c0,0,.5-9.23,6.09-6.43,5.59,2.8,9.11,4.97,10.18,8.68s6.91,9.46,7.15,12.41-1.29,6.45-1.29,6.45Z"/>
    <path class="cls-14" d="M449.77,100.19s2.02-12.05-.33-14.68-2.97-2.44-2.97-2.44l.96-5.59,9.53,17.58-7.19,5.14Z"/>
    <path class="cls-12" d="M586.48,555.36s-25.45-45.03-30.52-72.2c-5.07-27.16-.61-32.33-6.77-47.81-6.16-15.48-15.69-37.48-19.76-50.58-4.07-13.1-13.2-35.98-15.43-49.66s-23.76-74.3-28.29-91.04-4.61-23.52-8.71-38.89c-4.1-15.36-6.24-22.26-10.93-35.18-4.69-12.91-14.99-30.89-14.22-34.91,.77-4.02-2.31-20.46-2.31-20.46,0,0,4.31,16.05,7.72,24.83,3.4,8.78,14.89,39.24,16.82,45.45,1.93,6.21,9.86,31.73,11.14,35.87,1.29,4.14,10.72,34.49,12,38.62s14.65,36.29,16.63,47.02c1.99,10.73,3.47,30.69,6.41,35.82,2.94,5.14,4.59,21.26,9.86,31.73,5.27,10.46,11.72,16.02,14.38,31.08,2.66,15.06,7.47,21.88,7.16,29.54-.32,7.66,3.33,19.39,4.61,23.52,1.29,4.14,5.96,32.18,10.59,40.58,4.63,8.39,8.76,26.02,11.3,32.04,2.54,6.02,8.33,24.64,8.33,24.64Z"/>
    <path class="cls-12" d="M278.83,508.77c6.33-3.48,16.48-14.2,29.12-23.42s16.3-12.63,27.92-20.78,22.17-19.75,28.29-23.92c6.12-4.17,17.31-13.7,28.29-23.92,10.98-10.22,15.62-16.96,24.57-25.03s10.58-9.34,18.73-15.65c8.15-6.31,5.47-6.24,21.4-15.72,11.4-6.79,18.31-10.25,25.43-14.33,2.83-1.62,5.69-3.34,8.88-5.41,11.22-7.27,13.1-9.44,20.52-13.98,7.42-4.54,12.96-6.25,20.89-13.26,7.93-7,14.67-11.36,22.17-19.75,7.5-8.38,12.18-12.86,21.96-20.44,9.78-7.58,20.63-11.7,23.86-16.49,3.23-4.79,4.25-5.86,10.52-13.86,6.28-8,8.49-11.71,18.05-19.98s15.68-12.44,19.34-15.84,13.04-10.1,16.7-13.51c3.66-3.41,7.78-3.17,13.04-10.1,5.26-6.93,15.06-23.79,16.13-23.26s6.41,.37,6.41,.37c0,0-21.66,27.91-31.43,35.48-9.78,7.58-33.12,32.22-37.61,35.13s-5.88,7.12-15.41,17.65c-9.53,10.53-25.4,24.53-30.5,27.63-5.1,3.1-6.57,.53-12.66,6.96-6.09,6.43-2.4,5.28-9.93,11.41-7.53,6.12-9.13,9.65-14.24,12.74-5.1,3.1-.96,5.59-10.61,7.08s-.8,1.76-11.22,7.27c-10.42,5.51-73.69,44.83-77.53,49.81-3.85,4.98-2.75,10.69-13.57,17.07s-11.89,2.94-21.03,12.58c-9.13,9.65-10.74,13.17-15.84,16.27-5.1,3.1-5.96,.34-13.44,10.98s-32.65,20.73-37.91,27.66c-5.26,6.93-.96,5.59-10.74,13.17-9.78,7.58-6.12,4.17-16.3,12.63s-12.98,14.62-17.07,16.65c-4.09,2.03-8.02,.22-14.72,6.84-6.7,6.62-10.45,3.25-10.45,3.25Z"/>
    <path class="cls-12" d="M791.19,428.98c-5.8-3.49-35.34-13.98-49.17-17.24-13.82-3.27-12.26,6.08-31.54-6.08-19.28-12.16-11.05-11.69-33.53-16.81-22.48-5.12-23.9-3.16-37.75-8.69s-4.57-3.87-21.92-9.83c-17.35-5.95-20.82-4.12-33.44-10.03-12.62-5.91-6.72-10.77-26.34-17.53-12.93-4.45-19.38-5.01-25.3-6.53-3.07-.79-5.99-1.83-9.59-3.81-10.56-5.79-2.54-6.02-22.81-14.85-20.27-8.83-24.41-11.32-41.55-16.59-8.26-2.54-13.35-3.95-16.99-5.15-3.91-1.28-6.15-2.32-8.83-4.22s-19.2-5.95-36.85-10.67c-17.64-4.73-36.32-10.08-43.06-14.41-13.48-8.67-14.04-3.96-32.49-15.62s-20.14-14.92-29.23-18.15-14.06-6.22-24.38-9.06c-10.32-2.84-17.75-5.07-21.04-4.81s26.44,9.18,28.31,10.87,9.09,3.23,19.68,11.28c10.59,8.05,15.32,8.1,19.89,11.97s7.25,3.8,13.66,7.1c6.42,3.3,11.98,3.84,15.08,5.15s10.78,6.48,12.86,8.86,41.25,9.12,49.54,14.1c8.29,4.99,41.71,12.76,48.12,16.06,6.42,3.3,33.23,9.34,37.19,13.4,3.96,4.06,18.92,.17,23.55,8.56,4.63,8.39,34.39,19.57,38.93,21.18,4.54,1.61,24.25,15.15,33.56,19.07,9.3,3.92,33.82,6.89,36.52,9.07s29.97,11.86,42.56,15.51c12.59,3.65,31.63,12.86,34.73,14.17,3.1,1.31,43.74,10.61,49.11,12.72,5.37,2.11,17.16,7.52,21.5,8.45s21.01,2.55,21.01,2.55Z"/>
  </g>
  <text class="cls-5" transform="translate(310.63 801.97)"><tspan class="cls-16" x="0" y="0">P</tspan><tspan x="100.05" y="0">iz</tspan><tspan class="cls-15" x="216.75" y="0">z</tspan><tspan x="288.75" y="0">a</tspan></text>
  <text class="cls-1" transform="translate(409.51 901.72)"><tspan x="0" y="0">พิทซะ</tspan></text>
</svg>