<svg id="Layer_1" data-name="Layer 1" xmlns="http://www.w3.org/2000/svg" viewBox="0 0 1000 1000">
  <defs>
    <style>
      .cls-1 {
        font-size: 150px;
        fill: #ed2024;
        font-family: FreeSansBold, FreeSans;
      }

      .cls-2 {
        letter-spacing: -0.01em;
      }

      .cls-2, .cls-3 {
        fill: #000;
      }

      .cls-4 {
        fill: #f8f8e1;
      }

      .cls-4, .cls-9 {
        stroke: #d1cea7;
      }

      .cls-4, .cls-6, .cls-7, .cls-9 {
        stroke-miterlimit: 10;
        stroke-width: 3px;
      }

      .cls-5 {
        fill: #ede2c8;
      }

      .cls-6 {
        fill: #61a5ba;
      }

      .cls-6, .cls-7 {
        stroke: #4997ab;
      }

      .cls-7 {
        fill: #73d0f2;
      }

      .cls-8 {
        fill: #3e87c7;
      }

      .cls-9 {
        fill: none;
      }

      .cls-10 {
        fill: #4391ce;
      }

      .cls-11 {
        fill: #66bcd4;
      }

      .cls-12 {
        fill: #fff;
      }
    </style>
  </defs>
  <title>milk</title>
  <g>
    <text class="cls-1" transform="translate(358.42 806.62)">M<tspan class="cls-2" x="124.95" y="0">i</tspan><tspan class="cls-3" x="164.4" y="0">lk</tspan></text>
    <polygon class="cls-4" points="364.57 630.31 473.74 658.81 684.18 630.31 706.54 208.83 615.13 115.03 615.13 76.44 369.17 89.5 379.04 137 338.92 208.83 364.57 630.31"/>
    <polyline class="cls-4" points="338.92 208.83 468.48 236.73 706.54 208.83"/>
    <line class="cls-4" x1="392.85" y1="137" x2="615.13" y2="115.03"/>
    <polygon class="cls-5" points="459.93 231.98 385.61 139.96 343.52 207.04 407.97 183.89 459.93 231.98"/>
    <path class="cls-6" d="M515.35,180.44s12.34,29.57,52.89,28.91,42.06-11.26,46.16-16.76l1.9-22.53-97.83-11.41Z"/>
    <path class="cls-7" d="M563.45,150.13S546,146.9,535,149.8s-15.92,4.73-16.51,8.85,4,13.64,16.72,17.51a170.71,170.71,0,0,0,68.73,6.23s12.42-3.35,13-12.25S577.15,151.73,563.45,150.13Z"/>
    <path class="cls-5" d="M341.55,213.58c0,1.18,7.89,118.72,7.89,118.72s0-64.11,5.92-75.39,0-25.53,8.55-27.31,23.68-4.15,17.76-7.12S341.55,213.58,341.55,213.58Z"/>
    <path class="cls-5" d="M358,483.09S365.23,587,365.23,590s3.94,35.62,3.29,36.21,41.43,12.47,46.69,14.25,42.09,9.49,45.37,10.68,8.55,6.53,7.9,0-32.89-17.21-50.64-22-28.94,0-33.54-23.15-15.13-76-17.1-89.65S358,483.09,358,483.09Z"/>
    <path class="cls-5" d="M385.61,92.47s7.9,35,9.21,36.81,12.5,5.34,21,3.56,62.48-6.53,69.06-7.12S525,121.56,527,121s-71.69,2.37-82.87,1.78-19.73,5.93-28.93-2.38-15.79-13.65-20.39-19.59A31.45,31.45,0,0,0,385.61,92.47Z"/>
    <path class="cls-5" d="M378.38,92.47c-1.32-1.19-7.23,0-7.23,0s9.2,42.15,10.52,42.74,7.89,0,7.89,0Z"/>
    <polygon class="cls-8" points="694.05 376.23 688.13 490.21 471.96 516.45 358.42 489.18 351.42 378.01 470.53 401.23 694.05 376.23"/>
    <polyline class="cls-9" points="381.67 91.28 392.85 137 468.48 236.73 473.74 658.81"/>
    <path class="cls-10" d="M475.71,446.28s-.66,58.78,0,60.56-3.29,5.93,9.21,4.15,31.56-4.15,31.56-4.15-27.62.59-31.56-1.19-7.24-26.12-7.24-29.68S475.71,446.28,475.71,446.28Z"/>
    <path class="cls-10" d="M468.48,478.93s.65,31.47,0,32.66S446.12,508,446.12,508,469.79,520.49,468.48,478.93Z"/>
    <path class="cls-11" d="M518.46,173.8s-.66,11.87.65,13.65,19.73,16.63,32.89,19,21.7,1.19,24.33,0S550,202.3,544.1,198.73s-16.44-5.93-17.75-9.49-2-7.72-2.63-9.5S518.46,173.8,518.46,173.8Z"/>
    <path class="cls-12" d="M509.51,497.15c-.11-4.06-1.08-7.88-1.84-11.85a91.62,91.62,0,0,1-1.22-13c-.43-8.28-1.09-16.56-.49-24.88a66,66,0,0,1,2.23-13.31c.4-1.36.77-4.27,2.87-3.49.13.05,2,3.73,2.15,3.93a92.3,92.3,0,0,1,4.23,10c1.31,3.34,1.49,6.81,2.67,10.11.67,1.86,3.53,2.67,4.57.6,2.15-4.28,2.31-9.82,3.17-14.5,1-5.27,2-10.77,4.92-15.38,2.62-4.14,9.35-7.34,14.2-7.55,6.24-.27,7.95,8,9.28,12.89,2.87,10.56,3.65,21.59,4.6,32.41.92,10.42,1.24,20.93,1.58,31.4.1,3.2,5.1,3.22,5,0-.42-12.86-1.69-25.69-2-38.52-.16-6.15-1.46-12.71-2.57-18.78-1.14-6.22-2.72-12.68-5.68-18.32-5.16-9.87-17.46-5.93-24.79-.47-4,3-6.16,8.21-7.56,12.87a89.05,89.05,0,0,0-2.08,9.73c-.62,3.5-.75,8.48-2.37,11.7l4.57.59c-.8-2.24-.71-4.68-1.41-7s-1.6-4.33-2.46-6.4c-1.69-4.05-3.6-8-5.62-11.83-3.7-7.06-9.47-2.74-11.54,3-3.59,9.92-3.06,21.16-3.15,31.52a129.39,129.39,0,0,0,.84,15.76c.73,6.26,2.75,12.46,2.92,18.75.09,3.21,5.09,3.23,5,0Z"/>
    <path class="cls-12" d="M573.91,419.94c.13,5.8-1.54,11.35-1.57,17.22,0,5.63-.27,11.34.36,16.95.73,6.54,1.36,13,1.72,19.58.32,6,2,11.78,2.62,17.72.35,3.17,5.35,3.2,5,0-.67-5.94-2.24-11.75-2.62-17.72-.42-6.42-.95-12.71-1.65-19.1a153.53,153.53,0,0,1-.43-17.43c0-5.9,1.7-11.34,1.57-17.22-.08-3.22-5.08-3.23-5,0Z"/>
    <path class="cls-12" d="M575.36,412c3.22,0,3.22-5,0-5s-3.22,5,0,5Z"/>
    <path class="cls-12" d="M596.86,398c-.17,8.31-1.56,16.47-1.56,24.84,0,8.14-.48,16.1-.87,24.21-.38,7.69-.7,15.4-.7,23.1,0,5.93-1.53,15,1.39,20.42,1.52,2.84,5.84.31,4.31-2.52-1.26-2.37-.74-6.54-.71-9.17,0-4.1,0-8.21,0-12.31,0-7.37.32-15,.86-22.36.57-7.81.68-15.48.71-23.35,0-7.68,1.41-15.2,1.56-22.86.07-3.22-4.93-3.21-5,0Z"/>
    <path class="cls-12" d="M623,395.41c-.43,7-1.59,13.81-1.57,20.89,0,8.13-.45,16.21-.53,24.35A178.06,178.06,0,0,0,622,461.83c1,9.24.4,18.72.39,28,0,3.22,5,3.22,5,0,0-9,.63-18.2-.18-27.15-.32-3.5-1.07-6.91-1.41-10.4-.39-3.85,0-7.79,0-11.65.08-8.14.56-16.21.53-24.35,0-7.06,1.14-13.88,1.57-20.89.19-3.21-4.81-3.2-5,0Z"/>
    <path class="cls-12" d="M656.68,402.5a148.69,148.69,0,0,1-8.43,13.55c-3.22,4.56-7.27,8.52-10.51,13.06-2.23,3.13-4.3,6.31-6.71,9.35-1.54,2-3.06,3.93-4.58,5.9-1.39,1.81-4,4.2-4.63,6.45-.84,2.83.94,4.79,3.29,6.15,3.66,2.12,7.77,3.65,11.5,5.7,5,2.73,10.36,4.7,15.43,7.2,5.56,2.74,10.88,6,16.5,8.58,2.89,1.35,5.44-2.95,2.52-4.31-9.23-4.31-18.08-9.37-27.36-13.62-3.6-1.65-6.85-3.92-10.46-5.52-1-.45-5-1.35-5.6-2.34-1-1.6,2.15-4.47,3-5.5,4.75-6.17,9.21-12.34,13.95-18.43,5.93-7.62,11.8-15.21,16.46-23.7,1.55-2.82-2.77-5.34-4.32-2.52Z"/>
  </g>
</svg>
