<svg id="Layer_2" data-name="Layer 2" xmlns="http://www.w3.org/2000/svg" viewBox="0 0 1000 1000"><defs><style>.cls-1,.cls-6,.cls-8{fill:#17a0d6;}.cls-2{fill:#149ac4;}.cls-3{fill:#1abde0;}.cls-4{fill:#19b2cc;}.cls-5{fill:#f8eae1;}.cls-5,.cls-6{stroke:#c1c1c1;}.cls-10,.cls-11,.cls-12,.cls-5,.cls-6,.cls-7,.cls-8,.cls-9{stroke-miterlimit:10;}.cls-12,.cls-5,.cls-6,.cls-7,.cls-8{stroke-width:3px;}.cls-7{fill:#d0c6bc;stroke:#baaea4;}.cls-8{stroke:#0b8bb2;}.cls-9{fill:#87807b;stroke:#706965;}.cls-10{fill:#dac2c2;stroke:#c6afaf;}.cls-11{fill:#6e4660;stroke:#5b354f;}.cls-12{fill:#c26aa4;stroke:#ad5995;}</style></defs><title>airport</title><path class="cls-1" d="M344.31,662.58H853.19S835.7,597.93,825.81,585s-55.53-70.75-126.27-89.76-116.38-19-162-12.93-124,57.05-124,57.05l-63.14,82.91Z"/><path class="cls-2" d="M350.39,660.3l15.21.76S409.72,526.42,534.47,512s187.13,9.89,258.63,44.88c0,0-41.84-42.6-93.56-57.81S605.22,477,533,487.63,415.05,531,401.36,546.2s-54.14,97.06-54.14,97.06Z"/><polygon class="cls-3" points="431.78 534.79 577.07 665.63 623.47 665.63 462.97 514.25 431.78 534.79"/><polygon class="cls-3" points="529.91 489.91 718.55 664.11 766.48 664.11 576.31 482.31 529.91 489.91"/><path class="cls-4" d="M446.36,547.92s22.6-16.45,31.58-19.54l-16.11-15.27-30.43,21.3Z"/><path class="cls-4" d="M551.85,510.17s39.86-3.26,51.74-2.44l-26.9-25-46.4,7.6Z"/><path class="cls-5" d="M732.25,495.24c-80.63-41.08-210-38.8-301.23,19s-99.65,152.9-99.65,152.9l219.08,2.28,318.72-5.32C855.48,589.56,812.88,536.31,732.25,495.24Zm-309.6,164.3h-70s13.7-71.5,70-113.34Zm84.44,0H428.74V543.16c31.95-27.38,78.35-41.08,78.35-41.08Zm88.24,0H511.65v-159c40.32-13.69,83.68-12.93,83.68-12.93Zm94.32,0h-89V487.63c41.84-2.28,89,14.45,89,14.45Zm84.43,0H694.21V502.08c67.7,26.63,79.87,44.12,79.87,44.12ZM777.89,550c54.77,39.55,66.94,109.53,66.94,109.53H777.89Z"/><polygon class="cls-1" points="227.87 669.71 227.98 811.96 971.15 813.68 971.04 665.35 227.87 669.71"/><polygon class="cls-3" points="234.77 672.47 351.33 812.05 401.64 812.21 292.58 672.47 234.77 672.47"/><polygon class="cls-3" points="392.99 672.47 497.2 812.44 521.54 812.44 417.33 672.47 392.99 672.47"/><polygon class="cls-3" points="499.27 669.43 618.63 812.88 644.01 813.96 521.54 669.13 499.27 669.43"/><polygon class="cls-3" points="570.16 667.68 681.43 813.96 708.82 813.96 598.75 667.53 570.16 667.68"/><polygon class="cls-3" points="713.58 667.53 807.93 813.46 834.42 813.96 739.18 667.53 713.58 667.53"/><polygon class="cls-3" points="840.26 665.63 948.43 813.96 968.07 813.96 866.88 665.63 840.26 665.63"/><path class="cls-5" d="M220.32,659.54V814l759.9,3V659.54ZM374.73,808.63H233.25V766.8H374.73Zm0-44.88H233.25V721.92H374.73Zm0-44.88H233.25V677H374.73ZM520,808.63H378.54V766.8H520Zm0-44.88H378.54V721.92H520Zm0-44.88H378.54V677H520Zm75.31,89.76h-70V677h70Zm76.06,0h-70V677h70Zm146.81,0H676.72V766.8H818.2Zm0-44.88H676.72V721.92H818.2Zm0-44.88H676.72V677H818.2Zm145.29,89.76H822V766.8H963.49Zm0-44.88H822V721.92H963.49Zm0-44.88H822V677H963.49Z"/><polygon class="cls-5" points="53.35 430.96 53.35 815.1 226.78 815.1 226.78 427.92 53.35 430.96"/><rect class="cls-6" x="102.41" y="681.6" width="73.02" height="128.55"/><line class="cls-6" x1="138.93" y1="681.6" x2="140.07" y2="810.15"/><rect class="cls-7" x="50.69" y="481.54" width="180.28" height="18.26"/><polygon class="cls-8" points="30.15 297.46 56.01 423.73 226.4 423.73 252.26 297.46 30.15 297.46"/><polygon class="cls-3" points="43.08 298.22 139.69 426.78 173.92 426.78 67.42 294.42 43.08 298.22"/><polygon class="cls-3" points="147.29 295.94 224.88 424.5 208.91 426.78 132.08 296.7 147.29 295.94"/><rect class="cls-5" x="101.44" y="297.46" width="4.76" height="126.27"/><rect class="cls-5" x="173.7" y="297.46" width="4.76" height="126.27"/><path class="cls-9" d="M100.43,198.58h11.3L131.32,245h-6L123,237.37l-13.56-9.89-10.55,9.89-3.77,9.13H89.88Zm21.09,31.94L117,221.4l-3.77,3.8Zm-11.3-7.6,5.28-5.33-6-12.93-3.77.76-2.26,13.69Zm-3.77,3-3.76-3.8-2.26,9.89Z"/><path class="cls-10" d="M92.14,188.69c-.76,0-20.35-15.22-20.35-15.22s.76-9.12-6-7.6S60.49,175,63.5,175h6l20.35,18.25Z"/><path class="cls-11" d="M114,157.5s-32.4,41.84-52.75,58.57c0,0,15.83,7.61,27.88,5.33s28.64-14.46,32.4-28.15S118.51,161.3,114,157.5Z"/><polygon class="cls-5" points="199.02 289.86 199.02 242.69 78.07 242.69 78.07 292.14 199.02 289.86"/><path class="cls-9" d="M243.9,242.69H232.49L212.71,289.1h6.09l2.28-7.61,13.69-9.89,10.65,9.89,3.8,9.13h5.33Zm-21.3,31.95,4.56-9.13,3.81,3.81ZM234,267l-5.33-5.33,6.09-12.93,3.8.76,2.28,13.69Zm3.8,3,3.81-3.8,2.28,9.88Z"/><path class="cls-10" d="M252.26,232.81c.77,0,20.54-15.22,20.54-15.22s-.76-9.13,6.09-7.6,5.32,9.12,2.28,9.12h-6.09l-20.53,18.26Z"/><path class="cls-11" d="M230.21,201.62s32.7,41.84,53.24,58.57c0,0-16,7.61-28.14,5.32s-28.91-14.45-32.71-28.14S225.64,205.42,230.21,201.62Z"/><polygon class="cls-12" points="47.65 418.41 47.65 435.9 235.53 435.9 235.53 420.69 47.65 418.41"/><polygon class="cls-12" points="19.5 285.29 23.3 302.03 259.11 303.55 263.68 285.29 19.5 285.29"/></svg>