<svg id="Layer_2" data-name="Layer 2" xmlns="http://www.w3.org/2000/svg" viewBox="0 0 1000 1000"><defs><style>.cls-1{fill:none;stroke:#2d2d2d;}.cls-1,.cls-10,.cls-14,.cls-15,.cls-2,.cls-3,.cls-5,.cls-8{stroke-miterlimit:10;stroke-width:3px;}.cls-2{fill:#535564;stroke:#333;}.cls-3{fill:#d8304b;stroke:#bc203f;}.cls-4{fill:#ea6074;}.cls-5{fill:#d98b2c;stroke:#c9781f;}.cls-6{fill:#e19836;}.cls-7{fill:#dd5968;}.cls-8{fill:#198ec2;stroke:#137fa5;}.cls-9{fill:#29b6d4;}.cls-10{fill:#d7ab31;stroke:#bf9426;}.cls-11{fill:#e7be4f;}.cls-12{fill:#eabd58;}.cls-13{fill:#d9ac37;}.cls-14{fill:#a28a90;stroke:#7a6e71;}.cls-15{fill:#35bbd7;stroke:#25adbf;}.cls-16{fill:#63d6e5;}</style></defs><title>port</title><line class="cls-1" x1="743.7" y1="392.08" x2="743.7" y2="400.58"/><path class="cls-2" d="M736,399h15.46V411.4H736Z"/><line class="cls-1" x1="735.97" y1="411.4" x2="689.6" y2="431.5"/><rect class="cls-3" x="689.6" y="431.5" width="108.98" height="51.79"/><polygon class="cls-4" points="706.22 439.62 712.4 439.62 712.4 475.94 705.44 475.94 705.44 439.62 706.22 439.62"/><polygon class="cls-4" points="722.45 439.62 728.63 439.62 728.63 475.94 721.67 475.94 721.67 439.62 722.45 439.62"/><polygon class="cls-4" points="741 439.62 747.18 439.62 747.18 475.94 740.23 475.94 740.23 439.62 741 439.62"/><polygon class="cls-4" points="758 439.62 764.19 439.62 764.19 475.94 757.23 475.94 757.23 439.62 758 439.62"/><polygon class="cls-4" points="775.01 439.62 781.19 439.62 781.19 475.94 774.23 475.94 774.23 439.62 775.01 439.62"/><polygon class="cls-2" points="693.29 431.5 693.46 429.18 686.5 429.18 686.5 434.59 693.46 434.59 693.29 431.5"/><line class="cls-1" x1="751.43" y1="411.4" x2="798.58" y2="431.5"/><polygon class="cls-2" points="795.05 429.99 794.72 433.82 800.9 433.82 800.9 429.95 795.05 429.99"/><line class="cls-1" x1="640.25" y1="333.73" x2="656.95" y2="333.73"/><rect class="cls-1" x="630.85" y="388.99" width="29.37" height="233.43"/><rect class="cls-2" x="720.51" y="383.58" width="43.28" height="10.05"/><polygon class="cls-1" points="512.59 359.62 512.59 388.99 821.77 387.44 782.35 359.62 512.59 359.62"/><polygon class="cls-1" points="639.84 359.62 640.9 291.6 647.86 291.6 662.54 359.62 639.84 359.62"/><line class="cls-1" x1="640.03" y1="347.33" x2="659.89" y2="347.33"/><line class="cls-1" x1="640.43" y1="321.92" x2="654.41" y2="321.92"/><line class="cls-1" x1="640.64" y1="308.62" x2="651.19" y2="308.62"/><polyline class="cls-1" points="730.88 359.62 647.86 291.6 640.9 291.6 530.96 359.62"/><line class="cls-1" x1="660.23" y1="595.83" x2="630.85" y2="595.83"/><line class="cls-1" x1="660.23" y1="567.1" x2="630.85" y2="567.1"/><line class="cls-1" x1="630.85" y1="537.61" x2="660.23" y2="537.61"/><line class="cls-1" x1="630.85" y1="509.83" x2="660.23" y2="509.83"/><line class="cls-1" x1="630.85" y1="481.51" x2="660.23" y2="481.51"/><line class="cls-1" x1="630.85" y1="453.83" x2="660.23" y2="453.83"/><line class="cls-1" x1="630.85" y1="422.68" x2="660.23" y2="422.68"/><line class="cls-1" x1="546.28" y1="359.62" x2="546.28" y2="388.82"/><line class="cls-1" x1="575.32" y1="359.62" x2="575.32" y2="388.99"/><line class="cls-1" x1="603.95" y1="359.62" x2="603.95" y2="388.82"/><line class="cls-1" x1="630.92" y1="359.62" x2="630.92" y2="388.4"/><line class="cls-1" x1="660.23" y1="359.62" x2="660.23" y2="387.44"/><line class="cls-1" x1="689.24" y1="359.62" x2="689.24" y2="388.11"/><line class="cls-1" x1="717.07" y1="359.62" x2="717.07" y2="387.97"/><line class="cls-1" x1="747.11" y1="359.62" x2="747.11" y2="387.82"/><line class="cls-1" x1="778.97" y1="359.62" x2="779.78" y2="387.65"/><line class="cls-1" x1="630.85" y1="596.14" x2="660.23" y2="567.54"/><line class="cls-1" x1="630.85" y1="567.54" x2="660.23" y2="596.14"/><line class="cls-1" x1="630.85" y1="566.77" x2="660.23" y2="538.17"/><line class="cls-1" x1="630.85" y1="538.17" x2="660.23" y2="566.77"/><line class="cls-1" x1="630.85" y1="538.17" x2="660.23" y2="509.57"/><line class="cls-1" x1="630.85" y1="509.57" x2="660.23" y2="538.17"/><line class="cls-1" x1="630.85" y1="510.34" x2="660.23" y2="481.74"/><line class="cls-1" x1="630.85" y1="481.74" x2="660.23" y2="510.34"/><line class="cls-1" x1="630.85" y1="481.74" x2="660.23" y2="453.14"/><line class="cls-1" x1="630.85" y1="453.14" x2="660.23" y2="481.74"/><line class="cls-1" x1="630.85" y1="452.37" x2="660.23" y2="423.77"/><line class="cls-1" x1="630.85" y1="423.77" x2="660.23" y2="452.37"/><line class="cls-1" x1="630.85" y1="420.68" x2="660.23" y2="392.08"/><line class="cls-1" x1="630.85" y1="392.08" x2="660.23" y2="420.68"/><line class="cls-1" x1="630.85" y1="388.22" x2="660.23" y2="359.62"/><line class="cls-1" x1="630.85" y1="359.62" x2="660.23" y2="388.22"/><line class="cls-1" x1="661" y1="388.22" x2="690.37" y2="359.62"/><line class="cls-1" x1="661" y1="359.62" x2="690.37" y2="388.22"/><line class="cls-1" x1="688.05" y1="388.22" x2="717.42" y2="359.62"/><line class="cls-1" x1="688.05" y1="359.62" x2="717.42" y2="388.22"/><line class="cls-1" x1="717.42" y1="388.22" x2="746.79" y2="359.62"/><line class="cls-1" x1="717.42" y1="359.62" x2="746.79" y2="388.22"/><line class="cls-1" x1="748.34" y1="388.22" x2="777.71" y2="359.62"/><line class="cls-1" x1="748.34" y1="359.62" x2="777.71" y2="388.22"/><line class="cls-1" x1="603.03" y1="388.22" x2="632.4" y2="359.62"/><line class="cls-1" x1="603.03" y1="359.62" x2="632.4" y2="388.22"/><line class="cls-1" x1="575.2" y1="388.99" x2="604.57" y2="360.39"/><line class="cls-1" x1="575.2" y1="360.39" x2="604.57" y2="388.99"/><line class="cls-1" x1="545.83" y1="388.22" x2="575.2" y2="359.62"/><line class="cls-1" x1="545.83" y1="359.62" x2="575.2" y2="388.22"/><line class="cls-1" x1="514.14" y1="388.22" x2="543.51" y2="359.62"/><line class="cls-1" x1="514.14" y1="359.62" x2="543.51" y2="388.22"/><line class="cls-1" x1="182.25" y1="312.47" x2="182.25" y2="320.97"/><path class="cls-2" d="M189.91,319.42H174.59v12.37h15.32Z"/><line class="cls-1" x1="189.91" y1="331.79" x2="235.88" y2="351.89"/><rect class="cls-5" x="127.85" y="351.89" width="108.03" height="51.79" transform="translate(363.74 755.56) rotate(180)"/><polygon class="cls-6" points="219.41 360 213.28 360 213.28 396.33 220.18 396.33 220.18 360 219.41 360"/><polygon class="cls-6" points="203.32 360 197.19 360 197.19 396.33 204.09 396.33 204.09 360 203.32 360"/><polygon class="cls-6" points="184.93 360 178.81 360 178.81 396.33 185.7 396.33 185.7 360 184.93 360"/><polygon class="cls-6" points="168.08 360 161.95 360 161.95 396.33 168.84 396.33 168.84 360 168.08 360"/><polygon class="cls-6" points="151.22 360 145.09 360 145.09 396.33 151.99 396.33 151.99 360 151.22 360"/><polygon class="cls-2" points="232.22 351.89 232.05 349.57 238.95 349.57 238.95 354.98 232.05 354.98 232.22 351.89"/><line class="cls-1" x1="174.59" y1="331.79" x2="127.85" y2="351.89"/><polygon class="cls-2" points="131.36 350.38 131.69 354.21 125.56 354.21 125.56 350.34 131.36 350.38"/><line class="cls-1" x1="284.8" y1="254.11" x2="268.24" y2="254.11"/><rect class="cls-1" x="265" y="309.38" width="29.11" height="233.43"/><rect class="cls-2" x="162.33" y="303.97" width="42.91" height="10.05"/><polygon class="cls-1" points="411.34 280 411.34 309.38 104.87 307.83 143.94 280 411.34 280"/><polygon class="cls-1" points="285.2 280 284.15 211.99 277.26 211.99 262.7 280 285.2 280"/><line class="cls-1" x1="285.01" y1="267.72" x2="265.33" y2="267.72"/><line class="cls-1" x1="284.62" y1="242.31" x2="270.77" y2="242.31"/><line class="cls-1" x1="284.42" y1="229.01" x2="273.95" y2="229.01"/><polyline class="cls-1" points="194.96 280 277.26 211.99 284.15 211.99 393.13 280"/><line class="cls-1" x1="265" y1="516.22" x2="294.11" y2="516.22"/><line class="cls-1" x1="265" y1="487.49" x2="294.11" y2="487.49"/><line class="cls-1" x1="294.11" y1="458" x2="265" y2="458"/><line class="cls-1" x1="294.11" y1="430.22" x2="265" y2="430.22"/><line class="cls-1" x1="294.11" y1="401.89" x2="265" y2="401.89"/><line class="cls-1" x1="294.11" y1="374.22" x2="265" y2="374.22"/><line class="cls-1" x1="294.11" y1="343.07" x2="265" y2="343.07"/><line class="cls-1" x1="377.94" y1="280" x2="377.94" y2="309.21"/><line class="cls-1" x1="349.16" y1="280" x2="349.16" y2="309.38"/><line class="cls-1" x1="320.78" y1="280" x2="320.78" y2="309.21"/><line class="cls-1" x1="294.05" y1="280" x2="294.05" y2="308.78"/><line class="cls-1" x1="265" y1="280" x2="265" y2="307.83"/><line class="cls-1" x1="236.23" y1="280" x2="236.23" y2="308.49"/><line class="cls-1" x1="208.65" y1="280" x2="208.65" y2="308.35"/><line class="cls-1" x1="178.87" y1="280" x2="178.87" y2="308.2"/><line class="cls-1" x1="147.29" y1="280" x2="146.49" y2="308.04"/><line class="cls-1" x1="294.11" y1="516.52" x2="265" y2="487.93"/><line class="cls-1" x1="294.11" y1="487.93" x2="265" y2="516.52"/><line class="cls-1" x1="294.11" y1="487.15" x2="265" y2="458.55"/><line class="cls-1" x1="294.11" y1="458.55" x2="265" y2="487.15"/><line class="cls-1" x1="294.11" y1="458.55" x2="265" y2="429.95"/><line class="cls-1" x1="294.11" y1="429.95" x2="265" y2="458.55"/><line class="cls-1" x1="294.11" y1="430.73" x2="265" y2="402.13"/><line class="cls-1" x1="294.11" y1="402.13" x2="265" y2="430.73"/><line class="cls-1" x1="294.11" y1="402.13" x2="265" y2="373.53"/><line class="cls-1" x1="294.11" y1="373.53" x2="265" y2="402.13"/><line class="cls-1" x1="294.11" y1="372.76" x2="265" y2="344.16"/><line class="cls-1" x1="294.11" y1="344.16" x2="265" y2="372.76"/><line class="cls-1" x1="294.11" y1="341.07" x2="265" y2="312.47"/><line class="cls-1" x1="294.11" y1="312.47" x2="265" y2="341.07"/><line class="cls-1" x1="294.11" y1="308.6" x2="265" y2="280"/><line class="cls-1" x1="294.11" y1="280" x2="265" y2="308.6"/><line class="cls-1" x1="264.23" y1="308.6" x2="235.12" y2="280"/><line class="cls-1" x1="264.23" y1="280" x2="235.12" y2="308.6"/><line class="cls-1" x1="237.42" y1="308.6" x2="208.3" y2="280"/><line class="cls-1" x1="237.42" y1="280" x2="208.3" y2="308.6"/><line class="cls-1" x1="208.3" y1="308.6" x2="179.19" y2="280"/><line class="cls-1" x1="208.3" y1="280" x2="179.19" y2="308.6"/><line class="cls-1" x1="177.66" y1="308.6" x2="148.54" y2="280"/><line class="cls-1" x1="177.66" y1="280" x2="148.54" y2="308.6"/><line class="cls-1" x1="321.7" y1="308.6" x2="292.58" y2="280"/><line class="cls-1" x1="321.7" y1="280" x2="292.58" y2="308.6"/><line class="cls-1" x1="349.28" y1="309.38" x2="320.16" y2="280.78"/><line class="cls-1" x1="349.28" y1="280.78" x2="320.16" y2="309.38"/><line class="cls-1" x1="378.39" y1="308.6" x2="349.28" y2="280"/><line class="cls-1" x1="378.39" y1="280" x2="349.28" y2="308.6"/><line class="cls-1" x1="409.81" y1="308.6" x2="380.69" y2="280"/><line class="cls-1" x1="409.81" y1="280" x2="380.69" y2="308.6"/><rect class="cls-5" x="142.74" y="499.91" width="108.98" height="51.79"/><polygon class="cls-6" points="159.36 508.02 165.54 508.02 165.54 544.35 158.59 544.35 158.59 508.02 159.36 508.02"/><polygon class="cls-6" points="175.59 508.02 181.78 508.02 181.78 544.35 174.82 544.35 174.82 508.02 175.59 508.02"/><polygon class="cls-6" points="194.14 508.02 200.33 508.02 200.33 544.35 193.37 544.35 193.37 508.02 194.14 508.02"/><polygon class="cls-6" points="211.15 508.02 217.33 508.02 217.33 544.35 210.38 544.35 210.38 508.02 211.15 508.02"/><polygon class="cls-6" points="228.15 508.02 234.34 508.02 234.34 544.35 227.38 544.35 227.38 508.02 228.15 508.02"/><rect class="cls-3" x="251.73" y="499.91" width="108.98" height="51.79"/><polygon class="cls-7" points="268.35 508.02 274.53 508.02 274.53 544.35 267.57 544.35 267.57 508.02 268.35 508.02"/><polygon class="cls-7" points="284.58 508.02 290.76 508.02 290.76 544.35 283.8 544.35 283.8 508.02 284.58 508.02"/><polygon class="cls-7" points="303.13 508.02 309.31 508.02 309.31 544.35 302.36 544.35 302.36 508.02 303.13 508.02"/><polygon class="cls-7" points="320.13 508.02 326.32 508.02 326.32 544.35 319.36 544.35 319.36 508.02 320.13 508.02"/><polygon class="cls-7" points="337.14 508.02 343.32 508.02 343.32 544.35 336.36 544.35 336.36 508.02 337.14 508.02"/><rect class="cls-8" x="795.88" y="551.69" width="108.98" height="51.79"/><polygon class="cls-9" points="812.5 559.81 818.68 559.81 818.68 596.14 811.72 596.14 811.72 559.81 812.5 559.81"/><polygon class="cls-9" points="828.73 559.81 834.91 559.81 834.91 596.14 827.95 596.14 827.95 559.81 828.73 559.81"/><polygon class="cls-9" points="847.28 559.81 853.46 559.81 853.46 596.14 846.5 596.14 846.5 559.81 847.28 559.81"/><polygon class="cls-9" points="864.28 559.81 870.47 559.81 870.47 596.14 863.51 596.14 863.51 559.81 864.28 559.81"/><polygon class="cls-9" points="881.29 559.81 887.47 559.81 887.47 596.14 880.51 596.14 880.51 559.81 881.29 559.81"/><rect class="cls-3" x="94.05" y="551.69" width="108.98" height="51.79"/><polygon class="cls-7" points="110.67 559.81 116.85 559.81 116.85 596.14 109.89 596.14 109.89 559.81 110.67 559.81"/><polygon class="cls-7" points="126.9 559.81 133.08 559.81 133.08 596.14 126.12 596.14 126.12 559.81 126.9 559.81"/><polygon class="cls-7" points="145.45 559.81 151.63 559.81 151.63 596.14 144.68 596.14 144.68 559.81 145.45 559.81"/><polygon class="cls-7" points="162.45 559.81 168.64 559.81 168.64 596.14 161.68 596.14 161.68 559.81 162.45 559.81"/><polygon class="cls-7" points="179.46 559.81 185.64 559.81 185.64 596.14 178.68 596.14 178.68 559.81 179.46 559.81"/><rect class="cls-5" x="204.58" y="551.69" width="108.98" height="51.79"/><polygon class="cls-6" points="221.2 559.81 227.38 559.81 227.38 596.14 220.42 596.14 220.42 559.81 221.2 559.81"/><polygon class="cls-6" points="237.43 559.81 243.61 559.81 243.61 596.14 236.66 596.14 236.66 559.81 237.43 559.81"/><polygon class="cls-6" points="255.98 559.81 262.16 559.81 262.16 596.14 255.21 596.14 255.21 559.81 255.98 559.81"/><polygon class="cls-6" points="272.98 559.81 279.17 559.81 279.17 596.14 272.21 596.14 272.21 559.81 272.98 559.81"/><polygon class="cls-6" points="289.99 559.81 296.17 559.81 296.17 596.14 289.21 596.14 289.21 559.81 289.99 559.81"/><rect class="cls-8" x="314.34" y="551.69" width="108.98" height="51.79"/><polygon class="cls-9" points="330.95 559.81 337.14 559.81 337.14 596.14 330.18 596.14 330.18 559.81 330.95 559.81"/><polygon class="cls-9" points="347.19 559.81 353.37 559.81 353.37 596.14 346.41 596.14 346.41 559.81 347.19 559.81"/><polygon class="cls-9" points="365.74 559.81 371.92 559.81 371.92 596.14 364.96 596.14 364.96 559.81 365.74 559.81"/><polygon class="cls-9" points="382.74 559.81 388.92 559.81 388.92 596.14 381.97 596.14 381.97 559.81 382.74 559.81"/><polygon class="cls-9" points="399.75 559.81 405.93 559.81 405.93 596.14 398.97 596.14 398.97 559.81 399.75 559.81"/><rect class="cls-3" x="745.64" y="604.25" width="108.98" height="51.79"/><polygon class="cls-4" points="762.25 612.37 768.44 612.37 768.44 648.7 761.48 648.7 761.48 612.37 762.25 612.37"/><polygon class="cls-4" points="778.49 612.37 784.67 612.37 784.67 648.7 777.71 648.7 777.71 612.37 778.49 612.37"/><polygon class="cls-4" points="797.04 612.37 803.22 612.37 803.22 648.7 796.26 648.7 796.26 612.37 797.04 612.37"/><polygon class="cls-4" points="814.04 612.37 820.22 612.37 820.22 648.7 813.27 648.7 813.27 612.37 814.04 612.37"/><polygon class="cls-4" points="831.04 612.37 837.23 612.37 837.23 648.7 830.27 648.7 830.27 612.37 831.04 612.37"/><rect class="cls-3" x="623.51" y="551.69" width="108.98" height="51.79"/><polygon class="cls-4" points="640.13 559.81 646.31 559.81 646.31 596.14 639.36 596.14 639.36 559.81 640.13 559.81"/><polygon class="cls-4" points="656.36 559.81 662.54 559.81 662.54 596.14 655.59 596.14 655.59 559.81 656.36 559.81"/><polygon class="cls-4" points="674.91 559.81 681.1 559.81 681.1 596.14 674.14 596.14 674.14 559.81 674.91 559.81"/><polygon class="cls-4" points="691.92 559.81 698.1 559.81 698.1 596.14 691.14 596.14 691.14 559.81 691.92 559.81"/><polygon class="cls-4" points="708.92 559.81 715.1 559.81 715.1 596.14 708.15 596.14 708.15 559.81 708.92 559.81"/><rect class="cls-10" x="856.17" y="604.25" width="108.98" height="51.79"/><polygon class="cls-11" points="872.78 612.37 878.97 612.37 878.97 648.7 872.01 648.7 872.01 612.37 872.78 612.37"/><polygon class="cls-11" points="889.02 612.37 895.2 612.37 895.2 648.7 888.24 648.7 888.24 612.37 889.02 612.37"/><polygon class="cls-11" points="907.57 612.37 913.75 612.37 913.75 648.7 906.79 648.7 906.79 612.37 907.57 612.37"/><polygon class="cls-11" points="924.57 612.37 930.75 612.37 930.75 648.7 923.8 648.7 923.8 612.37 924.57 612.37"/><polygon class="cls-11" points="941.58 612.37 947.76 612.37 947.76 648.7 940.8 648.7 940.8 612.37 941.58 612.37"/><rect class="cls-8" x="635.1" y="604.25" width="108.98" height="51.79"/><polygon class="cls-9" points="651.72 612.37 657.91 612.37 657.91 648.7 650.95 648.7 650.95 612.37 651.72 612.37"/><polygon class="cls-9" points="667.96 612.37 674.14 612.37 674.14 648.7 667.18 648.7 667.18 612.37 667.96 612.37"/><polygon class="cls-9" points="686.5 612.37 692.69 612.37 692.69 648.7 685.73 648.7 685.73 612.37 686.5 612.37"/><polygon class="cls-9" points="703.51 612.37 709.69 612.37 709.69 648.7 702.74 648.7 702.74 612.37 703.51 612.37"/><polygon class="cls-9" points="720.51 612.37 726.7 612.37 726.7 648.7 719.74 648.7 719.74 612.37 720.51 612.37"/><rect class="cls-10" x="523.8" y="604.25" width="108.98" height="51.79"/><polygon class="cls-12" points="540.42 612.37 546.6 612.37 546.6 648.7 539.65 648.7 539.65 612.37 540.42 612.37"/><polygon class="cls-12" points="556.65 612.37 562.84 612.37 562.84 648.7 555.88 648.7 555.88 612.37 556.65 612.37"/><polygon class="cls-12" points="575.2 612.37 581.39 612.37 581.39 648.7 574.43 648.7 574.43 612.37 575.2 612.37"/><polygon class="cls-12" points="592.21 612.37 598.39 612.37 598.39 648.7 591.43 648.7 591.43 612.37 592.21 612.37"/><polygon class="cls-12" points="609.21 612.37 615.39 612.37 615.39 648.7 608.44 648.7 608.44 612.37 609.21 612.37"/><rect class="cls-8" x="412.5" y="604.25" width="108.98" height="51.79"/><polygon class="cls-9" points="429.12 612.37 435.3 612.37 435.3 648.7 428.34 648.7 428.34 612.37 429.12 612.37"/><polygon class="cls-9" points="445.35 612.37 451.53 612.37 451.53 648.7 444.57 648.7 444.57 612.37 445.35 612.37"/><polygon class="cls-9" points="463.9 612.37 470.08 612.37 470.08 648.7 463.13 648.7 463.13 612.37 463.9 612.37"/><polygon class="cls-9" points="480.9 612.37 487.09 612.37 487.09 648.7 480.13 648.7 480.13 612.37 480.9 612.37"/><polygon class="cls-9" points="497.91 612.37 504.09 612.37 504.09 648.7 497.13 648.7 497.13 612.37 497.91 612.37"/><rect class="cls-8" x="301.2" y="604.25" width="108.98" height="51.79"/><polygon class="cls-9" points="317.81 612.37 324 612.37 324 648.7 317.04 648.7 317.04 612.37 317.81 612.37"/><polygon class="cls-9" points="334.05 612.37 340.23 612.37 340.23 648.7 333.27 648.7 333.27 612.37 334.05 612.37"/><polygon class="cls-9" points="352.6 612.37 358.78 612.37 358.78 648.7 351.82 648.7 351.82 612.37 352.6 612.37"/><polygon class="cls-9" points="369.6 612.37 375.78 612.37 375.78 648.7 368.83 648.7 368.83 612.37 369.6 612.37"/><polygon class="cls-9" points="386.61 612.37 392.79 612.37 392.79 648.7 385.83 648.7 385.83 612.37 386.61 612.37"/><rect class="cls-5" x="190.66" y="604.25" width="108.98" height="51.79"/><polygon class="cls-13" points="207.28 612.37 213.47 612.37 213.47 648.7 206.51 648.7 206.51 612.37 207.28 612.37"/><polygon class="cls-13" points="223.51 612.37 229.7 612.37 229.7 648.7 222.74 648.7 222.74 612.37 223.51 612.37"/><polygon class="cls-13" points="242.06 612.37 248.25 612.37 248.25 648.7 241.29 648.7 241.29 612.37 242.06 612.37"/><polygon class="cls-13" points="259.07 612.37 265.25 612.37 265.25 648.7 258.3 648.7 258.3 612.37 259.07 612.37"/><polygon class="cls-13" points="276.07 612.37 282.26 612.37 282.26 648.7 275.3 648.7 275.3 612.37 276.07 612.37"/><rect class="cls-8" x="80.91" y="604.25" width="108.98" height="51.79"/><polygon class="cls-9" points="97.53 612.37 103.71 612.37 103.71 648.7 96.75 648.7 96.75 612.37 97.53 612.37"/><polygon class="cls-9" points="113.76 612.37 119.94 612.37 119.94 648.7 112.98 648.7 112.98 612.37 113.76 612.37"/><polygon class="cls-9" points="132.31 612.37 138.49 612.37 138.49 648.7 131.53 648.7 131.53 612.37 132.31 612.37"/><polygon class="cls-9" points="149.31 612.37 155.5 612.37 155.5 648.7 148.54 648.7 148.54 612.37 149.31 612.37"/><polygon class="cls-9" points="166.32 612.37 172.5 612.37 172.5 648.7 165.54 648.7 165.54 612.37 166.32 612.37"/><polygon class="cls-14" points="27.96 727.54 27.96 656.43 991.04 656.43 991.04 739.13 27.96 739.13 27.96 727.54"/><rect class="cls-14" x="21" y="656.43" width="977" height="6.18"/><path class="cls-15" d="M4,731.4c3.09-1.54,63.38-15.46,154.59-6.18s310.72,9.27,372.55,1.54,198.65-10.82,265.12.78S981.77,730.63,998,726v34H4Z"/><path class="cls-16" d="M12.12,735.65s49.46-10.82,71.11-9.27,82.7,4.63,99.71,7,35.55,3.87,48.69,4.64,85.8,3.09,108.21,2.32,45.61-3.09,54.88-3.09,53.33,1.54,68,0c0,0,92-4.64,126.76-7.73s112.85-1.55,133.72,0,68,5.41,93.53,9.66,67.24,6.57,85.79,4.25,88.12-10.82,88.12-10.82-13.92,7-25.51,9.28-64.93,9.27-85,8.5S754.91,735.65,732.5,734.88s-145,2.52-167.56,4-59.69,3.77-85.2,3.77-116.71,2.32-139.9,3.86-73.43,3.1-98.16.78-49.47-6.19-78.84-9.28-78.07-1.54-98.94,0-53.33,3.87-53.33,3.87Z"/></svg>