<?xml version="1.0" encoding="UTF-8" standalone="no"?>
<!-- Created with Inkscape (http://www.inkscape.org/) -->

<svg
   xmlns:dc="http://purl.org/dc/elements/1.1/"
   xmlns:cc="http://creativecommons.org/ns#"
   xmlns:rdf="http://www.w3.org/1999/02/22-rdf-syntax-ns#"
   xmlns:svg="http://www.w3.org/2000/svg"
   xmlns="http://www.w3.org/2000/svg"
   xmlns:sodipodi="http://sodipodi.sourceforge.net/DTD/sodipodi-0.dtd"
   xmlns:inkscape="http://www.inkscape.org/namespaces/inkscape"
   width="1000"
   height="1000"
   viewBox="0 0 264.58333 264.58334"
   version="1.1"
   id="svg2383"
   inkscape:version="0.92.5 (2060ec1f9f, 2020-04-08)"
   sodipodi:docname="six.svg"
   enable-background="new">
  <defs
     id="defs2377" />
  <sodipodi:namedview
     id="base"
     pagecolor="#ffffff"
     bordercolor="#666666"
     borderopacity="1.0"
     inkscape:pageopacity="0.0"
     inkscape:pageshadow="2"
     inkscape:zoom="0.70710678"
     inkscape:cx="353.75655"
     inkscape:cy="501.85527"
     inkscape:document-units="px"
     inkscape:current-layer="layer1"
     showgrid="false"
     units="px"
     inkscape:window-width="1920"
     inkscape:window-height="1031"
     inkscape:window-x="0"
     inkscape:window-y="25"
     inkscape:window-maximized="1"
     showguides="true"
     inkscape:lockguides="true"
     inkscape:object-nodes="false" />
  <metadata
     id="metadata2380">
    <rdf:RDF>
      <cc:Work
         rdf:about="">
        <dc:format>image/svg+xml</dc:format>
        <dc:type
           rdf:resource="http://purl.org/dc/dcmitype/StillImage" />
        <dc:title></dc:title>
      </cc:Work>
    </rdf:RDF>
  </metadata>
  <g
     inkscape:groupmode="layer"
     id="layer3"
     inkscape:label="Layer 2" />
  <g
     inkscape:groupmode="layer"
     id="layer2"
     inkscape:label="Layer 3" />
  <g
     inkscape:label="Layer 1"
     inkscape:groupmode="layer"
     id="layer1"
     transform="translate(0,-32.41665)">
    <text
       xml:space="preserve"
       style="font-style:normal;font-variant:normal;font-weight:bold;font-stretch:normal;font-size:10.58333302px;line-height:1.25;font-family:sans-serif;-inkscape-font-specification:'sans-serif Bold';letter-spacing:0px;word-spacing:0px;fill:#000000;fill-opacity:1;stroke:none;stroke-width:0.26458332"
       x="150.05655"
       y="89.869026"
       id="text8811" />
    <text
       xml:space="preserve"
       style="font-style:normal;font-variant:normal;font-weight:bold;font-stretch:normal;font-size:10.58333302px;line-height:1.25;font-family:sans-serif;-inkscape-font-specification:'sans-serif Bold';letter-spacing:0px;word-spacing:0px;fill:#000000;fill-opacity:1;stroke:none;stroke-width:0.26458332"
       x="160.63989"
       y="97.806526"
       id="text8815" />
    <text
       xml:space="preserve"
       style="font-style:normal;font-variant:normal;font-weight:bold;font-stretch:normal;font-size:10.58333302px;line-height:1.25;font-family:sans-serif;-inkscape-font-specification:'sans-serif Bold';letter-spacing:0px;word-spacing:0px;fill:#000000;fill-opacity:1;stroke:none;stroke-width:0.26458332"
       x="156.86011"
       y="88.7351"
       id="text8819" />
    <flowRoot
       xml:space="preserve"
       id="flowRoot8821"
       style="font-style:normal;font-variant:normal;font-weight:bold;font-stretch:normal;font-size:40px;line-height:1.25;font-family:sans-serif;-inkscape-font-specification:'sans-serif Bold';letter-spacing:0px;word-spacing:0px;fill:#000000;fill-opacity:1;stroke:none"><flowRegion
         id="flowRegion8823"
         style="font-style:normal;font-variant:normal;font-weight:bold;font-stretch:normal;font-family:sans-serif;-inkscape-font-specification:'sans-serif Bold'" /><flowPara
         id="flowPara8827" /></flowRoot>    <flowRoot
       xml:space="preserve"
       id="flowRoot8829"
       style="font-style:normal;font-variant:normal;font-weight:bold;font-stretch:normal;font-size:40px;line-height:1.25;font-family:sans-serif;-inkscape-font-specification:'sans-serif Bold';letter-spacing:0px;word-spacing:0px;fill:#000000;fill-opacity:1;stroke:none"><flowRegion
         id="flowRegion8831"
         style="font-style:normal;font-variant:normal;font-weight:bold;font-stretch:normal;font-family:sans-serif;-inkscape-font-specification:'sans-serif Bold'" /><flowPara
         id="flowPara8835" /></flowRoot>    <flowRoot
       xml:space="preserve"
       id="flowRoot8837"
       style="font-style:normal;font-variant:normal;font-weight:bold;font-stretch:normal;font-size:40px;line-height:1.25;font-family:sans-serif;-inkscape-font-specification:'sans-serif Bold';letter-spacing:0px;word-spacing:0px;fill:#000000;fill-opacity:1;stroke:none"><flowRegion
         id="flowRegion8839"
         style="font-style:normal;font-variant:normal;font-weight:bold;font-stretch:normal;font-family:sans-serif;-inkscape-font-specification:'sans-serif Bold'" /><flowPara
         id="flowPara8843" /></flowRoot>    <text
       xml:space="preserve"
       style="font-style:normal;font-variant:normal;font-weight:bold;font-stretch:normal;font-size:10.58333302px;line-height:1.25;font-family:sans-serif;-inkscape-font-specification:'sans-serif Bold';letter-spacing:0px;word-spacing:0px;fill:#000000;fill-opacity:1;stroke:none;stroke-width:0.26458332"
       x="209.39882"
       y="107.25594"
       id="text8847" />
    <flowRoot
       xml:space="preserve"
       id="flowRoot8849"
       style="font-style:normal;font-variant:normal;font-weight:bold;font-stretch:normal;font-size:40px;line-height:1.25;font-family:sans-serif;-inkscape-font-specification:'sans-serif Bold';letter-spacing:0px;word-spacing:0px;fill:#000000;fill-opacity:1;stroke:none"><flowRegion
         id="flowRegion8851"
         style="font-style:normal;font-variant:normal;font-weight:bold;font-stretch:normal;font-family:sans-serif;-inkscape-font-specification:'sans-serif Bold'" /><flowPara
         id="flowPara8855" /></flowRoot>    <flowRoot
       xml:space="preserve"
       id="flowRoot8857"
       style="font-style:normal;font-variant:normal;font-weight:bold;font-stretch:normal;font-size:40px;line-height:1.25;font-family:sans-serif;-inkscape-font-specification:'sans-serif Bold';letter-spacing:0px;word-spacing:0px;fill:#000000;fill-opacity:1;stroke:none"><flowRegion
         id="flowRegion8859"
         style="font-style:normal;font-variant:normal;font-weight:bold;font-stretch:normal;font-family:sans-serif;-inkscape-font-specification:'sans-serif Bold'" /><flowPara
         id="flowPara8863" /></flowRoot>    <flowRoot
       xml:space="preserve"
       id="flowRoot8865"
       style="font-style:normal;font-variant:normal;font-weight:bold;font-stretch:normal;font-size:40px;line-height:1.25;font-family:sans-serif;-inkscape-font-specification:'sans-serif Bold';letter-spacing:0px;word-spacing:0px;fill:#000000;fill-opacity:1;stroke:none"><flowRegion
         id="flowRegion8867"
         style="font-style:normal;font-variant:normal;font-weight:bold;font-stretch:normal;font-family:sans-serif;-inkscape-font-specification:'sans-serif Bold'" /><flowPara
         id="flowPara8871" /></flowRoot>    <flowRoot
       xml:space="preserve"
       id="flowRoot8873"
       style="font-style:normal;font-variant:normal;font-weight:bold;font-stretch:normal;font-size:40px;line-height:1.25;font-family:sans-serif;-inkscape-font-specification:'sans-serif Bold';letter-spacing:0px;word-spacing:0px;fill:#000000;fill-opacity:1;stroke:none"><flowRegion
         id="flowRegion8875"
         style="font-style:normal;font-variant:normal;font-weight:bold;font-stretch:normal;font-family:sans-serif;-inkscape-font-specification:'sans-serif Bold'" /><flowPara
         id="flowPara8879" /></flowRoot>    <text
       xml:space="preserve"
       style="font-style:normal;font-weight:normal;font-size:10.58333302px;line-height:1.25;font-family:sans-serif;letter-spacing:0px;word-spacing:0px;fill:#000000;fill-opacity:1;stroke:none;stroke-width:0.26458332"
       x="101.02788"
       y="69.125984"
       id="text977"><tspan
         sodipodi:role="line"
         id="tspan975"
         x="101.02788"
         y="78.489754"
         style="stroke-width:0.26458332" /><tspan
         sodipodi:role="line"
         x="101.02788"
         y="91.718918"
         style="stroke-width:0.26458332"
         id="tspan979" /><tspan
         sodipodi:role="line"
         x="101.02788"
         y="104.94809"
         style="stroke-width:0.26458332"
         id="tspan981" /><tspan
         sodipodi:role="line"
         x="101.02788"
         y="118.17725"
         style="stroke-width:0.26458332"
         id="tspan983" /><tspan
         sodipodi:role="line"
         x="101.02788"
         y="131.40642"
         style="stroke-width:0.26458332"
         id="tspan985" /><tspan
         sodipodi:role="line"
         x="101.02788"
         y="144.63559"
         style="stroke-width:0.26458332"
         id="tspan987" /><tspan
         sodipodi:role="line"
         x="101.02788"
         y="157.86475"
         style="stroke-width:0.26458332"
         id="tspan989" /><tspan
         sodipodi:role="line"
         x="101.02788"
         y="171.09392"
         style="stroke-width:0.26458332"
         id="tspan991" /><tspan
         sodipodi:role="line"
         x="101.02788"
         y="184.32309"
         style="stroke-width:0.26458332"
         id="tspan993" /><tspan
         sodipodi:role="line"
         x="101.02788"
         y="197.55225"
         style="stroke-width:0.26458332"
         id="tspan995" /><tspan
         sodipodi:role="line"
         x="101.02788"
         y="210.78142"
         style="stroke-width:0.26458332"
         id="tspan997" /><tspan
         sodipodi:role="line"
         x="101.02788"
         y="224.01059"
         style="stroke-width:0.26458332"
         id="tspan999" /><tspan
         sodipodi:role="line"
         x="101.02788"
         y="237.23975"
         style="stroke-width:0.26458332"
         id="tspan1001" /><tspan
         sodipodi:role="line"
         x="101.02788"
         y="250.46892"
         style="stroke-width:0.26458332"
         id="tspan1003" /><tspan
         sodipodi:role="line"
         x="101.02788"
         y="263.69809"
         style="stroke-width:0.26458332"
         id="tspan1005" /><tspan
         sodipodi:role="line"
         x="101.02788"
         y="276.92725"
         style="stroke-width:0.26458332"
         id="tspan1007" /><tspan
         sodipodi:role="line"
         x="101.02788"
         y="290.1564"
         style="stroke-width:0.26458332"
         id="tspan1009" /><tspan
         sodipodi:role="line"
         x="101.02788"
         y="303.38559"
         style="stroke-width:0.26458332"
         id="tspan1011" /><tspan
         sodipodi:role="line"
         x="101.02788"
         y="316.61475"
         style="stroke-width:0.26458332"
         id="tspan1013" /><tspan
         sodipodi:role="line"
         x="101.02788"
         y="329.8439"
         style="stroke-width:0.26458332"
         id="tspan1015" /><tspan
         sodipodi:role="line"
         x="101.02788"
         y="343.07309"
         style="stroke-width:0.26458332"
         id="tspan1017" /><tspan
         sodipodi:role="line"
         x="101.02788"
         y="356.30225"
         style="stroke-width:0.26458332"
         id="tspan1019" /><tspan
         sodipodi:role="line"
         x="101.02788"
         y="369.5314"
         style="stroke-width:0.26458332"
         id="tspan1021" /><tspan
         sodipodi:role="line"
         x="101.02788"
         y="382.76059"
         style="stroke-width:0.26458332"
         id="tspan1023" /></text>
    <g
       id="g1136"
       transform="matrix(0.04569495,0,0,-0.04569495,-475.25432,863.91414)">
      <path
         d="m 13187,15192.6 c -80.7,-32 -106.3,-97.3 -76.8,-195.9 29.4,-98.7 88.3,-143.5 176.7,-134.5 85.8,7.7 125.4,63.4 119.1,167.1 -5.2,53.8 -28.9,100.2 -71.1,139.3 -42.2,39.1 -91.6,47.1 -147.9,24 z m -636.9,-391.8 c -42,121.5 -59.3,257.2 -52.1,407 7.3,149.8 47.4,295.5 120.1,437.2 72.7,141.7 181.7,270.5 326.8,386.5 145,115.9 334.4,201.7 568.1,257.4 53.9,11.1 101,-9.6 141.2,-62.3 40.2,-52.6 71.7,-113.4 94.4,-182.3 22.7,-68.9 36.2,-134.2 40.4,-195.8 4.3,-61.6 -2.5,-95.5 -20.5,-101.4 -36.9,-12.9 -74.9,-25.5 -114.3,-37.9 -39.4,-12.4 -79.6,-31.9 -120.7,-58.4 120.7,-37.7 227.9,-116.4 321.7,-236.3 93.7,-119.8 143.1,-249.1 148.3,-387.7 6.8,-191.8 -52.9,-350.7 -179.1,-477 -126.3,-126.3 -275.4,-200.9 -447.5,-224 -101.9,-12.9 -203.3,-8.2 -304.3,14.1 -101,22.2 -192.6,63.7 -274.7,124.5 -120.8,89 -203.4,201.2 -247.8,336.4"
         style="fill:#186bbe;fill-opacity:1;fill-rule:nonzero;stroke:none"
         id="path1138"
         inkscape:connector-curvature="0" />
    </g>
    <g
       id="g1140"
       transform="matrix(0.04373739,0,0,-0.04373739,-475.25432,863.91414)">
      <path
         d="m 14173.7,16098.8 c -22.3,-48.8 -111.6,-55.8 -199.6,-15.7 -88.1,40.1 -141.4,112.2 -119.2,161 22.3,48.8 111.7,55.9 199.7,15.8 88,-40.1 141.4,-112.2 119.1,-161.1"
         style="fill:#ffffff;fill-opacity:1;fill-rule:nonzero;stroke:none"
         id="path1142"
         inkscape:connector-curvature="0" />
    </g>
    <g
       id="g1144"
       transform="matrix(0.04312073,0,0,-0.04312073,-475.25432,863.91414)">
      <path
         d="m 14551.6,16164.5 c -17.5,-20.8 -62.1,-11.9 -99.7,19.7 -37.4,31.7 -53.6,74.2 -36,95 17.6,20.8 62.2,12 99.7,-19.7 37.5,-31.7 53.6,-74.2 36,-95"
         style="fill:#ffffff;fill-opacity:1;fill-rule:nonzero;stroke:none"
         id="path1146"
         inkscape:connector-curvature="0" />
    </g>
    <g
       id="g1148"
       transform="matrix(0.04530055,0,0,-0.04530055,-475.25432,863.91414)">
      <path
         d="m 13202.2,15900.8 c 144.3,-20.9 534.3,338.2 453.4,378.2 -42.3,21 -337.6,-79.9 -447.3,-169 -99.9,-81.1 -99.4,-195.8 -6.1,-209.2"
         style="fill:#4da2df;fill-opacity:1;fill-rule:nonzero;stroke:none"
         id="path1150"
         inkscape:connector-curvature="0" />
    </g>
    <g
       id="g1152"
       transform="matrix(0.04445953,0,0,-0.04445953,-475.25432,863.91414)">
      <path
         d="m 13196.3,16068.4 c 29.8,-28.6 171.2,159.1 125.3,195.4 -45.9,36.2 -173.2,-149.2 -125.3,-195.4"
         style="fill:#4da2df;fill-opacity:1;fill-rule:nonzero;stroke:none"
         id="path1154"
         inkscape:connector-curvature="0" />
    </g>
    <g
       id="g1156"
       transform="matrix(0.04404395,0,0,-0.04404395,-475.25432,863.91414)">
      <path
         d="m 13399.5,16180.7 c 132.5,119.3 264.1,102.5 92.7,-270.5 -171.3,-373 -20.1,-584.6 252,-635 272.2,-50.4 342.7,292.3 282.3,433.4 -60.5,141.1 255.1,176 332.6,-211.7 50.4,-252 -141.1,-504 -534.2,-534.2 -366.8,-28.2 -705.6,231.8 -745.9,564.5 -40.4,332.6 219.7,562.8 320.5,653.5"
         style="fill:#2252ab;fill-opacity:1;fill-rule:nonzero;stroke:none"
         id="path1158"
         inkscape:connector-curvature="0" />
    </g>
    <g
       id="g1160"
       transform="matrix(0.04137978,0,0,-0.04137978,-475.25432,863.91414)">
      <path
         d="m 14864.8,16203.7 c -154.8,-62.3 -339.2,-42.5 -478,26.9 -138.9,69.4 -174.7,-83.4 24.8,-187.5 199.6,-104.1 433.6,-91.8 618.2,70.4 127.5,112.2 4.4,158.4 -165,90.2"
         style="fill:#26398f;fill-opacity:1;fill-rule:nonzero;stroke:none"
         id="path1162"
         inkscape:connector-curvature="0" />
    </g>
    <g
       id="g1164"
       transform="matrix(0.04214283,0,0,-0.04214283,-475.25432,863.91414)">
      <path
         d="m 13893.1,16202.1 c -108.8,97.9 -125.5,-87.9 -50.2,-200.9 75.4,-113 175.8,87.9 50.2,200.9"
         style="fill:#26398f;fill-opacity:1;fill-rule:nonzero;stroke:none"
         id="path1166"
         inkscape:connector-curvature="0" />
    </g>
    <g
       id="g1168"
       transform="matrix(0.04186096,0,0,-0.04186096,-475.25432,863.91414)">
      <path
         d="m 15004.4,16201.3 c -36.4,98.7 -109.3,-13.7 -99.2,-110.8 9.9,-97 141,-3 99.2,110.8"
         style="fill:#26398f;fill-opacity:1;fill-rule:nonzero;stroke:none"
         id="path1170"
         inkscape:connector-curvature="0" />
    </g>
    <g
       id="g1172"
       transform="matrix(0.0455041,0,0,-0.0455041,-475.25432,863.91414)">
      <path
         d="m 13576.5,16266.1 c -60,0 -256.5,-60.5 -459.6,-206.1 -171,-122.6 -388.5,-337.3 -453.3,-664 -66.3,-334.2 42.4,-557.2 145.3,-685.3 136,-169.4 318.2,-247.9 438.6,-250.5 5.9,-0.1 11.8,-0.2 17.9,-0.2 174.5,0 414,55.5 562.8,211.4 92.6,96.8 136.2,218.8 129.6,362.4 -19.7,427.2 -372.1,614.5 -506.2,650.6 -5.9,1.6 -10.4,6.1 -12,12 -1.6,5.8 0.1,12.1 4.4,16.4 62.2,62.1 159.8,102.7 231.1,132.3 35.3,14.7 79.2,32.9 85.3,42.3 6.6,24.9 -28.2,198 -93.4,304.1 -26.9,43.7 -55.2,69.3 -81.8,74 -1.5,0.3 -4.4,0.6 -8.7,0.6 z m -311.1,-1840 c -6.3,0 -12.5,0.1 -18.7,0.2 -128.2,2.8 -321.4,85.3 -464.2,263.1 -107.4,133.8 -221,366.1 -152.1,713.2 66.9,337.6 290.8,558.8 466.7,684.9 202.2,145 405.6,212.5 479.4,212.5 5.4,0 10.4,-0.4 14.6,-1.1 41.8,-7.4 81.3,-44.9 117.3,-111.4 36.8,-68.1 59.1,-145.8 69.1,-186 6,-23.8 24.4,-103.2 14,-127.5 -8.6,-20.1 -39.6,-33.7 -103.4,-60.2 -60.7,-25.2 -141.2,-58.6 -198.7,-105.7 76,-26.3 184.8,-84.1 279.7,-175.7 62.6,-60.4 113,-129.3 149.7,-204.6 43.5,-89 68,-187.4 72.8,-292.4 7,-153.3 -39.7,-283.6 -138.8,-387.5 -156.2,-163.5 -405.9,-221.8 -587.4,-221.8"
         style="fill:#8cd8f7;fill-opacity:1;fill-rule:nonzero;stroke:none"
         id="path1174"
         inkscape:connector-curvature="0" />
    </g>
    <g
       id="g1176"
       transform="matrix(0.04286462,0,0,-0.04286462,-475.25432,863.91414)">
      <path
         d="m 14108.4,16264 c -23.5,0 -46.3,-4.2 -68,-12.4 -54.1,-20.8 -104.3,-73.4 -127.6,-134.2 -16.4,-42.8 -27.9,-110 11.2,-186.4 49.9,-97.3 139.8,-157.9 234.7,-157.9 v 0 c 33.4,0 65,7.4 94,21.9 107,53.5 105.1,220.2 70.3,316.1 -32.2,88.6 -122.4,152.9 -214.6,152.9 z m 50.3,-526.9 v 0 c -108.5,0.1 -210.6,68.1 -266.7,177.6 -45.1,88.2 -31.8,165.9 -12.8,215.6 27.2,71 84.1,130.3 148.4,154.9 25.7,9.8 52.9,14.8 80.8,14.8 106.7,0 211.3,-74.3 248.5,-176.6 40.4,-111.3 39.8,-296.7 -88.1,-360.6 -33.6,-16.8 -71.6,-25.7 -110.1,-25.7"
         style="fill:#8cd8f7;fill-opacity:1;fill-rule:nonzero;stroke:none"
         id="path1178"
         inkscape:connector-curvature="0" />
    </g>
  </g>
</svg>
