<svg id="Layer_1" data-name="Layer 1" xmlns="http://www.w3.org/2000/svg" viewBox="0 0 1000 1000"><defs><style>.cls-1{fill:#35a1c8;}.cls-1,.cls-3{stroke:#1883a0;stroke-miterlimit:10;stroke-width:3px;}.cls-2{fill:#afe3ef;}.cls-3{fill:#9cddef;}.cls-4{fill:#1883a0;}</style></defs><title>shower</title><path class="cls-1" d="M667.24,904.85s10.9.82,16.44-55.37S676.13,436,676.13,436s2-131.93-11.38-169.79-48.9-82-91.31-113.27S453.53,99,400.64,96.3s-106.71,27.3-112.36,35.44-25.81,54.44-19.22,83.46S429.74,345.53,429.74,345.53s59.45-84.61,59.85-124.95,35.59-47.35,65-24.52,62.2,118.33,64.5,222.06,14,324.66,8.25,377.76a461.71,461.71,0,0,0,.45,99.2Z"/><path class="cls-2" d="M394.89,137.77s19-16.78,48.57-15.66,46.92,6.16,70.7,13.87,51.46,27.56,61.24,34.66,38.91,48.56,49.11,61.83,18.94,28.19,20.9,34.26,15.86,51.65,14.84,59.48,2,29.32,2,29.32-4.76-94.26-6.62-98.78-29.65-49.18-51.06-67.91-43.75-51.33-116.31-69.73-69.47-18.6-97.25-16.74-73.16,18.86-73.16,18.86Z"/><path class="cls-1" d="M460.3,365.38s24.7-28.21,32-58.16S489.49,219,472.4,195.37s-63.1-62.44-102.62-73.75-79.66-8.61-100.85-1-62.7,34.91-65,59.25,54.65,110.44,54.65,110.44l127.49-41.1Z"/><path class="cls-3" d="M470.46,259.07s-.94-60.4-68.36-94.65-122-38.34-153.54-23.82-45.89,32.53-51.74,60.83-.08,91.49,54.69,145.19,138.84,58.92,176.6,44S496.32,320.91,470.46,259.07Z"/><path class="cls-2" d="M221.33,278.09S195,208.54,210.7,188.87s16.15-36.74,40.64-41.48,39.82-7.32,58.55-5.47,42.71,12.64,42.71,12.64-50.73,6.5-74.91,15.87-38.89,21.21-42.9,30.79-4.92,65.45-4.19,76.25,4,36.94,4,36.94Z"/><path class="cls-4" d="M258,159.12c-1.08-1.14-2.17-2.28-3.25-3.43a5.41,5.41,0,0,0-3.93-1.32,5.51,5.51,0,0,0-3.71,1.84,5.43,5.43,0,0,0-1.33,3.92,6.18,6.18,0,0,0,1.84,3.72l3.26,3.42a5.37,5.37,0,0,0,3.92,1.33,5.41,5.41,0,0,0,5-5.76A6.15,6.15,0,0,0,258,159.12Z"/><path class="cls-4" d="M227.93,192.15l-3.26-3.43a5.41,5.41,0,0,0-9,4.43,6.15,6.15,0,0,0,1.84,3.72c1.08,1.14,2.16,2.29,3.25,3.43a5.41,5.41,0,0,0,3.93,1.32,5.41,5.41,0,0,0,5-5.76A6.13,6.13,0,0,0,227.93,192.15Z"/><path class="cls-4" d="M260.8,198.91l-2.54-3.55c-1.65-2.3-5.13-3.22-7.52-1.44a5.5,5.5,0,0,0-1.45,7.52l2.55,3.54c1.65,2.3,5.13,3.22,7.52,1.45A5.5,5.5,0,0,0,260.8,198.91Z"/><path class="cls-4" d="M229.93,244,226,238.14a5.42,5.42,0,0,0-9,6.08l3.94,5.86a5.41,5.41,0,1,0,9-6.08Z"/><path class="cls-4" d="M278.69,251.8l-7.09-6.19a5.41,5.41,0,0,0-7.13,8.15l7.09,6.2a5.42,5.42,0,0,0,7.13-8.16Z"/><path class="cls-4" d="M322.66,193.06a20.61,20.61,0,0,0-5.55-4.22,5.46,5.46,0,0,0-7.26,2.43,5.52,5.52,0,0,0,2.43,7.26c.26.14.51.31.76.46a16.4,16.4,0,0,1,2.49,2.22,5.42,5.42,0,0,0,3.93,1.33,5.53,5.53,0,0,0,3.71-1.84,5.45,5.45,0,0,0,1.33-3.93A6.26,6.26,0,0,0,322.66,193.06Z"/><path class="cls-4" d="M324.26,151.43l-5.63-3.35c-2.44-1.45-6.13-.1-7.26,2.44a5.55,5.55,0,0,0,2.43,7.26l5.63,3.34a5.44,5.44,0,0,0,7.26-2.43A5.54,5.54,0,0,0,324.26,151.43Z"/><path class="cls-4" d="M325.24,243.65l-3-5.17c-1.4-2.47-5.3-3.1-7.52-1.45a5.55,5.55,0,0,0-1.44,7.52l2.95,5.18c1.41,2.47,5.3,3.1,7.52,1.44A5.56,5.56,0,0,0,325.24,243.65Z"/><path class="cls-4" d="M263.85,301.94l-3.91-4a5.41,5.41,0,0,0-7.64.51,5.56,5.56,0,0,0,.51,7.64l3.91,4a5.42,5.42,0,0,0,7.64-.52A5.56,5.56,0,0,0,263.85,301.94Z"/><path class="cls-4" d="M326.69,297.62l-6.76-3.42a5.42,5.42,0,1,0-4.83,9.7l6.76,3.42a5.42,5.42,0,0,0,4.83-9.7Z"/><path class="cls-4" d="M389,274.46l-7.55-3.7a5.41,5.41,0,1,0-4.83,9.69l7.56,3.7a5.41,5.41,0,1,0,4.82-9.69Z"/><path class="cls-4" d="M321.05,348.92l-5.58-3.43c-2.42-1.49-6.14-.08-7.26,2.43a5.56,5.56,0,0,0,2.44,7.26l5.57,3.44c2.42,1.49,6.14.07,7.26-2.44A5.56,5.56,0,0,0,321.05,348.92Z"/><path class="cls-4" d="M381,328.43l-2.49-1a5.76,5.76,0,0,0-4.2-.27,5.55,5.55,0,0,0-3.07,2.7c-1.13,2.54-.35,6.09,2.44,7.26l2.49,1.05a5.76,5.76,0,0,0,4.2.26,5.47,5.47,0,0,0,3.07-2.7C384.58,333.16,383.8,329.6,381,328.43Z"/><path class="cls-4" d="M384.59,374.55l-1.28-1.13a5.41,5.41,0,0,0-7.13,8.15l1.29,1.13a5.41,5.41,0,1,0,7.12-8.15Z"/><path class="cls-4" d="M433.56,308.79a14.73,14.73,0,0,0-6.23-3.47,5.42,5.42,0,0,0-5.57,8.35,6,6,0,0,0,2.92,2.09l-.38-.14a9.33,9.33,0,0,1,1.24.58,10.26,10.26,0,0,1,.89.74,5.44,5.44,0,0,0,7.64-.51A5.54,5.54,0,0,0,433.56,308.79Z"/><path class="cls-4" d="M389.33,227.36l-5.79-5.07a5.41,5.41,0,0,0-7.13,8.15l5.79,5.08a5.42,5.42,0,0,0,7.13-8.16Z"/><path class="cls-4" d="M382.34,175.37,376,171.66a5.45,5.45,0,0,0-7.26,2.43,5.54,5.54,0,0,0,2.43,7.26l6.39,3.72a5.44,5.44,0,0,0,7.26-2.44A5.54,5.54,0,0,0,382.34,175.37Z"/><path class="cls-4" d="M454,248.24c-.36-.21-.72-.41-1.07-.63l-.4-.24-.71-.49-1-.75a32.49,32.49,0,0,1-3.44-3.19c-1.95-2.08-5.93-1.62-7.64.51-2,2.47-1.57,5.43.51,7.64a37.31,37.31,0,0,0,8.9,6.84,5.46,5.46,0,0,0,7.26-2.43A5.54,5.54,0,0,0,454,248.24Z"/><path class="cls-2" d="M414.55,153.51S382,130.88,356.91,126.36s-48-5.48-54.37-4.58-33.82,7.39-33.82,7.39,72.65-3.32,91.69,3.16,31.7,10.28,43,17.27,29.43,22.84,29.43,22.84Z"/><path class="cls-1" d="M617.37,438.39s19.25,9.56,60.31-2.49c0,0,1.33-3.19,1.75,3s3.11,69.57,3.11,69.57-47.23,12.46-63.29,4.24C619.25,512.69,612.85,440.24,617.37,438.39Z"/></svg>