<svg id="Layer_2" data-name="Layer 2" xmlns="http://www.w3.org/2000/svg" viewBox="0 0 1000 1000"><defs><style>.cls-1{fill:#bddfec;}.cls-1,.cls-6{stroke:#62aebf;}.cls-1,.cls-3,.cls-6{stroke-miterlimit:10;stroke-width:3px;}.cls-2,.cls-6{fill:#fff;}.cls-3,.cls-5{fill:#ef1c26;}.cls-3{stroke:#c10618;}.cls-4{fill:#ff727b;}</style></defs><title>toothpaste</title><path class="cls-1" d="M56.5,749.72S94,855.84,218.43,859.5c0,0,357.7-238.77,449.18-306.47S840.52,428.61,874.37,383.78,706,283.15,706,283.15s-44.83-72.27-46.66-71.36S313.57,517.35,267.83,562.18,77.54,711.3,56.5,749.72Z"/><path class="cls-1" d="M681.33,198.07s-35.67,12.81-32,51.23,11.89,107,75,140,116.4,14.3,142.37,4,24.13-58.84,16.81-79-61.29-66.79-86-77.76-11-17.39-11-17.39-37.51-22-63.12-23.78S681.33,198.07,681.33,198.07Z"/><path class="cls-2" d="M705.12,210.88c-1.83.11-27.81,4.57-35.41,15.09s-4.84,35.23-.27,50.78,11,41.17,22.87,55.8,11,16.47,21,24.7,32,30.19,19.22,7.32-32-43-35.68-61.29-12.81-38.42-8.24-52.15,7.32-21,14.64-25.61,27.45,0,27.45,0l16.46-10.07S719.76,210,705.12,210.88Z"/><path class="cls-3" d="M725.25,220.94s-32.94,27.45,12.8,82.34S853.32,349,853.32,349s42.09-31.1,76.85-86L853.32,159.65S750.86,202.65,725.25,220.94Z"/><path class="cls-3" d="M876.2,159.65s-24.71-3.66-29.28,6.4-12.81,63.13,31.1,79.59,48.49,20.13,54.9,12.81,17.38-39.34,2.74-58.55S893.58,159.65,876.2,159.65Z"/><path class="cls-4" d="M747.2,303.28c-.91-1.83-21-26.53-21-43s-1.38-28,8-36.86,30.42-18.94,38.66-21.69,32-13.72,43-17.38,22.87-6.4,22.87-6.4,2.74,24.7,0,25.61-52.15,15.55-61.3,17.38-28.36,8.24-32,15.56-6.4,14.63-1.83,27.44,10.09,32,13.28,35.21,18.74,8.7,11.42,12.36S747.2,303.28,747.2,303.28Z"/><line class="cls-3" x1="830.45" y1="332.55" x2="888.09" y2="262.11"/><line class="cls-3" x1="787.02" y1="320.22" x2="854.67" y2="249.74"/><line class="cls-3" x1="755.44" y1="288.64" x2="835.94" y2="231.92"/><line class="cls-3" x1="741.71" y1="243.81" x2="822.22" y2="208.14"/><path class="cls-5" d="M704.36,388.6l-22.77-22a53.36,53.36,0,0,1-4.94-5.48c-16.47-21.17-31-59.6-31-59.66C644.74,295,245,632.62,223.92,654.58s-95.15,98.8-95.15,98.8,34.22,25.75,49.86,37c16.47,11.89,56.72,30.19,56.72,30.19s539.3-386.52,542-393.84c.83-2.19-1.31-3.48-4.72-4.21-18.09-3.89-42.93-19.69-62.63-29.89A24.31,24.31,0,0,1,704.36,388.6Z"/><path class="cls-6" d="M518.21,470.88s67.44-95,99.71-88.4,33.75,32.37,40.3,40.48,31.9,12.2,33.74,32.37-85,65.55-118.53,60.48,17.7-35.31,12.09-39.45-37,1.63-45,3.52S511.45,479.63,518.21,470.88Z"/><path class="cls-2" d="M648.4,286.81s-5.49-47.57-7.32-47.57-80.5,69.53-85.08,73.19S374.86,471.61,374.86,471.61L215.68,618.9s-40.25,30.19-49.4,40.25-49.4,45.74-58.55,53.06S84,739.66,80.29,742.4s15.55,19.21,30.19,21,2.74-9.15,13.72-28.36,47.57-60.38,67.7-74.1,111.61-98.8,113.44-99.72S501.11,391.1,516.66,382s109.78-98.8,118.93-99.71S648.4,286.81,648.4,286.81Z"/></svg>