<svg xmlns="http://www.w3.org/2000/svg" viewBox="0 0 1000 1000"><defs><style>.cls-1{fill:#df5a0e;stroke:#ba460c;}.cls-1,.cls-10,.cls-15,.cls-19,.cls-22,.cls-24,.cls-26,.cls-3,.cls-8{stroke-miterlimit:10;}.cls-1,.cls-10,.cls-15,.cls-22,.cls-24,.cls-26,.cls-3{stroke-width:3px;}.cls-2{fill:#f27514;}.cls-3{fill:#028c59;stroke:#03603a;}.cls-4{fill:#ffda2e;}.cls-5{fill:#fbdc2e;}.cls-6{fill:#40b7ee;}.cls-7{fill:#2748cc;}.cls-8{fill:#1e9858;stroke:#0a7f3f;stroke-width:2px;}.cls-9{fill:#42bf7b;}.cls-10{fill:#2549ca;stroke:#0b36af;}.cls-11{fill:#1338a4;}.cls-12{fill:#1638a5;}.cls-13{fill:#1139a2;}.cls-14{fill:#2f56d4;}.cls-15{fill:#fcb80e;stroke:#d89b12;}.cls-16{fill:#f8c753;}.cls-17{fill:#d89b12;}.cls-18{fill:#3dbae6;}.cls-19,.cls-21{fill:#fff;}.cls-19{stroke:#000;}.cls-20{fill:#b95d38;}.cls-22{fill:#87c95c;stroke:#407f17;}.cls-23{fill:#68b13f;}.cls-24{fill:#fcd82e;stroke:#db9d21;}.cls-25{fill:#f7b41d;}.cls-26{fill:#018357;stroke:#035638;}.cls-27{fill:#21a773;}.cls-28{fill:#006842;}</style></defs><title>peacock</title><g id="Layer_2" data-name="Layer 2"><path class="cls-1" d="M473.39,672.85S494.34,561.49,492.66,540s9.83-.77,9.83-.77l6.62,4.26L485.9,671.87Z"/><polygon class="cls-2" points="501.01 553.97 486.67 638.24 481.29 662.45 479.49 660.66 495.63 555.76 495.63 539.62 501.91 543.21 501.01 553.97"/><path class="cls-1" d="M519.42,665.89S532.2,553.3,529,532s9.75-1.48,9.75-1.48l6.91,3.76L531.83,664Z"/><polygon class="cls-2" points="538.31 545.31 530.14 630.41 526.54 654.95 524.62 653.29 533.07 547.49 531.89 531.4 538.42 534.52 538.31 545.31"/><path class="cls-3" d="M648.94,445.48a205.82,205.82,0,0,1,49.31,25.11l-9,1.79s29.59,23.31,35.87,24.21l-14.35,3.58S735,519,743.08,551.28s13.45,40.34,13.45,40.34S744.87,588.93,744,588c0,0,4.49,22.41,9,26,0,0-14.35-.9-16.14-2.69,0,0,19.73,39.44,19.73,63.65s2.69,51.1,2.69,51.1L751.15,718S735,747.62,735.91,763.76c0,0-9-9-9.87-12.55,0,0-5.38,20.62-1.79,34.07s6.28,30.48,2.69,38.55c0,0-2.69-8.07-4.48-9.86,0,0-3.59,22.41-9.87,28.69s-16.13,17-16.13,23.31c0,0-4.49-8.07-4.49-10.76,0,0-14.34,16.14-23.31,16.14h-.89l9-15.25s-13.45,5.38-17,11.66S651.63,883,651.63,883s-6.28-13.45-2.69-21.52-14.34,26-20.62,44.83-16.14,35-24.21,40.35S579.91,961,579.91,961l1.79-13.45s-17.93,12.55-39.45,12.55l8.07-12.55s-26.9,8.07-30.48,11.66l9-26L518,937.69l9-26h-7.17s2.69-20.62,3.58-22.41-20.62,29.58-29.58,42.13c0,0,0-7.17-3.59-10.75,0,0-8.07,23.31-22.41,28.68l-.9-9s-15.24,19.72-45.72,15.24l7.17-9S399.7,944,391.63,944H369.22s15.24-18.83,15.24-22.42H373.7s12.55-17,11.65-18.83c0,0-16.13,6.28-26,16.14S336,932.31,336,932.31l3.59-9s-16.14,13.45-43,11.66l1.79-6.28-26-1.79,6.28-13.45-9.87,1.8s5.38-20.62,5.38-23.31l-9.86,1.79S276,877.62,276,874.93c0,0-17.94,7.17-29.59,4.48l3.59-6.27s-33.18,0-34.07,1.79l4.48-9s-18.83,6.27-20.62,11.65c0,0,1.79-37.65,9-43l-9,2.69s12.55-31.38,32.28-35l-9.87-2.69s35-18.83,53.8-17.93l-13.45-8.07s15.24-28.69,30.48-30.48l-12.55-1.79s43.93-17.94,62.76-17l-5.38-8.07s35.86-2.69,40.34,0c0,0,28.69-30.48,32.28-30.48s-12.55-.9-12.55-.9,43-11.65,45.72-14.34c0,0-17.93-2.69-17.93-1.79s12.55-11.66,40.34-11.66,78.9-26,78.9-26H531.49l19.73-22.41-17-.9S562,586.24,582.6,580s29.58-32.28,29.58-34.07-9.86,3.58-13.45,3.58c0,0,14.35-17,15.24-23.31s-4.48-14.34-4.48-14.34l-3.58,17s-1.8-23.31-10.76-26-15.24-1.79-15.24-1.79,14.34,12.55,16.13,12.55-24.2-9.86-26.89-12.55,0,17.93-.9,18.83-18.83-28.69-20.62-28.69-15.24-18.83-15.24-18.83l69.93-18.83Z"/><path class="cls-4" d="M681.22,497.48s-17,107.59,33.17,91.45-.9-66.34-5.38-69.93S681.22,497.48,681.22,497.48Z"/><path class="cls-5" d="M623.84,558.45s-17.93,20.62-35,29.59-29.58,25.1-28.69,36.75,14.35,35,38.55,19.73,25.11-44.83,25.11-44.83Z"/><path class="cls-5" d="M657.91,606s-37.66,40.34-40.35,56.48-7.17,37.65,12.55,44.83,42.14-7.18,40.35-26.9S658.8,608.66,657.91,606Z"/><path class="cls-5" d="M690.18,625.69s-3.59,62.76-5.38,67.24.9,54.69,34.07,39.45,25.1-52,12.55-66.34S690.18,625.69,690.18,625.69Z"/><path class="cls-5" d="M603.22,660.66s-7.18,61.86-13.45,69-14.35,21.52-29.59,17.93-34.07-17-28.69-35,41.24-40.35,52-44.83A170.66,170.66,0,0,0,603.22,658Z"/><path class="cls-5" d="M512.66,672.31s-20.62,43.93-26,49.31-24.2,31.38-43.93,23.31-38.55-29.58-28.69-43S474.11,664.24,512.66,672.31Z"/><path class="cls-5" d="M385.35,735.07s-31.37,54.69-52,58.28-52-.9-45.72-21.52,17-35,51.1-37.66S385.35,735.07,385.35,735.07Z"/><path class="cls-5" d="M309.15,809.48S276,848,269.7,853.41s-33.17,21.52-43,1.8-4.49-39.45,24.2-45.73S309.15,809.48,309.15,809.48Z"/><path class="cls-5" d="M362.94,843.55s-50.21,11.66-62.76,24.21-25.1,35-9,45.72,45.72,15.24,57.38-9.86S362.94,843.55,362.94,843.55Z"/><path class="cls-5" d="M401.49,899.14s14.35-35,53.8-26S496.53,883,496.53,883s-27.8,35-37.66,41.24S426.6,939.48,414,928.72,401.49,899.14,401.49,899.14Z"/><path class="cls-5" d="M453.49,767.35s-11.65,55.58-25.1,65.44-36.76,16.14-48.41,5.38-28.69-28.69-1.8-43.93S453.49,767.35,453.49,767.35Z"/><path class="cls-5" d="M526.11,767.35s-33.17,22.41-43,27.79-29.59,22.41-22.42,39.45,38.56,34.07,53.8,21.51,17-38.55,17-50.2S526.11,767.35,526.11,767.35Z"/><path class="cls-5" d="M625.63,849.83s-39.45,9.86-52,15.24-36.76,19.72-32.28,35,19.73,40.35,40.35,34.07,34.07-43,37.65-51.1S625.63,849.83,625.63,849.83Z"/><path class="cls-5" d="M708.11,749.41s-46.62,32.28-52.89,43-19.73,36.76-3.59,46.62,47.52,6.28,52.9-18.83S708.11,749.41,708.11,749.41Z"/><path class="cls-5" d="M622,741.35s6.28,32.27,9.87,41.24S631,814.86,617.56,822s-45.72,6.27-51.1-9.87S562,782.59,581.7,770,622,741.35,622,741.35Z"/><path class="cls-6" d="M687.49,517.21s.9,49.31,13.45,53.79,23.31-9,22.41-16.14-18.82-26-22.41-28.69S687.49,517.21,687.49,517.21Z"/><path class="cls-7" d="M696.46,532.45s1.79,20.62,7.17,19.72,9-3.58,7.17-7.17S696.46,532.45,696.46,532.45Z"/><path class="cls-6" d="M611.28,588s.9,32.27-7.17,38.55S582.6,640,577.22,634.66s-9.87-17.93,0-24.21S611.28,588,611.28,588Z"/><path class="cls-7" d="M598.73,604.17s-10.76,3.59-11.65,8.07-1.79,9,3.58,8.07,9.87-9.86,9.87-11.65a31.79,31.79,0,0,1,.89-5.38Z"/><path class="cls-6" d="M649.84,636.45s-26.9,28.69-25.11,39.45S634.6,692,640.87,692s18.83-3.59,17-18.83S649.84,636.45,649.84,636.45Z"/><path class="cls-7" d="M644.46,655.28s-7.18,9.86-7.18,12.55,1.8,7.17,4.49,8.07,7.17-2.69,7.17-6.28S644.46,655.28,644.46,655.28Z"/><path class="cls-6" d="M702.73,654.38s-3.58,25.1-4.48,32.28,0,24.2,8.07,26.89,22.41,1.8,23.31-9.86-3.59-24.21-10.76-33.17A117.57,117.57,0,0,0,702.73,654.38Z"/><path class="cls-7" d="M708.11,672.31s-.89,17,0,18.83,6.28,6.27,9,1.79-1.8-12.55-2.69-14.34S708.11,672.31,708.11,672.31Z"/><path class="cls-6" d="M698.25,769.14s-26,16.14-28.69,18.83-11.65,13.44-7.17,21.51,17,19.73,25.1,13.45,11.66-25.1,10.76-30.48S698.25,769.14,698.25,769.14Z"/><path class="cls-7" d="M688.39,780.79s-14.35,9-14.35,12.56,2.69,10.75,9,10.75,10.76,0,10.76-6.27-2.69-17.93-2.69-17.93Z"/><path class="cls-6" d="M603.22,868.66c-.9,0-31.38,13.44-35.87,16.13s-9,10.76-4.48,17,18.83,23.31,28.69,11.65S603.22,868.66,603.22,868.66Z"/><path class="cls-7" d="M594.25,878.52s-17,9-17.93,10.76-.9,9,5.38,9.86,9.86,0,11.65-5.38S594.25,878.52,594.25,878.52Z"/><path class="cls-6" d="M475,890.17s-17.93,21.52-21.52,26-19.72,7.17-26.89-.89-10.76-18.83,0-26a40.9,40.9,0,0,1,33.17-5.38C469.63,886.59,475,890.17,475,890.17Z"/><path class="cls-7" d="M458.87,894.66s-9.86,12.55-14.34,12.55-10.76-3.59-10.76-6.28,2.69-9,8.07-9S458.87,894.66,458.87,894.66Z"/><path class="cls-6" d="M348.6,863.28s-7.18,20.62-8.07,25.1-2.69,13.45-9,15.24S313.63,909,310,901.83s-12.55-17,5.38-26.9S348.6,863.28,348.6,863.28Z"/><path class="cls-6" d="M282.25,821.14s-18.83,26.89-25.1,28.69-24.21-.9-21.52-12.55,9-16.14,25.1-17S282.25,821.14,282.25,821.14Z"/><path class="cls-7" d="M265.22,829.21s-6.28,11.65-9.86,10.76-11.66-6.28-4.49-9A33.74,33.74,0,0,1,265.22,829.21Z"/><path class="cls-7" d="M333.35,873.14s-16.13,9-14.34,13.45,4.48,8.07,9,6.27,5.37-9,5.37-12.55Z"/><path class="cls-6" d="M433.77,783.48s-42.14,11.66-46.62,18.83-6.28,16.14,2.69,19.73,22.41,6.27,29.58-6.28S433.77,783.48,433.77,783.48Z"/><path class="cls-7" d="M420.32,793.35s-18.83,4.48-18.83,9.86,4.49,13.45,9,9S420.32,793.35,420.32,793.35Z"/><path class="cls-6" d="M364.73,744.93s-56.48,0-60.06,13.45,9.86,38.55,26.89,22.41A445.43,445.43,0,0,0,364.73,744.93Z"/><path class="cls-7" d="M341.42,753.9s-17.93.89-19.72,5.38,2.69,12.55,8.07,9.86S341.42,753.9,341.42,753.9Z"/><path class="cls-6" d="M510.87,788.86S469.63,812.17,471.42,822s2.69,20.62,18.83,21.51,26.9,5.38,26-14.34A280.09,280.09,0,0,0,510.87,788.86Z"/><path class="cls-7" d="M501.91,806.79c-.9.9-13.45,10.76-12.56,15.25s12.56,9.86,13.45,1.79A64.74,64.74,0,0,0,501.91,806.79Z"/><path class="cls-6" d="M610.39,763.76S576.32,788,576.32,796s8.07,27.79,22.41,20.62,20.62-9.87,17.93-26.9S610.39,763.76,610.39,763.76Z"/><path class="cls-7" d="M606.8,778.1s-14.34,10.76-12.55,15.25,12.55,12.55,13.45,3.58A78.39,78.39,0,0,0,606.8,778.1Z"/><path class="cls-6" d="M586.18,680.38S545.84,710,544,713.55s-2.69,19.73,11.66,20.62a24.25,24.25,0,0,0,26-22.41C582.6,699.21,586.18,680.38,586.18,680.38Z"/><path class="cls-7" d="M572.73,697.41c-.89,0-16.13,4.49-12.55,11.66s8.07,10.76,10.76,2.69A34.38,34.38,0,0,0,572.73,697.41Z"/><path class="cls-6" d="M484.87,685.76c-.89,0-49.31,11.65-52.89,18.83s-7.18,17.93,5.37,20.62,27.8,4.48,34.07-8.07S484.87,685.76,484.87,685.76Z"/><path class="cls-7" d="M470.53,694.73c-.9,0-19.73,4.48-19.73,9.86s-.89,17.93,8.07,9.86S470.53,694.73,470.53,694.73Z"/></g><g id="Layer_4" data-name="Layer 4"><line class="cls-8" x1="488.25" y1="104.48" x2="467.17" y2="69.45"/><ellipse class="cls-8" cx="458.78" cy="52.98" rx="16.79" ry="18.27" transform="translate(26.53 215.59) rotate(-27.2)"/><path class="cls-9" d="M444.81,56.38s.49-11.68,5.37-14.7,12.21-4,12.21-4-7.9-1.85-10.79-.39a16.4,16.4,0,0,0-7.29,8.16C443,48.94,444.81,56.38,444.81,56.38Z"/><line class="cls-8" x1="492.09" y1="104.9" x2="484.98" y2="64.64"/><ellipse class="cls-8" cx="483.06" cy="46.25" rx="16.79" ry="18.27" transform="translate(-2.17 52.12) rotate(-6.16)"/><path class="cls-9" d="M468.8,44.41s4.66-10.72,10.3-11.79,12.81.69,12.81.69-6.71-4.56-9.92-4.24a16.38,16.38,0,0,0-9.74,5C469.78,36.82,468.8,44.41,468.8,44.41Z"/><line class="cls-8" x1="495.87" y1="105.76" x2="503.34" y2="65.56"/><ellipse class="cls-8" cx="507.99" cy="47.67" rx="18.27" ry="16.79" transform="translate(335.69 527.93) rotate(-75.62)"/><path class="cls-9" d="M495.28,41s8.13-8.41,13.78-7.44,11.76,5.15,11.76,5.15S516.14,32,513,31.21a16.45,16.45,0,0,0-10.87,1.26C498.86,34.18,495.28,41,495.28,41Z"/><line class="cls-8" x1="500.48" y1="106.78" x2="516.13" y2="69"/><ellipse class="cls-8" cx="524.38" cy="52.47" rx="18.27" ry="16.79" transform="translate(244.75 499.16) rotate(-63.67)"/><path class="cls-9" d="M513.34,43.25s9.69-6.54,15-4.41,10.44,7.47,10.44,7.47-3.21-7.46-6.1-8.91a16.39,16.39,0,0,0-10.89-1C518.25,37.37,513.34,43.25,513.34,43.25Z"/><line class="cls-8" x1="506.1" y1="111.11" x2="527.9" y2="76.51"/><ellipse class="cls-8" cx="538.83" cy="61.61" rx="18.27" ry="16.79" transform="translate(171.95 461.02) rotate(-53.95)"/><path class="cls-9" d="M529.5,50.66s10.65-4.81,15.55-1.82,9,9.13,9,9.13-1.91-7.89-4.51-9.81A16.42,16.42,0,0,0,539,45.31C535.32,45.69,529.5,50.66,529.5,50.66Z"/><path class="cls-10" d="M484.87,338.8S413.15,300.24,414,250.93s38.56-80.69,38.56-80.69,20.62,10.76,62.75,0l10.76-31.37s-6.27-27.8-31.38-36.76-48.41,2.69-64.55,16.13S392.53,152.31,371,188.18s-35.86,84.27-36.76,94.13-5.38,77.11,7.17,101.31c0,0,19.73,64.55,83.38,103.11l25.11,10.75s42.13,49.31,44.82,51.11,14.35,2.69,15.24,0,0-17.93,0-17.93,16.14,15.24,22.42,15.24,12.55.89,12.55-1.79S568.25,476,568.25,476Z"/><path class="cls-11" d="M446.32,327.14s-35,.9-35,35.86.9,37.66,6.28,58.28,2.69,32.27-2.69,35-28.69-4.48-28.69-4.48S423,484,432,485.83s26,12.55,26,12.55l15.24,4.48s-16.14-19.72-16.14-26,14.34-32.27,19.72-33.17-11.65-55.58-11.65-55.58Z"/><path class="cls-10" d="M452.6,170.24s-9.87-10.75-9.87-14.34"/><path class="cls-12" d="M448.11,170.24s-9-9-9-11.65-22.42,33.17-24.21,36.76S400.6,233,405.08,249.14a163.88,163.88,0,0,0,11.65,29.59S404.18,250,414,223.14,441.84,173.83,448.11,170.24Z"/><path class="cls-13" d="M506.39,163.07l4.48,4.48s-3.58.9-16.14,2.69-31.38.9-34.07,0-7.17-5.37-7.17-5.37h34.07C494.73,164.87,506.39,163.07,506.39,163.07Z"/><path class="cls-14" d="M452.6,110.18c-.9,0-39.45,35-44.83,40.34s-25.1,28.69-38.55,56.48-23.31,53.8-26,65.45S336,309.21,336,309.21s4.49-37.66,7.18-48.41,22.41-60.07,31.38-73.52,32.27-43.93,38.55-50.21,30.48-24.2,35-26.89,18.83-9.87,25.11-9Z"/><path class="cls-11" d="M528.8,474.17s9,62.76,7.17,64.56.9,5.38,2.69,4.48,4.49-27.79,4.49-27.79V467l-17-12.55Z"/><line class="cls-10" x1="510.03" y1="530.67" x2="478.6" y2="502.86"/><path class="cls-15" d="M504.15,155.66l22.18-16.35s29.86,24.95,30.71,47.31c0,0-26.44-12.9-29.86-13.76l-13.65-3.44Z"/><path class="cls-15" d="M557,187.48s-35-26.66-52-31.82"/><path class="cls-16" d="M531.45,150.5c.23.82,14.5,18.92,16.21,21.5s2.56,6,3.41,5.16-4.26-12-6-14.62S529.74,144.47,531.45,150.5Z"/><path class="cls-17" d="M526.94,151.6c.15,0,.15,0,0,0l.25.16c-.13-.09-.09-.08,0,0s.24.31,0,0a.83.83,0,0,1,.13.18c-.07-.23-.1-.28-.07-.14a1.5,1.5,0,0,0,1.84,1,1.53,1.53,0,0,0,1.05-1.84,3,3,0,0,0-.87-1.4,3.41,3.41,0,0,0-1.58-.94,1.5,1.5,0,1,0-.8,2.9Z"/><path class="cls-18" d="M439.15,130.8s17.93-24.21,38.55-21.52,27.79,13.45,27.79,21.52a19.5,19.5,0,0,1-12.55,17.93c-7.17,2.69-21.52,4.48-30.48,0S439.15,130.8,439.15,130.8Z"/><ellipse class="cls-19" cx="479.04" cy="130.2" rx="13" ry="15.84"/><circle class="cls-20" cx="479.14" cy="129.73" r="7.08"/><ellipse class="cls-21" cx="475.56" cy="125.91" rx="2.28" ry="1.62"/><path class="cls-10" d="M519.84,360.31l69.93,29.59s54.69,38.55,64.55,41.24S685.7,444.59,678.53,450c0,0,13.44,21.51,1.79,16.14,0,0,5.38,26-17.93,12.55,0,0-.9,21.51-12.55,12.55,0,0-8.07,3.58-17-5.38,0,0-3.58,6.28-17.93-2.69,0,0-10.76,12.55-29.58,3.59,0,0-5.38,14.34-17.94,3.58L510,424.86Z"/></g><g id="Layer_3" data-name="Layer 3"><path class="cls-22" d="M452.6,424s17.93,43.93,69,48.41c0,0,30.48,15.24,44.83,9,0,0,36.76,9.86,44.82,1.79,0,0,31.38,1.79,19.73-11.66,0,0,16.14-3.58,2.69-17.93,0,0-3.59-17.93-26.9-36.75s-123.72-25.11-123.72-25.11Z"/><path class="cls-22" d="M521.63,472.38s-43-28.69-52.9-47.52"/><path class="cls-22" d="M566.46,481.35S501,439.21,490.25,424.86"/><path class="cls-22" d="M611.28,483.14s-59.17-23.31-81.58-44.83"/><path class="cls-22" d="M631,471.48s-14.35,2.69-68.14-37.65"/><path class="cls-22" d="M633.7,452.66c-2.69-.9-29.59-21.52-52-34.07"/><path class="cls-23" d="M470.53,436.52s16.13,21.52,35.86,28.69l6.27,3.59s-24.2-5.38-35-17-15.24-17.93-15.24-17.93Z"/><path class="cls-23" d="M484,428.45s27.3,33.48,44.37,41.92l.45.22s7.17,1.79,7.17,2.69-9.86,0-10.75-.9-35.87-27.79-35.87-27.79l-15.24-17,4.49-6.27Z"/><path class="cls-23" d="M527,443.69l36.76,29.59s16.93,9.31,22,9.84l.41,0s-13.45-1.79-17.93-3.59-27.79-17.93-27.79-17.93L502.8,431.14l7.17-5.38Z"/><path class="cls-23" d="M540.46,430.24s26.89,29.59,56.48,39.45,32.28,7.17,32.28,7.17l2.69-1.79s0,2.69-3.59,4.48-14.35,1.8-16.14,1.8-43.93-20.62-43.93-20.62L536,437.42Z"/><path class="cls-23" d="M573.63,428.45s18.83,26.9,40.34,32.28,23.31,3.58,23.31,3.58-1.79,4.49-6.27,4.49-25.1-6.28-36.76-14.35a147.66,147.66,0,0,1-21.52-18.83Z"/><polygon class="cls-23" points="600.53 423.07 628.32 446.38 592.46 421.28 594.25 415 600.53 423.07"/><path class="cls-24" d="M423.91,375.55s-4.49,24.21,19.72,47.52,41.24,29.59,29.59.9c0,0,49.31,49.31,40.34,11.65,0,0,50.21,38.55,36.76,2.69,0,0,44.21,28,27.93-3.93,0,0,39.31,19.17,18.69-13.1,0,0,22.41-6.28-3.59-32.28s-97.72-20.62-97.72-20.62Z"/><line class="cls-24" x1="473.22" y1="423.97" x2="448.11" y2="389.9"/><line class="cls-24" x1="513.56" y1="435.62" x2="468.73" y2="389"/><line class="cls-24" x1="550.57" y1="439" x2="512.66" y2="399.76"/><line class="cls-24" x1="578.5" y1="434.87" x2="546.73" y2="402.45"/><path class="cls-24" d="M596.94,421.28s-13.45-26-22.41-30.48"/><path class="cls-25" d="M434.66,389.9l18.83,40.34s-22.41-23.31-24.2-31.38a73,73,0,0,1-1.8-14.34l7.17,5.38Z"/><path class="cls-25" d="M472.32,410.52s16.14,22.41,20.62,25.1,13.45,3.59,14.35,2.69,6.27,2.69,6.27,3.59-.9,5.38-3.59,5.38-20.62-9.86-22.41-11.66-18.83-21.51-18.83-21.51l-6.27-11.66-3.59-11.65Z"/><path class="cls-25" d="M497.42,409.62s25.11,26.9,30.49,30.49S544,445.48,544,445.48s3.59-2.68,3.59-3.58,2.69,2.69,2.69,3.58-1.79,5.38-1.79,5.38-3.59.9-9-.89-26.9-18.83-26.9-18.83L484,401.55l14.34-.89Z"/><path class="cls-25" d="M536,412.31s18.83,26.9,29.59,29.59,12.55-1.79,11.66-3.59c0,0,6.27,9,0,9s-21.52-7.17-24.21-9-25.1-27.79-25.1-27.79Z"/><path class="cls-25" d="M564.66,411.42s17,24.2,26,22.41,7.18-7.17,7.18-7.17,5.38,8.07,3.58,9.86-14.34.9-17.93-.9-16.14-15.24-16.14-15.24l-7.17-8.07-2.69-8.07Z"/><path class="cls-25" d="M588,401.55c0,.9,9.87,17.93,16.14,10.76l-6.27,7.17Z"/><path class="cls-26" d="M454.39,398s-17,23.31-36.76-26.9,37.66-65.45,58.28-55.58,62.75,23.31,87.86,44.82,47.51,39.45,17,35.86c0,0,12.55,24.21-14.34,9,0,0,5.38,26.9-24.21,5.38,0,0,4.48,28.69-26,1.79,0,0,0,24.21-31.38-9.86C484.87,402.45,484,429.35,454.39,398Z"/><path class="cls-27" d="M452.6,320.86c-1.8,0-30.49,13.45-32.28,33.18l-1.79,9.86s-5.38-20.62,5.38-33.17S452.6,320.86,452.6,320.86Z"/><path class="cls-28" d="M420.32,371.07s15.24,35,32.28,21.52c0,0,30.48,25.1,28.69.9,0,0,36.75,33.17,29.58,8.06,0,0,30.48,26,28.69,3.59,0,0,26,9.86,19.73-4.48,0,0,22.41,1.79,16.13-6.28,0,0,19.73-1.79,11.66-10.76,0,0,17,13.45-8.07,11.66,0,0,9,20.62-14.35,7.17,0,0,8.07,27.79-22.41,6.28l-1.79-.9s6.27,29.59-25.11,1.79c0,0,.9,24.21-31.37-9.86,0,0,0,28.69-29.59-3.59C454.39,396.17,438.25,418.59,420.32,371.07Z"/><path class="cls-28" d="M503.7,374.66s15.24,19.72,25.1,0c0,0-4.48,12.55-11.65,11.65S503.7,374.66,503.7,374.66Z"/><path class="cls-28" d="M525.24,395.05s15.86,17.05,20-3.83c0,0-1.21,13-7.1,13.23S525.24,395.05,525.24,395.05Z"/><path class="cls-28" d="M467.84,373.8s12.79,16.56,21.07,0c0,0-3.77,10.54-9.79,9.79S467.84,373.8,467.84,373.8Z"/><path class="cls-28" d="M429.78,368.73s6.43,19.91,19.82,7.14c0,0-7.11,8.64-12.52,5.89S429.78,368.73,429.78,368.73Z"/></g></svg>