<svg id="Layer_2" data-name="Layer 2" xmlns="http://www.w3.org/2000/svg" viewBox="0 0 1000 1000"><defs><style>.cls-1{fill:#fed1a5;stroke:#d6a47c;}.cls-1,.cls-3,.cls-4{stroke-miterlimit:10;stroke-width:3px;}.cls-2{fill:#eabf98;}.cls-3{fill:#433a35;stroke:#352e2a;}.cls-4{fill:#1374bc;stroke:#075d91;}.cls-5{fill:#db94a6;}.cls-6{fill:#d582a0;}.cls-7{fill:#231f20;}.cls-8{fill:#fff;}.cls-9{fill:#655d5a;}</style></defs><title>mother</title><path class="cls-1" d="M298.5,815.5s60,63,180,59,172-52,193-70,63-56,84-101,15-154,15-154l-152-210s-125-4-214,28-191,216-191,216l11,102S221.5,758.5,298.5,815.5Z"/><path class="cls-2" d="M633.5,466.5l-106-26s-27,23-29,26-61,52-69,58-44,17-71,17,100-138,100-138l96-28Z"/><path class="cls-3" d="M330.5,290.5s-3-116,42-145,113-36,129-18c0,0,44-28,93,2s54,84,57,104,0,80,0,80Z"/><path class="cls-4" d="M372.89,262.22c-.17-1.27,33.92-63.79,86.13-73.28s105.6-2.38,126.77,5.13,39.07,36.08,33.46,39.4S372.89,262.22,372.89,262.22Z"/><path class="cls-3" d="M326.5,826.5l-126,27s-67-142-60-192,44-179,66-229,77-147,160-183,137-48,203-36,154,66,183,126,56,120,67,171,23,159,25,199-50,108-52,112-89-41-101-41c0,0,59-62,64-77s11-65,11-70-19,71-48,91c0,0,24-84,20-121,0,0-7,29-11,36,0,0-9-82-37-110s-84-72-115-84a125,125,0,0,1-49-35s-67,77-117,112-68,39-92,48-88,5-87,21-3,119,29,146l-22-10S261.5,783.5,326.5,826.5Z"/><path class="cls-1" d="M190.5,604.5s9,76,28,89c0,0-8,7-16,7s-40-17-46-30-4-27,2-39S182.5,605.5,190.5,604.5Z"/><path class="cls-1" d="M781.5,644.5s34-4,52-33-16-55-20-57-22-4-32,7C781.5,561.5,786.5,626.5,781.5,644.5Z"/><path class="cls-5" d="M343.5,749.5s190,2,284-16c0,0,2,58-37,87s-100,36-119,37-71-5-95-33S343.5,749.5,343.5,749.5Z"/><path class="cls-6" d="M419.5,846.5s33,10,63,6,81-20,81-20-63-17-93-9A173.4,173.4,0,0,0,419.5,846.5Z"/><path class="cls-3" d="M569.5,550.5s16-15,32-10,19,10,19,10-12-17-19-18-17-1-24,6S569.5,550.5,569.5,550.5Z"/><path class="cls-3" d="M377.5,561.5s-12-12-20-13-19,4-23,7-4,5-4,5S354.5,545.5,377.5,561.5Z"/><path class="cls-2" d="M196.5,681.5s-5-12-9-16-5,0-4-11,5-9,0-14-9-8-14-4-12,11-8,12,10-10,14-7,3,4,3,13,3,11,7,15S196.5,681.5,196.5,681.5Z"/><path class="cls-2" d="M792.39,619.34s2.14-16.87,4.5-19.59,10.68-4.69,8.08-8-7.68-3-6.92-9,.39-11,8.58-12,15.13-.09,18.6,4.38a13.87,13.87,0,0,1,2.83,9.43s-5.81-9.81-9.9-9.32-9.8-2.26-9.56,3.82,3.32,13.53-.29,18.11S792.39,619.34,792.39,619.34Z"/><circle class="cls-7" cx="351.45" cy="619.12" r="32.47"/><circle class="cls-8" cx="335.21" cy="607.28" r="7.65"/><circle class="cls-7" cx="587.45" cy="605.12" r="32.47"/><circle class="cls-8" cx="571.21" cy="593.28" r="7.65"/><path class="cls-1" d="M487,652s-12-5-16,1-9,16,0,19a38.37,38.37,0,0,0,16,2"/><path class="cls-9" d="M789,463S733,304,685,280s-95-62-155-57-120,24-146,34-89,51-89,51-48,69-57,83S477,241,543,261s129,47,157,78S789,463,789,463Z"/><path class="cls-9" d="M360.5,175.5s57-40,75-44,39-7,51,0,27-1,45-4,43-8,59,6,26,21,32,30a60.68,60.68,0,0,1,8,17s-21-30-57-35-71,0-78,4-18-8-39,0-37,5-52,14S360.5,175.5,360.5,175.5Z"/></svg>