<svg id="Layer_2" data-name="Layer 2" xmlns="http://www.w3.org/2000/svg" viewBox="0 0 1000 1000"><defs><style>.cls-1{fill:#b6d6f2;stroke:#96c1e2;}.cls-1,.cls-2,.cls-3,.cls-7{stroke-miterlimit:10;stroke-width:3px;}.cls-2{fill:#fabe01;stroke:#8c6907;}.cls-3{fill:#42565a;}.cls-3,.cls-7{stroke:#2f393a;}.cls-4{fill:#ffdf01;}.cls-5{fill:#d1e5f5;}.cls-6,.cls-7{fill:#4a5e63;}</style></defs><title>cutter</title><path class="cls-1" d="M408.5,305.5l-151-100s-17,7-23,0,0-17,0-17-14-11-17-11-192,70-192,70l300,201,336,220,56,39,82-130Z"/><line class="cls-1" x1="313.02" y1="242.27" x2="124.55" y2="313.87"/><line class="cls-1" x1="220.85" y1="378.38" x2="402.06" y2="301.24"/><line class="cls-1" x1="350.58" y1="464.92" x2="541.88" y2="398.28"/><line class="cls-1" x1="444.84" y1="526.64" x2="630.64" y2="460.03"/><line class="cls-1" x1="568.14" y1="607.37" x2="741.11" y2="536.88"/><line class="cls-1" x1="661.5" y1="668.5" x2="799.5" y2="577.5"/><path class="cls-2" d="M459.5,296.5c-47-33-58-23-93-12s-58,29-63,44-35,118-38,124l70,48s117,81,174,117,85,65,112,119,29,51,44,66,28-14,35-19,90-49,127-76,68-112,68-112S506.5,329.5,459.5,296.5Zm243,356c-11-5-320-210-320-210l46-74,319,213S713.5,657.5,702.5,652.5Z"/><path class="cls-3" d="M619.5,446.5c-3.94-.72-78,83-91,127,0,0,69,56,89,63s50-60,62-59,39,27,51,28,55-40,44-51S630.5,448.5,619.5,446.5Z"/><path class="cls-4" d="M313.5,348.5c1.46-3.86,23-46,44-52s54-17,66-12,116,75,130,84,55,39,62,44-100-37-139-55-76-29-94-26-45,18-49,26S302.5,377.5,313.5,348.5Z"/><path class="cls-5" d="M331.5,273.5c-10-9-90-55-100-61s-13-19-34-18-93,33-99,37,61,10,81,8,41-9,65,4,33,31,54,37S331.5,273.5,331.5,273.5Z"/><path class="cls-3" d="M875.5,581.5c15,4,107,47,112,84s-62,153-85,161-134,37-179,24-64-31-73-63,115-65,115-65Z"/><path class="cls-6" d="M882.5,643.5c2-2,12-31,18-34s41,13,52,24,20,20,23,30,2,34-3,41-8,24-16,27-7-35-17-53-22-29-36-23-23,23-28,15S882.5,643.5,882.5,643.5Z"/><path class="cls-7" d="M584.5,499.5s80,59,88,62,38-24,37-33-79-65-88-68S582.5,494.5,584.5,499.5Z"/><path class="cls-7" d="M596.5,501.5c1,0,28-32,28-32"/><line class="cls-7" x1="607.5" y1="509.5" x2="636.5" y2="477.5"/><line class="cls-7" x1="621.5" y1="520.5" x2="648.5" y2="487.5"/><line class="cls-7" x1="632.5" y1="526.5" x2="660.5" y2="495.5"/><line class="cls-7" x1="643.88" y1="534.83" x2="671.12" y2="502.17"/><line class="cls-7" x1="655.5" y1="543.5" x2="682.5" y2="512.5"/><line class="cls-7" x1="672.5" y1="552.5" x2="693.5" y2="520.5"/></svg>