<svg id="Layer_2" data-name="Layer 2" xmlns="http://www.w3.org/2000/svg" viewBox="0 0 1000 1000"><defs><style>.cls-1,.cls-4{fill:#3bbddb;stroke:#0a8fa5;stroke-miterlimit:10;}.cls-1{stroke-width:3px;}.cls-2{fill:#d7eef6;}.cls-3{fill:#1ea2d1;}.cls-4{stroke-width:4px;}.cls-5{fill:#0a8fa5;}</style></defs><title>ruler</title><path class="cls-1" d="M113.54,211.94s-4.42,4.16-2.41,8.51,654,722.86,654,722.86,5.32,1.24,8.64-1.88L899.58,829.48s5.53-5.2-2.78-14S244.33,96.39,244.33,96.39s-5.88-.72-9.72,1.84S113.54,211.94,113.54,211.94ZM230,126.52c21.12-6.31,30.2,12.22,32.66,19.27s-3.43,24-18,27.33-25-9.82-25.43-10.45C214.05,155,208.84,132.83,230,126.52Z"/><path class="cls-2" d="M863,848.19S772,928.5,763,925.53s-632.45-690-635.4-698.66,27.15,6.75,33.94,12.87S750.75,887.06,756.53,891,863,848.19,863,848.19Z"/><path class="cls-3" d="M273.85,164.38s496.23,533.87,506.27,539-12.13-24-12.13-24S260.67,122.65,257,118.78s-24.81-13.11-28.19-7.85,20.62,9.76,27.4,15.88S273.85,164.38,273.85,164.38Z"/><line class="cls-4" x1="733.94" y1="910.15" x2="794.57" y2="853.2"/><line class="cls-4" x1="686.27" y1="856.07" x2="746.9" y2="799.12"/><line class="cls-4" x1="636.94" y1="803.56" x2="697.57" y2="746.6"/><line class="cls-4" x1="588.72" y1="750" x2="649.35" y2="693.05"/><line class="cls-4" x1="540.49" y1="696.44" x2="601.13" y2="639.49"/><line class="cls-4" x1="492.27" y1="642.88" x2="552.91" y2="585.93"/><line class="cls-4" x1="444.05" y1="589.32" x2="504.68" y2="532.37"/><line class="cls-4" x1="395.27" y1="536.29" x2="455.91" y2="479.33"/><line class="cls-4" x1="346.5" y1="483.25" x2="407.13" y2="426.3"/><line class="cls-4" x1="298.83" y1="429.17" x2="359.46" y2="372.22"/><line class="cls-4" x1="250.05" y1="376.13" x2="310.69" y2="319.18"/><line class="cls-4" x1="202.38" y1="322.05" x2="263.02" y2="265.1"/><line class="cls-4" x1="154.16" y1="268.5" x2="214.79" y2="211.55"/><polygon class="cls-5" points="251.62 188.91 264.34 176.96 851.23 814.01 836.86 827.51 251.62 188.91"/></svg>