<svg id="Layer_3" data-name="Layer 3" xmlns="http://www.w3.org/2000/svg" viewBox="0 0 1000 1000"><defs><style>.cls-1{fill:#be3139;stroke:#a8222f;stroke-miterlimit:10;stroke-width:3px;}.cls-2{fill:#a22930;}.cls-3{fill:#bc4853;}.cls-4{fill:#aa272f;}.cls-5{fill:#a72831;}</style></defs><title>modern dress</title><path class="cls-1" d="M309,859.28c-.38-4.41-.73-164.13,14.71-208.41s68.29-118.44,76-132.43S383.75,333.2,383.75,333.2l-1.46-2.88A148.24,148.24,0,0,1,366.39,269L358,215.92s9.74-24.54,17.92-32.65l17.27-5.93s78.17-3.77,103.18,45.91l16.3.08s27.45-42.35,69.58-51.91c0,0,24.62-6.56,32.22-4.25l21.22,5.58s20.75,17.46,21.89,30.69l-6,58.42a175,175,0,0,1-19.88,66.59h0l-5.1,30.48L605.74,511.8s57.58,83.9,68.53,142.2S689,739.91,689,739.91l-1.25,123S506,868.23,470.37,866.86,309,859.28,309,859.28Z"/><path class="cls-2" d="M390.64,542.17s13.05-20.37,14.27-23.44.08-16.3-.3-20.71-.05-17.77-.05-17.77l184.28-9.95L607,474.67s-1.42,17.89-2.51,22.43-3.4,12.14-1.55,16.42,17.24,28.14,17.24,28.14l28.33,53.84s-36.77-48.67-41.82-55.64-14.75-16.5-15.25-22.38-2.87-16.05-7.66-20.08-24.41-8.26-43.64-8.09-57.34,4.94-69.23,4.48-41.67-2.33-45.7,2.46S412,515.16,410.92,519.69,390.64,542.17,390.64,542.17Z"/><path class="cls-3" d="M400.78,488l208.9-5L626.21,362s-148.44,5.29-169.15,5.59-68.43,2.84-68.43,2.84Z"/><path class="cls-2" d="M680.42,794.18s-1.38,19.16-.37,30.93.56,23.64-5.07,27.09-64.94,2.63-88.59,3.19-120.1-1.51-120.1-1.51l-78.42.83s197.51-11.08,217.71-17.27,32.22-4.25,46.11-32.11,20.56-53.61,21.85-73S680.42,794.18,680.42,794.18Z"/><path class="cls-4" d="M644.71,191.23s6.19,20.2,3.29,38.22-11.87,16.1-11.75,17.57-4.51,50.75-4.51,50.75l12.79-39.88s12.37-45.5,8.67-54.07S644.71,191.23,644.71,191.23Z"/><path class="cls-5" d="M365.94,238.93s-4.34-15.92-2.16-25,6.93-22.81,12.68-24.79,17.14-7.4,23-7.9,21,2.63,21,2.63-28.9,8.42-33.06,11.74S375,207.05,374.33,216s-5.07,27.1-4.31,35.92,2.07,41.29,2.07,41.29Z"/><path class="cls-2" d="M614.05,393.34s-7.58,49.53-8.29,58.48,3.37,21.92-3.86,24-110.64,5.09-119.59,4.38-74.83.65-74.83.65-6.81-54.34-7.57-63.16L396.75,381s17.79,51.79,20.14,61.95,11.81,16.76,25.3,18.56,40.58,6.87,59.69,5.23,56.5,2.54,69.23-4.48,24.64-40.63,29.38-54.37,17.41-38.53,17.41-38.53Z"/></svg>