<svg xmlns="http://www.w3.org/2000/svg" viewBox="0 0 1000 1000"><defs><style>.cls-1{fill:#4371bf;}.cls-1,.cls-2{stroke:#0a68ae;stroke-miterlimit:10;stroke-width:3px;}.cls-2{fill:#c3def1;}</style></defs><title>flip-flops</title><g id="Layer_2" data-name="Layer 2"><path class="cls-1" d="M347.58,817.47s46.49-13,59.33-63.61S419.46,673.25,417,640.32s-.19-144.13,5.2-158.37,34.54-104.58,43.85-121,26-70.19,30.32-86.39,6.94-71.36.61-102.12-27-68.9-41.36-77.29-197.72,80.56-197.72,80.56L243,433.6,226.74,637.49l-15.64,8.68s-13.32,62.63-8.42,83.44,19,70.25,66.59,82.21S327.65,819.32,347.58,817.47Z"/><path class="cls-2" d="M368.1,782.55c2.44-2.65,35.24-18.53,34.78-145.63S408.8,448.5,427.8,401.64s45-95,52.41-131.37,14.77-98.73-3.85-136c0,0-9.32-30.62-25.86-42.92s-41.43-32.25-102.85-17.6-105,71.57-125.46,108.49S191,272.69,197.75,335.46s24,163.11,20.19,190.3-16.75,145.86-18.19,158.93-1.54,51.81,10.63,70S243,806,290,805.93,355.67,796.1,368.1,782.55Z"/><path class="cls-1" d="M380.82,193.46s-12.08-1.48-14.69,7.64-9.09,21.41-5.66,31.27S370.62,259,378,243.63s10.61-32.48,10.4-37.48S387.81,193.16,380.82,193.46Z"/><path class="cls-1" d="M357.19,621.87s-12.07-1.48,13.41-60.63,34.94-118.61,38.86-143.8,8.25-87.44-17.61-130.36c0,0-9.9-20.6-28.27-28.82,0,0-39.75,6.72-69.87,51.05s-46.17,90.07-49.49,129.25-4.74,99.29,5.28,122.88,8.71,39.66,2.84,42.92-24.59,10.06-28.48-10.79-12.36-54.52-13.42-102.52,7.65-101.42,19.39-130.95,40.57-80.82,68.47-107,55.31-40.41,73.56-35.19,43.47,10.14,57.48,56.58S441.11,362,439.93,381.1s-6.12,67.32-14.47,105.72-20.59,79.95-30.59,103.41S374,640.17,357.19,621.87Z"/><line class="cls-1" x1="374.02" y1="218.48" x2="363.58" y2="258.26"/><path class="cls-1" d="M517.14,889.9S474.53,865,474.88,812.62s8.37-81.31,19.25-112.52,37.34-139.36,35.68-154.57-7.19-110.34-12.16-128.68-7.62-74.8-7.71-91.61,11.54-70.88,25.72-99,44.45-59.48,60.82-63.78S771.23,293,771.23,293L719.51,546.37,683,747.91l13.23,12.55s-3,64.12-13.18,82.95S646.14,906.3,596,905.25,536.38,897,517.14,889.9Z"/><path class="cls-2" d="M505.85,850.68c-1.73-3.21-30.07-27.28,3.15-150.1s42.74-183.84,36-234.21-20-103.86-17.95-141S537.92,226,565.92,194.88c0,0,17.12-27.15,36.65-34.66s49.27-20.19,106.24,10.3,85.39,97.13,96.08,138.26,7.49,95.73-15.32,154.67-65.81,151.41-69,178.72-21,145.54-23,158.57S685.71,851.26,669,865.58s-45.47,41-92,28.45S514.65,867.09,505.85,850.68Z"/><path class="cls-1" d="M645.15,277.48s12.32,1.77,12.55,11.29,3.47,23.12-2.46,31.75-16.89,23-20.21,6.24-2.12-34.24-.62-39S638.31,275.33,645.15,277.48Z"/><path class="cls-1" d="M558.06,698.15s12.33,1.78,2.38-62.21-4-124-1.36-149.42,14.38-86.77,51-121.42c0,0,15.09-17.29,35.38-20.36,0,0,37.57,17.05,55.93,67.93S723.85,512.06,717,550.84s-20.91,97.3-36.91,117.46-18.84,36.05-13.88,40.76,21.73,16.27,31-2.87,26.27-49.45,39.69-95.6,18.58-100.14,14.59-131.82S732.21,389.82,711.38,357s-44.28-53.78-63.66-53.57-45.61-1.74-71.43,39.46-34.22,81.59-38,100.35S527,510,525.38,549.38s-.26,82.81,3.59,108.16S536.73,711.39,558.06,698.15Z"/><line class="cls-1" x1="645.42" y1="303.48" x2="645.49" y2="344.74"/></g></svg>