<svg id="Layer_2" data-name="Layer 2" xmlns="http://www.w3.org/2000/svg" viewBox="0 0 1000 1000"><defs><style>.cls-1{fill:#df1b33;}.cls-1,.cls-4,.cls-7{stroke:#bc0d33;stroke-miterlimit:10;stroke-width:3px;}.cls-2{fill:#c69f76;}.cls-3{fill:#ebd5ac;}.cls-4,.cls-6{fill:#f9daac;}.cls-5{fill:#c3a173;}.cls-7{fill:none;}.cls-8{fill:#e45c70;}.cls-9{fill:#e03a48;}</style></defs><title>high-heeled shoes</title><path class="cls-1" d="M683.93,750S687.06,562.28,662,517.2s76.28-122.37,76.28-122.37l37.62-31.28s11.49,68.09-10.45,122.37-24,80-27.17,127S733,761,733,761s-24,23-50.16,0Z"/><path class="cls-2" d="M690.2,459.24s32.39,1.84,28.21,60.72S709,671.77,709,671.77l1,65.32-19.85-5.52s-3.14-143.52-10.45-175.73-13.59-50.6-13.59-50.6Z"/><path class="cls-3" d="M712.14,536.52s-6.27,97.53-6.27,121.45v73.6l-10.45-6.44,3.13-173.89Z"/><path class="cls-4" d="M279.55,564.12c1.05-.92,76.28-12,113.9-54.28S471.81,381,485.4,359s62.69-101.2,78.36-116.85,41.8-50.6,64.79-58.88S663,203.46,657.8,223.7s-49.11,136.17-49.11,136.17L542.87,524.56,446.74,658.89,274.33,598.17Z"/><path class="cls-5" d="M354.79,595.41c3.13-2.76,73.14-61.65,99.26-111.33s95.09-130.65,108.67-146.29,102.4-106.73,90.9-70.84,16.72-74.53,16.72-74.53l-21.29-11.8-6.92-3.84,4.18,11s-18.81-5.52-59.56,40.48S475,392.07,475,392.07s-65.83,115-81.5,127.89-49.11,42.32-101.36,48.76Z"/><path class="cls-6" d="M375.68,627.61c2.09-.92,82.55-54.29,101.36-85.57s50.15-106.72,133.74-145.37-93,230-145.24,237.38S375.68,627.61,375.68,627.61Z"/><path class="cls-7" d="M318.69,572.86s67.44-11.5,111.33-80.5,95.08-169.29,125.38-207,71.06-94.77,102.4-93.85"/><path class="cls-1" d="M731,455.56c.88-.5,46.55-38.9,47.83-57.63s-1.86-42.66-14.4-71.18-53.29-101.21-53.29-101.21-29.25-56.12-57.47-57c0,0-18.8,0-32.39,18.4,0,0,29.26-7.36,25.08,18.4s-3.13,44.16-25.08,88.33S565.85,413.23,548.09,450,500,551.24,493.76,561.36s-29.26,23.93-71.06,23.93S313,566,304.63,563.2s-32.39-12-32.39-12-15.67,11-25.08,16.56S94.61,656.13,88.34,658.89s-29.26,11-37.62,30.36-6.27,58.88,11.5,63.49,340.63,15.64,340.63,15.64S504.21,771.14,546,708.57s13.58-53.36,51.2-104.88S704.82,470.28,731,455.56Z"/><path class="cls-8" d="M685,200.7s-3.13,99.37-4.18,118.69-7.31,79.12,16.72,71.76,66.87-46,65.83-56.12S698.55,204.38,685,200.7Z"/><path class="cls-9" d="M52.81,718.69c1-2.62,221.52,9.2,281.08,1.84s142.1-2.76,170.32-43.24S606.6,538.36,606.6,538.36s84.64-112.24,144.2-136.17l20.9-10.12s11.49,8.28-47,60.73-103.45,103-119.12,127-49.11,82.81-61.65,109.49-53.29,64.41-131.66,64.41-249.72-10.13-249.72-10.13S59.08,739.85,56,737.09,51.77,721.45,52.81,718.69Z"/><path class="cls-1" d="M847.45,775.74S850.59,588.05,825.51,543,901.79,420.6,901.79,420.6l37.61-31.29S950.9,457.4,929,511.68s-24,80.05-27.16,127-5.23,148.13-5.23,148.13-24,23-50.15,0Z"/><path class="cls-2" d="M853.72,485s32.39,1.84,28.21,60.72-9.4,151.81-9.4,151.81l1,65.33-19.85-5.52s-3.13-143.53-10.45-175.74S829.69,531,829.69,531Z"/><path class="cls-4" d="M443.08,589.89c1-.92,76.28-12,113.89-54.29s78.37-128.81,91.95-150.89,62.7-101.2,78.37-116.84,41.79-50.61,64.78-58.89,34.48,20.24,29.26,40.48-49.11,136.17-49.11,136.17L706.39,550.32,610.26,684.65,437.85,623.93Z"/><path class="cls-5" d="M518.31,621.17c3.14-2.76,73.14-61.65,99.27-111.33s95.08-130.65,108.66-146.29,102.4-106.72,90.91-70.84,16.72-74.53,16.72-74.53l-21.29-11.8-6.92-3.84,4.18,11s-18.81-5.52-59.56,40.49S638.47,417.83,638.47,417.83s-65.82,115-81.5,127.89-49.11,42.33-101.35,48.77Z"/><path class="cls-6" d="M539.21,653.37c2.09-.92,82.55-54.28,101.35-85.57s50.16-106.72,133.75-145.36-93,230-145.24,237.37S539.21,653.37,539.21,653.37Z"/><path class="cls-7" d="M482.22,598.63s67.44-11.5,111.32-80.51,95.09-169.29,125.39-207,71.05-94.77,102.4-93.85"/><path class="cls-1" d="M894.47,481.32c.88-.5,46.55-38.9,47.83-57.63s-1.85-42.66-14.39-71.18S874.62,251.3,874.62,251.3s-29.26-56.12-57.47-57c0,0-18.81,0-32.39,18.4,0,0,29.25-7.36,25.08,18.4s-3.14,44.17-25.08,88.33S729.38,439,711.62,475.8,663.55,577,657.28,587.13s-29.26,23.92-71,23.92S476.52,591.73,468.16,589s-32.4-12-32.4-12-15.67,11-25.07,16.57-152.56,88.32-158.83,91.08-29.25,11-37.61,30.36S208,773.9,225.74,778.5s340.64,15.64,340.64,15.64,101.35,2.76,143.15-59.81,13.58-53.36,51.2-104.88S868.35,496,894.47,481.32Z"/><path class="cls-9" d="M216.34,744.45c1-2.61,221.51,9.21,281.07,1.84s142.11-2.76,170.32-43.24,102.4-138.93,102.4-138.93S854.77,451.88,914.32,428l20.9-10.13s11.5,8.29-47,60.73-103.44,103-119.12,127S720,688.33,707.44,715s-53.29,64.41-131.66,64.41S326.05,769.3,326.05,769.3s-103.44-3.68-106.58-6.44S215.29,747.21,216.34,744.45Z"/></svg>