<svg height="512pt" viewBox="0 0 512.00005 512" width="512pt" xmlns="http://www.w3.org/2000/svg"><path d="m488.820312 256c0 128.582031-104.238281 232.820312-232.820312 232.820312s-232.820312-104.238281-232.820312-232.820312 104.238281-232.820312 232.820312-232.820312 232.820312 104.238281 232.820312 232.820312zm0 0" fill="#4fc3f7"/><path d="m180.097656 101.910156c-4.371094-18.453125-22.441406-30.820312-41.574218-27.664062-1.523438.25-2.980469-.636719-3.46875-2.097656-4.855469-14.574219-18.597657-25.078126-34.792969-25.078126-18.5 0-33.796875 13.703126-36.308594 31.519532-.25 1.796875-2.019531 2.964844-3.78125 2.527344-15.238281-3.769532-31.070313 4.9375-35.914063 20.046874-.359374 1.128907-1.351562 1.9375-2.527343 2.09375-12.277344 1.628907-21.746094 12.152344-21.730469 24.882813.0195312 13.777344 11.914062 25.035156 25.6875 25.035156h165.058594c13.976562 0 25.769531-11.4375 25.589844-25.410156-.21875-17.015625-16.804688-28.417969-32.324219-23.664063-1.699219.523438-3.503907-.460937-3.914063-2.191406zm0 0" fill="#e1f5fe"/><path d="m184.011719 104.101562c-1.699219.523438-3.503907-.460937-3.914063-2.191406-4.371094-18.453125-22.441406-30.820312-41.574218-27.664062-1.523438.25-2.980469-.636719-3.46875-2.097656-4.855469-14.574219-18.597657-25.078126-34.792969-25.078126-5.523438 0-10.75 1.226563-15.445313 3.414063 9.074219 4.226563 16.132813 12.0625 19.332032 21.664063.488281 1.460937 1.945312 2.347656 3.46875 2.097656 19.132812-3.15625 37.203124 9.210937 41.574218 27.664062.410156 1.730469 2.214844 2.714844 3.914063 2.191406 15.519531-4.753906 32.105469 6.648438 32.324219 23.664063.179687 13.976563-11.613282 25.410156-25.589844 25.410156h30.90625c13.976562 0 25.769531-11.4375 25.589844-25.410156-.21875-17.015625-16.804688-28.417969-32.324219-23.664063zm0 0" fill="#b3e5fc"/><path d="m331.902344 167.09375c4.371094-18.453125 22.441406-30.820312 41.574218-27.664062 1.523438.253906 2.980469-.632813 3.46875-2.097657 4.855469-14.570312 18.597657-25.078125 34.792969-25.078125 18.5 0 33.796875 13.707032 36.308594 31.519532.25 1.796874 2.019531 2.964843 3.78125 2.53125 15.238281-3.773438 31.070313 4.933593 35.914063 20.042968.359374 1.132813 1.351562 1.9375 2.527343 2.09375 12.277344 1.628906 21.746094 12.152344 21.730469 24.886719-.019531 13.773437-11.921875 25.035156-25.695312 25.035156h-165.042969c-13.980469 0-25.777344-11.4375-25.597657-25.414062.21875-17.015625 16.804688-28.417969 32.324219-23.660157 1.699219.519532 3.503907-.464843 3.914063-2.195312zm0 0" fill="#e1f5fe"/><path d="m490.269531 168.441406c-1.175781-.15625-2.167969-.964844-2.527343-2.09375-4.84375-15.109375-20.675782-23.816406-35.914063-20.042968-1.761719.433593-3.53125-.734376-3.78125-2.53125-2.511719-17.8125-17.808594-31.519532-36.308594-31.519532-5.523437 0-10.761719 1.222656-15.460937 3.414063 11.042968 5.136719 19.101562 15.605469 20.863281 28.105469.25 1.796874 2.019531 2.964843 3.78125 2.53125 15.238281-3.773438 31.070313 4.933593 35.914063 20.042968.359374 1.128906 1.351562 1.9375 2.527343 2.09375 12.277344 1.628906 21.746094 12.152344 21.730469 24.882813-.019531 13.777343-11.921875 25.039062-25.695312 25.039062h30.90625c13.773437 0 25.675781-11.261719 25.695312-25.039062.015625-12.730469-9.453125-23.253907-21.730469-24.882813zm0 0" fill="#b3e5fc"/><path d="m373.957031 39.660156c0 21.90625-17.757812 39.664063-39.664062 39.664063-21.902344 0-39.660157-17.757813-39.660157-39.664063 0-21.902344 17.757813-39.660156 39.660157-39.660156 21.90625 0 39.664062 17.757812 39.664062 39.660156zm0 0" fill="#ffca28"/><path d="m334.292969 0c-5.480469 0-10.703125 1.113281-15.453125 3.121094 14.230468 6.027344 24.210937 20.117187 24.210937 36.539062 0 16.425782-9.984375 30.515625-24.210937 36.539063 4.75 2.011719 9.972656 3.125 15.453125 3.125 21.90625 0 39.664062-17.757813 39.664062-39.664063 0-21.902344-17.757812-39.660156-39.664062-39.660156zm0 0" fill="#ffb300"/><path d="m445.058594 512h-378.117188c-36.96875 0-66.941406-29.972656-66.941406-66.941406v-40.378906c0-3.3125 2.6875-6 6-6h500c3.3125 0 6 2.6875 6 6v40.378906c0 36.96875-29.972656 66.941406-66.941406 66.941406zm0 0" fill="#bdf9ff"/><path d="m481.09375 398.679688v46.378906c0 36.96875-29.96875 66.941406-66.941406 66.941406h30.90625c36.96875 0 66.941406-29.972656 66.941406-66.941406v-40.378906c0-3.3125-2.6875-6-6-6zm0 0" fill="#8cf2ff"/><g fill="#81d4fa"><path d="m124.960938 432.992188h-61.582032c-4.140625 0-7.5 3.359374-7.5 7.5 0 4.144531 3.359375 7.5 7.5 7.5h61.582032c4.140624 0 7.5-3.355469 7.5-7.5 0-4.140626-3.359376-7.5-7.5-7.5zm0 0"/><path d="m448.621094 432.992188h-74.910156c-4.144532 0-7.5 3.359374-7.5 7.5 0 4.144531 3.355468 7.5 7.5 7.5h74.910156c4.140625 0 7.5-3.355469 7.5-7.5 0-4.140626-3.359375-7.5-7.5-7.5zm0 0"/><path d="m272.800781 465.105469h-126.15625c-4.140625 0-7.5 3.359375-7.5 7.5 0 4.144531 3.359375 7.5 7.5 7.5h126.15625c4.140625 0 7.5-3.355469 7.5-7.5 0-4.140625-3.359375-7.5-7.5-7.5zm0 0"/><path d="m365.792969 465.105469h-37.074219c-4.140625 0-7.5 3.359375-7.5 7.5 0 4.144531 3.359375 7.5 7.5 7.5h37.074219c4.140625 0 7.5-3.355469 7.5-7.5 0-4.140625-3.359375-7.5-7.5-7.5zm0 0"/></g><path d="m264.742188 398.679688h-67.945313c-7.40625 0-13.414063-6.003907-13.414063-13.414063v-11.710937c0-3.191407 2.585938-5.78125 5.777344-5.78125h83.222656c3.1875 0 5.777344 2.589843 5.777344 5.78125v11.710937c0 7.410156-6.007812 13.414063-13.417968 13.414063zm0 0" fill="#d66724"/><path d="m274.96875 367.773438h-30c3.191406 0 5.777344 2.585937 5.777344 5.777343v11.714844c0 7.40625-6.003906 13.414063-13.414063 13.414063h30c7.410157 0 13.414063-6.003907 13.414063-13.414063v-11.714844c0-3.1875-2.585938-5.777343-5.777344-5.777343zm0 0" fill="#bf5c24"/><path d="m218.359375 367.773438 75.335937.046874c2.449219 0 3.867188-2.78125 2.425782-4.765624l-72.335938-99.582032c-1.707031-2.351562-5.425781-1.144531-5.425781 1.761719zm0 0" fill="#e1f5fe"/></svg>