<svg height="512" viewBox="0 0 64 64" width="512" xmlns="http://www.w3.org/2000/svg"><g id="River"><g fill="#6d4d42"><path d="m9 48a1 1 0 0 1 -1-1v-6a1 1 0 0 1 2 0v6a1 1 0 0 1 -1 1z"/><path d="m23 29a1 1 0 0 1 -1-1v-6a1 1 0 0 1 2 0v6a1 1 0 0 1 -1 1z"/><path d="m55 61a1 1 0 0 1 -1-1v-6a1 1 0 0 1 2 0v6a1 1 0 0 1 -1 1z"/><path d="m55 33a1 1 0 0 1 -1-1v-6a1 1 0 0 1 2 0v6a1 1 0 0 1 -1 1z"/></g><path d="m60 3h-14.001a.9861.9861 0 0 0 -.272.0381c-2.7314.7719-4.857 2.5976-6.9135 4.3633-.519.4463-1.0386.8926-1.5684 1.3223-6.4385 5.2197-8.2231 11.6786-5.1611 18.6763 1.8916 4.3242 2.2935 7.3623 1.228 9.2871-1.436 2.5947-5.7124 3.23-10.2393 3.9033a52.6615 52.6615 0 0 0 -7.36 1.4512c-10.4915 3.1479-12.6175 17.2191-12.7027 17.8168a1 1 0 0 0 .99 1.1416h41a1.0005 1.0005 0 0 0 .8066-.4082c.1133-.1553 11.2485-15.68 3.1069-33.998-2.1689-4.8809-2.3779-9.1865-.6211-12.7979 3.1886-6.5518 11.8639-8.8037 11.9513-8.8259a1 1 0 0 0 -.2437-1.97z" fill="#57c1ef"/><path d="m26 58a3.5659 3.5659 0 0 1 -2.708-1.293c-.4907-.49-.7314-.707-1.2939-.707s-.8037.2168-1.2944.707a3.4793 3.4793 0 0 1 -5.4131 0c-.4898-.4902-.7296-.707-1.2906-.707a1 1 0 0 1 0-2 3.5611 3.5611 0 0 1 2.7056 1.293c.4893.49.7295.707 1.29.707.5625 0 .8032-.2168 1.2939-.707a3.4828 3.4828 0 0 1 5.4165 0c.4907.49.7314.707 1.2939.707a1 1 0 0 1 0 2z" fill="#44b3e6"/><path d="m43 56a3.5659 3.5659 0 0 1 -2.708-1.293c-.4907-.49-.7314-.707-1.2939-.707s-.8037.2168-1.2944.707a3.4793 3.4793 0 0 1 -5.4131 0c-.4898-.4902-.7296-.707-1.2906-.707a1 1 0 0 1 0-2 3.5611 3.5611 0 0 1 2.7056 1.293c.4893.49.7295.707 1.29.707.5625 0 .8032-.2168 1.2939-.707a3.4828 3.4828 0 0 1 5.4165 0c.4907.49.7314.707 1.2939.707a1 1 0 0 1 0 2z" fill="#44b3e6"/><path d="m32 49a3.5659 3.5659 0 0 1 -2.708-1.293c-.4907-.49-.7314-.707-1.2939-.707s-.8037.2168-1.2944.707a3.4793 3.4793 0 0 1 -5.4131 0c-.4898-.4902-.7296-.707-1.2906-.707a1 1 0 0 1 0-2 3.5611 3.5611 0 0 1 2.7056 1.293c.4893.49.7295.707 1.29.707.5625 0 .8032-.2168 1.2939-.707a3.4828 3.4828 0 0 1 5.4165 0c.4907.49.7314.707 1.2939.707a1 1 0 0 1 0 2z" fill="#44b3e6"/><path d="m46 45a3.0469 3.0469 0 0 1 -2.4355-1.3594c-.4033-.4844-.562-.6406-.8994-.6406s-.4961.1563-.8994.6406a2.8592 2.8592 0 0 1 -4.8691-.001c-.4254-.5107-.5758-.6396-.8966-.6396a1 1 0 0 1 0-2 3.0409 3.0409 0 0 1 2.4336 1.36c.4253.5107.5752.64.896.64.3374 0 .4966-.1562.9-.6406a2.8615 2.8615 0 0 1 4.8711 0c.4033.4844.562.6406.8994.6406a1 1 0 0 1 0 2z" fill="#44b3e6"/><path d="m14.9644 36.5a1.002 1.002 0 0 0 0-1l-1.4439-2.5h.5776a1 1 0 0 0 .8662-1.5l-5.1963-9a1.04 1.04 0 0 0 -1.7324 0l-5.1963 9a1 1 0 0 0 .8663 1.5h.5776l-1.4438 2.5a1 1 0 0 0 .8662 1.5h.5776l-1.4438 2.5a1 1 0 0 0 .8662 1.5h10.3925a1 1 0 0 0 .8662-1.5l-1.4438-2.5h.5776a1 1 0 0 0 .8663-.5z" fill="#4daf4e"/><path d="m28.9644 17.5a1.002 1.002 0 0 0 0-1l-1.4439-2.5h.5776a1 1 0 0 0 .8662-1.5l-5.1963-9a1.04 1.04 0 0 0 -1.7324 0l-5.1963 9a1 1 0 0 0 .8662 1.5h.5776l-1.4438 2.5a1 1 0 0 0 .8662 1.5h.5776l-1.4438 2.5a1 1 0 0 0 .8662 1.5h10.3926a1 1 0 0 0 .8662-1.5l-1.4438-2.5h.5776a1 1 0 0 0 .8663-.5z" fill="#4daf4e"/><path d="m61.0706 49.3678a1.002 1.002 0 0 0 -.0216-1l-1.4975-2.4678.5775-.0125a1 1 0 0 0 .8336-1.5184l-5.39-8.8856a1.04 1.04 0 0 0 -1.732.0374l-5.0006 9.1101a1 1 0 0 0 .8984 1.4809l.5775-.0125-1.3891 2.5306a1 1 0 0 0 .8984 1.4809l.5775-.0125-1.3895 2.5306a1 1 0 0 0 .8984 1.4809l10.39-.2246a1 1 0 0 0 .8336-1.5184l-1.4975-2.4682.5775-.0125a1 1 0 0 0 .8554-.5184z" fill="#4daf4e"/><path d="m60.9644 21.5a1.002 1.002 0 0 0 0-1l-1.4439-2.5h.5776a1 1 0 0 0 .8662-1.5l-5.1963-9a1.04 1.04 0 0 0 -1.7324 0l-5.1963 9a1 1 0 0 0 .8662 1.5h.5776l-1.4438 2.5a1 1 0 0 0 .8662 1.5h.5776l-1.4438 2.5a1 1 0 0 0 .8662 1.5h10.3926a1 1 0 0 0 .8662-1.5l-1.4438-2.5h.5776a1 1 0 0 0 .8663-.5z" fill="#4daf4e"/><path d="m44 32.4a2.0822 2.0822 0 0 1 -1.5269-.68 1.4714 1.4714 0 0 0 -.1455-.13c-.0171.0156-.0859.082-.1362.1309a2.0542 2.0542 0 0 1 -3.0522-.001 1.4771 1.4771 0 0 0 -.145-.13.9956.9956 0 1 1 .0058-1.9899 2.0833 2.0833 0 0 1 1.5259.68 1.4771 1.4771 0 0 0 .145.13c.0161-.0156.0845-.082.1348-.13a2.0553 2.0553 0 0 1 3.0532-.001 1.4364 1.4364 0 0 0 .1455.1309.9956.9956 0 1 1 -.0044 1.9901z" fill="#44b3e6"/><path d="m42 24.4a2.0822 2.0822 0 0 1 -1.5269-.68 1.4714 1.4714 0 0 0 -.1455-.13c-.0171.0156-.0859.082-.1362.1309a2.0542 2.0542 0 0 1 -3.0522-.001 1.4771 1.4771 0 0 0 -.145-.13.9956.9956 0 1 1 .0058-1.9899 2.0833 2.0833 0 0 1 1.5259.68 1.4771 1.4771 0 0 0 .145.13c.0161-.0156.0845-.082.1348-.13a2.0553 2.0553 0 0 1 3.0532-.001 1.4364 1.4364 0 0 0 .1455.1309.9956.9956 0 1 1 -.0044 1.9901z" fill="#44b3e6"/><path d="m43 15.4a2.0822 2.0822 0 0 1 -1.5269-.68 1.4714 1.4714 0 0 0 -.1455-.13c-.0171.0156-.0859.082-.1362.1309a2.0542 2.0542 0 0 1 -3.0522-.001 1.4771 1.4771 0 0 0 -.145-.13.9956.9956 0 1 1 .0058-1.9899 2.0833 2.0833 0 0 1 1.5259.68 1.4771 1.4771 0 0 0 .145.13c.0161-.0156.0845-.082.1348-.13a2.0553 2.0553 0 0 1 3.0532-.001 1.4364 1.4364 0 0 0 .1455.1309.9956.9956 0 1 1 -.0044 1.9901z" fill="#44b3e6"/></g></svg>