<svg id="Layer_1" height="512" viewBox="0 0 64 64" width="512" xmlns="http://www.w3.org/2000/svg" data-name="Layer 1"><path d="m44.91 27.94-2 22.1a10.9553 10.9553 0 0 1 -21.82 0l-2-22.1a10.9417 10.9417 0 0 1 10.9-11.94h4.02a10.9417 10.9417 0 0 1 10.9 11.94z" fill="#e53a35"/><path d="m44.91 27.94-2 22.1a10.9636 10.9636 0 0 1 -10.91 9.96v-44h2.01a10.9417 10.9417 0 0 1 10.9 11.94z" fill="#d32e2e"/><path d="m40.9321 28.58c-.03 0-.06-.0015-.0913-.0039a1 1 0 0 1 -.9057-1.0864 5.95 5.95 0 0 0 -5.9258-6.4897 1 1 0 0 1 0-2 7.95 7.95 0 0 1 7.9179 8.67 1 1 0 0 1 -.9951.91z" fill="#ef5451"/><path d="m32 57a7.9123 7.9123 0 0 1 -7.918-7.231 1 1 0 0 1 1.9922-.1806 5.9216 5.9216 0 0 0 5.9258 5.4116 1 1 0 0 1 0 2z" fill="#e57373"/><path d="m51.729 31.9263a9.4871 9.4871 0 0 0 .2543-2.7138c-.3482-5.0998-4.328-9.2125-9.2733-9.2125h-.257a10.8856 10.8856 0 0 1 2.4614 7.9417l-2.009 22.0994a10.9434 10.9434 0 0 1 -6.1411 8.8622 8.7452 8.7452 0 0 0 7.2974.5449c4.2177-1.5728 6.5632-6.4182 5.7473-11.12l-.4047-2.3325a10.6821 10.6821 0 0 1 .1012-4.16z" fill="#d32e2e"/><path d="m27.24 58.9a8.8059 8.8059 0 0 1 -4.24 1.1 8.37 8.37 0 0 1 -1.67-.16 8.1767 8.1767 0 0 1 -1.39-.39c-4.22-1.57-6.56-6.42-5.75-11.12l.41-2.33a10.7845 10.7845 0 0 0 -.11-4.16l-2.22-9.91a9.238 9.238 0 0 1 -.25-2.72 10.0565 10.0565 0 0 1 4.4-7.74 8.8107 8.8107 0 0 1 4.87-1.47h.26a10.8635 10.8635 0 0 0 -2.46 7.94l2 22.1a10.9462 10.9462 0 0 0 6.15 8.86z" fill="#e53a35"/><path d="m27.24 58.9a8.8059 8.8059 0 0 1 -4.24 1.1 8.37 8.37 0 0 1 -1.67-.16 11.9492 11.9492 0 0 1 -3.95-11.26l.46-2.68a12.2587 12.2587 0 0 0 -.11-4.79l-2.56-11.39a11.0145 11.0145 0 0 1 -.29-3.13 11.92 11.92 0 0 1 1.54-5.12 8.8107 8.8107 0 0 1 4.87-1.47h.26a10.8635 10.8635 0 0 0 -2.46 7.94l2 22.1a10.9462 10.9462 0 0 0 6.15 8.86z" fill="#d32e2e"/><path d="m36.76 58.9a8.8059 8.8059 0 0 0 4.24 1.1 8.37 8.37 0 0 0 1.67-.16 11.9492 11.9492 0 0 0 3.95-11.26l-.46-2.68a12.2587 12.2587 0 0 1 .11-4.79l2.56-11.39a11.0145 11.0145 0 0 0 .29-3.13 11.92 11.92 0 0 0 -1.54-5.12 8.8107 8.8107 0 0 0 -4.87-1.47h-.26a10.8635 10.8635 0 0 1 2.46 7.94l-2 22.1a10.9462 10.9462 0 0 1 -6.15 8.86z" fill="#e53a35"/><path d="m37.98 16.76a10.87 10.87 0 0 0 -3.97-.76h-4.02a10.87 10.87 0 0 0 -3.97.76 5.977 5.977 0 0 1 3.98-5.41v-7.35h7l-1.79 2.99a8.4492 8.4492 0 0 0 -1.21 4.36 5.9914 5.9914 0 0 1 3.98 5.41z" fill="#317e3d"/><path d="m37.98 16.76a10.87 10.87 0 0 0 -3.97-.76h-2.01v-5.62a16.9272 16.9272 0 0 1 1.44-6.38h3.56l-1.79 2.99a8.4492 8.4492 0 0 0 -1.21 4.36 5.9914 5.9914 0 0 1 3.98 5.41z" fill="#1e5f30"/></svg>