<svg id="Layer_1" height="512" viewBox="0 0 64 64" width="512" xmlns="http://www.w3.org/2000/svg" data-name="Layer 1"><path d="m35.28 43.02c-16.98 16.98-31.28 16.98-31.28 16.98s0-6.7 5.44-16.38c.33-.58.68-1.18 1.05-1.78a69.1759 69.1759 0 0 1 8.05-10.58c.45-.48.9-.96 1.37-1.45.35-.36.7-.72 1.07-1.09 9.38-9.38 13.03-6.63 16.98-2.68s6.7 7.6-2.68 16.98z" fill="#edeff0"/><path d="m39.26 38.44q-.54.75-1.23 1.59c-.77.92-1.68 1.92-2.75 2.99a76.698 76.698 0 0 1 -6.81 6.07c-.54.43-1.07.84-1.6 1.23-13.04 9.68-22.87 9.68-22.87 9.68l33.96-33.96c3.23 3.23 5.66 6.26 1.3 12.4z" fill="#cfd8dc"/><path d="m39.26 38.44q-.54.75-1.23 1.59l-4.35-4.35a.997.997 0 0 1 1.41-1.41z" fill="#90a4ae"/><path d="m24.37 35.68a.982.982 0 0 1 -.71.29.96.96 0 0 1 -.7-.29l-4.42-4.42c.45-.48.9-.96 1.37-1.45l4.46 4.46a.9959.9959 0 0 1 0 1.41z" fill="#b0bec5"/><path d="m28.47 49.09c-.54.43-1.07.84-1.6 1.23l-3.91-3.91a1.0006 1.0006 0 0 1 1.41-1.42z" fill="#90a4ae"/><path d="m13.64 46.41a1.001 1.001 0 0 1 -.7.29 1.0243 1.0243 0 0 1 -.71-.29l-2.79-2.79c.33-.58.68-1.18 1.05-1.78l3.15 3.15a.99.99 0 0 1 0 1.42z" fill="#b0bec5"/><path d="m54.05 20.67a7.5413 7.5413 0 0 1 -3.5 1.99 7.5779 7.5779 0 1 1 -9.28 11.98c1.18-3.75-.82-6.12-3.31-8.6-2.48-2.49-4.85-4.49-8.6-3.31a7.579 7.579 0 1 1 11.98-9.28 7.5808 7.5808 0 1 1 12.71 7.22z" fill="#81c785"/><path d="m54.05 20.67a7.5413 7.5413 0 0 1 -3.5 1.99 7.5779 7.5779 0 1 1 -9.28 11.98c1.18-3.75-.82-6.12-3.31-8.6l16.09-16.09a7.5806 7.5806 0 0 1 0 10.72z" fill="#66bb6a"/><path d="m47.7939 31.5059a1 1 0 0 1 -.707-1.7071 1.53 1.53 0 0 0 0-2.1606 1 1 0 1 1 1.4141-1.4141 3.5315 3.5315 0 0 1 0 4.9888.9969.9969 0 0 1 -.7071.293z" fill="#a5d5a7"/><path d="m37.0688 17.2061a.9969.9969 0 0 1 -.707-.293 1.53 1.53 0 0 0 -2.1606 0 1 1 0 0 1 -1.4141-1.4141 3.53 3.53 0 0 1 4.9888 0 1 1 0 0 1 -.7071 1.7071z" fill="#c8e5c9"/><path d="m50.4756 14.5244a.9963.9963 0 0 1 -.707-.293 1.53 1.53 0 0 0 -2.1612 0 1 1 0 0 1 -1.414-1.414 3.531 3.531 0 0 1 4.9892 0 1 1 0 0 1 -.707 1.707z" fill="#c8e5c9"/><path d="m54.05 20.6747a7.5367 7.5367 0 0 1 -3.5 1.9815 7.4346 7.4346 0 0 1 3.016 5.5406 5.0374 5.0374 0 1 0 2.0583-9.8316 7.5493 7.5493 0 0 1 -1.5743 2.3095z" fill="#42a047"/><path d="m35.8032 10.4345a7.4334 7.4334 0 0 1 5.5405 3.016 7.52 7.52 0 0 1 4.2911-5.0743 5.0368 5.0368 0 1 0 -9.8316 2.0583z" fill="#66bb6a"/></svg>