<svg id="Layer_1" height="512" viewBox="0 0 64 64" width="512" xmlns="http://www.w3.org/2000/svg" data-name="Layer 1"><path d="m46.82 30.25c-.44 1.58.09 3.33-1 5.15-.86 1.44-2.99 2.46-4.3 4.05-1.09 1.33-.63 2.58-2.06 4.01-1.85 1.85-3.75 1.95-5.86 3.69-2.09 1.72-3.73 4.36-5.91 5.86-2.32 1.58-4.17 1.02-6.4 2.22-2.65 1.42-5.14 3.81-7.38 4.48-3.46 1.03-5.75-.92-7.22-2.4-1.48-1.47-3.43-3.76-2.4-7.22.67-2.24 3.06-4.73 4.48-7.37 1.19-2.24.64-4.09 2.22-6.4 1.49-2.19 4.14-3.83 5.86-5.91 1.73-2.12 1.84-4.02 3.69-5.87 1.43-1.42 2.68-.97 4-2.06 1.59-1.31 2.62-3.44 4.06-4.3 1.82-1.09 3.58-.56 5.15-1 2.05-.57 4.69-2.04 6.33-1.68a2.2724 2.2724 0 0 1 .97.54l.02-.01 3.45 3.45 3.45 3.45-.02.02a2.2252 2.2252 0 0 1 .55.98c.36 1.64-1.11 4.27-1.68 6.32z" fill="#81c785"/><path d="m46.82 30.25c-.44 1.58.09 3.33-1 5.15-.86 1.44-2.99 2.46-4.3 4.05-1.09 1.33-.63 2.58-2.06 4.01-1.85 1.85-3.75 1.95-5.86 3.69-2.09 1.72-3.73 4.36-5.91 5.86-2.32 1.58-4.17 1.02-6.4 2.22-2.65 1.42-5.14 3.81-7.38 4.48-3.46 1.03-5.75-.92-7.22-2.4l37.83-37.83 3.45 3.45-.02.02a2.2252 2.2252 0 0 1 .55.98c.36 1.64-1.11 4.27-1.68 6.32z" fill="#66bb6a"/><circle cx="32.484" cy="24.637" fill="#42a047" r="2.432"/><circle cx="34.203" cy="36.676" fill="#378e43" r="2.432"/><circle cx="17.866" cy="39.255" fill="#42a047" r="2.432"/><circle cx="11.85" cy="52.15" fill="#42a047" r="2.432"/><circle cx="41.082" cy="29.797" fill="#378e43" r="1"/><circle cx="25.605" cy="28.077" fill="#42a047" r="1"/><circle cx="23.885" cy="33.236" fill="#42a047" r="1"/><circle cx="25.605" cy="45.274" fill="#378e43" r="1"/><circle cx="16.146" cy="46.134" fill="#42a047" r="1"/><path d="m58.28 16.038-13.758 3.44 3.44 3.439 12.038-1.719z" fill="#378e43"/><path d="m42.802 4-1.72 12.038 3.44 3.44 3.44-13.758z" fill="#42a047"/><path d="m56.56 10.88-3.71 6.52-8.33 2.08 2.08-8.33 6.52-3.71 1.72 1.72z" fill="#378e43"/><path d="m56.56 10.88-3.71 6.52-8.33 2.08 10.32-10.32z" fill="#42a047"/><g fill="#378e43"><path d="m27.3242 41.1152a.9967.9967 0 0 1 -.707-.2929l-1.72-1.72a1 1 0 0 1 1.414-1.414l1.72 1.72a1 1 0 0 1 -.707 1.707z"/><path d="m23.0249 50.5737a.9966.9966 0 0 1 -.707-.2929l-1.72-1.72a1 1 0 1 1 1.4141-1.414l1.72 1.72a1 1 0 0 1 -.707 1.707z"/><path d="m41.9424 24.7773a.9966.9966 0 0 1 -.707-.2929l-1.72-1.72a1 1 0 0 1 1.4141-1.414l1.72 1.72a1 1 0 0 1 -.707 1.707z"/><path d="m13.57 53.87a2.4323 2.4323 0 0 1 -3.44 0l3.44-3.44a2.4323 2.4323 0 0 1 0 3.44z"/></g></svg>