<?xml version="1.0" encoding="UTF-8" standalone="no"?>
<!-- Created with Inkscape (http://www.inkscape.org/) -->

<svg
   width="210mm"
   height="297mm"
   viewBox="0 0 210 297"
   version="1.1"
   id="svg8129"
   inkscape:version="1.2 (1:1.2.1+202207142221+cd75a1ee6d)"
   sodipodi:docname="white.svg"
   xmlns:inkscape="http://www.inkscape.org/namespaces/inkscape"
   xmlns:sodipodi="http://sodipodi.sourceforge.net/DTD/sodipodi-0.dtd"
   xmlns="http://www.w3.org/2000/svg"
   xmlns:svg="http://www.w3.org/2000/svg">
  <sodipodi:namedview
     id="namedview8131"
     pagecolor="#ffffff"
     bordercolor="#000000"
     borderopacity="0.25"
     inkscape:showpageshadow="2"
     inkscape:pageopacity="0.0"
     inkscape:pagecheckerboard="0"
     inkscape:deskcolor="#d1d1d1"
     inkscape:document-units="mm"
     showgrid="false"
     inkscape:zoom="0.78127806"
     inkscape:cx="397.42573"
     inkscape:cy="497.90212"
     inkscape:window-width="1920"
     inkscape:window-height="1031"
     inkscape:window-x="0"
     inkscape:window-y="25"
     inkscape:window-maximized="1"
     inkscape:current-layer="layer1"
     showguides="true" />
  <defs
     id="defs8126" />
  <g
     inkscape:label="Layer 1"
     inkscape:groupmode="layer"
     id="layer1">
    <path
       d="m 64.348462,242.41757 c -0.211883,0.19394 -0.817259,0.13705 -1.791363,-0.15515 -0.976857,-0.29221 -2.025258,-0.70337 -3.142455,-1.22313 -1.122704,-0.52494 -2.162852,-1.07831 -3.128704,-1.66531 -0.960344,-0.587 -1.518943,-1.08091 -1.673035,-1.47396 -0.275173,-0.56114 -0.533833,-1.41448 -0.778742,-2.56003 -0.2449,-1.14555 -0.423757,-2.04286 -0.539332,-2.68674 -0.74847,0.35685 -1.59324,0.75766 -2.53158,1.19727 -0.938333,0.4396 -1.799616,0.75766 -2.594863,0.92316 -0.429264,0.0905 -1.17498,-0.0699 -2.228887,-0.46804 -1.051154,-0.39565 -2.124327,-0.87404 -3.219505,-1.43001 -1.092432,-0.55855 -2.058284,-1.12227 -2.886549,-1.69117 -0.833772,-0.56889 -1.230018,-0.98264 -1.207999,-1.23864 0.167851,-1.82046 0.657653,-4.03399 1.52995,-6.62763 0.869543,-2.59624 1.832641,-5.11231 2.881041,-7.55597 1.048409,-2.44108 2.063791,-4.5641 3.0489,-6.36646 0.979611,-1.79978 1.651031,-2.82379 2.017006,-3.07463 0.19537,-0.17325 0.698938,-0.1836 1.513444,-0.0362 0.811752,0.1474 1.703315,0.38789 2.671912,0.72405 0.965852,0.33358 1.895932,0.72146 2.79024,1.16365 0.894309,0.4396 1.521697,0.86628 1.876666,1.28002 0.332964,0.40081 0.0468,1.85149 -0.864037,4.34688 -0.90806,2.49797 -1.882172,5.15627 -2.919566,7.97747 0.506314,-0.16808 1.725327,-0.59217 3.659776,-1.26968 1.934456,-0.6775 3.131457,-0.92574 3.585487,-0.74473 0.410006,0.15774 0.806253,1.17658 1.191494,3.05135 0.382487,1.87477 0.621881,3.0229 0.720942,3.4444 1.74184,-2.47986 3.428643,-4.80199 5.057654,-6.96121 1.626265,-2.1618 2.710437,-3.23236 3.255276,-3.20909 0.53934,0.0233 1.252031,0.24566 2.138087,0.66716 0.883295,0.4215 1.741832,0.89989 2.575604,1.44034 0.833764,0.53787 1.551961,1.07573 2.149085,1.61359 0.602622,0.53787 0.888801,0.93351 0.864036,1.18693 0.01654,0.43702 -0.448531,1.55412 -1.39787,3.35907 -0.946585,1.80237 -2.13258,3.83229 -3.552461,6.08719 -1.425389,2.25231 -2.958092,4.49686 -4.598116,6.72331 -1.645524,2.22903 -3.101177,4.00812 -4.471536,5.25194"
       style="fill:#ffffff;fill-opacity:1;fill-rule:nonzero;stroke:none;stroke-width:0.0266751"
       id="path1046" />
    <path
       d="m 53.294831,232.3507 c 0.05226,0 0.09906,0.0103 0.148593,0.031 0.09081,0.044 0.154099,0.12671 0.170604,0.22239 0.115575,0.63871 0.294432,1.53343 0.53934,2.67639 0.236648,1.11193 0.489802,1.94976 0.751215,2.4928 0.08255,0.20946 0.382488,0.62837 1.557469,1.34466 0.938332,0.57407 1.981233,1.12745 3.095678,1.6498 1.108944,0.51718 2.151838,0.92316 3.098431,1.20503 1.180488,0.35685 1.436394,0.23531 1.469412,0.22238 1.312568,-1.25157 2.804,-3.00222 4.427512,-5.20281 1.620758,-2.198 3.164467,-4.45549 4.587102,-6.70521 1.447409,-2.30144 2.60863,-4.28741 3.53871,-6.0665 1.207999,-2.29369 1.375858,-2.99704 1.364844,-3.21168 0.0031,-0.0517 0.01654,-0.28186 -0.759468,-0.98005 -0.586117,-0.52494 -1.296062,-1.05763 -2.110568,-1.58256 -0.820012,-0.53011 -1.675788,-1.0085 -2.542578,-1.41966 -0.842024,-0.40081 -1.518951,-0.62578 -2.005999,-0.63354 -0.121082,-0.003 -0.784241,0.1655 -2.977358,3.07721 -1.612506,2.1437 -3.313067,4.48393 -5.046647,6.95605 -0.07426,0.10084 -0.222889,0.15256 -0.330203,0.13187 -0.129326,-0.0232 -0.228388,-0.11636 -0.255907,-0.23531 -0.09906,-0.4215 -0.338463,-1.57222 -0.723704,-3.45217 -0.53108,-2.57812 -0.952092,-2.80827 -0.996116,-2.82637 -0.176111,-0.075 -0.839279,-0.13189 -3.348839,0.74732 -1.939955,0.67751 -3.161721,1.10418 -3.665282,1.27225 -0.115575,0.0414 -0.247655,0.0103 -0.33571,-0.0698 -0.08806,-0.0827 -0.118321,-0.20687 -0.0798,-0.31547 1.040148,-2.82121 2.011499,-5.47951 2.919567,-7.97747 1.24377,-3.41596 0.979611,-3.98228 0.91632,-4.06244 -0.324704,-0.37495 -0.921827,-0.77835 -1.774858,-1.19726 -0.880549,-0.43444 -1.805122,-0.81973 -2.751715,-1.14814 -0.946585,-0.32841 -1.829888,-0.56631 -2.622381,-0.71112 -1.037395,-0.18877 -1.227265,-0.0414 -1.227265,-0.0414 -0.214629,0.14998 -0.707192,0.70336 -1.953715,2.99446 -0.971358,1.77909 -1.989486,3.90987 -3.035141,6.3406 -1.056661,2.4566 -2.022512,4.99077 -2.872789,7.53529 -0.858538,2.56003 -1.367598,4.76579 -1.51619,6.5604 0,0 0.04126,0.25859 1.073166,0.96712 0.817259,0.55855 1.777603,1.12227 2.853522,1.6679 1.089679,0.55597 2.162853,1.03177 3.18924,1.41707 1.227266,0.46546 1.791363,0.49908 2.036264,0.45253 0.762229,-0.16809 1.609753,-0.47064 2.520574,-0.89731 0.935579,-0.43959 1.780357,-0.84041 2.528827,-1.19467 0.0468,-0.0233 0.09631,-0.0336 0.145839,-0.0336 z m 11.053631,10.06687 z m -0.437517,0.41374 c -0.357722,0 -0.831019,-0.0931 -1.452908,-0.27928 -0.974104,-0.2922 -2.047277,-0.70853 -3.189232,-1.24122 -1.136464,-0.53011 -2.198624,-1.09642 -3.158968,-1.68342 -1.031896,-0.62837 -1.620759,-1.15847 -1.802377,-1.62393 -0.275173,-0.56114 -0.544839,-1.44552 -0.78974,-2.60399 -0.198124,-0.92576 -0.352223,-1.68859 -0.465036,-2.28852 -0.652162,0.30772 -1.364852,0.64648 -2.14634,1.01108 -0.952092,0.44736 -1.849154,0.76801 -2.666413,0.94644 -0.503561,0.10085 -1.296054,-0.0543 -2.418758,-0.48098 -1.045647,-0.39305 -2.143578,-0.8792 -3.255277,-1.44551 -1.103438,-0.56114 -2.083041,-1.13779 -2.925065,-1.71186 -0.974112,-0.66974 -1.375858,-1.12227 -1.337333,-1.51016 0.151338,-1.83598 0.668666,-4.08829 1.543709,-6.69228 0.855784,-2.55745 1.827134,-5.10713 2.886548,-7.57924 1.053907,-2.44625 2.083049,-4.59513 3.059907,-6.38974 1.351092,-2.47728 1.854653,-3.00221 2.121565,-3.18323 0.250408,-0.22755 0.800754,-0.26376 1.758345,-0.0905 0.828265,0.15256 1.744594,0.39822 2.724197,0.73698 0.974112,0.33875 1.92345,0.73697 2.828765,1.18175 0.943839,0.46287 1.59324,0.90764 1.97848,1.35759 0.305446,0.3672 0.445778,1.20244 -0.806253,4.63909 -0.84477,2.31695 -1.744585,4.77614 -2.699431,7.37236 0.652162,-0.22238 1.656538,-0.57406 3.018636,-1.04986 2.677412,-0.93868 3.442394,-0.88955 3.827627,-0.73957 0.376988,0.1474 0.842024,0.65164 1.381365,3.27115 0.247654,1.21537 0.434771,2.12302 0.561352,2.72553 1.593239,-2.24973 3.147954,-4.38826 4.633879,-6.35871 2.184865,-2.90395 3.004877,-3.33579 3.497432,-3.33579 h 0.0358 c 0.588871,0.0232 1.331833,0.25083 2.270166,0.69819 0.891555,0.42667 1.769351,0.91799 2.611375,1.46102 0.844778,0.54305 1.582234,1.09642 2.190364,1.64463 0.704437,0.63096 1.001622,1.07315 0.960352,1.43776 0.01654,0.27151 -0.118328,0.97747 -1.428142,3.4625 -0.938333,1.79461 -2.105061,3.79092 -3.566221,6.10787 -1.428142,2.26266 -2.980111,4.53049 -4.609122,6.74142 -1.648277,2.23421 -3.139702,4.0495 -4.51556,5.29849 -0.143093,0.1293 -0.363228,0.19394 -0.65766,0.19394"
       style="fill:#cecdcc;fill-opacity:1;fill-rule:nonzero;stroke:none;stroke-width:0.0266751"
       id="path1048" />
    <path
       d="m 88.087497,248.3858 c -0.316444,0.4215 -1.538202,0.52235 -3.668029,0.30255 -2.129826,-0.2198 -3.610252,-0.587 -4.441271,-1.11193 -0.371481,-0.2379 -0.553091,-1.49982 -0.550338,-3.79092 0.0031,-2.28851 0.101815,-4.84337 0.297185,-7.66199 0.19537,-2.81861 0.443024,-5.52605 0.740209,-8.11969 0.297185,-2.59106 0.555846,-4.31844 0.781488,-5.17178 0.19537,-0.70336 0.919074,-1.15331 2.165598,-1.34725 1.249277,-0.19653 2.581111,-0.20687 3.998239,-0.0362 1.414382,0.17325 2.691178,0.48873 3.827634,0.94902 1.136456,0.46029 1.692302,0.9904 1.667536,1.58774 -0.0578,1.01108 -0.173358,2.20576 -0.335702,3.57887 -0.167859,1.37828 -0.365982,2.82379 -0.599877,4.33912 1.067667,0.11119 2.182111,0.24566 3.346086,0.39823 0.206375,-1.50758 0.429264,-2.9324 0.665913,-4.27189 0.233894,-1.33949 0.473296,-2.49797 0.718197,-3.47026 0.143085,-0.59217 0.820012,-0.94127 2.04177,-1.05246 1.221759,-0.10861 2.531585,-0.0388 3.934945,0.20945 1.40338,0.24825 2.67467,0.64907 3.81663,1.19728 1.13646,0.55337 1.70332,1.19467 1.69231,1.92648 -0.0247,0.88437 -0.27242,2.61175 -0.74296,5.17695 -0.4733,2.56779 -1.0264,5.23126 -1.65654,7.9904 -0.63564,2.75915 -1.28229,5.22867 -1.94546,7.41116 -0.66041,2.18508 -1.19424,3.33839 -1.59875,3.45475 -0.94108,0.27152 -2.460027,0.19653 -4.559581,-0.21463 -2.096808,-0.40598 -3.238771,-0.85593 -3.420382,-1.35242 -0.159598,-0.27669 -0.236648,-1.01884 -0.231141,-2.22904 0,-1.20502 0.06607,-2.66605 0.192617,-4.37791 -0.720951,0.0259 -1.447401,0.031 -2.179358,0.0232 -0.737463,-0.0103 -1.452907,-0.0259 -2.151838,-0.0491 -0.363229,1.5205 -0.704438,2.79792 -1.023643,3.83228 -0.316443,1.03435 -0.577857,1.66015 -0.781487,1.87994"
       style="fill:#ffffff;fill-opacity:1;fill-rule:nonzero;stroke:none;stroke-width:0.0266751"
       id="path1050" />
    <path
       d="m 94.221069,242.39688 c 0.08806,0 0.176111,0.0336 0.236648,0.0931 0.06326,0.0621 0.09631,0.1474 0.09081,0.23273 -0.129334,1.70669 -0.195369,3.17289 -0.195369,4.35464 -0.0083,1.56705 0.134833,1.97821 0.195369,2.08423 0.07153,0.18101 0.445778,0.66716 3.202993,1.19985 2.028011,0.39823 3.50568,0.47063 4.39449,0.2198 0.0715,-0.031 0.50631,-0.34392 1.38411,-3.24529 0.65766,-2.15663 1.29055,-4.57703 1.93721,-7.39306 0.63564,-2.76173 1.19149,-5.44588 1.65653,-7.97747 0.46779,-2.53417 0.71545,-4.26154 0.73746,-5.13299 0.008,-0.59993 -0.50082,-1.15331 -1.5162,-1.64721 -1.11169,-0.53528 -2.36372,-0.93092 -3.72857,-1.17141 -1.3676,-0.24307 -2.666407,-0.3103 -3.844141,-0.20429 -1.059414,0.0957 -1.651031,0.36979 -1.758345,0.81456 -0.242155,0.9723 -0.481549,2.13336 -0.712698,3.45475 -0.236649,1.33173 -0.459537,2.76431 -0.665913,4.26154 -0.0083,0.0802 -0.05507,0.15257 -0.123828,0.2017 -0.0688,0.0491 -0.154099,0.0699 -0.242147,0.0594 -1.161229,-0.14998 -2.270166,-0.28445 -3.335079,-0.39823 -0.08806,-0.008 -0.167859,-0.0517 -0.220136,-0.11636 -0.05507,-0.0647 -0.07706,-0.1474 -0.06607,-0.23015 0.231141,-1.48171 0.432018,-2.93757 0.602623,-4.32619 0.159598,-1.36017 0.272419,-2.56003 0.330211,-3.56335 0.02753,-0.56114 -0.786995,-1.01367 -1.472174,-1.29036 -1.100685,-0.44736 -2.358214,-0.75767 -3.742325,-0.92576 -1.367605,-0.16807 -2.682926,-0.15773 -3.899177,0.031 -1.106191,0.17325 -1.750092,0.55338 -1.909691,1.12745 -0.214636,0.81972 -0.46779,2.49797 -0.773235,5.12781 -0.297185,2.59624 -0.544839,5.32436 -0.737456,8.10677 -0.19537,2.79793 -0.294431,5.37089 -0.297185,7.64131 0,3.08755 0.341209,3.49095 0.410006,3.54008 0.781488,0.48873 2.228888,0.84817 4.295424,1.06022 2.792986,0.28961 3.282796,-0.0594 3.368098,-0.17326 0.07707,-0.0853 0.324704,-0.45512 0.737456,-1.79202 0.32195,-1.06022 0.665913,-2.34282 1.018136,-3.81161 0.03026,-0.14222 0.184364,-0.26117 0.324704,-0.23789 0.696185,0.0207 1.408875,0.0388 2.140832,0.0465 0.737456,0.0129 1.458406,-0.0103 2.176604,-0.0207 z m 6.628881,8.93942 c -0.86679,0 -1.93721,-0.12671 -3.230511,-0.38012 -2.949839,-0.5689 -3.508438,-1.12745 -3.662529,-1.55154 -0.09906,-0.16291 -0.258668,-0.63612 -0.250408,-2.3273 0,-1.1171 0.0578,-2.48504 0.173358,-4.06243 -0.610883,0.0129 -1.227265,0.0207 -1.843647,0.0103 -0.641156,-0.008 -1.268544,-0.0207 -1.884926,-0.0388 -0.33571,1.37827 -0.660414,2.58847 -0.971358,3.60214 -0.432018,1.4119 -0.685172,1.8127 -0.836518,1.98596 -0.277926,0.35944 -0.99337,0.72405 -3.956968,0.41374 -2.206869,-0.22497 -3.706553,-0.60509 -4.587103,-1.16106 -0.346716,-0.2198 -0.696185,-0.87144 -0.696185,-4.04175 0.0031,-2.28334 0.101815,-4.86923 0.297185,-7.68268 0.192617,-2.78758 0.443024,-5.52604 0.742963,-8.13003 0.308191,-2.6583 0.564098,-4.3624 0.78974,-5.21315 0.231149,-0.83266 1.048408,-1.36018 2.427011,-1.57481 1.276796,-0.20171 2.655408,-0.21205 4.091802,-0.0388 1.441894,0.17843 2.757215,0.50425 3.912937,0.9723 1.268536,0.51459 1.895931,1.14813 1.862906,1.87994 -0.0578,1.01625 -0.173358,2.22904 -0.335702,3.60215 -0.156853,1.29811 -0.343971,2.65571 -0.5531,4.03657 0.86679,0.0931 1.766605,0.2017 2.699431,0.32065 0.19537,-1.3938 0.404507,-2.7307 0.624642,-3.97969 0.233895,-1.33173 0.476043,-2.50572 0.720951,-3.48836 0.173358,-0.72922 0.957591,-1.16106 2.32795,-1.28519 1.235518,-0.11378 2.597619,-0.0413 4.025749,0.21204 1.42264,0.25342 2.73521,0.66458 3.90193,1.2283 1.25203,0.60768 1.88217,1.34725 1.86842,2.19801 -0.022,0.90506 -0.27517,2.66347 -0.74847,5.22608 -0.46503,2.53935 -1.02363,5.23384 -1.65928,8.00074 -0.64941,2.83155 -1.2878,5.26229 -1.94822,7.43185 -0.91356,3.01773 -1.41162,3.54267 -1.81612,3.66162 -0.4045,0.11637 -0.89981,0.17326 -1.48593,0.17326"
       style="fill:#cecdcc;fill-opacity:1;fill-rule:nonzero;stroke:none;stroke-width:0.0266751"
       id="path1052" />
    <path
       d="m 123.63138,250.61743 c -0.26141,0.47321 -1.58223,0.75766 -3.95696,0.84558 -2.37473,0.0879 -4.05603,-0.0594 -5.03838,-0.45512 -0.44304,-0.17584 -0.85854,-1.39896 -1.24928,-3.66679 -0.3935,-2.26524 -0.72921,-4.80975 -1.00438,-7.63355 -0.28068,-2.82379 -0.48155,-5.54673 -0.60537,-8.16365 -0.12934,-2.61692 -0.13485,-4.36239 -0.0193,-5.2416 0.0881,-0.72146 0.798,-1.26967 2.12982,-1.64721 1.33184,-0.37237 2.79024,-0.57924 4.37523,-0.62061 1.58499,-0.0413 3.03789,0.0802 4.35596,0.36461 1.32082,0.28444 2.01701,0.72922 2.09405,1.33432 0.20088,1.70927 0.3137,3.89952 0.33021,6.56816 0.022,2.67122 -0.0275,5.30624 -0.14033,7.90248 -0.11558,2.59881 -0.28618,4.89509 -0.51458,6.88881 -0.22564,1.99371 -0.47879,3.16772 -0.75672,3.52457"
       style="fill:#ffffff;fill-opacity:1;fill-rule:nonzero;stroke:none;stroke-width:0.0266751"
       id="path1054" />
    <path
       d="m 118.85716,224.32927 c -0.19262,0 -0.39074,0.005 -0.58336,0.008 -1.54922,0.0413 -2.99386,0.24566 -4.29267,0.61027 -1.1915,0.33358 -1.8299,0.80422 -1.90419,1.39121 -0.11007,0.86628 -0.10181,2.61434 0.0247,5.19247 0.12382,2.6014 0.3247,5.34245 0.60263,8.14814 0.27242,2.77983 0.60813,5.34245 0.99887,7.61544 0.54484,3.14444 1.00987,3.41596 1.0594,3.43406 0.93559,0.37496 2.56735,0.51459 4.89806,0.42926 3.1342,-0.11637 3.613,-0.55079 3.68454,-0.68009 l 0.0275,-0.0388 c 0.13483,-0.17585 0.40451,-0.84818 0.69618,-3.37718 0.2284,-1.99113 0.399,-4.30292 0.50907,-6.8707 0.11558,-2.59624 0.16235,-5.25195 0.14309,-7.88696 -0.0193,-2.6402 -0.12933,-4.84079 -0.33021,-6.53714 -0.0715,-0.57148 -1.0429,-0.89988 -1.84364,-1.07056 -1.1227,-0.24307 -2.36097,-0.36719 -3.69005,-0.36719 z m -0.45678,27.46215 c -1.7611,0 -3.04065,-0.1655 -3.89093,-0.50166 -0.40725,-0.16808 -0.90256,-0.75767 -1.4419,-3.89953 -0.39624,-2.28592 -0.7347,-4.86147 -1.00437,-7.65682 -0.28068,-2.81344 -0.4843,-5.56225 -0.60812,-8.17658 -0.12934,-2.61175 -0.13485,-4.39084 -0.0193,-5.29073 0.10456,-0.84817 0.89706,-1.48947 2.35822,-1.90063 1.35384,-0.38013 2.85627,-0.59216 4.45777,-0.63613 1.61801,-0.0388 3.10118,0.0853 4.44127,0.37496 1.48042,0.31806 2.24815,0.84041 2.34171,1.5929 0.20363,1.71962 0.31369,3.9409 0.33295,6.60178 0.0193,2.64795 -0.0275,5.31142 -0.14308,7.92058 -0.11282,2.57814 -0.28343,4.90285 -0.51458,6.90433 -0.30544,2.68932 -0.60262,3.38493 -0.8035,3.65386 -0.23665,0.39823 -0.95209,0.86628 -4.21837,0.98781 -0.45679,0.0181 -0.8833,0.0259 -1.2878,0.0259"
       style="fill:#cecdcc;fill-opacity:1;fill-rule:nonzero;stroke:none;stroke-width:0.0266751"
       id="path1056" />
    <path
       d="m 153.01968,246.30416 c -0.0771,0.26117 -0.47879,0.54821 -1.20524,0.85852 -0.72371,0.3103 -1.55748,0.58958 -2.50131,0.84041 -0.94109,0.25083 -1.88768,0.44736 -2.83977,0.58958 -0.94935,0.14223 -1.68956,0.16808 -2.22064,0.0802 -0.55584,-0.0931 -1.44189,-1.68859 -2.6609,-4.78907 -1.21351,-3.0979 -2.34721,-6.25786 -3.39287,-9.4747 -1.82713,0.37495 -3.41487,0.64388 -4.76321,0.79386 -1.35384,0.15516 -2.12708,0.10344 -2.33621,-0.13964 -0.33845,-0.39046 -0.72369,-1.04728 -1.1337,-1.98596 -0.41,-0.93867 -0.77048,-1.91355 -1.07867,-2.92205 -0.3137,-1.01108 -0.53934,-1.93425 -0.68518,-2.77466 -0.14309,-0.84041 -0.11007,-1.34983 0.10732,-1.53344 0.28343,-0.3465 1.43364,-0.83265 3.4424,-1.45843 2.00874,-0.62579 4.33669,-1.26968 6.98659,-1.93943 2.6444,-0.66457 5.34933,-1.29552 8.10655,-1.89028 2.75721,-0.59216 5.03288,-1.03953 6.827,-1.3369 0.70994,-0.1112 1.33458,0.34651 1.87116,1.37052 0.53659,1.0266 0.93008,2.19283 1.18874,3.50129 0.25867,1.30847 0.35223,2.54452 0.28068,3.70817 -0.0743,1.16365 -0.35497,1.82305 -0.85028,1.97045 -0.44853,0.17584 -1.17773,0.41116 -2.19311,0.70853 -1.01538,0.29738 -2.16285,0.61286 -3.43965,0.95161 0.798,3.2608 1.47217,6.42593 2.02251,9.4928 0.5531,3.06686 0.70995,4.85889 0.46779,5.37865"
       style="fill:#ffffff;fill-opacity:1;fill-rule:nonzero;stroke:none;stroke-width:0.0266751"
       id="path1058" />
    <path
       d="m 138.19895,234.10393 c 0.14034,0 0.26692,0.0853 0.30819,0.21463 1.04015,3.20133 2.18212,6.38456 3.39011,9.45919 1.67029,4.25637 2.30319,4.57702 2.41326,4.59512 0.48981,0.0828 1.20525,0.0569 2.11332,-0.0802 0.93008,-0.13964 1.87116,-0.33616 2.80124,-0.58182 0.93008,-0.24566 1.7556,-0.52494 2.45453,-0.8249 0.90806,-0.3853 1.01538,-0.61803 1.02914,-0.662 l 0.0137,-0.0413 c 0.12382,-0.25859 0.21739,-1.28001 -0.48981,-5.20798 -0.54759,-3.04877 -1.22726,-6.23458 -2.01975,-9.4747 -0.0385,-0.15774 0.0633,-0.31548 0.22838,-0.35943 1.27405,-0.33876 2.41876,-0.65424 3.43139,-0.95162 0.99062,-0.28703 1.71708,-0.52235 2.1656,-0.6956 0.22014,-0.0698 0.56686,-0.36719 0.64941,-1.70669 0.0688,-1.1352 -0.022,-2.35833 -0.27518,-3.63576 -0.2504,-1.27743 -0.64114,-2.42815 -1.16122,-3.42372 -0.69618,-1.33432 -1.32908,-1.23864 -1.5272,-1.20502 -1.76109,0.29221 -4.05052,0.73956 -6.80774,1.33432 -2.69668,0.57923 -5.42087,1.21278 -8.09554,1.88511 -2.65541,0.66975 -4.99711,1.32139 -6.96458,1.93683 -2.54534,0.79129 -3.15347,1.18952 -3.29105,1.35501 -0.0468,0.0465 -0.2284,0.21463 -0.0441,1.29812 0.14309,0.81972 0.36873,1.7403 0.67417,2.73846 0.30544,0.99297 0.66591,1.96527 1.06767,2.89102 0.399,0.90764 0.76222,1.54895 1.08142,1.90838 0,0 0.26967,0.23791 2.05003,0.0336 1.32082,-0.14739 2.87003,-0.40598 4.73569,-0.79128 z m 6.76096,14.92318 c -0.28617,0 -0.53658,-0.0181 -0.76222,-0.0543 -0.50632,-0.0853 -1.24377,-0.74215 -2.90857,-4.98559 -1.17772,-2.99964 -2.29217,-6.10012 -3.31305,-9.22387 -1.7556,0.35685 -3.23051,0.59993 -4.5018,0.74214 -1.94546,0.22239 -2.41876,-0.003 -2.63064,-0.25341 -0.36323,-0.4034 -0.75122,-1.0809 -1.17498,-2.06096 -0.41552,-0.94385 -0.78149,-1.93941 -1.09519,-2.95049 -0.31094,-1.02402 -0.54484,-1.96787 -0.68792,-2.81087 -0.17061,-0.98522 -0.10733,-1.54377 0.20637,-1.80753 0.17336,-0.21722 0.77324,-0.65423 3.56072,-1.52051 1.97848,-0.61803 4.33395,-1.27225 7.00035,-1.94459 2.68293,-0.67492 5.41263,-1.31104 8.11756,-1.89287 2.76822,-0.59734 5.06866,-1.04728 6.84351,-1.33949 0.86129,-0.13188 1.61526,0.37754 2.21789,1.53343 0.54759,1.04729 0.95484,2.24973 1.21901,3.58146 0.25866,1.32657 0.35497,2.59882 0.28342,3.78057 -0.0826,1.31622 -0.43201,2.05062 -1.07592,2.24197 -0.43752,0.17325 -1.18599,0.41374 -2.19311,0.70853 -0.94109,0.27411 -1.9895,0.56632 -3.15347,0.87403 0.76498,3.15479 1.42539,6.25785 1.95922,9.22904 0.74296,4.13484 0.61914,5.14851 0.45404,5.53381 -0.11558,0.35426 -0.55585,0.68267 -1.37586,1.03177 -0.73196,0.31289 -1.58774,0.59992 -2.54809,0.85593 -0.95209,0.25342 -1.92069,0.45253 -2.87829,0.59734 -0.60263,0.0905 -1.11995,0.13447 -1.56298,0.13447"
       style="fill:#cecdcc;fill-opacity:1;fill-rule:nonzero;stroke:none;stroke-width:0.0266751"
       id="path1060" />
    <path
       d="m 177.2953,227.04962 c 1.9097,-1.04469 3.61576,-2.02216 5.11269,-2.92981 1.49968,-0.90764 2.47104,-1.29294 2.91406,-1.16365 0.43202,0.0724 1.24377,0.94127 2.43527,2.61175 1.18874,1.67049 1.90969,2.96343 2.12982,3.87883 0.0963,0.38789 -0.60537,1.1197 -2.0913,2.19801 -1.48317,1.07573 -3.20574,2.18766 -5.17046,3.33838 -1.96473,1.14814 -3.88268,2.18767 -5.75934,3.11859 -1.87667,0.9335 -3.16448,1.42482 -3.86066,1.50499 -0.4045,0.0465 -1.18048,-0.63613 -2.3252,-2.06613 -1.14471,-1.42741 -2.40224,-3.14444 -3.77259,-5.15109 -1.36761,-2.00407 -2.71595,-4.07795 -4.03401,-6.22165 -1.32083,-2.13853 -2.35547,-3.9047 -3.10394,-5.29074 -0.44853,-0.74215 -0.7925,-1.45585 -1.0319,-2.14111 -0.23939,-0.68268 -0.26691,-1.17658 -0.088,-1.47655 0.18161,-0.30255 1.06766,-0.9516 2.65816,-1.94975 1.59049,-0.99558 3.33782,-2.01959 5.24476,-3.06945 1.90694,-1.04988 3.70656,-1.96787 5.39612,-2.75139 1.68954,-0.78353 2.72144,-1.12745 3.10117,-1.02919 0.43477,0.0672 1.14197,0.87403 2.12433,2.41781 0.98236,1.54378 1.59875,2.77725 1.82989,3.703 0.10731,0.43442 -0.53108,1.07572 -1.89869,1.91873 -1.37035,0.84817 -2.98835,1.80753 -4.85127,2.88068 0.0743,0.12412 0.16785,0.26634 0.28068,0.42408 0.10732,0.16033 0.20638,0.29997 0.29168,0.41892 1.25478,-0.6413 2.31695,-1.09125 3.19199,-1.35242 0.21739,-0.0465 0.58612,0.16291 1.10894,0.62578 0.52008,0.46805 1.01813,1.01367 1.48867,1.64204 0.47605,0.62578 0.84203,1.2464 1.10895,1.85667 0.26416,0.60768 0.25591,1.01367 -0.0247,1.21796 -0.18436,0.17842 -0.54759,0.44477 -1.09794,0.79903 -0.54758,0.35169 -1.16672,0.72922 -1.86015,1.12487 0.0825,0.13446 0.47604,0.78869 0.55309,0.91281"
       style="fill:#ffffff;fill-opacity:1;fill-rule:nonzero;stroke:none;stroke-width:0.0266751"
       id="path1062" />
    <path
       d="m 174.89581,208.74929 c -0.2449,0 -0.91357,0.13446 -2.804,1.01366 -1.68405,0.78094 -3.49192,1.70152 -5.37409,2.73846 -1.89594,1.0447 -3.65703,2.07647 -5.23101,3.06169 -2.09405,1.31105 -2.4848,1.72738 -2.55634,1.84374 -0.0715,0.12671 -0.15685,0.45253 0.11832,1.23605 0.22564,0.65682 0.56135,1.3576 0.99887,2.08423 0.75397,1.3938 1.79962,3.17031 3.10669,5.28815 1.29605,2.11009 2.65265,4.19948 4.02576,6.2113 1.36485,1.99632 2.62788,3.72369 3.75883,5.133 1.50244,1.8696 1.95647,1.94717 2.01976,1.94717 0.45954,-0.0465 1.47767,-0.34134 3.75885,-1.47137 1.83538,-0.91282 3.76434,-1.9601 5.73731,-3.11082 1.96198,-1.14814 3.69281,-2.26525 5.14296,-3.32029 2.03076,-1.47395 1.97573,-1.89286 1.97573,-1.89286 -0.22014,-0.86628 -0.92182,-2.13854 -2.08304,-3.77541 -1.58499,-2.22127 -2.10507,-2.45918 -2.22339,-2.47987 -0.16236,-0.0413 -0.71269,-0.0724 -2.68292,1.1197 -1.47767,0.89471 -3.20299,1.88252 -5.1292,2.93498 -0.0715,0.044 -0.16235,0.0543 -0.2449,0.031 -0.0825,-0.0181 -0.1541,-0.0724 -0.19537,-0.14223 l -0.55034,-0.91281 c -0.0853,-0.14223 -0.0385,-0.32324 0.11006,-0.40857 0.66592,-0.38013 1.28505,-0.75508 1.8464,-1.11711 0.53108,-0.34392 0.88055,-0.59993 1.04291,-0.75766 0.24214,-0.18102 0.0523,-0.68526 -0.0385,-0.89472 -0.2559,-0.58959 -0.61638,-1.1921 -1.07316,-1.7972 -0.45129,-0.59992 -0.93834,-1.13779 -1.4474,-1.59549 -0.60813,-0.53787 -0.82277,-0.54821 -0.82277,-0.54821 -0.82277,0.24825 -1.87667,0.69302 -3.10118,1.32139 -0.14309,0.0699 -0.3247,0.0336 -0.42102,-0.0957 -0.0853,-0.11895 -0.18711,-0.26118 -0.29718,-0.42409 -0.11832,-0.16291 -0.21188,-0.3103 -0.28893,-0.44218 -0.0825,-0.14222 -0.033,-0.32065 0.11283,-0.40599 1.86015,-1.07314 3.48917,-2.04026 4.84301,-2.87551 1.77485,-1.09383 1.77485,-1.52567 1.75835,-1.60066 -0.2284,-0.88955 -0.83377,-2.10491 -1.79137,-3.61249 -1.2933,-2.0351 -1.78036,-2.2549 -1.89868,-2.27299 0,0 -0.0551,-0.0103 -0.10182,-0.0103 z m -1.94821,31.16514 c -0.39074,0 -1.0319,-0.32841 -2.52608,-2.19025 -1.13921,-1.41965 -2.4105,-3.15996 -3.78635,-5.1692 -1.37861,-2.02216 -2.73796,-4.11673 -4.04227,-6.23457 -1.31257,-2.12819 -2.36097,-3.91504 -3.1122,-5.30625 -0.45403,-0.74991 -0.80624,-1.48689 -1.0484,-2.18249 -0.26966,-0.77577 -0.29443,-1.3395 -0.0605,-1.72221 0.14308,-0.24048 0.58886,-0.69301 2.75721,-2.05061 1.58224,-0.99298 3.35435,-2.02992 5.26128,-3.08238 1.89593,-1.04211 3.71756,-1.97044 5.41262,-2.75914 2.33621,-1.08607 3.01313,-1.13004 3.33232,-1.04987 0.34122,0.0517 0.94384,0.39564 2.31695,2.55486 0.99061,1.55929 1.61801,2.83155 1.86291,3.78574 0.14309,0.59992 -0.4843,1.29036 -2.03352,2.24455 -1.29055,0.79904 -2.83426,1.71703 -4.58711,2.7307 0.033,0.0491 0.0688,0.10085 0.10732,0.15257 0.0468,0.0672 0.0881,0.12929 0.12933,0.18877 1.15022,-0.57666 2.15735,-0.99557 2.98836,-1.24381 0.38249,-0.0879 0.7925,0.12929 1.4309,0.6956 0.53933,0.48615 1.05665,1.05246 1.52995,1.686 0.48155,0.6413 0.86954,1.28519 1.14196,1.91614 0.32745,0.74991 0.28618,1.27744 -0.12658,1.57481 -0.16235,0.16291 -0.52558,0.43184 -1.10894,0.80939 -0.4953,0.31806 -1.03464,0.64647 -1.607,0.98004 l 0.23389,0.38789 c 1.80238,-0.9904 3.42314,-1.91873 4.82101,-2.76431 2.09681,-1.27226 2.79849,-1.31105 3.18373,-1.19986 0.32746,0.0517 0.95485,0.41633 2.60588,2.7307 1.22451,1.72479 1.9372,3.02549 2.17935,3.9771 0.0908,0.39047 -0.10732,0.98523 -2.20963,2.5109 -1.46941,1.06539 -3.2195,2.19542 -5.19523,3.3539 -1.98949,1.16107 -3.92945,2.21352 -5.7786,3.13151 -1.9317,0.95937 -3.23327,1.46103 -3.98173,1.5386 -0.0275,0.005 -0.0578,0.005 -0.0908,0.005"
       style="fill:#cecdcc;fill-opacity:1;fill-rule:nonzero;stroke:none;stroke-width:0.0266751"
       id="path1064" />
    <path
       d="m 156.32724,182.34218 -0.24765,-0.55597 c -7.4654,-16.79277 -9.21824,-20.08202 -11.10867,-20.72591 -0.0881,-0.0207 -8.85226,-1.88769 -18.97582,-2.98929 l -0.78974,0.12671 c -7.91393,-0.79128 -19.35555,-1.94459 -27.379545,-3.44182 l 0.0248,-0.0517 -0.820012,-0.13447 c -0.968597,-0.15515 -13.087149,-3.46768 -21.17719,-6.20872 l -0.555845,-0.18618 -0.250408,0.50166 c -2.64164,5.3321 -6.747201,16.9531 -7.096663,19.24678 l -0.07426,0.47063 0.46779,0.17843 c 0.525573,0.19911 12.487272,4.78648 17.641233,6.30181 -0.99337,10.34873 -3.64327,43.64465 -3.64327,43.64465 h 54.90219 l 2.98836,-0.77835 0.0468,-0.40858 c 0.54484,-4.78131 0.15135,-16.99188 -0.92733,-29.17918 6.37022,-1.57222 16.28465,-5.5338 16.38371,-5.57518 l 0.59161,-0.23531"
       style="fill:#cecdcc;fill-opacity:1;fill-rule:nonzero;stroke:none;stroke-width:0.0266751"
       id="path1066" />
    <path
       d="m 137.15605,217.91368 c 0.82002,-0.21463 1.62902,-0.42151 2.48205,-0.64647 1.09243,-9.63503 -1.65928,-49.7215 -6.029,-57.55932 -7.42137,-0.97747 -36.413427,-3.07722 -43.991646,-6.49317 -2.382988,6.49575 -5.514437,53.02366 -6.57109,64.69896 h 54.109686"
       style="fill:#ffffff;fill-opacity:1;fill-rule:nonzero;stroke:none;stroke-width:0.0266751"
       id="path1068" />
    <path
       d="m 145.71388,193.26239 c 0.97136,-0.52752 7.51493,-4.19949 10.08779,-5.53898 -1.64553,-4.03916 -3.15897,-9.09198 -6.13082,-15.47137 -5.12644,2.97377 -8.56883,4.47617 -10.00523,5.43036 -1.09243,0.72405 4.87604,16.21612 6.04826,15.57999"
       style="fill:#ffc19f;fill-opacity:1;fill-rule:nonzero;stroke:none;stroke-width:0.0266751"
       id="path1070" />
    <path
       d="m 144.82508,161.64989 c 1.63177,0.56372 3.79186,4.92353 10.66014,20.36905 0,0 -17.8256,7.14998 -21.08362,6.07943 -2.7187,-4.16328 -6.9013,-17.65387 -8.47804,-29.42226 10.20335,1.10676 18.90152,2.97378 18.90152,2.97378"
       style="fill:#ffffff;fill-opacity:1;fill-rule:nonzero;stroke:none;stroke-width:0.0266751"
       id="path1072" />
    <path
       d="m 126.93894,161.48439 0.10733,-2.65054 c -7.80662,-1.40672 -19.91966,-1.97303 -28.268363,-3.32028 l -0.20913,4.90285 c -0.162351,3.77281 6.059273,7.0724 13.893403,7.3672 7.83413,0.29479 14.31441,-2.52383 14.47676,-6.29923"
       style="fill:#cecdcc;fill-opacity:1;fill-rule:nonzero;stroke:none;stroke-width:0.0266751"
       id="path1074" />
    <path
       d="m 123.90656,146.2173 v 13.56298 c -0.0193,2.90138 -4.96685,5.22351 -10.99034,5.1873 -6.02351,-0.0362 -10.84176,-2.42039 -10.8225,-5.32176 V 146.2173 h 21.81284"
       style="fill:#ffc19f;fill-opacity:1;fill-rule:nonzero;stroke:none;stroke-width:0.0266751"
       id="path1076" />
    <path
       d="m 102.09372,155.47478 c -0.12383,-0.0181 -0.2504,-0.0388 -0.37423,-0.0569 -1.00437,-1.24382 -1.58498,-2.70743 -1.58498,-4.27447 0,-1.75065 0.72645,-3.3746 1.95921,-4.70374 v 9.0351"
       style="fill:#d7d7d7;fill-opacity:1;fill-rule:nonzero;stroke:none;stroke-width:0.0266751"
       id="path1078" />
    <path
       d="m 102.09372,155.84973 c -0.12933,-0.14222 -0.25591,-0.28444 -0.37423,-0.43184 0.12383,0.0181 0.2504,0.0388 0.37423,0.0569 v 0.37496"
       style="fill:#b0afae;fill-opacity:1;fill-rule:nonzero;stroke:none;stroke-width:0.0266751"
       id="path1080" />
    <path
       d="M 119.33871,146.2173 H 102.3056 c 1.95097,-1.96011 5.04114,-3.2272 8.51656,-3.2272 3.47817,0 6.56558,1.26709 8.51655,3.2272"
       style="fill:#d7d7d7;fill-opacity:1;fill-rule:nonzero;stroke:none;stroke-width:0.0266751"
       id="path1082" />
    <path
       d="m 110.82216,159.29673 c -3.60474,0 -6.79398,-1.36277 -8.72844,-3.447 v -0.37495 -9.0351 c 0.0688,-0.075 0.14034,-0.14998 0.21188,-0.22238 h 17.03311 c 1.3621,1.37052 2.17111,3.0772 2.17111,4.92612 0,4.50203 -4.78524,8.15331 -10.68766,8.15331"
       style="fill:#d7a68a;fill-opacity:1;fill-rule:nonzero;stroke:none;stroke-width:0.0266751"
       id="path1084" />
    <path
       d="m 171.31858,124.79836 c -2.61688,10.10308 -12.92205,16.57556 -20.76443,15.70671 -7.84238,-0.86887 -9.48516,-9.10234 -8.2689,-18.81753 1.21901,-9.7126 8.56608,-16.90913 16.40571,-16.017 10.71793,1.22054 15.0849,9.63244 12.62762,19.12782"
       style="fill:#ffc19f;fill-opacity:1;fill-rule:nonzero;stroke:none;stroke-width:0.0266751"
       id="path1086" />
    <path
       d="m 161.94074,127.11532 c -0.53658,4.25896 -4.21012,7.35427 -8.20561,6.91208 -3.99824,-0.44218 -6.80499,-4.25378 -6.27115,-8.51274 0.53383,-4.26155 4.20736,-7.35427 8.20285,-6.91208 3.99825,0.44218 6.80499,4.25378 6.27391,8.51274"
       style="fill:#e0956c;fill-opacity:1;fill-rule:nonzero;stroke:none;stroke-width:0.0266751"
       id="path1088" />
    <path
       d="m 55.273311,127.12308 c 3.070913,9.9867 13.659508,16.04286 21.457863,14.86112 7.795609,-1.18176 9.061399,-9.47471 7.407614,-19.13043 -1.659283,-9.65829 -9.325558,-16.55227 -17.121159,-15.34725 -10.649132,1.64722 -14.630866,10.22719 -11.744318,19.61656"
       style="fill:#ffc19f;fill-opacity:1;fill-rule:nonzero;stroke:none;stroke-width:0.0266751"
       id="path1090" />
    <path
       d="m 65.322574,129.04957 c 0.72645,4.23569 4.537571,7.17843 8.511045,6.5785 3.970728,-0.60251 6.604115,-4.52272 5.877666,-8.75841 -0.72645,-4.2331 -4.534826,-7.17584 -8.5083,-6.57592 -3.973473,0.60252 -6.606869,4.52273 -5.880411,8.75583"
       style="fill:#e0956c;fill-opacity:1;fill-rule:nonzero;stroke:none;stroke-width:0.0266751"
       id="path1092" />
    <path
       d="m 61.095939,88.003741 c -3.164467,32.856319 22.742919,54.073549 52.098191,53.486549 29.35803,-0.58958 52.99251,-24.95126 49.2942,-56.812002 -2.05278,-17.687485 -22.14029,-31.201347 -50.183,-30.469541 -29.349775,0.765422 -48.961244,10.426307 -51.209391,33.794994"
       style="fill:#752912;fill-opacity:1;fill-rule:nonzero;stroke:none;stroke-width:0.0266751"
       id="path1094" />
    <path
       d="m 69.923436,81.138204 c -2.531573,5.582934 0.33571,54.332126 6.485787,61.011486 6.527066,7.08534 32.528017,13.47249 37.959887,13.36388 5.81713,-0.11637 30.99256,-6.81382 35.73376,-14.84042 5.60799,-9.49798 7.21224,-52.946098 5.23926,-58.073922 -6.6729,-17.322872 -22.83922,-17.586631 -43.96688,-17.165136 -19.762803,0.395641 -34.886224,1.215371 -41.451814,15.704112"
       style="fill:#ffc19f;fill-opacity:1;fill-rule:nonzero;stroke:none;stroke-width:0.0266751"
       id="path1096" />
    <path
       d="m 75.495656,129.92877 c -0.01373,1.98079 2.90856,3.60473 6.524312,3.62542 3.613006,0.0207 6.557338,-1.56964 6.568344,-3.55043 0.01373,-1.98338 -2.90856,-3.60731 -6.521559,-3.628 -3.615751,-0.0207 -6.557338,1.56963 -6.571097,3.55301"
       style="fill:#ff9797;fill-opacity:1;fill-rule:nonzero;stroke:none;stroke-width:0.0266751"
       id="path1098" />
    <path
       d="m 138.47688,128.11606 c 0.28067,1.9627 3.41212,3.1884 6.9976,2.73587 3.58274,-0.45512 6.26015,-2.41522 5.97673,-4.37791 -0.28067,-1.96528 -3.41488,-3.1884 -6.99761,-2.73587 -3.58273,0.45253 -6.26015,2.41263 -5.97672,4.37791"
       style="fill:#ff9797;fill-opacity:1;fill-rule:nonzero;stroke:none;stroke-width:0.0266751"
       id="path1100" />
    <path
       d="m 110.51397,119.67313 c 0.23114,-0.005 0.43202,-0.16549 0.46779,-0.39047 0.24215,-1.58773 1.55196,-2.6376 3.33232,-2.67381 1.79412,-0.0362 3.18098,0.98006 3.45065,2.529 0.044,0.24566 0.29719,0.41633 0.5586,0.37495 0.26417,-0.0413 0.44302,-0.27669 0.399,-0.52493 -0.34672,-1.98338 -2.16835,-3.3358 -4.42751,-3.29184 -2.24539,0.0466 -3.96247,1.43517 -4.27341,3.45733 -0.0385,0.24825 0.14585,0.4784 0.41,0.5146 l 0.0826,0.005"
       style="fill:#c67f75;fill-opacity:1;fill-rule:nonzero;stroke:none;stroke-width:0.0266751"
       id="path1102" />
    <path
       d="m 78.786711,96.736293 c 0.324697,0 0.652154,-0.111197 0.913568,-0.330997 3.332326,-2.813446 9.672274,-3.609903 14.760192,-1.843742 0.704438,0.248248 1.496931,-0.09309 1.763844,-0.765422 0.261414,-0.667155 -0.101807,-1.409311 -0.814506,-1.657551 -6.070282,-2.102333 -13.453123,-1.114524 -17.547679,2.347986 -0.561352,0.47839 -0.608129,1.292946 -0.101815,1.82305 0.27242,0.284451 0.649408,0.429257 1.026396,0.426676"
       style="fill:#8c2f22;fill-opacity:1;fill-rule:nonzero;stroke:none;stroke-width:0.0266751"
       id="path1104" />
    <path
       d="m 146.75128,94.920999 c 0.37699,-0.01033 0.74847,-0.162911 1.00988,-0.455117 0.4898,-0.545622 0.41826,-1.357597 -0.1596,-1.817883 -4.20737,-3.348725 -11.61773,-4.121909 -17.61647,-1.851497 -0.70168,0.268933 -1.0429,1.021424 -0.75947,1.680831 0.28617,0.664567 1.08968,0.982634 1.78861,0.713701 5.02738,-1.910974 11.39485,-1.298113 14.81247,1.424828 0.26692,0.214625 0.59713,0.31548 0.92458,0.305137"
       style="fill:#8c2f22;fill-opacity:1;fill-rule:nonzero;stroke:none;stroke-width:0.0266751"
       id="path1106" />
    <path
       d="m 135.95081,126.41196 c 1.73358,8.39638 -11.79385,19.84412 -23.97294,19.16403 -12.113038,-0.67491 -20.197572,-10.70042 -19.960924,-19.23902 0.869544,-4.6727 8.777964,-3.32804 20.728654,-3.52716 11.93694,-0.2017 22.14855,-1.50499 23.20521,3.60215"
       style="fill:#701608;fill-opacity:1;fill-rule:nonzero;stroke:none;stroke-width:0.0266751"
       id="path1108" />
    <path
       d="m 113.3785,137.86745 c -5.61074,0.0594 -9.91167,1.4119 -12.69366,3.96418 3.15347,2.04544 7.42413,3.97709 12.10755,3.90986 5.27228,-0.075 9.90617,-0.94126 13.33205,-4.37532 -1.37861,-2.42816 -7.72957,-3.55043 -12.74594,-3.49872"
       style="fill:#dd6b5b;fill-opacity:1;fill-rule:nonzero;stroke:none;stroke-width:0.0266751"
       id="path1110" />
    <path
       d="m 129.93831,122.76586 c -4.13032,-1.21796 -10.56658,-0.24308 -16.51853,-0.11378 -6.71694,0.14739 -11.6425,-0.63096 -15.838866,0.40081 1.598747,3.70299 8.046006,4.51238 15.772816,4.4348 8.92656,-0.0879 15.38208,-0.70078 16.58458,-4.72183"
       style="fill:#ffffff;fill-opacity:1;fill-rule:nonzero;stroke:none;stroke-width:0.0266751"
       id="path1112" />
    <path
       d="m 100.24457,112.10165 c -2.636137,-2.96343 -6.705927,-4.25638 -10.712418,-3.43665 -1.926204,0.38529 -3.690048,1.14814 -5.032888,2.32213 -1.375858,1.19985 -2.693924,3.11858 -3.161714,4.29775 -0.06607,0.17066 -0.178865,0.31548 -0.231149,0.49132 -0.228388,0.73697 0.228396,1.50757 1.015382,1.71703 0.203631,0.0543 0.410006,0.0647 0.610883,0.0388 0.561352,-0.0724 1.053907,-0.44995 1.216259,-0.99558 0.781488,-2.57037 3.153462,-4.5434 6.194102,-5.1485 3.035141,-0.64647 5.885918,0.30772 7.83138,2.49797 0.525581,0.58958 1.455661,0.66458 2.085803,0.17584 0.62463,-0.49391 0.70994,-1.36794 0.18436,-1.96011"
       style="fill:#6b1a11;fill-opacity:1;fill-rule:nonzero;stroke:none;stroke-width:0.0266751"
       id="path1114" />
    <path
       d="m 147.13102,113.26272 c -1.88217,-3.43407 -5.55296,-5.53381 -9.65302,-5.55967 -1.96747,-0.0232 -3.86615,0.35943 -5.45114,1.2283 -1.62076,0.88696 -3.35709,2.48504 -4.08629,3.54266 -0.10456,0.14998 -0.2504,0.26894 -0.34121,0.42926 -0.3935,0.67234 -0.12934,1.51792 0.59161,1.88511 0.18437,0.0957 0.38249,0.1474 0.58337,0.16291 0.56685,0.044 1.1337,-0.22238 1.42263,-0.71887 1.3621,-2.34799 4.13583,-3.78316 7.24526,-3.74695 3.10944,-0.005 5.66853,1.51274 7.05539,4.05209 0.37424,0.68267 1.26304,0.94643 1.99224,0.59992 0.72646,-0.35168 1.01264,-1.1895 0.64116,-1.87476"
       style="fill:#6b1a11;fill-opacity:1;fill-rule:nonzero;stroke:none;stroke-width:0.0266751"
       id="path1116" />
    <path
       d="M 50.397276,106.35063 C 56.742732,104.2121 60.67768,100.39016 60.952854,90.84046 57.273812,90.1552 55.515466,89.182909 51.963005,88.135624 65.691302,84.794653 63.500939,66.739968 81.389827,59.000399 110.7341,48.449972 137.64861,55.71115 145.41945,59.770996 c 14.32267,7.483565 16.17458,17.746961 17.30828,29.261932 2.06653,10.421132 4.62288,13.485412 10.57759,15.799782 -6.36472,1.76616 -10.15107,0.27928 -12.33043,-1.72479 0.69343,6.56299 4.03126,8.61101 7.72681,11.48394 -9.95294,0.56631 -13.27426,-2.51607 -13.84112,-9.74105 -0.59162,-7.553384 -0.50081,-18.807177 -1.78311,-21.672337 -0.74296,-1.654971 -9.49341,-11.719253 -12.24513,-11.765799 -5.99323,-0.09827 -12.39647,19.133 -33.61492,19.03732 8.5248,-4.328779 13.14218,-10.379761 17.77606,-18.985606 -1.65653,0.93092 -3.31306,2.055787 -4.95583,3.421132 -17.27801,14.367208 -33.303991,18.090889 -48.276066,17.059114 -0.470543,14.087936 3.745078,21.351696 -15.115168,26.890676 1.700561,-1.97045 4.149585,-7.86111 4.471535,-12.50278 -2.014252,1.1714 -5.715306,2.22128 -10.720675,0.0181"
       style="fill:#752912;fill-opacity:1;fill-rule:nonzero;stroke:none;stroke-width:0.0266751"
       id="path1118" />
    <path
       d="m 50.045054,138.13898 c -1.959214,2.45142 -5.349331,5.97857 -7.547947,8.24123 16.020475,11.11156 24.74891,14.9542 42.73136,21.69044 6.16659,-21.60253 2.94434,-8.77392 4.716436,-14.08792 -17.393579,-4.30551 -30.271599,-10.43407 -39.899849,-15.84375"
       style="fill:#ffc19f;fill-opacity:1;fill-rule:nonzero;stroke:none;stroke-width:0.0266751"
       id="path1120" />
    <path
       d="m 75.633242,148.93248 c -2.567351,5.18212 -6.705922,16.84966 -7.044386,19.07611 0,0 18.139296,6.9638 19.746295,6.7621 1.942717,-0.96971 5.97122,-11.07019 8.585349,-19.60104 -1.067666,-0.17067 -13.235742,-3.50906 -21.287258,-6.23717"
       style="fill:#ffffff;fill-opacity:1;fill-rule:nonzero;stroke:none;stroke-width:0.0266751"
       id="path1122" />
    <path
       d="m 107.82555,215.48553 40.36212,-5.96565 -1.95647,-37.99189 -6.33719,-2.60141 c -0.55034,-0.22497 -1.15022,-0.31548 -1.74459,-0.25859 l -33.49385,3.50388 c -0.47605,0.0491 -0.82827,0.44477 -0.798,0.8973 l 2.93057,41.63801 c 0.033,0.4939 0.51458,0.85592 1.03741,0.77835"
       style="fill:#b5b5b5;fill-opacity:1;fill-rule:nonzero;stroke:none;stroke-width:0.0266751"
       id="path1124" />
    <path
       d="m 108.81891,214.55461 6.22438,3.12375 31.46859,-4.49427 -2.77372,-41.06652 -4.52658,-1.92908 -32.89948,3.74696 2.50681,40.61916"
       style="fill:#f9e7d7;fill-opacity:1;fill-rule:nonzero;stroke:none;stroke-width:0.0266751"
       id="path1126" />
    <path
       d="m 115.15611,217.91368 h 6.05927 l 27.74828,-4.85113 -2.73246,-41.53456 -32.59954,4.04691 c -0.72371,0.0905 -1.24928,0.69044 -1.20525,1.3757 l 2.60587,40.54934 c 0.008,0.14998 0.0661,0.28185 0.12383,0.41374"
       style="fill:#cecdcc;fill-opacity:1;fill-rule:nonzero;stroke:none;stroke-width:0.0266751"
       id="path1128" />
    <path
       d="m 113.75273,208.38467 c -0.0715,0 -0.12382,-0.003 -0.1596,-0.0129 -0.54759,-0.12929 -0.14309,-0.87144 0.73196,-1.86701 l 0.11832,1.82822 c -0.29994,0.0336 -0.53658,0.0517 -0.69068,0.0517"
       style="fill:#cfc0b3;fill-opacity:1;fill-rule:nonzero;stroke:none;stroke-width:0.0266751"
       id="path1130" />
    <path
       d="m 148.41607,204.74633 -0.29719,-4.546 c 0.1486,1.90839 0.26692,3.64611 0.29719,4.546"
       style="fill:#d4d4d4;fill-opacity:1;fill-rule:nonzero;stroke:none;stroke-width:0.0266751"
       id="path1132" />
    <path
       d="m 119.93859,212.3204 c -0.44028,0 -0.86954,-0.0181 -1.28781,-0.0543 -0.76498,-0.0672 -2.68842,-0.78094 -3.12044,-1.07572 -0.3247,-0.22239 8.12306,-3.81419 7.8589,-4.06244 -0.0193,-0.0181 -0.0798,-0.0259 -0.17612,-0.0259 -0.60537,0 -2.6499,0.32065 -4.69992,0.6413 -1.56022,0.24307 -3.12595,0.48873 -4.06979,0.58958 l -0.11832,-1.8282 c 1.90969,-2.17215 6.05102,-5.54932 7.32781,-6.37163 1.81613,-0.94903 -2.13258,-2.21352 -2.82601,-4.35205 1.5162,0.37753 16.31767,2.94533 17.49265,3.41337 5.53369,-2.19542 9.00635,-4.65202 11.19947,-5.51312 0.18161,1.6136 0.41551,4.19173 0.59987,6.51903 l 0.29719,4.546 v 0.003 c -2.4903,0.70078 -5.85015,1.32139 -10.31342,1.60584 -0.63015,0.96453 -10.70692,5.96306 -18.16406,5.96565"
       style="fill:#abaaaa;fill-opacity:1;fill-rule:nonzero;stroke:none;stroke-width:0.0266751"
       id="path1134" />
    <path
       d="m 136.47638,204.30931 c 13.78884,-3.50905 15.02711,-3.72109 17.59996,-5.06059 3.16722,-1.64979 3.70931,-6.80864 1.33183,-12.44589 -5.12644,2.97378 -16.33417,6.59661 -23.51063,9.31179 -1.24103,0.46805 3.27178,8.52827 4.57884,8.19469"
       style="fill:#ffc19f;fill-opacity:1;fill-rule:nonzero;stroke:none;stroke-width:0.0266751"
       id="path1136" />
    <path
       d="m 115.53034,211.19036 c 0.43202,0.29479 1.26579,0.98006 4.4963,-0.91282 0.53383,-0.31289 -2.13808,1.89029 -1.37586,1.98855 2.13258,0.27152 5.46215,-0.0336 9.78509,-1.75582 8.55509,-3.41079 12.09103,-9.77725 11.13894,-12.26229 -0.67142,-1.74547 -14.74093,-6.84743 -20.74792,-2.46693 -0.60538,0.4396 5.31907,1.56963 4.98336,2.34023 -0.45954,1.05504 -2.8095,1.32397 -4.90631,2.9686 -4.65315,3.6461 -7.37734,6.79054 -5.31081,7.28445 0.71269,0.16808 9.45214,-4.44256 9.7163,-4.19432 0.26692,0.24825 -8.10379,6.78797 -7.77909,7.01035"
       style="fill:#ffc19f;fill-opacity:1;fill-rule:nonzero;stroke:none;stroke-width:0.0266751"
       id="path1138" />
    <path
       d="m 32.379055,142.90735 c -0.401754,0.67492 -1.700562,0.92576 -3.712062,1.37829 -1.741836,0.39305 -4.377978,0.90764 -5.261278,1.8308 -0.94659,0.98523 0.222889,1.8334 2.314191,2.01959 3.45065,0.30771 11.279277,0.75507 15.181208,0.72663 6.650892,0.33358 12.916544,-4.09863 13.100908,-9.67122 0.275173,-8.35761 -0.192624,-11.61066 -0.233895,-16.75141 -0.011,-1.26708 -2.922319,-0.12154 -3.648777,1.48948 -1.560222,3.45216 -0.869536,4.67787 -1.827134,6.38973 -0.935587,1.67048 -2.597616,1.27226 -4.234887,0.22756 -6.2574,-7.0931 -9.003608,-11.77615 -12.013984,-11.23569 -2.405,0.79387 1.169482,6.20355 5.50893,12.13817 -7.091164,-4.39344 -13.188963,-7.39048 -14.196091,-5.57002 -1.18874,2.15405 3.794614,6.68971 9.977716,10.0255 -6.601362,-0.17066 -12.800974,-1.36794 -13.497158,1.05763 -0.624639,2.17474 13.670516,4.03658 12.542313,5.94496"
       style="fill:#ffc19f;fill-opacity:1;fill-rule:nonzero;stroke:none;stroke-width:0.0266751"
       id="path1140" />
  </g>
</svg>
