<?xml version="1.0" encoding="UTF-8"?>
<svg xmlns="http://www.w3.org/2000/svg" viewBox="0 0 1000 1000">
  <defs>
    <style>
      .cls-1 {
        fill: #8c7062;
      }

      .cls-2 {
        letter-spacing: 0em;
      }

      .cls-2, .cls-3, .cls-4 {
        fill: red;
      }

      .cls-5 {
        fill: #644e43;
      }

      .cls-6 {
        fill: #a3897a;
      }

      .cls-7 {
        font-family: FreeSansBold, FreeSans;
        font-size: 150px;
      }

      .cls-8, .cls-3 {
        letter-spacing: -.02em;
      }

      .cls-9 {
        fill: #868686;
      }

      .cls-10 {
        fill: #7e4e26;
      }

      .cls-11 {
        fill: #fff;
        stroke: #b2b2b2;
      }

      .cls-11, .cls-12 {
        stroke-miterlimit: 10;
        stroke-width: 3px;
      }

      .cls-13 {
        fill: #e7040f;
      }

      .cls-14 {
        fill: #5b361a;
      }

      .cls-15 {
        letter-spacing: -.01em;
      }

      .cls-16 {
        fill: #bcbcbc;
      }

      .cls-17 {
        fill: #606060;
      }

      .cls-12 {
        fill: #56443a;
        stroke: #352821;
      }

      .cls-18 {
        fill: #49352c;
      }

      .cls-19 {
        fill: #a00212;
      }

      .cls-20 {
        letter-spacing: -.02em;
      }

      .cls-21 {
        fill: #755d51;
      }
    </style>
  </defs>
  <g id="big">
    <text class="cls-7" transform="translate(109.7 1128.23)"><tspan x="0" y="0">b + </tspan><tspan class="cls-8" x="262.65" y="0">i</tspan><tspan x="300.6" y="0">g = </tspan><tspan class="cls-15" x="563.25" y="0">b</tspan><tspan class="cls-3" x="652.65" y="0">i</tspan><tspan class="cls-2" x="690.6" y="0">g</tspan></text>
  </g>
  <g id="dig">
    <g>
      <text class="cls-7" transform="translate(109.7 802.29)"><tspan x="0" y="0">d + </tspan><tspan class="cls-8" x="262.65" y="0">i</tspan><tspan x="300.6" y="0">g = </tspan><tspan class="cls-20" x="563.25" y="0">d</tspan><tspan class="cls-3" x="651.9" y="0">i</tspan><tspan class="cls-4" x="689.85" y="0">g</tspan></text>
      <g>
        <g>
          <path class="cls-6" d="M277.38,578.7c16.51-2.51,33.46-2.09,49.82,1.24,2.42,.49,4.86,1.06,7.02,2.27,5.23,2.94,7.8,9.15,8.54,15.11,.35,2.85,.35,5.85-.79,8.49-1.25,2.89-3.87,5.15-6.91,5.95s-6.44,.13-8.94-1.76c-.75-.57-1.52-1.27-2.46-1.27-.61,0-1.17,.31-1.71,.6-4.87,2.64-10.4,4.35-15.92,3.9-.82-.07-1.64-.18-2.46-.09-.98,.11-1.9,.49-2.83,.83-9.63,3.52-21.11,1.35-28.8-5.44"/>
          <path class="cls-21" d="M277.78,580.15c11.46-1.72,23.13-2.01,34.66-.91,5.59,.54,11.26,1.3,16.71,2.67,2.38,.6,4.66,1.49,6.5,3.17,1.57,1.44,2.75,3.21,3.64,5.14,1.89,4.07,2.98,9.6,1.67,13.98s-6.02,7.22-10.56,6.16c-1.1-.26-2.11-.7-3.05-1.32s-1.78-1.46-2.95-1.73c-1.02-.23-1.98,.11-2.88,.55-1.28,.63-2.51,1.31-3.84,1.85-2.5,1.01-5.16,1.77-7.85,2s-5.49-.52-8.09,.31-4.83,1.66-7.44,1.94-5.06,.24-7.54-.16c-5.06-.82-9.87-2.95-13.75-6.33-1.45-1.26-3.58,.85-2.12,2.12,7.5,6.53,18.07,9.08,27.72,6.61,1.2-.31,2.36-.74,3.53-1.15,1.56-.55,2.95-.36,4.57-.28,2.88,.15,5.81-.27,8.58-1.07,1.3-.37,2.57-.84,3.82-1.36,1.37-.58,2.69-1.47,4.09-1.97,1.07-.38,1.96,.82,2.81,1.36,1.09,.7,2.34,1.22,3.6,1.51,4.92,1.15,10-.89,12.79-5.09,2.92-4.38,2.34-10.4,1.02-15.24-1.23-4.53-3.67-8.89-7.67-11.52-2.32-1.52-5.04-2.25-7.73-2.81-3.05-.64-6.12-1.16-9.21-1.59-13.9-1.93-27.97-1.82-41.84,.26-1.9,.29-1.09,3.18,.8,2.89h0Z"/>
          <path class="cls-21" d="M296.53,578.76c1.57,.37,2.93,1.4,4.22,2.33s2.46,1.96,3.53,3.11c2.36,2.53,3.68,5.55,3.86,9.02,.33,6.31-.84,13.65-5.18,18.5-1.29,1.43,.83,3.56,2.12,2.12,2.48-2.77,4.08-6.12,4.98-9.71,.94-3.77,1.39-7.93,1.02-11.81s-1.93-7.23-4.54-10.1c-1.23-1.35-2.64-2.52-4.11-3.61-1.55-1.14-3.2-2.31-5.09-2.75s-2.68,2.45-.8,2.89h0Z"/>
          <path class="cls-21" d="M316.44,579.45c4.87,2.16,7.46,6.99,8.49,12.01,.6,2.9,.74,5.9,.76,8.86,.02,2.57-.22,5.63-2.8,6.93-1.72,.87-.21,3.46,1.51,2.59,2.82-1.42,3.97-4.45,4.23-7.43,.31-3.54-.03-7.33-.64-10.83-1.05-6.02-4.21-12.14-10.04-14.72-1.75-.77-3.28,1.81-1.51,2.59h0Z"/>
        </g>
        <g>
          <path class="cls-6" d="M136.71,379.65l4.89,11.03c2,4.52,4.02,9.07,6.71,13.22,7.65,11.84,20.33,19.76,33.73,24.15s27.62,5.55,41.7,6.33c-3.15,7.01-4.47,14.82-3.81,22.48,.05,.58,.05,1.31-.47,1.59-.42,.24-.94,.03-1.38-.18-6.84-3.31-13.76-6.75-21.25-8.04-6.25-1.08-12.75-.63-18.85-2.38-4.77-1.37-9.07-4.01-13.13-6.88-6.22-4.4-12.1-9.47-16.38-15.78-7.22-10.65-9.32-23.88-10.63-36.68l-1.13-8.85Z"/>
          <path class="cls-21" d="M135.41,380.41c3.21,7.25,6.11,14.77,10.03,21.67,3.33,5.86,7.8,10.98,13.05,15.19,11.1,8.88,24.74,13.61,38.62,15.97,8.8,1.49,17.71,2.14,26.61,2.64l-1.3-2.26c-2.26,5.09-3.64,10.46-4.06,16.01-.1,1.35-.14,2.71-.12,4.06,0,.41-.07,3.67,.18,3.77l.4-.5c-.21-.1-.41-.2-.62-.3-.27-.13-.55-.27-.82-.4-.62-.3-1.24-.6-1.85-.89-1.31-.63-2.62-1.24-3.94-1.84-5.05-2.26-10.25-4.2-15.75-4.98s-11.48-.55-17.03-2.04c-5.18-1.39-9.77-4.36-14.08-7.47s-8.17-6.38-11.59-10.26c-6.98-7.93-10.37-17.95-12.2-28.2-1.23-6.92-1.86-13.96-2.75-20.93-.24-1.89-3.24-1.91-3,0,2.14,16.76,2.96,34.76,13.71,48.68,3.36,4.35,7.42,8.07,11.76,11.41s8.91,6.5,14.01,8.55c5.6,2.25,11.6,2.33,17.53,2.86s11.42,2.16,16.82,4.52c1.54,.67,3.06,1.38,4.57,2.1,1.43,.68,2.89,1.6,4.4,2.09,1.26,.41,2.61,.03,3.17-1.25s.14-2.74,.1-4.01c-.24-6.67,1.04-13.36,3.74-19.46,.47-1.05-.08-2.19-1.3-2.26-15.06-.84-30.39-2.1-44.63-7.45-11.94-4.48-23.18-12.08-30-23.07-2.2-3.55-3.95-7.36-5.64-11.17-1.82-4.1-3.63-8.2-5.45-12.3-.78-1.76-3.37-.24-2.59,1.51Z"/>
        </g>
        <g>
          <path class="cls-6" d="M281.42,280.54c5.42-8.68,10.36-21.72,14.87-30.91,1.44-2.93,2.83-5.89,4.21-8.84,4.13-8.79,8.26-17.58,12.4-26.37,1.94-4.13,3.9-8.29,6.65-11.94,4.8-6.37,11.81-10.85,19.3-13.57s15.49-3.8,23.46-4.29c1.82-.11,3.81-.15,5.28,.93,1.21,.89,1.82,2.35,2.38,3.74,2.62,6.56,5.25,13.12,7.87,19.68,6.52,16.3,13.16,33.36,11.53,50.84l.06,.85c1.73,12.8,2.29,25.73,2.84,38.63,.42,9.81,.84,19.61,1.26,29.42,.29,6.7,.57,13.41,.44,20.12-.81,40.42-17.64,80.31-46.03,109.1-4.44,4.51-9.2,8.78-14.72,11.88-7.51,4.22-16.09,6.07-24.59,7.46-16.82,2.76-33.91,3.92-50.95,3.46-6.86-.19-13.84-.66-20.23-3.14-6.77-2.63-12.56-7.43-17.11-13.09-7.38-9.19-11.71-21.26-9.83-32.9,.69-4.24,2.16-8.32,3.93-12.23,13.67-30.28,44.68-51.55,52.79-83.77,1.88-7.48,2.43-15.28,4.81-22.62,3.44-10.55,10.83-21.44,9.39-32.44"/>
          <path class="cls-21" d="M282.71,281.3c6.13-9.89,10.04-21,15.12-31.43,6.1-12.52,11.74-25.27,17.83-37.79,2.73-5.62,6.01-10.71,10.9-14.69,4.63-3.77,10.15-6.38,15.85-8.08,6.45-1.93,13.19-2.81,19.89-3.19,1.34-.07,2.94-.23,4.15,.48,1.34,.79,1.85,2.56,2.39,3.92,1.31,3.28,2.62,6.56,3.94,9.84,5.05,12.62,10.62,25.24,13.54,38.57,1.44,6.58,2.14,13.33,1.62,20.07-.21,2.73,.49,5.56,.78,8.28,.38,3.55,.68,7.1,.93,10.66,.99,13.97,1.4,27.98,2,41.97,.57,13.34,1.42,26.71,.19,40.03-2.15,23.31-9.64,46.1-21.48,66.27-5.93,10.1-12.95,19.54-20.97,28.07-4.24,4.51-8.71,8.93-13.88,12.38s-11.26,5.75-17.43,7.25c-13.41,3.25-27.48,4.57-41.23,5.18-6.93,.31-13.87,.36-20.8,.11-6.5-.23-13.16-.83-19.19-3.44-10.88-4.73-19.4-15.13-23.17-26.24-1.9-5.59-2.69-11.64-1.75-17.51s3.52-11.8,6.39-17.18c10.09-18.95,25.85-33.97,37.68-51.74,5.85-8.78,10.68-18.35,13.02-28.69,1.48-6.54,2.12-13.25,4.02-19.7,1.77-5.99,4.68-11.56,6.93-17.37,2.07-5.34,3.61-11.02,2.92-16.79-.23-1.89-3.23-1.92-3,0,.75,6.32-1.3,12.38-3.68,18.14s-5.32,11.81-6.85,18.14-2.2,13.19-3.96,19.65c-1.45,5.3-3.55,10.39-6.11,15.25-10.25,19.46-26.62,34.74-38.54,53.08-6.36,9.78-12.48,21.14-12.21,33.12,.27,12.1,6.19,23.77,14.77,32.13,4.33,4.22,9.47,7.61,15.23,9.54,6.31,2.12,13.08,2.5,19.69,2.66,14.47,.36,28.95-.46,43.29-2.41,13.12-1.78,26.68-4.01,37.56-12.09,9.7-7.19,17.86-16.83,24.96-26.53,14.18-19.39,24.01-42.02,28.54-65.61,2.37-12.36,3.13-24.85,2.77-37.42-.42-14.51-1.18-29.02-1.82-43.52-.32-7.32-.69-14.64-1.32-21.94-.3-3.46-.65-6.91-1.09-10.35-.37-2.89,0-5.71-.04-8.62-.14-13.88-4.77-27.23-9.78-40.01-2.61-6.66-5.3-13.29-7.96-19.93-.66-1.64-1.31-3.28-1.97-4.92-.55-1.35-1.1-2.73-2.1-3.81-2.05-2.19-5.07-2.1-7.83-1.92-12.79,.85-25.95,3.44-36.28,11.5-4.98,3.89-8.58,8.86-11.42,14.47-3.2,6.34-6.09,12.85-9.11,19.28-5.64,12.01-11.3,23.99-16.76,36.09-2.35,5.2-4.77,10.4-7.78,15.26-1.02,1.65,1.57,3.15,2.59,1.51h0Z"/>
        </g>
        <g>
          <path class="cls-6" d="M249.95,470.61l1.6,13.45c1.73,14.61,3.47,29.3,2.83,44-.02,.54-.03,1.15,.35,1.54,.3,.31,.76,.39,1.19,.45,4.67,.68,9.45,.99,14.09,.15,2.76-.5,5.8-1.75,6.66-4.42,.39-1.2,.25-2.51,.14-3.77-1.5-17.17,2.46-34.58-.08-51.62"/>
          <path class="cls-21" d="M248.45,470.61c1.18,9.91,2.45,19.81,3.41,29.74,.47,4.94,.85,9.88,1.03,14.84,.09,2.48,.14,4.95,.12,7.43,0,1.24-.03,2.48-.07,3.72-.03,1.07-.22,2.23,.1,3.27,.65,2.08,3.2,2.03,4.98,2.24,2.35,.27,4.71,.43,7.07,.36,3.78-.1,8.3-.52,11.22-3.2,3.25-2.98,1.84-7.88,1.71-11.75-.17-4.87,.01-9.74,.27-14.61,.57-10.89,1.46-21.79-.12-32.64-.28-1.9-3.17-1.09-2.89,.8,1.29,8.88,.8,17.89,.29,26.8-.25,4.39-.52,8.78-.59,13.18-.04,2.23-.03,4.47,.05,6.7s.4,4.3,.39,6.44c-.02,3.85-4.46,4.74-7.51,5.08-2.19,.25-4.4,.25-6.59,.12-1.02-.06-2.04-.15-3.06-.27-.57-.06-1.14-.14-1.71-.22-.19-.03-.37-.05-.56-.09-.42-.08-.08,.15-.11-.04-.19-.89,.07-2.03,.09-2.94,.03-1.16,.05-2.31,.05-3.47,0-2.31-.04-4.62-.12-6.93-.17-4.63-.51-9.24-.94-13.85-.96-10.26-2.28-20.49-3.5-30.72-.22-1.89-3.23-1.92-3,0h0Z"/>
        </g>
        <g>
          <g>
            <path class="cls-6" d="M233.1,609.35c-5.03,2.8-10.1,1.54-14.21-2.49-4.11-4.03-5.33-10.64-3.18-15.98s7.46-9.19,13.18-9.85c3.35-15.49,14.14-28.61,17.31-44.14,.66-3.24,1.04-6.7,2.99-9.37,2.11-2.89,5.67-4.3,9.12-5.24,4.7-1.28,9.57-1.96,14.44-2.01,5.99-.06,11.99,.82,17.96,.37,5.98-.44,12.2-2.46,15.95-7.13,4.81-5.99,4.35-14.58,2.85-22.11s-3.78-15.32-1.82-22.75l19.46-5.86c1.64,16.08,3.28,32.15,4.92,48.23,.32,3.15,.65,6.32,1.54,9.36,1.26,4.3,3.64,8.89,1.83,12.98-1.19,2.7-3.92,4.35-6.52,5.76-8.59,4.68-17.51,8.76-26.68,12.2-3.75,1.41-7.88,2.99-9.76,6.53-1.26,2.39-1.24,5.22-1.24,7.92-.04,12.01-1.39,24.02-4.03,35.74-1.27,5.66-2.89,11.35-6.08,16.2s-8.17,8.8-13.92,9.5c-5.76,.71-12.11-2.5-13.92-8.01-.97-2.95-.61-6.18,.14-9.19,1.2-4.86,3.38-9.47,6.38-13.49"/>
            <g>
              <path class="cls-6" d="M252.67,613.72l14.02-15.57-10.61-12.96-17.27,7.28-.18-1.15c-2.1,3.16-3.64,6.69-4.53,10.37-.53,2.19-.82,4.51-.3,6.7,.89,3.73,4.17,6.67,7.9,7.57s7.78-.09,10.96-2.23"/>
              <path class="cls-21" d="M237.34,590.56c-2.23,3.4-3.9,7.2-4.78,11.17-.83,3.73-.76,7.64,1.57,10.84,4.55,6.26,13.18,6.45,19.3,2.45,1.61-1.05,.11-3.65-1.51-2.59-4.87,3.18-12.12,3.47-15.59-1.94-1.81-2.82-1.38-6.16-.55-9.25,.88-3.28,2.3-6.34,4.16-9.17,1.06-1.62-1.53-3.12-2.59-1.51h0Z"/>
            </g>
            <path class="cls-21" d="M327.06,471.46c1.47,14.48,2.05,29.1,3.96,43.54,.27,2.02,.62,4.02,1.2,5.98,.54,1.79,1.22,3.54,1.73,5.33s.9,3.67,.44,5.49c-.41,1.6-1.47,2.86-2.75,3.87-2.95,2.32-6.65,3.89-9.98,5.56-3.74,1.87-7.54,3.63-11.38,5.28-3.58,1.53-7.25,2.83-10.84,4.31-2.98,1.23-5.92,2.77-7.77,5.51-2.16,3.19-1.88,7.24-1.92,10.91-.05,4.22-.26,8.44-.64,12.64-.75,8.42-2.08,16.87-4.25,25.05-1.82,6.88-4.79,14-10.92,18.12-5.16,3.46-12.25,3.96-16.92-.67-2.57-2.55-3.12-6.07-2.61-9.55,.56-3.77,1.93-7.48,3.72-10.83,.88-1.64,1.89-3.2,2.99-4.7s-1.46-3.05-2.59-1.51c-2.37,3.22-4.24,6.78-5.55,10.56s-2.21,7.83-1.49,11.78c1.21,6.62,7.93,10.82,14.38,10.7,7.13-.13,13.29-5.06,16.93-10.89,4.35-6.95,5.95-15.45,7.36-23.41,1.57-8.84,2.44-17.81,2.58-26.79,.06-3.8-.46-8.18,2.55-11.06,2.52-2.42,6.18-3.42,9.36-4.65,8.14-3.15,16.1-6.79,23.79-10.92,3.01-1.61,6.38-3.35,8.06-6.48,1.91-3.56,.92-7.55-.29-11.16-.64-1.91-1.3-3.8-1.71-5.77-.46-2.2-.69-4.43-.91-6.66-.41-4.05-.79-8.11-1.14-12.17-.59-6.97-1.1-13.95-1.75-20.92-.2-2.16-.41-4.32-.63-6.47-.19-1.9-3.2-1.92-3,0h0Z"/>
            <path class="cls-21" d="M232.34,608.05c-3.75,2-7.78,1.5-11.1-1.1-2.92-2.29-4.76-5.7-5.04-9.41-.56-7.52,5.29-14.07,12.68-15.01,.64-.08,1.29-.41,1.45-1.1,2.3-10.42,7.83-19.63,12.18-29.26,2.16-4.79,4.07-9.72,5.13-14.88,.52-2.54,.8-5.27,1.99-7.61s3.14-3.71,5.41-4.71c5.14-2.25,11.2-3.03,16.76-3.18,6.15-.17,12.28,.77,18.42,.39,4.84-.31,9.85-1.47,13.88-4.29s6.55-7.01,7.45-11.8c1.06-5.66,.11-11.26-.94-16.84-.77-4.07-1.15-8.2-1.83-12.29-.31-1.9-3.21-1.09-2.89,.8,.58,3.49,.9,7.02,1.51,10.5,.84,4.86,1.92,9.62,1.57,14.59s-2.17,9.33-6.07,12.23-9.2,4.01-14.13,4.17c-5.98,.19-11.93-.68-17.91-.42-5.56,.24-11.45,1.1-16.62,3.25-2.23,.93-4.34,2.19-5.88,4.09s-2.41,4.4-2.93,6.85c-.55,2.59-.99,5.17-1.74,7.71s-1.61,4.87-2.59,7.23c-4.54,10.9-11.08,21.02-13.66,32.68l1.45-1.1c-6.98,.88-13.39,5.71-15.2,12.69s1.37,15.03,7.95,18.55c3.94,2.11,8.31,1.95,12.21-.14,1.7-.91,.19-3.5-1.51-2.59h0Z"/>
          </g>
          <g>
            <path class="cls-6" d="M257.1,567.12c-1.59-.23-2.97-1.27-3.93-2.56s-1.55-2.8-2.11-4.3c-.85-2.31-1.66-4.73-1.37-7.18,.34-2.9,2.18-5.4,4.16-7.55,1.88-2.04,3.95-3.91,6.16-5.57,1.24-.93,2.61-1.82,4.15-1.9,1.59-.08,3.13,.74,4.22,1.9s1.79,2.64,2.37,4.12c1.23,3.16,1.99,6.5,2.24,9.89,.19,2.46,.08,5.03-1.02,7.24-1.12,2.25-3.21,3.93-5.52,4.92s-4.85,1.34-7.37,1.44l-2-.45Z"/>
            <path class="cls-1" d="M257.5,565.67c-2.55-.47-3.8-2.77-4.68-5-.95-2.41-2.05-5.15-1.58-7.79,.41-2.32,1.88-4.3,3.41-6.01,1.7-1.89,3.57-3.63,5.57-5.2s4.22-3.06,6.54-1.22c1.94,1.54,2.78,4.36,3.46,6.63,.77,2.58,1.26,5.26,1.35,7.95,.08,2.46-.24,5.01-1.89,6.96-1.77,2.09-4.36,3.17-7,3.68-1.05,.2-2.36,.47-3.38,.39-.6-.05-1.22-.27-1.8-.4-1.88-.42-2.68,2.47-.8,2.89,.62,.14,1.25,.3,1.88,.42,1.41,.27,3.07-.08,4.47-.32,2.93-.51,5.78-1.67,7.98-3.72,4.87-4.54,3.89-12.17,2.28-17.98-.8-2.9-1.88-6.23-4.13-8.36s-5.35-2.61-8.14-1.12-5.2,3.83-7.34,6.03-4.22,4.65-5.12,7.62c-1.09,3.57,.11,7.21,1.43,10.54,1.23,3.09,3.16,6.24,6.69,6.89,1.89,.35,2.7-2.54,.8-2.89Z"/>
          </g>
        </g>
        <g>
          <path class="cls-6" d="M392.87,97.15c-1.41,6.83-2.87,13.8-6.41,19.81-2.78,4.71-6.71,8.63-9.95,13.04-3.6,4.92-6.31,10.42-8.96,15.91-22.35,46.23-42.17,93.67-65.44,139.44l.34-.46c-10.01-.54-19.42,4.81-27.16,11.18s-14.54,13.95-23.03,19.28c-4.86,3.05-10.53,5.64-13.13,10.75-3.27,6.43-.19,14.55,4.98,19.58s12.04,7.84,18.41,11.21c3.26,1.73,6.64,3.88,7.95,7.32,.73,1.92,.73,4.03,.67,6.09-.12,4.57-.45,9.13-.98,13.67-.49,4.15-1.17,8.36-2.99,12.12-3.64,7.5-11.27,12.19-18.9,15.54-4.64,2.04-9.75,3.76-14.69,2.64s-9.28-6.16-7.91-11.03c1.43-5.05,7.49-6.9,12.64-7.94-3.17,.85-6.61,.63-9.64-.61-1.52-.62-3.11-1.77-3.17-3.41-.06-1.86,1.83-3.13,3.53-3.9,3.08-1.4,6.3-2.45,9.61-3.15-3.57-.65-5.81-5.18-4.15-8.41,4.67-2.31,9.43,6.52,14.14,4.31-1.92-5.01-5.67-9.3-10.37-11.88-3.9-2.14-8.35-3.11-12.28-5.17-8.72-4.58-13.77-13.83-18.33-22.56-.52-1-1.05-2.03-1.17-3.16-.16-1.52,.45-3,1.1-4.39,7.84-16.58,22.88-28.42,34.41-42.69,2.57-3.18,4.98-6.5,7.76-9.5,4.81-5.17,10.66-9.29,15.55-14.38,14.53-15.12,17.98-34.83,21.99-55.41l.52-1.43c2.44-16.91,2.57-34.15,.39-51.1-.79-6.18-1.9-12.34-2.1-18.57-.58-18.09,6.43-35.46,13.31-52.21-6.75-2.43-14.9-.28-19.58,5.15-2.64,3.07-4.16,6.94-5.36,10.8-3.54,11.4-4.69,23.54-3.38,35.4,.61,5.48,1.74,10.92,1.94,16.43,.31,8.28-1.7,16.98-7.24,23.14-5.54,6.16-15.07,9.07-22.51,5.42-2.34-1.15-4.37-2.86-6.19-4.73-10.57-10.8-14.54-26.54-15.11-41.65-.15-3.91-.09-7.87,.77-11.69,.95-4.19,2.85-8.1,4.73-11.97,3.24-6.65,6.48-13.29,9.72-19.94,7.21-14.8,15.25-30.49,29.65-38.47,11.81-6.55,26.24-6.62,38.11-.18l.53-.46c3.45-7.64,11.46-12.42,19.67-14.13s16.7-.81,25.03,.1c14.88,1.62,30.18,3.37,43.34,10.49,5.42-9.71,14.24-17.85,24.98-20.74,7.28-1.96,14.98-1.45,22.47-.56,7.64,.91,15.7,2.42,21.36,7.63,2.5,2.3,4.38,5.19,5.95,8.2,5.59,10.69,7.56,23.23,5.51,35.11-1.02,5.93-3,11.66-5.01,17.33-1.33,3.76-2.71,7.57-5.01,10.83-4.75,6.72-13.45,10.4-21.58,9.13-1.87-.29-3.78-.88-5.1-2.23-1.91-1.98-2.06-5.05-1.77-7.79,.65-6.2,2.88-12.1,4.32-18.16s2.04-12.65-.47-18.35c-2.36-5.35-7.3-9.32-12.83-11.22-5.53-1.9-11.59-1.88-17.32-.74-4.94,.98-9.98,2.97-12.99,7-3.01,4.03-3.49,9.41-3.25,14.44s1.08,10.1,.27,15.07"/>
          <path class="cls-21" d="M302.45,283.38c-16.1-.66-28.16,11.46-39.2,21.43-3.12,2.82-6.32,5.57-9.79,7.96-2.96,2.03-6.18,3.66-9.12,5.72-5.59,3.9-8.95,9.43-7.76,16.4s6.23,12.43,12,16.19c3.21,2.1,6.66,3.78,10.08,5.5,3.21,1.62,6.92,3.2,9.21,6.08,2.71,3.4,1.82,8.54,1.58,12.58-.27,4.62-.62,9.32-1.56,13.85-1.65,7.98-6.51,13.59-13.39,17.7-6.49,3.87-17.8,9.88-24.67,3.9-2.91-2.54-4.02-6.69-1.14-9.71,2.53-2.65,6.59-3.53,10.04-4.24l-.8-2.89c-2.2,.54-4.45,.61-6.66,.08-1.5-.36-5.5-1.6-3.76-3.78,1.09-1.37,3.52-2.04,5.06-2.61,2.12-.78,4.28-1.39,6.49-1.87,1.44-.31,1.42-2.56,0-2.89-2.01-.47-4.33-2.97-3.56-5.25,.25-.75,.62-.68,1.42-.5,.89,.21,1.71,.74,2.47,1.23,2.83,1.82,6.04,4.79,9.66,3.31,.68-.28,1.38-1.02,1.05-1.85-1.79-4.47-4.65-8.32-8.55-11.17-4.55-3.33-10.16-4.28-15.05-6.92-4.44-2.4-7.94-6.14-10.79-10.25-1.48-2.13-2.81-4.36-4.07-6.63s-3.06-4.71-3.58-7.13c-.56-2.61,1.75-5.86,2.99-8.03s2.68-4.41,4.18-6.52c3.13-4.38,6.67-8.45,10.31-12.41s7.2-7.63,10.74-11.5c3.81-4.15,7.3-8.52,10.81-12.92,7.03-8.8,16.73-14.87,23.6-23.8,6.16-8,10.08-17.39,12.8-27.07,1.42-5.05,2.54-10.17,3.57-15.31,.9-4.48,2.1-8.97,2.68-13.49,1.61-12.59,1.95-25.33,1.01-37.99s-3.99-24.7-2.86-37.2c1.1-12.11,5.18-23.75,9.62-34.98,1.1-2.78,2.24-5.55,3.37-8.31,.32-.78-.36-1.61-1.05-1.85-8.66-2.95-18.38,.67-23.14,8.42-2.74,4.45-4.16,9.76-5.32,14.81-1.31,5.71-2.07,11.56-2.24,17.42s.32,11.38,1.13,17.03,1.69,11.31,1.16,17.03c-.91,9.85-6.16,19.77-16.27,22.53-4.6,1.26-9.37,.65-13.32-2.07-4.28-2.96-7.66-7.46-10.23-11.93-4.91-8.54-7.16-18.43-7.89-28.19-.44-5.92-.57-11.97,1.28-17.68s4.89-11.05,7.5-16.41c4.69-9.63,9.11-19.5,14.63-28.69s12.49-17.73,22.24-22.52c10.99-5.39,24.1-5,34.86,.73,.63,.33,1.3,.22,1.82-.23,.68-.6,.97-1.24,1.4-2.04,.7-1.29,1.53-2.51,2.51-3.61,1.74-1.97,3.8-3.61,6.07-4.93,5.34-3.12,11.45-4.32,17.57-4.5,6.69-.19,13.38,.67,20.01,1.41s12.64,1.51,18.86,2.83c7.06,1.5,13.95,3.68,20.34,7.08,.71,.38,1.64,.19,2.05-.54,4.59-8.11,11.48-15.2,20.22-18.75,9.82-3.99,21.42-2.88,31.61-.96,4.61,.87,9.25,2.24,13.07,5.05,4.18,3.08,6.83,7.84,8.87,12.51,4.26,9.76,5.58,20.87,3.64,31.35-1.03,5.57-2.87,10.95-4.76,16.28-1.73,4.89-3.54,9.87-7.36,13.54-3.29,3.16-7.67,5.22-12.2,5.77-2.12,.26-4.35,.22-6.43-.27-2.96-.69-4.54-2.53-4.74-5.57-.34-5.24,1.67-10.71,3.07-15.69,1.39-4.96,2.68-10.05,2.58-15.25-.18-9.48-5.82-17.19-14.59-20.65-5.41-2.14-11.4-2.35-17.1-1.49-4.92,.74-9.99,2.28-13.78,5.64-9.42,8.34-3.74,21.67-5.31,32.28-.28,1.89,2.61,2.7,2.89,.8,.86-5.8-.22-11.48-.27-17.29-.04-4.99,.89-10.22,4.81-13.66s9.75-4.74,14.85-5.13c5.43-.42,11.04,.34,15.82,3.08,4.43,2.54,7.85,6.57,9.08,11.58,1.34,5.46,.29,11.18-1.12,16.51s-3.29,10.83-3.85,16.47c-.44,4.47,.65,8.99,5.21,10.76,8.42,3.26,19.17-.78,24.75-7.44,3.29-3.92,5.01-8.77,6.69-13.53,1.92-5.44,3.79-10.95,4.77-16.65,1.83-10.62,.6-21.71-3.52-31.67-1.97-4.75-4.49-9.58-8.32-13.11-3.47-3.19-7.85-5.13-12.36-6.31-5.54-1.46-11.42-2.08-17.12-2.41-6.25-.37-12.66,0-18.59,2.15-9.98,3.63-17.92,11.41-23.09,20.55l2.05-.54c-11.74-6.26-24.92-8.48-38-10.01-13.08-1.54-27.45-3.92-39.78,2.1-2.76,1.35-5.35,3.11-7.54,5.26-1.03,1.01-1.96,2.12-2.8,3.29-.78,1.09-1.28,2.72-2.27,3.59l1.82-.23c-9.46-5.04-20.58-6.36-30.92-3.42-9.88,2.81-17.98,9.34-24.21,17.35s-10.75,17.18-15.18,26.28c-2.9,5.96-5.81,11.92-8.71,17.87-2.61,5.35-5.19,10.67-5.95,16.64-.71,5.6-.31,11.4,.39,16.99,.63,5.07,1.66,10.09,3.3,14.94s3.76,9.36,6.61,13.49,6.57,8.52,11.19,10.9c8.31,4.29,18.85,1.07,24.82-5.73,7.21-8.22,8.26-19.54,6.95-29.96-.78-6.23-1.84-12.37-1.94-18.66s.47-12.39,1.71-18.46c1.14-5.58,2.56-11.6,5.65-16.46,2.73-4.31,7.32-7.1,12.4-7.62,2.45-.25,4.86,.06,7.19,.85l-1.05-1.85c-4.63,11.25-9.27,22.62-11.7,34.58-1.15,5.69-1.81,11.5-1.69,17.31,.13,6.35,1.24,12.62,2.07,18.91,1.66,12.7,2.02,25.58,1.08,38.36-.23,3.13-.54,6.26-.92,9.38-.29,2.3-.89,4.38-1.33,6.64-1.01,5.21-2.02,10.43-3.24,15.6-2.34,9.92-5.49,19.75-11.01,28.39-2.97,4.65-6.6,8.74-10.68,12.43-4.33,3.92-8.95,7.51-12.83,11.9s-7.2,9.09-11.05,13.44c-3.55,4.01-7.26,7.86-10.92,11.77-7.08,7.58-14.07,15.49-18.78,24.81-1.14,2.26-2.38,4.68-1.88,7.27,.46,2.41,2.06,4.73,3.22,6.87,2.38,4.38,4.98,8.68,8.28,12.44s7.34,6.62,12.02,8.51c5.27,2.13,10.45,3.67,14.42,7.99,1.78,1.93,3.18,4.19,4.16,6.63l1.05-1.85c-2.3,.95-4.5-1.06-6.29-2.29-1.93-1.33-4.15-2.78-6.6-2.39-2.89,.46-3.29,3.61-2.67,6.06,.69,2.73,2.8,4.97,5.57,5.61v-2.89c-3.42,.74-6.8,1.8-9.97,3.3-2.08,.98-4.32,2.64-4.27,5.19,.05,2.71,2.62,4.28,4.88,5.09,3.17,1.13,6.58,1.17,9.83,.38,1.89-.46,1.08-3.28-.8-2.89-5.78,1.19-13.47,3.68-13.97,10.69-.55,7.65,7.73,12.08,14.38,11.51,4.14-.35,8.04-1.91,11.79-3.62,3.46-1.58,6.82-3.42,9.86-5.73,2.87-2.17,5.43-4.74,7.35-7.79,2.23-3.56,3.31-7.66,3.92-11.78,.68-4.57,1.07-9.19,1.29-13.8,.19-4.03,.58-8.41-1.85-11.9-2.14-3.08-5.57-4.91-8.82-6.58-3.6-1.85-7.27-3.57-10.71-5.69-6.42-3.96-12.94-10.74-11.76-18.98s10.08-11.02,15.85-15.03c14.74-10.24,27.2-29.62,47.2-28.79,1.93,.08,1.93-2.92,0-3h0Z"/>
        </g>
        <g>
          <g>
            <polygon class="cls-12" points="497.08 526.85 449.94 332.4 435.8 335.93 480.59 526.85 497.08 526.85"/>
            <g>
              <path class="cls-13" d="M447.68,294.55c3.57,4.03,4.42,9.72,5.09,15.06,.36,2.89,.7,5.89-.18,8.66-1.27,4-4.95,6.87-8.92,8.25s-8.25,1.49-12.44,1.6c-5.8,.14-11.59,.29-17.39,.43-.86,.02-1.78,.06-2.48,.55-.65,.45-1,1.22-1.24,1.97-.64,2.06-.6,4.25-.56,6.41,.01,.51,.03,1.06,.31,1.49,.22,.34,.56,.57,.9,.79,1.18,.77,2.37,1.54,3.71,1.99,2.13,.71,4.44,.54,6.67,.35,6.07-.52,12.15-1.11,18.24-1.27,5.38-.15,10.82,.03,16.08-1.13s10.44-3.87,13.22-8.47c2.32-3.84,2.72-8.59,2.02-13.01s-2.42-8.62-4.13-12.76c-1-2.42-2-4.85-3.33-7.1-1.64-2.78-3.76-5.25-5.94-7.63-.38-.41-.78-.83-1.31-1-.41-.13-.86-.09-1.29-.04-1.7,.21-3.38,.62-4.99,1.21l-2.03,3.67Z"/>
              <path class="cls-19" d="M446.62,295.61c2.11,2.46,3.16,5.56,3.81,8.69s1.25,6.79,1.22,10.14c-.08,7.41-6.86,10.96-13.42,11.77-3.79,.47-7.66,.41-11.48,.51s-7.95,.2-11.92,.29c-1.44,.04-2.97-.02-4.23,.78-1.4,.9-1.97,2.66-2.26,4.21-.3,1.65-.33,3.33-.29,5,.04,2.04,.59,3.14,2.31,4.26,1.29,.84,2.65,1.62,4.14,2.04,1.87,.52,3.84,.48,5.75,.34,3.91-.29,7.82-.7,11.73-.97,7.61-.53,15.43,.07,22.95-1.37,6.02-1.15,12.15-4.21,15.26-9.72,3.49-6.17,2.53-13.65,.34-20.07-1.33-3.9-2.9-7.81-4.7-11.51s-4.2-6.76-6.88-9.73c-1.23-1.36-2.3-2.31-4.25-2.13-1.06,.1-2.12,.31-3.15,.57-.87,.22-2.23,.43-2.89,1.08-.5,.5-.8,1.32-1.13,1.93l-1.13,2.05c-.93,1.69,1.66,3.21,2.59,1.51l2.03-3.67-.9,.69c1.52-.55,3.15-1.05,4.77-1.18,.78-.06,1,.23,1.5,.78,.55,.59,1.09,1.2,1.62,1.81,2.12,2.45,3.94,5.08,5.34,8.01s2.62,6,3.75,9.06,2.07,6.1,2.33,9.28c.5,5.93-1.43,11.58-6.53,14.96s-11.33,4-17.32,4.16c-6.85,.18-13.65,.46-20.48,1.05-3.12,.27-6.71,1.04-9.79,.18-1.24-.35-2.82-1.08-3.78-1.97-.59-.55-.47-1.1-.48-1.91-.01-.92-.02-1.85,.07-2.78,.1-1.04,.22-3.01,1.29-3.55,.53-.27,1.35-.17,1.93-.19,.99-.03,1.99-.05,2.98-.07,3.48-.09,6.96-.17,10.43-.26,6.27-.15,12.98,.11,18.74-2.75,2.63-1.31,5.04-3.34,6.51-5.91,1.68-2.94,1.82-6.3,1.49-9.59-.64-6.27-1.5-13.01-5.75-17.95-1.26-1.47-3.37,.66-2.12,2.12Z"/>
            </g>
            <g>
              <path class="cls-9" d="M481.15,549.17c-1.62-1.47-3.26-2.95-4.53-4.74-1.1-1.55-1.89-3.3-2.68-5.03-1.01-2.23-2.02-4.46-3.04-6.69-.58-1.28-1.17-2.58-1.49-3.95-.25-1.07-.31-2.3,.38-3.15,.37-.46,.9-.75,1.42-1.02,7.65-3.97,16.14-6.3,24.74-6.81,1.02-.06,2.06-.09,3.05,.15,2.77,.67,4.65,3.35,5.44,6.09s.74,5.65,1.15,8.47c.32,2.19,.91,4.39,.66,6.6-.38,3.4-2.92,6.46-6.2,7.44l-18.9,2.64Z"/>
              <path class="cls-17" d="M482.21,548.1c-1.63-1.47-3.31-2.96-4.54-4.8-1.29-1.93-2.18-4.12-3.14-6.23-1.01-2.23-2.11-4.44-3.02-6.71-.37-.93-.85-2.05-.77-3.08s1.2-1.4,2.03-1.81c4.08-2.04,8.39-3.59,12.82-4.65,2.22-.53,4.47-.95,6.74-1.22,2.08-.25,4.76-.81,6.77-.08,3.9,1.42,4.36,6.57,4.67,10.05,.21,2.4,.74,4.76,.97,7.15,.19,1.99-.11,3.86-1.27,5.52-2.42,3.47-6.83,3.25-10.59,3.78-4.04,.57-8.09,1.13-12.13,1.7-1.9,.27-1.09,3.16,.8,2.89,4.04-.57,8.09-1.13,12.13-1.7l6.2-.87c2.74-.38,5.22-2.55,6.56-4.89,2.53-4.41,.7-9.55,.28-14.27-.39-4.34-1.32-9.36-5.5-11.69-2.12-1.18-4.51-1.01-6.85-.82-2.62,.22-5.23,.6-7.8,1.14-5.01,1.05-9.88,2.73-14.5,4.95-2.3,1.11-4.46,2.27-4.33,5.17s1.74,5.52,2.87,8.04c1.24,2.74,2.36,5.6,3.88,8.2s3.48,4.43,5.59,6.34c1.43,1.29,3.56-.82,2.12-2.12Z"/>
            </g>
            <g>
              <g>
                <path class="cls-9" d="M462.97,599.47c-2.83-5.84-5.66-11.68-8.48-17.52-5.28-10.91-10.67-22.23-11.09-34.35,5.27-1.74,10.98-1.12,16.53-1.06,15.69,.19,31.04-4.19,46.12-8.52,10.2-2.93,20.81-6.1,28.52-13.38,4.33,23.03,7.03,46.37,8.08,69.78,.12,2.68,.22,5.39-.33,8.02-.24,1.14-.63,2.32-1.49,3.1-.74,.67-1.74,.98-2.7,1.26-9.85,2.86-19.95,4.88-30.14,6.04-6.52,.74-13.07,1.14-19.62,1.43-5.42,.25-10.96,.41-16.18-1.09-3.27-.95-6.41-2.59-8.7-5.11l-.53-8.6Z"/>
                <path class="cls-17" d="M464.27,598.71c-4.12-8.51-8.4-16.96-12.29-25.58-3.65-8.08-6.72-16.59-7.07-25.53l-1.1,1.45c6.28-1.99,13.01-.85,19.48-1.03,6.68-.19,13.33-1.14,19.86-2.49,6.45-1.33,12.81-3.06,19.14-4.87,5.73-1.63,11.51-3.19,17.08-5.33,5.94-2.28,11.59-5.26,16.27-9.63l-2.51-.66c3.9,20.81,6.48,41.86,7.7,63,.15,2.6,.3,5.2,.38,7.8,.08,2.42,.23,5.22-.71,7.52-.85,2.08-3.87,2.32-5.78,2.84-2.55,.69-5.12,1.33-7.7,1.91-10.14,2.28-20.42,3.59-30.79,4.25-5.77,.36-11.64,.87-17.42,.45-5.21-.38-10.59-1.87-14.25-5.8l.44,1.06c-.18-2.87-.35-5.73-.53-8.6-.12-1.92-3.12-1.93-3,0,.15,2.48,.31,4.96,.46,7.44,.02,.36,.02,.73,.07,1.08,.15,1.12,1.08,1.85,1.91,2.55,2.04,1.71,4.4,2.94,6.91,3.78,5.79,1.94,12.03,1.71,18.04,1.43,6.47-.3,12.93-.7,19.37-1.44s12.49-1.75,18.65-3.1c3.13-.69,6.24-1.46,9.33-2.31,2.58-.71,5.48-1.23,6.81-3.84s1.27-5.75,1.21-8.5c-.07-3.17-.27-6.34-.46-9.5-.39-6.54-.91-13.08-1.56-19.6-1.44-14.48-3.51-28.91-6.19-43.21-.22-1.16-1.74-1.37-2.51-.66-8.38,7.82-19.91,10.73-30.64,13.8-12.62,3.61-25.45,7.1-38.64,7.61-7.05,.27-14.39-1.01-21.24,1.17-.61,.19-1.13,.77-1.1,1.45,.36,9.19,3.4,17.88,7.11,26.21,3.97,8.91,8.41,17.63,12.67,26.41,.84,1.74,3.43,.22,2.59-1.51Z"/>
              </g>
              <path class="cls-17" d="M494.82,555.42c-.38,11.71,1.5,23.44,5.54,34.43,.66,1.8,3.56,1.02,2.89-.8-3.96-10.77-5.81-22.17-5.44-33.64,.06-1.93-2.94-1.93-3,0h0Z"/>
            </g>
          </g>
          <g>
            <g>
              <g>
                <g>
                  <path d="M635.02,600.44c2.65-3.29,6.01-6.01,9.78-7.92,1.52-.77,3.11-1.41,4.57-2.29,1.84-1.11,3.46-2.6,5.37-3.58,5.6-2.88,12.55-.87,17.84,2.55,2.17,1.41,4.39,3.11,6.98,3.12,1.33,0,2.62-.45,3.86-.92,6.61-2.52,13.08-5.77,20.1-6.6,3.76-.44,7.6-.17,11.26,.8,2.51,.67,4.94,1.66,7.51,2.09,4.52,.76,9.35-.25,13.61,1.43,3.12,1.23,5.54,3.77,8.52,5.3,1.77,.91,3.71,1.45,5.55,2.22,.43,.18,.88,.39,1.09,.8,.19,.37,.14,.81,.08,1.23-.26,1.82-.52,3.64-.78,5.46-.07,.49-.16,1.02-.54,1.33-.46,.39-1.15,.29-1.74,.16-6.06-1.29-12.12-3.01-18.32-2.9-6.2,.12-12.75,2.44-16.18,7.6-.38,.57-.74,1.19-1.35,1.49-.6,.3-1.3,.22-1.96,.14-9.14-1.15-18.28-2.3-27.42-3.45-3.31-.42-6.65-.84-9.76-2.05-2.03-.79-3.93-1.9-5.98-2.64-2.74-.98-5.67-1.27-8.57-1.5-7.54-.58-15.1-.76-22.66-.54l-.85-1.36Z"/>
                  <path d="M636.08,601.5c2.39-2.93,5.26-5.38,8.57-7.2,1.79-.99,3.72-1.71,5.48-2.77,1.66-1,3.12-2.3,4.81-3.27,3.25-1.88,7.1-1.77,10.61-.72,1.78,.53,3.46,1.3,5.07,2.23s3.18,2.17,4.91,3.01,3.44,1.23,5.32,.95c1.98-.3,3.87-1.2,5.72-1.94,3.84-1.55,7.66-3.21,11.65-4.35s8.21-1.63,12.4-1.12,8.12,2.46,12.34,2.99c4,.5,8.27-.27,12.13,1.13,3.47,1.25,6.05,4.19,9.4,5.7,.96,.43,1.94,.8,2.93,1.15,.43,.16,.87,.31,1.3,.48,.18,.07,.47,.13,.62,.25,.37,.29,.29,.25,.28,.73,0,.97-.28,2-.42,2.96-.09,.6-.08,2.36-.55,2.52-.31,.11-1.26-.26-1.57-.33-.47-.1-.93-.21-1.4-.31-1.09-.25-2.18-.49-3.27-.73-2.18-.47-4.36-.9-6.57-1.2-7.03-.95-14.58-.26-20.29,4.34-1.28,1.03-2.35,2.25-3.27,3.6-.57,.83-.8,1.01-1.82,.91-1.21-.12-2.42-.3-3.63-.45-4.41-.55-8.81-1.11-13.22-1.66s-8.89-1.04-13.31-1.69c-2.02-.3-4.04-.69-5.97-1.35-2.06-.7-3.96-1.79-5.97-2.61-3.88-1.58-8.16-1.79-12.3-2.06-4.51-.3-9.03-.45-13.55-.46-2.22,0-4.44,.03-6.65,.09l1.3,.74-.85-1.36c-1.02-1.63-3.62-.13-2.59,1.51,.72,1.15,1.11,2.09,2.64,2.08,2.38,0,4.76-.09,7.15-.07,4.85,.03,9.69,.23,14.53,.59,2.32,.17,4.65,.37,6.91,.95s4.21,1.65,6.3,2.57c4.16,1.83,8.6,2.32,13.06,2.89,4.81,.61,9.63,1.21,14.44,1.82,2.37,.3,4.73,.6,7.1,.89,1.14,.14,2.28,.29,3.43,.43s2.26,.35,3.34-.07c1.63-.63,2.33-2.5,3.47-3.72,1.23-1.32,2.7-2.35,4.3-3.16,3.32-1.68,7.1-2.25,10.79-2.16,4.65,.12,9.18,1.21,13.7,2.22,1.77,.4,4.43,1.51,6,.07,.7-.64,.86-1.56,.99-2.45,.18-1.21,.34-2.43,.52-3.64,.28-1.99,.66-3.99-1.5-5.02-1.97-.94-4.13-1.42-6.06-2.48-3.55-1.94-6.34-4.92-10.41-5.84-4.3-.98-8.77-.12-13.06-1.13-2.24-.53-4.39-1.38-6.62-1.94s-4.46-.86-6.71-.93c-9.22-.3-17.19,4.06-25.61,7.08-2.13,.76-3.9,.79-5.91-.29-1.81-.98-3.43-2.26-5.25-3.22-3.47-1.84-7.44-3.11-11.4-2.88-1.91,.11-3.76,.56-5.49,1.38-1.95,.92-3.56,2.39-5.37,3.53s-3.92,1.94-5.84,3c-1.79,.98-3.46,2.15-5.03,3.46s-2.9,2.68-4.15,4.22,.9,3.62,2.12,2.12Z"/>
                </g>
                <path d="M640.5,595.96c-3.57-5.41-7.32-10.91-12.57-14.84-5.75-4.31-13.56-5.74-20.61-4.69-3.76,.56-7.45,2.49-9.2,6-.86,1.72,1.73,3.24,2.59,1.51,1.89-3.8,6.22-4.76,10.13-4.78,4.18-.02,8.51,.5,12.26,2.45,6.56,3.41,10.85,9.86,14.81,15.86,1.06,1.6,3.66,.1,2.59-1.51h0Z"/>
                <path d="M668.03,587.08c-1.14-4.67-4.33-8.53-8.3-11.14-4.57-3-10.03-4.17-15.39-4.74-1.92-.2-1.9,2.8,0,3,8.49,.91,18.53,4.38,20.8,13.68,.46,1.87,3.35,1.08,2.89-.8h0Z"/>
                <path d="M664.5,572.82c3.14-2.29,6.91-3.06,10.73-3.27s8.04-.31,11.87,.36,7.15,2.67,8.81,6.46c1.79,4.1,1.43,8.76,1.15,13.11-.13,1.93,2.87,1.92,3,0,.47-7.14,.46-15.65-6.13-20.17-2.81-1.92-6.31-2.5-9.64-2.71s-7-.26-10.45,.05c-3.85,.34-7.67,1.27-10.84,3.58-1.54,1.13-.05,3.73,1.51,2.59h0Z"/>
                <path d="M698.28,575.22c3.61-3.43,8.44-7.3,13.74-5.38,.76,.28,1.64-.31,1.85-1.05,.23-.83-.28-1.57-1.05-1.85-6.35-2.3-12.29,2-16.66,6.15-1.4,1.33,.72,3.45,2.12,2.12h0Z"/>
                <path d="M738.55,591.03c-1.16-6.9,.12-16.02,7.58-18.88,3.48-1.33,7.72-1.35,11.39-.99s6.99,1.79,8.46,5.17c.77,1.77,3.35,.24,2.59-1.51-1.68-3.89-5.76-5.92-9.76-6.5-4.42-.64-9.69-.59-13.88,1.1-3.8,1.53-6.63,4.69-8.21,8.42-1.88,4.44-1.85,9.31-1.06,13.99,.32,1.9,3.21,1.09,2.89-.8h0Z"/>
                <path d="M749.68,601.66c3.06-1.86,6.45-2.89,9.94-3.59s7.27-1.26,10.92-1.51,7.22-.08,10.36,1.69c2.74,1.55,4.76,4.12,5.68,7.13,.57,1.84,3.46,1.06,2.89-.8-1.06-3.45-3.26-6.44-6.28-8.44-3.33-2.21-7.43-2.79-11.35-2.65-4.06,.14-8.19,.78-12.19,1.52s-7.98,1.92-11.49,4.06c-1.65,1-.14,3.6,1.51,2.59h0Z"/>
                <path d="M747,605.79c.96-.05,1.77,.52,2.58,.97,1.1,.62,2.21,1.23,3.31,1.85,2.17,1.21,4.34,2.42,6.51,3.63,1.69,.94,3.2-1.65,1.51-2.59-2.32-1.3-4.64-2.59-6.97-3.89-1.14-.63-2.27-1.27-3.41-1.9s-2.26-1.14-3.54-1.07c-.81,.04-1.5,.66-1.5,1.5,0,.78,.69,1.54,1.5,1.5h0Z"/>
                <path d="M703.43,611.21c3.22,1.64,6.59,2.97,10.07,3.95,2.33,.65,5.23,1.26,6.48,3.57,.92,1.7,3.51,.18,2.59-1.51-1.49-2.75-4.5-3.87-7.34-4.68-3.56-1.02-6.99-2.22-10.29-3.91-1.72-.88-3.24,1.71-1.51,2.59h0Z"/>
                <path d="M671.89,606.25c1.02,.29,1.77,1.07,2.44,1.87,.81,.96,1.54,1.99,2.26,3.01,1.52,2.13,2.87,4.38,3.48,6.95,.44,1.88,3.33,1.08,2.89-.8-.69-2.96-2.27-5.59-4.04-8.03-1.65-2.28-3.37-5.08-6.24-5.9-1.86-.53-2.65,2.36-.8,2.89h0Z"/>
                <path d="M639.32,599.44c-8.8-.49-17.99-.32-26.62,1.66-7.41,1.7-14.5,5.38-18.84,11.8-1.08,1.6,1.51,3.11,2.59,1.51,4.08-6.04,11.02-9.17,17.95-10.62,8.11-1.7,16.68-1.81,24.92-1.35,1.93,.11,1.92-2.89,0-3h0Z"/>
              </g>
              <path class="cls-16" d="M718.49,589.16c-2.2,.74-3.86,2.29-5.25,4.09-.67,.87-1.29,1.76-1.89,2.68-.69,1.04-1.31,2.14-1.63,3.36-.2,.76,.25,1.66,1.05,1.85s1.63-.24,1.85-1.05c.15-.59,.21-.73,.47-1.23,.24-.46,.52-.91,.81-1.35,.54-.82,1.1-1.64,1.69-2.42,.16-.21-.21,.26,.07-.09,.07-.09,.15-.18,.22-.27,.15-.18,.3-.36,.46-.53,.31-.34,.64-.67,.99-.98,.09-.08,.17-.15,.26-.22,.21-.17-.06,.04,.08-.06,.19-.13,.37-.26,.57-.38s.39-.23,.6-.32c.1-.05,.28-.12,.08-.04,.13-.05,.26-.1,.39-.14,.74-.25,1.31-1.04,1.05-1.85-.24-.74-1.05-1.32-1.85-1.05h0Z"/>
            </g>
            <g>
              <g>
                <g>
                  <path class="cls-10" d="M554.1,603.63c3.64-2.2,7.61-3.87,11.74-4.92,2.98-.76,6.25-1.18,9.04,.1,2.31,1.06,4,3.16,5.07,5.46,.88,1.88,1.27,4.39-.23,5.81-.64,.61-1.52,.89-2.36,1.15-2.4,.75-4.83,1.48-7.33,1.69-1.14,.1-2.31,.09-3.42-.22-1.03-.28-1.97-.79-2.89-1.32-3.29-1.89-6.43-4.01-9.41-6.36l-.2-1.41Z"/>
                  <path class="cls-14" d="M554.86,604.92c3.55-2.12,7.36-3.75,11.38-4.77,3.69-.93,7.65-1.18,10.45,1.84,1.14,1.23,2.11,2.87,2.44,4.52,.14,.69,.2,1.53-.19,2.15-.46,.74-1.43,.95-2.21,1.19-2.11,.66-4.26,1.32-6.47,1.55s-4.02-.29-5.99-1.42-4.02-2.44-5.93-3.8c-.5-.35-.99-.7-1.47-1.07-.18-.14-.36-.27-.55-.41-.07-.05-.77-.47-.56-.27,.07,.06,.03,.16-.05-.08-.04-.13-.04-.3-.06-.43l-.1-.71c-.27-1.9-3.16-1.09-2.89,.8,.06,.44,.06,.96,.19,1.39,.33,1.08,1.99,1.93,2.87,2.57,2.08,1.52,4.23,2.94,6.45,4.25,2.37,1.39,4.62,2.39,7.42,2.23,2.64-.15,5.2-.86,7.71-1.64,2.19-.68,4.24-1.62,4.79-4.06,.45-2.03-.24-4.15-1.18-5.93-2.29-4.31-6.42-6.69-11.32-6.29-5.69,.46-11.4,2.89-16.24,5.79-1.66,.99-.15,3.58,1.51,2.59Z"/>
                </g>
                <g>
                  <g>
                    <path class="cls-10" d="M405.9,617.9c-.31-6.69,3.26-13.21,8.49-17.39s11.94-6.21,18.62-6.72c8.09-.62,17.14,1.37,21.88,7.96,.41,.57,.83,1.2,1.49,1.43,.87,.3,1.8-.21,2.61-.66,9.53-5.29,22.81-2.27,29.13,6.61,9.16-8.45,24.25-9.56,34.54-2.54,4.3-4.03,9.05-7.58,14.14-10.55,2.71-1.58,5.67-3.04,8.8-2.97,3.37,.07,6.43,1.87,9.26,3.71,5.92,3.85,12.14,9.01,12.56,16.06,.17,2.9-.7,5.79-1.96,8.41-2.77,5.76-7.49,10.57-13.21,13.44-5.24,2.63-11.14,3.62-16.93,4.58-1.51,.25-3.01,.5-4.52,.75-2.47,.41-4.95,.82-7.43,1.2-5.13,.78-10.28,1.44-15.43,2.09-1.58,.2-3.16,.4-4.75,.6-8.96,1.14-18.23,2.26-26.91-.28-1.21-.35-2.41-.78-3.66-.97-1.85-.29-3.74-.05-5.6,.19-4.6,.59-9.2,1.18-13.81,1.76-4.43,.57-9.1,1.1-13.24-.58s-7.39-6.44-5.81-10.62c.4,1.54-1.46,2.64-2.99,3.05-5.99,1.61-12.65,1.65-18.16-1.2s-9.52-9.02-8.65-15.17l1.52-2.16Z"/>
                    <path class="cls-14" d="M407.4,617.9c-.25-6.99,3.74-13.48,9.43-17.33s13.05-5.57,19.98-5.38c6.03,.17,12.57,1.99,16.47,6.89,1,1.26,1.85,2.67,3.66,2.67,1.62,0,3.01-1.15,4.45-1.76,2.67-1.15,5.59-1.64,8.49-1.58,6.51,.13,13.08,3.14,16.94,8.47,.58,.8,1.59,1,2.36,.3,8.81-8.01,22.88-8.92,32.72-2.3,.56,.38,1.35,.2,1.82-.23,2.56-2.39,5.26-4.62,8.12-6.63s5.67-3.91,8.77-5.28,6.3-1.47,9.45,0c2.75,1.29,5.37,3.09,7.76,4.95,4.5,3.48,8.81,8.34,8.03,14.44-.77,6.02-5.05,11.7-9.72,15.35-5.35,4.18-11.97,5.76-18.53,6.89-7.1,1.23-14.22,2.39-21.37,3.36-7.13,.96-14.28,2.01-21.44,2.62-3.57,.31-7.17,.44-10.74,.16-1.72-.14-3.42-.38-5.1-.75-1.84-.41-3.6-1.11-5.45-1.47-4.03-.78-8.37,.3-12.38,.81s-7.94,1.14-11.92,1.45c-3.57,.28-7.63,.21-10.62-2.05-2.36-1.79-3.97-4.76-2.95-7.71h-2.89c.17,1.01-3.44,1.57-4.01,1.69-1.96,.4-3.95,.59-5.95,.56-3.79-.06-7.6-.99-10.75-3.16-2.78-1.92-4.97-4.85-5.86-8.12-.22-.82-.36-1.64-.4-2.49-.02-.37-.01-.74,0-1.1,.01-.25,.03-.49,.06-.74-.18,.38-.21,.47-.09,.3,.42-.72,.98-1.38,1.46-2.06,1.12-1.58-1.48-3.08-2.59-1.51-.47,.67-1,1.31-1.42,2.01-.71,1.18-.47,3.09-.29,4.4,.44,3.35,2.01,6.43,4.24,8.94,5.06,5.7,13.02,7.23,20.29,6.22,3.14-.44,8.95-1.32,8.21-5.73-.27-1.58-2.46-1.26-2.89,0-2.18,6.32,3.62,12.04,9.4,13.23,3.68,.76,7.42,.34,11.1-.13,4.11-.52,8.22-1.05,12.33-1.57,1.96-.25,3.94-.59,5.92-.49s3.86,.92,5.77,1.4c3.74,.93,7.62,1.26,11.46,1.22,7.89-.07,15.78-1.4,23.59-2.41s15.63-2.24,23.43-3.53c7.24-1.2,14.67-2.55,20.81-6.83,5.42-3.78,9.98-9.45,11.77-15.89s-1-12.77-5.89-17.33c-2.34-2.18-4.99-4.05-7.7-5.75-2.92-1.84-6.22-3.49-9.76-3.33s-6.87,1.92-9.9,3.74c-3.22,1.94-6.28,4.11-9.2,6.48-1.47,1.19-2.89,2.43-4.27,3.72l1.82-.23c-10.99-7.38-26.6-6.1-36.36,2.77l2.36,.3c-3.77-5.2-9.58-8.64-15.93-9.62-3.12-.48-6.29-.44-9.38,.25-1.56,.35-3.06,.88-4.52,1.54-.73,.34-1.5,.93-2.28,1.14-.82,.22-1.22-.83-1.67-1.4-4.21-5.38-11.13-7.63-17.74-8.02-7.35-.44-15.22,1.2-21.53,5.06-7.09,4.34-12.27,12.09-11.97,20.6,.07,1.93,3.07,1.93,3,0Z"/>
                  </g>
                  <path class="cls-14" d="M455.29,602.43c-4.21,3.95-7.16,9.19-8.36,14.84-.17,.79,.23,1.62,1.05,1.85,.75,.2,1.68-.25,1.85-1.05,1.1-5.18,3.73-9.88,7.59-13.51,1.41-1.33-.71-3.44-2.12-2.12h0Z"/>
                </g>
                <g>
                  <path class="cls-10" d="M502.86,651.45c-1.9,1.94-4.82,2.4-7.53,2.5-4.23,.16-8.73-.39-12.09-2.97s-5.06-7.67-2.76-11.23c1.21-1.88,3.27-3.03,5.31-3.95,4.66-2.12,10.23-3.41,14.8-1.09,2.7,1.37,4.75,3.96,5.46,6.9s.07,6.18-1.7,8.63l-1.48,1.2Z"/>
                  <path class="cls-14" d="M501.8,650.39c-1.62,1.56-3.93,1.93-6.1,2.05s-4.54,.04-6.73-.47c-4.05-.96-8-3.85-8.05-8.39-.04-4.8,5.77-6.86,9.61-7.91,4.52-1.24,9.78-.89,12.68,3.28,1.49,2.15,1.98,4.82,1.34,7.35-.25,.99-.67,2.22-1.38,2.98-.39,.42-.93,.75-1.37,1.11-1.5,1.22,.63,3.33,2.12,2.12,.48-.39,1.02-.75,1.45-1.18,.97-.97,1.59-2.58,1.96-3.86,.82-2.77,.59-5.78-.61-8.4-2.59-5.66-8.68-7.74-14.52-6.84-2.99,.46-5.93,1.56-8.6,2.97-2.49,1.32-4.73,3.32-5.42,6.15-1.34,5.47,2.49,10.62,7.37,12.65,3.07,1.27,6.48,1.58,9.78,1.45,3.11-.12,6.27-.71,8.59-2.94,1.39-1.34-.73-3.46-2.12-2.12Z"/>
                </g>
                <g>
                  <path class="cls-10" d="M389.79,636.26c4.4,3.93,9.37,7.23,14.69,9.77,1.7,.81,3.49,1.56,5.38,1.63,4.29,.17,8.04-3.29,9.63-7.27,1.07-2.68,1.27-6.01-.62-8.18-.91-1.04-2.18-1.68-3.47-2.18-3.73-1.44-7.77-1.87-11.77-2.05-3.87-.17-7.99-.05-11.22,2.09-1.23,.81-2.32,1.99-2.57,3.43l-.06,2.76Z"/>
                  <path class="cls-14" d="M388.73,637.32c4.86,4.31,10.38,8.07,16.37,10.63,2.78,1.19,5.7,1.68,8.58,.53,2.48-.99,4.52-2.86,5.95-5.09,3-4.65,3.27-11.42-2.32-14.16-2.96-1.45-6.27-2.08-9.52-2.44s-6.43-.56-9.59-.19-6.71,1.49-8.72,4.19c-1.26,1.69-1.14,3.49-1.19,5.47s2.96,1.93,3,0c.02-.95-.15-2.21,.19-3.04,.9-2.15,3.82-3.09,5.89-3.49,2.5-.48,5.12-.34,7.65-.19,2.78,.17,5.56,.52,8.24,1.33,2.28,.69,4.83,1.64,5.4,4.22,.46,2.08-.22,4.35-1.25,6.16s-2.62,3.48-4.58,4.34c-2.28,1-4.61,.48-6.81-.49-5.53-2.45-10.67-5.9-15.18-9.91-1.44-1.28-3.57,.84-2.12,2.12Z"/>
                </g>
                <g>
                  <path class="cls-10" d="M388.13,618.81c-.82,2.77-2.86,4.98-4.83,7.09-1.73,1.85-3.55,3.76-5.92,4.66-1.45,.55-3.02,.69-4.57,.7-1.79,0-3.66-.18-5.17-1.14-1.71-1.08-2.74-3.06-2.95-5.08s.33-4.06,1.23-5.87c1.94-3.9,5.62-6.89,9.83-8s8.89-.3,12.49,2.15l-.11,5.49Z"/>
                  <path class="cls-14" d="M386.68,618.41c-.61,1.9-1.8,3.49-3.11,4.97-1.24,1.39-2.51,2.8-3.92,4.02-1.49,1.29-3.19,2.09-5.16,2.29-1.86,.18-4.09,.24-5.78-.67-3.58-1.92-2.83-6.78-1.18-9.72s4.49-5.36,7.76-6.43c4.12-1.35,8.59-.63,12.18,1.74l-.74-1.3c-.04,1.83-.07,3.66-.11,5.49-.04,1.93,2.96,1.93,3,0,.03-1.33,.05-2.67,.08-4,0-.47,.07-.97,.03-1.44-.11-1.37-1.64-1.97-2.74-2.49-5.06-2.38-11.06-2.25-15.9,.63-4.58,2.72-8.53,8.15-7.9,13.71,.31,2.73,1.81,5.34,4.34,6.56s5.86,1.21,8.61,.68c3.28-.63,5.73-2.87,7.94-5.22s4.46-4.84,5.48-8.03c.59-1.84-2.31-2.63-2.89-.8Z"/>
                </g>
                <g>
                  <path class="cls-10" d="M376.87,641.79c-3.04-1.38-4.46-5.28-3.52-8.48s3.85-5.59,7.06-6.51,6.68-.52,9.87,.47c2,.62,4.05,1.58,5.13,3.37,.7,1.15,.92,2.52,1.04,3.86,.09,1,.14,2.02-.04,3.01-.62,3.39-3.86,5.83-7.23,6.52s-6.87-.02-10.21-.86l-2.1-1.38Z"/>
                  <path class="cls-14" d="M377.63,640.49c-3.14-1.52-3.84-5.54-2.1-8.39,2.2-3.62,6.71-4.67,10.67-4.21,2.06,.24,4.29,.79,6.09,1.84,1.99,1.15,2.55,3.01,2.71,5.2,.15,2.01-.19,3.77-1.63,5.24-1.23,1.26-2.86,2.06-4.58,2.41-2.7,.55-5.51,.06-8.16-.55-.74-.17-1.06-.26-1.68-.67l-1.33-.87c-1.62-1.06-3.12,1.53-1.51,2.59l1.5,.99c.83,.54,1.66,.73,2.64,.95,2.92,.66,5.93,1.06,8.91,.54,4.94-.86,9.05-4.78,8.87-9.98-.1-2.8-.67-5.66-2.92-7.53-2.02-1.67-4.74-2.48-7.28-2.93-5.3-.94-11.11,.21-14.44,4.78-3.03,4.17-2.18,10.8,2.72,13.18,1.73,.84,3.25-1.75,1.51-2.59Z"/>
                </g>
                <g>
                  <path class="cls-10" d="M391.05,608.25c3.1-1.77,6.67-2.71,10.25-2.67,2.21,.02,4.54,.46,6.22,1.9,.95,.81,1.63,1.89,2.27,2.96,1.91,3.21,3.58,6.68,3.92,10.4s-.85,7.75-3.8,10.05c-2.14,1.66-4.96,2.25-7.66,2.15s-5.34-.84-7.95-1.58c-2.63-.76-5.29-1.54-7.69-2.86-1.72-.95-3.33-2.2-4.32-3.89-1.63-2.78-1.34-6.39,.15-9.25s4-5.05,6.7-6.81l1.92-.4Z"/>
                  <path class="cls-14" d="M391.81,609.54c4.46-2.49,12.59-4.5,16.02,.59,3.05,4.53,5.78,10.59,3.7,16.05-2.37,6.2-9.42,5.83-14.76,4.42-4.9-1.3-13.18-2.95-14.02-9.09-.43-3.15,1.08-6.16,3.21-8.38,.99-1.04,2.27-2.34,3.59-2.97,.51-.24,1.28-.34,1.9-.47,1.89-.39,1.09-3.28-.8-2.89-.69,.14-1.45,.21-2.1,.47-1.49,.61-2.99,2.07-4.14,3.17-2.49,2.38-4.29,5.41-4.66,8.87s.98,6.75,3.67,8.94c2.89,2.36,6.52,3.51,10.05,4.54s7.41,2.12,11.23,1.66c3.39-.41,6.44-1.95,8.4-4.81,4.15-6.03,1.65-13.65-1.68-19.39-.99-1.71-2.07-3.42-3.76-4.53-1.53-1.01-3.37-1.43-5.18-1.59-4.21-.36-8.52,.78-12.18,2.82-1.69,.94-.18,3.53,1.51,2.59Z"/>
                </g>
                <g>
                  <path class="cls-10" d="M616.64,622.68c-1.29,.13-2.61,.26-3.85-.08-1.32-.36-2.43-1.21-3.48-2.09-.95-.8-1.88-1.65-2.44-2.75s-.69-2.5-.03-3.54c.75-1.18,2.24-1.6,3.59-1.94,1.06-.26,2.12-.52,3.18-.78,.86-.21,1.76-.42,2.64-.27,.7,.13,1.35,.49,1.91,.93,1.32,1.05,2.2,2.63,2.41,4.31s-.25,3.42-1.26,4.77l-2.67,1.44Z"/>
                  <path class="cls-14" d="M616.64,621.18c-1.17,.12-2.41,.28-3.56-.06-.91-.27-1.72-.86-2.44-1.45-1.15-.95-3.43-2.73-2.61-4.51,.33-.71,1.22-.99,1.92-1.2,1.16-.34,2.35-.59,3.53-.88,.94-.23,2.04-.64,2.99-.22,.77,.33,1.42,1.02,1.85,1.72,1.18,1.89,.98,4.14-.3,5.92l.54-.54c-.89,.48-1.78,.96-2.67,1.44-1.7,.92-.19,3.51,1.51,2.59,.63-.34,1.27-.68,1.9-1.03,.25-.13,.51-.25,.75-.4,.72-.46,1.16-1.47,1.47-2.24,1.26-3.1,.41-6.88-2.15-9.07-1.54-1.32-3.22-1.76-5.21-1.4-1.73,.31-3.53,.76-5.21,1.28s-3.12,1.41-3.76,3.07-.16,3.66,.87,5.1c1.1,1.53,2.72,2.89,4.32,3.87,1.95,1.18,4.05,1.24,6.26,1.02,.81-.08,1.5-.63,1.5-1.5,0-.75-.69-1.58-1.5-1.5Z"/>
                </g>
                <g>
                  <path class="cls-10" d="M587.18,617.89c-.85-2.11,.27-4.61,2.08-6s4.12-1.88,6.37-2.2c3.03-.43,6.31-.56,8.97,.97,.58,.33,1.11,.74,1.54,1.25,.98,1.18,1.28,2.84,.99,4.35s-1.11,2.88-2.14,4.01c-1.54,1.69-3.61,2.95-5.88,3.27-3.61,.51-7.08-1.33-10.26-3.1l-1.66-2.55Z"/>
                  <path class="cls-14" d="M588.62,617.49c-1.18-3.25,2.37-5.28,4.99-5.91,3.06-.74,7.03-1.31,9.94,.22,3.48,1.83,2.14,5.75-.18,7.97-2.64,2.53-6,2.8-9.33,1.57-1-.37-1.95-.85-2.89-1.34-.21-.11-.42-.22-.63-.34l-.31-.17c-.33-.25-.4-.25-.2,0,.03,0,.18,.28,.06,.1-.05-.07-.1-.15-.15-.22-.49-.74-.98-1.49-1.46-2.24-1.05-1.61-3.65-.11-2.59,1.51,.54,.82,1.05,1.66,1.61,2.46,.51,.73,1.38,1.07,2.16,1.48,1.12,.59,2.26,1.13,3.44,1.58,4.42,1.69,9.11,1,12.53-2.38,3.06-3.03,4.67-8.45,.87-11.63-3.51-2.93-8.68-2.48-12.86-1.65-2.37,.47-4.86,1.41-6.45,3.32-1.48,1.78-2.25,4.21-1.44,6.46,.65,1.8,3.55,1.02,2.89-.8Z"/>
                </g>
                <g>
                  <path class="cls-10" d="M574.36,625.98c-4.33,.54-8.76,.21-12.96-.97-1.31-.37-2.67-.86-3.55-1.9-.66-.78-.99-1.79-1.15-2.8-.38-2.42,.16-4.98,1.49-7.04,1.6-2.48,4.23-4.15,7.02-5.1s5.76-1.25,8.69-1.47c1.94-.15,3.89-.26,5.84-.35,1.27-.06,2.56-.1,3.81,.17,3.95,.88,6.59,4.9,7.06,8.91,.14,1.21,.12,2.44-.18,3.62-.68,2.66-2.79,4.8-5.26,5.99s-5.27,1.52-8.02,1.47l-2.79-.53Z"/>
                  <path class="cls-14" d="M574.36,624.48c-3.11,.37-6.28,.35-9.37-.19-2.44-.43-5.95-.82-6.69-3.63-1.47-5.62,3.29-9.9,8.19-11.33,3.03-.88,6.22-1.07,9.35-1.27,2.8-.18,6.33-.9,8.91,.49,4.19,2.27,5.97,8.9,2.9,12.69-1.91,2.36-4.95,3.41-7.9,3.67-1.04,.09-2.02,.17-3.03-.03l-1.96-.37c-1.89-.36-2.7,2.53-.8,2.89s3.75,.68,5.79,.5c3.39-.29,6.74-1.35,9.25-3.73,4.71-4.48,3.88-12.49-.74-16.76-2.72-2.52-5.95-2.71-9.5-2.53-3.75,.19-7.58,.34-11.27,1.1-6.44,1.33-12.65,5.88-12.41,13.09,.06,1.79,.48,3.7,1.71,5.08s2.97,1.96,4.67,2.41c4.2,1.12,8.6,1.41,12.91,.9,1.89-.22,1.92-3.23,0-3Z"/>
                </g>
              </g>
              <g>
                <path class="cls-10" d="M697.67,642.65c3.5-2.88,8.32-3.5,12.86-3.46,1.41,.01,2.85,.08,4.18,.56,2.21,.81,3.95,2.82,4.42,5.13,.11,.52,.15,1.07,0,1.58-.15,.52-.49,.97-.82,1.4-1.11,1.44-2.24,2.91-3.78,3.89-1.99,1.27-4.42,1.58-6.73,2.06-4.1,.86-8.31,2.38-12.35,1.27-1.18-.32-2.33-.89-3.18-1.77s-1.38-2.12-1.26-3.34c.11-1.12,.75-2.13,1.55-2.91s1.79-1.36,2.75-1.93l2.36-2.49Z"/>
                <path class="cls-14" d="M698.73,643.71c3.34-2.66,7.9-3.08,12.01-3.02,2.05,.03,4.06,.29,5.53,1.86,.59,.63,1.04,1.39,1.28,2.22,.38,1.33-.28,2.03-1.08,3.03-1.43,1.78-2.95,3.09-5.18,3.72s-4.44,.96-6.63,1.48c-2.41,.58-4.9,1.19-7.4,.91-1.93-.21-4.91-1.3-4.76-3.72,.14-2.22,2.66-2.86,4.01-4.13,.78-.74,1.49-1.57,2.23-2.35,1.33-1.4-.79-3.52-2.12-2.12-.77,.82-1.56,1.81-2.42,2.47-2.11,1.6-4.5,2.93-4.69,5.92s1.89,5.12,4.38,6.15c2.95,1.22,6.21,.91,9.26,.29s5.88-1.17,8.74-1.95,4.9-2.31,6.71-4.55c.83-1.04,1.81-2.1,2.06-3.44s-.2-2.81-.81-4.01c-1.1-2.18-3.18-3.83-5.54-4.4-2.98-.73-6.4-.45-9.4,.02s-5.86,1.58-8.28,3.51c-1.51,1.2,.63,3.31,2.12,2.12Z"/>
              </g>
              <g>
                <path class="cls-10" d="M781.95,623.84c-1.49-1.31-1.99-3.59-1.32-5.46s2.43-3.27,4.38-3.66c.92-.18,1.87-.16,2.8-.06,1.03,.11,2.06,.3,3.01,.71,2.1,.89,3.65,2.7,5.12,4.45,.74,.88,1.52,1.91,1.35,3.04-.12,.82-.72,1.48-1.37,1.99-2.24,1.76-5.23,2.23-8.08,2.24-1.2,0-2.6-.18-3.19-1.23l-2.7-2.02Z"/>
                <path class="cls-14" d="M783.01,622.78c-1.88-1.75-1.34-4.66,.77-5.97,1.27-.79,2.74-.81,4.18-.63,1.57,.19,2.98,.75,4.19,1.79,1.1,.95,2.12,2.08,3,3.24,.3,.4,.79,1,.63,1.54s-.82,.98-1.27,1.27c-1.24,.79-2.67,1.22-4.12,1.42-1.19,.17-2.82,.41-3.98-.01-.46-.17-.65-.58-1.04-.88-.27-.2-.54-.4-.81-.6l-1.86-1.39c-.65-.49-1.68-.11-2.05,.54-.45,.77-.11,1.57,.54,2.05,.9,.67,1.8,1.35,2.7,2.02l-.54-.54c.95,1.48,2.58,1.93,4.26,1.97s3.31-.13,4.89-.52c2.95-.72,7.44-3.13,6.06-6.87-.61-1.64-2.01-3.06-3.2-4.31s-2.54-2.32-4.14-2.97c-3.29-1.33-7.51-1.26-10.21,1.25s-2.92,7.13-.12,9.73c1.41,1.31,3.54-.8,2.12-2.12Z"/>
              </g>
              <g>
                <path class="cls-10" d="M807.71,602.54c-2.96-.47-5.76-1.9-7.87-4.02-.27-.27-.53-.55-.71-.88-.33-.61-.37-1.33-.41-2.03-.01-.28-.03-.56,.06-.82,.13-.44,.5-.76,.87-1.02,1.32-.94,2.93-1.46,4.55-1.48,.54,0,1.09,.04,1.61-.1,.88-.24,1.51-.97,2.24-1.52,2.01-1.53,4.86-1.69,7.2-.74s4.18,2.89,5.39,5.1c.74,1.35,1.25,3.09,.38,4.36-.38,.55-.96,.93-1.57,1.21-1.23,.58-2.59,.83-3.93,1.08-1.96,.36-3.93,.72-5.89,1.09l-1.93-.23Z"/>
                <path class="cls-14" d="M808.11,601.09c-1.66-.28-3.23-.81-4.68-1.67-1.29-.76-3.04-1.85-3.18-3.46-.04-.49-.08-.71,.32-1,.35-.25,.75-.47,1.14-.64,.79-.34,1.64-.5,2.5-.53,.94-.03,1.81,0,2.69-.42,.74-.35,1.31-.93,1.95-1.43,2.64-2.03,6.24-1.03,8.46,1.12,1.08,1.05,2.14,2.44,2.54,3.92,.52,1.9-1.15,2.44-2.71,2.84-2.17,.56-4.43,.86-6.63,1.27-.99,.18-1.8,.07-2.79-.05-.81-.1-1.49,.76-1.5,1.5,0,.89,.7,1.41,1.5,1.5l1.37,.16c.9,.11,1.76-.13,2.64-.3,2.43-.45,5.04-.7,7.38-1.54,2.18-.79,3.98-2.28,3.87-4.79-.1-2.09-1.32-4.03-2.61-5.6-2.76-3.36-7.4-5.21-11.58-3.42-.99,.42-1.74,1.07-2.58,1.73-.96,.75-2.16,.47-3.31,.64-1.95,.29-4.93,1.35-5.55,3.48-.81,2.79,1.04,5.06,3.09,6.62s4.39,2.56,6.88,2.98c1.89,.32,2.7-2.57,.8-2.89Z"/>
              </g>
              <g>
                <path class="cls-10" d="M841.08,603.39c-.19-.27,.01-.64,.22-.9,3.23-4.03,8.18-6.63,13.33-6.99,1.11-.08,2.24-.06,3.33,.21,1.39,.34,2.65,1.06,3.89,1.78,.74,.43,1.54,.92,1.85,1.72,.15,.39,.17,.81,.19,1.23,.03,.66,.06,1.32,.09,1.99,.02,.41,.04,.82-.06,1.21-.14,.57-.49,1.05-.88,1.49-2.34,2.58-5.93,3.57-9.35,4.25-2.57,.51-5.3,.89-7.74-.06-1.35-.53-2.51-1.44-3.64-2.33-.29-.23-.59-.47-.83-.76l-.41-2.82Z"/>
                <path class="cls-14" d="M842.52,603c.13,.53,.42-.14,.66-.39,.28-.31,.58-.61,.89-.9,.65-.61,1.34-1.17,2.08-1.68,1.44-.97,2.99-1.75,4.65-2.27s3.36-.83,5.09-.8c2,.03,3.66,.9,5.35,1.9,.82,.49,1.12,.78,1.17,1.77,.04,.85,.31,2.09-.03,2.89-.61,1.41-2.69,2.44-4.01,2.99-1.62,.67-3.35,1.07-5.07,1.4-1.87,.37-3.88,.71-5.77,.3-1.13-.25-2.1-.8-3.04-1.46-.43-.3-.85-.62-1.26-.96-.1-.08-.31-.33-.43-.37,.13,.04,.05,.55,.11,.25,.08-.4-.16-1.09-.22-1.49l-.17-1.19c-.12-.81-1.13-1.24-1.85-1.05-.86,.23-1.16,1.05-1.05,1.85,.13,.91,.14,1.94,.41,2.82,.31,1.03,1.64,1.78,2.45,2.38,1.06,.79,2.19,1.48,3.45,1.9,2.5,.83,5.22,.48,7.74,0,2.29-.43,4.56-1,6.67-2,1.87-.89,4.03-2.36,4.84-4.35,.48-1.17,.28-2.48,.22-3.71s-.19-2.39-1.07-3.35c-.7-.77-1.69-1.27-2.58-1.77-1.07-.59-2.2-1.16-3.4-1.45-2.37-.58-4.98-.28-7.32,.31s-4.8,1.71-6.85,3.18c-1.08,.77-2.1,1.63-3.01,2.6s-1.92,2-1.55,3.45c.47,1.87,3.37,1.08,2.89-.8Z"/>
              </g>
              <g>
                <path class="cls-10" d="M584.21,581.3c-.55,.03-1.1-.06-1.65-.17-3.89-.79-7.42-2.77-10.88-4.72-.24-.13-.49-.28-.61-.53-.24-.48,.11-1.03,.46-1.43,3.61-4.18,8.88-6.89,14.38-7.39,.86-.08,1.74-.11,2.59,.05,.88,.16,1.7,.52,2.5,.91,1.93,.94,3.75,2.09,5.43,3.42,.31,.25,.63,.52,.73,.91,.07,.29,0,.6-.1,.89-.71,2.05-2.72,3.36-4.68,4.29s-4.09,1.71-5.58,3.3l-2.6,.47Z"/>
                <path class="cls-14" d="M584.21,579.8c-1.99,.01-4.09-.82-5.89-1.61s-3.57-1.77-5.31-2.74l-.19-.11c-.37-.32-.47-.32-.31-.02-.28,.44,.38-.12,.34-.1,.35-.25,.65-.69,.96-.99,.66-.64,1.36-1.25,2.11-1.79,1.49-1.08,3.12-1.99,4.84-2.64s3.4-1.07,5.16-1.23c2.23-.21,3.95,.48,5.86,1.56,.81,.46,1.6,.95,2.36,1.48,.38,.26,.99,.54,1.25,.91,.31,.44,.3,.36-.06,.94-.85,1.39-2.45,2.2-3.87,2.87-1.84,.87-3.98,1.63-5.41,3.16,.18-.19,.5-.11-.03-.02-.3,.05-.6,.11-.89,.16l-1.3,.23c-1.9,.34-1.09,3.23,.8,2.89,1.06-.19,2.38-.2,3.26-.85,1.01-.76,1.88-1.46,3.04-2.03,1.07-.52,2.18-.96,3.22-1.53,1.87-1.03,3.74-2.57,4.39-4.69,.83-2.7-2.2-4.27-4.13-5.46-2.17-1.35-4.57-2.65-7.18-2.68-2.37-.03-4.85,.52-7.07,1.33s-4.33,1.93-6.22,3.36c-.94,.71-1.84,1.48-2.66,2.33-.77,.8-1.79,1.79-1.78,3,.01,1.4,1.13,2.02,2.21,2.62,1.29,.72,2.58,1.43,3.91,2.08,2.62,1.27,5.64,2.59,8.61,2.58,1.93-.01,1.93-3.01,0-3Z"/>
              </g>
            </g>
          </g>
        </g>
        <g>
          <path class="cls-6" d="M414.76,263.03c8.47,4.76,17.76,8.07,27.33,9.74-5.26,1.93-10.54,3.87-15.48,6.51-4.87,2.6-9.37,5.86-14.28,8.4-3.47,1.8-7.12,3.22-10.64,4.92-5.41,2.62-10.48,5.89-15.44,9.29-.89,.61-1.79,1.24-2.48,2.07-.8,.97-1.27,2.16-1.68,3.35-2.32,6.74-2.94,14.19-.96,21.04s6.73,13.02,13.21,15.99c-2.75-2.55-2.79-6.91-1.88-10.56s2.56-7.18,2.49-10.94c-.38,6.02-2.74,6.02-2.74,10.73,0,1.18-.53,6.02,0,7.07,.63,1.24,.27,1.55,1.43,2.32,4.8,3.2,10.6,4.48,16.25,5.68,3.5,.75,7.64,1.33,10.21-1.15,1.78-1.72,2.2-4.41,2.19-6.89-.02-5.29-1.53-10.57-4.31-15.07,7.46-3.47,12.39-11.76,11.88-19.98,4.57-3.43,10.85-2.99,16.41-4.28,6.65-1.54,12.38-5.63,17.91-9.63,3.26-2.35,6.59-4.78,8.8-8.14,4.57-6.93,3.27-16.48-1.01-23.6s-11.01-12.36-17.6-17.42c-8.23-6.34-16.47-12.67-24.7-19.01-3.02-2.32-6.78-4.78-10.36-3.48-3.93,1.42-5.04,6.34-5.69,10.48-1.53,9.59-3.85,19.06-6.92,28.27l8.07,4.26Z"/>
          <path class="cls-21" d="M414,264.32c8.61,4.81,17.98,8.18,27.69,9.89v-2.89c-3.78,1.39-7.55,2.78-11.23,4.42s-7.15,3.62-10.57,5.74-6.8,4.22-10.43,5.94-7.28,3.18-10.81,5.03-6.96,3.98-10.3,6.2c-1.57,1.04-3.2,2.05-4.65,3.26s-2.23,2.71-2.86,4.4c-2.69,7.22-3.32,15.57-1.01,22.97,2.18,6.98,7.05,13.21,13.74,16.35,1.47,.69,3.11-1.09,1.82-2.36-2.35-2.3-2.25-5.93-1.54-8.92,.92-3.85,2.59-7.48,2.58-11.51,0-1.95-2.86-1.91-3,0-.16,2.22-.85,4.01-1.73,6.01-.78,1.76-.93,3.46-1.03,5.36s-.35,3.75-.16,5.62c.2,2.04,1.18,3.69,2.9,4.78,5.11,3.21,11.3,4.6,17.17,5.71,2.59,.49,5.44,.83,7.96-.14s4.24-3.16,4.85-5.81c.74-3.19,.4-6.68-.26-9.86-.71-3.44-2.05-6.74-3.87-9.74l-.54,2.05c7.94-3.79,13.08-12.49,12.62-21.27l-.74,1.3c4.88-3.53,11.31-2.85,16.9-4.34,6.06-1.62,11.33-5.19,16.36-8.8s9.88-7.07,12.14-12.87c2.03-5.2,1.6-11.18-.25-16.36-4.22-11.84-15.42-19.28-24.95-26.61-5.75-4.42-11.5-8.85-17.25-13.27-4.3-3.31-10.42-8.94-16.16-5.34-2.34,1.47-3.61,4.05-4.35,6.63-.92,3.2-1.25,6.57-1.87,9.83-1.48,7.66-3.47,15.22-5.92,22.63-.2,.6,.13,1.4,.69,1.69,2.69,1.42,5.38,2.84,8.07,4.26,1.71,.9,3.22-1.69,1.51-2.59-2.69-1.42-5.38-2.84-8.07-4.26l.69,1.69c2.38-7.18,4.32-14.5,5.79-21.93,.63-3.22,.99-6.51,1.79-9.7,.58-2.32,1.55-5.13,3.99-6.08,3.14-1.22,6.49,1.28,8.87,3.07,3.14,2.37,6.24,4.8,9.36,7.2,6.02,4.63,12.08,9.23,18.06,13.91,9.53,7.45,20.79,18.03,17.99,31.5-1.39,6.68-6.75,10.5-11.98,14.25-5.53,3.97-11.27,7.69-18.1,8.85-3.42,.58-6.95,.74-10.27,1.8-1.54,.49-3.72,1.23-4.83,2.47-.56,.63-.41,1.38-.4,2.16,0,.84-.04,1.69-.16,2.53-.89,6.48-5.13,12.24-11.01,15.05-.72,.35-.93,1.4-.54,2.05,2.82,4.63,4.44,10.17,4.07,15.63-.15,2.21-.92,4.56-3.16,5.43-2.12,.83-4.61,.4-6.76-.04-5.24-1.06-10.69-2.21-15.34-4.96-.85-.5-1.26-.67-1.58-1.52-.08-.21-.18-.42-.26-.64-.02-.04-.16-.53-.09-.22-.06-.26-.07-.55-.08-.85-.06-1.71,.14-3.41,.22-5.11s.35-3.1,1.08-4.68c.98-2.1,1.5-4.18,1.67-6.51h-3c0,4.36-2.21,8.27-2.82,12.53-.51,3.57-.04,7.39,2.65,10.02l1.82-2.36c-5.58-2.62-9.82-7.54-11.94-13.31-2.49-6.81-2.09-14.33,.09-21.16,.53-1.65,1.09-3.25,2.44-4.41s2.92-2.07,4.39-3.05c3.08-2.04,6.23-4,9.49-5.75s6.74-3.21,10.14-4.76,6.59-3.37,9.75-5.32c3.54-2.19,7.06-4.39,10.83-6.18,3.97-1.88,8.09-3.38,12.21-4.9,1.24-.46,1.6-2.61,0-2.89-9.47-1.67-18.58-4.9-26.97-9.59-1.69-.94-3.2,1.65-1.51,2.59Z"/>
        </g>
        <g>
          <path class="cls-6" d="M355.24,120.95c18.5,2.61,36.06,11.13,49.89,23.7,3.05,2.77,5.93,5.74,8.36,9.07,3.13,4.28,5.46,9.08,7.62,13.93,4.96,11.1,9.12,22.69,10.6,34.76s.14,24.72-5.43,35.53c-.37,.71-.76,1.43-1.35,1.97-1.16,1.07-2.85,1.3-4.42,1.43-17.12,1.45-35.18-1.85-50.97,4.92-.85,.36-1.74,.76-2.66,.68-.96-.09-1.78-.7-2.53-1.32-14.05-11.46-20.76-31.2-16.62-48.85,.27-1.13,.57-2.35,.14-3.43-.33-.84-1.05-1.45-1.76-2-5.13-4.06-10.89-7.26-16.08-11.24-5.19-3.98-9.92-8.99-11.88-15.23-.3-.97-.56-2.01-1.25-2.75-.46-.5-1.08-.82-1.67-1.16-4.87-2.74-9.05-6.71-12.03-11.44"/>
          <path class="cls-21" d="M354.84,122.4c10.78,1.54,21.21,5.03,30.78,10.23s18.8,12.05,25.6,20.58c3.74,4.69,6.36,10.17,8.78,15.62s4.67,11.14,6.47,16.9c3.49,11.18,5.36,23.06,3.69,34.74-.81,5.64-2.4,11.23-4.97,16.32-.53,1.06-1.03,2.11-2.18,2.58-1.24,.51-2.72,.5-4.04,.59-2.9,.2-5.81,.27-8.72,.3-11.48,.1-23.22-.64-34.44,2.29-1.34,.35-2.67,.76-3.98,1.22s-2.76,1.34-4.17,1.61c-1.26,.24-2.21-.77-3.09-1.53-.94-.81-1.85-1.65-2.72-2.53-3.4-3.44-6.22-7.4-8.42-11.7-4.42-8.62-6.29-18.62-5.02-28.25,.15-1.16,.36-2.32,.61-3.46,.29-1.35,.72-2.73,.5-4.12-.42-2.71-3.34-4.33-5.38-5.79-4.77-3.42-9.91-6.34-14.46-10.08-4.04-3.31-7.82-7.35-9.69-12.31-.41-1.09-.66-2.25-1.17-3.3-.61-1.25-1.65-1.96-2.83-2.64-2.38-1.37-4.59-2.97-6.57-4.88-1.88-1.81-3.52-3.82-4.92-6.02-1.04-1.62-3.63-.12-2.59,1.51,3.01,4.71,7.05,8.71,11.86,11.57,1.19,.71,2.18,1.11,2.65,2.5,.45,1.31,.86,2.61,1.44,3.88,1.1,2.41,2.63,4.61,4.35,6.63,3.78,4.43,8.6,7.8,13.42,11,2.54,1.68,5.09,3.34,7.55,5.13,.99,.72,2.68,1.62,3.23,2.78s-.23,3.03-.47,4.26c-1.94,9.91-.68,20.28,3.24,29.56,1.96,4.64,4.58,8.96,7.8,12.83,1.58,1.91,3.31,3.69,5.18,5.32,.98,.85,1.98,1.79,3.18,2.32,1.43,.63,2.83,.4,4.24-.17,5.48-2.23,11.09-3.57,16.98-4.12s12.19-.5,18.29-.48c2.99,.01,5.99,.02,8.98-.07,2.83-.08,5.75-.11,8.55-.58,2.95-.5,4.43-2.33,5.69-4.9s2.38-5.46,3.22-8.31c3.41-11.54,3.02-23.89,.45-35.56-1.32-6.01-3.22-11.89-5.45-17.63s-4.69-11.62-7.67-17.09c-5.6-10.28-14.55-18.27-24.21-24.69s-19.75-10.79-30.63-13.38c-2.69-.64-5.41-1.15-8.15-1.54-.81-.12-1.6,.2-1.85,1.05-.2,.7,.25,1.73,1.05,1.85h0Z"/>
        </g>
        <g>
          <path class="cls-5" d="M368.63,264.05c-3.23-5.88-2.26-14.01,1.25-19.73,1.15-1.88,2.62-3.54,4.08-5.2,1.3-1.48,2.61-2.96,3.91-4.43,4.58-5.19,9.7-10.69,16.52-11.83,5.79-.97,11.63,1.47,16.57,4.65,3.52,2.26,6.79,4.93,9.71,7.92,1.38,1.41,2.7,2.92,3.6,4.68,.81,1.58,1.26,3.33,1.6,5.07,.42,2.11,.7,4.25,.7,6.41,0,3.97-.96,7.88-2.22,11.64-.5,1.47-1.05,2.94-1.86,4.26-1.78,2.87-4.72,4.87-7.86,6.11s-6.5,1.8-9.83,2.35c-3.38,.56-6.77,1.12-10.17,1.55-2.63,.34-5.31,.6-7.9,.1-2.53-.49-4.86-1.67-7.15-2.84-3.7-1.89-7.71-4.12-9.1-8.03l-1.85-2.67Z"/>
          <path class="cls-18" d="M369.92,263.29c-2.42-4.55-2.16-10.08-.41-14.82,.96-2.61,2.54-4.86,4.34-6.96,2.05-2.39,4.15-4.74,6.25-7.09,3.42-3.81,7.26-7.85,12.25-9.51,5.71-1.9,11.57,.12,16.53,3.07,2.58,1.53,5.02,3.31,7.3,5.27s4.45,3.92,6.05,6.32c1.69,2.56,2.31,5.77,2.66,8.78,.37,3.17,.16,6.31-.54,9.41-.64,2.88-1.45,6-2.93,8.58-1.32,2.29-3.42,3.95-5.75,5.13-2.65,1.35-5.62,2-8.53,2.54-3.16,.58-6.33,1.08-9.5,1.55-3.41,.51-7.07,1.21-10.5,.57-3.22-.6-6.27-2.32-9.09-3.91-2.28-1.29-4.63-2.86-5.84-5.27-.65-1.31-1.44-2.45-2.27-3.66-1.09-1.58-3.69-.08-2.59,1.51,.84,1.22,1.62,2.37,2.27,3.66,1.21,2.4,3.39,4.18,5.62,5.58,2.59,1.62,5.42,3.07,8.28,4.15,3.31,1.26,6.72,1.3,10.2,.89s7.03-.99,10.53-1.56,7.04-1.1,10.37-2.34c2.69-1.01,5.26-2.45,7.28-4.53,2.16-2.23,3.28-5.04,4.21-7.95,2.15-6.72,2.66-13.71,.59-20.53-.95-3.15-2.83-5.66-5.12-7.97s-4.91-4.54-7.63-6.48c-5.23-3.73-11.62-7.06-18.25-6.52-5.91,.48-10.77,3.98-14.84,8.06-2.56,2.57-4.9,5.35-7.3,8.07s-4.72,5.31-6.19,8.57c-2.67,5.92-3.13,13.06-.02,18.91,.91,1.7,3.5,.19,2.59-1.51Z"/>
        </g>
        <g>
          <g>
            <ellipse class="cls-11" cx="345.65" cy="106.72" rx="22.98" ry="31.23"/>
            <ellipse class="cls-11" cx="380.41" cy="107.3" rx="15.32" ry="21.21"/>
          </g>
          <circle cx="346.83" cy="105.54" r="5.89"/>
          <circle cx="381" cy="107.89" r="4.71"/>
        </g>
        <path class="cls-21" d="M396.22,50.48c5.61-5.27,13.41-7.23,20.86-8.06,8.04-.9,17.29-.65,23.04,5.9,1.28,1.45,3.39-.67,2.12-2.12-6.27-7.14-16.36-7.77-25.17-6.78-8.28,.93-16.75,3.09-22.98,8.94-1.41,1.32,.71,3.44,2.12,2.12h0Z"/>
        <path class="cls-21" d="M303.04,64.51c-9.02-1.1-18.31,0-26.8,3.24-3.99,1.53-7.61,3.49-10.12,7.05s-4.11,8.02-5.93,12.03c-2.31,5.06-4.62,10.13-6.93,15.19-.8,1.74,1.79,3.27,2.59,1.51,1.9-4.17,3.8-8.34,5.71-12.51s3.55-8.24,5.63-12.18c.92-1.76,2.01-3.41,3.5-4.73s3.3-2.22,5.1-2.98c4-1.68,8.25-2.83,12.54-3.48,4.86-.74,9.83-.75,14.7-.15,1.91,.23,1.9-2.77,0-3h0Z"/>
        <path class="cls-21" d="M316.91,162.27c3.37,.31,6.76,.43,10.14,.37,.81-.01,1.5-.68,1.5-1.5s-.69-1.51-1.5-1.5c-3.38,.06-6.77-.06-10.14-.37-.81-.07-1.5,.74-1.5,1.5,0,.87,.69,1.43,1.5,1.5h0Z"/>
        <path class="cls-21" d="M490.36,53.23c5.25,9.66,2.25,20.93-1.73,30.44-.32,.75,.34,1.64,1.05,1.85,.86,.25,1.53-.3,1.85-1.05,4.32-10.32,7.09-22.35,1.43-32.76-.92-1.7-3.51-.18-2.59,1.51h0Z"/>
        <path class="cls-21" d="M178.53,137.33c-4.91,14.29-3.59,30.37,3.47,43.72,.9,1.71,3.49,.19,2.59-1.51-6.69-12.67-7.81-27.87-3.17-41.41,.63-1.83-2.27-2.62-2.89-.8h0Z"/>
      </g>
    </g>
  </g>
</svg>