<?xml version="1.0" encoding="UTF-8"?>
<svg id="fix" xmlns="http://www.w3.org/2000/svg" viewBox="0 0 1000 1000">
  <defs>
    <style>
      .cls-1 {
        fill: #7a746f;
      }

      .cls-2 {
        fill: #040821;
      }

      .cls-3 {
        fill: #363838;
      }

      .cls-4 {
        font-family: FreeSansBold, FreeSans;
        font-size: 150px;
      }

      .cls-5 {
        fill: #e0ac7e;
      }

      .cls-6 {
        fill: #5e5955;
      }

      .cls-7 {
        fill: #447d87;
      }

      .cls-8 {
        fill: #564f4a;
      }

      .cls-9 {
        fill: #cad9f0;
      }

      .cls-10 {
        letter-spacing: -.01em;
      }

      .cls-11 {
        fill: #3a3a3a;
      }

      .cls-12 {
        fill: #a3b3c9;
      }

      .cls-13 {
        fill: #0d1135;
      }

      .cls-14 {
        fill: #ffc994;
      }

      .cls-15 {
        fill: #494949;
      }

      .cls-16 {
        fill: #262728;
      }

      .cls-17 {
        fill: #59a1b2;
      }

      .cls-18 {
        fill: red;
      }
    </style>
  </defs>
  <g>
    <g>
      <g>
        <path class="cls-14" d="M400.73,222.18c1.19,13.87,6.46,27.36,14.98,38.37-5.58-7.28-18.52-3.84-22.64,4.35-4.13,8.19-1.65,18.23,2.59,26.36,4.71,9.03,12.37,17.48,22.43,19.09,10.06,1.61,21.65-6.79,20.1-16.86,.36,14.51,10.94,26.38,19.84,37.84,10.39,13.38,19.22,27.98,26.23,43.41,2.57,5.65,4.97,11.54,9.12,16.16,3.79,4.22,8.82,7.12,13.97,9.48,16.96,7.77,35.85,10.27,54.49,11.17,15.35,.74,30.99,.42,45.67-4.14,27.63-8.57,49.12-31.69,60.9-58.1s14.86-55.92,14.7-84.85c-.02-3.01-.09-6.13-1.39-8.84-1.65-3.43-4.98-5.67-8.14-7.8-27.75-18.71-52.95-41.21-74.69-66.67,8-7.66,10.56-20.25,6.82-30.68-3.74-10.43-13.31-18.37-24.11-20.81-10.13-2.29-22.74,1.43-26.11,11.25-18.01-16.22-37.67-33.05-61.7-36.29-15.1-2.04-30.38,1.59-44.85,6.36-8.4,2.77-16.87,6.05-23.54,11.86-8.51,7.43-13.22,18.24-16.91,28.91-7.18,20.78-11.51,42.54-12.83,64.49l5.06,5.92Z"/>
        <path class="cls-5" d="M397.88,222.18c1.41,14.52,6.56,28.15,15.37,39.81l4.48-3.46c-6.53-7.62-18.7-5.38-24.84,1.62-8.46,9.65-4.36,24.48,1.31,34.39s15.48,19.54,27.55,18.83c10.21-.61,20.41-9,19.29-19.87-.37-3.58-5.89-3.73-5.71,0,.85,17.15,13.08,29.62,22.79,42.65,5.57,7.47,10.67,15.3,15.23,23.42,4.59,8.16,8.06,16.82,12.4,25.08,8.12,15.45,25.53,21.72,41.64,25.44,18.27,4.21,37.95,5.54,56.64,4.3,17.1-1.13,33.44-5.9,47.67-15.6,12.58-8.57,23.05-20.03,31.11-32.91,9.32-14.89,15.25-31.74,18.69-48.92,3.58-17.88,5.62-37.28,4.38-55.52-.64-9.49-7.13-13.47-14.32-18.44-8.75-6.05-17.24-12.47-25.42-19.26-16.32-13.55-31.42-28.5-45.23-44.6v4.04c14.11-14.28,11.34-37.47-4.23-49.44-12.99-9.99-36.94-11.62-43.93,6.42l4.77-1.26c-12.81-11.53-26.12-23.28-41.9-30.6-16.73-7.76-34.3-8.51-52.15-4.42-16.38,3.76-35.04,9.24-45.76,23.08-10.92,14.1-15.67,33.54-19.46,50.62-2.37,10.69-4.03,21.54-4.97,32.45-.3,3.46-1.09,6.25,1.06,9.04,1.37,1.77,2.92,3.42,4.38,5.12,2.39,2.8,6.41-1.26,4.04-4.04-.94-1.1-1.88-2.2-2.82-3.3-.41-.48-1.75-1.61-1.92-2.24s.21,.07,.19-.21c.03,.45,.69-3.33,.7-3.49,.74-8.93,1.99-17.8,3.74-26.59,3.22-16.18,7.41-33.73,15.73-48.14,8.92-15.46,25.09-21.09,41.48-25.51,16.9-4.56,34.06-5.43,50.45,1.48,16.43,6.93,30.08,19,43.19,30.79,1.7,1.53,3.98,.77,4.77-1.26,5.69-14.69,26.7-10.49,36.04-2.58,12.01,10.18,13.93,28.56,2.58,40.04-1.14,1.16-1.01,2.86,0,4.04,22.03,25.69,47.37,48,75.26,67.11,3.4,2.33,6.79,4.66,7.76,8.92s.38,9.36,.3,13.77c-.16,8.82-.67,17.64-1.68,26.4-2.02,17.52-6.19,35.08-13.77,51.07-12.8,26.98-35.83,49.84-65.71,56.2-17.55,3.74-36.44,2.8-54.16,.68-8.71-1.05-17.39-2.74-25.75-5.44-8.12-2.62-17.26-6.08-23.21-12.46-6.31-6.75-9.13-16.42-13.25-24.54-4.34-8.56-9.26-16.84-14.69-24.75-9.79-14.25-26.04-28.31-26.95-46.66h-5.71c.85,8.21-7.06,14.24-14.81,14.2-9.01-.04-16.33-7.7-20.68-14.83-4.6-7.54-8.8-18.56-4.04-27.01,3.42-6.06,12.93-9.1,17.89-3.3,2.08,2.43,6.45-.86,4.48-3.46-8.18-10.82-13.27-23.41-14.59-36.93-.35-3.62-6.06-3.66-5.71,0Z"/>
      </g>
      <g>
        <path class="cls-13" d="M365.88,206.36c-14.76-34.22-3.46-77.78,26.07-100.5,4.5-3.46,9.58-6.75,11.84-11.96s-.33-12.89-6-13.22c4.98-.65,10.21,.78,14.17,3.88,.56-5.24,2.61-10.31,5.85-14.46,.78,4.18,1.56,8.37,2.33,12.55,12.77-12.13,31.94-14.11,49.55-14.13,7.96-.01,15.99,.25,23.71,2.16,17.2,4.25,31.59,16.41,41.99,30.75,10.39,14.34,17.28,30.87,24.07,47.23-21.45-22.13-55.19-31.49-84.97-23.58,7.85,6.96,15.7,13.92,23.55,20.88-16.85-3.61-33.31-9.05-48.98-16.22-4.57,6.49-5.36,14.81-6.27,22.7-3.2,27.93-9.69,55.78-22.5,80.8-3.07,5.99-6.57,11.9-11.56,16.4-14.19,12.79-35.83,11.01-54.76,8.46,11.98-10.52,17.83-27.57,14.85-43.23l-2.93-8.51Z"/>
        <path class="cls-2" d="M368.63,205.6c-10.31-24.5-7.68-53.11,5.94-75.83,3.44-5.73,7.55-11.03,12.32-15.72,4.63-4.56,10.3-7.89,14.87-12.48,3.71-3.72,6.25-8.38,5.53-13.75-.64-4.79-3.73-9.19-8.75-9.9l-.76,5.61c4.79-.43,8.82,.68,12.73,3.49,1.37,.98,3.96,.04,4.19-1.71,.69-5.13,2.49-9.61,5.56-13.78l-5.22-.68c.78,4.18,1.56,8.37,2.33,12.55,.41,2.23,3.31,2.59,4.77,1.26,10.51-9.62,24.83-12.38,38.64-13.09,14.97-.76,30.56-.51,44.17,6.47,27.59,14.16,40.48,44.23,51.74,71.36,1.59-.93,3.18-1.85,4.77-2.78-22.57-22.86-56.64-32.27-87.75-24.31-2,.51-2.87,3.34-1.26,4.77,7.85,6.96,15.7,13.92,23.55,20.88l2.78-4.77c-16.63-3.62-32.79-8.91-48.3-15.93-1.46-.66-2.99-.38-3.9,1.02-3.84,5.88-5.22,12.5-6.1,19.37-1.04,8.18-1.98,16.35-3.45,24.47-2.92,16.23-7.22,32.29-13.59,47.52-5.82,13.91-12.8,29.15-28.02,34.52-13.2,4.66-27.91,2.86-41.47,1.06l2.02,4.87c8.83-8.03,14.54-19,16.04-30.85,1.1-8.67-.62-15.65-3.38-23.67-1.19-3.45-6.7-1.97-5.5,1.52,2.26,6.57,3.99,12.14,3.48,19.27-.83,11.42-6.24,22.03-14.66,29.69-2.04,1.86-.21,4.57,2.02,4.87,13.87,1.85,28.78,3.48,42.34-1.03,14.89-4.96,22.72-17.05,29.1-30.65,7.17-15.29,12.22-31.48,15.67-48,1.7-8.13,3.01-16.33,4.05-24.57,1.11-8.77,1.41-17.91,6.39-25.53l-3.9,1.02c15.97,7.22,32.54,12.77,49.66,16.5,2.6,.57,5.04-2.76,2.78-4.77-7.85-6.96-15.7-13.92-23.55-20.88l-1.26,4.77c29.17-7.46,61.05,1.42,82.2,22.84,1.86,1.88,5.91-.03,4.77-2.78-12.14-29.23-26.33-62.05-57-76.05-14.52-6.63-30.98-6.89-46.66-5.84-14.67,.98-29.32,4.46-40.43,14.62,1.59,.42,3.18,.84,4.77,1.26-.78-4.18-1.56-8.37-2.33-12.55-.5-2.67-3.91-2.45-5.22-.68-3.34,4.54-5.38,9.56-6.13,15.14l4.19-1.71c-4.62-3.32-9.94-4.77-15.61-4.27-2.93,.26-4.18,5.12-.76,5.61,3.2,.45,4.7,3.18,4.72,6.25,.03,3.64-2.52,6.52-5.05,8.84-4.44,4.06-9.54,7.25-13.84,11.5-8.22,8.12-14.64,17.94-19.09,28.59-9.06,21.68-9.8,46.75-.63,68.51,1.4,3.33,6.93,1.87,5.5-1.52Z"/>
      </g>
      <circle cx="453.02" cy="236.08" r="7.61"/>
      <circle cx="517.7" cy="186.62" r="7.61"/>
      <path d="M529.63,267.5c11.48-9.71,13.03-25.46,13.99-39.47,.25-3.67-5.46-3.65-5.71,0-.87,12.56-2.02,26.72-12.32,35.44-2.81,2.38,1.25,6.4,4.04,4.04h0Z"/>
      <path class="cls-5" d="M580.71,155.49c.4-.42,.81-.85,1.23-1.25,.16-.15,.32-.3,.49-.44,.11-.1,.22-.19,.34-.28-.29,.22-.31,.24-.05,.06,.18-.11,.36-.24,.55-.34,.12-.07,.24-.13,.37-.19-.36,.14-.4,.16-.1,.04,.12-.04,.7-.3,.8-.22l-.35,.04c.14-.01,.27-.02,.41-.02,.14,0,.27,0,.41,.02-.42-.06-.47-.06-.15,0,.13,.03,.26,.08,.39,.12l-.3-.13c.17-.02,.57,.31,.72,.4,.23,.15,.45,.31,.68,.47,.47,.33-.42-.37,.06,.04,.21,.18,.42,.35,.62,.53,.35,.32,.67,.67,.99,1.02,.39,.42-.31-.46,.1,.14,.13,.19,.25,.38,.37,.58,.06,.11,.12,.23,.18,.34,.13,.28,.11,.23-.06-.15,0,.13,.14,.41,.17,.54,.03,.12,.06,.24,.08,.37-.05-.45-.07-.52-.04-.2,0,.13,0,.25,0,.38-.02,.25-.02,.25,0,0,.04-.25,.03-.25-.01,0-.03,.12-.06,.23-.1,.34-.1,.29-.07,.22,.09-.19-.05,.11-.1,.21-.16,.31-.09,.15-.18,.3-.28,.45-.18,.24-.14,.19,.12-.16-.08,.09-.16,.18-.24,.27-.13,.14-.75,.87-.95,.86,.33-.26,.38-.29,.13-.11-.1,.07-.2,.14-.31,.21-.16,.11-.31,.21-.47,.31-.42,.27-.85,.51-1.28,.76-1.3,.74-1.85,2.62-1.02,3.9,.85,1.31,2.51,1.81,3.9,1.02,1.7-.96,3.4-2.06,4.6-3.62,1.47-1.91,2.08-4.35,1.35-6.7-.65-2.09-2.08-3.88-3.76-5.25-.87-.7-1.77-1.43-2.8-1.89-1.31-.59-2.61-.8-4.03-.61-2.77,.37-4.86,2.23-6.72,4.18-1.03,1.08-1.15,2.98,0,4.04s2.94,1.16,4.04,0h0Z"/>
      <path class="cls-5" d="M416.14,272.33c-2.62-.4-5.35,.26-7.1,2.38s-2.28,5.04-1.23,7.65c.84,2.09,1.9,4.4,3.59,5.95,2.08,1.91,4.81,2.31,7.52,2.51,3.13,.23,6.43-1.14,7.37-4.37,.42-1.43-.5-3.17-1.99-3.51s-3.06,.46-3.51,1.99c-.09,.3-.06,.24,.09-.16-.06,.11-.12,.22-.19,.32l.21-.29c-.09,.09-.18,.18-.27,.26,.33-.25,.37-.29,.11-.12-.08,.05-.17,.1-.25,.14-.19,.09-.11,.06,.24-.1-.12,.04-.24,.08-.37,.11-.67,.21,.5,.02-.2,.04-.33,0-.65,.02-.97,0-.49-.03-.98-.09-1.46-.15-.33-.04-.31-.04,.06,.01-.16-.02-.31-.05-.47-.07-.23-.04-.46-.08-.69-.14-.27-.06-.52-.15-.78-.24-.19-.07-.15-.05,.15,.06-.13-.07-.26-.14-.38-.22-.53-.25,.31,.34-.07-.04-.19-.19-.38-.38-.57-.58-.39-.41,.28,.45-.05-.07-.13-.21-.27-.4-.39-.61-.47-.79-1.06-1.72-1.33-2.6,.19,.62,0-.05-.06-.19-.05-.15-.09-.3-.13-.45-.07-.34-.07-.3-.01,.1-.08-.13,0-.46-.02-.61-.03-.56-.15,.57,.03-.14,.02-.1,.05-.2,.08-.29,.11-.3,.08-.26-.07,.12,.05-.02,.26-.48,.29-.53,.18-.26,.15-.23-.09,.09,.09-.1,.18-.2,.28-.29,.34-.41-.45,.22,.05-.06,.08-.05,.42-.33,.53-.3-.37,.15-.41,.17-.12,.06,.13-.04,.26-.08,.39-.11,.58-.19-.57-.02,.04-.01,.19,0,1.08,.08,.25-.04,1.47,.23,3.14-.37,3.51-1.99,.31-1.36-.42-3.27-1.99-3.51h0Z"/>
    </g>
    <g>
      <path class="cls-14" d="M182.8,301.83c-17.53-6.59-28.3-25.47-29.66-44.15s5.18-37.08,13.72-53.75c4.47-8.73,9.61-17.28,16.73-24.03,9.58-9.08,22.2-14.34,35.01-17.51,20.63-5.11,42.99-5.11,62.58,3.14,30.78,12.95,50.34,44.15,60.19,76.06,9.85,31.91,11.92,65.66,19.01,98.29,4.7,21.65,11.61,42.75,19,63.64,8.11,22.92,17.59,46.71,36.42,62.08,4.92,4.01,10.42,7.4,14.57,12.2,4.15,4.8,6.79,11.59,4.61,17.55-3.09,8.47-13.61,11.05-22.55,12.21-33.51,4.35-67.35,6.08-101.13,5.15-2.44-.07-5.23-.32-6.69-2.27-1.76-2.35-.58-5.65,.17-8.49,1.91-7.19,.57-14.82-1.28-22.03-8.28-32.35-26.41-61.85-31.86-94.79-2.99-18.07-2.96-38.71-16.28-51.28"/>
      <path class="cls-5" d="M183.56,299.08c-12.63-5.01-21.31-16.57-25.23-29.3-4.53-14.69-2.37-30.35,2.49-44.68,5.01-14.75,12.51-30.87,23.63-42.04,10.82-10.87,25.9-16.27,40.66-19.2,30.11-5.96,60.54,1.02,82.32,23.23,19.96,20.36,30.34,47.74,36.39,75.11,7.1,32.09,9.66,64.95,18.31,96.73,4.3,15.8,9.52,31.34,15.01,46.76,4.69,13.17,9.76,26.37,16.96,38.4,7.25,12.12,16.54,20.91,27.55,29.54,5.75,4.51,12.92,11.38,11.01,19.55-1.55,6.64-8.83,9.23-14.74,10.55-15.95,3.55-33.11,4.16-49.38,5.15-17.18,1.05-34.39,1.41-51.6,1.09-2.07-.04-4.18,0-6.25-.16-.54-.04-1.92,.04-2.33-.3-.91-.73-1.45-3.6-1.4-4.63,.22-3.87,1.7-7.38,1.61-11.4-.17-7.33-2.22-14.6-4.32-21.58-4.43-14.7-10.55-28.8-16.21-43.05-5.64-14.17-10.88-28.61-13.48-43.69-2.22-12.85-2.56-26.27-7.44-38.51-2.23-5.61-5.41-10.61-9.71-14.84-2.62-2.58-6.66,1.45-4.04,4.04,10.84,10.67,12.33,26.47,14.22,40.78,2.1,15.9,6.23,30.98,11.92,45.96,6.04,15.9,13.09,31.43,18.26,47.65,2.61,8.18,5.6,17.12,5.07,25.8-.36,5.85-4.89,13.93,1.7,17.98,2.55,1.57,5.78,1.49,8.67,1.57,4.69,.13,9.38,.18,14.08,.19,9.39,.03,18.77-.15,28.15-.53,18.75-.76,37.48-2.32,56.1-4.74,10.82-1.4,25.68-4.76,27.01-17.99,1.62-16-15.59-23.71-25.21-32.98-11.33-10.93-18.8-25.18-24.71-39.61-6.39-15.62-11.75-31.76-16.71-47.88-5.28-17.18-9.43-34.59-12.45-52.3-3.01-17.65-5.28-35.42-8.83-52.97-5.98-29.58-16.31-59.19-37.19-81.69-21.3-22.96-51.17-32.15-81.97-28.04-15.6,2.08-31.71,6.77-44.47,16.3-12.76,9.54-20.68,24.06-27,38.37-11.67,26.43-15.94,60.09,6.26,82.52,4.52,4.57,9.85,7.95,15.81,10.31,3.41,1.35,4.9-4.16,1.52-5.5h0Z"/>
    </g>
    <g>
      <path class="cls-6" d="M113.07,580.81c-4.86,9.88-9.73,19.75-14.59,29.63,102.28,9.13,205.58-3.62,307.83,5.8,1.63,.15,3.4,.27,4.76-.63,1.03-.69,1.63-1.85,2.19-2.95,2.08-4.14,4.15-8.28,6.23-12.42,.52-1.03,1.05-2.11,1.04-3.27-.02-2.39-2.25-4.12-4.36-5.25-9.69-5.22-21.03-6.15-32.01-6.87-84.26-5.57-168.8-5.08-253.25-4.58l-17.84,.56Z"/>
      <path class="cls-8" d="M110.61,579.37c-4.86,9.88-9.73,19.75-14.59,29.63-1,2.04,.24,4.1,2.46,4.29,93.15,8.19,186.67-1.49,279.92,3.75,5.59,.31,11.17,.68,16.75,1.11,4.74,.36,10.93,2.1,15.59,.71,3.64-1.09,4.99-4.79,6.54-7.87,1.93-3.86,5.1-8.23,5.9-12.51,1.51-8.03-9.52-11.48-15.36-13.16-10.07-2.9-20.81-3.17-31.2-3.81-47.17-2.92-94.44-3.99-141.7-4.29-40.6-.25-81.26-.52-121.85,.75-3.66,.11-3.68,5.82,0,5.71,32.09-1.01,64.21-.87,96.32-.84,44.11,.05,88.23,.6,132.3,2.54,11.02,.48,22.03,1.05,33.03,1.72,10.25,.62,20.82,.8,30.78,3.51,2.66,.72,5.28,1.61,7.75,2.82s4.59,2.19,3.76,5.37c-.54,2.07-2.16,4.3-3.12,6.21s-2.12,5.84-3.7,7.32c-2.16,2.01-6.02,.87-8.54,.66s-4.96-.41-7.44-.6c-5.89-.45-11.79-.82-17.68-1.14-43.52-2.35-87.12-1.47-130.67-.74-49.14,.82-98.37,1.41-147.39-2.9l2.46,4.29c4.86-9.88,9.73-19.75,14.59-29.63,1.62-3.28-3.3-6.18-4.93-2.88Z"/>
    </g>
    <g>
      <path class="cls-1" d="M387.1,595.34c-97.03-.22-194.05-.44-291.08-.66-1.31,0-2.77-.06-3.7-.99-1.28-1.27-.86-3.39-.35-5.12,10.74-36.7,21.56-73.59,38.08-108.07,1.44-3.01,3.04-6.13,5.78-8.03,3.39-2.36,7.83-2.38,11.97-2.3,88.44,1.66,176.68,8.6,264.86,15.54,8.32,.65,16.83,1.36,24.45,4.77,9.38,4.2,16.52,12.09,23.29,19.83,2.48,2.84,5.04,5.84,5.92,9.51,1.09,4.56-.59,9.25-1.82,13.77-3.65,13.39-3.74,28.38-12.07,39.48-11.34,15.11-32.93,16.93-51.81,17.42l-13.5,4.86Z"/>
      <path class="cls-8" d="M387.1,592.48c-61.74-.14-123.49-.28-185.23-.42-30.87-.07-61.74-.14-92.62-.21-3.39,0-8.08,.84-11.34-.03h-1.89c-1.41-1.3-1.68-2.7-.8-4.22,.16-1.65,1.04-3.57,1.51-5.16,2.19-7.46,4.4-14.92,6.67-22.35,4.19-13.72,8.6-27.38,13.54-40.85,2.46-6.72,5.06-13.4,7.82-20.01,2.93-7,5.69-14.7,9.77-21.13s12.28-5.12,18.95-4.98c8.21,.17,16.42,.39,24.63,.65,30.94,.98,61.86,2.53,92.75,4.43,30.9,1.9,61.78,4.14,92.65,6.51,15.12,1.16,30.24,2.35,45.36,3.53,7.09,.56,14.31,.89,21.21,2.76,7.27,1.97,13.34,5.97,18.76,11.11,4.85,4.59,11.92,10.73,14.32,17.09s-2.13,15.88-3.39,22.37c-2.68,13.76-4.71,28.62-17.36,37.01-10.56,7-24.01,8.29-36.34,8.84-4.22,.19-6.92,.54-10.8,1.94-2.97,1.07-5.94,2.14-8.91,3.21-3.43,1.24-1.95,6.75,1.52,5.5l8.49-3.06c3.76-1.36,6.35-1.73,10.4-1.92,11.75-.56,23.96-1.92,34.6-7.32,10.78-5.47,17.35-15.06,20.54-26.53,1.81-6.52,2.71-13.24,4.13-19.85,1.41-6.55,4.73-13.58,3.05-20.37-1.4-5.64-5.97-10.06-9.73-14.24-4.47-4.95-9.21-9.72-14.78-13.44-12.17-8.13-27.27-8.15-41.35-9.26-33.7-2.65-67.41-5.27-101.13-7.57-33.72-2.3-67.46-4.28-101.24-5.64-16.73-.67-33.46-1.2-50.2-1.53-6.13-.12-13.1-.55-17.93,3.97s-7.04,11.69-9.62,17.48c-12.84,28.93-22.17,59.21-31.09,89.53-1.3,4.43-5.84,13.19-1.69,17.36,1.76,1.77,4.35,1.79,6.66,1.83,4.41,.06,8.82,.02,13.23,.03,16.7,.04,33.39,.08,50.09,.11,67.1,.15,134.2,.3,201.3,.46,8.51,.02,17.01,.04,25.52,.06,3.67,0,3.68-5.7,0-5.71Z"/>
    </g>
    <g>
      <path class="cls-14" d="M577.19,599.36c-63.89,5.43-128.13,5-192.25,4.57-7.2-.05-16.16-1.3-18.43-8.13-1.45-4.34,.83-9.25,4.37-12.16,3.54-2.91,8.09-4.22,12.54-5.29,18.63-4.49,37.82-6.03,56.92-7.56-23.15,1.81-46.19,5.11-68.92,9.87-4.27,.89-8.74,1.84-12.95,.65s-7.94-5.29-7.08-9.57c.65-3.24,3.56-5.47,6.33-7.28,24.12-15.73,53.69-22.9,82.33-19.97-24.38-4.93-48.92,5.22-72.33,13.61-4.28,1.53-8.75,3.03-13.26,2.52-4.51-.51-9.06-3.65-9.67-8.15-.67-4.96,3.4-9.21,7.34-12.29,16.14-12.63,36.13-20.26,56.58-21.59,14.19-.92,28.62,1.09,42.55-1.75-21.33-4.46-38.27-24.72-38.89-46.51-.14-4.99,1.95-11.43,6.95-11.43,2.02,0,3.83,1.15,5.49,2.29,10.86,7.43,20.96,16.05,32.53,22.31,18.12,9.81,38.97,13.38,59.53,14.7,20.56,1.32,41.23,.53,61.75,2.31,5.48,.48,11.15,1.21,15.83,4.11,7.11,4.42,10.48,12.95,12.31,21.12,2.84,12.66,3.06,26.06-.69,38.48-3.76,12.41-11.7,23.76-22.83,30.43l-6.05,4.73Z"/>
      <path class="cls-5" d="M577.19,596.51c-38.84,3.26-77.82,4.43-116.79,4.72-19.5,.14-38.99,.07-58.49-.04-8.22-.05-17.48,1.07-25.52-1.02-3.51-.91-7.36-2.87-7.48-7.02-.15-5.28,4.99-8.73,9.36-10.35,9.37-3.48,20-4.75,29.86-6.04,10.69-1.4,21.45-2.26,32.2-3.12,3.64-.29,3.67-6,0-5.71-15.49,1.24-30.92,3.09-46.25,5.6-7.84,1.28-15.64,2.79-23.43,4.37-3.92,.79-8.46,1.98-12.3,.27-5.6-2.49-4.67-7.32-.38-10.46,22.96-16.81,54.18-23.05,82.08-20.38,3.18,.3,3.92-5.01,.76-5.61-17.62-3.31-35.03,.31-51.82,5.81-8.99,2.94-17.78,6.98-26.91,9.4-4,1.06-8.99,1.75-12.37-1.33-4.24-3.87-1.04-8.53,2.31-11.63,12.31-11.39,29.95-18.37,46.22-21.28,17.81-3.18,35.99,.25,53.78-3.12,2.77-.53,2.67-4.9,0-5.5-19.61-4.42-37.97-23.83-36.79-44.93,.14-2.45,.69-5.96,3.19-7.02,2.74-1.17,6.99,2.92,9.16,4.48,5.35,3.84,10.57,7.85,15.98,11.62,10.19,7.1,21.09,12.64,33,16.22,25.18,7.58,51.74,7.09,77.76,7.71,6.24,.15,12.48,.36,18.71,.77,6.61,.44,14.18,.51,19.99,4.15,10.08,6.32,12.26,21.93,12.89,32.68,.82,14.04-2.23,28.26-10.52,39.8-5.37,7.47-13.07,12.22-20.2,17.79-2.89,2.26,1.17,6.27,4.04,4.04,7.08-5.53,14.49-10.22,20.02-17.5,7.9-10.41,11.86-23.18,12.44-36.17,.56-12.69-1.18-28.29-8.81-38.91-7.99-11.14-22.05-11.21-34.51-11.85-31.2-1.61-63.33,.98-93.45-9.01-14.53-4.82-26.68-13.22-38.88-22.21-4.68-3.45-10.99-9.99-17.25-9.64-4.47,.25-7.28,4.12-8.45,8.1-3.35,11.38,2.58,25.62,9.21,34.7,7.55,10.34,18.45,17.87,30.97,20.69v-5.5c-16.17,3.07-32.72,.2-48.99,2.38-14.68,1.97-28.92,7.02-41.54,14.79-8,4.92-24.24,15.32-15.91,26.59,8.97,12.13,27.27,1.92,37.9-1.86,18.33-6.5,37.73-12.42,57.32-8.74l.76-5.61c-17.04-1.63-34.31,.05-50.7,5.02-8.02,2.43-15.84,5.64-23.25,9.56-5.69,3.01-14.66,6.87-17.06,13.44-2.15,5.9,1.94,11.82,7.42,13.97,7.66,3,17.05-.55,24.69-2.01,19.57-3.75,39.32-6.38,59.18-7.97v-5.71c-20.52,1.65-42.37,2.58-62.12,8.87-6.94,2.21-13.9,6.79-14.88,14.62-.87,6.96,4.11,11.96,10.36,13.91,8.27,2.58,17.81,1.49,26.33,1.54,11.32,.07,22.64,.13,33.96,.13,22.32,.02,44.64-.15,66.96-.74,25.45-.67,50.87-1.93,76.24-4.06,3.63-.31,3.67-6.02,0-5.71Z"/>
    </g>
    <g>
      <path class="cls-9" d="M456.83,483.38c11.41,7.61,15.18,9.36,27.36,11.39,6.93,1.16,13.88,2.32,20.89,2.89,23.15,1.89,54.57,3.02,62.09,.94h11.41c13.96,33.27,9.1,70.2-5.78,103.07,46.79,.03,93.62,.06,140.33-2.77,21.7-1.31,43.49-3.26,64.49-8.88,44.5-11.91,84.25-40.74,109.38-79.35,7.43-11.42,13.66-23.72,17.26-36.86,5.93-21.63,4.54-44.71-.22-66.63-6.16-28.38-17.93-55.54-34.4-79.45-1.52-2.21-3.43-4.13-5.58-5.72l-4.62-3.42c-50.04-42.42-114.74-67.19-180.32-69.04,.13,43.59-29.48,83.23-66.97,105.47-37.49,22.23-81.83,29.7-125.28,33.19,.29,19.4,.49,39.31-6.19,57.52s-8.39,31.52-27.65,33.85l3.8,3.8Z"/>
      <path class="cls-9" d="M456.83,483.38c11.41,7.61,15.18,9.36,27.36,11.39,6.93,1.16,13.88,2.32,20.89,2.89,23.15,1.89,54.57,3.02,62.09,.94h11.41c13.96,33.27,9.1,70.2-5.78,103.07,46.79,.03,93.62,.06,140.33-2.77,21.7-1.31,43.49-3.26,64.49-8.88,44.5-11.91,84.25-40.74,109.38-79.35,7.43-11.42,13.66-23.72,17.26-36.86,5.93-21.63,4.54-44.71-.22-66.63-6.16-28.38-17.93-55.54-34.4-79.45-1.52-2.21-3.43-4.13-5.58-5.72l-4.62-3.42c-50.04-42.42-114.74-67.19-180.32-69.04,.13,43.59-29.48,83.23-66.97,105.47-37.49,22.23-81.83,29.7-125.28,33.19,.29,19.4,.49,39.31-6.19,57.52s-8.39,31.52-27.65,33.85l3.8,3.8Z"/>
      <g>
        <path class="cls-9" d="M456.83,483.38c11.41,7.61,15.18,9.36,27.36,11.39,6.93,1.16,13.88,2.32,20.89,2.89,23.15,1.89,54.57,3.02,62.09,.94h11.41c13.96,33.27,9.1,70.2-5.78,103.07,46.79,.03,93.62,.06,140.33-2.77,21.7-1.31,43.49-3.26,64.49-8.88,44.5-11.91,84.25-40.74,109.38-79.35,7.43-11.42,13.66-23.72,17.26-36.86,5.93-21.63,4.54-44.71-.22-66.63-6.16-28.38-17.93-55.54-34.4-79.45-1.52-2.21-3.43-4.13-5.58-5.72l-4.62-3.42c-50.04-42.42-114.74-67.19-180.32-69.04,.13,43.59-29.48,83.23-66.97,105.47-37.49,22.23-81.83,29.7-125.28,33.19,.29,19.4,.49,39.31-6.19,57.52s-8.39,31.52-27.65,33.85l3.8,3.8Z"/>
        <path class="cls-12" d="M455.38,485.85c4.67,3.1,9.36,6.2,14.58,8.29s11.21,3.04,16.93,3.97c13.64,2.23,27.34,3.23,41.13,3.88,11.07,.52,22.31,1.09,33.38,.27,5.87-.43,10.96-.79,17.17-.79l-2.75-2.09c13.49,32.91,8.74,69.04-5.5,100.87-.86,1.91,.12,4.29,2.46,4.29,29.09,.02,58.18,.04,87.26-.63,28.5-.65,57.26-1.4,85.57-4.96,23.7-2.99,46.64-8.92,68.09-19.58,20.15-10.02,38.59-23.63,54.11-39.92,16.06-16.85,29.97-36.98,37.43-59.17,8.37-24.89,6.67-51.88,.79-77.11-5.76-24.69-15.74-48.48-29.33-69.88-3.08-4.86-6.07-9.7-10.65-13.29-2.14-1.67-4.36-3.22-6.44-4.95-8.93-7.42-18.28-14.34-28.02-20.67-45.29-29.4-98.54-46.01-152.49-47.68-1.55-.05-2.85,1.35-2.85,2.85-.14,31.73-15.98,60.86-38.51,82.47-24.91,23.88-57.53,37.32-90.8,44.8-19.77,4.45-39.9,6.88-60.08,8.53-1.52,.12-2.88,1.21-2.85,2.85,.3,20.65-.33,40.29-7.23,59.96-2.24,6.4-4.05,13.21-7.68,19-3.85,6.16-9.84,8.7-16.84,9.66-2.21,.3-2.62,3.4-1.26,4.77,1.27,1.27,2.54,2.54,3.8,3.8,2.6,2.6,6.64-1.43,4.04-4.04-1.27-1.27-2.54-2.54-3.8-3.8l-1.26,4.77c7.05-.97,13.58-3.65,18.12-9.3s6.77-12.88,9.1-19.66c3.41-9.92,6.4-19.54,7.64-30.01,1.39-11.66,1.24-23.44,1.07-35.16l-2.85,2.85c68.69-5.6,146.31-23.83,181.59-89.76,8.54-15.96,13.43-33.61,13.51-51.75l-2.85,2.85c46.62,1.44,92.61,14.28,133.31,37.06,17.78,9.96,33.69,22.15,49.71,34.65,4.59,3.58,7.51,8.58,10.55,13.46,3.25,5.21,6.29,10.56,9.1,16.02,5.64,10.96,10.36,22.37,14.09,34.12,7.78,24.44,12.35,51.23,7.59,76.73-4.4,23.62-17.28,45.12-32.72,63.23-29.29,34.35-69.85,56.52-114.24,63.95-29.84,5-60.57,5.63-90.76,6.42-30.98,.81-61.97,.79-92.95,.77,.82,1.43,1.64,2.86,2.46,4.29,14.82-33.15,20.15-70.92,6.07-105.27-.49-1.18-1.39-2.09-2.75-2.09-5.41,0-10.55,.17-15.89,.69-10.45,1.02-21.18,.41-31.65-.03-13.37-.57-26.79-1.28-40.02-3.39-5.84-.93-11.85-1.69-17.47-3.62-5.53-1.9-10.45-5.27-15.28-8.48-3.07-2.04-5.93,2.9-2.88,4.93Z"/>
      </g>
      <g>
        <path class="cls-9" d="M824.25,562.32c-17.7,17.58-43.43,23.8-67.82,29.03-10.33,2.21-20.69,4.38-31.17,5.64-6.56,.79-13.15,1.22-19.74,1.62-42.89,2.57-85.87,3.58-128.84,3.02l-3.38-.99c6.6-10.5,8.54-23.28,8.79-35.68,.5-24.12-4.88-48.33-15.54-69.97,33.44-2.22,66.65-7.81,98.98-16.64,13.89-3.8,27.73-8.24,40.31-15.25,12.58-7.01,23.93-16.78,30.95-29.36"/>
        <path class="cls-12" d="M822.23,560.31c-21.78,21.17-55.18,26.58-83.92,31.81-18,3.28-36.32,3.94-54.56,4.81s-35.99,1.44-53.99,1.74c-10.42,.18-20.85,.26-31.28,.26-7.87,0-16.85,1.19-24.42-1.04l1.71,4.19c9.57-15.83,10.22-35.51,8.62-53.47-1.7-19.18-6.97-37.76-15.37-55.06-.82,1.43-1.64,2.86-2.46,4.29,33.98-2.32,67.72-7.93,100.57-16.97,27.88-7.68,57.02-19.38,72.14-45.69,1.83-3.19-3.1-6.07-4.93-2.88-15.01,26.12-44.67,36.65-72.21,44.01-31.27,8.36-63.28,13.62-95.57,15.82-2.24,.15-3.44,2.28-2.46,4.29,7.94,16.35,12.99,34.06,14.59,52.18,1.5,16.94,1.2,35.62-7.84,50.59-.97,1.6-.04,3.68,1.71,4.19,6.23,1.83,12.84,1.2,19.31,1.23,9.79,.04,19.59,0,29.38-.12,19.27-.24,38.54-.79,57.79-1.65,18.12-.81,36.44-1.32,54.39-4.14,16.59-2.61,33.38-6.12,49.49-10.92,15.96-4.75,31.31-11.74,43.38-23.46,2.64-2.56-1.4-6.6-4.04-4.04h0Z"/>
      </g>
      <path class="cls-12" d="M593.35,366.09c15.41,21.27,29.85,43.21,43.28,65.78,1.88,3.15,6.81,.29,4.93-2.88-13.43-22.57-27.87-44.51-43.28-65.78-2.13-2.95-7.09-.1-4.93,2.88h0Z"/>
    </g>
    <g>
      <path class="cls-14" d="M208.8,318.82c-7.79-2.69-15.97-5.62-21.35-11.86-5.2-6.03-7-14.23-8.03-22.13-1.9-14.62-1.79-29.5,.34-44.1"/>
      <path class="cls-5" d="M209.56,316.07c-6.46-2.23-13.34-4.55-18.4-9.35s-7-11.16-8.22-17.64c-2.9-15.53-2.64-31.99-.44-47.58,.51-3.59-4.99-5.14-5.5-1.52-2.45,17.36-2.97,35.9,.95,53.11,1.58,6.96,4.6,13.73,10.08,18.49,5.72,4.97,12.95,7.56,20.01,10,3.48,1.2,4.97-4.31,1.52-5.5h0Z"/>
    </g>
    <g>
      <path class="cls-11" d="M245.98,488.67c.33,11.81,.66,23.62,.99,35.42,.01,.47,.04,.97,.32,1.33,.32,.41,.87,.54,1.38,.64,2.71,.54,5.43,1,8.16,1.35,1.89,.25,3.84,.45,5.69-.01s3.62-1.71,4.19-3.53c.26-.84,.26-1.74,.25-2.62-.09-10.49-.18-20.98-.27-31.47,0-.37-.03-.78-.3-1.03-.24-.22-.59-.24-.91-.24-4.7-.11-9.4-.23-14.11-.34l-5.39,.49Z"/>
      <path class="cls-16" d="M243.12,488.67c.26,9.37,.52,18.74,.78,28.11,.06,2.18,.11,4.36,.18,6.55,.08,2.3,.52,4.22,2.83,5.18,1.76,.73,3.93,.89,5.81,1.18,2.29,.36,4.65,.8,6.97,.85,3.86,.07,8.08-1.5,9.56-5.36,.76-1.97,.56-4.15,.54-6.21-.02-2.43-.04-4.86-.06-7.29-.04-4.61-.08-9.21-.12-13.82-.02-2.17-.04-4.35-.06-6.52-.02-2.3-.2-4.79-2.83-5.52-2.27-.62-5.17-.24-7.51-.3-2.59-.06-5.25-.29-7.84-.19-1.8,.07-3.6,.33-5.39,.49-3.63,.33-3.66,6.04,0,5.71,4.2-.38,8.21-.42,12.45-.32,1.96,.05,3.92,.09,5.88,.14,1.06,.03,1.68,.51,.35-.76s-.67-.84-.82-.02c-.19,1.04,.02,2.4,.03,3.45,.03,3.84,.07,7.68,.1,11.51,.03,3.84,.07,7.68,.1,11.51,.02,1.76,.34,3.82,.01,5.55-.25,1.3-1.42,1.91-2.64,2.14-3.42,.63-7.54-.54-10.9-1.19-.36-.07-1.06-.4-1.36-.28-.76,.3,.92,.69,.65,.84,.15-.08-.08-2.83-.09-3.08l-.17-6.16c-.24-8.73-.49-17.46-.73-26.18-.1-3.66-5.81-3.68-5.71,0Z"/>
    </g>
    <g>
      <path class="cls-11" d="M255.86,469.48c-4.22-.6-8.51-.67-12.75-.19-3.75,.42-7.54,1.3-10.68,3.39-3.14,2.09-5.53,5.58-5.53,9.35,0,3.62,2.2,6.99,5.12,9.14s6.48,3.24,10.02,3.97c6.12,1.26,12.39,1.56,18.64,1.64,5.55,.07,11.28-.06,16.38-2.24,2.63-1.12,5.1-2.84,6.58-5.29,3.33-5.49,.43-13.18-4.92-16.73s-12.3-3.73-18.61-2.53l-4.25-.5Z"/>
      <path class="cls-16" d="M255.86,466.63c-10.28-1.35-25.62-.87-30.62,10.19-2.18,4.82-1.06,10.1,2.32,14.06,3.7,4.34,9.38,6.19,14.81,7.21,6.35,1.19,12.85,1.5,19.3,1.54,5.86,.03,11.83-.34,17.23-2.82,4.44-2.04,8.06-5.76,8.83-10.7,.73-4.7-1.03-9.49-4.1-13.04-3.78-4.37-9.61-6.26-15.23-6.56-2.86-.15-5.56,.52-8.37,.62-1.35,.05-2.82-.33-4.17-.49-3.64-.43-3.61,5.28,0,5.71,1.83,.22,3.64,.6,5.46,.32,4.18-.64,8.53-.81,12.58,.62,6.9,2.44,11.97,11.95,4.75,17.15-3.56,2.57-8.28,3.24-12.55,3.44-4.73,.22-9.52,.07-14.23-.28-6.86-.5-22.11-1.77-22.11-11.56,0-5.27,5.47-8.22,9.92-9.28,5.26-1.25,10.86-1.11,16.19-.41,3.63,.48,3.6-5.23,0-5.71Z"/>
    </g>
    <path class="cls-16" d="M232.74,516.3c3.32,8.57,11.59,12.79,20.32,13.88,4.57,.57,9.52,.76,13.89-.95,4.15-1.62,7.6-4.44,10.98-7.27,2.82-2.36-1.24-6.38-4.04-4.04-2.62,2.2-5.36,4.52-8.55,5.84-3.39,1.41-7.24,1.2-10.82,.87-6.41-.59-13.76-3.36-16.28-9.85-1.31-3.39-6.83-1.92-5.5,1.52h0Z"/>
    <g>
      <path class="cls-15" d="M250.16,375.91c2.22,35.06,2.46,70.24,.71,105.32-.05,1-.06,2.12,.64,2.83,.45,.45,1.09,.64,1.71,.79,2.45,.59,4.97,.9,7.5,.93,.72,0,1.49-.03,2.07-.45,1.07-.78,.78-2.36,.75-3.69-.75-36.31-.75-78.16-.75-112.4"/>
      <path class="cls-3" d="M247.3,375.91c1.15,18.47,1.79,36.97,1.86,55.48,.03,9.1-.06,18.19-.3,27.28-.11,4.39-.26,8.78-.43,13.17-.15,3.7-1.34,8.57-.16,12.16,1.5,4.59,9.99,5.33,13.91,4.52,5.99-1.24,4.16-9,4.08-13.43-.3-16.8-.45-33.61-.53-50.42-.09-18.48-.09-36.95-.09-55.43,0-3.67-5.71-3.68-5.71,0,0,28.26,0,56.51,.32,84.77,.08,7.03,.18,14.05,.3,21.08,.03,1.91,.06,3.83,.11,5.74,.04,1.69,.39,1.57-.7,2.07-.82,.38-4.62-.17-5.24-.64-1.47-1.1-.91-2.77-.82-4.79,.72-15.67,1.04-31.35,.96-47.03-.09-18.19-.72-36.38-1.86-54.53-.23-3.65-5.94-3.67-5.71,0h0Z"/>
    </g>
    <path class="cls-16" d="M240.19,482.46c5.31,3.19,11.03,5.85,17.27,6.41,5.71,.51,11.47-1.09,15.83-4.85,1.17-1.01,1.03-3,0-4.04-1.16-1.16-2.87-1.01-4.04,0-7.71,6.65-18.73,2.03-26.18-2.45-3.16-1.9-6.03,3.04-2.88,4.93h0Z"/>
    <g>
      <g>
        <path class="cls-17" d="M255.1,377.39c-6.09-.17-12.18-.33-18.28-.5-1.91-.05-3.89-.12-5.58-1.01-4.24-2.21-4.46-8.74-1.45-12.45,1.05-1.29,2.41-2.4,2.99-3.97,.44-1.19,.37-2.5,.29-3.77-1.37-21.87-2.75-43.74-4.12-65.61-.51-8.16-1-16.55,1.57-24.31,2.57-7.76,8.92-6.01,17.05-6.86,4.49-.47,10.96,2.3,15.22,3.8,4.22,1.49,8.12,.78,11.41,3.8,7,6.42,6.07,9.22,6.18,18.72,.26,23.54-.02,47.09-.83,70.62-.04,1.28-.08,2.61,.47,3.76,.97,2.06,3.45,2.91,5,4.59,2.91,3.14,1.71,8.59-1.5,11.42s-5.03,1.05-9.31,1.22c-4.02,.16-7.45,.68-11.41,0l-7.69,.53Z"/>
        <path class="cls-7" d="M255.1,374.53c-6.07-.17-12.22-.08-18.28-.5-7.45-.51-7.2-5.72-3.34-10.47,2.74-3.38,2.53-6.47,2.27-10.68-.41-6.56-.82-13.12-1.24-19.68-.77-12.19-1.53-24.37-2.3-36.56-.36-5.69-.88-11.41-.82-17.11,.05-4.49-.15-13.64,4.32-16.34,2.97-1.8,8.51-1.32,11.86-1.44,4.69-.16,9.01,1.77,13.35,3.3,4.48,1.58,9.27,1.29,12.76,4.92,2.95,3.07,3.77,5.88,3.83,10.04,.36,23.41,.08,46.85-.64,70.26-.14,4.65-1.13,9.53,2.5,13.09,2.29,2.24,5.39,3.13,4.13,7.16-.9,2.88-2.94,3.95-5.71,3.7-7.45-.68-15.23-.22-22.7,.3-3.64,.25-3.67,5.96,0,5.71,8.24-.57,16.4,.06,24.62-.14,9.16-.23,12.66-12.86,6.47-18.69-.8-.75-2.1-1.24-2.77-2.08-1.4-1.75-1.01-3.33-.95-5.34,.11-3.72,.23-7.43,.33-11.15,.21-8.05,.36-16.11,.44-24.16,.14-13.51,.77-27.29-.08-40.78-.23-3.67-1.22-6.82-3.49-9.75-3.77-4.87-7.59-6.2-13.36-7.48-4.88-1.07-9.35-3.5-14.31-4.35-4.58-.79-10.22-.33-14.8,.48-11.06,1.94-11.6,15.41-11.51,24.48,.16,15.41,1.79,30.91,2.76,46.29,.51,8.12,1.02,16.25,1.53,24.37,.1,1.59,.47,3.43,.29,5.02-.26,2.4-1.65,3.24-2.95,5.02-1.39,1.92-2.24,4.19-2.39,6.57-.29,4.71,2.16,9.23,6.86,10.6,3.32,.97,7.1,.64,10.51,.73,4.26,.12,8.53,.23,12.79,.35,3.67,.1,3.67-5.61,0-5.71Z"/>
      </g>
      <path class="cls-7" d="M242.44,362.54c9.43-.15,18.86-.11,28.29,.14,3.67,.09,3.67-5.61,0-5.71-9.43-.24-18.86-.29-28.29-.14-3.67,.06-3.68,5.77,0,5.71h0Z"/>
      <path class="cls-7" d="M252.19,280.48c1.37,22.14,1.43,44.34,.18,66.49-.21,3.67,5.5,3.66,5.71,0,1.25-22.15,1.19-44.35-.18-66.49-.23-3.65-5.93-3.67-5.71,0h0Z"/>
    </g>
    <g>
      <path class="cls-14" d="M207.5,249c-5.92,12.27-6.05,26.42-6.07,40.04-.01,7.57,0,15.32,2.52,22.47,3.92,11.16,14.17,19.84,25.82,21.87,2.85-11.48,1.26-23.52,1.31-35.35,.05-11.83,2.22-24.6,10.72-32.82,3.47-3.35,8.43-5.82,13.05-4.45,1.93,.57,3.61,1.76,5.14,3.06,7.21,6.14,11.53,15.05,14.19,24.14s3.86,18.53,6,27.75c1.24,5.38,3.81,11.63,9.26,12.52,5.53,.9,10.06-4.5,12.02-9.75,6.97-18.67-2.07-41.6,8.55-58.46"/>
      <path class="cls-5" d="M205.04,247.56c-3.78,8.2-5.46,16.88-6.07,25.85-.67,9.84-1.02,20.21,.25,30,2.1,16.21,13.53,29.5,29.79,32.71,1.46,.29,3.15-.4,3.51-1.99,3.85-16.85-1-34.27,2.97-51.05,1.78-7.51,6.22-17.48,14.53-19.57s15.47,10.39,18.33,16.72c3.68,8.15,5.27,17.06,6.95,25.79,1.29,6.75,2.04,14.67,6.36,20.32,3.32,4.35,8.96,6.19,14,3.57,5.81-3.02,8.64-9.63,10.04-15.68,3.98-17.25-2.68-36.91,6.78-52.79,1.88-3.16-3.05-6.04-4.93-2.88-8.11,13.6-5.34,29.46-6.12,44.51-.33,6.43-1.53,20.84-9.92,22.24s-9.4-14-10.38-19.07c-3-15.55-6.08-32.89-18.57-43.96s-25.39,.13-30.44,12.55c-7.54,18.54-.76,38.74-5.12,57.78l3.51-1.99c-15.95-3.15-25.08-16.23-26.05-31.94-.96-15.7-1.21-33.7,5.49-48.24,1.53-3.31-3.39-6.22-4.93-2.88h0Z"/>
    </g>
  </g>
  <text class="cls-4" transform="translate(155.6 803.23)"><tspan x="0" y="0">f + ix = </tspan><tspan class="cls-10" x="517.05" y="0">f</tspan><tspan class="cls-18" x="564.75" y="0">ix</tspan></text>
</svg>