<?xml version="1.0" encoding="UTF-8"?>
<svg xmlns="http://www.w3.org/2000/svg" viewBox="0 0 1000 1000">
  <defs>
    <style>
      .cls-1 {
        fill: #ddd;
      }

      .cls-1, .cls-2, .cls-3, .cls-4 {
        stroke: #005589;
      }

      .cls-1, .cls-2, .cls-3, .cls-4, .cls-5 {
        stroke-miterlimit: 10;
        stroke-width: 3px;
      }

      .cls-6 {
        fill: #96d3ff;
      }

      .cls-7 {
        font-family: FreeSansBold, FreeSans;
        font-size: 150px;
      }

      .cls-2 {
        fill: #0f73bf;
      }

      .cls-8 {
        fill: #393939;
      }

      .cls-3 {
        fill: none;
      }

      .cls-9 {
        letter-spacing: 0em;
      }

      .cls-9, .cls-10 {
        fill: red;
      }

      .cls-11 {
        letter-spacing: -.01em;
      }

      .cls-12 {
        fill: #c1c1c1;
      }

      .cls-4 {
        fill: #d0ebfc;
      }

      .cls-5 {
        fill: #282828;
        stroke: #000;
      }

      .cls-13 {
        letter-spacing: -.02em;
      }
    </style>
  </defs>
  <g id="bib">
    <text class="cls-7" transform="translate(125.4 1123.01)"><tspan x="0" y="0">b + ib = </tspan><tspan class="cls-11" x="567" y="0">b</tspan><tspan class="cls-9" x="656.4" y="0">ib</tspan></text>
  </g>
  <g id="nib">
    <g>
      <g>
        <path class="cls-1" d="M500,29c-66.29,0-127.77,20.53-178.48,55.54,1.09,1.11,4.47,4.57,9.67,9.93,1.87-.48,3.77-.92,5.71-1.31,0,0,142.97,136.22,175.62,186.88,0,0,1.82,4.75-.78,6.31,0,0,0,0,0,0,12.13,13.7,22.17,25.5,28.92,34.21,42.78,55.16,93.44,120.46,93.44,120.46l-1.76,1.86c5.28,6.14,21.67,25.52,19.78,27.41-2.25,2.25-3.38,7.88-10.13,5.63-4.67-1.56-17.94-10.64-25.69-16.1l-2.46,2.59s-104.94-67.83-162.85-108.93c0,0,0,0,0,0,0,0,3,3.1-6.01-.27-9.01-3.38-184.63-140.72-200.39-164.36,0,0,.54-2.27,1.77-6.11l-10.29-10.29c-31.97,49.24-50.56,107.97-50.56,171.05,0,173.69,140.81,314.5,314.5,314.5s314.5-140.81,314.5-314.5S673.69,29,500,29Z"/>
        <path class="cls-12" d="M331.19,473.38c100.92-5.85,202.36,7.58,303.15,.8-2.03-1.27-4.18-2.68-6.32-4.11-20.97-3.36-41.95-6.72-62.92-10.08-15.49-2.48-30.99-4.96-46.61-6.45-14.71-1.4-29.49-1.92-44.19-3.41-29.28-2.96-58.01-9.74-86.75-16.05-64.93-14.25-130.37-26.12-196.15-35.65,4.93,29.84,14.03,58.28,26.73,84.66,20.46-1.86,40.92-3.72,61.39-5.58,17.21-1.56,34.42-3.13,51.67-4.13Z"/>
        <path class="cls-3" d="M500,29c-66.29,0-127.77,20.53-178.48,55.54,1.09,1.11,4.47,4.57,9.67,9.93,1.87-.48,3.77-.92,5.71-1.31,0,0,142.97,136.22,175.62,186.88,0,0,1.82,4.75-.78,6.31,0,0,0,0,0,0,12.13,13.7,22.17,25.5,28.92,34.21,42.78,55.16,93.44,120.46,93.44,120.46l-1.76,1.86c5.28,6.14,21.67,25.52,19.78,27.41-2.25,2.25-3.38,7.88-10.13,5.63-4.67-1.56-17.94-10.64-25.69-16.1l-2.46,2.59s-104.94-67.83-162.85-108.93c0,0,0,0,0,0,0,0,3,3.1-6.01-.27-9.01-3.38-184.63-140.72-200.39-164.36,0,0,.54-2.27,1.77-6.11l-10.29-10.29c-31.97,49.24-50.56,107.97-50.56,171.05,0,173.69,140.81,314.5,314.5,314.5s314.5-140.81,314.5-314.5S673.69,29,500,29Z"/>
        <path class="cls-4" d="M641.97,475.92c6.75,2.25,7.88-3.38,10.13-5.63,1.89-1.89-14.49-21.26-19.78-27.41l-16.04,16.94c7.75,5.46,21.02,14.54,25.69,16.1Z"/>
        <path class="cls-2" d="M321.52,84.54c-5.21,3.6-10.32,7.34-15.3,11.24-26.43,20.7-49.45,45.55-68.11,73.55-.69,1.03-1.37,2.07-2.05,3.12l10.29,10.29c1.16-3.6,2.92-8.58,5.44-14.38,7.04-16.23,19.92-38.85,41.59-55.46,10.45-8.01,22.94-14.61,37.8-18.42-5.2-5.35-8.58-8.82-9.67-9.93Z"/>
        <path class="cls-2" d="M540.66,320.56c-6.75-8.71-16.8-20.51-28.92-34.21-2.6,1.57-45.74,22.38-60.76,67.13,57.92,41.1,162.85,108.93,162.85,108.93l2.46-2.59,16.04-16.94,1.76-1.86s-50.66-65.29-93.44-120.46Zm-72.05,32.65s7.88-27.02,15.76-21.39c7.88,5.63,133.97,118.21,132.49,119.21s-7.53,1.25-14.28-3.26c-6.75-4.5-131.71-93.44-133.97-94.56Z"/>
        <path class="cls-5" d="M512.51,280.04c-32.65-50.66-175.62-186.88-175.62-186.88-1.94,.39-3.84,.83-5.71,1.31-14.86,3.82-27.35,10.42-37.8,18.42-21.67,16.61-34.56,39.23-41.59,55.46-2.52,5.8-4.28,10.78-5.44,14.38-1.23,3.84-1.77,6.11-1.77,6.11,15.76,23.64,191.38,160.98,200.39,164.36,9.01,3.38,6.01,.27,6.01,.27,0,0,0,0,0,0,15.02-44.75,58.15-65.57,60.76-67.13,0,0,0,0,0,0,2.6-1.57,.78-6.31,.78-6.31Zm-70.92,61.92c-2.92-1.94-19.82-15.27-42.41-33.3-55.92-44.64-146.71-118.2-146.71-119.8,0-.3,.2-1.18,.55-2.48,2.33-8.6,11.59-35.65,17.46-34.67,6.75,1.13,188,160.98,188,160.98-1.13,0-6.75,36.02-16.89,29.27Z"/>
        <path class="cls-6" d="M468.61,353.21c2.25,1.13,127.21,90.06,133.97,94.56,6.75,4.5,12.8,4.26,14.28,3.26s-124.61-113.58-132.49-119.21c-7.88-5.63-15.76,21.39-15.76,21.39Z"/>
        <path class="cls-8" d="M270.47,151.7c-5.87-.98-15.13,26.07-17.46,34.67-.35,1.3-.55,2.19-.55,2.48,0,1.6,90.79,75.16,146.71,119.8,22.59,18.03,39.5,31.36,42.41,33.3,10.13,6.75,15.76-29.27,16.89-29.27,0,0-181.25-159.86-188-160.98Z"/>
      </g>
      <text class="cls-7" transform="translate(103.4 802.29)"><tspan x="0" y="0">n + ib = </tspan><tspan class="cls-13" x="567" y="0">n</tspan><tspan class="cls-10" x="655.65" y="0">ib</tspan></text>
    </g>
  </g>
</svg>