<?xml version="1.0" encoding="UTF-8"?>
<svg id="sit" xmlns="http://www.w3.org/2000/svg" viewBox="0 0 1000 1000">
  <defs>
    <style>
      .cls-1 {
        fill: #010c06;
      }

      .cls-2 {
        font-family: FreeSansBold, FreeSans;
        font-size: 150px;
      }

      .cls-3 {
        letter-spacing: -.02em;
      }

      .cls-4 {
        fill: #47292b;
        stroke: #331c1e;
        stroke-miterlimit: 10;
        stroke-width: 3px;
      }

      .cls-5 {
        letter-spacing: 0em;
      }

      .cls-6 {
        fill: #cad9f0;
      }

      .cls-7 {
        fill: #cc5252;
      }

      .cls-8 {
        letter-spacing: -.03em;
      }

      .cls-8, .cls-9 {
        fill: red;
      }

      .cls-10 {
        fill: #015581;
      }

      .cls-11 {
        fill: #a3b3c9;
      }

      .cls-12 {
        fill: #e2b788;
      }

      .cls-13 {
        fill: #fdcb90;
      }

      .cls-14 {
        fill: #aa3535;
      }

      .cls-15 {
        fill: #04180d;
      }

      .cls-16 {
        fill: #ce8f11;
      }

      .cls-17 {
        fill: #191919;
      }

      .cls-18 {
        fill: #fcb825;
      }

      .cls-19 {
        letter-spacing: -.02em;
      }

      .cls-20 {
        fill: #003a54;
      }
    </style>
  </defs>
  <g>
    <g>
      <path class="cls-15" d="M506.13,618.58c10.22,5.81,22.33,7.05,34.04,8.16,2.29,.22,4.58,.44,6.88,.43,1.24,0,2.51-.08,3.64-.6,1.55-.71,2.62-2.17,3.42-3.67,3.02-5.64,3.18-12.33,3.26-18.73,0-.73,0-1.51-.41-2.11-.26-.38-.66-.65-1.07-.86-2-1.08-4.34-1.28-6.61-1.45-12.46-.92-24.94-1.45-37.42-1.98-1.64-.07-3.35-.12-4.82,.59-1.35,.65-2.33,1.87-3.09,3.15-2.8,4.74-3,10.51-3.13,16.01-.01,.55-.02,1.13,.24,1.62s.9,.81,1.38,.55l3.67-1.11Z"/>
      <path class="cls-1" d="M505.37,619.87c9.71,5.45,20.84,6.99,31.76,8.07,2.89,.29,5.79,.62,8.7,.71,2.68,.08,5.3-.1,7.37-2,1.83-1.68,2.91-4.16,3.72-6.45,.89-2.53,1.34-5.2,1.6-7.87s.35-5.44,.36-8.16c0-1.13-.11-2.26-.85-3.17-.8-.99-2.1-1.52-3.28-1.91-2.67-.87-5.63-.87-8.4-1.06-3.03-.21-6.07-.4-9.1-.57-6.15-.35-12.31-.64-18.47-.9-2.96-.13-6-.47-8.96-.32-2.62,.13-4.72,1.17-6.31,3.27-3.57,4.7-3.98,11.06-4.14,16.74-.04,1.42-.24,3.11,.85,4.22,.77,.78,1.76,.91,2.76,.64,1.19-.32,2.37-.72,3.56-1.07,1.84-.56,1.06-3.45-.8-2.89l-2.82,.85c-.28,.09-.57,.18-.85,.26l.31,.11-.04-.42c.05-.24,0-.59,.01-.84,.02-.71,.04-1.42,.06-2.13,.17-4.44,.61-9.17,3.04-13.02,1.31-2.07,3-2.75,5.4-2.71,2.64,.04,5.29,.21,7.93,.33,5.34,.23,10.67,.48,16.01,.77s10.55,.53,15.8,1.02c1.14,.11,2.28,.28,3.37,.64s1.89,.64,1.93,1.82c.09,2.32-.06,4.71-.23,7.03-.31,4.32-1.06,9.52-3.9,12.99-1.59,1.95-3.84,1.9-6.17,1.82-2.61-.09-5.2-.38-7.8-.64-10.58-1.04-21.48-2.43-30.9-7.73-1.69-.95-3.2,1.64-1.51,2.59Z"/>
    </g>
    <polygon class="cls-4" points="341 236.85 341 629.94 376.01 629.94 376.01 483.35 485.52 483.35 485.52 629.94 516.47 629.94 516.47 448.7 376.01 448.7 376.01 236.85 341 236.85"/>
    <g>
      <path class="cls-13" d="M547.33,167.62c.34,4.2-1.05,8.33-2.42,12.31-1.25,3.63-2.5,7.26-3.76,10.89-.43,1.25-.87,2.56-.68,3.87,.29,1.97,1.92,3.45,3.54,4.6,4.05,2.87,8.77,4.79,13.67,5.59,1.16,.19,2.41,.3,3.47-.2,1.08-.51,1.79-1.57,2.43-2.58,3.66-5.69,7.32-11.39,10.98-17.08,5.01,2.63,10.41,4.73,16.06,5.15s11.59-.98,15.87-4.69c3.18-2.75,5.26-6.56,6.77-10.48,1.97-5.1,3.09-10.54,3.29-16,.06-1.51,.24-3.35,1.61-3.99,.54-.26,1.16-.25,1.76-.25,4.7,0,9.74-.61,13.26-3.72,.42-.37,.84-.83,.88-1.39,.05-.73-.55-1.33-1.1-1.81-3.78-3.34-7.56-6.68-11.34-10.02-.76-.67-1.57-1.43-1.74-2.43-.15-.85,.2-1.69,.52-2.49,3.04-7.59,4.55-15.79,4.42-23.97-.03-1.77-.16-3.64-1.17-5.1-1.49-2.16-4.37-2.75-6.97-3.11-16.34-2.32-33.37-2.86-48.97,2.53-5.03,1.74-9.97,4.16-13.65,8.01-3.88,4.07-6.11,9.49-7.21,15.01s-1.15,11.18-1.19,16.8c-.05,6.57-.1,13.13-.16,19.7l1.82,4.83Z"/>
      <path class="cls-12" d="M545.83,167.62c.37,5.61-2.07,11.03-3.86,16.22-.9,2.6-1.94,5.2-2.68,7.85-.66,2.39-.31,4.6,1.27,6.52,1.46,1.78,3.59,3.08,5.57,4.19,2.21,1.24,4.58,2.24,7.01,2.97,2.2,.66,4.79,1.41,7.1,1.1s3.69-2.13,4.91-4.03c3.57-5.55,7.14-11.11,10.71-16.66l-2.05,.54c8.05,4.19,17.42,7.15,26.42,4.28,4.17-1.33,7.69-3.82,10.32-7.31,2.72-3.61,4.44-8,5.65-12.33,.67-2.39,1.15-4.82,1.47-7.28,.16-1.24,.28-2.48,.35-3.73,.05-.95-.05-2.08,.34-2.98s1.14-.7,1.96-.71c1.12-.01,2.25-.06,3.36-.16,2.08-.2,4.17-.56,6.12-1.33,1.83-.72,3.99-1.8,5.15-3.45,1.46-2.07-.12-3.81-1.67-5.18-1.95-1.72-3.9-3.45-5.85-5.17-.98-.86-1.95-1.72-2.93-2.58-.88-.78-1.9-1.52-2.67-2.42-.85-1-.25-2,.17-3.09,.45-1.15,.86-2.31,1.24-3.49,.78-2.42,1.42-4.89,1.9-7.39,.9-4.7,1.49-9.71,1.1-14.5-.17-2.16-.79-4.29-2.49-5.74-1.48-1.27-3.37-1.88-5.25-2.24-4.65-.88-9.46-1.29-14.18-1.63-9.79-.69-19.72-.39-29.33,1.76-8.63,1.93-17.98,5.22-23.6,12.44-5.94,7.63-7.01,17.55-7.19,26.9-.1,5.31-.1,10.62-.14,15.92,0,1.23-.02,2.46-.03,3.69-.01,1.36-.18,2.83-.03,4.19,.1,.92,.6,1.84,.92,2.7l.96,2.53c.67,1.79,3.58,1.01,2.89-.8l-.87-2.3c-.29-.77-.84-1.7-.95-2.52-.13-1,.07-2.27,.08-3.31,.01-1.31,.02-2.63,.03-3.94,.02-2.46,.04-4.93,.06-7.39,.07-9.26-.44-19.07,3.16-27.81,1.57-3.82,3.99-7.26,7.25-9.82s7.12-4.26,11.01-5.58c8.78-2.97,18.04-4.05,27.28-4.01,4.68,.02,9.36,.33,14.02,.82,2.27,.24,4.54,.51,6.8,.85,1.69,.26,3.63,.55,5.01,1.65,1.65,1.31,1.66,3.6,1.68,5.53,.02,2.31-.09,4.63-.34,6.93-.49,4.7-1.57,9.34-3.14,13.79-.69,1.95-2.01,4.1-1.25,6.2,.71,1.96,2.84,3.33,4.34,4.66,1.89,1.67,3.78,3.34,5.67,5.01,.85,.75,1.71,1.51,2.56,2.26,.35,.31,.89,.63,1.14,1.03,.18,.29,.19,.07,.16,.34-.02,.15-.57,.54-.64,.6-3.06,2.49-7.31,2.96-11.11,3.02-1.83,.03-3.67,.07-4.75,1.81-.98,1.58-.86,3.56-.98,5.34-.32,4.78-1.38,9.5-3.08,13.98-1.45,3.8-3.48,7.51-6.62,10.16-6.63,5.59-16.18,4.81-23.79,1.97-2.12-.79-4.16-1.76-6.17-2.8-.74-.39-1.6-.17-2.05,.54-2.81,4.37-5.62,8.75-8.43,13.12-.67,1.04-1.34,2.08-2.01,3.12-.54,.84-1.06,1.89-1.85,2.52-1.56,1.23-4.52,.15-6.22-.31-3.98-1.08-8.47-2.97-11.44-5.92-.65-.65-1.22-1.41-1.36-2.34-.18-1.24,.4-2.53,.79-3.69,.81-2.35,1.62-4.69,2.43-7.04,1.79-5.18,4.02-10.52,3.65-16.11-.13-1.92-3.13-1.93-3,0Z"/>
    </g>
    <path class="cls-12" d="M614.88,166.84c-3.21,.13-6.38-.63-9.14-2.28s-4.96-4.18-7.09-6.61c-1.28-1.45-3.39,.68-2.12,2.12,2.37,2.7,4.82,5.42,7.96,7.23s6.78,2.68,10.39,2.54c1.92-.08,1.93-3.08,0-3h0Z"/>
    <g>
      <path class="cls-18" d="M639.72,104.86c-13.5,6.1-29.55,6.31-43.2,.55-.48-.2-1.02-.41-1.49-.19-.34,.16-.54,.5-.73,.82-2.43,4.33-4.03,9.1-6.66,13.3-3.64,5.8-9.07,10.24-14.64,14.21-.56-2.29-1.15-4.65-2.56-6.54s-3.88-3.2-6.15-2.54c-2.58,.75-3.88,3.58-4.71,6.14-1.04,3.19-1.87,6.45-2.48,9.74-.34,1.85-.6,3.82,.14,5.54,.96,2.23,3.32,3.46,5.5,4.52-2.26,8.97-8.38,16.89-16.48,21.35l-.94-1.03c-2.08-3.58-6.77-4.38-10.58-6.02-4.48-1.93-8.11-5.37-11.62-8.76-6.12-5.93-12.21-12-16.74-19.21-5.49-8.74-8.52-19.12-7.96-29.43s4.84-20.48,12.25-27.67c1.08-1.05,2.24-2.05,3.09-3.3,1.07-1.58,1.56-3.47,2.17-5.28,3.41-10.17,10.91-18.9,20.44-23.82s20.99-5.96,31.26-2.85c10.36,3.14,19.04,10.14,27.44,16.98,16.49,13.44,33.01,26.9,47.94,42.05l-3.3,1.44Z"/>
      <path class="cls-16" d="M638.96,103.56c-9.77,4.37-20.93,5.61-31.44,3.6-2.66-.51-5.27-1.22-7.82-2.12-1.16-.41-2.34-1.07-3.54-1.33-1.41-.31-2.46,.41-3.16,1.57-2.91,4.79-4.44,10.26-7.71,14.87-3.46,4.87-8.24,8.67-13.05,12.11l2.2,.9c-.99-4.06-2.5-8.57-6.88-10.02s-7.34,1.79-8.82,5.39c-.89,2.17-1.51,4.47-2.08,6.75s-1.2,4.81-1.38,7.24c-.16,2.18,.38,4.28,1.84,5.94,1.3,1.47,3.11,2.41,4.85,3.25l-.69-1.69c-2.23,8.65-7.99,16.1-15.79,20.45l1.82,.23c-.88-.97-1.54-2.07-2.55-2.94-1.42-1.22-3.1-2.01-4.83-2.69-1.87-.74-3.81-1.3-5.61-2.21-2.06-1.04-3.95-2.39-5.7-3.88-3.64-3.09-7.02-6.54-10.34-9.96s-6.63-7.16-9.38-11.19c-5.35-7.84-8.72-17.09-9.02-26.63-.28-8.84,2.16-17.7,7.19-25.01,1.22-1.77,2.59-3.42,4.1-4.95,1.6-1.62,3.38-3.06,4.45-5.12s1.58-4.34,2.42-6.49c.74-1.9,1.65-3.73,2.68-5.49,4.24-7.24,10.68-13.12,18.35-16.56,8.49-3.82,18.39-4.51,27.35-2s16.73,8.11,23.93,13.87c15.85,12.67,31.64,25.59,46.24,39.7,1.81,1.75,3.6,3.52,5.37,5.32l.3-2.36-3.3,1.44c-1.76,.77-.24,3.36,1.51,2.59l3.3-1.44c.91-.4,.92-1.73,.3-2.36-14.95-15.15-31.46-28.62-47.94-42.05-7.36-6-14.87-12.08-23.7-15.77-8.93-3.73-18.92-4.42-28.27-1.91-8.65,2.32-16.45,7.42-22.1,14.36-2.71,3.33-4.92,7-6.56,10.97-.88,2.11-1.36,4.42-2.38,6.47s-3.02,3.58-4.64,5.28c-6.24,6.6-10.06,15.22-11.24,24.18-1.27,9.65,.7,19.51,4.89,28.25s11.23,16.38,18.32,23.3c3.48,3.4,6.98,6.96,11.23,9.41,1.83,1.05,3.81,1.78,5.79,2.5,1.79,.64,3.7,1.3,5.17,2.54,.99,.83,1.68,1.98,2.55,2.94,.45,.5,1.26,.55,1.82,.23,8.46-4.72,14.75-12.87,17.17-22.25,.16-.6-.09-1.4-.69-1.69-1.35-.66-2.78-1.33-3.87-2.4-1.24-1.21-1.47-2.75-1.31-4.42,.35-3.79,1.51-7.69,2.71-11.29,.78-2.37,2.27-5.89,5.39-5.09,3.47,.89,4.41,5.04,5.14,8.03,.21,.88,1.42,1.46,2.2,.9,4.3-3.08,8.53-6.37,11.97-10.42s5.7-9.07,8.03-14.02c.32-.68,.65-1.36,.99-2.03,.18-.35,.51-1.45,.85-1.59,.4-.17,1.31,.39,1.71,.54,.66,.26,1.33,.51,2,.74,2.56,.89,5.18,1.57,7.84,2.06,5.25,.96,10.62,1.21,15.93,.67,6.03-.61,11.86-2.17,17.4-4.65,1.76-.79,.24-3.37-1.51-2.59Z"/>
    </g>
    <circle class="cls-17" cx="606.26" cy="128.69" r="4.49"/>
    <g>
      <path class="cls-10" d="M505.39,591.05c3.05-2.81,6.1-5.62,8.9-8.67,10.77-11.76,17.4-26.84,21.3-42.3s5.21-31.45,6.51-47.35c.57-6.96,1.14-13.96,.57-20.92,6.08,.39,12.18,2.12,17.1,5.71,4.78,3.48,8.22,8.5,11.12,13.66,10,17.8,14.63,39.52,8.28,58.92-2.98,9.09-8.19,17.29-11.57,26.24-3.48,9.22-5.13,19.45-11.33,27.11-.84,1.04-1.8,2.05-3.03,2.59-1.06,.46-2.23,.53-3.38,.59-7.84,.38-15.77,.23-23.4-1.56-7.64-1.8-15.01-5.34-20.43-11l-.62-3.01Z"/>
      <path class="cls-20" d="M506.45,592.11c6.11-5.63,11.85-11.43,16.46-18.37,4.29-6.46,7.66-13.51,10.31-20.79,5.94-16.29,8.07-33.64,9.58-50.82,.89-10.04,2.15-20.24,1.36-30.32l-1.5,1.5c6.87,.47,13.64,2.71,18.73,7.5,4.9,4.61,8.28,10.79,11.14,16.81,5.83,12.27,9.04,26.07,7.76,39.69-.66,7.01-2.71,13.67-5.62,20.06-2.99,6.58-6.51,12.92-8.95,19.73-2.23,6.2-3.68,12.72-6.5,18.7-1.33,2.82-2.99,6.02-5.38,8.09-1.29,1.12-2.83,1.2-4.46,1.27-2.08,.1-4.17,.15-6.25,.15-8.16-.01-16.46-.96-24.03-4.18-3.35-1.43-6.57-3.29-9.36-5.63-.62-.52-1.22-1.06-1.8-1.62-.14-.13-.81-1.06-.48-.22-.06-.15-.07-.34-.1-.49l-.51-2.49c-.39-1.89-3.28-1.09-2.89,.8l.47,2.3c.24,1.18,.95,1.83,1.83,2.65,2.56,2.39,5.47,4.4,8.57,6,6.62,3.42,13.95,5.05,21.33,5.63,4.16,.33,8.33,.32,12.49,.15,1.8-.07,3.68-.08,5.34-.84s2.78-2.1,3.84-3.47c4.32-5.6,6.46-12.43,8.53-19.09,1.06-3.42,2.14-6.84,3.51-10.16,1.49-3.6,3.24-7.09,4.95-10.59,3.33-6.84,6.39-13.78,7.74-21.32,2.56-14.35,0-29.19-5.62-42.52-2.77-6.58-6.15-13.16-10.76-18.66-4.66-5.56-10.95-9.13-18.05-10.52-1.8-.35-3.63-.58-5.47-.7-.77-.05-1.56,.73-1.5,1.5,.69,8.82-.28,17.68-1.02,26.46s-1.56,17.56-2.94,26.27c-2.48,15.65-6.79,31.23-15.08,44.86-2.22,3.64-4.7,7.12-7.49,10.35-3.17,3.67-6.73,6.96-10.3,10.24-1.42,1.31,.7,3.43,2.12,2.12Z"/>
    </g>
    <g>
      <path class="cls-15" d="M602.91,592.17c5.2,1.05,10.44,2.12,15.29,4.27,3.52,1.56,6.77,3.68,9.98,5.82,12.53,8.36,25.19,17.94,31.33,31.69-7.19,1.43-14.39,2.87-21.58,4.3-5.08,1.01-10.17,2.03-15.31,2.63-4.92,.58-9.88,.79-14.83,.94-20.69,.61-41.95,.07-61.18-7.59-.76-.3-1.55-.63-2.11-1.23-.94-.99-1.09-2.47-1.17-3.83-.39-7.35,.05-14.73,1.3-21.98,.33-1.89,.72-3.82,1.73-5.45,1.06-1.72,2.71-2.98,4.43-4.04,7.24-4.46,15.99-5.76,24.49-6.12,7.95-.33,15.93,.07,23.8,1.21l3.85-.61Z"/>
      <path class="cls-1" d="M602.51,593.62c4.9,.99,9.89,1.97,14.51,3.94s8.66,4.8,12.73,7.57c7.35,5.01,14.54,10.44,20.41,17.17,3.26,3.74,6.01,7.89,8.05,12.41l.9-2.2c-7.19,1.43-14.39,2.87-21.58,4.3s-14.12,2.69-21.33,3.15c-13.56,.87-27.39,.99-40.92-.47-6.79-.73-13.55-1.97-20.11-3.89-1.45-.43-2.9-.89-4.33-1.38-1.53-.53-3.67-.99-4.97-1.99-1.06-.82-1.02-2.32-1.08-3.54-.1-1.96-.13-3.92-.11-5.88,.04-3.6,.28-7.19,.71-10.76,.37-3.07,.57-6.85,2.24-9.54,1.58-2.55,4.67-4.11,7.3-5.33,2.87-1.33,5.96-2.22,9.06-2.84,7.49-1.51,15.34-1.57,22.94-1.2,1.95,.1,3.89,.24,5.83,.42,1.05,.1,2.1,.21,3.15,.34s2.12,.43,3.14,.41c1.4-.03,2.87-.45,4.25-.67,1.9-.3,1.09-3.19-.8-2.89l-1.92,.31-1.13,.18c-.17,.03-.34,.06-.51,.08-.29,.04-.36-.08,.03-.02-3.68-.49-7.36-.89-11.06-1.1-7.22-.41-14.55-.32-21.72,.74-6.41,.95-13.16,2.91-18.32,6.99-2.64,2.09-3.94,4.83-4.56,8.08-.69,3.61-1.12,7.28-1.38,10.94s-.32,7.68-.15,11.52c.07,1.48,.11,3.06,.8,4.42,.75,1.5,2.12,2.22,3.62,2.82,6.6,2.66,13.55,4.45,20.56,5.64,14.03,2.38,28.32,2.43,42.51,1.96,8.53-.28,16.87-1.2,25.25-2.82s16.93-3.37,25.4-5.05c1.04-.21,1.26-1.39,.9-2.2-3.79-8.37-10-15.35-16.96-21.24-3.49-2.95-7.17-5.68-10.93-8.28-4.09-2.84-8.23-5.75-12.71-7.94-5.34-2.6-11.12-3.84-16.9-5.01-1.88-.38-2.69,2.51-.8,2.89Z"/>
    </g>
    <g>
      <path class="cls-10" d="M447.54,352.69c14.33,8.76,30.89,12.98,47.09,17.41,4.3,1.18,8.6,2.38,12.81,3.85,6.95,2.42,13.21,6.2,19.98,9.03,7.27,3.04,14.22,6.5,20.78,10.88,13.9,9.26,25.8,21.13,37.55,32.9,3.48,3.49,6.98,7,9.81,11.02,2.62,3.72,4.64,7.82,6.65,11.9,2.57,5.22,5.14,10.44,7.71,15.67,2.18,4.43,4.37,8.88,5.83,13.59,2.83,9.15,3.08,15.99,4.87,25.87l1.05,4.83c2.98,21.77,1.8,44.09-3.45,65.42-1.01,4.1-2.16,8.16-2.95,12.3-1.06,5.63-1.52,11.63-4.73,16.37-2.79,4.12-7.39,6.76-12.22,7.97s-9.88,1.1-14.83,.62c-13.11-1.29-25.95-5.22-37.53-11.48,1.51-2.14,2.22-4.13,3.73-6.27l.78-1.12c7.21-15.34,13.33-31.24,17.55-47.66,2.18-8.46,3.85-17.28,2.35-25.89-1.63-9.38-6.91-17.72-12.9-25.11-5-6.17-10.58-11.87-16.63-17-23.57-19.98-53.53-30.81-78.69-48.75-7.35-5.24-14.4-11.23-19.03-18.97-5.9-9.85-7.4-21.74-7.15-33.21,.19-8.85,1.53-18.12,6.84-25.19l4.72,1.03Z"/>
      <path class="cls-20" d="M446.79,353.98c11.58,7.03,24.55,11.22,37.52,14.84,6.64,1.86,13.34,3.52,19.91,5.63s12.67,5.34,18.95,8.27,12.57,5.45,18.55,8.89,11.49,7.42,16.78,11.73c10.59,8.62,20.44,18.35,29.86,28.22,2.32,2.43,4.55,4.96,6.43,7.75s3.53,5.93,5.07,9.01c3.24,6.5,6.44,13.02,9.62,19.55,3.02,6.19,5.41,12.45,6.77,19.22,1.2,6,1.69,12.13,2.91,18.13,.29,1.43,.62,2.85,.93,4.28,.61,2.78,.76,5.74,1.01,8.57,.62,7.13,.81,14.3,.55,21.45-.26,7.18-.95,14.35-2.1,21.45-1.16,7.12-2.95,14.06-4.65,21.06-.81,3.33-1.38,6.69-1.97,10.06-.52,2.94-1.12,5.97-2.43,8.68-2.71,5.62-8.33,8.75-14.29,9.87-6.91,1.3-14.34,.28-21.18-1.03s-13.12-3.19-19.35-5.77c-3.07-1.27-6.06-2.71-8.98-4.29l.54,2.05c1.41-2.05,2.39-4.34,3.81-6.38,1.21-1.74,1.98-3.74,2.85-5.67,2.3-5.1,4.48-10.25,6.51-15.46,4.07-10.48,7.63-21.25,10.1-32.23,1.22-5.42,2.09-11,1.9-16.57-.18-5.24-1.4-10.29-3.46-15.11-4.05-9.44-10.92-17.69-18.02-25-14.55-14.99-32.65-25.41-50.84-35.33-8.95-4.88-17.94-9.71-26.61-15.09-8.56-5.31-17.23-11.06-24-18.61-6.92-7.72-10.48-17.39-11.58-27.62-.55-5.08-.62-10.23-.3-15.33s1.1-9.89,2.94-14.49c.9-2.24,2.11-4.35,3.54-6.29l-1.69,.69,4.72,1.03c1.88,.41,2.69-2.48,.8-2.89l-4.72-1.03c-.72-.16-1.28,.12-1.69,.69-5.95,8.04-7.06,18.48-7.07,28.19,0,10.2,1.48,20.67,6.29,29.79s12.44,15.57,20.49,21.33,17.1,11.07,26,16.01c17.89,9.92,36.48,19.09,52.22,32.34,8.12,6.84,15.67,14.71,21.62,23.53,2.82,4.19,5.26,8.69,6.75,13.54,1.63,5.3,1.93,10.79,1.38,16.29s-1.98,11.28-3.48,16.78-3.12,10.63-4.95,15.87-3.88,10.56-6.06,15.75c-1.12,2.66-2.27,5.31-3.47,7.94-.85,1.89-1.62,3.81-2.8,5.51-1.4,2.02-2.37,4.29-3.77,6.32-.45,.65-.14,1.69,.54,2.05,12.27,6.6,25.87,10.7,39.77,11.82,6.71,.54,13.72,.14,19.75-3.14,5.71-3.1,8.98-8.31,10.42-14.54,.73-3.14,1.12-6.35,1.76-9.51,.74-3.64,1.74-7.22,2.63-10.82,1.76-7.08,3.07-14.26,3.95-21.5,1.79-14.71,1.7-29.63-.26-44.32-.21-1.56-.6-3.08-.93-4.62-.53-2.44-.9-4.91-1.26-7.37-.94-6.29-1.76-12.58-3.57-18.7-2.06-6.97-5.55-13.43-8.75-19.93-3.22-6.53-6.17-13.3-9.94-19.54s-8.67-10.98-13.63-15.95-9.81-9.77-14.91-14.46c-10.36-9.51-21.49-18.17-34.19-24.34-3.17-1.54-6.42-2.87-9.63-4.3s-6.3-3.02-9.45-4.53c-6.53-3.14-13.29-5.35-20.27-7.28-13.3-3.68-26.84-7-39.39-12.89-3.09-1.45-6.1-3.06-9.01-4.83-1.65-1.01-3.16,1.59-1.51,2.59Z"/>
    </g>
    <g>
      <path class="cls-6" d="M479.62,242.4c-.83,4.77-1.42,10.08-2.95,14.95-.76,2.42-1.52,4.84-2.29,7.26-.67,2.12-1.33,4.23-2.06,6.33-1.94,5.62-4.3,11.09-6.66,16.55-1.75,4.06-3.5,8.12-5.25,12.18-2.07,4.79-4.14,9.59-6.48,14.26l-1.02,1.35c-2.27,3.87-4.53,7.75-6.8,11.62-3.96,6.78-7.94,13.57-12.47,19.98-.2,.29-.41,.59-.45,.94-.03,.3,.06,.59,.16,.88,2.28,6.66,5.76,12.91,10.22,18.35l1.21,1.57c6.02,7.09,14.66,11.32,23.03,15.37,3.65,1.76,7.32,3.53,11.17,4.8,4.44,1.46,9.07,2.24,13.69,2.94,14.02,2.11,28.36,3.46,42.33,1.01,.73-.13,1.5-.29,2.05-.78,.4-.36,.65-.85,.88-1.34,5.04-10.46,9.45-21.23,13.2-32.22l1.18-2.46c8.7-28.45,13.63-58.05,14.62-87.78l.06-1.3c.37-19.05-.83-38.13-3.59-56.99-.43-2.95-.94-5.99-2.55-8.5-2.02-3.16-5.5-5.03-8.82-6.78-2.84-1.49-5.69-2.98-8.53-4.47-2.73-1.43-5.49-2.87-8.5-3.54-3.98-.88-8.12-.33-12.14,.37-4.26,.74-8.53,1.68-12.47,3.47-7.27,3.32-12.98,9.42-17.15,16.24s-6.95,14.37-9.7,21.88c-1.26,3.43-2.07,6.08-2.96,9.67l-.96,4.2Z"/>
      <path class="cls-11" d="M478.18,242c-.79,4.56-1.32,9.19-2.57,13.66-1.31,4.7-2.86,9.37-4.42,13.98-3.19,9.45-7.44,18.54-11.39,27.69-1.95,4.52-3.88,9.05-6.01,13.49-.39,.82-.74,1.71-1.24,2.46-.27,.42-.63,.79-.91,1.2-1.34,2-2.46,4.19-3.67,6.27-2.55,4.35-5.07,8.72-7.67,13.04s-5.26,8.23-7.95,12.32c-1.32,2-.04,4.21,.77,6.2s1.71,3.93,2.72,5.82c1.95,3.65,4.32,6.96,6.86,10.22,4.85,6.21,11.5,10.44,18.44,14,4.03,2.07,8.12,4.09,12.29,5.88,4.37,1.88,8.86,3.19,13.54,4.06,9.71,1.79,19.67,3.01,29.54,3.22,4.9,.1,9.81-.09,14.67-.71,2.07-.26,4.9-.24,6.63-1.56,.79-.6,1.2-1.43,1.62-2.31,.55-1.15,1.09-2.3,1.63-3.45,4.13-8.92,7.83-18.05,11.05-27.34,.38-1.11,.87-2.11,1.36-3.18,.83-1.78,1.24-3.81,1.79-5.69,1.38-4.76,2.65-9.56,3.81-14.38,2.31-9.56,4.2-19.22,5.68-28.95,2.85-18.81,4.19-37.84,3.69-56.86-.27-10.18-.98-20.35-2.14-30.47-.55-4.83-1-9.78-2.04-14.53-.93-4.28-3.14-7.57-6.73-10.05s-7.85-4.38-11.77-6.44-8.15-4.37-12.83-4.86-9.7,.5-14.33,1.5c-4.37,.95-8.64,2.39-12.46,4.76-7.23,4.48-12.56,11.45-16.45,18.9-2.19,4.2-3.98,8.6-5.66,13.03s-3.24,8.62-4.43,13.07c-.53,1.99-.97,4-1.43,6-.43,1.88,2.46,2.68,2.89,.8,.46-2,.9-4.01,1.43-6,1.13-4.23,2.64-8.33,4.18-12.42,3.08-8.18,6.6-16.45,12.32-23.17,2.59-3.04,5.57-5.76,9-7.83,3.79-2.29,8-3.56,12.31-4.44s9.3-1.89,13.85-1.02,8.47,3.42,12.44,5.5c3.61,1.89,7.71,3.57,10.81,6.27,3.38,2.95,4.06,7.08,4.67,11.31,1.4,9.7,2.37,19.47,2.93,29.26,1.05,18.34,.53,36.67-1.55,54.93-2.16,18.93-5.95,37.69-11.27,55.98-.47,1.61-.82,3.31-1.54,4.81-.54,1.12-1,2.19-1.41,3.37-1.56,4.51-3.24,8.98-5.02,13.41s-3.64,8.72-5.62,13c-.5,1.08-1.01,2.16-1.52,3.24-.48,1.01-.73,1.91-1.9,2.18-2.31,.53-4.73,.75-7.08,.97-9.56,.87-19.18,.21-28.68-.99-4.65-.59-9.32-1.23-13.91-2.2s-9.02-2.55-13.31-4.55c-7.46-3.47-15.3-6.98-21.67-12.28-5.56-4.62-9.9-10.97-13.04-17.42-.94-1.93-1.88-3.94-2.51-6-.18-.58-.21-.76,.14-1.26,.32-.46,.64-.92,.96-1.38,.73-1.06,1.44-2.12,2.14-3.2,2.59-3.96,5.01-8.02,7.41-12.1s4.99-8.53,7.49-12.8c.66-1.14,1.44-2.15,2.13-3.26,1.16-1.86,1.97-4.04,2.88-6.03,3.95-8.7,7.7-17.53,11.41-26.34,1.84-4.36,3.57-8.76,5.04-13.26s3.03-8.96,4.2-13.51c1.08-4.2,1.6-8.51,2.33-12.78,.33-1.89-2.56-2.7-2.89-.8Z"/>
    </g>
    <g>
      <path class="cls-13" d="M490.58,410.33c7.28,3.51,14.08,8,20.15,13.33,.81,.71,1.63,1.46,2.05,2.45s.35,2.27-.45,2.98c-.62,.55-1.52,.64-2.35,.68-3.63,.2-7.27,.07-10.88-.38,1.91,6.51,3.83,13.02,5.74,19.54,.88,2.98,1.75,5.96,2.27,9.02,.39,2.3,.56,4.62,.65,6.95,.03,.76,0,1.64-.62,2.09-.37,.27-.87,.3-1.32,.28-.95-.05-1.89-.33-2.7-.83-2.31-1.43-3.51-3.77-4.57-6.11-2.08-4.62-3.74-9.44-4.92-14.37,.31,9.68,4.54,19.18,3.16,28.77-.2,1.37-.6,2.89-2.12,3.36-.8,.25-1.68,.1-2.41-.32-1.51-.86-2.24-2.45-2.88-4-3.33-8.01-5.64-16.4-7.95-24.76,.64,8.65,.38,17.36-.78,25.96-.1,.72-.47,1.41-1.1,1.78-1.13,.67-2.17-.16-2.87-1.01-1.62-1.98-2.55-4.42-3.37-6.85-2.38-7.1-4.01-14.46-4.85-21.91,1.77,7.86,.43,16.12-1.92,23.83-.27,.89-.9,1.98-1.8,1.74-.5-.13-.79-.64-1.01-1.11-1.74-3.75-1.12-7.91-2.02-12.4-.3-1.51-.26-3.9-.17-5.7,.08-1.59,0-3.19-.25-4.76s-.52-3.68-.48-5.17c.06-2.32-.07-6.11-.2-8.42l-.59-11.08,.02-1.52c-.77-9.51-.21-19.08,.35-28.6,.24-4.07,.48-8.13,.72-12.2,.25-4.25,.5-8.51,.87-12.75,.88-10.17,2.43-20.28,4.1-30.35,.37-2.22,.75-4.47,1.59-6.56l.26-2.82c4.26-24.35,11.95-48.09,22.77-70.31,1.21-2.49,2.72-5.19,5.36-6.02,1.59-.5,3.32-.22,4.96,.1,9.45,1.83,19.42,5.01,25.12,12.76,.66,.9,1.27,1.9,1.39,3.01,.15,1.41-.51,2.77-1.15,4.04-14.47,28.86-25.59,59.4-33.08,90.8l-.68,3.05c-2.62,13.97-5.24,28.21-3.49,42.32l1.4,1.48Z"/>
      <path class="cls-12" d="M489.82,411.62c6.16,2.99,12.01,6.64,17.32,10.96,1.24,1.01,2.65,2.02,3.69,3.25,.37,.43,.89,1.15,.68,1.77-.2,.58-.81,.6-1.35,.64-3.66,.3-7.41,.07-11.06-.37-.98-.12-1.69,1.05-1.45,1.9,2.41,8.21,5.1,16.39,7.19,24.69,.5,1.98,.9,3.98,1.12,6,.11,1,.19,2.01,.24,3.02,.02,.43,.27,2.1-.04,2.27-.53,.3-1.84-.36-2.29-.63-.78-.47-1.45-1.14-2-1.86-1.03-1.37-1.73-2.99-2.41-4.55-1.86-4.25-3.3-8.67-4.4-13.17-.4-1.63-3.01-1.3-2.95,.4,.32,8.35,3.43,16.36,3.43,24.73,0,1.6,.14,3.88-.65,5.33-1.05,1.92-3.01-.44-3.57-1.53-1.9-3.68-3.12-7.85-4.38-11.79-1.49-4.66-2.79-9.38-4.08-14.09-.44-1.58-3.07-1.33-2.95,.4,.35,4.9,.44,9.81,.22,14.72-.11,2.45-.29,4.9-.54,7.34-.12,1.16-.03,2.78-.48,3.86-.5,1.19-1.38-.21-1.79-.8-1.24-1.78-1.98-3.82-2.66-5.86-.76-2.27-1.43-4.56-2.03-6.88-1.23-4.73-2.13-9.55-2.68-14.41l-2.95,.4c.83,3.81,.92,7.71,.53,11.57-.2,1.96-.54,3.9-.96,5.82s-.8,3.97-1.53,5.76c-.14,.35-.53,.61-.05,.63s.09-.34-.06-.69c-.35-.84-.58-1.74-.74-2.63-.33-1.78-.37-3.6-.52-5.39s-.56-3.43-.66-5.16,.06-3.43,.06-5.14c0-1.88-.34-3.71-.56-5.57-.19-1.62-.18-3.23-.19-4.86-.01-2.36-.1-4.72-.23-7.07-.18-3.38-.36-6.76-.54-10.14-.31-5.71-.47-11.44-.31-17.17,.23-8.27,.83-16.53,1.32-24.79s1.06-16.38,2.09-24.53c.53-4.2,1.15-8.38,1.81-12.56,.61-3.86,1.01-7.9,2.15-11.65,.33-1.07,.58-1.96,.68-3.06,.09-.97,.21-1.89,.38-2.84,.7-3.88,1.49-7.74,2.37-11.58,1.72-7.53,3.76-14.99,6.13-22.34s5.12-14.8,8.17-22c1.51-3.56,3.1-7.08,4.76-10.56,1.23-2.57,2.64-6.65,5.81-7.33,1.76-.37,3.69,.2,5.41,.56,1.57,.33,3.13,.7,4.68,1.13,3.08,.85,6.11,1.9,8.95,3.37s5.44,3.3,7.59,5.65c1.02,1.12,2.51,2.65,2.53,4.26,.02,1.75-1.36,3.63-2.11,5.15-6.89,13.96-13.01,28.31-18.33,42.95-5.32,14.66-9.83,29.62-13.49,44.79-1.45,6.01-2.48,12.13-3.41,18.23-1.23,8.11-2.02,16.33-1.48,24.53,.06,.98,.15,1.95,.25,2.92,.09,.81,.07,1.63,.59,2.29,.41,.52,.93,.99,1.38,1.47,1.33,1.41,3.45-.72,2.12-2.12l-1.4-1.48,.44,1.06c-1.02-8.46-.54-17.02,.63-25.44,.9-6.53,2.01-13.08,3.48-19.51,3.56-15.49,8.27-30.78,13.68-45.72,5.51-15.21,11.92-30.07,19.14-44.54,.81-1.63,1.65-3.33,1.43-5.2s-1.29-3.25-2.38-4.62c-2.02-2.52-4.59-4.6-7.37-6.26-5.69-3.39-12.46-5.33-18.97-6.35-1.87-.29-3.73-.36-5.49,.44-1.44,.65-2.55,1.77-3.47,3.03-2.14,2.92-3.5,6.56-4.98,9.84-3.31,7.29-6.3,14.73-8.95,22.29s-4.92,15.13-6.86,22.85c-.98,3.89-1.87,7.81-2.68,11.75-.61,3.01-1.28,6.03-1.56,9.1-.04,.41-.02,.86-.12,1.26-.14,.56-.49,1.25-.67,1.89-.52,1.93-.81,3.92-1.13,5.88-.7,4.23-1.37,8.46-1.97,12.7-1.2,8.44-2.05,16.91-2.58,25.42s-1.09,16.99-1.46,25.5c-.31,6.97-.04,13.86,.13,20.82,.08,3.36,.36,6.72,.54,10.08,.11,2.05,.2,4.09,.24,6.14,.03,1.51-.05,3.03,.04,4.53,.11,1.85,.49,3.67,.65,5.52s-.02,3.76-.01,5.65c0,1.78,.34,3.45,.56,5.21,.45,3.67,.26,7.46,1.81,10.9,.62,1.38,1.93,2.51,3.52,1.89s2.02-2.37,2.44-3.81c1.12-3.86,1.95-7.82,2.3-11.83s.13-7.84-.7-11.68c-.35-1.62-3.14-1.3-2.95,.4,.5,4.41,1.24,8.79,2.27,13.11s2.17,8.55,3.9,12.56c1.15,2.66,4.49,8.25,7.89,4.82,1.45-1.46,1.33-4,1.53-5.91,.24-2.28,.42-4.56,.54-6.85,.27-5.23,.2-10.47-.18-15.7l-2.95,.4c1.34,4.87,2.68,9.74,4.23,14.54,.77,2.4,1.59,4.79,2.49,7.14,.74,1.94,1.41,4.11,2.59,5.84s3.01,3.03,5.17,2.72c1.91-.27,3.13-1.76,3.59-3.57,1.13-4.44,.42-9.43-.35-13.87-.94-5.41-2.36-10.75-2.57-16.26l-2.95,.4c1.13,4.61,2.64,9.11,4.52,13.47,1.56,3.61,3.64,7.93,7.91,8.8,1.91,.39,4-.02,4.53-2.16,.24-.96,.12-1.98,.06-2.95-.07-1.24-.17-2.48-.32-3.71-.59-4.83-2.06-9.47-3.43-14.12-1.63-5.56-3.27-11.12-4.9-16.68l-1.45,1.9c2.2,.27,4.4,.43,6.61,.47,1.93,.03,4.21,.21,6.09-.34,1.65-.48,2.73-1.92,2.74-3.64,0-1.93-1.23-3.42-2.6-4.64-6.17-5.5-13.18-10.09-20.61-13.69-1.73-.84-3.25,1.75-1.51,2.59Z"/>
    </g>
    <g>
      <path class="cls-6" d="M503.96,212.29c.1,1.72-.62,3.37-1.3,4.96-3.51,8.15-6.44,16.55-8.77,25.12-.77,2.84-1.48,5.72-2.68,8.41-.92,2.07-2.1,4-3.29,5.93,4.14,.15,8.3,.83,12.16,2.35,2.79,1.1,5.39,2.62,7.98,4.13,7.54,4.41,15.09,8.81,22.63,13.22,8.72-11.94,14.65-25.63,20.52-39.2,1.1-2.54,2.2-5.1,2.74-7.81,.41-2.1,.48-4.24,.49-6.38"/>
      <path class="cls-11" d="M502.46,212.29c.04,1.96-.91,3.75-1.65,5.51s-1.44,3.46-2.12,5.21c-1.44,3.69-2.76,7.43-3.96,11.21s-2.18,7.56-3.27,11.35-2.78,7.06-4.83,10.39c-.62,1.01,.19,2.21,1.3,2.26,3.79,.15,7.54,.74,11.11,2.05s6.75,3.33,9.98,5.22c6.97,4.07,13.95,8.15,20.92,12.22,.75,.44,1.57,.12,2.05-.54,9.1-12.51,15.36-26.89,21.32-41.08,.86-2.04,1.66-4.12,2.09-6.29s.53-4.51,.54-6.78c.01-1.93-2.99-1.93-3,0-.02,2.47-.11,4.92-.75,7.32s-1.65,4.67-2.63,6.94c-1.92,4.44-3.84,8.87-5.88,13.26-4.06,8.75-8.59,17.3-14.28,25.11l2.05-.54c-7.26-4.24-14.52-8.48-21.78-12.72-3.25-1.9-6.5-3.83-10.06-5.1-3.75-1.34-7.73-1.92-11.69-2.08l1.3,2.26c2.09-3.41,3.86-6.82,5-10.66s2.16-7.89,3.4-11.79,2.63-7.81,4.13-11.65c.76-1.93,1.56-3.85,2.37-5.76,.73-1.72,1.37-3.42,1.33-5.32s-3.04-1.93-3,0h0Z"/>
    </g>
    <g>
      <path class="cls-7" d="M471.68,195.67c-1.17-.69-2.22-1.58-3.26-2.46l-5.89-4.97-.73-.68c-12.63,9.2-20.87,23.25-26.87,37.69-9.57,23.05-14.22,47.8-18.8,72.33-2.37-.92-4.85-1.54-7.37-1.85,2.83,4.78,5.66,9.56,8.49,14.34,5.59-2.05,11.11-4.3,16.55-6.75-1.43-.76-2.85-1.51-4.28-2.27,6.43-15.5,8.7-32.34,12.42-48.71,3.72-16.37,9.26-32.98,20.76-45.2,2.74-2.91,7.11-7.54,9.8-10.24l-.83-1.24Z"/>
      <path class="cls-14" d="M472.43,194.38c-2-1.23-3.74-2.88-5.54-4.4-1.36-1.15-2.74-2.26-4.04-3.48-.44-.42-1.28-.63-1.82-.23-11.94,8.77-20.04,21.49-25.97,34.87-6.77,15.28-11.23,31.47-14.8,47.76-2.06,9.39-3.83,18.83-5.59,28.28l1.85-1.05c-2.52-.96-5.1-1.56-7.77-1.9-1.17-.15-1.82,1.37-1.3,2.26,2.83,4.78,5.66,9.56,8.49,14.34,.31,.53,1.08,.92,1.69,.69,5.71-2.1,11.35-4.41,16.9-6.9,1.03-.46,.93-2.1,0-2.59-1.43-.76-2.85-1.51-4.28-2.27l.69,1.69c6.15-14.94,8.52-30.99,11.97-46.68,3.09-14.06,7.25-28.29,15.63-40.19,2.18-3.1,4.71-5.87,7.31-8.62s5.08-5.37,7.69-7.99c.45-.45,.6-1.27,.23-1.82l-.83-1.24c-1.07-1.6-3.67-.1-2.59,1.51l.83,1.24,.23-1.82c-4.66,4.67-9.49,9.4-13.53,14.61-4.45,5.73-7.86,12.15-10.59,18.86-5.83,14.37-8.21,29.75-11.47,44.82-1.95,9.01-4.26,17.97-7.77,26.52-.24,.58,.16,1.41,.69,1.69,1.43,.76,2.85,1.51,4.28,2.27v-2.59c-5.32,2.38-10.72,4.58-16.19,6.6l1.69,.69c-2.83-4.78-5.66-9.56-8.49-14.34l-1.3,2.26c2.39,.31,4.72,.94,6.97,1.79,.71,.27,1.71-.3,1.85-1.05,3.05-16.34,6.12-32.71,10.67-48.71,4.22-14.82,9.56-29.74,18.03-42.72,4.4-6.74,9.77-12.91,16.28-17.69l-1.82-.23c1.41,1.33,2.93,2.54,4.41,3.79,1.87,1.58,3.69,3.27,5.78,4.56,1.65,1.01,3.16-1.58,1.51-2.59Z"/>
    </g>
  </g>
  <text class="cls-2" transform="translate(159.42 802.55)"><tspan x="0" y="0">s + </tspan><tspan class="cls-3" x="254.4" y="0">i</tspan><tspan class="cls-5" x="292.35" y="0">t = </tspan><tspan class="cls-19" x="513.3" y="0">s</tspan><tspan class="cls-8" x="593.7" y="0">i</tspan><tspan class="cls-9" x="631.65" y="0">t</tspan></text>
</svg>