<svg id="Layer_1" data-name="Layer 1" xmlns="http://www.w3.org/2000/svg" viewBox="0 0 1000 1000">
  <defs>
    <style>
      .cls-1 {
        font-size: 150px;
        fill: #ed2024;
        font-family: FreeSansBold, FreeSans;
      }

      .cls-2 {
        letter-spacing: -0.01em;
      }

      .cls-2, .cls-3 {
        fill: #000;
      }

      .cls-4 {
        font-size: 72px;
        font-family: MicrosoftSansSerif, Microsoft Sans Serif;
      }

      .cls-5 {
        fill: #57575a;
        stroke: #3e3e3e;
        stroke-width: 3px;
      }

      .cls-11, .cls-5 {
        stroke-miterlimit: 10;
      }

      .cls-6 {
        fill: #f3e4c5;
      }

      .cls-7 {
        fill: #f9f0df;
      }

      .cls-8 {
        fill: #e4ba71;
      }

      .cls-9 {
        fill: #0c0c0d;
      }

      .cls-10 {
        fill: #fff;
      }

      .cls-11 {
        fill: none;
        stroke: #231f20;
        stroke-linecap: round;
      }

      .cls-12 {
        fill: #47464e;
      }
    </style>
  </defs>
  <title>dog</title>
  <g>
    <text class="cls-1" transform="translate(357.3 803.86)">D<tspan class="cls-2" x="108.3" y="0">o</tspan><tspan class="cls-3" x="197.7" y="0">g</tspan></text>
    <text class="cls-4" transform="translate(439.06 891.49)">ดอก</text>
    <g>
      <path class="cls-5" d="M587.72,457.54s-12.13,38.32-12.13,53.66-1.28,46-1.28,46-13.42,34.5-16,40.24-12.78,27.47-13.42,31.94-10.22,5.75-10.86,5.75-19.16,0-22.35-2.55-6.39-10.22-4.48-14.06,8.95-10.85,11.5-12.77,8.95-14,9.58-16,7-27.47,7.67-36.41-3.83-25.56-5.75-31.94-3.83-26.83-3.19-30,.64-10.86.64-10.86,19.8-17.88,28.74-21.08S587.72,457.54,587.72,457.54Z"/>
      <path class="cls-5" d="M354.56,108.75c.63,1.11,56.22-4.47,69,0,0,0,45.36-45.35,55.58-50.46,0,0,17.24-9.59,15.33,7,0,0-3.2,62.61-17.25,78.58,0,0,21.08,28.1,21.08,44.71s5.11,62-3.19,85c0,0,68.35-21.08,98.37-20.44s39,5.11,39,5.11,16.61-26.83,9.58-37.05-17.88-8.3-18.52-6.39-2.56,9,0,10.22,5.75,9.59,1.27,12.14-17.24,6.39-27.46,3.83-30.67-20.44-33.22-27.47-15.33-30.66.64-56.85,41.52-40.24,60.68-40.24,42.16.64,59.41,17.24,26.83,44.72,26.83,47.91,1.92,26.2-1.92,45.36-13.41,35.77-22.35,43.44-16.61,15.33-16.61,15.33,23,26.19,23.63,56.85-2.55,72.83-3.19,81.13-5.11,55.58-3.83,62,14,39.61,16,45.36-2.56,17.25-1.92,24.27,3.83,28.75,5.11,39,3.19,31.94,1.28,35.77-8.31,10.86-16.61,10.22-22.36-2.55-23.64-5.75,0-16,3.2-18.52,4.47-1.92,4.47-1.92,3.19-28.1-1.28-36.41-11.5-45.35-17.25-50.46-40.24-61.33-43.43-82.41l-24.92,16.61c-3.83,2.55-41.52,21.72-53.66,23.64s-32.58,2.55-32.58,2.55-8.3,49.19-8.3,63.24S483.6,596.16,481,617.88s-.64,29.38-2.55,33.21-14.06,9.59-19.17,10.86-17.88-.64-21.08-4.47-7-11.5-5.75-15.33,3.2-8.94,7-12.14l3.83-3.19s2.56-58.13,0-65.16-2.55-58.77-2.55-61.32-3.83-6.39-6.39-8.95-27.47.64-35.13,0-30,0-31.94-.64-8.31,0-8.31,0h-3.19s-8.94,54.94-11.5,65.16-5.75,25.55-7.67,51.75c0,0-2.55,22.35-1.91,24.27s-.64,8.94-3.2,11.5-13.41,7.66-16.6,8.3-13.42,1.92-17.89.64-9.58-4.47-8.94-10.22,2.55-13.41,4.47-16,8.94-7.67,8.94-7.67,5.75-67.07,5.75-72.18V481.81c0-7.66-3.83-39-3.19-62s3.83-60.69,3.83-60.69-6.39-27.47-5.75-67.71c0,0-10.22-16-12.78-31.94s-1.91-59.41,1.92-86.88l5.75-18.52A110.1,110.1,0,0,1,289.4,126c-1.91-15.33-1.27-36.41,1.28-58.77,0,0-1.28-23,19.8-7C310.48,60.2,346.9,95.34,354.56,108.75Z"/>
      <path class="cls-6" d="M341.78,113.86s-7.66,6.39-10.22,8.94-9.58,7-12.77,9.59-11.5,8.94-14.06,12.13-5.11,5.75-5.11,6.39-3.83-21.08-4.47-26.19-1.91-15.33-1.28-22.36,0-17.88,1.28-24.27,0-16,5.11-14,8.31,4.47,14.06,12.77,3.19,6.39,12.77,17.25A134.09,134.09,0,0,1,341.78,113.86Z"/>
      <path class="cls-7" d="M333.32,118A19.54,19.54,0,0,0,331,105.14c-3.74-6.45-8.13-11.62-10.63-15.49s-6.89-9.05-8.76-12.27-3.13-4.52-6.34-3.29-5.15,2.48-5.85,6.94.55,5.76-.17,10.86a61.28,61.28,0,0,0-.22,15.33c.54,6.4-.18,11.5.39,16.62s.5,8.95,1.08,13.43,3.81,1.33,9-3.06a127.89,127.89,0,0,1,12.27-9.4C326.23,121.68,333.32,118,333.32,118Z"/>
      <path class="cls-6" d="M433.13,110.67s15.33-17.25,19.81-20.44S466.35,76.81,473.38,73s12.14-1.28,12.14,1.91,0,28.75-1.28,32.58-1.92,14.06-4.47,17.25-9.59,12.78-9.59,12.78S446.55,115.78,433.13,110.67Z"/>
      <path class="cls-7" d="M441.44,111.31s7-8.31,10.22-12.14,9.58-12.78,13.41-15.33,9.59-9.58,13.42-7.67,4.47,5.11,3.83,6.39,1.92,16.61,0,21.72-1.92,12.14-3.83,15.33-8.94,11.5-9.58,12.14-11.5-8.31-12.14-9S444,111.31,441.44,111.31Z"/>
      <path class="cls-8" d="M417.16,154.11c-2-1.15-9.58-1.92-11.49,0s-3.2,6.38-3.2,7.66,0,8.31,1.92,8.95,4.47,1.91,8.3.63,8.31-2.55,8.95-5.75S421.64,156.66,417.16,154.11Z"/>
      <path class="cls-8" d="M359,154.75c-2-1.15-9.58-1.92-11.5,0s-3.19,6.38-3.19,7.66,0,8.31,1.92,8.94,4.47,1.92,8.3.64,8.31-2.55,8.94-5.75S363.5,157.3,359,154.75Z"/>
      <path class="cls-9" d="M349.45,192.43s7-5.11,3.83-11.49-9.58-10.86-12.77-10.22-12.78,2.55-12.78,8.3,1.28,9.58,5.11,12.14S348.17,193.71,349.45,192.43Z"/>
      <path class="cls-9" d="M414.68,192.56s-7.52-5-4.1-11.34,10.26-10.72,13.67-10.09,13.67,2.52,13.67,8.19-1.36,9.46-5.46,12S416.05,193.83,414.68,192.56Z"/>
      <circle class="cls-10" cx="339.13" cy="181.37" r="3.66"/>
      <circle class="cls-10" cx="419.79" cy="182.28" r="3.42"/>
      <path class="cls-7" d="M315,194.35s-.64-1.92-4.48-3.19-8.94,2.55-10.22,4.47-4.47,10.86-4.47,14.05-1.92,35.14,0,40.25,18.53,33.21,21.08,37.69,21.08,31.94,24.91,35.77,28.75,41.52,40.25,41.52,21.08.64,25.55-3.83,27.47-30.66,29.39-36.41S460.6,287,464.43,279.31s12.78-21.72,14.06-26.83,3.83-21.72,3.83-27.47.64-21.72-2.55-28.1-5.11-12.14-10.22-11.5-14.06,1.91-15.34,3.83-1.27,2.56-1.27,7-.64,7-2.56,8.3-3.83.64-10.86,3.2-17.25,5.74-21.08,5.11-10.86,0-14.05-3.2-1.28-5.75-5.75-5.75-5.75-.64-7.67,2.56-17.25,7.66-23.63,5.75S359.67,202,356.48,202s-6.39,0-8.31,2.55,0,5.75-3.83,7-7,2.55-14,.64-13.42,1.27-16-4.47S316.87,196.27,315,194.35Z"/>
      <path class="cls-11" d="M365.42,213.51s-2.55,1.28-2.55,3.2-.64,5.11,2.55,4.47,6.39,1.28,8.3,0,4.48-4.47,3.84-5.75S365.42,213.51,365.42,213.51Z"/>
      <path class="cls-9" d="M347.53,233.32s.64,14.05,5.11,16.61,8.95,2.55,10.23,1.27,8.94-10.22,18.52-.63,39-5.75,40.25-16,5.74,0,3.83,2.55-5.75,8.94-8.31,11.5-13.41,9.58-17.24,10.22-14.7,0-17.89-1.92-11.5-9.58-16.61-.64c0,0-8.3,3.84-14.05-1.27s-7.67-6.39-8.31-11.5.64-7.67,0-9.58S346.26,228.85,347.53,233.32Z"/>
      <path class="cls-9" d="M367.34,274.84s12.13,8.3,17.24,6.39,10.86-2.56,14.7-6.39,9.58-5.75,8.3-3.83-1.28,3.19-5.11,6.38-10.86,6.39-14.69,7.67-9.58,3.19-14.69,0-8.95-2.55-10.22-6.39S364.14,272.92,367.34,274.84Z"/>
      <path class="cls-7" d="M407.58,410.27s20.44-5.11,26.19-10.86a98.3,98.3,0,0,0,14.69-18.53c3.84-6.39,9-13.41,10.86-16s4.48-7.66,7-1.92,7.67,11.5,3.83,17.89-5.75,17.25-11.49,23.64-8.31,13.41-17.25,15.33-12.78,8.94-22.36,3.83-12.78-8.3-13.41-10.22S407.58,410.27,407.58,410.27Z"/>
      <path class="cls-7" d="M371.17,411.54s-9.58-10.22-14.05-14.05-7.67-4.47-14.06-12.14S332.2,371.94,329,368.1s-11.5-5.11-10.22,2.56.64,10.22,4.47,17.89,2.55,9.58,10.22,15.33,8.3,10.22,16,12.13,12.78,3.84,17.25,1.92A7.31,7.31,0,0,0,371.17,411.54Z"/>
      <path class="cls-12" d="M501.49,300.39s-4.48-.64-4.48,1.92.64,4.47,0,10.22-12.77,22.36-14.69,23.63-3.83,8.31,0,8.31,9.58-3.2,12.14-8.31,8.94-16.6,8.94-19.8S504.68,303.59,501.49,300.39Z"/>
      <path class="cls-12" d="M494.46,276.76s-.64,5.75-2.56,8.94-4.47,5.11-5.11,8.3,7,5.75,7.67,3.2,6.39-5.11,5.75-9.58a49.94,49.94,0,0,0-1.92-8.95C497.65,276.76,494.46,276.76,494.46,276.76Z"/>
      <path class="cls-12" d="M438.24,354.05S422.91,364.27,421,367.47s-7,10.86-8.95,14.69-4.47,9.58-6.38,12.77-7,10.23-1.28,10.23,8.94-.64,9.58-7.67,5.11-14.05,8.3-17.89,7-12.13,11.5-14.69,9-5.11,9.58-7.66S438.24,354.05,438.24,354.05Z"/>
      <path class="cls-12" d="M377.56,405.16s-8.31-9.59-10.22-13.42-5.75-9.58-7.67-13.41-3.83-10.23-6.39-13.42-7-7-8.3-7a3.6,3.6,0,0,0-3.2,3.84c0,2.55,3.84,7,6.39,12.13s6.39,10.22,8.31,13.42,4.47,7,5.75,9.58a18.5,18.5,0,0,0,5.75,7C371.17,406.43,380.11,410.9,377.56,405.16Z"/>
      <path class="cls-12" d="M513.62,403.88s.64,12.13,0,17.25,0,8.94-1.28,15.33-2.55,14.05-3.19,18.52-5.11,20.44-6.39,23-4.47,4.47-2.55,5.75,6.45,1.1,6.45,1.1.57-.46,2.49-4.94,7.67-19.8,7.67-24.91,1.91-18.52,1.91-22.36S520.65,421.13,520,416s-.64-12.77-1.92-14.69S513.62,402,513.62,403.88Z"/>
      <path class="cls-7" d="M613.28,445.4s5.74-12.14,8.94-14,7.66-4.48,9.58-7.67,5.11-9.58,0-7-7.66,3.2-10.86,7.67a70.46,70.46,0,0,1-7.66,9.58c-5.11,5.75-8.95,7-11.5,11.5s-5.11,5.75-6.39,8.94,17.89-10.22,17.89-10.22A.89.89,0,0,0,613.28,445.4Z"/>
      <path class="cls-12" d="M470.82,154.11l-7.66-7.67c-3.84-3.83-5.75-8.94-12.78-12.78s-7-5.11-14.69-8.3-8.31-9.58-4.47-8.94,1.27-1.92,12.13,4.47,10.23,4.47,16,10.86,5.11,2.55,10.86,10.86,12.78,15.33,7,15.33S470.82,154.11,470.82,154.11Z"/>
      <path class="cls-12" d="M343.06,126.64s-5.75,1.91-7.66,4.47-7,5.11-10.22,9.58-7.67,5.75-11.5,10.22-5.75,5.75-8.95,12.78-5.11,7.66-7,12.14-4.47,0-2.56-4.48,2.56-8.3,5.75-13.41,4.47-8.94,8.94-12.78,7.67-9.58,13.42-12.77,12.14-7,16.61-7.67S343.06,126.64,343.06,126.64Z"/>
      <path class="cls-7" d="M413.33,486.28c-3.83,0-10.22-1.91-13.41-5.11s-8.95-6.39-14.06-11.5-8.94-3.19-12.77-10.22-8.31-14.05-11.5-11.5-7,2.56-3.2,10.23,3.84,8.3,8.31,14.05,6.39,8.94,8.3,10.86,6.39,3.83-1.28,3.19S362.87,488.84,359,485s-10.86-10.86-10.22-7,2.56,8.3,4.47,8.94,4.47.64,7,1.92,12.78,0,15.33.64,15.33.64,17.89.64,16-1.92,16.61-1.28,14.05-.64,17.24,0,6.39.64,8.95,1.28,4.47,0,3.19-2.56-1.91-2.55-5.11-7.67a83.55,83.55,0,0,1-5.75-10.22c-2.55-5.11-8.94-11.49-8.3-5.75s1.28,8.31,3.83,12.78,7.67,8.94,1.92,8.31-4.47-2.56-8.31-.64S413.33,486.28,413.33,486.28Z"/>
      <path class="cls-12" d="M699.51,635.12c.64,0,0-8.3.64-9.58s-1.91-3.19-4.47-1.28-2.55,9.59-2.55,10.86.63,2.56,2.55,1.92A18.68,18.68,0,0,0,699.51,635.12Z"/>
      <path class="cls-12" d="M682.9,635.12s.64-8.3,1.28-9.58-1.28-1.91-2.55-1.91-3.84,2.55-3.84,3.19v5.11a3,3,0,0,0,3.2,3.19Z"/>
      <path class="cls-12" d="M535.34,621.07s-2.55,2.56-2.55,4.47-.64,3.83,0,5.11,1.27,3.2,0,3.2-4.48.63-4.48-.64-.63-7,0-9-1.27-4.47,3.2-4.47S535.34,621.07,535.34,621.07Z"/>
      <path class="cls-12" d="M520.65,619.79c-.64,0-5.11,3.84-5.11,4.47s.64,2.56,0,3.84,0,4.47-1.28,3.83-3.83-1.92-3.83-3.19-1.28-3.2.64-5.75,1.27-4.48,4.47-4.48A9.83,9.83,0,0,1,520.65,619.79Z"/>
      <path class="cls-12" d="M467,642.15a11,11,0,0,1-1.28,4.47c-1.28,2.56-1.91,4.47-1.28,6.39s1.28,3.83-1.27,3.83-3.84.64-3.84-2.55-1.27-5.11,0-7,2.56-4.47,3.84-5.11S467,642.15,467,642.15Z"/>
      <path class="cls-12" d="M450.38,644.71a7.19,7.19,0,0,0-3.83,2.55c-1.28,1.92-.64,5.11-1.28,6.39s1.28,2.55,0,3.19-1.28,2.56-3.83,0-3.83-3.19-2.56-6.39,0-5.74,3.2-7,7-1.28,7.66,0Z"/>
      <path class="cls-12" d="M311.12,642.79s-3.19,0-3.19,1.92-1.92,1.91-1.28,3.83,1.28,2.55-1.28,2.55-4.47,0-3.83-2.55.64-4.47,3.19-5.75,6.39-2.56,6.39-1.92S312.4,642.79,311.12,642.79Z"/>
      <path class="cls-12" d="M291.32,639l1.92-1.92a1.39,1.39,0,0,1,1.91.64c.64,1.28,1.28.64,0,1.92s0,.63-1.28,2.55S292,645.34,292,646s.64,3.2-.64,1.28-1.92-3.83-1.28-5.11A30.35,30.35,0,0,0,291.32,639Z"/>
      <path class="cls-12" d="M658,280.59s-7.66-4.47-10.86-8.31-7-5.74-10.86-7.66-6.39-1.92-7.66-3.2,4.47-2.55,6.38-1.27,4.48,1.27,9.59,5.11,7.66,2.55,10.86,5.75a30.9,30.9,0,0,0,7,5.75C666.3,279.31,661.19,281.23,658,280.59Z"/>
      <path class="cls-9" d="M374.36,205.85S361.59,202,357.12,211s-.64,19.8,3.19,22.36,15.33,5.75,21.72,1.91,13.41-10.86,12.78-17.24-3.84-10.86-7.67-11.5S374.36,205.85,374.36,205.85Z"/>
      <path class="cls-7" d="M701.43,243.54s9.58-21.08,8.3-41.52-1.27-34.5-12.13-47.91S681,126.64,654.8,121.53s-49.19,2.55-49.19,2.55-18.53,7.67-26.19,18.53c0,0-16,16-18.53,31.3s0,26.83,2.56,30,6.39-21.72,10.86-26.19,13.41-13.41,19.8-16,29.39-4.47,40.88-1.28,27.47,7,35.14,14.06a57.78,57.78,0,0,1,16,24.91c3.19,9.58,7,21.08,7,28.11s0,13.41-1.28,20.44-4.47,14.05-3.2,14.05S701.43,243.54,701.43,243.54Z"/>
    </g>
  </g>
</svg>
