<svg id="Layer_1" data-name="Layer 1" xmlns="http://www.w3.org/2000/svg" viewBox="0 0 1000 1000">
  <defs>
    <style>
      .cls-1 {
        font-size: 150px;
        font-family: FreeSansBold, FreeSans;
      }

      .cls-1, .cls-11 {
        fill: #ed2024;
      }

      .cls-2 {
        letter-spacing: 0em;
      }

      .cls-2, .cls-3, .cls-4, .cls-5 {
        fill: #000;
      }

      .cls-3 {
        letter-spacing: 0em;
      }

      .cls-4 {
        letter-spacing: -0.01em;
      }

      .cls-6 {
        font-size: 72px;
        font-family: MicrosoftSansSerif, Microsoft Sans Serif;
      }

      .cls-7 {
        fill: #d9a980;
        stroke: #b27f66;
        stroke-miterlimit: 10;
        stroke-width: 3px;
      }

      .cls-8 {
        fill: #c59175;
      }

      .cls-9 {
        fill: #c48e70;
      }

      .cls-10 {
        fill: #e2c2ad;
      }
    </style>
  </defs>
  <title>elbow</title>
  <text class="cls-1" transform="translate(282.03 809.49)">E<tspan class="cls-2" x="100.05" y="0">l</tspan><tspan class="cls-3" x="141.75" y="0">b</tspan><tspan class="cls-4" x="232.65" y="0">o</tspan><tspan class="cls-5" x="322.05" y="0">w</tspan></text>
  <text class="cls-6" transform="translate(420 897.7)">เอลโบ</text>
  <path class="cls-7" d="M794.31,507S737.43,500.66,611,576.51,431.93,646,417.19,635.5s-48.46-33.71-73.74-153.8-50.57-225.43-42.14-257S427.72,64.55,438.25,64.55s52.68-2.11,75.85,16.85,50.56,40,33.71,69.53c0,0-8.43,21.07-12.64,12.64,0,0-2.11,14.75-8.43,23.17,0,0-12.64,16.86-16.85,8.43,0,0-6.32,21.07-12.64,27.39,0,0-19,23.18-23.18,10.53,0,0-27.39,33.71-35.82,37.93s-23.17,4.21-23.17,4.21-6.32,10.54-10.53,12.64a263.63,263.63,0,0,0,16.85,59c12.64,29.5,46.35,78,50.56,86.38s16.86,31.61,16.86,40c0,0,31.6-6.32,69.52-27.39s99-56.88,105.35-63.2S699.5,349,703.72,349"/>
  <path class="cls-7" d="M535.17,163.57c0-2.11-10.53-46.35-52.67-69.53"/>
  <path class="cls-7" d="M509.89,195.17s-8.43-48.46-52.67-67.42"/>
  <path class="cls-7" d="M474.07,233.09s2.11-52.67-52.67-73.74"/>
  <path class="cls-7" d="M397.17,199.38s17.29,29.45,32.66,31.71c0,0-17.29-4.53-13.45,13.59"/>
  <path class="cls-7" d="M415.08,275.23s-25.28-16.85-19-31.6,14.75-16.86,16.85-16.86,8.43,2,8.43,2"/>
  <path class="cls-7" d="M404.55,289.77s-34,11.1-60.05,0"/>
  <path class="cls-8" d="M398.22,298.41s-35.81,4.21-44.24,0c0,0,40,33.71,56.89,37.92C410.87,336.33,398.22,302.62,398.22,298.41Z"/>
  <path class="cls-8" d="M406.65,277.34,391.9,262.59s-16.85,31.6-71.63,2.11c0,0,19,21.07,33.71,23.17s35.82,2.11,42.14-2.1A76.31,76.31,0,0,0,406.65,277.34Z"/>
  <path class="cls-8" d="M461.43,216.24s-8.43,21.07-12.64,25.28-10.54,16.86-21.07,16.86-16.85,0-21.07-4.22-8.43-8.42-6.32-10.53c0,0-2.11,8.43,2.11,14.75s8.43,10.53,16.85,10.53,19-4.21,23.18-8.43,19-21.07,21.07-25.28,4.21-16.85,2.1-21.07a39,39,0,0,0-6.32-8.42Z"/>
  <path class="cls-8" d="M488.82,165.68s4.21,21.06,2.11,29.49,0,12.64-6.32,14.75A36.9,36.9,0,0,1,474.07,212s4.21,14.74,4.21,19,12.65-6.32,12.65-6.32,12.64-19,12.64-27.39,0-19-4.22-25.28a43.09,43.09,0,0,0-10.53-10.54Z"/>
  <path class="cls-8" d="M518.59,136s.41,21.17-2,25.2-9.42,11.93-9.42,11.93,3.52,8.74,3.35,10.84,1.25,10.67,1.25,10.67,20.43-17.38,19.18-28.05S520.69,136.18,518.59,136Z"/>
  <path class="cls-8" d="M537.28,113s4.21,16.86,2.1,25.29a67.73,67.73,0,0,1-4.21,12.64l4.21,8.42s12.64-19,10.54-27.38-12.64-19-12.64-19Z"/>
  <path class="cls-9" d="M766.92,492.24s-99,12.64-155.9,46.35S486.71,603.9,476.18,608.11s-61.1,14.75-73.74,0c0,0,10.53,23.18,40,25.28S547.81,599.68,568.88,587s99-54.77,126.41-67.42S766.92,492.24,766.92,492.24Z"/>
  <path class="cls-7" d="M488.82,473.27s8.43,37.93-12.64,73.74"/>
  <path class="cls-7" d="M558.34,209.92s-29.49,35.82-35.81,35.82-33.71-8.43-29.5-21.07,48.46-71.64,59-65.32,27.39,19,12.64,40Z"/>
  <path class="cls-10" d="M530.24,218.29s-10.09-8.83-14.6-6.09-13.34,10.59-13,15.35,5.58,11.57,12.61,11,17.85-13.33,17.67-15.71S530.24,218.29,530.24,218.29Z"/>
  <path class="cls-8" d="M538.33,170.94,532,177.26s-6.32,16.86-8.43,19-6.32,6.33-8.43,6.33,12.65,6.32,12.65,2.1,6.32-14.75,8.42-19,4.22-8.43,8.43-10.53,6.32-2.11,4.21-4.22S538.33,170.94,538.33,170.94Z"/>
  <path class="cls-11" d="M247.88,601.46s52.9,2.63,63.42-.41l.2-18,42.17,24.48-37.12,34.21L315,625.23l-65.9.3Z"/>
</svg>
