<svg id="Layer_1" data-name="Layer 1" xmlns="http://www.w3.org/2000/svg" viewBox="0 0 1000 1000">
  <defs>
    <style>
      .cls-1 {
        font-size: 150px;
        fill: #ed2024;
        font-family: FreeSansBold, FreeSans;
      }

      .cls-2 {
        letter-spacing: -0.03em;
      }

      .cls-3 {
        letter-spacing: -0.02em;
      }

      .cls-3, .cls-4, .cls-5, .cls-6, .cls-7 {
        fill: #000;
      }

      .cls-4 {
        letter-spacing: 0em;
      }

      .cls-5 {
        letter-spacing: -0.01em;
      }

      .cls-6 {
        letter-spacing: -0.01em;
      }

      .cls-8 {
        font-size: 72px;
        font-family: MicrosoftSansSerif, Microsoft Sans Serif;
      }

      .cls-9 {
        fill: #bf202b;
        stroke: #9c1c23;
      }

      .cls-11, .cls-12, .cls-13, .cls-14, .cls-15, .cls-18, .cls-21, .cls-22, .cls-26, .cls-27, .cls-9 {
        stroke-miterlimit: 10;
      }

      .cls-11, .cls-12, .cls-13, .cls-14, .cls-15, .cls-18, .cls-21, .cls-22, .cls-26, .cls-9 {
        stroke-width: 3px;
      }

      .cls-10 {
        fill: #aa1e36;
      }

      .cls-11, .cls-21 {
        fill: #fed2a5;
      }

      .cls-11 {
        stroke: #d3a986;
      }

      .cls-12 {
        fill: #3c3c3b;
        stroke: #191919;
      }

      .cls-13 {
        fill: #f0efef;
        stroke: #838383;
      }

      .cls-14 {
        fill: #ececec;
      }

      .cls-14, .cls-15 {
        stroke: #5c5c5c;
      }

      .cls-15, .cls-18 {
        fill: #fbe805;
      }

      .cls-16 {
        fill: #dbb427;
      }

      .cls-17 {
        fill: #575858;
      }

      .cls-18 {
        stroke: #a69933;
      }

      .cls-19 {
        fill: #f9af92;
      }

      .cls-20 {
        fill: #dab627;
      }

      .cls-21 {
        stroke: #e9bf98;
      }

      .cls-22 {
        fill: #462c1e;
        stroke: #2c1b14;
      }

      .cls-23 {
        fill: #665345;
      }

      .cls-24 {
        fill: #191818;
      }

      .cls-25 {
        fill: #fff;
      }

      .cls-26 {
        fill: #e9234d;
        stroke: #e51b49;
      }

      .cls-27 {
        fill: none;
        stroke: #d36137;
        stroke-width: 4px;
      }
    </style>
  </defs>
  <title>exerise</title>
  <text class="cls-1" transform="translate(204.83 803.44)"><tspan class="cls-2">E</tspan><tspan class="cls-3" x="95.55" y="0">x</tspan><tspan class="cls-4" x="175.2" y="0">e</tspan><tspan class="cls-5" x="257.85" y="0">rc</tspan><tspan class="cls-6" x="395.1" y="0">i</tspan><tspan class="cls-7" x="435.3" y="0">se</tspan></text>
  <text class="cls-8" transform="translate(347.31 889.3)">เอคเซอไซซ</text>
  <g>
    <path class="cls-9" d="M555.93,481.63,545,485.05l5.47-12.31S556.62,477.53,555.93,481.63Z"/>
    <path class="cls-10" d="M535.11,582.62s8.23-3.41,10.41-5.55,2.84-4.52,3-1.71,5.53,12.57,6,13.87,1.92,3.69-.48,7.35-9.17,13.77-10.49,16.36-4.83,11.64-7.22,13.13-10.64,7.07-14.31,6.82-9.09.81-12.74-1.59-5.6-3.93-5.16-4.79,12.29,4.62,21.63-2a49,49,0,0,0,16.12-18.92c2.63-5.17,8.92-7.93,7.66-14s-1.44-11-3.39-10.4S536.62,582.84,535.11,582.62Z"/>
    <path class="cls-11" d="M506.59,461.3s-6.73,36.7-8.51,44.47c0,0,.43,1.3,1.4,17.52s0,35.24-2,38-28.78,4.35-28.78,4.35-1-40.64-3.16-45-7.25-15.61-5.69-21.87S454.45,469,454.45,469s26.47-15.82,38.34-12.5S506.59,461.3,506.59,461.3Z"/>
    <path class="cls-12" d="M627.82,416.17S603,428.42,597.77,431s-17.49,10.1-19.31,12.35-3.54,12.06,3.33,12,47.32-27,49.75-30S627.82,416.17,627.82,416.17Z"/>
    <path class="cls-13" d="M468.53,559.51a14.67,14.67,0,0,0,14.05,2.36c8.45-2.75,16.27-10.85,16.7-10S497,568.67,496.35,571s2.08,13,2.08,13l-21.2,1.16-8.41-1.57-.64-2S468.3,559.84,468.53,559.51Z"/>
    <path class="cls-14" d="M505.08,591.2s3.19,7.59,3,9.1-7.44,14.65-11,21.54-7.67,16.16-18.51,20.42-22.7.92-25.48-3.2-4.54-11.71-4.17-12.79,31.58-13.4,31.58-13.4Z"/>
    <path class="cls-15" d="M470.14,578.86s8.41,3.74,16.22-1,10.65-8.14,10.86-7.49.15,10.38,6.38,16.25-2.27,15.12-5.32,19-5.71,13.36-9,18.75-14.79,14.16-26.23,12.14-14.65-7.45-14.41-11.12,9-14.42,11.59-19.59,4.9-22.45,5.78-24.17S465.83,576.67,470.14,578.86Z"/>
    <path class="cls-16" d="M481.79,582.62s8.24-3.41,10.41-5.55,2.84-4.52,3-1.71,5.54,12.57,6,13.87,1.92,3.69-.48,7.35-9.17,13.77-10.48,16.36-4.84,11.64-7.23,13.13-10.63,7.07-14.31,6.82-9.08.81-12.74-1.59-5.59-3.93-5.16-4.79,12.29,4.62,21.63-2a49,49,0,0,0,16.13-18.92c2.62-5.17,8.91-7.93,7.65-14s-1.44-11-3.39-10.4S483.3,582.84,481.79,582.62Z"/>
    <path class="cls-11" d="M559.91,461.3s-6.73,36.7-8.51,44.47c0,0,.42,1.3,1.39,17.52s0,35.24-2,38S522,565.67,522,565.67s-1-40.64-3.16-45-7.24-15.61-5.69-21.87S507.76,469,507.76,469s26.48-15.82,38.35-12.5S559.91,461.3,559.91,461.3Z"/>
    <path class="cls-13" d="M521.85,559.51a14.64,14.64,0,0,0,14,2.36c8.45-2.75,16.28-10.85,16.71-10s-2.27,16.81-2.93,19.18,2.07,13,2.07,13l-21.19,1.16-8.42-1.57-.63-2S521.62,559.84,521.85,559.51Z"/>
    <path class="cls-14" d="M558.39,591.2s3.2,7.59,3,9.1-7.45,14.65-11,21.54S542.74,638,531.9,642.26s-22.7.92-25.49-3.2-4.53-11.71-4.16-12.79,31.57-13.4,31.57-13.4Z"/>
    <path class="cls-15" d="M523.46,578.86s8.4,3.74,16.22-1,10.64-8.14,10.86-7.49.14,10.38,6.37,16.25-2.26,15.12-5.31,19-5.71,13.36-9,18.75-14.79,14.16-26.24,12.14-14.64-7.45-14.4-11.12,8.95-14.42,11.58-19.59,4.91-22.45,5.78-24.17S519.15,576.67,523.46,578.86Z"/>
    <path class="cls-16" d="M535.79,584s8.24-3.4,10.41-5.55,2.84-4.52,3-1.71,5.54,12.58,6,13.88,1.92,3.69-.48,7.34-9.17,13.78-10.49,16.36-4.83,11.64-7.22,13.14-10.63,7.06-14.31,6.82-9.08.81-12.74-1.6-5.59-3.92-5.16-4.79,12.29,4.63,21.63-2a49,49,0,0,0,16.12-18.92c2.63-5.17,8.92-7.94,7.66-14s-1.44-11-3.39-10.4S537.3,584.21,535.79,584Z"/>
    <path class="cls-12" d="M454.77,395.51s1.37,41.69,0,45.11-3.42,31.44-2.73,34.18,8.2,9.56,30.07,6.83,22.28-5.5,22.28-5.5l6.43-25.26,1.37-10.25,2-28.71Z"/>
    <path class="cls-17" d="M485.53,415.33c.68,1.37,5.47,14.35,8.2,18.45s4.1,9.57,2.74,14.36-2.05,11.62-2.74,15-3.42,7.51-1.37,10.93,4.79,2.74,6.16,1.37S504,461.12,504,461.12l6.84-20.5V420.11l-13.67-6.83Z"/>
    <path class="cls-12" d="M502.4,418.86s5.88,19.37,5.44,22.16-5.25,25.19-5.07,27.23,2.59,8,4,7.91,13.37-6,30.07-3.42,21.8,5.53,22.61,6.83,7.3-2.73,8-9.66-1-26-.68-30.14,1-33.72-.75-38.36-24.13,6.31-32.92,7.8-22.84,5.51-26.18,6.5A7.61,7.61,0,0,0,502.4,418.86Z"/>
    <path class="cls-12" d="M497.15,426.26s11.74,9.87,10.31,14.5"/>
    <path class="cls-17" d="M541.83,411.75s13.31,6.7,13.83,10.55-2.18,9.45-2.84,14.76,2.32,12.11,2.75,15.32,1.34,10-.58,11-9.73-.5-9.73-.5,9.5,3.95,11.2,6.34,3.49,5.41,4.76,4.58,3.69-13.56,2.88-29.79-.25-32.64-.42-33.92-2.22-6.24-2.9-6.15S541.83,411.75,541.83,411.75Z"/>
    <polygon class="cls-9" points="570.56 328.15 576.44 316.21 568.24 308.7 567.55 327.84 570.56 328.15"/>
    <path class="cls-18" d="M582.12,344.61s6-.69,8.36-3.95-3.56-9.75-3.56-9.75l-5.7.34S576.87,343.62,582.12,344.61Z"/>
    <path class="cls-11" d="M455.94,271.28c-1.36.18-9.47-1.13-16.36,19.13s-7.81,43.84-7.81,43.84-24.93,29.62-34.1,43.29c0,0-15.87,13.75-21.51,18-1.79,1.34-8,14.32-3.41,17.77,19.27,14.53,21.83,12.81,26,10.25,9-5.58,11.1-12.1,11.62-13.67,2.05-6.15,2.69-15.79,4.54-17.42s40.54-36.58,43.65-39.08,8.18-25.95,9.38-32.32.57-46.3-2.32-47.29S455.94,271.28,455.94,271.28Z"/>
    <path class="cls-19" d="M464.34,321c-.68,0-11.62,23.24-15,27.34s-10.25,10.25-15,14.36-15,14.35-16.4,15.72-7.52,8.2-7.52,8.2,39-24.61,43.06-28,13.67-26,13.67-28S464.34,321,464.34,321Z"/>
    <path class="cls-11" d="M573.71,269.74c.68,0,10.25-.69,17.08,10.93s22.56,45.8,23.93,48.53,7.52,8.89,6.83,24.61-8.2,49.21-8.88,51.95S614,416,614,417.38s4.11,11.62,4.79,14.35-5.47,15.72-8.89,19.83-13-.69-16.4-2.06-4.1-8.2-3.42-10.93-2.05.68-3.42,0-3.42-3.42-2.05-8.89,5.47-14.35,6.15-19.14-1.36-42.38,0-49.21,2.74-11.62,2.74-11.62-15-19.14-19.82-29.39-14.36-19.83-14.36-19.83Z"/>
    <path class="cls-19" d="M574.39,305.28s8.2,16.4,11.62,21.87,6.83,8.2,8.88,11.62,5.47,7.52,4.11,11.62-3.42,10.26-4.11,13.67-.68,8.21-1.36,9.57.68-16.4,1.36-22.55-10.25-17.78-13.67-21.19-8.88-14.3-9.22-17.75S574.39,305.28,574.39,305.28Z"/>
    <path class="cls-18" d="M455.45,271.1s-7.52,1.37-10.93,8.2-9.57,26-10.94,30.08-2.73,8.89-4.1,12.3,6.83,2.05,15,6.16,14.35,7.51,19.14,8.88,8.2,4.1,8.2,2-10.25-49.9-10.94-50.58S455.45,271.1,455.45,271.1Z"/>
    <path class="cls-20" d="M453.74,274.86c-.68,0-1.36,4.1-1.36,11.62s2.05,15,2.73,22.56,2.05,9.57,0,13.67-4.78,6.15-2.05,6.83,14.36,3.42,14.36,4.11.68-32.13,0-34.18S453.74,274.86,453.74,274.86Z"/>
    <path class="cls-18" d="M586,273.84s9.57,8.88,13,15.72,8.88,19.14,10.93,22.55a40.75,40.75,0,0,1,3.42,8.21s-17.77,4.78-20.51,6.15-10.93,8.2-10.93,10.94-1.37,5.46,0,6.83-4.1,2.05-5.47-2.73l-6.84-23.93-7.51-8.2s6.15-31.44,8.2-33.49S586,273.84,586,273.84Z"/>
    <path class="cls-18" d="M484.16,265c-1.36,0-17.09,1.37-21.19,2.73s-8.88,2.74-8.88,4.11,1.36,19.13,4.1,28.7A140.51,140.51,0,0,1,463,323.73c.69,6.16-6.83,27.35-6.83,32.13s-3.42,13.67-3.42,17.77-3.42,17.09,1.37,24.61,17.09,16.4,36.91,19.14S532,416,540.21,414s26.66-9.57,29.39-13-2.05-34.17-1.36-39.64,3-41.14,2.85-45.86,1.25-32.75,10.82-39.58c0,0,2.16-1.49,6.2,1,0,0,2-.28,1.32-1.65S584.64,268.37,571,265s-25.29-5.47-25.29-5.47-36.91-1.36-49.21,2.74S484.16,265,484.16,265Z"/>
    <path class="cls-21" d="M486.9,265s10.93,34.86,21.87,35.54,33.49-19.82,35.54-23.24,3.42-15,3.42-15l-7.52-5.47Z"/>
    <path class="cls-18" d="M546.36,258.12c-3.41-.69-64.25,4.78-64.25,4.78s-2.73,12.3,10.25,28.71,17.78,17.09,21.19,16.4,26.66-18.45,30.08-22.55,10.25-17.09,10.25-20.51S549.78,258.8,546.36,258.12Zm-8.2,15.72c-3.42,6.15-16.4,20.5-28,21.19s-17.78-29.4-17.78-29.4,44.43-9.57,49.9-4.78S541.58,267.68,538.16,273.84Z"/>
    <path class="cls-20" d="M564.82,331.25c-.68,7.52-8.89,30.76-10.94,32.81s-12.3,10.26-6.15,9.57,15-10.25,13-1.36S558,388,553.88,392.09s13-2,7.52,2.73-17.09,12.31-12.3,10.94,17.77-6.15,18.45-10.94-2.73-39.64-2-45.79S564.82,331.25,564.82,331.25Z"/>
    <path class="cls-20" d="M463,334c.69,2.05-2.05,15.72,1.37,24.6s.68,14.36-2,12.31-.68,12.3,0,15.72,1.37,8.89-1.37,8.89-5.47-7.52-5.47-13.68.69-21.87,2.05-25.29S463,334,463,334Z"/>
    <path class="cls-20" d="M567.55,273.15c-.68,0-5.46-2.73-8.88,0s-6.15,4.79-6.15,2.74,2.73-10.94,2.73-11.62S569.6,266.32,571,267,567.55,273.15,567.55,273.15Z"/>
    <path class="cls-20" d="M479.38,272.47c-1.37-.68-9.57,1.37-12.31,2s-6.83,2.05-8.2,2.05-7.52-4.78-1.37-5.47,17.78-2.05,19.14-2.73S479.38,272.47,479.38,272.47Z"/>
    <path class="cls-19" d="M614,424.9s4.79,5.47,2.74,10.25a87.8,87.8,0,0,1-6.84,12.3c-1.36,2.05-1.36,4.11-4.78,3.42s-8.89-.68-9.57-2.05-2.74-4.1-3.42-5.47.68,5.47,7.52,2,11.62-4.1,12.3-8.88,0-7.52-.68-11.62-2-5.47-1.37-8.89a34.58,34.58,0,0,0,.69-6.15Z"/>
    <path class="cls-22" d="M432.21,159l13.33,40s6.84-7.52,6.15-8.89-3.07-31.1-3.07-31.1Z"/>
    <path class="cls-11" d="M447.77,188.7s-6.33-2.7-8.38-2-5.47,3.41-5.47,5.46-1.36,8.89,1.37,15,10.25,10.94,13.67,11.62S447.77,188.7,447.77,188.7Z"/>
    <path class="cls-19" d="M444.86,209.93s-3.42-.69-3.42-3.42,2.05-4.1,1.37-6.15-.69-3.42-2.05-4.1a5.27,5.27,0,0,0-2.05-.69s1.36-4.78,3.41-3.42a8.41,8.41,0,0,1,3.42,6.84C445.54,201.72,444.86,209.93,444.86,209.93Z"/>
    <path class="cls-11" d="M577.46,222.91s1.37,13-7.51,21.19-38.28,24.61-52.64,26.66-47.16-3.42-59.46-22.56-9.57-32.81-8.89-40.32-2-26.66-4.1-39.65,4.78-28.71,39.64-30.08,75.88.69,87.5,6.84,9.57,47.85,9.57,47.85,9.57-6.15,13.67-4.79,10.93,9.57,8.88,16.41-4.78,14.35-15,17.09S577.46,222.91,577.46,222.91Z"/>
    <path class="cls-19" d="M582.25,213.34c.48-.48,2.73.69,3.42-2.05s.68-3.41,0-4.78,0-4.79,1.36-6.84,4.11-4.78,6.84-4.1,4.78,2.74,4.78,4.79.69,4.78-.68,3.41-3.42-3.41-5.47-2.73-4.78,1.37-4.1,4.1a11.66,11.66,0,0,1,0,6.84c-.68,2.05-1.37,4.1-3.42,4.1s-2.73.68-2.73,0S581.57,214,582.25,213.34Z"/>
    <path class="cls-22" d="M566.19,163.1S573,187.71,573,189.76s2.05,10.94,2.05,10.94,7.52-8.89,8.89-10.25,8.4-2.44,9.67-2.59,4,3.27,5.37,1.9,8.2-25.29,8.2-25.29Z"/>
    <path class="cls-22" d="M585.67,108.08c0-2.73-12.31-34.86-23.24-39s-24.61-8.89-25.29-6.84,4.78,8.2-1.37,4.79-18.46-7.52-24.61-7.52S491.34,61.6,490,65s-43.74,5.46-52,12.3-4.78,15-4.78,15a27.18,27.18,0,0,1-15.38,12C407.1,107.68,409,120,411,123.46s7.52,11.62,8.89,10.94-10.25,15-6.84,19.13,8.79,8.11,12.31,11.62c6.15,6.16,30.42,12.65,44.09,3.08,0,0,12.3,12.3,42.38.68,0,0,.68,2.74,7.51,2.05s28.71-2.05,38.28-8.88a111,111,0,0,1,6.5,9.91c4.1,6.83,8.2-4.79,8.88-5.47s4.1,8.2,4.79,10.94,13.67-4.79,15.72-6.15,5.47.68,8.88,2.73,4.08-1.25,5.47-2,4.44-3.76,3.76-12.65c0,0,2.05,1.37,4.1-2.73s-3.42-32.13-15-39c0,0-6.15-6.84-12.3-6.15,0,0-.68-13-1.37-10.94A61.21,61.21,0,0,0,585.67,108.08Z"/>
    <path class="cls-23" d="M576.78,112.18c-1.37-4.78-10.94-23.24-18.45-28s-13,0-13.67,2-13-6.84-19.83-8.89-11.62-6.84-21.19-4.1-20.5,8.88-29.39,7.52S455.11,76,451,82.1s-13,16.41-15,22.56-11.62,23.93-7.52,21.87,19.14-29.39,34.86-31.44S487.92,83.47,505,91s23.92.68,21.87-.68-4.1-4.1,8.89,4.1S551.49,93,559,99.88s8.89,12.3,14.35,17.09,17.78,5.46,22.56,13,8.2,21.88,8.89,16.41-2.74-16.41-8.21-21.19S576.78,112.18,576.78,112.18Z"/>
    <path class="cls-22" d="M533.31,181.76a1,1,0,0,1-.77-1.65c2.43-2.33,7-5.78,11.43-4.35,6.54,2.09,10.94,4.43,10.65,5.76s-2.86,3.59-6.73,2.06-9.36-2-10-2.13A36.69,36.69,0,0,0,533.31,181.76Z"/>
    <path class="cls-22" d="M479,177.87s-5.56-3.27-9-3.18-8.1.91-9.14,2,.47,5.8,3.86,5,10.25-.28,11.62-.32S479.65,178.53,479,177.87Z"/>
    <ellipse class="cls-24" cx="538.17" cy="205.43" rx="8.4" ry="7.66" transform="translate(275.03 717.85) rotate(-83.71)"/>
    <circle class="cls-25" cx="534.36" cy="203.27" r="2.41"/>
    <ellipse class="cls-24" cx="477.22" cy="204.74" rx="8.4" ry="7.66" transform="translate(221.44 656.67) rotate(-83.71)"/>
    <circle class="cls-25" cx="473.42" cy="202.59" r="2.41"/>
    <path class="cls-11" d="M500.56,215.43a19.77,19.77,0,0,1-4,8.93c-1.9,2.39-4.19,3.3-1.28,6s9.74,3.47,10.7,2.28"/>
    <path class="cls-26" d="M491.68,243.76s.68,12.3,8.2,13,15.72,0,21.19-13.67Z"/>
    <path class="cls-12" d="M417.48,392.22s-25.76,10.14-31.18,12.3S368,413.13,366,415.22s-4.53,11.72,2.32,12.26,49.41-23,52.08-25.75S417.48,392.22,417.48,392.22Z"/>
    <path class="cls-19" d="M552.86,479.92s-7.52-2.73-10.94-3.42-4.1-2.05-2,2.05,4.1,15,4.1,23.93,0,15.72.69,23.24S546,547.59,546,549.64s0,3.42,2.05-1.36,2-33.5,1.37-37.6,3.42-32.13,3.42-32.13Z"/>
    <path class="cls-27" d="M580.54,450.87S512.87,634.06,477.33,651.15s-64.94,19.82-101.85,0-57.42-73.14-52-103.9,15.72-62.2,19.14-70.4,23.58-53.66,23.58-53.66"/>
    <path class="cls-11" d="M382.12,424.21s-6.34-6.83-5.55-8.88,1.59-7.52,7.13-6.84,10.3-.68,15.06-3.42a25.42,25.42,0,0,1,11.09-3.41c1.58,0,4.75,4.1,3.17,6.83s-6.34,17.77-15.85,17.09S383.7,427.63,382.12,424.21Z"/>
    <path class="cls-20" d="M586.69,280s6.15,5.47,7.52,8.2,2,5.47,4.79,10.94,8.88,15.72,8.88,16.4-6.15,2.05-10.25,4.1-10.25,4.79-10.25,4.79-6.73,5.46-7.47,6.49-.74,4.44-2.79-.34-5.85-7.94-3.61-8.07,13.87-3.55,18-6.28,8.2-5.47,5.47-13.68S586.69,280,586.69,280Z"/>
    <path class="cls-20" d="M534.4,329.54s-4.1,8.21-9.57,10.94-13,4.79-15.72,2-3.42.69-.68,3.42,10.93,5.47,16.4,2.73,14.36-9.57,17.77-15.72,7.52-13,7.52-13Z"/>
    <path class="cls-20" d="M483.14,353.47c1.36,3.42,13.67,19.82,17.09,20.5s8.2,6.84,2,5.47-15-9.57-19.14-15-6.84-16.4-6.84-19.82S483.14,353.47,483.14,353.47Z"/>
    <path class="cls-20" d="M490.66,398.58c5.95,2.48,20.5,6.15,23.92,7.52s5.47,2-5.47,1.37-18.45.68-23.24-4.1S482.45,395.16,490.66,398.58Z"/>
    <path class="cls-19" d="M488.61,483.34s7.51-1.37,9.56-2-2.73,8.89-3.41,13.67-2.74,15-1.37,19.14,2.05,17.09,2.05,19.14-.68,10.93-.68,10.93-.69-28-2.05-30.75-2-11.62-2-15.73S488.61,483.34,488.61,483.34Z"/>
  </g>
</svg>
