<svg id="Layer_2" data-name="Layer 2" xmlns="http://www.w3.org/2000/svg" viewBox="0 0 1000 1000"><defs><style>.cls-1{fill:none;stroke-linecap:round;}.cls-1,.cls-11,.cls-2,.cls-8{stroke:#c99393;}.cls-1,.cls-11,.cls-2,.cls-3,.cls-8{stroke-miterlimit:10;stroke-width:3px;}.cls-2{fill:#ffbdbe;}.cls-15,.cls-3{fill:#72183b;}.cls-3{stroke:#3a0e20;}.cls-4{fill:#ec9898;}.cls-5{fill:#e99998;}.cls-6{fill:#ee8484;}.cls-7{fill:#ef9595;}.cls-10,.cls-8{fill:#fff;}.cls-9{fill:#231f20;}.cls-11{fill:#f08484;}.cls-12{fill:#ac2b52;}.cls-13{fill:#ad2a52;}.cls-14{fill:#70193b;}</style></defs><title>pig</title><path class="cls-1" d="M665.12,516.77s25.64.88,15.91-26.53"/><path class="cls-2" d="M96.66,329.34c-.62-.62-27.41-15-31.83-27.4s-2.65-24.76,0-28.29,8-8,8.84-8.84.89-8.84-6.18-5.31-15.92,18.57-15,23c0,0-2.66,12.37,7.07,29.17,0,0,18.56,24.76,37.13,31.83s24.92,6.79,24.92,6.79l-4.75-12.95S100.2,332.88,96.66,329.34Z"/><path class="cls-2" d="M120.08,350.4s13.71-.72,17.25-5.14c0,0,8.84-5.31,7.95-23s-15.91-25.64-15.91-25.64-16.8-8.84-29.17,5.31-5.31,41.55-5.31,41.55,8.84,23.87,25.64,32.71,58.35,23.87,75.15,16.8,2.65-19.45,2.65-19.45-41.55-1.77-53.93-7.08S117,350.56,113.46,340.84a30.6,30.6,0,0,1-1-3.55c-2.3-10.27-1.34-25.82,1-27.4,2.65-1.76,13.26-.88,14.14,3.54,0,0,5.31,15.91,0,20.33s-14.14,3.54-14.14,3.54l-.89-.88"/><path class="cls-2" d="M431.83,644.08S386.58,696.41,347.39,716s-55.62,24.3-59.46,49.7,1.15,69.33-.28,73-77.83,22.37-77.83,22.37-13.69-40.91-10.92-49.82,17.27-100.84,17.27-100.84-3.57-71.67-4-73.81S431.83,644.08,431.83,644.08Z"/><path class="cls-3" d="M206.74,854.35s7.12,15.13,12.55,19.62,17.21,12.61,25.72-7.61c0,0,20.63,30.34,32.95-.44,0,0,16-34.26,10.68-45.83A4.56,4.56,0,0,0,285,820c-1.84.86-34,8.39-49.5,6.41s-35.65-2.25-36.55-3.15-1,3.53-1,3.53S201.35,847.21,206.74,854.35Z"/><path class="cls-2" d="M793.31,629s15,104.32,37.13,120.24-44.2,50.39-44.2,50.39l-19.45-3.54s-67.19-65.42-72.5-79.56,59.24-71.61,60.12-72.5S793.31,629,793.31,629Z"/><path class="cls-4" d="M223.08,697.12s-15.91,91.94-15.91,94.59-5.3,23.87-5.3,25.64,33.59,7.07,36.24,6.19-1.77-37.13-1.77-40.67,1.77-32.71,3.54-37.13,9.73-38.9,9.73-38.9l-8-23Z"/><path class="cls-5" d="M719.93,699.77c3.54,4.42,59.23,91.94,62.77,94.6s-16.8-.89-16.8-.89l-67.19-71.61Z"/><path class="cls-3" d="M781.27,812.08s11.78,8.24,18,9.26,19,2,17.87-16.72c0,0,28.8,13.79,26.58-14.48,0,0-.59-32.45-9.51-38.8a4.52,4.52,0,0,0-3,1.54c-1.15,1.43-24.25,20.84-37.65,26s-29.84,13.63-30.93,13.34.62,3,.62,3S774.05,809.06,781.27,812.08Z"/><path class="cls-2" d="M496.26,350.56c-3.53-5.3,0-6.19,0-6.19s-106.09-30.94-167.09-25.64S237.23,340.84,225.74,347s-54.82,38-73.38,76c0,0-45.09,68.95-53.05,115.81S83.4,658.22,86.05,691.81c0,0-10.61,41.55-15,53.93S52.46,797.9,61.3,827.08s84-.89,84-.89-.88-42.43.89-50.39,7.07-35.36,22.1-46,56.58-23,56.58-23,66.31,61,178.58,78.69,153,2.65,153,2.65,20.33,56.58,29.17,63.65,53.93,8,54.82,7.07,27.4-25.63,27.4-25.63-8.84-69.85-6.19-78.69c0,0,58.35-25.64,93.71-63.65s54.82-89.29,54.82-89.29l-154.72-7.07L560.8,484.06,528.09,357.63Z"/><path class="cls-4" d="M152.36,430.13s-34.48,77.8-38,131.72S102,683.86,90.47,724.52s-23,81.34-18.56,96.37,0,10.61,0,10.61-9.73-4.42-10.61-9.73S59.53,792.6,64,776.68s15.91-45.08,17.68-51.27,9.73-34.48,9.73-38.9S88.7,660,89.59,645.84s3.53-47.74,5.3-59.23,6.19-47.74,10.61-59.23,10.61-36.25,22.1-56.58S152.36,430.13,152.36,430.13Z"/><path class="cls-4" d="M491.84,603.41s4.42,34.48,22.1,52.16,38.9,29.17,44.21,38,13.26,18.57,9.72,57.47,24.76,99,24.76,99-8.85-3.53-10.61-6.19-22.11-51.27-22.11-51.27-7.95-38-7.95-46-1.77-30.06-5.31-36.25-12.37-23.87-26.52-33.6a50.37,50.37,0,0,1-18.56-23S489.19,628.16,491.84,603.41Z"/><path class="cls-3" d="M67.49,857.14s7.07,15,12.37,19.44,16.8,12.38,24.76-8c0,0,20.33,30.06,31.82-.89,0,0,15-34.47,9.73-46a4.3,4.3,0,0,0-3.54,0c-1.77.89-32.71,8.84-47.74,7.07s-34.48-1.76-35.36-2.65-.88,3.54-.88,3.54S62.18,850.06,67.49,857.14Z"/><path class="cls-3" d="M594.36,877s8.73,14.14,14.5,17.93,18.08,10.4,23.69-10.7c0,0,23.6,27.56,31.52-4.48,0,0,11-36,4.47-46.78a4.3,4.3,0,0,0-3.51.4c-1.66,1.08-31.51,12.49-46.64,12.43S583.93,848,583,847.18s-.48,3.61-.48,3.61S588.29,870.6,594.36,877Z"/><path class="cls-1" d="M224.85,706.84s58.35-20.33,86.64-68.07"/><path class="cls-1" d="M490.07,595.45c0,9.72-3.53,56.58,28.29,82.22s30.95,61,31.83,69,6.19,41.55,6.19,41.55"/><line class="cls-1" x1="663.35" y1="657.33" x2="661.58" y2="754.58"/><path class="cls-4" d="M490.07,344.37l-7.95-1.77S461.78,431,466.2,490.24s18.57,83.11,30.95,93.72,58.34,49.5,108.74,56.58,109.62,9.72,117.58,8S777.4,637,780.05,636.12s-37.13,42.43-49.51,49.51-65.42,37.13-65.42,37.13l-1.77,28.29s41.55-23,46-26.53,31.83-22.1,38.9-30,29.18-35.37,31.83-39.79,23-43.32,23-43.32l-155.59-7.07L544,515,518.36,376.2l-23.87-20.33Z"/><path class="cls-4" d="M265.52,688.28s62.77,41.55,120.23,53,120.24,15,134.38,14.15l28.29-1.77,6.19,32.71s-58.35,6.19-95.48,3.54-87.52-15-87.52-15S308,753.7,303.53,751.05s-52.16-24.76-61-33.6-12.37-10.61-12.37-10.61S264.63,690.93,265.52,688.28Z"/><path class="cls-1" d="M681.88,508.07s48.66,32.57,84.91,18.42"/><path class="cls-2" d="M774.74,211.76s8-37.13,46-58.35,105.2-26.52,127.3-22.1a215.6,215.6,0,0,0-1.77,58.35C949.79,220.6,933.88,271,925,280.72S899.4,310.78,880,310.78s-70.73-69.84-70.73-69.84Z"/><path class="cls-6" d="M809.22,220.6s6.19-40.66,65.42-62.77,67.19-23,67.19-23-8.84,3.53-6.18,81.33c0,0,.88,38-19.45,59.23s-34.48,27.41-34.48,27.41l-42.44-51.28Z"/><path class="cls-7" d="M923.27,145.46s-46,14.14-55.7,20.33S833.09,185.24,824.25,202s-9.72,18.56-9.72,18.56,23,20.34,25.64,24.76,10.6,13.26,10.6,13.26S834,214.41,848.12,195s42.44-33.59,49.51-37.13S923.27,145.46,923.27,145.46Z"/><path class="cls-4" d="M779.61,205.13s11.49-23.87,23.87-32.71,20.33-17.68,37.13-23,32.71-9.72,43.32-10.6S858.29,145,842.38,153s-38,23-42.44,29.18-12.38,28.29-12.38,28.29Z"/><path class="cls-2" d="M704.9,188.78S640.37,187,596.16,208.23c0,0-23-43.32-72.49-55.7s-126.42,13.26-152.06,27.41a151.42,151.42,0,0,1,21.21,47.74c7.08,28.29,26.53,61,36.25,73.37s38,37.13,60.12,36.25c0,0-13.26,60.12-11.49,101.67s-13.27,80.45,30.94,127.31S639.48,634.35,716.4,631.7s130-34.48,170.62-64.54,61.89-83.1,61-130.84-41.55-79.57-49.51-89.3-16.79-52.16-17.68-59.23-27.4-53-60.11-70.72-61.89-26.53-91.06-27.41S704.9,188.78,704.9,188.78Z"/><path class="cls-6" d="M490.07,306.36s11.5-38,36.25-58.35,27.41-20.33,28.29-23.87-7.07-16.8-11.49-20.33-30.06-33.6-101.67-28.3-62.77,6.19-62.77,6.19,23.87,25.64,33.59,57.47,41.56,74.26,67.19,79.56a8.22,8.22,0,0,0,5.31-2.65C487.42,313.43,490.07,306.36,490.07,306.36Z"/><path class="cls-8" d="M864.22,328.84s3.7-20.73-17-39.24-40.72-3-42.94,0-13.33,14.06-11.85,38.5,23,37.76,23,37.76,20.74-17,40.73-8.14C856.08,357.72,862.74,343.65,864.22,328.84Z"/><ellipse class="cls-9" cx="826.01" cy="323.89" rx="26.48" ry="33.56"/><circle class="cls-10" cx="834.28" cy="301.65" r="8.2"/><path class="cls-11" d="M837.51,344.37s-34.48.89-53.92,22.1-28.3,52.16-28.3,52.16-7.95,44.21,9.73,54.82,44.2,7.95,64.54,0,49.51,0,56.58-.89,34.48-7.07,30.94-39.78S907.36,370,872,352.33C872,352.33,849,342.6,837.51,344.37Z"/><ellipse class="cls-12" cx="815.6" cy="414.1" rx="22.17" ry="14.43" transform="translate(330.01 1189.26) rotate(-84.85)"/><ellipse class="cls-13" cx="878.69" cy="406.19" rx="14.62" ry="22.17" transform="translate(-50.45 134.56) rotate(-8.51)"/><path class="cls-14" d="M803.92,408s10.61,5.3,10.61,15.91-.89,10.61-.89,10.61a15.74,15.74,0,0,1-9.72-11.49A34.74,34.74,0,0,1,803.92,408Z"/><path class="cls-15" d="M867.12,399.36s10.79,4.94,11.15,15.54-.52,10.64-.52,10.64a15.73,15.73,0,0,1-10.11-11.16A34.85,34.85,0,0,1,867.12,399.36Z"/><path class="cls-8" d="M704.44,361.65s4.49-25.13-20.64-47.57-49.36-3.59-52.06,0-16.15,17.06-14.36,46.67,27.83,45.78,27.83,45.78,25.13-20.64,49.36-9.87C694.57,396.66,702.65,379.6,704.44,361.65Z"/><ellipse class="cls-9" cx="659.01" cy="355.66" rx="32.09" ry="40.68"/><circle class="cls-10" cx="671.63" cy="330.43" r="9.94"/><path class="cls-1" d="M660.7,490.24s.88,31-21.22,34.48"/><path class="cls-2" d="M657.73,508.07s27.72,15.77,53.36,11.35"/><path class="cls-7" d="M518.36,248.89s28.29-23,30.95-23.87,1.76-8-.89-9.72S520.13,179.94,483,179.05s-79.57,2.65-81.33,2.65-16.8.89-16.8.89h72.49c7.07,0,36.25-2.65,58.35,16.79S518.36,248.89,518.36,248.89Z"/><path class="cls-4" d="M592.18,212.2s-16.79-31.82-37.13-41.55-34.48-16.8-54.81-17.68-57.46,8-57.46,8l-37.14,8.84,60.12-8.84s32.71-5.31,43.32-2.65,45.09,12.37,52.16,20.33S592.18,212.2,592.18,212.2Z"/></svg>