<svg id="Capa_1" enable-background="new 0 0 512 512" height="512" viewBox="0 0 512 512" width="512" xmlns="http://www.w3.org/2000/svg"><g><g id="layer1_00000005962054308086211970000012598134006681148842_"><g id="g1994" transform="translate(887.259 -1031.036)"><path id="path1249-4" d="m-582.493 1030.534c-190.214 0-258.407 159.176-258.407 254.238.939 94.353 40.438 155.846 91.291 199.26 51.821 42.888 115.762 62.362 167.324 57.531 56.971-2.668 108.303-28.281 144.708-67.335 23.253-24.951 21.868-64.296-3.082-87.551-24.949-23.255-64.294-21.87-87.551 3.077-13.743 14.743-38.836 27.095-59.951 28.062-74.206 3.401-128.864-53.182-128.864-131.765 0-78.582 54.658-135.154 128.864-131.753 21.115.968 46.208 13.323 59.951 28.065 23.257 24.947 62.602 26.33 87.551 3.075 24.95-23.255 26.335-62.599 3.082-87.551-36.45-39.101-87.861-64.738-144.916-67.353z" fill="#ea676c"/><path id="path1290-2" d="m-450.951 1140.498c-6.304.153-12.051 3.647-15.086 9.175.465-.846-2.851 3.519-7.751 6.575s-11.378 5.649-18.218 6.326c-9.727.964-16.832 9.632-15.867 19.359.96 9.728 9.625 16.836 19.353 15.875h.006c13.199-1.307 24.529-5.957 33.456-11.525s15.459-11.207 20.05-19.566c4.706-8.567 1.576-19.326-6.99-24.033-2.738-1.507-5.828-2.261-8.953-2.186z" fill="#e43a40"/><path id="path1294-9" d="m-454.11 1427.502c-5.128.077-9.972 2.375-13.275 6.298-23.736 28.198-54.065 48.168-88.132 58.623-9.343 2.869-14.592 12.767-11.726 22.11 2.868 9.345 12.769 14.596 22.114 11.728.001-.001.003-.001.004-.001 40.551-12.446 76.801-36.377 104.822-69.665 6.294-7.479 5.335-18.644-2.143-24.939-3.261-2.743-7.403-4.219-11.664-4.154z" fill="#e43a40"/><path id="path1302-8" d="m-683.535 1069.561c-1.187.029-2.355.297-3.436.788-59.244 26.758-98.025 79.717-115.629 123.871-1.81 4.54.403 9.688 4.943 11.498s9.688-.403 11.498-4.943c16.065-40.295 52.65-89.984 106.475-114.295 4.455-2.01 6.437-7.251 4.427-11.706-.001-.002-.002-.004-.003-.006-1.462-3.24-4.722-5.291-8.275-5.207z" fill="#fff"/></g></g></g></svg>