<svg id="Capa_1" enable-background="new 0 0 512 512" height="512" viewBox="0 0 512 512" width="512" xmlns="http://www.w3.org/2000/svg"><g><g id="layer1_00000183241034282306603990000001674154493098127028_"><g id="g1999" transform="translate(765.021 -1030.48)"><path id="path903-4-3-7" d="m-644.334 1030.481c-34.166 0-62.05 27.913-62.051 62.084v387.831c0 34.184 27.901 62.084 62.084 62.084h142.22c66.58 0 120.503-41.464 149.764-91.205 28.96-49.229 40.66-107.283 40.66-164.795s-11.7-115.571-40.66-164.8c-29.261-49.741-83.185-91.2-149.764-91.2h-141.802c-.139-.001-.279-.001-.417 0h-.034zm62.12 124.168h80.135c10.147 0 16.802 1.825 23.109 6.162s12.548 11.778 19.636 23.827c13.61 23.136 23.51 62.63 23.51 101.843 0 39.214-9.899 78.7-23.51 101.836-7.088 12.049-13.329 19.491-19.636 23.829s-12.963 6.167-23.109 6.167h-80.135z" fill="#fff79c"/><path id="path931-8-3-5" d="m-356.909 1362.23c-7.283-.099-13.886 4.265-16.65 11.003-23.497 57.242-54.058 106.561-113.151 120.912-9.518 2.311-15.363 11.899-13.054 21.418 2.31 9.52 11.901 15.365 21.421 13.055.001 0 .002-.001.003-.001 74.618-18.12 112.642-81.105 137.604-141.913 3.718-9.062-.612-19.422-9.673-23.143-2.064-.849-4.268-1.3-6.5-1.331z" fill="#fff36b"/><path id="path939-6-8-8" d="m-666.764 1058.316c-1.667.046-3.291.539-4.684 1.455-7.762 6.608-15.17 18.489-15.251 27.945v66.012c0 4.899 3.971 8.869 8.869 8.869s8.869-3.971 8.869-8.869v-66.012c-.234-2.759 5.378-12.201 7.241-13.117 4.094-2.687 5.235-8.183 2.55-12.278-1.674-2.553-4.542-4.066-7.594-4.005z" fill="#fff"/></g></g></g></svg>