<svg id="ย่า" xmlns="http://www.w3.org/2000/svg" viewBox="0 0 1000 1000"><defs><style>.cls-1{fill:#fed1a5;stroke:#d6a47c;}.cls-1,.cls-3,.cls-7,.cls-8{stroke-miterlimit:10;stroke-width:3px;}.cls-2{fill:#eabf98;}.cls-3{fill:#a4becd;stroke:#91b4c6;}.cls-4{fill:#c8dce7;}.cls-5{fill:#231f20;}.cls-6{fill:#fff;}.cls-7{fill:#c2e1e3;stroke:#abd5d6;}.cls-8{fill:#e0c9cf;stroke:#d6b4bf;}.cls-9{fill:#e59da8;}</style></defs><title>grandmother</title><path class="cls-1" d="M280.5,631.5s-1,139,57,163,171,22,216,15,121-28,145-50,24-92,23-120c0,0,44-6,48-35s-4-53-26-55-32,11-32,11l-15-87-165-147-151,117-114,37,21,66s-49,2-50,32S254.5,633.5,280.5,631.5Z"/><path class="cls-2" d="M719.5,618.5s0-14,3-14,10-7,6-13-4-13,1-16,17-5,20,0a21.5,21.5,0,0,1,3,10s-3-8-8-8-13,1-13,5,5,9,5,13-9,11-11,13S719.5,618.5,719.5,618.5Z"/><path class="cls-2" d="M278.5,608.5s2-15-1-17-7-7-3-10,6-8,5-12-12-8-20-3-10,12-10,12,12-10,17-10,11-1,7,4-7,12-5,15,3,3,4,10A18.46,18.46,0,0,0,278.5,608.5Z"/><path class="cls-1" d="M486.5,651.5s-16-3-13,7,13,7,13,7"/><path class="cls-3" d="M553.5,547.5s84-6,102,10l5,4s-6-24-26-27S561.5,540.5,553.5,547.5Z"/><path class="cls-3" d="M431.5,543.5s-34-15-57-17-35,1-44,5-15,16-15,16,27-8,53-7S431.5,543.5,431.5,543.5Z"/><path class="cls-3" d="M698.5,564.5l-7-25s-115-2-92-108c0,0-77,63-115-18,0,0-38,74-72,85s-97,1-97,1l-15,48-15.24-.84S279.5,566.5,247.5,570.5c0,0,8,25,6,34s26,27,26,27l3,37.85s-92-6.85-89-64.85,30-51,30-51-110-19-87-132,85-163,141-172,92,9,92,9,34-153,148-27c0,0,22-87,118-54s141,128,127,136c0,0,78,5,89,40s-33,91-33,91,37,14,48,74-35,116-52,133-53,24-53,24S747,732.38,717.22,715.94c0,0,6.86-37.35,4.57-54.9s-2.29-22.54,1.71-24.54,19-27,29-27c0,0,0-23,7-27,0,0-25.62-18.22-27.81-32.61C731.69,549.89,701.5,566.5,698.5,564.5Z"/><path class="cls-4" d="M521.5,231.5c0-1,19-42,38-49s46-10,60-6,42,21,42,21-53-16-70-12-23-3-35,12S521.5,231.5,521.5,231.5Z"/><path class="cls-1" d="M453.5,679.5s-14,40-41,58"/><path class="cls-1" d="M537.5,682.5s23,57,54,66"/><path class="cls-4" d="M188,526s-37-60-34-82,21-87,34-105,39-60,67-64,54-11,89,0,49,24,55,9,6-68,26-71,77,18,77,18-70-7-78,29-20,71-53,66-68-19-91,3-62,62-64,100-9,78,6,89,36,34,9,25S188,526,188,526Z"/><circle class="cls-5" cx="372.99" cy="578.58" r="20.01"/><circle class="cls-6" cx="362.98" cy="571.28" r="4.71"/><circle class="cls-5" cx="604.49" cy="583.08" r="19.51"/><circle class="cls-6" cx="594.73" cy="575.97" r="4.6"/><path class="cls-7" d="M531.5,623.5s-.77,26.84,4,34c2,3,19.68,20.68,36,21,17.71.35,35.44-17.44,37-19,3-3,6-36,0-39s-46-3-46-3l-25,3Z"/><path class="cls-7" d="M359.21,611.83s-1.87,26.77,2.56,34.14c2.73,4.53,17.55,23.52,33.73,24.53,17.79,1.11,37.49-18,39.12-19.45,3.13-2.87,7.52-35.72,1.65-39s-45.83-4.94-45.83-4.94l-25.11,1.94Z"/><path class="cls-8" d="M446.5,618.5s12-11,35-10,40,15,44,18,13-6,22-7,49,0,57,3,8-2,6-3-20-5-34-5a241.29,241.29,0,0,0-36,3c-5,1-9,4-11,3s-21-11-27-13-26-5-36-3-19,5-21,6-8-1-12-3-66-2-73,1,2,4,8,3,30-2,40-1,21,2,27,5A27.13,27.13,0,0,0,446.5,618.5Z"/><path class="cls-9" d="M453.5,718.5s35,16,88,4c0,0-10,39-36,42s-43-7-48-13S453.5,718.5,453.5,718.5Z"/></svg>