<svg id="Layer_2" data-name="Layer 2" xmlns="http://www.w3.org/2000/svg" viewBox="0 0 1000 1000"><defs><style>.cls-1{fill:#e2762d;stroke:#ce5f13;}.cls-1,.cls-3,.cls-5{stroke-miterlimit:10;stroke-width:3px;}.cls-2{fill:#cc6517;}.cls-3{fill:#d43520;stroke:#b7190d;}.cls-4{fill:#b92a1c;}.cls-5{fill:#fde344;stroke:#ddbd1f;}.cls-6{fill:#fffdf0;}</style></defs><title>hot dog</title><path class="cls-1" d="M100.39,569c2.61-7-56.61-102.77,77.51-125.41s239.5-57.48,317-100.16S654.28,256.34,692.6,240.67s75.77-32.23,134.12,0-162.86,155-162.86,155S221.45,540.26,218,540.26,100.39,569,100.39,569Z"/><path class="cls-2" d="M801.47,245c-6.1,0-32.23-20.9-146.31,46.16S491.43,394.82,353,427,152.65,468,137,477.55s-19.16,40.94-19.16,46.16,371.87-81.86,497.28-141.08S801.47,245,801.47,245Z"/><path class="cls-3" d="M896.4,400s40.06-56.61,41.8-97.54-9.58-70.54-41.8-80.12-60.1-21.77-155.9,43.54S496.65,394.82,439.17,418.33s-175.92,48.77-243,61.84-144.57,3.48-156.76,54-17.42,74.9,0,105.38,49.64,49.64,125.41,60.09S663,576.84,773.6,501.94,896.4,400,896.4,400Z"/><path class="cls-4" d="M36.82,576c2.61-4.36,16.54-33.1,13.06-20s13.93,12.2,4.35,20-20.9,1.74-10.45,13.93S66.43,616,56.85,610.8,38.56,584.67,34.2,592.51s0,4.36,0-2.61A45.47,45.47,0,0,1,36.82,576Z"/><path class="cls-4" d="M912.94,236.31c1.74,9.58.87,29.61,0,32.23s7-17.42-4.35-18.29-36.58,16.55-27.87,7,32.22-7.84,30.48-13.07S912.94,236.31,912.94,236.31Z"/><path class="cls-4" d="M923.39,268.54c0,5.22-13.93,52.25-23.51,56.61s-38.32,4.35-60.09,8.7-61,9.58-75.77,19.16S718.73,381.75,697,393.08,575.9,468.84,535,480.17s-84.48,26.12-128,37.44-79.25,20-123.67,28.74-101,23.52-125.41,33.1-44.42,6.1-51.38,29.61-1.74,41.8-16.55,41.8-36.58-31.35-34-13.93S76.88,666.54,96,673.51s113.21,7.83,113.21,7.83l477.26-164.6L879,377.4s21.77-4.35,40.06-34.84,14.8-49.64,14.8-57.48-2.61-20-6.09-24.38S923.39,256.34,923.39,268.54Z"/><path class="cls-5" d="M854.59,233.7c10,6.28-27,13.94-34,24.39S815.4,272,809.3,284.21s-1.74,25.26-23.51,28.74-43.54-7.84-60.09-1.74-21.77,23.52-27,40.06-5.22,31.36-28.74,31.36-45.29-11.33-64.45-3.49-22.64,13.06-27.86,29.61,4.35,50.51-24.39,54-28.74,9.58-58.35-2.61S438.3,441,421.75,441.85s-42.67-2.62-49.64,15.67-17.42,20-22.64,36.58.87,27.87-16.55,29.61-31.35,5.23-62.7-3.48S226.28,485.69,199,507.31s-23.75,31.21-40.3,38.17-29.61,13.94-47.9,0S75.14,522,80.36,517.61s-.87-.87,20,6.1,35.71,20,55.74-2.61,33.09-31.35,51.38-32.22,34,7.83,62.71,12.19,42.67,6.09,56.61-9.58,34.83-54.87,47.9-59.22,27.86-7.84,54.86-2.62,50.51,9.58,70.55,11.33,33.63,8.3,42.94-5.87,16.28-34.2,18-39.42,21.77-34.84,49.64-38.32,22.64,1.74,44.42-7.84,20.9-16.55,30.48-32.22-4.36-23.52,24.38-22.65,31.35,7.84,51.39,2.62,38.32-27,47.89-36.58,4.36-13.94,23.52-19.16S847.62,229.35,854.59,233.7Z"/><path class="cls-6" d="M799.73,291.18s.87,5.23-6.1,9.58-16.55,9.58-21.77,7-13.07-2.62-1.75-5.23,13.94-4.35,21.78-7.84Z"/><path class="cls-6" d="M688.25,355.63c0,.87-.87,9.58-6.1,13.06s-5.22,6.1-15.67,5.23-20.9-1.75-16.55-3.49,11.32.87,18.29-.87,7.84,0,12.19-4.35A72,72,0,0,0,688.25,355.63Z"/><path class="cls-6" d="M563.71,438.36S567.19,454,555,455.78s-17.42,2.61-24.38,4.36-9.58-.88-17.42-2.62-28.74-5.22-8.71-3.48,27.87,5.22,35.71.87S555,438.36,563.71,438.36Z"/><path class="cls-6" d="M340.76,504.55c-2.61,5.23,7.84,16.55-7.84,14.81s-13.06-2.62-18.29-1.75-13.93,4.36-18.29,1.75-18.28-6.1-2.61-7,18.29.87,28.74,0S340.76,504.55,340.76,504.55Z"/><path class="cls-6" d="M157,542c-3.48,2.61-11.32,7.84-17.42,6.1S123,542,130.87,542h16.55c3.48,0,9.58-1.74,9.58-1.74Z"/><path class="cls-1" d="M708.28,681.34S540.2,778,404.34,778s-218.6-20.9-241.24-51.38-59.22-84.48-6.1-118.44,134.12-40.93,305.69-71.42S706.54,419.2,764,382.63s130.63-68.81,169.82-36.58S965.2,469.72,884.2,548.1,708.28,681.34,708.28,681.34Z"/><path class="cls-2" d="M942.55,380s-13.93,90.58-40.06,121.93S802.34,611.67,707.41,666.54,484.46,769.31,382.56,765s-167.21-17.42-187.24-27.87S159.61,697,157,684.83s10.45-41.81,54.87-25.26S366,697,421.75,694.41s86.22-29.61,132.38-47,76.64,3.48,128-31.35,105.38-73.16,147.19-115S909.46,333.85,942.55,380Z"/></svg>