<svg xmlns="http://www.w3.org/2000/svg" viewBox="0 0 1000 1000"><defs><style>.cls-1{fill:#fde1bc;}.cls-2{fill:#f6d9b9;stroke:#e0bb96;}.cls-2,.cls-5,.cls-7,.cls-9{stroke-miterlimit:10;}.cls-2,.cls-5,.cls-7{stroke-width:3px;}.cls-3{fill:#f0c8a5;}.cls-4{fill:#e8b349;}.cls-5{fill:#fbcb5d;stroke:#d38b0b;}.cls-6{fill:#fae17c;}.cls-7{fill:#e7281e;stroke:#bf1511;}.cls-8{fill:#b52326;}.cls-9{fill:#3c441d;stroke:#2e3513;}</style></defs><title>spaghetti</title><g id="Layer_1" data-name="Layer 1"><path class="cls-1" d="M278.07,394c-1.56,0-76.36,20.25-98.17,31.16s-82.59,45.19-82.59,45.19S64.58,493.72,53.68,514s-21.82,39-14,67,24.93,62.33,65.45,88.82S197,733.69,293.65,755.51,504,780.44,549.21,777.32s171.41-18.7,197.9-29.61S851.51,702.52,878,685.38,954.36,602.8,954.36,567,932.54,489,881.12,459.43s-112.2-57.65-112.2-57.65S726.85,380,677,378.4,377.8,380,377.8,380Z"/><path class="cls-2" d="M924.75,482.81c-18.7-15.58-73.24-59.22-144.92-84.15s-137.13-39-211.92-39-79.48-1.55-81,0-180.76,23.38-180.76,23.38c-1.56,0-116.87,18.7-187,63.89s-76.35,67-81,79.47S21,577.86,41.21,619.94,142.5,715,203.27,738.36s130.89,39,227.51,45.19,171.41,0,244.65-12.46,141.8-40.52,171.41-56.1,95-56.1,112.19-112.19S943.45,498.39,924.75,482.81ZM853.07,685.38c-115.31,63.89-183.88,74.8-327.24,81s-240-24.93-278.93-35.84S103.54,672.92,66.14,621.49s-17.14-95,6.23-120,63.89-49.87,102.85-68.57,118.43-34.28,121.55-32.72c0,0,266.46-28.05,333.09-22.25s95.43,8.23,195.16,55,120,99.73,120,106S968.38,621.49,853.07,685.38Z"/><path class="cls-3" d="M144.06,654.22c-7-12.06-57.66-63.89-17.15-118.43S264,459.43,317,451.64s187,0,261.79,4.68,159,7.79,199.46,24.93,39,7.79,67,26.49,91.94,45.19,29.61-10.91-134-87.26-183.88-96.61-291.4-6.23-360,6.23-70.12-1.56-194.79,53S94.19,629.29,105.1,638.64,172.1,702.52,144.06,654.22Z"/><path class="cls-4" d="M226.18,450.13c-7.37,5.81-20.49,33.68-22.55,54.22s-2.88,32.86-7.81,48.46-21.34,20.52-13.13,35.3S206.47,613,218,624.76s39.09.18,43.77,13.78,4.68,28.37,13.71,33.3,0,10.67,20.52,9.85,37.33-5.29,62.17-3.06,64.25,9.63,81.49,11.27,14.77-1.64,32.83,2.46,39.41-16.42,64-5.75,13.94,27.82,46.79,15.15S615.3,684.15,626,685s23,16.42,32.84,0,6.57-24.62,12.31-23,13.43-3.23,33-3.67,23.66-18.5,35.16-20.14,26.27,1.64,41-2.46,30.37-4.93,41.87-14.78,18.88-21.34,18.88-36.12-9-4.92,0-28.73,7.39-36.94,9-50.07-10.77-36.39-30.84-42.41S813.14,441.43,768,447s-531.94,3.16-531.94,3.16l-7.39.82-2.48-.89"/></g><g id="Layer_3" data-name="Layer 3"><path class="cls-5" d="M825.86,554.86c0-14.78,3.44-46.43-16.75-68.36s-24.73-22.54-67.2-34.14-21.12-19.81-30.15-42-23.91-78.49-37.82-87.68-13-26.94-74.21-28.73-91.11,1-120.48,0-29.36-5.08-53.17-1-31.35,15.88-57.95,21.08-41.33,11.44-53.26,18.17-42.29,17.4-54.61,39.56-32,15.49-30.39,61.51,5,68.19,2.09,76-14.71,43.79-17.42,67.25-17.51,40.94,7.54,41.64,50.5,12.19,75.94,28.61,25.45,21.34,52.54,34.48,27.91-16.42,58.28-25.45,45.15-22.16,93.59-12.31,92.76,18.88,109.18,22.16,34.47,17.24,45.15-19.7,110-78.81,127.24-73.06S825.86,554.86,825.86,554.86Z"/></g><g id="Layer_2" data-name="Layer 2"><path class="cls-5" d="M139.59,595.91c-5-2.38-27.91-59.93-22.16-84.56s22.16-43.51,52.53-40.22,41.87,10.67,61.57-4.93S303,400.53,390,419.41s156,71.42,162.54,100.15-39.4,99.33-68.13,115.75-91.12,38.58-118.21,32S253.69,604.11,243,592.62s-25.44-41-1.64-37.76,73.88,60.75,121.49,64.85,109.18.82,127.24-29.55,38.59-73.88,23.81-88.66-78.81-40.22-118.21-48.43S298,454.71,283.25,467.84s-22.17,23.81-45.15,27.92-60.75-.83-69.78,8.2-28.73,14-18.88,44.33S158.47,604.94,139.59,595.91Z"/><path class="cls-5" d="M186.38,650.08c.82-10.67,50.9-39.4,64.85-50.07s15.6-33.66,18.88-55.82S303.77,452.25,330,432.55,423.62,372.62,469.59,389s119,91.94,125.6,113.28-13.14,61.57-34.48,69.78-40.22,11.49-69,3.28-54.18-42.68-82.09-17.24-59.11,58.29-46.8,79.63,82.09,11.49,95.23.82,31.19-43.51,42.69-44.33,32,4.11,24.62,17.24S468,673.89,432.65,674.71s-78.81-1.64-91.12-13.13-16.42-36.12,2.46-67.32,48.44-64,81.27-64,55.82,6.57,75.53,18.88,56.64,11.5,62.38,2.47,1.65-56.65-4.1-69.78S482.73,417,453.17,413.67s-81.27,10.67-101,39.4-47.61,74.7-52.53,98.51-1.65,58.28-27.92,76.34-55.82,37.76-66.49,40.22S186.38,650.08,186.38,650.08Z"/><path class="cls-5" d="M262.72,495.76c-6.18,4.12-22.16,28.73-18.88,44.32S277.27,648.29,306.94,666s87.95,65.33,129.82,72.72,112.46-1.64,114.1-5.74,21.34-21.35-4.1-21.35-77.17,1.64-102.62-8.21-53.36-17.24-72.24-26.27-43.5-27.09-51.71-38.58-23.81-34.48-31.2-54.18-21.34-46.79-22.16-64.85S265.19,494.11,262.72,495.76Z"/><path class="cls-5" d="M613.25,585.23c6.57-1.64,51.72,0,78.8-5.74s46-23,45.15-42.69-.82-41-18.06-51.72-29.55-23-64-28.73-56.64-12.31-87-9-35.3,2.47-57.46,9.85S481.08,475.23,468,472s-9.85-23.81,20.52-32.84,55.82-21.34,91.94-21.34,55.82-4.93,89.48,6.57,46.79,7.39,67.31,31.19S770,491.65,771.68,517.1s21.35,38.58-15.6,65.67-43.5,34.48-81.26,33.66-32,5.74-61.57-4.93-28.73-27.91-18.88-27.91A119.48,119.48,0,0,1,613.25,585.23Z"/><path class="cls-5" d="M812.73,673.07c-13.05,7.67-40.23,20.52-71.42,6.57s-55-26.27-64.85-52.54-13.14-29.55-20.52-51.72-8.71-33.59-9.7-56.2,1.49-57.08-.16-66.11S633,392.32,610.79,380s-45.15-23-84.56-32.84-73.06-19.7-101.79-13.95-42.68,9-51.71,22.16S351.38,374.26,353,397.25s12.32,44.33,5.75,49.25-14.09,14.38-22.23,2.26-13.07-48.23-12.25-63-1.64-34.48,20.52-50.9-4.92-31.19,59.93-28.73,74.7,1.64,122.31,18.88,26.27-10.67,77.17,32,52.54,36.12,58.28,63.21,7.39,45.15,6.57,63.21-.82,70.6,4.93,83.73,9,21.35,19.7,39.41,13.95,23.8,39.4,31.19,56.64,9,67.31,14S826.68,664.86,812.73,673.07Z"/><path class="cls-5" d="M648.55,604.94c16.56,8.28,59.92,13.95,87,16.41s60.75,2.47,77.17-16.41,23.8-32,23-57.47,0-50.89-20.52-64.85-13.13-25.45-50.08-18.06-34.47,27.91-75.52,12.31-51.71-21.34-75.52-29.55-20.52-17.24-65.67-20.52-74.7-9.85-100.15,0S417.87,444,394.07,453.89,361.23,467,344.81,483.44s-21.34,27.09-33.65,42.69-25.45,30.37-30.38,42.69-20.52,21.34,0,16.41,20.53-5.74,43.51-23.8,23-23.81,38.58-36.12,29.56-28.73,50.08-41.87,44.33-37.76,69.78-37.76,46-6.57,82.91,8.21,55.82,29.55,78.8,36.94,27.09,18.06,52.54,21.34,41.87-4.1,62.39-8.21,22.16-15.59,32.83,0,28.74,16.42,17.24,45.15-5.74,48.44-35.3,49.26-41,4.1-77.16-5.75-35.3-14-58.28-18.88-31.66-14.31-47.44-5.92-30.55,12.49-44.5,26.44-6.57,9.85-28.74,27.91S489.29,646.8,475.34,646s-16.42,0-35.3-3.28-26.27-6.57-44.33-8.21-31.19-2.47-29.55,6.56-12.32,16.42,15.6,19.71,49.32,1.64,76,0,52.92,4.1,71-11.5,19.7-25.44,35.29-36.94S630.49,595.91,648.55,604.94Z"/><path class="cls-5" d="M600.94,742c4-16.11,21.34-31.2,3.28-54.18s-11.49-16.42-45.15-36.12-43.51-21.35-54.18-36.12S477,586.05,479.44,574.56s-1.32-19.56,14.12-35.23,27.75-16.48,33.49-28,14-32.83-3.28-46-27.09-27.91-63.21-24.62-33.66.82-73.88,10.67-64,17.24-97.69,33.65-43.5,18.06-53.35,34.48-18.06,18.06-17.24,41.05-4.11,36.94,14.77,46.79,22.23,14.25,40.26,13.69,20.49,1.08,33.62-11.23,13.71-17.32,27.38-26.31,15.31-14.73,39.12-12.27,29.55,1.64,37.76,12.31S430.86,588,424.78,610s-1.16,28.6-19.22,34.35-25.38-1.44-33.21,13.23-20.15,19.6-4.55,25.35,22.16,16.42,37.76,3.28,28.73-32.83,31.2-50.89,9.85-41,0-51.72-22.17-30.37-42.69-31.19-28.73-8.21-52.54,4.92-22.89,29-49.2,28-37,6.45-43.56-7.5S226.61,554,242.2,537.62s55.82-35.3,77.17-42.69,69.77-19.7,101.79-24.62,52.76-15.53,70.71.86,17.95,36.9-.11,51.68S449.07,561.43,454,583.59s21.35,47.61,42.69,61.57,64.45,27.09,84.35,43.92,15.8,49.66.2,52.95-54.18-.83-60.74-24.63-9-49.26-21.35-35.3-9.85,38.58,3.29,47.61,15.59,19.7,43.5,25.45S599.29,748.59,600.94,742Z"/><path class="cls-5" d="M463.84,675.53c-11.74-29-22.34-54.08-19.79-82s5-27.14,9.94-55.87,7.89-42.41-21.09-61-52.79-24.35-60.17-42.41-20.53-52.54-11.5-70.6,30.38-45.15,58.29-51.72,71.41-14.77,105.07,0,50.9,23.81,63.21,55,24.63,47.62,27.91,82.09,19.52,49.45-2.14,68.24-51.22,30.27-57.78,39.3-8.4,19.82,14.27,17.71,63.71-41.51,72.74-62,0-80.44-9-116.56S587,320.08,564,303.67s-50.07-39.41-88.65-39.41-84.56,30.38-105.08,55.82-44.68,72.6-33,102.79,32.19,52.36,56.82,64.68,49.25,9.85,41.86,35.3-19.7,38.58-20.52,69.77-10.71,37.45,3.27,57.72S488.47,736.28,463.84,675.53Z"/><path class="cls-5" d="M866.91,509.71c-.31,7,13.13,25.45-38.59,10.67S775,501.5,738.85,472s-48.44-41.87-91.12-56.64-35.3-11.5-88.66-28.73-29.86-21.72-94.56-27.28-84.4-11.31-102.46-7.2-23.8-2.46-42.68,12.31S280,371.8,294.74,388.22s41.5,27.73,58.1,20.43,28.92-25.36,57.65-28.64,28.73-10.67,59.92,16.42,59.25,26,38.66,53.22S467.13,490,442.5,490s-44.33-13.14-76.34-15.6-51.72-9-76.35-7.39-31.19-4.1-42.68,7.39-14.78,14.78-17.24,22.17-7.39,12.31-6.57,38.58-3.28,39.4,9,50.07,18.06,18.06,45.15,23,40.22,10.67,72.24,9,51.72,4.92,69-9.85,25.44-12.32,23.8-29.55,3.28-34.93-7.39-26.91-11.49,28.55-24.62,35.94-28.41,12.63-52,12.47-46.19.41-68.12-7.67-40.81-11.37-46.56-24.51-15.59-27.91-6.56-44.32,12.31-43.51,41.86-38.59S344,504.79,385.86,504.79s80.45,5.74,104.25-8.21S538.55,467,537.73,444s-12.32-46.79-30.38-55.82-47.41-15.81-75-20.22-39.09.52-63.72,8.73-48.43,14.77-35.3,4.92,55.82-26.27,94.41-19.7,144.47,28.73,169.1,46.79,87,33.66,110.82,58.28,34.48,33.66,57.46,46.8S825,538.44,848,539.26s37.76,4.11,43.5-17.24,8.21-41.86-9-51.71-8-24-54.5-32.93-60.42-4-89.15-13.86-53.77-21.07-57.67-34.34-11.28-42.52,10.06-59.09,37.76-35.45,23-46.13S683,254.41,651,268.37s-36.94,14.77-75.52,39.4-66.5,33.66-83.73,34.48-34.48-6.57-49.26,1.64,22.17,32.84,22.17,32.84-15.37,6.88,24.33-7.64,70.89-23.56,98-40,41.87-31.19,60.75-34.47,34.47-23,31.19,0-20.52,25.44-25.45,55.82-31.19,46-.82,63.21S702.37,443,726.76,446s41.64,7.92,66.27,12.85,41,4.92,55,19.7S867.73,490.83,866.91,509.71Z"/><path class="cls-5" d="M504.54,549.22c48,3.18,103.78,13,151.4-2.57s62.38-.82,79.62-34.48,27.09-35.3,25.45-66.49,9.85-21.34-19.7-62.39S713.4,339,688.77,324.19,648.55,302,628,297.1s-30-10.7-64.64-9.87-30.58-4.91-83.12,7.41-61.56,9.85-96.86,32-49.26,20.52-83.73,50.9-45.15,19.7-47.62,61.56-17.24,64,24.63,76.35,74.64,27.6,78.36,2.3-16,1.8-39.78-6.41-32.8,9.9-35.69-27.89-8.39-55.13,15.29-80.93,44.21-34.83,76.22-48.79,56.65-31.19,92.76-36.12S541,309.41,582.05,316s49.26,2.46,80.45,24.63,45.15,25.44,56.64,58.28,14.78,41,10.68,64.85-5.75,38.58-28.74,48.43-33.11,20.5-81.4,21.75-72.1-1.25-101.66,0-34.83-20.95-55.59,0-32.24,7.81-18.29,33.25,8.06,39.09,43.85,48.69,98.17,19.45,65.33-1.9-47.52,10.69-70.14-14.35-25.9-40.65-16.87-48.85S504.54,549.22,504.54,549.22Z"/><path class="cls-5" d="M723.25,632c-5.65-5.95-21.34,1.65-65.67-18.06s-55.41-8.08-69.16-33.59-35.92-29.61-17-63.27,25.45-44.33,62.39-60.75,37.76-13.13,59.11-25.45,24.62-5.74,35.29-25.44,22.17-36.12,13.14-54.18-13.14-34.48-46.79-46.79-49.26-16.42-97.69-10.68-71.42-5.74-91.94,27.09S477,353.74,471.23,389s-20.52,50.45,0,63.81,31.81,13.59,24.53-3.77-17.14-19-4.83-43.62,6.57-25.45,33.66-54.18,44.33-40.23,82.09-39.41,46-12.31,72.24,13.14,51.72,18.06,32.84,47.61-47.62,45.15-85.38,63.21-52.53,14.78-66.49,50.9-32.84,39.4-6.57,74.7,28.29,43.58,57.25,54.62S642,638.59,679.74,642.7,753.62,664,723.25,632Z"/><path class="cls-6" d="M571.35,491.1c12.64-17.3,31.71-28.64,50.81-37.5,20.94-9.71,43-17,63.06-28.59,17.46-10.11,35-24.2,43.3-43.13,8.82-20.14-.1-40.67-15.95-54.29-16.81-14.44-38.6-25.64-60.7-28.24-12.16-1.43-24.57-1.08-36.79-.76-11.39.29-22.82.75-34.15,2-19.81,2.15-40,7-55.47,20.25-8.85,7.57-15.28,17.56-20.81,27.69-6.42,11.75-12.34,23.78-18.47,35.68-10.35,20.11-23,45.72-8.06,67,3,4.29,10.14.19,7.09-4.14-13.12-18.65-.94-41.24,8.06-58.72,5.29-10.29,10.53-20.62,15.9-30.87,4.65-8.86,9.58-17.78,16.34-25.24,13.26-14.62,32.46-20.49,51.5-23a374.39,374.39,0,0,1,65.59-2.43c22.84,1.08,44.2,10.6,62,24.8,7.92,6.31,15,14.31,18,24.17,3.15,10.38.57,20.32-5,29.34-22.59,36.3-69.18,46.38-105,64-19.54,9.61-38.29,22.51-50.41,41a75.86,75.86,0,0,0-8.38,65.28,4,4,0,0,0,2.21,2.48c3.78,7.39,9.57,13.61,15,20,4,4.65,7.37,9.75,11.22,14.51A51,51,0,0,0,596.6,604.2c22.52,13.06,46.21,25.64,71.16,33.34a141.41,141.41,0,0,0,43.69,6.63c5.28-.07,5.29-8.28,0-8.2-24.66.35-48.3-7.36-70.41-17.71C629.7,613,618.67,607,607.7,601c-5.31-2.93-11-5.68-15.49-9.81s-7.5-9.16-11.12-13.83c-7.3-9.43-17.26-17.67-20.34-29.64a4,4,0,0,0-1.18-2A68.18,68.18,0,0,1,571.35,491.1Z"/><path class="cls-6" d="M852.8,452.35a103.05,103.05,0,0,0-69.35-17.13c-5.19.61-5.25,8.82,0,8.21a95.9,95.9,0,0,1,60.84,13.19C861.07,466.81,883.65,488.15,874,510c-2.1,4.79,5,9,7.09,4.14C892.06,489.28,872.35,465.7,852.8,452.35Z"/><path class="cls-6" d="M525.9,439c-1.48,14-11.47,25.54-22.31,33.65-11.46,8.57-24.87,14.13-38.73,17.42-32.15,7.63-65.6,2.67-97.88-1.46l-58-7.42c-5.23-.67-5.18,7.55,0,8.21l54.82,7c18.23,2.33,36.5,4.9,54.89,5.61,31.27,1.22,64.61-3.64,90.15-23.09,13-9.89,23.54-23.26,25.31-39.93C534.67,433.78,526.45,433.82,525.9,439Z"/><path class="cls-6" d="M279.12,397.44c-16.05,32.51-33,72.61-11.94,107,2.76,4.5,9.86.38,7.09-4.14-19.4-31.65-2.75-69,11.94-98.75C288.54,396.86,281.46,392.7,279.12,397.44Z"/><path class="cls-6" d="M185.3,482.32c-9.74.11-19.54-.07-29.27.37-8.53.39-15.55,3.28-20.19,10.72-8.92,14.26-5.13,32.43-13.06,47-2.53,4.64,4.55,8.79,7.09,4.15,7.17-13.17,5.28-28.46,10.62-42.14,1.31-3.33,3.16-6.81,6.11-9,3.28-2.4,7.54-2.52,11.45-2.61,9.08-.2,18.17-.21,27.25-.32C190.58,490.46,190.59,482.26,185.3,482.32Z"/><path class="cls-6" d="M233.65,629.63a110.14,110.14,0,0,0-26.44,14.25c-4.21,3.1-.12,10.23,4.14,7.09a102.33,102.33,0,0,1,24.48-13.42C240.73,635.7,238.6,627.76,233.65,629.63Z"/><path class="cls-6" d="M472.45,719.24C421,718.54,370.23,699,331.27,665.36a214.4,214.4,0,0,1-30-31.67c-3.18-4.13-10.31-.05-7.09,4.14A231.52,231.52,0,0,0,427,722.17a225.29,225.29,0,0,0,45.49,5.27C477.74,727.52,477.74,719.31,472.45,719.24Z"/><path class="cls-6" d="M784.61,664.27a45.3,45.3,0,0,1-41.37,2.12c-4.77-2.19-9,4.88-4.15,7.09a53.91,53.91,0,0,0,49.67-2.13C793.33,668.71,789.2,661.61,784.61,664.27Z"/><path class="cls-6" d="M741.19,422.5c-.8-5.21-8.71-3-7.91,2.18,4.14,27.08,1.78,57.57-17.08,79-17.14,19.51-43.73,24.69-68.36,27.43-16.92,1.87-33.9,3.31-50.85,4.94-5.21.5-5.27,8.71,0,8.2,16.29-1.56,32.61-3,48.88-4.72,13.63-1.46,27.38-3.33,40.44-7.65,12.69-4.19,24.68-10.72,34-20.48a83,83,0,0,0,19.3-35.13C744.38,458.73,743.93,440.36,741.19,422.5Z"/><path class="cls-6" d="M663.71,362.75c2.09-4.8-5-9-7.09-4.15-3.68,8.47-8.1,16.94-10.79,25.78-2.25,7.36-2.32,15.59,2.22,22.11,3,4.3,10.12.2,7.09-4.15-4-5.74-2.74-12.36-.45-18.55C657.32,376.66,660.68,369.72,663.71,362.75Z"/><path class="cls-6" d="M549.14,298.73a103.8,103.8,0,0,0-73.22-27.26c-14.27.44-27.73,4.16-40.71,9.95a227.84,227.84,0,0,0-38.09,21.17c-12.93,9.08-24.42,20-32.74,33.55-2.77,4.51,4.33,8.64,7.09,4.14,13.86-22.55,37.08-36.83,60.32-48.22,12.21-6,24.88-10.83,38.51-12.05a96.94,96.94,0,0,1,36.63,3.78,93.09,93.09,0,0,1,36.41,20.74C547.21,308.12,553,302.33,549.14,298.73Z"/><path class="cls-6" d="M497.57,296.14c-16.89,2.73-33.83,5.27-50.68,8.27C431.3,307.19,416,311,401.58,317.75c-4.78,2.26-.62,9.34,4.14,7.09,14.13-6.68,29.48-10.09,44.8-12.77,16.38-2.87,32.82-5.36,49.24-8C505,303.21,502.75,295.3,497.57,296.14Z"/><path class="cls-6" d="M305.46,343.3c-10.66,12-28.77,13.76-38,27.47-5.09,7.52-6.14,16.56-13.58,22.5-6.24,5-13.57,8.61-17.21,16.1-2.3,4.73,4.78,8.9,7.09,4.14,3.41-7,11.07-10.27,16.77-15.14,7.13-6.09,8.66-14.68,13.31-22.35,4-6.62,11.26-10.21,17.91-13.61,7.07-3.62,14.2-7.29,19.55-13.3C314.76,345.17,309,339.34,305.46,343.3Z"/><path class="cls-6" d="M402.09,462.89a477.78,477.78,0,0,0-47.73-26c-4.75-2.24-8.92,4.83-4.14,7.09a474.51,474.51,0,0,1,47.72,26C402.44,472.78,406.57,465.68,402.09,462.89Z"/><path class="cls-6" d="M444.47,514q-2.21,12-5.5,23.67c-1.43,5.09,6.49,7.27,7.92,2.18q3.28-11.72,5.5-23.67C453.35,511,445.44,508.77,444.47,514Z"/><path class="cls-6" d="M423,587.25C412.46,595.63,401.78,603.34,388,605c-14.2,1.68-29,.85-43.26,0a406.59,406.59,0,0,1-43.19-4.81c-13.18-2.2-27.11-4.28-38.55-11.63-4.46-2.86-8.58,4.24-4.14,7.09,12.29,7.9,27.14,10.25,41.3,12.59a428.25,428.25,0,0,0,46.16,5.06c15,.82,30.87,1.75,45.8-.67,14.29-2.3,25.59-10.78,36.64-19.57C432.93,589.76,427.09,584,423,587.25Z"/><path class="cls-6" d="M330.28,538.12l-28.31,16c-4.6,2.6-.47,9.7,4.14,7.09l28.31-16C339,542.61,334.89,535.52,330.28,538.12Z"/><path class="cls-6" d="M383.17,557a136.67,136.67,0,0,0-25.57,1.17c-7,1-15.54,1.76-20.45,7.42-3.45,4,2.33,9.8,5.8,5.8,4-4.63,13.1-4.88,18.79-5.54a132.23,132.23,0,0,1,21.43-.64C388.45,565.47,388.44,557.26,383.17,557Z"/><path class="cls-6" d="M501.36,534.07a118.31,118.31,0,0,0-37.1,3.56c-5.12,1.32-2.95,9.24,2.18,7.91a111,111,0,0,1,34.92-3.26C506.63,542.61,506.61,534.4,501.36,534.07Z"/><path class="cls-6" d="M600.26,696.05C587.57,683.38,573,673,558.45,662.51s-28.53-21.7-44.93-28.71c-4.81-2-9,5-4.15,7.09,15.94,6.81,29.71,17.72,43.67,27.79,14.36,10.36,28.84,20.62,41.41,33.17C598.19,705.59,604,699.79,600.26,696.05Z"/><path class="cls-6" d="M501.8,692.05a29.66,29.66,0,0,0-3.95,25c1.44,5.07,9.37,2.91,7.91-2.18a21.62,21.62,0,0,1,3.12-18.67C511.87,691.82,504.76,687.7,501.8,692.05Z"/><path class="cls-6" d="M386.7,674.92c-3.21,1-3.77-3-3.15-5.28.79-2.94,3-5.33,5-7.55,3.47-4-2.31-9.78-5.81-5.81-4.5,5.12-9.15,11.32-7.31,18.58,1.49,5.92,7.48,9.81,13.45,8C393.91,681.29,391.77,673.37,386.7,674.92Z"/><path class="cls-6" d="M444,642.13a80.26,80.26,0,0,0-10.51-26.54c-2.78-4.49-9.88-.37-7.09,4.14a73.68,73.68,0,0,1,9.68,24.58C437.13,649.48,445.05,647.29,444,642.13Z"/><path class="cls-6" d="M346.93,650.43a48.83,48.83,0,0,1-3.29-22.56c.45-5.26-7.76-5.23-8.21,0A54.41,54.41,0,0,0,339,652.61C340.93,657.47,348.87,655.36,346.93,650.43Z"/><path class="cls-6" d="M622.3,391.63a321.15,321.15,0,0,0-17-55.4c-2-4.83-9.91-2.72-7.91,2.18a322,322,0,0,1,17,55.4C615.48,399,623.39,396.79,622.3,391.63Z"/><path class="cls-6" d="M582.31,372.1a70.74,70.74,0,0,0-34-9.37c-5.28-.09-5.28,8.12,0,8.21a61.85,61.85,0,0,1,29.9,8.25C582.76,381.82,586.9,374.73,582.31,372.1Z"/><path class="cls-6" d="M451.27,391.07c-12.66,1.35-25.26,3.25-37.73,5.8-10.79,2.21-23.79,3.79-32.78,10.68-4.13,3.16-.05,10.3,4.15,7.08,8.39-6.43,20.72-7.78,30.81-9.84q17.64-3.62,35.55-5.52C456.47,398.72,456.53,390.5,451.27,391.07Z"/><path class="cls-6" d="M371.42,386c-4.34,2.91-9.74,3.23-14.34,5.62-4.18,2.18-7.3,6.23-11.74,7.88s-10.54.67-15.15-.44-8.68-2.91-11.07-7.05c-2.64-4.57-9.74-.45-7.09,4.14,5.73,9.94,19.51,13.08,30.24,12.24,6.7-.52,10.7-4,15.87-7.72s12-4,17.42-7.58C379.93,390.15,375.82,383,371.42,386Z"/><path class="cls-6" d="M567.34,399.09a94.63,94.63,0,0,0-27.42-4c-5.28,0-5.29,8.21,0,8.21A86.7,86.7,0,0,1,565.16,407C570.23,408.53,572.4,400.61,567.34,399.09Z"/><path class="cls-6" d="M521.29,484.82l-3.09,13.85c-.72,3.23-1.14,8-4.16,9.95-4.39,2.89-.28,10,4.15,7.09,4-2.63,5.9-6.52,7-11.05,1.49-5.84,2.66-11.78,4-17.66C530.36,481.86,522.45,479.66,521.29,484.82Z"/><path class="cls-6" d="M701.77,496.92A202.85,202.85,0,0,1,646.21,482c-4.81-2.06-9,5-4.15,7.09a216.71,216.71,0,0,0,59.71,16C707,505.76,707,497.54,701.77,496.92Z"/><path class="cls-6" d="M625.48,479.6a120.63,120.63,0,0,1-42.16,39.75c-4.6,2.6-.46,9.7,4.15,7.09a129.53,129.53,0,0,0,45.1-42.7C635.43,479.29,628.33,475.17,625.48,479.6Z"/><path class="cls-6" d="M764.64,527.72c-.38-5.24-8.59-5.28-8.21,0,.8,11,1.89,23.41-3.43,33.52-2.8,5.33-7.36,9.37-11.73,13.41q-7.1,6.55-14.63,12.6c-4.12,3.31,1.73,9.09,5.8,5.8q8.68-7,16.81-14.63c4.44-4.2,8.74-8.6,11.41-14.17C766.1,552.89,765.53,540,764.64,527.72Z"/><path class="cls-6" d="M817.92,552.2c-2.89,12.84-6,26.3-13.77,37.21-8.68,12.26-22.55,16.08-36.93,16.39-16.34.36-32.94-.95-49.21-2.25a295.42,295.42,0,0,1-52-8.38c-18.23-4.81-36.31-10.39-55.36-7.77-5.21.71-3,8.63,2.18,7.91,18.14-2.49,36,3.91,53.26,8.36,17.51,4.51,35.46,6.84,53.46,8.21,16.82,1.29,34.16,2.91,51,2,14.43-.77,28.42-5.24,37.87-16.73,10-12.13,14-27.77,17.34-42.78C827,549.24,819.08,547,817.92,552.2Z"/><path class="cls-6" d="M538.71,562.62a82.69,82.69,0,0,1-27.89-1c-5.16-1.09-7.36,6.82-2.18,7.91a89.11,89.11,0,0,0,30.07,1.33C543.88,570.16,543.94,561.94,538.71,562.62Z"/><path class="cls-6" d="M390.22,510.35q-16.31,13.57-33.57,25.92c-4.26,3.05-.16,10.17,4.15,7.09q18.1-13,35.23-27.2C400.09,512.78,394.26,507,390.22,510.35Z"/><path class="cls-6" d="M337.54,515.71a108.9,108.9,0,0,1-31-2.26c-5.15-1.14-7.34,6.77-2.18,7.91a116.56,116.56,0,0,0,33.21,2.56C342.79,523.57,342.82,515.36,337.54,515.71Z"/><path class="cls-6" d="M638.74,644.94a23.53,23.53,0,0,0-5.49,5.64c-1.42,2-2.61,4.27-4.72,5.6-4.74,3-12,.62-17.07-.37q-20.37-4-40.35-9.75c-5.09-1.45-7.27,6.47-2.19,7.91,14.84,4.22,29.88,7.91,45.07,10.66,5.5,1,11.34,1.83,16.66-.39a16.22,16.22,0,0,0,6.31-4.81c2-2.4,3.36-5.54,5.92-7.4C647.12,649,643,641.83,638.74,644.94Z"/><path class="cls-6" d="M521.22,408.38l-9.45-13.62c-3-4.31-10.11-.21-7.09,4.15l9.46,13.62C517.13,416.84,524.25,412.74,521.22,408.38Z"/><path class="cls-6" d="M419.45,370.55q-18.94,1.74-37.75,4.74c-5.2.82-3,8.74,2.18,7.91q17.72-2.82,35.57-4.44C424.67,378.28,424.72,370.06,419.45,370.55Z"/><path class="cls-6" d="M372.59,339.33a75.37,75.37,0,0,1-25.73,14c-8.56,2.65-17.39,3.27-24.66,9-4.14,3.27,1.7,9,5.81,5.81,3.55-2.8,8.15-3.73,12.46-4.71a95.26,95.26,0,0,0,13.87-4,86.8,86.8,0,0,0,24.05-14.26C382.46,341.76,376.63,336,372.59,339.33Z"/></g><g id="Layer_4" data-name="Layer 4"><path class="cls-7" d="M231.53,420.23c0-4.1,25.45-21.34,27.09-31.19S269.29,367.7,271.75,362s-1.64-13.14,12.32-16.42,32-13.13,38.58-20.52,2.46-3.29,20.52-16.42,0-15.6,19.7-25.45,12.32-9.85,40.23-15.59,60.74,2.46,69.77,10.67,8.21,19.7,34.48,9.85,27.09-20.52,47.61-14.78,27.92,25.45,43.51,14.78,4.11-24.63,25.45-14.78,28.73,11.49,46,24.63,39.4,17.24,48.43,27.09a92.36,92.36,0,0,1,20.53,36.12c4.1,13.95,28.73,24.63,24.62,32s0,14.78,3.29,18.06,15.59,25.45-3.29,20.53-32.83-31.2-36.94-18.06S715,435,701.08,426s-17.23-26.27-31.19-17.24-41.87-1.64-48.43-8.21-1.64-22.16-12.32-13.95-7.38,4.92-14.77,13.95-4.93,9.85-22.17,10.67-31.19-5.74-34.47-10.67,22.16-7.39-6.57-12.31-27.09-7.39-32.84.82-7.39,12.31-16.42,24.63-9.85,23.8-25.44,18.06-26.27-4.11-28.73-10.68,13.95-12.31-6.57-14.77S406.38,403,399,407.1,385.86,421.05,381.76,426s-13.14,9-18.89,0,0-17.24-7.38-18.88-5.75-14-18.88,0S318.55,443.22,303,432.55,281.61,412,275.86,413.67,265.19,426,253.69,426,231.53,430.9,231.53,420.23Z"/><path class="cls-7" d="M321.83,490.83c-13.13,2.46-16.42,15.6-24.63,20.52s-19.7-3.28-30.37,0A61,61,0,0,0,241.38,527c-6.57,6.57-8.21,14.78,12.31,18.06S275,559,289,546.65s6.57-17.24,28.73-16.42,34.48-6.56,31.2-16.41S321.83,490.83,321.83,490.83Z"/><path class="cls-7" d="M671.53,541.73c-3.28,22.16-8.21,25.44,5.75,31.19s3.28.82,30.37,4.93,44.33,18.88,40.23-3.29-18.88-22.16-23-33.66,11.49-21.34-13.13-20.52-26.27,6.57-35.3,3.29S674.82,519.56,671.53,541.73Z"/><path class="cls-7" d="M659.22,495.76c-27.09-11.5-25.45-21.35-35.3-14s-25.45,3.28-10.67,17.24,18.06,12.31,32,13.95S659.22,495.76,659.22,495.76Z"/><path class="cls-7" d="M536.08,443.22c-8.2-7.39-9.85-14.78-18.88-9s-34.47,0-20.52,16.42,7.39,21.34,27.09,18.06S536.08,443.22,536.08,443.22Z"/><path class="cls-8" d="M724.89,358.67c-3.28,5.74,17.24,26.26,18.06,32s-1.64,13.13,2.46,17.24S732.28,403,732.28,403s-8.21-8.21-15.6.82A93.85,93.85,0,0,0,706,419.41s-.82,1.64-6.57-4.1S692.05,403,683,403s-6.56,3.29-14.77,4.11-18.06.82-23.81-4.11-6.56-4.92-11.49-9.85-3.28-9-10.67-10.67-13.14-8.21-20.52-2.46-3.29,9.85-17.24,15.6-7.39,3.28-18.88,5.74-9,9.85-11.5,2.46-5.74-18.05-9.85-18.88-13.13-2.46-20.52-2.46-16.42-3.28-23,0-19.71,14-24.63,18.88-14,10.67-14.78,14-7.39,9.85-13.95,4.1a155.87,155.87,0,0,1-12.32-11.49c-6.56-6.57-8.21-12.31-18.06-12.31s-18.06-4.93-25.44.82-2.47,18.88-13.14,18.06-21.34-2.47-23.8-7.39-4.93-13.14-13.14-11.49-15.6,18.06-23,18.88-9.85,5.74-18.88,4.92-17.24-11.49-25.45-10.67-18.06,11.49-17.24,5.75,11.49-18.88,13.13-24.63,8.21-23,16.42-27.09,6.57.82,18.88-9,31.2-15.6,31.2-15.6,4.92,14.78-1.65,18.06-4.1,14,12.32,13.14,7.39-14.78,37.76-10.67,41,10.67,50.07,11.49,18.06,9.85,25.45,0-4.92-11.49,15.6-11.49,40.22,2.46,44.33-4.93,0-14.78,23.8-4.93,31.2,18.89,49.26,9.86,7.39-18.89,34.47-9.86,22.17,13.14,46,14,14-.82,23.8,0S706,342.25,706,342.25A232.46,232.46,0,0,1,724.89,358.67Z"/></g><g id="Layer_6" data-name="Layer 6"><path class="cls-9" d="M532.53,375.85c-1.41-5.07-6.18-11.24-8.59-11.71s-5.47,2.28-7.39,3.58-6.9,5.35-4.64,6.62,4.82-3.24,8-2.61S533,377.62,532.53,375.85Z"/><path class="cls-9" d="M553.31,335.78c-6.45-1.25-10.14.54-12.09-2.35s-.51-5.95-4.21-4.16-8.35,4.23-8,2.61,2.88-1.94,6.58-3.73,3.22.63,4.81-3.25-.36-6.76,5.13-4.85,6.6.45,7.43,4.79A54.53,54.53,0,0,1,553.31,335.78Z"/><path class="cls-9" d="M676.39,396.6c-1.77.49-7.88,1.81-5.77,3.9s4,.78,6,3.67-2.08,2.1,4.21,4.16,12.24,1.55,7.07-2-7.09-2.21-4-5,1.57-8.05-2-7.07A20.29,20.29,0,0,0,676.39,396.6Z"/><path class="cls-9" d="M636.68,373.52c-1.77.49-7.88,1.81-5.77,3.89s4,.79,6,3.68-2.08,2.1,4.21,4.16,12.24,1.55,7.07-2-7.09-2.22-4-5,1.57-8.06-2-7.07A20.29,20.29,0,0,0,636.68,373.52Z"/><path class="cls-9" d="M587.38,470.82,586.13,469a44.62,44.62,0,0,1-5.57-10.34c-1.64-4.5,1.23-10.63-2.93-6.43s-3.36,4.37-6.56,7.93-3.52,5.17-1.42,7.25,4,.78,8.06,1.57-.31,1.61,4.68,1.74Z"/><path class="cls-9" d="M471.22,311.5,470,309.64a45,45,0,0,1-5.57-10.34c-1.63-4.5,1.24-10.63-2.93-6.43s-3.36,4.37-6.56,7.93-3.51,5.17-1.41,7.25,4,.78,8.06,1.57-.32,1.61,4.67,1.74Z"/><path class="cls-9" d="M666.47,344.49c-1.79-3.69-3.74-6.58-6.81-8s-14.16-.25-5.81-4.48,9.94-8.1,11.88-5.21,2.13,6.26,2.62,8,6.6.45,6.62,4.64-.6,7.41-3.33,8.55-6.11,1.32-6.76.35S666.47,344.49,666.47,344.49Z"/><path class="cls-9" d="M594.69,318c-3.07-1.43-2.91-2.24-8.55-3.34s-8.06-1.57-8.55-3.33-8.08-5.76-1.16-6.92,8.5-5,12.55-.06,5.35,6.89,12.11,6.53,12.7-5.05,11.6.59S594.69,318,594.69,318Z"/><path class="cls-9" d="M476.53,383.61a13.72,13.72,0,0,0-7.72,1s-3.54,1,1.3,1.92A5.49,5.49,0,0,0,476.53,383.61Z"/><path class="cls-9" d="M438.57,389.6a13.51,13.51,0,0,0-4.37-3.36c-2.26-1.27-5.64-1.09-5.14.67s0,4.19,3.89,5.78S438.57,389.6,438.57,389.6Z"/><path class="cls-9" d="M534.83,419.22c3-2.75,9.63-6.49,4.48-5.82s-8.37,0-9.49,1.5-2.57.33-2.24,2.91,1.79,3.69,3.4,4S534.83,419.22,534.83,419.22Z"/><path class="cls-9" d="M460.74,348.76c-2.75-3.05-3.58-7.39-7.27-5.6s-11-3.81-8.38,0,3.09,5.62,8.73,6.72S460.74,348.76,460.74,348.76Z"/><path class="cls-9" d="M476.63,331c.7,5.21,4.57,12,6.9,12.78s5.73-1.51,7.81-2.53,7.57-4.35,5.51-5.92-5.22,2.55-8.32,1.48S476.39,329.16,476.63,331Z"/><path class="cls-9" d="M356.2,328.7c6.22,2.13,10.12.86,11.65,4s-.31,6,3.6,4.7,8.85-3,8.32-1.48-3.13,1.53-7,2.79-3.1-1.06-5.21,2.55-.58,6.75-5.75,4.11-6.48-1.36-6.7-5.77A54,54,0,0,1,356.2,328.7Z"/><path class="cls-9" d="M401.76,305c1.82-.25,8.05-.71,6.25-3.06s-3.88-1.33-5.41-4.46,2.35-1.8-3.59-4.71-11.92-3.21-7.28,1,6.72,3.17,3.33,5.48-2.67,7.77,1,7.28A20.44,20.44,0,0,0,401.76,305Z"/><path class="cls-9" d="M414.87,328.89c1.82-.24,8.05-.71,6.25-3.06s-3.88-1.33-5.41-4.46,2.35-1.8-3.59-4.7-11.92-3.22-7.28,1,6.72,3.18,3.33,5.48-2.66,7.77,1,7.28A20.44,20.44,0,0,0,414.87,328.89Z"/><path class="cls-9" d="M385.18,369.91c.35.71.67,1.38,1,2a44.44,44.44,0,0,1,4.1,11c1,4.68-2.69,10.36,2,6.76s3.93-3.86,7.59-6.94,4.19-4.64,2.39-7-3.88-1.33-7.76-2.66.53-1.56-4.39-2.38Z"/><path class="cls-9" d="M467.05,477.15l1,2a45.19,45.19,0,0,1,4.1,11c1,4.68-2.69,10.36,2,6.77s3.93-3.86,7.59-6.95,4.2-4.63,2.4-7-3.88-1.33-7.77-2.66.54-1.55-4.39-2.37Z"/><path class="cls-9" d="M358.45,369.42c1.26,3.91,2.79,7,5.63,8.88s14,2.2,5.15,5.23-11,6.66-12.49,3.53-1.25-6.5-1.49-8.32-6.48-1.35-5.92-5.5,1.62-7.26,4.48-8,6.23-.47,6.74.58S358.45,369.42,358.45,369.42Z"/><path class="cls-9" d="M425.89,405.57c2.84,1.84,2.57,2.62,8,4.48s7.76,2.66,8,4.48,7.21,6.81.2,7-9.12,3.82-12.45-1.66-4.35-7.57-11.09-8.14-13.27,3.26-11.41-2.18S425.89,405.57,425.89,405.57Z"/><path class="cls-9" d="M552,356.81a13.71,13.71,0,0,0,7.78.07s3.64-.49-1-2.09S552,356.81,552,356.81Z"/><path class="cls-9" d="M590.38,356.1a13.37,13.37,0,0,0,3.86,3.93c2.07,1.58,5.44,1.86,5.2,0s.55-4.14-3.07-6.25S590.38,356.1,590.38,356.1Z"/><path class="cls-9" d="M499.11,313.52c-3.39,2.31-10.43,5.1-5.24,5.15s8.3,1.11,9.61-.18,2.6,0,2.62-2.57-1.27-3.91-2.82-4.44S499.11,313.52,499.11,313.52Z"/><path class="cls-9" d="M562.8,393.51c2.31,3.39,2.53,7.81,6.44,6.54s10.34,5.28,8.29,1.11-2.28-6-7.72-7.85S562.8,393.51,562.8,393.51Z"/></g></svg>