<svg id="Layer_1" enable-background="new 0 0 500 500" height="512" viewBox="0 0 500 500" width="512" xmlns="http://www.w3.org/2000/svg"><g id="XMLID_2671_"><g id="XMLID_283_"><g id="XMLID_781_"><g id="XMLID_1820_"><g id="XMLID_1825_"><path id="XMLID_658_" d="m214.113 67.863h-124.268c-3.393 0-6.144-2.753-6.144-6.148s2.751-6.148 6.144-6.148h124.268c3.393 0 6.144 2.753 6.144 6.148 0 3.396-2.751 6.148-6.144 6.148z" fill="#c9c9c9"/></g><g id="XMLID_1821_"><g id="XMLID_1824_"><ellipse id="XMLID_2938_" cx="89.845" cy="61.715" fill="#ffc533" rx="26.134" ry="26.151"/></g><g id="XMLID_1823_"><path id="XMLID_2937_" d="m115.98 61.715c0-14.443-11.701-26.151-26.134-26.151-11.687 0-21.58 7.678-24.923 18.267 2.487-.786 5.133-1.212 7.879-1.212 14.434 0 26.134 11.708 26.134 26.151 0 2.748-.426 5.396-1.211 7.884 10.582-3.344 18.255-13.244 18.255-24.939z" fill="#ffb000"/></g></g></g><g id="XMLID_1813_"><g id="XMLID_1819_"><path id="XMLID_657_" d="m214.113 350.29h-124.268c-3.393 0-6.144-2.753-6.144-6.148s2.751-6.148 6.144-6.148h124.268c3.393 0 6.144 2.753 6.144 6.148s-2.751 6.148-6.144 6.148z" fill="#c9c9c9"/></g><g id="XMLID_1814_"><g id="XMLID_1818_"><ellipse id="XMLID_2936_" cx="89.845" cy="344.142" fill="#ffc533" rx="26.134" ry="26.151"/></g><g id="XMLID_1817_"><path id="XMLID_2935_" d="m115.98 344.142c0-14.443-11.701-26.151-26.134-26.151-11.687 0-21.58 7.678-24.923 18.267 2.487-.786 5.133-1.212 7.879-1.212 14.434 0 26.134 11.708 26.134 26.151 0 2.748-.426 5.396-1.211 7.884 10.582-3.345 18.255-13.244 18.255-24.939z" fill="#ffb000"/></g></g></g><g id="XMLID_782_"><g id="XMLID_1812_"><path id="XMLID_656_" d="m166.965 182.926h-124.268c-3.393 0-6.144-2.753-6.144-6.148s2.751-6.148 6.144-6.148h124.268c3.393 0 6.144 2.753 6.144 6.148s-2.751 6.148-6.144 6.148z" fill="#c9c9c9"/></g><g id="XMLID_783_"><g id="XMLID_786_"><ellipse id="XMLID_2934_" cx="38.134" cy="176.778" fill="#ffc533" rx="26.134" ry="26.151"/></g><g id="XMLID_785_"><path id="XMLID_2932_" d="m64.268 176.778c0-14.443-11.701-26.151-26.134-26.151-11.687 0-21.58 7.678-24.923 18.267 2.487-.786 5.133-1.212 7.879-1.212 14.434 0 26.134 11.708 26.134 26.151 0 2.748-.426 5.396-1.211 7.884 10.582-3.345 18.255-13.244 18.255-24.939z" fill="#ffb000"/></g></g></g></g><g id="XMLID_262_"><g id="XMLID_775_"><g id="XMLID_780_"><path id="XMLID_655_" d="m399.143 423.511h-113.814c-3.393 0-6.144-2.753-6.144-6.148s2.751-6.148 6.144-6.148h113.814c3.393 0 6.144 2.753 6.144 6.148s-2.751 6.148-6.144 6.148z" fill="#c9c9c9"/></g><g id="XMLID_776_"><g id="XMLID_779_"><ellipse id="XMLID_2931_" cx="399.144" cy="417.364" fill="#ffc533" rx="26.134" ry="26.151"/></g><g id="XMLID_778_"><path id="XMLID_2927_" d="m373.009 417.364c0-14.443 11.701-26.151 26.134-26.151 11.687 0 21.58 7.678 24.923 18.267-2.487-.786-5.133-1.212-7.879-1.212-14.434 0-26.134 11.708-26.134 26.151 0 2.748.426 5.396 1.211 7.884-10.582-3.345-18.255-13.244-18.255-24.939z" fill="#ffae4d"/></g></g></g><g id="XMLID_336_"><g id="XMLID_723_"><path id="XMLID_654_" d="m461.866 282.298h-166.083c-3.393 0-6.144-2.753-6.144-6.148s2.751-6.148 6.144-6.148h166.083c3.393 0 6.144 2.753 6.144 6.148s-2.751 6.148-6.144 6.148z" fill="#c9c9c9"/></g><g id="XMLID_337_"><g id="XMLID_721_"><ellipse id="XMLID_2923_" cx="461.866" cy="276.151" fill="#ffc533" rx="26.134" ry="26.151"/></g><g id="XMLID_719_"><path id="XMLID_2922_" d="m435.732 276.151c0-14.443 11.701-26.151 26.134-26.151 11.687 0 21.58 7.678 24.923 18.267-2.487-.786-5.133-1.212-7.879-1.212-14.434 0-26.134 11.708-26.134 26.151 0 2.748.426 5.396 1.211 7.884-10.582-3.345-18.255-13.245-18.255-24.939z" fill="#ffb000"/></g></g></g><g id="XMLID_267_"><g id="XMLID_335_"><path id="XMLID_653_" d="m378.236 94.014h-145.175c-3.393 0-6.144-2.753-6.144-6.148s2.751-6.148 6.144-6.148h145.175c3.393 0 6.144 2.753 6.144 6.148s-2.751 6.148-6.144 6.148z" fill="#c9c9c9"/></g><g id="XMLID_268_"><g id="XMLID_282_"><ellipse id="XMLID_2917_" cx="378.236" cy="87.866" fill="#ffc533" rx="26.134" ry="26.151"/></g><g id="XMLID_281_"><path id="XMLID_2912_" d="m352.102 87.866c0-14.443 11.701-26.151 26.134-26.151 11.687 0 21.58 7.678 24.923 18.267-2.487-.786-5.133-1.212-7.879-1.212-14.434 0-26.134 11.708-26.134 26.151 0 2.748.426 5.396 1.211 7.884-10.582-3.345-18.255-13.244-18.255-24.939z" fill="#ffb000"/></g></g></g></g></g><g id="XMLID_2665_"><g id="XMLID_2669_"><path id="XMLID_2911_" d="m310.527 145.156c-6.188-6.882-15.005-10.812-24.257-10.812h-17.855v-18.959c13.03-6.619 21.964-20.145 21.964-35.768v-32.119c0-19.919-16.138-36.067-36.045-36.067h-9.736c-19.907 0-36.045 16.148-36.045 36.067v32.119c0 15.554 8.856 29.03 21.793 35.68v19.047h-17.123c-9.241 0-18.041 3.916-24.224 10.788-24.799 27.562-88.544 98.404-88.544 98.404 12.742 12.75 33.402 12.75 46.144 0l46.738-46.767-.208 98.627-6.834 179.616c-10.649 3.285-18.363 13.249-18.267 24.988h50.989l.063-26.14h-.093l22.449-162.233c.549-3.97 3.941-6.926 7.947-6.925 4.004.001 7.394 2.956 7.943 6.925l22.448 162.233h-.093l.063 26.14h50.989c.096-11.739-7.618-21.702-18.267-24.988l-6.825-179.371-.112-99.447 47.312 47.341c12.742 12.75 33.402 12.75 46.144 0z" fill="#fed9c9"/><g id="XMLID_2678_"><g id="XMLID_2677_"><ellipse id="XMLID_2907_" cx="230.743" cy="71.377" fill="#c17a67" rx="4.878" ry="6.276"/></g><g id="XMLID_2676_"><ellipse id="XMLID_2675_" cx="268.686" cy="71.377" fill="#c17a67" rx="4.878" ry="6.276"/></g></g><g id="XMLID_2732_"><g id="XMLID_2670_"><path id="XMLID_2903_" d="m193.352 28.166 17.884-15.083c14.42-12.161 34.022-16.171 52.055-10.648 16.062 4.919 27.028 19.737 27.028 36.521v18.308l-5.495-6.092c-4.852-5.379-12.575-7.233-19.263-4.453-20.959 8.713-45.032 7.363-65.09-4.161-3.624-3.027-13.48-9.028-7.119-14.392z" fill="#ba7365"/></g><g id="XMLID_2734_"><path id="XMLID_2674_" d="m263.292 2.434c-17.589-5.387-36.655-1.682-50.965 9.787 9.746-2.502 20.137-2.365 30.058.673 14.856 4.55 25.345 17.569 26.837 32.779 5.695-.953 11.617 1.08 15.603 5.499l5.495 6.092v-18.308c0-16.785-10.966-31.603-27.028-36.522z" fill="#ad6c5a"/></g></g></g><g id="XMLID_2666_"><g id="XMLID_2668_"><path id="XMLID_650_" d="m249.718 205.072c-8.98 0-17.955-2.204-26.12-6.61-2.987-1.611-4.102-5.341-2.492-8.329 1.61-2.989 5.336-4.105 8.324-2.493 12.567 6.781 27.608 6.848 40.236.183l.395-.209c3.002-1.586 6.719-.435 8.302 2.567 1.583 3.003.435 6.722-2.566 8.306l-.396.209c-8.054 4.251-16.87 6.376-25.683 6.376z" fill="#ffc5b7"/></g><g id="XMLID_2667_"><path id="XMLID_648_" d="m249.718 242.225c-8.98 0-17.955-2.204-26.12-6.609-2.986-1.611-4.102-5.34-2.492-8.329 1.61-2.988 5.336-4.105 8.324-2.493 12.567 6.78 27.61 6.847 40.236.183l.395-.208c3.002-1.586 6.719-.435 8.302 2.567 1.583 3.003.435 6.722-2.566 8.306l-.396.209c-8.054 4.25-16.87 6.374-25.683 6.374z" fill="#ffc5b7"/></g></g></g></g></svg>