<?xml version="1.0" encoding="UTF-8" standalone="no"?>
<!-- Created with Inkscape (http://www.inkscape.org/) -->

<svg
   width="1000"
   height="1000"
   viewBox="0 0 264.58333 264.58334"
   version="1.1"
   id="svg2383"
   inkscape:version="1.2 (1:1.2.1+202207142221+cd75a1ee6d)"
   sodipodi:docname="describing things.svg"
   enable-background="new"
   xmlns:inkscape="http://www.inkscape.org/namespaces/inkscape"
   xmlns:sodipodi="http://sodipodi.sourceforge.net/DTD/sodipodi-0.dtd"
   xmlns="http://www.w3.org/2000/svg"
   xmlns:svg="http://www.w3.org/2000/svg"
   xmlns:rdf="http://www.w3.org/1999/02/22-rdf-syntax-ns#"
   xmlns:cc="http://creativecommons.org/ns#"
   xmlns:dc="http://purl.org/dc/elements/1.1/">
  <defs
     id="defs2377">
    <clipPath
       clipPathUnits="userSpaceOnUse"
       id="clipPath354">
      <path
         d="m 31307.7,14127.1 c -0.1,0 -0.1,0 -0.2,0 -609.8,0 -1203.1,260.3 -1614.8,726.2 v 0 c 411.7,-465.9 1005,-726.2 1614.8,-726.2 0.1,0 0.1,0 0.2,0 164.1,0 329.4,18.8 492.7,57.6 v 0 c -163.3,-38.8 -328.6,-57.6 -492.7,-57.6"
         id="path352"
         inkscape:connector-curvature="0" />
    </clipPath>
    <clipPath
       clipPathUnits="userSpaceOnUse"
       id="clipPath1664">
      <path
         d="M 9698.17,8491.28 7200.76,7969.5 c -86.98,172.77 -134.15,299.46 -12.67,473.38 l 2497.04,535.6 c -27.86,-156.16 -22.4,-347.1 13.04,-487.2 z"
         id="path1662"
         inkscape:connector-curvature="0" />
    </clipPath>
    <clipPath
       clipPathUnits="userSpaceOnUse"
       id="clipPath304">
      <path
         d="m 20986,8431.61 -2472.3,-630.05 c -94.4,168.82 -215.5,1863.91 -101.7,2042.96 l 2471.3,643.78 c -21,-157.2 61.2,-1918.28 102.7,-2056.69 z"
         id="path302"
         inkscape:connector-curvature="0" />
    </clipPath>
  </defs>
  <sodipodi:namedview
     id="base"
     pagecolor="#ffffff"
     bordercolor="#666666"
     borderopacity="1.0"
     inkscape:pageopacity="0.0"
     inkscape:pageshadow="2"
     inkscape:zoom="0.70710678"
     inkscape:cx="468.8118"
     inkscape:cy="480.12551"
     inkscape:document-units="px"
     inkscape:current-layer="layer1"
     showgrid="false"
     units="px"
     inkscape:window-width="1920"
     inkscape:window-height="1056"
     inkscape:window-x="0"
     inkscape:window-y="1080"
     inkscape:window-maximized="1"
     showguides="true"
     inkscape:lockguides="true"
     inkscape:object-nodes="false"
     inkscape:snap-nodes="false"
     inkscape:snap-others="false"
     inkscape:showpageshadow="2"
     inkscape:pagecheckerboard="0"
     inkscape:deskcolor="#d1d1d1" />
  <metadata
     id="metadata2380">
    <rdf:RDF>
      <cc:Work
         rdf:about="">
        <dc:format>image/svg+xml</dc:format>
        <dc:type
           rdf:resource="http://purl.org/dc/dcmitype/StillImage" />
      </cc:Work>
    </rdf:RDF>
  </metadata>
  <g
     inkscape:groupmode="layer"
     id="layer3"
     inkscape:label="Layer 2" />
  <g
     inkscape:groupmode="layer"
     id="layer2"
     inkscape:label="Layer 3" />
  <g
     inkscape:label="Layer 1"
     inkscape:groupmode="layer"
     id="layer1"
     transform="translate(0,-32.41665)">
    <text
       xml:space="preserve"
       style="font-style:normal;font-variant:normal;font-weight:bold;font-stretch:normal;font-size:10.58333302px;line-height:1.25;font-family:sans-serif;-inkscape-font-specification:'sans-serif Bold';letter-spacing:0px;word-spacing:0px;fill:#000000;fill-opacity:1;stroke:none;stroke-width:0.26458332"
       x="150.05655"
       y="89.869026"
       id="text8811" />
    <text
       xml:space="preserve"
       style="font-style:normal;font-variant:normal;font-weight:bold;font-stretch:normal;font-size:10.58333302px;line-height:1.25;font-family:sans-serif;-inkscape-font-specification:'sans-serif Bold';letter-spacing:0px;word-spacing:0px;fill:#000000;fill-opacity:1;stroke:none;stroke-width:0.26458332"
       x="160.63989"
       y="97.806526"
       id="text8815" />
    <text
       xml:space="preserve"
       style="font-style:normal;font-variant:normal;font-weight:bold;font-stretch:normal;font-size:10.58333302px;line-height:1.25;font-family:sans-serif;-inkscape-font-specification:'sans-serif Bold';letter-spacing:0px;word-spacing:0px;fill:#000000;fill-opacity:1;stroke:none;stroke-width:0.26458332"
       x="156.86011"
       y="88.7351"
       id="text8819" />
    <flowRoot
       xml:space="preserve"
       id="flowRoot8821"
       style="font-style:normal;font-variant:normal;font-weight:bold;font-stretch:normal;font-size:40px;line-height:1.25;font-family:sans-serif;-inkscape-font-specification:'sans-serif Bold';letter-spacing:0px;word-spacing:0px;fill:#000000;fill-opacity:1;stroke:none"><flowRegion
         id="flowRegion8823"
         style="font-style:normal;font-variant:normal;font-weight:bold;font-stretch:normal;font-family:sans-serif;-inkscape-font-specification:'sans-serif Bold'" /><flowPara
         id="flowPara8827" /></flowRoot>
    <flowRoot
       xml:space="preserve"
       id="flowRoot8829"
       style="font-style:normal;font-variant:normal;font-weight:bold;font-stretch:normal;font-size:40px;line-height:1.25;font-family:sans-serif;-inkscape-font-specification:'sans-serif Bold';letter-spacing:0px;word-spacing:0px;fill:#000000;fill-opacity:1;stroke:none"><flowRegion
         id="flowRegion8831"
         style="font-style:normal;font-variant:normal;font-weight:bold;font-stretch:normal;font-family:sans-serif;-inkscape-font-specification:'sans-serif Bold'" /><flowPara
         id="flowPara8835" /></flowRoot>
    <flowRoot
       xml:space="preserve"
       id="flowRoot8837"
       style="font-style:normal;font-variant:normal;font-weight:bold;font-stretch:normal;font-size:40px;line-height:1.25;font-family:sans-serif;-inkscape-font-specification:'sans-serif Bold';letter-spacing:0px;word-spacing:0px;fill:#000000;fill-opacity:1;stroke:none"><flowRegion
         id="flowRegion8839"
         style="font-style:normal;font-variant:normal;font-weight:bold;font-stretch:normal;font-family:sans-serif;-inkscape-font-specification:'sans-serif Bold'" /><flowPara
         id="flowPara8843" /></flowRoot>
    <text
       xml:space="preserve"
       style="font-style:normal;font-variant:normal;font-weight:bold;font-stretch:normal;font-size:10.58333302px;line-height:1.25;font-family:sans-serif;-inkscape-font-specification:'sans-serif Bold';letter-spacing:0px;word-spacing:0px;fill:#000000;fill-opacity:1;stroke:none;stroke-width:0.26458332"
       x="209.39882"
       y="107.25594"
       id="text8847" />
    <flowRoot
       xml:space="preserve"
       id="flowRoot8849"
       style="font-style:normal;font-variant:normal;font-weight:bold;font-stretch:normal;font-size:40px;line-height:1.25;font-family:sans-serif;-inkscape-font-specification:'sans-serif Bold';letter-spacing:0px;word-spacing:0px;fill:#000000;fill-opacity:1;stroke:none"><flowRegion
         id="flowRegion8851"
         style="font-style:normal;font-variant:normal;font-weight:bold;font-stretch:normal;font-family:sans-serif;-inkscape-font-specification:'sans-serif Bold'" /><flowPara
         id="flowPara8855" /></flowRoot>
    <flowRoot
       xml:space="preserve"
       id="flowRoot8857"
       style="font-style:normal;font-variant:normal;font-weight:bold;font-stretch:normal;font-size:40px;line-height:1.25;font-family:sans-serif;-inkscape-font-specification:'sans-serif Bold';letter-spacing:0px;word-spacing:0px;fill:#000000;fill-opacity:1;stroke:none"><flowRegion
         id="flowRegion8859"
         style="font-style:normal;font-variant:normal;font-weight:bold;font-stretch:normal;font-family:sans-serif;-inkscape-font-specification:'sans-serif Bold'" /><flowPara
         id="flowPara8863" /></flowRoot>
    <flowRoot
       xml:space="preserve"
       id="flowRoot8865"
       style="font-style:normal;font-variant:normal;font-weight:bold;font-stretch:normal;font-size:40px;line-height:1.25;font-family:sans-serif;-inkscape-font-specification:'sans-serif Bold';letter-spacing:0px;word-spacing:0px;fill:#000000;fill-opacity:1;stroke:none"><flowRegion
         id="flowRegion8867"
         style="font-style:normal;font-variant:normal;font-weight:bold;font-stretch:normal;font-family:sans-serif;-inkscape-font-specification:'sans-serif Bold'" /><flowPara
         id="flowPara8871" /></flowRoot>
    <flowRoot
       xml:space="preserve"
       id="flowRoot8873"
       style="font-style:normal;font-variant:normal;font-weight:bold;font-stretch:normal;font-size:40px;line-height:1.25;font-family:sans-serif;-inkscape-font-specification:'sans-serif Bold';letter-spacing:0px;word-spacing:0px;fill:#000000;fill-opacity:1;stroke:none"><flowRegion
         id="flowRegion8875"
         style="font-style:normal;font-variant:normal;font-weight:bold;font-stretch:normal;font-family:sans-serif;-inkscape-font-specification:'sans-serif Bold'" /><flowPara
         id="flowPara8879" /></flowRoot>
    <text
       xml:space="preserve"
       style="font-style:normal;font-weight:normal;font-size:10.58333302px;line-height:1.25;font-family:sans-serif;letter-spacing:0px;word-spacing:0px;fill:#000000;fill-opacity:1;stroke:none;stroke-width:0.26458332"
       x="101.02788"
       y="69.125984"
       id="text977"><tspan
         sodipodi:role="line"
         id="tspan975"
         x="101.02788"
         y="78.489754"
         style="stroke-width:0.26458332" /><tspan
         sodipodi:role="line"
         x="101.02788"
         y="91.718918"
         id="tspan979"
         style="stroke-width:0.26458332" /><tspan
         sodipodi:role="line"
         x="101.02788"
         y="104.94809"
         id="tspan981"
         style="stroke-width:0.26458332" /><tspan
         sodipodi:role="line"
         x="101.02788"
         y="118.17725"
         id="tspan983"
         style="stroke-width:0.26458332" /><tspan
         sodipodi:role="line"
         x="101.02788"
         y="131.40642"
         id="tspan985"
         style="stroke-width:0.26458332" /><tspan
         sodipodi:role="line"
         x="101.02788"
         y="144.63559"
         id="tspan987"
         style="stroke-width:0.26458332" /><tspan
         sodipodi:role="line"
         x="101.02788"
         y="157.86475"
         id="tspan989"
         style="stroke-width:0.26458332" /><tspan
         sodipodi:role="line"
         x="101.02788"
         y="171.09392"
         id="tspan991"
         style="stroke-width:0.26458332" /><tspan
         sodipodi:role="line"
         x="101.02788"
         y="184.32309"
         id="tspan993"
         style="stroke-width:0.26458332" /><tspan
         sodipodi:role="line"
         x="101.02788"
         y="197.55225"
         id="tspan995"
         style="stroke-width:0.26458332" /><tspan
         sodipodi:role="line"
         x="101.02788"
         y="210.78142"
         id="tspan997"
         style="stroke-width:0.26458332" /><tspan
         sodipodi:role="line"
         x="101.02788"
         y="224.01059"
         id="tspan999"
         style="stroke-width:0.26458332" /><tspan
         sodipodi:role="line"
         x="101.02788"
         y="237.23975"
         id="tspan1001"
         style="stroke-width:0.26458332" /><tspan
         sodipodi:role="line"
         x="101.02788"
         y="250.46892"
         id="tspan1003"
         style="stroke-width:0.26458332" /><tspan
         sodipodi:role="line"
         x="101.02788"
         y="263.69809"
         id="tspan1005"
         style="stroke-width:0.26458332" /><tspan
         sodipodi:role="line"
         x="101.02788"
         y="276.92725"
         id="tspan1007"
         style="stroke-width:0.26458332" /><tspan
         sodipodi:role="line"
         x="101.02788"
         y="290.1564"
         id="tspan1009"
         style="stroke-width:0.26458332" /><tspan
         sodipodi:role="line"
         x="101.02788"
         y="303.38559"
         id="tspan1011"
         style="stroke-width:0.26458332" /><tspan
         sodipodi:role="line"
         x="101.02788"
         y="316.61475"
         id="tspan1013"
         style="stroke-width:0.26458332" /><tspan
         sodipodi:role="line"
         x="101.02788"
         y="329.8439"
         id="tspan1015"
         style="stroke-width:0.26458332" /><tspan
         sodipodi:role="line"
         x="101.02788"
         y="343.07309"
         id="tspan1017"
         style="stroke-width:0.26458332" /><tspan
         sodipodi:role="line"
         x="101.02788"
         y="356.30225"
         id="tspan1019"
         style="stroke-width:0.26458332" /><tspan
         sodipodi:role="line"
         x="101.02788"
         y="369.5314"
         id="tspan1021"
         style="stroke-width:0.26458332" /><tspan
         sodipodi:role="line"
         x="101.02788"
         y="382.76059"
         id="tspan1023"
         style="stroke-width:0.26458332" /></text>
    <g
       id="g62"
       transform="matrix(0.02503101,0,0,-0.02503101,-286.04826,348.914)"
       style="stroke-width:1.757">
      <path
         d="m 16300,3732.47 c -75.8,-27.68 -393,-57.04 -492.5,-59.52 -27.9,318.85 -167.3,1586.25 -226.5,2001.24 -14.7,102.89 -249.7,108.79 -270.2,1.15 -12.7,-66.46 -235.4,-1611.27 -291.1,-2007.29 -160.7,-12.83 -349.1,13.48 -488,59.84 0,0 134.7,2697.68 152,3109.98 270.7,43.15 1246,47.69 1536.7,3.15 48.2,-425.59 46.1,-2499.49 79.6,-3108.55"
         style="fill:#ffc19f;fill-opacity:1;fill-rule:nonzero;stroke:none;stroke-width:1.757"
         id="path64"
         inkscape:connector-curvature="0" />
    </g>
    <g
       id="g66"
       transform="matrix(0.02645618,0,0,-0.02645618,-286.04826,348.914)"
       style="stroke-width:1.757">
      <path
         d="m 14589.9,2693.15 c -944.6,0 -1710.2,61.32 -1710.2,136.91 0,75.67 765.6,136.91 1710.2,136.91 944.4,0 1710.1,-61.24 1710.1,-136.91 0,-75.59 -765.7,-136.91 -1710.1,-136.91"
         style="fill:#e0e0e0;fill-opacity:1;fill-rule:nonzero;stroke:none;stroke-width:1.757"
         id="path68"
         inkscape:connector-curvature="0" />
    </g>
    <g
       id="g70"
       transform="matrix(0.02514385,0,0,-0.02514385,-286.04826,348.914)"
       style="stroke-width:1.757">
      <path
         d="m 15751.7,3849.95 113.5,6.55 c -1.8,31.3 -28.6,55.74 -60,53.98 -31.3,-1.76 -55.2,-29.15 -53.5,-60.53 z m 113.5,6.55 113.5,6.47 c -1.8,31.38 -28.6,55.65 -60,53.9 -31.3,-1.76 -55.3,-29.07 -53.5,-60.37 z m 113.5,6.47 113.4,6.54 c -1.7,31.31 -28.6,55.5 -59.9,53.75 -31.3,-1.76 -55.3,-28.91 -53.5,-60.29 z m 226.9,13.01 93.8,5.35 c 0,6.87 0.3,21.88 0.6,40.41 -10.9,9.58 -25.2,15.17 -40.8,14.29 -31.4,-1.75 -55.3,-28.74 -53.6,-60.05 z m -113.5,-6.47 113.5,6.47 c -1.7,31.31 -28.6,55.42 -59.9,53.66 -31.4,-1.75 -55.3,-28.82 -53.6,-60.13 z m -419,25.56 c 3.4,-20.29 6.3,-37.93 8.3,-49.75 l 70.3,4.63 c -1.7,31.38 -28.6,55.9 -60,54.14 -7.4,-0.48 -12.3,-6.07 -18.6,-9.02"
         style="fill:#ed457d;fill-opacity:1;fill-rule:nonzero;stroke:none;stroke-width:1.757"
         id="path72"
         inkscape:connector-curvature="0" />
    </g>
    <g
       id="g74"
       transform="matrix(0.02517196,0,0,-0.02517196,-286.04826,348.914)"
       style="stroke-width:1.757">
      <path
         d="m 15753.5,3249.07 c 2.9,-16.27 535.1,34.46 536.4,54.48 10.1,167.43 -7.8,510.66 -8.8,573.43 l -617.3,-35.97 c 27.4,-172.29 70.7,-487.29 89.7,-591.94"
         style="fill:#fff8b3;fill-opacity:1;fill-rule:nonzero;stroke:none;stroke-width:1.757"
         id="path76"
         inkscape:connector-curvature="0" />
    </g>
    <g
       id="g78"
       transform="matrix(0.02629174,0,0,-0.02629174,-286.04826,348.914)"
       style="stroke-width:1.757">
      <path
         d="m 15507.2,3450.14 c -8.2,37.65 -360.4,-25.73 -424.6,-14.51 -1.7,-87.14 -51.9,-227.57 -49.5,-345.94 1.7,-82.48 70.2,-142.73 145.6,-156.41 290.9,-52.69 1059.9,-211.54 1093.6,2.06 27.7,175.27 -431.3,308.46 -765.1,514.8"
         style="fill:#fff8b3;fill-opacity:1;fill-rule:nonzero;stroke:none;stroke-width:1.757"
         id="path80"
         inkscape:connector-curvature="0" />
    </g>
    <g
       id="g82"
       transform="matrix(0.02640939,0,0,-0.02640939,-286.04826,348.914)"
       style="stroke-width:1.757">
      <path
         d="m 14967.3,3283.25 c 5.2,6.46 19.6,7.07 30.3,-3.35 70.8,-41.2 183.1,-83.47 275.7,-112.14 31.6,-9.73 62.8,-17.18 93.6,-22.65 30,91.08 108,199.95 179.7,244.65 14.9,9.43 34.1,3.96 42.8,-11.86 8.8,-15.81 3.8,-36.26 -11.2,-45.54 -55.3,-34.36 -118.8,-121.49 -147.2,-194.78 192.7,-23.95 340.2,-21.82 411.6,101.88 223.7,-130.77 457.4,-175.02 451.3,-324.49 -7.6,-183.68 -1331.5,-9.5 -1331.5,-9.5 2.6,110.39 1.7,278.49 4.9,377.78"
         style="fill:#f93d77;fill-opacity:1;fill-rule:nonzero;stroke:none;stroke-width:1.757"
         id="path84"
         inkscape:connector-curvature="0" />
    </g>
    <g
       id="g86"
       transform="matrix(0.02640417,0,0,-0.02640417,-286.04826,348.914)"
       style="stroke-width:1.757">
      <path
         d="m 14963.3,2972.82 c 0.3,-24.49 0.4,-48.21 -0.1,-69.2 0,0 1145.2,-207.67 1323.1,-43.5 6.4,5.86 13.7,35.13 10.4,44.56 -320.3,-72.16 -1043.2,23.96 -1333.4,68.14"
         style="fill:#b52652;fill-opacity:1;fill-rule:nonzero;stroke:none;stroke-width:1.757"
         id="path88"
         inkscape:connector-curvature="0" />
    </g>
    <g
       id="g90"
       transform="matrix(0.02514766,0,0,-0.02514766,-286.04826,348.914)"
       style="stroke-width:1.757">
      <path
         d="m 16300,3790.68 c -250.9,-25.71 -358,-28.98 -607.4,-34.89 -1.2,8.78 -2.6,17.65 -3.9,26.11 251.5,5.91 358,9.1 610.3,34.89 0.4,-8.7 0.7,-16.21 1,-26.11"
         style="fill:#ed457d;fill-opacity:1;fill-rule:nonzero;stroke:none;stroke-width:1.757"
         id="path92"
         inkscape:connector-curvature="0" />
    </g>
    <g
       id="g94"
       transform="matrix(0.02318419,0,0,-0.02318419,-286.04826,348.914)"
       style="stroke-width:1.757">
      <path
         d="m 16156.7,4241 c -34.1,1.9 -63.2,-24.6 -65.1,-58.55 l 123.1,-7.1 c 1.9,34.04 -24.1,63.74 -58,65.65 z m -123.1,6.93 c -34,1.9 -63.1,-24.43 -65,-58.46 l 123,-7.02 c 1.9,33.95 -24,63.57 -58,65.48 z m -123.1,6.92 c -34,1.91 -63.1,-24.33 -65,-58.28 l 123.1,-7.1 c 1.9,34.03 -24.1,63.48 -58.1,65.38 z m -246.2,13.86 c -16.9,0.96 -32.5,-5.11 -44.2,-15.5 0.3,-20.09 0.5,-36.37 0.7,-43.82 l 101.6,-5.8 c 1.9,33.94 -24,63.22 -58.1,65.12 z m 123.1,-6.93 c -34,1.91 -63.1,-24.25 -65,-58.19 l 123.1,-7.02 c 1.9,33.95 -24.1,63.31 -58.1,65.21 z m 492.3,-27.71 c -34,1.9 -63.1,-24.68 -65,-58.72 l 76.3,-5.02 c 2,12.82 5.3,31.96 9,53.95 -6.9,3.21 -12.2,9.27 -20.3,9.79"
         style="fill:#ed457d;fill-opacity:1;fill-rule:nonzero;stroke:none;stroke-width:1.757"
         id="path96"
         inkscape:connector-curvature="0" />
    </g>
    <g
       id="g98"
       transform="matrix(0.02317134,0,0,-0.02317134,-286.04826,348.914)"
       style="stroke-width:1.757">
      <path
         d="m 16202.6,3529.59 c -3.2,-17.67 -581.3,37.43 -582.7,59.19 -11,181.88 8.4,554.74 9.5,622.93 l 670.6,-39.07 c -29.7,-187.17 -76.8,-529.36 -97.4,-643.05"
         style="fill:#fff8b3;fill-opacity:1;fill-rule:nonzero;stroke:none;stroke-width:1.757"
         id="path100"
         inkscape:connector-curvature="0" />
    </g>
    <g
       id="g102"
       transform="matrix(0.02311653,0,0,-0.02311653,-286.04826,348.914)"
       style="stroke-width:1.757">
      <path
         d="m 15758,3924.06 c 9.4,42.83 410,-29.27 482.9,-16.5 2,-99.11 59.1,-258.84 56.3,-393.47 -1.9,-93.8 -79.8,-162.33 -165.5,-177.88 -330.9,-59.93 -1205.5,-240.6 -1243.8,2.34 -31.6,199.34 490.4,350.82 870.1,585.51"
         style="fill:#fff8b3;fill-opacity:1;fill-rule:nonzero;stroke:none;stroke-width:1.757"
         id="path104"
         inkscape:connector-curvature="0" />
    </g>
    <g
       id="g106"
       transform="matrix(0.02311854,0,0,-0.02311854,-286.04826,348.914)"
       style="stroke-width:1.757">
      <path
         d="m 16294.4,3750.62 c -5.9,7.38 -22.4,8.07 -34.6,-3.82 -80.8,-47.08 -209.1,-95.37 -314.9,-128.11 -36.1,-11.12 -71.8,-19.63 -106.9,-25.88 -34.4,104.05 -123.5,228.42 -205.3,279.48 -17.1,10.77 -39,4.52 -49,-13.55 -9.9,-18.06 -4.1,-41.42 12.9,-52.02 63.1,-39.25 135.7,-138.79 168.1,-222.51 -220.2,-27.35 -388.6,-24.93 -470.2,116.38 -255.5,-149.38 -522.5,-199.93 -515.5,-370.67 8.7,-209.84 1521,-10.86 1521,-10.86 -3,126.1 -1.9,318.13 -5.6,431.56"
         style="fill:#f93d77;fill-opacity:1;fill-rule:nonzero;stroke:none;stroke-width:1.757"
         id="path108"
         inkscape:connector-curvature="0" />
    </g>
    <g
       id="g110"
       transform="matrix(0.02312215,0,0,-0.02312215,-286.04826,348.914)"
       style="stroke-width:1.757">
      <path
         d="m 16299.9,3394.79 c -0.3,-27.96 -0.4,-55.06 0.1,-79.03 0,0 -1307.8,-237.14 -1511,-49.67 -7.2,6.69 -15.5,40.13 -11.8,50.89 365.9,-82.4 1191.3,27.36 1522.7,77.81"
         style="fill:#b52652;fill-opacity:1;fill-rule:nonzero;stroke:none;stroke-width:1.757"
         id="path112"
         inkscape:connector-curvature="0" />
    </g>
    <g
       id="g114"
       transform="matrix(0.02315628,0,0,-0.02315628,-286.04826,348.914)"
       style="stroke-width:1.757">
      <path
         d="m 15636.1,4116.64 c 272.5,-27.92 388.9,-31.47 659.7,-37.89 1.3,9.54 2.8,19.16 4.2,28.35 -273.1,6.42 -388.8,9.89 -662.8,37.9 -0.3,-9.46 -0.7,-17.61 -1.1,-28.36"
         style="fill:#ed457d;fill-opacity:1;fill-rule:nonzero;stroke:none;stroke-width:1.757"
         id="path116"
         inkscape:connector-curvature="0" />
    </g>
    <g
       id="g118"
       transform="matrix(0.02654151,0,0,-0.02654151,-286.04826,348.914)"
       style="stroke-width:1.757">
      <path
         d="m 15422.2,10009.3 c 396.3,-563.06 342.3,-809.15 412.7,-942.58 115.4,-218.66 220.8,-229.83 299.8,-438.14 165.3,-435.82 -179.7,-861.33 -410.8,-922.55 32.8,142.43 0.7,314.77 -24.7,332.57 -10.9,-149.26 -30.6,-342.46 -75,-378.11 -273.1,-219.51 -604.3,-348.1 -1155.9,-422.88 -438.2,-59.38 -1067.5,-55.78 -1537,152.01 -83.6,37.05 -164,203 -210.2,409.32 -68.5,-227.76 56,-345.38 23.5,-325.66 -236.8,143.76 -474.9,533.28 -265.4,898.55 246.1,429.03 -61,498.15 267,1270.56 792,178.74 2366.4,387.81 2676,366.91"
         style="fill:#ad5c49;fill-opacity:1;fill-rule:nonzero;stroke:none;stroke-width:1.757"
         id="path120"
         inkscape:connector-curvature="0" />
    </g>
    <g
       id="g122"
       transform="matrix(0.02713643,0,0,-0.02713643,-286.04826,348.914)"
       style="stroke-width:1.757">
      <path
         d="m 16263.2,7619.04 c 36.8,28.17 -157.8,328.82 -192.7,308.41 -522.6,-305.2 -886.5,-555.95 -1457.9,-697.75 66.5,-158.31 133.9,-312.65 202.7,-469.89 559.6,205.38 961.3,487.27 1447.9,859.23"
         style="fill:#ffc19f;fill-opacity:1;fill-rule:nonzero;stroke:none;stroke-width:1.757"
         id="path124"
         inkscape:connector-curvature="0" />
    </g>
    <g
       id="g126"
       transform="matrix(0.02294405,0,0,-0.02294405,-286.04826,348.914)"
       style="stroke-width:1.757">
      <path
         d="m 15112.4,7434.93 c 277.2,351.2 644.5,931.56 711.1,981.65 L 16300,7964.2 c -59.8,-128.65 -792,-759.37 -937.2,-821.66 -51.8,-40.01 -369.2,-29.69 -250.4,292.39"
         style="fill:#e4a78e;fill-opacity:1;fill-rule:nonzero;stroke:none;stroke-width:1.757"
         id="path128"
         inkscape:connector-curvature="0" />
    </g>
    <g
       id="g130"
       transform="matrix(0.02301754,0,0,-0.02301754,-286.04826,348.914)"
       style="stroke-width:1.757">
      <path
         d="m 15337.5,8029.36 c 136.6,-121.72 694.1,-337.11 703.9,-317.85 96.2,187.15 258.6,795.11 255.8,813.35 -294.2,-60.27 -538.6,-78.57 -600.1,-124.44 -131,-130.01 -273.2,-277.71 -359.6,-371.06"
         style="fill:#1aa7d3;fill-opacity:1;fill-rule:nonzero;stroke:none;stroke-width:1.757"
         id="path132"
         inkscape:connector-curvature="0" />
    </g>
    <g
       id="g134"
       transform="matrix(0.02543318,0,0,-0.02543318,-286.04826,348.914)"
       style="stroke-width:1.757">
      <path
         d="m 15880.7,7793.27 c -257.7,-58.68 -1157.6,-93.1 -1532.7,-148.26 -31.1,-403.1 -246.6,-2162.02 -294.7,-2610.82 892.6,-259.13 1849.3,-99.44 2246.7,-3.57 -118.3,763.22 -278,1954.65 -419.3,2762.65"
         style="fill:#1aa7d3;fill-opacity:1;fill-rule:nonzero;stroke:none;stroke-width:1.757"
         id="path136"
         inkscape:connector-curvature="0" />
    </g>
    <g
       id="g138"
       transform="matrix(0.0245682,0,0,-0.0245682,-286.04826,348.914)"
       style="stroke-width:1.757">
      <path
         d="m 15631.2,7714 c 25.8,-109.96 190.7,-162.3 368.2,-116.92 177.6,45.41 300.6,171.35 274.7,281.31 -25.8,109.96 -190.8,162.3 -368.3,116.9 -177.6,-45.39 -300.5,-171.32 -274.6,-281.29"
         style="fill:#ffffff;fill-opacity:1;fill-rule:nonzero;stroke:none;stroke-width:1.757"
         id="path140"
         inkscape:connector-curvature="0" />
    </g>
    <g
       id="g142"
       transform="matrix(0.02371908,0,0,-0.02371908,-286.04826,348.914)"
       style="stroke-width:1.757">
      <path
         d="m 16278.2,7992.22 c -22,-115.02 -190.3,-177.17 -376,-138.78 -185.7,38.37 -318.6,162.75 -296.7,277.78 21.9,115.04 190.1,177.17 376,138.8 185.7,-38.38 318.5,-162.76 296.7,-277.8"
         style="fill:#ffffff;fill-opacity:1;fill-rule:nonzero;stroke:none;stroke-width:1.757"
         id="path144"
         inkscape:connector-curvature="0" />
    </g>
    <g
       id="g146"
       transform="matrix(0.02419655,0,0,-0.02419655,-286.04826,348.914)"
       style="stroke-width:1.757">
      <path
         d="m 16300,8043.25 c 0,28.87 -9.1,56.14 -23.4,81.86 -212.2,-14.82 -470.5,-23.64 -729,-29.88 -5.6,-16.78 -9,-34.1 -9,-51.98 0,-135.1 170.5,-244.61 380.7,-244.61 210.3,0 380.7,109.51 380.7,244.61"
         style="fill:#ffc19f;fill-opacity:1;fill-rule:nonzero;stroke:none;stroke-width:1.757"
         id="path148"
         inkscape:connector-curvature="0" />
    </g>
    <g
       id="g150"
       transform="matrix(0.02409615,0,0,-0.02409615,-286.04826,348.914)"
       style="stroke-width:1.757">
      <path
         d="m 16277.5,8470.45 18,-398.79 c 4.5,-86.18 -126.7,-163.17 -294.8,-171.97 -168.2,-8.83 -309.6,53.86 -314.1,140.04 l -18.2,403.22 609.1,27.5"
         style="fill:#ffc19f;fill-opacity:1;fill-rule:nonzero;stroke:none;stroke-width:1.757"
         id="path152"
         inkscape:connector-curvature="0" />
    </g>
    <g
       id="g154"
       transform="matrix(0.02427947,0,0,-0.02427947,-286.04826,348.914)"
       style="stroke-width:1.757">
      <path
         d="m 16168.2,8107.34 -0.5,11.51 c 44.6,4.89 88.8,12.74 132.3,23.51 -12.3,-9.63 -25.5,-18.62 -39.4,-26.94 -29.9,-2.73 -60.7,-5.42 -92.4,-8.08"
         style="fill:#a3503e;fill-opacity:1;fill-rule:nonzero;stroke:none;stroke-width:1.757"
         id="path156"
         inkscape:connector-curvature="0" />
    </g>
    <g
       id="g158"
       transform="matrix(0.02422084,0,0,-0.02422084,-286.04826,348.914)"
       style="stroke-width:1.757">
      <path
         d="m 16207.5,8123.51 -0.2,3.45 c 31.8,2.67 62.7,5.37 92.7,8.1 -5.1,-3.1 -10.4,-6.1 -15.8,-9.02 -7.3,0.37 -14.7,0.55 -22.3,0.55 -17.7,0 -35.8,-1.01 -54.4,-3.08"
         style="fill:#278fb2;fill-opacity:1;fill-rule:nonzero;stroke:none;stroke-width:1.757"
         id="path160"
         inkscape:connector-curvature="0" />
    </g>
    <g
       id="g162"
       transform="matrix(0.02419735,0,0,-0.02419735,-286.04826,348.914)"
       style="stroke-width:1.757">
      <path
         d="m 16223.7,8121.34 -0.5,10.02 c 18.5,2.08 36.7,3.09 54.5,3.09 7.5,0 14.9,-0.18 22.3,-0.55 -7.4,-4.03 -14.9,-7.88 -22.7,-11.55 -0.4,0.82 -0.9,1.65 -1.3,2.47 -17.2,-1.2 -34.7,-2.36 -52.3,-3.48"
         style="fill:#e8d8d6;fill-opacity:1;fill-rule:nonzero;stroke:none;stroke-width:1.757"
         id="path164"
         inkscape:connector-curvature="0" />
    </g>
    <g
       id="g166"
       transform="matrix(0.02416382,0,0,-0.02416382,-286.04826,348.914)"
       style="stroke-width:1.757">
      <path
         d="m 16247.2,8112.34 -1,20.3 c 17.7,1.12 35.3,2.29 52.5,3.48 0.4,-0.82 0.8,-1.64 1.3,-2.46 -16.9,-8 -34.6,-15.13 -52.8,-21.32"
         style="fill:#e8a486;fill-opacity:1;fill-rule:nonzero;stroke:none;stroke-width:1.757"
         id="path168"
         inkscape:connector-curvature="0" />
    </g>
    <g
       id="g170"
       transform="matrix(0.02408531,0,0,-0.02408531,-286.04826,348.914)"
       style="stroke-width:1.757">
      <path
         d="m 16116.6,8109.62 c -36,0 -73,3.12 -110.5,9.6 -77.2,13.39 -147.8,39.67 -208.3,75.13 91.4,-13.69 186.6,-20.53 285.4,-20.53 60.6,0 122.6,2.56 186,7.7 9.6,0.78 19.2,1.68 28.7,2.73 l 0.5,-11.61 0.2,-3.47 0.5,-10.08 0.9,-20.36 c -55.9,-18.88 -118,-29.11 -183.4,-29.11"
         style="fill:#e8a486;fill-opacity:1;fill-rule:nonzero;stroke:none;stroke-width:1.757"
         id="path172"
         inkscape:connector-curvature="0" />
    </g>
    <g
       id="g174"
       transform="matrix(0.02522497,0,0,-0.02522497,-286.04826,348.914)"
       style="stroke-width:1.757">
      <path
         d="m 16071.5,7109.78 -281,715.72 462.5,159.46 c 46.1,-211.34 47,-585.5 -181.5,-875.18"
         style="fill:#1aa7d3;fill-opacity:1;fill-rule:nonzero;stroke:none;stroke-width:1.757"
         id="path176"
         inkscape:connector-curvature="0" />
    </g>
    <g
       id="g178"
       transform="matrix(0.02372611,0,0,-0.02372611,-286.04826,348.914)"
       style="stroke-width:1.757">
      <path
         d="m 16300,7632.28 c 0,-39.56 -32,-71.6 -71.6,-71.6 -39.5,0 -71.5,32.04 -71.5,71.6 0,39.52 32,71.56 71.5,71.56 39.6,0 71.6,-32.04 71.6,-71.56"
         style="fill:#ffffff;fill-opacity:1;fill-rule:nonzero;stroke:none;stroke-width:1.757"
         id="path180"
         inkscape:connector-curvature="0" />
    </g>
    <g
       id="g182"
       transform="matrix(0.02372611,0,0,-0.02372611,-286.04826,348.914)"
       style="stroke-width:1.757">
      <path
         d="m 16300,7270.86 c 0,-39.56 -32,-71.6 -71.6,-71.6 -39.5,0 -71.5,32.04 -71.5,71.6 0,39.52 32,71.56 71.5,71.56 39.6,0 71.6,-32.04 71.6,-71.56"
         style="fill:#ffffff;fill-opacity:1;fill-rule:nonzero;stroke:none;stroke-width:1.757"
         id="path184"
         inkscape:connector-curvature="0" />
    </g>
    <g
       id="g186"
       transform="matrix(0.02843591,0,0,-0.02843591,-286.04826,348.914)"
       style="stroke-width:1.757">
      <path
         d="m 15868.2,7621.95 c 210.7,41.44 387.6,41.82 431.8,-36.19 -110.4,-38.05 -594.7,-176.48 -891.5,-242.72 -36.1,-8.06 -93.2,177.93 -51,216.69 40.1,119.47 266.9,154.6 464.5,351.06 56.5,56.19 66.8,-8.86 59.1,-44.96 -14,-64.63 -82.4,-108.47 -145.1,-209.21 -44.2,-71.12 72.9,-46.29 132.2,-34.67"
         style="fill:#e0956c;fill-opacity:1;fill-rule:nonzero;stroke:none;stroke-width:1.757"
         id="path188"
         inkscape:connector-curvature="0" />
    </g>
    <g
       id="g190"
       transform="matrix(0.02849274,0,0,-0.02849274,-286.04826,348.914)"
       style="stroke-width:1.757">
      <path
         d="m 16300,7410.69 c -127.6,-20.97 -318,-53.16 -679.7,-121.62 -107.1,-20.26 -133.1,143.14 -91.3,152.02 216.4,45.97 710.3,143.09 771,-30.4"
         style="fill:#e0956c;fill-opacity:1;fill-rule:nonzero;stroke:none;stroke-width:1.757"
         id="path192"
         inkscape:connector-curvature="0" />
    </g>
    <g
       id="g194"
       transform="matrix(0.02837307,0,0,-0.02837307,-286.04826,348.914)"
       style="stroke-width:1.757">
      <path
         d="m 16300,7408.51 c -127,-27.23 -429.8,-79.94 -786.2,-140.57 -179.7,-30.57 -325.3,271.63 -109.6,373.23 129.5,60.95 350.4,-65.56 438.6,-149.97 212.7,15.4 421,1.31 457.2,-82.69"
         style="fill:#ffc19f;fill-opacity:1;fill-rule:nonzero;stroke:none;stroke-width:1.757"
         id="path196"
         inkscape:connector-curvature="0" />
    </g>
    <g
       id="g198"
       transform="matrix(0.04424424,0,0,-0.04424424,-553.34022,480.87562)"
       style="stroke-width:1.757">
      <path
         d="m 16300,7796.53 -214.8,191.88 -51,629.71 239.9,-168.27 25.9,-653.32"
         style="fill:#e50000;fill-opacity:1;fill-rule:nonzero;stroke:none;stroke-width:1.757"
         id="path200"
         inkscape:connector-curvature="0" />
    </g>
    <g
       id="g202"
       transform="matrix(0.04630036,0,0,-0.04630036,-553.34022,480.87562)"
       style="stroke-width:1.757">
      <path
         d="m 15576.2,7450.31 670,12.04 53.8,612.27 h -748.6 l 24.8,-624.31"
         style="fill:#f41919;fill-opacity:1;fill-rule:nonzero;stroke:none;stroke-width:1.757"
         id="path204"
         inkscape:connector-curvature="0" />
    </g>
    <g
       id="g206"
       transform="matrix(0.0453219,0,0,-0.0453219,-553.34022,480.87562)"
       style="stroke-width:1.757">
      <path
         d="m 16185.8,7615.85 92.2,1.77 22,633.82 -101.9,-2.58 -12.3,-633.01"
         style="fill:#f9a003;fill-opacity:1;fill-rule:nonzero;stroke:none;stroke-width:1.757"
         id="path208"
         inkscape:connector-curvature="0" />
    </g>
    <g
       id="g210"
       transform="matrix(0.04637907,0,0,-0.04637907,-553.34022,480.87562)"
       style="stroke-width:1.757">
      <path
         d="m 16300,8100.58 -227.5,156.4 H 15267 l 227.5,-156.4 h 805.5"
         style="fill:#ff4040;fill-opacity:1;fill-rule:nonzero;stroke:none;stroke-width:1.757"
         id="path212"
         inkscape:connector-curvature="0" />
    </g>
    <g
       id="g214"
       transform="matrix(0.04395318,0,0,-0.04395318,-553.34022,480.87562)"
       style="stroke-width:1.757">
      <path
         d="m 16300,7944.59 -48.5,46.09 -35.2,574.75 52.7,-39.55 31,-581.29"
         style="fill:#ed8700;fill-opacity:1;fill-rule:nonzero;stroke:none;stroke-width:1.757"
         id="path216"
         inkscape:connector-curvature="0" />
    </g>
    <g
       id="g218"
       transform="matrix(0.04355906,0,0,-0.04355906,-553.34022,480.87562)"
       style="stroke-width:1.757">
      <path
         d="m 16300,8586.27 -1.2,0.82 -10,135.32 0.2,-0.15 11,-135.99"
         style="fill:#d6d4d4;fill-opacity:1;fill-rule:nonzero;stroke:none;stroke-width:1.757"
         id="path220"
         inkscape:connector-curvature="0" />
    </g>
    <g
       id="g222"
       transform="matrix(0.04418439,0,0,-0.04418439,-553.34022,480.87562)"
       style="stroke-width:1.757">
      <path
         d="m 16300,8304.86 -110.9,76.83 -5.3,99.53 -52.4,39.35 6.3,-103.27 -68.4,47.43 -10.9,134.07 237.5,-167.04 4.1,-126.9"
         style="fill:#c00000;fill-opacity:1;fill-rule:nonzero;stroke:none;stroke-width:1.757"
         id="path224"
         inkscape:connector-curvature="0" />
    </g>
    <g
       id="g226"
       transform="matrix(0.04388391,0,0,-0.04388391,-553.34022,480.87562)"
       style="stroke-width:1.757">
      <path
         d="m 16300,8439.11 -51.7,35.85 -6.4,103.98 52.8,-39.61 5.3,-100.22"
         style="fill:#c77000;fill-opacity:1;fill-rule:nonzero;stroke:none;stroke-width:1.757"
         id="path228"
         inkscape:connector-curvature="0" />
    </g>
    <g
       id="g230"
       transform="matrix(0.04419056,0,0,-0.04419056,-553.34022,480.87562)"
       style="stroke-width:1.757">
      <path
         d="m 16300,8303.74 h -2.2 l -4.1,126.88 h 1.3 l 5,-126.88"
         style="fill:#c00000;fill-opacity:1;fill-rule:nonzero;stroke:none;stroke-width:1.757"
         id="path232"
         inkscape:connector-curvature="0" />
    </g>
    <g
       id="g234"
       transform="matrix(0.04628769,0,0,-0.04628769,-553.34022,480.87562)"
       style="stroke-width:1.757">
      <path
         d="m 16288.3,7927.52 h -333.7 l 4.3,121.13 h 341.1 l -11.7,-121.13 m -431,0 h -295.8 l -4.8,121.13 h 302.9 l -2.3,-121.13"
         style="fill:#cd1515;fill-opacity:1;fill-rule:nonzero;stroke:none;stroke-width:1.757"
         id="path236"
         inkscape:connector-curvature="0" />
    </g>
    <g
       id="g238"
       transform="matrix(0.04531896,0,0,-0.04531896,-553.34022,480.87562)"
       style="stroke-width:1.757">
      <path
         d="m 16295.7,8096.99 h -99.5 l 2.4,123.72 h 101.4 l -4.3,-123.72"
         style="fill:#d18502;fill-opacity:1;fill-rule:nonzero;stroke:none;stroke-width:1.757"
         id="path240"
         inkscape:connector-curvature="0" />
    </g>
    <g
       id="g242"
       transform="matrix(0.04637907,0,0,-0.04637907,-553.34022,480.87562)"
       style="stroke-width:1.757">
      <path
         d="m 15494.5,7979.78 h 805.5 v 120.8 h -805.5 v -120.8"
         style="fill:#f41919;fill-opacity:1;fill-rule:nonzero;stroke:none;stroke-width:1.757"
         id="path244"
         inkscape:connector-curvature="0" />
    </g>
    <g
       id="g246"
       transform="matrix(0.04408685,0,0,-0.04408685,-553.34022,480.87562)"
       style="stroke-width:1.757">
      <path
         d="m 16300,8394.65 -239.3,163.33 v 128.27 l 239.3,-164.52 v -127.08"
         style="fill:#e50000;fill-opacity:1;fill-rule:nonzero;stroke:none;stroke-width:1.757"
         id="path248"
         inkscape:connector-curvature="0" />
    </g>
    <g
       id="g250"
       transform="matrix(0.04534336,0,0,-0.04534336,-553.34022,480.87562)"
       style="stroke-width:1.757">
      <path
         d="m 16297.3,8161.03 h -103.4 v 124.69 h 106.1 l -2.7,-124.69"
         style="fill:#f9a003;fill-opacity:1;fill-rule:nonzero;stroke:none;stroke-width:1.757"
         id="path252"
         inkscape:connector-curvature="0" />
    </g>
    <g
       id="g254"
       transform="matrix(0.04604641,0,0,-0.04604641,-553.34022,480.87562)"
       style="stroke-width:1.757">
      <path
         d="m 16300,8242.27 -790,-16.83 -51.9,35.61 790.6,15.79 51.3,-34.57"
         style="fill:#ffbe3b;fill-opacity:1;fill-rule:nonzero;stroke:none;stroke-width:1.757"
         id="path256"
         inkscape:connector-curvature="0" />
    </g>
    <g
       id="g258"
       transform="matrix(0.04534336,0,0,-0.04534336,-553.34022,480.87562)"
       style="stroke-width:1.757">
      <path
         d="m 16300,8285.72 h -106.1 l -170.1,161.54 h 106.2 l 170,-161.54"
         style="fill:#ffbe3b;fill-opacity:1;fill-rule:nonzero;stroke:none;stroke-width:1.757"
         id="path260"
         inkscape:connector-curvature="0" />
    </g>
    <g
       id="g262"
       transform="matrix(0.04380849,0,0,-0.04380849,-553.34022,480.87562)"
       style="stroke-width:1.757">
      <path
         d="m 16298.7,8518.2 -51,35.18 v 129.66 l 52.3,-36.3 -1.3,-128.54"
         style="fill:#ed8700;fill-opacity:1;fill-rule:nonzero;stroke:none;stroke-width:1.757"
         id="path264"
         inkscape:connector-curvature="0" />
    </g>
    <g
       id="g266"
       transform="matrix(0.04483444,0,0,-0.04483444,-553.34022,480.87562)"
       style="stroke-width:1.757">
      <path
         d="m 15984.6,8924.04 c 0.6,3.6 154.1,111.55 158.9,111.98 -46.6,-32.98 -55.4,-102.36 -26.8,-182.38 70.9,-198.99 183.3,-333.37 183.3,-333.37 0,0 -170.9,84.12 -282,256.19 -32.1,49.76 -42.4,97.64 -33.4,147.58"
         style="fill:#e28014;fill-opacity:1;fill-rule:nonzero;stroke:none;stroke-width:1.757"
         id="path268"
         inkscape:connector-curvature="0" />
    </g>
    <g
       id="g270"
       transform="matrix(0.04514369,0,0,-0.04514369,-553.34022,480.87562)"
       style="stroke-width:1.757">
      <path
         d="m 16126.1,8648.77 c -40.6,133.27 -128.1,274.93 -251,214.14 -1.5,39.93 203,169.12 291.1,148 77.5,-18.6 133.8,-106.33 133.4,-235.57 -0.5,-133.35 -83.7,-360.29 -83.7,-360.29 l -29.1,11.17 c -20.4,75.97 -39.2,151.91 -60.7,222.55"
         style="fill:#ffbe3b;fill-opacity:1;fill-rule:nonzero;stroke:none;stroke-width:1.757"
         id="path272"
         inkscape:connector-curvature="0" />
    </g>
    <g
       id="g274"
       transform="matrix(0.04489167,0,0,-0.04489167,-553.34022,480.87562)"
       style="stroke-width:1.757">
      <path
         d="m 15600,8761.78 c 2.1,4.61 6.5,9.45 9.5,14.18 1.8,-71.6 41.8,-144.96 151.7,-188.9 273.2,-109.27 536.2,-119.32 536.2,-119.32 0,0 -0.1,1.8 -0.2,4.74 1.6,-3.84 2.8,-6.55 2.8,-6.55 0,0 -232.5,-42.59 -506.7,1.33 -205,32.85 -237.1,203.11 -193.3,294.52"
         style="fill:#e28014;fill-opacity:1;fill-rule:nonzero;stroke:none;stroke-width:1.757"
         id="path276"
         inkscape:connector-curvature="0" />
    </g>
    <g
       id="g278"
       transform="matrix(0.04488777,0,0,-0.04488777,-553.34022,480.87562)"
       style="stroke-width:1.757">
      <path
         d="m 15955.4,8648.46 c -199.3,101.75 -262.6,37.07 -296.2,-51.05 -7,-18.2 -9.6,-39.77 -9.5,-62.21 -71.2,67.1 -102.6,171.21 -72.8,233.46 41.7,87.02 158.2,182.67 250,142.92 345.2,-149.48 473.1,-451.64 473.1,-451.64 l -46.1,-4.36 c -98.1,54.37 -191.7,138.32 -298.5,192.88"
         style="fill:#ffbe3b;fill-opacity:1;fill-rule:nonzero;stroke:none;stroke-width:1.757"
         id="path280"
         inkscape:connector-curvature="0" />
    </g>
    <g
       id="g282"
       transform="matrix(0.0468366,0,0,-0.0468366,-553.34022,480.87562)"
       style="stroke-width:1.757">
      <path
         d="m 16257.8,8452.64 c -2.2,5.2 -6.3,10.66 -9.2,16 -0.9,-81.36 -37.7,-165.09 -140.7,-216.2 -256.1,-127.09 -503.7,-141.38 -503.7,-141.38 0,0 0,2.04 0.1,5.38 -1.5,-4.36 -2.6,-7.47 -2.6,-7.47 0,0 219.4,-45.8 477.2,7.1 192.7,39.53 221.1,233.24 178.9,336.57"
         style="fill:#e28014;fill-opacity:1;fill-rule:nonzero;stroke:none;stroke-width:1.757"
         id="path284"
         inkscape:connector-curvature="0" />
    </g>
    <g
       id="g286"
       transform="matrix(0.04678197,0,0,-0.04678197,-553.34022,480.87562)"
       style="stroke-width:1.757">
      <path
         d="m 15919.6,8380.46 c 147.5,93.97 271.8,-6.47 304.4,-106.29 6.8,-20.61 9.5,-45.1 9.7,-70.62 66.3,77.05 66,183.76 53,257.18 -22.6,128.31 -183.4,275.07 -323.7,175.94 -176.6,-124.89 -343,-518.23 -343,-518.23 l 43.6,-4.45 c 87.1,91.19 156.2,202.86 256,266.47"
         style="fill:#ffbe3b;fill-opacity:1;fill-rule:nonzero;stroke:none;stroke-width:1.757"
         id="path288"
         inkscape:connector-curvature="0" />
    </g>
    <g
       id="g290"
       transform="matrix(0.02578315,0,0,-0.02578315,-286.04826,348.914)"
       style="stroke-width:1.757">
      <path
         d="m 16298.1,8966.6 c 1.9,-284.49 -187.2,-514.53 -365.1,-534.84 -178,-20.25 -262.7,190.67 -293,457.06 -30.4,266.36 89.3,499.4 267.4,518.96 243.3,26.78 389.1,-173.77 390.7,-441.18"
         style="fill:#f4b18c;fill-opacity:1;fill-rule:nonzero;stroke:none;stroke-width:1.757"
         id="path292"
         inkscape:connector-curvature="0" />
    </g>
    <g
       id="g294"
       transform="matrix(0.02575183,0,0,-0.02575183,-286.04826,348.914)"
       style="stroke-width:1.757">
      <path
         d="m 16147,9756.77 c 153,-944.82 -387.9,-1463.93 -1265.9,-1583.95 -878,-120.04 -1687,152.81 -1816.7,1101.11 -129.6,948.27 551.4,1388.27 1395,1490.07 1027.3,123.9 1550.3,-159.4 1687.6,-1007.23"
         style="fill:#ad5c49;fill-opacity:1;fill-rule:nonzero;stroke:none;stroke-width:1.757"
         id="path296"
         inkscape:connector-curvature="0" />
    </g>
    <g
       id="g298"
       transform="matrix(0.02556831,0,0,-0.02556831,-286.04826,348.914)"
       style="stroke-width:1.757">
      <path
         d="m 16236.5,8541.98 c -129.5,-509.38 -503,-801.99 -910.9,-834.99 -884.8,-71.59 -1477.8,385.96 -1798,1397.38 -340.9,1077.33 415.1,1227.03 1195.1,1333.63 520.9,71.2 956.9,120.2 1219.5,-197.1 162.1,-195.7 357.8,-1449.48 294.3,-1698.92"
         style="fill:#fcc1a0;fill-opacity:1;fill-rule:nonzero;stroke:none;stroke-width:1.757"
         id="path300"
         inkscape:connector-curvature="0" />
    </g>
    <g
       id="g302"
       transform="matrix(0.02528942,0,0,-0.02528942,-286.04826,348.914)"
       style="stroke-width:1.757">
      <path
         d="m 15701.1,9310.85 c -60.7,-152.98 -24.9,-304.45 58.1,-350.44 124.9,-69.3 390.3,-50.85 466.8,92.13 74,138.51 -8.8,354.71 -178.6,425.38 -148.8,61.85 -287.5,-19.01 -346.3,-167.07"
         style="fill:#f9fdff;fill-opacity:1;fill-rule:nonzero;stroke:none;stroke-width:1.757"
         id="path304"
         inkscape:connector-curvature="0" />
    </g>
    <g
       id="g306"
       transform="matrix(0.02528279,0,0,-0.02528279,-286.04826,348.914)"
       style="stroke-width:1.757">
      <path
         d="m 16185.6,9433.2 c -155.7,195.63 -432,74.59 -482.3,-125.07 60.6,152.93 208.3,221.04 345.8,163.91 85,-35.36 154,-112.03 184.5,-205.04 24.3,-74.16 23.1,-162.11 -7.6,-219.64 39.6,40.83 74,241.99 -40.4,385.84"
         style="fill:#843923;fill-opacity:1;fill-rule:nonzero;stroke:none;stroke-width:1.757"
         id="path308"
         inkscape:connector-curvature="0" />
    </g>
    <g
       id="g310"
       transform="matrix(0.02498503,0,0,-0.02498503,-286.04826,348.914)"
       style="stroke-width:1.757">
      <path
         d="m 15948.4,9338.34 c -18.5,-103.28 40.9,-207.47 132.9,-232.69 91.9,-25.25 181.5,38.01 200.1,141.29 18.6,103.29 -40.9,207.48 -132.9,232.71 -91.9,25.25 -181.5,-38.03 -200.1,-141.31"
         style="fill:#461d14;fill-opacity:1;fill-rule:nonzero;stroke:none;stroke-width:1.757"
         id="path312"
         inkscape:connector-curvature="0" />
    </g>
    <g
       id="g314"
       transform="matrix(0.02461237,0,0,-0.02461237,-286.04826,348.914)"
       style="stroke-width:1.757">
      <path
         d="m 16201,9499.1 c -5.3,-29.09 11.5,-58.43 37.4,-65.55 25.9,-7.09 51.1,10.72 56.3,39.82 5.3,29.07 -11.5,58.42 -37.4,65.53 -25.9,7.1 -51.1,-10.71 -56.3,-39.8"
         style="fill:#fefffe;fill-opacity:1;fill-rule:nonzero;stroke:none;stroke-width:1.757"
         id="path316"
         inkscape:connector-curvature="0" />
    </g>
    <g
       id="g318"
       transform="matrix(0.02352311,0,0,-0.02352311,-286.04826,348.914)"
       style="stroke-width:1.757">
      <path
         d="m 16162.1,9895.51 c 125.6,-134.02 137.9,-301.03 57.3,-377.58 -121.4,-115.32 -438.3,-191.56 -578.7,-73.34 -136,114.49 -116.5,364.26 56.9,497.02 151.8,116.29 342.9,83.59 464.5,-46.1"
         style="fill:#f9fdff;fill-opacity:1;fill-rule:nonzero;stroke:none;stroke-width:1.757"
         id="path320"
         inkscape:connector-curvature="0" />
    </g>
    <g
       id="g322"
       transform="matrix(0.02333036,0,0,-0.02333036,-286.04826,348.914)"
       style="stroke-width:1.757">
      <path
         d="m 15686.6,9927.01 c 113,256.99 482.1,232.39 613.4,45.72 -126.6,135.07 -325.2,151.67 -466.7,43.37 -87.5,-66.95 -141.1,-170.51 -143.6,-277 -1.9,-84.87 31.2,-174.68 88.1,-222.63 -61.4,27.58 -174.4,221.6 -91.2,410.54"
         style="fill:#843923;fill-opacity:1;fill-rule:nonzero;stroke:none;stroke-width:1.757"
         id="path324"
         inkscape:connector-curvature="0" />
    </g>
    <g
       id="g326"
       transform="matrix(0.02327836,0,0,-0.02327836,-286.04826,348.914)"
       style="stroke-width:1.757">
      <path
         d="m 15870.6,9828.51 c -25,-111.64 45.1,-222.47 156.8,-247.52 111.7,-25.07 222.5,45.13 247.6,156.78 25,111.66 -45.2,222.48 -156.8,247.54 -111.6,25.09 -222.5,-45.15 -247.6,-156.8"
         style="fill:#461d14;fill-opacity:1;fill-rule:nonzero;stroke:none;stroke-width:1.757"
         id="path328"
         inkscape:connector-curvature="0" />
    </g>
    <g
       id="g330"
       transform="matrix(0.02285491,0,0,-0.02285491,-286.04826,348.914)"
       style="stroke-width:1.757">
      <path
         d="m 16178.7,10031.8 c -7.1,-31.6 12.7,-62.88 44.3,-69.97 31.5,-7.06 62.8,12.76 69.9,44.27 7.1,31.6 -12.8,62.9 -44.3,70 -31.5,7.1 -62.9,-12.8 -69.9,-44.3"
         style="fill:#fefffe;fill-opacity:1;fill-rule:nonzero;stroke:none;stroke-width:1.757"
         id="path332"
         inkscape:connector-curvature="0" />
    </g>
    <g
       id="g334"
       transform="matrix(0.02509205,0,0,-0.02509205,-286.04826,348.914)"
       style="stroke-width:1.757">
      <path
         d="m 16248.2,9904.89 c -12.5,-2.3 -26,-0.17 -37.7,7.01 -91.8,56.21 -246,47.89 -359.1,-19.43 -25.3,-15.25 -58.5,-6.77 -73.8,18.73 -15.2,25.51 -6.7,58.6 18.8,73.8 147,87.7 344.8,95.3 470.2,18.8 25.4,-15.58 33.4,-48.73 17.9,-74.06 -8.3,-13.63 -21.7,-22.2 -36.3,-24.85"
         style="fill:#5d1f12;fill-opacity:1;fill-rule:nonzero;stroke:none;stroke-width:1.757"
         id="path336"
         inkscape:connector-curvature="0" />
    </g>
    <g
       id="g338"
       transform="matrix(0.02308761,0,0,-0.02308761,-286.04826,348.914)"
       style="stroke-width:1.757">
      <path
         d="m 15769.2,10435.5 c -17.4,-3 -36,1 -51,12.8 -27.8,22 -32.6,62.4 -10.7,90.3 108.6,137.7 333.2,211 534.5,173.9 34.9,-6.5 58,-39.9 51.6,-74.9 -6.4,-34.8 -40.2,-57.9 -74.9,-51.6 -154.6,28.8 -330.7,-26.1 -410.1,-127 -10.3,-12.9 -24.5,-20.8 -39.4,-23.5"
         style="fill:#5d1f12;fill-opacity:1;fill-rule:nonzero;stroke:none;stroke-width:1.757"
         id="path340"
         inkscape:connector-curvature="0" />
    </g>
    <g
       id="g342"
       transform="matrix(0.02480131,0,0,-0.02480131,-286.04826,348.914)"
       style="stroke-width:1.757">
      <path
         d="m 16237.3,8791.25 c -32.5,101.57 -189.1,55.27 -450.4,25.39 -13.7,-1.57 -66.8,-8.01 -80.5,-9.74 -260.8,-33.37 -423.9,-25.8 -431.2,-132.21 -14.2,-205 264.4,-393.26 529.6,-361.95 l 4.6,0.56 c 265.1,32.92 490.6,282.27 427.9,477.95"
         style="fill:#6f1911;fill-opacity:1;fill-rule:nonzero;stroke:none;stroke-width:1.757"
         id="path344"
         inkscape:connector-curvature="0" />
    </g>
    <g
       id="g346"
       transform="matrix(0.02444492,0,0,-0.02444492,-286.04826,348.914)"
       style="stroke-width:1.757">
      <path
         d="m 16041.8,8430.46 -4.6,-0.58 c -87.4,-10.24 -180.8,3.54 -270.6,39.62 l -5.5,2.12 3.9,4.38 c 62.3,71.13 152.2,117.09 253.4,129.32 100.8,12.23 199.1,-10.91 276.8,-65.1 l 4.8,-3.32 -4.8,-3.35 c -78.7,-56.49 -166.4,-92.22 -253.4,-103.09"
         style="fill:#dd6b5b;fill-opacity:1;fill-rule:nonzero;stroke:none;stroke-width:1.757"
         id="path348"
         inkscape:connector-curvature="0" />
    </g>
    <g
       id="g350"
       transform="matrix(0.02450033,0,0,-0.02450033,-286.04826,348.914)"
       style="stroke-width:1.757">
      <path
         d="m 15957.9,8784.92 c -184.7,-22.37 -345.4,16.22 -373.8,89.89 l -1.7,4.52 717.6,86.94 -0.6,-4.78 c -10.1,-78.35 -157,-154.21 -341.5,-176.57"
         style="fill:#ffffff;fill-opacity:1;fill-rule:nonzero;stroke:none;stroke-width:1.757"
         id="path352-6"
         inkscape:connector-curvature="0" />
    </g>
    <g
       id="g354"
       transform="matrix(0.02419053,0,0,-0.02419053,-286.04826,348.914)"
       style="stroke-width:1.757">
      <path
         d="m 16286.2,9185.27 c -6.7,-0.92 -13.3,3.11 -15.3,9.76 -14.7,47.35 -57.2,73.43 -108.5,66.42 -51.6,-7.04 -86.3,-44.32 -86.7,-92.76 0,-7.76 -6.4,-14.05 -14.1,-13.98 -7.8,0.06 -14,6.38 -14,14.16 0.4,62.04 46.1,111.57 111,120.45 64.5,8.84 120.5,-25.71 139.2,-85.95 2.2,-7.42 -1.9,-15.3 -9.3,-17.61 l -2.3,-0.49"
         style="fill:#c4735b;fill-opacity:1;fill-rule:nonzero;stroke:none;stroke-width:1.757"
         id="path356"
         inkscape:connector-curvature="0" />
    </g>
    <g
       id="g358"
       transform="matrix(0.02202968,0,0,-0.02202968,-286.04826,348.914)"
       style="stroke-width:1.757">
      <path
         d="m 16221.4,10454.6 c 55.6,-312.9 -52.3,-586.44 -283.3,-617.36 -231.1,-30.93 -511.7,643.36 -584.6,1187.96 -83.5,623.6 301.8,1118.7 946.5,789.6 -510.1,-403.1 -162.5,-887.5 -78.6,-1360.2"
         style="fill:#ad5c49;fill-opacity:1;fill-rule:nonzero;stroke:none;stroke-width:1.757"
         id="path360"
         inkscape:connector-curvature="0" />
    </g>
    <g
       id="g362"
       transform="matrix(0.0223662,0,0,-0.0223662,-286.04826,348.914)"
       style="stroke-width:1.757">
      <path
         d="m 15273.9,9633.92 c 152.9,-331.32 530.1,-488.81 778.1,-409.11 248,79.7 31.9,1106.89 -442.4,1114.39 -395,6.3 -479.4,-393.89 -335.7,-705.28"
         style="fill:#fcc1a0;fill-opacity:1;fill-rule:nonzero;stroke:none;stroke-width:1.757"
         id="path364"
         inkscape:connector-curvature="0" />
    </g>
    <g
       id="g366"
       transform="matrix(0.02192647,0,0,-0.02192647,-286.04826,348.914)"
       style="stroke-width:1.757">
      <path
         d="m 15896.6,9850.56 c 47,-146.18 237.5,-242.71 356.9,-178.82 46.5,24.92 -129.7,532.46 -208.5,518.46 -133.4,-23.6 -195.3,-193.47 -148.4,-339.64"
         style="fill:#e0956c;fill-opacity:1;fill-rule:nonzero;stroke:none;stroke-width:1.757"
         id="path368"
         inkscape:connector-curvature="0" />
    </g>
    <g
       id="g370"
       transform="matrix(0.02291072,0,0,-0.02291072,-286.04826,348.914)"
       style="stroke-width:1.757">
      <path
         d="m 15866.5,9391.54 c 7.5,-68.62 109,-113.82 226.6,-100.93 117.6,12.89 206.9,78.95 199.5,147.59 -7.6,68.6 -109.1,113.79 -226.7,100.93 -117.7,-12.89 -206.9,-78.97 -199.4,-147.59"
         style="fill:#f69597;fill-opacity:1;fill-rule:nonzero;stroke:none;stroke-width:1.757"
         id="path372"
         inkscape:connector-curvature="0" />
    </g>
    <g
       id="g374"
       transform="matrix(0.02533439,0,0,-0.02533439,-286.04826,348.914)"
       style="stroke-width:1.757">
      <path
         d="m 15993.6,8749.18 c 11.5,-54.33 86.8,-84.41 168.3,-67.23 81.4,17.2 138.1,75.16 126.7,129.48 -11.5,54.32 -86.9,84.41 -168.3,67.24 -81.4,-17.2 -138.1,-75.18 -126.7,-129.49"
         style="fill:#f69597;fill-opacity:1;fill-rule:nonzero;stroke:none;stroke-width:1.757"
         id="path376"
         inkscape:connector-curvature="0" />
    </g>
    <g
       id="g378"
       transform="matrix(0.02545486,0,0,-0.02545486,-286.04826,348.914)"
       style="stroke-width:1.757">
      <path
         d="m 13793.5,9781.21 c -118.7,-5.7 -240.4,-8.81 -358.6,-28.33 -15.3,125.13 -15.3,236.83 14.1,310.42 398.6,501.1 1787.9,745.8 2273.1,596.5 362.1,-111.3 577.9,-736.26 577.9,-736.26 -158.6,64.4 -468.9,96.06 -788.1,72.14 -63.1,67.92 -137.8,293.42 -137.8,293.42 0,0 -11.6,-209.8 46.1,-301.79 -151.6,-26.33 -562.6,-113.93 -748.6,-152.1 -65.2,72.65 -133,267.79 -133,267.79 0,0 -2.7,-198.36 37.4,-290.7 -42.2,-12.38 -160.6,-27.92 -213,-36.1 -215.2,71.04 -249,309.4 -425.4,299 -126.8,-31.5 -148.6,-144.61 -144.1,-293.99"
         style="fill:#ad5c49;fill-opacity:1;fill-rule:nonzero;stroke:none;stroke-width:1.757"
         id="path380"
         inkscape:connector-curvature="0" />
    </g>
    <g
       id="g382"
       transform="matrix(0.02501595,0,0,-0.02501595,-286.04826,348.914)"
       style="stroke-width:1.757">
      <path
         d="m 13790.9,10028.1 c 61.3,506.1 411.8,948.7 1089.1,1089.5 526.8,109.6 1121.7,-32.6 1420,-340.2 -388,225.1 -931.7,203.5 -1336.9,134.8 -411.9,-69.8 -958.3,-486.7 -1172.2,-884.1"
         style="fill:#ee4579;fill-opacity:1;fill-rule:nonzero;stroke:none;stroke-width:1.757"
         id="path384"
         inkscape:connector-curvature="0" />
    </g>
    <g
       id="g386"
       transform="matrix(0.02153956,0,0,-0.02153956,-286.04826,348.914)"
       style="stroke-width:1.757">
      <path
         d="m 16192,12038.7 c 108,-348.7 -500.4,-885.5 -1104.1,-476.3 391.2,622.1 729.9,612.2 1104.1,476.3"
         style="fill:#ee4579;fill-opacity:1;fill-rule:nonzero;stroke:none;stroke-width:1.757"
         id="path388"
         inkscape:connector-curvature="0" />
    </g>
    <g
       id="g390"
       transform="matrix(0.02138154,0,0,-0.02138154,-286.04826,348.914)"
       style="stroke-width:1.757">
      <path
         d="m 15997.2,11840.5 c -77.3,0 -163.2,20.7 -245,65.7 109.9,159.1 305.3,235.6 414.8,235.6 41.6,0 70.9,-11.1 78.2,-32.9 54.8,-164.7 -75,-268.4 -248,-268.4"
         style="fill:#ca3563;fill-opacity:1;fill-rule:nonzero;stroke:none;stroke-width:1.757"
         id="path392"
         inkscape:connector-curvature="0" />
    </g>
    <g
       id="g394"
       transform="matrix(0.02245695,0,0,-0.02245695,-286.04826,348.914)"
       style="stroke-width:1.757">
      <path
         d="m 15427.1,11617.5 c 432.6,-113.3 872.9,501.5 86.2,980.7 -145.7,-564.3 -282.5,-744.8 -86.2,-980.7"
         style="fill:#ee4579;fill-opacity:1;fill-rule:nonzero;stroke:none;stroke-width:1.757"
         id="path396"
         inkscape:connector-curvature="0" />
    </g>
    <g
       id="g398"
       transform="matrix(0.02170441,0,0,-0.02170441,-286.04826,348.914)"
       style="stroke-width:1.757">
      <path
         d="m 16089.6,12061.4 c -14,0 -28.9,1.7 -45,5.3 -72.1,109.7 133.2,265.2 149.3,479.7 88.7,-102.3 106.1,-485 -104.3,-485"
         style="fill:#ca3563;fill-opacity:1;fill-rule:nonzero;stroke:none;stroke-width:1.757"
         id="path400"
         inkscape:connector-curvature="0" />
    </g>
    <g
       id="g402"
       transform="matrix(0.0216265,0,0,-0.0216265,-286.04826,348.914)"
       style="stroke-width:1.757">
      <path
         d="m 16254.6,11944.4 c -45.4,-76.8 -148.7,-102.4 -230.8,-57.2 -82.1,45.2 -111.8,144.1 -66.4,220.9 45.4,76.7 148.7,102.3 230.8,57.1 82.1,-45.2 111.8,-144.1 66.4,-220.8"
         style="fill:#ee4579;fill-opacity:1;fill-rule:nonzero;stroke:none;stroke-width:1.757"
         id="path404"
         inkscape:connector-curvature="0" />
    </g>
    <g
       id="g406"
       transform="matrix(0.02302115,0,0,-0.02302115,-286.04826,348.914)"
       style="stroke-width:1.757">
      <path
         d="m 16298,7976.35 c -2.1,-41.75 -53.9,-73.11 -115.7,-70.02 -61.9,3.07 -110.4,39.41 -108.3,81.15 2.1,41.75 53.9,73.1 115.8,70.03 61.8,-3.07 110.2,-39.42 108.2,-81.16"
         style="fill:#e4a78e;fill-opacity:1;fill-rule:nonzero;stroke:none;stroke-width:1.757"
         id="path408"
         inkscape:connector-curvature="0" />
    </g>
    <g
       id="g410"
       transform="matrix(0.02303541,0,0,-0.02303541,-286.04826,348.914)"
       style="stroke-width:1.757">
      <path
         d="m 16227,8214.75 c -25.5,8.64 -115.1,8.01 -183.2,-1.62 165,77.39 232.4,-35.9 243.5,-3.16 11.6,34.3 -18.1,110.76 -63.9,126.27 -32.4,10.94 -156.4,12.11 -230.8,-0.14 121.7,72.56 227.6,2.05 228.7,35.72 1.2,36.18 -40.8,82.43 -88,92.7 -65.6,14.21 -279.6,-47.5 -304.2,-88.71 -28.4,-47.21 -59.4,-243.42 -60.9,-409.1 -1.6,-192.69 33.6,-401.87 153.6,-407.84 240.7,-11.93 154.5,222.18 132.1,372.33 170.4,104.78 210.5,27.07 228.2,16.97 17.9,31.49 1.3,118.84 -74.1,143.88 -19.7,6.54 -77.4,7.68 -133.9,3.48 142.2,66.22 197.5,-35.73 208.1,-4.11 11.6,34.27 -13.5,109.25 -55.2,123.33"
         style="fill:#ffc19f;fill-opacity:1;fill-rule:nonzero;stroke:none;stroke-width:1.757"
         id="path412"
         inkscape:connector-curvature="0" />
    </g>
    <g
       id="g414"
       transform="matrix(0.02268364,0,0,-0.02268364,-286.04826,348.914)"
       style="stroke-width:1.757">
      <path
         d="m 16267.2,7793 c -210,-298.56 -430.5,-503.64 -648.5,-637.87 -309.8,-190.71 -506.6,306.04 -220.1,482.19 211.9,101.55 442.2,208.79 663.4,393.25 42.6,35.55 238,-190.89 205.2,-237.57"
         style="fill:#ffc19f;fill-opacity:1;fill-rule:nonzero;stroke:none;stroke-width:1.757"
         id="path416"
         inkscape:connector-curvature="0" />
    </g>
    <path
       d="m 232.71151,215.09897 c 0,24.23142 -19.64432,43.87575 -43.87597,43.87575 -24.23176,0 -43.87541,-19.64433 -43.87541,-43.87575 0,-24.23176 19.64365,-43.87529 43.87541,-43.87529 24.23165,0 43.87597,19.64353 43.87597,43.87529"
       style="fill:#ff2e2e;fill-opacity:1;fill-rule:nonzero;stroke:none;stroke-width:0.019931"
       id="path518"
       inkscape:connector-curvature="0" />
    <path
       d="m 188.83554,258.97472 c -0.0108,0 -0.0226,0 -0.0334,0 0.0118,0 0.0216,0 0.0334,0 24.23165,0 43.87597,-19.64433 43.87597,-43.87575 v 0 c 0,24.23142 -19.64432,43.87575 -43.87597,43.87575 m -0.0487,0 c -0.007,0 -0.0122,0 -0.0189,0 0.006,0 0.0129,0 0.0189,0 m -0.0351,0 c -0.005,0 -0.0122,0 -0.0176,0 0.006,0 0.0117,0 0.0176,0 m -0.0339,0 c -0.005,0 -0.0124,0 -0.0178,0 0.006,0 0.012,0 0.0178,0 m -0.0347,0 c -0.005,0 -0.0114,0 -0.0167,0 0.006,0 0.0109,0 0.0167,0 m -0.0337,0 c -0.005,-8.8e-4 -0.0113,-8.8e-4 -0.0167,-8.8e-4 0.006,0 0.0108,0 0.0167,8.8e-4 m -0.0347,-8.8e-4 c -0.004,0 -0.0114,0 -0.0154,0 0.004,0 0.0111,0 0.0154,0 m -0.0335,0 c -0.004,0 -0.0105,0 -0.0146,0 0.006,0 0.009,0 0.0146,0 m -0.0354,0 c -0.003,0 -0.005,0 -0.008,0 0.003,0 0.004,0 0.008,0 m -0.0337,0 h -5.7e-4 5.7e-4 m -0.1929,-0.003 h -0.002 0.002"
       style="fill:#e8d8d6;fill-opacity:1;fill-rule:nonzero;stroke:none;stroke-width:0.019931"
       id="path520"
       inkscape:connector-curvature="0" />
    <path
       d="m 197.81447,179.64461 c -2.4976,0 -4.52196,-0.97742 -4.52196,-2.18283 0,-1.2054 2.02436,-2.18283 4.52196,-2.18283 2.4966,0 4.52142,0.97743 4.52142,2.18283 0,1.20541 -2.02482,2.18283 -4.52142,2.18283"
       style="fill:#ff5e5e;fill-opacity:1;fill-rule:nonzero;stroke:none;stroke-width:0.019931"
       id="path526"
       inkscape:connector-curvature="0" />
    <path
       d="m 220.44716,170.05829 c -0.0762,-0.5051 -0.54981,-0.84711 -1.05491,-0.7787 l -8.26328,1.25224 c -0.50508,0.0762 -0.85236,0.5472 -0.77605,1.05493 0.0527,0.34991 0.29463,0.62349 0.60508,0.73399 0.13938,0.0473 0.29201,0.0657 0.44722,0.0448 l 8.26324,-1.25222 c 0.5051,-0.0762 0.85504,-0.54722 0.7787,-1.05496 z m -20.79884,-13.22223 c -0.0972,-0.50773 -0.58663,-0.83396 -1.08122,-0.73399 -0.50249,0.0946 -0.83136,0.58141 -0.73665,1.08385 l 1.57059,8.21066 c 0.066,0.33147 0.29989,0.58927 0.5998,0.69714 0.14988,0.0527 0.3157,0.0683 0.48406,0.0368 0.50247,-0.0972 0.83133,-0.58141 0.73663,-1.08388 z m 12.31463,3.2674 c 0.23146,-0.45513 0.0499,-1.0102 -0.40249,-1.24434 -0.45515,-0.2184 -1.01286,-0.0527 -1.247,0.40513 l -3.80672,7.44245 c -0.23145,0.45247 -0.0527,1.00756 0.40252,1.24436 l 0.11328,0.0473 c 0.43145,0.15268 0.91811,-0.0343 1.13386,-0.45251 l 3.80672,-7.44242"
       style="fill:#b5b5b5;fill-opacity:1;fill-rule:nonzero;stroke:none;stroke-width:0.0464567"
       id="path622"
       inkscape:connector-curvature="0" />
    <path
       d="m 220.87144,68.968961 c -0.0806,-0.534453 -0.58175,-0.896337 -1.11621,-0.82395 l -8.74347,1.325008 c -0.53443,0.08065 -0.90188,0.578995 -0.82114,1.116235 0.0557,0.370245 0.31175,0.659717 0.64024,0.776646 0.14748,0.05007 0.30898,0.06955 0.47321,0.04735 l 8.74342,-1.324984 c 0.53445,-0.08065 0.90472,-0.579019 0.82395,-1.116259 z M 198.86397,54.978383 c -0.10284,-0.53724 -0.62072,-0.882427 -1.14405,-0.776646 -0.53169,0.100133 -0.87967,0.6152 -0.77946,1.146841 l 1.66186,8.687781 c 0.0698,0.350736 0.31732,0.623511 0.63466,0.737653 0.15859,0.05574 0.33404,0.07226 0.51218,0.03897 0.53167,-0.102846 0.87964,-0.6152 0.77944,-1.146866 z m 13.03024,3.45727 c 0.24491,-0.481574 0.0528,-1.068905 -0.42588,-1.316648 -0.4816,-0.231094 -1.07172,-0.05574 -1.31946,0.428672 l -4.02793,7.874929 c -0.24491,0.478763 -0.0557,1.066119 0.42591,1.316673 l 0.11986,0.05007 c 0.45652,0.161545 0.97146,-0.03625 1.19975,-0.478812 l 4.02793,-7.874904"
       style="fill:#b5b5b5;fill-opacity:1;fill-rule:nonzero;stroke:none;stroke-width:0.0491563"
       id="path622-3"
       inkscape:connector-curvature="0" />
  </g>
</svg>
