<svg id="Layer_1" enable-background="new 0 0 497 497" height="512" viewBox="0 0 497 497" width="512" xmlns="http://www.w3.org/2000/svg"><g><path d="m249.162 438h217v-32.325c-87.662 0-159.161-94.508-217-20z" fill="#f0f5fa"/><path d="m249.205 438h-217v-32.325c87.662 0 159.161-94.508 217-20z" fill="#e4ecf2"/><path d="m387.8 0h-278.6c-11.221 0-20.317 9.096-20.317 20.317v192.046c0 11.221 9.096 20.317 20.317 20.317h91.266c7.259 0 13.966 3.872 17.595 10.158l30.439 52.722 30.439-52.722c3.629-6.286 10.336-10.158 17.595-10.158h91.266c11.221 0 20.317-9.096 20.317-20.317v-192.046c0-11.221-9.096-20.317-20.317-20.317z" fill="#ffe8d9"/><g><path d="m387.8 0h-40c11.221 0 20.317 9.096 20.317 20.317v192.046c0 11.221-9.096 20.317-20.317 20.317h40c11.221 0 20.317-9.096 20.317-20.317v-192.046c0-11.221-9.096-20.317-20.317-20.317z" fill="#ffddc7"/></g><g><path d="m482.5 438h-468c-8.008 0-14.5 6.492-14.5 14.5s6.492 14.5 14.5 14.5h218.88c2.434-5.962 8.282-10.167 15.12-10.167s12.685 4.205 15.12 10.167h218.88c8.008 0 14.5-6.492 14.5-14.5s-6.492-14.5-14.5-14.5z" fill="#677a8f"/></g><g><path d="m482.5 438h-40c8.008 0 14.5 6.492 14.5 14.5s-6.492 14.5-14.5 14.5h40c8.008 0 14.5-6.492 14.5-14.5s-6.492-14.5-14.5-14.5z" fill="#5c6d80"/></g><path d="m368.794 361.78v135.22l40.232-22.5v-95.882z" fill="#fc435f"/><g fill="#677a8f"><path d="m182.045 76.23c-.026-.07-.054-.14-.082-.208-1.448-3.516-4.838-5.786-8.64-5.786-.004 0-.008 0-.012 0-3.805.005-7.195 2.284-8.636 5.806-.023.057-.046.113-.067.17l-30.539 80.185c-1.475 3.871.469 8.204 4.34 9.678 3.866 1.475 8.203-.468 9.678-4.339l5.766-15.14h38.715l5.706 15.118c1.133 3.003 3.987 4.854 7.018 4.854.88 0 1.775-.156 2.647-.485 3.875-1.462 5.831-5.79 4.368-9.665zm-22.479 55.366 13.733-36.058 13.608 36.058z"/><path d="m355.922 151.566h-40.417l45.438-69.736c1.502-2.306 1.621-5.249.31-7.668s-3.842-3.926-6.594-3.926h-51.325c-4.143 0-7.5 3.358-7.5 7.5s3.357 7.5 7.5 7.5h37.486l-45.438 69.736c-1.502 2.306-1.621 5.249-.31 7.668s3.842 3.926 6.594 3.926h54.256c4.143 0 7.5-3.358 7.5-7.5s-3.358-7.5-7.5-7.5z"/><path d="m273.093 110.901h-39.229c-4.143 0-7.5 3.358-7.5 7.5s3.357 7.5 7.5 7.5h39.229c4.143 0 7.5-3.358 7.5-7.5s-3.358-7.5-7.5-7.5z"/></g></g></svg>