<svg id="Capa_1" enable-background="new 0 0 512 512" height="512" viewBox="0 0 512 512" width="512" xmlns="http://www.w3.org/2000/svg"><g><path d="m57.033 417.098c-35.665-43.995-57.033-100.051-57.033-161.098 0-141.385 114.615-256 256-256s256 114.615 256 256c0 61.047-21.368 117.103-57.033 161.098-.814 1.004-130.769-7.098-198.967-7.098-66.001 0-129.881 3.298-190.462 9.466-2.017.205-7.691-1.364-8.505-2.368z" fill="#5ca33b"/><path d="m464.456 68.265v3.323c0 26.072-20.673 47.316-46.521 48.234-25.848-.918-46.521-22.162-46.521-48.234v-3.323c0-26.072 20.673-47.316 46.521-48.234 25.848.919 46.521 22.162 46.521 48.234z" fill="#dce6eb"/><path d="m425.254 119.004c-2.936.558-5.965.85-9.063.85h-17.448c-26.656 0-48.265-21.609-48.265-48.265v-3.323c0-26.656 21.609-48.265 48.265-48.265h17.448c3.098 0 6.128.292 9.063.85-22.324 4.241-39.202 23.857-39.202 47.415v3.323c0 23.558 16.879 43.173 39.202 47.415z" fill="#c8d2dc"/><path d="m459.967 300h-18.711c-8.284 0-15-6.716-15-15v-46.34c0-11.046 8.954-20 20-20h8.711c11.046 0 20 8.954 20 20v46.34c0 8.284-6.716 15-15 15z" fill="#f2bb88"/><path d="m474.967 242.915h-20v174.183c-11.163 13.77-23.726 26.357-37.473 37.547h-52.527c-2.761 0-5-2.239-5-5v-206.73h-20v-79.66c0-11.046 8.954-20 20-20h95c11.046 0 20 8.954 20 20z" fill="#a6e0ec"/><path d="m397.35 454.645h-32.383c-2.761 0-5-2.239-5-5v-206.73h-20v-79.66c0-11.046 8.954-20 20-20h37.383z" fill="#7cd2e3"/><path d="m464.456 90.197v5.043c0 5.523-4.477 10-10 10h-2.305c-5.642 13.781-17.474 24.371-32.039 28.315v15.067c0 6.341-5.141 11.482-11.482 11.482h-2.346c-6.341 0-11.482-5.141-11.482-11.482v-15.072c-14.556-3.948-26.38-14.535-32.02-28.309h-2.305c-5.523 0-10-4.477-10-10v-5.043c0-5.091 3.804-9.293 8.724-9.919v-7.105c0-26.656 21.609-48.265 48.265-48.265 26.656 0 48.265 21.609 48.265 48.265v7.105c4.922.625 8.725 4.827 8.725 9.918z" fill="#f2bb88"/><path d="m455.732 73.173v13.79c0 22.288-15.107 41.047-35.639 46.597-20.533-5.55-35.639-24.309-35.639-46.597v-13.79c0-22.288 15.107-41.047 35.639-46.597 20.533 5.55 35.639 24.309 35.639 46.597z" fill="#f2d1a5"/><path d="m455.732 61.522h-70.102c-3.17 0-5.652-2.797-5.203-5.935 1.782-12.449 9.086-23.115 19.35-29.44-3.189-2.873-5.139-7.095-4.951-11.767.327-8.112 7.302-14.38 15.421-14.38h15.244c8.119 0 15.094 6.268 15.421 14.38.188 4.672-1.762 8.894-4.951 11.767 11.863 7.31 19.771 20.418 19.771 35.375z" fill="#dce6eb"/><path d="m385.87 61.522h-26.668c0-14.957 7.908-28.065 19.771-35.375-3.047-2.745-4.963-6.722-4.963-11.147 0-8.284 6.716-15 15-15h27.461c-8.284 0-15 6.716-15 15 0 4.425 1.916 8.401 4.963 11.147-11.863 7.31-20.564 20.418-20.564 35.375z" fill="#c8d2dc"/><path d="m78.426 300h-26.393c-8.284 0-15-6.716-15-15v-24.424c0-11.046 8.954-20 20-20h16.393c11.046 0 20 8.954 20 20v24.424c0 8.284-6.716 15-15 15z" fill="#ffcdbe"/><path d="m152.033 278v170c0 5.523-4.477 10-10 10h-20c-5.523 0-10-4.477-10-10v-130h-15v130c0 2.551-5.695 4.035-7.255 2.702-11.91-10.178-22.875-21.429-32.745-33.604v-139.098c0-11.046 8.954-20 20-20h55c11.046 0 20 8.954 20 20z" fill="#ffc14f"/><path d="m75.076 276.106v161.006c-6.356-6.349-12.38-13.03-18.043-20.015v-139.097c0-.639.03-1.27.089-1.894z" fill="#ffb52d"/><path d="m172.033 265.383h-20v22.617h-95v-22.617c-3.026 0-5.48-2.453-5.48-5.48v-80.733c0-19.836 16.08-35.915 35.915-35.915h64.564c11.046 0 20 8.954 20 20v102.128z" fill="#fb5858"/><path d="m57.033 288v-22.617h-20v-102.129c0-11.046 8.954-20 20-20h95 .01-56.967c-11.046 0-20 8.954-20 20v124.746z" fill="#f44545"/><path d="m161.522 90.197v5.043c0 5.523-4.477 10-10 10h-2.305c-5.643 13.781-17.474 24.371-32.039 28.315v15.067c0 6.341-5.141 11.482-11.482 11.482h-2.346c-6.341 0-11.482-5.141-11.482-11.482v-15.072c-14.556-3.948-26.38-14.535-32.02-28.309h-2.305c-5.523 0-10-4.477-10-10v-5.043c0-5.091 3.804-9.293 8.724-9.919v-7.105c0-26.656 21.609-48.265 48.265-48.265 26.656 0 48.265 21.609 48.265 48.265v7.105c4.922.625 8.725 4.827 8.725 9.918z" fill="#ffcdbe"/><path d="m152.798 73.173v13.79c0 22.288-15.107 41.047-35.639 46.597-20.532-5.55-35.639-24.31-35.639-46.597v-13.79c0-22.288 15.107-41.047 35.639-46.597 20.533 5.55 35.639 24.309 35.639 46.597z" fill="#ffdecf"/><path d="m109.778 86.749v5.245c0 2.897-2.348 5.246-5.245 5.246s-5.246-2.349-5.246-5.246v-5.245c0-2.897 2.349-5.245 5.246-5.245s5.245 2.348 5.245 5.245z" fill="#faa68e"/><path d="m104.533 38.064c0 8.284-6.716 15-15 15h-14.457c-2.072 0-4.046-.42-5.841-1.18v23.584c0 5.523-4.477 10-10 10s-10-4.477-10-10v-28.512c0-4.911 3.981-8.892 8.892-8.892h1.949c0-8.284 6.716-15 15-15h14.457c8.284 0 15 6.716 15 15z" fill="#c8d2dc"/><path d="m159.831 46.956v28.512c0 5.523-4.477 10-10 10s-10-4.477-10-10v-23.584c-1.795.76-3.769 1.18-5.841 1.18h-45.607c-8.284 0-15-6.716-15-15s6.716-15 15-15h45.607c8.284 0 15 6.716 15 15h1.949c4.911 0 8.892 3.981 8.892 8.892z" fill="#dce6eb"/><path d="m262.686 163.735v-53.469c0-26.656 21.609-48.265 48.265-48.265h.815c26.656 0 48.265 21.609 48.265 48.265v53.469c0 26.656-21.609 48.265-48.265 48.265h-.815c-26.656 0-48.265-21.609-48.265-48.265z" fill="#784132"/><path d="m320.427 211.224c-2.81.509-5.705.776-8.662.776h-17.448c-26.656 0-48.265-21.609-48.265-48.265v-53.469c0-26.656 21.609-48.265 48.265-48.265h17.448c2.957 0 5.852.266 8.662.776-22.522 4.081-39.603 23.791-39.603 47.49v53.469c0 23.698 17.081 43.407 39.603 47.488z" fill="#61362b"/><path d="m345.542 402h-85c-2.761 0-5-2.239-5-5v-115c0-11.046 8.954-20 20-20h55c11.046 0 20 8.954 20 20v115c0 2.761-2.239 5-5 5z" fill="#fb5858"/><path d="m275.542 282v115c0 2.761 2.239 5 5 5h-20.917c-2.761 0-5-2.239-5-5v-115c0-11.046 8.954-20 20-20h20.917c-11.046 0-20 8.954-20 20z" fill="#f44545"/><path d="m340.542 284.915h-105v-79.66c0-11.046 8.954-20 20-20h65c11.046 0 20 8.954 20 20z" fill="#ffb52d"/><path d="m370.542 284.915h-70.733v-79.66c0-11.046 8.954-20 20-20h30.733c11.046 0 20 8.954 20 20z" fill="#ffc14f"/><path d="m360.031 132.197v5.043c0 5.523-4.477 10-10 10h-2.305c-5.643 13.781-17.474 24.371-32.039 28.315v15.067c0 6.341-5.141 11.482-11.482 11.482h-2.346c-6.341 0-11.482-5.141-11.482-11.482v-15.072c-14.556-3.948-26.38-14.535-32.02-28.309h-2.305c-5.523 0-10-4.477-10-10v-5.043c0-5.091 3.804-9.293 8.724-9.919v-7.105c0-26.656 21.609-48.265 48.265-48.265 26.656 0 48.265 21.609 48.265 48.265v7.105c4.921.625 8.725 4.827 8.725 9.918z" fill="#ffcdbe"/><path d="m351.307 115.173v13.79c0 22.288-15.107 41.047-35.639 46.597-20.533-5.55-35.639-24.309-35.639-46.597v-13.79c0-22.288 15.107-41.047 35.639-46.597 20.532 5.55 35.639 24.309 35.639 46.597z" fill="#ffdecf"/><path d="m281.457 103.522h3.319-30c0-22.932 18.59-41.522 41.522-41.522h13.487c2.827 0 6.177.352 8.846.89-18.976 3.829-31.743 21.724-37.174 40.632z" fill="#61362b"/><path d="m351.307 103.522h-69.85c0-20.687 14.862-39.671 38.97-40.746 19.797 3.16 30.88 20.059 30.88 40.746z" fill="#784132"/><path d="m242.331 146.362h-41.554c-13.043 0-23.616-10.573-23.616-23.616v-12.48c0-25.353 19.548-46.139 44.394-48.112 24.846 1.972 44.394 22.759 44.394 48.112v12.48c-.001 13.042-10.575 23.616-23.618 23.616z" fill="#c48958"/><path d="m276.458 225.809v101.191c0 8.284-6.716 15-15 15h-10c-8.284 0-15-6.716-15-15v-101.191c0-11.046 8.954-20 20-20s20 8.954 20 20zm-95 0v101.191c0 8.284-6.716 15-15 15h-10c-8.284 0-15-6.716-15-15v-101.191c0-11.046 8.954-20 20-20s20 8.954 20 20z" fill="#f2bb88"/><path d="m256.458 387.595h-95v-67.595c0-11.046 8.954-20 20-20h55c11.046 0 20 8.954 20 20z" fill="#0a66ea"/><path d="m214.992 300c-11.046 0-20 8.954-20 20v67.595h-33.534v-67.595c0-11.046 8.954-20 20-20z" fill="#0956c6"/><path d="m276.458 225.808h-20v104.192h-95v-104.192c-1.616 0-2.926-1.31-2.926-2.926v-3.882c0-18.637 15.108-33.745 33.745-33.745h64.181c11.046 0 20 8.954 20 20z" fill="#fff5f5"/><path d="m197.76 185.254c-11.046 0-20 8.954-20 20v124.746h-16.301v-104.192h-20v-20.554c0-11.046 8.954-20 20-20z" fill="#dce6eb"/><path d="m265.948 132.197v5.043c0 5.523-4.477 10-10 10h-2.305c-5.643 13.781-17.474 24.371-32.039 28.315v15.067c0 6.341-5.141 11.482-11.482 11.482h-2.346c-6.341 0-11.482-5.141-11.482-11.482v-15.072c-14.556-3.948-26.38-14.535-32.02-28.309h-2.305c-5.523 0-10-4.477-10-10v-5.043c0-5.091 3.804-9.293 8.724-9.919v-7.105c0-26.656 21.609-48.265 48.265-48.265 26.656 0 48.265 21.609 48.265 48.265v7.105c4.921.625 8.725 4.827 8.725 9.918z" fill="#f2bb88"/><path d="m257.224 115.173v13.79c0 22.288-15.107 41.047-35.639 46.597-20.533-5.55-35.639-24.309-35.639-46.597v-13.79c0-22.288 15.107-41.047 35.639-46.597 20.532 5.55 35.639 24.309 35.639 46.597z" fill="#f2d1a5"/><path d="m407.467 97.24c-2.897 0-5.246-2.349-5.246-5.246v-5.245c0-2.897 2.349-5.245 5.246-5.245s5.245 2.349 5.245 5.245v5.245c.001 2.897-2.348 5.246-5.245 5.246zm-193.263 36.754v-5.245c0-2.897-2.348-5.245-5.245-5.245s-5.246 2.349-5.246 5.245v5.245c0 2.897 2.349 5.246 5.246 5.246s5.245-2.349 5.245-5.246z" fill="#f2bb88"/><path d="m173.267 80.064c0-8.284 6.716-15 15-15h41.383c8.284 0 15 6.716 15 15 0 8.284-6.716 15-15 15h-41.383c-8.284 0-15-6.716-15-15z" fill="#c48958"/><path d="m218.969 65.064h.128s-20.255 6.4-28.775 30h-2.054c-7.464 0-13.655-5.452-14.807-12.592-7.925 8.599-12.767 20.084-12.767 32.701v7.105c-3.658.466-6.698 2.908-8.017 6.222-.461-1.842-.707-3.769-.707-5.754v-12.48c0-26.656 21.609-48.265 48.265-48.265h17.448c3.119 0 6.168.296 9.122.861-2.699.515-5.318 1.256-7.836 2.202z" fill="#b27a49"/><path d="m417.857 437.596v16.753c-6.581 5.377-13.435 10.433-20.538 15.144-8.329 5.525-19.462-.482-19.462-10.476v-21.42c0-11.046 8.954-20 20-20 11.046-.001 20 8.953 20 19.999z" fill="#ffcdbe"/><path d="m417.857 437.979h-20v31.156c-22.401 14.94-47.291 26.441-73.916 33.752-10.622 2.916-21.084-5.19-21.084-16.205v-48.703h-20v-27.108c0-11.046 8.954-20 20-20h95c11.046 0 20 8.954 20 20z" fill="#5596fb"/><path d="m311.744 505.913c-4.555 1.012-8.887-2.41-8.887-7.076v-60.858h-20v-27.108c0-11.046 8.954-20 20-20h41.362c-11.046 0-20 8.954-20 20v91.939c-4.118 1.136-8.277 2.171-12.475 3.103z" fill="#2476ed"/><path d="m407.346 337.813v5.043c0 5.523-4.477 10-10 10h-2.305c-5.643 13.78-17.474 24.371-32.039 28.314v15.066c0 6.342-5.141 11.482-11.482 11.482h-2.346c-6.341 0-11.482-5.141-11.482-11.482v-15.072c-14.556-3.948-26.38-14.535-32.02-28.309h-2.305c-5.523 0-10-4.477-10-10v-5.043c0-5.09 3.804-9.292 8.724-9.919v-7.105c0-26.656 21.609-48.265 48.265-48.265 26.656 0 48.265 21.609 48.265 48.265v7.105c4.922.628 8.725 4.83 8.725 9.92z" fill="#ffcdbe"/><path d="m398.622 320.789v13.79c0 22.288-15.107 41.047-35.639 46.597-20.533-5.55-35.639-24.309-35.639-46.597v-13.79c0-22.288 15.107-41.047 35.639-46.597 20.533 5.551 35.639 24.31 35.639 46.597z" fill="#ffdecf"/><path d="m410.714 257.43v6.823c0 11.842-7.687 21.888-18.344 25.422 3.087 5.806 4.836 12.43 4.836 19.464h-78.72c0-22.207 17.433-40.342 39.36-41.466 2.117.109 4.192.376 6.214.791 4.461-8.582 13.433-14.445 23.774-14.445h19.468c1.884-.001 3.412 1.526 3.412 3.411z" fill="#915041"/><path d="m362.953 268.251c-19.466 3.437-34.193 20.435-34.193 40.888h-25.252c0-7.034 1.749-13.659 4.836-19.464-10.657-3.534-18.344-13.58-18.344-25.422v-6.823c0-1.884 1.527-3.412 3.412-3.412h19.468c10.341 0 19.313 5.862 23.774 14.444 2.705-.554 5.507-.845 8.376-.845h10.655c2.479 0 4.908.217 7.268.634z" fill="#784132"/><path d="m214.268 260.181v14c0 26.092-21.152 47.245-47.245 47.245-26.092 0-47.245-21.152-47.245-47.245v-14c0-12.767 10.35-23.117 23.117-23.117h48.255c12.768 0 23.118 10.35 23.118 23.117z" fill="#915041"/><path d="m176.379 320.307c-3.342.732-6.814 1.118-10.376 1.118h-17.448c-26.656 0-48.265-21.609-48.265-48.265v-12.48c0-13.043 10.573-23.616 23.616-23.616h38.2c-13.043 0-23.616 10.573-23.616 23.616v12.48c-.001 23.094 16.219 42.4 37.889 47.147z" fill="#784132"/><path d="m129.778 439.17v16.756c0 10.166-11.435 16.19-19.781 10.385-7.002-4.87-13.75-10.082-20.219-15.609v-11.052c0-10.845 8.433-20.081 19.271-20.466 11.378-.405 20.729 8.698 20.729 19.986z" fill="#ffcdbe"/><path d="m224.778 440-20 61.843c0 2.615-2.43 4.54-4.982 3.968-32.835-7.356-63.288-21.019-90.018-39.652v-26.159h-20v-62.746c0-11.046 8.954-20 20-20h19.99.01 55 .01 19.99c11.046 0 20 8.954 20 20z" fill="#a6e0ec"/><path d="m109.778 466.159v-26.159h-20v-62.746c0-11.046 8.954-20 20-20h40c-11.046 0-20 8.954-20 20v101.516c-6.871-3.901-13.544-8.111-20-12.611z" fill="#7cd2e3"/><path d="m214.268 304.197v5.043c0 5.523-4.477 10-10 10h-2.305c-5.643 13.781-17.474 24.371-32.039 28.315v15.067c0 6.341-5.141 11.482-11.482 11.482h-2.346c-6.341 0-11.482-5.141-11.482-11.482v-15.072c-14.556-3.948-26.38-14.535-32.02-28.309h-2.305c-5.523 0-10-4.477-10-10v-5.043c0-5.091 3.804-9.293 8.724-9.919v-7.105c0-26.656 21.609-48.265 48.265-48.265 26.656 0 48.265 21.609 48.265 48.265v7.105c4.921.625 8.725 4.827 8.725 9.918z" fill="#ffcdbe"/><path d="m205.544 287.173v13.79c0 22.288-15.107 41.047-35.639 46.597-20.533-5.55-35.639-24.309-35.639-46.597v-13.79c0-22.288 15.107-41.047 35.639-46.597 20.532 5.55 35.639 24.309 35.639 46.597z" fill="#ffdecf"/><path d="m420.198 110.239v.849c0 7.031-5.7 12.731-12.731 12.731s-12.731-5.699-12.731-12.731v-.849c0-1.875 1.52-3.395 3.395-3.395h18.672c1.875 0 3.395 1.52 3.395 3.395zm-306.329-3.395h-18.672c-1.875 0-3.395 1.52-3.395 3.395v.849c0 7.031 5.7 12.731 12.731 12.731s12.731-5.699 12.731-12.731v-.849c0-1.875-1.52-3.395-3.395-3.395zm198.508 42h-18.672c-1.875 0-3.395 1.52-3.395 3.395v.849c0 7.031 5.7 12.731 12.731 12.731s12.731-5.699 12.731-12.731v-.849c.001-1.875-1.52-3.395-3.395-3.395zm-94.083 0h-18.672c-1.875 0-3.395 1.52-3.395 3.395v.849c0 7.031 5.7 12.731 12.731 12.731s12.731-5.699 12.731-12.731v-.849c0-1.875-1.52-3.395-3.395-3.395zm141.399 205.616h-18.672c-1.875 0-3.395 1.52-3.395 3.395v.849c0 7.031 5.7 12.731 12.731 12.731s12.731-5.699 12.731-12.731v-.849c0-1.874-1.52-3.395-3.395-3.395zm-193.079-33.616h-18.672c-1.875 0-3.395 1.52-3.395 3.395v.849c0 7.031 5.7 12.731 12.731 12.731s12.731-5.7 12.731-12.731v-.849c.001-1.875-1.52-3.395-3.395-3.395z" fill="#fff5f5"/><path d="m303.042 139.24c-2.897 0-5.246-2.349-5.246-5.246v-5.245c0-2.897 2.349-5.245 5.246-5.245s5.245 2.349 5.245 5.245v5.245c0 2.897-2.348 5.246-5.245 5.246zm47.315 189.88c-2.897 0-5.246 2.349-5.246 5.245v5.245c0 2.897 2.349 5.246 5.246 5.246s5.245-2.348 5.245-5.246v-5.245c0-2.897-2.348-5.245-5.245-5.245zm-193.078-33.617c-2.897 0-5.246 2.349-5.246 5.245v5.245c0 2.897 2.349 5.246 5.246 5.246s5.245-2.349 5.245-5.246v-5.245c0-2.896-2.348-5.245-5.245-5.245z" fill="#ffbeaa"/><path d="m110.915 252.064c0-8.284 6.716-15 15-15h15c8.284 0 15 6.716 15 15 0 8.284-6.716 15-15 15h-15c-8.284 0-15-6.716-15-15z" fill="#784132"/><path d="m125 252.064c0-8.284 6.716-15 15-15h48.642c8.284 0 15 6.716 15 15 0 8.284-6.716 15-15 15h-48.642c-8.284 0-15-6.716-15-15z" fill="#915041"/><path d="m312 456v49.856c-18.024 4.022-36.764 6.144-56 6.144-12.634 0-25.055-.915-37.199-2.683-10.816-1.575-18.801-10.918-18.801-21.848v-31.469c0-19.882 16.118-36 36-36h40c19.882 0 36 16.118 36 36z" fill="#b98e7a"/><path d="m256 470c-4.142 0-7.5-3.358-7.5-7.5v-15c0-4.142 3.358-7.5 7.5-7.5 4.142 0 7.5 3.358 7.5 7.5v15c0 4.142-3.358 7.5-7.5 7.5z" fill="#fb5858"/><path d="m255.289 420c-19.882 0-36 16.118-36 36v53.387c-6.512-.935-12.945-2.115-19.289-3.531 0 0-.524-.117-.755-.17l-16.277-16.277c-2.929-2.929-2.929-7.678 0-10.606 2.929-2.929 7.678-2.929 10.607 0l6.425 6.425v-29.228c0-19.882 16.118-36 36-36zm.711 62c-4.142 0-7.5 3.358-7.5 7.5v22.392c2.491.072 4.991.108 7.5.108s5.009-.036 7.5-.108v-22.392c0-4.142-3.358-7.5-7.5-7.5z" fill="#ad7b64"/><path d="m297 390v40c0 9.561-6.71 17.556-15.677 19.531-1.46 6.008-6.875 10.469-13.332 10.469-5.155 0-9.646-2.843-11.99-7.046-2.345 4.203-6.835 7.046-11.99 7.046-6.457 0-11.872-4.461-13.332-10.469-8.969-1.975-15.679-9.97-15.679-19.531v-40c0-11.046 8.954-20 20-20h42c11.046 0 20 8.954 20 20z" fill="#d0b4a7"/><path d="m256 452.954c-2.17 4.578-6.965 7.046-11.99 7.046-6.457 0-11.872-4.461-13.332-10.469-8.968-1.975-15.678-9.97-15.678-19.531v-40c0-11.046 8.954-20 20-20h23.617c-11.046 0-20 8.954-20 20v40c0 9.561 16.702 21.805 17.383 22.954z" fill="#c5a190"/><path d="m256 440c-4.142 0-7.5-3.358-7.5-7.5v-15c0-4.142 3.358-7.5 7.5-7.5 4.142 0 7.5 3.358 7.5 7.5v15c0 4.142-3.358 7.5-7.5 7.5z" fill="#fff5f5"/><path d="m271 437.5c0 4.142-3.358 7.5-7.5 7.5h-15c-4.142 0-7.5-3.358-7.5-7.5 0-4.142 3.358-7.5 7.5-7.5h15c4.142 0 7.5 3.358 7.5 7.5z" fill="#fb5858"/><path d="m215.75 420c-5.523 0-10-4.477-10-10v-30c0-5.523 4.477-10 10-10 5.523 0 10 4.477 10 10v30c0 5.523-4.477 10-10 10z" fill="#ad7b64"/><path d="m296.25 420c-5.523 0-10-4.477-10-10v-30c0-5.523 4.477-10 10-10 5.523 0 10 4.477 10 10v30c0 5.523-4.477 10-10 10z" fill="#b98e7a"/><g fill="#784132"><path d="m248.273 400.781v.091c0 3.193-2.589 5.781-5.781 5.781s-5.781-2.588-5.781-5.781v-.091c0-3.193 2.588-5.781 5.781-5.781s5.781 2.589 5.781 5.781zm21.235-5.781c-3.193 0-5.781 2.589-5.781 5.781v.091c0 3.193 2.588 5.781 5.781 5.781s5.781-2.588 5.781-5.781v-.091c0-3.192-2.588-5.781-5.781-5.781z"/><path d="m91.5 73.926c0 3.314-2.686 6-6 6s-6-2.686-6-6 2.686-6 6-6 6 2.686 6 6zm32.066-6c-3.314 0-6 2.686-6 6s2.686 6 6 6 6-2.686 6-6-2.686-6-6-6z"/><path d="m195.925 115.926c0 3.314-2.686 6-6 6s-6-2.686-6-6 2.686-6 6-6 6 2.686 6 6zm32.066-6c-3.314 0-6 2.686-6 6s2.686 6 6 6 6-2.686 6-6-2.686-6-6-6z"/><path d="m144.245 287.926c0 3.314-2.686 6-6 6s-6-2.686-6-6 2.686-6 6-6 6 2.686 6 6zm32.066-6c-3.314 0-6 2.686-6 6s2.686 6 6 6 6-2.686 6-6-2.686-6-6-6z"/></g><path d="m337.324 321.543c0 3.314-2.686 6-6 6s-6-2.686-6-6 2.686-6 6-6 6 2.686 6 6zm32.066-6c-3.314 0-6 2.686-6 6s2.686 6 6 6 6-2.686 6-6-2.686-6-6-6z" fill="#0956c6"/><path d="m290.009 115.926c0 3.314-2.686 6-6 6s-6-2.686-6-6 2.686-6 6-6c3.313 0 6 2.686 6 6zm32.065-6c-3.314 0-6 2.686-6 6s2.686 6 6 6 6-2.686 6-6-2.686-6-6-6z" fill="#0956c6"/><path d="m394.434 73.926c0 3.314-2.686 6-6 6s-6-2.686-6-6 2.686-6 6-6 6 2.686 6 6zm32.066-6c-3.314 0-6 2.686-6 6s2.686 6 6 6 6-2.686 6-6-2.686-6-6-6z" fill="#784132"/></g></svg>