<svg height="512" viewBox="0 0 64 64" width="512" xmlns="http://www.w3.org/2000/svg"><g id="Flat"><g id="Color_copy" data-name="Color copy"><circle cx="27" cy="27" fill="#fcbc04" r="8"/><path d="m35 27a8 8 0 0 1 -16 0 7.87 7.87 0 0 1 .95-3.77 7.969 7.969 0 0 0 8.02 2.52l-3.78-5.45a4.6 4.6 0 0 1 -.37-.64 7.87 7.87 0 0 1 3.18-.66 8 8 0 0 1 8 8z" fill="#e59730"/><path d="m16 22h2a4 4 0 0 1 4 4 0 0 0 0 1 0 0h-2a4 4 0 0 1 -4-4 0 0 0 0 1 0 0z" fill="#7ab92d" transform="matrix(.35 -.937 .937 .35 -10.133 33.396)"/><path d="m21.92 21.89-.7 1.87a4 4 0 0 1 -5.14 2.35l.68-1.81a4 4 0 0 0 4.46-2.54l.02-.06a5.267 5.267 0 0 1 .68.19z" fill="#5ba006"/><path d="m22 23a1 1 0 0 1 -.707-.293l-3-3a1 1 0 0 1 1.414-1.414l3 3a1 1 0 0 1 -.707 1.707z" fill="#a1d51c"/><path d="m29.304 16.794-7.464-4.928 2.964-2.866 5.732 5.928z" fill="#7ab92d"/><path d="m30.54 14.93-1.24 1.86-7.46-4.92 1.03-1 2.57 1.69a2.2 2.2 0 0 0 1.5.35l-.69-2.41z" fill="#5ba006"/><path d="m31.036 15.794-.536-8.928-3.964 1.134 2.268 7.928z" fill="#a1d51c"/><path d="m31.04 15.79-2.24.14-2.26-7.93 1.54-.44.61 2.14a2.771 2.771 0 0 0 2.1 1.96z" fill="#7ab92d"/><path d="m40.67 34.481a3.261 3.261 0 0 1 -4.309-.965l-9.17-13.216a4.6 4.6 0 0 1 1.479-6.6 4.6 4.6 0 0 1 6.462 2.023l6.857 14.548a3.261 3.261 0 0 1 -1.319 4.21z" fill="#f9e109"/><path d="m40.67 34.48a3.262 3.262 0 0 1 -4.31-.96l-9.17-13.22a4.586 4.586 0 0 1 .82-6.13l6.36 10.39a3.273 3.273 0 0 0 4.25 1.21 3.074 3.074 0 0 0 .92-.7l2.45 5.2a3.26 3.26 0 0 1 -1.32 4.21z" fill="#fcbc04"/><g fill="#e59730"><path d="m31.8 21.12-2.88 1.67-1.14-1.64a.3.3 0 0 1 .07-.05l2.95-1.71a1.01 1.01 0 0 1 1.37.37.988.988 0 0 1 -.37 1.36z"/><path d="m31.54 16.66a1 1 0 0 1 .36-1.37l2-1.15a4.522 4.522 0 0 1 1.23 1.58l.01.02a.035.035 0 0 1 -.02.01l-2.22 1.28a1 1 0 0 1 -1.36-.37z"/><path d="m35.54 23.59a1 1 0 0 1 -.37 1.36l-3.39 1.96-1.14-1.64a.3.3 0 0 1 .07-.05l3.46-2a1.01 1.01 0 0 1 1.37.37z"/><path d="m34.4 19.62 1.95-1.12c.03-.01.05-.03.08-.03l.85 1.8-1.88 1.09a1 1 0 0 1 -1.36-.37 1 1 0 0 1 .36-1.37z"/><path d="m40.27 26.63-2.23 1.29a1.013 1.013 0 0 1 -1.37-.37.988.988 0 0 1 .37-1.36l2.31-1.34a.149.149 0 0 1 .07-.03z"/></g><circle cx="48.012" cy="21.783" fill="#5ba006" r="5"/><circle cx="40.543" cy="18.746" fill="#5ba006" r="3"/><path d="m60.9 20.059a3 3 0 0 0 -5.8-1.553 2.969 2.969 0 0 0 .006 1.524 3.012 3.012 0 1 0 3.783 2.11 2.993 2.993 0 0 0 2.011-2.081z" fill="#5ba006"/><path d="m52.721 15.798-4.779 10.107-2.241-10.953-4.381.896 2.215 11.049-2.044 7.632 7.727 2.071 2.083-7.773 5.284-11.994z" fill="#c4f236"/><path d="m49.29 35.08.31.08-.38 1.44-7.73-2.07 2.05-7.63-2.22-11.05 4.38-.9 1.33 6.49a3.87 3.87 0 0 1 -1.43-.11 3.655 3.655 0 0 1 -1.08-.49l.64 3.19a7.976 7.976 0 0 1 -.12 3.7 6.014 6.014 0 0 0 4.25 7.35z" fill="#a1d51c"/><path d="m56.59 16.83-3.05 6.91a3.945 3.945 0 0 1 -2.41.11 3.836 3.836 0 0 1 -1.74-1l3.33-7.05z" fill="#a1d51c"/><path d="m60.259 14.712a4.975 4.975 0 0 0 -4.619-6.284 4.988 4.988 0 0 0 -9.477-2.575 4.994 4.994 0 0 0 -5.222 3.682 4.727 4.727 0 0 0 -.085.522 3.986 3.986 0 1 0 3.2 7.167 3.941 3.941 0 0 0 5.277 1.846 3.982 3.982 0 0 0 7.825-.971 4.983 4.983 0 0 0 3.101-3.387z" fill="#a1d51c"/><path d="m60.41 13.05a4.727 4.727 0 0 1 -.15 1.66 4.982 4.982 0 0 1 -3.1 3.39 3.647 3.647 0 0 1 -.13.92 3.99 3.99 0 0 1 -7.7.05 3.924 3.924 0 0 1 -2.73.26 3.969 3.969 0 0 1 -2.54-2.11 3.985 3.985 0 1 1 -3.2-7.16 2.966 2.966 0 0 1 .08-.52 4.963 4.963 0 0 1 4.17-3.66 5.908 5.908 0 0 0 -.11 1.12 6 6 0 0 0 6 6 4.236 4.236 0 0 0 .51-.03 5.971 5.971 0 0 0 8.9.08z" fill="#7ab92d"/><path d="m47.8 61h-31.6a6 6 0 0 1 -5.94-5.151l-3.26-22.849h50l-3.264 22.849a6 6 0 0 1 -5.936 5.151z" fill="#57b7eb"/><path d="m24.89 35h-11.46l.12.83a19.991 19.991 0 0 0 19.8 17.17h19.45a5.646 5.646 0 0 0 1.37-.16l-.43 3.01a6.015 6.015 0 0 1 -5.94 5.15h-31.6a6.015 6.015 0 0 1 -5.94-5.15l-3.26-22.85h50l-.29 2h-23.26a1.886 1.886 0 0 1 -.1.81 2 2 0 0 1 -2.54 1.24z" fill="#4891d3"/><rect fill="#84d2f4" height="4" rx="2" width="58" x="3" y="29"/><rect fill="#2d72bc" height="16" rx="2" width="4" x="30" y="41"/><rect fill="#2d72bc" height="16" rx="2" width="4" x="38" y="41"/><rect fill="#2d72bc" height="16" rx="2" width="4" x="14" y="41"/><rect fill="#2d72bc" height="16" rx="2" width="4" x="22" y="41"/><path d="m61 31a2.015 2.015 0 0 1 -2 2h-54a2.006 2.006 0 0 1 -2-2 2.015 2.015 0 0 1 2-2h.31a2.009 2.009 0 0 0 1.99 1.83h10.31l-5.29-1.83h20.23l.2.07a32.185 32.185 0 0 0 10.47 1.76h17.77a.915.915 0 0 1 .01.17z" fill="#57b7eb"/><rect fill="#84d2f4" height="32" rx="2" transform="matrix(.327 -.945 .945 .327 -14.068 37.404)" width="4" x="17.23" y="12.58"/><path d="m34.35 33.81a2 2 0 0 1 -2.54 1.24l-26.46-9.16a1.989 1.989 0 0 1 -1.33-2.15 1.658 1.658 0 0 0 .33.15l26.46 9.16a2 2 0 0 0 2.54-1.24 2.744 2.744 0 0 0 .09-.39 1.988 1.988 0 0 1 .91 2.39z" fill="#57b7eb"/><path d="m54 43a6.962 6.962 0 0 0 -3 .683 6.987 6.987 0 0 0 -10 6.317c0 3.866 3.134 11 7 11a6.962 6.962 0 0 0 3-.683 6.962 6.962 0 0 0 3 .683c3.866 0 7-7.134 7-11a7 7 0 0 0 -7-7z" fill="#f8664f"/><path d="m51 45a1.133 1.133 0 0 1 -1.124-.992l-.628-5.023a1.766 1.766 0 0 1 1.752-1.985 1.766 1.766 0 0 1 1.752 1.985l-.628 5.023a1.133 1.133 0 0 1 -1.124.992z" fill="#a1d51c"/><path d="m57 39h2a0 0 0 0 1 0 0 4 4 0 0 1 -4 4h-2a0 0 0 0 1 0 0 4 4 0 0 1 4-4z" fill="#a1d51c"/><path d="m59.14 56.58c-1.27 2.44-3.1 4.42-5.14 4.42a6.986 6.986 0 0 1 -3-.68 6.986 6.986 0 0 1 -3 .68c-3.87 0-7-7.13-7-11a6.968 6.968 0 0 1 3.03-5.76c-.02.25-.03.5-.03.76a12 12 0 0 0 12 12 11.61 11.61 0 0 0 3.14-.42z" fill="#cc5144"/><path d="m52.25 42.97-.13 1.04a1.129 1.129 0 0 1 -2.24 0l-.63-5.03a1.757 1.757 0 0 1 1.02-1.82l.61 4.85a1.133 1.133 0 0 0 1.12.99 1.007 1.007 0 0 0 .25-.03z" fill="#7ab92d"/><path d="m59 39a3.995 3.995 0 0 1 -4 4h-2a3.989 3.989 0 0 1 .54-2h1.46a4.025 4.025 0 0 0 2.83-1.17 4.225 4.225 0 0 0 .63-.83z" fill="#7ab92d"/><path d="m56.691 50.1a1 1 0 0 1 -.939-.659 2.73 2.73 0 0 0 -1.292-1.484 1 1 0 0 1 .936-1.768 4.729 4.729 0 0 1 2.235 2.569 1 1 0 0 1 -.94 1.342z" fill="#f89c8d"/></g></g></svg>