<svg id="Capa_1" enable-background="new 0 0 512 512" height="512" viewBox="0 0 512 512" width="512" xmlns="http://www.w3.org/2000/svg"><g><g id="layer1_00000047022355759592282840000006614622756182295713_"><g id="g2046" transform="translate(-209.65 -1030.48)"><path id="path908-1" d="m333.673 1030.48c-34.421.001-62.518 28.097-62.518 62.518v386.966c0 34.422 28.097 62.515 62.518 62.516h263.954c34.422.001 62.518-28.094 62.518-62.516 0-34.421-28.096-62.519-62.518-62.518h-201.439v-324.448c0-34.421-28.093-62.518-62.515-62.518z" fill="#dc166d"/><path id="path973-0" d="m302.141 1063.791c-10.112 9.956-12.113 22.684-12.113 33.792v108.589c0 4.933 3.999 8.931 8.931 8.931s8.931-3.998 8.931-8.931v-108.589c0-9.416.906-15.279 6.782-21.065 3.514-3.461 3.558-9.114.097-12.629-3.767-3.418-9.286-3.295-12.629-.097z" fill="#fff"/><path id="path977-7" d="m610.123 1487.548c-2.362 2.362-9.757 6.112-13.362 6.112h-82.103c-9.865 0-17.862 7.997-17.862 17.863 0 9.865 7.997 17.862 17.862 17.862h82.103c16.85 0 29.673-7.632 38.62-16.578 6.974-6.975 6.974-18.283 0-25.258-7.566-6.786-18.637-6.428-25.258-.001z" fill="#ac1155"/></g></g></g></svg>