<svg id="Capa_1" enable-background="new 0 0 511.989 511.989" height="512" viewBox="0 0 511.989 511.989" width="512" xmlns="http://www.w3.org/2000/svg"><g><g id="layer1_00000029003625126492659680000004696185376323921058_"><g id="g2064" transform="translate(-282.265 -1331.423)"><path id="path900-8" d="m377.224 1331.45c-1.244.035-2.488.107-3.73.217v-.012c-11.923 1.051-23.656 5.534-33.602 13.622-26.525 21.569-30.57 60.826-9.001 87.351l145.287 178.675v170.02c0 34.187 27.904 62.088 62.091 62.089 34.188 0 62.099-27.9 62.098-62.089v-170.01l145.271-178.701c21.56-26.527 17.507-65.77-9.017-87.334-34.062-23.459-69.203-12.941-87.253 8.891-37.028 45.542-74.068 91.108-111.099 136.658l-111.027-136.542c-12.639-15.541-31.354-23.363-50.018-22.838z" fill="#d0ad9a"/><path id="path957-8-8" d="m566.747 1706.729c-9.796 0-17.738 7.941-17.738 17.738v52.222c0 5.269-8.225 15.837-13.955 16.297-9.765.784-17.046 9.335-16.262 19.1v.003c.783 9.765 9.334 17.046 19.099 16.262h.004c28.009-2.252 46.59-25.936 46.59-51.662v-52.222c0-9.797-7.942-17.738-17.738-17.738z" fill="#c09177"/><g fill="#fff"><path id="path1009-2-2" d="m382.399 1350.938c-13.216-1.372-26.977 4.869-36.222 15.301-12.326 13.911-15.458 37.541 1.532 59.374 3.009 3.865 8.58 4.56 12.446 1.552 3.865-3.008 4.56-8.58 1.552-12.446-13.021-16.733-9.705-28.303-2.252-36.713s20.211-11.396 27.178-7.526c4.281 2.377 9.678.836 12.058-3.444 2.381-4.282.839-9.685-3.444-12.065-4.096-2.274-8.443-3.575-12.848-4.033z"/><path id="path1013-0-6" d="m698.471 1351.922c-9.05-.841-22.185 1.581-32.265 12.377l-27.463 33.311c-3.116 3.782-2.576 9.372 1.206 12.488 3.781 3.116 9.372 2.575 12.487-1.206l26.797-32.521c5.198-5.513 14.282-7.092 17.595-6.784 4.878.452 9.2-3.133 9.653-8.011.454-4.879-3.132-9.201-8.01-9.654z"/></g></g></g></g></svg>