<?xml version="1.0" encoding="UTF-8" standalone="no"?>
<!-- Created with Inkscape (http://www.inkscape.org/) -->

<svg
   version="1.1"
   id="svg3251"
   width="1000"
   height="1000"
   viewBox="0 0 999.99998 999.99998"
   sodipodi:docname="mydog.svg"
   inkscape:version="1.2 (1:1.2.1+202207142221+cd75a1ee6d)"
   xmlns:inkscape="http://www.inkscape.org/namespaces/inkscape"
   xmlns:sodipodi="http://sodipodi.sourceforge.net/DTD/sodipodi-0.dtd"
   xmlns="http://www.w3.org/2000/svg"
   xmlns:svg="http://www.w3.org/2000/svg">
  <defs
     id="defs3255" />
  <sodipodi:namedview
     id="namedview3253"
     pagecolor="#ffffff"
     bordercolor="#000000"
     borderopacity="0.25"
     inkscape:showpageshadow="2"
     inkscape:pageopacity="0.0"
     inkscape:pagecheckerboard="0"
     inkscape:deskcolor="#d1d1d1"
     showgrid="false"
     inkscape:zoom="0.46509946"
     inkscape:cx="721.35108"
     inkscape:cy="610.62208"
     inkscape:window-width="1920"
     inkscape:window-height="1031"
     inkscape:window-x="0"
     inkscape:window-y="25"
     inkscape:window-maximized="1"
     inkscape:current-layer="g3261">
    <inkscape:page
       x="0"
       y="0"
       id="page3257"
       width="1000"
       height="1000" />
  </sodipodi:namedview>
  <g
     id="g3259"
     inkscape:groupmode="layer"
     inkscape:label="Page 1"
     transform="matrix(1.3333333,0,0,-1.3333333,0,2666.6667)">
    <g
       id="g3261"
       transform="matrix(0.03699375,0,0,0.03699375,10.125019,1260.1251)">
      <path
         d="m 8719.32,8224.6 c -71.53,-11.7 -260.38,601.6 -200.41,620.4 896.25,281.6 1433.48,632.4 2171.39,1175.7 134.6,-277.8 263.3,-551.8 394.3,-831.3 -806.5,-450.5 -1420.03,-810.5 -2365.28,-964.8"
         style="fill:#efa57f;fill-opacity:1;fill-rule:nonzero;stroke:none"
         id="path3265" />
      <path
         d="m 10040.2,9730 c 141.5,-246.5 507.9,-782 671.7,-1027.3 570.4,328 1023,658.1 1045.7,699.8 236.2,434.3 -547.6,1204.9 -568.3,1263.3 -256.7,-203.1 -637,-581.5 -1149.1,-935.8"
         style="fill:#f95006;fill-opacity:1;fill-rule:nonzero;stroke:none"
         id="path3267" />
      <path
         d="m 12456.9,4718.6 c -170.8,0 -275,23 -286.3,71.2 -6.3,26.9 16.8,59.6 65.2,96.5 472.7,40.4 778,104.3 778,176.3 0,33.4 -65.8,65.1 -183.7,93.5 259.8,89.8 579.7,181.7 928.7,263.4 584.5,136.8 1108.6,211.6 1416.4,211.6 170.8,0 275.1,-23 286.4,-71.3 31.6,-135.1 -679.5,-417 -1588.3,-629.7 -584.5,-136.7 -1108.5,-211.5 -1416.4,-211.5"
         style="fill:#e0e0e0;fill-opacity:1;fill-rule:nonzero;stroke:none"
         id="path3269" />
      <path
         d="m 11046.8,4841.3 c -651.3,0 -1228.74,35.6 -1586.72,90.5 22.56,-0.6 45.62,-0.8 69.17,-0.8 716.15,0 1862.85,242 1862.85,242 v 0 0 c -0.1,1.4 -0.2,2.9 -0.2,4.3 -1.9,31.8 -3.1,66.8 -4,103.2 641,-12.6 1175.1,-60.1 1442.2,-124.4 -282,-97.6 -493.2,-192.7 -594.3,-269.8 -330.3,-28.3 -742.2,-45 -1189,-45"
         style="fill:#e0e0e0;fill-opacity:1;fill-rule:nonzero;stroke:none"
         id="path3271" />
      <path
         d="m 12235.8,4886.3 c 101.1,77.1 312.3,172.2 594.3,269.8 117.9,-28.4 183.7,-60.1 183.7,-93.5 0,-72 -305.3,-135.9 -778,-176.3"
         style="fill:#c5c5c5;fill-opacity:1;fill-rule:nonzero;stroke:none"
         id="path3273" />
      <path
         d="m 14278.1,6399.9 c 23.8,9.1 403.4,-863.2 376.3,-877.8 -236,-127.6 -1478.4,-672.6 -1616.5,-744 l 340.6,1260.2 c 252.1,88.7 727.8,295.9 899.6,361.6"
         style="fill:#ffc19f;fill-opacity:1;fill-rule:nonzero;stroke:none"
         id="path3275" />
      <path
         d="m 14421.9,6529.3 c 14.5,5.9 382.4,-1122.9 364.1,-1127.9 -178.8,-49.3 -585.3,-161.3 -736,-205.5 -13.6,50.2 48.7,93.1 32.7,177.9 -26.8,141.2 -184.1,327.1 -259.7,512.8 -116.8,286.8 -54.8,373.6 -54.8,373.6 222.2,91.4 545.6,224.6 653.7,269.1"
         style="fill:#9dcecc;fill-opacity:1;fill-rule:nonzero;stroke:none"
         id="path3277" />
      <path
         d="m 15190.4,5312.7 c -57.7,1.2 -563,-5.8 -718.2,0 324.2,154.1 61.7,246.2 -26.3,271.8 -181,52.6 -415.8,199.6 -514.8,351.5 -88.8,136.2 -109.7,290 0,420.8 142.7,112.7 407.3,283.6 566.9,407.5 0,0 829,-689 914,-1271.4 -15.1,-125 -140.7,-182 -221.6,-180.2"
         style="fill:#2d8f91;fill-opacity:1;fill-rule:nonzero;stroke:none"
         id="path3279" />
      <path
         d="m 14441.8,6723.7 c 31.7,26.7 70.6,63.1 106.8,72.8 69.2,18.4 371.9,-352.7 567.7,-652 121.7,-186.2 273.4,-437.3 330.3,-627.2 4.5,-15 -27,-75 -50.2,-81.1 -114.7,234.1 -316.9,528.4 -409.5,662.3 -111.5,161.3 -363,548 -545.1,625.2"
         style="fill:#19555b;fill-opacity:1;fill-rule:nonzero;stroke:none"
         id="path3281" />
      <path
         d="m 14051.6,7205.3 c 0,-388.8 -856.8,-1578.9 -1390.3,-1163.3 -751.6,585.5 -1566.3,796.7 -2159.7,1162.9 0,388.8 1448.8,704.4 2196.4,704.4 747.5,0 1353.6,-315.2 1353.6,-704"
         style="fill:#1b6168;fill-opacity:1;fill-rule:nonzero;stroke:none"
         id="path3283" />
      <path
         d="m 12107.8,5914.9 c -59.7,-188.3 -111.8,-364.1 -155.1,-517.1 -164.3,-581.2 426.9,-924.7 1113,-600.3 106,74.2 268.7,302.6 431.5,557.5 -330.1,270.4 -771.4,789.9 -1389.4,559.9"
         style="fill:#ffc19f;fill-opacity:1;fill-rule:nonzero;stroke:none"
         id="path3285" />
      <path
         d="m 14348.2,7910 c -249.3,-137 -1327,236.8 -1557.6,-149.4 -404.3,-677.3 -685.7,-1611 -870.2,-2246.7 5.8,-18.3 38.6,-52.9 63.9,-33.1 36.4,116.2 197.1,263.8 408.5,303.3 386.6,72.3 818.9,-64.4 951.7,-712.7 209.5,243 640.3,980.2 762.2,1151 177.6,248.8 334.2,460.2 334.2,750.9 0,300.2 -56.4,686.9 -92.7,936.7"
         style="fill:#1b6168;fill-opacity:1;fill-rule:nonzero;stroke:none"
         id="path3287" />
      <path
         d="m 14534.6,7234.3 c -412.4,-238.1 -1271.6,-328.3 -1741.9,0.5 -561,392.4 -1372.9,878.5 -1731.3,594.2 0,0 -2.9,2202 127.9,2836.8 700.4,188.3 2207.3,336.3 2848.1,227.6 91.6,-810.3 362.2,-2421.1 497.2,-3659.1"
         style="fill:#f95006;fill-opacity:1;fill-rule:nonzero;stroke:none"
         id="path3289" />
      <path
         d="m 12285.3,8177.3 c -51,0 -97,44.3 -90.1,101.6 l 39.7,333 c 3.6,29.7 -7.7,59.1 -30.1,78.8 l -251.9,221.6 c -56.4,49.6 -31.4,142.4 42.3,157 l 329,65.1 c 29.3,5.8 53.8,25.6 65.7,53 l 132.8,308 c 15.6,36.2 49.5,54.7 83.4,54.7 30.7,0 61.5,-15.2 79,-46.4 l 163.6,-292.8 c 14.6,-26 41,-43.2 70.7,-46 l 334,-31.2 c 74.8,-7 109.1,-96.7 58,-151.9 l -227.8,-246 c -20.3,-21.9 -28.5,-52.4 -22,-81.5 l 73.5,-327.3 c 13.5,-59.6 -33.5,-110.7 -88.2,-110.7 -12.5,0 -25.5,2.7 -38.2,8.6 l -304.5,140.7 c -12.1,5.5 -25.1,8.3 -38,8.3 -16,0 -32,-4.2 -46.3,-12.7 l -288.5,-171 c -14.9,-8.9 -30.7,-12.9 -46.1,-12.9"
         style="fill:#fb8c5b;fill-opacity:1;fill-rule:nonzero;stroke:none"
         id="path3291" />
      <path
         d="m 13351.7,10744.3 c -4,66.6 -26.8,128.4 -59.8,186 -483.8,-7.9 -1046.3,-60.7 -1506.2,-140.6 -13,-45.5 -21.2,-92 -18.3,-140 18.7,-313.3 388.5,-546 826,-519.9 437.5,26.2 777,301.3 758.3,614.5"
         style="fill:#a02e07;fill-opacity:1;fill-rule:nonzero;stroke:none"
         id="path3293" />
      <path
         d="m 13118.1,11718.9 41.8,-995.3 c 8.9,-214 -255.8,-399 -591.3,-413 -335.6,-14.1 -614.9,148 -623.8,362 l -41.8,995.3 1215.1,51"
         style="fill:#ffc19f;fill-opacity:1;fill-rule:nonzero;stroke:none"
         id="path3295" />
      <path
         d="m 11938.8,10814.7 -14.9,354 v 0 l 14.9,-354 v 0"
         style="fill:#ead0d0;fill-opacity:1;fill-rule:nonzero;stroke:none"
         id="path3297" />
      <path
         d="m 11943.7,10697.4 c -44.8,27.4 -86.1,60 -122.9,97.6 39,6 78.9,11.8 118.1,17.8 l -0.1,1.9 v 0 l 4.9,-117.3"
         style="fill:#9d2607;fill-opacity:1;fill-rule:nonzero;stroke:none"
         id="path3299" />
      <path
         d="m 12864.8,11708.3 c 0.1,0 0.1,0 0.1,0 l 191.1,8 v 0 l -191.2,-8"
         style="fill:#ead0d0;fill-opacity:1;fill-rule:nonzero;stroke:none"
         id="path3301" />
      <path
         d="m 12319.6,10595 c -136.4,0 -266.6,35.6 -375.9,102.4 l -4.9,117.3 -14.8,354 c 298.3,193 649.8,391.6 940.8,539.6 l 191.2,8 c 12.1,-17.6 26.6,-33.1 36.4,-52.8 14.1,-28.7 22.4,-58.8 31.7,-88.6 l 14.1,-335.8 c -48.7,-220.7 -202.4,-428.7 -434.5,-548.6 -125.5,-64.8 -257.5,-95.5 -384.1,-95.5"
         style="fill:#ea9e82;fill-opacity:1;fill-rule:nonzero;stroke:none"
         id="path3303" />
      <path
         d="m 12619,7562.2 c -19.6,0 -45.6,15.9 -77.6,59.2 -97.2,132 -324.1,573.5 -768.5,621.1 574,-5.5 820.9,-482.6 878.5,-577.4 20.9,-34.3 8.2,-102.9 -32.4,-102.9"
         style="fill:#da4106;fill-opacity:1;fill-rule:nonzero;stroke:none"
         id="path3305" />
      <path
         d="m 13668,7500.2 c -34.2,-34.9 -474.6,399.9 -444,438.1 511.8,640.6 1339.9,1701.8 1487.5,1888.3 288.3,-349.6 380.4,-543.5 306.2,-876.8 -54.6,-245.1 -804.9,-894.5 -1349.7,-1449.6"
         style="fill:#ffc19f;fill-opacity:1;fill-rule:nonzero;stroke:none"
         id="path3307" />
      <path
         d="m 14080.8,10879.2 c 228.6,-132.6 450.2,-474.5 1054.6,-1169 -263.2,-305.4 -1091.6,-734.4 -1123.7,-735.9 -350.3,463.5 -239.3,1941.5 -265.4,1952 107.4,-11.5 270.1,-9.7 334.5,-47.1"
         style="fill:#f95006;fill-opacity:1;fill-rule:nonzero;stroke:none"
         id="path3309" />
      <path
         d="m 12536.3,7384.2 c -210.8,-782.6 -2153.1,-348.4 -2139.6,-34.6 0.9,21.3 -213.5,1008.7 415.2,1140.6 467,98.1 899.8,-269.1 1203.9,-468.4 230.5,-151.1 380.7,-544 520.5,-637.6"
         style="fill:#1b6168;fill-opacity:1;fill-rule:nonzero;stroke:none"
         id="path3311" />
      <path
         d="m 12188.4,7381.4 c 19.1,-91.7 229,-39.8 346,88 117,127.7 262.3,386.7 193.2,449.9 -106.6,-12.2 -578.4,-349.5 -539.2,-537.9"
         style="fill:#e0956c;fill-opacity:1;fill-rule:nonzero;stroke:none"
         id="path3313" />
      <path
         d="m 12904.6,7246 c -67.5,-73.4 -233.4,-227.1 -152.4,-326.8 33.3,-41.2 182.2,99.1 326.2,230.9 48.1,44.1 46,74 150.2,230.1 16.6,-6.5 -11.2,-100.5 -78.9,-200.1 -36.8,-54.3 -242.9,-145.4 -158.5,-283.4 14.5,-23.6 242.5,129.7 295.3,166.3 84.3,58.3 438,503.5 445.4,537.1 31.4,141.1 -37.4,282.3 -208.4,374 -142.2,56.3 -569.6,69.6 -852.1,-26.2 -137.2,-143.7 -213.1,-256.6 -294.9,-371.6 -155,-356.5 -244.2,-518.1 -171.8,-541.2 173.2,-55.3 292.5,234.1 370.6,374.5 71.6,106.1 170.7,208.6 222.3,255.8 31.4,-8.4 -114.8,-178.6 -184.1,-281.9 -51.6,-88.5 -209.6,-410 -146,-435.2 171,-67.8 190.4,101.8 347.7,318.7 67.9,81.7 210,222 229.6,222.6 9.3,-32 -28.5,-79.3 -140.2,-243.6"
         style="fill:#ffc19f;fill-opacity:1;fill-rule:nonzero;stroke:none"
         id="path3315" />
      <path
         d="m 11189,5625.4 c -73,-75 -853.3,39 -852.9,68.6 2.9,257.6 64,2089.1 95,2359.1 17.3,150.9 207.9,451.9 622.7,392.7 394,-56.1 484,-326 462.1,-632.7 -39.4,-550.5 -203.8,-2061.2 -326.9,-2187.7"
         style="fill:#ffc19f;fill-opacity:1;fill-rule:nonzero;stroke:none"
         id="path3317" />
      <path
         d="m 11319.1,5527.3 c -2.1,-15.3 -1024.1,23.5 -1025.9,42.1 -15.3,161.9 24.9,688.7 19.2,782.5 l 1069.7,-90.4 c -23.8,-174 -47.7,-624 -63,-734.2"
         style="fill:#9dcecc;fill-opacity:1;fill-rule:nonzero;stroke:none"
         id="path3319" />
      <path
         d="m 10080.6,5749.2 c 13.7,55.1 43.2,125.3 65.7,189.4 16.8,47.5 478.1,50.6 482,-62.7 1,-29 0.4,-54.6 -1.5,-77.9 79,1 164.5,3.9 254.8,9.3 196.3,11.7 372,31.7 495.1,54.2 12.1,-179 3.6,-489.5 15.4,-688.5 0,0 -2048.42,-432.3 -2379.45,-141.4 -93.3,82 414.64,467.5 1067.95,717.6"
         style="fill:#2d8f91;fill-opacity:1;fill-rule:nonzero;stroke:none"
         id="path3321" />
      <path
         d="m 11387.4,5297.8 c 1.1,-44.3 2.5,-87 4.7,-124.8 0,0 -2048.42,-432.3 -2379.45,-141.4 -13.16,11.6 -14.14,29.3 -4.7,51.7 570.46,-110.2 1869.95,116.7 2379.45,214.5"
         style="fill:#19555b;fill-opacity:1;fill-rule:nonzero;stroke:none"
         id="path3323" />
      <path
         d="m 9585.42,5550.8 c 3.05,-15.6 17.74,-26.1 33.83,-22.8 95.32,20.1 222.52,-24 308.16,-103.8 6.03,-5.7 13.8,-8.2 21.36,-7.8 7.14,0.5 14.12,3.5 19.36,9.1 10.87,11.7 10.24,29.9 -1.39,40.8 -98.33,91.7 -245.54,140.6 -358.57,118.2 -15.62,-3 -25.79,-18.1 -22.75,-33.7 z m 491.48,-43.7 c 6,-6.2 14.2,-9 22.1,-8.5 6.8,0.4 13.4,3.1 18.6,8.2 11.3,11.2 11.4,29.5 0.2,40.8 -93.3,94.2 -218.73,138.6 -344.37,120.9 -15.73,-2.2 -26.75,-16.7 -24.57,-32.4 2.17,-15.8 16.92,-27.9 32.49,-24.6 63.23,8.8 185.45,6.7 295.55,-104.4 z m 143.8,73.6 c 6.1,-7.7 15.2,-11.4 24.3,-10.9 5.7,0.3 11.3,2.4 16.1,6.1 12.5,9.9 14.6,28 4.7,40.5 -82.3,104.1 -222.7,156.2 -341.66,127.5 -15.42,-3.8 -24.9,-19.4 -21.1,-34.8 3.77,-15.5 19.22,-24.7 34.81,-21.2 97.65,24.4 214.05,-20.2 282.85,-107.2"
         style="fill:#d3dae5;fill-opacity:1;fill-rule:nonzero;stroke:none"
         id="path3325" />
      <path
         d="m 9982.91,12694.3 c 70.79,-487 482.69,-823.8 819.49,-805.2 336.7,18.6 439.4,404.6 426.6,869.1 -12.9,464.4 -296.3,827.1 -633.1,807.3 -460.2,-27 -679.44,-413.6 -612.99,-871.2"
         style="fill:#f4b18c;fill-opacity:1;fill-rule:nonzero;stroke:none"
         id="path3327" />
      <path
         d="m 15416.6,14154.9 c 17.1,-1828.4 -1675.6,-2784.1 -3133.4,-2641.7 -1457.9,142.5 -2395.64,1508.8 -2075.7,3256.4 177.7,970.3 1100.5,1711.3 2492.3,1565.8 1481.4,-154.8 2703.5,-763.2 2716.8,-2180.5"
         style="fill:#84220f;fill-opacity:1;fill-rule:nonzero;stroke:none"
         id="path3329" />
      <path
         d="m 14549,14594.1 c 103.9,-306.9 -352.3,-2898.5 -687.2,-3230.6 -355.2,-352.2 -1308.9,-652.3 -2000.3,-513.9 -430.2,86.1 -1221.1,474.4 -1425.7,919.7 -241.9,527 -127.9,2772.7 -8.3,3038.2 404.1,896.6 1213.8,849 2268.8,745.9 987.1,-96.5 1583,-163 1852.7,-959.3"
         style="fill:#ffc19f;fill-opacity:1;fill-rule:nonzero;stroke:none"
         id="path3331" />
      <path
         d="m 15085.7,12089.4 c -182.8,-489.4 -704.4,-754.6 -1066.9,-667.5 -362.5,87.2 -164.2,1576.7 512,1638.3 563.2,51.3 726.6,-510.9 554.9,-970.8"
         style="fill:#ffc19f;fill-opacity:1;fill-rule:nonzero;stroke:none"
         id="path3333" />
      <path
         d="m 14679.5,12152.3 c -50.3,-209.5 -306.9,-364.6 -480.6,-287.7 -67.8,29.9 125.5,758.8 237.3,747.5 189,-19.1 293.7,-250.3 243.3,-459.8"
         style="fill:#e0956c;fill-opacity:1;fill-rule:nonzero;stroke:none"
         id="path3335" />
      <path
         d="m 13831.9,11980.3 c -6.3,-106.2 -159,-183.5 -341,-172.6 -182,10.8 -324.4,105.7 -318.1,211.8 6.3,106.2 159,183.5 341,172.6 182,-10.8 324.4,-105.7 318.1,-211.8"
         style="fill:#ff9797;fill-opacity:1;fill-rule:nonzero;stroke:none"
         id="path3337" />
      <path
         d="m 12919.5,12140.7 c 52.1,-344.7 -507.7,-778.6 -989.8,-723.4 -479.4,54.8 -780.3,479.9 -753.9,825.9 44,187.6 355.1,115.2 829.8,96.2 474.3,-18.9 882.2,10.9 913.9,-198.7"
         style="fill:#701608;fill-opacity:1;fill-rule:nonzero;stroke:none"
         id="path3339" />
      <path
         d="m 12000.7,11726.9 c -222.8,10.3 -396.2,-34.8 -511.8,-132 121.2,-90.3 286.8,-178.3 472.8,-186.2 209.5,-8.9 420.1,53.5 544.5,140.6 -49.9,101.7 -306.2,168.4 -505.5,177.6"
         style="fill:#dd6b5b;fill-opacity:1;fill-rule:nonzero;stroke:none"
         id="path3341" />
      <path
         d="m 12688.1,12302.4 c -161.7,56.5 -418.7,34.9 -655.1,44.3 -266.7,10.6 -460.7,52.2 -629,23 57.1,-145.2 276.3,-246.9 583.1,-262.7 354.2,-18.2 646.6,44.8 701,195.4"
         style="fill:#ffffff;fill-opacity:1;fill-rule:nonzero;stroke:none"
         id="path3343" />
      <path
         d="m 11011.4,12277.2 c -14.9,-93.4 -140.5,-151 -280.6,-128.6 -139.9,22.4 -241.3,116.2 -226.4,209.6 14.9,93.4 140.6,151 280.5,128.6 140,-22.4 241.4,-116.3 226.5,-209.6"
         style="fill:#ff9797;fill-opacity:1;fill-rule:nonzero;stroke:none"
         id="path3345" />
      <path
         d="m 12213.9,12505.1 c -11.6,1.2 -21,10.5 -21.8,22.6 -5.8,85.5 -66.9,146.4 -155.9,155.1 -89.5,8.7 -163,-40.1 -182.9,-121.4 -3.2,-13.1 -16.4,-21.1 -29.4,-17.9 -13.1,3.2 -21,16.3 -17.9,29.4 25.5,104.2 122.1,169.3 234.9,158.3 112.1,-11 192.4,-91.4 199.7,-200.2 0.9,-13.4 -9.2,-25 -22.6,-26 l -4.1,0.1"
         style="fill:#c4735b;fill-opacity:1;fill-rule:nonzero;stroke:none"
         id="path3347" />
      <path
         d="m 13978.9,13771.1 c -17.5,3 -33.8,12.2 -45.6,27.1 -150.3,189.8 -480.5,292.7 -768.7,238.9 -40,-7.7 -78.9,18.9 -86.6,59.4 -7.5,40.3 19,79.1 59.4,86.6 343.9,64 727.7,-59.1 912.4,-292.9 25.4,-32.1 20,-78.8 -12.2,-104.2 -17.2,-13.7 -38.6,-18.4 -58.7,-14.9"
         style="fill:#752912;fill-opacity:1;fill-rule:nonzero;stroke:none"
         id="path3349" />
      <path
         d="m 10519.1,14137.6 c -18.2,1.2 -35.8,9.8 -47.8,25.4 -22.5,28.9 -17.4,70.5 11.6,93.1 210.2,163.7 569.6,188.9 854.4,60.4 33.5,-15.2 48.3,-54.5 33.2,-87.9 -15.2,-33.5 -54.6,-48.3 -87.8,-33.1 -238.8,108 -547.6,89.1 -718.3,-44.1 -13.3,-10.4 -29.5,-14.9 -45.3,-13.8"
         style="fill:#752912;fill-opacity:1;fill-rule:nonzero;stroke:none"
         id="path3351" />
      <path
         d="m 11492.9,12680.2 c 0,0 -642.6,-172.1 -837,237.5 -236.9,499.1 241.5,826.5 518.4,725.3 256.3,-93.5 466.8,-388.4 318.6,-962.8"
         style="fill:#f9feff;fill-opacity:1;fill-rule:nonzero;stroke:none"
         id="path3353" />
      <path
         d="m 10673.1,13522.6 c 132.5,159.3 292.1,197.6 456.9,161.1 168.5,-37.4 326.1,-198.3 359.2,-351.4 -74,176.1 -225.7,253.1 -321.5,288 -152.6,55.9 -367.1,-7 -477.4,-165.9 -98.2,-141.4 -115,-366.5 -28,-549.7 -111.9,129.8 -127.4,451.8 10.8,617.9"
         style="fill:#773220;fill-opacity:1;fill-rule:nonzero;stroke:none"
         id="path3355" />
      <path
         d="m 11394.7,13210.1 c 38.7,-174.7 -51,-359.3 -200.6,-412.3 -149.6,-53 -302.3,45.7 -341.1,220.4 -38.8,174.7 51,359.3 200.6,412.3 149.6,52.9 302.3,-45.7 341.1,-220.4"
         style="fill:#63190d;fill-opacity:1;fill-rule:nonzero;stroke:none"
         id="path3357" />
      <path
         d="m 11377.7,13264.7 c 10.8,-48.5 -14.1,-99.7 -55.6,-114.4 -41.5,-14.7 -83.9,12.7 -94.6,61.2 -10.8,48.4 14.1,99.7 55.6,114.4 41.5,14.6 83.9,-12.7 94.6,-61.2"
         style="fill:#fefffe;fill-opacity:1;fill-rule:nonzero;stroke:none"
         id="path3359" />
      <path
         d="m 12597,12562.9 c 0,0 709,-309.9 1028.2,47.3 389,435.3 -93.7,860.7 -439,823.1 -319.6,-34.9 -631.5,-276.5 -589.2,-870.4"
         style="fill:#f9feff;fill-opacity:1;fill-rule:nonzero;stroke:none"
         id="path3361" />
      <path
         d="m 13742.4,13205 c -118.2,184.9 -295.3,257.6 -495.5,258.2 -204.6,0.7 -424.5,-121.8 -497.8,-263.9 126.1,155.6 320.2,197.3 439.7,210.3 190.3,20.9 425.7,-87.9 518.1,-267.4 82.2,-159.8 50.7,-383.4 -92.1,-543.2 159.7,102.1 250.7,413.3 127.6,606"
         style="fill:#773220;fill-opacity:1;fill-rule:nonzero;stroke:none"
         id="path3363" />
      <path
         d="m 13517.3,12993.1 c 49.8,-176 -52.5,-359.1 -228.5,-408.9 -176,-49.9 -359.1,52.5 -408.9,228.5 -49.9,176 52.5,359.1 228.5,409 176,49.8 359.1,-52.6 408.9,-228.6"
         style="fill:#63190d;fill-opacity:1;fill-rule:nonzero;stroke:none"
         id="path3365" />
      <path
         d="m 13496.1,13048.3 c 13.8,-48.9 -14.6,-99.7 -63.4,-113.5 -48.9,-13.8 -99.6,14.6 -113.5,63.4 -13.8,48.8 14.6,99.6 63.4,113.5 48.9,13.8 99.7,-14.6 113.5,-63.4"
         style="fill:#fefffe;fill-opacity:1;fill-rule:nonzero;stroke:none"
         id="path3367" />
      <path
         d="m 14878.7,14111 c 179,27.3 136.5,84.8 310.5,131.4 -651.2,210 -359.2,1192.7 -1198.1,1645.2 -1382.4,628.8 -2475.1,410.3 -2860.9,214.8 -711,-360.4 -1058.1,-1042.1 -1145.86,-1647.5 -129.41,-545.4 -77.33,-734.3 -370.57,-842.1 301.24,-108.7 315.01,-48.4 414.53,94.4 0.7,-452 -62.23,-650.7 -293.65,-784.2 372.05,-124.8 538.85,123.5 584.85,480.9 54.7,425.8 36.1,1240.8 106.1,1388.9 40.6,85.7 531,543.6 663.5,539.3 288.9,-9.4 541.7,-1040.7 1563.4,-1087.5 -397.8,249.5 -602.7,580.3 -801,1046.1 77,-53.1 153.6,-116.6 228.6,-192.7 790.5,-801.1 1551.2,-1036.9 2275.1,-1018.9 -164.6,-758 -331.2,-1722.9 478.9,-1808.4 -76,108.2 -251.5,637.5 -8,1022.4 93.6,-66.8 38.3,312.9 52.6,817.9"
         style="fill:#84220f;fill-opacity:1;fill-rule:nonzero;stroke:none"
         id="path3369" />
      <path
         d="m 6818.02,4545.1 c -1591.53,0 -2881.73,115.7 -2881.73,258.3 0,142.7 1290.2,258.3 2881.73,258.3 1591.53,0 2881.74,-115.6 2881.74,-258.3 0,-142.6 -1290.21,-258.3 -2881.74,-258.3"
         style="fill:#ededed;fill-opacity:1;fill-rule:nonzero;stroke:none"
         id="path3371" />
      <path
         d="m 5305.12,4380.9 c -661.84,-119.8 -1353.1,-1 -1310.7,251.4 30.17,180 803.04,172.8 1013.45,440 -71.23,84.6 -212.55,506.3 -218.84,498.6 -342.02,-416.2 -1056.2,-328.2 -1327.04,-757 -139.52,-220.9 -36.63,-571.7 410.33,-764 487.05,-209.6 1148.74,-142.8 1416.08,-63.4 158.9,47.2 341.52,132.9 334.85,243.1 -7.29,120.3 -151.63,181.5 -318.13,151.3"
         style="fill:#d86f35;fill-opacity:1;fill-rule:nonzero;stroke:none"
         id="path3373" />
      <path
         d="m 7002.64,6107.5 c -137.02,-381.3 -537.91,-754.2 -1297.1,-737.8 -152.74,3.3 -442.3,346.6 -533.51,790.4 -83.79,407.8 14.87,1312.8 1147.06,1226.6 740.82,-56.4 929.81,-593.9 683.55,-1279.2"
         style="fill:#dbb5a1;fill-opacity:1;fill-rule:nonzero;stroke:none"
         id="path3375" />
      <path
         d="m 7623.67,4997.9 c -301.88,-45.6 -1441.8,-18.4 -1694.1,-34.2 -338.05,-21.1 -259.25,416.9 178.64,513 201.06,44.2 941.17,-46.1 1231.72,-80.9 296.64,-35.6 501.31,-365 283.74,-397.9"
         style="fill:#dbb5a1;fill-opacity:1;fill-rule:nonzero;stroke:none"
         id="path3377" />
      <path
         d="m 9082.09,9022.7 c -94.63,313.6 -1254.74,-912 -937.26,-1444.1 617.67,-1035.2 439.98,-1993.9 930.71,-2709.3 49.15,-71.6 559.67,-89.3 620.97,-37.4 146.45,124.1 -152.13,401 -214.12,601.2 -493.91,1594.5 71.01,2027.1 -400.3,3589.6"
         style="fill:#dbb5a1;fill-opacity:1;fill-rule:nonzero;stroke:none"
         id="path3379" />
      <path
         d="M 7660.13,10164.7 C 7587.47,9122.2 6937.37,8760.6 6226.9,8245.9 5366.96,7622.9 4548.97,6887.3 4597.86,6057.1 c 43.06,-730.6 487.72,-724.2 923.36,-717.9 115.99,1.7 231.34,3.4 338.3,-8.9 109.01,1304.1 3306.5,398.7 3419.56,2853.3 21.21,460.4 -41.68,875 39.07,1900.8 -211.23,69.1 -1467.81,94.5 -1658.02,80.3"
         style="fill:#ffdfc5;fill-opacity:1;fill-rule:nonzero;stroke:none"
         id="path3381" />
      <path
         d="m 8009.98,8964.3 c -88.37,315.4 -1345.3,-891.5 -1078.2,-1450.6 380.92,-797.4 -275.42,-2233.9 241.07,-2798.9 58.66,-64.1 529.47,-59.1 590.8,-7.2 146.43,124.1 -87.26,395.7 -128.12,601.2 -183.99,924.7 781.24,2203.5 374.45,3655.5"
         style="fill:#ffdfc5;fill-opacity:1;fill-rule:nonzero;stroke:none"
         id="path3383" />
      <path
         d="m 6535.01,5798.8 c -137.03,-381.3 -640.1,-769.9 -1399.3,-753.5 -152.73,3.3 -442.29,346.6 -533.5,790.3 -83.78,407.8 14.87,1312.8 1147.06,1226.6 740.82,-56.4 1032.03,-578.1 785.74,-1263.4"
         style="fill:#ffdfc5;fill-opacity:1;fill-rule:nonzero;stroke:none"
         id="path3385" />
      <path
         d="m 6758.5,4723.7 c -301.89,-47.3 -1441.79,-19.1 -1694.08,-35.4 -338.05,-21.9 -259.24,431.9 178.62,531.5 201.08,45.8 941.2,-47.8 1231.72,-83.9 296.66,-36.8 501.3,-378.1 283.74,-412.2"
         style="fill:#ffdfc5;fill-opacity:1;fill-rule:nonzero;stroke:none"
         id="path3387" />
      <path
         d="M 7599.59,10260.2 C 7595.53,9192.8 6634.36,8670.7 5960.44,8137.9 4983.42,7365.4 4216.34,6464.2 4716.98,5434.2 c 737.81,473.4 1128.05,1031.7 1703.72,1146.2 1283.83,255.4 1847.13,722.6 1721.99,1990.4 -45.28,458.5 -633.96,1130.8 -361.44,1585.6 -72.66,21.8 -141.29,103.8 -181.66,103.8"
         style="fill:#d86f35;fill-opacity:1;fill-rule:nonzero;stroke:none"
         id="path3389" />
      <path
         d="m 3461.99,4813.9 c -123.92,-196.2 -55.15,-494.3 274.61,-693.4 -261.91,412.1 -65.15,568 86.71,657.1 320.37,188 754.79,184.6 1055.45,192.1 52.4,29.3 97.59,62.5 129.11,102.6 -69.34,82.4 -204.12,481.1 -217.07,495.3 l -4.24,1 C 4443.71,5155.5 3732.25,5241.8 3461.99,4813.9"
         style="fill:#442721;fill-opacity:1;fill-rule:nonzero;stroke:none"
         id="path3391" />
      <path
         d="M 6418.79,6319.6 C 6375.75,6827.5 5831.82,7221.5 5229.53,7220 4347.49,6667.7 4404,5409.2 5062.07,5064.5 c 41.39,-21.6 411.47,6.8 601.82,90 490.35,214.2 802,609.6 754.9,1165.1"
         style="fill:#d86f35;fill-opacity:1;fill-rule:nonzero;stroke:none"
         id="path3393" />
      <path
         d="m 7363.76,6292.9 c 124.04,-96.3 234.84,-130.8 334.19,-124 170.65,720.5 524.58,1568.3 376.54,2495 -363.52,-210.1 -859.9,-557.9 -927.46,-631.4 28.84,-617.9 19.12,-1586.2 216.73,-1739.6"
         style="fill:#d86f35;fill-opacity:1;fill-rule:nonzero;stroke:none"
         id="path3395" />
      <path
         d="m 5794.6,6965.6 c 1282.75,387 2259.83,94.3 2203.87,907.9 -41.48,602.9 -857.76,662.1 -689.29,1463.7 C 6971.69,8836.4 6404.47,8489 5960.44,8137.9 5143.28,7491.8 4497.18,6757.4 4571.46,5929 c 32.06,-357.7 184.01,-679.9 455.72,-841.9 -832.89,1159 355.64,1754.2 767.42,1878.5"
         style="fill:#442721;fill-opacity:1;fill-rule:nonzero;stroke:none"
         id="path3397" />
      <path
         d="m 5288.4,3986.5 c 158.9,47.2 341.52,132.9 334.85,243.1 -7.29,120.3 -151.63,181.5 -318.13,151.3 -210,-38 -422.77,-51.8 -614.31,-45.1 -97.65,-100.9 -136.13,-325.9 -14.32,-425.5 254.01,1.7 480.68,37.2 611.91,76.2"
         style="fill:#ffdfc5;fill-opacity:1;fill-rule:nonzero;stroke:none"
         id="path3399" />
      <path
         d="m 9229.11,8701.9 c -238.08,-219.9 -799.93,-195.8 -1112.54,-74 -399.66,155.8 -700.21,403.6 -820.25,694.9 -8.59,20.8 -1.57,54.3 8.57,72 43.45,75.9 114.63,238.1 154.86,319.2 16.58,33.4 77.95,28 84.74,21.5 -21.07,-31.7 -38.37,-61.5 -43.42,-68.5 100.69,-260.9 421.98,-539.7 761.25,-669.7 305.04,-116.8 801.05,-143.5 1004.01,99.8 10.14,19.3 12.58,73.4 20.75,103.2 68.1,-31.2 50.95,-87 49.77,-102.6 -8.79,-116 -27.11,-221.5 -40.84,-292.9 -2.7,-14.2 -40.88,-78.8 -66.9,-102.9"
         style="fill:#cc0a0a;fill-opacity:1;fill-rule:nonzero;stroke:none"
         id="path3401" />
      <path
         d="m 8147.44,8988.6 c -501.75,241.3 -749.34,632.8 -687.69,725.4 20.66,31 77.95,28 84.74,21.5 -21.07,-31.7 -38.37,-61.5 -43.42,-68.5 100.69,-260.9 421.98,-539.7 761.25,-669.7 305.04,-116.8 801.05,-143.5 1004.01,99.8 10.14,19.3 12.58,73.4 20.75,103.2 68.1,-31.2 50.95,-87 49.77,-102.6 -219.75,-309.2 -792.67,-299.9 -1189.41,-109.1"
         style="fill:#e55151;fill-opacity:1;fill-rule:nonzero;stroke:none"
         id="path3403" />
      <path
         d="m 9738.65,11386.6 c 42.75,-108.8 234.06,-438.5 221.16,-459.5 -103.2,-168.4 -853.73,-45.6 -881.43,45.2 -72.23,236.8 -515.92,852.8 -506.67,985 4.9,69.9 150.04,84.1 287.94,149.4 241.07,114.2 689.63,-238.1 879,-720.1"
         style="fill:#9b3c12;fill-opacity:1;fill-rule:nonzero;stroke:none"
         id="path3405" />
      <path
         d="m 10643.2,11004.8 c 97.4,-73 173.1,-704.5 -381.5,-1010.5 -45.4,-25.1 168.4,-578 10.8,-761.1 -207.5,-240.9 -719.1,-206.5 -1159.92,-18.3 -318.11,135.9 -1742.82,448.3 -1841.13,499.3 116.21,690.9 -57.45,1114.2 251.77,1708.7 202.06,388.5 1077,717.9 1704.27,439.3 504.09,-223.8 545.63,-728.6 854.41,-871.7 255,47.8 433.2,110.1 561.3,14.3"
         style="fill:#ffdfc5;fill-opacity:1;fill-rule:nonzero;stroke:none"
         id="path3407" />
      <path
         d="m 7223.97,10299.1 c 211.25,-2 614.03,-419.1 1037.94,-603.8 326.93,-142.5 547.57,-41.4 518.21,39 -186.04,509.2 279.97,503.6 399.35,907 71.76,242.6 -53.59,658.7 -323.71,926.2 -190.11,188.4 -426.18,305.1 -618.16,337.1 -1045.41,-328 -875.33,-1089.5 -1013.63,-1605.5"
         style="fill:#d86f35;fill-opacity:1;fill-rule:nonzero;stroke:none"
         id="path3409" />
      <path
         d="m 9259.49,11862.2 c -205.25,82 -418.36,154.1 -871.5,77.6 773.51,-50.9 925.09,-842.9 1304.4,-986.4 143.15,-54.1 281.28,-4.2 411.11,39.1 -181.68,149.5 -506.74,735 -844.01,869.7"
         style="fill:#d86f35;fill-opacity:1;fill-rule:nonzero;stroke:none"
         id="path3411" />
      <path
         d="m 10605.2,10933.7 c 44.8,-87.8 8.8,-317.5 -153.7,-366.2 -162.4,-48.7 -382.3,31.7 -434.7,189.8 -31.02,93.5 125.3,142.9 287.8,191.6 162.5,48.7 257.3,69.4 300.6,-15.2"
         style="fill:#330a0a;fill-opacity:1;fill-rule:nonzero;stroke:none"
         id="path3413" />
      <path
         d="m 10191.9,9961.2 c 4.1,-137.3 161,-591.8 -96.8,-646.1 -520.23,-109.4 -828.05,550.2 -1056.16,715.2 365.14,-239.7 794.37,-316.3 1016.66,-30.2 34.6,-37.5 81.8,-68.1 136.3,-38.9"
         style="fill:#540e0e;fill-opacity:1;fill-rule:nonzero;stroke:none"
         id="path3415" />
      <path
         d="m 10589.4,9217.4 c 59.4,-148.5 109.6,-341 10.3,-502.7 -67.7,-110.2 -311.2,-164.3 -423.2,-57.3 -114.5,109.2 13.1,422.2 -622.38,817.3 49.21,145.9 262.58,203.9 446.48,143.1 59.5,55.8 109.2,53.9 158,41.4 110.7,-28.3 329.5,-188.2 430.8,-441.8"
         style="fill:#ef8181;fill-opacity:1;fill-rule:nonzero;stroke:none"
         id="path3417" />
      <path
         d="m 8591.39,10698.1 c 25.83,-149.3 155.41,-251.5 289.42,-228.3 134.04,23.1 221.74,163 195.92,312.3 -25.8,149.3 -155.38,251.5 -289.43,228.3 -134.01,-23.2 -221.73,-163 -195.91,-312.3"
         style="fill:#6b2e22;fill-opacity:1;fill-rule:nonzero;stroke:none"
         id="path3419" />
      <path
         d="m 8612.67,10684.4 c 24.6,-142.3 151.63,-239.2 283.7,-216.3 132.07,22.8 219.2,156.7 194.59,299.1 -24.61,142.3 -151.64,239.1 -283.71,216.3 -132.1,-22.8 -219.19,-156.7 -194.58,-299.1"
         style="fill:#ffffff;fill-opacity:1;fill-rule:nonzero;stroke:none"
         id="path3421" />
      <path
         d="m 8608.84,10678.5 c 22.46,-129.9 135.4,-218.9 252.22,-198.7 116.87,20.2 193.35,141.9 170.89,271.9 -22.49,129.9 -135.41,218.9 -252.26,198.7 -116.83,-20.2 -193.34,-141.9 -170.85,-271.9"
         style="fill:#56160f;fill-opacity:1;fill-rule:nonzero;stroke:none"
         id="path3423" />
      <path
         d="m 8842.7,10867.4 c 5.39,-31.2 32.51,-52.5 60.57,-47.7 28.08,4.8 46.46,34.1 41.04,65.3 -5.39,31.2 -32.52,52.6 -60.58,47.7 -28.06,-4.8 -46.43,-34.1 -41.03,-65.3"
         style="fill:#f9feff;fill-opacity:1;fill-rule:nonzero;stroke:none"
         id="path3425" />
      <path
         d="m 9659.82,11093.6 c 55.47,-108.4 153.87,-168.9 219.74,-135.2 65.88,33.7 74.32,148.9 18.84,257.3 -55.47,108.4 -153.87,168.9 -219.74,135.2 -65.88,-33.7 -74.31,-148.9 -18.84,-257.3"
         style="fill:#6b2e22;fill-opacity:1;fill-rule:nonzero;stroke:none"
         id="path3427" />
      <path
         d="m 9662.2,11079.9 c 52.89,-103.3 148.39,-160.1 213.31,-126.9 64.95,33.3 74.69,143.9 21.82,247.3 -52.9,103.3 -148.38,160.1 -213.34,126.9 -64.92,-33.2 -74.65,-143.9 -21.79,-247.3"
         style="fill:#ffffff;fill-opacity:1;fill-rule:nonzero;stroke:none"
         id="path3429" />
      <path
         d="m 9657.16,11081.9 c 48.31,-94.4 134.01,-147 191.45,-117.6 57.42,29.3 64.84,129.7 16.55,224 -48.28,94.4 -134.02,147 -191.43,117.6 -57.44,-29.4 -64.86,-129.7 -16.57,-224"
         style="fill:#56160f;fill-opacity:1;fill-rule:nonzero;stroke:none"
         id="path3431" />
      <path
         d="m 9730.83,11251.6 c 11.59,-22.7 32.17,-35.3 45.97,-28.2 13.79,7 15.58,31.1 3.96,53.8 -11.59,22.6 -32.17,35.3 -45.97,28.2 -13.78,-7 -15.55,-31.1 -3.96,-53.8"
         style="fill:#f9feff;fill-opacity:1;fill-rule:nonzero;stroke:none"
         id="path3433" />
      <path
         d="m 8095.38,9073.8 c -42.64,22.7 -84.38,47.5 -124.82,74 -57.86,87.7 -119.88,240.6 -181,427.7 197.38,-48.8 425.92,-104.8 639.75,-159.7 -66.85,-159.5 -172.52,-289.8 -333.93,-342"
         style="fill:#947a6c;fill-opacity:1;fill-rule:nonzero;stroke:none"
         id="path3435" />
      <path
         d="m 8067.33,9067.3 c -30.13,0 -62.74,29 -96.77,80.5 40.44,-26.5 82.18,-51.3 124.82,-74 -5.01,-1.6 -10.11,-3.2 -15.23,-4.7 -4.23,-1.2 -8.49,-1.8 -12.82,-1.8"
         style="fill:#852c2c;fill-opacity:1;fill-rule:nonzero;stroke:none"
         id="path3437" />
      <path
         d="m 8429.31,9415.8 c -213.83,54.9 -442.37,110.9 -639.75,159.7 -49.22,150.7 -97.87,323.5 -143.3,502.2 184.02,-130.1 397.02,-287.1 615.65,-382.4 85.61,-37.3 163.92,-58 232.36,-66.6 -15.61,-73.7 -36.85,-145.9 -64.96,-212.9"
         style="fill:#947a6c;fill-opacity:1;fill-rule:nonzero;stroke:none"
         id="path3439" />
      <path
         d="m 7412.65,11229.6 c -18.39,137.4 -23.31,228.3 -10.32,245.2 22.01,28.5 229.07,133.8 335.46,185.1 -76.24,-57.3 -138.81,-119.8 -183.14,-184.7 -61.08,-78 -106.84,-160.6 -142,-245.6"
         style="fill:#948c8c;fill-opacity:1;fill-rule:nonzero;stroke:none"
         id="path3441" />
      <path
         d="m 7554.65,11475.2 c 44.33,64.9 106.9,127.4 183.14,184.7 4.31,2.1 8.43,4.1 12.39,6 -78.58,-59.3 -142.78,-123.3 -195.53,-190.7"
         style="fill:#947a6c;fill-opacity:1;fill-rule:nonzero;stroke:none"
         id="path3443" />
      <path
         d="m 8494.27,9628.7 c -68.44,8.6 -146.75,29.3 -232.36,66.6 -218.63,95.3 -431.63,252.3 -615.65,382.4 -107.57,423.1 -197.11,879.1 -233.61,1151.9 35.16,85 80.92,167.6 142,245.6 52.75,67.4 116.95,131.4 195.53,190.7 19.6,9.3 34.7,16.3 42.98,19.9 -226.68,-680.1 661.23,-1113.3 715.77,-1404.2 26.86,-143.2 37.58,-406.4 -14.66,-652.9"
         style="fill:#7e3d1d;fill-opacity:1;fill-rule:nonzero;stroke:none"
         id="path3445" />
      <path
         d="m 7380.8,11610.4 c -61.71,-100.9 -667.43,-883.4 -585.16,-1208.4 123.5,-487.9 803.45,-1437.7 1245.76,-1360.1 482.93,84.8 378.47,970.4 323.93,1261.4 -54.55,290.9 -808.76,688.6 -582.08,1368.6 -0.79,86.9 -349.65,24.9 -402.45,-61.5"
         style="fill:#a34414;fill-opacity:1;fill-rule:nonzero;stroke:none"
         id="path3447" />
      <path
         d="m 10374.1,9217.6 c 17.6,-44.9 -15.3,-49.7 -35.6,-5.9 -107.1,231.2 -220.1,324.5 -337.9,406.1 174.7,-42.6 301.6,-216.4 373.5,-400.2"
         style="fill:#c44949;fill-opacity:1;fill-rule:nonzero;stroke:none"
         id="path3449" />
      <path
         d="M 9055.74,8279.8 8875.01,8549 c -36.46,1.9 -72.74,7 -89.73,-13.8 l -208.9,-255.4 c -16.99,-20.8 -16.99,-54.5 0,-75.3 l 208.9,-255.3 c 16.99,-20.8 51.21,-14 83.82,-15.3 l 186.64,270.6 c 16.98,20.8 16.98,54.5 0,75.3"
         style="fill:#f99300;fill-opacity:1;fill-rule:nonzero;stroke:none"
         id="path3451" />
      <path
         d="m 9104.35,8279.8 -208.88,255.4 c -17.01,20.8 -44.57,20.8 -61.58,0 l -208.88,-255.4 c -17.01,-20.8 -17.01,-54.5 0,-75.3 l 208.88,-255.3 c 17.01,-20.8 44.57,-20.8 61.58,0 l 208.88,255.3 c 17.01,20.8 17.01,54.5 0,75.3"
         style="fill:#fcb600;fill-opacity:1;fill-rule:nonzero;stroke:none"
         id="path3453" />
    </g>
  </g>
</svg>
