<?xml version="1.0" encoding="UTF-8" standalone="no"?>
<!-- Generator: Adobe Illustrator 19.0.0, SVG Export Plug-In . SVG Version: 6.00 Build 0)  -->

<svg
   version="1.1"
   id="Capa_1"
   x="0px"
   y="0px"
   viewBox="0 0 512.00001 512.00001"
   xml:space="preserve"
   sodipodi:docname="phonics.svg"
   width="512"
   height="512"
   inkscape:version="1.2 (1:1.2.1+202207142221+cd75a1ee6d)"
   xmlns:inkscape="http://www.inkscape.org/namespaces/inkscape"
   xmlns:sodipodi="http://sodipodi.sourceforge.net/DTD/sodipodi-0.dtd"
   xmlns="http://www.w3.org/2000/svg"
   xmlns:svg="http://www.w3.org/2000/svg"><defs
   id="defs55" /><sodipodi:namedview
   id="namedview53"
   pagecolor="#ffffff"
   bordercolor="#000000"
   borderopacity="0.25"
   inkscape:showpageshadow="2"
   inkscape:pageopacity="0.0"
   inkscape:pagecheckerboard="0"
   inkscape:deskcolor="#d1d1d1"
   showgrid="false"
   inkscape:zoom="1.2111943"
   inkscape:cx="187.00551"
   inkscape:cy="287.31972"
   inkscape:window-width="1920"
   inkscape:window-height="1031"
   inkscape:window-x="0"
   inkscape:window-y="25"
   inkscape:window-maximized="1"
   inkscape:current-layer="Capa_1" />
<path
   style="fill:#73e7e6;stroke-width:0.966649"
   d="M 222.72445,439.45519 96.106976,458.0065 C 68.623524,462.03323 42.739756,445.11672 38.294102,420.2231 L 17.812796,305.53706 C 13.367134,280.64343 32.04357,257.19877 59.527031,253.17204 L 186.1435,234.62072 c 27.48344,-4.02674 53.36719,12.88979 57.81284,37.78341 l 20.48134,114.6851 c 4.44666,24.89456 -14.22978,48.33923 -41.71323,52.36596 z"
   id="path2" />
<path
   style="fill:#65d1cb;stroke-width:0.966649"
   d="M 264.43869,387.09017 243.95738,272.40506 c -4.44568,-24.89363 -30.32942,-41.81014 -57.81289,-37.7834 l -47.30761,6.93107 c 25.30482,-0.82705 47.92212,15.51357 52.07018,38.7402 l 20.69868,115.90774 c 3.70419,20.73902 -8.47897,40.47251 -28.43008,49.04852 l 39.54777,-5.794 c 27.48447,-4.02673 46.16091,-27.4714 41.71526,-52.36502 z"
   id="path4" />
<path
   style="fill:#f26666;stroke-width:0.936122"
   d="M 301.78117,232.259 182.69355,200.82878 c -25.8491,-6.82235 -40.71848,-31.3963 -33.21113,-54.88686 L 184.06833,37.720052 C 191.57569,14.229484 218.61692,0.71681084 244.466,7.5391911 L 363.55365,38.969404 c 25.84907,6.822379 40.71846,31.396315 33.21111,54.886874 L 362.17885,202.07815 c -7.50736,23.49055 -34.54858,37.00323 -60.39768,30.18085 z"
   id="path6" />
<path
   style="fill:#dd5b5b;stroke-width:0.936122"
   d="M 363.55266,38.969404 320.16317,27.518168 c 21.83469,8.971261 33.66281,31.388275 26.78591,52.907534 L 312.21686,189.10268 c -6.93487,21.70043 -30.47037,34.90702 -54.40259,31.55249 l 43.9669,11.60383 c 25.8491,6.82238 52.89032,-6.6903 60.39768,-30.18085 L 396.76476,93.856278 c 7.50735,-23.490559 -7.36204,-48.064495 -33.2121,-54.886874 z"
   id="path8" />
<path
   style="fill:#ff9f40;stroke-width:0.852723"
   d="M 444.20811,447.29006 H 333.65187 c -23.99755,0 -43.4514,-18.45592 -43.4514,-41.22248 V 301.18251 c 0,-22.76655 19.45385,-41.22247 43.4514,-41.22247 h 110.55624 c 23.99755,0 43.4514,18.45592 43.4514,41.22247 v 104.88507 c 0,22.76656 -19.45385,41.22248 -43.4514,41.22248 z"
   id="path10" />
<path
   style="fill:#f49138;stroke-width:0.852723"
   d="m 444.20811,259.96004 h -35.40317 c 19.37331,4.36293 33.78881,20.8712 33.78881,40.58543 v 106.15916 c 0,19.71338 -14.4155,36.22248 -33.78881,40.58543 h 35.40317 c 23.99755,0 43.4514,-18.45592 43.4514,-41.22248 V 301.18251 c 0,-22.76655 -19.45385,-41.22247 -43.4514,-41.22247 z"
   id="path12" />
<g
   id="g20"
   transform="matrix(1.1542472,0,0,0.92249089,-27.841056,3.3315531)">
	<path
   style="fill:#ffffff"
   d="m 195.762,155.482 c 0.089,-0.251 0.394,-0.709 0.697,-1.167 l 52.283,-70.406 c 2.468,-3.367 7.739,-3.476 12.387,-1.826 4.773,1.694 8.797,5.102 8.59,9.271 l -3.798,87.614 c -0.053,0.547 -0.061,0.968 -0.195,1.345 -1.382,3.894 -8.311,4.688 -12.707,3.127 -2.764,-0.981 -4.587,-2.618 -4.368,-5.227 l 1.156,-18.4 -28.765,-10.209 -10.702,15.012 c -1.475,2.164 -3.922,2.285 -6.686,1.304 -4.395,-1.56 -9.318,-6.419 -7.892,-10.438 z m 55.076,-9.731 2.758,-42.441 -24.614,34.684 z"
   id="path14" />
	<path
   style="fill:#ffffff"
   d="m 90.164,358.636 c -0.914,-3.481 2.222,-6.234 5.96,-7.216 l 24.88,-6.535 c 13.408,-3.522 27.063,-2.422 31.872,15.883 2.777,10.572 0.48,18.616 -5.574,23.376 8.676,1.029 15.411,4.634 18.797,17.525 l 0.711,2.707 c 5.282,20.112 -4.037,30.276 -18.605,34.102 l -27.33,7.178 c -4.512,1.185 -7.992,-0.519 -8.703,-3.226 z m 24.859,26.959 14.438,-3.792 c 6.961,-1.828 9.128,-7.222 7.401,-13.796 -1.761,-6.704 -6.712,-9.813 -13.287,-8.087 l -14.309,3.758 z m 25.842,39.102 c 7.864,-2.065 11.387,-7.538 8.814,-17.336 l -0.542,-2.062 c -2.641,-10.055 -8.23,-12.446 -16.094,-10.38 l -14.567,3.826 7.821,29.779 z"
   id="path16" />
	<path
   style="fill:#ffffff"
   d="m 338.36231,358.48358 c -8.93,0 -13.995,4.932 -13.995,15.329 v 37.187 c 0,10.396 5.065,15.329 14.261,15.329 12.13,0 13.196,-8.664 13.595,-14.262 0.267,-4.132 3.999,-5.465 8.53,-5.465 5.998,0 8.797,1.733 8.797,8.53 0,16.128 -13.196,26.39 -31.856,26.39 -16.794,0 -30.656,-8.263 -30.656,-30.522 v -37.187 c 0,-22.259 13.995,-30.523 30.789,-30.523 18.527,0 31.723,9.863 31.723,25.325 0,6.931 -2.799,8.53 -8.664,8.53 -4.931,0 -8.53,-1.466 -8.664,-5.464 -0.265,-4.133 -1.198,-13.197 -13.86,-13.197 z"
   id="path18" />
</g>
<g
   id="g22">
</g>
<g
   id="g24">
</g>
<g
   id="g26">
</g>
<g
   id="g28">
</g>
<g
   id="g30">
</g>
<g
   id="g32">
</g>
<g
   id="g34">
</g>
<g
   id="g36">
</g>
<g
   id="g38">
</g>
<g
   id="g40">
</g>
<g
   id="g42">
</g>
<g
   id="g44">
</g>
<g
   id="g46">
</g>
<g
   id="g48">
</g>
<g
   id="g50">
</g>
<text
   xml:space="preserve"
   style="font-style:normal;font-variant:normal;font-weight:normal;font-stretch:normal;font-size:85.3333px;font-family:th;-inkscape-font-specification:th;opacity:0.8;fill:#b7c4c8;fill-rule:evenodd;stroke-width:0.863916;paint-order:fill markers stroke"
   x="131.94008"
   y="504.93436"
   id="text392"><tspan
     sodipodi:role="line"
     id="tspan390"
     x="131.94008"
     y="504.93436"
     style="font-style:normal;font-variant:normal;font-weight:bold;font-stretch:normal;font-size:85.3333px;font-family:'TH SarabunPSK';-inkscape-font-specification:'TH SarabunPSK Bold';fill:#808080;stroke-width:0.863916">การสะกดคำ</tspan></text></svg>
