<svg height="512" viewBox="0 0 512 512" width="512" xmlns="http://www.w3.org/2000/svg"><g id="Jigsaw_Puzzle"><path d="m204.9842 415.7317h45.9692v-47.3768a22.2113 22.2113 0 1 0 0-37.3807v-47.3768h-132.1342v47.4808a22.2113 22.2113 0 1 1 0 37.1723v47.481h45.9693a22.2113 22.2113 0 1 0 40.1957 0z" fill="#ffaa4d"/><path d="m313.8831 199.2754a22.2112 22.2112 0 1 1 26.24 33.3772l39.2028 27.1717 26.0392-37.5691a22.2113 22.2113 0 1 0 23.192-33.461l26.0393-37.5692-38.114-26.417a22.2113 22.2113 0 1 0 -32.3712-22.4366l-38.1141-26.4169-26.4147 38.1108a22.2113 22.2113 0 1 0 -22.4411 32.3776l-26.4148 38.1109 39.2029 27.1716a22.1038 22.1038 0 0 1 3.9537-12.45z" fill="#f88"/><path d="m383.0877 370.0208a22.2113 22.2113 0 1 0 0-40.7125v-45.7109h-47.6987a22.2112 22.2112 0 1 0 -36.7369 0h-47.6987v47.3768a22.2113 22.2113 0 1 1 0 37.3807v47.3768h47.936a22.2112 22.2112 0 1 1 36.2624 0h47.9359z" fill="#f4584c"/><path d="m250.9535 237.2273a22.2112 22.2112 0 1 1 0-39.3943v-46.37h-44.9435a22.2113 22.2113 0 1 1 -42.2463 0h-44.944v46.287a22.2113 22.2113 0 1 0 0 39.56v46.2873h46.1221a22.2114 22.2114 0 1 0 39.89 0h46.1222z" fill="#95dacd"/></g></svg>