<?xml version="1.0" encoding="UTF-8" standalone="no"?>
<svg
   height="512"
   viewBox="0 0 58 58"
   width="512"
   version="1.1"
   id="svg1319"
   sodipodi:docname="reading.svg"
   inkscape:version="1.2 (1:1.2.1+202207142221+cd75a1ee6d)"
   xmlns:inkscape="http://www.inkscape.org/namespaces/inkscape"
   xmlns:sodipodi="http://sodipodi.sourceforge.net/DTD/sodipodi-0.dtd"
   xmlns="http://www.w3.org/2000/svg"
   xmlns:svg="http://www.w3.org/2000/svg">
  <defs
     id="defs1323" />
  <sodipodi:namedview
     id="namedview1321"
     pagecolor="#ffffff"
     bordercolor="#000000"
     borderopacity="0.25"
     inkscape:showpageshadow="2"
     inkscape:pageopacity="0.0"
     inkscape:pagecheckerboard="0"
     inkscape:deskcolor="#d1d1d1"
     showgrid="false"
     inkscape:zoom="1.7128906"
     inkscape:cx="256.58381"
     inkscape:cy="328.10035"
     inkscape:window-width="1920"
     inkscape:window-height="1031"
     inkscape:window-x="0"
     inkscape:window-y="25"
     inkscape:window-maximized="1"
     inkscape:current-layer="svg1319" />
  <g
     id="Page-1"
     fill="none"
     fill-rule="evenodd"
     transform="matrix(1,0,0,0.88202658,0,9.5678654e-5)">
    <g
       id="026---Open-Book"
       fill-rule="nonzero">
      <path
         id="Shape"
         d="M 7,7.47 V 1 C 7.0002731,0.66475642 7.1685145,0.35195358 7.4480714,0.16692312 7.7276283,-0.01810735 8.0813027,-0.05074515 8.39,0.08 29,8.72 29,13.5 29,13.5 V 21 Z"
         fill="#e4c05c" />
      <path
         id="path1294"
         d="M 51,7.47 V 1 C 50.999727,0.66475642 50.831485,0.35195358 50.551929,0.16692312 50.272372,-0.01810735 49.918697,-0.05074515 49.61,0.08 29,8.72 29,13.5 29,13.5 V 21 Z"
         fill="#b19046" />
      <path
         id="path1296"
         d="m 53.55,6.19 -20,10 C 33.211745,16.357288 32.998324,16.702643 33,17.08 V 17 c 0,-0.552285 -0.447715,-1 -1,-1 h -6 c -0.552285,0 -1,0.447715 -1,1 v 0.08 c 0.0017,-0.377357 -0.211745,-0.722712 -0.55,-0.89 l -20,-10 C 4.1404817,6.0340308 3.7722721,6.0494547 3.4768822,6.2307631 3.1814922,6.4120714 3.0010489,6.7334068 3,7.08 v 39.77 c -0.00434,0.378103 0.2098857,0.724763 0.55,0.89 l 20,10 c 0.309518,0.155969 0.677728,0.140545 0.973118,-0.04076 C 24.818508,57.517929 24.998951,57.196593 25,56.85 V 57 c 0,0.552285 0.447715,1 1,1 h 6 c 0.552285,0 1,-0.447715 1,-1 v -0.15 c 10e-4,0.346593 0.181492,0.667929 0.476882,0.849237 0.29539,0.181308 0.6636,0.196732 0.973118,0.04076 l 20,-10 C 54.790114,47.574763 55.004342,47.228103 55,46.85 V 7.08 C 54.998951,6.7334068 54.818508,6.4120714 54.523118,6.2307631 54.227728,6.0494547 53.859518,6.0340307 53.55,6.19 Z"
         fill="#c03a2b" />
      <rect
         id="Rectangle-path"
         fill="#e64c3c"
         height="42"
         rx="1"
         width="8"
         x="25"
         y="16" />
      <path
         id="path1299"
         d="M 2,19 H 6.5 C 7.8807119,19 9,20.119288 9,21.5 9,22.880712 7.8807119,24 6.5,24 H 2 C 0.8954305,24 0,23.104569 0,22 v -1 c 0,-1.10457 0.8954305,-2 2,-2 z"
         fill="#fdd7ad" />
      <path
         id="path1301"
         d="M 2,29 H 6.5 C 7.8807119,29 9,30.119288 9,31.5 9,32.880712 7.8807119,34 6.5,34 H 2 C 0.8954305,34 0,33.104569 0,32 v -1 c 0,-1.10457 0.8954305,-2 2,-2 z"
         fill="#fdd7ad" />
      <path
         id="path1303"
         d="M 2,34 H 5.5 C 6.8807119,34 8,35.119288 8,36.5 8,37.880712 6.8807119,39 5.5,39 H 2 C 0.8954305,39 0,38.104569 0,37 v -1 c 0,-1.104569 0.8954305,-2 2,-2 z"
         fill="#f9c795" />
      <path
         id="path1305"
         d="m 2,24 h 6.5 c 0.6630412,0 1.298926,0.263392 1.767767,0.732233 C 10.736608,25.201074 11,25.836959 11,26.5 11,27.163041 10.736608,27.798926 10.267767,28.267767 9.798926,28.736608 9.1630412,29 8.5,29 H 2 C 0.8954305,29 0,28.104569 0,27 v -1 c 0,-1.10457 0.8954305,-2 2,-2 z"
         fill="#f9c795" />
      <path
         id="path1307"
         d="m 51,19 h 4.5 c 1.380712,0 2.5,1.119288 2.5,2.5 0,1.380712 -1.119288,2.5 -2.5,2.5 H 51 c -1.104569,0 -2,-0.895431 -2,-2 v -1 c 0,-1.10457 0.895431,-2 2,-2 z"
         fill="#fdd7ad"
         transform="rotate(180,53.5,21.5)" />
      <path
         id="path1309"
         d="m 51,29 h 4.5 c 1.380712,0 2.5,1.119288 2.5,2.5 0,1.380712 -1.119288,2.5 -2.5,2.5 H 51 c -1.104569,0 -2,-0.895431 -2,-2 v -1 c 0,-1.10457 0.895431,-2 2,-2 z"
         fill="#fdd7ad"
         transform="rotate(180,53.5,31.5)" />
      <g
         fill="#f9c795"
         id="g1315">
        <path
           id="path1311"
           d="m 52,34 h 3.5 c 1.380712,0 2.5,1.119288 2.5,2.5 0,1.380712 -1.119288,2.5 -2.5,2.5 H 52 c -1.104569,0 -2,-0.895431 -2,-2 v -1 c 0,-1.104569 0.895431,-2 2,-2 z"
           transform="rotate(180,54,36.5)" />
        <path
           id="path1313"
           d="m 49,24 h 6.5 c 1.380712,0 2.5,1.119288 2.5,2.5 0,1.380712 -1.119288,2.5 -2.5,2.5 H 49 c -1.104569,0 -2,-0.895431 -2,-2 v -1 c 0,-1.10457 0.895431,-2 2,-2 z"
           transform="rotate(180,52.5,26.5)" />
      </g>
    </g>
  </g>
  <g
     aria-label="การอ่าน"
     id="text392"
     style="font-size:9.66666px;font-family:th;-inkscape-font-specification:th;opacity:0.8;fill:#b7c4c8;fill-rule:evenodd;stroke-width:0.0978655;paint-order:fill markers stroke">
    <path
       d="m 21.576036,57.816269 h -0.599333 v -2.561665 q 0,-0.396333 -0.241666,-0.628333 -0.241667,-0.232 -0.638,-0.232 -0.58,0 -0.879666,0.493 0.454333,0.087 0.647666,0.435 -0.493,0.289999 -0.493,0.695999 v 1.797999 h -0.599332 v -1.836666 q 0,-0.405999 0.396333,-0.637999 -0.241667,-0.164333 -0.589667,-0.116 0.01933,-0.599333 0.464,-0.985999 0.406,-0.357667 1.034333,-0.357667 0.695999,0 1.092332,0.377 0.406,0.367333 0.406,1.005333 z"
       style="font-weight:bold;font-family:'TH SarabunPSK';-inkscape-font-specification:'TH SarabunPSK Bold';fill:#808080"
       id="path3552" />
    <path
       d="M 24.824023,57.816269 H 24.22469 v -2.812998 q 0,-0.270667 -0.183667,-0.435 -0.183666,-0.174 -0.502666,-0.174 -0.319,0 -0.522,0.212667 -0.203,0.212666 -0.212666,0.541333 h -0.58 q 0.029,-0.58 0.377,-0.918333 0.357666,-0.348 0.937666,-0.348 0.541333,0 0.908666,0.280333 0.377,0.270667 0.377,0.831333 z"
       style="font-weight:bold;font-family:'TH SarabunPSK';-inkscape-font-specification:'TH SarabunPSK Bold';fill:#808080"
       id="path3554" />
    <path
       d="m 27.936673,57.168603 q 0,0.309333 -0.222333,0.521999 -0.212667,0.203 -0.522,0.203 -0.309333,0 -0.531666,-0.212666 -0.212667,-0.212667 -0.212667,-0.522 0,-0.309333 0.212667,-0.522 0.222333,-0.212666 0.531666,-0.212666 0.116,0 0.145,0.0097 v -0.831332 q 0,-0.154667 -0.647666,-0.299667 -0.638,-0.154666 -1.159999,-0.241666 0.01933,-0.531667 0.280333,-0.850666 0.261,-0.328667 0.753999,-0.328667 0.203,0 0.551,0.09667 0.357666,0.087 0.512333,0.087 0.164333,0 0.183666,-0.212667 l 0.473667,0.125667 q -0.174,0.589666 -0.638,0.589666 -0.174,0 -0.502666,-0.087 -0.319,-0.087 -0.483333,-0.087 -0.425333,0 -0.483333,0.328667 0.744333,0.154666 1.246999,0.328666 0.512333,0.174 0.512333,0.599333 z m -0.415666,-0.0097 q 0,-0.135333 -0.09667,-0.232 -0.09667,-0.09667 -0.232,-0.09667 -0.135333,0 -0.232,0.09667 -0.09667,0.09667 -0.09667,0.232 0,0.135333 0.09667,0.232 0.09667,0.09667 0.232,0.09667 0.135333,0 0.232,-0.09667 0.09667,-0.09667 0.09667,-0.232 z"
       style="font-weight:bold;font-family:'TH SarabunPSK';-inkscape-font-specification:'TH SarabunPSK Bold';fill:#808080"
       id="path3556" />
    <path
       d="m 31.81299,56.946269 q 0,0.502667 -0.454333,0.744333 -0.367333,0.203 -0.947332,0.203 -0.58,0 -0.937666,-0.203 -0.435,-0.241666 -0.435,-0.744333 v -0.976332 q 0,-0.348 0.193333,-0.58 0.193333,-0.241666 0.551,-0.241666 0.309333,0 0.521999,0.212666 0.212667,0.203 0.212667,0.512333 0,0.299667 -0.212667,0.512333 -0.212666,0.212667 -0.521999,0.212667 -0.087,0 -0.145,-0.01933 v 0.299667 q 0,0.502666 0.782999,0.502666 0.792666,0 0.792666,-0.512333 v -1.855999 q 0,-0.318999 -0.299666,-0.483333 -0.251333,-0.135333 -0.618666,-0.135333 -0.918333,0 -0.995666,0.473667 h -0.58 q 0.125667,-0.976333 1.527332,-0.986 0.647667,0 1.063333,0.241667 0.502666,0.309333 0.502666,0.927999 z M 30.111658,55.87327 q 0,-0.135333 -0.09667,-0.232 -0.09667,-0.09667 -0.232,-0.09667 -0.135334,0 -0.232,0.09667 -0.09667,0.09667 -0.09667,0.232 0,0.135333 0.09667,0.232 0.09667,0.09667 0.232,0.09667 0.135333,0 0.232,-0.09667 0.09667,-0.09667 0.09667,-0.232 z"
       style="font-weight:bold;font-family:'TH SarabunPSK';-inkscape-font-specification:'TH SarabunPSK Bold';fill:#808080"
       id="path3558" />
    <path
       d="m 31.812981,53.330939 h -0.599333 v -1.363 h 0.599333 z"
       style="font-weight:bold;font-family:'TH SarabunPSK';-inkscape-font-specification:'TH SarabunPSK Bold';fill:#808080"
       id="path3560" />
    <path
       d="m 35.060979,57.816269 h -0.599333 v -2.812998 q 0,-0.270667 -0.183667,-0.435 -0.183666,-0.174 -0.502666,-0.174 -0.319,0 -0.522,0.212667 -0.202999,0.212666 -0.212666,0.541333 h -0.58 q 0.029,-0.58 0.377,-0.918333 0.357666,-0.348 0.937666,-0.348 0.541333,0 0.908666,0.280333 0.377,0.270667 0.377,0.831333 z"
       style="font-weight:bold;font-family:'TH SarabunPSK';-inkscape-font-specification:'TH SarabunPSK Bold';fill:#808080"
       id="path3562" />
    <path
       d="m 39.246629,55.98927 q 0,0.386667 -0.203,0.531666 0.377,0.212667 0.377,0.647667 0,0.309333 -0.212667,0.521999 -0.212666,0.203 -0.512333,0.203 -0.280333,0 -0.483333,-0.174 -0.203,-0.183666 -0.241666,-0.454333 -0.309333,0.154667 -0.444667,0.232 -0.232,0.145 -0.367333,0.319 h -0.608999 v -2.484332 q -0.09667,0.01933 -0.164334,0.01933 -0.309333,0 -0.521999,-0.212667 -0.212667,-0.222333 -0.212667,-0.531666 0,-0.299667 0.212667,-0.512333 0.212666,-0.212667 0.521999,-0.212667 0.328667,0 0.541333,0.222333 0.222334,0.222334 0.222334,0.560667 v 2.455331 q 0.154666,-0.116 0.695999,-0.338333 0.483333,-0.203 0.667,-0.405999 0.135333,-0.145 0.135333,-0.464 v -1.952666 h 0.599333 z m -2.532665,-1.372666 q 0,-0.135333 -0.09667,-0.231999 -0.09667,-0.09667 -0.232,-0.09667 -0.135333,0 -0.231999,0.09667 -0.09667,0.09667 -0.09667,0.231999 0,0.135334 0.09667,0.232 0.09667,0.09667 0.231999,0.09667 0.135334,0 0.232,-0.09667 0.09667,-0.09667 0.09667,-0.232 z m 2.300665,2.551999 q 0,-0.135334 -0.09667,-0.232 -0.09667,-0.09667 -0.231999,-0.09667 -0.135334,0 -0.232,0.09667 -0.09667,0.09667 -0.09667,0.232 0,0.135333 0.09667,0.232 0.09667,0.09667 0.232,0.09667 0.135333,0 0.231999,-0.09667 0.09667,-0.09667 0.09667,-0.232 z"
       style="font-weight:bold;font-family:'TH SarabunPSK';-inkscape-font-specification:'TH SarabunPSK Bold';fill:#808080"
       id="path3564" />
  </g>
</svg>
