<svg height="512" viewBox="0 0 512 512" width="512" xmlns="http://www.w3.org/2000/svg"><g id="FLAT"><path d="m320 352a40.16936 40.16936 0 0 0 -8 .80029l-.76025.37256a55.99861 55.99861 0 1 0 -110.51636-.20752 39.99888 39.99888 0 1 0 -8.72339 79.03467h128a40 40 0 0 0 0-80z" fill="#00a4ff"/><g fill="#ffde8d"><path d="m47.999 188.686h16.001v22.627h-16.001z" transform="matrix(.707 -.707 .707 .707 -125.019 98.177)"/><path d="m16 248h24v16h-24z"/><path d="m104 328h16v24h-16z"/><path d="m44.686 303.999h22.627v16.001h-22.627z" transform="matrix(.707 -.707 .707 .707 -204.215 130.981)"/></g><path d="m271.716 467.999h56.569v16.001h-56.569z" fill="#00a4ff" transform="matrix(.707 -.707 .707 .707 -248.715 351.549)"/><path d="m215.716 467.999h56.569v16.001h-56.569z" fill="#00a4ff" transform="matrix(.707 -.707 .707 .707 -265.117 311.951)"/><path d="m159.716 467.999h56.569v16.001h-56.569z" fill="#00a4ff" transform="matrix(.707 -.707 .707 .707 -281.519 272.353)"/><path d="m368 112h-23.451l20.429-19.973-11.186-11.441-32.13 31.414h-51.358l26.279-42.774 44.09-10.754-3.791-15.545-28.398 6.927 12.003-19.538-13.633-8.375-12.285 19.998-7.124-27.917-15.504 3.956 10.96 42.953-26.901 43.786-26.901-43.786 10.96-42.953-15.504-3.956-7.124 27.917-12.285-19.998-13.633 8.375 12.003 19.538-28.398-6.927-3.791 15.545 44.09 10.754 26.279 42.774h-51.358l-32.13-31.414-11.186 11.441 20.429 19.973h-23.451v16h23.451l-20.429 19.973 11.186 11.441 32.13-31.414h51.358l-26.279 42.774-44.09 10.754 3.791 15.545 28.398-6.927-12.003 19.538 13.633 8.375 12.285-19.998 7.124 27.917 15.504-3.956-10.96-42.953 26.901-43.786 26.901 43.786-10.96 42.953 15.504 3.956 7.124-27.917 12.285 19.998 13.633-8.375-12.003-19.538 28.398 6.927 3.791-15.545-44.09-10.754-26.279-42.774h51.358l32.13 31.414 11.186-11.441-20.429-19.973h23.451z" fill="#0053a5"/><path d="m464 256h-144v-16h144a16 16 0 0 0 0-32h-16v-16h16a32 32 0 0 1 0 64z" fill="#92d9ef"/><path d="m432 336h-24v-16h24a16 16 0 0 0 0-32h-88v-16h88a32 32 0 0 1 0 64z" fill="#92d9ef"/><path d="m280 240h24v16h-24z" fill="#92d9ef"/><circle cx="112" cy="256" fill="#f78f31" r="48"/><path d="m184 248h24v16h-24z" fill="#ffde8d"/><path d="m104 160h16v24h-16z" fill="#ffde8d"/><path d="m159.999 300.686h16.001v22.627h-16.001z" fill="#ffde8d" transform="matrix(.707 -.707 .707 .707 -171.411 210.177)"/><path d="m205.96256 363.21112a32.11586 32.11586 0 0 1 17.40869 22.45917 7.90677 7.90677 0 0 0 7.75917 6.32971h.144a7.93839 7.93839 0 0 0 7.77988-9.50587 48.16049 48.16049 0 0 0 -26.284-33.75109 7.91734 7.91734 0 0 0 -11.0471 9.07741l.04284.16788a7.97569 7.97569 0 0 0 4.19652 5.22279z" fill="#008afe"/><path d="m306.50794 354.33783q-.13592.04863-.27138.09823a8.04211 8.04211 0 0 0 -4.775 5.04522 47.45436 47.45436 0 0 1 -7.26718 13.60746 8.02044 8.02044 0 0 0 .59768 10.50366 8.02669 8.02669 0 0 0 12.11568-.78674 63.21033 63.21033 0 0 0 9.79707-18.4643 7.977 7.977 0 0 0 -10.19687-10.00353z" fill="#008afe"/></g></svg>