<?xml version="1.0" encoding="UTF-8" standalone="no"?>
<!-- Created with Inkscape (http://www.inkscape.org/) -->

<svg
   version="1.1"
   id="svg29181"
   width="6400"
   height="5333.3335"
   viewBox="0 0 6400 5333.3335"
   sodipodi:docname="thisthatthose.svg"
   inkscape:version="1.2 (1:1.2.1+202207142221+cd75a1ee6d)"
   xmlns:inkscape="http://www.inkscape.org/namespaces/inkscape"
   xmlns:sodipodi="http://sodipodi.sourceforge.net/DTD/sodipodi-0.dtd"
   xmlns="http://www.w3.org/2000/svg"
   xmlns:svg="http://www.w3.org/2000/svg">
  <defs
     id="defs29185">
    <clipPath
       clipPathUnits="userSpaceOnUse"
       id="clipPath29281">
      <path
         d="m 6542.76,4150.4 c -18.71,0 -42.81,31.7 -68.97,99.1 -84.22,216.9 -132.36,635.2 -209.15,635.2 -17.7,0 -36.93,-22.2 -58.47,-74.3 -40.39,-97.6 -77.82,-134.6 -109.3,-134.6 -58.16,0 -96.05,126.2 -94.99,229.7 0.37,37.1 -16.81,51.4 -43.35,51.4 -87.44,0 -276.68,-154.5 -276.68,-154.5 163.62,410.3 121.64,1654.6 556.7,2360.1 212.62,344.9 393.98,649.7 462.86,649.7 53.19,0 39.3,-181.6 -79.01,-666.8 -271.52,-1113.7 -310.97,-1645 -142.23,-2257.9 126.14,-458.4 118.01,-737.1 62.59,-737.1"
         id="path29279" />
    </clipPath>
  </defs>
  <sodipodi:namedview
     id="namedview29183"
     pagecolor="#ffffff"
     bordercolor="#000000"
     borderopacity="0.25"
     inkscape:showpageshadow="2"
     inkscape:pageopacity="0.0"
     inkscape:pagecheckerboard="0"
     inkscape:deskcolor="#d1d1d1"
     showgrid="false"
     inkscape:zoom="0.1644375"
     inkscape:cx="2645.3821"
     inkscape:cy="2183.2004"
     inkscape:window-width="1920"
     inkscape:window-height="1031"
     inkscape:window-x="0"
     inkscape:window-y="25"
     inkscape:window-maximized="1"
     inkscape:current-layer="g29191">
    <inkscape:page
       x="0"
       y="0"
       id="page29187"
       width="6400"
       height="5333.3335" />
  </sodipodi:namedview>
  <g
     id="g29189"
     inkscape:groupmode="layer"
     inkscape:label="Page 1"
     transform="matrix(1.3333333,0,0,-1.3333333,0,5333.3333)">
    <g
       id="g29191"
       transform="scale(0.1)">
      <path
         d="m 45597.3,18073.2 c -812.7,994.6 -1887.1,1803.1 -3015.5,2599.1 -1241.8,876 -2780.1,1793.6 -3778.9,2952.1 -1065.6,1236 -923.1,2200.7 -331.3,3615.7 1600.2,3826.5 551.7,7344 -2757.2,9773.2 -1609,1181.2 -3740.3,2435.6 -5807.8,2373.9 -2165.1,-64.5 -3366.1,-1849.5 -4628.2,-3353.8 -1231.2,-1467.3 -3077.7,-2600.4 -5046.3,-2499.4 -2151.2,110.3 -4004.5,1593.2 -5988.7,2284.5 -1061.3,369.8 -2306.6,495.6 -3406.4,189.3 -2104.9,-586.4 -3831.22,-2010.4 -4121.6,-4270.4 -356.63,-2776 1619.81,-5407.9 2142.61,-8056.4 425,-2153.2 -899.78,-3289.9 -2705.76,-4105.6 C 4278.08,18728.8 2755.94,17663.2 2480.7,15455.7 2206.25,13254.3 3427.6,11188.4 4929.39,9679.5 6921.3,7678.1 9868.61,7742 12625.3,7805.9 c 808.3,18.7 1600.3,37.5 2346.9,4.1 1817.3,-81.1 3574.6,-688.3 5399.2,-631.7 6079.9,-42.8 12081.2,-122.8 18144.8,420.6 1936.7,173.6 3986.1,421.1 5689.4,1433.7 2060.5,1224.9 3094.7,3541.1 2787.1,5869.6 -169,1279.3 -681.1,2297 -1395.4,3171"
         style="fill:#de8787;fill-opacity:1;fill-rule:nonzero;stroke:none"
         id="path29195" />
      <path
         d="m 43330.3,6423.1 c 0,-24 -67.7,-43.6 -151.1,-43.6 H 2638.15 c -83.42,0 -151.06,19.6 -151.06,43.6 V 6574 c 0,24.1 67.64,43.6 151.06,43.6 H 43179.2 c 83.4,0 151.1,-19.5 151.1,-43.6 v -150.9"
         style="fill:#c83737;fill-opacity:1;fill-rule:nonzero;stroke:none"
         id="path29261" />
      <path
         d="m 39599.4,1911.3 c 0,-24.1 -26.7,-43.6 -59.7,-43.6 H 23536.5 c -32.9,0 -59.6,19.5 -59.6,43.6 v 150.9 c 0,24.1 26.7,43.6 59.6,43.6 h 16003.2 c 33,0 59.7,-19.5 59.7,-43.6 v -150.9"
         style="fill:#c83737;fill-opacity:1;fill-rule:nonzero;stroke:none"
         id="path29263" />
      <path
         d="m 25335.7,614.199 c 0,-22.601 -24.8,-40.898 -55.4,-40.898 H 10390.1 c -30.6,0 -55.5,18.297 -55.5,40.898 v 141.703 c 0,22.598 24.9,40.899 55.5,40.899 h 14890.2 c 30.6,0 55.4,-18.301 55.4,-40.899 V 614.199"
         style="fill:#c83737;fill-opacity:1;fill-rule:nonzero;stroke:none"
         id="path29265" />
      <path
         d="m 39891.3,4847.9 c 0,-22.6 -6.7,-40.9 -15,-40.9 h -4031.5 c -8.3,0 -15.1,18.3 -15.1,40.9 v 141.7 c 0,22.6 6.8,40.9 15.1,40.9 h 4031.5 c 8.3,0 15,-18.3 15,-40.9 v -141.7"
         style="fill:#c83737;fill-opacity:1;fill-rule:nonzero;stroke:none"
         id="path29267" />
      <path
         d="m 12665.4,2030.3 c 0,-24 -17.3,-43.6 -38.5,-43.6 H 2290.84 c -21.28,0 -38.54,19.6 -38.54,43.6 v 150.9 c 0,24.1 17.26,43.6 38.54,43.6 H 12626.9 c 21.2,0 38.5,-19.5 38.5,-43.6 v -150.9"
         style="fill:#c83737;fill-opacity:1;fill-rule:nonzero;stroke:none"
         id="path29269" />
      <path
         d="m 14832.1,4453.7 c 0,-24 -17.3,-43.5 -38.6,-43.5 H 4457.52 c -21.28,0 -38.54,19.5 -38.54,43.5 v 150.9 c 0,24.1 17.26,43.7 38.54,43.7 H 14793.5 c 21.3,0 38.6,-19.6 38.6,-43.7 v -150.9"
         style="fill:#c83737;fill-opacity:1;fill-rule:nonzero;stroke:none"
         id="path29271" />
      <path
         d="m 7225.08,8060.3 c -3.59,1.8 -7.19,3.3 -10.84,4.9 l -31.26,4771.2 -538.21,5.4 31.29,-4771.4 C 6034.15,7789.7 5539.09,6505.1 5523.6,4957.4 c -1.73,-172.9 2.56,-342.9 12.67,-508.5 176.09,164.6 350.11,324.9 350.11,324.9 l 123.92,-905.1 198.03,622.7 171.83,-836.7 268.75,619.6 141,-851.9 205.95,866.5 203.66,-649.1 175.68,1158.9 136.96,-918.3 100.29,716.6 90.97,-192 149.66,335.8 86.55,-638.9 124.21,463.9 172.95,-549 c 40.79,288.9 64.19,595.3 67.39,912.8 15.39,1539 -448.56,2828 -1079.1,3130.7"
         style="fill:#c83737;fill-opacity:1;fill-rule:nonzero;stroke:none"
         id="path29273" />
      <g
         id="g29275"
         style="fill:#c83737">
        <g
           id="g29277"
           clip-path="url(#clipPath29281)"
           style="fill:#c83737">
          <path
             d="M 5681.85,4150.4 H 6754.6 V 7812.2 H 5681.85 Z"
             style="fill:#c83737;fill-opacity:1;fill-rule:nonzero;stroke:none"
             id="path29283" />
        </g>
      </g>
      <path
         d="m 34548.6,11969.5 -110.9,-7088.3 c -26,-806.5 -1117.6,-1624 -3268.3,-2261 -3077.9,-911.7 -7491.1,-1207.1 -11299.4,-866.4 -1514,135.4 -2932.6,371.4 -4133.4,709.2 -1055.5,296.8 -1843.1,644.2 -2363.4,1018.2 -520.5,373.8 -773.8,774.5 -760.9,1177.8 l 110.9,7088.3 21825.4,222.2"
         style="fill:#353d3f;fill-opacity:1;fill-rule:nonzero;stroke:none"
         id="path29285" />
      <path
         d="m 23036.1,1733.3 c -1079.4,0 -2141.1,46 -3155.7,136.8 -1561.4,139.7 -2945,377 -4112.2,705.3 -1018.9,286.5 -1801.8,623.2 -2326.9,1000.6 -484.4,348 -724.1,711.1 -712.2,1079.2 l 109.1,6976.5 21591.8,219.9 -109,-6968.5 c -25,-774.2 -1185.9,-1558.9 -3184.8,-2151 -2142.9,-634.7 -5095.3,-998.8 -8100.1,-998.8"
         style="fill:#a02c2c;fill-opacity:1;fill-rule:nonzero;stroke:none"
         id="path29287" />
      <path
         d="m 19870,1753.8 c -1514,135.4 -2932.6,371.4 -4133.4,709.2 -1055.5,296.8 -1843.1,644.2 -2363.4,1018.2 -508.3,365.1 -761.8,755.7 -761.3,1149.4 0,9.5 0.1,18.9 0.4,28.4 l 110.9,7088.3 7594.3,77.3 -14,-116.9 -7465.3,-76 -109.1,-6976.5 c -11.9,-368.1 227.8,-731.2 712.2,-1079.2 525.1,-377.4 1308,-714.1 2326.9,-1000.6 1162,-326.9 2538.3,-563.5 4091.3,-703.4 3.3,-40.5 6.9,-80 10.5,-118.2"
         style="fill:#454f52;fill-opacity:1;fill-rule:nonzero;stroke:none"
         id="path29289" />
      <path
         d="m 19859.5,1872 c -1553,139.9 -2929.3,376.5 -4091.3,703.4 -1018.9,286.5 -1801.8,623.2 -2326.9,1000.6 -484.4,348 -724.1,711.1 -712.2,1079.2 l 109.1,6976.5 7465.3,76 -494.2,-4123.3 c 0,0 -100.3,-3916.5 50.2,-5712.4"
         style="fill:#a02c2c;fill-opacity:1;fill-rule:nonzero;stroke:none"
         id="path29291" />
      <path
         d="M 23507.8,7897.6 6445.28,12696.3 23829.6,17845.8 40892.1,13047.1 23507.8,7897.6"
         style="fill:#232b2d;fill-opacity:1;fill-rule:nonzero;stroke:none"
         id="path29293" />
      <path
         d="M 23527.8,8513.2 6465.22,13311.9 23849.6,18461.5 40912.1,13662.7 23527.8,8513.2"
         style="fill:#353d3f;fill-opacity:1;fill-rule:nonzero;stroke:none"
         id="path29295" />
      <path
         d="M 6886.11,13314.8 23850.4,18340 40491.2,13659.8 23526.9,8634.8 6886.11,13314.8"
         style="fill:#d35f5f;fill-opacity:1;fill-rule:nonzero;stroke:none"
         id="path29297" />
      <path
         d="m 6465.22,13311.9 -19.94,-615.6 17062.52,-4798.7 20,615.6 -17062.58,4798.7"
         style="fill:#c83737;fill-opacity:1;fill-rule:nonzero;stroke:none"
         id="path29299" />
      <path
         d="m 23507.8,7897.6 20,615.6 17384.3,5149.5 -20,-615.6 -17384.3,-5149.5"
         style="fill:#c83737;fill-opacity:1;fill-rule:nonzero;stroke:none"
         id="path29301" />
      <path
         d="m 7785.9,27352.6 c -12.94,5.1 -21.37,18.4 -19.74,32.9 1.94,17.4 17.6,30 35.03,28 0.68,-0.1 72.1,-8.1 200.6,-24.2 17.35,-2.2 29.69,-18 27.51,-35.4 -2.19,-17.3 -18.03,-29.7 -35.39,-27.5 -128.04,16.1 -199.04,24 -199.78,24.1 -2.88,0.3 -5.64,1 -8.23,2.1"
         style="fill:#15878a;fill-opacity:1;fill-rule:nonzero;stroke:none"
         id="path29303" />
      <path
         d="m 16045.5,17194 c -5.2,16.6 -23.1,25.8 -39.7,20.6 -128.2,-40.8 -259.9,-78.4 -391.7,-111.8 -16.9,-4.4 -27.2,-21.6 -22.9,-38.6 2.6,-10.2 9.9,-18 19,-21.6 6,-2.4 12.8,-3 19.5,-1.3 133,33.8 266,71.8 395.2,112.8 16.8,5.3 26,23.2 20.6,39.9 z m 761.4,298.5 c -7.3,16 -26.1,22.9 -42,15.6 -122,-56.2 -248.2,-109.6 -375,-158.5 -16.3,-6.3 -24.4,-24.7 -18.1,-41 3.3,-8.6 9.9,-14.9 17.8,-18 7.2,-2.9 15.4,-3.2 23.2,-0.1 128,49.4 255.4,103.2 378.7,160 15.8,7.3 22.8,26.1 15.4,42 z m 716.6,394.2 c -9.4,14.8 -29,19.1 -43.7,9.8 -113.3,-71.9 -231.3,-141.2 -351,-206.2 -15.3,-8.3 -21,-27.6 -12.7,-42.9 3.8,-6.8 9.5,-11.7 16.1,-14.3 8.5,-3.4 18.3,-3.1 26.9,1.5 120.9,65.6 240.2,135.7 354.7,208.4 14.7,9.4 19.1,28.9 9.7,43.7 z m 654.2,490.6 c -11.4,13.2 -31.5,14.7 -44.7,3.2 -101.4,-87.5 -208.3,-173 -317.7,-253.9 -14.1,-10.4 -17,-30.3 -6.6,-44.4 3.6,-4.9 8.4,-8.4 13.7,-10.5 9.8,-4 21.4,-2.9 30.6,3.9 110.7,82 218.9,168.4 321.4,256.9 13.2,11.5 14.8,31.5 3.3,44.8 z m 570.4,585.5 c -13.4,11.2 -33.4,9.4 -44.6,-4 -85.6,-102.5 -177.6,-203.7 -273.4,-300.7 -12.3,-12.4 -12.2,-32.5 0.2,-44.9 3.1,-3 6.7,-5.3 10.6,-6.9 11.4,-4.6 25,-2.1 34.3,7.2 97,98.3 190.2,200.8 276.9,304.7 11.3,13.4 9.4,33.4 -4,44.6 z m 460.4,675.2 c -15.3,8.6 -34.6,3.2 -43.2,-12.2 -65.3,-116.2 -137.8,-232 -215.5,-344.1 -9.9,-14.3 -6.3,-34.1 8,-44 2,-1.4 4.1,-2.5 6.3,-3.5 13.5,-5.3 29.2,-0.9 37.8,11.5 78.9,113.7 152.4,231.1 218.7,349.1 8.6,15.3 3.1,34.7 -12.1,43.2 z m 318.8,752.1 c -16.7,5.1 -34.5,-4.2 -39.7,-20.9 -28.4,-90.8 -60.8,-182.4 -96.7,-272.1 -14.3,-35.9 -29.4,-72.2 -44.9,-107.9 -7,-16 0.3,-34.7 16.4,-41.7 l 0.9,-0.4 c 15.8,-6.3 33.9,1.1 40.8,16.8 15.8,36.4 31.1,73.2 45.7,109.7 36.4,91.2 69.5,184.4 98.3,276.8 5.2,16.7 -4.2,34.5 -20.8,39.7 z m 144.4,803.2 c -17.4,1.2 -32.6,-12.1 -33.8,-29.5 -9.1,-133.4 -26.5,-268.5 -51.9,-401.6 -2.8,-15.2 5.6,-29.9 19.4,-35.4 1.8,-0.7 3.8,-1.3 5.8,-1.7 17.3,-3.3 33.9,8.1 37.1,25.3 25.8,135.5 43.6,273.2 52.9,409.1 1.2,17.5 -12,32.6 -29.5,33.8 z m -16.1,789.1 c -3.1,17.1 -19.6,28.6 -36.9,25.5 -17.2,-3.2 -28.6,-19.7 -25.5,-36.9 24.1,-132.5 40,-267.9 47.5,-402.2 0.7,-12.7 8.8,-23.3 19.9,-27.7 4.1,-1.6 8.7,-2.5 13.4,-2.2 17.5,1 30.9,15.9 29.9,33.4 -7.5,136.9 -23.8,274.9 -48.3,410.1 z m -98.6,400.7 c -40.5,129.9 -89.6,259.7 -146,385.9 -7.2,15.9 -25.9,23.1 -41.9,15.9 -15.9,-7 -23.1,-25.8 -16,-41.7 55.4,-124 103.6,-251.5 143.4,-379 2.9,-9.4 10,-16.6 18.5,-20 6.6,-2.6 14,-3.1 21.2,-0.8 16.7,5.2 26.1,23 20.8,39.7 z M 8813.71,27277.8 c -27.81,4.1 -55.57,8.2 -83.31,12.2 -7.48,1.1 -15.02,2.2 -22.49,3.3 -2.63,0.4 -5.19,0.8 -7.82,1.1 -8.47,1.2 -16.92,2.5 -25.33,3.7 -90.2,13 -179.55,25.6 -266.94,37.7 -17.31,2.4 -33.3,-9.8 -35.68,-27.1 l -0.26,-2.2 c -0.26,-4.2 0.32,-8.4 1.57,-12.2 1.56,-4.8 4.33,-9.1 7.94,-12.6 2.88,-2.9 6.41,-5.2 10.35,-6.8 2.37,-0.9 4.88,-1.6 7.49,-2 24.21,-3.3 48.61,-6.7 73.15,-10.1 h 0.19 c 83.19,-11.6 167.89,-23.7 253.12,-36.2 2.08,-0.2 4.19,-0.6 6.29,-0.9 24.14,-3.5 48.28,-7 72.48,-10.6 17.33,-2.5 33.4,9.4 36.02,26.7 2.56,17.4 -9.44,33.4 -26.77,36 z M 19221.9,23135.5 c -68.4,116.4 -144.8,232.1 -227,344 -10.4,14.1 -30.2,17.1 -44.4,6.8 -14,-10.4 -17,-30.3 -6.7,-44.3 80.9,-110.2 156.2,-224.2 223.4,-338.7 3.7,-6.3 9.3,-10.8 15.6,-13.3 8.8,-3.5 19,-3.1 27.8,2.1 15.1,8.9 20.2,28.3 11.3,43.4 z m -9598.36,4015.3 c -80.24,13.4 -161.12,26.6 -241.76,39.5 -29.19,4.6 -58.32,9.3 -87.38,13.9 -7.35,1.2 -14.63,2.3 -21.91,3.5 -17.91,2.9 -35.75,5.6 -53.54,8.4 -17.31,2.7 -33.51,-9.1 -36.22,-26.4 -2.35,-14.8 6.04,-28.9 19.5,-34.3 2.15,-0.9 4.45,-1.5 6.89,-1.9 18.28,-2.9 36.61,-5.8 54.9,-8.7 7.35,-1.2 14.77,-2.3 22.1,-3.5 29.41,-4.6 58.91,-9.4 88.39,-14.1 79.63,-12.8 159.43,-25.8 238.66,-38.9 17.26,-2.9 33.59,8.8 36.47,26.1 2.84,17.2 -8.86,33.6 -26.1,36.4 z m 807.36,-141.1 c -133.3,24.6 -269.1,48.9 -403.4,72.3 -17.2,3 -33.62,-8.5 -36.64,-25.7 -2.55,-15 5.83,-29.4 19.54,-34.9 1.9,-0.8 4.1,-1.4 6.3,-1.8 134,-23.4 269.6,-47.7 402.8,-72.2 17.2,-3.1 33.7,8.3 36.9,25.5 3.1,17.2 -8.2,33.7 -25.5,36.8 z m 804.8,-155.4 c -32.3,6.5 -64.8,13.1 -97.4,19.6 -33.8,6.8 -67.7,13.6 -101.6,20.2 -7.4,1.5 -14.7,2.9 -22,4.4 -60.3,11.9 -120.7,23.7 -181,35.3 -17.2,3.4 -33.8,-7.8 -37.2,-25 -2.8,-15.2 5.5,-29.9 19.4,-35.5 1.8,-0.7 3.8,-1.3 5.8,-1.7 53.8,-10.4 107.8,-20.9 161.7,-31.5 7.4,-1.5 14.8,-3 22.2,-4.4 33.5,-6.6 66.9,-13.3 100.3,-20 39.3,-7.8 78.4,-15.7 117.2,-23.6 17.2,-3.4 33.8,7.7 37.4,24.8 3.5,17.1 -7.6,33.9 -24.8,37.4 z m 7499.8,-3054.8 c -17.4,19.6 -35.5,39.5 -53.6,59.1 -72.1,78.4 -151.7,157.2 -236.2,234.1 -13,11.8 -33,10.8 -44.9,-2.1 -11.7,-13 -10.7,-33 2.2,-44.8 83.2,-75.6 161.4,-153.1 232.4,-230.1 17.8,-19.4 35.5,-39 52.8,-58.4 3.4,-3.8 7.4,-6.6 11.9,-8.3 10.7,-4.3 23.5,-2.5 32.8,5.7 13,11.6 14.3,31.7 2.6,44.8 z m -6698.1,2883.9 c -131.6,29.5 -266.3,58.9 -400.5,87.5 -17.1,3.6 -33.9,-7.3 -37.6,-24.4 -3.3,-15.4 5.2,-30.5 19.3,-36.1 1.6,-0.6 3.4,-1.1 5.1,-1.5 134,-28.6 268.5,-58 399.8,-87.4 17.1,-3.8 34,6.9 37.8,24.1 3.9,17 -6.9,34 -23.9,37.8 z m 797.8,-187.8 c -130.5,32.3 -264.6,64.7 -398.4,96.2 -17.1,4 -34.1,-6.6 -38.1,-23.7 -3.6,-15.4 4.8,-30.9 19.1,-36.6 1.4,-0.6 2.9,-1.1 4.5,-1.5 133.5,-31.4 267.4,-63.7 397.7,-95.9 16.9,-4.2 34.2,6.1 38.4,23.1 4.2,17 -6.1,34.2 -23.2,38.4 z m 5293.5,-2140 c -104.6,79.6 -217.7,159.5 -336.1,237.3 -14.5,9.6 -34.2,5.6 -43.8,-9 -9.6,-14.7 -5.6,-34.3 9.1,-43.9 117.1,-77.1 228.9,-156.1 332.4,-234.8 2.3,-1.8 4.8,-3.1 7.4,-4.2 12.9,-5.2 28.1,-1.3 37,10.2 10.5,13.9 7.9,33.9 -6,44.4 z m -4500.6,1933.1 c -129.3,35.7 -262.4,71.3 -395.6,106 -17,4.4 -34.3,-5.7 -38.7,-22.7 -4.1,-15.6 4.2,-31.6 18.9,-37.4 1.2,-0.5 2.4,-0.9 3.8,-1.2 132.8,-34.7 265.7,-70.2 394.9,-105.7 16.8,-4.7 34.2,5.2 38.9,22.1 4.6,16.9 -5.3,34.4 -22.2,38.9 z M 17443,24808.8 c -114.2,66.3 -235.3,132.9 -359.8,197.8 -15.6,8.2 -34.7,2.1 -42.8,-13.4 -8.1,-15.5 -2.1,-34.7 13.4,-42.8 123.8,-64.5 243.9,-130.5 357.3,-196.4 1.4,-0.8 2.8,-1.5 4.3,-2.1 14.3,-5.7 31.1,-0.2 39,13.6 8.8,15.1 3.7,34.5 -11.4,43.3 z m -3027.5,1250.9 c -127.9,39.3 -260.1,78.9 -392.9,117.5 -16.8,4.9 -34.4,-4.8 -39.3,-21.6 -4.6,-15.8 3.6,-32.2 18.6,-38.2 1,-0.4 1.9,-0.7 2.9,-1.1 132.6,-38.5 264.4,-77.9 392.1,-117.3 16.7,-5.1 34.4,4.3 39.6,21 5.1,16.8 -4.1,34.4 -21,39.7 z m 779.8,-255.6 c -126.2,44 -256.8,88.2 -388.5,131.3 -16.6,5.4 -34.5,-3.6 -39.9,-20.3 -5.3,-15.9 2.9,-33.1 18.3,-39.2 l 1.9,-0.7 c 131.2,-43 261.6,-87 387.3,-130.9 16.6,-5.8 34.6,2.9 40.4,19.5 5.8,16.5 -2.9,34.6 -19.5,40.3 z m 1520.2,-614.8 c -119.8,56.8 -245.5,113.8 -373.5,169.4 -15,6.4 -32,0.7 -39.9,-12.9 -0.7,-1.1 -1.3,-2.3 -1.8,-3.5 -7.1,-16 0.4,-34.7 16.4,-41.7 24.6,-10.7 49.3,-21.5 73.8,-32.4 v 0 c 101.9,-44.9 201.8,-90.7 297.9,-136.2 l 1.9,-0.8 c 15.4,-6.1 33.2,0.7 40.3,15.8 7.6,15.9 0.8,34.8 -15.1,42.3 z m -752,327.5 c -11,4.5 -22,8.9 -33.1,13.3 -113.1,45.1 -230.7,90.5 -349.3,134.8 -16.4,6.1 -34.7,-2.2 -40.8,-18.6 -6,-16.2 2,-34.1 18,-40.5 l 0.6,-0.3 c 118.3,-44.1 235.4,-89.3 348.1,-134.3 10.9,-4.3 21.9,-8.7 32.8,-13.2 h 0.2 c 16.2,-6.4 34.6,1.4 41.1,17.7 6.5,16.2 -1.4,34.6 -17.6,41.1"
         style="fill:#15878a;fill-opacity:1;fill-rule:nonzero;stroke:none"
         id="path29305" />
      <path
         d="m 15016.2,16918 c -9.9,4 -17.6,12.9 -19.6,24.3 -2.8,17.3 8.9,33.6 26.1,36.4 65.9,11.1 132.4,23 197.6,35.8 17.2,3.3 33.8,-7.9 37.2,-25.1 3.3,-17.1 -7.9,-33.8 -25.1,-37.2 -65.7,-12.7 -132.7,-24.9 -199.3,-36 -5.9,-0.9 -11.7,-0.2 -16.9,1.8"
         style="fill:#15878a;fill-opacity:1;fill-rule:nonzero;stroke:none"
         id="path29307" />
      <path
         d="m 8689.93,28883.7 42.53,-1674.9 -6419.3,1333.1 z"
         style="fill:#000000;fill-opacity:1;fill-rule:nonzero;stroke:none"
         id="path29309" />
      <path
         d="m 2486.58,28528.8 6181.55,331.3 41.23,-1623.7 z"
         style="fill:#ffffff;fill-opacity:1;fill-rule:nonzero;stroke:none"
         id="path29311" />
      <path
         d="M 2313.33,28541.9 8949.86,29621 8696.81,28629.7 Z"
         style="fill:#000000;fill-opacity:1;fill-rule:nonzero;stroke:none"
         id="path29313" />
      <path
         d="m 8919.7,29593.4 -240.35,-941.5 -6063.04,-83.4 z"
         style="fill:#ffffff;fill-opacity:1;fill-rule:nonzero;stroke:none"
         id="path29315" />
      <path
         d="m 8452.06,27950.9 280.4,-742.1 -2163.92,378.8 z"
         style="fill:#000000;fill-opacity:1;fill-rule:nonzero;stroke:none"
         id="path29317" />
      <path
         d="m 6692.33,27588.6 1745.46,336.7 259.83,-687.7 z"
         style="fill:#ffffff;fill-opacity:1;fill-rule:nonzero;stroke:none"
         id="path29319" />
      <path
         d="m 2313.16,28541.9 4701.48,-2469.4 1437.42,1878.4 z"
         style="fill:#000000;fill-opacity:1;fill-rule:nonzero;stroke:none"
         id="path29321" />
      <path
         d="M 2424.59,28508.7 8409.75,27932.5 7008.35,26101 Z"
         style="fill:#ffffff;fill-opacity:1;fill-rule:nonzero;stroke:none"
         id="path29323" />
      <path
         d="m 36112.7,11308.6 c 156.9,-193.7 -124.7,-703.8 -629.2,-703.8 H 10947.1 c -504.5,0 -783,510.1 -622.4,703.8 l 3286.4,3617.7 c 87.9,106.1 455.7,191.5 818.7,191.5 h 17656.8 c 363,0 729.2,-85.4 815.1,-191.5 l 3211,-3617.7"
         style="fill:#a02c2c;fill-opacity:1;fill-rule:nonzero;stroke:none"
         id="path29325" />
      <path
         d="m 36112.7,11308.6 c 156.9,-193.7 -124.7,-355.8 -629.2,-355.8 H 10947.1 c -504.5,0 -783,162.1 -622.4,355.8 l 3286.4,3965.8 c 87.9,106.1 455.7,191.5 818.7,191.5 h 17656.8 c 363,0 729.2,-85.4 815.1,-191.5 l 3211,-3965.8"
         style="fill:#000000;fill-opacity:1;fill-rule:nonzero;stroke:none"
         id="path29327" />
      <path
         d="m 10947.1,10997.8 c -369.4,0 -575.3,86.4 -615.5,171.9 -5.6,12.1 -23,49 27.8,110.1 l 3286.3,3965.8 c 68.7,82.9 407.6,175.2 784.1,175.2 h 17656.8 c 376.3,0 713.2,-92.1 780.1,-174.8 l 3211,-3965.7 c 48.9,-60.5 31.5,-97.1 25.7,-109.1 -41.1,-86.3 -248.8,-173.4 -619.9,-173.4 H 10947.1"
         style="fill:#ffffff;fill-opacity:1;fill-rule:nonzero;stroke:none"
         id="path29329" />
      <path
         d="m 27049.5,11406.3 c -21.6,-134.8 -223,-238.1 -491.4,-238.1 h -6681.6 c -266.3,0 -464.8,101.8 -486.2,235.2 0.7,5.2 1.7,10.6 3.2,16 l 340.3,1333.8 c 34,133.8 283.5,241.3 554.9,241.3 h 5892.9 c 271.4,0 518.9,-107.5 550.5,-241.3 l 314.9,-1333.8 c 1,-4.4 1.9,-8.8 2.5,-13.1"
         style="fill:#ff8080;fill-opacity:1;fill-rule:nonzero;stroke:none"
         id="path29331" />
      <path
         d="m 14650.5,13445.3 c -25.7,-40.1 -193.9,-73.1 -373.8,-73.1 h -724.2 c -179.8,0 -302.5,33 -272.8,73.1 l 91.1,122.8 c 29,39.2 196.9,71 373.2,71 h 710.1 c 176.4,0 300.2,-31.8 275.1,-71 l -78.7,-122.8"
         style="fill:#ff8080;fill-opacity:1;fill-rule:nonzero;stroke:none"
         id="path29333" />
      <path
         d="m 15794.1,13445.3 c -22.3,-40.1 -167,-73.1 -321.6,-73.1 h -478.8 c -154.5,0 -260,33 -234.6,73.1 l 77.7,122.8 c 24.7,39.2 168.8,71 320.3,71 h 469.5 c 151.5,0 257.7,-31.8 235.9,-71 l -68.4,-122.8"
         style="fill:#ff8080;fill-opacity:1;fill-rule:nonzero;stroke:none"
         id="path29335" />
      <path
         d="m 16946.1,13445.3 c -18.9,-40.1 -167.6,-73.1 -330.4,-73.1 h -504.6 c -162.8,0 -277.7,33 -255.6,73.1 l 67.8,122.8 c 21.6,39.2 169.8,71 329.4,71 h 494.8 c 159.6,0 275.1,-31.8 256.6,-71 l -58,-122.8"
         style="fill:#ff8080;fill-opacity:1;fill-rule:nonzero;stroke:none"
         id="path29337" />
      <path
         d="m 25956.3,13445.3 c 7.6,-40.1 -84.2,-73.1 -204.1,-73.1 h -8526.3 c -119.9,0 -202.6,33 -184,73.1 l 57.1,122.8 c 18.2,39.2 129.2,71 246.7,71 h 8360 c 117.6,0 219.8,-31.8 227.3,-71 l 23.3,-122.8"
         style="fill:#ff8080;fill-opacity:1;fill-rule:nonzero;stroke:none"
         id="path29339" />
      <path
         d="m 27002,13445.3 c 10.7,-40.1 -78.6,-73.1 -198.5,-73.1 h -538.4 c -119.8,0 -224.4,33 -232.2,73.1 l -24.1,122.8 c -7.6,39.2 82.3,71 199.8,71 h 527.9 c 117.6,0 222.2,-31.8 232.7,-71 l 32.8,-122.8"
         style="fill:#ff8080;fill-opacity:1;fill-rule:nonzero;stroke:none"
         id="path29341" />
      <path
         d="m 28047.4,13445.3 c 13.9,-40.1 -72.9,-73.1 -192.8,-73.1 h -538.4 c -119.9,0 -226.9,33 -237.9,73.1 l -33.5,122.8 c -10.7,39.2 76.8,71 194.4,71 h 527.9 c 117.5,0 224.6,-31.8 238.1,-71 l 42.2,-122.8"
         style="fill:#ff8080;fill-opacity:1;fill-rule:nonzero;stroke:none"
         id="path29343" />
      <path
         d="m 29099.8,13445.3 c 16.9,-40.1 -67.3,-73.1 -187.2,-73.1 h -538.3 c -119.9,0 -229.5,33 -243.6,73.1 l -43,122.8 c -13.7,39.2 71.4,71 188.9,71 h 527.9 c 117.5,0 227.1,-31.8 243.6,-71 l 51.7,-122.8"
         style="fill:#ff8080;fill-opacity:1;fill-rule:nonzero;stroke:none"
         id="path29345" />
      <path
         d="m 30145.3,13445.3 c 19.9,-40.1 -61.7,-73.1 -181.6,-73.1 h -538.4 c -119.9,0 -232,33 -249.2,73.1 l -52.4,122.8 c -16.7,39.2 65.9,71 183.4,71 h 527.9 c 117.5,0 229.6,-31.8 249.1,-71 l 61.2,-122.8"
         style="fill:#ff8080;fill-opacity:1;fill-rule:nonzero;stroke:none"
         id="path29347" />
      <path
         d="m 15563.1,13740.2 c -22.5,-38.4 -136.9,-69.9 -254.2,-69.9 h -1655.5 c -117.3,0 -189.8,31.5 -161.3,69.9 l 87.2,117.5 c 27.8,37.5 144.6,68 259.6,68 h 1623.9 c 115.1,0 191.3,-30.5 169.3,-68 l -69,-117.5"
         style="fill:#ff8080;fill-opacity:1;fill-rule:nonzero;stroke:none"
         id="path29349" />
      <path
         d="m 16598.7,13740.2 c -19.5,-38.4 -131.5,-69.9 -248.8,-69.9 h -514.1 c -117.3,0 -195,31.5 -172.8,69.9 l 68.1,117.5 c 21.7,37.5 133.5,68 248.5,68 h 504.3 c 115,0 193.6,-30.5 174.6,-68 l -59.8,-117.5"
         style="fill:#ff8080;fill-opacity:1;fill-rule:nonzero;stroke:none"
         id="path29351" />
      <path
         d="m 17478.3,13740.2 c -17,-38.4 -126.9,-69.9 -244.2,-69.9 h -363.6 c -117.2,0 -197.4,31.5 -178.1,69.9 l 58.9,117.5 c 18.8,37.5 128.3,68 243.3,68 h 356.6 c 115.1,0 195.7,-30.5 179.1,-68 l -52,-117.5"
         style="fill:#ff8080;fill-opacity:1;fill-rule:nonzero;stroke:none"
         id="path29353" />
      <path
         d="m 18357.9,13740.2 c -14.4,-38.4 -122.3,-69.9 -239.6,-69.9 h -363.5 c -117.3,0 -199.5,31.5 -182.8,69.9 l 51.2,117.5 c 16.3,37.5 123.7,68 238.8,68 h 356.6 c 115,0 197.7,-30.5 183.5,-68 l -44.2,-117.5"
         style="fill:#ff8080;fill-opacity:1;fill-rule:nonzero;stroke:none"
         id="path29355" />
      <path
         d="m 19237.5,13740.2 c -11.9,-38.4 -117.6,-69.9 -234.9,-69.9 H 18639 c -117.3,0 -201.6,31.5 -187.4,69.9 l 43.4,117.5 c 13.8,37.5 119.3,68 234.3,68 h 356.6 c 115.1,0 199.7,-30.5 188.1,-68 l -36.5,-117.5"
         style="fill:#ff8080;fill-opacity:1;fill-rule:nonzero;stroke:none"
         id="path29357" />
      <path
         d="m 20117.1,13740.2 c -9.4,-38.4 -113,-69.9 -230.3,-69.9 h -363.6 c -117.3,0 -203.6,31.5 -192,69.9 l 35.7,117.5 c 11.4,37.5 114.7,68 229.8,68 h 356.6 c 115,0 201.7,-30.5 192.5,-68 l -28.7,-117.5"
         style="fill:#ff8080;fill-opacity:1;fill-rule:nonzero;stroke:none"
         id="path29359" />
      <path
         d="m 20996.7,13740.2 c -6.8,-38.4 -108.4,-69.9 -225.7,-69.9 h -363.5 c -117.3,0 -205.8,31.5 -196.7,69.9 l 27.9,117.5 c 8.9,37.5 110.3,68 225.3,68 h 356.6 c 115,0 203.8,-30.5 197.1,-68 l -21,-117.5"
         style="fill:#ff8080;fill-opacity:1;fill-rule:nonzero;stroke:none"
         id="path29361" />
      <path
         d="m 21876.3,13740.2 c -4.3,-38.4 -103.8,-69.9 -221,-69.9 h -363.6 c -117.3,0 -207.8,31.5 -201.3,69.9 l 20.1,117.5 c 6.5,37.5 105.8,68 220.9,68 h 356.6 c 115,0 205.7,-30.5 201.5,-68 l -13.2,-117.5"
         style="fill:#ff8080;fill-opacity:1;fill-rule:nonzero;stroke:none"
         id="path29363" />
      <path
         d="m 22755.9,13740.2 c -1.7,-38.4 -99.1,-69.9 -216.4,-69.9 h -363.6 c -117.3,0 -209.9,31.5 -205.9,69.9 l 12.4,117.5 c 3.9,37.5 101.2,68 216.3,68 h 356.6 c 115.1,0 207.8,-30.5 206,-68 l -5.4,-117.5"
         style="fill:#ff8080;fill-opacity:1;fill-rule:nonzero;stroke:none"
         id="path29365" />
      <path
         d="m 23635.5,13740.2 c 0.8,-38.4 -94.5,-69.9 -211.7,-69.9 h -363.7 c -117.2,0 -212,31.5 -210.5,69.9 l 4.6,117.5 c 1.5,37.5 96.8,68 211.8,68 h 356.6 c 115.1,0 209.8,-30.5 210.6,-68 l 2.3,-117.5"
         style="fill:#ff8080;fill-opacity:1;fill-rule:nonzero;stroke:none"
         id="path29367" />
      <path
         d="m 24515.2,13740.2 c 3.3,-38.4 -90,-69.9 -207.3,-69.9 h -363.5 c -117.3,0 -214.1,31.5 -215.2,69.9 l -3.1,117.5 c -1,37.5 92.3,68 207.3,68 h 356.6 c 115.1,0 211.8,-30.5 215,-68 l 10.2,-117.5"
         style="fill:#ff8080;fill-opacity:1;fill-rule:nonzero;stroke:none"
         id="path29369" />
      <path
         d="m 25394.7,13740.2 c 5.9,-38.4 -85.2,-69.9 -202.5,-69.9 h -363.6 c -117.3,0 -216.2,31.5 -219.8,69.9 l -10.9,117.5 c -3.5,37.5 87.8,68 202.8,68 h 356.7 c 115,0 213.8,-30.5 219.5,-68 l 17.8,-117.5"
         style="fill:#ff8080;fill-opacity:1;fill-rule:nonzero;stroke:none"
         id="path29371" />
      <path
         d="m 26274.4,13740.2 c 8.4,-38.4 -80.7,-69.9 -198,-69.9 h -363.5 c -117.3,0 -218.3,31.5 -224.4,69.9 l -18.8,117.5 c -5.9,37.5 83.3,68 198.4,68 h 356.6 c 115.1,0 215.8,-30.5 224,-68 l 25.7,-117.5"
         style="fill:#ff8080;fill-opacity:1;fill-rule:nonzero;stroke:none"
         id="path29373" />
      <path
         d="m 27154,13740.2 c 10.9,-38.4 -76.1,-69.9 -193.4,-69.9 h -363.5 c -117.3,0 -220.4,31.5 -229,69.9 l -26.5,117.5 c -8.4,37.5 78.8,68 193.8,68 h 356.6 c 115.1,0 217.9,-30.5 228.6,-68 l 33.4,-117.5"
         style="fill:#ff8080;fill-opacity:1;fill-rule:nonzero;stroke:none"
         id="path29375" />
      <path
         d="m 28033.6,13740.2 c 13.5,-38.4 -71.4,-69.9 -188.7,-69.9 h -363.6 c -117.3,0 -222.4,31.5 -233.6,69.9 l -34.3,117.5 c -10.9,37.5 74.3,68 189.4,68 h 356.6 c 115,0 219.9,-30.5 233,-68 l 41.2,-117.5"
         style="fill:#ff8080;fill-opacity:1;fill-rule:nonzero;stroke:none"
         id="path29377" />
      <path
         d="m 29980,13740.2 c 19,-38.4 -61.2,-69.9 -178.5,-69.9 h -1442.3 c -117.2,0 -224.5,31.5 -238.2,69.9 l -42,117.5 c -13.4,37.5 69.9,68 184.9,68 h 1414.8 c 115,0 224.2,-30.5 242.8,-68 l 58.5,-117.5"
         style="fill:#ff8080;fill-opacity:1;fill-rule:nonzero;stroke:none"
         id="path29379" />
      <path
         d="m 15405,14022.5 c -22.4,-36.8 -134.8,-67 -249.6,-67 h -1288.8 c -114.7,0 -186.2,30.2 -159,67 l 83.5,112.6 c 26.7,36 140.5,65.2 253.2,65.2 h 1264.6 c 112.7,0 186.9,-29.2 165,-65.2 l -68.9,-112.6"
         style="fill:#ff8080;fill-opacity:1;fill-rule:nonzero;stroke:none"
         id="path29381" />
      <path
         d="m 16266,14022.5 c -20.1,-36.8 -130.4,-67 -245.2,-67 h -355.9 c -114.8,0 -190.4,30.2 -168.2,67 l 68.1,112.6 c 21.7,36 131.6,65.2 244.2,65.2 h 349.1 c 112.7,0 188.9,-29.2 169.3,-65.2 l -61.4,-112.6"
         style="fill:#ff8080;fill-opacity:1;fill-rule:nonzero;stroke:none"
         id="path29383" />
      <path
         d="m 17126.9,14022.5 c -17.6,-36.8 -126,-67 -240.8,-67 h -355.8 c -114.8,0 -192.4,30.2 -172.6,67 l 60.6,112.6 c 19.3,36 127.2,65.2 239.9,65.2 h 349.1 c 112.7,0 190.8,-29.2 173.6,-65.2 l -54,-112.6"
         style="fill:#ff8080;fill-opacity:1;fill-rule:nonzero;stroke:none"
         id="path29385" />
      <path
         d="m 17987.9,14022.5 c -15.2,-36.8 -121.6,-67 -236.4,-67 h -355.8 c -114.8,0 -194.4,30.2 -177.1,67 l 53.2,112.6 c 17,36 122.9,65.2 235.6,65.2 h 349.1 c 112.7,0 192.7,-29.2 177.9,-65.2 l -46.5,-112.6"
         style="fill:#ff8080;fill-opacity:1;fill-rule:nonzero;stroke:none"
         id="path29387" />
      <path
         d="m 18848.8,14022.5 c -12.8,-36.8 -117.1,-67 -231.9,-67 h -355.8 c -114.8,0 -196.5,30.2 -181.5,67 l 45.7,112.6 c 14.6,36 118.6,65.2 231.3,65.2 h 349.1 c 112.7,0 194.7,-29.2 182.2,-65.2 l -39.1,-112.6"
         style="fill:#ff8080;fill-opacity:1;fill-rule:nonzero;stroke:none"
         id="path29389" />
      <path
         d="m 19709.8,14022.5 c -10.4,-36.8 -112.8,-67 -227.6,-67 h -355.8 c -114.7,0 -198.4,30.2 -185.9,67 l 38.3,112.6 c 12.2,36 114.3,65.2 227,65.2 h 349.1 c 112.6,0 196.6,-29.2 186.5,-65.2 l -31.6,-112.6"
         style="fill:#ff8080;fill-opacity:1;fill-rule:nonzero;stroke:none"
         id="path29391" />
      <path
         d="m 20570.7,14022.5 c -7.8,-36.8 -108.3,-67 -223.1,-67 h -355.8 c -114.8,0 -200.4,30.2 -190.3,67 l 30.8,112.6 c 9.8,36 110,65.2 222.7,65.2 h 349.1 c 112.6,0 198.5,-29.2 190.8,-65.2 l -24.2,-112.6"
         style="fill:#ff8080;fill-opacity:1;fill-rule:nonzero;stroke:none"
         id="path29393" />
      <path
         d="m 21431.7,14022.5 c -5.5,-36.8 -103.9,-67 -218.7,-67 h -355.8 c -114.8,0 -202.4,30.2 -194.8,67 l 23.4,112.6 c 7.5,36 105.7,65.2 218.4,65.2 h 349.1 c 112.6,0 200.5,-29.2 195.1,-65.2 l -16.7,-112.6"
         style="fill:#ff8080;fill-opacity:1;fill-rule:nonzero;stroke:none"
         id="path29395" />
      <path
         d="m 22292.6,14022.5 c -3,-36.8 -99.5,-67 -214.2,-67 h -355.8 c -114.8,0 -204.5,30.2 -199.2,67 l 15.9,112.6 c 5.1,36 101.4,65.2 214,65.2 h 349.2 c 112.6,0 202.4,-29.2 199.4,-65.2 l -9.3,-112.6"
         style="fill:#ff8080;fill-opacity:1;fill-rule:nonzero;stroke:none"
         id="path29397" />
      <path
         d="m 23153.5,14022.5 c -0.6,-36.8 -94.9,-67 -209.7,-67 h -355.9 c -114.7,0 -206.4,30.2 -203.6,67 l 8.6,112.6 c 2.6,36 97,65.2 209.6,65.2 h 349.2 c 112.6,0 204.3,-29.2 203.7,-65.2 l -1.9,-112.6"
         style="fill:#ff8080;fill-opacity:1;fill-rule:nonzero;stroke:none"
         id="path29399" />
      <path
         d="m 24014.5,14022.5 c 1.8,-36.8 -90.6,-67 -205.4,-67 h -355.8 c -114.8,0 -208.4,30.2 -208,67 l 1,112.6 c 0.4,36 92.8,65.2 205.4,65.2 h 349.2 c 112.6,0 206.2,-29.2 208,-65.2 l 5.6,-112.6"
         style="fill:#ff8080;fill-opacity:1;fill-rule:nonzero;stroke:none"
         id="path29401" />
      <path
         d="m 24875.4,14022.5 c 4.3,-36.8 -86.1,-67 -200.9,-67 h -355.8 c -114.8,0 -210.4,30.2 -212.5,67 l -6.3,112.6 c -2.1,36 88.4,65.2 201,65.2 h 349.2 c 112.7,0 208.2,-29.2 212.3,-65.2 l 13,-112.6"
         style="fill:#ff8080;fill-opacity:1;fill-rule:nonzero;stroke:none"
         id="path29403" />
      <path
         d="m 25736.4,14022.5 c 6.7,-36.8 -81.7,-67 -196.5,-67 h -355.8 c -114.8,0 -212.4,30.2 -216.9,67 l -13.9,112.6 c -4.4,36 84.2,65.2 196.8,65.2 h 349.2 c 112.6,0 210.1,-29.2 216.6,-65.2 l 20.5,-112.6"
         style="fill:#ff8080;fill-opacity:1;fill-rule:nonzero;stroke:none"
         id="path29405" />
      <path
         d="m 26597.4,14022.5 c 9,-36.8 -77.4,-67 -192.1,-67 h -355.9 c -114.8,0 -214.4,30.2 -221.3,67 l -21.3,112.6 c -6.8,36 79.9,65.2 192.5,65.2 h 349.2 c 112.6,0 212,-29.2 220.9,-65.2 l 28,-112.6"
         style="fill:#ff8080;fill-opacity:1;fill-rule:nonzero;stroke:none"
         id="path29407" />
      <path
         d="m 27458.3,14022.5 c 11.5,-36.8 -72.9,-67 -187.7,-67 h -355.8 c -114.7,0 -216.4,30.2 -225.7,67 l -28.8,112.6 c -9.1,36 75.6,65.2 188.2,65.2 h 349.2 c 112.7,0 214,-29.2 225.2,-65.2 l 35.4,-112.6"
         style="fill:#ff8080;fill-opacity:1;fill-rule:nonzero;stroke:none"
         id="path29409" />
      <path
         d="m 31409.3,13451.9 c 23.6,-40.1 -54.9,-73 -174.8,-73 h -371.4 c -119.9,0 -235.5,32.9 -256.8,73 l -65.3,122.7 c -20.8,39.1 58.4,70.9 175.9,70.9 h 364.2 c 117.5,0 232.5,-31.8 255.6,-70.9 l 72.6,-122.7"
         style="fill:#ff8080;fill-opacity:1;fill-rule:nonzero;stroke:none"
         id="path29411" />
      <path
         d="m 32307.9,13451.9 c 26.4,-40.1 -50,-73 -169.9,-73 h -371.5 c -119.8,0 -237.5,32.9 -261.5,73 l -73.4,122.7 c -23.4,39.1 53.6,70.9 171.2,70.9 h 364.2 c 117.5,0 234.5,-31.8 260.3,-70.9 l 80.6,-122.7"
         style="fill:#ff8080;fill-opacity:1;fill-rule:nonzero;stroke:none"
         id="path29413" />
      <path
         d="m 33206.6,13451.9 c 28.9,-40.1 -45.3,-73 -165.1,-73 H 32670 c -119.8,0 -239.7,32.9 -266.4,73 l -81.5,122.7 c -26,39.1 49,70.9 166.6,70.9 h 364.2 c 117.4,0 236.6,-31.8 264.9,-70.9 l 88.8,-122.7"
         style="fill:#ff8080;fill-opacity:1;fill-rule:nonzero;stroke:none"
         id="path29415" />
      <path
         d="m 30905.1,14293.1 c 20.8,-35.2 -54,-64.2 -166.4,-64.2 h -348.4 c -112.3,0 -219.7,29 -238.4,64.2 l -57.5,108.1 c -18.3,34.4 57,62.5 167.4,62.5 h 342 c 110.3,0 217.1,-28.1 237.5,-62.5 l 63.8,-108.1"
         style="fill:#ff8080;fill-opacity:1;fill-rule:nonzero;stroke:none"
         id="path29417" />
      <path
         d="m 31748.2,14293.1 c 23.1,-35.2 -49.8,-64.2 -162.1,-64.2 h -348.4 c -112.4,0 -221.7,29 -242.8,64.2 l -64.6,108.1 c -20.6,34.4 52.9,62.5 163.3,62.5 h 342 c 110.3,0 219,-28.1 241.6,-62.5 l 71,-108.1"
         style="fill:#ff8080;fill-opacity:1;fill-rule:nonzero;stroke:none"
         id="path29419" />
      <path
         d="m 32591.2,14293.1 c 25.5,-35.2 -45.5,-64.2 -157.9,-64.2 H 32085 c -112.4,0 -223.6,29 -247,64.2 l -71.8,108.1 c -22.8,34.4 48.8,62.5 159.2,62.5 h 341.9 c 110.4,0 220.9,-28.1 245.8,-62.5 l 78.1,-108.1"
         style="fill:#ff8080;fill-opacity:1;fill-rule:nonzero;stroke:none"
         id="path29421" />
      <path
         d="m 30751.7,14552.7 c 20,-33.9 -53.6,-61.6 -163.7,-61.6 h -341.3 c -110,0 -214.9,27.7 -232.9,61.6 l -55.1,103.7 c -17.7,33.1 56.5,60 164.6,60 h 335.1 c 108.2,0 212.6,-26.9 232.1,-60 l 61.2,-103.7"
         style="fill:#ff8080;fill-opacity:1;fill-rule:nonzero;stroke:none"
         id="path29423" />
      <path
         d="m 31577.7,14552.7 c 22.2,-33.9 -49.7,-61.6 -159.7,-61.6 h -341.3 c -110.1,0 -216.8,27.7 -237,61.6 l -62,103.7 c -19.8,33.1 52.6,60 160.7,60 h 335.1 c 108.1,0 214.3,-26.9 236,-60 l 68.2,-103.7"
         style="fill:#ff8080;fill-opacity:1;fill-rule:nonzero;stroke:none"
         id="path29425" />
      <path
         d="m 32403.5,14552.7 c 24.5,-33.9 -45.5,-61.6 -155.6,-61.6 h -341.2 c -110.1,0 -218.6,27.7 -241.1,61.6 l -68.8,103.7 c -22,33.1 48.5,60 156.7,60 h 335.1 c 108.1,0 216,-26.9 239.9,-60 l 75,-103.7"
         style="fill:#ff8080;fill-opacity:1;fill-rule:nonzero;stroke:none"
         id="path29427" />
      <path
         d="m 32101.4,13755.5 c 25.1,-38.3 -50,-69.8 -167.2,-69.8 h -363.1 c -117.2,0 -231.9,31.5 -254.8,69.8 l -70.1,117.3 c -22.3,37.4 53.5,67.8 168.4,67.8 h 356.2 c 114.9,0 228.9,-30.4 253.6,-67.8 l 77,-117.3"
         style="fill:#ff8080;fill-opacity:1;fill-rule:nonzero;stroke:none"
         id="path29429" />
      <path
         d="m 28319.2,14022.5 c 14,-36.8 -68.4,-67 -183.2,-67 h -355.8 c -114.8,0 -218.4,30.2 -230.2,67 l -36.1,112.6 c -11.6,36 71.2,65.2 183.8,65.2 h 349.2 c 112.6,0 215.9,-29.2 229.5,-65.2 l 42.8,-112.6"
         style="fill:#ff8080;fill-opacity:1;fill-rule:nonzero;stroke:none"
         id="path29431" />
      <path
         d="m 29839.7,14022.5 c 18.2,-36.8 -60.7,-67 -175.5,-67 h -1018.6 c -114.8,0 -220.4,30.2 -234.7,67 l -43.5,112.6 c -13.9,36 66.9,65.2 179.5,65.2 h 999.7 c 112.6,0 219.3,-29.2 237.1,-65.2 l 56,-112.6"
         style="fill:#ff8080;fill-opacity:1;fill-rule:nonzero;stroke:none"
         id="path29433" />
      <path
         d="m 15947.1,14293.1 c -20.6,-35.2 -129.3,-64.2 -241.7,-64.2 H 15357 c -112.4,0 -185.8,29 -163.2,64.2 l 69.3,108 c 22,34.5 130.3,62.6 240.6,62.6 h 342 c 110.3,0 184.3,-28.1 164.2,-62.6 l -62.8,-108"
         style="fill:#ff8080;fill-opacity:1;fill-rule:nonzero;stroke:none"
         id="path29435" />
      <path
         d="m 15109.9,14293.1 c -22.8,-35.2 -133.5,-64.2 -245.9,-64.2 h -793.1 c -112.4,0 -182.8,29 -156.7,64.2 l 80.1,108 c 25.5,34.5 136.6,62.6 246.9,62.6 h 778.6 c 110.3,0 182.4,-28.1 160.1,-62.6 l -70,-108"
         style="fill:#ff8080;fill-opacity:1;fill-rule:nonzero;stroke:none"
         id="path29437" />
      <path
         d="m 16790.1,14293.1 c -18.1,-35.2 -125,-64.2 -237.4,-64.2 h -348.4 c -112.4,0 -187.7,29 -167.4,64.2 l 62.1,108 c 19.8,34.5 126.2,62.6 236.5,62.6 h 342 c 110.3,0 186.1,-28.1 168.3,-62.6 l -55.7,-108"
         style="fill:#ff8080;fill-opacity:1;fill-rule:nonzero;stroke:none"
         id="path29439" />
      <path
         d="m 17633.2,14293.1 c -15.8,-35.2 -120.8,-64.2 -233.2,-64.2 h -348.4 c -112.4,0 -189.6,29 -171.7,64.2 l 55,108 c 17.5,34.5 122.1,62.6 232.4,62.6 h 342 c 110.3,0 188,-28.1 172.5,-62.6 l -48.6,-108"
         style="fill:#ff8080;fill-opacity:1;fill-rule:nonzero;stroke:none"
         id="path29441" />
      <path
         d="m 18476.2,14293.1 c -13.5,-35.2 -116.5,-64.2 -228.9,-64.2 h -348.4 c -112.3,0 -191.5,29 -175.9,64.2 l 47.8,108 c 15.3,34.5 117.9,62.6 228.3,62.6 h 342 c 110.3,0 189.8,-28.1 176.6,-62.6 l -41.5,-108"
         style="fill:#ff8080;fill-opacity:1;fill-rule:nonzero;stroke:none"
         id="path29443" />
      <path
         d="m 19319.3,14293.1 c -11.2,-35.2 -112.3,-64.2 -224.7,-64.2 h -348.4 c -112.4,0 -193.4,29 -180.1,64.2 l 40.6,108 c 13,34.5 113.8,62.6 224.1,62.6 h 342.1 c 110.3,0 191.7,-28.1 180.7,-62.6 l -34.3,-108"
         style="fill:#ff8080;fill-opacity:1;fill-rule:nonzero;stroke:none"
         id="path29445" />
      <path
         d="m 20162.4,14293.1 c -8.9,-35.2 -108.1,-64.2 -220.4,-64.2 h -348.5 c -112.3,0 -195.3,29 -184.4,64.2 l 33.6,108 c 10.7,34.5 109.7,62.6 220,62.6 h 342 c 110.3,0 193.5,-28.1 184.8,-62.6 l -27.1,-108"
         style="fill:#ff8080;fill-opacity:1;fill-rule:nonzero;stroke:none"
         id="path29447" />
      <path
         d="m 21005.4,14293.1 c -6.5,-35.2 -103.8,-64.2 -216.2,-64.2 h -348.4 c -112.3,0 -197.2,29 -188.6,64.2 l 26.4,108 c 8.4,34.5 105.5,62.6 215.8,62.6 h 342 c 110.4,0 195.5,-28.1 189.1,-62.6 l -20.1,-108"
         style="fill:#ff8080;fill-opacity:1;fill-rule:nonzero;stroke:none"
         id="path29449" />
      <path
         d="m 21848.5,14293.1 c -4.2,-35.2 -99.6,-64.2 -212,-64.2 h -348.4 c -112.3,0 -199.1,29 -192.8,64.2 l 19.2,108 c 6.2,34.5 101.4,62.6 211.7,62.6 h 342.1 c 110.3,0 197.2,-28.1 193.1,-62.6 l -12.9,-108"
         style="fill:#ff8080;fill-opacity:1;fill-rule:nonzero;stroke:none"
         id="path29451" />
      <path
         d="m 22691.6,14293.1 c -1.9,-35.2 -95.4,-64.2 -207.8,-64.2 h -348.4 c -112.3,0 -201,29 -197.1,64.2 l 12.1,108 c 3.9,34.5 97.3,62.6 207.6,62.6 h 342 c 110.4,0 199.1,-28.1 197.3,-62.6 l -5.7,-108"
         style="fill:#ff8080;fill-opacity:1;fill-rule:nonzero;stroke:none"
         id="path29453" />
      <path
         d="m 23534.6,14293.1 c 0.5,-35.2 -91.1,-64.2 -203.4,-64.2 h -348.5 c -112.3,0 -202.9,29 -201.3,64.2 l 4.9,108 c 1.6,34.5 93.2,62.6 203.5,62.6 h 342 c 110.4,0 201,-28.1 201.4,-62.5 l 1.4,-108.1"
         style="fill:#ff8080;fill-opacity:1;fill-rule:nonzero;stroke:none"
         id="path29455" />
      <path
         d="m 24377.7,14293.1 c 2.8,-35.2 -86.9,-64.2 -199.3,-64.2 h -348.3 c -112.4,0 -204.9,29 -205.7,64.2 l -2.1,108.1 c -0.7,34.4 89,62.5 199.3,62.5 h 342 c 110.3,0 202.8,-28.1 205.6,-62.5 l 8.5,-108.1"
         style="fill:#ff8080;fill-opacity:1;fill-rule:nonzero;stroke:none"
         id="path29457" />
      <path
         d="m 25220.8,14293.1 c 5.1,-35.2 -82.7,-64.2 -195,-64.2 h -348.4 c -112.4,0 -206.9,29 -209.9,64.2 l -9.3,108.1 c -3,34.4 84.9,62.5 195.2,62.5 h 342 c 110.4,0 204.7,-28.1 209.7,-62.5 l 15.7,-108.1"
         style="fill:#ff8080;fill-opacity:1;fill-rule:nonzero;stroke:none"
         id="path29459" />
      <path
         d="m 26063.8,14293.1 c 7.5,-35.2 -78.3,-64.2 -190.7,-64.2 h -348.4 c -112.4,0 -208.7,29 -214.1,64.2 l -16.5,108.1 c -5.2,34.4 80.8,62.5 191.1,62.5 h 342 c 110.3,0 206.5,-28.1 213.8,-62.5 l 22.8,-108.1"
         style="fill:#ff8080;fill-opacity:1;fill-rule:nonzero;stroke:none"
         id="path29461" />
      <path
         d="m 26906.9,14293.1 c 9.8,-35.2 -74.1,-64.2 -186.5,-64.2 H 26372 c -112.4,0 -210.7,29 -218.3,64.2 l -23.7,108.1 c -7.5,34.4 76.6,62.5 187,62.5 h 342 c 110.3,0 208.4,-28.1 217.9,-62.5 l 30,-108.1"
         style="fill:#ff8080;fill-opacity:1;fill-rule:nonzero;stroke:none"
         id="path29463" />
      <path
         d="m 27749.9,14293.1 c 12.2,-35.2 -69.8,-64.2 -182.2,-64.2 h -348.4 c -112.4,0 -212.6,29 -222.6,64.2 l -30.8,108.1 c -9.7,34.4 72.6,62.5 182.9,62.5 h 342 c 110.3,0 210.2,-28.1 222,-62.5 l 37.1,-108.1"
         style="fill:#ff8080;fill-opacity:1;fill-rule:nonzero;stroke:none"
         id="path29465" />
      <path
         d="m 28593,14293.1 c 14.5,-35.2 -65.6,-64.2 -178,-64.2 h -348.4 c -112.4,0 -214.5,29 -226.9,64.2 l -37.8,108.1 c -12.1,34.4 68.3,62.5 178.7,62.5 h 342 c 110.3,0 212.1,-28.1 226.2,-62.5 l 44.2,-108.1"
         style="fill:#ff8080;fill-opacity:1;fill-rule:nonzero;stroke:none"
         id="path29467" />
      <path
         d="m 27076.1,14889.9 c 6.4,-20.7 -73,-37.8 -176.3,-37.8 h -320.3 c -103.3,0 -192.1,17.1 -197.2,37.8 l -15.8,63.9 c -5.1,20.5 74.3,37.2 176.5,37.2 h 316.6 c 102.2,0 190.8,-16.7 197,-37.2 l 19.5,-63.9"
         style="fill:#ff8080;fill-opacity:1;fill-rule:nonzero;stroke:none"
         id="path29469" />
      <path
         d="m 27852.7,14889.9 c 7.6,-20.7 -70.6,-37.8 -173.9,-37.8 h -320.3 c -103.3,0 -193.2,17.1 -199.6,37.8 l -19.9,63.9 c -6.4,20.5 71.9,37.2 174,37.2 h 316.7 c 102.1,0 191.9,-16.7 199.4,-37.2 l 23.6,-63.9"
         style="fill:#ff8080;fill-opacity:1;fill-rule:nonzero;stroke:none"
         id="path29471" />
      <path
         d="m 28629.2,14889.9 c 9,-20.7 -68.2,-37.8 -171.5,-37.8 h -320.2 c -103.4,0 -194.3,17.1 -202.1,37.8 l -24,63.9 c -7.7,20.5 69.6,37.2 171.7,37.2 h 316.7 c 102.1,0 192.9,-16.7 201.8,-37.2 l 27.6,-63.9"
         style="fill:#ff8080;fill-opacity:1;fill-rule:nonzero;stroke:none"
         id="path29473" />
      <path
         d="m 29405.7,14889.9 c 10.4,-20.7 -65.7,-37.8 -169,-37.8 h -320.3 c -103.3,0 -195.3,17.1 -204.4,37.8 l -28.1,63.9 c -9,20.5 67.2,37.2 169.3,37.2 h 316.7 c 102.1,0 194,-16.7 204.1,-37.2 l 31.7,-63.9"
         style="fill:#ff8080;fill-opacity:1;fill-rule:nonzero;stroke:none"
         id="path29475" />
      <path
         d="m 30567.5,14889.9 c 12.3,-20.7 -62.2,-37.8 -165.5,-37.8 h -320.3 c -103.3,0 -197,17.1 -208.1,37.8 l -34.1,63.9 c -11,20.5 63.6,37.2 165.8,37.2 h 316.6 c 102.1,0 195.6,-16.7 207.7,-37.2 l 37.9,-63.9"
         style="fill:#ff8080;fill-opacity:1;fill-rule:nonzero;stroke:none"
         id="path29477" />
      <path
         d="m 31344,14889.9 c 13.6,-20.7 -59.8,-37.8 -163.1,-37.8 h -320.2 c -103.4,0 -198.1,17.1 -210.5,37.8 l -38.3,63.9 c -12.2,20.5 61.3,37.2 163.5,37.2 h 316.6 c 102.1,0 196.7,-16.7 210.1,-37.2 l 41.9,-63.9"
         style="fill:#ff8080;fill-opacity:1;fill-rule:nonzero;stroke:none"
         id="path29479" />
      <path
         d="m 32120.5,14889.9 c 15,-20.7 -57.3,-37.8 -160.6,-37.8 h -320.3 c -103.3,0 -199.2,17.1 -212.8,37.8 l -42.4,63.9 c -13.6,20.5 58.9,37.2 161.1,37.2 h 316.6 c 102.1,0 197.7,-16.7 212.4,-37.2 l 46,-63.9"
         style="fill:#ff8080;fill-opacity:1;fill-rule:nonzero;stroke:none"
         id="path29481" />
      <path
         d="m 23776.1,14889.9 c 0.6,-20.7 -83.3,-37.8 -186.6,-37.8 h -320.3 c -103.3,0 -187.4,17.1 -187,37.8 l 1.6,63.9 c 0.4,20.5 84.4,37.2 186.5,37.2 h 316.7 c 102.1,0 186.3,-16.7 187,-37.2 l 2.1,-63.9"
         style="fill:#ff8080;fill-opacity:1;fill-rule:nonzero;stroke:none"
         id="path29483" />
      <path
         d="m 24552.6,14889.9 c 2,-20.7 -80.9,-37.8 -184.2,-37.8 h -320.3 c -103.3,0 -188.5,17.1 -189.3,37.8 l -2.6,63.9 c -0.8,20.5 82.1,37.2 184.2,37.2 h 316.6 c 102.2,0 187.4,-16.7 189.4,-37.2 l 6.2,-63.9"
         style="fill:#ff8080;fill-opacity:1;fill-rule:nonzero;stroke:none"
         id="path29485" />
      <path
         d="m 25329.2,14889.9 c 3.3,-20.7 -78.5,-37.8 -181.8,-37.8 h -320.3 c -103.3,0 -189.6,17.1 -191.8,37.8 l -6.6,63.9 c -2.2,20.5 79.6,37.2 181.8,37.2 h 316.6 c 102.2,0 188.5,-16.7 191.8,-37.2 l 10.3,-63.9"
         style="fill:#ff8080;fill-opacity:1;fill-rule:nonzero;stroke:none"
         id="path29487" />
      <path
         d="m 26105.7,14889.9 c 4.7,-20.7 -76,-37.8 -179.4,-37.8 h -320.2 c -103.4,0 -190.8,17.1 -194.2,37.8 l -10.7,63.9 c -3.5,20.5 77.2,37.2 179.4,37.2 h 316.6 c 102.2,0 189.5,-16.7 194.1,-37.2 l 14.4,-63.9"
         style="fill:#ff8080;fill-opacity:1;fill-rule:nonzero;stroke:none"
         id="path29489" />
      <path
         d="m 20476,14889.9 c -5,-20.7 -93.5,-37.8 -196.8,-37.8 h -320.4 c -103.3,0 -182.7,17.1 -176.6,37.8 l 18.8,63.9 c 6.1,20.5 94.5,37.2 196.7,37.2 h 316.6 c 102.2,0 181.8,-16.7 176.9,-37.2 l -15.2,-63.9"
         style="fill:#ff8080;fill-opacity:1;fill-rule:nonzero;stroke:none"
         id="path29491" />
      <path
         d="m 21252.5,14889.9 c -3.6,-20.7 -91.1,-37.8 -194.4,-37.8 h -320.3 c -103.3,0 -183.9,17.1 -179.1,37.8 l 14.8,63.9 c 4.7,20.5 92.2,37.2 194.3,37.2 h 316.6 c 102.2,0 182.8,-16.7 179.3,-37.2 l -11.2,-63.9"
         style="fill:#ff8080;fill-opacity:1;fill-rule:nonzero;stroke:none"
         id="path29493" />
      <path
         d="m 22029.1,14889.9 c -2.3,-20.7 -88.7,-37.8 -192,-37.8 h -320.3 c -103.4,0 -185,17.1 -181.5,37.8 l 10.6,63.9 c 3.4,20.5 89.8,37.2 192,37.2 h 316.6 c 102.2,0 183.9,-16.7 181.6,-37.2 l -7,-63.9"
         style="fill:#ff8080;fill-opacity:1;fill-rule:nonzero;stroke:none"
         id="path29495" />
      <path
         d="m 22805.6,14889.9 c -0.9,-20.7 -86.3,-37.8 -189.6,-37.8 h -320.3 c -103.3,0 -186.1,17.1 -183.9,37.8 l 6.6,63.9 c 2.1,20.5 87.4,37.2 189.6,37.2 h 316.6 c 102.1,0 184.9,-16.7 184,-37.2 l -3,-63.9"
         style="fill:#ff8080;fill-opacity:1;fill-rule:nonzero;stroke:none"
         id="path29497" />
      <path
         d="m 17175.9,14889.9 c -10.5,-20.7 -103.8,-37.8 -207.1,-37.8 h -320.3 c -103.2,0 -178.2,17.1 -166.4,37.8 l 36.2,63.9 c 11.6,20.5 104.6,37.2 206.7,37.2 h 316.7 c 102.1,0 177.2,-16.7 166.8,-37.2 l -32.6,-63.9"
         style="fill:#ff8080;fill-opacity:1;fill-rule:nonzero;stroke:none"
         id="path29499" />
      <path
         d="m 17952.5,14889.9 c -9.3,-20.7 -101.4,-37.8 -204.7,-37.8 h -320.3 c -103.3,0 -179.3,17.1 -168.9,37.8 l 32.2,63.9 c 10.2,20.5 102.2,37.2 204.3,37.2 h 316.7 c 102.1,0 178.2,-16.7 169.1,-37.2 l -28.4,-63.9"
         style="fill:#ff8080;fill-opacity:1;fill-rule:nonzero;stroke:none"
         id="path29501" />
      <path
         d="m 15037.7,14889.9 c -14.3,-20.7 -110.4,-37.8 -213.8,-37.8 h -320.2 c -103.4,0 -175.3,17.1 -159.9,37.8 l 47.5,63.9 c 15.2,20.5 111.1,37.2 213.3,37.2 h 316.6 c 102.1,0 174.3,-16.7 160.2,-37.2 l -43.7,-63.9"
         style="fill:#ff8080;fill-opacity:1;fill-rule:nonzero;stroke:none"
         id="path29503" />
      <path
         d="m 15814.2,14889.9 c -12.9,-20.7 -108,-37.8 -211.3,-37.8 h -320.3 c -103.3,0 -176.3,17.1 -162.2,37.8 l 43.3,63.9 c 13.9,20.5 108.8,37.2 211,37.2 h 316.6 c 102.1,0 175.3,-16.7 162.6,-37.2 l -39.7,-63.9"
         style="fill:#ff8080;fill-opacity:1;fill-rule:nonzero;stroke:none"
         id="path29505" />
      <path
         d="m 18729,14889.9 c -7.9,-20.7 -99,-37.8 -202.2,-37.8 h -320.4 c -103.3,0 -180.3,17.1 -171.2,37.8 l 28,63.9 c 9,20.5 99.9,37.2 202,37.2 h 316.6 c 102.2,0 179.4,-16.7 171.6,-37.2 l -24.4,-63.9"
         style="fill:#ff8080;fill-opacity:1;fill-rule:nonzero;stroke:none"
         id="path29507" />
      <path
         d="m 19505.5,14889.9 c -6.6,-20.7 -96.5,-37.8 -199.8,-37.8 h -320.3 c -103.3,0 -181.5,17.1 -173.7,37.8 l 24,63.9 c 7.6,20.5 97.5,37.2 199.6,37.2 h 316.6 c 102.2,0 180.4,-16.7 174,-37.2 l -20.4,-63.9"
         style="fill:#ff8080;fill-opacity:1;fill-rule:nonzero;stroke:none"
         id="path29509" />
      <path
         d="m 29711.1,14293.1 c 17.6,-35.2 -60,-64.2 -172.3,-64.2 h -624.9 c -112.4,0 -216.4,29 -231.1,64.2 l -45,108.1 c -14.3,34.4 64.3,62.5 174.6,62.5 h 613.4 c 110.2,0 214.5,-28.1 231.6,-62.5 l 53.7,-108.1"
         style="fill:#ff8080;fill-opacity:1;fill-rule:nonzero;stroke:none"
         id="path29511" />
      <path
         d="m 16467.1,14552.7 c -18.7,-33.9 -124.1,-61.6 -234.2,-61.6 h -341.3 c -110.1,0 -183.1,27.7 -162.5,61.6 l 63.4,103.7 c 20.2,33.1 125.2,60 233.3,60 h 335.1 c 108.1,0 181.7,-26.9 163.4,-60 l -57.2,-103.7"
         style="fill:#ff8080;fill-opacity:1;fill-rule:nonzero;stroke:none"
         id="path29513" />
      <path
         d="m 17293,14552.7 c -16.5,-33.9 -120.1,-61.6 -230.1,-61.6 h -341.3 c -110,0 -185,27.7 -166.5,61.6 l 56.5,103.7 c 18,33.1 121.1,60 229.3,60 h 335.1 c 108.1,0 183.5,-26.9 167.4,-60 l -50.4,-103.7"
         style="fill:#ff8080;fill-opacity:1;fill-rule:nonzero;stroke:none"
         id="path29515" />
      <path
         d="m 14826.9,14552.7 c -23.1,-33.9 -132.2,-61.6 -242.3,-61.6 h -341.3 c -110,0 -179.5,27.7 -154.3,61.6 l 77,103.7 c 24.5,33.1 133,60 241.1,60 h 335.1 c 108.2,0 178.2,-26.9 155.6,-60 l -70.9,-103.7"
         style="fill:#ff8080;fill-opacity:1;fill-rule:nonzero;stroke:none"
         id="path29517" />
      <path
         d="m 15652.8,14552.7 c -20.9,-33.9 -128.1,-61.6 -238.2,-61.6 h -341.3 c -110,0 -181.3,27.7 -158.4,61.6 l 70.1,103.7 c 22.4,33.1 129.1,60 237.2,60 h 335.1 c 108.1,0 179.9,-26.9 159.5,-60 l -64,-103.7"
         style="fill:#ff8080;fill-opacity:1;fill-rule:nonzero;stroke:none"
         id="path29519" />
      <path
         d="m 18118.9,14552.7 c -14.2,-33.9 -116,-61.6 -226.1,-61.6 h -341.2 c -110.1,0 -186.9,27.7 -170.7,61.6 l 49.7,103.7 c 15.9,33.1 117.3,60 225.4,60 h 335.1 c 108.1,0 185.2,-26.9 171.3,-60 l -43.5,-103.7"
         style="fill:#ff8080;fill-opacity:1;fill-rule:nonzero;stroke:none"
         id="path29521" />
      <path
         d="m 18944.8,14552.7 c -12,-33.9 -111.9,-61.6 -221.9,-61.6 h -341.4 c -110,0 -188.6,27.7 -174.6,61.6 l 42.8,103.7 c 13.7,33.1 113.2,60 221.4,60 h 335.1 c 108.1,0 187,-26.9 175.3,-60 l -36.7,-103.7"
         style="fill:#ff8080;fill-opacity:1;fill-rule:nonzero;stroke:none"
         id="path29523" />
      <path
         d="m 19770.7,14552.7 c -9.7,-33.9 -107.8,-61.6 -217.9,-61.6 h -341.3 c -110.1,0 -190.5,27.7 -178.7,61.6 l 36,103.7 c 11.4,33.1 109.2,60 217.3,60 h 335.2 c 108.1,0 188.7,-26.9 179.2,-60 l -29.8,-103.7"
         style="fill:#ff8080;fill-opacity:1;fill-rule:nonzero;stroke:none"
         id="path29525" />
      <path
         d="m 20596.6,14552.7 c -7.5,-33.9 -103.7,-61.6 -213.8,-61.6 h -341.3 c -110,0 -192.3,27.7 -182.8,61.6 l 29.1,103.7 c 9.3,33.1 105.3,60 213.4,60 h 335.2 c 108.1,0 190.5,-26.9 183.2,-60 l -23,-103.7"
         style="fill:#ff8080;fill-opacity:1;fill-rule:nonzero;stroke:none"
         id="path29527" />
      <path
         d="m 21422.5,14552.7 c -5.3,-33.9 -99.6,-61.6 -209.7,-61.6 h -341.3 c -110.1,0 -194.2,27.7 -186.9,61.6 l 22.3,103.7 c 7.1,33.1 101.3,60 209.4,60 h 335.1 c 108.1,0 192.4,-26.9 187.3,-60 l -16.2,-103.7"
         style="fill:#ff8080;fill-opacity:1;fill-rule:nonzero;stroke:none"
         id="path29529" />
      <path
         d="m 22248.4,14552.7 c -3,-33.9 -95.6,-61.6 -205.7,-61.6 h -341.2 c -110.1,0 -196,27.7 -191,61.6 l 15.4,103.7 c 4.9,33.1 97.4,60 205.5,60 h 335.1 c 108.2,0 194.2,-26.9 191.2,-60 l -9.3,-103.7"
         style="fill:#ff8080;fill-opacity:1;fill-rule:nonzero;stroke:none"
         id="path29531" />
      <path
         d="m 23074.3,14552.7 c -0.8,-33.9 -91.5,-61.6 -201.6,-61.6 h -341.2 c -110.1,0 -197.9,27.7 -195.1,61.6 l 8.6,103.7 c 2.7,33.1 93.4,60 201.5,60 h 335.1 c 108.1,0 195.9,-26.9 195.2,-60 l -2.5,-103.7"
         style="fill:#ff8080;fill-opacity:1;fill-rule:nonzero;stroke:none"
         id="path29533" />
      <path
         d="m 23900.2,14552.7 c 1.5,-33.9 -87.4,-61.6 -197.5,-61.6 h -341.3 c -110,0 -199.7,27.7 -199.1,61.6 l 1.7,103.7 c 0.6,33.1 89.4,60 197.5,60 h 335.2 c 108.1,0 197.7,-26.9 199.1,-60 l 4.4,-103.7"
         style="fill:#ff8080;fill-opacity:1;fill-rule:nonzero;stroke:none"
         id="path29535" />
      <path
         d="m 24726.1,14552.7 c 3.7,-33.9 -83.3,-61.6 -193.4,-61.6 h -341.3 c -110.1,0 -201.5,27.7 -203.2,61.6 l -5.2,103.7 c -1.6,33.1 85.5,60 193.6,60 h 335.2 c 108.1,0 199.5,-26.9 203.1,-60 l 11.2,-103.7"
         style="fill:#ff8080;fill-opacity:1;fill-rule:nonzero;stroke:none"
         id="path29537" />
      <path
         d="m 25552,14552.7 c 5.9,-33.9 -79.3,-61.6 -189.4,-61.6 h -341.2 c -110.1,0 -203.4,27.7 -207.3,61.6 l -12,103.7 c -3.8,33.1 81.5,60 189.6,60 h 335.2 c 108.1,0 201.2,-26.9 207,-60 l 18.1,-103.7"
         style="fill:#ff8080;fill-opacity:1;fill-rule:nonzero;stroke:none"
         id="path29539" />
      <path
         d="m 26377.9,14552.7 c 8.2,-33.9 -75.2,-61.6 -185.3,-61.6 h -341.2 c -110.1,0 -205.2,27.7 -211.4,61.6 l -18.8,103.7 c -6.1,33.1 77.5,60 185.6,60 h 335.2 c 108.1,0 203,-26.9 211,-60 l 24.9,-103.7"
         style="fill:#ff8080;fill-opacity:1;fill-rule:nonzero;stroke:none"
         id="path29541" />
      <path
         d="m 27203.8,14552.7 c 10.4,-33.9 -71.1,-61.6 -181.2,-61.6 h -341.3 c -110,0 -207,27.7 -215.4,61.6 l -25.7,103.7 c -8.2,33.1 73.6,60 181.7,60 h 335.1 c 108.2,0 204.9,-26.9 215,-60 l 31.8,-103.7"
         style="fill:#ff8080;fill-opacity:1;fill-rule:nonzero;stroke:none"
         id="path29543" />
      <path
         d="m 28029.8,14552.7 c 12.5,-33.9 -67.1,-61.6 -177.2,-61.6 h -341.3 c -110.1,0 -208.8,27.7 -219.5,61.6 l -32.5,103.7 c -10.4,33.1 69.6,60 177.7,60 h 335.1 c 108.1,0 206.6,-26.9 218.9,-60 l 38.8,-103.7"
         style="fill:#ff8080;fill-opacity:1;fill-rule:nonzero;stroke:none"
         id="path29545" />
      <path
         d="m 29582,14552.7 c 16.8,-33.9 -59.4,-61.6 -169.5,-61.6 h -1071.2 c -110.1,0 -210.7,27.7 -223.6,61.6 l -39.4,103.7 c -12.5,33.1 65.7,60 173.8,60 H 29304 c 108.1,0 210,-26.9 226.5,-60 l 51.5,-103.7"
         style="fill:#ff8080;fill-opacity:1;fill-rule:nonzero;stroke:none"
         id="path29547" />
      <path
         d="m 32677.5,16114.1 c 0,-363.1 -297.1,-660.2 -660.1,-660.2 H 14360.7 c -363.1,0 -660.1,297.1 -660.1,660.2 v 10058.7 c 0,363 297,660.1 660.1,660.1 h 17656.7 c 363,0 660.1,-297.1 660.1,-660.1 V 16114.1"
         style="fill:#000000;fill-opacity:1;fill-rule:nonzero;stroke:none"
         id="path29549" />
      <path
         d="m 14360.7,15499 c -339.2,0 -615.1,275.9 -615.1,615.1 v 10058.7 c 0,339.1 275.9,615.1 615.1,615.1 h 17656.7 c 339.1,0 615.1,-276 615.1,-615.1 V 16114.1 c 0,-339.2 -276,-615.1 -615.1,-615.1 H 14360.7"
         style="fill:#d35f5f;fill-opacity:1;fill-rule:nonzero;stroke:none"
         id="path29551" />
      <path
         d="m 14360.7,16390.2 c -172.1,0 -312,132.3 -312,294.8 v 9060.9 c 0,162.6 139.9,294.9 312,294.9 h 17656.7 c 172,0 312,-132.3 312,-294.9 V 16685 c 0,-162.5 -140,-294.8 -312,-294.8 H 14360.7"
         style="fill:#f4d7d7;fill-opacity:1;fill-rule:nonzero;stroke:none"
         id="path29553" />
      <path
         d="m 23465.1,26433.9 c 0,-152.5 -123.6,-276.1 -276.1,-276.1 -152.4,0 -276,123.6 -276,276.1 0,152.4 123.6,276 276,276 152.5,0 276.1,-123.6 276.1,-276"
         style="fill:#000000;fill-opacity:1;fill-rule:nonzero;stroke:none"
         id="path29555" />
      <path
         d="m 23189,26193.8 c -132.4,0 -240,107.7 -240,240.1 0,132.3 107.6,240 240,240 132.4,0 240.1,-107.7 240.1,-240 0,-132.4 -107.7,-240.1 -240.1,-240.1"
         style="fill:#bfe2e2;fill-opacity:1;fill-rule:nonzero;stroke:none"
         id="path29557" />
      <path
         d="m 18485.7,29674.6 c 0,-646.4 204.7,-961.8 428.8,-961.8 183.6,0 483.1,421 533,903.9 11,106.3 -127.4,149.9 -127.4,266.5 0,646.5 38.6,1205.3 -185.5,1205.3 -102.2,0 -56.1,-712.1 -127.4,-892.4 -45.1,-113.9 -288.8,-36 -312.9,-197 -21.3,-142.2 -208.6,-159.7 -208.6,-324.5"
         style="fill:#000000;fill-opacity:1;fill-rule:nonzero;stroke:none"
         id="path29559" />
      <path
         d="m 18914.5,28764.3 c 58.7,0 165.9,76.3 273,246.8 110.8,176.2 186.9,398.9 208.8,610.9 3.1,30 -15.3,53 -48,91.2 -35.5,41.4 -79.7,93 -79.7,170 0,85.7 0.6,169.7 1.3,251 3.2,404.8 6.3,787.1 -88.9,883.1 -9.8,9.8 -19.9,15.7 -31.8,18.2 -6,-14.1 -15.9,-48.4 -24.5,-128.7 -8.2,-77.9 -13,-177.2 -17.5,-273.2 -9.1,-189.9 -17.6,-369.3 -52.1,-456.4 -30.6,-77.2 -114.1,-94.3 -181.1,-108.1 -84,-17.2 -121.6,-29.7 -128.8,-77.6 -12.7,-85 -69.3,-133.5 -119.1,-176.2 -55.1,-47.2 -88.9,-79.2 -88.9,-140.7 0,-293.3 43.2,-535.5 125,-700.4 67.1,-135.4 156.7,-209.9 252.3,-209.9"
         style="fill:#ffffff;fill-opacity:1;fill-rule:nonzero;stroke:none"
         id="path29561" />
      <path
         d="m 27455,17734 c 0,-209.7 368.1,260.2 399.1,85.7 69.2,-386.7 158.5,-993.9 301.6,-1028.6 10.8,-3.1 22.2,-2.6 33.5,2.1 5.7,2.1 10.9,4.1 16.5,6.7 47.5,18.6 89.9,40.8 127.1,65.6 17.5,11.3 34.1,23.2 49.5,36.7 40.3,32 73.8,69.1 102.3,110.5 16.5,23.2 30.9,47.4 43.8,73.8 110.1,222 110.1,546.3 110.1,989.8 0,293.3 -107.9,556.7 -92.5,779.7 35.7,503.5 -211.2,503.5 -356.8,503.5 -112.1,0 -335.1,-71.3 -277.8,-527.7 45.9,-368.2 -456.4,-709 -456.4,-1097.8"
         style="fill:#000000;fill-opacity:1;fill-rule:nonzero;stroke:none"
         id="path29563" />
      <path
         d="m 28171,16841.5 c 416,158.4 416,540.7 416,1234.8 0,140.3 -25.7,273.7 -50.4,402.8 -25.8,134.3 -50.2,261.1 -41.9,380.5 13,185.4 -12.5,313.7 -75.7,381.5 -62.1,66.6 -154.9,66.6 -229.5,66.6 -36.4,0 -105.5,-9.1 -159.2,-69.9 -67.4,-76.4 -90.8,-214.6 -67.7,-399.5 26.1,-208.7 -104,-403.6 -229.8,-592.2 -110.6,-166 -225,-337.6 -226,-509.8 29.1,13.7 78.4,49.4 110.3,72.5 75.8,54.9 141.3,102.3 198.3,102.3 47,0 80.6,-30.8 89.8,-82.4 7.2,-41.1 14.8,-84.6 22.7,-129.7 40.6,-234.7 148.7,-858.2 240.6,-858.2 0.5,0 1.5,0.2 2.5,0.7"
         style="fill:#ffffff;fill-opacity:1;fill-rule:nonzero;stroke:none"
         id="path29565" />
      <path
         d="m 28099.9,17569.8 c 4.1,-58.3 22.2,-466.3 48.5,-719.8 2.5,-20.7 4.7,-40.8 7.3,-58.9 10.8,-3.1 22.2,-2.6 33.5,2.1 5.7,2.1 10.9,4.1 16.5,6.7 -1,17.1 -2.5,34.6 -4.1,53.7 -22.7,253.5 -92.9,659.4 -101.7,716.2"
         style="fill:#000000;fill-opacity:1;fill-rule:nonzero;stroke:none"
         id="path29567" />
      <path
         d="m 28281.7,17611.6 c 3.6,-55.8 20.1,-432.7 44.8,-686.7 2.2,-20.7 4.2,-40.8 6.3,-59.4 17.5,11.3 34.1,23.2 49.5,36.7 -2,20.6 -4.1,42.3 -6.1,64.5 -28,252.5 -86.8,593.8 -94.5,644.9"
         style="fill:#000000;fill-opacity:1;fill-rule:nonzero;stroke:none"
         id="path29569" />
      <path
         d="m 28443.8,17647.8 c 3,-46 15,-310.4 33,-544.3 2.6,-31 5.1,-61.4 7.8,-90.8 16.5,23.2 30.9,47.4 43.8,73.8 -4.1,34.1 -8.7,68.7 -13.9,103.8 -28.9,208.6 -64.5,417.7 -70.7,457.5"
         style="fill:#000000;fill-opacity:1;fill-rule:nonzero;stroke:none"
         id="path29571" />
      <path
         d="m 23084.7,16390.2 596.2,1313.4 88.6,-1313.4 h 2254.7 l 117.2,2644.8 1.3,29 v 0 l 2.6,58.9 22.4,505.6 -619.5,26.7 -3407.7,146.3 -555.1,23.8 -70.6,-253.1 -17.9,-64 v -0.1 l -64.6,-231.6 c 0,0 -504.9,-1810 -805.2,-2886.3 h 2457.6"
         style="fill:#000000;fill-opacity:1;fill-rule:nonzero;stroke:none"
         id="path29573" />
      <path
         d="m 20680.5,16390.2 h 2347.7 l 605.8,1334.7 98.3,-17.9 88.8,-1316.8 h 2151.6 l 117.3,2648.7 2.6,57.2 21.4,483.2 -3975.7,170.7 -514.2,22.1 -70.5,-252.6 -16.7,-59.8 -55,-197 c 0,0 -500.6,-1794.6 -801.4,-2872.5"
         style="fill:#0f4a6e;fill-opacity:1;fill-rule:nonzero;stroke:none"
         id="path29575" />
      <path
         d="m 18099.2,25337.6 c -11.7,628.4 13.9,1291.3 121.1,1910.8 95.4,552.8 199.1,1103.6 322.1,1651 0,0 684.2,-56.7 687.3,-56.9 24.9,-2.4 4.6,-1217.2 5.1,-1323.5 1.7,-416.3 10.9,-833.3 49.7,-1247.9 796.3,321.1 1592.7,642 2389,963 71.1,28.7 142.1,57.4 213.3,86 29.3,12.5 59.6,24.6 90.3,36.4 1.2,0.5 2.3,0.9 3.4,1.3 v 0 c 648,247.7 1591.4,341.3 2101.2,341.3 485.6,0 1361.5,-120.9 1944.8,-379.3 336.6,-106.3 846.4,-441.3 1001.7,-621.7 323.3,-375.6 624.1,-1583.3 760.5,-2059.8 112.1,-391.3 325.9,-1161.4 404.4,-1560.7 97.1,-494.5 208.1,-1507.3 262.8,-2008.3 59.9,-547.4 239.5,-2189.9 239.5,-2189.9 l -935.8,-152 c 0,0 -808,3059.2 -1123.6,4058.5 -37.4,118.8 -99.1,274.5 -169.3,441 -16.7,-150.7 -27.1,-290.4 -27.1,-414 0,-953.4 58.6,-3137.5 0,-3425.1 -133.9,-657.8 -2151.4,-602.4 -2822.7,-602.4 -645.4,0 -2073.8,300.8 -2220.3,929.4 -198.8,853.4 137.7,2342.6 137.7,3373.5 0,520.8 -208.5,1343.3 -319.8,2122.7 -292.7,-69.9 -569.7,-134.2 -738.7,-169.2 -374.2,-77.2 -751.9,-138.5 -1128.5,-202.4 -324.3,-55.1 -910.7,-206.3 -1113.3,-16.7 -190.6,178.2 -132.2,367.9 -134.8,514.9"
         style="fill:#000000;fill-opacity:1;fill-rule:nonzero;stroke:none"
         id="path29577" />
      <path
         d="m 28638.8,18922.4 c -30.1,275.8 -180.3,1649.8 -234.1,2141.3 -53.5,489.8 -164.9,1508.8 -262.1,2004 -85.8,436.7 -330.5,1301.7 -403.4,1556.4 -17.8,62.1 -37.9,135 -61.2,219.4 -145,525.2 -415,1502.8 -688.8,1821 -153.5,178.3 -655.4,504.2 -978.2,606.1 l -2.8,0.9 -2.6,1.2 c -549.6,243.5 -1401.4,374.9 -1923.9,374.9 -482,0 -1434.4,-90 -2082.9,-337.9 l -13.5,-5.2 c -28.2,-10.9 -53.9,-21.4 -78.4,-31.8 0,0 -963.8,-388.5 -1338.7,-539.6 -421.5,-169.9 -843,-339.8 -1264.4,-509.8 l -64.2,-25.8 -6.4,68.8 c -41.3,440.7 -48.4,880.5 -49.9,1252.5 -0.1,22.4 0.7,92.6 1.8,189.7 3,263.1 10.5,925.4 0.4,1085.9 -119.4,9.9 -476.5,39.5 -602.6,49.9 -105.4,-473 -204.8,-984.4 -311.9,-1604.6 -94.5,-546.8 -133.9,-1168.7 -120.3,-1901.2 0.5,-30 -1.2,-60.3 -3.1,-92.4 -7.4,-126.9 -15,-258.1 121.6,-385.8 55.8,-52.3 158.6,-78.8 305.4,-78.8 h 0.1 c 189.4,0 419.9,44 605.1,79.3 56.9,10.9 110.7,21.1 158.8,29.3 55.8,9.5 111.5,18.9 167.3,28.3 315.4,53.2 641.6,108.2 959.5,173.9 148.7,30.7 396.7,87.5 737.1,168.8 l 55,13.2 8,-56 c 40.9,-286.4 94.9,-578.2 147.1,-860.5 89.1,-481.4 173.2,-936 173.2,-1269.5 0,-395.4 -47.9,-845.7 -98.6,-1322.4 -79.4,-747.1 -161.6,-1519.6 -40.4,-2039.4 31.3,-134.5 131.4,-262.4 297.5,-380.1 149.7,-106 348.8,-201.3 591.8,-283.2 463.6,-156.4 977.4,-226.3 1280.8,-226.3 43.7,0 93.2,-0.2 147.4,-0.5 64.9,-0.3 138.5,-0.7 216.8,-0.7 405.3,0 1001.4,9.4 1496.4,90 559.7,91.2 866.4,250.1 911.7,472.4 39.1,191.9 24.1,1284.9 10.8,2249.3 -6.1,445.3 -11.9,865.9 -11.9,1165.5 0,115.8 9,253.1 27.4,419.7 l 21.7,196.8 76.9,-182.5 c 81.6,-193.5 137.5,-339.2 171,-445.5 291.4,-922.8 1010.6,-3631.8 1112.3,-4015.7 l 841.4,136.7"
         style="fill:#d35f5f;fill-opacity:1;fill-rule:nonzero;stroke:none"
         id="path29579" />
      <path
         d="m 24046.2,27301.6 c -318.6,0 -608.4,161 -675.5,228.1 -19.2,19.2 -25.5,44.9 -17.1,68.9 8.4,23.5 25.1,70.9 298.9,104.1 v 549.4 c -378.7,19.6 -450.9,239.7 -509.1,685.4 -9,6.3 -36.1,13 -52.8,17.1 -49.7,12.3 -124.9,30.8 -128.7,106.5 -1.6,32.9 20.9,108.7 76.6,286.7 26.9,86 63.7,203.7 65.4,226.8 -0.1,620.3 348.2,747.7 871.3,747.7 482.8,0 748.7,-378.3 748.7,-1065 0,-278.1 -98.1,-522.6 -284,-708.6 v -819.4 c 293,-30.5 310.4,-79.6 319,-103.9 8.6,-24.6 1.8,-50.9 -18.5,-70.5 -169.1,-163.3 -415.7,-253.3 -694.2,-253.3"
         style="fill:#000000;fill-opacity:1;fill-rule:nonzero;stroke:none"
         id="path29581" />
      <path
         d="m 24388.2,27682.4 v 888 c 171.8,164.3 284,398.2 284,686.9 0,591.7 -205.1,1013.3 -697,1013.3 -491.9,0 -819.7,-105.3 -819.7,-697 0,-51.4 -144.6,-458.1 -142,-509.9 3.7,-73.9 171.3,-43.7 180.7,-116.2 60,-460.5 127.5,-643.1 509.9,-645.3 v -645.6 c 0,0 -350.5,-36.7 -296.9,-90.4 60.5,-60.4 335.6,-213 639,-213 393.7,0 596.8,179.5 658.3,238.8 59.2,57.2 -316.3,90.4 -316.3,90.4"
         style="fill:#ffffff;fill-opacity:1;fill-rule:nonzero;stroke:none"
         id="path29583" />
      <path
         d="m 24011.7,28663.5 c 0,0 430.3,-344.2 585.2,-258.2 154.9,86.1 476,1063.8 430.2,1376.9 -68.8,471.2 -328.3,723.7 -568,860.6 -240.9,137.7 -722.7,149.1 -929.4,172.2 -109.5,12.1 -447.3,206.5 -567.9,0 -120.5,-206.6 -21.8,-757.4 413,-912.3 113.6,-40.4 441.2,-172.1 487.4,-327 46.2,-154.9 149.5,-912.2 149.5,-912.2"
         style="fill:#232c53;fill-opacity:1;fill-rule:nonzero;stroke:none"
         id="path29585" />
      <path
         d="m 36736.9,13603.2 c 0,-246.9 -396.8,-446.9 -886.1,-446.9 -489.4,0 -886.2,200 -886.2,446.9 0,246.8 396.8,446.9 886.2,446.9 489.3,0 886.1,-200.1 886.1,-446.9"
         style="fill:#a02c2c;fill-opacity:1;fill-rule:nonzero;stroke:none"
         id="path29587" />
      <path
         d="m 35850.8,13195.5 c -459.1,0 -846.9,186.7 -846.9,407.7 0,220.9 387.8,407.6 846.9,407.6 459,0 846.8,-186.7 846.8,-407.6 0,-221 -387.8,-407.7 -846.8,-407.7"
         style="fill:#a02c2c;fill-opacity:1;fill-rule:nonzero;stroke:none"
         id="path29589" />
      <path
         d="m 38969.3,18983.7 c 0,1722.3 -1396.2,3118.6 -3118.5,3118.6 -1722.4,0 -3118.6,-1396.3 -3118.6,-3118.6 0,-1357.9 1596.8,-2573.9 1596.8,-2573.9 265.3,-202 482.3,-639.9 482.3,-973.3 v -281.9 c 0,-333.4 14.4,-638.5 32.1,-678 17.7,-39.6 384.4,-72 717.8,-72 h 579.2 c 333.4,0 638.4,14.5 678,32.2 39.5,17.7 71.9,384.4 71.9,717.8 v 281.9 c 0,333.4 217,771.3 482.2,973.3 0,0 1596.8,1216 1596.8,2573.9"
         style="fill:#deecff;fill-opacity:1;fill-rule:nonzero;stroke:none"
         id="path29591" />
      <path
         d="m 38969.3,18983.7 c 0,1722.3 -1396.2,3118.6 -3118.5,3118.6 -1722.4,0 -3118.6,-1396.3 -3118.6,-3118.6 0,-1357.9 1596.8,-2573.9 1596.8,-2573.9 265.3,-202 482.3,-639.9 482.3,-973.3 v -281.9 c 0,-333.4 14.4,-638.5 32.1,-678 17.7,-39.6 384.4,-72 717.8,-72 h 579.2 c 333.4,0 638.4,14.5 678,32.2 39.5,17.7 71.9,384.4 71.9,717.8 v 281.9 c 0,333.4 217,771.3 482.2,973.3 0,0 1596.8,1216 1596.8,2573.9"
         style="fill:#000000;fill-opacity:1;fill-rule:nonzero;stroke:none"
         id="path29593" />
      <path
         d="m 35561.2,14443.9 c -347,0 -630.8,32.4 -683.8,55.5 -11.5,51.6 -26.9,298.3 -26.9,655.2 v 281.9 c 0,344.9 -223.3,795.6 -497.7,1004.6 -15.8,12 -1581.3,1220.1 -1581.3,2542.6 0,1697.9 1381.3,3079.3 3079.3,3079.3 1697.9,0 3079.3,-1381.4 3079.3,-3079.3 0,-1322.5 -1565.6,-2530.6 -1581.4,-2542.7 -274.4,-208.9 -497.7,-659.6 -497.7,-1004.5 v -281.9 c 0,-347 -32.4,-630.8 -55.5,-683.8 -51.6,-11.5 -298.2,-26.9 -655.1,-26.9 h -579.2"
         style="fill:#ffffff;fill-opacity:1;fill-rule:nonzero;stroke:none"
         id="path29595" />
      <path
         d="m 34986.2,20047.2 c -44,0 -187.6,-7.6 -187.6,-104.4 0,-120.1 107.9,-212.1 198.4,-268.1 123,-76.1 294.6,-134.9 487.6,-167.4 v 182.2 c 0,127 -89.8,211.2 -165,259.4 -94.7,60.6 -222.4,98.3 -333.4,98.3 z m 1784.3,-29.1 c -161.4,0 -389.2,-94.6 -497.5,-206.6 -28.4,-29.3 -61.9,-74.1 -60.3,-120.5 v -1.5 -182.2 c 193,32.5 364.6,91.3 487.6,167.4 90.5,56 198.4,148 198.4,268.1 0,18.7 0,75.3 -128.2,75.3 z m -1193.4,-617.9 v -2658.7 c 0,-45.6 37.1,-82.7 82.7,-82.7 h 377.7 c 45.6,0 82.8,37.1 82.8,82.7 v 2659.3 c -88.5,-10.3 -179.6,-15.5 -271.6,-15.5 -92.1,0 -183.2,5.2 -271.6,15.5 z m 460.4,-2833.9 h -377.7 c -96.6,0 -175.2,78.6 -175.2,175.2 v 2672.1 c -467.4,74.8 -778.5,285 -778.5,529.2 0,121.4 107.4,196.8 280.1,196.8 129.6,0 272.9,-42.2 383.2,-112.8 133.9,-85.8 207.7,-205.6 207.7,-337.3 v -195.6 c 88.2,-10.7 179.4,-16.1 271.6,-16.1 92.2,0 183.4,5.4 271.6,16.1 v 194.8 c -1.9,63.1 27.2,126 86.2,187.1 125.2,129.4 378.2,234.7 564,234.7 138.1,0 220.7,-62.6 220.7,-167.7 0,-244.2 -311.1,-454.4 -778.5,-529.2 v -2672.1 c 0,-96.6 -78.6,-175.2 -175.2,-175.2"
         style="fill:#000000;fill-opacity:1;fill-rule:nonzero;stroke:none"
         id="path29597" />
      <path
         d="m 36256.5,14989.2 c 0,-79.4 -64.4,-143.8 -143.7,-143.8 h -524 c -79.4,0 -143.8,64.4 -143.8,143.8 v 2558 c 0,79.4 64.4,143.8 143.8,143.8 h 524 c 79.3,0 143.7,-64.4 143.7,-143.8 v -2558"
         style="fill:#000000;fill-opacity:1;fill-rule:nonzero;stroke:none"
         id="path29599" />
      <path
         d="m 35588.8,14865 c -68.5,0 -124.2,55.8 -124.2,124.2 v 2558 c 0,68.5 55.7,124.1 124.2,124.1 h 524 c 68.4,0 124.1,-55.6 124.1,-124.1 v -2558 c 0,-68.4 -55.7,-124.2 -124.1,-124.2 h -524"
         style="fill:#bee0e1;fill-opacity:1;fill-rule:nonzero;stroke:none"
         id="path29601" />
      <path
         d="m 36958.3,14999.6 c 0,0 -30.9,-50.8 -30.9,-67.7 0,-19.6 30.9,-78.6 30.9,-78.6 v -288.8 c 0,0 -30.9,-51.9 -30.9,-69.2 0,-19.2 30.9,-77.1 30.9,-77.1 v -253.5 c 0,0 -30.9,-51.9 -30.9,-69.1 0,-19.3 30.9,-77.3 30.9,-77.3 v -237.9 c 0,-11.9 -1.5,-23.5 -4.3,-34.6 -67.8,-10.7 -84.9,-6.3 -141.4,-49.2 -11.8,-8.9 -18.8,-60 -18.8,-60 h -1910.9 c -79.4,0 -143.8,64.3 -143.8,143.8 v 232.9 c 0,0 30.8,54 30.8,72 0,18.6 -30.8,74.3 -30.8,74.3 v 273.3 c 0,0 30.8,53.2 30.8,71 0,18.9 -30.8,75.4 -30.8,75.4 v 253.5 c 0,0 25.7,55.5 25.7,74 0,18.1 -25.7,72.3 -25.7,72.3 v 288.8 c 0,0 30.9,30.2 30.9,63 0,38.5 -28.9,69.4 -25.1,82.2 9.9,34.4 32.5,63.5 62.2,82 22,13.6 48,21.6 75.8,21.6 h 1931.5 c 27.9,0 53.8,-7.9 75.8,-21.6 40.8,-25.3 68.1,-70.6 68.1,-122.3 v -373.2"
         style="fill:#000000;fill-opacity:1;fill-rule:nonzero;stroke:none"
         id="path29603" />
      <path
         d="m 34882.9,13675.9 c -57.6,0 -104.5,46.8 -104.5,104.5 v 222.6 c 20.4,37.1 30.8,64.8 30.8,82.3 0,21.4 -15.8,56.1 -30.8,84.3 v 252.9 c 20.4,36.7 30.8,64.1 30.8,81.4 0,21.5 -15.8,56.7 -30.8,85.2 v 235.2 c 12.4,27.8 25.6,62.1 25.6,82.5 0,20.2 -13.1,53.7 -25.6,81 v 265.3 c 12.7,16.1 30.9,44.8 30.9,77.8 0,31.4 -12.7,57.3 -21.2,74.5 -0.9,1.8 -1.8,3.6 -2.7,5.3 8.2,21.1 23,38.9 42.5,51.1 16.4,10.2 35.5,15.6 55,15.6 h 1931.5 c 19.6,0 38.6,-5.4 55,-15.6 31.1,-19.3 49.6,-52.5 49.6,-89 v -362.4 c -20.5,-35.1 -30.9,-61.5 -30.9,-78.5 0,-22 15.9,-58.5 30.9,-88.2 v -268.6 c -20.5,-35.8 -30.9,-62.6 -30.9,-79.8 0,-21.7 15.9,-57.6 30.9,-86.8 v -233.2 c -20.5,-35.8 -30.9,-62.6 -30.9,-79.7 0,-21.8 15.9,-57.8 30.9,-86.9 v -228.3 c -50.3,-7 -77.1,-12.3 -130.1,-52.5 -5.4,-4 -18.1,-13.6 -27.7,-52 h -1878.3"
         style="fill:#a02c2c;fill-opacity:1;fill-rule:nonzero;stroke:none"
         id="path29605" />
      <path
         d="m 36956.1,13743.2 c -67.8,-10.7 -84.9,-6.4 -141.4,-49.2 -11.7,-8.9 -18.8,-60.1 -18.8,-60.1 l -62.9,11.5 -1504.6,275.9 -487.2,89.3 c 0,0 30.8,54 30.8,72 0,18.6 -30.8,74.4 -30.8,74.4 l 762.6,-142.5 1141.5,-213.3 h 0.1 l 310.7,-58"
         style="fill:#a02c2c;fill-opacity:1;fill-rule:nonzero;stroke:none"
         id="path29607" />
      <path
         d="m 36929.5,14092.9 c 0,-19.3 30.8,-77.2 30.8,-77.2 l -2219.1,414.6 c 0,0 30.8,53.1 30.8,71 0,18.8 -30.8,75.3 -30.8,75.3 l 89,-16.6 831.5,-155.4 1298.6,-242.6 c 0,0 -30.8,-51.8 -30.8,-69.1"
         style="fill:#a02c2c;fill-opacity:1;fill-rule:nonzero;stroke:none"
         id="path29609" />
      <path
         d="m 36929.5,14492.7 c 0,-19.3 30.8,-77.1 30.8,-77.1 l -136.8,25.6 -2007.1,374.9 -75.2,14 c 0,0 25.7,55.6 25.7,74.1 0,18 -25.7,72.2 -25.7,72.2 l 71.6,-13.3 2045.3,-382.1 102.2,-19.1 c 0,0 -30.8,-51.9 -30.8,-69.2"
         style="fill:#a02c2c;fill-opacity:1;fill-rule:nonzero;stroke:none"
         id="path29611" />
      <path
         d="m 36929.5,14929.3 c 0,-19.7 30.8,-78.7 30.8,-78.7 l -77.6,14.5 -2071.4,387 -70.1,13.1 c 0,0 30.9,30.3 30.9,63 0,38.6 -28.9,69.4 -25.2,82.2 l 64.4,-12 2077.1,-388 71.9,-13.4 c 0,0 -30.8,-50.8 -30.8,-67.7"
         style="fill:#a02c2c;fill-opacity:1;fill-rule:nonzero;stroke:none"
         id="path29613" />
      <path
         d="m 35850.8,22609.8 c -16.3,0 -29.5,13.2 -29.5,29.5 v 1629.8 c 0,16.3 13.2,29.5 29.5,29.5 16.2,0 29.4,-13.2 29.4,-29.5 v -1629.8 c 0,-16.3 -13.2,-29.5 -29.4,-29.5"
         style="fill:#222221;fill-opacity:1;fill-rule:nonzero;stroke:none"
         id="path29615" />
      <path
         d="m 33895.4,22092.3 c -10.2,0 -20.1,5.2 -25.5,14.7 l -814.9,1411.5 c -8.2,14 -3.4,32.1 10.7,40.2 14.1,8.1 32.2,3.3 40.2,-10.8 l 815,-1411.5 c 8.1,-14 3.3,-32 -10.8,-40.2 -4.7,-2.7 -9.7,-3.9 -14.7,-3.9"
         style="fill:#222221;fill-opacity:1;fill-rule:nonzero;stroke:none"
         id="path29617" />
      <path
         d="m 32460.7,20666.3 c -5,0 -10.1,1.3 -14.7,4 l -1411.5,814.9 c -14.1,8.1 -18.9,26.2 -10.8,40.2 8.1,14.1 26.2,19 40.2,10.8 l 1411.5,-814.9 c 14.1,-8.1 18.9,-26.2 10.8,-40.3 -5.4,-9.4 -15.4,-14.7 -25.5,-14.7"
         style="fill:#222221;fill-opacity:1;fill-rule:nonzero;stroke:none"
         id="path29619" />
      <path
         d="m 31931.2,18714.1 h -1629.8 c -16.3,0 -29.5,13.2 -29.5,29.5 0,16.2 13.2,29.4 29.5,29.4 h 1629.8 c 16.3,0 29.5,-13.2 29.5,-29.4 0,-16.3 -13.2,-29.5 -29.5,-29.5"
         style="fill:#222221;fill-opacity:1;fill-rule:nonzero;stroke:none"
         id="path29621" />
      <path
         d="m 37773.5,22088.2 c -5,0 -10,1.3 -14.7,4 -14.1,8.1 -18.9,26.1 -10.7,40.2 l 814.9,1411.5 c 8.1,14.1 26.1,18.9 40.2,10.8 14.1,-8.2 18.9,-26.2 10.8,-40.3 l -814.9,-1411.5 c -5.5,-9.4 -15.4,-14.7 -25.6,-14.7"
         style="fill:#222221;fill-opacity:1;fill-rule:nonzero;stroke:none"
         id="path29623" />
      <path
         d="m 39178,20675.1 c -10.2,0 -20.1,5.3 -25.5,14.8 -8.2,14.1 -3.4,32.1 10.7,40.2 l 1411.5,814.9 c 14.1,8.1 32.1,3.3 40.2,-10.8 8.1,-14.1 3.3,-32.1 -10.7,-40.2 l -1411.5,-814.9 c -4.7,-2.7 -9.7,-4 -14.7,-4"
         style="fill:#222221;fill-opacity:1;fill-rule:nonzero;stroke:none"
         id="path29625" />
      <path
         d="m 41317.5,18749.2 v 0 h -1629.9 c -16.2,0 -29.4,13.1 -29.4,29.4 0,16.3 13.2,29.5 29.4,29.5 h 1629.9 c 16.2,0 29.4,-13.2 29.4,-29.5 0,-16.3 -13.2,-29.4 -29.4,-29.4"
         style="fill:#222221;fill-opacity:1;fill-rule:nonzero;stroke:none"
         id="path29627" />
      <path
         d="m 33737.8,17641.9 c -9.3,0 -18.4,4.4 -24.1,12.5 -426.8,606.5 -586.6,1227.2 -474.8,1844.9 205.6,1136.9 1276.5,1880.6 1287.3,1887.9 13.4,9.2 31.8,5.8 40.9,-7.6 9.2,-13.5 5.8,-31.8 -7.6,-41 -10.6,-7.2 -1061.7,-737.7 -1262.7,-1850.2 -108.7,-601.4 47.8,-1207.1 465,-1800.1 9.4,-13.3 6.2,-31.7 -7.1,-41 -5.2,-3.6 -11.1,-5.4 -16.9,-5.4"
         style="fill:#222221;fill-opacity:1;fill-rule:nonzero;stroke:none"
         id="path29629" />
      <path
         d="m 39891.3,8514.7 c -50.1,0 -96.8,31.6 -113.7,81.7 -21.2,62.8 12.6,130.9 75.4,152.1 1894.3,639 3347.8,1414.1 4320,2303.9 836,765 1328,1626 1462.5,2559.1 221.3,1535.7 -566.1,3021.4 -1265.7,3997.3 -840.4,1172.2 -1818.9,2012.4 -2218.9,2292.9 -54.2,38.1 -67.3,112.9 -29.3,167.2 38.1,54.3 112.9,67.4 167.2,29.3 867.9,-608.6 4019.8,-3499.2 3584.3,-6520.9 -142.7,-989.5 -660.1,-1898.5 -1538,-2702 -997.1,-912.4 -2479.3,-1704.5 -4405.4,-2354.2 -12.7,-4.3 -25.7,-6.4 -38.4,-6.4"
         style="fill:#ffffff;fill-opacity:1;fill-rule:nonzero;stroke:none"
         id="path29631" />
      <text
         xml:space="preserve"
         style="font-weight:bold;font-size:5572.88px;font-family:FreeSans;-inkscape-font-specification:'FreeSans Bold';opacity:0.8;fill:#a02c2c;fill-opacity:1;fill-rule:evenodd;stroke-width:29.0254;paint-order:fill markers stroke"
         x="2458.5354"
         y="-30845.291"
         id="text29752"
         transform="scale(0.95167634,-1.0507774)"><tspan
           id="tspan29750"
           style="fill:#a02c2c;fill-opacity:1;stroke-width:29.0254"
           x="2458.5354"
           y="-30845.291"
           sodipodi:role="line">this</tspan></text>
      <text
         xml:space="preserve"
         style="font-weight:bold;font-size:6467.98px;font-family:FreeSans;-inkscape-font-specification:'FreeSans Bold';opacity:0.8;fill:#a02c2c;fill-opacity:1;fill-rule:evenodd;stroke-width:33.6874;paint-order:fill markers stroke"
         x="15744.479"
         y="-41283.145"
         id="text30617"
         transform="scale(1.020128,-0.98026913)"><tspan
           sodipodi:role="line"
           id="tspan30615"
           style="stroke-width:33.6874;fill:#a02c2c"
           x="15744.479"
           y="-41283.145"></tspan><tspan
           sodipodi:role="line"
           style="stroke-width:33.6874;fill:#a02c2c"
           x="15744.479"
           y="-33198.168"
           id="tspan30619">that</tspan></text>
      <text
         xml:space="preserve"
         style="font-weight:bold;font-size:5942.25px;font-family:FreeSans;-inkscape-font-specification:'FreeSans Bold';opacity:0.8;fill:#a02c2c;fill-opacity:1;fill-rule:evenodd;stroke-width:30.9492;paint-order:fill markers stroke"
         x="35705"
         y="-35320.082"
         id="text30617-2"
         transform="scale(0.8839661,-1.1312651)"><tspan
           sodipodi:role="line"
           id="tspan30615-89"
           style="stroke-width:30.9492;fill:#a02c2c"
           x="35705"
           y="-35320.082" /><tspan
           sodipodi:role="line"
           style="stroke-width:30.9492;fill:#a02c2c"
           x="35705"
           y="-27892.271"
           id="tspan30619-3">those</tspan></text>
      <text
         xml:space="preserve"
         style="font-weight:bold;font-size:5119.09px;font-family:FreeSans;-inkscape-font-specification:'FreeSans Bold';opacity:0.8;fill:#c83737;fill-opacity:1;fill-rule:evenodd;stroke-width:26.6619;paint-order:fill markers stroke"
         x="37762.75"
         y="-26628.676"
         id="text30617-4"
         transform="scale(0.93704598,-1.0671835)"><tspan
           sodipodi:role="line"
           id="tspan30615-8"
           style="fill:#c83737;fill-opacity:1;stroke-width:26.6619"
           x="37762.75"
           y="-26628.676" /><tspan
           sodipodi:role="line"
           style="fill:#c83737;fill-opacity:1;stroke-width:26.6619"
           x="37762.75"
           y="-20229.812"
           id="tspan30619-1">these</tspan></text>
    </g>
  </g>
</svg>
