<svg id="Layer_2" data-name="Layer 2" xmlns="http://www.w3.org/2000/svg" viewBox="0 0 1000 1000">
  <defs>
    <style>
      .cls-1 {
        font-size: 150px;
        fill: #ed2024;
        font-family: FreeSansBold, FreeSans;
      }

      .cls-2 {
        letter-spacing: -0.03em;
      }

      .cls-3, .cls-4, .cls-5, .cls-6, .cls-7, .cls-8 {
        fill: #231f20;
      }

      .cls-4 {
        letter-spacing: -0.01em;
      }

      .cls-5 {
        letter-spacing: -0.02em;
      }

      .cls-6 {
        letter-spacing: -0.02em;
      }

      .cls-7 {
        letter-spacing: -0.01em;
      }

      .cls-8 {
        letter-spacing: 0em;
      }

      .cls-9 {
        font-size: 72px;
        font-family: MicrosoftSansSerif, Microsoft Sans Serif;
      }

      .cls-10 {
        fill: #353635;
      }

      .cls-11 {
        fill: #39342e;
      }

      .cls-11, .cls-20 {
        stroke: #23201c;
      }

      .cls-11, .cls-13, .cls-14, .cls-15, .cls-16, .cls-17, .cls-18, .cls-19, .cls-20, .cls-21, .cls-22 {
        stroke-miterlimit: 10;
        stroke-width: 3px;
      }

      .cls-12, .cls-20 {
        fill: #989898;
      }

      .cls-13 {
        fill: #6e6d6b;
        stroke: #5c5b5a;
      }

      .cls-14 {
        fill: #f9f9fa;
      }

      .cls-14, .cls-18, .cls-21 {
        stroke: #969696;
      }

      .cls-15 {
        fill: #f4aa2a;
        stroke: #da8f27;
      }

      .cls-16 {
        fill: #f04e58;
        stroke: #ce2c3d;
      }

      .cls-17 {
        fill: #d23a43;
        stroke: #bf2635;
      }

      .cls-18 {
        fill: none;
      }

      .cls-19 {
        fill: #7a7c7b;
        stroke: #676767;
      }

      .cls-21 {
        fill: #7ccdf2;
      }

      .cls-22 {
        fill: #fff;
        stroke: #c2c1c1;
      }

      .cls-23 {
        fill: #f3fafe;
      }
    </style>
  </defs>
  <title>ambulance</title>
  <g>
    <text class="cls-1" transform="translate(106.54 809.73)"><tspan class="cls-2">A</tspan><tspan class="cls-3" x="103.8" y="0">m</tspan><tspan class="cls-4" x="237.15" y="0">b</tspan><tspan class="cls-5" x="327.3" y="0">u</tspan><tspan class="cls-6" x="415.95" y="0">l</tspan><tspan class="cls-7" x="453.9" y="0">a</tspan><tspan class="cls-8" x="535.8" y="0">n</tspan><tspan class="cls-3" x="626.7" y="0">ce</tspan></text>
    <text class="cls-9" transform="translate(330.67 886.04)">แอ<tspan class="cls-3" x="78.75" y="0">มบิวเลินซ</tspan></text>
    <g>
      <path class="cls-10" d="M224.61,523l-18.39,3s-8.09-42.66-2.94-55.16,32.36-33.09,49.27-28.68,38.24,25,39,42.66,3,39.71,3,39.71Z"/>
      <path class="cls-11" d="M256.23,577.48s42.65-.06,48.53-3,22.8-20.59,23.53-42.65-19.85-58.09-23.53-62.51-54-7.32-59.37-3.29,11.57,5.5,16.72,12.12,16.91,36.77,16.18,47.06S257,576,257,576l-6.62-.73Z"/>
      <path class="cls-12" d="M259.17,484.77c-2.21-.74-16.18-4.42-22.8,2.94s-8.82,29.41-8.82,36.77,6.62,30.15,11.76,34.56,22.8,8.09,27.21-5.89,8.83-26.47,6.62-39S259.17,484.77,259.17,484.77Z"/>
      <path class="cls-13" d="M263.58,498.74s-15.44,0-14,21.32,11,30.89,16.18,25.74,5.88-19.12,5.14-26.47S263.58,498.74,263.58,498.74Z"/>
      <path class="cls-11" d="M251.08,465.65c-23.53-2.21-28.68,40.44-28.68,40.44a155.91,155.91,0,0,0,1.47,29.42c2.21,28.68,17.65,39.71,30.15,41.91s22.8-27.21,27.21-48.53S274.61,467.85,251.08,465.65Zm15.44,67.65c-1.47,7.35-5.15,22.8-12.5,24.27s-21.33-12.5-21.33-28.68-.73-23.53,7.36-37.51c0,0,11.76-9.56,19.85,2.95S268,526,266.52,533.3Z"/>
      <path class="cls-14" d="M468,542.86l-43.38,10.29L286.38,536.24s0-69.86-27.95-79.42-40.44,14-45.59,28.68S206.22,526,206.22,526l-76.48-11.77s-2.94-285.32,4.42-311.8l293.41-42.65L667.3,180.32V314.16L500.37,512Z"/>
      <path class="cls-15" d="M138.57,234.74l4.41,4.41s16.91-.73,20.59-2.2,2.21-29.42,2.21-29.42-2.21-3.67-5.15-3.67-21.33,4.41-21.33,4.41S137.83,229.59,138.57,234.74Z"/>
      <path class="cls-15" d="M141.51,234.74c.73,0,16.18-.73,17.65-2.21s1.47-25,1.47-25"/>
      <path class="cls-16" d="M175.34,231.06l4.41,4.42s16.91-.74,20.59-2.21,2.2-29.41,2.2-29.41-2.2-3.68-5.14-3.68-21.33,4.41-21.33,4.41S174.6,225.92,175.34,231.06Z"/>
      <path class="cls-16" d="M178.28,231.06c.73,0,16.18-.73,17.65-2.2s1.47-25,1.47-25"/>
      <path class="cls-15" d="M328.31,212.73l4.73,4.73s18.15-.79,22.09-2.37,2.37-31.56,2.37-31.56-2.37-3.94-5.52-3.94-22.88,4.73-22.88,4.73S327.52,207.2,328.31,212.73Z"/>
      <path class="cls-15" d="M331.46,212.73c.79,0,17.36-.79,18.94-2.37S352,183.53,352,183.53"/>
      <path class="cls-16" d="M374.64,209.78l4.73,4.74s18.15-.79,22.09-2.37,2.37-31.56,2.37-31.56-2.37-3.94-5.52-3.94-22.89,4.73-22.89,4.73S373.85,204.26,374.64,209.78Z"/>
      <path class="cls-16" d="M377.79,209.78c.79,0,17.36-.78,18.94-2.36s1.58-26.83,1.58-26.83"/>
      <path class="cls-16" d="M447.42,196.5h35.3a7.61,7.61,0,0,0,3.68-4.41c.73-2.94-.74-15.44-.74-15.44s-1.47-2.94-5.88-2.94H446C445.22,173.71,444.48,193.56,447.42,196.5Z"/>
      <path class="cls-16" d="M451.1,178.12s-.74,13.23,1.47,14,27.21,0,27.21,0"/>
      <path class="cls-16" d="M623,204.26l33.45,2.62a7.22,7.22,0,0,0,3.81-3.91c.92-2.73.45-14.69.45-14.69s-1.17-2.9-5.36-3.22l-32.05-2.51C622.61,182.5,620.45,201.26,623,204.26Z"/>
      <path class="cls-16" d="M627.86,187.11s-1.68,12.49.36,13.35,25.78,2,25.78,2"/>
      <path class="cls-14" d="M374.62,245s-2.94,135.3-1.47,136,37.5,0,37.5,0V243.57Z"/>
      <path class="cls-12" d="M377.56,308.28s.74,55.89,2.21,55.89h4.41s1.47-55.16,0-55.89S377.56,306.81,377.56,308.28Z"/>
      <polygon class="cls-17" points="245.93 243.56 245.93 285.48 209.16 288.42 209.16 316.37 245.93 314.16 245.93 349.46 273.88 349.46 272.4 314.16 304.76 312.69 304.76 281.8 274.61 283.27 274.61 242.09 245.93 243.56"/>
      <polygon class="cls-17" points="129.16 388.26 420.21 392.85 544.49 382.55 543.02 417.85 420.21 434.02 129.21 424.8 129.16 388.26"/>
      <path class="cls-18" d="M427.57,159.73s-14,347.83-2.94,393.42"/>
      <path class="cls-10" d="M553.32,562.71,574.64,559l86-13.24s1.47-44.12-4.41-55.15-33.09-40.45-51.48-38.24-45.59,25-50,31.62-6.62,63.24-6.62,64.71S544.49,562.71,553.32,562.71Z"/>
      <path class="cls-12" d="M623.18,603.9s-14.71,14-27.21,2.94-29.42-49.27-26.48-58.1,14.71-31.62,24.27-34.56,27.94,6.62,32.36,10.3,8.82,57.35,2.94,68.38Z"/>
      <path class="cls-13" d="M623.91,532.56s-20.59-.73-19.12,33.1,30.89,24.26,32.36,21.32S623.91,532.56,623.91,532.56Z"/>
      <path class="cls-19" d="M569.49,562.71s-44.85,14.71-45.59,14.71S432,562.71,431.24,562s-.73-11.77,0-11.77,34.12-6.72,35.45-7S524.64,551,524.64,551Z"/>
      <polyline class="cls-19" points="553.32 556.1 523.16 564.18 430.86 551.68"/>
      <line class="cls-19" x1="523.17" y1="564.19" x2="523.9" y2="577.42"/>
      <path class="cls-11" d="M606.17,628s36.12-.52,48.63-4.2S683.48,584,682.74,559s-12.5-58.1-18.38-64-65.36-5.88-68.35,0,29.37,5.15,36.72,41.18,5.15,61-3.67,70.6-25.74,15.44-25.74,15.44l-1.47,2.94Z"/>
      <path class="cls-11" d="M647.44,553.15c-3.67-30.88-8.09-33.82-8.09-33.82s-11-35.3-46.33-24.27-26.47,87.51-20.59,98.54,16.18,35.3,38.24,34.56S651.12,584,647.44,553.15ZM609.2,603.9c-14,2.2-27.21-16.18-29.41-44.13s16.91-39,16.91-39c7.36-2.94,12.5,0,12.5,0,13.24,6.62,19.86,27.21,19.86,40.44S623.18,601.69,609.2,603.9Z"/>
      <path class="cls-11" d="M785.79,596s35.2,2.74,48.44-3.88,26.47-40.45,25-52.21-52.21-5.15-62.51-3.68,19.86,8.09,19.86,10.3S785.79,596,785.79,596Z"/>
      <path class="cls-11" d="M753.34,551.68s0,.23.15.66c1.22,4.91,9.58,36,28.52,42.73,20.59,7.35,41.92-22.06,45.6-53.68S753.34,551.68,753.34,551.68Z"/>
      <path class="cls-20" d="M770.25,556.83s7.35,19.12,18.38,16.92,20.59-16.92,16.92-22.8S770.25,553.15,770.25,556.83Z"/>
      <path class="cls-11" d="M754.07,328.13c1.47-.73,14.71-.73,23.53,2.21s14.71,19.85,14,25,2.95,19.86.74,22.06-19.12-5.15-19.12-5.15Z"/>
      <path class="cls-14" d="M551.84,557.57c.09,2.32-82.84-12.08-86.28-14.13s-16.67-94-11.52-176.33,5.15-110.31,11.77-114.72,83.83-16.91,161-4.41,74.27,11.76,85.3,25.74,68.39,84.56,78.69,95.59c0,0,74.27,22.06,82.36,35.3s1.47,92.66,1.47,92.66l-223.55,12.5s-14.71-57.36-51.48-45.59S550.37,517.86,551.84,557.57Z"/>
      <polygon class="cls-17" points="498.81 453.08 498.81 472.27 481.98 473.61 481.98 486.4 498.81 485.39 498.81 501.55 511.6 501.55 510.93 485.39 525.74 484.72 525.74 470.58 511.94 471.26 511.94 452.41 498.81 453.08"/>
      <path class="cls-21" d="M540.81,263.42S571,360.49,583.47,364.17s164-4.42,202.22,4.41c0,0-78.68-93.39-81.62-93.39S629.06,253.86,540.81,263.42Z"/>
      <path class="cls-21" d="M474.63,266.36s39.71-8.09,48.54,0,34.56,102.22,34.56,102.22-81.63,2.94-88.25,0S474.63,266.36,474.63,266.36Z"/>
      <path class="cls-16" d="M670.24,225.92c-2.21,0-53.68-15.45-117.66-13.24s-69.86,10.29-72.8,13.24-1.47,14.7,1.47,16.91,42.07.78,42.07.78S619.4,239.17,665,254.24c0,0,17.7,1.09,21.38-9.94S670.24,225.92,670.24,225.92Z"/>
      <path class="cls-16" d="M504.05,218.56c.73,0,25-.73,24.26,7.36s-5.14,16.91-11,16.91"/>
      <path class="cls-22" d="M570.23,211.21s21.32,10.29,19.85,21.32-5.19,11-5.19,11l44,4.74s6-8.42.13-20.19-13.91-12.5-13.91-12.5Z"/>
      <path class="cls-23" d="M623.18,264.89,729.07,362s37.5.73,44.12,2.94l-94.86-93.39Z"/>
      <polygon class="cls-23" points="614.91 262.77 719.51 362.69 701.12 362.69 598.17 262.69 614.91 262.77"/>
      <path class="cls-11" d="M547.43,324.46c-2.38-1.73-38.24-4.42-39.71,4.41s-6.62,51.47,1.47,53.68,44.86,1.47,47.8-1.47,1.47-8.09,1.47-8.09a3.19,3.19,0,0,0,2.94,1.47c2.21,0,3.68-1.47,3-4.41s-2.21-2.21-3-5.88S555.52,330.34,547.43,324.46Z"/>
      <line class="cls-14" x1="694.92" y1="414.53" x2="864.06" y2="409.38"/>
      <path class="cls-22" d="M751.13,435.5c-3.68,0-59.57,0-62.51,2.2s-8.82,47.8-2.2,49.27,183.84-12.5,186-14,4.42-39.71,0-41.18S751.13,435.5,751.13,435.5Z"/>
      <polygon class="cls-11" points="744.51 434.02 744.51 485.5 832.02 478.15 833.49 431.82 744.51 434.02"/>
      <path class="cls-19" d="M651.12,498.74s2.94,55.15,8.09,60.3,30.15,8.09,39,8.82,188.26-25,188.26-25,12.5-16.18,12.5-20.59-1.47-19.86-2.21-22.06-19.12-19.86-19.85-19.86-73.54,13.24-100,14.71-86.78,6.62-94.13,6.62S651.12,498.74,651.12,498.74Z"/>
      <path class="cls-19" d="M699.65,553.15s2.94-12.5,11.77-15.44,171.34-20.59,174.28-20.59"/>
      <path class="cls-19" d="M681.27,524.48s22.8,4.41,37.5,2.2,159.58-22.06,159.58-22.06"/>
      <path class="cls-14" d="M590.08,373.73s70.6,16.91,89.72,41.91"/>
      <path class="cls-15" d="M696,494.33c1.47,0,25.73-.74,27.94-1.48s3.68-8.82,2.21-8.82-30.89.74-33.1,1.47S688.62,494.33,696,494.33Z"/>
      <path class="cls-15" d="M850.92,481.06c1.1-.08,19.21-2,20.82-2.66s2.26-6.8,1.16-6.72-23.06,2.27-24.67,2.94S845.42,481.47,850.92,481.06Z"/>
    </g>
  </g>
</svg>
