<svg id="Layer_2" data-name="Layer 2" xmlns="http://www.w3.org/2000/svg" viewBox="0 0 1000 1000">
  <defs>
    <style>
      .cls-1 {
        fill: #69421d;
        stroke: #593315;
      }

      .cls-1, .cls-3, .cls-5 {
        stroke-miterlimit: 10;
        stroke-width: 3px;
      }

      .cls-2 {
        fill: #452010;
      }

      .cls-3 {
        fill: #868586;
      }

      .cls-3, .cls-5 {
        stroke: #5c5c5c;
      }

      .cls-4 {
        fill: #3c3b39;
      }

      .cls-5 {
        fill: #cecdcd;
      }

      .cls-6 {
        fill: #4c4c4b;
      }

      .cls-7 {
        fill: #eaeaea;
      }

      .cls-8 {
        font-size: 150px;
        fill: #ed2024;
        font-family: FreeSansBold, FreeSans;
      }

      .cls-9 {
        fill: #231f20;
      }
    </style>
  </defs>
  <title>ax</title>
  <g>
    <path class="cls-1" d="M518.81,128.52s-24.89,39.95-35.31,59.63-14.48,26.63-22,36.47S429.08,264,425,274.4s-12.74,50.37-20.26,64.26-26,49.21-50.37,69.47-62.52,61.94-74.1,84.52-31.84,66-41.68,89.15-19.1,30.68-19.68,38.21,14.47,26,25.47,33,30.1,13.32,44,0S315.62,559.22,355,504.23s75.84-85.43,90.89-109.58,66-115,79.31-137.61,39.94-52.68,45.15-67.73-30.68-42.26-35.89-46.9Z"/>
    <path class="cls-2" d="M521.7,165.57s-44,83.36-59.62,106.52S445.29,330,429.66,358.34s-44.58,57.89-66,72.94-48.05,60.21-61.95,81.05-34.15,68.89-39.36,87.41-15.59,46.89,0,53.26c0,0-24.32-6.37-30.1-15.63A117.23,117.23,0,0,1,223,618.85s26.63-52.68,35.89-72.94S287.25,488,300,473s42.83-49.79,72.36-74.1,47.47-84.52,47.47-84.52,6.95-30.68,8.68-36.47,12.3-21.71,19.11-29.24,22-26.92,29.23-39.8,24.89-39.07,27.93-45.59,5.21-17.51,11.87-17.94S521.7,165.57,521.7,165.57Z"/>
    <path class="cls-3" d="M481,192.84s-6.19-1.51-3.58-10.77,20.26-44,27.5-50.65,19.39-11,35-4.06,30.68,21.71,64.55,31,103.33,20.56,121.28,22.58,37.62,7.43,39.65,10.33-2.12,33.38-16.4,70S648.58,367.17,645.2,364.52s-35.7-25.28-56.15-64.84-30.88-55.77-40.14-70.82-25.47-33.57-47.47-36.47S481,192.84,481,192.84Z"/>
    <path class="cls-4" d="M481,190.46s11.77-3.47,23.35,0l3.54,1s8.61-21.07,17.49-32.84,19.88-23.15,22.58-22.77-7.33-8.29-18.72-8.87-17.37,1.54-22.19,5.59-19.88,32.23-19.88,32.23-5.33,11.84-7.52,18.33S481,190.46,481,190.46Z"/>
    <path class="cls-5" d="M721.38,180.37s-7.48,56.12-27.45,86.51-56.16,68-56.16,68L623.9,346.17S650,373.23,654.61,374.9s38.88-19.74,49-30.45,57.75-65,69.33-115.2c0,0,4.3-27.31-1.18-41,0,0-22.76-4.4-29.6-5.29S721.38,180.37,721.38,180.37Z"/>
    <path class="cls-6" d="M598.5,161.71l-13.31-2.54s-5,13.73-7,16.63S571.88,191,568,195.67s-7.92,12.55-11.39,16.41-8.88,5.4-7,8.68,11.2,15.24,11.2,12.73-5.41-2.7-.39-12.35,10.61-16.28,15-24.63A189.11,189.11,0,0,1,590.4,172.9c4.44-5.79,9.26-6.56,14.09-7.72S598.5,161.71,598.5,161.71Z"/>
    <path class="cls-7" d="M629.77,346s16.78,15,21.61,18.6,7.52,5.14,10.42,3.59,38.78-27.2,43-32,14.66-19.87,18.72-26,20.64-29.71,23.73-35.12-2.12-6.56-7.14,0-24.31,29.72-32.61,37.44-15.44,17.75-28.94,23.35-24.13,9.26-32.23,9.07A105.47,105.47,0,0,0,629.77,346Z"/>
  </g>
  <text class="cls-8" transform="translate(397.89 810.99)">A<tspan class="cls-9" x="108.3" y="0">x</tspan></text>
</svg>
