<svg id="Layer_1" data-name="Layer 1" xmlns="http://www.w3.org/2000/svg" viewBox="0 0 1000 1000">
  <defs>
    <style>
      .cls-1 {
        font-size: 150px;
        fill: #ed2024;
        font-family: FreeSansBold, FreeSans;
      }

      .cls-2, .cls-3 {
        fill: #231f20;
      }

      .cls-3 {
        letter-spacing: 0em;
      }

      .cls-4 {
        font-size: 72px;
        font-family: MicrosoftSansSerif, Microsoft Sans Serif;
      }

      .cls-5 {
        fill: #56383b;
        stroke: #482b2e;
      }

      .cls-13, .cls-14, .cls-16, .cls-5, .cls-8, .cls-9 {
        stroke-miterlimit: 10;
      }

      .cls-16, .cls-5, .cls-8, .cls-9 {
        stroke-width: 3px;
      }

      .cls-6 {
        fill: #38231d;
      }

      .cls-7 {
        fill: #715051;
      }

      .cls-8 {
        fill: #808b8f;
      }

      .cls-16, .cls-8, .cls-9 {
        stroke: #86a0a8;
      }

      .cls-9 {
        fill: #b0c7d2;
      }

      .cls-10 {
        fill: #a8bbc2;
      }

      .cls-11 {
        fill: #a3bdca;
      }

      .cls-12 {
        fill: #808e90;
      }

      .cls-13 {
        fill: #c47465;
      }

      .cls-13, .cls-14 {
        stroke: #b06055;
        stroke-width: 2px;
      }

      .cls-14 {
        fill: none;
      }

      .cls-15 {
        fill: #e6e7e7;
      }

      .cls-16 {
        fill: #a0b4bc;
      }

      .cls-17 {
        fill: #93a6ad;
      }
    </style>
  </defs>
  <title>bird</title>
  <text class="cls-1" transform="translate(349.01 798.47)">B<tspan class="cls-2" x="108.3" y="0">i</tspan><tspan class="cls-3" x="150" y="0">r</tspan><tspan class="cls-2" x="207.6" y="0">d</tspan></text>
  <text class="cls-4" transform="translate(434.57 893.95)">เบิร์ด</text>
  <g>
    <path class="cls-5" d="M448,521.24s-10.07,43.85-11.85,44.44-11.85,6.52-27.25,6.52-30.81-1.19-33.18,4.74-1.78,8.88,6.51,7.11,38.52-1.19,38.52-1.19-10.67,1.19-11.26,2.37-3,8.29,3,7.7,27.25-4.14,35.55-10.66c0,0,4.15,7.11,14.81,6.52s23.11-1.19,24.88-3.56,5.93-8.89-7.1-7.7-21.33,2.37-26.67-7.7-3.55-7.71-1.77-14.82,10.66-30.21,10.66-30.21Z"/>
    <path class="cls-6" d="M378.68,576.34s-19.55-.59-22.51,7.11c0,0,21.33-2.37,22.51-1.77C378.68,581.68,381.05,577.53,378.68,576.34Z"/>
    <path class="cls-6" d="M410.67,590s2.37-3.55,1.19-4.15-19.55,1.78-22.52,5.93C389.34,591.75,410.08,589.38,410.67,590Z"/>
    <path class="cls-7" d="M443.26,546.13l.29.12c1.17.55,5.47,2.8,4.45,6.39-1.19,4.15-6.52,14.82-.59,19.56a29.68,29.68,0,0,0,12.44,5.92c1.78.59,17.77,1.78,21.92,1.19s8.29,3,3.55,3-34.36-3-36.14-3S429,587,422.52,587.6s-9.48.59-9.48.59-.59-3,1.19-3,14.81-3,17.77-7.7c0,0-37.32,1.78-39.69,1.18s-13-1.18-12.45-2.37,3-3,10.67-3,23.7.59,27.85-.59,14.81-3.56,17.77-5.93S443.26,546.13,443.26,546.13Z"/>
    <path class="cls-5" d="M478.22,523s-4.74,62.8-28.44,63.4-40.29-1.19-45.62,5.33-1.78,8.29,5.92,7.7S448,598.26,448,598.26a68.85,68.85,0,0,0-8.3,1.19c-1.77.59-10.66,16-1.77,13.63s34.36-12.45,37.92-15.41c0,0,17.77,8.3,29.62,5.33s14.81-8.88,10.66-10.07-18.36,4.15-23.1,1.19-16-8.89-14.81-19.55S494.8,524.8,494.8,524.8Z"/>
    <path class="cls-6" d="M403,597.08s-8.89.59-13,3c0,0,5.92-9.48,17.18-8.29C407.12,591.75,405.93,596.49,403,597.08Z"/>
    <path class="cls-6" d="M437.93,607.74s-10.07-3.55-17.78,4.74l16.59-1.18A3.31,3.31,0,0,0,437.93,607.74Z"/>
    <path class="cls-6" d="M515,595.89s8.89-1.18,13.63,4.74l-17.19-1.18S511.39,595.89,515,595.89Z"/>
    <path class="cls-7" d="M462.22,589.38s-14.22,5.92-28.44,4.74-25.48-1.19-25.48-1.19-5.33,4.74.6,4.74,32-.59,32-.59h9.48Z"/>
    <path class="cls-7" d="M471.7,584.05s9.48,12.44,16,12.44,5.34-.6,5.34-.6-11.26-5.92-14.22-11.84-2.37-10.08-.59-16.59S486.51,542,486.51,542l2.14-7.72-9.25-1.76-3,14.22s1.18,2.37,0,8.29-4.74,15.41-4.74,19S470.51,582.86,471.7,584.05Z"/>
    <path class="cls-7" d="M475.25,594.12c-1.18,0-8.88,1.18-13.62,4.14a107.44,107.44,0,0,1-11.26,5.93c-3.56,1.78-10.67,3-10.67,3.55s-1.77,4.15.6,3.56,13.62-4.74,16-5.93,17.78-8.29,17.78-8.29a2.6,2.6,0,0,1,1.78-.59c1.18,0,5.33,2.37,5.33,2.37Z"/>
    <path class="cls-6" d="M488.58,580.79s11.26.59,13.63,4.14l-14.81-.59Z"/>
    <path class="cls-8" d="M425.49,468.51s20.14,65.18,23.69,68.14,4.15,3,15.41-5.33S494.8,475,494.8,475Z"/>
    <path class="cls-9" d="M262.56,159.24s-5.93-13.62-5.34-14.22,13.63-17.18,23.7-21.92,25.48-13,49.18,2.37S372.76,241.6,380.46,249.3s13.62,23.11,37.92,35.55,98.94,56.28,136.26,62.21,118.5,31.4,132.72,35.54S762,411,781,412.82s62.8-3,63.39-1.78S824.81,429.41,823,429.41s11.85,1.19,11.85,1.19,3,23.1-71.69,10.66-132.12,14.22-132.12,14.22-99.53,29-103.68,29.62S507.84,526,503.1,529s-15.41,13-24.88,7.7-8.3-24.29-16-37.92-8.89-19.55-8.89-19.55S403,478,376.9,465.55s-58.06-27.25-70.5-77S289.22,270,289.22,270s1.77-47.4-.6-58.66-4.14-25.48-18.95-41.47S262.56,159.24,262.56,159.24Z"/>
    <path class="cls-10" d="M270.85,168.72s40.29,5.33,33.18,29.63-9.48,19-5.93,39.69,7.11,35.55,17.78,49.18,25.47,29.62,20.73,57.47-7.11,36.14-2.37,53.91,13,35,17.78,33.77,2.37-10.07,3.55-11.85,4.74-1.77,12.45,6.52,39.1,32,45,34.36,23.7,10.67,28.44,11.26,21.92,3,30.22,7.7,9.48,24.89,13.62,29.63,13.63,11.25,14.82-2.37-7.11-42.07,2.37-41.48,40.88,5.34,48,5.93-26.66,12.44-26.66,12.44-10.08,19-11.85,24.29S501.91,529,496,531.32s-16,8.29-21.33-1.78-6.52-25.48-10.07-32.59-10.67-19-10.67-19-32.58-2.37-40.88-4.74-24.29-2.37-65.76-26.07c0,0-20.74-18.95-26.66-27.25s-14.22-40.29-14.22-40.29-8.89-46.21-9.48-59.84-4.74-37.92-5.33-53.32,1.18-37.92,0-48-3.56-21.33-5.93-26.66-8.29-16-10.07-18.37A32.13,32.13,0,0,0,270.85,168.72Z"/>
    <path class="cls-11" d="M409.49,289s-55.69,3-60.43,1.19S306.4,235.67,307,230.34s8.89-28.44,19.55-36.14,17.78-24.29-.59-25.48-57.47-4.14-57.47-4.14l-7.11-12.45s13.63-20.14,19-22.51,19.55-14.81,33.77-8.89,28.44,25.48,31.4,33.18,11.85,42.07,13,48.58,14.81,40.29,17.77,46.81S401.79,284.25,409.49,289Z"/>
    <path class="cls-12" d="M283.59,154.21c.59,0,11.26-8.3,12.44-10.08s7.7-8.88,17.18-3,7.11,12.44,4.74,13.63-5.92,6.52-13.63,5.92-20.14-3-21.32-3.55S283.59,154.21,283.59,154.21Z"/>
    <path class="cls-13" d="M296.33,156.28a76.5,76.5,0,0,0-19.56-4.15c-10.07-.59-14.81-.59-16-1.77a40.12,40.12,0,0,1-3.56-5.34s-20.14,11.85-25.47,19-6.52,11.26-5.34,11.85,10.08-3,17.19-4.74,25.24-2.12,25.36-2,1.89-7.53,7.81-8.71S295.14,156.87,296.33,156.28Z"/>
    <path class="cls-14" d="M225.82,175.83s23.11-14.22,32.59-15.4"/>
    <line class="cls-14" x1="245.97" y1="157.47" x2="247.74" y2="156.28"/>
    <circle class="cls-2" cx="305.12" cy="148.96" r="9.25"/>
    <circle class="cls-15" cx="306.9" cy="145.63" r="2.09"/>
    <path class="cls-16" d="M345.21,332.54S391.42,272.7,436.45,284s50.95,21.33,114.34,73.46S704,450.15,711.65,460.81s-1.19,7.11-26.07,7.7-158.19,7.11-160,7.11-37.92,1.19-88.87-19.55-54.51-19.55-72.28-42.66S336,365.42,345.21,332.54Z"/>
    <path class="cls-11" d="M413,289c-.56.19-56.28,38.52,3.56,77.62s103.68,48,133.9,59.84,40.88,5.33,20.73-13.63-23.7-24.88-23.7-24.88S584.27,406.3,560,374.31c0,0,21.33,22.51,29.62,24.29s-27.25-29-34.36-35-58.66-48-60.44-49.18S448.59,277.14,413,289Z"/>
    <path class="cls-17" d="M378.68,302.62S355.57,340,371,361.28s62.8,63.39,74.06,66.35,98.35,29,101.31,28.44-6.52-11.85-7.7-12.44,101.9,16,109.6,12.44,3.59-8,3.59-8,17.74,5,20.71,3.83,7.11-8.29,7.11-8.29,32.58,19,31.4,20.74-43.85,3-43.85,3l-125.6,5.33s-43.84,3.56-80-10.66S392.31,435.93,387,432.37,353.8,396.82,349.65,385s-7.11-45-3.56-49.76S378.68,302.62,378.68,302.62Z"/>
    <path class="cls-11" d="M563.53,353.57c.59,0,71.1,48.59,95.39,53.33s66.36,14.22,85.32,18.36,65.76,11.85,70.5,11.85,16.59-4.74,16.59-4.74l-13-3L837.85,414s-52.14,4.14-59.84,3-94.8-35-114.94-39.1S563.53,353.57,563.53,353.57Z"/>
  </g>
</svg>
