<svg id="Layer_1" data-name="Layer 1" xmlns="http://www.w3.org/2000/svg" viewBox="0 0 1000 1000">
  <defs>
    <style>
      .cls-1, .cls-16 {
        fill: #fff;
      }

      .cls-1, .cls-13 {
        stroke: #747474;
      }

      .cls-1, .cls-11, .cls-13, .cls-16, .cls-2, .cls-4, .cls-5, .cls-6, .cls-7 {
        stroke-miterlimit: 10;
      }

      .cls-1, .cls-13, .cls-2, .cls-5, .cls-6, .cls-7 {
        stroke-width: 3px;
      }

      .cls-2, .cls-4 {
        fill: #dda06d;
      }

      .cls-2, .cls-4, .cls-5 {
        stroke: #5d4224;
      }

      .cls-3 {
        fill: #cc8d61;
      }

      .cls-16, .cls-4 {
        stroke-width: 2px;
      }

      .cls-5, .cls-7 {
        fill: #f7a8aa;
      }

      .cls-6 {
        fill: #272523;
      }

      .cls-11, .cls-6 {
        stroke: #010101;
      }

      .cls-7 {
        stroke: #d44f54;
      }

      .cls-8 {
        fill: #d4d4d4;
      }

      .cls-9 {
        fill: #3a3b3a;
      }

      .cls-10 {
        fill: #2e2e2e;
      }

      .cls-11, .cls-13 {
        fill: none;
      }

      .cls-12 {
        fill: #d3d3d3;
      }

      .cls-14 {
        fill: #c05655;
      }

      .cls-15 {
        fill: #bd5655;
      }

      .cls-16 {
        stroke: #231f20;
        stroke-linecap: round;
      }

      .cls-17 {
        fill: #f5908f;
      }

      .cls-18 {
        font-size: 150px;
        fill: #ed2024;
        font-family: FreeSansBold, FreeSans;
      }

      .cls-19 {
        letter-spacing: -0.01em;
      }

      .cls-19, .cls-20 {
        fill: #000;
      }
    </style>
  </defs>
  <title>cow</title>
  <g>
    <path class="cls-1" d="M189.11,210.22s-24.16-13-30.06-18.86-14.14-23-15.91-28.87-4.12-17.09,0-25.34,8.25-3,9.43-2.36,9.43,6.48,10.61,6.48,12.37.59,14.73.59,8.84-.59,8.84-.59l20,18.27,1.76,23-19.44,28.29Z"/>
    <path class="cls-2" d="M330.54,151.29c.59,0,34.18-8.25,42.43-16.5s13.56-20,14.15-21.22,1.76-7.07,7.07-1.17,8.25,16.5,6.48,25.34-9.43,24.16-13,26.52-40.07,23.57-40.07,23.57-26.52-6.48-26.52-7.07-6.48-19.45-5.89-20.63S330.54,151.29,330.54,151.29Z"/>
    <path class="cls-3" d="M392.42,115.93s5.89,16.5-2.36,27.11-15.32,24.16-20.62,27.7,17.09-8.84,17.09-8.84L396,147.17s5.3-17.68,2.94-23.58S394.78,117.11,392.42,115.93Z"/>
    <path class="cls-4" d="M235.07,146c-.59,0-36.53-6.49-33.59-49.51,0,0-.59-3.53-4.71-.58s-14.14,9.42-15.91,20,.59,25.93,2.35,28.29a67.59,67.59,0,0,0,12.38,17.09c8.25,8.25,11.79,9.43,11.79,9.43s24.75-15.32,25.34-15.32,7.66-4.72,7.66-4.72Z"/>
    <path class="cls-3" d="M190.29,103s-5.31,25.93,2.94,38.3,25.34,18.86,25.34,18.86l-9.43,7.66L207.38,169s-12.38-6.48-23-25.93a23.07,23.07,0,0,1-2.94-11.2c0-6.48.59-17.68,7.07-27.69C188.52,104.15,190.29,102.38,190.29,103Z"/>
    <path class="cls-5" d="M190.88,202s-4.72-11.79-22.4-19.45c0,0-11.78-7.07-12.37-26.52,0,0,43,13.56,48.32,17.09Z"/>
    <path class="cls-1" d="M394.78,480.12s-2.36,13.56,1.76,19.45,10.61,16.5,11.79,24.75,3.54,25.34,2.36,31.24-8.25,15.32-10,17.09-8.25,8.25-7.66,11.78c0,0,13,4.72,17.09,8.84s8.84,10,8.84,10,19.45-8.25,19.45-8.84,5.3-15.91,5.3-15.91l5.3-67.77L437.21,470.7Z"/>
    <path class="cls-6" d="M390.59,584s-8.7,5.59-9.95,14.9,3.73,10.55,8.71,7.45c0,0,.62,14.9,10.57,10.55s14.93-8.69,14.93-8.69l5-9.93-13.68-14.9-10.57-3.1Z"/>
    <path class="cls-1" d="M705.69,499.91s-37.44,48.53-38.51,68,.15,25.93-2.79,28.3-9.41,3-11.18,3c0,0,3,10.59.67,13,0,0-13.66-18.19-20.76-22.28s-15.36-7.57-16.54-7.56,5.22-14.18,21.67-23.11,16.28-40.75,16.28-40.75.43-26.53-2.54-31.22S679.61,473,679.61,473l21.25,5.77Z"/>
    <path class="cls-7" d="M577.48,490.56s20.25,22.12,42,23.72c0,0-2.86,5.13,0,8s6.39-3.52,5.42-7.37c0,0,6.36,2.56,8.63,1.92,0,0-.93,5.94,2,6.18s4.49-2.33,4.17-5.86c0,0,7.37,0,10.25-1.6,0,0-.32,6.09,2.89,5.77s2.88-3.85,3.2-7.69c0,0,7,.32,10.58-2.25,0,0-1.28,6.74,1.6,6.74s4.49-3.85,3.53-7.38c0,0,6.74-1.28,18.59-13.14s15.38-27.9,15.38-27.9l-118.76,4.83Z"/>
    <path class="cls-8" d="M642.29,595.63v-5.3s1.76,7.66,10,0,4.72-18.86,8.84-28.88,5.9-16.5,9.43-23.57,6.49-17.09,10.61-24.16,10-20,10-20l9.43,11.2-19.45,28.28s-13.55,23.57-14.73,29.47-2.36,28.87-1.77,30.64-7.07,4.13-7.07,4.13l-6.48.59,2.35,10.6Z"/>
    <path class="cls-6" d="M618.71,580.9c-.59,0-14.14,5.89-18.26,13s-4.72,11.79-3,13,11.2-2.36,11.2-2.36S598.09,618,615.18,618s23-.59,27.7-1.76a63.68,63.68,0,0,0,10.6-4.13s-1.18-10-1.76-10.61S644.05,588,644.05,588Z"/>
    <path class="cls-1" d="M736,269.15c1.76,0,16.5,1.77,40.66,37.72s30.64,37.71,33.59,52.45A206,206,0,0,1,813.78,387l-5.9,1.18s-2.36-25.34-13-35.95-27.7-30.64-27.7-30.64l-28.88-30.05Z"/>
    <path class="cls-9" d="M809.65,382.3s-30,13-25.34,48.32c0,0,7.07-9.43,8.25-11.19,0,0-4.13,28.28,10,42.43s34.18,24.16,40.66,22.39c0,0-14.14-17.09-7.07-44.2S829.1,374.64,809.65,382.3Z"/>
    <path class="cls-10" d="M793.74,397.62s-10.61,13.56-8.25,27.11c0,0,6.48-9.43,8.25-9.43s-.59,3.54,0,7.07-1.77,14.15,2.36,23.57,15.32,21.81,18.85,24.17,11.79,8.25,16.5,10,10.61,4.13,8.25,1.18S829.1,463,832,445.94s5.31-18.26,3.54-27.69,0,2.35-3,13-7.07,17.09-6.48,22.4a77.58,77.58,0,0,0,3,13.55c1.18,4.13,5.3,8.25,1.77,6.48s-5.9,0-10.61-10-10-15.32-11.2-20.62-4.71-2.36-3.54,2.94,2.36,13,1.18,11.79-2.35-2.36-4.12-7.66-.59-29.47.59-32.41-.59,0-2.36,2.94-4.12,14.74-4.12,16.51,1.17-25.93,1.76-28.88-8.84,5.89-9.43,7.07S792,398.8,793.74,397.62Z"/>
    <path class="cls-1" d="M275.15,150.11s-50.68-26.52-79,30.65c0,0-14.73,20-7.07,40.66,0,0-.59,15.32-5.31,22.39s-12.37,24.16-3.53,34.77l-5.9,7.07s23.58,48.92,24.17,48.92,35.94,13.55,35.94,13.55l19.45,19.45,9.43-1.18s28.88-25.34,43.61-27.11c0,0,32.41,44.2,44.79,77.2s26.52,66,49.5,72.48,22.39,4.72,22.39,4.72l3,4.12s-10.61,23,7.07,34.18c0,0,5.3,26.52,3.54,33s-8.84,7.66-7.07,24.16c0,0-13,10.6-13,14.14,0,0,27.7,13,38.89,27.11,0,0,3.54-8.24,3.54-24.16,0-1.18,13-6.49,9.43-23.58S461.37,529,462,527.86s9.43-5.31,3.53-24.75c0,0,10.61-18.27,10.61-20.63,0,0,90.75,13.56,100.77,12.38,0,0,58.93,2.94,87.22-7.66,0,0,45.38,20,48.91,34.77s.59,53-8.84,67.77c0,0-18.85,12.37-16.5,20.62s20,23.57,21.81,23,17.09,0,17.09,0,1.77-7.66-1.18-13c0,0,18.27.59,15.91-13.55s-1.18-37.13-1.18-37.13,18.86-49.5,21.22-56,2.35-18.27-17.09-42.43c0,0-5.31-23,0-38.31s21.21-41.25,19.44-77.2,1.77-53.63-26.52-91.34-76-31.24-104.89-27.7-65.42,10-97.83-3-73.07-30-107.25-8.84c0,0-25.93-2.35-35.95-8.84,0,0,27.11,1.77,36.54-2.35s25.93-19.45,31.82-33,8.84-13.56,7.66-28.29c0,0-.59-6.48-9.43-3.54s-47.14,6.49-59.52,5.9l-4.71.59c-13,4.71-4.72.58-18.86,8.84,0,0-14.14,9.42-17.68,13-2.63,2.64-12.37,15.32-27.7-2.36-13.85-16,4.13-23.57,4.13-23.57S306.38,132.43,275.15,150.11Z"/>
    <path class="cls-11" d="M360.6,208.45s17.16,6,31.26,7.7"/>
    <path class="cls-5" d="M360.6,198.43s8.84.59,14.73-2.94,20.63-18.27,36.54-20.63,38.3-2.35,41.84-4.71S439,194.31,422.47,198.43s-44.19.59-48.32-1.76C374.15,196.67,364.72,199.61,360.6,198.43Z"/>
    <path class="cls-12" d="M347,400.57s17.09,27.11,30.06,31.23l13,4.13s27.11,51.86,31.82,56c0,0-17.09-2.36-21.8-4.71s-20-13.56-25.93-24.75C374.15,462.45,350,412.35,347,400.57Z"/>
    <path class="cls-13" d="M395.37,389.37s-8.25,18.27-6.49,34.77,8.25,25.93,34.77,69.54"/>
    <path class="cls-13" d="M491.42,427.09s-10.6,47.73-15.32,55.39"/>
    <path class="cls-13" d="M601.62,418.25s11.79,51.86,62.47,68.95"/>
    <path class="cls-12" d="M598.38,422.54s-27,23.52-59.1,13.77-35.57-12.05-40.16-9.76a22,22,0,0,0-7,5.43s-5.9,28.48-7.48,30.46-4,17.76-5.93,18.77,16.41,2.15,26.74,3.29,33.85,6.31,42.46,6.31,18.36,2.3,21.8,2.3,31,1.15,37.29.57,26.4-2.87,29.27-2.87,19.5-4,21.23-4a9.64,9.64,0,0,1,2.19.14s-21.49-7.83-30.77-18.62S611.57,450.08,598.38,422.54Z"/>
    <path class="cls-8" d="M484.35,445.36S463.73,496,458.42,499.57c0,0,1.77,17.68-1.77,24.75s-1.17,25.93,1.77,36.54A102.12,102.12,0,0,1,462,587.38c0,5.89,0,10.61-4.13,12.37s-5.89,1.18-6.48,1.77,4.13,10,1.77,13.56-4.72.59-2.95,4.12,5.31,8.84,5.31,7.66,2.94-18.86,2.35-21.21,10-4.72,10-13-4.71-33-4.71-35.36-3.54-25.34-2.36-28.87,7.66-8.84,3-25.34c0,0,18.85-33.59,20-49.5S484.35,445.36,484.35,445.36Z"/>
    <path class="cls-6" d="M456.54,629.1s-13.44,10.73-35.83,7.78c0,0-16.5.59-8.84-11.2,0,0-18.86,4.13-7.66-12.37,0,0,11.78-14.73,17.67-13S453.48,623.68,456.54,629.1Z"/>
    <path class="cls-6" d="M684.13,633.34c1.17-.13-.59,14.74,21.21,10s21.22-9.43,21.22-9.43-14.74-22.39-38.9-23.57c0,0-11.78,8.84-14.14,13S668.81,635.11,684.13,633.34Z"/>
    <path class="cls-12" d="M760.15,343.4s-21.22,70.72-33,89.58,18.85,57.75,20,67.77S736,553.2,731.27,565.57s-1.77,34.18-1.77,37.72-12.37,7.07-14.73,7.07.59,1.18,0,5.9,9.43,11.19,9.43,11.19L723,618s14.73-.59,15.32-5.89-2.35-43.61,1.77-51.27,20-44.2,20-48.32,2.94-5.31-13.56-35.36c0,0-4.12-5.31-4.71-9.43s-1.18-27.11-.59-29.47,10-25.93,11.2-28.87,8.84-27.7,9.43-36S760.74,344.58,760.15,343.4Z"/>
    <path class="cls-12" d="M372.38,260.31s8.25,77.2-67.77,73.08l-45.37,26.52,3.53,5.3s27.11-24.16,44.2-27.11c0,0,22.39,1.18,34.18-4.71,11.63-5.82,25-12.78,32.69-29.38.1-.22.21-.45.31-.68C381.81,286.24,371.79,265,372.38,260.31Z"/>
    <path class="cls-7" d="M176.14,353.42s5.31,27.7,30.06,28.88,39.48,3.54,46.55-3.54,12.38-11.78,7.07-28.87S176.14,353.42,176.14,353.42Z"/>
    <path class="cls-7" d="M212.09,291s-20-9.43-33.59-5.9-16.5,16.5-16.5,16.5,1.77,18.27,0,20-14.14,27.7,8.84,34.18l6.48,1.77s23,.59,31.23-1.77c0,0,13,10.61,28.29,7.07s31.24-4.71,34.18-23.57-12.37-23.57-12.37-23.57,10.6-27.11-15.33-29.47C243.32,286.24,213.86,291.55,212.09,291Z"/>
    <path class="cls-14" d="M229.77,318.06s-3-13,11.2-15.91C241,302.15,243.91,316.89,229.77,318.06Z"/>
    <path class="cls-15" d="M182.72,317.48s2.82-13-10.75-15.92C172,301.56,169.14,316.3,182.72,317.48Z"/>
    <path class="cls-9" d="M431.31,358.73s-14.14,9.43-7.66,17.68c0,0-4.71-3.54-5.89,2.94s-4.13,28.29,4.12,25.93,25.34-1.18,32.42-1.77,15.32-5.3,16.5-14.14,8.84-23-1.77-23.57-8.25-14.73-18.27-15.91S431.31,358.73,431.31,358.73Z"/>
    <path class="cls-9" d="M617.79,285.13s-23,5.21-31.88,15.78c0,0-21.83,5.81-22.51,28.79s-20.7,17-24.87,29.37-4.83,28.27,21.09,31.32,10.44,40.7,55.93,13.18,58-57.52,44.48-70.54-31.75-18.39-31.12-28.41S627.81,285.76,617.79,285.13Z"/>
    <path class="cls-9" d="M664.09,240.28s14.14,6.48,13.55,14.14-7.66,12.37-2.35,21.8,11.19,10,12.37,20.63-5.89,13.55,2.36,23,33,4.72,40.07,2.95,19.45,1.77,23-4.13,4.12-19.44,0-23-39.49-15.91-39.49-20.62,2.95-28.88-13-31.83S649.36,230.85,664.09,240.28Z"/>
    <path class="cls-9" d="M469,246.17s20.63,1.18,18.86,14.14-4.72,26.52,1.18,31.83-21.81,15.32-36.54,7.66S429,286.24,417.76,287.42s-23,1.18-24.75-8.25-15.32-33.59-8.84-36,2.95-23,14.73-15.32,28.88-4.71,36,5.89,32.41-4.12,35.95,1.77S469,246.17,469,246.17Z"/>
    <path class="cls-13" d="M367.08,239.1S415.4,340.46,307,339.28"/>
    <ellipse class="cls-16" cx="196.77" cy="238.51" rx="15.32" ry="22.39"/>
    <ellipse class="cls-9" cx="195.42" cy="240.38" rx="11.09" ry="14.84"/>
    <ellipse class="cls-16" cx="279.27" cy="240.87" rx="15.32" ry="22.39"/>
    <ellipse class="cls-9" cx="278.52" cy="242.74" rx="11.09" ry="14.84"/>
    <path class="cls-17" d="M265.13,339.28s-29.47,25.93-53,8.84c0,0-47.14,10-49.5-8.84,0,0-4.72-4.13-2.36,4.12s20,15.33,48.32,10.61c0,0,13,7.66,23,5.9s22.88-1.72,28.53-7.93,9.18-12.7,9.18-13.88S265.13,339.28,265.13,339.28Z"/>
    <path class="cls-17" d="M259.24,365.21s-5.9,11.2-10.61,12.37-36.54,3.54-48.91,0-16.51-12.37-16.51-12.37,11.79,4.71,15.92,7.07,20.62,5.3,28.28,4.13a98.29,98.29,0,0,0,17.68-4.13C250.4,370.51,259.24,365.21,259.24,365.21Z"/>
    <path class="cls-12" d="M322.29,152.47s-8.35,8.74-5.65,13.8,7.42,9.18,9.78,12.72,7.66,4.12,7.66,4.12-18.27-4.12-21.81-15.32,0-14.14-1.76-15.32-15.33-2.95-18.86-1.77-14.74,3.54-14.74,3.54l-5.3,1.18s-5.3,5.89-6.48,7.66-3.54,4.12-2.95,7.07-2.36,7.07-2.94,4.12,1.17-8.25,2.94-13,4.72-8.25,1.77-9.43-23.57-1.18-28.58,2.06-13.44,2.81-18.65,8.33-12.5,12.85-14.46,15.37,6.88-21.64,29.87-27.53,35.95-.59,37.12,1.18,4.72,1.18,4.72,1.18,16.5-7.66,22.39-7.07,15.91.59,18.86,1.77,11.2,3.53,11.2,3.53Z"/>
    <path class="cls-12" d="M239.49,231.14S236,265.32,222.4,282.41"/>
  </g>
  <text class="cls-18" transform="translate(345.35 812.22)">C<tspan class="cls-19" x="108.3" y="0">o</tspan><tspan class="cls-20" x="197.7" y="0">w</tspan></text>
</svg>
