<svg id="Layer_2" data-name="Layer 2" xmlns="http://www.w3.org/2000/svg" viewBox="0 0 1000 1000"><defs><style>.cls-1{fill:#8f2100;}.cls-1,.cls-2{stroke:#c41b05;stroke-miterlimit:10;stroke-width:3px;}.cls-2{fill:#e02d0a;}.cls-3{fill:#cc230d;}</style></defs><title>carpet</title><path class="cls-1" d="M86.5,262.5c-1,0-22,8-22,11s15,26,22,37,13,26,21,47,21,43,33,57,24,46,29,65,14,47,23,59,38,52,42,63,33,79,45,102,35,101,40,112,37,58,40,63,2,11,10,11,43-10,81-37,185-86,213-105,173-90,179-94,68-29,78-34-75-80-75-80l-360-402Z"/><path class="cls-2" d="M67.5,266.5s-3-5-5-6-5-2-4-4,2-5-2-5-9-1-10-4-1-6,3-6-1-6,4-5,5,6,8,2-1-7,4-6,13,3,11,7-4,7-1,8,9,1,10,2,31-9,35-11,8-6,6-8-8-3-10-7-1-10,5-9,3-3,8-2,0-6,6-3,5,11,5,14,4,5,9,5,32-13,33-15,2-4-4-4-13-11-9-12,6,2,9,1,2-7,5-4,2,8,5,4,5-10,7-4-7,12-2,14,35-6,36-13-5-3-8-9,0-10,3-7-1-2,5-1,4,6,6,6,2-8,5-9,9-2,8,3-7,8-4,10,5,5,10,3,30-10,30-15-4-4-7-9,1-7,3-6,3-4,7-5,6-1,9,2,6,4,4,8-6,7,1,7,38-9,38-12-3-2-8-6-5-8,0-7,2-6,7-5,5,8,9,5,5-8,7-3-1,7,0,10,8,2,18-2,19-8,15-12-12-6-9-9,6,4,8,0-2-9,2-6,6,6,8,3,10-5,10-2-6,7-3,10,5,7,12,3,28-12,26-15-12-5-12-9,3,1,6-2,3-5,6-4,5-3,6-4,4,0,5,5-2,9,2,11,30-3,34-7,4-7,2-9-12-2-8-8,6-1,9-3,2-9,5-5,2,11,6,8,1-10,5-6-2,9,0,12,7,0,6,6,3,8,6,10,14,21,24,37,147,177,162,193,105,125,123,147,45,52,51,59,30,28,37,39c0,0,13,8,17,16,0,0,25,12,21,14s-9-2-6,2,7,7,2,7-9-5-9-1,10,11-4,8-26-22-32-21-38,16-39,20-1,7,5,10,18,6,15,12-8,3-10,7-3,7-7,7-6,0-8,2-2,7-5-1-14-28-17-27-34,17-33,20,1,5,9,8,17,10,14,14-12-2-13,4,4,16-2,10-12-15-11-8,6,12-1,9-13-16-18-18-12-4-14-3S754,694.44,753.23,699s-2.73,11.53,4.27,15.53,13,9,9,12-6,8-8,8-4,0-5-5-5-2-4,2,1,11-4,9-10-2-12-4,2-5-1-11-7-15-12-13-29,15-31,18,4,11,9,17,13,16,7,15-6-2-9,1-3,9-9,7-11-4-11,0,5,13-1,4-5-6-7-15-3-16-9-16-35,15-38,17-7,8,2,12,19,6,14,12-15,0-17,6-4,10-9,8-6-6-11-3-7-24-10-23-36,18-38,21-2,8,4,14,15,14,10,16-10-2-11,3,0,10-3,9-1-8-5-5-5,14-11,9-9-1-9-9-2-22-5-22-6-1-15,4-23,15-26,19-7,4-1,11,18,13,15,18-9-2-12,4,0,9-7,7-8,6-8,6,3,7-3,4-7,4-10-9-3-27-8-27-37,15-40,18-1,8-4,10-8,6-2,10,15,17,11,19-15,0-16,5,6,11,0,10-15-4-15,0-3,6-5,2-6,0-8-9,4-26,3-29-6-7-4-11,0-5-4-10-26-55-58-129-56-114-65-133-43-74-52-99-17-57-29-74-38-41-44-78l-35-55C73.5,281.5,64.5,275.5,67.5,266.5Z"/><path class="cls-3" d="M209.5,226.5s-82,45-82,70-3,55,25,101,83,99,101,129,97,289,122,311,217-97,270-127S860,639,851,585,633,281,587,246s-56-92-111-91S209.5,226.5,209.5,226.5Z"/></svg>