<svg xmlns="http://www.w3.org/2000/svg" viewBox="0 0 1000 1000"><defs><style>.cls-1{fill:#60ad4b;stroke:#3c7f26;}.cls-1,.cls-10,.cls-11,.cls-14,.cls-15,.cls-16,.cls-18,.cls-22,.cls-23,.cls-3,.cls-4,.cls-7,.cls-9{stroke-miterlimit:10;}.cls-1,.cls-11,.cls-14,.cls-15,.cls-16,.cls-18,.cls-22,.cls-23,.cls-3,.cls-4,.cls-7{stroke-width:3px;}.cls-2{fill:#3c7f26;}.cls-16,.cls-22,.cls-3{fill:#fed1a5;}.cls-3{stroke:#d1a682;}.cls-4{fill:#383b44;stroke:#1b1c1e;}.cls-5{fill:#1b1c1e;}.cls-6{fill:#f7c6a1;}.cls-7{fill:#7a7b7d;stroke:#3a3a3a;}.cls-8{fill:#616566;}.cls-9{fill:#e6e7e8;stroke:#231f20;stroke-linecap:round;}.cls-10{fill:#e81f54;stroke:#ce0040;}.cls-11{fill:#1e961e;}.cls-11,.cls-16{stroke:#171;}.cls-12{fill:#eabf98;}.cls-13{fill:#178417;}.cls-14{fill:#e1dddc;}.cls-14,.cls-15{stroke:#a8a8a8;}.cls-15{fill:#cdc9ca;}.cls-17{fill:#ffb092;}.cls-18{fill:#452b1e;stroke:#2b1a13;}.cls-19{fill:#655244;}.cls-20{fill:#191818;}.cls-21{fill:#fff;}.cls-22{stroke:#eabf98;}.cls-23{fill:#ea1f4b;stroke:#e50e47;}</style></defs><title>golf</title><g id="Layer_2" data-name="Layer 2"><path class="cls-1" d="M243.41,892.18c57.27,35.7,302,42.76,400.3,18.4s169.35-20,170.55-72.38-34.11-133.38-98.12-152.44S389,637.34,288.82,665.9s-153.07,102.86-114,150.4S204.24,867.75,243.41,892.18Z"/><path class="cls-2" d="M750.5,766.5c1,7-12,67-44,66s-77-25-93-24-74,19-111,13-80,6-75-30,25-81,85-83,79,17,104,24,62.78-9.64,93.89-2.82S750.5,766.5,750.5,766.5Z"/><path class="cls-3" d="M579.06,591.11s17.7,33.18,50.89,70.79,42,73,42,73L700.74,715s-6.64-26.55-12.17-49.78-32.08-49.78-36.5-57.52-17.7-49.78-17.7-49.78Z"/><path class="cls-3" d="M488.36,587.79s17.69,79.65,22.12,102.87,6.64,53.1,6.64,53.1,37.61-2.21,37.61-3.32,0-35.39,4.42-56.41-7.74-56.42-9.95-68.59,2.21-27.65,2.21-27.65Z"/><path class="cls-4" d="M647.64,775.84s7.75,18.81,32.08,10,31-17.7,32.08-23.23,0-43.14,0-44.25S714,736,714,740.44s4.42,24.34-6.64,38.72S683,799.07,668.66,798s-18.8-4.42-21-11.06S647.64,775.84,647.64,775.84Z"/><path class="cls-4" d="M666.59,719.67s-2.35,28.52-3.46,30.73-12.17,7.74-14.38,13.27-3.32,14.38-1.11,16.59,8.85,15.49,34.3,6.64,27.94-18.06,29.45-22.86.81-28.74.61-37.23-.2-11.81-3.52-17.34-8.84-8.85-10-8.85-2.21,6.64-5.53,12.17-3.32,7.74-12.17,8.85S666.59,719.67,666.59,719.67Z"/><path class="cls-4" d="M564.68,764.78l-31,7.74s-32.08,11.06-33.19,11.06-24.33-3.32-25.44-4.42-16.59-10-16.59-10-2.21,13.28,1.11,18.81,24.33,17.7,40.92,11.06S522.65,788,532.6,786.9s26.55-5.53,28.76-8.85S564.68,764.78,564.68,764.78Z"/><path class="cls-4" d="M554.9,729.56a12.82,12.82,0,0,1-10.13,7.56c-7.74,1.11-8.85,4.43-16.59,0s-11.06-6.63-13.28-5.53-14.38,15.49-24.33,19.91-24.34,8.85-26.55,11.07-11.06,8.85-3.32,17.69,21,14.39,36.51,11.07,27.65-11.07,38.71-13.28,22.12-3.32,24.34-5.53,6.63-6.64,6.63-11.06-5.53-14.38-6.63-17.7S556.18,729.74,554.9,729.56Z"/><path class="cls-5" d="M701.85,710.58s5.53,22.12,5.53,31-3.32,17.7-5.53,23.23-12.17,12.17-17.7,13.27-17.7,4.43-24.34,1.11a41.14,41.14,0,0,1-9.95-6.64s-1.11,7.74,12.17,10,16.59,1.1,31-4.43,17.7-23.23,17.7-24.33S709.59,725,709.59,725s-2.21-15.49-5.53-17.7S701.85,710.58,701.85,710.58Z"/><path class="cls-5" d="M548.09,739.34s6.64,11.06,6.64,16.59-2.22,7.74-3.32,10-15.49,10-15.49,10l-7.74,2.21,27.65-6.63s7.75-1.11,7.75-10-7.75-22.12-7.75-23.23S548.09,739.34,548.09,739.34Z"/><path class="cls-6" d="M528.18,604.38s8.85,26.55,13.27,34.29,8.85,52,7.75,58.63-4.43,31-3.32,32.08,8.85-2.21,7.74-4.42,2.21-42,3.32-47.57-3.32-32.08-4.43-36.5-6.63-27.66-6.63-31a39.53,39.53,0,0,1,1.1-7.74Z"/><path class="cls-6" d="M642.11,592.22,630,602.17s22.12,17.7,25.44,22.12,17.7,24.34,22.12,38.72,6.64,26.55,7.74,27.65,6.64,17.7,6.64,17.7,4.43-4.42,3.32-7.74-7.74-33.18-11.06-40.93-14.38-25.44-17.7-29.86-18.81-21-19.91-25.45A110.69,110.69,0,0,0,642.11,592.22Z"/><path class="cls-7" d="M480.61,490.45s-2.21,90.7-2.21,95.13,12.17,12.17,23.23,15.48S558,594.43,558,594.43s6.64,13.27,11.07,14.38,33.18,1.1,47.56-5.53,33.19-26.55,34.29-27.66-13.27-64.16-17.7-74.11-7.74-14.38-7.74-14.38Z"/><path class="cls-7" d="M558,594.43s-17.69-32.08-22.12-36.51-12.17-11.06-12.17-11.06"/><path class="cls-8" d="M524.86,553.5s3.32,15.49,4.42,23.23,0,17.7-1.1,18.8,26.55-3.31,26.55-3.31-21-36.51-24.34-37.61A19.31,19.31,0,0,0,524.86,553.5Z"/><path class="cls-8" d="M561.36,592.22s4.43,13.27,13.28,13.27,25.44,0,33.18-3.32,21-14.38,25.44-17.7,12.17-10,12.17-14.38S641,556.82,641,556.82s-5.53,16.59-16.59,23.23-16.6,13.27-29.87,14.38-34.29-2.21-34.29-2.21Z"/><circle class="cls-9" cx="308.25" cy="761.64" r="14.75"/><path class="cls-10" d="M307,797s1-14-1-16-4.51-4.46-4.26-5.23S308,776,310,776s6.67-2,5.84-.52S310,781,310,782v15Z"/><path class="cls-1" d="M292.5,795.5v-6l6,6s2-8,1-9,2,0,3,1-1,7,2,4,2-6,3-2-3,10,1,6,12-8,11-7-5,7-4,6,12-4,12-4l-6,6-1,3"/></g><g id="Layer_3" data-name="Layer 3"><path class="cls-3" d="M487.71,351S463,390.75,457.83,393.24s-66.27,47.2-66.27,47.2-33.79,0-35.09,7.45-5.19,16.15-2.6,22.36,6.5,19.88,10.4,22.36,41.58-6.21,46.78-9.94,7.79-23.6,7.79-24.84,65-42.24,68.87-46,27.29-46,27.29-46Z"/><path class="cls-6" d="M472.87,386.47s-14.38,23.23-17.7,27.65-37.61,27.66-42,31S401,453.94,401,453.94l-4.7,1.76s1.38,6,3.59,6,47.57-31,49.78-32.08,17.7-21,21-22.13,11.41-15.84,11.41-15.84Z"/><path class="cls-11" d="M506.05,333.37c-5.53,1.11-42,26.55-42,34.29s16.59,17.7,21,26.55,19.91-40.93,21-45.35S506.05,333.37,506.05,333.37Z"/><path class="cls-12" d="M387.69,455.05c0-2.21-6.63-3.32-11.06-3.32s-18.8,2.21-17.7,6.64,0,15.48,2.22,19.91.56,13.27,5.25,8.85,24.61-25.44,25.72-25.44S387.69,455.05,387.69,455.05Z"/><path class="cls-11" d="M508.4,331.19a17.38,17.38,0,0,0-12.56,8.2c-6.23,10.31-16.93,31-20.76,57-5.53,37.61,1.11,105.09,3.32,107.3S495,514.78,510.48,518.1s66.37,4.43,74.11,3.32,24.34-10,29.87-13.27,14.38-14.38,14.38-19.92-6.64-27.65-12.17-36.5-9.95-33.18-9.95-37.61-2.22-40.93-2.22-53.1-13.27-34.29-23.23-36.5C573.37,322.77,527.14,328.68,508.4,331.19Z"/><path class="cls-13" d="M579.06,335.58s2.21,28.76,3.32,42-1.11,33.18,2.21,48.67,12.17,34.29,13.28,44.25,3.32,21,0,26.54-15.49,15.49-19.91,16.6-24.34,4.42-24.34,4.42,37.61,2.21,53.1-10,19.91-17.7,17.7-28.76-17.7-37.61-18.81-44.25-3.32-53.1-3.32-63.05-6.64-18.81-9.95-26.55-4.43-8.85-6.64-10S579.06,335.58,579.06,335.58Z"/><path class="cls-14" d="M252.73,120.65s6-10.84,15-8.38,13.77,11.36,13.2,15.19-1.81,16.49-8.47,22-12.75,21.39-11.62,27.89S248,154.22,248,154.22s.12-26.25.8-28S252.73,120.65,252.73,120.65Z"/><path class="cls-15" d="M376.26,436.11S262.65,175,260.62,173.23s-10.94-23.41-9.7-36.08,9.6-22.6,8.47-22-28.11,9.41-16.82,39S360.91,445.37,360.91,445.37Z"/><path class="cls-7" d="M413.27,526.17s-5.76,15-12.65,9.3-41.4-92.77-41.4-92.77,16.14-9,17.38-7.47S413.27,526.17,413.27,526.17Z"/><path class="cls-3" d="M520.89,369.63c-2.21.16-22.83,42.65-26.66,43.76s-84.69,47.39-85.74,47.06-23.58-9.81-24.25-7.7,6,6.56,4.37,11.83S386.36,479,379.7,478s-8.48-6.18-10.25-7.9-7.33,1.16-6.9,7.1S368,489.36,368,489.36s-.23,8.05,2.93,9.06c0,0,2.93,9.05,9.26,11.06,0,0,11.69,10.68,22.14,7s18.62-18.46,23.46-22.73,59.78-27.44,70.56-32.14,40.46-32.42,51.81-46.23A292.65,292.65,0,0,0,566.32,391S532.77,368.76,520.89,369.63Z"/><path class="cls-11" d="M571.85,337.06s24.68,13.64,22.72,23.46-18,34.9-21.82,39.5a48.73,48.73,0,0,1-8.29,7.81s-18.56-25.62-27-28.3-19-6-20.75-7.75,19.09-34.55,29.2-37.15S571.85,337.06,571.85,337.06Z"/><path class="cls-13" d="M552.3,340.14s16.87,2.43,19.05,9.81,1.28,17.54-7.39,22.91a125.47,125.47,0,0,1-16.67,8.63l17.79,20.74s22-29,23.6-37.77-5.47-15.67-11.13-19.78S552.3,340.14,552.3,340.14Z"/><path class="cls-16" d="M551.41,323.42s-3.32,7.74-6.64,8.84-11.06,3.32-15.49,3.32-7.74,1.11-9.95-1.1-4.43-22.13-4.43-22.13l40.93-2.21Z"/><path class="cls-3" d="M431,147.22s-8.27,73.55-9,87.47-6,37.93,18,58.8,43.19,37,65.14,39.09,74.8-9.26,91.94-26.18,25.27-32.67,25.27-32.67a42,42,0,0,0,37.62-13.55c16.64-18.07,19-36.09,16.23-41s-11-12.9-25.41-10.07c0,0-29.73-27.9-87.44-49.82S431,147.22,431,147.22Z"/><path class="cls-17" d="M622.45,214.53c-5.09-3.91-16.56-8.46-25.26-12.85s-14.43-6.66-21.14-6.48-23.9,2.87-29.14,1.74-28.37-12.19-32-12.67-24.39,1.72-29.46,2.56S471.9,194.73,465,193s-15.57-3.35-20.32-4.74-7-.41-12.29-1.53,75.89-28.75,76.71-28.42,60.1,3.89,66,3.38,61.78,14,61.78,14Z"/><path class="cls-18" d="M616.38,87.41s-15-22.06-36.12-28.54-24.07.9-24.07.9-64.93-27.62-94.85-12-26.91,32-26.91,32-30.37,24-39.64,45-11.32,42.94-3.29,44.23,24.72-2.54,24.72-2.54-21.55,20.86-8.11,25.24,62.85-10.2,68.25-11.85-2.28,5.74,7.56,9.63,75.82,2.53,92.51-1.29,27.51,1.24,33.46-7.22c0,0-9.5,23.35,1.66,28.72s3,25.86,3,25.86,22.37-20.54,29.23-23.51,22.3-4.32,27.29,1.39,6.07,8.42,6,12,7.09,4.51,12.09-20.07c2.67-13.16-1.7-19.65-1.7-19.65a34.4,34.4,0,0,0,6-27c-2.27-12.42,1.35-39.31-41.1-49.48,0,0,31.6-.76,22.74-7.12s-36.37-4-36.37-4,2.83-35.87-5.67-33.55S616.38,87.41,616.38,87.41Z"/><path class="cls-19" d="M444.42,80.94s21-31.51,45.26-30.45S550,65.85,560.32,70.89s4.4-8.69,12.1-6.59S602.61,83.85,610,91.52s15,17.31,15.59,10.92,3.71-16.55,4.89-7.55,2.16,11.29,7.24,10.46,11.78-1,7.7,2.1-8.51,2.32,4.28,8.34,35.81,34.1,36.17,42.78-3.85,24.08-6.48,21.14-33.92-58-39.82-57.5-14.92-7.81-14.92-7.81-23.64-17-36.59-20.19S556,89.08,547.29,89.44,513.47,64.66,498.1,70s-46.92,25-52.3,31.45-19.86,35.76-26.24,35.13-10.41,21.49-16.8,20.85-12.79-6-5.79-16.52,17.25-34,27.53-43.15S444.42,80.94,444.42,80.94Z"/><path class="cls-17" d="M632.91,257.56c.37-2.76,9.16-4,8.48-11.81s-.68-7.86,4.05-12.63,5.54-9.18,11.27-6.91,9.19,5.54,4.12,6.37-12.76,3.48-13.24,7.09,2.17,11.29,0,14.24-5.88,5.26-9.31,6.75S632.43,261.17,632.91,257.56Z"/><path class="cls-18" d="M525,213.88s10.29-9.21,18.16-5.14,13,8,12.31,9.62-4.41,3.94-9,1.18S535,215,534.19,214.66,525,213.88,525,213.88Z"/><path class="cls-18" d="M459.31,200.18s-4.93-6.7-9-8.32-10.07-3.05-11.84-2.32-2.39,7.11,2,7.92,12.3,4.87,13.94,5.52S459.81,201.32,459.31,200.18Z"/><ellipse class="cls-20" cx="529.43" cy="245.23" rx="10.83" ry="9.88" transform="translate(148.84 687.48) rotate(-74.14)"/><circle class="cls-21" cx="525.06" cy="241.68" r="3.11"/><ellipse class="cls-20" cx="443.08" cy="226.2" rx="10.83" ry="9.88" transform="translate(104.39 590.58) rotate(-74.14)"/><circle class="cls-21" cx="438.7" cy="222.64" r="3.11"/><path class="cls-22" d="M479.46,249.89a25.6,25.6,0,0,1-7,10.5c-2.94,2.63-6.05,3.3-2.92,7.38s11.64,6.51,13.11,5.2"/><path class="cls-23" d="M478.28,297.22c1.9.55,20.8,4.73,30.5-1.92,0,0-3.8,13.27-13.17,13S478.28,297.22,478.28,297.22Z"/><path class="cls-6" d="M522.65,378.72s-22.13,33.19-24.34,37.61-55.31,32.08-58.63,34.3-21,14.38-25.44,15.48-14.38,0-14.38,0-19.26,9.43-5.76,10.25,62.18-20.2,76.56-27.95,39.82-24.33,45.35-32.08,14.38-29.86,16.59-33.18S522.65,378.72,522.65,378.72Z"/></g></svg>