<svg xmlns="http://www.w3.org/2000/svg" viewBox="0 0 1000 1000"><defs><style>.cls-1{fill:#ecf5f6;stroke:#cecece;}.cls-1,.cls-10,.cls-12,.cls-15,.cls-16,.cls-20,.cls-21,.cls-22,.cls-23,.cls-24,.cls-3,.cls-4,.cls-6,.cls-7,.cls-9{stroke-miterlimit:10;}.cls-1,.cls-10,.cls-12,.cls-15,.cls-16,.cls-20,.cls-21,.cls-22,.cls-23,.cls-4,.cls-6,.cls-7,.cls-9{stroke-width:3px;}.cls-2{fill:#cae7e8;}.cls-3,.cls-8{fill:#b8b8b8;}.cls-3{stroke:#878787;}.cls-24,.cls-3{stroke-width:2px;}.cls-4{fill:#ff994c;stroke:#e56f20;}.cls-5{fill:#f2863d;}.cls-6{fill:#949a98;}.cls-6,.cls-7{stroke:#666;}.cls-7{fill:#cecece;}.cls-9{fill:#fbe404;stroke:#ccb300;}.cls-10{fill:#ab9d92;stroke:#82756c;}.cls-11{fill:#967e7a;}.cls-12{fill:#009bd4;}.cls-12,.cls-24{stroke:#007ea0;}.cls-13{fill:#0078a7;}.cls-14{fill:#f8bb00;}.cls-15{fill:#705c53;stroke:#51403a;}.cls-16{fill:#fe6903;stroke:#bc4d02;}.cls-17{fill:#058faf;}.cls-18{fill:#a3b3a6;}.cls-19{fill:#ffb092;}.cls-20,.cls-21{fill:#fed1a5;}.cls-20{stroke:#d6a47c;}.cls-21{stroke:#eabf98;}.cls-22{fill:#ea1f4b;stroke:#e50e47;}.cls-23{fill:#064d93;stroke:#004393;}.cls-24{fill:#ff7c2e;}.cls-25{fill:#fff;}.cls-26{fill:#0d6fbf;}</style></defs><title>skiing</title><g id="Layer_1" data-name="Layer 1"><path class="cls-1" d="M396.41,984.39c85,20.17,330-91.24,406.25-172.9S951.88,700.58,910.43,628.92s-141.94-164.23-220-158.47-359.15,96-433.84,184.27-65.87,215.33,11,260.56S338.24,970.59,396.41,984.39Z"/><path class="cls-2" d="M641.6,786.11S861.5,608.5,872.5,599.5,880,585.39,880,585.39l-25.17-28.16L717.13,683.5l-111.63,79,36.1,23.61"/><path class="cls-2" d="M496.06,685C499,686,799,577,799,577l47-23s-14-22-25-23-173,77-173,77l-70,35-81.94,42"/></g><g id="Layer_2" data-name="Layer 2"><path class="cls-3" d="M419.5,600.5l24,43s2-2,2-3-24-45-24-45Z"/><path class="cls-4" d="M720.5,602.5c-2,0-322,125-375,137s-87-1-94-5-39-60-20-62,73,19,112,12,239-61,239-61l96-36Z"/><path class="cls-4" d="M867.5,579.5s-156,162-252,225-118,71-159,54-46-43-37-47,23,8,40,6,164-73,218-115,167-134,167-134Z"/><path class="cls-5" d="M484.5,842.5c-4.41-2.35,80-7,192-102s177-164,177-164l7,3s-177,176-248,221S514.5,858.5,484.5,842.5Z"/><path class="cls-5" d="M496.5,857.5c-4,0-38-26-42-30s-14-11-23-12-15,7-3,19,40,25,52,26a165.25,165.25,0,0,0,24,0Z"/><path class="cls-5" d="M278.5,736.5c-2-1-16-11-18-24s-9-29-12-31-16-8-18-4,16,48,22,52S278.5,736.5,278.5,736.5Z"/><path class="cls-5" d="M293.5,733.5s2,10,19,8,245-80,245-80l148-58-13-4s-318,105-324,107-55,15-66,16-27-3-27-3Z"/><path class="cls-6" d="M730.5,663.5l-34,36-43,30-39,2s-5,13,8,22S661,765,687.25,741.76,750.5,679.5,750.5,679.5Z"/><path class="cls-7" d="M651.5,684.5s-27,16-34,27-8,30,13,30,47-5,77-36,32-40,32-40l-27-24Z"/><path class="cls-8" d="M732,668s-22,23-27,28-33,28-42,30-25,5-32,3-13-6-12-8,14-13,15-15,45.72-9.07,58.86-15.53S719,678,721,672s9.5-14.5,9.5-14.5Z"/><path class="cls-9" d="M670.5,765.5s-19-37-29-45a112.36,112.36,0,0,0-20.87-13s16.87-20,20.87-20,25,6,33,15,23.09,38.53,22,39.26S670.5,765.5,670.5,765.5Z"/><path class="cls-9" d="M757.13,687.5s-13.22,11.86-12.92,11.93S720.5,655.5,719.5,652.5s-4-13,0-13S744.77,651.5,757.13,687.5Z"/><path class="cls-6" d="M395.5,652.5s-6,18,2,28,50.4,12.15,77.2,9.07,41.21-13.92,41.21-13.92l1.59-23.15-21,8s-81-2-83-3S395.5,652.5,395.5,652.5Z"/><path class="cls-7" d="M448.5,628.5s-26,0-40,9-21,16-9,27,45,19,79,13,44-14,44-14v-32Z"/><path class="cls-8" d="M517,649s-8,9-27,8-23-1-38-3-40-11-40-11-10,3-10,7,29,25,76,19,45-9.37,45-9.37Z"/><path class="cls-9" d="M430.9,711.34s2.6-47.84-3.4-61.84-12-15-12-16,24-9,26-7,23,20,23,45-1.85,28.31-1.85,28.31Z"/><path class="cls-9" d="M510.5,683.5c1-2,4-35,6-41s9-11,11-11-1,44.63-1,44.63Z"/><path class="cls-10" d="M549.5,459.5s-61,43-70,55-26,64-31,79-10,37,2,48,60,6,67,4,10-36,13-46,7-19,5-23,59-46,65-55,18-65,18-65Z"/><path class="cls-11" d="M591.5,490.5c-7,0-47,49-47,49s-15,15-16,22,0,16-3,24-8,32-8,32,12-39,13-41,0-11,6-15,54-47,55-49S591.5,490.5,591.5,490.5Z"/><path class="cls-10" d="M601.5,471.5s-36,41-29,83,22.39,60,33.2,74,14.8,19,16.8,26,5,19,8,25,14,19,46,4,47-34,44-42-35-56-44-70-19-25-23-30,20-19,34-51,18-66,16-76-70,20-70,20Z"/><path class="cls-11" d="M672.5,437.5c0,13-9,49-14,68s-16,36-17,41,11,25,17,30,22,33,27,41,12,19,13,26,2,16,2,16l-11,11c-2,2,36-20,28-29s-43.09-66.24-43.09-66.24L648.5,541.5s30-32,38-59,10-61,10-61Z"/><path class="cls-12" d="M591.37,608.52c.13,0,50.8-27.35,78.47-46.69l7.77,11.39s-73.35,46.51-77.23,48.4S591.37,608.52,591.37,608.52Z"/><path class="cls-12" d="M631.5,568.5c2-1,17-20,22-20s10,4,13,6,16,18,15.53,25.5-11.53,20.5-23.53,17.5S631.5,568.5,631.5,568.5Z"/><path class="cls-12" d="M631.5,568.5s5.32,15.43,11.66,16.71,17.34-4.71,20.34-8.71,11.67-12.15,10.84-13.07S669.5,547.5,656.5,548.5,630.5,567.5,631.5,568.5Z"/><path class="cls-13" d="M636.5,568.5c1-1,10-11,16-13s8-5,11,1,4,8,0,12-12,12-12,10,7-14,5-15S636.5,568.5,636.5,568.5Z"/><path class="cls-13" d="M663.5,591.5c4,0,14.22-4,14.11-11s-6.11-16-4.11-10S663.5,591.5,663.5,591.5Z"/><path class="cls-14" d="M666.5,699.5s13,18,11,27-14,18-14,18l7,15,24-18S678.5,705.5,666.5,699.5Z"/><polygon class="cls-14" points="744.5 668.5 735.5 677.5 744.5 693.5 756.07 684.52 744.5 668.5"/><path class="cls-14" d="M459.5,657.5s3,8-6,11-15,2-17,0l-3-3,2,41,24-8S463.5,664.5,459.5,657.5Z"/><polygon class="cls-14" points="524.5 649.5 524.5 674.5 514.5 678.5 517.5 649.5 524.5 649.5"/><path class="cls-3" d="M409.26,580.63S396.5,589.5,398.5,598.5s23,8,30-3,8-18,0-21S409.26,580.63,409.26,580.63Z"/><polygon class="cls-3" points="330.5 436.5 412.5 587.5 415.5 592.5 418.5 589.5 327.5 421.5 330.5 436.5"/><path class="cls-12" d="M490.5,275.5c-2-2-43,12-56,30s-15,21-19,21-62,20-66,24,5,43,5,43,0,23,4,23,48-6,70-12,49-30,62-43S490.5,275.5,490.5,275.5Z"/><path class="cls-15" d="M357.5,373.5c0-2-7-19-16-21s-38,1-46,6-13,42,5,63,43,17,51,11,12-9,10-30S357.5,373.5,357.5,373.5Z"/><path class="cls-16" d="M331.5,443.5s-60-97-62-104-3-20,3-21,9,0,12,5,37,72,37,72l16,39Z"/><path class="cls-15" d="M278.5,379.5c1-1,19-19,34-10s26,36,29,43,2,24,0,28-11,10-20,10-33-11-39-34S278.5,379.5,278.5,379.5Z"/><path class="cls-17" d="M483.5,334.5s-13,33-27,42-27,16-42,18-40,7-44,8-4,1-5,4a21.42,21.42,0,0,0-1,6s57-4,75-15,49-38,49-38Z"/><path class="cls-12" d="M478.5,268.5s-10,69,16,121,43,86,60,90,59-7,77-12,47-18,52-24,32-43,24-63-28-38-35-46-47-95-72-105-63-9-63-9Z"/><path class="cls-12" d="M475.64,270.58s10.92,14.86,24.18,11.84,36.37-30.36,41.66-34S562.84,231,576,230s22.23-2.35,27.44-5,8.78-23.4,2.32-30.91-42.43-9.2-42.43-9.2Z"/><path class="cls-17" d="M613.5,287.5s9,37,9,51-8,46-11,51-19,18-3,16,33-11,36-19,12-17,6-2-17,20-27,34-15,22-16,28,0,11,14,7,40-17,33-10-40,21-57,23-29,8-38,5-30-30-36-44-26-49-27-55-9-38-8-41-3-30-3-32,1-19,4-17,7,55,10,63,9,15,13,3,4-27,7-34,6-21,8-26,6-12,9-17,30-8,34-7S613.5,287.5,613.5,287.5Z"/><path class="cls-17" d="M672.5,343.5s21,34,22,43-1,20-6,30-10,23-13,25-2,6,0,4,25-33,26-38,5-19,2-26-11-23-19-31-17-19-17-19Z"/><path class="cls-12" d="M573.24,239.18s-27.76-1.6-28.53,25.59,36.55,108.29,37.47,114.93-30.66,56.13-35.43,97,51.36,48.47,51.36,48.47,53.8-91.37,55.57-127.72,3-96.56-25.44-129.22S573.24,239.18,573.24,239.18Z"/><path class="cls-16" d="M526.92,532.66s-57.17-25.1-60-29.22,1.43-19.16,8.38-17.86,67,34.13,67,34.13L580,541.16l-10.73,7.34Z"/><polygon class="cls-3" points="784.61 647.1 845.69 674.36 845.95 672.97 784.83 642.1 784.61 647.1"/><path class="cls-3" d="M765.93,639.28s-3.77,8.65-1.21,14.16,9.82,9,16.68,3.13,11.64-23.72,7.68-29.5-12.55-6-15.85-3.69S765.93,639.28,765.93,639.28Z"/><polygon class="cls-3" points="565.62 544.94 739.95 624.35 775.4 642.5 777.57 638.59 569.7 538.51 565.62 544.94"/><path class="cls-15" d="M602.54,524.52s-8.52-16-18.34-25S559,480.39,553.71,478s-13.25,5.44-18.51,6.61-14.63,5.17-18.46,10.21-5.9,8-3.58,9.28,16.82,14.15-1.35,21.86c0,0-5.75-2.49-6.05-2s-2.82,21.55,19.82,35.14,39.88,17.54,53.86,4.33S601.54,533.68,602.54,524.52Z"/><path class="cls-18" d="M551.71,499.93c-4.91,3.36-17,10.44-14.2,14.57s24,33.26,30.94,34.57,23.71-11.39,20.58-17.73S551.71,499.93,551.71,499.93Z"/><path class="cls-11" d="M330.5,408.5s1,19-2,25-7,11-15,8-25-33-25-33,10.61,22.87,19.8,19.93,13.2-7.93,15.2-11.93S330.5,408.5,330.5,408.5Z"/><path class="cls-17" d="M563,247s22-3,29,0,38,24,38,28,16,38,16,43,6,63,5,66-11,41-14,45-19,45-22,51-14,25-15,25-29-27-34-28,14,4,23,5,13,3,18-5,30-80,32-91-2-65-7-75-15-41-23-47S574,248,563,247Z"/><path class="cls-17" d="M589,379c3-1,19-1,20,0s-22-8-14,3,13.48,18.91,8.74,17S587,382,587,382Z"/><path class="cls-17" d="M420,327s3,18,5,21-13,2-14,2S420,327,420,327Z"/><path class="cls-11" d="M455,587s-11,31-8,36,2,16,11,18,49.88,3,51.44,2,7.56-4,8.56-8,4-32,4-32-11,26-11.47,28-15.5,3-30.5-3-20-9-22-18S455,587,455,587Z"/><path class="cls-11" d="M626,648s11,25,13,29-1,5,7,6,27-4,32-7,16.5-8.14,16.5-8.14S664,674,657,674s-18-1-23-10S626,648,626,648Z"/><path class="cls-19" d="M403.2,209s-4.67,0-5.34-3.33,1.72-5.41.32-7.72-1.73-4-3.7-4.47a7.82,7.82,0,0,0-2.88-.36s.65-6.08,3.69-4.9a10.39,10.39,0,0,1,6.17,7.45C402.12,199,403.2,209,403.2,209Z"/><path class="cls-20" d="M581.54,194.23s5,15.32-4.8,27.25-44.62,38.43-63.08,44.19-63.14,6.74-84-13.52-20.6-37.33-21.52-46.55-9.16-31.65-15-46.82-.63-35.68,45.12-45.34,100.38-16.58,117.24-11.82,24.23,55.45,24.23,55.45Z"/><path class="cls-21" d="M478.14,202.86a23,23,0,0,1-3.1,11.67c-1.92,3.31-4.75,4.94-.24,7.54s13.71,2,14.65.3"/><path class="cls-22" d="M473.26,239s3.89,14.67,14,13.77,20.77-3.62,24.68-21.34Z"/><path class="cls-23" d="M599.51,108.17s3,58.33-1,70.33c-3,9-21.71,28.93-23,28s-28-96-28-96Z"/><path class="cls-23" d="M374.31,165.92s10.58,37.72,14.88,44.47,12.16,25.67,25.31,21.11l-16.26-61.71Z"/><path class="cls-23" d="M575.11,144.42s-6.65-11.33-17.18-15.08-79,4.61-95.78,7.67-41.45,7.07-48,10.9-14.19,15.84-15,26S381,182.18,380,182.3s-27.07-32-26.73-62.22,38.33-90.31,116.36-94.81,95,10.57,117.38,29c19.74,16.23,12.7,71,13.91,80.91S585.24,151.29,575.11,144.42Z"/><path class="cls-12" d="M555.5,134.5c2-1,47-9,47-6s2,20,0,23-40,18-40,18Z"/><path class="cls-12" d="M398.87,175.83c-4.37.67-20.41.82-21.39,3.75s3,21.92,6,22.92,22.93-2.15,22.93-2.15Z"/><path class="cls-12" d="M396.93,170.36s3.07,31.94,13.74,38.31,57.59-1.29,60.47-9.87,6.81-17.33,11.72-13.49,2.88,11.11,8.09,10.26,43.33-8.95,51.58-11.88c9-3.19,24.69-.09,23-17.19s-9.9-40.55-14.63-43.26S438.15,147.42,428.76,149,394.36,154.56,396.93,170.36Z"/><path class="cls-24" d="M403.5,167.5s-1-7,10-10,99-23,99-23,34.61-7.43,36.3-6.22,11.7,38.22,11.7,42.22-20,9-28,11-35,9-39,8-8-8-12-9-10,3-12,8-1,9-6,11-31,9-42,7-13.59-2.74-18.3-19.87C403.2,186.63,401.5,173.5,403.5,167.5Z"/><path class="cls-25" d="M434.5,154.5l-13,49s7,2,10,0l15-51Z"/><polygon class="cls-25" points="452.5 150.5 436.5 204.5 446.5 202.5 462.5 148.5 452.5 150.5"/><polygon class="cls-25" points="538.5 131.5 524.5 181.5 532.5 179.5 547.5 129.5 538.5 131.5"/><polygon class="cls-25" points="550.5 138.5 540.5 176.5 548.5 173.5 553.5 152.5 550.5 138.5"/><path class="cls-26" d="M362,108c1.2-1.89,23-41,41-53s25-18,46-20,49-6,59-3,34,6,25,7-88,8-101,15-32,20-35,38-7,36-10,46-.83,27-2.91,29.5S375,169,371,159,355,119,362,108Z"/><path class="cls-25" d="M553.5,897.5c3-2,63-34,83-48s13-21,46-34,38-24,49-37,27-20,46-27,65-30,68-34-56,59-82,69-47,28-77,46-56,28-74,41S553.5,897.5,553.5,897.5Z"/><path class="cls-25" d="M275.5,815.5s44-30,68-29,36-7,67-21,68-14,80-21-46,45-84,42-67,13-90,21S275.5,815.5,275.5,815.5Z"/></g></svg>