<svg xmlns="http://www.w3.org/2000/svg" viewBox="0 0 1000 1000"><defs><style>.cls-1{fill:#c7a165;stroke:#af854e;}.cls-1,.cls-3,.cls-6{stroke-miterlimit:10;}.cls-1,.cls-3{stroke-width:3px;}.cls-2{fill:#f4ca84;}.cls-3{fill:#ffc801;stroke:#f90;}.cls-4{fill:#ffdb00;}.cls-5{fill:#feed89;}.cls-6{fill:#6c6e71;stroke:#000;stroke-width:10px;}</style></defs><title>banana</title><g id="Layer_7" data-name="Layer 7"><path class="cls-1" d="M859.49,259.1s8.5,9.44,33,2.83,10.38-43.44,15.11-57.6,3.77-30.22,11.33-35.88-34.94-75.55-66.1-85-114.26,0-126.54,2.83S701.79,91,691.4,112.73,673.46,137.28,681,148.62s22.67,39.66,34,49.1S859.49,259.1,859.49,259.1Z"/><path class="cls-2" d="M837.3,87.81a193.65,193.65,0,0,0-24.56.12l-.11,0a325.5,325.5,0,0,0-62.58.42c-10.37,1.09-21.41,1.79-31.13,5.77a40.9,40.9,0,0,0-21.65,20c-2.89,6.15-4,12.31-.21,18.44,4.27,6.9,12.21,8,19.58,8.7,10.57,1,21.22-.91,31.65-2.46,3.14-.47,6.33-1.38,10.15-.84-.1,0,.34.16.76.3a43.34,43.34,0,0,0,6.94,5c5.72,3,12.05,3.13,18.26,1.84,2.31-.48,4.55-1.25,6.83-1.87.15,0,1.3-.3,1.91-.46.53,0,1.71-.07,2.32-.09.38,0,.93.09,1.1.13a22.5,22.5,0,0,0,2.5.77c4,1.55,7.56,3.17,12,2.78,7.23-.63,11.9-4.87,16.72-9.83a184.7,184.7,0,0,0,21.78-27.37C855.74,99.66,847.42,88.32,837.3,87.81Z"/><path class="cls-2" d="M889.49,124.82c-6.92-7.49-15.94-11.59-25.72-6.81a29.89,29.89,0,0,0-13.88,14.39,28.82,28.82,0,0,0-2.35,8.25,13.6,13.6,0,0,0-4.4,3c-5.15,5.14-5.77,15,0,20a157.08,157.08,0,0,1,11.65,11.14,29.41,29.41,0,0,1,5.85,10.27c3.4,10.08,5.26,20.84,11.61,29.66,3.41,4.74,8.07,7.58,14.12,6.77,5.32-.72,10.52-4.69,11.77-10.15l5.17-22.5c1.81-7.89,4.41-16.07,4.86-24.19C909,150.27,898.93,135,889.49,124.82Z"/></g><g id="Layer_5" data-name="Layer 5"><path class="cls-3" d="M778.28,159S732,145.78,706.51,148.62c0,0-12.28,1.88-11.33,14.16,0,0-1.89,22.66,5.66,44.38,0,0,34.94,85.93-20.77,108.6,0,0-82.15,17-101,36.82,0,0-221,191.7-483.48,118,0,0-77.43-14.16-56.66,63.27s96.32,141.64,96.32,141.64,34.94,35.89,117.09,49.11S522.37,672.7,619.64,600,763.17,482,778.28,406.41c0,0,25.49-56.66,18.88-92.54s-31.16-64.21-26.44-85,14.17-24.55,16.06-46.27S778.28,159,778.28,159Z"/><path class="cls-4" d="M607.83,345.5s51-18.88,80.27-15.11,28.33,15.11,28.33,15.11-13.22,16.06-38.72,29.28c0,0-180.36,141.64-251.18,169S206.5,586.3,148.9,569.3,44.09,500.37,44.09,500.37L62,479.59s131.25,20.78,213.41,14.17S447.3,443.71,470,431.43,607.83,345.5,607.83,345.5Z"/><path class="cls-5" d="M632.58,370.2a13.93,13.93,0,0,0-3.68-9.65c-1.59-4.63-6.09-8.65-11.3-7.76a67.09,67.09,0,0,0-27.93,11.28c-7.95,5.69-14.36,13.11-20.48,20.65-2.69,3.31-5.36,6.64-8.21,9.82-1.41,1.57-2.86,3.11-4.38,4.58-.69.67-1.42,1.29-2.1,2,2.61-2.6-.23.16-1,.74a51.72,51.72,0,0,1-4.63,3.29c-.72.46-1.46.87-2.2,1.29-.51.23-1,.47-1.55.68-1.81.74-3.68,1.17-5.51,1.81-3.81,1.33-7.42,3.92-9.19,7.65a13.16,13.16,0,0,0,3.15,15.3,21.1,21.1,0,0,0,9.84,4.75c5.69,1.15,11.71-.09,17.09-2a184.93,184.93,0,0,0,27.75-12.81A134.32,134.32,0,0,0,612,404.54a122.45,122.45,0,0,0,9.24-9.13c3.56-3.94,7-8.46,9-13.44A32.28,32.28,0,0,0,632.58,370.2Zm-34.52,15.16.16-.15.21-.19h0l.32-.26C597.63,385.9,597.72,385.71,598.06,385.36Z"/><path class="cls-5" d="M620.6,391.05a20.52,20.52,0,0,0-.36-7.75,14.61,14.61,0,0,0-.1-2,21.23,21.23,0,0,0-6.44-12.69c-3.88-3.08-8.88-5.2-13.94-4.55l-4.79,1a19.08,19.08,0,0,0-7.9,5.4l-5.28,5a13.92,13.92,0,0,0-3.5,6.48,19.38,19.38,0,0,0,5.38,20.15c3.87,3.08,8.87,5.2,13.94,4.56l2-.43C609,407.46,619.22,400.81,620.6,391.05Z"/></g><g id="Layer_4" data-name="Layer 4"><path class="cls-3" d="M877.9,265.24s-24.55-127.48-92.54-112.37c0,0-10.86,7.08-15.58,18.41S750,227.94,766,248.71c0,0,27.39,58.55,10.39,107.65,0,0-38.72,35.89-68,66.1S586.58,606.6,338.23,644.37c0,0-73.65,16.06-109.53,76.49,0,0-46.28,76.49,11.33,103.87s124.64,72.72,215.3,71.77,230.41-68.93,230.41-68.93,139.75-87.82,203-152,68.93-208.69,68.93-208.69,17.95-60.43-46.27-114.26S877.9,265.24,877.9,265.24Z"/><path class="cls-4" d="M249.94,782.71S469,759.11,607.83,694.89,826,524,834.46,493.76s13.22-114.26,7.56-135-56.66,0-56.66,0-62.32,57.6-66.1,69.88S643.71,510.75,628.61,524,517.18,617.46,448.24,637.29c0,0-125.59,15.11-161.47,40.61s-59.49,61.38-59.49,61.38l-12.85,34.2Z"/><path class="cls-5" d="M786.17,454.13a21.39,21.39,0,0,0-8.24-13.44c-3.7-6.49-11.58-11.24-19.14-8.43-14.56,5.42-27.9,13.51-38.7,24.78-10.32,10.78-17.84,23.72-24.89,36.75-3.1,5.72-6.16,11.47-9.54,17-1.67,2.76-3.42,5.47-5.28,8.11-.84,1.2-1.76,2.34-2.59,3.55,3.17-4.64-.31.29-1.24,1.37a78.8,78.8,0,0,1-6,6.25c-.95.88-1.94,1.72-2.93,2.55-.71.49-1.41,1-2.14,1.46-2.5,1.62-5.18,2.79-7.75,4.26-5.35,3.08-10,8-11.62,14.07a20.1,20.1,0,0,0,9,22.06,32.31,32.31,0,0,0,16.1,4.35c8.86.11,17.54-3.45,25.06-7.85a279.08,279.08,0,0,0,38-27,204.61,204.61,0,0,0,30.62-32.53,186.09,186.09,0,0,0,11.3-16.29c4.22-6.92,8.13-14.68,9.64-22.69A49.41,49.41,0,0,0,786.17,454.13Zm-47.49,32.48.19-.27.26-.34h0l.41-.48C738.18,487.54,738.27,487.22,738.68,486.61Z"/><path class="cls-5" d="M774.09,488.79a31.69,31.69,0,0,0-2.73-11.53,24.3,24.3,0,0,0-.71-2.92,32.29,32.29,0,0,0-13.24-17.21c-6.68-3.53-14.78-5.3-22.19-2.91l-6.88,2.91A28.89,28.89,0,0,0,718,467.46l-6.52,9a21.51,21.51,0,0,0-3.42,10.7,21.92,21.92,0,0,0,.52,11.49,32.21,32.21,0,0,0,13.23,17.21c6.69,3.53,14.78,5.3,22.2,2.9l2.83-1.19C761.33,516.67,774.76,503.81,774.09,488.79Z"/></g><g id="Layer_6" data-name="Layer 6"><path class="cls-6" d="M75,472.19s-9.79,34.24-22.83,39.13c0,0-28.53,14.67-22.82,0,0,0,1.63-21.2,13-29.35s15.49-10.59,25.27-11.41S75,472.19,75,472.19Z"/><path class="cls-6" d="M228.37,776.06s7.41,18.1,7.41,28S230,824.62,225.9,823.8s-20.58-13.17-22.22-21.4-5.77-23-.83-29.64,4.94-14,16.47-15.64S228.37,776.06,228.37,776.06Z"/></g></svg>