<svg xmlns="http://www.w3.org/2000/svg" viewBox="0 0 1000 1000"><defs><style>.cls-1{fill:#a58b5b;stroke:#957744;}.cls-1,.cls-5{stroke-miterlimit:10;stroke-width:3px;}.cls-2{fill:#e0c593;}.cls-3{fill:#957744;}.cls-4{fill:#aaa090;}.cls-5{fill:#be5353;stroke:#892c2c;}.cls-6{fill:#dd7373;}</style></defs><title>bean</title><g id="Layer_3" data-name="Layer 3"><path class="cls-1" d="M578.42,83.26s-22.35,24.58-20.11,40.22S466.67,195,457.74,203.94,346,344.74,328.11,396.15,211.89,519.07,203,523.54s-134.1,89.4-143,136.33S26.39,805.14,95.67,858.78s140.81,33.53,140.81,33.53,100.57-49.17,120.68-62.58,91.64-80.46,96.11-84.93,60.34-49.17,71.51-60.34S580.66,590.59,587.36,566s8.94-84.92,13.41-89.39,33.53-58.11,62.58-76,89.4-114,100.57-149.74S781.8,166,752.75,128s-80.46-49.16-105-55.87S589.6,69.85,578.42,83.26Z"/><path class="cls-2" d="M431.5,277.14s23.09-26.38,42.87-28,75.86-37.93,79.16,0,13.19,57.71,0,69.26-56.07,64.31-64.32,69.25-37.92,29.69-42.87,42.88S420,447,410.06,475s-21.43,44.52-33,69.26-42.87,54.41-59.36,66S265,646.52,246.81,651.46s-59.36-3.3-66-11.54-8.24-31.33,0-47.82,6.6-33,29.69-52.77S251.76,526.14,269.9,508s52.77-36.28,57.71-52.77,21.44-34.63,24.74-52.77,19.79-56.06,24.73-62.66,24.74-37.92,29.69-44.52S431.5,277.14,431.5,277.14Z"/><path class="cls-3" d="M100.14,838.67S86.73,791.73,89,778.32s4.47-71.51,15.64-84.92,26.82-51.41,78.23-78.23,91.63-73.75,96.1-78.22c0,0-69.28,55.87-78.22,60.34s-67.05,35.76-80.46,58.11S91.2,706.81,89,724.68,80,773.85,84.5,791.73,100.14,838.67,100.14,838.67Z"/><path class="cls-3" d="M127,858.78s-.06-.48-.17-1.39c-1.19-9.75-7.63-68.32,4.64-96.95,13.41-31.29,15.65-44.7,35.76-64.81s40.23-38,40.23-38-46.93,38-51.4,42.46S129.2,733.62,127,742.56,118,776.09,118,782.79s0,35.76,2.24,49.17A203,203,0,0,0,127,858.78Z"/><path class="cls-3" d="M296.82,684.46s-46.93,51.4-60.34,62.57-33.53,31.29-38,38-17.88,20.11-20.11,26.82-8.94,22.35-8.94,33.52c0,0,8.94-33.52,33.52-55.87s33.53-35.76,42.47-42.47S294.58,691.16,296.82,684.46Z"/><path class="cls-3" d="M261.06,816.32s35.76-33.53,49.17-49.17,35.76-42.47,42.46-55.88S386.22,666.58,413,648.7s49.17-24.59,58.1-35.76,24.59-35.76,29.06-49.17c0,0-26.82,42.46-31.29,46.93s-29.05,17.88-38,22.35-38,24.59-49.17,35.76-26.82,29.06-31.29,38-20.12,29.05-24.59,35.75S261.06,816.32,261.06,816.32Z"/><path class="cls-3" d="M410.8,729.15s17.88-13.41,29.06-15.64,26.81-20.11,29.05-24.58,26.82-38,31.29-42.47,22.35-31.29,38-42.46,20.12-60.35,20.12-82.7V490s-2.24,76-15.65,93.86c0,0-13.41,15.65-17.88,17.88S504.67,628.58,498,637.52s-26.82,38-29,42.47-22.35,26.82-26.82,29S428.68,713.51,422,718A45.66,45.66,0,0,0,410.8,729.15Z"/><path class="cls-3" d="M498,467.67s-15.64,17.88-22.35,26.82-20.11,24.58-26.81,29-22.35,22.35-29.06,26.82S388.45,568.24,384,572.71s-17.88,20.11-22.35,26.82,17.88-31.29,31.29-40.23,20.12-8.94,31.29-20.12,20.12-17.88,29.06-29S498,467.67,498,467.67Z"/><path class="cls-3" d="M343.75,469.9s33.53-51.4,44.7-64.81S413,376,419.74,364.86s6.71-24.59,8.94-33.53,17.88-38,29.06-49.16S489,239.7,502.43,228.53s20.12-17.88,35.76-29.06,35.76-26.82,40.23-35.76,6.71-20.11,6.71-20.11S565,174.89,551.6,183.83s-55.87,38-64.81,51.4-38,42.47-42.46,53.64-20.12,29.05-26.82,69.28c0,0-17.88,24.59-31.29,40.23s-29.06,44.7-29.06,44.7Z"/><path class="cls-3" d="M627.59,103.37c2.24-2.24,11.18-11.18,13.41-2.24s2.24,31.29,2.24,31.29,0,15.65-4.47,26.82-6.71,17.88-13.41,29.06S612,208.41,612,208.41s29-29,31.29-35.76,11.17-33.52,11.17-38,2.24-31.29-4.47-35.76S638.77,90,634.3,92.19,627.59,103.37,627.59,103.37Z"/><path class="cls-3" d="M681.23,148.07s2.23,31.29-13.41,60.34-22.35,38-26.82,44.7-22.35,22.35-24.58,29.06-24.59,38-31.29,46.93-17.88,29-22.35,38c0,0,49.17-67,55.87-73.75s20.12-31.29,26.82-38,17.88-29.06,24.58-38,17.88-38,17.88-51.4S683.46,152.54,681.23,148.07Z"/><path class="cls-3" d="M719.22,148.07s4.47,26.82,4.47,44.7,6.71,13.41,0,31.29-8.94,29.05-15.64,40.23a176.09,176.09,0,0,0-11.18,22.35l22.35-33.53c4.47-6.7,4.47-24.58,8.94-31.29s0-24.58,0-31.29-6.7-42.46-6.7-42.46l-2.24-2.24Z"/><path class="cls-3" d="M663.35,306.75s-15.64,26.82-20.11,33.52-20.12,11.18-24.59,20.12-13.41,17.88-17.88,29.05S582.89,420.73,574,445.32s-13.41,31.29-24.58,38c0,0,13.41-15.64,13.41-20.11s6.7-22.35,8.94-29.06,20.11-35.76,22.35-42.46,17.88-33.53,24.58-40.23,17.88-8.94,20.12-13.41S663.35,306.75,663.35,306.75Z"/><path class="cls-3" d="M506.9,367.09s-17.88,31.29-31.29,44.7-20.11,22.35-33.52,35.76l-17.88,17.88S455.5,429.67,460,423s24.58-26.82,26.82-33.53S506.9,367.09,506.9,367.09Z"/></g><g id="Layer_4" data-name="Layer 4"><path class="cls-1" d="M944.65,506.15S904.53,476.94,872.59,475s-55.85-4.69-60.85-4.84-14.38,12.56-23.46,15.29-87,1.37-107.17,5.76S596.8,501.64,576.36,516s-125.93,64.19-134.1,70-66,33-89.76,58.28-60.09,102.18-52.36,144.41,41.63,78.26,70.39,86.13,111.41,19.36,130.64,11.94S592,859.48,617.26,850.24,667.67,836.77,676,826s29.21-40.12,38.45-47.84S767,760.77,786,758.35s58.43-14.24,66.6-20,54-34.37,66.45-48,49-67.51,48.73-90.52-3.33-55.1-6.06-64.18S944.65,506.15,944.65,506.15Z"/><path class="cls-2" d="M926.94,529.62S874.26,486,843.08,492.08s-18,.46-18,.46-33.9,30-37.84,27.85-62.36,12.12-82.34,11.51-99.3,10-111.26,8.64-69.93,30.89-91.27,42.24-53.88,29.37-64,34.07-61,33.15-76.74,57.67-37.68,55.86-38.13,70.85S311.79,800,345,828s82.65,44.5,82.65,44.5,63.88,3.93,92.33-11.21S594.71,835.56,608,825s52.82-60.4,74.16-71.75,56.61-20.29,75.53-17.72,63.13-4.09,84.47-15.44,49.64-21.5,70.53-50.87,33.6-53,31.48-82S947.37,548.23,926.94,529.62Z"/><path class="cls-4" d="M903.78,534.92s-30-.91-44.81-6.36-41.47-17.25-48.59-13.47-44.65,21.65-49.65,21.5-101.86,28.92-113.82,27.56-49.8,26.5-56.92,30.28-44.19,6.66-54.34,11.36-71,32.85-87.18,39.36-47.38,12.57-61.76,25.13S343.12,723,340.85,731.9s-5.44,47.83-4.69,55.85,17.11,29.52,23.92,35.72,47.08,30.42,59,31.78a97.44,97.44,0,0,0,40.11-3.78c15.14-4.55,24.37-12.27,32.4-13s60.39-13.18,70.53-17.87,50.86-28.46,58-32.25,36.33-43.9,40.42-46.77,8.17-5.76,18-.46,26-1.21,35.12-3.94,43.29-9.69,50.4-13.48,40.57-18.77,50.56-18.47S862,692.65,873.37,681s28.75-25.13,33.14-38,13-33.6,16.35-44.5,9.08-35.73,7.26-41.78S903.78,534.92,903.78,534.92Z"/><path class="cls-5" d="M601.2,620.77s-25.43-18.77-60.85-4.84-56.61,20.29-68.87,28.92-53.74,24.37-65.85,28S364.77,701.62,356,727.35s-16.5,49.5-6.05,67.82S379,826,408.52,841.94,476.94,828,491,825.43s57.22-7.27,71.44-14.84,60.85-28.16,74.62-53.74a438,438,0,0,1,31.49-49.05s-5.61-46.17-10.3-56.31S601.2,620.77,601.2,620.77Z"/><path class="cls-5" d="M920,561.4s-1.67-11-7.57-14.22-53.74-8.63-60.7-9.84S816.13,523.27,799,526.75s-71,32.85-84,33.46-55.55,18.32-62.51,17.11-23.92-2.72-32.09,3-16.8,26.49-16.95,31.49,15.29,23.46,20.13,28.6,25.13,28.76,28.77,40.87,8,32.24,7,34.21,26.34,21.8,35.42,19.07,39.36-11.81,44.51-16.65,43.44-14.69,55.55-18.33,54.34-11.35,60.54-18.17,27.7-23.16,36.18-38.9S905.9,597,911.2,587.14,920,561.4,920,561.4Z"/><path class="cls-6" d="M839.6,557.47s-18.47-17.55-33.61-13-24.06,2.27-41.32,10.75-32.39,13-42.53,17.71-20.44,14.39.45,18,30.88,3.93,49-1.52,43.14-4.7,54.19-6.36,20.43-14.38,23.46-15.29S839.6,557.47,839.6,557.47Z"/><path class="cls-6" d="M588.33,632.88s-15.74-8.48-27.85-4.84S533.84,649.23,524.91,647s-21,1.37-28.31,10.15,5.46,18.16,25.59,13.77,31.18-6.06,51.31-10.45S588.33,632.88,588.33,632.88Z"/></g></svg>