<svg xmlns="http://www.w3.org/2000/svg" viewBox="0 0 1000 1000"><defs><style>.cls-1{fill:#ff8c00;stroke:#c1660c;}.cls-1,.cls-4{stroke-miterlimit:10;stroke-width:3px;}.cls-2{fill:orange;}.cls-3{fill:#f9ba55;}.cls-4{fill:#00cd00;stroke:#057f05;}.cls-5{fill:#057f05;}</style></defs><title>orange</title><g id="Layer_4" data-name="Layer 4"><path class="cls-1" d="M485.39,182.53s164.15-11.32,297.74,108.68,103,279.63,103,279.63S857.85,795,634.82,833.49s-276.23,13.58-276.23,13.58S222.74,809.72,163.87,723.68,99.34,516.5,123.11,438.39,227.27,247.06,305.38,222.16,465,182.53,485.39,182.53Z"/><path class="cls-2" d="M232.55,337.3s-101.64,88.43-96.32,164.32,19.89,126,37.55,146.66,97.06,63,120.66,38.31S381,657.21,411.36,546.36s68.22-185,25.78-227.63-133.33-20-151.64-11.83S232.55,337.3,232.55,337.3Z"/><path class="cls-3" d="M322.18,336.56c-4.58-7.83-15.37-10.87-23.24-6.09-32.77,19.93-66.41,41.54-86,75.66a17,17,0,1,0,29.32,17.14c8.12-14.15,18.65-24.84,32.41-36.07l1.39-1.09,1.57-1.18c1.68-1.25,3.38-2.49,5.09-3.7,3.43-2.44,6.92-4.8,10.44-7.12,7.53-4.94,15.21-9.64,22.9-14.31A17.31,17.31,0,0,0,322.18,336.56Z"/></g><g id="Layer_5" data-name="Layer 5"><path class="cls-4" d="M479.73,244.8S448,221,422,244.8c-25.45,23.23,27,3.22,44.14,16,.4.3.78.62,1.14.95,15.85,14.72-36.22,24.91,5.66,46.42,0,0-11.32-29.44,22.64-32.83,0,0,48.68,11.32,53.21,29.43s12.46-37.36-14.71-43,22.64-10.19,31.69-1.13-12.45-39.63-43-26S516,209.7,525,213.1,509.16,174.61,479.73,244.8Z"/><path class="cls-5" d="M487.65,258.38S478.59,222.16,471.8,221s4.53-13.58,11.32-12.45,19.25,38.49,18.12,41.89S497.84,260.65,487.65,258.38Z"/></g></svg>