<svg xmlns="http://www.w3.org/2000/svg" viewBox="0 0 1000 1000"><defs><style>.cls-1{fill:#f6f1dd;stroke:#e1d7b2;}.cls-1,.cls-3,.cls-5{stroke-miterlimit:10;}.cls-1,.cls-3{stroke-width:3px;}.cls-2{fill:#f9f9f9;}.cls-3{fill:#499818;stroke:#347b08;}.cls-4{fill:#54be12;}.cls-5{fill:#c2a553;stroke:#937732;}</style></defs><title>spring_onion</title><g id="Layer_2" data-name="Layer 2"><path class="cls-1" d="M112.5,769.5s-19-24-3-52c0,0,11-21,64-34a552.67,552.67,0,0,0,95-33s69-32,105-67c0,0,59-50,69-59s29-30,33-34,19-23,19-23l37,44-46,64s-157,133-170,142-112,51-127,59-51,14-51,14S114.5,778.5,112.5,769.5Z"/><path class="cls-1" d="M141.5,834.5s-29-31,5-65,107-54,109-56,70-30,108-65c0,0,81-64,105-91s37-36,43-45,54,54,54,54l4,20-37,32s-74,47-85,55-84,53-87,56-58,42-68,53-62,51-70,54S173.5,866.5,141.5,834.5Z"/><path class="cls-2" d="M152,797s45-55,72-61,99-43,115-55,64-40,70-52-73,85-92,88-83,32-97,42S152,797,152,797Z"/><path class="cls-2" d="M119,726s23-28,49-33,61-10,75-18,56-27,56-27-56,34-66,39-64,25-74,25S119,726,119,726Z"/><path class="cls-2" d="M166,813s39-16,43-23,42-11,47-20-48,45-55,43S166,813,166,813Z"/><path class="cls-2" d="M130,753c7-6,23-24,36-27S130,753,130,753Z"/><path class="cls-2" d="M454,634s-51,34-63,47-34,20-34,20,60-20,70-27S454,634,454,634Z"/><path class="cls-2" d="M357,626c11-14,43-31,52-45s14-24,14-24-19,40-23,44S357,626,357,626Z"/></g><g id="Layer_3" data-name="Layer 3"><path class="cls-3" d="M842.5,226.5s35,14,32,23-105,97-112,119-118,84-118,84l60-116,92-91Z"/><path class="cls-3" d="M755.5,70.5l-18-14s-14-5-28,19-79,149-79,149-33,74-39,87,50-30,50-30l86-156,9,2,29-41S769.5,81.5,755.5,70.5Z"/><path class="cls-3" d="M706.5,295.5s132-139,143-160c0,0,6-17,21,6,0,0,45,34,23,46s-85,81-85,81l-68,71-71,91-37,34-28-23Z"/><path class="cls-3" d="M486.5,604.5s38-49,38-62,248-229,383-261c0,0,11,9,14,21,0,0,14,19-3,21,0,0-83,48-94,59s-50,38-62,53-160,106-160,106l-66,48-44,28s17-31,17-33Z"/><path class="cls-3" d="M723.5,116.5s-52,90-64,102-63,80-67,82-112.94,197.24-137,211.12l40-36.12s-22,41-32,54,38-37,38-37-36,60-46,71,47-44,47-44l18-12,139-160,82-181,14-38Z"/><path class="cls-3" d="M720.5,154.5s1-19,15-19a153.24,153.24,0,0,0,28-3s14-5,5,15c0,0-6,54-12,63s-34,77-41,85-49,78-49,78-64,108-69,113-115,102-115,102,32-56,32-61-31,31-32,34,34-56,34-56,74-79,106-145S694.5,240.5,720.5,154.5Z"/><path class="cls-3" d="M481.5,620.5s209-205,376-221c0,0,5,1,3,15,0,0,9,30-11,25,0,0-146,61-163,80s-161,101-161,101S495.5,632.5,481.5,620.5Z"/><path class="cls-4" d="M858,138s-11,13-17,23-21,27-30,33-21,27-31,35-17,19-24,24,50-46,59-52,22-27,29-32,20-24,21-21,8,3,10,8S858,138,858,138Z"/><path class="cls-4" d="M810,330s35-22,45-25,12-5,27-9,18-10,23-9,8,4,10,8,3,13,5,16-8,11-13,13-34,16-40,20-24,14-27,16,43-27,44-31,15-18,6-18-13-10-20-6S810,330,810,330Z"/><path class="cls-4" d="M813,299s26-24,33-30,19-15,20-19-1-7-7-11a126.57,126.57,0,0,0-12-7s-4,3,0,6,3,8-3,15-13,18-15,23S813,299,813,299Z"/><path class="cls-4" d="M724,488s31-18,42-21,22-12,33-16,22-10,30-12,18-8,22-8,5-6,5-12,3-14,0-14-14,1-18,2,7,1,10,1,3,0,3,4,1,10-1,12-10,7-19,9-70,32-73,35S724,488,724,488Z"/><path class="cls-4" d="M732,143s7-1,18-3,18-6,16-2-7,25-9,32-9,28-10,30-12,32-12,32,3-14,3-20,5-32,4-39-12-16-6-20S732,143,732,143Z"/><path class="cls-4" d="M758,82s-3-6-11-11-10-8-15-8-18,14-21,26-19,35-22,39-13,19-18,32-12,27-17,34,26-46,32-52,15-21,21-28,14-19,20-29,9-11,18-10S758,82,758,82Z"/><path class="cls-4" d="M518,443s7.09-15.36,15.64-32.3c9-17.9,19.71-37.56,25.36-42.7,11-10,28-40,32-48s21-24,29-33-12,25-16,34-27,46-35,55S518,443,518,443Z"/><path class="cls-4" d="M712,275s-20,34-25,45-24.06,40.5-28.53,44.25S633,401.59,627,409.3,664,342,667,339s20-35,27-45S712,275,712,275Z"/><path class="cls-4" d="M626.43,459.51S700,401,709,397s41-26,51-33,26-14,33-17-55,44-61,46-57,36-60,40-58,42-59,43S626.43,459.51,626.43,459.51Z"/><path class="cls-4" d="M495.52,612.35S532,579,544,572s34-31,44-36,31-21,38-27-28,29-35,33-44,36-47,38-26,18-26,18Z"/><path class="cls-4" d="M522,538s44-32,51-38,20-21,27-33,17-48,17-48-26,45-26,48-41.31,48-41.31,48Z"/></g><g id="Layer_5" data-name="Layer 5"><path class="cls-5" d="M101.5,745.5s-2-8-10-9-20,8-22,7,24-5,27,4S79,762,72,759a58.06,58.06,0,0,1-11-6s6,8,28,13-3,10-10,10-11,6-11,7,12-5,18-3,17-5,17-5,8,5,4,8-9,8-11,8,4,3,9,0a23,23,0,0,0,7-6s9,1,6,4-5,12-12,13-14,3-16,0c0,0,8,6,26-1,0,0,6-9,8-8s1,4,1,4,6-7,5-9-12-15-14-18-8-15-11-18A12.68,12.68,0,0,1,101.5,745.5Z"/><path class="cls-5" d="M130.5,806.5s-2-8-10-9-20,8-22,7,24-5,27,4S108,823,101,820a58.06,58.06,0,0,1-11-6s6,8,28,13-3,10-10,10-11,6-11,7,12-5,18-3,17-5,17-5,8,5,4,8-9,8-11,8,4,3,9,0a23,23,0,0,0,7-6s9,1,6,4-5,12-12,13-14,3-16,0c0,0,8,6,26-1,0,0,6-9,8-8s1,4,1,4,6-7,5-9-12-15-14-18-8-15-11-18A12.68,12.68,0,0,1,130.5,806.5Z"/></g></svg>