<svg id="Layer_1" data-name="Layer 1" xmlns="http://www.w3.org/2000/svg" viewBox="0 0 1000 1000"><defs><style>.cls-1{fill:#d32d2d;}.cls-1,.cls-15,.cls-16,.cls-19,.cls-9{stroke:#ce920d;}.cls-1,.cls-10,.cls-11,.cls-12,.cls-15,.cls-16,.cls-19,.cls-3,.cls-4,.cls-6,.cls-7,.cls-9{stroke-miterlimit:10;stroke-width:3px;}.cls-2{fill:#2d2c2a;}.cls-3{fill:#fbf00b;stroke:#c4b606;}.cls-12,.cls-4{fill:#d0dae3;}.cls-4{stroke:#a4b5c1;}.cls-5{fill:#b3c3ce;}.cls-6{fill:#454442;}.cls-6,.cls-7{stroke:#282828;}.cls-7,.cls-8{fill:#666563;}.cls-9{fill:#ffbc13;}.cls-10{fill:#b6b0b0;stroke:#878181;}.cls-11{fill:#e2ad17;}.cls-11,.cls-12{stroke:#b78908;}.cls-13{fill:#f7f6bd;}.cls-14{fill:#f8f8c6;}.cls-15{fill:#e09e0b;}.cls-16{fill:#119fc5;}.cls-17{fill:#dd9e10;}.cls-18{fill:#fffeff;}.cls-19{fill:#fae115;}</style></defs><title>bus</title><path class="cls-1" d="M98,310.67c.72-.59-15.7-17.43,27.45-27.45,90.42-21,302.4-36.75,460.18-25.83C819,273.53,932,311.48,932,311.48s36.33,17.76,44.4,23.41S982,355.56,982,355.56l-284.91,7.59L503.3,341.35,361.21,356.69,236.08,320.36Z"/><path class="cls-2" d="M509,720c-6.46-2.42-62.17-25.84-62.17-25.84l-44.4-44.4,84.77-19.38,33.1,54.1Z"/><path class="cls-3" d="M38.05,517.42s-13.4-23.48-9.1-21.49,22.25-1.26,22.25-1.26,4.79,5.77-1,10.21S24.14,507.94,19.84,506s5.21-.77,5.21-.77,13.68-84.41,21.72-90.48,13.7-7,23.26-3.46,13.19,7,14.3,11.06,1.25,8.59-2.17,7.9S70,421,65.28,421.49s-10.3-.32-12,3.34-6.19,32.73-6.19,32.73Z"/><path class="cls-4" d="M43.11,524.22s8,3.7,10.63-8.43S68.68,440,68.68,440s.87-6.72-7.81-9-33-4.59-33-4.59-6.28.65-7.34,12.62-8.32,74.43-8.32,74.43-2.38,5.13,7.87,7.2S43.11,524.22,43.11,524.22Z"/><path class="cls-5" d="M47.16,432.58c1.62.81,12.92,5.65,12.92,9.69s-3.23,33.1-4.85,40.36-5.65,30.68-8.07,33.91S36.67,519.77,32.63,519s-10.5-2.42-7.27-2.42,14.54-3.23,17.76-16.15,9.69-34.71,8.08-44.4S47.16,432.58,47.16,432.58Z"/><path class="cls-6" d="M461.73,678.41s-22.61-33.91-98.5-1.61c0,0-37.54,52.88-6.05,88.4s87.19,31.49,105,16.15,8.48-61.76,7.67-61.76S461.73,678.41,461.73,678.41Z"/><path class="cls-7" d="M485.54,737.75s-3.23-58.13-24.22-65.39-60.55-3.23-75.89,33.9-1.61,73.47,21.8,83.16,47.63,8.07,63-15.34S485.54,737.75,485.54,737.75Z"/><path class="cls-6" d="M458.9,711.92s-18.57-24.22-38.75-7.27-7.27,43.6,2.42,46,34.72,2.42,36.33-13.73S458.9,711.92,458.9,711.92Z"/><path class="cls-6" d="M78.65,656.21S73,695.77,102.06,714.34,161.8,720,167.45,716s23.42-27.45,23.42-27.45Z"/><path class="cls-8" d="M113.36,672.36s-.8,29.06,9.69,36.33,32.29,9.68,39.56,7.26S182,690.12,182,690.12Z"/><path class="cls-2" d="M906.48,610.91c-1.93.09-43.1-3.95-43.1-3.95l-14.54-33.1,42.79-8.07Z"/><path class="cls-6" d="M796.37,616.65s.8,26.64,3.23,33.1,40.36,17,49.24,12.92,19.38-17.76,19.38-18.57,13.72-38-4-46.83-67.81-4.84-67.81-4.84Z"/><path class="cls-7" d="M824.62,597.27s-13.72,30.68-8.07,46,15.62,21,28,21,31.75-4,34.17-28.25,4.85-38.76-20.18-50.06S824.62,597.27,824.62,597.27Z"/><path class="cls-6" d="M842.38,608.58s-8.07,7.26-6.45,16.14,4.84,12.11,12.91,12.92,19.38-4,17-12.92S858.53,602.12,842.38,608.58Z"/><path class="cls-9" d="M77.84,653.79c0-.81-7.27-75.56-7.27-119.49,0-50,0-58.93,3.23-91.23l4.85-63s8.88-51.67,12.11-74.27,63.78-19.38,63.78-19.38,57.49,1.95,87.19,4c46,3.23,132.4,5.65,194.57,54.9l50.86-4.85,21,144.51-32.29,47.64L367.67,625.53,336.19,720Z"/><path class="cls-9" d="M337.8,704.65s7.27-87.19,13.73-155.82c6.05-64.28,39.56-230.09,39.56-230.09l159.85,2.43s382.67,14.53,431.11,32.29c0,0-3.23,83.15-11.3,134.82S950.57,598.89,946.53,599.7,907,612.61,902.93,611s-7.26-23.41-27.44-23.41-47.64,10.49-55.71,20.18-16.15,30.68-16.15,30.68L579.19,706.26,517,720s-15.34,11.3-18.57-15.34-6.46-46-40.37-44.4-62.16,19.37-72.66,25.83S374.94,708.69,374.94,716s-3.23,18.57-15.34,16.15-27.45-7.27-27.45-7.27Z"/><path class="cls-10" d="M182,667.51,282.1,687.7s4.84-13.73,16.95-12.92,9.69,18.57,9.69,18.57S338.61,698.19,341,699s10.5,21-4,30.68L81.07,669.93s-12.92-16.14-2.42-21H91.56s2.43-12.11,12.92-8.07,3.23,11.3,3.23,11.3Z"/><path class="cls-11" d="M312.77,592.43c.81,0,13.73-5.65,26.65,3.23,11.31,7.78,16.4,37.43,8.88,52.48-8.08,16.14-17.76,21-33.1,17S312.77,592.43,312.77,592.43Z"/><path class="cls-12" d="M330.54,594s18.56,6.46,12.11,52.48c0,0-20.19,40.37-41.18,8.88s3.23-60.55,8.88-63S322.46,589.2,330.54,594Z"/><path class="cls-11" d="M74.61,555.29c.81,0,13.73-5.65,26.64,3.23,11.32,7.78,16.41,37.43,8.88,52.48-8.07,16.15-17.76,21-33.1,17S74.61,555.29,74.61,555.29Z"/><path class="cls-12" d="M92.37,556.91s18.57,6.46,12.11,52.47c0,0-20.18,40.37-41.17,8.88s3.23-60.55,8.88-63S84.3,552.06,92.37,556.91Z"/><path class="cls-13" d="M361.62,599.29c4.84-1.61,302.75-55.7,378.64-71s226.86-48.44,226.86-48.44l-1.62,11.3s-373.79,78.31-410.93,84.77S359.2,613,359.2,613Z"/><path class="cls-14" d="M359.2,622.71V638s563.51-120.29,602.27-130l1.61-10.49-422.23,88Z"/><path class="cls-9" d="M543.67,690.12c0-1.62-3.23-157.43-3.23-157.43l1.62-92,6.46-15.34,88-8.07,4.85,12.92L628.44,615.84l-5.65,59.75-73.47,21-5.65-2.43Z"/><path class="cls-15" d="M639.74,411.59c-1.61-.81-62.16,5.65-62.16,5.65-45.21,3.23-41.17,8.88-41.17,8.88V542.38s3.22,142.09,3.22,151,5.66,7.26,5.66,7.26S624.4,680.43,626,678s5.65-67,5.65-67S646.2,432.58,646.2,423.7,641.36,412.39,639.74,411.59ZM634.9,468.1c-2.42,49.25-8.88,130.79-10.5,151s-2.42,49.25-5.65,50.86-63.78,20.19-67,20.19-3.22-53.29-3.22-53.29l-3.23-133.21s1.61-65.39,3.23-69.43S584,426.93,584,426.93c1.61,0,44.4-4.85,47.63-3.23S637.32,418.85,634.9,468.1Z"/><path class="cls-16" d="M561.43,575.48c3.61,1.8,54.9-8.08,57.32-9.69s3.23-3.23,4-19.38,8.88-105.76,8.07-108.18-2.42-5.65-8.07-5.65-64.59,5.65-64.59,5.65-4,125.94-3.23,130S556.59,573.05,561.43,575.48Z"/><path class="cls-16" d="M668.81,405.13s-8.08,0-8.88,8.88,0,105,0,105,.8,6.46,8.88,4.85,79.12-14.54,79.12-14.54,3.23-.8,3.23-8.88V407.55s-.81-6.46-6.46-6.46S668.81,405.13,668.81,405.13Z"/><path class="cls-16" d="M766.22,399a8,8,0,0,0-7.84,7.84c-.71,7.84,0,92.67,0,92.67s.71,5.7,7.84,4.28S836.08,491,836.08,491s2.85-.72,2.85-7.85v-82s-.71-5.7-5.7-5.7S766.22,399,766.22,399Z"/><path class="cls-16" d="M850.67,393.72s-5.6,0-6.16,6.86,0,81.11,0,81.11.56,5,6.16,3.74,54.87-11.23,54.87-11.23,2.24-.62,2.24-6.86V395.59s-.56-5-4.48-5S850.67,393.72,850.67,393.72Z"/><path class="cls-16" d="M918.36,391.08s-4.78,0-5.26,6.38,0,75.45,0,75.45a4,4,0,0,0,5.26,3.48c4.78-1.16,46.85-10.45,46.85-10.45s1.91-.58,1.91-6.38V392.82s-.48-4.65-3.83-4.65S918.36,391.08,918.36,391.08Z"/><path class="cls-10" d="M540.44,706.26,502,717.2s.47,8.44,12.58,10S680.11,682,680.11,682s115.45-35.52,122.72-38.75,16.14-17.76,10.49-17.76S624.4,683.66,624.4,683.66Z"/><path class="cls-10" d="M893.25,600.5l50-12.91,1.62,12.52s-41.18,14.93-42,12.5S893.25,600.5,893.25,600.5Z"/><path class="cls-10" d="M931.19,600.5s-1.61-21.79,15.34-30.68,18.57-9.68,21-6.45,4.84,28.25-8.07,33.9S937.65,612.61,931.19,600.5Z"/><path class="cls-17" d="M119,644.91s-1.61-60.55,5.66-70.24,36.33,0,60.55,4.84,103.33,17,107.37,17.76S274.83,648.94,274,672.36C274,672.36,237.69,672.36,119,644.91Z"/><path class="cls-17" d="M398,328.84c.8-1.62,165.45,10.49,223.63,10.49,58.93,0,230.9,8.88,246.24,10.5s103.33,3.23,107.37,4.84,0,15.34,0,15.34-142.09-4.84-190.53-6.46-120.29-.81-153.39,1.62S404.41,357.09,398,362.74,398,328.84,398,328.84Z"/><path class="cls-18" d="M748.33,457.2s.81-44.4,0-46.82-23.41-4.85-47.63-2.43C700.7,408,743.49,416,748.33,457.2Z"/><path class="cls-18" d="M793.54,400.69s36.33-3.23,39.56,0S834.71,437,834.71,437,836.33,401.5,793.54,400.69Z"/><path class="cls-18" d="M871.85,395c-1.61,0,26.64-2.42,29.87,0s2.43,29.87,2.43,29.87S898.49,395,871.85,395Z"/><path class="cls-18" d="M935.63,392.62s25.84-2.43,26.64-.81.81,26.64.81,26.64S963.89,391,935.63,392.62Z"/><path class="cls-16" d="M388.26,399.07s-29.87,146.94-25,158.24,135.63-4,145.32-10.49,16.15-131.6,12.11-137.25S388.26,399.07,388.26,399.07Z"/><path class="cls-16" d="M354.35,392.62S338.2,554.08,330.13,556.5,80.67,533.09,80.67,529.05s6.45-146.12,8.07-151.77S259.89,375.66,354.35,392.62Z"/><path class="cls-19" d="M281.51,313.16c-5.26-.43-101.64-6.74-107.17-4s-12.44,50,1.84,51.18,96,11.14,102.53,5.2S281.51,313.16,281.51,313.16Z"/><polygon class="cls-18" points="263.53 384.14 301.47 388.98 263.53 546.41 224.78 543.99 263.53 384.14"/><polygon class="cls-18" points="307.93 389.79 346.68 394.63 307.93 550.45 270.79 546.41 307.93 389.79"/><path class="cls-18" d="M456.08,407.15c-1.12-1.42,51.66.8,57.32,6.46S502.09,541.16,502.09,542s-46.93,8.48-46.93,8.48S500.48,463.66,456.08,407.15Z"/><path class="cls-18" d="M597.36,437.83s15.34,6.45,16.95,42,0,81.54,0,81.54,14.53-118.68,10.5-121.1S597.36,437.83,597.36,437.83Z"/><path class="cls-3" d="M394.79,557.34s7.52-11.07,1.95-10.12-7.8-4.59-7.8-4.59-7.42,4.53-2.36,10.22,20.73,4.2,26.3,3.25.86-7.71.86-7.71,13.26-85.78,6.2-93.59S406.77,444.75,394.7,446s-17.38,3.77-20,7.49-4.35,8.11-.24,8.23,17-6.16,22.15-4.58,11.82,2.09,12.5,6.06S405,496.65,405,496.65Z"/><path class="cls-4" d="M386.71,562.81s-10.35,1.76-9.19-10.72,8.91-77.67,8.91-77.67,1.3-6.78,11.92-6.94,39,3.19,39,3.19,6.91,2.1,4,14.06-16,74.77-16,74.77.94,5.57-11.4,5.21S386.71,562.81,386.71,562.81Z"/><path class="cls-5" d="M433,478.78s-1.36,30.53-5.57,44.35-5.46,35.32-7.71,36.52-30.4-.56-32.92-.95,23.49-1.54,26.64-11.9,4.7-30.6,6.12-38.87,5.09-25.27.43-28.58a66.5,66.5,0,0,0-10-5.67S429.15,470.43,433,478.78Z"/></svg>