<svg id="Layer_2" data-name="Layer 2" xmlns="http://www.w3.org/2000/svg" viewBox="0 0 1000 1000"><defs><style>.cls-1{fill:#0091d4;stroke:#087399;}.cls-1,.cls-4,.cls-6{stroke-miterlimit:10;stroke-width:3px;}.cls-2{fill:#25bdf2;}.cls-3{fill:#0782a3;}.cls-4{fill:#e6e6e6;stroke:#b2b2b2;}.cls-5{fill:#fff;}.cls-6{fill:#211916;stroke:#14100f;}</style></defs><title>plane</title><path class="cls-1" d="M726.43,403.36s43.62-119.19,49.07-135.55,3.12-25.7-7-28.82-39-1.56-42.06,0S603.34,405.7,603.34,405.7Z"/><path class="cls-1" d="M297.2,411.93c1.55-1.56,11.68-35.84,9.34-40.51s-28.82-9.35-28.82-9.35l-39,49.86Z"/><path class="cls-2" d="M299.53,397.13c.78-.78,4.68-17.14,5.46-20.26s.77-4.67,0-5.45a25,25,0,0,0-3.9-2.34L285.51,401Z"/><path class="cls-3" d="M266.81,397.13c0-.78,3.9-18.7,7.79-24.93s5.46-7.79,5.46-7.79l-1.56-1.56L249.68,401.8Z"/><path class="cls-2" d="M714,394.79c2.34-6.23,42.07-106.72,47.52-117.63s9.35-30.38,1.56-35.83c0,0,10.13,2.33,10.91,6.23s3.11,7-12.47,48.3-36.61,100.49-36.61,100.49Z"/><path class="cls-3" d="M671.9,396.35s-23.37-18.7,21.81-90.37,43.62-64.65,43.62-64.65H728L614.25,398.69Z"/><path class="cls-4" d="M601,571.63s108.28,21,190.08,19.47,132.43-26.49,148-39,33.49-43.62,0-70.89S865.87,416.6,803.55,401s-171.38-12.46-268-11.68-232.92,2.33-254,3.11S182.68,401,182.68,401s-34.27,12.47-27.26,43.63,29.6,39,117.63,56.09S601,571.63,601,571.63Z"/><path class="cls-1" d="M42.46,799.87s27.27,28.83,79.46,11.69S450.66,657.32,506.75,623.82s102-63.88,105.16-67-1.55-17.13-9.34-19.47S484.94,517.09,439,517.87c0,0-113,77.13-127.75,87.25S35.45,794.42,42.46,799.87Z"/><path class="cls-2" d="M607.24,555.27c.78-3.12-1.56-9.35-6.23-11.69A23,23,0,0,0,587,542c-3.12.78-148.79,87.25-188.52,109.06s-151.13,84.14-176.84,98.16-106.72,53-115.29,57.64S86.86,810,86.08,811.56s15.59,3.89,26.49,0S189.69,779.62,312,721.19,523.89,612.13,559.72,588,607.24,555.27,607.24,555.27Z"/><path class="cls-3" d="M486.49,527.22s-42.06-7-46-3.89-98.15,67.77-98.15,67.77L184.24,701.72l-77.9,54.53s218.12-136.33,271.09-170.6S486.49,527.22,486.49,527.22Z"/><path class="cls-1" d="M161.65,326.24c1.56-.78,26.48-28.05,26.48-31.16s-6.23-5.45-14-1.56-31.94,21.81-31.94,21.81Z"/><path class="cls-5" d="M866.65,573.18s42.06-31.94,40.51-48.3-30.38-46.74-53.75-60.76-102-46-171.39-51.41-229.8-1.56-276.54-.78-144.9,2.27-151.13,2.69-33.5-1.91-33.5-1.91l11.69-10.91s87.25-6.23,217.34-8.57,276.55,1.56,292.91,3.12,71.67,8.57,114.51,31.16,82.58,59.2,89.59,68.55,7,35.06-7,45.18S911.83,565.39,866.65,573.18Z"/><path class="cls-4" d="M259,404.14s1.56,10.9-11.68,13.24-70.11,2.34-75.56,0S84.53,312.22,82.19,306.76s-10.13-14,7.79-17.91,35.06.78,39,4.67S236.43,377.65,259,404.14Z"/><path class="cls-5" d="M254.35,407.25c-.78-1.55-53-49.07-72.45-66.21s-52.19-42.85-55.31-44.4S115.69,292,109.46,292,87.64,290.4,83,293.52s14.8,1.56,23.37,3.9,46,28.82,80.24,58.42,47.52,41.29,49.07,46-2.33,7.79-3.11,10.13,13,0,15.83,0S254.35,407.25,254.35,407.25Z"/><path class="cls-1" d="M150,337.92s-45.18,32.72-54.53,37.4-23.37,8.56-28.82,8.56-8.57-3.11-5.45-6.23S107.9,334.81,112.57,334s37.39-2.34,39,0S150,337.92,150,337.92Z"/><path class="cls-6" d="M891.58,447s-22.59,33.5-45.19,45.19-60,24.15-81,22.59-27.27,1.56-32.72-14-3.12-21.82,14.8-27.27,36.61-5.45,60.76-22.59,34.28-31.94,34.28-31.94,10.91,3.12,27.26,13.24S891.58,447,891.58,447Z"/><polygon class="cls-5" points="825.29 442.88 872.4 463.08 879.65 457.96 829.88 439.55 825.29 442.88"/><polygon class="cls-5" points="833.39 435.23 881.43 453.44 887.22 448.85 837.72 431.17 833.39 435.23"/><path class="cls-5" d="M612.69,532.67c3.12-.77,76.35,7.79,90.37-3.11s8.57-74.79-27.27-82.58-328-7-363.79-7.79-65.44,0-73.23,5.46-17.92,12.46-17.92,19.47S248.12,483.6,318.23,493,612.69,532.67,612.69,532.67Z"/><path class="cls-1" d="M255.13,465.68s-63.88,44.4-77.12,44.4-44.41-2.33-40.51-7.79,50.63-42.84,54.53-44.4,60.73-4.71,65.44,0C261.36,461.79,255.13,465.68,255.13,465.68Z"/><path class="cls-2" d="M238.77,457.11c.78,0,12.46,0,14.8,1.56s3.12,3.89.78,5.45-53,31.94-56.87,35.06-15.58,8.57-18.69,8.57H167.1Z"/><path class="cls-3" d="M202.16,457.89c-3.12,0-7,0-8.57.78s-31.94,25.71-31.94,25.71l-15.58,13.24-5.45,4.67s1.55,1.56,8.56-3.11S202.16,457.89,202.16,457.89Z"/><path class="cls-6" d="M523.47,479.82c0-.78-.36-11-.36-11s11-2.57,15.37,6.18,3,21.18,1.34,24.23-8.15,6.3-10.48,6.2S523.47,479.82,523.47,479.82Z"/><path class="cls-6" d="M536.45,474.42s-5.39-7-11.77-6.23-8.92,8.27-9.32,11.36-.64,17.2,3.59,20.89,9.92,8.35,17.1,1.42S539.91,478,536.45,474.42Z"/><path class="cls-6" d="M486.12,479c0-.71-.41-10.2-.41-10.2s10.16-2.19,14.09,5.79,2.76,19.3,1.22,22.08-7.72,5.71-9.85,5.62S486.12,479,486.12,479Z"/><path class="cls-6" d="M498,474.08s-4.91-6.36-10.72-5.68-8.13,7.54-8.5,10.36-.59,15.67,3.27,19,9,7.61,15.59,1.29S501.1,477.35,498,474.08Z"/><path class="cls-6" d="M375.33,471.91c0-.54-.23-7.79-.23-7.79s7.76-1.77,10.79,4.39,2.13,14.9.95,17-5.78,4.63-7.43,4.57S375.33,471.91,375.33,471.91Z"/><path class="cls-6" d="M384.46,468.11s-3.78-4.91-8.27-4.38-6.28,5.82-6.56,8-.46,12.1,2.53,14.7,7,5.87,12,1S386.9,470.64,384.46,468.11Z"/><path class="cls-6" d="M412.72,474.25c0-.55-.23-7.79-.23-7.79s7.76-1.77,10.8,4.38,2.13,14.9.94,17.05-5.78,4.63-7.42,4.56S412.72,474.25,412.72,474.25Z"/><path class="cls-6" d="M421.86,470.45s-3.79-4.91-8.28-4.38-6.28,5.82-6.56,8-.45,12.1,2.53,14.69,7,5.88,12,1S424.29,473,421.86,470.45Z"/><path class="cls-6" d="M449.21,475.35c0-.61-.11-8.89-.11-8.89s8.46-1.73,11.84,5.11,2.36,16.55,1,18.93-6.42,5.15-8.24,5.07S449.21,475.35,449.21,475.35Z"/><path class="cls-6" d="M459.35,471.13s-4.21-5.45-9.2-4.87-7,6.47-7.28,8.88-.5,13.44,2.81,16.32,7.75,6.52,13.36,1.11S462.05,473.93,459.35,471.13Z"/></svg>