<svg xmlns="http://www.w3.org/2000/svg" viewBox="0 0 1000 1000"><defs><style>.cls-1{fill:#1a1a1a;stroke:#0c0c0c;}.cls-1,.cls-10,.cls-12,.cls-13,.cls-14,.cls-2,.cls-3,.cls-4,.cls-5,.cls-7,.cls-9{stroke-miterlimit:10;stroke-width:3px;}.cls-2{fill:#454442;}.cls-2,.cls-3,.cls-5{stroke:#282828;}.cls-3{fill:#666563;}.cls-4{fill:#fff;stroke:#333;}.cls-5{fill:#b5b5b5;}.cls-6{fill:#939393;}.cls-7{fill:#6b6b6b;stroke:#3d3d3d;}.cls-8{fill:#494949;}.cls-9{fill:#777;stroke:#494949;}.cls-10{fill:#126cc6;stroke:#005296;}.cls-11{fill:#0865b2;}.cls-12{fill:#accdff;stroke:#7fb0f7;}.cls-13{fill:#ffd527;}.cls-13,.cls-14{stroke:#af8f0b;}.cls-14{fill:#efe6bf;}.cls-15{fill:#d4e8ff;}</style></defs><title>truck</title><g id="Layer_3" data-name="Layer 3"><path class="cls-1" d="M901.93,520.21c0,5-10.09,125.34-10.09,125.34l-91.69-12.62-10.93-93.37Z"/><path class="cls-2" d="M758.09,645.55s-10.93,69.81,13.46,75.7,73.18,5.89,73.18,5.89l8.42-63.09,4.2-69s-50.47-6.73-86.64-7.57S758.09,645.55,758.09,645.55Z"/><path class="cls-3" d="M827.07,660.69s-1.68,47.1,7.57,58c0,0,5.05,7.57,10.94,8.41s12.61-10.94,16-35.33,6.73-58,5.89-76.55-10.94-31.12-22.72-9.25S829.59,639.66,827.07,660.69Z"/><path class="cls-4" d="M849.78,620.31s-10.93,9.25-11.77,42.06,4.2,38.69,5.88,40.38,10.1,3.36,13.46-15.14,6.73-45.43,2.53-57.2S854,619.47,849.78,620.31Z"/><path class="cls-2" d="M680.71,686.76c.84-.84,25.23-11.77,36.17-14.3s58.88-8.41,58.88-8.41l31.12-23.55L809.41,564,678.18,584.14Z"/><line class="cls-2" x1="774.08" y1="664.05" x2="774.08" y2="569.39"/><path class="cls-2" d="M703.42,675c.84-.84,2.53-95.12,2.53-95.12"/><polygon class="cls-5" points="294.61 265.34 298.82 144.21 743.79 121.5 959.98 209.82 943.15 520.21 730.34 619.47 515.84 596.76 294.61 265.34"/><line class="cls-5" x1="743.79" y1="121.5" x2="730.34" y2="619.47"/><path class="cls-6" d="M946.52,271.23S939,463,937.26,487.41s5,26.91-5,31.12-130.38,58-130.38,58L763.1,588.4s66.49-30.33,104.35-80,51.31-63.09,56.35-97.58,9.26-63.93,11.78-85S946.52,271.23,946.52,271.23Z"/><path class="cls-6" d="M685.75,611.06s-11.77-7.57,6.73-6.73,26.92-5.05,26.92-16,1.68-179.17,0-193.47-6.73-93.37-10.09-109.35-24.4-34.49-53.84-37.86-185.9-10.09-206.92-7.57S329.1,243.47,319,245.15s-26.92,24.4-26.92,24.4l335.62,11.77,50.47,157.3Z"/><path class="cls-3" d="M720.24,133.28s-128.7,3.36-137.11,6.73-9.25,43.74-5,48.78,137.95,1.69,142.15,0S727.81,136.64,720.24,133.28Z"/><path class="cls-7" d="M587.34,145.05s-7.57,38.7,0,39.54,63.09,5,67.29,0,5-40.38,0-42.06S587.34,145.05,587.34,145.05Z"/><path class="cls-8" d="M589.71,148.74s61.37-3.17,62.22-2.33,0,3.36,0,3.36l-62.23,2.34Z"/><path class="cls-8" d="M589.81,158.84s61.38-3.17,62.23-2.34,0,3.36,0,3.36l-62.22,2.34Z"/><path class="cls-8" d="M589.07,168.1s61.37-3.17,62.22-2.34,0,3.37,0,3.37l-62.23,2.33Z"/><path class="cls-8" d="M590,177.34s61.37-3.17,62.22-2.34,0,3.37,0,3.37L590,180.7Z"/></g><g id="Layer_2" data-name="Layer 2"><path class="cls-2" d="M70,726.3s0,50.47,32.81,71.5,68.13,13.46,72.34,10.09S171.8,742,171.8,742Z"/><path class="cls-3" d="M106.19,724.62S96.94,768.36,123,795.27s52.16,16.83,67.3,2.53,26.07-21.87,26.91-29.44S106.19,724.62,106.19,724.62Z"/><path class="cls-9" d="M69.18,348.61c1.55-.66,41.22-.84,42.9,2.53s-2.52,96.73-7.57,97.57-43.74,0-45.42,0S63.29,351.14,69.18,348.61Z"/><path class="cls-1" d="M613.41,819.67,640.33,823S638.65,684.24,637,670.78,626,632.93,611.73,631.25s-71.5,39.53-71.5,39.53l-10.93,42.9-13.46,77.39Z"/><path class="cls-2" d="M488.92,803.69s-1.68,61.4,18.51,81.59,60.56,14.3,69,12.62S604.16,839,604.16,839L587.34,698.54,600,690.13l9.25-4.21S576.4,668.26,536,677.51,488.92,803.69,488.92,803.69Z"/><path class="cls-3" d="M559.58,713.68S531,763.31,536,834.81s28.6,64.6,42.06,62.16,28.59-17.58,42-60.48,12.62-99.26,5.05-122.81-10.93-32-37.85-30.28C587.34,683.4,570.51,687.61,559.58,713.68Z"/><path class="cls-4" d="M581.45,852.47S556.21,850,556.21,812.1s10.94-77.39,29.45-85,24.39,13.46,26.91,31.12S615.1,818,598.27,839C598.27,839,592.38,852.47,581.45,852.47Z"/><path class="cls-9" d="M121.33,385.63c-.84-.84-35.33-7.57-35.33-7.57v4.2l33.65,7.57Z"/><path class="cls-10" d="M44.79,682.56s1.68-153.09,15.14-188.42S173.48,267.86,189.47,259.45,589,250.2,633.6,262s-50.47,360.87-50.47,360.87L491.45,744,384.62,783.5Z"/><path class="cls-10" d="M472.1,758.26s1.68-186.74,13.46-227.11,83.82-222.77,112.56-273.31c0,0,78.38,4.13,92.68,16.75s13.46,193.47,10.94,230.48-1.69,139.64-8.42,169.08S663,709.48,638.65,725.46c0,0-9.25-85.8-26.08-85.8s-68.13,59.72-68.13,59.72l-9.25,58.88Z"/><path class="cls-11" d="M492.71,714.1c0-1.68,10.93-188.42,16-207.77s48.79-151.41,57.2-165.71,16-63.92,29.44-65.61,87.48,5.05,91.69,12.62-1.69,258.24,0,270.86,3.36,79.07-2.53,83.27-26.91,16.82-31.12,13.46-18.51-48.79-53-47.11-60.57,15.15-69,39.54-16,61.4-23.55,63.93A54.12,54.12,0,0,1,492.71,714.1Z"/><path class="cls-12" d="M186.1,289.73s286.84-5,374.32,5c0,0-75.7,169.92-80.75,189.26S86,471.43,96.94,453.76,171,300.67,186.1,289.73Z"/><path class="cls-11" d="M70,497.5c4.17.57,101.78,16,157.3,21s193.47,20.19,217.86,21.87,22.71-4.2,26.92,10.09S456.12,704.43,462,744s-405.44-42.9-408.8-58S51.51,495,70,497.5Z"/><path class="cls-13" d="M67.5,508.44c2.42,1.82,66.45,16,69.81,20.18s8.42,44.59,0,44.59-75.7-21-76.54-25.24S60.77,503.39,67.5,508.44Z"/><path class="cls-13" d="M460.61,550.56c-3,1.32-75.75.94-80.34,4.51s-19.13,44.2-10,46.17,86.93-4,88.78-8.15S469.05,546.92,460.61,550.56Z"/><path class="cls-7" d="M146.57,678.35c2.52-9.25-1.69-105.14,6.73-108.51s193.46,17.67,196,19.35,4.2,113.56-6.73,112.71S146.57,678.35,146.57,678.35Z"/><path class="cls-7" d="M515.84,725.46s37,2.52,32.8,10.93-55.51,39.54-55.51,39.54L316.48,753.22,75.07,703.59,33,677.51l-2.52-14.3s11.77-5.89,16.82-3.36,47.1,22.71,220.38,47.94,180.61,26.81,204.71,29S515.84,725.46,515.84,725.46Z"/><path class="cls-7" d="M548.64,736.39s-9.25,61.41-36.17,79.07-88.32,10.1-136.26,5S139,776.77,91.89,753.22,32.17,725.46,28,702.75s-3.36-42.06,0-38.7S64.13,683.4,96.1,691.81s208.61,37,208.61,37S440.13,746.49,483,750.69,548.64,736.39,548.64,736.39Z"/><path class="cls-4" d="M171.8,713.68v42.9s91.69,18.51,95.05,17.67,2.53-42.9,2.53-42.9Z"/><path class="cls-12" d="M552.85,489.09s12.62-104.3,13.46-109.35,32-82.44,32-82.44l82.44,7.57s3.36,149.73,0,153.1S552.85,489.09,552.85,489.09Z"/><path class="cls-8" d="M536,761.63s-14.3,49.63-45.43,57.2S265.17,797,211.34,783.5s-155.62-53-163.19-58.88-17.66-34.49-17.66-34.49,37.85,47.1,203.56,85.8,233,32,256.55,25.23S536,761.63,536,761.63Z"/><path class="cls-9" d="M536,501.71c3.36,0,47.94,0,60.56-8.41s12.62-47.11,12.62-47.11h-5.89s-2.52,35.33-7.57,39.54-50.47,8.41-57.2,8.41S536,501.71,536,501.71Z"/><path class="cls-9" d="M597.43,356.19c1.55-.67,41.22-.85,42.9,2.52s-2.52,96.73-7.57,97.57-43.74,0-45.42,0S591.54,358.71,597.43,356.19Z"/><path class="cls-9" d="M548.64,391.51c4.21,0,71.5,1.69,71.5,1.69s5.05,5,0,5h-71.5Z"/><path class="cls-14" d="M418.26,713.68c-3.35.88-18.5-2.52-17.66-14.3s9.25-26.07,21-20.19S437.61,708.63,418.26,713.68Z"/><path class="cls-14" d="M87.69,654c-3.36.87-18.51-2.53-17.67-14.3s9.25-26.08,21-20.19S107,648.91,87.69,654Z"/><path class="cls-8" d="M155,579.09s114.4,20.19,185.9,18.51c0,0,4.2,5.89,0,8.41S207.13,599.28,155,586.67C155,586.67,150.77,584.14,155,579.09Z"/><path class="cls-8" d="M153.3,596.76S267.69,617,339.19,615.26c0,0,4.21,5.89,0,8.42S205.45,617,153.3,604.33C153.3,604.33,149.09,601.81,153.3,596.76Z"/><path class="cls-8" d="M155,611.9s114.4,20.19,185.9,18.51c0,0,4.2,5.88,0,8.41S207.13,632.09,155,619.47C155,619.47,150.77,617,155,611.9Z"/><path class="cls-8" d="M153.3,627.88s114.39,20.19,185.89,18.51c0,0,4.21,5.89,0,8.41s-133.74-6.73-185.89-19.35C153.3,635.45,149.09,632.93,153.3,627.88Z"/><path class="cls-8" d="M153.3,643.86s114.39,20.19,185.89,18.51c0,0,4.21,5.89,0,8.41s-133.74-6.73-185.89-19.35C153.3,651.43,149.09,648.91,153.3,643.86Z"/><path class="cls-8" d="M151.61,659s114.4,20.18,185.9,18.5c0,0,4.21,5.89,0,8.41s-133.74-6.73-185.9-19.34C151.61,666.58,147.41,664.05,151.61,659Z"/><path class="cls-7" d="M513.32,727.14S536,736.39,544.44,733s15.14-46.27,33.65-56.36,35.32-9.25,39.53-1.68,17.66,49.63,17.66,49.63.85,3.36,3.37,0,1.68-53.84-1.68-69.82-8.41-37-47.11-33.65-56.36,48.79-60.56,56.36S513.32,727.14,513.32,727.14Z"/><path class="cls-15" d="M294.19,297.72S179.37,327.59,153.3,436.94c0,0,.42,22.29,12.19,28.18,0,0-54.67-8.42-55.51-12.62S188.2,299.41,188.2,299.41,262.23,298.57,294.19,297.72Z"/><path class="cls-7" d="M642.85,494.14c0-1.69,32-10.94,33.65-10.1s3.37,7.57,0,10.1-26.07,8.41-29.44,8.41S642.85,496.66,642.85,494.14Z"/></g></svg>