<svg xmlns="http://www.w3.org/2000/svg" viewBox="0 0 1000 1000"><defs><style>.cls-1{fill:#19a343;stroke:#12822f;}.cls-1,.cls-16,.cls-17,.cls-18,.cls-19,.cls-2,.cls-22,.cls-3,.cls-4,.cls-5,.cls-6,.cls-9{stroke-miterlimit:10;stroke-width:3px;}.cls-2{fill:#f0a831;stroke:#c9841f;}.cls-3{fill:#fed1a5;stroke:#d6a47c;}.cls-4{fill:#2c8c35;}.cls-4,.cls-5{stroke:#227226;}.cls-5{fill:#d4dee8;}.cls-6{fill:#81502e;stroke:#63381b;}.cls-7{fill:#6d4326;}.cls-8{fill:#e2941a;}.cls-9{fill:#50413c;stroke:#3f332f;}.cls-10{fill:#e7aebd;}.cls-11{fill:#e29fb4;}.cls-12{fill:#231f20;}.cls-13{fill:#fff;}.cls-14{fill:#eabf98;}.cls-15{fill:#5b4c48;}.cls-16{fill:#60361e;stroke:#4c2816;}.cls-17{fill:#f62426;stroke:#d61822;}.cls-18{fill:#fee40b;stroke:#bca30d;}.cls-19{fill:#422314;}.cls-19,.cls-22{stroke:#492615;}.cls-20{fill:#683c26;}.cls-21{fill:#ddc18f;}.cls-22{fill:#fff7f1;}</style></defs><title>playing with pet</title><g id="Layer_2" data-name="Layer 2"><ellipse class="cls-1" cx="507.5" cy="744.5" rx="453" ry="193"/><path class="cls-2" d="M382.75,376.93S309.5,392.5,308.5,393.5s10,35,10,36,64-31,64-32S382.75,376.93,382.75,376.93Z"/><path class="cls-3" d="M311.5,398.5s-25,9-23,27,9,38,9,38l33-24-7-24Z"/><polygon class="cls-3" points="384.5 380.5 392.5 365.5 443.5 381.5 429.5 403.5 389.5 389.5 384.5 380.5"/><path class="cls-3" d="M257.5,616.5s-43,18-46,19,13,47,14,47,92-32,97-33-30-40-36-40S257.5,616.5,257.5,616.5Z"/><path class="cls-3" d="M384.5,653.5s11,82,13,86,48-8,49-11-7-88-7-88Z"/><path class="cls-4" d="M177.5,638.5s25-10,42-8c0,0-1,17,6,27,0,0,11,19.92,13.5,20.46,0,0,14.5,35.54,7.5,49.54s-16,20-20,21-39-59-46-83S177.5,638.5,177.5,638.5Z"/><path class="cls-4" d="M391.7,770.92s-2.65-26.8,4-42.57c0,0,16.05,5.69,27.6,1.75,0,0,22.19-5,23.41-7.27,0,0,38.17-4.05,49.67,6.57s14.76,20.93,14.61,25.05-67.52,21-92.52,21.1S391.7,770.92,391.7,770.92Z"/><path class="cls-5" d="M164.5,643.5s13,59,25,78,22,35,22,35,19-3,17-8-12-6-41-74l-9-37S166.5,639.5,164.5,643.5Z"/><path class="cls-5" d="M392.88,784.79s60.29,3.93,81.88-2.31,39.74-11.4,39.74-11.4,2.4-19.08-3-18.55-9.1,9.86-82.48,18.8l-38-1.65S389.6,781.76,392.88,784.79Z"/><path class="cls-6" d="M267.5,507.5s-11,41-11,55-11,50-15,52,46,43,90,38c0,0,11-24,12-45,0,0,17,30,21,55,0,0,56-1,91-17a72.38,72.38,0,0,0-9-32c-9-16-40-67-48-75S267.5,507.5,267.5,507.5Z"/><path class="cls-6" d="M343.5,607.5c0-1,3-24,5-30s20-8,22-10"/><path class="cls-7" d="M431.5,650.5c-2,0-41,10-64,10,0,0-6-23-10-32s-12-21-12-21,4-28,5-28,36,48,47,55S431.5,650.5,431.5,650.5Z"/><path class="cls-7" d="M394.5,544.5l1.48.61c4.12,1.75,14.9,6.75,7.52,8.39-9,2-19,11-21,11s-15-7-24-7-17,4-20,4-8-3-17-4-16,2-26,4-23,12-27,18-13,30-11,34,11,13,16,17,20,14,20,14-23-6-49-29a213.35,213.35,0,0,0,10-27c4-14,4-31,5-35s11-38,11-38l84,24Z"/><path class="cls-2" d="M444.5,473.5l2,2a31,31,0,0,0,16-13c6-10,24-41,16-45s-27,6-27,6S436.5,466.5,444.5,473.5Z"/><path class="cls-3" d="M463.5,416.5s78,32,90,38,26,13,34,21,20,17,22,24,10,23,2,24-14-12-14-12,4,27-3,28-8,0-8,0-17,15-17-7c0,0-20,14-16-2,0,0,3-11-1-16s-15-16-16-21a7.46,7.46,0,0,0-5-6s-80-23-97-37,13-32,13-32Z"/><path class="cls-2" d="M255.5,511.5s39,27,78,35S406,548.3,406,548.3s12.48-61.8,23.48-80.8l16.15,7.6a.45.45,0,0,0,.64-.5c-.74-3.43-2.92-16.13,2.21-28.1,6-14,17-30,26-29l1.63.34a.48.48,0,0,0,.09-.91c-6.35-2.79-33.68-16.24-48.72-22.43-17-7-40-18-43-18s-53,20-79,54S255.5,511.5,255.5,511.5Z"/><path class="cls-8" d="M392.5,446.5c-3.58,7.16-53,10-60,21s-15,16-5,33,14,30,27,37,20,10,20,10-51-4-70-14-44-23-44-23,36-62,42-70,35-36,48-42,32-16,39-15,24,8,24,8-20,15-12,25,7,16,20,18a176.54,176.54,0,0,0,24,2s-9,23-6,32c0,0-27-17-31-19S395.5,440.5,392.5,446.5Z"/><path class="cls-2" d="M429.5,467.5s-32-21-43-33"/><path class="cls-9" d="M576.5,302.5s14-22,16-36,5-37-8-58-28-28-28-28l-32,23s28,24,37,40S576.5,302.5,576.5,302.5Z"/><path class="cls-3" d="M372.5,315.5s-17-18-32-12-22,29-10,42,34,21,40,11c0,0,36,40,108,44s93-25,100-38,7-35,0-49c0,0,5-30-3-57s-16-53-28-57-77,5-99,3-53-6-59-4-17,30-18,43S372.5,315.5,372.5,315.5Z"/><path class="cls-9" d="M373.5,321.5s5-17,7-26,2-10,2-12,9-13,17-26,11-18,11-18,13,3,46,8,42,1,42,1,8,5,26,2,37.29-2.17,45.15-13.09l-8.15-1.91s19,0,26-12,16-34,15-43a113.42,113.42,0,0,1-19,2s8-4,5-28-10-36-10-36-9,29-22,31c0,0,9-25-1-42,0,0-11,22-37,24s-34,2-34,2,16-15,7-31c0,0-1,22-28,22s-58,7-58,7,10-13,14-13-41-2-56,19a107.22,107.22,0,0,0-18,43s-21,4-34,31-11,54-11,54l9-6s1,27,8,40,13,11.82,13,11.82,8.93-12.82,19.46-8.82S372.5,316.5,373.5,321.5Z"/><path class="cls-10" d="M458.83,358.79s55.42,3.08,100.64-5.79c0,0-.79,20.75-16.73,27.81s-48.09,10.9-57.64,7.09c0,0-15.39-4.64-20.43-11.27S458.83,358.79,458.83,358.79Z"/><path class="cls-11" d="M483.8,384.37s6,3.64,18.44,3.68a105.07,105.07,0,0,0,25.09-3.49L539.41,380s-15.91-5.53-28.57-4.48S483.8,384.37,483.8,384.37Z"/><circle class="cls-12" cx="459.22" cy="300.08" r="11.78"/><circle class="cls-13" cx="453.43" cy="295.64" r="2.78"/><circle class="cls-12" cx="547.22" cy="296.08" r="11.78"/><circle class="cls-13" cx="541.43" cy="291.64" r="2.78"/><path class="cls-3" d="M509,308s11,6,12,13-1,10-6,11"/><path class="cls-14" d="M366.5,337.5c2-4.6-12-19-18-18s-14,11-11,12,9-6,14,0S363.5,344.5,366.5,337.5Z"/><path class="cls-15" d="M360.5,184.5s1-35,22-37,27,4,47,0,27-15,27-6-2,9,27,7,60-21,55-10-3,22,6,25,23-4,23-4-3,28-32,25-45-20-76-14-69,1-77,10-16,23-16,23-14-6-23,0-24,27-26,32,0,12,0,6,3-43,13-44S360.5,184.5,360.5,184.5Z"/></g><g id="Layer_3" data-name="Layer 3"><path class="cls-16" d="M642.5,720.5s31,68,40,74a36.34,36.34,0,0,0,28,5c8-2,28-12,28-18s1-19-11-21a83,83,0,0,0-24,0l-17-36s16,0,18-4,36,48,45,49,28-2,34-9,18-19,8-24-34-4-34-4-30-43-30-50c0,0,1-36,5-44s7-23,21-19,22,13,36,9,21-8,22-14c0,0,6-8,8-13s12-9,13-22-6-24-15-29-24,1-38-3-30-16-38-18a32,32,0,0,0-15,0s-10-14-10-22-14,0-15,10a87.71,87.71,0,0,0,1,21l-7,6s-4-3-4-12,7-22,0-22-24,22-22,34,12,23,12,23,1,19,3,30,4,14,0,17-29,8-58-9-48-24-70-10c0,0-15-2-18-12s-6-26-4-29-33,26-21,43,28,16,28,16-3,33,4,53c0,0-4,0-10-11s-10-22-18-19-11,16-14,22-16,16-21,27-2,21,6,25,21,7,28-2,9-22,9-22,14,27,27,29,22-1,27-9,6-13,6-13S608.5,710.5,642.5,720.5Z"/><path class="cls-17" d="M675.5,613.5s2,33,22,39,33,7,35,6,0-16.67,0-16.67-26-8.33-36-19.33-9.73-13.21-9.73-13.21Z"/><path class="cls-18" d="M733.36,655.18s-16.86-.68-18.86,5.32-4,24,8,26,18,1,18-10S733.36,655.18,733.36,655.18Z"/><path class="cls-19" d="M776.5,572.5s2-26,25-30,21,19,18,23-15,16-28,14S776.5,572.5,776.5,572.5Z"/><path class="cls-19" d="M691.5,547.5s-5-6-5-8-3-8-5-1-3,12,0,15S690.5,554.5,691.5,547.5Z"/><path class="cls-19" d="M708.5,535.5c.14,1,9-4,11-5s-5-13-6-14S706.5,521.5,708.5,535.5Z"/><path class="cls-20" d="M688.5,751.5c1.67,3.9-18-7-25-19s-11-25-12-34-3-30,8-26,16,18,18,33S685.5,744.5,688.5,751.5Z"/><path class="cls-20" d="M579.5,649.5c-7,0-15,9-16,20s2,25,0,31-7,11-1,10,26-20,25-38S579.5,649.5,579.5,649.5Z"/><path class="cls-16" d="M704.5,782.5s14.94-3.58,18,12.21"/><path class="cls-16" d="M716.5,769.5s16.11-.46,20,15.77"/><path class="cls-16" d="M765.5,750.5s14.59-3,15.8,12"/><path class="cls-16" d="M774.5,737.5s14.34-.33,16.67,13.83"/><path class="cls-16" d="M498.5,694.5s-12.78,11.8-18.39,2.9"/><path class="cls-16" d="M507.5,703.5s-3.39,8.3-15.2,8.65"/><path class="cls-21" d="M675.5,645.5c-4.85,1.21-19,8-13,10s18,6,19,0S679.5,644.5,675.5,645.5Z"/><path class="cls-21" d="M665.5,622.5s0,21-10,25-21,13-31,2-11-14-17-25-6-15-14-17-13-11-3-8,27,9,36,17,10,12,20,10S663.5,619.5,665.5,622.5Z"/><path class="cls-21" d="M564.5,624.5c-6-1-16,2-16,11s0,15,8,15,18-6,16-13S564.5,624.5,564.5,624.5Z"/><path class="cls-22" d="M752.5,568.5s-15,6-16,15c0,0-17-16-7-21S752.5,568.5,752.5,568.5Z"/><path class="cls-22" d="M759.5,562.5s-11-13-9-17,11-6,20,3C770.5,548.5,761.5,556.5,759.5,562.5Z"/><circle class="cls-12" cx="738.15" cy="568.05" r="4.45"/><circle class="cls-12" cx="760.51" cy="549.41" r="4.01"/><circle class="cls-17" cx="883.62" cy="460.32" r="41.18"/><path class="cls-17" d="M883.5,419.5S850.58,449.64,865,497.07"/><path class="cls-17" d="M899.08,422.14S880.5,467.5,883.5,501.5"/><path class="cls-16" d="M811.5,614.5s-17,10-41,1"/></g></svg>