<svg id="Layer_1" data-name="Layer 1" xmlns="http://www.w3.org/2000/svg" viewBox="0 0 1000 1000">
  <defs>
    <style>
      .cls-1 {
        font-size: 150px;
        fill: #ed2024;
        font-family: FreeSansBold, FreeSans;
      }

      .cls-2 {
        letter-spacing: -0.02em;
      }

      .cls-2, .cls-3, .cls-4, .cls-5 {
        fill: #000;
      }

      .cls-3 {
        letter-spacing: -0.02em;
      }

      .cls-4 {
        letter-spacing: -0.01em;
      }

      .cls-5 {
        letter-spacing: 0em;
      }

      .cls-6 {
        fill: #4d85b0;
      }

      .cls-13, .cls-14, .cls-6, .cls-7, .cls-9 {
        stroke: #34789b;
      }

      .cls-13, .cls-14, .cls-17, .cls-18, .cls-19, .cls-21, .cls-22, .cls-23, .cls-24, .cls-27, .cls-30, .cls-33, .cls-34, .cls-37, .cls-6, .cls-7, .cls-9 {
        stroke-miterlimit: 10;
      }

      .cls-13, .cls-14, .cls-17, .cls-18, .cls-19, .cls-21, .cls-23, .cls-27, .cls-33, .cls-34, .cls-37, .cls-6, .cls-7, .cls-9 {
        stroke-width: 3px;
      }

      .cls-7 {
        fill: #5993bb;
      }

      .cls-8 {
        fill: #245f80;
      }

      .cls-12, .cls-9 {
        fill: #332935;
      }

      .cls-10 {
        fill: #a17842;
      }

      .cls-11 {
        fill: #afd7f1;
      }

      .cls-13 {
        fill: #b4c3da;
      }

      .cls-14 {
        fill: none;
      }

      .cls-15 {
        fill: #251d26;
      }

      .cls-16 {
        fill: #936834;
      }

      .cls-17 {
        fill: #d0d5ec;
      }

      .cls-17, .cls-18, .cls-19, .cls-21, .cls-22, .cls-23, .cls-24 {
        stroke: #2d6399;
      }

      .cls-18 {
        fill: #3d6ca3;
      }

      .cls-19 {
        fill: #b4cbe9;
      }

      .cls-20 {
        fill: #474e68;
      }

      .cls-21 {
        fill: #b3bedc;
      }

      .cls-22 {
        fill: #1c253a;
      }

      .cls-23 {
        fill: #607292;
      }

      .cls-24 {
        fill: #b42025;
      }

      .cls-25 {
        fill: #2d6399;
      }

      .cls-26 {
        fill: #5c96a8;
      }

      .cls-27 {
        fill: #5ba1bb;
        stroke: #4799b3;
      }

      .cls-28 {
        fill: #98bbd3;
      }

      .cls-29 {
        fill: #a8c5d6;
      }

      .cls-30 {
        fill: #b55b27;
        stroke: #a04b23;
      }

      .cls-31 {
        fill: #82b1ca;
      }

      .cls-32 {
        fill: #cd702d;
      }

      .cls-33 {
        fill: #9c762b;
        stroke: #a97e2c;
      }

      .cls-34 {
        fill: #576274;
      }

      .cls-34, .cls-37 {
        stroke: #48566d;
      }

      .cls-35 {
        fill: #686c71;
      }

      .cls-36 {
        fill: #8e7d2f;
      }

      .cls-37, .cls-38 {
        fill: #2c262a;
      }

      .cls-39 {
        fill: #313034;
      }
    </style>
  </defs>
  <title>kitchen</title>
  <text class="cls-1" transform="translate(231.62 805.55)">K<tspan class="cls-2" x="108.3" y="0">it</tspan><tspan class="cls-3" x="192.45" y="0">c</tspan><tspan class="cls-4" x="273.6" y="0">h</tspan><tspan class="cls-3" x="363.75" y="0">e</tspan><tspan class="cls-5" x="444.9" y="0">n</tspan></text>
  <g>
    <path class="cls-6" d="M904.43,446l14.11-129a16.28,16.28,0,0,0-8.89-16.4C899,295,657.58,163.39,657.58,163.39s-6.15-4.8-15.6-1.43-128.07,47.69-128.07,47.69L770.12,362.72,758.93,499.21s.23,2.78,3.81,4.27S902.55,451,903.19,450A17.71,17.71,0,0,0,904.43,446Z"/>
    <path class="cls-7" d="M771.12,358.42c-1-.59-200.71-118.35-200.71-118.35L517.32,208.2s-6.46,0-7.47,9.27-7.48,127-7.48,127,0,5,3,6.94,98,60.85,98,60.85L761,504.94s2.75-.8,5.46-6S776.27,370,776.27,370,777.16,361.83,771.12,358.42Z"/>
    <polygon class="cls-8" points="858.79 338.26 785.6 367.71 785.18 371.52 858.32 342.62 858.79 338.26"/>
    <polygon class="cls-8" points="858.55 345.39 785.35 374.85 784.93 378.66 858.07 349.75 858.55 345.39"/>
    <polygon class="cls-8" points="858.36 351.99 785.17 381.44 784.75 385.25 857.88 356.34 858.36 351.99"/>
    <polygon class="cls-8" points="857.59 359.06 784.39 388.51 783.98 392.33 857.11 363.42 857.59 359.06"/>
    <polygon class="cls-8" points="856.81 366.14 783.62 395.59 783.2 399.4 856.34 370.49 856.81 366.14"/>
    <polygon class="cls-8" points="856.57 373.27 783.37 402.73 782.96 406.54 856.09 377.63 856.57 373.27"/>
    <polygon class="cls-8" points="855.67 381.44 782.48 410.89 782.06 414.7 855.2 385.79 855.67 381.44"/>
    <path class="cls-9" d="M751.45,372.24l-7.79,100.51s.81,7.25-8.8,2.34S561.93,371.35,561.93,371.35s-5.51-3.36-4.92-8.8,6.26-96.27,6.26-96.27,2.7-5.21,7.86-3.55,175.65,98.54,175.65,98.54A12.4,12.4,0,0,1,751.45,372.24Z"/>
    <polygon class="cls-10" points="709.35 361.58 703.14 433.06 586.11 360.22 589.98 290.68 709.35 361.58"/>
    <path class="cls-11" d="M567.19,269.46s-5.63-2.27-6.86-.75-6.19,90.77-6.19,90.77a12.65,12.65,0,0,0,4.05,2.09c2.58.84,4.69,1.07,4.51,2.7s-.3,2.72-2.47,3-7.27-1.9-10.14-5,5.55-94.69,5.55-94.69-.34-6.65,4.41-6.13,9.32,2.67,9.2,3.76S568.72,270.18,567.19,269.46Z"/>
    <path class="cls-12" d="M550.2,258.79l-6.67,95.12s-.41,3.81-4,2.32-24.49-15.35-24.49-15.35a6.39,6.39,0,0,1-1.58-5.13c.36-3.27,5.08-95.29,5.08-95.29s1.47-3.7,5.11-2.75,25.2,13.77,25.2,13.77S550.73,253.89,550.2,258.79Z"/>
    <polygon class="cls-13" points="544.69 255.43 523 243.7 520.02 310.03 540.25 320.5 544.69 255.43"/>
    <line class="cls-14" x1="540.92" y1="310.6" x2="520.5" y2="299.46"/>
    <line class="cls-14" x1="541.61" y1="300.47" x2="520.92" y2="290.16"/>
    <line class="cls-14" x1="542.7" y1="288.27" x2="521.43" y2="278.72"/>
    <line class="cls-14" x1="543.11" y1="278.51" x2="521.91" y2="268.13"/>
    <line class="cls-14" x1="543.87" y1="267.38" x2="522.4" y2="257.26"/>
    <line class="cls-14" x1="533.61" y1="249.26" x2="529.77" y2="304.52"/>
    <path class="cls-6" d="M524.52,322.64l6.33.69s6,4,6,8.92-1.83,11.91-5.06,12.11-8-.32-9-1S524.52,322.64,524.52,322.64Z"/>
    <path class="cls-7" d="M518.18,326.9a5.63,5.63,0,0,1,6.34-4.26c5.28.57,7.74,2.5,7.91,5.82s-.19,11.55-1.9,12.46-5.34,4.93-10.32,1.63S518.18,326.9,518.18,326.9Z"/>
    <path class="cls-8" d="M909.18,378.2s-7.91,62.48-8.49,63,3.16,5.3-16.33,12.54-44.2,18.3-44.2,18.3,42.22-24.58,47.5-29,11-22.48,12.13-27.87,9.5-38.07,9.5-38.07Z"/>
    <path class="cls-8" d="M604.76,177.45,533.92,205s-9.1,5.07,1.51,10.63,88,50.39,88,50.39-72.07-49.2-73.64-54.33,21.9-14.68,26.54-18S604.76,177.45,604.76,177.45Z"/>
    <path class="cls-15" d="M746.25,395.36l-6.09,70.4s-3.3,5.7-10.92,2.11-36.62-21.64-36.62-21.64S725,458,728.73,457.9s6.46-5.36,7.47-9.65S746.25,395.36,746.25,395.36Z"/>
    <path class="cls-16" d="M705.68,382.94l-4.11,37.56c-.12,1.09.17,8.28-8.86,2.88s-51.57-31.53-51.57-31.53,48.64,29,52.63,26.69,5.31-14.29,6.55-20.77,3.9-21,3.85-25.46-1.74-8.46-2.68-9.66-16.76-12.85-16.76-12.85,20.63,11.62,21.63,12.28.69,8.34.51,10Z"/>
    <path class="cls-8" d="M685.52,301.13l73.89,44.72s8.56,7.27,17.24,6,48.89-17.24,48.89-17.24-40.38,12.66-58.73,4.6-55.27-24.5-56.27-25.16S685.52,301.13,685.52,301.13Z"/>
  </g>
  <g>
    <path class="cls-17" d="M86.43,395l-.55,96.73,139,113.22s11.54,8.79,29.68,1.65S561.83,495,561.83,495l3.83-91.58L276,462.23,113.36,387.84l-18.69-5.5Z"/>
    <path class="cls-18" d="M113.36,373.55,87,375.2s-6.59,16.49-5.49,26.93c1,9.85,144,115.41,144,115.41s10.45,7.15,30.23,0,179.72-63.75,179.72-63.75l130.25-45.62s7.15-4.84,7.15-18.13-15.94-17-15.94-17L407.94,387.84l-205,63.75Z"/>
    <path class="cls-18" d="M397.83,290.6,90.45,372.07s-9.94,4.87-.1,11.54S229,497.46,229,497.46s13.15,5.06,25.3-2,306.42-98,306.42-98,18.06-7.47,7.51-18.32-147.85-88.4-147.85-88.4S411.06,285.21,397.83,290.6Z"/>
    <ellipse class="cls-19" cx="246.21" cy="412.1" rx="58.41" ry="43.61"/>
    <ellipse class="cls-20" cx="246.36" cy="411.14" rx="51.97" ry="38.8"/>
    <ellipse class="cls-21" cx="245.68" cy="410.65" rx="37.91" ry="28.3"/>
    <path class="cls-22" d="M241.41,458.74l2.2-23.63s-2.2-1.65-6.05-.55l-4.94,22.53A15.79,15.79,0,0,0,241.41,458.74Z"/>
    <path class="cls-22" d="M185.14,413.31l23.72-.63s1.38-2.38-.17-6.07l-23-2.23A15.77,15.77,0,0,0,185.14,413.31Z"/>
    <path class="cls-22" d="M305.62,405.47,282,407.56s-1.22,2.46.55,6.05l23.06.81A15.84,15.84,0,0,0,305.62,405.47Z"/>
    <path class="cls-22" d="M245.59,362.09l-.7,23.72s2.3,1.51,6.07.17l3.51-22.8A15.81,15.81,0,0,0,245.59,362.09Z"/>
    <ellipse class="cls-19" cx="412.73" cy="359.89" rx="58.41" ry="43.61"/>
    <ellipse class="cls-20" cx="412.89" cy="358.93" rx="51.97" ry="38.8"/>
    <ellipse class="cls-21" cx="412.21" cy="358.44" rx="37.91" ry="28.3"/>
    <path class="cls-22" d="M407.94,406.53l2.2-23.64s-2.2-1.65-6.05-.55l-4.94,22.54A15.79,15.79,0,0,0,407.94,406.53Z"/>
    <path class="cls-22" d="M351.66,361.1l23.73-.63s1.38-2.38-.17-6.07l-23-2.23A15.83,15.83,0,0,0,351.66,361.1Z"/>
    <path class="cls-22" d="M472.14,353.26l-23.64,2.09s-1.23,2.46.55,6l23.05.82A15.84,15.84,0,0,0,472.14,353.26Z"/>
    <path class="cls-22" d="M412.12,309.88l-.7,23.72s2.29,1.51,6.06.17L421,311A15.84,15.84,0,0,0,412.12,309.88Z"/>
    <polygon class="cls-23" points="263.39 580.75 550.83 483.47 552.48 426.31 261.2 524.69 261.2 580.75 263.39 580.75"/>
    <ellipse class="cls-17" cx="327.87" cy="529.97" rx="15.58" ry="16.94"/>
    <path class="cls-22" d="M310.64,533.48,344,523s2.53,3.85,2,5-33.88,11-33.88,11S309.63,535.68,310.64,533.48Z"/>
    <ellipse class="cls-17" cx="485.07" cy="475.56" rx="15.11" ry="16.94"/>
    <path class="cls-22" d="M468.37,479.07l32.35-10.44s2.45,3.85,2,4.95-32.84,11-32.84,11S467.39,481.27,468.37,479.07Z"/>
    <path class="cls-24" d="M303,536.23c1.1,0,6,1.1,6,1.1l-3.3,3.85Z"/>
    <polygon class="cls-22" points="321.65 511.5 317.81 509.3 322.75 507.65 321.65 511.5"/>
    <path class="cls-24" d="M466.2,482.37c-.55,0-3.85-.55-3.85-.55l2.75,4.4Z"/>
    <path class="cls-22" d="M479.39,458.19s-4.4-2.2-4.4-2.75,6.05-1.65,6.05-1.65Z"/>
    <path class="cls-25" d="M163.64,436.48s56.06,45.07,61,49.46,11,11.54,25.28,6.6,67.6-24.73,78.59-28.58,57.16-16.49,57.16-16.49-86.29,16.49-111,20.89-45.61,4.94-57.16,0S163.64,436.48,163.64,436.48Z"/>
    <path class="cls-25" d="M474.71,417.79c2.75-.55,74.2-18.68,80.8-24.18s13.74-6.59,9.89-11.54-22-16.49-27.48-19.79S496.15,337,496.15,337s55.51,36.28,55,42.32-3.3,6.6-20.89,14.29-57.7,24.18-57.7,24.18Z"/>
    <path class="cls-25" d="M185.63,484.84s35.72,26.93,37.92,28,7.69,5,12.09,5,16.49-.55,22-3.3,27.48-9.34,30.78-11,40.67-14.29,40.67-14.29-70.9,18.14-79.14,20.34-16.49,1.64-23.63-2.75S200.47,489.24,197.17,487s-24.73-15.94-24.73-15.94l-15.94-8.79Z"/>
    <path class="cls-25" d="M548.91,431s1.1,49.47-1.65,50.57S511,494.19,511,494.19l-15.39,6s40.67-17,44-22.53S548.91,431,548.91,431Z"/>
  </g>
  <g>
    <path class="cls-26" d="M688.91,496.14l4.64-34s-14-16.25-24.91-19.36-52.31-10.1-52.31-10.1-47.05-2.75-63.72-.43-47.42,8.84-47.42,8.84S480.45,451.8,478.42,456s-3,41.41-3,41.41L557,535.34l94.83-21.69Z"/>
    <path class="cls-27" d="M693.84,455.34c-9.28-7.36-23-14.76-42.22-18.71s-52.12-8.08-78.68-7.15-60,6.36-71.68,10.79-26,11-30.87,19.74.5,18.9.5,18.9,39,30.81,77.42,31.49,87,.37,108.67-7.86,34.09-15.8,37.74-20.25,4.38-7.57,4.38-7.57S703.12,462.69,693.84,455.34ZM655.65,492a268.54,268.54,0,0,1-79.5,8.8c-8.37-.44-42.28-2.27-60.53-8.12s-34-12.67-36.39-20.93,1-17.54,19-25,47.77-12.41,63.5-13.23,46.21-.94,64.35,2.1,35.8,6.83,46.12,11.88,17.26,11.77,17.77,18.64C689.94,466.17,693.57,481.78,655.65,492Z"/>
    <path class="cls-28" d="M492.48,451.82s38.56-12.54,61.23-14.66a275.49,275.49,0,0,1,50.94-.07c9.13.93,30.65,2.3,41.52,5.81s26.43,8.28,30.2,10.67,6.39,4.25,6.39,4.25-37.66-12.23-68.67-15-57.64-1-67.89,1.16-35.06,5.67-38.4,6.94-13.74,5-17.2,7.49-7.7,4.83-8,7.61C482.62,466.06,480.32,461,492.48,451.82Z"/>
    <path class="cls-27" d="M725.9,475.42c-6.31-9.06-26.2-10.67-26.2-10.67s1,14.14-15.34,20.91S643.72,502.8,603.5,504s-77-3.38-96.9-9.4-33.37-15-36.34-21.32-1.54-8.58-1.54-8.58-21,1.89-25.9,10.22-.29,14.81,5.82,17.83S470,501.88,470,501.88l2,51.53s-1.09,10.72,11.76,22.45,35.55,21.24,77.12,26.64,86.43-6.1,97.75-11,29.24-15.49,33.82-25,4.74-15.16,4.83-28,.88-36.4.88-36.4,20.31-8.57,22.85-9.92S732.2,484.48,725.9,475.42Zm-270.3,3.95c-3.85-1.59-2.81-3.89-1-6.12s13.78-5.42,13.74-5,.66,17.31.66,17.31C468,484.23,459.45,481,455.6,479.37Zm243.61,6.18,1.68-16.67a29.31,29.31,0,0,1,8.65,1.68c5.44,1.75,6.23,5.84,6.07,7.43S699.21,485.55,699.21,485.55Z"/>
    <path class="cls-29" d="M473.65,513.08,471.58,482s11.26,11.56,27.26,16,42.15,7.47,61.21,9.4,35.85,2.42,46.41,1.08,18.5-.54,30-3,31.85-9.61,33.91-10.2-5.37,9.48-18.75,10.94-50.47,11.33-87.51,8.79-61-8.91-68.29-7.67-12.82,4.68-13,10.28-2.93,25-2.89,28.58-2.16,13.42-.5,16.8,1.5,5,.43,3.65-5.31-6.95-5.26-11.36S473.65,513.08,473.65,513.08Z"/>
    <path class="cls-29" d="M460.61,495.32s-11.87-5.62-13.73-7-2.66-1.47-3.21-3.93S442.4,481,443,479.1s.36-3.58,1.67-4.65,4.37-3.56,4.17-1.58-.92,5.12.87,7.31,1.18,4.13,5.39,6.16,8.69,1.28,9.25,3.74S460.61,495.32,460.61,495.32Z"/>
    <path class="cls-29" d="M703.9,496.66s14.14-5,15.89-6.42a28.65,28.65,0,0,0,5-5.51c1-1.51,1.68-4.64,1-5.92s-3.88-5.2-4.28-5.24,2.38,4.25,2.22,5.84-.28,2.78-4.18,5.59-4.37,3.57-9,5.51A14,14,0,0,0,703.9,496.66Z"/>
    <path class="cls-30" d="M462.81,481.5s-15.59,6.05-10.83,13.34c0,0-.09.8-2,.2s-12.4-5.66-13.53-9.39-1-9.72,1.21-11.91,6-5,8.55-5.55,6.66-1.73,8.68-1.93,7.13,3.53,6,4.62-4.65,1.54-5.76,2.63-1.76,2.63.55,4.46S462.39,480.66,462.81,481.5Z"/>
    <path class="cls-30" d="M708.28,481.06s10.24,8,6.74,13.81c0,0-.16.49,1.46.25s11.16-3.28,12.52-8.76,3.31-8.89-.7-12.9-7.3-7.16-10.12-7-8.81,3.92-7.82,6,4.6,2.07,2.69,5.08A7.82,7.82,0,0,1,708.28,481.06Z"/>
    <path class="cls-27" d="M475.66,404s-11.85,22.79,20.68,35.86,79,22.5,124.75,19.08,56.77-8.16,73.91-17.16,8.53-25,5.3-29.37S625.22,383,625.22,383L511.56,400.23Z"/>
    <path class="cls-27" d="M498.11,432.89s31.29,14.36,73,17.43,82.74-2.92,82.74-2.92,32.84-5.23,44.12-17.66,2.68-20-2.32-24.57-27.41-16.57-46.4-20c0,0-40.92-9.27-48.35-8.77s-50.11-.53-65.71,2-21.41,2.89-34,6.89a85,85,0,0,0-22.27,11.23s-10.85,7.63-4.08,19.63C474.86,416.12,479.81,425.38,498.11,432.89Z"/>
    <path class="cls-31" d="M588.38,405.74s19.57.29,23.55-2.8,3.06-5.73,1.91-6.6l-4.6-3.45-1.18-2.13s9,2.75,10.07,5.76,1.41,8.81-3.37,9.65a60.72,60.72,0,0,1-15.38.77C593.32,406.53,588.38,405.74,588.38,405.74Z"/>
    <path class="cls-27" d="M570.1,399.48s12.22,5.85,24.94,4.75,19.13-3.35,17.82-5.85-8.31-14-9.75-16.87S580,378.24,580,378.24l.78,1s-9.88,12.79-11.5,14.2S567.29,397.51,570.1,399.48Z"/>
    <path class="cls-28" d="M572.36,398.69s14.94,2.77,22.62,1.76,9.52-4.2,8.21-6.7-1.83-11.2-5.63-12.4S583,379.7,582.26,380,570.64,393.8,570,394.44,567.91,396.87,572.36,398.69Z"/>
    <path class="cls-30" d="M559.7,371.18s5.35,7.34,21.45,10.46,38.12.1,38.12.1,7.8-12,5-18.89-20-10.94-20-10.94-16.23-3.5-26.27-1.73-12.56,3.55-14.53,4.69S558.53,369,559.7,371.18Z"/>
    <path class="cls-32" d="M622.66,361.43s4,6-8.72,7.91-30.49-.26-35.42-1.92-12-3.61-13.53-4.87-3.38-3.69-1.15-6.29,18.2-4.51,18.2-4.51,11.91-.07,20.71,2.28S615.8,357,622.66,361.43Z"/>
    <path class="cls-29" d="M617.84,446.12s-61.55,1.8-95.43-9.1-43.94-23.86-45-26.87.33-9.85,6.95-13.87,22.54-10.48,33.23-12.56,15.61-2.54,15.61-2.54-29.53,7.45-35.78,11.34-16.6,10.5-12.49,15,13.25,14.79,33.81,21.5,40.72,12.31,61.57,13.85,61.35,1.22,61.35,1.22,23.92-2.93,32.93-7.37C674.59,436.7,654.07,446.89,617.84,446.12Z"/>
  </g>
  <g>
    <path class="cls-33" d="M347.85,259s-8.92-.44-10.36-1.45-29.26-36.33-30.1-37.65-1.2-12.92-.28-14.19,20.36-6.66,22.1-6,34.05,36.57,34.33,36.9.84,11.35.18,13.92S347.85,259,347.85,259Z"/>
    <path class="cls-34" d="M395.43,273l-33-33.3s-9.49-.8-16.92,3.19-6,3.66-6,3.66.82,9.78,1.08,10.76S363,287,363,287l28.46-7.4Z"/>
    <path class="cls-35" d="M343.47,248.47S364,277,365.92,277.33s24.95-6,24.73-6.56-27.35-28.65-27.35-28.65S349.7,242.52,343.47,248.47Z"/>
    <path class="cls-36" d="M361.2,236.57s-18.25,1-22.8,6.69l-.61.63s-28.5-35.74-28.48-36.39,19-6.49,19.56-6.15S361.2,236.57,361.2,236.57Z"/>
    <path class="cls-37" d="M397.1,353.54S362.53,351,347,336.77s-16.95-25-16.95-25-1.75-11.55,11.39-22.67,40.09-20.69,64.38-21.91,46.74,1.34,61.49,6.37,30,16.95,31.65,20.07,7.89,14.79-.85,29.48-32,27.06-58.73,30.12S397.1,353.54,397.1,353.54Z"/>
    <path class="cls-38" d="M494.58,337.56c0-.76,5.44-32.8-3.33-41.1S471.68,278.27,451.68,275s-33.48-4.41-53-1.52-30.65,5.64-38.37,8.86-21.91,15.09-23.8,20.4-1.72,36-1.08,37.52,64.6,31,64.93,31.38,71-11,73.46-12.07S494.58,337.56,494.58,337.56Z"/>
    <path class="cls-39" d="M490.49,335.14c0-.76,1.2-17.59-8-22.45S452.42,297.26,431,296.64s-53.1,3.08-65.06,9.25-24.3,13.86-28.51,27.54,16.45,30.36,16.45,30.36l80.09-1.53,38.73-9.62Z"/>
    <path class="cls-34" d="M330.05,311.76s-1.76,37.12-.16,41.76,12.94,19.92,30.05,27.31,55.09,11.93,74.57,9.42,44-12.53,52.89-19.94,13.68-18,14.47-21.43,1.28-44.41.28-45.59c0,0-6.58,23.95-22.38,31.16s-56,21-101.12,10.13S330.05,311.76,330.05,311.76Z"/>
    <path class="cls-35" d="M346.59,320.86s19.23-18.23,45.3-20.93S431.1,298,432.48,298s15.52,2.36,21,4.05a54.93,54.93,0,0,1,7.88,2.91s-21.68-4.84-36.62-3.73-33.3,1.34-39.93,3.07-26.59,8.81-28.36,10.29S346.59,320.86,346.59,320.86Z"/>
    <path class="cls-35" d="M500.89,316.86l-.57,31.79a41,41,0,0,1-2.95,6.43c-1.45,2.26-6.13,8.25-6.13,8.25s5.1-8.66,5.54-12.1a51,51,0,0,0,.3-10.34c-.24-3.84-.74-10.37-1.07-11.14s-5.75,7.5-13.51,12.25-15.85,5.21-21.21,6.64-20,3.3-22.73,3.22a48.48,48.48,0,0,1-6.91-1s31-6,36.61-7.76,20.71-9.37,22.53-12.38,8.36-14.56,8.75-15.58S501,313.41,500.89,316.86Z"/>
    <path class="cls-35" d="M367.73,380.86s-17.06-8.92-22.49-12.91a53.33,53.33,0,0,1-11.1-11.81c-1-1.56-2-1.59-2.64-4.68s-.4-22.24-.4-22.24,2.41,12.72,3.29,18.11,6,8.6,11,14.11S367.73,380.86,367.73,380.86Z"/>
  </g>
</svg>
