<svg id="Layer_1" data-name="Layer 1" xmlns="http://www.w3.org/2000/svg" viewBox="0 0 1000 1000">
  <defs>
    <style>
      .cls-1 {
        font-size: 150px;
        font-family: FreeSansBold, FreeSans;
      }

      .cls-1, .cls-9 {
        fill: #231f20;
      }

      .cls-2 {
        letter-spacing: -0.01em;
      }

      .cls-3 {
        fill: #ed1c24;
      }

      .cls-4 {
        fill: #fed2a5;
        stroke: #d7a57c;
      }

      .cls-4, .cls-5, .cls-8 {
        stroke-miterlimit: 10;
        stroke-width: 3px;
      }

      .cls-5, .cls-8 {
        fill: #232323;
      }

      .cls-5 {
        stroke: #0d0e0e;
      }

      .cls-6 {
        fill: #fffffc;
      }

      .cls-7 {
        fill: #171717;
      }

      .cls-8 {
        stroke: #030303;
      }

      .cls-10 {
        fill: #fff;
      }

      .cls-11 {
        fill: #e9bf98;
      }

      .cls-12 {
        fill: #eb9eae;
      }

      .cls-13 {
        fill: #2d2e2d;
      }
    </style>
  </defs>
  <title>bad</title>
  <text class="cls-1" transform="translate(72.95 815.83)">b + ad = <tspan class="cls-2" x="608.7" y="0">b</tspan><tspan class="cls-3" x="698.85" y="0">ad</tspan></text>
  <g>
    <path class="cls-4" d="M686.7,495.52s10.14,32.42,13.1,40c3.1,8,14.73,62.88,15.53,65.41,1.57,5,3.52,4.62,5.63,10.64s4.47,14.51-3.43,23.88-27.67,16.6-35.91,13.18-5.3-14-5.3-14-2,4.31-4.49,3.68-3.66-13,5-20.84l-3-9.6-13.27-55.23-34.3-84.41L673,449.5Z"/>
    <path class="cls-4" d="M362.05,378.17s-32.4,10.44-40.37,12.38c-8.27,2.06-60,24.52-62.52,25.33-5,1.59-5.81-.32-11.93,1.45s-14.46,4.72-17.63,17.16,2.28,33.88,9.82,39,18-6.39,18-6.39,6.1,11,8,12.81c.85.8,5.26,2.5,5.17-2.46-.11-6.28-1.43-12.24-.64-19.07l7.37-2.4,52.87-21.21L419,414.48l-11.46-51.67Z"/>
    <path class="cls-5" d="M515.76,637s67.86,2,112.65-6.1c0,0-7.47-130.3-8.15-135s15.61,28.5,15.61,28.5l63.79-24.43S671.84,409.68,661,393.39s-42.75-27.82-42.75-27.82-43.43-17-58.36-20.36-88.22,2-88.22,2-51.11,7.64-69.43,13.75-46.44,12.81-67.31,21.54l33.92,90.11,38.6-7.82s-4.32,160-3.64,166.08S515.76,637,515.76,637Z"/>
    <path class="cls-4" d="M549,370.32s3.39-24.43,3.39-25.11a28.87,28.87,0,0,0-1.69-4.33l-13.24-13.31h-55l-6.11,16.28v26.47l25.11,12.22,31.89-2.72Z"/>
    <path class="cls-5" d="M475.51,347s-1.83,18.59,6.32,22.66,29.18,8.15,42.07,6.79,22.4-8.82,24.43-12.22,3.73-20.11,3.73-20.11,6.93-.31,9.06,1.42-2,18-4,24.12-14.93,14.93-25.78,16.29-31.22,0-40.72-3.39-17-5.43-19.68-13.58a185.14,185.14,0,0,1-5-20.41S474.63,344.66,475.51,347Z"/>
    <path class="cls-6" d="M549.93,430s-6.76-11.26-18-10.51-14.26,17.27-14.26,28.53-.75,27,3.75,29.27,24,5.26,27-6.75l-7.51-3.75a6.13,6.13,0,0,1-7.51,1.5c-4.5-2.26-4.5-11.26-3.75-18.77s1.5-12.76,3.75-14.26,8.26-2.25,8.26,1.5h8.26Z"/>
    <path class="cls-6" d="M501.13,419.52h-9.75l-13.52,60.06h9.76l2.25-10.51h9l2.25,10.51h10.51Zm-9,36,3.75-15.77,3.75,15.77Z"/>
    <path class="cls-7" d="M614.6,553.55s4.08,54.28,4.08,59.71,5.42,12.22-4.08,12.9-35.28.67-53.61,0-63.11,8.82-74.64,6.78,66.5-12.21,82.79-18.32,21,2.71,27.82-14.25S614.6,553.55,614.6,553.55Z"/>
    <path class="cls-7" d="M690.61,497.22c-4.75,1.36-19.68,5.43-31.9,10.18s-17.64,14.93-21,8.82-11.54-21-11.54-21,14.93,6.11,25.79,4.75a254.49,254.49,0,0,1,28.5-2A57.8,57.8,0,0,0,690.61,497.22Z"/>
    <path class="cls-7" d="M647.18,391.36c-5.1-5.1-14.93-13.57-31.22-20.36s-23.07-8.82-32.57-12.22-14.93-5.42-15.61-4.75-8.14,6.11-2,7.47a143.32,143.32,0,0,1,32.58,10.86c16.28,7.46,24.43,14.25,37.32,19s19.68,10.18,19.68,10.18S648.53,392.71,647.18,391.36Z"/>
    <path class="cls-4" d="M389.09,244.45s7.38,57.28,25.64,73.1,68.18,28.41,94.15,28,48.23-7.77,59.59-12.23,48.7-20.7,54.38-39.77,6.9-41.4,6.09-49.11c0,0,28.82-4.06,32.47-18.67s-1.22-23.94-6.49-27.6-30-8.52-30-8.52S614.33,143.39,595.26,119s-49.11-36.12-62.1-37.33-46.26,1.21-67.77,15.42S427.24,133.25,422,141s-26.38,44.64-26.38,44.64l-3.25,8.52s-15.42,1.63-21.1,9.75-7.71,21.5-4.46,26S380.16,244,389.09,244.45Z"/>
    <path class="cls-8" d="M420,189.67s2.71-2.4,14.47-.78,31.9,8,31.9,8S452,188,444.22,185.17c-7.33-2.7-13.76-5.55-17.42-3.52S420,189.67,420,189.67Z"/>
    <path class="cls-8" d="M547.77,182.76s18.27-2,26-1.22a105.05,105.05,0,0,1,15,2.84s-2-8.52-9.33-10.14-15.83-.41-19.48,1.22S547.77,182.76,547.77,182.76Z"/>
    <circle class="cls-9" cx="451.97" cy="214.67" r="13.18"/>
    <circle class="cls-10" cx="445.38" cy="209.86" r="3.1"/>
    <circle class="cls-9" cx="563.58" cy="216.7" r="13.18" transform="translate(259.4 738.29) rotate(-80.78)"/>
    <circle class="cls-10" cx="556.99" cy="211.89" r="3.1"/>
    <path class="cls-11" d="M631.78,233.09s-.4-8.12,2.84-10.56,7.71-2.84,4.87-5.27-3.24-3.65-2-6.5-.4-6.89,4.47-6.08,7.3,3.24,8.12,5.27a12.54,12.54,0,0,1,.81,4.06s-2-5.68-4.87-4.87-4.87,1.62-4.06,5.28,2.84,4.87.4,7.3S631.78,233.09,631.78,233.09Z"/>
    <path class="cls-11" d="M387.46,234.3s.41-6.9-.81-9.74-4.46-5.68-1.22-7.3,4.47-3.65,4.06-6.5-.81-4.87-2.84-5.27-9.74-1.22-12.17,4.06-2.44,5.68-2.44,5.68,4.87-6.09,7.71-6.09,5.28-.81,4.06,2.84-2.43,4.47-2,7.71S387.46,234.3,387.46,234.3Z"/>
    <path class="cls-12" d="M528.74,312.05S507,306.4,489.5,307.6c0,0,9.18-18.14,19.75-17.43s15.35,4.71,17.53,8.79S528.74,312.05,528.74,312.05Z"/>
    <path class="cls-5" d="M412.16,121s11.09-3.94,16.45-1.24,10.47,18.35,4.35,25.57l-6.28,15-3.46-3s-2.13,16.36-4.13,21.87-3.46-3-5.84-2.63-6,22.69-6,22.69l-14.4-6.85s-4.94,6.43-6.06,2.28S384.67,132.4,412.16,121Z"/>
    <path class="cls-5" d="M597.29,136.49s-2.44,8.93,0,14.62a84.9,84.9,0,0,0,7.3,12.58s2-7.31,2.84-5.69,1.22,10.56,2,12.59,1.62-2,4.06,0,4.06,13.79,4.06,15,3.24,13,3.24,13,5.38-8.4,6.34-8.46,15.78,3.71,15.78,3.71-.2-21.63-9.13-37.46-14.2-30.44-24.75-31.65S597.29,136.49,597.29,136.49Z"/>
    <path class="cls-5" d="M388.23,170.26s-.05-25.17,6.58-37.19,23.89-41,67.53-51.5,68.85-13.8,106.69-.08,55.65,12.67,65,31.83,10.78,58.91,8.39,61.84-15-2.32-25.5-5.2-13.4-3.59-18.27.64-11.57,1.22-13.31-.75-17.23,5.88-17.6,7.11-9.54-11.85-19.93-11.89-23,5.68-27.42,11.12-18.26-12.36-25-13.75-39.4,13.16-39.4,13.16,7.87-12.46-.48-13.8-48.43,14.7-49.35,12.7S409.05,160.19,388.23,170.26Z"/>
    <path class="cls-13" d="M401.34,146.69c.32-5.9-4.06-19.88,21.91-34.49s24.76-17,52.36-22.32,40.58-17.46,67-8.53a317.85,317.85,0,0,1,53.57,23.54c12.18,6.5,25.16,18.67,25.57,19.89s-15.83-13-42.61-14.61-29.63-7.31-48.3-1.63-35.31-9.74-53.17-.4-31.42,9.66-41.89,15.38-16.95,11-22.63,18.71S400.93,154,401.34,146.69Z"/>
    <path class="cls-4" d="M503.94,250.91s-13.53-4.69-8.06,7.44c0,0,4.29,5.08,6.64,4.69"/>
  </g>
</svg>
