<?xml version="1.0" encoding="UTF-8"?>
<svg id="gun" xmlns="http://www.w3.org/2000/svg" viewBox="0 0 1000 1000">
  <defs>
    <style>
      .cls-1 {
        fill: #fff;
      }

      .cls-2 {
        fill: red;
        letter-spacing: 0em;
      }

      .cls-3 {
        fill: #8e8986;
      }

      .cls-4 {
        font-family: FreeSansBold, FreeSans;
        font-size: 150px;
      }

      .cls-5 {
        fill: #333;
      }

      .cls-6 {
        fill: #635f60;
      }

      .cls-7 {
        fill: #645e5e;
      }

      .cls-8 {
        fill: #898a85;
      }

      .cls-9 {
        fill: #504a4c;
      }
    </style>
  </defs>
  <text class="cls-4" transform="translate(56.38 802.26)"><tspan x="0" y="0">g + un = g</tspan><tspan class="cls-2" x="708.6" y="0">un</tspan></text>
  <g>
    <g>
      <path class="cls-3" d="M226.31,93.32c-3.86-1.89-7.72-3.79-11.58-5.68-.34-.17-.71-.34-1.08-.26-.49,.1-.79,.58-1.02,1.02-2.56,4.74-4.62,9.73-6.68,14.71-3.38,8.18-6.77,16.36-10.15,24.54-.14,.33-.27,.71-.12,1.03,.14,.3,.48,.44,.79,.56,3.75,1.4,7.51,2.81,11.26,4.21"/>
      <path class="cls-5" d="M227.49,91.3l-9.54-4.68c-2.78-1.36-5.39-2.6-7.36,.6-3.5,5.68-5.72,12.38-8.26,18.52-2.74,6.62-5.47,13.23-8.21,19.85-.57,1.38-1.28,2.81-.48,4.28,.71,1.31,2.32,1.69,3.6,2.16,3.28,1.23,6.57,2.46,9.85,3.69,2.83,1.06,4.05-3.47,1.25-4.52-1.88-.7-3.75-1.4-5.63-2.11-.94-.35-1.88-.7-2.82-1.05-.67-.25-2.07-.48-2.57-1.01l.69,1.66c-.08-.86,.75-2.13,1.08-2.93,.45-1.08,.9-2.16,1.34-3.25,.9-2.16,1.79-4.33,2.69-6.49,1.83-4.43,3.66-8.86,5.5-13.29,1.7-4.11,3.45-8.21,5.51-12.16,.11-.22,.23-.43,.34-.65,.25-.39,.24-.43-.04-.12-.69-.09,.98,.79,1.15,.88l3.07,1.5c2.16,1.06,4.32,2.12,6.47,3.17,2.7,1.32,5.08-2.72,2.37-4.05h0Z"/>
    </g>
    <g>
      <path class="cls-9" d="M324.62,174.16l-10.48,20.9c32.54,13.54,65.08,27.09,97.62,40.63,13.33,5.55,27.88,12.25,33.63,25.5,9.58,22.06-10.94,47.32-5.44,70.73,3.02,12.86,13.55,22.76,25.08,29.2s24.37,10.18,36.37,15.71c10.63,4.9,20.55,11.18,30.44,17.45,5.54,3.51,11.22,7.14,15.17,12.38,8.86,11.75,6.89,28.1,4.71,42.66-7.06,47.21-11.97,94.75-14.71,142.4-.12,2.08-.17,4.37,1.13,6,1.18,1.47,3.16,1.99,5.01,2.4,10.42,2.31,21.01,3.88,31.65,4.71,3.26,.25,6.69,.4,9.61-1.06,3.14-1.58,5.13-4.76,6.74-7.89,10.19-19.94,10.8-43.2,11.75-65.57,3.29-77.56,13.17-154.83,29.49-230.72"/>
      <path class="cls-5" d="M322.6,172.98c-3.49,6.97-6.98,13.93-10.48,20.9-.74,1.48-.05,2.84,1.4,3.44,30.56,12.72,61.11,25.44,91.67,38.15,11.47,4.77,24.24,9.29,32.84,18.69,8.59,9.39,8.54,21.66,5.89,33.4s-7.43,23.83-7.27,36.28c.16,12.8,6.75,23.87,16.43,31.92,10.9,9.06,24.3,13.78,37.3,18.94,14.31,5.67,27.31,13.38,40.27,21.6,5.92,3.75,12.08,7.66,15.84,13.76,3.43,5.57,4.59,12.12,4.72,18.58,.13,6.61-.73,13.19-1.7,19.71-1.2,8.05-2.35,16.1-3.43,24.17-4.37,32.53-7.72,65.19-10.05,97.93-.28,3.97-.55,7.94-.8,11.91s-.78,7.76-.61,11.58c.14,3.11,1.41,5.86,4.3,7.27,3.2,1.56,7.15,1.95,10.62,2.6,7.8,1.47,15.67,2.55,23.58,3.22,3.41,.29,6.98,.64,10.31-.38,3.09-.95,5.49-3.01,7.36-5.6,4.02-5.55,6.46-12.66,8.37-19.17s3.22-13.84,4.07-20.89c1.8-14.91,1.91-29.99,2.7-44.97,1.71-32.32,4.56-64.58,8.55-96.7,4-32.19,9.15-64.24,15.43-96.06,1.52-7.7,3.1-15.38,4.75-23.05,.63-2.94-3.89-4.2-4.52-1.25-6.71,31.24-12.35,62.7-16.87,94.32-4.51,31.56-7.96,63.26-10.28,95.05-1.16,15.86-1.98,31.74-2.66,47.64-.62,14.38-1.38,28.91-5.18,42.87-1.79,6.57-4.1,13.67-8.02,19.31-1.98,2.86-4.59,4.35-8.09,4.48-3.77,.14-7.62-.41-11.36-.82-8.02-.88-16.03-2.16-23.9-3.96-1.34-.31-3.15-.57-3.96-1.83s-.53-2.96-.46-4.31c.21-4.11,.49-8.23,.76-12.34,2.11-32.32,5.22-64.58,9.33-96.72,1.04-8.11,2.14-16.21,3.3-24.29,1.01-7.01,2.22-14.02,2.83-21.08,1.1-12.82-.36-26.39-10.03-35.82-5.04-4.92-11.31-8.48-17.24-12.21-6.53-4.1-13.13-8.13-19.99-11.66-13.2-6.8-27.65-10.75-40.74-17.77-10.78-5.78-21.26-14.54-24.87-26.67-3.54-11.89,.45-24.35,3.57-35.87s6.18-23.6,2.06-34.99-14.31-18.77-24.89-23.97c-6.06-2.98-12.37-5.45-18.6-8.05-7.54-3.14-15.08-6.28-22.62-9.41-15.08-6.28-30.16-12.55-45.24-18.83-7.41-3.08-14.82-6.17-22.22-9.25l1.4,3.44c3.49-6.97,6.98-13.93,10.48-20.9,1.35-2.69-2.69-5.07-4.05-2.37h0Z"/>
    </g>
    <g>
      <path class="cls-3" d="M224.14,93.15c-5.67-2.57-11.35-5.14-17.02-7.71,8.53-13.49,15.02-28.28,19.18-43.69,.16-.58,.34-1.21,.83-1.57,.76-.56,1.83-.17,2.68,.23,5.29,2.51,10.52,5.15,15.68,7.92"/>
      <path class="cls-5" d="M225.32,91.12c-5.67-2.57-11.35-5.14-17.02-7.71l.84,3.21c5.93-9.42,10.88-19.42,14.78-29.84,.95-2.53,1.83-5.08,2.65-7.65,.43-1.34,.84-2.69,1.23-4.04,.2-.68,.38-1.36,.57-2.03,.08-.3,.16-.6,.25-.9,.17-.4,0-.36-.53,.11,.14,.2,1.7,.74,1.91,.84,.69,.33,1.38,.66,2.06,1,1.37,.67,2.74,1.35,4.11,2.04,2.73,1.38,5.44,2.79,8.13,4.23s5.03-2.62,2.37-4.05c-3.03-1.62-6.08-3.21-9.16-4.75-1.48-.74-2.97-1.47-4.46-2.19-1.35-.65-2.78-1.53-4.28-1.74-2.94-.41-4.23,1.67-4.92,4.16-.82,2.94-1.7,5.86-2.68,8.76-4,11.84-9.43,23.13-16.08,33.7-.62,.99-.29,2.7,.84,3.21,5.67,2.57,11.35,5.14,17.02,7.71,2.73,1.24,5.11-2.8,2.37-4.05h0Z"/>
    </g>
    <g>
      <path class="cls-6" d="M246.78,45.81c6.67-3.89,13.46-7.56,20.37-11.01,.94-.47,1.93-.95,2.98-.98,1.01-.03,1.98,.34,2.91,.74,3.91,1.67,7.59,3.82,11.35,5.81,9.77,5.16,20.1,9.26,30.76,12.19,2.36,.65,5.28,1.93,5.16,4.38-.03,.57-.24,1.11-.45,1.65-2.37,6.08-4.75,12.15-7.12,18.23-17.64-7.5-35.46-14.59-53.42-21.28"/>
      <path class="cls-5" d="M247.96,47.83c5.92-3.45,11.93-6.73,18.03-9.84,1.18-.6,2.79-1.79,4.13-1.84,1.42-.06,3.08,1.01,4.31,1.6,2.87,1.39,5.65,2.97,8.46,4.46,5.8,3.08,11.8,5.79,17.93,8.12,3.03,1.15,6.1,2.21,9.2,3.16,1.49,.46,3,.87,4.5,1.31,.98,.29,2.32,.59,3.04,1.37,.86,.92-.26,2.51-.65,3.53-.68,1.75-1.37,3.51-2.05,5.26-1.46,3.74-2.92,7.48-4.38,11.22l3.44-1.4c-17.83-7.57-35.83-14.75-53.98-21.52-2.83-1.05-4.05,3.47-1.25,4.52,17.77,6.62,35.4,13.63,52.86,21.04,1.49,.63,2.84,.14,3.44-1.4,1.42-3.62,2.83-7.25,4.25-10.87,.68-1.75,1.37-3.51,2.05-5.26,.61-1.55,1.42-3.14,1.34-4.85-.14-2.79-2.56-4.54-4.92-5.5-3.17-1.29-6.62-1.99-9.87-3.08-7.1-2.38-14.01-5.29-20.67-8.71-3.27-1.68-6.45-3.52-9.74-5.15-2.83-1.4-5.93-3.18-9.17-2.24-1.84,.54-3.61,1.64-5.31,2.51-1.88,.96-3.76,1.94-5.63,2.94-3.95,2.11-7.87,4.3-11.74,6.56-2.61,1.52-.25,5.57,2.37,4.05h0Z"/>
    </g>
    <g>
      <path class="cls-6" d="M670.46,231.59c2.17-4.51,4.43-8.97,6.78-13.39,.38-.72,.8-1.48,1.52-1.86,1.11-.59,2.47-.08,3.62,.44,19.45,8.75,38.9,17.5,58.34,26.24,.36,.16,.75,.35,.95,.69,.22,.38,.16,.85,.09,1.29-.49,3.05-.98,6.11-1.47,9.16"/>
      <path class="cls-5" d="M672.49,232.78c1.63-3.38,3.31-6.74,5.04-10.07,.46-.89,.92-1.78,1.39-2.66,.2-.37,.57-1.46,1.03-1.62,.89-.33,4.01,1.62,4.82,1.98,7.12,3.2,14.23,6.4,21.35,9.6,7.12,3.2,14.23,6.4,21.35,9.6,3.56,1.6,7.12,3.2,10.67,4.8,.16,.07,1.92,1.16,1.36,.15,.25,.44-.38,2.35-.46,2.87-.33,2.04-.65,4.07-.98,6.11-.47,2.95,4.04,4.22,4.52,1.25,.53-3.31,1.54-6.87,1.61-10.23,.07-3.34-3.71-4.21-6.17-5.32-6.52-2.93-13.04-5.87-19.57-8.8-6.52-2.93-13.04-5.87-19.57-8.8-3.2-1.44-6.4-2.88-9.61-4.32-1.54-.69-3.08-1.39-4.62-2.08s-3.03-1.5-4.69-1.5c-3.47-.02-4.77,3.34-6.12,5.94-1.85,3.55-3.64,7.13-5.38,10.73-1.31,2.7,2.73,5.09,4.05,2.37h0Z"/>
    </g>
    <g>
      <path class="cls-6" d="M756.34,264.25c2.54,3.06,5.08,6.13,7.62,9.19,3.31,3.99,6.76,8.1,11.44,10.34,6.14,2.94,13.47,2.2,19.83,4.64,4.31,1.66,8.04,4.8,10.4,8.77-22.99,2.28-45.39,10.19-64.71,22.85"/>
      <path class="cls-5" d="M754.69,265.91c3.5,4.23,6.9,8.58,10.57,12.66,3.41,3.8,7.33,6.99,12.26,8.53s10.01,1.51,14.89,2.86,8.63,4.25,11.19,8.4l2.02-3.53c-23.45,2.39-46.13,10.29-65.89,23.18-2.52,1.64-.17,5.7,2.37,4.05,19.04-12.41,40.91-20.23,63.53-22.53,1.68-.17,3.04-1.89,2.02-3.53-2.55-4.13-6.22-7.45-10.69-9.38-4.78-2.07-9.98-2.23-15.02-3.24-5.34-1.07-9.28-3.66-12.93-7.64-3.86-4.21-7.37-8.76-11.01-13.15-1.93-2.33-5.23,1.01-3.32,3.32h0Z"/>
    </g>
    <g>
      <path class="cls-7" d="M458.17,198.61c71.44,31.4,142.87,62.8,214.31,94.2,15.99,7.03,32.1,14.1,49.11,18.09,8.01,1.88,16.71,3.33,22.58,9.1,1.02,1,1.96,2.17,2.26,3.57,.49,2.27-.76,4.49-1.62,6.64-3.14,7.87-1.04,17.13,3.74,24.13,4.77,7,11.9,12.06,19.27,16.23,6.01,3.4,12.39,6.38,17.42,11.11,5.03,4.73,8.58,11.76,7.05,18.49-.55,2.4-1.9,4.82-4.19,5.74-2.88,1.16-6.06-.4-8.85-1.77-14.54-7.17-31.56-10.3-47.2-6.02-15.64,4.28-29.41,16.8-32.7,32.68-1.8,8.67-.5,17.63-.13,26.48,1.3,30.92-8.75,61.44-7.92,92.38,.79,29.45,11.26,60.06,.59,87.53-.57,1.46-1.25,2.97-2.55,3.85-1.58,1.07-3.65,.92-5.54,.73-45.34-4.72-89.87-17.02-131.2-36.25l.58-5.11c.45-9.38,.91-18.78,2.24-28.07,.89-6.26,2.18-12.46,3.11-18.72,1.32-8.87,1.91-17.84,2.5-26.79,1.22-18.54,2.45-37.08,3.67-55.61,.35-5.33,.7-10.67,1.48-15.96,.73-4.95,1.84-9.85,2.4-14.83,1.57-13.85-1.09-27.8-3.74-41.49h0c-.86-1.71-2.28-3.06-4.01-3.88-9.59-4.52-18.03-13.29-17.2-23.67,.52-6.46,4.68-12.27,10.06-15.88,4.36-2.93,9.79-4.88,12.39-9.45,2.54-4.47,1.54-10.03,.46-15.06-1.47-6.88-2.94-13.76-4.42-20.64-.64-2.98-1.33-6.08-3.25-8.45-1.92-2.37-4.81-3.69-7.59-4.92-27.13-12.08-54.25-24.15-81.38-36.23-3.12-1.39-6.37-2.87-8.54-5.51-1.77-2.14-2.66-4.85-3.74-7.41-2.77-6.55-7.02-12.48-12.39-17.14-9.94-8.61-23.02-12.43-35.52-16.5-31.33-10.2-61.6-23.36-91.82-36.49,5.72-11.27,11.43-22.55,17.15-33.82"/>
      <path class="cls-5" d="M456.98,200.63c57.82,25.41,115.63,50.83,173.45,76.24,14.19,6.24,28.38,12.48,42.58,18.72,13.6,5.97,27.29,11.92,41.62,15.94,6.34,1.78,12.95,2.75,19.16,4.98,2.71,.97,5.37,2.27,7.59,4.12,1.14,.95,2.65,2.2,2.81,3.79,.17,1.76-1.02,3.58-1.64,5.17-4.76,12.24,1.69,25.5,10.82,33.73,4.89,4.41,10.54,7.81,16.3,10.96s12.11,6.37,16.35,11.69c3.24,4.06,6.73,12.12,2.56,16.78-2.61,2.92-6.98-.09-9.71-1.36-3.08-1.44-6.24-2.72-9.47-3.78-12.79-4.22-27.08-5.29-40.02-1.11-10.57,3.42-20.05,10.28-26.25,19.53-3.22,4.81-5.45,10.31-6.37,16.03-1.19,7.44-.46,14.92-.02,22.39,.86,14.83-.84,29.56-2.95,44.22-2.12,14.75-4.56,29.52-4.85,44.45-.28,14.41,2.03,28.64,3.73,42.91,1.7,14.19,2.92,28.89-.61,42.91-.74,2.93-1.49,6.29-3.03,8.93-1.76,3.02-6.97,1.39-9.79,1.06-7.39-.85-14.75-1.92-22.08-3.18-28.64-4.94-56.75-12.91-83.72-23.73-6.63-2.66-13.17-5.51-19.65-8.51l1.16,2.02c.84-7.34,.99-14.72,1.6-22.09,.88-10.69,3.17-21.11,4.6-31.72s1.98-21.21,2.69-31.84,1.46-22.18,2.2-33.27c.72-10.84,.96-21.85,2.71-32.58,.82-5.01,1.87-9.98,2.34-15.05,.49-5.31,.38-10.66-.09-15.97-.48-5.39-1.3-10.74-2.26-16.06-.75-4.22-.78-9.12-4.17-12.17-1.44-1.29-3.19-1.99-4.86-2.92-1.89-1.05-3.71-2.25-5.37-3.64-3.15-2.65-5.96-5.93-7.39-9.84-3.05-8.3,1.47-16.69,8.54-21.24,3.39-2.18,7.17-3.83,10.1-6.67s4.38-6.8,4.44-10.92c.07-4.67-1.25-9.34-2.22-13.87-1.1-5.16-2.2-10.32-3.31-15.48-.92-4.3-2.06-8.6-5.56-11.55-3.62-3.05-8.52-4.62-12.79-6.52-20.04-8.92-40.09-17.85-60.13-26.77-4.97-2.21-9.95-4.42-14.92-6.64-1.92-.86-3.89-1.71-5.63-2.92-2.27-1.59-3.57-3.76-4.63-6.27-3.53-8.34-8.06-15.78-15.21-21.55s-15.41-9.31-23.91-12.29c-9.51-3.33-19.14-6.27-28.62-9.69-20.12-7.27-39.86-15.55-59.49-24.03-4.85-2.09-9.69-4.2-14.53-6.3l.84,3.21c5.72-11.27,11.43-22.55,17.15-33.82,1.36-2.69-2.68-5.06-4.05-2.37-5.72,11.27-11.43,22.55-17.15,33.82-.52,1.03-.38,2.68,.84,3.21,19.26,8.37,38.52,16.75,58.09,24.38,9.83,3.84,19.74,7.48,29.74,10.84,8.87,2.98,17.99,5.47,26.47,9.49s15.71,9.5,20.77,17.34c2.43,3.76,3.79,7.9,5.8,11.86s5.6,6.59,9.7,8.49c19.47,9.05,39.25,17.48,58.86,26.21,4.97,2.21,9.95,4.43,14.92,6.64,4.47,1.99,9.33,3.66,13.49,6.27,4.39,2.75,4.93,7.89,5.93,12.55,1.1,5.16,2.21,10.32,3.31,15.48,.95,4.43,2.46,9.49,.99,13.97-1.34,4.1-5.36,6.17-8.85,8.17-6.86,3.95-12.97,9.72-14.37,17.87s2.19,15.36,7.81,20.76c3.06,2.93,6.55,5.09,10.28,7.04,1.75,.92,2.85,2,3.21,3.91,.51,2.72,1.04,5.43,1.52,8.15,1.86,10.6,3.13,21.47,1.75,32.21-.66,5.13-1.81,10.17-2.48,15.3s-1.01,10.36-1.35,15.55c-1.43,21.72-2.64,43.47-4.35,65.17-.84,10.63-2.68,21-4.35,31.52-1.67,10.48-1.87,20.97-2.75,31.51-.14,1.71-.39,3.41-.58,5.11-.08,.74,.49,1.71,1.16,2.02,27.11,12.58,55.51,22.29,84.69,28.8,14.54,3.25,29.25,5.7,44.04,7.37,2.76,.31,5.81,.97,8.55,.18,2.95-.86,4.39-3.4,5.45-6.08,2.57-6.51,3.91-13.47,4.5-20.42,1.26-14.75-1.07-29.52-2.91-44.12-1.9-15.1-2.69-29.93-1.2-45.11,1.5-15.28,4.39-30.38,6-45.65,.78-7.44,1.26-14.93,1.11-22.42-.15-7.58-1.22-15.15-.78-22.74,.73-12.62,7.66-23.62,18.07-30.63,11.2-7.54,25.04-9.57,38.22-7.36,6.97,1.17,13.76,3.38,20.13,6.42,2.9,1.38,5.9,3.06,9.22,2.85,3.02-.19,5.5-2.11,6.89-4.73,2.77-5.21,1.66-11.65-.95-16.66-3-5.76-8.16-9.89-13.61-13.2-11.52-7-25.21-12.56-30.97-25.77-2.79-6.4-2.66-12.69-.1-19.07,1.19-2.97,1.64-5.93-.16-8.75-1.65-2.59-4.47-4.6-7.11-6.07-5.41-3-11.55-4.19-17.51-5.57-7.24-1.68-14.33-3.88-21.31-6.43-14.76-5.39-29.05-12.06-43.43-18.38-59.03-25.94-118.05-51.89-177.08-77.83-7.26-3.19-14.53-6.39-21.79-9.58-2.74-1.2-5.13,2.84-2.37,4.05h0Z"/>
    </g>
    <g>
      <path class="cls-7" d="M223.82,90.78c-6.98,15.57-13.97,31.14-20.95,46.71,10.65,3.31,21.06,7.35,31.16,12.08,4.55,2.13,9.03,4.4,13.56,6.56,10.55,5.04,21.36,9.51,32.38,13.4,3.64,1.28,7.3,2.5,10.9,3.89,9.64,3.71,18.83,8.62,27.28,14.57,4.87-8.89,9.74-17.78,14.61-26.67,.73-1.33,1.48-2.75,1.36-4.26-.11-1.38-.92-2.6-1.73-3.73-10.02-14.07-22.59-26.65-37.94-34.56-5.52-2.84-11.34-5.06-17.04-7.54-14.57-6.35-28.45-14.52-43.76-18.81"/>
      <path class="cls-5" d="M221.79,89.6c-6.98,15.57-13.97,31.14-20.95,46.71-.63,1.4-.16,2.95,1.4,3.44,7.96,2.49,15.82,5.35,23.48,8.65s15.13,7.16,22.7,10.72c7.39,3.47,14.9,6.67,22.52,9.59s15.18,5.19,22.57,8.29c8.26,3.47,16.11,7.88,23.45,13.02,1.02,.71,2.64,.2,3.21-.84,2.87-5.24,5.74-10.49,8.61-15.73,1.37-2.51,2.75-5.01,4.12-7.52,1.26-2.3,2.95-4.68,3.42-7.29,.83-4.6-3.56-8.84-6.16-12.17-3.07-3.92-6.34-7.69-9.84-11.23-6.8-6.87-14.49-12.96-22.98-17.59-4.68-2.55-9.6-4.58-14.51-6.64-5.15-2.16-10.21-4.48-15.24-6.89-10.86-5.22-21.69-10.64-33.33-13.95-2.91-.83-4.15,3.7-1.25,4.52,9.87,2.81,19.14,7.17,28.35,11.62,4.49,2.17,8.98,4.35,13.55,6.38s9.6,3.99,14.32,6.16c16.75,7.7,31.24,20.86,41.46,36.16,.74,1.1,1.28,1.97,.89,3.33s-1.33,2.66-1.99,3.86c-1.5,2.74-3,5.47-4.49,8.21-3,5.47-5.99,10.94-8.99,16.41l3.21-.84c-6.55-4.58-13.49-8.57-20.78-11.85s-14.99-5.71-22.53-8.49-15.6-6.11-23.21-9.62-15.25-7.5-23.03-10.92c-8.58-3.77-17.36-7.06-26.31-9.86l1.4,3.44c6.98-15.57,13.97-31.14,20.95-46.71,1.22-2.73-2.81-5.12-4.05-2.37h0Z"/>
    </g>
    <g>
      <path class="cls-9" d="M689.73,630.07c-.5-61.59,.83-123.19,4-184.7,.53-10.23,1.19-20.78,5.76-29.94,7.66-15.35,25.36-23.86,42.51-24.38,17.15-.52,33.81,5.75,49.04,13.63-4.24,3.66-10.68,1.97-16.06,.42-10.41-2.99-21.35-4.69-32.1-3.3-10.74,1.39-21.3,6.1-28.38,14.29-11.64,13.46-11.94,33.01-11.63,50.8,.5,29.2,1,58.4,1.5,87.6,.45,26.25,.9,52.58-1.98,78.67"/>
      <path class="cls-5" d="M692.07,630.07c-.36-44.44,.23-88.88,1.78-133.29,.38-10.91,.82-21.81,1.32-32.72,.48-10.53,.54-21.23,1.93-31.69,1.19-8.96,4.08-17.59,10.34-24.29,5.52-5.91,12.75-10.01,20.44-12.35,21.12-6.42,43.16,1.28,61.98,10.96l-.47-3.68c-3.18,2.56-7.94,1.39-11.5,.45-4.83-1.27-9.6-2.62-14.54-3.42-9.64-1.55-19.62-1.61-29.05,1.16-8.32,2.44-16.23,6.99-21.84,13.69-5.4,6.45-8.58,14.35-10.18,22.56-1.66,8.48-1.88,17.16-1.8,25.78,.1,10.52,.35,21.05,.53,31.57,.37,21.7,.76,43.4,1.11,65.1,.4,24.43,.58,48.93-2.07,73.26-.33,3,4.37,2.97,4.69,0,2.31-21.25,2.47-42.64,2.2-63.99-.27-21.43-.71-42.86-1.08-64.29-.18-10.72-.37-21.45-.55-32.17-.15-8.92-.44-17.88,.44-26.77,.8-8.1,2.68-16.31,6.92-23.35,4.52-7.49,11.7-12.92,19.88-15.89,10.16-3.69,21.19-3.71,31.73-1.75,5.17,.96,10.14,2.73,15.29,3.72,4.69,.9,9.27,.76,13.12-2.34,1.15-.93,.77-3.04-.47-3.68-17.81-9.17-37.97-16.48-58.28-13.14-16.88,2.78-32.61,13.16-38.58,29.66-3.46,9.58-3.67,20.03-4.18,30.09-.57,11.42-1.09,22.84-1.53,34.27-.91,23.11-1.55,46.23-1.94,69.36-.43,25.72-.54,51.45-.33,77.18,.02,3.02,4.71,3.02,4.69,0h0Z"/>
    </g>
    <g>
      <path class="cls-9" d="M562.3,606.41c-.73-24.15,7.49-47.68,9.25-71.78,.95-13.05,0-26.2,1.26-39.23,1.13-11.69,4.02-23.13,6.15-34.68,2.98-16.15,4.46-32.53,5.93-48.88,2.88-31.91,5.77-63.83,8.65-95.74,.18-1.99,.39-4.07,1.51-5.72,1.61-2.37,4.65-3.24,7.47-3.8,26.83-5.34,55.98,2.62,76.39,20.85,2.77,2.48,5.46,5.25,6.73,8.74,1.09,3.01,1.02,6.3,.95,9.5-2.09,84.88-4.18,169.76-6.28,254.65-.05,1.9-.11,3.87-.96,5.56-.82,1.63-2.29,2.83-3.71,3.98-8.3,6.7-16.59,13.39-24.89,20.09"/>
      <path class="cls-5" d="M564.65,606.41c-.6-22.82,6.52-44.82,8.86-67.36,1.21-11.71,.66-23.47,1.11-35.21,.45-11.67,2.7-22.99,5.03-34.4,4.71-23.09,6.61-46.52,8.72-69.96,2.14-23.68,4.28-47.36,6.42-71.03,.27-2.96,.53-5.92,.8-8.88,.21-2.34,.03-5.37,1.2-7.5,1.08-1.97,3.49-2.59,5.53-3.05,2.3-.52,4.64-.88,6.98-1.15,9.46-1.09,19.09-.62,28.4,1.38,9.33,2.01,18.31,5.48,26.53,10.33,4.11,2.43,8.02,5.18,11.64,8.28s7.42,6.56,8.21,11.57c.42,2.69,.2,5.48,.14,8.19-.07,2.99-.15,5.99-.22,8.98-.15,5.99-.3,11.98-.44,17.97-.3,11.98-.59,23.95-.89,35.93-.59,23.95-1.18,47.91-1.77,71.86-.59,23.95-1.18,47.91-1.77,71.86-.3,11.98-.59,23.95-.89,35.93-.07,2.99-.15,5.99-.22,8.98-.06,2.52,.07,5.05-1.72,7.03s-4.17,3.54-6.24,5.21c-2.33,1.88-4.65,3.76-6.98,5.63-4.65,3.76-9.31,7.51-13.96,11.27-2.35,1.9,.99,5.19,3.32,3.32,4.86-3.92,9.71-7.84,14.57-11.76,2.43-1.96,4.86-3.92,7.28-5.88,2.09-1.69,4.44-3.27,6.11-5.4,1.47-1.87,2.01-4.01,2.21-6.34,.26-3.22,.19-6.49,.27-9.72,.15-5.99,.3-11.98,.44-17.97,.61-24.74,1.22-49.47,1.83-74.21,1.22-49.47,2.44-98.94,3.66-148.41,.14-5.51,.98-11.7-1.1-16.95-1.84-4.64-5.7-8.11-9.46-11.23-7.51-6.22-15.96-11.13-25.03-14.7-9.25-3.64-19.11-5.76-29.03-6.3-4.75-.26-9.53-.14-14.26,.37s-10.05,.84-13.99,3.33c-4.73,2.99-4.6,8.53-5.05,13.52-.53,5.92-1.07,11.84-1.6,17.76-1.12,12.35-2.23,24.71-3.35,37.06-2.2,24.38-3.76,48.93-7.22,73.17-1.68,11.75-4.4,23.28-6.46,34.96s-2.43,24.1-2.52,36.33-1.08,23.57-3.14,35.31-4.55,23.19-5.84,34.94c-.62,5.62-.92,11.27-.77,16.92,.08,3.01,4.77,3.02,4.69,0h0Z"/>
    </g>
    <g>
      <path class="cls-5" d="M508.32,228.09c-4.76,10.79-9.07,21.76-12.9,32.91-.25,.73,0,1.78,.6,2.28,3.34,2.83,7.45,3.7,11.43,5.27s7.96,3.92,11.75,6.18c7.97,4.76,16.12,8.91,24.71,12.44s17.57,6.58,26.44,9.62c4.66,1.6,9.33,3.2,13.99,4.8,1.89,.65,4.09,1.83,6.14,1.75,2.23-.08,3.39-1.88,4.54-3.53,5.74-8.22,10.05-17.4,12.88-27.02,.85-2.9-3.67-4.14-4.52-1.25-2.33,7.93-5.71,15.48-10.13,22.47-.49,.77-.99,1.54-1.5,2.29-.29,.43-1.11,2.06-1.63,2.26-.46,.18-2.22-.71-2.73-.89-1.2-.41-2.39-.82-3.59-1.23-4.31-1.48-8.61-2.95-12.92-4.43-16.24-5.57-32.4-11.26-47.21-20.09-3.98-2.37-7.94-4.82-12.17-6.73-3.88-1.75-8.85-2.45-12.15-5.24l.6,2.28c3.7-10.77,7.83-21.37,12.43-31.79,1.21-2.74-2.83-5.12-4.05-2.37h0Z"/>
      <g>
        <path class="cls-8" d="M559.3,250.68c-1.62,8.82-8.96,15.64-11.19,24.33-.07,.27-.14,.56-.08,.84,.14,.73,.97,1.07,1.68,1.28,13.42,4.07,26.42,9.54,38.71,16.29,3.99-7.72,7.83-15.52,11.52-23.39"/>
        <path class="cls-5" d="M557.04,250.05c-1.15,5.77-4.59,10.53-7.42,15.56-1.36,2.43-2.61,4.96-3.44,7.62-.89,2.85-.31,5,2.69,6.08,6.46,2.31,12.98,4.29,19.33,6.93,6.51,2.72,12.86,5.81,19.04,9.2,1.07,.58,2.61,.31,3.21-.84,3.99-7.72,7.83-15.52,11.52-23.39,1.27-2.72-2.77-5.1-4.05-2.37-3.69,7.87-7.53,15.67-11.52,23.39l3.21-.84c-11.21-6.13-22.98-11.25-35.12-15.22-.69-.23-1.38-.45-2.07-.67-.39-.12-1.87-.83-2.23-.69-.41-.18-.35,.09,.19,.81,.1-.39,.21-.77,.33-1.15,.18-.57,.37-1.13,.59-1.68,.94-2.41,2.27-4.68,3.59-6.9,2.73-4.62,5.62-9.25,6.68-14.59,.59-2.95-3.93-4.21-4.52-1.25h0Z"/>
      </g>
      <path class="cls-5" d="M556.84,266.53c9.24,5.6,20.32,6.73,29.71,11.96,2.64,1.47,5.01-2.58,2.37-4.05-9.4-5.23-20.49-6.38-29.71-11.96-2.59-1.57-4.95,2.48-2.37,4.05h0Z"/>
      <path class="cls-5" d="M558.35,275.9c4.05,1.28,8.1,2.56,12.15,3.84,3.59,1.14,7.69,1.92,10.85,4.05,2.51,1.69,4.86-2.37,2.37-4.05-3.38-2.28-7.69-3.18-11.53-4.39-4.2-1.33-8.4-2.65-12.59-3.98-2.88-.91-4.12,3.61-1.25,4.52h0Z"/>
      <path class="cls-5" d="M512.81,253.31c11.9,6.37,24.23,11.92,36.89,16.62,2.83,1.05,4.05-3.48,1.25-4.52-12.28-4.56-24.22-9.96-35.77-16.14-2.66-1.42-5.03,2.62-2.37,4.05h0Z"/>
    </g>
    <g>
      <g>
        <path class="cls-7" d="M747.24,332.04c2.59-1.18,4.59-3.36,5.59-6.02,7.28-19.36,9.73-40.53,7.01-61.04-.39-2.96-.95-6.05-2.83-8.37-1.87-2.31-4.76-3.49-7.53-4.58C579.45,184.75,411.21,112.95,244.99,36.73l-.24-.1c-5.57,19.35-13.1,38.14-22.44,55.98,28.8,10.31,58.46,21.13,80.82,42,8.46,7.9,15.75,17.14,25.15,23.9,7.87,5.66,16.95,9.38,25.93,13.05,131.01,53.49,262.02,106.98,393.03,160.48h0Z"/>
        <path class="cls-5" d="M748.43,334.07c3.74-1.88,5.78-4.97,7.18-8.81,1.68-4.63,3.08-9.36,4.21-14.15,2.26-9.63,3.43-19.54,3.45-29.42,.01-5.09-.28-10.18-.89-15.23-.48-4.01-.99-8.29-3.7-11.49-2.68-3.16-6.79-4.49-10.52-5.96-4.9-1.94-9.81-3.89-14.71-5.84-40.03-15.92-79.96-32.09-119.78-48.51-39.8-16.41-79.5-33.07-119.09-49.97s-79.13-34.08-118.53-51.5c-39.24-17.34-78.37-34.93-117.39-52.76-4.23-1.93-8.43-3.98-12.71-5.81-1.38-.59-2.98-.19-3.44,1.4-5.56,19.17-12.98,37.72-22.2,55.42-.74,1.42-.06,2.92,1.4,3.44,15.82,5.66,31.69,11.38,46.7,18.99s28.56,17.43,40.4,29.71c5.89,6.11,11.74,12.32,18.7,17.24,7.31,5.17,15.6,8.7,23.85,12.09,18.15,7.45,36.32,14.83,54.48,22.25,36.82,15.03,73.63,30.06,110.45,45.1,36.82,15.03,73.63,30.06,110.45,45.1,36.65,14.96,73.3,29.93,109.95,44.89,2.32,.95,4.64,1.9,6.97,2.84,1.52,.62,3.16,1.73,4.79,.98,2.74-1.25,.36-5.29-2.37-4.05h0c.6-.08,1.2-.16,1.81-.24-36.48-14.9-72.97-29.79-109.45-44.69-36.48-14.9-72.97-29.79-109.45-44.69-36.48-14.9-72.97-29.79-109.45-44.69-18.24-7.45-36.48-14.9-54.73-22.34-8.8-3.59-17.8-6.92-26.24-11.34-7.79-4.08-14.37-9.46-20.54-15.69-6.1-6.16-11.9-12.58-18.6-18.11-6.12-5.05-12.7-9.54-19.57-13.51-14.37-8.32-29.87-14.51-45.43-20.22-3.81-1.4-7.64-2.77-11.46-4.14l1.4,3.44c9.41-18.05,17.01-36.99,22.68-56.54l-3.44,1.4c18.65,7.98,36.96,16.88,55.45,25.22,19.07,8.61,38.17,17.16,57.29,25.65,38.24,16.99,76.59,33.74,115.04,50.26,38.31,16.46,76.72,32.69,115.23,48.69,38.64,16.05,77.39,31.87,116.22,47.46,9.79,3.93,19.59,7.84,29.39,11.74,4.9,1.95,9.8,3.89,14.71,5.84,4.32,1.71,8.58,3.15,9.94,8.06,1.21,4.37,1.37,9.2,1.59,13.71,.24,4.92,.19,9.85-.15,14.77-.67,9.79-2.52,19.48-5.46,28.83-1.37,4.35-2.38,8.94-6.76,11.14-2.7,1.35-.33,5.4,2.37,4.05Z"/>
      </g>
      <g>
        <path class="cls-5" d="M612.02,276.64c8.44-16.2,15.58-33.05,23-49.73,1.22-2.73-2.82-5.12-4.05-2.37-7.42,16.68-14.56,33.54-23,49.73-1.39,2.67,2.65,5.05,4.05,2.37h0Z"/>
        <path class="cls-5" d="M621.4,279.77c8.44-16.2,15.58-33.05,23-49.73,1.22-2.73-2.82-5.12-4.05-2.37-7.42,16.68-14.56,33.54-23,49.73-1.39,2.67,2.65,5.05,4.05,2.37h0Z"/>
        <path class="cls-5" d="M630.77,284.46c8.44-16.2,15.58-33.05,23-49.73,1.22-2.73-2.82-5.12-4.05-2.37-7.42,16.68-14.56,33.54-23,49.73-1.39,2.67,2.65,5.05,4.05,2.37h0Z"/>
        <path class="cls-5" d="M640.15,287.58c8.44-16.2,15.58-33.05,23-49.73,1.22-2.73-2.82-5.12-4.05-2.37-7.42,16.68-14.56,33.54-23,49.73-1.39,2.67,2.65,5.05,4.05,2.37h0Z"/>
        <path class="cls-5" d="M647.96,290.71c8.44-16.2,15.58-33.05,23-49.73,1.22-2.73-2.82-5.12-4.05-2.37-7.42,16.68-14.56,33.54-23,49.73-1.39,2.67,2.65,5.05,4.05,2.37h0Z"/>
        <path class="cls-5" d="M657.34,295.39c8.44-16.2,15.58-33.05,23-49.73,1.22-2.73-2.82-5.12-4.05-2.37-7.42,16.68-14.56,33.54-23,49.73-1.39,2.67,2.65,5.05,4.05,2.37h0Z"/>
        <path class="cls-5" d="M666.72,298.52c8.44-16.2,15.58-33.05,23-49.73,1.22-2.73-2.82-5.12-4.05-2.37-7.42,16.68-14.56,33.54-23,49.73-1.39,2.67,2.65,5.05,4.05,2.37h0Z"/>
        <path class="cls-5" d="M674.53,301.65c8.44-16.2,15.58-33.05,23-49.73,1.22-2.73-2.82-5.12-4.05-2.37-7.42,16.68-14.56,33.54-23,49.73-1.39,2.67,2.65,5.05,4.05,2.37h0Z"/>
        <path class="cls-5" d="M683.91,306.33c8.44-16.2,15.58-33.05,23-49.73,1.22-2.73-2.82-5.12-4.05-2.37-7.42,16.68-14.56,33.54-23,49.73-1.39,2.67,2.65,5.05,4.05,2.37h0Z"/>
        <path class="cls-5" d="M691.72,309.46c8.44-16.2,15.58-33.05,23-49.73,1.22-2.73-2.82-5.12-4.05-2.37-7.42,16.68-14.56,33.54-23,49.73-1.39,2.67,2.65,5.05,4.05,2.37h0Z"/>
        <path class="cls-5" d="M701.1,312.59c8.44-16.2,15.58-33.05,23-49.73,1.22-2.73-2.82-5.12-4.05-2.37-7.42,16.68-14.56,33.54-23,49.73-1.39,2.67,2.65,5.05,4.05,2.37h0Z"/>
        <path class="cls-5" d="M235.79,66.3c25.49,10.74,50.98,21.49,76.47,32.23s51.22,21.59,76.83,32.38c25.37,10.69,50.74,21.38,76.1,32.08,25.53,10.76,51.07,21.52,76.6,32.29,25.65,10.81,51.31,21.63,76.96,32.44l9.39,3.96c1.18,.5,2.57-.53,2.88-1.64,.39-1.35-.48-2.39-1.64-2.88-25.53-10.76-51.07-21.52-76.6-32.29-25.65-10.81-51.31-21.63-76.96-32.44s-50.75-21.39-76.12-32.08l-76.47-32.23c-25.61-10.79-51.22-21.59-76.83-32.38l-9.38-3.95c-1.18-.5-2.57,.53-2.88,1.64-.39,1.35,.48,2.39,1.64,2.88h0Z"/>
        <path class="cls-5" d="M719.3,270.81c3.39,.86,6.71,1.99,9.87,3.5s5.89,3.25,9.07,4.46c6.96,2.66,14.08,4.94,21.11,7.4,2.85,1,4.08-3.53,1.25-4.52-7.03-2.46-14.16-4.73-21.11-7.4-3.2-1.23-6.08-3.17-9.21-4.57s-6.39-2.54-9.73-3.39c-2.93-.74-4.17,3.78-1.25,4.52h0Z"/>
      </g>
    </g>
    <g>
      <g>
        <path class="cls-1" d="M520.13,345.52c1.52-1.58,3.03-3.17,4.4-4.89,5.44-6.82,8.57-15.52,8.34-24.23-.23-8.72-3.9-17.36-10.28-23.31-.61-.56-1.24-1.1-1.88-1.63-5.32-2.12-10.92-3.62-16.51-4.91-8.75-2.02-17.81-3.6-26.69-2.28-8.89,1.32-17.69,5.96-22.03,13.83-2.2,3.99-3.15,8.55-3.54,13.09-.59,6.78,.12,13.99,3.92,19.65,2.44,3.63,5.97,6.37,9.53,8.9,7.16,5.08,14.73,9.6,22.61,13.48,1.63,.81,3.34,1.45,5.09,1.96l.49,.14c2.1,.62,4.23,1.15,6.39,1.51,1.78,.29,3.58,.53,5.37,.74,5.54-2.98,10.38-7.49,14.8-12.06Z"/>
        <path class="cls-5" d="M521.78,347.18c5.97-6.19,10.69-13.2,12.53-21.73,1.69-7.84,.88-15.89-2.39-23.21-1.56-3.48-3.73-6.72-6.36-9.49-1.24-1.3-2.62-2.75-4.24-3.54-2.2-1.08-4.73-1.74-7.07-2.45-8.95-2.7-18.45-4.91-27.83-5.27-15.94-.6-32.39,6.85-35.97,23.66-1.66,7.79-1.66,16.48,1.68,23.83s11.3,12.49,18.12,16.89c8.11,5.24,16.72,10.46,26.21,12.66,2.64,.61,5.39,1.08,8.09,1.3,2.31,.19,4.45-1.64,6.26-2.93,4-2.85,7.56-6.22,10.97-9.73,2.1-2.17-1.21-5.48-3.32-3.32-2.71,2.79-5.5,5.53-8.58,7.93-1.39,1.08-2.95,2.38-4.57,3.1-1.44,.65-3.87-.14-5.46-.44-7.79-1.43-14.54-5.01-21.31-8.99s-13.65-7.91-18.8-13.48-6.04-13-5.52-20.16,2.79-13.96,8.43-18.73c5.13-4.34,11.94-6.45,18.56-6.87,8.29-.53,16.53,1.16,24.55,3.1,4.13,1,8.23,2.14,12.22,3.59,2.97,1.08,5.26,3.96,7.01,6.53,4.47,6.54,6.35,14.64,5.21,22.49-1.26,8.67-5.76,15.72-11.74,21.92-2.09,2.17,1.22,5.49,3.32,3.32Z"/>
      </g>
      <g>
        <path class="cls-7" d="M522.89,358.17c4.81-.22,9.83-.85,13.78-3.59,5.87-4.07,7.94-11.69,9.2-18.73,1.06-5.91,1.85-12.01,.64-17.89-1.87-9.11-8.44-16.74-16.3-21.72-3.01-1.91-6.21-3.46-9.51-4.78,.64,.53,1.27,1.06,1.88,1.63,6.38,5.94,10.05,14.59,10.28,23.31,.23,8.72-2.9,17.41-8.34,24.23-1.37,1.71-2.87,3.31-4.4,4.89-4.43,4.57-9.26,9.08-14.8,12.06,5.83,.66,11.7,.87,17.56,.59Z"/>
        <path class="cls-5" d="M522.89,360.52c6.44-.33,13.15-1.43,17.82-6.31,4.13-4.32,5.96-10.28,7.11-16,1.4-7.01,2.45-14.38,.84-21.44-1.34-5.88-4.59-11.22-8.71-15.57-5.17-5.46-11.7-9.19-18.61-11.99-2.15-.87-4.03,2.46-2.28,3.92,9.69,8.04,13.59,20.84,10.29,32.98-1.75,6.44-5.29,11.89-9.85,16.7-4.59,4.84-9.45,9.51-15.34,12.75-2.22,1.22-.96,4.13,1.18,4.37,5.84,.64,11.69,.85,17.56,.59,3.01-.13,3.02-4.82,0-4.69-5.87,.25-11.72,.05-17.56-.59,.39,1.46,.79,2.91,1.18,4.37,5.09-2.8,9.51-6.63,13.6-10.72s7.88-8.27,10.53-13.37c4.99-9.6,6.12-21.11,2.12-31.28-2.22-5.66-5.73-10.54-10.4-14.42l-2.28,3.92c9.88,4,19.61,10.97,23.24,21.45,2.08,6.01,1.6,12.41,.56,18.58-.86,5.13-1.89,10.51-4.76,14.95-3.64,5.62-9.97,6.81-16.22,7.13-3,.15-3.02,4.84,0,4.69Z"/>
      </g>
    </g>
    <g>
      <path class="cls-7" d="M596.65,609.96c32.4,10.66,66.45,15.19,100.31,19.3,4.56,.55,9.76,1.5,12.11,5.44,1.55,2.6,1.4,5.83,1.2,8.85-.09,1.3-.19,2.67-.93,3.75-1.12,1.66-3.33,2.11-5.31,2.35-13.88,1.65-27.9-.79-41.64-3.35-19.34-3.6-38.66-7.46-57.63-12.7-22.39-6.18-44.25-14.29-65.25-24.2-5.38-2.54-11.34-6.07-12.82-11.61-1.37-5.17,1.92-10.66,7.1-11.99,3.73-.96,7.06,.65,10.19,2.29,14.61,7.66,28.82,17.23,45,20.03,1.31,.23,2.62,.48,3.91,.83l3.76,1.01Z"/>
      <path class="cls-5" d="M596.03,612.22c26.27,8.6,53.57,13.23,80.91,16.86,6.76,.9,13.53,1.67,20.29,2.56,2.4,.31,4.95,.7,7.11,1.84,2.56,1.35,3.6,3.63,3.69,6.47,.05,1.41,0,2.86-.16,4.26-.19,1.57-.75,2.36-2.28,2.79-3.11,.88-6.71,.8-9.91,.84-7.04,.09-14.06-.66-21-1.75-13.99-2.2-27.92-5.03-41.76-8.03-13.66-2.96-27.22-6.38-40.57-10.55-12.99-4.06-25.79-8.76-38.3-14.12-5.77-2.47-11.73-4.87-17.19-7.98-4.08-2.32-9.13-6.16-8-11.52,.48-2.27,2-4.25,4.07-5.3,2.89-1.45,5.95-.44,8.67,.91,5.69,2.83,11.16,6.11,16.75,9.13,5.45,2.95,10.99,5.74,16.78,7.98,2.92,1.13,5.9,2.11,8.94,2.87,2.73,.68,5.52,1.04,8.24,1.74,1.24,.32,2.47,.66,3.71,1,2.92,.78,4.16-3.74,1.25-4.52-4.49-1.21-9.09-1.93-13.57-3.16-6.54-1.8-12.74-4.6-18.75-7.71-6.07-3.14-11.97-6.58-17.99-9.81-5.59-2.99-11.92-5.84-17.74-1.62-4.64,3.37-6.44,9.51-4.15,14.8s7.56,8.47,12.49,10.86c13.06,6.35,26.63,11.79,40.33,16.59,28.6,10.02,58.24,16.28,88.01,21.67,7.59,1.37,15.24,2.6,22.96,3.04,3.79,.22,7.6,.24,11.39-.02,2.97-.2,6.56-.23,9.15-1.91,2.85-1.85,3.15-5.07,3.3-8.18s-.07-6.49-1.88-9.17c-3.23-4.79-9.31-5.61-14.59-6.25-29.67-3.62-59.45-7.58-88.25-15.83-3.59-1.03-7.15-2.13-10.7-3.29-2.87-.94-4.11,3.58-1.25,4.52Z"/>
    </g>
    <g>
      <circle class="cls-8" cx="640.29" cy="357.62" r="12.5"/>
      <path class="cls-5" d="M640.29,371.68c-7.76,0-14.07-6.31-14.07-14.07s6.31-14.07,14.07-14.07,14.07,6.31,14.07,14.07-6.31,14.07-14.07,14.07Zm0-25c-6.03,0-10.94,4.91-10.94,10.94s4.91,10.94,10.94,10.94,10.94-4.91,10.94-10.94-4.91-10.94-10.94-10.94Z"/>
    </g>
    <g>
      <circle class="cls-8" cx="624.66" cy="563.9" r="12.5"/>
      <path class="cls-5" d="M624.66,577.97c-7.76,0-14.07-6.31-14.07-14.07s6.31-14.07,14.07-14.07,14.07,6.31,14.07,14.07-6.31,14.07-14.07,14.07Zm0-25c-6.03,0-10.94,4.91-10.94,10.94s4.91,10.94,10.94,10.94,10.94-4.91,10.94-10.94-4.91-10.94-10.94-10.94Z"/>
    </g>
    <g>
      <circle class="cls-8" cx="568.4" cy="371.68" r="10.94"/>
      <path class="cls-5" d="M568.4,384.18c-6.89,0-12.5-5.61-12.5-12.5s5.61-12.5,12.5-12.5,12.5,5.61,12.5,12.5-5.61,12.5-12.5,12.5Zm0-21.88c-5.17,0-9.38,4.21-9.38,9.38s4.21,9.38,9.38,9.38,9.38-4.21,9.38-9.38-4.21-9.38-9.38-9.38Z"/>
    </g>
    <g>
      <circle class="cls-8" cx="726.24" cy="363.87" r="10.94"/>
      <path class="cls-5" d="M726.24,376.37c-6.89,0-12.5-5.61-12.5-12.5s5.61-12.5,12.5-12.5,12.5,5.61,12.5,12.5-5.61,12.5-12.5,12.5Zm0-21.88c-5.17,0-9.38,4.21-9.38,9.38s4.21,9.38,9.38,9.38,9.38-4.21,9.38-9.38-4.21-9.38-9.38-9.38Z"/>
    </g>
    <path class="cls-5" d="M717.43,359.45c.26,.24,.51,.5,.74,.77,.08,.1,.44,.52,.08,.08,.09,.12,.18,.24,.27,.36,.4,.56,.78,1.13,1.19,1.68,.97,1.32,2,2.38,3.31,3.37,1,.75,2.07,1.4,3.09,2.12,.11,.08,.22,.16,.33,.24,.07,.05,.13,.1,.19,.14-.24-.19-.29-.23-.16-.12,.22,.19,.45,.37,.67,.57,.23,.22,.46,.44,.67,.68l.1,.12c.16,.2,.14,.16-.07-.1,.1,.05,.21,.31,.27,.4,.67,1.03,2.11,1.55,3.21,.84,1.02-.66,1.56-2.11,.84-3.21-1.59-2.44-4.08-3.78-6.38-5.44-.13-.09-.28-.18-.39-.29l.22,.17c-.08-.07-.17-.14-.25-.2-.23-.19-.45-.39-.66-.59-.22-.22-.44-.45-.64-.69-.15-.18-.34-.38-.08-.08-.12-.13-.21-.29-.32-.43-.91-1.27-1.75-2.62-2.9-3.7-.9-.84-2.44-.95-3.32,0s-.96,2.42,0,3.32h0Z"/>
    <path class="cls-5" d="M632.54,367.49c3.21-2.24,6.43-4.48,9.64-6.73,2.82-1.97,5.63-4.04,7.42-7.05,.65-1.09,.24-2.57-.84-3.21s-2.56-.25-3.21,.84c-1.44,2.42-3.87,4.07-6.24,5.72-3.04,2.12-6.09,4.25-9.13,6.37-1.04,.72-1.52,2.05-.84,3.21,.6,1.03,2.16,1.57,3.21,.84h0Z"/>
    <path class="cls-5" d="M559.33,367.26s.51,.35,.34,.22c-.15-.12,.31,.27,.3,.27,.26,.24,.51,.49,.75,.75,.51,.55,.99,1.13,1.5,1.69,1.05,1.17,2.16,2.29,3.32,3.35,2.38,2.17,4.98,4.12,7.73,5.8,1.05,.64,2.62,.26,3.21-.84s.28-2.52-.84-3.21c-1.31-.8-2.58-1.66-3.81-2.58,0,0-.47-.36-.34-.26,.15,.12-.29-.23-.33-.27-.31-.25-.63-.51-.93-.77-.59-.49-1.16-1-1.72-1.53-1.12-1.05-2.19-2.15-3.2-3.3-1.11-1.26-2.17-2.48-3.6-3.39-1.03-.67-2.63-.25-3.21,.84-.62,1.16-.26,2.5,.84,3.21h0Z"/>
    <path class="cls-5" d="M615.22,558.75c2.21,2.65,4.43,5.29,6.64,7.94,2.05,2.45,4.05,4.84,5.57,7.69,.6,1.12,2.14,1.46,3.21,.84,1.13-.66,1.44-2.09,.84-3.21-1.64-3.06-3.89-5.74-6.11-8.4-2.28-2.73-4.56-5.45-6.84-8.18-.81-.97-2.48-.84-3.32,0-.96,.96-.81,2.34,0,3.32h0Z"/>
  </g>
</svg>