<?xml version="1.0" encoding="UTF-8"?>
<svg id="hug" xmlns="http://www.w3.org/2000/svg" viewBox="0 0 1000 1000">
  <defs>
    <style>
      .cls-1 {
        fill: #fff;
      }

      .cls-2, .cls-3 {
        letter-spacing: 0em;
      }

      .cls-2, .cls-4 {
        fill: red;
      }

      .cls-5 {
        font-family: FreeSansBold, FreeSans;
        font-size: 150px;
      }

      .cls-6 {
        fill: #fcc2be;
      }

      .cls-7, .cls-4 {
        letter-spacing: -.01em;
      }

      .cls-8 {
        fill: #103051;
      }

      .cls-9 {
        fill: #fcc0bf;
      }

      .cls-10 {
        fill: #ffe2b0;
      }

      .cls-11 {
        fill: #addddf;
      }

      .cls-12 {
        fill: #fbc1bd;
      }

      .cls-13 {
        letter-spacing: -.02em;
      }
    </style>
  </defs>
  <text class="cls-5" transform="translate(58.03 802.6)"><tspan x="0" y="0">h + </tspan><tspan class="cls-7" x="262.65" y="0">u</tspan><tspan class="cls-3" x="352.05" y="0">g = </tspan><tspan class="cls-13" x="614.7" y="0">h</tspan><tspan class="cls-4" x="703.35" y="0">u</tspan><tspan class="cls-2" x="792.75" y="0">g</tspan></text>
  <g>
    <ellipse class="cls-11" cx="525.05" cy="603.47" rx="236.76" ry="45.53"/>
    <g>
      <g>
        <path class="cls-10" d="M723.09,516.81c5.15-4.56,11.47-8.02,18.3-8.86s14.17,1.19,18.92,6.17c5.07,5.31,6.59,13.01,7.55,20.29,.93,7.02,1.39,14.75-2.62,20.59-1.27,1.85-2.94,3.4-4.77,4.71-5.84,4.16-13.45,5.74-20.46,4.26-7.01-1.49-13.32-6.02-16.97-12.19"/>
        <path class="cls-8" d="M724.15,517.87c6.32-5.54,14.58-9.5,23.16-8.44,3.93,.49,7.86,2.04,10.84,4.68s4.95,6.34,6.15,10.18,1.85,8.04,2.31,12.11,.72,8.4-.29,12.45c-2.13,8.54-10.9,13.51-19.25,14.08-9.17,.62-18-4.07-22.73-11.93-.99-1.65-3.59-.15-2.59,1.51,4.63,7.7,12.89,12.85,21.88,13.43s19.91-3.7,24.11-12.25c2.07-4.21,2.45-9,2.2-13.63s-.9-9.24-1.96-13.7-2.76-8.75-5.69-12.29-6.76-5.72-10.99-6.89c-10.6-2.93-21.31,1.59-29.26,8.56-1.45,1.28,.67,3.39,2.12,2.12h0Z"/>
      </g>
      <g>
        <path class="cls-10" d="M637.45,345.78c1.7,10.06,3.41,20.12,5.11,30.18,1.08,6.38,2.18,12.84,4.86,18.73,4.46,9.82,12.86,17.18,20.71,24.58,12.62,11.9,24.39,24.67,36.15,37.42,7.72,8.37,15.53,16.87,20.77,26.98,9.81,18.92,9.6,41.51,5.94,62.51-1.56,8.93-3.75,17.9-8.31,25.74-11.99,20.58-37.43,28.94-61.06,31.99-10.39,1.34-20.96,1.99-31.31,.39-20.83-3.21-39.45-15.39-54.11-30.54-14.66-15.15-25.84-33.25-36.9-51.2,1.72-.66,3.43-1.32,5.15-1.97-3.44,1.49-7.56-.93-9.29-4.26s-1.71-7.26-1.68-11.01c.12-19.79-.9-39.59-3.05-59.27-3.25-29.75-9.08-59.87-3.89-89.35"/>
        <path class="cls-8" d="M636.01,346.17c1.5,8.89,3.01,17.77,4.51,26.66,1.39,8.21,2.53,16.65,6.35,24.16,3.46,6.79,8.75,12.44,14.2,17.67,6.03,5.8,12.15,11.49,18.02,17.46s12.13,12.64,18.08,19.06c5.63,6.08,11.39,12.1,16.65,18.51s9.59,12.95,12.55,20.43,4.51,15.07,5.12,22.89c.62,7.93,.29,15.92-.63,23.81-.94,8-2.32,16.09-4.83,23.75-2.28,6.98-5.79,13.45-10.79,18.85-4.43,4.78-9.74,8.64-15.46,11.72-11.87,6.4-25.35,9.61-38.65,11.3-8.73,1.11-17.58,1.71-26.37,.88-7.62-.72-15.1-2.7-22.15-5.65-13.85-5.79-26.02-15.18-36.31-26.01-11.35-11.95-20.58-25.68-29.32-39.6-2.15-3.42-4.26-6.85-6.38-10.29l-.9,2.2c1.72-.66,3.43-1.32,5.15-1.97l-.8-2.89c-4.52,1.78-7.88-2.91-8.67-6.78-.5-2.47-.42-5.04-.4-7.55,.01-2.9,0-5.8-.03-8.7-.14-11.43-.65-22.86-1.54-34.26-1.76-22.42-5.74-44.63-7.05-67.08-.74-12.57-.54-25.24,1.62-37.67,.33-1.89-2.56-2.7-2.89-.8-4.02,23.16-1.46,46.63,1.43,69.76,1.46,11.74,2.92,23.48,3.86,35.28,.94,11.91,1.48,23.85,1.6,35.79,.03,3.33,0,6.67,.01,10,.02,2.81,.18,5.72,1.19,8.37,1.71,4.5,6.7,8.49,11.69,6.53,1.77-.7,1.01-3.59-.8-2.89-1.72,.66-3.43,1.32-5.15,1.97-.87,.33-1.45,1.31-.9,2.2,8.77,14.22,17.59,28.49,28.2,41.44,9.93,12.12,21.57,23.02,35.25,30.78,6.55,3.72,13.56,6.7,20.85,8.62,8.2,2.16,16.69,2.82,25.14,2.5,14.72-.56,29.9-3.01,43.71-8.29,12.52-4.79,24.24-12.35,31.64-23.78,4.41-6.82,6.92-14.67,8.59-22.56,1.68-7.95,2.81-16.06,3.24-24.17,.85-15.95-1.31-32.4-9.15-46.54-3.96-7.15-9.18-13.53-14.61-19.61-5.78-6.48-11.73-12.82-17.67-19.16-6.16-6.57-12.4-13.06-18.84-19.36-5.79-5.66-11.99-10.95-17.38-17-2.58-2.89-4.93-5.99-6.82-9.38-2.04-3.66-3.37-7.63-4.33-11.7-2.06-8.67-3.2-17.61-4.68-26.4-.75-4.44-1.5-8.89-2.26-13.33-.32-1.9-3.21-1.09-2.89,.8h0Z"/>
      </g>
      <g>
        <g>
          <path class="cls-10" d="M623.06,91.01c-3.91-21.17-18.41-40.12-37.83-49.42-19.42-9.3-43.27-8.72-62.22,1.51-5.52,2.98-10.73,6.82-14.29,11.99s-5.33,11.8-3.71,17.87c2.74,10.25,13.75,15.82,23.97,18.64,16.34,4.5,33.46,5.23,50.39,5.93,12.11,.5,24.22,1,36.33,1.5"/>
          <path class="cls-8" d="M624.5,90.61c-3.19-16.99-12.97-32.47-26.64-42.98-14.89-11.45-34.05-16-52.56-13.37-9.36,1.33-18.59,4.54-26.59,9.62s-14.67,12.53-15.69,22.22c-.93,8.82,4.14,16.21,11.29,20.84,7.74,5.01,17.12,7.15,26.08,8.72,10.84,1.9,21.83,2.6,32.81,3.09s22.7,.94,34.05,1.41c2.82,.12,5.64,.23,8.46,.35,1.93,.08,1.93-2.92,0-3-10.95-.45-21.9-.9-32.85-1.36s-21.04-.79-31.5-1.95c-9.55-1.06-19.43-2.63-28.4-6.21-6.79-2.71-13.92-7.28-16.26-14.61-2.87-8.99,2.25-18,9.01-23.66s15.63-9.42,24.28-11.43c17.5-4.08,36.47-1.16,51.63,8.6,13.79,8.87,24.19,22.93,28.63,38.71,.54,1.92,.98,3.86,1.35,5.81s3.25,1.09,2.89-.8h0Z"/>
        </g>
        <g>
          <path class="cls-10" d="M486.57,353.02c34.14,18.37,74.57,21.64,113.2,18.34,11.48-.98,22.96-2.51,34.06-5.58,39.92-11.04,72.87-42.19,89.96-79.92,14.61-32.23,18.15-70.21,5.55-103.27-.94-2.46-2.05-5.02-4.17-6.59-1.39-1.04-3.15-1.59-4.36-2.83-1.35-1.37-1.81-3.36-2.26-5.23-2.36-9.96-5.65-19.78-10.87-28.58-9-15.18-23.21-26.5-37.61-36.7-5.3-3.75-10.69-7.41-16.45-10.41-17.48-9.09-37.54-11.67-57.15-13.58-15.1-1.47-30.48-2.63-45.32,.55-18.15,3.88-34.76,14.35-46.35,28.85-17.89,22.38-23.02,51.96-31.35,79.37-3.33,10.95-7.27,21.81-8.66,33.17-1.41,11.54-.13,23.23,1.15,34.79,2.94,26.61,5.88,53.22,8.82,79.83"/>
          <path class="cls-8" d="M485.82,354.31c26.43,14.16,56.57,19.45,86.32,19.67,15.46,.11,31.07-.89,46.33-3.37,13.87-2.26,27.27-6.39,39.8-12.79,23-11.75,42.38-30.16,56.29-51.84,15.35-23.93,24.14-52.34,24-80.83-.07-14.73-2.54-29.66-7.93-43.41-1.24-3.16-2.77-6.01-5.79-7.76-1.29-.75-2.69-1.32-3.53-2.62-.95-1.49-1.2-3.44-1.61-5.12-1.82-7.41-4.19-14.7-7.48-21.59-6.31-13.19-16.43-23.88-27.69-33.01-5.69-4.62-11.64-8.93-17.69-13.07-6.44-4.41-13.14-8.32-20.39-11.26-14.15-5.74-29.41-7.99-44.5-9.6-16.04-1.7-32.43-3.34-48.44-.49-13.54,2.41-26.28,8.42-37,17s-19.06,20.06-25.01,32.56-9.94,26.18-13.67,39.65c-1.9,6.87-3.76,13.76-5.83,20.58-2.36,7.77-5.03,15.47-6.88,23.39-1.88,8.04-2.63,16.18-2.39,24.43s1.3,16.8,2.22,25.17c1.85,16.78,3.71,33.55,5.56,50.33,.92,8.29,1.83,16.58,2.75,24.87,.21,1.9,3.21,1.92,3,0-1.83-16.58-3.67-33.16-5.5-49.75-.92-8.29-1.83-16.58-2.75-24.87s-1.94-16.37-2.25-24.6,.29-16.25,2.12-24.23,4.35-15.28,6.68-22.86c4.06-13.22,7.27-26.7,11.51-39.87,4.21-13.09,9.53-25.97,17.68-37.14s18.54-19.61,30.64-25.39c13.65-6.51,28.55-8.24,43.53-7.7,7.85,.28,15.68,1.05,23.49,1.87s14.88,1.73,22.23,3.18,14.57,3.4,21.52,6.17,13.79,6.8,20.15,11.15c11.72,8.02,23.35,16.66,32.71,27.43,4.74,5.46,8.74,11.5,11.82,18.05,3.25,6.92,5.47,14.26,7.26,21.68,.75,3.13,1.79,5.71,4.68,7.4,1.32,.77,2.66,1.38,3.66,2.58,1.19,1.41,1.89,3.2,2.54,4.91,2.54,6.7,4.42,13.65,5.68,20.7,5.09,28.6-.24,58.78-12.86,84.77-10.98,22.63-27.63,42.66-48.3,57.06-10.33,7.2-21.64,13-33.61,16.92-14.76,4.84-30.32,6.68-45.76,7.68-28.98,1.88-58.73-.08-86.25-9.94-6.73-2.41-13.27-5.31-19.58-8.69-1.7-.91-3.22,1.68-1.51,2.59h0Z"/>
        </g>
        <g>
          <path class="cls-10" d="M634.19,119.78c10.86-12.02,25.34-20.73,41.05-24.67,7.41-1.86,15.28-2.67,22.66-.7,8.78,2.33,16.06,8.32,23.03,14.14,8.13,6.79,16.52,13.91,20.91,23.55,2.92,6.42,3.86,13.55,4.33,20.59,.75,11.29,.34,22.8-2.97,33.61-3.31,10.81-9.75,20.94-19.19,27.16-11.31,7.45-25.53,8.64-39.07,8.95-7.36,.17-15.8-.34-20.39-6.1"/>
          <path class="cls-8" d="M635.25,120.84c11.82-13.03,28.03-22.37,45.44-25.36,4.93-.84,10.08-1.06,15-.06,4.52,.93,8.7,2.88,12.58,5.34s7.43,5.36,10.95,8.29,6.82,5.69,10.03,8.76,6.15,6.31,8.54,10.01c2.54,3.92,4.25,8.2,5.28,12.74s1.49,9.61,1.74,14.46,.27,10.08-.14,15.1c-1.4,17.43-8.77,35.64-25,44.14-7.95,4.16-17.01,5.64-25.87,6.25-4.26,.29-8.57,.5-12.85,.38-3.75-.11-7.71-.52-11.1-2.25-1.66-.85-3.06-1.97-4.24-3.41s-3.34,.64-2.12,2.12c5.41,6.6,14.9,6.72,22.71,6.5,9.33-.26,18.87-.94,27.78-3.95s16.15-8.2,21.74-15.52,9.03-16.04,10.73-25.01c1.97-10.38,1.95-21.18,.8-31.65-.54-4.97-1.46-9.94-3.34-14.59-1.74-4.3-4.22-8.18-7.17-11.73s-6.45-6.83-9.99-9.91-7.26-6.21-11.04-9.12-7.71-5.6-12.07-7.52c-4.6-2.02-9.47-3.05-14.49-3.1-9.8-.09-19.66,2.87-28.52,6.89-8.29,3.76-15.97,8.9-22.63,15.11-1.69,1.58-3.31,3.23-4.87,4.95-1.29,1.43,.82,3.55,2.12,2.12h0Z"/>
        </g>
        <g>
          <path class="cls-9" d="M655.45,170.46c-1.93-3.93-3.89-7.93-4.55-12.26s.19-9.11,3.25-12.24c2.44-2.5,6.01-3.67,9.5-3.79s6.95,.7,10.3,1.68c5.61,1.65,11.37,3.97,14.97,8.59,3.72,4.76,4.49,11.52,2.4,17.19-2.09,5.67-6.83,10.19-12.42,12.5-3.82,1.58-8.17,2.18-12.12,.94-2.37-.74-4.45-2.33-6.26-4.25-1.91-2.03-3.37-4.45-4.48-7.01l-.59-1.35Z"/>
          <path class="cls-8" d="M656.74,169.71c-1.95-3.97-4.07-8.14-4.48-12.62-.33-3.61,.42-7.56,3.08-10.19,2.9-2.87,7.25-3.5,11.15-3.12,4.27,.41,8.7,1.8,12.63,3.47,3.53,1.5,7,3.65,9.17,6.9s2.93,7.02,2.58,10.8c-.72,7.67-6.9,14.06-14.04,16.37-4.58,1.48-9.63,1.34-13.46-1.84-3.15-2.61-5.03-6.07-6.63-9.76-.77-1.77-3.35-.24-2.59,1.51,1.62,3.73,3.57,7.22,6.64,9.97,3.76,3.36,8.42,4.55,13.38,3.82,8.8-1.29,16.96-8.1,19.17-16.81,1.08-4.25,.75-8.84-.99-12.87s-5.14-7.26-9.05-9.39c-4.16-2.26-8.94-3.78-13.57-4.69s-9.82-.89-14.06,1.65-6.38,7.39-6.47,12.3c-.1,5.72,2.49,11.02,4.96,16.03,.85,1.73,3.44,.21,2.59-1.51Z"/>
        </g>
      </g>
      <g>
        <path class="cls-1" d="M338.23,529.65c-8.01,1.88-17.27,3.52-23.78-1.51-1.95-1.5-3.46-3.49-4.74-5.59-2.87-4.7-4.65-10.07-5.16-15.55-.25-2.72-.19-5.51,.56-8.14,.93-3.23,2.85-6.07,4.95-8.69,3.8-4.73,8.4-9,13.99-11.36s12.3-2.59,17.57,.42"/>
        <path class="cls-8" d="M337.83,528.21c-5.67,1.32-11.88,2.69-17.65,1.11-6.28-1.72-9.92-7.64-12.06-13.41-2.29-6.17-3.49-13.7-.3-19.76,1.5-2.84,3.56-5.39,5.73-7.74s4.54-4.48,7.24-6.18c5.93-3.74,13.68-5.21,20.06-1.69,1.69,.93,3.21-1.65,1.51-2.59-6.28-3.47-13.88-2.94-20.21,.09s-11.66,8.47-15.53,14.26c-2.1,3.14-3.42,6.59-3.67,10.38s.34,7.71,1.38,11.35c1.88,6.55,5.61,14.05,12.08,17.08,6.96,3.27,15.04,1.67,22.2,0,1.88-.44,1.08-3.33-.8-2.89h0Z"/>
      </g>
      <g>
        <path class="cls-1" d="M373.57,358.06c4.46,19.88-3.44,40.22-11.2,59.06-4.09,9.93-8.18,19.86-12.46,29.71-8.3,19.07-17.44,38.26-19.63,58.94-.94,8.92-.55,17.97,1.15,26.78,3.18,16.48,11.59,32.64,25.73,41.69,11.61,7.43,26.14,9.45,39.78,7.43s26.47-7.8,38.26-14.93c9.88-5.98,19.34-13.13,25.92-22.62,1.71-2.46,3.28-5.14,5.78-6.79s6.28-1.86,8.17,.45c9.95-3.63,20.94-1.25,31.53-1.08s22.92-3.3,26.71-13.19c1.14-2.98,1.35-6.22,1.47-9.41,1.26-35.3-8.02-70.18-8.93-105.49-.42-16.33,.95-32.83-1.92-48.92"/>
        <path class="cls-8" d="M372.12,358.46c2.8,12.72,.41,25.74-3.52,37.95s-9.43,24.67-14.51,36.8-10.45,23.66-15.26,35.65-8.61,23.84-10.01,36.45c-2.46,22.19,2.94,47.38,19.25,63.54,8.09,8.02,18.65,12.84,29.89,14.41s23.68-.12,34.82-4.04c11.21-3.95,21.92-9.79,31.57-16.7,4.68-3.35,9.13-7.07,13.01-11.33,1.91-2.09,3.67-4.32,5.27-6.65s3.08-4.93,5.58-6.26c1.85-.98,4.31-1.1,5.78,.56,.33,.37,.99,.55,1.46,.39,13.51-4.81,27.97,1.01,41.76-2.1,5.33-1.2,10.75-3.61,14.35-7.85,4.66-5.5,4.72-12.64,4.8-19.51,.2-16.13-1.65-32.2-3.72-48.17-2.06-15.94-4.36-31.87-5.12-47.94-.76-16.14,.69-32.38-1.28-48.46-.24-1.98-.53-3.95-.88-5.91s-3.22-1.09-2.89,.8c2.75,15.7,1.5,31.7,1.84,47.55s2.37,31.41,4.42,47.02c2.03,15.43,4.09,30.89,4.55,46.46,.12,4,.13,8.01,0,12.02-.11,3.54-.21,7.24-1.68,10.53-2.2,4.93-6.92,8.01-11.89,9.66-14.7,4.87-30.41-2.2-45.06,3.01l1.46,.39c-3.61-4.09-9.65-1.77-12.7,1.7-1.9,2.16-3.33,4.69-5.08,6.97s-3.57,4.28-5.54,6.23c-8.27,8.17-18.52,14.49-28.89,19.64s-22.48,9.18-34.56,9.61-23.17-2.21-32.72-8.77c-18.67-12.83-25.88-37.49-25.32-59.14,.66-25.7,12.99-49.06,22.83-72.2,5.19-12.19,10.48-24.4,15.04-36.84s7.82-24.45,7.09-37.18c-.18-3.05-.6-6.09-1.25-9.07-.41-1.88-3.31-1.09-2.89,.8h0Z"/>
      </g>
      <g>
        <g>
          <path class="cls-1" d="M437.6,419.37c25.93,5.95,52.76,6.25,79.32,7.83,7.11,.42,14.33,.96,20.99,3.47,6.57,2.48,12.33,6.78,17.33,11.72,6.16,6.08,11.6,14.35,9.89,22.83-1.35,6.7-7.04,11.89-13.41,14.36s-13.39,2.62-20.22,2.41c-29.47-.91-58.69-8.07-88.12-6.41"/>
          <path class="cls-8" d="M437.2,420.82c18.3,4.18,37.07,5.61,55.77,6.62,9.3,.5,18.61,.83,27.89,1.52,4.5,.33,8.99,.86,13.34,2.08,4.05,1.14,7.82,2.95,11.32,5.27,6.65,4.41,13.17,10.57,16.57,17.9,1.63,3.51,2.37,7.52,1.42,11.32-.86,3.43-2.96,6.36-5.61,8.65-6.36,5.5-15.13,6.42-23.21,6.37-9.33-.07-18.66-.95-27.92-1.97-18.74-2.06-37.47-4.96-56.37-4.74-2.35,.03-4.69,.11-7.03,.24-1.92,.11-1.93,3.11,0,3,19.54-1.07,38.96,1.67,58.32,3.92,9.74,1.13,19.51,2.14,29.32,2.47,8.6,.29,17.85,.04,25.43-4.55,6.51-3.94,11.23-10.87,10.41-18.71-.88-8.41-6.66-15.43-12.7-20.91-6.45-5.86-13.92-10.2-22.52-11.96-4.54-.93-9.17-1.3-13.79-1.58-4.9-.3-9.8-.55-14.71-.79-19.41-.98-38.92-1.89-58.05-5.55-2.37-.45-4.74-.95-7.09-1.49-1.88-.43-2.68,2.46-.8,2.89h0Z"/>
        </g>
        <path class="cls-8" d="M562.31,453.95c-3.74,.67-7.62,.64-11.35-.07-.79-.15-1.62,.22-1.85,1.05-.2,.73,.25,1.69,1.05,1.85,4.29,.82,8.64,.84,12.94,.07,.8-.14,1.25-1.12,1.05-1.85-.23-.84-1.04-1.19-1.85-1.05h0Z"/>
        <path class="cls-8" d="M562.6,466.67c-3.44,1.65-7.22,2.59-11.02,2.8-.81,.04-1.5,.66-1.5,1.5,0,.78,.69,1.54,1.5,1.5,4.37-.23,8.6-1.32,12.54-3.21,.73-.35,.92-1.39,.54-2.05-.44-.75-1.32-.89-2.05-.54h0Z"/>
      </g>
      <g>
        <path class="cls-10" d="M616.88,596.26c-22.38,7.06-45.37,12.17-68.64,15.26-7.31,.97-15.15,1.66-21.69-1.74-6.12-3.17-9.99-9.34-13.58-15.23-4.67-7.67-9.39-15.46-11.74-24.12-1.38-5.06-1.91-10.31-2.39-15.54-1.09-11.79-1.76-24.42,4.08-34.72,1.64-2.9,3.86-5.59,6.82-7.1,2.75-1.4,5.9-1.69,8.98-1.95,7.96-.68,16.19-1.34,23.74,1.26,4.84,1.67,9.13,4.58,13.35,7.47,4,2.73,8,5.46,12.01,8.19,3.08-10.91,13.54-18.18,24.21-22.01,12.54-4.49,26.33-5.46,39.38-2.75"/>
        <path class="cls-8" d="M616.48,594.82c-17.17,5.4-34.7,9.68-52.43,12.77-4.51,.79-9.04,1.5-13.58,2.13-4.07,.57-8.17,1.13-12.3,1.09s-7.91-.67-11.38-2.6c-3.17-1.77-5.74-4.44-7.89-7.33-2.26-3.05-4.19-6.34-6.15-9.58-2.17-3.59-4.29-7.22-6.13-10.99s-3.38-7.76-4.36-11.89c-1.03-4.36-1.5-8.83-1.91-13.29-.73-7.94-1.38-16.12,.19-24.01,1.44-7.21,4.99-15.9,12.88-17.78,4.07-.97,8.51-1.07,12.68-1.25s8.65-.12,12.86,.86c8.43,1.95,15.48,7.79,22.48,12.57,1.87,1.27,3.74,2.55,5.6,3.82,.82,.56,1.95-.02,2.2-.9,2.38-8.18,9.02-14.07,16.34-17.95,8.52-4.52,18.38-6.74,27.97-7.15,5.85-.25,11.7,.21,17.44,1.38,1.88,.38,2.69-2.51,.8-2.89-10.74-2.19-21.89-2.05-32.56,.49-9.15,2.18-18.32,6.07-25.14,12.73-3.58,3.5-6.33,7.77-7.74,12.59l2.2-.9c-3.94-2.69-7.87-5.37-11.81-8.06-3.67-2.5-7.36-5.03-11.45-6.79-8.44-3.64-17.65-3.05-26.59-2.28-4.22,.36-8.44,.89-11.89,3.56-3.16,2.45-5.32,5.99-6.86,9.63-3.27,7.68-3.64,16.19-3.21,24.42,.46,8.86,1.08,18.15,3.95,26.6,2.8,8.26,7.44,15.77,12,23.15,4.07,6.58,8.89,13.06,16.56,15.54,8.19,2.65,17.31,.81,25.59-.42,18.84-2.8,37.48-6.93,55.74-12.34,2.23-.66,4.46-1.35,6.69-2.04,1.84-.58,1.05-3.47-.8-2.89h0Z"/>
      </g>
      <g>
        <g>
          <path class="cls-1" d="M463.22,95.21c3.01-8.09,6.06-16.24,10.59-23.58s10.7-13.93,18.54-17.53c6.58-3.02,13.93-3.8,21.13-4.5,4.03-.39,8.12-.76,12.1-.06,3.79,.67,7.34,2.28,10.81,3.95,7.58,3.65,15.09,7.68,21.4,13.25,6.31,5.57,11.4,12.84,13.06,21.09,1.84,9.16-.68,18.76-5.14,26.98-4.46,8.21-10.74,15.26-16.96,22.23"/>
          <path class="cls-8" d="M464.67,95.6c4.49-12.05,9.23-24.63,18.81-33.64,4.51-4.25,9.86-7.18,15.86-8.73,3.31-.85,6.69-1.35,10.09-1.73s6.91-.79,10.37-.86,6.93,.46,10.27,1.69c3.15,1.16,6.16,2.7,9.15,4.21,5.8,2.93,11.52,6.19,16.51,10.39,4.54,3.82,8.48,8.4,11.11,13.75s3.66,11.83,2.82,18c-2.03,14.86-12.35,26.53-21.96,37.28-1.28,1.44,.83,3.56,2.12,2.12,9.14-10.23,18.67-21.05,21.99-34.74,1.58-6.51,1.62-13.4-.55-19.78-2.02-5.95-5.65-11.26-10.07-15.7-4.7-4.72-10.32-8.46-16.14-11.66-3.13-1.72-6.34-3.32-9.58-4.83s-6.48-2.84-9.97-3.39c-3.76-.59-7.53-.34-11.3,.01-3.54,.33-7.08,.68-10.59,1.26-6.66,1.1-13.03,3.3-18.48,7.38-12.41,9.31-18.14,24.1-23.37,38.14-.68,1.81,2.22,2.59,2.89,.8h0Z"/>
        </g>
        <g>
          <path class="cls-1" d="M334.16,108.33c19.91-11.55,42.61-17.36,65.27-21.37,23.52-4.16,47.76-6.51,71.24-2.11,12.4,2.32,24.42,6.51,35.81,11.92,22.21,10.55,42.32,26.01,56.68,45.97,14.36,19.96,22.72,44.52,21.63,69.08-.98,21.85-9.06,44.72-.53,64.86,2.59,6.1,6.61,11.6,8.41,17.98,4.33,15.33-5.22,31.17-16.46,42.47-15.72,15.79-35.67,27.33-57.19,33.07-19.19,5.12-39.27,5.66-59.13,6.18-39.32,1.02-80.38,1.68-115.8-15.42-42.58-20.56-70.75-65.64-76.08-112.63-2.92-25.71,.78-53.04,15.4-74.39"/>
          <path class="cls-8" d="M334.92,109.62c13.68-7.89,28.66-13.11,43.96-16.86s32.31-6.73,48.66-8.08,33.51-.86,49.78,3.14c14.98,3.68,29.35,9.89,42.56,17.81,25.12,15.06,46.22,37.35,56.62,65.04,5.28,14.05,7.7,29.06,6.63,44.06-1.1,15.5-5.29,30.91-4,46.53,.62,7.58,2.79,14.58,6.33,21.29s7.08,13.2,6.77,21.07c-.58,14.61-11.05,27.15-21.34,36.54-10.67,9.75-23.09,17.67-36.44,23.22-14.64,6.09-30.21,8.97-45.96,10.24s-32.12,1.48-48.16,1.65-30.97-.14-46.33-2.02-30.37-5.34-44.46-11.45c-12.07-5.24-23.22-12.41-33.03-21.17-19.38-17.3-33.48-40.22-41.18-64.97-8.2-26.34-9.87-56.13-.2-82.31,2.43-6.58,5.65-12.85,9.6-18.65,1.09-1.6-1.51-3.1-2.59-1.51-16.58,24.38-19.25,55.75-14.31,84.18,4.54,26.19,16.05,51.26,33.18,71.6,8.44,10.02,18.32,18.86,29.33,25.97,12.42,8.03,26.28,13.61,40.62,17.17,30.63,7.6,62.64,6.51,93.94,5.65,17.06-.47,34.28-1.25,50.95-5.19,14.44-3.42,28.28-9.38,40.71-17.5,12.16-7.95,23.95-18.02,31.65-30.48,3.77-6.1,6.54-12.97,7.01-20.18,.49-7.61-2.26-14.26-5.79-20.84-1.88-3.5-3.75-6.99-4.99-10.78s-1.95-7.61-2.28-11.52c-.66-7.9,.16-15.84,1.2-23.67s2.42-16.16,2.9-24.31c.45-7.67-.03-15.37-1.3-22.95-5.01-29.84-22.5-56.22-45.88-74.99-24.47-19.65-54.96-32.4-86.41-34.11-17.22-.94-34.48,1-51.43,3.91-15.91,2.73-31.78,6.27-46.89,12.03-7.21,2.75-14.22,6.01-20.91,9.86-1.67,.96-.16,3.56,1.51,2.59h0Z"/>
        </g>
        <g>
          <path class="cls-1" d="M296.63,205.95c-11.11-.26-22.36-1.1-32.84-4.81-10.47-3.71-20.19-10.61-25.29-20.48-3.05-5.9-4.32-12.55-5.36-19.11-1.42-8.98-2.45-18.19-.77-27.13,2.26-12.04,9.46-22.85,18.9-30.67s21.01-12.77,32.93-15.58c15.8-3.73,33.04-3.67,47.58,3.55,14.54,7.21,25.62,22.57,24.67,38.77"/>
          <path class="cls-8" d="M296.63,204.45c-18.15-.43-38.28-2.76-51.36-16.81-2.9-3.11-5.24-6.73-6.82-10.67-1.83-4.57-2.81-9.42-3.61-14.26-1.64-9.93-2.94-20.32-.52-30.24,4.31-17.67,18.59-30.72,34.8-37.79,8.45-3.69,17.64-6.06,26.81-7.01s18.77-.44,27.71,2.38c15.41,4.86,29.15,17.94,31.14,34.55,.23,1.95,.28,3.92,.18,5.89s2.9,1.92,3,0c.91-17.29-11-33.21-26.19-40.44-17.77-8.46-39.01-6.9-57.22-.66s-33.86,18.04-41.04,35.86c-3.88,9.62-4,19.96-2.74,30.13s2.65,20.62,8.27,29.17c10.83,16.46,31.22,21.5,49.71,22.6,2.62,.16,5.25,.25,7.88,.31,1.93,.05,1.93-2.95,0-3h0Z"/>
        </g>
        <g>
          <path class="cls-6" d="M300.24,176.34c-3.14,.43-6.3-.76-8.32-3.2-2.62-3.16-4.99-6.51-6.45-10.32-3.36-8.81-1.12-19.18,4.54-26.72,.98-1.31,2.09-2.56,3.5-3.39,1.85-1.08,4.05-1.31,6.18-1.53,4.99-.51,10.06-1.01,15-.15s9.83,3.27,12.58,7.46c.87,1.33,1.51,2.8,1.88,4.34,1.44,6-1.32,12.31-5.3,17.02s-9.13,8.27-13.67,12.44c-1.4,1.28-2.79,2.66-4.55,3.37-1.69,.68-3.57,.68-5.39,.67h0Z"/>
          <path class="cls-8" d="M300.24,174.84c-2.09,.24-4.14-.15-5.85-1.4s-3.04-3.32-4.23-5.06c-2.49-3.63-4.28-7.67-4.66-12.09-.36-4.11,.31-8.24,1.75-12.09,.75-2,1.75-3.91,2.92-5.7s2.44-3.57,4.3-4.58c2.07-1.13,4.64-1.17,6.92-1.39,2.5-.24,5.01-.45,7.52-.45,4.46,0,8.97,.75,12.8,3.13s6.16,6.07,6.32,10.45-1.71,8.41-4.2,11.82c-3.06,4.19-7.29,7.41-11.22,10.72-1.91,1.6-3.67,3.42-5.63,4.94-1.04,.81-2.18,1.35-3.49,1.56-1.21,.19-2.44,.03-3.64,.19-.81,.11-1.23,1.14-1.05,1.85,.23,.87,1.05,1.16,1.85,1.05,1.15-.16,2.44,.02,3.64-.19s2.46-.69,3.53-1.38c2.1-1.36,3.84-3.27,5.74-4.89,4-3.42,8.26-6.62,11.62-10.71,3.12-3.8,5.46-8.37,5.82-13.34s-1.7-9.78-5.45-12.96-8.29-4.6-13.01-5.06c-2.9-.29-5.82-.18-8.72,.06-2.69,.22-5.5,.34-8.13,.98-4.81,1.17-7.81,5.62-9.9,9.82s-3.37,9.03-3.39,13.82c-.02,5.57,1.75,10.81,4.8,15.43,1.53,2.32,3.25,4.91,5.52,6.56s4.88,2.23,7.52,1.93c1.89-.22,1.92-3.22,0-3Z"/>
        </g>
        <g>
          <g>
            <path class="cls-8" d="M450.16,289.3c-4.84-1.85-8.59-6.31-9.58-11.4-.14-.71-.22-1.48,.1-2.13,.68-1.4,2.62-1.44,4.16-1.24,7.2,.93,14.42,2.68,21.63,1.85,9.46-1.09,17.79-6.47,26.56-10.18,1.86-.79,4.28-1.4,5.69,.04,.69,.71,.93,1.75,.99,2.74,.29,5.06-3.19,9.55-6.98,12.93-5.63,5.02-12.44,8.81-19.8,10.44-7,1.56-13.31,1.22-19.79-1.53-.68-.29-1.34-.63-2-.98l-.99-.54Z"/>
            <path class="cls-8" d="M450.56,287.86c-3.53-1.4-6.47-4.38-7.84-7.92-.3-.78-.57-1.6-.69-2.43-.18-1.18,.25-1.51,1.36-1.56,2.24-.1,4.61,.54,6.81,.88,5.05,.79,10.18,1.57,15.31,1.14,4.55-.38,8.91-1.73,13.11-3.49s8.25-3.87,12.39-5.77c1.62-.75,3.97-2.2,5.85-1.82s1.42,3.63,1.07,4.99c-1.06,4.15-4.34,7.4-7.53,10.06-3.44,2.86-7.34,5.28-11.48,6.97-4.66,1.9-9.74,3-14.79,2.86-4.71-.14-9.1-1.53-13.21-3.76-1.7-.92-3.21,1.67-1.51,2.59,4.2,2.28,8.65,3.77,13.45,4.11,5.15,.37,10.46-.56,15.31-2.3s9.22-4.27,13.23-7.41,7.56-6.66,9.16-11.37c.72-2.11,1.05-4.74,.23-6.86-.89-2.3-3.15-3.14-5.47-2.79-2.45,.37-4.78,1.67-7,2.71-2.37,1.11-4.71,2.28-7.08,3.39-4.75,2.22-9.74,4.27-15,4.84-5.91,.64-11.81-.44-17.63-1.34-2.34-.36-5.38-1.24-7.64-.08-2.66,1.37-2.08,4.55-1.25,6.9,1.69,4.77,5.37,8.5,10.06,10.36,1.8,.71,2.57-2.19,.8-2.89Z"/>
          </g>
          <g>
            <path class="cls-8" d="M550.69,276.06c-3.83-2.69-6.77-6.57-7.95-11.1-.1-.39-.19-.78-.27-1.18-.28-1.42-.36-3.04,.55-4.17,.98-1.23,2.81-1.46,4.33-1.04s2.84,1.33,4.23,2.07c6.46,3.41,14.5,2.68,21.15-.35,1.02-.47,2.06-.99,3.18-1.06s2.38,.45,2.76,1.51c.29,.8,.03,1.68-.23,2.49-.82,2.54-1.65,5.11-3.03,7.4-2.36,3.92-6.31,6.84-10.74,7.95s-9.3,.38-13.22-1.97l-.75-.53Z"/>
            <path class="cls-8" d="M551.45,274.76c-2.32-1.66-4.29-3.78-5.68-6.27-.63-1.13-1.13-2.32-1.48-3.56s-.89-2.96-.26-4.14c1.4-2.61,5.6,.54,7.16,1.32,2.69,1.34,5.63,2.06,8.63,2.23s5.82-.2,8.61-.94c1.47-.39,2.9-.9,4.29-1.5,1.11-.47,2.84-1.67,4.08-1.07,1.15,.56-.08,2.8-.37,3.66-.55,1.64-1.15,3.25-1.99,4.77-1.34,2.42-3.29,4.47-5.65,5.92-5.29,3.25-12.25,3.15-17.35-.43-1.58-1.11-3.08,1.49-1.51,2.59,5.46,3.84,12.94,4.16,18.87,1.26,3.02-1.48,5.63-3.8,7.49-6.6,1.03-1.55,1.79-3.28,2.44-5.02s1.61-3.79,1.55-5.65c-.06-1.67-1.23-2.95-2.79-3.42-1.71-.52-3.39,.11-4.94,.81-3.38,1.52-6.95,2.54-10.67,2.65s-7.12-.68-10.29-2.45c-2.77-1.55-6.5-3.31-9.28-.74s-1.17,7.49,.18,10.45c1.62,3.55,4.3,6.47,7.45,8.72,1.57,1.13,3.07-1.47,1.51-2.59Z"/>
          </g>
          <path class="cls-8" d="M444.16,222.7c2.04-3.68,4.93-6.7,8-9.54s5.9-5.53,9.23-7.76c3.64-2.43,7.42-3.47,11.76-3.72,2.02-.11,4.21-.37,6.17,.25s3.3,2.45,4.46,4.12c1.09,1.58,3.69,.08,2.59-1.51-2.08-3-4.31-5.41-8.12-5.86-1.84-.22-3.73-.08-5.57,.03-2,.12-4.02,.33-5.95,.86-6.83,1.86-12.31,7.33-17.32,12.06-3.01,2.84-5.82,5.92-7.84,9.55-.94,1.69,1.65,3.2,2.59,1.51h0Z"/>
          <path class="cls-8" d="M536.56,199.78c2.09-1.46,4.05-3.26,6.4-4.31s5.11-.97,7.59-.17c5.19,1.66,8.82,6.15,12.17,10.19,1.23,1.49,3.35-.64,2.12-2.12-3.81-4.6-7.95-9.35-13.89-11.09-2.71-.79-5.74-.88-8.41,.13-2.82,1.07-5.06,3.07-7.5,4.78-1.57,1.1-.07,3.7,1.51,2.59h0Z"/>
          <g>
            <path class="cls-8" d="M535.49,298.27c-2.95,.4-5.92,.57-8.9,.52-.95-.01-1.94-.06-2.81-.45s-1.62-1.2-1.66-2.15c-.06-1.34,1.21-2.34,2.4-2.96,4.53-2.38,9.8-2.94,14.91-2.84,1.04,.02,2.09,.07,3.06,.45s1.83,1.14,2.07,2.15c.3,1.28-.48,2.61-1.56,3.35s-2.41,1.02-3.69,1.28l-3.81,.65Z"/>
            <path class="cls-8" d="M535.49,296.77c-1.83,.24-3.66,.4-5.5,.48-1.62,.07-3.55,.31-5.13-.12-.49-.13-1.22-.44-1.23-1.03,0-.55,.7-1,1.1-1.25,1.38-.88,2.99-1.44,4.56-1.88,3.3-.92,6.74-1.15,10.15-1.08,1.1,.02,3.58,.05,3.69,1.62,.1,1.48-1.89,2.12-2.99,2.39-1.66,.41-3.36,.63-5.04,.92-1.9,.32-1.09,3.22,.8,2.89,2.29-.39,4.8-.59,6.93-1.57,1.87-.86,3.42-2.68,3.3-4.84-.11-2-1.77-3.49-3.6-4.04-2.19-.66-4.79-.44-7.04-.3s-4.46,.44-6.62,1.01c-3.07,.81-9.94,3.12-7.91,7.59,1.08,2.38,3.75,2.71,6.07,2.73,2.83,.03,5.66-.16,8.47-.53,.81-.11,1.49-.61,1.5-1.5,0-.73-.7-1.6-1.5-1.5Z"/>
          </g>
          <path class="cls-8" d="M534.07,294.82c.47,4.13,.78,8.27,.93,12.42,.07,2.03,.3,4.21-.07,6.22-.34,1.88-1.5,3.35-2.91,4.58-2.55,2.22-5.96,3.34-9.26,3.77-3.63,.48-7.5,.3-10.93-1.05s-6.34-4.09-7.31-7.71c-.5-1.86-3.39-1.07-2.89,.8,2.25,8.37,11.28,11.57,19.15,11.14,3.94-.21,7.98-1.14,11.33-3.3,1.68-1.08,3.21-2.45,4.34-4.11,1.26-1.87,1.62-4.02,1.64-6.24,.05-5.5-.39-11.05-1.01-16.51-.22-1.9-3.22-1.92-3,0h0Z"/>
          <path class="cls-8" d="M534.33,296.35c-.23,6.71-.69,16.01,5.14,20.74,5.33,4.32,14.19,3.38,19.27-.82,2.88-2.38,4.66-5.98,4.73-9.72,.04-1.93-2.96-1.93-3,0-.14,7.8-8.83,11.58-15.61,9.88-8.46-2.12-7.77-13.28-7.53-20.08,.07-1.93-2.93-1.93-3,0h0Z"/>
        </g>
      </g>
      <g>
        <g>
          <path class="cls-10" d="M545.65,427.87c-25.01-1.28-50.01-2.56-75.02-3.84-12.57-.64-25.4-1.34-37.09-6.01-7.84-3.13-15.2-8.27-19.23-15.69s-4.06-17.34,1.37-23.8c4.6-5.48,12-7.6,19.02-8.99,18.19-3.62,37.15-4.26,55.21-.06,8.51,1.98,16.77,5.01,25.39,6.42,15.98,2.6,32.27-.51,48.16-3.61"/>
          <path class="cls-8" d="M545.65,426.37c-22.11-1.13-44.22-2.26-66.32-3.4-10.42-.53-20.97-.71-31.26-2.52-9.22-1.62-18.66-4.64-25.86-10.85-6.36-5.49-10.57-13.71-8.96-22.27,.76-4.08,2.82-7.66,6.06-10.26s7.53-4.13,11.64-5.17c9.88-2.5,20.28-3.65,30.46-3.82,10.58-.18,21.1,.97,31.35,3.63,5.15,1.34,10.23,2.95,15.4,4.21s10.46,2.09,15.81,2.34c10.74,.49,21.47-1.09,32.01-3.04,2.64-.49,5.27-1,7.89-1.51,1.89-.37,1.09-3.26-.8-2.89-11,2.15-22.08,4.29-33.32,4.51-5.58,.11-11.15-.28-16.62-1.37s-10.62-2.67-15.89-4.15c-10.48-2.93-21.13-4.61-32.02-4.75s-21.53,1.03-32.03,3.24c-8.4,1.77-17.54,5.1-21.31,13.5s-1.91,17.58,3.24,24.53c12.17,16.43,35.22,18.12,53.92,19.1,22.73,1.18,45.45,2.33,68.18,3.49l8.45,.43c1.93,.1,1.92-2.9,0-3h0Z"/>
        </g>
        <path class="cls-8" d="M414.18,382.77c5.38,2.88,11.1,5.1,17.02,6.59,1.87,.47,2.67-2.42,.8-2.89-5.68-1.43-11.14-3.53-16.31-6.29-1.7-.91-3.22,1.68-1.51,2.59h0Z"/>
        <path class="cls-8" d="M412.06,396.32c3.81,3.52,8.44,6.08,13.47,7.4,1.87,.49,2.67-2.4,.8-2.89-4.53-1.19-8.71-3.45-12.15-6.63-1.42-1.31-3.54,.81-2.12,2.12h0Z"/>
      </g>
      <g>
        <g>
          <path class="cls-1" d="M365.49,492.66c12.8-1.01,25.88-2,38.31,1.22,12.43,3.23,24.3,11.51,28.32,23.7,5.12-6.25,12.79-9.99,20.67-11.81s16.03-1.89,24.11-1.95c5.87-.05,12.27,.09,16.81,3.81,5.02,4.11,6.13,11.28,6.36,17.77,.66,19.12-3.36,38.39-11.63,55.65-3.63,7.58-8.41,15.1-15.81,19.08-6.43,3.46-14.04,3.81-21.35,3.75-4.99-.04-10.01-.23-14.89-1.27-6.99-1.48-13.5-4.64-20.26-6.97-14.67-5.06-30.68-6.31-44.5-13.37-12.83-6.55-22.71-17.57-32.28-28.34"/>
          <path class="cls-8" d="M365.49,494.16c19.52-1.54,42.23-3,57.45,11.8,3.46,3.37,6.19,7.43,7.74,12.02,.33,.98,1.74,1.59,2.51,.66,6.24-7.52,15.7-11.03,25.14-12.38,5.52-.79,11.12-.88,16.68-.93,4.65-.04,9.52-.26,13.97,1.33,9.27,3.31,9.67,14.54,9.67,22.83,0,10.73-1.49,21.43-4.37,31.77-2.69,9.64-6.42,19.52-12.11,27.83-2.58,3.76-5.78,7.17-9.77,9.45-4.38,2.49-9.43,3.4-14.4,3.7-5.34,.32-10.79,.25-16.11-.29s-10.62-2.17-15.73-4.11-9.82-3.84-14.91-5.3-10.06-2.56-15.11-3.76c-9.99-2.36-19.92-5.08-28.68-10.63-8.45-5.34-15.52-12.54-22.21-19.89-1.62-1.78-3.22-3.58-4.82-5.38-1.28-1.45-3.4,.68-2.12,2.12,6.94,7.81,13.96,15.64,22.29,22.01,4.12,3.15,8.54,5.88,13.28,7.99s10.02,3.78,15.2,5.13c5.31,1.38,10.68,2.53,16,3.86s10.63,3,15.8,5,10.51,4.2,16.07,5.25,11.43,1.2,17.15,1.13c5.19-.06,10.52-.48,15.43-2.25s8.72-4.59,11.99-8.31,5.73-7.92,7.88-12.3c2.41-4.92,4.47-10.02,6.18-15.22,3.48-10.58,5.49-21.66,5.96-32.79,.22-5.13,.26-10.38-.55-15.47-.7-4.4-2.3-8.91-5.66-11.99-3.57-3.27-8.36-4.33-13.06-4.62-5.4-.33-10.91-.13-16.31,.15-10.45,.55-21.26,2.57-29.77,9.07-1.89,1.44-3.61,3.06-5.13,4.89l2.51,.66c-2.94-8.73-9.58-15.56-17.52-20-9.31-5.21-20-6.88-30.55-7-6.68-.07-13.35,.45-20.01,.97-1.91,.15-1.93,3.15,0,3h0Z"/>
        </g>
        <g>
          <path class="cls-12" d="M464,565.53c-.05-.63-.08-1.26-.07-1.89,.14-5.35,2.02-10.65,5.31-14.88,2.62-3.38,6.66-6.31,11.31-3.91,.92,.47,1.74,1.14,2.42,1.93,2.69,3.12,3.14,7.24,2.97,11.17-.33,7.56-2.85,15.02-7.17,21.24-.67,.97-1.43,1.95-2.51,2.44-.68,.31-1.44,.41-2.18,.49-1.17,.14-2.36,.28-3.52,.08-2.94-.51-5.13-3.16-6-6.02-.7-2.33-.69-4.79-.54-7.24,.07-1.14,.07-2.29-.02-3.43h0Z"/>
          <path class="cls-12" d="M468.41,539.96c-1.68,.78-3.66,.74-5.24-.21-.68-.41-1.29-.92-1.82-1.52-1.3-1.48-2.01-3.46-1.93-5.43,.04-1.08,.31-2.17,.93-3.06,1.23-1.77,3.72-2.41,5.76-1.74s3.6,2.48,4.27,4.52c.85,2.59,.23,5.76-1.94,7.41l-.04,.02Z"/>
          <path class="cls-12" d="M482.11,534.7c-1.12,.24-2.3,.02-3.25-.63-.18-.12-.35-.25-.52-.38-.52-.41-1.01-.87-1.42-1.39-1.26-1.6-1.69-3.77-1.32-5.77s1.51-3.82,3.02-5.18c.32-.29,.66-.56,1.05-.73,.27-.12,.55-.19,.84-.25,.43-.09,.86-.16,1.3-.17,1.69-.04,3.37,.9,4.23,2.37,.37,.63,.59,1.35,.78,2.05,.2,.72,.39,1.46,.34,2.21-.03,.52-.18,1.03-.29,1.54-.24,1.1-.34,2.24-.68,3.31,0,.01,0,.02-.01,.03-.48,1.45-1.76,2.49-3.25,2.81l-.82,.17Z"/>
          <path class="cls-12" d="M491.6,541.47c-1.43,.07-2.85-.6-3.54-1.84-.36-.65-.59-1.38-.64-2.12-.12-1.67,.56-3.35,1.72-4.55,.73-.76,1.77-1.37,2.81-1.16,.57,.12,1.06,.46,1.52,.8,.48,.35,.97,.72,1.29,1.22,.31,.5,.43,1.09,.5,1.67,.07,.54,.09,1.09,.01,1.63-.12,.85-.5,1.64-.88,2.41-.02,.05-.05,.1-.08,.15-.52,1.04-1.56,1.72-2.72,1.78h0Z"/>
        </g>
      </g>
    </g>
  </g>
</svg>