<?xml version="1.0" encoding="UTF-8"?>
<svg id="nut" xmlns="http://www.w3.org/2000/svg" viewBox="0 0 1000 1000">
  <defs>
    <style>
      .cls-1 {
        letter-spacing: -.01em;
      }

      .cls-1, .cls-2 {
        fill: red;
      }

      .cls-3 {
        fill: #d1cac0;
      }

      .cls-4 {
        fill: #3f1e12;
      }

      .cls-5 {
        fill: #816e5f;
      }

      .cls-6 {
        font-family: FreeSansBold, FreeSans;
        font-size: 150px;
      }

      .cls-7 {
        fill: #759740;
      }

      .cls-8 {
        fill: #c3b6a6;
      }

      .cls-9 {
        letter-spacing: -.01em;
      }

      .cls-10 {
        fill: #7c4f32;
      }

      .cls-11 {
        fill: #517a38;
      }

      .cls-12 {
        fill: #96643f;
      }

      .cls-13 {
        fill: #603524;
      }

      .cls-14 {
        fill: #536d26;
      }

      .cls-15 {
        fill: #e8e7e2;
      }
    </style>
  </defs>
  <text class="cls-6" transform="translate(96.8 802.32)"><tspan x="0" y="0">n + </tspan><tspan class="cls-9" x="262.65" y="0">u</tspan><tspan x="352.05" y="0">t = </tspan><tspan class="cls-9" x="573" y="0">n</tspan><tspan class="cls-1" x="662.4" y="0">u</tspan><tspan class="cls-2" x="751.79" y="0">t</tspan></text>
  <g>
    <g>
      <g>
        <path class="cls-11" d="M649.34,509.53c24.12,9.87,49.28,20.48,65.78,40.66,23.07,28.23,24.03,68.61,41.83,100.44-21.2-14.59-48.22-16.66-73.31-22.43-28.64-6.58-56.29-18.7-78.92-37.44s-57.44-73.3-64.05-101.93"/>
        <path class="cls-14" d="M648.72,511.75c22.52,9.22,46.28,19.06,62.76,37.71,15.98,18.1,21.83,42.24,28.66,64.77,3.91,12.89,8.24,25.75,14.81,37.56l3.15-3.15c-17.74-12.09-39.25-15.75-59.91-19.76-21.14-4.1-41.75-9.91-61.02-19.7-16.06-8.16-30.96-18.51-42.93-32.05-11.27-12.76-21-26.95-29.74-41.54-4.92-8.21-9.52-16.63-13.55-25.32-3.29-7.09-6.28-14.42-8.07-22.04-.67-2.89-5.12-1.66-4.44,1.22,3.49,14.94,10.98,29.13,18.52,42.37,8.7,15.26,18.55,29.98,29.73,43.54,4.56,5.52,9.37,10.91,14.75,15.64,7.73,6.79,16.39,12.66,25.31,17.78,18.82,10.8,39.49,18.1,60.67,22.62,23.27,4.96,48.18,7.47,68.35,21.22,1.99,1.35,4.21-1.25,3.15-3.15-11.96-21.54-16.09-46.16-24.69-69.03-4.22-11.23-9.56-22.03-17.11-31.41s-17.79-17.36-28.45-23.63c-12.3-7.23-25.54-12.7-38.72-18.09-2.74-1.12-3.94,3.33-1.22,4.44h0Z"/>
      </g>
      <path class="cls-14" d="M585.63,493.84c.04,11.63,.32,23.76,4.53,34.76s12.99,19.4,23.31,25.63c10.89,6.57,22.57,11.75,33.88,17.53s21.97,12.21,31.78,20.26c10.37,8.51,20.38,17.64,32.95,22.8,2.74,1.13,3.93-3.33,1.22-4.44-10.65-4.38-19.46-12.08-28.2-19.37-9.37-7.81-19.17-14.61-29.94-20.37s-22.25-10.91-33.13-16.83c-10.14-5.52-20.21-11.91-25.66-22.48-5.89-11.43-6.09-24.91-6.14-37.47-.01-2.96-4.62-2.97-4.61,0h0Z"/>
    </g>
    <g>
      <g>
        <path class="cls-7" d="M596.17,430.17l32.82-16.31c11.62-5.77,23.34-11.59,35.91-14.83,15.26-3.94,31.52-3.92,46.77,.06,9.68,2.52,18.87,6.58,28.31,9.88,22.34,7.83,46.14,11.46,69.79,10.64-17.06,25.27-36.93,49.01-61.39,67.22-24.46,18.21-53.82,30.67-84.29,31.78-31.13,1.13-61.36-9.4-90.72-19.79"/>
        <path class="cls-14" d="M597.33,432.16c13.48-6.7,26.9-13.51,40.44-20.07,12.74-6.17,25.95-11.58,40.14-13.13,14.4-1.58,28.57,.42,42.21,5.14,6.91,2.39,13.67,5.2,20.6,7.57s13.61,4.23,20.57,5.77c15.89,3.51,32.21,5.02,48.47,4.49l-1.99-3.47c-19.36,28.63-42.51,55.61-71.97,74.23-14.49,9.16-30.33,16.24-47.03,20.21-17.59,4.19-35.68,4.38-53.49,1.41-21.05-3.51-41.26-10.62-61.31-17.72-2.8-.99-4.01,3.46-1.22,4.44,18.36,6.5,36.84,12.99,55.99,16.75,18.26,3.58,36.84,4.34,55.17,.86,34.87-6.63,65.79-26.55,90.49-51.49,13.99-14.13,26.22-29.92,37.35-46.37,.98-1.44-.31-3.52-1.99-3.47-14.65,.48-29.32-.68-43.7-3.57-7.22-1.45-14.36-3.32-21.37-5.6s-13.72-5.03-20.59-7.51c-13.75-4.97-27.98-7.64-42.63-6.6s-27.87,5.62-40.91,11.65c-15.36,7.11-30.41,14.96-45.57,22.5-2.66,1.32-.32,5.3,2.33,3.98h0Z"/>
      </g>
      <path class="cls-14" d="M588.65,456.17c18.69,12.57,42.06,13.77,63.66,10.04,23.86-4.12,45.76-14.7,68.27-23.13,13.21-4.94,26.79-9.23,40.84-10.92,2.91-.35,2.94-4.96,0-4.61-24.63,2.96-47.25,13.23-70.14,22.15-21.12,8.23-43.32,15.14-66.27,13.6-12.12-.81-23.92-4.3-34.04-11.11-2.47-1.66-4.78,2.33-2.33,3.98h0Z"/>
    </g>
    <g>
      <path class="cls-12" d="M248.18,264.15c-18.8,9.91-29.68,30.09-37.46,49.87-20.84,52.92-27.18,112.44-11.95,167.24,15.23,54.8,53.29,104.07,105.16,127.43,52.14,23.48,113.6,19.4,167.26-.37,10.41-3.84,20.7-8.28,29.79-14.63,9.85-6.88,18.06-15.81,26.18-24.66,27.65-30.15,56.45-62.49,64.2-102.66L248.18,264.15Z"/>
      <path class="cls-14" d="M247.02,262.16c-21.21,11.33-32.22,34.33-40.3,55.87-9.66,25.76-15.85,52.87-17.92,80.31-2.05,27.18,.08,54.77,7.09,81.14,5.91,22.24,15.47,43.55,28.19,62.73s28.42,36.06,46.82,49.71c19.55,14.5,42,24.69,65.72,30.11,25.61,5.85,52.21,6.32,78.18,2.8,13.13-1.78,26.11-4.58,38.83-8.3,12.93-3.78,25.92-8.27,37.89-14.49,12.25-6.37,22.33-15.4,31.72-25.41,8.8-9.38,17.47-18.92,25.81-28.71,16.17-19,31.15-39.61,39.64-63.28,2.06-5.76,3.69-11.66,4.87-17.66,.2-1.02-.13-2.06-1.06-2.6l-9.22-5.43c-8.29-4.89-16.59-9.77-24.88-14.66-12.34-7.27-24.69-14.55-37.03-21.82-15.01-8.85-30.03-17.69-45.04-26.54-16.44-9.69-32.88-19.38-49.33-29.07s-33.19-19.56-49.79-29.34c-15.48-9.12-30.95-18.24-46.43-27.36-13.12-7.73-26.24-15.46-39.36-23.19-9.37-5.52-18.74-11.05-28.12-16.57-4.47-2.63-8.89-5.36-13.41-7.9-.19-.11-.38-.22-.57-.33-2.56-1.51-4.88,2.47-2.33,3.98,3.07,1.81,6.15,3.62,9.22,5.43,8.29,4.89,16.59,9.77,24.88,14.66,12.34,7.27,24.69,14.55,37.03,21.82,15.01,8.85,30.03,17.69,45.04,26.54,16.44,9.69,32.88,19.38,49.33,29.07,16.6,9.78,33.19,19.56,49.79,29.34,15.48,9.12,30.95,18.24,46.43,27.36,13.12,7.73,26.24,15.46,39.36,23.19,9.37,5.52,18.74,11.05,28.12,16.57,4.44,2.62,8.82,5.55,13.41,7.9,.19,.1,.38,.22,.57,.33l-1.06-2.6c-4.74,24.19-17.24,45.72-32.09,65.09-7.54,9.84-15.73,19.17-24.04,28.36-8.69,9.61-17.26,19.58-27.22,27.91s-22.61,14.34-35.21,18.98c-12.19,4.49-24.7,8.15-37.41,10.87-25.1,5.38-51.12,7.08-76.64,3.91-24.36-3.02-48.1-10.8-69.15-23.46-19.09-11.48-35.8-26.67-49.61-44.12-13.82-17.46-24.72-37.33-32.21-58.28-8.68-24.28-12.76-50.07-12.88-75.82s3.99-53.43,11.53-79.08c3.58-12.18,7.8-24.29,13.16-35.82,4.81-10.36,10.73-20.43,18.92-28.5,3.89-3.83,8.25-7.08,13.07-9.65,2.62-1.4,.29-5.38-2.33-3.98Z"/>
    </g>
    <path class="cls-13" d="M569.54,453.51c-12.44,28.81-34.67,53.63-56.21,77.11-8.12,8.85-16.33,17.78-26.18,24.66-9.1,6.35-19.38,10.79-29.79,14.63-53.66,19.77-115.12,23.85-167.26,.37-40.96-18.44-73.3-53.06-92.6-93.79,.4,1.59,.82,3.18,1.26,4.77,15.23,54.8,53.29,104.07,105.16,127.43,52.14,23.48,113.6,19.4,167.26-.37,10.41-3.84,20.7-8.28,29.79-14.63,9.85-6.88,18.06-15.81,26.18-24.66,27.65-30.15,56.45-62.49,64.2-102.66l-21.81-12.85Z"/>
    <path class="cls-14" d="M247.02,262.16c-21.21,11.33-32.22,34.33-40.3,55.87-9.66,25.76-15.85,52.87-17.92,80.31-2.05,27.18,.08,54.77,7.09,81.14,5.91,22.24,15.47,43.55,28.19,62.73s28.42,36.06,46.82,49.71c19.55,14.5,42,24.69,65.72,30.11,25.61,5.85,52.21,6.32,78.18,2.8,13.13-1.78,26.11-4.58,38.83-8.3,12.93-3.78,25.92-8.27,37.89-14.49,12.25-6.37,22.33-15.4,31.72-25.41,8.8-9.38,17.47-18.92,25.81-28.71,16.17-19,31.15-39.61,39.64-63.28,2.06-5.76,3.69-11.66,4.87-17.66,.2-1.02-.13-2.06-1.06-2.6l-9.22-5.43c-8.29-4.89-16.59-9.77-24.88-14.66-12.34-7.27-24.69-14.55-37.03-21.82-15.01-8.85-30.03-17.69-45.04-26.54-16.44-9.69-32.88-19.38-49.33-29.07s-33.19-19.56-49.79-29.34c-15.48-9.12-30.95-18.24-46.43-27.36-13.12-7.73-26.24-15.46-39.36-23.19-9.37-5.52-18.74-11.05-28.12-16.57-4.47-2.63-8.89-5.36-13.41-7.9-.19-.11-.38-.22-.57-.33-2.56-1.51-4.88,2.47-2.33,3.98,3.07,1.81,6.15,3.62,9.22,5.43,8.29,4.89,16.59,9.77,24.88,14.66,12.34,7.27,24.69,14.55,37.03,21.82,15.01,8.85,30.03,17.69,45.04,26.54,16.44,9.69,32.88,19.38,49.33,29.07,16.6,9.78,33.19,19.56,49.79,29.34,15.48,9.12,30.95,18.24,46.43,27.36,13.12,7.73,26.24,15.46,39.36,23.19,9.37,5.52,18.74,11.05,28.12,16.57,4.44,2.62,8.82,5.55,13.41,7.9,.19,.1,.38,.22,.57,.33l-1.06-2.6c-4.74,24.19-17.24,45.72-32.09,65.09-7.54,9.84-15.73,19.17-24.04,28.36-8.69,9.61-17.26,19.58-27.22,27.91s-22.61,14.34-35.21,18.98c-12.19,4.49-24.7,8.15-37.41,10.87-25.1,5.38-51.12,7.08-76.64,3.91-24.36-3.02-48.1-10.8-69.15-23.46-19.09-11.48-35.8-26.67-49.61-44.12-13.82-17.46-24.72-37.33-32.21-58.28-8.68-24.28-12.76-50.07-12.88-75.82s3.99-53.43,11.53-79.08c3.58-12.18,7.8-24.29,13.16-35.82,4.81-10.36,10.73-20.43,18.92-28.5,3.89-3.83,8.25-7.08,13.07-9.65,2.62-1.4,.29-5.38-2.33-3.98Z"/>
    <path class="cls-10" d="M345.87,226.77c-9.23-23.44-3.63-49.97,4.26-73.89,4.79-14.53,10.44-28.89,18.53-41.88,16.14-25.9,41.52-45.26,69.48-57.49,27.96-12.23,58.47-17.72,88.91-19.87,35.33-2.5,72.1-.34,103.9,15.26,19.5,9.56,36.58,24.04,49.2,41.72,8.56,11.98,15.04,25.3,20.98,38.78,16.94,38.47,29.88,80.26,25.32,122.05-1.78,16.29-6.19,32.2-11.93,47.55-22.74,60.8-70.81,115.45-133.96,130.49l-234.7-202.7Z"/>
    <path class="cls-13" d="M701.13,129.39c-5.93-13.47-12.42-26.8-20.98-38.78-12.63-17.68-29.7-32.15-49.2-41.72-23.49-11.52-49.69-15.7-76.02-16.09,26.05,18.44,46.89,44.27,61.08,73,17.86,36.16,25.71,76.68,27.02,116.99,.39,12.02,.21,24.13-1.9,35.97-4.86,27.33-19.65,51.76-34.85,74.98-16.34,24.97-33.95,49.82-56.36,69.27l30.64,26.46c63.15-15.04,111.22-69.69,133.96-130.49,5.74-15.35,10.15-31.26,11.93-47.55,4.56-41.79-8.38-83.57-25.32-122.05Z"/>
    <path class="cls-14" d="M348.09,226.15c-5.48-14.16-5.63-29.52-3.09-44.34,2.54-14.89,7.3-29.5,12.8-43.54s12.21-26.76,21.44-38.22c8.38-10.4,18.31-19.54,29.21-27.24,24.06-17,52.21-26.91,81.02-32.24,15.17-2.81,30.57-4.41,45.98-5.15s30.01-.5,44.88,1.34c28.81,3.57,56.5,14.07,78.39,33.48,10.73,9.51,19.66,20.69,26.88,33.06,7.86,13.46,14.14,27.91,19.89,42.37,11.55,29.05,20.11,59.95,19.55,91.45-.52,29.35-9.8,58.27-22.83,84.38-11.18,22.39-25.76,43.15-43.63,60.71-17.51,17.21-38.29,31.32-61.4,39.81-5.64,2.07-11.4,3.8-17.24,5.2l2.24,.59c-2.1-1.81-4.2-3.62-6.29-5.44-5.68-4.9-11.36-9.81-17.03-14.71-8.43-7.28-16.86-14.56-25.3-21.85-10.24-8.85-20.49-17.69-30.73-26.54-11.27-9.73-22.54-19.47-33.81-29.2s-22.75-19.65-34.13-29.48c-10.56-9.12-21.12-18.24-31.69-27.37-8.97-7.74-17.93-15.49-26.9-23.23-6.42-5.55-12.84-11.09-19.26-16.64-3.06-2.64-6.09-5.32-9.17-7.92-.13-.11-.26-.23-.39-.34-2.23-1.93-5.51,1.32-3.26,3.26,2.39,2.06,4.78,4.13,7.17,6.19l19.45,16.8c9.45,8.16,18.89,16.32,28.34,24.47,11.35,9.81,22.71,19.61,34.06,29.42,12.19,10.53,24.38,21.05,36.56,31.58,11.99,10.36,23.99,20.72,35.98,31.08l31.88,27.53c8.23,7.11,16.47,14.22,24.7,21.33,4.77,4.12,9.53,8.23,14.3,12.35,.74,.64,1.46,1.36,2.25,1.94,1.59,1.18,3.35,.36,5.09-.1,2.91-.75,5.79-1.59,8.65-2.52,5.6-1.81,11.09-3.95,16.45-6.35,21.78-9.77,41.24-24.37,57.65-41.63,16.65-17.51,30.36-37.81,40.86-59.56,12.27-25.41,21.08-53.23,21.97-81.59,.95-30.37-6.57-60.41-17.25-88.64-5.25-13.87-11.09-27.64-17.9-40.82-6.55-12.67-14.43-24.59-24.28-34.96-19.05-20.06-43.83-33.3-70.7-39.44-28.2-6.44-57.69-5.98-86.3-2.93-29.23,3.12-58.38,9.76-84.78,22.99-23.07,11.56-43.91,28.19-58.61,49.55-8.25,11.99-14.18,25.37-19.08,39.03-4.93,13.75-9.16,27.85-11.03,42.37-1.77,13.73-1.07,27.89,3.97,40.9,1.06,2.74,5.52,1.55,4.44-1.22Z"/>
    <g>
      <path class="cls-15" d="M272.48,465.12c-17.31-25.9-34.76-52.08-45.86-81.19-11.1-29.11-15.44-61.83-5.92-91.49,4.93-15.35,13.44-29.46,24.22-41.45,32.61-36.28,84.53-51.19,133.13-46.93,48.6,4.26,94.25,25.63,135.08,52.32,22.16,14.49,43.51,30.91,59.54,51.99,29.19,38.39,38.07,89.29,33.59,137.31-1.99,21.31-7.08,43.69-22.21,58.83-13.25,13.25-32.16,18.91-50.47,22.87-44.27,9.58-90.37,12.02-134.97,4.1-40.54-7.2-79.8-23.17-112.54-48.04-6.17-4.69-10.88-11.05-13.6-18.31h0Z"/>
      <path class="cls-14" d="M274.47,463.95c-21.83-32.66-44.36-66.35-53.08-105.26-4.28-19.1-5.16-39.23-.52-58.35s13.97-35.04,26.68-48.84c22.71-24.67,54.62-38.93,87.45-43.89,36.08-5.46,72.76,1.01,106.6,13.91,17.81,6.79,34.91,15.37,51.33,25.01,16.43,9.64,32.53,20.16,47.31,32.21,14.31,11.66,27.31,24.99,37.3,40.57,9.62,15.01,16.48,31.62,20.93,48.86,4.44,17.23,6.49,35,6.59,52.78,.1,17.47-1.1,35.53-6.09,52.35-2.39,8.07-5.8,15.84-10.71,22.7s-11.68,12.61-19.18,16.83c-16.19,9.11-35.4,12.57-53.51,15.68-40.73,6.98-82.92,7.64-123.51-.65-36.66-7.48-71.97-22.2-102.15-44.45-6.73-4.96-12.22-10.98-15.2-18.92-1.03-2.75-5.49-1.56-4.44,1.22,3.14,8.38,8.61,15.14,15.72,20.48,7.6,5.7,15.55,10.94,23.77,15.69,16.65,9.63,34.43,17.31,52.76,23.09,39.57,12.48,81.65,15.76,122.88,12.08,20.48-1.83,41.18-5,61.03-10.44,17.36-4.76,34.09-12.57,45.1-27.33s14.65-32.14,16.61-49.4c2.07-18.22,2.1-36.75-.06-54.96-4.34-36.69-18-72-43.18-99.45-13.08-14.26-28.49-26.22-44.48-37.05-16.29-11.02-33.25-21.12-50.93-29.76-34.27-16.74-72-28.22-110.44-27.63-34.17,.52-69.04,10.29-96.62,30.91-14.5,10.85-26.89,24.56-35.6,40.48-9.5,17.36-13.93,36.87-13.65,56.62,.58,41.09,19.5,78.58,41.08,112.51,5.29,8.32,10.76,16.51,16.24,24.71,1.64,2.45,5.63,.15,3.98-2.33Z"/>
    </g>
    <path class="cls-3" d="M340.08,446.54c5.17-3.15,11.44-3.72,17.46-4.41,53.24-6.06,104.69-27.08,146.94-60.03,7.5-5.85,14.8-12.12,23.3-16.41,9.35-4.71,19.77-6.82,30.04-8.88,12.39-2.48,24.77-4.97,37.16-7.45-5.44-14.64-12.79-28.5-22.3-41.01-2.88-3.79-5.94-7.42-9.13-10.92-30.69,17.69-55.75,45.66-84.07,67.82-27.79,21.75-59.62,38.33-93.37,48.63-12.68,3.87-25.61,6.86-38.53,9.85-29.61,6.85-59.22,13.7-88.84,20.55,4.51,6.99,9.13,13.92,13.74,20.82,2.73,7.26,7.43,13.62,13.6,18.31,7.21,5.48,14.76,10.5,22.55,15.12,5.75-13.52,12.48-26.63,20.19-39.14,3.02-4.9,6.34-9.87,11.26-12.86Z"/>
    <path class="cls-14" d="M274.47,463.95c-21.83-32.66-44.36-66.35-53.08-105.26-4.28-19.1-5.16-39.23-.52-58.35s13.97-35.04,26.68-48.84c22.71-24.67,54.62-38.93,87.45-43.89,36.08-5.46,72.76,1.01,106.6,13.91,17.81,6.79,34.91,15.37,51.33,25.01,16.43,9.64,32.53,20.16,47.31,32.21,14.31,11.66,27.31,24.99,37.3,40.57,9.62,15.01,16.48,31.62,20.93,48.86,4.44,17.23,6.49,35,6.59,52.78,.1,17.47-1.1,35.53-6.09,52.35-2.39,8.07-5.8,15.84-10.71,22.7s-11.68,12.61-19.18,16.83c-16.19,9.11-35.4,12.57-53.51,15.68-40.73,6.98-82.92,7.64-123.51-.65-36.66-7.48-71.97-22.2-102.15-44.45-6.73-4.96-12.22-10.98-15.2-18.92-1.03-2.75-5.49-1.56-4.44,1.22,3.14,8.38,8.61,15.14,15.72,20.48,7.6,5.7,15.55,10.94,23.77,15.69,16.65,9.63,34.43,17.31,52.76,23.09,39.57,12.48,81.65,15.76,122.88,12.08,20.48-1.83,41.18-5,61.03-10.44,17.36-4.76,34.09-12.57,45.1-27.33s14.65-32.14,16.61-49.4c2.07-18.22,2.1-36.75-.06-54.96-4.34-36.69-18-72-43.18-99.45-13.08-14.26-28.49-26.22-44.48-37.05-16.29-11.02-33.25-21.12-50.93-29.76-34.27-16.74-72-28.22-110.44-27.63-34.17,.52-69.04,10.29-96.62,30.91-14.5,10.85-26.89,24.56-35.6,40.48-9.5,17.36-13.93,36.87-13.65,56.62,.58,41.09,19.5,78.58,41.08,112.51,5.29,8.32,10.76,16.51,16.24,24.71,1.64,2.45,5.63,.15,3.98-2.33Z"/>
    <path class="cls-15" d="M318.48,434.64c-27.11-29.89-42.62-70.03-42.66-110.39-.02-20.58,4.81-42.87,20.54-56.14,5.71-4.82,12.53-8.14,19.44-10.98,8.92-3.66,18.15-6.61,27.63-8.34,29.26-5.35,59.75,1.09,86.85,13.37,27.09,12.28,51.24,30.15,74.58,48.59,16.17,12.78,32.66,26.68,40.62,45.69,4.13,9.87,5.71,20.58,7.16,31.18,1.77,12.88,3.39,25.93,2,38.86-1.4,12.93-6.1,25.91-15.39,35.01-13.35,13.09-33.33,16.02-51.88,18.29-10.73,1.31-21.46,2.63-32.18,3.94-11.5,1.41-23.06,2.82-34.63,2.38-34.37-1.32-65.97-18.83-92.98-40.42-3.76-3.01-6.85-6.77-9.09-11.04h0Z"/>
    <path class="cls-8" d="M342.29,378.72c4.99-18.9,11.68-37.61,22.75-53.71,20.41-29.67,55.88-48.2,91.82-48.64-8.58-5.24-17.41-10.05-26.58-14.21-10.35-4.69-21.2-8.52-32.28-11.18-13.49,1.58-26.68,5-38.95,10.79-24.18,11.41-44.38,32.85-50.31,58.92-2.26,9.95-2.44,20.27-1.78,30.46,2.19,33.89,13.45,66.4,25.4,98.27,3.37,2.58,6.8,5.08,10.3,7.49-4.37-9.9-6.5-20.84-6.86-31.7-.51-15.7,2.49-31.31,6.49-46.5Z"/>
    <path class="cls-5" d="M308.73,320.69c5.93-26.07,26.13-47.51,50.31-58.92,12.28-5.79,25.47-9.21,38.95-10.79-17.93-4.29-36.48-5.5-54.56-2.19-9.48,1.73-18.72,4.68-27.63,8.34-6.91,2.84-13.73,6.16-19.44,10.98-15.73,13.27-20.56,35.56-20.54,56.14,.04,40.35,15.56,80.49,42.66,110.39,2.24,4.26,5.33,8.03,9.09,11.04,1.58,1.26,3.18,2.51,4.78,3.74-11.95-31.86-23.21-64.38-25.4-98.27-.66-10.18-.48-20.51,1.78-30.46Z"/>
    <path class="cls-14" d="M320.11,433.01c-17.12-18.95-29.54-41.96-36.26-66.59-3.36-12.3-5.29-24.97-5.66-37.71-.34-11.77,.61-23.69,4.3-34.93,3.69-11.27,10.4-21.24,20.5-27.67,5.85-3.73,12.32-6.45,18.81-8.86,6.66-2.47,13.5-4.5,20.47-5.89,27.37-5.46,55.85-.12,81.36,10.41s48.67,26.65,70.52,43.51c19.62,15.13,42.17,31.38,50.63,55.76,2.34,6.74,3.67,13.78,4.74,20.83s2.13,14.76,2.77,22.17c1.19,13.61,.85,27.7-4.48,40.48-4.78,11.46-13.47,19.99-24.79,24.96s-23.22,6.47-35.05,7.93c-14.92,1.84-29.84,3.87-44.8,5.41-14.02,1.44-27.95,1.52-41.78-1.46-25.52-5.51-48.68-19-69.11-34.87-4.77-3.71-8.96-7.58-11.81-13-1.38-2.62-5.36-.3-3.98,2.33,3.03,5.75,7.46,9.99,12.53,13.93,5.41,4.21,10.96,8.24,16.69,12.01,11.31,7.43,23.31,13.85,35.99,18.59,12.43,4.65,25.56,7.56,38.84,8.07,15.71,.6,31.43-1.98,46.98-3.89,13.77-1.69,27.78-2.82,41.35-5.82,11.98-2.64,23.93-7.31,32.65-16.24,20.75-21.25,16.53-53.75,12.63-80.4-2.06-14.1-5.55-27.61-13.69-39.51-7.38-10.78-17.08-19.69-27.13-27.93-21.86-17.91-44.75-35.29-69.81-48.52-25.34-13.37-53.74-22.36-82.64-21.45-14.81,.46-29.25,3.8-43.02,9.18-12.46,4.88-24.07,11.14-31.88,22.36-6.91,9.93-10.22,21.91-11.66,33.79-1.54,12.73-.86,25.72,1.02,38.37,3.87,26.1,14.05,51.35,29.37,72.83,3.75,5.26,7.8,10.3,12.13,15.09,1.99,2.21,5.24-1.06,3.26-3.26Z"/>
    <path class="cls-4" d="M623.33,258.53c-.35-5.69-.17-11.72,2.61-16.85,2.49-4.61,6.74-7.66,12.03-8.08s10.76,1.07,14.74,4.29c4.33,3.51,5.25,8.98,4.86,14.26-.4,5.4-1.55,12.22-5.81,15.97-2.23,1.96,1.04,5.21,3.26,3.26,4.76-4.19,6.18-11.07,6.94-17.1,.8-6.33,.09-13.04-4.28-18s-11.11-7.11-17.3-7.34-12.56,2.35-16.52,7.51c-4.83,6.29-5.61,14.41-5.13,22.07,.18,2.95,4.79,2.97,4.61,0h0Z"/>
    <path class="cls-4" d="M675.65,242.33c1.17-10.19,11.22-17.84,20.76-19.69,5.43-1.05,10.6,.65,12.96,5.9,2.05,4.57,2.21,10.34,1.92,15.26-.19,3.07-.99,6.16-3.26,8.35-2.17,2.09-5.09,2.98-8.05,2.73s-2.94,4.36,0,4.61c6.82,.57,13.07-3.87,15.06-10.35,1.05-3.43,1.01-7.14,.85-10.69-.15-3.24-.5-6.57-1.51-9.67-2.1-6.43-7.12-10.76-14.01-11.05-6.55-.27-13.32,2.69-18.45,6.59-5.86,4.46-10.01,10.61-10.86,18.01-.34,2.94,4.27,2.92,4.61,0h0Z"/>
    <path class="cls-4" d="M655.54,289.45c2.87-1.92,5.74-3.85,8.61-5.77,1.25-.84,2.51-1.88,3.91-2.45,1.66-.68,3.46-.24,5.15,.14,4.8,1.07,10.28,2.49,11.22,8.06,1.83,10.83-3.13,25.57-13.46,30.7-4.74,2.35-11.25,1.42-13.71-3.69-1.29-2.67-5.26-.34-3.98,2.33,2.72,5.66,9.5,8.06,15.44,6.95,6.85-1.28,12.15-6.91,15.49-12.7,3.77-6.55,5.6-14.33,5.02-21.87-.27-3.46-1.06-6.83-3.66-9.31-2.27-2.17-5.29-3.37-8.27-4.21-3.88-1.08-8.14-2.21-11.91-.23-4.25,2.22-8.19,5.41-12.18,8.08-2.45,1.64-.15,5.64,2.33,3.98h0Z"/>
  </g>
</svg>