<svg id="Layer_2" data-name="Layer 2" xmlns="http://www.w3.org/2000/svg" viewBox="0 0 1000 1000"><defs><style>.cls-1{fill:#bf571b;stroke:#a34111;}.cls-1,.cls-2{stroke-miterlimit:10;stroke-width:3px;}.cls-2{fill:#767b7b;stroke:#5d6060;}.cls-3{fill:#bebfc3;}.cls-4{fill:#e3850b;}.cls-5{fill:#eceeef;}</style></defs><title>beer</title><path class="cls-1" d="M369.5,476.5v395c0,9-5,67,19,83s152,20,196,4c0,0,26-10,26-63,0,0-1-20-3-34s3-390,3-390,3-32-7-48-41-74-49-156-19-176-17-178,9-2,6-10-10-10-5-13-3-22-3-22l-90-3-6,30s-8,10,1,18l-19,200s-14,81-42,127C379.5,416.5,363.5,436.5,369.5,476.5Z"/><path class="cls-2" d="M434.5,64.5c-1-.24-2-25,17-31s73-3,79,0,14,13,15,22-1,13-8,8-10-8-16-6-10,2-16,0-12-4-15-1-11,1-16,0-11-1-12,1-9-2-13-1-5.19,6.94-8.09,5.47S438.5,65.5,434.5,64.5Z"/><path class="cls-3" d="M441.5,243.5c1,0,22,7,37,8s33,0,43-4,28-3,28-3l-7-74s-50-34-104,0l-4,3-6,70Z"/><ellipse class="cls-3" cx="487.96" cy="681.22" rx="113.48" ry="178.17"/><path class="cls-4" d="M374.5,516.5s0-71,5-82,24-34,32-51,17-52,17-68,5-61,7-64,28,1,31,4-18,36-19,61,1,64-7,89-35,30-42,55-10,57-11,74-9,40-10,33S374.5,516.5,374.5,516.5Z"/><path class="cls-4" d="M442.5,156.5c1,0,21-5,24-10s3-32,3-38,2-33,2-37-1-10-2-10-27,3-25,6-4,11-2,14,4,5,3,14-7,67-7,67Z"/><path class="cls-4" d="M378.5,836.5s1,80,3,86,7,24,14,28,49,11,62,13,54,1,69,0,46-7,54-10,25-24,14-22-82,18-105,16-61-5-70-13-19-34-18-51,1-54-5-62S377.5,780.5,378.5,836.5Z"/><path class="cls-5" d="M441.5,45.5s52,1,71,0,21,0,20-4-9-7-19-8-26,1-34,0a53.39,53.39,0,0,0-22,2C450.5,37.5,441.5,42.5,441.5,45.5Z"/></svg>