<svg id="Layer_2" data-name="Layer 2" xmlns="http://www.w3.org/2000/svg" viewBox="0 0 1000 1000"><defs><style>.cls-1{fill:#993c00;}.cls-1,.cls-3,.cls-4,.cls-7{stroke:#7c2d01;stroke-miterlimit:10;stroke-width:3px;}.cls-2{fill:#e18601;}.cls-3{fill:#cca770;}.cls-4{fill:#c69b63;}.cls-5{fill:#7c1407;}.cls-6,.cls-7{fill:#ecc792;}</style></defs><title>whisky</title><path class="cls-1" d="M330,663.89s4.71,251.76,2.83,254.59-3.77,21.69,8.48,29.23,44.32,21.69,181,19.8,132-12.26,157.47-25.46c0,0,8.49-9.43,0-24.51l3.77-302.68s5.66-78.26-4.71-108.44-31.12-66-84.86-97.12c0,0-13.2-10.37-14.15-26.4s4.72-35.83,5.66-42.43-.94-29.23-9.43-60.34-136.72-12.26-136.72-12.26-17,47.14-11.32,77.32,6.6,47.14-3.77,59.4-60.35,33-77.32,73.55S330,519.63,330,596Z"/><path class="cls-2" d="M439.85,296.63c-2.83,2.82-6.13,18.38-4.24,28.76s5.65,38.65,6.6,50.91.94,25.46-6.6,34.89-26.41,21.69-33,25.46-30.17,24.51-39.6,41.49S347.92,515.85,347.92,530s-2.83,106.55-3.78,119.75-.94,77.32,0,80.15S347.92,813.82,347,828s26.4-11.32,25.46-62.23,5.66-134.84,6.6-148S391.29,503.6,409.2,490.4s46.21-39.61,59.41-49,21.69-34.88,21.69-45.26-8.49-25.46-8.49-32.06-1.89-35.83,0-46.2,3.3-14.61,3.3-17.44S439.85,296.63,439.85,296.63Z"/><path class="cls-3" d="M433.21,288.54c-.43.07,50.49,9.92,145.72,2.64,0,0-9.43-54.43-12.26-71.4l-2.83-17s.95-10.38,1.89-15.09-3.77-8.49-1.89-17,1.89-38.66,1.89-66.95.94-38.66-3.77-42.43-105.61-3.77-107.5-2.83-7.54,5.66-7.54,17.92V163.2c0,1.89,1.89,9.43,1.89,11.32s-1.89,11.31-.95,16,2.83,17,1.89,19.8S433.21,288.54,433.21,288.54Z"/><path class="cls-4" d="M442.21,162.26s65.06,5.66,126.35,0c0,0,5.66-103.72,0-108.43S454.46,49.11,450.69,51s-7.54,9.43-8.48,23.57S442.21,162.26,442.21,162.26Z"/><path class="cls-5" d="M336.6,921.31S332.83,949.59,379,956.2s166,5.65,175.38,5.65,80.15-4.71,96.18-10.37,22.63-9.43,24.52-14.14,2.83-14.15,1.88-16,0-5.66-2.83-6.6-9.43,14.14-18.85,17-91.47,12.26-136.73,10.37-105.6-3.77-133-7.54-36.77-11.32-38.66-13.2S338.49,917.54,336.6,921.31Z"/><path class="cls-6" d="M451.64,158.49c3.75.37,10.37,0,11.31-6.6s3.77-64.12,4.72-66-4.72-14.14,26.4-17,42.43-.94,51.86,0,25.46-12.26,17-12.26-83-2.82-90.52-2.82-14.14.94-17,1.88-8.49,34.93-8.49,66S442.21,157.55,451.64,158.49Z"/><path class="cls-6" d="M447.86,238.64c0-.95,6.6-24.52,7.55-29.23s-1-7.55-1.89-14.15-4.71-14.14-1.88-17-1.89-8.49,0-9.43,18.85-.94,17.91.94,0,9.43-1.88,10.38-2.83,7.54,0,12.25,1.88,25.46-3.78,34.89-7.54,22.63-10.37,25.46-5.66,9.43-7.54,5.66S447.86,238.64,447.86,238.64Z"/><path class="cls-7" d="M610.23,704.74a34.09,34.09,0,0,1-26.35,28.06c-25.5,5.77-66.17,14.07-77.55,14.07-14.43,0-89.58-12.26-99.95-27.35-8.45-12.28-6.08-177.5-2.83-184.81,3.77-8.48,96.47-51.47,107.49-50.92,18.86.95,91.46,37.72,101.83,54.69C621.18,552.07,617.31,656.86,610.23,704.74Z"/><path class="cls-7" d="M556.68,705.63c-3.95,2.58-75.47,10.53-100.62-7.39s-36.91-89.69-31.15-116.68,47.75-57.95,90.87-52.9,65.31,24.65,70.61,29.77S594.41,681,556.68,705.63Z"/><path class="cls-7" d="M382.8,707.27S427.12,677.09,496,679s120.7,24.51,128.24,30.17,22.63-9.43,23.57-23.57,14.15-22.63-17-37.72-138.61-27.34-174.44-22.63-55.63,10.37-66,16S380,652.58,379,663,376.2,711,382.8,707.27Z"/></svg>