<svg id="Layer_2" data-name="Layer 2" xmlns="http://www.w3.org/2000/svg" viewBox="0 0 1000 1000"><defs><style>.cls-1{fill:#292a2e;stroke:#131314;}.cls-1,.cls-2{stroke-miterlimit:10;stroke-width:3px;}.cls-2{fill:#860102;stroke:#4c0004;}.cls-3{fill:#c4c3c8;}.cls-4{fill:#cb7f89;}.cls-5{fill:#a7b0b9;}.cls-6{fill:#8e94a2;}</style></defs><title>wine</title><path class="cls-1" d="M380.5,863.5l2,42s2,27,34,31,81,11,161,0c0,0,24-5,26-40s1-525,1-525-1-35-29-60-35-37-37-50-3-76-3-76h-85l-3,78s4,17-40,54c0,0-26,26-27,61S380.5,863.5,380.5,863.5Z"/><path class="cls-2" d="M446.5,228.5s38,6,92,0c0,0,1-105,0-105s-5-1-5-3,1.42-4.42,3-6c1-1,1,0,2-3s0-44,0-44a22.69,22.69,0,0,1-1-4,10.07,10.07,0,0,1,1-3s1-11,0-13-7-5-17-5h-60s-12,1-13,8-1,13,0,14,3,1,2,2-2,1-2,5,1,42,1,42,3,2,3,4-1,5-3,6-1,12-1,13S446.5,228.5,446.5,228.5Z"/><path class="cls-3" d="M387.5,421.5s113,12,211,0l-3,338s-113,22-205,0Z"/><path class="cls-4" d="M519.5,47.5s-29-2-38-2-21,0-23,1-8,8-7,11-2-5,12-6,22-2,38,0,27-1,32,2,6-3,2-5S519.5,47.5,519.5,47.5Z"/><path class="cls-4" d="M452.5,69.5c1,8,2,34,2,37s2,10,2,12-4,8-4,13v26c0,8-2,62-1,64s20,6,23,5-13-3-14-12,1-60,1-65,0-16,2-23,3-12,1-18-5-15-4-24,4-17,1-17-.83-15.67-.83-15.67h-6L451.5,58.5Z"/><path class="cls-5" d="M453.5,232.5s30,0,29,3-10,7-10,15,3,24,2,34,1,34-4,39-37,25-42,29-15,12-18,16-9,13-10,20,1,23,0,24-13,9-13-15,0-37,7-48,23-28,32-37,22-21,25-26,6-30,5-36Z"/><path class="cls-6" d="M387.5,769.5s2,101,2,106,2,31,5,37,11,11,16,14,29,8,36,8,43,2,46,2,63-1,66-2,17-1,21-6,15-19,13-22-91,13-128,8-56-4-58-15-6-56-3-69,6-51,16-55S394.5,767.5,387.5,769.5Z"/><path class="cls-2" d="M451.5,66.5s21,5,86-3"/><path class="cls-2" d="M449.5,113.5s43.94,3.9,88.47-.55"/><path class="cls-2" d="M449.5,123.5s35,6,89,0"/></svg>