<?xml version="1.0" encoding="UTF-8" standalone="no"?>
<!-- Created with Inkscape (http://www.inkscape.org/) -->

<svg
   xmlns:dc="http://purl.org/dc/elements/1.1/"
   xmlns:cc="http://creativecommons.org/ns#"
   xmlns:rdf="http://www.w3.org/1999/02/22-rdf-syntax-ns#"
   xmlns:svg="http://www.w3.org/2000/svg"
   xmlns="http://www.w3.org/2000/svg"
   xmlns:sodipodi="http://sodipodi.sourceforge.net/DTD/sodipodi-0.dtd"
   xmlns:inkscape="http://www.inkscape.org/namespaces/inkscape"
   width="1000"
   height="1000"
   viewBox="0 0 264.58333 264.58334"
   version="1.1"
   id="svg2383"
   inkscape:version="0.92.5 (2060ec1f9f, 2020-04-08)"
   sodipodi:docname="write.svg"
   enable-background="new">
  <defs
     id="defs2377" />
  <sodipodi:namedview
     id="base"
     pagecolor="#ffffff"
     bordercolor="#666666"
     borderopacity="1.0"
     inkscape:pageopacity="0.0"
     inkscape:pageshadow="2"
     inkscape:zoom="0.70710678"
     inkscape:cx="374.85533"
     inkscape:cy="514.27115"
     inkscape:document-units="px"
     inkscape:current-layer="g350"
     showgrid="false"
     units="px"
     inkscape:window-width="1920"
     inkscape:window-height="1031"
     inkscape:window-x="0"
     inkscape:window-y="25"
     inkscape:window-maximized="1"
     showguides="true"
     inkscape:lockguides="true"
     inkscape:object-nodes="false"
     inkscape:snap-nodes="false"
     inkscape:snap-others="false" />
  <metadata
     id="metadata2380">
    <rdf:RDF>
      <cc:Work
         rdf:about="">
        <dc:format>image/svg+xml</dc:format>
        <dc:type
           rdf:resource="http://purl.org/dc/dcmitype/StillImage" />
        <dc:title></dc:title>
      </cc:Work>
    </rdf:RDF>
  </metadata>
  <g
     inkscape:groupmode="layer"
     id="layer3"
     inkscape:label="Layer 2" />
  <g
     inkscape:groupmode="layer"
     id="layer2"
     inkscape:label="Layer 3" />
  <g
     inkscape:label="Layer 1"
     inkscape:groupmode="layer"
     id="layer1"
     transform="translate(0,-32.41665)">
    <text
       xml:space="preserve"
       style="font-style:normal;font-variant:normal;font-weight:bold;font-stretch:normal;font-size:10.58333302px;line-height:1.25;font-family:sans-serif;-inkscape-font-specification:'sans-serif Bold';letter-spacing:0px;word-spacing:0px;fill:#000000;fill-opacity:1;stroke:none;stroke-width:0.26458332"
       x="150.05655"
       y="89.869026"
       id="text8811" />
    <text
       xml:space="preserve"
       style="font-style:normal;font-variant:normal;font-weight:bold;font-stretch:normal;font-size:10.58333302px;line-height:1.25;font-family:sans-serif;-inkscape-font-specification:'sans-serif Bold';letter-spacing:0px;word-spacing:0px;fill:#000000;fill-opacity:1;stroke:none;stroke-width:0.26458332"
       x="160.63989"
       y="97.806526"
       id="text8815" />
    <text
       xml:space="preserve"
       style="font-style:normal;font-variant:normal;font-weight:bold;font-stretch:normal;font-size:10.58333302px;line-height:1.25;font-family:sans-serif;-inkscape-font-specification:'sans-serif Bold';letter-spacing:0px;word-spacing:0px;fill:#000000;fill-opacity:1;stroke:none;stroke-width:0.26458332"
       x="156.86011"
       y="88.7351"
       id="text8819" />
    <flowRoot
       xml:space="preserve"
       id="flowRoot8821"
       style="font-style:normal;font-variant:normal;font-weight:bold;font-stretch:normal;font-size:40px;line-height:1.25;font-family:sans-serif;-inkscape-font-specification:'sans-serif Bold';letter-spacing:0px;word-spacing:0px;fill:#000000;fill-opacity:1;stroke:none"><flowRegion
         id="flowRegion8823"
         style="font-style:normal;font-variant:normal;font-weight:bold;font-stretch:normal;font-family:sans-serif;-inkscape-font-specification:'sans-serif Bold'" /><flowPara
         id="flowPara8827" /></flowRoot>    <flowRoot
       xml:space="preserve"
       id="flowRoot8829"
       style="font-style:normal;font-variant:normal;font-weight:bold;font-stretch:normal;font-size:40px;line-height:1.25;font-family:sans-serif;-inkscape-font-specification:'sans-serif Bold';letter-spacing:0px;word-spacing:0px;fill:#000000;fill-opacity:1;stroke:none"><flowRegion
         id="flowRegion8831"
         style="font-style:normal;font-variant:normal;font-weight:bold;font-stretch:normal;font-family:sans-serif;-inkscape-font-specification:'sans-serif Bold'" /><flowPara
         id="flowPara8835" /></flowRoot>    <flowRoot
       xml:space="preserve"
       id="flowRoot8837"
       style="font-style:normal;font-variant:normal;font-weight:bold;font-stretch:normal;font-size:40px;line-height:1.25;font-family:sans-serif;-inkscape-font-specification:'sans-serif Bold';letter-spacing:0px;word-spacing:0px;fill:#000000;fill-opacity:1;stroke:none"><flowRegion
         id="flowRegion8839"
         style="font-style:normal;font-variant:normal;font-weight:bold;font-stretch:normal;font-family:sans-serif;-inkscape-font-specification:'sans-serif Bold'" /><flowPara
         id="flowPara8843" /></flowRoot>    <text
       xml:space="preserve"
       style="font-style:normal;font-variant:normal;font-weight:bold;font-stretch:normal;font-size:10.58333302px;line-height:1.25;font-family:sans-serif;-inkscape-font-specification:'sans-serif Bold';letter-spacing:0px;word-spacing:0px;fill:#000000;fill-opacity:1;stroke:none;stroke-width:0.26458332"
       x="209.39882"
       y="107.25594"
       id="text8847" />
    <flowRoot
       xml:space="preserve"
       id="flowRoot8849"
       style="font-style:normal;font-variant:normal;font-weight:bold;font-stretch:normal;font-size:40px;line-height:1.25;font-family:sans-serif;-inkscape-font-specification:'sans-serif Bold';letter-spacing:0px;word-spacing:0px;fill:#000000;fill-opacity:1;stroke:none"><flowRegion
         id="flowRegion8851"
         style="font-style:normal;font-variant:normal;font-weight:bold;font-stretch:normal;font-family:sans-serif;-inkscape-font-specification:'sans-serif Bold'" /><flowPara
         id="flowPara8855" /></flowRoot>    <flowRoot
       xml:space="preserve"
       id="flowRoot8857"
       style="font-style:normal;font-variant:normal;font-weight:bold;font-stretch:normal;font-size:40px;line-height:1.25;font-family:sans-serif;-inkscape-font-specification:'sans-serif Bold';letter-spacing:0px;word-spacing:0px;fill:#000000;fill-opacity:1;stroke:none"><flowRegion
         id="flowRegion8859"
         style="font-style:normal;font-variant:normal;font-weight:bold;font-stretch:normal;font-family:sans-serif;-inkscape-font-specification:'sans-serif Bold'" /><flowPara
         id="flowPara8863" /></flowRoot>    <flowRoot
       xml:space="preserve"
       id="flowRoot8865"
       style="font-style:normal;font-variant:normal;font-weight:bold;font-stretch:normal;font-size:40px;line-height:1.25;font-family:sans-serif;-inkscape-font-specification:'sans-serif Bold';letter-spacing:0px;word-spacing:0px;fill:#000000;fill-opacity:1;stroke:none"><flowRegion
         id="flowRegion8867"
         style="font-style:normal;font-variant:normal;font-weight:bold;font-stretch:normal;font-family:sans-serif;-inkscape-font-specification:'sans-serif Bold'" /><flowPara
         id="flowPara8871" /></flowRoot>    <flowRoot
       xml:space="preserve"
       id="flowRoot8873"
       style="font-style:normal;font-variant:normal;font-weight:bold;font-stretch:normal;font-size:40px;line-height:1.25;font-family:sans-serif;-inkscape-font-specification:'sans-serif Bold';letter-spacing:0px;word-spacing:0px;fill:#000000;fill-opacity:1;stroke:none"><flowRegion
         id="flowRegion8875"
         style="font-style:normal;font-variant:normal;font-weight:bold;font-stretch:normal;font-family:sans-serif;-inkscape-font-specification:'sans-serif Bold'" /><flowPara
         id="flowPara8879" /></flowRoot>    <text
       xml:space="preserve"
       style="font-style:normal;font-weight:normal;font-size:10.58333302px;line-height:1.25;font-family:sans-serif;letter-spacing:0px;word-spacing:0px;fill:#000000;fill-opacity:1;stroke:none;stroke-width:0.26458332"
       x="101.02788"
       y="69.125984"
       id="text977"><tspan
         sodipodi:role="line"
         id="tspan975"
         x="101.02788"
         y="78.489754"
         style="stroke-width:0.26458332" /><tspan
         sodipodi:role="line"
         x="101.02788"
         y="91.718918"
         style="stroke-width:0.26458332"
         id="tspan979" /><tspan
         sodipodi:role="line"
         x="101.02788"
         y="104.94809"
         style="stroke-width:0.26458332"
         id="tspan981" /><tspan
         sodipodi:role="line"
         x="101.02788"
         y="118.17725"
         style="stroke-width:0.26458332"
         id="tspan983" /><tspan
         sodipodi:role="line"
         x="101.02788"
         y="131.40642"
         style="stroke-width:0.26458332"
         id="tspan985" /><tspan
         sodipodi:role="line"
         x="101.02788"
         y="144.63559"
         style="stroke-width:0.26458332"
         id="tspan987" /><tspan
         sodipodi:role="line"
         x="101.02788"
         y="157.86475"
         style="stroke-width:0.26458332"
         id="tspan989" /><tspan
         sodipodi:role="line"
         x="101.02788"
         y="171.09392"
         style="stroke-width:0.26458332"
         id="tspan991" /><tspan
         sodipodi:role="line"
         x="101.02788"
         y="184.32309"
         style="stroke-width:0.26458332"
         id="tspan993" /><tspan
         sodipodi:role="line"
         x="101.02788"
         y="197.55225"
         style="stroke-width:0.26458332"
         id="tspan995" /><tspan
         sodipodi:role="line"
         x="101.02788"
         y="210.78142"
         style="stroke-width:0.26458332"
         id="tspan997" /><tspan
         sodipodi:role="line"
         x="101.02788"
         y="224.01059"
         style="stroke-width:0.26458332"
         id="tspan999" /><tspan
         sodipodi:role="line"
         x="101.02788"
         y="237.23975"
         style="stroke-width:0.26458332"
         id="tspan1001" /><tspan
         sodipodi:role="line"
         x="101.02788"
         y="250.46892"
         style="stroke-width:0.26458332"
         id="tspan1003" /><tspan
         sodipodi:role="line"
         x="101.02788"
         y="263.69809"
         style="stroke-width:0.26458332"
         id="tspan1005" /><tspan
         sodipodi:role="line"
         x="101.02788"
         y="276.92725"
         style="stroke-width:0.26458332"
         id="tspan1007" /><tspan
         sodipodi:role="line"
         x="101.02788"
         y="290.1564"
         style="stroke-width:0.26458332"
         id="tspan1009" /><tspan
         sodipodi:role="line"
         x="101.02788"
         y="303.38559"
         style="stroke-width:0.26458332"
         id="tspan1011" /><tspan
         sodipodi:role="line"
         x="101.02788"
         y="316.61475"
         style="stroke-width:0.26458332"
         id="tspan1013" /><tspan
         sodipodi:role="line"
         x="101.02788"
         y="329.8439"
         style="stroke-width:0.26458332"
         id="tspan1015" /><tspan
         sodipodi:role="line"
         x="101.02788"
         y="343.07309"
         style="stroke-width:0.26458332"
         id="tspan1017" /><tspan
         sodipodi:role="line"
         x="101.02788"
         y="356.30225"
         style="stroke-width:0.26458332"
         id="tspan1019" /><tspan
         sodipodi:role="line"
         x="101.02788"
         y="369.5314"
         style="stroke-width:0.26458332"
         id="tspan1021" /><tspan
         sodipodi:role="line"
         x="101.02788"
         y="382.76059"
         style="stroke-width:0.26458332"
         id="tspan1023" /></text>
    <g
       id="g350"
       transform="matrix(0.03291558,0,0,-0.03291558,-306.13476,362.40025)"
       style="stroke-width:1.5527097">
      <path
         d="m 12599.04,3058.953 c 56.955,-22.8522 297.47,-52.7915 373.097,-57.0022 28.81,241.7713 165.235,1202.1301 220.243,1516.3096 13.635,77.8519 147.663,78.1084 160.706,-4.2107 8.058,-50.8399 140.308,-1230.8882 173.225,-1533.3593 121.851,-13.5572 265.764,1.9001 372.512,33.7905 0,0 -37.76,2054.5956 -40.99,2368.5182 -204.869,39.2854 -901.518,64.7569 -1123.724,37.8476 -46.813,-322.4988 -94.957,-1899.5596 -135.069,-2361.8937"
         style="fill:#ffc19f;fill-opacity:1;fill-rule:nonzero;stroke:none;stroke-width:1.0717653"
         id="path1002"
         inkscape:connector-curvature="0" />
      <path
         d="m 13009.918,2804.8052 c -1.208,-6.9327 -467.264,25.6255 -467.9,34.1502 -5.476,74.4621 4.016,283.9325 2.351,327.0181 l 499.893,-34.5094 c -13.628,-79.4438 -25.593,-276.2812 -34.344,-326.6589"
         style="fill:#fff8b3;fill-opacity:1;fill-rule:nonzero;stroke:none;stroke-width:1.0717653"
         id="path1004"
         inkscape:connector-curvature="0" />
      <path
         d="m 12456.195,2949.2111 c 6.878,25.163 21.113,57.0021 32.148,86.1707 8.18,21.6196 219.787,18.1791 220.373,-33.8419 0.143,-13.3004 -0.386,-25.0601 -1.49,-35.6904 36.205,-0.3582 75.474,0.104 116.931,1.5919 90.156,3.2865 170.965,10.63 227.655,19.6684 3.681,-82.2169 -3.507,-224.5682 -0.169,-315.9771 0,0 -943.998,-176.7068 -1092.763,-39.799 -41.93,38.6178 195.076,210.0353 497.315,317.8774"
         style="fill:#ff871a;fill-opacity:1;fill-rule:nonzero;stroke:none;stroke-width:1.0717653"
         id="path1006"
         inkscape:connector-curvature="0" />
      <path
         d="m 13050.805,2728.4431 c 0.03,-20.2848 0.195,-39.9015 0.838,-57.3104 0,0 -943.998,-176.7068 -1092.763,-39.799 -5.911,5.4436 -6.178,13.5573 -1.602,23.7252 260.454,-56.4883 858.838,33.8932 1093.527,73.3842"
         style="fill:#b2450f;fill-opacity:1;fill-rule:nonzero;stroke:none;stroke-width:1.0717653"
         id="path1008"
         inkscape:connector-curvature="0" />
      <path
         d="m 12227.022,2863.3995 c 1.237,-7.1383 7.856,-12.1195 15.267,-10.7841 43.937,8.2164 101.813,-13.3519 140.25,-50.8914 2.701,-2.6189 6.235,-3.8515 9.722,-3.7487 3.272,0.1541 6.495,1.4895 8.955,3.9545 5.11,5.2379 5.018,13.6084 -0.21,18.7436 -44.143,43.0856 -111.123,67.0161 -163.201,57.9781 -7.194,-1.2323 -12.007,-8.0626 -10.783,-15.252 z m 224.922,-25.2144 c 2.721,-2.876 6.418,-4.2625 10.091,-4.1085 3.081,0.104 6.167,1.2841 8.586,3.5949 5.305,5.0324 5.531,13.4033 0.518,18.6925 -41.787,44.2153 -98.849,65.8866 -156.658,59.0563 -7.246,-0.8215 -12.444,-7.3432 -11.606,-14.6357 0.822,-7.2408 7.473,-12.941 14.637,-11.5545 29.091,3.3381 85.127,1.13 134.432,-51.045 z m 66.738,32.2496 c 2.696,-3.5945 6.878,-5.392 11.035,-5.238 2.605,0.104 5.23,0.9761 7.464,2.6706 5.816,4.365 6.978,12.6843 2.587,18.4872 -36.652,48.6313 -100.54,74.0001 -155.365,62.0862 -7.127,-1.5922 -11.636,-8.6789 -10.05,-15.7657 1.553,-7.138 8.546,-11.5028 15.735,-10.0651 45.057,10.1167 97.936,-11.5033 128.594,-52.1752"
         style="fill:#ffffff;fill-opacity:1;fill-rule:nonzero;stroke:none;stroke-width:1.0717653"
         id="path1010"
         inkscape:connector-curvature="0" />
      <path
         d="m 13510.146,2804.8052 c 1.211,-6.9327 450.061,25.6255 450.687,34.1502 5.479,74.4621 -7.262,283.9325 -5.604,327.0181 l -482.669,-34.5094 c 13.624,-79.4438 28.834,-276.2812 37.586,-326.6589"
         style="fill:#fff8b3;fill-opacity:1;fill-rule:nonzero;stroke:none;stroke-width:1.0717653"
         id="path1012"
         inkscape:connector-curvature="0" />
      <path
         d="m 14063.874,2949.2111 c -6.877,25.163 -21.117,57.0021 -32.153,86.1707 -8.175,21.6196 -219.783,18.1791 -220.368,-33.8419 -0.149,-13.3004 0.385,-25.0601 1.49,-35.6904 -36.205,-0.3582 -75.479,0.104 -116.937,1.5919 -90.151,3.2865 -170.966,10.63 -227.655,19.6684 -3.687,-82.2169 3.513,-224.5682 0.171,-315.9771 0,0 944.001,-176.7068 1092.762,-39.799 41.929,38.6178 -195.07,210.0353 -497.31,317.8774"
         style="fill:#ff871a;fill-opacity:1;fill-rule:nonzero;stroke:none;stroke-width:1.0717653"
         id="path1014"
         inkscape:connector-curvature="0" />
      <path
         d="m 13469.258,2728.4431 c -0.02,-20.2848 -0.195,-39.9015 -0.836,-57.3104 0,0 944.001,-176.7068 1092.762,-39.799 5.916,5.4436 6.177,13.5573 1.606,23.7252 -260.453,-56.4883 -858.837,33.8932 -1093.532,73.3842"
         style="fill:#b2450f;fill-opacity:1;fill-rule:nonzero;stroke:none;stroke-width:1.0717653"
         id="path1016"
         inkscape:connector-curvature="0" />
      <path
         d="m 14282.258,2878.6515 c -52.077,9.038 -119.058,-14.8925 -163.195,-57.9781 -5.229,-5.1352 -5.321,-13.5057 -0.216,-18.7436 2.459,-2.465 5.69,-3.8004 8.96,-3.9545 3.483,-0.1039 7.02,1.1298 9.717,3.7487 38.442,37.5395 96.313,59.1078 140.257,50.8914 7.405,-1.3354 14.024,3.6458 15.262,10.7841 1.222,7.1894 -3.59,14.0197 -10.785,15.252 z m -79.705,10.5786 c 7.179,-1.3865 13.814,4.3137 14.641,11.5545 0.836,7.2925 -4.365,13.8142 -11.612,14.6357 -57.808,6.8303 -114.867,-14.841 -156.658,-59.0563 -5.006,-5.2892 -4.781,-13.6601 0.519,-18.6925 2.424,-2.3108 5.504,-3.4919 8.592,-3.5949 3.671,-0.154 7.374,1.2325 10.089,4.1085 49.301,52.175 105.337,54.3831 134.429,51.045 z m -72.577,33.3798 c 7.193,-1.4377 14.183,2.9271 15.738,10.0651 1.588,7.0868 -2.922,14.1735 -10.05,15.7657 -54.829,11.9139 -118.713,-13.4549 -155.369,-62.0862 -4.385,-5.8029 -3.229,-14.1222 2.594,-18.4872 2.233,-1.6945 4.853,-2.5677 7.456,-2.6706 4.165,-0.154 8.335,1.6435 11.042,5.238 30.652,40.6719 83.529,62.2919 128.589,52.1752"
         style="fill:#ffffff;fill-opacity:1;fill-rule:nonzero;stroke:none;stroke-width:1.0717653"
         id="path1018"
         inkscape:connector-curvature="0" />
      <path
         d="m 12335.608,4282.7027 c 395.647,-178.5038 1142.852,-211.2675 1791.215,-6.0083 0,0 -160.085,720.0764 -187.318,815.3371 -323.259,27.0117 -1115.425,59.8776 -1391.238,37.6419 -28.161,-112.8748 -182.228,-704.7218 -212.659,-846.9707"
         style="fill:#0aa1c4;fill-opacity:1;fill-rule:nonzero;stroke:none;stroke-width:1.0717653"
         id="path1020"
         inkscape:connector-curvature="0" />
      <g
         id="g1022"
         transform="matrix(0.54777569,0,0,0.54777569,10083.04,-349.4184)"
         style="stroke-width:3.24057007">
        <path
           d="m 7853.14,12369.9 c 397.37,1045.3 454.09,1776.2 -98.69,3930.1 l -4298.81,-285 c -444.02,-1738.4 -411.55,-2680.3 -359.77,-3305.8 10.01,299.6 -80.15,917.5 312.03,2434.7 -341.28,-1912.3 -337.98,-2522.5 46.41,-2837 -248.06,404.4 -69.44,1543.1 -12.77,1687.4 7.88,-408.2 -37.74,-1189.2 192.91,-1778.1 128.82,-91.9 690.98,-266.9 863.51,-313.1 496.64,-133 2375.49,126.2 2953.9,261.2 24.3,49.2 72.93,1196.3 85.82,1355 33.9,-54 34.05,-1300 47.85,-1351.5 289.04,356.1 559.18,1402.7 312.95,2979.8 338.17,-1237.5 178.91,-1924.8 -45.34,-2777.7"
           style="fill:#ad5c49;fill-opacity:1;fill-rule:nonzero;stroke:none;stroke-width:3.24057007"
           id="path1024"
           inkscape:connector-curvature="0" />
      </g>
      <path
         d="m 12461.018,4940.0255 c 544.289,-126.0722 1310.152,-106.6608 1522.041,67.8376 -85.19,323.7316 -180.616,1256.9755 -185.566,1576.65 -212.007,41.2367 -843.524,49.7613 -1148.527,-6.5219 -34.212,-723.9279 -96.539,-1243.2639 -187.948,-1637.9657"
         style="fill:#ef507e;fill-opacity:1;fill-rule:nonzero;stroke:none;stroke-width:1.0717653"
         id="path1026"
         inkscape:connector-curvature="0" />
      <path
         d="m 13117.38,5618.6083 c -37.565,0 -68.439,14.2763 -79.767,40.6719 -18.016,41.9556 20.212,98.6496 85.401,126.6372 24.182,10.3734 48.667,15.3548 70.831,15.3548 13.584,0 26.293,-1.9002 37.529,-5.4948 l -8.13,226.1086 c -0.322,8.73 5.069,16.7412 13.322,19.7196 l 310.396,111.7963 c 2.217,0.8216 4.534,1.181 6.834,1.181 3.979,0 7.924,-1.181 11.313,-3.4405 5.331,-3.6462 8.627,-9.5518 8.853,-16.0223 l 8.894,-247.2664 c 14.837,-41.5961 -23.082,-96.1334 -86.632,-123.4533 -24.192,-10.3734 -48.688,-15.3546 -70.862,-15.3546 -37.56,0 -68.44,14.2761 -79.757,40.6718 -18.015,41.9557 20.207,98.6497 85.39,126.6372 24.176,10.3734 48.647,15.3548 70.8,15.3548 14.303,0 27.639,-2.1055 39.296,-6.1111 l -6.471,180.4556 -270.509,-97.4686 8.854,-246.5473 0.683,-1.438 c 18.01,-41.9556 -20.223,-98.6496 -85.396,-126.6373 -24.193,-10.3733 -48.698,-15.3546 -70.872,-15.3546"
         style="fill:#f7a9c0;fill-opacity:1;fill-rule:nonzero;stroke:none;stroke-width:1.0717653"
         id="path1028"
         inkscape:connector-curvature="0" />
      <path
         d="m 12901.573,6606.6977 c -6.389,-20.2845 -10.523,-41.1854 -10.523,-62.9078 0,-154.933 171.587,-280.492 383.275,-280.492 211.69,0 383.276,125.559 383.276,280.492 0,20.3873 -3.333,40.1581 -8.996,59.3644 -200.202,16.9979 -500.53,20.3359 -747.032,3.5434"
         style="fill:#ffc19f;fill-opacity:1;fill-rule:nonzero;stroke:none;stroke-width:1.0717653"
         id="path1030"
         inkscape:connector-curvature="0" />
      <path
         d="m 13536.017,6875.0701 -13.839,-375.0333 c -2.974,-80.6247 -115.75,-141.9919 -251.894,-136.9593 -136.132,5.0326 -244.076,74.5137 -241.114,155.1383 l 13.846,375.0334 493.001,-18.1791"
         style="fill:#ffc19f;fill-opacity:1;fill-rule:nonzero;stroke:none;stroke-width:1.0717653"
         id="path1032"
         inkscape:connector-curvature="0" />
      <path
         d="m 12213.809,5563.2494 c 96.883,-80.2136 522.745,-181.8421 765.199,-233.4522 -3.029,85.298 63.555,242.7473 -16.684,279.9784 -107.935,50.0181 -409.507,142.8649 -405.733,163.2522 31.147,168.2849 111.863,260.6181 174.432,474.9156 -89.478,66.7593 -222.324,127.3562 -319.089,142.3512 -150.341,-299.441 -333.633,-714.8895 -198.125,-827.0452"
         style="fill:#ffc19f;fill-opacity:1;fill-rule:nonzero;stroke:none;stroke-width:1.0717653"
         id="path1034"
         inkscape:connector-curvature="0" />
      <path
         d="m 12135.925,5950.7616 c 179.871,359.7301 298.758,594.3636 515.327,626.8188 64.124,-50.0695 180.567,-436.5547 64.977,-808.2501 -147.037,-9.3976 -450.477,76.6191 -580.304,181.4313"
         style="fill:#ef507e;fill-opacity:1;fill-rule:nonzero;stroke:none;stroke-width:1.0717653"
         id="path1036"
         inkscape:connector-curvature="0" />
      <path
         d="m 13797.493,6584.5131 c -9.824,-84.733 2.691,-477.3805 33.975,-797.9794 55.616,-2.6191 364.45,96.9551 481.773,237.7147 -165.024,251.0663 -351.946,541.2125 -515.748,560.2647"
         style="fill:#ef507e;fill-opacity:1;fill-rule:nonzero;stroke:none;stroke-width:1.0717653"
         id="path1038"
         inkscape:connector-curvature="0" />
      <path
         d="m 13415.06,5468.8622 c 14.291,7.3949 49.658,134.3915 -80.055,232.8872 -67.566,51.2506 -218.709,43.9583 -377.185,-59.8267 -14.523,-9.5003 19.792,-25.3685 40.014,-41.6988 20.223,-16.3304 328.127,-187.6965 301.475,-154.9846 -26.283,32.1986 -95.343,70.4056 -25.969,89.4575 82.941,22.801 104.863,-84.9896 141.72,-65.8346"
         style="fill:#ffc19f;fill-opacity:1;fill-rule:nonzero;stroke:none;stroke-width:1.0717653"
         id="path1040"
         inkscape:connector-curvature="0" />
      <path
         d="m 13374.855,5534.5942 c -18.471,-34.4066 -235.609,50.2237 -217.142,84.6303 18.466,34.4068 62.677,34.15 116.946,17.3574 61.384,-19.0007 118.657,-67.5809 100.196,-101.9877"
         style="fill:#c68c75;fill-opacity:1;fill-rule:nonzero;stroke:none;stroke-width:1.0717653"
         id="path1042"
         inkscape:connector-curvature="0" />
      <path
         d="m 13006.133,5850.9306 18.132,19.9253 c 12.403,13.6086 11.422,34.7147 -2.198,47.091 l -73.08,66.6052 c -13.614,12.3762 -34.715,11.4005 -47.106,-2.2082 l -18.133,-19.925 c -12.401,-13.6087 -11.421,-34.7149 2.193,-47.0912 l 73.086,-66.5538 c 13.615,-12.4274 34.699,-11.4517 47.106,2.1567"
         style="fill:#ffffff;fill-opacity:1;fill-rule:nonzero;stroke:none;stroke-width:1.0717653"
         id="path1044"
         inkscape:connector-curvature="0" />
      <path
         d="m 12899.595,5900.23 65.667,72.0999 18.681,-16.9978 -65.68,-72.1002 -18.668,16.9981"
         style="fill:#d6ccd3;fill-opacity:1;fill-rule:nonzero;stroke:none;stroke-width:1.0717653"
         id="path1046"
         inkscape:connector-curvature="0" />
      <path
         d="m 13542.601,5316.7533 63.483,69.738 98.598,-152.4165 z"
         style="fill:#e5b7a5;fill-opacity:1;fill-rule:nonzero;stroke:none;stroke-width:1.0717653"
         id="path1048"
         inkscape:connector-curvature="0" />
      <path
         d="m 13654.053,5259.3919 20.388,22.3899 32.28,-49.5045 z"
         style="fill:#161616;fill-opacity:1;fill-rule:nonzero;stroke:none;stroke-width:1.0717653"
         id="path1050"
         inkscape:connector-curvature="0" />
      <path
         d="m 13544.578,5312.1316 65.671,72.1 -626.306,571.1005 -65.68,-72.1002 626.315,-571.1003"
         style="fill:#8a8aff;fill-opacity:1;fill-rule:nonzero;stroke:none;stroke-width:1.0717653"
         id="path1052"
         inkscape:connector-curvature="0" />
      <path
         d="m 13119.886,5690.0922 c 69.532,-29.8363 132.275,-164.4848 262.693,-49.402 24.582,21.6712 89.38,-71.4324 63.908,-119.4479 -16.258,-21.2088 14.308,-30.5552 -14.502,-79.7515 -17.86,-30.5038 -40.141,-43.3938 -39.674,-59.1592 1.924,-65.8346 -53.358,-55.7696 -55.489,-83.9114 -3.039,-40.3121 -38.95,-53.253 -60.89,-57.9265 -61.766,-13.3004 -190.484,33.585 -328.259,88.1223 -85.822,33.9448 -76.092,225.6979 -56.17,249.6286 82.067,98.5984 182.58,131.5159 228.383,111.8476"
         style="fill:#ffc19f;fill-opacity:1;fill-rule:nonzero;stroke:none;stroke-width:1.0717653"
         id="path1054"
         inkscape:connector-curvature="0" />
      <path
         d="m 14955.126,5340.7355 c 34.498,153.8031 88.867,1155.7579 72.643,1224.0578 -133.194,-127.9724 -433.236,-193.3966 -435.686,-604.9935 l 363.043,-619.0643"
         style="fill:#ffffff;fill-opacity:1;fill-rule:nonzero;stroke:none;stroke-width:1.0717653"
         id="path1056"
         inkscape:connector-curvature="0" />
      <path
         d="m 14910.92,6473.3844 c -139.285,-90.6899 -312.546,-204.3349 -314.914,-512.9683 l 357.445,-608.6395 c 35.177,183.5367 82.788,1097.1636 71.685,1204.5949 -31.64,-29.2201 -71.792,-55.3589 -114.216,-82.9871 z m -322.72,-515.0738 0.05,1.5919 c 1.859,315.3096 177.704,429.8273 319.032,521.8525 44.354,28.912 86.305,56.232 118.118,86.7358 l 4.509,4.3651 1.567,-6.7787 c 15.247,-64.0889 -36.153,-1063.9381 -72.595,-1226.5741 l -2.124,-9.6031 -368.547,628.4106"
         style="fill:#cccccc;fill-opacity:1;fill-rule:nonzero;stroke:none;stroke-width:1.0717653"
         id="path1058"
         inkscape:connector-curvature="0" />
      <path
         d="m 14955.126,5340.7355 c 34.498,153.8031 202.516,1045.0916 202.433,1082.1687 -281.662,93.9252 -550.732,-244.0823 -565.476,-463.1044 0.267,-4.0056 144.97,-619.8346 156.659,-676.4775 40.189,42.8288 150.675,90.4332 206.384,57.4132"
         style="fill:#ffffff;fill-opacity:1;fill-rule:nonzero;stroke:none;stroke-width:1.0717653"
         id="path1060"
         inkscape:connector-curvature="0" />
      <path
         d="m 14952.583,5347.3601 c 34.531,157.1412 194.086,1001.1331 200.879,1072.0007 -114.379,36.8716 -239.183,4.3137 -351.462,-91.8199 -113.034,-96.7496 -197.644,-247.3689 -205.994,-367.1248 1.875,-8.9355 143.625,-616.9076 154.954,-668.7229 29.369,27.8849 89.375,58.7481 142.299,64.0374 21.847,2.2084 42.522,0.05 59.324,-8.3705 z m -312.556,388.5907 c -43.918,188.3125 -51.673,221.4354 -51.785,223.9517 8.268,122.3751 94.284,276.9999 209.296,375.393 115.242,98.5982 243.42,131.4645 361.044,92.1791 l 2.845,-0.9758 0.04,-3.5433 c 0.05,-39.5421 -168.399,-930.9331 -202.595,-1083.4524 l -1.247,-5.495 -4.165,2.4649 c -51.878,30.812 -161.111,-12.941 -202.142,-56.7453 l -4.771,-5.0328 c 0,0 -62.902,274.1755 -106.522,461.2559"
         style="fill:#cccccc;fill-opacity:1;fill-rule:nonzero;stroke:none;stroke-width:1.0717653"
         id="path1062"
         inkscape:connector-curvature="0" />
      <path
         d="m 14946.36,5334.4703 c 34.504,153.8035 303.904,913.6272 303.852,950.6528 -375.603,154.0087 -633.212,-163.663 -658.129,-325.3233 0.267,-4.0056 144.97,-619.8346 156.659,-676.4775 40.189,42.8288 141.915,84.2197 197.618,51.148"
         style="fill:#ffffff;fill-opacity:1;fill-rule:nonzero;stroke:none;stroke-width:1.0717653"
         id="path1064"
         inkscape:connector-curvature="0" />
      <path
         d="m 14943.848,5341.0436 c 20.983,88.3793 105.583,340.6779 180.41,563.8081 59.878,178.6069 116.608,347.7648 121.744,376.9849 -206.704,83.6545 -363.253,20.2331 -458.361,-47.8613 -114.814,-82.3195 -179.736,-198.9429 -191.635,-273.5592 2.218,-10.322 143.625,-616.9076 154.954,-668.7229 29.267,27.9873 81.822,53.8182 130.032,58.6969 22.95,2.3107 44.899,-0.1541 62.856,-9.3465 z m -303.821,394.9072 c -43.918,188.3125 -51.673,222.2571 -51.785,223.9517 11.815,76.5678 78.026,198.0698 195.517,282.1865 96.883,69.4297 256.747,133.9296 467.634,47.5532 l 2.67,-1.0784 v -3.3893 c 0,-17.2033 -46.609,-157.0899 -122.642,-383.8662 -76.3,-227.5464 -162.789,-485.4943 -181.323,-568.0705 l -1.248,-5.4945 -4.166,2.5161 c -53.617,31.7364 -154.223,-8.6786 -193.365,-50.5317 l -4.77,-5.0328 c 0,0 -62.902,274.1755 -106.522,461.2559"
         style="fill:#cccccc;fill-opacity:1;fill-rule:nonzero;stroke:none;stroke-width:1.0717653"
         id="path1066"
         inkscape:connector-curvature="0" />
      <path
         d="m 13994.186,5290.5632 c -109.31,142.8136 -226.35,125.5076 -226.031,366.7654 0.05,45.6018 -19.94,530.5314 -20.167,672.5746 379.738,30.7094 793.039,-65.2701 883.261,-312.4849 0.639,-3.9542 -16.273,-639.5544 -22.136,-697.8918 -87.986,32.1985 -186.321,49.2992 -289.932,47.091 -118.631,-2.5162 -229.401,-30.1445 -324.995,-76.0543"
         style="fill:#ffffff;fill-opacity:1;fill-rule:nonzero;stroke:none;stroke-width:1.0717653"
         id="path1068"
         inkscape:connector-curvature="0" />
      <path
         d="m 13752.749,6325.4868 c 0.355,-91.9738 20.166,-651.1088 20.151,-668.1582 -0.216,-162.0197 53.371,-206.0293 121.271,-261.6965 31.403,-25.728 66.898,-54.8454 101.444,-99.1118 98.188,46.4749 210.08,71.9972 323.49,74.8219 99.563,2.1568 195.675,-13.0438 285.79,-45.2936 6.677,88.995 21.354,669.2877 21.636,689.8804 -92.826,252.2989 -516.896,337.494 -873.782,309.5578 z m 854.713,-1010.3765 c -90.684,33.2254 -187.648,48.9395 -288.189,46.7315 -113.449,-2.2598 -225.286,-28.5524 -323.074,-75.5406 l -3.445,-1.6435 -2.351,3.0299 c -34.546,45.1909 -70.509,74.6164 -102.241,100.7037 -69.82,57.2079 -124.927,102.4498 -124.767,268.886 0.04,16.9468 -20.141,676.991 -20.141,676.991 l 4.361,0.3082 c 361.592,29.2199 793.674,-57.0535 888.314,-316.3879 0.282,-1.8489 -15.889,-636.8841 -22.123,-699.1243 l -0.612,-6.0084 -5.732,2.0544"
         style="fill:#cccccc;fill-opacity:1;fill-rule:nonzero;stroke:none;stroke-width:1.0717653"
         id="path1070"
         inkscape:connector-curvature="0" />
      <path
         d="m 13994.186,5290.5632 c -109.31,142.8136 -188.446,277.9243 -306.866,413.4971 -30.299,34.7148 -1.094,384.3796 4.745,511.8899 225.035,80.0086 752.88,105.2229 939.184,-198.5319 0.639,-3.9542 -16.273,-639.5544 -22.136,-697.8918 -87.986,32.1985 -186.321,49.2992 -289.932,47.091 -118.631,-2.5162 -229.401,-30.1445 -324.995,-76.0543"
         style="fill:#ffffff;fill-opacity:1;fill-rule:nonzero;stroke:none;stroke-width:1.0717653"
         id="path1072"
         inkscape:connector-curvature="0" />
      <path
         d="m 13696.656,6212.5609 c -1.188,-24.5468 -3.154,-56.7454 -5.347,-93.155 -8.857,-144.2515 -23.503,-385.7661 -0.399,-412.2131 72.516,-83.0897 129.163,-164.228 189.129,-250.1932 36.415,-52.1752 74.025,-106.0449 115.576,-160.4793 98.188,46.4749 210.08,71.9972 323.49,74.8219 99.563,2.1568 195.675,-13.0438 285.79,-45.2936 6.636,88.8409 21.209,667.2336 21.636,689.8804 -185.483,300.4683 -703.269,275.9215 -929.875,196.6319 z m 910.806,-897.4506 c -90.684,33.2254 -187.648,48.9395 -288.189,46.7315 -113.449,-2.2598 -225.286,-28.5524 -323.074,-75.5406 l -3.445,-1.6435 -2.351,3.0299 c -42.572,55.6669 -80.959,110.7176 -118.078,163.9198 -59.868,85.7085 -116.402,166.6928 -188.554,249.3202 -23.736,27.1146 -14.415,213.7326 -1.889,419.0432 2.3,37.8989 5.57,99.3687 5.57,99.3687 l 3.005,1.0271 c 227.927,81.1896 756.43,106.815 944.994,-200.4834 l 0.478,-1.6946 c 0.282,-1.8489 -15.889,-636.8841 -22.123,-699.1243 l -0.612,-6.0084 -5.732,2.0544"
         style="fill:#cccccc;fill-opacity:1;fill-rule:nonzero;stroke:none;stroke-width:1.0717653"
         id="path1074"
         inkscape:connector-curvature="0" />
      <path
         d="m 13994.186,5290.5632 c -109.31,142.8136 -254.564,279.8757 -372.999,415.4485 -30.288,34.7149 11.102,286.6029 10.05,345.197 171.098,156.9871 640.421,278.2837 1000.012,-33.7904 0.639,-3.9542 -16.273,-639.5544 -22.136,-697.8918 -87.986,32.1985 -186.321,49.2992 -289.932,47.091 -118.631,-2.5162 -229.401,-30.1445 -324.995,-76.0543"
         style="fill:#ffffff;fill-opacity:1;fill-rule:nonzero;stroke:none;stroke-width:1.0717653"
         id="path1076"
         inkscape:connector-curvature="0" />
      <path
         d="m 13635.956,6049.1545 c 0.06,-19.3602 -3.717,-55.9237 -8.026,-98.0334 -9.028,-87.506 -22.627,-219.7409 -3.138,-241.9768 45.083,-51.6615 95.152,-104.6067 143.553,-155.9087 78.622,-83.2439 159.951,-169.2605 227.27,-256.7153 98.188,46.4749 210.08,71.9972 323.49,74.8219 99.563,2.1568 195.675,-13.0438 285.79,-45.2936 6.569,88.0194 20.983,657.3224 21.636,689.8804 -368.189,317.8771 -832.53,176.3474 -990.575,33.2255 z m 971.506,-734.0442 c -90.684,33.2254 -187.648,48.9395 -288.189,46.7315 -113.449,-2.2598 -225.286,-28.5524 -323.074,-75.5406 l -3.445,-1.6435 -2.351,3.0299 c -67.423,88.1735 -149.578,175.0634 -228.95,259.0775 -48.446,51.3533 -98.582,104.4013 -143.799,156.114 -20.531,23.4171 -11.755,126.7399 0.863,249.2691 4.452,43.3935 8.35,80.8814 7.965,98.9578 v 2.1055 l 1.55,1.4893 c 158.866,145.7407 632.128,290.968 1006.316,-33.6879 l 1.581,-2.8243 c 0.282,-1.8489 -15.889,-636.8841 -22.123,-699.1243 l -0.612,-6.0084 -5.732,2.0544"
         style="fill:#cccccc;fill-opacity:1;fill-rule:nonzero;stroke:none;stroke-width:1.0717653"
         id="path1078"
         inkscape:connector-curvature="0" />
      <path
         d="m 14956.111,5187.4458 c 70.554,194.2185 251.051,750.0153 305.245,932.3709 -232.707,162.2766 -485.972,-15.7654 -536.109,-119.2424 0.267,-4.0054 -230.232,-829.9211 -218.548,-886.5638 101.801,134.9564 388.61,163.5092 449.412,73.4353"
         style="fill:#7bc159;fill-opacity:1;fill-rule:nonzero;stroke:none;stroke-width:1.0717653"
         id="path1080"
         inkscape:connector-curvature="0" />
      <path
         d="m 13525.732,5080.5793 c 23.899,219.2274 51.147,597.0854 75.658,824.5292 366.063,276.1783 838.682,169.8255 942.935,110.4098 0.637,-3.9544 -206.184,-854.0574 -212.064,-912.3945 -414,156.4733 -710.94,23.3654 -806.529,-22.5445"
         style="fill:#7bc159;fill-opacity:1;fill-rule:nonzero;stroke:none;stroke-width:1.0717653"
         id="path1082"
         inkscape:connector-curvature="0" />
      <path
         d="m 14506.699,5114.0105 -179.092,-9.8599 212.065,911.8298 h 201.624 l -234.597,-901.9699"
         style="fill:#6faa4d;fill-opacity:1;fill-rule:nonzero;stroke:none;stroke-width:1.0717653"
         id="path1084"
         inkscape:connector-curvature="0" />
      <path
         d="m 15223.662,5800.6045 c -34.422,43.5991 -84.384,65.9376 -111.61,49.9154 -27.245,-16.0736 -21.446,-64.3971 12.962,-107.9961 34.394,-43.6502 84.356,-65.989 111.589,-49.9153 27.27,16.0221 21.467,64.397 -12.941,107.996"
         style="fill:#ffc19f;fill-opacity:1;fill-rule:nonzero;stroke:none;stroke-width:1.0717653"
         id="path1086"
         inkscape:connector-curvature="0" />
      <path
         d="m 15156.39,5713.7147 c -49.202,28.4496 -104.956,32.2499 -124.506,8.4219 -19.551,-23.828 4.503,-66.2456 53.709,-94.6955 49.224,-28.5011 104.951,-32.3012 124.513,-8.4733 19.565,23.8279 -4.495,66.2458 -53.716,94.7469"
         style="fill:#ffc19f;fill-opacity:1;fill-rule:nonzero;stroke:none;stroke-width:1.0717653"
         id="path1088"
         inkscape:connector-curvature="0" />
      <path
         d="m 15125.901,5627.6979 c -46.423,22.9035 -97.479,22.2359 -114.031,-1.4893 -16.555,-23.6739 7.668,-61.47 54.081,-84.3221 46.429,-22.9037 97.489,-22.2874 114.025,1.4378 16.551,23.6739 -7.662,61.47 -54.075,84.3736"
         style="fill:#ffc19f;fill-opacity:1;fill-rule:nonzero;stroke:none;stroke-width:1.0717653"
         id="path1090"
         inkscape:connector-curvature="0" />
      <path
         d="m 15089.513,5542.0917 c -40.046,12.6845 -81.632,3.1327 -92.909,-21.4142 -11.272,-24.5983 12.062,-54.794 52.093,-67.5294 40.045,-12.6845 81.631,-3.0811 92.908,21.4655 11.262,24.5468 -12.057,54.7426 -52.092,67.4781"
         style="fill:#ffc19f;fill-opacity:1;fill-rule:nonzero;stroke:none;stroke-width:1.0717653"
         id="path1092"
         inkscape:connector-curvature="0" />
      <path
         d="m 13617.645,6605.7219 c -28.837,2.1055 -59.422,4.0057 -91.358,5.5976 l 9.73,263.7506 -493.001,18.1791 -5.87,-158.9898 c -54.605,59.0049 -81.457,127.9724 -68.665,195.6047 6.152,32.5068 20.984,61.9836 42.761,87.7116 74.114,-11.5544 148.986,-17.4089 223.413,-17.4089 9.095,0 18.061,0.1029 27.146,0.257 118.605,2.2596 231.172,22.6982 335.553,59.3131 128.768,-68.8648 205.998,-178.196 185.965,-284.0866 -14.502,-76.6192 -77.142,-136.3945 -165.674,-169.9281"
         style="fill:#a3503e;fill-opacity:1;fill-rule:nonzero;stroke:none;stroke-width:1.0717653"
         id="path1094"
         inkscape:connector-curvature="0" />
      <path
         d="m 13617.453,6605.6193 c -28.787,2.1568 -59.303,4.0055 -91.173,5.5975 v 0.1027 c 31.937,-1.5919 62.523,-3.4919 91.357,-5.5974 -0.07,-0.051 -0.127,-0.051 -0.189,-0.1028"
         style="fill:#da466a;fill-opacity:1;fill-rule:nonzero;stroke:none;stroke-width:1.0717653"
         id="path1096"
         inkscape:connector-curvature="0" />
      <path
         d="m 13525.191,6581.74 1.089,29.4768 c 31.87,-1.592 62.386,-3.4407 91.173,-5.5975 -28.336,-10.7329 -59.349,-18.7953 -92.262,-23.8793"
         style="fill:#e8a486;fill-opacity:1;fill-rule:nonzero;stroke:none;stroke-width:1.0717653"
         id="path1098"
         inkscape:connector-curvature="0" />
      <path
         d="m 13440.972,6575.4235 c -37.313,0 -76.073,3.5434 -115.462,11.041 -121.594,23.0064 -224.162,78.4678 -288.364,147.7949 l 5.87,158.9898 493.001,-18.1791 -9.73,-263.7506 v -0.1029 l -1.091,-29.4767 c -26.918,-4.1596 -55.122,-6.3165 -84.218,-6.3165"
         style="fill:#e8a486;fill-opacity:1;fill-rule:nonzero;stroke:none;stroke-width:1.0717653"
         id="path1100"
         inkscape:connector-curvature="0" />
      <path
         d="m 14348.433,7454.8493 c -49.475,-218.6111 -248.546,-356.9057 -400.803,-336.467 -152.262,20.4386 -185.154,199.4049 -162.801,409.8509 22.385,210.497 164.024,365.0709 316.245,344.1186 208.042,-28.6552 293.833,-212.0379 247.359,-417.5025"
         style="fill:#f4b18c;fill-opacity:1;fill-rule:nonzero;stroke:none;stroke-width:1.0717653"
         id="path1102"
         inkscape:connector-curvature="0" />
      <g
         id="g1104"
         transform="matrix(0.5871842,0,0,0.5871842,10083.04,-349.4184)"
         style="stroke-width:3.24057007">
        <path
           d="m 3188.92,14692.4 c -124.09,-1413.1 1088.56,-2197.1 2224.66,-2175.3 1136.1,21.8 1944.22,1021.7 1802.72,2392.6 -78.57,761.2 -747.39,1390.3 -1832.61,1362.2 -1155.09,-30 -2098.57,-484.2 -2194.77,-1579.5"
           style="fill:#ad5c49;fill-opacity:1;fill-rule:nonzero;stroke:none;stroke-width:3.24057007"
           id="path1106"
           inkscape:connector-curvature="0" />
      </g>
      <g
         id="g1108"
         transform="matrix(0.56493797,0,0,0.56493797,10083.04,-349.4184)"
         style="stroke-width:3.24057007">
        <path
           d="m 3999.5,15629.2 c -102.89,-240.1 100.54,-2352.1 348.77,-2640.1 263.33,-305.6 1355.83,-543.4 1575.58,-539.2 235.35,4.5 1011.48,304.4 1203.94,649.5 227.73,408.3 277.59,2220.7 198.18,2441.6 -268.35,746.2 -922.21,759 -1776.82,742.6 -799.48,-15.4 -1282.72,-31.2 -1549.65,-654.4"
           style="fill:#ffc19f;fill-opacity:1;fill-rule:nonzero;stroke:none;stroke-width:3.24057007"
           id="path1110"
           inkscape:connector-curvature="0" />
      </g>
      <path
         d="m 12009.616,7361.8483 c 65.574,-228.779 293.008,-367.7925 460.738,-341.1401 167.735,26.7037 130.71,710.2167 -174.206,762.2372 -253.927,43.3426 -348.155,-206.132 -286.532,-421.0971"
         style="fill:#ffc19f;fill-opacity:1;fill-rule:nonzero;stroke:none;stroke-width:1.0717653"
         id="path1112"
         inkscape:connector-curvature="0" />
      <path
         d="m 12196.312,7375.9706 c 15.426,-96.9552 126.386,-176.5529 208.017,-147.795 31.843,11.1952 -29.964,349.0484 -81.139,347.9186 -86.53,-1.951 -142.283,-103.2198 -126.878,-200.1236"
         style="fill:#e0956c;fill-opacity:1;fill-rule:nonzero;stroke:none;stroke-width:1.0717653"
         id="path1114"
         inkscape:connector-curvature="0" />
      <path
         d="m 12558.702,7247.6386 c -0.904,-48.4776 65.68,-88.9953 148.724,-90.5359 83.013,-1.5407 151.087,36.4608 151.991,84.8871 0.903,48.4261 -65.691,88.9439 -148.703,90.5357 -83.044,1.5408 -151.108,-36.4608 -152.012,-84.8869"
         style="fill:#ff9797;fill-opacity:1;fill-rule:nonzero;stroke:none;stroke-width:1.0717653"
         id="path1116"
         inkscape:connector-curvature="0" />
      <path
         d="m 13850.129,7282.0453 c 3.462,-42.9314 58.437,-73.538 122.823,-68.4026 64.356,5.1866 113.763,44.2152 110.302,87.1466 -3.457,42.9314 -58.461,73.5892 -122.806,68.4026 -64.392,-5.1866 -113.77,-44.2152 -110.319,-87.1466"
         style="fill:#ff9797;fill-opacity:1;fill-rule:nonzero;stroke:none;stroke-width:1.0717653"
         id="path1118"
         inkscape:connector-curvature="0" />
      <path
         d="m 13053.301,7206.145 c 13.619,-123.1966 164.809,-229.0358 341.982,-225.5437 177.165,3.492 331.152,119.6531 340.391,239.0497 13.645,176.5014 -168.188,40.6205 -345.504,45.3964 -177.109,4.7759 -356.024,114.6206 -336.869,-58.9024"
         style="fill:#701608;fill-opacity:1;fill-rule:nonzero;stroke:none;stroke-width:1.0717653"
         id="path1120"
         inkscape:connector-curvature="0" />
      <path
         d="m 13374.131,7097.7895 c 95.769,1.9001 179.264,-20.7981 228.219,-60.2888 -56.001,-34.2527 -127.478,-58.1319 -207.026,-59.724 -89.539,-1.7459 -163.863,23.6741 -223.545,63.4729 49.109,33.9958 117.341,54.8453 202.352,56.5399"
         style="fill:#d36553;fill-opacity:1;fill-rule:nonzero;stroke:none;stroke-width:1.0717653"
         id="path1122"
         inkscape:connector-curvature="0" />
      <path
         d="m 13156.583,7303.511 c 6.312,6.3678 142.926,-27.3714 231.059,-21.8252 112.187,7.0868 230.551,28.912 245.032,24.7524 -0.153,-68.2486 -119.632,-102.0905 -234.227,-104.3501 -122.868,-2.4134 -249.295,21.1063 -241.864,101.4229"
         style="fill:#ffffff;fill-opacity:1;fill-rule:nonzero;stroke:none;stroke-width:1.0717653"
         id="path1124"
         inkscape:connector-curvature="0" />
      <path
         d="m 13329.248,7417.9775 c 5.331,0.1028 9.942,4.0055 10.743,9.449 5.634,38.6178 35.603,64.0892 76.327,64.8592 40.955,0.8217 72.583,-23.9819 78.725,-61.6238 0.995,-6.0597 6.717,-10.1681 12.709,-9.1922 6.05,1.027 10.128,6.6759 9.147,12.7355 -7.843,48.2723 -49.393,81.241 -101.002,80.2654 -51.333,-0.9759 -90.649,-34.6638 -97.844,-83.8087 -0.878,-6.0597 3.312,-11.7085 9.356,-12.5816 l 1.839,-0.103"
         style="fill:#c4735b;fill-opacity:1;fill-rule:nonzero;stroke:none;stroke-width:1.0717653"
         id="path1126"
         inkscape:connector-curvature="0" />
      <g
         id="g1128"
         transform="matrix(0.5288006,0,0,0.5288006,10083.04,-349.4184)"
         style="stroke-width:3.24057007">
        <path
           d="m 4702.45,15951.7 c 14.07,1.4 27.67,7.7 37.96,18.8 131.61,141.9 401.14,203.3 627.47,142.4 31.38,-8.6 64.09,10.1 72.74,41.9 8.49,31.6 -10.23,64.2 -41.94,72.8 -270.01,72.4 -583.58,-1.7 -745.34,-176.5 -22.28,-24 -20.83,-61.5 3.24,-83.8 12.85,-12 29.62,-17.1 45.87,-15.6"
           style="fill:#752912;fill-opacity:1;fill-rule:nonzero;stroke:none;stroke-width:3.24057007"
           id="path1130"
           inkscape:connector-curvature="0" />
      </g>
      <g
         id="g1132"
         transform="matrix(0.52990469,0,0,0.52990469,10083.04,-349.4184)"
         style="stroke-width:3.24057007">
        <path
           d="m 7686.83,16000.7 c 15.68,-0.2 31.34,6 42.68,18.5 21.28,23.3 19.62,59.4 -3.64,80.6 -169.13,154.4 -475.44,200.2 -728.22,109.2 -29.67,-10.8 -45,-43.5 -34.33,-73.1 10.77,-29.7 43.52,-45.1 73.05,-34.3 211.87,76.6 475.23,39.7 612.57,-86 10.75,-9.8 24.29,-14.8 37.89,-14.9"
           style="fill:#752912;fill-opacity:1;fill-rule:nonzero;stroke:none;stroke-width:3.24057007"
           id="path1134"
           inkscape:connector-curvature="0" />
      </g>
      <path
         d="m 13661.616,7487.7668 c 0,0 285.654,-101.012 388.535,78.0056 125.359,218.2516 -80.223,383.9177 -209.603,347.8675 -119.725,-33.3284 -225.822,-159.7601 -178.932,-425.8731"
         style="fill:#f9feff;fill-opacity:1;fill-rule:nonzero;stroke:none;stroke-width:1.0717653"
         id="path1136"
         inkscape:connector-curvature="0" />
      <path
         d="m 14063.889,7841.1288 c -54.532,77.0299 -125.631,100.1392 -201.778,89.4064 -77.842,-10.9897 -155.139,-78.4167 -175.633,-146.768 39.891,77.3381 111.54,106.8665 156.294,119.3454 71.273,19.9248 166.44,-16.279 210.887,-92.3335 39.531,-67.7351 39.142,-170.5443 -6.876,-250.6558 55.43,55 73.923,200.6889 17.106,281.0055"
         style="fill:#773220;fill-opacity:1;fill-rule:nonzero;stroke:none;stroke-width:1.0717653"
         id="path1138"
         inkscape:connector-curvature="0" />
      <path
         d="m 13771.437,7686.1448 c -23.834,-77.9544 10.373,-164.9982 76.423,-194.3728 66.036,-29.3736 138.911,9.963 162.749,87.9173 23.823,78.0055 -10.384,164.9982 -76.418,194.4235 -66.057,29.3742 -138.911,-10.0138 -162.754,-87.968"
         style="fill:#63190d;fill-opacity:1;fill-rule:nonzero;stroke:none;stroke-width:1.0717653"
         id="path1140"
         inkscape:connector-curvature="0" />
      <path
         d="m 13781.066,7710.3321 c -6.61,-21.6196 2.885,-45.7557 21.203,-53.9213 18.323,-8.1652 38.531,2.7733 45.149,24.3929 6.61,21.6201 -2.88,45.7561 -21.204,53.9214 -18.316,8.165 -38.545,-2.7734 -45.148,-24.393"
         style="fill:#fefffe;fill-opacity:1;fill-rule:nonzero;stroke:none;stroke-width:1.0717653"
         id="path1142"
         inkscape:connector-curvature="0" />
      <path
         d="m 13156.008,7473.7988 c 0,0 -332.98,-115.4939 -465.225,58.0802 -161.142,211.5248 73.189,387.564 228.677,358.1386 143.887,-27.2175 276.943,-148.0517 236.548,-416.2188"
         style="fill:#f9feff;fill-opacity:1;fill-rule:nonzero;stroke:none;stroke-width:1.0717653"
         id="path1144"
         inkscape:connector-curvature="0" />
      <path
         d="m 12658.748,7806.1573 c 60.258,79.7516 143.26,106.4554 234.172,99.6256 92.949,-6.984 188.462,-70.4054 216.675,-137.5755 -51.733,75.181 -138.377,101.0119 -192.169,111.1284 -85.664,16.3304 -196.453,-24.7521 -244.808,-102.9633 -43.007,-69.6349 -36.67,-172.342 22.483,-249.9365 -68.875,52.0722 -99.143,196.5801 -36.353,279.7213"
         style="fill:#773220;fill-opacity:1;fill-rule:nonzero;stroke:none;stroke-width:1.0717653"
         id="path1146"
         inkscape:connector-curvature="0" />
      <path
         d="m 12806.343,7653.4837 c -28.89,-78.1595 11.047,-164.9469 89.21,-193.8587 78.176,-28.9118 164.959,11.041 193.859,89.2522 28.893,78.1595 -11.061,164.947 -89.22,193.8074 -78.165,28.9117 -164.957,-11.041 -193.849,-89.2009"
         style="fill:#63190d;fill-opacity:1;fill-rule:nonzero;stroke:none;stroke-width:1.0717653"
         id="path1148"
         inkscape:connector-curvature="0" />
      <path
         d="m 12817.949,7677.7741 c -8.016,-21.6713 3.07,-45.7557 24.758,-53.767 21.681,-8.0627 45.76,3.0296 53.776,24.7523 8.017,21.6713 -3.071,45.7556 -24.758,53.7669 -21.685,8.0113 -45.761,-3.0815 -53.776,-24.7522"
         style="fill:#fefffe;fill-opacity:1;fill-rule:nonzero;stroke:none;stroke-width:1.0717653"
         id="path1150"
         inkscape:connector-curvature="0" />
      <g
         id="g1152"
         transform="matrix(0.59101004,0,0,0.59101004,10083.04,-349.4184)"
         style="stroke-width:3.24057007">
        <path
           d="m 3540.67,14588.5 c -135.98,31.7 117.16,1014.5 789.01,1311.6 1100.07,399.9 1864.5,198.1 2149.18,24.6 524.61,-319.7 753.66,-648 843.22,-1366.8 53.43,-428.7 -10.93,-687.7 -78.82,-571.8 -27.77,-347.4 8.61,-503.8 178.38,-620.3 -293.36,-73.5 -406.63,127.3 -420.4,404.7 -16.4,330.5 47.02,955.6 2.11,1073.6 -25.98,68.3 -375.22,449.7 -477.31,454.4 -110.19,5 -228.67,-183 -415.88,-371 -190.88,-191.7 -453.19,-383.4 -850.94,-370.5 320.75,167.7 498.06,409.6 678.53,755.6 -62.39,-36.2 -125.04,-80.3 -187.31,-134.3 -655.6,-568 -1254.37,-703.3 -1809.47,-645.9 80.8,-592.3 150.74,-1343.8 -476.95,-1360.7 64.97,78.6 231.69,474.7 67.78,785.1 -75.97,-45.7 -10.61,242.8 8.87,631.7"
           style="fill:#ad5c49;fill-opacity:1;fill-rule:nonzero;stroke:none;stroke-width:3.24057007"
           id="path1154"
           inkscape:connector-curvature="0" />
      </g>
      <g
         id="g1156"
         transform="matrix(0.59317201,0,0,0.59317201,10083.04,-349.4184)"
         style="stroke-width:3.24057007">
        <path
           d="m 3428.61,14329.9 c 126.23,958.5 657.15,1571.7 1709.11,1790.5 863.46,179.6 1424.19,-203.9 1641.09,-505.1 -333.7,326.7 -791.19,552.3 -1664.2,351.2 -799.71,-184.3 -1422.19,-646 -1686,-1636.6"
           style="fill:#00a1cc;fill-opacity:1;fill-rule:nonzero;stroke:none;stroke-width:3.24057007"
           id="path1158"
           inkscape:connector-curvature="0" />
      </g>
      <g
         id="g1160"
         transform="matrix(0.59825595,0,0,0.59825595,10083.04,-349.4184)"
         style="stroke-width:3.24057007">
        <path
           d="m 5302.84,15829.2 c 353.26,-176.6 712.62,-253.2 807.08,-233.1 114.95,24.6 149.33,408.2 -80.66,577.9 -170.84,126 -587.66,55.8 -750.13,-130.2 -83.51,-95.6 -85.92,-159.8 23.71,-214.6"
           style="fill:#06c1ed;fill-opacity:1;fill-rule:nonzero;stroke:none;stroke-width:3.24057007"
           id="path1162"
           inkscape:connector-curvature="0" />
      </g>
      <g
         id="g1164"
         transform="matrix(0.59235036,0,0,0.59235036,10083.04,-349.4184)"
         style="stroke-width:3.24057007">
        <path
           d="m 5197.15,15932.7 c -349.45,-294.2 -535.49,-527 -648.34,-533.7 -137.35,-8.1 -520.51,543.1 -390.14,717.3 137.47,183.7 804.57,169.9 1003.43,52.7 124.45,-73.4 143.48,-145 35.05,-236.3"
           style="fill:#06c1ed;fill-opacity:1;fill-rule:nonzero;stroke:none;stroke-width:3.24057007"
           id="path1166"
           inkscape:connector-curvature="0" />
      </g>
      <g
         id="g1168"
         transform="matrix(0.58869911,0,0,0.58869911,10083.04,-349.4184)"
         style="stroke-width:3.24057007">
        <path
           d="m 5585.96,16151.6 c -61.92,0 -145.03,34.3 -182.29,52.5 45.71,31.6 135.35,95.9 196.09,95.9 31.08,0 54.58,-16.8 60.78,-63.4 8.58,-64.5 -26.66,-85 -74.58,-85"
           style="fill:#05a6cd;fill-opacity:1;fill-rule:nonzero;stroke:none;stroke-width:3.24057007"
           id="path1170"
           inkscape:connector-curvature="0" />
      </g>
      <g
         id="g1172"
         transform="matrix(0.58485277,0,0,0.58485277,10083.04,-349.4184)"
         style="stroke-width:3.24057007">
        <path
           d="m 4973.58,16132.6 c -32.98,0 -59.01,17.4 -69.94,63.5 -19.51,82.4 50.4,103.9 133.5,103.9 65.29,0 138.73,-13.3 183.29,-20.8 -45.89,-44.2 -166.85,-146.6 -246.85,-146.6"
           style="fill:#05a6cd;fill-opacity:1;fill-rule:nonzero;stroke:none;stroke-width:3.24057007"
           id="path1174"
           inkscape:connector-curvature="0" />
      </g>
      <g
         id="g1176"
         transform="matrix(0.58953619,0,0,0.58953619,10083.04,-349.4184)"
         style="stroke-width:3.24057007">
        <path
           d="m 5443.53,16168.2 c 10.1,-77.5 -48.06,-149 -129.93,-159.7 -81.84,-10.6 -156.4,43.6 -166.48,121.1 -10.1,77.6 48.06,149.1 129.92,159.8 81.87,10.6 156.41,-43.6 166.49,-121.2"
           style="fill:#06c1ed;fill-opacity:1;fill-rule:nonzero;stroke:none;stroke-width:3.24057007"
           id="path1178"
           inkscape:connector-curvature="0" />
      </g>
      <path
         d="m 14013.603,4779.6491 c -2.649,11.6056 -5.227,22.8009 -7.836,34.2012 -450.657,-108.6635 -1081.019,-130.4375 -1543.989,-22.2875 -2.722,-10.6301 -5.464,-21.3626 -8.217,-32.1469 212.886,-49.8642 463.865,-75.1813 720.529,-75.1813 290.716,0 586.557,32.4551 839.513,95.4145 z m 35.337,-155.6518 c -2.604,11.5028 -5.171,22.852 -7.806,34.5093 -464.593,-119.5506 -1140.66,-144.3542 -1619.032,-22.6469 -2.68,-10.63 -5.34,-21.1061 -7.985,-31.5821 220.65,-56.1295 486.583,-84.579 758.802,-84.579 304.683,0 615.5,35.2282 876.021,104.2987 z m 28.516,-126.5862 c -477.514,-131.4644 -1203.12,-158.4248 -1695.6,-21.6196 -2.788,-11.1952 -5.474,-22.0306 -8.107,-32.6607 227.592,-62.8565 509.521,-94.0283 797.48,-94.0283 319.531,0 645.855,38.772 913.771,114.6723 -2.466,10.9895 -4.951,22.0817 -7.544,33.6363"
         style="fill:#0782a8;fill-opacity:1;fill-rule:nonzero;stroke:none;stroke-width:1.0717653"
         id="path1180"
         inkscape:connector-curvature="0" />
      <path
         d="m 15415.21,6932.74 c -4.364,11.7598 -17.408,17.5627 -29.118,13.3519 l -191.506,-71.2784 c -11.699,-4.3651 -17.666,-17.3576 -13.312,-29.1174 3.005,-8.0624 10.164,-13.4546 18.129,-14.533 3.6,-0.4621 7.348,-0.1028 10.949,1.1811 l 191.506,71.2784 c 11.71,4.365 17.666,17.3575 13.352,29.1174 z m -563.905,212.4487 c -4.843,11.6572 -18.205,17.0493 -29.561,12.1707 -11.547,-4.8272 -17.017,-18.0763 -12.19,-29.6308 l 78.612,-188.6208 c 3.235,-7.6517 10.179,-12.633 17.845,-13.7114 3.898,-0.5135 7.923,-0.1028 11.754,1.5407 11.541,4.8272 17.015,18.0763 12.234,29.6308 z m 311.067,-16.6385 c 3.246,12.0681 -3.841,24.4442 -15.873,27.7821 -11.94,2.9785 -24.522,-3.8001 -27.814,-15.9195 l -53.916,-197.1454 c -3.24,-12.0167 3.847,-24.4441 15.864,-27.7822 l 2.963,-0.5649 c 11.077,-1.5406 21.835,5.3921 24.866,16.4845 l 53.91,197.1454"
         style="fill:#afaeae;fill-opacity:1;fill-rule:nonzero;stroke:none;stroke-width:1.0717653"
         id="path1182"
         inkscape:connector-curvature="0" />
    </g>
  </g>
</svg>
