<svg id="Layer_3" data-name="Layer 3" xmlns="http://www.w3.org/2000/svg" viewBox="0 0 1000 1000"><defs><style>.cls-1{fill:#fed1a5;stroke:#d6a47c;}.cls-1,.cls-10,.cls-2,.cls-4{stroke-miterlimit:10;stroke-width:3px;}.cls-13,.cls-2{fill:#fff;}.cls-2{stroke:#adadad;}.cls-3{fill:#e2e2e2;}.cls-4{fill:#373032;stroke:#211f20;}.cls-5{fill:#eabf98;}.cls-6{fill:#383d43;}.cls-10,.cls-7{fill:#32373b;}.cls-8{fill:#d591a8;}.cls-9{fill:#d17d9d;}.cls-10{stroke:#2b2a2a;}.cls-11{fill:#4c4f51;}.cls-12{fill:#231f20;}</style></defs><title>bus driver</title><path class="cls-1" d="M244.91,795.11c-3,12.21-9,95.07-9.69,98.93-1.34,7.63-4.38,7.37-6.32,16.58s-3.72,22.1,10.35,34.7S285,965.5,296.89,959.17,302,937.59,302,937.59s4,6,7.64,4.73,2.81-19.73-12.16-30l2.47-14.61,8.46-83.52S247.81,783.38,244.91,795.11Z"/><path class="cls-1" d="M763.05,800.32c2,12.4,3.13,94.3,3.52,98.18.76,7.66,3.29,7.87,4.48,17.17s2.06,22.16-10.16,32.34-38.82,12.75-48.35,4.76-3.22-21.86-3.22-21.86-3.58,5.3-6.54,3.45-1.43-19.71,11.44-27.44l-1.38-14.66-3.2-82.93S761.19,788.41,763.05,800.32Z"/><path class="cls-2" d="M333,927s50,36,170,34,164-28,164-28l-6-303,28,270s31,9,89-13c0,0-21-340-39-378,0,0-120-71-184-86H446s-150,50-184,85-41.5,380.5-41.5,380.5,47,25,92,14l31-279Z"/><path class="cls-3" d="M266.5,514.5c3-4,46-28,66-38s28-13,44-19,37-13,44-17,17-14,18-12,8,27,8,28-85,32-100,39-22,15-44,21-36,8-39,9S266.5,514.5,266.5,514.5Z"/><path class="cls-3" d="M562.5,428.5c2,1,54,29,67,33s18,4,35,13,23,11,34,18,16,8,23,14a65.56,65.56,0,0,1,14,17c3,5,4,13,1,12s-33-16-57-27-42-22-63-30-31-15-45-18-19-5-16-8S562.5,428.5,562.5,428.5Z"/><path class="cls-1" d="M452.5,393.5c0,1-6,39-6,39s45,32,46,32,23.07,2,23.07,2l36.93-42-5-40-94-2Z"/><polygon class="cls-4" points="481.5 529.5 459.5 865.5 499.5 909.5 537.5 863.5 517.5 512.5 481.5 529.5"/><path class="cls-4" d="M485.5,466.5l-23,24s15,53,20,54,28,5,36,0,20-78,20-78Z"/><path class="cls-2" d="M447.5,421.5l52,43s49-43,52-43,21.19,3.69,22.1,6.85-18.1,64.15-32.1,83.15l-42-44s-39,29-43,45c0,0-29-76-28-85Z"/><path class="cls-2" d="M364.5,635.5l1,77s38,13,81,0v-79Z"/><path class="cls-2" d="M448.5,623.5h-81s-5,3-5,6,1,12,1,12l41,20,44-24S451.5,630.5,448.5,623.5Z"/><path class="cls-2" d="M633,635.5l-1,77s-37.93,13-80.85,0v-79Z"/><path class="cls-2" d="M549.16,623.5H630s5,3,5,6-1,12-1,12l-40.92,20-43.92-24S546.17,630.5,549.16,623.5Z"/><path class="cls-3" d="M656.5,778.5s12,148,4,151-72,18-90,19-68,0-68,0,102,4,120-35S656.5,778.5,656.5,778.5Z"/><path class="cls-3" d="M771.5,883.5c-6,1-31,9-43,11s-37,1-37,1l-6-63s15,38,28,39,31,1,41,3,17,3,17,3l3,4Z"/><path class="cls-3" d="M311.5,860.5s-3,36-5,37-20,3-27,2-25-4-35-8l-20-8s35-7,49-9,28-5,32-8A27.64,27.64,0,0,0,311.5,860.5Z"/><path class="cls-1" d="M322,253.43s-30.93,12.94-31.49,33.75,11.24,43.87,31.49,47.24,24.18,0,24.18,0,20.25,59.62,81,78.74,120.36,4.5,120.36,4.5,52.3-18.56,86.61-56.8c0,0,15.19-17.44,21.37-33.19,0,0,38.25-.56,54-20.24s12.94-38.81,8.44-46.12-15.75-20.81-28.12-21.94-24.75-100.11-24.75-100.11l-99.54-31.49-73.68,15.75H355.19l-23.06,88.3Z"/><path class="cls-5" d="M333.41,237.12s24.11-56.8,38.81-61.3,37-6.19,49.39-1.12,32.93,12.37,44.69,15.18,50.56-3.37,53.51-3.94,85.84-20.24,94.08-19.68,24.69,2.25,32.34,10.12,20.58,34.87,23.52,51.18,26.43-45,26.43-45,11.17-63-15.29-69.74-147-23.06-147-23.06L355.14,120.7l-25.31,72.56Z"/><path class="cls-6" d="M356.88,104.39s1.69-35.43,6.19-32.62,2.81,12.38,18.56,14.06S402.44,78,409.75,75.71s7.31,0,21.93,2.81S459.8,69,466.55,67.27,477.24,66.15,495.8,69s15.18,1.13,31.49,2.81,50.06,9.56,60.74,6.75S601,61.09,601,61.09s-5.06,12.37,9,21.37,16.87-9,24.74-3.37S642,86.4,647.65,91.46s6.75,12.93,21.37,10.68,15.19-7.87,23.06-3.37S703.89,120.14,705,123s0,18.56,0,18.56-14.06-17.43-43.31-27-36-12.94-60.74-17.44-53.43-11.25-71.43-9.56-41.62,7.88-54,9-31.5-2.25-45.56-3.37-31.49,0-39.36,3.37S356.88,104.39,356.88,104.39Z"/><path class="cls-7" d="M389.5,225.88s11.81-10.13,17.44-9,11.24,4.5,12.93,6.18l3.38,3.38s-2.82-11.81-11.25-13.5-16.31,1.69-18,4.5S389.5,225.88,389.5,225.88Z"/><path class="cls-7" d="M554.29,224.75s7.87-7.87,13.5-7.31,6.75-.56,10.12,2.81,5.62,6.19,5.62,6.19-3.37-13.5-9.56-14.62-12.37.56-13.5,2.25S554.29,224.75,554.29,224.75Z"/><path class="cls-8" d="M414.81,344.26l171.54-1.17s5.06,25.63-18,37S507.61,398.47,477.8,395s-52.87-14.87-57.37-26.23S414.81,344.26,414.81,344.26Z"/><path class="cls-9" d="M433.93,373.74s20.81,14.06,40.5,18.56,49.49-1.69,52.86-2.81,23.62-7.88,27.56-10.69,11.25-6.18,12.94-9C567.79,369.8,464.86,355.18,433.93,373.74Z"/><path class="cls-1" d="M496.92,293.93s-5.62-3.38-8.43-1.13-3.94,7.88,1.12,9.56,6.75,1.69,6.75,1.69"/><path class="cls-5" d="M671,309.39a73.26,73.26,0,0,0,8.44-9c4.49-5.63,8.43-5.63,12.37-10.69s-.56-2.25-3.38-7.87,0-16.88,2.82-19.13,1.68-6.75,8.43-2.81,10.13,9.56,10.69,11.25-3.94-1.12-6.19-2.81-7.31-2.81-8.43,1.69-2.25,8.43,0,12.37-.57,10.68-2.82,14.06-9.56,6.75-11.24,8.44S671,309.39,671,309.39Z"/><path class="cls-5" d="M335.79,319s-2.81-8.44-6.19-10.69-9,5.06-7.87-4.5,3.37-6.75,0-14.06-5.06-12.37-7.87-11.25-9,6.19-9.57,11.81a72.76,72.76,0,0,0,0,11.81s3.38-12.93,6.75-13.49,6.75-1.13,6.19,5.62-.56,13.5,1.69,15.75,7.87,4.5,10.12,6.18S335.79,319,335.79,319Z"/><path class="cls-10" d="M673.24,249.78s-20.81-62.43-20.81-86.61c0,0-239,14.06-277.83-5.63,0,0-22.5,57.93-30.37,61.31S336.07,236,332.7,241.06s-11,12.09-11,12.09S307.11,264.4,307.11,261s-14.06-79.3-11.81-93.36,8.43-38.81,12.93-41.62c0,0-19.12-39.93-7.87-69.18S325.1,22,325.1,22,351.54,67.56,365,67.56s109.67-40.5,145.1-35.44S632.75,49,651.87,60.24,675.49,83.3,675.49,83.3s39.93,15.75,46.12,33.75-14.06,63-16.31,73.67-7.06,50.81-9.43,50.15S678.86,256,680,261,673.24,249.78,673.24,249.78Z"/><path class="cls-11" d="M316.39,49.28S307.39,92,327.07,101s66.37,7.87,85.49-9.56S453.05,60,488.49,65.59s83.23,6.75,117,20.24,89.42,20.81,92.8,38.81.28,52.12.28,52.12,25-45.37,18.28-54.93S673,97.08,664.52,92s-7.31-24.18-20.81-28.12S562.16,43.65,536.85,42s-48.93-6.75-66.36,0S419.31,63.9,406.37,69s-35.43,13.5-49.49,8.44S328.2,60,324.82,57.71,316.39,49.28,316.39,49.28Z"/><circle class="cls-12" cx="407.48" cy="263.35" r="16.02"/><circle class="cls-13" cx="399.47" cy="257.51" r="3.77"/><circle class="cls-12" cx="567.89" cy="265.26" r="16.02"/><circle class="cls-13" cx="559.88" cy="259.41" r="3.77"/><polygon class="cls-4" points="369 588 368 604 447 607 447 588 369 588"/></svg>