<svg id="Layer_1" data-name="Layer 1" xmlns="http://www.w3.org/2000/svg" viewBox="0 0 1000 1000"><defs><style>.cls-1{fill:#fed1a5;stroke:#d6a47c;}.cls-1,.cls-2,.cls-4,.cls-5,.cls-7{stroke-miterlimit:10;stroke-width:3px;}.cls-2{fill:#272928;stroke:#151616;}.cls-3{fill:#222423;}.cls-4{fill:#ebf8ff;stroke:#c8ccce;}.cls-5{fill:#ad2f30;stroke:#aa0f1f;}.cls-6{fill:#eabf98;}.cls-7{fill:#433a35;stroke:#352e2a;}.cls-8{fill:#e49ca0;}.cls-9{fill:#655d5a;}.cls-10{fill:#231f20;}.cls-11{fill:#fff;}</style></defs><title>lawyer</title><path class="cls-1" d="M738.25,876.87s1.93,12.94,3.86,24.89-1,21.9-6.76,19.91c0,0-7.72,9-16.4,2,0,0-13.51,10-19.3,1,0,0-16.41,8-17.37-3,0,0,0-14.93-2.9-16.92s-6.75,0-4.82-15.94S724.74,859.94,738.25,876.87Z"/><path class="cls-1" d="M264.5,882.9s-2,13-4,25,1,22,7,20c0,0,8,9,17,2,0,0,14,10,20,1,0,0,17,8,18-3,0,0,0-15,3-17s7,0,5-16S278.5,865.9,264.5,882.9Z"/><path class="cls-2" d="M342.5,913.9s29.45,63.9,150,48l9-1s68.89,18.91,155-46c0,0-11.41-270.87-8.76-286.77,0,0,16.16,92.57,17.76,103.77,2,14,2.65,161.18,2.65,161.18l75.51-10.6S743.5,752.9,735.5,701.9c-7.77-49.54-46.7-193-52-203.59s-33.11-31.79-83.45-42.39-201.36-5.3-213.28,0-74.19,23.85-78.16,29.14-20.75,69.87-27.11,87.84c-5.34,15.09-20.68,124.75-22,138s-5,185-5,185l81,7s0-158,1-166c.88-7.08.08-67,12-112l-4,152C343.58,811.74,342.5,913.9,342.5,913.9Z"/><path class="cls-3" d="M704,592.4c0-1.32-16.52-75.54-21.82-83.49s-18.55-21.2-31.79-27.82-55.64-17.22-55.64-17.22-18.55,39.74-17.22,39.74S645.09,493,657,504.94,704,592.4,704,592.4Z"/><path class="cls-3" d="M385.44,487.71c-8,0-57,13.25-59.61,17.23S290,581.8,286,592.4,307.28,493,313.91,487.71s67.56-21.19,76.83-23.84S385.44,487.71,385.44,487.71Z"/><path class="cls-4" d="M570.5,457.9s-20,147-23,167-47,97-47,97l-14,13s-36-80-55-114-19.46-127.23-20-133,26-19,26-19l107-26Z"/><polygon class="cls-5" points="472.87 512.89 458.5 688.9 485.5 731.9 505.5 721.9 527.5 695.9 527.5 683.9 504.67 508.91 472.87 512.89"/><path class="cls-5" d="M461,504.94s6.62,15.89,13.25,17.22,27.75,9.24,43.66-13.25-9.27-33.12-37.09-29.14S461,504.94,461,504.94Z"/><path class="cls-1" d="M438,430.4s8,44,22,49,35,8,58-7,37-32,32-42S438,430.4,438,430.4Z"/><path class="cls-4" d="M545.73,437.4s-37.09,38.42-55.64,35.77c-18.36-2.62-43.15-17.8-47.69-29.14-5.29-13.25-9.9-7.1-17.9-2.1s-23.16,29.92-19.19,41.84,47.69,49,50.34,49,31.79-50.34,34.44-51.66,26.5,49,30.47,51.66S559,514.23,566.93,497s9.47-42.82-6.43-52.09S545.73,437.4,545.73,437.4Z"/><path class="cls-3" d="M347,847.4s-5,59,0,65,47,35,68,40,68-1,74,0,15,3,25,2,67,1,101-23,34-27,34-30-3-71-3-71-15,68-51,79-78,17-113,11-72-1-93-22S347,847.4,347,847.4Z"/><path class="cls-2" d="M501.5,960.9s3.6-194.21-7-226"/><path class="cls-2" d="M561.5,457.9s4.1,21.87-6.49,69.56S519.45,667,511.5,682.9s-20,49-20,49l-3,1,5,9s50.53-55.71,81-114,37.62-61.73,31-71-36-7-28-15,44-23,48-31-5.07-45.67-24-56c-22-12-27.38-11-34-11S558.85,450,561.5,457.9Z"/><path class="cls-2" d="M418.5,446.9s-2.59,31.54,4,76.58,40.83,145.81,70,205.42c0,0,4.22,14.49,2.89,17.13S443.7,680,422.5,654.9s-50-70-50-78,35.32-34.38,34-41-46.65-15.75-44-29,9.45-33.43,28-48S418.5,446.9,418.5,446.9Z"/><path class="cls-2" d="M531.16,811s-1.32,27.82,2.65,27.82,92.73-11.93,96.7-15.9,1.33-23.85-2.64-25.17S531.16,809.62,531.16,811Z"/><path class="cls-2" d="M459.63,838.77c0-1.33,6.62-23.85,1.32-26.5s-87.43-9.27-88.76-8-6.62,23.85-4,25.17S459.63,840.09,459.63,838.77Z"/><circle class="cls-2" cx="482.29" cy="791.86" r="10.06"/><path class="cls-3" d="M266,891.4c1.32,0,57,8.3,61,3s3.61-88.46,3.61-88.46-26.5,50.34-39.74,60.94S258,890.4,258,890.4Z"/><path class="cls-3" d="M737,877.18s-18.55,6.63-34.44,6.63-29.15,5.29-30.47,2.65S672,751.7,672,746.4s.13,106.94,18.67,117.53S737,877.18,737,877.18Z"/><path class="cls-1" d="M335.69,225.93s-29.19,2.38-29.19,28,26.81,35.74,26.81,35.74-7.15,83.4,6.55,101.87,38.72,44.68,109.62,50,141.78-8.93,141.78-8.93,54.21-14.3,75.66-51.23a221.94,221.94,0,0,0,10.72-67.92s38.73-5.36,43.49-28.59-7.74-34.56-19.66-36.94-29.78-8.34-29.78-8.34,20.85-38.13-11.92-64.34S521,125.84,521,125.84L376.2,166.35Z"/><path class="cls-6" d="M680,295.63c.59-1.19,1.78-6,3-6s4.77-2.38,4.77-5.36-5.36-2.38-3-6.55,1.79-8.34,5.36-11.32,6.56-6,11.32-4.77,6.56.6,8.34,3.58,1.79,4.76,2.39,6.55-1.2,6.55-1.2,6.55.6-8.34-.59-9.53-6.55-4.17-10.13-3-7.74,3.58-8.93,5.36-4.77,4.17-3,6.56,4.76,7.15,4.17,9.53-3.58,6-4.77,8.34-3.57,6.55-4.77,7.15S679.43,296.82,680,295.63Z"/><path class="cls-6" d="M335.1,272.4s-1.2-8.94-2.39-10.73-3.57-2.38-1.19-6,5.36-4.17,2.38-8.34-3-6-7.74-6-10.13,3-11.32,5.36-1.79,7.74-1.79,7.74,2.39-8.93,5.36-9.53,9.54-1.79,11.32.6,0,5.95-1.19,8.34-1.78,4.76,0,7.15,4.17,5.95,3.58,8.34A2.37,2.37,0,0,0,335.1,272.4Z"/><path class="cls-7" d="M444.71,224.14s-28-6-40.51-5.36a101.27,101.27,0,0,0-20.85,3s7.15-17.28,20.25-17.28S437,217,437,217Z"/><path class="cls-7" d="M569.82,225.93c1.19-.6,28-3,40.51.59s20.85,6.56,20.85,6.56-3.58-9.53-6.56-12.51-8.93-8.34-22-7.15S569.82,225.93,569.82,225.93Z"/><path class="cls-8" d="M452.11,376.16c.05.59,26,10.95,56.65,5.38l16-2s-9.82,25.34-21.44,29.31-18.6,6.36-35.77,1.23S452.11,376.16,452.11,376.16Z"/><path class="cls-6" d="M659.18,234.86s-3.58-1.19-8.34-7.74-6.56-6-16.09-10.72-12.51-8.94-11.91-18.47,5.36-18.47-11.92-21.45-51.23-7.74-72.08-8.34-80.43,8.94-90,8.34S392.29,195,386.33,194.35s-21.45,8.34-21.45,8.34,13.11-17.27,13.7-18.46,119.15-31.58,119.15-31.58l103.06,4.17,46.47,17.87,20.26,29.79Z"/><path class="cls-7" d="M342.84,255.71c0-1.19-13.11-34.55-13.11-56s0-66.73,13.11-91.15,53.62-64.94,101.87-59,89.36,18.47,152.51,54.81,61.36,44.68,61.36,44.68,33.36-4.17,45.87,14.89,6,56.6,4.77,62.55-13.7,46.47-14.9,47.66-26.8-17.27-26.8-17.27-13.11,22.63-13.11,22,2.38-57.79,2.38-57.79l-30.38-13.1-.6-35.15s-81-11.92-124.5-8.94-126.9,32.17-126.9,32.17S359.52,229.5,356,240.23Z"/><path class="cls-9" d="M352.37,100.82s36.34-42.89,63.75-45.27,67.31,1.19,93.53,11.91,68.51,30.39,68.51,30.39-28.6-3-33.37.59,28,23.23,28,23.23S526.89,116.4,512,117a88.06,88.06,0,0,1-19-1c-2-.28-10-2-13.74-2.79-2.63-.55-14.73.93-41.26,2.79-34,2.38-70.73,28.91-70.73,28.91L344,176.48s17.28-43.49,16.68-45.27S335.1,161,335.1,161,338.07,122.87,352.37,100.82Z"/><path class="cls-9" d="M656.79,153.25s-1.78-4.77-5.36-7.15-15.49-8.94-16.68-9.53,12.51,10.72,12.51,10.72l-11.32-1.79L654.41,161s10.13-2.38,17.28-2.38S697.3,161,697.3,161s-11.32-7.15-23.23-8.34S656.79,153.25,656.79,153.25Z"/><path class="cls-7" d="M416.71,372.39s15.49-31,44.09-36.93,49.44-4.17,69.1,7.74,30.38,34,30.38,34S460.2,367.63,416.71,372.39Z"/><circle class="cls-10" cx="422.05" cy="273.96" r="16.97"/><circle class="cls-11" cx="413.56" cy="267.78" r="4"/><circle class="cls-10" cx="581.24" cy="271.81" r="16.97"/><circle class="cls-11" cx="572.75" cy="265.62" r="4"/></svg>