<svg id="Layer_1" data-name="Layer 1" xmlns="http://www.w3.org/2000/svg" viewBox="0 0 1000 1000"><defs><style>.cls-1{fill:#fed1a5;stroke:#d6a47c;}.cls-1,.cls-13,.cls-15,.cls-2,.cls-3,.cls-5,.cls-6{stroke-miterlimit:10;}.cls-1,.cls-13,.cls-2,.cls-3,.cls-5,.cls-6{stroke-width:3px;}.cls-2{fill:#f4f4f4;stroke:#c4c4c4;}.cls-3{fill:#212121;stroke:#040404;}.cls-4{fill:#ddd;}.cls-5{fill:#ffe41e;}.cls-15,.cls-5{stroke:#d18f0b;}.cls-12,.cls-6{fill:#a3afbd;}.cls-13,.cls-6{stroke:#8e949b;}.cls-7{fill:#231f20;}.cls-8{fill:#fff;}.cls-9{fill:#eabf98;}.cls-10{fill:#eb9eae;}.cls-11{fill:#e096a8;}.cls-13{fill:none;}.cls-14{fill:#363636;}.cls-15{fill:#ffbb1c;}</style></defs><title>pilot</title><path class="cls-1" d="M265.47,755.48s-.18,47.51-1,59c-.81,11.92,5.9,90,5.88,93.68,0,7.33-2.65,7.68-3,16.6s0,21.23,13.65,30.2,41.4,9.86,50.48,1.69,1.22-21,1.22-21,4.21,4.84,7.1,2.91-.44-18.85-14.49-25.45V899l-4.72-79.14,10.42-127.16-66.26-4.33Z"/><path class="cls-1" d="M741,754.55s1.35,47.5,2.42,58.92c1.11,11.9-3.7,90.12-3.58,93.84.22,7.33,2.85,7.61,3.4,16.52s.52,21.22-13,30.57-41.45,11-50.79,3.09-1.76-21-1.76-21-4.12,5-7.07,3.1,0-18.86,14-25.85l-.36-14L687,820.47,673.35,693.61,740,687.44Z"/><path class="cls-2" d="M469.91,488.28c-1.9,1.91-20,0-20,0s-80.82,41.84-105.55,48.5S258.81,572,252.16,643.28l-6.66,71.31s39,25.68,97,12.37V961.82s115.06,8.56,162.6,5.71,160.7-10.46,160.7-10.46L668.64,727s58,14.26,95.09-7.61c0,0-5.88-60.09-18.12-107.94a82.29,82.29,0,0,0-34.78-48.55c-16.05-10.48-37.15-23.6-52.65-30.84-28.06-13.09-96-46.59-96-46.59Z"/><path class="cls-3" d="M422.06,502.37s1.26-9.33-4.45-8.38-111.25,49.45-116,52.3,2.31,6.89,6.86,6.77S404.64,517.41,422.06,502.37Z"/><path class="cls-3" d="M599.23,503.5s-2.71-11,2.85-9.51,105.14,54.62,109.58,57.92-3,6.64-7.46,6.08S622.05,516.81,599.23,503.5Z"/><path class="cls-4" d="M558.34,539.63c0,1,4.76,13.31,4.76,13.31s-19-10.46-26.63-16.16-11.41-10.46-20-13.31-22.82-6.66-27.57-3.81-16.17,10.46-20,16.17-9.51,15.21-15.22,17.11-8.55,0-8.55,0V520.61s-3.81-4.75-7.61-1.9-47.55,16.17-55.15,20-37.09,17.12-51.35,24.72-38,20-39,20.92-3.8-12.36,7.61-19,65.61-29.48,78-34.24,38-15.21,44.69-19,25.68-11.41,31.38-11.41S488,503.5,488,503.5h34.23L547.88,514Z"/><path class="cls-4" d="M706.7,567.16s-21.88-13.3-33.29-19-32.34-14.24-43.76-19.94-19-10.44-29.48-15.19-16.17-5.7-24.73-9.49a146,146,0,0,0-20-6.65s-.93,25.68,0,26.63,34.24,5.68,42.8,8.53,28.53,10.44,44.7,16.13,24.73,9.49,41.85,16.14S711.46,570,706.7,567.16Z"/><path class="cls-1" d="M538.37,467.36,530.77,494,510,503.23l-16.37.25L468,485.43l-7.61-14.26S531.72,456,538.37,467.36Z"/><polygon class="cls-3" points="496.53 526.32 466.11 800.17 505.09 864.83 538.37 799.22 516.5 523.47 496.53 526.32"/><path class="cls-3" d="M475.61,514s11.41,24.72,19,26.62,19,.95,22.82,0,20.92-30.5,20.92-30.5-28-8.53-57.28-6.6S475.61,514,475.61,514Z"/><path class="cls-2" d="M471.81,476.87s18.07,24.73,29.48,25.68,34.23-25.68,34.23-25.68S565,474,569.75,480.68s1.9,50.39-5.7,80.82c0,0-26.63-52.3-61.81-57.05,0,0-38,12.36-57.05,57.05,0,0-12.37-58-5.71-76.07S471.81,476.87,471.81,476.87Z"/><rect class="cls-5" x="363.89" y="590.5" width="88.43" height="25.67"/><path class="cls-2" d="M365.31,643.28s-.95,69.41,1.9,71.31,33.28,13.32,39.94,13.32,41.84-13.32,42.79-16.17,1.9-71.31.95-72.27S365.31,643.28,365.31,643.28Z"/><rect class="cls-3" x="362.46" y="637.57" width="91.29" height="17.12"/><path class="cls-2" d="M561.19,644.23s-1,69.41,1.91,71.32,33.28,13.31,39.93,13.31,41.84-13.31,42.79-16.17,1.9-71.31.95-72.26S561.19,644.23,561.19,644.23Z"/><rect class="cls-3" x="558.34" y="638.52" width="91.29" height="17.12"/><path class="cls-4" d="M347.24,759.29c0-2.86,3.81-67.52,3.81-78.93s.95-31.38-1.9-44.69-6.66-21.87-13.32-6.66-16.16,35.19-20.92,47.55-14.26,22.82-31.37,23.77-28.53-6.65-29.48-8.56-2.85,19-2.85,19,26.62,6.66,40.88,7.61,22.82,3.8,31.38,1,12.36-4.76,16.17-2.85S346.29,727,346.29,727Z"/><path class="cls-4" d="M749.47,663.25s8.56,53.25,6.66,53.25S727.6,727.91,713.34,727s-36.14-2.86-39-3.81-8.56-1.9-9.51,3.81,0,47.54,0,47.54v32.33s-8.56-25.67-9.51-26.62-8.56-7.61-19-5.71-34.23,8.56-26.62,5.71,34.23-10.46,39.94-16.17,6.65-17.12,7.6-28.53,2.86-49.44,2.86-62.75,3.8-45.65,3.8-52.3,1.9-17.12,4.75-6.66,3.81,45.64,8.56,66.56-13.31,31.38,9.51,30.43,39.94,6.66,46.59-10.46S749.47,663.25,749.47,663.25Z"/><line class="cls-2" x1="342.49" y1="726.96" x2="342.49" y2="639.47"/><line class="cls-2" x1="668.64" y1="726.96" x2="667.69" y2="634.72"/><path class="cls-4" d="M660.09,864.83s-1.91,73.22-2.86,79.88-12.36,10.46-22.82,10.46-43.74,1.9-56.1,1.9-45.64,4.75-50.4,4.75H517.45s59-28.52,84.63-37.08S624.9,920,637.26,900,660.09,864.83,660.09,864.83Z"/><path class="cls-4" d="M347.24,880.05v61.81c0,8.55-1.9,15.21,6.66,16.16s49.45,3.8,56.1,3.8-5.7-9.5-21.87-17.11-23.77-9.51-28.52-28.53A250.53,250.53,0,0,0,347.24,880.05Z"/><path class="cls-1" d="M358.34,361.66s13.89,79.29,36.8,99.14,76.91,29.9,109.49,29.39,64.42-11.47,78.67-17.07,61.08-26,68.21-49.88,8.65-51.91,7.63-61.58c0,0,36.14-5.09,40.72-23.42s-1.53-30-8.15-34.61-37.66-10.69-37.66-10.69-13.23-58-37.15-88.56-61.59-45.3-77.88-46.82-58,1.52-85,19.34-47.84,45.3-54.46,55-33.08,56-33.08,56l-4.07,10.69s-19.34,2-26.47,12.22-9.67,27-5.6,32.57S347.14,361.15,358.34,361.66Z"/><path class="cls-6" d="M395,295s15.78-7.13,30.54-5.09S453,295,453,295s-16.8-11.71-26.47-13.23-18.32-.51-22.9,2S395,295,395,295Z"/><path class="cls-6" d="M557.35,292.85s22.9-2.54,32.57-1.53a131.38,131.38,0,0,1,18.83,3.57s-2.54-10.69-11.7-12.73-19.85-.51-24.44,1.53S557.35,292.85,557.35,292.85Z"/><path class="cls-6" d="M443.24,413.23s104.35-2.77,121.74,1.1c0,0-4.17-25.45-25-33.74s-44.53-8.86-58.44-6.09-31.31,19.36-31.31,19.36S441.85,406,443.24,413.23Z"/><path class="cls-1" d="M445.88,416.63s-8.65,16.79-10.18,25.44"/><path class="cls-1" d="M561.93,418.66s9.16,17.82,9.67,23.41"/><circle class="cls-7" cx="437.2" cy="324.31" r="16.53"/><circle class="cls-8" cx="428.93" cy="318.28" r="3.89"/><circle class="cls-7" cx="577.17" cy="326.85" r="16.53"/><circle class="cls-8" cx="568.9" cy="320.83" r="3.89"/><path class="cls-9" d="M662.7,347.4s-.51-10.17,3.57-13.23,9.67-3.56,6.1-6.62-4.07-4.58-2.54-8.14-.51-8.65,5.6-7.63,9.16,4.07,10.18,6.61a15.52,15.52,0,0,1,1,5.09s-2.54-7.12-6.1-6.1-6.11,2-5.09,6.61,3.56,6.11.51,9.16S662.7,347.4,662.7,347.4Z"/><path class="cls-9" d="M356.3,348.93s.51-8.65-1-12.21-5.6-7.13-1.52-9.17,5.59-4.58,5.09-8.14-1-6.11-3.57-6.62-12.21-1.52-15.27,5.09S337,325,337,325s6.11-7.63,9.67-7.63,6.62-1,5.09,3.56-3.05,5.6-2.54,9.67S356.3,348.93,356.3,348.93Z"/><path class="cls-10" d="M474.38,421.71s35.12,5.6,62.61,1c0,0-11.71,30-28.51,30.54s-24.94-5.09-29-11.2S474.38,421.71,474.38,421.71Z"/><path class="cls-11" d="M483,445.13s6.1,5.6,13.23,6.61,11.2,1,13.74.51,9.67-5.09,9.67-5.09l2-2s-13.75-3.57-19.34-3.57S483,445.13,483,445.13Z"/><path class="cls-12" d="M456.06,405.43s3.56-9.67,5.09-11.2"/><path class="cls-13" d="M456.06,405.43s3.56-9.67,5.09-11.2"/><line class="cls-6" x1="469.29" y1="403.39" x2="473.87" y2="389.65"/><path class="cls-6" d="M488.12,404.41c0-.51,1-17.31,1-17.31"/><path class="cls-6" d="M516.63,404.92s-1.53-14.76-2-16.29"/><path class="cls-6" d="M543.6,404.92s-6.1-14.25-7.63-15.78"/><path class="cls-6" d="M387.27,206.87s13.91-5,20.63-1.56,13.13,23,5.45,32.09l-7.87,18.81-4.34-3.8s-2.66,20.52-5.18,27.42-4.33-3.79-7.32-3.29S381.17,305,381.17,305l-18.06-8.59s-6.2,8.06-7.6,2.85S352.8,221.13,387.27,206.87Z"/><path class="cls-6" d="M619.44,226.27s-3.05,11.2,0,18.32,9.16,15.78,9.16,15.78,2.55-9.16,3.56-7.13,1.53,13.24,2.55,15.78,2-2.54,5.09,0,5.09,17.31,5.09,18.83S649,304.14,649,304.14s6.74-10.54,7.95-10.61,19.79,4.66,19.79,4.66-.26-27.13-11.45-47-17.82-38.17-31-39.7S619.44,226.27,619.44,226.27Z"/><path class="cls-6" d="M357.26,268.61S357.2,237,365.52,222s30-51.47,84.68-64.59,86.34-17.29,133.8-.1,69.8,15.88,81.57,39.92,13.52,73.88,10.53,77.55-18.85-2.91-32-6.52-16.82-4.5-22.88.8-14.52,1.53-16.69-.94-21.61,7.38-22.08,8.92-12-14.86-25-14.91-28.9,7.12-34.39,13.94-22.93-15.5-31.32-17.24-49.4,16.5-49.4,16.5,9.86-15.63-.61-17.3S381,276.44,379.83,273.93,383.37,256,357.26,268.61Z"/><path class="cls-3" d="M345.91,245.25s-46.22-33.32-50.52-43S275,157.12,306.14,123.8,424.36,26,509.27,26s147.24,38.69,191.3,74.16,57,100,16.12,125.74-39.76,15-50.51,19.35S345.91,245.25,345.91,245.25Z"/><path class="cls-3" d="M682.84,232.89s5.37,25.79-11.82,36.54-140.8,21.49-198.83,17.2-130-1.08-129-50.52,199.9-39.76,199.9-39.76S669.94,206,682.84,232.89Z"/><path class="cls-14" d="M657.58,244.17c-9.91-3.71-64.48-26.87-124.67-25.79s-162.29,18.27-163.36,25.79,18.27,28,64.48,28,187,3.22,205.28-5.38S666.18,247.4,657.58,244.17Z"/><path class="cls-5" d="M343.43,241.59S438.87,204.94,509.8,206s109.63,8.6,147.24,24.72l26.59,10.85s7.81-40.94.28-49.54-97.8-47.29-169.81-48.37S389.43,168.4,343.22,195.27c0,0-2.81,28.15.21,46.32"/><path class="cls-5" d="M523.29,82.58H496.1S487,85.17,484.45,77.4s-2.59-14.24-5.18-15.53-47.9-3.88-66,5.18c0,0,3.89,6.47,19.42,5.18,0,0,1.3,6.47,10.36,6.47,0,0,1.29,9.06,10.36,9.06,0,0,3.88,6.48,11.65,6.48,0,0,1.29,6.47,14.24,7.76,0,0-5.18,5.18,16.83,6.48s46.61,0,46.61,0,6.47-5.18,2.58-6.48c0,0,20.72-3.88,13-7.76,0,0,18.13-2.59,9.06-7.77,0,0,19.42-3.89,11.65-9.07,0,0,22-1.29,14.25-5.17,0,0,18.12,1.29,19.41-2.59s-3.88-6.48-16.83-7.77-49.19-3.88-50.49-1.3S542.71,77.4,540.12,80,523.29,82.58,523.29,82.58Z"/><path class="cls-5" d="M503.87,116.24c-1.3-1.29-14.24-3.88-15.54-22s5.18-23.31,12.95-29.78,10.35-9.06,10.35-9.06l13,11.65s14.24,11.65,10.36,27.19-9.07,22-15.54,22Z"/><polygon class="cls-15" points="506.46 92.94 502.57 102 511.63 95.53 520.7 104.59 518.11 92.94 528.46 86.47 516.81 83.88 511.63 72.23 509.05 83.88 498.69 85.17 506.46 92.94"/></svg>