<svg id="Layer_1" data-name="Layer 1" xmlns="http://www.w3.org/2000/svg" viewBox="0 0 1000 1000"><defs><style>.cls-1{fill:#fed1a5;stroke:#d6a47c;}.cls-1,.cls-11,.cls-2,.cls-4,.cls-5{stroke-miterlimit:10;stroke-width:3px;}.cls-2{fill:#c4762b;stroke:#bc641b;}.cls-3{fill:#b7621c;}.cls-4{fill:#ebf8ff;stroke:#c8ccce;}.cls-5{fill:#0b46c6;stroke:#003aa0;}.cls-6{fill:#eabf98;}.cls-7{fill:#383d43;}.cls-11,.cls-8{fill:#32373b;}.cls-9{fill:#d591a8;}.cls-10{fill:#d17d9d;}.cls-11{stroke:#2b2a2a;}.cls-12{fill:#231f20;}.cls-13{fill:#fff;}.cls-14{fill:#383c3f;}</style></defs><title>politician</title><path class="cls-1" d="M748.25,869.47s1.93,12.94,3.86,24.89-1,21.9-6.76,19.91c0,0-7.72,9-16.4,2,0,0-13.51,10-19.3,1,0,0-16.41,8-17.37-3,0,0,0-14.93-2.9-16.92s-6.75,0-4.82-15.94S734.74,852.54,748.25,869.47Z"/><path class="cls-1" d="M274.5,875.5s-2,13-4,25,1,22,7,20c0,0,8,9,17,2,0,0,14,10,20,1,0,0,17,8,18-3,0,0,0-15,3-17s7,0,5-16S288.5,858.5,274.5,875.5Z"/><path class="cls-2" d="M352.5,906.5s29.45,63.9,150,48l9-1s68.89,18.91,155-46c0,0-11.41-270.87-8.76-286.77,0,0,16.16,92.57,17.76,103.77,2,14,2.65,161.18,2.65,161.18l75.51-10.6S753.5,745.5,745.5,694.5c-7.77-49.54-46.7-193-52-203.59s-33.11-31.79-83.45-42.39-201.36-5.3-213.28,0-74.19,23.85-78.16,29.14-20.75,69.87-27.11,87.84c-5.34,15.09-20.68,124.75-22,138s-5,185-5,185l81,7s0-158,1-166c.88-7.08.08-67,12-112l-4,152C353.58,804.34,352.5,906.5,352.5,906.5Z"/><path class="cls-3" d="M714,585c0-1.32-16.52-75.54-21.82-83.49s-18.55-21.2-31.79-27.82-55.64-17.22-55.64-17.22-18.55,39.74-17.22,39.74,67.56-10.6,79.48,1.33S714,585,714,585Z"/><path class="cls-3" d="M395.44,480.31c-7.95,0-57,13.25-59.61,17.23S300,574.4,296,585s21.28-99.39,27.91-104.69,67.56-21.19,76.83-23.84S395.44,480.31,395.44,480.31Z"/><path class="cls-4" d="M580.5,450.5s-20,147-23,167-47,97-47,97l-14,13s-36-80-55-114-19.46-127.23-20-133,26-19,26-19l107-26Z"/><polygon class="cls-5" points="482.87 505.48 468.5 681.5 495.5 724.5 515.5 714.5 537.5 688.5 537.5 676.5 514.67 501.51 482.87 505.48"/><path class="cls-5" d="M471,497.54s6.62,15.89,13.25,17.22S512,524,527.91,501.51s-9.27-33.12-37.09-29.14S471,497.54,471,497.54Z"/><path class="cls-1" d="M448,423s8,44,22,49,35,8,58-7,37-32,32-42S448,423,448,423Z"/><path class="cls-4" d="M555.73,430s-37.09,38.42-55.64,35.77c-18.36-2.62-43.15-17.8-47.69-29.14-5.29-13.25-9.9-7.1-17.9-2.1s-23.16,29.92-19.19,41.84,47.69,49,50.34,49,31.79-50.34,34.44-51.66,26.5,49,30.47,51.66,38.42-18.54,46.37-35.76,9.47-42.82-6.43-52.09S555.73,430,555.73,430Z"/><path class="cls-3" d="M357,840s-5,59,0,65,47,35,68,40,68-1,74,0,15,3,25,2,67,1,101-23,34-27,34-30-3-71-3-71-15,68-51,79-78,17-113,11-72-1-93-22S357,840,357,840Z"/><path class="cls-2" d="M511.5,953.5s3.6-194.21-7-226"/><path class="cls-2" d="M571.5,450.5s4.1,21.87-6.49,69.56S529.45,659.6,521.5,675.5s-20,49-20,49l-3,1,5,9s50.53-55.71,81-114,37.62-61.73,31-71-36-7-28-15,44-23.05,48-31-5.07-45.67-24-56c-22-12-27.38-11-34-11S568.85,442.55,571.5,450.5Z"/><path class="cls-2" d="M428.5,439.5s-2.59,31.54,4,76.58,40.83,145.81,70,205.42c0,0,4.22,14.49,2.89,17.13s-51.69-66-72.89-91.13-50-70-50-78,35.32-34.38,34-41-46.65-15.75-44-29,9.45-33.43,28-48S428.5,439.5,428.5,439.5Z"/><path class="cls-2" d="M541.16,803.55s-1.32,27.82,2.65,27.82,92.73-11.93,96.7-15.9,1.33-23.85-2.64-25.17S541.16,802.22,541.16,803.55Z"/><path class="cls-2" d="M469.63,831.37c0-1.33,6.62-23.85,1.32-26.5s-87.43-9.27-88.76-8-6.62,23.85-4,25.17S469.63,832.69,469.63,831.37Z"/><circle class="cls-2" cx="492.29" cy="784.45" r="10.06"/><path class="cls-3" d="M276,884c1.32,0,57,8.3,61,3s3.61-88.46,3.61-88.46-26.5,50.34-39.74,60.94S268,883,268,883Z"/><path class="cls-2" d="M747,869.78s-18.55,6.63-34.44,6.63-29.15,5.29-30.47,2.65S682,744.3,682,739s.13,106.94,18.67,117.53S747,869.78,747,869.78Z"/><path class="cls-1" d="M323.17,274.31s-31.12,13-31.68,33.95,11.31,44.13,31.68,47.52,24.33,0,24.33,0,20.37,60,81.47,79.22,121.08,4.52,121.08,4.52,52.62-18.67,87.14-57.14c0,0,15.27-17.54,21.5-33.39,0,0,38.47-.56,54.31-20.36s13-39,8.49-46.4-15.84-20.93-28.29-22.06-24.9-100.72-24.9-100.72L568.16,127.77,494,143.61H356.55l-23.2,88.83Z"/><path class="cls-6" d="M334.64,257.9s24.25-57.14,39-61.67S411,190,423.37,195.1s40.8,1.07,52.63,3.9,40,1.57,43,1,89.52-13.95,97.8-13.39,24.84,2.27,32.53,10.19S670,231.88,673,248.28,699.61,203,699.61,203s11.24-63.37-15.38-70.16-147.88-23.2-147.88-23.2L356.53,140.78l-25.44,73Z"/><path class="cls-7" d="M358.25,124.37s1.7-35.64,6.22-32.81S367.3,104,383.14,105.7s20.94-7.92,28.29-10.18,7.36,0,22.07,2.83S461.79,88.73,468.58,87s10.75-1.13,29.42,1.7,15.28,1.13,31.68,2.83,50.36,9.62,61.11,6.79,13-17.54,13-17.54-5.09,12.45,9.06,21.5,17-9,24.89-3.4,7.36,7.36,13,12.45,6.79,13,21.5,10.75,15.28-7.92,23.2-3.39,11.88,21.5,13,24.33,0,18.67,0,18.67-14.15-17.54-43.57-27.16-36.21-13-61.11-17.54S550.05,105.7,532,107.4s-41.87,7.92-54.32,9-31.68-2.26-45.83-3.39-31.68,0-39.6,3.39S358.25,124.37,358.25,124.37Z"/><path class="cls-8" d="M391.07,246.59S403,236.4,408.6,237.53s11.32,4.53,13,6.23l3.39,3.39s-2.83-11.88-11.31-13.58-16.41,1.7-18.11,4.53S391.07,246.59,391.07,246.59Z"/><path class="cls-8" d="M556.84,245.45s7.92-7.92,13.58-7.35,6.79-.57,10.19,2.83a83.72,83.72,0,0,1,5.65,6.22s-3.39-13.58-9.61-14.71-12.45.57-13.58,2.26S556.84,245.45,556.84,245.45Z"/><path class="cls-9" d="M416.53,365.69l172.56-1.19s5.1,25.79-18.1,37.21-61.11,18.51-91.1,15-53.18-15-57.71-26.39S416.53,365.69,416.53,365.69Z"/><path class="cls-10" d="M435.76,395.34S456.7,409.49,476.5,414s49.79-1.7,53.18-2.83,23.77-7.92,27.73-10.75,11.31-6.22,13-9.05C570.42,391.38,466.88,376.67,435.76,395.34Z"/><path class="cls-1" d="M499.13,315.05s-5.66-3.4-8.49-1.13-4,7.92,1.14,9.61,6.79,1.7,6.79,1.7"/><path class="cls-6" d="M674.25,330.61a73.35,73.35,0,0,0,8.48-9.06c4.53-5.65,8.49-5.65,12.45-10.75s-.57-2.26-3.4-7.92,0-17,2.83-19.23,1.7-6.79,8.49-2.83,10.19,9.62,10.75,11.31-4-1.13-6.22-2.83-7.36-2.83-8.49,1.7-2.26,8.49,0,12.45-.57,10.75-2.83,14.14-9.62,6.79-11.31,8.49S674.25,330.61,674.25,330.61Z"/><path class="cls-6" d="M337,340.23s-2.83-8.49-6.22-10.75-9.05,5.09-7.92-4.53,3.39-6.79,0-14.15-5.1-12.44-7.92-11.31-9.06,6.22-9.62,11.88a72.13,72.13,0,0,0,0,11.88s3.39-13,6.79-13.58,6.79-1.13,6.22,5.66-.57,13.58,1.7,15.84,7.92,4.53,10.18,6.23S337,340.23,337,340.23Z"/><path class="cls-11" d="M676.51,270.63s-20.94-62.8-20.94-87.13c0,0-240.46,14.14-279.5-5.66,0,0-22.63,58.28-30.55,61.67s-8.21,17.26-11.6,22.35-11,12.17-11,12.17-14.71,11.31-14.71,7.92S294,202.17,296.29,188s8.49-39,13-41.87c0,0-19.24-40.17-7.92-69.6s24.89-35.07,24.89-35.07,26.59,45.82,40.17,45.82,110.33-40.73,146-35.64S635.77,68.64,655,80s23.76,23.2,23.76,23.2,40.17,15.84,46.4,33.94S711,200.47,708.76,211.22s-7.09,51.11-9.49,50.45-17.1,15.19-16,20.28S676.51,270.63,676.51,270.63Z"/><circle class="cls-12" cx="409.15" cy="284.29" r="16.12"/><circle class="cls-13" cx="401.09" cy="278.41" r="3.8"/><circle class="cls-12" cx="570.52" cy="286.2" r="16.12"/><circle class="cls-13" cx="562.46" cy="280.33" r="3.8"/><path class="cls-14" d="M321,64s11,27,13,32,14,21,27,21,34-2,53-13,49-20,66-21,37-5,57-6,81,10,93,16,33,20,35,24,13.52-3.61,20.26,1.7S702,132,706,143s21,21,11,4-25-35-34-37-10-9-21-16-32-15-57-20-66-10-86-10-5-5-40,4-64,23-78,27-34,9-44,0-25-33-29-35-7-9-7-9Z"/></svg>