<svg id="Layer_2" data-name="Layer 2" xmlns="http://www.w3.org/2000/svg" viewBox="0 0 1000 1000"><defs><style>.cls-1,.cls-10{fill:#fed1a5;}.cls-1{stroke:#d6a47c;}.cls-1,.cls-2,.cls-3,.cls-6{stroke-miterlimit:10;stroke-width:3px;}.cls-2{fill:#f9fbfa;stroke:#8b8c8b;}.cls-3{fill:#b73536;stroke:#8c2228;}.cls-4{fill:#e8e8e8;}.cls-5{fill:#eabf98;}.cls-6{fill:#50413c;stroke:#3f332f;}.cls-7{fill:#5b4c48;}.cls-8{fill:#e7aebd;}.cls-9{fill:#e29fb4;}.cls-11{fill:#231f20;}.cls-12{fill:#fff;}</style></defs><title>seller</title><path class="cls-1" d="M280.15,826.33c-1.17,11,4.93,31.83,4.93,31.83s-12.87,31.22,5.85,41.31c0,0,10.53,4.59,11.7-2.75,0,0,14,3.67,16.38-2.75,0,0,8.19-.92,9.36-4.59,0,0,9.25-.43,10.42-4.1,0,0,1.75-8.12-2.93-11.79,0,0,7.79-13.63-9.76-21.9,0,0-3-25.57-3-32S281.32,815.32,280.15,826.33Z"/><path class="cls-1" d="M703,824.58c2.52,11.33-1.25,33.73-1.25,33.73s17,31-1,43.72c0,0-10.27,6-12.35-1.49,0,0-14,5.49-17.15-.93,0,0-8.52,0-10.16-3.67,0,0-9.56.65-11.2-3,0,0-2.77-8.24,1.6-12.62,0,0-9.64-13.28,7.4-24,0,0,0-27-.75-33.68S700.49,813.24,703,824.58Z"/><path class="cls-2" d="M543,439s35,5,55,10,72,37,78,46,33.89,143.36,36.5,162.5c3,22,5,52,3,134l-7,64-54-3s3-100,3-116-15-123-15-123,3,71.93,3,101-5,131-6,142-82,17-94,19-64,9-117-1-78-26-78-26-5-140-3-158,5-81,5-81-13,45-16,71-6,168-6,168l-53,7s-10-152-7-185,32-180,39-183,76-49,134-52S543,439,543,439Z"/><polygon class="cls-3" points="484.5 480.5 466.5 768.5 492.5 802.5 516.5 769.5 501.5 477.5 484.5 480.5"/><path class="cls-3" d="M499.5,463.5h-14c-4,0-8,16-7,18s3,10,11,10a48.83,48.83,0,0,0,14-2s7-9,7-15S499.5,463.5,499.5,463.5Z"/><path class="cls-4" d="M452.5,439.5c-7,0-49,6-61,12s-48,26-57,30-16,6-19,10-7,12-7,12,62-29,91-38,48-11,59-12,67.13,2.57,91.06,3.78S618.5,480.5,632.5,488.5s34,18,38,18,0-14-14-23-57-31-70-33-63-10-70-11S452.5,439.5,452.5,439.5Z"/><path class="cls-1" d="M474.5,424.5s39,1,49,2,14,7,14,7l-39,29h-16l-28-19-4-11S458.5,424.5,474.5,424.5Z"/><path class="cls-2" d="M455.5,429.5s32,32,36,32,39-29,44-32,13,7,17,16-31,54-31,54-23-35-30-35-23,33-23,33-33-39-33-50S443.5,428.5,455.5,429.5Z"/><path class="cls-4" d="M638.5,634.5s2,82,2,101-1,113-9,118-103,19-118,20,73-30,83-40,17-23,17-36,4-35,4-38-4-4-11,1-17,12-22,13,6-11,20-23,19-3,22-22,3-58,5-68S638.5,634.5,638.5,634.5Z"/><path class="cls-4" d="M356.5,634.5s1,26,0,33-4,25-4,31,2,35,2,39,1,18,2,21,10-27,10-27,16,7,22,9,16-2,6-9-18-8-21-20-8-30-8-40-2-28-4-34a87.39,87.39,0,0,0-6-13Z"/><path class="cls-4" d="M658.5,848.5s5,4,6,0,7-102,5-129-23-109-23-109,14,106,14,111v76C660.5,810.5,658.5,848.5,658.5,848.5Z"/><path class="cls-4" d="M350.5,601.5s-17,51-19,76-4,110-4,125-2,42-2,42-25,2-29,4-15,0-15,0,25-13,28-20,12-57,12-65-1-71,6-102S350.5,601.5,350.5,601.5Z"/><path class="cls-1" d="M322.23,288.91s-24.07,12.59-25.09,28.79,5.49,32.75,17.28,39.32,38.82,8.45,38.82,8.45,29.76,46.85,70.42,63,62,15.8,82.32,12.92,49.2-9.32,78.81-36.73,43.09-55.32,43.09-55.32,33-.72,43-24.3-5.93-41.76-5.93-41.76-12.06-14.54-26.62-18.51-82.38-77-82.38-77L402.53,175l-42.62,7.14-38.33,58.26Z"/><path class="cls-5" d="M332,283.53s16.6-38,27-46.21,37.32-22.82,37.32-22.82,22.13,39.58,26.38,42.6,11.53,8.22,16.38,8.48,30-2.89,30-2.89l-47.52-38s48.2,22.91,55.48,24.9,32.85,11.06,44.11,11.31a130.26,130.26,0,0,0,21.66-1.5l-27-20.59-5.38-16.2,35-8-154-29.23-30.23,7.74-29,47.08Z"/><path class="cls-6" d="M351.06,346.07s-19-56.13-11.26-86.29S362.29,225,362.29,225s22.52,11.72,29.39,15.91c8.93,5.45,40.82,17.2,45.93,19s40.21,3.94,40.21,3.94a554.22,554.22,0,0,1,57.88,1s15.08.68,21.92-3.14c0,0-27.58-24.24-31.49-31.6,0,0,23.68,20.08,43.18,28s50.61,15,50.61,15,8.11,45.13,6.21,52.93c0,0,17.82-24.36,21.1-39.87A109,109,0,0,0,649.07,267c.15-7.56,50.87-43.06,41.85-42-19.4,2.18-35.4-19.93-39.54-31.85C641,163.32,608,138.4,588.85,122.91s-59.46-23.17-91.61-26.86-63.77,2.14-87.84,21.14-27.95,34.08-27.95,34.08-40.89,7.92-57.84,40.69-20.14,48.8-18.39,59.19,8.61,35.43,8.61,35.43,8.34,21.05,20.22,37.76S351.06,346.07,351.06,346.07Z"/><path class="cls-7" d="M384.92,156S395.3,131.84,407,125.08s39.57-22.14,56-22.76,28.5-2.11,37.52.66,33.36,7.76,33.36,7.76-26.51,1.24-37.68,1.51-38,3.16-43.93,5.76-28.15,10.6-9.35,8a184.94,184.94,0,0,1,34.49-1.5s-32.32,1.67-42.36,8.7-23.9,16.83-28.4,21.86-15.06,15.35-15.06,15.35l-32.23,5.41c-6.76,1.13-33.86,21.17-37.23,26.55s7.26-20.46,17-26.36,19.22-16.05,29-18.22A66.58,66.58,0,0,1,384.92,156Z"/><path class="cls-6" d="M381.39,262.43s8.91-7.37,13.85-6.6,8.06,3.46,10.49,5.19a27.34,27.34,0,0,1,3.73,3.11s-3-8.57-7.11-10.56-8-2.94-11-1.89S381.39,262.43,381.39,262.43Z"/><path class="cls-5" d="M338.37,351.67s-6.77-11.69-9.2-13.42-4.85-.26-4.85-3.46,2.68-3.12,1.29-8.23S322.82,316.33,321,315a7.56,7.56,0,0,0-7-.43c-2.52,1-6.32,6.94-6.24,7.46s-3,4.25-1.12,6.06,5.2-4.07,7.1-5.46,5.8-3.65,6,.6-4.75,9.88-.33,14,7.89,5.62,10.32,7.35S338.37,351.67,338.37,351.67Z"/><path class="cls-5" d="M636.93,338s1-13,8.64-15.34,12.13-1,9.7-5.91-4.68-5.62-3.91-10.56,1.47-10.4,5.11-11,5.63-1.48,8.31,1.81a15.28,15.28,0,0,1,3.22,6.41s-5.12-5-7.63-.86-2.51,4.16-1.64,9.36,2.53,8.66-1.89,11-7.45,3.39-10.83,5.56S636.93,338,636.93,338Z"/><path class="cls-8" d="M414.2,375.29s83.07,4.62,150.85-8.67c0,0-1.2,31.11-25.08,41.68s-72.07,16.34-86.39,10.62c0,0-23.07-6.95-30.62-16.89S414.2,375.29,414.2,375.29Z"/><path class="cls-1" d="M483.77,328.09s-6.67-4.76-11.43-1.29-.95,10.31,3,11.26a33,33,0,0,0,7.63.86"/><path class="cls-9" d="M451.63,413.64s8.93,5.45,27.64,5.52,37.6-5.24,37.6-5.24l18.1-6.77s-23.83-8.3-42.81-6.72S451.63,413.64,451.63,413.64Z"/><path class="cls-10" d="M396.65,371.21s-19,2.67-23.71,2.15-10.55-4.73-12.14-8.94-1.07-11.07,12.1-14.25,23.19-1.1,25.82,1,5.82,8.42,4.24,11.59S399.81,370.68,396.65,371.21Z"/><path class="cls-10" d="M575,346.46s13.51-8.68,21.39-9.47,19.32.5,20.19,2.5,6.07,10.73-5.19,13.69-20.53,5.05-27,4.53S571.65,351.83,575,346.46Z"/><circle class="cls-11" cx="406.34" cy="308.07" r="15.01"/><circle class="cls-12" cx="398.98" cy="302.4" r="3.54"/><circle class="cls-11" cx="549.17" cy="310.94" r="15.01"/><circle class="cls-12" cx="541.81" cy="305.27" r="3.54"/></svg>