<svg id="Layer_1" data-name="Layer 1" xmlns="http://www.w3.org/2000/svg" viewBox="0 0 1000 1000"><defs><style>.cls-1,.cls-5{fill:#fed1a5;}.cls-1{stroke:#d6a47c;}.cls-1,.cls-12,.cls-17,.cls-2,.cls-4,.cls-5,.cls-6{stroke-miterlimit:10;stroke-width:3px;}.cls-2{fill:#d5d7d4;}.cls-2,.cls-5{stroke:#b7b7b7;}.cls-3{fill:#c0c1bf;}.cls-4{fill:#7d7c2d;stroke:#5b5123;}.cls-6{fill:#514e1b;stroke:#3f3a15;}.cls-7{fill:#eabf98;}.cls-8{fill:#383d43;}.cls-12,.cls-9{fill:#32373b;}.cls-10{fill:#d591a8;}.cls-11{fill:#d17d9d;}.cls-12{stroke:#2b2a2a;}.cls-13{fill:#4c4f51;}.cls-14{fill:#231f20;}.cls-15{fill:#fff;}.cls-16{fill:#6d6a29;}.cls-17{fill:#fec30d;stroke:#d8a20b;}</style></defs><title>tailor</title><path class="cls-1" d="M214.93,826.69s-10.09,50.92-11.41,59.51-3.76,8.88-5.61,19.31-3.69,24.86,7.18,36,36.07,13.46,45.78,4.32,4.77-24.54,4.77-24.54,3,5.86,6,3.73,2.89-22.1-8.79-30.48l8.71-58.3-44.21-17.83Z"/><path class="cls-1" d="M796.54,839.93s7.7,51.34,8.61,60,3.37,9,4.73,19.54,2.5,25-9.16,35.73-37.47,12-46.91,2.5S750.18,933,750.18,933s-3.36,5.74-6.28,3.49-1.82-22.22,10.52-30.13l-5.91-58.68,46-16.08Z"/><path class="cls-2" d="M323.17,518.34c-3.52,1.62-45.27,58.55-56.65,86.38s-73.37,183.42-77.17,225.16-8.85,63.25-8.85,63.25,86,16.44,91.08,11.38,25.3-122.7,32.89-137.88,17.71-43,19-40.48,5.06,24,8.86,34.16,87.28,78.43,159.38,74.63,103.73-39.21,151.8-46.8,36.69-40.48,36.69-41.75,7.58-26.56,7.58-26.56,21.38,48.83,27.83,74.63C723.17,824.82,732,902,732,902l87.28-3.79S805.4,671.76,775,614.84s-51.87-88.55-68.31-92.35S575.17,464.3,414.52,487.07Z"/><path class="cls-2" d="M525.84,516.17,524.57,668l-16.44,1.27-1.27-153.06S522,514.9,525.84,516.17Z"/><path class="cls-3" d="M703.73,525.29s16.91,13.65,23.24,23.77,19,29.09,24,39.21,10.12,24,10.12,24-31.62-34.16-38-29.1-13.91,20.24-19,37.95S689,650.25,690.28,669.23s10.12,30.36,13.92,40.48,10.12,32.89,16.44,55.66A430.94,430.94,0,0,1,732,821c1.26,10.12,7.59,62,7.59,62l-3.8,10.12s-7.59-98.67-32.89-149.27c0,0-13.91-31.62-15.18-34.15s-13.91,12.65-19,11.38-8.85-97.4-5.06-105S703.73,525.29,703.73,525.29Z"/><path class="cls-3" d="M285.49,592.07c1.27-2.53,21.51-40.48,31.63-50.6s7.59-8.86,16.44,12.65S350,584.48,355.07,606s16.44,36.68,12.65,56.92-3.8,34.16-10.12,46.81-21.51,36.68-21.51,36.68-2.53-19-5.06-21.5-8.85-12.65-15.18-5.06-12.65,26.56-12.65,17.71,1.27-22.77,11.39-35.42,21.5-16.45,16.44-41.75,0-37.94-15.18-51.86S285.49,592.07,285.49,592.07Z"/><path class="cls-4" d="M422.11,480.75s9,46.74,37.95,98.67c30.36,54.39,58.19,79.69,58.19,79.69s46.8-51.86,59.45-84.75,32.89-87.29,32.89-87.29,103.73,29.1,105,35.42-35.41,127.76-40.47,155.59S686.7,745.77,689,756.51c3.28,15.19,2.53,60.72,2.53,60.72s-2.53,106.26-3.8,111.32-122.7,8.85-135.35,6.32c-2-.39-32.86-44.43-41.74-44.27-4.68.09-33.19,44.09-39.22,44.27-55.29,1.72-138.13,5.77-142.94,0-6.32-7.59-2.25-190.12-1.13-188s34-38.4,30.23-78.88-38-148-38-148S409.46,478.22,422.11,480.75Z"/><path class="cls-2" d="M471.44,466.83c21.25-3.54,62-5.06,79.7,0s36.68,20.24,40.48,29.1-11.39,46.8-19,59.45-10.12,16.45-10.12,16.45-25.3-49.34-34.15-50.6S508.13,520,498,525s-30.36,46.81-30.36,46.81-27.83-38-31.63-59.46S441.08,471.89,471.44,466.83Z"/><path class="cls-5" d="M523.31,511.11c-1.27,0-10.12,5.06-21.51,0s-25.3-15.18-29.09-20.24-10.12-16.45,5.06-19,59.45-2.53,70.84,2.53,19,11.39,6.32,20.24S523.31,511.11,523.31,511.11Z"/><circle class="cls-6" cx="517.56" cy="709.41" r="6.93"/><circle class="cls-6" cx="517.56" cy="781.51" r="6.93"/><circle class="cls-6" cx="516.3" cy="853.61" r="6.93"/><path class="cls-6" d="M358.86,765.37c1.27,0,31.63,15.18,82.22,3.79,0,0-1.26,63.25-3.79,70.84s-70.84,22.77-78.43-2.53S358.86,765.37,358.86,765.37Z"/><path class="cls-6" d="M657.14,765.37c-1.28,0-32,15.18-83.23,3.79,0,0,1.28,63.25,3.84,70.84s71.71,22.77,79.39-2.53S657.14,765.37,657.14,765.37Z"/><path class="cls-1" d="M325.69,298.39s-34.53,14.44-35.16,37.68,12.56,49,35.16,52.74,27,0,27,0,22.6,66.56,90.42,87.91,134.37,5,134.37,5,58.4-20.72,96.7-63.42c0,0,17-19.46,23.86-37,0,0,42.7-.63,60.28-22.61s14.45-43.33,9.42-51.49S750.17,284,736.36,282.69s-27.63-111.77-27.63-111.77L597.59,135.76l-82.26,17.58H362.74L337,251.92Z"/><path class="cls-7" d="M338.42,280.18s26.92-63.42,43.33-68.44,41.36-6.91,55.15-1.26,36.76,13.82,49.89,17,56.46-3.77,59.74-4.4,95.85-22.61,105-22,27.57,2.51,36.1,11.3,23,38.94,26.26,57.15,29.54-50.24,29.54-50.24,12.48-70.33-17.06-77.86-164.12-25.75-164.12-25.75L362.71,150.2l-28.22,81Z"/><path class="cls-8" d="M364.63,132s1.88-39.56,6.9-36.42,3.14,13.82,20.72,15.7,23.24-8.79,31.4-11.3,8.16,0,24.49,3.14,31.4-10.68,38.93-12.56,11.93-1.26,32.65,1.88,17,1.26,35.17,3.14,55.88,10.68,67.81,7.54,14.44-19.47,14.44-19.47-5.65,13.81,10.05,23.86,18.84-10,27.63-3.77,8.16,8.17,14.44,13.82,7.54,14.44,23.86,11.93,17-8.79,25.75-3.77,13.18,23.86,14.44,27,0,20.72,0,20.72S737.61,154,705,143.29s-40.19-14.44-67.82-19.46-59.65-12.56-79.74-10.68-46.47,8.79-60.28,10-35.17-2.51-50.86-3.77-35.17,0-44,3.77S364.63,132,364.63,132Z"/><path class="cls-9" d="M401.05,267.62s13.18-11.3,19.46-10,12.56,5,14.44,6.9l3.77,3.77s-3.14-13.19-12.56-15.07-18.21,1.88-20.09,5S401.05,267.62,401.05,267.62Z"/><path class="cls-9" d="M585,266.37s8.79-8.79,15.07-8.17,7.53-.62,11.3,3.14,6.28,6.91,6.28,6.91-3.77-15.07-10.68-16.33-13.81.63-15.07,2.52S585,266.37,585,266.37Z"/><path class="cls-10" d="M429.3,399.8l191.52-1.31s5.65,28.62-20.1,41.29-67.81,20.54-101.09,16.61-59-16.61-64.05-29.28S429.3,399.8,429.3,399.8Z"/><path class="cls-11" d="M450.65,432.71s23.23,15.7,45.21,20.72,55.26-1.88,59-3.14,26.37-8.79,30.76-11.93,12.56-6.91,14.45-10C600.1,428.32,485.19,412,450.65,432.71Z"/><path class="cls-1" d="M521,343.6s-6.28-3.77-9.42-1.26-4.4,8.8,1.26,10.68,7.53,1.88,7.53,1.88"/><path class="cls-7" d="M715.32,360.87a81.18,81.18,0,0,0,9.42-10.05c5-6.28,9.42-6.28,13.81-11.93s-.62-2.51-3.76-8.79,0-18.84,3.14-21.35,1.88-7.53,9.42-3.14,11.3,10.68,11.93,12.56-4.4-1.26-6.91-3.14-8.16-3.14-9.42,1.88-2.51,9.42,0,13.82-.63,11.93-3.14,15.7-10.67,7.53-12.56,9.42S715.32,360.87,715.32,360.87Z"/><path class="cls-7" d="M341.08,371.54s-3.14-9.42-6.91-11.93-10.05,5.65-8.79-5,3.77-7.54,0-15.7-5.65-13.81-8.79-12.56-10,6.91-10.67,13.19a80.47,80.47,0,0,0,0,13.19s3.76-14.45,7.53-15.07,7.54-1.26,6.91,6.27-.63,15.07,1.88,17.59,8.79,5,11.3,6.9S341.08,371.54,341.08,371.54Z"/><path class="cls-12" d="M717.83,294.31s-23.23-69.7-23.23-96.7c0,0-266.87,15.7-310.19-6.28,0,0-25.12,64.68-33.91,68.44s-9.11,19.15-12.87,24.81-12.25,13.5-12.25,13.5-16.33,12.55-16.33,8.79-15.69-88.54-13.18-104.24,9.42-43.32,14.44-46.46c0,0-21.35-44.59-8.79-77.24S329.15,40,329.15,40s29.51,50.86,44.58,50.86,122.45-45.21,162-39.56S672.62,70.14,694,82.7s26.37,25.74,26.37,25.74,44.59,17.59,51.49,37.68-15.69,70.33-18.21,82.26-7.87,56.72-10.53,56-19,16.86-17.72,22.51S717.83,294.31,717.83,294.31Z"/><path class="cls-13" d="M319.42,70.45s-10.05,47.73,11.93,57.77,74.09,8.79,95.44-10.67S472,82.38,511.56,88.66s92.93,7.54,130.61,22.61S742,134.5,745.78,154.6s.31,58.19.31,58.19S774,162.13,766.5,151.46s-49-27.63-58.4-33.28-8.16-27-23.23-31.4-91-22.6-119.31-24.49-54.63-7.53-74.09,0-57.14,24.49-71.59,30.14-39.56,15.07-55.25,9.42-32-19.47-35.8-22S319.42,70.45,319.42,70.45Z"/><circle class="cls-14" cx="421.11" cy="309.46" r="17.89"/><circle class="cls-15" cx="412.17" cy="302.94" r="4.21"/><circle class="cls-14" cx="600.21" cy="311.59" r="17.89"/><circle class="cls-15" cx="591.26" cy="305.07" r="4.21"/><path class="cls-16" d="M706.73,526.29c-8.86-3.8-68.31-20.24-78.43-24s-11.38-8.85-15.18-2.53-12.65,25.3-5.06,26.57,65.78,3.79,75.9,10.12,10.12,21.5,13.91,16.44S706.73,526.29,706.73,526.29Z"/><path class="cls-16" d="M409.46,492.13c-3.79,0-40.48,19-51.86,24S329.77,517.43,331,525s3.8,21.51,8.86,26.57,44.27-22.77,55.66-26.57,27.83,3.8,25.3-8.85S409.46,492.13,409.46,492.13Z"/><path class="cls-16" d="M685.22,818.5s-2.53,86-3.79,93.6-5.06,12.65-16.44,12.65-68.31,6.33-79.7,5.06-22.77-1.26-30.36-6.32-22.77-22.77-22.77-22.77,45.54,15.18,64.52,12.65,45.54,8.85,58.19-7.59,13.91-26.56,16.44-46.8S685.22,818.5,685.22,818.5Z"/><path class="cls-16" d="M494.21,896.92c-1.26,2.53-13.91,27.83-24,29.1s-40.48,6.32-60.72,3.79-73.37,0-73.37,0,46.81-10.12,73.37-13.91,48.07-2.53,60.72-10.12A66,66,0,0,1,494.21,896.92Z"/><path class="cls-17" d="M431.08,481.86l-12.79-2.95s-17,74.35-3.85,143.87,40.77,92.86,39.88,159.5-2,70.19-18.93,88.45l5.74,15.52s32.9-29.47,26.28-94-2.9-66.47-30-135.39S431.08,481.86,431.08,481.86Z"/><path class="cls-17" d="M596.68,488.34s5.06,44.27,0,86-35.42,83.48-35.42,113.84a317.16,317.16,0,0,0,5.06,55.66l7.59-6.32s-6.33-36.69,0-56.93,31.62-75.89,34.15-88.54,3.8-83.49,0-103.73Z"/></svg>