<svg id="Layer_1" data-name="Layer 1" xmlns="http://www.w3.org/2000/svg" viewBox="0 0 1000 1000"><defs><style>.cls-1,.cls-13{fill:#fed1a5;}.cls-1{stroke:#d6a47c;}.cls-1,.cls-16,.cls-18,.cls-2,.cls-5,.cls-6,.cls-7,.cls-9{stroke-miterlimit:10;}.cls-1,.cls-16,.cls-2,.cls-5,.cls-6,.cls-7,.cls-9{stroke-width:3px;}.cls-2{fill:#3e517b;stroke:#2c4268;}.cls-3{fill:#384b6d;}.cls-4{fill:#628fb7;}.cls-5{fill:#f9a01e;stroke:#db8412;}.cls-6{fill:#f7f121;stroke:#dbd21f;}.cls-7{fill:#dee0df;stroke:#a0a0a0;}.cls-8{fill:#eabf98;}.cls-9{fill:#50413c;stroke:#3f332f;}.cls-10{fill:#5b4c48;}.cls-11{fill:#e7aebd;}.cls-12{fill:#e29fb4;}.cls-14{fill:#231f20;}.cls-15{fill:#fff;}.cls-16{fill:#212121;stroke:#040404;}.cls-17{fill:#363636;}.cls-18{fill:#fcbf26;stroke:#d39816;stroke-width:2px;}</style></defs><title>traffic cop</title><path class="cls-1" d="M271.6,755.94s-.17,46-.92,57.12c-.79,11.54,5.71,87.16,5.69,90.75,0,7.11-2.56,7.45-2.88,16.09s0,20.57,13.22,29.26,40.11,9.55,48.91,1.63,1.18-20.35,1.18-20.35,4.08,4.69,6.88,2.82-.43-18.27-14-24.66V895l-4.58-76.67,10.1-123.19L271,691Z"/><path class="cls-1" d="M737.8,755s1.31,46,2.35,57.08c1.07,11.53-3.59,87.31-3.48,90.91.22,7.11,2.77,7.38,3.3,16s.5,20.56-12.58,29.61-40.15,10.67-49.2,3-1.7-20.32-1.7-20.32-4,4.8-6.86,3,0-18.28,13.52-25.05l-.34-13.59,2.7-76.8L672.28,696l64.53-6Z"/><path class="cls-2" d="M473.34,497.08c-1.84,1.84-19.34,0-19.34,0s-78.3,40.53-102.26,47-82.91,34.09-89.35,103.18l-6.45,69.09s42.37,17.5,98.57,4.61L349.9,955.85s111.47,8.29,157.53,5.52,155.68-10.13,155.68-10.13l2.77-222.93s56.19,13.81,92.12-7.37c0,0-5.7-58.22-17.56-104.58a79.73,79.73,0,0,0-33.69-47c-15.55-10.16-36-22.87-51-29.87-27.19-12.69-93-45.14-93-45.14Z"/><path class="cls-3" d="M559,546.83c0,.92,4.6,12.89,4.6,12.89s-18.42-10.13-25.79-15.66-11.06-10.13-19.35-12.89-22.11-6.45-26.71-3.69-15.66,10.13-19.35,15.66-9.21,14.74-14.74,16.58-8.29,0-8.29,0V528.4s-3.68-4.6-7.37-1.84S396,542.22,388.59,545.91s-35.93,16.58-49.74,24S302,589.2,301.08,590.12s-3.69-12,7.37-18.42S372,543.14,384,538.54s36.84-14.74,43.29-18.43,24.88-11.05,30.4-11.05,33.17,2.76,33.17,2.76H524L548.88,522Z"/><path class="cls-3" d="M702.75,573.49s-21.2-12.88-32.26-18.4-31.33-13.8-42.38-19.32-18.44-10.12-28.57-14.72-15.67-5.51-24-9.19a141.37,141.37,0,0,0-19.35-6.44s-.9,24.88,0,25.8,33.16,5.5,41.46,8.26,27.64,10.11,43.31,15.63,24,9.2,40.54,15.63S707.36,576.25,702.75,573.49Z"/><polygon class="cls-2" points="498.88 515.16 493.92 961.86 514.83 960.92 514.8 511.82 497.3 511.82 498.88 515.16"/><path class="cls-1" d="M539.67,476.81l-7.37,25.8-20.12,8.95-15.87.24L471.5,494.32l-7.37-13.82S533.22,465.76,539.67,476.81Z"/><path class="cls-3" d="M744.18,666.58s8.29,51.59,6.45,51.59S723,729.23,709.18,728.31s-35-2.77-37.77-3.69-8.3-1.84-9.22,3.69,0,46.06,0,46.06v31.32s-8.29-24.87-9.21-25.8-8.29-7.37-18.42-5.52-33.17,8.29-25.8,5.52,33.17-10.13,38.69-15.66,6.45-16.58,7.37-27.63,2.77-47.91,2.77-60.8,3.68-44.22,3.68-50.67,1.84-16.58,4.61-6.45,3.68,44.22,8.29,64.49-12.9,30.4,9.21,29.48,38.69,6.44,45.14-10.14S744.18,666.58,744.18,666.58Z"/><line class="cls-2" x1="665.88" y1="728.31" x2="664.96" y2="673.49"/><path class="cls-4" d="M657.59,861.88s-1.85,70.94-2.77,77.38-12,10.14-22.11,10.14-42.37,1.84-54.35,1.84-44.22,4.61-48.82,4.61H519.4s57.12-27.64,82-35.93,22.11-4.61,34.09-23.95S657.59,861.88,657.59,861.88Z"/><path class="cls-4" d="M354.51,876.62V936.5c0,8.29-1.85,14.74,6.45,15.66s47.9,3.69,54.35,3.69-5.53-9.22-21.19-16.59-23-9.21-27.64-27.63A242.15,242.15,0,0,0,354.51,876.62Z"/><path class="cls-3" d="M678.31,564.79c-2.76-.92-18.42-7.37-18.42-7.37s-5.53,58-6.45,64.49-7.37,41.45-7.37,44.21,2.77,19.35,2.77,20.27-.93,23,.92,24.87,10.13-5.52,10.13-6.44,5.53-75.54,6.45-82,17.5-48.83,23-51.59-19.35-12-21.19-13.82-8.29-4.61-8.29-4.61v2.77Z"/><path class="cls-3" d="M364.18,554.66S318.12,574,308.91,579.53s-12,8.29-7.37,11.05,25.79.93,32.24,7.37,12,12,13.82,24S355,646.78,355,653.23s2.76,23,2.76,30.4V703c0,5.53,2.77,13.82,1.84,20.27a132.61,132.61,0,0,0-.92,16.58c0,1.84,16.58-6.45,23-24.87s-.92-102.26-.92-109.63S364.18,554.66,364.18,554.66Z"/><path class="cls-5" d="M442,501.69s31.64,106.63,49.18,116.5h40.56s37.61-93.18,42-123.87l92.12,45.14s-13.72,119.84-9.21,164.89c.92,9.22,13.15,32.79,13.81,51.59,2.64,74.54-4.6,199.91-4.6,199.91s-201.75,37.77-324.27-3.69c0,0,5-111.69,8.29-187.93.87-20,13.81-41.81,12.9-54.35-4.39-60.3-12.9-169.5-12.9-169.5Z"/><path class="cls-6" d="M384,526.56s42.37,222,45.14,256.1l-80.15.92-2.76,56.19s291.2,10.5,324.26.92l.93-52.5L581,783.58S630,551.46,628.11,521l-41.46-20.26S549.7,780.82,546,785.42s-63.46-1.84-63.46-1.84L420.83,509.06Z"/><path class="cls-6" d="M345.3,871.09s271.4,19.57,324.26-1.84l-.92,38.69S542.44,920.84,506.51,919s-162.14-16.58-162.14-16.58Z"/><path class="cls-2" d="M475.19,486s17.5,24,28.55,24.87S536.91,486,536.91,486s28.56-2.77,33.16,3.68,1.84,48.83-5.53,78.3c0,0-25.79-50.66-59.87-55.27,0,0-36.85,12-55.28,55.27,0,0-12-56.19-5.52-73.69S475.19,486,475.19,486Z"/><line class="cls-2" x1="354.51" y1="720.94" x2="354.51" y2="678.56"/><rect class="cls-7" x="389.05" y="672.57" width="85.41" height="21.19"/><path class="cls-1" d="M328,329.75s-25.21,13.18-26.28,30.14,5.75,34.29,18.09,41.18,40.66,8.85,40.66,8.85,31.16,49.05,73.73,66,64.89,16.54,86.21,13.52,51.52-9.75,82.53-38.45S648,393,648,393s34.57-.76,45-25.45-6.21-43.73-6.21-43.73-12.63-15.23-27.87-19.39-86.28-80.66-86.28-80.66L412,210.44l-44.63,7.49-40.14,61Z"/><path class="cls-8" d="M338.21,324.11s17.38-39.85,28.26-48.39,39.08-23.9,39.08-23.9,23.17,41.44,27.62,44.62,12.08,8.6,17.16,8.87,31.39-3,31.39-3L432,262.5s50.47,24,58.09,26.08,34.4,11.58,46.2,11.84a136.66,136.66,0,0,0,22.68-1.57l-28.24-21.56-5.64-17,36.64-8.39-161.25-30.6-31.66,8.11-30.35,49.29Z"/><path class="cls-9" d="M350.82,381s-12.61-50.19-4.47-81.77,23.55-36.4,23.55-36.4,23.58,12.27,30.78,16.66c9.35,5.71,42.75,18,48.1,19.91s42.1,4.14,42.1,4.14a577.46,577.46,0,0,1,60.61,1s15.79.71,23-3.29c0,0-28.87-25.38-33-33.09,0,0,24.79,21,45.21,29.36s53,15.73,53,15.73,8.48,47.26,6.5,55.43c0,0,18.66-25.51,22.09-41.75,1.05-5,9.41-19.74,9.57-28,.17-7.91,18.66-60,9.22-59-20.32,2.29-10.1,1.85-14.44-10.63-10.82-31.2-45.42-57.3-65.48-73.52s-62.27-24.26-95.93-28.13-66.78,2.25-92,22.14S390,185.61,390,185.61s-42.82,8.29-60.57,42.61-21.09,51.1-19.26,62,9,37.1,9,37.1,8.73,22,21.17,39.54S350.82,381,350.82,381Z"/><path class="cls-10" d="M393.6,190.59s10.87-25.32,23.11-32.41,41.44-23.18,58.68-23.83,29.84-2.2,39.28.69,34.94,8.13,34.94,8.13-27.76,1.3-39.46,1.58-39.74,3.31-46,6-29.47,11.1-9.79,8.36a193.41,193.41,0,0,1,36.11-1.58s-33.84,1.76-44.36,9.12-25,17.63-29.74,22.89-15.77,16.08-15.77,16.08l-33.74,5.66c-7.08,1.18-35.46,22.17-39,27.8s7.6-21.42,17.76-27.6S365.75,194.7,376,192.42A70.44,70.44,0,0,1,393.6,190.59Z"/><path class="cls-9" d="M389.9,302s9.34-7.72,14.51-6.91,8.44,3.62,11,5.44a28.15,28.15,0,0,1,3.91,3.26s-3.19-9-7.45-11.06-8.35-3.08-11.53-2S389.9,302,389.9,302Z"/><path class="cls-8" d="M344.85,395.46s-7.09-12.24-9.63-14-5.08-.27-5.08-3.63,2.81-3.26,1.35-8.62-2.91-10.7-4.82-12.06-4.72-1.45-7.35-.45-6.62,7.27-6.52,7.81-3.18,4.45-1.18,6.36,5.44-4.27,7.44-5.73,6.07-3.81,6.26.63-5,10.35-.35,14.61,8.26,5.89,10.8,7.7S344.85,395.46,344.85,395.46Z"/><path class="cls-8" d="M657.49,381.1s1.08-13.61,9.06-16.07,12.7-1,10.16-6.18-4.91-5.89-4.1-11.07,1.53-10.89,5.34-11.52,5.9-1.55,8.72,1.89a16,16,0,0,1,3.36,6.71s-5.36-5.25-8-.9-2.62,4.36-1.71,9.8,2.64,9.07-2,11.53-7.8,3.54-11.34,5.82S657.49,381.1,657.49,381.1Z"/><path class="cls-11" d="M424.27,420.2s87,4.84,158-9.08c0,0-1.26,32.58-26.26,43.65s-75.48,17.1-90.47,11.12c0,0-24.16-7.28-32.06-17.69S424.27,420.2,424.27,420.2Z"/><path class="cls-1" d="M497.12,370.77s-7-5-12-1.35-1,10.8,3.1,11.79a34.14,34.14,0,0,0,8,.9"/><path class="cls-12" d="M463.45,460.36s9.35,5.7,28.95,5.77,39.37-5.48,39.37-5.48l19-7.09s-25-8.69-44.83-7S463.45,460.36,463.45,460.36Z"/><path class="cls-13" d="M405.88,415.92s-19.86,2.8-24.83,2.25-11-4.94-12.71-9.36-1.12-11.58,12.67-14.92,24.28-1.14,27.05,1.06,6.08,8.82,4.43,12.13S409.2,415.37,405.88,415.92Z"/><path class="cls-13" d="M592.68,390s14.14-9.08,22.4-9.91,20.23.53,21.14,2.61S642.58,394,630.79,397s-21.5,5.29-28.3,4.75S589.14,395.63,592.68,390Z"/><circle class="cls-14" cx="416.03" cy="349.8" r="15.72"/><circle class="cls-15" cx="408.32" cy="343.87" r="3.7"/><circle class="cls-14" cx="565.6" cy="352.81" r="15.72"/><circle class="cls-15" cx="557.89" cy="346.88" r="3.7"/><path class="cls-2" d="M300.92,264.84s-36.69-37.48-41.6-48.53-18.09-62.18,17.52-100.24S391,25.56,488,25.56,648.86,61.93,699.2,102.44s58.34,109.7,11.68,139.17-31.81,18.32-44.08,23.23S300.92,264.84,300.92,264.84Z"/><path class="cls-16" d="M689.72,250.72s6.14,29.47-13.51,41.74S515.38,317,449.08,312.11s-148.57-1.23-147.34-57.71S530.11,209,530.11,209,675,220,689.72,250.72Z"/><path class="cls-17" d="M660.87,263.61c-11.33-4.25-73.67-30.69-142.43-29.47S333.05,255,331.82,263.61s20.87,31.92,73.67,31.92,213.63,3.69,234.5-6.14S670.69,267.29,660.87,263.61Z"/><path class="cls-2" d="M302,260.66S411,218.8,492.05,220s125.23,9.83,168.2,28.24l30.38,12.4s8.91-46.78.32-56.6-111.73-54-194-55.25-142.42,28.24-195.22,58.94c0,0-3.21,32.15.24,52.91"/><path class="cls-18" d="M433.68,64.69s.15,49.06,7.06,60.87,54.12,14.65,54.12,14.65,36.32-7.29,46.1-14.07,9.5-57.68,8.75-69.06l-1.2-18.33s-8.85,12.82-25.73,12.94C505.41,51.81,493,34.22,493,34.22S486.89,50,465.45,50.34s-28.78-2.26-30.32-10.28S433.68,64.69,433.68,64.69Z"/></svg>