<svg id="Layer_1" data-name="Layer 1" xmlns="http://www.w3.org/2000/svg" viewBox="0 0 1000 1000"><defs><style>.cls-1{fill:#fed1a5;stroke:#d6a47c;}.cls-1,.cls-2,.cls-3,.cls-5,.cls-7,.cls-8{stroke-miterlimit:10;stroke-width:3px;}.cls-2{fill:#fdfdfd;}.cls-2,.cls-5{stroke:#c6c6c6;}.cls-3{fill:#6bcbf4;stroke:#46b8e0;}.cls-4{fill:#ddd;}.cls-5{fill:none;}.cls-6{fill:#eabf98;}.cls-7{fill:#9fd6ba;stroke:#7cc49c;}.cls-8{fill:#50413c;stroke:#3f332f;}.cls-9{fill:#5b4c48;}.cls-10{fill:#231f20;}.cls-11{fill:#fff;}.cls-12{fill:#7bbb9a;}</style></defs><title>dentist</title><path class="cls-1" d="M747.71,853.67s-.08,4.07,1.7,12.32,4.12,8.4,6.52,18.41,5,23.87-4.68,35.19-33.58,14.85-43.4,6.49-6-23.51-6-23.51-2.51,5.82-5.47,3.9-4.09-21.24,6.54-29.93l-11.82-56,53.86,25.23Z"/><path class="cls-1" d="M294.74,815.79s-14.87,31.85-17.19,40-4.7,8.1-7.76,17.92-6.6,23.49,2.52,35.55,33.09,17.38,43.57,9.75,7.6-23.05,7.6-23.05,2.17,6,5.29,4.32,5.49-20.93-4.74-30.43l14.45-39.13-40.41-22.58Z"/><path class="cls-2" d="M358.19,494s-70.43,166.19-84.74,245.42-17.93,112.71-17.93,112.71l85.84,26.41s59.75-158.92,56.45-197.44S358.19,494,358.19,494Z"/><path class="cls-2" d="M257.65,834.59c-.2-1.11,90.48,24.48,90.48,24.48"/><path class="cls-2" d="M662.11,486.79S709.26,591.91,717,620.53,754.82,811.33,760.32,830s6.18,29,6.18,29l-87.29,24.49L649.84,733.88V516Z"/><line class="cls-2" x1="763.31" y1="846.3" x2="676.01" y2="865.46"/><path class="cls-3" d="M547.2,453.48c1.07,0,18.1-7.45,18.1-7.45L577,484.35l35.13,110.72-16,52.16,16,158.61s-34.81,16.54-91.55,17c-36.94.32-104.74-14.1-104.32-17,.15-1.05,33-292.74,33-292.74V488.61l11.56-44.45Z"/><path class="cls-1" d="M462,453.48s33,10.65,44.71,11.71,54.29,3.19,61.74-2.13-18.09-25.55-22.35-25.55-66-1.06-70.26,1.07l-17,8.51Z"/><path class="cls-3" d="M560,443.9s-14.91,16-33,17-28.75,3.2-41.52-3.19L462,446,457,459.59s21,13.05,32.75,15.18,34.06,3.2,46.84,0,29.81-11.71,29.81-11.71l-4.26-19.16Z"/><path class="cls-4" d="M352.69,518.18s-24.21,63.83-23.11,66,20.91,11,20.91,18.71-4.4,60.53-4.4,63.83,4,67.29,2.87,73.89-6.61,50.63-6.61,55-5.54,35.76-9.94,36.86-23.11-7.7-17.61,1.1,26.31,12.14,29.61,12.14,46.8-136.1,46.8-136.1L368.29,536.3S364.8,492.86,352.69,518.18Z"/><path class="cls-2" d="M456.72,450.29S392.31,473.05,378,481.86,358.19,494,358.19,494s0,131-3.3,190.4-2.5,68.26-3.56,89.55c-.92,18.42-6.61,154.25,0,157.55s88.23,15.93,124.55,17,13.47-20.19,16-58.55c3.19-49-3.2-101.13-3.2-101.13l-7.45-93.68a452.2,452.2,0,0,0-3.05-75.7c-4.66-35.55-20.37-136.14-20.37-136.14Z"/><path class="cls-2" d="M457.78,445s-14.16,7.91-27.58,26.21-13.05,30.26-10.74,32.34,40.39,10.38,37.26,13.84S423.53,539.52,422.65,544s21.63,49.22,34.07,74.52c11.76,23.91,23.33,59.63,24.48,60.67s4.26-33.69-1.06-52.16-5.83-66.56-11-104.87-4.82-75-4.93-77.17S457.78,445,457.78,445Z"/><path class="cls-4" d="M744.68,845.77,681.87,859.6l-28.78-91.87s-17-118.91-14.87-131.68,18.1-125.62,18.1-125.62,17,35.13,17,37.26,1.07,89.42,2.13,103.26,7.45,122.43,9.58,135.2-4.29,34.67,18.1,42.58S744.68,845.77,744.68,845.77Z"/><path class="cls-2" d="M568.4,485.16V448.84s55,5.51,95.74,39.62c0,0,4.4,116.66,5.51,156.28s-1.12,129.26,0,159,6.56,130.93,1.06,130.93-22.35,12.78-80.9,13.84c-53.38,1-35-4.38-39.39-33s-13.84-212.65-13.84-220.36-.08-59.2,1-66.9S568.4,485.16,568.4,485.16Z"/><path class="cls-2" d="M546.34,555.48s-13,90.68-9.78,130.07c.06.73,20.51-44.08,24.48-54.29,7.45-19.16,26.67-57,30.87-77.71,3.61-17.79-31.07-41.58-28.74-43.65s33.8-9.61,36.2-12.77-2.21-24.85-21.29-41.52c-20.48-17.88-19.51-12.95-19.51-12.95s-1.58,45.1-3.86,64.81S546.34,555.48,546.34,555.48Z"/><path class="cls-4" d="M558.38,926.67s1.07,12.78,28.74,13.84,78.78-13.84,78.78-13.84S661.64,727.6,661.64,717s-3.19-95.81-3.19-95.81-2.13,264-31.94,287.42S558.38,926.67,558.38,926.67Z"/><path class="cls-2" d="M374.85,784s-4.4,42.92-6.6,56.13-1.1,37.42,15.41,41.82,52.82,6.6,60.53-7.7,15.41-81.44,12.1-81.44S384.76,785.06,374.85,784Z"/><path class="cls-4" d="M434.28,795s3.3,44-3.3,56.12-5.5,18.71-18.71,22-30.81,4.4-31.91,4.4,38.52,8.8,51.72,1.1,17.61-40.72,20.91-66V796.07Z"/><path class="cls-5" d="M371.55,802.67s52.61,13.69,84.64,10.69"/><path class="cls-2" d="M560.85,797s-2.12,42.88,4.41,58.83S593,897.6,621,892s33.56-20.66,31.75-40.66-1.19-57.48-.86-61.87S616.66,803.36,560.85,797Z"/><path class="cls-4" d="M609.22,799.49s4.44,29,3.53,41.1-9.15,47.27-9.15,47.27,37.6.12,45.58-18.05c0,0,.89-26.42-.23-40.85s-.66-35.36-.66-35.36Z"/><path class="cls-5" d="M560.53,814s61.25,18.41,91-8"/><path class="cls-4" d="M355.05,923.48c3.2,1.06,97.94,13.84,112.85,13.84s20.22-7.46,20.22-7.46,1.07-8.51-26.61-6.38S355.05,923.48,355.05,923.48Z"/><path class="cls-1" d="M346.7,333.58s37.76,97.84,111.57,111.58,125.88-8,143-18.88,48.64-52.07,62.94-88.12c0,0,38.91-7.44,38.91-34.33s-21.74-39.48-21.74-39.48L655.67,174l-103.56-24.6L418.79,172.23,341,211.14,315.8,255.2s-36,24.6-13.16,59.5C302.64,314.7,315.23,332.44,346.7,333.58Z"/><path class="cls-6" d="M669.12,262.92c0-1.71-13.74-26.89-20-30.89L636.5,262.35s.57-24-1.71-28.61-20-26.32-20-26.32L589,191.4l20-16,21.17,1.15,20,12.58,14.88,35.48,6.29,33.75Z"/><path class="cls-7" d="M620.66,322.54l57.48-43.64s2.13,1.06,0,3.19-57.48,42.58-57.48,42.58Z"/><path class="cls-7" d="M379,322.54c-2.13-1.06-44.71-45.77-44.71-45.77l1.06,6.38L379,327.86Z"/><path class="cls-8" d="M663.68,319.28c-.19.54,21.17-32,25.75-68.66s-1.72-68.09-19.46-90.4S633.36,115,606.46,107c0,0-46.34-53.21-89.83-54.36s-92.69-4.58-144.18,30.9S311.23,206,311.23,206s-2.29,3.43-36.05-6.29c-5-1.45,20,30.32,37.76,41.77,1.91,1.23,1.5,4.79,1.67,5.72,4,22.49,12.6,49.77,30.95,69.8,0,0-2.29-61.79.57-65.8,0,0,133.31,9.16,188.24-16s77.82-50.35,77.82-50.35,26.32,54.93,24,73.81c0,0,10.3-42.34,10.3-56.64,0,0,18.3,33.75,20,50.92S670,301.54,663.68,319.28Z"/><path class="cls-9" d="M604.75,111S563,64.67,536.09,60.66s-75.53-4-82.39-2.86-28.61,7.44-28.61,7.44,101.84,3.43,115,9.73,17.74,8,25.75,14.87S587,107.58,589.3,111l9.15,13.73s57.79,22.32,62.37,29.76c0,0-23.46-29.76-36.05-35.48A187.23,187.23,0,0,0,604.75,111Z"/><path class="cls-9" d="M589,194.26s-29.75,22.32-47.49,30.33-49.78,12.58-77.24,7.44a258.45,258.45,0,0,1-49.78-14.88s-12,6.86-16,11.44-6.86,10.3-17.74,14.31-36.61,1.71-36.61,1.71,40.32-27,47.05-33.78,21.61-21.14,32.48-13.71,47.49,24,63.51,20,44.05-10.3,62.94-14.88S589,194.26,589,194.26Z"/><path class="cls-8" d="M410.21,243.18s9.73-6.29,16.59-4,13.74,8,13.74,8S433.67,233.46,426.8,234s-9.72,1.14-12.58,3.43A13.83,13.83,0,0,0,410.21,243.18Z"/><path class="cls-8" d="M555.54,242s8.58-6.87,13.73-5.72,9.16,4,11.45,5.15a21.06,21.06,0,0,1,4.57,3.43s-4-10.3-10.87-12-13.16.58-14.87,2.29S555.54,242,555.54,242Z"/><path class="cls-6" d="M671.4,324.14a98.47,98.47,0,0,1,6.3-9.72c3.43-4.58,10.3-1.72,8-8.59s-2.29-11.44.57-14.3,10.87-2.86,11.44,1.72,1.15,16,0,12.58-4.57-14.3-6.86-9.72.57,6.86-1.15,12S673.69,322.43,671.4,324.14Z"/><path class="cls-6" d="M333.83,318.42s-5.15-13.16-8.59-14.87-3.43-1.72-3.43-9.16.57-16-4-17.74-13.16,3.44-14.31,8.59,0,12,0,12,2.86-12.59,7.44-13.16,5.15,2.86,5.15,9.16-1.14,10.87,2.29,14.3S333.83,318.42,333.83,318.42Z"/><circle class="cls-10" cx="422.18" cy="278.48" r="16.3"/><circle class="cls-11" cx="414.2" cy="272.31" r="3.84"/><circle class="cls-10" cx="569.4" cy="278.64" r="16.3"/><circle class="cls-11" cx="561.41" cy="272.47" r="3.84"/><path class="cls-8" d="M346.13,251.19s-27.41-2.91-37.45-12.9"/><path class="cls-7" d="M376.88,321.48s6.38,72.39,9.58,82c0,0,14.9,33,112.84,34.06,102.28,1.11,124.55-29.8,124.55-29.8s-7.45-78.78,1.07-86.23c0,0-91.56-2.13-112.85-3.2S439.69,318.28,376.88,321.48Z"/><path class="cls-12" d="M407.22,339c5.32,0,68.13-5.32,89.42-5.32S585,339,585,339s-72.39,4.26-88.36,5.33S407.22,339,407.22,339Z"/><path class="cls-12" d="M391.25,360.33c5.32,0,84.1-3.19,105.39-3.19s116,4.26,116,4.26-99,7.45-115,8.51S391.25,360.33,391.25,360.33Z"/><path class="cls-12" d="M417.86,406.11c5.32,0,63.87,12.77,85.17,12.77s86.22-11.71,86.22-11.71S519,408.5,503,407.35,417.86,406.11,417.86,406.11Z"/><path class="cls-12" d="M393.38,381.62c5.32,0,86.23-2.13,107.52-2.13s109.64,4.26,109.64,4.26-93.68,9.58-109.64,10.65S393.38,381.62,393.38,381.62Z"/></svg>