<svg id="Layer_1" data-name="Layer 1" xmlns="http://www.w3.org/2000/svg" viewBox="0 0 1000 1000"><defs><style>.cls-1{fill:#fed1a5;stroke:#d6a47c;}.cls-1,.cls-10,.cls-2,.cls-4,.cls-6,.cls-9{stroke-miterlimit:10;stroke-width:3px;}.cls-2{fill:#fbd874;stroke:#eabb47;}.cls-3{fill:#edc96e;}.cls-4{fill:#bfce69;stroke:#a8b242;}.cls-5{fill:#dff33a;}.cls-6{fill:#feffff;stroke:#ddd;}.cls-7{fill:#e2e2e2;}.cls-8{fill:#b2bc57;}.cls-9{fill:#675058;stroke:#5b4950;}.cls-10{fill:#e7d980;stroke:#d1b43b;}.cls-11{fill:#eabf98;}.cls-12{fill:#7c6575;}.cls-13{fill:#dc97ac;}.cls-14{fill:#d2829f;}.cls-15{fill:#231f20;}.cls-16{fill:#fff;}</style></defs><title>guide</title><path class="cls-1" d="M288.74,834.22s-5.34,51.87-5.88,60.58-2.79,9.27-3.69,19.87-1.46,25.19,9.57,35.06,34.68,9.38,43-.83,2.49-25,2.49-25,3.27,5.5,5.87,3.05.93-22.35-10.62-29.38l3.46-59.08-42.62-12.8Z"/><path class="cls-1" d="M735.45,836.87s-2.51,52-3.25,60.74,1.19,9.6.5,20.21-2.23,25.09-13.48,33.07-32.33,3.69-38.34-7.71,1.29-25.07,1.29-25.07-3.7,4.91-5.67,2.07,2.3-22.2,13.62-27.3L695.33,834l39.91-5.81Z"/><path class="cls-2" d="M472,492.81s-104.8,29.62-116.2,35.32-26.2,5.69-30.75,12.53S285.22,748,282.94,776.46s-6.84,100.25-10.25,109.36,0,21.65,0,21.65l74-4.56,15.95-247.2,23.92,262,250.62,4.56,19.36-250.62,20.51,173.15v53.54s63.79,8,63.79,0-1.14-125.3-8-177.7-1.13-142.4-36.45-181.13S472,492.81,472,492.81Z"/><path class="cls-3" d="M715.82,596.48c0-6.84-14.81-47.85-18.23-49s-41,91.14-42.15,103.67,6.84,30.75,9.11,43.28,8,44.43,9.12,54.68,8,116.2,8,125.31-2.28,16,0,17.09,21.65,5.69,20.51,3.42-12.53-10.26-14.81-26.2-4.56-119.62-6.84-132.15-6.83-62.65-8-72.9S676,625,685.06,612.43,715.82,596.48,715.82,596.48Z"/><path class="cls-3" d="M359.26,536.1c-3.42-1.14-29.62,6.84-28.48,9.12S349,555.47,349,576s1.14,67.21,2.28,78.6-4.56,60.38-4.56,69.49-6.83,60.38-8,63.8,4.55,63.79,4.55,63.79L354.7,708.11S357,647.74,365,640.9,359.26,536.1,359.26,536.1Z"/><path class="cls-4" d="M435.58,492.81s13.67,72.91,30.76,111.64,59.24,38.73,69.49,28.48,77.46-129.86,80.88-135.56S707.84,535,705.56,541.8s-23.92,37.59-33,55.82S656,682.24,655.16,690.05s6,231.09,6,235.64-287.07,11.39-291.63,9.12-6.92-243.55-8-260.76-3.38-122-12.49-145.92C349,528.13,403.69,501.93,435.58,492.81Z"/><path class="cls-1" d="M484.57,457.5s-3.42,38.73-1.14,49,8,23.93,19.36,25.07,10.26,3.41,19.37-5.7,25.06-46.71,25.06-46.71V442.69c0-3.42-29.62-17.09-44.43-12.53S484.57,457.5,484.57,457.5Z"/><path class="cls-5" d="M449,539.93s57.9,158.84,60.88,156.81,4.38-1.24,4.38-1.24l-60.4-159.31Z"/><path class="cls-5" d="M570,532.68s-51.83,160.8-54.4,159-3.8-1-3.8-1l54-161.42Z"/><path class="cls-6" d="M468.62,688.87s-2.28,50.56,0,56.17,82,2.81,85.44,2.81,5.69-57.58,0-59S468.62,688.87,468.62,688.87Z"/><rect class="cls-7" x="477.73" y="695.01" width="69.49" height="44.43"/><path class="cls-2" d="M483.43,472.31s-1.14,51.26,22.78,57,34.18-46.71,42.15-52.4,59.24,12.53,64.93,18.22-33,82-39.87,88.86-26.2-47.85-62.65-49-51.26,46.71-58.1,46.71-18.22-79.74-17.09-84.3S470.9,467.75,483.43,472.31Z"/><circle class="cls-4" cx="511.35" cy="785.09" r="13.01"/><circle class="cls-4" cx="514.81" cy="873.99" r="11.91"/><path class="cls-8" d="M694.17,540.66s-44.42-21.65-52.4-27.34S619,504.21,619,504.21s-5.7,9.11-2.28,13.67,64.93,29.61,68.35,29.61S694.17,540.66,694.17,540.66Z"/><path class="cls-8" d="M429.89,501.93c-5.7,2.28-45.57,23.92-52.4,23.92s-22.79,6.83-22.79,6.83,1.14,8,12.54,5.7,49-16,54.67-20.5S429.89,501.93,429.89,501.93Z"/><path class="cls-8" d="M648.43,781.84s-1,96,.18,107.4,6.83,25.06,0,28.48S600.76,920,587.09,920s-33,1.14-35.31,0,42.15,0,57-23.92,21.64-47.85,27.34-68.35S648.43,781.84,648.43,781.84Z"/><path class="cls-8" d="M376.35,874.43c0,5.7-8,43.29,0,47.85s36.45,2.27,33,0S389,914.65,385,899.67A190.29,190.29,0,0,0,376.35,874.43Z"/><path class="cls-9" d="M489.82,46.71S462.51,39.16,448,47.87s-19.75,29.63-20.91,36,2.9,39.5,2.9,39.5l3.49-2.32,11,52.28,122.58-3.48s7.55-72,4.07-90.63-4.65-31.37-20.92-35.43-40.08-5.23-47.05-1.75S496.21,47.87,489.82,46.71Z"/><path class="cls-9" d="M351,410.37s3.48,32.53-7,55.19,20.92,10.45,38.93,5.81,39.5-9.3,39.5-9.3,163.24-6.39,167.89-7.55,30.79,16.85,43.57,20.33,34.85,4.65,38.34-.58-5.81-38.34-5.23-46.47-.58-45.32-.58-45.32l-61.58-4.64L363.18,406.3Z"/><path class="cls-1" d="M344.23,342.65s-25,5.84-27.67,27.77,12.91,43.2,31.47,44.35,23.3.41,23.3.41,33.59,59.13,92.11,69.82,104-8.41,118.32-17.58a145.46,145.46,0,0,0,36.93-33.33c11.23-14.12,25.76-44.86,25.76-44.86s31.92,1.8,43.37-14.64,11.63-31,5.44-39.75S674,316.71,666,314.8s-7.51-57.29-7.51-57.29L576,202.59,404.41,210l-39,30.8-22.73,81.31Z"/><path class="cls-10" d="M554.76,140.41s-.47-17.89-11.32-23.51-33.51-6.62-39.43-5.76-35.14,8.5-40.93,11.44.54,11.27.54,11.27l68,.1Z"/><path class="cls-11" d="M357.74,319.69c.06-.57,19.79-55.92,25.21-57.75s13.82,2.75,13.82,2.75,19-17.19,31.43-12.54,16.92,6.24,18.71,5.82,37.92,0,44.54,4.14,7.45,7.7,7.45,7.7S508.51,254.36,520,256s24.77,3.47,24.77,3.47l3.52,1.62s20.27-12.83,32.47-12.28,2.81-11.4,2.29-12,3.39,13.74,3.39,13.74,7.37-4,15.42-2.65,16.19,1.5,23,3.88,17,5.66,17,5.66l.54-5.78-27.64-16.57-70.42-1.5L456.64,235l-57,4-27.73,3.25-15.19,50.51Z"/><path class="cls-9" d="M655.61,357l13.82-41.89,17.22,12.36s5.93-41.71-6.83-80.23-39-76.56-69.7-97.5-78.72-31.82-124.86-25-75.78,24.46-96.92,44.67-42.86,53.19-51.54,77.47S318.44,300,319.67,318.2s3.45,37.21,3.45,37.21l14.27-8.14s13.85,39.21,24.41,44.86c0,0-4-51.13,3.76-90.67s30.11-35.12,30.11-35.12,34-1.51,45.92-4.49A146.94,146.94,0,0,0,465.75,253s33,15.32,33.42,17.1,6.6-14.55,6.6-14.55,27.74,15.41,40.17,7.23S555,246.73,566,247.75,630.82,266,638.37,279s14.63,18.28,16,21.91S655.61,357,655.61,357Z"/><path class="cls-12" d="M405,197.19c-.63.53-15.9,32.95-10.43,37s17.63-7.7,22.58-10.74,11.68-.08,15.14,6.66,23.47,17.35,26.74,13.57,16.39-19.48,18.08-18.74,20,23.45,20,23.45l5.78-24.55s16,9.65,31.06,11,22.59-10.73,23.32-12.42,10.94,1.6,16.62,3.3,10.69-8.34,10.69-8.34,25.76,8.19,30.59,11.28,11-6.25,13.26-6,23.08,9.15,23.08,9.15-17.17-16.18-23.61-28.45-16.75-39.48-23.51-29.61-24.81,22.2-34.16,16.08-10.87-8.6-13.09-3.55-33,3.35-41.39-.35S494.17,192.06,489,198s-15.31,1.49-16.41.8-10.21,3.14-15.58,4.39-27.28-7.79-30.75-8.11-18.65-6.4-18.65-6.4Z"/><path class="cls-9" d="M399.46,313.36s9.33-6.13,12.8-5.81,10.25,2.7,13,4.71c0,0-.62-5.89-8.61-7.8s-9.84-.92-12.36,1.18S399.46,313.36,399.46,313.36Z"/><path class="cls-9" d="M548.32,306.2s8.64-5,12.16-5.29a14,14,0,0,1,8.57,2c2.21,1.37,6.09,3.48,6.09,3.48s-3.4-7.32-7.34-8.85-8.57-2-12.26,0S548.32,306.2,548.32,306.2Z"/><path class="cls-13" d="M430.6,417.77s122.07-1.48,155-10.67c0,0,1.82,36.92-12.72,49s-38,25.64-64.16,25-47.49-3.83-59-17.74S430.66,435.87,430.6,417.77Z"/><path class="cls-14" d="M474.24,475.51s25.23,4.68,37,3.44,24.2-3,38.2-9.29c0,0-19.59-15.23-36.05-13.85s-26.31,6.89-29.47,9.51S474.24,475.51,474.24,475.51Z"/><path class="cls-11" d="M356,401.79s-6-11.06-8.76-12.48-8.73-.23-7.78-4.23,3.32-4.35,2.6-9.09-3.66-10.84-5.34-11.58-9.78-1.49-11.68.08-4,11.3-4,11.3,4.64-6,7-6.35,4.68-.15,6,4.64,1.87,11.26,3.91,14.37,4.36,3.32,7.62,6S356,401.79,356,401.79Z"/><path class="cls-11" d="M652.78,378.05s3.34-10.78,8.71-12,11.15-.71,11.58-5.34S668.35,355,670,349.89s2.23-11.46,6.91-11.61,9.15,2,10.51,6.23a38.37,38.37,0,0,1,1.45,9.47s-1.09-7.1-5.25-6.32-6.52,1.14-6.43,6.4,1.3,11.21-3.08,14.3-5.42,1.83-10.94,4.82A104.52,104.52,0,0,1,652.78,378.05Z"/><path class="cls-1" d="M500.21,375s-9.56-3.81-11-1-3,7.3,1.46,9.47a19.54,19.54,0,0,0,8.57,2"/><path class="cls-12" d="M433.47,85.05s9.29-29.62,15.68-33.11,13.94-6.39,26.14-3.49,16.27,8.14,24.4,6.39,18-9.29,26.72-7.55,23.82,4.07,28.47,8.14,9.29,16.84,10.46,19.75,1.16,14.52,1.16,15.68-2.33-13.94-13.94-18.59-24.4-9.87-33.12-3.48-19.75,6.39-31.37,1.74S465.42,60.65,457.28,67,433.47,85.05,433.47,85.05Z"/><circle class="cls-15" cx="424.15" cy="339.86" r="16.55"/><circle class="cls-16" cx="415.87" cy="333.83" r="3.9"/><circle class="cls-15" cx="556.14" cy="336.6" r="16.55"/><circle class="cls-16" cx="547.87" cy="330.57" r="3.9"/></svg>