<?xml version="1.0" encoding="UTF-8"?>
<svg id="Yolk" xmlns="http://www.w3.org/2000/svg" viewBox="0 0 1000 1000">
  <defs>
    <style>
      .cls-1 {
        font-family: MicrosoftSansSerif, 'Microsoft Sans Serif';
        font-size: 80px;
      }

      .cls-2 {
        fill: #f69705;
        stroke: #e28617;
      }

      .cls-2, .cls-3 {
        stroke-miterlimit: 10;
        stroke-width: 3px;
      }

      .cls-3 {
        fill: #edd5a7;
        stroke: #d8b479;
      }

      .cls-4 {
        letter-spacing: -.03em;
      }

      .cls-5 {
        font-family: FreeSansBold, FreeSans;
        font-size: 150px;
      }

      .cls-6 {
        fill: red;
        letter-spacing: -.05em;
      }

      .cls-7 {
        fill: #f3f4ba;
      }

      .cls-8 {
        fill: #ed3b98;
      }

      .cls-9 {
        fill: #fefaee;
      }

      .cls-10 {
        fill: #c61e7f;
      }

      .cls-11 {
        fill: #ea75b8;
      }

      .cls-12 {
        fill: #db7205;
      }

      .cls-13 {
        fill: #edd5a9;
      }
    </style>
  </defs>
  <g>
    <g>
      <path class="cls-3" d="M324.28,300s-33.37-8.34-62.1,25.03c-28.73,33.37-38,54.69-76.93,66.74-38.93,12.05-106.6,89.91-55.62,138.11,50.98,48.2,211.8,62.57,235.9,71.84s68.59,25.95,143.67,22.25c75.08-3.71,108.45-47.27,170.55-50.05,62.1-2.78,128.84,12.98,165.92-20.39,37.08-33.37,58.4-88.98,29.66-119.57-28.73-30.59-25.03-90.84-50.05-102.89-25.03-12.05-154.8-6.49-204.85-25.03-50.05-18.54-59.32-63.96-155.72-41.71-96.4,22.25-95.47,39.86-140.43,35.69Z"/>
      <path class="cls-9" d="M881.83,454.33c-2.78-5.56-4.63-7.42-8.34-15.76s-12.98-19.47-15.76-27.81c-2.78-8.34-12.05-26.88-14.83-37.08s-11.12-28.73-24.1-37.08-13.9-3.71-26.88-6.49c-12.98-2.78-39.86-1.85-55.62-6.49-15.76-4.63-46.35,0-74.15-2.78-27.81-2.78-62.1-19.47-70.45-25.03s-19.47-12.98-29.66-19.47c-10.2-6.49-30.59-12.05-42.64-14.83s-42.64,3.71-58.4,7.42c-15.76,3.71-54.69,16.68-63.96,20.39s-40.78,12.98-54.69,13.9c-13.9,.93-27.81,0-38.93,0s-34.3,22.25-42.64,30.59c-8.34,8.34-24.1,28.73-29.66,36.15-5.56,7.42-61.18,38.93-70.45,44.49-9.27,5.56-44.49,50.05-41.71,66.74,2.78,16.68,11.12,33.37,20.39,44.49,9.27,11.12,64.88,31.52,79.72,36.15s97.33,25.03,113.08,23.17,47.27,12.05,65.81,14.83c18.54,2.78,62.1,13.9,82.5,15.76,20.39,1.85,57.47-3.71,72.3-11.12,14.83-7.42,54.69-25.95,74.15-34.3,19.47-8.34,69.52-5.56,87.13-7.42s69.52,.93,83.42,0c13.9-.93,29.66-9.27,36.15-16.68s32.44-28.73,35.22-34.3c2.78-5.56,12.98-35.22,12.98-35.22,0,0,2.78-16.68,0-22.25Z"/>
      <path class="cls-13" d="M374.8,371.84c-3.71-.93-38,37.08-41.71,48.2s3.71,63.03,43.57,67.67c39.86,4.63,86.2,34.3,130.7,34.3s107.52-39.86,126.06-47.27c18.54-7.42,43.57-15.76,43.57-30.59s-24.1-66.74-109.38-78.79c-85.28-12.05-192.8,6.49-192.8,6.49Z"/>
      <path class="cls-2" d="M358.32,393.41s-18.19,38.02,4.96,56.21c23.14,18.19,160.36,69.43,228.14,26.45,67.78-42.98,41.33-74.39,31.41-95.88-9.92-21.49-60.99-63.49-123.82-63.49s-102.67,22.16-115.9,37.04-24.8,39.68-24.8,39.68Z"/>
      <path class="cls-12" d="M607.46,369.98s16.68,28.73,17.61,38.93c.93,10.2-10.2,35.22-23.17,46.35-12.98,11.12-40.78,24.1-58.4,25.03-17.61,.93-59.32,0-76.01-3.71-16.68-3.71-41.71-8.34-54.69-13.9-12.98-5.56-48.2-22.25-50.98-32.44s.93-23.17,4.63-28.73,3.71,23.17,50.98,30.59,104.74,11.12,132.55,0c27.81-11.12,39.86-21.32,45.42-35.22,5.56-13.9,12.05-26.88,12.05-26.88Z"/>
      <path class="cls-7" d="M517.55,332.91c-4.84-1.21-39.86-7.42-58.4-4.63s-40.78,8.34-46.35,13.9c-5.56,5.56-13.9,11.12-8.34,15.76,5.56,4.63,16.95,9.76,45.09,5.34,28.14-4.41,41.12-5.34,55.02-10.9s24.1-16.68,12.98-19.47Z"/>
    </g>
    <g>
      <g>
        <path class="cls-8" d="M565.76,361.39c31.05-57.07,55.76-115.7,72.97-178.34,9.88,23.71,19.77,47.42,29.65,71.13,60.03-36.49,94.48-102.17,136.01-158.84,14.27,26.55,30.32,52.13,48.03,76.51-49.63,40.97-95.15,86.91-135.66,136.9,19.98,16.16,39.97,32.32,59.95,48.48-34.3-11.58-70.07-19.65-106.27-20.14-36.2-.49-73.08,6.61-104.67,24.3"/>
        <path class="cls-10" d="M568.35,362.9c12.03-22.13,23.24-44.71,33.42-67.75,10.2-23.08,19.4-46.6,27.42-70.53,4.52-13.48,8.66-27.08,12.43-40.78h-5.79c7.69,18.44,15.37,36.88,23.06,55.33,2.2,5.27,4.39,10.54,6.59,15.81,.72,1.72,2.58,2.91,4.41,1.79,23.46-14.3,43.54-33.36,61.18-54.31,17.87-21.22,33.46-44.22,49.05-67.12,8.8-12.93,17.61-25.86,26.85-38.48h-5.18c11.11,20.66,23.3,40.75,36.51,60.13,3.76,5.52,7.6,10.98,11.53,16.38l.47-3.64c-19.36,15.99-38.11,32.73-56.17,50.18-18.06,17.45-35.45,35.6-52.1,54.39-9.37,10.57-18.5,21.36-27.4,32.33-.94,1.15-1.36,3.14,0,4.24,15.54,12.57,31.09,25.14,46.63,37.71,4.44,3.59,8.88,7.18,13.32,10.77l2.92-5.01c-28.18-9.49-57.26-16.6-86.93-19.21-27.85-2.45-56.27-.77-83.35,6.44-14.95,3.98-29.46,9.69-42.98,17.23-3.37,1.88-.35,7.07,3.03,5.18,23.48-13.1,49.91-20.34,76.6-22.85,28.34-2.66,56.91-.12,84.68,5.81,16.03,3.43,31.81,7.95,47.35,13.18,2.74,.92,5.26-3.12,2.92-5.01-15.54-12.57-31.09-25.14-46.63-37.71-4.44-3.59-8.88-7.18-13.32-10.77v4.24c15.82-19.51,32.38-38.4,49.67-56.62,17.28-18.22,35.27-35.77,53.92-52.59,10.49-9.46,21.19-18.69,32.08-27.69,.93-.77,1.19-2.64,.47-3.64-13.78-18.99-26.57-38.69-38.29-59.01-3.34-5.78-6.58-11.62-9.74-17.5-1.16-2.16-3.93-1.71-5.18,0-16.27,22.22-31.2,45.39-47.1,67.87-15.63,22.1-32.3,43.66-52.03,62.3-10.99,10.38-22.89,19.73-35.8,27.59l4.41,1.79c-7.69-18.44-15.37-36.88-23.06-55.33-2.2-5.27-4.39-10.54-6.59-15.81-.52-1.24-1.45-2.2-2.89-2.2-1.32,0-2.54,.93-2.89,2.2-6.65,24.19-14.49,48.05-23.44,71.49-8.88,23.26-18.87,46.09-29.78,68.47-6.19,12.7-12.69,25.26-19.44,37.67-1.85,3.39,3.33,6.43,5.18,3.03h0Z"/>
      </g>
      <path class="cls-11" d="M736.5,270.5c19.32-23.49,39.36-46.22,57.61-70.45,9.28-12.81,27.32-35.88,27.57-51.51,.01-3.28-1.05-6.44-3.18-9.03,2.96,1.95,4.9,5.25,5.66,8.74,5.62,36.17-60.32,100.92-87.66,122.26h0Z"/>
    </g>
  </g>
  <text class="cls-5" transform="translate(346.18 803.14)"><tspan class="cls-6" x="0" y="0">Y</tspan><tspan class="cls-4" x="92.55" y="0">o</tspan><tspan x="179.7" y="0">lk</tspan></text>
  <text class="cls-1" transform="translate(442.58 902.85)"><tspan x="0" y="0">โยค</tspan></text>
</svg>