<?xml version="1.0" encoding="UTF-8"?>
<svg id="Zebra" xmlns="http://www.w3.org/2000/svg" viewBox="0 0 1000 1000">
  <defs>
    <style>
      .cls-1 {
        fill: #b7b7b7;
      }

      .cls-2 {
        font-family: MicrosoftSansSerif, 'Microsoft Sans Serif';
        font-size: 80px;
      }

      .cls-3 {
        fill: #fff;
      }

      .cls-4 {
        fill: red;
        letter-spacing: -.03em;
      }

      .cls-5 {
        font-family: FreeSansBold, FreeSans;
        font-size: 150px;
      }

      .cls-6 {
        letter-spacing: 0em;
      }

      .cls-7 {
        fill: #a8aa18;
      }

      .cls-8 {
        fill: #5b462b;
      }

      .cls-9 {
        fill: #513307;
      }

      .cls-10 {
        fill: #e6e6e6;
      }

      .cls-11 {
        fill: #f7db2f;
      }

      .cls-12 {
        letter-spacing: 0em;
      }

      .cls-13 {
        fill: #cfc12a;
      }

      .cls-14 {
        fill: #f2f2f2;
      }

      .cls-15 {
        letter-spacing: -.02em;
      }
    </style>
  </defs>
  <g>
    <path class="cls-11" d="M835.55,438.08c0-30.33-24.16-55.55-56.04-60.85,1.83-6.45,2.8-13.21,2.8-20.18,0-44.79-40.18-81.09-89.75-81.09-12.93,0-25.21,2.49-36.32,6.94-1.9-32.65-31.79-58.59-68.4-58.59-23.61,0-44.43,10.8-56.75,27.22-15.07-10.35-33.87-16.51-54.26-16.51-43.52,0-79.8,27.99-88.01,65.13-8.51-2.42-17.55-3.72-26.94-3.72-49.57,0-89.75,36.31-89.75,81.09,0,34.05,23.24,63.19,56.17,75.2-5.86,9.12-9.23,19.71-9.23,31.01,0,34.18,30.67,61.89,68.5,61.89,7.57,0,14.85-1.13,21.66-3.18h0s278.64,23.47,278.64,23.47h0c10.6,6.09,23.17,9.62,36.67,9.62,37.83,0,68.5-27.71,68.5-61.89,0-6.03-.97-11.85-2.75-17.35,26.39-8.6,45.26-31.42,45.26-58.23Z"/>
    <path class="cls-7" d="M418.83,450.02c0-43.06-37.96-77.97-84.79-77.97-34.42,0-64.05,18.86-77.34,45.96-2.46-.2-4.94-.3-7.45-.3-46.83,0-84.79,34.91-84.79,77.97s37.96,77.97,84.79,77.97c6.55,0,12.93-.68,19.06-1.98,14.18,9.8,31.81,15.62,50.91,15.62,46.83,0,84.79-34.91,84.79-77.97,0-4.63-.44-9.17-1.28-13.57,10.13-12.85,16.11-28.64,16.11-45.72Z"/>
    <ellipse class="cls-13" cx="472.06" cy="577.1" rx="303.87" ry="81.38"/>
    <polygon class="cls-10" points="368.77 474.75 258.68 515.58 265.92 589.57 321.51 593.31 368.77 474.75"/>
    <path class="cls-10" d="M679.82,516.14l-7.25,73.99-55.58,3.74-47.27-118.57,44.92,16.66,3,17.81c.39,2.31,3.43,2.87,4.63,.85l7.67-12.99,16.81,6.23,1.81,10.8c.39,2.31,3.43,2.87,4.63,.85l4.48-7.6,22.15,8.22Z"/>
    <path class="cls-8" d="M679.82,516.14c.18-1.8,16.88,.08,18.19,.39,4.33,1.02,8.63,2.93,11.39,6.56,4.72,6.21,1.88,15.58,.85,22.55-1,6.79-2.29,13.55-4.4,20.09-3.71,11.52-10.35,24.03-23.94,24.25-.01,0-9.33,.15-9.33,.15,0,0,7.24-73.96,7.24-73.99Z"/>
    <path class="cls-8" d="M260.84,515.78c-.18-1.8-17.42,.08-18.76,.39-4.47,1.02-8.9,2.93-11.75,6.56-4.87,6.21-1.94,15.58-.88,22.55,1.03,6.79,2.36,13.55,4.54,20.09,3.83,11.52,10.68,24.03,24.7,24.25,.01,0,9.63,.15,9.63,.15,0,0-7.47-73.96-7.47-73.99Z"/>
    <path class="cls-14" d="M614.08,612.08l-53.24,17.01c-6.43,2.05-13.29-1.53-15.29-7.99l-.37-1.19c-4.92,.93-10.01,1.74-15.29,2.48,1.45-9.65,2.22-19.82,2.22-30.31,0-63.16-28.01-114.37-62.54-114.37s-62.54,51.22-62.54,114.37c0,10.54,.77,20.76,2.24,30.46-5.55-.75-10.92-1.62-16.09-2.56-2.37,5.81-8.84,8.92-14.93,6.98l-53.24-17.01c-6.57-2.1-10.08-9.24-7.7-15.74l5.62-15.35c.3-1.39,.8-2.79,1.52-4.14l32.45-101.94h42.32c2.85,0,3.36-5.91,.61-6.97l-36.29-13.88,4.92-15.46h67.64c2.85,0,3.36-5.91,.61-6.97l-58.86-22.5,12.55-39.45,176.93-.91,8.85,39.39-67.53,25.82c-2.75,1.05-2.22,6.97,.62,6.97h74.26l3.07,13.63-41.06,15.7c-2.75,1.05-2.22,6.97,.62,6.97h45.54l22.8,101.53c.02,.07,.05,.13,.07,.2h.08s7.15,19.51,7.15,19.51c2.37,6.49-1.14,13.64-7.72,15.74Z"/>
    <path class="cls-10" d="M532.1,592.08c0,10.5-.77,20.66-2.22,30.32-18.53,2.57-39.14,4.01-60.85,4.01s-41.51-1.38-59.76-3.87c-1.46-9.7-2.24-19.92-2.24-30.46,0-63.16,28-114.36,62.54-114.36s62.54,51.21,62.54,114.36Z"/>
    <g>
      <path class="cls-10" d="M621.81,150.67l-1.01-50.23c-.18-9.06-6.17-15.97-13.76-15.88l-44.86,.53s12.71,60.93,59.63,65.58Z"/>
      <path class="cls-10" d="M370.14,105.98l18.66-46.65c3.37-8.41,11.4-12.77,18.47-10.01l41.79,16.32s-33.38,52.53-78.93,40.34Z"/>
      <path class="cls-14" d="M611.68,119.58c-15.38-16.5-35.96-29.18-56.08-39.12-16.39-8.1-35.36-16.03-53.73-18.28-1.45-.18-2.91-.33-4.38-.47-41.96-3.93-92.59,8.4-124.53,36.17-17.81,15.49-14.78,40.89-17.2,63.15-4.33,39.82-8.01,79.71-12.21,119.54,55.79,113.86,260.26,46.96,260.26,46.96l1.81-14.78,16.61-135.54c2.87-23.45,7.07-38.74-10.55-57.64Z"/>
      <path class="cls-8" d="M459.13,410.61c-29.02-2.71-59.99-13.04-83.07-26.61-30.17-17.73-47.78-45.53-50.25-71.87-2.9-30.93,17.84-54.17,49.47-72.24,7.25-4.14,14.92-7.95,23.03-11.26,12.56-5.13,26.26-8.93,40.6-11.35,32.39-5.45,60.75-.94,89.8,13.08,53.56,25.85,95.99,74.3,82.24,118.83-6.84,22.15-26.7,41.87-54.45,52.43-28.85,10.98-63.92,12.12-97.37,9Z"/>
      <path class="cls-8" d="M441.6,189.24c-.87,7.07-7.3,12.09-14.36,11.23-7.07-.87-12.09-7.3-11.23-14.36,.87-7.07,7.3-12.09,14.36-11.23,7.07,.87,12.09,7.3,11.23,14.36Z"/>
      <path class="cls-3" d="M438.21,184.61c-.19,1.57-1.62,2.69-3.19,2.5-1.57-.19-2.69-1.62-2.5-3.19,.19-1.57,1.62-2.69,3.19-2.5,1.57,.19,2.69,1.62,2.5,3.19Z"/>
      <path class="cls-8" d="M553.81,201.16c-.87,7.07-7.3,12.09-14.36,11.23-7.07-.87-12.09-7.3-11.23-14.36,.87-7.07,7.3-12.09,14.36-11.23,7.07,.87,12.09,7.3,11.23,14.36Z"/>
      <path class="cls-3" d="M552.62,196.2c-.19,1.57-1.62,2.69-3.19,2.5-1.57-.19-2.69-1.62-2.5-3.19,.19-1.57,1.62-2.69,3.19-2.5,1.57,.19,2.69,1.62,2.5,3.19Z"/>
      <path class="cls-10" d="M604.9,300.66c-13.48-27.88-43.03-53.45-77.07-69.87-29.04-14.02-57.4-18.53-89.8-13.09-14.34,2.41-28.04,6.22-40.6,11.34-8.11,3.32-15.77,7.12-23.03,11.27-10.92,6.23-20.54,13.1-28.34,20.67,8.22-13.15,21.43-24.41,37.67-34.19,6.82-4.1,14.02-7.89,21.64-11.17,11.8-5.1,24.67-8.9,38.13-11.34,30.38-5.52,56.93-1.25,84.1,12.34,37.93,18.98,69.81,50.73,77.31,84.03Z"/>
      <path class="cls-9" d="M603.93,364.95c-9.65,16.02-26.39,29.67-47.85,37.85-28.85,10.98-63.93,12.12-97.37,8.99-29.02-2.71-59.99-13.04-83.08-26.61-30.16-17.72-47.78-45.52-50.24-71.86-1.65-17.65,4.39-32.79,15.77-45.9-6.29,10.52-9.3,22.24-8.08,35.33,2.46,26.34,20.08,54.14,50.24,71.86,23.08,13.57,54.06,23.9,83.08,26.61,33.44,3.13,68.52,1.99,97.37-8.99,16.55-6.31,30.31-15.88,40.16-27.28Z"/>
      <path class="cls-9" d="M452.51,267.27c-1.62,13.24-9.77,23.14-18.2,22.11-8.43-1.03-13.94-12.6-12.32-25.85,1.62-13.24,9.77-23.14,18.2-22.11,8.43,1.03,13.94,12.6,12.32,25.85Z"/>
      <ellipse class="cls-9" cx="524.43" cy="276.08" rx="24.16" ry="15.37" transform="translate(186.62 763.04) rotate(-83.01)"/>
      <path class="cls-8" d="M547.94,61.06c-1.96-4.22-4.61-8.1-8-11.31-6.08-5.74-14.04-8.79-22.21-9.99-7.54-1.11-15.35-.76-22.85,.48-8.18,1.35-21.85,8.31-25.6-3.35-.16-.51-.38-1.59-.56-2.92-.47-3.47-4.99-4.61-6.97-1.72-4.58,6.67-3.36,15.18-7.05,22.03-5.58-3.39-4.61-17.37-3.94-22.89,.26-2.18-2.49-3.27-3.78-1.5-6.01,8.2-9.53,19.11-10.27,29.21-2.12,28.77,35.44,32.66,55.99,31.97,1.44-.05,2.87-.12,4.31-.2,26.48,.02,55.32-13.01,55.36-13.02,1.64-.74-3.64-15.13-4.41-16.78Z"/>
      <path class="cls-8" d="M617.46,219.87l-35.49-17.13c-4.52-2.19-3.15-8.96,1.86-9.22l37.14-1.87c-.52,4.86-1.28,10.03-1.98,15.68l-1.54,12.54Z"/>
      <path class="cls-8" d="M389.1,177.32l-35.17,5.61c.15-1.53,.32-3.07,.49-4.6,.8-7.31,1-14.95,1.55-22.46l34,12.1c4.73,1.68,4.1,8.56-.87,9.36Z"/>
      <path class="cls-8" d="M369.91,220.01l-20.17,3.21c.66-6.45,1.31-12.91,1.97-19.36l19.05,6.79c4.75,1.69,4.11,8.57-.85,9.37Z"/>
      <path class="cls-8" d="M591.95,248.25l19.77,9.08c1.25-6.37,2.49-12.73,3.74-19.1l-21.6,.82c-5.38,.2-6.78,6.97-1.91,9.21Z"/>
    </g>
    <path class="cls-8" d="M326.97,566.77s73.81,23.35,73.83,23.36c1.47,.47,.47,8.66,.34,9.56-1.11,7.88-5.1,18.28-10.09,24.57-4.15,5.23-11.17,4-16.69,2.16,0,0-49.35-16.46-49.35-16.46,0,0-11.59-4.33-6.21-19.82l8.17-23.36Z"/>
    <path class="cls-8" d="M613.29,567.94s-73.81,23.35-73.83,23.36c-1.47,.47-.47,8.66-.34,9.56,1.11,7.88,5.1,18.28,10.09,24.57,4.15,5.23,11.17,4,16.69,2.16,0,0,49.35-16.46,49.35-16.46,0,0,11.59-4.33,6.21-19.82l-8.17-23.36Z"/>
    <path class="cls-1" d="M400.8,590.13c.91-6.49,2.24-12.86,3.73-19.19,.71-3.17,1.57-6.31,2.36-9.46,.84-3.14,1.75-6.26,2.62-9.38,1.82-6.23,3.84-12.41,6.03-18.54,2.21-6.12,4.57-12.21,7.57-18.05-1.28,6.42-2.72,12.74-4.32,19.04-1.58,6.29-3.27,12.56-5.11,18.78l-2.85,9.31c-1.02,3.08-1.96,6.19-3.06,9.25-2.11,6.15-4.35,12.25-6.98,18.25Z"/>
    <path class="cls-1" d="M539.04,593.64c-2.64-6-4.88-12.11-6.98-18.25-1.09-3.06-2.04-6.17-3.06-9.25l-2.85-9.31c-1.85-6.22-3.53-12.48-5.11-18.78-1.6-6.29-3.04-12.62-4.32-19.04,3,5.84,5.36,11.93,7.57,18.05,2.19,6.13,4.21,12.31,6.03,18.54,.87,3.13,1.78,6.25,2.62,9.38,.8,3.15,1.65,6.28,2.36,9.46,1.49,6.33,2.83,12.7,3.73,19.19Z"/>
    <path class="cls-8" d="M583.53,438.81h-74.26c-2.85,0-3.37-5.91-.62-6.97l67.53-25.82,7.35,32.79Z"/>
    <path class="cls-8" d="M591.69,475.11h-45.54c-2.85,0-3.37-5.91-.62-6.97l41.06-15.7,5.09,22.67Z"/>
    <path class="cls-8" d="M436.09,436.47h-67.64l9.39-29.47,58.86,22.5c2.75,1.05,2.24,6.97-.61,6.97Z"/>
    <path class="cls-8" d="M399.21,472.77h-42.32l6.64-20.84,36.29,13.88c2.75,1.05,2.24,6.97-.61,6.97Z"/>
    <path class="cls-8" d="M629.93,497.64l-7.67,12.99c-1.19,2.01-4.24,1.45-4.63-.85l-3-17.81,15.29,5.68Z"/>
    <path class="cls-8" d="M657.67,507.92l-4.48,7.6c-1.19,2.01-4.24,1.45-4.63-.85l-1.81-10.8,10.92,4.05Z"/>
    <path class="cls-8" d="M308.67,496.47l7.67,12.99c1.19,2.01,4.24,1.45,4.62-.85l3-17.81-15.29,5.68Z"/>
  </g>
  <text class="cls-5" transform="translate(300.43 803.01)"><tspan class="cls-4" x="0" y="0">Z</tspan><tspan x="87.15" y="0">e</tspan><tspan class="cls-12" x="170.55" y="0">b</tspan><tspan class="cls-15" x="260.7" y="0">r</tspan><tspan class="cls-6" x="316.05" y="0">a</tspan></text>
  <text class="cls-2" transform="translate(416.56 902.72)"><tspan x="0" y="0">ซีบระ</tspan></text>
  <text/>
</svg>