<?xml version="1.0" encoding="UTF-8"?>
<svg id="Zero" xmlns="http://www.w3.org/2000/svg" viewBox="0 0 1000 1000">
  <defs>
    <style>
      .cls-1 {
        font-family: MicrosoftSansSerif, 'Microsoft Sans Serif';
        font-size: 80px;
      }

      .cls-2 {
        fill: red;
        letter-spacing: -.03em;
      }

      .cls-3 {
        font-family: FreeSansBold, FreeSans;
        font-size: 150px;
      }

      .cls-4 {
        letter-spacing: 0em;
      }

      .cls-5 {
        fill: #9b7575;
      }

      .cls-6 {
        letter-spacing: -.01em;
      }

      .cls-7 {
        fill: #ffb339;
      }

      .cls-7, .cls-8 {
        stroke: #ce851b;
        stroke-miterlimit: 10;
        stroke-width: 3px;
      }

      .cls-9 {
        fill: #7c5b5b;
      }

      .cls-8 {
        fill: #fff;
      }
    </style>
  </defs>
  <g>
    <path class="cls-7" d="M511.68,135.5c38.97,0,74.13,7.63,105.49,22.88,31.35,15.25,55.8,41.34,73.35,78.25,17.55,36.92,26.33,80.43,26.33,130.54,0,39.22-5.39,78.07-16.16,116.56-10.77,38.49-25.42,69.42-43.94,92.78-18.52,23.36-42.91,41.46-73.17,54.29-30.26,12.83-62.58,19.25-96.95,19.25-29.29,0-56.77-4.72-82.43-14.16-25.66-9.44-48.18-24.81-67.54-46.12-19.37-21.3-32.92-46.53-40.67-75.71-7.75-29.17-11.62-60.33-11.62-93.5,0-40.18,5.38-79.64,16.16-118.38,10.77-38.73,25.84-70.32,45.21-94.77,19.36-24.45,43.69-42.54,72.99-54.29,29.29-11.74,60.28-17.61,92.96-17.61Zm-2.54,107.48c-11.38,0-21.55,3.39-30.5,10.17-10.89,8.23-19.49,19.49-25.78,33.77-7.75,17.19-13.56,36.92-17.43,59.19-4.36,24.45-6.54,51.32-6.54,80.61,0,25.66,2.42,46.91,7.26,63.73,4.84,16.83,12.17,29.84,21.97,39.04,9.8,9.2,21.24,13.8,34.31,13.8,7.26,0,14.34-1.57,21.24-4.72,6.9-3.14,14.16-9.44,21.79-18.88,7.63-9.44,14.34-22.99,20.15-40.67,5.81-17.67,10.04-36.13,12.71-55.38,2.66-19.25,3.99-38.79,3.99-58.64,0-41.15-5.69-71.77-17.07-91.87-11.38-20.09-26.75-30.14-46.12-30.14Z"/>
    <g>
      <g>
        <path class="cls-8" d="M518.28,114.93c-5.78-17.82-17.37-31.93-36.19-31.93-28.8,0-52.15,23.35-52.15,52.15s12.46,46.42,41.26,46.42c15.97,0,30.08-2.43,39.48-9.49-2.54-5.87-3.95-12.64-3.95-20.31,0-12.58,4.42-25.65,11.54-36.84Z"/>
        <path class="cls-8" d="M563.48,85.29c-17.36,0-34.39,12.66-45.2,29.64-7.12,11.19-11.54,24.26-11.54,36.84,0,7.67,1.41,14.44,3.95,20.31,7.94,18.36,26.95,27.83,48.77,27.83,28.8,0,52.73-27.95,52.73-59.6s-19.91-55.02-48.71-55.02Z"/>
      </g>
      <g>
        <path class="cls-5" d="M574.37,60.07c4.76-4.61,6.81-8.33,10.64-13.73,.4-.56,.91-1.18,1.59-1.13,.36,.03,.67,.25,.97,.46,5.76,4.21,11.31,8.71,16.63,13.46,8.38,7.49,16.6,16.4,18.25,27.52-12.62-12.84-30.53-22.54-48.07-26.58"/>
        <path class="cls-9" d="M575.43,61.13c3.17-3.1,5.77-6.61,8.26-10.26,.61-.9,1.23-1.8,1.85-2.69,.2-.29,.64-1.22,.96-1.33,.23-.08,1.12,.72,1.45,.97,2.19,1.62,4.35,3.29,6.47,5,7.45,5.99,15.2,12.38,20.7,20.29,2.93,4.21,5.07,8.85,5.87,13.94l2.51-1.46c-10.3-10.43-23.16-18.31-36.87-23.4-3.88-1.44-7.84-2.63-11.86-3.57-1.88-.44-2.68,2.45-.8,2.89,13.89,3.23,27.14,9.55,38.43,18.25,3.17,2.44,6.17,5.1,8.98,7.94,1.14,1.16,2.72-.07,2.51-1.46-1.55-9.92-8.04-18.1-15.07-24.88-4.01-3.87-8.29-7.49-12.64-10.97-2.27-1.81-4.56-3.58-6.9-5.31-.95-.71-1.93-1.57-3.21-1.32s-1.94,1.22-2.62,2.19c-3.21,4.54-6.15,9.15-10.15,13.06-1.38,1.35,.74,3.47,2.12,2.12h0Z"/>
      </g>
      <g>
        <path class="cls-5" d="M510.18,36c.6,6.47,1.26,12.95-.8,19.11-2.71,0-5.41,0-8.12,.01-3.02,0-6.05,.01-9.02,.49-2.89,.47-5.69,1.37-8.48,2.28-9.25,3-18.5,6-27.75,9,1.92-6.94,7.6-12.1,13.13-16.7,2.57-2.14,5.18-4.24,8.02-6,9.36-5.77,22.12-6.77,33.02-8.2"/>
        <path class="cls-9" d="M508.68,36c.58,6.25,1.22,12.63-.74,18.72l1.45-1.1c-4.6,0-9.24-.16-13.83,.14s-8.65,1.55-12.89,2.92c-9.01,2.93-18.03,5.85-27.04,8.78l1.85,1.85c2.31-8.01,9.62-13.71,15.93-18.63,3.34-2.6,6.92-4.77,10.9-6.24s7.96-2.34,12.04-3.04c4.59-.79,9.23-1.29,13.85-1.89,.81-.11,1.49-.61,1.5-1.5,0-.73-.7-1.6-1.5-1.5-8.7,1.13-17.6,1.87-25.94,4.77-4.2,1.46-8.03,3.54-11.59,6.21s-7.23,5.68-10.44,8.91c-3.41,3.43-6.3,7.41-7.65,12.1-.31,1.07,.75,2.2,1.85,1.85,8.86-2.87,17.72-5.75,26.57-8.62,4.21-1.36,8.36-2.72,12.8-2.98s9.07-.12,13.6-.13c.68,0,1.24-.47,1.45-1.1,2.04-6.34,1.45-12.99,.85-19.51-.18-1.91-3.18-1.92-3,0h0Z"/>
      </g>
      <circle cx="488.4" cy="140.31" r="8.02"/>
      <circle cx="562.33" cy="152.34" r="9.17"/>
    </g>
  </g>
  <text class="cls-3" transform="translate(342.13 801.93)"><tspan class="cls-2" x="0" y="0">Z</tspan><tspan class="cls-4" x="87.15" y="0">e</tspan><tspan class="cls-6" x="169.8" y="0">r</tspan><tspan x="225.9" y="0">o</tspan></text>
  <text class="cls-1" transform="translate(407.21 902.94)"><tspan x="0" y="0">เซียโร</tspan></text>
</svg>