<?xml version="1.0" encoding="UTF-8"?>
<svg id="Rain" xmlns="http://www.w3.org/2000/svg" viewBox="0 0 1000 1000">
  <defs>
    <style>
      .cls-1 {
        font-family: MicrosoftSansSerif, 'Microsoft Sans Serif';
        font-size: 80px;
      }

      .cls-2 {
        fill: #6cafff;
      }

      .cls-3 {
        fill: #fff;
      }

      .cls-4 {
        font-family: FreeSansBold, FreeSans;
        font-size: 150px;
      }

      .cls-5 {
        letter-spacing: -.01em;
      }

      .cls-6 {
        fill: #4c5972;
      }

      .cls-7 {
        fill: #3b455e;
      }

      .cls-8 {
        fill: #677589;
      }

      .cls-9 {
        fill: #7c8a9b;
      }

      .cls-10 {
        fill: red;
        letter-spacing: 0em;
      }

      .cls-11 {
        fill: #58677f;
      }

      .cls-12 {
        fill: #4792dd;
      }
    </style>
  </defs>
  <g>
    <g>
      <path class="cls-7" d="M281.2,360.16l6.38,.9c41.81,6.77,84.38,6.9,126.73,7.02,111.7,.31,223.41,.61,335.11,.92,8.19,.02,16.55,.02,24.33-2.58,15.24-5.09,26.24-20.8,25.81-36.86-.43-16.06-12.25-31.16-27.74-35.43,20.24-3.28,42.35-7.73,55.18-23.73,13.61-16.97,11.72-43.09-.99-60.74-7.96-11.06-19.34-19.06-32.03-24.24,3.01,3.37,5.82,6.92,8.34,10.72,12.13,18.25,16.58,43.37,5.05,62.01-14.48,23.42-46.22,27.55-73.7,29.25,9.13,10.4,16.83,22.07,22.8,34.56,1.74,3.64,3.37,7.67,2.44,11.6-1.93,8.19-12.6,9.99-21.01,10.09-74.83,.89-149.65,1.77-224.48,2.66-61.9,.73-123.95,1.46-185.54-4.76-44.88-4.54-89.29-12.75-133.27-22.9,21.85,24.93,52.99,41.25,86.57,41.52Z"/>
      <path class="cls-6" d="M327.9,341.54c61.59,6.22,123.64,5.5,185.54,4.76,74.83-.89,149.65-1.77,224.48-2.66,8.41-.1,19.08-1.9,21.01-10.09,.92-3.92-.71-7.96-2.44-11.6-5.97-12.49-13.66-24.16-22.8-34.56,27.48-1.71,59.22-5.84,73.7-29.25,11.53-18.64,7.08-43.76-5.05-62.01-2.52-3.79-5.33-7.34-8.34-10.72-7.56-3.09-15.59-5.17-23.63-6.3-.55-.08-1.1-.13-1.66-.2,4.29,2.81,8.14,6.29,11.28,10.37,9.25,12.02,12.1,28.68,7.37,43.09-5.57,16.97-20.59,29.51-37.09,36.37-16.49,6.86-34.54,8.85-52.3,10.77,7.92-.2,13.98,8.65,12.76,16.48s-7.9,13.92-15.3,16.74-15.52,2.97-23.44,3.08c-21.49,.3-42.99,.6-64.48,.75-99.75,.7-199.52-1.84-299.1-7.6-28.12-1.63-56.36-3.53-83.86-9.66-18.04-4.02-35.66-9.88-52.54-17.41,5.41,13.46,13.14,25.92,22.63,36.74,43.98,10.15,88.39,18.36,133.27,22.9Z"/>
      <path class="cls-8" d="M223.04,212.63c2.78,6.58,7.39,12.22,12.43,17.27,7.54,7.55,16.26,14.02,25.99,18.4,12.35,5.55,25.95,7.58,39.35,9.49,87.52,12.47,175.68,22.06,264.08,21.96,14.54-.02,29.33-.33,43.2-4.71,13.87-4.38,26.92-13.41,32.88-26.67,13.05,11.43,30.25,23.63,46.21,16.84,6.71-2.86,11.64-8.64,16.32-14.23,7.27-8.68,15.02-19.35,12.06-30.28-1.41-5.2-5.09-9.46-8.88-13.29-10.29-10.41-22.2-19.21-35.16-25.99,16.46-3.65,27.21-21.85,25.34-38.61-1.87-16.76-14.25-31.12-29.36-38.6-.23-.11-.47-.21-.7-.33-26.73,3.77-52.92,11.28-77.57,22.29,2.83-12.2,5.2-24.76,3.62-37.19-1.58-12.42-7.69-24.84-18.45-31.24-8.22-4.88-18.13-5.8-27.68-6.25-24.89-1.16-50.31,.2-73.78,8.58-23.47,8.38-44.93,24.47-55.77,46.91-.5-23.83-12.3-49.74-34.94-57.22-8.07-2.67-16.8-2.76-25.23-1.68-27.4,3.49-52.93,19.63-67.84,42.88-14.91,23.25-18.92,53.19-10.66,79.55-11.23-10.7-26.44-15.5-41.86-15.21-3.92,5.03-7.46,10.31-10.31,16.02-6.35,12.76-8.85,28.18-3.3,41.31Z"/>
      <path class="cls-11" d="M188.68,174.87c-23.69,23.17-29.95,60.35-21.53,92.4,1.31,4.99,2.94,9.87,4.85,14.63,16.88,7.53,34.5,13.39,52.54,17.41,27.5,6.13,55.74,8.03,83.86,9.66,99.58,5.76,199.35,8.3,299.1,7.6,21.49-.15,42.99-.45,64.48-.75,7.92-.11,16.04-.26,23.44-3.08s14.08-8.92,15.3-16.74-4.84-16.68-12.76-16.48c17.76-1.92,35.81-3.91,52.3-10.77,16.49-6.86,31.52-19.4,37.09-36.37,4.73-14.41,1.87-31.07-7.37-43.09-3.13-4.07-6.98-7.55-11.28-10.37-21.01-2.65-42.34,.33-63.21,4.03,11.52-10.24,22.55-22.05,26.89-36.83,4.34-14.78,0-33.09-13.45-40.63-7.96-4.46-17.59-4.54-26.7-4.08-8.51,.44-17,1.27-25.43,2.46,.23,.11,.47,.21,.7,.33,15.11,7.49,27.49,21.85,29.36,38.6,1.87,16.76-8.87,34.96-25.34,38.61,12.97,6.78,24.88,15.59,35.16,25.99,3.79,3.83,7.47,8.09,8.88,13.29,2.96,10.93-4.79,21.6-12.06,30.28-4.68,5.59-9.61,11.38-16.32,14.23-15.96,6.79-33.16-5.41-46.21-16.84-5.97,13.26-19.02,22.3-32.88,26.67-13.87,4.38-28.65,4.69-43.2,4.71-88.41,.1-176.56-9.5-264.08-21.96-13.4-1.91-27-3.94-39.35-9.49-9.74-4.37-18.45-10.85-25.99-18.4-5.05-5.05-9.66-10.69-12.43-17.27-5.54-13.13-3.05-28.55,3.3-41.31,2.84-5.71,6.39-10.99,10.31-16.02-17.53,.33-35.36,7.24-47.96,19.57Z"/>
      <path class="cls-9" d="M309.97,165.5c7.36,3.46,12.95,5.16,21,4s12.65-1.62,20.47-3.85c9.95-2.84,20.16-5.14,29.37-9.85s17.53-12.27,20.46-22.19c1.22-4.14,1.46-8.5,1.58-12.81,.26-8.77,.07-17.63-2.02-26.15s-6.25-16.72-12.89-22.45c-10.41-8.98-25.75-10.65-38.99-6.95s-24.7,12.08-34.82,21.39c-8.5,7.83-16.56,16.89-19.58,28.05-1.35,4.99-1.64,10.22-1.54,15.39,.13,6.78,.95,13.64,3.47,19.93s6.91,12.01,12.9,15.19l.59,.3Z"/>
      <path class="cls-9" d="M421.25,152.83c2.46,7.76,9.89,12.76,17.11,16.54,16.9,8.87,35.47,14.55,54.44,16.66,9.51,1.06,19.1,1.22,28.67,1.32,34.43,.36,69.1-.15,102.88-6.8,11.11-2.19,22.9-5.53,29.98-14.37,7.49-9.35,7.44-23.94-.11-33.23-2.47-3.03-5.75-5.58-9.58-6.37-4.35-.9-8.81,.52-13.03,1.93-20.75,6.92-41.5,13.84-62.26,20.76-.32-9.51-.65-19.02-.97-28.53-.24-7.17-.51-14.48-2.89-21.25-4.55-12.95-16.65-22.39-29.94-25.82s-27.54-1.39-40.36,3.5c-12.82,4.89-24.41,12.5-35.61,20.44-9.46,6.71-18.78,13.77-26.48,22.44s-10.23,20.01-12.12,31.45l.28,1.33Z"/>
      <circle class="cls-3" cx="231.47" cy="196" r="8"/>
      <circle class="cls-3" cx="231.97" cy="178.5" r="4.5"/>
      <circle class="cls-3" cx="234.97" cy="167.5" r="3.5"/>
    </g>
    <g>
      <path class="cls-12" d="M341.9,414.59l-3.41-29.28-.13,.15,.94,25.68c.12,3.25-1.18,6.43-3.67,8.52-3.68,3.1-8.91,4.1-13.68,2.17h0c-2.08-.84-3.83-2.14-5.18-3.74,1.32,3.93,4.43,7.19,8.68,8.54h0c4.91,1.55,10.04,.13,13.47-3.24,2.32-2.28,3.36-5.56,2.99-8.79Z"/>
      <path class="cls-2" d="M321.94,421.83c4.77,1.93,10,.93,13.68-2.17,2.49-2.09,3.79-5.27,3.67-8.52l-.94-25.68-19.48,21.86c-2.16,2.43-3.19,5.71-2.6,8.91,.12,.63,.28,1.25,.48,1.86,1.36,1.6,3.11,2.9,5.18,3.74h0Z"/>
      <circle class="cls-3" cx="320.02" cy="413.25" r="2.68"/>
      <circle class="cls-3" cx="322.11" cy="407.88" r="1.53"/>
    </g>
    <g>
      <path class="cls-12" d="M505.6,417.77l-3.41-29.28-.13,.15,.94,25.68c.12,3.25-1.18,6.43-3.67,8.52-3.68,3.1-8.91,4.1-13.68,2.17h0c-2.08-.84-3.83-2.14-5.18-3.74,1.32,3.93,4.43,7.19,8.68,8.54h0c4.91,1.55,10.04,.13,13.47-3.24,2.32-2.28,3.36-5.56,2.99-8.79Z"/>
      <path class="cls-2" d="M485.65,425c4.77,1.93,10,.93,13.68-2.17,2.49-2.09,3.79-5.27,3.67-8.52l-.94-25.68-19.48,21.86c-2.16,2.43-3.19,5.71-2.6,8.91,.12,.63,.28,1.25,.48,1.86,1.36,1.6,3.11,2.9,5.18,3.74h0Z"/>
      <circle class="cls-3" cx="483.72" cy="416.42" r="2.68"/>
      <circle class="cls-3" cx="485.82" cy="411.05" r="1.53"/>
    </g>
    <g>
      <path class="cls-12" d="M638.6,415.77l-3.41-29.28-.13,.15,.94,25.68c.12,3.25-1.18,6.43-3.67,8.52-3.68,3.1-8.91,4.1-13.68,2.17h0c-2.08-.84-3.83-2.14-5.18-3.74,1.32,3.93,4.43,7.19,8.68,8.54h0c4.91,1.55,10.04,.13,13.47-3.24,2.32-2.28,3.36-5.56,2.99-8.79Z"/>
      <path class="cls-2" d="M618.65,423c4.77,1.93,10,.93,13.68-2.17,2.49-2.09,3.79-5.27,3.67-8.52l-.94-25.68-19.48,21.86c-2.16,2.43-3.19,5.71-2.6,8.91,.12,.63,.28,1.25,.48,1.86,1.36,1.6,3.11,2.9,5.18,3.74h0Z"/>
      <circle class="cls-3" cx="616.72" cy="414.42" r="2.68"/>
      <circle class="cls-3" cx="618.82" cy="409.05" r="1.53"/>
    </g>
    <g>
      <path class="cls-12" d="M722.6,417.77l-3.41-29.28-.13,.15,.94,25.68c.12,3.25-1.18,6.43-3.67,8.52-3.68,3.1-8.91,4.1-13.68,2.17h0c-2.08-.84-3.83-2.14-5.18-3.74,1.32,3.93,4.43,7.19,8.68,8.54h0c4.91,1.55,10.04,.13,13.47-3.24,2.32-2.28,3.36-5.56,2.99-8.79Z"/>
      <path class="cls-2" d="M702.65,425c4.77,1.93,10,.93,13.68-2.17,2.49-2.09,3.79-5.27,3.67-8.52l-.94-25.68-19.48,21.86c-2.16,2.43-3.19,5.71-2.6,8.91,.12,.63,.28,1.25,.48,1.86,1.36,1.6,3.11,2.9,5.18,3.74h0Z"/>
      <circle class="cls-3" cx="700.72" cy="416.42" r="2.68"/>
      <circle class="cls-3" cx="702.82" cy="411.05" r="1.53"/>
    </g>
    <g>
      <path class="cls-12" d="M413.6,453.77l-3.41-29.28-.13,.15,.94,25.68c.12,3.25-1.18,6.43-3.67,8.52-3.68,3.1-8.91,4.1-13.68,2.17h0c-2.08-.84-3.83-2.14-5.18-3.74,1.32,3.93,4.43,7.19,8.68,8.54h0c4.91,1.55,10.04,.13,13.47-3.24,2.32-2.28,3.36-5.56,2.99-8.79Z"/>
      <path class="cls-2" d="M393.65,461c4.77,1.93,10,.93,13.68-2.17,2.49-2.09,3.79-5.27,3.67-8.52l-.94-25.68-19.48,21.86c-2.16,2.43-3.19,5.71-2.6,8.91,.12,.63,.28,1.25,.48,1.86,1.36,1.6,3.11,2.9,5.18,3.74h0Z"/>
      <circle class="cls-3" cx="391.72" cy="452.42" r="2.68"/>
      <circle class="cls-3" cx="393.82" cy="447.05" r="1.53"/>
    </g>
    <g>
      <path class="cls-12" d="M260.6,436.77l-3.41-29.28-.13,.15,.94,25.68c.12,3.25-1.18,6.43-3.67,8.52-3.68,3.1-8.91,4.1-13.68,2.17h0c-2.08-.84-3.83-2.14-5.18-3.74,1.32,3.93,4.43,7.19,8.68,8.54h0c4.91,1.55,10.04,.13,13.47-3.24,2.32-2.28,3.36-5.56,2.99-8.79Z"/>
      <path class="cls-2" d="M240.65,444c4.77,1.93,10,.93,13.68-2.17,2.49-2.09,3.79-5.27,3.67-8.52l-.94-25.68-19.48,21.86c-2.16,2.43-3.19,5.71-2.6,8.91,.12,.63,.28,1.25,.48,1.86,1.36,1.6,3.11,2.9,5.18,3.74h0Z"/>
      <circle class="cls-3" cx="238.72" cy="435.42" r="2.68"/>
      <circle class="cls-3" cx="240.82" cy="430.05" r="1.53"/>
    </g>
    <g>
      <path class="cls-12" d="M566.6,472.77l-3.41-29.28-.13,.15,.94,25.68c.12,3.25-1.18,6.43-3.67,8.52-3.68,3.1-8.91,4.1-13.68,2.17h0c-2.08-.84-3.83-2.14-5.18-3.74,1.32,3.93,4.43,7.19,8.68,8.54h0c4.91,1.55,10.04,.13,13.47-3.24,2.32-2.28,3.36-5.56,2.99-8.79Z"/>
      <path class="cls-2" d="M546.65,480c4.77,1.93,10,.93,13.68-2.17,2.49-2.09,3.79-5.27,3.67-8.52l-.94-25.68-19.48,21.86c-2.16,2.43-3.19,5.71-2.6,8.91,.12,.63,.28,1.25,.48,1.86,1.36,1.6,3.11,2.9,5.18,3.74h0Z"/>
      <circle class="cls-3" cx="544.72" cy="471.42" r="2.68"/>
      <circle class="cls-3" cx="546.82" cy="466.05" r="1.53"/>
    </g>
    <g>
      <path class="cls-12" d="M315.6,522.77l-3.41-29.28-.13,.15,.94,25.68c.12,3.25-1.18,6.43-3.67,8.52-3.68,3.1-8.91,4.1-13.68,2.17h0c-2.08-.84-3.83-2.14-5.18-3.74,1.32,3.93,4.43,7.19,8.68,8.54h0c4.91,1.55,10.04,.13,13.47-3.24,2.32-2.28,3.36-5.56,2.99-8.79Z"/>
      <path class="cls-2" d="M295.65,530c4.77,1.93,10,.93,13.68-2.17,2.49-2.09,3.79-5.27,3.67-8.52l-.94-25.68-19.48,21.86c-2.16,2.43-3.19,5.71-2.6,8.91,.12,.63,.28,1.25,.48,1.86,1.36,1.6,3.11,2.9,5.18,3.74h0Z"/>
      <circle class="cls-3" cx="293.72" cy="521.42" r="2.68"/>
      <circle class="cls-3" cx="295.82" cy="516.05" r="1.53"/>
    </g>
    <g>
      <path class="cls-12" d="M446.6,522.77l-3.41-29.28-.13,.15,.94,25.68c.12,3.25-1.18,6.43-3.67,8.52-3.68,3.1-8.91,4.1-13.68,2.17h0c-2.08-.84-3.83-2.14-5.18-3.74,1.32,3.93,4.43,7.19,8.68,8.54h0c4.91,1.55,10.04,.13,13.47-3.24,2.32-2.28,3.36-5.56,2.99-8.79Z"/>
      <path class="cls-2" d="M426.65,530c4.77,1.93,10,.93,13.68-2.17,2.49-2.09,3.79-5.27,3.67-8.52l-.94-25.68-19.48,21.86c-2.16,2.43-3.19,5.71-2.6,8.91,.12,.63,.28,1.25,.48,1.86,1.36,1.6,3.11,2.9,5.18,3.74h0Z"/>
      <circle class="cls-3" cx="424.72" cy="521.42" r="2.68"/>
      <circle class="cls-3" cx="426.82" cy="516.05" r="1.53"/>
    </g>
    <g>
      <path class="cls-12" d="M254.6,553.77l-3.41-29.28-.13,.15,.94,25.68c.12,3.25-1.18,6.43-3.67,8.52-3.68,3.1-8.91,4.1-13.68,2.17h0c-2.08-.84-3.83-2.14-5.18-3.74,1.32,3.93,4.43,7.19,8.68,8.54h0c4.91,1.55,10.04,.13,13.47-3.24,2.32-2.28,3.36-5.56,2.99-8.79Z"/>
      <path class="cls-2" d="M234.65,561c4.77,1.93,10,.93,13.68-2.17,2.49-2.09,3.79-5.27,3.67-8.52l-.94-25.68-19.48,21.86c-2.16,2.43-3.19,5.71-2.6,8.91,.12,.63,.28,1.25,.48,1.86,1.36,1.6,3.11,2.9,5.18,3.74h0Z"/>
      <circle class="cls-3" cx="232.72" cy="552.42" r="2.68"/>
      <circle class="cls-3" cx="234.82" cy="547.05" r="1.53"/>
    </g>
    <g>
      <path class="cls-12" d="M383.6,570.77l-3.41-29.28-.13,.15,.94,25.68c.12,3.25-1.18,6.43-3.67,8.52-3.68,3.1-8.91,4.1-13.68,2.17h0c-2.08-.84-3.83-2.14-5.18-3.74,1.32,3.93,4.43,7.19,8.68,8.54h0c4.91,1.55,10.04,.13,13.47-3.24,2.32-2.28,3.36-5.56,2.99-8.79Z"/>
      <path class="cls-2" d="M363.65,578c4.77,1.93,10,.93,13.68-2.17,2.49-2.09,3.79-5.27,3.67-8.52l-.94-25.68-19.48,21.86c-2.16,2.43-3.19,5.71-2.6,8.91,.12,.63,.28,1.25,.48,1.86,1.36,1.6,3.11,2.9,5.18,3.74h0Z"/>
      <circle class="cls-3" cx="361.72" cy="569.42" r="2.68"/>
      <circle class="cls-3" cx="363.82" cy="564.05" r="1.53"/>
    </g>
    <g>
      <path class="cls-12" d="M659.78,509.79l-3.41-29.28-.13,.15,.94,25.68c.12,3.25-1.18,6.43-3.67,8.52-3.68,3.1-8.91,4.1-13.68,2.17h0c-2.08-.84-3.83-2.14-5.18-3.74,1.32,3.93,4.43,7.19,8.68,8.54h0c4.91,1.55,10.04,.13,13.47-3.24,2.32-2.28,3.36-5.56,2.99-8.79Z"/>
      <path class="cls-2" d="M639.82,517.02c4.77,1.93,10,.93,13.68-2.17,2.49-2.09,3.79-5.27,3.67-8.52l-.94-25.68-19.48,21.86c-2.16,2.43-3.19,5.71-2.6,8.91,.12,.63,.28,1.25,.48,1.86,1.36,1.6,3.11,2.9,5.18,3.74h0Z"/>
      <circle class="cls-3" cx="637.89" cy="508.44" r="2.68"/>
      <circle class="cls-3" cx="639.99" cy="503.07" r="1.53"/>
    </g>
    <g>
      <path class="cls-12" d="M547.78,556.79l-3.41-29.28-.13,.15,.94,25.68c.12,3.25-1.18,6.43-3.67,8.52-3.68,3.1-8.91,4.1-13.68,2.17h0c-2.08-.84-3.83-2.14-5.18-3.74,1.32,3.93,4.43,7.19,8.68,8.54h0c4.91,1.55,10.04,.13,13.47-3.24,2.32-2.28,3.36-5.56,2.99-8.79Z"/>
      <path class="cls-2" d="M527.82,564.02c4.77,1.93,10,.93,13.68-2.17,2.49-2.09,3.79-5.27,3.67-8.52l-.94-25.68-19.48,21.86c-2.16,2.43-3.19,5.71-2.6,8.91,.12,.63,.28,1.25,.48,1.86,1.36,1.6,3.11,2.9,5.18,3.74h0Z"/>
      <circle class="cls-3" cx="525.89" cy="555.44" r="2.68"/>
      <circle class="cls-3" cx="527.99" cy="550.07" r="1.53"/>
    </g>
    <g>
      <path class="cls-12" d="M459.78,623.79l-3.41-29.28-.13,.15,.94,25.68c.12,3.25-1.18,6.43-3.67,8.52-3.68,3.1-8.91,4.1-13.68,2.17h0c-2.08-.84-3.83-2.14-5.18-3.74,1.32,3.93,4.43,7.19,8.68,8.54h0c4.91,1.55,10.04,.13,13.47-3.24,2.32-2.28,3.36-5.56,2.99-8.79Z"/>
      <path class="cls-2" d="M439.82,631.02c4.77,1.93,10,.93,13.68-2.17,2.49-2.09,3.79-5.27,3.67-8.52l-.94-25.68-19.48,21.86c-2.16,2.43-3.19,5.71-2.6,8.91,.12,.63,.28,1.25,.48,1.86,1.36,1.6,3.11,2.9,5.18,3.74h0Z"/>
      <circle class="cls-3" cx="437.89" cy="622.44" r="2.68"/>
      <circle class="cls-3" cx="439.99" cy="617.07" r="1.53"/>
    </g>
    <g>
      <path class="cls-12" d="M601.78,594.79l-3.41-29.28-.13,.15,.94,25.68c.12,3.25-1.18,6.43-3.67,8.52-3.68,3.1-8.91,4.1-13.68,2.17h0c-2.08-.84-3.83-2.14-5.18-3.74,1.32,3.93,4.43,7.19,8.68,8.54h0c4.91,1.55,10.04,.13,13.47-3.24,2.32-2.28,3.36-5.56,2.99-8.79Z"/>
      <path class="cls-2" d="M581.82,602.02c4.77,1.93,10,.93,13.68-2.17,2.49-2.09,3.79-5.27,3.67-8.52l-.94-25.68-19.48,21.86c-2.16,2.43-3.19,5.71-2.6,8.91,.12,.63,.28,1.25,.48,1.86,1.36,1.6,3.11,2.9,5.18,3.74h0Z"/>
      <circle class="cls-3" cx="579.89" cy="593.44" r="2.68"/>
      <circle class="cls-3" cx="581.99" cy="588.07" r="1.53"/>
    </g>
  </g>
  <text class="cls-4" transform="translate(338.23 802.49)"><tspan class="cls-10" x="0" y="0">R</tspan><tspan class="cls-5" x="106.8" y="0">a</tspan><tspan x="187.95" y="0">in</tspan></text>
  <text class="cls-1" transform="translate(442.68 902.19)"><tspan x="0" y="0">เรน</tspan></text>
</svg>