<?xml version="1.0" encoding="UTF-8"?>
<svg id="Saven" xmlns="http://www.w3.org/2000/svg" viewBox="0 0 1000 1000">
  <defs>
    <style>
      .cls-1 {
        font-family: MicrosoftSansSerif, 'Microsoft Sans Serif';
        font-size: 80px;
      }

      .cls-2 {
        fill: #db4b4b;
      }

      .cls-2, .cls-3 {
        stroke: #b23b3b;
        stroke-miterlimit: 10;
        stroke-width: 3px;
      }

      .cls-3 {
        fill: #fff;
      }

      .cls-4 {
        font-family: FreeSansBold, FreeSans;
        font-size: 150px;
      }

      .cls-5 {
        fill: #ad6060;
      }

      .cls-6 {
        letter-spacing: -.01em;
      }

      .cls-7 {
        letter-spacing: 0em;
      }

      .cls-8 {
        fill: #9b7575;
      }

      .cls-9 {
        fill: #7c5b5b;
      }

      .cls-10 {
        fill: red;
      }
    </style>
  </defs>
  <g>
    <path class="cls-2" d="M695.31,215.83c0,5.01-3.62,10.99-10.85,17.94-16.14,14.75-34.5,41.6-55.09,80.54-16.97,32.55-30.33,62.6-40.06,90.14-23.37,67.05-37.56,133.54-42.57,199.48-1.39,17.81-7.38,28.23-17.94,31.3-8.07,2.5-34.08,3.76-78.04,3.76-26.43,0-42.15-.28-47.16-.83-23.65-2.5-35.47-9.18-35.47-20.03,0-40.06,12.94-90.7,38.81-151.91,18.08-42.57,42.15-89.86,72.2-141.89,25.87-44.51,38.81-66.49,38.81-65.94,0-2.78-5.84-4.17-17.53-4.17-20.59,0-51.47,1.04-92.65,3.13-41.18,2.09-72.06,3.13-92.65,3.13-6.96,0-10.43-3.48-10.43-10.43,0-8.07,1.39-19.33,4.17-33.8,3.06-16.97,4.86-28.23,5.43-33.8,1.11-12.52,1.67-33.39,1.67-62.6,0-7.23,6.26-10.85,18.78-10.85,11.69,0,26.85,.98,45.49,2.92,25.59,2.78,40.9,4.32,45.91,4.59,47.85,3.62,129.92,5.43,246.22,5.43,12.52,0,19.33,6.54,20.45,19.61,1.67,19.76,2.5,44.52,2.5,74.28Z"/>
    <g>
      <path class="cls-3" d="M592.44,114.36c-5.04-15.54-15.16-27.86-31.57-27.86-25.13,0-45.5,20.37-45.5,45.5s10.87,40.5,36,40.5c13.93,0,26.24-2.12,34.45-8.28-2.21-5.12-3.45-11.03-3.45-17.72,0-10.97,3.86-22.37,10.07-32.14Z"/>
      <path class="cls-3" d="M631.87,88.5c-15.15,0-30.01,11.04-39.43,25.86-6.21,9.77-10.07,21.17-10.07,32.14,0,6.69,1.23,12.6,3.45,17.72,6.92,16.02,23.51,24.28,42.55,24.28,25.13,0,46-24.39,46-52s-17.37-48-42.5-48Z"/>
    </g>
    <g>
      <path class="cls-8" d="M641.37,66.5c4.15-4.02,5.94-7.26,9.28-11.98,.34-.49,.8-1.03,1.39-.99,.31,.02,.59,.22,.84,.4,5.02,3.68,9.86,7.59,14.51,11.74,7.31,6.53,14.48,14.31,15.92,24.01-11.01-11.2-26.64-19.66-41.94-23.19"/>
      <path class="cls-9" d="M642.44,67.56c2.77-2.72,5.06-5.79,7.24-8.99,.58-.86,1.17-1.71,1.76-2.56,.13-.18,.25-.37,.38-.55,.08-.1,.62-.56,.21-.43-.33,.1,0,.03,.1,.2,.16,.27,.69,.51,.94,.69,1.83,1.36,3.64,2.75,5.43,4.18,6.55,5.25,13.39,10.86,18.23,17.8,2.57,3.68,4.44,7.72,5.14,12.18l2.51-1.46c-11.49-11.63-26.71-19.87-42.6-23.57-1.88-.44-2.68,2.45-.8,2.89,15.42,3.59,30.13,11.52,41.28,22.8,1.14,1.15,2.73-.07,2.51-1.46-1.37-8.75-7.11-15.95-13.32-21.92-3.5-3.36-7.21-6.51-11-9.53-1.98-1.59-4-3.13-6.04-4.64-.78-.58-1.5-1.18-2.52-1.14-1.14,.04-1.89,.85-2.52,1.71-2.94,4.02-5.47,8.17-9.05,11.68-1.38,1.35,.74,3.47,2.12,2.12h0Z"/>
    </g>
    <g>
      <path class="cls-8" d="M585.37,45.5c.52,5.65,1.1,11.3-.69,16.68-2.36,0-4.72,0-7.08,.01-2.63,0-5.28,0-7.87,.43-2.52,.41-4.97,1.2-7.4,1.99-8.07,2.62-16.14,5.24-24.21,7.86,1.68-6.05,6.63-10.56,11.46-14.57,2.24-1.86,4.52-3.7,7-5.23,8.16-5.03,19.3-5.91,28.8-7.15"/>
      <path class="cls-9" d="M583.87,45.5c.5,5.44,1.06,10.98-.64,16.28l1.45-1.1c-3.9,0-7.83-.12-11.73,.1s-7.72,1.31-11.5,2.53c-7.91,2.57-15.82,5.13-23.73,7.7l1.85,1.85c2.01-6.92,8.3-11.83,13.75-16.09,2.97-2.32,6.15-4.25,9.7-5.53,3.33-1.21,6.81-1.99,10.3-2.59,4-.69,8.04-1.13,12.07-1.65,.81-.11,1.49-.61,1.5-1.5,0-.73-.7-1.6-1.5-1.5-7.58,.99-15.33,1.63-22.6,4.14-3.69,1.28-7.06,3.08-10.19,5.43s-6.38,5-9.21,7.85c-2.99,3.02-5.52,6.51-6.72,10.64-.31,1.07,.75,2.2,1.85,1.85,7.75-2.52,15.51-5.03,23.26-7.55,3.67-1.19,7.29-2.36,11.18-2.58s7.83-.1,11.73-.1c.68,0,1.24-.47,1.45-1.1,1.78-5.56,1.28-11.36,.75-17.07-.18-1.91-3.18-1.92-3,0h0Z"/>
    </g>
    <circle cx="566.37" cy="136.5" r="7"/>
    <circle cx="630.87" cy="147" r="8"/>
    <g>
      <path d="M558.83,235.54c6.35,3.78,13.62,5.74,20.99,5.92,1.93,.05,1.93-2.95,0-3-6.86-.17-13.57-2-19.48-5.51-1.66-.99-3.17,1.6-1.51,2.59h0Z"/>
      <path d="M607.85,224.36c2.96-4.51,5.1-9.56,6.14-14.86,.16-.79-.23-1.62-1.05-1.85-.74-.2-1.69,.25-1.85,1.05-1,5.07-3.01,9.82-5.84,14.14-1.06,1.62,1.54,3.12,2.59,1.51h0Z"/>
      <path d="M590.13,234.55c-5.42,2.42-11.38,3.53-17.31,3.41l-.53,.3c1.7,2.74,2.11,6.08,2.3,9.31,.85,14.09-3.26,27.71-8.22,40.93,9-12.15,25.22-21.82,40-25,.38-1.72,.71-3.53,.94-5.25,1.85-13.5,1.34-25.26,.23-38.65-4.27,6.48-10.33,11.79-17.42,14.95Z"/>
      <path class="cls-5" d="M593.1,285.33c7.5-4.63,11.36-13.06,13.27-21.83-14.78,3.18-31,12.85-40,25,8.8,1.5,19.14,1.51,26.73-3.17Z"/>
    </g>
  </g>
  <text class="cls-4" transform="translate(284.9 803.1)"><tspan class="cls-10" x="0" y="0">S</tspan><tspan class="cls-6" x="100.05" y="0">eve</tspan><tspan class="cls-7" x="343.5" y="0">n</tspan></text>
  <text class="cls-1" transform="translate(381.84 902.11)"><tspan x="0" y="0">เซฟเวิน</tspan></text>
</svg>