<?xml version="1.0" encoding="UTF-8"?>
<svg id="Star" xmlns="http://www.w3.org/2000/svg" viewBox="0 0 1000 1000">
  <defs>
    <style>
      .cls-1 {
        fill: #ff9e03;
      }

      .cls-2 {
        font-family: MicrosoftSansSerif, 'Microsoft Sans Serif';
        font-size: 80px;
      }

      .cls-3 {
        fill: #ffb243;
      }

      .cls-4 {
        font-family: FreeSansBold, FreeSans;
        font-size: 150px;
      }

      .cls-5 {
        fill: red;
      }

      .cls-5, .cls-6 {
        letter-spacing: 0em;
      }

      .cls-7 {
        fill: #e08205;
      }
    </style>
  </defs>
  <g>
    <path class="cls-1" d="M509.1,46.65l89.82,181.99c1.48,2.99,4.33,5.07,7.64,5.55l200.84,29.18c8.32,1.21,11.64,11.43,5.62,17.3l-145.33,141.66c-2.39,2.33-3.48,5.69-2.92,8.98l34.31,200.03c1.42,8.29-7.28,14.61-14.72,10.69l-179.64-94.44c-2.96-1.55-6.49-1.55-9.44,0l-179.64,94.44c-7.44,3.91-16.14-2.41-14.72-10.69l34.31-200.03c.56-3.29-.53-6.65-2.92-8.98l-145.33-141.66c-6.02-5.87-2.7-16.09,5.62-17.3l200.84-29.18c3.3-.48,6.16-2.56,7.64-5.55L490.9,46.65c3.72-7.54,14.47-7.54,18.19,0Z"/>
    <path class="cls-3" d="M500,88.69l-80.04,155.03c-4.2,8.13-12.26,13.56-21.37,14.39l-173.79,15.86,183.61,8.59c11.66,.55,22.33-6.52,26.38-17.47l65.21-176.4Z"/>
    <path class="cls-7" d="M304.87,608.33l-3.95,23.02c-1.42,8.29,7.28,14.61,14.72,10.69l179.64-94.44c2.96-1.55,6.49-1.55,9.44,0l179.64,94.44c7.44,3.91,16.14-2.41,14.72-10.69l-34.31-200.03c-.56-3.29,.53-6.65,2.92-8.98l145.33-141.66c6.02-5.87,2.7-16.09-5.62-17.3l-67.27-9.77c-108.8,195.26-275.41,298.06-435.25,354.73Z"/>
  </g>
  <text class="cls-4" transform="translate(355.4 802.4)"><tspan class="cls-5" x="0" y="0">S</tspan><tspan class="cls-6" x="98.55" y="0">ta</tspan><tspan x="228.9" y="0">r</tspan></text>
  <text class="cls-2" transform="translate(417.25 902.28)"><tspan x="0" y="0">สทาร์</tspan></text>
</svg>