<?xml version="1.0" encoding="UTF-8"?>
<svg id="Texi" xmlns="http://www.w3.org/2000/svg" viewBox="0 0 1000 1000">
  <defs>
    <style>
      .cls-1 {
        font-family: MicrosoftSansSerif, 'Microsoft Sans Serif';
        font-size: 80px;
      }

      .cls-2 {
        fill: #a8bbd2;
      }

      .cls-2, .cls-3, .cls-4, .cls-5, .cls-6, .cls-7, .cls-8, .cls-9, .cls-10, .cls-11, .cls-12 {
        stroke-miterlimit: 10;
        stroke-width: 3px;
      }

      .cls-2, .cls-9, .cls-10, .cls-11 {
        stroke: #282828;
      }

      .cls-3 {
        fill: #fff2e4;
      }

      .cls-3, .cls-4, .cls-6, .cls-7, .cls-12 {
        stroke: #bc932e;
      }

      .cls-4 {
        fill: #f2c543;
      }

      .cls-13 {
        fill: #565656;
      }

      .cls-14 {
        fill: red;
        letter-spacing: -.04em;
      }

      .cls-15 {
        font-family: FreeSansBold, FreeSans;
        font-size: 150px;
      }

      .cls-16, .cls-12 {
        fill: #f5b036;
      }

      .cls-5 {
        stroke: #2b2329;
      }

      .cls-5, .cls-17 {
        fill: #342730;
      }

      .cls-6 {
        fill: #bedaff;
      }

      .cls-18 {
        letter-spacing: -.03em;
      }

      .cls-7 {
        fill: none;
      }

      .cls-19 {
        letter-spacing: -.01em;
      }

      .cls-8 {
        fill: #f9f8e8;
        stroke: #bcb206;
      }

      .cls-20 {
        fill: #f0f6fc;
      }

      .cls-9 {
        fill: #666563;
      }

      .cls-10 {
        fill: #8894a9;
      }

      .cls-11 {
        fill: #454442;
      }
    </style>
  </defs>
  <g>
    <g>
      <path class="cls-11" d="M554.39,469.65s19.65,61.23,41.48,63.47c21.83,2.24,42.58,2.61,42.58,2.61l-14.56-66.46-69.5,.37Z"/>
      <path class="cls-9" d="M592.24,483.83s8.01,44.8,26.2,49.28c18.19,4.48,26.2,3.73,36.39-2.24,10.19-5.97,28.38-34.35,32.02-48.54,3.64-14.19-94.61,1.49-94.61,1.49Z"/>
      <path class="cls-11" d="M614.07,491.3s1.46,20.91,13.1,23.15c11.64,2.24,20.38,3.73,26.93-8.21,6.55-11.95,7.28-17.17,7.28-17.17l-47.31,2.24Z"/>
      <path class="cls-11" d="M110.44,470.02s19.65,61.23,41.48,63.47c21.83,2.24,42.58,2.61,42.58,2.61l-14.56-66.46-69.5,.37Z"/>
      <path class="cls-9" d="M148.29,484.21s8.01,44.8,26.2,49.28c18.19,4.48,26.2,3.73,36.39-2.24,10.19-5.97,28.38-34.35,32.02-48.54s-94.61,1.49-94.61,1.49Z"/>
      <path class="cls-11" d="M170.12,491.67s1.46,20.91,13.1,23.15c11.64,2.24,20.38,3.73,26.93-8.21,6.55-11.95,7.28-17.17,7.28-17.17l-47.31,2.24Z"/>
      <path class="cls-11" d="M345.52,477.11s21.83,47.79,36.39,52.27,53.13,6.72,53.13,6.72l5.82-104.54-25.47-63.47-89.52,59.74,19.65,49.28Z"/>
      <path class="cls-9" d="M388.46,404.68s-9.46,5.23-13.1,25.39c-3.64,20.16-2.18,60.48,23.29,88.86,25.47,28.38,53.86,17.92,64.77,0s19.65-23.89,21.11-64.96c1.46-41.07-21.83-78.41-43.67-82.89-21.83-4.48-52.4,33.6-52.4,33.6Z"/>
      <path class="cls-10" d="M443.04,414.39s27.66,26.14,18.19,67.95c-9.46,41.82-42.94,45.55-58.22,12.69-15.28-32.86,.73-73.18,10.92-79.15,10.19-5.97,22.56-5.97,29.11-1.49Z"/>
      <path class="cls-2" d="M423.39,448.74c.69-.24,14.56,5.97,13.1,18.67-1.46,12.69-16.01,16.43-18.92,7.47-2.91-8.96-2.91-23.15,5.82-26.14Z"/>
      <path class="cls-11" d="M761.08,478.61s21.83,47.79,36.39,52.27,53.13,6.72,53.13,6.72l5.82-104.54-25.47-63.47-89.52,59.74,19.65,49.28Z"/>
      <path class="cls-9" d="M804.02,406.18s-9.46,5.23-13.1,25.39-2.18,60.48,23.29,88.86c25.47,28.38,53.86,17.92,64.77,0,10.92-17.92,19.65-23.89,21.11-64.96,1.46-41.07-21.83-78.41-43.67-82.89-21.83-4.48-52.4,33.6-52.4,33.6Z"/>
      <path class="cls-10" d="M858.6,415.88s27.66,26.14,18.19,67.95c-9.46,41.82-42.94,45.55-58.22,12.69-15.28-32.86,.73-73.18,10.92-79.15,10.19-5.97,22.56-5.97,29.11-1.49Z"/>
      <path class="cls-2" d="M838.95,450.23c.69-.24,14.56,5.97,13.1,18.67-1.46,12.69-16.01,16.43-18.92,7.47-2.91-8.96-2.91-23.15,5.82-26.14Z"/>
    </g>
    <path class="cls-13" d="M788.47,459.45c.26-3.24,9-42.07,34.47-51.78,25.47-9.71,51.67-2.24,56.04,0s32.75,41.82,32.75,38.83,2.91-76.91-48.03-83.63c-50.94-6.72-95.34,23.15-95.34,23.15l13.1,77.66,7.02-4.23Z"/>
    <path class="cls-13" d="M374.37,455.71c.26-3.24,9-42.07,34.47-51.78,25.47-9.71,51.67-2.24,56.04,0,4.37,2.24,32.75,41.82,32.75,38.83s2.91-76.91-48.03-83.63c-50.94-6.72-95.34,23.15-95.34,23.15l13.1,77.66,7.02-4.23Z"/>
    <path class="cls-4" d="M296.75,294.92s-.73-11.2-13.83-13.44-38.57-.75-41.48,2.24-3.64,21.65,1.46,25.39,30.57,2.24,30.57,2.24l23.29-16.43Z"/>
    <path class="cls-4" d="M72.6,499.51H378.99s-7.28-70.19,10.92-91.1c18.19-20.91,44.39-35.1,78.6-2.99,0,0,22.56,44.06,11.64,94.09h308.58s-8.73-79.15,25.47-98.57c34.21-19.41,61.13-18.67,79.33,20.16,18.19,38.83,8.01,78.41,8.01,78.41h25.47s14.56-115.74-27.66-147.1l-42.21-31.36s-48.03-75.42-115.72-103.05c-67.68-27.63-296.21-19.41-327.5-11.2-31.29,8.21-144.1,108.27-174.67,118.73s-102.62,11.95-131.73,35.84c-29.11,23.89-35.66,34.35-34.93,138.14Z"/>
    <path class="cls-16" d="M104.62,374.81c7.63-2.47,109.17,.75,127.36,0,18.19-.75,68.41,2.99,80.06,2.24s58.22-2.99,62.59-1.49-24.74,33.6-26.2,64.22c-1.46,30.62,1.46,54.51,.73,55.26s-268.55-.75-271.46,0-.73-111.26,26.93-120.22Z"/>
    <path class="cls-16" d="M463.42,374.07c4.37,2.99,29.84,27.63,34.93,60.48,5.09,32.86-6.55,58.24,2.91,58.24h272.19s2.18-88.86,29.11-103.05c26.93-14.19,50.94-11.95,61.86-9.71,10.92,2.24,36.39,38.08,39.3,44.06,2.91,5.97,5.09,48.54,10.19,53.76,5.09,5.23,9.46-25.39,5.82-50.78-3.64-25.39-5.09-50.03-18.92-56.75-13.83-6.72-437.4,3.73-437.4,3.73Z"/>
    <g>
      <rect class="cls-17" x="515.45" y="391.61" width="25.47" height="26.14" transform="translate(1056.38 809.36) rotate(180)"/>
      <rect class="cls-17" x="572.95" y="391.61" width="25.47" height="26.14" transform="translate(1171.37 809.36) rotate(180)"/>
      <rect class="cls-17" x="628.99" y="391.61" width="25.47" height="26.14" transform="translate(1283.45 809.36) rotate(180)"/>
      <rect class="cls-17" x="745.43" y="391.61" width="25.47" height="26.14" transform="translate(1516.34 809.36) rotate(180)"/>
      <rect class="cls-17" x="687.21" y="391.61" width="25.47" height="26.14" transform="translate(1399.89 809.36) rotate(180)"/>
      <rect class="cls-17" x="543.84" y="421.48" width="25.47" height="26.14" transform="translate(1113.15 869.1) rotate(180)"/>
      <rect class="cls-17" x="600.6" y="421.48" width="25.47" height="26.14" transform="translate(1226.68 869.1) rotate(180)"/>
      <rect class="cls-17" x="658.1" y="421.48" width="25.47" height="26.14" transform="translate(1341.67 869.1) rotate(180)"/>
      <rect class="cls-17" x="715.59" y="421.48" width="25.47" height="26.14" transform="translate(1456.66 869.1) rotate(180)"/>
    </g>
    <path class="cls-17" d="M241.08,391.61h-97.52c-3.64,0-10.19,2.99-8.73,16.43s2.18,28.38,12.37,28.38h92.43s8.01-2.24,9.46-15.68,2.91-29.12-8.01-29.12Z"/>
    <path class="cls-3" d="M270.92,430.44s-.73-29.12,4.37-34.35,48.76-7.47,69.14-4.48c20.38,2.99-1.46,41.82-5.82,43.31-4.37,1.49-64.05,2.99-66.23,1.49s-1.46-5.97-1.46-5.97Z"/>
    <path class="cls-3" d="M80.97,391.61c2.62-1.5,20.38-1.49,25.47,0s10.19,29.12,8.73,35.84c-1.46,6.72-8.01,11.2-18.19,9.71-10.19-1.49-27.66-2.24-27.66-2.24,0,0,5.09-39.58,11.64-43.31Z"/>
    <path class="cls-17" d="M268.73,451.35c-1.84-5.67-146.28-1.49-149.2,0-2.91,1.49,2.91,20.16,12.37,20.16h127.36c1.46,0,13.83-6.72,9.46-20.16Z"/>
    <path class="cls-8" d="M292.02,448.36c1.21-1.12,12.37-5.97,19.65,8.21,7.28,14.19-13.83,20.16-19.65,14.93-5.82-5.23-7.28-16.43,0-23.15Z"/>
    <path class="cls-8" d="M84.61,449.86c1.21-1.12,12.37-5.97,19.65,8.21,7.28,14.19-13.83,20.16-19.65,14.93s-7.28-16.43,0-23.15Z"/>
    <path class="cls-6" d="M542.38,220.62s-83.7,99.31-94.61,104.54-206.39,1.71-205.09-1.01c1.31-2.72,132.59-96.83,147.37-105.03,14.78-8.2,166.88-7.46,152.33,1.51Z"/>
    <path class="cls-6" d="M560.58,219.12s-95.34,102.3-91.7,103.79,185.58,2.99,189.22,0c3.64-2.99,3.64-103.05,0-103.79-3.64-.75-92.43-2.24-97.52,0Z"/>
    <path class="cls-6" d="M670.47,219.87s-1.46,103.79,2.18,103.79,165.93,7.47,165.21,.75c-.73-6.72-63.32-84.38-109.9-94.83-46.58-10.45-55.31-11.95-57.49-9.71Z"/>
    <path class="cls-4" d="M488.89,327.77s28.38-38.83,34.93-42.56,47.31-5.23,52.4-2.24c5.09,2.99,14.56,22.4-2.91,27.63-17.47,5.23-50.22,5.23-51.67-.75-1.46-5.97-21.83,21.65-24.74,21.65s-10.19,0-8.01-3.73Z"/>
    <path class="cls-7" d="M639.54,483.09c36.39-19.41,22.93-104.91,24.38-121.34,1.46-16.43,2.91-148.6-2.91-148.6"/>
    <path class="cls-7" d="M847.69,321.8c2.18,.75,20.74,19.79,9.1,36.22s-40.03,4.48-61.86,25.39c-21.83,20.91-21.83,55.26-23.29,66.46-1.46,11.2-10.92,35.1-30.57,36.59"/>
    <path class="cls-5" d="M801.84,349.43s-33.48-4.48-35.66-1.49c-2.18,2.99-5.09,5.23,0,5.23s36.39,.75,37.84,0-2.18-3.73-2.18-3.73Z"/>
    <path class="cls-5" d="M649.73,349.43s-33.48-4.48-35.66-1.49c-2.18,2.99-5.09,5.23,0,5.23s36.39,.75,37.84,0-2.18-3.73-2.18-3.73Z"/>
    <path class="cls-20" d="M274.19,322.54l43.67,2.24s119.36-96.33,133.18-106.78l2.91-1.49s-42.94,.75-48.76,2.24c-5.82,1.49-131,103.79-131,103.79Z"/>
    <polygon class="cls-20" points="328.51 324.4 363.28 325.11 490.3 216.54 456.95 216.54 328.51 324.4"/>
    <path class="cls-4" d="M630.37,145.54s-150.21,.78-153.12,2.28-20.38,49.28-20.38,49.28l158.66,1.49,12.37-25.39,2.47-27.67Z"/>
    <path class="cls-12" d="M675.93,203.07s-5.82-8.96-16.74-9.71c0,0-10.92-46.3-15.28-47.04s-15.28-1.49-16.74,0-13.83,48.54-13.83,48.54c0,0-152.83-2.24-157.2,0s-18.92,8.21-5.82,8.21,205.96,2.24,225.61,0Z"/>
    <polygon points="585.32 160.88 585.32 187.76 575.86 187.76 575.13 160.88 567.13 160.88 567.13 154.16 594.78 154.16 594.78 161.63 585.32 160.88"/>
    <path d="M549.66,154.16h8.01s12.37,32.86,12.37,33.6h-8.01l-1.46-5.23-10.92-.75-2.91,5.97h-8.73l11.64-33.6Zm9.46,20.91l-3.64-11.2h-2.18l-3.64,11.2h9.46Z"/>
    <polygon points="537.29 187.76 527.1 172.08 539.47 154.16 530.01 154.16 523.46 163.87 516.18 154.16 508.18 154.16 517.64 172.08 508.18 187.76 516.91 187.76 522.73 176.56 528.55 187.76 537.29 187.76"/>
    <rect x="495.08" y="154.16" width="8.73" height="33.6"/>
  </g>
  <text class="cls-15" transform="translate(360.95 802.21)"><tspan class="cls-14" x="0" y="0">T</tspan><tspan class="cls-19" x="85.65" y="0">a</tspan><tspan class="cls-18" x="166.8" y="0">x</tspan><tspan x="244.95" y="0">i</tspan></text>
  <text class="cls-1" transform="translate(406.33 902.91)"><tspan x="0" y="0">แทคซี</tspan></text>
</svg>