<?xml version="1.0" encoding="UTF-8" standalone="no"?>
<!-- Created with Inkscape (http://www.inkscape.org/) -->

<svg
   xmlns:dc="http://purl.org/dc/elements/1.1/"
   xmlns:cc="http://creativecommons.org/ns#"
   xmlns:rdf="http://www.w3.org/1999/02/22-rdf-syntax-ns#"
   xmlns:svg="http://www.w3.org/2000/svg"
   xmlns="http://www.w3.org/2000/svg"
   xmlns:sodipodi="http://sodipodi.sourceforge.net/DTD/sodipodi-0.dtd"
   xmlns:inkscape="http://www.inkscape.org/namespaces/inkscape"
   width="1000"
   height="1000"
   viewBox="0 0 264.58333 264.58334"
   version="1.1"
   id="svg2383"
   inkscape:version="0.92.5 (2060ec1f9f, 2020-04-08)"
   sodipodi:docname="front.svg"
   enable-background="new">
  <defs
     id="defs2377">
    <clipPath
       clipPathUnits="userSpaceOnUse"
       id="clipPath354">
      <path
         d="m 31307.7,14127.1 c -0.1,0 -0.1,0 -0.2,0 -609.8,0 -1203.1,260.3 -1614.8,726.2 v 0 c 411.7,-465.9 1005,-726.2 1614.8,-726.2 0.1,0 0.1,0 0.2,0 164.1,0 329.4,18.8 492.7,57.6 v 0 c -163.3,-38.8 -328.6,-57.6 -492.7,-57.6"
         id="path352"
         inkscape:connector-curvature="0" />
    </clipPath>
    <clipPath
       clipPathUnits="userSpaceOnUse"
       id="clipPath1664">
      <path
         d="M 9698.17,8491.28 7200.76,7969.5 c -86.98,172.77 -134.15,299.46 -12.67,473.38 l 2497.04,535.6 c -27.86,-156.16 -22.4,-347.1 13.04,-487.2 z"
         id="path1662"
         inkscape:connector-curvature="0" />
    </clipPath>
    <clipPath
       clipPathUnits="userSpaceOnUse"
       id="clipPath304">
      <path
         d="m 20986,8431.61 -2472.3,-630.05 c -94.4,168.82 -215.5,1863.91 -101.7,2042.96 l 2471.3,643.78 c -21,-157.2 61.2,-1918.28 102.7,-2056.69 z"
         id="path302"
         inkscape:connector-curvature="0" />
    </clipPath>
  </defs>
  <sodipodi:namedview
     id="base"
     pagecolor="#ffffff"
     bordercolor="#666666"
     borderopacity="1.0"
     inkscape:pageopacity="0.0"
     inkscape:pageshadow="2"
     inkscape:zoom="0.70710678"
     inkscape:cx="467.13112"
     inkscape:cy="478.64603"
     inkscape:document-units="px"
     inkscape:current-layer="layer1"
     showgrid="false"
     units="px"
     inkscape:window-width="1920"
     inkscape:window-height="1031"
     inkscape:window-x="0"
     inkscape:window-y="25"
     inkscape:window-maximized="1"
     showguides="true"
     inkscape:lockguides="true"
     inkscape:object-nodes="false"
     inkscape:snap-nodes="false"
     inkscape:snap-others="false" />
  <metadata
     id="metadata2380">
    <rdf:RDF>
      <cc:Work
         rdf:about="">
        <dc:format>image/svg+xml</dc:format>
        <dc:type
           rdf:resource="http://purl.org/dc/dcmitype/StillImage" />
        <dc:title></dc:title>
      </cc:Work>
    </rdf:RDF>
  </metadata>
  <g
     inkscape:groupmode="layer"
     id="layer3"
     inkscape:label="Layer 2" />
  <g
     inkscape:groupmode="layer"
     id="layer2"
     inkscape:label="Layer 3" />
  <g
     inkscape:label="Layer 1"
     inkscape:groupmode="layer"
     id="layer1"
     transform="translate(0,-32.41665)">
    <text
       xml:space="preserve"
       style="font-style:normal;font-variant:normal;font-weight:bold;font-stretch:normal;font-size:10.58333302px;line-height:1.25;font-family:sans-serif;-inkscape-font-specification:'sans-serif Bold';letter-spacing:0px;word-spacing:0px;fill:#000000;fill-opacity:1;stroke:none;stroke-width:0.26458332"
       x="150.05655"
       y="89.869026"
       id="text8811" />
    <text
       xml:space="preserve"
       style="font-style:normal;font-variant:normal;font-weight:bold;font-stretch:normal;font-size:10.58333302px;line-height:1.25;font-family:sans-serif;-inkscape-font-specification:'sans-serif Bold';letter-spacing:0px;word-spacing:0px;fill:#000000;fill-opacity:1;stroke:none;stroke-width:0.26458332"
       x="160.63989"
       y="97.806526"
       id="text8815" />
    <text
       xml:space="preserve"
       style="font-style:normal;font-variant:normal;font-weight:bold;font-stretch:normal;font-size:10.58333302px;line-height:1.25;font-family:sans-serif;-inkscape-font-specification:'sans-serif Bold';letter-spacing:0px;word-spacing:0px;fill:#000000;fill-opacity:1;stroke:none;stroke-width:0.26458332"
       x="156.86011"
       y="88.7351"
       id="text8819" />
    <flowRoot
       xml:space="preserve"
       id="flowRoot8821"
       style="font-style:normal;font-variant:normal;font-weight:bold;font-stretch:normal;font-size:40px;line-height:1.25;font-family:sans-serif;-inkscape-font-specification:'sans-serif Bold';letter-spacing:0px;word-spacing:0px;fill:#000000;fill-opacity:1;stroke:none"><flowRegion
         id="flowRegion8823"
         style="font-style:normal;font-variant:normal;font-weight:bold;font-stretch:normal;font-family:sans-serif;-inkscape-font-specification:'sans-serif Bold'" /><flowPara
         id="flowPara8827" /></flowRoot>    <flowRoot
       xml:space="preserve"
       id="flowRoot8829"
       style="font-style:normal;font-variant:normal;font-weight:bold;font-stretch:normal;font-size:40px;line-height:1.25;font-family:sans-serif;-inkscape-font-specification:'sans-serif Bold';letter-spacing:0px;word-spacing:0px;fill:#000000;fill-opacity:1;stroke:none"><flowRegion
         id="flowRegion8831"
         style="font-style:normal;font-variant:normal;font-weight:bold;font-stretch:normal;font-family:sans-serif;-inkscape-font-specification:'sans-serif Bold'" /><flowPara
         id="flowPara8835" /></flowRoot>    <flowRoot
       xml:space="preserve"
       id="flowRoot8837"
       style="font-style:normal;font-variant:normal;font-weight:bold;font-stretch:normal;font-size:40px;line-height:1.25;font-family:sans-serif;-inkscape-font-specification:'sans-serif Bold';letter-spacing:0px;word-spacing:0px;fill:#000000;fill-opacity:1;stroke:none"><flowRegion
         id="flowRegion8839"
         style="font-style:normal;font-variant:normal;font-weight:bold;font-stretch:normal;font-family:sans-serif;-inkscape-font-specification:'sans-serif Bold'" /><flowPara
         id="flowPara8843" /></flowRoot>    <text
       xml:space="preserve"
       style="font-style:normal;font-variant:normal;font-weight:bold;font-stretch:normal;font-size:10.58333302px;line-height:1.25;font-family:sans-serif;-inkscape-font-specification:'sans-serif Bold';letter-spacing:0px;word-spacing:0px;fill:#000000;fill-opacity:1;stroke:none;stroke-width:0.26458332"
       x="209.39882"
       y="107.25594"
       id="text8847" />
    <flowRoot
       xml:space="preserve"
       id="flowRoot8849"
       style="font-style:normal;font-variant:normal;font-weight:bold;font-stretch:normal;font-size:40px;line-height:1.25;font-family:sans-serif;-inkscape-font-specification:'sans-serif Bold';letter-spacing:0px;word-spacing:0px;fill:#000000;fill-opacity:1;stroke:none"><flowRegion
         id="flowRegion8851"
         style="font-style:normal;font-variant:normal;font-weight:bold;font-stretch:normal;font-family:sans-serif;-inkscape-font-specification:'sans-serif Bold'" /><flowPara
         id="flowPara8855" /></flowRoot>    <flowRoot
       xml:space="preserve"
       id="flowRoot8857"
       style="font-style:normal;font-variant:normal;font-weight:bold;font-stretch:normal;font-size:40px;line-height:1.25;font-family:sans-serif;-inkscape-font-specification:'sans-serif Bold';letter-spacing:0px;word-spacing:0px;fill:#000000;fill-opacity:1;stroke:none"><flowRegion
         id="flowRegion8859"
         style="font-style:normal;font-variant:normal;font-weight:bold;font-stretch:normal;font-family:sans-serif;-inkscape-font-specification:'sans-serif Bold'" /><flowPara
         id="flowPara8863" /></flowRoot>    <flowRoot
       xml:space="preserve"
       id="flowRoot8865"
       style="font-style:normal;font-variant:normal;font-weight:bold;font-stretch:normal;font-size:40px;line-height:1.25;font-family:sans-serif;-inkscape-font-specification:'sans-serif Bold';letter-spacing:0px;word-spacing:0px;fill:#000000;fill-opacity:1;stroke:none"><flowRegion
         id="flowRegion8867"
         style="font-style:normal;font-variant:normal;font-weight:bold;font-stretch:normal;font-family:sans-serif;-inkscape-font-specification:'sans-serif Bold'" /><flowPara
         id="flowPara8871" /></flowRoot>    <flowRoot
       xml:space="preserve"
       id="flowRoot8873"
       style="font-style:normal;font-variant:normal;font-weight:bold;font-stretch:normal;font-size:40px;line-height:1.25;font-family:sans-serif;-inkscape-font-specification:'sans-serif Bold';letter-spacing:0px;word-spacing:0px;fill:#000000;fill-opacity:1;stroke:none"><flowRegion
         id="flowRegion8875"
         style="font-style:normal;font-variant:normal;font-weight:bold;font-stretch:normal;font-family:sans-serif;-inkscape-font-specification:'sans-serif Bold'" /><flowPara
         id="flowPara8879" /></flowRoot>    <text
       xml:space="preserve"
       style="font-style:normal;font-weight:normal;font-size:10.58333302px;line-height:1.25;font-family:sans-serif;letter-spacing:0px;word-spacing:0px;fill:#000000;fill-opacity:1;stroke:none;stroke-width:0.26458332"
       x="101.02788"
       y="69.125984"
       id="text977"><tspan
         sodipodi:role="line"
         id="tspan975"
         x="101.02788"
         y="78.489754"
         style="stroke-width:0.26458332" /><tspan
         sodipodi:role="line"
         x="101.02788"
         y="91.718918"
         style="stroke-width:0.26458332"
         id="tspan979" /><tspan
         sodipodi:role="line"
         x="101.02788"
         y="104.94809"
         style="stroke-width:0.26458332"
         id="tspan981" /><tspan
         sodipodi:role="line"
         x="101.02788"
         y="118.17725"
         style="stroke-width:0.26458332"
         id="tspan983" /><tspan
         sodipodi:role="line"
         x="101.02788"
         y="131.40642"
         style="stroke-width:0.26458332"
         id="tspan985" /><tspan
         sodipodi:role="line"
         x="101.02788"
         y="144.63559"
         style="stroke-width:0.26458332"
         id="tspan987" /><tspan
         sodipodi:role="line"
         x="101.02788"
         y="157.86475"
         style="stroke-width:0.26458332"
         id="tspan989" /><tspan
         sodipodi:role="line"
         x="101.02788"
         y="171.09392"
         style="stroke-width:0.26458332"
         id="tspan991" /><tspan
         sodipodi:role="line"
         x="101.02788"
         y="184.32309"
         style="stroke-width:0.26458332"
         id="tspan993" /><tspan
         sodipodi:role="line"
         x="101.02788"
         y="197.55225"
         style="stroke-width:0.26458332"
         id="tspan995" /><tspan
         sodipodi:role="line"
         x="101.02788"
         y="210.78142"
         style="stroke-width:0.26458332"
         id="tspan997" /><tspan
         sodipodi:role="line"
         x="101.02788"
         y="224.01059"
         style="stroke-width:0.26458332"
         id="tspan999" /><tspan
         sodipodi:role="line"
         x="101.02788"
         y="237.23975"
         style="stroke-width:0.26458332"
         id="tspan1001" /><tspan
         sodipodi:role="line"
         x="101.02788"
         y="250.46892"
         style="stroke-width:0.26458332"
         id="tspan1003" /><tspan
         sodipodi:role="line"
         x="101.02788"
         y="263.69809"
         style="stroke-width:0.26458332"
         id="tspan1005" /><tspan
         sodipodi:role="line"
         x="101.02788"
         y="276.92725"
         style="stroke-width:0.26458332"
         id="tspan1007" /><tspan
         sodipodi:role="line"
         x="101.02788"
         y="290.1564"
         style="stroke-width:0.26458332"
         id="tspan1009" /><tspan
         sodipodi:role="line"
         x="101.02788"
         y="303.38559"
         style="stroke-width:0.26458332"
         id="tspan1011" /><tspan
         sodipodi:role="line"
         x="101.02788"
         y="316.61475"
         style="stroke-width:0.26458332"
         id="tspan1013" /><tspan
         sodipodi:role="line"
         x="101.02788"
         y="329.8439"
         style="stroke-width:0.26458332"
         id="tspan1015" /><tspan
         sodipodi:role="line"
         x="101.02788"
         y="343.07309"
         style="stroke-width:0.26458332"
         id="tspan1017" /><tspan
         sodipodi:role="line"
         x="101.02788"
         y="356.30225"
         style="stroke-width:0.26458332"
         id="tspan1019" /><tspan
         sodipodi:role="line"
         x="101.02788"
         y="369.5314"
         style="stroke-width:0.26458332"
         id="tspan1021" /><tspan
         sodipodi:role="line"
         x="101.02788"
         y="382.76059"
         style="stroke-width:0.26458332"
         id="tspan1023" /></text>
    <path
       d="m 144.46974,226.32383 c 0,0 1.21562,30.7934 1.42219,40.99884 -0.0727,1.57914 -0.43387,3.90958 -2.20076,3.71658 -2.00185,-0.22172 -1.89769,-3.73094 -1.89769,-3.73094 0,0 -1.70628,-34.04261 -2.11957,-40.84411 2.83864,-0.27276 4.79583,-0.14037 4.79583,-0.14037"
       style="fill:#fabd99;fill-opacity:1;fill-rule:nonzero;stroke:none;stroke-width:0.03527778"
       id="path232"
       inkscape:connector-curvature="0" />
    <path
       d="m 143.84031,227.10064 0.20721,3.11045 c 0,0 -1.14704,-3.39119 -3.74083,0.0542 -0.10049,-3.10087 0.066,-3.94308 0.066,-3.94308 l 3.46758,0.77841"
       style="fill:#eaa376;fill-opacity:1;fill-rule:nonzero;stroke:none;stroke-width:0.03527778"
       id="path234"
       inkscape:connector-curvature="0" />
    <path
       d="m 141.5842,261.87221 c -1.20749,0.6859 0.12713,4.11377 -0.11389,7.75697 3.56888,2.64946 11.92768,3.20934 15.61666,2.02418 2.30301,-2.08 1.77981,-7.92924 -2.70209,-9.6344 -3.02096,-1.15006 -5.20306,1.01289 -6.1354,1.8567 -0.60023,-0.37325 -2.15242,-0.93313 -2.15242,-0.93313 0,0 0.36703,-1.35744 -0.2919,-1.4994 -0.70935,0.63166 -2.0663,1.05756 -4.22096,0.42908"
       style="fill:#9b3138;fill-opacity:1;fill-rule:nonzero;stroke:none;stroke-width:0.03527778"
       id="path236"
       inkscape:connector-curvature="0" />
    <path
       d="m 145.63464,262.18166 c -0.51602,0.42111 -2.26169,1.83597 -2.18561,3.8091 3.51082,2.6064 12.7356,3.47413 13.58483,-1.27448 0.45332,0.65239 0.041,-0.0495 0.0644,-0.0654 1.40703,2.48676 1.10492,5.78542 -0.43164,7.17157 -3.63204,1.1692 -11.45584,0.2903 -14.97176,-2.31769 0.73917,-3.25081 -0.71413,-6.19696 0.23273,-7.0296 2.25228,0.80553 3.70701,-0.2935 3.70701,-0.2935"
       style="fill:#89282f;fill-opacity:1;fill-rule:nonzero;stroke:none;stroke-width:0.03527778"
       id="path238"
       inkscape:connector-curvature="0" />
    <path
       d="m 141.43346,267.81237 c 1.79976,0.78318 6.96357,3.6129 16.94076,1.50737 0.72895,0.70662 0.0841,2.58086 -0.55845,2.98761 -2.11558,0.74492 -7.88983,2.33682 -16.46334,-1.65252 -0.79451,-0.59178 -0.46513,-2.6048 0.081,-2.84246"
       style="fill:#ebe6e5;fill-opacity:1;fill-rule:nonzero;stroke:none;stroke-width:0.03527778"
       id="path240"
       inkscape:connector-curvature="0" />
    <path
       d="m 141.50668,267.94954 c 0.0849,0.067 0.3514,0.15952 0.49369,0.23608 -0.0348,0.49448 -0.26942,0.83423 0.0401,1.06074 8.57461,3.99572 16.25278,1.64454 16.25278,1.64454 0,0 0.0802,-0.0574 0.19125,-0.17068 -0.16111,1.06234 -0.88145,1.57756 -0.88145,1.57756 0,0 -7.48803,2.1518 -16.06185,-1.84075 -0.79357,-0.59177 -0.0344,-2.50749 -0.0344,-2.50749"
       style="fill:#d8d3d1;fill-opacity:1;fill-rule:nonzero;stroke:none;stroke-width:0.03527778"
       id="path242"
       inkscape:connector-curvature="0" />
    <path
       d="m 144.34022,264.59665 c 0.0834,-0.0111 0.16366,-0.0606 0.21134,-0.14038 0.96648,-1.64933 2.27207,-0.96663 2.32263,-0.93792 0.13654,0.0766 0.30977,0.0239 0.38681,-0.11484 0.0735,-0.14037 0.022,-0.31105 -0.115,-0.38761 -0.0194,-0.008 -1.8484,-0.96982 -3.08222,1.15325 -0.0866,0.13559 -0.0397,0.31424 0.0997,0.3908 0.0542,0.0335 0.11804,0.0415 0.17674,0.0367"
       style="fill:#eadedd;fill-opacity:1;fill-rule:nonzero;stroke:none;stroke-width:0.03527778"
       id="path244"
       inkscape:connector-curvature="0" />
    <path
       d="m 147.35352,265.98598 c 0.062,-0.0622 0.0962,-0.14994 0.086,-0.23927 -0.25395,-1.89498 1.19536,-2.15658 1.2571,-2.16774 0.15137,-0.0223 0.26143,-0.17068 0.23479,-0.3254 -0.025,-0.15633 -0.1761,-0.2616 -0.32859,-0.23607 -0.022,0.003 -2.05688,0.36368 -1.73307,2.7994 0.0212,0.1595 0.16796,0.26637 0.32173,0.25042 0.0646,-0.0111 0.12234,-0.0415 0.16206,-0.0813"
       style="fill:#eadedd;fill-opacity:1;fill-rule:nonzero;stroke:none;stroke-width:0.03527778"
       id="path246"
       inkscape:connector-curvature="0" />
    <path
       d="m 119.94525,173.58506 c 0,0 -4.58958,15.46768 -6.54948,29.6481 0.41169,0.31105 2.01238,3.55708 1.08387,3.96862 -0.92819,0.41154 -1.54709,-1.38934 -1.54709,-1.38934 0,0 -0.0251,1.10701 0.15536,3.84101 0,0.97779 -1.13395,1.00171 -1.36556,0.4881 -0.35954,1.13252 -1.36477,0.98257 -1.51885,0.2584 -0.72195,0 -1.3174,-0.41313 -1.26572,-1.54565 -1.46812,0.33497 -0.33417,-3.76444 1.80374,-6.18739 0.82547,-4.79965 1.46957,-9.07771 5.69802,-28.97976 1.75046,0.51681 3.50571,-0.10209 3.50571,-0.10209"
       style="fill:#fabd99;fill-opacity:1;fill-rule:nonzero;stroke:none;stroke-width:0.03527778"
       id="path248"
       inkscape:connector-curvature="0" />
    <path
       d="m 116.27907,176.38286 c 0,0 -0.23974,1.43878 -0.55988,2.55695 1.35727,-1.5983 2.15705,-0.63964 2.23729,1.03522 0.47964,-2.23474 0.47964,-2.95413 0.47964,-2.95413 l -2.15705,-0.63804"
       style="fill:#eaa376;fill-opacity:1;fill-rule:nonzero;stroke:none;stroke-width:0.03527778"
       id="path250"
       inkscape:connector-curvature="0" />
    <path
       d="m 110.2035,210.55628 c -0.0735,0 -0.13942,-0.0542 -0.15297,-0.12762 -0.31312,-1.77694 0.41281,-3.64161 0.44439,-3.72137 0.0333,-0.0766 0.12649,-0.11324 0.20034,-0.0877 0.0802,0.0335 0.119,0.12283 0.088,0.20258 -0.008,0.0175 -0.72513,1.86467 -0.42812,3.55229 0.015,0.0845 -0.0407,0.16429 -0.12633,0.18024 -0.007,0 -0.0171,0.001 -0.0254,0.001"
       style="fill:#eaa376;fill-opacity:1;fill-rule:nonzero;stroke:none;stroke-width:0.03527778"
       id="path252"
       inkscape:connector-curvature="0" />
    <path
       d="m 108.93778,209.00902 c -0.0815,0 -0.14882,-0.0654 -0.15504,-0.14515 -0.0778,-1.18516 0.53069,-2.49633 0.55637,-2.55056 0.038,-0.0782 0.13,-0.11007 0.20513,-0.075 0.0774,0.0351 0.1107,0.12602 0.0751,0.20577 -0.006,0.0127 -0.60071,1.29522 -0.5275,2.39743 0.005,0.0877 -0.0579,0.15952 -0.14324,0.16749 -0.003,0 -0.007,0 -0.0108,0"
       style="fill:#eaa376;fill-opacity:1;fill-rule:nonzero;stroke:none;stroke-width:0.03527778"
       id="path254"
       inkscape:connector-curvature="0" />
    <path
       d="m 111.72235,210.29787 c -0.0743,0 -0.13925,-0.0542 -0.15217,-0.13081 -0.25873,-1.55522 0.13941,-3.63044 0.15584,-3.71339 0.0151,-0.0893 0.0949,-0.14036 0.18024,-0.12601 0.0841,0.0175 0.14005,0.0973 0.12362,0.18184 -0.005,0.0239 -0.40132,2.10873 -0.15536,3.60653 0.0156,0.0845 -0.0415,0.16588 -0.12633,0.17864 -0.008,0.003 -0.0169,0.003 -0.0258,0.003"
       style="fill:#eaa376;fill-opacity:1;fill-rule:nonzero;stroke:none;stroke-width:0.03527778"
       id="path256"
       inkscape:connector-curvature="0" />
    <path
       d="m 148.63247,173.58506 c 0,0 4.58878,15.46768 6.54709,29.6481 -0.4117,0.31105 -2.00999,3.55708 -1.08308,3.96862 0.92803,0.41154 1.54709,-1.38934 1.54709,-1.38934 0,0 0.0235,1.10701 -0.15568,3.84101 0,0.97779 1.13268,1.00171 1.36508,0.4881 0.36114,1.13252 1.36461,0.98257 1.52045,0.2584 0.72194,0 1.31739,-0.41313 1.26491,-1.54565 1.46734,0.33497 0.33417,-3.76444 -1.80517,-6.18739 -0.90155,-5.59721 -1.46813,-9.07771 -5.69562,-28.97976 -1.75302,0.51681 -3.50507,-0.10209 -3.50507,-0.10209"
       style="fill:#fabd99;fill-opacity:1;fill-rule:nonzero;stroke:none;stroke-width:0.03527778"
       id="path258"
       inkscape:connector-curvature="0" />
    <path
       d="m 152.21841,176.06384 c 0,0 0.23974,1.43719 0.55909,2.55695 -1.35839,-1.59989 -2.15626,-0.63804 -2.2357,1.03681 -0.47964,-2.23633 -0.47964,-2.95572 -0.47964,-2.95572 l 2.15625,-0.63804"
       style="fill:#eaa376;fill-opacity:1;fill-rule:nonzero;stroke:none;stroke-width:0.03527778"
       id="path260"
       inkscape:connector-curvature="0" />
    <path
       d="m 158.37342,210.55628 c 0.0727,0 0.13782,-0.0542 0.15137,-0.12762 0.31456,-1.77694 -0.41106,-3.64161 -0.44376,-3.72137 -0.0324,-0.0766 -0.12553,-0.11324 -0.20177,-0.0877 -0.0794,0.0335 -0.1174,0.12283 -0.0857,0.20258 0.006,0.0175 0.72497,1.86467 0.42653,3.55229 -0.0142,0.0845 0.0413,0.16429 0.12633,0.18024 0.01,0 0.0179,0.001 0.0269,0.001"
       style="fill:#eaa376;fill-opacity:1;fill-rule:nonzero;stroke:none;stroke-width:0.03527778"
       id="path262"
       inkscape:connector-curvature="0" />
    <path
       d="m 159.63833,209.00902 c 0.081,0 0.14787,-0.0654 0.15504,-0.14515 0.0785,-1.18516 -0.53053,-2.49633 -0.55637,-2.55056 -0.0381,-0.0782 -0.13079,-0.11007 -0.20433,-0.075 -0.0778,0.0351 -0.1115,0.12602 -0.0762,0.20577 0.007,0.0127 0.60103,1.29522 0.52782,2.39743 -0.006,0.0877 0.0579,0.15952 0.14403,0.16749 0.003,0 0.006,0 0.01,0"
       style="fill:#eaa376;fill-opacity:1;fill-rule:nonzero;stroke:none;stroke-width:0.03527778"
       id="path264"
       inkscape:connector-curvature="0" />
    <path
       d="m 156.85297,210.29787 c 0.0751,0 0.13925,-0.0542 0.15218,-0.13081 0.25856,-1.55522 -0.13654,-3.63044 -0.15377,-3.71339 -0.0161,-0.0893 -0.0955,-0.14036 -0.18152,-0.12601 -0.0849,0.0175 -0.13926,0.0973 -0.12283,0.18184 0.004,0.0239 0.40181,2.10873 0.15377,3.60653 -0.0158,0.0845 0.0431,0.16588 0.12713,0.17864 0.008,0.003 0.0161,0.003 0.025,0.003"
       style="fill:#eaa376;fill-opacity:1;fill-rule:nonzero;stroke:none;stroke-width:0.03527778"
       id="path266"
       inkscape:connector-curvature="0" />
    <path
       d="m 126.26966,226.32383 c 0,0 -1.21723,30.7934 -1.42315,40.99884 0.0726,1.57914 0.43275,3.90958 2.20139,3.71658 2.00138,-0.22172 1.89721,-3.73094 1.89721,-3.73094 0,0 1.70549,-34.04261 2.11941,-40.84411 -2.83736,-0.27276 -4.79486,-0.14037 -4.79486,-0.14037"
       style="fill:#fabd99;fill-opacity:1;fill-rule:nonzero;stroke:none;stroke-width:0.03527778"
       id="path268"
       inkscape:connector-curvature="0" />
    <path
       d="m 126.89956,227.10064 -0.20816,3.11045 c 0,0 1.14688,-3.39119 3.73939,0.0542 0.10161,-3.10087 -0.0665,-3.94308 -0.0665,-3.94308 l -3.46472,0.77841"
       style="fill:#eaa376;fill-opacity:1;fill-rule:nonzero;stroke:none;stroke-width:0.03527778"
       id="path270"
       inkscape:connector-curvature="0" />
    <path
       d="m 120.70691,203.59047 c 0,0 -2.5528,12.37478 -3.63508,21.19089 4.09893,2.93818 11.7578,3.40076 17.01732,2.63033 0.77346,-4.95438 1.00156,-7.27207 1.00156,-7.27207 l 1.31389,7.1987 c 0,0 9.1337,1.15325 17.33107,-2.6367 -1.83723,-12.06056 -3.79649,-22.0395 -3.79649,-22.0395 l -29.23227,0.92835"
       style="fill:#7ea3bf;fill-opacity:1;fill-rule:nonzero;stroke:none;stroke-width:0.03527778"
       id="path272"
       inkscape:connector-curvature="0" />
    <path
       d="m 148.83154,203.75158 c 0,0 1.00794,4.68481 1.47036,7.98506 -2.49075,-4.57793 -25.29876,-6.49524 -29.45096,0.95706 0.36815,-4.36579 1.10732,-8.41256 1.10732,-8.41256 l 26.87328,-0.52956"
       style="fill:#6189a9;fill-opacity:1;fill-rule:nonzero;stroke:none;stroke-width:0.03527778"
       id="path274"
       inkscape:connector-curvature="0" />
    <path
       d="m 131.66763,153.26509 c 0,0 0.12394,4.50296 0,5.99119 -1.67198,0.48332 -3.76523,0.99534 -3.76523,0.99534 0,0 -0.0794,5.53659 5.99534,5.53659 6.07637,0 5.21565,-5.62911 5.21565,-5.62911 0,0 -2.09484,-0.50405 -3.86062,-0.92994 0,-2.47878 -0.11404,-5.71683 -0.11404,-5.71683 l -3.4711,-0.24724"
       style="fill:#fabd99;fill-opacity:1;fill-rule:nonzero;stroke:none;stroke-width:0.03527778"
       id="path276"
       inkscape:connector-curvature="0" />
    <path
       d="m 135.24608,154.09773 -3.47174,-0.24724 c 0,0 0.0679,2.50909 0.0509,4.40088 0.52048,0.10049 1.07287,0.16589 1.69224,0.16589 0.57631,0 1.09201,-0.0622 1.57804,-0.15473 0.0432,-2.09915 0.15057,-4.1648 0.15057,-4.1648"
       style="fill:#eaa376;fill-opacity:1;fill-rule:nonzero;stroke:none;stroke-width:0.03527778"
       id="path278"
       inkscape:connector-curvature="0" />
    <path
       d="m 123.67953,161.63457 c -0.60119,3.27793 -1.93374,8.70765 -3.46009,15.81382 -2.927,0.53436 -6.33541,-2.07682 -6.33541,-2.07682 0,0 3.35354,-11.60754 9.7955,-13.737"
       style="fill:#235394;fill-opacity:1;fill-rule:nonzero;stroke:none;stroke-width:0.03527778"
       id="path280"
       inkscape:connector-curvature="0" />
    <path
       d="m 143.96936,161.63457 c 0.60087,3.27793 1.93405,8.70765 3.4604,15.81382 2.92653,0.53436 6.33383,-2.07682 6.33383,-2.07682 0,0 -3.35322,-11.60754 -9.79423,-13.737"
       style="fill:#235394;fill-opacity:1;fill-rule:nonzero;stroke:none;stroke-width:0.03527778"
       id="path282"
       inkscape:connector-curvature="0" />
    <path
       d="m 118.08951,203.27145 c 9.5891,4.90971 30.46512,2.87916 34.02331,0.0542 0,0 -6.01576,-38.60301 -7.98651,-41.53161 -0.90585,-0.69227 -3.78054,-1.59669 -5.9411,-2.05927 -4.38796,1.89976 -7.36984,0.67472 -9.53854,0.0239 -0.73135,0.0606 -4.59356,1.50417 -5.71141,2.24909 -2.39568,3.91278 -4.53678,35.01402 -4.84575,41.26362"
       style="fill:#3678c3;fill-opacity:1;fill-rule:nonzero;stroke:none;stroke-width:0.03527778"
       id="path284"
       inkscape:connector-curvature="0" />
    <path
       d="m 121.23249,178.24594 c -0.20864,5.55573 0.58492,21.67262 6.77519,24.086 7.3038,2.84247 21.96403,0.39558 21.96403,0.39558 0,0 -14.5398,5.65303 -30.6251,0.1962 0.72273,-12.29982 1.88588,-24.67778 1.88588,-24.67778"
       style="fill:#2867ae;fill-opacity:1;fill-rule:nonzero;stroke:none;stroke-width:0.03527778"
       id="path286"
       inkscape:connector-curvature="0" />
    <path
       d="m 129.45682,159.66462 c 1.67741,0.90443 4.44634,1.41007 8.09226,0.0271 1.38391,-0.26638 1.99707,0.37167 1.99707,0.37167 0,0 -1.25248,1.81043 -5.96296,2.0497 -4.23148,0.21693 -6.15071,-2.0497 -6.15071,-2.0497 0,0 1.22584,-0.66516 2.02434,-0.39878"
       style="fill:#235394;fill-opacity:1;fill-rule:nonzero;stroke:none;stroke-width:0.03527778"
       id="path288"
       inkscape:connector-curvature="0" />
    <path
       d="m 94.762614,108.87028 c -2.438907,11.1338 0.21805,43.62278 30.971566,47.96623 30.5822,4.31794 44.71542,-18.03259 47.03485,-39.2219 2.80355,-25.566254 -18.45083,-39.040054 -36.22869,-39.646194 -27.75265,-0.93792 -38.515269,15.98769 -41.777726,30.901864"
       style="fill:#fabd99;fill-opacity:1;fill-rule:nonzero;stroke:none;stroke-width:0.03527778"
       id="path290"
       inkscape:connector-curvature="0" />
    <path
       d="m 113.8684,132.21297 c 0.20911,2.70529 -3.52182,5.1394 -7.68168,4.52529 -4.16066,-0.61092 -6.633544,-3.66873 -6.684746,-6.91475 -0.04594,-2.95093 3.416066,-5.68334 7.710546,-3.09131 4.01551,2.42455 6.45106,2.67658 6.65588,5.48077"
       style="fill:#f8a191;fill-opacity:1;fill-rule:nonzero;stroke:none;stroke-width:0.03527778"
       id="path292"
       inkscape:connector-curvature="0" />
    <path
       d="m 102.78995,128.87921 c 0.0185,0.3573 -0.34613,0.65877 -0.80169,0.67951 -0.45668,0.0175 -0.84541,-0.24883 -0.85817,-0.60773 -0.0161,-0.34933 0.34454,-0.65559 0.80505,-0.67473 0.45843,-0.0191 0.84062,0.25362 0.85481,0.60295"
       style="fill:#fbccc0;fill-opacity:1;fill-rule:nonzero;stroke:none;stroke-width:0.03527778"
       id="path294"
       inkscape:connector-curvature="0" />
    <path
       d="m 126.34814,125.07968 c 0.018,0.35411 -0.41011,0.66516 -0.95387,0.6827 -0.53851,0.0223 -0.98721,-0.24723 -1.00508,-0.59975 -0.0118,-0.34933 0.41521,-0.65559 0.95435,-0.68111 0.53866,-0.0223 0.99518,0.24405 1.0046,0.59816"
       style="fill:#fcd3bb;fill-opacity:1;fill-rule:nonzero;stroke:none;stroke-width:0.03527778"
       id="path296"
       inkscape:connector-curvature="0" />
    <path
       d="m 159.59606,131.6467 c 0.0298,3.70542 -3.37299,6.46175 -8.16961,6.95145 -4.636,0.47534 -9.53025,-2.77069 -8.88072,-6.25279 0.61874,-3.31143 3.21301,-2.29694 8.48098,-4.54444 5.09826,-2.17093 8.54319,0.14356 8.56935,3.84578"
       style="fill:#f8a191;fill-opacity:1;fill-rule:nonzero;stroke:none;stroke-width:0.03527778"
       id="path298"
       inkscape:connector-curvature="0" />
    <path
       d="m 156.21844,129.91283 c 0.002,0.34295 -0.35124,0.6189 -0.78989,0.62209 -0.43626,-0.003 -0.79053,-0.26957 -0.79468,-0.60773 -9.1e-4,-0.33816 0.34901,-0.61411 0.78846,-0.6189 0.43722,0 0.79244,0.27276 0.79611,0.60454"
       style="fill:#fbccc0;fill-opacity:1;fill-rule:nonzero;stroke:none;stroke-width:0.03527778"
       id="path300"
       inkscape:connector-curvature="0" />
    <path
       d="m 107.59088,105.69603 c 3.99126,-2.02258 5.78766,2.45167 2.98332,3.00996 -3.00549,0.59497 -5.30738,2.18688 -5.73837,1.97154 -0.95531,-0.47853 0.51298,-3.84738 2.75505,-4.9815"
       style="fill:#3c2b26;fill-opacity:1;fill-rule:nonzero;stroke:none;stroke-width:0.03527778"
       id="path302-1"
       inkscape:connector-curvature="0" />
    <path
       d="m 147.56279,106.89555 c -4.05793,-1.88062 -5.69609,2.64786 -2.87596,3.11044 3.02526,0.49449 5.37788,2.00185 5.80616,1.77056 0.93441,-0.51202 -0.64713,-3.82504 -2.9302,-4.881"
       style="fill:#3c2b26;fill-opacity:1;fill-rule:nonzero;stroke:none;stroke-width:0.03527778"
       id="path304"
       inkscape:connector-curvature="0" />
    <path
       d="m 118.34313,133.58635 c 0,0 0.58508,16.11528 12.03279,16.02277 11.44244,-0.0893 7.78121,-15.60486 7.78121,-15.60486 0,0 -7.93019,3.2221 -19.814,-0.41791"
       style="fill:#461b1c;fill-opacity:1;fill-rule:nonzero;stroke:none;stroke-width:0.03527778"
       id="path306"
       inkscape:connector-curvature="0" />
    <path
       d="m 129.2678,135.30905 c 0.84397,3.88407 2.87421,9.26753 7.68551,11.10509 3.04824,-4.56678 1.20382,-12.40988 1.20382,-12.40988 0,0 -3.32881,1.33829 -8.88933,1.30479"
       style="fill:#2c1616;fill-opacity:1;fill-rule:nonzero;stroke:none;stroke-width:0.03527778"
       id="path308"
       inkscape:connector-curvature="0" />
    <path
       d="m 123.26927,146.75868 c 1.70868,1.70516 4.00881,2.87277 7.10665,2.85044 5.65909,-0.0463 7.62234,-3.86652 8.1618,-7.7155 -0.52893,-0.65558 -2.43396,-1.16123 -4.07532,-0.0351 -2.38547,-2.73879 -8.99843,0.70024 -11.19313,4.90014"
       style="fill:#ee5b63;fill-opacity:1;fill-rule:nonzero;stroke:none;stroke-width:0.03527778"
       id="path310"
       inkscape:connector-curvature="0" />
    <path
       d="m 136.56172,141.86651 c -0.90746,-0.20737 -1.94204,0.18663 -2.36251,0.54233 -0.46704,-0.57583 -1.19154,-1.2027 -2.86751,-0.97142 -4.15571,0.54553 -8.47683,5.71525 -2.85235,6.85255 5.69673,1.15007 11.42968,-5.65303 8.08237,-6.42346"
       style="fill:#f57880;fill-opacity:1;fill-rule:nonzero;stroke:none;stroke-width:0.03527778"
       id="path312"
       inkscape:connector-curvature="0" />
    <path
       d="m 128.09301,143.64504 c 0.71923,-1.03202 2.8002,-1.97154 3.50428,-1.51056 0.84285,0.54553 -0.85258,1.9524 -2.06534,2.33842 -1.22838,0.38123 -1.90407,-0.1643 -1.43894,-0.82786"
       style="fill:#f8a1a9;fill-opacity:1;fill-rule:nonzero;stroke:none;stroke-width:0.03527778"
       id="path314"
       inkscape:connector-curvature="0" />
    <path
       d="m 121.86064,134.4796 c -0.16892,1.7259 0.31009,2.95253 2.65935,3.47094 2.18465,0.48172 5.29445,0.58381 7.38244,0.25043 2.50766,-0.39878 3.56887,-1.694 3.15878,-3.38002 -4.26897,0.63007 -7.7549,0.73215 -13.20057,-0.34135"
       style="fill:#ffffff;fill-opacity:1;fill-rule:nonzero;stroke:none;stroke-width:0.03527778"
       id="path316"
       inkscape:connector-curvature="0" />
    <path
       d="m 125.89401,129.45664 c -0.0494,0.0223 -0.10097,0.0335 -0.15409,0.0143 -1.54326,-0.44185 -2.47161,-1.56958 -2.48452,-3.01474 -0.0194,-1.33988 0.78239,-2.59682 1.861,-2.93658 0.6709,-0.20417 2.00552,-0.23288 3.42994,1.90296 0.063,0.0941 0.0341,0.22172 -0.055,0.28712 -0.10831,0.0734 -0.22762,0.0383 -0.29079,-0.0574 -0.94493,-1.41485 -1.99834,-2.03056 -2.95986,-1.73387 -0.91415,0.27595 -1.58266,1.36859 -1.56894,2.53142 0.004,0.60454 0.22954,2.06246 2.18018,2.61915 0.11278,0.0319 0.17291,0.14675 0.14212,0.25681 -0.0166,0.0558 -0.0507,0.1005 -0.10001,0.1308"
       style="fill:#ce6748;fill-opacity:1;fill-rule:nonzero;stroke:none;stroke-width:0.03527778"
       id="path318"
       inkscape:connector-curvature="0" />
    <path
       d="m 117.41015,116.11363 c 1.50753,3.59535 -0.008,7.66445 -3.39628,9.09047 -3.39278,1.42761 -7.36681,-0.32221 -8.87785,-3.9064 -1.52108,-3.59376 0.002,-7.66445 3.39039,-9.09366 3.39277,-1.42921 7.36601,0.32221 8.88374,3.90959"
       style="fill:#eaa376;fill-opacity:1;fill-rule:nonzero;stroke:none;stroke-width:0.03527778"
       id="path320"
       inkscape:connector-curvature="0" />
    <path
       d="m 115.54772,122.97415 c 2.19517,0.12761 2.73655,1.09743 1.22408,2.17572 -1.52524,1.06871 -4.53694,1.83755 -6.72542,1.70675 -2.19901,-0.1292 -2.73974,-1.10221 -1.22839,-2.17571 1.5238,-1.07032 4.5312,-1.83596 6.72973,-1.70676"
       style="fill:#eaa376;fill-opacity:1;fill-rule:nonzero;stroke:none;stroke-width:0.03527778"
       id="path322"
       inkscape:connector-curvature="0" />
    <path
       d="m 116.70033,116.29866 c 1.49669,3.5475 -0.006,7.57353 -3.35305,8.98679 -3.3521,1.41007 -7.2853,-0.31742 -8.77879,-3.86652 -1.49828,-3.55229 0.006,-7.57353 3.34971,-8.98838 3.35625,-1.41007 7.28418,0.31742 8.78213,3.86811"
       style="fill:#ffffff;fill-opacity:1;fill-rule:nonzero;stroke:none;stroke-width:0.03527778"
       id="path324"
       inkscape:connector-curvature="0" />
    <path
       d="m 116.01237,117.01805 c -0.29446,-0.70025 -0.71461,-1.31277 -1.20669,-1.83915 0.21805,0.33497 0.41664,0.68589 0.57934,1.06872 1.31149,3.11523 -0.008,6.65634 -2.95285,7.90531 -1.7527,0.73694 -3.67479,0.48491 -5.23001,-0.4897 1.6187,1.43559 3.88741,1.94124 5.92404,1.08626 2.88234,-1.21546 4.17293,-4.67683 2.88617,-7.73144"
       style="fill:#dcdbdb;fill-opacity:1;fill-rule:nonzero;stroke:none;stroke-width:0.03527778"
       id="path326"
       inkscape:connector-curvature="0" />
    <path
       d="m 115.41453,119.35327 c 0.0305,2.08161 -1.54007,3.79953 -3.50811,3.82984 -1.97234,0.0303 -3.59391,-1.63338 -3.62661,-3.71818 -0.0335,-2.08639 1.5415,-3.8059 3.50858,-3.82983 1.97042,-0.0351 3.59104,1.63019 3.62614,3.71817"
       style="fill:#7ab9dd;fill-opacity:1;fill-rule:nonzero;stroke:none;stroke-width:0.03527778"
       id="path328"
       inkscape:connector-curvature="0" />
    <path
       d="m 113.95979,119.52714 c 0.0214,1.25056 -0.9226,2.27302 -2.09659,2.29535 -1.18277,0.0175 -2.15243,-0.97939 -2.17046,-2.22676 -0.0185,-1.24896 0.9207,-2.2778 2.09852,-2.29535 1.1767,-0.0191 2.1478,0.9762 2.16853,2.22676"
       style="fill:#231f20;fill-opacity:1;fill-rule:nonzero;stroke:none;stroke-width:0.03527778"
       id="path330"
       inkscape:connector-curvature="0" />
    <path
       d="m 111.51084,118.23671 c 0.01,0.52957 -0.38857,0.95865 -0.88257,0.96822 -0.50086,0.006 -0.90905,-0.41154 -0.91846,-0.9443 -0.0105,-0.52798 0.38825,-0.95865 0.88433,-0.97141 0.50102,-0.003 0.91351,0.41951 0.9167,0.94749"
       style="fill:#ffffff;fill-opacity:1;fill-rule:nonzero;stroke:none;stroke-width:0.03527778"
       id="path332"
       inkscape:connector-curvature="0" />
    <path
       d="m 113.96171,120.9404 c 0.007,0.3254 -0.2356,0.58859 -0.54042,0.59337 -0.29972,0.005 -0.54871,-0.25202 -0.55334,-0.57264 0,-0.31583 0.2356,-0.58221 0.53898,-0.5854 0.30259,-0.006 0.55207,0.24884 0.55478,0.56467"
       style="fill:#ffffff;fill-opacity:1;fill-rule:nonzero;stroke:none;stroke-width:0.03527778"
       id="path334"
       inkscape:connector-curvature="0" />
    <path
       d="m 149.53083,116.29547 c 1.50864,3.59535 -0.009,7.66445 -3.39932,9.08888 -3.3915,1.42761 -7.36378,-0.32062 -8.87226,-3.90481 -1.52252,-3.59375 0,-7.66445 3.38895,-9.09366 3.39102,-1.42761 7.36409,0.32061 8.88263,3.90959"
       style="fill:#eaa376;fill-opacity:1;fill-rule:nonzero;stroke:none;stroke-width:0.03527778"
       id="path336"
       inkscape:connector-curvature="0" />
    <path
       d="m 147.66999,123.1544 c 2.19469,0.1292 2.73384,1.09902 1.22184,2.17731 -1.52428,1.06871 -4.5379,1.83755 -6.72685,1.70516 -2.19996,-0.1292 -2.73958,-1.09902 -1.22424,-2.17412 1.52141,-1.06872 4.52913,-1.83596 6.72925,-1.70835"
       style="fill:#eaa376;fill-opacity:1;fill-rule:nonzero;stroke:none;stroke-width:0.03527778"
       id="path338"
       inkscape:connector-curvature="0" />
    <path
       d="m 148.82212,116.47891 c 1.49493,3.54909 -0.009,7.57353 -3.35497,8.98838 -3.35066,1.41007 -7.28242,-0.31742 -8.77735,-3.86492 -1.49907,-3.55389 0.005,-7.57354 3.35003,-8.99158 3.35497,-1.41007 7.2845,0.31742 8.78229,3.86812"
       style="fill:#ffffff;fill-opacity:1;fill-rule:nonzero;stroke:none;stroke-width:0.03527778"
       id="path340"
       inkscape:connector-curvature="0" />
    <path
       d="m 148.13081,117.20149 c -0.2935,-0.70344 -0.7111,-1.31596 -1.20286,-1.84075 0.21773,0.33497 0.41488,0.68589 0.57806,1.06872 1.3099,3.11523 -0.008,6.65635 -2.95476,7.90531 -1.75046,0.73693 -3.67128,0.48332 -5.22922,-0.4897 1.61982,1.43559 3.88934,1.93964 5.92612,1.08627 2.87979,-1.21547 4.17086,-4.67683 2.88266,-7.72985"
       style="fill:#dcdbdb;fill-opacity:1;fill-rule:nonzero;stroke:none;stroke-width:0.03527778"
       id="path342"
       inkscape:connector-curvature="0" />
    <path
       d="m 147.53536,119.53512 c 0.0303,2.08001 -1.54007,3.79952 -3.50651,3.83142 -1.97393,0.0271 -3.59344,-1.63497 -3.62853,-3.71977 -0.0356,-2.08479 1.54182,-3.80431 3.50715,-3.83143 1.97074,-0.0319 3.59136,1.63179 3.62789,3.71978"
       style="fill:#7ab9dd;fill-opacity:1;fill-rule:nonzero;stroke:none;stroke-width:0.03527778"
       id="path344"
       inkscape:connector-curvature="0" />
    <path
       d="m 146.07935,119.70898 c 0.0226,1.25056 -0.9226,2.27462 -2.0966,2.29535 -1.18196,0.016 -2.15163,-0.97939 -2.17013,-2.22836 -0.0155,-1.24896 0.92085,-2.2762 2.09931,-2.29694 1.17734,-0.016 2.14796,0.97939 2.16742,2.22995"
       style="fill:#231f20;fill-opacity:1;fill-rule:nonzero;stroke:none;stroke-width:0.03527778"
       id="path346"
       inkscape:connector-curvature="0" />
    <path
       d="m 143.63151,118.41695 c 0.009,0.53117 -0.3908,0.96185 -0.88336,0.96823 -0.49879,0.008 -0.90793,-0.41154 -0.91798,-0.94271 -0.009,-0.52797 0.38793,-0.95865 0.88528,-0.97301 0.50022,-0.002 0.91128,0.41951 0.91606,0.94749"
       style="fill:#ffffff;fill-opacity:1;fill-rule:nonzero;stroke:none;stroke-width:0.03527778"
       id="path348"
       inkscape:connector-curvature="0" />
    <path
       d="m 146.08318,121.12224 c 0.006,0.3254 -0.23624,0.587 -0.54058,0.59338 -0.29956,0.003 -0.54855,-0.25363 -0.55382,-0.57264 0,-0.31583 0.23464,-0.58381 0.53707,-0.587 0.30211,-0.006 0.55159,0.25043 0.55733,0.56626"
       style="fill:#ffffff;fill-opacity:1;fill-rule:nonzero;stroke:none;stroke-width:0.03527778"
       id="path350"
       inkscape:connector-curvature="0" />
    <path
       d="m 166.76475,123.47342 c 0,0 2.08895,-4.79168 7.46236,-3.99732 5.66276,0.83902 5.58508,9.04581 1.17958,13.17711 -4.40519,4.12174 -10.74124,3.21413 -11.46015,-1.22982 l 2.81821,-7.94997"
       style="fill:#fabd99;fill-opacity:1;fill-rule:nonzero;stroke:none;stroke-width:0.03527778"
       id="path352-8"
       inkscape:connector-curvature="0" />
    <path
       d="m 173.53388,119.81745 c -1.36509,-0.1962 -2.49713,-0.003 -3.43361,0.36687 0.74188,-0.26319 1.56735,-0.37963 2.47958,-0.20417 5.26894,1.0081 4.41412,7.24015 1.78412,10.47183 -3.55579,4.37695 -8.62183,3.78038 -10.48507,0.50086 0.6693,4.13609 6.6101,4.97352 10.75066,1.12933 4.13625,-3.84738 4.21361,-11.48791 -1.09568,-12.26472"
       style="fill:#eaa376;fill-opacity:1;fill-rule:nonzero;stroke:none;stroke-width:0.03527778"
       id="path354"
       inkscape:connector-curvature="0" />
    <path
       d="m 174.6428,121.95807 c -3.34014,-1.71951 -8.32372,4.77254 -4.60857,9.89919 -0.54138,-5.71843 1.8307,-6.96421 3.66937,-3.80112 0.45333,-1.69081 -0.12091,-2.99082 -2.31321,-3.40394 0.80648,-2.17732 3.25241,-2.69413 3.25241,-2.69413"
       style="fill:#d48a5b;fill-opacity:1;fill-rule:nonzero;stroke:none;stroke-width:0.03527778"
       id="path356"
       inkscape:connector-curvature="0" />
    <g
       id="g358"
       transform="matrix(0.01707873,0,0,-0.01707873,50.404815,336.93599)"
       style="stroke-width:2.21163511">
      <path
         d="m 6848.12,12464.5 c 0,0 -77.15,11.3 -218.87,26.9 278.53,560 213.8,823.6 -202.06,1040.4 -788,-38.8 -2088.78,201.7 -3188.18,836 -474.54,-420 -599.14,-905.9 -671.54,-1238.1 -89.25,305.2 85.37,890.9 25.82,1283.1 -59.71,392.2 -38.78,871.8 437.73,1129.3 476.81,257.7 817.99,242.6 1083.41,140.2 688.1,617.7 1742.4,449.4 1890,300.1 -271.16,32.1 -275.29,-350.6 147.45,-479.3 423.02,-128.5 1794.92,-710.9 1391.44,-1337.8 107.96,-474 -323.45,-869.2 -260.24,-1444.5 -262.84,52.9 -434.96,-256.3 -434.96,-256.3"
         style="fill:#3c2b26;fill-opacity:1;fill-rule:nonzero;stroke:none;stroke-width:2.21163511"
         id="path360"
         inkscape:connector-curvature="0" />
    </g>
    <g
       id="g362"
       transform="matrix(0.01653863,0,0,-0.01653863,50.404815,336.93599)"
       style="stroke-width:2.21163511">
      <path
         d="m 5749.08,16300 c -17.58,-231.1 376.95,-475.7 1076.29,-676.4 658.64,-189 793.74,-521.6 739.91,-692.5 -182.55,373.3 -1002.65,548.5 -1529.62,553.9 170.49,-122.1 651.13,-289.2 651.13,-289.2 0,0 -1242.77,24.3 -1763.82,626 414.37,-144.1 519.08,-128.9 1020.91,-146.3 0,0 -477.87,265.4 -194.8,624.5"
         style="fill:#6a544b;fill-opacity:1;fill-rule:nonzero;stroke:none;stroke-width:2.21163511"
         id="path364"
         inkscape:connector-curvature="0" />
    </g>
    <g
       id="g366"
       transform="matrix(0.01678332,0,0,-0.01678332,50.404815,336.93599)"
       style="stroke-width:2.21163511">
      <path
         d="m 5463.01,16223.4 c 0,0 -916.36,76.6 -1362.76,-502.1 329.13,144 1119.44,258 1119.44,258 0,0 -245.34,53.1 -598.83,10.1 304.64,188.5 842.15,234 842.15,234"
         style="fill:#6a544b;fill-opacity:1;fill-rule:nonzero;stroke:none;stroke-width:2.21163511"
         id="path368"
         inkscape:connector-curvature="0" />
    </g>
    <g
       id="g370"
       transform="matrix(0.0164158,0,0,-0.0164158,50.404815,336.93599)"
       style="stroke-width:2.21163511">
      <path
         d="m 4017.93,16154.8 c 0,0 -417.75,145.2 -912.29,-139.9 166.93,24 479.42,36.3 479.42,36.3 0,0 -278.87,-171.7 -509.98,-476.2 277.56,237.2 942.85,579.8 942.85,579.8"
         style="fill:#6a544b;fill-opacity:1;fill-rule:nonzero;stroke:none;stroke-width:2.21163511"
         id="path372"
         inkscape:connector-curvature="0" />
    </g>
    <path
       d="m 107.44158,80.600336 c 0,0 13.26884,20.881444 53.77782,19.753714 6.42489,1.4962 15.16588,13.65724 3.75358,22.82427 5.60135,-10.53722 2.4504,-15.38632 -4.65067,-19.08536 -25.53339,-0.25681 -47.2344,-8.506674 -54.93601,-14.716394 -8.105184,7.17316 -9.896002,17.648184 -11.132523,23.321954 0,0 -1.754768,-21.982064 13.187803,-32.098184"
       style="fill:#2d201b;fill-opacity:1;fill-rule:nonzero;stroke:none;stroke-width:0.03527778"
       id="path374"
       inkscape:connector-curvature="0" />
    <path
       d="m 133.461,123.8674 c 3.00692,6.23844 10.53164,8.87035 16.77534,5.8604 l 0.1954,-0.0989 c 6.08196,-3.0626 8.61864,-10.54202 5.66101,-16.67517 -3.0082,-6.24003 -10.53308,-8.86557 -16.77263,-5.8588 l -0.20098,0.0989 c -6.07637,3.061 -8.61848,10.54042 -5.65814,16.67357 z m 17.43156,7.22581 c -6.99275,3.37044 -15.42509,0.42429 -18.79377,-6.56543 -3.31398,-6.87488 -0.47167,-15.25713 6.34004,-18.68659 l 0.22044,-0.11006 c 6.99419,-3.37045 15.42605,-0.4259 18.79792,6.56383 3.31366,6.87328 0.46944,15.25713 -6.34322,18.68818 l -0.22141,0.11007"
       style="fill:#406da5;fill-opacity:1;fill-rule:nonzero;stroke:none;stroke-width:0.03527778"
       id="path376"
       inkscape:connector-curvature="0" />
    <path
       d="m 99.03445,123.63931 c 1.45984,3.0259 4.00785,5.29732 7.1754,6.40273 3.16467,1.107 6.57611,0.91558 9.60138,-0.54234 l 0.19348,-0.0957 c 6.08259,-3.06579 8.62471,-10.54521 5.66484,-16.67836 -3.00788,-6.24003 -10.5326,-8.86716 -16.77407,-5.8604 l -0.20098,0.10049 c -6.076849,3.0594 -8.614174,10.54042 -5.66005,16.67358 z m 17.4322,7.2242 c -6.98972,3.37045 -15.4219,0.4243 -18.794894,-6.56702 -3.311745,-6.87169 -0.467842,-15.25394 6.344344,-18.68499 l 0.22428,-0.11007 c 6.98956,-3.36885 15.4203,-0.4243 18.79091,6.56543 3.31685,6.87329 0.47182,15.25394 -6.34419,18.68659 l -0.22045,0.11006"
       style="fill:#406da5;fill-opacity:1;fill-rule:nonzero;stroke:none;stroke-width:0.03527778"
       id="path378"
       inkscape:connector-curvature="0" />
    <path
       d="m 131.66269,117.78848 c 0.24548,-0.12441 0.41679,-0.37963 0.41855,-0.67153 0.002,-0.42111 -0.33465,-0.75927 -0.75337,-0.76246 l -7.58262,-0.0399 c -0.41823,-0.005 -0.76102,0.33337 -0.76006,0.75288 -9.1e-4,0.41633 0.33098,0.75927 0.75256,0.76087 l 7.57976,0.0399 c 0.12744,0.002 0.24229,-0.0287 0.34518,-0.0798"
       style="fill:#406da5;fill-opacity:1;fill-rule:nonzero;stroke:none;stroke-width:0.03527778"
       id="path380"
       inkscape:connector-curvature="0" />
    <path
       d="m 169.54454,121.66777 c 0.15504,-0.12123 0.2651,-0.29989 0.28967,-0.51044 0.0502,-0.41313 -0.24405,-0.79117 -0.65798,-0.84221 l -10.48283,-1.28724 c -0.41649,-0.0526 -0.79851,0.24564 -0.8478,0.65877 -0.0499,0.41473 0.2474,0.79276 0.66292,0.84381 l 10.48044,1.28565 c 0.20513,0.0271 0.40484,-0.0335 0.55558,-0.14834"
       style="fill:#406da5;fill-opacity:1;fill-rule:nonzero;stroke:none;stroke-width:0.03527778"
       id="path382"
       inkscape:connector-curvature="0" />
    <path
       d="m 97.050784,118.70407 c 0.232246,-0.11804 0.400529,-0.3573 0.415204,-0.63963 0.01755,-0.41952 -0.306259,-0.77203 -0.719709,-0.79117 l -2.588208,-0.12602 c -0.41329,-0.0208 -0.770911,0.30148 -0.790372,0.71939 -0.02217,0.41792 0.298284,0.77522 0.714924,0.79436 l 2.588368,0.12283 c 0.133191,0.006 0.264946,-0.0208 0.379793,-0.0798"
       style="fill:#406da5;fill-opacity:1;fill-rule:nonzero;stroke:none;stroke-width:0.03527778"
       id="path384"
       inkscape:connector-curvature="0" />
    <path
       d="m 129.15487,261.87221 c 1.20589,0.6859 -0.12713,4.11377 0.11262,7.75697 -3.56872,2.64946 -11.92656,3.20934 -15.61667,2.02418 -2.30204,-2.08 -1.77933,-7.92924 2.70386,-9.6344 3.02,-1.15006 5.20257,1.01289 6.13571,1.8567 0.59943,-0.37325 2.15163,-0.93313 2.15163,-0.93313 0,0 -0.36783,-1.35744 0.29142,-1.4994 0.71062,0.63166 2.06661,1.05756 4.22143,0.42908"
       style="fill:#9b3138;fill-opacity:1;fill-rule:nonzero;stroke:none;stroke-width:0.03527778"
       id="path386"
       inkscape:connector-curvature="0" />
    <path
       d="m 125.10444,262.18166 c 0.5141,0.42111 2.26185,1.83597 2.1856,3.8091 -3.51161,2.6064 -12.73735,3.47413 -13.58466,-1.27448 -0.45429,0.65239 -0.0419,-0.0495 -0.0643,-0.0654 -1.40848,2.48676 -1.10525,5.78542 0.43035,7.17157 3.63221,1.1692 11.4576,0.2903 14.97225,-2.31769 -0.7387,-3.25081 0.71444,-6.19696 -0.23321,-7.0296 -2.25084,0.80553 -3.70605,-0.2935 -3.70605,-0.2935"
       style="fill:#89282f;fill-opacity:1;fill-rule:nonzero;stroke:none;stroke-width:0.03527778"
       id="path388"
       inkscape:connector-curvature="0" />
    <path
       d="m 129.30625,267.81237 c -1.80103,0.78318 -6.96581,3.6129 -16.9414,1.50737 -0.72927,0.70662 -0.0861,2.58086 0.55717,2.98761 2.1159,0.74492 7.89144,2.33682 16.46526,-1.65252 0.79388,-0.59178 0.46321,-2.6048 -0.081,-2.84246"
       style="fill:#ebe6e5;fill-opacity:1;fill-rule:nonzero;stroke:none;stroke-width:0.03527778"
       id="path390"
       inkscape:connector-curvature="0" />
    <path
       d="m 129.2316,267.94954 c -0.0842,0.067 -0.35141,0.15952 -0.49305,0.23608 0.0348,0.49448 0.26846,0.83423 -0.0407,1.06074 -8.57462,3.99572 -16.25119,1.64454 -16.25119,1.64454 0,0 -0.0802,-0.0574 -0.19221,-0.17068 0.16126,1.06234 0.88081,1.57756 0.88081,1.57756 0,0 7.48692,2.1518 16.06138,-1.84075 0.79308,-0.59177 0.0349,-2.50749 0.0349,-2.50749"
       style="fill:#d8d3d1;fill-opacity:1;fill-rule:nonzero;stroke:none;stroke-width:0.03527778"
       id="path392"
       inkscape:connector-curvature="0" />
    <path
       d="m 126.39918,264.59665 c -0.0834,-0.0111 -0.16366,-0.0606 -0.21056,-0.14038 -0.96727,-1.64933 -2.27237,-0.96663 -2.32326,-0.93792 -0.13829,0.0766 -0.31072,0.0239 -0.38665,-0.11484 -0.0763,-0.14037 -0.0235,-0.31105 0.11501,-0.38761 0.018,-0.008 1.8468,-0.96982 3.08173,1.15325 0.0857,0.13559 0.0386,0.31424 -0.0999,0.3908 -0.0552,0.0335 -0.11931,0.0415 -0.17642,0.0367"
       style="fill:#eadedd;fill-opacity:1;fill-rule:nonzero;stroke:none;stroke-width:0.03527778"
       id="path394"
       inkscape:connector-curvature="0" />
    <path
       d="m 123.38476,265.98598 c -0.0633,-0.0622 -0.0962,-0.14994 -0.0841,-0.23927 0.25155,-1.89498 -1.19697,-2.15658 -1.2571,-2.16774 -0.15185,-0.0223 -0.26287,-0.17068 -0.23671,-0.3254 0.0254,-0.15633 0.17482,-0.2616 0.32938,-0.23607 0.0215,0.003 2.05609,0.36368 1.73212,2.7994 -0.0208,0.1595 -0.16621,0.26637 -0.32157,0.25042 -0.0649,-0.0111 -0.12091,-0.0415 -0.16206,-0.0813"
       style="fill:#eadedd;fill-opacity:1;fill-rule:nonzero;stroke:none;stroke-width:0.03527778"
       id="path396"
       inkscape:connector-curvature="0" />
  </g>
</svg>
