<svg id="Layer_1" data-name="Layer 1" xmlns="http://www.w3.org/2000/svg" viewBox="0 0 1000 1000">
  <defs>
    <style>
      .cls-1 {
        font-size: 130px;
        fill: #231f20;
        font-family: FreeSansBold, FreeSans;
      }

      .cls-2, .cls-6 {
        letter-spacing: -0.02em;
      }

      .cls-3, .cls-7 {
        letter-spacing: -0.02em;
      }

      .cls-4 {
        letter-spacing: 0em;
      }

      .cls-5 {
        letter-spacing: -0.01em;
      }

      .cls-6, .cls-7, .cls-8 {
        fill: #ed2024;
      }

      .cls-9 {
        fill: #231611;
      }

      .cls-10 {
        fill: #302119;
      }

      .cls-11 {
        fill: #a2897a;
        stroke: #897267;
        stroke-width: 3px;
      }

      .cls-11, .cls-13 {
        stroke-miterlimit: 10;
      }

      .cls-12 {
        fill: #846c60;
      }

      .cls-13 {
        fill: #898989;
        stroke: #6b6b6b;
      }

      .cls-14 {
        fill: #757576;
      }
    </style>
  </defs>
  <title>cave</title>
  <text class="cls-1" transform="translate(74 812.39)">c + <tspan class="cls-2" x="220.48" y="0">a</tspan><tspan class="cls-3" x="290.16" y="0">v</tspan><tspan class="cls-4" x="360.49" y="0">e = </tspan><tspan class="cls-5" x="580.97" y="0">c</tspan><tspan class="cls-6" x="651.95" y="0">a</tspan><tspan class="cls-7" x="721.63" y="0">v</tspan><tspan class="cls-8" x="791.96" y="0">e</tspan></text>
  <g>
    <path class="cls-9" d="M270.58,583.09s73.95,14.73,111.53,16.24,55.47,9.25,73.95,9.85,67.13,3.42,87.54-5.45,64.55-12.74,76.48-20.64,39.23-38.92,5.3-55-97.15-41.75-145.46-29.23-69.46,16.64-103.78,24.45-87.67,27.44-91.55,35.79S270.58,583.09,270.58,583.09Z"/>
    <path class="cls-10" d="M315.31,554.9s24.45,13.72,29.22,7.76,8.35-14.32,19.69-15.51,11.92-6.56,20.27-9.54,15.51-3,37,0,39.37,11.93,47.12,6-7.16-14.31,22.07-17.89,59.64,0,86.48,0,57.27-8.65,53.67-25S573.56,349.14,571.17,342s-74.55-76.34-74.55-76.34L406.56,268,312.33,374.19l-41.75,110Z"/>
    <path class="cls-11" d="M210.34,575.78S246.13,589.5,264,589.5s37,11.33,48.9,0,25.65-34,28-49.51,1.79-66.79,4.17-79.32,14.91-26.24,25.65-32.8,13.12-44.73,23.85-63.22,29.23-59,52.49-65,56.06,35.19,65.6,60.24,7.76,63.81,19.09,74.55S550.3,452.32,550.3,466s-8.95,57.85-17.3,74.55-4.77,45.86,4.18,53.94,121.07,4.44,152.68,0,97.22-8,100.79-24.12-7.75-32.8-7.15-53.68,3.58-35.18-5.37-54.27-22.07-22.66-23.86-36.38-13.12-42.35-15.5-51.29-28.63-38.17-33.4-48.91,7.75-33.4-14.91-56.06S641,222.7,621.87,213.16s-32.21,1.19-50.1,0-32.21-4.77-35.19-6.56-42.34-48.91-94.83-16.11-72.76,50.7-76.94,59,1.79,23.86-3.58,32.21-44.13,29.82-51.88,42.34-21.47,27.44-26.25,43.54-1.19,27.44-12.52,40-20.86,37.87-25.65,57.26-7.75,50.69-16.1,64.41S203.18,565.64,210.34,575.78Z"/>
    <path class="cls-12" d="M299.65,587.11c-5.36-1.79-20.57-6.26-13-19.68s17.45-21.47,24.16-38.92,10.29-34,8.94-52.33-9.73-23.71.28-36.68,17.62-17,22.54-30,1.79-21.47,11.18-28.63,15.66-4.92,24.15-19.68S407,325,411,321,422.67,312,422.67,312s-37.13,60.73-41.16,77.11S375.25,416.69,369,423s-19.68,15.65-23.71,23.26S339,487.36,339.47,507s-4.48,39.37-7.16,44.73-16.11,29.53-19.68,31.76S299.65,587.11,299.65,587.11Z"/>
    <path class="cls-12" d="M602.48,304s12.08,20.13,17,41.6,11.19,34.45,6.71,35.34,1.78,2.24,4.92,10.29,4,15.65,8.5,34.44,6.26,34,6.26,38.47,3.14-19.68,2.24-29.52-9.39-40.16-11.18-50.28,3.13-15.48-2.24-30.69-4-22.81-13-33.1A92.41,92.41,0,0,0,602.48,304Z"/>
    <path class="cls-12" d="M653.93,340.19c0-4.47-4-26.39-10.74-36.23S632,284.73,623.06,278.47s-10.29-.9-20.58-9-11.18.45-11.18-10.74,2.24-13-2.68-19.23-7.61-9.39-16.11-15.66-14.38-14.15-20.38-13.11-16.29-2.12-14.51-.09,20.58,9.18,31.32,23,13.42,15.66,14.76,25-1.1,13.87,12,18.79,23.08,8.05,29.71,13.87,8.42,6.26,13.34,17S653.93,340.19,653.93,340.19Z"/>
    <path class="cls-12" d="M712.08,350.48s-4,12.08,4.92,19.24,11.18,9.73,17,19.4,9,14.59,10.29,21.3,1.05-6.59,0-14.31-7.15-17.45-11.63-25.5-2.68-8.5-9.84-12.52S713.42,356.3,712.08,350.48Z"/>
    <path class="cls-12" d="M420.43,231.5s-21,9.84-27.73,17.89S371.22,270,370.33,272.2s-4.92,8.95-4.92,8.95V267.73a150.34,150.34,0,0,0,17.44-16.1c7.61-8.5,9.89-14.32,21.48-16.11S420.43,231.5,420.43,231.5Z"/>
    <path class="cls-13" d="M262.08,599.33c2.18-.94-8.5-16.24-12.08-16.24s-17.44,6.26-18.78,10.73S229.5,613.33,262.08,599.33Z"/>
    <path class="cls-13" d="M329.18,597.4s-14.76,9.26-27.74,7.76-19.23.61-24.6-3.8,0-18.27,13-25.88,39.81-3.13,43.39,7.61S329.18,597.4,329.18,597.4Z"/>
    <path class="cls-13" d="M577.88,583.09c-4.49-1.27-31.72-2.59-40.46,5.41s-23.06,10.1-11,16.66,11.18,11.47,30.87,8.79,32-3.13,38.36-6.71S595.33,588,577.88,583.09Z"/>
    <path class="cls-14" d="M539.41,590.69s-13,8.95,0,12.08,24.16,4.78,34,2.39S594,599.33,594,599.33s-.15-3.5-1-4.84,3.5,4,3.13,7.08-4.1,6.12-7.46,6.19-27.66,4-30,4.33-14.32.89-15.21.44-13.35-7.38-15.13-8.87-7.09-1.49-4.1-3.58S532.26,591.06,539.41,590.69Z"/>
    <path class="cls-14" d="M321.42,576.82c.38.15,5.82,4.7,4.92,8.35s-3.87,8.8-6.63,10.07-5.74,4.4-12.23,4.47-15.65,1.42-19.46,1.12-11-1.5-11-1.5a18.31,18.31,0,0,0,8.28,3.51c4.54.52,18.26,1.19,21.84.75s18.26-4.7,20.05-6.64,5.3-5.34,5.37-8.45-.15-7.35-2.31-8.84S321.42,576.82,321.42,576.82Z"/>
  </g>
</svg>
