<svg id="Layer_1" data-name="Layer 1" xmlns="http://www.w3.org/2000/svg" viewBox="0 0 1000 1000">
  <defs>
    <style>
      .cls-1 {
        font-size: 130px;
        font-family: FreeSansBold, FreeSans;
      }

      .cls-1, .cls-23 {
        fill: #231f20;
      }

      .cls-2, .cls-5 {
        letter-spacing: -0.02em;
      }

      .cls-3, .cls-6 {
        letter-spacing: -0.02em;
      }

      .cls-4 {
        letter-spacing: -0.01em;
      }

      .cls-5, .cls-6, .cls-7 {
        fill: #ed2024;
      }

      .cls-8 {
        fill: #7e7e7e;
        stroke: #636464;
      }

      .cls-11, .cls-12, .cls-13, .cls-15, .cls-16, .cls-17, .cls-19, .cls-25, .cls-26, .cls-27, .cls-30, .cls-31, .cls-35, .cls-36, .cls-8 {
        stroke-miterlimit: 10;
        stroke-width: 3px;
      }

      .cls-9 {
        fill: #555453;
      }

      .cls-10 {
        fill: #363636;
      }

      .cls-11 {
        fill: #fed2a5;
        stroke: #d7a57c;
      }

      .cls-12 {
        fill: #fdb515;
        stroke: #bc832c;
      }

      .cls-13, .cls-24 {
        fill: #fff;
      }

      .cls-13 {
        stroke: #b3b3b3;
      }

      .cls-14 {
        fill: #ea9723;
      }

      .cls-15 {
        fill: #214099;
        stroke: #26397d;
      }

      .cls-16 {
        fill: #bcbcbc;
        stroke: #9b9b9b;
      }

      .cls-17 {
        fill: #3555a5;
        stroke: #1e4398;
      }

      .cls-18 {
        fill: #e9bf98;
      }

      .cls-19 {
        fill: #51423d;
        stroke: #3f342f;
      }

      .cls-20 {
        fill: #5d4d49;
      }

      .cls-21 {
        fill: #e8a1af;
      }

      .cls-22 {
        fill: #e591a9;
      }

      .cls-25 {
        fill: #adaaad;
        stroke: #898989;
      }

      .cls-26 {
        fill: #febc2b;
      }

      .cls-26, .cls-27 {
        stroke: #cb902b;
      }

      .cls-27 {
        fill: #faed35;
      }

      .cls-28 {
        fill: #feda21;
      }

      .cls-29 {
        fill: #f8e839;
      }

      .cls-30 {
        fill: #551d12;
        stroke: #471711;
      }

      .cls-31 {
        fill: #454644;
        stroke: #262626;
      }

      .cls-32 {
        fill: #3e3e3d;
      }

      .cls-33 {
        fill: #5c5b5a;
      }

      .cls-34 {
        fill: #525350;
      }

      .cls-35 {
        fill: #616261;
        stroke: #4f4f4f;
      }

      .cls-36 {
        fill: #ee3324;
        stroke: #e42526;
      }

      .cls-37 {
        fill: #fffffc;
      }
    </style>
  </defs>
  <title>pave</title>
  <text class="cls-1" transform="translate(65 805.39)">p + <tspan class="cls-2" x="227.63" y="0">a</tspan><tspan class="cls-3" x="297.31" y="0">v</tspan><tspan x="367.64" y="0">e = </tspan><tspan class="cls-4" x="588.12" y="0">p</tspan><tspan class="cls-5" x="666.25" y="0">a</tspan><tspan class="cls-6" x="735.93" y="0">v</tspan><tspan class="cls-7" x="806.26" y="0">e</tspan></text>
  <polygon class="cls-8" points="124.79 604.29 890 604.29 861.02 351.59 160.21 351.59 124.79 604.29"/>
  <path class="cls-9" d="M314.07,522.75s-45.37,5.39-52.11,13-24.71,16.62,6.29,21.12S356.3,572.17,372,572.17s48.52-4.94,83.11,0,80.42-.45,106-1.35,80.87.9,97.94-6.74,34.14-26.5,40.43-26.5,65.59-8.09,68.28-11.68-18.86-24.71-48.06-23.36-47.17-.45-89.4-4.94S496.46,499.39,470,501.19s-98.38,11.68-113.66,13.48S314.07,522.75,314.07,522.75Z"/>
  <polygon class="cls-10" points="861.02 351.59 861.02 334.24 160.43 334.52 160.21 351.59 861.02 351.59"/>
  <g>
    <path class="cls-11" d="M732,334.64s3.53,11.43,4.57,14.12,5.13,22.17,5.41,23.06c.55,1.76,1.23,1.63,2,3.75s1.56,5.12-1.23,8.41S733,389.8,730,388.59s-1.85-5-1.85-5-.71,1.51-1.58,1.29-1.28-4.58,1.79-7.34l-1-3.38-4.62-19.46-12-29.76,16.47-6.56Z"/>
    <path class="cls-11" d="M617.51,336.62s-3.65,11.42-4.73,14.1-5.28,22.21-5.57,23.1c-.56,1.76-1.28,1.6-2,3.71s-1.61,5.11,1.3,8.56,10.17,6.29,13.19,5.19,1.92-4.94,1.92-4.94.74,1.56,1.65,1.37,1.31-4.58-1.89-7.5l1.07-3.37,4.76-19.5,12.42-29.61-17.15-7.31Z"/>
    <path class="cls-12" d="M677.66,383.72s11.05,1.32,26.72-2.05c0,0,8.25-40.92,8-42.59s5.82,9.86,5.82,9.86l20.29-8.55s-11.36-33.59-15.37-39.2-12.93-8-12.93-8-15.48-5.48-20.78-6.5-31,1.71-31,1.71-12.57,3.27-19,5.63S616.12,329,612.75,335.82l20.92,11.05,6-13.11s9.88,47,10.19,49.18S677.66,383.72,677.66,383.72Z"/>
    <path class="cls-11" d="M685.84,295.69s.91-8.64.91-8.88a10.24,10.24,0,0,0-.65-1.5l-4.81-4.54-19.35.62-2,5.8.3,9.32,9,4,11.2-1.32Z"/>
    <path class="cls-13" d="M659.66,292.22s1.12,5.23,12.37,5.59,14.45-4.53,14.45-4.53l2.46,2.31-10.51,7.75-5.17,3-13.86-7.21Z"/>
    <path class="cls-14" d="M720.67,300.55a38,38,0,0,0-10.94-5.63c-4.1-1.06-6.75-1.46-9.9-2.79s-5.59-2.93-7.51-3.11-4.85-2-4.06.13a24,24,0,0,1,1.08,4s17.39,5.19,21.72,6,6,1,7.71,1.91S720.67,300.55,720.67,300.55Z"/>
    <path class="cls-14" d="M657,291.35c-2.15.07-12.12,2.31-14.49,3.1a12.2,12.2,0,0,0-4.7,2.54c-.7.74-4.87,4.7-3.68,4.66s6.91-.7,9.24-2.68a14.19,14.19,0,0,1,7.06-3.58c2.85-.57,6.92-.46,6.67-.93A13.06,13.06,0,0,1,657,291.35Z"/>
    <path class="cls-14" d="M708.81,352s1.74-5.32-2.8-12.59-4.53-7-7.27-10.52-4.61-2-10.59-2.06-11.49-.34-18.87.61-12.65.88-15,2.16a10.59,10.59,0,0,0-4.36,5.64c-.43,1.45-2.75,3.91-4,2.28s-1.82-4.73-3.8-6.82-3.67-2.51-4.59-1.28A67.5,67.5,0,0,0,633,337.2a3.69,3.69,0,0,1-5.44,1.85,52.13,52.13,0,0,0-8-2.85l12.8,8.73s5.42-7.16,5.35-9.31.84-3.62,2-3.65,3.3,5.87,3.32,6.58a56.85,56.85,0,0,0,1.56,9.63c1,3.45,0,8,1.8,5.81s12.19-7.8,20.87-5.45,14.73,4.31,21.74,6.47S708.81,352,708.81,352Z"/>
    <path class="cls-15" d="M641.47,388.71s-.48,28.36-.41,36.11.39,24.15,0,31.22.48,13.48.62,16.85,1.8,17.05,1.8,17.05l21.36-.31s4.92-30.88,5.7-38.31c.82-7.7,2.93-20.55,5.06-28s5.16-19.54,5.16-19.54,3.79,21.78,5.73,32.23,3,26.95,5.21,35.71a85.36,85.36,0,0,1,2.58,13.41c.34,2.69.53,5.48.53,5.48l21.33.43s-1-53.47-.67-59.35-1.81-30.34-1.81-35.21-.24-12.37-.24-12.37-59.35-2.55-63.52-1.21a30.86,30.86,0,0,1-8.84,1.21Z"/>
    <path class="cls-15" d="M713.66,387.59s-10,1-21.69,2.37-24.41-.65-32.3-.4-17-.17-18.2-.85.68-23.46.57-27-1.73-10.86,1.53-12.68,8-10.83,9.35-13.26,3.93-4.19,17.55-4.63,25.62-.54,27.78,1,3.32,6.83,4.09,8.48,3.8,6.57,5.75,7.7,2.47,2.32,3.47,3.72,1.56,11.43,1.2,15S713.66,387.59,713.66,387.59Z"/>
    <path class="cls-15" d="M645.75,291s3.33,21.89,3.68,25.23,2.65,15.7,3,18.08.46,6.92,1.2,7.61,7.71,1.91,8.07-1.93-1.85-12.85-2.74-18.33-3.91-24.74-4.24-27.6-.41-5.49-1.61-5.45S645.72,290,645.75,291Z"/>
    <path class="cls-12" d="M673.49,305.89s8.68-5.06,10.7-9.19,1.59-10.1,1.56-11.05,5.72-.66,6.78,2.65a24.62,24.62,0,0,1,.67,13.37s-1.08,3.62-2,4.61c0,0-2.8-5.17-6.37-4.82s-8.26,3.61-9.2,4.12l-2.35,1.27s-11.62-4.41-12.12-5.11c0,0-3.07,1.3-5.55,5.92a30.44,30.44,0,0,1-2.31-12.36c.26-6.71.28-6.23,2.13-8s4.72-2.07,5.22-1.37-.72,7.2,1.06,10.73,6.66,6.25,8.37,7.39A19.93,19.93,0,0,0,673.49,305.89Z"/>
    <path class="cls-14" d="M733.54,336.49s-4.18,4-6.06,5-5.63,3.29-7.6,1.68-2.72-3-4.2-4.17-.91,1.23-.42,1.69,2.6,6.37,3.79,6.34,12.26-5.42,14.14-6.68,3.5-2.74,3.23-3.45-1.54-3.3-1.54-3.3Z"/>
    <path class="cls-15" d="M696.83,287.92s-3.75,25-3.88,28.11-2.16,14.89-2.08,17.28-1.21,7-.22,8.14,7,3.12,7.86-1.21,3.65-27.62,4.19-33.37,2.3-17.54,1.58-17.75S698,287.64,696.83,287.92Z"/>
    <circle class="cls-16" cx="657.38" cy="338.01" r="2.99"/>
    <circle class="cls-16" cx="694.69" cy="338.25" r="2.99"/>
    <path class="cls-17" d="M661.19,381c-.6-1.38-1-17.66-.63-19.83s4.14-4.91,10.12-4.87,19.36-.38,20.57.06,3.86,1.07,4.32,7.75,1.48,16.46-1.36,17.27S662.23,383.38,661.19,381Z"/>
    <g>
      <path class="cls-11" d="M635.22,260s9.52,22.48,26.79,25.12,29.23-2.8,33.14-5.46,10.93-12.48,14-21c0,0,9-2,8.8-8.28a11,11,0,0,0-5.36-9l-6.66-20.85-24.28-5-30.85,6.32L633,231.5l-5.53,10.44s-8.2,6-2.61,13.94C624.83,255.88,627.89,259.92,635.22,260Z"/>
      <path class="cls-18" d="M709.71,241.1c0-.4-3.4-6.16-4.89-7l-2.7,7.15s0-5.6-.62-6.65-4.85-6-4.85-6l-6.11-3.54,4.54-3.88,4.93.11,4.76,2.78,3.72,8.15,1.72,7.8Z"/>
      <path class="cls-19" d="M708.87,254.25a42.32,42.32,0,0,0,5.47-16.17c.8-8.55-.9-15.83-5.2-20.89S700.28,207,694,205.29c0,0-11.18-12-21.31-12s-21.6-.37-33.32,8.27S626,230.52,626,230.52s9.29-3.17,1.37-5.18c-1.19-.3-4.92,10.89-.7,13.42.45.28.38,1.11.43,1.32,1.1,5.21,3.3,11.49,7.72,16,0,0-1-14.36-.36-15.31,0,0,31.09,1.13,43.68-5.13s17.73-12.3,17.73-12.3,6.53,12.58,6.14,17c0,0,2.08-9.93,2-13.25,0,0,4.51,7.71,5,11.69S710.2,250.08,708.87,254.25Z"/>
      <path class="cls-20" d="M693.6,206.23s-10.07-10.47-16.35-11.2a114.62,114.62,0,0,0-19.2-.05c-1.59.31-6.6,1.94-6.6,1.94s23.73,0,26.83,1.41,4.19,1.73,6.11,3.26a58.47,58.47,0,0,1,5.61,4.76l2.24,3.12s13.61,4.76,14.73,6.46c0,0-5.68-6.75-8.65-8A44.71,44.71,0,0,0,693.6,206.23Z"/>
      <path class="cls-21" d="M653.32,267.49c.06-.24,35-.83,36.35-.95s1.79,5.93-4.28,7.7-21.89,3.25-27.06-.11S653,268.85,653.32,267.49Z"/>
      <path class="cls-22" d="M683,273.61a35.14,35.14,0,0,1-10.19,2.19,29.91,29.91,0,0,1-11.11-1.51s5.08-3.63,10.42-3.13S682,272.84,683,273.61Z"/>
      <path class="cls-20" d="M690.56,225.72s-6.76,5.41-10.82,7.41-11.49,3.3-17.92,2.31a60.85,60.85,0,0,1-11.7-3.09,20.3,20.3,0,0,0-3.64,2.78c-.9,1.09-1.52,2.45-4,3.46s-8.51.67-8.51.67,9.19-6.57,10.7-8.21,4.87-5.08,7.46-3.43,11.22,5.24,14.92,4.18,10.18-2.72,14.54-3.93S690.56,225.72,690.56,225.72Z"/>
      <path class="cls-19" d="M649.32,238.44s2.22-1.54,3.83-1.06a11.78,11.78,0,0,1,3.26,1.76s-1.7-3.14-3.3-3-2.25.34-2.9.9A3.17,3.17,0,0,0,649.32,238.44Z"/>
      <path class="cls-19" d="M683.13,237.08s1.94-1.66,3.15-1.43a10.19,10.19,0,0,1,2.7,1.11,5,5,0,0,1,1.09.77s-1-2.37-2.62-2.72a4.17,4.17,0,0,0-3.44.65A7.36,7.36,0,0,0,683.13,237.08Z"/>
      <path class="cls-11" d="M671.26,251.39s-1.77-1.27-2.69-.71-2.76,1.29-1.64,2.72,3.62.81,3.62.81"/>
      <path class="cls-18" d="M710.7,255.32a23.49,23.49,0,0,1,1.39-2.31c.77-1.09,2.39-.47,1.8-2s-.62-2.65,0-3.34,2.51-.74,2.67.32.39,3.72.1,2.93-1.17-3.3-1.67-2.22.18,1.6-.18,2.81S711.22,254.91,710.7,255.32Z"/>
      <path class="cls-18" d="M632.11,256.51s-1.3-3-2.11-3.39-.81-.38-.87-2.11,0-3.73-1.06-4.09-3,.89-3.26,2.1a8.79,8.79,0,0,0,.09,2.8s.57-2.95,1.63-3.12,1.22.62,1.26,2.09-.18,2.54.64,3.31A32.85,32.85,0,0,0,632.11,256.51Z"/>
      <circle class="cls-23" cx="652.37" cy="246.56" r="3.79"/>
      <circle class="cls-24" cx="650.47" cy="245.19" r="0.89"/>
      <circle class="cls-23" cx="686.62" cy="245.5" r="3.79"/>
      <circle class="cls-24" cx="684.72" cy="244.12" r="0.89"/>
      <path class="cls-19" d="M634.47,240.78s-6.46-1.41-8.87-3.66"/>
    </g>
    <g>
      <path class="cls-25" d="M707.92,231.36s-2.73,26.64-4.24,31.71-4.58,13.78-4.58,13.78,4.2-3.25,6.36-10.49,6.39-32,6.39-32Z"/>
      <path class="cls-25" d="M635,232.75s3.1,22.14,3.73,26.9,6.5,16.3,6.51,16.54a21.35,21.35,0,0,1-4.92-4.15c-1.17-1.53-10-36.75-9.83-38.19S635,232.75,635,232.75Z"/>
      <path class="cls-26" d="M627.1,234l-3.39-.06s-2.84-28.35,18.09-45.27c0,0,9.65-8,27.83-9S707,194,711,203.82s6.35,17.11,7.7,31.57l-9.47-.61s-28.84-9.77-41.79-8.54S627.1,234,627.1,234Z"/>
      <path class="cls-26" d="M649.07,225.42s.77-27.25,3.18-36.37l2.52-8.59a48.48,48.48,0,0,1,28.26,0s8,28.29,6,45.09Z"/>
      <path class="cls-27" d="M625.1,234s10-8.43,21.16-9.53,26-4.61,51.48,1.86c0,0,12.29,4.33,17.2,8.86,0,0-6.86,2.83-11.59,2.52s-17.19-5.08-34.55-5-29,4.76-32.25,5.46S625.48,235.28,625.1,234Z"/>
      <path class="cls-28" d="M656.19,183.36c1,0,13.09-1.79,16.36,3.66s6.55,15.73,4.93,22.52-12.43,8.36-16.55,8.46-9.12,3.34-8.71-1.85S656.19,183.36,656.19,183.36Z"/>
      <path class="cls-28" d="M648.74,186.07c1.89-.42-.14,4.05-1.4,5.4s-10,6.48-11.58,8.71-5.47,8.17-5.47,8.17,4.91-10.73,7.62-13.74S646,186.66,648.74,186.07Z"/>
      <path class="cls-28" d="M686.43,185.32c.55.15,2.74,4.23,3.1,4.69s8.85,3.69,9.29,3.33-3.49-4.07-5-5.08S686.43,185.32,686.43,185.32Z"/>
    </g>
    <path class="cls-29" d="M631.48,233.23c1.21,1.27,4.6,2.59,8.63,1.51s14.22-4.05,24.49-4.61,17.18-1,23.48,1.39A53.77,53.77,0,0,0,700.63,235c2.64.39,7.89,0,6.92-.46s-12.88-6.29-21.77-7.68-19.39-2.26-27.86-.9-17,3.06-20.1,4.36S631.48,233.23,631.48,233.23Z"/>
    <path class="cls-30" d="M692.22,479s1.68,15.4,1.68,17v13.27s14.32,6.06,19,7.58,8.59,2.52,10.78,2.52,6.74-5.28,4.55-9-8.42-7.63-9.77-9.15-2.59-23.08-2.59-23.08H694.07Z"/>
    <polygon class="cls-30" points="691.38 475.41 717.32 476.26 717.32 479.63 691.38 480.81 691.38 475.41"/>
    <path class="cls-30" d="M641.49,480.81s1.88,12.88,1.37,15.2-8.09,4.17-11.12,7-1.85,11.06,0,11.51,20.22-2,25.44-4.21,6.74-4.21,6.74-4.21l2.31-25.32Z"/>
    <path class="cls-30" d="M667.62,479s-13.47.19-16,0-10.77.08-10.77.08v3.44h26.77Z"/>
  </g>
  <path class="cls-31" d="M271,549.26l11.22-.07c17.7-.11,52.29-.26,75,.07,31,.45,47.17.45,63.79,5.39s23.81,13,39.53,7.19,18.87-9.44,44.93-8.09,53,4.53,84,2.72,62.44-5.81,72.77-7.41,16.63,3.34,16.63-2.95.89-22.91-5.4-30.54-8.08-14.38-27.4-24.71-40.43-16.18-50.76-29.65-3.15-14.83-20.22-22.46-32.34-22.47-51.21-25.61-28.75-8.09-43.58-6.29-43.13,15.72-55.7,19.77-21.57,6.29-25.16,13.47-1.8,18.31-9.89,25.33-12.12,8.37-20.21,16.45-11.23,13.48-27,18.42-27.85,13.48-33.69,16.62-13.92,7.19-19.76,14.38-15.73,10.33-18,13A3.58,3.58,0,0,0,271,549.26Z"/>
  <path class="cls-32" d="M518.48,433.8c-6.29-1.79-8.09-3.59-14.38,0s-10.78,8.54,0,9.44,18,1.79,18.42,0S518.48,433.8,518.48,433.8Z"/>
  <path class="cls-32" d="M443,459.86c-5.84.9-13.46,4.64-5.84,5.13s11.24-.45,10.79-2.57S443,459.86,443,459.86Z"/>
  <path class="cls-32" d="M543.63,472c-6.29-.9-19.31-4-13.92,0s16.62,9.21,17.52,5.95S543.63,472,543.63,472Z"/>
  <path class="cls-32" d="M584.51,506.13c-4.49,0-18,4.94-8.53,5.39s10.33,6.29,9.43.45Z"/>
  <path class="cls-33" d="M516.23,514.55c-2.25,1-8.09,1.46-3.14,3.71s11.23,7.19,11.68,2.7S516.23,514.55,516.23,514.55Z"/>
  <path class="cls-34" d="M474.42,518.67c-.39-6.63-15.69-4.09-8.95,0S474.84,525.81,474.42,518.67Z"/>
  <path class="cls-32" d="M384.15,516.46c-10.33-.45-10.78-1-19.31,2.21s-17.52.44-13.48,4.28,18.87,7.89,25.16,5.64S384.15,516.46,384.15,516.46Z"/>
  <path class="cls-32" d="M451.09,548.81s-7.21-3.15-10.12,0-8.77,6.29,0,7.64,16.86,3.14,16.41,0S451.09,548.81,451.09,548.81Z"/>
  <path class="cls-32" d="M579.19,543s-14,0-16.69,2.24,2.77,6.29,8.35,4A19.63,19.63,0,0,0,579.19,543Z"/>
  <path class="cls-32" d="M414.25,477.94s-1.34-1.68-4.49,0-7.19,6-1.8,7.23,11.68,3.75,11.23,0S414.25,477.94,414.25,477.94Z"/>
  <path class="cls-35" d="M333.39,444.27c-24.3-1.95-58.83-1.65-63.44,0s18.29,12.44,43.22,12.44S342.17,445,333.39,444.27Z"/>
  <path class="cls-35" d="M260.61,574.23c-12.81-.71-38.41-2.29-35.71,3.11s24.26,11.45,31.67,7.41S274.1,575,260.61,574.23Z"/>
  <path class="cls-35" d="M776.79,582.73c-5.35-.67-42.83-8.09-61.85,0s-10.44,13.47,13.91,12.13S786.91,584,776.79,582.73Z"/>
  <path class="cls-35" d="M843.5,382.41c-7.41-1.84-22.91-3.94-51.89.14s-47.46,1.87-50,6.35,12.95,13.18,34.52,11.86,47.17-4.36,55.93-9.24S843.5,382.41,843.5,382.41Z"/>
  <g>
    <polygon class="cls-35" points="289.92 211.56 283.56 409.18 292.59 410.14 304 195.94 289.92 211.56"/>
    <path class="cls-36" d="M294,129.21s10.2-7.91,15.87.47,51.4,84.06,51.4,84.06,6.45,14.26-9.19,16.19-109.75-4.51-109.75-4.51-19.82-2.68-9.49-18.61S294,129.21,294,129.21Z"/>
    <path class="cls-37" d="M294.47,139.59s8.16-7.89,14.62,1l42.37,70.07s8.37,12.95-7.14,12.45l-95.53-5.75s-12.3-1.94-3.65-14.16Z"/>
    <path class="cls-35" d="M254.12,209.62s10.84,3.67,14.38,4.16a87.54,87.54,0,0,0,12.8.95c6.29.07,11.63,1.78,12.17.19s-1.23-5.33-5.06-7.32-4.59-5.41-5.83-8.08-5.71-7.11-10.66-6.89-12,4.87-14.24,7.93S254.12,209.62,254.12,209.62Z"/>
    <circle class="cls-35" cx="301.48" cy="165.05" r="5.38"/>
    <path class="cls-35" d="M303.73,172.14c.55-.06,13.49,2.28,15.95,4.55s4.73,4,3.05,5.42-4.3,4.48-4.63,2.56-.2-3.42-3.06-4.07-6.22-2.22-4.56.45,6,10.91,7.15,12.88,5.41,6.87,8,10.1,5.84,8.08,5.91,8.77-1.95,4.24-4.25,2.24-5.9-6-9.12-8.87-3.62-4.11-5-4-7.12,4.34-7.45,5.21-1.18,2.08-.19,3.65,4.3,3.9,1.63,3.75-.82,2.93-4.11-.61-5-5.19-4.62-5.78,13.48-13.26,13.48-13.26l-6-12.62s-.81,10.13-2.13,10.82-4.55,2.83-4.78.76,2.78-20.81,2.78-20.81Z"/>
    <path class="cls-35" d="M321.1,181.16,294.28,198l-1,.65s-3.66-3.07-4.53-2-3.26,3.71-1.6,5,5.57,1.26,6.64-.67"/>
  </g>
</svg>
