<svg id="Layer_1" data-name="Layer 1" xmlns="http://www.w3.org/2000/svg" viewBox="0 0 1000 1000">
  <defs>
    <style>
      .cls-1 {
        font-size: 150px;
        fill: #231f20;
        font-family: FreeSansBold, FreeSans;
      }

      .cls-2 {
        letter-spacing: -0.01em;
      }

      .cls-3 {
        letter-spacing: -0.01em;
      }

      .cls-4, .cls-5 {
        fill: #ed2024;
      }

      .cls-4 {
        letter-spacing: -0.01em;
      }

      .cls-5 {
        letter-spacing: 0em;
      }

      .cls-10, .cls-11, .cls-6 {
        fill: #d9a980;
      }

      .cls-11, .cls-12, .cls-13, .cls-15, .cls-6 {
        stroke: #b27f66;
      }

      .cls-11, .cls-12, .cls-13, .cls-15, .cls-16, .cls-6, .cls-9 {
        stroke-miterlimit: 10;
      }

      .cls-15, .cls-6 {
        stroke-width: 3px;
      }

      .cls-7 {
        fill: #c59175;
      }

      .cls-8 {
        fill: #8d402c;
      }

      .cls-9 {
        fill: #633c35;
        stroke: #573631;
      }

      .cls-11, .cls-12, .cls-13 {
        stroke-width: 2px;
      }

      .cls-12, .cls-14 {
        fill: #3f3c3b;
      }

      .cls-13 {
        fill: none;
      }

      .cls-15 {
        fill: #fff;
      }

      .cls-16 {
        fill: #181717;
        stroke: #e6e7e7;
        stroke-linecap: round;
      }

      .cls-17 {
        fill: #010101;
      }

      .cls-18 {
        fill: #b27f66;
      }

      .cls-19 {
        fill: #e6e7e7;
      }
    </style>
  </defs>
  <title>face</title>
  <text class="cls-1" transform="translate(34.19 801.67)">f + <tspan class="cls-2" x="220.95" y="0">a</tspan><tspan x="302.85" y="0">ce = </tspan><tspan class="cls-3" x="640.65" y="0">f</tspan><tspan class="cls-4" x="688.35" y="0">a</tspan><tspan class="cls-5" x="770.25" y="0">ce</tspan></text>
  <g>
    <path class="cls-6" d="M329.39,330.84s-25.25-113.26-9.06-150.16S425.18,113.37,510,115.31s155.34,42.07,165.69,70.55,0,133.33-3.23,151.46c0,0,11-23.95,22-22.66S717.09,333.43,714.5,358s-18.77,52.43-18.77,52.43-21.36,33.65-33,5.17c0,0-7.77,42.07-19.42,65.38s-42.07,62.13-55,75.08-38.19,45.3-71.2,45.3-53.08-3.23-60.2-6.47-49.19-44-68.6-68.61-29.78-42.72-37.54-61.49-10.36-44-10.36-44-15.53,19.42-31.07-9.71-18.12-40.77-18.77-49.84-.65-36.89,11.65-42.71S322.27,317.9,329.39,330.84Z"/>
    <path class="cls-7" d="M685.37,404.63s-7.76,8.41-11,9.06-5.82-8.41-4.53-18.77,17.48-63.43,20.06-64.72,11.65,3.23,14.89,16.82,1.94,25.25,0,24.6-8.41-4.53-10.35-2.59,2.58,9.71-3.89,15.54-8.41,7.12-7.12,11.65A83.27,83.27,0,0,1,685.37,404.63Z"/>
    <path class="cls-7" d="M335.21,411.1c.65-1.29,0-33-8.41-54.37s-13.59-34.3-20.07-23.94-8.41,35.59-8.41,37.54,8.41-3.24,10.36-2.59,3.88,2.59,3.88,7.76,4.53,6.48,6.47,12.95,1.3,9.71,0,13.59,3.24,7.77,9.06,10.36S335.21,411.1,335.21,411.1Z"/>
    <path class="cls-7" d="M346.86,431.81c1.94,2.59,48.55,96.44,95.8,126.87s66.66,33,76.37,33,28.48-3.23,28.48-3.23a71,71,0,0,1-35.6,9.71c-20.71,0-49.84-3.89-55.66-7.77s-51.13-46.6-63.43-63.43S361.75,486.18,354,465.47,346.86,431.81,346.86,431.81Z"/>
    <path class="cls-8" d="M432.3,476.47s37.54,16.19,76.37,12.95,52.43-7.77,53.73-8.41,11-6.48,11-6.48a68.15,68.15,0,0,1-44,20.71c-27.83,1.95-53.72.65-70.55-4.53S432.3,476.47,432.3,476.47Z"/>
    <path class="cls-7" d="M483.43,533.43c1.94,0,36.25.65,38.84,0s-18.13,11-25.25,8.42S483.43,533.43,483.43,533.43Z"/>
    <path class="cls-9" d="M462.72,303s-28.48-23.95-53.07-25.24-49.2,13.59-49.84,14.24-12.95,12.3-11.65,14.89S379.87,295.24,398,294,436.83,290.07,462.72,303Z"/>
    <path class="cls-9" d="M561.75,286.18s27.18-12.29,45.31-8.41,33,11,41.42,22,0,7.76-6.47,5.82-34.31-12.3-50.49-12.3-42.72,0-55.66,10.36Z"/>
    <path class="cls-7" d="M483.43,365.8s-10.35,26.53-12.94,30.42-5.83,10.35-9.71,16.18-9.06,11.65-7.12,17.47,12.3,11.65,18.77,12.3,18.77-17.48,18.77-18.12,2.59-41.43,2.59-42.07S483.43,365.8,483.43,365.8Z"/>
    <g>
      <path class="cls-10" d="M520.26,438.33l-4.39,4.05-3.78,2.86-4.65,1.29-5.33.49s-5.82-.16-7.53-.85-3.83-.77-5.79-2.07a19.32,19.32,0,0,1-4.85-4.09c-.91-1.33-3.09-5.42-3.09-5.42l1-28.61.77-6.81,1-4.59,1.2-4.94s.74-3.73.84-4.87.41-5.91.41-5.91l0-4.61-.25-7.1-.7-8.7-.35-3.09s23.24,1.27,31.57.28l-.07,3.4.13,2.92.13,3.59.13,4,.2,2.9.2,3.35.26,3.86.13,2.66.36,4.23.78,5.53.81,3.94,1.33,6.24L522,431.77Z"/>
      <path class="cls-11" d="M482.55,399.47s-13,13.88-17.16,16.54-6.68,5.85-6.16,12,2.36,11.57,8.92,12.37,16.25,0,16.25,0"/>
      <path class="cls-12" d="M481.52,437.29s-9.31-6.25-13.11-3.46,5.24,3.46,6.55,3.46,6.43.93,6.43.93S482.44,438.49,481.52,437.29Z"/>
      <path class="cls-11" d="M519.77,397.43s10.39,12.33,18.39,18.85,2.89,19.41,2.89,19.41-1.18,3.06-8.66,3.86a61.62,61.62,0,0,1-13.37,0"/>
      <path class="cls-13" d="M521.64,408.43S526,428,522,433.7"/>
      <path class="cls-7" d="M480.34,404.71s-2.62,10.64-2.49,16.36.78,10.63,0,10.63-3.54-1.86-4.59-2a8.45,8.45,0,0,0-4.07,0c-1.44.53-1.57,1.06-3,1.46s-2.89-.4-1.31-1.59,2.1-1.47,4.32-2.93,2.89-1.59,3.94-3.32,1.57-1.73,2.49-4.12,1.31-7.32,2.62-9S480.34,404.71,480.34,404.71Z"/>
      <path class="cls-7" d="M482.44,431.7s.91,6.39,9.17,10.11,16.79,2.79,17.71,1.86,3.27-2.13,2.49-2.13a94.83,94.83,0,0,1-9.84.27,19.51,19.51,0,0,1-9.44-3.59c-3.28-2.26-6.29-2.66-6.95-5.05s-1.44-3.33-1.7-5.72-.66-6.78-1.44-6.38S482.44,431.7,482.44,431.7Z"/>
      <path class="cls-14" d="M521.24,437.44l3.45-2.64a15.9,15.9,0,0,1,4.11-1.92c1.49-.25,3.1-.69,4.92.26s2.55,2.13,1.2,2.68-5.06,1.57-6.29,1.45a29.12,29.12,0,0,0-4.36.36H522Z"/>
      <path class="cls-13" d="M478.9,425.45s.26,15.43,12.19,19.68,21.24,0,21.24,0a66.05,66.05,0,0,0,6.69-5.58c.57-.58,1.38-1.39,2.38-2.25,3.36-2.94,8.74-6.51,13.09-3.73,5.64,3.59-11.54,4.12-11.54,4.12l-1.7-.14"/>
      <path class="cls-13" d="M484.8,355.12s3,22.87,0,34.7a170.9,170.9,0,0,0-4.46,22.6"/>
      <path class="cls-13" d="M516.4,355.12s.39,27.65,2.22,36.83,3,13.43,3,13.43"/>
    </g>
    <path class="cls-15" d="M541.36,347.87c.63-.64,14.44-27.49,43.31-28.77s47.07,12.15,47.07,12.15.63,14.7-4.39,19.82-25.11,15.34-51.47,12.14S541.36,347.87,541.36,347.87Z"/>
    <circle class="cls-16" cx="589.37" cy="340.79" r="21.19"/>
    <circle class="cls-17" cx="589.2" cy="340.7" r="8.15"/>
    <path class="cls-18" d="M548.34,338.09s10.28-14.2,22.83-18S600,317.5,607,319.42s27.61,10.87,27.61,10.87-4.08,16.66-5.18,17.6c0,0,2-14.41,1.42-16.32s-25.11-10.87-29.5-10.87c0,0-22.84-2.41-34,2.63S548.34,338.09,548.34,338.09Z"/>
    <path class="cls-15" d="M463.65,345.73c-.63-.64-14.43-27.31-43.29-28.58s-47.05,12.07-47.05,12.07-.63,14.6,4.39,19.68,25.1,15.25,51.44,12.07S463.65,345.73,463.65,345.73Z"/>
    <ellipse class="cls-16" cx="415.64" cy="338.66" rx="21.19" ry="21.08"/>
    <ellipse class="cls-17" cx="415.81" cy="338.58" rx="8.15" ry="8.11"/>
    <path class="cls-18" d="M456.67,336s-10.27-14.11-22.82-17.92-28.86-2.54-35.76-.63-27.6,10.79-27.6,10.79,4.08,16.56,5.18,17.49c0,0-2.05-14.31-1.42-16.22s25.1-10.79,29.49-10.79c0,0,22.83-2.39,34,2.61S456.67,336,456.67,336Z"/>
    <circle class="cls-19" cx="596.29" cy="335.02" r="2.87"/>
    <circle class="cls-19" cx="425.42" cy="333.08" r="2.87"/>
  </g>
</svg>
