<svg id="Layer_1" data-name="Layer 1" xmlns="http://www.w3.org/2000/svg" viewBox="0 0 1000 1000">
  <defs>
    <style>
      .cls-1 {
        font-size: 130px;
        fill: #231f20;
        font-family: FreeSansBold, FreeSans;
      }

      .cls-2 {
        letter-spacing: -0.02em;
      }

      .cls-3, .cls-6 {
        letter-spacing: 0em;
      }

      .cls-4 {
        letter-spacing: -0.01em;
      }

      .cls-5, .cls-6, .cls-7 {
        fill: #ed2024;
      }

      .cls-5 {
        letter-spacing: -0.02em;
      }

      .cls-8 {
        fill: #fff;
        stroke: #000;
      }

      .cls-8, .cls-9 {
        stroke-miterlimit: 10;
        stroke-width: 3px;
      }

      .cls-9 {
        fill: #db4226;
        stroke: #c02926;
      }

      .cls-10 {
        fill: #c02926;
      }
    </style>
  </defs>
  <title>date</title>
  <text class="cls-1" transform="translate(96 812.39)">d + <tspan class="cls-2" x="227.63" y="0">a</tspan><tspan class="cls-3" x="297.31" y="0">t</tspan><tspan x="339.95" y="0">e = </tspan><tspan class="cls-4" x="560.43" y="0">d</tspan><tspan class="cls-5" x="638.56" y="0">a</tspan><tspan class="cls-6" x="708.24" y="0">t</tspan><tspan class="cls-7" x="750.88" y="0">e</tspan></text>
  <g>
    <path class="cls-8" d="M290.24,531.91l-35.68,69.84s233.8,38.72,256.58,41.75,110.83,19,110.83,19,67.56-199.65,73.63-233.81,28.85-164,27.33-193.57-171.56-41.75-171.56-41.75H356.28Z"/>
    <path class="cls-8" d="M274.29,524.32l-28.08,60.73s84.26,12.91,143.47,22,141.19,24.29,166.24,30.36,53.14,9.11,53.14,9.11,56.93-187.5,66.8-233S704.71,251,707.74,232.83s-81.1-31.21-81.1-31.21l-205.08-8.27-78.19,3.8s-44.77,252-50.86,275.55S274.29,524.32,274.29,524.32Z"/>
    <path class="cls-8" d="M318.32,193.35s-26.55,208.76-60,255.82a872.36,872.36,0,0,0-54.65,87.3S272.78,547.1,310,564.56s86.54,28.84,121.46,30.36,110.83,10.63,123,19.74c0,0,21.26-17.46,50.87-80.47s44-111,49.34-132.92,26.57-93.29,29.6-121.38,11.38-63.77,11.38-63.77L418.52,185.76l-85.77,7.59Z"/>
    <path class="cls-9" d="M315.29,131.61s-7.6,74.39-6.58,77.94,13.66,2.53,20.75,2.53,210.52,4,250.5,8.09,112.89,8.43,112.89,8.43l32.35,29.53,5.06-85.53-39-30.87Z"/>
    <line class="cls-9" x1="691.3" y1="141.73" x2="692.85" y2="228.6"/>
    <path d="M466.73,319.74s-26.57,122.22-45.55,156c0,0-19.34-10.63-26.19,4.93s21.26,21.26,21.26,21.26l28.84,6.83s16.32-2.61,14.05-13.07a18.84,18.84,0,0,0-11.77-13.5s33.47-91.85,41.41-135.5S502.45,289,484,284.82s-40.82,16.32-41.58,20.5S442.06,334.93,466.73,319.74Z"/>
    <path class="cls-10" d="M684.21,219.41a74.36,74.36,0,0,0-11.38-23.28c-8.1-10.62-2.28-13.91-28.85-25.3s-47.57-14.42-67.81-16.19-50.36-6.58-52.89-6.84-25.56-4.3-25.56-4.3,96.16,1.77,110.83,1.27,49.85.76,59.72,1.77,16.2.51,15.94,5.57,0,68.57,0,68.57Z"/>
    <path class="cls-10" d="M695.59,152.87s2,20.24,2.54,28.08-.51,15.94,0,23.79,0,17.2.15,18,6.43,3.55,11.74,7.85S720.65,246,720.9,244s1.41-59.21,2.1-64S698.61,155.14,695.59,152.87Z"/>
  </g>
</svg>
