<svg id="Layer_1" data-name="Layer 1" xmlns="http://www.w3.org/2000/svg" viewBox="0 0 1000 1000">
  <defs>
    <style>
      .cls-1 {
        font-size: 140px;
        fill: #231f20;
        font-family: FreeSansBold, FreeSans;
      }

      .cls-2, .cls-3 {
        letter-spacing: -0.01em;
      }

      .cls-3, .cls-4 {
        fill: #ed2024;
      }

      .cls-5 {
        fill: #fed2a5;
        stroke: #d7a57c;
      }

      .cls-5, .cls-6, .cls-7, .cls-8 {
        stroke-miterlimit: 10;
        stroke-width: 3px;
      }

      .cls-6 {
        fill: #2e8d43;
      }

      .cls-6, .cls-7 {
        stroke: #277339;
      }

      .cls-7 {
        fill: #d4dee8;
      }

      .cls-8 {
        fill: #82512f;
        stroke: #64391d;
      }

      .cls-9 {
        fill: #6e4427;
      }
    </style>
  </defs>
  <title>pace</title>
  <text class="cls-1" transform="translate(26.19 801.67)">p + <tspan class="cls-2" x="245.14" y="0">a</tspan><tspan x="321.58" y="0">ce = </tspan><tspan class="cls-2" x="636.86" y="0">p</tspan><tspan class="cls-3" x="721" y="0">a</tspan><tspan class="cls-4" x="797.44" y="0">ce</tspan></text>
  <path class="cls-5" d="M404.69,355.67s-61.34,25.67-65.62,27.1,18.55,67,20,67,131.23-45.65,138.37-47.07-42.8-57.06-51.35-57.06S404.69,355.67,404.69,355.67Z"/>
  <path class="cls-5" d="M585.85,408.44s15.69,117,18.54,122.68,68.47-11.42,69.89-15.7-10-125.52-10-125.52Z"/>
  <path class="cls-6" d="M290.58,387.05s35.66-14.27,59.91-11.41c0,0-1.43,24.24,8.55,38.51,0,0,15.68,28.41,19.25,29.18,0,0,20.69,50.7,10.71,70.67s-22.82,28.53-28.53,30-55.63-84.16-65.62-118.39S290.58,387.05,290.58,387.05Z"/>
  <path class="cls-6" d="M596.11,575.93s-3.78-38.22,5.71-60.72c0,0,22.89,8.12,39.37,2.49,0,0,31.65-7.15,33.39-10.37,0,0,54.45-5.77,70.85,9.37s21.06,29.86,20.84,35.74-96.31,30-132,30.09S596.11,575.93,596.11,575.93Z"/>
  <path class="cls-7" d="M272,394.18s18.55,84.16,35.66,111.26,31.38,49.92,31.38,49.92,27.11-4.27,24.25-11.41-17.11-8.56-58.48-105.55L292,385.62S274.88,388.47,272,394.18Z"/>
  <path class="cls-7" d="M597.8,595.73s86,5.59,116.79-3.31,56.69-16.25,56.69-16.25,3.43-27.23-4.22-26.47-13,14.06-117.66,26.81l-54.26-2.35S593.12,591.4,597.8,595.73Z"/>
  <path class="cls-8" d="M419,200.19s-15.69,58.48-15.69,78.45S387.57,350,381.87,352.81,447.48,414.15,510.24,407c0,0,15.7-34.24,17.12-64.19,0,0,24.25,42.79,30,78.45,0,0,79.88-1.43,129.8-24.25a103.2,103.2,0,0,0-12.84-45.64c-12.83-22.83-57-95.57-68.47-107S419,200.19,419,200.19Z"/>
  <path class="cls-8" d="M527.36,342.83c0-1.43,4.28-34.24,7.13-42.8s28.53-11.41,31.39-14.26"/>
  <path class="cls-9" d="M652.89,404.16c-2.86,0-58.49,14.27-91.29,14.27,0,0-8.56-32.81-14.27-45.65s-17.12-29.95-17.12-29.95,5.71-39.94,7.14-39.94,51.35,68.47,67,78.45S652.89,404.16,652.89,404.16Z"/>
  <path class="cls-9" d="M600.11,253s.83.33,2.12.87c5.87,2.49,21.25,9.63,10.72,12-12.84,2.85-27.1,15.69-30,15.69s-21.39-10-34.23-10-24.25,5.7-28.53,5.7-11.41-4.28-24.25-5.7-22.82,2.85-37.09,5.7-32.8,17.12-38.51,25.68-18.54,42.79-15.69,48.5,15.69,18.54,22.82,24.25,28.53,20,28.53,20-32.81-8.56-69.89-41.37a305.29,305.29,0,0,0,14.26-38.51c5.71-20,5.71-44.22,7.13-49.93s15.69-54.2,15.69-54.2l119.82,34.23Z"/>
</svg>
