<svg xmlns="http://www.w3.org/2000/svg" viewBox="0 0 1000 1000"><defs><style>.cls-1,.cls-3{fill:#758b96;}.cls-1,.cls-11,.cls-2,.cls-7{stroke:#4b5c66;}.cls-1,.cls-10,.cls-11,.cls-2,.cls-6,.cls-7{stroke-miterlimit:10;}.cls-1,.cls-10,.cls-2,.cls-6,.cls-7{stroke-width:3px;}.cls-2{fill:#90a3b1;}.cls-4{fill:#60777f;}.cls-5{fill:#b6c5cc;}.cls-6{fill:#e0d287;}.cls-10,.cls-6{stroke:#9a9053;}.cls-7{fill:none;}.cls-8{fill:#778a99;}.cls-9{fill:#fff7c6;}.cls-10{fill:#efe8ca;}.cls-11{fill:#f7f8f9;stroke-width:2px;}.cls-12{fill:#1664fa;}.cls-13{fill:#231f20;}.cls-14{fill:#fff;}</style></defs><title>elephant</title><g id="Layer_2" data-name="Layer 2"><path class="cls-1" d="M436.55,699.2h80.82l-13.63,15.58s4.86,77.9,6.81,103.22,4.87,70.11-6.81,78.87S453.1,818,453.1,818s-15.58-81.79-16.55-83.74S436.55,699.2,436.55,699.2Z"/><path class="cls-2" d="M280.75,493.74s0,52.59,16.55,79.85c0,0-9.74,71.08,1.95,103.22s39.92,82.77,40.9,85.69,29.21,61.34,35.05,85.69S384,904.66,378.12,929s-7.79,32.13-5.84,36,70.11,47.71,146.06-10.71c0,0,8.77-11.69-6.81-52.59s-36-101.27-44.8-123.66-31.16-86.67-35.05-132.43S421,481.09,421,481.09l-87.64-66.22-52.58,66.22Z"/><path class="cls-1" d="M748.15,515.17l10.71,8.76a169.45,169.45,0,0,1,3.89,54.53c-2.92,29.21-7.79,68.16-17.53,94.45s-20.44,57.45-26.29,79.85-5.84,71.08-5.84,71.08l3.9,59.4s1.94,9.74-6.82,14.61-31.16,8.76-47.71,0-5.85-181.12-5.85-181.12,3.9-131.45,27.27-157.74S748.15,515.17,748.15,515.17Z"/><path class="cls-2" d="M389.81,91.59c-1,0-31.16-33.11-79.85-42.85S206.74,55.56,193.11,66.27,162,82.83,125,164.62,68.47,302.89,68.47,302.89s-4.87,3.9,6.82,9.74,32.13,5.84,38.95,16.55,19.47,31.16,28.24,37,27.26,12.66,27.26,12.66,5.84,2,6.82,12.66-1.95,25.32,14.6,32.14,25.32,13.63,26.3,14.6,9.73,14.61,13.63,20.45S242.77,484,265.17,484s77.9-30.19,77.9-30.19l86.66-317.44Z"/><path class="cls-3" d="M312.88,202.6l-85.69-69.14L180.45,152,160,169.49l-17.52,21.42s-15.58,25.32-22.4,44.79-15.58,38-13.63,45.77,10.71,14.61,19.47,17.53,17.53,8.76,20.45,15.58,4.87,26.29,18.5,32.13,22.4,0,28.24,5.84,1.95,7.79,2.92,17.53S199,405.13,215.51,411s31.16,11.68,35.05,21.42,6.82,23.37,19.48,26.29,63.29-80.82,63.29-80.82L375.2,218.18Z"/><path class="cls-4" d="M304.12,151s-18.5-38-46.74-40.9-41.87,2-48.69,6.82S169.74,152,164.87,158.78,144.42,188,142.48,190.91s23.37-36,62.32-35,57.45,23.37,57.45,23.37,20.45,21.42,26.29,34.08S304.12,151,304.12,151Z"/><path class="cls-5" d="M365.46,99.38s-34.08-38-72-38.95-67.19-2-86.67,13.63-35.05,28.24-52.58,59.4-45.76,87.64-47.71,95.43-25.32,57.45-27.27,62.32-7.79,14.6-7.79,14.6-1.94,1.95,0-3.89,41.88-106.14,42.85-107.11,21.42-51.61,39-80.82,34.08-42.85,48.69-50.64,40.89-13.63,65.24-15.58,49.66,1.95,62.32,7.79S359.62,66.27,383,89.64,365.46,99.38,365.46,99.38Z"/><path class="cls-6" d="M285.62,436.29s-30.19,44.8-41.87,81.8-17.53,48.69-6.82,81.79,28.24,30.19,30.19,29.22,3.89-4.87,0-17.53-12.66-29.21-1-53.56S310,489.85,310,489.85l17.53-35.05Z"/><path class="cls-3" d="M409.77,912.94a79.61,79.61,0,0,0,33.11,9.74c18.5,1,33.1,13.63,31.16,18.5s-14.61,19.47-12.66,19.47,8.76,14.61,8.76,14.61l47.72-22.4s-2-25.31-4.87-36S497.41,874,493.51,868.15s-29.21-87.64-29.21-87.64l-20.45-64.26-17.53-56.48L409.77,726l16.55,51.61s26.29,77.9,29.22,82.77,10.71,36-3.9,43.82S409.77,912.94,409.77,912.94Z"/><path class="cls-2" d="M417.07,85.75s-49.66-1-57.45,0-31.16,6.81-40.9,23.37S290.49,158.78,284.64,186s-4.86,62.32,0,81.8c0,0-7.79,38,1.95,70.11s-2.92,45.76-2.92,45.76-17.53,30.19-14.61,52.58,11.69,7.79,12.66,7.79,12.66-1,18.5,2.93,9.74,11.68,10.71,16.55,3.9,46.74,4.87,47.71,15.58,62.32,15.58,63.3,17.53,66.21,18.5,74,8.77,36,8.77,55.5,1,64.27-17.53,80.82-43.82,38-48.69,44.8-11.68,30.18,1.95,42.84,35.06,5.84,35.06,5.84,26.29-9.73,26.29-20.45-6.82-11.68-6.82-11.68,21.42-4.87,51.61-55.5,29.21-88.61,29.21-88.61,20.45,18.5,35.06,19.47,38,3.9,57.45,1.95,41.87-6.82,41.87-6.82,5.84,42.85,0,64.27-6.82,58.42-6.82,58.42S534.9,864.74,532,882.27s-1.94,34.08,1.95,38,15.58,20.45,51.61,25.32a184.82,184.82,0,0,0,67.19-3.89s18.5-7.79,17.53-37S664.4,855,664.4,855s8.77-4.87,14.61-52.58,12.66-106.14,12.66-110,3.89-44.79,25.32-83.74,46.74-75,51.6-93.48,4.87-74,4.87-74S781.25,415.85,789,412s21.42,1.95,31.16-11.68,17.53-27.27,22.4-39.93,13.63-20.45,28.24-27.26S898.1,315.55,901,309.71s5.85-22.4,21.43-29.21c0,0,8.76-1,10.71-1.95s2.92-1,0-8.77-39.93-67.18-41.87-71.08-46.74-64.27-60.38-78.87S782.23,65.3,736.46,52.64,591.37,76,559.24,101.33c0,0-25.32-18.5-55.5-19.48s-55.51,2.92-65.24,3.9A139.71,139.71,0,0,1,417.07,85.75Z"/><path class="cls-3" d="M440.44,644.67s18.5,2.93,30.19,3.9,20.45,0,34.08-2,49.66-21.42,50.63-22.39c0,0-1.94,33.1,0,42.84s2.93,43.82,4.87,45.77-20.45,6.81-22.39,6.81-24.35,3.9-52.59,1-35.05-6.82-35.05-6.82L440.44,708l-7.79-6.82s8.77-30.18,8.77-35-1-21.43-1-21.43"/><path class="cls-7" d="M582.61,125.67S569,106.2,559.24,101.33"/><path class="cls-5" d="M573.85,111.06s-7.79-8.76-10.72-9.73,32.14-19.48,86.67-38,88.61-10.71,108.08,0,44.79,31.16,53.56,39.92,30.18,32.14,30.18,32.14l21.43,27.26s-38-55.5-88.61-80.82-66.22-24.34-99.33-14.6S625.45,79.9,573.85,111.06Z"/><path class="cls-6" d="M454.07,433.37s-1.94,43.82-3.89,50.64S438.5,536.59,420,555.09,368.39,595,363.52,597s-18.5,12.66,5.84,11.69,40.9-2.92,84.71-37,58.43-106.13,60.38-133.4S451.15,425.58,454.07,433.37Z"/><path class="cls-7" d="M454.13,432.17s-9.79-24.11,6.76-60.14"/><path class="cls-7" d="M498.87,340.87s25.31,28.24,27.26,52.58,4.87,39.92-11.68,44.79"/><path class="cls-3" d="M816.31,150s35.05,41.87,47.71,69.14,21.42,39.92,18.5,51.61S876.68,292.18,864,299s-34.08,6.81-37,13.63-5.84,31.16-7.79,38S808.52,374,799.75,377.87s-22.39,4.87-30.18,2.92-8.77,10.71-10.71,14.61S750.09,437.27,727.7,447s-54.53-8.77-55.51-8.77-3.89-2.92-5.84,5.84-5.84,25.32-10.71,31.16S644,487.9,637.14,488.88s-19.48-1-29.21-15.58-13.64-45.77-13.64-47.72-1.36-16.9.3-24l2.75-4.29,5.71-10.59,4.29-10.06,2.63-7.54,3.08-11,2.76-13.5,1.17-8.13.52-4.85.85-6.44V314.64l-.35-9-1-7-1-7.38.33-2.74S613.77,186,637.14,166.57s55.5-38.95,89.58-38.95S816.31,150,816.31,150Z"/><path class="cls-4" d="M610.85,264.92s-15.58-74,18.5-113.93,71.08-46.74,94.45-43.82,64.27,11.68,92.51,42.84c0,0-63.3-15.58-96.4,1s-56.48,25.31-69.14,47.71S621.56,262,620.58,269.78s-4.76,20.35-4.76,20.35Z"/><path class="cls-7" d="M512.92,451.58S553.4,449,586.5,412s33.11-97.37,31.16-109.06-2.92-22.39-2.92-22.39"/><path class="cls-7" d="M560.79,433.91s13.06,47.18,23.77,61.78S605,523,613.77,524.9s39-8.76,45.76-12.65,15.58-10.72,18.51-16.56,1-20.45,4.86-19.47,8.77,5.84,14.61,5.84,31.16-10.71,37-13.63,29.22-17.53,39-27.27"/><path class="cls-5" d="M496.92,86.72s-31.16,1-41.87,3.9-30.19,4.86-39.92,4.86-33.11,2-39.93,2-32.13,5.84-36,9.74-22.39,25.32-23.37,31.16-18.5,36-21.42,39.92,9.74-38,15.58-50.63,20.45-30.19,29.21-33.11,18.5-9.74,50.64-7.79,31.16,2,48.69,1,38-3.89,40.89-3.89A71.87,71.87,0,0,1,496.92,86.72Z"/><path class="cls-8" d="M508.6,360.34s8.77,37,1.95,41.87S493,410,484.26,412.92s-16.55,5.85-21.42,9.74,19.47-5.84,31.16-3.89,19.47,6.81,19.47,7.79,3.9,6.81,2.92,7.79,8.77-2,8.77-17.53-1-24.34-1.95-29.21S518.34,373,508.6,360.34Z"/><path class="cls-9" d="M456,449.93c-1-1.95,3.9-9.74,10.71-11.69s19.48,2.92,21.43,7.79a46.32,46.32,0,0,1,1.94,27.27c-2.92,11.68-7.79,46.74-23.37,66.21s-31.16,36-46.74,44.79-39.92,18.5-46.74,19.48-13.63,1-12.65-1,18.5-10.71,24.34-14.6,34.08-23.37,43.82-39.93,17.53-28.23,20.45-43.81,3.89-21.43,4.86-32.14S456,449.93,456,449.93Z"/><path class="cls-9" d="M278.8,449.93s7.79-1,12.66,1,8.76,10.71,8.76,13.63-4.87,15.58-6.81,18.5S273.93,511.27,272,515.17s-21.43,34.08-21.43,49.66,1,27.26,2.92,34.08,6.82,13.63,6.82,15.58,1,8.76-2.92,7.79-15.58-11.69-18.5-21.42S233,575.54,233,568.72s5.84-29.21,9.73-39,14.61-37,15.58-38.95L273,461.61Z"/><path class="cls-7" d="M564.11,716.73s-12.66-69.13-3.9-98.35"/><path class="cls-3" d="M698.48,486s-24.34,86.67-38,120.75S645.9,706,645.9,716.73,642,801.45,635.19,821.9s-24.34,30.18-33.11,31.16-33.1-1.95-36-3.9-6.82-8.76-6.82-8.76-3.9,16.55,6.82,26.29,18.5,12.66,25.31,15.58,22.4,5.84,25.32,9.74,10.71,17.52,8.76,24.34-17.52,17.53-22.39,19.47-14.61,5.85-20.45,4.87-18.5-2.92-18.5-2.92,38.95,12.66,64.26,5.84,29.22-3.89,35.06-16.55,4.87-28.24,3.89-35-3.89-32.14-4.86-35.06,2.92-4.87,2.92-4.87,9.73-30.18,11.68-43.82,8.77-76,8.77-76l4.86-55.5s6.82-49.66,15.58-64.27,39-58.42,39-58.42,20.45-35.06,22.4-47.72,3.9-58.42,3.9-58.42v-5l-3.86,3.3-10.78,8.06-4.7,3.21-4.07,2.69-6.77,4.25-6.83,3.91-5.68,2.6-8.27,3.49L714.35,477l-5.86,2.16-7.61,2.37-1.67.36Z"/><path class="cls-7" d="M429.72,703.42s6.83-37.32,8.78-48S448.23,595,448.23,595l1.62-20.12"/><path class="cls-10" d="M409.28,982.56c.94.27,1-36-10.71-40.89s-29.31,7.46-26.83,21.74C371.74,963.41,364.49,969.9,409.28,982.56Z"/><path class="cls-10" d="M422.78,983.74s-2.79-33.31,14.74-38.18S466.25,963,467,968.88,468.5,980,468.5,980,435.3,987.84,422.78,983.74Z"/><path class="cls-10" d="M482.32,975.26s-8.77-28.72,8.76-37.49,25,18.23,25,18.23S490.12,972.83,482.32,975.26Z"/><path class="cls-10" d="M532.66,918.33c-.14-.26-2.63-6.57-2.14-10.12s-.06-12.55-.06-12.55,18.07.24,22.94,12.9S556,937.22,556,937.22,538.21,929.07,532.66,918.33Z"/><path class="cls-10" d="M558.55,938.39s-.28-20.09,22.11-21.07S607,935.82,607,935.82l.79,11.21S570.52,947.77,558.55,938.39Z"/><path class="cls-10" d="M620.7,946.61s.86-20.52,16.44-26.37,25.24,13.18,25.24,13.18-4.79,10.19-14.53,12.14S622.76,947.65,620.7,946.61Z"/><path class="cls-7" d="M315.8,283.42c0-1,52.59-39,102.25-8.77"/><path class="cls-7" d="M304.91,348.67s45-38,109.24-17.54"/><path class="cls-7" d="M310,427.53s53.56-24.34,98.35,0"/><path class="cls-7" d="M317.75,507.38c4.87,0,75.95-4.87,84.72-2.92"/><line class="cls-2" x1="333.33" y1="572.62" x2="393.7" y2="572.62"/><path class="cls-7" d="M346.49,633.46c2.42-.47,52.08,7.32,62.79-.47"/><path class="cls-7" d="M360.6,699.2s33.1,10.72,46.74,3.9"/><path class="cls-7" d="M357.67,754.71s11.69,14.6,34.09,3.89"/><path class="cls-7" d="M342.09,786.84c2,1,11.69,18.5,33.11,19.48"/><path class="cls-7" d="M312.88,814.11s15.58,21.42,31.16,20.44"/><path class="cls-7" d="M289.51,842.34s8.77,18.51,21.42,14.61"/><path class="cls-7" d="M319.7,863.77s12.66-15.58,29.21-17.53"/><path class="cls-11" d="M467.71,297.05s-4.87-3.9-4.87-22.4-3.9-31.16,12.66-38,28.24-2,35.05,9.73,3.9,34.09,3.9,34.09A23.8,23.8,0,0,1,498.87,298C485.23,302.89,467.71,297.05,467.71,297.05Z"/><ellipse class="cls-12" cx="492.41" cy="273.31" rx="16.19" ry="23.97"/><ellipse class="cls-13" cx="494.38" cy="275.39" rx="9.72" ry="15.88"/><circle class="cls-14" cx="492.9" cy="266.12" r="5.09"/><path class="cls-11" d="M314.38,262.29s1.42-21.72-4.42-26.59-18.5-5.84-23.37,0-10.71,12.66-10.71,24.35,1,31.16,7.79,37,14.61,10.71,20.45,7.79a5.23,5.23,0,0,0,4.25-4.16c.62-3.63,1.09-8.39,1.09-8.39l1.91-12.8L313.15,269Z"/><path class="cls-12" d="M299.25,257.13S286.59,261,287.56,276.6s5.85,22.4,5.85,22.4a10.52,10.52,0,0,0,7.79,3.89c4.87,0,6.81-2.92,6.81-2.92l2.52-15.11,2.32-14.11.54-3.14S311.91,255.18,299.25,257.13Z"/><ellipse class="cls-13" cx="302.07" cy="282.9" rx="7.44" ry="15.07"/><circle class="cls-14" cx="300.77" cy="274.85" r="4.86"/><path class="cls-3" d="M301.2,375s-18.5,21.42-20.45,29.21-6.82,24.34-6.82,28.24,1.95,10.71,1.95,10.71,28.24-9.74,30.19-4.87S301.2,375,301.2,375Z"/><path class="cls-7" d="M315.8,255.18s-12.66,58.42-10.71,107.11,6.21,104,6.21,104"/><path class="cls-8" d="M612.31,324.8s-4.87,40.9-12.66,55.5a116.11,116.11,0,0,1-29.21,36c-12.66,10.71-14.61,15.58-30.19,20.45s-19.47,5.84-19.47,5.84,8.76-3.89,10.71-10.71,1.94-14.6,1-15.58,7.79,4.87,9.74,5.84,15.58-10.71,24.34-16.55S588,380.3,593.81,371.54,612.31,324.8,612.31,324.8Z"/></g></svg>