<svg id="Layer_1" data-name="Layer 1" xmlns="http://www.w3.org/2000/svg" viewBox="0 0 1000 1000">
  <defs>
    <style>
      .cls-1 {
        font-size: 150px;
        fill: #231f20;
        font-family: FreeSansBold, FreeSans;
      }

      .cls-2 {
        letter-spacing: -0.01em;
      }

      .cls-3 {
        letter-spacing: -0.02em;
      }

      .cls-4, .cls-5 {
        fill: #ed1c24;
      }

      .cls-4 {
        letter-spacing: -0.01em;
      }

      .cls-6 {
        fill: #eacab6;
      }

      .cls-6, .cls-7, .cls-8 {
        stroke: #c9743a;
        stroke-miterlimit: 10;
      }

      .cls-7 {
        fill: #eac8b1;
      }

      .cls-8 {
        fill: #f8dac5;
      }

      .cls-9 {
        fill: #e9bfa2;
      }
    </style>
  </defs>
  <title>rag</title>
  <text class="cls-1" transform="translate(107.21 809.7)">r + <tspan class="cls-2" x="229.35" y="0">a</tspan><tspan x="311.25" y="0">g = </tspan><tspan class="cls-3" x="573.9" y="0">r</tspan><tspan class="cls-4" x="629.25" y="0">a</tspan><tspan class="cls-5" x="711.15" y="0">g</tspan></text>
  <path class="cls-6" d="M495,136.65s-29-2.42-39.12-4S414.43,113,405,132.5s-87.6,277.6-83.83,330.83,71.68,67.49,86.19,83.18,56.65,62.76,67.54,86.26,28.08,37.64,32,30.61,11.05-37.54,8.74-50.06S499,390.23,502.2,364.41s119.85-39.6,129.25-43.49S673,296.77,669.13,278,603,125.09,583.44,123.92,556,135.25,534.88,140.67,495,136.65,495,136.65Z"/>
  <path class="cls-7" d="M453.07,448.8s-6.47,79.42,11.84,110.77,50.62,68.61,50.62,68.61.26-73.56,4.27-109.16,5-105.25,5-109.94-70.89,26.42-70.89,26.42Z"/>
  <path class="cls-8" d="M513.77,131.61c-6.25-2.75-23-12.58-35.19-11.44s-29.34-1.25-30.18,18.71S446,307.52,444.78,328.26s-2.46,155.35,8.47,183.94c0,0,59.37-90.79,139.65-114.18s29.32-138.17,29.32-138.17-36-137.91-52.85-139.54-34.47,9.79-43.08,10.55S513.77,131.61,513.77,131.61Z"/>
  <path class="cls-9" d="M457,152.59c-.39-1.17-2.68-24.65,8.67-26.19s34.9,9.48,46,9.9,35.78-11.5,42.44-12.53,18.78-.61,28.09,29.15,43.32,153.28,47.32,160.17,7,26.63,5.4,29.36,2.67,26.23-7.85,9.37-23.64-84.58-27.52-100.24-16.69-49.55-22.9-69.81-12.39-49.63-23.37-40.66-11.06,21.88-7.19,47.72,12.36,70.07,14.25,94.34-.94,59.08,4.51,72,12.44,29,12,35.25-32.34,25-36,26.91-18.68-79.88-18.21-111.18.2-74.74-6.37-105.28,1.35-50.08-15.69-54-27.6-2.81-32.31,3S457,152.59,457,152.59Z"/>
  <path class="cls-9" d="M440.44,140.16c-2.2-.18-17.74.48-20.88,5.68S394.76,252.74,389,267.33s-23.21,97-23.78,116.81-4.85,57.9-4.37,73,3,60.81,3,60.81-36.95-34.24-39.51-52.56,21.2-128.81,35.39-167.91,40-136.59,44.74-148.57,6.32-24,16.23-21.35,24.49,3.19,24,4.75S445.5,140.57,440.44,140.16Z"/>
</svg>
