<svg id="Layer_1" data-name="Layer 1" xmlns="http://www.w3.org/2000/svg" viewBox="0 0 1000 1000">
  <defs>
    <style>
      .cls-1 {
        font-size: 150px;
        fill: #ed1c24;
        font-family: FreeSansBold, FreeSans;
      }

      .cls-2, .cls-3 {
        letter-spacing: -0.01em;
      }

      .cls-3, .cls-4 {
        fill: #231f20;
      }

      .cls-5 {
        fill: #ec3f31;
      }

      .cls-5, .cls-8 {
        stroke: #db2827;
        stroke-miterlimit: 10;
        stroke-width: 3px;
      }

      .cls-6 {
        fill: #c12726;
      }

      .cls-7 {
        fill: #f2696b;
      }

      .cls-8 {
        fill: #9c1c22;
      }

      .cls-9 {
        fill: #ef9cac;
      }

      .cls-10 {
        fill: #e9e8e8;
      }

      .cls-11 {
        fill: #250f0b;
      }
    </style>
  </defs>
  <title>ant</title>
  <text class="cls-1" transform="translate(377.16 809.7)"><tspan class="cls-2">a</tspan><tspan class="cls-3" x="81.9" y="0">n</tspan><tspan class="cls-4" x="172.05" y="0">t</tspan></text>
  <g>
    <path class="cls-5" d="M375.85,438.89l-48.78,102s-10.69-8.09-24.26-3.39S285.07,552.11,292.38,556s32.87,1.56,36.78-2.87L386.29,442.8l-5.48-8.09Z"/>
    <path class="cls-5" d="M433.72,496l-8.82,46.42s-12.26-7.91-21.39-3.69-9.39,16-2.35,19.25,22.69,4.53,27.39,1.14l19.57-65.48-13.05-1.56Z"/>
    <path class="cls-5" d="M509.42,487.93s11,12,20.35,47c0,0,5,21.19,7.56,23.12s14.35,5.11,31.83,0-.26-21.64-11.48-19.25S543,543,543,543l-17.63-71.22Z"/>
    <path class="cls-5" d="M529.51,342.37s33.91-34.44,79.82-53.22,108.52-7.83,133,8.87,55.17,45.91,79.82,86.61,24.65,55.3,24.65,55.3-19.94,39.39-61.17,69.39S702.2,551.58,674,551.06s-74.61-13-100.7-29.74-52.69-53.21-52.69-53.21l-22.44-99Z"/>
    <path class="cls-6" d="M559.77,383.58s1,74.09,16.69,97.57,41.22,39.65,88.7,42.26,111.65-23.48,134.61-40.7,37-31.82,37-31.82-27.65,39.65-53.22,55.3-61.37,36.63-92.87,40.18S604,536.53,578,520.28s-50.09-50.09-50.09-50.09l6.26-49,3.65-66.26Z"/>
    <path class="cls-5" d="M417.33,322s37.05-23.48,76.18-14.09,60,46.44,65.74,66.26,6.93,62.06-8.35,84-31.83,42.26-72,47.48-76.18-18.78-88.18-33.91-23.47-39.13-26.08-74.61S417.33,322,417.33,322Z"/>
    <path class="cls-6" d="M429.85,354.89s-45.39,53.22-36,79.82,32.65,55.28,83,48.53S555,440.9,561.28,413c0,0-5.16,40-23.95,57.17S511,496.28,476.93,502s-72.12-19.31-81-30.26-22.95-33.39-24-61.57,31.83-62.61,31.83-62.61Z"/>
    <path class="cls-7" d="M524.81,326.18s-13.46-12.58-53.22-12-42.78,8.87-42.78,8.87l17.06-11.6s24.59-6.72,43.33-2.61S524.81,326.18,524.81,326.18Z"/>
    <path class="cls-5" d="M214.9,343.93s-29.74-36,0-84,105.39-60.52,137.22-52.17,53.73,23.48,58.43,47,4.7,28.18,4.7,28.18,34.43,6.26,31.3,41.74-19.83,58.43-38.61,70.95-30.78,19.61-30.78,19.61-14.61,25.26-30.78,30.22-32.87-2.87-41.22-7.56S252.46,433.59,229,413,187.77,366.89,214.9,343.93Z"/>
    <path class="cls-7" d="M582.2,310s45.92-26.61,114.26-18.78c0,0,32.87,4.66,72,34.94,0,0-22.54-26.94-53.21-36.38s-52.8-10.14-81.92-4.3S582.2,310,582.2,310Z"/>
    <path class="cls-5" d="M434.22,483.17s-28.84-12.52-38-23.48c0,0-35,128.94-38.9,149.29s-39.13,31.1-43.82,31.1-18.79-1.17-17.61-9.39,4-17.8,20.41-23.28,25.18-6.65,32.22-5.67c0,0,23.67-101.35,27-115.63s10.76-48.33,23.87-46.57,26.61,15.07,36.39,28.57,4.3,14.87,2.15,14.87A34.32,34.32,0,0,0,434.22,483.17Z"/>
    <path class="cls-5" d="M460.05,481s-3.71-6.85,3.82-14.28,23.77-13.5,30-8.61-16,146.54-16,146.54,8.81,4.5,8.81,17.61-2.55,20.74-9.59,22.89-22.69.78-22.5-9.78.78-24.07,13.5-31.7c0,0,14.33-114.06,13.13-129.52,0,0-8.45,9.91-14.6,10S460.05,481,460.05,481Z"/>
    <path class="cls-5" d="M518,469.24s48.5-32.24,77.45-33.81c0,0,10.76-2.35,15.46,10S630.46,510,649.64,590.58c0,0,17.87-6.26,37.56-2.21s24,9.52,24.26,22.17-24.78,13.7-41,8.22-23.74-8.48-28.18-21.26c0,0-27.26-123.13-42.13-145,0,0-29.48,14.09-46.17,15.92s-32.7,7-36,3.39C518,471.76,516.71,470.08,518,469.24Z"/>
    <path class="cls-5" d="M312.2,214.54s-1.05,12,4.11,12.65,7-1.94,8.81-11.87S344.29,151.93,353,145a248.83,248.83,0,0,1,42.52,32c20,19,34.17,25.43,40,21.52s-16.69-37.44-35.34-48.79-38-16.82-47.87-16.82-34.13,57.9-37.18,70.17Z"/>
    <path class="cls-6" d="M402.33,154.15s15.39,13.56,19.05,24.13,2.47,14.22,1.3,14.87-8.74-2.61-11-4.17c0,0,9.66,8.47,18.79,8.73s0-12.91,0-12.91-6.39-11.09-12.79-18A90.88,90.88,0,0,0,402.33,154.15Z"/>
    <path class="cls-5" d="M246.33,245.45s6.66,7.05,11.22,4.31,3.52-7.83-3.13-13S215.16,213.24,202,209.58s-21.14-4.22-21.14-4.22-18.13,15-25.3,46.75,3.78,44.87,5.87,44.74,10.43-7.31,12.78-22.44,8.61-58.83,12.26-61S226.51,231.37,246.33,245.45Z"/>
    <path class="cls-6" d="M182,221.06s-7.83,14-10.31,36.13-4,27.66-6.52,30.79-6.26,4.17-7.17,2.73c0,0,2,5,3.13,5s8.74-7.17,10-13.43,2.22-12,4.7-27.66S180.2,226.41,182,221.06Z"/>
    <path class="cls-8" d="M240.33,382.8s32.22,33,61.83,44.74,55.3.91,65.87-18.26,25.82-56.22,28.43-73.43c0,0-25.69,25.82-58.43,36.65s-45.13,12.65-60,13.17S240.33,382.8,240.33,382.8Z"/>
    <path class="cls-9" d="M291.85,421.08s7.83-17.47,22.24-22.76,19.76-3.13,19.76-3.13,9.4-13.14,21.46-15.63,26-1.09,26-1.09-9.49,22.72-12.55,27.22-7.77,14-18.46,19.53-23.67,7.08-36.52,4.73A59.43,59.43,0,0,1,291.85,421.08Z"/>
    <path class="cls-10" d="M361.25,317.58s-22.18-.78-29.09-21.91-4.44-50.61,15.39-59.61,33.78,1.57,39.39,8.48,14.22,29.61,6.78,48.91S373.25,318,361.25,317.58Z"/>
    <path class="cls-10" d="M275.94,337.28a47,47,0,0,0,1.57-39.39c-8.87-21.65-29.74-27.19-43.18-22.79s-20.48,28.14-13.82,45.75S242,348.5,256,347.58,275.94,337.28,275.94,337.28Z"/>
    <path class="cls-11" d="M364,311.71s-15.53,0-20-21.26,9.78-32.74,14.87-35.21,20.61-2.35,25.69,14.87-.39,30.78-6.39,35.6S364,311.71,364,311.71Z"/>
    <path class="cls-11" d="M271.25,334.41s9.39-7.17,4.17-25.56-22.7-22.18-31-17-10.7,22.93-4,34.29S261.46,342.89,271.25,334.41Z"/>
    <path d="M364.89,303.07s-13.33-2.34-12.64-18.68,13.59-17.61,14.87-17,11.66,0,12.13,18.49S364.89,303.07,364.89,303.07Z"/>
    <path d="M265,330.66s9.78-7.27,3.91-19-13.8-11.57-18.69-9.61-6.75,14-3.81,19.46S256,335.26,265,330.66Z"/>
  </g>
</svg>
