<svg id="Layer_1" data-name="Layer 1" xmlns="http://www.w3.org/2000/svg" viewBox="0 0 1000 1000">
  <defs>
    <style>
      .cls-1 {
        font-size: 150px;
        fill: #231f20;
        font-family: FreeSansBold, FreeSans;
      }

      .cls-2, .cls-4 {
        letter-spacing: -0.01em;
      }

      .cls-3 {
        letter-spacing: -0.01em;
      }

      .cls-4, .cls-5 {
        fill: #ed1c24;
      }

      .cls-5 {
        letter-spacing: 0em;
      }

      .cls-6 {
        fill: #bf7f3e;
        stroke: #b57438;
      }

      .cls-10, .cls-11, .cls-6, .cls-7, .cls-8, .cls-9 {
        stroke-miterlimit: 10;
      }

      .cls-7 {
        fill: #f7a4a5;
      }

      .cls-10, .cls-11, .cls-7, .cls-8, .cls-9 {
        stroke: #e07070;
        stroke-width: 2px;
      }

      .cls-8 {
        fill: #f48684;
      }

      .cls-9 {
        fill: #f58a84;
      }

      .cls-10 {
        fill: #f6968b;
      }

      .cls-11 {
        fill: #f48585;
      }
    </style>
  </defs>
  <title>ham</title>
  <text class="cls-1" transform="translate(24.37 809.68)">h + <tspan class="cls-2" x="262.65" y="0">a</tspan><tspan x="344.55" y="0">m = </tspan><tspan class="cls-3" x="648.9" y="0">h</tspan><tspan class="cls-4" x="738.3" y="0">a</tspan><tspan class="cls-5" x="820.2" y="0">m</tspan></text>
  <g>
    <path class="cls-6" d="M347.55,117.05s-16.08-8.92-27.5-7-47.63,14.46-54.24,16.27-38.22,20.91-55.75,32.83-24.24,29.15-31.83,36.6-26.94,41.34-28.66,55.44-5.51,46.53-5.8,63.39,5,54.75,13.88,78.46,16.55,44,26.41,59.48,19.42,26.12,28.94,29.67,21.1,4.83,28.38,3.27,25.91-1.51,63.14-23.65,76.27-236.09,76.27-236.09L344.42,122.32l7.22,0Z"/>
    <path class="cls-7" d="M369.24,129s-21.9-20.79-44.48-16.76-77.15,25.87-92.39,37.42-50.73,33.73-68,77.91-15,77.92-15,77.92,3.94,75.4,23.75,112,25.35,69.13,65.48,63.88,65.49-22.25,69.85-25.92S399.44,389.08,417.59,373s35.43-45.88,37.93-55.87,6.42-32.85-15.65-75.38-27-58.76-44.15-80.82S374.4,133.22,369.24,129Z"/>
    <path class="cls-8" d="M199.47,209.77c-.53.21-19.73,6.8-25,25.1s-11.88,43-11.76,62.3-.52,29.79,1.81,40.51,6,18.93,10.77,16.85,27.19-6.82,33.9-8.69,7.19-8,8.41-12.24,6.54-13.51,5.89-8.92-5.37,13-4.31,16.26,4.8,6.13,10,4,12.56-2.67,16-9.31,7.25-9.42,11.71-16.79,9.27-13.7,10.48-18.37.92-13.82-5-20.24-15.7-13.49-21-19.43-10.93-11.32-16.5-19.34-10.42-15-15.49-20.88S202.51,208.55,199.47,209.77Z"/>
    <path class="cls-9" d="M308.93,262.16c-3,5.58-2.81,16-7.57,19.3s-10.72,7.78-18.21,6.21-18.29-11.94-24-16.47-7.91-7.22-16.55-15.68-10.83-10.75-13.83-17.69-4.8-8.63-8.06-15.23-13.3-18.17-14.37-25.29.07-16.62,8.84-20.77,18.17-8.61,21.52-15.41,12.28-11,25.93-15.88,15.14-4.73,31.86-12.24,45.3-12.63,51.51-11.3S368.8,132,371.4,133.92s19.07,24.68,23,31.12,10.19,15.75,8.44,22.11-11,38.46-12.31,46.82a344.52,344.52,0,0,1-8.24,34.4c-1.84,5.41-6.7,13.59-21.18,11s-24.27-2-36.8-1.94-17.15-.2-17.15-.2Z"/>
    <path class="cls-10" d="M409.24,189.71c-.45,1.59-11,41.5-13.75,52.62S391,256.2,390,264s-2.28,8.06,7.55,10.65,19.82,5.08,30.52,7,11.38,3.6,17.71,2.94,8.65-1.25,8.07-2.36-20.46-53.48-31.89-71.61-7.26-18.88-10-19.9S410.82,184.06,409.24,189.71Z"/>
    <path class="cls-11" d="M170.57,360.22S165.89,398.5,187.34,430s32.13,52.07,71,43.25,36.12-10.92,38.82-16.1,13.36-37.12,23.95-45.3,17.32-15.46,37.74-23.9,74.1-37.36,82.87-48.11,13.18-34.87,12.57-39.68,1.24-10.61-3.26-10.44-24.93.26-36.64-2.56-18.55-9.78-23.79-9.49-12,1.89-12.33,5.86,5.57,31.51,3.91,37.68-2.26,11.74-4.49,14.71S378.74,325,379,320.3s-2.17-16.66-2.57-21.58.06-10.81-1.78-12.28-19.11-.47-29-.26-13.53-1.14-16.3.29S321.62,294.4,319,300s-5.55,17.1-10.25,25.2c-1,1.72-1.89,3.5-2.7,5.27-3,6.58-4.88,12.91-6.21,14.45-1.68,1.95,6.19-26,9.11-32.84S313.23,298,316.41,295s6.86-6.2,5.92-6-19.11,2.64-23.07,2.8-10-.22-14.93-.34-6.5-1.48-8.07.69-5.6,12.07-10.33,18-6.85,18-15.65,25.44-12.12,10.94-26.55,13.78-24.61,1.91-31.62,5.55-7,7.38-14.25,6.31Z"/>
    <path class="cls-11" d="M424.56,357.36s-23.45,27.74-55,49.74-41.36,32.08-45.29,33.71-15,6.31-16.38,8.52-1.7,4.94-3.1,4.65,2.63-11.84,7.54-19.75,4.93-16.11,13.71-21.41a385.44,385.44,0,0,1,34.92-18.12c11-4.94,25.57-10.2,31.28-14.18s9.8-8.15,18.17-13.77S424.8,354.93,424.56,357.36Z"/>
    <path class="cls-6" d="M384.16,117.05s-16.08-8.92-27.5-7S309,124.48,302.42,126.29s-38.21,20.91-55.75,32.83-24.23,29.15-31.83,36.6-26.94,41.34-28.66,55.44-5.51,46.53-5.8,63.39,5,54.75,13.88,78.46,16.55,44,26.41,59.48,19.42,26.12,28.94,29.67,21.1,4.83,28.39,3.27,25.9-1.51,63.14-23.65,76.27-236.09,76.27-236.09L381,122.32l7.22,0Z"/>
    <path class="cls-7" d="M405.85,129s-21.9-20.79-44.48-16.76S284.22,138.09,269,149.64s-50.73,33.73-68,77.91-15,77.92-15,77.92,3.94,75.4,23.75,112,25.35,69.13,65.49,63.88,65.49-22.25,69.85-25.92S436.06,389.08,454.2,373s35.44-45.88,37.94-55.87,6.41-32.85-15.66-75.38-27-58.76-44.15-80.82S411,133.22,405.85,129Z"/>
    <path class="cls-8" d="M236.08,209.77c-.53.21-19.72,6.8-25,25.1s-11.88,43-11.75,62.3-.52,29.79,1.8,40.51,6,18.93,10.77,16.85,27.19-6.82,33.9-8.69,7.19-8,8.41-12.24,6.54-13.51,5.89-8.92-5.37,13-4.31,16.26,4.8,6.13,10,4,12.56-2.67,16-9.31,7.25-9.42,11.71-16.79,9.27-13.7,10.49-18.37.91-13.82-5-20.24-15.69-13.49-21-19.43S267,249.52,261.44,241.5,251,226.48,246,220.62,239.12,208.55,236.08,209.77Z"/>
    <path class="cls-9" d="M345.55,262.16c-3,5.58-2.82,16-7.58,19.3s-10.72,7.78-18.21,6.21-18.29-11.94-24-16.47-7.91-7.22-16.54-15.68-10.84-10.75-13.83-17.69-4.8-8.63-8.06-15.23S244,204.43,243,197.31s.07-16.62,8.84-20.77,18.17-8.61,21.52-15.41,12.28-11,25.93-15.88,15.14-4.73,31.87-12.24,45.29-12.63,51.5-11.3S405.41,132,408,133.92,427.08,158.6,431,165s10.19,15.75,8.44,22.11-11,38.46-12.31,46.82a347.49,347.49,0,0,1-8.23,34.4c-1.85,5.41-6.71,13.59-21.19,11s-24.27-2-36.8-1.94-17.15-.2-17.15-.2Z"/>
    <path class="cls-10" d="M445.85,189.71c-.45,1.59-11,41.5-13.75,52.62s-4.53,13.87-5.53,21.67-2.29,8.06,7.54,10.65,19.82,5.08,30.53,7,11.37,3.6,17.7,2.94,8.65-1.25,8.07-2.36S470,228.76,458.52,210.63s-7.26-18.88-10-19.9S447.43,184.06,445.85,189.71Z"/>
    <path class="cls-11" d="M207.18,360.22S202.5,398.5,224,430s32.14,52.07,71,43.25,36.12-10.92,38.83-16.1,13.36-37.12,23.94-45.3,17.32-15.46,37.74-23.9,74.1-37.36,82.87-48.11,13.18-34.87,12.58-39.68,1.23-10.61-3.26-10.44-24.94.26-36.65-2.56-18.55-9.78-23.79-9.49-12,1.89-12.33,5.86,5.57,31.51,3.92,37.68-2.27,11.74-4.5,14.71,1.09-10.88,1.35-15.59-2.18-16.66-2.57-21.58,0-10.81-1.79-12.28-19.11-.47-29-.26-13.53-1.14-16.29.29-7.75,7.93-10.37,13.53-5.55,17.1-10.25,25.2c-1,1.72-1.89,3.5-2.7,5.27-3,6.58-4.88,12.91-6.21,14.45-1.68,1.95,6.19-26,9.11-32.84S349.84,298,353,295s6.86-6.2,5.91-6-19.11,2.64-23.07,2.8-10-.22-14.93-.34-6.5-1.48-8.07.69-5.6,12.07-10.33,18-6.85,18-15.65,25.44-12.11,10.94-26.55,13.78-24.61,1.91-31.62,5.55-6.95,7.38-14.25,6.31Z"/>
    <path class="cls-11" d="M461.17,357.36s-23.45,27.74-55,49.74-41.35,32.08-45.29,33.71-15,6.31-16.38,8.52-1.7,4.94-3.1,4.65,2.63-11.84,7.55-19.75,4.92-16.11,13.7-21.41a385.44,385.44,0,0,1,34.92-18.12c11-4.94,25.57-10.2,31.28-14.18s9.8-8.15,18.17-13.77S461.42,354.93,461.17,357.36Z"/>
    <path class="cls-6" d="M427.72,128.79s-16.08-8.91-27.51-7S352.59,136.23,346,138s-38.22,20.9-55.75,32.83S266,200,258.4,207.46s-26.95,41.34-28.66,55.44-5.52,46.53-5.8,63.4,5,54.75,13.88,78.45,16.55,44,26.41,59.49,19.41,26.12,28.94,29.67,21.1,4.82,28.38,3.27,25.91-1.51,63.14-23.66S461,237.44,461,237.44L424.58,134.07h7.23Z"/>
    <path class="cls-7" d="M449.41,140.72S427.5,119.94,404.93,124s-77.16,25.87-92.4,37.42-50.72,33.73-67.95,77.91-15,77.92-15,77.92,3.93,75.4,23.74,112,25.35,69.14,65.49,63.89,65.49-22.25,69.85-25.93,90.92-66.37,109.06-82.45,35.44-45.89,37.94-55.88S542.1,296,520,253.49s-27-58.75-44.15-80.81S454.56,145,449.41,140.72Z"/>
    <path class="cls-8" d="M279.64,221.52c-.53.21-19.73,6.79-25,25.09s-11.88,43-11.75,62.31-.52,29.78,1.81,40.51,6,18.93,10.76,16.85,27.19-6.83,33.91-8.69,7.19-8,8.41-12.25,6.54-13.5,5.88-8.91-5.36,13-4.3,16.25,4.8,6.13,10,4.05,12.57-2.68,16-9.31,7.24-9.42,11.71-16.79,9.27-13.7,10.48-18.38.92-13.82-5-20.23-15.69-13.49-21-19.43-10.92-11.32-16.5-19.34-10.42-15-15.48-20.88S282.67,220.3,279.64,221.52Z"/>
    <path class="cls-9" d="M389.1,273.91c-3,5.58-2.81,16-7.58,19.29s-10.72,7.79-18.21,6.22S345,287.47,339.32,283s-7.91-7.22-16.54-15.68S311.94,256.51,309,249.58s-4.8-8.63-8.06-15.23-13.31-18.17-14.38-25.3.08-16.61,8.85-20.76,18.17-8.62,21.52-15.41,12.28-11,25.93-15.88,15.13-4.73,31.86-12.24,45.29-12.63,51.5-11.3,22.8,10.32,25.4,12.21,19.07,24.68,23,31.12,10.18,15.74,8.43,22.11-11,38.45-12.3,46.82a345.19,345.19,0,0,1-8.24,34.4c-1.85,5.4-6.7,13.58-21.19,11s-24.27-2-36.79-1.94-17.15-.2-17.15-.2Z"/>
    <path class="cls-10" d="M489.4,201.45c-.44,1.6-11,41.51-13.74,52.62s-4.53,13.88-5.54,21.68-2.29,8.06,7.54,10.64,19.83,5.09,30.53,7,11.37,3.61,17.7,3,8.65-1.25,8.08-2.37-20.47-53.47-31.89-71.6-7.27-18.88-10-19.9S491,195.81,489.4,201.45Z"/>
    <path class="cls-11" d="M250.73,372s-4.67,38.28,16.78,69.75,32.13,52.07,71,43.25,36.12-10.92,38.82-16.1,13.36-37.12,23.94-45.31,17.32-15.45,37.75-23.89,74.1-37.36,82.87-48.11,13.18-34.88,12.57-39.68,1.23-10.62-3.26-10.44-24.93.26-36.64-2.56-18.55-9.79-23.79-9.49-12,1.89-12.33,5.85,5.56,31.52,3.91,37.68-2.27,11.75-4.5,14.72,1.1-10.88,1.35-15.59-2.17-16.67-2.57-21.58.05-10.81-1.79-12.28-19.11-.47-29-.27-13.53-1.13-16.29.3-7.75,7.93-10.37,13.53-5.55,17.1-10.24,25.2c-1,1.71-1.9,3.5-2.71,5.27-3,6.58-4.88,12.91-6.2,14.45-1.69,1.95,6.18-26,9.11-32.84s4.27-14.11,7.46-17.06,6.86-6.2,5.91-6-19.1,2.63-23.06,2.8-10-.22-14.94-.34-6.49-1.48-8.07.68-5.6,12.07-10.32,18-6.85,18-15.65,25.44-12.12,10.94-26.55,13.77-24.62,1.92-31.63,5.56S265.32,374.11,258,373Z"/>
    <path class="cls-11" d="M504.73,369.11s-23.45,27.74-55,49.73-41.36,32.09-45.3,33.72-15,6.3-16.38,8.52-1.69,4.94-3.1,4.65,2.63-11.84,7.55-19.75,4.92-16.11,13.7-21.41a386.77,386.77,0,0,1,34.92-18.12c11-4.94,25.58-10.2,31.28-14.18s9.81-8.15,18.17-13.77S505,366.68,504.73,369.11Z"/>
    <path class="cls-6" d="M491.61,168.63s-16.08-8.91-27.5-7-47.63,14.46-54.23,16.27-38.22,20.9-55.76,32.83-24.23,29.15-31.83,36.6-26.94,41.34-28.66,55.44-5.51,46.53-5.8,63.39,5,54.75,13.88,78.46,16.55,44,26.42,59.48,19.41,26.12,28.93,29.67,21.11,4.83,28.39,3.27,25.9-1.51,63.14-23.66,76.27-236.08,76.27-236.08L488.48,173.91h7.22Z"/>
    <path class="cls-7" d="M513.3,180.57s-21.9-20.79-44.48-16.76-77.15,25.87-92.39,37.42S325.7,235,308.48,279.14s-15,77.92-15,77.92,3.93,75.4,23.74,112S342.6,538.22,382.74,533s65.49-22.25,69.85-25.93,90.92-66.37,109.06-82.45,35.44-45.88,37.94-55.87,6.41-32.85-15.66-75.38-27-58.76-44.14-80.82S518.46,184.81,513.3,180.57Z"/>
    <path class="cls-8" d="M343.53,261.36c-.52.21-19.72,6.79-25,25.09s-11.88,43-11.75,62.31-.52,29.79,1.8,40.51,6,18.93,10.77,16.85,27.19-6.82,33.91-8.69,7.18-8,8.4-12.25,6.54-13.5,5.89-8.91-5.37,13-4.3,16.25,4.79,6.14,10,4.05,12.56-2.67,16-9.31,7.24-9.42,11.71-16.79,9.26-13.7,10.48-18.38.92-13.82-5-20.23-15.69-13.49-21-19.43-10.92-11.32-16.5-19.34-10.42-15-15.48-20.88S346.57,260.14,343.53,261.36Z"/>
    <path class="cls-9" d="M453,313.75c-3,5.58-2.81,16-7.58,19.3s-10.72,7.78-18.21,6.21-18.29-11.95-24-16.47-7.91-7.22-16.54-15.68-10.84-10.75-13.83-17.69-4.8-8.63-8.06-15.23-13.31-18.17-14.38-25.3.07-16.61,8.84-20.76,18.17-8.62,21.52-15.41,12.28-11,25.94-15.88,15.13-4.73,31.86-12.24,45.29-12.63,51.5-11.3,22.8,10.32,25.39,12.21,19.07,24.68,23,31.12,10.19,15.74,8.44,22.11-11,38.45-12.31,46.82a348.17,348.17,0,0,1-8.23,34.4c-1.85,5.41-6.7,13.58-21.19,11s-24.27-2-36.79-1.94-17.16-.2-17.16-.2Z"/>
    <path class="cls-10" d="M553.3,241.3c-.45,1.59-11,41.5-13.75,52.62S535,307.79,534,315.59s-2.29,8.06,7.54,10.65,19.82,5.08,30.53,7,11.37,3.6,17.7,2.94,8.65-1.25,8.07-2.37S577.4,280.35,566,262.22s-7.26-18.88-10-19.9S554.88,235.65,553.3,241.3Z"/>
    <path class="cls-11" d="M314.63,411.81S310,450.09,331.4,481.56s32.14,52.07,71,43.25,36.12-10.92,38.83-16.1,13.36-37.12,23.94-45.31,17.32-15.45,37.74-23.89,74.1-37.36,82.87-48.11,13.18-34.88,12.58-39.68,1.23-10.62-3.26-10.44-24.94.26-36.64-2.56-18.56-9.78-23.8-9.49-12,1.89-12.33,5.85,5.57,31.52,3.92,37.69-2.27,11.74-4.5,14.71,1.1-10.88,1.35-15.59-2.18-16.66-2.57-21.58,0-10.81-1.79-12.28-19.11-.47-29-.27-13.53-1.13-16.29.3-7.75,7.93-10.37,13.53-5.55,17.1-10.25,25.2c-1,1.72-1.89,3.5-2.7,5.27-3,6.58-4.88,12.91-6.21,14.45-1.68,1.95,6.19-26,9.12-32.84s4.27-14.11,7.46-17.06,6.86-6.2,5.91-6-19.11,2.64-23.06,2.8-10-.22-14.94-.34-6.5-1.48-8.07.68-5.6,12.08-10.33,18-6.85,18-15.64,25.44S382.23,398.18,367.79,401s-24.61,1.92-31.62,5.56-6.95,7.38-14.25,6.31Z"/>
    <path class="cls-11" d="M568.62,409s-23.45,27.74-55,49.74-41.35,32.08-45.29,33.71-15,6.31-16.38,8.52-1.7,4.94-3.1,4.65,2.63-11.84,7.55-19.75,4.92-16.11,13.7-21.41A385.44,385.44,0,0,1,505,446.29c11-4.94,25.58-10.2,31.28-14.18s9.8-8.15,18.17-13.77S568.87,406.52,568.62,409Z"/>
    <path class="cls-6" d="M555.51,167.54s-16.08-8.92-27.5-7S480.38,175,473.77,176.78s-38.22,20.9-55.75,32.83-24.24,29.15-31.83,36.6-26.94,41.34-28.66,55.44S352,348.18,351.73,365s5,54.75,13.88,78.46,16.55,44,26.41,59.48S411.44,529.1,421,532.65s21.1,4.83,28.38,3.27,25.91-1.51,63.14-23.65,76.27-236.09,76.27-236.09L552.38,172.81l7.22,0Z"/>
    <path class="cls-7" d="M577.2,179.47s-21.9-20.79-44.48-16.76-77.15,25.87-92.39,37.42S389.6,233.86,372.38,278s-15,77.92-15,77.92,3.94,75.4,23.75,112,25.35,69.13,65.48,63.88,65.49-22.25,69.85-25.93,90.92-66.37,109.07-82.45,35.43-45.88,37.93-55.87,6.42-32.85-15.65-75.38-27-58.76-44.15-80.82S582.36,183.71,577.2,179.47Z"/>
    <path class="cls-8" d="M407.43,260.26c-.53.21-19.73,6.79-25,25.09s-11.88,43-11.76,62.31-.52,29.79,1.81,40.51,6,18.93,10.77,16.85,27.19-6.82,33.9-8.69,7.19-8,8.41-12.24,6.54-13.51,5.89-8.92-5.37,13-4.31,16.26,4.8,6.13,10,4,12.56-2.67,16-9.31,7.25-9.42,11.71-16.79,9.27-13.7,10.48-18.37.92-13.82-5-20.24-15.7-13.49-21-19.43S438.36,300,432.79,292s-10.42-15-15.49-20.88S410.47,259,407.43,260.26Z"/>
    <path class="cls-9" d="M516.89,312.65c-3,5.58-2.81,16-7.57,19.3s-10.72,7.78-18.21,6.21-18.29-12-24-16.47-7.91-7.22-16.55-15.68-10.83-10.75-13.83-17.69-4.8-8.63-8.06-15.23-13.3-18.17-14.37-25.29.07-16.62,8.84-20.77,18.17-8.61,21.52-15.41,12.28-11,25.93-15.88,15.14-4.73,31.86-12.24,45.3-12.63,51.5-11.3,22.8,10.32,25.4,12.21,19.07,24.68,23,31.12,10.19,15.75,8.44,22.11-11,38.45-12.31,46.82a345.19,345.19,0,0,1-8.24,34.4c-1.84,5.41-6.7,13.59-21.18,11s-24.28-2-36.8-1.94-17.15-.2-17.15-.2Z"/>
    <path class="cls-10" d="M617.2,240.2c-.45,1.59-11,41.5-13.75,52.62s-4.53,13.87-5.54,21.67-2.28,8.06,7.55,10.65,19.82,5.08,30.52,7,11.38,3.6,17.71,2.94,8.65-1.25,8.07-2.36-20.46-53.48-31.89-71.61-7.26-18.88-10-19.9S618.78,234.55,617.2,240.2Z"/>
    <path class="cls-11" d="M378.53,410.71S373.85,449,395.3,480.46s32.13,52.07,71,43.25,36.12-10.92,38.82-16.1,13.36-37.12,23.94-45.3,17.33-15.46,37.75-23.9,74.1-37.36,82.87-48.11,13.18-34.87,12.57-39.68S663.45,340,659,340.18s-24.93.26-36.64-2.56-18.55-9.78-23.79-9.49-12,1.89-12.33,5.86,5.57,31.51,3.91,37.68-2.26,11.74-4.49,14.71,1.09-10.88,1.34-15.59-2.17-16.66-2.57-21.58.06-10.81-1.78-12.28-19.11-.47-29-.27-13.52-1.13-16.29.3-7.74,7.93-10.36,13.53-5.55,17.1-10.25,25.2c-1,1.72-1.89,3.5-2.71,5.27-3,6.58-4.87,12.91-6.2,14.45-1.68,1.95,6.19-26,9.11-32.84s4.28-14.11,7.46-17.06,6.86-6.2,5.92-6-19.11,2.64-23.07,2.8-10-.22-14.93-.34-6.5-1.48-8.07.69-5.6,12.07-10.33,18-6.85,18-15.65,25.44-12.12,10.94-26.55,13.77-24.61,1.92-31.62,5.56-7,7.38-14.25,6.31Z"/>
    <path class="cls-11" d="M632.52,407.85s-23.45,27.74-55,49.74-41.36,32.08-45.29,33.71-15,6.31-16.38,8.52-1.7,4.94-3.1,4.65,2.63-11.84,7.54-19.75,4.92-16.11,13.71-21.41a385.44,385.44,0,0,1,34.92-18.12c11-4.94,25.57-10.2,31.28-14.18s9.8-8.15,18.17-13.77S632.76,405.42,632.52,407.85Z"/>
    <path class="cls-6" d="M851.55,486.14s2.3,17.65-3.55,27.6-30.39,39.39-34.43,44.92-32.85,28.69-50.06,41.11S728.2,613,718.68,617.61s-47.39,11.83-60.85,9S613.46,617,598,611.94s-48-21.9-66.43-37.55-34.07-29.15-44.63-43.14-16.76-26.16-16.55-36.07,3.24-21,7.29-27.22,10.74-23.44,44.37-50.82,242.58,4.05,242.58,4.05l81,66.18,2.6-6.68Z"/>
    <path class="cls-7" d="M848.53,462.35s11,26.77-.83,46.34-51.46,63.06-67.48,73.48-49.07,36.18-95.53,38.15-76.38-10.75-76.38-10.75-67.23-27.41-93.43-57.25-53.79-45.2-34.49-80.59,43.94-53.43,48.86-56.29,93.33-63,114.53-74.66,54.6-18.24,64.6-17.4,32.23,4.44,63,38.22S815.1,405.09,829,427.83,846.53,456.26,848.53,462.35Z"/>
    <path class="cls-8" d="M713.56,593.57c-.38.42-13.32,16.07-31.89,15.16s-43.42-2.59-61-8.8-27.32-8.92-36.24-14.45S569.36,574,573,570.23s16-22.94,20.18-28.55,9.86-4.12,14.19-3.9S622,536,617.6,535.16s-13.81.84-16.36-1.16-3.85-6.36-.07-10.49,7-10.75,14.26-11.83,11.2-3.71,19.52-5.51,15.83-4.23,20.53-3.88,12.92,3.51,16.6,11,6.62,18.74,10.11,25.51,6.35,13.65,11.64,21.33,9.91,14.35,13.42,20.88S715.77,591.15,713.56,593.57Z"/>
    <path class="cls-9" d="M705.43,476c-6.15,1-15.6-2.46-20.31.91s-11,7.43-12.24,14.84,4.26,20.65,6.32,27.34,3.71,9.57,8.3,20.21,5.87,13.4,11.11,18.35,6.12,7.15,10.95,12.24,11.73,18,17.84,21.24,15.16,5.18,22.1-1.61,14.42-14,21.82-15,14.47-7.86,23.84-18.93,9.78-12.48,22.67-25.55,27.88-37.82,28.91-44-1.15-24.3-1.93-27.29-15.58-25.38-20-31.06S814.14,413.37,807.7,413s-39-2-47.08-3.41a335.27,335.27,0,0,0-34.31-3.24c-5.59,0-14.79,1.9-17.67,16.09s-7,23-11.54,34.57-6,15.89-6,15.89Z"/>
    <path class="cls-10" d="M807.68,406.29c-1.61-.09-41.78-2.92-52.89-3.91s-14.27-.2-21.74-1.73-8.17-.43-7-10.31,2.54-19.9,4.65-30.39.83-11.63,3.72-17.27,4.27-7.59,5.08-6.7,41.3,35.75,53.67,52,14.57,12.66,14.52,15.48S813.4,406.61,807.68,406.29Z"/>
    <path class="cls-11" d="M566.09,572.8s-36.55-7.75-57.45-37.47-35.8-46.08-13.73-79.14,23-29.89,28.7-30.75,38.64-.63,49.92-7.81,20.34-11.12,35.41-27.31,60.82-56.61,73.78-61.31,36.53-1.17,40.68.9,10.12,2.21,8.33,6.3-9.25,22.93-10.92,34.63,2.2,20.21,0,25-6,10.44-9.79,9.53-26.69-15.08-32.9-15.5-11.51-1.61-15-.49,10.31,2.42,14.69,3.68,14.39,7.26,18.72,9.17,9.87,3.36,10.54,5.53-6.49,17.78-10.24,26.83-3.86,12.85-6.16,14.94-10,4.65-16.07,5.3S657,454.53,648,456.31c-1.93.37-3.88.64-5.78.83-7.09.72-13.52.43-15.4,1.17-2.39.94,25.92,2.49,33.2,1.95s14.39.5,18.23-1.51,8.13-4.38,7.58-3.57-9.3,16.8-10.89,20.4-3.39,9.27-5.09,13.89-1,6.47-3.54,7.24-13,1.36-20.15,3.84-18.85.66-28.82,6.43-14.35,7.73-22.15,20.16-10.65,22.11-16.49,27.43-9.24,4.1-10.9,11.16Z"/>
    <path class="cls-11" d="M660.55,339.28s-33.75,12.89-65.19,35.09-44.17,28.06-47.08,31.17S537.1,417.42,534.59,418s-5.11,0-5.35,1.39,11.73,1.31,20.71-.74,16.45.54,24.46-5.89,20.64-17.92,29.12-26.52,18.54-20.39,24.23-24.4,11-6.48,19.11-12.43S662.85,339.81,660.55,339.28Z"/>
  </g>
</svg>
