<svg id="Layer_1" data-name="Layer 1" xmlns="http://www.w3.org/2000/svg" viewBox="0 0 1000 1000">
  <defs>
    <style>
      .cls-1 {
        font-size: 150px;
        fill: #231f20;
        font-family: FreeSansBold, FreeSans;
      }

      .cls-2, .cls-4 {
        letter-spacing: -0.02em;
      }

      .cls-3 {
        letter-spacing: -0.01em;
      }

      .cls-4, .cls-5 {
        fill: #ed1c24;
      }

      .cls-6 {
        fill: #613011;
        stroke: #391c11;
        stroke-miterlimit: 10;
        stroke-width: 3px;
      }

      .cls-7 {
        fill: #4f280f;
      }

      .cls-8 {
        fill: #b57339;
      }

      .cls-9 {
        fill: #351c0d;
      }
    </style>
  </defs>
  <title>hat</title>
  <text class="cls-1" transform="translate(114.2 809.7)">h + <tspan class="cls-2" x="262.65" y="0">a</tspan><tspan x="343.05" y="0">t = </tspan><tspan class="cls-3" x="564" y="0">h</tspan><tspan class="cls-4" x="653.4" y="0">a</tspan><tspan class="cls-5" x="733.8" y="0">t</tspan></text>
  <g>
    <path class="cls-6" d="M343.37,347.24S233.77,390.69,191.76,424c0,0-23.66,15-26.07,27.52s43.93,75.32,107.19,99,155,42.49,243.35,28,153.06-28.49,197-39.11,102.37-53,116.37-77,30.42-65,26.07-73.21S804.48,365.58,775,355.93,659.15,331.3,659.15,331.3Z"/>
    <path class="cls-7" d="M317.3,362.65s-28.49,10.18-30.9,21.28-1.94,62.41,95.11,78.52,182-3.2,200.87,9.84,37.66,57.46,54.07,64.22,140-34.28,156-45.87,62.29-90.29,58.42-97.05-87.39-38.63-129.4-43-200.38,14-223.07,14S317.3,362.65,317.3,362.65Z"/>
    <path class="cls-8" d="M210.11,429.32s-20.77,33.8,14.48,53.59,86.91,45.87,111.54,57,33.31,27,78.22,32.83c0,0-87.6-5.06-128.54-27.52S191.76,485.33,185,473.74s-12.07-22.61-3.86-30.14S210.11,429.32,210.11,429.32Z"/>
    <path class="cls-6" d="M299,395.52s49.25,71,205.21,57S733,362.65,733,362.65s-46.35-153.51-67.6-180.06-84-43.46-137.61-41-109.12,25.59-136.64,39.11-47.32,50.69-59.87,92.7S299.54,367.52,299,395.52Z"/>
    <path class="cls-7" d="M376.2,199.49s6.76,29.45,55.53,33.31,111.54-6.27,125.54,7.73,24.62,71.94,27,90.77,7.24,52.63,0,71.46S531.68,437,498.36,441.39s-51.66,8.69-51.66,8.69,92.7,7.24,183.48-30.42l97.53-57S678,194.18,654.32,180.17s-65.38-36.53-121.19-33.8S423,173.9,408.55,178.72,378.62,188.86,376.2,199.49Z"/>
    <path class="cls-6" d="M386.34,199s-.48,15.94,35.73,17.39,99.95-.49,132.3-8.7,75.32-29,75.32-29"/>
    <path class="cls-9" d="M561.61,151.69s9.3,6.76,6.82,11.1-31.92,22.69-54.62,27.52-93.19,21.85-107.67,19.8-16.6-4.09-16.6-4.09-.78,12.21,70.68,10.81,108.15-5.27,128.43-7.69,36.7,6.76,41,20.28,21.62,89.38,27,105.74,15.34,60,15.34,60l55.64-32.53s-45.79-163.21-70.94-180.57S585.48,149.55,568.43,148,561.61,151.69,561.61,151.69Z"/>
    <path class="cls-8" d="M365.1,259.36s-15,96.57-9.66,119.26,15.28,50.22,4.26,43.46-42.4-17.87-40.47-35.73,29.45-98,35.73-108.16A174.65,174.65,0,0,0,365.1,259.36Z"/>
  </g>
</svg>
