<?xml version="1.0" encoding="UTF-8" standalone="no"?>
<!-- Created with Inkscape (http://www.inkscape.org/) -->

<svg
   width="1000"
   height="1000"
   viewBox="0 0 264.58333 264.58334"
   version="1.1"
   id="svg2383"
   inkscape:version="1.2 (1:1.2.1+202207142221+cd75a1ee6d)"
   sodipodi:docname="What day is today.svg"
   enable-background="new"
   xmlns:inkscape="http://www.inkscape.org/namespaces/inkscape"
   xmlns:sodipodi="http://sodipodi.sourceforge.net/DTD/sodipodi-0.dtd"
   xmlns="http://www.w3.org/2000/svg"
   xmlns:svg="http://www.w3.org/2000/svg"
   xmlns:rdf="http://www.w3.org/1999/02/22-rdf-syntax-ns#"
   xmlns:cc="http://creativecommons.org/ns#"
   xmlns:dc="http://purl.org/dc/elements/1.1/">
  <defs
     id="defs2377" />
  <sodipodi:namedview
     id="base"
     pagecolor="#ffffff"
     bordercolor="#666666"
     borderopacity="1.0"
     inkscape:pageopacity="0.0"
     inkscape:pageshadow="2"
     inkscape:zoom="0.70710678"
     inkscape:cx="401.63665"
     inkscape:cy="477.29708"
     inkscape:document-units="px"
     inkscape:current-layer="layer3"
     showgrid="false"
     units="px"
     inkscape:window-width="1920"
     inkscape:window-height="1056"
     inkscape:window-x="0"
     inkscape:window-y="1080"
     inkscape:window-maximized="1"
     showguides="true"
     inkscape:lockguides="true"
     inkscape:object-nodes="false"
     inkscape:snap-nodes="false"
     inkscape:snap-others="false"
     inkscape:showpageshadow="2"
     inkscape:pagecheckerboard="0"
     inkscape:deskcolor="#d1d1d1" />
  <metadata
     id="metadata2380">
    <rdf:RDF>
      <cc:Work
         rdf:about="">
        <dc:format>image/svg+xml</dc:format>
        <dc:type
           rdf:resource="http://purl.org/dc/dcmitype/StillImage" />
        <dc:title />
      </cc:Work>
    </rdf:RDF>
  </metadata>
  <g
     inkscape:groupmode="layer"
     id="layer3"
     inkscape:label="Layer 2">
    <ellipse
       style="fill:#ffff00;fill-opacity:1;stroke-width:0.45916313"
       id="path3018"
       cx="133.53714"
       cy="218.77054"
       rx="105.7971"
       ry="33.096272" />
    <text
       xml:space="preserve"
       style="font-style:normal;font-weight:normal;font-size:10.58333302px;line-height:1.25;font-family:sans-serif;letter-spacing:0px;word-spacing:0px;fill:#000000;fill-opacity:1;stroke:none;stroke-width:0.26458332"
       x="2.6192422"
       y="64.398453"
       id="text20604"><tspan
         sodipodi:role="line"
         id="tspan20602"
         x="2.6192422"
         y="73.762222"
         style="font-style:normal;font-variant:normal;font-weight:bold;font-stretch:normal;font-size:12.69999981px;font-family:sans-serif;-inkscape-font-specification:'sans-serif Bold';stroke-width:0.26458332" /></text>
    <text
       xml:space="preserve"
       style="font-style:normal;font-weight:normal;font-size:10.58333302px;line-height:1.25;font-family:sans-serif;letter-spacing:0px;word-spacing:0px;fill:#000000;fill-opacity:1;stroke:none;stroke-width:0.26458332"
       x="40.411156"
       y="38.954399"
       id="text20997"><tspan
         sodipodi:role="line"
         id="tspan20995"
         x="40.411156"
         y="48.318169"
         style="font-style:normal;font-variant:normal;font-weight:bold;font-stretch:normal;font-size:12.69999981px;font-family:sans-serif;-inkscape-font-specification:'sans-serif Bold';stroke-width:0.26458332" /></text>
    <flowRoot
       xml:space="preserve"
       id="flowRoot20999"
       style="fill:black;fill-opacity:1;stroke:none;font-family:sans-serif;font-style:normal;font-weight:normal;font-size:40px;line-height:1.25;letter-spacing:0px;word-spacing:0px"><flowRegion
         id="flowRegion21001"><rect
           id="rect21003"
           width="33.941124"
           height="135.7645"
           x="292.74222"
           y="186.82719" /></flowRegion><flowPara
         id="flowPara21005" /></flowRoot>
    <path
       d="m 257.61962,150.68274 c 0.016,0.004 0.0312,0.003 0.0499,0.002 1.56668,-0.26116 3.30952,-0.31808 3.3272,-0.31571 0.0673,-0.003 0.12498,-0.0467 0.13058,-0.0987 0.003,-0.0508 -0.0484,-0.0922 -0.11584,-0.0883 -0.0157,-0.002 -1.78175,0.0565 -3.36879,0.31836 -0.0677,0.0126 -0.11495,0.0611 -0.10978,0.11179 0.007,0.0362 0.0393,0.0632 0.0866,0.0706"
       style="fill:#ce6748;fill-opacity:1;fill-rule:nonzero;stroke:none;stroke-width:0.03527778"
       id="path16424"
       inkscape:connector-curvature="0" />
    <path
       sodipodi:nodetypes="ccccc"
       id="path1929-2"
       style="fill:#ffff00;fill-opacity:1;fill-rule:nonzero;stroke:none;stroke-width:0.01865087"
       d="m 48.582395,10.062906 c 17.811458,-5.256565 102.821985,-4.8659032 126.511775,1.73176 22.72738,6.329333 25.45896,25.022345 6.40537,31.136635 -14.89389,4.778978 -106.927874,10.364688 -132.917145,3.929865 -26.583668,-6.582174 -20.854087,-30.643804 0,-36.79826"
       inkscape:connector-curvature="0" />
    <path
       sodipodi:nodetypes="cccc"
       id="path1931-1"
       style="fill:#ffff00;fill-opacity:1;fill-rule:nonzero;stroke:none;stroke-width:0.00860131"
       d="M 80.254254,56.868107 68.669097,45.911733 94.1626,49.64958 Z"
       inkscape:connector-curvature="0" />
    <path
       d="m 25.342575,111.77758 c 4.867414,20.33461 -8.351341,29.52609 -9.150891,40.80416 -0.910324,12.85198 8.984838,18.34391 13.445805,18.25636 -4.531709,-3.74063 1.417377,-17.21458 1.417377,-17.21458 0,0 -3.466982,25.50864 11.586189,26.53474 -1.063882,-5.87368 -1.244971,-17.841 -1.244971,-17.841 0,0 1.078919,25.42555 17.302504,26.3551 -2.586311,-5.58626 -0.29271,-23.85835 -0.29271,-23.85835 0,0 3.878088,19.28248 2.602197,23.11067 16.052873,-3.81923 17.927951,-20.64086 18.237397,-27.13646 2.705768,2.46755 0.952896,11.19497 -1.843945,15.30833 12.756176,-5.64913 15.695777,-12.89241 12.948707,-28.08846 5.835138,3.37466 2.403951,16.90023 1.043543,19.25776 9.751773,-5.77711 11.254083,-20.99786 4.327111,-35.66875 -3.504472,-7.42199 -8.827255,-9.84398 -8.155001,-18.08908 0.303512,-3.72268 -55.708292,-1.39209 -62.223312,-1.73044"
       style="fill:#925536;fill-opacity:1;fill-rule:nonzero;stroke:none;stroke-width:0.03527778"
       id="path734"
       inkscape:connector-curvature="0" />
    <path
       d="m 27.897539,119.91896 c 0,0 -2.631214,6.97967 -5.586482,1.20974 -2.015293,3.56777 3.521204,8.32978 5.716739,3.93665 2.195961,-4.39242 -0.130257,-5.14639 -0.130257,-5.14639"
       style="fill:#925536;fill-opacity:1;fill-rule:nonzero;stroke:none;stroke-width:0.03527778"
       id="path736"
       inkscape:connector-curvature="0" />
    <path
       d="m 84.078569,118.80666 c 0,0 7.905289,4.19102 6.15094,-3.77254 4.665772,1.55488 3.226372,10.84382 -2.251243,8.67913 -5.477617,-2.16399 -3.899697,-4.90659 -3.899697,-4.90659"
       style="fill:#925536;fill-opacity:1;fill-rule:nonzero;stroke:none;stroke-width:0.03527778"
       id="path738"
       inkscape:connector-curvature="0" />
    <path
       d="m 12.930784,142.26915 c 0.595374,-0.29864 1.548058,1.63232 1.832933,1.65477 -0.01461,-0.0764 -0.835982,-2.29244 -1.02025,-2.77066 -0.429747,-1.12041 0.521032,-1.69519 1.055832,-0.80607 0.448383,0.74768 1.362519,2.53493 1.415047,2.62474 -0.01758,-0.10102 -0.730081,-2.43614 -0.868389,-2.86498 -0.406445,-1.26186 0.858222,-1.92062 1.351721,-0.4805 0.336129,0.97445 0.866268,2.71454 0.94993,2.84926 0.03262,-0.0742 -0.06206,-1.45942 -0.06248,-2.27895 2.06e-4,-1.35391 1.089931,-1.54252 1.341552,-0.0179 0.195067,1.20571 0.790021,4.06396 0.790021,4.06396 0,0 1.257254,-1.50434 2.028847,-0.75442 0.780912,0.74993 -1.495954,3.30505 -1.495954,3.30505 l -0.152923,0.0876 c 0.975984,1.67496 7.514937,7.52617 18.953287,1.82541 2.524674,-1.25961 3.884443,2.74148 1.631084,3.80799 -16.400016,7.75295 -22.68862,-1.6121 -24.181609,-3.78105 0,0 -0.97323,0.5052 -2.69306,-3.21075 -0.673952,-1.45719 -1.448934,-2.96377 -0.875587,-3.25339"
       style="fill:#fabd99;fill-opacity:1;fill-rule:nonzero;stroke:none;stroke-width:0.03527778"
       id="path740"
       inkscape:connector-curvature="0" />
    <path
       d="m 51.096178,190.12953 c 0,0 -0.149108,30.80526 -0.329353,34.23829 2.140893,0.58153 3.488164,0.15268 3.488164,0.15268 l 1.099885,-34.92759 -4.258696,0.53662"
       style="fill:#fabd99;fill-opacity:1;fill-rule:nonzero;stroke:none;stroke-width:0.03527778"
       id="path742"
       inkscape:connector-curvature="0" />
    <path
       d="m 54.743192,226.55698 c 0.40666,0.95646 1.903885,1.69966 -1.701405,4.71731 -2.168636,1.81419 -4.498879,3.21077 -7.667221,2.07464 -2.6651,-0.95648 -1.046299,-4.0572 -1.046299,-4.0572 l 10.414925,-2.73475"
       style="fill:#cdd0d0;fill-opacity:1;fill-rule:nonzero;stroke:none;stroke-width:0.03527778"
       id="path744"
       inkscape:connector-curvature="0" />
    <path
       d="m 54.5549,221.96088 c 0.524209,0.89138 1.786123,3.5251 -0.55598,5.88487 -1.576228,1.58741 -4.550984,4.29298 -8.492402,3.15014 -3.090609,-0.89587 -1.032534,-3.67554 0.595164,-4.77796 1.293896,-0.88014 3.52438,-3.00193 4.380906,-3.83044 0.219427,-0.21331 0.348838,-0.3413 0.348838,-0.3413 0,0 0.440335,1.91075 3.723474,-0.0853"
       style="fill:#186bbe;fill-opacity:1;fill-rule:nonzero;stroke:none;stroke-width:0.03527778"
       id="path746"
       inkscape:connector-curvature="0" />
    <path
       d="m 50.135445,223.26988 c 0,-0.65336 -0.539035,-1.89503 0,-2.64269 0.433559,-0.60398 3.494516,-0.6489 3.888044,0.46251 0.230865,0.65338 -0.423181,2.11505 -0.96264,2.45186 -0.632439,0.39518 -2.309696,0.0988 -2.925404,-0.27168"
       style="fill:#186bbe;fill-opacity:1;fill-rule:nonzero;stroke:none;stroke-width:0.03527778"
       id="path748"
       inkscape:connector-curvature="0" />
    <path
       d="m 49.206695,223.55951 c 0.942728,-0.18185 2.295294,0.24699 2.7907,0.79485 0.490532,0.55234 -0.04172,0.94524 -0.441396,0.90033 -0.400729,-0.0426 -1.584698,-0.53213 -2.899778,-0.72296 -1.313804,-0.18637 -0.203753,-0.82852 0.550474,-0.97222"
       style="fill:#e0e0de;fill-opacity:1;fill-rule:nonzero;stroke:none;stroke-width:0.03527778"
       id="path750"
       inkscape:connector-curvature="0" />
    <path
       d="m 47.588954,225.26145 c 0.942729,-0.18188 2.295083,0.24473 2.790487,0.79481 0.490533,0.5501 -0.04172,0.94527 -0.441395,0.90038 -0.400517,-0.045 -1.5847,-0.53439 -2.899566,-0.72523 -1.314018,-0.18636 -0.203964,-0.82852 0.550474,-0.96996"
       style="fill:#e0e0de;fill-opacity:1;fill-rule:nonzero;stroke:none;stroke-width:0.03527778"
       id="path752"
       inkscape:connector-curvature="0" />
    <path
       d="m 68.341496,190.38775 c 0.135341,25.6164 0.01335,27.96047 0.329562,33.98007 -2.141102,0.58153 -3.488373,0.15268 -3.488373,0.15268 l -1.099674,-34.92759 4.258485,0.79484"
       style="fill:#fabd99;fill-opacity:1;fill-rule:nonzero;stroke:none;stroke-width:0.03527778"
       id="path754"
       inkscape:connector-curvature="0" />
    <path
       d="m 64.694692,226.55698 c -0.406868,0.95646 -1.903884,1.69966 1.701193,4.71731 2.16885,1.81419 4.499091,3.21077 7.66722,2.07464 2.665314,-0.95648 1.046514,-4.0572 1.046514,-4.0572 l -10.414927,-2.73475"
       style="fill:#cdd0d0;fill-opacity:1;fill-rule:nonzero;stroke:none;stroke-width:0.03527778"
       id="path756"
       inkscape:connector-curvature="0" />
    <path
       d="m 64.882773,221.96088 c -0.523998,0.89138 -1.85623,3.71142 0.556192,5.88487 1.656502,1.49087 4.550983,4.29298 8.492405,3.15014 3.090398,-0.89587 1.032315,-3.67554 -0.595166,-4.77796 -1.294109,-0.88014 -3.524594,-3.00193 -4.380908,-3.83044 -0.219639,-0.21331 -0.348837,-0.3413 -0.348837,-0.3413 0,0 -0.440334,1.91075 -3.723686,-0.0853"
       style="fill:#186bbe;fill-opacity:1;fill-rule:nonzero;stroke:none;stroke-width:0.03527778"
       id="path758"
       inkscape:connector-curvature="0" />
    <path
       d="m 69.302439,223.26988 c 0,-0.65336 0.539035,-1.89503 0,-2.64269 -0.43377,-0.60398 -3.494518,-0.6489 -3.888044,0.46251 -0.230863,0.65338 0.423181,2.11505 0.962639,2.45186 0.63244,0.39518 2.309698,0.0988 2.925405,-0.27168"
       style="fill:#186bbe;fill-opacity:1;fill-rule:nonzero;stroke:none;stroke-width:0.03527778"
       id="path760"
       inkscape:connector-curvature="0" />
    <path
       d="m 70.230977,223.55951 c -0.94273,-0.18185 -2.295083,0.24699 -2.790484,0.79485 -0.490534,0.55234 0.04172,0.94524 0.441392,0.90033 0.400518,-0.0426 1.584699,-0.53213 2.899568,-0.72296 1.314016,-0.18637 0.203965,-0.82852 -0.550476,-0.97222"
       style="fill:#e0e0de;fill-opacity:1;fill-rule:nonzero;stroke:none;stroke-width:0.03527778"
       id="path762"
       inkscape:connector-curvature="0" />
    <path
       d="m 71.848932,225.26145 c -0.942729,-0.18188 -2.295082,0.24473 -2.790487,0.79481 -0.490535,0.5501 0.04151,0.94527 0.441394,0.90038 0.400515,-0.045 1.584488,-0.53439 2.899565,-0.72523 1.31402,-0.18636 0.203965,-0.82852 -0.550472,-0.96996"
       style="fill:#e0e0de;fill-opacity:1;fill-rule:nonzero;stroke:none;stroke-width:0.03527778"
       id="path764"
       inkscape:connector-curvature="0" />
    <path
       d="m 66.308198,142.29161 -3.604018,-0.44907 v -3.87266 h -5.659977 v 3.88165 l -3.513789,0.44008 c -0.35392,7.07486 5.9601,7.44534 6.377561,7.46106 v 0.002 l 0.01144,-0.002 0.0101,0.002 v -0.002 c 0.417884,-0.0156 6.731693,-0.3862 6.37862,-7.46106"
       style="fill:#fabd99;fill-opacity:1;fill-rule:nonzero;stroke:none;stroke-width:0.03527778"
       id="path766"
       inkscape:connector-curvature="0" />
    <path
       d="m 59.918566,140.78279 c 1.009658,0 1.890753,0.37944 2.386156,0.94749 v -2.62249 H 57.53389 v 2.62249 c 0.495616,-0.56805 1.376712,-0.94749 2.384676,-0.94749"
       style="fill:#efa378;fill-opacity:1;fill-rule:nonzero;stroke:none;stroke-width:0.03527778"
       id="path768"
       inkscape:connector-curvature="0" />
    <path
       d="m 67.672625,142.35221 c -0.03685,6.00839 -4.033339,8.23345 -7.768038,7.67214 v -0.006 l -0.02457,0.004 -0.0252,-0.004 v 0.006 c -3.734489,0.56131 -7.4533,-1.66375 -7.489308,-7.67214 -1.613929,0.002 -7.633334,1.51109 -12.430219,5.35499 0.07476,1.43025 3.224893,7.44761 4.123779,8.16385 1.316772,-0.94301 2.13369,-1.23265 2.954635,-2.11729 -0.137886,5.02718 -2.462619,21.04277 -2.238534,23.10617 0,0 6.93566,1.18102 15.079647,1.27533 v 0.002 h 0.0252 0.02457 v -0.002 c 8.144199,-0.0943 14.814892,-1.65253 14.814892,-1.65253 0.224298,-2.06566 -1.472872,-17.79833 -1.507812,-22.45281 1.052013,0.76566 1.78337,1.26635 2.231963,1.48189 0.898888,-0.71623 4.650956,-6.76279 4.726143,-8.19302 -5.23002,-4.32216 -10.875594,-4.96431 -12.497148,-4.96658"
       style="fill:#186bbe;fill-opacity:1;fill-rule:nonzero;stroke:none;stroke-width:0.03527778"
       id="path770"
       inkscape:connector-curvature="0" />
    <path
       d="m 76.705119,156.74447 c 0,0 4.242178,-4.7308 4.892195,-8.806 -0.885115,-0.64214 -2.090906,-1.30449 -2.090906,-1.30449 0,0 -2.111658,5.01594 -5.125809,8.59717 1.34113,0.9273 2.32452,1.51332 2.32452,1.51332"
       style="fill:#fef5fa;fill-opacity:1;fill-rule:nonzero;stroke:none;stroke-width:0.03527778"
       id="path782"
       inkscape:connector-curvature="0" />
    <path
       d="m 43.278367,156.74447 c 0,0 -4.242176,-4.7308 -4.891984,-8.806 0.884908,-0.64214 2.090905,-1.30449 2.090905,-1.30449 0,0 2.111664,5.01594 5.125602,8.59717 -1.340916,0.9273 -2.324523,1.51332 -2.324523,1.51332"
       style="fill:#fef5fa;fill-opacity:1;fill-rule:nonzero;stroke:none;stroke-width:0.03527778"
       id="path784"
       inkscape:connector-curvature="0" />
    <path
       d="m 69.094662,142.53408 c 0,0 -1.983099,-0.35923 -3.081502,-0.8038 -0.598129,3.63061 -2.073963,6.70665 -6.206427,6.79421 -4.133732,-0.0875 -5.609143,-3.1636 -6.207482,-6.79421 -1.098615,0.44457 -3.081505,0.8038 -3.081505,0.8038 0,0 0.651716,9.17423 9.212528,9.15177 v 0 c 0.02563,0 0.05041,0 0.07645,0 0.02499,0 0.05041,0 0.07624,0 v 0 c 8.560388,0.0224 9.211679,-9.15177 9.211679,-9.15177"
       style="fill:#fef5fa;fill-opacity:1;fill-rule:nonzero;stroke:none;stroke-width:0.03527778"
       id="path786"
       inkscape:connector-curvature="0" />
    <path
       d="m 51.762081,156.71079 c -0.156944,0 -0.284238,-0.13471 -0.284238,-0.30087 0,-0.7589 0.01694,-1.24613 0.249717,-1.56945 0.249714,-0.35026 0.656583,-0.41537 1.32016,-0.41537 1.040369,0 1.088871,-0.17738 1.088871,-0.8779 0,-0.81505 -0.224721,-0.87792 -0.96158,-0.87792 h -4.295548 c -0.736859,0 -0.961369,0.0628 -0.961369,0.87792 0,0.70052 0.0485,0.8779 1.088871,0.8779 0.663576,0 1.070447,0.0652 1.32016,0.41537 0.232771,0.32332 0.249504,0.81055 0.249504,1.56945 0,0.16616 -0.127294,0.30087 -0.28424,0.30087 -0.156944,0 -0.284026,-0.13471 -0.284026,-0.30087 0,-0.55682 -0.0101,-1.03282 -0.134069,-1.20572 -0.09107,-0.12797 -0.334225,-0.17736 -0.867329,-0.17736 -0.661878,0 -1.091201,-0.14596 -1.351294,-0.4603 -0.26899,-0.32555 -0.306054,-0.58601 -0.306054,-1.01934 0,-0.71626 0.15864,-1.47965 1.529846,-1.47965 h 4.295548 c 1.371205,0 1.529845,0.76339 1.529845,1.47965 0,0.43333 -0.03707,0.69379 -0.305843,1.01934 -0.260303,0.31434 -0.689626,0.4603 -1.351293,0.4603 -0.533105,0 -0.776466,0.0494 -0.867328,0.17736 -0.123905,0.1729 -0.134073,0.6489 -0.134073,1.20572 0,0.16616 -0.127292,0.30087 -0.284238,0.30087"
       style="fill:#ffffff;fill-opacity:1;fill-rule:nonzero;stroke:none;stroke-width:0.03527778"
       id="path788"
       inkscape:connector-curvature="0" />
    <path
       d="m 53.573199,153.09815 h -5.253953 l -1.167029,-10.06336 5.253955,-1.17429 1.167027,11.23765"
       style="fill:#f36717;fill-opacity:1;fill-rule:nonzero;stroke:none;stroke-width:0.03527778"
       id="path790"
       inkscape:connector-curvature="0" />
    <path
       d="m 68.19726,156.71079 c 0.156942,0 0.284235,-0.13471 0.284235,-0.30087 0,-0.7589 -0.01673,-1.24613 -0.249501,-1.56945 -0.249714,-0.35026 -0.656796,-0.41537 -1.320372,-0.41537 -1.040159,0 -1.088661,-0.17738 -1.088661,-0.8779 0,-0.81505 0.224509,-0.87792 0.961368,-0.87792 h 4.295551 c 0.736858,0 0.96158,0.0628 0.96158,0.87792 0,0.70052 -0.0485,0.8779 -1.088873,0.8779 -0.663574,0 -1.070658,0.0652 -1.320372,0.41537 -0.232558,0.32332 -0.249502,0.81055 -0.249502,1.56945 0,0.16616 0.127293,0.30087 0.284238,0.30087 0.156944,0 0.284237,-0.13471 0.284237,-0.30087 0,-0.55682 0.0099,-1.03282 0.133859,-1.20572 0.09108,-0.12797 0.334224,-0.17736 0.86754,-0.17736 0.661668,0 1.09099,-0.14596 1.351295,-0.4603 0.268776,-0.32555 0.30584,-0.58601 0.30584,-1.01934 0,-0.71626 -0.158639,-1.47965 -1.529842,-1.47965 h -4.295551 c -1.371204,0 -1.529844,0.76339 -1.529844,1.47965 0,0.43333 0.03707,0.69379 0.306055,1.01934 0.26009,0.31434 0.689412,0.4603 1.351082,0.4603 0.533316,0 0.776465,0.0494 0.867539,0.17736 0.123905,0.1729 0.13386,0.6489 0.13386,1.20572 0,0.16616 0.127294,0.30087 0.284239,0.30087"
       style="fill:#ffffff;fill-opacity:1;fill-rule:nonzero;stroke:none;stroke-width:0.03527778"
       id="path792"
       inkscape:connector-curvature="0" />
    <path
       d="m 66.386141,153.09815 h 5.253954 l 1.157919,-11.36787 -5.244845,0.13022 -1.167028,11.23765"
       style="fill:#f36717;fill-opacity:1;fill-rule:nonzero;stroke:none;stroke-width:0.03527778"
       id="path794"
       inkscape:connector-curvature="0" />
    <path
       d="m 59.895692,156.71977 c -0.0218,-0.004 -5.863095,-0.0135 -10.513839,-0.61071 -1.550389,-0.19983 -2.965645,11.78997 -4.530224,11.43747 0.04829,11.03329 -2.338292,13.54576 -2.758508,22.34502 1.475412,1.88601 28.304968,4.34237 35.895942,-0.46253 -0.443938,-6.10492 -3.098024,-10.8492 -3.04931,-21.88249 -1.870419,0.41984 -2.95675,-11.5385 -4.77168,-11.32971 -4.258272,0.49173 -10.252473,0.49846 -10.272381,0.50295"
       style="fill:#f36717;fill-opacity:1;fill-rule:nonzero;stroke:none;stroke-width:0.03527778"
       id="path796"
       inkscape:connector-curvature="0" />
    <path
       d="M 67.602942,161.91985 H 52.097153 c 0,0 -1.998349,12.9822 7.684589,12.9822 9.682937,0 7.8212,-12.9822 7.8212,-12.9822"
       style="fill:#ef2f21;fill-opacity:1;fill-rule:nonzero;stroke:none;stroke-width:0.03527778"
       id="path798"
       inkscape:connector-curvature="0" />
    <path
       d="m 52.505294,158.278 c 0,0.86667 -0.661667,1.56719 -1.477951,1.56719 -0.816284,0 -1.478165,-0.70052 -1.478165,-1.56719 0,-0.86444 0.661881,-1.56721 1.478165,-1.56721 0.816284,0 1.477951,0.70277 1.477951,1.56721"
       style="fill:#ffffff;fill-opacity:1;fill-rule:nonzero;stroke:none;stroke-width:0.03527778"
       id="path800"
       inkscape:connector-curvature="0" />
    <path
       d="m 70.319935,158.278 c 0,0.86667 -0.66188,1.56719 -1.478165,1.56719 -0.816283,0 -1.477951,-0.70052 -1.477951,-1.56719 0,-0.86444 0.661668,-1.56721 1.477951,-1.56721 0.816285,0 1.478165,0.70277 1.478165,1.56721"
       style="fill:#ffffff;fill-opacity:1;fill-rule:nonzero;stroke:none;stroke-width:0.03527778"
       id="path802"
       inkscape:connector-curvature="0" />
    <path
       d="m 36.588186,73.625991 c -0.09362,-8.133083 6.89012,-23.042412 27.811892,-12.319407 11.206851,5.743878 10.129205,1.010155 6.293053,-2.768428 11.412299,-0.974228 11.482407,10.394072 9.443175,10.902632 5.94083,-2.329701 14.653285,0.513046 12.522142,12.211624 -2.140682,-4.056762 -3.028553,-3.664071 -3.028553,-3.664071 0,0 13.655495,28.262469 -4.421573,39.291739 -4.307831,8.06639 -40.461534,7.17884 -53.656992,5.90711 -6.996658,-1.65343 -16.830822,-17.34994 -9.417973,-35.961763 -2.847463,0.653594 -3.498542,5.276631 -3.498542,5.276631 0,0 -3.495363,-3.849974 -1.585971,-10.000477 2.313934,-7.453207 10.228751,-13.868649 19.539342,-8.87559"
       style="fill:#925536;fill-opacity:1;fill-rule:nonzero;stroke:none;stroke-width:0.03527778"
       id="path804"
       inkscape:connector-curvature="0" />
    <path
       d="m 31.723735,116.6276 c 1.96785,16.50102 15.422764,25.85934 30.41197,23.84982 14.987935,-2.00707 25.827102,-14.6188 23.858824,-31.1216 C 84.027951,92.855697 70.356576,81.701364 55.368007,83.709317 40.379434,85.716594 29.757158,100.12817 31.723735,116.6276"
       style="fill:#fabd99;fill-opacity:1;fill-rule:nonzero;stroke:none;stroke-width:0.03527778"
       id="path806"
       inkscape:connector-curvature="0" />
    <path
       d="m 31.723735,116.6276 c 1.96785,16.50102 15.422764,25.85934 30.41197,23.84982 14.987935,-2.00707 25.827102,-14.6188 23.858824,-31.1216 C 84.027951,92.855697 70.356576,81.701364 55.368007,83.709317 40.379434,85.716594 29.757158,100.12817 31.723735,116.6276"
       style="fill:#fabd99;fill-opacity:1;fill-rule:nonzero;stroke:none;stroke-width:0.03527778"
       id="path808"
       inkscape:connector-curvature="0" />
    <path
       d="m 32.821079,116.6074 c 0,0 -0.764602,-3.30304 -4.648622,-3.37533 -4.096245,-0.0733 -5.181093,5.72906 -2.69433,8.86189 2.486552,3.12723 7.000258,2.71186 8.156484,-0.0666 l -0.813532,-5.41989"
       style="fill:#fabd99;fill-opacity:1;fill-rule:nonzero;stroke:none;stroke-width:0.03527778"
       id="path810"
       inkscape:connector-curvature="0" />
    <path
       d="m 27.518625,114.78264 c 2.593722,-0.74429 5.138734,3.96901 1.780617,6.86315 1.217647,-3.61646 -0.263058,-4.6769 -2.015504,-2.83869 -0.07412,-1.13589 0.522937,-1.91277 2.122251,-1.93948 -0.249925,-1.48704 -1.887364,-2.08498 -1.887364,-2.08498"
       style="fill:#d37658;fill-opacity:1;fill-rule:nonzero;stroke:none;stroke-width:0.03527778"
       id="path812"
       inkscape:connector-curvature="0" />
    <path
       d="m 57.060725,115.45534 c 0.763121,0.50496 1.034864,-1.57259 2.708945,-1.62312 1.708815,-0.0518 1.957259,2.04681 2.760199,1.34334 0.655315,-0.5732 -0.240396,-3.11284 -3.037026,-2.93389 -2.333843,0.14864 -3.157962,2.73341 -2.432118,3.21367"
       style="fill:#ee5b63;fill-opacity:1;fill-rule:nonzero;stroke:none;stroke-width:0.03527778"
       id="path814"
       inkscape:connector-curvature="0" />
    <path
       d="m 86.048331,116.44664 c -0.798073,7.33038 -4.275856,13.52197 -9.46288,17.82211 -0.424447,-0.22137 -0.833859,-0.48608 -1.222306,-0.79728 -3.753125,-3.00778 -4.184565,-9.10956 -0.9637,-13.62616 2.951885,-4.13917 7.945958,-5.51149 11.648886,-3.39867"
       style="fill:#f79883;fill-opacity:1;fill-rule:nonzero;stroke:none;stroke-width:0.03527778"
       id="path816"
       inkscape:connector-curvature="0" />
    <path
       d="m 33.324744,123.4775 c 2.934725,-3.0208 7.938964,-3.27744 11.862801,-0.38237 4.38472,3.23523 5.759312,9.17716 3.071548,13.27095 -0.476977,0.72635 -1.051381,1.34381 -1.695683,1.85325 -5.98615,-2.81264 -10.765032,-7.88251 -13.238666,-14.74183"
       style="fill:#f79883;fill-opacity:1;fill-rule:nonzero;stroke:none;stroke-width:0.03527778"
       id="path818"
       inkscape:connector-curvature="0" />
    <path
       d="m 70.950469,116.5187 c 0.534587,9.96254 -3.280809,18.26603 -9.032283,19.04448 -5.751476,0.77844 -11.412512,-6.24256 -13.256457,-16.02794 l 22.28874,-3.01654"
       style="fill:#712131;fill-opacity:1;fill-rule:nonzero;stroke:none;stroke-width:0.03527778"
       id="path820"
       inkscape:connector-curvature="0" />
    <path
       d="m 68.293628,130.45516 c -1.584912,2.87284 -3.782355,4.75707 -6.375442,5.10802 -2.593299,0.35092 -5.16669,-0.88756 -7.381501,-3.24602 1.778499,-1.26835 4.089043,-2.19722 6.683613,-2.54837 2.594571,-0.35118 5.051049,-0.0675 7.07333,0.68637"
       style="fill:#ee5b63;fill-opacity:1;fill-rule:nonzero;stroke:none;stroke-width:0.03527778"
       id="path822"
       inkscape:connector-curvature="0" />
    <path
       d="m 60.280112,121.96306 c -5.544757,0.75038 -10.268993,0.27146 -11.520742,-2.44106 l 22.09367,-2.99005 c -0.568688,2.95882 -5.027961,4.68073 -10.572928,5.43111"
       style="fill:#ffffff;fill-opacity:1;fill-rule:nonzero;stroke:none;stroke-width:0.03527778"
       id="path824"
       inkscape:connector-curvature="0" />
    <path
       d="m 77.647216,120.04716 c 0.261995,0.41898 0.794469,0.53348 1.189688,0.25574 0.395011,-0.27751 0.50303,-0.84221 0.24103,-1.26094 -0.261786,-0.41897 -0.794469,-0.53347 -1.189479,-0.25575 -0.395219,0.27752 -0.503024,0.84221 -0.241239,1.26095"
       style="fill:#ee5b63;fill-opacity:1;fill-rule:nonzero;stroke:none;stroke-width:0.03527778"
       id="path826"
       inkscape:connector-curvature="0" />
    <path
       d="m 75.368654,122.73992 c 0.261995,0.41875 0.794679,0.53326 1.189691,0.25552 0.395008,-0.27753 0.503029,-0.8422 0.241238,-1.26094 -0.261996,-0.41898 -0.794467,-0.53326 -1.189688,-0.25575 -0.395011,0.27774 -0.50303,0.84221 -0.241241,1.26117"
       style="fill:#ee5b63;fill-opacity:1;fill-rule:nonzero;stroke:none;stroke-width:0.03527778"
       id="path828"
       inkscape:connector-curvature="0" />
    <path
       d="m 78.324136,122.96737 c 0.261784,0.41876 0.794467,0.53326 1.189477,0.25551 0.395221,-0.27751 0.503024,-0.84219 0.24124,-1.26094 -0.262,-0.41875 -0.794468,-0.53326 -1.189688,-0.25574 -0.395011,0.27775 -0.503031,0.84219 -0.241029,1.26117"
       style="fill:#ee5b63;fill-opacity:1;fill-rule:nonzero;stroke:none;stroke-width:0.03527778"
       id="path830"
       inkscape:connector-curvature="0" />
    <path
       d="m 42.34326,124.99015 c 0.428476,0.21531 0.940189,0.0215 1.143305,-0.43244 0.202908,-0.45399 0.02034,-0.99668 -0.408142,-1.21178 -0.428263,-0.21532 -0.940188,-0.0215 -1.143092,0.43245 -0.203119,0.45399 -0.02034,0.99668 0.407929,1.21177"
       style="fill:#ee5b63;fill-opacity:1;fill-rule:nonzero;stroke:none;stroke-width:0.03527778"
       id="path832"
       inkscape:connector-curvature="0" />
    <path
       d="m 41.717597,128.33023 c 0.428476,0.21509 0.94019,0.0215 1.143309,-0.43243 0.202904,-0.45423 0.02034,-0.9967 -0.408145,-1.21203 -0.428262,-0.2151 -0.940187,-0.0215 -1.143094,0.43268 -0.203116,0.45399 -0.02034,0.99645 0.40793,1.21178"
       style="fill:#ee5b63;fill-opacity:1;fill-rule:nonzero;stroke:none;stroke-width:0.03527778"
       id="path834"
       inkscape:connector-curvature="0" />
    <path
       d="m 44.571202,127.11643 c 0.428264,0.21532 0.940188,0.0215 1.143093,-0.43245 0.203119,-0.45421 0.02034,-0.99667 -0.407929,-1.21199 -0.428263,-0.21511 -0.940187,-0.0215 -1.143094,0.43267 -0.203117,0.45399 -0.02034,0.99666 0.40793,1.21177"
       style="fill:#ee5b63;fill-opacity:1;fill-rule:nonzero;stroke:none;stroke-width:0.03527778"
       id="path836"
       inkscape:connector-curvature="0" />
    <path
       d="m 52.345173,112.7527 c -0.768628,2.26323 -3.870042,5.26137 -7.123527,5.70907 -3.253275,0.44792 -4.998944,-1.54476 -6.698652,-3.8062 -0.19973,-1.3649 1.872326,-6.60785 5.125813,-7.05578 3.253486,-0.44795 6.863222,2.08743 8.696366,5.15291"
       style="fill:#ffffff;fill-opacity:1;fill-rule:nonzero;stroke:none;stroke-width:0.03527778"
       id="path838"
       inkscape:connector-curvature="0" />
    <path
       d="m 48.301455,111.61458 c 0.825391,1.93655 0.09721,4.17755 -1.626848,5.00561 -1.725127,0.82649 -3.794218,-0.0728 -4.620667,-2.00976 -0.826239,-1.93945 -0.097,-4.17845 1.626849,-5.00674 1.726183,-0.82603 3.794427,0.0744 4.620666,2.01089"
       style="fill:#5cc8c0;fill-opacity:1;fill-rule:nonzero;stroke:none;stroke-width:0.03527778"
       id="path840"
       inkscape:connector-curvature="0" />
    <path
       d="m 46.962655,112.25626 c 0.471683,1.10671 0.05572,2.38741 -0.929595,2.86049 -0.985939,0.47218 -2.168216,-0.0416 -2.640533,-1.14845 -0.472107,-1.10828 -0.05528,-2.38764 0.929596,-2.86095 0.986574,-0.47217 2.168427,0.0425 2.640532,1.14891"
       style="fill:#0c0907;fill-opacity:1;fill-rule:nonzero;stroke:none;stroke-width:0.03527778"
       id="path842"
       inkscape:connector-curvature="0" />
    <path
       d="m 44.348811,112.32271 c 0.182995,0.59166 -0.09721,1.21652 -0.621426,1.39816 -0.524421,0.18074 -1.096497,-0.14728 -1.280765,-0.73802 -0.181303,-0.58872 0.09531,-1.21425 0.617615,-1.40061 0.526961,-0.17739 1.103485,0.15132 1.284576,0.74047"
       style="fill:#ffffff;fill-opacity:1;fill-rule:nonzero;stroke:none;stroke-width:0.03527778"
       id="path844"
       inkscape:connector-curvature="0" />
    <path
       d="m 47.943933,113.79248 c 0.114796,0.36688 -0.05994,0.75263 -0.38675,0.86847 -0.32469,0.11294 -0.682002,-0.0923 -0.79468,-0.45959 -0.107595,-0.36552 0.05995,-0.75285 0.387387,-0.86647 0.324479,-0.11269 0.681153,0.0923 0.794043,0.45759"
       style="fill:#ffffff;fill-opacity:1;fill-rule:nonzero;stroke:none;stroke-width:0.03527778"
       id="path846"
       inkscape:connector-curvature="0" />
    <path
       d="m 38.522994,114.65557 c 0,0 1.59529,-8.13376 9.741818,-5.95673 -9.386627,-5.62016 -9.741818,5.95673 -9.741818,5.95673"
       style="fill:#6d3a2c;fill-opacity:1;fill-rule:nonzero;stroke:none;stroke-width:0.03527778"
       id="path848"
       inkscape:connector-curvature="0" />
    <path
       d="m 66.191921,110.73283 c 1.320371,1.9561 5.074345,3.94655 8.319994,3.43889 3.245651,-0.50743 4.413738,-2.92852 5.468928,-5.5948 -0.158002,-1.37117 -3.497901,-5.81842 -6.743337,-5.31098 -3.245652,0.50743 -6.068546,3.98829 -7.045585,7.46689"
       style="fill:#ffffff;fill-opacity:1;fill-rule:nonzero;stroke:none;stroke-width:0.03527778"
       id="path850"
       inkscape:connector-curvature="0" />
    <path
       d="m 70.059418,107.52187 c -0.82539,1.93656 -0.09721,4.17758 1.626851,5.00585 1.725336,0.82627 3.794423,-0.0728 4.620664,-2.00997 0.826241,-1.93925 0.097,-4.17823 -1.626635,-5.00674 -1.726394,-0.82604 -3.794428,0.0744 -4.62088,2.01086"
       style="fill:#5cc8c0;fill-opacity:1;fill-rule:nonzero;stroke:none;stroke-width:0.03527778"
       id="path852"
       inkscape:connector-curvature="0" />
    <path
       d="m 71.398217,108.16379 c -0.47147,1.10648 -0.05549,2.3872 0.929597,2.86048 0.985941,0.47218 2.168215,-0.0418 2.640536,-1.14868 0.472105,-1.10802 0.05548,-2.38762 -0.929602,-2.86092 -0.986573,-0.47198 -2.168212,0.0424 -2.640531,1.14912"
       style="fill:#0c0907;fill-opacity:1;fill-rule:nonzero;stroke:none;stroke-width:0.03527778"
       id="path854"
       inkscape:connector-curvature="0" />
    <path
       d="m 73.776117,108.01247 c -0.02437,0.62216 0.405809,1.14262 0.956919,1.16619 0.550893,0.0224 1.017283,-0.45804 1.042912,-1.07974 0.02329,-0.61881 -0.403271,-1.14062 -0.953744,-1.16936 -0.552802,-0.0189 -1.023213,0.46388 -1.046087,1.08291"
       style="fill:#ffffff;fill-opacity:1;fill-rule:nonzero;stroke:none;stroke-width:0.03527778"
       id="path856"
       inkscape:connector-curvature="0" />
    <path
       d="m 70.693978,110.46385 c -0.01651,0.38597 0.250773,0.70705 0.594949,0.72434 0.341425,0.0148 0.632441,-0.28561 0.646842,-0.67179 0.0097,-0.38259 -0.250984,-0.70705 -0.59516,-0.72186 -0.341426,-0.015 -0.631806,0.28516 -0.646631,0.66931"
       style="fill:#ffffff;fill-opacity:1;fill-rule:nonzero;stroke:none;stroke-width:0.03527778"
       id="path858"
       inkscape:connector-curvature="0" />
    <path
       d="m 79.980843,108.57692 c 0,0 -3.622866,-7.36676 -10.903125,-2.92201 7.589913,-8.115549 10.903125,2.92201 10.903125,2.92201"
       style="fill:#6d3a2c;fill-opacity:1;fill-rule:nonzero;stroke:none;stroke-width:0.03527778"
       id="path860"
       inkscape:connector-curvature="0" />
    <path
       d="m 85.778494,109.03226 c -1.870632,-6.7886 -10.171992,-7.37842 -9.130982,-18.7739 -1.871483,12.44941 -16.109851,14.8586 -18.57967,13.66996 C 68.93221,97.885136 66.6833,88.64175 66.6833,88.64175 c 0,0 -2.288305,14.95717 -24.292384,16.12493 2.570424,-3.38856 4.33897,-7.338692 2.095776,-10.287187 C 40.865733,107.1083 32.307037,104.66902 36.80613,117.40874 27.72492,115.17401 19.365318,91.863736 34.316401,81.618959 49.266635,71.3733 68.354416,67.958676 79.915823,80.694584 c 12.16038,13.395108 5.862671,28.337676 5.862671,28.337676"
       style="fill:#925536;fill-opacity:1;fill-rule:nonzero;stroke:none;stroke-width:0.03527778"
       id="path862"
       inkscape:connector-curvature="0" />
    <path
       d="m 82.061584,101.70951 c 0.04023,2.35217 3.39116,9.39201 -1.335407,10.24184 6.977167,1.98327 5.089169,-6.34582 5.089169,-6.34582 0,0 -2.875631,-4.77683 -3.753762,-3.89602"
       style="fill:#c87e52;fill-opacity:1;fill-rule:nonzero;stroke:none;stroke-width:0.03527778"
       id="path864"
       inkscape:connector-curvature="0" />
    <path
       d="m 28.838996,99.363202 c 1.750966,-2.624298 6.556959,-6.572828 9.170802,-4.923456 1.834203,1.157447 1.403398,12.411894 -1.374168,12.898904 -2.364343,0.41448 -7.808706,-4.32733 -7.808706,-4.32733 0,0 -6.214261,4.81681 -8.742538,3.39242 -2.044946,-1.15208 -2.004916,-11.631688 0.624603,-12.755682 3.858391,-1.649392 8.069644,4.883037 8.130007,5.715144"
       style="fill:#f1457d;fill-opacity:1;fill-rule:nonzero;stroke:none;stroke-width:0.03527778"
       id="path866"
       inkscape:connector-curvature="0" />
    <path
       d="m 28.619359,97.913648 c -1.181643,0.284691 -1.365274,5.797082 -0.04045,6.009712 1.324821,0.21285 2.10319,-6.506376 0.04045,-6.009712"
       style="fill:#f89dd3;fill-opacity:1;fill-rule:nonzero;stroke:none;stroke-width:0.03527778"
       id="path868"
       inkscape:connector-curvature="0" />
    <path
       d="m 25.164449,101.19556 c -0.516796,-0.10581 -2.841318,0.36127 -2.614691,1.12354 0.291014,0.39093 0.677977,-0.20453 1.006905,-0.27234 0.142966,-0.0777 0.730504,-0.24946 0.899733,-0.26002 0.234678,-0.0315 0.471895,-0.0389 0.708053,-0.0231 0.345661,0.006 0.346932,-0.56626 0,-0.56806"
       style="fill:#d3295f;fill-opacity:1;fill-rule:nonzero;stroke:none;stroke-width:0.03527778"
       id="path870"
       inkscape:connector-curvature="0" />
    <path
       d="m 25.395949,99.050439 c -0.751685,-0.49509 -1.663914,-0.722998 -2.544799,-0.624423 -0.345023,0.0021 -0.347142,0.573683 0,0.56806 0.630747,-0.07826 1.257467,0.04133 1.784219,0.273467 0.169442,0.07815 0.333375,0.16952 0.49032,0.273256 0.296099,0.188371 0.569957,-0.304465 0.27026,-0.49036"
       style="fill:#d3295f;fill-opacity:1;fill-rule:nonzero;stroke:none;stroke-width:0.03527778"
       id="path872"
       inkscape:connector-curvature="0" />
    <path
       d="m 31.650453,101.69131 c 0.517008,-0.10581 2.841319,0.36128 2.614692,1.12357 -0.291015,0.39089 -0.677977,-0.20455 -1.006907,-0.27237 -0.142753,-0.0777 -0.730503,-0.24945 -0.89952,-0.26 -0.234888,-0.0316 -0.472105,-0.0388 -0.708265,-0.023 -0.345872,0.006 -0.346931,-0.56604 0,-0.56806"
       style="fill:#d3295f;fill-opacity:1;fill-rule:nonzero;stroke:none;stroke-width:0.03527778"
       id="path874"
       inkscape:connector-curvature="0" />
    <path
       d="m 31.418954,99.546202 c 0.751683,-0.495102 1.664126,-0.722989 2.544797,-0.624434 0.345025,0.0021 0.347142,0.573672 0,0.56807 -0.630746,-0.07826 -1.257466,0.04133 -1.784218,0.273456 -0.16944,0.07815 -0.333377,0.16952 -0.490322,0.273256 -0.296098,0.18839 -0.569957,-0.304453 -0.270257,-0.490348"
       style="fill:#d3295f;fill-opacity:1;fill-rule:nonzero;stroke:none;stroke-width:0.03527778"
       id="path876"
       inkscape:connector-curvature="0" />
    <path
       d="m 106.8823,144.25039 c -0.59538,-0.29865 -1.54805,1.63232 -1.83293,1.65477 0.0147,-0.0764 0.83598,-2.29245 1.02023,-2.77068 0.42976,-1.12041 -0.52101,-1.69519 -1.05582,-0.80606 -0.44836,0.74768 -1.36251,2.53492 -1.41505,2.62473 0.0176,-0.10102 0.7301,-2.43614 0.86839,-2.86497 0.40646,-1.26185 -0.85821,-1.9206 -1.35171,-0.4805 -0.33613,0.97445 -0.86627,2.71454 -0.94993,2.84927 -0.0327,-0.0742 0.062,-1.45943 0.0625,-2.27897 -2.1e-4,-1.35389 -1.08994,-1.54249 -1.34155,-0.0179 -0.19507,1.20573 -0.79003,4.06397 -0.79003,4.06397 0,0 -1.257253,-1.50434 -2.028843,-0.75441 -0.780915,0.74991 1.495944,3.30504 1.495944,3.30504 l 0.152937,0.0876 c -0.975986,1.67497 -7.514938,7.52617 -18.953291,1.82543 -2.524675,-1.25961 -3.884443,2.74145 -1.631083,3.80797 16.400016,7.75295 22.688616,-1.61211 24.181606,-3.78104 0,0 0.97322,0.5052 2.69306,-3.21074 0.67394,-1.4572 1.44894,-2.96379 0.87559,-3.2534"
       style="fill:#fabd99;fill-opacity:1;fill-rule:nonzero;stroke:none;stroke-width:0.03527778"
       id="path740-3"
       inkscape:connector-curvature="0" />
    <text
       xml:space="preserve"
       style="font-style:normal;font-weight:normal;font-size:10.58333302px;line-height:1.25;font-family:sans-serif;letter-spacing:0px;word-spacing:0px;fill:#000000;fill-opacity:1;stroke:none;stroke-width:0.26458332"
       x="40.036972"
       y="31.47085"
       id="text2025"><tspan
         sodipodi:role="line"
         id="tspan2023"
         x="40.036972"
         y="31.47085"
         style="font-style:normal;font-variant:normal;font-weight:bold;font-stretch:normal;font-size:12.69999981px;font-family:sans-serif;-inkscape-font-specification:'sans-serif Bold';fill:#000000;stroke-width:0.26458332">What day is today?</tspan></text>
    <g
       id="g464"
       transform="matrix(-0.0218427,0,0,-0.02354528,553.37189,265.83542)"
       style="stroke-width:1.69940853">
      <path
         d="m 16285.7,2392.69 c 0,0 6.4,-258.69 14.3,-399.29 -93,-23.8 -151.5,-6.22 -151.5,-6.22 l -47.7,427.48 184.9,-21.97"
         style="fill:#fabd99;fill-opacity:1;fill-rule:nonzero;stroke:none;stroke-width:1.69940853"
         id="path466"
         inkscape:connector-curvature="0" />
    </g>
    <g
       id="g468"
       transform="matrix(-0.02229296,0,0,-0.02403063,553.37189,265.83542)"
       style="stroke-width:1.69940853">
      <path
         d="m 15794.6,1884.09 c -17.9,-39.64 -23.4,-110.77 68.9,-189.69 92.1,-78.93 183.6,-145.57 322.4,-97.4 114.1,39.55 66.1,173.81 66.1,173.81 l -457.4,113.28"
         style="fill:#e0e0de;fill-opacity:1;fill-rule:nonzero;stroke:none;stroke-width:1.69940853"
         id="path470"
         inkscape:connector-curvature="0" />
    </g>
    <g
       id="g472"
       transform="matrix(-0.02230675,0,0,-0.02404551,553.37189,265.83542)"
       style="stroke-width:1.69940853">
      <path
         d="m 15799.8,2048.47 c -22.2,-35.76 -45.9,-174.78 23.7,-235.92 69.3,-61.12 216,-183.83 352.4,-133.55 124.1,45.89 52.5,154.62 -16.6,198.81 -69.2,44.28 -201.2,167.25 -201.2,167.25 0,0 -18.7,-76.63 -158.3,3.41"
         style="fill:#48c1b0;fill-opacity:1;fill-rule:nonzero;stroke:none;stroke-width:1.69940853"
         id="path474"
         inkscape:connector-curvature="0" />
    </g>
    <g
       id="g476"
       transform="matrix(-0.02208562,0,0,-0.02380714,553.37189,265.83542)"
       style="stroke-width:1.69940853">
      <path
         d="m 16195.2,2001.17 c -52.5,15.76 -125.4,-9.5 -150.9,-45.99 -25.2,-36.57 5.2,-65.72 27,-63.91 21.9,1.72 85.5,31.78 157.1,40.65 71.6,8.69 8.6,56.94 -33.2,69.25"
         style="fill:#e0e0de;fill-opacity:1;fill-rule:nonzero;stroke:none;stroke-width:1.69940853"
         id="path478"
         inkscape:connector-curvature="0" />
    </g>
    <g
       id="g480"
       transform="matrix(-0.02222697,0,0,-0.02395952,553.37189,265.83542)"
       style="stroke-width:1.69940853">
      <path
         d="m 16195.7,1888.51 c -52,15.66 -124.5,-9.35 -149.8,-45.69 -25,-36.35 5.2,-65.22 26.9,-63.51 21.7,1.8 84.8,31.66 156,40.48 71.2,8.63 8.6,56.49 -33.1,68.72"
         style="fill:#e0e0de;fill-opacity:1;fill-rule:nonzero;stroke:none;stroke-width:1.69940853"
         id="path482"
         inkscape:connector-curvature="0" />
    </g>
    <g
       id="g484"
       transform="matrix(-0.02086898,0,0,-0.02249567,553.37189,265.83542)"
       style="stroke-width:1.69940853">
      <path
         d="m 16106.5,2504.34 c 0,0 -6.8,-270.76 -15,-417.92 97.3,-24.91 158.5,-6.51 158.5,-6.51 l 50,447.42 -193.5,-22.99"
         style="fill:#fabd99;fill-opacity:1;fill-rule:nonzero;stroke:none;stroke-width:1.69940853"
         id="path486"
         inkscape:connector-curvature="0" />
    </g>
    <g
       id="g488"
       transform="matrix(-0.02086737,0,0,-0.02249393,553.37189,265.83542)"
       style="stroke-width:1.69940853">
      <path
         d="m 16280.9,2012.79 c 19.1,-42.35 18.8,-124.46 -79.8,-208.78 -98.5,-84.32 -211.1,-142.09 -359.8,-91.89 -125,42.36 -49,179.66 -49,179.66 l 488.6,121.01"
         style="fill:#e0e0de;fill-opacity:1;fill-rule:nonzero;stroke:none;stroke-width:1.69940853"
         id="path490"
         inkscape:connector-curvature="0" />
    </g>
    <g
       id="g492"
       transform="matrix(-0.02088537,0,0,-0.02251334,553.37189,265.83542)"
       style="stroke-width:1.69940853">
      <path
         d="m 16250.9,2187.89 c 23.7,-38.2 49.1,-186.68 -25.3,-251.98 -74.1,-65.28 -206.7,-183.9 -385.6,-134.98 -140.3,38.39 -46.9,157.48 27,204.68 73.8,47.29 214.7,178.64 214.7,178.64 0,0 20,-81.85 169.2,3.64"
         style="fill:#48c1b0;fill-opacity:1;fill-rule:nonzero;stroke:none;stroke-width:1.69940853"
         id="path494"
         inkscape:connector-curvature="0" />
    </g>
    <g
       id="g496"
       transform="matrix(-0.02073982,0,0,-0.02235643,553.37189,265.83542)"
       style="stroke-width:1.69940853">
      <path
         d="m 16112.5,2131.04 c 55.7,16.77 133.4,-10.13 160.6,-48.98 26.9,-38.94 -5.6,-69.99 -28.8,-68.06 -23.3,1.83 -90.9,33.84 -167.2,43.29 -76.2,9.25 -9.2,60.63 35.4,73.75"
         style="fill:#e0e0de;fill-opacity:1;fill-rule:nonzero;stroke:none;stroke-width:1.69940853"
         id="path498"
         inkscape:connector-curvature="0" />
    </g>
    <g
       id="g500"
       transform="matrix(-0.02062364,0,0,-0.0222312,553.37189,265.83542)"
       style="stroke-width:1.69940853">
      <path
         d="m 16111.4,2043.27 c 56.1,16.87 134.2,-10.08 161.6,-49.16 27,-39.16 -5.7,-70.38 -29,-68.44 -23.4,1.84 -91.5,34.03 -168.1,43.53 -76.7,9.31 -9.3,60.88 35.5,74.07"
         style="fill:#e0e0de;fill-opacity:1;fill-rule:nonzero;stroke:none;stroke-width:1.69940853"
         id="path502"
         inkscape:connector-curvature="0" />
    </g>
    <g
       id="g504"
       transform="matrix(-0.02205383,0,0,-0.02377287,553.37189,265.83542)"
       style="stroke-width:1.69940853">
      <path
         d="m 15682.3,3910.86 c 1.3,0.36 308.5,0.82 577.5,58.02 -2,-447.5 40.2,-1103.17 23.2,-1653.03 -63.4,-76.52 -134.3,-44.51 -388.9,-58.11 -82.6,336.71 -178.4,805.89 -211.8,1002.53 -33.3,-196.64 -129.1,-665.82 -211.7,-1002.53 -254.5,13.6 -325.5,-18.41 -388.9,58.11 -17,549.86 25.2,1205.53 23.1,1653.03 269.2,-57.2 576.3,-57.66 577.5,-58.02"
         style="fill:#3f4042;fill-opacity:1;fill-rule:nonzero;stroke:none;stroke-width:1.69940853"
         id="path506"
         inkscape:connector-curvature="0" />
    </g>
    <g
       id="g508"
       transform="matrix(-0.02199944,0,0,-0.02371425,553.37189,265.83542)"
       style="stroke-width:1.69940853">
      <path
         d="m 15721.1,3745.11 c -1.2,0.36 -304.6,0.82 -577.8,56.53 -0.5,61.8 -0.9,163.78 -1.2,219.76 346.7,-105.88 888.2,-57.35 1157.9,0 -0.3,-55.98 -0.6,-157.96 -1.1,-219.76 -273.3,-55.71 -576.6,-56.17 -577.8,-56.53"
         style="fill:#1d1c1c;fill-opacity:1;fill-rule:nonzero;stroke:none;stroke-width:1.69940853"
         id="path510"
         inkscape:connector-curvature="0" />
    </g>
    <g
       id="g512"
       transform="matrix(-0.02196806,0,0,-0.02368041,553.37189,265.83542)"
       style="stroke-width:1.69940853">
      <path
         d="m 16139.6,3707.48 c 0,0 58,-141.43 160.4,-209.51 -16.8,-33.95 -50.8,-90.65 -50.8,-90.65 0,0 -195.4,133.88 -222.4,277.5 68.1,0.18 112.8,22.66 112.8,22.66"
         style="fill:#1d1c1c;fill-opacity:1;fill-rule:nonzero;stroke:none;stroke-width:1.69940853"
         id="path514"
         inkscape:connector-curvature="0" />
    </g>
    <g
       id="g516"
       transform="matrix(-0.02082658,0,0,-0.02244997,553.37189,265.83542)"
       style="stroke-width:1.69940853">
      <path
         d="m 16181.1,3910.71 c 0,0 -61.2,-149.18 -169.2,-221 17.7,-35.81 53.6,-95.62 53.6,-95.62 0,0 206.1,141.23 234.5,292.72 -71.9,0.19 -118.9,23.9 -118.9,23.9"
         style="fill:#1d1c1c;fill-opacity:1;fill-rule:nonzero;stroke:none;stroke-width:1.69940853"
         id="path518"
         inkscape:connector-curvature="0" />
    </g>
    <g
       id="g520"
       transform="matrix(-0.02205122,0,0,-0.02377008,553.37189,265.83542)"
       style="stroke-width:1.69940853">
      <path
         d="m 15849.5,2409.61 c 0,0 249.6,-41.89 441.9,43.34 6.9,-86.69 8.6,-213.17 3.3,-229.67 0,0 -263,-80.07 -404.6,-20.95 -16.3,47.87 -26.7,134.56 -40.6,207.28"
         style="fill:#1d1c1c;fill-opacity:1;fill-rule:nonzero;stroke:none;stroke-width:1.69940853"
         id="path522"
         inkscape:connector-curvature="0" />
    </g>
    <g
       id="g524"
       transform="matrix(-0.02099374,0,0,-0.02263014,553.37189,265.83542)"
       style="stroke-width:1.69940853">
      <path
         d="m 16300,2530.98 c 0,0 -262.1,-44 -464,45.53 -7.3,-91.05 -9.1,-223.91 -3.5,-241.24 0,0 276.3,-84.1 425,-22 17.1,50.28 28,141.33 42.5,217.71"
         style="fill:#1d1c1c;fill-opacity:1;fill-rule:nonzero;stroke:none;stroke-width:1.69940853"
         id="path526"
         inkscape:connector-curvature="0" />
    </g>
    <g
       id="g528"
       transform="matrix(-0.02130565,0,0,-0.02296638,553.37189,265.83542)"
       style="stroke-width:1.69940853">
      <path
         d="m 16161.8,3957.34 c 4.6,-36.88 38.2,-63.06 75,-58.46 36.9,4.5 63.2,38.1 58.6,74.98 -4.5,36.98 -38.2,63.16 -75.1,58.56 -36.9,-4.6 -63,-38.2 -58.5,-75.08"
         style="fill:#3f4042;fill-opacity:1;fill-rule:nonzero;stroke:none;stroke-width:1.69940853"
         id="path530"
         inkscape:connector-curvature="0" />
    </g>
    <g
       id="g532"
       transform="matrix(-0.02157676,0,0,-0.02325862,553.37189,265.83542)"
       style="stroke-width:1.69940853">
      <path
         d="m 16285,5337.61 -167.8,17.98 v 155.12 h -215.8 v -155.4 l -158.8,-17.7 c -15,-283.28 253,-298.11 270.7,-298.75 v -0.09 l 0.5,0.09 0.4,-0.09 v 0.09 c 17.8,0.64 285.8,15.47 270.8,298.75"
         style="fill:#fabd99;fill-opacity:1;fill-rule:nonzero;stroke:none;stroke-width:1.69940853"
         id="path534"
         inkscape:connector-curvature="0" />
    </g>
    <g
       id="g536"
       transform="matrix(-0.02130825,0,0,-0.02296917,553.37189,265.83542)"
       style="stroke-width:1.69940853">
      <path
         d="m 16208.6,5464.92 c 38.7,0 72.4,-16.42 91.4,-41.09 v 113.91 h -182.7 v -113.91 c 19,24.67 52.7,41.09 91.3,41.09"
         style="fill:#efa378;fill-opacity:1;fill-rule:nonzero;stroke:none;stroke-width:1.69940853"
         id="path538"
         inkscape:connector-curvature="0" />
    </g>
    <g
       id="g540"
       transform="matrix(-0.02231875,0,0,-0.02405844,553.37189,265.83542)"
       style="stroke-width:1.69940853">
      <path
         d="m 15788.1,5157.83 c -1.4,-232.56 -154.1,-318.65 -307.3,-296.97 v 0.27 l -1,-0.18 -1,0.18 v -0.27 c -153.3,-21.68 -305.9,64.41 -307.4,296.97 -66.2,-0.09 -388.8,-119.68 -537.1,-349.29 3.1,-55.27 238.7,-260.6 277,-234.98 12.9,8.51 49.7,30.37 65.6,66.65 -20.2,-162.6 -173.1,-801.6 -202.3,-941.44 324.5,-49.54 1236.8,-112.88 1434.8,18.54 -20.5,108.49 -202.9,835.11 -204.3,1015.26 66.4,-22.04 171.8,-48.02 236.5,-58.58 42.3,183.46 55.4,321.69 58.4,377.06 -156.3,18.18 -445.6,106.69 -511.9,106.78"
         style="fill:#f1511b;fill-opacity:1;fill-rule:nonzero;stroke:none;stroke-width:1.69940853"
         id="path542"
         inkscape:connector-curvature="0" />
    </g>
    <g
       id="g544"
       transform="matrix(-0.02034613,0,0,-0.02193206,553.37189,265.83542)"
       style="stroke-width:1.69940853">
      <path
         d="m 15779.7,3972.51 c 32.1,-1.68 41.5,98.36 54,104.65 0.7,-3.54 2.3,-113.3 2.3,-137.18 0.2,-55.82 53.2,-62.7 61.8,-14.84 7.3,40.19 17.4,133.45 18.2,138.17 0.9,-4.53 9.5,-117.44 10.8,-138.27 3.6,-61.42 72.4,-66.14 69.5,4.52 -1.8,47.86 -8.2,131.88 -6.8,139.25 2.7,-2.66 22.7,-63.48 37,-98.47 23.7,-57.78 76.3,-45.6 61,24.08 -12.2,55.13 -35.3,188.09 -35.3,188.09 0,0 83.2,-40.88 105,5.4 22.2,46.49 -125.5,113.41 -125.5,113.41 l -8.4,0.88 c 14.8,89.53 -80.2,287.05 253.1,797.76 23.6,31.45 -113.2,71.06 -129.4,91.5 -230.1,-248.63 -289.2,-756.69 -318.9,-876.88 0,0 -52.9,3.54 -65.6,-187.01 -5.2,-74.58 -13.8,-153.3 17.2,-155.06"
         style="fill:#fabd99;fill-opacity:1;fill-rule:nonzero;stroke:none;stroke-width:1.69940853"
         id="path546"
         inkscape:connector-curvature="0" />
    </g>
    <g
       id="g548"
       transform="matrix(-0.02048529,0,0,-0.02208207,553.37189,265.83542)"
       style="stroke-width:1.69940853">
      <path
         d="m 16225,4919.75 c 0,0 -247.6,120.15 -335.1,270.85 27.5,39.23 68.2,84.32 68.2,84.32 0,0 162.6,-164.84 341.9,-258.94 -42.5,-57.68 -75,-96.23 -75,-96.23"
         style="fill:#ed1c24;fill-opacity:1;fill-rule:nonzero;stroke:none;stroke-width:1.69940853"
         id="path550"
         inkscape:connector-curvature="0" />
    </g>
    <g
       id="g552"
       transform="matrix(-0.02171353,0,0,-0.02340604,553.37189,265.83542)"
       style="stroke-width:1.69940853">
      <path
         d="m 16300,5301.62 c 0,0 -79.4,21 -129.9,24.78 -25.3,-144.48 -87.5,-266.86 -261.8,-270.36 -174.4,3.5 -236.6,125.88 -261.9,270.36 -46.3,-17.69 -129.9,-32.05 -129.9,-32.05 0,0 27.4,-365.01 388.6,-364.09 v 0 c 1,0 2.1,0 3.2,0 1,0 2.1,0 3.2,0 v 0 c 361.1,-0.92 388.5,371.36 388.5,371.36"
         style="fill:#ed1c24;fill-opacity:1;fill-rule:nonzero;stroke:none;stroke-width:1.69940853"
         id="path554"
         inkscape:connector-curvature="0" />
    </g>
    <g
       id="g556"
       transform="matrix(-0.02369835,0,0,-0.02554559,553.37189,265.83542)"
       style="stroke-width:1.69940853">
      <path
         d="m 12711.4,5960.19 c -213.9,-276.29 55.5,-566.94 300,-463.78 -105.7,-86.12 31.5,-256.99 149.1,-115.47 -5.9,-248.79 170.4,-328.9 266.6,-98.99 76.1,-309.3 318,-254.55 481.5,-17.32 -9.6,-303.37 412.6,-191.89 423.3,-16.59 14.5,-255.99 242.2,-341.62 399.8,-124.62 1.3,-154.99 344,-77.88 306,70.01 129.9,-133.71 429.7,-56.98 397.6,117.95 80.2,-59.93 202.2,15.22 158.6,95.71 196.5,-25.27 439.9,192.45 352.8,333.23 159.6,-12.11 353.3,286.05 58.1,384.61 287.4,90.06 163.2,277.69 -2.1,242.58 232.1,109.81 88.2,445.52 -192.9,328.54 168.8,338.4 -23.3,565.87 -353.4,448.5 -168.7,369.19 -1263.2,696.76 -1810.3,139.49 -538,-193.28 -934.7,-1323.85 -934.7,-1323.85"
         style="fill:#111213;fill-opacity:1;fill-rule:nonzero;stroke:none;stroke-width:1.69940853"
         id="path558"
         inkscape:connector-curvature="0" />
    </g>
    <g
       id="g560"
       transform="matrix(-0.02285999,0,0,-0.02464188,553.37189,265.83542)"
       style="stroke-width:1.69940853">
      <path
         d="m 13990.4,6037.92 c 83.8,-638.38 637.7,-997.97 1252.5,-917.24 614.7,80.64 1057.1,571.02 973.3,1209.47 -83.8,638.35 -646.9,1067.45 -1261.7,986.76 -614.7,-80.67 -1047.9,-640.66 -964.1,-1278.99"
         style="fill:#fabd99;fill-opacity:1;fill-rule:nonzero;stroke:none;stroke-width:1.69940853"
         id="path562"
         inkscape:connector-curvature="0" />
    </g>
    <g
       id="g564"
       transform="matrix(-0.02285999,0,0,-0.02464188,553.37189,265.83542)"
       style="stroke-width:1.69940853">
      <path
         d="m 13990.4,6037.92 c 83.8,-638.38 637.7,-997.97 1252.5,-917.24 614.7,80.64 1057.1,571.02 973.3,1209.47 -83.8,638.35 -646.9,1067.45 -1261.7,986.76 -614.7,-80.67 -1047.9,-640.66 -964.1,-1278.99"
         style="fill:#fabd99;fill-opacity:1;fill-rule:nonzero;stroke:none;stroke-width:1.69940853"
         id="path566"
         inkscape:connector-curvature="0" />
    </g>
    <path
       d="m 232.52255,117.02547 c 0,0 0.73179,-3.14692 4.37473,-3.19713 3.8449,-0.0498 4.83661,5.49033 2.49128,8.46677 -2.34732,2.97083 -6.5801,2.5527 -7.65178,-0.1035 l 0.78577,-5.16619"
       style="fill:#fabd99;fill-opacity:1;fill-rule:nonzero;stroke:none;stroke-width:0.03527778"
       id="path568"
       inkscape:connector-curvature="0" />
    <path
       d="m 237.50511,115.31073 c -2.42931,-0.72266 -4.83861,3.76117 -1.69951,6.53824 -1.12767,-3.45576 0.26592,-4.46013 1.90345,-2.69798 0.0739,-1.08324 -0.48386,-1.82723 -1.98343,-1.86043 0.23993,-1.41753 1.77949,-1.97983 1.77949,-1.97983"
       style="fill:#d37658;fill-opacity:1;fill-rule:nonzero;stroke:none;stroke-width:0.03527778"
       id="path570"
       inkscape:connector-curvature="0" />
    <g
       id="g572"
       transform="matrix(-0.0214434,0,0,-0.02311486,553.37189,265.83542)"
       style="stroke-width:1.69940853">
      <path
         d="m 16032.2,6444.08 c 33.5,-20.68 45,65.12 118.1,67.56 74.8,2.49 86.1,-84.06 121.1,-54.87 28.6,23.8 -11.1,128.42 -133.5,120.45 -102,-6.63 -137.6,-113.47 -105.7,-133.14"
         style="fill:#ee5b63;fill-opacity:1;fill-rule:nonzero;stroke:none;stroke-width:1.69940853"
         id="path574"
         inkscape:connector-curvature="0" />
    </g>
    <g
       id="g576"
       transform="matrix(-0.02274724,0,0,-0.02452033,553.37189,265.83542)"
       style="stroke-width:1.69940853">
      <path
         d="m 16300,6085.65 c -31.6,-285.33 -173.8,-526.89 -386.9,-695.22 -17.5,8.54 -34.5,18.75 -50.6,30.79 -155.3,116.26 -174.3,353.54 -42.2,529.89 120.9,161.62 326.6,216 479.7,134.54"
         style="fill:#f79883;fill-opacity:1;fill-rule:nonzero;stroke:none;stroke-width:1.69940853"
         id="path578"
         inkscape:connector-curvature="0" />
    </g>
    <g
       id="g580"
       transform="matrix(-0.02073141,0,0,-0.02234738,553.37189,265.83542)"
       style="stroke-width:1.69940853">
      <path
         d="m 15500.8,6365.82 c 132.1,129.59 358.5,141.63 536.7,18.91 199,-137.15 262.5,-390.48 141.7,-565.8 -21.5,-31.13 -47.3,-57.62 -76.3,-79.51 -271.5,118.79 -488.8,334.15 -602.1,626.4"
         style="fill:#f79883;fill-opacity:1;fill-rule:nonzero;stroke:none;stroke-width:1.69940853"
         id="path582"
         inkscape:connector-curvature="0" />
    </g>
    <g
       id="g584"
       transform="matrix(-0.02240092,0,0,-0.02414703,553.37189,265.83542)"
       style="stroke-width:1.69940853">
      <path
         d="m 15723.2,6395.06 c 54.4,-77.65 210.3,-157.74 346.1,-139.21 135.7,18.54 185.5,113.39 230.7,217.95 -6.1,54.08 -143.6,230.78 -279.4,212.24 -135.7,-18.53 -255.1,-154.39 -297.4,-290.98"
         style="fill:#ffffff;fill-opacity:1;fill-rule:nonzero;stroke:none;stroke-width:1.69940853"
         id="path586"
         inkscape:connector-curvature="0" />
    </g>
    <g
       id="g588"
       transform="matrix(-0.02223758,0,0,-0.02397094,553.37189,265.83542)"
       style="stroke-width:1.69940853">
      <path
         d="m 16002.8,6567.71 c -35.5,-76.47 -5.8,-165.73 66.3,-199.38 72.3,-33.57 159.7,1.17 195.3,77.67 35.6,76.59 5.8,165.77 -66.4,199.43 -72.2,33.55 -159.6,-1.25 -195.2,-77.72"
         style="fill:#111213;fill-opacity:1;fill-rule:nonzero;stroke:none;stroke-width:1.69940853"
         id="path590"
         inkscape:connector-curvature="0" />
    </g>
    <g
       id="g592"
       transform="matrix(-0.0221616,0,0,-0.02388905,553.37189,265.83542)"
       style="stroke-width:1.69940853">
      <path
         d="m 16214.4,6569 c -1.4,-24.77 16.6,-45.68 39.9,-46.87 23.1,-1.15 43.1,17.77 44.4,42.52 1.3,24.63 -16.6,45.61 -39.7,46.99 -23.3,1 -43.4,-18 -44.6,-42.64"
         style="fill:#ffffff;fill-opacity:1;fill-rule:nonzero;stroke:none;stroke-width:1.69940853"
         id="path594"
         inkscape:connector-curvature="0" />
    </g>
    <g
       id="g596"
       transform="matrix(-0.02193886,0,0,-0.02364894,553.37189,265.83542)"
       style="stroke-width:1.69940853">
      <path
         d="m 16246.5,6538.5 c -0.9,-15.51 10.4,-28.54 25.1,-29.4 14.5,-0.76 27,11.2 27.9,26.72 0.5,15.39 -10.4,28.55 -25.1,29.31 -14.6,0.76 -27.1,-11.18 -27.9,-26.63"
         style="fill:#ffffff;fill-opacity:1;fill-rule:nonzero;stroke:none;stroke-width:1.69940853"
         id="path598"
         inkscape:connector-curvature="0" />
    </g>
    <g
       id="g600"
       transform="matrix(-0.02240092,0,0,-0.02414703,553.37189,265.83542)"
       style="stroke-width:1.69940853">
      <path
         d="m 16300,6473.8 c 0,0 -148.2,291.82 -454.1,120 320.4,316.29 454.1,-120 454.1,-120"
         style="fill:#6d3a2c;fill-opacity:1;fill-rule:nonzero;stroke:none;stroke-width:1.69940853"
         id="path602"
         inkscape:connector-curvature="0" />
    </g>
    <g
       id="g604"
       transform="matrix(-0.02081279,0,0,-0.0224351,553.37189,265.83542)"
       style="stroke-width:1.69940853">
      <path
         d="m 16300,6802.83 c -35.5,-95.6 -176.4,-221.21 -322.8,-238.63 -146.4,-17.42 -224,67.92 -299.3,164.62 -8.4,57.97 87.1,279.27 233.5,296.69 146.5,17.41 307.6,-91.83 388.6,-222.68"
         style="fill:#ffffff;fill-opacity:1;fill-rule:nonzero;stroke:none;stroke-width:1.69940853"
         id="path606"
         inkscape:connector-curvature="0" />
    </g>
    <g
       id="g608"
       transform="matrix(-0.02062625,0,0,-0.02223401,553.37189,265.83542)"
       style="stroke-width:1.69940853">
      <path
         d="m 16242.1,6951.04 c 57.9,-70.17 51.1,-171.36 -15.1,-226.02 -66.3,-54.61 -166.9,-42.05 -224.8,28.13 -57.9,70.28 -51,171.39 15.1,226.07 66.3,54.6 167,41.97 224.8,-28.18"
         style="fill:#111213;fill-opacity:1;fill-rule:nonzero;stroke:none;stroke-width:1.69940853"
         id="path610"
         inkscape:connector-curvature="0" />
    </g>
    <g
       id="g612"
       transform="matrix(-0.02036412,0,0,-0.02195145,553.37189,265.83542)"
       style="stroke-width:1.69940853">
      <path
         d="m 16291.9,6975.26 c 8.1,-25.74 -5.1,-52.67 -29.2,-60.28 -24.2,-7.57 -50.3,6.91 -58.5,32.61 -8.1,25.6 5,52.56 29,60.38 24.4,7.43 50.7,-7.1 58.7,-32.71"
         style="fill:#ffffff;fill-opacity:1;fill-rule:nonzero;stroke:none;stroke-width:1.69940853"
         id="path614"
         inkscape:connector-curvature="0" />
    </g>
    <g
       id="g616"
       transform="matrix(-0.02056606,0,0,-0.02216913,553.37189,265.83542)"
       style="stroke-width:1.69940853">
      <path
         d="m 16294.9,6841.99 c 5.1,-15.78 -3.1,-32.27 -17.9,-37.08 -14.9,-4.68 -31.1,4.3 -36,20.12 -4.8,15.74 3.1,32.27 18,36.98 14.8,4.69 31,-4.29 35.9,-20.02"
         style="fill:#ffffff;fill-opacity:1;fill-rule:nonzero;stroke:none;stroke-width:1.69940853"
         id="path618"
         inkscape:connector-curvature="0" />
    </g>
    <g
       id="g620"
       transform="matrix(-0.02058086,0,0,-0.02218508,553.37189,265.83542)"
       style="stroke-width:1.69940853">
      <path
         d="m 15854.5,6804.62 c 0,0 76.2,347.97 445.5,250.64 -424.1,245.56 -445.5,-250.64 -445.5,-250.64"
         style="fill:#6d3a2c;fill-opacity:1;fill-rule:nonzero;stroke:none;stroke-width:1.69940853"
         id="path622"
         inkscape:connector-curvature="0" />
    </g>
    <g
       id="g624"
       transform="matrix(-0.02222678,0,0,-0.02395931,553.37189,265.83542)"
       style="stroke-width:1.69940853">
      <path
         d="m 16174,6925.3 c -119.2,31.26 -141.4,-99.48 -62.8,-98.33 84.4,1.43 155.5,-28.03 165.9,-19.73 22.9,18.36 -36.1,100.56 -103.1,118.06"
         style="fill:#111213;fill-opacity:1;fill-rule:nonzero;stroke:none;stroke-width:1.69940853"
         id="path626"
         inkscape:connector-curvature="0" />
    </g>
    <g
       id="g628"
       transform="matrix(-0.0203955,0,0,-0.02198529,553.37189,265.83542)"
       style="stroke-width:1.69940853">
      <path
         d="m 16133.4,7351.03 c 124.5,50.28 166.6,-87.98 81.5,-97.61 -91.5,-10.08 -164.2,-51.78 -176.6,-44.21 -27.3,16.67 25,113.63 95.1,141.82"
         style="fill:#111213;fill-opacity:1;fill-rule:nonzero;stroke:none;stroke-width:1.69940853"
         id="path630"
         inkscape:connector-curvature="0" />
    </g>
    <g
       id="g632"
       transform="matrix(-0.02195186,0,0,-0.02366295,553.37189,265.83542)"
       style="stroke-width:1.69940853">
      <path
         d="m 16284.1,6247.5 c 15.9,-348.17 -163.3,-643.75 -423.7,-678.27 -260.4,-34.53 -510.4,204.16 -585.6,544.47 l 1009.3,133.8"
         style="fill:#712131;fill-opacity:1;fill-rule:nonzero;stroke:none;stroke-width:1.69940853"
         id="path634"
         inkscape:connector-curvature="0" />
    </g>
    <g
       id="g636"
       transform="matrix(-0.02175351,0,0,-0.02344915,553.37189,265.83542)"
       style="stroke-width:1.69940853">
      <path
         d="m 16300,5808.67 c -74.6,-103.53 -176.4,-172.92 -294.9,-188.63 -118.4,-15.7 -234.7,24.78 -333.8,105.29 82.2,47.09 188.3,82.85 306.8,98.57 118.6,15.71 230.4,8.83 321.9,-15.23"
         style="fill:#ee5b63;fill-opacity:1;fill-rule:nonzero;stroke:none;stroke-width:1.69940853"
         id="path638"
         inkscape:connector-curvature="0" />
    </g>
    <g
       id="g640"
       transform="matrix(-0.02192446,0,0,-0.02363343,553.37189,265.83542)"
       style="stroke-width:1.69940853">
      <path
         d="m 15817.4,6050.95 c -251.4,-33.33 -464.7,-22.51 -519.1,71.01 l 1001.7,132.79 c -28.2,-104.46 -231.3,-170.48 -482.6,-203.8"
         style="fill:#ffffff;fill-opacity:1;fill-rule:nonzero;stroke:none;stroke-width:1.69940853"
         id="path642"
         inkscape:connector-curvature="0" />
    </g>
    <g
       id="g644"
       transform="matrix(-0.02236194,0,0,-0.024105,553.37189,265.83542)"
       style="stroke-width:1.69940853">
      <path
         d="m 16229.1,6046.32 c 11.1,-16.53 33.4,-20.95 50,-9.89 16.5,11.08 20.9,33.44 9.8,49.96 -11.1,16.52 -33.4,20.94 -49.9,9.88 -16.5,-11.07 -21,-33.43 -9.9,-49.95"
         style="fill:#ee5b63;fill-opacity:1;fill-rule:nonzero;stroke:none;stroke-width:1.69940853"
         id="path646"
         inkscape:connector-curvature="0" />
    </g>
    <g
       id="g648"
       transform="matrix(-0.02223158,0,0,-0.02396448,553.37189,265.83542)"
       style="stroke-width:1.69940853">
      <path
         d="m 16228.7,5974.14 c 11.1,-16.63 33.6,-21.07 50.2,-9.94 16.6,11.13 21.1,33.62 9.9,50.24 -11.1,16.62 -33.6,21.08 -50.2,9.94 -16.7,-11.13 -21.1,-33.63 -9.9,-50.24"
         style="fill:#ee5b63;fill-opacity:1;fill-rule:nonzero;stroke:none;stroke-width:1.69940853"
         id="path650"
         inkscape:connector-curvature="0" />
    </g>
    <g
       id="g652"
       transform="matrix(-0.02240174,0,0,-0.0241479,553.37189,265.83542)"
       style="stroke-width:1.69940853">
      <path
         d="m 16229.2,5920.37 c 11.1,-16.49 33.4,-20.9 49.9,-9.86 16.4,11.05 20.9,33.37 9.8,49.87 -11,16.49 -33.3,20.91 -49.9,9.86 -16.4,-11.05 -20.8,-33.37 -9.8,-49.87"
         style="fill:#ee5b63;fill-opacity:1;fill-rule:nonzero;stroke:none;stroke-width:1.69940853"
         id="path654"
         inkscape:connector-curvature="0" />
    </g>
    <g
       id="g656"
       transform="matrix(-0.02031154,0,0,-0.02189477,553.37189,265.83542)"
       style="stroke-width:1.69940853">
      <path
         d="m 16238,6433.51 c 19.9,-9.27 43.5,-0.73 52.7,19.11 9.3,19.82 0.7,43.42 -19.1,52.7 -19.8,9.29 -43.4,0.73 -52.7,-19.1 -9.3,-19.83 -0.7,-43.42 19.1,-52.71"
         style="fill:#ee5b63;fill-opacity:1;fill-rule:nonzero;stroke:none;stroke-width:1.69940853"
         id="path658"
         inkscape:connector-curvature="0" />
    </g>
    <g
       id="g660"
       transform="matrix(-0.02027634,0,0,-0.02185684,553.37189,265.83542)"
       style="stroke-width:1.69940853">
      <path
         d="m 16237.9,6298.74 c 19.8,-9.3 43.5,-0.73 52.7,19.13 9.4,19.86 0.8,43.5 -19.1,52.8 -19.8,9.3 -43.5,0.74 -52.8,-19.13 -9.2,-19.86 -0.6,-43.5 19.2,-52.8"
         style="fill:#ee5b63;fill-opacity:1;fill-rule:nonzero;stroke:none;stroke-width:1.69940853"
         id="path662"
         inkscape:connector-curvature="0" />
    </g>
    <g
       id="g664"
       transform="matrix(-0.0204403,0,0,-0.02203357,553.37189,265.83542)"
       style="stroke-width:1.69940853">
      <path
         d="m 16238.4,6301.42 c 19.7,-9.22 43.1,-0.73 52.4,18.97 9.2,19.71 0.7,43.16 -19,52.38 -19.7,9.23 -43.2,0.73 -52.4,-18.97 -9.2,-19.7 -0.7,-43.16 19,-52.38"
         style="fill:#ee5b63;fill-opacity:1;fill-rule:nonzero;stroke:none;stroke-width:1.69940853"
         id="path666"
         inkscape:connector-curvature="0" />
    </g>
    <g
       id="g668"
       transform="matrix(-0.02378213,0,0,-0.02563589,553.37189,265.83542)"
       style="stroke-width:1.69940853">
      <path
         d="m 14229.1,7956.35 c -149.6,282.45 -781.1,124.63 -774,-214.57 -195.7,159.63 -194.3,25.88 -144.1,-115.69 -203.7,194.45 -712.5,-47.23 -600.6,-385.91 -134.6,57.3 -198,-43.05 -66.6,-174.4 -231.5,69.34 -194.5,-237.73 -26.9,-336.44 -281.1,-32.79 -337,-503.56 -69.1,-531.59 -149.4,-211.51 -42.7,-360.88 131.6,-309.82 -96.3,-279.03 216,-280.97 273.3,-124.64 76.4,-178.63 344.7,-147.65 374.5,-56.62 143.3,-234.32 221.3,201.85 119.2,322.78 223.1,-88.58 110.9,160.18 54.1,248.42 145.3,-58.35 282.6,97.47 146.2,188.84 157.9,-66.97 319.9,81.31 286.4,181.14 139.5,-17.3 339.3,148.67 189.1,228.21 118.5,12.35 426.7,202.81 405,-71.93 -21.8,-274.71 200.1,-87.08 269.2,73.48 -17,-485.06 301.9,-278.2 419.9,-171.05 -139.1,-327.81 116.4,-352.75 215.9,-195.93 56.5,-189.71 461.6,-215.26 397.4,-38.12 175.3,-75.89 353.9,150.88 175.8,254.17 201.1,68.16 294.6,363.18 -13.9,303.49 204.6,109.94 48.7,239.42 -45.5,224.05 108.8,182.71 -259.3,419.56 -452.6,301.45 141.6,205.89 -102.5,395.22 -211.9,307.31 25.7,206.56 -178.1,267.35 -308.9,115.62 -29.6,189.69 -158.1,157.98 -154,42.42 -163.4,270.65 -588.9,287.11 -589.5,-64.67"
         style="fill:#111213;fill-opacity:1;fill-rule:nonzero;stroke:none;stroke-width:1.69940853"
         id="path670"
         inkscape:connector-curvature="0" />
    </g>
    <g
       id="g692"
       transform="matrix(-0.02247531,0,0,-0.02422721,553.37189,265.83542)"
       style="stroke-width:1.69940853">
      <path
         d="m 16210.2,4622.33 c 0,0 89.8,234.24 54,389.12 -42.8,8.9 -97.8,13.52 -97.8,13.52 0,0 -5.4,-211.01 -65.9,-385.38 64.1,-11.92 109.7,-17.26 109.7,-17.26"
         style="fill:#ed1c24;fill-opacity:1;fill-rule:nonzero;stroke:none;stroke-width:1.69940853"
         id="path694"
         inkscape:connector-curvature="0" />
    </g>
    <path
       d="m 161.51654,141.81416 c 0.59538,-0.29865 1.54805,1.63232 1.83293,1.65477 -0.0147,-0.0764 -0.83598,-2.29245 -1.02023,-2.77068 -0.42976,-1.12041 0.52101,-1.69519 1.05582,-0.80606 0.44836,0.74768 1.36251,2.53492 1.41505,2.62473 -0.0176,-0.10102 -0.7301,-2.43614 -0.86839,-2.86497 -0.40646,-1.26185 0.85821,-1.9206 1.35171,-0.4805 0.33613,0.97445 0.86627,2.71454 0.94993,2.84927 0.0327,-0.0742 -0.062,-1.45943 -0.0625,-2.27897 2.1e-4,-1.35389 1.08994,-1.54249 1.34155,-0.0179 0.19507,1.20573 0.79003,4.06397 0.79003,4.06397 0,0 1.25725,-1.50434 2.02884,-0.75441 0.78092,0.74991 -1.49594,3.30504 -1.49594,3.30504 l -0.15294,0.0876 c 0.97599,1.67497 7.51494,7.52617 18.95329,1.82543 2.52468,-1.25961 3.88444,2.74145 1.63108,3.80797 -16.40001,7.75295 -22.68861,-1.61211 -24.1816,-3.78104 0,0 -0.97322,0.5052 -2.69306,-3.21074 -0.67394,-1.4572 -1.44894,-2.96379 -0.87559,-3.2534"
       style="fill:#fabd99;fill-opacity:1;fill-rule:nonzero;stroke:none;stroke-width:0.03527778"
       id="path740-3-6"
       inkscape:connector-curvature="0" />
  </g>
  <g
     inkscape:groupmode="layer"
     id="layer2"
     inkscape:label="Layer 3" />
  <g
     inkscape:label="Layer 1"
     inkscape:groupmode="layer"
     id="layer1"
     transform="translate(0,-32.41665)">
    <text
       xml:space="preserve"
       style="font-style:normal;font-variant:normal;font-weight:bold;font-stretch:normal;font-size:10.58333302px;line-height:1.25;font-family:sans-serif;-inkscape-font-specification:'sans-serif Bold';letter-spacing:0px;word-spacing:0px;fill:#000000;fill-opacity:1;stroke:none;stroke-width:0.26458332"
       x="150.05655"
       y="89.869026"
       id="text8811" />
    <text
       xml:space="preserve"
       style="font-style:normal;font-variant:normal;font-weight:bold;font-stretch:normal;font-size:10.58333302px;line-height:1.25;font-family:sans-serif;-inkscape-font-specification:'sans-serif Bold';letter-spacing:0px;word-spacing:0px;fill:#000000;fill-opacity:1;stroke:none;stroke-width:0.26458332"
       x="160.63989"
       y="97.806526"
       id="text8815" />
    <text
       xml:space="preserve"
       style="font-style:normal;font-variant:normal;font-weight:bold;font-stretch:normal;font-size:10.58333302px;line-height:1.25;font-family:sans-serif;-inkscape-font-specification:'sans-serif Bold';letter-spacing:0px;word-spacing:0px;fill:#000000;fill-opacity:1;stroke:none;stroke-width:0.26458332"
       x="156.86011"
       y="88.7351"
       id="text8819" />
    <flowRoot
       xml:space="preserve"
       id="flowRoot8821"
       style="font-style:normal;font-variant:normal;font-weight:bold;font-stretch:normal;font-size:40px;line-height:1.25;font-family:sans-serif;-inkscape-font-specification:'sans-serif Bold';letter-spacing:0px;word-spacing:0px;fill:#000000;fill-opacity:1;stroke:none"><flowRegion
         id="flowRegion8823"
         style="font-style:normal;font-variant:normal;font-weight:bold;font-stretch:normal;font-family:sans-serif;-inkscape-font-specification:'sans-serif Bold'" /><flowPara
         id="flowPara8827" /></flowRoot>
    <flowRoot
       xml:space="preserve"
       id="flowRoot8829"
       style="font-style:normal;font-variant:normal;font-weight:bold;font-stretch:normal;font-size:40px;line-height:1.25;font-family:sans-serif;-inkscape-font-specification:'sans-serif Bold';letter-spacing:0px;word-spacing:0px;fill:#000000;fill-opacity:1;stroke:none"><flowRegion
         id="flowRegion8831"
         style="font-style:normal;font-variant:normal;font-weight:bold;font-stretch:normal;font-family:sans-serif;-inkscape-font-specification:'sans-serif Bold'" /><flowPara
         id="flowPara8835" /></flowRoot>
    <flowRoot
       xml:space="preserve"
       id="flowRoot8837"
       style="font-style:normal;font-variant:normal;font-weight:bold;font-stretch:normal;font-size:40px;line-height:1.25;font-family:sans-serif;-inkscape-font-specification:'sans-serif Bold';letter-spacing:0px;word-spacing:0px;fill:#000000;fill-opacity:1;stroke:none"><flowRegion
         id="flowRegion8839"
         style="font-style:normal;font-variant:normal;font-weight:bold;font-stretch:normal;font-family:sans-serif;-inkscape-font-specification:'sans-serif Bold'" /><flowPara
         id="flowPara8843" /></flowRoot>
    <text
       xml:space="preserve"
       style="font-style:normal;font-variant:normal;font-weight:bold;font-stretch:normal;font-size:10.58333302px;line-height:1.25;font-family:sans-serif;-inkscape-font-specification:'sans-serif Bold';letter-spacing:0px;word-spacing:0px;fill:#000000;fill-opacity:1;stroke:none;stroke-width:0.26458332"
       x="209.39882"
       y="107.25594"
       id="text8847" />
    <flowRoot
       xml:space="preserve"
       id="flowRoot8849"
       style="font-style:normal;font-variant:normal;font-weight:bold;font-stretch:normal;font-size:40px;line-height:1.25;font-family:sans-serif;-inkscape-font-specification:'sans-serif Bold';letter-spacing:0px;word-spacing:0px;fill:#000000;fill-opacity:1;stroke:none"><flowRegion
         id="flowRegion8851"
         style="font-style:normal;font-variant:normal;font-weight:bold;font-stretch:normal;font-family:sans-serif;-inkscape-font-specification:'sans-serif Bold'" /><flowPara
         id="flowPara8855" /></flowRoot>
    <flowRoot
       xml:space="preserve"
       id="flowRoot8857"
       style="font-style:normal;font-variant:normal;font-weight:bold;font-stretch:normal;font-size:40px;line-height:1.25;font-family:sans-serif;-inkscape-font-specification:'sans-serif Bold';letter-spacing:0px;word-spacing:0px;fill:#000000;fill-opacity:1;stroke:none"><flowRegion
         id="flowRegion8859"
         style="font-style:normal;font-variant:normal;font-weight:bold;font-stretch:normal;font-family:sans-serif;-inkscape-font-specification:'sans-serif Bold'" /><flowPara
         id="flowPara8863" /></flowRoot>
    <flowRoot
       xml:space="preserve"
       id="flowRoot8865"
       style="font-style:normal;font-variant:normal;font-weight:bold;font-stretch:normal;font-size:40px;line-height:1.25;font-family:sans-serif;-inkscape-font-specification:'sans-serif Bold';letter-spacing:0px;word-spacing:0px;fill:#000000;fill-opacity:1;stroke:none"><flowRegion
         id="flowRegion8867"
         style="font-style:normal;font-variant:normal;font-weight:bold;font-stretch:normal;font-family:sans-serif;-inkscape-font-specification:'sans-serif Bold'" /><flowPara
         id="flowPara8871" /></flowRoot>
    <flowRoot
       xml:space="preserve"
       id="flowRoot8873"
       style="font-style:normal;font-variant:normal;font-weight:bold;font-stretch:normal;font-size:40px;line-height:1.25;font-family:sans-serif;-inkscape-font-specification:'sans-serif Bold';letter-spacing:0px;word-spacing:0px;fill:#000000;fill-opacity:1;stroke:none"><flowRegion
         id="flowRegion8875"
         style="font-style:normal;font-variant:normal;font-weight:bold;font-stretch:normal;font-family:sans-serif;-inkscape-font-specification:'sans-serif Bold'" /><flowPara
         id="flowPara8879" /></flowRoot>
    <text
       xml:space="preserve"
       style="font-style:normal;font-weight:normal;font-size:10.58333302px;line-height:1.25;font-family:sans-serif;letter-spacing:0px;word-spacing:0px;fill:#000000;fill-opacity:1;stroke:none;stroke-width:0.26458332"
       x="101.02788"
       y="69.125984"
       id="text977"><tspan
         sodipodi:role="line"
         id="tspan975"
         x="101.02788"
         y="78.489754"
         style="stroke-width:0.26458332" /><tspan
         sodipodi:role="line"
         x="101.02788"
         y="91.718918"
         id="tspan979"
         style="stroke-width:0.26458332" /><tspan
         sodipodi:role="line"
         x="101.02788"
         y="104.94809"
         id="tspan981"
         style="stroke-width:0.26458332" /><tspan
         sodipodi:role="line"
         x="101.02788"
         y="118.17725"
         id="tspan983"
         style="stroke-width:0.26458332" /><tspan
         sodipodi:role="line"
         x="101.02788"
         y="131.40642"
         id="tspan985"
         style="stroke-width:0.26458332" /><tspan
         sodipodi:role="line"
         x="101.02788"
         y="144.63559"
         id="tspan987"
         style="stroke-width:0.26458332" /><tspan
         sodipodi:role="line"
         x="101.02788"
         y="157.86475"
         id="tspan989"
         style="stroke-width:0.26458332" /><tspan
         sodipodi:role="line"
         x="101.02788"
         y="171.09392"
         id="tspan991"
         style="stroke-width:0.26458332" /><tspan
         sodipodi:role="line"
         x="101.02788"
         y="184.32309"
         id="tspan993"
         style="stroke-width:0.26458332" /><tspan
         sodipodi:role="line"
         x="101.02788"
         y="197.55225"
         id="tspan995"
         style="stroke-width:0.26458332" /><tspan
         sodipodi:role="line"
         x="101.02788"
         y="210.78142"
         id="tspan997"
         style="stroke-width:0.26458332" /><tspan
         sodipodi:role="line"
         x="101.02788"
         y="224.01059"
         id="tspan999"
         style="stroke-width:0.26458332" /><tspan
         sodipodi:role="line"
         x="101.02788"
         y="237.23975"
         id="tspan1001"
         style="stroke-width:0.26458332" /><tspan
         sodipodi:role="line"
         x="101.02788"
         y="250.46892"
         id="tspan1003"
         style="stroke-width:0.26458332" /><tspan
         sodipodi:role="line"
         x="101.02788"
         y="263.69809"
         id="tspan1005"
         style="stroke-width:0.26458332" /><tspan
         sodipodi:role="line"
         x="101.02788"
         y="276.92725"
         id="tspan1007"
         style="stroke-width:0.26458332" /><tspan
         sodipodi:role="line"
         x="101.02788"
         y="290.1564"
         id="tspan1009"
         style="stroke-width:0.26458332" /><tspan
         sodipodi:role="line"
         x="101.02788"
         y="303.38559"
         id="tspan1011"
         style="stroke-width:0.26458332" /><tspan
         sodipodi:role="line"
         x="101.02788"
         y="316.61475"
         id="tspan1013"
         style="stroke-width:0.26458332" /><tspan
         sodipodi:role="line"
         x="101.02788"
         y="329.8439"
         id="tspan1015"
         style="stroke-width:0.26458332" /><tspan
         sodipodi:role="line"
         x="101.02788"
         y="343.07309"
         id="tspan1017"
         style="stroke-width:0.26458332" /><tspan
         sodipodi:role="line"
         x="101.02788"
         y="356.30225"
         id="tspan1019"
         style="stroke-width:0.26458332" /><tspan
         sodipodi:role="line"
         x="101.02788"
         y="369.5314"
         id="tspan1021"
         style="stroke-width:0.26458332" /><tspan
         sodipodi:role="line"
         x="101.02788"
         y="382.76059"
         id="tspan1023"
         style="stroke-width:0.26458332" /></text>
  </g>
</svg>
