<?xml version="1.0" encoding="UTF-8" standalone="no"?>
<!-- Created with Inkscape (http://www.inkscape.org/) -->

<svg
   xmlns:dc="http://purl.org/dc/elements/1.1/"
   xmlns:cc="http://creativecommons.org/ns#"
   xmlns:rdf="http://www.w3.org/1999/02/22-rdf-syntax-ns#"
   xmlns:svg="http://www.w3.org/2000/svg"
   xmlns="http://www.w3.org/2000/svg"
   xmlns:sodipodi="http://sodipodi.sourceforge.net/DTD/sodipodi-0.dtd"
   xmlns:inkscape="http://www.inkscape.org/namespaces/inkscape"
   width="1000"
   height="1000"
   viewBox="0 0 264.58333 264.58334"
   version="1.1"
   id="svg2383"
   inkscape:version="0.92.5 (2060ec1f9f, 2020-04-08)"
   sodipodi:docname="What year is this.svg"
   enable-background="new">
  <defs
     id="defs2377" />
  <sodipodi:namedview
     id="base"
     pagecolor="#ffffff"
     bordercolor="#666666"
     borderopacity="1.0"
     inkscape:pageopacity="0.0"
     inkscape:pageshadow="2"
     inkscape:zoom="0.70710678"
     inkscape:cx="215.58489"
     inkscape:cy="407.44052"
     inkscape:document-units="px"
     inkscape:current-layer="layer3"
     showgrid="false"
     units="px"
     inkscape:window-width="1920"
     inkscape:window-height="1031"
     inkscape:window-x="0"
     inkscape:window-y="25"
     inkscape:window-maximized="1"
     showguides="true"
     inkscape:lockguides="true"
     inkscape:object-nodes="false"
     inkscape:snap-nodes="false"
     inkscape:snap-others="false" />
  <metadata
     id="metadata2380">
    <rdf:RDF>
      <cc:Work
         rdf:about="">
        <dc:format>image/svg+xml</dc:format>
        <dc:type
           rdf:resource="http://purl.org/dc/dcmitype/StillImage" />
        <dc:title />
      </cc:Work>
    </rdf:RDF>
  </metadata>
  <g
     inkscape:groupmode="layer"
     id="layer3"
     inkscape:label="Layer 2">
    <text
       xml:space="preserve"
       style="font-style:normal;font-weight:normal;font-size:10.58333302px;line-height:1.25;font-family:sans-serif;letter-spacing:0px;word-spacing:0px;fill:#000000;fill-opacity:1;stroke:none;stroke-width:0.26458332"
       x="2.6192422"
       y="64.398453"
       id="text20604"><tspan
         sodipodi:role="line"
         id="tspan20602"
         x="2.6192422"
         y="73.762222"
         style="font-style:normal;font-variant:normal;font-weight:bold;font-stretch:normal;font-size:12.69999981px;font-family:sans-serif;-inkscape-font-specification:'sans-serif Bold';stroke-width:0.26458332" /></text>
    <text
       xml:space="preserve"
       style="font-style:normal;font-weight:normal;font-size:10.58333302px;line-height:1.25;font-family:sans-serif;letter-spacing:0px;word-spacing:0px;fill:#000000;fill-opacity:1;stroke:none;stroke-width:0.26458332"
       x="40.411156"
       y="38.954399"
       id="text20997"><tspan
         sodipodi:role="line"
         id="tspan20995"
         x="40.411156"
         y="48.318169"
         style="font-style:normal;font-variant:normal;font-weight:bold;font-stretch:normal;font-size:12.69999981px;font-family:sans-serif;-inkscape-font-specification:'sans-serif Bold';stroke-width:0.26458332" /></text>
    <flowRoot
       xml:space="preserve"
       id="flowRoot20999"
       style="fill:black;fill-opacity:1;stroke:none;font-family:sans-serif;font-style:normal;font-weight:normal;font-size:40px;line-height:1.25;letter-spacing:0px;word-spacing:0px"><flowRegion
         id="flowRegion21001"><rect
           id="rect21003"
           width="33.941124"
           height="135.7645"
           x="292.74222"
           y="186.82719" /></flowRegion><flowPara
         id="flowPara21005" /></flowRoot>    <ellipse
       style="fill:#3bbec7;fill-opacity:1;stroke-width:0.4591631"
       id="path3018"
       cx="132.70172"
       cy="229.22134"
       rx="105.7971"
       ry="33.096272" />
    <g
       id="g20735"
       transform="matrix(0.11586972,0,0,-0.04828427,-1672.3726,450.30522)"
       style="stroke-width:0.85441428">
      <path
         d="m 16273.9,8495.79 c -26.1,-323.33 -309.4,-564.31 -632.7,-538.21 -323.3,26.07 -564.3,309.32 -538.2,632.66 26.1,323.31 309.4,564.28 632.7,538.19 323.3,-26.08 564.3,-309.33 538.2,-632.64"
         style="fill:#3bbec7;fill-opacity:1;fill-rule:nonzero;stroke:none;stroke-width:0.85441428"
         id="path20737"
         inkscape:connector-curvature="0" />
    </g>
    <g
       id="g20739"
       transform="matrix(0.09202019,0,0,-0.06136887,-1364.4871,576.34563)"
       style="stroke-width:0.81685007">
      <path
         d="m 16029.8,8517.15 -184,-286.02 454.2,166.27 -270.2,119.75"
         style="fill:#3bbec7;fill-opacity:1;fill-rule:nonzero;stroke:none;stroke-width:0.81685007"
         id="path20741"
         inkscape:connector-curvature="0" />
    </g>
    <text
       xml:space="preserve"
       style="font-style:normal;font-weight:normal;font-size:10.58333302px;line-height:1.25;font-family:sans-serif;letter-spacing:0px;word-spacing:0px;fill:#000000;fill-opacity:1;stroke:none;stroke-width:0.26458332"
       x="81.196487"
       y="42.696171"
       id="text51376"><tspan
         sodipodi:role="line"
         x="81.196487"
         y="42.696171"
         style="font-style:normal;font-variant:normal;font-weight:bold;font-stretch:normal;font-size:12.69999981px;font-family:sans-serif;-inkscape-font-specification:'sans-serif Bold';stroke-width:0.26458332"
         id="tspan51378">What year is this?</tspan></text>
    <path
       d="m 223.47176,160.2922 c 0,0 5.14481,9.55202 3.52892,23.22632 1.06046,1.3285 1.04797,3.66981 0.10452,6.18212 -0.18245,2.01509 -0.60885,3.35149 -1.27644,3.1121 -0.68816,-0.24728 -0.3272,-2.46496 -0.30615,-3.03055 -0.0403,0.0815 -0.74274,2.74117 -0.93421,3.31466 -0.44513,1.33376 -1.61728,1.01807 -1.42095,-0.20782 0.17203,-1.02597 0.69625,-3.3515 0.71961,-3.47513 -0.0589,0.10522 -1.13469,2.73065 -1.32407,3.21469 -0.56677,1.43899 -2.049,0.92863 -1.43298,-0.73396 0.42108,-1.13119 1.22279,-3.08316 1.25053,-3.27257 -0.0775,0.0368 -0.97837,1.3127 -1.56085,2.02563 -0.9578,1.17065 -1.96553,0.39722 -1.08937,-1.12857 0.69325,-1.20749 2.08115,-4.35379 2.08115,-4.35379 0,0 -1.91928,0.39461 -2.01178,-0.91021 -0.0964,-1.31272 3.54095,-1.57842 3.54095,-1.57842 0,0 0.49763,-12.40368 -3.43597,-19.21453 1.61196,-1.18644 3.56709,-3.16997 3.56709,-3.16997"
       style="fill:#fabd99;fill-opacity:1;fill-rule:nonzero;stroke:none;stroke-width:0.03527778"
       id="path14896"
       inkscape:connector-curvature="0" />
    <path
       d="m 192.95803,221.07682 c 0,0 -0.15771,7.15284 -0.34732,11.04099 2.25827,0.65768 3.68039,0.17364 3.68039,0.17364 l 1.15989,-11.81968 -4.49296,0.60505"
       style="fill:#fabd99;fill-opacity:1;fill-rule:nonzero;stroke:none;stroke-width:0.03527778"
       id="path14898"
       inkscape:connector-curvature="0" />
    <path
       d="m 196.98227,234.06716 c 0.44328,1.12067 0.58063,3.12787 -1.70886,5.35344 -2.28648,2.22819 -4.55515,4.10913 -7.99737,2.74907 -2.83013,-1.11542 -1.64017,-4.9036 -1.64017,-4.9036 l 11.3464,-3.19891"
       style="fill:#d4edf2;fill-opacity:1;fill-rule:nonzero;stroke:none;stroke-width:0.03527778"
       id="path14900"
       inkscape:connector-curvature="0" />
    <path
       d="m 196.6072,229.39243 c 0.55289,1.01018 1.14208,4.93516 -0.58688,6.66352 -1.72019,1.72573 -5.36057,5.19034 -8.74428,3.76978 -3.08194,-1.2943 -1.30487,-4.36432 0.41184,-5.61389 1.71602,-1.24957 4.99058,-4.72208 4.99058,-4.72208 0,0 0.46456,2.16243 3.92874,-0.0973"
       style="fill:#f03a1f;fill-opacity:1;fill-rule:nonzero;stroke:none;stroke-width:0.03527778"
       id="path14902"
       inkscape:connector-curvature="0" />
    <path
       d="m 190.78208,231.28915 c 1.28637,-0.43933 3.07916,0.2657 3.70651,1.2864 0.61949,1.02335 -0.12834,1.83623 -0.66434,1.78624 -0.53786,-0.05 -2.09873,-0.88917 -3.85937,-1.13646 -1.75926,-0.24202 -0.21251,-1.59157 0.8172,-1.93618"
       style="fill:#d4edf2;fill-opacity:1;fill-rule:nonzero;stroke:none;stroke-width:0.03527778"
       id="path14904"
       inkscape:connector-curvature="0" />
    <path
       d="m 214.7654,221.07682 c 0,0 0.15701,7.15284 0.34779,11.04099 -2.2592,0.65768 -3.68062,0.17364 -3.68062,0.17364 l -1.16036,-11.81968 4.49319,0.60505"
       style="fill:#fabd99;fill-opacity:1;fill-rule:nonzero;stroke:none;stroke-width:0.03527778"
       id="path14906"
       inkscape:connector-curvature="0" />
    <path
       d="m 210.74093,234.06716 c -0.44351,1.12067 -0.43588,3.28835 1.85338,5.51655 2.28602,2.22555 4.90133,3.75398 8.35302,2.42549 2.90365,-1.11805 1.13977,-4.74313 1.13977,-4.74313 l -11.34617,-3.19891"
       style="fill:#d4edf2;fill-opacity:1;fill-rule:nonzero;stroke:none;stroke-width:0.03527778"
       id="path14908"
       inkscape:connector-curvature="0" />
    <path
       d="m 211.11623,229.39243 c -0.55312,1.01018 -1.14231,4.93516 0.58665,6.66352 1.72042,1.72573 4.80166,4.86151 8.96026,3.56721 3.26068,-1.01544 1.08913,-4.16175 -0.62805,-5.41132 -1.71532,-1.24957 -4.99035,-4.72208 -4.99035,-4.72208 0,0 -0.46456,2.16243 -3.92851,-0.0973"
       style="fill:#f03a1f;fill-opacity:1;fill-rule:nonzero;stroke:none;stroke-width:0.03527778"
       id="path14910"
       inkscape:connector-curvature="0" />
    <path
       d="m 216.94112,231.28915 c -1.2866,-0.43933 -3.07939,0.2657 -3.70604,1.2864 -0.62042,1.02335 0.1281,1.83623 0.66434,1.78624 0.53739,-0.05 2.09849,-0.88917 3.85913,-1.13646 1.75926,-0.24202 0.21204,-1.59157 -0.81743,-1.93618"
       style="fill:#d4edf2;fill-opacity:1;fill-rule:nonzero;stroke:none;stroke-width:0.03527778"
       id="path14912"
       inkscape:connector-curvature="0" />
    <path
       d="m 211.82152,144.93951 -6.33663,-0.50772 v -4.38535 h -3.13513 v 4.39324 l -5.68337,0.49983 c -0.37345,8.01308 6.84581,8.43135 7.28632,8.44976 v 0.003 c 0,0 0.006,0 0.0125,-0.003 0.007,0.003 0.0107,0.003 0.0107,0.003 v -0.003 c 0.44075,-0.0184 8.21798,-0.43668 7.84569,-8.44976"
       style="fill:#fabd99;fill-opacity:1;fill-rule:nonzero;stroke:none;stroke-width:0.03527778"
       id="path14914"
       inkscape:connector-curvature="0" />
    <path
       d="m 203.96289,144.34498 c 0.56907,0 1.066,0.26307 1.34534,0.66293 v -1.83622 H 202.618 v 1.83622 c 0.27957,-0.39986 0.7765,-0.66293 1.34489,-0.66293"
       style="fill:#efa378;fill-opacity:1;fill-rule:nonzero;stroke:none;stroke-width:0.03527778"
       id="path14916"
       inkscape:connector-curvature="0" />
    <path
       d="m 211.8518,145.00791 c -0.0389,6.80295 -3.96226,7.1239 -7.9028,6.4899 l -0.0522,0.12101 c -3.94006,0.63663 -7.86394,0.19204 -7.90187,-6.61091 -1.7026,0.003 -11.32534,3.35413 -13.76629,13.19026 1.11895,1.1575 7.62878,3.46988 8.47256,3.2752 -0.037,5.26927 -1.10717,15.45002 -0.87061,17.7887 0,0 5.47341,1.31534 14.06621,1.4232 v 0.003 c 0.009,0 0.018,0 0.0268,0 0.008,0 0.0171,0 0.0254,0 v -0.003 c 8.59305,-0.10786 14.06692,-1.4232 14.06692,-1.4232 0.23632,-2.33868 -0.86159,-12.09063 -0.89859,-17.35989 1.72619,0.39722 6.10307,-1.50475 8.74774,-2.43076 -0.91547,-9.95188 -12.31112,-14.46088 -14.01327,-14.46351"
       style="fill:#8a4a37;fill-opacity:1;fill-rule:nonzero;stroke:none;stroke-width:0.03527778"
       id="path14918"
       inkscape:connector-curvature="0" />
    <path
       d="m 217.16612,164.04619 c 0,0 6.44645,-0.9076 9.55083,-3.98023 -0.3161,-1.23643 -0.88171,-2.73329 -0.88171,-2.73329 0,0 -4.8893,2.78064 -9.61003,3.61719 0.50873,1.83359 0.94091,3.09633 0.94091,3.09633"
       style="fill:#6b2b24;fill-opacity:1;fill-rule:nonzero;stroke:none;stroke-width:0.03527778"
       id="path14920"
       inkscape:connector-curvature="0" />
    <path
       d="m 210.91205,144.5186 c 0.7136,1.35217 -0.71383,6.22421 -7.01808,6.62933 3.50881,5.61651 16.71251,4.94043 12.01399,-5.54812 -2.55727,-0.40512 -4.99591,-1.08121 -4.99591,-1.08121"
       style="fill:#6b2b24;fill-opacity:1;fill-rule:nonzero;stroke:none;stroke-width:0.03527778"
       id="path14922"
       inkscape:connector-curvature="0" />
    <path
       d="m 197.17928,144.5186 c -0.71314,1.35217 0.7143,6.22421 7.01877,6.62933 -3.5095,5.61651 -16.71251,4.94043 -12.01421,-5.54812 2.55749,-0.40512 4.99544,-1.08121 4.99544,-1.08121"
       style="fill:#6b2b24;fill-opacity:1;fill-rule:nonzero;stroke:none;stroke-width:0.03527778"
       id="path14924"
       inkscape:connector-curvature="0" />
    <path
       d="m 203.93999,178.05721 c -0.0307,-0.008 -7.56796,-0.021 -14.17051,-1.61787 0.0504,12.49314 -0.98646,30.79481 -0.56861,46.1475 1.55623,2.13611 3.29607,1.24168 9.54273,1.6205 2.0268,-9.39943 4.37781,-22.49762 5.19639,-27.98523 0.81812,5.48761 3.16935,18.5858 5.19592,27.98523 6.24644,-0.37882 7.98697,0.51561 9.54274,-1.6205 0.41854,-15.35269 -0.61949,-33.65436 -0.56815,-46.1475 -6.60347,1.59683 -14.14068,1.60999 -14.17051,1.61787"
       style="fill:#4b903a;fill-opacity:1;fill-rule:nonzero;stroke:none;stroke-width:0.03527778"
       id="path14926"
       inkscape:connector-curvature="0" />
    <path
       d="m 203.93999,182.9424 c 0.0299,-0.008 7.45465,-0.021 14.14299,-1.57315 0.0118,-1.72047 0.0215,-4.5616 0.0276,-6.11897 -8.48644,2.94636 -21.73847,1.59682 -28.34102,0 0.006,1.55737 0.0152,4.3985 0.027,6.11897 6.68811,1.5521 14.1127,1.56526 14.14346,1.57315"
       style="fill:#335b2a;fill-opacity:1;fill-rule:nonzero;stroke:none;stroke-width:0.03527778"
       id="path14928"
       inkscape:connector-curvature="0" />
    <path
       d="m 194.25643,184.13674 c 0,0 -1.41657,3.9355 -3.91925,5.82696 0.41068,0.94705 1.24035,2.5202 1.24035,2.5202 0,0 4.77716,-3.71978 5.43665,-7.7158 -1.66631,-0.005 -2.75775,-0.63136 -2.75775,-0.63136"
       style="fill:#335b2a;fill-opacity:1;fill-rule:nonzero;stroke:none;stroke-width:0.03527778"
       id="path14930"
       inkscape:connector-curvature="0" />
    <path
       d="m 213.79721,184.13674 c 0,0 1.41726,3.9355 3.92041,5.82696 -0.40952,0.94705 -1.24105,2.5202 -1.24105,2.5202 0,0 -4.77669,-3.71978 -5.43595,-7.7158 1.6663,-0.005 2.75659,-0.63136 2.75659,-0.63136"
       style="fill:#335b2a;fill-opacity:1;fill-rule:nonzero;stroke:none;stroke-width:0.03527778"
       id="path14932"
       inkscape:connector-curvature="0" />
    <path
       d="m 199.88361,219.9772 c 0,0 -6.12365,1.16802 -10.84114,-1.21012 -0.16973,2.4176 -0.21181,5.94799 -0.0821,6.41099 0,0 6.4534,2.23609 9.92728,0.58401 0.40028,-1.33639 0.65487,-3.75662 0.99595,-5.78488"
       style="fill:#335b2a;fill-opacity:1;fill-rule:nonzero;stroke:none;stroke-width:0.03527778"
       id="path14934"
       inkscape:connector-curvature="0" />
    <path
       d="m 208.00817,219.9772 c 0,0 6.12295,1.16802 10.84021,-1.21012 0.16973,2.4176 0.21182,5.94799 0.0817,6.41099 0,0 -6.45294,2.23609 -9.92752,0.58401 -0.39935,-1.33639 -0.65464,-3.75662 -0.99433,-5.78488"
       style="fill:#335b2a;fill-opacity:1;fill-rule:nonzero;stroke:none;stroke-width:0.03527778"
       id="path14936"
       inkscape:connector-curvature="0" />
    <path
       d="m 205.50131,180.65371 c -0.10822,0.99439 -0.90437,1.70205 -1.77984,1.57841 v 0 c -0.87431,-0.12365 -1.49518,-1.03123 -1.38789,-2.023 v 0 c 0.10845,-0.99702 0.90553,-1.70469 1.78007,-1.58104 v 0 c 0.87431,0.12365 1.49611,1.02859 1.38766,2.02563 v 0"
       style="fill:#4b903a;fill-opacity:1;fill-rule:nonzero;stroke:none;stroke-width:0.03527778"
       id="path14938"
       inkscape:connector-curvature="0" />
    <path
       d="m 205.82643,156.6145 c -0.10845,0.9944 -0.9046,1.70205 -1.78007,1.57841 v 0 c -0.87431,-0.12102 -1.49542,-1.0286 -1.38743,-2.023 v 0 c 0.10799,-0.9944 0.90507,-1.70206 1.77961,-1.57841 v 0 c 0.87455,0.12364 1.49611,1.0286 1.38789,2.023 v 0"
       style="fill:#6b2b24;fill-opacity:1;fill-rule:nonzero;stroke:none;stroke-width:0.03527778"
       id="path14940"
       inkscape:connector-curvature="0" />
    <path
       d="m 205.82643,162.28625 c -0.10845,0.9944 -0.9046,1.70207 -1.78007,1.57841 v 0 c -0.87431,-0.12363 -1.49542,-1.02859 -1.38743,-2.02299 v 0 c 0.10799,-0.99703 0.90507,-1.70205 1.77961,-1.58104 v 0 c 0.87455,0.12364 1.49611,1.0286 1.38789,2.02562 v 0"
       style="fill:#6b2b24;fill-opacity:1;fill-rule:nonzero;stroke:none;stroke-width:0.03527778"
       id="path14942"
       inkscape:connector-curvature="0" />
    <path
       d="m 190.78577,164.04619 c 0,0 -6.44622,-0.9076 -9.55105,-3.98023 0.31656,-1.23643 0.88193,-2.73329 0.88193,-2.73329 0,0 4.8893,2.78064 9.61003,3.61719 -0.50872,1.83359 -0.94091,3.09633 -0.94091,3.09633"
       style="fill:#6b2b24;fill-opacity:1;fill-rule:nonzero;stroke:none;stroke-width:0.03527778"
       id="path14944"
       inkscape:connector-curvature="0" />
    <path
       d="m 178.51189,84.723103 c -4.91058,-0.381449 -13.1674,0.978616 -13.40511,4.769436 -0.23656,3.790816 18.61744,10.622711 18.61744,10.622711 l -5.21233,-15.392147"
       style="fill:#f9a71f;fill-opacity:1;fill-rule:nonzero;stroke:none;stroke-width:0.03527778"
       id="path14946"
       inkscape:connector-curvature="0" />
    <path
       d="m 232.85725,122.54448 c 7.26018,2.14402 12.5967,-7.01078 8.51928,-9.97819 7.63641,-7.67897 -1.06393,-12.48261 -4.84237,-13.795325 3.90493,-4.009168 8.40182,-7.07917 1.87466,-13.740072 -4.1135,-4.201205 -9.51684,4.282762 -9.51684,4.282762 0,0 -0.40513,-16.031404 -7.38436,-17.333594 -4.28739,-0.80236 -10.6721,6.234726 -10.42861,7.700016 -9.95411,-18.138051 -18.83598,-11.914375 -15.32809,-2.017734 -9.68356,-4.919383 -16.99508,3.83554 -11.06336,7.318568 -9.43776,-3.014766 -10.94358,5.924303 -7.72174,9.181091 -3.45308,-0.184142 -7.35892,9.867708 3.17838,13.866358 9.39173,3.56458 52.71305,14.51612 52.71305,14.51612"
       style="fill:#3b2624;fill-opacity:1;fill-rule:nonzero;stroke:none;stroke-width:0.03527778"
       id="path14948"
       inkscape:connector-curvature="0" />
    <path
       d="m 232.93425,121.42381 c -3.71068,17.27309 -18.02709,25.47556 -32.64621,21.41115 -14.61864,-4.06177 -23.99743,-18.85413 -20.28675,-36.1272 3.70975,-17.270463 18.4313,-27.356516 33.05087,-23.292107 14.61865,4.06441 23.59208,20.737697 19.88209,38.008157"
       style="fill:#fabd99;fill-opacity:1;fill-rule:nonzero;stroke:none;stroke-width:0.03527778"
       id="path14950"
       inkscape:connector-curvature="0" />
    <path
       d="m 231.84974,121.26071 c 0,0 1.10972,-3.40936 4.96168,-2.98583 4.0617,0.45248 4.51539,6.75297 1.71995,9.75985 -2.79474,3.00161 -7.21763,1.97828 -8.06582,-1.12068 l 1.38419,-5.65334"
       style="fill:#fabd99;fill-opacity:1;fill-rule:nonzero;stroke:none;stroke-width:0.03527778"
       id="path14952"
       inkscape:connector-curvature="0" />
    <path
       d="m 237.29378,120.0085 c -2.48858,-1.12593 -5.5104,3.55143 -2.49667,7.05814 -0.81836,-3.99864 0.76007,-4.93254 2.29896,-2.75434 0.19402,-1.19695 -0.31355,-2.09929 -1.89337,-2.33605 0.40606,-1.5442 2.09108,-1.96775 2.09108,-1.96775"
       style="fill:#d37658;fill-opacity:1;fill-rule:nonzero;stroke:none;stroke-width:0.03527778"
       id="path14954"
       inkscape:connector-curvature="0" />
    <path
       d="m 180.86173,107.09973 c 0,0 0.39796,-3.60669 -3.19179,-5.25349 -3.78698,-1.73099 -6.74382,3.62246 -5.48381,7.7579 1.26372,4.12755 5.60267,5.54023 7.61121,3.23575 l 1.06439,-5.74016"
       style="fill:#fabd99;fill-opacity:1;fill-rule:nonzero;stroke:none;stroke-width:0.03527778"
       id="path14956"
       inkscape:connector-curvature="0" />
    <path
       d="m 176.54011,103.13001 c 2.6641,0.30779 3.44823,6.04533 -0.64723,7.57376 2.34707,-3.11737 1.32545,-4.77733 -0.92148,-3.64876 0.31171,-1.1654 1.12774,-1.69943 2.62501,-1.08122 0.26593,-1.58368 -1.0563,-2.84378 -1.0563,-2.84378"
       style="fill:#d37658;fill-opacity:1;fill-rule:nonzero;stroke:none;stroke-width:0.03527778"
       id="path14958"
       inkscape:connector-curvature="0" />
    <path
       d="m 208.23084,113.09507 c -0.64584,1.73624 -5.21533,2.67277 -4.16043,5.29293 0.65348,1.62313 2.89372,1.88094 3.48176,-0.86023 0.3406,-1.5863 0.67867,-4.4327 0.67867,-4.4327"
       style="fill:#f35d51;fill-opacity:1;fill-rule:nonzero;stroke:none;stroke-width:0.03527778"
       id="path14960"
       inkscape:connector-curvature="0" />
    <path
       d="m 230.80594,105.30034 c -2.26405,0.64451 -5.69771,-0.092 -11.32744,-9.254759 2.31701,6.900289 -7.25949,8.802279 -20.55892,-4.819423 -4.09014,3.493556 -8.41499,4.280128 -10.56482,1.262734 -3.688,-5.171932 11.10268,-16.89953 28.0603,-9.896645 13.43031,5.545487 19.18375,21.345383 14.39088,22.708093"
       style="fill:#3b2624;fill-opacity:1;fill-rule:nonzero;stroke:none;stroke-width:0.03527778"
       id="path14962"
       inkscape:connector-curvature="0" />
    <path
       d="m 196.71727,99.910056 c -0.13227,-3.185763 -5.10482,-4.216995 -7.79342,0.444584 2.75288,-2.091395 7.79342,-0.444584 7.79342,-0.444584"
       style="fill:#3b2624;fill-opacity:1;fill-rule:nonzero;stroke:none;stroke-width:0.03527778"
       id="path14964"
       inkscape:connector-curvature="0" />
    <path
       d="m 220.85552,106.61568 c 1.40871,-2.75697 6.23858,-1.06806 6.7362,4.48006 -1.59554,-3.29888 -6.7362,-4.48006 -6.7362,-4.48006"
       style="fill:#3b2624;fill-opacity:1;fill-rule:nonzero;stroke:none;stroke-width:0.03527778"
       id="path14966"
       inkscape:connector-curvature="0" />
    <path
       d="m 217.29677,127.22974 c -0.38131,1.77571 1.67324,3.87236 4.58892,4.68261 2.91592,0.81026 5.58811,0.0263 5.96942,-1.7494 0.38154,-1.77571 -1.67301,-3.87237 -4.5887,-4.68262 -2.91568,-0.81025 -5.5881,-0.0263 -5.96964,1.74941"
       style="fill:#f35d51;fill-opacity:1;fill-rule:nonzero;stroke:none;stroke-width:0.03527778"
       id="path14968"
       inkscape:connector-curvature="0" />
    <path
       d="m 180.93758,117.13053 c -0.38062,1.77571 1.67346,3.87237 4.58961,4.68262 2.91568,0.81025 5.5881,0.0263 5.96918,-1.7494 0.38131,-1.77572 -1.67323,-3.87237 -4.58892,-4.68262 -2.91591,-0.81026 -5.5881,-0.0289 -5.96987,1.7494"
       style="fill:#f35d51;fill-opacity:1;fill-rule:nonzero;stroke:none;stroke-width:0.03527778"
       id="path14970"
       inkscape:connector-curvature="0" />
    <path
       d="m 219.8501,115.36271 c -3.35966,-0.77605 -5.6251,3.34361 -5.58879,3.13841 0.54733,-3.06212 3.15825,-5.05092 5.8205,-4.43533 2.66154,0.6182 4.38196,3.6093 3.83415,6.66878 -0.0367,0.20519 -0.47173,-4.53793 -4.06586,-5.37186"
       style="fill:#6d3a2c;fill-opacity:1;fill-rule:nonzero;stroke:none;stroke-width:0.03527778"
       id="path14972"
       inkscape:connector-curvature="0" />
    <path
       d="m 194.09687,108.20987 c -3.35873,-0.77604 -5.6251,3.34361 -5.58856,3.13578 0.54803,-3.05948 3.15894,-5.04828 5.82119,-4.4327 2.66109,0.61558 4.38173,3.60667 3.83393,6.66878 -0.037,0.2052 -0.47242,-4.53792 -4.06656,-5.37186"
       style="fill:#6d3a2c;fill-opacity:1;fill-rule:nonzero;stroke:none;stroke-width:0.03527778"
       id="path14974"
       inkscape:connector-curvature="0" />
    <path
       d="m 202.90381,132.39641 c -5.9412,-1.46792 -10.3005,-7.09497 -10.36502,-13.37704 -0.003,-0.18415 0.12695,-0.33674 0.28951,-0.33936 0.16118,0 0.29483,0.14732 0.29575,0.33147 0.0615,5.97429 4.22704,11.33035 9.9044,12.73514 5.43456,1.34428 10.93155,-1.22853 13.36579,-6.25313 0.0781,-0.16311 0.25622,-0.22099 0.39843,-0.13154 0.14129,0.0894 0.19332,0.292 0.1147,0.45248 -2.55888,5.28241 -8.31741,7.98938 -14.00356,6.58198"
       style="fill:#ce6748;fill-opacity:1;fill-rule:nonzero;stroke:none;stroke-width:0.03527778"
       id="path14976"
       inkscape:connector-curvature="0" />
    <path
       d="m 222.35672,62.907878 c -0.94206,-3.788452 -4.86849,-6.741134 -7.5342,-2.629897 3.36845,1.453717 7.5342,2.629897 7.5342,2.629897"
       style="fill:#f9a71f;fill-opacity:1;fill-rule:nonzero;stroke:none;stroke-width:0.03527778"
       id="path14978"
       inkscape:connector-curvature="0" />
    <path
       d="m 204.52711,86.722426 c 2.88145,2.009841 8.58749,4.324848 15.94271,5.040394 4.97023,0.484045 4.10772,-6.292601 1.45472,-6.750341 -7.65167,-1.317973 -11.8165,-3.306772 -15.09176,-4.595807 -2.54963,-1.004924 -5.18945,4.295909 -2.30567,6.305754 z M 194.02242,60.336644 c 5.83251,-2.131118 15.93971,-1.616819 25.24427,1.009658 9.16467,2.587543 17.80672,8.324016 21.60366,14.01419 5.93218,8.883827 3.42603,22.045147 2.35077,27.819498 -16.60684,-5.995327 -47.19872,-16.639082 -65.02534,-18.35692 2.87499,-8.918026 6.49455,-21.075215 15.82664,-24.486426"
       style="fill:#fbc513;fill-opacity:1;fill-rule:nonzero;stroke:none;stroke-width:0.03527778"
       id="path14980"
       inkscape:connector-curvature="0" />
    <path
       d="m 228.02946,66.931775 c 4.47122,1.925662 13.17596,7.610574 13.60097,16.389173 -2.2407,-3.967074 -10.843,-9.039038 -16.68037,-11.830195 -5.83737,-2.793788 -7.81331,-9.253438 3.0794,-4.558978"
       style="fill:#fbe26c;fill-opacity:1;fill-rule:nonzero;stroke:none;stroke-width:0.03527778"
       id="path14982"
       inkscape:connector-curvature="0" />
    <path
       d="m 181.84125,166.29015 c 3.48453,0.84446 5.15037,0.23941 5.78304,-3.04896 -8.07207,-3.46198 -14.11663,-7.85785 -15.75287,-9.45731 -1.02416,-1.0023 -0.6877,-3.04107 -0.0857,-3.93814 0.25066,-0.37093 0.87222,-1.73362 0.56791,-1.99143 -0.69302,-0.58138 -1.94702,0.55771 -2.82179,2.04142 0.48351,-0.9602 0.95547,-2.90691 0.50248,-3.13842 -1.14486,-0.58138 -2.16902,1.68101 -3.0424,3.35939 -0.30108,-1.13119 1.11434,-3.39359 0.0604,-3.90657 -0.80701,-0.3946 -1.86748,0.72081 -2.19884,4.11176 -0.33136,-0.54718 0.0904,-3.42515 -1.08426,-3.45935 -0.46989,-0.0158 -0.96381,1.19696 -0.96381,2.67277 0,3.26469 1.20914,5.30874 3.58419,6.75035 2.37481,1.44162 12.08567,9.18899 15.45179,10.00449"
       style="fill:#fabd99;fill-opacity:1;fill-rule:nonzero;stroke:none;stroke-width:0.03527778"
       id="path14994"
       inkscape:connector-curvature="0" />
    <g
       id="g15494"
       transform="matrix(0.04185881,0,0,-0.04573203,-637.59696,274.4395)"
       style="stroke-width:1.40785086">
      <path
         d="m 16185.6,2503.99 c 0,0 -127.4,-207.96 -87.4,-505.66 -26.2,-28.92 -25.9,-79.89 -2.5,-134.59 4.5,-43.87 15,-72.96 31.6,-67.75 17,5.39 8,53.67 7.5,65.98 1.1,-1.78 18.5,-59.68 23.2,-72.16 11,-29.04 40.1,-22.17 35.2,4.52 -4.3,22.34 -17.3,72.97 -17.8,75.66 1.4,-2.29 28,-59.45 32.7,-69.99 14.1,-31.33 50.8,-20.22 35.5,15.98 -10.4,24.63 -30.3,67.12 -30.9,71.24 1.9,-0.8 24.2,-28.57 38.6,-44.09 23.7,-25.49 48.7,-8.65 27,24.57 -17.2,26.28 -51.6,94.78 -51.6,94.78 0,0 47.6,-8.59 49.9,19.82 2.4,28.58 -87.7,34.36 -87.7,34.36 0,0 -12.3,270.04 85.1,418.32 -39.9,25.82 -88.4,69.01 -88.4,69.01"
         style="fill:#fabd99;fill-opacity:1;fill-rule:nonzero;stroke:none;stroke-width:1.40785086"
         id="path15496"
         inkscape:connector-curvature="0" />
    </g>
    <g
       id="g15498"
       transform="matrix(0.04356716,0,0,-0.04759845,-637.59696,274.4395)"
       style="stroke-width:1.40785086">
      <path
         d="m 16291.7,1138.6 c 0,0 3.8,-149.559 8.3,-230.888 -53.8,-13.813 -87.5,-3.633 -87.5,-3.633 l -27.7,247.231 106.9,-12.71"
         style="fill:#fabd99;fill-opacity:1;fill-rule:nonzero;stroke:none;stroke-width:1.40785086"
         id="path15500"
         inkscape:connector-curvature="0" />
    </g>
    <g
       id="g15502"
       transform="matrix(0.04408642,0,0,-0.04816576,-637.59696,274.4395)"
       style="stroke-width:1.40785086">
      <path
         d="m 16005.2,856.724 c -10.4,-23.164 -13.6,-64.654 40.2,-110.659 53.7,-46.058 107.1,-84.938 188,-56.825 66.6,23.058 38.6,101.362 38.6,101.362 l -266.8,66.122"
         style="fill:#d4edf2;fill-opacity:1;fill-rule:nonzero;stroke:none;stroke-width:1.40785086"
         id="path15504"
         inkscape:connector-curvature="0" />
    </g>
    <g
       id="g15506"
       transform="matrix(0.04410248,0,0,-0.0481833,-637.59696,274.4395)"
       style="stroke-width:1.40785086">
      <path
         d="m 16008.2,953.007 c -13,-20.873 -26.8,-101.975 13.8,-137.688 40.5,-35.66 126,-107.249 205.5,-77.895 72.5,26.743 30.8,90.179 -9.6,115.999 -40.4,25.82 -117.3,97.573 -117.3,97.573 0,0 -11,-44.682 -92.4,2.011"
         style="fill:#00abbc;fill-opacity:1;fill-rule:nonzero;stroke:none;stroke-width:1.40785086"
         id="path15508"
         inkscape:connector-curvature="0" />
    </g>
    <g
       id="g15510"
       transform="matrix(0.04384741,0,0,-0.04790463,-637.59696,274.4395)"
       style="stroke-width:1.40785086">
      <path
         d="m 16239.1,919.134 c -30.4,9.13 -72.8,-5.523 -87.7,-26.737 -14.6,-21.268 3.1,-38.161 15.7,-37.123 12.8,0.984 49.7,18.48 91.3,23.619 41.6,5.029 5,33.078 -19.3,40.241"
         style="fill:#d4edf2;fill-opacity:1;fill-rule:nonzero;stroke:none;stroke-width:1.40785086"
         id="path15512"
         inkscape:connector-curvature="0" />
    </g>
    <g
       id="g15514"
       transform="matrix(0.04244377,0,0,-0.0463711,-637.59696,274.4395)"
       style="stroke-width:1.40785086">
      <path
         d="m 16190.3,1168.74 c 0,0 -3.9,-153.52 -8.5,-237.004 55.2,-14.178 89.9,-3.729 89.9,-3.729 l 28.3,253.773 -109.7,-13.04"
         style="fill:#fabd99;fill-opacity:1;fill-rule:nonzero;stroke:none;stroke-width:1.40785086"
         id="path15516"
         inkscape:connector-curvature="0" />
    </g>
    <g
       id="g15518"
       transform="matrix(0.04244208,0,0,-0.04636927,-637.59696,274.4395)"
       style="stroke-width:1.40785086">
      <path
         d="m 16289.2,889.916 c 10.8,-24.062 10.6,-70.606 -45.3,-118.448 -55.8,-47.787 -119.7,-80.603 -204,-52.079 -71,24.006 -27.9,101.843 -27.9,101.843 l 277.2,68.684"
         style="fill:#d4edf2;fill-opacity:1;fill-rule:nonzero;stroke:none;stroke-width:1.40785086"
         id="path15520"
         inkscape:connector-curvature="0" />
    </g>
    <g
       id="g15522"
       transform="matrix(0.04246271,0,0,-0.04639179,-637.59696,274.4395)"
       style="stroke-width:1.40785086">
      <path
         d="m 16272.2,989.808 c 13.5,-21.678 27.8,-105.912 -14.4,-143.004 -42,-37.037 -117.2,-104.334 -218.7,-76.557 -79.6,21.793 -26.6,89.315 15.3,116.132 41.8,26.817 121.8,101.341 121.8,101.341 0,0 11.3,-46.408 96,2.088"
         style="fill:#00abbc;fill-opacity:1;fill-rule:nonzero;stroke:none;stroke-width:1.40785086"
         id="path15524"
         inkscape:connector-curvature="0" />
    </g>
    <g
       id="g15526"
       transform="matrix(0.04229489,0,0,-0.04620846,-637.59696,274.4395)"
       style="stroke-width:1.40785086">
      <path
         d="m 16193.9,952.873 c 31.6,9.465 75.5,-5.726 90.9,-27.719 15.2,-22.048 -3.1,-39.562 -16.3,-38.486 -13.2,1.021 -51.4,19.159 -94.6,24.486 -43.1,5.215 -5.2,34.293 20,41.719"
         style="fill:#d4edf2;fill-opacity:1;fill-rule:nonzero;stroke:none;stroke-width:1.40785086"
         id="path15528"
         inkscape:connector-curvature="0" />
    </g>
    <g
       id="g15530"
       transform="matrix(0.04381048,0,0,-0.04786429,-637.59696,274.4395)"
       style="stroke-width:1.40785086">
      <path
         d="m 15941.4,2027.17 c 0.7,0.17 179,0.44 335.3,33.66 -1.2,-259.87 23.3,-640.56 13.5,-959.91 -36.9,-44.43 -78.1,-25.83 -225.9,-33.71 -48,195.52 -103.6,467.97 -122.9,582.12 -19.4,-114.15 -75.1,-386.6 -123,-582.12 -147.8,7.88 -189,-10.72 -225.8,33.71 -9.9,319.35 14.6,700.04 13.4,959.91 156.3,-33.22 334.7,-33.49 335.4,-33.66"
         style="fill:#5c5d61;fill-opacity:1;fill-rule:nonzero;stroke:none;stroke-width:1.40785086"
         id="path15532"
         inkscape:connector-curvature="0" />
    </g>
    <g
       id="g15534"
       transform="matrix(0.04371172,0,0,-0.04775639,-637.59696,274.4395)"
       style="stroke-width:1.40785086">
      <path
         d="m 16207,1905.01 c 0,0 33.7,-82.05 93,-121.48 -9.7,-19.74 -29.4,-52.54 -29.4,-52.54 0,0 -113.3,77.55 -128.9,160.86 39.5,0.11 65.3,13.16 65.3,13.16"
         style="fill:#383839;fill-opacity:1;fill-rule:nonzero;stroke:none;stroke-width:1.40785086"
         id="path15536"
         inkscape:connector-curvature="0" />
    </g>
    <g
       id="g15538"
       transform="matrix(0.04239486,0,0,-0.04631768,-637.59696,274.4395)"
       style="stroke-width:1.40785086">
      <path
         d="m 16232.6,1964.18 c 0,0 -34.7,-84.59 -95.9,-125.25 10.1,-20.36 30.4,-54.18 30.4,-54.18 0,0 116.8,79.96 132.9,165.86 -40.8,0.11 -67.4,13.57 -67.4,13.57"
         style="fill:#383839;fill-opacity:1;fill-rule:nonzero;stroke:none;stroke-width:1.40785086"
         id="path15540"
         inkscape:connector-curvature="0" />
    </g>
    <g
       id="g15542"
       transform="matrix(0.04380761,0,0,-0.04786115,-637.59696,274.4395)"
       style="stroke-width:1.40785086">
      <path
         d="m 16038.4,1155.28 c 0,0 144.9,-24.3 256.6,25.17 4,-50.29 5,-123.73 1.9,-133.36 0,0 -152.7,-46.52 -234.9,-12.15 -9.5,27.8 -15.5,78.15 -23.6,120.34"
         style="fill:#383839;fill-opacity:1;fill-rule:nonzero;stroke:none;stroke-width:1.40785086"
         id="path15544"
         inkscape:connector-curvature="0" />
    </g>
    <g
       id="g15546"
       transform="matrix(0.04258784,0,0,-0.04652852,-637.59696,274.4395)"
       style="stroke-width:1.40785086">
      <path
         d="m 16300,1188.37 c 0,0 -149,-24.99 -263.8,25.9 -4.2,-51.74 -5.2,-127.28 -2.1,-137.19 0,0 157.1,-47.85 241.8,-12.49 9.6,28.59 15.8,80.38 24.1,123.78"
         style="fill:#383839;fill-opacity:1;fill-rule:nonzero;stroke:none;stroke-width:1.40785086"
         id="path15548"
         inkscape:connector-curvature="0" />
    </g>
    <g
       id="g15550"
       transform="matrix(0.04329746,0,0,-0.0473038,-637.59696,274.4395)"
       style="stroke-width:1.40785086">
      <path
         d="m 15968.3,2748.18 125,10.74 v 92.3 h 75 v -92.46 l 122.8,-10.58 c 8.9,-168.6 -150.6,-177.4 -161.1,-177.79 v -0.05 c 0,0 -0.1,0 -0.3,0.05 -0.2,-0.05 -0.3,-0.05 -0.3,-0.05 v 0.05 c -10.5,0.39 -170,9.19 -161.1,177.79"
         style="fill:#fabd99;fill-opacity:1;fill-rule:nonzero;stroke:none;stroke-width:1.40785086"
         id="path15552"
         inkscape:connector-curvature="0" />
    </g>
    <g
       id="g15554"
       transform="matrix(0.04293067,0,0,-0.04690306,-637.59696,274.4395)"
       style="stroke-width:1.40785086">
      <path
         d="m 16267.5,2784.38 c -13.7,0 -25.7,-5.69 -32.5,-14.12 v 38.97 h 65 v -38.97 c -6.8,8.43 -18.8,14.12 -32.5,14.12"
         style="fill:#efa378;fill-opacity:1;fill-rule:nonzero;stroke:none;stroke-width:1.40785086"
         id="path15556"
         inkscape:connector-curvature="0" />
    </g>
    <g
       id="g15558"
       transform="matrix(0.04422762,0,0,-0.04832002,-637.59696,274.4395)"
       style="stroke-width:1.40785086">
      <path
         d="m 15605.6,2689.03 c 0.9,-140.17 92.9,-192.1 185.3,-179.04 v 0.17 c 0.2,0 0.3,-0.06 0.6,-0.06 0.2,0 0.4,0.06 0.5,0.06 v -0.17 c 92.4,-13.06 184.4,38.87 185.3,179.04 39.9,-0.05 265.5,-69.11 322.7,-271.78 -26.2,-23.85 -178.8,-71.55 -198.6,-67.48 0.9,-108.63 39.9,-391.36 34.2,-486.44 -245.2,-87.48 -661.6,-34.2 -693.9,5.7 7.6,131.22 39.6,363.33 40.5,471.9 -40.5,-8.18 -143.1,31 -205.1,50.09 21.5,205.05 288.6,297.96 328.5,298.01"
         style="fill:#3bbec7;fill-opacity:1;fill-rule:nonzero;stroke:none;stroke-width:1.40785086"
         id="path15560"
         inkscape:connector-curvature="0" />
    </g>
    <g
       id="g15562"
       transform="matrix(0.04373425,0,0,-0.047781,-637.59696,274.4395)"
       style="stroke-width:1.40785086">
      <path
         d="m 16295.5,2170.54 c -229.4,-27.3 -595.6,-10.2 -651.9,-7.35 -1.4,-17.87 -2.9,-35.24 -4.2,-51.63 227.8,-33.99 600.6,-4.94 660.6,0.11 -1.3,18.58 -2.9,38.42 -4.5,58.87"
         style="fill:#d4edf2;fill-opacity:1;fill-rule:nonzero;stroke:none;stroke-width:1.40785086"
         id="path15564"
         inkscape:connector-curvature="0" />
    </g>
    <g
       id="g15566"
       transform="matrix(0.04371051,0,0,-0.04775507,-637.59696,274.4395)"
       style="stroke-width:1.40785086">
      <path
         d="m 15664.6,2340.92 c -1.2,-34.17 -4.1,-74.04 -7.3,-114.24 219.1,-30.61 562.5,-5.82 642.7,0.66 -3.2,42.44 -6.1,84.57 -7.5,120.22 -216.8,-23.92 -544.6,-10.59 -627.9,-6.64"
         style="fill:#d4edf2;fill-opacity:1;fill-rule:nonzero;stroke:none;stroke-width:1.40785086"
         id="path15568"
         inkscape:connector-curvature="0" />
    </g>
    <g
       id="g15570"
       transform="matrix(0.04206523,0,0,-0.04595755,-637.59696,274.4395)"
       style="stroke-width:1.40785086">
      <path
         d="m 16276.8,2414.81 c 0,0 -158.9,19.67 -235.4,86.23 7.8,26.79 21.7,59.22 21.7,59.22 0,0 120.5,-60.24 236.9,-78.37 -12.5,-39.72 -23.2,-67.08 -23.2,-67.08"
         style="fill:#087481;fill-opacity:1;fill-rule:nonzero;stroke:none;stroke-width:1.40785086"
         id="path15572"
         inkscape:connector-curvature="0" />
    </g>
    <g
       id="g15574"
       transform="matrix(0.04347605,0,0,-0.04749891,-637.59696,274.4395)"
       style="stroke-width:1.40785086">
      <path
         d="m 15832.6,2731.16 c 0,0 49.9,8.55 77.5,19.08 15,-86.13 52.2,-159.14 156.2,-161.24 104,2.1 141.1,75.11 156.2,161.24 27.6,-10.53 77.5,-19.08 77.5,-19.08 0,0 -16.4,-217.7 -231.8,-217.2 v 0 c -0.6,0 -1.3,0 -1.9,0 -0.7,0 -1.3,0 -2,0 v 0 c -215.3,-0.5 -231.7,217.2 -231.7,217.2"
         style="fill:#087481;fill-opacity:1;fill-rule:nonzero;stroke:none;stroke-width:1.40785086"
         id="path15576"
         inkscape:connector-curvature="0" />
    </g>
    <g
       id="g15578"
       transform="matrix(0.04429067,0,0,-0.0483889,-637.59696,274.4395)"
       style="stroke-width:1.40785086">
      <path
         d="m 16076.4,2293.47 c 0,0 150.9,18.68 223.6,81.9 -7.4,25.44 -20.7,56.24 -20.7,56.24 0,0 -114.4,-57.22 -224.9,-74.43 11.9,-37.73 22,-63.71 22,-63.71"
         style="fill:#087481;fill-opacity:1;fill-rule:nonzero;stroke:none;stroke-width:1.40785086"
         id="path15580"
         inkscape:connector-curvature="0" />
    </g>
    <g
       id="g15582"
       transform="matrix(0.04512278,0,0,-0.04929802,-637.59696,274.4395)"
       style="stroke-width:1.40785086">
      <path
         d="m 16021.9,3344.2 c 227.8,6 240,250.56 130.3,270.32 147.8,215.07 16.4,377.48 -91.3,367.44 47.3,64.34 37.5,217.83 -98.8,287.12 -126.3,64.26 -221.5,-17.34 -221.5,-17.34 0,0 3.8,145.93 -153.9,186.44 -155.5,39.99 -284.8,-34.71 -344.7,-131.79 -210.7,160.48 -547.2,0.78 -468.1,-202.29 -243.9,7.07 -302,-268.51 -171.5,-344.91 -224,-26.41 -204.8,-360.05 -20.1,-386.67 -74.9,-26.78 -48.8,-236.91 206.2,-219.21 227.3,15.72 1233.4,190.89 1233.4,190.89"
         style="fill:#f9a71f;fill-opacity:1;fill-rule:nonzero;stroke:none;stroke-width:1.40785086"
         id="path15584"
         inkscape:connector-curvature="0" />
    </g>
    <g
       id="g15586"
       transform="matrix(0.04448365,0,0,-0.04859975,-637.59696,274.4395)"
       style="stroke-width:1.40785086">
      <path
         d="m 16245,3414.19 c 55,-360.65 -189.8,-643.69 -537.1,-696.67 -347.2,-52.98 -665.3,144.16 -720.3,504.86 -55,360.65 183.8,682.93 531.1,735.9 347.3,52.98 671.3,-183.5 726.3,-544.09"
         style="fill:#fabd99;fill-opacity:1;fill-rule:nonzero;stroke:none;stroke-width:1.40785086"
         id="path15588"
         inkscape:connector-curvature="0" />
    </g>
    <g
       id="g15590"
       transform="matrix(0.04490487,0,0,-0.04905993,-637.59696,274.4395)"
       style="stroke-width:1.40785086">
      <path
         d="m 16068.2,3375.66 c 0,0 -2.7,73.89 83,99.83 90.3,27.33 148.8,-87.07 112.3,-168.22 -36.5,-81.04 -138.9,-100.8 -181.1,-50.03 l -14.2,118.42"
         style="fill:#fabd99;fill-opacity:1;fill-rule:nonzero;stroke:none;stroke-width:1.40785086"
         id="path15592"
         inkscape:connector-curvature="0" />
    </g>
    <g
       id="g15594"
       transform="matrix(0.04464044,0,0,-0.04877104,-637.59696,274.4395)"
       style="stroke-width:1.40785086">
      <path
         d="m 16270.7,3467.67 c -62.3,-0.86 -90.8,-116.05 1.3,-155.63 -48.7,68.31 -22.1,99.99 28,72.5 -5.2,24.33 -23.1,36.84 -58.9,27.28 -3.3,32.87 29.6,55.85 29.6,55.85"
         style="fill:#d37658;fill-opacity:1;fill-rule:nonzero;stroke:none;stroke-width:1.40785086"
         id="path15596"
         inkscape:connector-curvature="0" />
    </g>
    <g
       id="g15598"
       transform="matrix(0.04102071,0,0,-0.04481637,-637.59696,274.4395)"
       style="stroke-width:1.40785086">
      <path
         d="m 16276.2,3494.64 c 0,0 -21.3,78.08 -119.2,77.26 -103.3,-0.93 -127.1,-139.61 -62.5,-212.43 64.6,-72.76 178,-59.96 205.5,6.84 l -23.8,128.33"
         style="fill:#fabd99;fill-opacity:1;fill-rule:nonzero;stroke:none;stroke-width:1.40785086"
         id="path15600"
         inkscape:connector-curvature="0" />
    </g>
    <g
       id="g15602"
       transform="matrix(0.04095382,0,0,-0.0447433,-637.59696,274.4395)"
       style="stroke-width:1.40785086">
      <path
         d="m 16167.9,3540.41 c 65,19.43 132.1,-91.2 49.2,-162.33 28.5,86.93 -9.6,111.22 -52.7,66.33 -2.6,26.98 12,45.89 52.4,47.59 -7.2,35.24 -48.9,48.41 -48.9,48.41"
         style="fill:#d37658;fill-opacity:1;fill-rule:nonzero;stroke:none;stroke-width:1.40785086"
         id="path15604"
         inkscape:connector-curvature="0" />
    </g>
    <g
       id="g15606"
       transform="matrix(0.04277939,0,0,-0.04673779,-637.59696,274.4395)"
       style="stroke-width:1.40785086">
      <path
         d="m 16270.1,3485.93 c -0.4,-40.18 -95.3,-100.98 -50.3,-142.9 27.9,-25.95 80.2,-10.31 71.1,49.2 -5.2,34.47 -20.8,93.7 -20.8,93.7"
         style="fill:#f35d51;fill-opacity:1;fill-rule:nonzero;stroke:none;stroke-width:1.40785086"
         id="path15608"
         inkscape:connector-curvature="0" />
    </g>
    <g
       id="g15610"
       transform="matrix(0.0440308,0,0,-0.04810499,-637.59696,274.4395)"
       style="stroke-width:1.40785086">
      <path
         d="m 16040.9,3185.83 c 5.7,-37.46 67.1,-59.18 137,-48.51 70,10.73 122.1,49.77 116.3,87.23 -5.6,37.45 -67,59.18 -137,48.45 -70,-10.67 -122,-49.65 -116.3,-87.17"
         style="fill:#f35d51;fill-opacity:1;fill-rule:nonzero;stroke:none;stroke-width:1.40785086"
         id="path15612"
         inkscape:connector-curvature="0" />
    </g>
    <g
       id="g15614"
       transform="matrix(0.04208704,0,0,-0.04598138,-637.59696,274.4395)"
       style="stroke-width:1.40785086">
      <path
         d="m 16028.9,3218.03 c 6,-39.19 70.2,-61.92 143.4,-50.75 73.2,11.16 127.7,52 121.7,91.19 -6,39.19 -70.2,61.92 -143.4,50.76 -73.1,-11.17 -127.7,-52.01 -121.7,-91.2"
         style="fill:#f35d51;fill-opacity:1;fill-rule:nonzero;stroke:none;stroke-width:1.40785086"
         id="path15616"
         inkscape:connector-curvature="0" />
    </g>
    <g
       id="g15618"
       transform="matrix(0.04333173,0,0,-0.04734124,-637.59696,274.4395)"
       style="stroke-width:1.40785086">
      <path
         d="m 15881.6,3160.06 c 45,41.22 72,-8.63 184.2,8.85 114.6,17.93 122.1,75.47 183.9,41.22 50.3,-27.99 42.1,-231.7 -146.1,-258.64 -189.6,-27 -264.9,169.4 -222,208.57"
         style="fill:#5b2429;fill-opacity:1;fill-rule:nonzero;stroke:none;stroke-width:1.40785086"
         id="path15620"
         inkscape:connector-curvature="0" />
    </g>
    <g
       id="g15622"
       transform="matrix(0.04313659,0,0,-0.04712805,-637.59696,274.4395)"
       style="stroke-width:1.40785086">
      <path
         d="m 16300,3026.41 c -27.5,-29.96 -67.6,-53.58 -123.6,-61.58 -52.5,-7.45 -96.2,2.11 -131.2,20.73 30.3,15.73 72.1,29.73 127.5,38.35 52.9,8.17 95,7.83 127.3,2.5"
         style="fill:#ee5b63;fill-opacity:1;fill-rule:nonzero;stroke:none;stroke-width:1.40785086"
         id="path15624"
         inkscape:connector-curvature="0" />
    </g>
    <g
       id="g15626"
       transform="matrix(0.04315697,0,0,-0.0471503,-637.59696,274.4395)"
       style="stroke-width:1.40785086">
      <path
         d="m 15962.9,3184.69 c 36.7,17.55 70,-18.28 168,-2.95 99.1,15.5 118.4,60.55 161.5,50.66 7.6,-53.94 -69.9,-106.48 -149.8,-117.93 -79.1,-11.27 -172.3,16.78 -179.7,70.22"
         style="fill:#ffffff;fill-opacity:1;fill-rule:nonzero;stroke:none;stroke-width:1.40785086"
         id="path15628"
         inkscape:connector-curvature="0" />
    </g>
    <g
       id="g15630"
       transform="matrix(0.04384668,0,0,-0.04790384,-637.59696,274.4395)"
       style="stroke-width:1.40785086">
      <path
         d="m 16063.1,3456.57 c -14.1,-65.17 24.5,-128.82 86,-142.1 61.5,-13.23 122.9,28.81 136.9,94.04 14,65.23 -24.5,128.81 -86,142.1 -61.6,13.23 -122.9,-28.87 -136.9,-94.04"
         style="fill:#ffffff;fill-opacity:1;fill-rule:nonzero;stroke:none;stroke-width:1.40785086"
         id="path15632"
         inkscape:connector-curvature="0" />
    </g>
    <g
       id="g15634"
       transform="matrix(0.04371746,0,0,-0.04776266,-637.59696,274.4395)"
       style="stroke-width:1.40785086">
      <path
         d="m 16153.5,3457.52 c -8.7,-40.3 15.1,-79.62 53.1,-87.84 38.1,-8.23 76,17.82 84.7,58.12 8.7,40.36 -15.1,79.68 -53.2,87.9 -38.1,8.18 -76,-17.87 -84.6,-58.18"
         style="fill:#231f20;fill-opacity:1;fill-rule:nonzero;stroke:none;stroke-width:1.40785086"
         id="path15636"
         inkscape:connector-curvature="0" />
    </g>
    <g
       id="g15638"
       transform="matrix(0.04364434,0,0,-0.04768278,-637.59696,274.4395)"
       style="stroke-width:1.40785086">
      <path
         d="m 16257.4,3470.18 c 2,-11.92 12.8,-20 24,-18.02 11.2,1.98 18.6,13.13 16.6,25.05 -2.1,11.86 -12.8,19.89 -24,18.07 -11.2,-2.03 -18.7,-13.24 -16.6,-25.1"
         style="fill:#ffffff;fill-opacity:1;fill-rule:nonzero;stroke:none;stroke-width:1.40785086"
         id="path15640"
         inkscape:connector-curvature="0" />
    </g>
    <g
       id="g15642"
       transform="matrix(0.04346191,0,0,-0.04748346,-637.59696,274.4395)"
       style="stroke-width:1.40785086">
      <path
         d="m 16273.4,3424.52 c 1.2,-7.45 8,-12.41 15,-11.25 7,1.21 11.6,8.22 10.3,15.66 -1.3,7.34 -8,12.41 -15,11.2 -7,-1.22 -11.6,-8.22 -10.3,-15.61"
         style="fill:#ffffff;fill-opacity:1;fill-rule:nonzero;stroke:none;stroke-width:1.40785086"
         id="path15644"
         inkscape:connector-curvature="0" />
    </g>
    <g
       id="g15646"
       transform="matrix(0.04381336,0,0,-0.04786743,-637.59696,274.4395)"
       style="stroke-width:1.40785086">
      <path
         d="m 16300,3504.56 c 0,0 -106.4,90.72 -218.6,-3.17 100.9,150.2 218.6,3.17 218.6,3.17"
         style="fill:#6d3a2c;fill-opacity:1;fill-rule:nonzero;stroke:none;stroke-width:1.40785086"
         id="path15648"
         inkscape:connector-curvature="0" />
    </g>
    <g
       id="g15650"
       transform="matrix(0.04206906,0,0,-0.04596173,-637.59696,274.4395)"
       style="stroke-width:1.40785086">
      <path
         d="m 16265.8,3529.9 c 34.2,-60.46 15.7,-135.73 -41.4,-168.1 -57.1,-32.31 -131.1,-9.52 -165.4,50.94 -34.3,60.58 -15.7,135.74 41.3,168.11 57.1,32.31 131.2,9.52 165.5,-50.95"
         style="fill:#ffffff;fill-opacity:1;fill-rule:nonzero;stroke:none;stroke-width:1.40785086"
         id="path15652"
         inkscape:connector-curvature="0" />
    </g>
    <g
       id="g15654"
       transform="matrix(0.04193289,0,0,-0.04581297,-637.59696,274.4395)"
       style="stroke-width:1.40785086">
      <path
         d="m 16278.8,3518.84 c 21.2,-37.38 9.8,-83.98 -25.6,-103.99 -35.3,-20.01 -81.1,-5.89 -102.3,31.5 -21.2,37.51 -9.7,83.99 25.6,104.05 35.3,19.96 81.1,5.89 102.3,-31.56"
         style="fill:#231f20;fill-opacity:1;fill-rule:nonzero;stroke:none;stroke-width:1.40785086"
         id="path15656"
         inkscape:connector-curvature="0" />
    </g>
    <g
       id="g15658"
       transform="matrix(0.04168093,0,0,-0.04553769,-637.59696,274.4395)"
       style="stroke-width:1.40785086">
      <path
         d="m 16298.3,3522.93 c 1.7,-12.54 -6.6,-23.93 -18.4,-25.54 -11.8,-1.55 -22.7,7.31 -24.4,19.85 -1.6,12.53 6.6,23.92 18.4,25.59 11.8,1.5 22.8,-7.42 24.4,-19.9"
         style="fill:#ffffff;fill-opacity:1;fill-rule:nonzero;stroke:none;stroke-width:1.40785086"
         id="path15660"
         inkscape:connector-curvature="0" />
    </g>
    <g
       id="g15662"
       transform="matrix(0.04186025,0,0,-0.04573361,-637.59696,274.4395)"
       style="stroke-width:1.40785086">
      <path
         d="m 16299,3464.37 c 1,-7.78 -4.1,-14.77 -11.4,-15.8 -7.3,-0.98 -14.1,4.58 -15.1,12.31 -0.9,7.67 4.1,14.78 11.4,15.75 7.3,0.97 14,-4.58 15.1,-12.26"
         style="fill:#ffffff;fill-opacity:1;fill-rule:nonzero;stroke:none;stroke-width:1.40785086"
         id="path15664"
         inkscape:connector-curvature="0" />
    </g>
    <g
       id="g15666"
       transform="matrix(0.04193145,0,0,-0.04581139,-637.59696,274.4395)"
       style="stroke-width:1.40785086">
      <path
         d="m 16081,3516.64 c 0,0 77.8,123.66 219,65.06 -147.5,118.29 -219,-65.06 -219,-65.06"
         style="fill:#6d3a2c;fill-opacity:1;fill-rule:nonzero;stroke:none;stroke-width:1.40785086"
         id="path15668"
         inkscape:connector-curvature="0" />
    </g>
    <g
       id="g15670"
       transform="matrix(0.04174159,0,0,-0.04560396,-637.59696,274.4395)"
       style="stroke-width:1.40785086">
      <path
         d="m 16300,3729.97 c -29.6,63.18 -152.6,36.87 -175.6,-82.87 45.9,68.4 175.6,82.87 175.6,82.87"
         style="fill:#f68712;fill-opacity:1;fill-rule:nonzero;stroke:none;stroke-width:1.40785086"
         id="path15672"
         inkscape:connector-curvature="0" />
    </g>
    <g
       id="g15674"
       transform="matrix(0.0437985,0,0,-0.04785119,-637.59696,274.4395)"
       style="stroke-width:1.40785086">
      <path
         d="m 16116.7,3643.74 c 9,65.9 128.3,76.96 183.3,-25.45 -61.2,49.15 -183.3,25.45 -183.3,25.45"
         style="fill:#f68712;fill-opacity:1;fill-rule:nonzero;stroke:none;stroke-width:1.40785086"
         id="path15676"
         inkscape:connector-curvature="0" />
    </g>
    <g
       id="g15678"
       transform="matrix(0.04432806,0,0,-0.04842976,-637.59696,274.4395)"
       style="stroke-width:1.40785086">
      <path
         d="m 15083.5,3642.4 c -0.2,129.2 205.2,360.45 556.1,375.49 239.7,10.33 435.4,-115.03 492.6,-212.11 109.9,36.56 167.8,-322.05 167.8,-322.05 -41.3,-29.21 -124.2,43.1 -77,118.98 -39.7,18.49 -82.7,58.4 -99.6,107.18 -45.3,-29.41 -126.7,-39.37 -311.9,79.29 91.5,-156.35 -274.1,-355.37 -483.1,-91.83 -12.5,-115.57 -126.1,-172.09 -200.9,-130.83 3.3,-55.75 -27.9,-112.65 -62.9,-144.61 67.7,-58.3 10.2,-152.08 -38,-136.56 0,0 -49.4,344.18 56.9,357.05"
         style="fill:#f9a71f;fill-opacity:1;fill-rule:nonzero;stroke:none;stroke-width:1.40785086"
         id="path15680"
         inkscape:connector-curvature="0" />
    </g>
    <g
       id="g15702"
       transform="matrix(0.04542365,0,0,-0.04962672,-637.59696,274.4395)"
       style="stroke-width:1.40785086">
      <path
         d="m 15865.5,2187.14 c -79.5,-16.95 -117.5,-4.81 -132,61.16 184.3,69.46 322.2,157.65 359.6,189.74 23.3,20.11 15.6,61.01 1.9,79.01 -5.7,7.44 -19.9,34.78 -12.9,39.95 15.8,11.66 44.4,-11.19 64.4,-40.96 -11.1,19.27 -21.8,58.32 -11.5,62.97 26.1,11.66 49.5,-33.73 69.4,-67.4 6.9,22.69 -25.4,68.08 -1.4,78.38 18.5,7.91 42.7,-14.47 50.2,-82.5 7.6,10.98 -2,68.72 24.8,69.41 10.7,0.31 22,-24.02 22,-53.63 0,-65.49 -27.6,-106.5 -81.8,-135.42 -54.2,-28.92 -275.9,-184.35 -352.7,-200.71"
         style="fill:#fabd99;fill-opacity:1;fill-rule:nonzero;stroke:none;stroke-width:1.40785086"
         id="path15704"
         inkscape:connector-curvature="0" />
    </g>
  </g>
  <g
     inkscape:groupmode="layer"
     id="layer2"
     inkscape:label="Layer 3" />
  <g
     inkscape:label="Layer 1"
     inkscape:groupmode="layer"
     id="layer1"
     transform="translate(0,-32.41665)">
    <text
       xml:space="preserve"
       style="font-style:normal;font-variant:normal;font-weight:bold;font-stretch:normal;font-size:10.58333302px;line-height:1.25;font-family:sans-serif;-inkscape-font-specification:'sans-serif Bold';letter-spacing:0px;word-spacing:0px;fill:#000000;fill-opacity:1;stroke:none;stroke-width:0.26458332"
       x="150.05655"
       y="89.869026"
       id="text8811" />
    <text
       xml:space="preserve"
       style="font-style:normal;font-variant:normal;font-weight:bold;font-stretch:normal;font-size:10.58333302px;line-height:1.25;font-family:sans-serif;-inkscape-font-specification:'sans-serif Bold';letter-spacing:0px;word-spacing:0px;fill:#000000;fill-opacity:1;stroke:none;stroke-width:0.26458332"
       x="160.63989"
       y="97.806526"
       id="text8815" />
    <text
       xml:space="preserve"
       style="font-style:normal;font-variant:normal;font-weight:bold;font-stretch:normal;font-size:10.58333302px;line-height:1.25;font-family:sans-serif;-inkscape-font-specification:'sans-serif Bold';letter-spacing:0px;word-spacing:0px;fill:#000000;fill-opacity:1;stroke:none;stroke-width:0.26458332"
       x="156.86011"
       y="88.7351"
       id="text8819" />
    <flowRoot
       xml:space="preserve"
       id="flowRoot8821"
       style="font-style:normal;font-variant:normal;font-weight:bold;font-stretch:normal;font-size:40px;line-height:1.25;font-family:sans-serif;-inkscape-font-specification:'sans-serif Bold';letter-spacing:0px;word-spacing:0px;fill:#000000;fill-opacity:1;stroke:none"><flowRegion
         id="flowRegion8823"
         style="font-style:normal;font-variant:normal;font-weight:bold;font-stretch:normal;font-family:sans-serif;-inkscape-font-specification:'sans-serif Bold'" /><flowPara
         id="flowPara8827" /></flowRoot>    <flowRoot
       xml:space="preserve"
       id="flowRoot8829"
       style="font-style:normal;font-variant:normal;font-weight:bold;font-stretch:normal;font-size:40px;line-height:1.25;font-family:sans-serif;-inkscape-font-specification:'sans-serif Bold';letter-spacing:0px;word-spacing:0px;fill:#000000;fill-opacity:1;stroke:none"><flowRegion
         id="flowRegion8831"
         style="font-style:normal;font-variant:normal;font-weight:bold;font-stretch:normal;font-family:sans-serif;-inkscape-font-specification:'sans-serif Bold'" /><flowPara
         id="flowPara8835" /></flowRoot>    <flowRoot
       xml:space="preserve"
       id="flowRoot8837"
       style="font-style:normal;font-variant:normal;font-weight:bold;font-stretch:normal;font-size:40px;line-height:1.25;font-family:sans-serif;-inkscape-font-specification:'sans-serif Bold';letter-spacing:0px;word-spacing:0px;fill:#000000;fill-opacity:1;stroke:none"><flowRegion
         id="flowRegion8839"
         style="font-style:normal;font-variant:normal;font-weight:bold;font-stretch:normal;font-family:sans-serif;-inkscape-font-specification:'sans-serif Bold'" /><flowPara
         id="flowPara8843" /></flowRoot>    <text
       xml:space="preserve"
       style="font-style:normal;font-variant:normal;font-weight:bold;font-stretch:normal;font-size:10.58333302px;line-height:1.25;font-family:sans-serif;-inkscape-font-specification:'sans-serif Bold';letter-spacing:0px;word-spacing:0px;fill:#000000;fill-opacity:1;stroke:none;stroke-width:0.26458332"
       x="209.39882"
       y="107.25594"
       id="text8847" />
    <flowRoot
       xml:space="preserve"
       id="flowRoot8849"
       style="font-style:normal;font-variant:normal;font-weight:bold;font-stretch:normal;font-size:40px;line-height:1.25;font-family:sans-serif;-inkscape-font-specification:'sans-serif Bold';letter-spacing:0px;word-spacing:0px;fill:#000000;fill-opacity:1;stroke:none"><flowRegion
         id="flowRegion8851"
         style="font-style:normal;font-variant:normal;font-weight:bold;font-stretch:normal;font-family:sans-serif;-inkscape-font-specification:'sans-serif Bold'" /><flowPara
         id="flowPara8855" /></flowRoot>    <flowRoot
       xml:space="preserve"
       id="flowRoot8857"
       style="font-style:normal;font-variant:normal;font-weight:bold;font-stretch:normal;font-size:40px;line-height:1.25;font-family:sans-serif;-inkscape-font-specification:'sans-serif Bold';letter-spacing:0px;word-spacing:0px;fill:#000000;fill-opacity:1;stroke:none"><flowRegion
         id="flowRegion8859"
         style="font-style:normal;font-variant:normal;font-weight:bold;font-stretch:normal;font-family:sans-serif;-inkscape-font-specification:'sans-serif Bold'" /><flowPara
         id="flowPara8863" /></flowRoot>    <flowRoot
       xml:space="preserve"
       id="flowRoot8865"
       style="font-style:normal;font-variant:normal;font-weight:bold;font-stretch:normal;font-size:40px;line-height:1.25;font-family:sans-serif;-inkscape-font-specification:'sans-serif Bold';letter-spacing:0px;word-spacing:0px;fill:#000000;fill-opacity:1;stroke:none"><flowRegion
         id="flowRegion8867"
         style="font-style:normal;font-variant:normal;font-weight:bold;font-stretch:normal;font-family:sans-serif;-inkscape-font-specification:'sans-serif Bold'" /><flowPara
         id="flowPara8871" /></flowRoot>    <flowRoot
       xml:space="preserve"
       id="flowRoot8873"
       style="font-style:normal;font-variant:normal;font-weight:bold;font-stretch:normal;font-size:40px;line-height:1.25;font-family:sans-serif;-inkscape-font-specification:'sans-serif Bold';letter-spacing:0px;word-spacing:0px;fill:#000000;fill-opacity:1;stroke:none"><flowRegion
         id="flowRegion8875"
         style="font-style:normal;font-variant:normal;font-weight:bold;font-stretch:normal;font-family:sans-serif;-inkscape-font-specification:'sans-serif Bold'" /><flowPara
         id="flowPara8879" /></flowRoot>    <text
       xml:space="preserve"
       style="font-style:normal;font-weight:normal;font-size:10.58333302px;line-height:1.25;font-family:sans-serif;letter-spacing:0px;word-spacing:0px;fill:#000000;fill-opacity:1;stroke:none;stroke-width:0.26458332"
       x="101.02788"
       y="69.125984"
       id="text977"><tspan
         sodipodi:role="line"
         id="tspan975"
         x="101.02788"
         y="78.489754"
         style="stroke-width:0.26458332" /><tspan
         sodipodi:role="line"
         x="101.02788"
         y="91.718918"
         style="stroke-width:0.26458332"
         id="tspan979" /><tspan
         sodipodi:role="line"
         x="101.02788"
         y="104.94809"
         style="stroke-width:0.26458332"
         id="tspan981" /><tspan
         sodipodi:role="line"
         x="101.02788"
         y="118.17725"
         style="stroke-width:0.26458332"
         id="tspan983" /><tspan
         sodipodi:role="line"
         x="101.02788"
         y="131.40642"
         style="stroke-width:0.26458332"
         id="tspan985" /><tspan
         sodipodi:role="line"
         x="101.02788"
         y="144.63559"
         style="stroke-width:0.26458332"
         id="tspan987" /><tspan
         sodipodi:role="line"
         x="101.02788"
         y="157.86475"
         style="stroke-width:0.26458332"
         id="tspan989" /><tspan
         sodipodi:role="line"
         x="101.02788"
         y="171.09392"
         style="stroke-width:0.26458332"
         id="tspan991" /><tspan
         sodipodi:role="line"
         x="101.02788"
         y="184.32309"
         style="stroke-width:0.26458332"
         id="tspan993" /><tspan
         sodipodi:role="line"
         x="101.02788"
         y="197.55225"
         style="stroke-width:0.26458332"
         id="tspan995" /><tspan
         sodipodi:role="line"
         x="101.02788"
         y="210.78142"
         style="stroke-width:0.26458332"
         id="tspan997" /><tspan
         sodipodi:role="line"
         x="101.02788"
         y="224.01059"
         style="stroke-width:0.26458332"
         id="tspan999" /><tspan
         sodipodi:role="line"
         x="101.02788"
         y="237.23975"
         style="stroke-width:0.26458332"
         id="tspan1001" /><tspan
         sodipodi:role="line"
         x="101.02788"
         y="250.46892"
         style="stroke-width:0.26458332"
         id="tspan1003" /><tspan
         sodipodi:role="line"
         x="101.02788"
         y="263.69809"
         style="stroke-width:0.26458332"
         id="tspan1005" /><tspan
         sodipodi:role="line"
         x="101.02788"
         y="276.92725"
         style="stroke-width:0.26458332"
         id="tspan1007" /><tspan
         sodipodi:role="line"
         x="101.02788"
         y="290.1564"
         style="stroke-width:0.26458332"
         id="tspan1009" /><tspan
         sodipodi:role="line"
         x="101.02788"
         y="303.38559"
         style="stroke-width:0.26458332"
         id="tspan1011" /><tspan
         sodipodi:role="line"
         x="101.02788"
         y="316.61475"
         style="stroke-width:0.26458332"
         id="tspan1013" /><tspan
         sodipodi:role="line"
         x="101.02788"
         y="329.8439"
         style="stroke-width:0.26458332"
         id="tspan1015" /><tspan
         sodipodi:role="line"
         x="101.02788"
         y="343.07309"
         style="stroke-width:0.26458332"
         id="tspan1017" /><tspan
         sodipodi:role="line"
         x="101.02788"
         y="356.30225"
         style="stroke-width:0.26458332"
         id="tspan1019" /><tspan
         sodipodi:role="line"
         x="101.02788"
         y="369.5314"
         style="stroke-width:0.26458332"
         id="tspan1021" /><tspan
         sodipodi:role="line"
         x="101.02788"
         y="382.76059"
         style="stroke-width:0.26458332"
         id="tspan1023" /></text>
  </g>
</svg>
