<?xml version="1.0" encoding="UTF-8" standalone="no"?>
<!-- Created with Inkscape (http://www.inkscape.org/) -->

<svg
   xmlns:dc="http://purl.org/dc/elements/1.1/"
   xmlns:cc="http://creativecommons.org/ns#"
   xmlns:rdf="http://www.w3.org/1999/02/22-rdf-syntax-ns#"
   xmlns:svg="http://www.w3.org/2000/svg"
   xmlns="http://www.w3.org/2000/svg"
   xmlns:sodipodi="http://sodipodi.sourceforge.net/DTD/sodipodi-0.dtd"
   xmlns:inkscape="http://www.inkscape.org/namespaces/inkscape"
   width="1000"
   height="1000"
   viewBox="0 0 264.58333 264.58334"
   version="1.1"
   id="svg2383"
   inkscape:version="0.92.5 (2060ec1f9f, 2020-04-08)"
   sodipodi:docname="When is your Birthday.svg"
   enable-background="new">
  <defs
     id="defs2377" />
  <sodipodi:namedview
     id="base"
     pagecolor="#ffffff"
     bordercolor="#666666"
     borderopacity="1.0"
     inkscape:pageopacity="0.0"
     inkscape:pageshadow="2"
     inkscape:zoom="0.70710678"
     inkscape:cx="300.58162"
     inkscape:cy="418.75422"
     inkscape:document-units="px"
     inkscape:current-layer="layer3"
     showgrid="false"
     units="px"
     inkscape:window-width="1920"
     inkscape:window-height="1031"
     inkscape:window-x="0"
     inkscape:window-y="25"
     inkscape:window-maximized="1"
     showguides="true"
     inkscape:lockguides="true"
     inkscape:object-nodes="false"
     inkscape:snap-nodes="false"
     inkscape:snap-others="false" />
  <metadata
     id="metadata2380">
    <rdf:RDF>
      <cc:Work
         rdf:about="">
        <dc:format>image/svg+xml</dc:format>
        <dc:type
           rdf:resource="http://purl.org/dc/dcmitype/StillImage" />
        <dc:title></dc:title>
      </cc:Work>
    </rdf:RDF>
  </metadata>
  <g
     inkscape:groupmode="layer"
     id="layer3"
     inkscape:label="Layer 2">
    <ellipse
       style="fill:#59ddcb;fill-opacity:1;stroke-width:0.45916313"
       id="path3018"
       cx="133.53714"
       cy="218.77054"
       rx="105.7971"
       ry="33.096272" />
    <text
       xml:space="preserve"
       style="font-style:normal;font-weight:normal;font-size:10.58333302px;line-height:1.25;font-family:sans-serif;letter-spacing:0px;word-spacing:0px;fill:#000000;fill-opacity:1;stroke:none;stroke-width:0.26458332"
       x="2.6192422"
       y="64.398453"
       id="text20604"><tspan
         sodipodi:role="line"
         id="tspan20602"
         x="2.6192422"
         y="73.762222"
         style="font-style:normal;font-variant:normal;font-weight:bold;font-stretch:normal;font-size:12.69999981px;font-family:sans-serif;-inkscape-font-specification:'sans-serif Bold';stroke-width:0.26458332" /></text>
    <text
       xml:space="preserve"
       style="font-style:normal;font-weight:normal;font-size:10.58333302px;line-height:1.25;font-family:sans-serif;letter-spacing:0px;word-spacing:0px;fill:#000000;fill-opacity:1;stroke:none;stroke-width:0.26458332"
       x="40.411156"
       y="38.954399"
       id="text20997"><tspan
         sodipodi:role="line"
         id="tspan20995"
         x="40.411156"
         y="48.318169"
         style="font-style:normal;font-variant:normal;font-weight:bold;font-stretch:normal;font-size:12.69999981px;font-family:sans-serif;-inkscape-font-specification:'sans-serif Bold';stroke-width:0.26458332" /></text>
    <flowRoot
       xml:space="preserve"
       id="flowRoot20999"
       style="fill:black;fill-opacity:1;stroke:none;font-family:sans-serif;font-style:normal;font-weight:normal;font-size:40px;line-height:1.25;letter-spacing:0px;word-spacing:0px"><flowRegion
         id="flowRegion21001"><rect
           id="rect21003"
           width="33.941124"
           height="135.7645"
           x="292.74222"
           y="186.82719" /></flowRegion><flowPara
         id="flowPara21005" /></flowRoot>    <path
       sodipodi:nodetypes="ccccc"
       id="path1929-2"
       style="fill:#ebf15e;fill-opacity:1;fill-rule:nonzero;stroke:none;stroke-width:0.01865088"
       d="m 70.58033,9.6855411 c 19.972884,-5.795997 115.29944,-5.365246 141.86399,1.9094749 25.48537,6.978854 28.54843,27.590158 7.18266,34.331901 -16.70127,5.2694 -119.903575,11.42832 -149.04665,4.33315 -29.809602,-7.25764 -23.384733,-33.788494 0,-40.5745259"
       inkscape:connector-curvature="0" />
    <path
       sodipodi:nodetypes="cccc"
       id="path1931-1"
       style="fill:#ebf15e;fill-opacity:1;fill-rule:nonzero;stroke:none;stroke-width:0.00860131"
       d="m 93.253021,59.487348 -11.491103,-11.13847 25.286532,3.79997 z"
       inkscape:connector-curvature="0" />
    <g
       id="g464"
       transform="matrix(0.0218427,0,0,-0.02354528,-285.91647,269.60861)"
       style="stroke-width:1.69940853">
      <path
         d="m 16285.7,2392.69 c 0,0 6.4,-258.69 14.3,-399.29 -93,-23.8 -151.5,-6.22 -151.5,-6.22 l -47.7,427.48 184.9,-21.97"
         style="fill:#fabd99;fill-opacity:1;fill-rule:nonzero;stroke:none;stroke-width:1.69940853"
         id="path466"
         inkscape:connector-curvature="0" />
    </g>
    <g
       id="g468"
       transform="matrix(0.02229296,0,0,-0.02403063,-285.91647,269.60861)"
       style="stroke-width:1.69940853">
      <path
         d="m 15794.6,1884.09 c -17.9,-39.64 -23.4,-110.77 68.9,-189.69 92.1,-78.93 183.6,-145.57 322.4,-97.4 114.1,39.55 66.1,173.81 66.1,173.81 l -457.4,113.28"
         style="fill:#e0e0de;fill-opacity:1;fill-rule:nonzero;stroke:none;stroke-width:1.69940853"
         id="path470"
         inkscape:connector-curvature="0" />
    </g>
    <g
       id="g472"
       transform="matrix(0.02230675,0,0,-0.02404551,-285.91647,269.60861)"
       style="stroke-width:1.69940853">
      <path
         d="m 15799.8,2048.47 c -22.2,-35.76 -45.9,-174.78 23.7,-235.92 69.3,-61.12 216,-183.83 352.4,-133.55 124.1,45.89 52.5,154.62 -16.6,198.81 -69.2,44.28 -201.2,167.25 -201.2,167.25 0,0 -18.7,-76.63 -158.3,3.41"
         style="fill:#48c1b0;fill-opacity:1;fill-rule:nonzero;stroke:none;stroke-width:1.69940853"
         id="path474"
         inkscape:connector-curvature="0" />
    </g>
    <g
       id="g476"
       transform="matrix(0.02208562,0,0,-0.02380714,-285.91647,269.60861)"
       style="stroke-width:1.69940853">
      <path
         d="m 16195.2,2001.17 c -52.5,15.76 -125.4,-9.5 -150.9,-45.99 -25.2,-36.57 5.2,-65.72 27,-63.91 21.9,1.72 85.5,31.78 157.1,40.65 71.6,8.69 8.6,56.94 -33.2,69.25"
         style="fill:#e0e0de;fill-opacity:1;fill-rule:nonzero;stroke:none;stroke-width:1.69940853"
         id="path478"
         inkscape:connector-curvature="0" />
    </g>
    <g
       id="g480"
       transform="matrix(0.02222697,0,0,-0.02395952,-285.91647,269.60861)"
       style="stroke-width:1.69940853">
      <path
         d="m 16195.7,1888.51 c -52,15.66 -124.5,-9.35 -149.8,-45.69 -25,-36.35 5.2,-65.22 26.9,-63.51 21.7,1.8 84.8,31.66 156,40.48 71.2,8.63 8.6,56.49 -33.1,68.72"
         style="fill:#e0e0de;fill-opacity:1;fill-rule:nonzero;stroke:none;stroke-width:1.69940853"
         id="path482"
         inkscape:connector-curvature="0" />
    </g>
    <g
       id="g484"
       transform="matrix(0.02086898,0,0,-0.02249567,-285.91647,269.60861)"
       style="stroke-width:1.69940853">
      <path
         d="m 16106.5,2504.34 c 0,0 -6.8,-270.76 -15,-417.92 97.3,-24.91 158.5,-6.51 158.5,-6.51 l 50,447.42 -193.5,-22.99"
         style="fill:#fabd99;fill-opacity:1;fill-rule:nonzero;stroke:none;stroke-width:1.69940853"
         id="path486"
         inkscape:connector-curvature="0" />
    </g>
    <g
       id="g488"
       transform="matrix(0.02086737,0,0,-0.02249393,-285.91647,269.60861)"
       style="stroke-width:1.69940853">
      <path
         d="m 16280.9,2012.79 c 19.1,-42.35 18.8,-124.46 -79.8,-208.78 -98.5,-84.32 -211.1,-142.09 -359.8,-91.89 -125,42.36 -49,179.66 -49,179.66 l 488.6,121.01"
         style="fill:#e0e0de;fill-opacity:1;fill-rule:nonzero;stroke:none;stroke-width:1.69940853"
         id="path490"
         inkscape:connector-curvature="0" />
    </g>
    <g
       id="g492"
       transform="matrix(0.02088537,0,0,-0.02251334,-285.91647,269.60861)"
       style="stroke-width:1.69940853">
      <path
         d="m 16250.9,2187.89 c 23.7,-38.2 49.1,-186.68 -25.3,-251.98 -74.1,-65.28 -206.7,-183.9 -385.6,-134.98 -140.3,38.39 -46.9,157.48 27,204.68 73.8,47.29 214.7,178.64 214.7,178.64 0,0 20,-81.85 169.2,3.64"
         style="fill:#48c1b0;fill-opacity:1;fill-rule:nonzero;stroke:none;stroke-width:1.69940853"
         id="path494"
         inkscape:connector-curvature="0" />
    </g>
    <g
       id="g496"
       transform="matrix(0.02073982,0,0,-0.02235643,-285.91647,269.60861)"
       style="stroke-width:1.69940853">
      <path
         d="m 16112.5,2131.04 c 55.7,16.77 133.4,-10.13 160.6,-48.98 26.9,-38.94 -5.6,-69.99 -28.8,-68.06 -23.3,1.83 -90.9,33.84 -167.2,43.29 -76.2,9.25 -9.2,60.63 35.4,73.75"
         style="fill:#e0e0de;fill-opacity:1;fill-rule:nonzero;stroke:none;stroke-width:1.69940853"
         id="path498"
         inkscape:connector-curvature="0" />
    </g>
    <g
       id="g500"
       transform="matrix(0.02062364,0,0,-0.0222312,-285.91647,269.60861)"
       style="stroke-width:1.69940853">
      <path
         d="m 16111.4,2043.27 c 56.1,16.87 134.2,-10.08 161.6,-49.16 27,-39.16 -5.7,-70.38 -29,-68.44 -23.4,1.84 -91.5,34.03 -168.1,43.53 -76.7,9.31 -9.3,60.88 35.5,74.07"
         style="fill:#e0e0de;fill-opacity:1;fill-rule:nonzero;stroke:none;stroke-width:1.69940853"
         id="path502"
         inkscape:connector-curvature="0" />
    </g>
    <g
       id="g504"
       transform="matrix(0.02205383,0,0,-0.02377287,-285.91647,269.60861)"
       style="stroke-width:1.69940853">
      <path
         d="m 15682.3,3910.86 c 1.3,0.36 308.5,0.82 577.5,58.02 -2,-447.5 40.2,-1103.17 23.2,-1653.03 -63.4,-76.52 -134.3,-44.51 -388.9,-58.11 -82.6,336.71 -178.4,805.89 -211.8,1002.53 -33.3,-196.64 -129.1,-665.82 -211.7,-1002.53 -254.5,13.6 -325.5,-18.41 -388.9,58.11 -17,549.86 25.2,1205.53 23.1,1653.03 269.2,-57.2 576.3,-57.66 577.5,-58.02"
         style="fill:#3f4042;fill-opacity:1;fill-rule:nonzero;stroke:none;stroke-width:1.69940853"
         id="path506"
         inkscape:connector-curvature="0" />
    </g>
    <g
       id="g508"
       transform="matrix(0.02199944,0,0,-0.02371425,-285.91647,269.60861)"
       style="stroke-width:1.69940853">
      <path
         d="m 15721.1,3745.11 c -1.2,0.36 -304.6,0.82 -577.8,56.53 -0.5,61.8 -0.9,163.78 -1.2,219.76 346.7,-105.88 888.2,-57.35 1157.9,0 -0.3,-55.98 -0.6,-157.96 -1.1,-219.76 -273.3,-55.71 -576.6,-56.17 -577.8,-56.53"
         style="fill:#1d1c1c;fill-opacity:1;fill-rule:nonzero;stroke:none;stroke-width:1.69940853"
         id="path510"
         inkscape:connector-curvature="0" />
    </g>
    <g
       id="g512"
       transform="matrix(0.02196806,0,0,-0.02368041,-285.91647,269.60861)"
       style="stroke-width:1.69940853">
      <path
         d="m 16139.6,3707.48 c 0,0 58,-141.43 160.4,-209.51 -16.8,-33.95 -50.8,-90.65 -50.8,-90.65 0,0 -195.4,133.88 -222.4,277.5 68.1,0.18 112.8,22.66 112.8,22.66"
         style="fill:#1d1c1c;fill-opacity:1;fill-rule:nonzero;stroke:none;stroke-width:1.69940853"
         id="path514"
         inkscape:connector-curvature="0" />
    </g>
    <g
       id="g516"
       transform="matrix(0.02082658,0,0,-0.02244997,-285.91647,269.60861)"
       style="stroke-width:1.69940853">
      <path
         d="m 16181.1,3910.71 c 0,0 -61.2,-149.18 -169.2,-221 17.7,-35.81 53.6,-95.62 53.6,-95.62 0,0 206.1,141.23 234.5,292.72 -71.9,0.19 -118.9,23.9 -118.9,23.9"
         style="fill:#1d1c1c;fill-opacity:1;fill-rule:nonzero;stroke:none;stroke-width:1.69940853"
         id="path518"
         inkscape:connector-curvature="0" />
    </g>
    <g
       id="g520"
       transform="matrix(0.02205122,0,0,-0.02377008,-285.91647,269.60861)"
       style="stroke-width:1.69940853">
      <path
         d="m 15849.5,2409.61 c 0,0 249.6,-41.89 441.9,43.34 6.9,-86.69 8.6,-213.17 3.3,-229.67 0,0 -263,-80.07 -404.6,-20.95 -16.3,47.87 -26.7,134.56 -40.6,207.28"
         style="fill:#1d1c1c;fill-opacity:1;fill-rule:nonzero;stroke:none;stroke-width:1.69940853"
         id="path522"
         inkscape:connector-curvature="0" />
    </g>
    <g
       id="g524"
       transform="matrix(0.02099374,0,0,-0.02263014,-285.91647,269.60861)"
       style="stroke-width:1.69940853">
      <path
         d="m 16300,2530.98 c 0,0 -262.1,-44 -464,45.53 -7.3,-91.05 -9.1,-223.91 -3.5,-241.24 0,0 276.3,-84.1 425,-22 17.1,50.28 28,141.33 42.5,217.71"
         style="fill:#1d1c1c;fill-opacity:1;fill-rule:nonzero;stroke:none;stroke-width:1.69940853"
         id="path526"
         inkscape:connector-curvature="0" />
    </g>
    <g
       id="g528"
       transform="matrix(0.02130565,0,0,-0.02296638,-285.91647,269.60861)"
       style="stroke-width:1.69940853">
      <path
         d="m 16161.8,3957.34 c 4.6,-36.88 38.2,-63.06 75,-58.46 36.9,4.5 63.2,38.1 58.6,74.98 -4.5,36.98 -38.2,63.16 -75.1,58.56 -36.9,-4.6 -63,-38.2 -58.5,-75.08"
         style="fill:#3f4042;fill-opacity:1;fill-rule:nonzero;stroke:none;stroke-width:1.69940853"
         id="path530"
         inkscape:connector-curvature="0" />
    </g>
    <g
       id="g532"
       transform="matrix(0.02157676,0,0,-0.02325862,-285.91647,269.60861)"
       style="stroke-width:1.69940853">
      <path
         d="m 16285,5337.61 -167.8,17.98 v 155.12 h -215.8 v -155.4 l -158.8,-17.7 c -15,-283.28 253,-298.11 270.7,-298.75 v -0.09 l 0.5,0.09 0.4,-0.09 v 0.09 c 17.8,0.64 285.8,15.47 270.8,298.75"
         style="fill:#fabd99;fill-opacity:1;fill-rule:nonzero;stroke:none;stroke-width:1.69940853"
         id="path534"
         inkscape:connector-curvature="0" />
    </g>
    <g
       id="g536"
       transform="matrix(0.02130825,0,0,-0.02296917,-285.91647,269.60861)"
       style="stroke-width:1.69940853">
      <path
         d="m 16208.6,5464.92 c 38.7,0 72.4,-16.42 91.4,-41.09 v 113.91 h -182.7 v -113.91 c 19,24.67 52.7,41.09 91.3,41.09"
         style="fill:#efa378;fill-opacity:1;fill-rule:nonzero;stroke:none;stroke-width:1.69940853"
         id="path538"
         inkscape:connector-curvature="0" />
    </g>
    <g
       id="g540"
       transform="matrix(0.02231875,0,0,-0.02405844,-285.91647,269.60861)"
       style="stroke-width:1.69940853;fill:#008080">
      <path
         d="m 15788.1,5157.83 c -1.4,-232.56 -154.1,-318.65 -307.3,-296.97 v 0.27 l -1,-0.18 -1,0.18 v -0.27 c -153.3,-21.68 -305.9,64.41 -307.4,296.97 -66.2,-0.09 -388.8,-119.68 -537.1,-349.29 3.1,-55.27 238.7,-260.6 277,-234.98 12.9,8.51 49.7,30.37 65.6,66.65 -20.2,-162.6 -173.1,-801.6 -202.3,-941.44 324.5,-49.54 1236.8,-112.88 1434.8,18.54 -20.5,108.49 -202.9,835.11 -204.3,1015.26 66.4,-22.04 171.8,-48.02 236.5,-58.58 42.3,183.46 55.4,321.69 58.4,377.06 -156.3,18.18 -445.6,106.69 -511.9,106.78"
         style="fill:#008080;fill-opacity:1;fill-rule:nonzero;stroke:none;stroke-width:1.69940853"
         id="path542"
         inkscape:connector-curvature="0" />
    </g>
    <g
       id="g544"
       transform="matrix(0.02034613,0,0,-0.02193206,-285.91647,269.60861)"
       style="stroke-width:1.69940853">
      <path
         d="m 15779.7,3972.51 c 32.1,-1.68 41.5,98.36 54,104.65 0.7,-3.54 2.3,-113.3 2.3,-137.18 0.2,-55.82 53.2,-62.7 61.8,-14.84 7.3,40.19 17.4,133.45 18.2,138.17 0.9,-4.53 9.5,-117.44 10.8,-138.27 3.6,-61.42 72.4,-66.14 69.5,4.52 -1.8,47.86 -8.2,131.88 -6.8,139.25 2.7,-2.66 22.7,-63.48 37,-98.47 23.7,-57.78 76.3,-45.6 61,24.08 -12.2,55.13 -35.3,188.09 -35.3,188.09 0,0 83.2,-40.88 105,5.4 22.2,46.49 -125.5,113.41 -125.5,113.41 l -8.4,0.88 c 14.8,89.53 -80.2,287.05 253.1,797.76 23.6,31.45 -113.2,71.06 -129.4,91.5 -230.1,-248.63 -289.2,-756.69 -318.9,-876.88 0,0 -52.9,3.54 -65.6,-187.01 -5.2,-74.58 -13.8,-153.3 17.2,-155.06"
         style="fill:#fabd99;fill-opacity:1;fill-rule:nonzero;stroke:none;stroke-width:1.69940853"
         id="path546"
         inkscape:connector-curvature="0" />
    </g>
    <g
       id="g548"
       transform="matrix(0.02048529,0,0,-0.02208207,-285.91647,269.60861)"
       style="stroke-width:1.69940853">
      <path
         d="m 16225,4919.75 c 0,0 -247.6,120.15 -335.1,270.85 27.5,39.23 68.2,84.32 68.2,84.32 0,0 162.6,-164.84 341.9,-258.94 -42.5,-57.68 -75,-96.23 -75,-96.23"
         style="fill:#ed1c24;fill-opacity:1;fill-rule:nonzero;stroke:none;stroke-width:1.69940853"
         id="path550"
         inkscape:connector-curvature="0" />
    </g>
    <g
       id="g552"
       transform="matrix(0.02171353,0,0,-0.02340604,-285.91647,269.60861)"
       style="stroke-width:1.69940853">
      <path
         d="m 16300,5301.62 c 0,0 -79.4,21 -129.9,24.78 -25.3,-144.48 -87.5,-266.86 -261.8,-270.36 -174.4,3.5 -236.6,125.88 -261.9,270.36 -46.3,-17.69 -129.9,-32.05 -129.9,-32.05 0,0 27.4,-365.01 388.6,-364.09 v 0 c 1,0 2.1,0 3.2,0 1,0 2.1,0 3.2,0 v 0 c 361.1,-0.92 388.5,371.36 388.5,371.36"
         style="fill:#ed1c24;fill-opacity:1;fill-rule:nonzero;stroke:none;stroke-width:1.69940853"
         id="path554"
         inkscape:connector-curvature="0" />
    </g>
    <g
       id="g556"
       transform="matrix(0.02369835,0,0,-0.02554559,-285.91647,269.60861)"
       style="stroke-width:1.69940853;fill:#800000">
      <path
         d="m 12711.4,5960.19 c -213.9,-276.29 55.5,-566.94 300,-463.78 -105.7,-86.12 31.5,-256.99 149.1,-115.47 -5.9,-248.79 170.4,-328.9 266.6,-98.99 76.1,-309.3 318,-254.55 481.5,-17.32 -9.6,-303.37 412.6,-191.89 423.3,-16.59 14.5,-255.99 242.2,-341.62 399.8,-124.62 1.3,-154.99 344,-77.88 306,70.01 129.9,-133.71 429.7,-56.98 397.6,117.95 80.2,-59.93 202.2,15.22 158.6,95.71 196.5,-25.27 439.9,192.45 352.8,333.23 159.6,-12.11 353.3,286.05 58.1,384.61 287.4,90.06 163.2,277.69 -2.1,242.58 232.1,109.81 88.2,445.52 -192.9,328.54 168.8,338.4 -23.3,565.87 -353.4,448.5 -168.7,369.19 -1263.2,696.76 -1810.3,139.49 -538,-193.28 -934.7,-1323.85 -934.7,-1323.85"
         style="fill:#800000;fill-opacity:1;fill-rule:nonzero;stroke:none;stroke-width:1.69940853"
         id="path558"
         inkscape:connector-curvature="0" />
    </g>
    <g
       id="g560"
       transform="matrix(0.02285999,0,0,-0.02464188,-285.91647,269.60861)"
       style="stroke-width:1.69940853">
      <path
         d="m 13990.4,6037.92 c 83.8,-638.38 637.7,-997.97 1252.5,-917.24 614.7,80.64 1057.1,571.02 973.3,1209.47 -83.8,638.35 -646.9,1067.45 -1261.7,986.76 -614.7,-80.67 -1047.9,-640.66 -964.1,-1278.99"
         style="fill:#fabd99;fill-opacity:1;fill-rule:nonzero;stroke:none;stroke-width:1.69940853"
         id="path562"
         inkscape:connector-curvature="0" />
    </g>
    <g
       id="g564"
       transform="matrix(0.02285999,0,0,-0.02464188,-285.91647,269.60861)"
       style="stroke-width:1.69940853">
      <path
         d="m 13990.4,6037.92 c 83.8,-638.38 637.7,-997.97 1252.5,-917.24 614.7,80.64 1057.1,571.02 973.3,1209.47 -83.8,638.35 -646.9,1067.45 -1261.7,986.76 -614.7,-80.67 -1047.9,-640.66 -964.1,-1278.99"
         style="fill:#fabd99;fill-opacity:1;fill-rule:nonzero;stroke:none;stroke-width:1.69940853"
         id="path566"
         inkscape:connector-curvature="0" />
    </g>
    <path
       d="m 34.932874,120.79866 c 0,0 -0.731789,-3.14692 -4.374729,-3.19713 -3.8449,-0.0498 -4.83661,5.49033 -2.49128,8.46677 2.34732,2.97083 6.5801,2.5527 7.651779,-0.1035 l -0.78577,-5.16619"
       style="fill:#fabd99;fill-opacity:1;fill-rule:nonzero;stroke:none;stroke-width:0.03527778"
       id="path568"
       inkscape:connector-curvature="0" />
    <path
       d="m 29.950315,119.08392 c 2.42931,-0.72266 4.83861,3.76117 1.69951,6.53824 1.12767,-3.45576 -0.26592,-4.46013 -1.90345,-2.69798 -0.0739,-1.08324 0.48386,-1.82723 1.98343,-1.86043 -0.23993,-1.41753 -1.77949,-1.97983 -1.77949,-1.97983"
       style="fill:#d37658;fill-opacity:1;fill-rule:nonzero;stroke:none;stroke-width:0.03527778"
       id="path570"
       inkscape:connector-curvature="0" />
    <g
       id="g572"
       transform="matrix(0.0214434,0,0,-0.02311486,-285.91647,269.60861)"
       style="stroke-width:1.69940853">
      <path
         d="m 16032.2,6444.08 c 33.5,-20.68 45,65.12 118.1,67.56 74.8,2.49 86.1,-84.06 121.1,-54.87 28.6,23.8 -11.1,128.42 -133.5,120.45 -102,-6.63 -137.6,-113.47 -105.7,-133.14"
         style="fill:#ee5b63;fill-opacity:1;fill-rule:nonzero;stroke:none;stroke-width:1.69940853"
         id="path574"
         inkscape:connector-curvature="0" />
    </g>
    <g
       id="g576"
       transform="matrix(0.02274724,0,0,-0.02452033,-285.91647,269.60861)"
       style="stroke-width:1.69940853">
      <path
         d="m 16300,6085.65 c -31.6,-285.33 -173.8,-526.89 -386.9,-695.22 -17.5,8.54 -34.5,18.75 -50.6,30.79 -155.3,116.26 -174.3,353.54 -42.2,529.89 120.9,161.62 326.6,216 479.7,134.54"
         style="fill:#f79883;fill-opacity:1;fill-rule:nonzero;stroke:none;stroke-width:1.69940853"
         id="path578"
         inkscape:connector-curvature="0" />
    </g>
    <g
       id="g580"
       transform="matrix(0.02073141,0,0,-0.02234738,-285.91647,269.60861)"
       style="stroke-width:1.69940853">
      <path
         d="m 15500.8,6365.82 c 132.1,129.59 358.5,141.63 536.7,18.91 199,-137.15 262.5,-390.48 141.7,-565.8 -21.5,-31.13 -47.3,-57.62 -76.3,-79.51 -271.5,118.79 -488.8,334.15 -602.1,626.4"
         style="fill:#f79883;fill-opacity:1;fill-rule:nonzero;stroke:none;stroke-width:1.69940853"
         id="path582"
         inkscape:connector-curvature="0" />
    </g>
    <g
       id="g584"
       transform="matrix(0.02240092,0,0,-0.02414703,-285.91647,269.60861)"
       style="stroke-width:1.69940853">
      <path
         d="m 15723.2,6395.06 c 54.4,-77.65 210.3,-157.74 346.1,-139.21 135.7,18.54 185.5,113.39 230.7,217.95 -6.1,54.08 -143.6,230.78 -279.4,212.24 -135.7,-18.53 -255.1,-154.39 -297.4,-290.98"
         style="fill:#ffffff;fill-opacity:1;fill-rule:nonzero;stroke:none;stroke-width:1.69940853"
         id="path586"
         inkscape:connector-curvature="0" />
    </g>
    <g
       id="g588"
       transform="matrix(0.02223758,0,0,-0.02397094,-285.91647,269.60861)"
       style="stroke-width:1.69940853">
      <path
         d="m 16002.8,6567.71 c -35.5,-76.47 -5.8,-165.73 66.3,-199.38 72.3,-33.57 159.7,1.17 195.3,77.67 35.6,76.59 5.8,165.77 -66.4,199.43 -72.2,33.55 -159.6,-1.25 -195.2,-77.72"
         style="fill:#111213;fill-opacity:1;fill-rule:nonzero;stroke:none;stroke-width:1.69940853"
         id="path590"
         inkscape:connector-curvature="0" />
    </g>
    <g
       id="g592"
       transform="matrix(0.0221616,0,0,-0.02388905,-285.91647,269.60861)"
       style="stroke-width:1.69940853">
      <path
         d="m 16214.4,6569 c -1.4,-24.77 16.6,-45.68 39.9,-46.87 23.1,-1.15 43.1,17.77 44.4,42.52 1.3,24.63 -16.6,45.61 -39.7,46.99 -23.3,1 -43.4,-18 -44.6,-42.64"
         style="fill:#ffffff;fill-opacity:1;fill-rule:nonzero;stroke:none;stroke-width:1.69940853"
         id="path594"
         inkscape:connector-curvature="0" />
    </g>
    <g
       id="g596"
       transform="matrix(0.02193886,0,0,-0.02364894,-285.91647,269.60861)"
       style="stroke-width:1.69940853">
      <path
         d="m 16246.5,6538.5 c -0.9,-15.51 10.4,-28.54 25.1,-29.4 14.5,-0.76 27,11.2 27.9,26.72 0.5,15.39 -10.4,28.55 -25.1,29.31 -14.6,0.76 -27.1,-11.18 -27.9,-26.63"
         style="fill:#ffffff;fill-opacity:1;fill-rule:nonzero;stroke:none;stroke-width:1.69940853"
         id="path598"
         inkscape:connector-curvature="0" />
    </g>
    <g
       id="g600"
       transform="matrix(0.02240092,0,0,-0.02414703,-285.91647,269.60861)"
       style="stroke-width:1.69940853">
      <path
         d="m 16300,6473.8 c 0,0 -148.2,291.82 -454.1,120 320.4,316.29 454.1,-120 454.1,-120"
         style="fill:#6d3a2c;fill-opacity:1;fill-rule:nonzero;stroke:none;stroke-width:1.69940853"
         id="path602"
         inkscape:connector-curvature="0" />
    </g>
    <g
       id="g604"
       transform="matrix(0.02081279,0,0,-0.0224351,-285.91647,269.60861)"
       style="stroke-width:1.69940853">
      <path
         d="m 16300,6802.83 c -35.5,-95.6 -176.4,-221.21 -322.8,-238.63 -146.4,-17.42 -224,67.92 -299.3,164.62 -8.4,57.97 87.1,279.27 233.5,296.69 146.5,17.41 307.6,-91.83 388.6,-222.68"
         style="fill:#ffffff;fill-opacity:1;fill-rule:nonzero;stroke:none;stroke-width:1.69940853"
         id="path606"
         inkscape:connector-curvature="0" />
    </g>
    <g
       id="g608"
       transform="matrix(0.02062625,0,0,-0.02223401,-285.91647,269.60861)"
       style="stroke-width:1.69940853">
      <path
         d="m 16242.1,6951.04 c 57.9,-70.17 51.1,-171.36 -15.1,-226.02 -66.3,-54.61 -166.9,-42.05 -224.8,28.13 -57.9,70.28 -51,171.39 15.1,226.07 66.3,54.6 167,41.97 224.8,-28.18"
         style="fill:#111213;fill-opacity:1;fill-rule:nonzero;stroke:none;stroke-width:1.69940853"
         id="path610"
         inkscape:connector-curvature="0" />
    </g>
    <g
       id="g612"
       transform="matrix(0.02036412,0,0,-0.02195145,-285.91647,269.60861)"
       style="stroke-width:1.69940853">
      <path
         d="m 16291.9,6975.26 c 8.1,-25.74 -5.1,-52.67 -29.2,-60.28 -24.2,-7.57 -50.3,6.91 -58.5,32.61 -8.1,25.6 5,52.56 29,60.38 24.4,7.43 50.7,-7.1 58.7,-32.71"
         style="fill:#ffffff;fill-opacity:1;fill-rule:nonzero;stroke:none;stroke-width:1.69940853"
         id="path614"
         inkscape:connector-curvature="0" />
    </g>
    <g
       id="g616"
       transform="matrix(0.02056606,0,0,-0.02216913,-285.91647,269.60861)"
       style="stroke-width:1.69940853">
      <path
         d="m 16294.9,6841.99 c 5.1,-15.78 -3.1,-32.27 -17.9,-37.08 -14.9,-4.68 -31.1,4.3 -36,20.12 -4.8,15.74 3.1,32.27 18,36.98 14.8,4.69 31,-4.29 35.9,-20.02"
         style="fill:#ffffff;fill-opacity:1;fill-rule:nonzero;stroke:none;stroke-width:1.69940853"
         id="path618"
         inkscape:connector-curvature="0" />
    </g>
    <g
       id="g620"
       transform="matrix(0.02058086,0,0,-0.02218508,-285.91647,269.60861)"
       style="stroke-width:1.69940853">
      <path
         d="m 15854.5,6804.62 c 0,0 76.2,347.97 445.5,250.64 -424.1,245.56 -445.5,-250.64 -445.5,-250.64"
         style="fill:#6d3a2c;fill-opacity:1;fill-rule:nonzero;stroke:none;stroke-width:1.69940853"
         id="path622"
         inkscape:connector-curvature="0" />
    </g>
    <g
       id="g624"
       transform="matrix(0.02222678,0,0,-0.02395931,-285.91647,269.60861)"
       style="stroke-width:1.69940853">
      <path
         d="m 16174,6925.3 c -119.2,31.26 -141.4,-99.48 -62.8,-98.33 84.4,1.43 155.5,-28.03 165.9,-19.73 22.9,18.36 -36.1,100.56 -103.1,118.06"
         style="fill:#111213;fill-opacity:1;fill-rule:nonzero;stroke:none;stroke-width:1.69940853"
         id="path626"
         inkscape:connector-curvature="0" />
    </g>
    <g
       id="g628"
       transform="matrix(0.0203955,0,0,-0.02198529,-285.91647,269.60861)"
       style="stroke-width:1.69940853">
      <path
         d="m 16133.4,7351.03 c 124.5,50.28 166.6,-87.98 81.5,-97.61 -91.5,-10.08 -164.2,-51.78 -176.6,-44.21 -27.3,16.67 25,113.63 95.1,141.82"
         style="fill:#111213;fill-opacity:1;fill-rule:nonzero;stroke:none;stroke-width:1.69940853"
         id="path630"
         inkscape:connector-curvature="0" />
    </g>
    <g
       id="g632"
       transform="matrix(0.02195186,0,0,-0.02366295,-285.91647,269.60861)"
       style="stroke-width:1.69940853">
      <path
         d="m 16284.1,6247.5 c 15.9,-348.17 -163.3,-643.75 -423.7,-678.27 -260.4,-34.53 -510.4,204.16 -585.6,544.47 l 1009.3,133.8"
         style="fill:#712131;fill-opacity:1;fill-rule:nonzero;stroke:none;stroke-width:1.69940853"
         id="path634"
         inkscape:connector-curvature="0" />
    </g>
    <g
       id="g636"
       transform="matrix(0.02175351,0,0,-0.02344915,-285.91647,269.60861)"
       style="stroke-width:1.69940853">
      <path
         d="m 16300,5808.67 c -74.6,-103.53 -176.4,-172.92 -294.9,-188.63 -118.4,-15.7 -234.7,24.78 -333.8,105.29 82.2,47.09 188.3,82.85 306.8,98.57 118.6,15.71 230.4,8.83 321.9,-15.23"
         style="fill:#ee5b63;fill-opacity:1;fill-rule:nonzero;stroke:none;stroke-width:1.69940853"
         id="path638"
         inkscape:connector-curvature="0" />
    </g>
    <g
       id="g640"
       transform="matrix(0.02192446,0,0,-0.02363343,-285.91647,269.60861)"
       style="stroke-width:1.69940853">
      <path
         d="m 15817.4,6050.95 c -251.4,-33.33 -464.7,-22.51 -519.1,71.01 l 1001.7,132.79 c -28.2,-104.46 -231.3,-170.48 -482.6,-203.8"
         style="fill:#ffffff;fill-opacity:1;fill-rule:nonzero;stroke:none;stroke-width:1.69940853"
         id="path642"
         inkscape:connector-curvature="0" />
    </g>
    <g
       id="g644"
       transform="matrix(0.02236194,0,0,-0.024105,-285.91647,269.60861)"
       style="stroke-width:1.69940853">
      <path
         d="m 16229.1,6046.32 c 11.1,-16.53 33.4,-20.95 50,-9.89 16.5,11.08 20.9,33.44 9.8,49.96 -11.1,16.52 -33.4,20.94 -49.9,9.88 -16.5,-11.07 -21,-33.43 -9.9,-49.95"
         style="fill:#ee5b63;fill-opacity:1;fill-rule:nonzero;stroke:none;stroke-width:1.69940853"
         id="path646"
         inkscape:connector-curvature="0" />
    </g>
    <g
       id="g648"
       transform="matrix(0.02223158,0,0,-0.02396448,-285.91647,269.60861)"
       style="stroke-width:1.69940853">
      <path
         d="m 16228.7,5974.14 c 11.1,-16.63 33.6,-21.07 50.2,-9.94 16.6,11.13 21.1,33.62 9.9,50.24 -11.1,16.62 -33.6,21.08 -50.2,9.94 -16.7,-11.13 -21.1,-33.63 -9.9,-50.24"
         style="fill:#ee5b63;fill-opacity:1;fill-rule:nonzero;stroke:none;stroke-width:1.69940853"
         id="path650"
         inkscape:connector-curvature="0" />
    </g>
    <g
       id="g652"
       transform="matrix(0.02240174,0,0,-0.0241479,-285.91647,269.60861)"
       style="stroke-width:1.69940853">
      <path
         d="m 16229.2,5920.37 c 11.1,-16.49 33.4,-20.9 49.9,-9.86 16.4,11.05 20.9,33.37 9.8,49.87 -11,16.49 -33.3,20.91 -49.9,9.86 -16.4,-11.05 -20.8,-33.37 -9.8,-49.87"
         style="fill:#ee5b63;fill-opacity:1;fill-rule:nonzero;stroke:none;stroke-width:1.69940853"
         id="path654"
         inkscape:connector-curvature="0" />
    </g>
    <g
       id="g656"
       transform="matrix(0.02031154,0,0,-0.02189477,-285.91647,269.60861)"
       style="stroke-width:1.69940853">
      <path
         d="m 16238,6433.51 c 19.9,-9.27 43.5,-0.73 52.7,19.11 9.3,19.82 0.7,43.42 -19.1,52.7 -19.8,9.29 -43.4,0.73 -52.7,-19.1 -9.3,-19.83 -0.7,-43.42 19.1,-52.71"
         style="fill:#ee5b63;fill-opacity:1;fill-rule:nonzero;stroke:none;stroke-width:1.69940853"
         id="path658"
         inkscape:connector-curvature="0" />
    </g>
    <g
       id="g660"
       transform="matrix(0.02027634,0,0,-0.02185684,-285.91647,269.60861)"
       style="stroke-width:1.69940853">
      <path
         d="m 16237.9,6298.74 c 19.8,-9.3 43.5,-0.73 52.7,19.13 9.4,19.86 0.8,43.5 -19.1,52.8 -19.8,9.3 -43.5,0.74 -52.8,-19.13 -9.2,-19.86 -0.6,-43.5 19.2,-52.8"
         style="fill:#ee5b63;fill-opacity:1;fill-rule:nonzero;stroke:none;stroke-width:1.69940853"
         id="path662"
         inkscape:connector-curvature="0" />
    </g>
    <g
       id="g664"
       transform="matrix(0.0204403,0,0,-0.02203357,-285.91647,269.60861)"
       style="stroke-width:1.69940853">
      <path
         d="m 16238.4,6301.42 c 19.7,-9.22 43.1,-0.73 52.4,18.97 9.2,19.71 0.7,43.16 -19,52.38 -19.7,9.23 -43.2,0.73 -52.4,-18.97 -9.2,-19.7 -0.7,-43.16 19,-52.38"
         style="fill:#ee5b63;fill-opacity:1;fill-rule:nonzero;stroke:none;stroke-width:1.69940853"
         id="path666"
         inkscape:connector-curvature="0" />
    </g>
    <g
       id="g668"
       transform="matrix(0.02378213,0,0,-0.02563589,-285.91647,269.60861)"
       style="stroke-width:1.69940853;fill:#800000">
      <path
         d="m 14229.1,7956.35 c -149.6,282.45 -781.1,124.63 -774,-214.57 -195.7,159.63 -194.3,25.88 -144.1,-115.69 -203.7,194.45 -712.5,-47.23 -600.6,-385.91 -134.6,57.3 -198,-43.05 -66.6,-174.4 -231.5,69.34 -194.5,-237.73 -26.9,-336.44 -281.1,-32.79 -337,-503.56 -69.1,-531.59 -149.4,-211.51 -42.7,-360.88 131.6,-309.82 -96.3,-279.03 216,-280.97 273.3,-124.64 76.4,-178.63 344.7,-147.65 374.5,-56.62 143.3,-234.32 221.3,201.85 119.2,322.78 223.1,-88.58 110.9,160.18 54.1,248.42 145.3,-58.35 282.6,97.47 146.2,188.84 157.9,-66.97 319.9,81.31 286.4,181.14 139.5,-17.3 339.3,148.67 189.1,228.21 118.5,12.35 426.7,202.81 405,-71.93 -21.8,-274.71 200.1,-87.08 269.2,73.48 -17,-485.06 301.9,-278.2 419.9,-171.05 -139.1,-327.81 116.4,-352.75 215.9,-195.93 56.5,-189.71 461.6,-215.26 397.4,-38.12 175.3,-75.89 353.9,150.88 175.8,254.17 201.1,68.16 294.6,363.18 -13.9,303.49 204.6,109.94 48.7,239.42 -45.5,224.05 108.8,182.71 -259.3,419.56 -452.6,301.45 141.6,205.89 -102.5,395.22 -211.9,307.31 25.7,206.56 -178.1,267.35 -308.9,115.62 -29.6,189.69 -158.1,157.98 -154,42.42 -163.4,270.65 -588.9,287.11 -589.5,-64.67"
         style="fill:#800000;fill-opacity:1;fill-rule:nonzero;stroke:none;stroke-width:1.69940853"
         id="path670"
         inkscape:connector-curvature="0" />
    </g>
    <g
       id="g692"
       transform="matrix(0.02247531,0,0,-0.02422721,-285.91647,269.60861)"
       style="stroke-width:1.69940853">
      <path
         d="m 16210.2,4622.33 c 0,0 89.8,234.24 54,389.12 -42.8,8.9 -97.8,13.52 -97.8,13.52 0,0 -5.4,-211.01 -65.9,-385.38 64.1,-11.92 109.7,-17.26 109.7,-17.26"
         style="fill:#ed1c24;fill-opacity:1;fill-rule:nonzero;stroke:none;stroke-width:1.69940853"
         id="path694"
         inkscape:connector-curvature="0" />
    </g>
    <path
       d="m 105.93889,145.58735 c -0.59537,-0.29865 -1.54805,1.63232 -1.83293,1.65477 0.0147,-0.0764 0.83598,-2.29245 1.02024,-2.77068 0.42976,-1.12041 -0.52101,-1.69519 -1.05582,-0.80606 -0.44837,0.74768 -1.36252,2.53492 -1.41505,2.62473 0.0176,-0.10102 0.73009,-2.43614 0.86838,-2.86497 0.40647,-1.26185 -0.85821,-1.9206 -1.3517,-0.4805 -0.33614,0.97445 -0.86627,2.71454 -0.94994,2.84927 -0.0327,-0.0742 0.062,-1.45943 0.0625,-2.27897 -2e-4,-1.35389 -1.08995,-1.54249 -1.341555,-0.0179 -0.19507,1.20573 -0.79003,4.06397 -0.79003,4.06397 0,0 -1.25725,-1.50434 -2.02884,-0.75441 -0.78092,0.74991 1.49594,3.30504 1.49594,3.30504 l 0.15294,0.0876 c -0.97599,1.67497 -7.51494,7.52617 -18.95329,1.82543 -2.52468,-1.25961 -3.88444,2.74145 -1.631082,3.80797 16.400012,7.75295 22.688627,-1.61211 24.181617,-3.78104 0,0 0.97322,0.5052 2.69305,-3.21074 0.67394,-1.4572 1.44895,-2.96379 0.8756,-3.2534"
       style="fill:#fabd99;fill-opacity:1;fill-rule:nonzero;stroke:none;stroke-width:0.03527778"
       id="path740-3-6"
       inkscape:connector-curvature="0" />
    <path
       d="m 243.72909,108.34342 c -4.86742,20.33461 8.35134,29.52609 9.15089,40.80416 0.91032,12.85199 -8.98484,18.34392 -13.44581,18.25637 4.53171,-3.74063 -1.41737,-17.21459 -1.41737,-17.21459 0,0 3.46698,25.50865 -11.58619,26.53474 1.06388,-5.87367 1.24497,-17.84099 1.24497,-17.84099 0,0 -1.07892,25.42555 -17.30251,26.3551 2.58632,-5.58627 0.29272,-23.85835 0.29272,-23.85835 0,0 -3.87809,19.28248 -2.6022,23.11067 -16.05287,-3.81923 -17.92795,-20.64087 -18.2374,-27.13647 -2.70577,2.46756 -0.9529,11.19498 1.84395,15.30834 -12.75618,-5.64913 -15.69578,-12.89241 -12.94871,-28.08847 -5.83514,3.37466 -2.40395,16.90023 -1.04354,19.25776 -9.75178,-5.7771 -11.25409,-20.99786 -4.32711,-35.66875 3.50447,-7.42199 8.82725,-9.84398 8.155,-18.08908 -0.30352,-3.72268 55.70829,-1.39209 62.22331,-1.73044"
       style="fill:#782121;fill-opacity:1;fill-rule:nonzero;stroke:none;stroke-width:0.03527778"
       id="path734"
       inkscape:connector-curvature="0" />
    <path
       d="m 241.17412,116.4848 c 0,0 2.63122,6.97967 5.58649,1.20974 2.01529,3.56777 -3.52121,8.32978 -5.71674,3.93665 -2.19596,-4.39242 0.13025,-5.14639 0.13025,-5.14639"
       style="fill:#925536;fill-opacity:1;fill-rule:nonzero;stroke:none;stroke-width:0.03527778"
       id="path736"
       inkscape:connector-curvature="0" />
    <path
       d="m 184.9931,115.3725 c 0,0 -7.90529,4.19102 -6.15095,-3.77254 -4.66577,1.55488 -3.22637,10.84382 2.25125,8.67913 5.47761,-2.16399 3.8997,-4.90659 3.8997,-4.90659"
       style="fill:#925536;fill-opacity:1;fill-rule:nonzero;stroke:none;stroke-width:0.03527778"
       id="path738"
       inkscape:connector-curvature="0" />
    <path
       d="m 256.14088,138.83499 c -0.59537,-0.29864 -1.54806,1.63232 -1.83293,1.65477 0.0146,-0.0764 0.83598,-2.29244 1.02025,-2.77066 0.42974,-1.12041 -0.52104,-1.69519 -1.05584,-0.80607 -0.44838,0.74768 -1.36251,2.53493 -1.41504,2.62474 0.0176,-0.10102 0.73008,-2.43614 0.86839,-2.86498 0.40644,-1.26186 -0.85823,-1.92062 -1.35172,-0.4805 -0.33613,0.97445 -0.86627,2.71454 -0.94993,2.84926 -0.0326,-0.0742 0.0621,-1.45942 0.0625,-2.27895 -2.1e-4,-1.35391 -1.08994,-1.54252 -1.34156,-0.0179 -0.19506,1.20571 -0.79002,4.06396 -0.79002,4.06396 0,0 -1.25725,-1.50434 -2.02884,-0.75442 -0.78092,0.74993 1.49595,3.30505 1.49595,3.30505 l 0.15292,0.0876 c -0.97598,1.67496 -7.51493,7.52617 -18.95328,1.82541 -2.52468,-1.25961 -3.88445,2.74148 -1.63109,3.80799 16.40002,7.75296 22.68862,-1.6121 24.18161,-3.78105 0,0 0.97323,0.5052 2.69306,-3.21075 0.67395,-1.45719 1.44893,-2.96377 0.87559,-3.25339"
       style="fill:#fabd99;fill-opacity:1;fill-rule:nonzero;stroke:none;stroke-width:0.03527778"
       id="path740"
       inkscape:connector-curvature="0" />
    <path
       d="m 217.97549,186.69537 c 0,0 0.1491,30.80527 0.32935,34.2383 -2.14089,0.58153 -3.48817,0.15268 -3.48817,0.15268 l -1.09988,-34.9276 4.2587,0.53662"
       style="fill:#fabd99;fill-opacity:1;fill-rule:nonzero;stroke:none;stroke-width:0.03527778"
       id="path742"
       inkscape:connector-curvature="0" />
    <path
       d="m 214.32847,223.12282 c -0.40666,0.95647 -1.90388,1.69966 1.70141,4.71731 2.16863,1.81419 4.49888,3.21078 7.66722,2.07464 2.6651,-0.95647 1.0463,-4.0572 1.0463,-4.0572 l -10.41493,-2.73475"
       style="fill:#cdd0d0;fill-opacity:1;fill-rule:nonzero;stroke:none;stroke-width:0.03527778"
       id="path744"
       inkscape:connector-curvature="0" />
    <path
       d="m 214.51676,218.52672 c -0.52421,0.89139 -1.78612,3.52511 0.55598,5.88487 1.57623,1.58741 4.55099,4.29299 8.49241,3.15014 3.09061,-0.89586 1.03253,-3.67553 -0.59517,-4.77796 -1.29389,-0.88013 -3.52438,-3.00193 -4.38091,-3.83043 -0.21942,-0.21331 -0.34883,-0.3413 -0.34883,-0.3413 0,0 -0.44034,1.91075 -3.72348,-0.0853"
       style="fill:#186bbe;fill-opacity:1;fill-rule:nonzero;stroke:none;stroke-width:0.03527778"
       id="path746"
       inkscape:connector-curvature="0" />
    <path
       d="m 218.93622,219.83573 c 0,-0.65337 0.53903,-1.89503 0,-2.64269 -0.43356,-0.60398 -3.49452,-0.64891 -3.88805,0.46251 -0.23086,0.65337 0.42318,2.11505 0.96264,2.45186 0.63244,0.39517 2.3097,0.0988 2.92541,-0.27168"
       style="fill:#186bbe;fill-opacity:1;fill-rule:nonzero;stroke:none;stroke-width:0.03527778"
       id="path748"
       inkscape:connector-curvature="0" />
    <path
       d="m 219.86497,220.12536 c -0.94273,-0.18186 -2.29529,0.24699 -2.7907,0.79485 -0.49053,0.55233 0.0417,0.94524 0.4414,0.90033 0.40072,-0.0426 1.58469,-0.53213 2.89977,-0.72297 1.31381,-0.18637 0.20376,-0.82851 -0.55047,-0.97221"
       style="fill:#e0e0de;fill-opacity:1;fill-rule:nonzero;stroke:none;stroke-width:0.03527778"
       id="path750"
       inkscape:connector-curvature="0" />
    <path
       d="m 221.48271,221.8273 c -0.94273,-0.18188 -2.29508,0.24472 -2.79049,0.79481 -0.49053,0.55009 0.0417,0.94527 0.4414,0.90038 0.40051,-0.045 1.5847,-0.5344 2.89956,-0.72523 1.31402,-0.18636 0.20397,-0.82852 -0.55047,-0.96996"
       style="fill:#e0e0de;fill-opacity:1;fill-rule:nonzero;stroke:none;stroke-width:0.03527778"
       id="path752"
       inkscape:connector-curvature="0" />
    <path
       d="m 200.73017,186.9536 c -0.13534,25.6164 -0.0134,27.96047 -0.32956,33.98007 2.1411,0.58153 3.48837,0.15268 3.48837,0.15268 l 1.09967,-34.9276 -4.25848,0.79485"
       style="fill:#fabd99;fill-opacity:1;fill-rule:nonzero;stroke:none;stroke-width:0.03527778"
       id="path754"
       inkscape:connector-curvature="0" />
    <path
       d="m 204.37697,223.12282 c 0.40687,0.95647 1.90389,1.69966 -1.70119,4.71731 -2.16885,1.81419 -4.49909,3.21078 -7.66722,2.07464 -2.66532,-0.95647 -1.04652,-4.0572 -1.04652,-4.0572 l 10.41493,-2.73475"
       style="fill:#cdd0d0;fill-opacity:1;fill-rule:nonzero;stroke:none;stroke-width:0.03527778"
       id="path756"
       inkscape:connector-curvature="0" />
    <path
       d="m 204.18889,218.52672 c 0.524,0.89139 1.85623,3.71143 -0.55619,5.88487 -1.6565,1.49088 -4.55098,4.29299 -8.49241,3.15014 -3.09039,-0.89586 -1.03231,-3.67553 0.59517,-4.77796 1.29411,-0.88013 3.52459,-3.00193 4.38091,-3.83043 0.21964,-0.21331 0.34883,-0.3413 0.34883,-0.3413 0,0 0.44034,1.91075 3.72369,-0.0853"
       style="fill:#186bbe;fill-opacity:1;fill-rule:nonzero;stroke:none;stroke-width:0.03527778"
       id="path758"
       inkscape:connector-curvature="0" />
    <path
       d="m 199.76923,219.83573 c 0,-0.65337 -0.53904,-1.89503 0,-2.64269 0.43376,-0.60398 3.49451,-0.64891 3.88804,0.46251 0.23086,0.65337 -0.42318,2.11505 -0.96264,2.45186 -0.63244,0.39517 -2.3097,0.0988 -2.9254,-0.27168"
       style="fill:#186bbe;fill-opacity:1;fill-rule:nonzero;stroke:none;stroke-width:0.03527778"
       id="path760"
       inkscape:connector-curvature="0" />
    <path
       d="m 198.84069,220.12536 c 0.94273,-0.18186 2.29508,0.24699 2.79048,0.79485 0.49053,0.55233 -0.0417,0.94524 -0.44139,0.90033 -0.40052,-0.0426 -1.5847,-0.53213 -2.89957,-0.72297 -1.31402,-0.18637 -0.20396,-0.82851 0.55048,-0.97221"
       style="fill:#e0e0de;fill-opacity:1;fill-rule:nonzero;stroke:none;stroke-width:0.03527778"
       id="path762"
       inkscape:connector-curvature="0" />
    <path
       d="m 197.22273,221.8273 c 0.94273,-0.18188 2.29508,0.24472 2.79049,0.79481 0.49053,0.55009 -0.0415,0.94527 -0.4414,0.90038 -0.40051,-0.045 -1.58448,-0.5344 -2.89956,-0.72523 -1.31402,-0.18636 -0.20397,-0.82852 0.55047,-0.96996"
       style="fill:#e0e0de;fill-opacity:1;fill-rule:nonzero;stroke:none;stroke-width:0.03527778"
       id="path764"
       inkscape:connector-curvature="0" />
    <path
       d="m 202.76346,138.85745 3.60402,-0.44907 v -3.87266 h 5.65998 v 3.88165 l 3.51379,0.44008 c 0.35392,7.07486 -5.9601,7.44534 -6.37756,7.46106 v 0.002 l -0.0114,-0.002 -0.0101,0.002 v -0.002 c -0.41789,-0.0156 -6.7317,-0.3862 -6.37862,-7.46106"
       style="fill:#fabd99;fill-opacity:1;fill-rule:nonzero;stroke:none;stroke-width:0.03527778"
       id="path766"
       inkscape:connector-curvature="0" />
    <path
       d="m 209.1531,137.34863 c -1.00966,0 -1.89076,0.37944 -2.38616,0.94749 v -2.62249 h 4.77083 v 2.62249 c -0.49561,-0.56805 -1.37671,-0.94749 -2.38467,-0.94749"
       style="fill:#efa378;fill-opacity:1;fill-rule:nonzero;stroke:none;stroke-width:0.03527778"
       id="path768"
       inkscape:connector-curvature="0" />
    <path
       d="m 201.39904,138.91805 c 0.0368,6.00839 4.03334,8.23345 7.76804,7.67214 v -0.006 l 0.0246,0.004 0.0252,-0.004 v 0.006 c 3.73449,0.56131 7.4533,-1.66375 7.4893,-7.67214 1.61393,0.002 7.63334,1.51109 12.43022,5.35499 -0.0748,1.43025 -3.22489,7.44761 -4.12378,8.16385 -1.31677,-0.94301 -2.13369,-1.23265 -2.95463,-2.11729 0.13789,5.02718 2.46262,21.04278 2.23853,23.10617 0,0 -6.93566,1.18103 -15.07964,1.27534 v 0.002 h -0.0252 -0.0246 v -0.002 c -8.1442,-0.0943 -14.81489,-1.65253 -14.81489,-1.65253 -0.2243,-2.06566 1.47287,-17.79833 1.50781,-22.45282 -1.05202,0.76566 -1.78337,1.26635 -2.23197,1.48189 -0.89888,-0.71623 -4.65095,-6.76279 -4.72614,-8.19302 5.23002,-4.32216 10.8756,-4.96431 12.49715,-4.96658"
       style="fill:#186bbe;fill-opacity:1;fill-rule:nonzero;stroke:none;stroke-width:0.03527778"
       id="path770"
       inkscape:connector-curvature="0" />
    <path
       d="m 192.36655,153.31031 c 0,0 -4.24218,-4.7308 -4.8922,-8.806 0.88512,-0.64214 2.09091,-1.30449 2.09091,-1.30449 0,0 2.11165,5.01594 5.1258,8.59717 -1.34112,0.9273 -2.32451,1.51332 -2.32451,1.51332"
       style="fill:#fef5fa;fill-opacity:1;fill-rule:nonzero;stroke:none;stroke-width:0.03527778"
       id="path782"
       inkscape:connector-curvature="0" />
    <path
       d="m 225.7933,153.31031 c 0,0 4.24217,-4.7308 4.89198,-8.806 -0.88491,-0.64214 -2.0909,-1.30449 -2.0909,-1.30449 0,0 -2.11167,5.01594 -5.12561,8.59717 1.34092,0.9273 2.32453,1.51332 2.32453,1.51332"
       style="fill:#fef5fa;fill-opacity:1;fill-rule:nonzero;stroke:none;stroke-width:0.03527778"
       id="path784"
       inkscape:connector-curvature="0" />
    <path
       d="m 199.977,139.09992 c 0,0 1.9831,-0.35923 3.0815,-0.8038 0.59813,3.63061 2.07397,6.70665 6.20643,6.79421 4.13373,-0.0875 5.60914,-3.1636 6.20748,-6.79421 1.09862,0.44457 3.08151,0.8038 3.08151,0.8038 0,0 -0.65172,9.17423 -9.21253,9.15177 v 0 c -0.0256,0 -0.0504,0 -0.0765,0 -0.025,0 -0.0504,0 -0.0762,0 v 0 c -8.56039,0.0224 -9.21168,-9.15177 -9.21168,-9.15177"
       style="fill:#fef5fa;fill-opacity:1;fill-rule:nonzero;stroke:none;stroke-width:0.03527778"
       id="path786"
       inkscape:connector-curvature="0" />
    <path
       d="m 217.30958,153.27663 c 0.15695,0 0.28424,-0.13471 0.28424,-0.30087 0,-0.7589 -0.0169,-1.24613 -0.24972,-1.56945 -0.24971,-0.35026 -0.65658,-0.41537 -1.32016,-0.41537 -1.04037,0 -1.08887,-0.17738 -1.08887,-0.8779 0,-0.81505 0.22472,-0.87792 0.96158,-0.87792 h 4.29555 c 0.73686,0 0.96137,0.0628 0.96137,0.87792 0,0.70052 -0.0485,0.8779 -1.08887,0.8779 -0.66358,0 -1.07045,0.0652 -1.32016,0.41537 -0.23277,0.32332 -0.24951,0.81055 -0.24951,1.56945 0,0.16616 0.1273,0.30087 0.28424,0.30087 0.15695,0 0.28403,-0.13471 0.28403,-0.30087 0,-0.55682 0.0101,-1.03282 0.13407,-1.20572 0.0911,-0.12797 0.33422,-0.17736 0.86733,-0.17736 0.66188,0 1.0912,-0.14596 1.35129,-0.4603 0.26899,-0.32555 0.30606,-0.58601 0.30606,-1.01934 0,-0.71626 -0.15864,-1.47965 -1.52985,-1.47965 h -4.29555 c -1.3712,0 -1.52984,0.76339 -1.52984,1.47965 0,0.43333 0.0371,0.69379 0.30584,1.01934 0.2603,0.31434 0.68963,0.4603 1.35129,0.4603 0.53311,0 0.77647,0.0494 0.86733,0.17736 0.12391,0.1729 0.13408,0.6489 0.13408,1.20572 0,0.16616 0.12729,0.30087 0.28423,0.30087"
       style="fill:#ffffff;fill-opacity:1;fill-rule:nonzero;stroke:none;stroke-width:0.03527778"
       id="path788"
       inkscape:connector-curvature="0" />
    <path
       d="m 215.49846,149.66399 h 5.25396 l 1.16703,-10.06336 -5.25396,-1.17429 -1.16703,11.23765"
       style="fill:#ebf15e;fill-opacity:1;fill-rule:nonzero;stroke:none;stroke-width:0.03527778"
       id="path790"
       inkscape:connector-curvature="0" />
    <path
       d="m 200.8744,153.27663 c -0.15694,0 -0.28423,-0.13471 -0.28423,-0.30087 0,-0.7589 0.0167,-1.24613 0.2495,-1.56945 0.24972,-0.35026 0.65679,-0.41537 1.32037,-0.41537 1.04016,0 1.08866,-0.17738 1.08866,-0.8779 0,-0.81505 -0.22451,-0.87792 -0.96137,-0.87792 h -4.29555 c -0.73685,0 -0.96158,0.0628 -0.96158,0.87792 0,0.70052 0.0485,0.8779 1.08888,0.8779 0.66357,0 1.07065,0.0652 1.32037,0.41537 0.23256,0.32332 0.2495,0.81055 0.2495,1.56945 0,0.16616 -0.12729,0.30087 -0.28424,0.30087 -0.15694,0 -0.28424,-0.13471 -0.28424,-0.30087 0,-0.55682 -0.01,-1.03282 -0.13385,-1.20572 -0.0911,-0.12797 -0.33423,-0.17736 -0.86754,-0.17736 -0.66167,0 -1.09099,-0.14596 -1.3513,-0.4603 -0.26877,-0.32555 -0.30584,-0.58601 -0.30584,-1.01934 0,-0.71626 0.15864,-1.47965 1.52984,-1.47965 h 4.29555 c 1.37121,0 1.52985,0.76339 1.52985,1.47965 0,0.43333 -0.0371,0.69379 -0.30606,1.01934 -0.26009,0.31434 -0.68941,0.4603 -1.35108,0.4603 -0.53332,0 -0.77646,0.0494 -0.86754,0.17736 -0.1239,0.1729 -0.13386,0.6489 -0.13386,1.20572 0,0.16616 -0.12729,0.30087 -0.28424,0.30087"
       style="fill:#ffffff;fill-opacity:1;fill-rule:nonzero;stroke:none;stroke-width:0.03527778"
       id="path792"
       inkscape:connector-curvature="0" />
    <path
       d="m 202.68552,149.66399 h -5.25395 l -1.15792,-11.36787 5.24484,0.13022 1.16703,11.23765"
       style="fill:#ebf15e;fill-opacity:1;fill-rule:nonzero;stroke:none;stroke-width:0.03527778"
       id="path794"
       inkscape:connector-curvature="0" />
    <path
       d="m 209.17597,153.28561 c 0.0218,-0.004 5.8631,-0.0135 10.51384,-0.61071 1.55039,-0.19983 2.96565,11.78998 4.53023,11.43748 -0.0483,11.03328 2.33829,13.54575 2.7585,22.34502 -1.47541,1.88601 -28.30496,4.34237 -35.89594,-0.46254 0.44394,-6.10491 3.09802,-10.8492 3.04931,-21.88248 1.87042,0.41984 2.95675,-11.53851 4.77168,-11.32972 4.25827,0.49173 10.25247,0.49846 10.27238,0.50295"
       style="fill:#ebf15e;fill-opacity:1;fill-rule:nonzero;stroke:none;stroke-width:0.03527778"
       id="path796"
       inkscape:connector-curvature="0" />
    <path
       d="m 201.46872,158.4857 h 15.50579 c 0,0 1.99835,12.98219 -7.68459,12.98219 -9.68293,0 -7.8212,-12.98219 -7.8212,-12.98219"
       style="fill:#ef2f21;fill-opacity:1;fill-rule:nonzero;stroke:none;stroke-width:0.03527778"
       id="path798"
       inkscape:connector-curvature="0" />
    <path
       d="m 216.56637,154.84385 c 0,0.86667 0.66167,1.56719 1.47795,1.56719 0.81628,0 1.47817,-0.70052 1.47817,-1.56719 0,-0.86445 -0.66189,-1.56722 -1.47817,-1.56722 -0.81628,0 -1.47795,0.70277 -1.47795,1.56722"
       style="fill:#ffffff;fill-opacity:1;fill-rule:nonzero;stroke:none;stroke-width:0.03527778"
       id="path800"
       inkscape:connector-curvature="0" />
    <path
       d="m 198.75173,154.84385 c 0,0.86667 0.66188,1.56719 1.47816,1.56719 0.81629,0 1.47796,-0.70052 1.47796,-1.56719 0,-0.86445 -0.66167,-1.56722 -1.47796,-1.56722 -0.81628,0 -1.47816,0.70277 -1.47816,1.56722"
       style="fill:#ffffff;fill-opacity:1;fill-rule:nonzero;stroke:none;stroke-width:0.03527778"
       id="path802"
       inkscape:connector-curvature="0" />
    <path
       d="m 232.48348,70.191833 c 0.0936,-8.133083 -6.89012,-23.042412 -27.81189,-12.319407 -11.20686,5.743878 -10.12921,1.010155 -6.29306,-2.768428 -11.4123,-0.974228 -11.4824,10.394073 -9.44317,10.902632 -5.94083,-2.329701 -14.65329,0.513047 -12.52214,12.211624 2.14068,-4.056762 3.02855,-3.664071 3.02855,-3.664071 0,0 -13.6555,28.262467 4.42157,39.291737 4.30783,8.06639 40.46154,7.17884 53.65699,5.90711 6.99666,-1.65343 16.83083,-17.34994 9.41798,-35.961762 2.84746,0.653595 3.49854,5.276633 3.49854,5.276633 0,0 3.49536,-3.849976 1.58597,-10.000478 -2.31393,-7.453206 -10.22875,-13.868649 -19.53934,-8.87559"
       style="fill:#782121;fill-opacity:1;fill-rule:nonzero;stroke:none;stroke-width:0.03527778"
       id="path804"
       inkscape:connector-curvature="0" />
    <path
       d="m 237.34793,113.19344 c -1.96785,16.50102 -15.42277,25.85934 -30.41197,23.84982 -14.98794,-2.00707 -25.8271,-14.6188 -23.85883,-31.1216 1.96658,-16.500122 15.63796,-27.654454 30.62653,-25.646501 14.98857,2.007278 25.61085,16.418854 23.64427,32.918281"
       style="fill:#fabd99;fill-opacity:1;fill-rule:nonzero;stroke:none;stroke-width:0.03527778"
       id="path806"
       inkscape:connector-curvature="0" />
    <path
       d="m 237.34793,113.19344 c -1.96785,16.50102 -15.42277,25.85934 -30.41197,23.84982 -14.98794,-2.00707 -25.8271,-14.6188 -23.85883,-31.1216 1.96658,-16.500122 15.63796,-27.654454 30.62653,-25.646501 14.98857,2.007278 25.61085,16.418854 23.64427,32.918281"
       style="fill:#fabd99;fill-opacity:1;fill-rule:nonzero;stroke:none;stroke-width:0.03527778"
       id="path808"
       inkscape:connector-curvature="0" />
    <path
       d="m 236.25058,113.17324 c 0,0 0.76461,-3.30304 4.64863,-3.37533 4.09624,-0.0733 5.18109,5.72906 2.69433,8.86189 -2.48656,3.12723 -7.00026,2.71186 -8.15649,-0.0666 l 0.81353,-5.41989"
       style="fill:#fabd99;fill-opacity:1;fill-rule:nonzero;stroke:none;stroke-width:0.03527778"
       id="path810"
       inkscape:connector-curvature="0" />
    <path
       d="m 241.55304,111.34848 c -2.59372,-0.74429 -5.13874,3.96901 -1.78062,6.86315 -1.21765,-3.61646 0.26306,-4.6769 2.01551,-2.83869 0.0741,-1.13589 -0.52294,-1.91277 -2.12226,-1.93948 0.24993,-1.48704 1.88737,-2.08498 1.88737,-2.08498"
       style="fill:#d37658;fill-opacity:1;fill-rule:nonzero;stroke:none;stroke-width:0.03527778"
       id="path812"
       inkscape:connector-curvature="0" />
    <path
       d="m 212.01094,112.02118 c -0.76312,0.50496 -1.03486,-1.57259 -2.70895,-1.62312 -1.70881,-0.0518 -1.95725,2.04681 -2.7602,1.34334 -0.65531,-0.5732 0.2404,-3.11284 3.03703,-2.93389 2.33384,0.14864 3.15796,2.73341 2.43212,3.21367"
       style="fill:#ee5b63;fill-opacity:1;fill-rule:nonzero;stroke:none;stroke-width:0.03527778"
       id="path814"
       inkscape:connector-curvature="0" />
    <path
       d="m 183.02333,113.01248 c 0.79808,7.33038 4.27586,13.52197 9.46288,17.82211 0.42445,-0.22137 0.83386,-0.48608 1.22231,-0.79728 3.75312,-3.00778 4.18456,-9.10956 0.9637,-13.62616 -2.95189,-4.13917 -7.94596,-5.51149 -11.64889,-3.39867"
       style="fill:#f79883;fill-opacity:1;fill-rule:nonzero;stroke:none;stroke-width:0.03527778"
       id="path816"
       inkscape:connector-curvature="0" />
    <path
       d="m 235.74692,120.04334 c -2.93473,-3.0208 -7.93897,-3.27744 -11.8628,-0.38237 -4.38472,3.23523 -5.75931,9.17716 -3.07155,13.27095 0.47698,0.72635 1.05138,1.34381 1.69568,1.85325 5.98615,-2.81264 10.76504,-7.88251 13.23867,-14.74183"
       style="fill:#f79883;fill-opacity:1;fill-rule:nonzero;stroke:none;stroke-width:0.03527778"
       id="path818"
       inkscape:connector-curvature="0" />
    <path
       d="m 198.12119,113.08454 c -0.53458,9.96254 3.28081,18.26603 9.03229,19.04448 5.75147,0.77844 11.41251,-6.24256 13.25645,-16.02794 l -22.28874,-3.01654"
       style="fill:#712131;fill-opacity:1;fill-rule:nonzero;stroke:none;stroke-width:0.03527778"
       id="path820"
       inkscape:connector-curvature="0" />
    <path
       d="m 200.77804,127.021 c 1.58491,2.87284 3.78235,4.75707 6.37544,5.10802 2.5933,0.35092 5.16669,-0.88756 7.3815,-3.24602 -1.7785,-1.26835 -4.08904,-2.19722 -6.68361,-2.54837 -2.59458,-0.35118 -5.05105,-0.0675 -7.07333,0.68637"
       style="fill:#ee5b63;fill-opacity:1;fill-rule:nonzero;stroke:none;stroke-width:0.03527778"
       id="path822"
       inkscape:connector-curvature="0" />
    <path
       d="m 208.79155,118.5289 c 5.54476,0.75038 10.26899,0.27146 11.52074,-2.44106 l -22.09367,-2.99005 c 0.56869,2.95882 5.02797,4.68073 10.57293,5.43111"
       style="fill:#ffffff;fill-opacity:1;fill-rule:nonzero;stroke:none;stroke-width:0.03527778"
       id="path824"
       inkscape:connector-curvature="0" />
    <path
       d="m 191.42445,116.613 c -0.262,0.41898 -0.79447,0.53348 -1.18969,0.25574 -0.39501,-0.27751 -0.50303,-0.84221 -0.24103,-1.26094 0.26179,-0.41897 0.79447,-0.53347 1.18948,-0.25575 0.39522,0.27752 0.50302,0.84221 0.24124,1.26095"
       style="fill:#ee5b63;fill-opacity:1;fill-rule:nonzero;stroke:none;stroke-width:0.03527778"
       id="path826"
       inkscape:connector-curvature="0" />
    <path
       d="m 193.70301,119.30576 c -0.262,0.41875 -0.79468,0.53326 -1.18969,0.25552 -0.39501,-0.27753 -0.50303,-0.8422 -0.24124,-1.26094 0.262,-0.41898 0.79447,-0.53326 1.18969,-0.25575 0.39501,0.27774 0.50303,0.84221 0.24124,1.26117"
       style="fill:#ee5b63;fill-opacity:1;fill-rule:nonzero;stroke:none;stroke-width:0.03527778"
       id="path828"
       inkscape:connector-curvature="0" />
    <path
       d="m 190.74753,119.53321 c -0.26179,0.41876 -0.79447,0.53326 -1.18948,0.25551 -0.39522,-0.27751 -0.50302,-0.84219 -0.24124,-1.26094 0.262,-0.41875 0.79447,-0.53326 1.18969,-0.25574 0.39501,0.27775 0.50303,0.84219 0.24103,1.26117"
       style="fill:#ee5b63;fill-opacity:1;fill-rule:nonzero;stroke:none;stroke-width:0.03527778"
       id="path830"
       inkscape:connector-curvature="0" />
    <path
       d="m 226.7284,121.55599 c -0.42847,0.21531 -0.94018,0.0215 -1.1433,-0.43244 -0.20291,-0.45399 -0.0204,-0.99668 0.40814,-1.21178 0.42826,-0.21532 0.94019,-0.0215 1.14309,0.43245 0.20312,0.45399 0.0203,0.99668 -0.40793,1.21177"
       style="fill:#ee5b63;fill-opacity:1;fill-rule:nonzero;stroke:none;stroke-width:0.03527778"
       id="path832"
       inkscape:connector-curvature="0" />
    <path
       d="m 227.35407,124.89607 c -0.42848,0.21509 -0.94019,0.0215 -1.14331,-0.43243 -0.20291,-0.45423 -0.0203,-0.9967 0.40814,-1.21203 0.42826,-0.2151 0.94019,-0.0215 1.1431,0.43268 0.20311,0.45399 0.0204,0.99645 -0.40793,1.21178"
       style="fill:#ee5b63;fill-opacity:1;fill-rule:nonzero;stroke:none;stroke-width:0.03527778"
       id="path834"
       inkscape:connector-curvature="0" />
    <path
       d="m 224.50046,123.68227 c -0.42826,0.21532 -0.94019,0.0215 -1.14309,-0.43245 -0.20312,-0.45421 -0.0204,-0.99667 0.40793,-1.21199 0.42826,-0.21511 0.94018,-0.0215 1.14309,0.43267 0.20312,0.45399 0.0204,0.99666 -0.40793,1.21177"
       style="fill:#ee5b63;fill-opacity:1;fill-rule:nonzero;stroke:none;stroke-width:0.03527778"
       id="path836"
       inkscape:connector-curvature="0" />
    <path
       d="m 216.72649,109.31854 c 0.76863,2.26323 3.87004,5.26137 7.12353,5.70907 3.25327,0.44792 4.99894,-1.54476 6.69865,-3.8062 0.19973,-1.3649 -1.87233,-6.60785 -5.12581,-7.05578 -3.25349,-0.44795 -6.86323,2.08743 -8.69637,5.15291"
       style="fill:#ffffff;fill-opacity:1;fill-rule:nonzero;stroke:none;stroke-width:0.03527778"
       id="path838"
       inkscape:connector-curvature="0" />
    <path
       d="m 220.77021,108.18042 c -0.82539,1.93655 -0.0972,4.17755 1.62685,5.00561 1.72512,0.82649 3.79421,-0.0728 4.62066,-2.00976 0.82624,-1.93945 0.097,-4.17845 -1.62685,-5.00674 -1.72618,-0.82603 -3.79442,0.0744 -4.62066,2.01089"
       style="fill:#5cc8c0;fill-opacity:1;fill-rule:nonzero;stroke:none;stroke-width:0.03527778"
       id="path840"
       inkscape:connector-curvature="0" />
    <path
       d="m 222.10901,108.8221 c -0.47168,1.10671 -0.0557,2.38741 0.92959,2.86049 0.98594,0.47218 2.16822,-0.0416 2.64054,-1.14845 0.4721,-1.10828 0.0553,-2.38764 -0.9296,-2.86095 -0.98657,-0.47217 -2.16843,0.0425 -2.64053,1.14891"
       style="fill:#0c0907;fill-opacity:1;fill-rule:nonzero;stroke:none;stroke-width:0.03527778"
       id="path842"
       inkscape:connector-curvature="0" />
    <path
       d="m 224.72285,108.88855 c -0.18299,0.59166 0.0972,1.21652 0.62143,1.39816 0.52442,0.18074 1.0965,-0.14728 1.28076,-0.73802 0.18131,-0.58872 -0.0953,-1.21425 -0.61761,-1.40061 -0.52696,-0.17739 -1.10349,0.15132 -1.28458,0.74047"
       style="fill:#ffffff;fill-opacity:1;fill-rule:nonzero;stroke:none;stroke-width:0.03527778"
       id="path844"
       inkscape:connector-curvature="0" />
    <path
       d="m 221.12773,110.35832 c -0.1148,0.36688 0.0599,0.75263 0.38675,0.86847 0.32469,0.11294 0.682,-0.0923 0.79468,-0.45959 0.10759,-0.36552 -0.0599,-0.75285 -0.38739,-0.86647 -0.32448,-0.11269 -0.68115,0.0923 -0.79404,0.45759"
       style="fill:#ffffff;fill-opacity:1;fill-rule:nonzero;stroke:none;stroke-width:0.03527778"
       id="path846"
       inkscape:connector-curvature="0" />
    <path
       d="m 230.54867,111.22141 c 0,0 -1.59529,-8.13376 -9.74182,-5.95673 9.38663,-5.620158 9.74182,5.95673 9.74182,5.95673"
       style="fill:#6d3a2c;fill-opacity:1;fill-rule:nonzero;stroke:none;stroke-width:0.03527778"
       id="path848"
       inkscape:connector-curvature="0" />
    <path
       d="m 202.87974,107.29867 c -1.32037,1.9561 -5.07434,3.94655 -8.31999,3.43889 -3.24565,-0.50743 -4.41374,-2.92852 -5.46893,-5.5948 0.158,-1.37117 3.4979,-5.818418 6.74334,-5.310979 3.24565,0.507429 6.06854,3.988289 7.04558,7.466889"
       style="fill:#ffffff;fill-opacity:1;fill-rule:nonzero;stroke:none;stroke-width:0.03527778"
       id="path850"
       inkscape:connector-curvature="0" />
    <path
       d="m 199.01225,104.08771 c 0.82539,1.93656 0.0972,4.17758 -1.62685,5.00585 -1.72534,0.82627 -3.79443,-0.0728 -4.62067,-2.00997 -0.82624,-1.93925 -0.097,-4.17823 1.62664,-5.00674 1.72639,-0.82604 3.79442,0.0744 4.62088,2.01086"
       style="fill:#5cc8c0;fill-opacity:1;fill-rule:nonzero;stroke:none;stroke-width:0.03527778"
       id="path852"
       inkscape:connector-curvature="0" />
    <path
       d="m 197.67345,104.72963 c 0.47147,1.10648 0.0555,2.3872 -0.9296,2.86048 -0.98594,0.47218 -2.16822,-0.0418 -2.64054,-1.14868 -0.4721,-1.10802 -0.0555,-2.38762 0.92961,-2.86092 0.98657,-0.47198 2.16821,0.0424 2.64053,1.14912"
       style="fill:#0c0907;fill-opacity:1;fill-rule:nonzero;stroke:none;stroke-width:0.03527778"
       id="path854"
       inkscape:connector-curvature="0" />
    <path
       d="m 195.29555,104.57831 c 0.0244,0.62216 -0.40581,1.14262 -0.95692,1.16619 -0.5509,0.0224 -1.01728,-0.45804 -1.04291,-1.07974 -0.0233,-0.61881 0.40327,-1.14062 0.95374,-1.16936 0.5528,-0.0189 1.02321,0.46388 1.04609,1.08291"
       style="fill:#ffffff;fill-opacity:1;fill-rule:nonzero;stroke:none;stroke-width:0.03527778"
       id="path856"
       inkscape:connector-curvature="0" />
    <path
       d="m 198.37769,107.02969 c 0.0165,0.38597 -0.25078,0.70705 -0.59495,0.72434 -0.34143,0.0148 -0.63245,-0.28561 -0.64685,-0.67179 -0.01,-0.38259 0.25099,-0.70705 0.59517,-0.72186 0.34142,-0.015 0.6318,0.28516 0.64663,0.66931"
       style="fill:#ffffff;fill-opacity:1;fill-rule:nonzero;stroke:none;stroke-width:0.03527778"
       id="path858"
       inkscape:connector-curvature="0" />
    <path
       d="m 189.09082,105.14276 c 0,0 3.62287,-7.366757 10.90313,-2.92201 -7.58992,-8.115547 -10.90313,2.92201 -10.90313,2.92201"
       style="fill:#6d3a2c;fill-opacity:1;fill-rule:nonzero;stroke:none;stroke-width:0.03527778"
       id="path860"
       inkscape:connector-curvature="0" />
    <path
       d="m 183.29317,105.5981 c 1.87063,-6.788598 10.17199,-7.378417 9.13098,-18.773897 1.87148,12.44941 16.10985,14.858597 18.57967,13.669957 -10.86437,-6.043181 -8.61546,-15.286567 -8.61546,-15.286567 0,0 2.28831,14.957167 24.29239,16.124927 -2.57043,-3.388557 -4.33897,-7.338691 -2.09578,-10.287184 3.62096,12.628804 12.17966,10.189524 7.68056,22.929244 9.08121,-2.23473 17.44082,-25.545002 2.48973,-35.789779 -14.95023,-10.245659 -34.03801,-13.660283 -45.59942,-0.924375 -12.16038,13.395108 -5.86267,28.337674 -5.86267,28.337674"
       style="fill:#782121;fill-opacity:1;fill-rule:nonzero;stroke:none;stroke-width:0.03527778"
       id="path862"
       inkscape:connector-curvature="0" />
    <path
       d="m 187.01008,98.275351 c -0.0402,2.352169 -3.39116,9.392009 1.33541,10.241839 -6.97717,1.98327 -5.08917,-6.34582 -5.08917,-6.34582 0,0 2.87563,-4.776827 3.75376,-3.896019"
       style="fill:#c87e52;fill-opacity:1;fill-rule:nonzero;stroke:none;stroke-width:0.03527778"
       id="path864"
       inkscape:connector-curvature="0" />
    <path
       d="m 240.23267,95.929045 c -1.75097,-2.624299 -6.55696,-6.57283 -9.1708,-4.923457 -1.83421,1.157446 -1.4034,12.411892 1.37416,12.898902 2.36435,0.41448 7.80871,-4.327328 7.80871,-4.327328 0,0 6.21426,4.816808 8.74254,3.392418 2.04494,-1.15208 2.00491,-11.631686 -0.62461,-12.755681 -3.85839,-1.649391 -8.06964,4.883039 -8.13,5.715146"
       style="fill:#f1457d;fill-opacity:1;fill-rule:nonzero;stroke:none;stroke-width:0.03527778"
       id="path866"
       inkscape:connector-curvature="0" />
    <path
       d="m 240.4523,94.47949 c 1.18165,0.284692 1.36528,5.79708 0.0404,6.00971 -1.32482,0.21285 -2.10319,-6.506375 -0.0404,-6.00971"
       style="fill:#f89dd3;fill-opacity:1;fill-rule:nonzero;stroke:none;stroke-width:0.03527778"
       id="path868"
       inkscape:connector-curvature="0" />
    <path
       d="m 243.90721,97.761403 c 0.5168,-0.105812 2.84132,0.36127 2.6147,1.12354 -0.29102,0.39093 -0.67798,-0.204531 -1.00691,-0.272341 -0.14297,-0.0777 -0.7305,-0.24946 -0.89973,-0.260019 -0.23468,-0.0315 -0.4719,-0.0389 -0.70806,-0.0231 -0.34566,0.006 -0.34693,-0.566261 0,-0.568061"
       style="fill:#d3295f;fill-opacity:1;fill-rule:nonzero;stroke:none;stroke-width:0.03527778"
       id="path870"
       inkscape:connector-curvature="0" />
    <path
       d="m 243.67571,95.616281 c 0.75169,-0.495089 1.66392,-0.722998 2.5448,-0.624422 0.34503,0.0021 0.34715,0.573682 0,0.56806 -0.63074,-0.07826 -1.25746,0.04133 -1.78422,0.273465 -0.16944,0.07815 -0.33337,0.169522 -0.49032,0.273257 -0.29609,0.18837 -0.56995,-0.304464 -0.27026,-0.49036"
       style="fill:#d3295f;fill-opacity:1;fill-rule:nonzero;stroke:none;stroke-width:0.03527778"
       id="path872"
       inkscape:connector-curvature="0" />
    <path
       d="m 237.42121,98.257153 c -0.51701,-0.10581 -2.84132,0.361278 -2.61469,1.123569 0.29101,0.39089 0.67798,-0.204549 1.00691,-0.27237 0.14275,-0.0777 0.7305,-0.249449 0.89952,-0.260001 0.23488,-0.0316 0.4721,-0.0388 0.70826,-0.02299 0.34587,0.006 0.34693,-0.566039 0,-0.568058"
       style="fill:#d3295f;fill-opacity:1;fill-rule:nonzero;stroke:none;stroke-width:0.03527778"
       id="path874"
       inkscape:connector-curvature="0" />
    <path
       d="m 237.65271,96.112044 c -0.75168,-0.495102 -1.66413,-0.722988 -2.5448,-0.624433 -0.34502,0.0021 -0.34714,0.573672 0,0.568068 0.63075,-0.07826 1.25747,0.04133 1.78422,0.273458 0.16944,0.07815 0.33338,0.169518 0.49032,0.273256 0.2961,0.188389 0.56996,-0.304453 0.27026,-0.490349"
       style="fill:#d3295f;fill-opacity:1;fill-rule:nonzero;stroke:none;stroke-width:0.03527778"
       id="path876"
       inkscape:connector-curvature="0" />
    <path
       d="m 162.18936,140.81623 c 0.59539,-0.29865 1.54805,1.63232 1.83293,1.65477 -0.0147,-0.0764 -0.83598,-2.29245 -1.02023,-2.77068 -0.42976,-1.12041 0.52101,-1.69519 1.05582,-0.80606 0.44836,0.74768 1.36251,2.53492 1.41505,2.62473 -0.0176,-0.10102 -0.7301,-2.43614 -0.86839,-2.86497 -0.40646,-1.26185 0.85821,-1.9206 1.35171,-0.4805 0.33613,0.97445 0.86628,2.71454 0.94993,2.84927 0.0327,-0.0742 -0.062,-1.45943 -0.0625,-2.27897 2.1e-4,-1.35389 1.08994,-1.54249 1.34156,-0.0179 0.19506,1.20573 0.79003,4.06397 0.79003,4.06397 0,0 1.25725,-1.50434 2.02884,-0.75441 0.78091,0.74991 -1.49595,3.30504 -1.49595,3.30504 l -0.15293,0.0876 c 0.97598,1.67497 7.51493,7.52617 18.95329,1.82543 2.52467,-1.25961 3.88444,2.74145 1.63108,3.80797 -16.40002,7.75295 -22.68862,-1.61211 -24.1816,-3.78104 0,0 -0.97323,0.5052 -2.69307,-3.21074 -0.67393,-1.4572 -1.44894,-2.96379 -0.87559,-3.2534"
       style="fill:#fabd99;fill-opacity:1;fill-rule:nonzero;stroke:none;stroke-width:0.03527778"
       id="path740-3"
       inkscape:connector-curvature="0" />
    <text
       xml:space="preserve"
       style="font-style:normal;font-weight:normal;font-size:10.58333302px;line-height:1.25;font-family:sans-serif;letter-spacing:0px;word-spacing:0px;fill:#000000;fill-opacity:1;stroke:none;stroke-width:0.26458332"
       x="61.365086"
       y="34.838448"
       id="text12453"><tspan
         sodipodi:role="line"
         id="tspan12451"
         x="61.365086"
         y="34.838448"
         style="font-style:normal;font-variant:normal;font-weight:bold;font-stretch:normal;font-size:12.69999981px;font-family:sans-serif;-inkscape-font-specification:'sans-serif Bold';stroke-width:0.26458332">When is your Birthday?</tspan></text>
  </g>
  <g
     inkscape:groupmode="layer"
     id="layer2"
     inkscape:label="Layer 3" />
  <g
     inkscape:label="Layer 1"
     inkscape:groupmode="layer"
     id="layer1"
     transform="translate(0,-32.41665)">
    <text
       xml:space="preserve"
       style="font-style:normal;font-variant:normal;font-weight:bold;font-stretch:normal;font-size:10.58333302px;line-height:1.25;font-family:sans-serif;-inkscape-font-specification:'sans-serif Bold';letter-spacing:0px;word-spacing:0px;fill:#000000;fill-opacity:1;stroke:none;stroke-width:0.26458332"
       x="150.05655"
       y="89.869026"
       id="text8811" />
    <text
       xml:space="preserve"
       style="font-style:normal;font-variant:normal;font-weight:bold;font-stretch:normal;font-size:10.58333302px;line-height:1.25;font-family:sans-serif;-inkscape-font-specification:'sans-serif Bold';letter-spacing:0px;word-spacing:0px;fill:#000000;fill-opacity:1;stroke:none;stroke-width:0.26458332"
       x="160.63989"
       y="97.806526"
       id="text8815" />
    <text
       xml:space="preserve"
       style="font-style:normal;font-variant:normal;font-weight:bold;font-stretch:normal;font-size:10.58333302px;line-height:1.25;font-family:sans-serif;-inkscape-font-specification:'sans-serif Bold';letter-spacing:0px;word-spacing:0px;fill:#000000;fill-opacity:1;stroke:none;stroke-width:0.26458332"
       x="156.86011"
       y="88.7351"
       id="text8819" />
    <flowRoot
       xml:space="preserve"
       id="flowRoot8821"
       style="font-style:normal;font-variant:normal;font-weight:bold;font-stretch:normal;font-size:40px;line-height:1.25;font-family:sans-serif;-inkscape-font-specification:'sans-serif Bold';letter-spacing:0px;word-spacing:0px;fill:#000000;fill-opacity:1;stroke:none"><flowRegion
         id="flowRegion8823"
         style="font-style:normal;font-variant:normal;font-weight:bold;font-stretch:normal;font-family:sans-serif;-inkscape-font-specification:'sans-serif Bold'" /><flowPara
         id="flowPara8827" /></flowRoot>    <flowRoot
       xml:space="preserve"
       id="flowRoot8829"
       style="font-style:normal;font-variant:normal;font-weight:bold;font-stretch:normal;font-size:40px;line-height:1.25;font-family:sans-serif;-inkscape-font-specification:'sans-serif Bold';letter-spacing:0px;word-spacing:0px;fill:#000000;fill-opacity:1;stroke:none"><flowRegion
         id="flowRegion8831"
         style="font-style:normal;font-variant:normal;font-weight:bold;font-stretch:normal;font-family:sans-serif;-inkscape-font-specification:'sans-serif Bold'" /><flowPara
         id="flowPara8835" /></flowRoot>    <flowRoot
       xml:space="preserve"
       id="flowRoot8837"
       style="font-style:normal;font-variant:normal;font-weight:bold;font-stretch:normal;font-size:40px;line-height:1.25;font-family:sans-serif;-inkscape-font-specification:'sans-serif Bold';letter-spacing:0px;word-spacing:0px;fill:#000000;fill-opacity:1;stroke:none"><flowRegion
         id="flowRegion8839"
         style="font-style:normal;font-variant:normal;font-weight:bold;font-stretch:normal;font-family:sans-serif;-inkscape-font-specification:'sans-serif Bold'" /><flowPara
         id="flowPara8843" /></flowRoot>    <text
       xml:space="preserve"
       style="font-style:normal;font-variant:normal;font-weight:bold;font-stretch:normal;font-size:10.58333302px;line-height:1.25;font-family:sans-serif;-inkscape-font-specification:'sans-serif Bold';letter-spacing:0px;word-spacing:0px;fill:#000000;fill-opacity:1;stroke:none;stroke-width:0.26458332"
       x="209.39882"
       y="107.25594"
       id="text8847" />
    <flowRoot
       xml:space="preserve"
       id="flowRoot8849"
       style="font-style:normal;font-variant:normal;font-weight:bold;font-stretch:normal;font-size:40px;line-height:1.25;font-family:sans-serif;-inkscape-font-specification:'sans-serif Bold';letter-spacing:0px;word-spacing:0px;fill:#000000;fill-opacity:1;stroke:none"><flowRegion
         id="flowRegion8851"
         style="font-style:normal;font-variant:normal;font-weight:bold;font-stretch:normal;font-family:sans-serif;-inkscape-font-specification:'sans-serif Bold'" /><flowPara
         id="flowPara8855" /></flowRoot>    <flowRoot
       xml:space="preserve"
       id="flowRoot8857"
       style="font-style:normal;font-variant:normal;font-weight:bold;font-stretch:normal;font-size:40px;line-height:1.25;font-family:sans-serif;-inkscape-font-specification:'sans-serif Bold';letter-spacing:0px;word-spacing:0px;fill:#000000;fill-opacity:1;stroke:none"><flowRegion
         id="flowRegion8859"
         style="font-style:normal;font-variant:normal;font-weight:bold;font-stretch:normal;font-family:sans-serif;-inkscape-font-specification:'sans-serif Bold'" /><flowPara
         id="flowPara8863" /></flowRoot>    <flowRoot
       xml:space="preserve"
       id="flowRoot8865"
       style="font-style:normal;font-variant:normal;font-weight:bold;font-stretch:normal;font-size:40px;line-height:1.25;font-family:sans-serif;-inkscape-font-specification:'sans-serif Bold';letter-spacing:0px;word-spacing:0px;fill:#000000;fill-opacity:1;stroke:none"><flowRegion
         id="flowRegion8867"
         style="font-style:normal;font-variant:normal;font-weight:bold;font-stretch:normal;font-family:sans-serif;-inkscape-font-specification:'sans-serif Bold'" /><flowPara
         id="flowPara8871" /></flowRoot>    <flowRoot
       xml:space="preserve"
       id="flowRoot8873"
       style="font-style:normal;font-variant:normal;font-weight:bold;font-stretch:normal;font-size:40px;line-height:1.25;font-family:sans-serif;-inkscape-font-specification:'sans-serif Bold';letter-spacing:0px;word-spacing:0px;fill:#000000;fill-opacity:1;stroke:none"><flowRegion
         id="flowRegion8875"
         style="font-style:normal;font-variant:normal;font-weight:bold;font-stretch:normal;font-family:sans-serif;-inkscape-font-specification:'sans-serif Bold'" /><flowPara
         id="flowPara8879" /></flowRoot>    <text
       xml:space="preserve"
       style="font-style:normal;font-weight:normal;font-size:10.58333302px;line-height:1.25;font-family:sans-serif;letter-spacing:0px;word-spacing:0px;fill:#000000;fill-opacity:1;stroke:none;stroke-width:0.26458332"
       x="101.02788"
       y="69.125984"
       id="text977"><tspan
         sodipodi:role="line"
         id="tspan975"
         x="101.02788"
         y="78.489754"
         style="stroke-width:0.26458332" /><tspan
         sodipodi:role="line"
         x="101.02788"
         y="91.718918"
         style="stroke-width:0.26458332"
         id="tspan979" /><tspan
         sodipodi:role="line"
         x="101.02788"
         y="104.94809"
         style="stroke-width:0.26458332"
         id="tspan981" /><tspan
         sodipodi:role="line"
         x="101.02788"
         y="118.17725"
         style="stroke-width:0.26458332"
         id="tspan983" /><tspan
         sodipodi:role="line"
         x="101.02788"
         y="131.40642"
         style="stroke-width:0.26458332"
         id="tspan985" /><tspan
         sodipodi:role="line"
         x="101.02788"
         y="144.63559"
         style="stroke-width:0.26458332"
         id="tspan987" /><tspan
         sodipodi:role="line"
         x="101.02788"
         y="157.86475"
         style="stroke-width:0.26458332"
         id="tspan989" /><tspan
         sodipodi:role="line"
         x="101.02788"
         y="171.09392"
         style="stroke-width:0.26458332"
         id="tspan991" /><tspan
         sodipodi:role="line"
         x="101.02788"
         y="184.32309"
         style="stroke-width:0.26458332"
         id="tspan993" /><tspan
         sodipodi:role="line"
         x="101.02788"
         y="197.55225"
         style="stroke-width:0.26458332"
         id="tspan995" /><tspan
         sodipodi:role="line"
         x="101.02788"
         y="210.78142"
         style="stroke-width:0.26458332"
         id="tspan997" /><tspan
         sodipodi:role="line"
         x="101.02788"
         y="224.01059"
         style="stroke-width:0.26458332"
         id="tspan999" /><tspan
         sodipodi:role="line"
         x="101.02788"
         y="237.23975"
         style="stroke-width:0.26458332"
         id="tspan1001" /><tspan
         sodipodi:role="line"
         x="101.02788"
         y="250.46892"
         style="stroke-width:0.26458332"
         id="tspan1003" /><tspan
         sodipodi:role="line"
         x="101.02788"
         y="263.69809"
         style="stroke-width:0.26458332"
         id="tspan1005" /><tspan
         sodipodi:role="line"
         x="101.02788"
         y="276.92725"
         style="stroke-width:0.26458332"
         id="tspan1007" /><tspan
         sodipodi:role="line"
         x="101.02788"
         y="290.1564"
         style="stroke-width:0.26458332"
         id="tspan1009" /><tspan
         sodipodi:role="line"
         x="101.02788"
         y="303.38559"
         style="stroke-width:0.26458332"
         id="tspan1011" /><tspan
         sodipodi:role="line"
         x="101.02788"
         y="316.61475"
         style="stroke-width:0.26458332"
         id="tspan1013" /><tspan
         sodipodi:role="line"
         x="101.02788"
         y="329.8439"
         style="stroke-width:0.26458332"
         id="tspan1015" /><tspan
         sodipodi:role="line"
         x="101.02788"
         y="343.07309"
         style="stroke-width:0.26458332"
         id="tspan1017" /><tspan
         sodipodi:role="line"
         x="101.02788"
         y="356.30225"
         style="stroke-width:0.26458332"
         id="tspan1019" /><tspan
         sodipodi:role="line"
         x="101.02788"
         y="369.5314"
         style="stroke-width:0.26458332"
         id="tspan1021" /><tspan
         sodipodi:role="line"
         x="101.02788"
         y="382.76059"
         style="stroke-width:0.26458332"
         id="tspan1023" /></text>
  </g>
</svg>
