<svg id="Layer_2" data-name="Layer 2" xmlns="http://www.w3.org/2000/svg" viewBox="0 0 1000 1000"><defs><style>.cls-1{fill:#95a4ab;stroke:#7e9096;}.cls-1,.cls-3{stroke-miterlimit:10;stroke-width:3px;}.cls-2{fill:#a6b4bd;}.cls-3{fill:#ea4b5f;stroke:#e51a1a;}.cls-4{fill:#f2a2b0;}</style></defs><title>Untitled-1</title><path class="cls-1" d="M661.5,717.5l-5.31,5.29.31,98.71s29,28,83,26c0,0,28-3,44-21l3.89-102.65L701.5,715.5Z"/><path class="cls-1" d="M675.5,705.5s-10,4-15,8-7,16,1,23,33,20,63,17,54-12,60-20,2-15-3-18-21-5-35-7S675.5,705.5,675.5,705.5Z"/><path class="cls-2" d="M686.5,759.5v-7s-28-6-29-14l2,81s17,11,27,14Z"/><path class="cls-1" d="M606.5,406.5s70-16,72-2-5,225-5,225l-4,100s37,28,97,3v-301s5-76-23-96-55-25-91-23-104,14-104,14Z"/><path class="cls-2" d="M594.5,325.5c8-1,109-3,122,4s30,17,34,23a155.24,155.24,0,0,1,8,14,80.1,80.1,0,0,0-26-33c-19-14-39-16-53-17s-54,1-63,2-22,4-22,4Z"/><path class="cls-1" d="M402.5,459.5s3,17,79,7,109-22,109-22,32-24,30-78-36-74-47-78-115,7-115,7-75,4-77,5-4,56-4,56Z"/><path class="cls-1" d="M477.5,371.5s0,54-16,72-44,27-65,16-46-79-41-118,24-50,58-39S472.5,336.5,477.5,371.5Z"/><path class="cls-1" d="M240.5,570.5l-71.14,4.42,8.14,43.58s23,31,75,31,84-26,91-35l3-52Z"/><path class="cls-1" d="M177.5,549.5s-12,19-7,30,26,33,65,35,75-7,89-17,26-25,21-35-32-17-32-17Z"/><path class="cls-1" d="M336.5,573.5s-14-78,0-96,63-28,76-30,37-36,30-61-10-37-35-44-163,27-184,39-55,57-56,110,14,89,17,94S255.5,638.5,336.5,573.5Z"/><path class="cls-1" d="M457.5,305.5c.84.54,33,44,49,48s35-2,45-9,14-52,12-63-7-60-7-60h-130l-13,4,8.44,72.05S443.5,296.5,457.5,305.5Z"/><path class="cls-1" d="M431.5,231.5s72,10,97,3,30-10,29-13-15-11-30-13-85-1-96,2-16,6-18,9S410.5,230.5,431.5,231.5Z"/><path class="cls-1" d="M453.5,224.5s33,7,47,4,18-4,18-4v-100l-69,2Z"/><path class="cls-2" d="M462.5,132.5s5,68,5,73,3,18,0,18-13,4-13-13v-74Z"/><path class="cls-3" d="M273.52,116.77l3.41-.37c20.47-2.18,126.61-13.2,140.09-7.74,14.93,6,12.58,10.29,22.24,12.86s9.61-22.37,9.61-22.37,26.43-9.74,40.5-9.16,34.29,10.11,36.36,12.37,2,56.47,2,56.47l-90.08,1.67s-3.2-27.25-9.65-28.6S226.2,159.26,218.76,155.7,186.33,127.23,273.52,116.77Z"/><path class="cls-2" d="M418.5,357.5c-2,0-68,11-81,21s-39,33-47,59-15,88-14,100,9,49,8,52-79,6-90-6-29-92-19-119,27-66,47-75,100-34,116-35,52-10,60-9S418.5,357.5,418.5,357.5Z"/><path class="cls-2" d="M418.5,232.5c2,0,42,6,55,8s25-1,29,2-15,54-22,60-29-8-37-10-17,6-19-2S418.5,232.5,418.5,232.5Z"/><path class="cls-4" d="M516.5,106.5s-18-9-25-9-20,0-27,3-9,5-10,10,14,11,29,8,27-4,30-6S516.5,106.5,516.5,106.5Z"/><path class="cls-4" d="M409.5,122.5c-8-2-43-4-59,0s-41,9-53,10-32,10-48,10-28,3-23-5,35-15,52-17,63-7,74-7,32-3,46,0,22,8,20,9S409.5,122.5,409.5,122.5Z"/><path class="cls-2" d="M682.5,403.5s14,53,13,83-9,141-9,141v106l-14-4,9-246Z"/></svg>