<svg id="Layer_2" data-name="Layer 2" xmlns="http://www.w3.org/2000/svg" viewBox="0 0 1000 1000"><defs><style>.cls-1{fill:#f8c5b4;}.cls-1,.cls-3{stroke:#e29b88;stroke-miterlimit:10;stroke-width:3px;}.cls-2{fill:#f3b8b0;}.cls-3{fill:#f6f4f5;}.cls-4{fill:#e29b88;}</style></defs><title>bolster</title><path class="cls-1" d="M727.5,134.5c0-2-12-31-4-38s23-1,26,0,14-11,25-7,20,11,20,15,16,3,21,7,1,16,6,18,12-3,18,2,8,17,9,21,13,8,13,17-23,32-54,29S727.5,134.5,727.5,134.5Z"/><path class="cls-2" d="M837.5,136.5s1,30-7,37-33,15-33,15,31,8,45-3,17-18,15-22-12-6-12-6S845.5,140.5,837.5,136.5Z"/><path class="cls-1" d="M254.5,869.5s70,52,170-54,347-441,347-441,73-92,68-131-3-44-26-69-60-53-107-56-80,26-133,68-204,206-319,355-114,169-115,197,21,71,37,88S254.5,869.5,254.5,869.5Z"/><path class="cls-2" d="M813.5,187.5s11,58-50,136-142,199-168,229-116,148-148,181-108,111-121,118-35,8-35,8l-13,16s43,18,120-39c0,0,132-144,145-167s145-190,145-190l102-139s47-66,44-97-3-41-13-56S813.5,187.5,813.5,187.5Z"/><path class="cls-1" d="M191.5,796.5s-9-27-4-71"/><path class="cls-1" d="M230.5,793.5c2-2,0-38,22-65"/><path class="cls-1" d="M252.5,810.5c1-2,39-45,43-57"/><path class="cls-1" d="M275.5,830.5c5-1,62-14,69-34"/><path class="cls-1" d="M278.5,851.5c3,2,46.05,5.71,55.53-5.65"/><path class="cls-1" d="M196.5,784.5s-18-6-25-6-26,2-29,10,2,25,9,27,13,0,11,6-3,22,4,24,10,0,10,4,1,16,8,20,25,5,31,4,0,6,10,10,35-2,38-5,8,3,10,4,32,8,28-32c0,0-11-13-11-19s-8-21-16-24-16-1-20-5-8-17-17-20-23-10-29-4S200.5,785.5,196.5,784.5Z"/><path class="cls-3" d="M259.5,846.5c-1.66-2.5-20-20-28-23s-26-13-30-8,17,21,26,26,24,12,28,10S261.5,849.5,259.5,846.5Z"/><path class="cls-2" d="M289.5,841.5s1,18-7,22-13-2-18-1,0,12-16,7-19-4-22-9-3-1-12-3-20-4-20-11-2.38-11.87-5.19-9.93-6.81,4.93-8.81-4.07,2-13,0-16-11-4-15-9-9-12-3-17a55.72,55.72,0,0,1,14-8s-18-1-22,1-10,7-8,15,13,15,16,17,4,5,3,8-2,11-1,14,5,7,9,7,5,1,5,4-1,10,2,12,5,7,12,8,10,2,18,2,13,1,15,4-1,5,7,6,18,0,24-2,12-6,15-3,5.3,3.18,9.15,4.59,15.85-4.59,16.85-9.59,2-15,0-20S289.5,841.5,289.5,841.5Z"/><path class="cls-4" d="M167.7,689.28c-12.23,0-12.25,19,0,19S179.94,689.28,167.7,689.28Z"/><path class="cls-4" d="M205,690.85c-12.23,0-12.25,19,0,19S217.25,690.85,205,690.85Z"/><path class="cls-4" d="M259.26,697.63c-12.22,0-12.24,19,0,19S271.51,697.63,259.26,697.63Z"/><path class="cls-4" d="M304.39,718.5c-12.22,0-12.24,19,0,19S316.64,718.5,304.39,718.5Z"/><path class="cls-4" d="M340.39,748.76c-12.22,0-12.24,19,0,19S352.64,748.76,340.39,748.76Z"/><path class="cls-4" d="M360.22,775.37c-12.23,0-12.25,19,0,19S372.46,775.37,360.22,775.37Z"/><path class="cls-4" d="M369.87,812.93c-12.23,0-12.25,19,0,19S382.12,812.93,369.87,812.93Z"/><path class="cls-4" d="M367.26,839.28c-12.22,0-12.24,19,0,19S379.51,839.28,367.26,839.28Z"/><path class="cls-4" d="M668,128.93c-12.22,0-12.24,19,0,19S680.29,128.93,668,128.93Z"/><path class="cls-4" d="M700.91,139.37c-12.22,0-12.24,19,0,19S713.16,139.37,700.91,139.37Z"/><path class="cls-4" d="M732.22,154.5c-12.23,0-12.25,19,0,19S744.46,154.5,732.22,154.5Z"/><path class="cls-4" d="M767.7,174.85c-12.23,0-12.25,19,0,19S779.94,174.85,767.7,174.85Z"/><path class="cls-4" d="M796.91,195.72c-12.22,0-12.24,19,0,19S809.16,195.72,796.91,195.72Z"/><path class="cls-4" d="M824,214c-12.22,0-12.24,19,0,19S836.29,214,824,214Z"/></svg>