<?xml version="1.0" encoding="UTF-8" standalone="no"?>
<!-- Created with Inkscape (http://www.inkscape.org/) -->

<svg
   width="1000mm"
   height="1000mm"
   viewBox="0 0 1000 1000"
   version="1.1"
   id="svg5"
   inkscape:version="1.2 (1:1.2.1+202207142221+cd75a1ee6d)"
   sodipodi:docname="red.svg"
   xmlns:inkscape="http://www.inkscape.org/namespaces/inkscape"
   xmlns:sodipodi="http://sodipodi.sourceforge.net/DTD/sodipodi-0.dtd"
   xmlns="http://www.w3.org/2000/svg"
   xmlns:svg="http://www.w3.org/2000/svg">
  <sodipodi:namedview
     id="namedview7"
     pagecolor="#ffffff"
     bordercolor="#000000"
     borderopacity="0.25"
     inkscape:showpageshadow="2"
     inkscape:pageopacity="0.0"
     inkscape:pagecheckerboard="0"
     inkscape:deskcolor="#d1d1d1"
     inkscape:document-units="px"
     showgrid="false"
     inkscape:zoom="0.11601979"
     inkscape:cx="2111.7087"
     inkscape:cy="3124.4669"
     inkscape:window-width="1920"
     inkscape:window-height="1056"
     inkscape:window-x="0"
     inkscape:window-y="1080"
     inkscape:window-maximized="1"
     inkscape:current-layer="layer1" />
  <defs
     id="defs2" />
  <g
     inkscape:label="Layer 1"
     inkscape:groupmode="layer"
     id="layer1">
    <path
       d="m 679.89236,400.31021 c -2.62104,0 -4.83562,-2.00275 -5.04679,-4.64297 -0.22306,-2.77726 1.85791,-5.20698 4.63935,-5.43141 55.27591,-4.38582 81.59085,-32.47213 80.43126,-85.86054 -0.0528,-2.78422 2.16179,-5.09578 4.95419,-5.15537 3.41301,-0.006 5.10057,2.14774 5.16635,4.93196 1.27716,58.96379 -28.92307,91.31178 -89.73491,96.14543 -0.1456,0.006 -0.27803,0.014 -0.40945,0.014"
       style="fill:#612c31;fill-opacity:1;fill-rule:nonzero;stroke:none;stroke-width:0.0994576"
       id="path122" />
    <path
       d="m 754.48482,249.8986 c -1.69056,0.34061 -9.58852,10.44577 -12.35701,15.87315 -1.17155,2.29964 0.32974,3.69869 6.12073,3.98366 8.06534,8.74188 18.39905,11.25401 23.99082,8.44895 5.59174,-2.80408 9.88739,-8.22852 5.9364,-16.05585 -0.72025,-1.4229 -20.92842,-12.80696 -23.69094,-12.24991"
       style="fill:#ed1c24;fill-opacity:1;fill-rule:nonzero;stroke:none;stroke-width:0.0994576"
       id="path124" />
    <path
       d="m 776.20527,282.97345 c -3.22176,11.9113 -8.52461,24.45413 -11.72343,26.05775 -5.59275,2.80504 -11.56603,-8.63166 -15.57183,-21.2976 -0.68439,-2.16262 -0.8896,-6.68746 -1.30404,-11.91725 0.78204,-0.5521 1.55809,-1.11014 2.43775,-1.553 9.51582,-4.77105 21.14861,-0.85886 26.16155,8.7101"
       style="fill:#d41e25;fill-opacity:1;fill-rule:nonzero;stroke:none;stroke-width:0.0994576"
       id="path126" />
    <path
       d="m 741.08277,269.5052 c -0.53497,1.87962 -1.15861,6.01424 1.42062,5.8673 -1.43954,4.6956 0.22419,6.77683 3.62022,7.12335 -5.23409,7.24548 7.87607,12.18137 9.77885,10.76843 8.42099,-6.25851 3.53851,-10.88858 0.48712,-8.98809 -1.62979,1.01676 -1.55905,2.04843 -2.14781,1.81806 -0.13959,-0.53617 2.2803,-3.6709 3.76468,-3.52492 2.19068,0.21365 3.80553,1.04059 7.22952,2.52207 0.1236,2.56376 -10.64653,10.12699 -9.84757,18.36441 0.57284,5.92588 8.35126,14.26559 16.62877,9.81723 3.76668,-2.02461 9.26979,-42.03315 9.10142,-47.16963 -0.25411,-7.75986 -21.20441,-13.72147 -25.25199,-13.19918 -4.4222,0.57096 -5.74019,3.68878 -14.78383,16.60097"
       style="fill:#ed2023;fill-opacity:1;fill-rule:nonzero;stroke:none;stroke-width:0.0994576"
       id="path128" />
    <path
       d="m 757.38782,262.04125 c 2.16774,0.37236 6.20638,1.06445 10.02289,2.06533 0.25497,0.0696 0.40943,0.32569 0.33969,0.57791 -0.0686,0.25097 -0.32775,0.40113 -0.57781,0.33661 -3.78064,-0.99198 -7.79038,-1.67809 -9.94819,-2.05043 -0.73019,-0.12419 -1.2652,-0.21537 -1.52915,-0.27235 -0.98928,-0.29589 -9.17616,6.71427 -13.60032,14.82263 -0.049,-0.35842 0.21395,-1.62149 0.33174,-2.02657 3.90913,-6.57527 11.56304,-14.13352 13.46679,-13.72148 0.25895,0.0566 0.77905,0.1462 1.49436,0.26835"
       style="fill:#d41e25;fill-opacity:1;fill-rule:nonzero;stroke:none;stroke-width:0.0994576"
       id="path130" />
    <path
       d="m 757.91377,271.63207 c 2.17975,0.37236 6.23435,1.06443 10.09066,2.07527 0.25497,0.0696 0.40746,0.32368 0.33872,0.57987 -0.0698,0.25097 -0.32678,0.40014 -0.57881,0.33761 -3.81747,-1.00388 -7.84816,-1.69297 -10.00896,-2.06235 -0.70031,-0.121 -1.21137,-0.20853 -1.47138,-0.26321 -1.33694,-0.29093 -10.79196,11.81302 -10.93543,11.80406 0.13959,-0.41998 0.12239,-0.59575 0.30784,-1.07035 3.80851,-4.87237 9.21594,-12.13677 10.82783,-11.65815 0.24784,0.0734 0.74914,0.13779 1.42953,0.25725"
       style="fill:#d41e25;fill-opacity:1;fill-rule:nonzero;stroke:none;stroke-width:0.0994576"
       id="path132" />
    <path
       d="m 451.19372,787.6285 c -2.75358,0 -5.01994,-2.20734 -5.0598,-4.96568 -0.60569,-37.06849 2.12195,-81.98612 28.69994,-100.39227 2.29326,-1.57679 5.45524,-1.02571 7.03625,1.26603 1.59393,2.28572 1.02807,5.43136 -1.26522,7.02007 -22.91388,15.85924 -24.86445,60.07386 -24.35141,91.94926 0.041,2.78421 -2.18671,5.07493 -4.98008,5.12259 h -0.0794"
       style="fill:#612c31;fill-opacity:1;fill-rule:nonzero;stroke:none;stroke-width:0.0994576"
       id="path134" />
    <path
       d="m 628.56844,787.6285 h -0.0786 c -2.79439,-0.0476 -5.0199,-2.33838 -4.98104,-5.12259 0.51402,-31.8754 -1.43559,-76.09002 -24.35149,-91.94926 -2.29226,-1.58871 -2.85911,-4.73435 -1.26416,-7.02007 1.58101,-2.30464 4.74397,-2.8557 7.03725,-1.26603 26.57697,18.40615 29.30561,63.32378 28.6979,100.39227 -0.039,2.75834 -2.30524,4.96568 -5.05978,4.96568"
       style="fill:#612c31;fill-opacity:1;fill-rule:nonzero;stroke:none;stroke-width:0.0994576"
       id="path136" />
    <path
       d="m 433.14829,763.1118 c 5.42936,0.0428 22.03523,-0.76357 28.03941,-1.13991 0.59573,9.89464 1.50031,27.3297 1.15361,38.02267 -45.64845,5.54059 -62.41076,4.29945 -62.49145,2.82195 -0.39849,-7.24946 0.70433,-28.00591 33.29843,-39.70471"
       style="fill:#ed2023;fill-opacity:1;fill-rule:nonzero;stroke:none;stroke-width:0.0994576"
       id="path138" />
    <path
       d="m 399.84986,802.81651 c 0.0806,1.4775 16.843,2.71864 62.49145,-2.82195 0.0348,-1.06942 -0.1148,-5.28937 -0.1038,-6.47894 -33.99276,3.20224 -47.44463,3.80398 -62.58908,3.32738 -0.0338,1.11207 0.15639,5.16423 0.20141,5.97351 z m 48.82941,-41.15045 c -1.7982,-8.70511 -15.92248,-9.02684 -19.1612,-2.90135 -2.26238,4.28055 -3.08922,7.16007 -2.67482,9.0457 1.25224,5.69249 8.42895,5.71435 12.30524,5.52568 4.17611,-0.20341 10.97928,-4.6549 9.53078,-11.67003"
       style="fill:#ce1e25;fill-opacity:1;fill-rule:nonzero;stroke:none;stroke-width:0.0994576"
       id="path140" />
    <path
       d="m 428.79286,758.58598 c -2.27238,4.38283 -3.1062,7.32988 -2.70074,9.25519 1.22931,5.81565 8.39011,5.81369 12.2594,5.60811 4.16618,-0.22249 10.9693,-4.79588 9.5477,-11.96295 -1.7643,-8.89077 -15.85474,-9.17474 -19.10636,-2.90035"
       style="fill:#ed2023;fill-opacity:1;fill-rule:nonzero;stroke:none;stroke-width:0.0994576"
       id="path142" />
    <path
       d="m 414.56595,771.56867 c 0.0834,0.86584 0.84776,1.50133 1.7264,1.41689 4.41123,-0.44084 7.60909,1.98096 9.48297,4.07803 0.33372,0.37336 0.80396,0.55109 1.26818,0.52527 0.34567,-0.02 0.68741,-0.15019 0.96334,-0.39716 0.65353,-0.57791 0.71131,-1.57481 0.13039,-2.22418 -3.38813,-3.78908 -7.55229,-5.55454 -12.1508,-5.11962 -0.8697,0.0844 -1.5043,0.85493 -1.4206,1.72077 z m 7.42473,-3.10095 c 3.48677,-0.19059 7.56427,1.60957 10.13648,4.48711 0.33176,0.37234 0.80294,0.54907 1.26622,0.52423 0.34567,-0.02 0.68737,-0.14899 0.96532,-0.39616 0.65149,-0.57989 0.70929,-1.57579 0.12859,-2.22716 -3.17894,-3.55475 -8.25665,-5.68357 -12.65792,-5.53664 -0.97926,0.034 -1.56605,0.78641 -1.51621,1.66417 0.0496,0.86882 0.80694,1.53113 1.6776,1.48445"
       style="fill:#e5e9f0;fill-opacity:1;fill-rule:nonzero;stroke:none;stroke-width:0.0994576"
       id="path144" />
    <path
       d="m 647.95379,763.1118 c -5.43036,0.0428 -22.03723,-0.76357 -28.03843,-1.13991 -0.59773,9.89464 -1.50329,27.3297 -1.15563,38.02267 45.64851,5.54059 62.4108,4.29945 62.49147,2.82195 0.39749,-7.24946 -0.70431,-28.00591 -33.29741,-39.70471"
       style="fill:#ed2023;fill-opacity:1;fill-rule:nonzero;stroke:none;stroke-width:0.0994576"
       id="path146" />
    <path
       d="m 681.45243,796.843 c -15.14439,0.4766 -28.5953,-0.1254 -62.59006,-3.32738 0.014,1.18957 -0.1376,5.40952 -0.1026,6.47894 45.64851,5.54059 62.4108,4.29945 62.49147,2.82195 0.045,-0.80928 0.23617,-4.86144 0.20141,-5.97351 z m -39.49984,-23.50691 c 3.87723,0.18859 11.054,0.16699 12.3052,-5.52568 0.41444,-1.88563 -0.41142,-4.76515 -2.67382,-9.0457 -3.23966,-6.12549 -17.365,-5.80376 -19.16214,2.90135 -1.44952,7.01513 5.35364,11.4665 9.53076,11.67003"
       style="fill:#ce1e25;fill-opacity:1;fill-rule:nonzero;stroke:none;stroke-width:0.0994576"
       id="path148" />
    <path
       d="m 652.30824,758.58598 c 2.27232,4.38283 3.10618,7.32988 2.69972,9.25519 -1.22833,5.81565 -8.38811,5.81369 -12.2584,5.60811 -4.16616,-0.22249 -10.9683,-4.79588 -9.5477,-11.96295 1.7653,-8.89077 15.8547,-9.17474 19.10638,-2.90035"
       style="fill:#ed2023;fill-opacity:1;fill-rule:nonzero;stroke:none;stroke-width:0.0994576"
       id="path150" />
    <path
       d="m 665.11453,769.8479 c -4.59853,-0.43492 -8.76369,1.33054 -12.15078,5.11962 -0.57982,0.64937 -0.52302,1.64627 0.12959,2.22418 0.27691,0.24727 0.61763,0.3783 0.96332,0.39716 0.46526,0.0256 0.93644,-0.15219 1.26918,-0.52527 1.87488,-2.09707 5.07274,-4.51887 9.48295,-4.07803 0.87864,0.0844 1.64276,-0.55105 1.72644,-1.41689 0.0838,-0.86584 -0.5509,-1.63639 -1.4206,-1.72077 z m -4.32657,-2.86463 c 0.0496,-0.87776 -0.53693,-1.63041 -1.51619,-1.66417 -4.40129,-0.14699 -9.47998,1.98189 -12.6579,5.53664 -0.58178,0.65137 -0.52302,1.64727 0.12839,2.22716 0.27775,0.24699 0.61861,0.37632 0.96434,0.39616 0.4632,0.0256 0.93642,-0.15219 1.26916,-0.52423 2.57021,-2.87754 6.64771,-4.67776 10.1345,-4.48711 0.86966,0.0468 1.62679,-0.61563 1.67758,-1.48445"
       style="fill:#e5e9f0;fill-opacity:1;fill-rule:nonzero;stroke:none;stroke-width:0.0994576"
       id="path152" />
    <path
       d="m 637.01833,632.52522 c -36.91468,7.36368 -232.34081,23.57342 -311.36841,19.82803 -0.1186,-19.35439 -11.0291,-375.2342 -17.44467,-438.09626 50.24501,2.74252 104.50276,3.28466 161.43632,1.57879 53.05133,-1.59169 93.60418,-3.33827 150.21403,-8.87687 2.07011,1.79424 13.27054,6.18103 15.21115,7.39244 3.41801,65.61249 -0.80792,371.39645 1.95158,418.17387"
       style="fill:#f0451d;fill-opacity:1;fill-rule:nonzero;stroke:none;stroke-width:0.0994576"
       id="path154" />
    <path
       d="m 661.44549,653.02944 c -36.91467,7.36268 -232.34182,23.57342 -311.36943,19.82803 -0.11739,-19.35437 -3.45088,-375.95205 -9.86452,-438.81415 89.56158,1.27791 230.86645,-4.79687 282.06386,-7.91273 4.59253,4.00254 62.20154,35.79849 74.53466,44.69921 2.05719,93.3195 -37.91191,339.03654 -35.36457,382.19964"
       style="fill:#f0e4c9;fill-opacity:1;fill-rule:nonzero;stroke:none;stroke-width:0.0994576"
       id="path156" />
    <path
       d="m 309.02713,224.75637 -0.82188,-10.49938 c 50.4532,1.29081 101.91657,1.17667 161.92944,-0.44084 53.16392,-1.43282 94.57552,-2.84381 149.9012,-7.27332 l 15.03086,7.80852 c -56.13261,5.49292 -111.19931,8.05172 -164.82745,9.66327 -12.75452,0.38029 -122.05205,2.8835 -161.21217,0.74175"
       style="fill:#f58046;fill-opacity:1;fill-rule:nonzero;stroke:none;stroke-width:0.0994576"
       id="path158" />
    <path
       d="m 504.58871,272.19308 c -43.97683,0.55508 -85.99808,-0.26806 -125.10246,-2.40291 l 0.61769,-11.17057 c 43.09317,2.35428 89.76976,3.12974 138.71373,2.13285 57.86103,-1.11709 113.25248,-4.12168 173.39783,-9.7219 3.11916,2.24505 16.322,9.6206 16.322,9.6206 -64.39622,6.29523 -127.58405,10.1151 -189.50068,11.31752 -4.83861,0.0864 -9.65432,0.1638 -14.44811,0.22421"
       style="fill:#f58046;fill-opacity:1;fill-rule:nonzero;stroke:none;stroke-width:0.0994576"
       id="path160" />
    <path
       d="m 382.10234,273.01823 c -6.09188,-4.22596 -66.31395,-45.01496 -73.01745,-57.47043 0,0 13.80751,0.58885 17.35901,4.62615 7.46862,8.48965 57.25933,40.29151 62.09095,43.65064 l -6.43251,9.19364"
       style="fill:#f58046;fill-opacity:1;fill-rule:nonzero;stroke:none;stroke-width:0.0994576"
       id="path162" />
    <path
       d="m 314.14066,651.55392 c 1.21939,11.10706 64.82557,57.56177 72.14175,50.91999 6.85896,-34.10055 2.21263,-371.47195 -6.79616,-432.68374 -5.45722,-3.78507 -65.78891,-45.32871 -71.281,-55.53318 -0.6396,21.26585 5.71026,386.52095 5.93541,437.29693"
       style="fill:#e82e22;fill-opacity:1;fill-rule:nonzero;stroke:none;stroke-width:0.0994576"
       id="path164" />
    <path
       d="m 705.66641,691.62306 c -32.71764,3.79206 -241.19717,15.02814 -320.22478,11.28477 4.75793,-29.97789 -5.95538,-433.11766 -5.95538,-433.11766 43.31736,2.3642 90.13538,3.07616 139.13214,2.13085 60.78893,-1.17267 124.93409,-4.91207 189.91911,-11.26987 5.35959,21.18935 -0.0874,372.51352 -2.87109,430.97191"
       style="fill:#f0451d;fill-opacity:1;fill-rule:nonzero;stroke:none;stroke-width:0.0994576"
       id="path166" />
    <path
       d="m 637.01833,632.52522 c -36.91468,7.36368 -232.34081,23.57342 -311.36841,19.82803 -0.1186,-19.35439 -11.0291,-375.2342 -17.44467,-438.09626 50.24501,2.74252 104.50276,3.28466 161.43632,1.57879 53.05133,-1.59169 93.60418,-3.33827 150.21403,-8.87687 2.07011,1.79424 13.27054,6.18103 15.21115,7.39244 3.41801,65.61249 -0.80792,371.39645 1.95158,418.17387"
       style="fill:#ed2023;fill-opacity:1;fill-rule:nonzero;stroke:none;stroke-width:0.0994576"
       id="path168" />
    <path
       d="m 661.44549,653.02944 c -36.91467,7.36268 -232.34182,23.57342 -311.36943,19.82803 -0.11739,-19.35437 -3.45088,-375.95205 -9.86452,-438.81415 89.56158,1.27791 230.86645,-4.79687 282.06386,-7.91273 4.59253,4.00254 62.20154,35.79849 74.53466,44.69921 2.05719,93.3195 -37.91191,339.03654 -35.36457,382.19964"
       style="fill:#f0e4c9;fill-opacity:1;fill-rule:nonzero;stroke:none;stroke-width:0.0994576"
       id="path170" />
    <path
       d="m 309.02713,224.75637 -0.82188,-10.49938 c 50.4532,1.29081 101.91657,1.17667 161.92944,-0.44084 53.16392,-1.43282 94.57552,-2.84381 149.9012,-7.27332 l 15.03086,7.80852 c -56.13261,5.49292 -111.19931,8.05172 -164.82745,9.66327 -12.75452,0.38029 -122.05205,2.8835 -161.21217,0.74175"
       style="fill:#f58046;fill-opacity:1;fill-rule:nonzero;stroke:none;stroke-width:0.0994576"
       id="path172" />
    <path
       d="m 504.58871,272.19308 c -43.97683,0.55508 -85.99808,-0.26806 -125.10246,-2.40291 l 0.61769,-11.17057 c 43.09317,2.35428 89.76976,3.12974 138.71373,2.13285 57.86103,-1.11709 113.25248,-4.12168 173.39783,-9.7219 3.11916,2.24505 16.322,9.6206 16.322,9.6206 -64.39622,6.29523 -127.58405,10.1151 -189.50068,11.31752 -4.83861,0.0864 -9.65432,0.1638 -14.44811,0.22421"
       style="fill:#f58046;fill-opacity:1;fill-rule:nonzero;stroke:none;stroke-width:0.0994576"
       id="path174" />
    <path
       d="m 382.10234,273.01823 c -6.09188,-4.22596 -66.31395,-45.01496 -73.01745,-57.47043 0,0 13.80751,0.58885 17.35901,4.62615 7.46862,8.48965 57.25933,40.29151 62.09095,43.65064 l -6.43251,9.19364"
       style="fill:#f58046;fill-opacity:1;fill-rule:nonzero;stroke:none;stroke-width:0.0994576"
       id="path176" />
    <path
       d="m 314.14066,651.55392 c 1.21939,11.10706 64.82557,57.56177 72.14175,50.91999 6.85896,-34.10055 2.21263,-371.47195 -6.79616,-432.68374 -5.45722,-3.78507 -65.78891,-45.32871 -71.281,-55.53318 -0.6396,21.26585 5.71026,386.52095 5.93541,437.29693"
       style="fill:#e61d25;fill-opacity:1;fill-rule:nonzero;stroke:none;stroke-width:0.0994576"
       id="path178" />
    <path
       d="m 705.66641,691.62306 c -32.71764,3.79206 -241.19717,15.02814 -320.22478,11.28477 4.75793,-29.97789 -5.95538,-433.11766 -5.95538,-433.11766 43.31736,2.3642 90.13538,3.07616 139.13214,2.13085 60.78893,-1.17267 124.93409,-4.91207 189.91911,-11.26987 5.35959,21.18935 -0.0874,372.51352 -2.87109,430.97191"
       style="fill:#ed2023;fill-opacity:1;fill-rule:nonzero;stroke:none;stroke-width:0.0994576"
       id="path180" />
    <path
       d="m 426.23456,184.32679 c -2.21059,0.53619 -4.61344,0.23333 -6.61085,-1.03664 -3.70394,-2.35919 -4.5766,-7.1591 -1.93862,-10.71679 13.05437,-17.55818 41.38566,-28.5371 67.43166,-26.04483 4.50886,0.42696 7.6878,4.22001 7.08209,8.46879 -0.59574,4.23789 -4.78881,7.32692 -9.27476,6.90985 -19.998,-1.93421 -42.23942,6.35584 -51.79012,19.22038 -1.22833,1.64929 -2.99263,2.73656 -4.8994,3.19924"
       style="fill:#4f1518;fill-opacity:1;fill-rule:nonzero;stroke:none;stroke-width:0.0994576"
       id="path182" />
    <path
       d="m 532.2197,259.38615 c -0.56286,27.77054 -23.60727,49.82675 -51.46934,49.26473 -27.8611,-0.56199 -49.98998,-23.52968 -49.42613,-51.30026 0.56286,-27.77054 23.60726,-49.82675 51.46934,-49.26374 27.86111,0.561 49.99098,23.52873 49.42613,51.29927"
       style="fill:#ffffff;fill-opacity:1;fill-rule:nonzero;stroke:none;stroke-width:0.0994576"
       id="path184" />
    <path
       d="m 482.75973,209.62296 c -26.96653,-0.54414 -49.34943,20.88052 -49.89635,47.75846 -0.54493,26.87987 20.94934,49.18825 47.91786,49.73241 26.97245,0.54512 49.35539,-20.87956 49.90032,-47.75844 0.5469,-26.87892 -20.94938,-49.18732 -47.92183,-49.73243 z m -2.04129,100.56101 c -28.66304,-0.57889 -51.51417,-24.29523 -50.93438,-52.86415 0.57981,-28.56885 24.37537,-51.34394 53.03743,-50.76607 28.67098,0.5789 51.52017,24.29527 50.93936,52.86416 -0.57882,28.56892 -24.37435,51.34398 -53.04241,50.76606"
       style="fill:#732a20;fill-opacity:1;fill-rule:nonzero;stroke:none;stroke-width:0.0994576"
       id="path186" />
    <path
       d="m 496.49551,258.46569 c 0.9534,9.16286 -5.72623,17.36155 -14.91931,18.31079 -9.19203,0.95028 -17.41777,-5.70839 -18.37017,-14.87124 -0.95336,-9.16284 5.72623,-17.36058 14.91928,-18.30982 9.19206,-0.95026 17.41782,5.70743 18.3702,14.87027"
       style="fill:#732a20;fill-opacity:1;fill-rule:nonzero;stroke:none;stroke-width:0.0994576"
       id="path188" />
    <path
       d="m 476.42477,253.77903 c 0.33872,3.26078 -2.03723,6.17607 -5.30679,6.51368 -3.27055,0.33858 -6.19548,-2.03057 -6.53417,-5.28943 -0.33873,-3.25878 2.03727,-6.17507 5.30681,-6.51367 3.26959,-0.33759 6.19546,2.03057 6.53415,5.28942"
       style="fill:#ffffff;fill-opacity:1;fill-rule:nonzero;stroke:none;stroke-width:0.0994576"
       id="path190" />
    <path
       d="m 672.24842,184.32679 c 2.2106,0.53619 4.61346,0.23333 6.61087,-1.03664 3.70294,-2.35919 4.5766,-7.1591 1.93863,-10.71679 -13.05536,-17.55818 -41.3847,-28.5371 -67.43267,-26.04483 -4.51086,0.42696 -7.68578,4.22001 -7.08207,8.46879 0.59673,4.23789 4.79077,7.32692 9.27573,6.90985 19.998,-1.93421 42.23842,6.35584 51.79014,19.22038 1.22735,1.64929 2.99363,2.73656 4.89937,3.19924"
       style="fill:#4f1518;fill-opacity:1;fill-rule:nonzero;stroke:none;stroke-width:0.0994576"
       id="path192" />
    <path
       d="m 416.73269,325.89726 c 0,6.03808 10.87765,10.93328 24.29664,10.93328 13.41899,0 24.29765,-4.8952 24.29765,-10.93328 0,-6.03805 -10.87866,-10.93228 -24.29765,-10.93228 -13.41899,0 -24.29664,4.89423 -24.29664,10.93228"
       style="fill:#f577a8;fill-opacity:1;fill-rule:nonzero;stroke:none;stroke-width:0.0994576"
       id="path194" />
    <path
       d="m 566.2623,259.38615 c 0.56487,27.77054 23.60726,49.82675 51.46834,49.26473 27.86211,-0.56199 49.991,-23.52968 49.42612,-51.30026 -0.56183,-27.77054 -23.60528,-49.82675 -51.46833,-49.26374 -27.86112,0.561 -49.98999,23.52873 -49.42613,51.29927"
       style="fill:#ffffff;fill-opacity:1;fill-rule:nonzero;stroke:none;stroke-width:0.0994576"
       id="path196" />
    <path
       d="m 567.79945,259.35539 c 0.54592,26.87888 22.93083,48.30356 49.90333,47.75844 26.96549,-0.54416 48.46179,-22.85254 47.91585,-49.73241 -0.54594,-26.87794 -22.92983,-48.3026 -49.89535,-47.75846 -26.97545,0.54511 -48.46972,22.85351 -47.92383,49.73243 z m -3.07928,0.0624 c -0.58082,-28.56889 22.27034,-52.28526 50.93936,-52.86416 28.66404,-0.57787 52.45859,22.1972 53.03739,50.76607 0.57979,28.56892 -22.26837,52.28526 -50.93239,52.86415 -28.66901,0.57792 -52.46459,-22.19714 -53.04436,-50.76606"
       style="fill:#732a20;fill-opacity:1;fill-rule:nonzero;stroke:none;stroke-width:0.0994576"
       id="path198" />
    <path
       d="m 594.74903,258.46569 c -0.95238,9.16286 5.72824,17.36155 14.92028,18.31079 9.19306,0.95028 17.41879,-5.70839 18.37213,-14.87124 0.95242,-9.16284 -5.72721,-17.36058 -14.92124,-18.30982 -9.19308,-0.95026 -17.41682,5.70743 -18.37117,14.87027"
       style="fill:#732a20;fill-opacity:1;fill-rule:nonzero;stroke:none;stroke-width:0.0994576"
       id="path200" />
    <path
       d="m 596.23436,253.77903 c -0.3387,3.26078 2.03827,6.17607 5.30685,6.51368 3.27055,0.33858 6.19643,-2.03057 6.53513,-5.28943 0.33875,-3.25878 -2.03725,-6.17507 -5.30681,-6.51367 -3.27159,-0.33759 -6.19644,2.03057 -6.53517,5.28942"
       style="fill:#ffffff;fill-opacity:1;fill-rule:nonzero;stroke:none;stroke-width:0.0994576"
       id="path202" />
    <path
       d="m 600.24613,325.62222 c 4.20203,21.91121 -26.4734,51.66368 -54.39025,49.79397 -27.76346,-1.85776 -49.1761,-27.37832 -47.3261,-49.57056 1.02211,-12.2807 21.09479,-9.37435 48.46577,-9.80329 27.33907,-0.42896 50.69329,-3.74936 53.25058,9.57988"
       style="fill:#6c1917;fill-opacity:1;fill-rule:nonzero;stroke:none;stroke-width:0.0994576"
       id="path204" />
    <path
       d="m 548.85248,355.32209 c -12.85013,0.10919 -24.34446,3.97074 -29.55964,10.26599 7.2803,5.36388 17.70571,10.40302 28.43293,10.26603 12.07807,-0.1548 23.98083,-3.96085 30.92246,-11.01572 -3.22475,-6.34686 -18.30245,-9.61562 -29.79575,-9.5163"
       style="fill:#f4707c;fill-opacity:1;fill-rule:nonzero;stroke:none;stroke-width:0.0994576"
       id="path206" />
    <path
       d="m 586.37585,316.0572 c -9.71905,-1.90246 -24.20599,-0.78737 -37.83119,-0.57292 -15.37457,0.24045 -28.71786,-0.41204 -36.25519,0.69805 3.79062,9.1132 16.75531,14.87229 34.45203,14.82263 20.43232,-0.0578 37.02825,-5.10472 39.63435,-14.94776"
       style="fill:#ffffff;fill-opacity:1;fill-rule:nonzero;stroke:none;stroke-width:0.0994576"
       id="path208" />
    <path
       d="m 681.7493,325.89726 c 0,6.03808 -10.87862,10.93328 -24.29663,10.93328 -13.41799,0 -24.29663,-4.8952 -24.29663,-10.93328 0,-6.03805 10.87864,-10.93228 24.29663,-10.93228 13.41801,0 24.29663,4.89423 24.29663,10.93228"
       style="fill:#f577a8;fill-opacity:1;fill-rule:nonzero;stroke:none;stroke-width:0.0994576"
       id="path210" />
    <path
       d="m 346.10814,399.6072 c -0.19719,0 -0.39648,-0.014 -0.60569,-0.0388 -55.96228,-6.71128 -83.71348,-38.81703 -82.48842,-95.4166 0.066,-2.78422 2.859,-5.0104 5.16536,-4.93196 2.79435,0.0596 5.0209,2.37113 4.95414,5.15535 -1.11973,51.24071 22.95477,79.10458 73.5813,85.18537 2.7665,0.32865 4.75693,2.84278 4.41323,5.60712 -0.30385,2.5618 -2.49051,4.43946 -5.01992,4.43946"
       style="fill:#612c31;fill-opacity:1;fill-rule:nonzero;stroke:none;stroke-width:0.0994576"
       id="path212" />
    <path
       d="m 278.57087,249.8986 c 1.68858,0.34061 9.58756,10.44577 12.35306,15.87315 1.17452,2.29964 -0.32775,3.69869 -6.11876,3.98366 -8.06534,8.74188 -18.39747,11.25401 -23.99062,8.44895 -5.59281,-2.80408 -9.88633,-8.22852 -5.93524,-16.05585 0.71869,-1.4229 20.92606,-12.80696 23.69156,-12.24991"
       style="fill:#ed1c24;fill-opacity:1;fill-rule:nonzero;stroke:none;stroke-width:0.0994576"
       id="path214" />
    <path
       d="m 256.84874,282.97345 c 3.22256,11.9113 8.52501,24.45413 11.72415,26.05775 5.59173,2.80504 11.56501,-8.63166 15.57179,-21.2976 0.68339,-2.16262 0.88762,-6.68746 1.30207,-11.91725 -0.78005,-0.5521 -1.55609,-1.11014 -2.43676,-1.553 -9.51584,-4.77105 -21.14861,-0.85886 -26.16125,8.7101"
       style="fill:#d41e25;fill-opacity:1;fill-rule:nonzero;stroke:none;stroke-width:0.0994576"
       id="path216" />
    <path
       d="m 291.96994,269.5052 c 0.53598,1.87962 1.15959,6.01424 -1.4196,5.8673 1.44052,4.6956 -0.22305,6.77683 -3.61924,7.12335 5.23309,7.24548 -7.87609,12.18137 -9.77883,10.76843 -8.42099,-6.25851 -3.53954,-10.88858 -0.48914,-8.98809 1.63181,1.01676 1.56007,2.04843 2.14883,1.81806 0.14039,-0.53617 -2.27936,-3.6709 -3.76372,-3.52492 -2.19066,0.21365 -3.80551,1.04059 -7.22952,2.52207 -0.12539,2.56376 10.64557,10.12699 9.84759,18.36441 -0.57482,5.92588 -8.35123,14.26559 -16.62879,9.81723 -3.76727,-2.02461 -9.27027,-42.03315 -9.1013,-47.16963 0.25381,-7.75986 21.20429,-13.72147 25.25091,-13.19918 4.42319,0.57096 5.74017,3.68878 14.78281,16.60097"
       style="fill:#ed2023;fill-opacity:1;fill-rule:nonzero;stroke:none;stroke-width:0.0994576"
       id="path218" />
    <path
       d="m 275.6659,262.04125 c -2.16775,0.37236 -6.20639,1.06445 -10.02208,2.06533 -0.25527,0.0696 -0.41054,0.32569 -0.34013,0.57791 0.069,0.25097 0.32655,0.40113 0.57754,0.33661 3.77951,-0.99198 7.79127,-1.67809 9.94904,-2.05043 0.72925,-0.12419 1.26422,-0.21537 1.52819,-0.27235 0.98728,-0.29589 9.17514,6.71427 13.6013,14.82263 0.0478,-0.35842 -0.21423,-1.62149 -0.33272,-2.02657 -3.90815,-6.57527 -11.56305,-14.13352 -13.46583,-13.72148 -0.26009,0.0566 -0.77902,0.1462 -1.49531,0.26835"
       style="fill:#d41e25;fill-opacity:1;fill-rule:nonzero;stroke:none;stroke-width:0.0994576"
       id="path220" />
    <path
       d="m 275.14092,271.63207 c -2.18072,0.37236 -6.23631,1.06443 -10.09094,2.07527 -0.25639,0.0696 -0.40708,0.32368 -0.33854,0.57987 0.0678,0.25097 0.32646,0.40014 0.57869,0.33761 3.81674,-1.00388 7.8474,-1.69297 10.00818,-2.06235 0.70135,-0.121 1.21141,-0.20853 1.4714,-0.26321 1.33792,-0.29093 10.79196,11.81302 10.93542,11.80406 -0.1396,-0.41998 -0.1224,-0.59575 -0.30781,-1.07035 -3.80851,-4.87237 -9.21595,-12.13677 -10.82786,-11.65815 -0.24699,0.0734 -0.75013,0.13779 -1.42854,0.25725"
       style="fill:#d41e25;fill-opacity:1;fill-rule:nonzero;stroke:none;stroke-width:0.0994576"
       id="path222" />
  </g>
</svg>
