<?xml version="1.0" encoding="UTF-8" standalone="no"?>
<!-- Created with Inkscape (http://www.inkscape.org/) -->

<svg
   width="1000mm"
   height="1000mm"
   viewBox="0 0 1000 1000"
   version="1.1"
   id="svg5"
   inkscape:version="1.2 (1:1.2.1+202207142221+cd75a1ee6d)"
   sodipodi:docname="pink.svg"
   xmlns:inkscape="http://www.inkscape.org/namespaces/inkscape"
   xmlns:sodipodi="http://sodipodi.sourceforge.net/DTD/sodipodi-0.dtd"
   xmlns="http://www.w3.org/2000/svg"
   xmlns:svg="http://www.w3.org/2000/svg">
  <sodipodi:namedview
     id="namedview7"
     pagecolor="#ffffff"
     bordercolor="#000000"
     borderopacity="0.25"
     inkscape:showpageshadow="2"
     inkscape:pageopacity="0.0"
     inkscape:pagecheckerboard="0"
     inkscape:deskcolor="#d1d1d1"
     inkscape:document-units="px"
     showgrid="false"
     inkscape:zoom="0.11601979"
     inkscape:cx="2111.7087"
     inkscape:cy="3128.7766"
     inkscape:window-width="1920"
     inkscape:window-height="1031"
     inkscape:window-x="0"
     inkscape:window-y="25"
     inkscape:window-maximized="1"
     inkscape:current-layer="layer1" />
  <defs
     id="defs2" />
  <g
     inkscape:label="Layer 1"
     inkscape:groupmode="layer"
     id="layer1">
    <path
       d="m 670.15417,429.78589 c -2.44216,0 -4.60944,-1.72979 -5.06746,-4.21355 -0.53907,-2.80636 1.31265,-5.5048 4.11072,-6.03595 50.11318,-9.41409 92.4419,-40.41694 125.82694,-92.14571 1.56676,-2.40236 4.7822,-3.06881 7.1531,-1.53441 2.3911,1.54867 3.09313,4.74472 1.54657,7.14708 -34.99247,54.19828 -79.61075,86.73553 -132.61344,96.69402 -0.32564,0.0611 -0.64119,0.0886 -0.95643,0.0886"
       style="fill:#612c31;fill-opacity:1;fill-rule:nonzero;stroke:none;stroke-width:0.101752"
       id="path224" />
    <path
       d="m 827.51355,320.42577 c 1.20073,0.96459 3.67345,0.51791 7.55027,-0.056 3.35762,-0.4986 8.36392,-1.39097 10.60243,-0.31139 2.381,1.15285 0.94634,3.5247 -2.59472,5.32979 -5.85083,2.98133 -19.29201,9.26859 -26.19099,11.94671 -11.45736,5.25956 -25.73298,1.48354 -30.13903,-8.63368 -6.61375,-15.17022 -8.18078,-21.48088 -11.87444,-30.96113 -0.90538,-2.33622 5.05706,-2.26502 7.51969,0.19036 5.2705,5.25653 4.95525,7.99264 7.8958,10.47029 2.86931,2.41563 5.50471,0.52608 7.62122,-2.53871 5.81016,-17.41692 7.21425,-27.9452 12.9125,-29.05736 4.81275,-0.21863 2.48252,12.22653 -0.80387,26.17166 9.25922,-13.0324 17.79649,-22.8067 20.89972,-20.16216 3.67346,3.1309 -5.20964,15.99338 -11.37573,27.32553 9.93097,-6.57218 21.97846,-15.41647 25.11227,-11.5448 3.59183,4.45573 -20.51323,19.11413 -17.13512,21.83092"
       style="fill:#ec1189;fill-opacity:1;fill-rule:nonzero;stroke:none;stroke-width:0.101752"
       id="path226" />
    <path
       d="m 664.76106,849.50421 c -1.71962,0 -3.40866,-0.86795 -4.3853,-2.44206 l -14.09275,-22.7589 c -16.30068,-26.38026 -40.78213,-65.96184 -46.19543,-74.44895 -1.52636,-2.4095 -0.81394,-5.60451 1.58724,-7.13893 2.39109,-1.51411 5.58636,-0.83439 7.13292,1.5812 5.41327,8.5065 29.9354,48.14911 46.27675,74.57514 l 14.06218,22.73752 c 1.5059,2.42274 0.77328,5.60655 -1.65848,7.11453 -0.84452,0.53011 -1.79087,0.78045 -2.72713,0.78045"
       style="fill:#612c31;fill-opacity:1;fill-rule:nonzero;stroke:none;stroke-width:0.101752"
       id="path228" />
    <path
       d="m 449.70188,849.1277 c -2.8122,0 -5.1283,-2.26195 -5.16781,-5.08862 -0.6187,-37.98609 2.16611,-84.01569 29.31268,-102.8775 2.34322,-1.61581 5.57307,-1.05106 7.18684,1.29737 1.62992,2.34231 1.05104,5.56584 -1.29044,7.19386 -23.40591,16.25184 -25.39722,61.56104 -24.87229,94.22551 0.0403,2.85314 -2.23447,5.20056 -5.08735,5.24938 h -0.0808"
       style="fill:#612c31;fill-opacity:1;fill-rule:nonzero;stroke:none;stroke-width:0.101752"
       id="path230" />
    <path
       d="m 431.27173,824.0041 c 5.54651,0.0438 22.50742,-0.78247 28.63918,-1.16813 0.61033,10.1396 1.53416,28.00627 1.17826,38.96394 -46.62289,5.67777 -63.74591,4.40586 -63.82809,2.89181 -0.40613,-7.42893 0.72135,-28.69921 34.01065,-40.68762"
       style="fill:#ec1189;fill-opacity:1;fill-rule:nonzero;stroke:none;stroke-width:0.101752"
       id="path232" />
    <path
       d="m 397.26108,864.69172 c 0.0808,1.51405 17.2052,2.78596 63.82809,-2.89181 0.0347,-1.09586 -0.11822,-5.42031 -0.1039,-6.63932 -34.72078,3.28152 -48.45932,3.89813 -63.9276,3.40973 -0.0347,1.13962 0.15864,5.29211 0.20479,6.1214 z m 49.87579,-42.16913 c -1.8376,-8.92063 -16.26405,-9.2503 -19.57092,-2.9732 -2.31206,4.38654 -3.15745,7.33733 -2.73432,9.26963 1.27918,5.83342 8.61024,5.85581 12.56955,5.66248 4.2653,-0.20853 11.21506,-4.77013 9.73569,-11.95891"
       style="fill:#bd1553;fill-opacity:1;fill-rule:nonzero;stroke:none;stroke-width:0.101752"
       id="path234" />
    <path
       d="m 426.82295,819.36623 c -2.31985,4.49132 -3.17158,7.51135 -2.75653,9.48431 1.25582,5.95961 8.5687,5.9576 12.52079,5.74696 4.25407,-0.22785 11.20383,-4.91463 9.75187,-12.25911 -1.80214,-9.11088 -16.19397,-9.40187 -19.51613,-2.97216"
       style="fill:#ec1189;fill-opacity:1;fill-rule:nonzero;stroke:none;stroke-width:0.101752"
       id="path236" />
    <path
       d="m 412.29178,832.67032 c 0.0867,0.88727 0.86703,1.53849 1.76435,1.45199 4.50559,-0.45177 7.77177,2.02999 9.6858,4.17896 0.34093,0.38261 0.82117,0.56472 1.29534,0.53828 0.35304,-0.0202 0.70203,-0.15373 0.98384,-0.40702 0.66657,-0.5922 0.72656,-1.61377 0.13269,-2.27922 -3.45858,-3.88288 -7.71294,-5.69203 -12.40976,-5.24634 -0.88722,0.0866 -1.53732,0.87607 -1.45197,1.76335 z m 7.5846,-3.17772 c 3.56125,-0.19525 7.7262,1.64941 10.35323,4.59818 0.33892,0.38157 0.8203,0.56268 1.29333,0.53724 0.35304,-0.0202 0.70204,-0.15259 0.98586,-0.40597 0.66454,-0.59426 0.72454,-1.6148 0.12979,-2.2823 -3.24484,-3.64273 -8.43227,-5.8243 -12.92864,-5.67371 -0.99912,0.0347 -1.59847,0.8059 -1.54656,1.70537 0.049,0.89032 0.82318,1.56902 1.71241,1.52119"
       style="fill:#e5e9f0;fill-opacity:1;fill-rule:nonzero;stroke:none;stroke-width:0.101752"
       id="path238" />
    <path
       d="m 669.90985,824.0041 c -5.54538,0.0438 -22.50772,-0.78247 -28.64322,-1.16813 -0.61062,10.1396 -1.53648,28.00627 -1.18026,38.96394 46.62287,5.67777 63.74762,4.40586 63.82894,2.89181 0.40697,-7.42893 -0.72222,-28.69921 -34.00546,-40.68762"
       style="fill:#ec1189;fill-opacity:1;fill-rule:nonzero;stroke:none;stroke-width:0.101752"
       id="path240" />
    <path
       d="m 704.11895,858.57032 c -15.46626,0.4884 -29.2028,-0.12806 -63.92067,-3.40973 0,1.21901 -0.14135,5.54346 -0.11257,6.63932 46.62289,5.67777 63.74763,4.40586 63.82896,2.89181 0.052,-0.82929 0.24518,-4.98178 0.20479,-6.1214 z M 663.77407,834.4815 c 3.95813,0.19325 11.29467,0.17103 12.56635,-5.66248 0.42745,-1.9323 -0.41706,-4.88309 -2.72682,-9.26963 -3.30686,-6.2771 -17.73534,-5.94743 -19.56688,2.9732 -1.48571,7.18878 5.46403,11.75034 9.72735,11.95891"
       style="fill:#bd1553;fill-opacity:1;fill-rule:nonzero;stroke:none;stroke-width:0.101752"
       id="path242" />
    <path
       d="m 674.35632,819.36623 c 2.32013,4.49132 3.17476,7.51135 2.75768,9.48431 -1.26189,5.95961 -8.56756,5.9576 -12.5257,5.74696 -4.25322,-0.22785 -11.20295,-4.91463 -9.74783,-12.25911 1.80097,-9.11088 16.1885,-9.40187 19.51585,-2.97216"
       style="fill:#ec1189;fill-opacity:1;fill-rule:nonzero;stroke:none;stroke-width:0.101752"
       id="path244" />
    <path
       d="m 687.43148,830.90697 c -4.69077,-0.44569 -8.94397,1.36346 -12.40342,5.24634 -0.60051,0.66545 -0.53936,1.68702 0.13269,2.27922 0.27401,0.25325 0.6308,0.38768 0.97691,0.40702 0.47823,0.026 0.95645,-0.15575 1.30226,-0.53828 1.91318,-2.14897 5.17936,-4.63073 9.68696,-4.17896 0.89529,0.0866 1.66858,-0.56472 1.7603,-1.45199 0.0808,-0.88728 -0.55954,-1.67688 -1.45514,-1.76335 z m -4.41588,-2.93556 c 0.052,-0.89947 -0.54947,-1.67078 -1.54686,-1.70537 -4.49722,-0.15055 -9.68668,2.03098 -12.93268,5.67371 -0.59012,0.6675 -0.52899,1.68804 0.13268,2.2823 0.28554,0.25323 0.63079,0.38563 0.98701,0.40597 0.46813,0.026 0.95643,-0.15576 1.29217,-0.53724 2.62531,-2.94877 6.79718,-4.79354 10.35843,-4.59818 0.8852,0.0479 1.65847,-0.63087 1.70954,-1.52119"
       style="fill:#e5e9f0;fill-opacity:1;fill-rule:nonzero;stroke:none;stroke-width:0.101752"
       id="path246" />
    <path
       d="m 647.51432,681.54401 c -37.38383,8.9786 -236.21358,33.18646 -317.01901,32.42842 -0.87597,-19.8142 -25.91525,-383.81508 -34.91725,-447.93623 51.38897,0.85166 106.78881,-0.70513 164.83039,-4.67041 54.08518,-3.69462 95.40668,-7.0616 152.96803,-14.93619 2.18747,1.75522 13.7873,5.81208 15.8121,6.97713 6.05444,67.05361 13.68575,380.34431 18.32574,428.13728"
       style="fill:#f0451d;fill-opacity:1;fill-rule:nonzero;stroke:none;stroke-width:0.101752"
       id="path248" />
    <path
       d="m 673.24728,701.58917 c -37.38384,8.97759 -236.21357,33.18545 -317.01987,32.42739 -0.87597,-19.81417 -18.20665,-384.84378 -27.21061,-448.96492 91.46297,-2.17952 235.44724,-13.90036 287.57483,-19.08562 4.84362,3.91948 64.88749,34.23652 77.82015,42.8712 5.74902,95.4791 -25.44827,348.65157 -21.1645,392.75195"
       style="fill:#f0e4c9;fill-opacity:1;fill-rule:nonzero;stroke:none;stroke-width:0.101752"
       id="path250" />
    <path
       d="m 296.82657,276.75479 -1.24851,-10.71859 c 51.54358,-0.64307 104.06603,-2.7636 165.25467,-6.75531 54.2043,-3.53791 96.41707,-6.59457 152.71653,-13.28476 l 15.63932,7.4106 c -57.07275,7.8105 -113.17868,12.57454 -167.85022,16.31189 -13.00277,0.88627 -124.45805,7.70669 -164.51179,7.03617"
       style="fill:#f58046;fill-opacity:1;fill-rule:nonzero;stroke:none;stroke-width:0.101752"
       id="path252" />
    <path
       d="m 498.27946,317.7161 c -44.86258,2.28028 -87.78459,3.07497 -127.78021,2.41051 l 0.19615,-11.46236 c 44.07401,0.73159 91.74389,-0.28999 141.66038,-3.2164 59.00811,-3.39752 115.42957,-8.63162 176.60295,-16.70668 3.26618,2.17647 17.03328,9.2157 17.03328,9.2157 -65.47763,8.95416 -129.82546,15.32589 -192.97487,18.96761 -4.93389,0.27573 -9.84674,0.54333 -14.7368,0.79162"
       style="fill:#f58046;fill-opacity:1;fill-rule:nonzero;stroke:none;stroke-width:0.101752"
       id="path254" />
    <path
       d="m 373.29531,323.3318 c -6.38298,-4.09247 -69.44075,-43.51429 -76.76891,-56.00843 0,0 14.11504,0.0661 17.89818,4.06194 7.95398,8.40269 60.0164,39.02907 65.07662,42.28107 l -6.20589,9.66542"
       style="fill:#f58046;fill-opacity:1;fill-rule:nonzero;stroke:none;stroke-width:0.101752"
       id="path256" />
    <path
       d="m 318.71751,713.60204 c 1.67693,11.325 68.41299,56.41951 75.62117,49.33451 5.66769,-35.1869 -12.25313,-380.47861 -23.83943,-442.80994 -5.71755,-3.66308 -68.91881,-43.85515 -74.92119,-54.09041 0.17797,21.80039 20.92631,395.57763 23.13945,447.56584"
       style="fill:#e82e22;fill-opacity:1;fill-rule:nonzero;stroke:none;stroke-width:0.101752"
       id="path258" />
    <path
       d="m 719.89036,739.38804 c -33.24226,5.15781 -245.58789,24.78176 -326.39333,24.02369 3.68472,-30.88278 -22.99778,-443.28512 -22.99778,-443.28512 44.30593,0.73568 92.11714,-0.35818 142.08754,-3.2337 62.00176,-3.56843 127.32652,-9.89539 193.40436,-18.93604 6.29847,21.48901 14.45906,381.46155 13.89921,441.43117"
       style="fill:#f0451d;fill-opacity:1;fill-rule:nonzero;stroke:none;stroke-width:0.101752"
       id="path260" />
    <path
       d="m 647.51432,681.54401 c -37.38383,8.9786 -236.21358,33.18646 -317.01901,32.42842 -0.87597,-19.8142 -25.91525,-383.81508 -34.91725,-447.93623 51.38897,0.85166 106.78881,-0.70513 164.83039,-4.67041 54.08518,-3.69462 95.40668,-7.0616 152.96803,-14.93619 2.18747,1.75522 13.7873,5.81208 15.8121,6.97713 6.05444,67.05361 13.68575,380.34431 18.32574,428.13728"
       style="fill:#ec1189;fill-opacity:1;fill-rule:nonzero;stroke:none;stroke-width:0.101752"
       id="path262" />
    <path
       d="m 673.24728,701.58917 c -37.38384,8.97759 -236.21357,33.18545 -317.01987,32.42739 -0.87597,-19.81417 -18.20665,-384.84378 -27.21061,-448.96492 91.46297,-2.17952 235.44724,-13.90036 287.57483,-19.08562 4.84362,3.91948 64.88749,34.23652 77.82015,42.8712 5.74902,95.4791 -25.44827,348.65157 -21.1645,392.75195"
       style="fill:#f0e4c9;fill-opacity:1;fill-rule:nonzero;stroke:none;stroke-width:0.101752"
       id="path264" />
    <path
       d="m 296.82657,276.75479 -1.24851,-10.71859 c 51.54358,-0.64307 104.06603,-2.7636 165.25467,-6.75531 54.2043,-3.53791 96.41707,-6.59457 152.71653,-13.28476 l 15.63932,7.4106 c -57.07275,7.8105 -113.17868,12.57454 -167.85022,16.31189 -13.00277,0.88627 -124.45805,7.70669 -164.51179,7.03617"
       style="fill:#f253b1;fill-opacity:1;fill-rule:nonzero;stroke:none;stroke-width:0.101752"
       id="path266" />
    <path
       d="m 498.27946,317.7161 c -44.86258,2.28028 -87.78459,3.07497 -127.78021,2.41051 l 0.19615,-11.46236 c 44.07401,0.73159 91.74389,-0.28999 141.66038,-3.2164 59.00811,-3.39752 115.42957,-8.63162 176.60295,-16.70668 3.26618,2.17647 17.03328,9.2157 17.03328,9.2157 -65.47763,8.95416 -129.82546,15.32589 -192.97487,18.96761 -4.93389,0.27573 -9.84674,0.54333 -14.7368,0.79162"
       style="fill:#f253b1;fill-opacity:1;fill-rule:nonzero;stroke:none;stroke-width:0.101752"
       id="path268" />
    <path
       d="m 373.29531,323.3318 c -6.38298,-4.09247 -69.44075,-43.51429 -76.76891,-56.00843 0,0 14.11504,0.0661 17.89818,4.06194 7.95398,8.40269 60.0164,39.02907 65.07662,42.28107 l -6.20589,9.66542"
       style="fill:#f253b1;fill-opacity:1;fill-rule:nonzero;stroke:none;stroke-width:0.101752"
       id="path270" />
    <path
       d="m 318.71751,713.60204 c 1.67693,11.325 68.41299,56.41951 75.62117,49.33451 5.66769,-35.1869 -12.25313,-380.47861 -23.83943,-442.80994 -5.71755,-3.66308 -68.91881,-43.85515 -74.92119,-54.09041 0.17797,21.80039 20.92631,395.57763 23.13945,447.56584"
       style="fill:#e00e62;fill-opacity:1;fill-rule:nonzero;stroke:none;stroke-width:0.101752"
       id="path272" />
    <path
       d="m 719.89036,739.38804 c -33.24226,5.15781 -245.58789,24.78176 -326.39333,24.02369 3.68472,-30.88278 -22.99778,-443.28512 -22.99778,-443.28512 44.30593,0.73568 92.11714,-0.35818 142.08754,-3.2337 62.00176,-3.56843 127.32652,-9.89539 193.40436,-18.93604 6.29847,21.48901 14.45906,381.46155 13.89921,441.43117"
       style="fill:#ec1189;fill-opacity:1;fill-rule:nonzero;stroke:none;stroke-width:0.101752"
       id="path274" />
    <path
       d="m 414.87441,230.79132 c -2.23448,0.63596 -4.7,0.41819 -6.78708,-0.80385 -3.87363,-2.27214 -4.95006,-7.15217 -2.3983,-10.89763 12.63875,-18.48735 41.12509,-30.82989 67.80756,-29.29342 4.61981,0.26448 8.01003,4.01919 7.55921,8.39452 -0.44361,4.36212 -4.6022,7.68839 -9.19634,7.43504 -20.48784,-1.20269 -42.86203,8.15441 -52.10826,21.69865 -1.18948,1.7359 -2.94864,2.91928 -4.87679,3.46669"
       style="fill:#4f1518;fill-opacity:1;fill-rule:nonzero;stroke:none;stroke-width:0.101752"
       id="path276" />
    <path
       d="m 525.9804,303.5268 c 0.5088,28.45903 -22.14834,51.94241 -50.60641,52.45116 -28.46007,0.50978 -51.94241,-22.14839 -52.45207,-50.60743 -0.5088,-28.45804 22.14921,-51.9414 50.60727,-52.45018 28.45806,-0.50976 51.94155,22.14736 52.45121,50.60645"
       style="fill:#ffffff;fill-opacity:1;fill-rule:nonzero;stroke:none;stroke-width:0.101752"
       id="path278" />
    <path
       d="m 473.55688,254.49447 c -27.54546,0.49349 -49.5545,23.30328 -49.063,50.84857 0.49349,27.54432 23.30321,49.55328 50.84953,49.06082 27.55152,-0.4925 49.55941,-23.30328 49.06706,-50.84861 -0.49265,-27.54529 -23.30322,-49.5543 -50.85359,-49.06078 z m 1.84249,103.05452 c -29.27692,0.52405 -53.52647,-22.87285 -54.05055,-52.14897 -0.52293,-29.27814 22.87288,-53.52669 52.15094,-54.05071 29.28326,-0.52404 53.53282,22.87183 54.05575,52.15 0.52407,29.27715 -22.87171,53.52566 -52.15614,54.04968"
       style="fill:#732a20;fill-opacity:1;fill-rule:nonzero;stroke:none;stroke-width:0.101752"
       id="path280" />
    <path
       d="m 489.48405,303.9745 c 1.32995,9.34591 -5.16811,18.00094 -14.51299,19.33085 -9.34575,1.33091 -18.001,-5.16698 -19.33181,-14.5119 -1.33082,-9.34593 5.16781,-18.00096 14.51298,-19.33086 9.34574,-1.33091 18.00099,5.16699 19.33182,14.51191"
       style="fill:#732a20;fill-opacity:1;fill-rule:nonzero;stroke:none;stroke-width:0.101752"
       id="path282" />
    <path
       d="m 468.8142,299.95832 c 0.47419,3.32424 -1.83787,6.40224 -5.16206,6.87643 -3.32531,0.47314 -6.40316,-1.83867 -6.87648,-5.16191 -0.47303,-3.32524 1.83789,-6.40326 5.16293,-6.87743 3.32329,-0.47311 6.4023,1.83868 6.87561,5.16291"
       style="fill:#ffffff;fill-opacity:1;fill-rule:nonzero;stroke:none;stroke-width:0.101752"
       id="path284" />
    <path
       d="m 665.97191,221.21237 c 2.26909,0.464 4.71124,0.0592 6.70544,-1.3177 3.68356,-2.56009 4.3856,-7.50931 1.55694,-11.04926 -14.01139,-17.47186 -43.35667,-27.60638 -69.84272,-24.04503 -4.58895,0.62069 -7.68209,4.61954 -6.89871,8.94399 0.77329,4.31431 5.17907,7.32008 9.73774,6.71567 20.34016,-2.7575 43.35638,4.86678 53.613,17.66822 1.31265,1.64024 3.16466,2.68626 5.12831,3.08411"
       style="fill:#4f1518;fill-opacity:1;fill-rule:nonzero;stroke:none;stroke-width:0.101752"
       id="path286" />
    <path
       d="m 410.70658,376.13097 c 0.23651,6.18451 11.5306,10.7725 25.22618,10.25054 13.695,-0.52303 24.60779,-5.95863 24.37185,-12.14209 -0.23651,-6.18247 -11.52945,-10.77151 -25.22647,-10.2495 -13.69587,0.52199 -24.60664,5.95858 -24.37156,12.14105"
       style="fill:#f24f92;fill-opacity:1;fill-rule:nonzero;stroke:none;stroke-width:0.101752"
       id="path288" />
    <path
       d="m 560.72971,302.20095 c 1.65878,28.41529 26.03841,50.10377 54.44774,48.44417 28.41941,-1.6606 50.11289,-26.04143 48.44404,-54.45672 -1.65849,-28.41427 -26.03843,-50.10275 -54.44744,-48.44316 -28.41943,1.65958 -50.11291,26.04039 -48.44434,54.45571"
       style="fill:#ffffff;fill-opacity:1;fill-rule:nonzero;stroke:none;stroke-width:0.101752"
       id="path290" />
    <path
       d="m 562.29676,302.10938 c 1.60771,27.50358 25.28531,48.57135 52.79935,46.96368 27.49325,-1.60668 48.56604,-25.28946 46.95831,-52.79207 -1.60743,-27.50257 -25.2853,-48.57034 -52.78895,-46.96265 -27.51373,1.60665 -48.57642,25.28947 -46.96871,52.79104 z m -3.14419,0.1843 c -1.70923,-29.23235 20.6863,-54.40786 49.92974,-56.11628 29.23338,-1.70843 54.40706,20.68823 56.11632,49.91958 1.70952,29.23338 -20.68601,54.40787 -49.91937,56.1163 -29.24375,1.7084 -54.41717,-20.68724 -56.12669,-49.9196"
       style="fill:#732a20;fill-opacity:1;fill-rule:nonzero;stroke:none;stroke-width:0.101752"
       id="path292" />
    <path
       d="m 589.76983,300.14963 c -0.62069,9.41919 6.52229,17.55529 15.93439,18.16886 9.42217,0.6156 17.56256,-6.52334 18.17289,-15.94254 0.6106,-9.4202 -6.5223,-17.55529 -15.94449,-18.16887 -9.42217,-0.61559 -17.55218,6.52234 -18.16279,15.94255"
       style="fill:#732a20;fill-opacity:1;fill-rule:nonzero;stroke:none;stroke-width:0.101752"
       id="path294" />
    <path
       d="m 591.10296,295.29299 c -0.22499,3.35069 2.30975,6.24451 5.66739,6.46329 3.34781,0.21892 6.2477,-2.32094 6.46143,-5.67165 0.22498,-3.3507 -2.32014,-6.24353 -5.66766,-6.46227 -3.35793,-0.21863 -6.24772,2.31994 -6.46116,5.67063"
       style="fill:#ffffff;fill-opacity:1;fill-rule:nonzero;stroke:none;stroke-width:0.101752"
       id="path296" />
    <path
       d="m 598.00165,368.70511 c 5.13841,22.27354 -25.01072,53.93371 -53.57147,53.10746 -28.41018,-0.82214 -51.25969,-26.12179 -50.2401,-48.91935 0.56361,-12.61524 21.1645,-10.42043 49.08321,-11.92635 27.88609,-1.50186 51.59427,-5.81208 54.72836,7.73824"
       style="fill:#6c1917;fill-opacity:1;fill-rule:nonzero;stroke:none;stroke-width:0.101752"
       id="path298" />
    <path
       d="m 546.70331,401.11825 c -13.11064,0.61356 -24.69231,5.01435 -29.7687,11.66385 7.64171,5.2097 18.47835,9.96355 29.42172,9.40493 12.31803,-0.62881 24.32485,-4.98992 31.1321,-12.48294 -3.54107,-6.37374 -19.05809,-9.13429 -30.78512,-8.58584"
       style="fill:#f4707c;fill-opacity:1;fill-rule:nonzero;stroke:none;stroke-width:0.101752"
       id="path300" />
    <path
       d="m 583.47137,359.44974 c -10.00223,-1.56902 -24.73587,0.13641 -38.63738,0.88624 -15.68286,0.84558 -29.32796,0.69599 -36.97658,2.12765 4.22377,9.18211 17.68139,14.57497 35.74237,13.83524 20.85417,-0.85269 37.59239,-6.66782 39.87159,-16.84913"
       style="fill:#ffffff;fill-opacity:1;fill-rule:nonzero;stroke:none;stroke-width:0.101752"
       id="path302" />
    <path
       d="m 681.19416,365.81332 c 0.23361,6.18349 -10.67369,11.61909 -24.36957,12.14105 -13.69585,0.52302 -24.99052,-4.06602 -25.22444,-10.24947 -0.23363,-6.18248 10.67368,-11.6191 24.36953,-12.14106 13.69588,-0.52199 24.99054,4.06703 25.22448,10.24948"
       style="fill:#f24f92;fill-opacity:1;fill-rule:nonzero;stroke:none;stroke-width:0.101752"
       id="path304" />
    <path
       d="m 243.12383,561.16923 c -2.01877,0 -3.94288,-1.19763 -4.77827,-3.18179 -1.09079,-2.63945 0.16268,-5.65948 2.8002,-6.75736 32.42127,-13.4791 75.84001,-47.81129 99.76882,-94.14308 1.30574,-2.55092 4.45598,-3.53387 6.95783,-2.22125 2.54483,1.30548 3.54021,4.42113 2.22152,6.9578 -25.11372,48.65482 -70.81963,84.74933 -104.99205,98.94886 -0.6451,0.26852 -1.31871,0.39682 -1.97805,0.39682"
       style="fill:#612c31;fill-opacity:1;fill-rule:nonzero;stroke:none;stroke-width:0.101752"
       id="path306" />
    <path
       d="m 185.38051,563.63265 c 6.72074,-3.43921 46.25552,-16.50927 66.65985,-19.9536 7.62734,3.61324 6.58745,17.52479 5.11711,20.07164 -4.81896,8.34671 -16.6507,14.06109 -27.6908,30.66094 -1.90685,2.86739 -4.52696,-1.78472 -4.69586,-3.3751 -0.44061,-4.10365 0.85979,-5.10693 3.11969,-15.0298 1.37671,-6.04713 -4.5361,-9.82316 -8.63975,-10.36956 -17.829,0.465 -29.83881,4.01412 -33.87024,-2.00452"
       style="fill:#ec1189;fill-opacity:1;fill-rule:nonzero;stroke:none;stroke-width:0.101752"
       id="path312" />
  </g>
</svg>
