<?xml version="1.0" encoding="UTF-8" standalone="no"?>
<!-- Created with Inkscape (http://www.inkscape.org/) -->

<svg
   xmlns:dc="http://purl.org/dc/elements/1.1/"
   xmlns:cc="http://creativecommons.org/ns#"
   xmlns:rdf="http://www.w3.org/1999/02/22-rdf-syntax-ns#"
   xmlns:svg="http://www.w3.org/2000/svg"
   xmlns="http://www.w3.org/2000/svg"
   xmlns:sodipodi="http://sodipodi.sourceforge.net/DTD/sodipodi-0.dtd"
   xmlns:inkscape="http://www.inkscape.org/namespaces/inkscape"
   width="1000"
   height="1000"
   viewBox="0 0 264.58333 264.58334"
   version="1.1"
   id="svg2383"
   inkscape:version="0.92.5 (2060ec1f9f, 2020-04-08)"
   sodipodi:docname="Well done.svg"
   enable-background="new">
  <defs
     id="defs2377" />
  <sodipodi:namedview
     id="base"
     pagecolor="#ffffff"
     bordercolor="#666666"
     borderopacity="1.0"
     inkscape:pageopacity="0.0"
     inkscape:pageshadow="2"
     inkscape:zoom="0.70710678"
     inkscape:cx="442.66433"
     inkscape:cy="493.65759"
     inkscape:document-units="px"
     inkscape:current-layer="layer1"
     showgrid="false"
     units="px"
     inkscape:window-width="1920"
     inkscape:window-height="1031"
     inkscape:window-x="0"
     inkscape:window-y="25"
     inkscape:window-maximized="1"
     showguides="true"
     inkscape:lockguides="true"
     inkscape:object-nodes="false"
     inkscape:snap-nodes="false"
     inkscape:snap-others="false" />
  <metadata
     id="metadata2380">
    <rdf:RDF>
      <cc:Work
         rdf:about="">
        <dc:format>image/svg+xml</dc:format>
        <dc:type
           rdf:resource="http://purl.org/dc/dcmitype/StillImage" />
        <dc:title></dc:title>
      </cc:Work>
    </rdf:RDF>
  </metadata>
  <g
     inkscape:groupmode="layer"
     id="layer3"
     inkscape:label="Layer 2">
    <ellipse
       style="fill:#ee7171;fill-opacity:1;stroke-width:0.45916313"
       id="path3018"
       cx="133.16296"
       cy="211.66116"
       rx="105.7971"
       ry="33.096272" />
  </g>
  <g
     inkscape:groupmode="layer"
     id="layer2"
     inkscape:label="Layer 3" />
  <g
     inkscape:label="Layer 1"
     inkscape:groupmode="layer"
     id="layer1"
     transform="translate(0,-32.41665)">
    <text
       xml:space="preserve"
       style="font-style:normal;font-variant:normal;font-weight:bold;font-stretch:normal;font-size:10.58333302px;line-height:1.25;font-family:sans-serif;-inkscape-font-specification:'sans-serif Bold';letter-spacing:0px;word-spacing:0px;fill:#000000;fill-opacity:1;stroke:none;stroke-width:0.26458332"
       x="150.05655"
       y="89.869026"
       id="text8811" />
    <text
       xml:space="preserve"
       style="font-style:normal;font-variant:normal;font-weight:bold;font-stretch:normal;font-size:10.58333302px;line-height:1.25;font-family:sans-serif;-inkscape-font-specification:'sans-serif Bold';letter-spacing:0px;word-spacing:0px;fill:#000000;fill-opacity:1;stroke:none;stroke-width:0.26458332"
       x="160.63989"
       y="97.806526"
       id="text8815" />
    <text
       xml:space="preserve"
       style="font-style:normal;font-variant:normal;font-weight:bold;font-stretch:normal;font-size:10.58333302px;line-height:1.25;font-family:sans-serif;-inkscape-font-specification:'sans-serif Bold';letter-spacing:0px;word-spacing:0px;fill:#000000;fill-opacity:1;stroke:none;stroke-width:0.26458332"
       x="156.86011"
       y="88.7351"
       id="text8819" />
    <flowRoot
       xml:space="preserve"
       id="flowRoot8821"
       style="font-style:normal;font-variant:normal;font-weight:bold;font-stretch:normal;font-size:40px;line-height:1.25;font-family:sans-serif;-inkscape-font-specification:'sans-serif Bold';letter-spacing:0px;word-spacing:0px;fill:#000000;fill-opacity:1;stroke:none"><flowRegion
         id="flowRegion8823"
         style="font-style:normal;font-variant:normal;font-weight:bold;font-stretch:normal;font-family:sans-serif;-inkscape-font-specification:'sans-serif Bold'" /><flowPara
         id="flowPara8827" /></flowRoot>    <flowRoot
       xml:space="preserve"
       id="flowRoot8829"
       style="font-style:normal;font-variant:normal;font-weight:bold;font-stretch:normal;font-size:40px;line-height:1.25;font-family:sans-serif;-inkscape-font-specification:'sans-serif Bold';letter-spacing:0px;word-spacing:0px;fill:#000000;fill-opacity:1;stroke:none"><flowRegion
         id="flowRegion8831"
         style="font-style:normal;font-variant:normal;font-weight:bold;font-stretch:normal;font-family:sans-serif;-inkscape-font-specification:'sans-serif Bold'" /><flowPara
         id="flowPara8835" /></flowRoot>    <flowRoot
       xml:space="preserve"
       id="flowRoot8837"
       style="font-style:normal;font-variant:normal;font-weight:bold;font-stretch:normal;font-size:40px;line-height:1.25;font-family:sans-serif;-inkscape-font-specification:'sans-serif Bold';letter-spacing:0px;word-spacing:0px;fill:#000000;fill-opacity:1;stroke:none"><flowRegion
         id="flowRegion8839"
         style="font-style:normal;font-variant:normal;font-weight:bold;font-stretch:normal;font-family:sans-serif;-inkscape-font-specification:'sans-serif Bold'" /><flowPara
         id="flowPara8843" /></flowRoot>    <text
       xml:space="preserve"
       style="font-style:normal;font-variant:normal;font-weight:bold;font-stretch:normal;font-size:10.58333302px;line-height:1.25;font-family:sans-serif;-inkscape-font-specification:'sans-serif Bold';letter-spacing:0px;word-spacing:0px;fill:#000000;fill-opacity:1;stroke:none;stroke-width:0.26458332"
       x="209.39882"
       y="107.25594"
       id="text8847" />
    <flowRoot
       xml:space="preserve"
       id="flowRoot8849"
       style="font-style:normal;font-variant:normal;font-weight:bold;font-stretch:normal;font-size:40px;line-height:1.25;font-family:sans-serif;-inkscape-font-specification:'sans-serif Bold';letter-spacing:0px;word-spacing:0px;fill:#000000;fill-opacity:1;stroke:none"><flowRegion
         id="flowRegion8851"
         style="font-style:normal;font-variant:normal;font-weight:bold;font-stretch:normal;font-family:sans-serif;-inkscape-font-specification:'sans-serif Bold'" /><flowPara
         id="flowPara8855" /></flowRoot>    <flowRoot
       xml:space="preserve"
       id="flowRoot8857"
       style="font-style:normal;font-variant:normal;font-weight:bold;font-stretch:normal;font-size:40px;line-height:1.25;font-family:sans-serif;-inkscape-font-specification:'sans-serif Bold';letter-spacing:0px;word-spacing:0px;fill:#000000;fill-opacity:1;stroke:none"><flowRegion
         id="flowRegion8859"
         style="font-style:normal;font-variant:normal;font-weight:bold;font-stretch:normal;font-family:sans-serif;-inkscape-font-specification:'sans-serif Bold'" /><flowPara
         id="flowPara8863" /></flowRoot>    <flowRoot
       xml:space="preserve"
       id="flowRoot8865"
       style="font-style:normal;font-variant:normal;font-weight:bold;font-stretch:normal;font-size:40px;line-height:1.25;font-family:sans-serif;-inkscape-font-specification:'sans-serif Bold';letter-spacing:0px;word-spacing:0px;fill:#000000;fill-opacity:1;stroke:none"><flowRegion
         id="flowRegion8867"
         style="font-style:normal;font-variant:normal;font-weight:bold;font-stretch:normal;font-family:sans-serif;-inkscape-font-specification:'sans-serif Bold'" /><flowPara
         id="flowPara8871" /></flowRoot>    <flowRoot
       xml:space="preserve"
       id="flowRoot8873"
       style="font-style:normal;font-variant:normal;font-weight:bold;font-stretch:normal;font-size:40px;line-height:1.25;font-family:sans-serif;-inkscape-font-specification:'sans-serif Bold';letter-spacing:0px;word-spacing:0px;fill:#000000;fill-opacity:1;stroke:none"><flowRegion
         id="flowRegion8875"
         style="font-style:normal;font-variant:normal;font-weight:bold;font-stretch:normal;font-family:sans-serif;-inkscape-font-specification:'sans-serif Bold'" /><flowPara
         id="flowPara8879" /></flowRoot>    <text
       xml:space="preserve"
       style="font-style:normal;font-weight:normal;font-size:10.58333302px;line-height:1.25;font-family:sans-serif;letter-spacing:0px;word-spacing:0px;fill:#000000;fill-opacity:1;stroke:none;stroke-width:0.26458332"
       x="101.02788"
       y="69.125984"
       id="text977"><tspan
         sodipodi:role="line"
         id="tspan975"
         x="101.02788"
         y="78.489754"
         style="stroke-width:0.26458332" /><tspan
         sodipodi:role="line"
         x="101.02788"
         y="91.718918"
         style="stroke-width:0.26458332"
         id="tspan979" /><tspan
         sodipodi:role="line"
         x="101.02788"
         y="104.94809"
         style="stroke-width:0.26458332"
         id="tspan981" /><tspan
         sodipodi:role="line"
         x="101.02788"
         y="118.17725"
         style="stroke-width:0.26458332"
         id="tspan983" /><tspan
         sodipodi:role="line"
         x="101.02788"
         y="131.40642"
         style="stroke-width:0.26458332"
         id="tspan985" /><tspan
         sodipodi:role="line"
         x="101.02788"
         y="144.63559"
         style="stroke-width:0.26458332"
         id="tspan987" /><tspan
         sodipodi:role="line"
         x="101.02788"
         y="157.86475"
         style="stroke-width:0.26458332"
         id="tspan989" /><tspan
         sodipodi:role="line"
         x="101.02788"
         y="171.09392"
         style="stroke-width:0.26458332"
         id="tspan991" /><tspan
         sodipodi:role="line"
         x="101.02788"
         y="184.32309"
         style="stroke-width:0.26458332"
         id="tspan993" /><tspan
         sodipodi:role="line"
         x="101.02788"
         y="197.55225"
         style="stroke-width:0.26458332"
         id="tspan995" /><tspan
         sodipodi:role="line"
         x="101.02788"
         y="210.78142"
         style="stroke-width:0.26458332"
         id="tspan997" /><tspan
         sodipodi:role="line"
         x="101.02788"
         y="224.01059"
         style="stroke-width:0.26458332"
         id="tspan999" /><tspan
         sodipodi:role="line"
         x="101.02788"
         y="237.23975"
         style="stroke-width:0.26458332"
         id="tspan1001" /><tspan
         sodipodi:role="line"
         x="101.02788"
         y="250.46892"
         style="stroke-width:0.26458332"
         id="tspan1003" /><tspan
         sodipodi:role="line"
         x="101.02788"
         y="263.69809"
         style="stroke-width:0.26458332"
         id="tspan1005" /><tspan
         sodipodi:role="line"
         x="101.02788"
         y="276.92725"
         style="stroke-width:0.26458332"
         id="tspan1007" /><tspan
         sodipodi:role="line"
         x="101.02788"
         y="290.1564"
         style="stroke-width:0.26458332"
         id="tspan1009" /><tspan
         sodipodi:role="line"
         x="101.02788"
         y="303.38559"
         style="stroke-width:0.26458332"
         id="tspan1011" /><tspan
         sodipodi:role="line"
         x="101.02788"
         y="316.61475"
         style="stroke-width:0.26458332"
         id="tspan1013" /><tspan
         sodipodi:role="line"
         x="101.02788"
         y="329.8439"
         style="stroke-width:0.26458332"
         id="tspan1015" /><tspan
         sodipodi:role="line"
         x="101.02788"
         y="343.07309"
         style="stroke-width:0.26458332"
         id="tspan1017" /><tspan
         sodipodi:role="line"
         x="101.02788"
         y="356.30225"
         style="stroke-width:0.26458332"
         id="tspan1019" /><tspan
         sodipodi:role="line"
         x="101.02788"
         y="369.5314"
         style="stroke-width:0.26458332"
         id="tspan1021" /><tspan
         sodipodi:role="line"
         x="101.02788"
         y="382.76059"
         style="stroke-width:0.26458332"
         id="tspan1023" /></text>
    <g
       id="g51605"
       transform="matrix(0.01149838,0,0,-0.00789139,56.264961,186.12477)"
       style="fill:#ee7171;fill-opacity:1;stroke-width:4.31140566">
      <path
         d="m 7516.4,15512.4 c 793.36,787.6 6266.1,768.2 7321.3,-220.2 1012.3,-948.3 763.9,-4388.2 -84.8,-5304.22 -663.4,-715.96 -6078.89,-952.56 -7236.5,11.48 -1184.09,986.14 -928.88,4590.94 0,5512.94"
         style="fill:#ee7171;fill-opacity:1;fill-rule:nonzero;stroke:none;stroke-width:4.31140566"
         id="path51607"
         inkscape:connector-curvature="0" />
    </g>
    <path
       d="m 129.59955,107.867 20.9867,-1.92038 -6.99547,-9.761882 z"
       style="fill:#ee7171;fill-opacity:1;fill-rule:nonzero;stroke:none;stroke-width:0.03527778"
       id="path51609"
       inkscape:connector-curvature="0" />
    <text
       xml:space="preserve"
       style="font-style:normal;font-weight:normal;font-size:10.58333302px;line-height:1.25;font-family:sans-serif;letter-spacing:0px;word-spacing:0px;fill:#000000;fill-opacity:1;stroke:none;stroke-width:0.26458332"
       x="148.92258"
       y="87.834854"
       id="text52360"><tspan
         sodipodi:role="line"
         id="tspan52358"
         x="148.92258"
         y="87.834854"
         style="font-style:normal;font-variant:normal;font-weight:bold;font-stretch:normal;font-size:12.69999981px;font-family:sans-serif;-inkscape-font-specification:'sans-serif Bold';stroke-width:0.26458332">Well done!</tspan></text>
    <g
       id="g19892"
       transform="matrix(0.02746713,0,0,-0.02784038,-425.52536,275.05503)"
       style="stroke-width:1.548985">
      <path
         d="m 15975.4,1919.46 c -25.8,11.03 -65.3,5.02 -67.5,-26.11 -0.8,-11.61 4.4,-22.57 9.8,-32.45 19,-34.59 43,-65.64 70.8,-91.66 -64.8,40.93 -145.1,22.64 -217.3,3.29 -19,-5.11 -42.2,-15.65 -42.6,-37.72 -0.6,-24.46 27,-35 48.6,-37.47 64.3,-7.09 129.4,-6.43 193.5,2.05 -50.7,-25.44 -87.6,-83.01 -93,-145.36 -0.5,-5.11 -0.7,-10.54 1.8,-14.82 3.3,-5.85 10.1,-7.5 16.3,-7.66 53.2,-1.56 88.4,59.79 112.5,113.33 -6,-36.9 -7.1,-74.87 -3.2,-112.18 2.3,-21.9 9,-47.19 27.4,-54.27 15.2,-5.85 31.9,3.79 42.7,17.13 38.6,47.44 21.3,122.88 0.4,182.83 46.1,-32.45 99.1,-52.54 153.2,-57.98 16.8,-1.64 34.7,-1.64 49,8.32 14.2,9.97 22.2,33.27 12.4,48.59 -5.2,7.99 -13.7,12.11 -21.8,15.57 -45.4,19.27 -93.3,31.3 -141.6,35.5 57.8,9.3 112.1,44.14 148.7,95.53 3.8,5.36 7.6,11.2 8.2,18.04 1.8,20.67 -19,41.1 -37.3,39.53 -27.2,-2.31 -56.8,-12.35 -83.1,-33.93 -15.7,-12.85 -64.8,-59.21 -82.5,-56.5 -34.4,5.35 -60.3,109.21 -105.4,128.4"
         style="fill:#f2f2f2;fill-opacity:1;fill-rule:nonzero;stroke:none;stroke-width:1.548985"
         id="path19894"
         inkscape:connector-curvature="0" />
    </g>
    <g
       id="g21038"
       transform="matrix(-0.06132445,0,0,-0.06772225,1027.0423,395.83196)"
       style="stroke-width:1.30465448">
      <path
         d="m 15064.9,4307.4 c -91.4,-337.56 -271.8,-390.22 -204.3,-581.13 450,-429.11 1242.8,-247.89 1439.4,24.38 -73.1,71.12 -145.3,304.37 -227.8,528.72 -322.7,-7.26 -839.4,67.22 -1007.3,28.03"
         style="fill:#773220;fill-opacity:1;fill-rule:nonzero;stroke:none;stroke-width:1.30465448"
         id="path21040"
         inkscape:connector-curvature="0" />
    </g>
    <g
       id="g21042"
       transform="matrix(-0.05622457,0,0,-0.06209033,1027.0423,395.83196)"
       style="stroke-width:1.30465448">
      <path
         d="m 16086.2,3886.56 c -3.1,-7.13 -15.6,-11.21 -34.9,-18.21 -16.8,-6.09 -42.1,-14.46 -49.7,-24.62 -8.2,-10.85 4.4,-17.58 25.2,-16.7 34.5,1.41 112.2,7.13 150.7,12.44 66,5.31 122.5,56.57 117.6,111.12 -7.4,81.78 -16,112.9 -22.6,162.97 -1.6,12.31 -29,-2.61 -34.2,-19.22 -11.2,-35.65 -2.9,-46.73 -10.3,-64.62 -7.2,-17.49 -24.1,-15.75 -41.5,-7.69 -70.3,61.09 -103.1,103.2 -132.1,94.09 -22.8,-10.85 19,-58.99 69,-111.25 -75.2,33.68 -139,55.1 -146.8,36.06 -9.1,-22.56 45.5,-60.32 110.6,-84.89 -65.4,-6.87 -128,-3.16 -131.9,-27.69 -3.5,-21.97 139.8,-21.74 130.9,-41.79"
         style="fill:#ffc19f;fill-opacity:1;fill-rule:nonzero;stroke:none;stroke-width:1.30465448"
         id="path21044"
         inkscape:connector-curvature="0" />
    </g>
    <g
       id="g21046"
       transform="matrix(-0.05817241,0,0,-0.06424137,1027.0423,395.83196)"
       style="stroke-width:1.30465448">
      <path
         d="m 16163.9,2374 c 34.9,18.8 81.4,42.11 115.7,61.97 -136.3,303.74 -132.1,269.15 20.4,596.38 -71.5,24.46 -152.5,42.91 -224.3,64.98 -106.4,-405.74 -119.3,-376.86 88.2,-723.33"
         style="fill:#ffc19f;fill-opacity:1;fill-rule:nonzero;stroke:none;stroke-width:1.30465448"
         id="path21048"
         inkscape:connector-curvature="0" />
    </g>
    <g
       id="g21050"
       transform="matrix(-0.06038372,0,0,-0.06668339,1027.0423,395.83196)"
       style="stroke-width:1.30465448">
      <path
         d="m 16284,2630.26 c 16,3.75 2.7,113.69 -13.7,112.45 -115.8,-8.56 -238.8,-20.37 -262.8,-9.33 -18.7,8.56 -19,160.09 -30.5,276.17 l -214.5,-40.27 c 16.7,-110.02 86.7,-360.67 119.4,-383.34 44,-30.43 385.2,40.35 402.1,44.32"
         style="fill:#ffc19f;fill-opacity:1;fill-rule:nonzero;stroke:none;stroke-width:1.30465448"
         id="path21052"
         inkscape:connector-curvature="0" />
    </g>
    <g
       id="g21054"
       transform="matrix(-0.05983848,0,0,-0.06608128,1027.0423,395.83196)"
       style="stroke-width:1.30465448">
      <path
         d="m 15641.1,3128.22 c 0,0 -168,-98.56 -211.5,-172.82 66.1,-229.97 531.9,-407.39 870.4,-15.35 -50.9,62.78 -178.3,159.36 -229,204.3 l -429.9,-16.13"
         style="fill:#48abb5;fill-opacity:1;fill-rule:nonzero;stroke:none;stroke-width:1.30465448"
         id="path21056"
         inkscape:connector-curvature="0" />
    </g>
    <g
       id="g21058"
       transform="matrix(-0.05765856,0,0,-0.06367391,1027.0423,395.83196)"
       style="stroke-width:1.30465448">
      <path
         d="m 15820.4,3848.96 c -16.1,-26.74 -32.8,-52.4 -51.3,-77.52 159.7,-102.55 313,-200.42 497.1,-250.76 9.1,58.15 22.2,113.44 33.8,171.1 -170.1,26.29 -323,86.49 -479.6,157.18"
         style="fill:#ffc19f;fill-opacity:1;fill-rule:nonzero;stroke:none;stroke-width:1.30465448"
         id="path21060"
         inkscape:connector-curvature="0" />
    </g>
    <g
       id="g21062"
       transform="matrix(-0.06078514,0,0,-0.06712668,1027.0423,395.83196)"
       style="stroke-width:1.30465448">
      <path
         d="m 16256.8,3583.07 c 13.4,-26.41 27.4,-51.81 43.2,-76.87 -158.1,-86.15 -309.7,-168.31 -487.4,-203.4 -4.6,55.62 -13.3,108.83 -20.3,164.2 162.7,13.25 311.4,59.81 464.5,116.07"
         style="fill:#ffc19f;fill-opacity:1;fill-rule:nonzero;stroke:none;stroke-width:1.30465448"
         id="path21064"
         inkscape:connector-curvature="0" />
    </g>
    <g
       id="g21066"
       transform="matrix(-0.05928604,0,0,-0.06547119,1027.0423,395.83196)"
       style="stroke-width:1.30465448">
      <path
         d="m 15719.6,3105.5 c 117.2,-95.83 486.9,-79.94 580.4,-3.51 0,0 -74.2,337.57 -84,475.28 -123.7,6.34 -296.6,20.4 -372.8,20.62 -49.8,-85.72 -87.5,-396.56 -123.6,-492.39"
         style="fill:#e2511e;fill-opacity:1;fill-rule:nonzero;stroke:none;stroke-width:1.30465448"
         id="path21068"
         inkscape:connector-curvature="0" />
    </g>
    <g
       id="g21070"
       transform="matrix(-0.05851,0,0,-0.06461418,1027.0423,395.83196)"
       style="stroke-width:1.30465448">
      <path
         d="m 16300,3708.46 -7.2,-108.97 c -1.5,-23.44 -39.8,-39.98 -85.5,-36.99 -45.7,2.99 -81.5,24.41 -80,47.85 l 7.1,108.97 165.6,-10.86"
         style="fill:#e0956c;fill-opacity:1;fill-rule:nonzero;stroke:none;stroke-width:1.30465448"
         id="path21072"
         inkscape:connector-curvature="0" />
    </g>
    <g
       id="g21074"
       transform="matrix(-0.06918835,0,0,-0.06483742,1154.0872,388.62495)"
       style="stroke-width:1.25991762">
      <path
         d="m 16176.2,3474.34 c 2.4,-6.69 13.5,-11.24 30.7,-18.89 14.8,-6.61 37.3,-15.93 43.6,-25.67 6.7,-10.41 -5.2,-15.72 -24.1,-13.59 -31.3,3.6 -101.8,13.88 -136.5,21.24 -59.8,9.16 -107.9,59.57 -99.8,108.94 12.1,74.04 21.9,101.84 31.2,146.99 2.3,11.12 26.2,-4.22 29.9,-19.73 7.9,-33.24 -0.4,-42.77 5.2,-59.57 5.4,-16.39 20.9,-15.93 37.3,-9.7 68.1,51.04 100.7,87.29 126.5,77.05 20.1,-11.38 -21.2,-52.47 -70.2,-96.83 70.9,25.76 130.4,41.1 136.2,23.21 6.8,-21.12 -45.5,-51.97 -106.3,-70.07 59.1,-10.54 116.3,-11.29 118.3,-33.86 1.8,-20.28 -128.8,-10.66 -122,-29.52"
         style="fill:#ffc19f;fill-opacity:1;fill-rule:nonzero;stroke:none;stroke-width:1.25991762"
         id="path21076"
         inkscape:connector-curvature="0" />
    </g>
    <g
       id="g21078"
       transform="matrix(-0.0577764,0,0,-0.06380406,1027.0423,395.83196)"
       style="stroke-width:1.30465448">
      <path
         d="m 16089.7,3730.95 c 58.7,-11.35 113.4,-23.96 210.3,-39.77 -14.5,-56.91 -65.8,-140.55 -77.8,-198.05 -48.1,12.74 -122.7,34.21 -169.1,46.5 1.1,4.1 22,125.59 36.6,191.32"
         style="fill:#e2511e;fill-opacity:1;fill-rule:nonzero;stroke:none;stroke-width:1.30465448"
         id="path21080"
         inkscape:connector-curvature="0" />
    </g>
    <g
       id="g21082"
       transform="matrix(-0.05959146,0,0,-0.06580848,1027.0423,395.83196)"
       style="stroke-width:1.30465448">
      <path
         d="m 16287.9,3572.19 c -57.8,-3.93 -103.6,-8.37 -200.3,-10.7 7.2,-56.48 39.4,-142.32 44.1,-199.02 47.9,6.48 122.2,18.22 168.3,24.48 -0.6,4.06 -5.9,120.26 -12.1,185.24"
         style="fill:#e2511e;fill-opacity:1;fill-rule:nonzero;stroke:none;stroke-width:1.30465448"
         id="path21084"
         inkscape:connector-curvature="0" />
    </g>
    <g
       id="g21086"
       transform="matrix(-0.05711486,0,0,-0.0630735,1027.0423,395.83196)"
       style="stroke-width:1.30465448">
      <path
         d="m 16029.8,4181.67 c -5.4,-115.51 64,-209.71 132.7,-218.68 68.7,-8.92 105.1,76.41 121.3,184.49 16.2,108.03 -26.3,203.13 -95,211.83 -94,11.85 -153.8,-69.07 -159,-177.64"
         style="fill:#f4b18c;fill-opacity:1;fill-rule:nonzero;stroke:none;stroke-width:1.30465448"
         id="path21088"
         inkscape:connector-curvature="0" />
    </g>
    <g
       id="g21090"
       transform="matrix(-0.0569525,0,0,-0.0628942,1027.0423,395.83196)"
       style="stroke-width:1.30465448">
      <path
         d="m 16155.3,4124.05 c 12.5,-47.25 52.3,-78.83 88.8,-70.43 36.5,8.36 55.9,53.49 43.4,100.75 -12.5,47.3 -52.2,78.79 -88.7,70.44 -36.6,-8.36 -56,-53.45 -43.5,-100.76"
         style="fill:#e0956c;fill-opacity:1;fill-rule:nonzero;stroke:none;stroke-width:1.30465448"
         id="path21092"
         inkscape:connector-curvature="0" />
    </g>
    <g
       id="g21094"
       transform="matrix(-0.06075142,0,0,-0.06708945,1027.0423,395.83196)"
       style="stroke-width:1.30465448">
      <path
         d="m 15170.4,4207.07 c -52.4,-357.17 147.1,-550.56 459.6,-596.43 312.4,-45.87 565.1,81.15 617.6,438.32 52.4,357.18 -167.7,517.66 -480.2,563.53 -312.4,45.87 -544.6,-48.24 -597,-405.42"
         style="fill:#773220;fill-opacity:1;fill-rule:nonzero;stroke:none;stroke-width:1.30465448"
         id="path21096"
         inkscape:connector-curvature="0" />
    </g>
    <g
       id="g21098"
       transform="matrix(-0.06017967,0,0,-0.06645806,1027.0423,395.83196)"
       style="stroke-width:1.30465448">
      <path
         d="m 15395.3,4435.7 c -41.9,-27.92 -25.1,-113.01 -29.2,-177.83 -14.4,-233.71 -46,-329.01 -64,-433.51 23.6,-175.82 245.9,-252.44 290.1,-260.18 98.9,-17.44 421,9.28 478.3,80.86 101.1,126.3 229.5,551.69 216.2,611.93 -45,203.4 -148.7,198.82 -395.3,235.04 -230.7,33.86 -345.5,44.13 -496.1,-56.31"
         style="fill:#ffc19f;fill-opacity:1;fill-rule:nonzero;stroke:none;stroke-width:1.30465448"
         id="path21100"
         inkscape:connector-curvature="0" />
    </g>
    <g
       id="g21102"
       transform="matrix(-0.06054686,0,0,-0.06686355,1027.0423,395.83196)"
       style="stroke-width:1.30465448">
      <path
         d="m 16043.5,4040.5 c -34.5,-104.41 -54.5,-192.09 11.6,-263.27 77.1,-83.08 194.9,147.47 219.9,317.84 25,170.41 -77.2,314.36 -296.3,331.35 -112.9,8.76 157.3,-105.65 64.8,-385.92"
         style="fill:#773220;fill-opacity:1;fill-rule:nonzero;stroke:none;stroke-width:1.30465448"
         id="path21104"
         inkscape:connector-curvature="0" />
    </g>
    <g
       id="g21106"
       transform="matrix(-0.06053786,0,0,-0.06685361,1027.0423,395.83196)"
       style="stroke-width:1.30465448">
      <path
         d="m 16252.1,3727.14 c -50.9,-96.4 -165.7,-137.33 -238.2,-109.54 -72.6,27.84 -67,115.57 -30.4,211.42 36.6,95.89 125.1,151.31 197.5,123.26 99,-38.34 119,-134.48 71.1,-225.14"
         style="fill:#ffc19f;fill-opacity:1;fill-rule:nonzero;stroke:none;stroke-width:1.30465448"
         id="path21108"
         inkscape:connector-curvature="0" />
    </g>
    <g
       id="g21110"
       transform="matrix(-0.06000651,0,0,-0.06626683,1027.0423,395.83196)"
       style="stroke-width:1.30465448">
      <path
         d="m 16267.7,3754.38 c -27.5,-42.36 -82.2,-51.07 -101.7,-34.47 -21.9,18.65 -16.5,45.75 2,88.93 21.5,50.43 50.8,74.91 84.5,56.26 35.1,-19.42 47.5,-60.89 15.2,-110.72"
         style="fill:#e0956c;fill-opacity:1;fill-rule:nonzero;stroke:none;stroke-width:1.30465448"
         id="path21112"
         inkscape:connector-curvature="0" />
    </g>
    <g
       id="g21114"
       transform="matrix(-0.05692959,0,0,-0.06286891,1027.0423,395.83196)"
       style="stroke-width:1.30465448">
      <path
         d="m 16198.2,4122.55 c -6.2,-17.81 10.1,-39.73 36.4,-49 26.4,-9.26 52.9,-2.35 59.1,15.42 6.3,17.76 -10,39.72 -36.4,48.99 -26.4,9.27 -52.8,2.35 -59.1,-15.41"
         style="fill:#ff9797;fill-opacity:1;fill-rule:nonzero;stroke:none;stroke-width:1.30465448"
         id="path21116"
         inkscape:connector-curvature="0" />
    </g>
    <g
       id="g21118"
       transform="matrix(-0.05920756,0,0,-0.06538453,1027.0423,395.83196)"
       style="stroke-width:1.30465448">
      <path
         d="m 16170.5,3860.12 c -0.6,-20.78 27.8,-38.46 63.3,-39.55 35.6,-1.09 64.9,14.86 65.6,35.59 0.6,20.78 -27.7,38.46 -63.3,39.55 -35.6,1.09 -64.9,-14.86 -65.6,-35.59"
         style="fill:#ff9797;fill-opacity:1;fill-rule:nonzero;stroke:none;stroke-width:1.30465448"
         id="path21120"
         inkscape:connector-curvature="0" />
    </g>
    <g
       id="g21122"
       transform="matrix(-0.05781886,0,0,-0.06385094,1027.0423,395.83196)"
       style="stroke-width:1.30465448">
      <path
         d="m 16219.2,4066.27 c 2.3,-0.36 4.5,0.98 5.2,3.25 5.2,15.97 19.7,24.65 37,22.11 17.4,-2.53 29.1,-15.31 29,-31.68 0,-2.63 2.1,-4.81 4.7,-4.81 2.7,0 4.8,2.14 4.8,4.76 0.1,21.01 -15.2,37.92 -37.1,41.17 -21.9,3.2 -40.9,-8.32 -47.4,-28.66 -0.8,-2.49 0.5,-5.16 3,-5.97 l 0.8,-0.17"
         style="fill:#c68c75;fill-opacity:1;fill-rule:nonzero;stroke:none;stroke-width:1.30465448"
         id="path21124"
         inkscape:connector-curvature="0" />
    </g>
    <g
       id="g21126"
       transform="matrix(-0.05846805,0,0,-0.06456787,1027.0423,395.83196)"
       style="stroke-width:1.30465448">
      <path
         d="m 15929.4,3923.77 c -5.2,-73.18 71.2,-138.23 170.7,-145.36 99.5,-7.08 184.3,75.65 189.6,119.58 10.3,83.83 -83.2,54.13 -182.3,66.14 -99,11.97 -172.8,32.79 -178,-40.36"
         style="fill:#5b0000;fill-opacity:1;fill-rule:nonzero;stroke:none;stroke-width:1.30465448"
         id="path21128"
         inkscape:connector-curvature="0" />
    </g>
    <g
       id="g21130"
       transform="matrix(-0.05826349,0,0,-0.06434197,1027.0423,395.83196)"
       style="stroke-width:1.30465448">
      <path
         d="m 16164.3,3981.23 c 51,-6.14 100.5,-1.9 135.7,-7.11 -19,-28.22 -72.6,-46.02 -134.4,-41.64 -61.6,4.41 -112.2,29.49 -127.1,60.1 32.1,2.52 75.8,-5.3 125.8,-11.35"
         style="fill:#ffffff;fill-opacity:1;fill-rule:nonzero;stroke:none;stroke-width:1.30465448"
         id="path21132"
         inkscape:connector-curvature="0" />
    </g>
    <g
       id="g21134"
       transform="matrix(-0.05815181,0,0,-0.06421864,1027.0423,395.83196)"
       style="stroke-width:1.30465448">
      <path
         d="m 16160.3,3876.57 c 62,-2.12 115.5,-23.05 139.7,-51.28 -32,-18.68 -71,-31.11 -112.5,-28.15 -56.7,4.08 -106.1,26.55 -137.9,58.63 27.9,14.16 67,22.35 110.7,20.8"
         style="fill:#d36553;fill-opacity:1;fill-rule:nonzero;stroke:none;stroke-width:1.30465448"
         id="path21136"
         inkscape:connector-curvature="0" />
    </g>
    <g
       id="g21138"
       transform="matrix(-0.05739919,0,0,-0.06338749,1027.0423,395.83196)"
       style="stroke-width:1.30465448">
      <path
         d="m 16298.7,4123.07 c -44.2,-21.61 -211.1,-1.75 -216.6,80.2 -2.6,39.22 56.4,84.14 117.5,69.84 55,-12.82 100.4,-70.25 99.1,-150.04"
         style="fill:#f9feff;fill-opacity:1;fill-rule:nonzero;stroke:none;stroke-width:1.30465448"
         id="path21140"
         inkscape:connector-curvature="0" />
    </g>
    <g
       id="g21142"
       transform="matrix(-0.05730167,0,0,-0.06327979,1027.0423,395.83196)"
       style="stroke-width:1.30465448">
      <path
         d="m 16116.1,4259.41 c 20.3,22.72 68.1,37.32 112.1,25.64 53.4,-14.14 71.8,-57.61 71.8,-57.61 -17.5,26.04 -46.3,41.85 -73.8,48.32 -41.2,9.65 -77,-8.4 -95.1,-26.77 -12.1,-12.12 -18.3,-25.64 -17.4,-38.03 0.8,-13.38 8.7,-34.13 19,-45.13 -30.8,25.73 -38.2,69.51 -16.6,93.58"
         style="fill:#602220;fill-opacity:1;fill-rule:nonzero;stroke:none;stroke-width:1.30465448"
         id="path21144"
         inkscape:connector-curvature="0" />
    </g>
    <g
       id="g21146"
       transform="matrix(-0.05728648,0,0,-0.06326302,1027.0423,395.83196)"
       style="stroke-width:1.30465448">
      <path
         d="m 16298.2,4199.19 c -1.8,-33.86 -27.3,-60.68 -57,-59.96 -29.6,0.76 -52.2,28.84 -50.4,62.7 1.8,33.87 27.3,60.69 57,59.92 29.6,-0.72 52.2,-28.79 50.4,-62.66"
         style="fill:#461d14;fill-opacity:1;fill-rule:nonzero;stroke:none;stroke-width:1.30465448"
         id="path21148"
         inkscape:connector-curvature="0" />
    </g>
    <g
       id="g21150"
       transform="matrix(-0.05728083,0,0,-0.06325678,1027.0423,395.83196)"
       style="stroke-width:1.30465448">
      <path
         d="m 16299.5,4210.53 c -0.5,-9.39 -7.5,-16.85 -15.8,-16.62 -8.2,0.18 -14.5,7.99 -14,17.38 0.5,9.39 7.6,16.85 15.8,16.62 8.3,-0.22 14.5,-7.99 14,-17.38"
         style="fill:#fefffe;fill-opacity:1;fill-rule:nonzero;stroke:none;stroke-width:1.30465448"
         id="path21152"
         inkscape:connector-curvature="0" />
    </g>
    <g
       id="g21154"
       transform="matrix(-0.05913834,0,0,-0.0653081,1027.0423,395.83196)"
       style="stroke-width:1.30465448">
      <path
         d="m 16030.5,3969.93 c 40.9,-32.93 225.5,-63.17 255.2,11.41 14.3,35.67 -35.8,94.54 -105.4,99.11 -62.6,4.09 -128,-36.03 -149.8,-110.52"
         style="fill:#f9feff;fill-opacity:1;fill-rule:nonzero;stroke:none;stroke-width:1.30465448"
         id="path21156"
         inkscape:connector-curvature="0" />
    </g>
    <g
       id="g21158"
       transform="matrix(-0.05917103,0,0,-0.06534418,1027.0423,395.83196)"
       style="stroke-width:1.30465448">
      <path
         d="m 16284,4026.44 c -15.2,26.96 -62,54.35 -112.4,56.36 -61.2,2.43 -93.5,-32.53 -93.5,-32.53 26.3,19.04 61.6,25.35 92.9,23.31 46.8,-3 79.9,-30.18 93.9,-52.45 9.4,-14.78 12,-29.09 7.5,-40.31 -4.8,-12.13 -19.2,-29.13 -33.5,-36.31 40.5,14.87 61.1,53.36 45.1,81.93"
         style="fill:#602220;fill-opacity:1;fill-rule:nonzero;stroke:none;stroke-width:1.30465448"
         id="path21160"
         inkscape:connector-curvature="0" />
    </g>
    <g
       id="g21162"
       transform="matrix(-0.05883317,0,0,-0.06497108,1027.0423,395.83196)"
       style="stroke-width:1.30465448">
      <path
         d="m 16298.7,4025.77 c -1.3,-33.03 -29.2,-58.74 -62.2,-57.43 -33.1,1.36 -58.7,29.17 -57.4,62.24 1.3,33.02 29.1,58.73 62.2,57.38 33,-1.32 58.7,-29.17 57.4,-62.19"
         style="fill:#461d14;fill-opacity:1;fill-rule:nonzero;stroke:none;stroke-width:1.30465448"
         id="path21164"
         inkscape:connector-curvature="0" />
    </g>
    <g
       id="g21166"
       transform="matrix(-0.05882777,0,0,-0.06496511,1027.0423,395.83196)"
       style="stroke-width:1.30465448">
      <path
         d="m 16299.6,4036.8 c -0.3,-9.18 -8.1,-16.31 -17.2,-15.96 -9.2,0.39 -16.3,8.14 -16,17.28 0.4,9.18 8.1,16.31 17.3,15.92 9.2,-0.35 16.3,-8.09 15.9,-17.24"
         style="fill:#fefffe;fill-opacity:1;fill-rule:nonzero;stroke:none;stroke-width:1.30465448"
         id="path21168"
         inkscape:connector-curvature="0" />
    </g>
    <g
       id="g21170"
       transform="matrix(-0.05736934,0,0,-0.06335453,1027.0423,395.83196)"
       style="stroke-width:1.30465448">
      <path
         d="m 16120.7,4445.42 c 3.2,-0.58 6.6,-0.09 9.5,1.7 38.1,22.79 101.3,18.97 147.2,-8.97 6.3,-3.9 14.8,-1.84 18.7,4.58 3.9,6.41 1.8,14.8 -4.6,18.7 -54.7,33.23 -128.4,37.09 -175.3,9.01 -6.4,-3.85 -8.5,-12.19 -4.6,-18.65 2,-3.46 5.4,-5.65 9.1,-6.37"
         style="fill:#4f251d;fill-opacity:1;fill-rule:nonzero;stroke:none;stroke-width:1.30465448"
         id="path21172"
         inkscape:connector-curvature="0" />
    </g>
    <g
       id="g21174"
       transform="matrix(-0.0590784,0,0,-0.06524188,1027.0423,395.83196)"
       style="stroke-width:1.30465448">
      <path
         d="m 16284.9,4244.03 c 3.6,-0.13 7.3,1.22 10,4.01 5.1,5.23 5,13.63 -0.3,18.69 -38,36.89 -108.6,49.65 -167.7,30.31 -6.9,-2.27 -10.7,-9.71 -8.4,-16.64 2.2,-6.97 9.7,-10.76 16.6,-8.45 49.6,16.2 110.2,5.79 141.2,-24.17 2.4,-2.35 5.5,-3.62 8.6,-3.75"
         style="fill:#4f251d;fill-opacity:1;fill-rule:nonzero;stroke:none;stroke-width:1.30465448"
         id="path21176"
         inkscape:connector-curvature="0" />
    </g>
    <g
       id="g21178"
       transform="matrix(-0.05977467,0,0,-0.06601081,1027.0423,395.83196)"
       style="stroke-width:1.30465448">
      <path
         d="m 15852.8,4657.79 c 338.9,-11.36 447.2,-177.09 445.3,-208.69 -6.6,-111.32 -115.5,-216.4 -137.2,-208.05 -9.4,3.58 12.8,58.37 17.6,137.49 -53.3,-109.42 -159.9,-172.4 -185.8,-155.14 -13.7,9.13 51.8,68.88 75.7,182.61 -34.8,-89.58 -111.8,-195.61 -218.2,-192.03 -89.8,3.01 -179.4,83.55 -234,164.13 19.2,-67.79 44,-109.76 33.6,-115.62 -29.1,-16.4 -168.9,75.25 -194.2,208.73 -5.9,30.87 126.6,195.65 397.2,186.57"
         style="fill:#773220;fill-opacity:1;fill-rule:nonzero;stroke:none;stroke-width:1.30465448"
         id="path21180"
         inkscape:connector-curvature="0" />
    </g>
    <g
       id="g21182"
       transform="matrix(-0.06031117,0,0,-0.06660327,1027.0423,395.83196)"
       style="stroke-width:1.30465448">
      <path
         d="m 16284.2,4206.72 c 15.8,498.66 -698.5,561.76 -894.5,315.97 225.9,156.41 668.3,67.62 894.5,-315.97"
         style="fill:#40c4b7;fill-opacity:1;fill-rule:nonzero;stroke:none;stroke-width:1.30465448"
         id="path21184"
         inkscape:connector-curvature="0" />
    </g>
    <g
       id="g21186"
       transform="matrix(-0.05816443,0,0,-0.06423257,1027.0423,395.83196)"
       style="stroke-width:1.30465448">
      <path
         d="m 16298.7,2396.84 c 1.3,-4.12 -134.6,-59.95 -137.4,-55.52 -23.6,36.98 -70.5,124.49 -80.9,140.85 l 164.2,69.64 c 14.4,-43.18 45.9,-128.43 54.1,-154.97"
         style="fill:#ff9cb8;fill-opacity:1;fill-rule:nonzero;stroke:none;stroke-width:1.30465448"
         id="path21188"
         inkscape:connector-curvature="0" />
    </g>
    <g
       id="g21190"
       transform="matrix(-0.05822746,0,0,-0.06430219,1027.0423,395.83196)"
       style="stroke-width:1.30465448">
      <path
         d="m 16122,2429.41 c -1.5,10.43 106,27.54 122.4,37.35 9.2,-21.92 36.8,-52.06 47.9,-82.33 7.7,-21.04 -5,-43.75 -24.2,-55.33 -74.3,-44.9 -271.6,-167.04 -302,-116.57 -25,41.4 81.6,111.53 155.9,216.88"
         style="fill:#ff9cb8;fill-opacity:1;fill-rule:nonzero;stroke:none;stroke-width:1.30465448"
         id="path21192"
         inkscape:connector-curvature="0" />
    </g>
    <g
       id="g21194"
       transform="matrix(-0.0582828,0,0,-0.06436327,1027.0423,395.83196)"
       style="stroke-width:1.30465448">
      <path
         d="m 16253.2,2441.42 c -2.2,1.14 -6.4,-0.36 -8.3,-4.37 -15.9,-19.08 -43.5,-43.14 -66.9,-61.33 -8,-6.18 -16.1,-11.7 -24.4,-16.69 -18.1,21.11 -51.9,41.59 -77,45.48 -5.3,0.84 -10.2,-2.78 -11,-7.99 -0.9,-5.26 2.8,-10.2 8,-11 19.4,-3 46.7,-19.25 62.6,-35.76 -52.2,-26.09 -103.9,-29.36 -128.6,-18.19 -57.6,-73.02 -107.3,-104.28 -94.3,-139.24 18.5,-49.8 386.7,149.35 386.7,149.35 -12.4,29.41 -35.5,73.34 -46.8,99.74"
         style="fill:#e8677a;fill-opacity:1;fill-rule:nonzero;stroke:none;stroke-width:1.30465448"
         id="path21196"
         inkscape:connector-curvature="0" />
    </g>
    <g
       id="g21198"
       transform="matrix(-0.0582828,0,0,-0.06436327,1027.0423,395.83196)"
       style="stroke-width:1.30465448">
      <path
         d="m 16292.7,2360.31 c 2.5,-6.62 5,-13.02 7.3,-18.63 0,0 -309.7,-187.05 -377.8,-163.04 -2.4,0.84 -7.6,7.91 -7.7,10.82 99.1,16.78 300,126.18 378.2,170.85"
         style="fill:#9e3b4e;fill-opacity:1;fill-rule:nonzero;stroke:none;stroke-width:1.30465448"
         id="path21200"
         inkscape:connector-curvature="0" />
    </g>
    <g
       id="g21202"
       transform="matrix(-0.0603845,0,0,-0.06668425,1027.0423,395.83196)"
       style="stroke-width:1.30465448">
      <path
         d="m 16257.6,2776.81 c 4.1,0.76 42.4,-135.42 37.9,-137.64 -38,-18.49 -127,-53.65 -143.8,-61.79 l -48.4,164.91 c 43,9.03 128.1,29.66 154.3,34.52"
         style="fill:#ff9cb8;fill-opacity:1;fill-rule:nonzero;stroke:none;stroke-width:1.30465448"
         id="path21204"
         inkscape:connector-curvature="0" />
    </g>
    <g
       id="g21206"
       transform="matrix(-0.06093387,0,0,-0.06729092,1027.0423,395.83196)"
       style="stroke-width:1.30465448">
      <path
         d="m 16060.1,2604.65 c -10,-0.25 -14.4,103.75 -21.9,120.39 21.8,6.25 53.5,29.14 83.4,36.32 20.8,5.02 41,-9.59 49.9,-29.1 34.4,-75.42 128.5,-276.21 77.2,-299.48 -42,-19.13 -96.8,89.78 -188.6,171.87"
         style="fill:#ff9cb8;fill-opacity:1;fill-rule:nonzero;stroke:none;stroke-width:1.30465448"
         id="path21208"
         inkscape:connector-curvature="0" />
    </g>
    <g
       id="g21210"
       transform="matrix(-0.06097528,0,0,-0.06733667,1027.0423,395.83196)"
       style="stroke-width:1.30465448">
      <path
         d="m 16051.8,2743.57 c -1.3,-1.94 -0.4,-6.08 3.2,-8.36 16.4,-17.17 36.2,-46.04 50.8,-70.3 5,-8.23 9.4,-16.58 13.2,-24.94 -22,-14.94 -45.2,-44.69 -51.7,-68.15 -1.4,-4.94 1.5,-9.96 6.4,-11.35 4.9,-1.35 9.9,1.52 11.3,6.41 5,18.1 23.5,42.24 40.8,55.45 19,-52.41 16.5,-101.83 3.1,-124.02 63,-62.79 87.2,-113.43 121.8,-104.99 49.3,12.07 -99.1,383.71 -99.1,383.71 -29.3,-8.52 -73.5,-25.57 -99.8,-33.46"
         style="fill:#e8677a;fill-opacity:1;fill-rule:nonzero;stroke:none;stroke-width:1.30465448"
         id="path21212"
         inkscape:connector-curvature="0" />
    </g>
    <g
       id="g21214"
       transform="matrix(-0.06095676,0,0,-0.06731621,1027.0423,395.83196)"
       style="stroke-width:1.30465448">
      <path
         d="m 16138.1,2772.98 c 6.6,1.65 12.9,3.26 18.5,4.9 0,0 143.4,-314.86 113.1,-376.87 -1.1,-2.19 -8.4,-6.33 -11.2,-6.07 -5,95.94 -86.6,298.86 -120.4,378.04"
         style="fill:#9e3b4e;fill-opacity:1;fill-rule:nonzero;stroke:none;stroke-width:1.30465448"
         id="path21216"
         inkscape:connector-curvature="0" />
    </g>
  </g>
</svg>
