<?xml version="1.0" encoding="UTF-8" standalone="no"?>
<!-- Created with Inkscape (http://www.inkscape.org/) -->

<svg
   width="1000"
   height="1000"
   viewBox="0 0 264.58333 264.58334"
   version="1.1"
   id="svg2383"
   inkscape:version="1.2 (1:1.2.1+202207142221+cd75a1ee6d)"
   sodipodi:docname="My brother is younger than me.svg"
   enable-background="new"
   xmlns:inkscape="http://www.inkscape.org/namespaces/inkscape"
   xmlns:sodipodi="http://sodipodi.sourceforge.net/DTD/sodipodi-0.dtd"
   xmlns="http://www.w3.org/2000/svg"
   xmlns:svg="http://www.w3.org/2000/svg"
   xmlns:rdf="http://www.w3.org/1999/02/22-rdf-syntax-ns#"
   xmlns:cc="http://creativecommons.org/ns#"
   xmlns:dc="http://purl.org/dc/elements/1.1/">
  <defs
     id="defs2377" />
  <sodipodi:namedview
     id="base"
     pagecolor="#ffffff"
     bordercolor="#666666"
     borderopacity="1.0"
     inkscape:pageopacity="0.0"
     inkscape:pageshadow="2"
     inkscape:zoom="0.5"
     inkscape:cx="713"
     inkscape:cy="678"
     inkscape:document-units="px"
     inkscape:current-layer="layer3"
     showgrid="false"
     units="px"
     inkscape:window-width="1920"
     inkscape:window-height="1031"
     inkscape:window-x="0"
     inkscape:window-y="25"
     inkscape:window-maximized="1"
     showguides="false"
     inkscape:showpageshadow="2"
     inkscape:pagecheckerboard="0"
     inkscape:deskcolor="#d1d1d1" />
  <metadata
     id="metadata2380">
    <rdf:RDF>
      <cc:Work
         rdf:about="">
        <dc:format>image/svg+xml</dc:format>
        <dc:type
           rdf:resource="http://purl.org/dc/dcmitype/StillImage" />
      </cc:Work>
    </rdf:RDF>
  </metadata>
  <g
     inkscape:groupmode="layer"
     id="layer3"
     inkscape:label="Layer 2">
    <path
       d="m 228.94981,107.31435 c 0.67187,-1.37504 8.23046,-3.40877 9.71417,-17.699266 -2.01561,-2.656204 -74.66033,-14.726881 -77.42688,-12.866052 -3.21774,14.002319 3.55369,18.361261 3.46807,19.889439 -0.084,1.477138 -1.90859,1.747209 -2.78466,0.423218 -0.85302,1.342106 -0.50556,3.636031 0.55659,4.740991 1.79826,1.86906 4.22887,2.54588 6.82743,1.78508 -1.18236,3.93243 14.22463,9.72571 25.0553,11.64911 11.73144,2.08314 27.8383,1.26965 27.98981,-2.83406 2.21488,1.55948 4.81674,1.61052 7.03821,0.51873 1.47219,-0.72457 2.64139,-3.42195 2.17865,-4.05924 -1.25647,0.96829 -3.50594,0.27336 -2.61669,-1.54795"
       style="fill:#752912;fill-opacity:1;fill-rule:nonzero;stroke:none;stroke-width:0.0164675"
       id="path59004" />
    <path
       d="m 195.5916,243.30131 c -22.52259,0 -40.78012,-1.47384 -40.78012,-3.2902 0,-1.81637 18.25753,-3.28856 40.78012,-3.28856 22.5226,0 40.78175,1.47219 40.78175,3.28856 0,1.81636 -18.25915,3.2902 -40.78175,3.2902"
       style="fill:#e0e0e0;fill-opacity:1;fill-rule:nonzero;stroke:none;stroke-width:0.0164675"
       id="path59006" />
    <path
       d="m 190.62665,226.50281 c -0.0181,1.27623 -11.39387,2.54588 -11.51901,1.2713 -1.23013,-12.37039 -6.72204,-46.20781 -7.48777,-51.10524 l 17.59222,1.02263 c -0.20749,12.20571 1.53313,39.96333 1.41456,48.81131"
       style="fill:#ffc19f;fill-opacity:1;fill-rule:nonzero;stroke:none;stroke-width:0.0164675"
       id="path59008" />
    <path
       d="m 201.8723,226.0302 c 0.15151,1.26635 11.67216,1.23507 11.66393,-0.0445 -0.0757,-12.4313 -0.36393,-45.84551 -0.11691,-50.79564 l -16.95659,2.17206 c 1.49196,12.11679 4.35894,39.88264 5.40957,48.66805"
       style="fill:#ffc19f;fill-opacity:1;fill-rule:nonzero;stroke:none;stroke-width:0.0164675"
       id="path59010" />
    <path
       d="m 141.11168,100.24321 c -0.9067,-0.622472 4.43025,-7.980144 5.37714,-7.413664 14.15216,8.465934 32.46567,18.028614 36.38164,19.739594 l -6.64299,9.88379 c -8.06578,-5.03248 -23.13519,-13.99573 -35.11579,-22.20972"
       style="fill:#ffc19f;fill-opacity:1;fill-rule:nonzero;stroke:none;stroke-width:0.0164675"
       id="path59012" />
    <path
       d="m 166.32062,102.89118 c -1.98598,3.43512 -5.33053,11.41199 -7.15513,15.10071 7.59646,4.38364 13.97761,7.54704 14.6182,7.51741 6.66769,-0.32277 12.25676,-12.85618 12.81007,-13.51817 -4.07406,-1.57595 -12.75078,-5.04565 -20.27314,-9.09995"
       style="fill:#d844b5;fill-opacity:1;fill-rule:nonzero;stroke:none;stroke-width:0.0164675"
       id="path59014" />
    <path
       d="m 134.08072,96.890427 c -0.33429,0.543431 -1.31345,0.686702 -2.83242,0.960062 -1.31575,0.237129 -3.30025,0.530249 -4.00802,1.256462 -0.75552,0.773973 0.0669,1.539719 1.60986,1.803189 2.54868,0.43475 8.33931,1.20872 11.24089,1.38657 4.92395,0.62082 9.81808,-2.755012 10.25612,-7.39391 0.65705,-6.955867 0.48579,-9.694409 0.7328,-13.984196 0.0609,-1.057216 -2.16548,-0.251955 -2.79288,1.055565 -1.34375,2.797831 -0.89749,3.856693 -1.70274,5.235022 -0.7855,1.343742 -1.99916,0.928764 -3.15749,-0.028 -4.26705,-6.239538 -6.05377,-10.287244 -8.3202,-9.990829 -1.82855,0.538486 0.53306,5.235015 3.43809,10.409104 -5.03165,-4.027946 -9.39899,-6.843893 -10.24558,-5.37664 -1.00156,1.735671 3.26797,5.294303 6.86974,8.875983 -4.8948,-0.480854 -9.83044,-2.374614 -10.08453,0.187733 -0.18576,1.874 9.93814,4.070765 8.99636,5.603885"
       style="fill:#ffc19f;fill-opacity:1;fill-rule:nonzero;stroke:none;stroke-width:0.0164675"
       id="path59016" />
    <path
       d="m 155.38455,180.99654 c 0.63236,0.68998 5.68129,3.57838 6.08804,3.8468 -0.12022,0.20584 -0.40675,1.24988 -0.64882,1.70273 6.5623,4.06912 17.05704,6.37787 26.73992,6.95423 14.37284,0.85632 21.18214,-0.86125 32.21372,-5.4211 -0.10374,-0.22725 -0.61094,-1.61711 -0.62905,-1.75378 0.26677,-0.0461 5.15267,-2.09632 5.82949,-2.44708 0,0 -9.56268,-19.81533 -11.06122,-22.46166 -12.02786,1.14943 -36.34541,0.14656 -45.71542,-2.77149 -2.35485,4.34084 -10.48157,18.46995 -12.81666,22.35135"
       style="fill:#963378;fill-opacity:1;fill-rule:nonzero;stroke:none;stroke-width:0.0164675"
       id="path59018" />
    <path
       d="m 161.47259,184.84334 -2.17207,-1.28776 0.002,-0.004 c 1.08357,0.64717 2.00575,1.18236 2.17042,1.29105 v 0"
       style="fill:#8a7f93;fill-opacity:1;fill-rule:nonzero;stroke:none;stroke-width:0.0164675"
       id="path59020" />
    <path
       d="m 161.47259,184.84334 v 0 0 c -0.16468,-0.10869 -1.08686,-0.64388 -2.17041,-1.29105 l 7.33462,-12.37368 -5.16421,13.66473"
       style="fill:#551950;fill-opacity:1;fill-rule:nonzero;stroke:none;stroke-width:0.0164675"
       id="path59022" />
    <path
       d="m 219.16317,186.38798 c -0.008,-0.028 -0.0131,-0.0494 -0.0147,-0.0626 0.0971,-0.0165 0.80855,-0.29972 1.70603,-0.67023 l -1.69121,0.7328"
       style="fill:#8a7f93;fill-opacity:1;fill-rule:nonzero;stroke:none;stroke-width:0.0164675"
       id="path59024" />
    <path
       d="m 219.1286,186.40281 -5.56602,-15.69023 7.46965,14.86521 -0.17785,0.0774 c -0.89747,0.37052 -1.60887,0.65376 -1.70602,0.67023 0.002,0.0132 0.006,0.0346 0.0148,0.0626 l -0.0346,0.0148"
       style="fill:#551950;fill-opacity:1;fill-rule:nonzero;stroke:none;stroke-width:0.0164675"
       id="path59026" />
    <path
       d="m 215.76758,165.01812 c -0.0264,-0.051 -0.0527,-0.10374 -0.0774,-0.15479 0.0725,-0.0181 0.14656,-0.0396 0.21902,-0.0576 0.0214,0.0527 0.0429,0.10704 0.0642,0.15974 -0.0692,0.0181 -0.13833,0.0346 -0.20584,0.0527"
       style="fill:#a6a6a6;fill-opacity:1;fill-rule:nonzero;stroke:none;stroke-width:0.0164675"
       id="path59028" />
    <path
       d="m 190.95765,167.98886 c -9.41942,0 -18.5177,-1.23506 -25.85891,-3.62286 0.5286,-0.94358 1.3668,-2.41084 2.02549,-3.61626 8.68167,3.77929 20.46582,6.09956 31.80368,6.09956 5.87067,0 11.62441,-0.62083 16.76227,-1.98597 0.0247,0.051 0.051,0.10374 0.0774,0.15479 -7.85665,1.99915 -16.45927,2.97074 -24.80994,2.97074"
       style="fill:#62214e;fill-opacity:1;fill-rule:nonzero;stroke:none;stroke-width:0.0164675"
       id="path59030" />
    <path
       d="m 216.63047,164.60314 c -15.67541,4.50879 -37.51789,1.83118 -50.88457,-4.47752 0,0 7.20948,-40.734 9.66807,-50.22587 9.00608,1.35528 29.91651,3.20787 39.35403,5.35523 0.70481,12.32099 0.16797,31.60278 1.86247,49.34816"
       style="fill:#d844b5;fill-opacity:1;fill-rule:nonzero;stroke:none;stroke-width:0.0164675"
       id="path59032" />
    <path
       d="m 183.33319,114.17307 c 0.006,-0.62083 0.634,-2.47507 0.81514,-3.05472 6.39763,1.1132 15.22092,1.61381 22.01046,2.53434 0.0379,0.27008 0.13833,0.52696 0.13503,0.80527 -0.051,4.8085 -5.2877,8.65038 -11.69686,8.5845 -6.40915,-0.0675 -11.31482,-4.06088 -11.26377,-8.86939"
       style="fill:#ffc19f;fill-opacity:1;fill-rule:nonzero;stroke:none;stroke-width:0.0164675"
       id="path59034" />
    <path
       d="m 187.63944,101.04188 -1.14449,13.51982 c -0.24536,2.90651 3.25069,5.5759 7.80889,5.96123 4.55656,0.38699 8.45112,-1.65827 8.69648,-4.56478 l 1.1445,-13.51982 -16.50538,-1.39645"
       style="fill:#ffc19f;fill-opacity:1;fill-rule:nonzero;stroke:none;stroke-width:0.0164675"
       id="path59036" />
    <path
       d="m 203.25228,112.9874 0.89254,-10.54907 -16.50538,-1.39645 -0.86948,10.28396 c -0.90901,-0.1054 -1.79825,-0.20914 -2.66279,-0.31124 -0.40675,-0.16138 -0.83161,-0.33265 -1.27294,-0.51214 -0.56319,-0.83491 -0.96665,-1.75708 -1.17743,-2.75666 -1.19718,-5.63847 4.14323,-11.547009 11.92741,-13.198698 1.37668,-0.291475 2.74019,-0.431449 4.0543,-0.431449 6.11603,0 11.22095,3.010267 12.20406,7.652447 0.89583,4.22226 -1.874,8.59603 -6.59029,11.2193"
       style="fill:#7b2411;fill-opacity:1;fill-rule:nonzero;stroke:none;stroke-width:0.0164675"
       id="path59038" />
    <path
       d="m 184.10717,111.0146 c -0.33429,-0.0396 -0.66365,-0.079 -0.9897,-0.11692 -0.0988,-0.13009 -0.19431,-0.26183 -0.28324,-0.39522 0.44133,0.17949 0.86619,0.35076 1.27294,0.51214"
       style="fill:#cc3995;fill-opacity:1;fill-rule:nonzero;stroke:none;stroke-width:0.0164675"
       id="path59040" />
    <path
       d="m 183.92437,111.81821 c -0.29312,-0.29147 -0.56153,-0.59941 -0.8069,-0.92053 0.32605,0.0379 0.65541,0.0774 0.9897,0.11692 0.86454,0.1021 1.75378,0.20584 2.66279,0.31124 l -0.0164,0.19761 c -0.90406,-0.1268 -1.77519,-0.26019 -2.60515,-0.4051 -0.0494,0.15643 -0.13009,0.40674 -0.22396,0.69986"
       style="fill:#cc3995;fill-opacity:1;fill-rule:nonzero;stroke:none;stroke-width:0.0164675"
       id="path59042" />
    <path
       d="m 186.56576,113.72845 c -1.00616,-0.52697 -1.89705,-1.1692 -2.64139,-1.91024 0.0939,-0.29312 0.17456,-0.54343 0.22396,-0.69986 0.82996,0.14491 1.7011,0.2783 2.60516,0.4051 l -0.18773,2.205"
       style="fill:#eb9f83;fill-opacity:1;fill-rule:nonzero;stroke:none;stroke-width:0.0164675"
       id="path59044" />
    <path
       d="m 193.86086,115.39661 c -2.72372,0 -5.24654,-0.59613 -7.2951,-1.66816 l 0.18773,-2.205 0.0164,-0.19761 0.86948,-10.28396 16.50537,1.39645 -0.89253,10.54907 c -1.58253,0.87937 -3.38243,1.56278 -5.33711,1.97776 -1.37834,0.29312 -2.7402,0.43145 -4.0543,0.43145"
       style="fill:#eb9f83;fill-opacity:1;fill-rule:nonzero;stroke:none;stroke-width:0.0164675"
       id="path59046" />
    <path
       d="m 220.79181,157.05608 c -0.45286,0.51543 -6.74673,-4.39188 -6.33669,-4.94189 6.11932,-8.22881 14.30367,-22.42051 15.68365,-24.99602 0,0 6.12755,4.72782 5.94147,10.27078 -0.14821,4.41165 -9.31896,12.86111 -15.28843,19.66713"
       style="fill:#ffc19f;fill-opacity:1;fill-rule:nonzero;stroke:none;stroke-width:0.0164675"
       id="path59048" />
    <path
       d="m 231.92384,127.85921 c -2.47341,3.23257 -7.06126,9.98095 -9.92166,12.69315 -2.90817,-1.35198 -8.60592,-4.08888 -9.12465,-4.37213 -4.56808,-6.6364 -6.60511,-22.14055 -6.71874,-22.52754 5.54296,0.91395 8.08719,1.17085 9.67959,1.78344 3.48618,2.5327 10.15222,7.76442 16.08546,12.42308"
       style="fill:#d844b5;fill-opacity:1;fill-rule:nonzero;stroke:none;stroke-width:0.0164675"
       id="path59050" />
    <path
       d="m 203.12712,148.4831 c 1.48538,0.43474 4.64713,-0.29971 6.19508,0.35076 0,0 0.0906,0.0626 0.13833,0.11857 -3.22269,0.16962 -5.9036,1.50348 -8.45441,2.15559 -0.81679,3.52076 3.86162,1.31246 8.73435,0.63564 -2.89004,0.84644 -4.72781,1.75873 -6.73026,2.24617 -1.53642,1.45573 -0.85796,2.53105 1.17413,2.25111 1.571,-0.21573 4.30955,-1.07862 7.1436,-1.53806 0.25031,0.0709 -5.83444,2.57222 -6.41738,3.92914 0.18608,0.70975 1.42608,1.18566 3.29021,0.42157 1.00781,-0.41169 2.05679,-1.08356 4.36882,-1.70768 1.98269,0.23713 3.68213,1.38821 4.47093,1.70439 2.97402,0.80032 4.51209,-3.25563 4.54173,-4.11523 0.0807,-2.23629 -3.83364,-6.57053 -6.27412,-7.43013 -4.09216,-1.44256 -6.10944,-2.27746 -12.74584,-0.80198 -1.17413,0.71305 -0.15808,1.56772 0.56483,1.78014"
       style="fill:#ffc19f;fill-opacity:1;fill-rule:nonzero;stroke:none;stroke-width:0.0164675"
       id="path59052" />
    <path
       d="m 201.57424,218.87507 2.70726,-0.0906 c -0.0247,-0.74927 -0.65211,-1.3454 -1.39974,-1.32069 -0.74598,0.0264 -1.33222,0.66528 -1.30752,1.41126 z m 2.70726,-0.0906 2.70561,-0.0939 c -0.0247,-0.74762 -0.65047,-1.34045 -1.3981,-1.31575 -0.74761,0.0247 -1.33221,0.66035 -1.30751,1.40962 z m 2.70561,-0.0939 2.70726,-0.0922 c -0.0247,-0.74762 -0.65048,-1.3388 -1.39809,-1.31411 -0.74763,0.0263 -1.33387,0.65871 -1.30917,1.40633 z m 5.41451,-0.18443 2.23628,-0.0757 c 0.006,-0.16303 0.0197,-0.52201 0.0363,-0.9617 -0.25196,-0.23383 -0.59284,-0.37546 -0.96335,-0.36229 -0.74763,0.0247 -1.33387,0.65212 -1.30917,1.39975 z m -2.70725,0.0922 2.70725,-0.0922 c -0.0247,-0.74763 -0.65046,-1.33551 -1.39809,-1.31082 -0.74763,0.0247 -1.33387,0.65541 -1.30916,1.40303 z m -9.96943,-0.83984 c 0.0709,0.48414 0.13175,0.90736 0.16962,1.18895 l 1.67968,-0.0724 c -0.0247,-0.74598 -0.65211,-1.3454 -1.39809,-1.3207 -0.17949,0.005 -0.29806,0.13668 -0.45121,0.2042"
       style="fill:#ed457d;fill-opacity:1;fill-rule:nonzero;stroke:none;stroke-width:0.0164675"
       id="path59054" />
    <path
       d="m 201.70763,233.11287 c 0.0609,0.39192 12.78207,-0.52367 12.82159,-1.00122 0.33595,-3.98678 0.0988,-12.1843 0.10868,-13.6812 l -14.74334,0.51707 c 0.55989,4.12511 1.4162,11.66064 1.81307,14.16535"
       style="fill:#fff8b3;fill-opacity:1;fill-rule:nonzero;stroke:none;stroke-width:0.0164675"
       id="path59056" />
    <path
       d="m 212.47737,224.78196 c -0.20584,-0.94029 -8.98301,0.64059 -10.58036,0.35899 -0.0428,2.17207 -1.29435,5.67141 -1.23342,8.62239 0.0412,2.05349 1.74885,3.55533 3.62614,3.89456 7.24899,1.31576 26.41057,5.27289 27.25042,-0.0494 0.68998,-4.36882 -10.74505,-7.68702 -19.06278,-12.82653"
       style="fill:#fff8b3;fill-opacity:1;fill-rule:nonzero;stroke:none;stroke-width:0.0164675"
       id="path59058" />
    <path
       d="m 200.69158,228.57278 c 0.13009,-0.16303 0.49239,-0.17785 0.7608,0.0856 1.76862,1.02921 4.58126,2.08642 6.89824,2.80441 0.79044,0.24372 1.57264,0.4298 2.34167,0.56813 0.75422,-2.2791 2.70397,-5.00612 4.49893,-6.12261 0.3738,-0.2355 0.85301,-0.10046 1.07203,0.29476 0.21902,0.39523 0.0922,0.90736 -0.2816,1.13956 -1.38326,0.86124 -2.97238,3.04154 -3.68377,4.87601 4.82497,0.59943 8.51369,0.54509 10.30041,-2.54916 5.59896,3.2721 11.44985,4.38035 11.29671,8.12177 -0.18938,4.59443 -33.32363,0.23713 -33.32363,0.23713 0.0642,-2.76489 0.0396,-6.97069 0.12021,-9.45564"
       style="fill:#f93d77;fill-opacity:1;fill-rule:nonzero;stroke:none;stroke-width:0.0164675"
       id="path59060" />
    <path
       d="m 200.51703,236.35696 c 0.008,0.61424 0.01,1.20543 -0.002,1.73239 0,0 28.65674,5.19549 33.10791,1.08849 0.15973,-0.14655 0.34087,-0.87936 0.26183,-1.11484 -8.01967,1.80649 -26.10592,-0.60107 -33.36809,-1.70604"
       style="fill:#b52652;fill-opacity:1;fill-rule:nonzero;stroke:none;stroke-width:0.0164675"
       id="path59062" />
    <path
       d="m 214.66261,220.57781 c -5.99253,0.47426 -8.54828,0.49402 -14.48976,0.49732 -0.028,-0.21079 -0.0543,-0.42157 -0.0807,-0.62412 5.99582,-0.004 8.53511,-0.0197 14.56056,-0.49567 0.004,0.20913 0.006,0.38698 0.01,0.62247"
       style="fill:#ed457d;fill-opacity:1;fill-rule:nonzero;stroke:none;stroke-width:0.0164675"
       id="path59064" />
    <path
       d="m 178.32708,218.87507 2.70561,-0.0906 c -0.0247,-0.74927 -0.65048,-1.3454 -1.39809,-1.32069 -0.74763,0.0264 -1.33387,0.66528 -1.30752,1.41126 z m 2.70561,-0.0906 2.70725,-0.0939 c -0.0247,-0.74762 -0.65046,-1.34045 -1.39809,-1.31575 -0.74763,0.0247 -1.33387,0.66035 -1.30916,1.40962 z m 2.70725,-0.0939 2.70726,-0.0922 c -0.0247,-0.74762 -0.65047,-1.3388 -1.39974,-1.31411 -0.74762,0.0263 -1.33221,0.65871 -1.30752,1.40633 z m 5.41287,-0.18443 2.23628,-0.0757 c 0.006,-0.16303 0.0214,-0.52201 0.0379,-0.9617 -0.2536,-0.23383 -0.59283,-0.37546 -0.96499,-0.36229 -0.74763,0.0247 -1.33223,0.65212 -1.30917,1.39975 z m -2.70561,0.0922 2.70561,-0.0922 c -0.023,-0.74763 -0.65047,-1.33551 -1.39809,-1.31082 -0.74763,0.0247 -1.33222,0.65541 -1.30752,1.40303 z m -9.97107,-0.83984 c 0.0724,0.48414 0.13338,0.90736 0.16961,1.18895 l 1.68134,-0.0724 c -0.0264,-0.74598 -0.65212,-1.3454 -1.39974,-1.3207 -0.17785,0.005 -0.29641,0.13668 -0.45121,0.2042"
       style="fill:#ed457d;fill-opacity:1;fill-rule:nonzero;stroke:none;stroke-width:0.0164675"
       id="path59066" />
    <path
       d="m 178.45882,233.11287 c 0.0626,0.39192 12.78207,-0.52367 12.82159,-1.00122 0.33594,-3.98678 0.0988,-12.1843 0.10868,-13.6812 l -14.74335,0.51707 c 0.5599,4.12511 1.41785,11.66064 1.81308,14.16535"
       style="fill:#fff8b3;fill-opacity:1;fill-rule:nonzero;stroke:none;stroke-width:0.0164675"
       id="path59068" />
    <path
       d="m 180.13356,224.78196 c 0.20749,-0.94029 8.98302,0.64059 10.58201,0.35899 0.0428,2.17207 1.29435,5.67141 1.23342,8.62239 -0.0429,2.05349 -1.75049,3.55533 -3.62779,3.89456 -7.24899,1.31576 -26.40892,5.27289 -27.25042,-0.0494 -0.68834,-4.36882 10.7467,-7.68702 19.06278,-12.82653"
       style="fill:#fff8b3;fill-opacity:1;fill-rule:nonzero;stroke:none;stroke-width:0.0164675"
       id="path59070" />
    <path
       d="m 191.921,228.57278 c -0.13175,-0.16303 -0.49239,-0.17785 -0.7608,0.0856 -1.77026,1.02921 -4.58127,2.08642 -6.89989,2.80441 -0.78879,0.24372 -1.57265,0.4298 -2.34168,0.56813 -0.75256,-2.2791 -2.70395,-5.00612 -4.49727,-6.12261 -0.37546,-0.2355 -0.85467,-0.10046 -1.07203,0.29476 -0.21902,0.39523 -0.0939,0.90736 0.2816,1.13956 1.38327,0.86124 2.97073,3.04154 3.68377,4.87601 -4.82497,0.59943 -8.51534,0.54509 -10.30206,-2.54916 -5.59896,3.2721 -11.44986,4.38035 -11.29506,8.12177 0.18937,4.59443 33.32363,0.23713 33.32363,0.23713 -0.0659,-2.76489 -0.0412,-6.97069 -0.12021,-9.45564"
       style="fill:#f93d77;fill-opacity:1;fill-rule:nonzero;stroke:none;stroke-width:0.0164675"
       id="path59072" />
    <path
       d="m 192.0939,236.35696 c -0.006,0.61424 -0.01,1.20543 0.004,1.73239 0,0 -28.65839,5.19549 -33.10956,1.08849 -0.15973,-0.14655 -0.34088,-0.87936 -0.26018,-1.11484 8.01801,1.80649 26.10592,-0.60107 33.36644,-1.70604"
       style="fill:#b52652;fill-opacity:1;fill-rule:nonzero;stroke:none;stroke-width:0.0164675"
       id="path59074" />
    <path
       d="m 191.4138,220.57781 c -5.99088,0.47426 -8.54663,0.49402 -14.48975,0.49732 -0.0263,-0.21079 -0.0543,-0.42157 -0.079,-0.62412 5.99582,-0.004 8.53511,-0.0197 14.56056,-0.49567 0.004,0.20913 0.005,0.38698 0.008,0.62247"
       style="fill:#ed457d;fill-opacity:1;fill-rule:nonzero;stroke:none;stroke-width:0.0164675"
       id="path59076" />
    <path
       d="m 166.46389,156.10426 c -0.44956,2.50306 -0.71799,4.02136 -0.71799,4.02136 13.36503,6.3087 35.20916,8.98631 50.88457,4.47916 -0.1268,-1.33716 -0.22066,-2.69408 -0.32441,-4.04441 -13.50169,3.95219 -35.46934,2.02056 -49.84217,-4.45611"
       style="fill:#f78ded;fill-opacity:1;fill-rule:nonzero;stroke:none;stroke-width:0.0164675"
       id="path59078" />
    <path
       d="m 190.79297,133.59648 c -3.36101,2.26758 -6.12756,2.81924 -7.14854,2.06009 -1.61217,-1.19884 -1.3915,-6.26918 0.43639,-7.58493 1.83118,-1.3174 5.71093,1.34868 7.03985,2.89334 0.89584,1.04075 0.75257,1.90364 -0.3277,2.6315"
       style="fill:#ffbbf2;fill-opacity:1;fill-rule:nonzero;stroke:none;stroke-width:0.0164675"
       id="path59080" />
    <path
       d="m 190.68264,131.97608 c -0.81514,-0.61917 -3.72165,-2.42896 -3.92586,-0.28983 -0.22065,2.29557 3.11072,0.85631 3.92586,0.28983"
       style="fill:#ed94d6;fill-opacity:1;fill-rule:nonzero;stroke:none;stroke-width:0.0164675"
       id="path59082" />
    <path
       d="m 193.1083,133.80068 c 2.91145,2.82253 5.53967,3.85009 6.67757,3.28362 1.7966,-0.89748 2.46848,-5.92994 0.90077,-7.54541 -1.57264,-1.61876 -5.85914,0.32605 -7.43836,1.61381 -1.06381,0.86784 -1.07534,1.74227 -0.13998,2.64798"
       style="fill:#ffbbf2;fill-opacity:1;fill-rule:nonzero;stroke:none;stroke-width:0.0164675"
       id="path59084" />
    <path
       d="m 193.50188,132.22474 c 0.91065,-0.46603 4.09052,-1.73732 3.91597,0.4051 -0.18609,2.29722 -3.21282,0.29642 -3.91597,-0.4051"
       style="fill:#ed94d6;fill-opacity:1;fill-rule:nonzero;stroke:none;stroke-width:0.0164675"
       id="path59086" />
    <path
       d="m 190.15404,131.88387 c -0.10869,1.22847 0.64387,2.29885 1.67968,2.38943 1.0358,0.0922 1.96457,-0.82997 2.07325,-2.05679 0.10869,-1.22847 -0.64388,-2.29886 -1.67968,-2.39109 -1.0358,-0.0906 -1.96458,0.82997 -2.07325,2.05845"
       style="fill:#ffbbf2;fill-opacity:1;fill-rule:nonzero;stroke:none;stroke-width:0.0164675"
       id="path59088" />
    <path
       d="m 158.75709,82.043333 c 0.75093,7.744667 7.23912,13.56592 12.79032,13.704249 5.55283,0.138329 7.56846,-5.799849 7.75125,-13.116365 0.18279,-7.318151 -4.17122,-13.383132 -9.72406,-13.501698 -7.59151,-0.163028 -11.52232,5.633532 -10.81751,12.913814"
       style="fill:#ffc19f;fill-opacity:1;fill-rule:nonzero;stroke:none;stroke-width:0.0164675"
       id="path59090" />
    <path
       d="m 165.26012,84.939964 c -0.079,3.207867 2.149,5.867369 4.97977,5.938187 2.82912,0.06915 5.18726,-2.475067 5.26795,-5.682942 0.079,-3.209512 -2.15066,-5.867368 -4.97978,-5.938176 -2.82911,-0.07081 -5.1889,2.47342 -5.26794,5.682931"
       style="fill:#e0956c;fill-opacity:1;fill-rule:nonzero;stroke:none;stroke-width:0.0164675"
       id="path59092" />
    <path
       d="m 239.52195,95.569733 c -3.19635,7.094197 -11.21108,10.524377 -16.51361,8.872687 -5.30419,-1.65334 -5.30583,-7.922509 -3.13047,-14.911318 2.17699,-6.988809 8.24691,-11.334576 13.54616,-9.664775 7.24075,2.282402 9.10323,9.034073 6.09792,15.703406"
       style="fill:#ffc19f;fill-opacity:1;fill-rule:nonzero;stroke:none;stroke-width:0.0164675"
       id="path59094" />
    <path
       d="m 232.3207,95.99624 c -0.95511,3.064604 -3.91926,4.86615 -6.62157,4.02631 -2.70232,-0.843137 -4.12017,-4.009839 -3.16506,-7.074444 0.95347,-3.064595 3.91926,-4.866142 6.62158,-4.024657 2.70232,0.841493 4.12017,4.008195 3.16505,7.072791"
       style="fill:#e0956c;fill-opacity:1;fill-rule:nonzero;stroke:none;stroke-width:0.0164675"
       id="path59096" />
    <path
       d="m 238.80396,69.500038 c -3.75952,21.898477 -19.82851,29.279215 -39.96332,25.822682 -20.13481,-3.456525 -34.49117,-16.050866 -30.73165,-37.949345 3.75954,-21.898481 21.95282,-25.226562 39.72949,-22.499545 18.26245,2.801122 34.72502,12.72773 30.96548,34.626208"
       style="fill:#752912;fill-opacity:1;fill-rule:nonzero;stroke:none;stroke-width:0.0164675"
       id="path59098" />
    <path
       d="M 232.29271,67.243993 C 230.83369,54.807737 219.83834,49.510143 205.77016,47.086127 l -0.15479,-0.03129 c -14.09783,-2.256048 -26.21626,-0.793733 -31.61924,10.501325 -4.52692,9.462224 -4.68995,31.489152 -1.79825,38.469721 2.44377,5.898657 13.45065,13.491817 22.58846,14.911327 0.0922,0.0132 0.19267,0.0165 0.28983,0.023 0.0922,0.0247 0.18937,0.0543 0.27995,0.0709 9.10652,1.61381 21.97752,-2.01398 26.19814,-6.80438 4.99294,-5.669756 11.96199,-26.56701 10.73845,-36.9827"
       style="fill:#ffc19f;fill-opacity:1;fill-rule:nonzero;stroke:none;stroke-width:0.0164675"
       id="path59100" />
    <path
       d="m 174.56755,86.8996 c -0.331,1.398089 1.34538,2.992142 3.74471,3.558622 2.39766,0.566489 4.6109,-0.108684 4.94024,-1.506773 0.33099,-1.399743 -1.34539,-2.993787 -3.74306,-3.558623 -2.39931,-0.566489 -4.6109,0.107031 -4.94189,1.506774"
       style="fill:#ff9797;fill-opacity:1;fill-rule:nonzero;stroke:none;stroke-width:0.0164675"
       id="path59102" />
    <path
       d="m 214.88492,94.339618 c -0.13174,1.431022 1.75049,2.774764 4.20416,3.000373 2.45365,0.227253 4.54996,-0.750916 4.6817,-2.181947 0.13175,-1.431022 -1.75049,-2.774764 -4.20415,-3.000373 -2.45366,-0.227253 -4.54997,0.749271 -4.68171,2.181947"
       style="fill:#ff9797;fill-opacity:1;fill-rule:nonzero;stroke:none;stroke-width:0.0164675"
       id="path59104" />
    <path
       d="m 209.02743,95.689947 c -0.0626,-2.506347 -3.90114,-2.498116 -9.99412,-3.552036 -0.31782,-0.056 -1.55948,-0.261831 -1.87894,-0.31288 -6.10616,-0.973236 -9.73394,-2.221467 -10.60507,0.130089 -1.67475,4.530204 3.3643,10.61988 9.55443,11.66887 l 0.10869,0.0181 c 6.19672,1.00946 12.93357,-3.12387 12.81501,-7.95215"
       style="fill:#701608;fill-opacity:1;fill-rule:nonzero;stroke:none;stroke-width:0.0164675"
       id="path59106" />
    <path
       d="m 196.19431,103.73926 -0.10704,-0.0181 c -2.00738,-0.34087 -3.99666,-1.25647 -5.75704,-2.64467 l -0.10868,-0.0823 0.11527,-0.0724 c 1.84931,-1.175782 4.14981,-1.61052 6.47667,-1.223533 2.32356,0.385333 4.35895,1.541353 5.73233,3.252333 l 0.084,0.10538 -0.12844,0.0428 c -2.11937,0.74268 -4.29966,0.96664 -6.30705,0.64058"
       style="fill:#dd6b5b;fill-opacity:1;fill-rule:nonzero;stroke:none;stroke-width:0.0164675"
       id="path59108" />
    <path
       d="m 197.57593,95.102062 c -4.26179,-0.708107 -7.58987,-2.618338 -7.74301,-4.444587 l -0.006,-0.111973 16.55808,2.751716 -0.0428,0.102097 c -0.73939,1.679689 -4.50715,2.410845 -8.76565,1.702747"
       style="fill:#ffffff;fill-opacity:1;fill-rule:nonzero;stroke:none;stroke-width:0.0164675"
       id="path59110" />
    <path
       d="m 201.07527,89.269271 c -0.16138,-0.028 -0.28488,-0.167973 -0.28488,-0.337582 0.002,-1.20048 -0.79867,-2.109485 -2.03538,-2.315334 -1.2433,-0.205849 -2.31698,0.4084 -2.67103,1.528187 -0.0576,0.177849 -0.25031,0.278302 -0.42816,0.220667 -0.17949,-0.056 -0.2783,-0.247014 -0.22231,-0.42816 0.4545,-1.432667 1.86577,-2.252756 3.43348,-1.992569 1.55946,0.258542 2.6068,1.459022 2.6068,2.987209 0,0.189377 -0.15315,0.340871 -0.34088,0.342524 l -0.0576,-0.0053"
       style="fill:#c4735b;fill-opacity:1;fill-rule:nonzero;stroke:none;stroke-width:0.0164675"
       id="path59112" />
    <path
       d="m 225.03713,69.625191 c -0.22066,-0.06752 -0.41662,-0.210782 -0.54507,-0.421568 -1.6451,-2.685846 -5.74716,-4.531853 -9.55444,-4.288135 -0.52696,0.03622 -0.9897,-0.367227 -1.02593,-0.902417 -0.033,-0.531904 0.37052,-0.991347 0.90406,-1.025928 4.5401,-0.28818 9.30414,1.901995 11.3247,5.210317 0.27666,0.454505 0.13339,1.048978 -0.32112,1.327281 -0.24371,0.149855 -0.5286,0.176201 -0.7822,0.10045"
       style="fill:#330a02;fill-opacity:1;fill-rule:nonzero;stroke:none;stroke-width:0.0164675"
       id="path59114" />
    <path
       d="m 179.57861,62.611686 c -0.26349,-0.01974 -0.52038,-0.146564 -0.69328,-0.373815 -0.32607,-0.421567 -0.24702,-1.029217 0.17455,-1.353626 3.07119,-2.366381 8.30291,-2.707258 12.43954,-0.815141 0.4858,0.223958 0.69823,0.797024 0.47591,1.281171 -0.22395,0.487436 -0.79866,0.699866 -1.28116,0.475911 -3.46476,-1.590763 -7.96039,-1.338811 -10.45522,0.586244 -0.19432,0.151498 -0.4298,0.21572 -0.66034,0.199256"
       style="fill:#330a02;fill-opacity:1;fill-rule:nonzero;stroke:none;stroke-width:0.0164675"
       id="path59116" />
    <path
       d="m 208.87593,78.792647 c -2.91475,3.011904 -3.25397,6.819193 -1.44255,8.592739 2.72701,2.675974 9.92989,4.528569 13.17729,1.88224 3.14364,-2.563991 2.78794,-8.268329 -1.11979,-11.360929 -3.42195,-2.70561 -7.79242,-2.030442 -10.61495,0.88595"
       style="fill:#f9feff;fill-opacity:1;fill-rule:nonzero;stroke:none;stroke-width:0.0164675"
       id="path59118" />
    <path
       d="m 222.64441,80.147921 c -2.46519,-5.855838 -10.82739,-5.43098 -13.86564,-1.253172 2.91311,-3.011908 7.41202,-3.316557 10.57543,-0.815141 1.95469,1.546296 3.13211,3.909378 3.15024,6.318578 0.0147,1.92176 -0.7674,3.94232 -2.07162,5.00776 1.3981,-0.602702 4.02466,-4.953413 2.21159,-9.258025"
       style="fill:#7c3929;fill-opacity:1;fill-rule:nonzero;stroke:none;stroke-width:0.0164675"
       id="path59120" />
    <path
       d="m 209.35843,81.20184 c -1.35693,2.200062 -0.67352,5.081875 1.52654,6.438791 2.19841,1.35528 5.08187,0.673529 6.43714,-1.526533 1.35692,-2.200063 0.67352,-5.081867 -1.52654,-6.438793 -2.1984,-1.356922 -5.08186,-0.671872 -6.43714,1.526535"
       style="fill:#461d14;fill-opacity:1;fill-rule:nonzero;stroke:none;stroke-width:0.0164675"
       id="path59122" />
    <path
       d="m 209.80305,80.859315 c -0.37711,0.610951 -0.18772,1.409618 0.42321,1.786729 0.60931,0.375458 1.40963,0.18608 1.78508,-0.423218 0.37711,-0.610942 0.18773,-1.411262 -0.42321,-1.78672 -0.6093,-0.377109 -1.40962,-0.18773 -1.78508,0.423209"
       style="fill:#fefffe;fill-opacity:1;fill-rule:nonzero;stroke:none;stroke-width:0.0164675"
       id="path59124" />
    <path
       d="m 192.77895,75.961884 c 1.71427,3.8254 0.7361,7.519058 -1.57099,8.571333 -3.4763,1.585823 -10.88008,0.874427 -13.03074,-2.718782 -2.08314,-3.481232 0.19596,-8.724481 4.92379,-10.300423 4.13827,-1.379972 8.01802,0.74598 9.67794,4.447872"
       style="fill:#f9feff;fill-opacity:1;fill-rule:nonzero;stroke:none;stroke-width:0.0164675"
       id="path59126" />
    <path
       d="m 179.37111,72.546526 c 4.31285,-4.66524 12.03116,-1.417854 13.46383,3.545454 -1.71262,-3.823753 -5.83937,-5.643414 -9.66478,-4.370477 -2.36473,0.788794 -4.2766,2.610098 -5.1148,4.869439 -0.66858,1.801545 -0.62247,3.967022 0.24372,5.414515 -1.11156,-1.044035 -2.09796,-6.028753 1.07203,-9.458931"
       style="fill:#7c3929;fill-opacity:1;fill-rule:nonzero;stroke:none;stroke-width:0.0164675"
       id="path59128" />
    <path
       d="m 182.94126,76.559657 c -1.35527,2.200057 -0.67352,5.081872 1.52655,6.438787 2.20005,1.356925 5.08186,0.67352 6.43879,-1.526533 1.35692,-2.200057 0.67187,-5.081869 -1.52655,-6.438791 -2.20005,-1.355274 -5.08186,-0.67352 -6.43879,1.526537"
       style="fill:#461d14;fill-opacity:1;fill-rule:nonzero;stroke:none;stroke-width:0.0164675"
       id="path59130" />
    <path
       d="m 183.38589,76.217132 c -0.37545,0.610941 -0.18608,1.409619 0.42321,1.786725 0.61095,0.375456 1.40962,0.186082 1.78673,-0.423217 0.37546,-0.610945 0.18608,-1.411265 -0.42322,-1.786723 -0.61095,-0.375458 -1.41127,-0.186084 -1.78672,0.423215"
       style="fill:#fefffe;fill-opacity:1;fill-rule:nonzero;stroke:none;stroke-width:0.0164675"
       id="path59132" />
    <path
       d="m 240.15429,81.028933 c 2.37956,0.502258 1.42938,3.153529 -0.87607,2.152302 -2.10948,-0.915591 -1.86082,-7.018447 -1.79989,-7.171594 0.96005,3.151881 3.6492,2.92957 4.41988,2.697376 1.0852,-0.327704 1.57593,-1.371743 1.43761,-2.382849 -0.0988,-0.731155 -0.67187,-1.407971 -1.41127,-1.439256 -1.13297,-0.04776 -1.40797,1.142841 -1.15602,1.452434 0.37382,-0.879368 1.56441,-0.59283 1.63193,0.1268 0.15809,1.679683 -1.78014,1.552883 -2.42072,1.149427 -0.77397,-0.487437 -1.72579,-1.869057 -1.40961,-6.990449 2.41743,-10.501324 -1.70604,-22.102678 -16.20896,-24.941674 -2.50472,-0.490732 -7.02833,0.717982 -9.95131,0.578009 13.07683,4.83321 18.06484,9.760286 19.67371,17.541178 1.89212,9.155931 -10.89489,25.562501 2.03868,29.131007 -1.83118,-0.266773 -2.39108,-3.339609 -2.12596,-4.629013 5.39312,3.528987 9.41448,1.814711 10.8488,-0.563191 1.66486,-2.763245 0.20749,-7.924162 -2.6908,-6.710507"
       style="fill:#752912;fill-opacity:1;fill-rule:nonzero;stroke:none;stroke-width:0.0164675"
       id="path59134" />
    <path
       d="m 166.6368,51.242524 c -1.74885,2.509646 -3.72001,3.173287 -5.62695,2.699023 -1.41621,-0.352405 -2.5047,-2.674322 0.22396,-4.113582 -3.16011,0.69987 -2.95262,3.558627 -1.53971,4.712999 1.27623,1.044039 4.1037,1.384916 6.3334,-0.655406 -0.21408,1.157664 -0.39193,2.366378 -0.49402,3.67884 -0.51873,6.623226 -2.27746,8.52522 -3.90609,8.535102 -1.85754,0.01316 -2.00246,-2.998729 0.40345,-2.651266 -2.30216,-2.137483 -6.59194,0.480851 -5.91512,5.063757 0.45944,3.107414 5.25148,6.470081 9.76357,2.886751 3.19305,3.902794 -0.23548,6.600171 -3.67884,5.149386 2.91475,3.802343 8.68496,3.856689 11.19625,-2.838998 2.233,-5.952997 -0.66199,-9.206975 1.30752,-17.3271 1.91682,-7.9044 17.9397,-17.992388 26.12898,-18.830585 -18.35961,-3.70848 -30.68717,-0.120212 -34.1964,13.691079"
       style="fill:#752912;fill-opacity:1;fill-rule:nonzero;stroke:none;stroke-width:0.0164675"
       id="path59136" />
    <path
       d="m 230.20134,38.389642 c -0.51708,1.370096 -1.72249,2.713843 -3.24739,2.111133 2.44213,-4.398469 0.3837,-7.090905 -1.91846,-8.288092 -2.88346,-1.500189 -7.08926,0.08728 -6.00406,2.834056 0.66859,-2.417428 4.04278,-0.948528 2.75337,1.269645 -0.90242,1.552884 -5.65823,0.120212 -10.81091,-1.197188 -6.59194,-1.686272 -27.22572,-5.791618 -33.30552,5.267953 1.61712,0.416628 5.12304,4.075706 6.18026,5.258072 0.97817,1.091795 8.11024,12.707967 22.65927,15.044706 -2.90486,-1.416205 -11.85001,-4.857912 -18.23116,-13.134476 1.89046,1.59076 4.5088,4.062531 7.83523,5.432627 27.09562,11.158379 35.67354,-8.923737 34.08937,-14.598436"
       style="fill:#752912;fill-opacity:1;fill-rule:nonzero;stroke:none;stroke-width:0.0164675"
       id="path59138" />
    <path
       d="m 234.63109,66.247708 c -2.22311,-0.121857 -4.06088,0.416628 -4.10369,1.203776 -0.0444,0.785499 1.72415,1.523242 3.94726,1.645103 2.22311,0.121857 4.06088,-0.416628 4.1037,-1.203776 0.0428,-0.7855 -1.72415,-1.523242 -3.94727,-1.645103 z m -0.27664,-1.515012 c 2.22311,0.121862 4.06088,-0.418272 4.10369,-1.203771 0.0444,-0.787148 -1.72414,-1.523246 -3.94725,-1.645103 -2.22312,-0.123505 -4.06089,0.41498 -4.10371,1.202128 -0.0444,0.787143 1.72415,1.523241 3.94727,1.646746"
       style="fill:#ed3b66;fill-opacity:1;fill-rule:nonzero;stroke:none;stroke-width:0.0164675"
       id="path59140" />
    <path
       d="m 101.59512,216.87756 c -2.447894,-2.6068 -4.902703,-2.31697 -7.950836,-1.80648 -1.412747,0.23548 -3.615769,0.5566 -5.400516,1.15766 -1.6316,0.12351 -3.151058,0.1515 -5.927315,0.19761 -2.702969,0.0428 -6.371441,0.0609 -10.207049,0.0692 v 15.96195 c 4.54536,0.0988 9.489395,0.66694 15.158986,-0.0626 6.464649,-0.8316 10.297129,-1.29269 14.26844,-4.29472 3.32133,-2.50964 2.93253,-8.16294 0.0583,-11.2226"
       style="fill:#963378;fill-opacity:1;fill-rule:nonzero;stroke:none;stroke-width:0.0164675"
       id="path59142" />
    <path
       d="m 43.659492,216.00973 c 2.386969,-1.89376 4.617325,-1.68958 7.898142,-0.72457 1.182205,0.34746 3.614614,1.13954 3.737636,0.2783 1.63176,0.1235 3.877102,0.81678 6.652862,0.86289 2.703307,0.0428 6.37144,0.0609 10.207049,0.0692 v 15.96195 c -4.545351,0.0988 -9.969751,0.48415 -15.549431,1.72744 -0.259031,0.0576 -13.240862,-7.50259 -13.466294,-7.64257 -2.804417,-1.73896 -3.33928,-7.47295 0.520036,-10.5326"
       style="fill:#963378;fill-opacity:1;fill-rule:nonzero;stroke:none;stroke-width:0.0164675"
       id="path59144" />
    <path
       d="m 89.808008,222.37441 c 0.198605,-3.44664 3.62944,-8.22881 8.678374,-6.77967 3.452088,0.99135 4.835188,4.28485 5.206038,7.46143 0.40131,3.43512 -0.55841,7.73972 0.70728,10.21644 -1.29254,0.20748 -6.965096,2.76489 -8.342598,2.6315 -0.949023,-4.70476 -6.702605,-5.63847 -6.249094,-13.5297"
       style="fill:#ffc19f;fill-opacity:1;fill-rule:nonzero;stroke:none;stroke-width:0.0164675"
       id="path59146" />
    <path
       d="m 97.515128,233.09146 c 1.566231,-2.45695 4.637582,-3.66073 6.264082,-6.76814 -0.0145,0.57636 -0.0356,1.15437 -0.0499,1.72415 -0.30828,0.36393 -0.63153,0.76903 -0.97587,1.212 -1.24526,1.60394 -3.049776,2.34828 -4.915705,3.60474 -0.111155,0.0741 -0.218853,0.14986 -0.322604,0.22725"
       style="fill:#db977c;fill-opacity:1;fill-rule:nonzero;stroke:none;stroke-width:0.0164675"
       id="path59148" />
    <path
       d="m 95.954177,237.99219 c 0.871956,2.40096 3.635698,2.8884 5.600763,2.04691 1.04305,-0.44627 1.38639,-1.10332 2.54076,-1.41127 4.75269,-1.27128 6.61731,-2.49152 6.588,-4.40011 0.77627,-2.43389 0.63498,-4.99624 -0.66348,-6.01229 -0.30531,-0.24042 -0.86685,-0.27664 -1.38903,0.13504 0.26233,-0.57472 0.23663,-2.34662 -0.83078,-2.58375 -1.72828,-0.38369 -3.03135,0.89748 -5.04697,3.49275 -1.24526,1.60394 -3.049778,2.34828 -4.915707,3.60474 -1.887511,1.26964 -2.725867,2.80936 -1.883556,5.12798"
       style="fill:#ffc19f;fill-opacity:1;fill-rule:nonzero;stroke:none;stroke-width:0.0164675"
       id="path59150" />
    <path
       d="m 110.07243,234.52907 c -0.33891,-1.15602 -0.56567,-1.86577 -1.3268,-2.78136 -0.73757,-0.88759 -1.20558,-1.22847 -1.82213,-1.543 0.60486,0.11692 1.17283,0.16303 2.00657,1.11649 0.82716,0.94524 1.0554,2.1309 1.14236,3.20787"
       style="fill:#e7a182;fill-opacity:1;fill-rule:nonzero;stroke:none;stroke-width:0.0164675"
       id="path59152" />
    <path
       d="m 106.7058,229.94782 c 0.27287,-0.1301 1.42296,-0.93701 1.888,-1.63193 0,0 0.0921,0.60765 -0.5505,1.10991 -0.45187,0.3524 -1.0032,0.51213 -1.3375,0.52202"
       style="fill:#e7a182;fill-opacity:1;fill-rule:nonzero;stroke:none;stroke-width:0.0164675"
       id="path59154" />
    <path
       d="m 42.414888,225.64486 c -1.497885,-3.11071 -0.816294,-8.95832 4.302293,-10.13739 3.500169,-0.80691 7.006925,1.8954 8.468249,3.89292 4.767502,6.51947 7.655742,10.46015 12.035929,12.05584 -1.030044,0.80856 -6.205938,5.97277 -7.475422,6.52279 -3.111209,-3.65415 -13.901369,-5.21362 -17.331049,-12.33416"
       style="fill:#ffc19f;fill-opacity:1;fill-rule:nonzero;stroke:none;stroke-width:0.0164675"
       id="path59156" />
    <path
       d="m 66.153937,231.00668 c -0.0018,0 -0.0027,0 -0.0044,0 -1.685449,-0.80856 -3.172133,-2.00574 -4.684506,-3.60803 0.0071,0.005 0.01431,0.008 0.02142,0.0132 1.505795,1.59075 2.987707,2.78959 4.667227,3.59485"
       style="fill:#89285e;fill-opacity:1;fill-rule:nonzero;stroke:none;stroke-width:0.0164675"
       id="path59158" />
    <path
       d="m 54.718906,234.77938 c -0.380898,-0.18115 -0.770676,-0.36393 -1.166889,-0.54836 0.03093,-2.08314 1.141529,-4.66525 2.122,-4.66525 0.04018,0 0.08036,0.005 0.120044,0.0132 0.08187,-2.38285 1.200978,-3.17494 2.559218,-3.17494 1.014729,0 2.163004,0.44297 3.112027,0.99464 1.512382,1.60229 2.999066,2.79947 4.684515,3.60803 -0.427991,-0.12021 -0.867511,-0.24043 -1.316249,-0.38534 0.0044,-0.008 0.0092,-0.0148 0.01369,-0.023 -0.683564,-0.25196 -1.381298,-0.52532 -2.077049,-0.8629 v 0 c -1.212177,-1.83778 -2.923306,-2.54917 -4.214693,-2.54917 -0.607325,0 -1.121929,0.15808 -1.448151,0.42816 -0.829138,0.68833 -0.559894,2.18359 -0.170765,2.66773 -0.207982,-0.0922 -0.407413,-0.13174 -0.58888,-0.13174 -0.340551,0 -0.618195,0.13997 -0.770844,0.33759 -0.551005,0.71139 -0.957911,2.50306 -0.857956,4.29142"
       style="fill:#db977c;fill-opacity:1;fill-rule:nonzero;stroke:none;stroke-width:0.0164675"
       id="path59160" />
    <path
       d="m 41.048079,183.9475 c 3.260071,2.49153 7.144924,5.62695 9.039502,5.347 1.959965,-0.28982 3.632729,-4.82004 5.082036,-8.86116 -7.499787,-3.40712 -13.770445,-7.69197 -18.477849,-11.64911 -0.572409,1.04898 -4.706907,4.2585 -5.281787,5.29431 1.18056,1.73567 5.972275,7.06784 9.638098,9.86896"
       style="fill:#ffc19f;fill-opacity:1;fill-rule:nonzero;stroke:none;stroke-width:0.0164675"
       id="path59162" />
    <path
       d="m 65.809101,183.50947 c -4.220942,-1.35033 -11.105013,-3.88797 -15.520444,-6.25271 -1.982854,3.42359 -5.03016,9.97107 -5.698089,12.16454 5.354409,3.25727 10.893084,6.14567 13.60792,7.2704 0.970924,0.40346 9.843778,-12.46754 7.610613,-13.18223"
       style="fill:#000080;fill-opacity:1;fill-rule:nonzero;stroke:none;stroke-width:0.0164675"
       id="path59164" />
    <path
       d="m 27.151981,171.62323 c -0.232187,0.4051 -1.069894,0.27666 -2.19792,0.35405 -0.977671,0.0692 -2.204827,0.10869 -2.882961,0.49238 -0.690151,0.38864 -0.15216,1.34869 0.950996,1.66487 1.821636,0.52036 5.977538,1.54465 8.076489,1.90529 3.537547,0.84313 7.593165,-1.19061 8.281174,-4.53516 1.032346,-5.01435 0.79736,-6.51124 1.731724,-9.67795 0.219342,-0.74433 -1.438107,-1.11484 -2.424018,0.0626 -1.182204,1.41126 -1.183022,2.49154 -1.879102,3.43018 -0.67912,0.91724 -1.200649,0.64059 -1.806658,-0.27665 -1.235715,-1.874 -3.516302,-7.86158 -5.380915,-7.31486 -1.435307,0.42156 0.619342,5.22513 1.493111,7.59645 -3.343894,-3.33467 -5.952178,-5.85748 -7.00528,-4.84638 -1.059192,1.01769 1.836951,4.3573 4.297031,7.0135 -3.526676,-0.74103 -6.971352,-2.51293 -7.360472,-0.66693 -0.28456,1.35034 6.561965,3.99995 6.106801,4.79863"
       style="fill:#ffc19f;fill-opacity:1;fill-rule:nonzero;stroke:none;stroke-width:0.0164675"
       id="path59166" />
    <path
       d="m 54.549457,215.95209 c -0.01716,0 -0.0344,-0.002 -0.052,-0.002 -0.01236,-0.0131 -0.02471,-0.0247 -0.03689,-0.0379 0.02222,0 0.04444,0 0.0664,0 0.252604,0 0.472453,-0.0263 0.612258,-0.11527 0.0053,0.004 0.01058,0.006 0.01618,0.01 -0.131244,0.1021 -0.34384,0.14492 -0.60584,0.14492"
       style="fill:#c7c7c7;fill-opacity:1;fill-rule:nonzero;stroke:none;stroke-width:0.0164675"
       id="path59168" />
    <path
       d="m 72.155181,220.37526 v -0.65871 c 5.159432,-0.1696 10.759867,-1.85588 14.809058,-3.12387 -2.323235,1.84106 -8.039271,3.38077 -14.809058,3.78258"
       style="fill:#75285e;fill-opacity:1;fill-rule:nonzero;stroke:none;stroke-width:0.0164675"
       id="path59170" />
    <path
       d="m 68.706728,220.47735 c -7.26184,0 -11.990151,-2.21488 -14.209316,-4.52691 0.0176,0 0.03493,0.002 0.052,0.002 0.261991,0 0.474587,-0.0428 0.60584,-0.14491 3.385716,1.92834 5.604711,2.68419 13.438294,3.748 0.884969,0.12021 1.799902,0.17455 2.733609,0.17455 0.274515,0 0.550506,-0.005 0.827982,-0.0131 v 0.6587 c -1.123902,0.0659 -2.27712,0.1021 -3.448453,0.1021"
       style="fill:#75285e;fill-opacity:1;fill-rule:nonzero;stroke:none;stroke-width:0.0164675"
       id="path59172" />
    <path
       d="m 59.670186,181.60088 c 6.680204,1.47879 19.23272,3.20129 26.255778,6.08639 0.08,18.5177 3.97328,21.83262 4.097609,27.96182 -4.562649,1.32398 -14.054516,4.90896 -21.429983,3.90609 -8.282987,-1.12473 -10.28856,-1.90529 -14.03376,-4.09217 0.0888,-3.45818 0.554293,-19.82358 5.110356,-33.86213"
       style="fill:#000080;fill-opacity:1;fill-rule:nonzero;stroke:none;stroke-width:0.0164675"
       id="path59174" />
    <path
       d="m 54.635741,213.27612 c -0.07209,1.51995 -0.175209,2.63644 -0.175209,2.63644 9.445263,4.74594 20.670658,5.23008 32.180943,0.93042 -0.128942,-0.83984 -0.236142,-1.69286 -0.350258,-2.54258 -11.063858,3.61296 -23.350587,3.28691 -31.655476,-1.02428"
       style="fill:#f78ded;fill-opacity:1;fill-rule:nonzero;stroke:none;stroke-width:0.0164675"
       id="path59176" />
    <path
       d="m 81.859813,210.39925 c -1.038774,0 -2.10224,-0.12351 -2.565965,-0.20584 -0.0232,-0.7641 -0.162533,-3.10578 -0.06969,-4.65866 0.02071,-0.34911 0.09452,-0.47591 0.224454,-0.47591 0.344168,0 1.082897,0.8876 2.280088,0.8876 1.648889,0 2.687494,2.27746 2.687494,3.55203 0,0.70811 -1.258774,0.90078 -2.556409,0.90078"
       style="fill:#bc3993;fill-opacity:1;fill-rule:nonzero;stroke:none;stroke-width:0.0164675"
       id="path59178" />
    <path
       d="m 90.283919,214.99368 c 0.8988,-4.00325 2.119209,-8.84305 1.072365,-10.44698 -1.083227,-1.65992 -5.897005,-1.28282 -10.174934,-0.90736 0.04524,8.23704 -1.222551,15.72646 -2.845582,21.65641 1.190596,0.0823 5.836578,2.49318 7.018614,2.5821 1.081422,-1.79825 3.918764,-8.38195 4.929537,-12.88417"
       style="fill:#ffc19f;fill-opacity:1;fill-rule:nonzero;stroke:none;stroke-width:0.0164675"
       id="path59180" />
    <path
       d="m 76.073955,194.01738 c 0.958906,3.6986 2.949662,11.18143 3.663191,15.27031 3.963564,0.41828 10.513022,0.30301 12.690356,-0.41662 0.41712,-6.88507 0.173724,-12.48237 -0.764756,-15.50745 -0.925636,-2.32356 -3.659733,-4.92542 -5.736613,-5.67635 -4.355165,0.0494 -10.199645,4.98966 -9.852178,6.33011"
       style="fill:#000080;fill-opacity:1;fill-rule:nonzero;stroke:none;stroke-width:0.0164675"
       id="path59182" />
    <path
       d="m 61.836977,184.3065 c 0.05982,-0.51873 0.705306,-1.59735 0.893858,-1.96622 5.672062,0.74104 12.9036,2.28733 18.436853,3.69859 0.04311,0.10046 0.09485,0.37711 0.08,0.50556 -0.472284,4.01971 -5.184133,6.77967 -10.544471,6.16049 -5.35984,-0.61753 -9.329662,-4.37706 -8.866267,-8.39842"
       style="fill:#ffc19f;fill-opacity:1;fill-rule:nonzero;stroke:none;stroke-width:0.0164675"
       id="path59184" />
    <path
       d="m 65.553697,174.29261 -0.995787,11.32141 c -0.234338,2.44378 2.638089,4.72123 6.470898,5.08845 3.83248,0.36723 7.173902,-1.3141 7.408071,-3.75788 l 1.005005,-11.43173 -13.888187,-1.22025"
       style="fill:#ffc19f;fill-opacity:1;fill-rule:nonzero;stroke:none;stroke-width:0.0164675"
       id="path59186" />
    <path
       d="m 78.62263,184.83181 0.628071,-7.1436 c 0.266774,0.005 0.414978,0.006 0.414978,0.006 l -1.043049,7.13701"
       style="fill:#e7d3d0;fill-opacity:1;fill-rule:nonzero;stroke:none;stroke-width:0.0164675"
       id="path59188" />
    <path
       d="m 64.546212,185.79187 c -0.04693,-0.0247 -0.09354,-0.0494 -0.140142,-0.0757 l 0.358498,-2.45201 -0.206658,2.34991 c -0.0053,0.0593 -0.0096,0.11856 -0.01164,0.17785"
       style="fill:#e7a182;fill-opacity:1;fill-rule:nonzero;stroke:none;stroke-width:0.0164675"
       id="path59190" />
    <path
       d="m 70.84783,187.30029 c -2.343982,0 -4.521315,-0.56648 -6.301618,-1.50842 0.0027,-0.0593 0.0062,-0.11857 0.01165,-0.17785 l 0.206666,-2.34991 0.784516,-5.36677 c 1.399893,-0.20255 4.93712,-0.25194 8.120445,-0.25194 2.446417,0 4.684017,0.0296 5.581164,0.0428 l -0.628071,7.1436 -0.0232,0.15809 c -1.829378,1.24001 -4.131031,2.09302 -6.728285,2.27416 -0.344337,0.023 -0.685217,0.0363 -1.023288,0.0363"
       style="fill:#e7a182;fill-opacity:1;fill-rule:nonzero;stroke:none;stroke-width:0.0164675"
       id="path59192" />
    <path
       d="m 111.12996,169.42812 c -3.04269,6.74508 -10.09473,8.43629 -13.269667,6.57382 -2.756329,-1.61711 -1.104809,-7.01516 0.632346,-10.61331 1.686281,-3.4944 3.914661,-6.87353 7.822731,-6.85377 4.58998,0.0263 7.19481,5.61542 4.81459,10.89326"
       style="fill:#ffc19f;fill-opacity:1;fill-rule:nonzero;stroke:none;stroke-width:0.0164675"
       id="path59194" />
    <path
       d="m 106.29231,169.13006 c -1.22733,3.12387 -4.88771,4.5796 -6.782302,3.6459 -0.979982,-0.4825 -0.323422,-2.15725 0.510332,-4.52527 0.93682,-2.66115 2.0413,-4.6883 4.01246,-4.66359 2.13386,0.0296 3.28954,2.91803 2.25951,5.54296"
       style="fill:#e0956c;fill-opacity:1;fill-rule:nonzero;stroke:none;stroke-width:0.0164675"
       id="path59196" />
    <path
       d="m 39.920879,155.15079 c 0.206835,7.39885 6.062186,11.67711 9.709564,11.18308 3.166374,-0.42981 3.723467,-6.04686 3.507911,-10.03859 -0.209297,-3.87315 -0.962195,-7.8517 -4.576817,-9.33872 -4.244658,-1.74555 -8.802863,2.40756 -8.640658,8.19423"
       style="fill:#ffc19f;fill-opacity:1;fill-rule:nonzero;stroke:none;stroke-width:0.0164675"
       id="path59198" />
    <path
       d="m 44.49967,156.74156 c -0.07244,3.35607 2.744471,6.11108 4.851982,5.97934 1.090809,-0.0692 1.13016,-1.86741 1.27376,-4.37377 0.161547,-2.81594 -0.07591,-5.11315 -1.90512,-5.84925 -1.979395,-0.79538 -4.160187,1.42443 -4.220622,4.24368"
       style="fill:#e0956c;fill-opacity:1;fill-rule:nonzero;stroke:none;stroke-width:0.0164675"
       id="path59200" />
    <path
       d="M 108.2195,140.36462 C 107.30951,130.33098 94.942746,122.089 84.095599,119.96469 c -11.336062,-2.22312 -25.447387,0.66693 -30.123165,9.52315 -3.859653,7.31157 -6.539244,29.19029 -3.719022,37.58377 2.026818,6.0337 8.380311,14.72525 20.899396,17.24642 l 0.07822,0.0164 c 12.523858,2.49812 21.736276,-3.07119 25.932525,-7.85829 5.837897,-6.65781 11.803077,-27.87783 11.055947,-36.11157"
       style="fill:#ffc19f;fill-opacity:1;fill-rule:nonzero;stroke:none;stroke-width:0.0164675"
       id="path59202" />
    <path
       d="m 73.431581,161.67851 c 0.131085,0.0263 0.266116,-0.0494 0.315849,-0.18444 0.351902,-0.95676 1.2288,-1.44749 2.233156,-1.24988 1.010444,0.19761 1.650044,0.99957 1.592409,1.99421 -0.0089,0.15974 0.109013,0.29478 0.261662,0.30135 0.154142,0.006 0.285884,-0.11691 0.295102,-0.27665 0.07431,-1.27294 -0.764098,-2.33838 -2.037191,-2.58704 -1.265698,-0.24866 -2.41776,0.40181 -2.86568,1.61875 -0.0552,0.15151 0.01644,0.31618 0.159902,0.37217 l 0.0448,0.0116"
       style="fill:#c4735b;fill-opacity:1;fill-rule:nonzero;stroke:none;stroke-width:0.0164675"
       id="path59204" />
    <path
       d="m 100.81292,147.89851 c -0.17242,-0.0757 -0.31767,-0.21408 -0.40049,-0.40346 -1.062493,-2.41084 -5.535719,-4.92872 -9.043951,-5.11151 -0.432773,-0.023 -0.767555,-0.40016 -0.742195,-0.85301 0.02622,-0.45121 0.399991,-0.77398 0.837049,-0.78386 3.932595,-0.0922 9.082647,3.07613 10.389347,6.04687 0.17932,0.40839 0.004,0.89583 -0.39473,1.09014 -0.21391,0.10375 -0.44644,0.1021 -0.64503,0.0148"
       style="fill:#330a02;fill-opacity:1;fill-rule:nonzero;stroke:none;stroke-width:0.0164675"
       id="path59206" />
    <path
       d="m 57.645839,139.24484 c 0.188222,-0.004 0.376115,-0.0757 0.525307,-0.21902 1.909742,-1.81472 7.007253,-2.41414 10.315413,-1.23012 0.408391,0.14656 0.8624,-0.0725 1.013405,-0.50062 0.150017,-0.4265 -0.07067,-0.86783 -0.469814,-1.04568 -3.593378,-1.60229 -9.56696,-0.66199 -11.917858,1.57429 -0.323422,0.30795 -0.348124,0.82667 -0.056,1.15766 0.157591,0.17951 0.372818,0.26678 0.589538,0.26349"
       style="fill:#330a02;fill-opacity:1;fill-rule:nonzero;stroke:none;stroke-width:0.0164675"
       id="path59208" />
    <path
       d="m 89.585697,168.41207 c -0.139635,1.14448 1.528187,2.28898 3.72528,2.55904 2.197262,0.26678 4.09168,-0.44297 4.231982,-1.58745 0.139485,-1.1445 -1.528177,-2.29064 -3.725271,-2.55906 -2.197262,-0.26842 -4.092178,0.44298 -4.231991,1.58747"
       style="fill:#ff8a8a;fill-opacity:1;fill-rule:nonzero;stroke:none;stroke-width:0.0164675"
       id="path59210" />
    <path
       d="m 70.364675,150.87748 c 1.470711,3.53227 0.4876,6.88011 -1.643458,7.78254 -3.210667,1.36186 -9.949823,0.53189 -11.82416,-2.80112 -1.815209,-3.22764 0.392746,-7.95546 4.745609,-9.2778 3.810577,-1.15766 7.298391,0.87772 8.722009,4.29638"
       style="fill:#f9feff;fill-opacity:1;fill-rule:nonzero;stroke:none;stroke-width:0.0164675"
       id="path59212" />
    <path
       d="m 58.214621,147.43083 c 4.049858,-4.14981 11.012809,-0.99793 12.19896,3.56522 -1.469555,-3.53064 -5.190391,-5.29102 -8.712951,-4.22392 -2.177173,0.66199 -3.966524,2.27581 -4.786942,4.31777 -0.65376,1.62864 -0.664951,3.60639 0.08926,4.9452 -0.987556,-0.97817 -1.766142,-5.5512 1.211671,-8.60427"
       style="fill:#723c27;fill-opacity:1;fill-rule:nonzero;stroke:none;stroke-width:0.0164675"
       id="path59214" />
    <path
       d="m 68.73983,152.69054 c 0.418107,2.32192 -1.125067,4.54175 -3.446489,4.96002 -2.32208,0.41827 -4.542391,-1.12473 -4.960666,-3.44665 -0.417778,-2.32192 1.125555,-4.54173 3.446977,-4.96001 2.321591,-0.41827 4.542392,1.12472 4.960178,3.44664"
       style="fill:#461d14;fill-opacity:1;fill-rule:nonzero;stroke:none;stroke-width:0.0164675"
       id="path59216" />
    <path
       d="m 63.499377,151.25294 c 0.116098,0.64387 -0.312062,1.26141 -0.956267,1.37668 -0.643884,0.11527 -1.260258,-0.31288 -1.376027,-0.95676 -0.115928,-0.64388 0.312223,-1.25977 0.956107,-1.37504 0.644205,-0.11692 1.260249,0.31124 1.376187,0.95512"
       style="fill:#fefffe;fill-opacity:1;fill-rule:nonzero;stroke:none;stroke-width:0.0164675"
       id="path59218" />
    <path
       d="m 85.31239,153.87456 c -2.718622,2.69244 -3.102151,6.16049 -1.484053,7.81548 2.43752,2.49317 8.976107,4.32436 11.990311,1.97281 2.91936,-2.27911 2.704623,-7.49271 -0.802133,-10.391 -3.070365,-2.53599 -7.072782,-2.0041 -9.704125,0.60271"
       style="fill:#f9feff;fill-opacity:1;fill-rule:nonzero;stroke:none;stroke-width:0.0164675"
       id="path59220" />
    <path
       d="m 97.851733,155.37804 c -2.136658,-5.39145 -9.776596,-5.1675 -12.630578,-1.41291 2.717138,-2.69079 6.829075,-2.88181 9.668071,-0.53849 1.754116,1.44914 2.782516,3.6278 2.752213,5.82785 -0.02435,1.75544 -0.776115,3.58333 -1.988124,4.53021 1.287929,-0.52201 3.769573,-4.44128 2.198418,-8.40666"
       style="fill:#723c27;fill-opacity:1;fill-rule:nonzero;stroke:none;stroke-width:0.0164675"
       id="path59222" />
    <path
       d="m 86.11271,156.17342 c -1.280675,1.98104 -0.71288,4.62572 1.267992,5.90525 1.981208,1.28116 4.625395,0.71304 5.905902,-1.268 1.280515,-1.98104 0.712551,-4.62407 -1.268649,-5.90525 -1.980711,-1.27952 -4.624738,-0.71304 -5.905245,1.268"
       style="fill:#461d14;fill-opacity:1;fill-rule:nonzero;stroke:none;stroke-width:0.0164675"
       id="path59224" />
    <path
       d="m 86.525057,155.87042 c -0.355369,0.54837 -0.197778,1.28282 0.351582,1.63687 0.54968,0.3557 1.283476,0.19761 1.638676,-0.35075 0.355369,-0.55002 0.197938,-1.28447 -0.351911,-1.63852 -0.54968,-0.3557 -1.282978,-0.19762 -1.638347,0.3524"
       style="fill:#fefffe;fill-opacity:1;fill-rule:nonzero;stroke:none;stroke-width:0.0164675"
       id="path59226" />
    <path
       d="m 60.431643,162.56611 c -0.312062,1.10991 -2.292444,1.52489 -4.423662,0.92547 -2.130898,-0.59942 -3.605067,-1.98598 -3.292844,-3.09589 0.312062,-1.10991 2.292444,-1.52324 4.423671,-0.92383 2.130889,0.59777 3.605058,1.98434 3.292835,3.09425"
       style="fill:#ff8a8a;fill-opacity:1;fill-rule:nonzero;stroke:none;stroke-width:0.0164675"
       id="path59228" />
    <path
       d="m 85.086453,117.8058 0.04311,0.006 c 18.883447,4.32272 24.673087,13.49017 25.946527,20.95159 1.02937,6.0304 -0.47081,11.63265 -3.47975,19.9652 -0.93865,-0.18938 -1.44256,-0.0263 -2.10257,0.4858 -0.98295,0.76573 -1.94021,2.15065 -2.49614,2.54586 0.30053,-1.32398 0.647,-2.72207 0.99117,-4.14816 0.99793,-4.63395 2.76275,-11.90435 0.76986,-18.1373 -2.28553,-7.15019 -7.240759,-11.79073 -21.095693,-14.5688 l 1.423458,-7.10078"
       style="fill:#752912;fill-opacity:1;fill-rule:nonzero;stroke:none;stroke-width:0.0164675"
       id="path59230" />
    <path
       d="m 83.881528,117.56373 -0.04284,-0.01 c -19.090116,-3.29021 -27.966258,2.93615 -32.017423,9.33048 -3.27424,5.1675 -4.049529,10.91466 -4.485093,19.76265 0.93848,0.18938 1.34144,0.5319 1.752311,1.25977 0.612258,1.0852 0.961698,2.73195 1.322498,3.30996 0.233022,-1.33716 0.451866,-2.75995 0.684391,-4.20909 0.865698,-4.6603 2.039662,-12.04927 6.28104,-17.03234 4.865315,-5.71587 11.226213,-8.08883 25.081316,-5.31076 l 1.423777,-7.10079"
       style="fill:#752912;fill-opacity:1;fill-rule:nonzero;stroke:none;stroke-width:0.0164675"
       id="path59232" />
    <path
       d="m 74.849759,165.76739 c -0.08747,-0.0132 0.0232,0.01 -0.08498,-0.0165 -5.652969,-1.37008 -9.866666,-3.33466 -10.836604,0.52368 -1.18648,4.71793 2.855466,9.34859 8.574302,10.40087 l 0.31288,0.0626 c 5.682436,1.23343 11.197565,-1.48207 11.921316,-6.29223 0.592009,-3.93408 -4.142729,-3.76281 -9.886925,-4.67841"
       style="fill:#701608;fill-opacity:1;fill-rule:nonzero;stroke:none;stroke-width:0.0164675"
       id="path59234" />
    <path
       d="m 79.970826,176.12544 c -0.772818,-1.97281 -3.19256,-3.73812 -6.308862,-4.36224 -3.1224,-0.62576 -6.039787,0.0741 -7.510009,1.60394 1.571173,1.60887 3.772382,2.83405 6.350533,3.30832 l 0.31288,0.0626 c 2.570409,0.55825 5.081867,0.27336 7.155458,-0.6126"
       style="fill:#ea7063;fill-opacity:1;fill-rule:nonzero;stroke:none;stroke-width:0.0164675"
       id="path59236" />
    <path
       d="m 44.73351,140.97886 c -1.941022,0.13175 -2.132542,2.62822 -0.386329,2.71714 3.366613,0.16962 3.185476,-4.94519 4.235938,-8.63062 -1.371742,3.06955 -3.563405,1.85095 -4.059734,1.38491 -0.699377,-0.65869 -0.548533,-1.88717 -0.06222,-2.60185 0.350756,-0.51543 1.190596,-0.64553 1.770258,-0.40511 0.802133,0.331 0.599742,1.2186 0.291804,1.35857 0.04845,-0.80855 -1.023955,-0.86454 -1.260755,-0.2997 -0.361787,0.86124 0.399333,1.48701 1.14976,1.28116 0.747787,-0.20254 1.512542,-0.38533 2.892355,-4.31448 3.144463,-8.95832 12.514641,-15.59802 22.167716,-14.73676 2.152143,0.19266 4.345111,6.10449 6.61352,7.10243 -8.720364,-0.89913 -16.076231,0.74763 -20.80504,7.69691 -4.540418,6.67263 -3.187618,12.00645 -4.272658,15.59636 -0.998915,3.30504 -3.745866,6.01723 -7.549849,5.00613 1.811254,-0.30301 2.700827,-1.88717 2.937138,-3.94891 -4.886071,1.02263 -7.556276,-1.08356 -7.936516,-3.80729 -0.412017,-2.95591 2.338552,-4.41329 4.274641,-3.39889"
       style="fill:#752912;fill-opacity:1;fill-rule:nonzero;stroke:none;stroke-width:0.0164675"
       id="path59238" />
    <path
       d="m 111.67932,141.98832 c 0.14508,2.58704 1.06627,3.78918 2.19183,3.99337 1.21563,0.22067 1.88931,-1.4442 0.80756,-2.77148 2.24979,1.16096 1.72597,3.41865 0.044,4.02795 -1.05095,0.37875 -2.79585,0.13668 -3.51087,-1.41291 -0.21309,0.97488 -0.43326,2.57881 -0.77019,3.92914 -0.89846,3.5965 -0.59661,5.31736 0.34484,5.91348 1.36351,0.86455 2.70445,-1.77519 0.71188,-2.29228 2.4973,-0.91394 4.57007,2.16383 2.5416,5.52156 -1.37586,2.27745 -5.13819,2.87028 -7.63911,-0.15973 -1.48948,1.35527 -1.24774,3.91761 1.89524,3.98019 -3.52025,2.01726 -6.73042,-0.91066 -6.36682,-4.36883 0.3608,-3.43018 2.88114,-7.56187 2.97419,-15.19621 0.10359,-8.50381 -8.514351,-15.55355 -15.56228,-16.73098 3.619396,-1.29434 8.254009,-4.35071 10.74455,-3.01026 4.77459,2.56894 11.03899,8.69649 11.59361,18.57699"
       style="fill:#752912;fill-opacity:1;fill-rule:nonzero;stroke:none;stroke-width:0.0164675"
       id="path59240" />
    <path
       d="m 103.88723,121.04825 c -0.20552,1.23836 -2.57354,1.79332 -3.83956,1.22354 2.91722,-4.00984 0.68933,-6.87354 -1.191919,-7.79243 -2.799636,-1.36516 -5.922534,-0.1021 -5.110685,2.26264 0.658702,-2.01891 3.734,-0.39028 2.209938,1.35856 -1.059191,1.21531 -3.771556,0.94195 -8.851609,-1.48207 -5.386525,-2.57058 -17.137894,-5.21196 -22.644623,3.07119 3.978872,0.359 4.287476,1.87894 7.885298,4.1251 4.344294,2.71056 14.31272,4.04278 16.425832,4.28156 5.388,0.6093 16.255398,-0.0379 15.117328,-7.04809"
       style="fill:#752912;fill-opacity:1;fill-rule:nonzero;stroke:none;stroke-width:0.0164675"
       id="path59242" />
    <path
       d="m 87.862053,129.11733 c -1.664045,-0.75752 -2.09928,-1.91024 -3.923876,-3.36103 -0.815476,-0.1482 -3.439076,-2.1457 -5.101138,-2.61997 -1.838595,-0.52532 -6.861022,-0.53355 -7.820249,-0.28983 1.240827,3.24574 6.917005,7.23911 13.052303,8.19917 4.022515,0.62906 6.586995,-0.31123 7.221822,-1.70769 -0.665787,0.29313 -2.421885,0.23714 -3.428862,-0.22065"
       style="fill:#752912;fill-opacity:1;fill-rule:nonzero;stroke:none;stroke-width:0.0164675"
       id="path59244" />
    <path
       d="m 68.35679,239.31453 c -1.922578,0.67517 -2.985724,0.49074 -4.480969,0.30794 -0.865866,-0.10539 -1.876969,-0.21243 -3.283618,-0.1515 -2.016444,0.0873 -3.536729,-0.0856 -4.450346,-0.93865 -2.085938,-1.94646 -1.560454,-6.75991 -0.564996,-8.04437 0.234169,-0.30136 0.761458,-0.47261 1.359725,-0.20584 -0.389129,-0.48415 -0.658374,-1.9794 0.170764,-2.66774 1.019831,-0.84643 3.880729,-0.5813 5.662845,2.12101 2.365226,1.35034 4.613368,1.21201 6.374729,2.55576 2.286675,1.74556 1.468737,6.23131 -0.788134,7.02339"
       style="fill:#ffc19f;fill-opacity:1;fill-rule:nonzero;stroke:none;stroke-width:0.0164675"
       id="path59246" />
    <path
       d="m 64.833572,230.62134 c -0.671049,-0.21573 -1.362026,-0.4858 -2.063377,-0.88596 0.695751,0.33759 1.393484,0.61095 2.077048,0.8629 -0.0044,0.008 -0.0091,0.0148 -0.01369,0.0231"
       style="fill:#cf8971;fill-opacity:1;fill-rule:nonzero;stroke:none;stroke-width:0.0164675"
       id="path59248" />
    <path
       d="m 61.426283,234.55048 c -0.02435,0 -0.0464,-0.005 -0.06551,-0.0148 -0.464213,-0.23549 1.035645,-3.10577 1.334863,-4.87932 l 0.07458,0.079 v 0 c 0.701351,0.40016 1.392329,0.67023 2.063378,0.88595 -0.595467,0.98805 -2.796018,3.92915 -3.407289,3.92915"
       style="fill:#f0b091;fill-opacity:1;fill-rule:nonzero;stroke:none;stroke-width:0.0164675"
       id="path59250" />
    <path
       d="m 58.780283,231.38214 c -0.303164,0 -0.674177,-0.0593 -1.02296,-0.21408 -0.734951,-0.32441 -0.793404,-0.92712 -0.793404,-0.92712 0.611929,0.55166 1.90496,1.04569 2.196435,1.10497 -0.1044,0.023 -0.234497,0.0363 -0.380071,0.0363"
       style="fill:#e7a182;fill-opacity:1;fill-rule:nonzero;stroke:none;stroke-width:0.0164675"
       id="path59252" />
    <path
       d="m 69.756035,232.98936 c 0.02622,1.09344 2.309564,0.75751 3.295804,0.0856 0.792258,-0.54013 2.119538,-6.29223 1.163929,-6.24118 -1.213333,0.91229 -4.485911,5.06211 -4.459733,6.15555"
       style="fill:#f29d77;fill-opacity:1;fill-rule:nonzero;stroke:none;stroke-width:0.0164675"
       id="path59254" />
    <path
       d="m 79.277706,234.50931 c 0.155947,0.53355 2.170587,0.59448 2.669875,-0.14327 0.37464,-0.55495 0.540134,-1.37009 0.727698,-0.70974 0.206507,0.72786 1.733867,0.24701 2.218009,-0.67023 0.567307,-1.07368 1.377174,-5.4952 0.590854,-7.99497 -0.500943,-1.59241 -1.984996,-2.89992 -4.321405,-2.839 -1.830684,0.25196 -4.172204,1.18237 -7.224125,4.81181 -1.061662,2.21323 -1.92192,5.71916 -2.146204,7.34779 -0.1604,0.55825 0.519387,1.22189 1.156516,1.43926 1.417848,0.48086 1.729244,-0.0922 2.032746,-1.13955 0.342356,-1.18071 0.81152,-2.59692 1.425583,-3.75459 0.341208,0.65376 -0.555441,3.51581 -0.712214,4.95507 0.464214,0.85631 2.660649,0.46274 3.041547,-0.76903 0.366569,-1.18566 0.779902,-2.93451 1.027404,-3.75623 -8.89e-4,0.75256 -0.269573,2.3005 -0.486284,3.22268"
       style="fill:#ffc19f;fill-opacity:1;fill-rule:nonzero;stroke:none;stroke-width:0.0164675"
       id="path59256" />
    <path
       d="m 76.06111,227.74775 c 0,0 0.06471,0.0247 0.14376,0.0197 0.07885,-0.004 0.142285,-0.0346 0.142285,-0.0346 0,0 -0.06471,-0.0247 -0.14376,-0.0197 -0.07885,0.004 -0.142285,0.0346 -0.142285,0.0346"
       style="fill:#ffc19f;fill-opacity:1;fill-rule:nonzero;stroke:none;stroke-width:0.0164675"
       id="path59258" />
  </g>
  <g
     inkscape:groupmode="layer"
     id="layer2"
     inkscape:label="Layer 3" />
  <g
     inkscape:label="Layer 1"
     inkscape:groupmode="layer"
     id="layer1"
     transform="translate(0,-32.41665)">
    <text
       xml:space="preserve"
       style="font-style:normal;font-variant:normal;font-weight:bold;font-stretch:normal;font-size:10.5833px;line-height:1.25;font-family:sans-serif;-inkscape-font-specification:'sans-serif Bold';letter-spacing:0px;word-spacing:0px;fill:#000000;fill-opacity:1;stroke:none;stroke-width:0.264583"
       x="150.05655"
       y="89.869026"
       id="text8811" />
    <text
       xml:space="preserve"
       style="font-style:normal;font-variant:normal;font-weight:bold;font-stretch:normal;font-size:10.5833px;line-height:1.25;font-family:sans-serif;-inkscape-font-specification:'sans-serif Bold';letter-spacing:0px;word-spacing:0px;fill:#000000;fill-opacity:1;stroke:none;stroke-width:0.264583"
       x="160.63989"
       y="97.806526"
       id="text8815" />
    <text
       xml:space="preserve"
       style="font-style:normal;font-variant:normal;font-weight:bold;font-stretch:normal;font-size:10.5833px;line-height:1.25;font-family:sans-serif;-inkscape-font-specification:'sans-serif Bold';letter-spacing:0px;word-spacing:0px;fill:#000000;fill-opacity:1;stroke:none;stroke-width:0.264583"
       x="156.86011"
       y="88.7351"
       id="text8819" />
    <flowRoot
       xml:space="preserve"
       id="flowRoot8821"
       style="font-style:normal;font-variant:normal;font-weight:bold;font-stretch:normal;font-size:40px;line-height:1.25;font-family:sans-serif;-inkscape-font-specification:'sans-serif Bold';letter-spacing:0px;word-spacing:0px;fill:#000000;fill-opacity:1;stroke:none"><flowRegion
         id="flowRegion8823"
         style="font-style:normal;font-variant:normal;font-weight:bold;font-stretch:normal;font-family:sans-serif;-inkscape-font-specification:'sans-serif Bold'" /><flowPara
         id="flowPara8827" /></flowRoot>
    <flowRoot
       xml:space="preserve"
       id="flowRoot8829"
       style="font-style:normal;font-variant:normal;font-weight:bold;font-stretch:normal;font-size:40px;line-height:1.25;font-family:sans-serif;-inkscape-font-specification:'sans-serif Bold';letter-spacing:0px;word-spacing:0px;fill:#000000;fill-opacity:1;stroke:none"><flowRegion
         id="flowRegion8831"
         style="font-style:normal;font-variant:normal;font-weight:bold;font-stretch:normal;font-family:sans-serif;-inkscape-font-specification:'sans-serif Bold'" /><flowPara
         id="flowPara8835" /></flowRoot>
    <flowRoot
       xml:space="preserve"
       id="flowRoot8837"
       style="font-style:normal;font-variant:normal;font-weight:bold;font-stretch:normal;font-size:40px;line-height:1.25;font-family:sans-serif;-inkscape-font-specification:'sans-serif Bold';letter-spacing:0px;word-spacing:0px;fill:#000000;fill-opacity:1;stroke:none"><flowRegion
         id="flowRegion8839"
         style="font-style:normal;font-variant:normal;font-weight:bold;font-stretch:normal;font-family:sans-serif;-inkscape-font-specification:'sans-serif Bold'" /><flowPara
         id="flowPara8843" /></flowRoot>
    <text
       xml:space="preserve"
       style="font-style:normal;font-variant:normal;font-weight:bold;font-stretch:normal;font-size:10.5833px;line-height:1.25;font-family:sans-serif;-inkscape-font-specification:'sans-serif Bold';letter-spacing:0px;word-spacing:0px;fill:#000000;fill-opacity:1;stroke:none;stroke-width:0.264583"
       x="209.39882"
       y="107.25594"
       id="text8847" />
    <flowRoot
       xml:space="preserve"
       id="flowRoot8849"
       style="font-style:normal;font-variant:normal;font-weight:bold;font-stretch:normal;font-size:40px;line-height:1.25;font-family:sans-serif;-inkscape-font-specification:'sans-serif Bold';letter-spacing:0px;word-spacing:0px;fill:#000000;fill-opacity:1;stroke:none"><flowRegion
         id="flowRegion8851"
         style="font-style:normal;font-variant:normal;font-weight:bold;font-stretch:normal;font-family:sans-serif;-inkscape-font-specification:'sans-serif Bold'" /><flowPara
         id="flowPara8855" /></flowRoot>
    <flowRoot
       xml:space="preserve"
       id="flowRoot8857"
       style="font-style:normal;font-variant:normal;font-weight:bold;font-stretch:normal;font-size:40px;line-height:1.25;font-family:sans-serif;-inkscape-font-specification:'sans-serif Bold';letter-spacing:0px;word-spacing:0px;fill:#000000;fill-opacity:1;stroke:none"><flowRegion
         id="flowRegion8859"
         style="font-style:normal;font-variant:normal;font-weight:bold;font-stretch:normal;font-family:sans-serif;-inkscape-font-specification:'sans-serif Bold'" /><flowPara
         id="flowPara8863" /></flowRoot>
    <flowRoot
       xml:space="preserve"
       id="flowRoot8865"
       style="font-style:normal;font-variant:normal;font-weight:bold;font-stretch:normal;font-size:40px;line-height:1.25;font-family:sans-serif;-inkscape-font-specification:'sans-serif Bold';letter-spacing:0px;word-spacing:0px;fill:#000000;fill-opacity:1;stroke:none"><flowRegion
         id="flowRegion8867"
         style="font-style:normal;font-variant:normal;font-weight:bold;font-stretch:normal;font-family:sans-serif;-inkscape-font-specification:'sans-serif Bold'" /><flowPara
         id="flowPara8871" /></flowRoot>
    <flowRoot
       xml:space="preserve"
       id="flowRoot8873"
       style="font-style:normal;font-variant:normal;font-weight:bold;font-stretch:normal;font-size:40px;line-height:1.25;font-family:sans-serif;-inkscape-font-specification:'sans-serif Bold';letter-spacing:0px;word-spacing:0px;fill:#000000;fill-opacity:1;stroke:none"><flowRegion
         id="flowRegion8875"
         style="font-style:normal;font-variant:normal;font-weight:bold;font-stretch:normal;font-family:sans-serif;-inkscape-font-specification:'sans-serif Bold'" /><flowPara
         id="flowPara8879" /></flowRoot>
  </g>
</svg>
