<?xml version="1.0" encoding="UTF-8" standalone="no"?>
<!-- Created with Inkscape (http://www.inkscape.org/) -->

<svg
   width="1000"
   height="1000"
   viewBox="0 0 264.58333 264.58334"
   version="1.1"
   id="svg2383"
   inkscape:version="1.2 (1:1.2.1+202207142221+cd75a1ee6d)"
   sodipodi:docname="thailand.svg"
   enable-background="new"
   xmlns:inkscape="http://www.inkscape.org/namespaces/inkscape"
   xmlns:sodipodi="http://sodipodi.sourceforge.net/DTD/sodipodi-0.dtd"
   xmlns="http://www.w3.org/2000/svg"
   xmlns:svg="http://www.w3.org/2000/svg"
   xmlns:rdf="http://www.w3.org/1999/02/22-rdf-syntax-ns#"
   xmlns:cc="http://creativecommons.org/ns#"
   xmlns:dc="http://purl.org/dc/elements/1.1/">
  <defs
     id="defs2377" />
  <sodipodi:namedview
     id="base"
     pagecolor="#ffffff"
     bordercolor="#666666"
     borderopacity="1.0"
     inkscape:pageopacity="0.0"
     inkscape:pageshadow="2"
     inkscape:zoom="0.70710678"
     inkscape:cx="508.40978"
     inkscape:cy="501.33871"
     inkscape:document-units="px"
     inkscape:current-layer="layer3"
     showgrid="false"
     units="px"
     inkscape:window-width="1390"
     inkscape:window-height="1080"
     inkscape:window-x="-1"
     inkscape:window-y="1080"
     inkscape:window-maximized="0"
     showguides="true"
     inkscape:lockguides="true"
     inkscape:object-nodes="false"
     inkscape:snap-nodes="false"
     inkscape:snap-others="false"
     inkscape:showpageshadow="2"
     inkscape:pagecheckerboard="0"
     inkscape:deskcolor="#d1d1d1" />
  <metadata
     id="metadata2380">
    <rdf:RDF>
      <cc:Work
         rdf:about="">
        <dc:format>image/svg+xml</dc:format>
        <dc:type
           rdf:resource="http://purl.org/dc/dcmitype/StillImage" />
      </cc:Work>
    </rdf:RDF>
  </metadata>
  <g
     inkscape:groupmode="layer"
     id="layer3"
     inkscape:label="Layer 2">
    <path
       d="m 113.80478,203.01973 c 0.10376,-0.31708 0.0424,-0.68316 -0.32191,-0.90487 -0.20242,-0.12244 -0.42391,-0.21784 -0.64241,-0.31967 -0.60478,-0.68316 -1.42199,-1.04666 -2.42792,-1.01959 -0.16479,-0.58907 -1.05596,-0.90874 -1.43709,-0.22172 -1.16063,2.09203 -2.07851,4.60556 -1.13392,6.93476 0.27111,0.6677 1.00915,0.75277 1.44454,0.18821 l 0.17574,-0.26165 c -0.0468,0.88811 -0.20278,1.76978 -0.58362,2.64371 -0.63291,1.45269 -1.39572,2.83706 -1.5593,4.43541 -0.0866,0.83913 0.21703,1.25032 0.66203,1.37921 -0.0453,0.13921 -0.0968,0.27843 -0.13957,0.41764 -0.26417,0.84815 1.05091,1.42175 1.44453,0.60969 0.29413,-0.6084 0.56499,-1.20907 0.81272,-1.80717 2.57642,-2.42329 6.42133,-8.89143 3.70585,-12.07394"
       style="fill:#d4aba3;fill-opacity:1;fill-rule:nonzero;stroke:none;stroke-width:0.128899"
       id="path4008" />
    <path
       d="m 109.9846,135.28729 c 0,0 16.97004,42.54304 9.06468,69.02787 h -11.85766 c 0,0 -5.87584,-56.62652 2.79298,-69.02787"
       style="fill:#faf5fa;fill-opacity:1;fill-rule:nonzero;stroke:none;stroke-width:0.128899"
       id="path4010" />
    <path
       d="m 109.9846,135.28729 4.75044,60.13386 -7.54342,8.89401 c 0,0 -5.6785,-59.39398 2.79298,-69.02787"
       style="fill:#e5dcec;fill-opacity:1;fill-rule:nonzero;stroke:none;stroke-width:0.128899"
       id="path4012" />
    <path
       d="m 62.310741,203.01973 c -0.10377,-0.31708 -0.0427,-0.68316 0.32117,-0.90487 0.20279,-0.12244 0.42396,-0.21784 0.6426,-0.31967 0.60467,-0.68316 1.42239,-1.04666 2.42833,-1.01959 0.16405,-0.58907 1.0554,-0.90874 1.43708,-0.22172 1.16009,2.09203 2.07796,4.60556 1.13392,6.93476 -0.27111,0.6677 -1.00903,0.75277 -1.44457,0.18821 l -0.17575,-0.26165 c 0.0468,0.88811 0.20315,1.76978 0.58315,2.64371 0.63339,1.45269 1.39623,2.83706 1.55978,4.43541 0.0866,0.83913 -0.21704,1.25032 -0.66251,1.37921 0.0457,0.13921 0.0965,0.27843 0.13994,0.41764 0.26381,0.84815 -1.05091,1.42175 -1.44457,0.60969 -0.29413,-0.6084 -0.56496,-1.20907 -0.81323,-1.80717 -2.57591,-2.42329 -6.42074,-8.89143 -3.70534,-12.07394"
       style="fill:#d4aba3;fill-opacity:1;fill-rule:nonzero;stroke:none;stroke-width:0.128899"
       id="path4014" />
    <path
       d="m 66.130921,135.28729 c 0,0 -16.97081,42.54304 -9.06483,69.02787 h 11.8578 c 0,0 5.876,-56.62652 -2.79297,-69.02787"
       style="fill:#faf5fa;fill-opacity:1;fill-rule:nonzero;stroke:none;stroke-width:0.128899"
       id="path4016" />
    <path
       d="m 66.130921,135.28729 -4.75018,60.13386 7.54315,8.89401 c 0,0 5.67851,-59.39398 -2.79297,-69.02787"
       style="fill:#e5dcec;fill-opacity:1;fill-rule:nonzero;stroke:none;stroke-width:0.128899"
       id="path4018" />
    <path
       d="m 79.520251,131.97717 c 0,0 14.76898,-1.38438 16.60218,0.83784 l -1.18574,2.19257 c 0,0 -12.91343,5.40215 -15.41644,-3.03041"
       style="fill:#9ca19c;fill-opacity:1;fill-rule:nonzero;stroke:none;stroke-width:0.128899"
       id="path4020" />
    <path
       d="m 107.19071,191.40337 -18.995529,0.88296 -18.99542,-0.88296 2.42343,10.63286 4.56325,45.79902 h 9.60953 v -37.54047 h 4.69271 v 37.54047 h 9.603979 l 4.5513,-45.68043 0.11035,0.0153 2.43655,-10.76691"
       style="fill:#d4aba3;fill-opacity:1;fill-rule:nonzero;stroke:none;stroke-width:0.128899"
       id="path4022" />
    <path
       d="M 107.53464,188.10872 H 68.451641 c 0,0 -5.13895,21.70397 5.73134,39.90448 0,0 5.44645,4.32841 10.92622,0 l -0.0183,-5.91001 h 5.80446 l -0.0183,5.91001 c 5.48025,4.32841 10.926259,0 10.926259,0 10.87025,-18.20051 5.732,-39.90448 5.732,-39.90448"
       style="fill:#9a192c;fill-opacity:1;fill-rule:nonzero;stroke:none;stroke-width:0.128899"
       id="path4024" />
    <path
       d="m 74.182981,228.0132 c 0,0 -0.4803,-0.74117 -1.1918,-2.12812 0.37418,0.71281 0.77146,1.42434 1.1918,2.12812 v 0 m -5.20983,-12.77902 c -0.0574,-0.21657 -0.11364,-0.43568 -0.16917,-0.65867 -0.002,-0.0179 -0.003,-0.0374 -0.004,-0.0567 0.0563,0.23845 0.11437,0.47692 0.17429,0.71538 m -0.53061,-2.32663 c -0.0292,-0.0864 -0.0585,-0.17271 -0.0891,-0.25909 -0.31167,-1.45011 -0.58366,-2.98529 -0.79558,-4.59911 0.0365,-0.001 0.0709,-0.007 0.10559,-0.0128 0.18525,1.58288 0.44007,3.21345 0.77892,4.87109"
       style="fill:#a3a5a5;fill-opacity:1;fill-rule:nonzero;stroke:none;stroke-width:0.128899"
       id="path4026" />
    <path
       d="m 68.804011,214.57551 c -0.15711,-0.62259 -0.30765,-1.26708 -0.44905,-1.92704 0.0292,0.0864 0.0603,0.17271 0.0892,0.25909 0.10925,0.53493 0.22763,1.07115 0.35515,1.61124 0.002,0.0194 0.003,0.0387 0.004,0.0567 m -1.24464,-6.52615 c -0.15821,-1.20263 -0.28317,-2.44779 -0.36659,-3.7342 h 0.15018 c 0.0683,1.20392 0.17282,2.4465 0.32226,3.72131 -0.0365,0.007 -0.0702,0.0117 -0.10559,0.0128"
       style="fill:#a68882;fill-opacity:1;fill-rule:nonzero;stroke:none;stroke-width:0.128899"
       id="path4028" />
    <path
       d="m 67.342851,204.31516 h -0.15017 c -0.0464,-0.70765 -0.08,-1.4269 -0.10011,-2.15905 l 0.1688,0.19851 c 0.0183,0.64063 0.0438,1.29415 0.0815,1.96055"
       style="fill:#c6c0c4;fill-opacity:1;fill-rule:nonzero;stroke:none;stroke-width:0.128899"
       id="path4030" />
    <path
       d="m 67.261261,202.35461 -0.1688,-0.19851 c -0.0482,-1.77107 -0.0146,-3.61303 0.11692,-5.513 l 0.1425,0.0336 c -0.0998,1.71178 -0.14506,3.62463 -0.0906,5.67799"
       style="fill:#b3acb9;fill-opacity:1;fill-rule:nonzero;stroke:none;stroke-width:0.128899"
       id="path4032" />
    <path
       d="m 74.182981,228.0132 c -0.42034,-0.70378 -0.81762,-1.41531 -1.1918,-2.12812 -1.09615,-2.13714 -2.74051,-5.8056 -4.01803,-10.6509 -0.0599,-0.23845 -0.11766,-0.47693 -0.17429,-0.71539 -0.12752,-0.54008 -0.24554,-1.07631 -0.35515,-1.61124 -0.33871,-1.65763 -0.59356,-3.2882 -0.77892,-4.87108 -0.14944,-1.27481 -0.25394,-2.51739 -0.32227,-3.72131 -0.0376,-0.66641 -0.065,-1.31992 -0.0815,-1.96055 -0.0544,-2.05336 -0.007,-3.96621 0.0906,-5.67799 l 0.49651,0.1186 c 0.002,0.0967 0.003,0.19592 0.004,0.29388 l -0.38928,-0.0877 0.39432,0.31065 c 0.17027,6.80843 1.86798,15.29642 8.89397,17.67589 0,0 -5.96153,-0.84171 -7.55265,-4.15054 0,0 -0.35187,7.90536 10.321,10.67282 0,0 -0.48296,0.0967 -1.25534,0.0967 -1.69822,0 -4.79786,-0.46791 -7.24343,-3.45707 l 3.16099,9.86334"
       style="fill:#791624;fill-opacity:1;fill-rule:nonzero;stroke:none;stroke-width:0.128899"
       id="path4034" />
    <path
       d="m 97.876731,225.23286 c -2.53271,-1.09307 -4.40073,-2.38721 -5.77774,-3.7226 h 1.45462 1.81565 c 1.40928,2.42974 2.50747,3.7226 2.50747,3.7226 m -20.11027,-6.78524 c 1.12683,-0.27067 2.10014,-0.74503 2.94004,-1.35215 v 0.83656 c -1.6741,0.42021 -2.94004,0.51559 -2.94004,0.51559"
       style="fill:#791624;fill-opacity:1;fill-rule:nonzero;stroke:none;stroke-width:0.128899"
       id="path4036" />
    <path
       d="m 108.73803,201.75523 c 0.0329,-1.86001 -0.0146,-3.5937 -0.10888,-5.15982 l 0.15565,-0.0362 c 0.0709,1.65506 0.049,3.40808 -0.0468,5.19591"
       style="fill:#cbc3d2;fill-opacity:1;fill-rule:nonzero;stroke:none;stroke-width:0.128899"
       id="path4038" />
    <path
       d="m 94.990071,226.92143 c -0.87911,0 -1.43646,-0.0748 -1.43646,-0.0748 6.495749,0 11.028349,-8.89143 12.804289,-13.08193 -1.78654,2.82288 -5.82711,5.48851 -6.561819,5.96028 4.777879,-3.10775 6.402149,-14.31034 6.944919,-22.50057 l 0.44971,-0.223 -0.4416,0.10443 c 0.001,-0.0205 0.002,-0.0425 0.004,-0.0619 l 1.87609,-0.44857 c 0.0932,1.56612 0.14104,3.29981 0.10889,5.15982 -0.37923,7.08041 -1.91285,14.69188 -3.40887,18.88238 -1.99688,5.59293 -7.660329,6.28382 -10.339089,6.28382 m 4.68975,-7.12423 c 0,0 0.0409,-0.0245 0.11619,-0.0722 -0.038,0.0245 -0.0775,0.049 -0.11619,0.0722"
       style="fill:#891729;fill-opacity:1;fill-rule:nonzero;stroke:none;stroke-width:0.128899"
       id="path4040" />
    <path
       d="m 80.706501,221.51026 h 15.41607 v -33.40141 h -15.41607 z"
       style="fill:#62121d;fill-opacity:1;fill-rule:nonzero;stroke:none;stroke-width:0.128899"
       id="path4042" />
    <path
       d="m 96.122431,221.51026 h -2.56882 l -1.31669,-17.11132 0.60621,-0.30034 3.2793,17.41165 m -12.64908,0 h -2.76685 v -14.11958 -5.19461 l 0.97583,0.43309 1.79102,17.16803 2.6097,-7.99043 -2.6097,9.7035 m 5.07731,-1.71307 -0.55838,-4.47665 1.07554,-4.30393 0.62838,3.62979 -1.14554,5.15079 m 3.22906,-14.51787 0.0559,-0.68187 0.10742,-0.0528 -0.16332,0.73472 m 0.38928,-4.74476 3.6e-4,-0.0102 h 5.1e-4 l 0.002,0.0102 h -0.003 m -10.74796,-0.41377 -0.71454,-0.15985 v -0.098 l 0.705,0.16884 0.011,0.0889"
       style="fill:#48141b;fill-opacity:1;fill-rule:nonzero;stroke:none;stroke-width:0.128899"
       id="path4044" />
    <path
       d="m 89.067821,208.72994 -0.31569,-6.0982 1.1097,2.94148 -0.79401,3.15672 m -3.95862,-1.33925 -0.82415,-3.60917 1.43591,0.63547 -0.61176,2.9737 m 3.95862,-6.12656 -1.07503,-13.15541 -0.91941,6.14976 0.35296,-4.96389 v -1.18587 h 0.7904 v 1.18587 l 0.85101,11.96954 1.99999,-0.47693 -0.002,0.007 -1.9979,0.47048 m -3.02514,-0.11086 -2.48423,-0.55556 -0.0146,-0.0567 2.49998,0.5968 -0.003,0.0154"
       style="fill:#48141b;fill-opacity:1;fill-rule:nonzero;stroke:none;stroke-width:0.128899"
       id="path4046" />
    <path
       d="m 96.122431,206.48969 -0.85847,-3.58855 0.85847,-0.42408 v 4.01263 m -1.55927,-6.51842 -0.004,-0.0179 1.56328,-0.37252 v 0.0245 l -1.55926,0.36607"
       style="fill:#48141b;fill-opacity:1;fill-rule:nonzero;stroke:none;stroke-width:0.128899"
       id="path4048" />
    <path
       d="m 90.588431,219.7972 -0.89223,-5.1508 2.08352,-9.36708 -1.19129,14.51788 m -3.50036,-0.85589 v -10.21137 l -1.00502,3.07682 1.00502,-3.73678 0.90421,7.25056 -0.90421,3.62077"
       style="fill:#62121e;fill-opacity:1;fill-rule:nonzero;stroke:none;stroke-width:0.128899"
       id="path4050" />
    <path
       d="m 93.553611,221.51026 h -10.08026 l 2.6097,-9.7035 1.00502,-3.07682 v 10.21137 l 0.90421,-3.62077 0.55838,4.47666 1.14554,-5.1508 0.89223,5.1508 1.19129,-14.51788 0.16332,-0.73472 0.29414,-0.14564 1.31669,17.11131"
       style="fill:#49141b;fill-opacity:1;fill-rule:nonzero;stroke:none;stroke-width:0.128899"
       id="path4052" />
    <path
       d="m 76.186951,247.83525 -7.73531,3.51892 h 17.34433 v -3.51892 h -9.60902"
       style="fill:#141413;fill-opacity:1;fill-rule:nonzero;stroke:none;stroke-width:0.128899"
       id="path4054" />
    <path
       d="m 99.456311,247.83525 7.735309,3.51892 H 90.488681 v -3.51892 h 8.96763"
       style="fill:#141413;fill-opacity:1;fill-rule:nonzero;stroke:none;stroke-width:0.128899"
       id="path4056" />
    <path
       d="m 79.930541,135.9292 v -3.95203 l 8.21177,2.73394 v 7.54316 c 0,0 -8.21177,-3.03041 -8.21177,-6.32507"
       style="fill:#fafbfa;fill-opacity:1;fill-rule:nonzero;stroke:none;stroke-width:0.128899"
       id="path4058" />
    <path
       d="m 96.354081,135.9292 v -3.95203 l -8.21177,2.73394 v 7.54316 c 0,0 8.21177,-3.03041 8.21177,-6.32507"
       style="fill:#fafbfa;fill-opacity:1;fill-rule:nonzero;stroke:none;stroke-width:0.128899"
       id="path4060" />
    <path
       d="m 109.9846,135.28729 -13.862169,-0.22815 -7.90562,1.82392 v 2.99948 h -0.79039 v -2.99948 l -7.90566,-1.82392 -13.86261,0.22815 -2.73967,60.33107 23.65696,5.64577 0.85098,-11.96954 v -3.16318 h 0.79039 v 3.16318 l 0.85101,11.96954 23.656889,-5.64577 -2.74011,-60.33107"
       style="fill:#faf5fa;fill-opacity:1;fill-rule:nonzero;stroke:none;stroke-width:0.128899"
       id="path4062" />
    <path
       d="m 87.426421,139.88253 -2.31722,47.04032 h 3.95862 l -1.6414,-47.04032"
       style="fill:#e5dcec;fill-opacity:1;fill-rule:nonzero;stroke:none;stroke-width:0.128899"
       id="path4064" />
    <path
       d="m 108.74808,144.03307 1.23652,42.09834 -15.245249,10.07989 15.245249,-3.95333 -20.916779,9.00616 23.656889,-5.64577 -3.97663,-51.58529"
       style="fill:#e5dcec;fill-opacity:1;fill-rule:nonzero;stroke:none;stroke-width:0.128899"
       id="path4066" />
    <path
       d="m 65.658151,135.28729 v 49.65826 l 16.4315,9.09251 c 0,0 -16.79966,-0.4215 -15.81126,-0.80304 0.98788,-0.38282 17.19496,6.93089 17.19496,6.93089 l -20.55487,-4.54755 2.73967,-60.33107"
       style="fill:#e5dcec;fill-opacity:1;fill-rule:nonzero;stroke:none;stroke-width:0.128899"
       id="path4068" />
    <path
       d="m 80.706501,207.39069 -12.84806,-10.0786 c -0.002,-0.0748 -0.004,-0.14823 -0.004,-0.22299 l 12.8531,2.87186 v 7.42973"
       style="fill:#791624;fill-opacity:1;fill-rule:nonzero;stroke:none;stroke-width:0.128899"
       id="path4070" />
    <path
       d="m 67.858441,197.31209 -0.39432,-0.31065 0.38928,0.0877 c 0.002,0.0748 0.003,0.14823 0.004,0.22299"
       style="fill:#5e141e;fill-opacity:1;fill-rule:nonzero;stroke:none;stroke-width:0.128899"
       id="path4072" />
    <path
       d="m 96.122431,202.47706 v -2.87186 l 10.626679,-2.49935 c -0.003,0.04 -0.004,0.0786 -0.007,0.1186 l -10.618569,5.25263"
       style="fill:#791624;fill-opacity:1;fill-rule:nonzero;stroke:none;stroke-width:0.128899"
       id="path4074" />
    <path
       d="m 106.741,197.22444 c 0.003,-0.04 0.007,-0.0786 0.007,-0.1186 l 0.4416,-0.10443 -0.44971,0.22299"
       style="fill:#6b1422;fill-opacity:1;fill-rule:nonzero;stroke:none;stroke-width:0.128899"
       id="path4076" />
    <path
       d="m 89.862341,205.57322 1.20339,-4.77957 1.10327,-0.25909 -0.33323,4.06289 -1.97383,0.97576 m -3.25467,-0.76437 -0.8862,-0.39185 0.65816,-3.19927 0.19621,0.0464 0.10889,-1.52873 1.53259,-7.45035 0.53532,10.3467 -0.93052,-2.46583 -1.21445,4.64293 m 6.23597,-0.71023 -0.67117,-3.56405 2.3912,-0.56329 0.7008,2.92987 -2.42083,1.19747 m -8.55808,-0.31708 -2.60272,-1.15236 -0.26125,-2.50837 2.13741,0.47693 0.72659,3.1838"
       style="fill:#48141b;fill-opacity:1;fill-rule:nonzero;stroke:none;stroke-width:0.128899"
       id="path4078" />
    <path
       d="m 80.706501,207.39069 v 0 -7.42973 l 0.71454,0.15986 0.26125,2.50836 -0.97583,-0.4331 v 5.19462 m 11.12916,-2.79323 0.33323,-4.06289 h 0.003 l 0.67117,3.56405 -0.60621,0.30034 -0.0669,-0.87393 -0.2269,1.01959 -0.10742,0.0528"
       style="fill:#371418;fill-opacity:1;fill-rule:nonzero;stroke:none;stroke-width:0.128899"
       id="path4080" />
    <path
       d="m 89.861831,205.57322 -1.1097,-2.94148 -0.53532,-10.3467 -1.53259,7.45035 0.38916,-5.47691 0.91941,-6.14976 1.07503,13.15541 1.99791,-0.47048 -1.20339,4.77957 h -5.1e-4 m -4.14087,-1.15623 -1.43591,-0.63547 -0.7266,-3.1838 2.48423,0.55556 0.003,-0.0154 0.33396,0.0799 -0.65816,3.19927"
       style="fill:#371418;fill-opacity:1;fill-rule:nonzero;stroke:none;stroke-width:0.128899"
       id="path4082" />
    <path
       d="m 95.263961,202.90114 -0.7008,-2.92987 1.55927,-0.36607 v 2.87186 l -0.85847,0.42408"
       style="fill:#371418;fill-opacity:1;fill-rule:nonzero;stroke:none;stroke-width:0.128899"
       id="path4084" />
    <path
       d="m 91.942901,204.5446 0.2269,-1.01959 0.0669,0.87393 -0.29414,0.14565"
       style="fill:#381418;fill-opacity:1;fill-rule:nonzero;stroke:none;stroke-width:0.128899"
       id="path4086" />
    <path
       d="m 86.575441,201.26413 -0.19621,-0.0464 -0.33396,-0.0799 1.02811,-6.87933 -0.38916,5.47691 -0.10889,1.52873"
       style="fill:#c6c0c4;fill-opacity:1;fill-rule:nonzero;stroke:none;stroke-width:0.128899"
       id="path4088" />
    <path
       d="m 95.135051,137.65902 -6.06723,4.24078 c 0,0 5.08092,-0.93194 6.06723,-4.24078"
       style="fill:#e5dcec;fill-opacity:1;fill-rule:nonzero;stroke:none;stroke-width:0.128899"
       id="path4090" />
    <path
       d="m 80.439191,137.65902 6.06782,4.24078 c 0,0 -5.08042,-0.93194 -6.06782,-4.24078"
       style="fill:#e5dcec;fill-opacity:1;fill-rule:nonzero;stroke:none;stroke-width:0.128899"
       id="path4092" />
    <path
       d="m 91.906541,146.73479 c 0,-0.72828 -0.59009,-1.31734 -1.31709,-1.31734 -0.72813,0 -1.31873,0.58906 -1.31873,1.31734 0,0.72699 0.5906,1.31734 1.31873,1.31734 0.727,0 1.31709,-0.59035 1.31709,-1.31734"
       style="fill:#fab51b;fill-opacity:1;fill-rule:nonzero;stroke:none;stroke-width:0.128899"
       id="path4094" />
    <path
       d="m 91.906541,165.18021 c 0,-0.727 -0.59009,-1.31735 -1.31709,-1.31735 -0.72813,0 -1.31873,0.59035 -1.31873,1.31735 0,0.72956 0.5906,1.31863 1.31873,1.31863 0.727,0 1.31709,-0.58907 1.31709,-1.31863"
       style="fill:#fab51b;fill-opacity:1;fill-rule:nonzero;stroke:none;stroke-width:0.128899"
       id="path4096" />
    <path
       d="m 111.79331,112.86663 c -0.66214,-0.89326 -1.52978,-1.14591 -2.43,-1.00541 -0.96015,-0.34674 -2.17516,0.049 -2.97976,0.52204 -1.49134,0.87781 -2.20738,3.34879 -2.18572,5.455 l -0.0504,0.12503 c -0.42446,1.16654 -0.25211,3.87212 0.66006,4.79246 1.37318,1.3818 3.03223,1.10338 4.46416,-0.10826 2.42135,-2.04434 4.69318,-6.86257 2.52165,-9.78084"
       style="fill:#a0644a;fill-opacity:1;fill-rule:nonzero;stroke:none;stroke-width:0.128899"
       id="path4098" />
    <path
       d="m 110.87076,118.74184 c -0.18525,-0.57102 -0.6263,-1.07115 -1.00951,-1.51327 0.0146,0.26297 -0.0292,0.21784 -0.13337,-0.13793 -0.14067,-0.24364 -0.34638,-0.39185 -0.58559,-0.5272 l -0.0256,-0.0117 c 0.0709,-0.12763 0.1129,-0.22942 0.0409,-0.20367 1.52306,-0.5143 0.87148,-2.93373 -0.66371,-2.41685 -1.81153,0.61098 -2.44145,2.94405 -2.48631,4.65196 -0.0329,1.3457 1.67878,1.54936 2.28396,0.65738 0.16259,0.2565 0.2185,0.5156 -0.0387,0.80562 -1.0709,1.19876 0.69437,2.97885 1.77184,1.76978 0.79866,-0.89585 1.23613,-1.88321 0.84787,-3.07423"
       style="fill:#874735;fill-opacity:1;fill-rule:nonzero;stroke:none;stroke-width:0.128899"
       id="path4100" />
    <path
       d="m 66.341821,112.86663 c 0.66265,-0.89326 1.52978,-1.14591 2.43,-1.00541 0.96015,-0.34674 2.17567,0.049 2.97973,0.52204 1.49189,0.87781 2.20738,3.34879 2.18575,5.455 l 0.0504,0.12503 c 0.42446,1.16654 0.25211,3.87212 -0.6601,4.79246 -1.37314,1.3818 -3.03219,1.10338 -4.46412,-0.10826 -2.42084,-2.04434 -4.69322,-6.86257 -2.52165,-9.78084"
       style="fill:#a0644a;fill-opacity:1;fill-rule:nonzero;stroke:none;stroke-width:0.128899"
       id="path4102" />
    <path
       d="m 67.264331,118.74184 c 0.18525,-0.57102 0.62634,-1.07115 1.00955,-1.51327 -0.0146,0.26297 0.0292,0.21784 0.13336,-0.13793 0.14068,-0.24364 0.34639,-0.39185 0.58611,-0.5272 l 0.0256,-0.0117 c -0.0709,-0.12763 -0.1129,-0.22942 -0.0409,-0.20367 -1.52306,-0.5143 -0.87151,-2.93373 0.66419,-2.41685 1.81105,0.61098 2.44097,2.94405 2.48584,4.65196 0.0329,1.3457 -1.67879,1.54936 -2.28346,0.65738 -0.16332,0.2565 -0.21886,0.5156 0.0384,0.80562 1.07089,1.19876 -0.69386,2.97885 -1.77185,1.76978 -0.79814,-0.89585 -1.23612,-1.88321 -0.8479,-3.07423"
       style="fill:#874735;fill-opacity:1;fill-rule:nonzero;stroke:none;stroke-width:0.128899"
       id="path4104" />
    <path
       d="m 106.83717,112.76609 c 0,13.24693 -8.327519,23.98807 -18.601649,23.98807 -10.27362,0 -18.60523,-10.74114 -18.60523,-23.98807 0,-13.246922 8.33161,-23.985482 18.60523,-23.985482 10.27413,0 18.601649,10.73856 18.601649,23.985482"
       style="fill:#ee9977;fill-opacity:1;fill-rule:nonzero;stroke:none;stroke-width:0.128899"
       id="path4106" />
    <path
       d="m 70.608601,104.52688 v 14.33613 c 0,0 -2.07344,-3.45191 -2.70686,-9.3181 0,0 -2.05334,-0.52719 -3.14692,3.3591 0,0 -2.95207,-2.80999 -1.74623,-8.37713 h -5.18663 c 0,0 -2.49545,-13.924932 4.17054,-19.579722 l -7.82403,2.90796 c 0,0 1.12581,-8.82442 10.58635,-12.49803 l -2.36559,-6.493921 c 0,0 19.88216,-7.455506 28.77318,7.518661 0,0 11.387439,-12.614028 24.722409,2.0959 l -7.22337,0.40088 c 0,0 10.83385,2.24799 11.38938,22.702942 l -7.22338,-4.485682 c 0,0 0.27806,6.970852 -1.10864,14.251052 l -2.50297,-2.16679 -3.05437,8.45834 -0.83373,-14.63388 -4.72347,-8.142542 -0.55593,6.457832 c 0,0 -5.001309,-5.046392 -8.885929,-6.457832 0,0 -6.38344,9.200802 -20.55381,9.664832"
       style="fill:#2e1914;fill-opacity:1;fill-rule:nonzero;stroke:none;stroke-width:0.128899"
       id="path4108" />
    <path
       d="m 79.180891,121.13807 -0.007,-0.17787 c 0,4.88011 3.95759,8.68907 8.83807,8.68907 4.88062,0 8.83821,-3.7342 8.83821,-8.6156 l -0.007,0.10439 h -17.66416"
       style="fill:#c2212b;fill-opacity:1;fill-rule:nonzero;stroke:none;stroke-width:0.128899"
       id="path4110" />
    <path
       d="m 79.180891,121.13807 -0.007,0.0285 c 0,0.83527 0.12386,1.14462 0.34163,2.3176 h 16.99335 c 0.21777,-1.17298 0.34163,-1.48233 0.34163,-2.3176 l -0.007,-0.0285 h -17.66416"
       style="fill:#edecec;fill-opacity:1;fill-rule:nonzero;stroke:none;stroke-width:0.128899"
       id="path4112" />
    <path
       d="m 93.876901,127.26334 c -1.56149,-1.38824 -3.61121,-2.23897 -5.86452,-2.23897 -2.25364,0 -4.30339,0.85073 -5.86434,2.23897 1.56095,1.38824 3.6107,2.23768 5.86434,2.23768 2.25331,0 4.30303,-0.84944 5.86452,-2.23768"
       style="fill:#f26181;fill-opacity:1;fill-rule:nonzero;stroke:none;stroke-width:0.128899"
       id="path4114" />
    <path
       d="m 86.987261,110.73078 c -1.24565,1.21552 -1.80304,3.07037 -1.38618,4.76539 0.50002,2.03402 2.59965,2.47357 4.35692,1.86259 1.14551,-0.39701 0.65312,-2.22608 -0.50298,-1.82392 -0.93761,0.32482 -1.7971,0.39959 -2.06792,-0.7025 -0.23859,-0.96932 0.25577,-2.09719 0.93801,-2.76359 0.87509,-0.85331 -0.46469,-2.19128 -1.33785,-1.33797"
       style="fill:#c8755a;fill-opacity:1;fill-rule:nonzero;stroke:none;stroke-width:0.128899"
       id="path4116" />
    <path
       d="m 100.22661,107.97751 c 0,1.49522 -1.255779,2.70687 -2.802549,2.70687 -1.54834,0 -2.80251,-1.21165 -2.80251,-2.70687 0,-1.49523 1.25417,-2.70688 2.80251,-2.70688 1.54677,0 2.802549,1.21165 2.802549,2.70688"
       style="fill:#100f0d;fill-opacity:1;fill-rule:nonzero;stroke:none;stroke-width:0.128899"
       id="path4118" />
    <path
       d="m 81.386221,107.97751 c 0,1.49522 -1.25421,2.70687 -2.802,2.70687 -1.54732,0 -2.80303,-1.21165 -2.80303,-2.70687 0,-1.49523 1.25571,-2.70688 2.80303,-2.70688 1.54779,0 2.802,1.21165 2.802,2.70688"
       style="fill:#100f0d;fill-opacity:1;fill-rule:nonzero;stroke:none;stroke-width:0.128899"
       id="path4120" />
    <path
       d="m 92.744001,101.41656 c 0,0 5.68804,-5.618702 9.085319,-1.424342 v 1.424342 c 0,0 -6.663059,-0.85976 -9.085319,1.71951 0,0 -0.90034,-1.45141 -0.0329,-2.34983"
       style="fill:#100f0d;fill-opacity:1;fill-rule:nonzero;stroke:none;stroke-width:0.128899"
       id="path4122" />
    <path
       d="m 73.316001,101.95922 c 0,0 3.92935,-4.615862 7.79333,0 l 0.90129,-0.63805 v 2.63727 c 0,0 -4.95501,-2.49161 -8.0255,-0.21912 l -0.66912,-1.78009"
       style="fill:#100f0d;fill-opacity:1;fill-rule:nonzero;stroke:none;stroke-width:0.128899"
       id="path4124" />
    <path
       d="m 82.525701,101.1304 -0.51508,2.82804 1.34738,-2.82804 -0.83332,-0.34415"
       style="fill:#100f0d;fill-opacity:1;fill-rule:nonzero;stroke:none;stroke-width:0.128899"
       id="path4126" />
    <path
       d="m 221.29953,190.62998 c 0.17283,-0.25522 0.21265,-0.59294 -0.0464,-0.88167 -0.91134,-1.02732 -2.09718,-1.46429 -3.35008,-1.4514 -0.18415,-0.0374 -0.37254,-0.0696 -0.56199,-0.0967 -2.12426,-0.6084 -4.32327,-0.47692 -5.11728,0.81851 -0.80048,0.46532 -1.47589,1.11368 -1.92446,1.9786 -0.1805,0.34674 0.004,0.71152 0.30144,0.90873 0.23969,0.32483 0.68446,0.48337 1.07115,0.13793 0.48596,-0.43181 1.01313,-0.74632 1.58546,-1.03763 0.21521,-0.0179 0.43181,-0.0451 0.64706,-0.0709 0.40086,0.0528 0.80047,0.14181 1.19231,0.24364 0.13409,0.0347 0.34821,0.14564 0.56327,0.29 0.19585,0.48724 0.10048,1.18459 -0.0902,1.81232 -0.19475,0.63547 0.39056,1.27352 1.04408,0.98092 1.31607,-0.58262 1.5661,-2.11652 0.80304,-3.29981 -0.0775,-0.11988 -0.17794,-0.21912 -0.27185,-0.32482 -0.0632,-0.16497 -0.14323,-0.32355 -0.24225,-0.46662 1.23485,0.33257 2.07658,0.69735 2.86412,1.967 0.35077,0.562 0.7141,0.85202 1.34702,1.00541 0.53747,0.13018 0.87004,-0.45244 0.84812,-0.89455 -0.0292,-0.57748 -0.28207,-1.11885 -0.66251,-1.61897"
       style="fill:#c1826c;fill-opacity:1;fill-rule:nonzero;stroke:none;stroke-width:0.128899"
       id="path4128" />
    <path
       d="m 224.78622,188.61916 c -3.65297,-0.82753 -5.62772,-3.46996 -9.52561,-3.06006 -1.6254,0.17016 -3.05232,0.1508 -4.30262,-0.22558 l -0.0183,-0.023 c -0.99767,-0.70895 -2.08688,-1.3354 -2.92214,-2.24413 l -0.14688,-0.10571 c -0.14579,-0.23074 -0.285,-0.47435 -0.41632,-0.74245 -0.85207,-1.72725 -1.21687,-3.70327 -1.9503,-5.48465 -0.34163,-0.83011 -1.50164,-0.39056 -1.45911,0.37638 -2.83321,1.45656 -1.99663,5.67155 -0.73087,7.90279 1.36506,2.40268 0.96289,5.03092 2.57798,7.27505 1.5391,2.13714 5.82755,1.65248 6.72598,4.23303 0.22544,0.64321 1.21292,0.5504 1.42689,-0.0451 0.33761,-0.94354 0.62258,-1.65764 -0.0913,-2.58184 -0.61483,-0.79402 -1.28381,-1.45269 -1.9902,-2.16293 0.58004,-1.02861 1.16268,-2.05593 1.74272,-3.08196 1.57257,-0.69477 3.15029,-0.75535 4.73316,-0.17919 1.99922,0.50657 4.48053,2.69527 6.58673,1.62283 0.72572,-0.36864 0.48855,-1.30702 -0.23859,-1.47331"
       style="fill:#e29675;fill-opacity:1;fill-rule:nonzero;stroke:none;stroke-width:0.128899"
       id="path4130" />
    <path
       d="m 191.50588,140.40844 c 0,0 4.99612,66.42798 18.26367,86.51428 l -32.1074,11.85228 -8.05491,-99.61688 12.09329,-0.54653 c 0,0 7.13068,-1.23614 9.80535,1.79685"
       style="fill:#6d1232;fill-opacity:1;fill-rule:nonzero;stroke:none;stroke-width:0.128899"
       id="path4132" />
    <path
       d="m 191.89128,158.61797 10.25001,22.45416 3.97137,-2.60633 -15.0953,-38.24942 0.87392,18.40159"
       style="fill:#e29675;fill-opacity:1;fill-rule:nonzero;stroke:none;stroke-width:0.128899"
       id="path4134" />
    <path
       d="m 132.72672,190.62998 c -0.17283,-0.25522 -0.21156,-0.59294 0.0464,-0.88167 0.91262,-1.02732 2.09718,-1.46429 3.35011,-1.4514 0.18562,-0.0374 0.37251,-0.0696 0.562,-0.0967 2.12553,-0.6084 4.32327,-0.47692 5.11728,0.81851 0.80044,0.46532 1.47588,1.11368 1.92574,1.9786 0.1805,0.34674 -0.007,0.71152 -0.3029,0.90873 -0.23969,0.32483 -0.68447,0.48337 -1.06988,0.13793 -0.48595,-0.43181 -1.01444,-0.74632 -1.58546,-1.03763 -0.21667,-0.0179 -0.43181,-0.0451 -0.64705,-0.0709 -0.4009,0.0528 -0.80048,0.14181 -1.1936,0.24364 -0.13263,0.0347 -0.34674,0.14564 -0.56199,0.29 -0.1973,0.48724 -0.10194,1.18459 0.0902,1.81232 0.19475,0.63547 -0.39183,1.27352 -1.04536,0.98092 -1.31606,-0.58262 -1.56485,-2.11652 -0.80303,-3.29981 0.0786,-0.11988 0.17794,-0.21912 0.2733,-0.32482 0.0617,-0.16497 0.14323,-0.32355 0.24116,-0.46662 -1.23353,0.33257 -2.07654,0.69735 -2.86284,1.967 -0.35077,0.562 -0.71542,0.85202 -1.34702,1.00541 -0.53751,0.13018 -0.87005,-0.45244 -0.84944,-0.89455 0.0292,-0.57748 0.28354,-1.11885 0.66255,-1.61897"
       style="fill:#c1826c;fill-opacity:1;fill-rule:nonzero;stroke:none;stroke-width:0.128899"
       id="path4136" />
    <path
       d="m 129.24131,188.61916 c 3.65297,-0.82753 5.62772,-3.46996 9.52692,-3.06006 1.62412,0.17016 3.05101,0.1508 4.30007,-0.22558 l 0.0219,-0.023 c 0.9964,-0.70895 2.08556,-1.3354 2.92082,-2.24413 l 0.14689,-0.10571 c 0.14579,-0.23074 0.28609,-0.47435 0.41763,-0.74245 0.85075,-1.72725 1.21679,-3.70327 1.95022,-5.48465 0.34164,-0.83011 1.50041,-0.39056 1.45915,0.37638 2.83317,1.45656 1.99663,5.67155 0.73084,7.90279 -1.36503,2.40268 -0.96285,5.03092 -2.57923,7.27505 -1.53778,2.13714 -5.82623,1.65248 -6.72466,4.23303 -0.22544,0.64321 -1.2142,0.5504 -1.42817,-0.0451 -0.33652,-0.94354 -0.6213,-1.65764 0.0928,-2.58184 0.61355,-0.79402 1.28252,-1.45269 1.99016,-2.16293 -0.58132,-1.02861 -1.16265,-2.05593 -1.74397,-3.08196 -1.57257,-0.69477 -3.15028,-0.75535 -4.73315,-0.17919 -1.99926,0.50657 -4.48057,2.69527 -6.58549,1.62283 -0.72697,-0.36864 -0.4898,-1.30702 0.23859,-1.47331"
       style="fill:#e29675;fill-opacity:1;fill-rule:nonzero;stroke:none;stroke-width:0.128899"
       id="path4138" />
    <path
       d="m 162.13501,158.61797 -10.24878,22.45416 -3.97264,-2.60633 15.09534,-38.24942 -0.87392,18.40159"
       style="fill:#e29675;fill-opacity:1;fill-rule:nonzero;stroke:none;stroke-width:0.128899"
       id="path4140" />
    <path
       d="m 177.9496,197.72586 3.28949,25.86612 v 25.73461 h 5.6393 l 3.76,-25.73461 v -3.2663 -3.02912 l 3.28821,-19.5707 h -15.977"
       style="fill:#f4a272;fill-opacity:1;fill-rule:nonzero;stroke:none;stroke-width:0.128899"
       id="path4142" />
    <path
       d="m 186.9712,249.32659 10.33898,1.89612 h -16.43073 l 0.45245,-1.89612 h 5.6393"
       style="fill:#141413;fill-opacity:1;fill-rule:nonzero;stroke:none;stroke-width:0.128899"
       id="path4144" />
    <path
       d="m 178.92407,197.72586 -3.28949,25.86612 v 25.73461 h -5.63938 l -3.75996,-25.73461 v -3.2663 -3.02912 l -3.28949,-19.5707 h 15.97832"
       style="fill:#f4a272;fill-opacity:1;fill-rule:nonzero;stroke:none;stroke-width:0.128899"
       id="path4146" />
    <path
       d="m 169.9024,249.32659 -10.34023,1.89612 h 16.43202 l -0.45242,-1.89612 h -5.63937"
       style="fill:#141413;fill-opacity:1;fill-rule:nonzero;stroke:none;stroke-width:0.128899"
       id="path4148" />
    <path
       d="m 181.70053,138.61159 -0.78758,-4.51017 h -7.64108 l -0.78502,4.51017 -9.02419,1.39726 4.99739,8.87726 7.98399,6.78652 4.20467,-6.05953 4.1093,-2.27507 5.96416,-7.32918 -9.02164,-1.39726"
       style="fill:#e29675;fill-opacity:1;fill-rule:nonzero;stroke:none;stroke-width:0.128899"
       id="path4150" />
    <path
       d="m 192.568,171.99122 -0.41891,-8.73418 3.00589,-6.90769 -3.6491,-15.94091 c -1.98892,-1.48105 -6.79943,-1.25032 -6.79943,-1.25032 0.25394,2.14229 -5.54134,2.28924 -7.67334,2.95307 -2.16291,-0.66383 -7.67853,-0.81078 -7.42587,-2.95307 0,0 -4.93809,-0.23074 -6.92701,1.25032 l -3.65042,15.94091 3.0072,6.90769 -0.42019,8.73418 -3.31142,12.18738 3.59627,31.98236 h 14.50887 1.62152 14.25237 l 3.59499,-31.98236 -3.31142,-12.18738"
       style="fill:#e29675;fill-opacity:1;fill-rule:nonzero;stroke:none;stroke-width:0.128899"
       id="path4152" />
    <path
       d="m 175.20661,177.04276 c 0,-0.49884 0.40345,-0.90358 0.90231,-0.90358 0.49881,0 0.90358,0.40474 0.90358,0.90358 0,0.49626 -0.40477,0.901 -0.90358,0.901 -0.49886,0 -0.90231,-0.40474 -0.90231,-0.901"
       style="fill:#646b85;fill-opacity:1;fill-rule:nonzero;stroke:none;stroke-width:0.128899"
       id="path4154" />
    <path
       d="m 196.06887,184.18891 -2.95948,-9.08737 h -32.03395 l -2.77004,9.65065 3.59627,31.40877 h 14.50887 1.62152 14.25237 l 3.78444,-30.50003 v -1.47202"
       style="fill:#434147;fill-opacity:1;fill-rule:nonzero;stroke:none;stroke-width:0.128899"
       id="path4156" />
    <path
       d="m 195.06349,194.31133 0.11327,-1.45656 0.0683,-0.55555 0.31058,1.27481 c -0.10962,0.23844 -0.27733,0.48595 -0.49239,0.7373"
       style="fill:#60112d;fill-opacity:1;fill-rule:nonzero;stroke:none;stroke-width:0.128899"
       id="path4158" />
    <path
       d="m 195.1769,192.85477 0.049,-0.63676 0.0183,0.0812 -0.0683,0.55555"
       style="fill:#3c3a3f;fill-opacity:1;fill-rule:nonzero;stroke:none;stroke-width:0.128899"
       id="path4160" />
    <path
       d="m 161.13733,174.66715 -2.83193,10.07344 2.83193,36.76967 14.49725,6.50294 0.35953,-8.216 2.03788,-4.01907 v -41.11098 h -16.89473"
       style="fill:#da4b98;fill-opacity:1;fill-rule:nonzero;stroke:none;stroke-width:0.128899"
       id="path4162" />
    <path
       d="m 192.96886,174.66715 2.83193,10.07344 -2.83193,36.76967 -14.49596,6.50294 -0.35954,-8.216 -2.03919,-4.01907 v -41.11098 h 16.89477"
       style="fill:#da4b98;fill-opacity:1;fill-rule:nonzero;stroke:none;stroke-width:0.128899"
       id="path4164" />
    <path
       d="m 172.07054,174.66715 1.47201,42.62554 2.45164,2.50451 h 2.1191 l 3.41708,-3.03042 0.7296,-42.09963 h -10.18943"
       style="fill:#be4e8f;fill-opacity:1;fill-rule:nonzero;stroke:none;stroke-width:0.128899"
       id="path4166" />
    <path
       d="m 184.13544,174.66715 -2.60507,42.09963 0.7296,-42.09963 h 1.87547"
       style="fill:#62121d;fill-opacity:1;fill-rule:nonzero;stroke:none;stroke-width:0.128899"
       id="path4168" />
    <path
       d="m 170.81761,174.66715 2.72494,41.11098 -1.47201,-41.11098 h -1.25293"
       style="fill:#62121d;fill-opacity:1;fill-rule:nonzero;stroke:none;stroke-width:0.128899"
       id="path4170" />
    <path
       d="m 178.11329,219.7972 v 0 l 2.3756,-2.10621 v 0 l -2.3756,2.10621"
       style="fill:#cdccca;fill-opacity:1;fill-rule:nonzero;stroke:none;stroke-width:0.128899"
       id="path4172" />
    <path
       d="m 178.11329,219.7972 v 0 l 2.3756,-2.10621 v 0 l -2.3756,2.10621"
       style="fill:#da4b98;fill-opacity:1;fill-rule:nonzero;stroke:none;stroke-width:0.128899"
       id="path4174" />
    <path
       d="m 178.11329,219.7972 h -2.1191 l -2.45164,-2.50451 v -17.81123 l 2.09203,17.81123 0.29523,-24.99992 0.7708,0.48209 0.0515,-0.0285 0.91002,22.24148 c 0,0 1.14204,-20.02701 1.70531,-20.02701 0.011,0 0.0219,0.008 0.0329,0.0245 0.54909,0.82882 1.0866,22.61529 1.0892,22.70552 l -2.3756,2.1062"
       style="fill:#964071;fill-opacity:1;fill-rule:nonzero;stroke:none;stroke-width:0.128899"
       id="path4176" />
    <path
       d="m 185.93742,138.21716 -25.71398,12.92339 -1.19363,5.2088 3.0072,6.90769 -3.73161,20.7295 16.90121,6.87159 1.69372,-5.55425 1.33671,5.55425 17.64238,-6.87159 -3.31142,-11.99532 -0.41891,-8.73418 3.00589,-6.90769 -3.6491,-15.94091 c 0,0 -2.35755,-1.4875 -5.56846,-2.19128"
       style="fill:#3774c0;fill-opacity:1;fill-rule:nonzero;stroke:none;stroke-width:0.128899"
       id="path4178" />
    <path
       d="m 159.9824,174.66715 16.91793,10.63673 -1.69372,5.55425 -16.90121,-6.87159 1.677,-9.31939"
       style="fill:#fab51b;fill-opacity:1;fill-rule:nonzero;stroke:none;stroke-width:0.128899"
       id="path4180" />
    <path
       d="m 194.57881,174.66715 -16.91666,10.63673 1.69241,5.55425 16.90124,-6.87159 -1.67699,-9.31939"
       style="fill:#fab51b;fill-opacity:1;fill-rule:nonzero;stroke:none;stroke-width:0.128899"
       id="path4182" />
    <path
       d="m 171.73409,189.67742 0.1984,-5.85072 5.16756,-2.75457 4.96773,3.09744 -0.1984,5.84814 -5.16884,2.75715 -4.96645,-3.09744"
       style="fill:#dd9d17;fill-opacity:1;fill-rule:nonzero;stroke:none;stroke-width:0.128899"
       id="path4184" />
    <path
       d="m 158.3054,174.66715 27.63202,-36.44999 5.56846,2.19128 2.05205,8.96362 -21.43328,33.46599 -13.81925,-8.1709"
       style="fill:#cf3d7f;fill-opacity:1;fill-rule:nonzero;stroke:none;stroke-width:0.128899"
       id="path4186" />
    <path
       d="m 192.27281,148.9222 -8.58208,-5.8765 c 0,0 1.53647,5.62901 8.58208,5.8765"
       style="fill:#cd4a86;fill-opacity:1;fill-rule:nonzero;stroke:none;stroke-width:0.128899"
       id="path4188" />
    <path
       d="m 187.98177,155.23953 -8.58208,-5.8765 c 0,0 1.53646,5.62772 8.58208,5.8765"
       style="fill:#cd4a86;fill-opacity:1;fill-rule:nonzero;stroke:none;stroke-width:0.128899"
       id="path4190" />
    <path
       d="m 183.69073,161.55815 -8.58208,-5.87907 c 0,0 1.53646,5.629 8.58208,5.87907"
       style="fill:#cd4a86;fill-opacity:1;fill-rule:nonzero;stroke:none;stroke-width:0.128899"
       id="path4192" />
    <path
       d="m 179.39969,167.87548 -8.58208,-5.87907 c 0,0 1.5365,5.629 8.58208,5.87907"
       style="fill:#cd4a86;fill-opacity:1;fill-rule:nonzero;stroke:none;stroke-width:0.128899"
       id="path4194" />
    <path
       d="m 175.10865,174.19152 -8.58209,-5.87779 c 0,0 1.53647,5.62772 8.58209,5.87779"
       style="fill:#cd4a86;fill-opacity:1;fill-rule:nonzero;stroke:none;stroke-width:0.128899"
       id="path4196" />
    <path
       d="m 172.12465,182.83805 9.02547,-18.41835 2.64631,0.19336 -11.67178,18.225"
       style="fill:#ba3a72;fill-opacity:1;fill-rule:nonzero;stroke:none;stroke-width:0.128899"
       id="path4198" />
    <path
       d="m 181.53169,163.64244 1.06341,-2.17065 c 0.3493,0.0438 0.71538,0.0735 1.09563,0.0864 l -0.85203,-0.58391 2.94662,-6.01184 c 0.66514,0.1508 1.39469,0.24879 2.19645,0.27714 l -1.7466,-1.19617 2.79199,-5.69733 c 0.9242,0.31967 1.99923,0.53235 3.24565,0.57618 l -2.64112,-1.80845 1.09048,-2.22738 -4.78475,-6.66921 5.56846,2.19127 2.05205,8.96362 -9.08737,14.18918 -2.93887,0.0812"
       style="fill:#ba3a72;fill-opacity:1;fill-rule:nonzero;stroke:none;stroke-width:0.128899"
       id="path4200" />
    <path
       d="m 192.27281,148.9222 c -1.24642,-0.0438 -2.32145,-0.2565 -3.24565,-0.57618 l 0.60453,-1.23227 2.64112,1.80845"
       style="fill:#b74478;fill-opacity:1;fill-rule:nonzero;stroke:none;stroke-width:0.128899"
       id="path4202" />
    <path
       d="m 187.98177,155.23953 c -0.80176,-0.0285 -1.53131,-0.12631 -2.19645,-0.27714 l 0.44985,-0.91905 1.7466,1.19618"
       style="fill:#b74478;fill-opacity:1;fill-rule:nonzero;stroke:none;stroke-width:0.128899"
       id="path4204" />
    <path
       d="m 183.69073,161.55815 c -0.38025,-0.0128 -0.74633,-0.0425 -1.09563,-0.0864 l 0.24371,-0.49755 0.85203,0.58391"
       style="fill:#b74478;fill-opacity:1;fill-rule:nonzero;stroke:none;stroke-width:0.128899"
       id="path4206" />
    <path
       d="m 193.34784,174.81668 -0.77984,-2.82546 -0.23457,-4.89558 0.66127,4.64164 0.56327,2.92987 -0.2101,0.14952"
       style="fill:#551127;fill-opacity:1;fill-rule:nonzero;stroke:none;stroke-width:0.128899"
       id="path4208" />
    <path
       d="m 192.15425,163.37949 -0.004,-0.12244 0.90743,-2.08687 0.0219,0.0464 -0.92292,2.16292"
       style="fill:#551127;fill-opacity:1;fill-rule:nonzero;stroke:none;stroke-width:0.128899"
       id="path4210" />
    <path
       d="m 193.07716,161.21657 -0.0219,-0.0464 2.09846,-4.82081 -2.07782,4.86722"
       style="fill:#b2785d;fill-opacity:1;fill-rule:nonzero;stroke:none;stroke-width:0.128899"
       id="path4212" />
    <path
       d="m 195.15498,156.34935 -0.11985,-0.52075 0.001,-0.003 0.11875,0.52333"
       style="fill:#b2785d;fill-opacity:1;fill-rule:nonzero;stroke:none;stroke-width:0.128899"
       id="path4214" />
    <path
       d="m 186.00703,180.05641 5.88425,-10.25519 -2.7971,-4.80019 -5.29775,-0.38798 0.67413,-1.05181 5.21784,-0.14437 5.34673,-7.58827 0.11985,0.52075 -2.09846,4.82082 -0.90743,2.08687 0.004,0.12244 -0.26308,0.61484 0.44212,3.10131 0.23457,4.89557 0.77983,2.82547 -7.33437,5.23586 -0.007,0.004"
       style="fill:#cdccca;fill-opacity:1;fill-rule:nonzero;stroke:none;stroke-width:0.128899"
       id="path4216" />
    <path
       d="m 186.00703,180.05641 5.88425,-10.25519 -2.7971,-4.80019 -5.29775,-0.38798 0.67413,-1.05181 5.21784,-0.14437 5.34673,-7.58827 0.11985,0.52075 -2.09846,4.82082 -0.90743,2.08687 0.004,0.12244 -0.26308,0.61484 0.44212,3.10131 0.23457,4.89557 0.77983,2.82547 -7.33437,5.23586 -0.007,0.004"
       style="fill:#3774c0;fill-opacity:1;fill-rule:nonzero;stroke:none;stroke-width:0.128899"
       id="path4218" />
    <path
       d="m 186.00703,180.0577 v -0.001 l 0.007,-0.004 -0.007,0.005"
       style="fill:#cdccca;fill-opacity:1;fill-rule:nonzero;stroke:none;stroke-width:0.128899"
       id="path4220" />
    <path
       d="m 186.00703,180.0577 v -0.001 l 0.007,-0.004 -0.007,0.005"
       style="fill:#fab51b;fill-opacity:1;fill-rule:nonzero;stroke:none;stroke-width:0.128899"
       id="path4222" />
    <path
       d="m 181.15012,164.4197 -7.60757,-0.55684 h 0.001 l 7.98786,-0.2204 -0.38157,0.77726"
       style="fill:#a53564;fill-opacity:1;fill-rule:nonzero;stroke:none;stroke-width:0.128899"
       id="path4224" />
    <path
       d="m 183.79643,164.61305 -2.64631,-0.19336 0.38157,-0.77726 2.93887,-0.0812 -0.67413,1.05181"
       style="fill:#923158;fill-opacity:1;fill-rule:nonzero;stroke:none;stroke-width:0.128899"
       id="path4226" />
    <path
       d="m 166.24942,164.18897 -4.21241,-0.93193 -0.98605,-2.26476 -2.02115,-4.64293 1.19363,-5.2088 24.88647,-12.50705 -25.18681,14.42378 6.60346,8.50087 1.19619,0.68703 -1.47333,1.94379"
       style="fill:#cdccca;fill-opacity:1;fill-rule:nonzero;stroke:none;stroke-width:0.128899"
       id="path4228" />
    <path
       d="m 166.24942,164.18897 -4.21241,-0.93193 -0.98605,-2.26476 -2.02115,-4.64293 1.19363,-5.2088 24.88647,-12.50705 -25.18681,14.42378 6.60346,8.50087 1.19619,0.68703 -1.47333,1.94379"
       style="fill:#3774c0;fill-opacity:1;fill-rule:nonzero;stroke:none;stroke-width:0.128899"
       id="path4230" />
    <path
       d="m 173.43041,165.77701 -7.18099,-1.58804 1.47333,-1.94379 4.99228,2.86671 c 0.21521,0.22559 0.45242,0.44857 0.71538,0.66512"
       style="fill:#a53564;fill-opacity:1;fill-rule:nonzero;stroke:none;stroke-width:0.128899"
       id="path4232" />
    <path
       d="m 174.15094,165.93684 -0.72053,-0.15982 c -0.26307,-0.21656 -0.50013,-0.43954 -0.71538,-0.66511 l 1.43591,0.82494"
       style="fill:#a23e6a;fill-opacity:1;fill-rule:nonzero;stroke:none;stroke-width:0.128899"
       id="path4234" />
    <path
       d="m 196.05985,184.15926 -0.0256,-0.0812 0.22288,-0.0915 -0.19584,0.17272"
       style="fill:#551127;fill-opacity:1;fill-rule:nonzero;stroke:none;stroke-width:0.128899"
       id="path4236" />
    <path
       d="m 195.75051,184.56013 -0.0928,-0.32997 0.3751,-0.15211 0.0256,0.0812 -0.29889,0.26037 -0.011,0.14049"
       style="fill:#363437;fill-opacity:1;fill-rule:nonzero;stroke:none;stroke-width:0.128899"
       id="path4238" />
    <path
       d="m 178.4729,228.0132 13.79991,-16.18839 0.98482,-9.88139 -10.99766,17.85378 11.29796,-21.37916 1.17039,-12.48384 -11.49907,3.38617 0.003,-0.0387 12.42586,-5.05154 0.0928,0.32997 -2.78165,36.95013 -2.33047,1.04537 -9.3993,4.21756 -2.76619,1.24001"
       style="fill:#cdccca;fill-opacity:1;fill-rule:nonzero;stroke:none;stroke-width:0.128899"
       id="path4240" />
    <path
       d="m 178.4729,228.0132 13.79991,-16.18839 0.98482,-9.88139 -10.99766,17.85378 11.29796,-21.37916 1.17039,-12.48384 -11.49907,3.38617 0.003,-0.0387 12.42586,-5.05154 0.0928,0.32997 -2.78165,36.95013 -2.33047,1.04537 -9.3993,4.21756 -2.76619,1.24001"
       style="fill:#da4b98;fill-opacity:1;fill-rule:nonzero;stroke:none;stroke-width:0.128899"
       id="path4242" />
    <path
       d="m 182.90059,189.41704 0.007,-0.004 0.32227,-0.13146 -0.003,0.0387 -0.32884,0.0967"
       style="fill:#48141b;fill-opacity:1;fill-rule:nonzero;stroke:none;stroke-width:0.128899"
       id="path4244" />
    <path
       d="m 182.90962,189.41317 11.24385,-5.27453 0.42534,-9.47149 1.67699,9.31939 -0.22288,0.0915 -0.3751,0.15211 -12.42586,5.05155 -0.32227,0.13146"
       style="fill:#cdccca;fill-opacity:1;fill-rule:nonzero;stroke:none;stroke-width:0.128899"
       id="path4246" />
    <path
       d="m 182.90962,189.41317 11.24385,-5.27453 0.42534,-9.47149 1.67699,9.31939 -0.22288,0.0915 -0.3751,0.15211 -12.42586,5.05155 -0.32227,0.13146"
       style="fill:#fab51b;fill-opacity:1;fill-rule:nonzero;stroke:none;stroke-width:0.128899"
       id="path4248" />
    <path
       d="m 175.63458,228.0132 -14.49725,-6.50294 -1.69632,-22.48768 c 0.6806,1.09564 1.48232,2.1887 2.2931,3.20442 l 2.83189,15.06569 11.06858,10.72051 m -14.40704,-28.48018 c -0.47046,-1.56483 -0.49366,-2.5986 -0.49366,-2.5986 0.003,0.005 0.004,0.009 0.007,0.0143 l 0.48596,2.58442"
       style="fill:#cdccca;fill-opacity:1;fill-rule:nonzero;stroke:none;stroke-width:0.128899"
       id="path4250" />
    <path
       d="m 175.63458,228.0132 -14.49725,-6.50294 -1.69632,-22.48768 c 0.6806,1.09564 1.48232,2.1887 2.2931,3.20442 l 2.83189,15.06569 11.06858,10.72051 m -14.40704,-28.48018 c -0.47046,-1.56483 -0.49366,-2.5986 -0.49366,-2.5986 0.003,0.005 0.004,0.009 0.007,0.0143 l 0.48596,2.58442"
       style="fill:#da4b98;fill-opacity:1;fill-rule:nonzero;stroke:none;stroke-width:0.128899"
       id="path4252" />
    <path
       d="m 158.35053,184.58076 -0.001,-0.0128 0.001,0.0117 v 0.001 m -0.0329,-0.4447 -0.011,-0.14952 0.0219,0.11342 -0.011,0.0362"
       style="fill:#a3a5a5;fill-opacity:1;fill-rule:nonzero;stroke:none;stroke-width:0.128899"
       id="path4254" />
    <path
       d="m 158.35053,184.57947 -0.001,-0.0117 -0.0329,-0.43181 0.011,-0.0362 0.0632,0.339 -0.0398,0.14049"
       style="fill:#b2785d;fill-opacity:1;fill-rule:nonzero;stroke:none;stroke-width:0.128899"
       id="path4256" />
    <path
       d="m 158.66246,185.88522 c -0.0902,-0.14824 -0.17137,-0.28617 -0.24481,-0.41248 l -0.0669,-0.89198 v -0.001 l 0.0398,-0.14049 0.27185,1.44625"
       style="fill:#cdccca;fill-opacity:1;fill-rule:nonzero;stroke:none;stroke-width:0.128899"
       id="path4258" />
    <path
       d="m 158.66246,185.88522 c -0.0902,-0.14824 -0.17137,-0.28617 -0.24481,-0.41248 l -0.0669,-0.89198 v -0.001 l 0.0398,-0.14049 0.27185,1.44625"
       style="fill:#da4b98;fill-opacity:1;fill-rule:nonzero;stroke:none;stroke-width:0.128899"
       id="path4260" />
    <path
       d="m 166.28552,207.25148 c -0.73343,-0.65223 -1.3689,-1.31606 -1.92187,-1.9786 1.11884,1.20907 1.92187,1.9786 1.92187,1.9786 m -1.92187,-1.9786 c -0.77855,-0.84042 -1.70922,-1.89223 -2.62954,-3.04588 l -0.50657,-2.69398 c 0.46663,1.55323 1.37406,3.63108 3.13611,5.73986 m 5.75918,-3.23407 c -1.20393,0 -6.69112,-0.27199 -9.38124,-5.09022 l -2.07913,-11.06337 c 1.73625,2.87444 6.52356,9.74603 13.68518,11.85224 l 0.0146,0.24232 c -3.26118,-0.44728 -8.84637,-1.53777 -10.74244,-3.91079 0,0 1.6228,5.67928 8.73803,7.96594 0,0 -0.0837,0.004 -0.23604,0.004"
       style="fill:#e8e7e6;fill-opacity:1;fill-rule:nonzero;stroke:none;stroke-width:0.128899"
       id="path4262" />
    <path
       d="m 166.28552,207.25148 c -0.73343,-0.65223 -1.3689,-1.31606 -1.92187,-1.9786 1.11884,1.20907 1.92187,1.9786 1.92187,1.9786 m -1.92187,-1.9786 c -0.77855,-0.84042 -1.70922,-1.89223 -2.62954,-3.04588 l -0.50657,-2.69398 c 0.46663,1.55323 1.37406,3.63108 3.13611,5.73986 m 5.75918,-3.23407 c -1.20393,0 -6.69112,-0.27199 -9.38124,-5.09022 l -2.07913,-11.06337 c 1.73625,2.87444 6.52356,9.74603 13.68518,11.85224 l 0.0146,0.24232 c -3.26118,-0.44728 -8.84637,-1.53777 -10.74244,-3.91079 0,0 1.6228,5.67928 8.73803,7.96594 0,0 -0.0837,0.004 -0.23604,0.004"
       style="fill:#da4b98;fill-opacity:1;fill-rule:nonzero;stroke:none;stroke-width:0.128899"
       id="path4264" />
    <path
       d="m 174.80834,198.25047 c 0,0 -0.7502,-0.0541 -1.89998,-0.19979 l -0.007,-0.15981 c 0.6187,0.15726 1.25417,0.27842 1.90641,0.3596"
       style="fill:#aa4780;fill-opacity:1;fill-rule:nonzero;stroke:none;stroke-width:0.128899"
       id="path4266" />
    <path
       d="m 172.90836,198.05068 c -0.17393,-0.0219 -0.35589,-0.0451 -0.54523,-0.0709 l -0.0146,-0.24232 c 0.18305,0.0541 0.36739,0.1057 0.55428,0.15338 l 0.007,0.15982"
       style="fill:#56111b;fill-opacity:1;fill-rule:nonzero;stroke:none;stroke-width:0.128899"
       id="path4268" />
    <path
       d="m 159.40104,198.95813 c -0.0183,-0.0259 -0.0329,-0.0528 -0.0501,-0.0799 l -1.41403,-14.27554 c 0,0 0.14031,0.2797 0.41636,0.75921 l 1.04791,13.59624"
       style="fill:#babbb9;fill-opacity:1;fill-rule:nonzero;stroke:none;stroke-width:0.128899"
       id="path4270" />
    <path
       d="m 159.44101,199.02258 c -0.0146,-0.0219 -0.0256,-0.0425 -0.0398,-0.0645 l -1.04791,-13.59624 c 0.0219,0.0347 0.0424,0.0722 0.0643,0.11086 l 1.02347,13.54984"
       style="fill:#e8e7e6;fill-opacity:1;fill-rule:nonzero;stroke:none;stroke-width:0.128899"
       id="path4272" />
    <path
       d="m 159.44101,199.02258 c -0.0146,-0.0219 -0.0256,-0.0425 -0.0398,-0.0645 l -1.04791,-13.59624 c 0.0219,0.0347 0.0424,0.0722 0.0643,0.11086 l 1.02347,13.54984"
       style="fill:#da4b98;fill-opacity:1;fill-rule:nonzero;stroke:none;stroke-width:0.128899"
       id="path4274" />
    <path
       d="m 161.73411,202.227 c -0.81078,-1.01572 -1.6125,-2.10878 -2.2931,-3.20442 l -1.02347,-13.54984 c 0.0734,0.12631 0.15456,0.26424 0.24481,0.41248 l 2.07913,11.06337 c -0.003,-0.005 -0.004,-0.009 -0.007,-0.0143 0,0 0.0219,1.03378 0.49367,2.59861 l 0.50656,2.69398"
       style="fill:#b6b5b4;fill-opacity:1;fill-rule:nonzero;stroke:none;stroke-width:0.128899"
       id="path4276" />
    <path
       d="m 161.73411,202.227 c -0.81078,-1.01572 -1.6125,-2.10878 -2.2931,-3.20442 l -1.02347,-13.54984 c 0.0734,0.12631 0.15456,0.26424 0.24481,0.41248 l 2.07913,11.06337 c -0.003,-0.005 -0.004,-0.009 -0.007,-0.0143 0,0 0.0219,1.03378 0.49367,2.59861 l 0.50656,2.69398"
       style="fill:#da4b98;fill-opacity:1;fill-rule:nonzero;stroke:none;stroke-width:0.128899"
       id="path4278" />
    <path
       d="m 186.6915,82.095918 c 0,4.31037 -5.1392,7.80482 -11.47715,7.80482 -6.33798,0 -11.47587,-3.49445 -11.47587,-7.80482 0,-4.31167 5.13789,-7.80482 11.47587,-7.80482 6.33795,0 11.47715,3.49315 11.47715,7.80482"
       style="fill:#141413;fill-opacity:1;fill-rule:nonzero;stroke:none;stroke-width:0.128899"
       id="path4280" />
    <path
       d="m 195.6242,113.88622 c 0,13.24822 -8.32818,23.98807 -18.60267,23.98807 -10.27457,0 -18.60399,-10.73985 -18.60399,-23.98807 0,-13.24692 8.32942,-23.985482 18.60399,-23.985482 10.27449,0 18.60267,10.738562 18.60267,23.985482"
       style="fill:#ee9977;fill-opacity:1;fill-rule:nonzero;stroke:none;stroke-width:0.128899"
       id="path4282" />
    <path
       d="m 174.38424,94.493398 c 0,0 1.18976,11.938612 13.96876,13.484112 12.77644,1.54678 2.93248,24.66091 -0.45633,25.6921 l 2.52132,3.51249 c 0,0 13.76893,-8.36553 14.78853,-14.91874 1.01956,-6.55193 2.20935,-47.048062 -26.91021,-41.751612 0,0 -3.39261,0.14049 -7.44648,2.20288 0,0 -6.13943,-4.5643 -13.27011,9.83369 0,0 -17.21444,28.210792 10.24099,44.633782 v -3.16833 c 0,0 -8.50601,-5.94481 -8.1,-13.79861 0.40733,-7.85381 -2.65143,-16.33406 7.03012,-26.401052 0,0 -2.13711,5.80431 -2.21706,7.405232 0,0 7.53677,-6.546772 9.85047,-6.725942"
       style="fill:#1c1b1a;fill-opacity:1;fill-rule:nonzero;stroke:none;stroke-width:0.128899"
       id="path4284" />
    <path
       d="m 196.14363,111.64081 c 0,0 -0.0146,-3.57566 -5.58259,-4.86851 -14.78857,-2.65402 -14.8311,-14.651922 -14.8311,-14.651922 0,0 4.15055,9.405742 9.0448,10.866162 13.64397,2.56895 11.36889,8.65427 11.36889,8.65427"
       style="fill:#434244;fill-opacity:1;fill-rule:nonzero;stroke:none;stroke-width:0.128899"
       id="path4286" />
    <path
       d="m 195.32901,128.67607 c 11.47971,-15.25002 -3.43773,-30.828722 -3.43773,-30.828722 13.12703,7.223492 12.92464,16.474552 10.88677,22.447722 0.36099,-2.64629 -0.64191,-4.44443 -0.64191,-4.44443 -1.0067,7.18611 -6.80713,12.82543 -6.80713,12.82543 m 4.28202,-2.31373 c 0,0 1.92443,-2.42459 3.16702,-6.06727 -0.23714,1.744 -1.06728,3.85794 -3.16702,6.06727"
       style="fill:#434244;fill-opacity:1;fill-rule:nonzero;stroke:none;stroke-width:0.128899"
       id="path4288" />
    <path
       d="m 158.95637,127.59461 c 0,0 -11.40111,-23.3281 5.16752,-35.373692 0,0 -12.5354,15.092752 -5.16752,35.373692"
       style="fill:#434244;fill-opacity:1;fill-rule:nonzero;stroke:none;stroke-width:0.128899"
       id="path4290" />
    <path
       d="m 160.43869,92.120378 c 0,0 4.29875,-5.96931 8.80763,-7.15131 0,0 -6.23612,-0.007 -8.80763,7.15131"
       style="fill:#ffffff;fill-opacity:1;fill-rule:nonzero;stroke:none;stroke-width:0.128899"
       id="path4292" />
    <path
       d="m 151.22241,84.097708 c 0,0 24.39412,-13.04455 47.77247,-8.30107 v 1.7788 c 0,0 -20.49747,-2.50837 -46.78382,7.73908 l -0.98865,-1.21681"
       style="fill:#fab51b;fill-opacity:1;fill-rule:nonzero;stroke:none;stroke-width:0.128899"
       id="path4294" />
    <path
       d="m 183.11197,78.711038 -5.63287,-3.95333 -11.33279,3.46867 -1.30445,3.86954 c 0,0 12.44004,-4.37225 18.27011,-3.38488"
       style="fill:#1c1b1a;fill-opacity:1;fill-rule:nonzero;stroke:none;stroke-width:0.128899"
       id="path4296" />
    <path
       d="m 190.59841,115.30411 c -0.23713,0.23202 -0.47821,0.42279 -0.7708,0.58262 l -0.15602,0.04 -0.0632,-0.33644 c -0.0453,-0.73214 -1.03381,-1.08275 -1.42824,-0.38669 -0.2576,0.45372 -0.68444,0.79659 -0.89453,1.27609 -0.39315,0.89714 0.92807,1.67827 1.3225,0.77468 l 0.0786,-0.13661 c 0.20497,0.18561 0.46407,0.31452 0.80307,0.34415 0.85459,0.0748 1.61509,-0.50915 2.19254,-1.07502 0.70636,-0.69089 -0.37638,-1.77364 -1.08405,-1.08274"
       style="fill:#ef2e32;fill-opacity:1;fill-rule:nonzero;stroke:none;stroke-width:0.128899"
       id="path4298" />
    <path
       d="m 165.50956,114.97929 c -0.26673,0.0438 -0.51431,0.19204 -0.65352,0.43052 -0.0632,0.10698 -0.10194,0.24879 -0.11729,0.38025 l -0.21521,-0.23845 c -0.16771,-0.23202 -0.29632,-0.48981 -0.44726,-0.73085 -0.52721,-0.83398 -1.85358,-0.0645 -1.32378,0.77339 0.59035,0.9358 1.22323,2.01726 2.50962,1.78009 0.24737,-0.0451 0.45761,-0.19464 0.62261,-0.39056 l 0.0826,0.26684 c 0.076,0.97962 1.60995,0.98607 1.53263,0 -0.0749,-0.97062 -0.8224,-2.4697 -1.9902,-2.2712"
       style="fill:#ef2e32;fill-opacity:1;fill-rule:nonzero;stroke:none;stroke-width:0.128899"
       id="path4300" />
    <path
       d="m 177.80779,119.44949 c -1.50036,-0.04 -2.7378,-0.75148 -3.14126,-1.69244 -0.10815,0.21657 -0.18305,0.44341 -0.18817,0.68575 -0.0365,1.26707 1.44107,2.33564 3.29333,2.38462 1.85358,0.049 3.38103,-0.94096 3.41581,-2.20803 0.007,-0.24104 -0.0566,-0.47178 -0.152,-0.69348 -0.45632,0.91776 -1.72727,1.56225 -3.22763,1.52358"
       style="fill:#c8755a;fill-opacity:1;fill-rule:nonzero;stroke:none;stroke-width:0.128899"
       id="path4302" />
    <path
       d="m 188.27952,109.8156 c 0,0 1.0918,0.83913 4.0758,-1.40371 0,0 -1.52229,3.89017 -4.0758,1.40371"
       style="fill:#100f0d;fill-opacity:1;fill-rule:nonzero;stroke:none;stroke-width:0.128899"
       id="path4304" />
    <path
       d="m 190.90263,111.03498 c 0,1.45012 -1.17554,2.62438 -2.6257,2.62438 -1.44881,0 -2.62308,-1.17426 -2.62308,-2.62438 0,-1.44882 1.17427,-2.62309 2.62308,-2.62309 1.45016,0 2.6257,1.17427 2.6257,2.62309"
       style="fill:#100f0d;fill-opacity:1;fill-rule:nonzero;stroke:none;stroke-width:0.128899"
       id="path4306" />
    <path
       d="m 187.74073,108.89011 c 0,0 1.09176,0.83784 4.07579,-1.405 0,0 -1.52101,3.89146 -4.07579,1.405"
       style="fill:#100f0d;fill-opacity:1;fill-rule:nonzero;stroke:none;stroke-width:0.128899"
       id="path4308" />
    <path
       d="m 189.39967,109.91099 c 0,0.4911 -0.39699,0.8894 -0.89073,0.8894 -0.49111,0 -0.89069,-0.3983 -0.89069,-0.8894 0,-0.4924 0.39958,-0.8907 0.89069,-0.8907 0.49374,0 0.89073,0.3983 0.89073,0.8907"
       style="fill:#ffffff;fill-opacity:1;fill-rule:nonzero;stroke:none;stroke-width:0.128899"
       id="path4310" />
    <path
       d="m 167.6918,110.04246 c 0,0 -1.09435,0.84042 -4.07835,-1.4037 0,0 1.52357,3.89145 4.07835,1.4037"
       style="fill:#100f0d;fill-opacity:1;fill-rule:nonzero;stroke:none;stroke-width:0.128899"
       id="path4312" />
    <path
       d="m 165.06613,111.26184 c 0,1.45011 1.17686,2.62567 2.62567,2.62567 1.44881,0 2.62308,-1.17556 2.62308,-2.62567 0,-1.44753 -1.17427,-2.62308 -2.62308,-2.62308 -1.44881,0 -2.62567,1.17555 -2.62567,2.62308"
       style="fill:#100f0d;fill-opacity:1;fill-rule:nonzero;stroke:none;stroke-width:0.128899"
       id="path4314" />
    <path
       d="m 168.23059,109.11826 c 0,0 -1.09435,0.83784 -4.07835,-1.40629 0,0 1.52361,3.89275 4.07835,1.40629"
       style="fill:#100f0d;fill-opacity:1;fill-rule:nonzero;stroke:none;stroke-width:0.128899"
       id="path4316" />
    <path
       d="m 166.57037,110.13785 c 0,0.4911 0.39831,0.8894 0.88941,0.8894 0.49239,0 0.8907,-0.3983 0.8907,-0.8894 0,-0.4911 -0.39831,-0.88941 -0.8907,-0.88941 -0.4911,0 -0.88941,0.39831 -0.88941,0.88941"
       style="fill:#ffffff;fill-opacity:1;fill-rule:nonzero;stroke:none;stroke-width:0.128899"
       id="path4318" />
    <path
       d="m 185.02225,105.43433 c 0,0 3.97009,-3.62592 6.97346,-0.50786 0,0 -2.0959,-5.534912 -6.97346,0.50786"
       style="fill:#100f0d;fill-opacity:1;fill-rule:nonzero;stroke:none;stroke-width:0.128899"
       id="path4320" />
    <path
       d="m 170.9323,105.52971 c 0,0 -3.79993,-3.80509 -6.94503,-0.8301 0,0 2.35109,-5.431802 6.94503,0.8301"
       style="fill:#100f0d;fill-opacity:1;fill-rule:nonzero;stroke:none;stroke-width:0.128899"
       id="path4322" />
    <path
       d="m 169.33269,122.31105 -0.007,0.0259 c 0,4.8814 3.95723,8.79219 8.83861,8.79219 4.88011,0 8.83727,-3.88888 8.83727,-8.76899 l -0.004,-0.049 H 169.3333"
       style="fill:#c2212b;fill-opacity:1;fill-rule:nonzero;stroke:none;stroke-width:0.128899"
       id="path4324" />
    <path
       d="m 169.33269,122.31105 -0.007,0.0285 c 0,0.83526 0.12386,2.3176 0.34017,2.3176 h 16.994 c 0.21777,0 0.34164,-1.48234 0.34164,-2.3176 l -0.004,-0.0285 h -17.66422"
       style="fill:#edecec;fill-opacity:1;fill-rule:nonzero;stroke:none;stroke-width:0.128899"
       id="path4326" />
    <path
       d="m 184.02845,128.84364 c -1.56098,-1.38695 -3.61044,-2.23769 -5.86361,-2.23769 -2.25444,0 -4.30393,0.85074 -5.86488,2.23769 1.56095,1.38953 3.61044,2.23897 5.86488,2.23897 2.25317,0 4.30263,-0.84944 5.86361,-2.23897"
       style="fill:#f26181;fill-opacity:1;fill-rule:nonzero;stroke:none;stroke-width:0.128899"
       id="path4328" />
    <path
       d="M 89.715317,63.897639 H 180.4227 V 10.980972 H 89.715317 v 52.916667"
       style="fill:#cd1d2a;fill-opacity:1;fill-rule:nonzero;stroke:none;stroke-width:0.255464"
       id="path6422" />
    <path
       d="M 89.715317,55.076487 H 180.4227 V 19.80211 H 89.715317 v 35.274377"
       style="fill:#ffffff;fill-opacity:1;fill-rule:nonzero;stroke:none;stroke-width:0.255464"
       id="path6424" />
    <path
       d="M 89.715317,46.398401 H 180.4227 V 28.758657 H 89.715317 v 17.639744"
       style="fill:#2b3076;fill-opacity:1;fill-rule:nonzero;stroke:none;stroke-width:0.255464"
       id="path6426" />
  </g>
  <g
     inkscape:groupmode="layer"
     id="layer2"
     inkscape:label="Layer 3" />
  <g
     inkscape:label="Layer 1"
     inkscape:groupmode="layer"
     id="layer1"
     transform="translate(0,-32.41665)">
    <text
       xml:space="preserve"
       style="font-style:normal;font-variant:normal;font-weight:bold;font-stretch:normal;font-size:10.5833px;line-height:1.25;font-family:sans-serif;-inkscape-font-specification:'sans-serif Bold';letter-spacing:0px;word-spacing:0px;fill:#000000;fill-opacity:1;stroke:none;stroke-width:0.264583"
       x="150.05655"
       y="89.869026"
       id="text8811" />
    <text
       xml:space="preserve"
       style="font-style:normal;font-variant:normal;font-weight:bold;font-stretch:normal;font-size:10.5833px;line-height:1.25;font-family:sans-serif;-inkscape-font-specification:'sans-serif Bold';letter-spacing:0px;word-spacing:0px;fill:#000000;fill-opacity:1;stroke:none;stroke-width:0.264583"
       x="160.63989"
       y="97.806526"
       id="text8815" />
    <text
       xml:space="preserve"
       style="font-style:normal;font-variant:normal;font-weight:bold;font-stretch:normal;font-size:10.5833px;line-height:1.25;font-family:sans-serif;-inkscape-font-specification:'sans-serif Bold';letter-spacing:0px;word-spacing:0px;fill:#000000;fill-opacity:1;stroke:none;stroke-width:0.264583"
       x="156.86011"
       y="88.7351"
       id="text8819" />
    <flowRoot
       xml:space="preserve"
       id="flowRoot8821"
       style="font-style:normal;font-variant:normal;font-weight:bold;font-stretch:normal;font-size:40px;line-height:1.25;font-family:sans-serif;-inkscape-font-specification:'sans-serif Bold';letter-spacing:0px;word-spacing:0px;fill:#000000;fill-opacity:1;stroke:none"><flowRegion
         id="flowRegion8823"
         style="font-style:normal;font-variant:normal;font-weight:bold;font-stretch:normal;font-family:sans-serif;-inkscape-font-specification:'sans-serif Bold'" /><flowPara
         id="flowPara8827" /></flowRoot>
    <flowRoot
       xml:space="preserve"
       id="flowRoot8829"
       style="font-style:normal;font-variant:normal;font-weight:bold;font-stretch:normal;font-size:40px;line-height:1.25;font-family:sans-serif;-inkscape-font-specification:'sans-serif Bold';letter-spacing:0px;word-spacing:0px;fill:#000000;fill-opacity:1;stroke:none"><flowRegion
         id="flowRegion8831"
         style="font-style:normal;font-variant:normal;font-weight:bold;font-stretch:normal;font-family:sans-serif;-inkscape-font-specification:'sans-serif Bold'" /><flowPara
         id="flowPara8835" /></flowRoot>
    <flowRoot
       xml:space="preserve"
       id="flowRoot8837"
       style="font-style:normal;font-variant:normal;font-weight:bold;font-stretch:normal;font-size:40px;line-height:1.25;font-family:sans-serif;-inkscape-font-specification:'sans-serif Bold';letter-spacing:0px;word-spacing:0px;fill:#000000;fill-opacity:1;stroke:none"><flowRegion
         id="flowRegion8839"
         style="font-style:normal;font-variant:normal;font-weight:bold;font-stretch:normal;font-family:sans-serif;-inkscape-font-specification:'sans-serif Bold'" /><flowPara
         id="flowPara8843" /></flowRoot>
    <text
       xml:space="preserve"
       style="font-style:normal;font-variant:normal;font-weight:bold;font-stretch:normal;font-size:10.5833px;line-height:1.25;font-family:sans-serif;-inkscape-font-specification:'sans-serif Bold';letter-spacing:0px;word-spacing:0px;fill:#000000;fill-opacity:1;stroke:none;stroke-width:0.264583"
       x="209.39882"
       y="107.25594"
       id="text8847" />
    <flowRoot
       xml:space="preserve"
       id="flowRoot8849"
       style="font-style:normal;font-variant:normal;font-weight:bold;font-stretch:normal;font-size:40px;line-height:1.25;font-family:sans-serif;-inkscape-font-specification:'sans-serif Bold';letter-spacing:0px;word-spacing:0px;fill:#000000;fill-opacity:1;stroke:none"><flowRegion
         id="flowRegion8851"
         style="font-style:normal;font-variant:normal;font-weight:bold;font-stretch:normal;font-family:sans-serif;-inkscape-font-specification:'sans-serif Bold'" /><flowPara
         id="flowPara8855" /></flowRoot>
    <flowRoot
       xml:space="preserve"
       id="flowRoot8857"
       style="font-style:normal;font-variant:normal;font-weight:bold;font-stretch:normal;font-size:40px;line-height:1.25;font-family:sans-serif;-inkscape-font-specification:'sans-serif Bold';letter-spacing:0px;word-spacing:0px;fill:#000000;fill-opacity:1;stroke:none"><flowRegion
         id="flowRegion8859"
         style="font-style:normal;font-variant:normal;font-weight:bold;font-stretch:normal;font-family:sans-serif;-inkscape-font-specification:'sans-serif Bold'" /><flowPara
         id="flowPara8863" /></flowRoot>
    <flowRoot
       xml:space="preserve"
       id="flowRoot8865"
       style="font-style:normal;font-variant:normal;font-weight:bold;font-stretch:normal;font-size:40px;line-height:1.25;font-family:sans-serif;-inkscape-font-specification:'sans-serif Bold';letter-spacing:0px;word-spacing:0px;fill:#000000;fill-opacity:1;stroke:none"><flowRegion
         id="flowRegion8867"
         style="font-style:normal;font-variant:normal;font-weight:bold;font-stretch:normal;font-family:sans-serif;-inkscape-font-specification:'sans-serif Bold'" /><flowPara
         id="flowPara8871" /></flowRoot>
    <flowRoot
       xml:space="preserve"
       id="flowRoot8873"
       style="font-style:normal;font-variant:normal;font-weight:bold;font-stretch:normal;font-size:40px;line-height:1.25;font-family:sans-serif;-inkscape-font-specification:'sans-serif Bold';letter-spacing:0px;word-spacing:0px;fill:#000000;fill-opacity:1;stroke:none"><flowRegion
         id="flowRegion8875"
         style="font-style:normal;font-variant:normal;font-weight:bold;font-stretch:normal;font-family:sans-serif;-inkscape-font-specification:'sans-serif Bold'" /><flowPara
         id="flowPara8879" /></flowRoot>
    <text
       xml:space="preserve"
       style="font-style:normal;font-weight:normal;font-size:10.5833px;line-height:1.25;font-family:sans-serif;letter-spacing:0px;word-spacing:0px;fill:#000000;fill-opacity:1;stroke:none;stroke-width:0.264583"
       x="101.02788"
       y="69.125984"
       id="text977" />
  </g>
</svg>
