<?xml version="1.0" encoding="UTF-8" standalone="no"?>
<!-- Created with Inkscape (http://www.inkscape.org/) -->

<svg
   xmlns:dc="http://purl.org/dc/elements/1.1/"
   xmlns:cc="http://creativecommons.org/ns#"
   xmlns:rdf="http://www.w3.org/1999/02/22-rdf-syntax-ns#"
   xmlns:svg="http://www.w3.org/2000/svg"
   xmlns="http://www.w3.org/2000/svg"
   xmlns:sodipodi="http://sodipodi.sourceforge.net/DTD/sodipodi-0.dtd"
   xmlns:inkscape="http://www.inkscape.org/namespaces/inkscape"
   width="1000"
   height="1000"
   viewBox="0 0 264.58333 264.58334"
   version="1.1"
   id="svg2383"
   inkscape:version="0.92.5 (2060ec1f9f, 2020-04-08)"
   sodipodi:docname="Japan.svg"
   enable-background="new">
  <defs
     id="defs2377">
    <clipPath
       clipPathUnits="userSpaceOnUse"
       id="clipPath5916">
      <path
         d="m 1908.28,4882.55 c -1.62,-2.8 -4.62,-4.09 -6.71,-2.88 -2.08,1.21 -2.47,4.45 -0.85,7.25 1.62,2.79 4.62,4.08 6.71,2.88 2.08,-1.22 2.47,-4.46 0.85,-7.25 z"
         id="path5914"
         inkscape:connector-curvature="0" />
    </clipPath>
    <radialGradient
       fx="0"
       fy="0"
       cx="0"
       cy="0"
       r="1"
       gradientUnits="userSpaceOnUse"
       gradientTransform="matrix(0.24706956,-1.3425033,-1.3425033,-0.24706956,1314.3413,5339.7444)"
       spreadMethod="pad"
       id="radialGradient5922">
      <stop
         style="stop-opacity:1;stop-color:#ffffff"
         offset="0"
         id="stop5918" />
      <stop
         style="stop-opacity:1;stop-color:#f0396c"
         offset="1"
         id="stop5920" />
    </radialGradient>
    <clipPath
       clipPathUnits="userSpaceOnUse"
       id="clipPath5900">
      <path
         d="m 1812.08,4879.41 c 0.02,-3.23 -1.91,-5.87 -4.33,-5.88 -2.4,-0.02 -4.38,2.58 -4.4,5.81 -0.02,3.24 1.92,5.87 4.33,5.89 2.41,0.01 4.38,-2.59 4.4,-5.82 z"
         id="path5898"
         inkscape:connector-curvature="0" />
    </clipPath>
    <radialGradient
       fx="0"
       fy="0"
       cx="0"
       cy="0"
       r="1"
       gradientUnits="userSpaceOnUse"
       gradientTransform="matrix(0.89284273,-1.0324832,-1.0324832,-0.89284273,1288.7422,5338.3265)"
       spreadMethod="pad"
       id="radialGradient5906">
      <stop
         style="stop-opacity:1;stop-color:#ffffff"
         offset="0"
         id="stop5902" />
      <stop
         style="stop-opacity:1;stop-color:#f0396c"
         offset="1"
         id="stop5904" />
    </radialGradient>
    <clipPath
       clipPathUnits="userSpaceOnUse"
       id="clipPath5884">
      <path
         d="m 1771.08,4893.41 c 2.46,-2.1 3.18,-5.28 1.62,-7.12 -1.57,-1.84 -4.83,-1.62 -7.29,0.48 -2.46,2.1 -3.18,5.28 -1.62,7.12 1.57,1.83 4.83,1.62 7.29,-0.48 z"
         id="path5882"
         inkscape:connector-curvature="0" />
    </clipPath>
    <radialGradient
       fx="0"
       fy="0"
       cx="0"
       cy="0"
       r="1"
       gradientUnits="userSpaceOnUse"
       gradientTransform="matrix(1.3656555,0,0,-1.3656555,1278.301,5341.157)"
       spreadMethod="pad"
       id="radialGradient5890">
      <stop
         style="stop-opacity:1;stop-color:#ffffff"
         offset="0"
         id="stop5886" />
      <stop
         style="stop-opacity:1;stop-color:#f0396c"
         offset="1"
         id="stop5888" />
    </radialGradient>
    <clipPath
       clipPathUnits="userSpaceOnUse"
       id="clipPath5916-3">
      <path
         d="m 1908.28,4882.55 c -1.62,-2.8 -4.62,-4.09 -6.71,-2.88 -2.08,1.21 -2.47,4.45 -0.85,7.25 1.62,2.79 4.62,4.08 6.71,2.88 2.08,-1.22 2.47,-4.46 0.85,-7.25 z"
         id="path5914-6"
         inkscape:connector-curvature="0" />
    </clipPath>
    <radialGradient
       fx="0"
       fy="0"
       cx="0"
       cy="0"
       r="1"
       gradientUnits="userSpaceOnUse"
       gradientTransform="matrix(0.2470695,-1.342503,-1.342503,-0.2470695,1291.8947,5325.7151)"
       spreadMethod="pad"
       id="radialGradient5922-7">
      <stop
         style="stop-opacity:1;stop-color:#ffffff"
         offset="0"
         id="stop5918-5" />
      <stop
         style="stop-opacity:1;stop-color:#f0396c"
         offset="1"
         id="stop5920-3" />
    </radialGradient>
    <clipPath
       clipPathUnits="userSpaceOnUse"
       id="clipPath5900-5">
      <path
         d="m 1812.08,4879.41 c 0.02,-3.23 -1.91,-5.87 -4.33,-5.88 -2.4,-0.02 -4.38,2.58 -4.4,5.81 -0.02,3.24 1.92,5.87 4.33,5.89 2.41,0.01 4.38,-2.59 4.4,-5.82 z"
         id="path5898-6"
         inkscape:connector-curvature="0" />
    </clipPath>
    <radialGradient
       fx="0"
       fy="0"
       cx="0"
       cy="0"
       r="1"
       gradientUnits="userSpaceOnUse"
       gradientTransform="matrix(0.89284251,-1.032483,-1.032483,-0.89284251,1266.2956,5324.2972)"
       spreadMethod="pad"
       id="radialGradient5906-2">
      <stop
         style="stop-opacity:1;stop-color:#ffffff"
         offset="0"
         id="stop5902-9" />
      <stop
         style="stop-opacity:1;stop-color:#f0396c"
         offset="1"
         id="stop5904-1" />
    </radialGradient>
    <clipPath
       clipPathUnits="userSpaceOnUse"
       id="clipPath5884-2">
      <path
         d="m 1771.08,4893.41 c 2.46,-2.1 3.18,-5.28 1.62,-7.12 -1.57,-1.84 -4.83,-1.62 -7.29,0.48 -2.46,2.1 -3.18,5.28 -1.62,7.12 1.57,1.83 4.83,1.62 7.29,-0.48 z"
         id="path5882-7"
         inkscape:connector-curvature="0" />
    </clipPath>
    <radialGradient
       fx="0"
       fy="0"
       cx="0"
       cy="0"
       r="1"
       gradientUnits="userSpaceOnUse"
       gradientTransform="matrix(1.3656552,0,0,-1.3656552,1255.8543,5327.1278)"
       spreadMethod="pad"
       id="radialGradient5890-0">
      <stop
         style="stop-opacity:1;stop-color:#ffffff"
         offset="0"
         id="stop5886-9" />
      <stop
         style="stop-opacity:1;stop-color:#f0396c"
         offset="1"
         id="stop5888-3" />
    </radialGradient>
  </defs>
  <sodipodi:namedview
     id="base"
     pagecolor="#ffffff"
     bordercolor="#666666"
     borderopacity="1.0"
     inkscape:pageopacity="0.0"
     inkscape:pageshadow="2"
     inkscape:zoom="0.70710678"
     inkscape:cx="397.01085"
     inkscape:cy="565.18284"
     inkscape:document-units="px"
     inkscape:current-layer="layer1"
     showgrid="false"
     units="px"
     inkscape:window-width="1920"
     inkscape:window-height="1031"
     inkscape:window-x="0"
     inkscape:window-y="25"
     inkscape:window-maximized="1"
     showguides="true"
     inkscape:lockguides="true"
     inkscape:object-nodes="false"
     inkscape:snap-nodes="false"
     inkscape:snap-others="false" />
  <metadata
     id="metadata2380">
    <rdf:RDF>
      <cc:Work
         rdf:about="">
        <dc:format>image/svg+xml</dc:format>
        <dc:type
           rdf:resource="http://purl.org/dc/dcmitype/StillImage" />
        <dc:title></dc:title>
      </cc:Work>
    </rdf:RDF>
  </metadata>
  <g
     inkscape:groupmode="layer"
     id="layer3"
     inkscape:label="Layer 2" />
  <g
     inkscape:groupmode="layer"
     id="layer2"
     inkscape:label="Layer 3" />
  <g
     inkscape:label="Layer 1"
     inkscape:groupmode="layer"
     id="layer1"
     transform="translate(0,-32.41665)">
    <text
       xml:space="preserve"
       style="font-style:normal;font-variant:normal;font-weight:bold;font-stretch:normal;font-size:10.58333302px;line-height:1.25;font-family:sans-serif;-inkscape-font-specification:'sans-serif Bold';letter-spacing:0px;word-spacing:0px;fill:#000000;fill-opacity:1;stroke:none;stroke-width:0.26458332"
       x="150.05655"
       y="89.869026"
       id="text8811" />
    <text
       xml:space="preserve"
       style="font-style:normal;font-variant:normal;font-weight:bold;font-stretch:normal;font-size:10.58333302px;line-height:1.25;font-family:sans-serif;-inkscape-font-specification:'sans-serif Bold';letter-spacing:0px;word-spacing:0px;fill:#000000;fill-opacity:1;stroke:none;stroke-width:0.26458332"
       x="160.63989"
       y="97.806526"
       id="text8815" />
    <text
       xml:space="preserve"
       style="font-style:normal;font-variant:normal;font-weight:bold;font-stretch:normal;font-size:10.58333302px;line-height:1.25;font-family:sans-serif;-inkscape-font-specification:'sans-serif Bold';letter-spacing:0px;word-spacing:0px;fill:#000000;fill-opacity:1;stroke:none;stroke-width:0.26458332"
       x="156.86011"
       y="88.7351"
       id="text8819" />
    <flowRoot
       xml:space="preserve"
       id="flowRoot8821"
       style="font-style:normal;font-variant:normal;font-weight:bold;font-stretch:normal;font-size:40px;line-height:1.25;font-family:sans-serif;-inkscape-font-specification:'sans-serif Bold';letter-spacing:0px;word-spacing:0px;fill:#000000;fill-opacity:1;stroke:none"><flowRegion
         id="flowRegion8823"
         style="font-style:normal;font-variant:normal;font-weight:bold;font-stretch:normal;font-family:sans-serif;-inkscape-font-specification:'sans-serif Bold'" /><flowPara
         id="flowPara8827" /></flowRoot>    <flowRoot
       xml:space="preserve"
       id="flowRoot8829"
       style="font-style:normal;font-variant:normal;font-weight:bold;font-stretch:normal;font-size:40px;line-height:1.25;font-family:sans-serif;-inkscape-font-specification:'sans-serif Bold';letter-spacing:0px;word-spacing:0px;fill:#000000;fill-opacity:1;stroke:none"><flowRegion
         id="flowRegion8831"
         style="font-style:normal;font-variant:normal;font-weight:bold;font-stretch:normal;font-family:sans-serif;-inkscape-font-specification:'sans-serif Bold'" /><flowPara
         id="flowPara8835" /></flowRoot>    <flowRoot
       xml:space="preserve"
       id="flowRoot8837"
       style="font-style:normal;font-variant:normal;font-weight:bold;font-stretch:normal;font-size:40px;line-height:1.25;font-family:sans-serif;-inkscape-font-specification:'sans-serif Bold';letter-spacing:0px;word-spacing:0px;fill:#000000;fill-opacity:1;stroke:none"><flowRegion
         id="flowRegion8839"
         style="font-style:normal;font-variant:normal;font-weight:bold;font-stretch:normal;font-family:sans-serif;-inkscape-font-specification:'sans-serif Bold'" /><flowPara
         id="flowPara8843" /></flowRoot>    <text
       xml:space="preserve"
       style="font-style:normal;font-variant:normal;font-weight:bold;font-stretch:normal;font-size:10.58333302px;line-height:1.25;font-family:sans-serif;-inkscape-font-specification:'sans-serif Bold';letter-spacing:0px;word-spacing:0px;fill:#000000;fill-opacity:1;stroke:none;stroke-width:0.26458332"
       x="209.39882"
       y="107.25594"
       id="text8847" />
    <flowRoot
       xml:space="preserve"
       id="flowRoot8849"
       style="font-style:normal;font-variant:normal;font-weight:bold;font-stretch:normal;font-size:40px;line-height:1.25;font-family:sans-serif;-inkscape-font-specification:'sans-serif Bold';letter-spacing:0px;word-spacing:0px;fill:#000000;fill-opacity:1;stroke:none"><flowRegion
         id="flowRegion8851"
         style="font-style:normal;font-variant:normal;font-weight:bold;font-stretch:normal;font-family:sans-serif;-inkscape-font-specification:'sans-serif Bold'" /><flowPara
         id="flowPara8855" /></flowRoot>    <flowRoot
       xml:space="preserve"
       id="flowRoot8857"
       style="font-style:normal;font-variant:normal;font-weight:bold;font-stretch:normal;font-size:40px;line-height:1.25;font-family:sans-serif;-inkscape-font-specification:'sans-serif Bold';letter-spacing:0px;word-spacing:0px;fill:#000000;fill-opacity:1;stroke:none"><flowRegion
         id="flowRegion8859"
         style="font-style:normal;font-variant:normal;font-weight:bold;font-stretch:normal;font-family:sans-serif;-inkscape-font-specification:'sans-serif Bold'" /><flowPara
         id="flowPara8863" /></flowRoot>    <flowRoot
       xml:space="preserve"
       id="flowRoot8865"
       style="font-style:normal;font-variant:normal;font-weight:bold;font-stretch:normal;font-size:40px;line-height:1.25;font-family:sans-serif;-inkscape-font-specification:'sans-serif Bold';letter-spacing:0px;word-spacing:0px;fill:#000000;fill-opacity:1;stroke:none"><flowRegion
         id="flowRegion8867"
         style="font-style:normal;font-variant:normal;font-weight:bold;font-stretch:normal;font-family:sans-serif;-inkscape-font-specification:'sans-serif Bold'" /><flowPara
         id="flowPara8871" /></flowRoot>    <flowRoot
       xml:space="preserve"
       id="flowRoot8873"
       style="font-style:normal;font-variant:normal;font-weight:bold;font-stretch:normal;font-size:40px;line-height:1.25;font-family:sans-serif;-inkscape-font-specification:'sans-serif Bold';letter-spacing:0px;word-spacing:0px;fill:#000000;fill-opacity:1;stroke:none"><flowRegion
         id="flowRegion8875"
         style="font-style:normal;font-variant:normal;font-weight:bold;font-stretch:normal;font-family:sans-serif;-inkscape-font-specification:'sans-serif Bold'" /><flowPara
         id="flowPara8879" /></flowRoot>    <text
       xml:space="preserve"
       style="font-style:normal;font-weight:normal;font-size:10.58333302px;line-height:1.25;font-family:sans-serif;letter-spacing:0px;word-spacing:0px;fill:#000000;fill-opacity:1;stroke:none;stroke-width:0.26458332"
       x="101.02788"
       y="69.125984"
       id="text977"><tspan
         sodipodi:role="line"
         id="tspan975"
         x="101.02788"
         y="78.489754"
         style="stroke-width:0.26458332" /><tspan
         sodipodi:role="line"
         x="101.02788"
         y="91.718918"
         style="stroke-width:0.26458332"
         id="tspan979" /><tspan
         sodipodi:role="line"
         x="101.02788"
         y="104.94809"
         style="stroke-width:0.26458332"
         id="tspan981" /><tspan
         sodipodi:role="line"
         x="101.02788"
         y="118.17725"
         style="stroke-width:0.26458332"
         id="tspan983" /><tspan
         sodipodi:role="line"
         x="101.02788"
         y="131.40642"
         style="stroke-width:0.26458332"
         id="tspan985" /><tspan
         sodipodi:role="line"
         x="101.02788"
         y="144.63559"
         style="stroke-width:0.26458332"
         id="tspan987" /><tspan
         sodipodi:role="line"
         x="101.02788"
         y="157.86475"
         style="stroke-width:0.26458332"
         id="tspan989" /><tspan
         sodipodi:role="line"
         x="101.02788"
         y="171.09392"
         style="stroke-width:0.26458332"
         id="tspan991" /><tspan
         sodipodi:role="line"
         x="101.02788"
         y="184.32309"
         style="stroke-width:0.26458332"
         id="tspan993" /><tspan
         sodipodi:role="line"
         x="101.02788"
         y="197.55225"
         style="stroke-width:0.26458332"
         id="tspan995" /><tspan
         sodipodi:role="line"
         x="101.02788"
         y="210.78142"
         style="stroke-width:0.26458332"
         id="tspan997" /><tspan
         sodipodi:role="line"
         x="101.02788"
         y="224.01059"
         style="stroke-width:0.26458332"
         id="tspan999" /><tspan
         sodipodi:role="line"
         x="101.02788"
         y="237.23975"
         style="stroke-width:0.26458332"
         id="tspan1001" /><tspan
         sodipodi:role="line"
         x="101.02788"
         y="250.46892"
         style="stroke-width:0.26458332"
         id="tspan1003" /><tspan
         sodipodi:role="line"
         x="101.02788"
         y="263.69809"
         style="stroke-width:0.26458332"
         id="tspan1005" /><tspan
         sodipodi:role="line"
         x="101.02788"
         y="276.92725"
         style="stroke-width:0.26458332"
         id="tspan1007" /><tspan
         sodipodi:role="line"
         x="101.02788"
         y="290.1564"
         style="stroke-width:0.26458332"
         id="tspan1009" /><tspan
         sodipodi:role="line"
         x="101.02788"
         y="303.38559"
         style="stroke-width:0.26458332"
         id="tspan1011" /><tspan
         sodipodi:role="line"
         x="101.02788"
         y="316.61475"
         style="stroke-width:0.26458332"
         id="tspan1013" /><tspan
         sodipodi:role="line"
         x="101.02788"
         y="329.8439"
         style="stroke-width:0.26458332"
         id="tspan1015" /><tspan
         sodipodi:role="line"
         x="101.02788"
         y="343.07309"
         style="stroke-width:0.26458332"
         id="tspan1017" /><tspan
         sodipodi:role="line"
         x="101.02788"
         y="356.30225"
         style="stroke-width:0.26458332"
         id="tspan1019" /><tspan
         sodipodi:role="line"
         x="101.02788"
         y="369.5314"
         style="stroke-width:0.26458332"
         id="tspan1021" /><tspan
         sodipodi:role="line"
         x="101.02788"
         y="382.76059"
         style="stroke-width:0.26458332"
         id="tspan1023" /></text>
    <path
       d="m 195.4502,125.49568 c -37.70077,-18.97935 -63.09297,18.98066 -100.795064,0 -4.55935,-21.08818 -9.118701,-42.180323 -13.676722,-63.268466 37.700746,18.980667 63.094296,-18.979348 100.795036,0 4.55937,21.088143 9.11738,42.180286 13.67675,63.268466"
       style="fill:#ffffff;fill-opacity:1;fill-rule:nonzero;stroke:none;stroke-width:0.03527779"
       id="path2840"
       inkscape:connector-curvature="0" />
    <path
       d="m 94.838636,125.35208 c 7.263844,3.6419 14.558274,5.41298 22.296824,5.41298 0,0 0.003,0 0.004,0 9.6665,-0.001 18.91018,-2.78296 27.8494,-5.47148 8.97111,-2.69786 18.24536,-5.48747 27.97571,-5.48747 7.7013,0 14.96382,1.73653 22.18645,5.30531 L 181.58851,62.370816 c -7.26387,-3.64326 -14.55831,-5.41299 -22.29949,-5.41299 -9.66786,0 -18.91154,2.781612 -27.85072,5.471486 -8.96979,2.697826 -18.2454,5.488748 -27.97441,5.488748 -7.701304,0 -14.963824,-1.736487 -22.187783,-5.306589 z m 22.296824,5.83448 c -7.83828,0 -15.22179,-1.79902 -22.576054,-5.50209 l -0.0904,-0.0452 -0.0211,-0.0984 -13.769796,-63.700588 0.394904,0.198253 c 7.294432,3.67247 14.618112,5.456862 22.391216,5.456862 9.66786,0 18.91155,-2.780293 27.85205,-5.470167 8.96847,-2.697863 18.24276,-5.487428 27.97307,-5.487428 7.84091,0 15.22708,1.798977 22.58005,5.500733 l 0.0905,0.04523 0.0189,0.09837 13.76977,63.700585 -0.39357,-0.19825 c -7.29443,-3.67111 -14.61811,-5.45686 -22.39122,-5.45686 -9.66786,0 -18.91286,2.78165 -27.8534,5.47016 -8.96843,2.69787 -18.24272,5.48747 -27.97171,5.48879 -0.001,0 -0.004,0 -0.004,0"
       style="fill:#bcbbb9;fill-opacity:1;fill-rule:nonzero;stroke:none;stroke-width:0.03527779"
       id="path2842"
       inkscape:connector-curvature="0" />
    <path
       d="m 160.46855,88.684475 c 2.75636,12.747305 -5.15236,24.566505 -17.20027,28.552785 -12.04792,3.9783 -24.48408,-5.12047 -27.30957,-18.190891 -2.75504,-12.747302 5.15636,-24.575816 17.20427,-28.558104 12.04791,-3.979612 24.4814,5.123148 27.30557,18.19621"
       style="fill:#dd262b;fill-opacity:1;fill-rule:nonzero;stroke:none;stroke-width:0.03527779"
       id="path2844"
       inkscape:connector-curvature="0" />
    <path
       d="m 99.956436,257.15443 c -0.88954,1.29373 -2.43591,6.37697 0.957344,7.62818 3.78018,1.39743 5.36911,-3.13929 5.51537,-5.0939 -3.41453,-2.32287 -6.472714,-2.53428 -6.472714,-2.53428"
       style="fill:#e5e3de;fill-opacity:1;fill-rule:nonzero;stroke:none;stroke-width:0.03527779"
       id="path2846"
       inkscape:connector-curvature="0" />
    <path
       d="m 101.90437,253.60562 c -1.31369,1.08632 -4.500854,7.51911 -0.26727,9.3248 4.23492,1.80697 6.1722,-4.31872 6.04323,-7.31174 -3.61796,-1.56363 -5.77597,-2.01306 -5.77597,-2.01306"
       style="fill:#4c4d4f;fill-opacity:1;fill-rule:nonzero;stroke:none;stroke-width:0.03527779"
       id="path2848"
       inkscape:connector-curvature="0" />
    <path
       d="m 103.52919,261.61007 c -3.24167,-1.38415 -2.13009,-5.47416 -0.84166,-7.80635 -0.16622,-0.0467 -0.30714,-0.0837 -0.42017,-0.11156 -1.38682,1.41476 -4.189714,7.44203 -0.11435,9.18119 0.59169,0.2514 1.13285,0.33357 1.63546,0.30718 0.77784,-0.18204 1.43602,-0.67677 1.97851,-1.34559 -0.6595,0.17564 -1.40277,0.13304 -2.23779,-0.22464"
       style="fill:#3c3c3d;fill-opacity:1;fill-rule:nonzero;stroke:none;stroke-width:0.03527779"
       id="path2850"
       inkscape:connector-curvature="0" />
    <path
       d="m 102.17429,255.13601 c 1.30703,-0.25403 3.82405,0.75525 4.35325,1.70596 0.53051,0.94404 -0.27921,1.57826 -0.80709,1.4852 -0.52787,-0.0946 -1.99979,-0.97596 -3.71902,-1.35622 -1.71391,-0.38294 -0.87225,-1.63016 0.17285,-1.83494"
       style="fill:#e5e3de;fill-opacity:1;fill-rule:nonzero;stroke:none;stroke-width:0.03527779"
       id="path2852"
       inkscape:connector-curvature="0" />
    <path
       d="m 150.47097,255.56019 c 0.97996,0.43612 1.94526,2.05961 1.55037,5.02737 -0.39225,2.96377 -1.38551,7.07903 -4.97155,7.56702 -3.71371,0.50528 -3.09675,-2.99434 -3.09675,-2.99434 l 6.51793,-9.60005"
       style="fill:#e5e3de;fill-opacity:1;fill-rule:nonzero;stroke:none;stroke-width:0.03527779"
       id="path2854"
       inkscape:connector-curvature="0" />
    <path
       d="m 147.78909,253.56571 c 1.19932,0.67545 3.40121,1.65541 3.13131,3.92247 -0.26723,2.26039 -1.04777,8.523 -4.60856,8.88468 -3.56343,0.36032 -3.16855,-2.60477 -2.62471,-4.55669 0.5438,-1.95193 -0.31773,-4.54607 -0.31773,-4.54607 l 4.41973,-3.70439"
       style="fill:#4c4d4f;fill-opacity:1;fill-rule:nonzero;stroke:none;stroke-width:0.03527779"
       id="path2856"
       inkscape:connector-curvature="0" />
    <path
       d="m 147.67474,254.37014 -1.15149,0.96402 c 1.2286,0.67277 2.97575,1.66736 2.73374,3.70039 -0.18204,1.54106 -0.60765,4.93432 -1.98381,7.0591 2.18059,-1.02383 3.05151,-4.57268 3.43313,-7.01255 0.04,-0.29512 0.072,-0.56777 0.0999,-0.79116 0.26874,-2.26571 -1.93199,-3.24435 -3.1313,-3.9198"
       style="fill:#3c3c3d;fill-opacity:1;fill-rule:nonzero;stroke:none;stroke-width:0.03527779"
       id="path2858"
       inkscape:connector-curvature="0" />
    <path
       d="m 142.99038,258.61438 c 0.70071,-1.13819 3.14461,-2.30426 4.20037,-2.05697 1.05971,0.25403 0.97592,1.27647 0.55047,1.59955 -0.42685,0.32716 -2.07027,0.81375 -3.51428,1.81764 -1.44397,1.00789 -1.79103,-0.45342 -1.23656,-1.36022"
       style="fill:#e5e3de;fill-opacity:1;fill-rule:nonzero;stroke:none;stroke-width:0.03527779"
       id="path2860"
       inkscape:connector-curvature="0" />
    <path
       d="m 111.21055,223.28174 c 0,0 -5.07791,16.03021 -9.25566,29.54734 0.88821,1.68602 4.75747,4.20968 6.40888,2.7218 3.73364,-7.65744 10.75949,-19.38223 14.8149,-19.35961 4.07803,1.02379 14.22056,20.19065 19.46202,21.90855 4.87314,-0.57308 5.56058,-5.0008 5.56058,-5.0008 0,0 -8.55892,-10.92039 -12.26599,-24.64498 -8.15073,-5.405 -24.72473,-5.1723 -24.72473,-5.1723"
       style="fill:#dbdad8;fill-opacity:1;fill-rule:nonzero;stroke:none;stroke-width:0.03527779"
       id="path2862"
       inkscape:connector-curvature="0" />
    <path
       d="m 111.66529,224.15662 -2.64069,7.67737 c 0,0 8.91129,-3.65517 17.0168,-2.10615 8.10418,1.55169 10.90709,4.14582 10.90709,4.14582 0,0 -1.42671,-4.44234 -2.13409,-7.01118 -4.55933,-1.85887 -23.14911,-2.70586 -23.14911,-2.70586"
       style="fill:#b1b0ad;fill-opacity:1;fill-rule:nonzero;stroke:none;stroke-width:0.03527779"
       id="path2864"
       inkscape:connector-curvature="0" />
    <path
       d="m 118.44114,234.81906 c 2.92525,0.45738 4.24424,1.37485 9.9205,-0.0573 -3.03957,1.66205 -7.16814,1.83358 -9.9205,0.0573"
       style="fill:#b1b0ad;fill-opacity:1;fill-rule:nonzero;stroke:none;stroke-width:0.03527779"
       id="path2866"
       inkscape:connector-curvature="0" />
    <path
       d="m 102.44287,250.76016 c 0,0 3.69775,3.64058 7.02317,3.06618 -0.4587,1.49183 -0.94536,2.32288 -0.94536,2.32288 0,0 -5.07659,0.34562 -6.92479,-2.92258 0.34438,-1.25118 0.84698,-2.46648 0.84698,-2.46648"
       style="fill:#929291;fill-opacity:1;fill-rule:nonzero;stroke:none;stroke-width:0.03527779"
       id="path2868"
       inkscape:connector-curvature="0" />
    <path
       d="m 146.6921,250.84395 c 0,0 -1.01316,3.9876 -6.26793,6.05919 0.78182,1.48521 1.87214,2.05694 1.87214,2.05694 0,0 5.79193,-1.60619 6.02064,-6.07914 -0.74326,-1.05707 -1.62485,-2.03699 -1.62485,-2.03699"
       style="fill:#929291;fill-opacity:1;fill-rule:nonzero;stroke:none;stroke-width:0.03527779"
       id="path2870"
       inkscape:connector-curvature="0" />
    <path
       d="m 122.51253,195.71155 c 0,0 -9.15195,0.34299 -18.09646,-3.72832 -0.91613,-0.46137 -1.73386,2.05429 -0.13562,3.32545 2.04898,1.62481 11.60247,3.72832 17.50212,3.82538 0.69939,-1.9453 0.72996,-3.42251 0.72996,-3.42251"
       style="fill:#fabd99;fill-opacity:1;fill-rule:nonzero;stroke:none;stroke-width:0.03527779"
       id="path2872"
       inkscape:connector-curvature="0" />
    <path
       d="m 117.51971,195.61182 c -0.0626,0.51192 -0.20353,1.67667 -0.33356,2.67126 -0.67677,0.004 -1.75379,-0.0769 -3.14593,-0.4893 0.5784,-0.10102 1.31499,-0.34563 1.44265,-0.93741 0.17413,-0.78981 -1.00785,-1.52244 -1.5025,-1.78971 1.08764,0.29927 2.26306,0.49997 3.53953,0.54516"
       style="fill:#eaa376;fill-opacity:1;fill-rule:nonzero;stroke:none;stroke-width:0.03527779"
       id="path2874"
       inkscape:connector-curvature="0" />
    <path
       d="m 117.24582,193.39264 c 1.26316,0.35768 3.32809,0.81641 6.31048,0.81641 1.62085,0.78318 1.69928,2.35213 1.32166,4.02352 -0.75125,3.34535 -5.86373,3.21242 -9.36204,2.06624 -0.36032,-1.60223 0.17941,-5.54991 1.7299,-6.90617"
       style="fill:#418e90;fill-opacity:1;fill-rule:nonzero;stroke:none;stroke-width:0.03527779"
       id="path2876"
       inkscape:connector-curvature="0" />
    <path
       d="m 135.35556,197.6608 c 0,0 -1.59024,-1.63547 -3.09275,-2.60345 0.34299,-1.71522 1.22725,-3.49162 1.22725,-3.49162 l -2.9744,-1.21662 c 0,0 -1.05176,2.66458 -1.33896,3.77883 -2.4,-0.0889 -4.19901,0.0931 -4.19901,0.0931 0,0 -5.58452,4.199 2.29363,6.19217 2.07159,0.52254 7.49921,0.53584 8.08424,-2.75237"
       style="fill:#fabd99;fill-opacity:1;fill-rule:nonzero;stroke:none;stroke-width:0.03527779"
       id="path2878"
       inkscape:connector-curvature="0" />
    <path
       d="m 130.44917,190.31982 2.93053,1.34164 c 0,0 -0.78449,1.42803 -1.18205,2.81618 -1.03179,0.25931 -2.29627,-0.26723 -2.72312,-0.77387 0.39225,-1.15413 0.97464,-3.38395 0.97464,-3.38395"
       style="fill:#eaa376;fill-opacity:1;fill-rule:nonzero;stroke:none;stroke-width:0.03527779"
       id="path2880"
       inkscape:connector-curvature="0" />
    <path
       d="m 133.85306,196.15299 c 4.65642,2.59681 3.69377,7.34362 3.17786,8.78894 -1.04509,6.73066 -0.81375,17.38779 1.5743,22.55213 -5.54461,4.98215 -25.63557,0.55711 -29.84121,-3.56347 1.39478,-2.16597 6.72666,-18.80514 10.13586,-26.67134 1.49056,-3.44112 4.58994,-3.27091 8.19992,-3.21242 -5.84775,3.05155 3.22308,5.32257 6.75327,2.10616"
       style="fill:#69ccc7;fill-opacity:1;fill-rule:nonzero;stroke:none;stroke-width:0.03527779"
       id="path2882"
       inkscape:connector-curvature="0" />
    <path
       d="m 118.23505,202.47677 c 3.78418,-8.08556 9.11738,-4.81729 5.33323,-0.34298 -3.78686,4.47162 -8.4313,10.49354 -8.4313,10.49354 0,0 0.71801,-5.06325 3.09807,-10.15048"
       style="fill:#82d5ce;fill-opacity:1;fill-rule:nonzero;stroke:none;stroke-width:0.03527779"
       id="path2884"
       inkscape:connector-curvature="0" />
    <path
       d="m 135.60952,206.37531 c -1.03314,7.91535 -0.74593,12.84703 0.91747,19.03784 -3.32545,2.12346 -15.1952,1.66473 -22.42179,-1.54637 13.19005,1.94925 15.31219,0.40156 21.50432,-17.49147"
       style="fill:#4ba3a2;fill-opacity:1;fill-rule:nonzero;stroke:none;stroke-width:0.03527779"
       id="path2886"
       inkscape:connector-curvature="0" />
    <path
       d="m 127.46678,194.04683 c -1.37484,0.86029 -2.52365,2.09421 -0.63158,2.84011 1.89343,0.74461 5.10449,0.25667 6.59636,-1.00521 0.42949,0.173 0.94672,0.54515 0.94672,0.54515 0,0 -3.95835,3.04093 -8.17199,1.28978 -3.29488,-1.36821 0.1421,-3.69776 0.1421,-3.69776 l 1.1182,0.0264"
       style="fill:#ffffff;fill-opacity:1;fill-rule:nonzero;stroke:none;stroke-width:0.03527779"
       id="path2888"
       inkscape:connector-curvature="0" />
    <path
       d="m 122.16551,265.78251 c -0.47735,0 -0.90684,-0.33356 -1.00789,-0.82041 L 79.228604,59.428301 c -0.11703,-0.558463 0.240655,-1.104941 0.797784,-1.221933 0.554465,-0.11571 1.106264,0.239337 1.221945,0.797762 l 41.929017,205.53515 c 0.11684,0.55979 -0.23933,1.10626 -0.7978,1.22326 -0.0716,0.0151 -0.1436,0.0188 -0.21408,0.0188"
       style="fill:#48494d;fill-opacity:1;fill-rule:nonzero;stroke:none;stroke-width:0.03527779"
       id="path2890"
       inkscape:connector-curvature="0" />
    <path
       d="m 104.91468,195.61714 c -3.42915,-1.15281 -3.78417,-5.79325 -1.77773,-12.32844 -0.22871,-3.0981 1.0318,-3.84137 2.35081,-4.30274 0.97596,-0.34298 1.14748,0.89086 0.57441,1.26181 1.14484,0.0584 0.86027,1.3762 0.40155,1.72058 1.26184,-0.0584 0.74329,1.14746 0.34438,1.49052 1.43338,0.1142 0.40156,1.43602 -0.11435,1.72058 -0.31778,0.17564 -1.32034,1.03179 -1.32034,1.03179 0,0 -1.56766,5.08986 0.11435,6.36633 -0.0559,1.03314 -0.57308,3.03957 -0.57308,3.03957"
       style="fill:#fabd99;fill-opacity:1;fill-rule:nonzero;stroke:none;stroke-width:0.03527779"
       id="path2892"
       inkscape:connector-curvature="0" />
    <path
       d="m 132.78404,201.67366 c 0,0 -6.30784,4.99017 -20.5284,1.14881 0.19411,-1.20463 -1.03314,-2.06492 -1.94925,-2.12342 0.17036,1.20332 -1.49187,1.49184 -2.06492,0.45874 -1.49055,0.91742 -0.97597,1.77903 -0.25253,1.89207 -0.95203,0.2872 -1.03314,1.37752 -0.11571,1.49187 -0.68744,1.03311 0.34562,1.49184 1.0331,1.60619 -0.4587,1.03314 1.97322,0.97465 3.63659,-0.40287 4.43834,1.54769 16.62986,2.69518 22.01891,-1.89208 0.80312,-2.17931 -1.77772,-2.17931 -1.77772,-2.17931"
       style="fill:#fabd99;fill-opacity:1;fill-rule:nonzero;stroke:none;stroke-width:0.03527779"
       id="path2894"
       inkscape:connector-curvature="0" />
    <path
       d="m 129.65537,203.16421 c 0.16207,0.4893 0.53453,1.60223 0.84167,2.55558 -0.61029,0.29663 -1.61949,0.68077 -3.05287,0.90417 0.48003,-0.34186 1.03981,-0.8736 0.90284,-1.46395 -0.18091,-0.78849 -1.56232,-0.94404 -2.12477,-0.97728 1.11157,-0.19147 2.26038,-0.51591 3.43313,-1.01852"
       style="fill:#eaa376;fill-opacity:1;fill-rule:nonzero;stroke:none;stroke-width:0.03527779"
       id="path2896"
       inkscape:connector-curvature="0" />
    <path
       d="m 127.38036,201.33859 c 2.30426,-1.9825 7.21996,-4.5181 8.90598,-1.53439 1.6873,2.98371 -2.75505,6.91281 -5.28669,8.24247 -1.34292,-0.94672 -3.85863,-4.66042 -3.61929,-6.70808"
       style="fill:#418e90;fill-opacity:1;fill-rule:nonzero;stroke:none;stroke-width:0.03527779"
       id="path2898"
       inkscape:connector-curvature="0" />
    <path
       d="m 163.22227,172.59833 c 2.77494,5.27738 10.61853,16.45437 4.10859,19.93937 -4.0049,2.14339 -17.17102,-4.80135 -23.0893,-11.47483 6.46475,-9.21979 18.98071,-8.46454 18.98071,-8.46454"
       style="fill:#3c3c3d;fill-opacity:1;fill-rule:nonzero;stroke:none;stroke-width:0.03527779"
       id="path2900"
       inkscape:connector-curvature="0" />
    <path
       d="m 163.20497,171.93218 c 3.80013,6.75327 -19.43541,15.66588 5.06062,18.70278 -4.00487,2.14339 -15.13,-2.36543 -21.04827,-9.03892 6.46607,-9.21711 15.98765,-9.66386 15.98765,-9.66386"
       style="fill:#2e2d2d;fill-opacity:1;fill-rule:nonzero;stroke:none;stroke-width:0.03527779"
       id="path2902"
       inkscape:connector-curvature="0" />
    <path
       d="m 115.67551,154.45134 c -4.10464,5.9701 -10.32736,25.72863 6.73197,35.65576 16.96629,9.87262 30.64301,0.10365 37.08646,-11.81389 7.7771,-14.37347 -1.50118,-27.39998 -11.82188,-32.01517 -16.10995,-7.2067 -26.50113,0.17563 -31.99655,8.1733"
       style="fill:#fabd99;fill-opacity:1;fill-rule:nonzero;stroke:none;stroke-width:0.03527779"
       id="path2904"
       inkscape:connector-curvature="0" />
    <path
       d="m 113.38451,158.92825 c 0.73396,-1.85084 1.54638,-3.39458 2.291,-4.47691 5.49542,-7.99782 15.8866,-15.38 31.99655,-8.1733 10.3207,4.61519 19.59898,17.6417 11.82188,32.01517 -0.90816,1.67934 -1.96387,3.31346 -3.14729,4.8572 0.20617,-1.24055 0.74993,-2.10484 0.74993,-2.10484 0,0 -2.86004,3.17119 -8.24778,0.84035 4.43967,-0.29135 8.57754,-4.32666 9.54288,-11.44693 -3.10606,7.37423 -7.10964,7.09765 -7.10964,7.09765 0,0 7.98052,-7.38086 1.83625,-14.89201 3.1526,7.0644 -2.88933,9.12665 -2.88933,9.12665 0,0 6.61235,-11.88301 -17.60315,-18.26398 -0.31924,5.14573 4.97552,8.10151 4.97552,8.10151 0,0 -5.33053,-0.1583 -11.08921,-9.39524 -1.61686,1.86283 -5.26675,5.42761 -9.43784,5.18828 4.36787,-2.78961 4.5354,-5.63107 4.5354,-5.63107 0,0 -4.95557,1.38683 -8.22517,7.15747"
       style="fill:#eaa376;fill-opacity:1;fill-rule:nonzero;stroke:none;stroke-width:0.03527779"
       id="path2906"
       inkscape:connector-curvature="0" />
    <path
       d="m 121.32783,172.76986 c -0.52522,1.64211 -3.30419,2.18195 -5.60845,0.82173 -2.30294,-1.35626 -3.02231,-3.75094 -2.27637,-5.66962 0.68081,-1.74716 3.37464,-2.52766 5.28002,0.0264 1.78039,2.38804 3.15128,3.12203 2.6048,4.81996"
       style="fill:#f8a191;fill-opacity:1;fill-rule:nonzero;stroke:none;stroke-width:0.03527779"
       id="path2908"
       inkscape:connector-curvature="0" />
    <path
       d="m 115.60503,168.15199 c -0.0773,0.21522 -0.35882,0.30454 -0.63426,0.20881 -0.27665,-0.0999 -0.43744,-0.3509 -0.3592,-0.56242 0.0746,-0.20994 0.3592,-0.30303 0.63694,-0.20617 0.27137,0.10252 0.43212,0.34977 0.35618,0.55978"
       style="fill:#fbccc0;fill-opacity:1;fill-rule:nonzero;stroke:none;stroke-width:0.03527779"
       id="path2910"
       inkscape:connector-curvature="0" />
    <path
       d="m 130.38401,171.56255 c -0.0784,0.21408 -0.4002,0.29135 -0.72596,0.173 -0.32301,-0.11307 -0.5239,-0.38026 -0.44679,-0.59303 0.0731,-0.21144 0.3976,-0.2872 0.722,-0.17149 0.32452,0.11421 0.5279,0.38162 0.45075,0.59171"
       style="fill:#fcd3bb;fill-opacity:1;fill-rule:nonzero;stroke:none;stroke-width:0.03527779"
       id="path2912"
       inkscape:connector-curvature="0" />
    <path
       d="m 148.37676,183.39906 c -0.87092,2.18591 -3.53019,2.9917 -6.47534,2.13141 -2.84146,-0.83369 -4.9463,-3.91848 -3.72833,-5.81056 1.15813,-1.80165 2.44523,-0.58239 6.08314,-0.64353 3.51955,-0.0531 4.99413,2.13805 4.12053,4.32268"
       style="fill:#f8a191;fill-opacity:1;fill-rule:nonzero;stroke:none;stroke-width:0.03527779"
       id="path2914"
       inkscape:connector-curvature="0" />
    <path
       d="m 146.80382,181.56812 c -0.0799,0.19938 -0.35354,0.27665 -0.61165,0.173 -0.25667,-0.10365 -0.40156,-0.34827 -0.32301,-0.54381 0.0773,-0.20089 0.35241,-0.27778 0.61165,-0.18091 0.25667,0.10779 0.4002,0.35354 0.32301,0.55179"
       style="fill:#fbccc0;fill-opacity:1;fill-rule:nonzero;stroke:none;stroke-width:0.03527779"
       id="path2916"
       inkscape:connector-curvature="0" />
    <path
       d="m 124.06689,155.91397 c 2.83348,-0.23406 2.8175,2.82948 1.03578,2.48642 -1.91469,-0.36975 -3.64854,0.0151 -3.85199,-0.21672 -0.44675,-0.50525 1.22329,-2.13809 2.81621,-2.2697"
       style="fill:#6d2217;fill-opacity:1;fill-rule:nonzero;stroke:none;stroke-width:0.03527779"
       id="path2918"
       inkscape:connector-curvature="0" />
    <path
       d="m 148.05899,164.73084 c -1.93862,-2.07958 -3.9876,0.19675 -2.43991,1.14215 1.66073,1.01584 2.68588,2.46783 2.99306,2.43191 0.67278,-0.0731 0.53449,-2.4053 -0.55315,-3.57406"
       style="fill:#6d2217;fill-opacity:1;fill-rule:nonzero;stroke:none;stroke-width:0.03527779"
       id="path2920"
       inkscape:connector-curvature="0" />
    <path
       d="m 159.87288,177.83184 c 2.05697,-4.06076 2.01842,-8.055 0.68609,-11.7687 0.45074,2.94651 -0.0226,6.79982 -1.64343,9.99625 -6.01397,11.8578 -20.64807,20.78899 -35.99482,11.39375 -7.62683,-4.66441 -9.44179,-10.19839 -10.80868,-14.61016 0.5784,5.64701 3.30683,11.42032 10.58397,16.31077 14.37346,9.65719 31.16422,0.53453 37.17687,-11.32191"
       style="fill:#eaa376;fill-opacity:1;fill-rule:nonzero;stroke:none;stroke-width:0.03527779"
       id="path2922"
       inkscape:connector-curvature="0" />
    <path
       d="m 123.63077,174.64999 c 0,0 -3.51428,9.6253 3.24035,12.31517 6.75723,2.6872 8.31958,-7.31837 8.31958,-7.31837 0,0 -5.4356,-0.008 -11.55993,-4.9968"
       style="fill:#461b1c;fill-opacity:1;fill-rule:nonzero;stroke:none;stroke-width:0.03527779"
       id="path2924"
       inkscape:connector-curvature="0" />
    <path
       d="m 129.65006,178.28258 c -0.4348,2.48909 -0.53318,6.14562 1.8615,8.37808 2.88933,-1.95193 3.67914,-7.01387 3.67914,-7.01387 0,0 -2.279,-0.0113 -5.54064,-1.36421"
       style="fill:#2c1616;fill-opacity:1;fill-rule:nonzero;stroke:none;stroke-width:0.03527779"
       id="path2926"
       inkscape:connector-curvature="0" />
    <path
       d="m 123.37414,183.58385 c 0.59834,1.41344 1.67003,2.65264 3.49698,3.38131 3.34403,1.33097 5.41295,-0.45078 6.65486,-2.58351 -0.15302,-0.51323 -1.15413,-1.27115 -2.38805,-0.99722 -0.74857,-2.18727 -5.46617,-1.74715 -7.76379,0.19939"
       style="fill:#ee5b63;fill-opacity:1;fill-rule:nonzero;stroke:none;stroke-width:0.03527779"
       id="path2928"
       inkscape:connector-curvature="0" />
    <path
       d="m 132.36786,183.89099 c -0.48267,-0.34034 -1.18473,-0.35768 -1.51845,-0.24612 -0.13568,-0.45074 -0.41354,-0.9919 -1.45595,-1.25917 -2.57688,-0.67677 -6.35707,1.32966 -3.31882,3.35071 3.07681,2.04234 8.08292,-0.59035 6.29322,-1.84553"
       style="fill:#f57880;fill-opacity:1;fill-rule:nonzero;stroke:none;stroke-width:0.03527779"
       id="path2930"
       inkscape:connector-curvature="0" />
    <path
       d="m 126.95754,182.9084 c 0.67278,-0.43345 2.1221,-0.48798 2.42661,-0.052 0.36711,0.52522 -0.97065,0.94935 -1.77644,0.88286 -0.81506,-0.0705 -1.08097,-0.55311 -0.65017,-0.831"
       style="fill:#f8a1a9;fill-opacity:1;fill-rule:nonzero;stroke:none;stroke-width:0.03527779"
       id="path2932"
       inkscape:connector-curvature="0" />
    <path
       d="m 125.48693,176.0182 c -0.51056,0.97728 -0.52518,1.81228 0.73399,2.68056 1.17139,0.80843 2.97572,1.6155 4.28543,1.91733 1.57299,0.3656 2.5064,-0.14097 2.67125,-1.23257 -2.66462,-0.65419 -4.74284,-1.42806 -7.69067,-3.36532"
       style="fill:#ffffff;fill-opacity:1;fill-rule:nonzero;stroke:none;stroke-width:0.03527779"
       id="path2934"
       inkscape:connector-curvature="0" />
    <path
       d="m 129.06502,174.02771 c -0.0339,0.003 -0.0663,-0.008 -0.0931,-0.0226 -0.80179,-0.63158 -1.07833,-1.51844 -0.74062,-2.37342 0.30982,-0.79249 1.08233,-1.3416 1.79902,-1.27779 0.44411,0.0339 1.23523,0.33921 1.56499,1.9373 0.0151,0.072 -0.0339,0.14247 -0.10365,0.15416 -0.081,0.0188 -0.14473,-0.0301 -0.15679,-0.10101 -0.21672,-1.05972 -0.68876,-1.67272 -1.32698,-1.73121 -0.60501,-0.052 -1.26053,0.42948 -1.53175,1.11425 -0.13946,0.35617 -0.35618,1.27115 0.65816,2.06628 0.0573,0.0452 0.0663,0.1289 0.0226,0.18468 -0.0226,0.0301 -0.0573,0.0467 -0.0916,0.0505"
       style="fill:#ce6748;fill-opacity:1;fill-rule:nonzero;stroke:none;stroke-width:0.03527779"
       id="path2936"
       inkscape:connector-curvature="0" />
    <path
       d="m 140.65152,167.87146 c -2.1766,1.4001 -2.86668,4.19901 -1.54637,6.25598 1.31902,2.05162 4.15514,2.58215 6.33177,1.18206 2.17397,-1.39882 2.86672,-4.20037 1.54638,-6.25199 -1.32166,-2.05433 -4.15778,-2.58483 -6.33178,-1.18605"
       style="fill:#eaa376;fill-opacity:1;fill-rule:nonzero;stroke:none;stroke-width:0.03527779"
       id="path2938"
       inkscape:connector-curvature="0" />
    <path
       d="m 144.54874,174.7989 c 1.32566,0.63158 1.4174,1.37085 0.2073,1.65274 -1.2113,0.27665 -3.26959,-0.004 -4.59129,-0.63558 -1.32698,-0.6329 -1.42136,-1.37217 -0.21145,-1.65673 1.21266,-0.27929 3.26564,0.007 4.59525,0.63957"
       style="fill:#eaa376;fill-opacity:1;fill-rule:nonzero;stroke:none;stroke-width:0.03527779"
       id="path2940"
       inkscape:connector-curvature="0" />
    <path
       d="m 140.55715,167.68794 c -2.11947,1.36422 -2.79492,4.09401 -1.5065,6.09512 1.28578,2.00111 4.04877,2.51435 6.17087,1.15281 2.11946,-1.36422 2.7936,-4.09265 1.5065,-6.09376 -1.28842,-2.00115 -4.05009,-2.51702 -6.17087,-1.15417"
       style="fill:#ffffff;fill-opacity:1;fill-rule:nonzero;stroke:none;stroke-width:0.03527779"
       id="path2942"
       inkscape:connector-curvature="0" />
    <path
       d="m 146.74796,170.97352 c -0.11835,1.17538 -0.77782,2.31888 -1.88944,3.03425 -1.88009,1.20863 -4.3293,0.75257 -5.46749,-1.02119 -0.32188,-0.49861 -0.49861,-1.04509 -0.55311,-1.60619 -0.0852,0.81242 0.0863,1.64079 0.55179,2.36144 1.13951,1.77508 3.58872,2.23114 5.46749,1.02383 1.35227,-0.8696 2.03568,-2.3628 1.89076,-3.79214"
       style="fill:#dcdbdb;fill-opacity:1;fill-rule:nonzero;stroke:none;stroke-width:0.03527779"
       id="path2944"
       inkscape:connector-curvature="0" />
    <path
       d="m 141.03846,170.83787 c -0.49594,1.27383 0.0773,2.68324 1.27914,3.15128 1.202,0.46805 2.57684,-0.18732 3.07146,-1.45863 0.49465,-1.27247 -0.0758,-2.68587 -1.27779,-3.15392 -1.202,-0.46405 -2.57684,0.18732 -3.07281,1.46127"
       style="fill:#7ab9dd;fill-opacity:1;fill-rule:nonzero;stroke:none;stroke-width:0.03527779"
       id="path2946"
       inkscape:connector-curvature="0" />
    <path
       d="m 142.08091,171.19556 c -0.30568,0.78717 0.049,1.6594 0.7938,1.95192 0.74326,0.28984 1.59292,-0.11684 1.90138,-0.90416 0.30718,-0.78581 -0.0479,-1.66205 -0.79244,-1.95193 -0.74195,-0.28871 -1.59425,0.11684 -1.90274,0.90417"
       style="fill:#231f20;fill-opacity:1;fill-rule:nonzero;stroke:none;stroke-width:0.03527779"
       id="path2948"
       inkscape:connector-curvature="0" />
    <path
       d="m 142.33618,170.35257 c -0.12513,0.32187 0.0189,0.68076 0.32301,0.79644 0.30718,0.11985 0.65552,-0.0452 0.7805,-0.36711 0.12363,-0.32452 -0.0188,-0.68209 -0.32564,-0.80176 -0.30304,-0.11835 -0.65153,0.049 -0.77783,0.37239"
       style="fill:#ffffff;fill-opacity:1;fill-rule:nonzero;stroke:none;stroke-width:0.03527779"
       id="path2950"
       inkscape:connector-curvature="0" />
    <path
       d="m 143.48236,172.96532 c -0.0758,0.19675 0.0113,0.41351 0.19411,0.48667 0.18619,0.069 0.39888,-0.0339 0.47467,-0.22728 0.0746,-0.19147 -0.0151,-0.40955 -0.19825,-0.48135 -0.18355,-0.0716 -0.39492,0.0264 -0.47068,0.222"
       style="fill:#ffffff;fill-opacity:1;fill-rule:nonzero;stroke:none;stroke-width:0.03527779"
       id="path2952"
       inkscape:connector-curvature="0" />
    <path
       d="m 127.26868,164.14445 c 0.0264,2.47447 -1.83893,4.50619 -4.17643,4.53676 -2.33882,0.0264 -4.26018,-1.95724 -4.28943,-4.43039 -0.0339,-2.47843 1.83889,-4.50883 4.17507,-4.5394 2.3415,-0.0301 4.25755,1.95724 4.29079,4.43303"
       style="fill:#eaa376;fill-opacity:1;fill-rule:nonzero;stroke:none;stroke-width:0.03527779"
       id="path2954"
       inkscape:connector-curvature="0" />
    <path
       d="m 124.52958,167.73449 c 1.26053,0.60234 1.34696,1.30305 0.19939,1.57299 -1.15413,0.26609 -3.11269,-0.004 -4.36787,-0.60633 -1.26448,-0.60234 -1.35091,-1.30572 -0.20089,-1.57431 1.15281,-0.26459 3.10606,0.008 4.36922,0.60765"
       style="fill:#eaa376;fill-opacity:1;fill-rule:nonzero;stroke:none;stroke-width:0.03527779"
       id="path2956"
       inkscape:connector-curvature="0" />
    <path
       d="m 126.80727,164.08328 c 0.0301,2.44654 -1.81895,4.45165 -4.12853,4.48357 -2.30825,0.0264 -4.20967,-1.93063 -4.2376,-4.37853 -0.0301,-2.45185 1.81631,-4.45696 4.12589,-4.48753 2.31225,-0.0302 4.21099,1.93331 4.24024,4.38249"
       style="fill:#ffffff;fill-opacity:1;fill-rule:nonzero;stroke:none;stroke-width:0.03527779"
       id="path2958"
       inkscape:connector-curvature="0" />
    <path
       d="m 126.23023,164.33992 c -0.008,-0.48267 -0.10629,-0.9454 -0.26874,-1.36953 0.0494,0.24612 0.0799,0.50392 0.0837,0.76455 0.0264,2.15135 -1.60091,3.91712 -3.63259,3.94637 -1.20731,0.0151 -2.27769,-0.59834 -2.96113,-1.54238 0.61032,1.23256 1.82427,2.07691 3.2244,2.06229 1.99049,-0.0264 3.57941,-1.75647 3.55412,-3.8613"
       style="fill:#dcdbdb;fill-opacity:1;fill-rule:nonzero;stroke:none;stroke-width:0.03527779"
       id="path2960"
       inkscape:connector-curvature="0" />
    <path
       d="m 125.45504,165.20153 c -0.48399,1.23523 -1.81895,1.86949 -2.98638,1.41607 -1.16744,-0.45605 -1.72191,-1.82562 -1.24323,-3.06086 0.48266,-1.23788 1.81895,-1.86946 2.98506,-1.41472 1.16608,0.45342 1.72322,1.82427 1.24455,3.05951"
       style="fill:#7ab9dd;fill-opacity:1;fill-rule:nonzero;stroke:none;stroke-width:0.03527779"
       id="path2962"
       inkscape:connector-curvature="0" />
    <path
       d="m 124.80084,164.97949 c -0.28833,0.74058 -1.08764,1.11689 -1.78439,0.84563 -0.69939,-0.27137 -1.03178,-1.08896 -0.74194,-1.8309 0.2872,-0.73795 1.08368,-1.11825 1.78439,-0.84699 0.69675,0.27251 1.02915,1.09164 0.74194,1.83226"
       style="fill:#231f20;fill-opacity:1;fill-rule:nonzero;stroke:none;stroke-width:0.03527779"
       id="path2964"
       inkscape:connector-curvature="0" />
    <path
       d="m 123.67065,163.63122 c -0.1225,0.3166 -0.46137,0.47467 -0.75789,0.35881 -0.29248,-0.11307 -0.43216,-0.46137 -0.31245,-0.77386 0.12249,-0.31359 0.45869,-0.472 0.75389,-0.36033 0.29512,0.11685 0.43879,0.46405 0.3166,0.77519"
       style="fill:#ffffff;fill-opacity:1;fill-rule:nonzero;stroke:none;stroke-width:0.03527779"
       id="path2966"
       inkscape:connector-curvature="0" />
    <path
       d="m 124.46046,165.81581 c -0.0731,0.18883 -0.27514,0.28456 -0.45742,0.21672 -0.17827,-0.0705 -0.26345,-0.28306 -0.18883,-0.472 0.0746,-0.18619 0.27778,-0.2872 0.4561,-0.21521 0.18091,0.0705 0.2661,0.27928 0.18996,0.47068"
       style="fill:#ffffff;fill-opacity:1;fill-rule:nonzero;stroke:none;stroke-width:0.03527779"
       id="path2968"
       inkscape:connector-curvature="0" />
    <path
       d="m 154.55563,180.30095 c 0,0 2.3761,-2.31488 5.34918,-0.56242 3.1353,1.85352 1.11821,6.66549 -2.46384,8.04037 -3.58206,1.36818 -7.09366,-0.68344 -6.45145,-3.47304 l 3.56611,-4.00491"
       style="fill:#fabd99;fill-opacity:1;fill-rule:nonzero;stroke:none;stroke-width:0.03527779"
       id="path2970"
       inkscape:connector-curvature="0" />
    <path
       d="m 159.41547,179.77709 c -0.75657,-0.44543 -1.46926,-0.60497 -2.11012,-0.61032 0.50261,0.0188 1.01317,0.15302 1.50646,0.47603 2.86141,1.85483 0.86693,5.31725 -1.45727,6.59105 -3.14461,1.72322 -5.97809,0.15679 -6.28922,-2.22051 -0.59702,2.59414 2.69786,4.51414 6.0552,3.24298 3.3547,-1.27379 5.23482,-5.75333 2.29495,-7.47923"
       style="fill:#eaa376;fill-opacity:1;fill-rule:nonzero;stroke:none;stroke-width:0.03527779"
       id="path2972"
       inkscape:connector-curvature="0" />
    <path
       d="m 159.55376,181.29953 c -1.55169,-1.81096 -6.04322,0.81374 -5.08188,4.72423 1.0504,-3.49698 2.74569,-3.66316 3.06746,-1.36022 0.67549,-0.88422 0.64756,-1.79102 -0.54648,-2.5569 0.99858,-1.08768 2.5609,-0.80711 2.5609,-0.80711"
       style="fill:#d48a5b;fill-opacity:1;fill-rule:nonzero;stroke:none;stroke-width:0.03527779"
       id="path2974"
       inkscape:connector-curvature="0" />
    <path
       d="m 160.14147,180.28769 c -0.6369,0.40687 -3.29085,3.72832 -3.23368,4.39311 -0.78849,-2.4133 0.58768,-4.59389 0.58768,-4.59389 0,0 -4.02349,1.9785 -9.40855,-0.3509 4.43967,-0.29512 9.7383,-3.13666 10.70232,-10.25557 -3.10474,7.37291 -7.51252,6.81045 -7.51252,6.81045 0,0 8.38476,-7.09366 2.24045,-14.60481 3.15129,7.06572 -0.91211,9.54818 -0.91211,9.54818 0,0 2.7417,-13.9254 -19.58037,-18.68551 0.0863,3.26029 7.59363,6.76922 7.59363,6.76922 0,0 -7.66143,0.10252 -13.70732,-8.06563 -1.61554,1.86419 -6.64823,4.84126 -10.814,4.60325 2.60345,-2.09553 5.91025,-5.04468 5.91025,-5.04468 0,0 -5.38239,1.49187 -8.62937,7.88746 2.39999,-7.98719 5.4462,-13.99716 5.4462,-13.99716 0,0 11.27272,-9.78489 19.76783,-10.91508 11.16904,-1.20332 23.24353,4.99149 25.3683,16.3932 4.52078,0.53185 7.0245,14.62874 5.29596,17.03541 -4.67636,6.52057 -8.33288,14.24181 -6.16156,17.62312 -2.60876,-1.72721 -2.95314,-4.55006 -2.95314,-4.55006"
       style="fill:#6d2217;fill-opacity:1;fill-rule:nonzero;stroke:none;stroke-width:0.03527779"
       id="path2976"
       inkscape:connector-curvature="0" />
    <path
       d="m 132.02216,140.99666 c 1.29241,-0.25403 7.64809,0.62627 12.9321,4.28148 2.10352,1.45727 -0.58903,4.54606 -2.61808,4.33462 -5.01806,-2.45186 -10.17709,-4.41841 -13.9413,-4.43967 -1.66872,-2.04366 2.33351,-3.92111 3.62728,-4.17643 z m -15.54222,8.96048 c 13.6581,-9.17452 41.2748,9.49369 47.6385,26.01451 1.25254,-2.84011 3.09806,-5.91428 5.13773,-8.75703 1.72854,-2.40666 -0.77518,-16.50355 -5.29596,-17.03541 -1.27779,-6.85168 -6.15093,-11.82056 -12.258,-14.43596 -3.66715,-1.41076 -7.55502,-2.07822 -11.38708,-2.07822 -0.57572,0.0226 -1.15145,0.0599 -1.72322,0.12098 -8.49511,1.1302 -19.76783,10.91505 -19.76783,10.91505 0,0 -1.02116,2.01441 -2.34414,5.25608"
       style="fill:#4d1c16;fill-opacity:1;fill-rule:nonzero;stroke:none;stroke-width:0.03527779"
       id="path2978"
       inkscape:connector-curvature="0" />
    <path
       d="m 161.67985,151.36922 c -1.60355,-10.62384 -8.97111,-14.20589 -17.44892,-13.74852 12.17426,2.96114 13.80969,9.95906 15.67388,13.67808 -7.71329,-6.37565 -12.34311,-4.38916 -12.34311,-4.38916 0,0 6.93012,0.52254 12.07848,7.02317 1.74184,2.2019 4.67372,5.41032 3.67251,14.69256 5.63766,-9.60932 -1.6541,-15.41056 -1.6541,-15.41056 0,0 6.68016,2.20588 7.87284,8.30759 0.16094,-8.76765 -7.85158,-10.15316 -7.85158,-10.15316"
       style="fill:#853d31;fill-opacity:1;fill-rule:nonzero;stroke:none;stroke-width:0.03527779"
       id="path2980"
       inkscape:connector-curvature="0" />
    <path
       d="m 131.71234,140.28001 c 1.25386,-0.24876 8.63072,0.75789 13.75651,4.30405 2.04235,1.41341 -0.57041,4.41042 -2.53964,4.20433 -4.86647,-2.37874 -11.08525,-4.43703 -14.73643,-4.45829 -1.61817,-1.98117 2.26438,-3.8028 3.51956,-4.05009 z m -16.12593,10.76081 c 12.57445,-13.44804 43.86366,7.6029 49.03464,24.95608 9.52689,-9.92713 6.93543,-30.28928 -9.20645,-39.09552 -15.48109,-8.44325 -37.24069,-1.27911 -39.82819,14.13944"
       style="fill:#4c4d4f;fill-opacity:1;fill-rule:nonzero;stroke:none;stroke-width:0.03527779"
       id="path2982"
       inkscape:connector-curvature="0" />
    <path
       d="m 159.9633,158.90966 c 6.59505,6.0246 6.73066,-14.6846 -9.41254,-23.48953 -0.16734,-0.0931 -0.33771,-0.17149 -0.50795,-0.26044 1.38683,0.49597 2.7484,1.09164 4.0594,1.80832 16.14323,8.80493 18.56317,27.04765 10.39917,36.94949 -5.17098,-17.35186 -36.37776,-36.25541 -48.21427,-24.07453 0.008,-0.21823 -0.0301,-0.44011 0.12363,-1.00121 12.12239,-10.42442 31.39557,-1.03714 43.55253,10.06805"
       style="fill:#3c3c3d;fill-opacity:1;fill-rule:nonzero;stroke:none;stroke-width:0.03527779"
       id="path2984"
       inkscape:connector-curvature="0" />
    <path
       d="m 126.99874,142.63082 c 2.7763,-0.0946 12.29788,1.56631 18.6589,6.39291 1.1475,0.75393 -0.0301,4.74816 -3.16854,3.69908 -3.54482,-1.59556 -8.29697,-5.50341 -19.228,-5.67758 l 3.73764,-4.41441"
       style="fill:#4c4d4f;fill-opacity:1;fill-rule:nonzero;stroke:none;stroke-width:0.03527779"
       id="path2986"
       inkscape:connector-curvature="0" />
    <path
       d="m 143.05024,152.97014 c 1.41208,0.21144 2.37206,-0.61828 2.8228,-1.55305 0.4933,-1.01185 0.42286,-2.1048 -0.15679,-2.48242 -6.32778,-4.80534 -15.83074,-6.5113 -18.72403,-6.41157 -0.0611,0.001 -0.10516,0.052 -0.10365,0.11307 0,0.0599 0.052,0.10629 0.11156,0.10629 2.87068,-0.0999 12.29652,1.59292 18.59242,6.37033 0.47731,0.31246 0.51323,1.32434 0.0852,2.20988 -0.23142,0.476 -1.13818,1.97051 -3.15392,1.29641 -0.66219,-0.29775 -1.36158,-0.67681 -2.17396,-1.11557 -3.46374,-1.86682 -8.21059,-4.42639 -17.08596,-4.56868 -0.0626,-0.001 -0.11156,0.0479 -0.11156,0.1078 -0.001,0.0611 0.0437,0.10779 0.10628,0.11043 8.82355,0.14097 13.54243,2.68724 16.98623,4.54475 0.81506,0.43876 1.52112,0.82038 2.19922,1.12488 0.21144,0.0705 0.41218,0.11948 0.60633,0.14775"
       style="fill:#3c3c3d;fill-opacity:1;fill-rule:nonzero;stroke:none;stroke-width:0.03527779"
       id="path2988"
       inkscape:connector-curvature="0" />
    <path
       d="m 149.72635,135.54511 c 3.03026,0.82973 3.10738,3.1393 -2.11678,2.01178 -6.55513,-1.41208 -13.74588,-3.42917 -23.29004,2.05829 4.58595,-2.95446 11.43228,-7.89677 25.40682,-4.07007"
       style="fill:#606263;fill-opacity:1;fill-rule:nonzero;stroke:none;stroke-width:0.03527779"
       id="path2990"
       inkscape:connector-curvature="0" />
  </g>
</svg>
