<?xml version="1.0" encoding="UTF-8" standalone="no"?>
<!-- Created with Inkscape (http://www.inkscape.org/) -->

<svg
   xmlns:dc="http://purl.org/dc/elements/1.1/"
   xmlns:cc="http://creativecommons.org/ns#"
   xmlns:rdf="http://www.w3.org/1999/02/22-rdf-syntax-ns#"
   xmlns:svg="http://www.w3.org/2000/svg"
   xmlns="http://www.w3.org/2000/svg"
   xmlns:sodipodi="http://sodipodi.sourceforge.net/DTD/sodipodi-0.dtd"
   xmlns:inkscape="http://www.inkscape.org/namespaces/inkscape"
   width="1000"
   height="1000"
   viewBox="0 0 264.58333 264.58334"
   version="1.1"
   id="svg2383"
   inkscape:version="0.92.5 (2060ec1f9f, 2020-04-08)"
   sodipodi:docname="Turkey.svg"
   enable-background="new">
  <defs
     id="defs2377">
    <clipPath
       clipPathUnits="userSpaceOnUse"
       id="clipPath5916">
      <path
         d="m 1908.28,4882.55 c -1.62,-2.8 -4.62,-4.09 -6.71,-2.88 -2.08,1.21 -2.47,4.45 -0.85,7.25 1.62,2.79 4.62,4.08 6.71,2.88 2.08,-1.22 2.47,-4.46 0.85,-7.25 z"
         id="path5914"
         inkscape:connector-curvature="0" />
    </clipPath>
    <radialGradient
       fx="0"
       fy="0"
       cx="0"
       cy="0"
       r="1"
       gradientUnits="userSpaceOnUse"
       gradientTransform="matrix(0.24706956,-1.3425033,-1.3425033,-0.24706956,1314.3413,5339.7444)"
       spreadMethod="pad"
       id="radialGradient5922">
      <stop
         style="stop-opacity:1;stop-color:#ffffff"
         offset="0"
         id="stop5918" />
      <stop
         style="stop-opacity:1;stop-color:#f0396c"
         offset="1"
         id="stop5920" />
    </radialGradient>
    <clipPath
       clipPathUnits="userSpaceOnUse"
       id="clipPath5900">
      <path
         d="m 1812.08,4879.41 c 0.02,-3.23 -1.91,-5.87 -4.33,-5.88 -2.4,-0.02 -4.38,2.58 -4.4,5.81 -0.02,3.24 1.92,5.87 4.33,5.89 2.41,0.01 4.38,-2.59 4.4,-5.82 z"
         id="path5898"
         inkscape:connector-curvature="0" />
    </clipPath>
    <radialGradient
       fx="0"
       fy="0"
       cx="0"
       cy="0"
       r="1"
       gradientUnits="userSpaceOnUse"
       gradientTransform="matrix(0.89284273,-1.0324832,-1.0324832,-0.89284273,1288.7422,5338.3265)"
       spreadMethod="pad"
       id="radialGradient5906">
      <stop
         style="stop-opacity:1;stop-color:#ffffff"
         offset="0"
         id="stop5902" />
      <stop
         style="stop-opacity:1;stop-color:#f0396c"
         offset="1"
         id="stop5904" />
    </radialGradient>
    <clipPath
       clipPathUnits="userSpaceOnUse"
       id="clipPath5884">
      <path
         d="m 1771.08,4893.41 c 2.46,-2.1 3.18,-5.28 1.62,-7.12 -1.57,-1.84 -4.83,-1.62 -7.29,0.48 -2.46,2.1 -3.18,5.28 -1.62,7.12 1.57,1.83 4.83,1.62 7.29,-0.48 z"
         id="path5882"
         inkscape:connector-curvature="0" />
    </clipPath>
    <radialGradient
       fx="0"
       fy="0"
       cx="0"
       cy="0"
       r="1"
       gradientUnits="userSpaceOnUse"
       gradientTransform="matrix(1.3656555,0,0,-1.3656555,1278.301,5341.157)"
       spreadMethod="pad"
       id="radialGradient5890">
      <stop
         style="stop-opacity:1;stop-color:#ffffff"
         offset="0"
         id="stop5886" />
      <stop
         style="stop-opacity:1;stop-color:#f0396c"
         offset="1"
         id="stop5888" />
    </radialGradient>
    <clipPath
       clipPathUnits="userSpaceOnUse"
       id="clipPath5916-3">
      <path
         d="m 1908.28,4882.55 c -1.62,-2.8 -4.62,-4.09 -6.71,-2.88 -2.08,1.21 -2.47,4.45 -0.85,7.25 1.62,2.79 4.62,4.08 6.71,2.88 2.08,-1.22 2.47,-4.46 0.85,-7.25 z"
         id="path5914-6"
         inkscape:connector-curvature="0" />
    </clipPath>
    <radialGradient
       fx="0"
       fy="0"
       cx="0"
       cy="0"
       r="1"
       gradientUnits="userSpaceOnUse"
       gradientTransform="matrix(0.2470695,-1.342503,-1.342503,-0.2470695,1291.8947,5325.7151)"
       spreadMethod="pad"
       id="radialGradient5922-7">
      <stop
         style="stop-opacity:1;stop-color:#ffffff"
         offset="0"
         id="stop5918-5" />
      <stop
         style="stop-opacity:1;stop-color:#f0396c"
         offset="1"
         id="stop5920-3" />
    </radialGradient>
    <clipPath
       clipPathUnits="userSpaceOnUse"
       id="clipPath5900-5">
      <path
         d="m 1812.08,4879.41 c 0.02,-3.23 -1.91,-5.87 -4.33,-5.88 -2.4,-0.02 -4.38,2.58 -4.4,5.81 -0.02,3.24 1.92,5.87 4.33,5.89 2.41,0.01 4.38,-2.59 4.4,-5.82 z"
         id="path5898-6"
         inkscape:connector-curvature="0" />
    </clipPath>
    <radialGradient
       fx="0"
       fy="0"
       cx="0"
       cy="0"
       r="1"
       gradientUnits="userSpaceOnUse"
       gradientTransform="matrix(0.89284251,-1.032483,-1.032483,-0.89284251,1266.2956,5324.2972)"
       spreadMethod="pad"
       id="radialGradient5906-2">
      <stop
         style="stop-opacity:1;stop-color:#ffffff"
         offset="0"
         id="stop5902-9" />
      <stop
         style="stop-opacity:1;stop-color:#f0396c"
         offset="1"
         id="stop5904-1" />
    </radialGradient>
    <clipPath
       clipPathUnits="userSpaceOnUse"
       id="clipPath5884-2">
      <path
         d="m 1771.08,4893.41 c 2.46,-2.1 3.18,-5.28 1.62,-7.12 -1.57,-1.84 -4.83,-1.62 -7.29,0.48 -2.46,2.1 -3.18,5.28 -1.62,7.12 1.57,1.83 4.83,1.62 7.29,-0.48 z"
         id="path5882-7"
         inkscape:connector-curvature="0" />
    </clipPath>
    <radialGradient
       fx="0"
       fy="0"
       cx="0"
       cy="0"
       r="1"
       gradientUnits="userSpaceOnUse"
       gradientTransform="matrix(1.3656552,0,0,-1.3656552,1255.8543,5327.1278)"
       spreadMethod="pad"
       id="radialGradient5890-0">
      <stop
         style="stop-opacity:1;stop-color:#ffffff"
         offset="0"
         id="stop5886-9" />
      <stop
         style="stop-opacity:1;stop-color:#f0396c"
         offset="1"
         id="stop5888-3" />
    </radialGradient>
  </defs>
  <sodipodi:namedview
     id="base"
     pagecolor="#ffffff"
     bordercolor="#666666"
     borderopacity="1.0"
     inkscape:pageopacity="0.0"
     inkscape:pageshadow="2"
     inkscape:zoom="0.70710678"
     inkscape:cx="397.01085"
     inkscape:cy="565.18284"
     inkscape:document-units="px"
     inkscape:current-layer="layer1"
     showgrid="false"
     units="px"
     inkscape:window-width="1920"
     inkscape:window-height="1031"
     inkscape:window-x="0"
     inkscape:window-y="25"
     inkscape:window-maximized="1"
     showguides="true"
     inkscape:lockguides="true"
     inkscape:object-nodes="false"
     inkscape:snap-nodes="false"
     inkscape:snap-others="false" />
  <metadata
     id="metadata2380">
    <rdf:RDF>
      <cc:Work
         rdf:about="">
        <dc:format>image/svg+xml</dc:format>
        <dc:type
           rdf:resource="http://purl.org/dc/dcmitype/StillImage" />
        <dc:title></dc:title>
      </cc:Work>
    </rdf:RDF>
  </metadata>
  <g
     inkscape:groupmode="layer"
     id="layer3"
     inkscape:label="Layer 2" />
  <g
     inkscape:groupmode="layer"
     id="layer2"
     inkscape:label="Layer 3" />
  <g
     inkscape:label="Layer 1"
     inkscape:groupmode="layer"
     id="layer1"
     transform="translate(0,-32.41665)">
    <text
       xml:space="preserve"
       style="font-style:normal;font-variant:normal;font-weight:bold;font-stretch:normal;font-size:10.58333302px;line-height:1.25;font-family:sans-serif;-inkscape-font-specification:'sans-serif Bold';letter-spacing:0px;word-spacing:0px;fill:#000000;fill-opacity:1;stroke:none;stroke-width:0.26458332"
       x="150.05655"
       y="89.869026"
       id="text8811" />
    <text
       xml:space="preserve"
       style="font-style:normal;font-variant:normal;font-weight:bold;font-stretch:normal;font-size:10.58333302px;line-height:1.25;font-family:sans-serif;-inkscape-font-specification:'sans-serif Bold';letter-spacing:0px;word-spacing:0px;fill:#000000;fill-opacity:1;stroke:none;stroke-width:0.26458332"
       x="160.63989"
       y="97.806526"
       id="text8815" />
    <text
       xml:space="preserve"
       style="font-style:normal;font-variant:normal;font-weight:bold;font-stretch:normal;font-size:10.58333302px;line-height:1.25;font-family:sans-serif;-inkscape-font-specification:'sans-serif Bold';letter-spacing:0px;word-spacing:0px;fill:#000000;fill-opacity:1;stroke:none;stroke-width:0.26458332"
       x="156.86011"
       y="88.7351"
       id="text8819" />
    <flowRoot
       xml:space="preserve"
       id="flowRoot8821"
       style="font-style:normal;font-variant:normal;font-weight:bold;font-stretch:normal;font-size:40px;line-height:1.25;font-family:sans-serif;-inkscape-font-specification:'sans-serif Bold';letter-spacing:0px;word-spacing:0px;fill:#000000;fill-opacity:1;stroke:none"><flowRegion
         id="flowRegion8823"
         style="font-style:normal;font-variant:normal;font-weight:bold;font-stretch:normal;font-family:sans-serif;-inkscape-font-specification:'sans-serif Bold'" /><flowPara
         id="flowPara8827" /></flowRoot>    <flowRoot
       xml:space="preserve"
       id="flowRoot8829"
       style="font-style:normal;font-variant:normal;font-weight:bold;font-stretch:normal;font-size:40px;line-height:1.25;font-family:sans-serif;-inkscape-font-specification:'sans-serif Bold';letter-spacing:0px;word-spacing:0px;fill:#000000;fill-opacity:1;stroke:none"><flowRegion
         id="flowRegion8831"
         style="font-style:normal;font-variant:normal;font-weight:bold;font-stretch:normal;font-family:sans-serif;-inkscape-font-specification:'sans-serif Bold'" /><flowPara
         id="flowPara8835" /></flowRoot>    <flowRoot
       xml:space="preserve"
       id="flowRoot8837"
       style="font-style:normal;font-variant:normal;font-weight:bold;font-stretch:normal;font-size:40px;line-height:1.25;font-family:sans-serif;-inkscape-font-specification:'sans-serif Bold';letter-spacing:0px;word-spacing:0px;fill:#000000;fill-opacity:1;stroke:none"><flowRegion
         id="flowRegion8839"
         style="font-style:normal;font-variant:normal;font-weight:bold;font-stretch:normal;font-family:sans-serif;-inkscape-font-specification:'sans-serif Bold'" /><flowPara
         id="flowPara8843" /></flowRoot>    <text
       xml:space="preserve"
       style="font-style:normal;font-variant:normal;font-weight:bold;font-stretch:normal;font-size:10.58333302px;line-height:1.25;font-family:sans-serif;-inkscape-font-specification:'sans-serif Bold';letter-spacing:0px;word-spacing:0px;fill:#000000;fill-opacity:1;stroke:none;stroke-width:0.26458332"
       x="209.39882"
       y="107.25594"
       id="text8847" />
    <flowRoot
       xml:space="preserve"
       id="flowRoot8849"
       style="font-style:normal;font-variant:normal;font-weight:bold;font-stretch:normal;font-size:40px;line-height:1.25;font-family:sans-serif;-inkscape-font-specification:'sans-serif Bold';letter-spacing:0px;word-spacing:0px;fill:#000000;fill-opacity:1;stroke:none"><flowRegion
         id="flowRegion8851"
         style="font-style:normal;font-variant:normal;font-weight:bold;font-stretch:normal;font-family:sans-serif;-inkscape-font-specification:'sans-serif Bold'" /><flowPara
         id="flowPara8855" /></flowRoot>    <flowRoot
       xml:space="preserve"
       id="flowRoot8857"
       style="font-style:normal;font-variant:normal;font-weight:bold;font-stretch:normal;font-size:40px;line-height:1.25;font-family:sans-serif;-inkscape-font-specification:'sans-serif Bold';letter-spacing:0px;word-spacing:0px;fill:#000000;fill-opacity:1;stroke:none"><flowRegion
         id="flowRegion8859"
         style="font-style:normal;font-variant:normal;font-weight:bold;font-stretch:normal;font-family:sans-serif;-inkscape-font-specification:'sans-serif Bold'" /><flowPara
         id="flowPara8863" /></flowRoot>    <flowRoot
       xml:space="preserve"
       id="flowRoot8865"
       style="font-style:normal;font-variant:normal;font-weight:bold;font-stretch:normal;font-size:40px;line-height:1.25;font-family:sans-serif;-inkscape-font-specification:'sans-serif Bold';letter-spacing:0px;word-spacing:0px;fill:#000000;fill-opacity:1;stroke:none"><flowRegion
         id="flowRegion8867"
         style="font-style:normal;font-variant:normal;font-weight:bold;font-stretch:normal;font-family:sans-serif;-inkscape-font-specification:'sans-serif Bold'" /><flowPara
         id="flowPara8871" /></flowRoot>    <flowRoot
       xml:space="preserve"
       id="flowRoot8873"
       style="font-style:normal;font-variant:normal;font-weight:bold;font-stretch:normal;font-size:40px;line-height:1.25;font-family:sans-serif;-inkscape-font-specification:'sans-serif Bold';letter-spacing:0px;word-spacing:0px;fill:#000000;fill-opacity:1;stroke:none"><flowRegion
         id="flowRegion8875"
         style="font-style:normal;font-variant:normal;font-weight:bold;font-stretch:normal;font-family:sans-serif;-inkscape-font-specification:'sans-serif Bold'" /><flowPara
         id="flowPara8879" /></flowRoot>    <text
       xml:space="preserve"
       style="font-style:normal;font-weight:normal;font-size:10.58333302px;line-height:1.25;font-family:sans-serif;letter-spacing:0px;word-spacing:0px;fill:#000000;fill-opacity:1;stroke:none;stroke-width:0.26458332"
       x="101.02788"
       y="69.125984"
       id="text977"><tspan
         sodipodi:role="line"
         id="tspan975"
         x="101.02788"
         y="78.489754"
         style="stroke-width:0.26458332" /><tspan
         sodipodi:role="line"
         x="101.02788"
         y="91.718918"
         style="stroke-width:0.26458332"
         id="tspan979" /><tspan
         sodipodi:role="line"
         x="101.02788"
         y="104.94809"
         style="stroke-width:0.26458332"
         id="tspan981" /><tspan
         sodipodi:role="line"
         x="101.02788"
         y="118.17725"
         style="stroke-width:0.26458332"
         id="tspan983" /><tspan
         sodipodi:role="line"
         x="101.02788"
         y="131.40642"
         style="stroke-width:0.26458332"
         id="tspan985" /><tspan
         sodipodi:role="line"
         x="101.02788"
         y="144.63559"
         style="stroke-width:0.26458332"
         id="tspan987" /><tspan
         sodipodi:role="line"
         x="101.02788"
         y="157.86475"
         style="stroke-width:0.26458332"
         id="tspan989" /><tspan
         sodipodi:role="line"
         x="101.02788"
         y="171.09392"
         style="stroke-width:0.26458332"
         id="tspan991" /><tspan
         sodipodi:role="line"
         x="101.02788"
         y="184.32309"
         style="stroke-width:0.26458332"
         id="tspan993" /><tspan
         sodipodi:role="line"
         x="101.02788"
         y="197.55225"
         style="stroke-width:0.26458332"
         id="tspan995" /><tspan
         sodipodi:role="line"
         x="101.02788"
         y="210.78142"
         style="stroke-width:0.26458332"
         id="tspan997" /><tspan
         sodipodi:role="line"
         x="101.02788"
         y="224.01059"
         style="stroke-width:0.26458332"
         id="tspan999" /><tspan
         sodipodi:role="line"
         x="101.02788"
         y="237.23975"
         style="stroke-width:0.26458332"
         id="tspan1001" /><tspan
         sodipodi:role="line"
         x="101.02788"
         y="250.46892"
         style="stroke-width:0.26458332"
         id="tspan1003" /><tspan
         sodipodi:role="line"
         x="101.02788"
         y="263.69809"
         style="stroke-width:0.26458332"
         id="tspan1005" /><tspan
         sodipodi:role="line"
         x="101.02788"
         y="276.92725"
         style="stroke-width:0.26458332"
         id="tspan1007" /><tspan
         sodipodi:role="line"
         x="101.02788"
         y="290.1564"
         style="stroke-width:0.26458332"
         id="tspan1009" /><tspan
         sodipodi:role="line"
         x="101.02788"
         y="303.38559"
         style="stroke-width:0.26458332"
         id="tspan1011" /><tspan
         sodipodi:role="line"
         x="101.02788"
         y="316.61475"
         style="stroke-width:0.26458332"
         id="tspan1013" /><tspan
         sodipodi:role="line"
         x="101.02788"
         y="329.8439"
         style="stroke-width:0.26458332"
         id="tspan1015" /><tspan
         sodipodi:role="line"
         x="101.02788"
         y="343.07309"
         style="stroke-width:0.26458332"
         id="tspan1017" /><tspan
         sodipodi:role="line"
         x="101.02788"
         y="356.30225"
         style="stroke-width:0.26458332"
         id="tspan1019" /><tspan
         sodipodi:role="line"
         x="101.02788"
         y="369.5314"
         style="stroke-width:0.26458332"
         id="tspan1021" /><tspan
         sodipodi:role="line"
         x="101.02788"
         y="382.76059"
         style="stroke-width:0.26458332"
         id="tspan1023" /></text>
    <path
       d="M 196.49095,132.68034 C 158.55677,112.59422 134.03573,152.99382 96.102614,132.90627 91.132938,110.50434 86.163273,88.101093 81.194627,65.697848 119.1283,85.785281 143.64934,45.38305 181.58353,65.470415 c 4.96917,22.403245 9.93783,44.806485 14.90742,67.209735"
       style="fill:#e7252e;fill-opacity:1;fill-rule:nonzero;stroke:none;stroke-width:0.03527778"
       id="path2698"
       inkscape:connector-curvature="0" />
    <path
       d="m 141.2381,103.791 c 2.01628,0.19821 4.03454,0.4005 6.05955,0.63581 -1.49734,-1.53329 -2.99415,-3.056 -4.48792,-4.574788 0.8474,-2.122812 1.69614,-4.241653 2.54923,-6.343333 -1.77466,1.155265 -3.54151,2.34886 -5.30744,3.547738 -1.53289,-1.554454 -3.06751,-3.107558 -4.59948,-4.662012 0.41729,2.309218 0.83498,4.61971 1.25267,6.930239 -1.72297,1.167146 -3.44647,2.328996 -5.17882,3.452526 1.97914,0.23793 3.94836,0.44018 5.91877,0.63581 0.41042,2.27216 0.82137,4.54436 1.23192,6.81652 0.85402,-2.14395 1.70751,-4.29321 2.56152,-6.43851"
       style="fill:#ffffff;fill-opacity:1;fill-rule:nonzero;stroke:none;stroke-width:0.03527778"
       id="path2700"
       inkscape:connector-curvature="0" />
    <path
       d="m 135.55012,111.05827 c -1.52417,6.07899 -4.84111,9.5289 -10.74005,10.64318 -8.82621,1.7633 -18.20996,-5.36519 -20.51849,-17.32092 -1.90168,-9.844793 3.80534,-16.470975 12.63155,-18.235589 6.67405,-1.251746 12.33097,0.692604 16.09547,6.441163 -2.64982,-2.815454 -7.17805,-4.220521 -12.01757,-3.094369 -7.12373,1.723623 -10.43604,7.687625 -8.66865,15.659415 1.77716,8.01146 9.36828,14.12215 15.19399,12.79772 4.21643,-0.95702 6.05915,-3.57022 8.02375,-6.8906"
       style="fill:#ffffff;fill-opacity:1;fill-rule:nonzero;stroke:none;stroke-width:0.03527778"
       id="path2702"
       inkscape:connector-curvature="0" />
    <path
       d="m 100.90962,260.37977 c -0.88495,1.28479 -2.42102,6.33805 0.95103,7.58189 3.75789,1.38922 5.33784,-3.11947 5.4835,-5.06251 -3.39492,-2.30922 -6.43453,-2.51938 -6.43453,-2.51938"
       style="fill:#e5e3de;fill-opacity:1;fill-rule:nonzero;stroke:none;stroke-width:0.03527778"
       id="path2704"
       inkscape:connector-curvature="0" />
    <path
       d="m 102.84592,256.85058 c -1.30633,1.08123 -4.473506,7.47477 -0.26542,9.2698 4.21008,1.79763 6.13449,-4.29324 6.00746,-7.26861 -3.59675,-1.55442 -5.74204,-2.00119 -5.74204,-2.00119"
       style="fill:#4c4d4f;fill-opacity:1;fill-rule:nonzero;stroke:none;stroke-width:0.03527778"
       id="path2706"
       inkscape:connector-curvature="0" />
    <path
       d="m 104.4609,264.80914 c -3.22282,-1.37468 -2.11792,-5.44184 -0.83696,-7.76032 -0.16471,-0.0476 -0.30507,-0.0832 -0.41822,-0.1109 -1.37811,1.4051 -4.164209,7.39683 -0.11248,9.12574 0.5886,0.24991 1.12604,0.33309 1.62489,0.30537 0.77392,-0.17835 1.42755,-0.67148 1.96764,-1.33635 -0.65575,0.1746 -1.39397,0.13226 -2.22486,-0.22332"
       style="fill:#3c3c3d;fill-opacity:1;fill-rule:nonzero;stroke:none;stroke-width:0.03527778"
       id="path2708"
       inkscape:connector-curvature="0" />
    <path
       d="m 103.11385,258.3733 c 1.30013,-0.25366 3.8027,0.75079 4.32732,1.69454 0.52767,0.94114 -0.27771,1.56896 -0.8018,1.47645 -0.52462,-0.0926 -1.9868,-0.96755 -3.6959,-1.34823 -1.70539,-0.38068 -0.86842,-1.62055 0.17037,-1.82276"
       style="fill:#e5e3de;fill-opacity:1;fill-rule:nonzero;stroke:none;stroke-width:0.03527778"
       id="path2710"
       inkscape:connector-curvature="0" />
    <path
       d="m 151.12572,258.79362 c 0.97443,0.43486 1.9342,2.04881 1.54175,4.99773 -0.39033,2.94764 -1.37692,7.03728 -4.94222,7.5237 -3.69285,0.50099 -3.07888,-2.97537 -3.07888,-2.97537 l 6.47935,-9.54606"
       style="fill:#e5e3de;fill-opacity:1;fill-rule:nonzero;stroke:none;stroke-width:0.03527778"
       id="path2712"
       inkscape:connector-curvature="0" />
    <path
       d="m 148.45991,256.81225 c 1.19227,0.67147 3.38104,1.6443 3.11298,3.89799 -0.2658,2.24837 -1.04145,8.47409 -4.5819,8.83495 -3.54204,0.35557 -3.15012,-2.59076 -2.60951,-4.53117 0.54115,-1.94173 -0.31552,-4.51926 -0.31552,-4.51926 l 4.39394,-3.68251"
       style="fill:#4c4d4f;fill-opacity:1;fill-rule:nonzero;stroke:none;stroke-width:0.03527778"
       id="path2714"
       inkscape:connector-curvature="0" />
    <path
       d="m 148.34583,257.61059 -1.14467,0.95833 c 1.22161,0.66881 2.95806,1.65884 2.71842,3.67989 -0.18214,1.53066 -0.60407,4.90522 -1.97227,7.01746 2.16855,-1.0191 3.03288,-4.54702 3.4129,-6.9725 0.0387,-0.29225 0.0718,-0.56311 0.0986,-0.78515 0.26793,-2.25238 -1.92019,-3.22656 -3.11298,-3.89803"
       style="fill:#3c3c3d;fill-opacity:1;fill-rule:nonzero;stroke:none;stroke-width:0.03527778"
       id="path2716"
       inkscape:connector-curvature="0" />
    <path
       d="m 143.68859,261.83111 c 0.69699,-1.13278 3.12633,-2.29198 4.17611,-2.0448 1.05321,0.25104 0.9706,1.2689 0.54723,1.58877 -0.42496,0.32523 -2.05752,0.80894 -3.493,1.80692 -1.43535,1.00194 -1.78127,-0.45075 -1.23034,-1.35089"
       style="fill:#e5e3de;fill-opacity:1;fill-rule:nonzero;stroke:none;stroke-width:0.03527778"
       id="path2718"
       inkscape:connector-curvature="0" />
    <path
       d="m 112.09802,226.70684 c 0,0 -5.04876,15.93436 -9.202,29.37181 0.88336,1.67735 4.72955,4.18613 6.37096,2.70571 3.71189,-7.61227 10.6963,-19.26792 14.72833,-19.24413 4.05318,1.01645 14.13708,20.07027 19.34631,21.77936 4.84415,-0.57102 5.52778,-4.97131 5.52778,-4.97131 0,0 -8.50752,-10.85727 -12.1931,-24.49961 -8.10332,-5.37447 -24.57828,-5.14183 -24.57828,-5.14183"
       style="fill:#588eb9;fill-opacity:1;fill-rule:nonzero;stroke:none;stroke-width:0.03527778"
       id="path2720"
       inkscape:connector-curvature="0" />
    <path
       d="m 112.54876,227.57528 -2.6255,7.63206 c 0,0 8.86018,-3.63361 16.91855,-2.09238 8.05573,1.54253 10.84078,4.12006 10.84078,4.12006 0,0 -1.41725,-4.41483 -2.1211,-6.96988 -4.53181,-1.84655 -23.01273,-2.68986 -23.01273,-2.68986"
       style="fill:#4275a4;fill-opacity:1;fill-rule:nonzero;stroke:none;stroke-width:0.03527778"
       id="path2722"
       inkscape:connector-curvature="0" />
    <path
       d="m 119.28533,238.17481 c 2.90744,0.45603 4.2184,1.36673 9.86131,-0.057 -3.01992,1.65359 -7.12478,1.82276 -9.86131,0.057"
       style="fill:#4275a4;fill-opacity:1;fill-rule:nonzero;stroke:none;stroke-width:0.03527778"
       id="path2724"
       inkscape:connector-curvature="0" />
    <path
       d="m 103.38073,254.02321 c 0,0 3.67686,3.6178 6.98242,3.04678 -0.45602,1.48439 -0.94033,2.3105 -0.94033,2.3105 0,0 -5.04545,0.34246 -6.88422,-2.90666 0.34235,-1.24114 0.84213,-2.45062 0.84213,-2.45062"
       style="fill:#3c6a95;fill-opacity:1;fill-rule:nonzero;stroke:none;stroke-width:0.03527778"
       id="path2726"
       inkscape:connector-curvature="0" />
    <path
       d="m 147.36942,254.1065 c 0,0 -1.00734,3.96278 -6.23045,6.02347 0.77708,1.47513 1.85978,2.04484 1.85978,2.04484 0,0 5.75817,-1.59545 5.98631,-6.04464 -0.73942,-1.0508 -1.61564,-2.02367 -1.61564,-2.02367"
       style="fill:#3c6a95;fill-opacity:1;fill-rule:nonzero;stroke:none;stroke-width:0.03527778"
       id="path2728"
       inkscape:connector-curvature="0" />
    <path
       d="m 123.33335,199.29792 c 0,0 -9.09877,0.34096 -17.99054,-3.70634 -0.91072,-0.45865 -1.72403,2.04353 -0.13417,3.30715 2.03584,1.61527 11.53326,3.70503 17.39824,3.80151 0.69487,-1.93247 0.72646,-3.40232 0.72646,-3.40232"
       style="fill:#fabd99;fill-opacity:1;fill-rule:nonzero;stroke:none;stroke-width:0.03527778"
       id="path2730"
       inkscape:connector-curvature="0" />
    <path
       d="m 118.36826,199.19878 c -0.0604,0.5089 -0.20184,1.66813 -0.331,2.6555 -0.67372,0.008 -1.74359,-0.0764 -3.12685,-0.4851 0.57525,-0.10192 1.30686,-0.34359 1.43442,-0.93188 0.17183,-0.78646 -1.00325,-1.51343 -1.49377,-1.77912 1.07965,0.29601 2.24904,0.49567 3.51719,0.5406"
       style="fill:#eaa376;fill-opacity:1;fill-rule:nonzero;stroke:none;stroke-width:0.03527778"
       id="path2732"
       inkscape:connector-curvature="0" />
    <path
       d="m 118.09716,196.99402 c 1.25571,0.35558 3.30821,0.81026 6.27248,0.81026 1.61141,0.77856 1.68887,2.3396 1.31559,4.00242 -0.74814,3.32303 -5.83047,3.19347 -9.30787,2.05143 -0.3573,-1.59275 0.17805,-5.51457 1.7198,-6.86411"
       style="fill:#4c4d4f;fill-opacity:1;fill-rule:nonzero;stroke:none;stroke-width:0.03527778"
       id="path2734"
       inkscape:connector-curvature="0" />
    <path
       d="m 136.10065,201.23703 c 0,0 -1.58101,-1.62584 -3.07478,-2.58945 0.33917,-1.70511 1.21897,-3.47104 1.21897,-3.47104 l -2.95701,-1.20944 c 0,0 -1.04555,2.6489 -1.33105,3.75655 -2.38493,-0.0884 -4.17347,0.0926 -4.17347,0.0926 0,0 -5.55157,4.17559 2.28011,6.15565 2.06017,0.51946 7.45418,0.534 8.03723,-2.73482"
       style="fill:#fabd99;fill-opacity:1;fill-rule:nonzero;stroke:none;stroke-width:0.03527778"
       id="path2736"
       inkscape:connector-curvature="0" />
    <path
       d="m 131.22174,193.93933 2.91418,1.33238 c 0,0 -0.78013,1.42227 -1.17561,2.79957 -1.02598,0.25891 -2.28275,-0.26453 -2.70719,-0.76927 0.3898,-1.14735 0.96862,-3.36268 0.96862,-3.36268"
       style="fill:#eaa376;fill-opacity:1;fill-rule:nonzero;stroke:none;stroke-width:0.03527778"
       id="path2738"
       inkscape:connector-curvature="0" />
    <path
       d="m 134.60635,199.7381 c 4.62935,2.58015 3.67263,7.30031 3.15885,8.73712 -1.03775,6.69096 -0.80908,17.28655 1.56554,22.4204 -5.51285,4.9515 -25.48397,0.5512 -29.66576,-3.54372 1.38591,-2.15455 6.687,-18.69429 10.07571,-26.51541 1.48346,-3.42083 4.56287,-3.25032 8.15235,-3.19213 -5.81395,3.03352 3.20273,5.28984 6.71331,2.09374"
       style="fill:#bcbbb9;fill-opacity:1;fill-rule:nonzero;stroke:none;stroke-width:0.03527778"
       id="path2740"
       inkscape:connector-curvature="0" />
    <path
       d="m 119.08032,206.02324 c 3.76145,-8.03788 9.06307,-4.78756 5.30162,-0.34096 -3.76344,4.44657 -8.3805,10.43171 -8.3805,10.43171 0,0 0.71258,-5.03344 3.07888,-10.09067"
       style="fill:#cdcbc9;fill-opacity:1;fill-rule:nonzero;stroke:none;stroke-width:0.03527778"
       id="path2742"
       inkscape:connector-curvature="0" />
    <path
       d="m 136.35259,209.90142 c -1.02652,7.8674 -0.74154,12.76996 0.91178,18.92426 -3.3065,2.10962 -15.10624,1.6536 -22.28945,-1.53857 13.11177,1.93776 15.22097,0.4005 21.37767,-17.38569"
       style="fill:#9c9c9b;fill-opacity:1;fill-rule:nonzero;stroke:none;stroke-width:0.03527778"
       id="path2744"
       inkscape:connector-curvature="0" />
    <path
       d="m 110.28715,225.97722 c -0.18176,0.38199 -0.49409,1.17902 -0.62217,1.37468 4.18179,4.09492 24.15291,8.49522 29.66576,3.54372 -0.20645,-0.44808 -0.3898,-0.94244 -0.56335,-1.46321 -5.37234,4.48617 -22.97824,0.37281 -28.48024,-3.45519"
       style="fill:#4c4d4f;fill-opacity:1;fill-rule:nonzero;stroke:none;stroke-width:0.03527778"
       id="path2746"
       inkscape:connector-curvature="0" />
    <path
       d="m 128.2576,197.64436 c -1.3678,0.85518 -2.50892,2.08183 -0.62733,2.82205 1.88198,0.74154 5.07334,0.25629 6.55575,-0.99797 0.428,0.17048 0.94125,0.54059 0.94125,0.54059 0,0 -3.93381,3.023 -8.12234,1.28349 -3.2761,-1.3588 0.1405,-3.67592 0.1405,-3.67592 l 1.11217,0.0262"
       style="fill:#ffffff;fill-opacity:1;fill-rule:nonzero;stroke:none;stroke-width:0.03527778"
       id="path2748"
       inkscape:connector-curvature="0" />
    <path
       d="m 122.98783,268.95566 c -0.47439,0 -0.902,-0.3316 -1.00166,-0.81423 L 80.303961,63.818356 c -0.116676,-0.553821 0.239049,-1.098425 0.793084,-1.214727 0.550921,-0.113529 1.09926,0.237925 1.214918,0.794406 L 123.99319,267.72107 c 0.11724,0.55517 -0.2386,1.09843 -0.79308,1.21473 -0.0702,0.015 -0.14196,0.0187 -0.21229,0.0187"
       style="fill:#48494d;fill-opacity:1;fill-rule:nonzero;stroke:none;stroke-width:0.03527778"
       id="path2750"
       inkscape:connector-curvature="0" />
    <path
       d="m 105.83849,199.20406 c -3.40933,-1.14466 -3.76304,-5.75909 -1.76739,-12.25574 -0.22773,-3.07979 1.02652,-3.81871 2.33748,-4.27605 0.96915,-0.34246 1.14111,0.8843 0.57049,1.25441 1.139,0.0581 0.8556,1.36805 0.39866,1.70908 1.25412,-0.0581 0.74034,1.14204 0.34235,1.48308 1.42503,0.11241 0.40011,1.4262 -0.11316,1.7104 -0.31552,0.1746 -1.31202,1.02573 -1.31202,1.02573 0,0 -1.5588,5.05985 0.11368,6.3288 -0.0568,1.0257 -0.5701,3.02029 -0.5701,3.02029"
       style="fill:#fabd99;fill-opacity:1;fill-rule:nonzero;stroke:none;stroke-width:0.03527778"
       id="path2752"
       inkscape:connector-curvature="0" />
    <path
       d="m 133.54375,205.22622 c 0,0 -6.27182,4.96071 -20.40851,1.14072 0.19364,-1.19625 -1.02532,-2.05147 -1.93724,-2.10962 0.16985,1.19625 -1.48345,1.48176 -2.05236,0.45472 -1.4824,0.91336 -0.9702,1.76854 -0.25194,1.88222 -0.94601,0.28664 -1.02651,1.3694 -0.1142,1.48308 -0.68364,1.02574 0.34287,1.48176 1.02651,1.59541 -0.45536,1.02704 1.96208,0.96889 3.61527,-0.39916 4.41204,1.53722 16.53192,2.67795 21.88985,-1.88095 0.79771,-2.16642 -1.76738,-2.16642 -1.76738,-2.16642"
       style="fill:#fabd99;fill-opacity:1;fill-rule:nonzero;stroke:none;stroke-width:0.03527778"
       id="path2754"
       inkscape:connector-curvature="0" />
    <path
       d="m 130.43289,206.70929 c 0.16153,0.48376 0.53123,1.59144 0.83644,2.53916 -0.60565,0.29488 -1.60943,0.67676 -3.03447,0.89883 0.47704,-0.33984 1.03471,-0.86975 0.8979,-1.454 -0.18071,-0.78646 -1.55365,-0.93847 -2.11237,-0.97414 1.10503,-0.19034 2.24654,-0.51021 3.4125,-1.00985"
       style="fill:#eaa376;fill-opacity:1;fill-rule:nonzero;stroke:none;stroke-width:0.03527778"
       id="path2756"
       inkscape:connector-curvature="0" />
    <path
       d="m 128.17181,204.89443 c 2.29042,-1.97342 7.17594,-4.49411 8.85304,-1.528 1.67803,2.96612 -2.73864,6.87471 -5.25628,8.19518 -1.33476,-0.94114 -3.83429,-4.63159 -3.59676,-6.66718"
       style="fill:#4c4d4f;fill-opacity:1;fill-rule:nonzero;stroke:none;stroke-width:0.03527778"
       id="path2758"
       inkscape:connector-curvature="0" />
    <path
       d="m 118.18083,161.41373 c -3.74599,5.55818 -9.33471,23.89025 6.53526,32.92876 15.78101,8.9843 28.34793,-0.16935 34.20787,-11.24724 7.06902,-13.36473 -1.62648,-25.33631 -11.2147,-29.52116 -14.96744,-6.52573 -24.51272,0.39522 -29.52843,7.83964"
       style="fill:#fabd99;fill-opacity:1;fill-rule:nonzero;stroke:none;stroke-width:0.03527778"
       id="path2760"
       inkscape:connector-curvature="0" />
    <path
       d="m 116.09793,165.57475 c 0.66196,-1.71834 1.4019,-3.15117 2.0829,-4.16102 5.01571,-7.44442 14.56099,-14.36537 29.52843,-7.83964 9.58822,4.18485 18.28372,16.15643 11.2147,29.52116 -0.82573,1.56105 -1.78866,3.07849 -2.87188,4.51791 0.18229,-1.14994 0.67901,-1.9536 0.67901,-1.9536 0,0 -2.6214,2.96083 -7.62363,0.84993 4.10486,-0.30799 7.89725,-4.08043 8.72747,-10.67225 -2.80883,6.84826 -6.51504,6.62618 -6.51504,6.62618 0,0 7.31897,-6.89715 1.5707,-13.79299 2.97512,6.50857 -2.59404,8.47011 -2.59404,8.47011 0,0 6.01262,-11.05293 -16.44257,-16.74461 -0.25141,4.76378 4.67072,7.45102 4.67072,7.45102 0,0 -4.93085,-0.10042 -10.33941,-8.59572 -1.47724,1.73554 -4.82669,5.06649 -8.6857,4.88143 4.01551,-2.61848 4.14663,-5.25019 4.14663,-5.25019 0,0 -4.5737,1.32575 -7.54829,6.69228"
       style="fill:#eaa376;fill-opacity:1;fill-rule:nonzero;stroke:none;stroke-width:0.03527778"
       id="path2762"
       inkscape:connector-curvature="0" />
    <path
       d="m 123.56718,178.31297 c -0.47083,1.52538 -3.03909,2.04484 -5.1824,0.80894 -2.1396,-1.23852 -2.82694,-3.44462 -2.15467,-5.22771 0.61556,-1.62452 3.10016,-2.36474 4.88499,-0.0187 1.6693,2.19284 2.94471,2.86038 2.45208,4.43728"
       style="fill:#f8a191;fill-opacity:1;fill-rule:nonzero;stroke:none;stroke-width:0.03527778"
       id="path2764"
       inkscape:connector-curvature="0" />
    <path
       d="m 118.2345,174.09114 c -0.0702,0.1982 -0.3319,0.28438 -0.58596,0.19446 -0.2567,-0.0858 -0.40791,-0.31736 -0.33771,-0.51553 0.0677,-0.19559 0.33044,-0.28289 0.58556,-0.19559 0.2555,0.091 0.40685,0.32111 0.33812,0.51684"
       style="fill:#fbccc0;fill-opacity:1;fill-rule:nonzero;stroke:none;stroke-width:0.03527778"
       id="path2766"
       inkscape:connector-curvature="0" />
    <path
       d="m 131.93538,177.11937 c -0.0707,0.19559 -0.36865,0.26978 -0.67121,0.16374 -0.3011,-0.10304 -0.48907,-0.34771 -0.41729,-0.54457 0.0666,-0.19446 0.36509,-0.26977 0.66566,-0.16373 0.30203,0.10304 0.49092,0.3477 0.42284,0.54456"
       style="fill:#fcd3bb;fill-opacity:1;fill-rule:nonzero;stroke:none;stroke-width:0.03527778"
       id="path2768"
       inkscape:connector-curvature="0" />
    <path
       d="m 148.68303,187.90927 c -0.78846,2.03293 -3.24199,2.80088 -5.97336,2.02765 -2.63647,-0.74285 -4.61085,-3.58079 -3.5008,-5.33877 1.05691,-1.67604 2.25843,-0.56045 5.62282,-0.64768 3.25812,-0.0821 4.63979,1.93247 3.85134,3.9588"
       style="fill:#f8a191;fill-opacity:1;fill-rule:nonzero;stroke:none;stroke-width:0.03527778"
       id="path2770"
       inkscape:connector-curvature="0" />
    <path
       d="m 147.21147,186.23058 c -0.0738,0.18621 -0.32264,0.2619 -0.56481,0.16785 -0.23965,-0.094 -0.37486,-0.31848 -0.30469,-0.50361 0.0707,-0.18359 0.32477,-0.25891 0.5648,-0.16673 0.2386,0.094 0.37487,0.31998 0.3047,0.5023"
       style="fill:#fbccc0;fill-opacity:1;fill-rule:nonzero;stroke:none;stroke-width:0.03527778"
       id="path2772"
       inkscape:connector-curvature="0" />
    <path
       d="m 125.95528,162.69586 c 2.62034,-0.24055 2.63065,2.59338 0.97998,2.29202 -1.77253,-0.32523 -3.37522,0.045 -3.56318,-0.16786 -0.41981,-0.46397 1.11163,-1.99062 2.5832,-2.12412"
       style="fill:#6d2217;fill-opacity:1;fill-rule:nonzero;stroke:none;stroke-width:0.03527778"
       id="path2774"
       inkscape:connector-curvature="0" />
    <path
       d="m 148.2282,170.6452 c -1.8114,-1.91003 -3.68823,0.21432 -2.24865,1.07726 1.5469,0.92524 2.50574,2.26028 2.78913,2.22461 0.62429,-0.0727 0.47506,-2.2299 -0.54048,-3.30187"
       style="fill:#6d2217;fill-opacity:1;fill-rule:nonzero;stroke:none;stroke-width:0.03527778"
       id="path2776"
       inkscape:connector-curvature="0" />
    <path
       d="m 159.26777,182.66039 c 1.86915,-3.77112 1.79935,-7.46689 0.53494,-10.89035 0.44201,2.72291 0.0375,6.29178 -1.43336,9.2619 -5.46435,11.01985 -18.92454,19.40933 -33.20411,10.85068 -7.09227,-4.25095 -8.81987,-9.35175 -10.1237,-13.42292 0.58451,5.21714 3.15793,10.53608 9.93164,14.99719 13.37916,8.81112 28.83594,0.22481 34.29459,-10.7965"
       style="fill:#eaa376;fill-opacity:1;fill-rule:nonzero;stroke:none;stroke-width:0.03527778"
       id="path2778"
       inkscape:connector-curvature="0" />
    <path
       d="m 125.71365,180.03266 c 0,0 -3.16717,8.93405 3.10624,11.36485 6.27183,2.42946 7.63236,-6.84297 7.63236,-6.84297 0,0 -5.02906,0.0397 -10.7386,-4.52188"
       style="fill:#461b1c;fill-opacity:1;fill-rule:nonzero;stroke:none;stroke-width:0.03527778"
       id="path2780"
       inkscape:connector-curvature="0" />
    <path
       d="m 131.31162,183.33981 c -0.3779,2.30652 -0.43738,5.68902 1.79528,7.73648 2.65603,-1.83333 3.34535,-6.52175 3.34535,-6.52175 0,0 -2.1092,0.007 -5.14063,-1.21473"
       style="fill:#2c1616;fill-opacity:1;fill-rule:nonzero;stroke:none;stroke-width:0.03527778"
       id="path2782"
       inkscape:connector-curvature="0" />
    <path
       d="m 125.55358,188.29921 c 0.56534,1.3033 1.56647,2.44006 3.26631,3.0983 3.1036,1.20285 5.00158,-0.46397 6.13132,-2.448 -0.14605,-0.47319 -1.08018,-1.16448 -2.21759,-0.90276 -0.71258,-2.01577 -5.07189,-1.56768 -7.18004,0.25253"
       style="fill:#ee5b63;fill-opacity:1;fill-rule:nonzero;stroke:none;stroke-width:0.03527778"
       id="path2784"
       inkscape:connector-curvature="0" />
    <path
       d="m 133.87777,188.5054 c -0.44915,-0.31062 -1.10027,-0.31848 -1.40745,-0.21545 -0.13073,-0.41241 -0.39139,-0.91468 -1.35948,-1.14998 -2.38704,-0.60669 -5.87118,1.28611 -3.0412,3.12607 2.86514,1.86244 7.47387,-0.61463 5.80813,-1.76064"
       style="fill:#f57880;fill-opacity:1;fill-rule:nonzero;stroke:none;stroke-width:0.03527778"
       id="path2786"
       inkscape:connector-curvature="0" />
    <path
       d="m 128.86378,187.64227 c 0.61702,-0.40582 1.95732,-0.47056 2.2423,-0.0674 0.34288,0.48245 -0.88957,0.88561 -1.63467,0.83139 -0.75489,-0.0554 -1.00523,-0.50095 -0.60763,-0.76398"
       style="fill:#f8a1a9;fill-opacity:1;fill-rule:nonzero;stroke:none;stroke-width:0.03527778"
       id="path2788"
       inkscape:connector-curvature="0" />
    <path
       d="m 127.44231,181.28437 c -0.46475,0.90411 -0.46779,1.6787 0.70161,2.46913 1.0926,0.74023 2.76759,1.46854 3.98352,1.7382 1.45808,0.32522 2.31527,-0.15063 2.46027,-1.16452 -2.47216,-0.57896 -4.39962,-1.27951 -7.1454,-3.04281"
       style="fill:#ffffff;fill-opacity:1;fill-rule:nonzero;stroke:none;stroke-width:0.03527778"
       id="path2790"
       inkscape:connector-curvature="0" />
    <path
       d="m 130.7365,179.40873 c -0.0311,0.004 -0.0605,-0.003 -0.0888,-0.0225 -0.7451,-0.5763 -1.01052,-1.3945 -0.70386,-2.1889 0.2809,-0.73491 0.99135,-1.24778 1.65278,-1.19888 0.41161,0.0337 1.14732,0.30687 1.46337,1.78312 0.0142,0.0648 -0.0274,0.12814 -0.0945,0.14276 -0.0723,0.0187 -0.13114,-0.0262 -0.14568,-0.0926 -0.20911,-0.97815 -0.65112,-1.54254 -1.24025,-1.58881 -0.56018,-0.045 -1.16371,0.40578 -1.40851,1.04158 -0.12649,0.3316 -0.31856,1.17906 0.62733,1.90471 0.0533,0.0435 0.0636,0.11915 0.0206,0.1731 -0.0206,0.0262 -0.0517,0.045 -0.0826,0.0465"
       style="fill:#ce6748;fill-opacity:1;fill-rule:nonzero;stroke:none;stroke-width:0.03527778"
       id="path2792"
       inkscape:connector-curvature="0" />
    <path
       d="m 141.46995,173.72766 c -1.9379,1.27156 -2.53417,3.78693 -1.3337,5.61633 1.20046,1.82936 3.7485,2.2801 5.68534,1.00588 1.93776,-1.27157 2.53508,-3.78829 1.33304,-5.61503 -1.20086,-1.83201 -3.74586,-2.28141 -5.68468,-1.00718"
       style="fill:#eaa376;fill-opacity:1;fill-rule:nonzero;stroke:none;stroke-width:0.03527778"
       id="path2794"
       inkscape:connector-curvature="0" />
    <path
       d="m 145.02018,179.90047 c 1.19372,0.55382 1.2836,1.21604 0.20091,1.48173 -1.08388,0.25778 -2.93071,0.0187 -4.12086,-0.534 -1.19478,-0.55649 -1.28413,-1.2187 -0.20199,-1.48308 1.08335,-0.25891 2.92608,-0.0187 4.12191,0.53535"
       style="fill:#eaa376;fill-opacity:1;fill-rule:nonzero;stroke:none;stroke-width:0.03527778"
       id="path2796"
       inkscape:connector-curvature="0" />
    <path
       d="m 141.38575,173.56242 c -1.88978,1.23983 -2.47164,3.68914 -1.30013,5.47489 1.16795,1.7805 3.6499,2.22064 5.53968,0.98077 1.88926,-1.24114 2.47019,-3.69176 1.29854,-5.47226 -1.17045,-1.78309 -3.65042,-2.22327 -5.53809,-0.9834"
       style="fill:#ffffff;fill-opacity:1;fill-rule:nonzero;stroke:none;stroke-width:0.03527778"
       id="path2798"
       inkscape:connector-curvature="0" />
    <path
       d="m 146.96059,176.45187 c -0.0966,1.05879 -0.67743,2.08715 -1.66931,2.73614 -1.6734,1.09973 -3.87037,0.71111 -4.90614,-0.86976 -0.2933,-0.4428 -0.45853,-0.93188 -0.51219,-1.43283 -0.0671,0.73097 0.0954,1.46854 0.51629,2.11356 1.03682,1.57824 3.23379,1.96687 4.90772,0.86975 1.20509,-0.79043 1.80453,-2.13472 1.66363,-3.41686"
       style="fill:#dcdbdb;fill-opacity:1;fill-rule:nonzero;stroke:none;stroke-width:0.03527778"
       id="path2800"
       inkscape:connector-curvature="0" />
    <path
       d="m 141.73629,176.68452 c -0.43316,1.14466 0.0904,2.40435 1.17205,2.8141 1.08123,0.40844 2.30707,-0.18884 2.74075,-1.33369 0.43316,-1.14335 -0.0909,-2.40435 -1.17204,-2.8141 -1.08124,-0.40714 -2.30747,0.18921 -2.74076,1.33369"
       style="fill:#7ab9dd;fill-opacity:1;fill-rule:nonzero;stroke:none;stroke-width:0.03527778"
       id="path2802"
       inkscape:connector-curvature="0" />
    <path
       d="m 142.50611,177.02818 c -0.26794,0.70583 0.0579,1.48569 0.72699,1.74082 0.6687,0.24991 1.42662,-0.11878 1.69878,-0.8248 0.26595,-0.70984 -0.0593,-1.49233 -0.72805,-1.74348 -0.66764,-0.25516 -1.42768,0.11615 -1.69772,0.82746"
       style="fill:#231f20;fill-opacity:1;fill-rule:nonzero;stroke:none;stroke-width:0.03527778"
       id="path2804"
       inkscape:connector-curvature="0" />
    <path
       d="m 142.72712,176.26682 c -0.1084,0.29075 0.024,0.61066 0.29794,0.71246 0.27375,0.10566 0.58398,-0.0465 0.6966,-0.33459 0.10839,-0.29226 -0.0229,-0.61332 -0.29953,-0.71509 -0.27202,-0.10566 -0.58555,0.0465 -0.695,0.33722"
       style="fill:#ffffff;fill-opacity:1;fill-rule:nonzero;stroke:none;stroke-width:0.03527778"
       id="path2806"
       inkscape:connector-curvature="0" />
    <path
       d="m 143.77742,178.60114 c -0.0661,0.17573 0.0109,0.36869 0.17753,0.43223 0.16733,0.0622 0.35531,-0.03 0.42297,-0.20607 0.0645,-0.1746 -0.015,-0.36607 -0.18176,-0.42962 -0.16377,-0.0648 -0.35265,0.0262 -0.41874,0.20346"
       style="fill:#ffffff;fill-opacity:1;fill-rule:nonzero;stroke:none;stroke-width:0.03527778"
       id="path2808"
       inkscape:connector-curvature="0" />
    <path
       d="m 128.99027,170.28037 c 0.0469,2.29067 -1.66679,4.18747 -3.82609,4.23375 -2.1634,0.0465 -3.95708,-1.77256 -4.00718,-4.06061 -0.049,-2.29067 1.66309,-4.18481 3.8249,-4.23506 2.16353,-0.0476 3.95563,1.77125 4.00837,4.06192"
       style="fill:#eaa376;fill-opacity:1;fill-rule:nonzero;stroke:none;stroke-width:0.03527778"
       id="path2810"
       inkscape:connector-curvature="0" />
    <path
       d="m 126.48493,173.62585 c 1.17164,0.54592 1.26047,1.19626 0.19734,1.454 -1.06524,0.25367 -2.87597,0.0225 -4.04551,-0.52478 -1.17468,-0.54588 -1.26087,-1.19622 -0.19775,-1.45396 1.06313,-0.25516 2.87188,-0.0225 4.04591,0.52474"
       style="fill:#eaa376;fill-opacity:1;fill-rule:nonzero;stroke:none;stroke-width:0.03527778"
       id="path2812"
       inkscape:connector-curvature="0" />
    <path
       d="m 128.56267,170.2275 c 0.0485,2.26426 -1.64499,4.13858 -3.78049,4.18482 -2.13709,0.0465 -3.91122,-1.75004 -3.96184,-4.01299 -0.0475,-2.26822 1.643,-4.13857 3.7826,-4.18747 2.13709,-0.0465 3.90858,1.7527 3.95973,4.01564"
       style="fill:#ffffff;fill-opacity:1;fill-rule:nonzero;stroke:none;stroke-width:0.03527778"
       id="path2814"
       inkscape:connector-curvature="0" />
    <path
       d="m 128.02773,170.47202 c -0.008,-0.44939 -0.10479,-0.87238 -0.25815,-1.26493 0.048,0.22743 0.0769,0.46524 0.0831,0.70714 0.0428,1.99062 -1.44566,3.63893 -3.32566,3.67989 -1.11837,0.0225 -2.11277,-0.53134 -2.75305,-1.39979 0.57459,1.13807 1.70433,1.90471 3.00142,1.87961 1.83968,-0.0435 3.29671,-1.65622 3.2523,-3.60192"
       style="fill:#dcdbdb;fill-opacity:1;fill-rule:nonzero;stroke:none;stroke-width:0.03527778"
       id="path2816"
       inkscape:connector-curvature="0" />
    <path
       d="m 127.19698,171.61934 c -0.43474,1.1447 -1.66507,1.7448 -2.74895,1.33373 -1.08322,-0.4111 -1.60731,-1.67342 -1.17509,-2.81943 0.43316,-1.14998 1.66561,-1.74479 2.74579,-1.335 1.08744,0.40976 1.61154,1.67338 1.17825,2.8207"
       style="fill:#7ab9dd;fill-opacity:1;fill-rule:nonzero;stroke:none;stroke-width:0.03527778"
       id="path2818"
       inkscape:connector-curvature="0" />
    <path
       d="m 126.36517,171.39993 c -0.26119,0.68605 -0.99598,1.04424 -1.64551,0.79838 -0.64597,-0.2473 -0.96135,-1.00326 -0.7032,-1.68927 0.26329,-0.68601 0.99651,-1.04421 1.64551,-0.801 0.64848,0.24729 0.96241,1.00326 0.7032,1.69189"
       style="fill:#231f20;fill-opacity:1;fill-rule:nonzero;stroke:none;stroke-width:0.03527778"
       id="path2820"
       inkscape:connector-curvature="0" />
    <path
       d="m 125.30878,170.16141 c -0.11101,0.29225 -0.4239,0.4428 -0.69553,0.33834 -0.2752,-0.10304 -0.40936,-0.42298 -0.29847,-0.71246 0.11102,-0.29076 0.41981,-0.44149 0.69395,-0.34097 0.27479,0.10566 0.40896,0.42696 0.30005,0.71509"
       style="fill:#ffffff;fill-opacity:1;fill-rule:nonzero;stroke:none;stroke-width:0.03527778"
       id="path2822"
       inkscape:connector-curvature="0" />
    <path
       d="m 126.05957,172.17451 c -0.0666,0.17573 -0.25722,0.26715 -0.42245,0.20496 -0.16471,-0.0633 -0.24733,-0.25629 -0.18071,-0.43355 0.0671,-0.17311 0.25456,-0.26828 0.42139,-0.20346 0.16722,0.0607 0.24729,0.25629 0.18176,0.43224"
       style="fill:#ffffff;fill-opacity:1;fill-rule:nonzero;stroke:none;stroke-width:0.03527778"
       id="path2824"
       inkscape:connector-curvature="0" />
    <path
       d="m 154.37141,184.99337 c 0,0 2.17793,-2.1638 4.94541,-0.56705 2.91362,1.6866 1.09258,6.15562 -2.21192,7.45892 -3.29988,1.29802 -6.56831,-0.56967 -5.99768,-3.15514 l 3.26419,-3.73673"
       style="fill:#fabd99;fill-opacity:1;fill-rule:nonzero;stroke:none;stroke-width:0.03527778"
       id="path2826"
       inkscape:connector-curvature="0" />
    <path
       d="m 158.8609,184.46465 c -0.70266,-0.40316 -1.36316,-0.54723 -1.95533,-0.54723 0.46316,0.0187 0.9402,0.13601 1.3982,0.42958 2.66278,1.69324 0.84781,4.91181 -1.29126,6.11069 -2.89304,1.62186 -5.5299,0.19559 -5.83867,-1.99857 -0.52926,2.40304 2.53416,4.15046 5.6285,2.94634 3.09539,-1.20814 4.79458,-5.36654 2.05856,-6.94081"
       style="fill:#eaa376;fill-opacity:1;fill-rule:nonzero;stroke:none;stroke-width:0.03527778"
       id="path2828"
       inkscape:connector-curvature="0" />
    <path
       d="m 159.00448,185.87369 c -1.45188,-1.66416 -5.58305,0.80628 -4.66294,4.41217 0.94324,-3.24106 2.51037,-3.41026 2.82839,-1.28213 0.61596,-0.82483 0.58133,-1.6615 -0.52515,-2.36209 0.91244,-1.01513 2.3597,-0.76795 2.3597,-0.76795"
       style="fill:#d48a5b;fill-opacity:1;fill-rule:nonzero;stroke:none;stroke-width:0.03527778"
       id="path2830"
       inkscape:connector-curvature="0" />
    <path
       d="m 159.53885,184.93256 c -0.58806,0.38202 -3.00973,3.47636 -2.95553,4.09365 -0.74815,-2.22593 0.50611,-4.25754 0.50611,-4.25754 0,0 -3.70422,1.86638 -8.70737,-0.24467 4.10684,-0.30911 8.9831,-2.98331 9.81385,-9.57911 -2.80989,6.84826 -6.89254,6.36844 -6.89254,6.36844 0,0 7.69437,-6.63941 1.94503,-13.53394 2.97711,6.50726 -0.76215,8.84154 -0.76215,8.84154 0,0 2.42062,-12.90743 -18.27075,-17.11735 0.10678,3.01636 7.08142,6.19661 7.08142,6.19661 0,0 -7.08817,0.16112 -12.75077,-7.33996 -1.47818,1.73682 -6.10713,4.53511 -9.96561,4.34871 2.39114,-1.96155 5.42561,-4.71751 5.42561,-4.71751 0,0 -4.96668,1.42493 -7.91589,7.37038 2.1515,-7.40871 6.04316,-12.51614 6.04316,-12.51614 0,0 -3.29632,0.42298 -4.68672,-1.00854 6.8743,-1.15924 8.42332,-9.74303 15.21568,-9.06231 -0.21429,-0.99928 -3.74296,-2.2867 -3.74296,-2.2867 0,0 4.03877,-1.73287 6.46296,1.78444 1.84537,-3.0983 5.08326,-3.52923 5.08326,-3.52923 0,0 -1.97543,1.48967 -1.26245,3.35474 10.32143,-1.20945 21.5438,4.4188 23.60715,14.94826 6.72719,-0.12027 9.47985,9.26984 5.04756,15.71363 -4.20134,6.11466 -7.5853,13.24708 -5.54589,16.35467 -2.42976,-1.57296 -2.77316,-4.18219 -2.77316,-4.18219"
       style="fill:#6d2217;fill-opacity:1;fill-rule:nonzero;stroke:none;stroke-width:0.03527778"
       id="path2832"
       inkscape:connector-curvature="0" />
    <path
       d="m 160.71195,158.16604 c -1.57371,-9.81306 -8.41828,-13.06469 -16.25922,-12.56771 11.28701,2.63171 12.85969,9.0927 14.61728,12.51615 -7.19139,-5.83047 -11.45579,-3.95348 -11.45579,-3.95348 0,0 6.41432,0.4256 11.23375,6.3962 1.63108,2.01838 4.37081,4.96468 3.52354,13.55773 5.1328,-8.93671 -1.6627,-14.24112 -1.6627,-14.24112 0,0 6.19911,1.98272 7.35464,7.61887 0.0723,-8.11323 -7.3515,-9.32664 -7.3515,-9.32664"
       style="fill:#853d31;fill-opacity:1;fill-rule:nonzero;stroke:none;stroke-width:0.03527778"
       id="path2834"
       inkscape:connector-curvature="0" />
    <path
       d="m 166.34972,175.14198 c -0.96028,-6.60771 -18.4722,-26.24047 -44.2163,-22.2962 -2.8966,1.36014 -4.35944,7.6321 -4.35944,7.6321 0,0 30.07882,-3.80946 44.69243,22.24595 3.3903,-2.35414 3.88331,-7.58185 3.88331,-7.58185"
       style="fill:#e7252e;fill-opacity:1;fill-rule:nonzero;stroke:none;stroke-width:0.03527778"
       id="path2836"
       inkscape:connector-curvature="0" />
    <path
       d="m 165.60054,175.03624 c 0,0 -1.92337,-5.21321 -5.06465,-8.00618 2.4045,4.69109 4.66452,9.59893 2.68802,10.26512 -1.97649,0.66618 -2.94509,-5.886 -11.96746,-8.73184 4.15125,3.16837 8.52561,7.25273 11.42117,13.0687 2.53669,-3.41158 2.92292,-6.5958 2.92292,-6.5958"
       style="fill:#b72325;fill-opacity:1;fill-rule:nonzero;stroke:none;stroke-width:0.03527778"
       id="path2838"
       inkscape:connector-curvature="0" />
  </g>
</svg>
