<?xml version="1.0" encoding="UTF-8" standalone="no"?>
<!-- Created with Inkscape (http://www.inkscape.org/) -->

<svg
   xmlns:dc="http://purl.org/dc/elements/1.1/"
   xmlns:cc="http://creativecommons.org/ns#"
   xmlns:rdf="http://www.w3.org/1999/02/22-rdf-syntax-ns#"
   xmlns:svg="http://www.w3.org/2000/svg"
   xmlns="http://www.w3.org/2000/svg"
   xmlns:sodipodi="http://sodipodi.sourceforge.net/DTD/sodipodi-0.dtd"
   xmlns:inkscape="http://www.inkscape.org/namespaces/inkscape"
   width="1000"
   height="1000"
   viewBox="0 0 264.58333 264.58334"
   version="1.1"
   id="svg2383"
   inkscape:version="0.92.5 (2060ec1f9f, 2020-04-08)"
   sodipodi:docname="Russia.svg"
   enable-background="new">
  <defs
     id="defs2377">
    <clipPath
       clipPathUnits="userSpaceOnUse"
       id="clipPath5916">
      <path
         d="m 1908.28,4882.55 c -1.62,-2.8 -4.62,-4.09 -6.71,-2.88 -2.08,1.21 -2.47,4.45 -0.85,7.25 1.62,2.79 4.62,4.08 6.71,2.88 2.08,-1.22 2.47,-4.46 0.85,-7.25 z"
         id="path5914"
         inkscape:connector-curvature="0" />
    </clipPath>
    <radialGradient
       fx="0"
       fy="0"
       cx="0"
       cy="0"
       r="1"
       gradientUnits="userSpaceOnUse"
       gradientTransform="matrix(0.24706956,-1.3425033,-1.3425033,-0.24706956,1314.3413,5339.7444)"
       spreadMethod="pad"
       id="radialGradient5922">
      <stop
         style="stop-opacity:1;stop-color:#ffffff"
         offset="0"
         id="stop5918" />
      <stop
         style="stop-opacity:1;stop-color:#f0396c"
         offset="1"
         id="stop5920" />
    </radialGradient>
    <clipPath
       clipPathUnits="userSpaceOnUse"
       id="clipPath5900">
      <path
         d="m 1812.08,4879.41 c 0.02,-3.23 -1.91,-5.87 -4.33,-5.88 -2.4,-0.02 -4.38,2.58 -4.4,5.81 -0.02,3.24 1.92,5.87 4.33,5.89 2.41,0.01 4.38,-2.59 4.4,-5.82 z"
         id="path5898"
         inkscape:connector-curvature="0" />
    </clipPath>
    <radialGradient
       fx="0"
       fy="0"
       cx="0"
       cy="0"
       r="1"
       gradientUnits="userSpaceOnUse"
       gradientTransform="matrix(0.89284273,-1.0324832,-1.0324832,-0.89284273,1288.7422,5338.3265)"
       spreadMethod="pad"
       id="radialGradient5906">
      <stop
         style="stop-opacity:1;stop-color:#ffffff"
         offset="0"
         id="stop5902" />
      <stop
         style="stop-opacity:1;stop-color:#f0396c"
         offset="1"
         id="stop5904" />
    </radialGradient>
    <clipPath
       clipPathUnits="userSpaceOnUse"
       id="clipPath5884">
      <path
         d="m 1771.08,4893.41 c 2.46,-2.1 3.18,-5.28 1.62,-7.12 -1.57,-1.84 -4.83,-1.62 -7.29,0.48 -2.46,2.1 -3.18,5.28 -1.62,7.12 1.57,1.83 4.83,1.62 7.29,-0.48 z"
         id="path5882"
         inkscape:connector-curvature="0" />
    </clipPath>
    <radialGradient
       fx="0"
       fy="0"
       cx="0"
       cy="0"
       r="1"
       gradientUnits="userSpaceOnUse"
       gradientTransform="matrix(1.3656555,0,0,-1.3656555,1278.301,5341.157)"
       spreadMethod="pad"
       id="radialGradient5890">
      <stop
         style="stop-opacity:1;stop-color:#ffffff"
         offset="0"
         id="stop5886" />
      <stop
         style="stop-opacity:1;stop-color:#f0396c"
         offset="1"
         id="stop5888" />
    </radialGradient>
    <clipPath
       clipPathUnits="userSpaceOnUse"
       id="clipPath5916-3">
      <path
         d="m 1908.28,4882.55 c -1.62,-2.8 -4.62,-4.09 -6.71,-2.88 -2.08,1.21 -2.47,4.45 -0.85,7.25 1.62,2.79 4.62,4.08 6.71,2.88 2.08,-1.22 2.47,-4.46 0.85,-7.25 z"
         id="path5914-6"
         inkscape:connector-curvature="0" />
    </clipPath>
    <radialGradient
       fx="0"
       fy="0"
       cx="0"
       cy="0"
       r="1"
       gradientUnits="userSpaceOnUse"
       gradientTransform="matrix(0.2470695,-1.342503,-1.342503,-0.2470695,1291.8947,5325.7151)"
       spreadMethod="pad"
       id="radialGradient5922-7">
      <stop
         style="stop-opacity:1;stop-color:#ffffff"
         offset="0"
         id="stop5918-5" />
      <stop
         style="stop-opacity:1;stop-color:#f0396c"
         offset="1"
         id="stop5920-3" />
    </radialGradient>
    <clipPath
       clipPathUnits="userSpaceOnUse"
       id="clipPath5900-5">
      <path
         d="m 1812.08,4879.41 c 0.02,-3.23 -1.91,-5.87 -4.33,-5.88 -2.4,-0.02 -4.38,2.58 -4.4,5.81 -0.02,3.24 1.92,5.87 4.33,5.89 2.41,0.01 4.38,-2.59 4.4,-5.82 z"
         id="path5898-6"
         inkscape:connector-curvature="0" />
    </clipPath>
    <radialGradient
       fx="0"
       fy="0"
       cx="0"
       cy="0"
       r="1"
       gradientUnits="userSpaceOnUse"
       gradientTransform="matrix(0.89284251,-1.032483,-1.032483,-0.89284251,1266.2956,5324.2972)"
       spreadMethod="pad"
       id="radialGradient5906-2">
      <stop
         style="stop-opacity:1;stop-color:#ffffff"
         offset="0"
         id="stop5902-9" />
      <stop
         style="stop-opacity:1;stop-color:#f0396c"
         offset="1"
         id="stop5904-1" />
    </radialGradient>
    <clipPath
       clipPathUnits="userSpaceOnUse"
       id="clipPath5884-2">
      <path
         d="m 1771.08,4893.41 c 2.46,-2.1 3.18,-5.28 1.62,-7.12 -1.57,-1.84 -4.83,-1.62 -7.29,0.48 -2.46,2.1 -3.18,5.28 -1.62,7.12 1.57,1.83 4.83,1.62 7.29,-0.48 z"
         id="path5882-7"
         inkscape:connector-curvature="0" />
    </clipPath>
    <radialGradient
       fx="0"
       fy="0"
       cx="0"
       cy="0"
       r="1"
       gradientUnits="userSpaceOnUse"
       gradientTransform="matrix(1.3656552,0,0,-1.3656552,1255.8543,5327.1278)"
       spreadMethod="pad"
       id="radialGradient5890-0">
      <stop
         style="stop-opacity:1;stop-color:#ffffff"
         offset="0"
         id="stop5886-9" />
      <stop
         style="stop-opacity:1;stop-color:#f0396c"
         offset="1"
         id="stop5888-3" />
    </radialGradient>
  </defs>
  <sodipodi:namedview
     id="base"
     pagecolor="#ffffff"
     bordercolor="#666666"
     borderopacity="1.0"
     inkscape:pageopacity="0.0"
     inkscape:pageshadow="2"
     inkscape:zoom="0.70710678"
     inkscape:cx="397.01085"
     inkscape:cy="565.18284"
     inkscape:document-units="px"
     inkscape:current-layer="layer1"
     showgrid="false"
     units="px"
     inkscape:window-width="1920"
     inkscape:window-height="1031"
     inkscape:window-x="0"
     inkscape:window-y="25"
     inkscape:window-maximized="1"
     showguides="true"
     inkscape:lockguides="true"
     inkscape:object-nodes="false"
     inkscape:snap-nodes="false"
     inkscape:snap-others="false" />
  <metadata
     id="metadata2380">
    <rdf:RDF>
      <cc:Work
         rdf:about="">
        <dc:format>image/svg+xml</dc:format>
        <dc:type
           rdf:resource="http://purl.org/dc/dcmitype/StillImage" />
        <dc:title></dc:title>
      </cc:Work>
    </rdf:RDF>
  </metadata>
  <g
     inkscape:groupmode="layer"
     id="layer3"
     inkscape:label="Layer 2" />
  <g
     inkscape:groupmode="layer"
     id="layer2"
     inkscape:label="Layer 3" />
  <g
     inkscape:label="Layer 1"
     inkscape:groupmode="layer"
     id="layer1"
     transform="translate(0,-32.41665)">
    <text
       xml:space="preserve"
       style="font-style:normal;font-variant:normal;font-weight:bold;font-stretch:normal;font-size:10.58333302px;line-height:1.25;font-family:sans-serif;-inkscape-font-specification:'sans-serif Bold';letter-spacing:0px;word-spacing:0px;fill:#000000;fill-opacity:1;stroke:none;stroke-width:0.26458332"
       x="150.05655"
       y="89.869026"
       id="text8811" />
    <text
       xml:space="preserve"
       style="font-style:normal;font-variant:normal;font-weight:bold;font-stretch:normal;font-size:10.58333302px;line-height:1.25;font-family:sans-serif;-inkscape-font-specification:'sans-serif Bold';letter-spacing:0px;word-spacing:0px;fill:#000000;fill-opacity:1;stroke:none;stroke-width:0.26458332"
       x="160.63989"
       y="97.806526"
       id="text8815" />
    <text
       xml:space="preserve"
       style="font-style:normal;font-variant:normal;font-weight:bold;font-stretch:normal;font-size:10.58333302px;line-height:1.25;font-family:sans-serif;-inkscape-font-specification:'sans-serif Bold';letter-spacing:0px;word-spacing:0px;fill:#000000;fill-opacity:1;stroke:none;stroke-width:0.26458332"
       x="156.86011"
       y="88.7351"
       id="text8819" />
    <flowRoot
       xml:space="preserve"
       id="flowRoot8821"
       style="font-style:normal;font-variant:normal;font-weight:bold;font-stretch:normal;font-size:40px;line-height:1.25;font-family:sans-serif;-inkscape-font-specification:'sans-serif Bold';letter-spacing:0px;word-spacing:0px;fill:#000000;fill-opacity:1;stroke:none"><flowRegion
         id="flowRegion8823"
         style="font-style:normal;font-variant:normal;font-weight:bold;font-stretch:normal;font-family:sans-serif;-inkscape-font-specification:'sans-serif Bold'" /><flowPara
         id="flowPara8827" /></flowRoot>    <flowRoot
       xml:space="preserve"
       id="flowRoot8829"
       style="font-style:normal;font-variant:normal;font-weight:bold;font-stretch:normal;font-size:40px;line-height:1.25;font-family:sans-serif;-inkscape-font-specification:'sans-serif Bold';letter-spacing:0px;word-spacing:0px;fill:#000000;fill-opacity:1;stroke:none"><flowRegion
         id="flowRegion8831"
         style="font-style:normal;font-variant:normal;font-weight:bold;font-stretch:normal;font-family:sans-serif;-inkscape-font-specification:'sans-serif Bold'" /><flowPara
         id="flowPara8835" /></flowRoot>    <flowRoot
       xml:space="preserve"
       id="flowRoot8837"
       style="font-style:normal;font-variant:normal;font-weight:bold;font-stretch:normal;font-size:40px;line-height:1.25;font-family:sans-serif;-inkscape-font-specification:'sans-serif Bold';letter-spacing:0px;word-spacing:0px;fill:#000000;fill-opacity:1;stroke:none"><flowRegion
         id="flowRegion8839"
         style="font-style:normal;font-variant:normal;font-weight:bold;font-stretch:normal;font-family:sans-serif;-inkscape-font-specification:'sans-serif Bold'" /><flowPara
         id="flowPara8843" /></flowRoot>    <text
       xml:space="preserve"
       style="font-style:normal;font-variant:normal;font-weight:bold;font-stretch:normal;font-size:10.58333302px;line-height:1.25;font-family:sans-serif;-inkscape-font-specification:'sans-serif Bold';letter-spacing:0px;word-spacing:0px;fill:#000000;fill-opacity:1;stroke:none;stroke-width:0.26458332"
       x="209.39882"
       y="107.25594"
       id="text8847" />
    <flowRoot
       xml:space="preserve"
       id="flowRoot8849"
       style="font-style:normal;font-variant:normal;font-weight:bold;font-stretch:normal;font-size:40px;line-height:1.25;font-family:sans-serif;-inkscape-font-specification:'sans-serif Bold';letter-spacing:0px;word-spacing:0px;fill:#000000;fill-opacity:1;stroke:none"><flowRegion
         id="flowRegion8851"
         style="font-style:normal;font-variant:normal;font-weight:bold;font-stretch:normal;font-family:sans-serif;-inkscape-font-specification:'sans-serif Bold'" /><flowPara
         id="flowPara8855" /></flowRoot>    <flowRoot
       xml:space="preserve"
       id="flowRoot8857"
       style="font-style:normal;font-variant:normal;font-weight:bold;font-stretch:normal;font-size:40px;line-height:1.25;font-family:sans-serif;-inkscape-font-specification:'sans-serif Bold';letter-spacing:0px;word-spacing:0px;fill:#000000;fill-opacity:1;stroke:none"><flowRegion
         id="flowRegion8859"
         style="font-style:normal;font-variant:normal;font-weight:bold;font-stretch:normal;font-family:sans-serif;-inkscape-font-specification:'sans-serif Bold'" /><flowPara
         id="flowPara8863" /></flowRoot>    <flowRoot
       xml:space="preserve"
       id="flowRoot8865"
       style="font-style:normal;font-variant:normal;font-weight:bold;font-stretch:normal;font-size:40px;line-height:1.25;font-family:sans-serif;-inkscape-font-specification:'sans-serif Bold';letter-spacing:0px;word-spacing:0px;fill:#000000;fill-opacity:1;stroke:none"><flowRegion
         id="flowRegion8867"
         style="font-style:normal;font-variant:normal;font-weight:bold;font-stretch:normal;font-family:sans-serif;-inkscape-font-specification:'sans-serif Bold'" /><flowPara
         id="flowPara8871" /></flowRoot>    <flowRoot
       xml:space="preserve"
       id="flowRoot8873"
       style="font-style:normal;font-variant:normal;font-weight:bold;font-stretch:normal;font-size:40px;line-height:1.25;font-family:sans-serif;-inkscape-font-specification:'sans-serif Bold';letter-spacing:0px;word-spacing:0px;fill:#000000;fill-opacity:1;stroke:none"><flowRegion
         id="flowRegion8875"
         style="font-style:normal;font-variant:normal;font-weight:bold;font-stretch:normal;font-family:sans-serif;-inkscape-font-specification:'sans-serif Bold'" /><flowPara
         id="flowPara8879" /></flowRoot>    <text
       xml:space="preserve"
       style="font-style:normal;font-weight:normal;font-size:10.58333302px;line-height:1.25;font-family:sans-serif;letter-spacing:0px;word-spacing:0px;fill:#000000;fill-opacity:1;stroke:none;stroke-width:0.26458332"
       x="101.02788"
       y="69.125984"
       id="text977"><tspan
         sodipodi:role="line"
         id="tspan975"
         x="101.02788"
         y="78.489754"
         style="stroke-width:0.26458332" /><tspan
         sodipodi:role="line"
         x="101.02788"
         y="91.718918"
         style="stroke-width:0.26458332"
         id="tspan979" /><tspan
         sodipodi:role="line"
         x="101.02788"
         y="104.94809"
         style="stroke-width:0.26458332"
         id="tspan981" /><tspan
         sodipodi:role="line"
         x="101.02788"
         y="118.17725"
         style="stroke-width:0.26458332"
         id="tspan983" /><tspan
         sodipodi:role="line"
         x="101.02788"
         y="131.40642"
         style="stroke-width:0.26458332"
         id="tspan985" /><tspan
         sodipodi:role="line"
         x="101.02788"
         y="144.63559"
         style="stroke-width:0.26458332"
         id="tspan987" /><tspan
         sodipodi:role="line"
         x="101.02788"
         y="157.86475"
         style="stroke-width:0.26458332"
         id="tspan989" /><tspan
         sodipodi:role="line"
         x="101.02788"
         y="171.09392"
         style="stroke-width:0.26458332"
         id="tspan991" /><tspan
         sodipodi:role="line"
         x="101.02788"
         y="184.32309"
         style="stroke-width:0.26458332"
         id="tspan993" /><tspan
         sodipodi:role="line"
         x="101.02788"
         y="197.55225"
         style="stroke-width:0.26458332"
         id="tspan995" /><tspan
         sodipodi:role="line"
         x="101.02788"
         y="210.78142"
         style="stroke-width:0.26458332"
         id="tspan997" /><tspan
         sodipodi:role="line"
         x="101.02788"
         y="224.01059"
         style="stroke-width:0.26458332"
         id="tspan999" /><tspan
         sodipodi:role="line"
         x="101.02788"
         y="237.23975"
         style="stroke-width:0.26458332"
         id="tspan1001" /><tspan
         sodipodi:role="line"
         x="101.02788"
         y="250.46892"
         style="stroke-width:0.26458332"
         id="tspan1003" /><tspan
         sodipodi:role="line"
         x="101.02788"
         y="263.69809"
         style="stroke-width:0.26458332"
         id="tspan1005" /><tspan
         sodipodi:role="line"
         x="101.02788"
         y="276.92725"
         style="stroke-width:0.26458332"
         id="tspan1007" /><tspan
         sodipodi:role="line"
         x="101.02788"
         y="290.1564"
         style="stroke-width:0.26458332"
         id="tspan1009" /><tspan
         sodipodi:role="line"
         x="101.02788"
         y="303.38559"
         style="stroke-width:0.26458332"
         id="tspan1011" /><tspan
         sodipodi:role="line"
         x="101.02788"
         y="316.61475"
         style="stroke-width:0.26458332"
         id="tspan1013" /><tspan
         sodipodi:role="line"
         x="101.02788"
         y="329.8439"
         style="stroke-width:0.26458332"
         id="tspan1015" /><tspan
         sodipodi:role="line"
         x="101.02788"
         y="343.07309"
         style="stroke-width:0.26458332"
         id="tspan1017" /><tspan
         sodipodi:role="line"
         x="101.02788"
         y="356.30225"
         style="stroke-width:0.26458332"
         id="tspan1019" /><tspan
         sodipodi:role="line"
         x="101.02788"
         y="369.5314"
         style="stroke-width:0.26458332"
         id="tspan1021" /><tspan
         sodipodi:role="line"
         x="101.02788"
         y="382.76059"
         style="stroke-width:0.26458332"
         id="tspan1023" /></text>
    <path
       d="m 135.12886,52.15432 c -0.0757,-0.817942 -1.19083,-0.696452 -0.67239,0.62308 0.40176,1.018819 1.31712,1.498757 2.25775,0.434231 -1.11022,0.197284 -1.53364,-0.485956 -1.58536,-1.057311"
       style="fill:#747677;fill-opacity:1;fill-rule:nonzero;stroke:none;stroke-width:0.03527777"
       id="path3460"
       inkscape:connector-curvature="0" />
    <path
       d="m 125.32659,199.42254 c 0,0 -9.02932,0.33727 -17.8553,-3.67875 -0.90254,-0.45612 -1.70932,2.02718 -0.13379,3.28116 2.02152,1.60278 11.44831,3.67718 17.26892,3.77398 0.69002,-1.9205 0.72017,-3.37639 0.72017,-3.37639"
       style="fill:#fabd99;fill-opacity:1;fill-rule:nonzero;stroke:none;stroke-width:0.0352778"
       id="path608"
       inkscape:connector-curvature="0" />
    <path
       d="m 122.32515,199.58393 c -0.0602,0.50475 -0.2008,1.65524 -0.32798,2.63542 -0.67035,0.007 -1.73163,-0.0762 -3.10512,-0.48259 0.57195,-0.10003 1.29871,-0.34137 1.42466,-0.92247 0.17068,-0.78202 -0.99568,-1.50442 -1.48367,-1.76993 1.07176,0.29786 2.2327,0.49453 3.49207,0.53957"
       style="fill:#eaa376;fill-opacity:1;fill-rule:nonzero;stroke:none;stroke-width:0.0352778"
       id="path610"
       inkscape:connector-curvature="0" />
    <path
       d="m 143.90603,244.7893 c 0,0 0,1.31589 -6.08556,-1.05354 -3.75839,-1.46255 -11.9088,-5.41748 -22.16729,-5.78387 -8.41671,-0.3012 -11.47983,0.86189 -11.53493,-0.14911 -0.11282,-2.02964 13.52496,-4.84761 22.31555,-2.93362 8.79319,1.918 15.78262,7.32826 17.47223,9.92018"
       style="fill:#b7231f;fill-opacity:1;fill-rule:nonzero;stroke:none;stroke-width:0.0352778"
       id="path612"
       inkscape:connector-curvature="0" />
    <path
       d="m 113.37715,234.1215 c -0.10364,0.57181 -3.7151,8.23682 1.7172,20.138 -0.48145,1.3314 -0.73989,3.58917 -0.3739,4.0171 1.98218,2.30845 3.71775,-0.77436 4.0339,-1.83709 0.26625,-0.88141 0.79232,-2.39922 -0.14167,-3.68086 -1.76707,-2.42938 -4.34742,-9.26427 -1.44698,-17.63232 -1.66469,-0.91826 -3.78855,-1.00483 -3.78855,-1.00483"
       style="fill:#fabd99;fill-opacity:1;fill-rule:nonzero;stroke:none;stroke-width:0.0352778"
       id="path614"
       inkscape:connector-curvature="0" />
    <path
       d="m 118.86453,253.82911 c -0.0446,1.0193 -0.96024,4.4408 -3.10642,3.95136 -1.32102,-0.30158 -0.64015,-3.52751 -0.64015,-3.52751 0,0 -2.71288,6.57856 -0.72676,7.83149 1.71192,1.07817 3.78198,-0.71638 4.96396,-4.24088 1.11635,-3.31395 -0.49193,-4.93681 -0.72151,-5.09411 0.18109,0.72297 0.23092,1.07965 0.23092,1.07965"
       style="fill:#ef342f;fill-opacity:1;fill-rule:nonzero;stroke:none;stroke-width:0.0352778"
       id="path616"
       inkscape:connector-curvature="0" />
    <path
       d="m 114.9369,259.79694 c 0.0826,-0.89774 -1.13734,-0.98394 -0.84088,0.52986 0.22684,1.17551 1.11505,1.87036 2.33508,0.91317 -1.23315,-0.007 -1.54797,-0.82147 -1.4942,-1.44303"
       style="fill:#f36250;fill-opacity:1;fill-rule:nonzero;stroke:none;stroke-width:0.0352778"
       id="path618"
       inkscape:connector-curvature="0" />
    <path
       d="m 126.99917,236.37258 c 0,0.58009 -1.92443,13.6984 6.2417,27.60991 -0.23093,1.39588 -0.0773,3.66287 0.3607,4.01594 2.36784,1.91139 3.51438,-1.43533 3.63639,-2.53346 0.10115,-0.9183 0.0112,-2.23936 -0.80938,-3.59679 -3.69939,-6.12356 -5.96489,-13.10655 -5.52153,-25.19228 -1.80373,-0.60252 -3.90792,-0.30344 -3.90792,-0.30344"
       style="fill:#fabd99;fill-opacity:1;fill-rule:nonzero;stroke:none;stroke-width:0.0352778"
       id="path620"
       inkscape:connector-curvature="0" />
    <path
       d="m 136.87071,262.87153 c 0.14057,1.01413 -0.14056,4.54324 -2.33768,4.45102 -1.35382,-0.0573 -1.26985,-3.35542 -1.26985,-3.35542 0,0 -1.47713,6.96448 0.70575,7.83663 1.87854,0.75175 3.58786,-1.39022 4.11389,-5.07258 0.49457,-3.45942 -1.38134,-4.76356 -1.63454,-4.87479 0.31088,0.67437 0.42243,1.01514 0.42243,1.01514"
       style="fill:#ef342f;fill-opacity:1;fill-rule:nonzero;stroke:none;stroke-width:0.0352778"
       id="path622"
       inkscape:connector-curvature="0" />
    <path
       d="m 134.09223,269.45325 c -0.084,-0.89472 -1.29871,-0.75996 -0.7346,0.67793 0.43946,1.11145 1.43645,1.63621 2.46229,0.47501 -1.2108,0.21531 -1.67127,-0.52985 -1.72769,-1.15294"
       style="fill:#f36250;fill-opacity:1;fill-rule:nonzero;stroke:none;stroke-width:0.0352778"
       id="path624"
       inkscape:connector-curvature="0" />
    <path
       d="m 135.76615,196.62926 c 0,0 -1.02454,3.43332 -1.28953,4.38033 3.44485,1.77346 5.47426,2.40327 5.47426,2.40327 l -2.31931,5.21965 -12.29055,-3.1535 0.55753,-6.49619 c 0,0 2.39933,0.81228 5.78122,1.19507 0.5392,-1.92982 1.23052,-4.5191 1.23052,-4.5191 l 2.85586,0.97047"
       style="fill:#fabd99;fill-opacity:1;fill-rule:nonzero;stroke:none;stroke-width:0.0352778"
       id="path626"
       inkscape:connector-curvature="0" />
    <path
       d="m 129.84061,199.91555 c 0.56935,0.0997 1.18458,0.1889 1.83916,0.26253 0.5392,-1.92987 1.23052,-4.51914 1.23052,-4.51914 l 2.85586,0.97051 c 0,0 -1.02454,3.43332 -1.28953,4.38032 0.47751,0.24692 0.91957,0.46568 1.342,0.66916 -4.31987,0.99305 -5.6986,-1.18065 -5.97801,-1.76323"
       style="fill:#eaa376;fill-opacity:1;fill-rule:nonzero;stroke:none;stroke-width:0.0352778"
       id="path628"
       inkscape:connector-curvature="0" />
    <path
       d="m 132.32521,237.13358 c 0,0 -2.25372,10.2189 2.40457,21.03897 -0.14948,1.50603 -2.40457,2.70512 -4.05748,1.65562 -3.6062,-7.96681 -5.2591,-19.98948 -4.50877,-23.89885 3.30715,0.60371 6.16168,1.20426 6.16168,1.20426"
       style="fill:#76aac2;fill-opacity:1;fill-rule:nonzero;stroke:none;stroke-width:0.0352778"
       id="path630"
       inkscape:connector-curvature="0" />
    <path
       d="m 131.62995,237.30266 c -0.56147,2.70355 -0.60476,4.71999 -0.56147,5.8038 -0.78711,-1.35642 -3.52227,-2.81269 -4.22017,-0.65997 -0.45783,-3.73728 -0.0643,-5.64245 -0.0643,-5.87557 0,0 3.04346,0.12867 4.84593,0.73174"
       style="fill:#5f94af;fill-opacity:1;fill-rule:nonzero;stroke:none;stroke-width:0.0352778"
       id="path632"
       inkscape:connector-curvature="0" />
    <path
       d="m 117.1657,235.12633 c 0,0 -2.62233,9.60916 0.84219,16.51623 -0.85007,2.13275 -2.61316,2.5734 -3.5393,1.79194 -2.15271,-4.06403 -4.45891,-12.28397 -2.06088,-19.48472 2.29831,-0.0335 4.75799,1.17655 4.75799,1.17655"
       style="fill:#76aac2;fill-opacity:1;fill-rule:nonzero;stroke:none;stroke-width:0.0352778"
       id="path634"
       inkscape:connector-curvature="0" />
    <path
       d="m 116.73279,235.20007 c -0.58114,2.60635 -0.93664,5.25769 -1.0901,6.33325 -0.52737,-1.47843 -2.79421,-3.23088 -3.8686,-1.24375 -0.0971,-3.04997 0.97994,-5.93956 1.02192,-6.1732 0,0 2.27339,0.16399 3.93678,1.0837"
       style="fill:#5f94af;fill-opacity:1;fill-rule:nonzero;stroke:none;stroke-width:0.0352778"
       id="path636"
       inkscape:connector-curvature="0" />
    <path
       d="m 143.45348,204.6632 c -0.14837,-0.6036 -3.00412,-2.18042 -5.48478,-2.25517 -3.83184,6.6877 -12.92416,2.93061 -9.61835,-2.93064 -1.04945,-0.52473 -2.62888,-0.97576 -4.2057,-1.19913 -6.4634,4.88144 -19.91489,30.50672 -20.0264,39.52448 5.74713,-4.51294 27.61403,-1.72795 39.78778,6.98656 1.01405,-8.90456 -4.53104,-28.32726 -0.82511,-33.96458 -2.1068,-1.20426 -1.35252,-4.81023 0.37256,-6.16152"
       style="fill:#ef342f;fill-opacity:1;fill-rule:nonzero;stroke:none;stroke-width:0.0352778"
       id="path638"
       inkscape:connector-curvature="0" />
    <path
       d="m 141.20237,209.39601 c -4.51137,9.0188 -0.11416,25.13647 -8.23043,23.89379 -8.11496,-1.23445 -24.23211,-2.25111 -27.04992,1.69355 11.94683,-4.17015 27.04992,0.11268 36.18024,5.18581 -0.22423,-12.06111 -4.05878,-17.69791 0.33728,-29.64471 0.14576,-0.39358 -1.23706,-1.12844 -1.23706,-1.12844"
       style="fill:#d02924;fill-opacity:1;fill-rule:nonzero;stroke:none;stroke-width:0.0352778"
       id="path640"
       inkscape:connector-curvature="0" />
    <path
       d="m 124.9698,204.511 c 0.51948,-2.53194 -2.62892,-3.3806 -5.25914,0.75431 -2.43608,3.82529 -2.25372,5.63311 -2.47936,6.9107 3.60623,-4.35932 7.21243,-5.1085 7.7385,-7.66501"
       style="fill:#f36250;fill-opacity:1;fill-rule:nonzero;stroke:none;stroke-width:0.0352778"
       id="path642"
       inkscape:connector-curvature="0" />
    <path
       d="m 142.55355,203.84433 c -1.35118,0.67585 -2.6171,6.37824 -0.0799,8.29379 0.93009,0 0.67689,-1.4051 0.67689,-1.4051 0,0 -2.12647,-3.03677 0.50111,-6.04376 -0.0565,-0.7317 -1.09798,-0.84493 -1.09798,-0.84493"
       style="fill:#ffffff;fill-opacity:1;fill-rule:nonzero;stroke:none;stroke-width:0.0352778"
       id="path644"
       inkscape:connector-curvature="0" />
    <path
       d="m 137.33245,202.20191 c -0.79102,1.4067 -4.49564,3.31909 -7.76337,2.07794 -3.26911,-1.23795 -0.59821,-4.68979 -0.59821,-4.68979 0,0 -0.46832,-0.69381 -1.35252,-0.39458 -1.74342,2.32705 -1.48761,4.85902 1.44303,6.09999 2.93064,1.24114 7.83685,1.02033 9.86626,-2.8111 -0.44994,-0.71233 -1.59519,-0.28261 -1.59519,-0.28261"
       style="fill:#ffffff;fill-opacity:1;fill-rule:nonzero;stroke:none;stroke-width:0.0352778"
       id="path646"
       inkscape:connector-curvature="0" />
    <path
       d="m 123.71173,198.12606 c 0,0 -2.83355,2.56477 -3.92629,4.95782 1.9743,-2.25111 4.58485,-4.17071 5.31685,-4.6191 -0.31868,-0.64149 -1.39056,-0.33876 -1.39056,-0.33876"
       style="fill:#ffffff;fill-opacity:1;fill-rule:nonzero;stroke:none;stroke-width:0.0352778"
       id="path648"
       inkscape:connector-curvature="0" />
    <path
       d="m 183.79091,67.687185 13.60105,66.777375 c -37.27827,-20.62852 -62.20435,19.70501 -99.464226,-0.99045 L 85.130836,67.409073 c 37.266454,20.729551 61.383144,-20.350405 98.660074,0.278149"
       style="fill:#e32d28;fill-opacity:1;fill-rule:nonzero;stroke:none;stroke-width:0.0352778"
       id="path650"
       inkscape:connector-curvature="0" />
    <path
       d="M 189.37535,94.894526 183.62822,66.531453 C 146.35259,45.904274 121.43176,86.269261 84.166644,65.53971 l 6.772973,33.439853 C 127.3888,115.66078 153.34596,80.42374 189.37535,94.894526"
       style="fill:#ffffff;fill-opacity:1;fill-rule:nonzero;stroke:none;stroke-width:0.0352778"
       id="path652"
       inkscape:connector-curvature="0" />
    <path
       d="m 189.20221,94.952238 c -0.0985,0 -0.18481,-0.06693 -0.20452,-0.168079 l -5.55428,-28.11642 c -18.50729,-10.202088 -34.23875,-5.2224 -49.45206,-0.405362 -15.33922,4.853778 -31.20054,9.87675 -49.926907,-0.539156 -0.09969,-0.05652 -0.136435,-0.183697 -0.08132,-0.284842 0.05641,-0.09854 0.18366,-0.134984 0.284656,-0.07995 18.567641,10.328036 34.342381,5.335221 49.597661,0.505057 15.32086,-4.849836 31.1638,-9.862359 49.86523,0.486686 0.0524,0.02975 0.0904,0.07995 0.10226,0.140563 l 5.57266,28.214813 c 0.0223,0.112673 -0.0513,0.223114 -0.164,0.245426 -0.0149,0.0013 -0.026,0.0013 -0.0394,0.0013"
       style="fill:#b8c9c1;fill-opacity:1;fill-rule:nonzero;stroke:none;stroke-width:0.0352778"
       id="path654"
       inkscape:connector-curvature="0" />
    <path
       d="m 188.18946,88.904725 4.63078,22.859925 c 0,0 -0.026,-0.001 -0.0335,-0.0298 -37.28348,-20.663922 -62.16757,19.73516 -99.461576,-0.99175 L 88.693198,87.883344 c 37.295302,20.728216 62.179392,-19.669572 99.461602,0.993082 0.007,0.02975 0.0372,0.02975 0.0372,0.02975"
       style="fill:#3275b8;fill-opacity:1;fill-rule:nonzero;stroke:none;stroke-width:0.0352778"
       id="path656"
       inkscape:connector-curvature="0" />
    <path
       d="m 124.98422,268.55444 c -0.47095,0 -0.89468,-0.33059 -0.99438,-0.80917 L 82.621306,64.963815 c -0.115425,-0.549643 0.237431,-1.088798 0.788412,-1.20426 0.545719,-0.11416 1.090129,0.236129 1.204259,0.788412 L 125.98121,267.32764 c 0.11676,0.55139 -0.23762,1.09047 -0.78581,1.20579 -0.071,0.0149 -0.14167,0.0223 -0.21121,0.0223"
       style="fill:#48494d;fill-opacity:1;fill-rule:nonzero;stroke:none;stroke-width:0.0352778"
       id="path658"
       inkscape:connector-curvature="0" />
    <path
       d="m 107.96322,199.32928 c -3.3832,-1.13763 -3.73346,-5.71723 -1.7526,-12.16315 -0.22694,-3.05671 1.01798,-3.79146 2.31931,-4.24546 0.96158,-0.33988 1.13212,0.87929 0.56541,1.24517 1.1321,0.058 0.84875,1.3575 0.39617,1.69778 1.24492,-0.058 0.73593,1.13041 0.33977,1.47014 1.41415,0.11156 0.39748,1.41588 -0.11283,1.69768 -0.31351,0.17328 -1.30265,1.01926 -1.30265,1.01926 0,0 -1.54664,5.02026 0.11413,6.27989 -0.0564,1.01758 -0.56671,2.99869 -0.56671,2.99869"
       style="fill:#fabd99;fill-opacity:1;fill-rule:nonzero;stroke:none;stroke-width:0.0352778"
       id="path660"
       inkscape:connector-curvature="0" />
    <path
       d="m 143.41016,204.85325 c 0,0 -12.69718,5.20429 -28.20433,1.58352 0.19299,-1.18838 -1.01796,-2.03596 -1.92314,-2.09382 0.16924,1.18734 -1.47187,1.4707 -2.03727,0.45248 -1.47056,0.9054 -0.96157,1.75401 -0.24925,1.86828 -0.93927,0.28187 -1.01929,1.35751 -0.11283,1.4707 -0.67952,1.0193 0.33977,1.47017 1.01799,1.58441 -0.45128,1.01826 1.94675,0.96039 3.58786,-0.39759 6.16955,2.08868 19.907,2.7118 27.19291,0.11007 3.22579,-2.18552 0.72806,-4.57816 0.72806,-4.57816"
       style="fill:#fabd99;fill-opacity:1;fill-rule:nonzero;stroke:none;stroke-width:0.0352778"
       id="path662"
       inkscape:connector-curvature="0" />
    <path
       d="m 135.17058,151.62067 c 2.20779,-0.31868 1.30002,-2.72456 -1.69883,-2.99873 5.55823,-8.40762 -3.98928,-7.1787 -5.88092,-3.66696 -0.71363,-6.9419 -9.23529,-4.45206 -6.62739,0.95006 -4.30015,-0.51045 -1.10322,5.09002 3.08021,4.77387 0.23762,1.65669 4.53893,4.1388 4.53893,4.1388 l 6.588,-3.19704"
       style="fill:#6d271d;fill-opacity:1;fill-rule:nonzero;stroke:none;stroke-width:0.0352778"
       id="path664"
       inkscape:connector-curvature="0" />
    <path
       d="m 163.22141,162.71849 c -1.41284,-1.72639 0.8842,-2.88602 3.27829,-1.06377 1.58207,-9.95258 7.79227,-2.59453 6.81231,1.27234 5.21846,-4.63706 9.81904,2.95567 4.24509,5.17912 3.51308,2.5309 -2.62758,4.4972 -5.49527,1.4379 -1.29477,1.0602 -6.14461,-0.0186 -6.14461,-0.0186 l -2.69581,-6.80867"
       style="fill:#6d271d;fill-opacity:1;fill-rule:nonzero;stroke:none;stroke-width:0.0352778"
       id="path666"
       inkscape:connector-curvature="0" />
    <path
       d="m 166.66365,160.02003 c 1.82344,0.17998 6.61296,6.60274 5.39818,9.52405 -1.11111,1.87092 -2.68269,1.7131 -2.68269,1.7131 l -4.90231,-10.52846 c 0,0 -0.16919,-0.94441 2.18682,-0.70869"
       style="fill:#588eb9;fill-opacity:1;fill-rule:nonzero;stroke:none;stroke-width:0.0352778"
       id="path668"
       inkscape:connector-curvature="0" />
    <path
       d="m 124.86352,152.17675 c 0.10115,-1.82843 6.3099,-6.89379 9.27858,-5.80588 1.91919,1.02688 1.83132,2.60359 1.83132,2.60359 l -10.30576,5.355 c 0,0 -0.93533,0.21122 -0.80414,-2.15271"
       style="fill:#588eb9;fill-opacity:1;fill-rule:nonzero;stroke:none;stroke-width:0.0352778"
       id="path670"
       inkscape:connector-curvature="0" />
    <path
       d="m 119.95333,166.85075 c -3.14052,5.73664 -6.92382,24.04845 9.30089,31.40401 16.13942,7.31752 27.52744,-2.70474 32.22507,-13.99458 5.66975,-13.61693 -3.85151,-24.46824 -13.54199,-27.67042 -15.12541,-5.00085 -23.77953,2.57905 -27.98397,10.26099"
       style="fill:#fabd99;fill-opacity:1;fill-rule:nonzero;stroke:none;stroke-width:0.0352778"
       id="path672"
       inkscape:connector-curvature="0" />
    <path
       d="m 119.95333,166.85075 c 4.20444,-7.68194 12.85856,-15.26184 27.98397,-10.26099 9.69048,3.20218 19.21174,14.05349 13.54199,27.67042 -0.60865,1.4666 -1.33411,2.90859 -2.1658,4.29361 -7.79882,-7.86166 -6.30072,-19.57237 -6.30072,-19.57237 -5.72485,8.49162 -18.38138,-0.0487 -20.89484,-3.25345 -4.98233,-6.34794 -12.41382,0.66101 -13.83848,6.15903 -0.093,0.13536 -0.1889,0.25286 -0.28224,0.37241 0.53262,-2.24847 1.25937,-4.13828 1.95594,-5.40866"
       style="fill:#eaa376;fill-opacity:1;fill-rule:nonzero;stroke:none;stroke-width:0.0352778"
       id="path674"
       inkscape:connector-curvature="0" />
    <path
       d="m 126.70273,182.78435 c -0.32278,1.5245 -2.7706,2.2603 -4.964,1.25293 -2.18942,-1.01011 -3.05522,-3.09619 -2.56198,-4.88408 0.45258,-1.63569 2.79811,-2.57905 4.74489,-0.46017 1.8195,1.98322 3.11691,2.51609 2.78109,4.09132"
       style="fill:#f8a191;fill-opacity:1;fill-rule:nonzero;stroke:none;stroke-width:0.0352778"
       id="path676"
       inkscape:connector-curvature="0" />
    <path
       d="m 121.14186,179.16253 c -0.0487,0.19932 -0.29637,0.30604 -0.55228,0.24283 -0.25584,-0.0628 -0.42373,-0.27406 -0.37517,-0.46992 0.0498,-0.19783 0.29637,-0.30715 0.55229,-0.24394 0.25583,0.064 0.42369,0.27666 0.37516,0.47096"
       style="fill:#fbccc0;fill-opacity:1;fill-rule:nonzero;stroke:none;stroke-width:0.0352778"
       id="path678"
       inkscape:connector-curvature="0" />
    <path
       d="m 134.72194,180.87445 c -0.0487,0.19932 -0.33207,0.29637 -0.63365,0.22312 -0.30306,-0.0747 -0.50502,-0.29526 -0.45779,-0.49048 0.0498,-0.19969 0.33318,-0.29674 0.63491,-0.22349 0.30157,0.074 0.50766,0.29526 0.45653,0.49089"
       style="fill:#fcd3bb;fill-opacity:1;fill-rule:nonzero;stroke:none;stroke-width:0.0352778"
       id="path680"
       inkscape:connector-curvature="0" />
    <path
       d="m 151.59336,188.62868 c -0.58638,2.04094 -2.89915,3.00791 -5.62248,2.50431 -2.62762,-0.48788 -4.79737,-3.06604 -3.8791,-4.87635 0.87631,-1.72493 2.14353,-0.74617 5.40606,-1.13052 3.15494,-0.37506 4.67666,1.45586 4.09552,3.50256"
       style="fill:#f8a191;fill-opacity:1;fill-rule:nonzero;stroke:none;stroke-width:0.0352778"
       id="path682"
       inkscape:connector-curvature="0" />
    <path
       d="m 150.01259,187.12664 c -0.0524,0.19039 -0.29116,0.28186 -0.53521,0.2127 -0.23873,-0.0725 -0.39224,-0.27592 -0.33839,-0.46073 0.0524,-0.18779 0.28856,-0.28187 0.53391,-0.21382 0.23873,0.0707 0.39094,0.27517 0.33988,0.46166"
       style="fill:#fbccc0;fill-opacity:1;fill-rule:nonzero;stroke:none;stroke-width:0.0352778"
       id="path684"
       inkscape:connector-curvature="0" />
    <path
       d="m 127.62099,167.39909 c 2.52394,-0.46794 2.78763,2.28547 1.15703,2.13985 -1.74999,-0.15618 -3.27565,0.34472 -3.47764,0.1547 -0.44735,-0.41206 0.90253,-2.03176 2.32061,-2.29466"
       style="fill:#6d2217;fill-opacity:1;fill-rule:nonzero;stroke:none;stroke-width:0.0352778"
       id="path686"
       inkscape:connector-curvature="0" />
    <path
       d="m 149.97195,173.12391 c -1.93102,-1.6895 -3.56425,0.5406 -2.08842,1.2478 1.58597,0.76101 2.63806,1.97185 2.90963,1.91399 0.59817,-0.12866 0.26253,-2.20809 -0.82121,-3.16179"
       style="fill:#6d2217;fill-opacity:1;fill-rule:nonzero;stroke:none;stroke-width:0.0352778"
       id="path688"
       inkscape:connector-curvature="0" />
    <path
       d="m 161.77711,183.81019 c 1.4771,-3.83552 1.07701,-7.41851 -0.45783,-10.63247 0.67165,2.60686 0.59817,6.11076 -0.5628,9.12902 -4.31853,11.19513 -16.68122,21.28703 -31.28186,14.16775 -10.04468,-4.89419 -11.67267,-15.10138 -11.11384,-22.7285 -1.0875,7.72812 -0.64015,17.37662 11.06792,23.62579 13.78731,7.36107 28.03115,-2.36642 32.34841,-13.56159"
       style="fill:#eaa376;fill-opacity:1;fill-rule:nonzero;stroke:none;stroke-width:0.0352778"
       id="path690"
       inkscape:connector-curvature="0" />
    <path
       d="m 128.94067,184.26174 c 0,0 -2.27599,8.96596 4.03651,10.76459 6.31384,1.79972 6.80183,-7.33179 6.80183,-7.33179 0,0 -4.8813,0.48825 -10.83834,-3.4328"
       style="fill:#461b1c;fill-opacity:1;fill-rule:nonzero;stroke:none;stroke-width:0.0352778"
       id="path692"
       inkscape:connector-curvature="0" />
    <path
       d="m 134.67731,186.97447 c -0.16138,2.27577 0.084,5.56871 2.43608,7.35556 2.4177,-2.0206 2.66562,-6.63549 2.66562,-6.63549 0,0 -2.04774,0.1982 -5.1017,-0.72007"
       style="fill:#2c1616;fill-opacity:1;fill-rule:nonzero;stroke:none;stroke-width:0.0352778"
       id="path694"
       inkscape:connector-curvature="0" />
    <path
       d="m 129.52709,192.30943 c 0.66641,1.21605 1.74078,2.22761 3.45009,2.7169 3.12349,0.88956 4.81968,-0.89729 5.73925,-2.928 -0.1837,-0.44586 -1.15309,-1.03358 -2.23535,-0.67689 -0.87368,-1.89703 -5.07153,-1.06798 -6.95399,0.88799"
       style="fill:#ee5b63;fill-opacity:1;fill-rule:nonzero;stroke:none;stroke-width:0.0352778"
       id="path696"
       inkscape:connector-curvature="0" />
    <path
       d="m 137.63287,191.7637 c -0.46571,-0.26068 -1.09798,-0.21196 -1.38792,-0.0825 -0.16138,-0.39354 -0.46177,-0.85516 -1.42332,-0.99714 -2.37312,-0.37253 -5.58578,1.77662 -2.6722,3.30975 2.94767,1.55626 7.20325,-1.2642 5.48344,-2.2301"
       style="fill:#f57880;fill-opacity:1;fill-rule:nonzero;stroke:none;stroke-width:0.0352778"
       id="path698"
       inkscape:connector-curvature="0" />
    <path
       d="m 132.68598,191.37577 c 0.56277,-0.45139 1.85754,-0.63386 2.17105,-0.26625 0.37651,0.43556 -0.78317,0.93928 -1.51383,0.95267 -0.73594,0.0149 -1.02194,-0.39774 -0.65722,-0.68623"
       style="fill:#f8a1a9;fill-opacity:1;fill-rule:nonzero;stroke:none;stroke-width:0.0352778"
       id="path700"
       inkscape:connector-curvature="0" />
    <path
       d="m 130.73265,185.32395 c -0.37111,0.91982 -0.30418,1.67257 0.90648,2.33924 1.12424,0.61903 2.81912,1.17815 4.02074,1.33136 1.44564,0.18221 2.23929,-0.3581 2.28652,-1.35129 -2.45181,-0.34062 -4.38673,-0.85115 -7.21374,-2.31931"
       style="fill:#ffffff;fill-opacity:1;fill-rule:nonzero;stroke:none;stroke-width:0.0352778"
       id="path702"
       inkscape:connector-curvature="0" />
    <path
       d="m 133.76429,183.20964 c -0.0297,0.004 -0.0591,0 -0.0866,-0.0149 -0.77528,-0.49089 -1.10851,-1.26208 -0.88026,-2.06206 0.20601,-0.73895 0.8514,-1.30302 1.49814,-1.31329 0.40142,-0.007 1.13866,0.19151 1.57943,1.59769 0.0186,0.0632 -0.0112,0.13126 -0.0762,0.14948 -0.0721,0.0223 -0.13386,-0.0149 -0.15097,-0.0773 -0.29265,-0.93258 -0.77134,-1.44038 -1.34854,-1.43276 -0.54968,0.007 -1.09147,0.49862 -1.27249,1.14022 -0.0945,0.33207 -0.20601,1.17135 0.77792,1.79448 0.0576,0.0335 0.0721,0.10895 0.0372,0.16547 -0.0186,0.026 -0.0446,0.0457 -0.0773,0.0539"
       style="fill:#ce6748;fill-opacity:1;fill-rule:nonzero;stroke:none;stroke-width:0.0352778"
       id="path704"
       inkscape:connector-curvature="0" />
    <path
       d="m 143.59646,176.71203 c -1.81295,1.44708 -2.17633,4.00357 -0.81333,5.71667 1.36427,1.71207 3.94336,1.92879 5.75631,0.48331 1.81292,-1.44616 2.1763,-4.00937 0.81069,-5.71879 -1.36297,-1.71155 -3.94072,-1.92827 -5.75367,-0.48119"
       style="fill:#eaa376;fill-opacity:1;fill-rule:nonzero;stroke:none;stroke-width:0.0352778"
       id="path706"
       inkscape:connector-curvature="0" />
    <path
       d="m 147.69987,182.53788 c 1.23966,0.44326 1.39052,1.08999 0.33839,1.45218 -1.05734,0.35921 -2.91882,0.29005 -4.15458,-0.15098 -1.2436,-0.44433 -1.39186,-1.09512 -0.33727,-1.4573 1.05339,-0.35922 2.91227,-0.29117 4.15327,0.15618"
       style="fill:#eaa376;fill-opacity:1;fill-rule:nonzero;stroke:none;stroke-width:0.0352778"
       id="path708"
       inkscape:connector-curvature="0" />
    <path
       d="m 143.49542,176.55567 c -1.76438,1.4093 -2.11988,3.90427 -0.78841,5.57016 1.32497,1.66852 3.83712,1.88011 5.60809,0.47095 1.76309,-1.41023 2.11862,-3.90375 0.78841,-5.57016 -1.32886,-1.66696 -3.83972,-1.88118 -5.60809,-0.47095"
       style="fill:#ffffff;fill-opacity:1;fill-rule:nonzero;stroke:none;stroke-width:0.0352778"
       id="path710"
       inkscape:connector-curvature="0" />
    <path
       d="m 149.31339,178.92261 c 0.003,1.06229 -0.48144,2.14209 -1.40759,2.87944 -1.56894,1.24717 -3.79116,1.06377 -4.9705,-0.41611 -0.3291,-0.41309 -0.53916,-0.88651 -0.63885,-1.38003 0,0.73226 0.22832,1.45481 0.70968,2.05692 1.17541,1.47583 3.40157,1.66488 4.96527,0.41455 1.12687,-0.89729 1.60307,-2.29161 1.34199,-3.55477"
       style="fill:#dcdbdb;fill-opacity:1;fill-rule:nonzero;stroke:none;stroke-width:0.0352778"
       id="path712"
       inkscape:connector-curvature="0" />
    <path
       d="m 144.13297,179.6349 c -0.32649,1.17909 0.30976,2.38335 1.4273,2.69545 1.11372,0.30418 2.28127,-0.40131 2.60661,-1.58039 0.32649,-1.18065 -0.31087,-2.38632 -1.42596,-2.69489 -1.11639,-0.30678 -2.27997,0.40183 -2.60795,1.57983"
       style="fill:#846660;fill-opacity:1;fill-rule:nonzero;stroke:none;stroke-width:0.0352778"
       id="path714"
       inkscape:connector-curvature="0" />
    <path
       d="m 144.93191,179.90242 c -0.2008,0.73066 0.19299,1.47683 0.88286,1.67257 0.69132,0.18593 1.41284,-0.25323 1.61353,-0.9798 0.20452,-0.73226 -0.193,-1.47988 -0.88153,-1.66893 -0.68741,-0.19002 -1.41153,0.24802 -1.61486,0.97616"
       style="fill:#231f20;fill-opacity:1;fill-rule:nonzero;stroke:none;stroke-width:0.0352778"
       id="path716"
       inkscape:connector-curvature="0" />
    <path
       d="m 145.08143,179.12974 c -0.0814,0.29934 0.0799,0.60356 0.36219,0.68098 0.28336,0.0773 0.57854,-0.10003 0.6638,-0.40183 0.0799,-0.2986 -0.0788,-0.60464 -0.3633,-0.68202 -0.28336,-0.0799 -0.57984,0.10114 -0.6625,0.40287"
       style="fill:#ffffff;fill-opacity:1;fill-rule:nonzero;stroke:none;stroke-width:0.0352778"
       id="path718"
       inkscape:connector-curvature="0" />
    <path
       d="m 146.3408,181.35564 c -0.0487,0.18146 0.0472,0.36628 0.22051,0.41454 0.17069,0.0461 0.3488,-0.064 0.39878,-0.24505 0.0524,-0.17998 -0.0483,-0.36628 -0.21902,-0.41098 -0.1692,-0.0472 -0.35141,0.058 -0.40008,0.24134"
       style="fill:#ffffff;fill-opacity:1;fill-rule:nonzero;stroke:none;stroke-width:0.0352778"
       id="path720"
       inkscape:connector-curvature="0" />
    <path
       d="m 131.2482,174.49781 c 0.25323,2.21935 -1.241,4.21478 -3.33597,4.45615 -2.09501,0.23724 -4.00371,-1.36825 -4.25691,-3.58813 -0.25435,-2.22184 1.2397,-4.21477 3.33467,-4.45864 2.09764,-0.23873 4.00241,1.36966 4.25821,3.59062"
       style="fill:#eaa376;fill-opacity:1;fill-rule:nonzero;stroke:none;stroke-width:0.0352778"
       id="path722"
       inkscape:connector-curvature="0" />
    <path
       d="m 129.11649,177.97255 c 1.18589,0.42388 1.32887,1.04842 0.32017,1.39332 -1.01012,0.34248 -2.79157,0.27814 -3.97616,-0.1454 -1.18853,-0.42529 -1.33151,-1.04949 -0.32389,-1.39592 1.01406,-0.34396 2.79027,-0.27666 3.9801,0.148"
       style="fill:#eaa376;fill-opacity:1;fill-rule:nonzero;stroke:none;stroke-width:0.0352778"
       id="path724"
       inkscape:connector-curvature="0" />
    <path
       d="m 130.83105,174.48349 c 0.24803,2.19418 -1.22657,4.16599 -3.29797,4.40632 -2.07265,0.23576 -3.95909,-1.35121 -4.20964,-3.54603 -0.25064,-2.19886 1.22523,-4.16755 3.29532,-4.40788 2.07664,-0.23315 3.96039,1.35118 4.21229,3.54759"
       style="fill:#ffffff;fill-opacity:1;fill-rule:nonzero;stroke:none;stroke-width:0.0352778"
       id="path726"
       inkscape:connector-curvature="0" />
    <path
       d="m 130.33384,174.76934 c -0.0498,-0.43448 -0.1811,-0.83984 -0.36331,-1.20831 0.0643,0.21865 0.11416,0.44485 0.1428,0.68213 0.22051,1.92723 -1.07962,3.6638 -2.90175,3.87397 -1.0849,0.12569 -2.10025,-0.32946 -2.80206,-1.11661 0.65982,1.05455 1.82738,1.70024 3.08411,1.55726 1.7854,-0.2034 3.05525,-1.89952 2.8401,-3.78844"
       style="fill:#dcdbdb;fill-opacity:1;fill-rule:nonzero;stroke:none;stroke-width:0.0352778"
       id="path728"
       inkscape:connector-curvature="0" />
    <path
       d="m 129.62679,175.95616 c -0.31757,1.1535 -1.46006,1.84575 -2.5489,1.54454 -1.09013,-0.30343 -1.71456,-1.48248 -1.39446,-2.63598 0.31868,-1.15402 1.46006,-1.8443 2.54755,-1.54403 1.09144,0.30195 1.7159,1.48145 1.39581,2.63547"
       style="fill:#846660;fill-opacity:1;fill-rule:nonzero;stroke:none;stroke-width:0.0352778"
       id="path730"
       inkscape:connector-curvature="0" />
    <path
       d="m 128.799,175.81987 c -0.193,0.68868 -0.87234,1.10074 -1.52566,0.92091 -0.65064,-0.1811 -1.02584,-0.88551 -0.833,-1.57683 0.19151,-0.68975 0.87368,-1.10326 1.52436,-0.92499 0.65197,0.18147 1.02714,0.8897 0.8343,1.58091"
       style="fill:#231f20;fill-opacity:1;fill-rule:nonzero;stroke:none;stroke-width:0.0352778"
       id="path732"
       inkscape:connector-curvature="0" />
    <path
       d="m 127.66033,174.71308 c -0.0799,0.29079 -0.37111,0.46422 -0.64539,0.39037 -0.27406,-0.0785 -0.43292,-0.37502 -0.35141,-0.6677 0.0799,-0.28968 0.36851,-0.46427 0.64279,-0.39462 0.27406,0.0799 0.43552,0.3777 0.35438,0.67195"
       style="fill:#ffffff;fill-opacity:1;fill-rule:nonzero;stroke:none;stroke-width:0.0352778"
       id="path734"
       inkscape:connector-curvature="0" />
    <path
       d="m 128.57205,176.60025 c -0.0487,0.17738 -0.22572,0.28075 -0.39223,0.23502 -0.1666,-0.0461 -0.26365,-0.22684 -0.21382,-0.40273 0.0483,-0.17737 0.22423,-0.28484 0.39223,-0.23798 0.1666,0.0472 0.26365,0.22608 0.21382,0.40536"
       style="fill:#ffffff;fill-opacity:1;fill-rule:nonzero;stroke:none;stroke-width:0.0352778"
       id="path736"
       inkscape:connector-curvature="0" />
    <path
       d="m 142.98777,147.01745 c 15.78392,1.40209 19.63153,11.53334 19.63153,11.53334 0,0 5.66316,1.27904 7.61779,10.28516 2.26684,10.45253 -3.45931,16.4291 -8.8614,22.00331 -11.8734,-7.07101 -7.40397,-23.12915 -7.40397,-23.12915 -5.84158,8.67238 -18.76574,-0.0513 -21.33166,-3.32009 -5.08991,-6.48437 -12.6762,0.6718 -14.13236,6.28603 -3.04343,-11.45752 9.37567,-25.00216 24.48007,-23.6586"
       style="fill:#6d271d;fill-opacity:1;fill-rule:nonzero;stroke:none;stroke-width:0.0352778"
       id="path738"
       inkscape:connector-curvature="0" />
    <path
       d="m 162.34249,162.48786 c 1.73292,-0.74144 7.85656,8.20406 4.45235,15.1266 -0.32797,-5.84791 -2.30094,-8.24616 -2.30094,-8.24616 0,0 2.25372,4.43001 -0.46307,12.49425 -1.20032,-9.73682 -4.64256,-13.12146 -4.64256,-13.12146 0,0 1.39182,7.14698 2.73515,11.0578 -5.21191,-6.51862 -5.68283,-14.88819 -3.88958,-16.39522 1.74605,-1.15209 4.94034,6.91829 4.94034,6.91829 0,0 -2.3298,-7.1951 -0.83169,-7.8341"
       style="fill:#853d31;fill-opacity:1;fill-rule:nonzero;stroke:none;stroke-width:0.0352778"
       id="path740"
       inkscape:connector-curvature="0" />
    <path
       d="m 157.88228,157.44399 c -3.42912,-5.12531 -10.16014,-11.11526 -24.78963,-7.68755 7.43149,-0.51963 12.21573,2.02677 12.21573,2.02677 0,0 -16.39132,-1.44563 -23.03704,6.6877 5.73534,-4.47872 17.63626,-6.44737 27.18637,-2.05027 -6.25349,1.21858 -15.13195,0.86189 -15.13195,0.86189 0,0 13.16159,4.50483 18.78013,1.20936 -4.41428,4.10459 -10.11024,4.63352 -10.11024,4.63352 0,0 10.17193,0.45389 14.03393,-4.70317 -2.57247,-2.5119 -5.97538,-4.51242 -11.92848,-5.3247 5.4087,-1.98062 12.78118,4.34645 12.78118,4.34645"
       style="fill:#853d31;fill-opacity:1;fill-rule:nonzero;stroke:none;stroke-width:0.0352778"
       id="path742"
       inkscape:connector-curvature="0" />
    <path
       d="m 155.85681,165.48816 c -0.026,0.46935 -5.31685,16.45676 6.8189,25.21846 5.35489,-4.63457 5.51494,-11.27661 5.51494,-11.27661 0,0 -2.90439,5.61214 -5.6986,3.89234 -8.29469,-5.10578 -6.63524,-17.83419 -6.63524,-17.83419"
       style="fill:#58221c;fill-opacity:1;fill-rule:nonzero;stroke:none;stroke-width:0.0352778"
       id="path744"
       inkscape:connector-curvature="0" />
    <path
       d="m 154.23276,164.8779 c -4.68584,4.50479 -12.58305,4.42071 -18.26722,-0.96289 -5.68283,-5.38259 -9.12642,-4.01695 -10.85407,-2.17227 2.7719,-1.23587 4.97181,-1.47211 8.35764,1.84694 7.65323,7.49842 17.26634,8.92189 20.76365,1.28822"
       style="fill:#58221c;fill-opacity:1;fill-rule:nonzero;stroke:none;stroke-width:0.0352778"
       id="path746"
       inkscape:connector-curvature="0" />
    <path
       d="m 157.50183,186.80799 c 0,0 1.92448,-2.2957 4.75409,-0.99319 2.98311,1.37598 1.61356,5.88226 -1.47583,7.4432 -3.0946,1.55727 -6.43581,0.0335 -6.11575,-2.52632 l 2.83749,-3.92369"
       style="fill:#fabd99;fill-opacity:1;fill-rule:nonzero;stroke:none;stroke-width:0.0352778"
       id="path748"
       inkscape:connector-curvature="0" />
    <path
       d="m 161.81776,185.89077 c -0.72018,-0.32649 -1.37349,-0.40797 -1.94805,-0.35252 0.44995,-0.026 0.92481,0.0457 1.39707,0.28856 2.7378,1.40614 1.26331,4.69648 -0.70575,6.05291 -2.66826,1.835 -5.35619,0.68715 -5.85471,-1.41689 -0.29897,2.37977 2.8362,3.80428 5.7327,2.3546 2.89785,-1.45062 4.17425,-5.64338 1.37874,-6.92647"
       style="fill:#eaa376;fill-opacity:1;fill-rule:nonzero;stroke:none;stroke-width:0.0352778"
       id="path750"
       inkscape:connector-curvature="0" />
    <path
       d="m 162.08408,187.24708 c -1.56239,-1.48605 -5.35359,1.28164 -4.1349,4.70578 0.62442,-3.23508 2.13171,-3.54049 2.63152,-1.4994 0.52607,-0.85427 0.41585,-1.66592 -0.72282,-2.24862 0.7963,-1.06638 2.2262,-0.95776 2.2262,-0.95776"
       style="fill:#d48a5b;fill-opacity:1;fill-rule:nonzero;stroke:none;stroke-width:0.0352778"
       id="path752"
       inkscape:connector-curvature="0" />
    <path
       d="m 160.12157,173.7747 c 0.90383,-0.17589 2.63022,-0.24394 2.64201,0.0405 0.0149,0.43042 -4.36181,2.17019 -4.69239,1.05763 -0.14838,-0.50115 0.84742,-0.86345 2.05038,-1.09817 z m -2.13435,2.40078 c 3.03164,0.43042 6.59065,-2.01744 6.50274,-2.92391 -0.38175,-0.68623 -4.22017,-0.8266 -6.69559,0.31384 -1.40628,0.64923 -1.96117,2.30332 0.193,2.61029"
       style="fill:#588eb9;fill-opacity:1;fill-rule:nonzero;stroke:none;stroke-width:0.0352778"
       id="path754"
       inkscape:connector-curvature="0" />
    <path
       d="m 122.08244,159.57823 c 0.29637,-0.76246 1.05209,-2.10036 1.25542,-1.9785 0.31088,0.18406 -0.49062,4.28457 -1.4325,4.02628 -0.41979,-0.11528 -0.21642,-1.03518 0.177,-2.04778 z m 0.70314,2.7021 c 1.71196,-2.08816 1.63718,-5.89249 0.96025,-6.24036 -0.66507,-0.0223 -2.54626,2.8102 -2.88993,5.20009 -0.19559,1.35642 0.71494,2.52684 1.92968,1.04027"
       style="fill:#588eb9;fill-opacity:1;fill-rule:nonzero;stroke:none;stroke-width:0.0352778"
       id="path756"
       inkscape:connector-curvature="0" />
  </g>
</svg>
