<?xml version="1.0" encoding="UTF-8" standalone="no"?>
<!-- Created with Inkscape (http://www.inkscape.org/) -->

<svg
   xmlns:dc="http://purl.org/dc/elements/1.1/"
   xmlns:cc="http://creativecommons.org/ns#"
   xmlns:rdf="http://www.w3.org/1999/02/22-rdf-syntax-ns#"
   xmlns:svg="http://www.w3.org/2000/svg"
   xmlns="http://www.w3.org/2000/svg"
   xmlns:sodipodi="http://sodipodi.sourceforge.net/DTD/sodipodi-0.dtd"
   xmlns:inkscape="http://www.inkscape.org/namespaces/inkscape"
   width="1000"
   height="1000"
   viewBox="0 0 264.58333 264.58334"
   version="1.1"
   id="svg2383"
   inkscape:version="0.92.5 (2060ec1f9f, 2020-04-08)"
   sodipodi:docname="Argentina.svg"
   enable-background="new">
  <defs
     id="defs2377">
    <clipPath
       clipPathUnits="userSpaceOnUse"
       id="clipPath5916">
      <path
         d="m 1908.28,4882.55 c -1.62,-2.8 -4.62,-4.09 -6.71,-2.88 -2.08,1.21 -2.47,4.45 -0.85,7.25 1.62,2.79 4.62,4.08 6.71,2.88 2.08,-1.22 2.47,-4.46 0.85,-7.25 z"
         id="path5914"
         inkscape:connector-curvature="0" />
    </clipPath>
    <radialGradient
       fx="0"
       fy="0"
       cx="0"
       cy="0"
       r="1"
       gradientUnits="userSpaceOnUse"
       gradientTransform="matrix(0.24706956,-1.3425033,-1.3425033,-0.24706956,1314.3413,5339.7444)"
       spreadMethod="pad"
       id="radialGradient5922">
      <stop
         style="stop-opacity:1;stop-color:#ffffff"
         offset="0"
         id="stop5918" />
      <stop
         style="stop-opacity:1;stop-color:#f0396c"
         offset="1"
         id="stop5920" />
    </radialGradient>
    <clipPath
       clipPathUnits="userSpaceOnUse"
       id="clipPath5900">
      <path
         d="m 1812.08,4879.41 c 0.02,-3.23 -1.91,-5.87 -4.33,-5.88 -2.4,-0.02 -4.38,2.58 -4.4,5.81 -0.02,3.24 1.92,5.87 4.33,5.89 2.41,0.01 4.38,-2.59 4.4,-5.82 z"
         id="path5898"
         inkscape:connector-curvature="0" />
    </clipPath>
    <radialGradient
       fx="0"
       fy="0"
       cx="0"
       cy="0"
       r="1"
       gradientUnits="userSpaceOnUse"
       gradientTransform="matrix(0.89284273,-1.0324832,-1.0324832,-0.89284273,1288.7422,5338.3265)"
       spreadMethod="pad"
       id="radialGradient5906">
      <stop
         style="stop-opacity:1;stop-color:#ffffff"
         offset="0"
         id="stop5902" />
      <stop
         style="stop-opacity:1;stop-color:#f0396c"
         offset="1"
         id="stop5904" />
    </radialGradient>
    <clipPath
       clipPathUnits="userSpaceOnUse"
       id="clipPath5884">
      <path
         d="m 1771.08,4893.41 c 2.46,-2.1 3.18,-5.28 1.62,-7.12 -1.57,-1.84 -4.83,-1.62 -7.29,0.48 -2.46,2.1 -3.18,5.28 -1.62,7.12 1.57,1.83 4.83,1.62 7.29,-0.48 z"
         id="path5882"
         inkscape:connector-curvature="0" />
    </clipPath>
    <radialGradient
       fx="0"
       fy="0"
       cx="0"
       cy="0"
       r="1"
       gradientUnits="userSpaceOnUse"
       gradientTransform="matrix(1.3656555,0,0,-1.3656555,1278.301,5341.157)"
       spreadMethod="pad"
       id="radialGradient5890">
      <stop
         style="stop-opacity:1;stop-color:#ffffff"
         offset="0"
         id="stop5886" />
      <stop
         style="stop-opacity:1;stop-color:#f0396c"
         offset="1"
         id="stop5888" />
    </radialGradient>
    <clipPath
       clipPathUnits="userSpaceOnUse"
       id="clipPath5916-3">
      <path
         d="m 1908.28,4882.55 c -1.62,-2.8 -4.62,-4.09 -6.71,-2.88 -2.08,1.21 -2.47,4.45 -0.85,7.25 1.62,2.79 4.62,4.08 6.71,2.88 2.08,-1.22 2.47,-4.46 0.85,-7.25 z"
         id="path5914-6"
         inkscape:connector-curvature="0" />
    </clipPath>
    <radialGradient
       fx="0"
       fy="0"
       cx="0"
       cy="0"
       r="1"
       gradientUnits="userSpaceOnUse"
       gradientTransform="matrix(0.2470695,-1.342503,-1.342503,-0.2470695,1291.8947,5325.7151)"
       spreadMethod="pad"
       id="radialGradient5922-7">
      <stop
         style="stop-opacity:1;stop-color:#ffffff"
         offset="0"
         id="stop5918-5" />
      <stop
         style="stop-opacity:1;stop-color:#f0396c"
         offset="1"
         id="stop5920-3" />
    </radialGradient>
    <clipPath
       clipPathUnits="userSpaceOnUse"
       id="clipPath5900-5">
      <path
         d="m 1812.08,4879.41 c 0.02,-3.23 -1.91,-5.87 -4.33,-5.88 -2.4,-0.02 -4.38,2.58 -4.4,5.81 -0.02,3.24 1.92,5.87 4.33,5.89 2.41,0.01 4.38,-2.59 4.4,-5.82 z"
         id="path5898-6"
         inkscape:connector-curvature="0" />
    </clipPath>
    <radialGradient
       fx="0"
       fy="0"
       cx="0"
       cy="0"
       r="1"
       gradientUnits="userSpaceOnUse"
       gradientTransform="matrix(0.89284251,-1.032483,-1.032483,-0.89284251,1266.2956,5324.2972)"
       spreadMethod="pad"
       id="radialGradient5906-2">
      <stop
         style="stop-opacity:1;stop-color:#ffffff"
         offset="0"
         id="stop5902-9" />
      <stop
         style="stop-opacity:1;stop-color:#f0396c"
         offset="1"
         id="stop5904-1" />
    </radialGradient>
    <clipPath
       clipPathUnits="userSpaceOnUse"
       id="clipPath5884-2">
      <path
         d="m 1771.08,4893.41 c 2.46,-2.1 3.18,-5.28 1.62,-7.12 -1.57,-1.84 -4.83,-1.62 -7.29,0.48 -2.46,2.1 -3.18,5.28 -1.62,7.12 1.57,1.83 4.83,1.62 7.29,-0.48 z"
         id="path5882-7"
         inkscape:connector-curvature="0" />
    </clipPath>
    <radialGradient
       fx="0"
       fy="0"
       cx="0"
       cy="0"
       r="1"
       gradientUnits="userSpaceOnUse"
       gradientTransform="matrix(1.3656552,0,0,-1.3656552,1255.8543,5327.1278)"
       spreadMethod="pad"
       id="radialGradient5890-0">
      <stop
         style="stop-opacity:1;stop-color:#ffffff"
         offset="0"
         id="stop5886-9" />
      <stop
         style="stop-opacity:1;stop-color:#f0396c"
         offset="1"
         id="stop5888-3" />
    </radialGradient>
  </defs>
  <sodipodi:namedview
     id="base"
     pagecolor="#ffffff"
     bordercolor="#666666"
     borderopacity="1.0"
     inkscape:pageopacity="0.0"
     inkscape:pageshadow="2"
     inkscape:zoom="0.70710678"
     inkscape:cx="397.01085"
     inkscape:cy="565.18284"
     inkscape:document-units="px"
     inkscape:current-layer="layer1"
     showgrid="false"
     units="px"
     inkscape:window-width="1920"
     inkscape:window-height="1031"
     inkscape:window-x="0"
     inkscape:window-y="25"
     inkscape:window-maximized="1"
     showguides="true"
     inkscape:lockguides="true"
     inkscape:object-nodes="false"
     inkscape:snap-nodes="false"
     inkscape:snap-others="false" />
  <metadata
     id="metadata2380">
    <rdf:RDF>
      <cc:Work
         rdf:about="">
        <dc:format>image/svg+xml</dc:format>
        <dc:type
           rdf:resource="http://purl.org/dc/dcmitype/StillImage" />
        <dc:title></dc:title>
      </cc:Work>
    </rdf:RDF>
  </metadata>
  <g
     inkscape:groupmode="layer"
     id="layer3"
     inkscape:label="Layer 2" />
  <g
     inkscape:groupmode="layer"
     id="layer2"
     inkscape:label="Layer 3" />
  <g
     inkscape:label="Layer 1"
     inkscape:groupmode="layer"
     id="layer1"
     transform="translate(0,-32.41665)">
    <text
       xml:space="preserve"
       style="font-style:normal;font-variant:normal;font-weight:bold;font-stretch:normal;font-size:10.58333302px;line-height:1.25;font-family:sans-serif;-inkscape-font-specification:'sans-serif Bold';letter-spacing:0px;word-spacing:0px;fill:#000000;fill-opacity:1;stroke:none;stroke-width:0.26458332"
       x="150.05655"
       y="89.869026"
       id="text8811" />
    <text
       xml:space="preserve"
       style="font-style:normal;font-variant:normal;font-weight:bold;font-stretch:normal;font-size:10.58333302px;line-height:1.25;font-family:sans-serif;-inkscape-font-specification:'sans-serif Bold';letter-spacing:0px;word-spacing:0px;fill:#000000;fill-opacity:1;stroke:none;stroke-width:0.26458332"
       x="160.63989"
       y="97.806526"
       id="text8815" />
    <text
       xml:space="preserve"
       style="font-style:normal;font-variant:normal;font-weight:bold;font-stretch:normal;font-size:10.58333302px;line-height:1.25;font-family:sans-serif;-inkscape-font-specification:'sans-serif Bold';letter-spacing:0px;word-spacing:0px;fill:#000000;fill-opacity:1;stroke:none;stroke-width:0.26458332"
       x="156.86011"
       y="88.7351"
       id="text8819" />
    <flowRoot
       xml:space="preserve"
       id="flowRoot8821"
       style="font-style:normal;font-variant:normal;font-weight:bold;font-stretch:normal;font-size:40px;line-height:1.25;font-family:sans-serif;-inkscape-font-specification:'sans-serif Bold';letter-spacing:0px;word-spacing:0px;fill:#000000;fill-opacity:1;stroke:none"><flowRegion
         id="flowRegion8823"
         style="font-style:normal;font-variant:normal;font-weight:bold;font-stretch:normal;font-family:sans-serif;-inkscape-font-specification:'sans-serif Bold'" /><flowPara
         id="flowPara8827" /></flowRoot>    <flowRoot
       xml:space="preserve"
       id="flowRoot8829"
       style="font-style:normal;font-variant:normal;font-weight:bold;font-stretch:normal;font-size:40px;line-height:1.25;font-family:sans-serif;-inkscape-font-specification:'sans-serif Bold';letter-spacing:0px;word-spacing:0px;fill:#000000;fill-opacity:1;stroke:none"><flowRegion
         id="flowRegion8831"
         style="font-style:normal;font-variant:normal;font-weight:bold;font-stretch:normal;font-family:sans-serif;-inkscape-font-specification:'sans-serif Bold'" /><flowPara
         id="flowPara8835" /></flowRoot>    <flowRoot
       xml:space="preserve"
       id="flowRoot8837"
       style="font-style:normal;font-variant:normal;font-weight:bold;font-stretch:normal;font-size:40px;line-height:1.25;font-family:sans-serif;-inkscape-font-specification:'sans-serif Bold';letter-spacing:0px;word-spacing:0px;fill:#000000;fill-opacity:1;stroke:none"><flowRegion
         id="flowRegion8839"
         style="font-style:normal;font-variant:normal;font-weight:bold;font-stretch:normal;font-family:sans-serif;-inkscape-font-specification:'sans-serif Bold'" /><flowPara
         id="flowPara8843" /></flowRoot>    <text
       xml:space="preserve"
       style="font-style:normal;font-variant:normal;font-weight:bold;font-stretch:normal;font-size:10.58333302px;line-height:1.25;font-family:sans-serif;-inkscape-font-specification:'sans-serif Bold';letter-spacing:0px;word-spacing:0px;fill:#000000;fill-opacity:1;stroke:none;stroke-width:0.26458332"
       x="209.39882"
       y="107.25594"
       id="text8847" />
    <flowRoot
       xml:space="preserve"
       id="flowRoot8849"
       style="font-style:normal;font-variant:normal;font-weight:bold;font-stretch:normal;font-size:40px;line-height:1.25;font-family:sans-serif;-inkscape-font-specification:'sans-serif Bold';letter-spacing:0px;word-spacing:0px;fill:#000000;fill-opacity:1;stroke:none"><flowRegion
         id="flowRegion8851"
         style="font-style:normal;font-variant:normal;font-weight:bold;font-stretch:normal;font-family:sans-serif;-inkscape-font-specification:'sans-serif Bold'" /><flowPara
         id="flowPara8855" /></flowRoot>    <flowRoot
       xml:space="preserve"
       id="flowRoot8857"
       style="font-style:normal;font-variant:normal;font-weight:bold;font-stretch:normal;font-size:40px;line-height:1.25;font-family:sans-serif;-inkscape-font-specification:'sans-serif Bold';letter-spacing:0px;word-spacing:0px;fill:#000000;fill-opacity:1;stroke:none"><flowRegion
         id="flowRegion8859"
         style="font-style:normal;font-variant:normal;font-weight:bold;font-stretch:normal;font-family:sans-serif;-inkscape-font-specification:'sans-serif Bold'" /><flowPara
         id="flowPara8863" /></flowRoot>    <flowRoot
       xml:space="preserve"
       id="flowRoot8865"
       style="font-style:normal;font-variant:normal;font-weight:bold;font-stretch:normal;font-size:40px;line-height:1.25;font-family:sans-serif;-inkscape-font-specification:'sans-serif Bold';letter-spacing:0px;word-spacing:0px;fill:#000000;fill-opacity:1;stroke:none"><flowRegion
         id="flowRegion8867"
         style="font-style:normal;font-variant:normal;font-weight:bold;font-stretch:normal;font-family:sans-serif;-inkscape-font-specification:'sans-serif Bold'" /><flowPara
         id="flowPara8871" /></flowRoot>    <flowRoot
       xml:space="preserve"
       id="flowRoot8873"
       style="font-style:normal;font-variant:normal;font-weight:bold;font-stretch:normal;font-size:40px;line-height:1.25;font-family:sans-serif;-inkscape-font-specification:'sans-serif Bold';letter-spacing:0px;word-spacing:0px;fill:#000000;fill-opacity:1;stroke:none"><flowRegion
         id="flowRegion8875"
         style="font-style:normal;font-variant:normal;font-weight:bold;font-stretch:normal;font-family:sans-serif;-inkscape-font-specification:'sans-serif Bold'" /><flowPara
         id="flowPara8879" /></flowRoot>    <text
       xml:space="preserve"
       style="font-style:normal;font-weight:normal;font-size:10.58333302px;line-height:1.25;font-family:sans-serif;letter-spacing:0px;word-spacing:0px;fill:#000000;fill-opacity:1;stroke:none;stroke-width:0.26458332"
       x="101.02788"
       y="69.125984"
       id="text977"><tspan
         sodipodi:role="line"
         id="tspan975"
         x="101.02788"
         y="78.489754"
         style="stroke-width:0.26458332" /><tspan
         sodipodi:role="line"
         x="101.02788"
         y="91.718918"
         style="stroke-width:0.26458332"
         id="tspan979" /><tspan
         sodipodi:role="line"
         x="101.02788"
         y="104.94809"
         style="stroke-width:0.26458332"
         id="tspan981" /><tspan
         sodipodi:role="line"
         x="101.02788"
         y="118.17725"
         style="stroke-width:0.26458332"
         id="tspan983" /><tspan
         sodipodi:role="line"
         x="101.02788"
         y="131.40642"
         style="stroke-width:0.26458332"
         id="tspan985" /><tspan
         sodipodi:role="line"
         x="101.02788"
         y="144.63559"
         style="stroke-width:0.26458332"
         id="tspan987" /><tspan
         sodipodi:role="line"
         x="101.02788"
         y="157.86475"
         style="stroke-width:0.26458332"
         id="tspan989" /><tspan
         sodipodi:role="line"
         x="101.02788"
         y="171.09392"
         style="stroke-width:0.26458332"
         id="tspan991" /><tspan
         sodipodi:role="line"
         x="101.02788"
         y="184.32309"
         style="stroke-width:0.26458332"
         id="tspan993" /><tspan
         sodipodi:role="line"
         x="101.02788"
         y="197.55225"
         style="stroke-width:0.26458332"
         id="tspan995" /><tspan
         sodipodi:role="line"
         x="101.02788"
         y="210.78142"
         style="stroke-width:0.26458332"
         id="tspan997" /><tspan
         sodipodi:role="line"
         x="101.02788"
         y="224.01059"
         style="stroke-width:0.26458332"
         id="tspan999" /><tspan
         sodipodi:role="line"
         x="101.02788"
         y="237.23975"
         style="stroke-width:0.26458332"
         id="tspan1001" /><tspan
         sodipodi:role="line"
         x="101.02788"
         y="250.46892"
         style="stroke-width:0.26458332"
         id="tspan1003" /><tspan
         sodipodi:role="line"
         x="101.02788"
         y="263.69809"
         style="stroke-width:0.26458332"
         id="tspan1005" /><tspan
         sodipodi:role="line"
         x="101.02788"
         y="276.92725"
         style="stroke-width:0.26458332"
         id="tspan1007" /><tspan
         sodipodi:role="line"
         x="101.02788"
         y="290.1564"
         style="stroke-width:0.26458332"
         id="tspan1009" /><tspan
         sodipodi:role="line"
         x="101.02788"
         y="303.38559"
         style="stroke-width:0.26458332"
         id="tspan1011" /><tspan
         sodipodi:role="line"
         x="101.02788"
         y="316.61475"
         style="stroke-width:0.26458332"
         id="tspan1013" /><tspan
         sodipodi:role="line"
         x="101.02788"
         y="329.8439"
         style="stroke-width:0.26458332"
         id="tspan1015" /><tspan
         sodipodi:role="line"
         x="101.02788"
         y="343.07309"
         style="stroke-width:0.26458332"
         id="tspan1017" /><tspan
         sodipodi:role="line"
         x="101.02788"
         y="356.30225"
         style="stroke-width:0.26458332"
         id="tspan1019" /><tspan
         sodipodi:role="line"
         x="101.02788"
         y="369.5314"
         style="stroke-width:0.26458332"
         id="tspan1021" /><tspan
         sodipodi:role="line"
         x="101.02788"
         y="382.76059"
         style="stroke-width:0.26458332"
         id="tspan1023" /></text>
    <path
       d="m 172.59748,74.407598 12.20925,60.265242 c -33.06969,-18.30207 -55.18162,17.47922 -88.23581,-0.87979 L 84.362574,73.528968 c 33.059256,18.388199 55.166536,-17.421128 88.234906,0.87863"
       style="fill:#7cade1;fill-opacity:1;fill-rule:nonzero;stroke:none;stroke-width:0.0352778"
       id="path14"
       inkscape:connector-curvature="0" />
    <path
       d="m 176.64321,94.253958 4.10813,20.280442 c 0,0 -0.0264,-0.001 -0.0297,-0.0264 -33.07358,-18.331093 -55.14955,17.50852 -88.2342,-0.88084 L 88.37982,93.347882 c 33.08464,18.388198 55.15886,-17.449069 88.23261,0.880939 0.007,0.02639 0.033,0.02639 0.033,0.02639"
       style="fill:#ffffff;fill-opacity:1;fill-rule:nonzero;stroke:none;stroke-width:0.0352778"
       id="path16"
       inkscape:connector-curvature="0" />
    <path
       d="m 142.89671,103.16585 c -1.4869,0.0165 -3.06296,0.0581 -5.09682,0.13855 1.85791,-0.68312 3.41757,-1.23355 4.90506,-1.72932 0.035,-0.01 0.0488,-0.0511 0.0297,-0.092 -0.0165,-0.0406 -0.06,-0.0676 -0.0967,-0.0594 -1.5215,0.3398 -3.12164,0.7285 -5.0313,1.22193 -0.007,-0.0198 -0.0132,-0.0406 -0.0198,-0.0604 1.65005,-1.07065 3.13661,-2.00978 4.54357,-2.870929 0.033,-0.01979 0.0363,-0.06532 0.0132,-0.102262 -0.0231,-0.03959 -0.0696,-0.05707 -0.10127,-0.04058 -1.39651,0.681921 -2.92658,1.454661 -4.66949,2.363541 1.47561,-1.42091 2.78433,-2.657991 3.99812,-3.783304 0.0264,-0.02309 0.0231,-0.07323 -0.003,-0.1082 -0.0297,-0.03497 -0.0736,-0.04552 -0.10325,-0.02309 -1.3206,1.020577 -2.73341,2.138934 -4.31537,3.420214 -0.0132,-0.0165 -0.0231,-0.0264 -0.0333,-0.0396 v 0 c 1.02863,-1.483764 2.10509,-3.019908 3.29301,-4.693346 0.0231,-0.02969 0.0132,-0.07917 -0.0231,-0.10952 -0.033,-0.03299 -0.0762,-0.03365 -0.0999,-0.0066 -1.19202,1.402312 -2.39845,2.855821 -3.56625,4.261596 l 0.47001,-0.994977 c 0.66147,-1.404654 1.3211,-2.805779 1.98649,-4.196446 0.0165,-0.03497 4.7e-4,-0.08148 -0.0359,-0.10721 -0.034,-0.02639 -0.0779,-0.02309 -0.097,0.0066 -1.08332,1.873609 -2.03386,3.528443 -2.90794,5.059933 -0.0132,-0.007 -0.0264,-0.0165 -0.0396,-0.0198 0.5059,-1.918998 1.01374,-3.836843 1.52694,-5.750038 0.01,-0.03596 -0.0132,-0.08148 -0.0515,-0.103581 -0.036,-0.01979 -0.0772,-0.0099 -0.0904,0.02639 -0.46186,1.30922 -0.92049,2.624246 -1.37741,3.939273 l -0.56138,1.610596 0.21969,-2.208764 c 0.11711,-1.199833 0.23686,-2.396136 0.35413,-3.59013 0.003,-0.03959 -0.0264,-0.08379 -0.0647,-0.09764 -0.0373,-0.01649 -0.0752,0.0033 -0.0821,0.04189 -0.33815,1.948096 -0.681,3.900842 -1.02734,5.850094 -0.0231,-0.001 -0.0468,-0.001 -0.0686,-0.001 -0.15636,-1.943446 -0.30811,-3.883394 -0.45827,-5.824496 -0.003,-0.04058 -0.0353,-0.07917 -0.0736,-0.08742 -0.001,0 -0.001,0 -0.003,0 -0.0389,-0.0099 -0.0709,0.01979 -0.0699,0.05938 0.003,1.974848 0.0132,3.955536 0.0231,5.931536 -0.007,0.001 -0.01,0.003 -0.0165,0.003 -0.18902,-0.772703 -0.37728,-1.545443 -0.56594,-2.318149 -0.26687,-1.092755 -0.53368,-2.187818 -0.80226,-3.281727 -0.01,-0.04288 -0.0511,-0.07323 -0.0874,-0.07554 -0.0386,0 -0.0633,0.03299 -0.0564,0.07554 l 0.18869,1.166053 c 0.25137,1.543104 0.50145,3.082744 0.7483,4.627003 -0.0264,0.01 -0.0554,0.0231 -0.0828,0.0373 l -0.15406,-0.3401 c -0.72012,-1.585003 -1.44061,-3.173498 -2.16386,-4.757342 -0.0198,-0.04189 -0.063,-0.0663 -0.0977,-0.05575 -0.0346,0.0099 -0.0518,0.04651 -0.0369,0.08973 0.64365,1.792129 1.29104,3.585445 1.9411,5.384602 -0.0198,0.0132 -0.0399,0.0297 -0.059,0.0442 -1.04235,-1.496559 -2.08608,-3.00011 -3.128,-4.500165 -0.0264,-0.03596 -0.0713,-0.05113 -0.10128,-0.03365 -0.0297,0.01649 -0.0383,0.06301 -0.0132,0.101273 0.93101,1.619899 1.86292,3.243329 2.79159,4.859762 -0.0264,0.0297 -0.0518,0.0604 -0.0749,0.0897 -1.55244,-1.44655 -2.7526,-2.567208 -3.88399,-3.629713 -0.033,-0.03299 -0.0755,-0.03365 -0.1,-0.0066 -0.0231,0.02639 -0.0198,0.07323 0.01,0.10721 1.2055,1.358075 2.40613,2.706853 3.60896,4.053313 -0.007,0.0132 -0.0132,0.0231 -0.0198,0.0337 -1.52691,-0.93798 -2.97392,-1.8329 -4.41997,-2.73479 -0.0386,-0.02309 -0.0782,-0.01649 -0.094,0.01979 -0.0165,0.03299 -0.002,0.08016 0.0336,0.105891 1.40776,1.081109 2.80974,2.150579 4.2076,3.214239 -0.007,0.0165 -0.0132,0.0373 -0.0198,0.0548 -0.007,0.0165 -0.0132,0.035 -0.0198,0.0525 -1.46875,-0.4841 -3.17026,-1.04852 -4.84766,-1.63039 -0.0373,-0.0132 -0.0726,0.007 -0.0795,0.0455 -0.007,0.0383 0.0165,0.0825 0.0567,0.1 1.43105,0.661 2.97253,1.36041 4.70627,2.13196 -0.001,0.003 -0.001,0.007 -0.002,0.0132 -1.86606,-0.18143 -3.50809,-0.36075 -5.01455,-0.53997 -0.0386,-0.007 -0.0676,0.0231 -0.065,0.0653 0.003,0.0406 0.0359,0.0802 0.0752,0.0897 l 0.23817,0.0534 c 1.71464,0.3852 3.40438,0.73665 4.70311,1.00431 -0.002,0.0264 -0.003,0.0511 -0.003,0.0755 0,0.007 0,0.0165 -9.6e-4,0.0198 -1.87236,0.27578 -3.52112,0.49574 -5.03816,0.67031 -0.0376,0.007 -0.0587,0.0406 -0.0472,0.0838 0.01,0.0419 0.0505,0.0746 0.0881,0.0746 1.84696,-0.0264 3.66168,-0.0897 5.05364,-0.14646 9.5e-4,0.007 0.002,0.01 0.002,0.0165 -1.90643,0.69706 -3.45666,1.24404 -4.87444,1.71883 -0.0356,0.0132 -0.0485,0.0534 -0.0297,0.0944 0.0165,0.0406 0.0587,0.0653 0.096,0.0594 1.45374,-0.3246 3.03901,-0.70987 4.98499,-1.2068 0.007,0.0231 0.0165,0.0501 0.0264,0.0755 -1.71744,1.1079 -3.14895,2.01328 -4.50353,2.84068 -0.0297,0.0198 -0.035,0.0653 -0.0132,0.10359 0.0231,0.0396 0.0699,0.0558 0.10193,0.0396 1.57556,-0.77037 3.14987,-1.58151 4.50587,-2.28906 -1.21692,1.17074 -2.50892,2.40778 -3.8281,3.63087 -0.0264,0.0264 -0.0231,0.0722 0.003,0.10721 0.0297,0.036 0.0736,0.0455 0.10325,0.0231 1.47013,-1.13 2.91793,-2.27975 4.26578,-3.3574 0.007,0.01 0.0165,0.0231 0.0264,0.033 -1.08378,1.56758 -2.1798,3.13394 -3.25893,4.66309 -0.0198,0.0297 -0.0132,0.0769 0.0231,0.1082 0.033,0.033 0.0775,0.0336 0.10161,0.007 1.30595,-1.55125 2.46828,-2.94541 3.54704,-4.25694 -0.87091,1.85615 -1.67146,3.54942 -2.44651,5.17862 -0.0165,0.033 -0.001,0.0802 0.0353,0.10721 0.0356,0.0264 0.0778,0.0231 0.097,-0.01 1.02826,-1.76887 2.03653,-3.53309 2.88979,-5.02965 0.007,0.003 0.0165,0.01 0.0231,0.0132 0.003,0.002 0.007,0.003 0.0132,0.007 -0.20254,0.76109 -0.40463,1.521 -0.60549,2.28091 -0.30679,1.15329 -0.61285,2.30654 -0.9197,3.45748 -0.01,0.0383 0.0132,0.0848 0.0501,0.1059 0.0376,0.0198 0.0769,0.007 0.0901,-0.0264 0.65507,-1.86316 1.31153,-3.72862 1.96472,-5.59992 -0.10721,1.09276 -0.21574,2.18201 -0.3246,3.27243 -0.0877,0.88212 -0.17418,1.76306 -0.26225,2.644 -0.003,0.0406 0.0231,0.0828 0.0633,0.0976 0.003,0.001 0.007,0.002 0.0132,0.003 0.0359,0.007 0.066,-0.01 0.0729,-0.0465 0.34961,-1.97135 0.69779,-3.94973 1.04377,-5.92458 0.0165,-0.001 0.0386,-0.001 0.0581,-0.001 l 0.45675,5.90364 c 0.003,0.0406 0.0363,0.0792 0.0755,0.0897 4.9e-4,0.001 9.9e-4,0.001 0.003,0.001 0.0386,0.007 0.0699,-0.0198 0.0699,-0.0617 -0.007,-1.73747 -0.007,-3.47026 -0.007,-5.20772 v -0.72151 c 0.45503,1.86661 0.9097,3.72627 1.36381,5.59057 0.01,0.0406 0.0422,0.0746 0.0864,0.0755 0.0396,0 0.0637,-0.033 0.0564,-0.0755 -0.16989,-1.05086 -0.3404,-2.10287 -0.51184,-3.1537 -0.14646,-0.90542 -0.29326,-1.8143 -0.44091,-2.72314 0.0198,-0.007 0.0406,-0.0165 0.0614,-0.0264 l 2.36156,5.18908 c 0.0198,0.0406 0.061,0.0653 0.096,0.0558 0.036,-0.007 0.0518,-0.0478 0.0379,-0.0897 -0.66009,-1.83171 -1.31968,-3.66462 -1.9702,-5.48703 0.01,-0.007 0.0198,-0.0165 0.0297,-0.0231 l 0.033,0.0478 c 1.02965,1.47795 2.05969,2.95357 3.09109,4.43736 0.0231,0.036 0.0693,0.0511 0.10094,0.035 0.0297,-0.0198 0.0376,-0.0617 0.0165,-0.10128 l -1.02411,-1.77942 c -0.58781,-1.02292 -1.17562,-2.04353 -1.76468,-3.06414 0.0165,-0.0231 0.0353,-0.0455 0.0554,-0.0676 1.03783,0.96242 2.07157,1.92949 3.10939,2.89887 l 0.76865,0.72035 c 0.0336,0.0264 0.0782,0.033 0.10095,0.007 0.0231,-0.0264 0.0198,-0.0732 -0.01,-0.1082 l -1.3524,-1.5245 c -0.74688,-0.84254 -1.49283,-1.68393 -2.24113,-2.52412 0,0 0,-0.001 9.6e-4,-0.002 0.001,-0.002 0.003,-0.003 0.003,-0.007 1.41511,0.86817 2.91843,1.78985 4.41766,2.72433 0.0363,0.0231 0.0772,0.0165 0.0917,-0.0165 0.0165,-0.036 0.002,-0.0815 -0.033,-0.1082 -1.35016,-1.03806 -2.69801,-2.06098 -4.18817,-3.19098 0.01,-0.0297 0.0165,-0.0558 0.0297,-0.0861 1.46829,0.48294 3.16805,1.04621 4.83823,1.62574 0.0373,0.01 0.0736,-0.007 0.0798,-0.0455 0.007,-0.0373 -0.0198,-0.0815 -0.0574,-0.0999 -1.56963,-0.7285 -3.14942,-1.43487 -4.67903,-2.12148 0,-0.007 0.001,-0.01 0.003,-0.0165 10e-4,-0.0132 0.003,-0.0231 0.007,-0.0373 1.98523,0.191 3.60758,0.36425 5.10496,0.54809 0.0386,0.003 0.0673,-0.0231 0.0656,-0.0653 -0.003,-0.0406 -0.035,-0.0802 -0.0755,-0.0897 l -0.55136,-0.12436 c -1.41874,-0.31767 -2.88386,-0.63073 -4.47354,-0.95193 8.2e-4,-0.0264 0.003,-0.0501 0.003,-0.0778 1.89515,-0.27479 3.57037,-0.4934 5.12314,-0.67031 0.0383,-0.007 0.0577,-0.0409 0.0475,-0.0838 -0.01,-0.0406 -0.0518,-0.0755 -0.0887,-0.0732"
       style="fill:#f3ae0d;fill-opacity:1;fill-rule:nonzero;stroke:none;stroke-width:0.0352778"
       id="path18"
       inkscape:connector-curvature="0" />
    <path
       d="m 133.91498,107.7498 c 0.002,0.001 0.003,0.002 0.007,0.002 0.0165,0.007 0.0264,0.0231 0.0231,0.0383 -0.10787,1.09272 -0.2164,2.18317 -0.3246,3.27243 l -0.0264,0.26984 c -0.0792,0.79249 -0.15735,1.5815 -0.23586,2.37284 -10e-4,0.0231 0.0165,0.0501 0.0396,0.0594 l 0.007,0.002 c 0.0231,0.003 0.0396,-0.007 0.0435,-0.0297 0.3124,-1.75957 0.64416,-3.64248 1.04377,-5.92339 0.002,-0.01 0.01,-0.0198 0.0198,-0.0198 0.0165,0 0.033,0 0.0492,-0.001 h 0.01 c 0.007,0 0.0165,0.003 0.0231,0.0132 0.007,0.007 0.0132,0.0165 0.0132,0.0231 l 0.45724,5.90597 c 9.6e-4,0.0231 0.0231,0.0478 0.0445,0.0524 0.0231,0.003 0.0445,-0.01 0.0445,-0.036 -0.003,-1.73397 -0.007,-3.49703 -0.007,-5.20076 v -0.72731 c 0,-0.0165 0.01,-0.0264 0.0264,-0.0231 0.0132,0.002 0.0297,0.0165 0.0333,0.0297 0.4555,1.86546 0.91017,3.72511 1.36378,5.59057 0.007,0.0264 0.0264,0.0442 0.0528,0.0442 0.0231,0 0.037,-0.0165 0.033,-0.0442 -0.17022,-1.05085 -0.34132,-2.10287 -0.51181,-3.15488 -0.14679,-0.90539 -0.29326,-1.81427 -0.44094,-2.72196 -0.002,-0.01 0.003,-0.0231 0.0132,-0.0264 0.0198,-0.007 0.0406,-0.0198 0.0604,-0.0297 0.007,-0.003 0.0165,-0.003 0.0231,0 0.01,0.003 0.0165,0.01 0.0198,0.0198 l 2.35972,5.18908 c 0.01,0.0231 0.037,0.0406 0.0577,0.0336 0.0231,-0.003 0.033,-0.0264 0.0231,-0.0534 l -0.0475,-0.12931 c -0.63274,-1.76073 -1.28686,-3.57849 -1.92332,-5.35666 -0.003,-0.0132 -0.002,-0.0264 0.007,-0.033 l 0.0297,-0.0231 c 0.007,-0.003 0.0132,-0.007 0.0198,-0.003 0.01,0.003 0.0165,0.007 0.0198,0.0165 l 0.0336,0.0465 c 1.02968,1.47792 2.06028,2.95472 3.09076,4.43848 0.0165,0.0198 0.0416,0.0297 0.061,0.0198 0.0198,-0.0132 0.0231,-0.0396 0.01,-0.0617 l -1.02457,-1.77917 c -0.58827,-1.02292 -1.17374,-2.04353 -1.76376,-3.06295 -0.007,-0.0132 -0.007,-0.0264 0,-0.036 0.0165,-0.0231 0.036,-0.0455 0.0558,-0.0686 0.007,-0.0132 0.0264,-0.01 0.0396,0.003 0.96601,0.8949 1.9474,1.81192 2.89385,2.69636 l 0.98617,0.92043 c 0.0165,0.0165 0.0469,0.0198 0.061,0.003 0.0132,-0.0165 0.01,-0.0442 -0.007,-0.0653 l -1.46607,-1.6525 c -0.70921,-0.79833 -1.41746,-1.59898 -2.1265,-2.39613 -0.007,-0.007 -0.01,-0.0165 -0.01,-0.0264 0,-0.003 10e-4,-0.01 0.003,-0.0132 v 0 c 0,0 0.003,-0.007 0.003,-0.007 0.007,-0.0132 0.0231,-0.0198 0.0376,-0.01 1.41148,0.86583 2.91339,1.78866 4.41671,2.72664 0.0231,0.0132 0.0478,0.007 0.0564,-0.01 0.01,-0.0198 4.6e-4,-0.0488 -0.0198,-0.0653 -1.33003,-1.02411 -2.6283,-2.00863 -4.18803,-3.19332 -0.0132,-0.01 -0.0198,-0.0264 -0.0132,-0.0396 0.01,-0.0264 0.0198,-0.0571 0.0297,-0.0848 0.007,-0.0132 0.0165,-0.0165 0.0297,-0.0132 1.45605,0.47832 3.14928,1.03806 4.83856,1.62574 0.0198,0.003 0.0449,-0.003 0.0491,-0.0297 0.002,-0.0198 -0.0132,-0.0488 -0.034,-0.0594 -1.59513,-0.73896 -3.23389,-1.47327 -4.68041,-2.12033 -0.0132,-0.007 -0.0264,-0.0231 -0.0231,-0.0383 4.6e-4,-0.007 0.002,-0.0132 0.003,-0.0198 0.002,-0.0132 0.003,-0.0231 0.007,-0.0383 0.002,-0.0132 0.0132,-0.0198 0.0264,-0.0198 1.98884,0.19199 3.61164,0.36775 5.1045,0.55047 0.0231,0.002 0.0416,-0.0165 0.0399,-0.0383 -0.003,-0.0264 -0.0231,-0.0488 -0.0449,-0.0558 l -0.55231,-0.12469 c -1.41406,-0.31669 -2.877,-0.6274 -4.47262,-0.95325 h -7.9e-4 c -0.007,-0.001 -0.0165,-0.007 -0.0198,-0.0132 -0.007,-0.007 -0.01,-0.0165 -0.01,-0.0264 0.001,-0.0231 0.003,-0.0501 0.003,-0.0755 0,-0.0132 0.007,-0.0231 0.0198,-0.0231 1.88838,-0.27347 3.56393,-0.49459 5.1231,-0.67262 0.0231,-0.002 0.0346,-0.0231 0.0264,-0.0488 -0.007,-0.0231 -0.0346,-0.0478 -0.0524,-0.0442 -1.4891,0.0165 -3.06015,0.0581 -5.09589,0.13723 -0.0165,0 -0.0297,-0.01 -0.036,-0.0231 -0.007,-0.0165 -9.5e-4,-0.033 0.0132,-0.0373 1.85837,-0.68312 3.41708,-1.23009 4.90585,-1.72583 0.0231,-0.007 0.0297,-0.033 0.0165,-0.0557 -0.01,-0.0231 -0.0363,-0.0419 -0.0571,-0.036 -1.52146,0.33981 -3.11926,0.7285 -5.03176,1.22309 -0.007,0.001 -0.0165,0 -0.0231,-0.007 -0.007,-0.003 -0.0132,-0.0132 -0.0165,-0.0231 l -0.0198,-0.0617 c -0.003,-0.0132 -4.6e-4,-0.0264 0.01,-0.033 1.66288,-1.0788 3.15116,-2.01793 4.54532,-2.872116 0.0165,-0.0132 0.0198,-0.03827 0.007,-0.06037 -0.0132,-0.02309 -0.0442,-0.03497 -0.061,-0.02309 -1.39822,0.680806 -2.92562,1.454666 -4.67031,2.363546 -0.0132,0.007 -0.0297,0 -0.0393,-0.0132 -0.01,-0.0132 -0.01,-0.033 -4.6e-4,-0.0419 1.47376,-1.41742 2.78249,-2.654467 3.99895,-3.78331 0.0165,-0.01649 0.0132,-0.0442 -0.002,-0.06532 -0.0165,-0.01979 -0.0435,-0.02969 -0.0627,-0.0132 -1.33468,1.026416 -2.74617,2.14596 -4.31546,3.41675 -0.01,0.007 -0.0264,0.007 -0.0402,-0.007 -0.0132,-0.0132 -0.0231,-0.0264 -0.034,-0.0396 -0.007,-0.01 -0.01,-0.0165 -0.01,-0.0264 0,-0.003 9.6e-4,-0.01 0.003,-0.0165 0.99511,-1.437217 2.0719,-2.972206 3.29254,-4.693345 0.0132,-0.01649 0.007,-0.04651 -0.0132,-0.06532 -0.0198,-0.01979 -0.0478,-0.01979 -0.0604,-0.0033 -1.19017,1.401125 -2.39848,2.854634 -3.56486,4.260405 -0.007,0.0132 -0.0264,0.01 -0.0376,0 -0.0132,-0.01 -0.0198,-0.0264 -0.0132,-0.0406 l 0.59454,-1.261483 c 0.60955,-1.291736 1.23961,-2.62771 1.86246,-3.932246 0.01,-0.01979 0,-0.04783 -0.0198,-0.064 -0.0231,-0.01979 -0.0492,-0.0132 -0.0581,0.0066 -1.08369,1.873609 -2.03562,3.529597 -2.90798,5.059939 -0.007,0.01 -0.0165,0.0132 -0.033,0.007 -0.0132,-0.003 -0.0264,-0.0132 -0.0419,-0.0198 -0.007,-0.003 -0.0132,-0.01 -0.0165,-0.0198 -0.003,-0.007 -0.007,-0.0165 -0.003,-0.0231 0.56267,-2.138967 1.03819,-3.933438 1.52648,-5.751199 0.003,-0.01979 -0.01,-0.05014 -0.0297,-0.06169 -0.0264,-0.0132 -0.0482,-0.0066 -0.0561,0.01649 -0.47364,1.345276 -0.94052,2.685901 -1.37727,3.942736 l -0.5601,1.609443 c -0.003,0.0132 -0.0231,0.0198 -0.034,0.0132 -0.0165,-0.007 -0.0231,-0.0231 -0.0231,-0.0383 l 0.24642,-2.49853 c 0.10919,-1.102057 0.21871,-2.202959 0.32559,-3.301519 0.003,-0.02309 -0.0132,-0.05113 -0.0369,-0.05938 l -0.01,-0.0024 c -0.0198,-0.0033 -0.0383,0.0099 -0.0412,0.02969 -0.34644,1.992332 -0.69232,3.96022 -1.02642,5.850129 -0.002,0.01 -0.0132,0.0198 -0.0231,0.0198 -0.0231,-0.001 -0.0465,-0.002 -0.0683,-0.001 -0.007,-0.001 -0.0198,-0.003 -0.0231,-0.01 -0.007,-0.007 -0.0132,-0.0165 -0.0132,-0.0264 -0.15603,-1.946945 -0.30976,-3.906685 -0.45731,-5.824497 -9.6e-4,-0.02309 -0.0231,-0.04783 -0.0442,-0.05245 -0.0264,-0.0033 -0.0445,0.0099 -0.0449,0.03596 0.007,1.939947 0.0132,3.8857 0.0231,5.825647 v 0.10589 c 4.7e-4,0.0132 -0.007,0.0198 -0.0165,0.0231 l -0.0165,0.002 c -0.01,0.001 -0.0165,-0.001 -0.0264,-0.007 -0.01,-0.003 -0.0132,-0.0132 -0.0165,-0.0231 -0.1336,-0.546969 -0.26753,-1.093907 -0.40044,-1.639723 l -0.23289,-0.954239 c -0.24411,-1.000817 -0.48914,-2.002789 -0.73642,-3.004794 -0.007,-0.02639 -0.033,-0.04552 -0.0521,-0.04552 -0.0231,-0.0011 -0.0373,0.01979 -0.0337,0.0442 l 0.25401,1.56293 c 0.2286,1.410426 0.45688,2.819732 0.6837,4.231346 0.002,0.0132 -0.003,0.0231 -0.0132,0.0297 -0.0264,0.01 -0.0544,0.0198 -0.0815,0.0336 -0.007,0.003 -0.0165,0.002 -0.0231,-0.001 -0.01,-0.003 -0.0165,-0.0132 -0.0198,-0.0198 l -0.31338,-0.69126 c -0.6559,-1.445361 -1.33459,-2.939577 -2.00513,-4.407073 -0.0132,-0.02309 -0.0383,-0.04058 -0.0564,-0.03299 -0.0231,0.0033 -0.033,0.02969 -0.0231,0.05245 0.61829,1.725823 1.27009,3.53659 1.93925,5.385793 0.003,0.0132 0.001,0.0264 -0.007,0.033 l -0.01,0.007 c -0.0165,0.0132 -0.033,0.0264 -0.0495,0.0373 -0.007,0.003 -0.0132,0.003 -0.0198,0.002 -0.003,0.002 -0.0165,-0.007 -0.0231,-0.0132 -0.83231,-1.195154 -1.66367,-2.393799 -2.49609,-3.590135 l -0.63191,-0.90888 c -0.0165,-0.02309 -0.0429,-0.03299 -0.0614,-0.01979 -0.0165,0.0099 -0.0231,0.03497 -0.01,0.05938 0.93283,1.621087 1.86464,3.242175 2.79249,4.862105 0.007,0.0132 0.007,0.0264 -9.6e-4,0.036 -0.0264,0.0264 -0.0505,0.0571 -0.0732,0.0861 -0.01,0.01 -0.0264,0.01 -0.0409,-0.002 -1.55009,-1.44302 -2.74791,-2.562524 -3.88444,-3.62968 -0.0165,-0.01649 -0.0455,-0.01979 -0.061,-0.0033 -0.0132,0.01649 -0.01,0.0442 0.007,0.06532 1.15107,1.297576 2.33204,2.62421 3.60853,4.05097 0.01,0.0132 0.0132,0.0264 0.007,0.0383 l -0.0165,0.036 c -0.007,0.0132 -0.0231,0.0165 -0.0373,0.007 -1.50926,-0.92749 -2.95623,-1.82357 -4.42093,-2.738287 -0.0198,-0.0099 -0.0468,-0.0066 -0.0564,0.0132 -0.01,0.01979 -0.001,0.04783 0.0198,0.06268 1.31595,1.011307 2.69207,2.062137 4.20621,3.214237 0.0132,0.01 0.0198,0.0264 0.0132,0.0406 -0.007,0.0198 -0.0132,0.036 -0.0198,0.0524 -0.007,0.0198 -0.0132,0.0383 -0.0198,0.0558 -0.003,0.0132 -0.0165,0.0165 -0.0297,0.0132 -1.45922,-0.4806 -3.15664,-1.04387 -4.84812,-1.63155 v 0 c -0.0231,-0.003 -0.0432,0.007 -0.0478,0.0264 -0.003,0.0231 0.01,0.0501 0.0343,0.0604 1.43524,0.66451 2.97346,1.36273 4.70637,2.13313 0.0165,0.007 0.0264,0.0231 0.0231,0.0406 -0.002,0.0132 -0.0132,0.033 -0.0264,0.0297 -1.86698,-0.18144 -3.50667,-0.35726 -5.01639,-0.53998 -0.0231,-0.002 -0.0409,0.0132 -0.0393,0.0406 0.003,0.0231 0.0231,0.0478 0.0459,0.0524 l 0.23784,0.0548 c 1.7378,0.38869 3.42569,0.7413 4.70265,1.00431 h 4.6e-4 c 0.007,0.002 0.0132,0.007 0.0198,0.0132 0.007,0.007 0.01,0.0165 0.01,0.0264 -0.002,0.0231 -0.002,0.0488 -0.003,0.0699 5e-4,0.0132 5e-4,0.0198 0,0.0264 -7.9e-4,0.0132 -0.01,0.0198 -0.0198,0.0231 -1.86919,0.27578 -3.51749,0.49344 -5.03803,0.66916 -0.0231,0.003 -0.036,0.0264 -0.0297,0.0501 0.007,0.0264 0.0297,0.0465 0.0541,0.0465 1.8579,-0.0264 3.67623,-0.093 5.05225,-0.14778 0.01,0 0.0165,0.003 0.0231,0.007 0.007,0.007 0.0132,0.0165 0.0132,0.0264 l 0.002,0.0165 c 9.6e-4,0.0132 -0.003,0.0231 -0.0132,0.0264 -1.89924,0.69706 -3.44934,1.24284 -4.87583,1.72117 -0.0231,0.007 -0.0297,0.033 -0.0198,0.0548 0.01,0.0231 0.036,0.0383 0.0594,0.0373 1.45199,-0.32691 3.03571,-0.71105 4.98416,-1.2068 0.007,-0.002 0.0165,0 0.0231,0.003 0.007,0.007 0.0132,0.0132 0.0165,0.0231 0.007,0.0198 0.0132,0.0373 0.0165,0.0558 l 0.007,0.0198 c 0.003,0.0132 0.001,0.0264 -0.01,0.033 -1.71325,1.10552 -3.14476,2.0086 -4.50214,2.84068 -0.0198,0.0132 -0.0231,0.0383 -0.007,0.0617 0.0165,0.0231 0.0419,0.0336 0.0614,0.0231 1.6455,-0.80414 3.27252,-1.64668 4.5062,-2.28909 0.0132,-0.003 0.0297,0 0.0389,0.0132 0.01,0.0132 0.01,0.033 9.5e-4,0.0396 -1.21283,1.16609 -2.51657,2.41478 -3.82843,3.63318 -0.0165,0.0132 -0.0165,0.0429 0.002,0.0627 0.0165,0.0198 0.0445,0.0264 0.062,0.0165 1.51097,-1.1614 3.00429,-2.35074 4.26532,-3.35852 0.0132,-0.01 0.0297,-0.003 0.0422,0.01 l 0.0264,0.0297 c 0.01,0.0132 0.0132,0.0297 0.007,0.0396 -1.07052,1.54775 -2.16746,3.11649 -3.25893,4.66309 -0.0132,0.0165 -0.007,0.0465 0.0132,0.0653 0.0198,0.0198 0.0468,0.0198 0.0614,0.002 1.31328,-1.55706 2.47293,-2.94891 3.54659,-4.25694 0.01,-0.01 0.0264,-0.01 0.0386,0.001 0.0132,0.0132 0.0198,0.0297 0.0132,0.0419 -0.85686,1.82356 -1.65645,3.51564 -2.44559,5.17743 -0.01,0.0198 -0.002,0.0488 0.0198,0.0653 0.0198,0.0165 0.0472,0.0132 0.0587,-0.007 1.02549,-1.76771 2.03561,-3.53425 2.88979,-5.02965 0.007,-0.0132 0.0231,-0.0132 0.0336,-0.007 0.007,0.003 0.0165,0.007 0.0231,0.01 l 0.0132,0.007 c 0.0165,0.007 0.0264,0.0264 0.0198,0.0419 -0.17945,0.67262 -0.35726,1.34643 -0.53509,2.01909 l -0.0709,0.26192 c -0.3058,1.15441 -0.6105,2.30651 -0.91957,3.45745 -0.007,0.0231 0.007,0.0501 0.0297,0.0627 0.0198,0.0132 0.0465,0.003 0.0551,-0.0165 0.72778,-2.07143 1.33469,-3.79726 1.9638,-5.59757 0.003,-0.0132 0.0165,-0.0165 0.0264,-0.0165 z m -0.5118,6.07936 c -0.007,-0.001 -0.0132,-0.002 -0.0165,-0.007 -0.0551,-0.0198 -0.0934,-0.0828 -0.0887,-0.13723 0.0792,-0.79135 0.15736,-1.5815 0.23554,-2.37169 l 0.0264,-0.27116 c 0.10094,-1.00197 0.20155,-2.00395 0.29953,-3.00711 -0.60012,1.71422 -1.18466,3.37951 -1.8807,5.3625 -0.0198,0.0488 -0.0759,0.0617 -0.12734,0.036 -0.0544,-0.0297 -0.0861,-0.0943 -0.0716,-0.14547 0.30876,-1.15091 0.61374,-2.3042 0.92016,-3.45861 l 0.0686,-0.26192 c 0.17054,-0.64122 0.34086,-1.28363 0.51226,-1.92484 -0.84508,1.47911 -1.83834,3.21542 -2.84661,4.9517 -0.0231,0.0442 -0.0874,0.0488 -0.13558,0.0132 -0.0511,-0.0373 -0.0722,-0.10358 -0.0495,-0.15141 0.75424,-1.58616 1.5188,-3.20259 2.33201,-4.93307 -1.02641,1.24753 -2.13649,2.57651 -3.3825,4.05562 -0.033,0.0373 -0.0963,0.033 -0.14086,-0.007 -0.0472,-0.0429 -0.0604,-0.11051 -0.033,-0.15372 1.07554,-1.521 2.15477,-3.06529 3.20902,-4.58979 -1.24743,0.99732 -2.71351,2.1634 -4.19727,3.30386 -0.0386,0.0297 -0.10391,0.0132 -0.14415,-0.033 -0.0396,-0.0511 -0.0422,-0.11744 -0.007,-0.15142 1.25195,-1.16024 2.4947,-2.34843 3.65845,-3.46678 -1.20597,0.62726 -2.74248,1.42095 -4.29756,2.18085 -0.0435,0.0231 -0.10952,-0.007 -0.14086,-0.0571 -0.0336,-0.0548 -0.0264,-0.11644 0.0165,-0.14415 1.35247,-0.82859 2.77886,-1.72814 4.48585,-2.83019 -0.002,-0.007 -0.003,-0.0132 -0.007,-0.0198 -1.9347,0.49458 -3.51076,0.8751 -4.95635,1.1998 -0.0531,0.01 -0.11084,-0.0264 -0.13558,-0.0815 -0.0231,-0.0594 -0.007,-0.11744 0.0432,-0.13162 1.38915,-0.46668 2.8957,-0.99617 4.7286,-1.66764 -1.35378,0.0534 -3.10263,0.11744 -4.88816,0.13954 -0.0538,0.002 -0.10919,-0.0465 -0.12371,-0.10457 -0.0165,-0.0558 0.0132,-0.10721 0.0656,-0.11414 1.51602,-0.17582 3.15746,-0.3945 5.01814,-0.66566 9.9e-4,-0.0198 9.9e-4,-0.033 0.002,-0.0465 -1.27231,-0.2606 -2.94704,-0.61097 -4.66996,-0.99732 l -0.23916,-0.0548 c -0.0544,-0.0132 -0.10094,-0.0676 -0.10523,-0.12568 -0.003,-0.0571 0.0369,-0.0966 0.0924,-0.0907 1.46921,0.17681 3.06529,0.34795 4.87269,0.52483 -1.67509,-0.74595 -3.16933,-1.42441 -4.56581,-2.06912 -0.0531,-0.0264 -0.0891,-0.0874 -0.0805,-0.14185 0.01,-0.0488 0.0518,-0.0769 0.10457,-0.064 4.7e-4,0 0.007,0.002 0.007,0.002 1.68287,0.58302 3.37251,1.14276 4.82496,1.62109 0.007,-0.01 0.01,-0.0198 0.0132,-0.033 0.003,-0.0132 0.01,-0.0198 0.0132,-0.033 -1.50563,-1.1463 -2.87442,-2.19016 -4.1841,-3.195633 -0.0492,-0.03827 -0.0696,-0.103582 -0.0459,-0.149105 0.0198,-0.04651 0.0795,-0.05707 0.12767,-0.02639 1.45096,0.904228 2.88386,1.790978 4.37626,2.708008 -1.26245,-1.41393 -2.432,-2.726646 -3.57351,-4.013731 -0.0412,-0.04783 -0.0482,-0.112819 -0.0165,-0.150095 0.0336,-0.03596 0.0986,-0.02969 0.14152,0.0099 1.13009,1.060162 2.32109,2.175016 3.85987,3.607576 0.0132,-0.0198 0.0297,-0.0383 0.0459,-0.0548 -0.92458,-1.611747 -1.8523,-3.225874 -2.78156,-4.841123 -0.0297,-0.05344 -0.0231,-0.115127 0.0231,-0.140857 0.0429,-0.02309 0.10919,-0.0011 0.14185,0.04882 l 0.63333,0.91119 c 0.82509,1.185846 1.65051,2.374034 2.4756,3.55873 0.007,-0.007 0.0132,-0.0132 0.0198,-0.0165 -0.66552,-1.842209 -1.31562,-3.645983 -1.93239,-5.364846 -0.0198,-0.05806 8.3e-4,-0.114138 0.0508,-0.124364 0.0455,-0.0132 0.1115,0.02309 0.13624,0.07686 0.67008,1.467496 1.34878,2.961712 2.00467,4.405918 l 0.2992,0.657512 c 0.0132,-0.003 0.0264,-0.0132 0.0383,-0.0165 -0.22465,-1.405807 -0.45283,-2.808086 -0.68011,-4.210398 l -0.25368,-1.56293 c -0.01,-0.05938 0.0264,-0.104901 0.0805,-0.104901 0.007,0 0.01,0 0.0165,0.0023 0.0501,0.0099 0.0924,0.05344 0.10523,0.104901 0.24543,0.999663 0.49089,2.005131 0.73411,3.004761 l 0.23421,0.954272 c 0.11777,0.485283 0.23619,0.972876 0.35597,1.459345 -0.007,-1.917843 -0.0165,-3.841494 -0.0198,-5.761682 0,-0.05806 0.0445,-0.09434 0.0996,-0.08247 0.0571,0.0132 0.10259,0.06631 0.10787,0.122055 0.14746,1.906201 0.30019,3.853142 0.45421,5.789597 0.007,0 0.01,0 0.0165,0 0.33456,-1.882916 0.67823,-3.844998 1.02374,-5.830337 0.01,-0.04882 0.0501,-0.07455 0.0986,-0.06532 0.007,0 0.0132,0.0024 0.0198,0.0066 0.0544,0.01979 0.0927,0.08148 0.0877,0.138549 -0.10853,1.098593 -0.21739,2.198308 -0.32592,3.300365 l -0.22101,2.230903 0.47736,-1.367414 c 0.4364,-1.256836 0.90364,-2.597461 1.37691,-3.942737 0.0165,-0.05014 0.0805,-0.06861 0.12767,-0.03728 0.0541,0.02639 0.0854,0.09434 0.0703,0.146796 -0.48235,1.794504 -0.95147,3.569182 -1.50692,5.674395 0.86326,-1.512851 1.80381,-3.149079 2.87341,-4.999432 0.0264,-0.0442 0.0887,-0.05014 0.13723,-0.0132 0.0501,0.03596 0.0719,0.104572 0.0482,0.151414 -0.62284,1.303382 -1.25195,2.640543 -1.862,3.93228 l -0.47957,1.020608 c 1.11604,-1.346462 2.26474,-2.730136 3.40031,-4.064955 0.0297,-0.03958 0.0963,-0.03299 0.14119,0.0066 0.0465,0.0442 0.059,0.111829 0.0297,0.152404 -1.20689,1.703721 -2.27428,3.224723 -3.2616,4.647981 1.55244,-1.25683 2.95066,-2.363542 4.27268,-3.381843 0.0396,-0.02969 0.10556,-0.01319 0.14415,0.03497 0.0399,0.04882 0.0426,0.114138 0.007,0.147785 -1.17014,1.085794 -2.42384,2.271638 -3.82893,3.621568 1.65833,-0.86349 3.1188,-1.60129 4.46085,-2.256499 0.0445,-0.01979 0.10984,0.0066 0.14184,0.05806 0.0346,0.05344 0.0264,0.117436 -0.0165,0.143167 -1.39021,0.851882 -2.87212,1.786352 -4.52903,2.859322 l 0.002,0.007 c 1.8998,-0.49109 3.49074,-0.87863 5.00276,-1.2161 0.0468,-0.0132 0.11084,0.0264 0.13591,0.0815 0.0231,0.0581 0.003,0.11744 -0.0432,0.13261 -1.43685,0.47829 -2.93925,1.00547 -4.71488,1.65714 1.93285,-0.0746 3.44805,-0.11512 4.88539,-0.13261 0.007,0 0.0132,0.002 0.0231,0.003 0.0462,0.0132 0.0887,0.0548 0.10028,0.10227 0.0165,0.0581 -0.0132,0.10952 -0.0657,0.11512 -1.5528,0.17814 -3.22343,0.39685 -5.10311,0.66916 -0.001,0.007 -0.001,0.0165 -0.001,0.0231 1.58289,0.32361 3.03759,0.63073 4.44082,0.94612 l 0.55228,0.12437 c 0.0551,0.0132 0.10194,0.0686 0.10556,0.127 0.003,0.0581 -0.0373,0.0966 -0.0917,0.0907 -1.48699,-0.18044 -3.10264,-0.35495 -5.08273,-0.54697 -4.6e-4,0.001 0,0.002 0,0.003 1.43919,0.64471 3.06658,1.37322 4.65217,2.10987 0.0544,0.0231 0.0891,0.0861 0.0802,0.14085 -0.007,0.0488 -0.0521,0.0755 -0.10556,0.064 -1.68789,-0.58652 -3.37172,-1.14164 -4.82183,-1.61877 -0.003,0.0132 -0.01,0.0264 -0.0132,0.0383 1.54835,1.17654 2.84068,2.15756 4.16583,3.17702 0.0495,0.0373 0.0703,0.10226 0.0462,0.1491 -0.0198,0.0442 -0.0769,0.0581 -0.12865,0.0264 -1.46014,-0.91006 -2.91751,-1.80496 -4.29129,-2.6475 0.67553,0.76106 1.34957,1.521 2.02559,2.28091 l 1.467,1.65483 c 0.0402,0.0478 0.0462,0.11414 0.0132,0.1501 -0.0297,0.0336 -0.0957,0.0297 -0.13854,-0.01 l -0.98545,-0.92168 c -0.94193,-0.87744 -1.91342,-1.78517 -2.87024,-2.6766 -0.01,0.0132 -0.0198,0.0231 -0.0264,0.0336 0.58547,1.01477 1.16873,2.02839 1.75248,3.04435 l 1.02421,1.77936 c 0.0297,0.0548 0.0231,0.11645 -0.0231,0.14086 -0.0426,0.0264 -0.10853,0 -0.14284,-0.0488 -1.02784,-1.4803 -2.05739,-2.95591 -3.08661,-4.43036 0.63146,1.76306 1.27921,3.56337 1.90749,5.3078 l 0.0455,0.12931 c 0.0231,0.0571 -0.001,0.11183 -0.0515,0.1247 -0.0478,0.0132 -0.10985,-0.0231 -0.13492,-0.0792 l -2.34609,-5.15303 c -0.007,0.003 -0.0132,0.007 -0.0198,0.01 0.14778,0.90073 0.29359,1.80147 0.43874,2.70104 0.17054,1.05086 0.34142,2.10288 0.51273,3.15374 0.01,0.0594 -0.0264,0.10457 -0.0798,0.10358 -0.01,0 -0.0132,-0.001 -0.0231,-0.001 -0.0495,-0.0132 -0.09,-0.0524 -0.10127,-0.1049 -0.43405,-1.78517 -0.86824,-3.56569 -1.30513,-5.35086 v 0.48994 c 0.002,1.71068 0.002,3.47144 0.007,5.20772 4.9e-4,0.0571 -0.0435,0.0943 -0.0976,0.0828 -0.0581,-0.0132 -0.10457,-0.0663 -0.10919,-0.12338 l -0.45453,-5.86873 c -0.002,0 -0.003,0 -0.007,0 -0.39823,2.27161 -0.72864,4.15106 -1.04143,5.90713 -0.007,0.0478 -0.0508,0.0755 -0.10061,0.0653"
       style="fill:#ca740f;fill-opacity:1;fill-rule:nonzero;stroke:none;stroke-width:0.0352778"
       id="path20"
       inkscape:connector-curvature="0" />
    <path
       d="m 134.88462,102.87608 c 0.3124,-0.63425 1.11427,-0.88443 1.617,-0.47014 -0.003,0 -0.002,0.007 -0.002,0.007 -0.286,-0.11051 -0.57732,-0.16989 -0.87094,-0.11051 -0.29821,0.0594 -0.52276,0.33282 -0.73827,0.57488 l -0.007,-0.001"
       style="fill:#812c1a;fill-opacity:1;fill-rule:nonzero;stroke:none;stroke-width:0.0352778"
       id="path22"
       inkscape:connector-curvature="0" />
    <path
       d="m 135.4851,102.59212 c 0.0861,-0.0838 0.19034,-0.10952 0.29326,-0.10721 0.1501,-0.0558 0.28436,-0.0264 0.41093,0.0594 l 0.0198,-0.0264 c -0.18276,-0.11743 -0.36996,-0.14679 -0.54638,-0.0907 -0.0564,0 -0.0759,0.0297 -0.0976,0.0557 -0.17516,0.0548 -0.3269,0.19892 -0.41416,0.42944 0.0795,-0.11744 0.19133,-0.22927 0.30778,-0.31899 z m 0.36333,0.2362 c -0.0399,0.0571 -0.11084,0.0884 -0.18902,0.11644 l -0.0264,-0.001 c -0.15603,0.0264 -0.33783,0.0264 -0.48377,-0.033 0.33922,0.23389 0.83651,0.0653 1.06924,-0.33865 l -0.0297,-0.0264 c -0.0858,0.11414 -0.19133,0.22926 -0.34087,0.28402 z m 0.36042,-0.31174 c 0.007,0.0297 0.007,0.0297 0.01,0.0557 l 0.0231,-0.0264 -0.003,-0.0297 h -0.0264"
       style="fill:#812c1a;fill-opacity:1;fill-rule:nonzero;stroke:none;stroke-width:0.0352778"
       id="path24"
       inkscape:connector-curvature="0" />
    <path
       d="m 135.87881,102.62122 c 0.0297,0.13954 -0.0508,0.28501 -0.17186,0.32361 -0.11777,0.036 -0.23653,-0.0478 -0.26688,-0.18869 -0.0264,-0.14086 0.0455,-0.28403 0.16263,-0.32229 0.12272,-0.0383 0.24675,0.0455 0.27578,0.18737"
       style="fill:#812c1a;fill-opacity:1;fill-rule:nonzero;stroke:none;stroke-width:0.0352778"
       id="path26"
       inkscape:connector-curvature="0" />
    <path
       d="m 135.03789,103.10066 c 0.20815,0.15241 0.47143,0.0953 0.68545,0.01 0.21871,-0.0722 0.50191,-0.127 0.60467,-0.38985 -0.0818,0.28172 -0.3696,0.37359 -0.58643,0.47249 -0.23091,0.0604 -0.50596,0.0848 -0.70369,-0.092"
       style="fill:#812c1a;fill-opacity:1;fill-rule:nonzero;stroke:none;stroke-width:0.0352778"
       id="path28"
       inkscape:connector-curvature="0" />
    <path
       d="m 134.05498,103.1414 c -0.28303,-0.0874 -0.58547,-0.19561 -0.875,-0.0686 -0.28007,0.1247 -0.51369,0.3468 -0.71966,0.61678 l -0.007,-0.007 c 0.28699,-0.66098 1.08695,-0.91819 1.60341,-0.54579 l -0.003,0.003"
       style="fill:#812c1a;fill-opacity:1;fill-rule:nonzero;stroke:none;stroke-width:0.0352778"
       id="path30"
       inkscape:connector-curvature="0" />
    <path
       d="m 132.72495,103.63368 0.007,0.0264 h 0.0264 c -0.007,-0.0264 -0.007,-0.0264 -0.01,-0.0548 z m 0.40591,-0.34449 c -0.007,-0.0264 -0.007,-0.0264 0.0264,-0.0264 0.098,-0.0297 0.16923,-0.0558 0.27809,-0.0534 0.16032,0.002 0.30184,0.0581 0.42373,0.11974 -0.16626,-0.14646 -0.35647,-0.17582 -0.56512,-0.15141 0,0 -0.0231,0.002 -0.0495,0.001 h -0.0264 c -0.16857,0.0825 -0.3532,0.22696 -0.47143,0.42825 0.0297,0 0.0373,0.0297 0.0564,0.001 0.0686,-0.17352 0.21046,-0.26061 0.32856,-0.31899 z m 0.31108,0.3246 c -0.0792,0.0264 -0.15142,0.0548 -0.23917,0.0264 -0.0198,0.0264 -0.0264,-0.001 -0.0264,-0.001 -0.11677,0.0557 -0.25829,0.0231 -0.37411,-0.033 -0.0264,-0.001 -0.0198,0.0264 -0.0459,0.0534 0.15339,0.0884 0.37144,0.11974 0.54146,0.036 0.0231,0 0.0231,0 0.0515,0.001 l 0.0264,-0.001 c 0.20188,-0.0534 0.3886,-0.16989 0.48367,-0.3689 -0.10688,0.14184 -0.24906,0.22695 -0.41733,0.28501"
       style="fill:#812c1a;fill-opacity:1;fill-rule:nonzero;stroke:none;stroke-width:0.0352778"
       id="path32"
       inkscape:connector-curvature="0" />
    <path
       d="m 133.08676,103.5045 c 0.0264,0.13723 0.14844,0.22003 0.26918,0.18143 0.12271,-0.0373 0.19528,-0.18374 0.16757,-0.32361 -0.0297,-0.14184 -0.14745,-0.22234 -0.26918,-0.18275 -0.12172,0.0373 -0.19495,0.18275 -0.1679,0.3246"
       style="fill:#812c1a;fill-opacity:1;fill-rule:nonzero;stroke:none;stroke-width:0.0352778"
       id="path34"
       inkscape:connector-curvature="0" />
    <path
       d="m 134.00273,103.43117 c -0.1,0.26654 -0.3505,0.40964 -0.58138,0.49693 -0.22695,0.0383 -0.51636,0.1303 -0.69733,-0.0686 0.18803,0.1712 0.46411,0.0465 0.67962,-0.0132 0.22728,-0.0581 0.47459,-0.16065 0.59909,-0.4143"
       style="fill:#812c1a;fill-opacity:1;fill-rule:nonzero;stroke:none;stroke-width:0.0352778"
       id="path36"
       inkscape:connector-curvature="0" />
    <path
       d="m 136.46566,102.07309 c -0.45315,-0.42475 -1.21738,-0.3433 -1.63514,0.15241 -0.20023,0.26885 -0.2319,0.64705 -0.15966,0.97522 0.0845,0.31305 0.18276,0.7029 0.47955,0.80529 l 0.001,0.007 c -0.31141,-0.0778 -0.47506,-0.45618 -0.54826,-0.79134 -0.0739,-0.34096 -0.0353,-0.76341 0.19463,-1.02991 0.44329,-0.4748 1.23509,-0.67032 1.67743,-0.1247 -0.007,0 -0.007,0.007 -0.01,0.003"
       style="fill:#812c1a;fill-opacity:1;fill-rule:nonzero;stroke:none;stroke-width:0.0352778"
       id="path38"
       inkscape:connector-curvature="0" />
    <path
       d="m 134.02137,104.51577 c -0.0449,0.23521 0.12733,0.3666 0.28237,0.24774 0.13327,-0.18968 0.35818,0.001 0.50739,-0.10589 0.0854,-0.0373 0.12403,-0.10721 0.20716,-0.17813 0.1082,-0.0663 0.20585,0.0165 0.27545,-0.0198 0.14317,0.0198 0.2738,-0.28403 0.10721,-0.38635 0,0 -0.001,-0.007 -0.001,-0.007 0.20519,0.0663 0.11744,0.47829 -0.10358,0.47829 -0.21574,-0.0686 -0.27874,0.0604 -0.47957,0.16526 -0.18177,0.0746 -0.35683,-0.10589 -0.4909,0.11282 -0.17879,0.18276 -0.41277,-0.1 -0.30975,-0.30711 l 0.007,0.001"
       style="fill:#812c1a;fill-opacity:1;fill-rule:nonzero;stroke:none;stroke-width:0.0352778"
       id="path40"
       inkscape:connector-curvature="0" />
    <path
       d="m 135.71298,105.18028 c -0.24642,-0.17681 -0.53335,-0.23058 -0.776,0.0264 -0.30745,-0.0132 -0.58059,0.0943 -0.70918,0.43406 0.0647,-0.14416 0.12701,-0.32362 0.27149,-0.39451 0.12866,-0.0943 0.30217,-0.092 0.4114,-0.12106 0.11083,-0.063 0.26423,-0.18143 0.41544,-0.14317 0.14515,0.0264 0.27149,0.11051 0.38695,0.19793"
       style="fill:#812c1a;fill-opacity:1;fill-rule:nonzero;stroke:none;stroke-width:0.0352778"
       id="path42"
       inkscape:connector-curvature="0" />
    <path
       d="m 134.42415,105.64112 c 0.18143,-0.0558 0.3655,-0.14416 0.5601,-0.1303 0.11216,-0.10589 0.34004,-0.18143 0.5182,-0.20354 -0.0927,0.0264 -0.18308,0.0663 -0.26984,0.11051 -0.0924,0.0442 -0.12733,0.1 -0.25697,0.17913 -0.17451,-0.0442 -0.36554,0.0132 -0.55149,0.0442"
       style="fill:#812c1a;fill-opacity:1;fill-rule:nonzero;stroke:none;stroke-width:0.0352778"
       id="path44"
       inkscape:connector-curvature="0" />
    <path
       d="m 135.67924,105.30131 c -0.11249,0.099 -0.22597,0.20486 -0.30811,0.33166 -0.0429,0.14779 -0.17418,0.29689 -0.31602,0.33166 -0.31834,0.14086 -0.52091,-0.24774 -0.79821,-0.20716 0.28897,-0.0594 0.50913,0.28501 0.78099,0.12568 0.13855,-0.0336 0.23454,-0.11644 0.30711,-0.27347 0.0977,-0.12799 0.21442,-0.21871 0.3341,-0.30843"
       style="fill:#812c1a;fill-opacity:1;fill-rule:nonzero;stroke:none;stroke-width:0.0352778"
       id="path46"
       inkscape:connector-curvature="0" />
    <path
       d="m 134.66921,106.56511 c 0.0581,-0.22927 0.17451,-0.49808 0.41361,-0.55509 0.21112,-0.0627 0.45094,0.0953 0.54416,0.3025 -0.2573,-0.42943 -0.83964,-0.24543 -0.95777,0.25236"
       style="fill:#812c1a;fill-opacity:1;fill-rule:nonzero;stroke:none;stroke-width:0.0352778"
       id="path48"
       inkscape:connector-curvature="0" />
    <path
       d="m 134.23328,104.3156 c 0.0973,-0.34911 0.13129,-0.71451 0.097,-1.06016 -0.0264,-0.34096 -0.17417,-0.73196 -0.49458,-0.7797 -0.60015,-0.13162 -1.22926,0.24444 -1.53694,0.89028 l -0.007,-0.007 c 0.23817,-0.68895 0.9446,-1.1393 1.55379,-0.93448 0.32361,0.0861 0.48459,0.4713 0.5373,0.81575 0.0591,0.36544 -0.0363,0.73666 -0.14316,1.07531 l -0.007,-0.001"
       style="fill:#812c1a;fill-opacity:1;fill-rule:nonzero;stroke:none;stroke-width:0.0352778"
       id="path50"
       inkscape:connector-curvature="0" />
    <path
       d="m 101.1345,246.07156 c -0.77924,1.13237 -2.13161,5.58138 0.83779,6.67647 3.30805,1.22283 4.69905,-2.74795 4.82717,-4.45721 -2.98837,-2.03288 -5.66496,-2.21926 -5.66496,-2.21926"
       style="fill:#e5e3de;fill-opacity:1;fill-rule:nonzero;stroke:none;stroke-width:0.0352778"
       id="path52"
       inkscape:connector-curvature="0" />
    <path
       d="m 102.83914,242.96543 c -1.14966,0.95183 -3.93855,6.58232 -0.23355,8.16155 3.70671,1.5815 5.40089,-3.77988 5.28916,-6.39964 -3.16663,-1.36962 -5.05551,-1.76191 -5.05551,-1.76191"
       style="fill:#69575e;fill-opacity:1;fill-rule:nonzero;stroke:none;stroke-width:0.0352778"
       id="path54"
       inkscape:connector-curvature="0" />
    <path
       d="m 104.26158,249.97234 c -2.83801,-1.21145 -1.86523,-4.79224 -0.73639,-6.83237 -0.14548,-0.0406 -0.26951,-0.0745 -0.36821,-0.0976 -1.21379,1.23599 -3.66673,6.51374 -0.0999,8.03478 0.5182,0.2197 0.99148,0.29194 1.43058,0.26951 0.68146,-0.159 1.25693,-0.59233 1.73291,-1.17737 -0.57732,0.15373 -1.22741,0.11513 -1.95881,-0.19693"
       style="fill:#574249;fill-opacity:1;fill-rule:nonzero;stroke:none;stroke-width:0.0352778"
       id="path56"
       inkscape:connector-curvature="0" />
    <path
       d="m 103.07504,244.30596 c 1.14464,-0.22333 3.34806,0.66005 3.81042,1.49194 0.46503,0.82733 -0.2451,1.38284 -0.7065,1.30011 -0.46176,-0.0815 -1.74921,-0.85326 -3.25392,-1.18601 -1.50147,-0.33502 -0.76459,-1.42877 0.1501,-1.60604"
       style="fill:#e5e3de;fill-opacity:1;fill-rule:nonzero;stroke:none;stroke-width:0.0352778"
       id="path58"
       inkscape:connector-curvature="0" />
    <path
       d="m 145.34556,244.67598 c 0.85827,0.38187 1.70335,1.80288 1.35784,4.40038 -0.3441,2.59521 -1.21283,6.19689 -4.35179,6.62375 -3.25065,0.4423 -2.71067,-2.62068 -2.71067,-2.62068 l 5.70462,-8.40345"
       style="fill:#e5e3de;fill-opacity:1;fill-rule:nonzero;stroke:none;stroke-width:0.0352778"
       id="path60"
       inkscape:connector-curvature="0" />
    <path
       d="m 142.999,242.9304 c 1.05004,0.5914 2.97616,1.44918 2.74073,3.43301 -0.23422,1.97969 -0.91739,7.45973 -4.03398,7.77747 -3.11847,0.31404 -2.77342,-2.28111 -2.2979,-3.98942 0.47631,-1.70926 -0.27743,-3.97853 -0.27743,-3.97853 l 3.86848,-3.24253"
       style="fill:#69575e;fill-opacity:1;fill-rule:nonzero;stroke:none;stroke-width:0.0352778"
       id="path62"
       inkscape:connector-curvature="0" />
    <path
       d="m 142.89859,243.63584 -1.00791,0.84238 c 1.07517,0.58916 2.60386,1.45968 2.39296,3.23894 -0.15999,1.34874 -0.53182,4.31853 -1.73651,6.17825 1.90924,-0.89598 2.6702,-4.00079 3.00523,-6.13781 0.0336,-0.25697 0.0627,-0.49547 0.0864,-0.69096 0.23587,-1.98336 -1.69056,-2.84065 -2.74013,-3.4308"
       style="fill:#574249;fill-opacity:1;fill-rule:nonzero;stroke:none;stroke-width:0.0352778"
       id="path64"
       inkscape:connector-curvature="0" />
    <path
       d="m 138.79767,247.34938 c 0.61424,-0.99508 2.75307,-2.01562 3.67673,-1.80015 0.92738,0.22333 0.85464,1.11694 0.48191,1.39968 -0.37368,0.28633 -1.81159,0.71323 -3.07482,1.59103 -1.26383,0.8819 -1.56884,-0.39595 -1.08382,-1.19056"
       style="fill:#e5e3de;fill-opacity:1;fill-rule:nonzero;stroke:none;stroke-width:0.0352778"
       id="path66"
       inkscape:connector-curvature="0" />
    <path
       d="m 110.98485,216.4263 c 0,0 -4.44491,14.02896 -8.10114,25.85856 0.77785,1.47643 4.16352,3.68533 5.60865,2.38202 3.26801,-6.6997 9.4172,-16.9628 12.96705,-16.94139 3.56849,0.89456 12.4465,17.66873 17.0328,19.17341 4.26545,-0.50142 4.86685,-4.3758 4.86685,-4.3758 0,0 -7.49028,-9.55766 -10.73499,-21.57103 -7.13335,-4.73036 -21.63922,-4.52577 -21.63922,-4.52577"
       style="fill:#cdccc9;fill-opacity:1;fill-rule:nonzero;stroke:none;stroke-width:0.0352778"
       id="path68"
       inkscape:connector-curvature="0" />
    <path
       d="m 111.38167,217.19086 -2.31153,6.71965 c 0,0 7.80066,-3.19935 14.89539,-1.84336 7.09251,1.35785 9.54449,3.62853 9.54449,3.62853 0,0 -1.24789,-3.88712 -1.86698,-6.13778 -3.99033,-1.62422 -20.26137,-2.36704 -20.26137,-2.36704"
       style="fill:#b1b0ae;fill-opacity:1;fill-rule:nonzero;stroke:none;stroke-width:0.0352778"
       id="path70"
       inkscape:connector-curvature="0" />
    <path
       d="m 117.31268,226.52312 c 2.55975,0.40043 3.71393,1.20458 8.68262,-0.0502 -2.65938,1.45559 -6.27336,1.60374 -8.68262,0.0502"
       style="fill:#b1b0ae;fill-opacity:1;fill-rule:nonzero;stroke:none;stroke-width:0.0352778"
       id="path72"
       inkscape:connector-curvature="0" />
    <path
       d="m 103.31011,240.47515 c 0,0 3.23706,3.18619 6.14734,2.68346 -0.40139,1.30691 -0.8273,2.03422 -0.8273,2.03422 0,0 -4.4427,0.30151 -6.06098,-2.56025 0.30151,-1.09272 0.74094,-2.15743 0.74094,-2.15743"
       style="fill:#9f9f9d;fill-opacity:1;fill-rule:nonzero;stroke:none;stroke-width:0.0352778"
       id="path74"
       inkscape:connector-curvature="0" />
    <path
       d="m 142.03846,240.54835 c 0,0 -0.88688,3.49027 -5.48551,5.30454 0.68417,1.29876 1.63752,1.80017 1.63752,1.80017 0,0 5.06993,-1.40604 5.27043,-5.32189 -0.65052,-0.92504 -1.42244,-1.78282 -1.42244,-1.78282"
       style="fill:#9f9f9d;fill-opacity:1;fill-rule:nonzero;stroke:none;stroke-width:0.0352778"
       id="path76"
       inkscape:connector-curvature="0" />
    <path
       d="m 120.87661,192.29506 c 0,0 -8.01069,0.30052 -15.83903,-3.26161 -0.80101,-0.40499 -1.51694,1.79784 -0.1181,2.91026 1.7924,1.42104 10.15454,3.26068 15.31862,3.34796 0.61143,-1.70372 0.63868,-2.99661 0.63868,-2.99661"
       style="fill:#fabd99;fill-opacity:1;fill-rule:nonzero;stroke:none;stroke-width:0.0352778"
       id="path78"
       inkscape:connector-curvature="0" />
    <path
       d="m 116.50586,192.20777 c -0.0538,0.44827 -0.17846,1.46885 -0.29128,2.33795 -0.59375,0.007 -1.53522,-0.0673 -2.75343,-0.42686 0.50636,-0.0894 1.15048,-0.30349 1.26277,-0.82044 0.15175,-0.69242 -0.88328,-1.33377 -1.31512,-1.56745 0.95054,0.26192 1.98069,0.43643 3.09716,0.4768"
       style="fill:#eaa376;fill-opacity:1;fill-rule:nonzero;stroke:none;stroke-width:0.0352778"
       id="path80"
       inkscape:connector-curvature="0" />
    <path
       d="m 116.26716,190.26585 c 1.10509,0.31404 2.91203,0.71547 5.52183,0.71547 1.41871,0.68321 1.48689,2.05748 1.15827,3.52168 -0.6587,2.92796 -5.13267,2.81158 -8.19483,1.80694 -0.31438,-1.40103 0.15735,-4.85627 1.51473,-6.04409"
       style="fill:#e5f6f9;fill-opacity:1;fill-rule:nonzero;stroke:none;stroke-width:0.0352778"
       id="path82"
       inkscape:connector-curvature="0" />
    <path
       d="m 132.11715,194.00119 c 0,0 -1.39196,-1.43012 -2.70708,-2.27847 0.2992,-1.50144 1.07375,-3.05609 1.07375,-3.05609 l -2.60386,-1.06471 c 0,0 -0.92049,2.33204 -1.1714,3.3062 -2.09974,-0.0759 -3.67497,0.0815 -3.67497,0.0815 0,0 -4.88675,3.67751 2.00744,5.42184 1.8138,0.45629 6.56335,0.46909 7.07612,-2.41022"
       style="fill:#fabd99;fill-opacity:1;fill-rule:nonzero;stroke:none;stroke-width:0.0352778"
       id="path84"
       inkscape:connector-curvature="0" />
    <path
       d="m 127.82273,187.57737 2.56473,1.1742 c 0,0 -0.68694,1.25011 -1.03512,2.46386 -0.90318,0.22696 -2.00919,-0.23421 -2.38334,-0.67635 0.34317,-1.01104 0.85373,-2.96171 0.85373,-2.96171"
       style="fill:#eaa376;fill-opacity:1;fill-rule:nonzero;stroke:none;stroke-width:0.0352778"
       id="path86"
       inkscape:connector-curvature="0" />
    <path
       d="m 119.71379,153.58811 c -0.54776,-0.15141 -4.10985,2.79529 -4.13532,5.735 -0.0231,2.94218 -1.22193,3.00351 -2.18155,2.93625 1.49191,1.00045 2.45479,1.07052 3.45257,-0.41918 1.00188,-1.49425 2.07157,-3.94986 4.01851,-4.59678 -0.0445,-1.97601 -1.15421,-3.65529 -1.15421,-3.65529"
       style="fill:#100e0c;fill-opacity:1;fill-rule:nonzero;stroke:none;stroke-width:0.0352778"
       id="path88"
       inkscape:connector-curvature="0" />
    <path
       d="m 118.13635,158.28264 c -3.54253,4.89721 -8.31023,21.40461 4.84406,29.4821 13.77575,8.46026 25.22493,0.68542 30.765,-8.99812 6.6801,-11.67917 -0.70103,-22.58685 -9.10903,-26.58999 -13.12205,-6.24693 -21.81774,-0.36913 -26.50003,6.10601"
       style="fill:#fabd99;fill-opacity:1;fill-rule:nonzero;stroke:none;stroke-width:0.0352778"
       id="path90"
       inkscape:connector-curvature="0" />
    <path
       d="m 144.63638,152.17663 c 8.408,4.00314 15.78913,14.91082 9.10903,26.58999 -0.92877,1.62248 -2.02651,3.18989 -3.26801,4.63318 -0.41323,-0.32131 -0.7983,-0.7192 -1.13009,-1.21379 -0.7037,0.23718 0.22102,-2.73479 0.22102,-2.73479 0,0 -2.57117,0.57142 -4.72455,-1.22692 3.06437,0.61097 5.6774,-1.19956 4.48957,-5.8836 -1.18512,-4.68279 -11.14417,-5.73375 -13.36339,-10.97277 0,0 -0.47833,3.74352 2.33873,6.38776 -4.69449,-1.71197 -6.18957,-6.49286 -6.18957,-6.49286 0,0 -2.59617,3.22264 -0.83822,5.90739 -2.86489,-1.60703 -3.62806,-5.53592 -2.23251,-8.67345 -2.6134,1.15091 -7.47933,1.57823 -10.8018,-0.3632 4.70532,-6.4156 13.36749,-12.15525 26.38993,-5.95694"
       style="fill:#eaa376;fill-opacity:1;fill-rule:nonzero;stroke:none;stroke-width:0.0352778"
       id="path92"
       inkscape:connector-curvature="0" />
    <path
       d="m 122.43219,173.47162 c -0.46586,1.34422 -2.76425,1.73522 -4.63496,0.56917 -1.8678,-1.16595 -2.41243,-3.15024 -1.76376,-4.71406 0.59596,-1.4256 2.82894,-2.01338 4.34727,0.12338 1.41963,2.00381 2.53333,2.63467 2.05145,4.02164"
       style="fill:#f8a191;fill-opacity:1;fill-rule:nonzero;stroke:none;stroke-width:0.0352778"
       id="path94"
       inkscape:connector-curvature="0" />
    <path
       d="m 117.81271,169.5618 c -0.0696,0.17319 -0.30547,0.2418 -0.52959,0.15373 -0.22366,-0.0828 -0.35135,-0.2959 -0.2837,-0.4677 0.064,-0.17451 0.30184,-0.24016 0.52728,-0.15505 0.22465,0.0848 0.34865,0.29557 0.28601,0.46909"
       style="fill:#fbccc0;fill-opacity:1;fill-rule:nonzero;stroke:none;stroke-width:0.0352778"
       id="path96"
       inkscape:connector-curvature="0" />
    <path
       d="m 129.91013,172.65698 c -0.0676,0.17385 -0.33588,0.2296 -0.6019,0.12833 -0.26324,-0.10358 -0.42406,-0.3246 -0.35587,-0.49911 0.067,-0.16989 0.33585,-0.22728 0.59863,-0.127 0.26588,0.10457 0.42686,0.3246 0.35914,0.49772"
       style="fill:#fcd3bb;fill-opacity:1;fill-rule:nonzero;stroke:none;stroke-width:0.0352778"
       id="path98"
       inkscape:connector-curvature="0" />
    <path
       d="m 144.49279,182.7502 c -0.76004,1.78283 -2.96706,2.39614 -5.37368,1.62828 -2.32248,-0.74048 -3.99532,-3.32164 -2.95518,-4.85406 0.98871,-1.4606 2.02327,-0.43046 5.02034,-0.4109 2.8998,0.0231 4.06948,1.85511 3.30852,3.63668"
       style="fill:#f8a191;fill-opacity:1;fill-rule:nonzero;stroke:none;stroke-width:0.0352778"
       id="path100"
       inkscape:connector-curvature="0" />
    <path
       d="m 143.23315,181.21277 c -0.0706,0.16329 -0.29689,0.22003 -0.50646,0.13261 -0.21047,-0.0904 -0.3246,-0.29557 -0.25698,-0.45596 0.0686,-0.16428 0.29788,-0.22233 0.50913,-0.13426 0.20948,0.091 0.32329,0.29458 0.25401,0.45738"
       style="fill:#fbccc0;fill-opacity:1;fill-rule:nonzero;stroke:none;stroke-width:0.0352778"
       id="path102"
       inkscape:connector-curvature="0" />
    <path
       d="m 125.0152,159.65141 c 2.33794,-0.13888 2.26521,2.38195 0.8046,2.06424 -1.56741,-0.33957 -3.00614,-0.0584 -3.16755,-0.25235 -0.35868,-0.42825 1.04967,-1.73873 2.36295,-1.81196"
       style="fill:#171514;fill-opacity:1;fill-rule:nonzero;stroke:none;stroke-width:0.0352778"
       id="path104"
       inkscape:connector-curvature="0" />
    <path
       d="m 144.4091,167.70202 c -1.55554,-1.75014 -3.28754,0.0828 -2.03106,0.89235 1.34923,0.86735 2.16433,2.08206 2.41616,2.06111 0.55683,-0.0485 0.48957,-1.97148 -0.3851,-2.95346"
       style="fill:#171514;fill-opacity:1;fill-rule:nonzero;stroke:none;stroke-width:0.0352778"
       id="path106"
       inkscape:connector-curvature="0" />
    <path
       d="m 154.06357,178.39073 c 1.7761,-3.30119 1.82195,-6.59014 0.79775,-9.67404 0.31239,2.43476 -0.15372,5.60001 -1.54964,8.19839 -5.18222,9.6432 -17.52144,17.36786 -29.93024,9.26582 -8.53391,-5.57547 -8.84439,-14.99814 -7.47075,-21.8409 -1.86463,6.87278 -2.55787,15.65681 7.3261,22.64643 11.64655,8.23076 25.64677,1.04829 30.82678,-8.5957"
       style="fill:#eaa376;fill-opacity:1;fill-rule:nonzero;stroke:none;stroke-width:0.0352778"
       id="path108"
       inkscape:connector-curvature="0" />
    <path
       d="m 123.85241,174.56807 c 0,0 -3.08076,7.85522 2.42744,10.20366 5.51227,2.34388 6.99381,-5.86418 6.99381,-5.86418 0,0 -4.47502,-0.11249 -9.42125,-4.33948"
       style="fill:#461b1c;fill-opacity:1;fill-rule:nonzero;stroke:none;stroke-width:0.0352778"
       id="path110"
       inkscape:connector-curvature="0" />
    <path
       d="m 128.73731,177.67526 c -0.40453,2.04237 -0.55733,5.0504 1.36972,6.93598 2.41521,-1.55511 3.16663,-5.70369 3.16663,-5.70369 0,0 -1.877,-0.0544 -4.53635,-1.23229"
       style="fill:#2c1616;fill-opacity:1;fill-rule:nonzero;stroke:none;stroke-width:0.0352778"
       id="path112"
       inkscape:connector-curvature="0" />
    <path
       d="m 123.46998,181.91825 c 0.46144,1.17512 1.3211,2.21434 2.80987,2.85348 2.7279,1.15919 4.46767,-0.26622 5.53041,-1.9993 -0.11645,-0.42363 -0.92504,-1.06507 -1.94694,-0.86596 -0.57465,-1.81647 -4.46583,-1.54287 -6.39334,0.0132"
       style="fill:#ee5b63;fill-opacity:1;fill-rule:nonzero;stroke:none;stroke-width:0.0352778"
       id="path114"
       inkscape:connector-curvature="0" />
    <path
       d="m 130.86473,182.34649 c -0.38856,-0.28633 -0.96592,-0.31635 -1.24321,-0.23487 -0.10424,-0.36913 -0.32328,-0.82417 -1.17516,-1.06145 -2.10739,-0.60641 -5.25951,0.97186 -2.79842,2.69382 2.49153,1.74245 6.6674,-0.32823 5.21679,-1.3974"
       style="fill:#f57880;fill-opacity:1;fill-rule:nonzero;stroke:none;stroke-width:0.0352778"
       id="path116"
       inkscape:connector-curvature="0" />
    <path
       d="m 126.4317,181.43191 c 0.56138,-0.34364 1.75736,-0.35865 1.99873,0.003 0.29029,0.4386 -0.81731,0.76459 -1.48099,0.69231 -0.66959,-0.0709 -0.87827,-0.47456 -0.51774,-0.69683"
       style="fill:#f8a1a9;fill-opacity:1;fill-rule:nonzero;stroke:none;stroke-width:0.0352778"
       id="path118"
       inkscape:connector-curvature="0" />
    <path
       d="m 125.35478,175.73415 c -0.44141,0.79006 -0.46688,1.47782 0.55231,2.21923 0.9482,0.68651 2.41791,1.38601 3.49074,1.66195 1.28606,0.33282 2.06609,-0.0686 2.22331,-0.9637 -2.18013,-0.58781 -3.87617,-1.26871 -6.26636,-2.91748"
       style="fill:#ffffff;fill-opacity:1;fill-rule:nonzero;stroke:none;stroke-width:0.0352778"
       id="path120"
       inkscape:connector-curvature="0" />
    <path
       d="m 138.45763,170.83144 c -1.8424,0.99732 -2.57196,3.21295 -1.63002,4.95134 0.94134,1.73875 3.19655,2.3384 5.03724,1.3397 1.84009,-0.99511 2.57021,-3.21308 1.62827,-4.95276 -0.94193,-1.73512 -3.19618,-2.33339 -5.03549,-1.33828"
       style="fill:#eaa376;fill-opacity:1;fill-rule:nonzero;stroke:none;stroke-width:0.0352778"
       id="path122"
       inkscape:connector-curvature="0" />
    <path
       d="m 141.18114,176.6592 c 1.02734,0.58781 1.06099,1.19188 0.0673,1.34564 -0.99732,0.15009 -2.63844,-0.20519 -3.66812,-0.79379 -1.03327,-0.59236 -1.0627,-1.19551 -0.0696,-1.35006 0.99547,-0.1524 2.63424,0.20717 3.67032,0.79821"
       style="fill:#eaa376;fill-opacity:1;fill-rule:nonzero;stroke:none;stroke-width:0.0352778"
       id="path124"
       inkscape:connector-curvature="0" />
    <path
       d="m 138.39271,170.67551 c -1.79424,0.97274 -2.50565,3.13486 -1.58839,4.82948 0.91693,1.69198 3.1158,2.27243 4.91096,1.30328 1.79239,-0.97182 2.50285,-3.13302 1.58421,-4.82358 -0.91459,-1.69461 -3.1158,-2.28104 -4.90678,-1.30918"
       style="fill:#ffffff;fill-opacity:1;fill-rule:nonzero;stroke:none;stroke-width:0.0352778"
       id="path126"
       inkscape:connector-curvature="0" />
    <path
       d="m 143.18766,173.70121 c -0.16593,0.94461 -0.76832,1.82568 -1.71151,2.33561 -1.58922,0.86325 -3.53801,0.34647 -4.34855,-1.15454 -0.22927,-0.42231 -0.33783,-0.87418 -0.34957,-1.33014 -0.11579,0.65273 -0.0264,1.33014 0.30315,1.9411 0.81332,1.50006 2.75887,2.01559 4.34948,1.15689 1.14336,-0.61912 1.78517,-1.78425 1.757,-2.94892"
       style="fill:#dcdbdb;fill-opacity:1;fill-rule:nonzero;stroke:none;stroke-width:0.0352778"
       id="path128"
       inkscape:connector-curvature="0" />
    <path
       d="m 138.80361,172.72111 c -0.47687,0.99871 -0.10193,2.17073 0.83918,2.62293 0.94193,0.44969 2.09251,0.007 2.56978,-0.99138 0.47733,-0.99742 0.10094,-2.17153 -0.84092,-2.62072 -0.94286,-0.4491 -2.0916,-0.007 -2.56804,0.98917"
       style="fill:#a9a8a8;fill-opacity:1;fill-rule:nonzero;stroke:none;stroke-width:0.0352778"
       id="path130"
       inkscape:connector-curvature="0" />
    <path
       d="m 139.61557,173.03753 c -0.29227,0.61816 -0.0637,1.34191 0.52227,1.62468 0.58141,0.27677 1.29279,0.002 1.58968,-0.61327 0.29425,-0.61912 0.061,-1.34739 -0.52055,-1.62468 -0.58187,-0.27809 -1.29593,-0.003 -1.5914,0.61327"
       style="fill:#231f20;fill-opacity:1;fill-rule:nonzero;stroke:none;stroke-width:0.0352778"
       id="path132"
       inkscape:connector-curvature="0" />
    <path
       d="m 139.56286,172.26387 c -0.11876,0.25137 -0.0231,0.55047 0.21409,0.66229 0.23883,0.11513 0.53147,8.6e-4 0.6519,-0.25037 0.12041,-0.25368 0.0264,-0.55278 -0.21376,-0.66695 -0.23883,-0.11348 -0.53137,0 -0.65227,0.255"
       style="fill:#ffffff;fill-opacity:1;fill-rule:nonzero;stroke:none;stroke-width:0.0352778"
       id="path134"
       inkscape:connector-curvature="0" />
    <path
       d="m 141.07245,174.19441 c -0.0749,0.15373 -0.0165,0.33503 0.12733,0.40147 0.14548,0.0699 0.32262,0 0.39463,-0.15241 0.0739,-0.15372 0.0165,-0.33189 -0.12733,-0.40044 -0.14548,-0.0732 -0.32196,-8.5e-4 -0.39463,0.15142"
       style="fill:#ffffff;fill-opacity:1;fill-rule:nonzero;stroke:none;stroke-width:0.0352778"
       id="path136"
       inkscape:connector-curvature="0" />
    <path
       d="m 127.77954,166.76384 c -0.13096,2.03558 -1.7911,3.58568 -3.71314,3.46478 -1.91923,-0.12008 -3.37564,-1.86467 -3.24798,-3.89979 0.12734,-2.03795 1.78831,-3.58897 3.7108,-3.47038 1.92286,0.12106 3.37393,1.87245 3.25032,3.90539"
       style="fill:#eaa376;fill-opacity:1;fill-rule:nonzero;stroke:none;stroke-width:0.0352778"
       id="path138"
       inkscape:connector-curvature="0" />
    <path
       d="m 125.30707,169.54317 c 0.99733,0.57233 1.02688,1.15421 0.0653,1.30328 -0.96417,0.14415 -2.55114,-0.1976 -3.54985,-0.7669 -0.9992,-0.5728 -1.02737,-1.1556 -0.0653,-1.30559 0.96133,-0.1468 2.54927,0.1966 3.54985,0.76921"
       style="fill:#eaa376;fill-opacity:1;fill-rule:nonzero;stroke:none;stroke-width:0.0352778"
       id="path140"
       inkscape:connector-curvature="0" />
    <path
       d="m 127.40309,166.68471 c -0.12767,2.01021 -1.76693,3.54391 -3.66752,3.42753 -1.89934,-0.12008 -3.33669,-1.84696 -3.21031,-3.86033 0.12634,-2.012 1.76831,-3.54709 3.66627,-3.42849 1.90105,0.12139 3.33652,1.84837 3.21156,3.86129"
       style="fill:#ffffff;fill-opacity:1;fill-rule:nonzero;stroke:none;stroke-width:0.0352778"
       id="path142"
       inkscape:connector-curvature="0" />
    <path
       d="m 126.91536,166.86066 c 0.0231,-0.39918 -0.033,-0.78194 -0.13921,-1.14151 0.0264,0.20354 0.0376,0.41637 0.0231,0.63284 -0.11315,1.77016 -1.55792,3.11751 -3.22717,3.01429 -0.99465,-0.0607 -1.83148,-0.63095 -2.33748,-1.45014 0.42465,1.05426 1.3711,1.8202 2.52205,1.89344 1.63471,0.10226 3.04573,-1.21973 3.15848,-2.94892"
       style="fill:#dcdbdb;fill-opacity:1;fill-rule:nonzero;stroke:none;stroke-width:0.0352778"
       id="path144"
       inkscape:connector-curvature="0" />
    <path
       d="m 125.92758,167.1084 c -0.47282,0.98686 -1.60889,1.42326 -2.53845,0.97779 -0.93194,-0.44596 -1.30328,-1.60377 -0.83139,-2.58931 0.4705,-0.98604 1.60782,-1.42326 2.53742,-0.97779 0.92923,0.44688 1.30246,1.60608 0.83242,2.58931"
       style="fill:#a9a8a8;fill-opacity:1;fill-rule:nonzero;stroke:none;stroke-width:0.0352778"
       id="path146"
       inkscape:connector-curvature="0" />
    <path
       d="m 125.36794,166.83972 c -0.28337,0.58873 -0.96325,0.84824 -1.52018,0.58187 -0.55641,-0.26621 -0.77822,-0.95919 -0.49541,-1.54792 0.28204,-0.5886 0.96136,-0.85046 1.51866,-0.58639 0.55558,0.26786 0.77831,0.96242 0.49693,1.55244"
       style="fill:#231f20;fill-opacity:1;fill-rule:nonzero;stroke:none;stroke-width:0.0352778"
       id="path148"
       inkscape:connector-curvature="0" />
    <path
       d="m 124.16289,165.5873 c -0.11908,0.25269 -0.40779,0.36099 -0.64191,0.25071 -0.23454,-0.11315 -0.32724,-0.4073 -0.20947,-0.65646 0.11876,-0.25038 0.40463,-0.36089 0.6432,-0.24774 0.23421,0.11381 0.32921,0.40463 0.20848,0.65365"
       style="fill:#ffffff;fill-opacity:1;fill-rule:nonzero;stroke:none;stroke-width:0.0352778"
       id="path150"
       inkscape:connector-curvature="0" />
    <path
       d="m 125.45476,167.04569 c -0.0722,0.15372 -0.24576,0.21772 -0.39044,0.15142 -0.13954,-0.0686 -0.19727,-0.24906 -0.12602,-0.39685 0.0729,-0.15141 0.24543,-0.22003 0.38903,-0.1491 0.14284,0.0686 0.20155,0.24477 0.12733,0.39463"
       style="fill:#ffffff;fill-opacity:1;fill-rule:nonzero;stroke:none;stroke-width:0.0352778"
       id="path152"
       inkscape:connector-curvature="0" />
    <path
       d="m 128.73916,174.65628 c -0.0132,-0.003 -0.0264,-0.0132 -0.0389,-0.0231 -0.64784,-0.53101 -0.85685,-1.26651 -0.56323,-1.96707 0.27314,-0.64458 0.91911,-1.08098 1.50645,-1.01827 0.36145,0.0409 1.0092,0.30745 1.25008,1.63062 0.0132,0.0567 -0.0297,0.11414 -0.0891,0.12338 -0.0567,0.0132 -0.11546,-0.0264 -0.12634,-0.0874 -0.15735,-0.87513 -0.53183,-1.39067 -1.0597,-1.44744 -0.49413,-0.0551 -1.04456,0.3246 -1.28234,0.88421 -0.12139,0.29095 -0.31734,1.03829 0.50369,1.71556 0.0445,0.036 0.0521,0.10589 0.0132,0.15109 -0.0297,0.035 -0.0732,0.0491 -0.11414,0.0373"
       style="fill:#ce6748;fill-opacity:1;fill-rule:nonzero;stroke:none;stroke-width:0.0352778"
       id="path154"
       inkscape:connector-curvature="0" />
    <path
       d="m 137.11572,160.1482 c 0,0 0.58468,4.28581 2.59934,6.62518 -3.07027,-1.74341 -5.9568,-6.75202 -5.9568,-6.75202 0,0 -2.43711,3.52264 -0.62331,6.29246 -2.08658,-0.78692 -4.23217,-6.88248 -4.14898,-8.59444 -5.23632,2.30433 -19.25716,1.82604 -13.30253,-14.00663 0.59827,2.46842 1.27696,3.22486 2.99846,3.55302 -0.0686,-1.1301 0.56733,-2.88257 1.28326,-3.31804 -0.27644,1.53518 -0.15174,3.61117 2.71711,2.06107 2.87429,-1.55009 4.94949,-7.01499 14.78537,-6.83576 9.83439,0.18143 18.26476,4.1651 18.81892,10.65842 5.2695,1.29326 7.28697,5.64913 6.82646,10.23041 -0.46001,4.58175 1.44329,5.3823 2.76844,5.84779 -1.09648,0.27577 -1.6616,0.12832 -2.63028,-0.55278 0.31404,2.05748 1.66064,2.90385 -0.95649,5.56498 -2.61652,2.66983 -7.61329,9.75816 -4.23029,11.85509 -0.96007,1.99115 -5.77504,2.91388 -8.14116,-0.62363 -0.72735,0.24543 0.22696,-2.82112 0.22696,-2.82112 0,0 -1.98244,2.11472 -4.19945,0.255 2.19201,-0.77053 5.18093,-2.75703 3.95857,-7.58654 -1.22428,-4.83044 -10.5018,-6.44325 -12.79343,-11.85242"
       style="fill:#100e0c;fill-opacity:1;fill-rule:nonzero;stroke:none;stroke-width:0.0352778"
       id="path156"
       inkscape:connector-curvature="0" />
    <path
       d="m 138.6109,155.14507 c 0,0 -5.34271,3.44617 1.10416,11.62831 -8.78482,-4.14535 -7.55929,-11.27105 -5.27498,-13.83219 -2.89887,1.2474 -4.32084,10.47363 -1.12056,13.58534 -3.78892,-0.64237 -7.65063,-10.9951 -0.67008,-15.63223 -7.20692,5.67403 -22.68879,9.84719 -16.966,-7.18155 0.72557,2.01922 2.85206,4.54533 5.6682,5.57906 -2.39693,-1.71417 -2.10241,-4.90861 -1.38648,-5.34408 -0.27644,1.53518 -0.15174,3.61117 2.71711,2.06107 2.87429,-1.55009 4.94949,-7.01499 14.78537,-6.83576 9.83439,0.18143 18.26476,4.1651 18.81892,10.65842 5.2695,1.29326 7.28697,5.64913 6.82646,10.23041 -0.46001,4.58175 1.44329,5.3823 2.76844,5.84779 -1.09648,0.27577 -3.0553,-1.87246 -4.0227,-2.55662 -0.16461,2.85113 3.05306,4.90769 0.43593,7.56882 -2.61652,2.66983 -0.33492,3.58897 1.18608,3.93261 -0.39589,1.42431 -4.11579,4.9773 -7.89933,0.0419 1.76469,3.35249 -0.90004,5.78366 2.48296,7.88059 -0.96007,1.99115 -5.77504,2.91388 -8.14116,-0.62363 -0.72735,0.24543 2.84523,-4.92868 2.84523,-4.92868 0,0 -2.85618,2.65123 -3.97721,2.08938 1.39476,-1.3711 3.82079,-3.34852 2.60165,-8.18117 -1.22378,-4.83186 -17.14007,-9.52405 -12.78201,-15.98778"
       style="fill:#171514;fill-opacity:1;fill-rule:nonzero;stroke:none;stroke-width:0.0352778"
       id="path158"
       inkscape:connector-curvature="0" />
    <path
       d="m 155.00099,148.14671 c 0,0 1.5565,-2.53706 0.48631,-4.5317 2.05062,0.50135 2.29384,3.18385 1.55649,4.81764 3.16538,-0.95635 4.83951,1.91563 4.83951,1.91563 0,0 -4.13347,-1.15328 -5.16266,0.25599 -2.43199,0.1 -1.71965,-2.45746 -1.71965,-2.45746"
       style="fill:#171514;fill-opacity:1;fill-rule:nonzero;stroke:none;stroke-width:0.0352778"
       id="path160"
       inkscape:connector-curvature="0" />
    <path
       d="m 126.979,149.31138 c 0,0 -7.19339,4.06169 -11.21784,-2.93249 0.67463,5.01313 2.44839,9.07854 8.04715,7.97253 -2.91936,-0.50006 -4.46959,-1.58246 -5.76598,-3.72723 2.82567,1.14606 6.77514,0.36412 8.93667,-1.31281"
       style="fill:#222020;fill-opacity:1;fill-rule:nonzero;stroke:none;stroke-width:0.0352778"
       id="path162"
       inkscape:connector-curvature="0" />
    <path
       d="m 147.30576,153.46952 c 0.31272,-0.0581 -9.6845,0.55638 -8.01756,4.60711 1.66925,4.05355 8.50169,6.28418 10.48317,8.84813 -0.30679,-1.57477 -2.73024,-3.32257 -5.41766,-5.43138 -2.68705,-2.11208 -3.84453,-6.75201 2.95205,-8.02386"
       style="fill:#222020;fill-opacity:1;fill-rule:nonzero;stroke:none;stroke-width:0.0352778"
       id="path164"
       inkscape:connector-curvature="0" />
    <path
       d="m 156.24605,150.62653 c 0,0 5.53496,0.85046 6.17829,7.60967 -0.7128,-2.50111 -2.71163,-5.72316 -6.17829,-7.60967"
       style="fill:#222020;fill-opacity:1;fill-rule:nonzero;stroke:none;stroke-width:0.0352778"
       id="path166"
       inkscape:connector-curvature="0" />
    <path
       d="m 125.89709,144.90104 c 0,0 -3.85442,3.09066 -5.99058,1.60014 1.11881,1.13465 2.7021,2.76843 5.99058,-1.60014"
       style="fill:#222020;fill-opacity:1;fill-rule:nonzero;stroke:none;stroke-width:0.0352778"
       id="path168"
       inkscape:connector-curvature="0" />
    <path
       d="m 133.52817,151.28613 c 0,0 -6.39647,2.9652 -3.43209,9.16117 0.17088,-3.47622 -0.60282,-4.78085 3.43209,-9.16117"
       style="fill:#222020;fill-opacity:1;fill-rule:nonzero;stroke:none;stroke-width:0.0352778"
       id="path170"
       inkscape:connector-curvature="0" />
    <path
       d="m 155.4674,152.30799 c 1.59048,-0.65052 7.05049,7.59699 3.84754,13.86257 -0.2164,-5.33911 -1.98194,-7.55382 -1.98194,-7.55382 0,0 1.99197,4.074 -0.60051,11.3874 -0.95833,-8.89352 -4.04899,-12.03201 -4.04899,-12.03201 0,0 1.16958,6.53871 2.33784,10.12673 -4.66078,-6.01909 -4.97357,-13.66471 -3.31573,-15.01219 1.60924,-1.0255 4.40905,6.37971 4.40905,6.37971 0,0 -2.02153,-6.59605 -0.64726,-7.15839"
       style="fill:#2c2b2a;fill-opacity:1;fill-rule:nonzero;stroke:none;stroke-width:0.0352778"
       id="path172"
       inkscape:connector-curvature="0" />
    <path
       d="m 154.83641,148.40042 c -2.41612,-4.21762 -7.5011,-9.33796 -19.98949,-7.70071 6.23915,0.11414 10.00313,2.42431 10.00313,2.42431 0,0 -13.52936,-2.26475 -19.7699,3.58304 5.16362,-3.07483 15.24948,-3.77166 22.82378,0.31041 -5.31408,0.50775 -12.68065,-0.3909 -12.68065,-0.3909 0,0 10.57592,4.41627 15.54052,2.25286 -4.0349,2.87572 -8.82404,2.88842 -8.82404,2.88842 0,0 8.4335,1.06283 12.09881,-2.66835 -1.92659,-2.12976 -4.58768,-3.92166 -9.47713,-4.96543 4.68126,-1.16153 10.27497,4.26625 10.27497,4.26625"
       style="fill:#2c2b2a;fill-opacity:1;fill-rule:nonzero;stroke:none;stroke-width:0.0352778"
       id="path174"
       inkscape:connector-curvature="0" />
    <path
       d="m 149.63951,180.32404 c 0,0 2.00164,-1.86107 4.41453,-0.3596 2.54475,1.58606 0.79098,5.50785 -2.18514,6.56695 -2.97534,1.06099 -5.82648,-0.69822 -5.2423,-2.97797 l 3.01291,-3.22938"
       style="fill:#fabd99;fill-opacity:1;fill-rule:nonzero;stroke:none;stroke-width:0.0352778"
       id="path176"
       inkscape:connector-curvature="0" />
    <path
       d="m 153.6508,179.98401 c -0.61503,-0.38045 -1.19782,-0.52731 -1.72418,-0.54232 0.40998,0.0264 0.8309,0.14547 1.23101,0.4201 2.31838,1.58641 0.60688,4.39671 -1.32878,5.39858 -2.62385,1.35693 -4.9263,0.0132 -5.13637,-1.94786 -0.5409,2.12148 2.13428,3.76668 4.92132,2.78566 2.78935,-0.98548 4.42268,-4.63496 2.037,-6.11416"
       style="fill:#eaa376;fill-opacity:1;fill-rule:nonzero;stroke:none;stroke-width:0.0352778"
       id="path178"
       inkscape:connector-curvature="0" />
    <path
       d="m 153.73403,181.24094 c -1.24104,-1.52239 -4.98954,0.55512 -4.27582,3.78809 0.9324,-2.85618 2.33293,-2.95845 2.55336,-1.05551 0.57138,-0.71607 0.56594,-1.46202 -0.39952,-2.11567 0.84452,-0.87873 2.12198,-0.61691 2.12198,-0.61691"
       style="fill:#d48a5b;fill-opacity:1;fill-rule:nonzero;stroke:none;stroke-width:0.0352778"
       id="path180"
       inkscape:connector-curvature="0" />
    <path
       d="m 130.80153,192.68151 c 4.07633,2.27385 3.23356,6.42873 2.78123,7.69335 -0.91376,5.89004 -0.71188,15.21821 1.37866,19.73849 -4.8536,4.3604 -22.43683,0.48736 -26.11761,-3.12022 1.21913,-1.89557 5.88688,-16.45871 8.86987,-23.34432 1.30595,-3.00977 4.01758,-2.8607 7.17735,-2.81066 -5.11812,2.67066 2.82033,4.65857 5.9105,1.84336"
       style="fill:#7cade1;fill-opacity:1;fill-rule:nonzero;stroke:none;stroke-width:0.0352778"
       id="path182"
       inkscape:connector-curvature="0" />
    <path
       d="m 117.13217,198.2165 c 3.31164,-7.07694 7.97985,-4.21624 4.66774,-0.30052 -3.31349,3.91493 -7.37845,9.18444 -7.37845,9.18444 0,0 0.62739,-4.43175 2.71071,-8.88398"
       style="fill:#90bce8;fill-opacity:1;fill-rule:nonzero;stroke:none;stroke-width:0.0352778"
       id="path184"
       inkscape:connector-curvature="0" />
    <path
       d="m 132.33896,201.62949 c -0.90364,6.92658 -0.65227,11.24287 0.80285,16.66145 -2.9112,1.85837 -13.2993,1.45701 -19.62399,-1.35375 11.54369,1.70613 13.40068,0.35145 18.82114,-15.3077"
       style="fill:#6999cf;fill-opacity:1;fill-rule:nonzero;stroke:none;stroke-width:0.0352778"
       id="path186"
       inkscape:connector-curvature="0" />
    <path
       d="m 109.39111,215.78298 c -0.16032,0.33736 -0.43547,1.04013 -0.5473,1.21015 3.68078,3.60758 21.26401,7.48062 26.11761,3.12022 -0.18176,-0.39358 -0.34271,-0.82997 -0.49633,-1.28824 -4.72999,3.95075 -20.22991,0.32922 -25.07398,-3.04213"
       style="fill:#e5f6f9;fill-opacity:1;fill-rule:nonzero;stroke:none;stroke-width:0.0352778"
       id="path188"
       inkscape:connector-curvature="0" />
    <path
       d="m 125.212,190.83815 c -1.20425,0.7541 -2.2083,1.83429 -0.55231,2.48471 1.65691,0.65425 4.46724,0.22696 5.77237,-0.87863 0.37682,0.15141 0.82823,0.47727 0.82823,0.47727 0,0 -3.46306,2.66251 -7.15107,1.12871 -2.88442,-1.19647 0.12404,-3.23522 0.12404,-3.23522 l 0.97871,0.0231"
       style="fill:#e5f6f9;fill-opacity:1;fill-rule:nonzero;stroke:none;stroke-width:0.0352778"
       id="path190"
       inkscape:connector-curvature="0" />
    <path
       d="m 120.57253,253.62402 c -0.41779,0 -0.79368,-0.29194 -0.88189,-0.71916 L 82.993365,73.016931 c -0.103186,-0.48878 0.21,-0.967071 0.69824,-1.069498 0.484584,-0.101272 0.967361,0.210792 1.069188,0.699408 L 121.45753,252.53483 c 0.10325,0.49004 -0.2098,0.96826 -0.69822,1.07056 -0.0617,0.0132 -0.12502,0.0198 -0.18671,0.0198"
       style="fill:#48494d;fill-opacity:1;fill-rule:nonzero;stroke:none;stroke-width:0.0352778"
       id="path192"
       inkscape:connector-curvature="0" />
    <path
       d="m 105.47398,192.21275 c -3.00117,-1.00777 -3.31257,-5.06946 -1.55558,-10.78909 -0.20056,-2.7115 0.90318,-3.36344 2.05739,-3.76714 0.85323,-0.30019 1.00464,0.7797 0.50237,1.10555 1.00279,0.0501 0.75318,1.20468 0.35086,1.50471 1.10426,-0.0501 0.65193,1.0056 0.30184,1.30559 1.25416,0.099 0.35181,1.25601 -0.1,1.50599 -0.27776,0.15241 -1.15513,0.90331 -1.15513,0.90331 0,0 -1.37239,4.45348 0.0999,5.57045 -0.0498,0.90469 -0.50181,2.66063 -0.50181,2.66063"
       style="fill:#fabd99;fill-opacity:1;fill-rule:nonzero;stroke:none;stroke-width:0.0352778"
       id="path194"
       inkscape:connector-curvature="0" />
    <path
       d="m 129.86602,197.51462 c 0,0 -5.5209,4.36765 -17.9674,1.00326 0.17054,-1.05234 -0.90331,-1.80598 -1.70603,-1.85741 0.15009,1.05422 -1.30563,1.30467 -1.80708,0.40136 -1.30513,0.80424 -0.85418,1.55696 -0.22134,1.65704 -0.83321,0.25137 -0.9042,1.20459 -0.10029,1.30467 -0.60189,0.9041 0.30151,1.30596 0.90318,1.40601 -0.40044,0.90413 1.72744,0.85188 3.18352,-0.35284 3.88445,1.35471 14.55439,2.36031 19.27158,-1.65599 0.7028,-1.9061 -1.556,-1.9061 -1.556,-1.9061"
       style="fill:#fabd99;fill-opacity:1;fill-rule:nonzero;stroke:none;stroke-width:0.0352778"
       id="path196"
       inkscape:connector-curvature="0" />
    <path
       d="m 127.12714,198.81929 c 0.14317,0.42594 0.4683,1.40198 0.73642,2.23522 -0.53321,0.25961 -1.41686,0.59593 -2.67158,0.79144 0.4201,-0.29788 0.91096,-0.76469 0.79052,-1.28012 -0.159,-0.69103 -1.36784,-0.82602 -1.85965,-0.8565 0.97277,-0.16856 1.97788,-0.45048 3.00429,-0.89004"
       style="fill:#eaa376;fill-opacity:1;fill-rule:nonzero;stroke:none;stroke-width:0.0352778"
       id="path198"
       inkscape:connector-curvature="0" />
    <path
       d="m 125.13659,197.22136 c 2.01652,-1.73513 6.31826,-3.95577 7.79423,-1.34284 1.47749,2.6103 -2.41101,6.05017 -4.62759,7.21253 -1.17513,-0.82826 -3.37578,-4.07763 -3.16664,-5.86969"
       style="fill:#e5f6f9;fill-opacity:1;fill-rule:nonzero;stroke:none;stroke-width:0.0352778"
       id="path200"
       inkscape:connector-curvature="0" />
  </g>
</svg>
