<?xml version="1.0" encoding="UTF-8" standalone="no"?>
<!-- Created with Inkscape (http://www.inkscape.org/) -->

<svg
   xmlns:dc="http://purl.org/dc/elements/1.1/"
   xmlns:cc="http://creativecommons.org/ns#"
   xmlns:rdf="http://www.w3.org/1999/02/22-rdf-syntax-ns#"
   xmlns:svg="http://www.w3.org/2000/svg"
   xmlns="http://www.w3.org/2000/svg"
   xmlns:sodipodi="http://sodipodi.sourceforge.net/DTD/sodipodi-0.dtd"
   xmlns:inkscape="http://www.inkscape.org/namespaces/inkscape"
   width="1000"
   height="1000"
   viewBox="0 0 264.58333 264.58334"
   version="1.1"
   id="svg2383"
   inkscape:version="0.92.5 (2060ec1f9f, 2020-04-08)"
   sodipodi:docname="empty.svg"
   enable-background="new">
  <defs
     id="defs2377">
    <clipPath
       clipPathUnits="userSpaceOnUse"
       id="clipPath354">
      <path
         d="m 31307.7,14127.1 c -0.1,0 -0.1,0 -0.2,0 -609.8,0 -1203.1,260.3 -1614.8,726.2 v 0 c 411.7,-465.9 1005,-726.2 1614.8,-726.2 0.1,0 0.1,0 0.2,0 164.1,0 329.4,18.8 492.7,57.6 v 0 c -163.3,-38.8 -328.6,-57.6 -492.7,-57.6"
         id="path352"
         inkscape:connector-curvature="0" />
    </clipPath>
  </defs>
  <sodipodi:namedview
     id="base"
     pagecolor="#ffffff"
     bordercolor="#666666"
     borderopacity="1.0"
     inkscape:pageopacity="0.0"
     inkscape:pageshadow="2"
     inkscape:zoom="0.70710678"
     inkscape:cx="689.7502"
     inkscape:cy="478.64603"
     inkscape:document-units="px"
     inkscape:current-layer="layer1"
     showgrid="false"
     units="px"
     inkscape:window-width="1920"
     inkscape:window-height="1031"
     inkscape:window-x="0"
     inkscape:window-y="25"
     inkscape:window-maximized="1"
     showguides="true"
     inkscape:lockguides="true"
     inkscape:object-nodes="false"
     inkscape:snap-nodes="false"
     inkscape:snap-others="false" />
  <metadata
     id="metadata2380">
    <rdf:RDF>
      <cc:Work
         rdf:about="">
        <dc:format>image/svg+xml</dc:format>
        <dc:type
           rdf:resource="http://purl.org/dc/dcmitype/StillImage" />
        <dc:title></dc:title>
      </cc:Work>
    </rdf:RDF>
  </metadata>
  <g
     inkscape:groupmode="layer"
     id="layer3"
     inkscape:label="Layer 2" />
  <g
     inkscape:groupmode="layer"
     id="layer2"
     inkscape:label="Layer 3" />
  <g
     inkscape:label="Layer 1"
     inkscape:groupmode="layer"
     id="layer1"
     transform="translate(0,-32.41665)">
    <text
       xml:space="preserve"
       style="font-style:normal;font-variant:normal;font-weight:bold;font-stretch:normal;font-size:10.58333302px;line-height:1.25;font-family:sans-serif;-inkscape-font-specification:'sans-serif Bold';letter-spacing:0px;word-spacing:0px;fill:#000000;fill-opacity:1;stroke:none;stroke-width:0.26458332"
       x="150.05655"
       y="89.869026"
       id="text8811" />
    <text
       xml:space="preserve"
       style="font-style:normal;font-variant:normal;font-weight:bold;font-stretch:normal;font-size:10.58333302px;line-height:1.25;font-family:sans-serif;-inkscape-font-specification:'sans-serif Bold';letter-spacing:0px;word-spacing:0px;fill:#000000;fill-opacity:1;stroke:none;stroke-width:0.26458332"
       x="160.63989"
       y="97.806526"
       id="text8815" />
    <text
       xml:space="preserve"
       style="font-style:normal;font-variant:normal;font-weight:bold;font-stretch:normal;font-size:10.58333302px;line-height:1.25;font-family:sans-serif;-inkscape-font-specification:'sans-serif Bold';letter-spacing:0px;word-spacing:0px;fill:#000000;fill-opacity:1;stroke:none;stroke-width:0.26458332"
       x="156.86011"
       y="88.7351"
       id="text8819" />
    <flowRoot
       xml:space="preserve"
       id="flowRoot8821"
       style="font-style:normal;font-variant:normal;font-weight:bold;font-stretch:normal;font-size:40px;line-height:1.25;font-family:sans-serif;-inkscape-font-specification:'sans-serif Bold';letter-spacing:0px;word-spacing:0px;fill:#000000;fill-opacity:1;stroke:none"><flowRegion
         id="flowRegion8823"
         style="font-style:normal;font-variant:normal;font-weight:bold;font-stretch:normal;font-family:sans-serif;-inkscape-font-specification:'sans-serif Bold'" /><flowPara
         id="flowPara8827" /></flowRoot>    <flowRoot
       xml:space="preserve"
       id="flowRoot8829"
       style="font-style:normal;font-variant:normal;font-weight:bold;font-stretch:normal;font-size:40px;line-height:1.25;font-family:sans-serif;-inkscape-font-specification:'sans-serif Bold';letter-spacing:0px;word-spacing:0px;fill:#000000;fill-opacity:1;stroke:none"><flowRegion
         id="flowRegion8831"
         style="font-style:normal;font-variant:normal;font-weight:bold;font-stretch:normal;font-family:sans-serif;-inkscape-font-specification:'sans-serif Bold'" /><flowPara
         id="flowPara8835" /></flowRoot>    <flowRoot
       xml:space="preserve"
       id="flowRoot8837"
       style="font-style:normal;font-variant:normal;font-weight:bold;font-stretch:normal;font-size:40px;line-height:1.25;font-family:sans-serif;-inkscape-font-specification:'sans-serif Bold';letter-spacing:0px;word-spacing:0px;fill:#000000;fill-opacity:1;stroke:none"><flowRegion
         id="flowRegion8839"
         style="font-style:normal;font-variant:normal;font-weight:bold;font-stretch:normal;font-family:sans-serif;-inkscape-font-specification:'sans-serif Bold'" /><flowPara
         id="flowPara8843" /></flowRoot>    <text
       xml:space="preserve"
       style="font-style:normal;font-variant:normal;font-weight:bold;font-stretch:normal;font-size:10.58333302px;line-height:1.25;font-family:sans-serif;-inkscape-font-specification:'sans-serif Bold';letter-spacing:0px;word-spacing:0px;fill:#000000;fill-opacity:1;stroke:none;stroke-width:0.26458332"
       x="209.39882"
       y="107.25594"
       id="text8847" />
    <flowRoot
       xml:space="preserve"
       id="flowRoot8849"
       style="font-style:normal;font-variant:normal;font-weight:bold;font-stretch:normal;font-size:40px;line-height:1.25;font-family:sans-serif;-inkscape-font-specification:'sans-serif Bold';letter-spacing:0px;word-spacing:0px;fill:#000000;fill-opacity:1;stroke:none"><flowRegion
         id="flowRegion8851"
         style="font-style:normal;font-variant:normal;font-weight:bold;font-stretch:normal;font-family:sans-serif;-inkscape-font-specification:'sans-serif Bold'" /><flowPara
         id="flowPara8855" /></flowRoot>    <flowRoot
       xml:space="preserve"
       id="flowRoot8857"
       style="font-style:normal;font-variant:normal;font-weight:bold;font-stretch:normal;font-size:40px;line-height:1.25;font-family:sans-serif;-inkscape-font-specification:'sans-serif Bold';letter-spacing:0px;word-spacing:0px;fill:#000000;fill-opacity:1;stroke:none"><flowRegion
         id="flowRegion8859"
         style="font-style:normal;font-variant:normal;font-weight:bold;font-stretch:normal;font-family:sans-serif;-inkscape-font-specification:'sans-serif Bold'" /><flowPara
         id="flowPara8863" /></flowRoot>    <flowRoot
       xml:space="preserve"
       id="flowRoot8865"
       style="font-style:normal;font-variant:normal;font-weight:bold;font-stretch:normal;font-size:40px;line-height:1.25;font-family:sans-serif;-inkscape-font-specification:'sans-serif Bold';letter-spacing:0px;word-spacing:0px;fill:#000000;fill-opacity:1;stroke:none"><flowRegion
         id="flowRegion8867"
         style="font-style:normal;font-variant:normal;font-weight:bold;font-stretch:normal;font-family:sans-serif;-inkscape-font-specification:'sans-serif Bold'" /><flowPara
         id="flowPara8871" /></flowRoot>    <flowRoot
       xml:space="preserve"
       id="flowRoot8873"
       style="font-style:normal;font-variant:normal;font-weight:bold;font-stretch:normal;font-size:40px;line-height:1.25;font-family:sans-serif;-inkscape-font-specification:'sans-serif Bold';letter-spacing:0px;word-spacing:0px;fill:#000000;fill-opacity:1;stroke:none"><flowRegion
         id="flowRegion8875"
         style="font-style:normal;font-variant:normal;font-weight:bold;font-stretch:normal;font-family:sans-serif;-inkscape-font-specification:'sans-serif Bold'" /><flowPara
         id="flowPara8879" /></flowRoot>    <text
       xml:space="preserve"
       style="font-style:normal;font-weight:normal;font-size:10.58333302px;line-height:1.25;font-family:sans-serif;letter-spacing:0px;word-spacing:0px;fill:#000000;fill-opacity:1;stroke:none;stroke-width:0.26458332"
       x="101.02788"
       y="69.125984"
       id="text977"><tspan
         sodipodi:role="line"
         id="tspan975"
         x="101.02788"
         y="78.489754"
         style="stroke-width:0.26458332" /><tspan
         sodipodi:role="line"
         x="101.02788"
         y="91.718918"
         style="stroke-width:0.26458332"
         id="tspan979" /><tspan
         sodipodi:role="line"
         x="101.02788"
         y="104.94809"
         style="stroke-width:0.26458332"
         id="tspan981" /><tspan
         sodipodi:role="line"
         x="101.02788"
         y="118.17725"
         style="stroke-width:0.26458332"
         id="tspan983" /><tspan
         sodipodi:role="line"
         x="101.02788"
         y="131.40642"
         style="stroke-width:0.26458332"
         id="tspan985" /><tspan
         sodipodi:role="line"
         x="101.02788"
         y="144.63559"
         style="stroke-width:0.26458332"
         id="tspan987" /><tspan
         sodipodi:role="line"
         x="101.02788"
         y="157.86475"
         style="stroke-width:0.26458332"
         id="tspan989" /><tspan
         sodipodi:role="line"
         x="101.02788"
         y="171.09392"
         style="stroke-width:0.26458332"
         id="tspan991" /><tspan
         sodipodi:role="line"
         x="101.02788"
         y="184.32309"
         style="stroke-width:0.26458332"
         id="tspan993" /><tspan
         sodipodi:role="line"
         x="101.02788"
         y="197.55225"
         style="stroke-width:0.26458332"
         id="tspan995" /><tspan
         sodipodi:role="line"
         x="101.02788"
         y="210.78142"
         style="stroke-width:0.26458332"
         id="tspan997" /><tspan
         sodipodi:role="line"
         x="101.02788"
         y="224.01059"
         style="stroke-width:0.26458332"
         id="tspan999" /><tspan
         sodipodi:role="line"
         x="101.02788"
         y="237.23975"
         style="stroke-width:0.26458332"
         id="tspan1001" /><tspan
         sodipodi:role="line"
         x="101.02788"
         y="250.46892"
         style="stroke-width:0.26458332"
         id="tspan1003" /><tspan
         sodipodi:role="line"
         x="101.02788"
         y="263.69809"
         style="stroke-width:0.26458332"
         id="tspan1005" /><tspan
         sodipodi:role="line"
         x="101.02788"
         y="276.92725"
         style="stroke-width:0.26458332"
         id="tspan1007" /><tspan
         sodipodi:role="line"
         x="101.02788"
         y="290.1564"
         style="stroke-width:0.26458332"
         id="tspan1009" /><tspan
         sodipodi:role="line"
         x="101.02788"
         y="303.38559"
         style="stroke-width:0.26458332"
         id="tspan1011" /><tspan
         sodipodi:role="line"
         x="101.02788"
         y="316.61475"
         style="stroke-width:0.26458332"
         id="tspan1013" /><tspan
         sodipodi:role="line"
         x="101.02788"
         y="329.8439"
         style="stroke-width:0.26458332"
         id="tspan1015" /><tspan
         sodipodi:role="line"
         x="101.02788"
         y="343.07309"
         style="stroke-width:0.26458332"
         id="tspan1017" /><tspan
         sodipodi:role="line"
         x="101.02788"
         y="356.30225"
         style="stroke-width:0.26458332"
         id="tspan1019" /><tspan
         sodipodi:role="line"
         x="101.02788"
         y="369.5314"
         style="stroke-width:0.26458332"
         id="tspan1021" /><tspan
         sodipodi:role="line"
         x="101.02788"
         y="382.76059"
         style="stroke-width:0.26458332"
         id="tspan1023" /></text>
    <path
       d="m 133.69949,274.23741 c -20.79759,0 -37.657347,-2.16972 -37.657347,-4.84608 0,-2.67459 16.859757,-4.84432 37.657347,-4.84432 20.79777,0 37.65753,2.16973 37.65753,4.84432 0,2.67636 -16.85976,4.84608 -37.65753,4.84608"
       style="fill:#d4d4d4;fill-opacity:1;fill-rule:nonzero;stroke:none;stroke-width:0.03527778"
       id="path58"
       inkscape:connector-curvature="0" />
    <path
       d="m 129.83137,261.51778 c -0.0545,0.34065 -12.86079,-1.11457 -12.84943,-1.53209 0.10167,-3.63369 0.92309,-10.91153 1.02092,-13.01662 l 13.68151,1.54432 c -0.66751,3.55856 -1.4601,10.54467 -1.853,13.00439"
       style="fill:#ffc19f;fill-opacity:1;fill-rule:nonzero;stroke:none;stroke-width:0.03527778"
       id="path60"
       inkscape:connector-curvature="0" />
    <path
       d="m 130.97563,262.90661 c -0.0363,0.20964 -14.87818,-0.76517 -14.89705,-1.02197 -0.16439,-2.22912 0.2175,-6.69087 0.16736,-7.98188 l 15.85509,1.0342 c -0.40809,2.37762 -0.86388,6.46377 -1.1254,7.96965"
       style="fill:#9dcecc;fill-opacity:1;fill-rule:nonzero;stroke:none;stroke-width:0.03527778"
       id="path62"
       inkscape:connector-curvature="0" />
    <path
       d="m 114.39381,258.58462 c 0.20579,-0.75469 0.63223,-1.70853 0.96275,-2.582 0.24475,-0.64639 6.58151,-0.54331 6.59915,1.01323 0.004,0.39831 -0.0119,0.75119 -0.0447,1.06914 1.08417,0.0105 2.26005,-0.001 3.50179,-0.0471 2.69923,-0.0978 5.11965,-0.31795 6.81735,-0.58872 0.10988,2.46146 -0.10517,6.72406 -0.005,9.46155 0,0 -28.26883,5.29155 -32.723585,1.19142 -1.255892,-1.15474 5.841495,-6.28907 14.892505,-9.51745"
       style="fill:#2d8f91;fill-opacity:1;fill-rule:nonzero;stroke:none;stroke-width:0.03527778"
       id="path64"
       inkscape:connector-curvature="0" />
    <path
       d="m 132.1999,265.19338 c 9.9e-4,0.6097 0.006,1.19668 0.025,1.71727 0,0 -28.26882,5.29155 -32.723578,1.19142 -0.177317,-0.16246 -0.185178,-0.40528 -0.04822,-0.70926 7.799668,1.69107 25.718258,-1.01499 32.746818,-2.19943"
       style="fill:#19555b;fill-opacity:1;fill-rule:nonzero;stroke:none;stroke-width:0.03527778"
       id="path66"
       inkscape:connector-curvature="0" />
    <path
       d="m 107.53104,261.15266 c 0.0367,0.21487 0.23514,0.36512 0.45701,0.32319 1.31546,-0.24632 3.04897,0.40005 4.20005,1.52335 0.0809,0.0804 0.18657,0.11705 0.29052,0.11355 0.0985,-0.003 0.19513,-0.0437 0.26885,-0.11878 0.15286,-0.15723 0.15007,-0.40705 -0.006,-0.56078 -1.32175,-1.28926 -3.32761,-2.00726 -4.88713,-1.73649 -0.2154,0.0367 -0.35987,0.24108 -0.32283,0.45596 z m 6.73524,0.75468 c 0.0812,0.0874 0.19234,0.12929 0.30188,0.12404 0.0928,-0.003 0.18518,-0.0384 0.25767,-0.10831 0.15881,-0.14849 0.16562,-0.40005 0.0153,-0.55902 -1.25135,-1.3242 -2.96023,-1.97233 -4.69129,-1.76968 -0.21698,0.0262 -0.37263,0.22186 -0.34747,0.43849 0.0246,0.21837 0.22326,0.38783 0.43796,0.34764 0.87156,-0.10132 2.54952,-0.0332 4.02587,1.52684 z m 1.99871,-0.96606 c 0.0809,0.10831 0.20596,0.16246 0.33034,0.15897 0.0783,-0.003 0.15618,-0.0297 0.22361,-0.0804 0.17435,-0.13102 0.20894,-0.37908 0.0776,-0.55379 -1.09762,-1.45521 -3.01072,-2.21514 -4.65268,-1.85876 -0.21331,0.0472 -0.34853,0.25855 -0.30101,0.47168 0.0465,0.21312 0.25593,0.34414 0.47133,0.30222 1.34936,-0.30398 2.93281,0.34415 3.85084,1.56004"
       style="fill:#d3dae5;fill-opacity:1;fill-rule:nonzero;stroke:none;stroke-width:0.03527778"
       id="path68"
       inkscape:connector-curvature="0" />
    <path
       d="m 137.47206,260.17261 c -0.0183,0.3459 12.80786,1.6142 12.8842,1.20366 0.66454,-3.57428 1.39146,-10.86086 1.73805,-12.93975 l -13.70003,-1.36787 c -0.0957,3.61971 -0.78927,10.61629 -0.92222,13.10396"
       style="fill:#ffc19f;fill-opacity:1;fill-rule:nonzero;stroke:none;stroke-width:0.03527778"
       id="path70"
       inkscape:connector-curvature="0" />
    <path
       d="m 137.34052,261.94229 c 0.0176,0.21138 14.88744,0.55903 14.92901,0.30571 0.3618,-2.20641 0.37857,-6.68387 0.54296,-7.96615 l -15.88391,-0.37909 c 0.19461,2.40557 0.28546,6.51443 0.41194,8.03953"
       style="fill:#9dcecc;fill-opacity:1;fill-rule:nonzero;stroke:none;stroke-width:0.03527778"
       id="path72"
       inkscape:connector-curvature="0" />
    <path
       d="m 154.28832,258.58462 c -0.20579,-0.75469 -0.63222,-1.70853 -0.9624,-2.582 -0.2451,-0.64639 -6.5815,-0.54331 -6.5995,1.01323 -0.004,0.39831 0.0119,0.75119 0.0447,1.06914 -1.08416,0.0105 -2.26004,-0.001 -3.50179,-0.0471 -2.6994,-0.0978 -5.11964,-0.31795 -6.81734,-0.58872 -0.10989,2.46146 0.10516,6.72406 0.006,9.46155 0,0 28.26847,5.29155 32.72358,1.19142 1.25554,-1.15474 -5.84185,-6.28907 -14.89286,-9.51745"
       style="fill:#2d8f91;fill-opacity:1;fill-rule:nonzero;stroke:none;stroke-width:0.03527778"
       id="path74"
       inkscape:connector-curvature="0" />
    <path
       d="m 136.48223,265.19338 c -3.9e-4,0.6097 -0.006,1.19668 -0.0246,1.71727 0,0 28.26848,5.29155 32.72358,1.19142 0.17697,-0.16246 0.18535,-0.40528 0.0484,-0.70926 -7.80018,1.69107 -25.71878,-1.01499 -32.74734,-2.19943"
       style="fill:#19555b;fill-opacity:1;fill-rule:nonzero;stroke:none;stroke-width:0.03527778"
       id="path76"
       inkscape:connector-curvature="0" />
    <path
       d="m 160.82825,260.6967 c -1.55916,-0.27077 -3.5652,0.44723 -4.88712,1.73649 -0.15601,0.15373 -0.15933,0.40355 -0.006,0.56078 0.0737,0.0751 0.1705,0.11529 0.26868,0.11878 0.10446,0.003 0.2098,-0.0332 0.29104,-0.11355 1.15072,-1.1233 2.88424,-1.76967 4.1997,-1.52335 0.22186,0.0419 0.42032,-0.10832 0.457,-0.32319 0.037,-0.21488 -0.10744,-0.41927 -0.32283,-0.45596 z m -2.38635,-0.3162 c 0.21453,0.0402 0.41316,-0.12927 0.43814,-0.34764 0.0248,-0.21663 -0.13102,-0.41228 -0.34782,-0.43849 -1.73072,-0.20265 -3.43994,0.44548 -4.69129,1.76968 -0.15024,0.15897 -0.14343,0.41053 0.0156,0.55902 0.0725,0.0699 0.16474,0.10482 0.2575,0.10831 0.10954,0.005 0.22065,-0.0367 0.30188,-0.12404 1.47671,-1.56003 3.15431,-1.62816 4.02605,-1.52684 z m -2.17357,-0.99926 c 0.21505,0.0419 0.42451,-0.0891 0.47133,-0.30222 0.047,-0.21313 -0.0879,-0.42451 -0.30083,-0.47168 -1.64249,-0.35638 -3.55507,0.40355 -4.65268,1.85876 -0.1319,0.17471 -0.0973,0.42277 0.0776,0.55379 0.0669,0.0507 0.14482,0.0769 0.22291,0.0804 0.12491,0.003 0.24964,-0.0507 0.33053,-0.15897 0.91802,-1.21589 2.50147,-1.86402 3.85117,-1.56004"
       style="fill:#d3dae5;fill-opacity:1;fill-rule:nonzero;stroke:none;stroke-width:0.03527778"
       id="path78"
       inkscape:connector-curvature="0" />
    <path
       d="m 116.00556,251.754 c 2.13112,0.51535 12.98797,0.94336 15.80862,0.98354 0.43709,-5.73528 3.06836,-30.94744 4.64499,-39.60434 0.58314,-3.20341 4.75139,-2.70587 4.68885,0.15566 -0.0308,1.42429 -3.34945,28.82016 -4.29858,38.83899 3.25512,0.44547 13.34924,0.84378 16.48731,0.51536 0,0 7.45621,-55.21538 7.01371,-63.77951 -7.66934,-0.86597 -33.63689,-0.85794 -41.88378,0.0999 -1.41172,8.84749 -2.08658,49.81569 -2.46112,62.79038"
       style="fill:#dd4e07;fill-opacity:1;fill-rule:nonzero;stroke:none;stroke-width:0.03527778"
       id="path80"
       inkscape:connector-curvature="0" />
    <path
       d="m 153.69558,201.22713 c 0,3.13457 2.02019,5.77231 4.81917,6.7541 0.7042,-5.39357 1.27721,-10.24856 1.59008,-13.84467 -3.59612,0.39254 -6.40925,3.38998 -6.40925,7.09057"
       style="fill:#001d26;fill-opacity:1;fill-rule:nonzero;stroke:none;stroke-width:0.03527778"
       id="path82"
       inkscape:connector-curvature="0" />
    <path
       d="m 117.9798,194.063 c -0.24317,3.70111 -0.4411,8.71857 -0.61511,14.30851 0.13697,0.008 0.26589,0.041 0.40495,0.041 3.96823,0 7.18526,-3.2172 7.18526,-7.18543 0,-3.89607 -3.10627,-7.05021 -6.9751,-7.16413"
       style="fill:#001d26;fill-opacity:1;fill-rule:nonzero;stroke:none;stroke-width:0.03527778"
       id="path84"
       inkscape:connector-curvature="0" />
    <path
       d="m 123.71578,205.64677 c -0.0765,-0.0206 -0.1553,-0.0419 -0.232,-0.0629 0.0804,-0.10517 0.15758,-0.21225 0.232,-0.32178 v 0.38468"
       style="fill:#8c3104;fill-opacity:1;fill-rule:nonzero;stroke:none;stroke-width:0.03527778"
       id="path86"
       inkscape:connector-curvature="0" />
    <path
       d="m 123.48378,205.58387 c -1.94961,-0.53211 -3.90289,-1.14234 -5.86315,-1.81736 0.0222,-0.66927 0.044,-1.30952 0.0659,-1.92165 1.84688,0.82281 3.87318,1.49294 6.02929,2.01336 v 1.40387 c -0.0744,0.10953 -0.15164,0.21661 -0.232,0.32178"
       style="fill:#011218;fill-opacity:1;fill-rule:nonzero;stroke:none;stroke-width:0.03527778"
       id="path88"
       inkscape:connector-curvature="0" />
    <path
       d="m 169.97203,166.49349 c -2.43107,2.97333 -8.8571,9.53719 -11.56839,12.4548 -6.4103,-5.24509 -11.61398,-9.24214 -11.79514,-9.82388 -1.88864,-6.06195 7.13285,-16.53674 8.86549,-17.1342 3.0888,2.9873 9.84133,9.91226 14.49804,14.50328"
       style="fill:#ffaa00;fill-opacity:1;fill-rule:nonzero;stroke:none;stroke-width:0.03527778"
       id="path90"
       inkscape:connector-curvature="0" />
    <path
       d="m 79.095209,159.91792 c -0.461374,-0.47168 5.704707,-6.42707 6.212373,-6.0078 8.509804,7.03152 20.362068,16.34982 22.839788,18.3763 -4.5746,2.9728 -7.64715,4.8162 -12.171262,3.77379 -3.325343,-0.7664 -9.556583,-8.67053 -16.880899,-16.14229"
       style="fill:#ffc19f;fill-opacity:1;fill-rule:nonzero;stroke:none;stroke-width:0.03527778"
       id="path92"
       inkscape:connector-curvature="0" />
    <path
       d="m 98.77352,164.49147 c 3.62547,6.14582 6.09061,10.80426 8.40341,14.7655 3.84909,-1.73071 9.14623,-3.78479 14.00506,-6.01846 3.41897,-8.51295 1.65472,-20.25254 1.53051,-20.66831 -2.51231,0.33891 -5.27216,0.77914 -7.09529,1.31896 -3.78462,2.26056 -11.83305,7.90675 -16.84369,10.60231"
       style="fill:#ffaa00;fill-opacity:1;fill-rule:nonzero;stroke:none;stroke-width:0.03527778"
       id="path94"
       inkscape:connector-curvature="0" />
    <path
       d="m 71.494,149.12519 c -5.038066,-1.92166 -9.412111,-2.68334 -10.838156,-0.94162 2.570306,1.41155 13.961899,6.89701 21.022948,9.79872 0.858807,0.35289 3.064523,-4.00579 2.183354,-5.14481 -0.483559,-3.12706 -5.945788,-4.95962 -9.998915,-10.66171 -1.158936,-1.62992 -1.690537,-0.0646 -1.651055,0.86125 0.07093,1.65787 1.575411,3.03448 2.69696,5.79293 0.792773,1.94786 -1.999747,0.83505 -3.415136,0.29524"
       style="fill:#e0956c;fill-opacity:1;fill-rule:nonzero;stroke:none;stroke-width:0.03527778"
       id="path96"
       inkscape:connector-curvature="0" />
    <path
       d="m 59.166733,152.00942 c 3.073606,1.0639 7.656937,2.67286 16.331655,5.91347 2.567335,0.95734 3.909353,-2.98206 2.911313,-3.38037 -5.169437,-2.06142 -16.998995,-6.57557 -19.242968,-2.5331"
       style="fill:#e0956c;fill-opacity:1;fill-rule:nonzero;stroke:none;stroke-width:0.03527778"
       id="path98"
       inkscape:connector-curvature="0" />
    <path
       d="m 60.722228,153.12748 c 3.018752,1.21064 10.269345,3.79789 18.811818,6.80791 4.306263,1.51811 9.183957,-5.32474 4.288793,-8.74879 -2.936818,-2.05442 -8.928027,0.13103 -11.463219,1.83955 -5.185509,-1.28227 -10.386042,-1.81858 -11.637392,0.10133"
       style="fill:#ffc19f;fill-opacity:1;fill-rule:nonzero;stroke:none;stroke-width:0.03527778"
       id="path100"
       inkscape:connector-curvature="0" />
    <path
       d="m 115.91664,200.97923 c 11.70552,6.27946 32.56356,5.49472 46.13361,-1.75203 0,0 -4.43414,-38.44279 -6.57626,-47.23699 -9.71661,-2.25883 -27.59712,-0.79662 -36.33473,1.0604 -0.81461,11.364 -2.40959,31.15918 -3.22262,47.92862"
       style="fill:#ffaa00;fill-opacity:1;fill-rule:nonzero;stroke:none;stroke-width:0.03527778"
       id="path102"
       inkscape:connector-curvature="0" />
    <path
       d="m 148.10792,153.16417 c 0.014,-0.57301 -0.33943,-1.72775 -0.4881,-2.26756 -5.92151,0 -14.48669,0.37734 -20.7789,1.008 -0.0435,0.24981 -0.14378,0.48216 -0.15006,0.73896 -0.10814,4.43728 4.59888,8.14958 10.51287,8.29283 5.91434,0.145 10.7964,-3.33495 10.90419,-7.77223"
       style="fill:#dd4e07;fill-opacity:1;fill-rule:nonzero;stroke:none;stroke-width:0.03527778"
       id="path104"
       inkscape:connector-curvature="0" />
    <path
       d="m 145.29199,140.62097 0.41089,13.02361 c 0.0882,2.80038 -3.39924,5.18498 -7.79006,5.32299 -4.39082,0.13802 -8.0217,-2.02123 -8.1101,-4.82161 l -0.41053,-13.02361 15.8998,-0.50138"
       style="fill:#ffc19f;fill-opacity:1;fill-rule:nonzero;stroke:none;stroke-width:0.03527778"
       id="path106"
       inkscape:connector-curvature="0" />
    <path
       d="m 129.54609,146.00861 c -1.3e-4,0 -1.3e-4,0 -3.9e-4,0 l -0.15356,-4.88626 0.15391,4.88626 m -0.15391,-4.88626 7.45481,-0.23409 c 4e-4,0 5e-4,0 9.9e-4,0 l -7.45586,0.23409"
       style="fill:#e1d4d0;fill-opacity:1;fill-rule:nonzero;stroke:none;stroke-width:0.03527778"
       id="path108"
       inkscape:connector-curvature="0" />
    <path
       d="m 142.51013,153.4035 c -1.68093,0 -3.452,-0.29524 -5.21521,-0.93463 -3.61673,-1.31022 -6.3427,-3.74024 -7.74883,-6.46026 l -0.1539,-4.88626 7.45586,-0.23409 c 2.861,0.83854 5.77633,1.76967 8.53775,2.71303 l 0.29751,9.43185 c -1.00014,0.24283 -2.067,0.37036 -3.17318,0.37036"
       style="fill:#e1a182;fill-opacity:1;fill-rule:nonzero;stroke:none;stroke-width:0.03527778"
       id="path110"
       inkscape:connector-curvature="0" />
    <path
       d="m 113.77504,201.21 h 64.68128 V 158.31945 H 113.77504 V 201.21"
       style="fill:#008a80;fill-opacity:1;fill-rule:nonzero;stroke:none;stroke-width:0.03527778"
       id="path112"
       inkscape:connector-curvature="0" />
    <path
       d="m 113.54968,158.31945 h 64.90664 l 0.44234,0.55379 h -64.89792 l -0.45106,-0.55379"
       style="fill:#8ed9cd;fill-opacity:1;fill-rule:nonzero;stroke:none;stroke-width:0.03527778"
       id="path114"
       inkscape:connector-curvature="0" />
    <path
       d="M 188.61386,214.61357 178.45632,201.21 v -42.89055 l 10.15754,13.40445 v 42.88967"
       style="fill:#1aa79d;fill-opacity:1;fill-rule:nonzero;stroke:none;stroke-width:0.03527778"
       id="path116"
       inkscape:connector-curvature="0" />
    <path
       d="m 187.38994,171.17011 -9.7152,-12.85066 h 0.78158 l 9.74142,12.85066 h -0.8078"
       style="fill:#8ed9cd;fill-opacity:1;fill-rule:nonzero;stroke:none;stroke-width:0.03527778"
       id="path118"
       inkscape:connector-curvature="0" />
    <path
       d="M 123.71578,214.61357 113.54968,201.21 v -42.89055 l 10.1661,13.40445 v 42.88967"
       style="fill:#1aa79d;fill-opacity:1;fill-rule:nonzero;stroke:none;stroke-width:0.03527778"
       id="path120"
       inkscape:connector-curvature="0" />
    <path
       d="m 123.26471,171.17011 -9.71503,-12.85066 h 0.80779 l 9.71504,12.85066 h -0.8078"
       style="fill:#8ed9cd;fill-opacity:1;fill-rule:nonzero;stroke:none;stroke-width:0.03527778"
       id="path122"
       inkscape:connector-curvature="0" />
    <path
       d="m 123.26471,171.17011 h 64.93303 l 0.41612,0.55379 h -64.89808 l -0.45107,-0.55379"
       style="fill:#8ed9cd;fill-opacity:1;fill-rule:nonzero;stroke:none;stroke-width:0.03527778"
       id="path124"
       inkscape:connector-curvature="0" />
    <path
       d="m 143.32299,182.67491 c 0,-1.54991 1.18095,-2.80685 2.63739,-2.80685 h 17.67192 c 1.45697,0 2.63774,1.25694 2.63774,2.80685 0,1.55043 -1.18077,2.80684 -2.63774,2.80684 h -17.67192 c -1.45644,0 -2.63739,-1.25641 -2.63739,-2.80684 M 123.71578,171.7239 v 42.88967 h 64.89808 V 171.7239 h -64.89808"
       style="fill:#2bbeb3;fill-opacity:1;fill-rule:nonzero;stroke:none;stroke-width:0.03527778"
       id="path126"
       inkscape:connector-curvature="0" />
    <path
       d="m 143.86507,180.98769 c -0.0694,0.25104 -0.11792,0.51116 -0.11792,0.78631 0,1.54991 1.18095,2.80632 2.63774,2.80632 h 17.6714 c 0.85881,0 1.61419,-0.44303 2.09583,-1.11911 -0.32127,1.16453 -1.3214,2.02072 -2.51982,2.02072 h -17.67192 c -1.45644,0 -2.63721,-1.25659 -2.63721,-2.80702 0,-0.63607 0.20666,-1.21676 0.5419,-1.68722"
       style="fill:#8ed9cd;fill-opacity:1;fill-rule:nonzero;stroke:none;stroke-width:0.03527778"
       id="path128"
       inkscape:connector-curvature="0" />
    <path
       d="m 188.54853,190.12972 c -0.10832,-0.0191 -0.2051,-0.011 -0.31498,-0.0367 -1.34935,-0.30327 -2.38688,-0.58156 -2.83078,-1.45137 -0.39498,-0.7739 -0.12246,-1.77194 0.7353,-2.29988 -0.95245,-0.15845 -1.27808,-1.21938 -0.46138,-2.05128 -0.62471,-0.31882 -0.75399,-1.11683 -0.17085,-1.61472 -0.57929,-0.31707 -1.02441,-0.50522 -1.13692,-1.23161 -0.29646,-1.911 2.98661,-3.47174 4.17961,-3.5783 v 12.26385"
       style="fill:#47978b;fill-opacity:1;fill-rule:nonzero;stroke:none;stroke-width:0.03527778"
       id="path130"
       inkscape:connector-curvature="0" />
    <path
       d="m 189.23404,181.02822 c -1.83571,0.31445 -3.17703,1.2807 -2.99587,2.15802 0.18099,0.87698 1.81614,1.33259 3.65203,1.01761 1.83553,-0.31498 3.17684,-1.28088 2.99569,-2.15785 -0.18116,-0.87732 -1.81597,-1.33258 -3.65185,-1.01778"
       style="fill:#ffc19f;fill-opacity:1;fill-rule:nonzero;stroke:none;stroke-width:0.03527778"
       id="path132"
       inkscape:connector-curvature="0" />
    <path
       d="m 187.91316,178.56535 c -1.76863,0.54174 -2.93839,1.67412 -2.61223,2.5289 0.32598,0.85497 2.0242,1.10845 3.79265,0.56654 1.76862,-0.54173 2.93786,-1.67411 2.61188,-2.5289 -0.32616,-0.85496 -2.02385,-1.10845 -3.7923,-0.56654"
       style="fill:#ffc19f;fill-opacity:1;fill-rule:nonzero;stroke:none;stroke-width:0.03527778"
       id="path134"
       inkscape:connector-curvature="0" />
    <path
       d="m 189.39493,183.52865 c -1.73037,0.004 -3.12811,0.72307 -3.1227,1.60633 0.006,0.88309 1.41312,1.59585 3.14331,1.59201 1.73055,-0.004 3.12881,-0.7236 3.12269,-1.60668 -0.006,-0.88292 -1.41311,-1.59586 -3.1433,-1.59166"
       style="fill:#ffc19f;fill-opacity:1;fill-rule:nonzero;stroke:none;stroke-width:0.03527778"
       id="path136"
       inkscape:connector-curvature="0" />
    <path
       d="m 189.27387,186.19731 c -1.58101,-0.35638 -3.04618,0.01 -3.27241,0.81775 -0.22641,0.8078 0.87138,1.75185 2.45203,2.10806 1.58083,0.35673 3.046,-0.009 3.27259,-0.81723 0.22623,-0.80814 -0.87156,-1.75238 -2.45221,-2.10858"
       style="fill:#ffc19f;fill-opacity:1;fill-rule:nonzero;stroke:none;stroke-width:0.03527778"
       id="path138"
       inkscape:connector-curvature="0" />
    <path
       d="m 174.53108,145.37096 2.26581,5.40511 c 0.0442,0.10132 0.10988,0.18692 0.19076,0.25156 0.17872,0.145 0.43115,0.19042 0.6593,0.0943 0.33176,-0.13801 0.48601,-0.51885 0.34835,-0.84903 l -2.26563,-5.4051 c -0.1415,-0.32668 -0.51972,-0.4874 -0.85025,-0.34765 -0.33122,0.13976 -0.48653,0.5206 -0.34834,0.85077 z m 10.3656,8.83439 c -0.3356,0.12579 -0.50505,0.50139 -0.38032,0.8368 0.0416,0.11355 0.11128,0.20614 0.19916,0.27602 0.17242,0.13976 0.41246,0.18867 0.63642,0.10482 l 5.4893,-2.05443 c 0.33612,-0.12578 0.50662,-0.50138 0.38119,-0.8368 -0.12106,-0.33366 -0.49578,-0.50661 -0.83453,-0.38083 z m -4.02762,-3.24061 c -0.17278,0.28126 -0.10622,0.64113 0.14307,0.84378 l 0.0699,0.0507 c 0.30589,0.18517 0.7042,0.0908 0.89235,-0.21313 l 3.06766,-4.99457 c 0.18903,-0.30747 0.084,-0.70403 -0.2126,-0.89445 -0.30624,-0.18692 -0.70438,-0.0926 -0.8927,0.21313 l -3.06766,4.99457"
       style="fill:#919191;fill-opacity:1;fill-rule:nonzero;stroke:none;stroke-width:0.03527778"
       id="path140"
       inkscape:connector-curvature="0" />
    <path
       d="m 172.44328,118.47997 c 0.21016,6.22617 -3.25721,11.23996 -6.64457,11.66098 -3.38701,0.42101 -5.13415,-4.20844 -5.87888,-10.04329 -0.74543,-5.83486 1.3953,-10.92201 4.78389,-11.32906 4.63329,-0.55378 7.54076,3.85555 7.73956,9.71137"
       style="fill:#f4b18c;fill-opacity:1;fill-rule:nonzero;stroke:none;stroke-width:0.03527778"
       id="path142"
       inkscape:connector-curvature="0" />
    <path
       d="m 167.49152,101.91527 c 3.1461,23.69755 -10.42413,36.34556 -31.41021,39.13196 -20.98539,2.78641 -26.93258,-3.88175 -35.64835,-17.70547 -4.170175,-9.07372 -7.762628,-21.12077 -4.984783,-30.273114 3.134575,-10.32804 17.378083,-16.17687 31.573903,-16.86692 15.61715,-0.75819 37.32368,2.01424 40.46944,25.713544"
       style="fill:#9b4734;fill-opacity:1;fill-rule:nonzero;stroke:none;stroke-width:0.03527778"
       id="path144"
       inkscape:connector-curvature="0" />
    <path
       d="m 161.35356,89.934596 c 0.86982,0.63939 1.20786,1.66311 1.47095,4.06518 1.82033,16.613624 4.58665,21.830054 5.27058,33.090974 0.53318,8.77325 -6.32208,16.85993 -13.16581,20.07784 -8.19604,3.85205 -30.37496,6.83761 -45.37613,-13.9163 -6.36575,-8.80644 -8.77866,-28.63796 -7.8056,-32.6717 3.2911,-13.621074 10.36054,-13.231504 27.22571,-15.469354 15.77612,-2.09461 22.51259,-2.42479 32.3803,4.82336"
       style="fill:#ffc19f;fill-opacity:1;fill-rule:nonzero;stroke:none;stroke-width:0.03527778"
       id="path146"
       inkscape:connector-curvature="0" />
    <path
       d="m 112.75341,110.99773 c 1.96761,7.92422 3.3381,17.11499 -1.088,21.75492 -5.1628,5.41035 -13.472406,-11.71862 -14.96833,-22.98478 -1.495749,-11.267914 5.37663,-20.675314 19.85143,-21.597704 7.46198,-0.47518 -8.48884,3.92193 -3.7951,22.827564"
       style="fill:#9b4734;fill-opacity:1;fill-rule:nonzero;stroke:none;stroke-width:0.03527778"
       id="path148"
       inkscape:connector-curvature="0" />
    <path
       d="m 131.32433,129.97848 c 0.0386,1.28052 -1.93773,2.3811 -4.41423,2.45623 -2.47597,0.0734 -4.5152,-0.90493 -4.55398,-2.18545 -0.0386,-1.28227 1.9379,-2.38286 4.41387,-2.45798 2.47633,-0.0751 4.51573,0.90492 4.55434,2.1872"
       style="fill:#ff9797;fill-opacity:1;fill-rule:nonzero;stroke:none;stroke-width:0.03527778"
       id="path150"
       inkscape:connector-curvature="0" />
    <path
       d="m 167.69015,125.20228 c 0.17871,1.13552 -1.10793,2.27979 -2.87323,2.55755 -1.76548,0.27777 -3.34124,-0.41752 -3.51978,-1.5513 -0.17819,-1.13553 1.1081,-2.27978 2.87357,-2.55755 1.76531,-0.27777 3.34125,0.41752 3.51944,1.5513"
       style="fill:#ff9797;fill-opacity:1;fill-rule:nonzero;stroke:none;stroke-width:0.03527778"
       id="path152"
       inkscape:connector-curvature="0" />
    <path
       d="m 164.21963,103.33031 c 0.25785,-0.014 0.50714,-0.14849 0.67485,-0.39132 0.30188,-0.44023 0.221,-1.07264 -0.17906,-1.41154 -2.9204,-2.466724 -7.85347,-2.819614 -11.73697,-0.84204 -0.45543,0.23234 -0.64934,0.8298 -0.43464,1.33643 0.214,0.50486 0.75992,0.72498 1.21082,0.49439 3.24987,-1.65787 7.49167,-1.39932 9.86317,0.60444 0.18099,0.15199 0.39359,0.22012 0.60183,0.20964"
       style="fill:#842f21;fill-opacity:1;fill-rule:nonzero;stroke:none;stroke-width:0.03527778"
       id="path154"
       inkscape:connector-curvature="0" />
    <path
       d="m 121.34201,107.10899 c 0.26361,-0.009 0.52094,-0.11355 0.71957,-0.31446 2.44889,-2.46146 7.32065,-3.3926 11.33953,-2.15749 0.58,0.17644 1.15789,-0.14675 1.33049,-0.70577 0.17277,-0.56253 -0.14325,-1.15824 -0.70385,-1.32944 -4.79,-1.47444 -10.46204,-0.33891 -13.47502,2.69206 -0.41613,0.41753 -0.41333,1.09185 0.002,1.50589 0.21785,0.21487 0.504,0.31794 0.78666,0.30921"
       style="fill:#842f21;fill-opacity:1;fill-rule:nonzero;stroke:none;stroke-width:0.03527778"
       id="path156"
       inkscape:connector-curvature="0" />
    <path
       d="m 135.10667,132.83825 c 0.15286,-2.55056 3.78707,-2.31822 9.59485,-3.03796 0.30379,-0.0367 1.48631,-0.1747 1.79116,-0.20789 5.81773,-0.6359 9.30065,-1.69805 10.03595,0.74944 1.41713,4.71506 -3.58162,10.62853 -9.48286,11.33605 l -0.10238,0.0122 c -5.90543,0.66908 -12.13055,-3.93591 -11.83672,-8.85186"
       style="fill:#701608;fill-opacity:1;fill-rule:nonzero;stroke:none;stroke-width:0.03527778"
       id="path158"
       inkscape:connector-curvature="0" />
    <path
       d="m 141.00809,140.77121 -0.12037,-0.0524 0.0846,-0.10132 c 1.36421,-1.66485 3.33496,-2.72352 5.54958,-2.98207 2.2176,-0.25855 4.37946,0.3197 6.08642,1.62468 l 0.10569,0.0804 -0.10499,0.0786 c -1.71989,1.31023 -3.63683,2.1278 -5.55045,2.3584 l -0.10238,0.0122 c -1.91222,0.21488 -3.96892,-0.13801 -5.94805,-1.01848"
       style="fill:#dd6b5b;fill-opacity:1;fill-rule:nonzero;stroke:none;stroke-width:0.03527778"
       id="path160"
       inkscape:connector-curvature="0" />
    <path
       d="m 137.72677,130.58467 -0.0372,-0.10831 15.78223,-1.83955 -0.0115,0.11181 c -0.21313,1.85352 -3.43592,3.60747 -7.49779,4.0809 -4.05854,0.47342 -7.59859,-0.4909 -8.2357,-2.24485"
       style="fill:#ffffff;fill-opacity:1;fill-rule:nonzero;stroke:none;stroke-width:0.03527778"
       id="path162"
       inkscape:connector-curvature="0" />
    <path
       d="m 149.19837,126.12118 c -0.14272,0.0192 -0.28248,-0.0681 -0.32633,-0.20963 -0.30851,-1.0115 -1.21519,-1.57227 -2.30913,-1.42727 -1.10042,0.14674 -1.84707,0.93987 -1.85737,1.97407 -0.002,0.16421 -0.13854,0.29873 -0.30345,0.29698 -0.16597,-0.002 -0.29873,-0.13801 -0.29699,-0.30397 0.0135,-1.3242 0.99176,-2.37762 2.37849,-2.56279 1.37923,-0.18344 2.56961,0.55902 2.96285,1.84653 0.0484,0.15898 -0.0409,0.32668 -0.19933,0.3756 l -0.0487,0.0105"
       style="fill:#c4735b;fill-opacity:1;fill-rule:nonzero;stroke:none;stroke-width:0.03527778"
       id="path164"
       inkscape:connector-curvature="0" />
    <path
       d="m 99.559479,133.25927 c 4.114791,6.88303 11.589001,9.38992 15.094281,8.21422 4.08335,-1.36787 3.99443,-8.05 1.67184,-15.17936 -2.32311,-7.12935 -7.76857,-10.91153 -12.52747,-9.45281 -5.786635,1.77666 -8.04406,10.05202 -4.238651,16.41795"
       style="fill:#ffc19f;fill-opacity:1;fill-rule:nonzero;stroke:none;stroke-width:0.03527778"
       id="path166"
       inkscape:connector-curvature="0" />
    <path
       d="m 105.66861,132.93434 c 1.87169,3.1323 5.64513,3.84856 6.99833,2.66411 1.52091,-1.33118 1.15946,-3.31922 -0.0901,-6.50044 -1.46186,-3.71404 -3.46877,-5.54486 -5.80394,-4.2294 -2.42793,1.36612 -3.30857,4.37964 -1.10425,8.06573"
       style="fill:#e0956c;fill-opacity:1;fill-rule:nonzero;stroke:none;stroke-width:0.03527778"
       id="path168"
       inkscape:connector-curvature="0" />
    <g
       id="g170"
       transform="matrix(0.01765341,0,0,-0.01765341,35.248718,348.75584)"
       style="stroke-width:2.01937795">
      <path
         d="m 7093.23,15156.1 c 178.41,95.5 278.86,190.7 260.23,264.3 -32.24,127.1 -408.58,149.7 -892.03,67.1 178.54,202.2 235.23,301.7 161.88,463.3 -147.47,324.9 -832.5,349.2 -1530.01,54.4 -697.44,-294.8 -1115.64,-673.8 -968.22,-998.6 -232.98,-57.1 -352.14,-229.3 -380.89,-326.1 92.76,-125.4 228.54,-260.8 472.78,-409.4 348.49,-212 735.86,-177.6 804.36,-35.8 26.18,54.4 5.55,124 -50.66,198.3 277.79,-67.6 628.88,-110 1011.69,-113.8 907.29,-9.3 1801.81,204.4 1808.18,472.1 3.43,144.3 -296.24,360.8 -697.31,364.2"
         style="fill:#9b4734;fill-opacity:1;fill-rule:nonzero;stroke:none;stroke-width:2.01937795"
         id="path172"
         inkscape:connector-curvature="0" />
    </g>
    <path
       d="m 152.99679,123.39068 c 0,0 8.2551,2.16274 10.74994,-3.11833 3.03971,-6.43406 -3.10802,-10.60581 -6.66554,-9.28336 -3.29162,1.22113 -5.99383,5.02951 -4.0844,12.40169"
       style="fill:#f9feff;fill-opacity:1;fill-rule:nonzero;stroke:none;stroke-width:0.03527778"
       id="path174"
       inkscape:connector-curvature="0" />
    <path
       d="m 163.52172,112.49662 c -1.70399,-2.03696 -3.75457,-2.51737 -5.87154,-2.03346 -2.16414,0.49264 -4.18747,2.57327 -4.61198,4.54385 0.94982,-2.26931 2.89856,-3.27032 4.12912,-3.72627 1.95956,-0.73023 4.71558,0.0611 6.13428,2.0946 1.26131,1.80986 1.47898,4.70283 0.36302,7.06472 1.43618,-1.67883 1.63289,-5.81913 -0.1429,-7.94344"
       style="fill:#9b4734;fill-opacity:1;fill-rule:nonzero;stroke:none;stroke-width:0.03527778"
       id="path176"
       inkscape:connector-curvature="0" />
    <path
       d="m 153.50691,116.82035 c -0.7657,2.17148 0.0947,4.6609 1.92148,5.55709 1.82697,0.89794 3.9284,-0.13626 4.69409,-2.30948 0.76552,-2.17148 -0.0945,-4.6609 -1.92149,-5.55709 -1.82714,-0.89794 -3.92856,0.13626 -4.69408,2.30948"
       style="fill:#229996;fill-opacity:1;fill-rule:nonzero;stroke:none;stroke-width:0.03527778"
       id="path178"
       inkscape:connector-curvature="0" />
    <path
       d="m 153.80704,116.14778 c -0.21226,0.6027 0.0264,1.29274 0.53352,1.54256 0.50679,0.24807 1.08958,-0.0384 1.30236,-0.64113 0.21208,-0.6027 -0.0262,-1.29276 -0.53317,-1.54257 -0.5068,-0.24807 -1.09011,0.0384 -1.30271,0.64114"
       style="fill:#fefffe;fill-opacity:1;fill-rule:nonzero;stroke:none;stroke-width:0.03527778"
       id="path180"
       inkscape:connector-curvature="0" />
    <path
       d="m 138.47255,124.93849 c 0,0 -9.09591,4.01102 -13.21106,-0.56602 -5.01465,-5.5763 1.16889,-11.06176 5.6074,-10.59183 4.10711,0.43499 8.12443,3.52712 7.60366,11.15785"
       style="fill:#f9feff;fill-opacity:1;fill-rule:nonzero;stroke:none;stroke-width:0.03527778"
       id="path182"
       inkscape:connector-curvature="0" />
    <path
       d="m 123.73255,116.7365 c 1.51042,-2.38111 3.78305,-3.32098 6.3544,-3.33845 2.62848,-0.0157 5.45926,1.54782 6.40611,3.37164 -1.62659,-1.99503 -4.1216,-2.52261 -5.65683,-2.68333 -2.44541,-0.26205 -5.46573,1.146 -6.6458,3.45549 -1.04905,2.05618 -0.6359,4.92818 1.20488,6.97387 -2.0553,-1.30498 -3.23747,-5.29853 -1.66276,-7.77922"
       style="fill:#9b4734;fill-opacity:1;fill-rule:nonzero;stroke:none;stroke-width:0.03527778"
       id="path184"
       inkscape:connector-curvature="0" />
    <path
       d="m 126.06771,119.94043 c -0.63309,2.26406 0.68883,4.61198 2.9522,5.24438 2.26354,0.6324 4.61163,-0.6883 5.24473,-2.95236 0.6331,-2.26407 -0.68883,-4.61199 -2.95219,-5.24439 -2.26389,-0.6324 -4.61216,0.6883 -5.24474,2.95237"
       style="fill:#229996;fill-opacity:1;fill-rule:nonzero;stroke:none;stroke-width:0.03527778"
       id="path186"
       inkscape:connector-curvature="0" />
    <path
       d="m 126.33849,119.23116 c -0.17609,0.62716 0.19112,1.27878 0.81881,1.45522 0.62785,0.1747 1.27982,-0.19042 1.45539,-0.81932 0.1754,-0.62891 -0.19112,-1.27878 -0.8195,-1.45522 -0.62786,-0.17645 -1.27913,0.19041 -1.4547,0.81932"
       style="fill:#fefffe;fill-opacity:1;fill-rule:nonzero;stroke:none;stroke-width:0.03527778"
       id="path188"
       inkscape:connector-curvature="0" />
  </g>
</svg>
