<?xml version="1.0" encoding="UTF-8" standalone="no"?>
<!-- Created with Inkscape (http://www.inkscape.org/) -->

<svg
   xmlns:dc="http://purl.org/dc/elements/1.1/"
   xmlns:cc="http://creativecommons.org/ns#"
   xmlns:rdf="http://www.w3.org/1999/02/22-rdf-syntax-ns#"
   xmlns:svg="http://www.w3.org/2000/svg"
   xmlns="http://www.w3.org/2000/svg"
   xmlns:sodipodi="http://sodipodi.sourceforge.net/DTD/sodipodi-0.dtd"
   xmlns:inkscape="http://www.inkscape.org/namespaces/inkscape"
   width="1000"
   height="1000"
   viewBox="0 0 264.58333 264.58334"
   version="1.1"
   id="svg2383"
   inkscape:version="0.92.5 (2060ec1f9f, 2020-04-08)"
   sodipodi:docname="angry.svg"
   enable-background="new">
  <defs
     id="defs2377">
    <clipPath
       clipPathUnits="userSpaceOnUse"
       id="clipPath354">
      <path
         d="m 31307.7,14127.1 c -0.1,0 -0.1,0 -0.2,0 -609.8,0 -1203.1,260.3 -1614.8,726.2 v 0 c 411.7,-465.9 1005,-726.2 1614.8,-726.2 0.1,0 0.1,0 0.2,0 164.1,0 329.4,18.8 492.7,57.6 v 0 c -163.3,-38.8 -328.6,-57.6 -492.7,-57.6"
         id="path352"
         inkscape:connector-curvature="0" />
    </clipPath>
    <clipPath
       clipPathUnits="userSpaceOnUse"
       id="clipPath1664">
      <path
         d="M 9698.17,8491.28 7200.76,7969.5 c -86.98,172.77 -134.15,299.46 -12.67,473.38 l 2497.04,535.6 c -27.86,-156.16 -22.4,-347.1 13.04,-487.2 z"
         id="path1662"
         inkscape:connector-curvature="0" />
    </clipPath>
    <clipPath
       clipPathUnits="userSpaceOnUse"
       id="clipPath304">
      <path
         d="m 20986,8431.61 -2472.3,-630.05 c -94.4,168.82 -215.5,1863.91 -101.7,2042.96 l 2471.3,643.78 c -21,-157.2 61.2,-1918.28 102.7,-2056.69 z"
         id="path302"
         inkscape:connector-curvature="0" />
    </clipPath>
  </defs>
  <sodipodi:namedview
     id="base"
     pagecolor="#ffffff"
     bordercolor="#666666"
     borderopacity="1.0"
     inkscape:pageopacity="0.0"
     inkscape:pageshadow="2"
     inkscape:zoom="0.70710678"
     inkscape:cx="467.13112"
     inkscape:cy="478.64603"
     inkscape:document-units="px"
     inkscape:current-layer="layer1"
     showgrid="false"
     units="px"
     inkscape:window-width="1920"
     inkscape:window-height="1031"
     inkscape:window-x="0"
     inkscape:window-y="25"
     inkscape:window-maximized="1"
     showguides="true"
     inkscape:lockguides="true"
     inkscape:object-nodes="false"
     inkscape:snap-nodes="false"
     inkscape:snap-others="false" />
  <metadata
     id="metadata2380">
    <rdf:RDF>
      <cc:Work
         rdf:about="">
        <dc:format>image/svg+xml</dc:format>
        <dc:type
           rdf:resource="http://purl.org/dc/dcmitype/StillImage" />
        <dc:title></dc:title>
      </cc:Work>
    </rdf:RDF>
  </metadata>
  <g
     inkscape:groupmode="layer"
     id="layer3"
     inkscape:label="Layer 2" />
  <g
     inkscape:groupmode="layer"
     id="layer2"
     inkscape:label="Layer 3" />
  <g
     inkscape:label="Layer 1"
     inkscape:groupmode="layer"
     id="layer1"
     transform="translate(0,-32.41665)">
    <text
       xml:space="preserve"
       style="font-style:normal;font-variant:normal;font-weight:bold;font-stretch:normal;font-size:10.58333302px;line-height:1.25;font-family:sans-serif;-inkscape-font-specification:'sans-serif Bold';letter-spacing:0px;word-spacing:0px;fill:#000000;fill-opacity:1;stroke:none;stroke-width:0.26458332"
       x="150.05655"
       y="89.869026"
       id="text8811" />
    <text
       xml:space="preserve"
       style="font-style:normal;font-variant:normal;font-weight:bold;font-stretch:normal;font-size:10.58333302px;line-height:1.25;font-family:sans-serif;-inkscape-font-specification:'sans-serif Bold';letter-spacing:0px;word-spacing:0px;fill:#000000;fill-opacity:1;stroke:none;stroke-width:0.26458332"
       x="160.63989"
       y="97.806526"
       id="text8815" />
    <text
       xml:space="preserve"
       style="font-style:normal;font-variant:normal;font-weight:bold;font-stretch:normal;font-size:10.58333302px;line-height:1.25;font-family:sans-serif;-inkscape-font-specification:'sans-serif Bold';letter-spacing:0px;word-spacing:0px;fill:#000000;fill-opacity:1;stroke:none;stroke-width:0.26458332"
       x="156.86011"
       y="88.7351"
       id="text8819" />
    <flowRoot
       xml:space="preserve"
       id="flowRoot8821"
       style="font-style:normal;font-variant:normal;font-weight:bold;font-stretch:normal;font-size:40px;line-height:1.25;font-family:sans-serif;-inkscape-font-specification:'sans-serif Bold';letter-spacing:0px;word-spacing:0px;fill:#000000;fill-opacity:1;stroke:none"><flowRegion
         id="flowRegion8823"
         style="font-style:normal;font-variant:normal;font-weight:bold;font-stretch:normal;font-family:sans-serif;-inkscape-font-specification:'sans-serif Bold'" /><flowPara
         id="flowPara8827" /></flowRoot>    <flowRoot
       xml:space="preserve"
       id="flowRoot8829"
       style="font-style:normal;font-variant:normal;font-weight:bold;font-stretch:normal;font-size:40px;line-height:1.25;font-family:sans-serif;-inkscape-font-specification:'sans-serif Bold';letter-spacing:0px;word-spacing:0px;fill:#000000;fill-opacity:1;stroke:none"><flowRegion
         id="flowRegion8831"
         style="font-style:normal;font-variant:normal;font-weight:bold;font-stretch:normal;font-family:sans-serif;-inkscape-font-specification:'sans-serif Bold'" /><flowPara
         id="flowPara8835" /></flowRoot>    <flowRoot
       xml:space="preserve"
       id="flowRoot8837"
       style="font-style:normal;font-variant:normal;font-weight:bold;font-stretch:normal;font-size:40px;line-height:1.25;font-family:sans-serif;-inkscape-font-specification:'sans-serif Bold';letter-spacing:0px;word-spacing:0px;fill:#000000;fill-opacity:1;stroke:none"><flowRegion
         id="flowRegion8839"
         style="font-style:normal;font-variant:normal;font-weight:bold;font-stretch:normal;font-family:sans-serif;-inkscape-font-specification:'sans-serif Bold'" /><flowPara
         id="flowPara8843" /></flowRoot>    <text
       xml:space="preserve"
       style="font-style:normal;font-variant:normal;font-weight:bold;font-stretch:normal;font-size:10.58333302px;line-height:1.25;font-family:sans-serif;-inkscape-font-specification:'sans-serif Bold';letter-spacing:0px;word-spacing:0px;fill:#000000;fill-opacity:1;stroke:none;stroke-width:0.26458332"
       x="209.39882"
       y="107.25594"
       id="text8847" />
    <flowRoot
       xml:space="preserve"
       id="flowRoot8849"
       style="font-style:normal;font-variant:normal;font-weight:bold;font-stretch:normal;font-size:40px;line-height:1.25;font-family:sans-serif;-inkscape-font-specification:'sans-serif Bold';letter-spacing:0px;word-spacing:0px;fill:#000000;fill-opacity:1;stroke:none"><flowRegion
         id="flowRegion8851"
         style="font-style:normal;font-variant:normal;font-weight:bold;font-stretch:normal;font-family:sans-serif;-inkscape-font-specification:'sans-serif Bold'" /><flowPara
         id="flowPara8855" /></flowRoot>    <flowRoot
       xml:space="preserve"
       id="flowRoot8857"
       style="font-style:normal;font-variant:normal;font-weight:bold;font-stretch:normal;font-size:40px;line-height:1.25;font-family:sans-serif;-inkscape-font-specification:'sans-serif Bold';letter-spacing:0px;word-spacing:0px;fill:#000000;fill-opacity:1;stroke:none"><flowRegion
         id="flowRegion8859"
         style="font-style:normal;font-variant:normal;font-weight:bold;font-stretch:normal;font-family:sans-serif;-inkscape-font-specification:'sans-serif Bold'" /><flowPara
         id="flowPara8863" /></flowRoot>    <flowRoot
       xml:space="preserve"
       id="flowRoot8865"
       style="font-style:normal;font-variant:normal;font-weight:bold;font-stretch:normal;font-size:40px;line-height:1.25;font-family:sans-serif;-inkscape-font-specification:'sans-serif Bold';letter-spacing:0px;word-spacing:0px;fill:#000000;fill-opacity:1;stroke:none"><flowRegion
         id="flowRegion8867"
         style="font-style:normal;font-variant:normal;font-weight:bold;font-stretch:normal;font-family:sans-serif;-inkscape-font-specification:'sans-serif Bold'" /><flowPara
         id="flowPara8871" /></flowRoot>    <flowRoot
       xml:space="preserve"
       id="flowRoot8873"
       style="font-style:normal;font-variant:normal;font-weight:bold;font-stretch:normal;font-size:40px;line-height:1.25;font-family:sans-serif;-inkscape-font-specification:'sans-serif Bold';letter-spacing:0px;word-spacing:0px;fill:#000000;fill-opacity:1;stroke:none"><flowRegion
         id="flowRegion8875"
         style="font-style:normal;font-variant:normal;font-weight:bold;font-stretch:normal;font-family:sans-serif;-inkscape-font-specification:'sans-serif Bold'" /><flowPara
         id="flowPara8879" /></flowRoot>    <text
       xml:space="preserve"
       style="font-style:normal;font-weight:normal;font-size:10.58333302px;line-height:1.25;font-family:sans-serif;letter-spacing:0px;word-spacing:0px;fill:#000000;fill-opacity:1;stroke:none;stroke-width:0.26458332"
       x="101.02788"
       y="69.125984"
       id="text977"><tspan
         sodipodi:role="line"
         id="tspan975"
         x="101.02788"
         y="78.489754"
         style="stroke-width:0.26458332" /><tspan
         sodipodi:role="line"
         x="101.02788"
         y="91.718918"
         style="stroke-width:0.26458332"
         id="tspan979" /><tspan
         sodipodi:role="line"
         x="101.02788"
         y="104.94809"
         style="stroke-width:0.26458332"
         id="tspan981" /><tspan
         sodipodi:role="line"
         x="101.02788"
         y="118.17725"
         style="stroke-width:0.26458332"
         id="tspan983" /><tspan
         sodipodi:role="line"
         x="101.02788"
         y="131.40642"
         style="stroke-width:0.26458332"
         id="tspan985" /><tspan
         sodipodi:role="line"
         x="101.02788"
         y="144.63559"
         style="stroke-width:0.26458332"
         id="tspan987" /><tspan
         sodipodi:role="line"
         x="101.02788"
         y="157.86475"
         style="stroke-width:0.26458332"
         id="tspan989" /><tspan
         sodipodi:role="line"
         x="101.02788"
         y="171.09392"
         style="stroke-width:0.26458332"
         id="tspan991" /><tspan
         sodipodi:role="line"
         x="101.02788"
         y="184.32309"
         style="stroke-width:0.26458332"
         id="tspan993" /><tspan
         sodipodi:role="line"
         x="101.02788"
         y="197.55225"
         style="stroke-width:0.26458332"
         id="tspan995" /><tspan
         sodipodi:role="line"
         x="101.02788"
         y="210.78142"
         style="stroke-width:0.26458332"
         id="tspan997" /><tspan
         sodipodi:role="line"
         x="101.02788"
         y="224.01059"
         style="stroke-width:0.26458332"
         id="tspan999" /><tspan
         sodipodi:role="line"
         x="101.02788"
         y="237.23975"
         style="stroke-width:0.26458332"
         id="tspan1001" /><tspan
         sodipodi:role="line"
         x="101.02788"
         y="250.46892"
         style="stroke-width:0.26458332"
         id="tspan1003" /><tspan
         sodipodi:role="line"
         x="101.02788"
         y="263.69809"
         style="stroke-width:0.26458332"
         id="tspan1005" /><tspan
         sodipodi:role="line"
         x="101.02788"
         y="276.92725"
         style="stroke-width:0.26458332"
         id="tspan1007" /><tspan
         sodipodi:role="line"
         x="101.02788"
         y="290.1564"
         style="stroke-width:0.26458332"
         id="tspan1009" /><tspan
         sodipodi:role="line"
         x="101.02788"
         y="303.38559"
         style="stroke-width:0.26458332"
         id="tspan1011" /><tspan
         sodipodi:role="line"
         x="101.02788"
         y="316.61475"
         style="stroke-width:0.26458332"
         id="tspan1013" /><tspan
         sodipodi:role="line"
         x="101.02788"
         y="329.8439"
         style="stroke-width:0.26458332"
         id="tspan1015" /><tspan
         sodipodi:role="line"
         x="101.02788"
         y="343.07309"
         style="stroke-width:0.26458332"
         id="tspan1017" /><tspan
         sodipodi:role="line"
         x="101.02788"
         y="356.30225"
         style="stroke-width:0.26458332"
         id="tspan1019" /><tspan
         sodipodi:role="line"
         x="101.02788"
         y="369.5314"
         style="stroke-width:0.26458332"
         id="tspan1021" /><tspan
         sodipodi:role="line"
         x="101.02788"
         y="382.76059"
         style="stroke-width:0.26458332"
         id="tspan1023" /></text>
    <path
       d="m 159.76079,146.92156 c 0,0 1.07438,1.95616 1.26585,5.81571 7.5056,-7.10286 9.5803,-22.02473 8.3397,-54.672657 l -78.487718,-1.06289 c -2.501362,38.047167 -7.041807,52.032417 8.290134,58.986397 0.217854,-0.80658 0.264214,-5.24659 0.837494,-6.10029 0.31321,2.46311 1.44394,5.96084 1.90113,6.71465 10.33883,1.86006 40.06892,3.6353 48.81285,1.36254 3.03752,-0.78963 5.65553,-1.83367 7.89325,-3.31681 0.57912,-4.3797 1.14731,-7.72665 1.14731,-7.72665"
       style="fill:#af4935;fill-opacity:1;fill-rule:nonzero;stroke:none;stroke-width:0.03527778"
       id="path60"
       inkscape:connector-curvature="0" />
    <path
       d="m 165.40539,259.0089 c -1.87946,0.83297 -9.30383,2.12955 -11.84024,2.3915 -4.31374,-11.73132 -14.43038,-39.22314 -18.96461,-49.01073 -1.07795,-2.32741 -9.76309,-2.71073 -10.07291,-0.0345 -0.19147,1.65256 -1.40701,40.5346 -2.0404,50.3399 -4.07628,0.64264 -8.25169,0.53333 -11.89151,-0.3166 0,0 -2.63309,-66.443 -3.01603,-76.5685 6.82791,-1.61129 30.2146,-3.60175 37.72887,-3.10799 2.07847,10.31659 14.71739,57.37472 20.09683,76.30691"
       style="fill:#ffc19f;fill-opacity:1;fill-rule:nonzero;stroke:none;stroke-width:0.03527778"
       id="path62"
       inkscape:connector-curvature="0" />
    <path
       d="m 137.59566,275.47233 c -25.44877,0 -46.078551,-1.1967 -46.078551,-2.67418 0,-1.4756 20.629781,-2.67229 46.078551,-2.67229 25.44858,0 46.07874,1.19669 46.07874,2.67229 0,1.47748 -20.63016,2.67418 -46.07874,2.67418"
       style="fill:#d4d4d4;fill-opacity:1;fill-rule:nonzero;stroke:none;stroke-width:0.03527778"
       id="path64"
       inkscape:connector-curvature="0" />
    <path
       d="m 151.38698,263.99165 c 0.0403,0.2563 14.66651,-0.83674 14.67895,-1.15145 0.11194,-2.73826 -0.36768,-8.2581 -0.3477,-9.843 l -15.61896,1.23249 c 0.45625,2.9267 0.99523,7.90756 1.28771,9.76196"
       style="fill:#fff8b3;fill-opacity:1;fill-rule:nonzero;stroke:none;stroke-width:0.03527778"
       id="path66"
       inkscape:connector-curvature="0" />
    <path
       d="m 168.6798,260.2772 c -0.12891,-0.83108 -0.4702,-1.90528 -0.7182,-2.87959 -0.18356,-0.72366 -6.98207,-1.37949 -7.18994,0.28457 -0.0531,0.42591 -0.0784,0.80471 -0.0818,1.15146 -1.16239,-0.12061 -2.41976,-0.27703 -3.74403,-0.47679 -2.87903,-0.43157 -5.44409,-0.96112 -7.2297,-1.45488 -0.41629,2.6233 -0.70237,7.21406 -1.14053,10.13134 0,0 29.6319,9.09296 34.89941,5.24283 1.48464,-1.0855 -5.49403,-7.44398 -14.79522,-11.99894"
       style="fill:#f93a88;fill-opacity:1;fill-rule:nonzero;stroke:none;stroke-width:0.03527778"
       id="path68"
       inkscape:connector-curvature="0" />
    <path
       d="m 148.81005,265.19965 c -0.0744,0.65017 -0.15114,1.27961 -0.23444,1.83366 0,0 29.6319,9.09296 34.89941,5.24283 0.20937,-0.15265 0.24744,-0.41272 0.13757,-0.75571 -8.55812,0.86878 -27.41925,-4.20254 -34.80254,-6.32078"
       style="fill:#b51f51;fill-opacity:1;fill-rule:nonzero;stroke:none;stroke-width:0.03527778"
       id="path70"
       inkscape:connector-curvature="0" />
    <path
       d="m 175.42742,263.33206 c -1.6371,-0.47867 -3.87256,0.0471 -5.44446,1.2683 -0.18562,0.14512 -0.21917,0.41272 -0.0744,0.59929 0.0699,0.0886 0.16848,0.14322 0.27326,0.16018 0.11119,0.0151 0.22879,-0.0113 0.32509,-0.0867 1.36893,-1.06289 3.30324,-1.54533 4.68235,-1.1232 0.23255,0.0716 0.46303,-0.0641 0.52861,-0.29022 0.0656,-0.22614 -0.0643,-0.46171 -0.29041,-0.52767 z m -2.51757,-0.62755 c 0.22502,0.0697 0.45833,-0.0886 0.51147,-0.3185 0.0529,-0.2299 -0.0901,-0.45794 -0.31962,-0.51071 -1.82876,-0.42779 -3.73744,0.0603 -5.23791,1.32484 -0.17979,0.15264 -0.20335,0.42214 -0.0514,0.60118 0.0695,0.0829 0.16395,0.13191 0.26289,0.14699 0.11684,0.0169 0.24066,-0.0131 0.33828,-0.0961 1.77054,-1.49256 3.57555,-1.36065 4.49634,-1.14769 z m -2.20642,-1.33426 c 0.22539,0.0716 0.4651,-0.0433 0.54105,-0.26572 0.0765,-0.22239 -0.0424,-0.4655 -0.26515,-0.54087 -1.71495,-0.58045 -3.85579,0 -5.20796,1.4266 -0.16169,0.1715 -0.15472,0.44098 0.0164,0.60306 0.0658,0.0622 0.14642,0.098 0.22954,0.11119 0.13304,0.0207 0.27326,-0.0226 0.37295,-0.12815 1.13073,-1.19293 2.90465,-1.69422 4.31317,-1.20611"
       style="fill:#d3dae5;fill-opacity:1;fill-rule:nonzero;stroke:none;stroke-width:0.03527778"
       id="path72"
       inkscape:connector-curvature="0" />
    <path
       d="m 123.27666,265.93085 c -0.019,0.25441 -13.69049,0.29399 -13.72536,-0.0131 -0.30077,-2.6723 -0.25177,-8.10168 -0.38482,-9.65078 h 14.60413 c -0.21334,2.89654 -0.35562,7.82842 -0.49395,9.66396"
       style="fill:#fff8b3;fill-opacity:1;fill-rule:nonzero;stroke:none;stroke-width:0.03527778"
       id="path74"
       inkscape:connector-curvature="0" />
    <path
       d="m 105.90583,261.8282 c 0.21088,-0.81225 0.64659,-1.84121 0.9843,-2.7816 0.25065,-0.69729 6.72954,-0.5861 6.74763,1.09115 0.004,0.42968 -0.0123,0.80848 -0.0454,1.15335 1.10849,0.0113 2.31046,-0.004 3.58027,-0.0528 2.7603,-0.10553 5.23433,-0.3411 6.97057,-0.63321 0.11251,2.65345 -0.10761,7.2461 -0.005,10.19542 0,0 -28.903712,5.70453 -33.459044,1.28526 -1.283378,-1.24569 5.97289,-6.77684 15.227154,-10.2576"
       style="fill:#f93a88;fill-opacity:1;fill-rule:nonzero;stroke:none;stroke-width:0.03527778"
       id="path76"
       inkscape:connector-curvature="0" />
    <path
       d="m 124.11227,268.95179 c 4.3e-4,0.65582 0.006,1.28714 0.0254,1.84875 0,0 -28.903709,5.70453 -33.459041,1.28525 -0.180541,-0.17526 -0.189209,-0.43721 -0.04881,-0.76512 7.974471,1.82424 26.295871,-1.09304 33.482411,-2.36888"
       style="fill:#b51f51;fill-opacity:1;fill-rule:nonzero;stroke:none;stroke-width:0.03527778"
       id="path78"
       inkscape:connector-curvature="0" />
    <path
       d="m 98.8889,264.59659 c 0.03769,0.2318 0.240657,0.39199 0.467556,0.34864 1.344814,-0.26571 3.117424,0.42968 4.294134,1.64144 0.0827,0.0848 0.19091,0.12628 0.29738,0.12062 0.10026,-0.004 0.19939,-0.0452 0.27496,-0.12815 0.15623,-0.16773 0.15321,-0.43721 -0.007,-0.60306 -1.35122,-1.3908 -3.40274,-2.16345 -4.996884,-1.87136 -0.220116,0.0396 -0.367676,0.26007 -0.330362,0.49187 z m 6.8869,0.81413 c 0.0833,0.0923 0.19656,0.13758 0.30869,0.13192 0.0948,-0.004 0.18921,-0.0414 0.26327,-0.11496 0.16226,-0.16207 0.16923,-0.43344 0.0158,-0.60305 -1.27942,-1.42661 -3.02659,-2.12577 -4.79675,-1.90717 -0.22181,0.0264 -0.38086,0.23745 -0.3558,0.47302 0.0258,0.23368 0.22878,0.41649 0.44852,0.37314 0.89083,-0.10742 2.60671,-0.0358 4.11624,1.6471 z m 2.04341,-1.04216 c 0.0827,0.11685 0.21032,0.17527 0.33809,0.16961 0.0795,-0.002 0.15962,-0.0301 0.22841,-0.0848 0.17847,-0.14134 0.21352,-0.40895 0.0793,-0.59741 -1.12263,-1.56794 -3.07822,-2.38772 -4.75755,-2.00327 -0.21785,0.0509 -0.35599,0.27891 -0.30737,0.50883 0.0475,0.22992 0.26158,0.37126 0.4817,0.32414 1.37986,-0.32602 2.9985,0.37126 3.93738,1.6829"
       style="fill:#d3dae5;fill-opacity:1;fill-rule:nonzero;stroke:none;stroke-width:0.03527778"
       id="path80"
       inkscape:connector-curvature="0" />
    <path
       d="m 159.49563,222.98385 c -12.14252,7.11607 -45.77476,6.98038 -57.14444,0.95359 0,0 4.01428,-22.55184 4.98388,-30.72099 8.31577,-0.17978 37.84213,0.73856 46.59945,2.57279 1.24361,7.6803 4.33653,20.16261 5.56111,27.19461"
       style="fill:#224966;fill-opacity:1;fill-rule:nonzero;stroke:none;stroke-width:0.03527778"
       id="path82"
       inkscape:connector-curvature="0" />
    <path
       d="m 105.47634,205.64506 c 0.056,-0.86463 0.13965,-1.83593 0.23614,-2.8468 0.0697,0.0281 0.14021,0.0562 0.21012,0.0839 -0.14473,0.9076 -0.29417,1.8316 -0.44626,2.76294"
       style="fill:#cfc0c0;fill-opacity:1;fill-rule:nonzero;stroke:none;stroke-width:0.03527778"
       id="path84"
       inkscape:connector-curvature="0" />
    <path
       d="m 122.94951,209.49915 c -5.88696,0 -11.77806,-0.76871 -17.538,-2.53133 0.0117,-0.40085 0.0341,-0.84559 0.0648,-1.32276 0.15209,-0.93134 0.30153,-1.85534 0.44626,-2.76294 6.9359,2.74786 15.49439,4.14676 23.86613,4.14676 9.39523,0 18.55565,-1.76338 24.91355,-5.35984 0.0511,0.40913 0.10365,0.83297 0.15793,1.27357 -10.00451,3.88764 -20.94695,6.55654 -31.9107,6.55654"
       style="fill:#29374d;fill-opacity:1;fill-rule:nonzero;stroke:none;stroke-width:0.03527778"
       id="path86"
       inkscape:connector-curvature="0" />
    <path
       d="m 70.579009,139.8168 c -0.868777,-1.37195 8.292772,-6.9521 9.038866,-5.49911 4.498608,8.75562 22.306845,24.22588 27.015765,29.11252 -4.98048,0.67033 -16.334327,0.53464 -21.106572,-2.70056 -4.391754,-2.97571 -10.656185,-14.14166 -14.948059,-20.91285"
       style="fill:#ffc19f;fill-opacity:1;fill-rule:nonzero;stroke:none;stroke-width:0.03527778"
       id="path88"
       inkscape:connector-curvature="0" />
    <path
       d="m 94.127209,150.77358 c -0.312835,4.19689 0.02657,12.60763 -0.02186,16.97244 9.053001,0.67146 16.425171,0.74062 17.009751,0.4146 6.07711,-3.39031 5.87923,-17.67727 6.09897,-18.56489 -4.50709,0.3788 -15.2803,0.99128 -23.08686,1.17785"
       style="fill:#1aa7d3;fill-opacity:1;fill-rule:nonzero;stroke:none;stroke-width:0.03527778"
       id="path90"
       inkscape:connector-curvature="0" />
    <path
       d="m 155.95343,200.91408 c -12.03416,7.75436 -36.1613,8.03045 -51.36358,1.41455 0,0 3.10329,-41.00158 4.64655,-50.6354 10.24422,-3.26404 30.71834,-3.57499 39.19033,-1.56983 1.85364,12.13839 5.20833,32.846 7.5267,50.79068"
       style="fill:#1aa7d3;fill-opacity:1;fill-rule:nonzero;stroke:none;stroke-width:0.03527778"
       id="path92"
       inkscape:connector-curvature="0" />
    <path
       d="m 117.0324,151.39924 c -0.0422,-0.61625 0.0469,-1.21553 0.18167,-1.80351 6.33039,-0.58044 15.85132,-0.94604 22.65606,-0.56725 0.0586,0.26572 0.17771,0.5126 0.19656,0.78774 0.32791,4.77168 -4.5625,8.99307 -10.92342,9.43029 -6.36073,0.43721 -11.78314,-3.07559 -12.11087,-7.84727"
       style="fill:#ffc19f;fill-opacity:1;fill-rule:nonzero;stroke:none;stroke-width:0.03527778"
       id="path94"
       inkscape:connector-curvature="0" />
    <path
       d="m 119.6981,137.69857 0.16263,14.04178 c 0.0349,3.02093 3.90102,5.42373 8.6352,5.36908 4.7338,-0.0547 8.54304,-2.54791 8.50836,-5.56696 l -0.16282,-14.04178 -17.14337,0.19788"
       style="fill:#ffc19f;fill-opacity:1;fill-rule:nonzero;stroke:none;stroke-width:0.03527778"
       id="path96"
       inkscape:connector-curvature="0" />
    <path
       d="m 157.53344,191.40729 c -0.45229,0.50204 -6.69693,-4.42379 -6.30401,-4.97333 5.87697,-8.21588 13.0931,-22.84357 14.3695,-25.42728 0,0 8.17782,4.31392 7.40365,9.93308 -0.7265,5.27825 -4.01164,7.75455 -15.46914,20.46753"
       style="fill:#ffc19f;fill-opacity:1;fill-rule:nonzero;stroke:none;stroke-width:0.03527778"
       id="path98"
       inkscape:connector-curvature="0" />
    <path
       d="m 168.29083,160.98595 c -2.31291,3.56839 -8.16651,10.96468 -10.7768,13.93398 -3.36147,-2.42693 -11.06588,-7.02447 -11.27564,-7.46564 -3.76401,-7.90437 -5.04701,-17.88871 -5.05813,-18.3052 7.58324,0.83674 12.30894,1.82236 13.85785,2.59314 3.14625,1.81294 5.74995,3.92364 13.25272,9.24372"
       style="fill:#1aa7d3;fill-opacity:1;fill-rule:nonzero;stroke:none;stroke-width:0.03527778"
       id="path100"
       inkscape:connector-curvature="0" />
    <path
       d="m 139.14816,183.33614 c 1.52779,0.47886 4.81389,-0.22238 6.40445,0.47943 0,0 0.092,0.0665 0.14115,0.12513 -3.33791,0.11477 -6.13892,1.44621 -8.79067,2.07301 -0.91062,3.62794 3.97206,1.43018 9.02718,0.82147 -3.00623,0.82166 -4.92527,1.73172 -7.00657,2.19852 -1.61713,1.47824 -0.93492,2.60293 1.17389,2.35191 1.62976,-0.19354 4.47976,-1.03593 7.42041,-1.45901 0.25781,0.0773 -6.08464,2.55356 -6.7137,3.94587 0.17846,0.73893 1.4543,1.25397 3.39633,0.49865 1.05083,-0.40838 2.1497,-1.08343 4.55364,-1.68573 2.04756,0.28136 3.78455,1.50481 4.5949,1.84667 3.06296,0.88442 4.73041,-3.28496 4.77809,-4.17503 0.12401,-2.31197 -3.84504,-6.86975 -6.35545,-7.80524 -4.20763,-1.5687 -6.28045,-2.47065 -13.17564,-1.06798 -1.22703,0.71575 -0.19166,1.6194 0.55199,1.85233"
       style="fill:#ffc19f;fill-opacity:1;fill-rule:nonzero;stroke:none;stroke-width:0.03527778"
       id="path102"
       inkscape:connector-curvature="0" />
    <path
       d="m 118.60619,149.47512 c -0.71934,-0.67467 -1.2683,-1.49256 -1.59188,-2.43295 -0.0795,-0.2318 -0.0675,-0.47303 -0.11119,-0.7086 0.89931,-0.44098 1.86684,-0.8895 2.87959,-1.3418 l 0.0507,4.38912 c -0.41799,0.0301 -0.82732,0.0622 -1.22722,0.0942"
       style="fill:#a03b2b;fill-opacity:1;fill-rule:nonzero;stroke:none;stroke-width:0.03527778"
       id="path104"
       inkscape:connector-curvature="0" />
    <path
       d="m 119.84528,150.40232 c -0.45323,-0.26949 -0.86878,-0.57856 -1.23909,-0.9272 0.3999,-0.032 0.80922,-0.0641 1.22721,-0.0942 l 0.0119,1.02143"
       style="fill:#e19d81;fill-opacity:1;fill-rule:nonzero;stroke:none;stroke-width:0.03527778"
       id="path106"
       inkscape:connector-curvature="0" />
    <path
       d="m 124.91132,151.68947 c -1.90396,0 -3.66544,-0.4523 -5.06604,-1.28715 l -0.0119,-1.02143 -0.0507,-4.38912 c 5.08037,-2.26334 11.29938,-4.57003 15.76407,-5.99286 0.31189,0.43344 0.59043,0.88762 0.76852,1.40587 1.37478,3.99713 -1.8314,8.72546 -7.1611,10.55725 -1.43395,0.49375 -2.87488,0.72744 -4.24287,0.72744"
       style="fill:#e19d81;fill-opacity:1;fill-rule:nonzero;stroke:none;stroke-width:0.03527778"
       id="path108"
       inkscape:connector-curvature="0" />
    <path
       d="m 131.39964,169.42025 c 5.02929,-4.24231 8.18686,-6.32738 9.81794,-6.42349 1.98443,-0.11495 5.80686,8.3919 4.41022,9.9312 -2.3587,2.60049 -10.25572,2.07602 -13.70445,-0.0946 -1.77166,-1.11565 -2.08506,-2.096 -0.52371,-3.41311"
       style="fill:#ff9fc4;fill-opacity:1;fill-rule:nonzero;stroke:none;stroke-width:0.03527778"
       id="path110"
       inkscape:connector-curvature="0" />
    <path
       d="m 128.97762,168.91858 c -5.60692,-3.4817 -9.04075,-5.09582 -10.66844,-4.9573 -1.98104,0.16866 -4.53705,7.47751 -3.1945,9.06053 2.14424,2.52907 11.25171,1.43659 13.852,-0.65224 1.62731,-1.30769 1.75094,-2.37095 0.011,-3.45099"
       style="fill:#ff9fc4;fill-opacity:1;fill-rule:nonzero;stroke:none;stroke-width:0.03527778"
       id="path112"
       inkscape:connector-curvature="0" />
    <path
       d="m 135.40016,171.97608 c -1.0627,-1.5e-4 -2.47253,-0.48867 -3.25311,-0.74628 0.67222,-0.55877 2.36624,-1.78317 3.5145,-1.78317 0.57026,0 1.00616,0.30247 1.11452,1.13902 0.13719,1.06025 -0.50204,1.39043 -1.37591,1.39043"
       style="fill:#fe79ab;fill-opacity:1;fill-rule:nonzero;stroke:none;stroke-width:0.03527778"
       id="path114"
       inkscape:connector-curvature="0" />
    <path
       d="m 125.40112,171.74032 c -0.84541,0 -1.47146,-0.29983 -1.38722,-1.25078 0.069,-0.77568 0.4996,-1.05478 1.08004,-1.05478 1.14392,0 2.87073,1.08268 3.56274,1.57963 -0.77757,0.2497 -2.1906,0.72593 -3.25556,0.72593"
       style="fill:#fe79ab;fill-opacity:1;fill-rule:nonzero;stroke:none;stroke-width:0.03527778"
       id="path116"
       inkscape:connector-curvature="0" />
    <path
       d="m 132.46064,170.73114 c -0.0166,-1.12451 -0.99203,-2.02174 -2.17891,-2.00459 -1.1869,0.0171 -2.13558,0.94265 -2.11937,2.06716 0.0164,1.12432 0.99221,2.02212 2.17911,2.00478 1.1867,-0.0175 2.13556,-0.94302 2.11917,-2.06735"
       style="fill:#ffcce0;fill-opacity:1;fill-rule:nonzero;stroke:none;stroke-width:0.03527778"
       id="path118"
       inkscape:connector-curvature="0" />
    <path
       d="m 82.973881,124.37857 c 1.9686,7.37425 9.179639,11.96689 14.575104,11.21119 5.394905,-0.75759 6.392585,-6.82584 5.395275,-13.93625 -0.99711,-7.1104 -6.181886,-12.27784 -11.575089,-11.50328 -7.370661,1.05911 -10.245542,7.29885 -8.39529,14.22834"
       style="fill:#ffc19f;fill-opacity:1;fill-rule:nonzero;stroke:none;stroke-width:0.03527778"
       id="path120"
       inkscape:connector-curvature="0" />
    <path
       d="m 89.478403,125.93709 c 0.438346,3.11894 3.021309,5.33328 5.770678,4.94695 2.749746,-0.38633 4.624309,-3.22635 4.186904,-6.3434 -0.438158,-3.11892 -3.02131,-5.33138 -5.770491,-4.94694 -2.74918,0.38445 -4.623365,3.22447 -4.187091,6.34339"
       style="fill:#e0956c;fill-opacity:1;fill-rule:nonzero;stroke:none;stroke-width:0.03527778"
       id="path122"
       inkscape:connector-curvature="0" />
    <path
       d="m 174.57184,124.30131 c -1.95503,7.37612 -9.15872,11.98196 -14.55456,11.2338 -5.39641,-0.74817 -6.40578,-6.81454 -5.42016,-13.92682 0.986,-7.11041 6.16229,-12.28915 11.55493,-11.52214 7.37236,1.04592 10.25854,7.28001 8.41979,14.21516"
       style="fill:#ffc19f;fill-opacity:1;fill-rule:nonzero;stroke:none;stroke-width:0.03527778"
       id="path124"
       inkscape:connector-curvature="0" />
    <path
       d="m 167.67326,125.86925 c -0.43307,3.12081 -3.01226,5.33893 -5.76182,4.95825 -2.75013,-0.38256 -4.6294,-3.21881 -4.19727,-6.33774 0.43194,-3.11893 3.01113,-5.33704 5.76125,-4.95636 2.7505,0.38068 4.62902,3.21881 4.19784,6.33585"
       style="fill:#e0956c;fill-opacity:1;fill-rule:nonzero;stroke:none;stroke-width:0.03527778"
       id="path126"
       inkscape:connector-curvature="0" />
    <path
       d="m 166.80655,100.1753 c 0.0196,23.17996 -16.02884,33.62037 -38.51491,33.63921 -22.48757,0.0189 -38.987746,-10.39329 -39.0081,-33.57324 -0.0196,-23.179957 16.467,-28.577307 38.95439,-28.596157 22.48663,-0.0189 38.54884,5.35024 38.56862,28.530187"
       style="fill:#af4935;fill-opacity:1;fill-rule:nonzero;stroke:none;stroke-width:0.03527778"
       id="path128"
       inkscape:connector-curvature="0" />
    <path
       d="m 164.16856,108.23552 c 0.0232,27.1639 -14.63955,39.39651 -35.18642,39.41347 -20.54687,0.0189 -35.626277,-12.18927 -35.649834,-39.35316 -0.02318,-27.163897 15.045674,-27.895097 35.591794,-27.912057 20.54743,-0.017 35.22128,0.68786 35.24446,27.851747"
       style="fill:#ffc19f;fill-opacity:1;fill-rule:nonzero;stroke:none;stroke-width:0.03527778"
       id="path130"
       inkscape:connector-curvature="0" />
    <path
       d="m 156.60266,126.84356 c 0.001,1.26831 -1.96653,2.29539 -4.39552,2.29915 -2.42843,0.002 -4.39835,-1.02331 -4.39967,-2.28973 -5.4e-4,-1.26829 1.96747,-2.29537 4.39571,-2.29915 2.42862,-0.002 4.39854,1.0252 4.39948,2.28973"
       style="fill:#ff8a8a;fill-opacity:1;fill-rule:nonzero;stroke:none;stroke-width:0.03527778"
       id="path132"
       inkscape:connector-curvature="0" />
    <path
       d="m 108.98594,126.88503 c 0.001,1.26641 -1.9669,2.29538 -4.39571,2.29726 -2.42824,0.002 -4.39854,-1.02331 -4.39948,-2.28973 -0.001,-1.26641 1.96747,-2.29538 4.39533,-2.29726 2.429,-0.002 4.39854,1.02331 4.39986,2.28973"
       style="fill:#ff8a8a;fill-opacity:1;fill-rule:nonzero;stroke:none;stroke-width:0.03527778"
       id="path134"
       inkscape:connector-curvature="0" />
    <path
       d="m 138.18609,110.74951 c -2.47667,3.66356 -2.13142,7.68143 0.0756,9.19472 3.32453,2.27842 11.14899,2.88336 14.03725,-0.46171 2.79724,-3.23954 1.38025,-9.10238 -3.24689,-11.59941 -4.05159,-2.18419 -8.46954,-0.68032 -10.86594,2.8664"
       style="fill:#f9feff;fill-opacity:1;fill-rule:nonzero;stroke:none;stroke-width:0.03527778"
       id="path136"
       inkscape:connector-curvature="0" />
    <path
       d="m 152.7399,109.63386 c -3.63511,-5.63103 -12.24618,-3.65791 -14.63711,1.24003 2.47498,-3.66356 7.09383,-4.8056 10.83937,-2.78725 2.31498,1.24946 3.97112,3.4883 4.43189,5.9891 0.36711,1.99386 -0.0741,4.23647 -1.23551,5.58204 1.34293,-0.88197 3.2744,-5.88356 0.60136,-10.02392"
       style="fill:#994939;fill-opacity:1;fill-rule:nonzero;stroke:none;stroke-width:0.03527778"
       id="path138"
       inkscape:connector-curvature="0" />
    <path
       d="m 139.12799,113.17493 c -1.00579,2.53471 0.23255,5.40489 2.76671,6.41123 2.53377,1.00447 5.40357,-0.23368 6.40973,-2.7684 1.00578,-2.53284 -0.23237,-5.403 -2.7669,-6.40935 -2.53359,-1.00635 -5.40357,0.23368 -6.40954,2.76652"
       style="fill:#631b0a;fill-opacity:1;fill-rule:nonzero;stroke:none;stroke-width:0.03527778"
       id="path140"
       inkscape:connector-curvature="0" />
    <path
       d="m 140.1089,113.01662 c -0.27911,0.70106 0.0643,1.49822 0.76757,1.77713 0.70275,0.27892 1.49916,-0.0641 1.77808,-0.76701 0.27948,-0.70293 -0.0643,-1.5001 -0.7672,-1.77901 -0.70313,-0.27891 -1.49917,0.0641 -1.77845,0.76889"
       style="fill:#fefffe;fill-opacity:1;fill-rule:nonzero;stroke:none;stroke-width:0.03527778"
       id="path142"
       inkscape:connector-curvature="0" />
    <path
       d="m 120.4717,110.76459 c 2.48327,3.65979 2.14424,7.67765 -0.0596,9.19471 -3.32114,2.28408 -11.14447,2.90221 -14.03819,-0.43721 -2.80271,-3.23577 -1.39608,-9.10049 3.22729,-11.60506 4.04744,-2.19173 8.46765,-0.6954 10.87046,2.84756"
       style="fill:#f9feff;fill-opacity:1;fill-rule:nonzero;stroke:none;stroke-width:0.03527778"
       id="path144"
       inkscape:connector-curvature="0" />
    <path
       d="m 105.9162,109.67343 c 3.6253,-5.63668 12.23977,-3.67864 14.63899,1.21554 -2.48101,-3.6598 -7.10211,-4.79241 -10.84408,-2.76841 -2.31253,1.25323 -3.96528,3.49584 -4.42134,5.99664 -0.36409,1.99574 0.081,4.23647 1.24456,5.58015 -1.34406,-0.88008 -3.28402,-5.87791 -0.61813,-10.02392"
       style="fill:#994939;fill-opacity:1;fill-rule:nonzero;stroke:none;stroke-width:0.03527778"
       id="path146"
       inkscape:connector-curvature="0" />
    <path
       d="m 110.36072,113.19942 c -1.00579,2.53473 0.23236,5.40489 2.76689,6.41124 2.53359,1.00635 5.40357,-0.23368 6.40954,-2.76651 1.00579,-2.53472 -0.23255,-5.40489 -2.7667,-6.41124 -2.53378,-1.00447 -5.40357,0.23368 -6.40973,2.76651"
       style="fill:#631b0a;fill-opacity:1;fill-rule:nonzero;stroke:none;stroke-width:0.03527778"
       id="path148"
       inkscape:connector-curvature="0" />
    <path
       d="m 111.34163,113.03924 c -0.27892,0.70482 0.0643,1.5001 0.76757,1.77902 0.70294,0.27891 1.49916,-0.0641 1.77826,-0.76702 0.27929,-0.70293 -0.0645,-1.5001 -0.7672,-1.77901 -0.70331,-0.27891 -1.49916,0.0641 -1.77863,0.76701"
       style="fill:#fefffe;fill-opacity:1;fill-rule:nonzero;stroke:none;stroke-width:0.03527778"
       id="path150"
       inkscape:connector-curvature="0" />
    <path
       d="m 132.12123,122.26788 c -0.16735,0 -0.3149,-0.12061 -0.34355,-0.29022 -0.20184,-1.20988 -1.15919,-1.99197 -2.43955,-1.99009 -1.28771,0 -2.26598,0.79905 -2.43522,1.98632 -0.0273,0.19034 -0.20466,0.32414 -0.39368,0.29587 -0.19053,-0.0264 -0.32263,-0.20353 -0.29568,-0.39387 0.21634,-1.52083 1.50142,-2.58372 3.12364,-2.5856 1.61392,-0.002 2.87073,1.03273 3.12779,2.57241 0.0313,0.19034 -0.0967,0.36937 -0.28608,0.40141 l -0.0577,0.004"
       style="fill:#c4735b;fill-opacity:1;fill-rule:nonzero;stroke:none;stroke-width:0.03527778"
       id="path152"
       inkscape:connector-curvature="0" />
    <path
       d="m 102.34441,80.779523 c 0.33941,0.75759 0.52824,13.28984 0.71858,18.69096 0.13663,3.878407 -7.500697,19.569167 -23.719695,7.800157 22.363005,0.36748 0.343177,-22.181147 23.001115,-26.491117"
       style="fill:#af4935;fill-opacity:1;fill-rule:nonzero;stroke:none;stroke-width:0.03527778"
       id="path154"
       inkscape:connector-curvature="0" />
    <path
       d="m 163.37668,82.654653 c 5.49798,-4.35143 4.33992,-10.41968 0.26571,-15.74164 0.009,11.05853 -42.12137,-6.30382 -59.93639,8.55962 0.46247,0.0603 -4.056307,4.60019 -1.12828,7.88307 2.246,6.47154 14.45449,14.87852 35.38015,17.758107 -3.5878,-2.065467 -9.5754,-4.658607 -12.04302,-8.427707 2.67116,1.60564 7.47695,3.49019 12.31835,4.27982 7.03069,1.1458 18.75429,-0.41837 24.92091,-1.58868 2.30085,10.577977 0.22784,25.840937 -0.87745,29.804147 12.18908,-16.87991 6.8379,-40.719457 1.10002,-42.526737"
       style="fill:#af4935;fill-opacity:1;fill-rule:nonzero;stroke:none;stroke-width:0.03527778"
       id="path156"
       inkscape:connector-curvature="0" />
    <path
       d="m 130.34693,70.927103 c -10.09911,-0.20353 -19.70221,2.64402 -27.08211,7.83407 0.70577,-2.43107 2.811,-10.06538 10.75381,-14.283 -9.84771,-2.69302 -14.01672,3.09254 -12.62158,10.40648 -3.147201,-3.92928 -11.188385,-5.1354 -16.460978,5.40112 10.613973,-3.24708 15.836058,-0.73498 17.270768,-0.68032 -2.01572,1.52837 -3.889524,3.19996 -5.499494,5.08074 7.746814,-6.72972 22.006824,-9.67339 33.830864,-9.62628 10.50769,0.0434 23.36106,2.5743 31.27071,9.09861 -7.46847,-8.15633 -18.93577,-12.97889 -31.46199,-13.23142"
       style="fill:#ffaa00;fill-opacity:1;fill-rule:nonzero;stroke:none;stroke-width:0.03527778"
       id="path158"
       inkscape:connector-curvature="0" />
    <path
       d="m 153.57834,100.4448 c -5.7215,0.22614 -11.54682,3.7314 -15.3866,8.10544 -0.45078,0.51448 -2.27314,5.77803 -1.77354,6.15117 6.97924,-7.48543 13.69558,-8.4767 17.73342,-8.12994 2.95855,0.25441 2.33382,-6.23975 -0.57328,-6.12667"
       style="fill:#ffc19f;fill-opacity:1;fill-rule:nonzero;stroke:none;stroke-width:0.03527778"
       id="path160"
       inkscape:connector-curvature="0" />
    <path
       d="m 135.82607,116.59727 c 0.31849,0.002 0.63754,-0.13946 0.85182,-0.41649 5.2349,-6.74103 13.61794,-9.36809 19.71955,-9.57351 0.59514,-0.0189 1.05741,-0.51636 1.03801,-1.10812 -0.019,-0.58986 -0.62586,-0.98184 -1.10737,-1.03649 -6.58782,0.22425 -15.65495,3.07558 -21.34817,10.40648 -0.36127,0.4636 -0.27515,1.13826 0.19297,1.50387 0.19279,0.15264 0.42271,0.22426 0.65319,0.22426"
       style="fill:#72221a;fill-opacity:1;fill-rule:nonzero;stroke:none;stroke-width:0.03527778"
       id="path162"
       inkscape:connector-curvature="0" />
    <path
       d="m 105.21081,100.31853 c 5.72055,0.25441 11.52741,3.79171 15.34438,8.1846 0.44795,0.51825 2.24223,5.79122 1.74113,6.16248 -6.93966,-7.52124 -13.65111,-8.5502 -17.69102,-8.22229 -2.95987,0.23745 -2.30084,-6.25294 0.60551,-6.12479"
       style="fill:#ffc19f;fill-opacity:1;fill-rule:nonzero;stroke:none;stroke-width:0.03527778"
       id="path164"
       inkscape:connector-curvature="0" />
    <path
       d="m 122.87808,116.56335 c -0.3183,0 -0.63622,-0.14323 -0.84955,-0.42026 -5.19891,-6.7693 -13.56876,-9.43971 -19.66904,-9.67716 -0.59515,-0.0226 -1.05479,-0.52202 -1.03198,-1.11377 0.0222,-0.58986 0.63075,-0.97808 1.11301,-1.03085 6.5865,0.26007 15.63875,3.15851 21.29277,10.51767 0.3592,0.46737 0.26949,1.14016 -0.2007,1.50388 -0.19317,0.15076 -0.42384,0.22049 -0.65451,0.22049"
       style="fill:#72221a;fill-opacity:1;fill-rule:nonzero;stroke:none;stroke-width:0.03527778"
       id="path166"
       inkscape:connector-curvature="0" />
    <path
       d="m 143.08328,126.61177 c 3.20091,3.99712 2.24884,9.67904 -1.03895,12.45498 -2.90748,2.45557 -8.45786,-0.62002 -12.82153,-0.38068 -3.033,0.16584 -9.30892,2.45934 -11.59582,0.91401 -4.09438,-2.76464 -3.21995,-11.55606 -0.22182,-13.74025 2.65307,-1.93167 3.7968,-1.12696 11.25604,-1.20611 7.44981,-0.081 11.7986,-1.31919 14.42208,1.95805"
       style="fill:#701608;fill-opacity:1;fill-rule:nonzero;stroke:none;stroke-width:0.03527778"
       id="path168"
       inkscape:connector-curvature="0" />
    <path
       d="m 133.91608,135.55961 c -0.0488,3.12269 -1.72022,1.63201 -4.33334,1.61505 -2.61311,-0.0188 -5.17817,1.4398 -5.12936,-1.6829 0.0488,-3.1227 2.20681,-5.64045 4.82011,-5.62161 2.61312,0.0189 4.69196,2.56487 4.64259,5.68946"
       style="fill:#2d0200;fill-opacity:1;fill-rule:nonzero;stroke:none;stroke-width:0.03527778"
       id="path170"
       inkscape:connector-curvature="0" />
    <path
       d="m 129.1623,136.20035 c -3.69466,-2.35946 -7.11304,1.24757 -8.30992,3.90479 2.9105,-0.3053 6.47211,-1.31542 8.37042,-1.41907 3.10366,-0.16961 6.79285,1.30788 9.71918,1.30977 -2.06471,-4.23459 -7.06668,-6.34152 -9.77968,-3.79549"
       style="fill:#dd6b5b;fill-opacity:1;fill-rule:nonzero;stroke:none;stroke-width:0.03527778"
       id="path172"
       inkscape:connector-curvature="0" />
    <path
       d="m 139.38787,124.71403 c -2.56148,-0.89517 -6.58895,-0.23181 -10.30415,-0.16961 -4.19181,0.0697 -7.25552,-0.51449 -9.88616,0.20353 0.9517,2.66663 4.96371,3.28288 9.78703,3.2678 5.56866,-0.0151 9.60517,-0.42025 10.40328,-3.30172"
       style="fill:#ffffff;fill-opacity:1;fill-rule:nonzero;stroke:none;stroke-width:0.03527778"
       id="path174"
       inkscape:connector-curvature="0" />
    <path
       d="m 130.12681,132.11088 c 0.16943,0.62379 -0.48282,1.14015 -0.94453,1.09492 -0.46153,-0.0433 -0.91778,-0.63509 -0.72762,-1.25511 0.38143,-1.24757 0.49846,-1.88455 -0.6775,-1.90339 0.506,-1.33615 2.2558,-1.17408 2.98512,-0.0547 -1.39569,0.0396 -0.95509,0.94416 -0.63547,2.11823"
       style="fill:#701608;fill-opacity:1;fill-rule:nonzero;stroke:none;stroke-width:0.03527778"
       id="path176"
       inkscape:connector-curvature="0" />
    <path
       d="m 82.109626,127.26005 c -0.239903,5.59334 -1.073063,7.78696 -3.040533,10.19353 -2.647415,3.23954 -7.178249,3.52599 -10.432489,1.80917 -1.780145,-0.94039 -4.035574,-3.49773 -6.508856,-9.57352 3.405757,-0.84804 9.841494,-6.86164 15.47347,-7.49297 -0.236512,2.70245 3.187715,4.09513 4.508408,5.06379"
       style="fill:#ffc19f;fill-opacity:1;fill-rule:nonzero;stroke:none;stroke-width:0.03527778"
       id="path178"
       inkscape:connector-curvature="0" />
    <path
       d="m 73.446729,123.44007 c -0.01036,-0.0189 -0.02073,-0.0377 -0.0311,-0.0584 0.06049,-0.0207 0.121365,-0.0415 0.181105,-0.0603 9.62e-4,0.017 0.0019,0.0339 0.0028,0.0509 -0.05088,0.0226 -0.101766,0.0452 -0.152836,0.0678"
       style="fill:#e2d4d2;fill-opacity:1;fill-rule:nonzero;stroke:none;stroke-width:0.03527778"
       id="path180"
       inkscape:connector-curvature="0" />
    <path
       d="m 70.658914,136.00624 c -3.24444,0 -6.064103,-2.33307 -7.086283,-5.35777 0.648474,-0.15265 3.219753,-2.83625 5.972326,-4.95448 0.05899,0.24122 0.127396,0.48809 0.205604,0.73497 0.786046,2.48761 2.279363,4.30808 3.466064,4.30808 0.09856,0 0.195051,-0.0132 0.288901,-0.0377 0.536155,-0.14888 0.894973,-0.70294 1.057044,-1.50764 0.207489,0.0923 0.435708,0.16773 0.685976,0.22426 0.277595,0.0641 0.569134,0.10554 0.867269,0.13004 -1.421891,1.25511 -2.239786,3.16792 -1.805774,5.452 -1.229104,0.69916 -2.468384,1.00823 -3.651127,1.00823 m 2.959308,-12.2213 c -0.05578,-0.11873 -0.112884,-0.23181 -0.171493,-0.34487 0.05107,-0.0226 0.101953,-0.0453 0.152836,-0.0678 0.0075,0.1338 0.01771,0.26761 0.03091,0.40329 -0.0042,0.002 -0.0081,0.006 -0.01225,0.009"
       style="fill:#e2a285;fill-opacity:1;fill-rule:nonzero;stroke:none;stroke-width:0.03527778"
       id="path182"
       inkscape:connector-curvature="0" />
    <path
       d="m 74.177934,125.21154 c 0.850685,2.69491 0.5501,5.15048 -0.672408,5.48781 -1.222507,0.33545 -2.903714,-1.57736 -3.754965,-4.27039 -0.850874,-2.6949 -0.550099,-5.15235 0.672408,-5.4878 1.222319,-0.33545 2.903525,1.57548 3.754965,4.27038"
       style="fill:#ffc19f;fill-opacity:1;fill-rule:nonzero;stroke:none;stroke-width:0.03527778"
       id="path184"
       inkscape:connector-curvature="0" />
    <path
       d="m 78.365968,124.2052 c 0.501102,2.76086 -0.124003,5.10524 -1.39664,5.23904 -1.272824,0.13003 -2.711112,-1.9995 -3.212403,-4.76226 -0.50129,-2.76086 0.124569,-5.10524 1.397205,-5.23716 1.272826,-0.13191 2.711114,1.99951 3.211838,4.76038"
       style="fill:#ffc19f;fill-opacity:1;fill-rule:nonzero;stroke:none;stroke-width:0.03527778"
       id="path186"
       inkscape:connector-curvature="0" />
    <path
       d="m 70.010629,126.02002 c 1.16484,2.59502 1.11603,5.13728 -0.108927,5.68003 -1.225146,0.54275 -3.162651,-1.11754 -4.326925,-3.71256 -1.165217,-2.59503 -1.116219,-5.13729 0.108927,-5.68004 1.224957,-0.54275 3.162274,1.11942 4.326925,3.71257"
       style="fill:#ffc19f;fill-opacity:1;fill-rule:nonzero;stroke:none;stroke-width:0.03527778"
       id="path188"
       inkscape:connector-curvature="0" />
    <path
       d="m 66.782961,128.5472 c 1.574353,2.09373 2.061697,4.45696 1.089459,5.27862 -0.97224,0.82166 -3.036198,-0.2073 -4.610174,-2.29915 -1.574353,-2.09374 -2.061697,-4.45696 -1.089458,-5.27862 0.972239,-0.82355 3.036198,0.2073 4.610173,2.29915"
       style="fill:#ffc19f;fill-opacity:1;fill-rule:nonzero;stroke:none;stroke-width:0.03527778"
       id="path190"
       inkscape:connector-curvature="0" />
    <path
       d="m 81.038637,126.57596 c -0.865951,-0.52579 -1.904527,-1.17219 -2.614248,-2.01647 -0.01753,-0.11873 -0.03694,-0.23557 -0.05842,-0.35429 -0.01866,-0.10365 -0.03863,-0.20542 -0.05993,-0.30719 1.414543,0.64452 2.439739,1.66218 2.732598,2.67795"
       style="fill:#dbccc9;fill-opacity:1;fill-rule:nonzero;stroke:none;stroke-width:0.03527778"
       id="path192"
       inkscape:connector-curvature="0" />
    <path
       d="m 76.693053,129.56862 c -0.19392,0 -0.386898,-0.008 -0.577238,-0.0226 0.07878,-0.0697 0.159433,-0.13758 0.241977,-0.20354 0.166782,0.0697 0.333942,0.10742 0.498841,0.10742 0.03769,0 0.07538,-0.002 0.112695,-0.006 0.508075,-0.0528 0.913065,-0.45983 1.184252,-1.10246 0.02243,-0.009 0.04504,-0.017 0.06765,-0.0245 -0.01997,0.002 -0.0392,0.004 -0.05804,0.004 -1.41e-4,0 -5.88e-4,0 -0.001,0 0.37201,-0.90082 0.486402,-2.25581 0.262141,-3.76157 0.709721,0.84428 1.748297,1.49069 2.614247,2.01648 0.09913,0.34487 0.114204,0.68786 0.03222,1.01765 -0.299078,1.20046 -2.39187,1.97501 -4.377809,1.97501"
       style="fill:#db9c7d;fill-opacity:1;fill-rule:nonzero;stroke:none;stroke-width:0.03527778"
       id="path194"
       inkscape:connector-curvature="0" />
    <path
       d="m 76.115815,129.54601 c -0.298135,-0.0245 -0.589674,-0.066 -0.867269,-0.13004 -0.250268,-0.0565 -0.478487,-0.13191 -0.685976,-0.22425 0.104216,-0.51638 0.127208,-1.13639 0.06389,-1.81671 0.495449,0.99316 1.112262,1.70928 1.731336,1.96747 -0.08254,0.066 -0.163201,0.1338 -0.241977,0.20353 m 2.037765,-1.20423 c 0.0028,-0.008 0.0058,-0.0151 0.0087,-0.0207 4.23e-4,0 6.94e-4,0 0.001,0 0.01885,0 0.03807,-0.002 0.05804,-0.004 -0.02261,0.008 -0.04523,0.0151 -0.06766,0.0245 m -4.518773,-4.52293 c -0.0055,-0.0113 -0.01093,-0.0226 -0.01658,-0.0339 0.0042,-0.004 0.0081,-0.008 0.01225,-0.009 0.0015,0.0151 0.0028,0.0283 0.0043,0.0433"
       style="fill:#c48369;fill-opacity:1;fill-rule:nonzero;stroke:none;stroke-width:0.03527778"
       id="path196"
       inkscape:connector-curvature="0" />
    <path
       d="m 74.56257,129.19172 c -1.824621,-0.81036 -2.057551,-2.88525 -1.721348,-4.2327 0.121743,-0.48999 0.388783,-0.88574 0.777,-1.17408 0.0057,0.0113 0.01112,0.0226 0.01658,0.0339 0.02846,0.28269 0.06897,0.57102 0.122119,0.86312 0.18299,1.00824 0.490736,1.93167 0.869531,2.69303 0.06332,0.68032 0.04033,1.30033 -0.06389,1.81671"
       style="fill:#db9c7d;fill-opacity:1;fill-rule:nonzero;stroke:none;stroke-width:0.03527778"
       id="path198"
       inkscape:connector-curvature="0" />
    <path
       d="m 76.856633,129.4499 c -0.164899,0 -0.332059,-0.0377 -0.498841,-0.10742 -0.619074,-0.25819 -1.235887,-0.97431 -1.731336,-1.96747 -0.378794,-0.76136 -0.686541,-1.68479 -0.869531,-2.69303 -0.05314,-0.2921 -0.09366,-0.58043 -0.122118,-0.86312 -0.0015,-0.0151 -0.0028,-0.0283 -0.0043,-0.0433 0.468122,-0.34299 1.109622,-0.52956 1.882476,-0.52956 0.558581,0 1.186136,0.098 1.865893,0.30341 0.323766,0.098 0.633773,0.21484 0.927198,0.34865 0.0213,0.10176 0.04127,0.20353 0.05993,0.30718 0.02149,0.11873 0.04089,0.23557 0.05842,0.35429 0.22426,1.50576 0.109869,2.86075 -0.262141,3.76156 -0.0028,0.006 -0.0058,0.0132 -0.0087,0.0207 -0.271187,0.64263 -0.676177,1.04969 -1.184252,1.10246 -0.03731,0.004 -0.07501,0.006 -0.112695,0.006"
       style="fill:#db9c7d;fill-opacity:1;fill-rule:nonzero;stroke:none;stroke-width:0.03527778"
       id="path200"
       inkscape:connector-curvature="0" />
    <path
       d="m 72.841222,124.95902 c -0.355991,1.42848 1.42114,3.21315 3.970181,3.98582 2.548288,0.77078 4.903033,0.23745 5.259212,-1.19104 0.35618,-1.42848 -1.421139,-3.21316 -3.969992,-3.98582 -2.548287,-0.77078 -4.90322,-0.23934 -5.259401,1.19104"
       style="fill:#ffc19f;fill-opacity:1;fill-rule:nonzero;stroke:none;stroke-width:0.03527778"
       id="path202"
       inkscape:connector-curvature="0" />
  </g>
</svg>
