<?xml version="1.0" encoding="UTF-8" standalone="no"?>
<!-- Created with Inkscape (http://www.inkscape.org/) -->

<svg
   xmlns:dc="http://purl.org/dc/elements/1.1/"
   xmlns:cc="http://creativecommons.org/ns#"
   xmlns:rdf="http://www.w3.org/1999/02/22-rdf-syntax-ns#"
   xmlns:svg="http://www.w3.org/2000/svg"
   xmlns="http://www.w3.org/2000/svg"
   xmlns:sodipodi="http://sodipodi.sourceforge.net/DTD/sodipodi-0.dtd"
   xmlns:inkscape="http://www.inkscape.org/namespaces/inkscape"
   width="1000"
   height="1000"
   viewBox="0 0 264.58333 264.58334"
   version="1.1"
   id="svg2383"
   inkscape:version="0.92.5 (2060ec1f9f, 2020-04-08)"
   sodipodi:docname="wet.svg"
   enable-background="new">
  <defs
     id="defs2377">
    <clipPath
       clipPathUnits="userSpaceOnUse"
       id="clipPath354">
      <path
         d="m 31307.7,14127.1 c -0.1,0 -0.1,0 -0.2,0 -609.8,0 -1203.1,260.3 -1614.8,726.2 v 0 c 411.7,-465.9 1005,-726.2 1614.8,-726.2 0.1,0 0.1,0 0.2,0 164.1,0 329.4,18.8 492.7,57.6 v 0 c -163.3,-38.8 -328.6,-57.6 -492.7,-57.6"
         id="path352"
         inkscape:connector-curvature="0" />
    </clipPath>
    <clipPath
       clipPathUnits="userSpaceOnUse"
       id="clipPath1664">
      <path
         d="M 9698.17,8491.28 7200.76,7969.5 c -86.98,172.77 -134.15,299.46 -12.67,473.38 l 2497.04,535.6 c -27.86,-156.16 -22.4,-347.1 13.04,-487.2 z"
         id="path1662"
         inkscape:connector-curvature="0" />
    </clipPath>
    <clipPath
       clipPathUnits="userSpaceOnUse"
       id="clipPath304">
      <path
         d="m 20986,8431.61 -2472.3,-630.05 c -94.4,168.82 -215.5,1863.91 -101.7,2042.96 l 2471.3,643.78 c -21,-157.2 61.2,-1918.28 102.7,-2056.69 z"
         id="path302"
         inkscape:connector-curvature="0" />
    </clipPath>
  </defs>
  <sodipodi:namedview
     id="base"
     pagecolor="#ffffff"
     bordercolor="#666666"
     borderopacity="1.0"
     inkscape:pageopacity="0.0"
     inkscape:pageshadow="2"
     inkscape:zoom="0.70710678"
     inkscape:cx="467.13112"
     inkscape:cy="478.64603"
     inkscape:document-units="px"
     inkscape:current-layer="layer1"
     showgrid="false"
     units="px"
     inkscape:window-width="1920"
     inkscape:window-height="1031"
     inkscape:window-x="0"
     inkscape:window-y="25"
     inkscape:window-maximized="1"
     showguides="true"
     inkscape:lockguides="true"
     inkscape:object-nodes="false"
     inkscape:snap-nodes="false"
     inkscape:snap-others="false" />
  <metadata
     id="metadata2380">
    <rdf:RDF>
      <cc:Work
         rdf:about="">
        <dc:format>image/svg+xml</dc:format>
        <dc:type
           rdf:resource="http://purl.org/dc/dcmitype/StillImage" />
        <dc:title></dc:title>
      </cc:Work>
    </rdf:RDF>
  </metadata>
  <g
     inkscape:groupmode="layer"
     id="layer3"
     inkscape:label="Layer 2" />
  <g
     inkscape:groupmode="layer"
     id="layer2"
     inkscape:label="Layer 3" />
  <g
     inkscape:label="Layer 1"
     inkscape:groupmode="layer"
     id="layer1"
     transform="translate(0,-32.41665)">
    <text
       xml:space="preserve"
       style="font-style:normal;font-variant:normal;font-weight:bold;font-stretch:normal;font-size:10.58333302px;line-height:1.25;font-family:sans-serif;-inkscape-font-specification:'sans-serif Bold';letter-spacing:0px;word-spacing:0px;fill:#000000;fill-opacity:1;stroke:none;stroke-width:0.26458332"
       x="150.05655"
       y="89.869026"
       id="text8811" />
    <text
       xml:space="preserve"
       style="font-style:normal;font-variant:normal;font-weight:bold;font-stretch:normal;font-size:10.58333302px;line-height:1.25;font-family:sans-serif;-inkscape-font-specification:'sans-serif Bold';letter-spacing:0px;word-spacing:0px;fill:#000000;fill-opacity:1;stroke:none;stroke-width:0.26458332"
       x="160.63989"
       y="97.806526"
       id="text8815" />
    <text
       xml:space="preserve"
       style="font-style:normal;font-variant:normal;font-weight:bold;font-stretch:normal;font-size:10.58333302px;line-height:1.25;font-family:sans-serif;-inkscape-font-specification:'sans-serif Bold';letter-spacing:0px;word-spacing:0px;fill:#000000;fill-opacity:1;stroke:none;stroke-width:0.26458332"
       x="156.86011"
       y="88.7351"
       id="text8819" />
    <flowRoot
       xml:space="preserve"
       id="flowRoot8821"
       style="font-style:normal;font-variant:normal;font-weight:bold;font-stretch:normal;font-size:40px;line-height:1.25;font-family:sans-serif;-inkscape-font-specification:'sans-serif Bold';letter-spacing:0px;word-spacing:0px;fill:#000000;fill-opacity:1;stroke:none"><flowRegion
         id="flowRegion8823"
         style="font-style:normal;font-variant:normal;font-weight:bold;font-stretch:normal;font-family:sans-serif;-inkscape-font-specification:'sans-serif Bold'" /><flowPara
         id="flowPara8827" /></flowRoot>    <flowRoot
       xml:space="preserve"
       id="flowRoot8829"
       style="font-style:normal;font-variant:normal;font-weight:bold;font-stretch:normal;font-size:40px;line-height:1.25;font-family:sans-serif;-inkscape-font-specification:'sans-serif Bold';letter-spacing:0px;word-spacing:0px;fill:#000000;fill-opacity:1;stroke:none"><flowRegion
         id="flowRegion8831"
         style="font-style:normal;font-variant:normal;font-weight:bold;font-stretch:normal;font-family:sans-serif;-inkscape-font-specification:'sans-serif Bold'" /><flowPara
         id="flowPara8835" /></flowRoot>    <flowRoot
       xml:space="preserve"
       id="flowRoot8837"
       style="font-style:normal;font-variant:normal;font-weight:bold;font-stretch:normal;font-size:40px;line-height:1.25;font-family:sans-serif;-inkscape-font-specification:'sans-serif Bold';letter-spacing:0px;word-spacing:0px;fill:#000000;fill-opacity:1;stroke:none"><flowRegion
         id="flowRegion8839"
         style="font-style:normal;font-variant:normal;font-weight:bold;font-stretch:normal;font-family:sans-serif;-inkscape-font-specification:'sans-serif Bold'" /><flowPara
         id="flowPara8843" /></flowRoot>    <text
       xml:space="preserve"
       style="font-style:normal;font-variant:normal;font-weight:bold;font-stretch:normal;font-size:10.58333302px;line-height:1.25;font-family:sans-serif;-inkscape-font-specification:'sans-serif Bold';letter-spacing:0px;word-spacing:0px;fill:#000000;fill-opacity:1;stroke:none;stroke-width:0.26458332"
       x="209.39882"
       y="107.25594"
       id="text8847" />
    <flowRoot
       xml:space="preserve"
       id="flowRoot8849"
       style="font-style:normal;font-variant:normal;font-weight:bold;font-stretch:normal;font-size:40px;line-height:1.25;font-family:sans-serif;-inkscape-font-specification:'sans-serif Bold';letter-spacing:0px;word-spacing:0px;fill:#000000;fill-opacity:1;stroke:none"><flowRegion
         id="flowRegion8851"
         style="font-style:normal;font-variant:normal;font-weight:bold;font-stretch:normal;font-family:sans-serif;-inkscape-font-specification:'sans-serif Bold'" /><flowPara
         id="flowPara8855" /></flowRoot>    <flowRoot
       xml:space="preserve"
       id="flowRoot8857"
       style="font-style:normal;font-variant:normal;font-weight:bold;font-stretch:normal;font-size:40px;line-height:1.25;font-family:sans-serif;-inkscape-font-specification:'sans-serif Bold';letter-spacing:0px;word-spacing:0px;fill:#000000;fill-opacity:1;stroke:none"><flowRegion
         id="flowRegion8859"
         style="font-style:normal;font-variant:normal;font-weight:bold;font-stretch:normal;font-family:sans-serif;-inkscape-font-specification:'sans-serif Bold'" /><flowPara
         id="flowPara8863" /></flowRoot>    <flowRoot
       xml:space="preserve"
       id="flowRoot8865"
       style="font-style:normal;font-variant:normal;font-weight:bold;font-stretch:normal;font-size:40px;line-height:1.25;font-family:sans-serif;-inkscape-font-specification:'sans-serif Bold';letter-spacing:0px;word-spacing:0px;fill:#000000;fill-opacity:1;stroke:none"><flowRegion
         id="flowRegion8867"
         style="font-style:normal;font-variant:normal;font-weight:bold;font-stretch:normal;font-family:sans-serif;-inkscape-font-specification:'sans-serif Bold'" /><flowPara
         id="flowPara8871" /></flowRoot>    <flowRoot
       xml:space="preserve"
       id="flowRoot8873"
       style="font-style:normal;font-variant:normal;font-weight:bold;font-stretch:normal;font-size:40px;line-height:1.25;font-family:sans-serif;-inkscape-font-specification:'sans-serif Bold';letter-spacing:0px;word-spacing:0px;fill:#000000;fill-opacity:1;stroke:none"><flowRegion
         id="flowRegion8875"
         style="font-style:normal;font-variant:normal;font-weight:bold;font-stretch:normal;font-family:sans-serif;-inkscape-font-specification:'sans-serif Bold'" /><flowPara
         id="flowPara8879" /></flowRoot>    <text
       xml:space="preserve"
       style="font-style:normal;font-weight:normal;font-size:10.58333302px;line-height:1.25;font-family:sans-serif;letter-spacing:0px;word-spacing:0px;fill:#000000;fill-opacity:1;stroke:none;stroke-width:0.26458332"
       x="101.02788"
       y="69.125984"
       id="text977"><tspan
         sodipodi:role="line"
         id="tspan975"
         x="101.02788"
         y="78.489754"
         style="stroke-width:0.26458332" /><tspan
         sodipodi:role="line"
         x="101.02788"
         y="91.718918"
         style="stroke-width:0.26458332"
         id="tspan979" /><tspan
         sodipodi:role="line"
         x="101.02788"
         y="104.94809"
         style="stroke-width:0.26458332"
         id="tspan981" /><tspan
         sodipodi:role="line"
         x="101.02788"
         y="118.17725"
         style="stroke-width:0.26458332"
         id="tspan983" /><tspan
         sodipodi:role="line"
         x="101.02788"
         y="131.40642"
         style="stroke-width:0.26458332"
         id="tspan985" /><tspan
         sodipodi:role="line"
         x="101.02788"
         y="144.63559"
         style="stroke-width:0.26458332"
         id="tspan987" /><tspan
         sodipodi:role="line"
         x="101.02788"
         y="157.86475"
         style="stroke-width:0.26458332"
         id="tspan989" /><tspan
         sodipodi:role="line"
         x="101.02788"
         y="171.09392"
         style="stroke-width:0.26458332"
         id="tspan991" /><tspan
         sodipodi:role="line"
         x="101.02788"
         y="184.32309"
         style="stroke-width:0.26458332"
         id="tspan993" /><tspan
         sodipodi:role="line"
         x="101.02788"
         y="197.55225"
         style="stroke-width:0.26458332"
         id="tspan995" /><tspan
         sodipodi:role="line"
         x="101.02788"
         y="210.78142"
         style="stroke-width:0.26458332"
         id="tspan997" /><tspan
         sodipodi:role="line"
         x="101.02788"
         y="224.01059"
         style="stroke-width:0.26458332"
         id="tspan999" /><tspan
         sodipodi:role="line"
         x="101.02788"
         y="237.23975"
         style="stroke-width:0.26458332"
         id="tspan1001" /><tspan
         sodipodi:role="line"
         x="101.02788"
         y="250.46892"
         style="stroke-width:0.26458332"
         id="tspan1003" /><tspan
         sodipodi:role="line"
         x="101.02788"
         y="263.69809"
         style="stroke-width:0.26458332"
         id="tspan1005" /><tspan
         sodipodi:role="line"
         x="101.02788"
         y="276.92725"
         style="stroke-width:0.26458332"
         id="tspan1007" /><tspan
         sodipodi:role="line"
         x="101.02788"
         y="290.1564"
         style="stroke-width:0.26458332"
         id="tspan1009" /><tspan
         sodipodi:role="line"
         x="101.02788"
         y="303.38559"
         style="stroke-width:0.26458332"
         id="tspan1011" /><tspan
         sodipodi:role="line"
         x="101.02788"
         y="316.61475"
         style="stroke-width:0.26458332"
         id="tspan1013" /><tspan
         sodipodi:role="line"
         x="101.02788"
         y="329.8439"
         style="stroke-width:0.26458332"
         id="tspan1015" /><tspan
         sodipodi:role="line"
         x="101.02788"
         y="343.07309"
         style="stroke-width:0.26458332"
         id="tspan1017" /><tspan
         sodipodi:role="line"
         x="101.02788"
         y="356.30225"
         style="stroke-width:0.26458332"
         id="tspan1019" /><tspan
         sodipodi:role="line"
         x="101.02788"
         y="369.5314"
         style="stroke-width:0.26458332"
         id="tspan1021" /><tspan
         sodipodi:role="line"
         x="101.02788"
         y="382.76059"
         style="stroke-width:0.26458332"
         id="tspan1023" /></text>
    <path
       d="m 83.466109,218.2924 c 0,1.1972 -0.37565,2.1684 -0.841397,2.1684 v 0 c -0.464218,0 -0.841396,-0.9712 -0.841396,-2.1684 v -12.61483 c 0,-1.19873 0.377178,-2.16993 0.841396,-2.16993 v 0 c 0.465747,0 0.841397,0.9712 0.841397,2.16993 v 12.61483"
       style="fill:#63bfe2;fill-opacity:1;fill-rule:nonzero;stroke:none;stroke-width:0.03527778"
       id="path420"
       inkscape:connector-curvature="0" />
    <path
       d="m 88.215191,192.03349 c 0,1.1972 -0.37565,2.1684 -0.841397,2.1684 v 0 c -0.464218,0 -0.841397,-0.9712 -0.841397,-2.1684 v -12.61484 c 0,-1.19872 0.377179,-2.16992 0.841397,-2.16992 v 0 c 0.465747,0 0.841397,0.9712 0.841397,2.16992 v 12.61484"
       style="fill:#63bfe2;fill-opacity:1;fill-rule:nonzero;stroke:none;stroke-width:0.03527778"
       id="path422"
       inkscape:connector-curvature="0" />
    <path
       d="m 71.769015,165.58371 c 0,1.19414 -0.377178,2.16228 -0.841397,2.16228 v 0 c -0.464218,0 -0.83987,-0.96814 -0.83987,-2.16228 v -12.61943 c 0,-1.19567 0.375652,-2.16839 0.83987,-2.16839 v 0 c 0.464219,0 0.841397,0.97272 0.841397,2.16839 v 12.61943"
       style="fill:#63bfe2;fill-opacity:1;fill-rule:nonzero;stroke:none;stroke-width:0.03527778"
       id="path424"
       inkscape:connector-curvature="0" />
    <path
       d="m 76.960937,134.43217 c 0,1.19414 -0.377178,2.16228 -0.841397,2.16228 v 0 c -0.464219,0 -0.83987,-0.96814 -0.83987,-2.16228 v -12.61942 c 0,-1.19567 0.375651,-2.16839 0.83987,-2.16839 v 0 c 0.464219,0 0.841397,0.97272 0.841397,2.16839 v 12.61942"
       style="fill:#63bfe2;fill-opacity:1;fill-rule:nonzero;stroke:none;stroke-width:0.03527778"
       id="path426"
       inkscape:connector-curvature="0" />
    <path
       d="m 101.64242,160.31238 c 0,1.19567 -0.37718,2.16686 -0.83987,2.16686 v 0 c -0.46422,0 -0.8414,-0.97119 -0.8414,-2.16686 v -12.61026 c 0,-1.20178 0.37718,-2.17451 0.8414,-2.17451 v 0 c 0.46269,0 0.83987,0.97273 0.83987,2.17451 v 12.61026"
       style="fill:#63bfe2;fill-opacity:1;fill-rule:nonzero;stroke:none;stroke-width:0.03527778"
       id="path428"
       inkscape:connector-curvature="0" />
    <path
       d="m 105.16834,220.2974 c 0,1.19567 -0.37717,2.16687 -0.83987,2.16687 v 0 c -0.46422,0 -0.84139,-0.9712 -0.84139,-2.16687 v -12.61179 c 0,-1.19873 0.37717,-2.1745 0.84139,-2.1745 v 0 c 0.4627,0 0.83987,0.97577 0.83987,2.1745 v 12.61179"
       style="fill:#63bfe2;fill-opacity:1;fill-rule:nonzero;stroke:none;stroke-width:0.03527778"
       id="path430"
       inkscape:connector-curvature="0" />
    <path
       d="m 75.739308,249.87151 c 0,1.19567 -0.377178,2.16839 -0.838343,2.16839 v 0 c -0.465746,0 -0.842923,-0.97272 -0.842923,-2.16839 v -12.61027 c 0,-1.20025 0.377177,-2.1745 0.842923,-2.1745 v 0 c 0.461165,0 0.838343,0.97425 0.838343,2.1745 v 12.61027"
       style="fill:#63bfe2;fill-opacity:1;fill-rule:nonzero;stroke:none;stroke-width:0.03527778"
       id="path432"
       inkscape:connector-curvature="0" />
    <g
       id="g434"
       transform="matrix(0.01822059,0,0,-0.01822059,-119.2647,335.03277)"
       style="stroke-width:2.31021285">
      <path
         d="m 16300,13218.6 c 0,-65.8 -20.5,-119 -46.1,-119 v 0 c -25.5,0 -46.1,53.2 -46.1,119 v 692.1 c 0,65.9 20.6,119.2 46.1,119.2 v 0 c 25.6,0 46.1,-53.3 46.1,-119.2 v -692.1"
         style="fill:#63bfe2;fill-opacity:1;fill-rule:nonzero;stroke:none;stroke-width:2.31021285"
         id="path436"
         inkscape:connector-curvature="0" />
    </g>
    <g
       id="g438"
       transform="matrix(0.01690902,0,0,-0.01690902,-119.2647,335.03277)"
       style="stroke-width:2.31021285">
      <path
         d="m 16300,12762.9 c 0,-70.9 -22.1,-128.3 -49.7,-128.3 v 0 c -27.4,0 -49.6,57.4 -49.6,128.3 v 745.7 c 0,71 22.2,128.5 49.6,128.5 v 0 c 27.6,0 49.7,-57.5 49.7,-128.5 v -745.7"
         style="fill:#63bfe2;fill-opacity:1;fill-rule:nonzero;stroke:none;stroke-width:2.31021285"
         id="path440"
         inkscape:connector-curvature="0" />
    </g>
    <g
       id="g442"
       transform="matrix(0.01823938,0,0,-0.01823938,-119.2647,335.03277)"
       style="stroke-width:2.31021285">
      <path
         d="m 16300,10911 c 0,-65.7 -20.5,-118.8 -46,-118.8 v 0 c -25.5,0 -46.1,53.1 -46.1,118.8 v 691.4 c 0,65.8 20.6,119.1 46.1,119.1 v 0 c 25.5,0 46,-53.3 46,-119.1 V 10911"
         style="fill:#63bfe2;fill-opacity:1;fill-rule:nonzero;stroke:none;stroke-width:2.31021285"
         id="path444"
         inkscape:connector-curvature="0" />
    </g>
    <g
       id="g446"
       transform="matrix(0.01934556,0,0,-0.01934556,-119.2647,335.03277)"
       style="stroke-width:2.31021285">
      <path
         d="m 16300,8680.44 c 0,-61.96 -19.3,-112.09 -43.3,-112.09 v 0 c -24,0 -43.5,50.13 -43.5,112.09 v 651.84 c 0,62.05 19.5,112.25 43.5,112.25 v 0 c 24,0 43.3,-50.2 43.3,-112.25 v -651.84"
         style="fill:#63bfe2;fill-opacity:1;fill-rule:nonzero;stroke:none;stroke-width:2.31021285"
         id="path448"
         inkscape:connector-curvature="0" />
    </g>
    <g
       id="g450"
       transform="matrix(0.0179216,0,0,-0.0179216,-119.2647,335.03277)"
       style="stroke-width:2.31021285">
      <path
         d="m 16300,6967.33 c 0,-66.88 -20.8,-120.99 -46.8,-120.99 v 0 c -25.9,0 -46.9,54.11 -46.9,120.99 v 703.64 c 0,66.97 21,121.16 46.9,121.16 v 0 c 26,0 46.8,-54.19 46.8,-121.16 v -703.64"
         style="fill:#63bfe2;fill-opacity:1;fill-rule:nonzero;stroke:none;stroke-width:2.31021285"
         id="path452"
         inkscape:connector-curvature="0" />
    </g>
    <g
       id="g454"
       transform="matrix(0.01912826,0,0,-0.01912826,-119.2647,335.03277)"
       style="stroke-width:2.31021285">
      <path
         d="m 16300,5169.97 c 0,-62.35 -19.6,-113.2 -44,-113.2 v 0 c -24.3,0 -43.9,50.85 -43.9,113.2 v 659.57 c 0,62.51 19.6,113.36 43.9,113.36 v 0 c 24.4,0 44,-50.85 44,-113.36 v -659.57"
         style="fill:#63bfe2;fill-opacity:1;fill-rule:nonzero;stroke:none;stroke-width:2.31021285"
         id="path456"
         inkscape:connector-curvature="0" />
    </g>
    <g
       id="g458"
       transform="matrix(0.01542474,0,0,-0.01542474,-119.2647,335.03277)"
       style="stroke-width:2.31021285">
      <path
         d="m 12355.1,15341.9 c 0,-77.7 24.4,-140.5 54.4,-140.5 v 0 c 30.2,0 54.6,62.8 54.6,140.5 v 817.8 c 0,77.5 -24.4,140.3 -54.6,140.3 v 0 c -30,0 -54.4,-62.8 -54.4,-140.3 v -817.8"
         style="fill:#63bfe2;fill-opacity:1;fill-rule:nonzero;stroke:none;stroke-width:2.31021285"
         id="path460"
         inkscape:connector-curvature="0" />
    </g>
    <g
       id="g462"
       transform="matrix(0.01591202,0,0,-0.01591202,-119.2647,335.03277)"
       style="stroke-width:2.31021285">
      <path
         d="m 13128.4,15371.2 c 0,-75.4 23.6,-136.2 52.7,-136.2 v 0 c 29.3,0 52.9,60.8 52.9,136.2 v 792.5 c 0,75.5 -23.6,136.3 -52.9,136.3 v 0 c -29.1,0 -52.7,-60.8 -52.7,-136.3 v -792.5"
         style="fill:#63bfe2;fill-opacity:1;fill-rule:nonzero;stroke:none;stroke-width:2.31021285"
         id="path464"
         inkscape:connector-curvature="0" />
    </g>
    <path
       d="m 103.68254,117.62715 c 0,1.19872 0.37565,2.16838 0.83987,2.16838 v 0 c 0.46574,0 0.84139,-0.96966 0.84139,-2.16838 v -12.61027 c 0,-1.20025 -0.37565,-2.16839 -0.84139,-2.16839 v 0 c -0.46422,0 -0.83987,0.96814 -0.83987,2.16839 v 12.61027"
       style="fill:#63bfe2;fill-opacity:1;fill-rule:nonzero;stroke:none;stroke-width:0.03527778"
       id="path466"
       inkscape:connector-curvature="0" />
    <path
       d="m 127.50429,102.35679 c 0,1.19872 0.37566,2.16839 0.83987,2.16839 v 0 c 0.46575,0 0.8414,-0.96967 0.8414,-2.16839 V 89.746518 c 0,-1.20025 -0.37565,-2.16839 -0.8414,-2.16839 v 0 c -0.46421,0 -0.83987,0.96814 -0.83987,2.16839 v 12.610272"
       style="fill:#63bfe2;fill-opacity:1;fill-rule:nonzero;stroke:none;stroke-width:0.03527778"
       id="path468"
       inkscape:connector-curvature="0" />
    <g
       id="g470"
       transform="matrix(0.01654879,0,0,-0.01654879,-119.2647,335.03277)"
       style="stroke-width:2.31021285">
      <path
         d="m 13983,15406.7 c 0,-72.4 22.6,-131 50.7,-131 v 0 c 28,0 50.8,58.6 50.8,131 v 762 c 0,72.6 -22.8,131.3 -50.8,131.3 v 0 c -28.1,0 -50.7,-58.7 -50.7,-131.3 v -762"
         style="fill:#63bfe2;fill-opacity:1;fill-rule:nonzero;stroke:none;stroke-width:2.31021285"
         id="path472"
         inkscape:connector-curvature="0" />
    </g>
    <g
       id="g474"
       transform="matrix(0.01648084,0,0,-0.01648084,-119.2647,335.03277)"
       style="stroke-width:2.31021285">
      <path
         d="m 15870.6,15402.7 c 0,-72.4 22.9,-131.1 50.9,-131.1 v 0 c 28.3,0 51,58.7 51,131.1 v 765.8 c 0,72.5 -22.7,131.5 -51,131.5 v 0 c -28,0 -50.9,-59 -50.9,-131.5 v -765.8"
         style="fill:#63bfe2;fill-opacity:1;fill-rule:nonzero;stroke:none;stroke-width:2.31021285"
         id="path476"
         inkscape:connector-curvature="0" />
    </g>
    <g
       id="g478"
       transform="matrix(0.01942069,0,0,-0.01942069,-119.2647,335.03277)"
       style="stroke-width:2.31021285">
      <path
         d="m 16213.4,10864.3 c 0,-61.7 19.4,-111.6 43.3,-111.6 v 0 c 24,0 43.3,49.9 43.3,111.6 v 649.4 c 0,61.8 -19.3,111.6 -43.3,111.6 v 0 c -23.9,0 -43.3,-49.8 -43.3,-111.6 v -649.4"
         style="fill:#63bfe2;fill-opacity:1;fill-rule:nonzero;stroke:none;stroke-width:2.31021285"
         id="path480"
         inkscape:connector-curvature="0" />
    </g>
    <g
       id="g482"
       transform="matrix(0.0172045,0,0,-0.0172045,-119.2647,335.03277)"
       style="stroke-width:2.31021285">
      <path
         d="m 16300,5748.43 c 0,-69.68 -21.9,-125.95 -48.9,-125.95 v 0 c -27.1,0 -48.7,56.27 -48.7,125.95 v 733.14 c 0,69.58 21.6,126.21 48.7,126.21 v 0 c 27,0 48.9,-56.63 48.9,-126.21 v -733.14"
         style="fill:#63bfe2;fill-opacity:1;fill-rule:nonzero;stroke:none;stroke-width:2.31021285"
         id="path484"
         inkscape:connector-curvature="0" />
    </g>
    <g
       id="g486"
       transform="matrix(0.01809034,0,0,-0.01809034,-119.2647,335.03277)"
       style="stroke-width:2.31021285">
      <path
         d="m 16300,4353.03 c 0,-66.35 -20.9,-119.86 -46.6,-119.86 v 0 c -25.7,0 -46.3,53.51 -46.3,119.86 v 697.24 c 0,66.1 20.6,120.04 46.3,120.04 v 0 c 25.7,0 46.6,-53.94 46.6,-120.04 v -697.24"
         style="fill:#63bfe2;fill-opacity:1;fill-rule:nonzero;stroke:none;stroke-width:2.31021285"
         id="path488"
         inkscape:connector-curvature="0" />
    </g>
    <path
       d="m 103.22595,251.09466 c 0,1.19872 -0.37717,2.16687 -0.84139,2.16687 v 0 c -0.46575,0 -0.83987,-0.96815 -0.83987,-2.16687 v -12.61484 c 0,-1.19567 0.37412,-2.17145 0.83987,-2.17145 v 0 c 0.46422,0 0.84139,0.97578 0.84139,2.17145 v 12.61484"
       style="fill:#63bfe2;fill-opacity:1;fill-rule:nonzero;stroke:none;stroke-width:0.03527778"
       id="path490"
       inkscape:connector-curvature="0" />
    <g
       id="g492"
       transform="matrix(0.01870161,0,0,-0.01870161,-119.2647,335.03277)"
       style="stroke-width:2.31021285">
      <path
         d="m 16300,7704.75 c 0,-64.18 -20.2,-115.95 -45,-115.95 v 0 c -24.9,0 -44.9,51.77 -44.9,115.95 v 674.45 c 0,63.93 20,116.11 44.9,116.11 v 0 c 24.8,0 45,-52.18 45,-116.11 v -674.45"
         style="fill:#63bfe2;fill-opacity:1;fill-rule:nonzero;stroke:none;stroke-width:2.31021285"
         id="path494"
         inkscape:connector-curvature="0" />
    </g>
    <g
       id="g496"
       transform="matrix(0.0190597,0,0,-0.0190597,-119.2647,335.03277)"
       style="stroke-width:2.31021285">
      <path
         d="m 13078.4,3881.17 c -266,-16.26 -2352.2,38.3 -2071.3,-252.45 335.5,-347.31 1475.7,-132.36 1228.7,-378.88 -183,-182.43 963,-229.46 1701.3,-189.32 692.7,37.66 2362.9,366.14 1965.9,523.97 -169.3,67.3 -2125.4,-114.72 -1764.3,134.12 208.8,143.82 -501.4,196.69 -1060.3,162.56"
         style="fill:#63bfe2;fill-opacity:1;fill-rule:nonzero;stroke:none;stroke-width:2.31021285"
         id="path498"
         inkscape:connector-curvature="0" />
    </g>
    <path
       d="m 110.3511,266.10236 c 0,-0.23821 0.29472,-0.42756 0.65663,-0.42909 0.36496,0.003 0.65662,0.18783 0.65968,0.42451 0,0.23212 -0.29472,0.42146 -0.65663,0.423 -0.36496,0 -0.6612,-0.18936 -0.65968,-0.41842"
       style="fill:#ffffff;fill-opacity:1;fill-rule:nonzero;stroke:none;stroke-width:0.03527778"
       id="path500"
       inkscape:connector-curvature="0" />
    <path
       d="m 104.46743,264.96472 c 0,-0.0993 0.16187,-0.17714 0.35428,-0.18018 0.19698,0.003 0.35427,0.0809 0.35732,0.18171 0,0.0993 -0.16034,0.17714 -0.35732,0.17714 -0.19394,0 -0.35428,-0.0779 -0.35428,-0.17867"
       style="fill:#ffffff;fill-opacity:1;fill-rule:nonzero;stroke:none;stroke-width:0.03527778"
       id="path502"
       inkscape:connector-curvature="0" />
    <path
       d="m 116.35693,263.9691 c 0,-0.10078 0.15729,-0.18478 0.35428,-0.18478 0.19546,0.003 0.35274,0.084 0.35274,0.18172 0.003,0.0993 -0.15576,0.17867 -0.35121,0.17714 -0.19852,0.003 -0.35581,-0.0763 -0.35581,-0.17408"
       style="fill:#ffffff;fill-opacity:1;fill-rule:nonzero;stroke:none;stroke-width:0.03527778"
       id="path504"
       inkscape:connector-curvature="0" />
    <path
       d="m 95.966425,266.64599 c 0,-0.17866 0.218366,-0.32068 0.488651,-0.32068 0.268759,0 0.488652,0.13896 0.488652,0.32068 0,0.17714 -0.219893,0.31915 -0.488652,0.31915 -0.267231,10e-4 -0.488651,-0.14201 -0.488651,-0.31915"
       style="fill:#ffffff;fill-opacity:1;fill-rule:nonzero;stroke:none;stroke-width:0.03527778"
       id="path506"
       inkscape:connector-curvature="0" />
    <path
       d="m 100.84836,264.38292 c 0,-0.18476 0.226,-0.33136 0.50697,-0.33136 0.2764,0.001 0.50393,0.1466 0.50393,0.32984 0,0.18324 -0.22601,0.32831 -0.50545,0.33136 -0.27945,0 -0.50392,-0.14659 -0.50545,-0.32984"
       style="fill:#ffffff;fill-opacity:1;fill-rule:nonzero;stroke:none;stroke-width:0.03527778"
       id="path508"
       inkscape:connector-curvature="0" />
    <path
       d="m 107.22221,265.61066 c 0,-0.20767 0.29471,-0.37413 0.66578,-0.37565 0.36191,0 0.66121,0.16798 0.66121,0.37413 -0.002,0.20461 -0.2993,0.37411 -0.66121,0.37259 -0.36954,0.003 -0.66578,-0.1634 -0.66578,-0.37107"
       style="fill:#ffffff;fill-opacity:1;fill-rule:nonzero;stroke:none;stroke-width:0.03527778"
       id="path510"
       inkscape:connector-curvature="0" />
    <path
       d="m 112.14995,265.19226 c 0,-0.15882 0.21684,-0.28861 0.49171,-0.29015 0.2657,0.001 0.48407,0.12981 0.48407,0.29319 0,0.16034 -0.21837,0.29167 -0.48407,0.29167 -0.27487,-10e-4 -0.49171,-0.12827 -0.49171,-0.29471"
       style="fill:#ffffff;fill-opacity:1;fill-rule:nonzero;stroke:none;stroke-width:0.03527778"
       id="path512"
       inkscape:connector-curvature="0" />
    <path
       d="m 113.21735,266.90864 c 0,-0.16797 0.21836,-0.29777 0.48865,-0.29472 0.27029,-0.005 0.49018,0.12675 0.48712,0.28861 0.003,0.1634 -0.21683,0.29625 -0.48406,0.29625 -0.27182,0 -0.49018,-0.13285 -0.49171,-0.29014"
       style="fill:#ffffff;fill-opacity:1;fill-rule:nonzero;stroke:none;stroke-width:0.03527778"
       id="path514"
       inkscape:connector-curvature="0" />
    <path
       d="m 102.38761,265.87331 c 0,-0.18325 0.21837,-0.33747 0.48712,-0.339 0.26876,0 0.48866,0.15423 0.49018,0.33747 0,0.18631 -0.21989,0.33901 -0.49018,0.33901 -0.26723,0 -0.48865,-0.15118 -0.48712,-0.33748"
       style="fill:#ffffff;fill-opacity:1;fill-rule:nonzero;stroke:none;stroke-width:0.03527778"
       id="path516"
       inkscape:connector-curvature="0" />
    <path
       d="m 119.67824,266.07946 c -0.003,-0.18477 0.21836,-0.33442 0.48865,-0.33595 0.26876,0 0.48865,0.14966 0.48712,0.33748 0,0.18935 -0.21836,0.33442 -0.48712,0.33595 -0.27029,0 -0.49018,-0.14812 -0.48865,-0.33748"
       style="fill:#ffffff;fill-opacity:1;fill-rule:nonzero;stroke:none;stroke-width:0.03527778"
       id="path518"
       inkscape:connector-curvature="0" />
    <path
       d="m 115.71405,266.56659 c 0,-0.18478 0.21684,-0.33442 0.48713,-0.339 0.27028,0.005 0.48712,0.1527 0.48712,0.339 0,0.18477 -0.21531,0.33594 -0.48712,0.33594 -0.27029,0 -0.49018,-0.14965 -0.48713,-0.33594"
       style="fill:#ffffff;fill-opacity:1;fill-rule:nonzero;stroke:none;stroke-width:0.03527778"
       id="path520"
       inkscape:connector-curvature="0" />
    <path
       d="m 99.663378,266.09778 c 0.0015,-0.16186 0.219894,-0.29013 0.488652,-0.29013 0.27029,0.003 0.48865,0.12827 0.49171,0.29167 -0.003,0.15575 -0.2199,0.28555 -0.49171,0.28555 -0.271812,0.001 -0.487124,-0.12827 -0.488652,-0.28709"
       style="fill:#ffffff;fill-opacity:1;fill-rule:nonzero;stroke:none;stroke-width:0.03527778"
       id="path522"
       inkscape:connector-curvature="0" />
    <path
       d="m 106.77479,263.6133 c 0,-0.13896 0.21683,-0.24891 0.48712,-0.24891 0.27028,-0.003 0.48865,0.11147 0.49018,0.24891 -0.003,0.13895 -0.2199,0.25196 -0.49018,0.25348 -0.26876,-0.001 -0.4856,-0.11453 -0.48712,-0.25348"
       style="fill:#ffffff;fill-opacity:1;fill-rule:nonzero;stroke:none;stroke-width:0.03527778"
       id="path524"
       inkscape:connector-curvature="0" />
    <path
       d="m 108.93707,264.01643 c 0,-0.12216 0.16034,-0.21837 0.35427,-0.21837 0.19851,0 0.35733,0.0977 0.35733,0.21837 0,0.12217 -0.15882,0.22296 -0.35428,0.22296 -0.19698,10e-4 -0.35732,-0.0993 -0.35732,-0.22296"
       style="fill:#ffffff;fill-opacity:1;fill-rule:nonzero;stroke:none;stroke-width:0.03527778"
       id="path526"
       inkscape:connector-curvature="0" />
    <path
       d="m 114.17327,264.2684 c 0,-0.12522 0.15729,-0.22142 0.3558,-0.22142 0.19394,0 0.35428,0.0962 0.35428,0.22142 0,0.12063 -0.15729,0.21989 -0.35428,0.22141 -0.19851,0 -0.3558,-0.0992 -0.3558,-0.22141"
       style="fill:#ffffff;fill-opacity:1;fill-rule:nonzero;stroke:none;stroke-width:0.03527778"
       id="path528"
       inkscape:connector-curvature="0" />
    <path
       d="m 119.76375,264.68222 c -0.002,-0.12369 0.15576,-0.22142 0.35275,-0.22448 0.19699,0 0.35274,0.10079 0.35427,0.22448 -0.002,0.11911 -0.15576,0.21837 -0.35427,0.21837 -0.19546,0 -0.35275,-0.0977 -0.35275,-0.21837"
       style="fill:#ffffff;fill-opacity:1;fill-rule:nonzero;stroke:none;stroke-width:0.03527778"
       id="path530"
       inkscape:connector-curvature="0" />
    <path
       d="m 124.2792,265.18309 c -0.002,-0.12369 0.15575,-0.22295 0.35427,-0.22295 0.19699,0 0.3558,0.0977 0.3558,0.2199 0,0.12369 -0.16034,0.22295 -0.3558,0.22295 -0.19394,0.001 -0.35275,-0.0993 -0.35427,-0.2199"
       style="fill:#ffffff;fill-opacity:1;fill-rule:nonzero;stroke:none;stroke-width:0.03527778"
       id="path532"
       inkscape:connector-curvature="0" />
    <path
       d="m 110.78478,263.4667 c 0.003,-0.13132 0.17408,-0.23974 0.38634,-0.23822 0.21226,0 0.38481,0.1069 0.38481,0.23822 0,0.1298 -0.17102,0.23822 -0.38481,0.2367 -0.21073,0.003 -0.38329,-0.10537 -0.38634,-0.2367"
       style="fill:#ffffff;fill-opacity:1;fill-rule:nonzero;stroke:none;stroke-width:0.03527778"
       id="path534"
       inkscape:connector-curvature="0" />
    <path
       d="m 109.8655,267.98215 c 0,-0.20768 0.33137,-0.37719 0.74062,-0.37719 0.40314,0 0.73145,0.16951 0.7345,0.37719 -0.003,0.20767 -0.33136,0.38023 -0.7345,0.38176 -0.41078,0.001 -0.73756,-0.17103 -0.74062,-0.38176"
       style="fill:#ffffff;fill-opacity:1;fill-rule:nonzero;stroke:none;stroke-width:0.03527778"
       id="path536"
       inkscape:connector-curvature="0" />
    <path
       d="m 104.9851,266.99873 c 0,-0.18782 0.25807,-0.34205 0.57569,-0.34052 0.31457,-10e-4 0.57111,0.1527 0.57111,0.34052 0,0.18936 -0.25654,0.34359 -0.57264,0.34359 -0.31609,0 -0.57263,-0.15423 -0.57416,-0.34359"
       style="fill:#ffffff;fill-opacity:1;fill-rule:nonzero;stroke:none;stroke-width:0.03527778"
       id="path538"
       inkscape:connector-curvature="0" />
    <path
       d="m 116.27906,265.28082 c -0.003,-0.19088 0.25654,-0.34206 0.57263,-0.34206 0.3161,-0.003 0.57111,0.15118 0.57417,0.34054 0,0.18935 -0.25654,0.34052 -0.57264,0.34358 -0.31762,-0.003 -0.57416,-0.15423 -0.57416,-0.34206"
       style="fill:#ffffff;fill-opacity:1;fill-rule:nonzero;stroke:none;stroke-width:0.03527778"
       id="path540"
       inkscape:connector-curvature="0" />
    <g
       id="g542"
       transform="matrix(0.01686535,0,0,-0.01686535,-119.2647,335.03277)"
       style="stroke-width:2.31021285">
      <path
         d="m 16205.4,3837.19 c 0,15.39 21.4,27.89 47.3,27.89 26.4,-0.18 47.3,-12.5 47.3,-27.89 0,-15.3 -21,-27.8 -47.2,-27.8 -26.2,0 -47.4,12.41 -47.4,27.8"
         style="fill:#ffffff;fill-opacity:1;fill-rule:nonzero;stroke:none;stroke-width:2.31021285"
         id="path544"
         inkscape:connector-curvature="0" />
    </g>
    <g
       id="g546"
       transform="matrix(0.0163825,0,0,-0.0163825,-119.2647,335.03277)"
       style="stroke-width:2.31021285">
      <path
         d="m 16247.3,4027.46 c 0.2,6.71 12.1,12.03 26.3,12.31 14.7,-0.28 26.1,-5.6 26.4,-12.21 0,-6.72 -11.7,-12.12 -26.3,-12.12 -14.5,0 -26.3,5.4 -26.4,12.02"
         style="fill:#ffffff;fill-opacity:1;fill-rule:nonzero;stroke:none;stroke-width:2.31021285"
         id="path548"
         inkscape:connector-curvature="0" />
    </g>
    <g
       id="g550"
       transform="matrix(0.01726772,0,0,-0.01726772,-119.2647,335.03277)"
       style="stroke-width:2.31021285">
      <path
         d="m 16250.2,3883.72 c 0.1,6.54 11.2,11.76 25,11.58 13.7,0 24.7,-5.13 24.7,-11.58 0.1,-6.46 -11,-11.5 -24.7,-11.32 -13.9,-0.26 -25,4.95 -25,11.32"
         style="fill:#ffffff;fill-opacity:1;fill-rule:nonzero;stroke:none;stroke-width:2.31021285"
         id="path552"
         inkscape:connector-curvature="0" />
    </g>
    <g
       id="g554"
       transform="matrix(0.01576924,0,0,-0.01576924,-119.2647,335.03277)"
       style="stroke-width:2.31021285">
      <path
         d="m 16224.8,4067.3 c 0,12.4 16.8,22.66 37.6,22.37 20.8,0.1 37.5,-9.68 37.6,-22.46 0,-12.21 -16.9,-22.47 -37.6,-22.28 -20.7,-0.19 -37.6,9.98 -37.6,22.37"
         style="fill:#ffffff;fill-opacity:1;fill-rule:nonzero;stroke:none;stroke-width:2.31021285"
         id="path556"
         inkscape:connector-curvature="0" />
    </g>
    <g
       id="g558"
       transform="matrix(0.01613558,0,0,-0.01613558,-119.2647,335.03277)"
       style="stroke-width:2.31021285">
      <path
         d="m 16223.7,4129.51 c 0.2,12.68 17.3,22.9 38.3,22.9 20.9,-0.19 38,-10.4 37.9,-22.9 0,-12.49 -17.1,-22.43 -38.1,-22.52 -20.9,0 -37.8,10.03 -38.1,22.52"
         style="fill:#ffffff;fill-opacity:1;fill-rule:nonzero;stroke:none;stroke-width:2.31021285"
         id="path560"
         inkscape:connector-curvature="0" />
    </g>
    <g
       id="g562"
       transform="matrix(0.01663355,0,0,-0.01663355,-119.2647,335.03277)"
       style="stroke-width:2.31021285">
      <path
         d="m 16203.1,3923.55 c 0,13.86 21.7,24.78 48.5,24.88 26.6,0 48.3,-11.3 48.4,-24.98 -0.1,-13.58 -21.8,-24.97 -48.6,-24.69 -26.6,-0.09 -48.3,11.11 -48.3,24.79"
         style="fill:#ffffff;fill-opacity:1;fill-rule:nonzero;stroke:none;stroke-width:2.31021285"
         id="path564"
         inkscape:connector-curvature="0" />
    </g>
    <g
       id="g566"
       transform="matrix(0.01697453,0,0,-0.01697453,-119.2647,335.03277)"
       style="stroke-width:2.31021285">
      <path
         d="m 16230,3871.38 c 0,10.34 15.7,18.88 35.1,18.98 19.1,-0.18 34.9,-8.55 34.7,-19.17 0,-10.61 -15.6,-19.16 -34.8,-19.16 -19.3,0.18 -35,8.55 -35,19.35"
         style="fill:#ffffff;fill-opacity:1;fill-rule:nonzero;stroke:none;stroke-width:2.31021285"
         id="path568"
         inkscape:connector-curvature="0" />
    </g>
    <g
       id="g570"
       transform="matrix(0.01705348,0,0,-0.01705348,-119.2647,335.03277)"
       style="stroke-width:2.31021285">
      <path
         d="m 16230.6,3742.12 c -0.1,10.66 15.6,19.08 34.7,18.98 19.3,0.1 34.7,-8.41 34.7,-18.89 0,-10.65 -15.4,-19.16 -34.7,-19.07 -19.2,-0.09 -34.7,8.42 -34.7,18.98"
         style="fill:#ffffff;fill-opacity:1;fill-rule:nonzero;stroke:none;stroke-width:2.31021285"
         id="path572"
         inkscape:connector-curvature="0" />
    </g>
    <g
       id="g574"
       transform="matrix(0.01624736,0,0,-0.01624736,-119.2647,335.03277)"
       style="stroke-width:2.31021285">
      <path
         d="m 16227.2,3999.51 c 0,12.69 16.2,22.83 36.3,23.12 20.1,-0.29 36.5,-10.43 36.5,-23.12 0,-12.79 -16.4,-23.22 -36.5,-23.22 -20.2,0.09 -36.6,10.62 -36.3,23.22"
         style="fill:#ffffff;fill-opacity:1;fill-rule:nonzero;stroke:none;stroke-width:2.31021285"
         id="path576"
         inkscape:connector-curvature="0" />
    </g>
    <g
       id="g578"
       transform="matrix(0.01753465,0,0,-0.01753465,-119.2647,335.03277)"
       style="stroke-width:2.31021285">
      <path
         d="m 16232.5,3690.9 c -0.3,11.68 15.1,21.08 33.7,21.17 18.7,0.09 33.8,-9.58 33.8,-21.42 0,-11.68 -15.2,-21.17 -33.8,-21.26 -18.6,0 -34,9.67 -33.7,21.51"
         style="fill:#ffffff;fill-opacity:1;fill-rule:nonzero;stroke:none;stroke-width:2.31021285"
         id="path580"
         inkscape:connector-curvature="0" />
    </g>
    <g
       id="g582"
       transform="matrix(0.01723947,0,0,-0.01723947,-119.2647,335.03277)"
       style="stroke-width:2.31021285">
      <path
         d="m 16231.2,3723.37 c 0,11.78 15.5,21.43 34.5,21.52 18.8,-0.09 34.3,-9.74 34.1,-21.52 0,-12.14 -15.3,-21.79 -34.2,-21.79 -19,0.09 -34.5,9.65 -34.4,21.79"
         style="fill:#ffffff;fill-opacity:1;fill-rule:nonzero;stroke:none;stroke-width:2.31021285"
         id="path584"
         inkscape:connector-curvature="0" />
    </g>
    <g
       id="g586"
       transform="matrix(0.01604472,0,0,-0.01604472,-119.2647,335.03277)"
       style="stroke-width:2.31021285">
      <path
         d="m 16226.1,4034.91 c 0,11.04 16.7,19.98 37.2,19.79 20.1,0 36.6,-8.75 36.7,-19.98 -0.1,-10.85 -16.6,-19.7 -37,-19.8 -20.5,0 -36.7,9.04 -36.9,19.99"
         style="fill:#ffffff;fill-opacity:1;fill-rule:nonzero;stroke:none;stroke-width:2.31021285"
         id="path588"
         inkscape:connector-curvature="0" />
    </g>
    <g
       id="g590"
       transform="matrix(0.0165743,0,0,-0.0165743,-119.2647,335.03277)"
       style="stroke-width:2.31021285">
      <path
         d="m 16228.4,4070.97 c 0,9.3 16,16.77 35.8,16.86 19.8,-0.18 35.7,-7.65 35.8,-16.95 -0.2,-9.31 -16.1,-16.59 -36,-16.77 -19.6,0.09 -35.6,7.65 -35.6,16.86"
         style="fill:#ffffff;fill-opacity:1;fill-rule:nonzero;stroke:none;stroke-width:2.31021285"
         id="path592"
         inkscape:connector-curvature="0" />
    </g>
    <g
       id="g594"
       transform="matrix(0.01671539,0,0,-0.01671539,-119.2647,335.03277)"
       style="stroke-width:2.31021285">
      <path
         d="m 16248.6,4009.66 c 0,8.04 11.4,14.52 25.6,14.43 14.3,0 25.8,-6.67 25.8,-14.43 -0.1,-8.13 -11.5,-14.8 -25.8,-14.8 -14.2,0 -25.7,6.67 -25.6,14.8"
         style="fill:#ffffff;fill-opacity:1;fill-rule:nonzero;stroke:none;stroke-width:2.31021285"
         id="path596"
         inkscape:connector-curvature="0" />
    </g>
    <g
       id="g598"
       transform="matrix(0.0171054,0,0,-0.0171054,-119.2647,335.03277)"
       style="stroke-width:2.31021285">
      <path
         d="m 16249.6,3901.39 c 0,8.03 11.2,14.28 25.1,14.28 13.9,0 25.1,-6.34 25.3,-14.37 0,-7.77 -11.2,-14.28 -25.4,-14.28 -13.9,0.09 -25,6.42 -25,14.37"
         style="fill:#ffffff;fill-opacity:1;fill-rule:nonzero;stroke:none;stroke-width:2.31021285"
         id="path600"
         inkscape:connector-curvature="0" />
    </g>
    <g
       id="g602"
       transform="matrix(0.01752121,0,0,-0.01752121,-119.2647,335.03277)"
       style="stroke-width:2.31021285">
      <path
         d="m 16250.8,3782.19 c 0,7.76 10.9,13.77 24.5,13.86 13.5,0.08 24.7,-6.28 24.5,-14.21 0,-7.5 -10.7,-13.86 -24.5,-13.86 -13.5,0 -24.5,6.45 -24.5,14.21"
         style="fill:#ffffff;fill-opacity:1;fill-rule:nonzero;stroke:none;stroke-width:2.31021285"
         id="path604"
         inkscape:connector-curvature="0" />
    </g>
    <g
       id="g606"
       transform="matrix(0.01785746,0,0,-0.01785746,-119.2647,335.03277)"
       style="stroke-width:2.31021285">
      <path
         d="m 16251.8,3679.25 c -0.2,7.7 10.6,13.77 24,13.77 13.4,0 24.2,-6.16 24.2,-13.77 0,-7.53 -10.9,-13.59 -24.2,-13.59 -13.3,-0.18 -24,6.15 -24,13.59"
         style="fill:#ffffff;fill-opacity:1;fill-rule:nonzero;stroke:none;stroke-width:2.31021285"
         id="path608"
         inkscape:connector-curvature="0" />
    </g>
    <g
       id="g610"
       transform="matrix(0.01685756,0,0,-0.01685756,-119.2647,335.03277)"
       style="stroke-width:2.31021285">
      <path
         d="m 16244.6,4011.62 c 0,8.69 12.5,15.76 27.7,15.76 15.3,0 27.6,-7.07 27.7,-15.68 -0.3,-8.6 -12.5,-15.66 -27.7,-15.58 -15.2,-0.08 -27.7,6.98 -27.7,15.5"
         style="fill:#ffffff;fill-opacity:1;fill-rule:nonzero;stroke:none;stroke-width:2.31021285"
         id="path612"
         inkscape:connector-curvature="0" />
    </g>
    <g
       id="g614"
       transform="matrix(0.01684092,0,0,-0.01684092,-119.2647,335.03277)"
       style="stroke-width:2.31021285">
      <path
         d="m 16193.8,3718.9 c 0,13.78 23.9,24.85 53.2,24.85 29.2,0 52.9,-11.16 53,-25.03 0,-13.51 -23.8,-24.66 -53,-24.84 -29.5,0 -53.1,11.33 -53.2,25.02"
         style="fill:#ffffff;fill-opacity:1;fill-rule:nonzero;stroke:none;stroke-width:2.31021285"
         id="path616"
         inkscape:connector-curvature="0" />
    </g>
    <g
       id="g618"
       transform="matrix(0.01645335,0,0,-0.01645335,-119.2647,335.03277)"
       style="stroke-width:2.31021285">
      <path
         d="m 16215.5,3873.33 c 0,12.62 19,23.01 42.3,22.92 23.4,0 42.2,-10.3 42.2,-23.11 0,-12.53 -18.9,-22.83 -42.4,-22.83 -23.2,-0.1 -42.2,10.3 -42.1,23.02"
         style="fill:#ffffff;fill-opacity:1;fill-rule:nonzero;stroke:none;stroke-width:2.31021285"
         id="path620"
         inkscape:connector-curvature="0" />
    </g>
    <g
       id="g622"
       transform="matrix(0.01729445,0,0,-0.01729445,-119.2647,335.03277)"
       style="stroke-width:2.31021285">
      <path
         d="m 16219.6,3793.66 c -0.2,12.19 18,21.99 40.1,21.99 22.1,0 40.2,-9.98 40.3,-21.99 0,-12 -18.1,-21.89 -40.2,-21.89 -22.4,0.09 -40.2,9.89 -40.2,21.89"
         style="fill:#ffffff;fill-opacity:1;fill-rule:nonzero;stroke:none;stroke-width:2.31021285"
         id="path624"
         inkscape:connector-curvature="0" />
    </g>
    <g
       id="g626"
       transform="matrix(0.01606167,0,0,-0.01606167,-119.2647,335.03277)"
       style="stroke-width:2.31021285">
      <path
         d="m 16244.7,5777.02 c 0,0 47.2,-1021.08 55.3,-1417.82 -2.8,-61.32 -16.9,-151.93 -85.6,-144.42 -77.8,8.56 -73.7,144.99 -73.7,144.99 0,0 -66.4,1147.44 -82.5,1411.83 110.4,10.65 186.5,5.42 186.5,5.42"
         style="fill:#fabd99;fill-opacity:1;fill-rule:nonzero;stroke:none;stroke-width:2.31021285"
         id="path628"
         inkscape:connector-curvature="0" />
    </g>
    <g
       id="g630"
       transform="matrix(0.01599097,0,0,-0.01599097,-119.2647,335.03277)"
       style="stroke-width:2.31021285">
      <path
         d="m 16292,5772.21 8,-121.38 c 0,0 -44.8,132.36 -146,-2.19 -3.9,121.18 2.6,154.03 2.6,154.03 l 135.4,-30.46"
         style="fill:#eaa376;fill-opacity:1;fill-rule:nonzero;stroke:none;stroke-width:2.31021285"
         id="path632"
         inkscape:connector-curvature="0" />
    </g>
    <g
       id="g634"
       transform="matrix(0.01657857,0,0,-0.01657857,-119.2647,335.03277)"
       style="stroke-width:2.31021285">
      <path
         d="m 15629.4,4428.58 c -45.4,-25.79 4.8,-154.92 -4.2,-292.17 134.4,-99.75 449.1,-120.84 588.1,-76.17 86.7,78.29 67,298.52 -101.8,362.72 -113.7,43.39 -195.9,-38.13 -231.1,-69.81 -22.5,14 -81,35.09 -81,35.09 0,0 13.8,51.12 -11,56.46 -26.7,-23.76 -77.8,-39.79 -159,-16.12"
         style="fill:#9b3138;fill-opacity:1;fill-rule:nonzero;stroke:none;stroke-width:2.31021285"
         id="path636"
         inkscape:connector-curvature="0" />
    </g>
    <g
       id="g638"
       transform="matrix(0.01654482,0,0,-0.01654482,-119.2647,335.03277)"
       style="stroke-width:2.31021285">
      <path
         d="m 15814.2,4425.91 c -19.4,-15.87 -85.2,-69.31 -82.4,-143.7 132.5,-98.39 480.6,-131.16 512.6,48.09 17.1,-24.65 1.6,1.84 2.4,2.39 53.2,-93.77 41.8,-218.28 -16.2,-270.61 -137.1,-44.03 -432.3,-10.89 -565,87.5 27.9,122.66 -26.9,233.88 8.8,265.26 84.9,-30.37 139.8,11.07 139.8,11.07"
         style="fill:#89282f;fill-opacity:1;fill-rule:nonzero;stroke:none;stroke-width:2.31021285"
         id="path640"
         inkscape:connector-curvature="0" />
    </g>
    <g
       id="g642"
       transform="matrix(0.01656773,0,0,-0.01656773,-119.2647,335.03277)"
       style="stroke-width:2.31021285">
      <path
         d="m 15634.2,4207.63 c 67.8,-29.49 262.4,-136.13 638.3,-56.77 27.5,-26.64 3.2,-97.33 -21,-112.64 -79.7,-28.11 -297.3,-88.02 -620.4,62.31 -29.9,22.31 -17.6,98.16 3.1,107.1"
         style="fill:#ebe6e5;fill-opacity:1;fill-rule:nonzero;stroke:none;stroke-width:2.31021285"
         id="path644"
         inkscape:connector-curvature="0" />
    </g>
    <g
       id="g646"
       transform="matrix(0.0165439,0,0,-0.0165439,-119.2647,335.03277)"
       style="stroke-width:2.31021285">
      <path
         d="m 15659.3,4208.49 c 3.2,-2.58 13.2,-6 18.6,-8.95 -1.3,-18.65 -10.2,-31.48 1.6,-39.97 323.6,-150.82 613.3,-62.11 613.3,-62.11 0,0 3,2.21 7.2,6.45 -6.1,-40.15 -33.2,-59.53 -33.2,-59.53 0,0 -282.7,-81.23 -606.2,69.5 -30,22.34 -1.3,94.61 -1.3,94.61"
         style="fill:#d8d3d1;fill-opacity:1;fill-rule:nonzero;stroke:none;stroke-width:2.31021285"
         id="path648"
         inkscape:connector-curvature="0" />
    </g>
    <g
       id="g650"
       transform="matrix(0.01611695,0,0,-0.01611695,-119.2647,335.03277)"
       style="stroke-width:2.31021285">
      <path
         d="m 16184,4449.92 c 3.3,0.47 6.4,2.37 8.3,5.4 37.4,63.95 88,37.42 89.9,36.38 5.3,-3.03 12,-0.95 15,4.46 2.8,5.39 0.8,12.03 -4.5,14.96 -0.8,0.38 -71.5,37.62 -119.4,-44.62 -3.3,-5.31 -1.5,-12.23 3.9,-15.26 2.1,-1.23 4.6,-1.51 6.8,-1.32"
         style="fill:#eadedd;fill-opacity:1;fill-rule:nonzero;stroke:none;stroke-width:2.31021285"
         id="path652"
         inkscape:connector-curvature="0" />
    </g>
    <g
       id="g654"
       transform="matrix(0.0161791,0,0,-0.0161791,-119.2647,335.03277)"
       style="stroke-width:2.31021285">
      <path
         d="m 16238.1,4379.2 c 2.4,2.45 3.7,5.76 3.3,9.25 -9.8,73.05 46.1,83.15 48.5,83.62 5.9,0.85 10.1,6.61 9.1,12.55 -1,6.05 -6.8,10.1 -12.7,9.07 -0.8,-0.1 -79.4,-13.97 -66.9,-107.98 0.8,-6.23 6.5,-10.29 12.5,-9.63 2.4,0.38 4.7,1.51 6.2,3.12"
         style="fill:#eadedd;fill-opacity:1;fill-rule:nonzero;stroke:none;stroke-width:2.31021285"
         id="path656"
         inkscape:connector-curvature="0" />
    </g>
    <path
       d="m 126.3407,209.31649 c 0,0 -2.86473,9.6585 -4.08941,18.51073 0.25807,0.19393 1.25675,2.2203 0.67648,2.47838 -0.57875,0.25654 -0.96509,-0.86737 -0.96509,-0.86737 0,0 -0.0153,0.69023 0.0962,2.39746 0,0.61081 -0.70702,0.62607 -0.85208,0.30387 -0.22448,0.70855 -0.85209,0.61387 -0.94829,0.1634 -0.45048,0 -0.82155,-0.25807 -0.78948,-0.96661 -0.91775,0.2092 -0.2092,-2.35011 1.12543,-3.86341 0.51613,-2.99605 0.91774,-5.66683 3.55799,-18.09232 1.09183,0.32374 2.18824,-0.0641 2.18824,-0.0641"
       style="fill:#fabd99;fill-opacity:1;fill-rule:nonzero;stroke:none;stroke-width:0.03527778"
       id="path658"
       inkscape:connector-curvature="0" />
    <path
       d="m 124.05167,211.06341 c 0,0 -0.14965,0.89943 -0.34969,1.59729 0.8475,-0.99869 1.34684,-0.40008 1.39723,0.64593 0.29931,-1.39571 0.29931,-1.84466 0.29931,-1.84466 l -1.34685,-0.39856"
       style="fill:#eaa376;fill-opacity:1;fill-rule:nonzero;stroke:none;stroke-width:0.03527778"
       id="path660"
       inkscape:connector-curvature="0" />
    <path
       d="m 120.25851,232.39916 c -0.0458,0 -0.087,-0.0336 -0.0947,-0.0794 -0.19546,-1.10863 0.25655,-2.27375 0.2764,-2.32414 0.0214,-0.0473 0.0794,-0.0702 0.12521,-0.0534 0.0504,0.0199 0.0748,0.0763 0.055,0.12674 -0.005,0.0106 -0.452,1.16361 -0.26723,2.21726 0.009,0.0519 -0.026,0.10231 -0.0794,0.11147 -0.003,0 -0.0107,10e-4 -0.0153,10e-4"
       style="fill:#eaa376;fill-opacity:1;fill-rule:nonzero;stroke:none;stroke-width:0.03527778"
       id="path662"
       inkscape:connector-curvature="0" />
    <path
       d="m 119.46903,231.43408 c -0.0519,0 -0.0932,-0.0413 -0.0977,-0.0916 -0.0489,-0.73908 0.33136,-1.55757 0.34816,-1.5927 0.0229,-0.0489 0.0809,-0.0687 0.12827,-0.0458 0.0473,0.0214 0.0687,0.0779 0.0458,0.12827 -0.003,0.008 -0.37412,0.80781 -0.32831,1.4965 0.003,0.055 -0.0367,0.10078 -0.0901,0.10537 -0.002,0 -0.005,0 -0.006,0"
       style="fill:#eaa376;fill-opacity:1;fill-rule:nonzero;stroke:none;stroke-width:0.03527778"
       id="path664"
       inkscape:connector-curvature="0" />
    <path
       d="m 121.2068,232.23729 c -0.0458,0 -0.087,-0.0321 -0.0947,-0.0809 -0.16186,-0.97119 0.087,-2.26612 0.0977,-2.31803 0.009,-0.0565 0.058,-0.0886 0.11148,-0.0779 0.0534,0.0106 0.0886,0.0596 0.0779,0.11299 -0.003,0.0153 -0.25044,1.31631 -0.0977,2.25086 0.0107,0.0534 -0.026,0.10383 -0.0779,0.11147 -0.006,0.001 -0.0107,0.001 -0.0168,0.001"
       style="fill:#eaa376;fill-opacity:1;fill-rule:nonzero;stroke:none;stroke-width:0.03527778"
       id="path666"
       inkscape:connector-curvature="0" />
    <g
       id="g668"
       transform="matrix(0.01664438,0,0,-0.01664438,-119.2647,335.03277)"
       style="stroke-width:2.31021285">
      <path
         d="m 15832.1,7553.06 c 0,0 172.1,-580.28 245.6,-1112.13 -15.4,-11.65 -75.4,-133.39 -40.6,-148.9 34.7,-15.41 58,52.11 58,52.11 0,0 0.9,-41.47 -5.8,-144.04 0,-36.69 42.4,-37.61 51.2,-18.25 13.5,-42.57 51.1,-36.88 57,-9.82 27.1,0 49.4,15.51 47.5,58.07 55,-12.56 12.5,141.2 -67.8,232.12 -33.8,209.91 -55,340.46 -213.6,1086.99 -65.8,-19.45 -131.5,3.85 -131.5,3.85"
         style="fill:#fabd99;fill-opacity:1;fill-rule:nonzero;stroke:none;stroke-width:2.31021285"
         id="path670"
         inkscape:connector-curvature="0" />
    </g>
    <g
       id="g672"
       transform="matrix(0.01632539,0,0,-0.01632539,-119.2647,335.03277)"
       style="stroke-width:2.31021285">
      <path
         d="m 16278.6,7605.9 c 0,0 9.1,-55.1 21.4,-97.85 -52,61.18 -82.5,24.42 -85.5,-39.66 -18.3,85.5 -18.3,113.09 -18.3,113.09 l 82.4,24.42"
         style="fill:#eaa376;fill-opacity:1;fill-rule:nonzero;stroke:none;stroke-width:2.31021285"
         id="path674"
         inkscape:connector-curvature="0" />
    </g>
    <g
       id="g676"
       transform="matrix(0.0165575,0,0,-0.0165575,-119.2647,335.03277)"
       style="stroke-width:2.31021285">
      <path
         d="m 16282.5,6198.59 c 2.7,0 5.1,2.03 5.7,4.8 11.8,66.96 -15.6,137.32 -16.8,140.37 -1.2,2.86 -4.7,4.24 -7.6,3.22 -3,-1.2 -4.4,-4.61 -3.2,-7.65 0.2,-0.65 27.3,-70.28 16.1,-133.91 -0.6,-3.14 1.5,-6.18 4.8,-6.74 0.3,0 0.6,-0.09 1,-0.09"
         style="fill:#eaa376;fill-opacity:1;fill-rule:nonzero;stroke:none;stroke-width:2.31021285"
         id="path678"
         inkscape:connector-curvature="0" />
    </g>
    <g
       id="g680"
       transform="matrix(0.01659705,0,0,-0.01659705,-119.2647,335.03277)"
       style="stroke-width:2.31021285">
      <path
         d="m 16291.3,6241.98 c 3,0 5.5,2.48 5.8,5.52 2.9,44.53 -20,93.84 -20.9,95.96 -1.5,2.94 -5,4.14 -7.8,2.76 -2.9,-1.29 -4.1,-4.69 -2.8,-7.73 0.3,-0.46 22.6,-48.67 19.9,-90.17 -0.3,-3.31 2.2,-6.07 5.4,-6.34 0.1,0 0.2,0 0.4,0"
         style="fill:#eaa376;fill-opacity:1;fill-rule:nonzero;stroke:none;stroke-width:2.31021285"
         id="path682"
         inkscape:connector-curvature="0" />
    </g>
    <g
       id="g684"
       transform="matrix(0.01649718,0,0,-0.01649718,-119.2647,335.03277)"
       style="stroke-width:2.31021285">
      <path
         d="m 16284.4,6231.07 c 2.9,0 5.3,1.95 5.8,4.91 9.8,58.87 -5.2,137.36 -5.8,140.51 -0.6,3.42 -3.7,5.37 -6.9,4.72 -3.2,-0.65 -5.3,-3.61 -4.6,-6.85 0.1,-0.92 15.2,-79.79 5.8,-136.44 -0.6,-3.24 1.6,-6.29 4.8,-6.75 0.3,-0.1 0.6,-0.1 0.9,-0.1"
         style="fill:#eaa376;fill-opacity:1;fill-rule:nonzero;stroke:none;stroke-width:2.31021285"
         id="path686"
         inkscape:connector-curvature="0" />
    </g>
    <g
       id="g688"
       transform="matrix(0.01549376,0,0,-0.01549376,-119.2647,335.03277)"
       style="stroke-width:2.31021285">
      <path
         d="m 16106.8,5988.81 c 0,0 -49.1,-1058.52 -57.3,-1469.8 2.9,-63.57 17.4,-157.5 88.7,-149.72 80.6,8.87 76.4,150.31 76.4,150.31 0,0 68.7,1189.5 85.4,1463.59 -114.3,11.04 -193.2,5.62 -193.2,5.62"
         style="fill:#fabd99;fill-opacity:1;fill-rule:nonzero;stroke:none;stroke-width:2.31021285"
         id="path690"
         inkscape:connector-curvature="0" />
    </g>
    <g
       id="g692"
       transform="matrix(0.0154733,0,0,-0.0154733,-119.2647,335.03277)"
       style="stroke-width:2.31021285">
      <path
         d="m 16153.3,5965.29 -8.3,-125.43 c 0,0 46.2,136.78 150.9,-2.27 4.1,125.24 -2.7,159.18 -2.7,159.18 l -139.9,-31.48"
         style="fill:#eaa376;fill-opacity:1;fill-rule:nonzero;stroke:none;stroke-width:2.31021285"
         id="path694"
         inkscape:connector-curvature="0" />
    </g>
    <g
       id="g696"
       transform="matrix(0.01636219,0,0,-0.01636219,-119.2647,335.03277)"
       style="stroke-width:2.31021285">
      <path
         d="m 15039.7,6538.42 c 0,0 -97.4,-472.14 -138.8,-808.59 156.4,-112.18 448.7,-129.72 649.4,-100.32 29.5,188.98 38.2,277.36 38.2,277.36 l 50.2,-274.56 c 0,0 348.5,-44.05 661.3,100.51 -70.2,460.2 -144.9,841.07 -144.9,841.07 l -1115.4,-35.47"
         style="fill:#7ea3bf;fill-opacity:1;fill-rule:nonzero;stroke:none;stroke-width:2.31021285"
         id="path698"
         inkscape:connector-curvature="0" />
    </g>
    <g
       id="g700"
       transform="matrix(0.01623056,0,0,-0.01623056,-119.2647,335.03277)"
       style="stroke-width:2.31021285">
      <path
         d="m 16243.4,6585.2 c 0,0 38.8,-180.26 56.6,-307.18 -95.9,176.12 -973.2,249.88 -1133,-36.79 14.3,167.94 42.7,323.56 42.7,323.56 l 1033.7,20.41"
         style="fill:#6189a9;fill-opacity:1;fill-rule:nonzero;stroke:none;stroke-width:2.31021285"
         id="path702"
         inkscape:connector-curvature="0" />
    </g>
    <g
       id="g704"
       transform="matrix(0.01583506,0,0,-0.01583506,-119.2647,335.03277)"
       style="stroke-width:2.31021285">
      <path
         d="m 15972.5,8740.32 c 0,0 4.9,-177.53 0,-236.26 -66,-19.1 -148.5,-39.25 -148.5,-39.25 0,0 -3.1,-218.23 236.5,-218.23 239.5,0 205.6,221.9 205.6,221.9 0,0 -82.6,19.86 -152.2,36.64 0,97.78 -4.5,225.46 -4.5,225.46 l -136.9,9.74"
         style="fill:#fabd99;fill-opacity:1;fill-rule:nonzero;stroke:none;stroke-width:2.31021285"
         id="path706"
         inkscape:connector-curvature="0" />
    </g>
    <g
       id="g708"
       transform="matrix(0.01565395,0,0,-0.01565395,-119.2647,335.03277)"
       style="stroke-width:2.31021285">
      <path
         d="m 16300,8808.17 -138.4,9.85 c 0,0 2.6,-99.99 1.9,-175.49 20.8,-4 42.9,-6.63 67.5,-6.63 23.1,0 43.6,2.54 63,6.14 1.7,83.8 6,166.13 6,166.13"
         style="fill:#eaa376;fill-opacity:1;fill-rule:nonzero;stroke:none;stroke-width:2.31021285"
         id="path710"
         inkscape:connector-curvature="0" />
    </g>
    <path
       d="m 128.67248,201.85538 c -0.37565,2.04624 -1.20789,5.43778 -2.16076,9.87383 -1.82786,0.33288 -3.95502,-1.29646 -3.95502,-1.29646 0,0 2.09357,-7.24731 6.11578,-8.57737"
       style="fill:#235394;fill-opacity:1;fill-rule:nonzero;stroke:none;stroke-width:0.03527778"
       id="path712"
       inkscape:connector-curvature="0" />
    <g
       id="g714"
       transform="matrix(0.0163631,0,0,-0.0163631,-119.2647,335.03277)"
       style="stroke-width:2.31021285">
      <path
         d="m 15926.3,8138.85 c 22.9,-125.05 73.8,-332.32 132,-603.42 111.7,-20.34 241.7,79.23 241.7,79.23 0,0 -127.9,442.9 -373.7,524.19"
         style="fill:#235394;fill-opacity:1;fill-rule:nonzero;stroke:none;stroke-width:2.31021285"
         id="path716"
         inkscape:connector-curvature="0" />
    </g>
    <g
       id="g718"
       transform="matrix(0.01629988,0,0,-0.01629988,-119.2647,335.03277)"
       style="stroke-width:2.31021285">
      <path
         d="m 14996.8,6575.56 c 367.3,-188.03 1166.9,-110.27 1303.2,-2.07 0,0 -230.5,1478.61 -305.9,1590.75 -34.7,26.51 -144.8,61.18 -227.5,78.97 -168.1,-72.79 -282.4,-25.94 -365.4,-0.93 -28,-2.34 -175.9,-57.62 -218.7,-86.19 -91.9,-149.89 -173.8,-1341.18 -185.7,-1580.53"
         style="fill:#3678c3;fill-opacity:1;fill-rule:nonzero;stroke:none;stroke-width:2.31021285"
         id="path720"
         inkscape:connector-curvature="0" />
    </g>
    <g
       id="g722"
       transform="matrix(0.01621804,0,0,-0.01621804,-119.2647,335.03277)"
       style="stroke-width:2.31021285">
      <path
         d="m 15193.6,7572.21 c -8,-213.84 22.6,-834.33 260.8,-927.17 281.2,-109.5 845.6,-15.25 845.6,-15.25 0,0 -559.8,-217.6 -1179,-7.63 27.8,473.52 72.6,950.05 72.6,950.05"
         style="fill:#2867ae;fill-opacity:1;fill-rule:nonzero;stroke:none;stroke-width:2.31021285"
         id="path724"
         inkscape:connector-curvature="0" />
    </g>
    <g
       id="g726"
       transform="matrix(0.01581856,0,0,-0.01581856,-119.2647,335.03277)"
       style="stroke-width:2.31021285">
      <path
         d="m 15901.8,8496.75 c 66.2,-35.72 175.5,-55.6 319.3,-1.06 54.7,10.52 78.9,-14.67 78.9,-14.67 0,0 -49.4,-71.44 -235.3,-80.9 -167.1,-8.49 -242.8,80.9 -242.8,80.9 0,0 48.3,26.25 79.9,15.73"
         style="fill:#235394;fill-opacity:1;fill-rule:nonzero;stroke:none;stroke-width:2.31021285"
         id="path728"
         inkscape:connector-curvature="0" />
    </g>
    <g
       id="g730"
       transform="matrix(0.01754244,0,0,-0.01754244,-119.2647,335.03277)"
       style="stroke-width:2.31021285">
      <path
         d="m 12879.2,9960.29 c -161.7,-445.07 -230.9,-1797.8 1011.8,-2145.82 1235.9,-346.01 1940.9,496.87 2152.9,1356.82 256.1,1037.51 -545.3,1709.31 -1274.1,1832.11 -1137.8,191.2 -1674.2,-446.7 -1890.6,-1043.11"
         style="fill:#fabd99;fill-opacity:1;fill-rule:nonzero;stroke:none;stroke-width:2.31021285"
         id="path732"
         inkscape:connector-curvature="0" />
    </g>
    <path
       d="m 118.21992,179.01246 c -0.10842,1.97446 -3.04033,3.37322 -5.98598,2.52877 -2.94718,-0.84292 -4.4391,-3.29076 -4.1627,-5.64087 0.25196,-2.13632 3.01589,-3.77789 5.86992,-1.49039 2.66621,2.13938 4.40245,2.55626 4.27876,4.60249"
       style="fill:#f8a191;fill-opacity:1;fill-rule:nonzero;stroke:none;stroke-width:0.03527778"
       id="path734"
       inkscape:connector-curvature="0" />
    <path
       d="m 110.5374,175.5354 c -0.0199,0.2596 -0.31304,0.44131 -0.64441,0.4123 -0.33136,-0.0306 -0.58638,-0.26113 -0.56042,-0.52225 0.0214,-0.25349 0.31151,-0.43978 0.64594,-0.40771 0.33289,0.029 0.58332,0.26417 0.55889,0.51766"
       style="fill:#fbccc0;fill-opacity:1;fill-rule:nonzero;stroke:none;stroke-width:0.03527778"
       id="path736"
       inkscape:connector-curvature="0" />
    <path
       d="m 127.92576,175.06202 c -0.0214,0.25807 -0.36039,0.44131 -0.75436,0.40161 -0.39244,-0.0351 -0.69022,-0.27334 -0.66884,-0.52988 0.0244,-0.25502 0.36344,-0.43368 0.75435,-0.40009 0.39245,0.0351 0.69633,0.27182 0.66885,0.52836"
       style="fill:#fcd3bb;fill-opacity:1;fill-rule:nonzero;stroke:none;stroke-width:0.03527778"
       id="path738"
       inkscape:connector-curvature="0" />
    <g
       id="g740"
       transform="matrix(0.01662072,0,0,-0.01662072,-119.2647,335.03277)"
       style="stroke-width:2.31021285">
      <path
         d="m 16279.6,9146.39 c -20.2,-161.33 -184.1,-261.39 -395.4,-254.86 -204.4,6.25 -398.3,175.76 -349.8,323.4 46.1,140.39 153,81.22 395,148.38 234.3,64.68 370.6,-55.86 350.2,-216.92"
         style="fill:#f8a191;fill-opacity:1;fill-rule:nonzero;stroke:none;stroke-width:2.31021285"
         id="path742"
         inkscape:connector-curvature="0" />
    </g>
    <g
       id="g744"
       transform="matrix(0.01646236,0,0,-0.01646236,-119.2647,335.03277)"
       style="stroke-width:2.31021285">
      <path
         d="m 16298.2,9330.32 c -1.9,-15.12 -19.1,-25.14 -38.3,-22.73 -19.2,2.69 -33.2,16.42 -31.3,31.26 1.9,14.94 18.9,24.95 38.2,22.64 19.2,-2.6 33.2,-16.61 31.4,-31.17"
         style="fill:#fbccc0;fill-opacity:1;fill-rule:nonzero;stroke:none;stroke-width:2.31021285"
         id="path746"
         inkscape:connector-curvature="0" />
    </g>
    <path
       d="m 116.9876,162.66249 c 3.51371,-1.89811 1.14375,-5.48969 -0.68869,-3.71986 -1.96988,1.90268 -4.30624,2.78073 -4.36733,3.2083 -0.13896,0.94065 3.08004,1.57895 5.05602,0.51156"
       style="fill:#2d201b;fill-opacity:1;fill-rule:nonzero;stroke:none;stroke-width:0.03527778"
       id="path748"
       inkscape:connector-curvature="0" />
    <g
       id="g750"
       transform="matrix(0.01648313,0,0,-0.01648313,-119.2647,335.03277)"
       style="stroke-width:2.31021285">
      <path
         d="m 16003.8,10103.4 c -138.4,198.8 88.1,328.8 139.1,182.6 54.5,-156.7 157.1,-268.1 148.6,-292.83 -18.4,-54.84 -210,-1.48 -287.7,110.23"
         style="fill:#2d201b;fill-opacity:1;fill-rule:nonzero;stroke:none;stroke-width:2.31021285"
         id="path752"
         inkscape:connector-curvature="0" />
    </g>
    <g
       id="g754"
       transform="matrix(0.01549743,0,0,-0.01549743,-119.2647,335.03277)"
       style="stroke-width:2.31021285">
      <path
         d="m 15608.2,9587.33 c -1.4,0.19 -2.8,0.58 -4.2,1.27 -9.1,3.95 -13.4,14.49 -9.4,23.56 33.2,77.64 74.1,118.73 121.5,122.87 30.5,2.56 77.2,-10.74 126.7,-87.99 21.3,-33.01 44.3,-51.34 70.5,-55.68 0,0 0.1,-0.09 0.1,-0.09 62.5,-20.01 106.8,31.72 162.4,75.97 35.5,28.08 76.1,30.24 117.1,5.81 56.3,-33.21 107.1,-116.67 103.5,-138.05 -1.7,-9.85 -11,-16.45 -20.8,-14.78 -9.9,1.68 -16.5,10.94 -14.8,20.79 -3.1,8.67 -49.4,89.96 -103,108.79 -21.4,7.39 -40.8,3.74 -59.5,-11.04 -71.9,-56.95 -131.9,-93.02 -190.8,-83.26 -0.1,0 -0.2,0.09 -0.3,0.09 -36.2,6.12 -68.1,30.35 -94.8,72.03 -31.1,48.48 -64.2,73.81 -93.4,71.15 -32,-2.56 -64.4,-38.33 -91.1,-100.71 -3.4,-7.78 -11.6,-12.12 -19.7,-10.73"
         style="fill:#b95c42;fill-opacity:1;fill-rule:nonzero;stroke:none;stroke-width:2.31021285"
         id="path756"
         inkscape:connector-curvature="0" />
    </g>
    <path
       d="m 127.17598,178.18022 c -0.0382,0.0122 -0.0763,0.0153 -0.113,-0.003 -1.0735,-0.4688 -1.63545,-1.3728 -1.50413,-2.41882 0.11453,-0.96967 0.81544,-1.80038 1.62782,-1.94239 0.50392,-0.0825 1.47053,0.026 2.29361,1.7057 0.0367,0.0748 0.003,0.16339 -0.0672,0.20309 -0.0855,0.0413 -0.16797,0.005 -0.20462,-0.0702 -0.54668,-1.11321 -1.24759,-1.65989 -1.9714,-1.53925 -0.68717,0.113 -1.27508,0.83681 -1.37739,1.67821 -0.055,0.43826 -0.0336,1.51177 1.32241,2.10273 0.0779,0.0351 0.11148,0.12216 0.0779,0.20004 -0.0168,0.0382 -0.0458,0.0672 -0.084,0.084"
       style="fill:#ce6748;fill-opacity:1;fill-rule:nonzero;stroke:none;stroke-width:0.03527778"
       id="path758"
       inkscape:connector-curvature="0" />
    <path
       d="m 122.33223,167.72308 c 0.74366,2.74256 -0.7452,5.53551 -3.33047,6.23795 -2.58833,0.70549 -5.29118,-0.94218 -6.0379,-3.6771 -0.7513,-2.74409 0.74214,-5.53856 3.32741,-6.24406 2.58833,-0.70549 5.29118,0.94371 6.04096,3.68321"
       style="fill:#eaa376;fill-opacity:1;fill-rule:nonzero;stroke:none;stroke-width:0.03527778"
       id="path760"
       inkscape:connector-curvature="0" />
    <path
       d="m 120.3257,172.49965 c 1.57285,0.30388 1.87062,1.05671 0.67342,1.6889 -1.20483,0.62456 -3.45415,0.89027 -5.02242,0.58486 -1.57743,-0.30541 -1.87367,-1.05976 -0.678,-1.69043 1.2033,-0.62609 3.4511,-0.88873 5.027,-0.58333"
       style="fill:#eaa376;fill-opacity:1;fill-rule:nonzero;stroke:none;stroke-width:0.03527778"
       id="path762"
       inkscape:connector-curvature="0" />
    <path
       d="m 121.80234,167.78722 c 0.73909,2.70743 -0.7345,5.47137 -3.28923,6.16922 -2.55779,0.69481 -5.23315,-0.93149 -5.97071,-3.64045 -0.73909,-2.71049 0.7345,-5.47137 3.28771,-6.17075 2.56083,-0.6948 5.23162,0.93149 5.97223,3.64198"
       style="fill:#ffffff;fill-opacity:1;fill-rule:nonzero;stroke:none;stroke-width:0.03527778"
       id="path764"
       inkscape:connector-curvature="0" />
    <path
       d="m 121.23581,168.24075 c -0.14507,-0.53599 -0.38939,-1.01853 -0.6948,-1.44458 0.12522,0.26113 0.23517,0.53446 0.3161,0.82613 0.64593,2.3776 -0.64899,4.81016 -2.89679,5.42861 -1.33768,0.36344 -2.70133,-0.005 -3.73055,-0.85972 1.03075,1.19414 2.6204,1.77747 4.17492,1.35601 2.19893,-0.60013 3.46637,-2.97619 2.83112,-5.30645"
       style="fill:#dcdbdb;fill-opacity:1;fill-rule:nonzero;stroke:none;stroke-width:0.03527778"
       id="path766"
       inkscape:connector-curvature="0" />
    <path
       d="m 121.38547,169.1585 c -0.17867,1.50718 -1.47818,2.59748 -2.9029,2.42951 -1.42778,-0.1695 -2.44021,-1.52703 -2.26154,-3.03574 0.17561,-1.51025 1.4797,-2.60208 2.90442,-2.42952 1.42625,0.16492 2.43715,1.52551 2.26002,3.03575"
       style="fill:#7ab9dd;fill-opacity:1;fill-rule:nonzero;stroke:none;stroke-width:0.03527778"
       id="path768"
       inkscape:connector-curvature="0" />
    <path
       d="m 121.0938,168.78895 c -0.10537,0.90554 -0.88568,1.55453 -1.73624,1.45527 -0.85667,-0.10078 -1.46138,-0.91469 -1.35295,-1.81717 0.10689,-0.90401 0.88415,-1.55605 1.73776,-1.45679 0.85209,0.0992 1.4568,0.91316 1.35143,1.81869"
       style="fill:#231f20;fill-opacity:1;fill-rule:nonzero;stroke:none;stroke-width:0.03527778"
       id="path770"
       inkscape:connector-curvature="0" />
    <path
       d="m 119.44918,167.62077 c -0.0443,0.38329 -0.37412,0.6551 -0.73145,0.61387 -0.36191,-0.0443 -0.61692,-0.38481 -0.57264,-0.76962 0.0443,-0.38482 0.37413,-0.65663 0.73298,-0.61693 0.36191,0.0458 0.61998,0.39093 0.57111,0.77268"
       style="fill:#ffffff;fill-opacity:1;fill-rule:nonzero;stroke:none;stroke-width:0.03527778"
       id="path772"
       inkscape:connector-curvature="0" />
    <path
       d="m 120.95942,169.81054 c -0.026,0.23516 -0.22753,0.40161 -0.44895,0.37718 -0.21684,-0.026 -0.37107,-0.23516 -0.34358,-0.46727 0.0305,-0.22906 0.226,-0.39856 0.44589,-0.37107 0.21837,0.0244 0.37413,0.23211 0.34664,0.46116"
       style="fill:#ffffff;fill-opacity:1;fill-rule:nonzero;stroke:none;stroke-width:0.03527778"
       id="path774"
       inkscape:connector-curvature="0" />
    <g
       id="g776"
       transform="matrix(0.01629027,0,0,-0.01629027,-119.2647,335.03277)"
       style="stroke-width:2.31021285">
      <path
         d="m 16254.4,10072.4 c 45.6,-168.44 -45.8,-339.89 -204.6,-383.01 -158.9,-43.21 -324.7,57.84 -370.4,225.73 -46.3,168.48 45.4,339.88 204.2,383.28 158.8,43.2 324.7,-57.8 370.8,-226"
         style="fill:#eaa376;fill-opacity:1;fill-rule:nonzero;stroke:none;stroke-width:2.31021285"
         id="path778"
         inkscape:connector-curvature="0" />
    </g>
    <g
       id="g780"
       transform="matrix(0.01623621,0,0,-0.01623621,-119.2647,335.03277)"
       style="stroke-width:2.31021285">
      <path
         d="m 16184.9,9811.7 c 96.9,-18.81 115.1,-65.18 41.4,-104.21 -74.1,-38.47 -212.9,-54.74 -309.5,-35.84 -97.1,18.72 -115.4,65.18 -41.5,104.02 74,38.47 212.4,54.74 309.6,36.03"
         style="fill:#eaa376;fill-opacity:1;fill-rule:nonzero;stroke:none;stroke-width:2.31021285"
         id="path782"
         inkscape:connector-curvature="0" />
    </g>
    <g
       id="g784"
       transform="matrix(0.01625743,0,0,-0.01625743,-119.2647,335.03277)"
       style="stroke-width:2.31021285">
      <path
         d="m 16254.6,10088.8 c 45.4,-166.65 -45.3,-336.56 -202.5,-379.68 -157.2,-42.74 -321.7,57.39 -367.1,223.93 -45.5,166.85 45.1,336.55 202.3,379.65 157.4,42.8 321.8,-57.3 367.3,-223.9"
         style="fill:#ffffff;fill-opacity:1;fill-rule:nonzero;stroke:none;stroke-width:2.31021285"
         id="path786"
         inkscape:connector-curvature="0" />
    </g>
    <g
       id="g788"
       transform="matrix(0.0162162,0,0,-0.0162162,-119.2647,335.03277)"
       style="stroke-width:2.31021285">
      <path
         d="m 16260.7,10086.3 c -8.8,33.1 -23.9,62.8 -42.6,89.1 7.7,-16.2 14.4,-33 19.4,-51.1 39.8,-146.57 -40,-296.48 -178.7,-334.53 -82.4,-22.4 -166.4,0.29 -230,52.93 63.6,-73.64 161.7,-109.61 257.5,-83.72 135.5,37.11 213.7,183.63 174.4,327.32"
         style="fill:#dcdbdb;fill-opacity:1;fill-rule:nonzero;stroke:none;stroke-width:2.31021285"
         id="path790"
         inkscape:connector-curvature="0" />
    </g>
    <g
       id="g792"
       transform="matrix(0.01619727,0,0,-0.01619727,-119.2647,335.03277)"
       style="stroke-width:2.31021285">
      <path
         d="m 16289.3,10041.4 c -11.1,-92.96 -91.4,-160.28 -179.3,-150 -88.2,10.56 -150.5,94.37 -139.7,187.5 10.9,93.3 91.5,160.6 179.2,150.1 88.2,-10.4 150.5,-94.3 139.8,-187.6"
         style="fill:#7ab9dd;fill-opacity:1;fill-rule:nonzero;stroke:none;stroke-width:2.31021285"
         id="path794"
         inkscape:connector-curvature="0" />
    </g>
    <g
       id="g796"
       transform="matrix(0.01617513,0,0,-0.01617513,-119.2647,335.03277)"
       style="stroke-width:2.31021285">
      <path
         d="m 16293.4,10078.1 c -6.4,-56.1 -54.8,-96.15 -107.3,-90.01 -53,6.33 -90.3,56.51 -83.7,112.41 6.7,55.9 54.7,96.1 107.4,90.1 52.7,-6.3 90.2,-56.6 83.6,-112.5"
         style="fill:#231f20;fill-opacity:1;fill-rule:nonzero;stroke:none;stroke-width:2.31021285"
         id="path798"
         inkscape:connector-curvature="0" />
    </g>
    <g
       id="g800"
       transform="matrix(0.01607068,0,0,-0.01607068,-119.2647,335.03277)"
       style="stroke-width:2.31021285">
      <path
         d="m 16297.1,10216.4 c -2.8,-23.9 -23.3,-40.9 -45.6,-38.3 -22.4,2.7 -38.4,24 -35.6,47.9 2.8,23.9 23.2,40.9 45.7,38.5 22.4,-2.9 38.4,-24.3 35.5,-48.1"
         style="fill:#ffffff;fill-opacity:1;fill-rule:nonzero;stroke:none;stroke-width:2.31021285"
         id="path802"
         inkscape:connector-curvature="0" />
    </g>
    <g
       id="g804"
       transform="matrix(0.016162,0,0,-0.016162,-119.2647,335.03277)"
       style="stroke-width:2.31021285">
      <path
         d="m 16298.3,10023 c -1.7,-14.5 -14.1,-24.82 -27.7,-23.31 -13.4,1.71 -23,14.61 -21.3,28.91 1.9,14.2 13.9,24.8 27.5,23.1 13.6,-1.6 23.2,-14.5 21.5,-28.7"
         style="fill:#ffffff;fill-opacity:1;fill-rule:nonzero;stroke:none;stroke-width:2.31021285"
         id="path806"
         inkscape:connector-curvature="0" />
    </g>
    <g
       id="g808"
       transform="matrix(0.01756656,0,0,-0.01756656,-119.2647,335.03277)"
       style="stroke-width:2.31021285">
      <path
         d="m 15742.8,8950.7 c 0,0 112.2,185.59 328.8,123.44 228.4,-65.63 180.2,-402.74 -23.8,-548.52 -203.7,-145.26 -459.4,-73.2 -464.5,113.53 l 159.5,311.55"
         style="fill:#fabd99;fill-opacity:1;fill-rule:nonzero;stroke:none;stroke-width:2.31021285"
         id="path810"
         inkscape:connector-curvature="0" />
    </g>
    <g
       id="g812"
       transform="matrix(0.01732422,0,0,-0.01732422,-119.2647,335.03277)"
       style="stroke-width:2.31021285">
      <path
         d="m 16300,9095.22 c -129.7,90.35 -373.6,-152.67 -247.2,-387.13 9.2,241.43 115.1,280.21 174.1,138.03 28.3,68.05 11.7,125.43 -77.5,154.88 45.7,86.29 150.6,94.22 150.6,94.22"
         style="fill:#d48a5b;fill-opacity:1;fill-rule:nonzero;stroke:none;stroke-width:2.31021285"
         id="path814"
         inkscape:connector-curvature="0" />
    </g>
    <g
       id="g816"
       transform="matrix(0.01805598,0,0,-0.01805598,-119.2647,335.03277)"
       style="stroke-width:2.31021285">
      <path
         d="m 15336.8,8681.41 c 0,0 -51.7,14.8 -147.1,38.31 241.4,357.32 221.2,543.38 -43.2,729.44 -542.1,45.41 -1409,328.47 -2102.5,862.24 -362.7,-243.7 -492.1,-564.38 -571.9,-784.86 -33.2,216.75 139.6,601.16 134.7,874.56 -5.1,273.5 53,599.3 402.2,731.8 349.3,132.6 581.1,91.2 753.2,-3 526.6,359.3 1231.8,148.1 1318.9,32.6 -182.3,46.7 -220,-214.4 57.1,-341 277.4,-126.4 1161.8,-649.6 828.8,-1041.16 30.6,-333.81 -300.3,-564.52 -309.6,-963.45 -174.8,60.05 -320.6,-135.48 -320.6,-135.48"
         style="fill:#3c2b26;fill-opacity:1;fill-rule:nonzero;stroke:none;stroke-width:2.31021285"
         id="path818"
         inkscape:connector-curvature="0" />
    </g>
    <g
       id="g820"
       transform="matrix(0.01760856,0,0,-0.01760856,-119.2647,335.03277)"
       style="stroke-width:2.31021285">
      <path
         d="m 15139.6,11348.4 c -32.9,-155.2 212.6,-356.9 669,-556.5 429.9,-187.9 491.4,-425.9 439.5,-537 -90.2,269.9 -630.8,463.1 -987.9,514.5 104.6,-98.3 415.7,-255.3 415.7,-255.3 0,0 -841.2,129.1 -1140.2,584.7 268.1,-135.3 340.5,-134.5 679.5,-191.8 0,0 -300.2,223.4 -75.6,441.4"
         style="fill:#63bfe2;fill-opacity:1;fill-rule:nonzero;stroke:none;stroke-width:2.31021285"
         id="path822"
         inkscape:connector-curvature="0" />
    </g>
    <g
       id="g824"
       transform="matrix(0.01622063,0,0,-0.01622063,-119.2647,335.03277)"
       style="stroke-width:2.31021285">
      <path
         d="m 16300,12460.2 c 0,0 -677.4,148.7 -1068.9,-239.4 260.4,74.8 862.6,81.2 862.6,81.2 0,0 -178.1,64.1 -446.7,67.3 246.6,110.5 653,90.9 653,90.9"
         style="fill:#63bfe2;fill-opacity:1;fill-rule:nonzero;stroke:none;stroke-width:2.31021285"
         id="path826"
         inkscape:connector-curvature="0" />
    </g>
    <path
       d="m 125.85662,135.56065 c 0,0 -4.72465,-2.3837 -11.04199,0.21531 2.01721,-0.0199 5.74318,0.32832 5.74318,0.32832 0,0 -3.57937,1.59575 -6.80294,4.8407 3.66793,-2.37454 12.10175,-5.38433 12.10175,-5.38433"
       style="fill:#63bfe2;fill-opacity:1;fill-rule:nonzero;stroke:none;stroke-width:0.03527778"
       id="path828"
       inkscape:connector-curvature="0" />
    <g
       id="g830"
       transform="matrix(0.01744852,0,0,-0.01744852,-119.2647,335.03277)"
       style="stroke-width:2.31021285">
      <path
         d="m 13629.9,11114.5 c 0,0 434,-938 2117.6,-1115.27 257.7,-97.49 552.5,-649.38 29.2,-965.84 290.2,405.29 186.6,623.56 -87,816.01 -1055.8,151.8 -1908.9,613.3 -2193.5,913.1 -375.2,-252.3 -507.3,-676.1 -589.8,-904.26 0,0 48.8,919.96 723.5,1256.26"
         style="fill:#2d201b;fill-opacity:1;fill-rule:nonzero;stroke:none;stroke-width:2.31021285"
         id="path832"
         inkscape:connector-curvature="0" />
    </g>
    <g
       id="g834"
       transform="matrix(0.01546674,0,0,-0.01546674,-119.2647,335.03277)"
       style="stroke-width:2.31021285">
      <path
         d="m 16251.4,4746.96 c 48.6,-27.65 -5.2,-166.06 4.6,-313.17 -144.2,-106.93 -481.5,-129.54 -630.4,-81.65 -93,83.92 -71.9,319.98 109.1,388.79 121.9,46.51 210,-40.87 247.7,-74.83 24.2,15.01 86.8,37.62 86.8,37.62 0,0 -14.8,54.79 11.8,60.52 28.6,-25.48 83.3,-42.65 170.4,-17.28"
         style="fill:#9b3138;fill-opacity:1;fill-rule:nonzero;stroke:none;stroke-width:2.31021285"
         id="path836"
         inkscape:connector-curvature="0" />
    </g>
    <g
       id="g838"
       transform="matrix(0.01544368,0,0,-0.01544368,-119.2647,335.03277)"
       style="stroke-width:2.31021285">
      <path
         d="m 16111.8,4741.49 c 20.9,-17.01 91.5,-74.26 88.4,-153.96 -142,-105.4 -514.9,-140.5 -549.1,51.52 -18.4,-26.4 -1.7,1.98 -2.6,2.57 -57,-100.46 -44.7,-233.85 17.4,-289.91 146.8,-47.16 463.1,-11.67 605.2,93.74 -29.8,131.4 28.9,250.55 -9.4,284.17 -91,-32.53 -149.9,11.87 -149.9,11.87"
         style="fill:#89282f;fill-opacity:1;fill-rule:nonzero;stroke:none;stroke-width:2.31021285"
         id="path840"
         inkscape:connector-curvature="0" />
    </g>
    <g
       id="g842"
       transform="matrix(0.01545987,0,0,-0.01545987,-119.2647,335.03277)"
       style="stroke-width:2.31021285">
      <path
         d="m 16264.6,4509.14 c -72.7,-31.61 -281.3,-145.89 -684.1,-60.85 -29.4,-28.54 -3.4,-104.3 22.5,-120.7 85.5,-30.13 318.7,-94.33 664.9,66.77 32.1,23.91 18.8,105.2 -3.3,114.78"
         style="fill:#ebe6e5;fill-opacity:1;fill-rule:nonzero;stroke:none;stroke-width:2.31021285"
         id="path844"
         inkscape:connector-curvature="0" />
    </g>
    <g
       id="g846"
       transform="matrix(0.01545253,0,0,-0.01545253,-119.2647,335.03277)"
       style="stroke-width:2.31021285">
      <path
         d="m 16269.4,4505.74 c -3.5,-2.77 -14.3,-6.43 -20,-9.59 1.5,-19.96 10.9,-33.7 -1.6,-42.79 -346.4,-161.47 -656.6,-66.5 -656.6,-66.5 0,0 -3.3,2.37 -7.8,6.91 6.6,-42.99 35.6,-63.73 35.6,-63.73 0,0 302.5,-86.97 649,74.4 32,23.92 1.4,101.3 1.4,101.3"
         style="fill:#d8d3d1;fill-opacity:1;fill-rule:nonzero;stroke:none;stroke-width:2.31021285"
         id="path848"
         inkscape:connector-curvature="0" />
    </g>
    <g
       id="g850"
       transform="matrix(0.01532884,0,0,-0.01532884,-119.2647,335.03277)"
       style="stroke-width:2.31021285">
      <path
         d="m 16285.3,4678.66 c -3.4,0.5 -6.7,2.49 -8.6,5.68 -39.5,67.24 -92.6,39.35 -94.6,38.25 -5.7,-3.19 -12.7,-1 -15.8,4.69 -3.1,5.67 -1,12.65 4.7,15.73 0.7,0.4 75.2,39.55 125.5,-46.91 3.5,-5.59 1.6,-12.86 -4.1,-16.05 -2.3,-1.29 -4.9,-1.59 -7.1,-1.39"
         style="fill:#eadedd;fill-opacity:1;fill-rule:nonzero;stroke:none;stroke-width:2.31021285"
         id="path852"
         inkscape:connector-curvature="0" />
    </g>
    <path
       d="m 128.48771,264.18135 c -0.0397,-0.0397 -0.0596,-0.0931 -0.0519,-0.14965 0.15728,-1.18192 -0.74673,-1.34531 -0.7849,-1.35295 -0.0947,-0.0137 -0.16492,-0.10689 -0.14813,-0.20309 0.0168,-0.0977 0.10995,-0.1634 0.20615,-0.14659 0.0137,10e-4 1.28424,0.22599 1.08115,1.74692 -0.0122,0.10078 -0.10384,0.16644 -0.20005,0.15576 -0.0412,-0.006 -0.0764,-0.0244 -0.10231,-0.0504"
       style="fill:#eadedd;fill-opacity:1;fill-rule:nonzero;stroke:none;stroke-width:0.03527778"
       id="path854"
       inkscape:connector-curvature="0" />
    <g
       id="g856"
       transform="matrix(0.01544063,0,0,-0.01544063,-119.2647,335.03277)"
       style="stroke-width:2.31021285">
      <path
         d="m 16207.7,11541.3 c -6.6,-178 -197.8,-276.9 -65.9,-382.4 131.8,-105.4 158.2,329.7 65.9,382.4"
         style="fill:#63bfe2;fill-opacity:1;fill-rule:nonzero;stroke:none;stroke-width:2.31021285"
         id="path858"
         inkscape:connector-curvature="0" />
    </g>
    <path
       d="m 109.131,184.92515 c 0.10231,2.74866 3.05407,4.27569 1.01853,5.90504 -2.03553,1.62782 -2.44325,-5.09114 -1.01853,-5.90504"
       style="fill:#63bfe2;fill-opacity:1;fill-rule:nonzero;stroke:none;stroke-width:0.03527778"
       id="path860"
       inkscape:connector-curvature="0" />
    <g
       id="g862"
       transform="matrix(0.0165772,0,0,-0.0165772,-119.2647,335.03277)"
       style="stroke-width:2.31021285">
      <path
         d="m 16214.1,8643.56 c -6.2,-165.81 -184.3,-257.93 -61.5,-356.12 122.9,-98.29 147.4,307.02 61.5,356.12"
         style="fill:#63bfe2;fill-opacity:1;fill-rule:nonzero;stroke:none;stroke-width:2.31021285"
         id="path864"
         inkscape:connector-curvature="0" />
    </g>
  </g>
</svg>
