<svg id="Layer_2" data-name="Layer 2" xmlns="http://www.w3.org/2000/svg" viewBox="0 0 1000 1000"><defs><style>.cls-1{fill:#d8996a;stroke:#b56a37;stroke-miterlimit:10;stroke-width:3px;}.cls-2{fill:#950304;}.cls-3{fill:#840411;}.cls-4{fill:#bc7442;}</style></defs><title>pie</title><path class="cls-1" d="M857.81,652.21s-44.65,115.2-64.3,131.27-39.29,15.18-50,24.12-60.72,32.14-78.58,34.82-4.47-2.68-24.11,3.57-33.94,31.26-128.6,20.54c0,0-78.58,19.65-133.06-18.75,0,0-67,13.4-110.73-52.69,0,0-67,10.72-100-124.13S461.31,685.25,464,684.36,815.84,628.1,815.84,628.1Z"/><path class="cls-2" d="M800.66,680.79c1.78,0,109.84-68.77,117.88-93.77s11.6-169.67,8-185.75-64.29-111.63-83.05-122.34-167-72.34-226.82-79.48-270.59,1.79-298.27,5.36-148.24,77.69-159,83.94-53.58,87.52-53.58,89.3S72.85,471.82,74.63,504s84.84,146.45,111.63,164.31,225,82.16,252.72,82.16S703.32,735.26,714.93,729,800.66,680.79,800.66,680.79Z"/><path class="cls-3" d="M242.52,616.49c-8.93-20.54-35.72-33.94-52.69-41.08s-47.33-6.25-43.76-8S205,526.29,205,526.29l42,59.84Z"/><path class="cls-3" d="M151.43,463.78c-15.18-16.07-37.5-19.64-51.79-22.32s-15.15-21.45,2.25-29,29.9-14.72,34.36-12S151.43,463.78,151.43,463.78Z"/><path class="cls-3" d="M333.32,403.47c-18.47-7.56-43.47-24.52-67.58-27.2s-48.22-3.58-50.9-2.68,59.83-32.15,64.29-33,36.62,2.68,45.55,11.61S333.32,403.47,333.32,403.47Z"/><path class="cls-3" d="M519.49,363.9c-14.42-11.74-18.89-12.64-52.82-24.25s-52.69-16.07-61.62-9.82-8-7.14,21.43-17.86,75.91-19.65,77.69-19.65S519.49,363.9,519.49,363.9Z"/><path class="cls-3" d="M406.84,556.66c-6.26-8-11.61-14.29-37.51-30.37s-38.56-17-52.77-19.2-42.78-5.8-42.78-5.8,40.18-29.47,59.83-33.94,52.69-4.46,52.69-4.46Z"/><path class="cls-3" d="M469.35,691.5c-5.36-5.36-26.79-24.11-52.69-25s-49.12-2.68-51.8-4.47,42-28.57,51.8-31.25,45.54-4.47,45.54,0S469.35,691.5,469.35,691.5Z"/><path class="cls-3" d="M648,678.11s-19.65-23.22-42-29.47-34.56-14.29-49-9.38-24.25,15.63-22.46,6.7,18.75-34.83,44.65-37.51,42.86-14.29,48.22-6.25S648,678.11,648,678.11Z"/><path class="cls-3" d="M582.76,495.93c-7.14-12.5-24.11-23.22-30.36-26.79s-41.08-4.46-58.94-6.25-31.26,2.68-33.94,0-7.14-20.54,33.94-31.26S532.75,411.09,552.4,420,582.76,495.93,582.76,495.93Z"/><path class="cls-3" d="M735.47,472.71c-3.58-3.57-25-19.64-42.87-24.11s-24.11-7.14-36.61-8-27.69,7.15-28.58,0-15.18-32.14,16.08-41.07,51.79-22.33,69.65-5.36,28.58,42,25.9,54.47A204.43,204.43,0,0,0,735.47,472.71Z"/><path class="cls-3" d="M786.37,629c-6.25-2.68-17.86-4.46-34.83-8s-25.42.9-33.25,0-25.69-33,8.25-44.65,46.43-29.47,56.26-4.46S786.37,629,786.37,629Z"/><path class="cls-3" d="M870.31,467.35c-9.82-8.93-26.79-14.28-44.65-19.64s-27.68-5.36-34.83-8-13.39-33.93,8.93-36.61,33.94-20.54,49.12,0,26.79,39.29,26.79,44.65S870.31,467.35,870.31,467.35Z"/><path class="cls-3" d="M799.76,328.94c-8-12.51-14.28-13.4-29.47-21.44s-38.4-11.6-50.9-13.39S696.17,265.53,731,274.46s40.19,3.57,53.58,19.65,18.76,20.54,18.76,24.11S799.76,328.94,799.76,328.94Z"/><path class="cls-3" d="M664,328.94c-8.94-2.68-28.58-11.61-43.76-13.4s-21.44-.89-33.94-4.46-30.36,5.35-33.93,0-9.83-23.22,30.36-23.22,50-3.57,68.76,6.25,27.69,13.39,23.22,19.65S664,328.94,664,328.94Z"/><path class="cls-3" d="M437.2,245c-15.18-.89-33-10.71-55.37-12.5s-28.26-7.09-44.05-4.44-38.11,14.26-21.14-.92,19.65-40.18,57.15-30.36S437.2,207.49,441.66,220,437.2,245,437.2,245Z"/><path class="cls-3" d="M607.55,242.29c-6-3.55-31.93-16-50.69-17.84s-21.43-5.35-32.15-4.46-21-20.73,18.54-22.42,47.55-7.94,57.37,5.45S607.55,242.29,607.55,242.29Z"/><path class="cls-1" d="M88.92,512c6.25-11.61,181.28-92,313.45-123.24S631.88,337,698.85,339.65s181.29-16.07,200.93,0,26.79,117,13.4,117S769.4,396.81,577.4,441.46s-300,82.16-342,104.48S134,609.69,127.53,600.59,88.92,512,88.92,512Z"/><path class="cls-4" d="M131.79,594.16s69.65-71.44,310.77-131.27,390.25-47.26,423.29-35.24-17-24.59-17-24.59S588.12,387,426.48,441.46,104.1,576.3,104.1,576.3Z"/><path class="cls-1" d="M647.06,721c-.9-12.5-48.23-201.82-134.85-343.81s-137.52-183.07-125-187.53,117.88-5.36,117.88-5.36,125,212.54,162.53,301.84,72.33,200,72.33,200Z"/><path class="cls-4" d="M668,720.53c0-7.15-47.33-170.57-76.8-247.37s-184.4-279.8-184.4-279.8l.44,14.57s126.81,177.71,142.89,209,58,142,58,142l46.44,156.28Z"/><path class="cls-1" d="M899.78,530.76c-3.57-7.14-143.83-282.15-151.84-292s130.41,50.88,127.73,62.49S928,452.62,928,452.62Z"/><path class="cls-1" d="M390.76,734.37c0-3.57-94.66-242-141.1-321.49s-58-112.52-75.9-111.63S91.6,363.76,104.1,398.59s84.07,88.74,149.2,259.59S390.76,734.37,390.76,734.37Z"/><path class="cls-4" d="M251,633.9s12.51-3.57,13.4-6.25-29.47-89.3-41.08-105.37-11.61-32.15-26.79-55.37-50.9-63.41-50.9-63.41l-18.76,16.08S218,540.14,251,633.9Z"/><path class="cls-1" d="M208.59,662.93c.89-2.68,115.2-63.41,281.3-98.24S714,516.47,779.22,512s119.67-8.93,126.81-5.36,5.36,80.37-14.29,90.19S598.83,629,484.53,646,326.84,715.22,295.4,710.51s-91.28-47.58-91.28-47.58Z"/><path class="cls-4" d="M288.28,708.94c6.48-5.38,119.9-62.53,202.05-81.29s217-24.11,243.8-28.57S893,584.5,893,584.5l.07-25.61s-408,63.43-461.63,75-163.21,63.7-163.21,63.7Z"/><path class="cls-1" d="M472,729.9s-92-221.47-131.28-295.59-146.49-156.5-129.95-176,173.25-57.56,173.25-57.56l-65.62-.37S510.43,512,539.9,602.2s25.21,141.12,25.21,141.12Z"/><path class="cls-4" d="M222.43,272.23s99.78,92,142.32,190.66S455.51,672.3,460,678.55s12.5,51.8,12.5,51.8,29,10.22,28.79,3.77S357.27,433,326.91,372.25,241.16,260.9,241.16,260.9Z"/><path class="cls-1" d="M104.1,441.46c.9-.9,118.77-74.12,335.78-114.31s360.78-20.54,390.25-17-9.83-57.15-58-68.76-426,5.36-506.34,42-154.9,84.51-154.9,84.51Z"/><path class="cls-4" d="M844.86,308c-27.68-6.25-161.68-27.46-279.54-18.64S209,372.25,209,372.25L88.92,441.46l15.63-41.53S361.74,290.09,504.62,281.16s326,3.2,329.57,6.06S844.86,308,844.86,308Z"/><path class="cls-1" d="M789.94,666.5c0-3.57-49.12-206.29-141.1-342.92S542.57,168.19,551.5,167.3s126.81,29.47,126.81,29.47S823.88,444.14,835.48,486.11,865.85,615.6,865.85,615.6Z"/><path class="cls-4" d="M803.78,651.76s-73.22-259-127.7-359-100.68-97.3-100.68-97.3l15.84,19.61s75.86,96.07,90.18,124.38,66.1,156.92,66.1,156.92l51.93,163.74Z"/><path class="cls-1" d="M948,486.11c10.71-17,1.78-89.3-4.47-120.56s-16.07-71.44-35.72-82.16-31.26-1.78-66.08-30.36-49.12-60.72-98.24-67S673,154.8,631,157.48,585.44,146.76,547,145s-42.87-12.51-80.37,0S422,165.51,396.12,163.73,303.25,182.48,273.78,187s-42.87-15.18-71.45,17-50.9,50.91-73.22,67-44.65,12.5-54.48,63.41S44.27,387.88,42.48,443.24s15.19,42,9.83,90.2S73.74,609.34,104.1,629s76.8,80.37,99.13,92,17,2.68,67.87,26.79,82.15,36.62,131.27,34.83,61.62,14.29,99.13,12.5,37.5-11.61,57.15-12.5c.44,0,1.62-.19,3.44-.25,13.36-.48,60.79-.07,93-2.43,36.62-2.68,52.69-15.18,82.16-29.47s55.37-20.54,90.2-43.76S873,649.53,893.53,637s50.9-20.54,54.48-64.3S937.29,503.08,948,486.11ZM897.1,507.54c1.79,16.08-10.71,66.08-22.32,82.16S798,642.39,771.19,648.64s-95.56,58-95.56,58c-34.82,0-77.69,8-118.77,11.61a661.71,661.71,0,0,1-111.62,0c-31.26-2.68-107.17-12.5-132.17-25.89S278.24,671,247,654.89s-33.94-18.75-61.62-38.4-62.51-70.55-75.91-108.95,0-40.19,7.14-74.12,20.54-50.9,22.33-86.62,42-32.15,69.66-46.44,38.4-31.26,64.29-45.54,50.91-17.86,69.66-29.47,134-11.61,182.17-7.15,76.8,8.93,108.95,12.5S714.93,249.46,748,258.39s50,40.18,76.8,60.72S870.31,345.9,873,366.44,890.85,414.67,897.1,429,895.32,491.47,897.1,507.54Z"/><path class="cls-4" d="M58.56,437.89c5.36,25.89,17,75.9,12.5,97.33S66.6,571,80.88,587.91s28.58,25.9,54.48,44.65,38.4,33.94,56.26,54.48S206.8,707.58,247,721s74.12,17,92.87,29.47,33,22.33,59.83,22.33,50-8,67,0,32.15,5.36,61.62,0,46.43-4.47,76.8-5.36,49.11,8,83-9.82,29.47-25,70.55-41.08,50.9-27.69,61.61-34.83,23.22-43.76,55.37-58.94S906,621,920.32,594.16s-.8-88.64,7.64-102.36,8.44-33.38,8.44-53.91V384.3s-10.72,64.3-16.08,97.34,1.79,57.16-6.25,75-24.85,32.39-42.34,45.21S831,641.49,814.05,659.35a193,193,0,0,1-58.94,42.87C731,713.83,694.39,729,665.81,732.58s-45.75,7.5-74.67,10.45-66.43,19-111.08,13.66-64.29-8.93-83.94-8.93S355,716.51,318.43,711.15s-38.4,1.79-60.73-6.25-8,10.71-31.25-13.4-19.65-24.11-50-45.54-48.23-25.9-61.62-46.44-20.54-17-22.33-40.18S80.88,467.35,74.63,445s-7.14-42.87-3.57-53.58,7.14-38.4,7.14-38.4S53.2,412,58.56,437.89Z"/><path class="cls-4" d="M799.32,281.16c2.93,2.71-43.1-36.93-71.56-43.47s-61.5-7.43-91.86-11-102.7-18.76-138.42-18.76-61.62-4.46-90.2,0-90.19,22.33-102.69,25-44.66,16.07-58,24.11S222.43,283.84,209,287.41s-37.5,19.65-24.11,8.93,33.16-41.4,69.27-58.65,45.93-19.93,95.05-31.54,67-17.86,120.55-15.18S532.3,191,577,199.9s63.88,8.76,98.91,15.54,32.36,5.89,64.51,15.71S787.71,270.44,799.32,281.16Z"/></svg>