<svg id="Layer_1" data-name="Layer 1" xmlns="http://www.w3.org/2000/svg" viewBox="0 0 1000 1000"><defs><style>.cls-1{fill:#979191;stroke:#686868;}.cls-1,.cls-10,.cls-11,.cls-13,.cls-16,.cls-18,.cls-19,.cls-2,.cls-20,.cls-22,.cls-4,.cls-5,.cls-7,.cls-8{stroke-miterlimit:10;}.cls-1,.cls-10,.cls-11,.cls-13,.cls-16,.cls-19,.cls-2,.cls-22,.cls-4,.cls-5,.cls-7,.cls-8{stroke-width:3px;}.cls-10,.cls-11,.cls-2{fill:#fed1a5;}.cls-19,.cls-2{stroke:#d6a47c;}.cls-3{fill:#eabf98;}.cls-4{fill:#01bd7e;}.cls-10,.cls-4{stroke:#038c5b;}.cls-5{fill:#2c3992;stroke:#1b2d87;}.cls-6{fill:#252f64;}.cls-7{fill:#bce4e7;stroke:#4f8c8e;}.cls-8{fill:#283f8e;stroke:#112c77;}.cls-9{fill:#04aa6e;}.cls-11,.cls-16,.cls-22{stroke:#d3a885;}.cls-12,.cls-16{fill:#ffb092;}.cls-13{fill:#452b1e;stroke:#2b1a13;}.cls-14{fill:#655244;}.cls-15{fill:#191818;}.cls-17{fill:#fff;}.cls-18{fill:#a2ddeb;stroke:#7fdfef;}.cls-18,.cls-20{stroke-width:2px;}.cls-19,.cls-22{fill:none;}.cls-20{fill:#abdfff;stroke:#80c0e0;}.cls-21{fill:#f42525;}</style></defs><title>fever</title><path class="cls-1" d="M510.5,944.5v11s51.73,11,78.6,9,40.79-6,44.76-16,1-9-2-13S510.5,944.5,510.5,944.5Z"/><path class="cls-2" d="M471.4,731.07s-7.8,53.67-9.86,65.67-11.6,63.64-13,78.52-4.55,28.65-5.76,31.35-27.64,16.21-33.42,5.4-6.92-41-5-62.33c1.87-20.55,2.68-40.08,3.44-48.45s-9.41-56.17-4.89-95.14,71.29-6.64,71.29-6.64Z"/><path class="cls-2" d="M572.52,728.82s-2.81,54.16-3.74,66.3-5.6,64.43-5.6,79.37-1.87,28.94-2.8,31.75-29,26.14-32.68,9.33c-2.64-11.85-11.21-63.49-9.34-84s-2.8-35.49-3.74-43.89-11.2-38.29-10.27-77.5,68.17-13.08,68.17-13.08Z"/><path class="cls-3" d="M510.89,748.43s8.4,47.62,10.27,53.23,2.8,34.54,1.87,43,.93,44.82,1.86,47.62,1.87,5.6,7.47,5.6,10.28,0,7.47-2.8-8.4-13.07-8.4-24.28-1.87-81.23-2.8-90.57-8.4-40.15-8.4-40.15Z"/><path class="cls-3" d="M453,748.43v31.75c0,9.34-1.87,35.48-3.74,48.55S439,873.55,439,879.16s-4.67,18.67-4.67,18.67,5.6,0,7.47-1.87,14.94-83.1,14.94-83.1l9.34-70L453,747.5Z"/><path class="cls-2" d="M546.82,399.33s15.28,77.47,17.9,92.54c3.09,17.76,8,59.47,6.52,63.68s-3.5,17.22,0,25.17,6,.3,6,.3-1.94,17.35,3.33,19.75,18.93-8.28,21.52-11.61,1.56-37.44-1.86-41.06c0,0-2.57-47-8.63-81.55,0,0-10.53-72.27-15.86-83.72S546.82,399.33,546.82,399.33Z"/><path class="cls-4" d="M543,333s33,0,36,20,11.57,64.67,8.78,74.83S551,438,543,435,543,333,543,333Z"/><path class="cls-5" d="M397.7,578.32s-6.31,39.68-7.07,60.28-1.13,93-1.13,93,35.15,13.44,50.29,19,44.95,2.5,44.95,2.5l6.84-68.82s.56,23.57,1.22,32.11-.15,36.65-.15,36.65,60.18-3.28,70.45-5.84S592,734.61,592,734.61,579.54,635.37,578.39,624s-6.69-42.15-6.69-42.15l-37.84,4Z"/><path class="cls-6" d="M496,682.13s10.27,35.49,14,42,10.28,9.34,21.48,10.27,41.09.94,44.82.94,7.47.93,6.54,0-18.68,7.47-42,9.34S496,748.43,496,748.43Z"/><path class="cls-6" d="M559.44,592.49s11.21,11.21-4.67,15.88-40.15,5.6-62.56,6.53S453,612.1,440.86,614s-17.74,3.74-21.48,12.14-3.73,18.67-6.54,36.42-3.73,19.6-4.66,37.35-11.21,24.27,3.73,29.88,42.95,8.4,48.56,9.33,15.87,1.87,17.74.94,5.6-10.27,5.6-10.27l-1.87,20.54s-23.34,1.87-40.15-3.74-48.55-17.74-48.55-17.74,1.86-87.77,1.86-91.51,2.8-29.88,3.74-35.48,7.47-18.67,7.47-18.67Z"/><path class="cls-7" d="M403.5,902.5s-4-26-2-26,48,3,48,4-4,29-4,29-26,13-31,10S403.5,902.5,403.5,902.5Z"/><path class="cls-7" d="M524.5,909.5l-4-25s44-5,44-2-3,36-4,36S535.5,918.5,524.5,909.5Z"/><path class="cls-8" d="M559.66,905.5s1.22-.07,8,4c5,3,5.5,7.38,20,9,35.82,4,32.28,4,39.24,10s12.93,13,6,18-27.86,14-62.68,11a489.39,489.39,0,0,1-59.69-8.63s-3.79-14.37,5.16-36.37c2.14-5.26,3.6-8.78,7-10,5.42-1.94,7.05,4.44,12,7s19,0,19,0Z"/><path class="cls-1" d="M391.5,932.5s-1.95,21,8,25,54.28,16,75.17,19,30.84,1,32.83-3,0-15,0-15Z"/><path class="cls-8" d="M446.58,902.12a5.36,5.36,0,0,1,5.17,1.87c4.56,5.58,16.43,19,28.89,24.51,15.92,7,25.87,14,26.86,29v9.63s-1,8.37-31.84,3.37-71-16.63-84.16-29c0,0-1-24,4.57-39,2.21-6,4.95-5.41,7.71-4a20.07,20.07,0,0,1,5.54,4.21,9.73,9.73,0,0,0,4.29,2.66h0a57.55,57.55,0,0,0,20.78,2.42h0a15.92,15.92,0,0,0,8-2.79Z"/><path class="cls-4" d="M574.88,585.5s-70.63,18-104.46,19-75.61-19-75.61-19-4-148,0-172,29.85-100,29.85-100a97.65,97.65,0,0,1,31.83,2c16.92,4,26.86,12,29.85,13s56.71,5,56.71,5,10,93,16.91,134S577.87,553.5,574.88,585.5Z"/><path class="cls-9" d="M470.42,324.5c-1,0-28.85-9-34.82-7s-3,35-10,58-27.85,43-26.86,67-4.12,134.68.93,136.34,36.88,21.66,70.7,18.66,82.58-15,84.57-15,9.94-6,9.94-6-83.37,15.25-96.9,10.62-34.42-19.62-39.39-29.62-9-56-9-75,13.93-79,16.92-90,15.91-37,16.91-43,3-17,8-19A30.6,30.6,0,0,0,470.42,324.5Z"/><path class="cls-2" d="M408.74,418.5s-6.12,78.73-7,94c-1,18-1,60,1,64s5.53,16.7,3,25-6,1-6,1,4,17-1,20-19.9-6-22.88-9-6-37-3-41c0,0-3-47-1-82,0,0,2-73,6-85S408.74,418.5,408.74,418.5Z"/><path class="cls-4" d="M415.7,426.5c1-1,30.84-89,30.84-95s-5-18-10.94-19-24.87-5-40.79,13-36.81,89-36.81,89,15.92,9,29.85,12S415.7,426.5,415.7,426.5Z"/><path class="cls-10" d="M486.34,328.5s4,10,10,13,23.88,1,27.85,0,10-9,10-9-16.91-17-29.84-17S486.34,328.5,486.34,328.5Z"/><path class="cls-11" d="M642.91,179.58S622.8,254,618.23,267.77s-8.68,39-39.76,50.07-55.75,19.29-77.68,12.86-68.55-37.66-78.6-60.63-11.88-41.34-11.88-41.34-21.94-3.67-31.08-27.56-4.57-42.26,0-45.93,15.54-8.27,28.34,0c0,0,39.3-15.62,103.27-14.7S642.91,179.58,642.91,179.58Z"/><path class="cls-12" d="M432.7,171.31c6.4-1.83,19.19-1.83,29.25-2.75S480.6,175.24,487,178s23.52,9.08,29,10,39.34,19.08,43,20,15.43,1.24,20,4,9.69.08,17,1,12.92.55,18,1,6.94,2.31,12.42,3.23c.87.14,9.75-13.95,7.55-16.25-3-3.15-17.64-13.26-24-19-18.57-16.75-46-21.71-46.61-21.71-.91,0-59.4-19.29-64.89-22s-64.89-10.1-64.89-10.1Z"/><path class="cls-13" d="M487.08,50.51s22.85-15.61,45.7-13.78,22.84,10.11,22.84,10.11,73.12-1.84,96,24.8S665.3,113,665.3,113s20.29,18.64,21.2,42.52.23,51.84-8,50-23-7-23-7,17.62,22.92,3,22-63.43-35.33-68-39-6,12-17,12-71.8-19.89-86.42-30-27-9.36-29.49-19.84c0,0,.24,26.27-12.55,27.19s-12.8,23.88-12.8,23.88-13.71-28.48-19.19-34-19.84-12.74-26.83-9.12-9.07,5.83-10.31,9.31-8.56,1.65-4-24.07c2.45-13.78,9.14-18.38,9.14-18.38A36,36,0,0,1,385.63,90c6.94-11.15,13.71-38.58,58.49-32.15,0,0-30.16-12.86-19.19-15.61s36.56,10.1,36.56,10.1,11-35.83,18.28-30.32S487.08,50.51,487.08,50.51Z"/><path class="cls-14" d="M655.24,110.22s-8.22-38.58-32-46.85-64-8.26-75.86-7.35-.92-10.1-9.14-11-36.56,7.35-46.61,11.94-21,11-19.19,4.6,2.74-17.46-1.83-9.19-6.4,10.11-11,7.35-11-5.51-8.23-.92,7.32,5.51-7.31,6.43S396.6,84.5,392.94,92.77s-5.48,24.8-1.83,23S446,72.56,451.43,75.32s17.37-1.84,17.37-1.84,29.25-7.35,43-5.51,32.9,7.35,41.12,11,42-11,54.84,0,35.64,42.26,38.38,50.53,5.49,42.25,11.89,44.09,1.82,24.8,8.22,26.64,14.62-.92,11.88-13.78S674.44,147,668,134.11,655.24,110.22,655.24,110.22Z"/><path class="cls-12" d="M406.19,209c.71-2.82-7.31-7.35-3.65-14.7s3.65-7.35.91-13.78-1.82-11-8.22-11-11,1.83-6.4,4.59,11,8.27,10.05,11.94-6.39,10.11-5.48,13.78,3.66,7.35,6.4,10.11S405.28,212.65,406.19,209Z"/><path class="cls-13" d="M526.84,208.06s-6.4-12.86-15.54-11.94-15.54,2.75-15.54,4.59,2.74,5.51,8.23,4.59,12.79,0,13.71,0S526.84,208.06,526.84,208.06Z"/><path class="cls-13" d="M595.38,220s7.31-4.59,11.88-4.59,10.87.92,12.29,2.3-.41,7.8-5,6.89-13.71,0-15.53,0S594.47,220.92,595.38,220Z"/><ellipse class="cls-15" cx="510.61" cy="236.74" rx="11.28" ry="10.24" transform="translate(226.49 722.58) rotate(-84.56)"/><path class="cls-16" d="M555,258.42a26.73,26.73,0,0,0,2.74,12.86c1.83,3.68,4.57,5.52,0,8.27s-13.71,1.84-14.63,0"/><ellipse class="cls-17" cx="515.87" cy="234.58" rx="3.34" ry="3.36"/><ellipse class="cls-15" cx="591.04" cy="250.52" rx="11.28" ry="10.24" transform="translate(285.57 815.12) rotate(-84.56)"/><ellipse class="cls-17" cx="596.29" cy="248.36" rx="3.34" ry="3.36"/><path class="cls-18" d="M548.36,284.82s6.4,10.11,3.66,15.62-8.22,4.59-9.14,1.83S544.71,287.58,548.36,284.82Z"/><path class="cls-9" d="M435.6,320.5s-24.87,0-32.83,8-25.87,44-28.85,57a232.13,232.13,0,0,1-7,24s12.94,6,15.92,7,25.87,0,25.87,0-37.81-3-28.85-26S411.72,324.5,435.6,320.5Z"/><path class="cls-19" d="M389.5,308.5c-5,0-10,4-10,9s-3,8-8,12-3,9-6,16-9,5-10,15,4,16,0,21"/><path class="cls-19" d="M608.5,420.5s7,5,3,10-3,8-1,11,3,8,2,11-4,7-2,10,8,5,6,11"/><path class="cls-19" d="M354.5,160.5c-2,5,4,9,3,14s-9,3-3,13,13,7,12,17-5,16-1,21"/><path class="cls-19" d="M667.5,225.5s5,7,1,12-6,2-7,8,4,11,1,15-10,2-10,9,4,11,0,15"/><path class="cls-12" d="M505,258c-1,1-13-3-19-7s-15-9-20-10-12,0-15,2-9,2-4,9,15,12,28,14,30,9,32,2S505,258,505,258Z"/><path class="cls-12" d="M600,276c-4,0-16-3-20-3s-10,5-8,8,12,8,19,8,13-2,14-4S600,276,600,276Z"/><path class="cls-20" d="M512.53,296.7S528,358,529,360s6,2,8-3-19.37-58.82-19.37-58.82Z"/><path class="cls-21" d="M515,298s14,54,15,55,5,2,4,0-18.15-55.34-18.15-55.34Z"/><path class="cls-22" d="M534,305.9s-17.37-11.95-38.39-11"/></svg>