<svg id="Layer_2" data-name="Layer 2" xmlns="http://www.w3.org/2000/svg" viewBox="0 0 1000 1000"><defs><style>.cls-1,.cls-13{fill:#fed1a5;}.cls-1{stroke:#d6a47c;}.cls-1,.cls-13,.cls-15,.cls-16,.cls-2,.cls-3,.cls-4,.cls-6,.cls-8{stroke-miterlimit:10;}.cls-1,.cls-13,.cls-2,.cls-3,.cls-4,.cls-6,.cls-8{stroke-width:3px;}.cls-2{fill:#383b44;}.cls-2,.cls-3{stroke:#1b1c1e;}.cls-3{fill:#323232;}.cls-4{fill:#0960a7;stroke:#063454;}.cls-5{fill:#0f497e;}.cls-6{fill:#60ad4b;stroke:#3c7f26;}.cls-7{fill:#3c7f26;}.cls-8{fill:#452b1e;stroke:#2b1a13;}.cls-9{fill:#ffb092;}.cls-10{fill:#655244;}.cls-11{fill:#191818;}.cls-12{fill:#fff;}.cls-13{stroke:#eabf98;}.cls-14{fill:#e8bd97;}.cls-15{fill:#cc2723;}.cls-15,.cls-16{stroke:#d32924;}.cls-16,.cls-17{fill:#cc231b;}</style></defs><title>bleed</title><path class="cls-1" d="M418,676.73s2.9,76.42,6.77,84.16c0,0,2.7,65.89,4.25,99.69s45.08,20.26,45.08,20.26,10.64-81.25,12.58-100.6S477,697.05,477,697.05Z"/><path class="cls-1" d="M520.32,733.81l3.87,5.8s-9.68,29-3.87,56.11,7.74,34.82,11.6,59,3.87,31.93,3.87,31.93l42.57-2.91s8.7-74.48,8.7-87.06,3.87-32.89-10.64-62.87S520.32,733.81,520.32,733.81Z"/><path class="cls-2" d="M600.44,922.62s5.64,14.88,1.22,20-28.76,24.92-52.25,20.75-28.91-4.23-30.7-13.61-.16-21.16-.16-21.16l30-9.38Z"/><path class="cls-3" d="M520.65,920.26s12.13-49.87,14.21-50.26-.25,4.37,6.21,4.22,10.53-12.81,30.45-4.72c0,0,6.63,2.06,6.32,2.62s3.26-3.36,3.66-1.27,22.19,54.13,19.66,57.86-29.4,27.21-48.13,25.37-32.48-.3-35.11-8.44S520.65,920.26,520.65,920.26Z"/><path class="cls-2" d="M486.82,911.58s10.62,14.86-20.17,19.11-81.76,7.43-83.88,7.43-22.3,2.12-27.6-3.18a23.8,23.8,0,0,1-6.37-11.68l94.49-12.74Z"/><path class="cls-3" d="M426.3,859.55c-1.46.35-28.66,20.17-36.1,24.42s-19.11,10.62-24.42,12.74-14.86,13.81-15.92,18-6.37,13.81,12.74,17,94.49-10.62,104-14.86,20.17-1.07,20.17-8.5-5.31-47.78-8.49-48.84-3.83,9.77-9.35,11.79-19.32,4.14-20.38.95S444.35,855.3,426.3,859.55Z"/><path class="cls-2" d="M438,861.68s-1.06,9.55-5.31,14.86-8.49,7.43-18.05,10.62-14.86,6.37-23.35,7.43S378,890.71,378,890.71l48.29-29,5.31-2.13Z"/><path class="cls-2" d="M539.9,874.18s-.92,23.13-.52,25.22-1.94,6.85,3,10.23,18.47,6.21,23.29,3.13,8.74.5,9.24-8.24,2.59-31.84,2.59-31.84-12.22-7.4-18.28-5.17S542.06,874.6,539.9,874.18Z"/><path class="cls-4" d="M418.26,595s-14.51,59-13.54,87.06,3.87,50.31,3.87,50.31,44.5,22.24,91.9,9.67c0,0,51.26,31.92,103.5,0,0,0,9.67-100.6,0-139.3Z"/><path class="cls-4" d="M480.17,656.9s13.54,14.51,14.51,29S500.49,742,500.49,742"/><path class="cls-5" d="M468.56,625s53.21,17.41,63.85,21.28,20.31-3.87,27.08,13.55,9.68,20.31,9.68,42.56-4.84,43.53-5.81,45.46a9.72,9.72,0,0,0-1,3.87s38.69-8.7,39.66-12.57,5.8-127.69-5.81-150.91S462.76,609.5,462.76,609.5Z"/><path class="cls-5" d="M473.4,655s13.54,17.41,14.51,20.31,4.84,17.42,3.87,21.28,5.8,42.57,5.8,42.57-26.11,3.87-30,2.9S477.27,678.19,473.4,655Z"/><path class="cls-6" d="M452.12,392.82c-5.8,0-39.66,9.68-60,75.45l-2.9,11.61,26.12-7.74L431.81,477l11.6,4.84,9.68-89Z"/><path class="cls-7" d="M444.38,398.68S427,420.87,420.2,434.42s-13.55,35.79-13.55,36.76,31.93,3.87,31.93,3.87Z"/><path class="cls-1" d="M496.62,376.38s-1,7.74-3.87,7.74-6.47,2.84-6.47,2.84,6.47,14.57,29.68,11.67,31-5.81,31-5.81-1-13.54-1.94-16.44S496.62,376.38,496.62,376.38Z"/><path class="cls-6" d="M537.24,394.76c-1,0-18.37,9.67-33.85,4.83S485,384.12,485,384.12s-36.76,5.8-38.69,8.7-10.65,38.7-9.68,84.16-13.54,83.19-18.38,94.8-8.7,31-8.7,33.86,32.89,29,106.4,26.11,93.83-15.47,95.77-23.21-10.64-47.4-10.64-61.91,10.64-84.16,6.77-105.44-1-27.09-37.73-45.47-32.89-2.9-32.89-2.9Z"/><path class="cls-6" d="M574,422.81c-1-2.9-11.6-15.48-21.28-18.38s-18.38-1-17.41-2.9,9.67-7.74,14.51-8.71,37.73,13.54,41.6,19.35S574,422.81,574,422.81Z"/><path class="cls-7" d="M564.33,532.12s-6.77,36.76-17.41,52.23-27.09,12.58-13.54,19.35,15.47,7.74,12.57,13.54L542.08,625s63.85-11.61,65.78-15.48-10.64-51.26-10.64-61.9S604,494.39,604,494.39l-9.17-22-26.66,14.83Z"/><path class="cls-6" d="M486,385.08a22.09,22.09,0,0,0,18.38,12.58c13.54,1,28-2.9,30.95-3.87s9.93-5.39,9.93-5.39l1,12.86s-37.07,9.94-52.55,3.17-19.34-19.35-19.34-19.35S482.11,383.15,486,385.08Z"/><path class="cls-8" d="M381.57,224.49l11.51,34.42s12.55-11.9,11.37-14.21-7.88-32-7.88-32Z"/><path class="cls-1" d="M397.46,242.08s-11.26-5-15-4-9.94,5.22-10,8.61-2.78,14.57,1.9,25,18,18.87,24.1,20.27S397.46,242.08,397.46,242.08Z"/><path class="cls-9" d="M391.45,276.93s-6.11-1.4-6-5.92,3.83-6.62,2.68-10.06-1.1-5.7-3.53-6.93a10.14,10.14,0,0,0-3.65-1.29s2.63-7.8,6.26-5.38a13.9,13.9,0,0,1,5.88,11.56C393,263.43,391.45,276.93,391.45,276.93Z"/><path class="cls-1" d="M629,308.71s2,21.57-14.27,34.43-69.61,37.68-95.45,40-84.53-9.32-105.9-41.91-16-55-14.46-67.33-2.7-44.21-5.9-65.84,9.65-47.06,72.27-46.61,136.15,7,156.78,18.11,15.41,79.81,15.41,79.81,17.4-9.42,24.71-6.84,19.27,16.66,15.34,27.8-9.12,23.35-27.62,27.07S629,308.71,629,308.71Z"/><path class="cls-9" d="M637.91,293.27c.89-.76,4.89,1.34,6.21-3.12s1.36-5.6.18-7.91.18-7.91,2.71-11.19,7.54-7.59,12.42-6.24,8.48,4.89,8.41,8.28,1,8-1.35,5.59-6-5.91-9.72-4.94-8.64,1.88-7.51,6.45,1,8-.25,11.3-2.61,6.67-6.29,6.51-4.93.92-4.91-.21S636.66,294.35,637.91,293.27Z"/><path class="cls-8" d="M647.94,119.59c.1-4.52-20.8-58.57-40.28-66.19s-43.83-16.6-45.14-13.27,8.29,13.93-2.63,7.8S527.05,34.07,516,33.59,480.35,35.44,477.77,41s-78.72,5.63-93.69,16.28-9.14,24.48-9.14,24.48-19,26.31-24.32,44.17-10.63,35.72-7.07,41.53,15.62,15.37,18.1,14.35-4.46,34.86,1.52,41.9,3.45,10.33,12.09,8.44,37-7.44,61.9-22.19c0,0,21.62,21.29,76,4.43,0,0,1.13,4.57,13.42,4s51.6-1.15,69-11.7c0,0,7.06,13.87,14.17,25.49s13.27,10.75,14.52,9.67,1.9,25,3,29.53,7.59-9.85,11.32-11.95,17.43-10.55,23.49-6.89,5.87,7.42,8.4,6.21,23-37.64,22.1-52.37c0,0,3.63,2.41,7.46-4.2s-4.94-53.36-25.55-65.56c0,0-10.79-11.77-21.85-11.12,0,0-.75-21.52-2.05-18.18S647.94,119.59,647.94,119.59Z"/><path class="cls-10" d="M631.84,125.67c-2.28-8-18.77-39.25-32.09-47.74s-23.31-1-24.62,2.32-23-12.31-35.24-16.23S519.28,51.82,502,55.6s-37.14,13.08-53,10.13-34.17-9.39-41.76.45-23.91,26.1-27.82,36.11-21.74,38.63-14.3,35.56,35.43-47.08,63.73-49.25,44.59-17.28,75-3.53,42.92,3,39.29.57-7.21-7.09,15.79,7.47,28.27-1,41.51,10.85,15.5,21,25.14,29.35,31.69,10.42,40,23.22,13.91,36.79,15.34,27.8-4.3-27.32-13.94-35.65S631.84,125.67,631.84,125.67Z"/><path class="cls-8" d="M551.25,237.26a1.61,1.61,0,0,1-1.32-2.78c4.43-3.66,12.7-9,20.66-6.3,11.67,4,19.47,8.17,18.91,10.36s-5.27,5.7-12.15,2.88-16.73-4-17.92-4.32A78.42,78.42,0,0,0,551.25,237.26Z"/><path class="cls-8" d="M453.82,226.61s-9.86-5.84-16-6-14.59.86-16.48,2.53.62,9.62,6.74,8.6,18.41.33,20.86.38S455.06,227.76,453.82,226.61Z"/><ellipse class="cls-11" cx="559.09" cy="276.75" rx="13.77" ry="13.86" transform="translate(-12.73 27.35) rotate(-2.77)"/><ellipse class="cls-12" cx="552.34" cy="272.9" rx="3.97" ry="4.33" transform="translate(196.62 775.9) rotate(-81.03)"/><ellipse class="cls-11" cx="449.73" cy="270.88" rx="13.77" ry="13.86" transform="translate(-12.57 22.06) rotate(-2.77)"/><ellipse class="cls-12" cx="442.98" cy="267.02" rx="3.97" ry="4.33" transform="translate(110.12 662.93) rotate(-81.03)"/><path class="cls-13" d="M491.23,290.35c-1.68,6.57-4,10.65-7.51,14.45s-7.66,5.13-2.53,9.84,17.36,6.51,19.12,4.61"/><path class="cls-8" d="M595.64,206.81s22.26,18.07,36,18,8.22,5.77,21.93,5.7,23,7.09,32,.07l4-8.93"/><path class="cls-1" d="M465.55,342.05s31.91-.87,62.87,1.69"/><path class="cls-1" d="M582.71,510.83h0c-.08.23-16.46,46.45-24.18,55.13s-23.22,24.19-39.66,15.48-20.32-24.18-18.38-59,6.77-48.36,2.9-79.32-1.94-42.56,7.74-51.27c9.32-8.39,9.66-4.19,9.67-3.88h0c.36-.33,11.65-10.52,15.46-3.88h0c.17-.23,7.8-10.51,13.54,0h0c.13,0,10.61-.92,4.84,7.73s-8.61,19.94-8.71,20.31h0c.31-.11,7.75-2.85,8.7-1S552.72,435.38,545,446c-7.59,10.44-.27,43.26,0,44.46h0l4.83-15.43h0Z"/><path class="cls-1" d="M545,490.52s16.45,39.66,11.61,60.94c0,0-1,4.84-3.87,7.74"/><path class="cls-1" d="M393.11,481.82s-7.74,18.38-7.74,34.82S398,559.2,441.48,540.82c0,0,37.72-18.38,42.56-18.38s36.76,4.84,47.4-5.8,5.8-12.57,5.8-12.57a14.26,14.26,0,0,0,1.94-13.55s5.8-6.77-1.94-8.7c0,0,8.71-7.74,1-10.64s-5.8,9.67-18.38,10.64-17.41,1.93-17.41,0,4.84-11.61,1-10.64-24.19,20.31-31.92,22.24-33.86,1.94-37.73,1.94,1-11.61,1-11.61l-21.28-8.7Z"/><path class="cls-1" d="M433.74,495.36a45.29,45.29,0,0,0-27.09,3.87"/><path class="cls-6" d="M436.52,489.65s-21.16-8.8-32.77-8.8-14.51,10.64-14.51,10.64a44.22,44.22,0,0,1-2.9-7.74c-1-3.87,5.19-13,5.19-13s18.75-11.55,45,4.11"/><path class="cls-6" d="M587.55,513.74c1-1.94,19.24-38.95,20.74-48s2.8-39.88-7.52-49.14-19-17-36.44,4.28c0,0-19.35,45.47-20.31,52.24S587.55,513.74,587.55,513.74Z"/><path class="cls-6" d="M541.94,470.74s16.59,3.34,49.48,39.13l-5.81,17.41s-14.51-20.31-26.12-28S545,488.59,545,488.59"/><path class="cls-7" d="M602.06,423.78s0,31.92-6.78,45.46-12.57,24.18-12.57,24.18l6.77,8.71s18.38-34.82,17.41-43.53S608.83,429.58,602.06,423.78Z"/><path class="cls-14" d="M391.18,529.22s12.57,8.7,20.31,8.7,25.15-2.9,31.92-4.83,22.25-9.68,27.09-10.65S485,520.51,486,520.51s-14.51,2.9-37.73,15.48-47.4,7.74-51.27,1.93Z"/><path class="cls-15" d="M508.22,426.68s-1,4.84,0,3.87,2.91-2.9,2.91-1,1,4.84,1,6.77-1,2.9,0,3.87,0,3.87,1,2.9a13.67,13.67,0,0,0,1.94-3.87,4.77,4.77,0,0,1,2.9,1c1,1-1,1.94,0,3.87s0,1,1,1.94,2.9,1,2.9-1.94v-8.71c0-1,0-1.93,1-1s1.94,2.9,1.94,1v-8.7Z"/><path class="cls-16" d="M506.29,426.68s9,1,9.67,1,10.64-1,10.64-1a74.71,74.71,0,0,0-8.7-1A51,51,0,0,0,506.29,426.68Z"/><line class="cls-6" x1="436.52" y1="472.42" x2="436.42" y2="491.92"/><line class="cls-1" x1="541.7" y1="467.5" x2="544.98" y2="492.46"/><path class="cls-17" d="M512.09,426.68a3.54,3.54,0,0,1,1,2.9c0,1-1,0,0,1.94s1,1.93,1.94,1.93,1-1.93,1.93-1.93,1.94,0,1.94,1,0,0,1-1,1-1,1.94-1,1.93,0,1-1-1.82-2.9-2.36-2.9Z"/></svg>