<svg id="Layer_2" data-name="Layer 2" xmlns="http://www.w3.org/2000/svg" viewBox="0 0 1000 1000"><defs><style>.cls-1{fill:#583319;stroke:#42230f;}.cls-1,.cls-13,.cls-2,.cls-4,.cls-5,.cls-7,.cls-9{stroke-miterlimit:10;}.cls-1,.cls-13,.cls-2,.cls-4,.cls-5,.cls-9{stroke-width:3px;}.cls-2{fill:#895f6b;stroke:#704b57;}.cls-3{fill:#7a4d5e;}.cls-4{fill:#fed1a5;}.cls-13,.cls-4{stroke:#d1a682;}.cls-5{fill:#8fad65;stroke:#7b9650;}.cls-6{fill:#76944e;}.cls-7{fill:#f8b212;stroke:#f70b16;}.cls-8{fill:#ffb092;}.cls-9{fill:#a3afbd;stroke:#8e949b;}.cls-10{fill:#acb8c1;}.cls-11{fill:#231f20;}.cls-12{fill:#fff;}.cls-13{fill:#e49ca0;}</style></defs><title>backache</title><path class="cls-1" d="M310.5,858.5s-32,32-18,44,83,13,89,11,19-7,8-17-36-32-36-32Z"/><path class="cls-1" d="M551.5,868.5s-5,31,4,37,65,12,74,12,31-2,19-17-43-42-50-42S551.5,868.5,551.5,868.5Z"/><path class="cls-2" d="M325.5,522.5s-19,79,4,128,31,80,31,80-66,126-67,128,20,10,37,13a72,72,0,0,0,30-.83s76-94.17,85-109.17,20-39,9-79-12-59-12-59,84,86,86,94,17,154,17,155,37,3,50,3A86.12,86.12,0,0,0,619.36,872S624.5,705.5,617.5,688.5s-75-140-75-140l-113-17Z"/><path class="cls-3" d="M358.5,705.5s-28-61-28-67-9-35-6-62,6-34,14-34,137,25,148,23,55-13,56-7,31,62,29,60-35-27-58-25-48,11-56,13-9,13-23,4-28-13-39-16-24-9-37-6-17-1-19,17S358.5,705.5,358.5,705.5Z"/><path class="cls-3" d="M302.5,856.5s28,10,39,10,22-4,32-18,28-38,28-38-42,35-53,40-35,2-38,2,5-23,5-23S299.5,852.5,302.5,856.5Z"/><path class="cls-3" d="M539.5,768.5s7,80,8,85-1.6,17.18,3.7,17.09,43.3-.09,43.3-.09h17s-49,0-55-22-10-74-11-76-11-46-11-46Z"/><path class="cls-4" d="M760,484s14,3,20-3,30-3,36,4,3,24-2,31-17,17-22,14,1,12,1,12-5,5-16-5-32-20-32-20Z"/><path class="cls-4" d="M306.5,462.5s4,26,4,32-6,18-4,23,5,11,7,12,27-30,31-39,0-32,0-32Z"/><path class="cls-4" d="M587.5,336.5s-10,38-12,42-30,5-33,3-18.36-35.88-18.68-38.94,4.68-21.06,4.68-21.06Z"/><path class="cls-5" d="M302.5,468.5c2,0,40-4,45-7s0-74,0-74l79-17s-81,91-94,117-19,44-17,48,34,41,76,48,92-1,112-5,45.74-17.78,45.74-17.78,5.26-34.22,8.26-40.22,37-68,37-73,29,67,55,72,103,16,106,13,13-58,7-58-73-5-82-10-41-94-57-104-33-21-38-20-14,35-21,35-25-21-27-28-6-18-6-18-52-18-101-17-117,23-125,28-14,15-12,61S302.5,468.5,302.5,468.5Z"/><path class="cls-6" d="M430.5,373.5s-53,63-56,65-15,21-16,23,10-11,14-12,18,12,22,16,3,2,1-7-5-14-4-23,17-28,24-36S430.5,373.5,430.5,373.5Z"/><path class="cls-6" d="M328.5,503.5s-8,25-7,29,32,28,40,32,23,8,34,10,60,4,62,2,24-3,32-5,35-9,39-12,12-9-16-5-67,8-87,5-50-14-59-23-20-22-20-28S333.5,487.5,328.5,503.5Z"/><path class="cls-6" d="M611.5,474.5l-12-25s-7-8-8-7-12,18-14,25-15,29-16,32-10,31-12,33-19,3-21,4-14-1-14-2,18-5,26-12,13-22,16-30,12-28,17-34,17-22,20-22,13,3,18,15-4,17,10,31,17,18,32,24,42,13,48,14,18,4,15,4-51-6-59-8-20-10-24-13S611.5,474.5,611.5,474.5Z"/><path class="cls-6" d="M343.5,388.5s3,48,3,52v18l-15,4s8-9,9-15,2-37,1-44-5-17-3-21,19-13,27-13,33,2,33,2-33,6-40,8S343.5,384.5,343.5,388.5Z"/><polygon class="cls-7" points="293.5 477.5 264.5 458.5 261.5 467.5 293.5 477.5"/><polygon class="cls-7" points="293.5 486.5 261.5 482.5 261.5 489.5 293.5 486.5"/><polygon class="cls-7" points="293.5 496.5 264.5 510.5 271.5 522.5 293.5 496.5"/><path class="cls-4" d="M688.81,214.24s19.61,4.65,16.94,22.26-22,21.82-22,21.82S680,316.4,668.72,327.69s-31,26.73-79.76,23.11-95.51-20.75-95.51-20.75-35.39-15.42-46.12-43a155.5,155.5,0,0,1-.22-47.81s-25.78-7.67-26.61-24.14,8.87-23,17.22-23.37S458.85,189,458.85,189s-10.21-28.36,14.81-43,99.56-19.69,99.56-19.69l94.24,42.77Z"/><path class="cls-8" d="M447.35,226.69c-.28-.88-.6-4.28-1.41-4.4s-3-2.13-2.68-4.18,3.89-1.09,2.71-4.2-.35-5.92-2.47-8.34-3.84-4.77-7.2-4.44-4.52-.26-6.05,1.6A15.6,15.6,0,0,0,428,207c-.59,1.17.13,4.63.13,4.63s.46-5.8,1.39-6.49,4.9-2.2,7.2-1,4.9,3.26,5.52,4.61,2.81,3.36,1.35,4.81-4,4.43-3.83,6.13,1.81,4.46,2.37,6.22,1.75,4.88,2.5,5.41S447.63,227.57,447.35,226.69Z"/><path class="cls-8" d="M684.38,246.25s1.74-6,2.73-7.12,2.68-1.27,1.44-4-3.22-3.42-.76-6,2.65-3.79,5.89-3.29,6.58,3.09,7.14,4.85a22.46,22.46,0,0,1,.41,5.51s-.69-6.39-2.65-7.11-6.3-2.21-7.76-.76-.62,4.1-.06,5.86.72,3.46-.75,4.92-3.45,3.66-3.3,5.36A1.63,1.63,0,0,1,684.38,246.25Z"/><path class="cls-9" d="M614.85,201.78s19.66-1.21,28.11.49a69,69,0,0,1,13.87,4.19s-3.06-12.61-12-14-24,5.16-24,5.16Z"/><path class="cls-9" d="M529.57,190.12c-.75-.53-18.74-4.93-27.62-3.77s-14.86,2.36-14.86,2.36,3.42-6.18,5.76-7.92,6.95-4.82,15.74-2.65S529.57,190.12,529.57,190.12Z"/><path class="cls-8" d="M467.86,187.06s2.55-.45,6.48-4.47,5.07-3.42,12.05-5.72,9.44-4.85,10-11.47-1.72-13.25,10.34-13.51,35.65,0,49.9,1.69,53.77,14.43,60.31,15,36.57,18.53,40.69,18.74,13.72,7.94,13.72,7.94S664.26,182,664,181.15s-77.75-34-77.75-34l-70.53-7.75-33.47,7.5-16.88,18.4Z"/><path class="cls-9" d="M680.85,234c.12-.82,12.51-22.41,14.74-37.16s6.95-45.87.58-64-29.7-50.17-63.14-51-62.71,3.49-109.44,22-46.39,24.4-46.39,24.4-22.26-6.3-32.75,5.52-9.95,38.3-9.76,42.52,4.48,33.36,5.17,34.3,20-9.12,20-9.12,6.56,16.92,6.62,16.51,4.4-40,4.4-40l22-5.88L497,147.89s56.35.16,85.62,6.69,83,35.19,83,35.19,6.65,24.48,8,32.22Z"/><path class="cls-10" d="M690.5,126.5s-20.25-33.23-38.64-37.7S606,82.69,587,87.36s-49.76,13.83-49.76,13.83,19.76.9,22.63,3.85-21.47,13.09-21.47,13.09S576.92,121,587,123s-19.65,12.1-19.65,12.1,37.79-16.9,60.64-11.76,47.8,32,47.8,32l12.51,24.1s-7.22-31.68-6.63-32.85S696,169.66,696,169.66,697.93,143.13,690.5,126.5Z"/><path class="cls-10" d="M478,131.18a11.67,11.67,0,0,1,4.39-4.36c2.68-1.27,11.47-4.55,12.34-4.84s-9.63,6.09-9.63,6.09L493,128l-14.18,8.74a64,64,0,0,0-11.5-3.41c-4.86-.74-17.67-1-17.67-1s8.44-3.74,16.67-3.34S478,131.18,478,131.18Z"/><path class="cls-9" d="M614.35,292.63s-.83,19.15-1.2,21.61-4.43,37.46-6,39.32-50.46,2-70.38-6.05-24.67-8.06-25.63-10.65,18.17-55,18.17-55l12.31-1.9s-9.63,41.7-10.07,44.56,4.62,13.27,9.21,13.13,10.37-.1,12.18-1.09,2.71-4.2,3.92-4,13.56.79,13.91,1.27,1.87,4.05,3.36,5.12,10.64,3.7,15.22,3.56,7.6,4.5,9.13-2.81,4.73-50.4,4.73-50.4Z"/><path class="cls-9" d="M620.12,295.6s-7.31-22.89-26.14-29.94-33.2-8-47.81-1.79S522,284.09,522,284.09,591,287.84,620.12,295.6Z"/><path class="cls-10" d="M608.68,279.41s-7.86-8.31-13.34-10.4a192,192,0,0,0-24.29-6.61c-4.45-.68-18.45,1.4-18.45,1.4s20.92,1.49,23.69,2.33,21.1,5.71,21.1,5.71Z"/><ellipse class="cls-11" cx="625.07" cy="238.37" rx="11.8" ry="11.67" transform="translate(295.77 820.69) rotate(-81.39)"/><ellipse class="cls-12" cx="631.49" cy="234.99" rx="2.78" ry="2.75" transform="translate(304.56 824.16) rotate(-81.39)"/><ellipse class="cls-11" cx="517.02" cy="220.49" rx="11.8" ry="11.67" transform="translate(221.58 698.65) rotate(-81.39)"/><ellipse class="cls-12" cx="523.43" cy="217.11" rx="2.78" ry="2.75" transform="translate(230.37 702.12) rotate(-81.39)"/><path class="cls-13" d="M586,305s1-5-12-9-18-2-19,0-9,20-6,25,32,10,34,5S586,305,586,305Z"/></svg>