<svg id="Layer_2" data-name="Layer 2" xmlns="http://www.w3.org/2000/svg" viewBox="0 0 1000 1000"><defs><style>.cls-1{fill:#4e4e4e;stroke:#2b2b2b;}.cls-1,.cls-11,.cls-12,.cls-13,.cls-2,.cls-4,.cls-5,.cls-7,.cls-9{stroke-miterlimit:10;}.cls-1,.cls-11,.cls-2,.cls-4,.cls-5,.cls-7,.cls-9{stroke-width:3px;}.cls-2{fill:#fed1a5;stroke:#eabf98;}.cls-3{fill:#f4c59a;}.cls-4{fill:#c0353a;}.cls-4,.cls-5{stroke:#1b1c1e;}.cls-5{fill:#383b44;}.cls-6{fill:#242526;}.cls-7{fill:#35b6d3;stroke:#249eb2;}.cls-8{fill:#329a9e;}.cls-9{fill:#332c27;}.cls-11,.cls-9{stroke:#161616;}.cls-10{fill:#b2adaf;}.cls-11{fill:none;}.cls-12{fill:#ce6768;stroke:#c1565b;}.cls-12,.cls-13{stroke-width:2px;}.cls-13{fill:#dbe115;stroke:#c1c114;}.cls-14{fill:#9c9c2e;}.cls-15{fill:#fefbba;}</style></defs><title>vomit</title><path class="cls-1" d="M624,795.75s-9.81,5.43-17.55,4.46-17.42-31-17.42-31-1.93-20.32,0-21.29,32.9-1.93,32.9-1.93l13.54,12.58Z"/><path class="cls-2" d="M556.13,690.88s-53.22,27.09-39.67,77.4,47.41,141.27,47.41,141.27l22.26,28.06s36.77-7.74,36.77-25.15-7.74-115.15-14.52-144.18l39.67-30Z"/><path class="cls-2" d="M447.76,667.65S408.09,683.14,425.51,747s43.54,131.59,43.54,131.59,28.06,22.25,31.93,21.29,21.29-12.58,21.29-12.58-13.55-129.66-13.55-132.56,24.19-31,24.19-31l-56.12-60Z"/><path class="cls-3" d="M507.75,745.06s-2.9,10.64-1.93,20.32,8.71,97.73,8.71,97.73l-2.91,9.67S491.3,751.83,490.34,742.16,499,717,499,717l15.49,10.64Z"/><path class="cls-3" d="M520.86,725.6c-2.32,8.91,30.43,1.08,44,6.88s28.06,49.35,28.06,49.35l15.48,65.8,9.68,40.64s-15.48-119-16.45-124.82S626.77,746,626.77,746l-29-38.7S527.2,701.3,520.86,725.6Z"/><path class="cls-4" d="M539.42,909.2s-.6,11.16-3.84,15.76-34.33,9.9-47.9,11.74-38.48,1.8-51.66-1.18-18.75-5.37-23.13-10.56.82-16.39.82-16.39l46.43.71Z"/><path class="cls-5" d="M433.66,892.63s21-11,24-12.66,4.33-5.57,8.62-5.67,22,6.15,28.76,5.71,16.5-2.58,18.48-3.39a14.84,14.84,0,0,0,4.16-3.23,10,10,0,0,1,10.21,3.4c4.38,5.2,15.23,25.47,10.28,39.64s-65.58,17.13-77.08,17.19-35.17-3.75-41.53-8.14-8.69-11.36-6.4-16S433.66,892.63,433.66,892.63Z"/><path class="cls-6" d="M510.93,885.15c.95.08,11.09-6.89,13-6.74s13.41,24.36,12,30.07a20.25,20.25,0,0,1-8.61,11.94c-3,1.7-27.51,8.5-31.4,9.16s-21.18,1.24-21.18,1.24S515.8,920.48,519.27,913s3.2-16.25-.3-20.41A51.4,51.4,0,0,0,510.93,885.15Z"/><path class="cls-4" d="M639.09,942.1s-.61,11.16-3.85,15.75-34.33,9.91-47.9,11.74-38.48,1.81-51.66-1.17-18.75-5.37-23.13-10.57.82-16.38.82-16.38l46.43.71Z"/><path class="cls-5" d="M533.32,925.52s21-10.95,24-12.66,4.32-5.56,8.62-5.67,22,6.16,28.75,5.72,16.5-2.58,18.48-3.39a14.67,14.67,0,0,0,4.16-3.23,10,10,0,0,1,10.21,3.4c4.38,5.19,15.24,25.47,10.28,39.63s-65.57,17.14-77.08,17.2-35.17-3.75-41.53-8.14-8.69-11.36-6.4-16S533.32,925.52,533.32,925.52Z"/><path class="cls-6" d="M610.59,918.05c.95.08,11.09-6.89,13-6.74s13.4,24.36,12,30.07A20.28,20.28,0,0,1,627,953.32c-3,1.7-27.51,8.5-31.4,9.16s-21.18,1.24-21.18,1.24,41.07-10.34,44.54-17.83,3.21-16.25-.3-20.41A50.91,50.91,0,0,0,610.59,918.05Z"/><path class="cls-1" d="M491.3,619.27s-64.16,34.1-66.43,74.62c0,0,36.44-4,58.69,17.31s27.1,39.67,27.1,39.67,16.44-38.71,57.08-35.8S621,764.68,623.86,776a60.51,60.51,0,0,1,2.08,11.59c0,.91-2.91,8.12-2.08,7.77,10.08-4.23,60.51-30.94,72.57-46.45,13.55-17.42,34.84-61,23.23-120S661.6,540.9,661.6,540.9l-80.31,51.28Z"/><path class="cls-6" d="M482.59,644.43s1,31,24.19,36.77,74.51,13.55,91,9.68,58-25.16,69.67-33.87,23.22-30,31.93-12.58S710,668.62,709,685.07s-5.8,37.74-14.51,48.38-42.09,34.35-47.9,36.28-16.45,1.94-16.45,1.94l1,10.64s61.44-27.57,72.09-51.76,21.28-55.16,15.48-85.15-31-67.73-31-67.73l-90,55.15-110.31,2.9Z"/><path class="cls-7" d="M404.65,403.57c-2.37-.07-31.39,21.22-33.33,35.73S379.06,509,382,514.77s43.55-5.8,47.42-14.51,10.64-31,10.64-31Z"/><path class="cls-7" d="M493.24,333.83s71.6,3.87,127.72,79.35S708,566.06,708,566.06s-16.44,50.31-68.69,82.24c-20.16,12.32-31.5,16.71-56.13,25.16-21,7.2-43.39,9.09-61,1-15.28-7.07-40-10.93-48.38-37.74-23.23-74.5-44.51-136.43-44.51-136.43l-25.16-73.54L412,368.67Z"/><path class="cls-8" d="M526.14,400.6l-.43,3c-3.09,22-22.22,157.73-26.67,180.83A270.42,270.42,0,0,1,486.47,629l19.35,21.29s53.21,34.83,91.92,13.54,78.37-69.66,78.37-69.66l20.32-35.8-8.7-29s-43.41,83.28-58.47,84.21-30.55,13.51-31.52-8.74,4.84-80.31,7.74-100.63,6.77-61,0-77.41-11.61-35.8-21.29-44.51S517.91,344,516.94,346.9s-18.38,13.54-31,24.19-81.28,43.54-81.28,43.54,76.44,0,88.05-2.91S526.14,400.6,526.14,400.6Z"/><path class="cls-2" d="M387.77,512.84s46.44,118,44.51,121.92-15.48,41.6-15.48,48.38-.88,22.1,5.8,23.22c5.81,1,32.9,5.8,42.58,4.84,9.36-.94,11.61-23.23,12.58-27.1s0-20.32,0-20.32,8.71,5.81,8.71,0-11.13-27.29-13.31-32.51-47.65-133.91-47.65-133.91Z"/><path class="cls-2" d="M509.69,479l8.22,178s-25.64,26.18-26.61,33.92-8.71,22.25,0,31.93,30,10.64,45.48,9.67,22.68-7.88,22.47-17.48,9.46-52.18,7.53-59.93,17.41-135.46,6.77-185.77Z"/><path class="cls-3" d="M517.43,487.68s7.74,20.32,15.48,22.26S557.1,505.1,560,525.42s2.91,55.39,0,73.17,1.94,76.8-1,84.55-2.9,24.19-2.9,24.19,5.81-32.9,7.74-53.22S583.22,482.84,559,482.84H526.14Z"/><path class="cls-3" d="M415.83,507s35.8,96.76,37.74,103.54S471,660.88,470,667.65s-2.91,16.45-2.91,16.45,10.65-21.28,10.65-27.09-55.71-158.24-55.71-158.24Z"/><path class="cls-7" d="M500,485.75s33.87,29,87.09,2.9c0,0,11.61-106.44-13.55-128.69s-44.51-20.32-59,10.64S500,485.75,500,485.75Z"/><path class="cls-8" d="M537.75,354.15s11.61,27.1,15.48,49.35,1.93,34.83,2.9,49.35-.1,26.12-7.3,30-25.6,6.78-25.6,6.78,45.28,6.69,52.64-3.43,8.32-83.66,4.45-101.07S554.2,349.31,537.75,354.15Z"/><path class="cls-2" d="M324.53,310.49s16.13,57.84,34.17,72.24,58.24,26.1,67.87,27.47,28,3.45,58.84-18.83,39.73-45.31,44.3-56.61,4.54-45.42,4.54-45.42,18.83-3.09,23.74-10.73,5.52-19.51.09-30.88-13.32-27.43-27.31-23.11-38-7.41-38-7.41l-115.87-58-67.27,21.76-1.3,81.64Z"/><path class="cls-9" d="M469.38,113.64S474,70.55,436.33,52.33s-80.46-7-90.42,1.34S323.5,79.94,323,95.67s8.66,31.72,8.66,31.72Z"/><path class="cls-3" d="M328,321.71s10-34.21,12.58-42.24,12.66-28.91,14-37.35,13.43-52.47,13.9-56.58-12.16-2.18-9.94-3.95,2.12,1,2.12,1-26.3,14.87-26.4,17.68-8.37,65.13-9,66S310.92,289,310.92,289Z"/><path class="cls-3" d="M360.2,198.84s-4.48-8.57-1-11,7.92.09,13.61,2,25.13,25.95,33.17,29.29,38.56,17.54,43.58,18.11,37.78-2.95,37.78-2.95l-44.41-34.73-60.73-25.85-29.05,2.61Z"/><path class="cls-9" d="M528.76,270.86c.23,1.06-1.34-46.62-1.34-46.62s20.08,5,23.78,10.72,9.85,20.55,9.91,21.61,7.32-27.13-.59-49.25-15.26-40.15-26-54.67-52-64.19-110.14-66.11-96.23,26.53-104.46,34.86-47.34,58.82-43.2,96.76,18.88,70.1,18.88,70.1-9.9,19.16-17.29,22.08c0,0,20.14-1.61,25.22-4.93,0,0,16.85,27.17,26.52,29.61,0,0,3.53-.27,3.3-.7s-8.09-43.49-8.09-43.49,37.12-89.48,38.58-92.58c1.73-3.7,3.79-20.79,7.1-21.49s11.46,16.88,29.94,32.15,59.53,32.55,79.48,31.6,30.12-7.59,30.12-7.59S528,267.42,528.76,270.86Z"/><path class="cls-9" d="M303.52,305.41s19.64-11.79,22.07-15"/><path class="cls-9" d="M295.59,288.26s12-30.2,10.67-42.7"/><path class="cls-10" d="M330.79,89.37s3.81-24.31,22-32.48,25.24-10,33.72-8,24.24,3.9,32.29,8.28,25.69,14.94,29.44,19.33c0,0-47-25.46-68.69-19.94s-28.25,10.82-34.12,16.17S330.79,89.37,330.79,89.37Z"/><path class="cls-9" d="M370.07,253.79s-9.94-3.95-16.24,0-8.31,6.17-8.31,6.17,1.27-10.6,7.88-12,12.52.89,14.46,2.59A6.33,6.33,0,0,1,370.07,253.79Z"/><path class="cls-9" d="M434.57,230.2s8.08-6.6,13.1-6,10.08,2.22,10.94,2.85-4.9-8.34-11.73-7.38S435.31,227.6,434.57,230.2Z"/><path class="cls-2" d="M419,292.63s-7.33-1-8.61,3.58.77,9.49,4.48,8.57,6.39-1.82,6.39-1.82"/><path class="cls-3" d="M535.06,277.89s.41-11.24,3.23-13.87,2.1-5-.33-8.63-7.3-16.95-3.44-19.6,11.63-.83,13.38,1.52a39.29,39.29,0,0,1,3.59,6.86s-7.53-6.37-9.75-4.61-4.45,3.53-2.84,7.61,4.53,9.64,4.43,12.45-2.29,5.65-3,9.33S535.06,277.89,535.06,277.89Z"/><path class="cls-10" d="M540.3,173.73S494,111.38,466,101.88s-56.41-10.57-70.89-8.19-39.48,7.73-51.64,16.55S321.16,126.78,317,132.89s-10.71,19.6-10.71,19.6,59.31-45,87.59-46,36.15-2.07,56,4.75,29.48,14.23,44.21,29.34S540.3,173.73,540.3,173.73Z"/><path class="cls-11" d="M461,257.5c-19.37-.55-22.93,14-22.93,14s16.32-6.16,21.2-4.32"/><path class="cls-11" d="M352.33,289.82c8.59-6,23.16-3.4,23.16-3.4s-12.41,8-15.25,11"/><path class="cls-12" d="M437.78,341.57S413,345,412.39,353.15s10.92,27.86,23.15,23.22S454.14,367,437.78,341.57Z"/><path class="cls-7" d="M429.67,501.11s-5.13,5-17.71,7.86-30,10.64-30,5.8-7.74-29-7.74-29l23.23-12.58,7.74-8.71L403.25,448"/><path class="cls-13" d="M444.37,369.15c-.28,2.14-26.77,32.1-31.07,52.62s-3.49,60.19-5,64.13-1.93,35.92-1.6,43.65,6,21.05.94,22.24-8-6.44-8.68-1.57.08,22.27-4.25,21.48-3.93-11.45-7.16-6.47-7.16,13.86-10.88,7.23-3.64-25-7-22-8.22,9.07-10.31.44.54-48.45,2-55.29,6.3-34.16,10.93-46.94,21.16-49.32,27.58-60.24,11.81-16.07,19.38-20.27,13.32-3.68,16.45-2.9C439.54,366.25,445,364.28,444.37,369.15Z"/><path class="cls-13" d="M372.91,416.7s-13.58,6.38-12.3,9.24S370.73,419.7,372.91,416.7Z"/><path class="cls-13" d="M359.77,464.63s-6.2,4.61-4.32,7.72S359.77,464.63,359.77,464.63Z"/><path class="cls-14" d="M403.65,489s-3.59,24.37-2.15,31.09,4.44,23,4.44,23-9.46-5.41-11.48,1.45,2,19.29-1.57,17.5-9.21.39-10.36.44-1.86,10.73-8.6-12.23c0,0,7.24,7.45,10.7,7.3s7.07,3.57,5.59-4.11-1.8-15.42,1.53-18.47,6.7-5.12,6.38-12.86S403.65,489,403.65,489Z"/><path class="cls-15" d="M381.87,437.63c0,1-5.31,10.87-5.07,16.67s-1.57,17.5.57,13.54,8.52-16.82,7.21-20.64S381.87,437.63,381.87,437.63Z"/><path class="cls-13" d="M362.55,489.46s1,6.08,4.41,5,6.62-7.06,7.94-3.24,2.51,4.73,4.73,2.7"/><path class="cls-13" d="M416.56,411.71s-6.64,7.3-7.95,3.48-6.91.29-8.1-.62"/><path class="cls-8" d="M438.57,511.39s11.61,26.12,14.51,30,3.87,7.74,8.71,11.61,14.52,8.71,7.74,8.71-14.51-5.8-18.38-11.61S438.57,511.39,438.57,511.39Z"/></svg>