<svg id="Flat" height="512" viewBox="0 0 512 512" width="512" xmlns="http://www.w3.org/2000/svg"><path d="m199.994 208a8 8 0 0 1 -7.755-6.062l-23.209-92.838-101.222-62.287a8 8 0 0 1 8.384-13.626l104 64a7.991 7.991 0 0 1 3.569 4.873l24 96a8.008 8.008 0 0 1 -7.767 9.94z" fill="#dcdee0"/><path d="m304 128c0 40.063 18.185 76.557 48 104v-208c-29.815 27.443-48 63.937-48 104z" fill="#2e9163"/><path d="m352 88c-28.329 28.329-40 80-40 120l160-160c-40 0-88 8-120 40z" fill="#3dc285"/><path d="m384 120c-40.063 0-76.557 18.185-104 48h208c-27.443-29.815-63.937-48-104-48z" fill="#2e9163"/><path d="m105.122 200a230.873 230.873 0 0 0 -17.122 88c0 110.457 75.216 200 168 200s168-89.543 168-200a230.873 230.873 0 0 0 -17.122-88z" fill="#f7cc38"/><path d="m424 288q0 10.05-.82 19.86-.84 10.215-2.53 20.1a223.75 223.75 0 0 1 -17.27 56.1q-3.54 7.725-7.64 15a194.014 194.014 0 0 1 -31.48 41.88q-5.7 5.715-11.81 10.83a158.129 158.129 0 0 1 -46.22 27.14 144.865 144.865 0 0 1 -17.37 5.26 142.878 142.878 0 0 1 -65.72 0 144.865 144.865 0 0 1 -17.37-5.26 158.129 158.129 0 0 1 -46.22-27.14q-6.105-5.1-11.81-10.83a194.014 194.014 0 0 1 -31.48-41.88q-4.1-7.275-7.64-15a223.75 223.75 0 0 1 -17.27-56.1q-1.68-9.885-2.53-20.1-.81-9.8-.82-19.86c0-1.55.01-3.1.05-4.64.13-7.19.59-14.3 1.35-21.28a227.741 227.741 0 0 1 14.45-58.91c.41-1.06.84-2.12 1.27-3.17h301.76c.43 1.05.86 2.11 1.27 3.17a227.741 227.741 0 0 1 14.45 58.91c.76 6.98 1.22 14.09 1.35 21.28.04 1.54.05 3.09.05 4.64z" fill="#f7cc38"/><path d="m423.95 283.36c-.13-7.19-.59-14.3-1.35-21.28l-22.6 22.61-36.69-36.69 44.84-44.83c-.41-1.06-.84-2.12-1.27-3.17h-18.2l-36.68 36.69-36.69-36.69h-22.62l-36.69 36.69-36.69-36.69h-22.62l-36.69 36.69-36.68-36.69h-18.2c-.43 1.05-.86 2.11-1.27 3.17l44.84 44.83-36.69 36.69-22.6-22.61c-.76 6.98-1.22 14.09-1.35 21.28l12.64 12.64-11.87 11.86q.84 10.215 2.53 20.1l20.65-20.65 36.69 36.69-40.07 40.06q3.54 7.725 7.64 15l43.74-43.75 36.69 36.69-48.95 48.94q5.7 5.715 11.81 10.83l48.45-48.46 36.69 36.69-38.92 38.91a144.865 144.865 0 0 0 17.37 5.26l32.86-32.86 32.86 32.86a144.865 144.865 0 0 0 17.37-5.26l-38.92-38.91 36.69-36.69 48.45 48.46q6.1-5.1 11.81-10.83l-48.95-48.94 36.69-36.69 43.74 43.75q4.1-7.275 7.64-15l-40.07-40.06 36.69-36.69 20.65 20.65q1.68-9.885 2.53-20.1l-11.87-11.86zm-119.95-72.05 36.69 36.69-36.69 36.69-36.69-36.69zm-11.31 84.69-36.69 36.69-36.69-36.69 36.69-36.69zm-84.69-84.69 36.69 36.69-36.69 36.69-36.69-36.69zm-84.69 84.69 36.69-36.69 36.69 36.69-36.69 36.69zm48 48 36.69-36.69 36.69 36.69-36.69 36.69zm84.69 84.69-36.69-36.69 36.69-36.69 36.69 36.69zm48-48-36.69-36.69 36.69-36.69 36.69 36.69zm48-48-36.69-36.69 36.69-36.69 36.69 36.69z" fill="#f79539"/><g fill="#d4a811"><circle cx="256" cy="296" r="8"/><circle cx="352" cy="296" r="8"/><circle cx="160" cy="296" r="8"/><circle cx="208" cy="344" r="8"/><circle cx="304" cy="344" r="8"/><circle cx="120" cy="344" r="8"/><circle cx="256" cy="392" r="8"/><circle cx="352" cy="392" r="8"/><circle cx="160" cy="392" r="8"/><circle cx="304" cy="440" r="8"/><circle cx="392" cy="344" r="8"/><circle cx="208" cy="440" r="8"/><circle cx="208" cy="248" r="8"/><circle cx="304" cy="248" r="8"/><circle cx="120" cy="248" r="8"/><circle cx="392" cy="248" r="8"/></g><path d="m264 164a19.938 19.938 0 0 1 17.388-19.737 23.851 23.851 0 0 1 45.224 0 19.9 19.9 0 0 1 8.023 36.618 19.9 19.9 0 0 1 -30.635 23.029 19.894 19.894 0 0 1 -30.635-23.029 19.937 19.937 0 0 1 -9.365-16.881z" fill="#c7312e"/><path d="m320 164a19.938 19.938 0 0 1 17.388-19.737 23.851 23.851 0 0 1 45.224 0 19.9 19.9 0 0 1 8.023 36.618 19.9 19.9 0 0 1 -30.635 23.029 19.894 19.894 0 0 1 -30.635-23.029 19.937 19.937 0 0 1 -9.365-16.881z" fill="#eb423f"/><circle cx="360" cy="168" fill="#d4a811" r="8"/><circle cx="303.975" cy="168" fill="#d4a811" r="8"/></svg>