<svg id="Layer_1" data-name="Layer 1" xmlns="http://www.w3.org/2000/svg" viewBox="0 0 1000 1000"><defs><style>.cls-1{fill:#dfecf1;stroke:#99b2ba;}.cls-1,.cls-5,.cls-6,.cls-7{stroke-miterlimit:10;}.cls-1,.cls-5,.cls-7{stroke-width:3px;}.cls-2{fill:#eef7fb;}.cls-3{fill:#b54001;}.cls-4,.cls-7{fill:#e97f16;}.cls-5{fill:#fdf8ce;stroke:#801000;}.cls-6{fill:#801000;stroke-width:2px;}.cls-6,.cls-7{stroke:#560901;}.cls-8{fill:#560901;}</style></defs><title>tea</title><path class="cls-1" d="M703.52,802.1s20.92,10.47,17.11,20S660.72,863.92,597,864.87,455.32,862,406.82,840.14s-42.8-34.23-20-54.2S591.3,796.4,593.21,796.4,703.52,802.1,703.52,802.1Z"/><path class="cls-1" d="M213.55,401.51c-4.34-.28-121.43-7.75-139,63.54S54,598.11,122.57,650.13,328.84,747,328.84,747l-52.31-66.57S165.41,610,130.31,563s15.45-88.58,22.2-92,43.31-13.44,63.48-5.48S213.55,401.51,213.55,401.51Z"/><path class="cls-2" d="M186.38,417.88S210.16,437.5,168,450.06,83.7,525.67,85.26,535.3s5.89,44.21,8.9,48.22,2.58,27.79.41,27.66-24.26-29.19-25.88-55,2.68-76.06,13.71-95.37,34.17-40.7,57.36-45.89S171.14,400.71,186.38,417.88Z"/><path class="cls-1" d="M206.74,340.06s-12,130.16,21.29,248.08,89.4,202.55,247.26,251.05c0,0,97,25.68,208.26-14.26S835.7,697.5,860.43,641.39,895.61,532,902.27,457.86s-5-127.17-5-127.17l-62.54,97.69L696.86,472.12,515.46,481,334.54,453.1,225.18,369.42Z"/><path class="cls-1" d="M859,417.44S892.28,330,881.82,311.88,762,222.49,703,212s-245.35-10.46-299.55,5.71-142.65,57.05-155,78-29.95,87-16.64,107c6.77,10.15,81.17,50.82,171.65,71.8,87.45,20.28,190.2,21.23,245.82,11.88C762.48,467.37,859,417.44,859,417.44Z"/><path class="cls-3" d="M870.41,403.18S834.75,345.64,753,310.46s-205.41-44.7-271-37.09-134.08,21.87-182.58,52.3-59.44,70.85-59.44,70.85,85.59,81.78,218.72,95.09,331.89-34.23,331.89-34.23Z"/><path class="cls-1" d="M898.46,336.13c-15.21-86.54-189.24-126.48-189.24-126.48s-156.91-34.23-290-3.8S238.5,287.63,228,299s-21.87,33.29-22.82,51.36,1.9,76.07,111.26,114.11,258.67,65.62,480.24,0C796.71,464.51,913.68,422.67,898.46,336.13Zm-93.19,100.8S682.6,487.34,539,484.48,241.35,417,233.74,365.61s55.7-98.05,76.08-107.46c24.72-11.41,176.88-71.32,358.51-41.84S876.59,330.43,876.59,330.43C885.15,401.75,805.27,436.93,805.27,436.93Z"/><path class="cls-2" d="M212.82,398.9s26.63,49.45,89.39,70.37,126.48,34.23,144.55,35.18-66.57,6.66-83.69,16.17-28.53,39-25.67,71.32,41.84,128.38,53.25,146.45,30.43,59,40.89,66.57,35.19,27.58,33.28,26.62S336.44,784,296.5,717.47s-71.32-165.47-73.22-195S211.87,431.23,212.82,398.9Z"/><path class="cls-4" d="M328.84,355.15c-4.38-4.64,98.9-48.5,144.54-35.18s74.18,0,94.15-5.71,50.4-1.9,74.17,8.56,81.79,19,104.61,34.23-22.82,28.53-22.82,28.53-38,47.55-57.06,48.5S575.14,411.26,597,398.9s64.66-25.68,64.66-25.68S602.71,339,577,359s-21.87,58-43.75,62.76-70.37,11.41-77,.95,1-41.84-17.12-41.84-39,22.82-54.21,10.46-.95-30.43-14.26-36.14S345,372.27,328.84,355.15Z"/><path class="cls-2" d="M494.78,235.81c2.85,0,138.84.95,175,8.55S764.85,271,775.31,276.7,800,290,810.5,300.47s29.48,23.78,31.38,43.75c0,0-40.89-44.7-75.12-57.06S648.84,253.87,617.45,252s-92.24-4.75-104.6-3.8-39.94-.95-50.4,1-37.09.95-39,1.9S494.78,235.81,494.78,235.81Z"/><path class="cls-5" d="M721.34,335.2c-9-2.25-37.17-1.12-46.18,0s-52.95,69.85-52.95,69.85,32.67-2.26,49.57,2.25,21.4,5.63,34.92,7.89,34.92,2.25,34.92,2.25,27-41.68,27-46.19S730.36,337.46,721.34,335.2Zm12.4,30.42c-3.38,3.38-38.31-13.52-38.31-13.52s9-6.76,16.9-6.76S737.12,362.24,733.74,365.62Z"/><path class="cls-4" d="M365.45,410.78s42.79,28.53,66.57,33.29,56.1,14.26,83.68,9.51,45.65-15.22,56.11-17.12,24.72,7.61,41.84,9.51,39.94-4.76,1.9,6.66-94.14,20-129.33,13.31-60.86-7.61-86.54-21.87-43.74-24.73-55.15-35.19,4.75-29.48,7.61-30.43S365.45,410.78,365.45,410.78Z"/><path class="cls-4" d="M285.57,388s18.07-32.33,27.58-39,0,11.41,0,23.77,7.6,42.8,1,39.94S285.57,388,285.57,388Z"/><path class="cls-6" d="M727.34,339.91s13.38-33,41.27-40.23,64,6.2,78.51,14.47,30,35.12,20.66,71.27-18.6,63-32,98.14-18.59,62-13.43,68.18S829.55,590,829.55,590l-5.16,1s-2.07-31-5.17-35.12-5.16-12.4-3.09-22.73,10.33-38.22,10.33-38.22l26.85-77.47s10.33-36.16,11.37-43.39,1-23.76-4.14-34.09-8.26-18.59-19.62-23.76-26.86-11.36-39.26-13.43-29-.72-32,1.19-13.41,7.08-22.71,15.34S729.35,342,729.35,342Z"/><path class="cls-6" d="M716.35,348s8.56-12.36,9.51-13.31,0,1,2.86,1.9,7.61-.95,5.7,1.9S724,356.58,722.06,354.68a7.45,7.45,0,0,1-1.9-4.76S716.35,351.82,716.35,348Z"/><path class="cls-3" d="M625.54,404.6s20-26.63,22.82-29.48,11.41,12.36,18.07,13.32,8.56-1.91,16.17,1.9a132.58,132.58,0,0,0,24.72,9.51c7.61,1.9,21.87,1.9,24.73,3.8s8.55,2.85,9.51,4.76S734,424.57,734,424.57l-61.81-3.8Z"/><path class="cls-4" d="M610.32,406.5c.95-.95,26.63-7.6,36.14-6.65a324.18,324.18,0,0,1,37.09,5.7c12.36,2.86,30.43,6.66,40.89,7.61s12.36,2.85,20,.95,16.16-9.51,17.12-6.66-33.29,22.83-38,24.73S694,435,680.69,435s-47.54-5.7-49.45-7.61-18.06-12.36-18.06-12.36Z"/><path class="cls-7" d="M803.84,594.32c.95,0,44.7-9.51,49.45-8.56s17.12,8.56,17.12,8.56,20,100.8,18.07,102.7-81.78,20-81.78,20l-7.61-112.21Z"/><path class="cls-8" d="M807.17,630l6.66,75.13,65.62-15.22L868.22,622.6S842.36,609.06,807.17,630Z"/></svg>