<svg id="Layer_2" data-name="Layer 2" xmlns="http://www.w3.org/2000/svg" viewBox="0 0 1000 1000"><defs><style>.cls-1,.cls-3{fill:#14bddc;}.cls-1{stroke:#0891a3;}.cls-1,.cls-2,.cls-4,.cls-5{stroke-miterlimit:10;}.cls-1,.cls-2,.cls-5{stroke-width:3px;}.cls-2,.cls-4{fill:#006aae;}.cls-2,.cls-4,.cls-5{stroke:#025989;}.cls-5{fill:#0bb8d8;}.cls-6{fill:#6ad0df;}</style></defs><title>dringking water</title><path class="cls-1" d="M439.5,64.5v70s-40,21-62,53-35,63-36,71,0,266,0,266,7,10,0,15v67s8,8,0,17v69s8,11,0,16v198s-2,54,57,61,181,2,181,2,65,1,66-71,0-195,0-195-7-6,0-15v-65s-14-10,0-22v-59s-13-8,0-20v-260s-12-47-38-77-60-52-60-52v-67Z"/><path class="cls-2" d="M428.5,101.5s76,13,127,0l1-60s-67-16-128,0Z"/><path class="cls-3" d="M606.5,188.5l-227-1s-16,24-20,33-12,22-16,37l-1,74v137l1,56s3,5,3,8-2,7-4,9v44l1,20s3,6,3,9-2,7-3,9-1,44-1,44v25s4,5,4,8-2,9-3,9a1,1,0,0,0-1,1v52l1,62v62s-2,30,3,40,9,26,40,37c0,0,36,7,74,6s106,1,125-2,34-10,45-25,13-33,13-42v-197a11,11,0,0,1-3-7c0-4,1-6,3-9s0-63,0-63-6-6-6-11,6-13,6-13v-57s-5-4-5-10,5-12,5-12v-259s-8-30-14-39S616.5,196.5,606.5,188.5Z"/><path class="cls-4" d="M636.5,296.5v207s-145,22-289,0v-207S501.5,319.5,636.5,296.5Z"/><path class="cls-5" d="M495.5,348.5s-41,64-38,82,25,39,45,33S535,433,532,421,495.5,348.5,495.5,348.5Z"/><path class="cls-6" d="M511.5,37.5c-.8-3.06,39,5,41,6s0,55,0,55-38,6-43,6S521.5,75.5,511.5,37.5Z"/><path class="cls-6" d="M511.5,112.5s-4,26,1,37,46,17,61,24,17,11,19,9-48-42-53-47-3-20-4-23S511.5,112.5,511.5,112.5Z"/><path class="cls-6" d="M611.5,206.5s-1,9,6,30,8,34,8,41-2,15,3,13,7-24,5-37-3-28-11-37S611.5,202.5,611.5,206.5Z"/><path class="cls-6" d="M632.5,703.5c0,1,1,153,0,166s0,45-8,55-15,22-28,24-42,8-51,7,16-11,38-28,27-15,32-45,0-67,1-77,0-85,2-96,1-43,8-46S632.5,703.5,632.5,703.5Z"/><path class="cls-6" d="M350,534s114,27,283,0"/><path class="cls-6" d="M350,615s109,33,283,0"/><path class="cls-6" d="M350,703s126,23,286-2"/><path class="cls-6" d="M616,499c.36,0,.84,0,1.42-.06,4.27-.32,13.58-2.25,13.58-11.94V358s-13,108-17,117-10,19-23,21-31,7-21,8S616,499,616,499Z"/></svg>