<svg id="Flat" height="512" viewBox="0 0 512 512" width="512" xmlns="http://www.w3.org/2000/svg"><path d="m160 72 16 112 40 56 32 248h144l32-248 40-56 16-112z" fill="#dcdee0"/><path d="m480 72-9.14 64h-301.72l-9.14-64z" fill="#dcdee0"/><path d="m470.86 136-6.86 48-40 56-32 248h-144l-32-248-40-56-6.86-48z" fill="#ed6f6d"/><path d="m360 136h-32l32-112h32z" fill="#b1bd70"/><path d="m32.557 435.755c30.453 32.255 72.717 52.245 119.443 52.245s88.99-19.99 119.443-52.245l-119.443-203.755z" fill="#b1bd70"/><path d="m49.574 406.727c24.926 30.195 61.572 49.273 102.426 49.273s77.5-19.078 102.426-49.273l-102.426-174.727z" fill="#eb423f"/><g fill="#414649"><circle cx="96" cy="392" r="8"/><circle cx="168" cy="392" r="8"/><circle cx="184" cy="352" r="8"/><circle cx="152" cy="320" r="8"/><circle cx="120" cy="368" r="8"/><circle cx="208" cy="408" r="8"/><circle cx="136" cy="424" r="8"/></g></svg>