<?xml version="1.0" encoding="UTF-8"?>
<svg id="monkey" xmlns="http://www.w3.org/2000/svg" viewBox="0 0 1000 1000">
  <defs>
    <style>
      .cls-1 {
        font-family: FreeSansBold, FreeSans;
        font-size: 150px;
      }

      .cls-2 {
        letter-spacing: -.02em;
      }

      .cls-3 {
        fill: #3e3e3e;
      }

      .cls-4 {
        letter-spacing: 0em;
      }

      .cls-4, .cls-5 {
        fill: red;
      }

      .cls-6, .cls-7 {
        fill: #ce8b56;
      }

      .cls-8 {
        letter-spacing: 0em;
      }

      .cls-9 {
        fill: #8e532b;
      }

      .cls-10 {
        fill: #fed09f;
      }

      .cls-7 {
        stroke: #8e532b;
        stroke-miterlimit: 10;
      }

      .cls-5 {
        letter-spacing: -.01em;
      }

      .cls-11 {
        letter-spacing: -.03em;
      }
    </style>
  </defs>
  <text class="cls-1" transform="translate(219.05 802.26)"><tspan class="cls-8" x="0" y="0">m</tspan><tspan class="cls-11" x="132.6" y="0">o</tspan><tspan x="219.75" y="0">n</tspan><tspan class="cls-2" x="311.4" y="0">k</tspan><tspan class="cls-5" x="391.05" y="0">e</tspan><tspan class="cls-4" x="472.2" y="0">y</tspan></text>
  <g>
    <polyline class="cls-7" points="365.56 384.76 370.5 467.14 590.93 472.15 590.93 364.84"/>
    <g>
      <path class="cls-6" d="M564.35,570.63c23.54,7.82,48.89,7.49,73.68,7.09,5.56-.09,11.2-.19,16.56-1.67,9.17-2.52,16.78-8.84,23.62-15.46,26.86-26.01,46.42-59.47,55.9-95.64,2.69-10.28,6.19-22.58,16.38-25.59,5.96-1.76,12.57,.57,17.24,4.67,4.68,4.09,7.72,9.72,10.24,15.39,1.85,4.17,3.49,8.49,4.22,13,2.28,14.15-4.56,28.01-11.2,40.72-14.04,26.88-29.21,55.02-54.92,71.12-6.37,3.99-13.22,7.11-20.05,10.23-8.93,4.08-17.86,8.15-26.8,12.23-5.97,2.72-11.98,5.46-18.35,7.01-6.5,1.59-13.24,1.9-19.93,2.18-15.36,.63-30.72,1.05-46.09,1.27-9.53,.14-19.44,.12-28.07-3.94"/>
      <path class="cls-3" d="M563.68,573.04c20.31,6.67,41.88,7.5,63.08,7.33,10.31-.08,21.64,.81,31.46-2.87,9.06-3.4,16.45-9.88,23.24-16.59,27.01-26.7,45.7-60.32,55.49-96.9,1.85-6.9,3.95-15.21,9.79-19.91,7.47-6.01,17.24-1.39,22.54,5.17,3.07,3.8,5.24,8.35,7.13,12.82,1.99,4.72,3.52,9.65,3.69,14.8,.35,10.45-3.93,20.42-8.5,29.58-8.25,16.5-17.01,33.12-28,47.98-5.4,7.31-11.51,14.15-18.44,20.05-7.56,6.44-16.15,11.21-25.11,15.39-10.04,4.69-20.15,9.22-30.23,13.81-4.96,2.26-9.9,4.59-15.08,6.3-5.38,1.78-10.92,2.63-16.56,3.03-11.16,.78-22.38,.96-33.56,1.24-10.7,.27-21.61,1-32.3,.16-4.88-.38-9.78-1.32-14.26-3.37-2.91-1.33-5.46,2.99-2.53,4.33,9.77,4.46,20.45,4.42,30.98,4.26,11.53-.18,23.05-.47,34.57-.87,11.15-.39,22.73-.21,33.5-3.47,10.89-3.3,21.22-8.85,31.55-13.57s20.42-8.81,29.89-14.51c7.94-4.78,15.11-10.81,21.44-17.57,12.93-13.82,22.51-30.37,31.35-46.99,4.78-8.97,9.83-17.98,13.18-27.6,3.6-10.34,4.25-20.99,.43-31.37-3.28-8.89-7.85-18.55-16.1-23.84-7.59-4.87-17.41-4.85-24.08,1.56-5.74,5.52-8.12,13.8-10.12,21.26-2.47,9.25-5.36,18.33-8.99,27.19-7.43,18.14-17.59,35.3-29.9,50.56-6.09,7.54-12.69,14.73-19.85,21.26-7.76,7.08-16.32,12.35-27,13.2s-22.24,.63-33.25,.39-21.75-.99-32.44-3.03c-5.31-1.02-10.55-2.36-15.68-4.05-3.07-1.01-4.39,3.83-1.33,4.83h0Z"/>
    </g>
    <g>
      <path class="cls-6" d="M366.36,390.96c-33.26,38.87-53.21,88.93-55.8,140.03-.64,12.65-.15,25.78,5.28,37.22,5.43,11.44,16.85,20.81,29.51,20.44,14.8-.42,26.49-13.75,30.83-27.91,4.34-14.16,3.22-29.31,3.83-44.11,.98-23.71,6.53-47.23,16.28-68.87"/>
      <path class="cls-3" d="M364.59,389.19c-16.84,19.73-30.28,42.13-39.92,66.21-9.62,24.05-15.31,49.71-16.61,75.59-.67,13.27-.07,27.22,6.03,39.31,5.05,10.02,14.72,18.72,26.07,20.48,11.34,1.76,22-3.67,29.18-12.26,8.28-9.92,11.39-22.27,12.38-34.92,1.13-14.47,.31-28.96,2.22-43.4,1.86-14.05,5.38-27.9,10.39-41.15,1.28-3.38,2.66-6.71,4.13-10.01,1.31-2.92-3.01-5.47-4.33-2.53-5.52,12.32-9.79,25.16-12.6,38.36-2.86,13.44-4.04,27.03-4.23,40.76-.18,13.05,.13,27.07-5.3,39.24-4.21,9.43-11.9,18.33-22.33,20.73-10.86,2.5-21.55-3.72-27.86-12.3-7.51-10.22-9.07-23.37-8.94-35.71,.26-24.81,5.28-49.72,13.67-73.03s20.51-45.37,35.85-64.82c1.87-2.37,3.79-4.71,5.76-7.01,2.08-2.44-1.45-6-3.54-3.54h0Z"/>
    </g>
    <g>
      <path class="cls-6" d="M590.01,384.76c3.24,7.93,9.65,14.04,15.37,20.42,33.44,37.33,46.07,89.49,45.96,139.6-.02,11.65-1.3,24.68-10.12,32.31-6.53,5.65-15.66,6.91-24.23,7.94-6.81,.82-14.27,1.49-20-2.27-2.95-1.93-5.11-4.87-6.77-7.98-8.68-16.17-4.85-35.8-5.24-54.15-.55-26.02-10.03-50.91-19.38-75.2"/>
      <path class="cls-3" d="M587.59,385.43c4.97,11.79,15.46,20.09,23.11,30.08,7.51,9.81,13.8,20.55,18.94,31.78,10.4,22.75,16,47.62,18.15,72.47,.54,6.31,.87,12.63,.99,18.96,.11,5.86,.18,11.78-.58,17.6-.73,5.53-2.27,11.23-5.67,15.75-3.65,4.85-9.18,7.36-14.94,8.74-6,1.44-12.49,2.32-18.66,2.37s-11.82-2.03-15.38-7.64c-7.06-11.13-6.84-25.04-6.42-37.72,.22-6.76,.57-13.52,.24-20.28-.34-7.07-1.31-14.12-2.72-21.06-2.88-14.19-7.64-27.92-12.73-41.45-1.29-3.42-2.6-6.83-3.91-10.24-1.15-2.98-5.99-1.68-4.83,1.33,5.43,14.12,10.87,28.3,14.63,42.97,1.87,7.31,3.34,14.73,4.09,22.24,.71,7.14,.65,14.28,.4,21.45-.47,13.34-1.26,27.28,4.11,39.83,2.54,5.93,6.34,11.46,12.52,13.94s12.77,1.64,19.06,.87,12.83-1.72,18.73-4.47c5.5-2.57,9.92-6.96,12.59-12.41,5.35-10.95,4.78-24.02,4.39-35.89-.85-26.12-5.16-52.38-14.33-76.92-4.53-12.1-10.2-23.79-17.21-34.65-3.44-5.33-7.21-10.46-11.26-15.34-4.27-5.15-9.12-9.8-13.23-15.07-2.05-2.63-3.92-5.5-5.22-8.58-.53-1.26-1.65-2.13-3.08-1.75-1.18,.31-2.27,1.84-1.75,3.08h0Z"/>
    </g>
    <g>
      <path class="cls-10" d="M285.6,239.93c-27.14,7.36-47.73,34.15-47.85,62.27-.02,4.5,.47,9.14,2.59,13.1,2.12,3.97,5.71,6.94,9.4,9.51,12.75,8.85,28,14.06,43.5,14.85,2.73,.14,5.62,.19,7.96,1.62,1.82,1.12,3.07,2.94,4.32,4.68,20.58,28.72,53.65,46.52,87.85,55.39,34.2,8.88,69.89,9.72,105.22,10.5,15.22,.34,30.56,.67,45.54-2.06,15.46-2.82,30.15-8.83,44.39-15.48,28.1-13.14,56.51-30.58,69.88-58.57,.73-1.53,1.53-3.2,3.06-3.92,1.61-.75,3.49-.21,5.2,.27,16.52,4.56,35.6,.53,47.58-11.72,11.98-12.25,15.33-32.71,6.32-47.28-5.77-9.34-15.49-15.43-25.06-20.8-7.47-4.19-15.06-8.15-22.77-11.87"/>
      <path class="cls-3" d="M284.93,237.51c-20.95,5.81-37.89,22.29-45.53,42.49-1.95,5.15-3.2,10.52-3.8,16-.64,5.8-.74,12.12,1.3,17.67,2.23,6.08,7.05,10.23,12.27,13.77,5.23,3.55,10.86,6.46,16.73,8.79,6.18,2.46,12.65,4.18,19.24,5.12,2.94,.42,5.89,.68,8.86,.85,3.29,.18,5.85,.56,8.04,3.23,3.84,4.66,7.2,9.59,11.34,14.02s8.22,8.19,12.72,11.85c18.55,15.09,40.68,25.35,63.66,31.67,27.59,7.59,56.35,9.77,84.84,10.75,14.51,.5,29.07,1.05,43.59,.83s28.41-1.92,42.11-6.21c12.62-3.95,24.79-9.42,36.62-15.29,10.54-5.23,20.82-11.06,30.32-18.02s17.92-14.75,24.87-24.08c3.57-4.78,6.19-9.88,9.02-15.09,1.64-3.03,4.22-1.45,6.97-.82s5.68,1.06,8.55,1.26c22.61,1.56,45.17-11.76,50.39-34.61,2.41-10.56,.98-22.1-5.18-31.17-7.05-10.39-18.36-16.72-29.12-22.61-6.17-3.37-12.43-6.59-18.76-9.65-2.89-1.4-5.43,2.92-2.53,4.33,11.63,5.64,23.61,11.45,34.19,18.92,9.26,6.53,16.43,15.53,17.38,27.15,.85,10.39-2.6,21.2-9.63,28.94-7.33,8.08-17.99,12.72-28.78,13.63-5.33,.45-10.71,.09-15.91-1.18-2.62-.64-5.28-1.64-7.93-.63s-3.75,3.43-4.89,5.75c-4.94,10.05-11.93,18.85-20.13,26.44-16.88,15.62-38.09,26.34-59.08,35.3-12.48,5.33-25.5,9.65-39,11.39s-27.92,1.32-41.86,1.01c-27.7-.62-55.57-1.35-82.91-6.24-23.72-4.25-46.97-11.73-67.63-24.31-9.76-5.94-18.83-12.97-26.79-21.18-3.9-4.03-7.51-8.32-10.8-12.86-1.5-2.07-2.98-4.22-5.21-5.57s-5.06-1.72-7.72-1.88c-12.64-.78-24.76-3.74-35.95-9.8-5.36-2.9-11.39-6.37-15.04-11.39s-3.76-11.42-3.39-17.3c1.31-20.72,14.1-40.19,31.94-50.55,4.4-2.55,9.06-4.5,13.96-5.86,3.1-.86,1.78-5.7-1.33-4.83h0Z"/>
    </g>
    <path class="cls-3" d="M255.27,290.13c3.02-12.99,16.03-21.06,28.08-24.65,.1,0,.26,.2,.5,.86,.28,.64,.75,2.29,.95,2.98,.3,1.37,1.22,5.53,1.34,6.87,.02,.36,.27,2.11,.07,2.13,0,0-.51,.08-.51,.08-10.86,1.67-21.64,4.69-30.43,11.74h0Z"/>
    <path class="cls-3" d="M706.99,290.13c-11.16-5.44-22.26-10.15-33.82-14.33-2.71-1.33-6.06-1.26-8.06-3.79-.69-.99-1.27-2.29-1.54-4.57l1.67-4.72c2.64-2.32,4.9-3.16,7.62-1.97,1.95,.99,3.95,1.84,5.84,2.95,11.31,6.32,22.07,14.85,28.3,26.43h0Z"/>
    <g>
      <path class="cls-10" d="M294.27,306.2c-12.02-19.16-18.61-41.69-18.78-64.3-.09-11.8,1.52-23.58,4.08-35.1,16.33-73.37,74.72-136.3,147.22-156.15,72.5-19.84,155.85,5.35,203.73,63.29,12.61,15.26,22.77,32.38,32.12,49.84,5.13,9.57,10.05,19.34,13.09,29.76,3.75,12.88,4.51,26.44,4.57,39.85,.11,25.16-2.25,50.75-11.6,74.11"/>
      <path class="cls-3" d="M296.43,304.94c-14.59-23.41-20.56-50.92-17.67-78.3,2.5-23.66,10.12-46.96,21.04-68.05,10.24-19.78,23.58-37.91,39.38-53.61,15.76-15.66,33.94-28.86,53.84-38.76s41.8-16.41,64.06-18.71c22.5-2.33,45.35-.73,67.34,4.54,21.99,5.26,43.07,14.13,62.09,26.36,19.82,12.74,36.92,29.13,50.64,48.27,8.13,11.35,15.22,23.42,21.87,35.69,6.82,12.58,13.28,25.36,16.16,39.49s2.89,28.78,2.46,43.11c-.42,14.16-1.84,28.32-5.14,42.11-1.61,6.73-3.68,13.33-6.23,19.76-1.19,3,3.65,4.3,4.83,1.33,10.7-26.97,12.75-57.1,11.43-85.84-.68-14.85-3.38-29.1-9.31-42.77-5.73-13.21-12.98-25.95-20.46-38.25-13.29-21.86-29.36-41.58-49.66-57.28-18.38-14.22-39.24-25.08-61.32-32.29-22.1-7.21-45.47-10.74-68.72-10.24-23.04,.5-45.94,5.03-67.35,13.59s-40.9,20.58-58.27,35.45c-17.38,14.88-32.41,32.54-44.37,52.04-11.95,19.49-20.86,40.94-25.87,63.26-3.23,14.42-5.01,29.29-3.91,44.08,1.02,13.69,4.26,27.15,9.6,39.8,2.6,6.16,5.66,12.09,9.2,17.76,1.7,2.73,6.04,.22,4.33-2.53h0Z"/>
    </g>
    <path class="cls-6" d="M675.19,193.8c-3.03-10.43-7.96-20.19-13.09-29.76-9.35-17.45-19.51-34.57-32.12-49.84-47.88-57.95-131.23-83.14-203.73-63.29-72.5,19.84-130.89,82.77-147.22,156.15-2.56,11.52-4.18,23.29-4.08,35.1,.12,14.63,2.93,29.22,8.14,42.89,5.4-11.59,11.73-22.76,21.31-31.04,6.31-5.45,13.94-9.56,18.91-16.25,6.56-8.83,7.37-20.47,9.71-31.22,3.86-17.74,12.59-34.39,24.99-47.66,4.39-4.69,9.28-9.01,14.96-12.01,6.58-3.48,14.02-5.07,21.44-5.74,19.38-1.74,40.32,3.38,53.46,17.73,5.67,6.19,9.65,13.78,15.32,19.98,5.68,6.19,14,11.05,22.2,9.23,12.85-2.86,16.9-18.78,25.21-28.98,4.02-4.93,9.3-8.68,14.82-11.83,17.81-10.17,39.37-14.6,59.25-9.56,19.88,5.04,37.47,20.36,42.76,40.17,4.96,18.6-.56,39.92,9.15,56.54,5.73,9.8,15.77,16.1,24.8,22.97,6.05,4.6,12.02,10.05,15.74,16.53,2.03-13.27,2.69-26.81,2.63-40.23-.06-13.41-.82-26.97-4.57-39.85Z"/>
    <g>
      <path class="cls-6" d="M394.29,446.65c-16.05,30.55-17.57,66.51-16.7,101.01,.8,31.54,3.75,64.44,20.37,91.25,1.36,2.19,2.86,4.39,5.04,5.75,2.57,1.6,5.73,1.84,8.75,1.98,7.28,.33,14.58,.3,21.86-.08,2.91-.15,6-.42,8.35-2.15,3.09-2.28,4.04-6.41,4.71-10.19,2.02-11.45,3.39-23.01,4.1-34.61,.23-3.78,.46-7.77,2.53-10.94,4.49-6.87,14.55-6.3,22.63-4.93,9.79,1.65,19.58,3.3,29.37,4.96,1.41,.24,2.92,.53,3.91,1.56,.91,.95,1.18,2.33,1.4,3.63,1.71,10.42,2.26,21.04,1.51,31.57-.46,6.45-.97,14.02,3.94,18.23,3.47,2.97,8.46,3.1,13.03,3.09,6.07-.02,12.14-.04,18.21-.06,3.48-.01,7.25-.12,10-2.26,1.96-1.52,3.08-3.86,4.12-6.11,20.11-43.86,31.06-93.29,22.27-140.73-3.4-18.38-9.72-36.21-18.65-52.63"/>
      <path class="cls-3" d="M392.13,445.38c-10.35,19.84-14.84,41.95-16.44,64.12-.8,10.99-.9,22.02-.71,33.04s.6,22.05,1.66,33.02c2.05,21.32,6.61,42.79,17.34,61.56,2.51,4.39,5.22,9.05,10.22,10.86,2.41,.87,5.02,1.04,7.56,1.16,3.24,.16,6.48,.22,9.72,.23,5.69,.01,11.95,.39,17.52-.95,5.04-1.21,7.99-5.09,9.32-9.92,1.48-5.42,2.06-11.21,2.8-16.77,.8-6.01,1.44-12.03,1.89-18.07,.36-4.79-.2-11.18,3.43-14.91,2.92-2.99,7.47-3.44,11.43-3.35,5.24,.11,10.42,1.27,15.57,2.13,6.25,1.06,12.51,2.11,18.76,3.17,1.22,.21,2.47,.34,3.66,.65,1.54,.39,1.9,1.02,2.22,2.55,.64,3.03,.94,6.17,1.23,9.25,.58,6.06,.77,12.17,.53,18.26-.34,8.77-2.51,20.98,7.09,25.85,4.74,2.4,10.32,2.03,15.47,2.01,6.03-.02,12.19,.32,18.21-.15,5.33-.41,9.38-2.55,11.93-7.37s4.62-10.12,6.7-15.22c4.39-10.75,8.18-21.76,11.26-32.96,6.03-21.96,9.34-44.82,8.67-67.62s-5.6-45.96-14.71-67.24c-2.19-5.11-4.62-10.11-7.26-15-1.53-2.84-5.86-.31-4.33,2.53,10.71,19.8,17.67,41.62,20.19,64.01,2.47,21.95,.97,44.22-3.5,65.81-2.25,10.87-5.22,21.59-8.79,32.11-3.52,10.38-7.36,21-12.4,30.75-1.12,2.16-2.45,3.95-4.88,4.68-2.52,.75-5.24,.6-7.85,.61-5.95,.02-11.91,.11-17.87,.05-4.49-.04-9.69-.47-12-4.93-1.96-3.8-1.51-8.58-1.24-12.69,.39-5.81,.53-11.6,.23-17.42s-.57-11.8-2-17.31c-1.5-5.78-7.62-5.77-12.51-6.59-5.98-1.01-11.96-2.02-17.95-3.03-8.42-1.42-18.8-4.03-26.66,.75-3.93,2.39-6.12,6.4-6.83,10.87-.87,5.47-.89,11.1-1.42,16.62-.59,6.1-1.37,12.18-2.34,18.23-.66,4.11-.83,10.65-4.4,13.51-1.77,1.41-4.2,1.62-6.37,1.76-3.19,.21-6.39,.29-9.58,.33-2.7,.03-5.4,.02-8.1-.04-2.98-.07-6.15,.03-9.08-.59-5.21-1.1-7.55-6.07-9.92-10.35-2.52-4.54-4.69-9.26-6.53-14.11-3.68-9.72-6.11-19.88-7.74-30.14-3.32-20.86-3.78-42.38-3.37-63.46,.42-21.35,2.69-42.92,10.02-63.11,1.82-5.02,3.98-9.9,6.46-14.64,1.49-2.86-2.83-5.39-4.33-2.53h0Z"/>
    </g>
    <path class="cls-3" d="M296.26,304.65c-14.59-23.41-20.56-50.92-17.67-78.3,2.5-23.66,10.12-46.96,21.04-68.05,10.24-19.78,23.58-37.91,39.38-53.61s33.94-28.86,53.84-38.76c20.03-9.96,41.8-16.41,64.06-18.71s45.35-.73,67.34,4.54c21.99,5.26,43.07,14.13,62.09,26.36,19.82,12.74,36.92,29.13,50.64,48.27,8.13,11.35,15.22,23.42,21.87,35.69s13.28,25.36,16.16,39.49c2.87,14.1,2.89,28.78,2.46,43.11-.42,14.16-1.84,28.32-5.14,42.11-1.61,6.73-3.68,13.33-6.23,19.76-1.19,3,3.65,4.3,4.83,1.33,10.7-26.97,12.75-57.1,11.43-85.84-.68-14.85-3.38-29.1-9.31-42.77s-12.98-25.95-20.46-38.25c-13.29-21.86-29.36-41.58-49.66-57.28-18.38-14.22-39.24-25.08-61.32-32.29s-45.47-10.74-68.72-10.24c-23.04,.5-45.94,5.03-67.35,13.59s-40.9,20.58-58.27,35.45c-17.38,14.88-32.41,32.54-44.37,52.04-11.95,19.49-20.86,40.94-25.87,63.26-3.23,14.42-5.01,29.29-3.91,44.08,1.02,13.69,4.26,27.15,9.6,39.8,2.6,6.16,5.66,12.09,9.2,17.76,1.7,2.73,6.04,.22,4.33-2.53h0Z"/>
    <path class="cls-3" d="M408.91,296.81c26.85,16.71,46.97-.03,62.37-22.33,0,0,.71-.99,.71-.99l.02-.03c2.86-4.4,10.09-4.43,12.83,.59,6.02,9.85,14.27,19.34,24.38,24.84,11.37,6.4,24.47,4.65,36.62-.41-2.38,2.58-4.98,5.1-8.05,7.07-17.03,11.98-38.7,5.79-52.75-7.76-5.03-4.72-9.36-10.01-12.96-15.88,0,0-.21-.35-.21-.35,0,0-.05-.09-.05-.09,2.02,3.81,7.82,4.94,11.12,2.01,.59-.37,1.64-1.85,1.36-1.48-.03,.03-.81,1.1-.83,1.13-8.52,11.98-20.05,23.54-34.61,27.94-14.56,4.89-32.16-1.31-39.97-14.25h0Z"/>
    <path class="cls-3" d="M398.04,228.92c.1,6.65-.03,13.29-.4,19.93-.6,10.74,16.1,10.7,16.7,0,.37-6.64,.5-13.28,.4-19.93-.17-10.74-16.87-10.77-16.7,0h0Z"/>
    <path class="cls-3" d="M561.56,249.18c.01-6.87-.19-13.72-.6-20.57-.65-10.68-17.35-10.75-16.7,0,.42,6.85,.62,13.71,.6,20.57-.02,10.75,16.68,10.76,16.7,0h0Z"/>
    <g>
      <path class="cls-9" d="M470.93,249.32c1.13-1.58,3.31-1.9,5.24-2.01,4.41-.27,8.89-.17,13.18,.88,.39,.09,.82,.23,1.01,.59,.19,.36,.05,.81-.12,1.18-.78,1.65-2.15,2.95-3.57,4.1-1.11,.9-2.3,1.75-3.63,2.26-2.4,.91-5.2,.61-7.44-.64s-3.92-3.43-4.73-5.87"/>
      <path class="cls-3" d="M473.88,252.28c.11-.15,.22-.29,.35-.42,.33-.3,.25-.25-.23,.14,.15-.1,.3-.19,.46-.27-.59,.23-.67,.26-.24,.11,.36-.1,.72-.19,1.09-.28,.46-.08,.37-.07-.26,.02,.19-.02,.38-.04,.57-.06,1.9-.16,3.82-.2,5.72-.15,.98,.02,1.96,.08,2.94,.16,.37,.03,.73,.07,1.1,.11,.49,.06,.49,.06-.02,0,.24,.04,.48,.08,.73,.12,.48,.08,.96,.18,1.44,.28,.24,.05,.48,.11,.72,.17,1.58,.48,.95-.74-1.91-3.66,.29-.99-.19,.15-.34,.4-.27,.38-.25,.35,.07-.08-.14,.16-.28,.33-.43,.48-.59,.63-1.25,1.19-1.92,1.74-.36,.29-.34,.28,.06-.04-.18,.13-.36,.26-.54,.39-.36,.25-.73,.49-1.12,.7-.19,.11-.39,.21-.59,.3,.49-.2,.52-.22,.09-.06-.31,.08-.62,.16-.93,.25-.47,.08-.42,.08,.16-.01-.21,.02-.43,.03-.64,.03-.21,0-.43,0-.64-.01-.48-.04-.43-.03,.15,.04-.37,.03-.9-.18-1.25-.29-.2-.06-.41-.13-.61-.21,.5,.22,.54,.23,.12,.03-.34-.21-.69-.41-1.04-.62-.37-.27-.32-.23,.14,.12-.15-.13-.3-.26-.44-.39-.29-.27-.55-.57-.81-.86-.29-.35-.25-.3,.11,.14-.11-.16-.23-.33-.33-.49-.21-.34-.39-.69-.58-1.04-.19-.42-.17-.36,.06,.18-.07-.18-.14-.37-.2-.56-.72-2.06-2.89-3.64-5.14-2.92-2.04,.66-3.68,2.93-2.92,5.14,1.38,3.97,4.09,7.34,8.01,9,4.16,1.76,8.87,1.33,12.61-1.25,3.46-2.39,9.18-7.23,6.52-11.99-1.28-2.29-4.04-2.71-6.39-3.07s-4.51-.55-6.8-.58c-4.14-.05-9.97-.29-12.8,3.36-.71,.92-1.22,1.74-1.22,2.95,0,1.02,.45,2.25,1.22,2.95,1.49,1.37,4.47,1.84,5.9,0h0Z"/>
    </g>
  </g>
</svg>