<?xml version="1.0" encoding="UTF-8"?>
<svg id="happy" xmlns="http://www.w3.org/2000/svg" viewBox="0 0 1000 1000">
  <defs>
    <style>
      .cls-1 {
        letter-spacing: 0em;
      }

      .cls-2 {
        font-family: FreeSansBold, FreeSans;
        font-size: 150px;
      }

      .cls-3 {
        fill: #c1d93b;
      }

      .cls-3, .cls-4, .cls-5, .cls-6, .cls-7, .cls-8, .cls-9, .cls-10, .cls-11, .cls-12, .cls-13, .cls-14, .cls-15, .cls-16, .cls-17 {
        fill-rule: evenodd;
      }

      .cls-4 {
        fill: #41577d;
      }

      .cls-5 {
        fill: #faa66e;
      }

      .cls-6 {
        fill: #ffb685;
      }

      .cls-18 {
        fill: red;
        letter-spacing: 0em;
      }

      .cls-19 {
        fill: #f87e67;
        opacity: .7;
      }

      .cls-20 {
        letter-spacing: -.01em;
      }

      .cls-7 {
        fill: #faf1e6;
      }

      .cls-8 {
        fill: #b1cc16;
      }

      .cls-9 {
        fill: #e8935a;
      }

      .cls-10 {
        fill: #2c3d5b;
      }

      .cls-11 {
        fill: #fefefe;
      }

      .cls-12 {
        fill: #f2f2f2;
      }

      .cls-13 {
        fill: #364b70;
      }

      .cls-14 {
        fill: #8f2f23;
      }

      .cls-21 {
        letter-spacing: 0em;
      }

      .cls-15 {
        fill: #f09b63;
      }

      .cls-16 {
        fill: #b13b32;
      }
    </style>
  </defs>
  <text class="cls-2" transform="translate(277.7 802.61)"><tspan class="cls-20" x="0" y="0">h</tspan><tspan x="89.4" y="0">a</tspan><tspan class="cls-1" x="172.8" y="0">p</tspan><tspan class="cls-21" x="263.7" y="0">p</tspan><tspan class="cls-18" x="353.85" y="0">y</tspan></text>
  <g>
    <path class="cls-6" d="M577.27,306.23c9.23-5.43,22.97-15.26,35.4-30.53,20.93-25.73,41.24-71.02,41.24-71.02,0,0,24.13-13.69,31.29-21.81,4.98-5.65,4.14-9.74-1.25-6.35-2.28,1.44-7.12,5.98-10.22,7.35,2.62-2.47,14.62-14.4,11.3-17.69-3.31-3.28-5.69,3.44-17.58,11.63,6.85-6.69,14.75-15.62,11.91-19.18-2.84-3.56-12.91,11.03-16.88,13.54,3.27-4.4,10.09-16.12,5.29-17.6-4.79-1.48-10.48,10.75-14.52,13.68l-11.99,7.78c-.68-1.26-.5-10.74-1.61-12.21-1.08-1.43-3.15-1.66-5.86,2.83-4.38,7.41-2.23,22.35-2.23,22.35-16.8,45.7-37.06,64.61-76.41,83.61-6.65,3.21-42.68,21.6-37.6,34.01,6.34,15.48,45.29,8.1,59.71-.39h0Z"/>
    <path class="cls-5" d="M577.27,306.23c7.55-4.45,18.13-11.84,28.53-22.74-5.59-8.3-13.61-17.91-24.37-25.59-7.72,5.18-16.39,9.95-26.27,14.72-6.65,3.21-42.68,21.6-37.61,34.01,6.34,15.48,45.29,8.1,59.71-.39h0Z"/>
    <path class="cls-3" d="M590.92,309.2c-1.83-13.64-17.51-32.51-30.61-40.11-8.94,3.81-31.12,15.49-38.08,22.4-12.68,12.6-5.2,22.16,10.14,29.73,2.26,1.12-10.68,19.34-7.77,19.23,15.8-.58,30.28-6.81,66.31-31.26h0Z"/>
    <path class="cls-8" d="M589.97,310.05c-6.74-14.11-18.93-32.45-32.54-39.71l13.05-7.73c7.63,3.66,29.48,29.98,30.87,40.61l-11.38,6.83h0Z"/>
    <path class="cls-6" d="M412.9,319.07c-9.97-3.9-25.1-11.43-39.79-24.54-24.74-22.08-51.97-63.58-51.97-63.58,0,0-26-9.69-34.35-16.57-5.81-4.79-5.63-8.97,.23-6.46,2.48,1.06,7.98,4.77,11.25,5.64-2.97-2.02-16.72-11.9-13.97-15.67,2.75-3.77,6.17,2.5,19.2,8.7-7.82-5.52-17.04-13.09-14.79-17.05,2.24-3.96,14.5,8.85,18.81,10.7-3.93-3.83-12.51-14.32-8.02-16.54,4.5-2.22,12.05,8.95,16.5,11.2l13.07,5.78c.47-1.35-1.21-10.69-.34-12.31,.84-1.59,2.84-2.14,6.23,1.86,5.5,6.63,5.74,21.71,5.74,21.71,23.83,42.46,46.83,57.92,88.69,70.45,7.07,2.12,45.57,14.56,42.52,27.62-3.8,16.29-43.44,15.17-59.02,9.07h0Z"/>
    <path class="cls-5" d="M412.9,319.07c-8.16-3.19-19.77-8.82-31.78-17.94,4.21-9.08,10.6-19.83,20.01-29.12,8.44,3.9,17.76,7.23,28.27,10.37,7.07,2.12,45.57,14.56,42.52,27.62-3.8,16.29-43.44,15.17-59.02,9.07h0Z"/>
    <path class="cls-3" d="M399.89,324.17c-.36-13.75,12.14-34.87,23.87-44.45,9.43,2.34,33.18,10.36,41.15,16.09,14.51,10.43,8.64,21.06-5.3,30.96-2.06,1.46,13.61,17.4,10.72,17.76-15.69,1.93-30.98-1.93-70.43-20.36h0Z"/>
    <path class="cls-8" d="M400.96,324.86c4.42-14.99,13.55-35.04,25.84-44.36l-14.11-5.56c-6.95,4.82-24.36,34.28-24.04,44.98l12.32,4.94h0Z"/>
    <path class="cls-5" d="M300.17,222.1c-5.37-2.56-10.46-5.31-13.39-7.72-5.81-4.79-5.63-8.97,.23-6.47,2.48,1.06,7.98,4.77,11.25,5.64-2.97-2.02-16.72-11.91-13.97-15.67,2.75-3.76,6.17,2.5,19.2,8.7-7.82-5.52-17.04-13.09-14.79-17.05,2.24-3.96,14.5,8.84,18.81,10.7-3.93-3.83-12.52-14.32-8.02-16.54,4.5-2.22,12.05,8.95,16.5,11.2l13.07,5.78c.47-1.35-1.21-10.69-.34-12.31,.82-1.54,2.74-2.11,5.98,1.57-5.81,23.39-24.8,30.21-34.54,32.18h0Z"/>
    <path class="cls-17" d="M571.15,68.37s41.49,70.69,5.17,120.25c-36.32,49.56-47.07-87.99-31.21-103.34,15.86-15.35,26.04-16.92,26.04-16.92h0Z"/>
    <path class="cls-6" d="M443.35,638.52s2.47-106.98,.85-152.53c-1.63-45.55,34.43-46.38,42.61-28.1,8.19,18.28-.35,67.37-3.34,98.96-2.99,31.59-6.4,81.67-6.4,81.67,3.32,16.18-19.78,20.18-28.49,15.73-8.7-4.45-5.23-15.73-5.23-15.73h0Z"/>
    <path class="cls-5" d="M444.59,561.15c.26-27.65,.27-56.54-.39-75.16-.13-3.52-.03-6.77,.27-9.77,6.35-10,13.37-19.95,20.99-29.18,8.79-1.51,17.76,2.83,21.35,10.86,8.19,18.28-.35,67.37-3.34,98.96-.2,2.07-.4,4.21-.59,6.42-14.78-.18-27.58-1.02-38.29-2.12h0Z"/>
    <path class="cls-7" d="M443.37,637.62l-1.63-27.21c9.52,.18,25.24,.2,38.19,.17-1.44,15.84-2.44,26.9-2.44,26.9,3.32,16.18-21.17,23.04-29.87,18.59-8.71-4.45-6.06-17.18-4.25-18.45h0Z"/>
    <path class="cls-4" d="M443.37,637.62c-3.27,.68-19.94,20.05-18.41,33.2h65.47s1.22-15.03-12.93-33.34c-26.02,7.53-35.4,3.5-34.12,.14h0Z"/>
    <path class="cls-13" d="M426.13,669.74h62.47c1.91,0,3.48,1.57,3.48,3.48h0c0,1.92-1.57,3.48-3.48,3.48h-62.47c-1.91,0-3.48-1.57-3.48-3.48h0c0-1.92,1.57-3.48,3.48-3.48h0Z"/>
    <path class="cls-7" d="M437.77,648.64c-.99,.29-2.11-.1-2.49-.87-.38-.77,.11-1.63,1.1-1.92,3.02-.88,7.66-1.51,12.09-1.28,3.61,.19,7.14,.94,9.73,2.54,.83,.52,.97,1.46,.31,2.1-.66,.64-1.88,.74-2.72,.22-1.9-1.18-4.66-1.74-7.54-1.89-3.88-.2-7.89,.33-10.48,1.09h0Z"/>
    <path class="cls-7" d="M436.54,654.08c-.99,.29-2.11-.1-2.49-.87-.38-.77,.11-1.63,1.1-1.92,3.02-.88,7.66-1.5,12.09-1.28,3.61,.19,7.14,.94,9.73,2.54,.83,.52,.97,1.46,.31,2.1-.66,.64-1.88,.74-2.72,.22-1.9-1.18-4.66-1.74-7.54-1.89-3.88-.2-7.89,.33-10.48,1.09h0Z"/>
    <polygon class="cls-9" points="475.73 251.59 506.38 256.94 508.97 287.39 492.31 290.81 474.86 290.35 475.73 251.59 475.73 251.59"/>
    <path class="cls-6" d="M557.55,635.07s-3.26-103.53-1.64-149.08c1.63-45.55-34.43-46.38-42.61-28.1-8.19,18.28,.35,67.37,3.34,98.96,2.99,31.59,5.97,80.77,5.97,80.77l13.35,24.12,21.58-26.67h0Z"/>
    <path class="cls-5" d="M555.81,559.52c-.41-26.86-.56-54.99,.11-73.53,1.63-45.55-34.43-46.38-42.61-28.1-8.19,18.28,.35,67.37,3.34,98.96,.18,1.89,.36,3.85,.54,5.86,11.97-.57,24.86-1.59,38.63-3.19h0Z"/>
    <path class="cls-7" d="M557.56,634.92s.99-10.27,.75-24.48c-12.07,.08-26.67,.1-38.37,.04,1.42,15.59,2.48,27.01,2.48,27.01l13.56,24.24,21.59-26.82h0Z"/>
    <path class="cls-4" d="M522.62,637.47s-5.85,4.16-7.21,14.68c-1.36,10.52,1.34,18.83,1.34,18.83l70.71,2.69,8.08-3.64c2.23-18.44-28.51-29.58-37.98-35.11-2.5,4.29-27.5,17.29-34.94,2.55h0Z"/>
    <path class="cls-7" d="M584.95,650.56c-.84-.67-1.72-1.32-2.61-1.95-2.57,1.27-4.83,2.87-6.29,4.27-.61,.59-.57,1.48,.09,1.99,.66,.51,1.7,.45,2.31-.13,1.44-1.38,3.83-3,6.5-4.17h0Z"/>
    <path class="cls-7" d="M578.84,646.27c-.94-.59-1.89-1.16-2.84-1.72-1.7,1.02-3.17,2.13-4.22,3.14-.61,.59-.57,1.48,.09,1.99,.66,.51,1.69,.45,2.3-.13,1.1-1.05,2.76-2.25,4.67-3.28h0Z"/>
    <path class="cls-13" d="M516.75,669.74h77.99c1.91,0,3.48,1.57,3.48,3.48h0c0,1.92-1.57,3.48-3.48,3.48h-77.99c-1.91,0-3.48-1.57-3.48-3.48h0c0-1.92,1.57-3.48,3.48-3.48h0Z"/>
    <path class="cls-10" d="M435.98,442.65c-2.23,38.95-.48,96.62-1.03,109.82l55.91,.03,1.86-69.04c3.56-.02,6.8-.27,10.36-.29l3.76,69.38,59.27-2.17c.4-33.55-2.36-71.83-3.53-107.74,0,0-107.1-35.46-126.59,.03h0Z"/>
    <path class="cls-3" d="M435.98,442.65s3.29-102.4,5.67-121.71c2.1-17.09,10.84-27.1,24.4-32.01,12.06,13.15,44.56,13.51,54.97-3.59,17.54,2.39,29.46,10.66,31.23,34.32,2.17,29.1,10.22,122.88,10.22,122.88,3.59,.9-75.64,15.35-126.47,.11h0Z"/>
    <path class="cls-9" d="M462.68,291.68c6.81-4.96,22.89-8.17,34.19-8.58,9.42-.34,21.55,.51,26.81,4.32-5.05,6.55-18.53,11.8-30.5,11.8s-24.26-5.34-30.5-7.54h0Z"/>
    <path class="cls-6" d="M389.09,219.62c-25.01,.75-30.73-34.06-10.55-40.18-17.45-55.88,15.96-115.97,88.31-128.92,50.07-8.96,106.79,13.45,122.43,72.8,10.49,39.84,11.73,79.9-2.16,106.81-33.83,65.57-170.53,59.29-198.03-10.51h0Z"/>
    <path class="cls-5" d="M389.09,219.62c-6.5,1.34-11.56-2.44-15.19-5.23,7.23,1.9,14.38,1.69,21.78-3.71,20.82,66.51,137.28,77.48,179.64,35.74-46.28,47.59-161.26,36.58-186.23-26.8h0Z"/>
    <path class="cls-9" d="M567.61,146.78c10.87,0,19.68,8.82,19.68,19.71s-8.81,19.71-19.68,19.71-19.68-8.83-19.68-19.71,8.81-19.71,19.68-19.71h0Z"/>
    <path class="cls-9" d="M447.29,150.38c11.62,0,21.05,8.83,21.05,19.71s-9.42,19.71-21.05,19.71-21.05-8.83-21.05-19.71,9.42-19.71,21.05-19.71h0Z"/>
    <path class="cls-11" d="M449.55,152.39c11.62,0,21.05,8.82,21.05,19.71s-9.42,19.71-21.05,19.71-21.05-8.82-21.05-19.71,9.42-19.71,21.05-19.71h0Z"/>
    <path class="cls-17" d="M451.63,156.94c7.82,0,14.15,6.34,14.15,14.15s-6.34,14.15-14.15,14.15-14.15-6.34-14.15-14.15,6.33-14.15,14.15-14.15h0Z"/>
    <path class="cls-11" d="M565.85,149.54c10.87,0,19.68,8.83,19.68,19.71s-8.81,19.71-19.68,19.71-19.68-8.82-19.68-19.71,8.81-19.71,19.68-19.71h0Z"/>
    <path class="cls-17" d="M562.67,155.32c7.22,0,13.07,6.34,13.07,14.15s-5.85,14.15-13.07,14.15-13.07-6.34-13.07-14.15,5.85-14.15,13.07-14.15h0Z"/>
    <path class="cls-17" d="M431.35,170.02c8.57-12.36,24.8-15.44,35.96-5.44,2.5,2.24,4.21,4.87,1.8-1.16-4.07-10.19-16.91-13.2-26.48-10.35-7.48,2.23-15.21,10.58-14.94,19.9,.15,4.99,1.58,.02,3.65-2.96h0Z"/>
    <path class="cls-11" d="M444.44,163.78c2.2,0,3.98,1.78,3.98,3.97s-1.78,3.97-3.98,3.97-3.98-1.78-3.98-3.97,1.78-3.97,3.98-3.97h0Z"/>
    <path class="cls-11" d="M555.75,161.61c2.19,0,3.98,1.78,3.98,3.97s-1.78,3.97-3.98,3.97-3.97-1.78-3.97-3.97,1.78-3.97,3.97-3.97h0Z"/>
    <path class="cls-17" d="M549.77,162.08c-2.6,2.02-4.98,5.39-2.67-.67,3.72-9.79,14.1-13.33,23.17-11.44,9.29,1.93,16.33,9.34,15.95,18.4-.07,1.64-.86,.56-1.5-.44-7.31-11.4-20.27-17.19-34.94-5.84h0Z"/>
    <path class="cls-15" d="M530.74,196.43c-.5,15.73-25.11,15.49-26.62,4.11,2.86,.91,6.28,2.34,11.63,2.01,4.61-.29,11.07-1.89,15-6.13h0Z"/>
    <path class="cls-5" d="M382.49,201.27s-2.93-5.19,2.01-6.36c2.57-.61,4.09,1.64,4.91,3.91,.76,2.1,.92,4.22,.78,4.13,0,0-.7-.99-1.69-1.99-1.84-1.87-4.7-3.82-6.01,.32h0Z"/>
    <path class="cls-17" d="M424.47,142.78c7.5-6.64,21.82-9.1,28.71-9.31,13.05-.39,7.18-7.92,.9-8.29-11.84-.7-25.43,5.43-32.55,13.09-5.62,6.04-6.01,12.43,2.94,4.51h0Z"/>
    <path class="cls-17" d="M580.58,136.85c-6.83-6.22-20.26-7.85-26.75-7.65-12.29,.38-6.49-7.53-.55-8.27,11.2-1.39,23.8,3.96,30.24,11.22,5.08,5.73,5.22,12.12-2.93,4.7h0Z"/>
    <path class="cls-17" d="M396.09,195.12c2.01,0,6.42-1.01,4.02-23.9-1.98-18.81-8.35-63.12,11.58-88.29,50.74,10.37,128.08,16.45,156.65-.47,3.94-2.34,3.51-8.52,2.81-14.09-16.19-53.34-141.34-59.91-187.71,8.85-30.12,36.46-18.35,90.97-11.54,105.99,17.37-12.2,20.56,11.91,24.19,11.91h0Z"/>
    <path class="cls-5" d="M287.09,211.12s3.12-3.28,7.34-4.78c2.61-.92,5.98-.92,8.21-.79,7.96,.46-9.57-8.4-15.54,5.57h0Z"/>
    <path class="cls-8" d="M466.55,289.46c7.49,5.8,17.88,7.77,26.71,7.49,12.53-.4,22.62-5.5,26.12-11.62l8.83,1.43c-12.3,24.56-55.65,26.58-71.99,4.35l10.33-1.65h0Z"/>
    <ellipse class="cls-19" cx="444.09" cy="208.26" rx="10.26" ry="24.92" transform="translate(193.54 629.94) rotate(-84.41)"/>
    <ellipse class="cls-19" cx="573.32" cy="201.42" rx="20.76" ry="8.55" transform="translate(-26.16 101.97) rotate(-9.94)"/>
    <g>
      <path class="cls-14" d="M495.2,230.1c17.63,6.22,34.59,1.21,48.11-4.09,5.41-2.12,2.14,7.37,1.15,9.83-5.08,12.58-20.7,20.2-34.06,18.4-11.21-1.51-19.06-9.57-22.08-16.65-3.45-8.11-3.47-11.15,6.89-7.49h0Z"/>
      <path class="cls-16" d="M533.66,248.59c-6.81,4.52-15.42,6.71-23.26,5.66-10.58-1.42-18.18-8.7-21.53-15.46,9.23-3.94,42.63-5.51,44.79,9.81h0Z"/>
      <path class="cls-11" d="M496.08,230.4c16.49,4.94,32.2,.94,44.97-3.51,.24,8.54-10.6,13.29-22.9,14.6-10.77,1.15-19.33-1.72-22.07-11.09h0Z"/>
      <path class="cls-12" d="M496.08,230.4c16.49,4.94,32.2,.94,44.97-3.51,.03,1.03-.11,2.01-.38,2.94-18.52,7.21-34.08,5.78-43.41,3.57-.47-.91-.86-1.91-1.18-2.99h0Z"/>
    </g>
  </g>
</svg>