<?xml version="1.0" encoding="UTF-8" standalone="no"?>
<!-- Created with Inkscape (http://www.inkscape.org/) -->

<svg
   xmlns:dc="http://purl.org/dc/elements/1.1/"
   xmlns:cc="http://creativecommons.org/ns#"
   xmlns:rdf="http://www.w3.org/1999/02/22-rdf-syntax-ns#"
   xmlns:svg="http://www.w3.org/2000/svg"
   xmlns="http://www.w3.org/2000/svg"
   xmlns:sodipodi="http://sodipodi.sourceforge.net/DTD/sodipodi-0.dtd"
   xmlns:inkscape="http://www.inkscape.org/namespaces/inkscape"
   width="1000"
   height="1000"
   viewBox="0 0 264.58333 264.58334"
   version="1.1"
   id="svg2383"
   inkscape:version="0.92.5 (2060ec1f9f, 2020-04-08)"
   sodipodi:docname="dislike.svg"
   enable-background="new">
  <defs
     id="defs2377">
    <clipPath
       clipPathUnits="userSpaceOnUse"
       id="clipPath134">
      <path
         d="m 6841.47,8968.3 c -52.58,0 -106.26,10.7 -158.49,30.4 l 373.95,462.13 c 5.23,1.18 10.47,2.47 15.71,3.86 -31.86,-100.46 -19.66,-223.28 57.62,-345.8 C 7053.69,9013.7 6949.9,8968.3 6841.47,8968.3"
         id="path132"
         inkscape:connector-curvature="0" />
    </clipPath>
    <clipPath
       clipPathUnits="userSpaceOnUse"
       id="clipPath1280">
      <path
         d="m 7458.17,8337.04 -914.46,298.32 37.02,-335.52 879.66,-215.55 z"
         id="path1278"
         inkscape:connector-curvature="0" />
    </clipPath>
    <clipPath
       clipPathUnits="userSpaceOnUse"
       id="clipPath748">
      <path
         d="m 7780.8,7640.96 c -45,87.49 -69.16,350.4 -6.1,438.58 l 11.49,2.42 1.15,-0.28 621.95,126.05 c -73.02,-40.27 -148.92,-87.89 -179.15,-159.94 v 0 0 c 84.22,58.31 318.04,79.92 470.45,100.32 -70.19,-41.88 -161.75,-76.06 -285.43,-76.06 -0.47,0 -0.95,0 -1.42,0 v 0 0 c 41.91,-16.14 97.86,-22.61 159.29,-22.61 132.05,0 289.37,29.92 386.84,58.15 -36.26,-45.03 -89.4,-123.97 -289.22,-123.97 -18.56,0 -38.42,0.68 -59.63,2.13 v 0 0 c 61.98,-16.53 125.39,-23.45 187,-23.44 97.93,0 191.25,17.49 266.61,41.64 0.59,-9.75 1.25,-19.09 1.96,-27.95 -32.01,-26.53 -60.07,-55.35 -82.49,-88.13 L 7780.8,7640.96"
         id="path746"
         inkscape:connector-curvature="0" />
    </clipPath>
    <clipPath
       clipPathUnits="userSpaceOnUse"
       id="clipPath218">
      <path
         d="m 6106.78,7454.1 1491.2,-221.7 c 49.74,82.9 24.83,380.51 -1.34,457.95 l -1491.15,228.22 c 18.37,-73.74 20.73,-397.67 1.29,-464.47 z"
         id="path216"
         inkscape:connector-curvature="0" />
    </clipPath>
    <clipPath
       clipPathUnits="userSpaceOnUse"
       id="clipPath340">
      <path
         d="m 22623.8,11266.1 c 0,-351.7 -425.7,-970.2 -1342.7,-970.2 -917.1,0 -1365.2,626 -1365.2,977.8 0,351.6 448.1,96 1365.2,96 917,0 1342.7,248.1 1342.7,-103.6"
         id="path338"
         inkscape:connector-curvature="0" />
    </clipPath>
    <clipPath
       clipPathUnits="userSpaceOnUse"
       id="clipPath126">
      <path
         d="m 6697.11,13767.2 c 0,-227.5 -275.41,-627.7 -868.7,-627.7 -593.35,0 -883.26,405.1 -883.26,632.6 0,227.6 289.91,62.2 883.26,62.2 593.29,0 868.7,160.5 868.7,-67.1"
         id="path124"
         inkscape:connector-curvature="0" />
    </clipPath>
    <clipPath
       clipPathUnits="userSpaceOnUse"
       id="clipPath5284">
      <path
         d="m 19092,8598.2 v 730.5 l 7.8,3.6 1,0.2 10.9,1.1 v -731.2 l -0.2,-0.1 -19.5,-4.1"
         id="path5282"
         inkscape:connector-curvature="0" />
    </clipPath>
    <clipPath
       clipPathUnits="userSpaceOnUse"
       id="clipPath4552">
      <path
         d="m 18061.9,8118.3 -4730.6,147.8 16.7,743.1 4730.7,-147.9 z"
         id="path4550"
         inkscape:connector-curvature="0" />
    </clipPath>
    <clipPath
       clipPathUnits="userSpaceOnUse"
       id="clipPath3516">
      <path
         d="m 18061.9,8118.3 16.7,743 39.6,18.3 436.4,201.2 537.4,247.9 v -730.5 l 19.5,4.1 -1049.6,-484 m 1049.8,484.1 v 731.2 l -10.9,-1.1 -1,-0.2 10.3,4.8 760.1,350.5 -15.7,-697.2 -1.1,-45.9 -741.7,-342.1"
         id="path3514"
         inkscape:connector-curvature="0" />
    </clipPath>
    <clipPath
       clipPathUnits="userSpaceOnUse"
       id="clipPath2382">
      <path
         d="m 18577.5,12803.3 -1770.3,380.2 70.1,-783.9 1713,-293.8 z"
         id="path2380"
         inkscape:connector-curvature="0" />
    </clipPath>
    <clipPath
       clipPathUnits="userSpaceOnUse"
       id="clipPath1310">
      <path
         d="m 18633.2,12052.9 -2006.6,389.5 99.7,-1075.2 1964.8,-287.2 z"
         id="path1308"
         inkscape:connector-curvature="0" />
    </clipPath>
    <clipPath
       clipPathUnits="userSpaceOnUse"
       id="clipPath218-1">
      <path
         d="m 19593.8,9828.4 -242.3,36.8 c 76.9,135.8 163.8,265.3 260.8,383.7 7.5,-179.7 4.2,-348.1 -18.5,-420.5 m -15,823.6 c -35.5,1.3 -72.9,2.6 -111.7,4 10.6,38.4 26.9,64.7 51.2,70.1 -19.7,0.4 -404,29.2 -448.8,29.2 -1.7,0 -2.8,0 -3.5,-0.1 -11.8,-9.9 -19.4,-41 -24.3,-83.7 -715.3,26.1 -1688.6,61.8 -2466.5,90.2 -7.2,220.2 -25.2,448.8 -47.6,542.2 l 1517.4,-238.4 1498.9,-235.6 c 11.9,-31.4 24,-95.9 34.9,-177.9"
         id="path216-2"
         inkscape:connector-curvature="0" />
    </clipPath>
    <clipPath
       clipPathUnits="userSpaceOnUse"
       id="clipPath682">
      <path
         d="m 19012.9,25256.7 c 169.8,147.7 387.4,238.5 620.7,249.2 0.3,-0.1 0.6,-0.2 0.8,-0.3 -233.5,-10.4 -451.4,-101.2 -621.5,-248.9"
         id="path680"
         inkscape:connector-curvature="0" />
    </clipPath>
    <clipPath
       clipPathUnits="userSpaceOnUse"
       id="clipPath388">
      <path
         d="m 15851.3,2050.7 c -1290.4,0 -2336.4,128.7 -2336.4,287.4 0,79.2 260.5,150.9 682,202.8 132.4,-92 263.2,-161.5 387.3,-198.8 208.4,-62.5 710.3,-110.7 1223.8,-110.7 173.5,0 348.3,5.5 513.5,17.8 56.1,3.9 111.2,8.9 165.3,15.1 143.2,15.5 275.4,37.1 388.5,65.6 232.9,52.8 444.5,125.7 635.5,210.4 418.4,-51.9 676.9,-123.4 676.9,-202.2 0,-158.7 -1046.1,-287.4 -2336.4,-287.4"
         id="path386"
         inkscape:connector-curvature="0" />
    </clipPath>
    <clipPath
       clipPathUnits="userSpaceOnUse"
       id="clipPath252">
      <path
         d="m 21591.6,22978.2 1.3,2.1 v 0 c -0.4,-0.7 -0.9,-1.4 -1.3,-2.1"
         id="path250"
         inkscape:connector-curvature="0" />
    </clipPath>
  </defs>
  <sodipodi:namedview
     id="base"
     pagecolor="#ffffff"
     bordercolor="#666666"
     borderopacity="1.0"
     inkscape:pageopacity="0.0"
     inkscape:pageshadow="2"
     inkscape:zoom="0.70710678"
     inkscape:cx="658.47519"
     inkscape:cy="414.18128"
     inkscape:document-units="px"
     inkscape:current-layer="layer1"
     showgrid="false"
     units="px"
     inkscape:window-width="1920"
     inkscape:window-height="1031"
     inkscape:window-x="0"
     inkscape:window-y="25"
     inkscape:window-maximized="1"
     showguides="true"
     inkscape:lockguides="true"
     inkscape:object-nodes="false"
     inkscape:snap-nodes="false"
     inkscape:snap-others="false" />
  <metadata
     id="metadata2380">
    <rdf:RDF>
      <cc:Work
         rdf:about="">
        <dc:format>image/svg+xml</dc:format>
        <dc:type
           rdf:resource="http://purl.org/dc/dcmitype/StillImage" />
        <dc:title></dc:title>
      </cc:Work>
    </rdf:RDF>
  </metadata>
  <g
     inkscape:groupmode="layer"
     id="layer3"
     inkscape:label="Layer 2" />
  <g
     inkscape:groupmode="layer"
     id="layer2"
     inkscape:label="Layer 3" />
  <g
     inkscape:label="Layer 1"
     inkscape:groupmode="layer"
     id="layer1"
     transform="translate(0,-32.41665)">
    <text
       xml:space="preserve"
       style="font-style:normal;font-variant:normal;font-weight:bold;font-stretch:normal;font-size:10.58333302px;line-height:1.25;font-family:sans-serif;-inkscape-font-specification:'sans-serif Bold';letter-spacing:0px;word-spacing:0px;fill:#000000;fill-opacity:1;stroke:none;stroke-width:0.26458332"
       x="150.05655"
       y="89.869026"
       id="text8811" />
    <text
       xml:space="preserve"
       style="font-style:normal;font-variant:normal;font-weight:bold;font-stretch:normal;font-size:10.58333302px;line-height:1.25;font-family:sans-serif;-inkscape-font-specification:'sans-serif Bold';letter-spacing:0px;word-spacing:0px;fill:#000000;fill-opacity:1;stroke:none;stroke-width:0.26458332"
       x="160.63989"
       y="97.806526"
       id="text8815" />
    <text
       xml:space="preserve"
       style="font-style:normal;font-variant:normal;font-weight:bold;font-stretch:normal;font-size:10.58333302px;line-height:1.25;font-family:sans-serif;-inkscape-font-specification:'sans-serif Bold';letter-spacing:0px;word-spacing:0px;fill:#000000;fill-opacity:1;stroke:none;stroke-width:0.26458332"
       x="156.86011"
       y="88.7351"
       id="text8819" />
    <flowRoot
       xml:space="preserve"
       id="flowRoot8821"
       style="font-style:normal;font-variant:normal;font-weight:bold;font-stretch:normal;font-size:40px;line-height:1.25;font-family:sans-serif;-inkscape-font-specification:'sans-serif Bold';letter-spacing:0px;word-spacing:0px;fill:#000000;fill-opacity:1;stroke:none"><flowRegion
         id="flowRegion8823"
         style="font-style:normal;font-variant:normal;font-weight:bold;font-stretch:normal;font-family:sans-serif;-inkscape-font-specification:'sans-serif Bold'" /><flowPara
         id="flowPara8827" /></flowRoot>    <flowRoot
       xml:space="preserve"
       id="flowRoot8829"
       style="font-style:normal;font-variant:normal;font-weight:bold;font-stretch:normal;font-size:40px;line-height:1.25;font-family:sans-serif;-inkscape-font-specification:'sans-serif Bold';letter-spacing:0px;word-spacing:0px;fill:#000000;fill-opacity:1;stroke:none"><flowRegion
         id="flowRegion8831"
         style="font-style:normal;font-variant:normal;font-weight:bold;font-stretch:normal;font-family:sans-serif;-inkscape-font-specification:'sans-serif Bold'" /><flowPara
         id="flowPara8835" /></flowRoot>    <flowRoot
       xml:space="preserve"
       id="flowRoot8837"
       style="font-style:normal;font-variant:normal;font-weight:bold;font-stretch:normal;font-size:40px;line-height:1.25;font-family:sans-serif;-inkscape-font-specification:'sans-serif Bold';letter-spacing:0px;word-spacing:0px;fill:#000000;fill-opacity:1;stroke:none"><flowRegion
         id="flowRegion8839"
         style="font-style:normal;font-variant:normal;font-weight:bold;font-stretch:normal;font-family:sans-serif;-inkscape-font-specification:'sans-serif Bold'" /><flowPara
         id="flowPara8843" /></flowRoot>    <text
       xml:space="preserve"
       style="font-style:normal;font-variant:normal;font-weight:bold;font-stretch:normal;font-size:10.58333302px;line-height:1.25;font-family:sans-serif;-inkscape-font-specification:'sans-serif Bold';letter-spacing:0px;word-spacing:0px;fill:#000000;fill-opacity:1;stroke:none;stroke-width:0.26458332"
       x="209.39882"
       y="107.25594"
       id="text8847" />
    <flowRoot
       xml:space="preserve"
       id="flowRoot8849"
       style="font-style:normal;font-variant:normal;font-weight:bold;font-stretch:normal;font-size:40px;line-height:1.25;font-family:sans-serif;-inkscape-font-specification:'sans-serif Bold';letter-spacing:0px;word-spacing:0px;fill:#000000;fill-opacity:1;stroke:none"><flowRegion
         id="flowRegion8851"
         style="font-style:normal;font-variant:normal;font-weight:bold;font-stretch:normal;font-family:sans-serif;-inkscape-font-specification:'sans-serif Bold'" /><flowPara
         id="flowPara8855" /></flowRoot>    <flowRoot
       xml:space="preserve"
       id="flowRoot8857"
       style="font-style:normal;font-variant:normal;font-weight:bold;font-stretch:normal;font-size:40px;line-height:1.25;font-family:sans-serif;-inkscape-font-specification:'sans-serif Bold';letter-spacing:0px;word-spacing:0px;fill:#000000;fill-opacity:1;stroke:none"><flowRegion
         id="flowRegion8859"
         style="font-style:normal;font-variant:normal;font-weight:bold;font-stretch:normal;font-family:sans-serif;-inkscape-font-specification:'sans-serif Bold'" /><flowPara
         id="flowPara8863" /></flowRoot>    <flowRoot
       xml:space="preserve"
       id="flowRoot8865"
       style="font-style:normal;font-variant:normal;font-weight:bold;font-stretch:normal;font-size:40px;line-height:1.25;font-family:sans-serif;-inkscape-font-specification:'sans-serif Bold';letter-spacing:0px;word-spacing:0px;fill:#000000;fill-opacity:1;stroke:none"><flowRegion
         id="flowRegion8867"
         style="font-style:normal;font-variant:normal;font-weight:bold;font-stretch:normal;font-family:sans-serif;-inkscape-font-specification:'sans-serif Bold'" /><flowPara
         id="flowPara8871" /></flowRoot>    <flowRoot
       xml:space="preserve"
       id="flowRoot8873"
       style="font-style:normal;font-variant:normal;font-weight:bold;font-stretch:normal;font-size:40px;line-height:1.25;font-family:sans-serif;-inkscape-font-specification:'sans-serif Bold';letter-spacing:0px;word-spacing:0px;fill:#000000;fill-opacity:1;stroke:none"><flowRegion
         id="flowRegion8875"
         style="font-style:normal;font-variant:normal;font-weight:bold;font-stretch:normal;font-family:sans-serif;-inkscape-font-specification:'sans-serif Bold'" /><flowPara
         id="flowPara8879" /></flowRoot>    <text
       xml:space="preserve"
       style="font-style:normal;font-weight:normal;font-size:10.58333302px;line-height:1.25;font-family:sans-serif;letter-spacing:0px;word-spacing:0px;fill:#000000;fill-opacity:1;stroke:none;stroke-width:0.26458332"
       x="101.02788"
       y="69.125984"
       id="text977"><tspan
         sodipodi:role="line"
         id="tspan975"
         x="101.02788"
         y="78.489754"
         style="stroke-width:0.26458332" /><tspan
         sodipodi:role="line"
         x="101.02788"
         y="91.718918"
         style="stroke-width:0.26458332"
         id="tspan979" /><tspan
         sodipodi:role="line"
         x="101.02788"
         y="104.94809"
         style="stroke-width:0.26458332"
         id="tspan981" /><tspan
         sodipodi:role="line"
         x="101.02788"
         y="118.17725"
         style="stroke-width:0.26458332"
         id="tspan983" /><tspan
         sodipodi:role="line"
         x="101.02788"
         y="131.40642"
         style="stroke-width:0.26458332"
         id="tspan985" /><tspan
         sodipodi:role="line"
         x="101.02788"
         y="144.63559"
         style="stroke-width:0.26458332"
         id="tspan987" /><tspan
         sodipodi:role="line"
         x="101.02788"
         y="157.86475"
         style="stroke-width:0.26458332"
         id="tspan989" /><tspan
         sodipodi:role="line"
         x="101.02788"
         y="171.09392"
         style="stroke-width:0.26458332"
         id="tspan991" /><tspan
         sodipodi:role="line"
         x="101.02788"
         y="184.32309"
         style="stroke-width:0.26458332"
         id="tspan993" /><tspan
         sodipodi:role="line"
         x="101.02788"
         y="197.55225"
         style="stroke-width:0.26458332"
         id="tspan995" /><tspan
         sodipodi:role="line"
         x="101.02788"
         y="210.78142"
         style="stroke-width:0.26458332"
         id="tspan997" /><tspan
         sodipodi:role="line"
         x="101.02788"
         y="224.01059"
         style="stroke-width:0.26458332"
         id="tspan999" /><tspan
         sodipodi:role="line"
         x="101.02788"
         y="237.23975"
         style="stroke-width:0.26458332"
         id="tspan1001" /><tspan
         sodipodi:role="line"
         x="101.02788"
         y="250.46892"
         style="stroke-width:0.26458332"
         id="tspan1003" /><tspan
         sodipodi:role="line"
         x="101.02788"
         y="263.69809"
         style="stroke-width:0.26458332"
         id="tspan1005" /><tspan
         sodipodi:role="line"
         x="101.02788"
         y="276.92725"
         style="stroke-width:0.26458332"
         id="tspan1007" /><tspan
         sodipodi:role="line"
         x="101.02788"
         y="290.1564"
         style="stroke-width:0.26458332"
         id="tspan1009" /><tspan
         sodipodi:role="line"
         x="101.02788"
         y="303.38559"
         style="stroke-width:0.26458332"
         id="tspan1011" /><tspan
         sodipodi:role="line"
         x="101.02788"
         y="316.61475"
         style="stroke-width:0.26458332"
         id="tspan1013" /><tspan
         sodipodi:role="line"
         x="101.02788"
         y="329.8439"
         style="stroke-width:0.26458332"
         id="tspan1015" /><tspan
         sodipodi:role="line"
         x="101.02788"
         y="343.07309"
         style="stroke-width:0.26458332"
         id="tspan1017" /><tspan
         sodipodi:role="line"
         x="101.02788"
         y="356.30225"
         style="stroke-width:0.26458332"
         id="tspan1019" /><tspan
         sodipodi:role="line"
         x="101.02788"
         y="369.5314"
         style="stroke-width:0.26458332"
         id="tspan1021" /><tspan
         sodipodi:role="line"
         x="101.02788"
         y="382.76059"
         style="stroke-width:0.26458332"
         id="tspan1023" /></text>
    <g
       id="g18"
       transform="matrix(0.02341038,0,0,-0.02341038,-196.52202,340.45769)"
       style="stroke-width:1.70394468">
      <path
         d="m 12385,8194.34 c -333.8,877.26 -258.1,1355.25 135,3191.06 h 3386.2 c 384.2,-1463.34 377.3,-2275.25 348.8,-2806.07 -13.9,253.48 45,778.71 -294,2055.77 306.7,-1612.71 316.1,-2129.65 19.4,-2403.91 187.6,347.62 24.3,1308.42 -23.3,1429.45 1.9,-345.89 53.3,-1006.42 -116.9,-1510 -695.7,-394.48 -2600.9,-304.99 -3150.3,-116.39 -51.2,129.52 -67,971.34 -79,1140.17 -41.4,-228.96 -59,-832.55 -21.1,-1128.58 -234.8,295.69 -307.3,1322.3 -144.3,2663.16 -242.1,-1055.13 -254.1,-1796.78 -60.5,-2514.66"
         style="fill:#ad5c49;fill-opacity:1;fill-rule:nonzero;stroke:none;stroke-width:1.70394468"
         id="path20"
         inkscape:connector-curvature="0" />
    </g>
    <g
       id="g22"
       transform="matrix(0.02374661,0,0,-0.02374661,-196.52202,340.45769)"
       style="stroke-width:1.70394468">
      <path
         d="m 16295.6,6731.37 c 4.4,-31.98 -371.8,-78.27 -379.3,-46.92 -124.6,520.56 -597.3,1342.35 -700.7,1504.07 210.5,-54.56 489.8,-135.73 702.2,-283.46 163.3,-113.58 310.6,-675.71 377.8,-1173.69"
         style="fill:#ffc19f;fill-opacity:1;fill-rule:nonzero;stroke:none;stroke-width:1.70394468"
         id="path24"
         inkscape:connector-curvature="0" />
    </g>
    <g
       id="g26"
       transform="matrix(0.02332198,0,0,-0.02332198,-196.52202,340.45769)"
       style="stroke-width:1.70394468">
      <path
         d="m 16229.4,6331.1 c -17.6,-15.78 -177,-22.79 -264.3,197.4 -29.7,75.09 63.2,294.75 287.9,458.77 20.6,15.04 24.1,-40.02 35.5,-76 11.5,-35.99 -13.6,-539.48 -59.1,-580.17"
         style="fill:#ffc19f;fill-opacity:1;fill-rule:nonzero;stroke:none;stroke-width:1.70394468"
         id="path28"
         inkscape:connector-curvature="0" />
    </g>
    <g
       id="g30"
       transform="matrix(0.02322882,0,0,-0.02322882,-196.52202,340.45769)"
       style="stroke-width:1.70394468">
      <path
         d="m 16243.2,6387.36 c 56.8,7.76 45.6,391.63 -11.2,383.86 -56.7,-7.78 -100,-119.87 -105.9,-203.03 -6.7,-94.06 60.4,-188.61 117.1,-180.83"
         style="fill:#e0956c;fill-opacity:1;fill-rule:nonzero;stroke:none;stroke-width:1.70394468"
         id="path32"
         inkscape:connector-curvature="0" />
    </g>
    <g
       id="g34"
       transform="matrix(0.0237965,0,0,-0.0237965,-196.52202,340.45769)"
       style="stroke-width:1.70394468">
      <path
         d="m 16249.3,6755.74 c -39.5,129.4 -256.7,135.05 -293.4,114.31 -117.5,-66.43 -161.5,-128.86 -217.2,-207.88 25.8,-121.97 66.3,-321.33 32.4,-350.5 -20.2,-17.34 -43.2,-6.87 -91.7,20.96 18,-130.19 69.3,-206.44 163.1,-177.73 36.3,26.45 34.6,-40.89 83.7,-38.97 60.7,2.43 69.7,49.93 92.4,33.75 71.6,-50.89 94,33.15 129.4,22.19 50.8,-15.66 72,19.23 85.3,48.51 59,129.87 66.7,369.6 16,535.36"
         style="fill:#ffc19f;fill-opacity:1;fill-rule:nonzero;stroke:none;stroke-width:1.70394468"
         id="path36"
         inkscape:connector-curvature="0" />
    </g>
    <g
       id="g38"
       transform="matrix(0.02344764,0,0,-0.02344764,-196.52202,340.45769)"
       style="stroke-width:1.70394468">
      <path
         d="m 15760.1,3127.4 c 5.3,-16.25 539.9,128.91 535.9,149.31 -34.1,176.77 -577.5,2492.45 -599.2,2594.52 l -713.9,-418.18 c 61.1,-168.64 738.2,-2208.48 777.2,-2325.65"
         style="fill:#ffc19f;fill-opacity:1;fill-rule:nonzero;stroke:none;stroke-width:1.70394468"
         id="path40"
         inkscape:connector-curvature="0" />
    </g>
    <g
       id="g42"
       transform="matrix(0.0208744,0,0,-0.0208744,-196.52202,340.45769)"
       style="stroke-width:1.70394468">
      <path
         d="m 16299.9,3347.7 c 0.1,-19.15 -620.9,-57.03 -624.1,-34.02 -27.3,200.45 -282.2,2860.11 -295.9,2976.56 l 910.2,-188.15 c -4.4,-201.44 9.1,-2615.73 9.8,-2754.39"
         style="fill:#ffc19f;fill-opacity:1;fill-rule:nonzero;stroke:none;stroke-width:1.70394468"
         id="path44"
         inkscape:connector-curvature="0" />
    </g>
    <g
       id="g46"
       transform="matrix(0.02485424,0,0,-0.02485424,-196.52202,340.45769)"
       style="stroke-width:1.70394468">
      <path
         d="m 14247.1,2348.81 c -1133.8,0 -2053,68.14 -2053,152.11 0,84.05 919.2,152.19 2053,152.19 1133.8,0 2052.9,-68.14 2052.9,-152.19 0,-83.97 -919.1,-152.11 -2052.9,-152.11"
         style="fill:#e3e3e3;fill-opacity:1;fill-rule:nonzero;stroke:none;stroke-width:1.70394468"
         id="path48"
         inkscape:connector-curvature="0" />
    </g>
    <g
       id="g50"
       transform="matrix(0.02355883,0,0,-0.02355883,-196.52202,340.45769)"
       style="stroke-width:1.70394468">
      <path
         d="m 15599.2,2941.54 c 2.5,-12.92 698.5,59.32 698.8,75.93 2,123.38 -39.3,414.71 -40.3,486.07 l -736.7,-77.43 c 25.3,-130.85 62,-401.61 78.2,-484.57"
         style="fill:#fcf6b4;fill-opacity:1;fill-rule:nonzero;stroke:none;stroke-width:1.70394468"
         id="path52"
         inkscape:connector-curvature="0" />
    </g>
    <g
       id="g54"
       transform="matrix(0.02484908,0,0,-0.02484908,-196.52202,340.45769)"
       style="stroke-width:1.70394468">
      <path
         d="m 15552.8,2986.92 c -8.9,35.41 -28,80.49 -42.6,121.56 -10.9,30.49 -307.2,31.41 -309.5,-41.33 -0.5,-18.58 -0.1,-35.07 1.2,-49.99 -50.8,0.51 -105.7,2.17 -163.7,5.42 -126.1,7.08 -239,19.5 -318.1,33.74 -7.5,-115.06 -1.2,-314.43 -8.4,-442.33 0,0 1316.6,-273.11 1528.6,-85.57 59.7,52.91 -267.4,299.36 -687.5,458.5"
         style="fill:#f93d77;fill-opacity:1;fill-rule:nonzero;stroke:none;stroke-width:1.70394468"
         id="path56"
         inkscape:connector-curvature="0" />
    </g>
    <g
       id="g58"
       transform="matrix(0.02477185,0,0,-0.02477185,-196.52202,340.45769)"
       style="stroke-width:1.70394468">
      <path
         d="m 14760.3,2702.64 c -0.5,-28.58 -1.3,-56.08 -2.6,-80.48 0,0 1320.7,-273.97 1533.3,-85.84 8.4,7.53 9,18.89 2.9,33.26 -367.3,-72.21 -1205,71.13 -1533.6,133.06"
         style="fill:#b22651;fill-opacity:1;fill-rule:nonzero;stroke:none;stroke-width:1.70394468"
         id="path60"
         inkscape:connector-curvature="0" />
    </g>
    <g
       id="g62"
       transform="matrix(0.02419836,0,0,-0.02419836,-196.52202,340.45769)"
       style="stroke-width:1.70394468">
      <path
         d="m 16283,2959.78 c -74.6,14.46 -171.6,-18.14 -236.3,-78.8 -7.6,-7.18 -8,-19.25 -0.8,-26.86 3.5,-3.68 8.1,-5.73 12.8,-5.99 5,-0.26 10.1,1.36 14.1,5.13 56.3,52.88 140.1,82.22 203,69.22 10.6,-2.23 20.3,4.79 22.2,15.06 2,10.35 -4.8,20.27 -15,22.24 z m -114.3,17.37 c 10.2,-2.14 20,5.9 21.4,16.26 1.3,10.43 -5.9,19.93 -16.3,21.38 -82.9,11.38 -165.6,-18.14 -226.9,-80.51 -7.4,-7.53 -7.3,-19.5 0.3,-26.95 3.4,-3.33 7.7,-5.13 12.2,-5.39 5.3,-0.26 10.6,1.63 14.6,5.65 72.3,73.58 153,75.2 194.7,69.56 z m -103.4,50.05 c 10.3,-2.23 20.5,3.85 22.9,14.03 2.4,10.18 -3.8,20.45 -14,22.93 -78.5,18.65 -171,-16 -225.1,-84.88 -6.5,-8.21 -5,-20.18 3.3,-26.69 3.1,-2.48 6.8,-3.76 10.6,-4.02 6,-0.34 11.9,2.14 16,7.27 45.2,57.58 121.8,87.19 186.3,71.36"
         style="fill:#d3dae5;fill-opacity:1;fill-rule:nonzero;stroke:none;stroke-width:1.70394468"
         id="path64"
         inkscape:connector-curvature="0" />
    </g>
    <g
       id="g66"
       transform="matrix(0.02095307,0,0,-0.02095307,-196.52202,340.45769)"
       style="stroke-width:1.70394468">
      <path
         d="m 16283.4,3340.95 c -0.9,-14.73 -787.4,-35.57 -790.1,-17.1 -20.2,137.25 -16.6,468.06 -25.9,547.7 l 832.6,21.05 c -9.1,-149.6 -10.6,-456.8 -16.6,-551.65"
         style="fill:#fcf6b4;fill-opacity:1;fill-rule:nonzero;stroke:none;stroke-width:1.70394468"
         id="path68"
         inkscape:connector-curvature="0" />
    </g>
    <g
       id="g70"
       transform="matrix(0.02099572,0,0,-0.02099572,-196.52202,340.45769)"
       style="stroke-width:1.70394468">
      <path
         d="m 15304.5,3535.12 c 10.6,41.91 33.2,95.26 50.5,143.87 12.9,36.09 363.5,37.17 366.2,-48.91 0.7,-21.99 0.2,-41.51 -1.3,-59.17 59.9,0.6 125,2.57 193.7,6.41 149.1,8.38 282.9,23.08 376.4,39.94 8.8,-136.18 1.5,-372.15 10,-523.51 0,0 -1558.2,-323.24 -1809.2,-101.28 -70.7,62.62 316.5,354.31 813.7,542.65"
         style="fill:#f93d77;fill-opacity:1;fill-rule:nonzero;stroke:none;stroke-width:1.70394468"
         id="path72"
         inkscape:connector-curvature="0" />
    </g>
    <g
       id="g74"
       transform="matrix(0.02099572,0,0,-0.02099572,-196.52202,340.45769)"
       style="stroke-width:1.70394468">
      <path
         d="m 16296.7,3188.71 c 0.7,-33.73 1.7,-66.17 3.3,-94.96 0,0 -1558.2,-323.24 -1809.2,-101.28 -9.9,8.88 -10.6,22.29 -3.4,39.25 433.4,-85.2 1421.8,83.92 1809.3,156.99"
         style="fill:#b22651;fill-opacity:1;fill-rule:nonzero;stroke:none;stroke-width:1.70394468"
         id="path76"
         inkscape:connector-curvature="0" />
    </g>
    <path
       d="m 116.8931,269.37398 c 0.0476,0.24845 0.28157,0.41822 0.53829,0.36439 1.52379,-0.3147 3.55067,0.39544 4.91296,1.67493 0.0973,0.0911 0.21947,0.13043 0.34161,0.12421 0.11388,-0.007 0.22567,-0.0559 0.30849,-0.14492 0.17391,-0.18426 0.16563,-0.47618 -0.0208,-0.65009 -1.56312,-1.4679 -3.91091,-2.2567 -5.71626,-1.90679 -0.24845,0.0476 -0.41201,0.28777 -0.36438,0.53827 z m 7.84252,0.72463 c 0.0952,0.0973 0.22567,0.14286 0.35196,0.13665 0.10766,-0.007 0.21533,-0.0497 0.29606,-0.13044 0.1822,-0.18012 0.18426,-0.46998 0.007,-0.65215 -1.48237,-1.5093 -3.48234,-2.22358 -5.48852,-1.94822 -0.25258,0.0352 -0.42856,0.26501 -0.39336,0.5176 0.0331,0.2505 0.26707,0.44511 0.51552,0.39336 1.01033,-0.13664 2.96061,-0.0973 4.71214,1.6832 z m 2.2981,-1.16768 c 0.0973,0.12422 0.24224,0.18427 0.38716,0.17598 0.0911,-0.007 0.18219,-0.0373 0.25879,-0.0973 0.19875,-0.15735 0.23395,-0.44719 0.0766,-0.64595 -1.30639,-1.66664 -3.54652,-2.50513 -5.44503,-2.05379 -0.24845,0.06 -0.39958,0.30849 -0.33955,0.55484 0.0579,0.24638 0.30434,0.39338 0.55486,0.33955 1.55898,-0.38302 3.41402,0.33333 4.50717,1.72668"
       style="fill:#d3dae5;fill-opacity:1;fill-rule:nonzero;stroke:none;stroke-width:0.03527778"
       id="path78"
       inkscape:connector-curvature="0" />
    <g
       id="g80"
       transform="matrix(0.02331804,0,0,-0.02331804,-196.52202,340.45769)"
       style="stroke-width:1.70394468">
      <path
         d="m 16300,8053.12 c -108.3,-174.56 -370.4,-477.18 -517.6,-595.1 -139.3,75.11 -506,310.94 -519.3,329.21 -70.5,97.32 -422.9,1013.43 -426.8,1032.31 350.5,2.22 587.6,-12.81 664.3,-35.49 160.2,-119.62 534.2,-456.94 799.4,-730.93"
         style="fill:#fc4273;fill-opacity:1;fill-rule:nonzero;stroke:none;stroke-width:1.70394468"
         id="path82"
         inkscape:connector-curvature="0" />
    </g>
    <path
       d="m 72.897967,147.11452 c -1.217371,-0.15384 0.304344,-10.46692 1.534137,-10.39114 18.366157,1.1358 41.419606,1.18715 46.177286,0.85775 l -1.52378,13.57701 c -10.57539,-0.85921 -30.103021,-2.01592 -46.187643,-4.04362"
       style="fill:#ffc19f;fill-opacity:1;fill-rule:nonzero;stroke:none;stroke-width:0.03527778"
       id="path84"
       inkscape:connector-curvature="0" />
    <path
       d="m 99.94307,137.21612 c -0.465831,4.51277 -0.374735,13.26563 -0.561067,17.96804 9.734827,1.00039 17.616687,2.70222 18.256427,2.3689 6.65414,-3.46744 10.55884,-19.67897 10.82177,-20.62927 -4.86741,0.2708 -18.71812,0.3944 -28.51713,0.29233"
       style="fill:#fc4273;fill-opacity:1;fill-rule:nonzero;stroke:none;stroke-width:0.03527778"
       id="path86"
       inkscape:connector-curvature="0" />
    <path
       d="m 71.794467,159.70478 c -2.525838,-0.29564 -3.362263,-1.87305 -3.130384,-6.66883 0.360243,-2.8863 -2.784632,-2.16042 -5.71419,-2.47511 -2.923349,-3.67862 -3.927472,-12.52236 2.086921,-14.80721 5.782514,-0.32713 10.132338,0.066 12.227541,2.25068 2.213216,2.30908 1.867465,8.20214 -2.012389,12.32982 -3.422304,4.96617 -2.42232,9.49136 -3.457499,9.37065"
       style="fill:#ffc19f;fill-opacity:1;fill-rule:nonzero;stroke:none;stroke-width:0.03527778"
       id="path88"
       inkscape:connector-curvature="0" />
    <path
       d="m 46.244163,127.47363 7.03094,1.04968 c 0.132503,0.0165 0.262936,0.002 0.380947,-0.0393 0.265006,-0.0931 0.469972,-0.32711 0.513449,-0.62523 0.06417,-0.43064 -0.23188,-0.83022 -0.662516,-0.8944 l -7.03094,-1.05176 c -0.428563,-0.058 -0.832283,0.23395 -0.894394,0.66458 -0.06418,0.43064 0.23395,0.83021 0.662514,0.89646 z m 15.682971,-5.19452 c -0.08074,0.42857 0.200827,0.84056 0.62939,0.92131 0.142856,0.027 0.281569,0.0144 0.409932,-0.0331 0.254654,-0.0911 0.455478,-0.30849 0.509308,-0.5942 l 1.320889,-6.98539 c 0.08282,-0.4265 -0.198755,-0.8385 -0.62732,-0.92132 -0.422353,-0.0849 -0.836424,0.19462 -0.91924,0.62733 z m -5.894312,2.14075 c 0.182192,0.35403 0.598334,0.51345 0.964788,0.38095 l 0.09731,-0.0415 c 0.385087,-0.19875 0.536224,-0.6708 0.339539,-1.05795 l -3.252534,-6.32494 c -0.198755,-0.38923 -0.674938,-0.52795 -1.060024,-0.34162 -0.385087,0.20083 -0.538293,0.67287 -0.339539,1.06003 l 3.250464,6.32495"
       style="fill:#919191;fill-opacity:1;fill-rule:nonzero;stroke:none;stroke-width:0.03527778"
       id="path90"
       inkscape:connector-curvature="0" />
    <g
       id="g92"
       transform="matrix(0.02265781,0,0,-0.02265781,-196.52202,340.45769)"
       style="stroke-width:1.70394468">
      <path
         d="m 13965.4,6366.54 c 666.2,-193.25 1741,-30.15 2334.6,341.13 0,0 -415,1862.71 -542.8,2357.18 -240.7,8.93 -611.7,28.01 -934.5,-12.55 -395.4,-49.71 -756.6,-141.97 -1007.5,-218.08 8.5,-576.49 104.8,-1658.13 150.2,-2467.68"
         style="fill:#fc4273;fill-opacity:1;fill-rule:nonzero;stroke:none;stroke-width:1.70394468"
         id="path94"
         inkscape:connector-curvature="0" />
    </g>
    <g
       id="g96"
       transform="matrix(0.02136735,0,0,-0.02136735,-196.52202,340.45769)"
       style="stroke-width:1.70394468">
      <path
         d="m 14951.1,9507.22 c 229.2,36.18 488.8,56.87 767,91.85 189.1,23.8 393.3,27.98 581.9,25.62 -4.7,-311.05 -274.8,-577.71 -632.1,-606.59 -332.9,-26.92 -649.2,141.89 -716.8,489.12"
         style="fill:#ffc19f;fill-opacity:1;fill-rule:nonzero;stroke:none;stroke-width:1.70394468"
         id="path98"
         inkscape:connector-curvature="0" />
    </g>
    <g
       id="g100"
       transform="matrix(0.02216878,0,0,-0.02216878,-196.52202,340.45769)"
       style="stroke-width:1.70394468">
      <path
         d="m 14437.4,6648.23 c 222.8,-19.89 1595.4,135.54 1862.6,182.37 0,0 -234.5,1142.43 -324.4,1724.55 -336.4,-34.78 -1326.8,-161.54 -1620.4,-214.85 21.3,-349.31 33.7,-850.2 82.2,-1692.07"
         style="fill:#224966;fill-opacity:1;fill-rule:nonzero;stroke:none;stroke-width:1.70394468"
         id="path102"
         inkscape:connector-curvature="0" />
    </g>
    <g
       id="g104"
       transform="matrix(0.02170006,0,0,-0.02170006,-196.52202,340.45769)"
       style="stroke-width:1.70394468">
      <path
         d="m 16186.5,8764.1 c -1.3,9.15 5.4,17.71 14.6,18.89 l 62.1,7.94 -10.5,81.71 -219.5,-28.09 10.4,-81.71 49.4,6.31 c 9.1,1.17 17.7,-5.46 18.9,-14.58 l 22.6,-176.02 74.5,9.54 z m -83.4,-206.56 -22.5,176.01 -49.4,-6.3 c -9.1,-1.18 -17.7,5.46 -18.9,14.58 l -14.6,115.17 c -1.3,9.15 5.4,17.71 14.6,18.88 l 252.9,32.38 c 9,1.15 17.7,-5.48 18.9,-14.6 l 14.7,-115.17 c 1.2,-9.12 -5.5,-17.71 -14.6,-18.89 l -62.1,-7.94 22.5,-176.01 c 1.1,-9.15 -5.5,-17.71 -14.6,-18.89 l -108,-13.81 c -9.2,-1.17 -17.8,5.46 -18.9,14.59"
         style="fill:#baebf4;fill-opacity:1;fill-rule:nonzero;stroke:none;stroke-width:1.70394468"
         id="path106"
         inkscape:connector-curvature="0" />
    </g>
    <g
       id="g108"
       transform="matrix(0.02163111,0,0,-0.02163111,-196.52202,340.45769)"
       style="stroke-width:1.70394468">
      <path
         d="m 16298.7,8598.86 c -1.4,-43.41 -37.7,-77.46 -80.9,-76.13 -43.4,1.35 -77.4,37.62 -76,81.03 1.3,43.39 37.6,77.47 80.9,76.13 43.3,-1.35 77.3,-37.63 76,-81.03"
         style="fill:#f0fcff;fill-opacity:1;fill-rule:nonzero;stroke:none;stroke-width:1.70394468"
         id="path110"
         inkscape:connector-curvature="0" />
    </g>
    <path
       d="m 125.4706,153.15397 c -0.0249,-0.19814 0.12008,-0.38447 0.31677,-0.40973 l 1.34988,-0.17267 -0.22775,-1.77285 -4.76183,0.60952 0.22567,1.77304 1.07038,-0.13705 c 0.19876,-0.0252 0.38508,0.11843 0.40993,0.31656 l 0.4886,3.81981 1.61903,-0.20682 z m -1.80742,4.48273 -0.48861,-3.81981 -1.07037,0.13748 c -0.19876,0.0248 -0.38509,-0.11905 -0.40993,-0.31718 l -0.32091,-2.49914 c -0.0249,-0.19792 0.12007,-0.38426 0.31883,-0.40973 l 5.48853,-0.70226 c 0.19668,-0.0252 0.38301,0.11843 0.40992,0.31636 l 0.31885,2.49933 c 0.0249,0.19855 -0.11803,0.38446 -0.31677,0.40972 l -1.34781,0.17268 0.48861,3.8198 c 0.0249,0.19794 -0.11801,0.38385 -0.31676,0.40932 l -2.34365,0.3002 c -0.19876,0.0251 -0.38508,-0.11884 -0.40993,-0.31677"
       style="fill:#baebf4;fill-opacity:1;fill-rule:nonzero;stroke:none;stroke-width:0.03527778"
       id="path112"
       inkscape:connector-curvature="0" />
    <path
       d="m 126.62792,151.03412 c -0.0207,-0.40869 -1.36642,-9.54622 -1.10763,-14.54386 h -3.8136 c -0.51552,6.02806 0.63974,14.65566 0.6625,15.08919 l 4.25873,-0.54533"
       style="fill:#224966;fill-opacity:1;fill-rule:nonzero;stroke:none;stroke-width:0.03527778"
       id="path114"
       inkscape:connector-curvature="0" />
    <g
       id="g116"
       transform="matrix(0.02162325,0,0,-0.02162325,-196.52202,340.45769)"
       style="stroke-width:1.70394468">
      <path
         d="m 16300,8883.02 c -1.2,20.8 -30.6,447.26 -34.9,629.47 l -190.7,6.74 c 1.3,-242.65 27.2,-639.26 28.6,-661.32 l 197,25.11"
         style="fill:#224966;fill-opacity:1;fill-rule:nonzero;stroke:none;stroke-width:1.70394468"
         id="path118"
         inkscape:connector-curvature="0" />
    </g>
    <path
       d="m 126.78321,157.33277 c -0.029,0.93892 -0.81365,1.67638 -1.75152,1.64719 -0.93581,-0.0296 -1.67079,-0.81407 -1.6418,-1.75278 0.029,-0.9389 0.81158,-1.67615 1.74946,-1.64654 0.93786,0.0292 1.67285,0.81365 1.64386,1.75213"
       style="fill:#f0fcff;fill-opacity:1;fill-rule:nonzero;stroke:none;stroke-width:0.03527778"
       id="path120"
       inkscape:connector-curvature="0" />
    <g
       id="g122"
       transform="matrix(0.02121683,0,0,-0.02121683,-196.52202,340.45769)"
       style="stroke-width:1.70394468">
      <path
         d="m 15931.1,7748.41 -388.1,69.11 -71.6,565.01 733.8,131.19 94.8,-614.4 -368.9,-150.91"
         style="fill:#1b3a50;fill-opacity:1;fill-rule:nonzero;stroke:none;stroke-width:1.70394468"
         id="path124-6"
         inkscape:connector-curvature="0" />
    </g>
    <g
       id="g126"
       transform="matrix(0.02116963,0,0,-0.02116963,-196.52202,340.45769)"
       style="stroke-width:1.70394468">
      <path
         d="m 16300,7950.38 -341.4,-151.73 -372.2,64.48 -70.2,531.06 700,99.46 83.8,-543.27"
         style="fill:#306484;fill-opacity:1;fill-rule:nonzero;stroke:none;stroke-width:1.70394468"
         id="path128"
         inkscape:connector-curvature="0" />
    </g>
    <g
       id="g130"
       transform="matrix(0.02353584,0,0,-0.02353584,-196.52202,340.45769)"
       style="stroke-width:1.70394468">
      <path
         d="m 16300,5474.21 c -562.5,-538.18 -2324.5,-858.02 -3097.2,-487.86 0,0 110.5,915.99 182.7,1381.71 379.8,-40.58 1543.9,22.53 2293.3,311.23 204.2,-440.75 448,-893.24 621.2,-1205.08"
         style="fill:#224966;fill-opacity:1;fill-rule:nonzero;stroke:none;stroke-width:1.70394468"
         id="path132-0"
         inkscape:connector-curvature="0" />
    </g>
    <path
       d="m 119.57215,190.67467 c -0.37474,-0.0284 -0.7267,-0.06 -1.05382,-0.095 0.32505,0.0348 0.67701,0.066 1.05382,0.0936 v 7.9e-4"
       style="fill:#7f7f7f;fill-opacity:1;fill-rule:nonzero;stroke:none;stroke-width:0.03527778"
       id="path134"
       inkscape:connector-curvature="0" />
    <path
       d="m 123.25946,190.82911 c -1.39336,-0.0226 -2.6335,-0.0751 -3.68731,-0.15444 v -7.9e-4 c 1.01447,0.0748 2.20492,0.124 3.52375,0.14781 0.0579,0.002 0.11179,0.006 0.16356,0.008"
       style="fill:#7e2139;fill-opacity:1;fill-rule:nonzero;stroke:none;stroke-width:0.03527778"
       id="path136"
       inkscape:connector-curvature="0" />
    <path
       d="m 117.16846,200.00039 c 0.46997,-3.4575 0.9358,-6.7535 1.34987,-9.42075 v 0 c 0.32712,0.035 0.67908,0.0666 1.05382,0.095 1.05381,0.0793 2.29395,0.13189 3.68731,0.15444 0.0622,0.003 0.12628,0.007 0.19668,0.009 0.29192,4.42932 -2.25255,8.38371 -6.15311,9.15181 l -0.13457,0.0104"
       style="fill:#112433;fill-opacity:1;fill-rule:nonzero;stroke:none;stroke-width:0.03527778"
       id="path138"
       inkscape:connector-curvature="0" />
    <g
       id="g140"
       transform="matrix(0.02263896,0,0,-0.02263896,-196.52202,340.45769)"
       style="stroke-width:1.70394468">
      <path
         d="m 16265,6930.7 v 0.04 c 11.9,4.38 23.6,8.78 35,13.19 -11.6,-4.47 -23.2,-8.86 -35,-13.23"
         style="fill:#7f7f7f;fill-opacity:1;fill-rule:nonzero;stroke:none;stroke-width:1.70394468"
         id="path142"
         inkscape:connector-curvature="0" />
    </g>
    <g
       id="g144"
       transform="matrix(0.0225903,0,0,-0.0225903,-196.52202,340.45769)"
       style="stroke-width:1.70394468">
      <path
         d="m 16087.8,6875.16 c 73,22.13 145.5,45.92 212.2,70.5 v -0.04 c -67.9,-25.15 -138.9,-48.63 -212.2,-70.46"
         style="fill:#7e2139;fill-opacity:1;fill-rule:nonzero;stroke:none;stroke-width:1.70394468"
         id="path146"
         inkscape:connector-curvature="0" />
    </g>
    <g
       id="g148"
       transform="matrix(0.02287788,0,0,-0.02287788,-196.52202,340.45769)"
       style="stroke-width:1.70394468">
      <path
         d="m 16139.6,6479.49 c -165.7,0.02 -315.1,111.65 -367.5,276.2 37.4,10.46 75.4,21.52 113.4,33.02 72.3,21.55 142.5,44.73 209.5,69.57 11.7,4.33 23.2,8.67 34.7,13.1 v 0 c 62.7,-138.8 118.6,-254.11 170.3,-357.55 -28.7,-14.12 -55.7,-20.82 -88.5,-27.29 -24.2,-4.75 -48.1,-7.05 -71.9,-7.05"
         style="fill:#112433;fill-opacity:1;fill-rule:nonzero;stroke:none;stroke-width:1.70394468"
         id="path150"
         inkscape:connector-curvature="0" />
    </g>
    <g
       id="g152"
       transform="matrix(0.02108516,0,0,-0.02108516,-196.52202,340.45769)"
       style="stroke-width:1.70394468">
      <path
         d="m 16192.8,10349 88.2,-712.55 c 19,-153.2 -160.4,-301.55 -400.6,-331.3 -240.2,-29.72 -450.3,70.4 -469.3,223.62 l -88.2,712.53 869.9,107.7"
         style="fill:#ffc19f;fill-opacity:1;fill-rule:nonzero;stroke:none;stroke-width:1.70394468"
         id="path154"
         inkscape:connector-curvature="0" />
    </g>
    <g
       id="g156"
       transform="matrix(0.02123609,0,0,-0.02123609,-196.52202,340.45769)"
       style="stroke-width:1.70394468">
      <path
         d="m 15206.6,9588.83 c -14.2,4.64 -28.2,9.7 -41.9,15.17 0,0.24 0.1,0.48 0.1,0.72 h -1.9 c -143.6,58.07 -253.1,161.9 -297.3,300.28 -93.1,292.2 140.7,627.8 522.5,749.5 94,30.1 188.3,44.3 278.4,44.3 275.3,0 511.1,-132.8 581.3,-353 52.2,-163.3 2.1,-340.1 -118.8,-485.58 l -51.4,415.18 -863.7,-106.9 70.6,-570.2 c -26.2,-3.08 -52.2,-6.23 -77.9,-9.47"
         style="fill:#a94d3e;fill-opacity:1;fill-rule:nonzero;stroke:none;stroke-width:1.70394468"
         id="path158"
         inkscape:connector-curvature="0" />
    </g>
    <path
       d="m 128.14344,137.28135 c -0.59627,-0.11968 -1.17597,-0.27123 -1.73497,-0.45363 0.5445,-0.0689 1.09729,-0.1358 1.65421,-0.20123 l 0.0808,0.65486"
       style="fill:#eb9f83;fill-opacity:1;fill-rule:nonzero;stroke:none;stroke-width:0.03527778"
       id="path160"
       inkscape:connector-curvature="0" />
    <path
       d="m 125.51821,136.50558 c -0.0124,-0.005 -0.0249,-0.0101 -0.0373,-0.0153 h 0.0393 c 0,0.006 -0.003,0.0101 -0.003,0.0153"
       style="fill:#383e55;fill-opacity:1;fill-rule:nonzero;stroke:none;stroke-width:0.03527778"
       id="path162"
       inkscape:connector-curvature="0" />
    <g
       id="g164"
       transform="matrix(0.02101331,0,0,-0.02101331,-196.52202,340.45769)"
       style="stroke-width:1.70394468">
      <path
         d="m 15610.8,9653.32 c -55.4,0 -109.2,5.31 -160.4,15.58 l -3.8,31.17 -71.4,576.23 872.9,108 51.9,-419.55 c -96.5,-116.1 -237.5,-212.47 -407.8,-266.74 -95.1,-30.33 -190.4,-44.69 -281.4,-44.69"
         style="fill:#eb9f83;fill-opacity:1;fill-rule:nonzero;stroke:none;stroke-width:1.70394468"
         id="path166"
         inkscape:connector-curvature="0" />
    </g>
    <path
       d="m 95.711256,104.74524 c 1.15526,7.63755 7.654114,12.88591 12.937674,12.56293 5.28356,-0.32297 6.8591,-6.39119 6.61687,-13.68092 -0.24637,-7.289738 -4.7287,-12.954238 -10.01226,-12.614708 -7.22141,0.4679 -10.627153,6.55476 -9.542284,13.732698"
       style="fill:#f4b18c;fill-opacity:1;fill-rule:nonzero;stroke:none;stroke-width:0.03527778"
       id="path168"
       inkscape:connector-curvature="0" />
    <g
       id="g170"
       transform="matrix(0.02308161,0,0,-0.02308161,-196.52202,340.45769)"
       style="stroke-width:1.70394468">
      <path
         d="m 16194.8,11167 c 105.2,-1238.97 -973,-1839.89 -1964.9,-1748.83 -992,91.06 -1635.1,1016.43 -1424.5,2206.13 116.9,660.6 663.7,1055.8 1680.8,1028.7 757.7,-20.2 1617.1,-409 1708.6,-1486"
         style="fill:#ad5c49;fill-opacity:1;fill-rule:nonzero;stroke:none;stroke-width:1.70394468"
         id="path172"
         inkscape:connector-curvature="0" />
    </g>
    <g
       id="g174"
       transform="matrix(0.02241661,0,0,-0.02241661,-196.52202,340.45769)"
       style="stroke-width:1.70394468">
      <path
         d="m 16225.9,11864.2 c 74.1,-214.5 -234.7,-2031.05 -467.9,-2264.93 -247.2,-248.14 -1208.4,-385.57 -1398.5,-368.14 -203.5,18.71 -857,327.19 -1002,638.15 -171.6,368.02 -101,1940.92 -18.4,2127.32 279.4,629.5 846.4,599.5 1585.7,531.6 691.5,-63.4 1109,-107.5 1301.1,-664"
         style="fill:#ffc19f;fill-opacity:1;fill-rule:nonzero;stroke:none;stroke-width:1.70394468"
         id="path176"
         inkscape:connector-curvature="0" />
    </g>
    <g
       id="g178"
       transform="matrix(0.02300853,0,0,-0.02300853,-196.52202,340.45769)"
       style="stroke-width:1.70394468">
      <path
         d="m 16184.7,9852.38 c -122.7,-334.59 -477.5,-517.6 -725.1,-459.61 -247.7,58.02 -118.4,1074.93 342.7,1119.73 384.1,37.2 497.7,-345.7 382.4,-660.12"
         style="fill:#ffc19f;fill-opacity:1;fill-rule:nonzero;stroke:none;stroke-width:1.70394468"
         id="path180"
         inkscape:connector-curvature="0" />
    </g>
    <g
       id="g182"
       transform="matrix(0.02250149,0,0,-0.02250149,-196.52202,340.45769)"
       style="stroke-width:1.70394468">
      <path
         d="m 16265.8,10116.6 c -34.3,-146.35 -212.7,-255.63 -334.2,-202.71 -47.4,20.62 84.5,529.81 162.5,522.41 131.9,-12.5 205.9,-173.4 171.7,-319.7"
         style="fill:#e0956c;fill-opacity:1;fill-rule:nonzero;stroke:none;stroke-width:1.70394468"
         id="path184"
         inkscape:connector-curvature="0" />
    </g>
    <g
       id="g186"
       transform="matrix(0.02156279,0,0,-0.02156279,-196.52202,340.45769)"
       style="stroke-width:1.70394468">
      <path
         d="m 16295.8,10487.3 c -4.2,-77.3 -115,-134.2 -247.5,-127.1 -132.5,7.1 -236.6,75.6 -232.4,152.9 4.1,77.3 114.9,134.2 247.4,127.1 132.6,-7.2 236.7,-75.6 232.5,-152.9"
         style="fill:#ff9797;fill-opacity:1;fill-rule:nonzero;stroke:none;stroke-width:1.70394468"
         id="path188"
         inkscape:connector-curvature="0" />
    </g>
    <path
       d="m 132.92803,120.66837 c 0.10767,0.002 0.22153,-0.029 0.32297,-0.0931 0.26916,-0.17184 0.34575,-0.53001 0.17392,-0.79709 -1.36229,-2.13247 -4.33947,-3.65418 -7.09926,-3.62105 -2.25049,0 -4.07654,0.91508 -5.14899,2.57966 -0.17184,0.26915 -0.0973,0.62732 0.17185,0.79916 0.26707,0.18425 0.6211,0.0952 0.80329,-0.17391 0.85092,-1.32089 2.32916,-2.04759 4.17385,-2.04759 l 0.0994,0.002 c 2.41196,0.0373 4.87776,1.29604 6.02473,3.08483 0.10975,0.16978 0.294,0.26502 0.47826,0.26708"
       style="fill:#934341;fill-opacity:1;fill-rule:nonzero;stroke:none;stroke-width:0.03527778"
       id="path190"
       inkscape:connector-curvature="0" />
    <path
       d="m 110.56194,109.92113 c -0.22567,1.46789 -2.19044,2.38298 -4.39123,2.04345 -2.19872,-0.33747 -3.79911,-1.80122 -3.57344,-3.26909 0.22567,-1.46582 2.19251,-2.38092 4.39123,-2.04346 2.20079,0.33954 3.79911,1.80328 3.57344,3.2691"
       style="fill:#ff9797;fill-opacity:1;fill-rule:nonzero;stroke:none;stroke-width:0.03527778"
       id="path192"
       inkscape:connector-curvature="0" />
    <path
       d="m 130.64857,108.55263 c -0.18426,-0.0165 -0.33126,-0.16356 -0.34575,-0.35197 -0.0973,-1.34158 -1.06417,-2.29188 -2.46166,-2.42025 -1.40578,-0.12837 -2.55482,0.64388 -2.85916,1.92336 -0.0497,0.20497 -0.25673,0.33126 -0.45962,0.28158 -0.20498,-0.0476 -0.33126,-0.25259 -0.28364,-0.45962 0.38922,-1.63766 1.90058,-2.66869 3.67281,-2.50513 1.75981,0.16149 3.02894,1.41819 3.15316,3.12417 0.0145,0.21118 -0.14286,0.39335 -0.35404,0.40993 l -0.0621,-0.002"
       style="fill:#c4735b;fill-opacity:1;fill-rule:nonzero;stroke:none;stroke-width:0.03527778"
       id="path194"
       inkscape:connector-curvature="0" />
    <g
       id="g196"
       transform="matrix(0.02277581,0,0,-0.02277581,-196.52202,340.45769)"
       style="stroke-width:1.70394468">
      <path
         d="m 16176.7,11256.9 c 123.3,19.5 -38.9,912.3 -618.9,1220.7 -955.2,427.8 -1653.9,304.5 -1915.1,160.9 -380.1,-208.9 -714.1,-529.2 -840.4,-1164.5 -75.4,-378.8 -50.3,-506.4 -252,-581.8 208.1,-73.7 217.2,-32.1 285.3,66.7 2.3,-311.5 -16.4,-460.4 -146.7,-544.8 256.9,-84.5 318.6,60.2 354.1,305.9 59.3,410.9 108.4,865.5 156.1,967.9 27.6,59.2 269.7,397.6 361,395.2 199.1,-5.4 377.5,-715.1 1081.9,-743.2 -275.2,170.3 -417.7,397.5 -556.3,717.7 53.3,-36.3 106.4,-79.7 158.4,-131.9 547.9,-548.9 1073.2,-708.3 1571.9,-692.9 -110.3,-523.2 -221.2,-1188.8 337.5,-1244.43 -52.8,74.23 -175.9,438.33 -9.7,704.63 64.8,-45.7 25.1,215.7 32.9,563.9"
         style="fill:#ad5c49;fill-opacity:1;fill-rule:nonzero;stroke:none;stroke-width:1.70394468"
         id="path198"
         inkscape:connector-curvature="0" />
    </g>
    <path
       d="m 119.39823,105.327 c 0,0 -10.06815,2.75979 -13.1592,-3.65004 -3.76391,-7.813528 3.71423,-12.995638 8.07026,-11.434588 4.03307,1.44511 7.36427,6.05373 5.08894,15.084628"
       style="fill:#f9feff;fill-opacity:1;fill-rule:nonzero;stroke:none;stroke-width:0.03527778"
       id="path200"
       inkscape:connector-curvature="0" />
    <path
       d="m 106.45435,92.180222 c 2.06415,-2.51341 4.56721,-3.13038 7.15723,-2.57138 2.64799,0.57142 5.13656,3.08276 5.67071,5.48231 -1.1801,-2.75772 -3.56722,-3.95024 -5.07445,-4.49061 -2.39954,-0.86334 -5.7618,0.14492 -7.47813,2.64799 -1.52793,2.22771 -1.77016,5.76388 -0.38923,8.629248 -1.76809,-2.026878 -2.0393,-7.078548 0.11387,-9.697558"
       style="fill:#773220;fill-opacity:1;fill-rule:nonzero;stroke:none;stroke-width:0.03527778"
       id="path202"
       inkscape:connector-curvature="0" />
    <path
       d="m 117.63636,97.109752 c 0.62525,2.73909 -0.76811,5.645868 -3.11175,6.490578 -2.34365,0.84471 -4.74941,-0.68943 -5.37465,-3.42852 -0.62318,-2.739078 0.7681,-5.643798 3.11175,-6.488498 2.34365,-0.84678 4.74941,0.68735 5.37465,3.42644"
       style="fill:#63190d;fill-opacity:1;fill-rule:nonzero;stroke:none;stroke-width:0.03527778"
       id="path204"
       inkscape:connector-curvature="0" />
    <path
       d="m 117.36515,96.254692 c 0.1739,0.75982 -0.21326,1.56519 -0.86334,1.80122 -0.6501,0.23395 -1.31676,-0.19255 -1.49067,-0.95237 -0.1739,-0.75983 0.21325,-1.56519 0.86335,-1.79914 0.65009,-0.23602 1.31674,0.19047 1.49066,0.95029"
       style="fill:#fefffe;fill-opacity:1;fill-rule:nonzero;stroke:none;stroke-width:0.03527778"
       id="path206"
       inkscape:connector-curvature="0" />
    <g
       id="g208"
       transform="matrix(0.02180751,0,0,-0.02180751,-196.52202,340.45769)"
       style="stroke-width:1.70394468">
      <path
         d="m 15282.1,10702.4 c 0,0 511.6,-220.1 739.8,38.4 278.1,315 -71.1,619.1 -319.4,590.5 -230,-26.4 -453.5,-201.6 -420.4,-628.9"
         style="fill:#f9feff;fill-opacity:1;fill-rule:nonzero;stroke:none;stroke-width:1.70394468"
         id="path210"
         inkscape:connector-curvature="0" />
    </g>
    <g
       id="g212"
       transform="matrix(0.02166465,0,0,-0.02166465,-196.52202,340.45769)"
       style="stroke-width:1.70394468">
      <path
         d="m 16210,11243 c -86.5,133.5 -215.1,185.4 -360.1,185 -148.2,-0.4 -307.2,-90 -359.6,-193.3 90.8,113.3 231.2,144.3 317.6,154.2 137.8,16 308.9,-61.8 376.6,-191.5 60.2,-115.4 38.4,-277.6 -64.4,-393.9 115.2,74.6 179.9,300.5 89.9,439.5"
         style="fill:#773220;fill-opacity:1;fill-rule:nonzero;stroke:none;stroke-width:1.70394468"
         id="path214"
         inkscape:connector-curvature="0" />
    </g>
    <g
       id="g216"
       transform="matrix(0.0214011,0,0,-0.0214011,-196.52202,340.45769)"
       style="stroke-width:1.70394468">
      <path
         d="m 16262.7,11231.9 c 37.3,-128.9 -37,-263.6 -165.9,-300.9 -128.9,-37.3 -263.6,37 -300.9,165.9 -37.3,128.9 36.9,263.6 165.9,300.9 128.9,37.3 263.6,-37 300.9,-165.9"
         style="fill:#63190d;fill-opacity:1;fill-rule:nonzero;stroke:none;stroke-width:1.70394468"
         id="path218"
         inkscape:connector-curvature="0" />
    </g>
    <g
       id="g220"
       transform="matrix(0.02134499,0,0,-0.02134499,-196.52202,340.45769)"
       style="stroke-width:1.70394468">
      <path
         d="m 16289.5,11301.9 c 10.5,-35.8 -10.2,-73.3 -46,-83.7 -35.9,-10.3 -73.4,10.3 -83.8,46.2 -10.3,35.8 10.3,73.3 46.2,83.7 35.8,10.3 73.3,-10.3 83.6,-46.2"
         style="fill:#fefffe;fill-opacity:1;fill-rule:nonzero;stroke:none;stroke-width:1.70394468"
         id="path222"
         inkscape:connector-curvature="0" />
    </g>
    <g
       id="g224"
       transform="matrix(0.02262633,0,0,-0.02262633,-196.52202,340.45769)"
       style="stroke-width:1.70394468">
      <path
         d="m 16300,11107.9 c -42.8,917.2 -521,1525 -1476.4,1696.6 -754.3,135.4 -1356.9,-146.3 -1531.5,-410 224.6,143.3 633.6,357 1472.6,240.4 542.7,-75.4 1359.5,-476.2 1535.3,-1527"
         style="fill:#f49000;fill-opacity:1;fill-rule:nonzero;stroke:none;stroke-width:1.70394468"
         id="path226"
         inkscape:connector-curvature="0" />
    </g>
    <path
       d="m 107.48332,81.211464 c -0.26294,-0.146993 -0.45341,-0.416147 -0.50103,-0.755682 -0.087,-0.612829 0.32505,-1.229789 0.91717,-1.374716 4.31256,-1.057957 9.62717,1.124205 12.64575,5.190385 0.35404,0.478257 0.24638,1.198744 -0.23808,1.614882 -0.48447,0.416148 -1.16562,0.362318 -1.51551,-0.109723 -2.52583,-3.405746 -7.07235,-5.331182 -10.5754,-4.469908 -0.26707,0.06415 -0.52173,0.02486 -0.7329,-0.09523"
       style="fill:#752912;fill-opacity:1;fill-rule:nonzero;stroke:none;stroke-width:0.03527778"
       id="path228"
       inkscape:connector-curvature="0" />
    <g
       id="g230"
       transform="matrix(0.02165968,0,0,-0.02165968,-196.52202,340.45769)"
       style="stroke-width:1.70394468">
      <path
         d="m 16253.2,11793.7 c -13.4,-4.5 -28.3,-4.1 -42.1,2.2 -169.3,77.7 -431.5,33 -610.2,-104.5 -25.9,-19.8 -60.9,-14.4 -80.1,10.5 -19.3,25 -14.5,60.8 10.4,80 213,164 519.2,213.5 727.5,117.8 28.8,-13.2 41.3,-47.1 28.2,-75.8 -6.9,-14.8 -19.4,-25.4 -33.7,-30.2"
         style="fill:#752912;fill-opacity:1;fill-rule:nonzero;stroke:none;stroke-width:1.70394468"
         id="path232"
         inkscape:connector-curvature="0" />
    </g>
  </g>
</svg>
