<svg id="Layer_1" data-name="Layer 1" xmlns="http://www.w3.org/2000/svg" viewBox="0 0 1000 1000">
  <defs>
    <style>
      .cls-1 {
        font-size: 150px;
        fill: #231f20;
        font-family: FreeSansBold, FreeSans;
      }

      .cls-2, .cls-3 {
        letter-spacing: -0.01em;
      }

      .cls-3, .cls-4 {
        fill: #ed1c24;
      }

      .cls-5 {
        fill: #1b74bb;
      }

      .cls-5, .cls-7, .cls-8 {
        stroke: #00568a;
      }

      .cls-5, .cls-7, .cls-8, .cls-9 {
        stroke-miterlimit: 10;
        stroke-width: 3px;
      }

      .cls-6 {
        fill: #9cd0f1;
      }

      .cls-7 {
        fill: #fcd347;
      }

      .cls-8 {
        fill: #d0eafa;
      }

      .cls-9 {
        fill: #282828;
        stroke: #010101;
      }

      .cls-10 {
        fill: #3a3a39;
      }

      .cls-11 {
        fill: #f6dd92;
      }
    </style>
  </defs>
  <title>pen</title>
  <text class="cls-1" transform="translate(78.11 802.26)">p + <tspan class="cls-2" x="262.65" y="0">e</tspan><tspan x="343.8" y="0">n = p</tspan><tspan class="cls-3" x="698.1" y="0">e</tspan><tspan class="cls-4" x="779.25" y="0">n</tspan></text>
  <g>
    <path class="cls-5" d="M293.58,145.58c-2.65-2.65-23.83-19.87-28.47-21.19s-19.86-.66-23.17,2-10.6,10.59-8.61,18.54,29.79,42.37,29.79,42.37Z"/>
    <path class="cls-5" d="M319,158.21a2.08,2.08,0,0,0,1.69-2c0-2-8.61-8.61-9.27-10.59s2.65-9.27,4.64-7.29,73.49,67.54,79.45,73.5S473,280,473,280s7.29,11.92-4.63,7.29S383,215.77,383,215.77s-29.13-28.48-30.46-29.14S349.2,188,349.2,188l-31.78-29.14Z"/>
    <path class="cls-6" d="M318.08,148.23s78.8,74.16,82.77,77.47,11.26,9.93,15.89,11.25,1.33-2.64-.66-4.63-95.35-87.4-95.35-87.4S315.43,143.59,318.08,148.23Z"/>
    <polygon class="cls-7" points="596.85 417.06 334.64 176.04 296.23 225.03 557.12 470.03 596.85 417.06"/>
    <path class="cls-5" d="M364.43,201.86s-11.92-4.63-19.86-1.32-23.84,19.2-25.16,23.17.22,23.75,1.1,24.13-4.41-2.28-13-8.24S251.87,184,251.21,182.66s-2-16.56,7.94-29.14,25.82-17.21,34.43-15.23S362.45,198.55,364.43,201.86Z"/>
    <path class="cls-6" d="M261.8,129s-11.92,9.94-12.58,14.57-.66,21.19,0,21.85S234,146.9,234.65,143.59s4.64-13.24,9.93-14.57S261.8,129,261.8,129Z"/>
    <path class="cls-6" d="M265.11,157.5s-13.9,19.86-10.59,24.5,38.4,41.05,38.4,41.05,17.88,17.88,21.19,17.88,1.32-11.26-4-16.56S279.68,193.25,277,189.28s-7.28-16.55-5.3-19.86,4-11.26,2-13.91S265.11,157.5,265.11,157.5Z"/>
    <path class="cls-8" d="M783.57,625.63s13.9,15.89,12.58,17.22-2,4.63-6,3.31-18.54-11.92-18.54-11.92Z"/>
    <path class="cls-5" d="M548.51,464.73s9.27-35.09,49.66-51.65a26.07,26.07,0,0,1,3.31,2.65c1.32,1.33,104,106.61,129.12,139s55,70.85,55,70.85l-11.92,12.58S665.05,568,656.44,557.43s-74.82-73.5-74.82-73.5l-23.18-9.27Z"/>
    <path class="cls-9" d="M556.45,477.31s11.26-47.67,54.3-56.28c0,0,84.09,80.12,103.29,109.92,0,0,1.07,2.79-.45,3.71s-26.91,13.16-35.74,39.49c0,0,1.76,1.82-3.53-.17S565.72,491.22,556.45,477.31Z"/>
    <path class="cls-6" d="M688.22,574c1.32.67,74.82,53,78.8,55.63s7.52,2.5,8.4,1.91-73.29-66.81-77.93-70.12S688.22,574,688.22,574Z"/>
    <path class="cls-10" d="M682.26,550.15c-.66,0-4,21.19-9.93,17.21s-111.24-88.72-111.24-90.05,6.62-22.51,10.59-21.85S682.26,550.15,682.26,550.15Z"/>
    <path class="cls-11" d="M559.1,436.92s-9.27,15.89-10.59,18.54-90.05-84.09-90.05-84.09L422,335.61l-98-91.37s-4.63-11.26-2.65-14.57,4-9.27,4.64-9.27,86.08,84.75,86.08,84.75S550.49,434.27,559.1,436.92Z"/>
  </g>
</svg>
