<svg id="Layer_1" data-name="Layer 1" xmlns="http://www.w3.org/2000/svg" viewBox="0 0 1000 1000">
  <defs>
    <style>
      .cls-1 {
        font-size: 150px;
        font-family: FreeSansBold, FreeSans;
      }

      .cls-1, .cls-14 {
        fill: #231f20;
      }

      .cls-2 {
        letter-spacing: 0em;
      }

      .cls-3 {
        letter-spacing: -0.01em;
      }

      .cls-4, .cls-5 {
        fill: #ed1c24;
      }

      .cls-4 {
        letter-spacing: 0em;
      }

      .cls-5 {
        letter-spacing: 0em;
      }

      .cls-6 {
        fill: #fed2a5;
        stroke: #d7a57c;
      }

      .cls-12, .cls-17, .cls-6, .cls-7 {
        stroke-miterlimit: 10;
      }

      .cls-12, .cls-6, .cls-7 {
        stroke-width: 3px;
      }

      .cls-7 {
        fill: #bf2032;
        stroke: #a01d24;
      }

      .cls-8 {
        fill: #aa1e2e;
      }

      .cls-9 {
        fill: #df96a1;
      }

      .cls-10 {
        fill: #716765;
      }

      .cls-11 {
        fill: #e9bf98;
      }

      .cls-12 {
        fill: #705854;
        stroke: #614a47;
      }

      .cls-13 {
        fill: #d88494;
      }

      .cls-15 {
        fill: #fff;
      }

      .cls-16 {
        fill: #614a47;
      }

      .cls-17 {
        fill: #37bdde;
        stroke: #21b4cb;
      }
    </style>
  </defs>
  <title>wet</title>
  <text class="cls-1" transform="translate(84.11 802.26)">w + <tspan class="cls-2" x="287.7" y="0">e</tspan><tspan x="370.35" y="0">t = </tspan><tspan class="cls-3" x="591.3" y="0">w</tspan><tspan class="cls-4" x="706.5" y="0">e</tspan><tspan class="cls-5" x="789.15" y="0">t</tspan></text>
  <path class="cls-6" d="M665.79,479.45s5.76,38.31,7.77,47.43c2.1,9.5,5.6,73.43,6.06,76.42.9,5.91,3.16,5.82,4.49,13s2.49,17.13-8.05,26.31-34.07,13.87-42.77,8.58-3.51-16.77-3.51-16.77-3,4.5-5.7,3.35-1.86-15.27,9.33-22.6l-1.67-11.32-5.32-64.53-23.88-101.1,55.89-13Z"/>
  <path class="cls-6" d="M334.32,469.69s-7.13,38.14-9.5,47.19c-2.47,9.41-8,73.46-8.56,76.44-1.11,5.89-3.47,5.65-5.07,12.76s-3.11,17,7.64,27,35.21,16.1,44.45,11.33,4.16-16.64,4.16-16.64,3,4.72,5.86,3.74,2.39-15.24-9.09-23.32l2.07-11.27,7.44-64.54,27.9-100.12-58-16.57Z"/>
  <path class="cls-7" d="M497.69,632.77s54.16,4.64,105.23-4.64c0,0,12.38-130.77,11.61-136.19s7.74,114.52,7.74,114.52l62.67-7.74S665.6,389,653.22,370.46s-41-27.08-41-27.08S562.69,324,545.66,320.16s-100.59,2.32-100.59,2.32-65,10.84-82,25.54c-17.88,15.44-51.84,210.47-55.71,239.87l65,10.83L383.17,478S393.23,619.62,394,626.58,497.69,632.77,497.69,632.77Z"/>
  <path class="cls-6" d="M533.28,348.79s3.87-27.85,3.87-28.63-1.93-4.94-1.93-4.94l-15.09-15.17H457.45l-7,18.57v30.17l28.63,13.93,36.37-3.09Z"/>
  <path class="cls-8" d="M645.48,368.14c-3.09-3.1-21.66-15.48-34.82-19.35s-21.66-5.41-31.72-10.06-17.8-10.06-24-10.83-15.48-7-13.15,0a76.64,76.64,0,0,1,3.09,13.16s55.71,18.57,69.64,21.66,19.35,3.87,24.76,7S645.48,368.14,645.48,368.14Z"/>
  <path class="cls-8" d="M440.43,331.77c-7,0-39.46,6.19-47.2,8.51s-13.15,5.42-15.48,7.74-16.25,14.7-12.38,14.7,22.44-1.55,30.18-7.74,13.93-9.28,23.21-10.83,22.44-.77,21.67-2.32S440.43,331.77,440.43,331.77Z"/>
  <path class="cls-8" d="M402.58,336.48s-20.71,2.61-25.93,7-9,5.74-11.95,11.22-14.07,28.69-14.63,36.39-4.46,28.16-6.29,34.1-3.65,14.55,1.31,16.12,18.52,1.12,25-6.23,5.3-17.77,14.13-21.42,22.91-10.44,35.17-15.26,8.17-12.92,27.18-7.31,19.78,8.74,43,9.78,18,2.09,38.35-2.47,5.2-13.18,45-1.18,38.22,10.69,45.79,18.39,11,15.39,17.48,29.15,9.13,25,16.69,25.77,14.09-9.66,12.26-20.35-5.47-30.79-6.78-38.09-2.61-23.74-7.3-32.09S640.92,363,628.73,357,602,346.39,586.39,341.7s-31.8-12-36.64-14.09-7.11-5.44-8.32-3-5.39,23.07-8,29.85-5.47,18-9.13,19-45.39,7.83-58.95.26-27.54-15.39-27.21-24.52,7-19.75,0-21.39S402.58,336.48,402.58,336.48Z"/>
  <path class="cls-7" d="M537.15,318.62s-.77,27.08-8.51,32.49a50.78,50.78,0,0,1-37.91,7.74c-16.25-3.09-35-6.23-38-17.43s.09-18.15-2.23-19.32-11.1.4-12.13,1.94,1.3,30.17,12.13,41.78,28.63,12.38,47.2,10.83,34.82-7.74,41-15.48,13.8-30,10.38-40.14C549.08,321,539.47,317.07,537.15,318.62Z"/>
  <path class="cls-7" d="M307.34,577.83s10.94,3.44,18.06,5.46,20,2.6,31.56,3.71,18.29.47,19.25.89-1.07,4.35-1.55,9.29-5.73,6.42-9.29,5.41-43.49-3.69-49.23-6.24-8.27-.89-8.8-2.27-3.09-6.33-1.55-8.51S305,577.94,307.34,577.83Z"/>
  <path class="cls-7" d="M686.49,596.4s-13.06,5.22-22.25,5.75-29.88.62-35.92.27-6.79-2.48-7.6-.6,1.26,10.39.77,13.15,35.42,1.13,45.5,1.72,21.77-2.59,21.41-5S689.14,598.27,686.49,596.4Z"/>
  <g>
    <path class="cls-6" d="M368.75,194.76s-16.81,4.3-18.37,17.59,3.12,24.24,9.77,28.93,16,6.65,16,6.65,16.81,42.22,46.91,59,55.91,19.55,67.64,19.55,56.29-7.43,79.75-24.63,38.7-37.92,42.22-45c0,0,26.19-5.08,30.49-21.11s.4-23.85-2.73-26.19-13.69-7-13.69-7L624,129.08l-72.33-25.8L434.82,106l-37.53,19.15-21.5,55.91Z"/>
    <path class="cls-9" d="M451.24,273s1.56,28.15,16.81,33.23,37.53,3.91,45-.78,16.42-19.16,17.59-28.15S503.24,269,503.24,269s-28.54-2.35-37.54,0S451.24,273,451.24,273Z"/>
    <path class="cls-10" d="M420,183.42s7.82-6.64,14.86-3.52c0,0,4.69,2.35,5.86,3.91a9.49,9.49,0,0,0-7.81-6.64C426.61,176.39,421.14,180.69,420,183.42Z"/>
    <path class="cls-10" d="M543.11,192.81s5.08-3.91,9.78-3.13,8.21,2.73,9,3.91l.78,1.17s-2-6.65-5.86-7.43a15.74,15.74,0,0,0-9.78.78C544.68,189.29,543.11,192.81,543.11,192.81Z"/>
    <path class="cls-6" d="M491.12,239.33s-5.09-2-5.48.78,2.35,5.47,4.69,4.69"/>
    <path class="cls-11" d="M371.49,235.42s-.79-5.87-2.35-7.82-3.91-.78-1.56-4.3,3.91-6.26,1.56-11.34-4.69-9-8.21-7-6.25,10.56-5.86,11,3.52-8.6,7.42-7.43,2.35,10.95,2.35,12.51-.78,6.65.39,8.6S369.53,237,371.49,235.42Z"/>
    <path class="cls-11" d="M618.56,244.8s3.13-7.82,5.87-9,4.69-2.35,3.13-5.08-1.57-7,0-9.39,3.12-7.42,6.64-5.08,6.26,7,6.26,8.21-3.52-4.69-6.26-3.91-5.08,3.13-4.69,5.87,2.35,5.86,1.17,8.21a18.87,18.87,0,0,1-4.3,5.47C624.43,242.06,618.56,244.8,618.56,244.8Z"/>
    <path class="cls-11" d="M604.1,183.42c0-1.95-7.43-25.41-11.34-30.88s-6.64-6.65-6.64-6.65-16,12.51-30.5,13.69-42.61-.79-50.43-3.52-19.55-12.51-19.55-12.51,84.45-17.21,84.84-17.6,30.49.79,30.49.79l11.34,18.76Z"/>
    <path class="cls-11" d="M400.81,170.52l-4.69,10.95s-3.13-11.73-2.74-14.86-1.17-15.24-1.17-15.24,14.85-17.21,15.24-17.21,10.56,2,10.56,2Z"/>
    <path class="cls-12" d="M379.7,224.86s-11.64-28.21-13.25-29.35,4.25-57.83,18.33-76.2,39.48-44.57,81.32-50.43,73.49-6.26,95.39,0,37.92,23.06,37.92,23.06,33.62,9.38,37.92,30.5,7.43,42.61,3.91,56.29-11.73,30.5-11.73,30.5l-13.68,23.84s1.95-54.34-1.17-62.16c0,0-9,19.94-11.34,21.9,0,0,1.95-23.85-2-34.8s-11.73-25-16-27.36c0,0-17.59,21.89-37.14,25.41s-44.56-.39-64.89-7.43-36.36-9.38-44.57-7-23.85,7.82-29.71,18-11.73,19.54-11.73,19.54.39-31.27,5.86-37.53c0,0-11.73,9.78-15.63,32.84s-7,34.4-6.65,40.66S379.7,224.86,379.7,224.86Z"/>
    <path class="cls-13" d="M457.69,294.65s4.3,8.6,12.9,11.33,23.85,3.13,26.19,2.74,13.69-2.34,14.86-3.13,4.69-3.91,4.69-3.91S479.19,287.61,457.69,294.65Z"/>
    <path class="cls-12" d="M445.34,276s68-8.84,93.89,5.18c0,0-13.53-18.19-24.66-21.79s-31-5.63-38.84-4.4-18.58,8.6-22.13,10.4S445.34,276,445.34,276Z"/>
    <circle class="cls-14" cx="430.5" cy="214.95" r="11.14"/>
    <circle class="cls-15" cx="424.93" cy="210.89" r="2.62"/>
    <circle class="cls-14" cx="547.87" cy="219.01" r="11.14"/>
    <circle class="cls-15" cx="542.3" cy="214.95" r="2.62"/>
  </g>
  <path class="cls-16" d="M555.61,71.7s-40.27-4.31-58-1.57-28.71,1.57-37.71,4.7-22.7,7.43-29.55,11.34-17,10.18-20.93,13.7-11,7.43-14.09,12.13-6.65,10.94-7.82,12.32-4.7,6.18-5.87,9.84-6.26,13.29,0,14.54,5.87-2,13.3-7.24,14.87-7.16,14.87-1.68-4.72,11.74-4.72,11.74,8.42-8.61,19.87-11.74,20.07-10.06,30.64-5.62,15.54,5.72,30.07,9.39,30.19,8.36,38.4,8,15.66,6.1,29.55-2.82,23-13.61,29.43-18.7,14.2-5.87,17.33-.39,2.35,19.09,3.91,23.83,3.87,7.37,4.09,10.36,10-4.45,10.21-4.06-2.95,3.66,4.48,4.77,10.57-2.75,12.13-6.69,5.48-5.91,2.74-11.78-5.06-17.21-8.4-25-9.15-12.36-17.2-17.72S603,99.87,593.46,92.43,574.91,79.13,566.3,76,555.61,71.7,555.61,71.7Z"/>
  <path class="cls-17" d="M402,139.85c-.37,1.48-7.27,9.06-5.78,11.33s5.1-3.75,8.92-1.1.87,11.72,2.29,16.34,3,10.68,5.51,2.82-.88-13.53,3.32-15.83,7.52.49,10.09,3.52,8,5.73,8.71-.49,1.08-12.06,2.09-13.19"/>
  <path class="cls-17" d="M555.61,136.91c.78,0,5.23,5,7,9.92s-3.07,12.87,2.48,10.6,5.05-10.1,5.85-12.83-2.58-10.62,2.8-2.31,5.56,12.17,5.82,15.53-1.31,9.09,3.91,3.88,4.44-10.44,5.74-15.92,3.65-16.19,8.61-11.62,2.09,10.58,7.3,8.49,5.74-5.24,5-8.49S605.7,121,605.7,121"/>
  <path class="cls-8" d="M441.05,326.51c.95-.6,6.3-.58,6.56,0s.78,20.4,8.09,25.1,20.34,7.56,25.56,8.61,14.61,3.44,24,2.5,18.52-2.24,24-6.42,6.39-13.82,7.89-17.47,1-16,2.81-16.35,6,.47,6.52,2.15-.78,11.85-3.39,19.15-8.61,15.61-14.09,19.15-19.83,7.39-24.91,7.82-12.66,4.86-26,1.73-19-2.82-25.3-9.76a42.86,42.86,0,0,1-10.44-21.55C441.35,334.65,438.66,328,441.05,326.51Z"/>
  <path class="cls-17" d="M588.8,282.61s-5.87,2.93-8,7-3.71,7.44-4.3,12.33,1.76,9.78-1.18,10-4.1-5.93-3.91-8.42.39-9.08-2.74-2.78-4.89,9.63-4.89,14.52,2.54,11-1.76,6.26-1.68-10.12-3.09-12.69a10,10,0,0,0-5.32-4.13"/>
</svg>
