<?xml version="1.0" encoding="UTF-8" standalone="no"?>
<svg
   id="Layer_1"
   data-name="Layer 1"
   viewBox="0 0 1000 1000"
   version="1.1"
   sodipodi:docname="leg.svg"
   inkscape:version="1.2 (1:1.2.1+202207142221+cd75a1ee6d)"
   xmlns:inkscape="http://www.inkscape.org/namespaces/inkscape"
   xmlns:sodipodi="http://sodipodi.sourceforge.net/DTD/sodipodi-0.dtd"
   xmlns="http://www.w3.org/2000/svg"
   xmlns:svg="http://www.w3.org/2000/svg">
  <sodipodi:namedview
     id="namedview87"
     pagecolor="#ffffff"
     bordercolor="#000000"
     borderopacity="0.25"
     inkscape:showpageshadow="2"
     inkscape:pageopacity="0.0"
     inkscape:pagecheckerboard="0"
     inkscape:deskcolor="#d1d1d1"
     showgrid="false"
     inkscape:zoom="0.877"
     inkscape:cx="499.42987"
     inkscape:cy="500.57013"
     inkscape:window-width="1920"
     inkscape:window-height="1031"
     inkscape:window-x="0"
     inkscape:window-y="25"
     inkscape:window-maximized="1"
     inkscape:current-layer="Layer_1" />
  <defs
     id="defs4">
    <style
       id="style2">
      .cls-1 {
        font-size: 150px;
        fill: #231f20;
        font-family: FreeSansBold, FreeSans;
        letter-spacing: -0.01em;
      }

      .cls-2 {
        fill: #ed1c24;
        letter-spacing: 0em;
      }

      .cls-3 {
        letter-spacing: 0em;
      }

      .cls-4 {
        fill: #d9a980;
        stroke: #b27f66;
        stroke-miterlimit: 10;
        stroke-width: 3px;
      }

      .cls-5 {
        fill: #f6d6b8;
      }

      .cls-6 {
        fill: #c59175;
      }
    </style>
  </defs>
  <title
     id="title6">leg</title>
  <text
     class="cls-1"
     transform="translate(400.9,802.26)"
     id="text12"
     style="fill:#ed1c24;fill-opacity:1"><tspan
       style="fill:#000000"
       id="tspan1556">l</tspan><tspan
       class="cls-2"
       x="40.200001"
       y="0"
       id="tspan8"
       style="fill:#ed1c24;fill-opacity:1">eg</tspan></text>
  <path
     class="cls-4"
     d="M528.25,77S549,241.73,546,252.71s-2.44,29.91-1.83,36.62,13.42,36,13.42,36l15.21,129.39s4.55,42.11,6.26,56.33.57,30.73-2.27,35.28S563.65,568,560.8,572.5,544.3,589,542,591.84s-9.67,16.5-10.81,17.64-12,8-15.93,11.95-1.71,12,2.27,15.36,18.78,4,22.19,2.28,7.4-7.4,7.4-7.4c1.14,1.71,4,4,9.1,5.69s11.38-2.84,11.38-2.84a32.11,32.11,0,0,0,2.85,2.27c2.27,1.71,10.81,2.85,13.08,2.28s4-4,4-4c1.13,2.27,5.69,4.55,10.81,4a10.13,10.13,0,0,0,7.39-4.55,4.35,4.35,0,0,0,1.14,2.84c1.71,3.42,12.52,1.14,16.5-1.14S629.08,622,629.08,622c2.28,3.41,14.22-10.24,21.62-15.36s6.93-12.48,6.93-16.46S649,573.64,650.13,568s.57-13.09-5.12-27.31-5.69-89.9-5.69-89.9-4.88-130.9-4.27-132.73-2.44-51.26-6.11-75.06l5.5-169"
     id="path14" />
  <path
     class="cls-4"
     d="M605.75,634.52s1.14-8.54,2.85-10.81,1.7-9.11,1.7-9.11a5.65,5.65,0,0,1,.57-2.27"
     id="path16" />
  <path
     class="cls-4"
     d="M587.55,635.09a47,47,0,0,1,1.13-13.66c1.71-6.26,2.28-10.81,4-13.09"
     id="path18" />
  <path
     class="cls-4"
     d="M567.63,634.52s-2.27-5.69-.57-10.24,3.42-8,5.12-9.68,4.56-6.82,4.56-6.82"
     id="path20" />
  <path
     class="cls-4"
     d="M547.33,631.93s-4.16-5.95-.18-11.64,6.83-6.82,9.1-9.67a32,32,0,0,0,4-7.4"
     id="path22" />
  <path
     class="cls-5"
     d="M534.06,623.71s.57-6.26-2.27-7.4-5.1-3.27-6.25-2.77-10.23,6.89-10.81,8.53,2.26,7.33,4.54,7.33,9.67-1.14,12-2.85A9.81,9.81,0,0,0,534.06,623.71Z"
     id="path24" />
  <path
     class="cls-5"
     d="M547.15,628.26s8,3.41,10.81,1.71,4.55-3.42,2.84-5.69-9.1-6.26-11.38-5.12-3.41,4.55-3.41,5.69S546.58,628.26,547.15,628.26Z"
     id="path26" />
  <path
     class="cls-5"
     d="M568.77,630s9.67,3.41,11.38,1.13,2.84-5.12-.57-6.82-9.67-1.71-10.81-.57S567.63,629.4,568.77,630Z"
     id="path28" />
  <path
     class="cls-5"
     d="M589.82,631.1s9.67,1.14,10.24-1.13,1.71-5.69-1.13-6.26-8.54-.57-9.11,1.14S588.68,630.53,589.82,631.1Z"
     id="path30" />
  <path
     class="cls-5"
     d="M608,631.67s6.26,2.28,8,0,4-5.12.57-5.69a34.52,34.52,0,0,0-8,0C608,626,607.46,631.1,608,631.67Z"
     id="path32" />
  <path
     class="cls-6"
     d="M519.27,630.53s15.93,1.71,19.91-1.13a21.56,21.56,0,0,0,5.69-5.69s-.57,6.26.57,6.82,0,2.85-1.71,4-4,5.69-12.51,4.55A35.09,35.09,0,0,1,517,634l-1.13-2.28Z"
     id="path34" />
  <path
     class="cls-6"
     d="M650.41,585.06s-1.7,13.08-5.12,16.5a53.74,53.74,0,0,1-11.38,8.53c-4,2.28-5.69,4-8,5.12s-4,1.71-4,4-1.13,6.82-1.7,9.1a22.23,22.23,0,0,1-2.28,5.12c-.57,1.14-5.12,4-5.12,4s6.83-1.7,7.4-2.84,4-10.24,4-11.95.57-1.71,1.14-1.14,10.24-6.26,11.38-7.39,14.79-12,15.36-13.09,5.12-8.53,4.55-10.24A82.38,82.38,0,0,0,651,580.51C650.41,579.94,650.41,585.06,650.41,585.06Z"
     id="path36" />
  <path
     class="cls-6"
     d="M565.07,628.54s0,4.56.57,5.12-5.12,2.28-6.26,2.28-6.83-2.28-8-2.84-3.42-4-3.42-4,5.12,2.85,8.54,2.85S565.07,628.54,565.07,628.54Z"
     id="path38" />
  <path
     class="cls-6"
     d="M568.49,630.82A19.32,19.32,0,0,0,577,633.1c4.55,0,5.69-.57,6.83-1.14a10.45,10.45,0,0,0,2.27-1.71s.57,2.85,0,4a4.48,4.48,0,0,1-3.41,2.85c-2.28.57-8-.57-9.67-1.14s-4.55-2.84-4.55-3.41Z"
     id="path40" />
  <path
     class="cls-6"
     d="M589,631.39s1.14,1.14,5.12,1.14,7.4,0,8.53-.57a10.63,10.63,0,0,0,2.28-1.71s0,2.85-1.14,4a8.55,8.55,0,0,1-4.55,2.28,13.8,13.8,0,0,1-6.83,0c-1.7-.57-3.41-1.14-3.41-2.28Z"
     id="path42" />
  <path
     class="cls-6"
     d="M607.74,633.1a9.6,9.6,0,0,0,1.14,2.84,4.25,4.25,0,0,0,4,1.14,10,10,0,0,1,2.85-.57s-4-.57-4.55-1.14A34.47,34.47,0,0,0,607.74,633.1Z"
     id="path44" />
  <path
     class="cls-6"
     d="M561.82,323.5s11-.61,16.47-3.05,9.77-7.93,11.6-10.37-1.22,7.32-3,9.76a41.63,41.63,0,0,1-7.33,7.32c-2.44,1.83-1.83,2.44-2.44,4.28s-3.05,4.88-2.44,11,0,15.26-.61,15.87-1.22-2.44-2.44-7.94-1.22-7.32-3.05-12.2,1.22-4.27-3-6.71-5.49-6.11-6.1-6.72-1.23-3.66-1.23-3.66Z"
     id="path46" />
  <path
     class="cls-6"
     d="M629.55,348.52s6.11,125.1,6.11,131.82,3.66,42.71,3.66,42.71l-3.66-108-2.44-72.62-.61-31.73Z"
     id="path48" />
  <path
     class="cls-4"
     d="M488.59,79.4l-9.77,195.28s-3.05,30.51-1.22,43.94S476.38,412,476.38,412s-3.66,95.81-3.05,99.47,3.66,20.14,3.05,22,3.88,19.21,3.88,19.21,4.86,12.27.39,18-30.93,17.62-35.39,19.53-15,10.79-20.14,15.26-15,12.9-15.66,14.18-7,15.31-14.67,17.22-19.46-1.59-19.46-6.69a17.36,17.36,0,0,1,1.91-8.3s-15.94,5.11-15.31-6.38c0,0-10.2,2.56-8.93-8.93,0,0-8.29,2.56-7-7,0,0-7,1.27-5.11-6.38s8.3-8.93,10.21-9.57,6.38-5.1,11.48-8.29S388.09,553,397,547.22c0,0,17.22-17.86,19.77-23s-2-104.95-2-104.95L408,322.89s-6.1-25-6.1-36.61S403.76,257,405,252.1,385.45,83.67,385.45,83.67"
     id="path50" />
  <path
     class="cls-4"
     d="M377.24,621.85s4.47-7,7.66-8.29a19.65,19.65,0,0,0,5.74-3.83"
     id="path52" />
  <path
     class="cls-4"
     d="M361.93,615.47a13.38,13.38,0,0,1,6.38-6.37,71.15,71.15,0,0,0,7.66-3.83l2.16-2.27"
     id="path54" />
  <path
     class="cls-4"
     d="M353,606.54s1.92-4.46,5.75-5.1,8.29-3.83,8.29-3.83l1.94-1.94h0"
     id="path56" />
  <path
     class="cls-6"
     d="M384.54,611.24s-6.71,5.49-7.32,6.71-1.84,3-3.67,3-7.93-.61-7.93-.61,11-4.27,12.21-4.88S384.54,611.24,384.54,611.24Z"
     id="path58" />
  <path
     class="cls-5"
     d="M394.19,622.18s-1.29-5.84-4.07-6.11-5.33-1.59-6.18-.83-6.87,9-6.91,10.67,4,6.05,6,5.44,8-3.65,9.51-5.81A9.27,9.27,0,0,0,394.19,622.18Z"
     id="path60" />
  <path
     class="cls-5"
     d="M363.45,618.36s5.72,2.45,7.76,1.22,3.26-2.45,2-4.08-6.53-4.49-8.16-3.67-2.45,3.26-2.45,4.08S363,618.36,363.45,618.36Z"
     id="path62" />
  <path
     class="cls-5"
     d="M353.86,608.26s5.09,4.57,6.72,3.61,3.06-2.43,1.4-4.35-5.53-3.53-6.52-3.12S353.31,607.62,353.86,608.26Z"
     id="path64" />
  <path
     class="cls-5"
     d="M346.93,599.68s4.47,4.46,5.53,3.74,2.82-1.68,1.58-3.09-4.09-3.75-5-3.27S346.55,599,346.93,599.68Z"
     id="path66" />
  <path
     class="cls-5"
     d="M341.11,593.24s3.34,3.54,4.34,2.76,2.62-1.84,1.72-3-3.1-2.94-3.91-2.4S340.87,592.64,341.11,593.24Z"
     id="path68" />
  <path
     class="cls-4"
     d="M346,599.53s2.55-5.11,7.65-6.38,7-3.19,7-3.19l2.21-1.61"
     id="path70" />
  <path
     class="cls-6"
     d="M383.32,634.42s8.54,1.23,10.37.62,8.55-6.72,8.55-7.33,7.32-11.59,7.32-11.59-11.6,12.2-12.82,12.81-15.25,3.66-15.25,3.66l-3.05-1.22Z"
     id="path72" />
  <path
     class="cls-6"
     d="M372.33,605.13c.6-.13-6.71,3.66-7.32,4.27s-3.66,4.28-3.66,4.28-3.05,1.22-3.66.61-3.05-2.44-3.05-3.66,1.83,2.44,3.05,2.44a18.91,18.91,0,0,0,4.27-1.22S366.84,606.35,372.33,605.13Z"
     id="path74" />
  <path
     class="cls-6"
     d="M352.2,604.52c-.62-.61-3.67-1.83-4.28-2.44s-.61,1.83.61,2.44S352.2,604.52,352.2,604.52Z"
     id="path76" />
  <path
     class="cls-6"
     d="M351.58,592.32s-3.66,3.66-4.88,4.27-4.27-1.22-4.27-1.22,0,2.44,1.22,2.44S351.58,592.32,351.58,592.32Z"
     id="path78" />
  <path
     class="cls-6"
     d="M466.92,536.17s2.44,2.45,4.27,2.45,2.45,1.83,2.45,3,1.83,14,1.83,15.86S474.86,569.74,473,571s-14.64,8.54-14.64,9.15-3.66,3.66-3.66,3.66,22.58-13.42,23.19-14a13.63,13.63,0,0,0,2.44-9.16c-.61-4.27-4.27-15.86-4.27-15.86L474.86,535S474.86,538.62,466.92,536.17Z"
     id="path80" />
  <path
     class="cls-6"
     d="M428.78,315l-5.65,2.61c-4.69,2.17-10.7,5-11.44,5.32-1.22.61,0,16.48,0,16.48s2.45-8.54,4.89-12.21S428.78,315,428.78,315Z"
     id="path82" />
  <path
     class="cls-6"
     d="M474.86,290.85s-7.94,12.82-7.94,15.26,4.88,11.6,6.1,14,1.84,14.64,1.84,15.86V290.85Z"
     id="path84" />
</svg>
