<svg id="Layer_2" data-name="Layer 2" xmlns="http://www.w3.org/2000/svg" viewBox="0 0 1000 1000"><defs><style>.cls-1{fill:#675058;stroke:#5b4950;}.cls-1,.cls-2,.cls-3{stroke-miterlimit:10;stroke-width:3px;}.cls-2{fill:#fed1a5;stroke:#d6a47c;}.cls-3{fill:#e7d980;stroke:#d1b43b;}.cls-4{fill:#eabf98;}.cls-5{fill:#7c6575;}.cls-6{fill:#dc97ac;}.cls-7{fill:#d2829f;}.cls-8{fill:#231f20;}.cls-9{fill:#fff;}</style></defs><title>sister</title><path class="cls-1" d="M474.5,121.5s-47-13-72,2-34,51-36,62,5,68,5,68l6-4,19,90,211-6s13-124,7-156-8-54-36-61-69-9-81-3S485.5,123.5,474.5,121.5Z"/><path class="cls-1" d="M235.5,747.5s6,56-12,95,36,18,67,10,68-16,68-16,281-11,289-13,53,29,75,35,60,8,66-1-10-66-9-80-1-78-1-78l-106-8-416,49Z"/><path class="cls-2" d="M223.89,630.93s-43.11,10.05-47.63,47.8,22.21,74.37,54.17,76.34,40.1.71,40.1.71S328.36,857.57,429.09,876,608.2,861.5,632.77,845.7s44.24-33,63.58-57.36,44.34-77.23,44.34-77.23,54.95,3.1,74.65-25.19,20-53.38,9.38-68.43-33.26-31.21-47-34.5-12.93-98.62-12.93-98.62L622.92,389.83,327.48,402.54l-67.2,53-39.12,140Z"/><path class="cls-3" d="M586.3,282.79s-.82-30.8-19.49-40.47-57.68-11.39-67.87-9.91-60.5,14.63-70.47,19.7.94,19.39.94,19.39l117,.17Z"/><path class="cls-4" d="M247.15,591.41c.09-1,34.06-96.26,43.39-99.41s23.79,4.73,23.79,4.73,32.75-29.6,54.1-21.59,29.13,10.74,32.21,10,65.28,0,76.67,7.12,12.83,13.25,12.83,13.25S506.67,479,526.5,481.8s42.63,6,42.63,6l6,2.79s34.91-22.08,55.91-21.13,4.84-19.64,3.94-20.72,5.83,23.64,5.83,23.64,12.69-6.86,26.54-4.56,27.88,2.59,39.55,6.68,29.22,9.75,29.22,9.75l.93-10-47.57-28.52-121.22-2.58-150.93,2.39-98.06,6.95-47.72,5.6-26.17,87Z"/><path class="cls-1" d="M759.9,655.66l23.78-72.11,29.65,21.27s10.2-71.8-11.76-138.12-67.08-131.78-120-167.83-135.52-54.78-214.94-43.08S336.2,297.9,299.83,332.68,226,424.24,211.1,466s-31.6,91.47-29.49,122.79,5.94,64.07,5.94,64.07l24.56-14s23.85,67.5,42,77.23c0,0-6.88-88,6.47-156.08s51.82-60.46,51.82-60.46,58.49-2.59,79.06-7.71,41.58-15.22,41.58-15.22,56.81,26.37,57.52,29.45S502,481,502,481s47.75,26.53,69.15,12.45,15.63-27.67,34.54-25.91S717.22,499,730.21,521.33s25.2,31.47,27.63,37.72S759.9,655.66,759.9,655.66Z"/><path class="cls-5" d="M328.52,380.54c-1.09.9-27.37,56.71-18,63.61s30.36-13.25,38.88-18.48,20.1-.14,26.05,11.46,40.41,29.87,46,23.36,28.22-33.53,31.12-32.26,34.41,40.36,34.41,40.36L497,426.33s27.58,16.63,53.47,19,38.88-18.48,40.15-21.37,18.83,2.75,28.6,5.67,18.41-14.36,18.41-14.36,44.35,14.1,52.66,19.43,18.84-10.77,22.83-10.4,39.71,15.74,39.71,15.74-29.55-27.85-40.64-49-28.83-68-40.46-51S629,378.35,612.92,367.81,594.21,353,590.39,361.7s-56.78,5.77-71.25-.6S482,371.71,473,381.92s-26.35,2.57-28.25,1.39-17.57,5.4-26.81,7.55-47-13.4-52.94-14-32.11-11-32.11-11Z"/><path class="cls-1" d="M319,580.51s16-10.56,22-10,17.64,4.65,22.34,8.1c0,0-1.06-10.14-14.82-13.43s-16.92-1.57-21.28,2S319,580.51,319,580.51Z"/><path class="cls-1" d="M575.21,568.18s14.86-8.66,20.93-9.1a24.05,24.05,0,0,1,14.75,3.38c3.8,2.36,10.49,6,10.49,6s-5.86-12.6-12.64-15.24-14.75-3.38-21.1,0S575.21,568.18,575.21,568.18Z"/><path class="cls-6" d="M372.56,760.25s210.14-2.56,266.85-18.38c0,0,3.13,63.56-21.9,84.34s-65.37,44.13-110.46,43-81.74-6.6-101.61-30.54S372.68,791.39,372.56,760.25Z"/><path class="cls-7" d="M447.68,859.63s43.44,8,63.73,5.92,41.65-5.16,65.76-16c0,0-33.72-26.23-62.06-23.85s-45.29,11.86-50.73,16.38S447.68,859.63,447.68,859.63Z"/><path class="cls-4" d="M244.05,732.73s-10.28-19-15.07-21.48-15-.4-13.39-7.27,5.72-7.51,4.47-15.66-6.3-18.66-9.19-19.93-16.84-2.57-20.1.14S183.94,688,183.94,688s8-10.31,12.06-10.93,8.06-.26,10.31,8,3.22,19.39,6.74,24.73,7.5,5.72,13.1,10.26S244.05,732.73,244.05,732.73Z"/><path class="cls-4" d="M755,691.86s5.74-18.55,15-20.7,19.2-1.23,19.94-9.2-8.13-9.79-5.3-18.57,3.84-19.73,11.9-20,15.74,3.47,18.08,10.72,2.5,16.3,2.5,16.3-1.87-12.23-9-10.88-11.23,2-11.07,11,2.23,19.29-5.3,24.62-9.33,3.15-18.85,8.29A176.45,176.45,0,0,1,755,691.86Z"/><path class="cls-2" d="M492.4,686.52s-16.47-6.55-18.92-1.75-5.19,12.57,2.5,16.3a33.69,33.69,0,0,0,14.75,3.38"/><path class="cls-5" d="M377.5,187.5s16-51,27-57,24-11,45-6,28,14,42,11,31-16,46-13,41,7,49,14,16,29,18,34,2,25,2,27-4-24-24-32-42-17-57-6-34,11-54,3-39-17-53-6S377.5,187.5,377.5,187.5Z"/><circle class="cls-8" cx="361.46" cy="626.13" r="28.48"/><circle class="cls-9" cx="347.21" cy="615.75" r="6.71"/><circle class="cls-8" cx="588.68" cy="620.52" r="28.48"/><circle class="cls-9" cx="574.43" cy="610.13" r="6.71"/></svg>