<?xml version="1.0" encoding="UTF-8" standalone="no"?>
<!-- Created with Inkscape (http://www.inkscape.org/) -->

<svg
   xmlns:dc="http://purl.org/dc/elements/1.1/"
   xmlns:cc="http://creativecommons.org/ns#"
   xmlns:rdf="http://www.w3.org/1999/02/22-rdf-syntax-ns#"
   xmlns:svg="http://www.w3.org/2000/svg"
   xmlns="http://www.w3.org/2000/svg"
   xmlns:sodipodi="http://sodipodi.sourceforge.net/DTD/sodipodi-0.dtd"
   xmlns:inkscape="http://www.inkscape.org/namespaces/inkscape"
   width="1000"
   height="1000"
   viewBox="0 0 264.58333 264.58334"
   version="1.1"
   id="svg2383"
   inkscape:version="0.92.5 (2060ec1f9f, 2020-04-08)"
   sodipodi:docname="What does your mother do.svg"
   enable-background="new">
  <defs
     id="defs2377" />
  <sodipodi:namedview
     id="base"
     pagecolor="#ffffff"
     bordercolor="#666666"
     borderopacity="1.0"
     inkscape:pageopacity="0.0"
     inkscape:pageshadow="2"
     inkscape:zoom="0.70710678"
     inkscape:cx="598.60664"
     inkscape:cy="426.78255"
     inkscape:document-units="px"
     inkscape:current-layer="layer3"
     showgrid="false"
     units="px"
     inkscape:window-width="1920"
     inkscape:window-height="1031"
     inkscape:window-x="0"
     inkscape:window-y="25"
     inkscape:window-maximized="1"
     showguides="true"
     inkscape:lockguides="true"
     inkscape:object-nodes="false"
     inkscape:snap-nodes="false"
     inkscape:snap-others="false" />
  <metadata
     id="metadata2380">
    <rdf:RDF>
      <cc:Work
         rdf:about="">
        <dc:format>image/svg+xml</dc:format>
        <dc:type
           rdf:resource="http://purl.org/dc/dcmitype/StillImage" />
        <dc:title></dc:title>
      </cc:Work>
    </rdf:RDF>
  </metadata>
  <g
     inkscape:groupmode="layer"
     id="layer3"
     inkscape:label="Layer 2">
    <ellipse
       style="fill:#efaced;fill-opacity:1;stroke-width:0.45916313"
       id="path3018"
       cx="131.66626"
       cy="223.26067"
       rx="105.7971"
       ry="33.096272" />
    <path
       d="m 131.99657,56.787664 c 9.59276,-4.896366 -1.52715,-6.636244 -1.52715,-6.636244 -9.28432,0.330583 -18.72364,0.397819 -28.0225,0.218587 C 61.2251,49.57807 22.844346,43.952681 14.002082,35.007561 5.8395843,26.753497 26.221434,12.497468 109.11377,9.6784827 120.89634,9.2780828 132.05188,9.2008132 142.4785,9.401125 c 60.11112,1.154833 95.97219,11.530904 87.20915,22.297876 -10.89275,13.392764 -76.77139,17.005142 -76.77139,17.005142 0,0 1.25211,6.16973 -20.91969,8.083521"
       style="fill:#eb18e0;fill-opacity:1;fill-rule:nonzero;stroke:none;stroke-width:0.03527778"
       id="path7388"
       inkscape:connector-curvature="0" />
    <text
       xml:space="preserve"
       style="font-style:normal;font-weight:normal;font-size:10.58333302px;line-height:1.25;font-family:sans-serif;letter-spacing:0px;word-spacing:0px;fill:#000000;fill-opacity:1;stroke:none;stroke-width:0.26458332"
       x="22.824818"
       y="35.212627"
       id="text1229"><tspan
         sodipodi:role="line"
         x="22.824818"
         y="35.212627"
         style="font-style:normal;font-variant:normal;font-weight:bold;font-stretch:normal;font-size:12.69999981px;font-family:sans-serif;-inkscape-font-specification:'sans-serif Bold';stroke-width:0.26458332"
         id="tspan1231">What does your mother do ?</tspan></text>
    <g
       id="g8035"
       transform="matrix(-0.0215417,0,0,-0.02440021,363.7358,269.96249)"
       style="stroke-width:2.64145732">
      <path
         d="m 15252.7,1812.38 c -1055.5,313.87 -3024.8,-0.47 -2136.2,-207.03 888.5,-206.63 3183.5,-104.45 2136.2,207.03"
         style="fill:#235a6a;fill-opacity:1;fill-rule:nonzero;stroke:none;stroke-width:2.64145732"
         id="path8037"
         inkscape:connector-curvature="0" />
    </g>
    <g
       id="g8107"
       transform="matrix(-0.02027767,0,0,-0.02296844,363.7358,269.96249)"
       style="stroke-width:2.64145732">
      <path
         d="m 16215.5,7705.65 c -96.4,-85.19 -335.2,-330.32 -150.6,-370.75 184.6,-40.44 235.1,445.48 150.6,370.75"
         style="fill:#f25035;fill-opacity:1;fill-rule:nonzero;stroke:none;stroke-width:2.64145732"
         id="path8109"
         inkscape:connector-curvature="0" />
    </g>
    <g
       id="g9193"
       transform="matrix(-0.0197648,0,0,-0.02238752,363.7358,269.96249)"
       style="stroke-width:2.64145732">
      <path
         d="m 16118.4,4277.41 c 0,0 -99.7,-183.11 -69.5,-207.55 35.9,-29.14 36.9,43.49 64,49.77 44,-24.12 -51.9,-185.39 -19.4,-189.39 19.3,-13.58 52.6,19.94 54.6,31.56 3.8,-30.99 48.6,0.63 52.3,29.39 11.6,-15.55 35.9,21.34 51.9,61.78 47.7,119.68 -6.1,219.55 -6.1,219.55 l -127.8,4.89"
         style="fill:#fabd99;fill-opacity:1;fill-rule:nonzero;stroke:none;stroke-width:2.64145732"
         id="path9195"
         inkscape:connector-curvature="0" />
    </g>
    <g
       id="g9197"
       transform="matrix(-0.01925243,0,0,-0.02180717,363.7358,269.96249)"
       style="stroke-width:2.64145732">
      <path
         d="m 16285.1,2720.48 c 0,0 6.8,-269.71 14.9,-416.3 -96.9,-24.84 -157.9,-110.75 -157.9,-110.75 l -49.8,445.64 192.8,81.41"
         style="fill:#fabd99;fill-opacity:1;fill-rule:nonzero;stroke:none;stroke-width:2.64145732"
         id="path9199"
         inkscape:connector-curvature="0" />
    </g>
    <g
       id="g9201"
       transform="matrix(-0.01968512,0,0,-0.02229727,363.7358,269.96249)"
       style="stroke-width:2.64145732">
      <path
         d="m 15760,2207.76 c -101.9,-141.2 256.4,-387.9 417.1,-309.49 122.9,37.67 66.6,165.49 66.6,165.49 l -483.7,144"
         style="fill:#fde7d3;fill-opacity:1;fill-rule:nonzero;stroke:none;stroke-width:2.64145732"
         id="path9203"
         inkscape:connector-curvature="0" />
    </g>
    <g
       id="g9205"
       transform="matrix(-0.01969892,0,0,-0.0223129,363.7358,269.96249)"
       style="stroke-width:2.64145732">
      <path
         d="m 15751.2,2354.27 c -12.2,-31.09 -32.6,-106.76 1.7,-170.47 137.4,-163.27 236.1,-256.02 410.4,-208.37 136.7,37.39 45.7,153.4 -26.3,199.39 -71.9,46.06 -209.2,174.04 -209.2,174.04 0,0 -53.4,-54.21 -176.6,5.41"
         style="fill:#071216;fill-opacity:1;fill-rule:nonzero;stroke:none;stroke-width:2.64145732"
         id="path9207"
         inkscape:connector-curvature="0" />
    </g>
    <g
       id="g9209"
       transform="matrix(-0.01935747,0,0,-0.02192614,363.7358,269.96249)"
       style="stroke-width:2.64145732">
      <path
         d="m 16208.7,2390.28 c 91.3,109.23 -255.4,91.99 -132.6,-12.84 20.8,-21.39 107.7,-16.79 132.6,12.84"
         style="fill:#071216;fill-opacity:1;fill-rule:nonzero;stroke:none;stroke-width:2.64145732"
         id="path9211"
         inkscape:connector-curvature="0" />
    </g>
    <g
       id="g9213"
       transform="matrix(-0.01982416,0,0,-0.02245475,363.7358,269.96249)"
       style="stroke-width:2.64145732">
      <path
         d="m 16049,2151.46 c 251,-188.64 -102.2,-265.17 -234.3,-153.19 0.4,104.13 128.7,150.91 234.3,153.19"
         style="fill:#f4f1f0;fill-opacity:1;fill-rule:nonzero;stroke:none;stroke-width:2.64145732"
         id="path9215"
         inkscape:connector-curvature="0" />
    </g>
    <g
       id="g9217"
       transform="matrix(-0.01935069,0,0,-0.02191846,363.7358,269.96249)"
       style="stroke-width:2.64145732">
      <path
         d="m 16141.8,2280.35 c 4.6,0 9,2.14 11.8,6.1 22.6,32.36 76,56.67 126.2,41.63 7.6,-2.27 15.7,2.01 17.9,9.6 2.3,7.59 -2,15.63 -9.6,17.9 -60.5,31.58 -206.1,-53.31 -146.3,-75.23"
         style="fill:#fde7d3;fill-opacity:1;fill-rule:nonzero;stroke:none;stroke-width:2.64145732"
         id="path9219"
         inkscape:connector-curvature="0" />
    </g>
    <g
       id="g9221"
       transform="matrix(-0.0194157,0,0,-0.02199209,363.7358,269.96249)"
       style="stroke-width:2.64145732">
      <path
         d="m 16142.3,2225.22 c 4.5,0 9,2.13 11.8,6.14 22.5,32.18 75.6,56.48 125.7,41.42 7.6,-2.26 15.6,2.01 17.9,9.57 2.3,7.56 -2,15.58 -9.6,17.84 -60.3,31.54 -205.4,-53.13 -145.8,-74.97"
         style="fill:#fde7d3;fill-opacity:1;fill-rule:nonzero;stroke:none;stroke-width:2.64145732"
         id="path9223"
         inkscape:connector-curvature="0" />
    </g>
    <g
       id="g9225"
       transform="matrix(-0.01948057,0,0,-0.02206558,363.7358,269.96249)"
       style="stroke-width:2.64145732">
      <path
         d="m 16142.8,2170.46 c 4.5,0 9,2.12 11.7,6.12 22.5,32.07 75.5,56.3 125.4,41.29 7.6,-2.26 15.5,1.99 17.8,9.53 2.3,7.6 -2,15.52 -9.6,17.84 -60.1,31.37 -204.7,-52.95 -145.3,-74.78"
         style="fill:#fde7d3;fill-opacity:1;fill-rule:nonzero;stroke:none;stroke-width:2.64145732"
         id="path9227"
         inkscape:connector-curvature="0" />
    </g>
    <g
       id="g9229"
       transform="matrix(-0.01835194,0,0,-0.02078717,363.7358,269.96249)"
       style="stroke-width:2.64145732">
      <path
         d="m 16097.9,2853.97 c 0,0 -7.1,-282.95 -15.7,-436.73 101.6,-26.05 165.6,-116.18 165.6,-116.18 l 52.2,467.51 -202.1,85.4"
         style="fill:#fabd99;fill-opacity:1;fill-rule:nonzero;stroke:none;stroke-width:2.64145732"
         id="path9231"
         inkscape:connector-curvature="0" />
    </g>
    <g
       id="g9233"
       transform="matrix(-0.01844931,0,0,-0.02089747,363.7358,269.96249)"
       style="stroke-width:2.64145732">
      <path
         d="m 16191.2,2355.64 c 108.8,-150.66 -273.6,-413.88 -445,-330.22 -131.1,40.2 -71.1,176.57 -71.1,176.57 l 516.1,153.65"
         style="fill:#fde7d3;fill-opacity:1;fill-rule:nonzero;stroke:none;stroke-width:2.64145732"
         id="path9235"
         inkscape:connector-curvature="0" />
    </g>
    <g
       id="g9237"
       transform="matrix(-0.01836298,0,0,-0.02079968,363.7358,269.96249)"
       style="stroke-width:2.64145732">
      <path
         d="m 16265.2,2525.55 c 13,-33.35 34.8,-114.53 -1.8,-182.87 -147.6,-175.15 -253.4,-274.65 -440.4,-223.53 -146.6,40.11 -48.9,164.55 28.3,213.89 77.1,49.41 224.4,186.7 224.4,186.7 0,0 57.3,-58.15 189.5,5.81"
         style="fill:#071216;fill-opacity:1;fill-rule:nonzero;stroke:none;stroke-width:2.64145732"
         id="path9239"
         inkscape:connector-curvature="0" />
    </g>
    <g
       id="g9241"
       transform="matrix(-0.01841343,0,0,-0.02085682,363.7358,269.96249)"
       style="stroke-width:2.64145732">
      <path
         d="m 16031.6,2512.83 c -96,114.83 268.4,96.71 139.4,-13.49 -21.9,-22.49 -113.2,-17.65 -139.4,13.49"
         style="fill:#071216;fill-opacity:1;fill-rule:nonzero;stroke:none;stroke-width:2.64145732"
         id="path9243"
         inkscape:connector-curvature="0" />
    </g>
    <g
       id="g9245"
       transform="matrix(-0.0181253,0,0,-0.02053047,363.7358,269.96249)"
       style="stroke-width:2.64145732">
      <path
         d="m 16043.9,2353.11 c -274.6,-206.32 111.7,-290.02 256.1,-167.54 -0.3,113.88 -140.6,165.05 -256.1,167.54"
         style="fill:#f4f1f0;fill-opacity:1;fill-rule:nonzero;stroke:none;stroke-width:2.64145732"
         id="path9247"
         inkscape:connector-curvature="0" />
    </g>
    <g
       id="g9249"
       transform="matrix(-0.01826736,0,0,-0.02069138,363.7358,269.96249)"
       style="stroke-width:2.64145732">
      <path
         d="m 16236.7,2415.6 c -4.8,0 -9.6,2.26 -12.5,6.46 -23.9,34.27 -80.5,60.03 -133.7,44.1 -8.1,-2.41 -16.6,2.13 -19,10.17 -2.5,8.03 2.1,16.55 10.2,18.96 64.1,33.45 218.3,-56.47 155,-79.69"
         style="fill:#fde7d3;fill-opacity:1;fill-rule:nonzero;stroke:none;stroke-width:2.64145732"
         id="path9251"
         inkscape:connector-curvature="0" />
    </g>
    <g
       id="g9253"
       transform="matrix(-0.01820236,0,0,-0.02061775,363.7358,269.96249)"
       style="stroke-width:2.64145732">
      <path
         d="m 16236.4,2373.54 c -4.9,0 -9.5,2.27 -12.6,6.55 -23.9,34.33 -80.6,60.25 -134.1,44.19 -8.1,-2.41 -16.6,2.14 -19.1,10.2 -2.4,8.07 2.2,16.62 10.3,19.03 64.3,33.64 219.1,-56.67 155.5,-79.97"
         style="fill:#fde7d3;fill-opacity:1;fill-rule:nonzero;stroke:none;stroke-width:2.64145732"
         id="path9255"
         inkscape:connector-curvature="0" />
    </g>
    <g
       id="g9257"
       transform="matrix(-0.01813748,0,0,-0.02054425,363.7358,269.96249)"
       style="stroke-width:2.64145732">
      <path
         d="m 16236.1,2331.18 c -4.8,0 -9.6,2.28 -12.6,6.58 -24,34.45 -80.9,60.46 -134.6,44.34 -8.1,-2.42 -16.7,2.15 -19.1,10.24 -2.4,8.17 2.2,16.68 10.3,19.17 64.6,33.69 219.9,-56.87 156,-80.33"
         style="fill:#fde7d3;fill-opacity:1;fill-rule:nonzero;stroke:none;stroke-width:2.64145732"
         id="path9259"
         inkscape:connector-curvature="0" />
    </g>
    <g
       id="g9261"
       transform="matrix(-0.01971598,0,0,-0.02233223,363.7358,269.96249)"
       style="stroke-width:2.64145732">
      <path
         d="m 15448.8,4369.85 c -1.3,0.31 -317,0.82 -593.6,59.57 2.2,-459.92 -287.4,-1359.32 -319.3,-1906.37 164.4,-104 606.8,-64.16 695.2,-23.87 134.2,2082.17 310.7,2086.62 351.5,-15.27 124.3,-45.7 559.7,-74.34 699.9,17.88 17.5,565.26 -242.3,1467.71 -240.1,1927.63 -276.7,-58.75 -592.4,-59.26 -593.6,-59.57"
         style="fill:#44c0bd;fill-opacity:1;fill-rule:nonzero;stroke:none;stroke-width:2.64145732"
         id="path9263"
         inkscape:connector-curvature="0" />
    </g>
    <g
       id="g9265"
       transform="matrix(-0.0194162,0,0,-0.02199266,363.7358,269.96249)"
       style="stroke-width:2.64145732">
      <path
         d="m 16269,4027.37 c -117,-14.41 -227.6,85.63 -226.1,203.26 -0.5,30.76 47.3,30.76 47.8,0 -1,-92.55 86.9,-168.62 178.3,-155.5 30.8,0.65 31,-47.57 0,-47.76"
         style="fill:#071216;fill-opacity:1;fill-rule:nonzero;stroke:none;stroke-width:2.64145732"
         id="path9267"
         inkscape:connector-curvature="0" />
    </g>
    <g
       id="g9269"
       transform="matrix(-0.01827188,0,0,-0.02069649,363.7358,269.96249)"
       style="stroke-width:2.64145732">
      <path
         d="m 16291.4,4494.07 c -27.6,-101.57 -130.3,-176.36 -235.8,-169.29 -13.6,0.89 -25.3,10.99 -25.3,25.34 0,13.05 11.6,26.31 25.3,25.42 83.1,-5.57 164.9,50.88 186.8,132.06 8.6,31.46 57.6,18.06 49,-13.53 v 0"
         style="fill:#071216;fill-opacity:1;fill-rule:nonzero;stroke:none;stroke-width:2.64145732"
         id="path9271"
         inkscape:connector-curvature="0" />
    </g>
    <g
       id="g9273"
       transform="matrix(-0.01960707,0,0,-0.02220885,363.7358,269.96249)"
       style="stroke-width:2.64145732">
      <path
         d="m 16287.5,2542.26 c -54.3,579.53 -120.8,840.92 -194.1,1418.91 88,-402.25 116.9,-619.59 172,-1062.74 11.9,-118.27 23.3,-236.68 33.9,-355.14 0.7,-7.56 -11.1,-8.64 -11.8,-1.03 v 0"
         style="fill:#071216;fill-opacity:1;fill-rule:nonzero;stroke:none;stroke-width:2.64145732"
         id="path9275"
         inkscape:connector-curvature="0" />
    </g>
    <g
       id="g9277"
       transform="matrix(-0.01801199,0,0,-0.02040212,363.7358,269.96249)"
       style="stroke-width:2.64145732">
      <path
         d="m 16001.7,2795.18 c 83.2,645.35 180.4,944.37 284.2,1587.27 1.4,8.15 14.1,6.55 12.8,-1.6 -36.9,-228.59 -73,-457.24 -107.7,-686.17 -58.4,-397.95 -126.3,-504.4 -176.5,-901.1 -1,-8.22 -13.8,-6.62 -12.8,1.6 v 0"
         style="fill:#071216;fill-opacity:1;fill-rule:nonzero;stroke:none;stroke-width:2.64145732"
         id="path9279"
         inkscape:connector-curvature="0" />
    </g>
    <g
       id="g9281"
       transform="matrix(-0.01907487,0,0,-0.02160604,363.7358,269.96249)"
       style="stroke-width:2.64145732">
      <path
         d="m 16300,6004.55 c 0,0 -126,15.42 -217.4,23.67 -8.5,95.47 0,230.23 0,230.23 l -233.4,18.32 c 0,0 -1.9,-184.33 0,-247.01 -95.8,-19.7 -214.9,-30.38 -262.1,-36.02 104.3,-303.38 688.8,-360.48 712.9,10.81"
         style="fill:#fabd99;fill-opacity:1;fill-rule:nonzero;stroke:none;stroke-width:2.64145732"
         id="path9283"
         inkscape:connector-curvature="0" />
    </g>
    <g
       id="g9285"
       transform="matrix(-0.01880143,0,0,-0.02129633,363.7358,269.96249)"
       style="stroke-width:2.64145732">
      <path
         d="m 16299.9,6196.06 0.1,-74.64 c 0,0 -113.1,58.42 -205.6,0 2.9,43.92 2.9,84.91 2.9,84.91 l 202.6,-10.27"
         style="fill:#efa378;fill-opacity:1;fill-rule:nonzero;stroke:none;stroke-width:2.64145732"
         id="path9287"
         inkscape:connector-curvature="0" />
    </g>
    <g
       id="g9289"
       transform="matrix(-0.01945221,0,0,-0.02203345,363.7358,269.96249)"
       style="stroke-width:2.64145732">
      <path
         d="m 16259.9,4544.77 c 0,0 40.1,-228.24 12.4,-247.08 -108.2,-41.09 -886.5,-97.6 -1237.9,0 -12.9,69.87 8.9,227.27 8.9,227.27 l 1216.6,19.81"
         style="fill:#f25035;fill-opacity:1;fill-rule:nonzero;stroke:none;stroke-width:2.64145732"
         id="path9291"
         inkscape:connector-curvature="0" />
    </g>
    <g
       id="g9293"
       transform="matrix(-0.01957418,0,0,-0.02217161,363.7358,269.96249)"
       style="stroke-width:2.64145732">
      <path
         d="m 14928.2,4463.95 c -155.8,289.77 67.7,1170.3 103,1343.34 35.3,11.5 200.5,52.92 240.6,52.2 77.5,-281.85 495.8,-281.85 573.3,0 40.1,0.72 205.3,-40.7 240.7,-52.2 21.2,-146.11 214.2,-1076.59 71.7,-1343.34 -170.5,-69.24 -913.5,-90.4 -1229.3,0"
         style="fill:#f68987;fill-opacity:1;fill-rule:nonzero;stroke:none;stroke-width:2.64145732"
         id="path9295"
         inkscape:connector-curvature="0" />
    </g>
    <g
       id="g9297"
       transform="matrix(-0.01909394,0,0,-0.02162764,363.7358,269.96249)"
       style="stroke-width:2.64145732">
      <path
         d="m 15753.5,6018.14 c -33.8,-203.34 414.2,-212.21 404.3,0 36.2,1.15 110.7,-5.9 110.7,-5.9 31.5,-292.47 -664.7,-336.31 -632,0 l 117,5.9"
         style="fill:#f25035;fill-opacity:1;fill-rule:nonzero;stroke:none;stroke-width:2.64145732"
         id="path9299"
         inkscape:connector-curvature="0" />
    </g>
    <g
       id="g9301"
       transform="matrix(-0.01827427,0,0,-0.02069919,363.7358,269.96249)"
       style="stroke-width:2.64145732">
      <path
         d="m 16250.8,5410.63 c -49.1,56.72 -188.7,-30.9 -94.9,-120.24 93.8,-89.34 144.1,63.52 94.9,120.24"
         style="fill:#fde7d3;fill-opacity:1;fill-rule:nonzero;stroke:none;stroke-width:2.64145732"
         id="path9303"
         inkscape:connector-curvature="0" />
    </g>
    <g
       id="g9305"
       transform="matrix(-0.01922533,0,0,-0.02177647,363.7358,269.96249)"
       style="stroke-width:2.64145732">
      <path
         d="m 16253.3,5355.57 c -46.8,53.92 -179.4,-29.43 -90.3,-114.35 89.2,-84.86 137,60.37 90.3,114.35"
         style="fill:#fde7d3;fill-opacity:1;fill-rule:nonzero;stroke:none;stroke-width:2.64145732"
         id="path9307"
         inkscape:connector-curvature="0" />
    </g>
    <g
       id="g9309"
       transform="matrix(-0.01904851,0,0,-0.02157619,363.7358,269.96249)"
       style="stroke-width:2.64145732">
      <path
         d="m 16260.4,5090.53 c -97.1,4.21 -140.9,-135.05 -74.2,-167.73 66.6,-32.67 113.8,166.08 74.2,167.73"
         style="fill:#fde7d3;fill-opacity:1;fill-rule:nonzero;stroke:none;stroke-width:2.64145732"
         id="path9311"
         inkscape:connector-curvature="0" />
    </g>
    <g
       id="g9313"
       transform="matrix(-0.01942247,0,0,-0.02199976,363.7358,269.96249)"
       style="stroke-width:2.64145732">
      <path
         d="m 16274.8,4728.51 c -55.7,10.72 -78.4,-36.76 -26.6,-91.81 51.8,-54.98 26.6,91.81 26.6,91.81"
         style="fill:#fde7d3;fill-opacity:1;fill-rule:nonzero;stroke:none;stroke-width:2.64145732"
         id="path9315"
         inkscape:connector-curvature="0" />
    </g>
    <g
       id="g9317"
       transform="matrix(-0.01870444,0,0,-0.02118645,363.7358,269.96249)"
       style="stroke-width:2.64145732">
      <path
         d="m 16244.6,4856.7 c -55.4,-3.16 -112.1,-101.58 -54.9,-128.28 57.2,-26.63 110.3,131.5 54.9,128.28"
         style="fill:#fde7d3;fill-opacity:1;fill-rule:nonzero;stroke:none;stroke-width:2.64145732"
         id="path9319"
         inkscape:connector-curvature="0" />
    </g>
    <g
       id="g9321"
       transform="matrix(-0.019044,0,0,-0.02157107,363.7358,269.96249)"
       style="stroke-width:2.64145732">
      <path
         d="m 16245.5,5783.54 c -54.4,-3.1 -110.1,-99.77 -53.9,-125.99 56.2,-26.23 108.4,129.08 53.9,125.99"
         style="fill:#fde7d3;fill-opacity:1;fill-rule:nonzero;stroke:none;stroke-width:2.64145732"
         id="path9323"
         inkscape:connector-curvature="0" />
    </g>
    <g
       id="g9325"
       transform="matrix(-0.01843577,0,0,-0.02088213,363.7358,269.96249)"
       style="stroke-width:2.64145732">
      <path
         d="m 16235.3,5604.73 c -76.6,85.49 -105.2,-37.64 -81.8,-89.51 23.4,-51.87 146.5,17.29 81.8,89.51"
         style="fill:#fde7d3;fill-opacity:1;fill-rule:nonzero;stroke:none;stroke-width:2.64145732"
         id="path9327"
         inkscape:connector-curvature="0" />
    </g>
    <g
       id="g9329"
       transform="matrix(-0.01847291,0,0,-0.0209242,363.7358,269.96249)"
       style="stroke-width:2.64145732">
      <path
         d="m 16248.5,5912.49 c -12.8,-22.14 -53,-66.5 -10.5,-104 42.7,-37.49 62,192.99 10.5,104"
         style="fill:#fde7d3;fill-opacity:1;fill-rule:nonzero;stroke:none;stroke-width:2.64145732"
         id="path9331"
         inkscape:connector-curvature="0" />
    </g>
    <g
       id="g9333"
       transform="matrix(-0.01862612,0,0,-0.02109775,363.7358,269.96249)"
       style="stroke-width:2.64145732">
      <path
         d="m 16221.7,5275.55 c -78.3,42.11 -151.4,-49.92 -71.8,-76.94 79.7,-27.02 150.1,34.83 71.8,76.94"
         style="fill:#fde7d3;fill-opacity:1;fill-rule:nonzero;stroke:none;stroke-width:2.64145732"
         id="path9335"
         inkscape:connector-curvature="0" />
    </g>
    <g
       id="g9337"
       transform="matrix(-0.018818,0,0,-0.02131508,363.7358,269.96249)"
       style="stroke-width:2.64145732">
      <path
         d="m 16215.4,5642.68 c -50,14.2 -130.7,-158.38 -23,-169.51 107.6,-11.14 73,155.24 23,169.51"
         style="fill:#fde7d3;fill-opacity:1;fill-rule:nonzero;stroke:none;stroke-width:2.64145732"
         id="path9339"
         inkscape:connector-curvature="0" />
    </g>
    <g
       id="g9341"
       transform="matrix(-0.01938494,0,0,-0.02195726,363.7358,269.96249)"
       style="stroke-width:2.64145732">
      <path
         d="m 16237.8,4996.01 c -62.2,36.77 -112,-20.78 -46.2,-66.55 65.9,-45.77 108.4,29.84 46.2,66.55"
         style="fill:#fde7d3;fill-opacity:1;fill-rule:nonzero;stroke:none;stroke-width:2.64145732"
         id="path9343"
         inkscape:connector-curvature="0" />
    </g>
    <g
       id="g9345"
       transform="matrix(-0.01907023,0,0,-0.02160078,363.7358,269.96249)"
       style="stroke-width:2.64145732">
      <path
         d="m 16261.9,4701.76 c -19.9,35.47 -88,-34.48 -31.1,-66.99 56.8,-32.44 69.2,-1.05 31.1,66.99"
         style="fill:#fde7d3;fill-opacity:1;fill-rule:nonzero;stroke:none;stroke-width:2.64145732"
         id="path9347"
         inkscape:connector-curvature="0" />
    </g>
    <g
       id="g9349"
       transform="matrix(-0.02007299,0,0,-0.02273661,363.7358,269.96249)"
       style="stroke-width:2.64145732">
      <path
         d="m 15589.7,5688.39 c 196.6,-35.3 272.3,-86.49 381.1,-350.18 130.3,-307.14 329.2,-1317.21 -146.7,-1139.85 -24.3,763.69 -234.4,1490.03 -234.4,1490.03"
         style="fill:#f68987;fill-opacity:1;fill-rule:nonzero;stroke:none;stroke-width:2.64145732"
         id="path9351"
         inkscape:connector-curvature="0" />
    </g>
    <g
       id="g9353"
       transform="matrix(-0.0197781,0,0,-0.02240259,363.7358,269.96249)"
       style="stroke-width:2.64145732">
      <path
         d="m 16254.6,4510.31 c -45.5,52.41 -174.4,-28.61 -87.8,-111.09 86.7,-82.55 133.2,58.69 87.8,111.09"
         style="fill:#fde7d3;fill-opacity:1;fill-rule:nonzero;stroke:none;stroke-width:2.64145732"
         id="path9355"
         inkscape:connector-curvature="0" />
    </g>
    <g
       id="g9357"
       transform="matrix(-0.01976266,0,0,-0.0223851,363.7358,269.96249)"
       style="stroke-width:2.64145732">
      <path
         d="m 16261.8,5155.94 c -93.6,4.06 -135.8,-130.17 -71.5,-161.67 64.2,-31.5 109.7,160.01 71.5,161.67"
         style="fill:#fde7d3;fill-opacity:1;fill-rule:nonzero;stroke:none;stroke-width:2.64145732"
         id="path9359"
         inkscape:connector-curvature="0" />
    </g>
    <g
       id="g9361"
       transform="matrix(-0.01974849,0,0,-0.02236904,363.7358,269.96249)"
       style="stroke-width:2.64145732">
      <path
         d="m 16226.2,4786.68 c -73.8,39.71 -142.9,-47.08 -67.7,-72.57 75.1,-25.48 141.5,32.79 67.7,72.57"
         style="fill:#fde7d3;fill-opacity:1;fill-rule:nonzero;stroke:none;stroke-width:2.64145732"
         id="path9363"
         inkscape:connector-curvature="0" />
    </g>
    <g
       id="g9365"
       transform="matrix(-0.01965186,0,0,-0.02225959,363.7358,269.96249)"
       style="stroke-width:2.64145732">
      <path
         d="m 16219,5537.14 c -47.9,13.6 -125.1,-151.65 -22.1,-162.32 103.1,-10.66 70,148.66 22.1,162.32"
         style="fill:#fde7d3;fill-opacity:1;fill-rule:nonzero;stroke:none;stroke-width:2.64145732"
         id="path9367"
         inkscape:connector-curvature="0" />
    </g>
    <g
       id="g9369"
       transform="matrix(-0.01944054,0,0,-0.02202023,363.7358,269.96249)"
       style="stroke-width:2.64145732">
      <path
         d="m 16290.7,5788.68 c 9.3,-36.92 0.5,-311.13 -17.6,-376.78 -13.1,-47.89 -232.1,-48.92 -253.4,47.19 -29,130.65 -45.9,347.21 -49.9,435.44 5.3,43.4 302.1,-14.82 320.9,-105.85"
         style="fill:#071216;fill-opacity:1;fill-rule:nonzero;stroke:none;stroke-width:2.64145732"
         id="path9371"
         inkscape:connector-curvature="0" />
    </g>
    <g
       id="g9373"
       transform="matrix(-0.01943113,0,0,-0.02200957,363.7358,269.96249)"
       style="stroke-width:2.64145732">
      <path
         d="m 16210,5868.16 c 28.5,-151.62 90,-970.63 90,-970.63 0,0 -217.3,533.82 -224.8,1009.59 17.9,32.55 120.6,6.71 134.8,-38.96"
         style="fill:#f25035;fill-opacity:1;fill-rule:nonzero;stroke:none;stroke-width:2.64145732"
         id="path9375"
         inkscape:connector-curvature="0" />
    </g>
    <g
       id="g9377"
       transform="matrix(-0.01853465,0,0,-0.02099413,363.7358,269.96249)"
       style="stroke-width:2.64145732">
      <path
         d="m 16119.2,4349.81 c -10,1.49 -788.5,187 -787.2,196.82 l 87.9,653.49 c 1.3,9.74 10.5,16.45 20.6,14.89 l 842.4,-128.98 c 10,-1.55 17.1,-10.69 15.7,-20.51 l -84.3,-627.28 c -1.8,-43.61 -68.9,-65.41 -95.1,-88.43"
         style="fill:#071216;fill-opacity:1;fill-rule:nonzero;stroke:none;stroke-width:2.64145732"
         id="path9379"
         inkscape:connector-curvature="0" />
    </g>
    <g
       id="g9381"
       transform="matrix(-0.01850152,0,0,-0.02095661,363.7358,269.96249)"
       style="stroke-width:2.64145732">
      <path
         d="m 16144.2,4388.39 c -10,1.56 -798.2,174.99 -796.9,184.82 l 31.7,542.34 c 1.3,9.83 60.8,83.29 70.9,81.8 l 832.9,-127.59 c 10.1,-1.55 17.2,-10.71 15.9,-20.55 l -80,-594.49 c -2.2,-16.07 -7.1,-20.68 -22.5,-29.57 l -52,-36.76"
         style="fill:#f4ede3;fill-opacity:1;fill-rule:nonzero;stroke:none;stroke-width:2.64145732"
         id="path9383"
         inkscape:connector-curvature="0" />
    </g>
    <g
       id="g9385"
       transform="matrix(-0.01842936,0,0,-0.02087487,363.7358,269.96249)"
       style="stroke-width:2.64145732">
      <path
         d="m 15348.5,4499.19 c -10.1,1.57 -17.2,10.76 -15.9,20.63 l 82.3,611.53 c 1.3,9.81 10.6,16.55 20.7,15.05 l 847.2,-129.78 c 10.1,-1.5 17.2,-10.76 15.8,-20.64 l -82.2,-611.46 c -1.3,-9.87 -10.6,-16.61 -20.6,-15.04 l -847.3,129.71"
         style="fill:#071216;fill-opacity:1;fill-rule:nonzero;stroke:none;stroke-width:2.64145732"
         id="path9387"
         inkscape:connector-curvature="0" />
    </g>
    <g
       id="g9389"
       transform="matrix(-0.0182912,0,0,-0.02071838,363.7358,269.96249)"
       style="stroke-width:2.64145732">
      <path
         d="m 16209.9,4346.83 c -10.3,0.28 -816.5,88.43 -816.3,98.45 l 5.8,668.08 c 0.1,10.02 8.5,17.9 18.8,17.63 l 863.2,-23.33 c 10.3,-0.2 18.6,-8.57 18.5,-18.59 l -5.6,-641.32 c 3.8,-44.04 -60.9,-74.51 -84.4,-100.92"
         style="fill:#f9a939;fill-opacity:1;fill-rule:nonzero;stroke:none;stroke-width:2.64145732"
         id="path9391"
         inkscape:connector-curvature="0" />
    </g>
    <g
       id="g9393"
       transform="matrix(-0.01826196,0,0,-0.02068526,363.7358,269.96249)"
       style="stroke-width:2.64145732">
      <path
         d="m 16228.1,4384.24 c -10.3,0.27 -824.4,75.17 -824.4,85.2 l -36.6,549.1 c 0,10.04 50.6,91.47 60.9,91.19 l 853.4,-23.02 c 10.4,-0.27 18.6,-8.66 18.5,-18.69 l -5.3,-607.72 c -0.2,-16.42 -4.5,-21.64 -18.9,-32.5 l -47.6,-43.56"
         style="fill:#f4ede3;fill-opacity:1;fill-rule:nonzero;stroke:none;stroke-width:2.64145732"
         id="path9395"
         inkscape:connector-curvature="0" />
    </g>
    <g
       id="g9397"
       transform="matrix(-0.01820072,0,0,-0.0206159,363.7358,269.96249)"
       style="stroke-width:2.64145732">
      <path
         d="m 15408,4384.73 c -10.3,0.27 -18.6,8.61 -18.5,18.68 l 5.4,624.79 c 0.1,10 8.6,17.93 18.9,17.65 l 867.5,-23.37 c 10.4,-0.28 18.7,-8.69 18.6,-18.75 l -5.5,-624.73 c -0.1,-10.06 -8.5,-17.99 -18.8,-17.72 l -867.6,23.45"
         style="fill:#f9a939;fill-opacity:1;fill-rule:nonzero;stroke:none;stroke-width:2.64145732"
         id="path9399"
         inkscape:connector-curvature="0" />
    </g>
    <g
       id="g9401"
       transform="matrix(-0.01798163,0,0,-0.02036772,363.7358,269.96249)"
       style="stroke-width:2.64145732">
      <path
         d="m 16160.1,4701.58 c 28.4,-73.49 139.9,-170 107.7,-197.85 -21.5,-18.42 -51.3,34.34 -101.7,24.43 -17.6,-3.49 -16.2,-33.08 -5.8,-59.39 17.4,-40.62 42.7,-41.66 46,-47.11 -12.4,-39.98 -74.7,-26.03 -76.9,-13.26 2.1,-25.4 -33.6,-22.4 -55.4,6.01 -12.8,-17.03 -53.4,-6.22 -71.1,38.17 -52.4,131.62 16.7,243.62 16.7,243.62 0,0 108.8,4.47 140.5,5.38"
         style="fill:#fabd99;fill-opacity:1;fill-rule:nonzero;stroke:none;stroke-width:2.64145732"
         id="path9403"
         inkscape:connector-curvature="0" />
    </g>
    <g
       id="g9405"
       transform="matrix(-0.018145,0,0,-0.02055278,363.7358,269.96249)"
       style="stroke-width:2.64145732">
      <path
         d="m 16300,6287.55 c -575.9,-73.91 -627.3,-1354.64 -471,-1628.3 36.1,-32.02 147.3,-27.94 240,0 27,844.83 231,1628.3 231,1628.3"
         style="fill:#f68987;fill-opacity:1;fill-rule:nonzero;stroke:none;stroke-width:2.64145732"
         id="path9407"
         inkscape:connector-curvature="0" />
    </g>
    <g
       id="g9409"
       transform="matrix(-0.01789793,0,0,-0.02027292,363.7358,269.96249)"
       style="stroke-width:2.64145732">
      <path
         d="m 16249.9,5457.8 c -50.2,57.99 -192.7,-31.55 -97,-122.77 95.8,-91.21 147.1,64.86 97,122.77"
         style="fill:#fde7d3;fill-opacity:1;fill-rule:nonzero;stroke:none;stroke-width:2.64145732"
         id="path9411"
         inkscape:connector-curvature="0" />
    </g>
    <g
       id="g9413"
       transform="matrix(-0.01786442,0,0,-0.02023496,363.7358,269.96249)"
       style="stroke-width:2.64145732">
      <path
         d="m 16257.8,5905.68 c -103.6,4.43 -150.3,-144 -79.2,-178.84 71.1,-34.84 121.4,177.01 79.2,178.84"
         style="fill:#fde7d3;fill-opacity:1;fill-rule:nonzero;stroke:none;stroke-width:2.64145732"
         id="path9415"
         inkscape:connector-curvature="0" />
    </g>
    <g
       id="g9417"
       transform="matrix(-0.01783154,0,0,-0.02019773,363.7358,269.96249)"
       style="stroke-width:2.64145732">
      <path
         d="m 16218.2,4955.38 c -81.7,44.05 -158.2,-52.15 -74.9,-80.37 83.2,-28.22 156.7,36.38 74.9,80.37"
         style="fill:#fde7d3;fill-opacity:1;fill-rule:nonzero;stroke:none;stroke-width:2.64145732"
         id="path9419"
         inkscape:connector-curvature="0" />
    </g>
    <g
       id="g9421"
       transform="matrix(-0.0180667,0,0,-0.02046409,363.7358,269.96249)"
       style="stroke-width:2.64145732">
      <path
         d="m 16211.9,6161.97 c -52.1,14.86 -136.1,-164.96 -24,-176.56 112.1,-11.6 76.1,161.77 24,176.56"
         style="fill:#fde7d3;fill-opacity:1;fill-rule:nonzero;stroke:none;stroke-width:2.64145732"
         id="path9423"
         inkscape:connector-curvature="0" />
    </g>
    <g
       id="g9425"
       transform="matrix(-0.01832923,0,0,-0.02076145,363.7358,269.96249)"
       style="stroke-width:2.64145732">
      <path
         d="m 15959.7,6139.65 c -10,-39.16 -0.6,-330 18.6,-399.62 13.9,-50.8 246.1,-51.9 268.7,50.04 30.8,138.57 48.8,368.27 53,461.85 -5.7,46.03 -320.4,-15.73 -340.3,-112.27"
         style="fill:#071216;fill-opacity:1;fill-rule:nonzero;stroke:none;stroke-width:2.64145732"
         id="path9427"
         inkscape:connector-curvature="0" />
    </g>
    <g
       id="g9429"
       transform="matrix(-0.01821264,0,0,-0.0206294,363.7358,269.96249)"
       style="stroke-width:2.64145732">
      <path
         d="m 16156.1,6260.77 c -30.3,-161.76 -98.4,-962.32 -98.4,-962.32 0,0 234.3,496.29 242.3,1003.9 -19.2,34.73 -128.6,7.15 -143.9,-41.58"
         style="fill:#f25035;fill-opacity:1;fill-rule:nonzero;stroke:none;stroke-width:2.64145732"
         id="path9431"
         inkscape:connector-curvature="0" />
    </g>
    <g
       id="g9433"
       transform="matrix(-0.02137091,0,0,-0.02420676,363.7358,269.96249)"
       style="stroke-width:2.64145732">
      <path
         d="m 13205.2,8356.72 c 545.5,694.47 1698.5,735.74 2320.1,86.48 381,-397.97 247.2,-795.59 247.2,-795.59 0,0 527.5,116.75 479.9,-628.62 -12.1,-189.48 -224.7,-1273.62 -1442,-1370.56 0,0 -204.1,824.91 -659,988.15 -475,89.71 -1212.1,145.68 -1212.1,145.68 -108.9,703.82 60.5,1313.04 265.9,1574.46"
         style="fill:#fde7d3;fill-opacity:1;fill-rule:nonzero;stroke:none;stroke-width:2.64145732"
         id="path9435"
         inkscape:connector-curvature="0" />
    </g>
    <g
       id="g9437"
       transform="matrix(-0.02035584,0,0,-0.02305699,363.7358,269.96249)"
       style="stroke-width:2.64145732">
      <path
         d="m 16184,6802.6 c -116.2,-745.71 -775.4,-1151.53 -1493.4,-1039.73 -718,111.78 -1222.8,698.78 -1106.6,1444.58 116,745.67 787.9,1232.7 1506,1120.9 718.1,-111.77 1210,-780.1 1094,-1525.75"
         style="fill:#fabd99;fill-opacity:1;fill-rule:nonzero;stroke:none;stroke-width:2.64145732"
         id="path9439"
         inkscape:connector-curvature="0" />
    </g>
    <g
       id="g9441"
       transform="matrix(-0.02035584,0,0,-0.02305699,363.7358,269.96249)"
       style="stroke-width:2.64145732">
      <path
         d="m 16184,6802.6 c -116.2,-745.71 -775.4,-1151.53 -1493.4,-1039.73 -718,111.78 -1222.8,698.78 -1106.6,1444.58 116,745.67 787.9,1232.7 1506,1120.9 718.1,-111.77 1210,-780.1 1094,-1525.75"
         style="fill:#fabd99;fill-opacity:1;fill-rule:nonzero;stroke:none;stroke-width:2.64145732"
         id="path9443"
         inkscape:connector-curvature="0" />
    </g>
    <g
       id="g9445"
       transform="matrix(-0.02073143,0,0,-0.02348242,363.7358,269.96249)"
       style="stroke-width:2.64145732">
      <path
         d="m 15838.9,6681.75 c 0,0 40.4,146.05 223.8,144.01 193.5,-2.3 237.3,-262.18 115.9,-398.33 -121.4,-135.89 -334,-111.27 -385,14.04 l 45.3,240.28"
         style="fill:#fabd99;fill-opacity:1;fill-rule:nonzero;stroke:none;stroke-width:2.64145732"
         id="path9447"
         inkscape:connector-curvature="0" />
    </g>
    <g
       id="g9449"
       transform="matrix(-0.02048033,0,0,-0.023198,363.7358,269.96249)"
       style="stroke-width:2.64145732">
      <path
         d="m 16289,6838.67 c -123,37.13 -250.8,-171.87 -94,-306.95 -53.5,164.71 18.7,210.49 100,125.2 5,51.11 -22.5,86.96 -98.9,90.36 13.9,66.69 92.9,91.39 92.9,91.39"
         style="fill:#d37658;fill-opacity:1;fill-rule:nonzero;stroke:none;stroke-width:2.64145732"
         id="path9451"
         inkscape:connector-curvature="0" />
    </g>
    <g
       id="g9453"
       transform="matrix(-0.01872125,0,0,-0.02120548,363.7358,269.96249)"
       style="stroke-width:2.64145732">
      <path
         d="m 16261.4,7437.29 c -40.6,-23.77 -51.9,79.1 -139.4,84.1 -89.2,5.13 -105.2,-97.99 -146.2,-62.1 -33.4,29.26 17,153.15 163,140.14 121.8,-10.85 161.2,-139.56 122.6,-162.14"
         style="fill:#ee5b63;fill-opacity:1;fill-rule:nonzero;stroke:none;stroke-width:2.64145732"
         id="path9455"
         inkscape:connector-curvature="0" />
    </g>
    <g
       id="g9457"
       transform="matrix(-0.01782929,0,0,-0.02019516,363.7358,269.96249)"
       style="stroke-width:2.64145732">
      <path
         d="m 15495.5,7861.73 c 32.9,-380.86 214.5,-706.98 492.9,-937.85 23.7,10.8 46.5,23.85 68.3,39.36 210.5,149.84 243.3,465.12 73.2,704.1 -155.9,219.01 -428,297.95 -634.4,194.39"
         style="fill:#f79883;fill-opacity:1;fill-rule:nonzero;stroke:none;stroke-width:2.64145732"
         id="path9459"
         inkscape:connector-curvature="0" />
    </g>
    <g
       id="g9461"
       transform="matrix(-0.02010361,0,0,-0.02277129,363.7358,269.96249)"
       style="stroke-width:2.64145732">
      <path
         d="m 16300,6575.59 c -138.9,142.85 -382.2,161.64 -577,34.17 -217.8,-142.44 -292.6,-413.4 -167.1,-605.17 22.3,-34.03 49.4,-63.19 80.1,-87.49 295.2,120.8 534.5,346.94 664,658.49"
         style="fill:#f79883;fill-opacity:1;fill-rule:nonzero;stroke:none;stroke-width:2.64145732"
         id="path9463"
         inkscape:connector-curvature="0" />
    </g>
    <g
       id="g9465"
       transform="matrix(-0.01789328,0,0,-0.02026766,363.7358,269.96249)"
       style="stroke-width:2.64145732">
      <path
         d="m 16119.8,8721.49 c 155.4,36.83 180.2,-133.34 78.3,-129.4 -109.3,4.46 -202.4,-31.51 -215.5,-20.43 -29.3,24.52 49.7,129.21 137.2,149.83"
         style="fill:#fde7d3;fill-opacity:1;fill-rule:nonzero;stroke:none;stroke-width:2.64145732"
         id="path9467"
         inkscape:connector-curvature="0" />
    </g>
    <g
       id="g9469"
       transform="matrix(-0.01979429,0,0,-0.02242093,363.7358,269.96249)"
       style="stroke-width:2.64145732">
      <path
         d="m 16171.6,7634.63 c -132.5,57.25 -181.4,-90.31 -90.1,-102.85 98,-13.2 175.2,-59.9 188.7,-52.08 29.8,17.23 -24,122.81 -98.6,154.93"
         style="fill:#fde7d3;fill-opacity:1;fill-rule:nonzero;stroke:none;stroke-width:2.64145732"
         id="path9471"
         inkscape:connector-curvature="0" />
    </g>
    <g
       id="g9473"
       transform="matrix(-0.0192134,0,0,-0.02176296,363.7358,269.96249)"
       style="stroke-width:2.64145732">
      <path
         d="m 15100.6,7208.12 c -29,-414.61 176.1,-772.1 485.6,-820.69 309.5,-48.59 614.3,228.83 713.8,632.39 l -1199.4,188.3"
         style="fill:#4e1a1e;fill-opacity:1;fill-rule:nonzero;stroke:none;stroke-width:2.64145732"
         id="path9475"
         inkscape:connector-curvature="0" />
    </g>
    <g
       id="g9477"
       transform="matrix(-0.01884034,0,0,-0.02134038,363.7358,269.96249)"
       style="stroke-width:2.64145732">
      <path
         d="m 15545.1,6749.66 c 86.9,-126.89 207.5,-213.41 349.7,-235.75 142.4,-22.34 283.6,23.07 405.2,117.22 -97.6,59.1 -224.3,105.24 -366.7,127.6 -142.4,22.36 -277.2,17.28 -388.2,-9.07"
         style="fill:#ee5b63;fill-opacity:1;fill-rule:nonzero;stroke:none;stroke-width:2.64145732"
         id="path9479"
         inkscape:connector-curvature="0" />
    </g>
    <g
       id="g9481"
       transform="matrix(-0.01920726,0,0,-0.02175599,363.7358,269.96249)"
       style="stroke-width:2.64145732">
      <path
         d="m 15679.8,6953.16 c 298.4,-46.87 552.8,-40.07 620.2,69.77 l -1189.3,186.71 c 30.6,-125.22 270.6,-209.63 569.1,-256.48"
         style="fill:#fde7d3;fill-opacity:1;fill-rule:nonzero;stroke:none;stroke-width:2.64145732"
         id="path9483"
         inkscape:connector-curvature="0" />
    </g>
    <g
       id="g9485"
       transform="matrix(-0.01746424,0,0,-0.01978168,363.7358,269.96249)"
       style="stroke-width:2.64145732">
      <path
         d="m 16284.7,7822.14 c -15.3,-21.73 -45.3,-26.92 -67,-11.61 -21.8,15.32 -27,45.34 -11.7,67.06 15.3,21.73 45.4,26.92 67.1,11.6 21.7,-15.31 26.9,-45.33 11.6,-67.05"
         style="fill:#ee5b63;fill-opacity:1;fill-rule:nonzero;stroke:none;stroke-width:2.64145732"
         id="path9487"
         inkscape:connector-curvature="0" />
    </g>
    <g
       id="g9489"
       transform="matrix(-0.01759663,0,0,-0.01993164,363.7358,269.96249)"
       style="stroke-width:2.64145732">
      <path
         d="m 16284.8,7618.35 c -15.2,-21.55 -45,-26.7 -66.5,-11.51 -21.6,15.2 -26.8,45 -11.6,66.55 15.2,21.56 45,26.72 66.6,11.52 21.6,-15.2 26.7,-45 11.5,-66.56"
         style="fill:#ee5b63;fill-opacity:1;fill-rule:nonzero;stroke:none;stroke-width:2.64145732"
         id="path9491"
         inkscape:connector-curvature="0" />
    </g>
    <g
       id="g9493"
       transform="matrix(-0.01741881,0,0,-0.01973023,363.7358,269.96249)"
       style="stroke-width:2.64145732">
      <path
         d="m 16284.7,7688.86 c -15.4,-21.78 -45.5,-26.99 -67.3,-11.64 -21.7,15.35 -27,45.46 -11.6,67.24 15.4,21.77 45.4,26.98 67.3,11.62 21.7,-15.35 26.9,-45.45 11.6,-67.22"
         style="fill:#ee5b63;fill-opacity:1;fill-rule:nonzero;stroke:none;stroke-width:2.64145732"
         id="path9495"
         inkscape:connector-curvature="0" />
    </g>
    <g
       id="g9497"
       transform="matrix(-0.01959752,0,0,-0.02219805,363.7358,269.96249)"
       style="stroke-width:2.64145732">
      <path
         d="m 16268.5,6687.09 c -21.7,-9.52 -47,0.34 -56.5,22.02 -9.5,21.69 0.3,46.98 22,56.51 21.7,9.52 47,-0.33 56.5,-22.02 9.5,-21.68 -0.4,-46.98 -22,-56.51"
         style="fill:#ee5b63;fill-opacity:1;fill-rule:nonzero;stroke:none;stroke-width:2.64145732"
         id="path9499"
         inkscape:connector-curvature="0" />
    </g>
    <g
       id="g9501"
       transform="matrix(-0.01962978,0,0,-0.02223459,363.7358,269.96249)"
       style="stroke-width:2.64145732">
      <path
         d="m 16268.5,6518.14 c -21.6,-9.51 -46.9,0.33 -56.4,21.99 -9.5,21.65 0.3,46.9 22,56.41 21.6,9.51 46.9,-0.33 56.4,-21.98 9.5,-21.65 -0.3,-46.91 -22,-56.42"
         style="fill:#ee5b63;fill-opacity:1;fill-rule:nonzero;stroke:none;stroke-width:2.64145732"
         id="path9503"
         inkscape:connector-curvature="0" />
    </g>
    <g
       id="g9505"
       transform="matrix(-0.01946037,0,0,-0.02204269,363.7358,269.96249)"
       style="stroke-width:2.64145732">
      <path
         d="m 16268.2,6636.58 c -21.8,-9.59 -47.3,0.34 -56.9,22.18 -9.6,21.84 0.4,47.31 22.2,56.9 21.8,9.59 47.3,-0.33 56.9,-22.17 9.6,-21.84 -0.3,-47.31 -22.2,-56.91"
         style="fill:#ee5b63;fill-opacity:1;fill-rule:nonzero;stroke:none;stroke-width:2.64145732"
         id="path9507"
         inkscape:connector-curvature="0" />
    </g>
    <g
       id="g9509"
       transform="matrix(-0.01975363,0,0,-0.02237487,363.7358,269.96249)"
       style="stroke-width:2.64145732">
      <path
         d="m 16039.4,7279.66 c -186.1,22.07 -293.3,-185.39 -292.1,-175.37 17.7,149.09 152.2,256.1 299.7,238.59 147.4,-17.54 253,-153.13 235.2,-302.2 -1.1,-10.04 -43.6,215.33 -242.8,238.98"
         style="fill:#071216;fill-opacity:1;fill-rule:nonzero;stroke:none;stroke-width:2.64145732"
         id="path9511"
         inkscape:connector-curvature="0" />
    </g>
    <g
       id="g9513"
       transform="matrix(-0.01801726,0,0,-0.02040808,363.7358,269.96249)"
       style="stroke-width:2.64145732">
      <path
         d="m 16014.3,8222.46 c -204.1,24.34 -321.7,-203.23 -320.3,-192.27 19.3,163.5 166.8,280.83 328.5,261.66 161.7,-19.23 277.5,-167.95 258,-331.34 -1.3,-11.04 -47.9,236.02 -266.2,261.95"
         style="fill:#071216;fill-opacity:1;fill-rule:nonzero;stroke:none;stroke-width:2.64145732"
         id="path9515"
         inkscape:connector-curvature="0" />
    </g>
    <g
       id="g9517"
       transform="matrix(-0.02059665,0,0,-0.02332976,363.7358,269.96249)"
       style="stroke-width:2.64145732">
      <path
         d="m 16073.4,7542.66 c 189.9,-354.97 226.6,-831.79 123.5,-742.64 -699.4,-64.56 -417.6,844.97 -417.6,844.97 0,0 -1102.9,-503.63 -1443.9,-177.6 -204.7,195.77 131.3,490.69 131.3,490.69 0,0 -815.2,-487.71 -972.1,-310.04 -244.7,277.23 1024.1,884.19 1735.8,615.52 582.6,-219.93 843,-720.9 843,-720.9"
         style="fill:#fde7d3;fill-opacity:1;fill-rule:nonzero;stroke:none;stroke-width:2.64145732"
         id="path9519"
         inkscape:connector-curvature="0" />
    </g>
    <g
       id="g9521"
       transform="matrix(-0.02118281,0,0,-0.02399369,363.7358,269.96249)"
       style="stroke-width:2.64145732">
      <path
         d="m 15318.6,6782.27 c -74.2,-340.1 68.7,-649.07 319.2,-690.14 250.5,-40.84 513.8,201.69 588,541.81 74.2,340.16 -68.6,649.12 -319.2,690.16 -250.5,40.81 -513.7,-201.59 -588,-541.83"
         style="fill:#44c0bd;fill-opacity:1;fill-rule:nonzero;stroke:none;stroke-width:2.64145732"
         id="path9523"
         inkscape:connector-curvature="0" />
    </g>
    <g
       id="g9525"
       transform="matrix(-0.0211857,0,0,-0.02399697,363.7358,269.96249)"
       style="stroke-width:2.64145732">
      <path
         d="m 15605.6,6725.68 c -66,-303.32 21.3,-572.44 194.7,-600.69 173.6,-28.34 367.7,194.87 433.7,498.44 66,303.39 -21.2,572.34 -194.7,600.7 -173.5,28.29 -367.7,-194.95 -433.7,-498.45"
         style="fill:#071216;fill-opacity:1;fill-rule:nonzero;stroke:none;stroke-width:2.64145732"
         id="path9527"
         inkscape:connector-curvature="0" />
    </g>
    <g
       id="g9529"
       transform="matrix(-0.02108029,0,0,-0.02387756,363.7358,269.96249)"
       style="stroke-width:2.64145732">
      <path
         d="m 15877.9,6719.32 c -40.6,-186.88 11.9,-352.09 117.3,-369.32 105.2,-17.06 223.7,120.38 264.3,307.14 40.5,186.74 -12,352.09 -117.3,369.3 -105.3,17.13 -223.5,-120.43 -264.3,-307.12"
         style="fill:#f9a939;fill-opacity:1;fill-rule:nonzero;stroke:none;stroke-width:2.64145732"
         id="path9531"
         inkscape:connector-curvature="0" />
    </g>
    <g
       id="g9533"
       transform="matrix(-0.02115307,0,0,-0.02396001,363.7358,269.96249)"
       style="stroke-width:2.64145732">
      <path
         d="m 16014.5,6665.57 c 39.9,82.39 152.4,1318.64 -1247.2,1746.62 -1092.1,333.94 -1584.1,-443.78 -1655.1,-606.62 10.4,49.24 268.4,1483.74 1909.9,958.74 911.7,-291.61 1277.9,-994.15 1177.5,-1739.42 -20,-148.33 -56.2,-252.79 -128.2,-375.82 l -56.9,16.5"
         style="fill:#f25035;fill-opacity:1;fill-rule:nonzero;stroke:none;stroke-width:2.64145732"
         id="path9535"
         inkscape:connector-curvature="0" />
    </g>
    <g
       id="g9537"
       transform="matrix(-0.02098417,0,0,-0.02376869,363.7358,269.96249)"
       style="stroke-width:2.64145732">
      <path
         d="m 16095.4,6727.65 c -19.7,-90.54 5.8,-170.76 56.8,-179.13 51.2,-8.27 108.5,58.38 128.2,149.1 19.6,90.39 -5.9,170.57 -56.9,178.96 -51.1,8.36 -108.5,-58.4 -128.1,-148.93"
         style="fill:#071216;fill-opacity:1;fill-rule:nonzero;stroke:none;stroke-width:2.64145732"
         id="path9539"
         inkscape:connector-curvature="0" />
    </g>
    <path
       d="m 181.81485,224.10777 c 19.85368,-9.24974 53.50424,3.7162 47.49266,6.43121 -5.66245,2.55755 -62.34227,0.48886 -47.49266,-6.43121"
       style="fill:#235a6a;fill-opacity:1;fill-rule:nonzero;stroke:none;stroke-width:0.03527778"
       id="path8029"
       inkscape:connector-curvature="0" />
    <path
       d="m 196.40658,134.05647 c 1.61104,-0.68068 21.76611,-0.94956 22.93886,0 1.17285,0.94969 -2.53186,10.39292 -11.46943,10.39292 -8.93757,0 -12.86769,-9.80215 -11.46943,-10.39292"
       style="fill:#071216;fill-opacity:1;fill-rule:nonzero;stroke:none;stroke-width:0.03527778"
       id="path9013"
       inkscape:connector-curvature="0" />
    <path
       d="m 196.16336,175.81101 c 0,0 1.66569,3.98273 1.16246,4.5144 -0.60023,0.63386 -0.61838,-0.94596 -1.07046,-1.08268 -0.7352,0.52338 0.86713,4.03243 0.32484,4.11944 -0.32409,0.29553 -0.87996,-0.43362 -0.91243,-0.68634 -0.0648,0.67391 -0.8129,-0.0138 -0.87423,-0.63939 -0.19452,0.33696 -0.60001,-0.46402 -0.86882,-1.34369 -0.79645,-2.60313 0.10209,-4.77542 0.10209,-4.77542 l 2.13655,-0.10632"
       style="fill:#fabd99;fill-opacity:1;fill-rule:nonzero;stroke:none;stroke-width:0.03527778"
       id="path9015"
       inkscape:connector-curvature="0" />
    <path
       d="m 201.84501,177.61318 c 0,0 -0.10984,40.4487 -0.2427,43.55452 1.5775,0.52615 2.57026,2.34626 2.57026,2.34626 l 2.07023,-44.88576 -4.39779,-1.01502"
       style="fill:#fabd99;fill-opacity:1;fill-rule:nonzero;stroke:none;stroke-width:0.03527778"
       id="path9017"
       inkscape:connector-curvature="0" />
    <path
       d="m 201.77624,197.55581 c -0.0443,10.70255 -0.10612,22.02514 -0.17393,23.61189 1.5775,0.52615 2.57026,2.34626 2.57026,2.34626 l 1.15938,-25.13646 c 0,0 -0.75759,0.40738 -2.02405,0.087 -1.07544,-0.27206 -1.53166,-0.90869 -1.53166,-0.90869"
       style="fill:#f68987;fill-opacity:1;fill-rule:nonzero;stroke:none;stroke-width:0.03527778"
       id="path9019"
       inkscape:connector-curvature="0" />
    <path
       d="m 201.60231,195.81163 v 4.60418 c 0,0 1.75536,1.80079 3.72964,0.35767 0.21607,-3.81286 0.27879,-4.66217 0.27879,-4.66217 0,0 -2.09325,1.19731 -4.00843,-0.29968"
       style="fill:#071216;fill-opacity:1;fill-rule:nonzero;stroke:none;stroke-width:0.03527778"
       id="path9021"
       inkscape:connector-curvature="0" />
    <path
       d="m 204.62794,222.15922 c 1.69647,3.05886 -4.26874,8.40322 -6.94343,6.70463 -2.04646,-0.81616 -1.10972,-3.585 -1.10972,-3.585 l 8.05315,-3.11963"
       style="fill:#fde7d3;fill-opacity:1;fill-rule:nonzero;stroke:none;stroke-width:0.03527778"
       id="path9023"
       inkscape:connector-curvature="0" />
    <path
       d="m 204.59197,218.94984 c 0.20216,0.67392 0.54154,2.31452 -0.0276,3.69548 -2.29106,3.53944 -3.93393,5.55014 -6.83817,4.51718 -2.27705,-0.81064 -0.76068,-3.32539 0.4386,-4.32246 1.1979,-0.99843 3.48505,-3.77281 3.48505,-3.77281 0,0 0.8893,1.1752 2.94211,-0.11739"
       style="fill:#f25035;fill-opacity:1;fill-rule:nonzero;stroke:none;stroke-width:0.03527778"
       id="path9025"
       inkscape:connector-curvature="0" />
    <path
       d="m 201.64985,219.06723 c -1.49526,-2.32694 4.17961,-1.9596 2.17029,0.27343 -0.34043,0.45573 -1.76236,0.35767 -2.17029,-0.27343"
       style="fill:#f25035;fill-opacity:1;fill-rule:nonzero;stroke:none;stroke-width:0.03527778"
       id="path9027"
       inkscape:connector-curvature="0" />
    <path
       d="m 202.83618,221.42593 c -0.0743,0 -0.1474,-0.0456 -0.19314,-0.12981 -0.36909,-0.68912 -1.24247,-1.20698 -2.06491,-0.88658 -0.1247,0.0483 -0.25576,-0.0428 -0.29311,-0.20439 -0.0374,-0.16158 0.0332,-0.33282 0.15748,-0.38116 0.98959,-0.67253 3.37266,1.13517 2.39368,1.60194"
       style="fill:#fde7d3;fill-opacity:1;fill-rule:nonzero;stroke:none;stroke-width:0.03527778"
       id="path9029"
       inkscape:connector-curvature="0" />
    <path
       d="m 201.94147,222.44095 c -0.0743,0 -0.1474,-0.0456 -0.19314,-0.1312 -0.36909,-0.68773 -1.24205,-1.20696 -2.06502,-0.88519 -0.12459,0.0483 -0.25565,-0.0428 -0.29301,-0.20439 -0.0375,-0.16158 0.033,-0.33282 0.15749,-0.38116 0.99001,-0.67391 3.37244,1.13516 2.39368,1.60194"
       style="fill:#fde7d3;fill-opacity:1;fill-rule:nonzero;stroke:none;stroke-width:0.03527778"
       id="path9031"
       inkscape:connector-curvature="0" />
    <path
       d="m 201.04666,223.45596 c -0.0743,0 -0.14741,-0.0456 -0.19315,-0.1312 -0.36899,-0.68772 -1.24205,-1.20697 -2.06502,-0.8852 -0.12448,0.0484 -0.25565,-0.0428 -0.29311,-0.20439 -0.0374,-0.16295 0.0331,-0.33281 0.15759,-0.38251 0.99022,-0.67254 3.37244,1.13515 2.39369,1.6033"
       style="fill:#fde7d3;fill-opacity:1;fill-rule:nonzero;stroke:none;stroke-width:0.03527778"
       id="path9033"
       inkscape:connector-curvature="0" />
    <path
       d="m 213.79622,177.61318 c 0,0 0.10984,40.4487 0.2426,43.55452 -1.5775,0.52615 -2.57027,2.34626 -2.57027,2.34626 l -2.07022,-44.88576 4.39789,-1.01502"
       style="fill:#fabd99;fill-opacity:1;fill-rule:nonzero;stroke:none;stroke-width:0.03527778"
       id="path9035"
       inkscape:connector-curvature="0" />
    <path
       d="m 210.24932,198.39959 1.23663,25.084 c 0.13573,-0.23616 1.0938,-1.8298 2.55287,-2.31589 -0.0677,-1.58537 -0.12947,-12.89001 -0.17383,-23.58427 -0.41196,1.06749 -2.9747,1.29811 -3.61567,0.81616"
       style="fill:#f68987;fill-opacity:1;fill-rule:nonzero;stroke:none;stroke-width:0.03527778"
       id="path9037"
       inkscape:connector-curvature="0" />
    <path
       d="m 213.95923,195.81163 v 4.60418 c 0,0 -1.75536,1.80079 -3.72965,0.35767 -0.21606,-3.81286 -0.19919,-4.66217 -0.19919,-4.66217 0,0 2.01366,1.19731 3.92884,-0.29968"
       style="fill:#071216;fill-opacity:1;fill-rule:nonzero;stroke:none;stroke-width:0.03527778"
       id="path9039"
       inkscape:connector-curvature="0" />
    <path
       d="m 211.01318,222.15922 c -1.69646,3.05886 4.26875,8.40322 6.94344,6.70463 2.04645,-0.81616 1.10982,-3.585 1.10982,-3.585 l -8.05326,-3.11963"
       style="fill:#fde7d3;fill-opacity:1;fill-rule:nonzero;stroke:none;stroke-width:0.03527778"
       id="path9041"
       inkscape:connector-curvature="0" />
    <path
       d="m 211.04916,218.94984 c -0.20216,0.67392 -0.54143,2.31452 0.0277,3.69548 2.29096,3.53944 3.93383,5.55014 6.83806,4.51718 2.27716,-0.81064 0.76068,-3.32539 -0.4386,-4.32246 -1.1978,-0.99843 -3.48504,-3.77281 -3.48504,-3.77281 0,0 -0.8893,1.1752 -2.94212,-0.11739"
       style="fill:#f25035;fill-opacity:1;fill-rule:nonzero;stroke:none;stroke-width:0.03527778"
       id="path9043"
       inkscape:connector-curvature="0" />
    <path
       d="m 213.99128,219.06723 c 1.49525,-2.32694 -4.17961,-1.9596 -2.17019,0.27343 0.34033,0.45573 1.76226,0.35767 2.17019,-0.27343"
       style="fill:#f25035;fill-opacity:1;fill-rule:nonzero;stroke:none;stroke-width:0.03527778"
       id="path9045"
       inkscape:connector-curvature="0" />
    <path
       d="m 212.80494,221.42593 c 0.0743,0 0.1474,-0.0456 0.19314,-0.12981 0.36909,-0.68912 1.24248,-1.20698 2.06492,-0.88658 0.12469,0.0483 0.25575,-0.0428 0.29311,-0.20439 0.0374,-0.16158 -0.0331,-0.33282 -0.15749,-0.38116 -0.98958,-0.67253 -3.37265,1.13517 -2.39368,1.60194"
       style="fill:#fde7d3;fill-opacity:1;fill-rule:nonzero;stroke:none;stroke-width:0.03527778"
       id="path9047"
       inkscape:connector-curvature="0" />
    <path
       d="m 213.69966,222.44095 c 0.0743,0 0.1474,-0.0456 0.19314,-0.1312 0.36919,-0.68773 1.24204,-1.20696 2.06502,-0.88519 0.12458,0.0483 0.25565,-0.0428 0.29311,-0.20439 0.0374,-0.16158 -0.0331,-0.33282 -0.15759,-0.38116 -0.99001,-0.67391 -3.37244,1.13516 -2.39368,1.60194"
       style="fill:#fde7d3;fill-opacity:1;fill-rule:nonzero;stroke:none;stroke-width:0.03527778"
       id="path9049"
       inkscape:connector-curvature="0" />
    <path
       d="m 214.59447,223.45596 c 0.0743,0 0.14741,-0.0456 0.19314,-0.1312 0.36899,-0.68772 1.24205,-1.20697 2.06503,-0.8852 0.12448,0.0484 0.25575,-0.0428 0.29311,-0.20439 0.0375,-0.16295 -0.0331,-0.33281 -0.1576,-0.38251 -0.99022,-0.67254 -3.37244,1.13515 -2.39368,1.6033"
       style="fill:#fde7d3;fill-opacity:1;fill-rule:nonzero;stroke:none;stroke-width:0.03527778"
       id="path9051"
       inkscape:connector-curvature="0" />
    <path
       d="m 207.9937,173.27554 c 0.0213,-0.007 5.28518,-0.018 9.89638,-1.29258 0.11472,3.23147 0.43287,11.44826 0.397,13.26286 -0.13541,0.8921 -4.57787,1.39479 -9.30814,1.45416 -0.33036,0.004 -0.6622,-4.68841 -0.99405,-4.68841 -0.32155,0 -0.64309,4.69118 -0.96348,4.68703 -4.48332,-0.0622 -8.72883,-0.53029 -9.32088,-1.45278 -0.0696,-1.8146 0.0316,-4.74364 0.39668,-13.26286 4.61174,1.27462 9.87537,1.28568 9.89649,1.29258"
       style="fill:#f9a939;fill-opacity:1;fill-rule:nonzero;stroke:none;stroke-width:0.03527778"
       id="path9053"
       inkscape:connector-curvature="0" />
    <path
       d="m 198.62857,180.29503 c 1.92165,0.30795 3.73813,-1.8298 3.71351,-4.34316 0.007,-0.65734 -0.77692,-0.65734 -0.78413,0 0.0157,1.97755 -1.42819,3.60295 -2.92938,3.32263 -0.50504,-0.0138 -0.50801,1.01639 0,1.02053"
       style="fill:#f25035;fill-opacity:1;fill-rule:nonzero;stroke:none;stroke-width:0.03527778"
       id="path9055"
       inkscape:connector-curvature="0" />
    <path
       d="m 207.02152,187.20818 c -2.921,-0.19471 -10.27609,0.0331 -9.5725,-2.35456 0.16629,-0.1809 0.41377,-0.15052 0.55247,0.0649 0.29799,0.464 2.94721,1.18625 9.02406,1.26911 0.50387,-0.002 0.50345,1.03159 -0.004,1.02054"
       style="fill:#f25035;fill-opacity:1;fill-rule:nonzero;stroke:none;stroke-width:0.03527778"
       id="path9057"
       inkscape:connector-curvature="0" />
    <path
       d="m 208.97883,187.20956 c -0.50334,0.01 -0.51204,-1.02331 -0.004,-1.02054 6.57944,-0.12981 8.18527,-0.59382 9.38774,-1.4445 2.01907,2.37113 -7.47649,2.40289 -9.38413,2.46504"
       style="fill:#f25035;fill-opacity:1;fill-rule:nonzero;stroke:none;stroke-width:0.03527778"
       id="path9059"
       inkscape:connector-curvature="0" />
    <path
       d="m 202.63901,142.80299 c 0,0 2.0316,-0.32383 3.50637,-0.497 0.13785,-2.00407 0,-4.83272 0,-4.83272 l 3.76456,-0.38488 c 0,0 0.0327,3.86949 0,5.18542 1.54566,0.41332 3.46753,0.63759 4.22778,0.75594 -1.68139,6.36877 -11.10924,7.56746 -11.49871,-0.22676"
       style="fill:#fabd99;fill-opacity:1;fill-rule:nonzero;stroke:none;stroke-width:0.03527778"
       id="path9061"
       inkscape:connector-curvature="0" />
    <path
       d="m 206.49272,139.92974 -0.002,1.54448 c 0,0 1.79802,-1.2089 3.26844,0 -0.0453,-0.90896 -0.0453,-1.75688 -0.0453,-1.75688 l -3.22122,0.2124"
       style="fill:#efa378;fill-opacity:1;fill-rule:nonzero;stroke:none;stroke-width:0.03527778"
       id="path9063"
       inkscape:connector-curvature="0" />
    <path
       d="m 218.46325,172.69001 c 2.57897,-6.24199 -1.11991,-25.20966 -1.70347,-28.93746 -0.58494,-0.24774 -3.31991,-1.13999 -3.98296,-1.12466 0.006,3.85678 -3.71447,5.45871 -4.81697,5.49875 -0.77798,0 -4.78641,-1.71102 -4.6752,-5.49875 -0.66304,-0.0154 -3.39801,0.87692 -3.98295,1.12466 -0.3518,3.14779 -3.54574,23.19123 -1.18698,28.93746 2.82316,1.49145 15.1215,1.94717 20.34853,0"
       style="fill:#fde7d3;fill-opacity:1;fill-rule:nonzero;stroke:none;stroke-width:0.03527778"
       id="path9065"
       inkscape:connector-curvature="0" />
    <path
       d="m 198.06877,144.46016 c -3.33424,5.8429 -0.23198,31.41023 -0.23198,31.41023 0,0 1.88313,0.94321 6.53137,0.7485 -0.51713,-10.46226 -0.0427,-34.19525 -0.0427,-34.19525 0,0 -4.43514,0.0903 -6.25672,2.03652"
       style="fill:#44c0bd;fill-opacity:1;fill-rule:nonzero;stroke:none;stroke-width:0.03527778"
       id="path9067"
       inkscape:connector-curvature="0" />
    <path
       d="m 203.02848,158.88166 c 0.014,1.25116 -1.49557,1.25116 -1.48146,0 -0.014,-1.24978 1.49557,-1.24978 1.48146,0"
       style="fill:#f25035;fill-opacity:1;fill-rule:nonzero;stroke:none;stroke-width:0.03527778"
       id="path9069"
       inkscape:connector-curvature="0" />
    <path
       d="m 203.02848,164.8958 c 0.014,1.25116 -1.49557,1.25116 -1.48146,0 -0.014,-1.24979 1.49557,-1.24979 1.48146,0"
       style="fill:#f25035;fill-opacity:1;fill-rule:nonzero;stroke:none;stroke-width:0.03527778"
       id="path9071"
       inkscape:connector-curvature="0" />
    <path
       d="m 203.02848,170.90994 c 0.014,1.25116 -1.49557,1.25116 -1.48146,0 -0.014,-1.24979 1.49557,-1.24979 1.48146,0"
       style="fill:#f25035;fill-opacity:1;fill-rule:nonzero;stroke:none;stroke-width:0.03527778"
       id="path9073"
       inkscape:connector-curvature="0" />
    <path
       d="m 218.05585,144.46016 c 3.33424,5.8429 0.23187,31.41023 0.23187,31.41023 0,0 -1.88313,0.94321 -6.53126,0.7485 0.51702,-10.46226 0.0426,-34.19525 0.0426,-34.19525 0,0 4.43514,0.0903 6.25683,2.03652"
       style="fill:#44c0bd;fill-opacity:1;fill-rule:nonzero;stroke:none;stroke-width:0.03527778"
       id="path9075"
       inkscape:connector-curvature="0" />
    <path
       d="m 196.52088,173.7865 c 0,0 0.55555,1.79666 0.39011,2.36147 -0.50684,0.57863 -3.24213,1.60608 -4.16008,0.68081 -0.22371,-0.64353 -0.22371,-2.36284 -0.22371,-2.36284 l 3.99368,-0.67944"
       style="fill:#071216;fill-opacity:1;fill-rule:nonzero;stroke:none;stroke-width:0.03527778"
       id="path9077"
       inkscape:connector-curvature="0" />
    <path
       d="m 198.16991,154.50398 c 0,0.20576 -0.87423,5.07231 -0.91679,9.31742 -0.0426,4.24511 1.40208,9.32432 -1.16882,10.68046 -10.18748,4.22438 -10.46233,-17.8629 2.08561,-30.0417 0,6.62591 0,10.04382 0,10.04382"
       style="fill:#f68987;fill-opacity:1;fill-rule:nonzero;stroke:none;stroke-width:0.03527778"
       id="path9079"
       inkscape:connector-curvature="0" />
    <path
       d="m 195.33263,156.46219 c -0.97748,3.83359 -4.36393,2.44295 -3.47453,-1.42653 0.97749,-3.83221 4.36394,-2.44295 3.47453,1.42653"
       style="fill:#44c0bd;fill-opacity:1;fill-rule:nonzero;stroke:none;stroke-width:0.03527778"
       id="path9081"
       inkscape:connector-curvature="0" />
    <path
       d="m 197.75232,145.00578 c -0.15346,0.7884 -0.008,6.65477 0.28864,8.06061 0.21618,1.0233 3.8153,1.04677 4.16613,-1.0095 0.4767,-2.79509 0.75538,-7.42784 0.82139,-9.31618 -0.0886,-0.92843 -4.96692,0.31721 -5.27616,2.26507"
       style="fill:#071216;fill-opacity:1;fill-rule:nonzero;stroke:none;stroke-width:0.03527778"
       id="path9083"
       inkscape:connector-curvature="0" />
    <path
       d="m 198.90363,143.55231 c -0.30234,4.7221 -1.28376,13.81858 -1.65051,18.84117 2.08391,-5.5156 4.04557,-9.68753 4.16793,-19.86157 -0.2947,-0.69615 -2.28279,0.0438 -2.51742,1.0204"
       style="fill:#f25035;fill-opacity:1;fill-rule:nonzero;stroke:none;stroke-width:0.03527778"
       id="path9085"
       inkscape:connector-curvature="0" />
    <path
       d="m 212.91955,180.12517 c 0.15738,-0.0317 12.36042,-3.81425 12.33941,-4.01449 l -1.37767,-13.32915 c -0.0202,-0.19885 -0.16481,-0.33557 -0.32229,-0.3052 l -13.20388,2.63214 c -0.15727,0.0303 -0.26838,0.2182 -0.2479,0.41843 l 1.32249,12.79472 c 0.0273,0.88934 1.07926,1.33403 1.48984,1.80355"
       style="fill:#071216;fill-opacity:1;fill-rule:nonzero;stroke:none;stroke-width:0.03527778"
       id="path9087"
       inkscape:connector-curvature="0" />
    <path
       d="m 212.98004,179.49821 c 0.1577,-0.0317 12.48862,-3.5643 12.46856,-3.76454 l -0.49505,-11.04087 c -0.0207,-0.20024 -0.95202,-1.69584 -1.10983,-1.66545 l -13.03196,2.59623 c -0.15801,0.0317 -0.26891,0.21957 -0.24843,0.41981 l 1.25139,12.10422 c 0.034,0.3273 0.11047,0.4212 0.35307,0.60211 l 0.81225,0.74849"
       style="fill:#f4ede3;fill-opacity:1;fill-rule:nonzero;stroke:none;stroke-width:0.03527778"
       id="path9089"
       inkscape:connector-curvature="0" />
    <path
       d="m 226.36602,177.59799 c 0.15738,-0.0303 0.2686,-0.2182 0.2478,-0.41844 l -1.28185,-12.40251 c -0.0204,-0.19887 -0.16512,-0.33559 -0.3226,-0.30382 l -13.20335,2.63075 c -0.15791,0.0303 -0.26881,0.21958 -0.24801,0.41844 l 1.28185,12.40252 c 0.0204,0.20024 0.16502,0.33558 0.32218,0.30518 l 13.20398,-2.63212"
       style="fill:#071216;fill-opacity:1;fill-rule:nonzero;stroke:none;stroke-width:0.03527778"
       id="path9091"
       inkscape:connector-curvature="0" />
    <path
       d="m 214.83431,181.3501 c 0.15918,-0.005 12.62944,-1.78008 12.62763,-1.9817 l -0.0903,-13.44931 c -8.5e-4,-0.20023 -0.13127,-0.35904 -0.29056,-0.35352 l -13.35297,0.46953 c -0.15898,0.004 -0.28717,0.17263 -0.286,0.37424 l 0.0868,12.90934 c -0.0581,0.88658 0.94299,1.49836 1.3054,2.03142"
       style="fill:#071216;fill-opacity:1;fill-rule:nonzero;stroke:none;stroke-width:0.03527778"
       id="path9093"
       inkscape:connector-curvature="0" />
    <path
       d="m 214.95444,180.73832 c 0.15939,-0.007 12.73259,-1.51079 12.73185,-1.7124 l 0.56626,-11.03673 c -0.002,-0.20163 -0.78212,-1.83671 -0.94172,-1.83256 l -13.17894,0.464 c -0.15993,0.005 -0.28791,0.17263 -0.28664,0.37425 l 0.0821,12.21333 c 0.002,0.33143 0.0694,0.43638 0.29279,0.65458 l 0.73426,0.87553"
       style="fill:#f4ede3;fill-opacity:1;fill-rule:nonzero;stroke:none;stroke-width:0.03527778"
       id="path9095"
       inkscape:connector-curvature="0" />
    <path
       d="m 228.41789,181.02418 c 0.15907,-0.005 0.28748,-0.17263 0.286,-0.37563 l -0.0839,-12.51299 c -0.001,-0.20023 -0.13181,-0.36043 -0.29099,-0.35491 l -13.35245,0.46954 c -0.15961,0.004 -0.28769,0.17399 -0.28621,0.37562 l 0.0841,12.513 c 0.001,0.20161 0.13159,0.36043 0.29046,0.35352 l 13.35298,-0.46815"
       style="fill:#44c0bd;fill-opacity:1;fill-rule:nonzero;stroke:none;stroke-width:0.03527778"
       id="path9097"
       inkscape:connector-curvature="0" />
    <path
       d="m 219.83508,175.81101 c -0.43075,1.45417 -2.12742,3.36405 -1.6364,3.91506 0.32527,0.36458 0.77904,-0.67944 1.5444,-0.48334 0.2688,0.0691 0.24726,0.65321 0.089,1.17521 -0.26361,0.80234 -0.64851,0.82305 -0.69998,0.93216 0.18847,0.7899 1.13688,0.5151 1.16925,0.26238 -0.0316,0.50267 0.51151,0.44329 0.84367,-0.11877 0.19452,0.33696 0.81215,0.12291 1.08095,-0.75539 0.79644,-2.60452 -0.25437,-4.82099 -0.25437,-4.82099 0,0 -1.65434,-0.0884 -2.13655,-0.10632"
       style="fill:#fabd99;fill-opacity:1;fill-rule:nonzero;stroke:none;stroke-width:0.03527778"
       id="path9099"
       inkscape:connector-curvature="0" />
    <path
       d="m 219.60246,173.7865 c 0,0 -0.55554,1.79666 -0.38999,2.36147 0.50683,0.57863 3.24212,1.60608 4.16007,0.68081 0.2236,-0.64353 0.2236,-2.36284 0.2236,-2.36284 l -3.99368,-0.67944"
       style="fill:#071216;fill-opacity:1;fill-rule:nonzero;stroke:none;stroke-width:0.03527778"
       id="path9101"
       inkscape:connector-curvature="0" />
    <path
       d="m 217.95354,154.50398 c 0,0.20576 0.87424,5.07231 0.91679,9.31742 0.0426,4.24511 -1.40219,9.32432 1.16872,10.68046 10.18758,4.22438 10.46243,-17.8629 -2.08551,-30.0417 0,6.62591 0,10.04382 0,10.04382"
       style="fill:#f68987;fill-opacity:1;fill-rule:nonzero;stroke:none;stroke-width:0.03527778"
       id="path9103"
       inkscape:connector-curvature="0" />
    <path
       d="m 227.36134,164.73974 c -0.21171,-3.30742 -1.05899,-7.07334 -2.66461,-10.71634 -1.0384,0.37839 -2.99964,0.76919 -2.99964,0.76919 l 2.48654,10.91384 3.17771,-0.96669"
       style="fill:#fde7d3;fill-opacity:1;fill-rule:nonzero;stroke:none;stroke-width:0.03527778"
       id="path9105"
       inkscape:connector-curvature="0" />
    <path
       d="m 218.4607,145.00578 c 0.15345,0.7884 0.008,6.65477 -0.28865,8.06061 -0.21606,1.0233 -3.81529,1.04677 -4.16613,-1.0095 -0.4767,-2.79509 -0.75537,-7.42784 -0.82128,-9.31618 0.0885,-0.92843 4.96693,0.31721 5.27606,2.26507"
       style="fill:#071216;fill-opacity:1;fill-rule:nonzero;stroke:none;stroke-width:0.03527778"
       id="path9107"
       inkscape:connector-curvature="0" />
    <path
       d="m 217.30949,143.55231 c 0.30224,4.7221 1.28365,13.81858 1.65041,18.84117 -2.08392,-5.5156 -4.04558,-9.68753 -4.16793,-19.86157 0.29469,-0.69615 2.28278,0.0438 2.51752,1.0204"
       style="fill:#f25035;fill-opacity:1;fill-rule:nonzero;stroke:none;stroke-width:0.03527778"
       id="path9109"
       inkscape:connector-curvature="0" />
    <path
       d="m 207.61909,149.41094 c 0,0 -8.6866,-15.72016 -10.76647,-15.51053 -2.07988,0.20963 -5.26088,8.38389 -2.93639,10.27016 2.3246,1.886 13.70286,5.24037 13.70286,5.24037"
       style="fill:#f25035;fill-opacity:1;fill-rule:nonzero;stroke:none;stroke-width:0.03527778"
       id="path9111"
       inkscape:connector-curvature="0" />
    <path
       d="m 208.46573,149.41094 c 0,0 8.68659,-15.72016 10.76647,-15.51053 2.07988,0.20963 5.26088,8.38389 2.93629,10.27016 -2.32449,1.886 -13.70276,5.24037 -13.70276,5.24037"
       style="fill:#f25035;fill-opacity:1;fill-rule:nonzero;stroke:none;stroke-width:0.03527778"
       id="path9113"
       inkscape:connector-curvature="0" />
    <path
       d="m 225.88625,129.3606 c -0.6969,3.29943 1.11937,5.54958 3.21177,4.1512 -3.23162,5.81114 -0.0943,9.99963 2.39984,6.23883 -1.05474,5.60689 2.4373,3.71206 3.50913,1.97369 -1.71111,8.99856 9.77784,8.8135 9.94689,-2.48244 1.84281,8.55472 3.83323,2.0959 3.24881,-1.94428 5.27882,8.25478 13.44796,-7.60833 3.87812,-13.36836 3.58362,-1.63369 1.62557,-5.58327 -1.118,-5.55014 5.4103,-1.55497 1.97132,-12.0987 -3.09642,-7.8232 2.18919,-5.26151 -1.90138,-3.83083 -2.85934,-2.08666 1.95328,-4.97288 -1.86912,-6.18676 -4.12018,-3.01052 1.55246,-7.222493 -5.41645,-2.75918 -6.65478,1.05507 -1.23855,3.81425 -7.56776,19.16099 -8.34584,22.84681"
       style="fill:#7b1378;fill-opacity:1;fill-rule:nonzero;stroke:none;stroke-width:0.03527778"
       id="path9115"
       inkscape:connector-curvature="0" />
    <path
       d="m 235.65528,116.69432 c 0,0 6.13267,11.22592 4.72253,17.84576 -4.14692,1.05175 -8.30042,-1.69873 -8.30042,-1.69873 l 3.57789,-16.14703"
       style="fill:#f9a939;fill-opacity:1;fill-rule:nonzero;stroke:none;stroke-width:0.03527778"
       id="path9117"
       inkscape:connector-curvature="0" />
    <path
       d="m 236.05345,115.98864 c 0,0 5.51653,10.13911 10.73517,11.17069 2.43327,-4.49507 2.20245,-10.55201 2.20245,-10.55201 l -12.93762,-0.61868"
       style="fill:#f9a939;fill-opacity:1;fill-rule:nonzero;stroke:none;stroke-width:0.03527778"
       id="path9119"
       inkscape:connector-curvature="0" />
    <path
       d="m 189.7483,122.32455 c 0.41026,3.37924 -1.58727,5.35264 -3.54691,3.65958 2.71428,6.24378 -0.76185,9.9517 -2.91888,5.85256 0.5686,5.72524 -2.74006,3.33615 -3.65589,1.45334 0.93069,9.19106 -10.47103,7.3418 -9.67299,-3.90871 -2.56284,8.23529 -3.98912,1.52873 -3.06161,-2.40289 -5.95237,7.43902 -12.71339,-9.50938 -2.71035,-13.84702 -3.42243,-2.14189 -1.13763,-5.78352 1.58546,-5.35403 -5.24348,-2.32832 -0.92433,-12.308623 3.74716,-7.32607 -1.72554,-5.544603 2.21687,-3.529753 3.01915,-1.658553 -1.51542,-5.22422 2.38774,-5.87742 4.35205,-2.39459 -0.92431,-7.40203 5.61915,-1.95685 6.52331,2.01207 0.9048,3.970303 5.88169,20.138733 6.3395,23.914313"
       style="fill:#7b1378;fill-opacity:1;fill-rule:nonzero;stroke:none;stroke-width:0.03527778"
       id="path9121"
       inkscape:connector-curvature="0" />
    <path
       d="m 181.124,108.32286 c 0,0 -7.05498,10.26615 -6.22086,17.04949 4.03156,1.64613 8.39423,-0.4861 8.39423,-0.4861 L 181.124,108.32286"
       style="fill:#f9a939;fill-opacity:1;fill-rule:nonzero;stroke:none;stroke-width:0.03527778"
       id="path9123"
       inkscape:connector-curvature="0" />
    <path
       d="m 180.78865,107.56195 c 0,0 -6.35033,9.27737 -11.62457,9.54666 -2.03329,-4.81959 -1.28619,-10.80473 -1.28619,-10.80473 l 12.91076,1.25807"
       style="fill:#c99e43;fill-opacity:1;fill-rule:nonzero;stroke:none;stroke-width:0.03527778"
       id="path9125"
       inkscape:connector-curvature="0" />
    <path
       d="m 231.98262,114.7071 c -1.40929,17.50149 -12.8403,27.72109 -25.79076,25.95607 -12.94908,-1.76446 -22.50768,-14.84476 -21.09827,-32.34721 1.40813,-17.499693 12.99439,-29.626013 25.94432,-27.859753 12.94972,1.7635 22.35274,16.75258 20.94471,34.250893"
       style="fill:#fabd99;fill-opacity:1;fill-rule:nonzero;stroke:none;stroke-width:0.03527778"
       id="path9127"
       inkscape:connector-curvature="0" />
    <path
       d="m 231.98262,114.7071 c -1.40929,17.50149 -12.8403,27.72109 -25.79076,25.95607 -12.94908,-1.76446 -22.50768,-14.84476 -21.09827,-32.34721 1.40813,-17.499693 12.99439,-29.626013 25.94432,-27.859753 12.94972,1.7635 22.35274,16.75258 20.94471,34.250893"
       style="fill:#fabd99;fill-opacity:1;fill-rule:nonzero;stroke:none;stroke-width:0.03527778"
       id="path9129"
       inkscape:connector-curvature="0" />
    <path
       d="m 231.03665,114.71262 c 0,0 0.6015,-3.51182 3.94688,-3.68167 3.52834,-0.17539 4.56388,5.93542 2.4754,9.30914 -2.08826,3.36681 -5.98463,3.03676 -7.02919,0.12429 l 0.60691,-5.75176"
       style="fill:#fabd99;fill-opacity:1;fill-rule:nonzero;stroke:none;stroke-width:0.03527778"
       id="path9131"
       inkscape:connector-curvature="0" />
    <path
       d="m 235.574,112.65498 c -2.24798,-0.72502 -4.35906,4.32244 -1.41535,7.30257 -1.11194,-3.79628 0.14549,-4.95354 1.68755,-3.05056 0.0441,-1.20282 -0.48392,-2.0107 -1.86244,-2.00103 0.18964,-1.57846 1.59024,-2.25098 1.59024,-2.25098"
       style="fill:#d37658;fill-opacity:1;fill-rule:nonzero;stroke:none;stroke-width:0.03527778"
       id="path9133"
       inkscape:connector-curvature="0" />
    <path
       d="m 185.87156,108.56868 c 0,0 -0.0294,-3.59744 -3.27565,-4.66493 -3.42455,-1.12273 -5.41009,4.57654 -3.90529,8.43912 1.50799,3.85705 5.37189,4.58345 6.85695,2.01761 l 0.32399,-5.7918"
       style="fill:#fabd99;fill-opacity:1;fill-rule:nonzero;stroke:none;stroke-width:0.03527778"
       id="path9135"
       inkscape:connector-curvature="0" />
    <path
       d="m 181.75861,105.33305 c 2.31568,-0.10218 3.57704,5.40375 0.22285,7.52493 1.6919,-3.41239 0.64629,-4.8845 -1.16522,-3.43863 0.14857,-1.18901 0.79274,-1.83669 2.13941,-1.45692 0.0658,-1.59364 -1.19704,-2.62938 -1.19704,-2.62938"
       style="fill:#d37658;fill-opacity:1;fill-rule:nonzero;stroke:none;stroke-width:0.03527778"
       id="path9137"
       inkscape:connector-curvature="0" />
    <path
       d="m 209.96778,115.26916 c -0.64883,0.55238 -0.91902,-1.63784 -2.36238,-1.65165 -1.4734,-0.0138 -1.65104,2.21233 -2.35505,1.48731 -0.57465,-0.59105 0.15313,-3.29777 2.56602,-3.17624 2.01345,0.10081 2.7685,2.8158 2.15141,3.34058"
       style="fill:#ee5b63;fill-opacity:1;fill-rule:nonzero;stroke:none;stroke-width:0.03527778"
       id="path9139"
       inkscape:connector-curvature="0" />
    <path
       d="m 185.17042,115.8174 c 0.8149,7.73484 3.91907,14.20055 8.4631,18.62435 0.36187,-0.24443 0.70995,-0.53416 1.03925,-0.87277 3.18174,-3.2707 3.44758,-9.73503 0.59386,-14.43587 -2.61537,-4.30725 -6.94238,-5.63989 -10.09621,-3.31571"
       style="fill:#f79883;fill-opacity:1;fill-rule:nonzero;stroke:none;stroke-width:0.03527778"
       id="path9141"
       inkscape:connector-curvature="0" />
    <path
       d="m 230.7219,121.99173 c -2.5811,-3.12514 -6.89738,-3.27705 -10.22823,-0.12014 -3.722,3.527 -4.80328,9.84357 -2.41628,14.10995 0.42374,0.75705 0.92931,1.3963 1.49334,1.91983 5.10913,-3.11865 9.13889,-8.59601 11.15117,-15.90964"
       style="fill:#f79883;fill-opacity:1;fill-rule:nonzero;stroke:none;stroke-width:0.03527778"
       id="path9143"
       inkscape:connector-curvature="0" />
    <path
       d="m 202.10373,109.47183 c -1.07554,2.11703 -4.2403,4.3694 -7.04308,3.96892 -2.80279,-0.40048 -3.87854,-2.90557 -4.86462,-5.67304 0.0948,-1.45278 2.83015,-6.27929 5.63294,-5.87741 2.80278,0.40048 5.33145,3.95372 6.27476,7.58153"
       style="fill:#fde7d3;fill-opacity:1;fill-rule:nonzero;stroke:none;stroke-width:0.03527778"
       id="path9145"
       inkscape:connector-curvature="0" />
    <path
       d="m 198.68587,106.24588 c 0.76673,2.00793 0.20853,4.39978 -1.24746,5.34436 -1.45716,0.94321 -3.26112,0.0801 -4.02891,-1.92783 -0.76758,-2.0107 -0.20821,-4.40116 1.24746,-5.34576 1.458,-0.94182 3.26122,-0.0787 4.02891,1.92923"
       style="fill:#317e93;fill-opacity:1;fill-rule:nonzero;stroke:none;stroke-width:0.03527778"
       id="path9147"
       inkscape:connector-curvature="0" />
    <path
       d="m 196.79499,106.42678 c 0.61179,0.63526 0.73458,1.76075 0.27412,2.51337 -0.46121,0.75125 -1.3313,0.84654 -1.94352,0.21129 -0.61253,-0.63662 -0.73458,-1.76073 -0.27433,-2.51336 0.46164,-0.75126 1.33162,-0.84654 1.94373,-0.2113"
       style="fill:#071216;fill-opacity:1;fill-rule:nonzero;stroke:none;stroke-width:0.03527778"
       id="path9149"
       inkscape:connector-curvature="0" />
    <path
       d="m 195.89465,105.80396 c 0.0395,0.65459 -0.31432,1.22078 -0.78699,1.26913 -0.47257,0.0469 -0.8875,-0.44053 -0.92814,-1.09512 -0.0385,-0.65182 0.31231,-1.2194 0.78423,-1.27325 0.47416,-0.0414 0.8926,0.44742 0.9309,1.09924"
       style="fill:#fde7d3;fill-opacity:1;fill-rule:nonzero;stroke:none;stroke-width:0.03527778"
       id="path9151"
       inkscape:connector-curvature="0" />
    <path
       d="m 197.73895,109.90269 c 0.0257,0.40601 -0.19431,0.7554 -0.48933,0.78854 -0.29279,0.0303 -0.55183,-0.27482 -0.57561,-0.68082 -0.0198,-0.40324 0.19431,-0.75677 0.48955,-0.78577 0.29268,-0.0303 0.55108,0.27343 0.57539,0.67805"
       style="fill:#fde7d3;fill-opacity:1;fill-rule:nonzero;stroke:none;stroke-width:0.03527778"
       id="path9153"
       inkscape:connector-curvature="0" />
    <path
       d="m 190.19603,107.76771 c 0,0 2.89118,-7.915743 9.27705,-3.53115 -6.76165,-8.243023 -9.27705,3.53115 -9.27705,3.53115"
       style="fill:#071216;fill-opacity:1;fill-rule:nonzero;stroke:none;stroke-width:0.03527778"
       id="path9155"
       inkscape:connector-curvature="0" />
    <path
       d="m 214.05452,111.06133 c 0.72768,2.35456 3.48133,5.38856 6.28899,5.72552 2.80766,0.33833 4.24731,-1.83532 5.63952,-4.28931 0.13075,-1.44726 -1.80587,-6.88967 -4.61364,-7.22801 -2.80766,-0.33695 -5.83224,2.48437 -7.31487,5.7918"
       style="fill:#fde7d3;fill-opacity:1;fill-rule:nonzero;stroke:none;stroke-width:0.03527778"
       id="path9157"
       inkscape:connector-curvature="0" />
    <path
       d="m 217.89974,108.79239 c -1.06037,1.76765 -0.88187,4.25754 0.39912,5.56256 1.28249,1.30226 3.1827,0.92802 4.24413,-0.83825 1.06164,-1.77041 0.88177,-4.25892 -0.39902,-5.56394 -1.28333,-1.30226 -3.18291,-0.92663 -4.24423,0.83963"
       style="fill:#317e93;fill-opacity:1;fill-rule:nonzero;stroke:none;stroke-width:0.03527778"
       id="path9159"
       inkscape:connector-curvature="0" />
    <path
       d="m 219.16673,110.08085 c -0.48179,0.80372 -0.40072,1.93473 0.18136,2.52717 0.58261,0.59244 1.44591,0.42257 1.92812,-0.38114 0.48243,-0.80374 0.40072,-1.93475 -0.18114,-2.52719 -0.58314,-0.59243 -1.44623,-0.4212 -1.92834,0.38116"
       style="fill:#071216;fill-opacity:1;fill-rule:nonzero;stroke:none;stroke-width:0.03527778"
       id="path9161"
       inkscape:connector-curvature="0" />
    <path
       d="m 221.05389,109.64445 c -0.13955,0.63111 0.11992,1.27878 0.5756,1.44864 0.45591,0.16848 0.93738,-0.20023 1.07799,-0.83134 0.13806,-0.62835 -0.11822,-1.27602 -0.57231,-1.45141 -0.45813,-0.16432 -0.94332,0.20576 -1.08128,0.83411"
       style="fill:#fde7d3;fill-opacity:1;fill-rule:nonzero;stroke:none;stroke-width:0.03527778"
       id="path9163"
       inkscape:connector-curvature="0" />
    <path
       d="m 217.88711,112.21306 c -0.0878,0.39082 0.074,0.78992 0.35806,0.89902 0.28217,0.10633 0.58293,-0.12567 0.66888,-0.51787 0.0815,-0.38943 -0.074,-0.78991 -0.35869,-0.89625 -0.28218,-0.10633 -0.58218,0.12429 -0.66825,0.5151"
       style="fill:#fde7d3;fill-opacity:1;fill-rule:nonzero;stroke:none;stroke-width:0.03527778"
       id="path9165"
       inkscape:connector-curvature="0" />
    <path
       d="m 225.98303,112.49754 c 0,0 -1.61358,-8.50955 -8.54524,-5.8788 7.89376,-6.31242 8.54524,5.8788 8.54524,5.8788"
       style="fill:#071216;fill-opacity:1;fill-rule:nonzero;stroke:none;stroke-width:0.03527778"
       id="path9167"
       inkscape:connector-curvature="0" />
    <path
       d="m 195.16136,96.945027 c 2.41586,-0.91282 2.9402,2.54513 1.33405,2.5686 -1.72225,0.0207 -3.15892,0.853453 -3.37424,0.639393 -0.47841,-0.472293 0.68097,-2.695653 2.04019,-3.207993"
       style="fill:#071216;fill-opacity:1;fill-rule:nonzero;stroke:none;stroke-width:0.03527778"
       id="path9169"
       inkscape:connector-curvature="0" />
    <path
       d="m 223.22068,100.77308 c -2.35728,-1.146213 -3.07774,2.25099 -1.47827,2.43051 1.71715,0.18781 3.10077,1.15865 3.32808,0.96531 0.50408,-0.42396 -0.52371,-2.75367 -1.84981,-3.39582"
       style="fill:#071216;fill-opacity:1;fill-rule:nonzero;stroke:none;stroke-width:0.03527778"
       id="path9171"
       inkscape:connector-curvature="0" />
    <path
       d="m 197.42982,116.93875 c -0.1386,9.1448 3.62894,16.77688 8.89766,17.50383 5.26874,0.72694 10.18217,-5.70618 11.52026,-14.68664 l -20.41792,-2.81719"
       style="fill:#4e1a1e;fill-opacity:1;fill-rule:nonzero;stroke:none;stroke-width:0.03527778"
       id="path9173"
       inkscape:connector-curvature="0" />
    <path
       d="m 200.33872,129.73898 c 1.54471,2.6414 3.61323,4.3759 5.98876,4.7036 2.37543,0.32785 4.67753,-0.80373 6.6134,-2.96495 -1.66526,-1.1683 -3.8034,-2.02451 -6.18021,-2.35317 -2.37681,-0.32729 -4.60558,-0.0732 -6.42195,0.61452"
       style="fill:#ee5b63;fill-opacity:1;fill-rule:nonzero;stroke:none;stroke-width:0.03527778"
       id="path9175"
       inkscape:connector-curvature="0" />
    <path
       d="m 207.34445,121.95996 c 5.07951,0.70154 9.36811,0.27069 10.41383,-2.21645 l -20.23901,-2.79233 c 0.62167,2.71776 4.74566,4.30864 9.82518,5.00878"
       style="fill:#fde7d3;fill-opacity:1;fill-rule:nonzero;stroke:none;stroke-width:0.03527778"
       id="path9177"
       inkscape:connector-curvature="0" />
    <path
       d="m 192.4717,119.4245 c -0.2184,0.44882 -0.67525,0.58277 -1.02057,0.29967 -0.34522,-0.28447 -0.44815,-0.87967 -0.22975,-1.3285 0.21839,-0.45019 0.67536,-0.58276 1.02056,-0.29966 0.34533,0.28448 0.44816,0.87968 0.22976,1.32849"
       style="fill:#ee5b63;fill-opacity:1;fill-rule:nonzero;stroke:none;stroke-width:0.03527778"
       id="path9179"
       inkscape:connector-curvature="0" />
    <path
       d="m 194.48175,122.21821 c -0.2184,0.44881 -0.67536,0.58277 -1.02057,0.29829 -0.34532,-0.2831 -0.44815,-0.8783 -0.22975,-1.32711 0.2184,-0.4502 0.67525,-0.58415 1.02057,-0.29968 0.34521,0.28449 0.44815,0.87969 0.22975,1.3285"
       style="fill:#ee5b63;fill-opacity:1;fill-rule:nonzero;stroke:none;stroke-width:0.03527778"
       id="path9181"
       inkscape:connector-curvature="0" />
    <path
       d="m 191.93929,122.52893 c -0.2184,0.4502 -0.67536,0.58416 -1.02068,0.29967 -0.34521,-0.28448 -0.44805,-0.87968 -0.22965,-1.3285 0.2184,-0.44881 0.67525,-0.58276 1.02058,-0.29828 0.3452,0.2831 0.44804,0.8783 0.22975,1.32711"
       style="fill:#ee5b63;fill-opacity:1;fill-rule:nonzero;stroke:none;stroke-width:0.03527778"
       id="path9183"
       inkscape:connector-curvature="0" />
    <path
       d="m 222.97735,123.80771 c -0.36538,0.23753 -0.80971,0.0456 -0.99256,-0.43086 -0.18285,-0.47506 -0.0348,-1.05368 0.33046,-1.29121 0.36538,-0.23753 0.80982,-0.0456 0.99256,0.43086 0.18285,0.47506 0.0348,1.05369 -0.33046,1.29121"
       style="fill:#ee5b63;fill-opacity:1;fill-rule:nonzero;stroke:none;stroke-width:0.03527778"
       id="path9185"
       inkscape:connector-curvature="0" />
    <path
       d="m 223.57439,127.32505 c -0.36538,0.23753 -0.80971,0.0456 -0.99256,-0.42949 -0.18274,-0.47642 -0.0348,-1.05367 0.33057,-1.29258 0.36538,-0.23753 0.80971,-0.0442 0.99256,0.43086 0.18274,0.47505 0.0348,1.05368 -0.33057,1.29121"
       style="fill:#ee5b63;fill-opacity:1;fill-rule:nonzero;stroke:none;stroke-width:0.03527778"
       id="path9187"
       inkscape:connector-curvature="0" />
    <path
       d="m 221.09454,126.10979 c -0.36538,0.23753 -0.80972,0.0455 -0.99246,-0.43086 -0.18284,-0.47506 -0.0349,-1.05231 0.33047,-1.2912 0.36538,-0.23754 0.8097,-0.0456 0.99255,0.43085 0.18275,0.47506 0.0348,1.05369 -0.33056,1.29121"
       style="fill:#ee5b63;fill-opacity:1;fill-rule:nonzero;stroke:none;stroke-width:0.03527778"
       id="path9189"
       inkscape:connector-curvature="0" />
    <path
       d="m 209.76339,64.559827 c 2.23174,-7.43377 6.75825,-9.03708 7.36792,-0.60348 3.37924,-4.51855 5.06604,-1.94717 4.42125,1.70826 3.45521,-5.40651 11.71944,-5.08613 10.33158,3.63472 2.43794,-1.80493 7.3605,1.29674 5.14277,4.93145 4.22937,-3.94958 10.68529,1.67374 8.31283,9.62124 5.43036,0.008 7.43022,8.81061 0.39594,11.20659 5.01309,2.52995 2.98022,13.385783 -2.00358,9.956823 2.44706,6.64662 -0.94406,14.60241 -4.62956,7.14101 -1.06281,4.64836 -3.57725,0.78578 -4.34505,-1.3865 -2.21645,6.22129 -7.0105,-3.97581 -3.0078,-9.34642 -4.05544,2.83514 -5.82853,-4.870693 -4.93986,-7.221103 -3.18928,6.183993 -5.41869,0.48471 -3.01821,-2.17227 -2.86359,2.11288 -6.86969,2.65698 -7.23018,-2.72467 -2.6211,0.82859 -6.14615,-3.4538 -3.45734,-5.8567 -2.28629,0.0317 -8.58005,-3.81011 -7.56065,2.94147 1.01941,6.75296 -8.74984,2.76057 -10.42179,-1.02468 0.90905,7.17277 -3.71075,10.91521 -6.19495,8.59379 3.37413,7.733453 -0.65626,10.974603 -2.89829,7.370253 0.75866,6.59001 -6.56947,5.6979 -5.73535,1.11997 -3.17411,2.38494 -4.91663,-3.419283 -1.74995,-6.490573 -4.61099,1.12412 -4.34038,-10.14048 0.85534,-10.74811 -4.14087,-2.14189 -1.91869,-5.87466 -0.0881,-5.7628 -2.47688,-4.22026 0.42343,-10.06177 4.36606,-7.68511 -3.73781,-7.09958 5.00354,-11.66785 7.28208,-9.80078 -0.94289,-5.05021 2.26569,-9.08265 4.84976,-0.41014 2.40758,-4.55583 4.70215,-1.31331 4.87714,1.56464 2.52092,-7.18106 8.29352,-7.28049 9.07797,1.44312"
       style="fill:#7b1378;fill-opacity:1;fill-rule:nonzero;stroke:none;stroke-width:0.03527778"
       id="path9191"
       inkscape:connector-curvature="0" />
  </g>
  <g
     inkscape:groupmode="layer"
     id="layer2"
     inkscape:label="Layer 3" />
  <g
     inkscape:label="Layer 1"
     inkscape:groupmode="layer"
     id="layer1"
     transform="translate(0,-32.41665)">
    <text
       xml:space="preserve"
       style="font-style:normal;font-variant:normal;font-weight:bold;font-stretch:normal;font-size:10.58333302px;line-height:1.25;font-family:sans-serif;-inkscape-font-specification:'sans-serif Bold';letter-spacing:0px;word-spacing:0px;fill:#000000;fill-opacity:1;stroke:none;stroke-width:0.26458332"
       x="150.05655"
       y="89.869026"
       id="text8811" />
    <text
       xml:space="preserve"
       style="font-style:normal;font-variant:normal;font-weight:bold;font-stretch:normal;font-size:10.58333302px;line-height:1.25;font-family:sans-serif;-inkscape-font-specification:'sans-serif Bold';letter-spacing:0px;word-spacing:0px;fill:#000000;fill-opacity:1;stroke:none;stroke-width:0.26458332"
       x="160.63989"
       y="97.806526"
       id="text8815" />
    <text
       xml:space="preserve"
       style="font-style:normal;font-variant:normal;font-weight:bold;font-stretch:normal;font-size:10.58333302px;line-height:1.25;font-family:sans-serif;-inkscape-font-specification:'sans-serif Bold';letter-spacing:0px;word-spacing:0px;fill:#000000;fill-opacity:1;stroke:none;stroke-width:0.26458332"
       x="156.86011"
       y="88.7351"
       id="text8819" />
    <flowRoot
       xml:space="preserve"
       id="flowRoot8821"
       style="font-style:normal;font-variant:normal;font-weight:bold;font-stretch:normal;font-size:40px;line-height:1.25;font-family:sans-serif;-inkscape-font-specification:'sans-serif Bold';letter-spacing:0px;word-spacing:0px;fill:#000000;fill-opacity:1;stroke:none"><flowRegion
         id="flowRegion8823"
         style="font-style:normal;font-variant:normal;font-weight:bold;font-stretch:normal;font-family:sans-serif;-inkscape-font-specification:'sans-serif Bold'" /><flowPara
         id="flowPara8827" /></flowRoot>    <flowRoot
       xml:space="preserve"
       id="flowRoot8829"
       style="font-style:normal;font-variant:normal;font-weight:bold;font-stretch:normal;font-size:40px;line-height:1.25;font-family:sans-serif;-inkscape-font-specification:'sans-serif Bold';letter-spacing:0px;word-spacing:0px;fill:#000000;fill-opacity:1;stroke:none"><flowRegion
         id="flowRegion8831"
         style="font-style:normal;font-variant:normal;font-weight:bold;font-stretch:normal;font-family:sans-serif;-inkscape-font-specification:'sans-serif Bold'" /><flowPara
         id="flowPara8835" /></flowRoot>    <flowRoot
       xml:space="preserve"
       id="flowRoot8837"
       style="font-style:normal;font-variant:normal;font-weight:bold;font-stretch:normal;font-size:40px;line-height:1.25;font-family:sans-serif;-inkscape-font-specification:'sans-serif Bold';letter-spacing:0px;word-spacing:0px;fill:#000000;fill-opacity:1;stroke:none"><flowRegion
         id="flowRegion8839"
         style="font-style:normal;font-variant:normal;font-weight:bold;font-stretch:normal;font-family:sans-serif;-inkscape-font-specification:'sans-serif Bold'" /><flowPara
         id="flowPara8843" /></flowRoot>    <text
       xml:space="preserve"
       style="font-style:normal;font-variant:normal;font-weight:bold;font-stretch:normal;font-size:10.58333302px;line-height:1.25;font-family:sans-serif;-inkscape-font-specification:'sans-serif Bold';letter-spacing:0px;word-spacing:0px;fill:#000000;fill-opacity:1;stroke:none;stroke-width:0.26458332"
       x="209.39882"
       y="107.25594"
       id="text8847" />
    <flowRoot
       xml:space="preserve"
       id="flowRoot8849"
       style="font-style:normal;font-variant:normal;font-weight:bold;font-stretch:normal;font-size:40px;line-height:1.25;font-family:sans-serif;-inkscape-font-specification:'sans-serif Bold';letter-spacing:0px;word-spacing:0px;fill:#000000;fill-opacity:1;stroke:none"><flowRegion
         id="flowRegion8851"
         style="font-style:normal;font-variant:normal;font-weight:bold;font-stretch:normal;font-family:sans-serif;-inkscape-font-specification:'sans-serif Bold'" /><flowPara
         id="flowPara8855" /></flowRoot>    <flowRoot
       xml:space="preserve"
       id="flowRoot8857"
       style="font-style:normal;font-variant:normal;font-weight:bold;font-stretch:normal;font-size:40px;line-height:1.25;font-family:sans-serif;-inkscape-font-specification:'sans-serif Bold';letter-spacing:0px;word-spacing:0px;fill:#000000;fill-opacity:1;stroke:none"><flowRegion
         id="flowRegion8859"
         style="font-style:normal;font-variant:normal;font-weight:bold;font-stretch:normal;font-family:sans-serif;-inkscape-font-specification:'sans-serif Bold'" /><flowPara
         id="flowPara8863" /></flowRoot>    <flowRoot
       xml:space="preserve"
       id="flowRoot8865"
       style="font-style:normal;font-variant:normal;font-weight:bold;font-stretch:normal;font-size:40px;line-height:1.25;font-family:sans-serif;-inkscape-font-specification:'sans-serif Bold';letter-spacing:0px;word-spacing:0px;fill:#000000;fill-opacity:1;stroke:none"><flowRegion
         id="flowRegion8867"
         style="font-style:normal;font-variant:normal;font-weight:bold;font-stretch:normal;font-family:sans-serif;-inkscape-font-specification:'sans-serif Bold'" /><flowPara
         id="flowPara8871" /></flowRoot>    <flowRoot
       xml:space="preserve"
       id="flowRoot8873"
       style="font-style:normal;font-variant:normal;font-weight:bold;font-stretch:normal;font-size:40px;line-height:1.25;font-family:sans-serif;-inkscape-font-specification:'sans-serif Bold';letter-spacing:0px;word-spacing:0px;fill:#000000;fill-opacity:1;stroke:none"><flowRegion
         id="flowRegion8875"
         style="font-style:normal;font-variant:normal;font-weight:bold;font-stretch:normal;font-family:sans-serif;-inkscape-font-specification:'sans-serif Bold'" /><flowPara
         id="flowPara8879" /></flowRoot>    <text
       xml:space="preserve"
       style="font-style:normal;font-weight:normal;font-size:10.58333302px;line-height:1.25;font-family:sans-serif;letter-spacing:0px;word-spacing:0px;fill:#000000;fill-opacity:1;stroke:none;stroke-width:0.26458332"
       x="101.02788"
       y="69.125984"
       id="text977"><tspan
         sodipodi:role="line"
         id="tspan975"
         x="101.02788"
         y="78.489754"
         style="stroke-width:0.26458332" /><tspan
         sodipodi:role="line"
         x="101.02788"
         y="91.718918"
         style="stroke-width:0.26458332"
         id="tspan979" /><tspan
         sodipodi:role="line"
         x="101.02788"
         y="104.94809"
         style="stroke-width:0.26458332"
         id="tspan981" /><tspan
         sodipodi:role="line"
         x="101.02788"
         y="118.17725"
         style="stroke-width:0.26458332"
         id="tspan983" /><tspan
         sodipodi:role="line"
         x="101.02788"
         y="131.40642"
         style="stroke-width:0.26458332"
         id="tspan985" /><tspan
         sodipodi:role="line"
         x="101.02788"
         y="144.63559"
         style="stroke-width:0.26458332"
         id="tspan987" /><tspan
         sodipodi:role="line"
         x="101.02788"
         y="157.86475"
         style="stroke-width:0.26458332"
         id="tspan989" /><tspan
         sodipodi:role="line"
         x="101.02788"
         y="171.09392"
         style="stroke-width:0.26458332"
         id="tspan991" /><tspan
         sodipodi:role="line"
         x="101.02788"
         y="184.32309"
         style="stroke-width:0.26458332"
         id="tspan993" /><tspan
         sodipodi:role="line"
         x="101.02788"
         y="197.55225"
         style="stroke-width:0.26458332"
         id="tspan995" /><tspan
         sodipodi:role="line"
         x="101.02788"
         y="210.78142"
         style="stroke-width:0.26458332"
         id="tspan997" /><tspan
         sodipodi:role="line"
         x="101.02788"
         y="224.01059"
         style="stroke-width:0.26458332"
         id="tspan999" /><tspan
         sodipodi:role="line"
         x="101.02788"
         y="237.23975"
         style="stroke-width:0.26458332"
         id="tspan1001" /><tspan
         sodipodi:role="line"
         x="101.02788"
         y="250.46892"
         style="stroke-width:0.26458332"
         id="tspan1003" /><tspan
         sodipodi:role="line"
         x="101.02788"
         y="263.69809"
         style="stroke-width:0.26458332"
         id="tspan1005" /><tspan
         sodipodi:role="line"
         x="101.02788"
         y="276.92725"
         style="stroke-width:0.26458332"
         id="tspan1007" /><tspan
         sodipodi:role="line"
         x="101.02788"
         y="290.1564"
         style="stroke-width:0.26458332"
         id="tspan1009" /><tspan
         sodipodi:role="line"
         x="101.02788"
         y="303.38559"
         style="stroke-width:0.26458332"
         id="tspan1011" /><tspan
         sodipodi:role="line"
         x="101.02788"
         y="316.61475"
         style="stroke-width:0.26458332"
         id="tspan1013" /><tspan
         sodipodi:role="line"
         x="101.02788"
         y="329.8439"
         style="stroke-width:0.26458332"
         id="tspan1015" /><tspan
         sodipodi:role="line"
         x="101.02788"
         y="343.07309"
         style="stroke-width:0.26458332"
         id="tspan1017" /><tspan
         sodipodi:role="line"
         x="101.02788"
         y="356.30225"
         style="stroke-width:0.26458332"
         id="tspan1019" /><tspan
         sodipodi:role="line"
         x="101.02788"
         y="369.5314"
         style="stroke-width:0.26458332"
         id="tspan1021" /><tspan
         sodipodi:role="line"
         x="101.02788"
         y="382.76059"
         style="stroke-width:0.26458332"
         id="tspan1023" /></text>
  </g>
</svg>
