<svg id="Layer_1" data-name="Layer 1" xmlns="http://www.w3.org/2000/svg" viewBox="0 0 1000 1000">
  <defs>
    <style>
      .cls-1 {
        font-size: 150px;
        fill: #ed2024;
        font-family: FreeSansBold, FreeSans;
      }

      .cls-2 {
        letter-spacing: -0.03em;
      }

      .cls-3, .cls-4, .cls-5, .cls-6, .cls-7 {
        fill: #000;
      }

      .cls-4 {
        letter-spacing: 0em;
      }

      .cls-5 {
        letter-spacing: -0.01em;
      }

      .cls-6 {
        letter-spacing: -0.01em;
      }

      .cls-7 {
        letter-spacing: 0em;
      }

      .cls-8 {
        fill: #e8b864;
        stroke: #753e1f;
      }

      .cls-10, .cls-12, .cls-14, .cls-8 {
        stroke-miterlimit: 10;
        stroke-width: 3px;
      }

      .cls-9 {
        fill: #83472c;
      }

      .cls-10 {
        fill: #f06696;
        stroke: #cc2561;
      }

      .cls-11 {
        fill: #ed1b68;
      }

      .cls-12 {
        fill: #f99f1b;
        stroke: #cb7b29;
      }

      .cls-13 {
        fill: #f26722;
      }

      .cls-14 {
        fill: #78cfe2;
        stroke: #18a7aa;
      }

      .cls-15 {
        fill: #fff;
      }

      .cls-16 {
        fill: #49c1ba;
      }
    </style>
  </defs>
  <title>icecream</title>
  <text class="cls-1" transform="translate(189.93 822.52)"><tspan class="cls-2">I</tspan><tspan class="cls-3" x="37.2" y="0">c</tspan><tspan class="cls-4" x="120.6" y="0">e</tspan><tspan class="cls-5" x="203.25" y="0">c</tspan><tspan class="cls-3" x="285.15" y="0">r</tspan><tspan class="cls-4" x="343.5" y="0">e</tspan><tspan class="cls-6" x="426.15" y="0">a</tspan><tspan class="cls-7" x="508.05" y="0">m</tspan></text>
  <g>
    <path class="cls-8" d="M377.49,479.41c-1.31,7.23,15.12,121,17.09,128.18s7.89,29.58,14.46,30.9,66.4-46.68,74.28-53.91,33.53-60.47,33.53-60.47Z"/>
    <path class="cls-9" d="M496.14,531c-7.23,2.63-47.33,23-58.5,28.27s-12.49,4.6-23,11.83-9.86,9.2-14.46,5.91-2-12.49-4.6-8.54.66,29.58,2.63,35.49,6.57-.65,26.29-8.54,39.44-15.78,53.9-23,39.44-27.54,38.46-28.23S496.14,531,496.14,531Z"/>
    <path class="cls-8" d="M529.67,527.72c-7.89,5.92-58.51,33.53-70.34,38.13s-24.32,9.2-37.47,16.43S391,594.77,389.65,596.74s21,65.74,22.35,71.65,3.29,20.38,5.92,24.33,6.57,2,23.66-18.41S540.84,553.36,550,542.84,529.67,527.72,529.67,527.72Z"/>
    <path class="cls-10" d="M501.4,353.53c-9.86-2.63-97.94,4.6-105.83,10.51s-30.9,33.53-35.5,52.59,4.6,33.53,0,40.76S348.9,485,358.76,490.91s13.14,3.95,13.14,3.95,6.58,27.6,30.24,25.63,25.64-3.94,25.64-3.94,1.31,25,23,27,33.52-2.63,33.52-2.63,19.06,13.15,32.21,7.89c0,0-2.63,17.09,0,25S541.1,594.8,540.31,559c0,0,18.94-2.31,17.62-16.12,0,0,31.56,9.86,34.18-14.46s-2.62-21-2.62-21,21-23.66,17.74-51.93,3.29-31.55-15.77-71S501.4,353.53,501.4,353.53Z"/>
    <path class="cls-11" d="M395.57,373.25s2.63,24.32,17.75,30.89,21.69,20.38,33.52,20.38,12.49-2,27.61,7.23,32.87-4.6,46.67,0,28.27,18.41,46,18.41,28.26-4,30.23-10.52,9.86-10.52,0-28.27S533,373.25,523.09,373.25s-118.32-5.92-118.32-5.92Z"/>
    <path class="cls-11" d="M362,464.62c-.65,4.6-4.6,17.09,4.61,14.46s13.8-12.49,19.06,0,4.6,21,21,21,23.13-13.94,30-1.71,10.79,19.46,27.22,18.81,16.44-11.18,30.9-3.29,15.12,13.15,28.92,11.17,12.49-10.51,20.38-5.91,13.15,15.77,22.35,6.57,7.89-23,11.17-12.49S573.05,535,563.85,535s-15.12,7.23-19.72,9.86-13.27,14.75-11.9,20.85-3.16,17.51-6.48,7.86.63-23.45-4-26.08-4.79-4.54-13.57-5.88-14.7-4.63-20.61-5.95-9.21-.66-16.44,0-17.09,4.6-24.32-.66-10.52-12.49-13.8-17.74-6.58-8.55-13.81-7.89-15.77,7.23-26.29,2-13.15-9.86-15.78-13.15-1.31-9.2-5.91-10.52-7.23-6.57-10.52-8.54S362,464.62,362,464.62Z"/>
    <path class="cls-12" d="M452.1,220.08C435,225.34,393.6,273.33,390.31,295s-6.57,33.53-6.57,33.53-17.09,32.21,6.57,48c0,0,2,21,35.5,23.67,0,0,19.72,17.09,35.49,8.54,0,0,32.21,33.53,63.11,9.21,0,0,13.15,21.69,30.89,20.37s31.56-7.23,31.56-13.8c0,0,23-2.63,26.29-13.81s0-15.77,0-15.77,17.09-18.41,20.38-55.88-23-87.42-23-87.42Z"/>
    <path class="cls-13" d="M618.41,286.48c3.29,4.6,16.43,23,3.94,23.66s-13.14-2-20.37,3.29-4.61,23-5.26,30.24-3.29,13.8-15.12,11.83-19.72,0-22.35-8.55-1.32-26.29-6.58-28.92-5.91-7.89-21-7.23-25.64,6.57-36.15-2.63-9.21-15.78-17.1-18.41-13.14-1.31-26.95-3.28-21-6.58-25.63-10.52-13.15-9.86,0-24.32,37.47-17.09,63.76-7.23,69,25,86.11,28.26S618.41,286.48,618.41,286.48Z"/>
    <path class="cls-14" d="M642.73,258.21c-1.77-3.76,24.32-42.73,7.23-89.4S599.35,87.3,533.61,87.3s-114.38,43.39-120.29,73a328.85,328.85,0,0,0-5.92,57.19S387,255.58,418.58,258.21c0,0,15.77,38.13,54.56,20.38,0,0,26.95,39.44,64.42,18.4,0,0,16.43,13.15,23.66,16.44s0,17.09,0,21,2.63,20.38,23.66,15.12-2-35.49,4.61-39.44,20.37-5.26,23-8.54,19.72,2.62,26.3-11.84S648,269.39,642.73,258.21Z"/>
    <path class="cls-15" d="M424.49,199.05c3.95-19.72,17.09-53.9,26.3-61.79s17.74-18.41,35.49-19.72,46,3.29,63.11,0,39.44,0,49.3,6.57,23,32.21,28.92,42.07,11.18,29.58,13.81,30.24,5.25-19.06,0-32.87-27-46-39.44-51.27-23-16.43-50-18.41-65.08,5.92-87.43,19.07-37.47,26.29-40.1,39.44-9.2,28.26-9.86,38.78,1.32,15.12,3.95,17.75S424.49,199.05,424.49,199.05Z"/>
    <path class="cls-13" d="M395.57,339.06c6.57,16.44,20.38,18.41,30.24,28.27s5.91,17.09,21,17.09,15.12-9.2,24.32,0,9.86,17.09,27.61,17.75,16.44-11.83,34.18-2,28.27,22.35,37.47,14.46,15.78-19.06,23-13.81,13.8-10.51,14.46-2-15.12,17.75-19.72,18.41-8.54,10.52-19.06,11.83-22.35,5.92-28.27,0S530.32,414.66,525.72,414s-8.54,2.63-15.12,2.63-2.63,5.26-19.72-.66-17.09-6.57-24.32-10.51-7.23-.66-17.09-2.63-16.43-3.95-21-7.23-2.63,3.28-13.81-5.92-8.54-8.55-13.8-12.49a80.79,80.79,0,0,1-13.15-12.49c-3.29-3.94-8.55-2-5.26-13.8s11.83-19.72,13.15-21.7S395.57,339.06,395.57,339.06Z"/>
    <path class="cls-16" d="M408.72,238.49c9.2,2,20.72-10.57,24.49-5.29s-2.8,21.72,10.34,25,23,3.29,32.21,0,9.86-4.6,16.44,3.94,5.91,13.81,22.35,13.15,21.69-9.86,31.55-2,8.55,11.17,21,9.2,18.4-13.8,27.6-10.52,17.1,9.87,23.67,5.26,11.83-5.26,11.17-11.83-5.26-16.43,1.32-7.89,11.83,12.49,7.23,21-6.2,15.34-15.26,14.57-10.38-7.34-15-.11-25.64,6.57-27.61,13.15a35.06,35.06,0,0,0,1.32,23c3.28,7.89,5.26,16.44-2,13.81s-11.84-5.92-9.21-17.09,5.92-19.72-2-23-24.32-13.8-32.21-11.17S529,295.68,517.18,295s-15.78.66-22.35-3.94-8.55-4.6-11.83-8.55-3.95-7.89-7.89-8.54-2-.66-13.15.65-11.83,3.95-20.38-.65-7.23-3.29-13.8-9.86-4.6-12.49-9.2-13.15-10.52-1.31-11.84-5.26S408.72,238.49,408.72,238.49Z"/>
    <path class="cls-9" d="M401.81,608.25c10.52-4.6,40.1-20.38,58.51-25.64s35.49-15.78,45.35-21.69,7.89-5.92,5.92-5.26S477,573.37,469,576.68s-25.1,9.22-33,12.5-30.59,15-30.59,15Z"/>
    <path class="cls-9" d="M401.81,619.42s48-18.4,57.19-21.69,22.35-8.55,32.21-15.12,14.49-8.06,20.38-11.83-.66,2.63-.66,2.63-5.26,3.28-6.57,3.94-25.64,15.12-25.64,15.12-24.32,7.89-31.55,11.83-35.5,12.49-40.1,15.12S401.81,619.42,401.81,619.42Z"/>
    <path class="cls-9" d="M516.19,577.35s-28.26,23-35.5,27.61-26.95,12.49-33.52,17.09-17.75,9.86-23,11.18S409,638.49,409,638.49s13.81-2.63,21-4.61,19.06-11.83,26.95-15.12,25-11.83,28.27-13.14S507.65,585.9,509,585.9s7.23-7.23,7.23-7.23Z"/>
    <path class="cls-9" d="M411,593.13s19.06,41.41,20.37,42.73,13.15,25,13.15,25l-28.92-52.59L409,593.13Z"/>
    <path class="cls-9" d="M480.69,560.92l21,34.18,1.31-.66S496.47,580,494.5,578s-6.57-10.52-7.89-12.49S479.38,554.35,480.69,560.92Z"/>
    <path class="cls-9" d="M470.18,564.86l23,42.73-1.31,1.31s-22.35-42.72-23-44S470.18,564.86,470.18,564.86Z"/>
    <path class="cls-9" d="M452.43,570.78s14.46,30.89,17.75,36.81,7.89,12.49,9.2,13.8a4.09,4.09,0,0,1,1.31,2.63l-.65,1.32s-13.15-19.72-15.12-23.67-6.57-9.2-7.23-13.14-5.92-17.75-5.92-17.75Z"/>
    <path class="cls-9" d="M431.39,579.32s17.09,28.27,19.72,32.87,5.26,9.86,7.89,13.15,5.26,9.2,7.23,10.52a7.73,7.73,0,0,1,2.63,2.63l-1.31,1.31s-7.23-7.23-9.86-12.49-7.23-14.46-10.52-19.06S436.62,592.36,436,590.77s-5.9-10.79-5.9-10.79Z"/>
    <path class="cls-9" d="M409.7,631.25s11.83,27,15.78,31.56a83.73,83.73,0,0,1,7.89,11.83V676s-13.15-19.72-16.44-27-7.23-16.43-7.89-16.43-7.23-16.43-7.23-16.43l2-.66Z"/>
  </g>
  <path class="cls-9" d="M471.88,625.68c-.65-.09-21,12.3-25.45,15.65s-6.6,4.38-12.26,6.89S423,652,421.53,653.07s-7.53,1.59-7.62,2.24l-.19,1.3,15.34-5.13c2.78-.93,14.77-5.87,17-7.55s12.54-8.84,14-10,15.32-9.78,15.32-9.78l-2-.28Z"/>
</svg>
