<svg id="Layer_1" data-name="Layer 1" xmlns="http://www.w3.org/2000/svg" viewBox="0 0 1000 1000">
  <defs>
    <style>
      .cls-1 {
        font-size: 150px;
        fill: #ed2024;
        font-family: FreeSansBold, FreeSans;
      }

      .cls-2, .cls-3, .cls-4 {
        fill: #000;
      }

      .cls-3 {
        letter-spacing: -0.01em;
      }

      .cls-4 {
        letter-spacing: 0em;
      }

      .cls-5 {
        fill: #f5a223;
      }

      .cls-5, .cls-7, .cls-8 {
        stroke: #de8826;
        stroke-miterlimit: 10;
        stroke-width: 3px;
      }

      .cls-6 {
        fill: #fcb429;
      }

      .cls-7 {
        fill: #fcd900;
      }

      .cls-8 {
        fill: none;
      }

      .cls-9 {
        fill: #fef080;
      }
    </style>
  </defs>
  <title>ginger</title>
  <text class="cls-1" transform="translate(265.39 805.73)">G<tspan class="cls-2" x="116.7" y="0">i</tspan><tspan class="cls-3" x="158.4" y="0">ng</tspan><tspan class="cls-4" x="338.7" y="0">e</tspan><tspan class="cls-2" x="421.35" y="0">r</tspan></text>
  <g>
    <path class="cls-5" d="M492.67,585.36S457.34,559.69,417.52,557s-64.61-6.2-86.73-5.31-59.29,11.5-80.53,7.08-56.63-19.47-69.92-45.14c0,0-45.13-21-29.2-58.29s44.25-37.29,60.18-29.32,35.4,16.81,44.25,18.58a185.07,185.07,0,0,0,36.28,3.54h21.24s-51.33-.88-82.3-30.09-64.61-84.45-61.07-103.29,3.54-23.26,3.54-23.26-46-26.55-14.16-61.06,47.79-17.7,47.79-17.7,9.74-46.91,69-52.22,112.39,18.59,124.78,48.68,19.47,60.18,16.82,72.57-5.31,33-5.31,33l15.17,8.6s.76-31,9.61-39.82S420.17,234,473.27,239.33c0,0,28.32-49.56,81.42-38.94s86.73,25.66,92.92,73.45-13.27,75.82-14.16,86.58S614,409.75,614,409.75L517.52,519.87,506.9,561.46,529,570.31Z"/>
    <path class="cls-6" d="M439.64,495.09S426,483.23,398.28,481.2s-46.24-21.51-49.79-7.35-4.71,36.28-9.44,43.36-13.26,15-24.48,17.7-24.49-3.54-41.3-3.54-19.47,23-42.48-3.54-18.59-23.89-35.4-33.63S168,464.11,163.53,465s-10.62,9.73,0,23,23,17.7,29.2,28.32,16.82,15.85,30.09,24.29,28.32,13.76,39.83,12.88,37.48-4.43,51.92-5.31,60.47-1.77,71.09-.89,56,8,65.63,10.62,23.91,0,23.91,0L463.54,500.4Z"/>
    <path class="cls-7" d="M456.46,546.42s-7.07-47.79-7.08-53.1,14.16-13.28,17.7-18.59,3.54-18.58,8.85-28.32,10.62-15.93,23.89-24.78,11.51-28.32,32.75-37.17,76.77-16.17,95.9-7.64,18.92,43.93,20.36,53.66-3,38.55-11.84,52.46-33.62,58.17-42.47,63.48-44.25,36.28-54.87,38.94-35,7.5-47,0S456.46,546.42,456.46,546.42Z"/>
    <path class="cls-8" d="M427.38,323.4s5.18,15.93,12.26,19.47,13.28.25,21.24,8.53a181.59,181.59,0,0,1,14.32,17"/>
    <path class="cls-8" d="M439.64,342.87c-44.25-7.08-65.49,25.57-65.49,25.57"/>
    <path class="cls-8" d="M317.51,455.38s-20.35-52.33,46-50.56"/>
    <path class="cls-5" d="M339.05,447.3s6.78-25.67,30.68-27.44"/>
    <path class="cls-5" d="M439.64,404.77s-21,17.75-12.26,69.08"/>
    <path class="cls-6" d="M178.47,220.89S149.93,239.47,153.14,251s2.4,27.43,12.54,31,17.22.89,12.79,9.74-.88,45.38,5.31,56.32,31.86,49.88,48.68,62.27,56.64,16.77,66.37,25.64,11.22,0,11.22,0S312,410.65,328,406.36c0,0-30-4.14-48.6-5s-29.2.05-29.2-5.26S228.92,377.24,215.64,357s-14.16-1.62-21.24-40.56-4.42-46-4.42-60.18-2.66-3.54-7.08-19.47Z"/>
    <path class="cls-6" d="M544.07,296.85c-7.57,4.67-45.53,10.24-52,17.95s-7.32,20.75-5.55,27.06,26.55,1.65,38.94,0,29.2.91,31,4.06,0,9.23,0,9.23-25.16-8.15-45.94-1.32c0,0-17,4.52-24.77,8.7L478,366.71a50.21,50.21,0,0,0-5.34-6.29c-2.65-2.51-6.49-9-6.49-9s-6.78-8.18-11.8-9.54S437.28,337,437.28,337s-2.06-5.9-2.95-7.67-3.54-4.72-3.54-8.56,2.95-16.51,6.2-23.89,8.85-20.94,9.73-21.24-8,13.87,2.66,14.46,12.68-2.36,13.86.29,7.67-4.72,14.75-11.21,21.54-19.47,27.73-13-2.65,14.75-10.32,19.47-14.85,10.62-1.38,8.26,40.32-13,49.46-9.44S554.1,290.66,544.07,296.85Z"/>
    <path class="cls-8" d="M449.38,390.66s33.63-43.37,92-38.94,87.05,25.1,87.05,25.1"/>
    <path class="cls-6" d="M451.29,377.83c0-.15-7.45-11.51-18.84-15.49s-18-7.52-29.53-4-17.86,10.76-21.69,8.35,23-19.07,33.19-20.79,20.36-2.61,32.74,3.59,17.26,4.88,19.92,11.73-8.13,12.34-8.85,16.59S451,384,451.29,377.83Z"/>
    <path class="cls-6" d="M369.73,319c-13.28.19-41.11,3.1-53.3,7.08s-21,14.37-26.79,15.81-6.2-10.5,5.31-16.25,22.12-11.06,42-13.71,31.86-4,35.4,0S377.75,318.86,369.73,319Z"/>
    <path class="cls-6" d="M332.48,248.62c-1.44,2.65-31.78,5.75-44.17,12.83s-19.47,9.29-27,25.22-9.29,17.26-13.72,31-3.1,22.59-6.19,27-16.38-6.06-10.18-19,23-35.47,29.2-45.64,12.39-20.8,31-27S337.27,239.77,332.48,248.62Z"/>
    <path class="cls-8" d="M310.43,241.1S228.13,261.89,221.94,342c0,0-7.14,52.23,8.85,76.1"/>
    <path class="cls-8" d="M351.14,295.07s-71.94,5.52-85.75,46.79-15.31,75.4,5.8,98.82"/>
    <path class="cls-8" d="M195.39,244.46S177,266.27,173.26,291.54"/>
    <path class="cls-8" d="M226.94,433.58S195.73,447,200.25,488"/>
    <path class="cls-8" d="M298,448.18s-42.43,19.92-42.89,52.66"/>
    <path class="cls-8" d="M356.45,474.51s.89,52.35,13.28,78.72"/>
    <path class="cls-8" d="M375.4,465s5.13,55.12,5.46,68.61"/>
    <path class="cls-8" d="M395.84,467.21s1.79,44.25,2.44,51.77"/>
    <path class="cls-8" d="M406.9,469s6.19,53.1,3.54,72.13"/>
    <path class="cls-8" d="M439.64,488s-.44,37.61-1.77,50.88"/>
    <path class="cls-8" d="M510.88,439.31s-18.14,28.79-21.24,34.54-7.08,15.48-3.09,31.19"/>
    <path class="cls-8" d="M506.46,522.08c1.33,1.77,21.13,6.64,32.47,3.1"/>
    <path class="cls-9" d="M549.24,418.09c-3.08.25-18,16.38-29.51,30.09s-21.24,16.87-17.7,34.76-1.16,23.21,20.66,25.86,37.31,1.33,43.51-15.7,15-14,31-28.13,25.22-21.65,22.12-31.39-15-31.28-28.76-23.83-14.6,22.82-20.35,33.5-25.78,9.36-31.25,24-8.41,29.65-16.24,20.8-17.12-16-4.28-23,36.72-34,35.84-38.91S560.16,417.21,549.24,418.09Z"/>
    <path class="cls-8" d="M532.57,400c1.32-1.33,38.94-17.7,77-9.29"/>
    <path class="cls-8" d="M626.37,400s10.18,37.37-3.09,72.23"/>
    <path class="cls-8" d="M549.24,550.84c-5.61.44-47.65,3.54-60.48-4.42"/>
    <path class="cls-5" d="M641.14,337.47s-25.53-38.85-80.55-45.93"/>
    <path class="cls-5" d="M600.87,236.67s14,10.62,17.1,21.68"/>
    <path class="cls-5" d="M541,224.28s-19.47-1.77-30.09,7.52"/>
    <path class="cls-8" d="M465.75,295.07s-16.31,12.35-13.49,50.85"/>
    <path class="cls-8" d="M449.38,295.07s-14.32,19.39-14.1,44"/>
    <path class="cls-8" d="M514,291.54s-53.14,8.3-46.48,67.21"/>
    <g>
      <path class="cls-5" d="M793.06,508.55s38.06,25.5,42.75,38.32,9.58,23.82,11.65,36.15-.23,26.93-17.06,39.26S781.66,646.1,766.92,645s-42.91-7.23-61.65-11.53-46.08-8.4-58.84-16.24-20.1-16.27-23.17-26.38-4.3-27.19,7.26-35.63,88.84-24.77,102.68-22.07S793.06,508.55,793.06,508.55Z"/>
      <path class="cls-7" d="M622.08,586.11s31.49,14.26,48.77,21.59,37.78,12.09,61.25,15.46,32.77,2.74,46.84-1,23.43-5,33.85-19,14.5-19.77,12.19-25.65-2-7.66.63-17.21,2.21-17.65-1.47-24.27-10.45-25.05-40.64-37-61-5.14-77,.89S689,512.58,668.7,524,610.38,549.73,622.08,586.11Z"/>
      <path class="cls-9" d="M703.57,515.64c3.53-3.59,21-10.55,34-12.06s9.67,2.34,13,8.29,20.36,14.4,23.7,18.87,9.88.83,15.67,13.41,16.68,20.5,4.32,32.25-12.54,16.77-29.58,18.92-17.07,7.41-35.73,7.78-20.71,6.26-36.9-.11-43.9-6.52-25.43-11,30.38,3.23,44.11-9.83,13.69-16.57-8.77-9.59-52.47,14.61-32-1.11,39.51-17.79,33.82-29.71-13-9.92-5.95-15.46S703.57,515.64,703.57,515.64Z"/>
      <path class="cls-8" d="M805.74,577.65s-32.4,36.48-73.62,19.77"/>
      <path class="cls-8" d="M779.55,551.85C775.06,560,765.17,571,765.17,571"/>
      <path class="cls-8" d="M743.81,516.2s25.39,2.78,38.4,9.48"/>
    </g>
    <g>
      <path class="cls-5" d="M577.26,501.28s-19.87,42-16.67,55.31,5.16,25.23,10.47,36.73,15.93,22.57,38.5,23.9S668,611,680.8,602.17s35-29.2,49.56-42.92,37.17-31.9,44.25-45.38,8.85-24.54,5.75-34.71-11.94-25.22-27.43-26.11-95.58,27-106.64,36.73S577.26,501.28,577.26,501.28Z"/>
      <path class="cls-7" d="M778.66,474.51s-20.42,29-31.93,44.47-27.43,30.53-46.9,46-28.32,20-43.37,24.36-24.33,8.39-42,2.19-24.78-8.85-26.11-15-2.65-7.53-10.62-14.16-12.33-13.68-12.83-21.24-5.09-26.74,15.49-53.1S633,450.84,651.15,447.3s23.46,1.33,48.68,0S768.11,437.56,778.66,474.51Z"/>
      <path class="cls-9" d="M663.1,459c-5.31-1.12-25.31,2.42-38.1,8.17s-7.46,7.18-7,14-10.18,23.09-10.62,28.67-8.54,6-6.48,19.73-3.26,26.26,14.88,29.5,21.24,7.38,38.06,0,19.91-3,37.17-12.68,22.57-5.89,33.63-20,36.28-29.14,16.81-23-25.85,19.1-46,15.49-22.17-6.59,2.41-12.81,56.45-15.95,28.57-18.16-46.46,6.29-48.23-6.81,6.09-15.37-3.59-16.23S663.1,459,663.1,459Z"/>
      <path class="cls-8" d="M606,566.33s50.89,13.27,78.76-23"/>
      <path class="cls-8" d="M614.87,530.49c8.85,4.42,24.34,8.4,24.34,8.4"/>
      <path class="cls-8" d="M626.69,481.2s-21.55,16-29.52,28.67"/>
    </g>
  </g>
</svg>
