<svg id="Layer_1" data-name="Layer 1" xmlns="http://www.w3.org/2000/svg" viewBox="0 0 1000 1000">
  <defs>
    <style>
      .cls-1 {
        font-size: 150px;
        fill: #ed2024;
        font-family: FreeSansBold, FreeSans;
      }

      .cls-2 {
        letter-spacing: -0.02em;
      }

      .cls-3 {
        letter-spacing: -0.01em;
      }

      .cls-3, .cls-4 {
        fill: #000;
      }

      .cls-5 {
        fill: #e4bf74;
      }

      .cls-10, .cls-14, .cls-17, .cls-20, .cls-5, .cls-6, .cls-8 {
        stroke: #6c3515;
      }

      .cls-10, .cls-12, .cls-14, .cls-15, .cls-17, .cls-20, .cls-5, .cls-6, .cls-8 {
        stroke-miterlimit: 10;
      }

      .cls-12, .cls-14, .cls-15, .cls-17, .cls-20, .cls-5, .cls-6, .cls-8 {
        stroke-width: 3px;
      }

      .cls-6 {
        fill: #dd7830;
      }

      .cls-7 {
        fill: #c06828;
      }

      .cls-8 {
        fill: #fcba76;
      }

      .cls-9 {
        fill: #fcfad8;
      }

      .cls-10, .cls-22 {
        fill: #fff;
      }

      .cls-10 {
        stroke-width: 2px;
      }

      .cls-11 {
        fill: #231f20;
      }

      .cls-12 {
        fill: #ef3f24;
        stroke: #991c1f;
      }

      .cls-13 {
        fill: #f37462;
      }

      .cls-14 {
        fill: #ffce09;
      }

      .cls-15, .cls-21 {
        fill: #683113;
      }

      .cls-15 {
        stroke: #4b260f;
      }

      .cls-16 {
        fill: #4c210c;
      }

      .cls-17 {
        fill: #9b5223;
      }

      .cls-18 {
        fill: #b56828;
      }

      .cls-19 {
        fill: #e5a362;
      }

      .cls-20 {
        fill: none;
        stroke-linecap: round;
      }
    </style>
  </defs>
  <title>hen</title>
  <g>
    <text class="cls-1" transform="translate(354.43 823.99)"><tspan class="cls-2">H</tspan><tspan class="cls-3" x="105.3" y="0">e</tspan><tspan class="cls-4" x="186.45" y="0">n</tspan></text>
    <path class="cls-5" d="M458.49,583.85s5.13,35.25-1.28,44.86c0,0-21.79-2.56-33.33,1.28a78.65,78.65,0,0,0-20.51,10.26,31.77,31.77,0,0,0-6.41,7c-.64,1.28-1.92,10.89,4.49,8.33s11.53-9,14.74-10.26,7.05-3.2,10.25-2.56.64,1.92.64,1.92-10.89,5.77-15.38,11.54-5.77,7.05-5.77,9-1.28,7,2.57,7,8.33-.64,13.46-7.69,13.46-10.9,15.38-10.9-.64,2.57-.64,2.57-9,9-9.62,11.53-3.2,7.05-1.92,9,2.57,3.2,4.49,3.2,8.33-5.13,12.17-10.25,16-12.18,20.51-13.46,12.18-3.21,16.67-3.21,14.74,2.57,18.58,4.49,11.54,1.28,7.69-4.49-17.94-13.46-17.94-13.46-13.46-3.84-16.66-3.84,0-10.26,0-10.26,3.2-19.22,3.2-25.63-.64-16-.64-16Z"/>
    <path class="cls-6" d="M388.63,537.7A57.57,57.57,0,0,0,418.75,573c24.36,11.54,39.74,12.82,49.35,14.74s30.77-3.84,39.74-16-11.54-35.89-11.54-35.89l-42.94-6.41-35.89,10.25Z"/>
    <path class="cls-5" d="M536.68,583.85s9.61,36.53,1.92,58.32l-1.28,1.28s-15.38-3.2-23.71-1.92-20.51,6.41-23.72,8.33-9,7.69-9.61,9-1.28,5.13.64,6.41,5.13.64,7.05-.64a56.14,56.14,0,0,0,6.41-5.13c1.28-1.28,11.54-5.77,15.38-4.48s0,1.92,0,1.92-10.25,5.77-13.46,9-6.41,5.13-7.05,8.33,0,8.34.64,8.34,1.93,3.84,12.82-5.13,15.38-10.26,16-10.26,0,1.29,0,1.29-7.05,7.69-7.69,9.61c0,0-5.12,8.33-2.56,12.82s12.18-5.77,12.18-5.77,11.53-10.9,23.71-16.66a28.8,28.8,0,0,1,22.43-1.29s7.05,3.21,11.54,1.29,7-3.85,6.41-5.77-7-9.62-21.15-11.54S550.14,646,550.14,646s4.48-14.74,4.48-21.15.64-37.81-1.92-42.94S536.68,583.85,536.68,583.85Z"/>
    <path class="cls-7" d="M405,557.89s19.87,14.1,26.28,16,17.3,4.49,26.28,6.41,19.87,4.49,26.92,1.92,12.81-6.41,13.45-9.61,1.93-12.82-4.48-10.25-8.33,8.33-21.79,8.33-21.15-.64-32.69-5.13-14.74-3.85-22.43-7.05S401.77,556,405,557.89Z"/>
    <path class="cls-6" d="M409.78,199.3s-41-.64-61.53,23.72-39.73-18.59-46.14,10.25-19.87,69.22-22.43,110.24S279,462.72,316.85,501.17s103.83,58.32,155.74,59c0,0,37.17,37.82,73.7,32s50.63-33.33,57.68-49.35,61.53-4.49,109-180.1c0,0,42.3-2.56,51.91-30.12,0,0,4.49-14.1-27.56-6.41,0,0,25-24.35,25.64-37.17,0,0,2.56-24.35-18.59-9.61,0,0-19.87,13.46-24.35,21.79,0,0,11.53-26.28,10.25-33.33,0,0-.64-16-19.87-4.49,0,0-25,17.31-34,48.71,0,0-58.33,7.69-78.19-1.92s-51.28-24.35-66-55.76-48.71-10.25-48.71-10.25S450.16,194.18,409.78,199.3Z"/>
    <path class="cls-7" d="M564.24,294.16s-33.18-4-45.51,8.33c-1.28,1.28-5.76,9.61-6.41,11.54s-5.76,9-10.89,11.53-19.23,9-23.71,8.33-10.26-7.69-12.18-5.12-2.57,6.41-5.13,10.89S454,351.2,448.23,353.12s-13.46,2.56-17.94,1.28-11.54-5.77-16,1.93S397,376.83,388,380s-21.79,10.89-32.69,6.41S333.51,382,327.74,373s-3.2-22.43-9.61-21.15-15.38,5.13-23.71,4.49S281,360.81,280.32,355s3.2-21.79,3.84-24.35,24.36-23.07,25-23.71,42.94-7.05,43.58-6.41S388,312.74,388,312.74s51.91-25.63,67.93-32.68,28.85-14.74,42.3-17.31,33.33,6.41,33.33,6.41l11.54,7.69s13.46,10.26,15.38,11.54S566.8,294.16,564.24,294.16Z"/>
    <path class="cls-7" d="M284.8,396.7s25.64,62.81,45.51,78.83,28.84,32.05,73.7,48.07,38.46-1.28,37.81-3.2-16-30.13-16.66-34-18.58-45.51,12.18-3.85,35.25,51.92,42.94,60.25S504,562.06,511,564s10.9,4.48,10.9,1.92-2.57-6.41-5.13-10.89-5.77-9.62-4.49-11.54,14.75,11.54,18.59,13.46,21.79,13.46,51.27-7.69,16-1.93,15.38,0-10.89,16.66-12.17,17.94S573.85,582.56,554,586.41s-53.83-8.33-64.73-16.66S477.07,555.65,472,555s-27.56,1.28-35.89-1.29c0,0-26.28-2.56-51.28-13.46s-37.81-15.38-59.6-33.32-35.25-59-35.25-59-5.77-23.07-7.05-36.53-2.56-17.94-1.92-19.22S284.8,396.7,284.8,396.7Z"/>
    <path class="cls-7" d="M680.24,308.9c0-1.28,25-31.41,28.84-27.56s-4.48,20.51-4.48,20.51-9,16.66-9.62,19.87-.64,9.61,3.21,7.69,8.33-6.41,14.1-9.62,9-6.41,12.17-8.33,9-4.48,7.69-.64-16,24.36-16.66,25-7.69,9-7,10.89,7-2.56,9.61-3.2,18.59-6.41,18.59-.64-7,13.46-7,13.46-1.92,1.92,0,1.28,18.59-7.05,24.36-12.82,11.53-13.46,9-16-13.46-2.57-16.67-1.93-9.61,3.85-10.89,2.57-2.56-2.57-.64-4.49S745,314,746.25,312.74s13.46-17.3,14.1-23.71,1.93-10.9-1.28-11.54-10.25,1.93-12.82,3.21-11.53,5.77-14.1,9.61a51.11,51.11,0,0,1-7,8.33,36.58,36.58,0,0,1-6.4,5.13c-1.29.64-4.49,1.92-1.93-3.2s6.41-10.9,7.05-14.1S729,273.65,727,271.08s-3.21-3.2-10.26-1.28-9.61,3.85-13.46,7.69-5.12,4.49-9,9S680.24,308.9,680.24,308.9Z"/>
    <path class="cls-8" d="M395.68,113.42s-41,5.77-58.32,33.33S309.16,207,309.16,207s-11.54,37.82-13.46,44.23-12.82,56.4-13.46,59.6-4.49,26.28-4.49,29.48,30.13,16.67,46.79-21.15c0,0,1.28-2.56,1.28.64s2.56,40.38,25,42.94,41.66-1.28,48.06-17.94,7.7-19.87,8.34-23.71,3.84-4.49,5.76-.65,10.26,16.67,16,17.95,16-1.28,17.3-7.05a87.57,87.57,0,0,0,2.56-19.87s-1.28-6.41,5.13-2.56,9,7.05,17.95,7.69,17.3-3.21,19.22-10.26a94.51,94.51,0,0,0,5.13-18.58,104.61,104.61,0,0,0,1.28-12.82s-.64-3.85,1.93-1.28,12.17,9.61,17.94,11.53,16,3.21,17.95,1.93,10.25-7.69,10.25-10.9v-2.56s-19.87-31.41-21.15-34-17.3-34.61-17.94-36.53-15.39-35.89-32.69-54.48-25-32-49.35-36.53S395.68,113.42,395.68,113.42Z"/>
    <path class="cls-9" d="M373.89,203.79s51.27-18.59,59,9S402.09,241.6,397,240.32s-31.4-13.46-34.61-16.66-23.71,2.56-23.71,2.56-28.84,10.26-27.56-14.1,24.35-14.74,24.35-14.74l21.15,6.41Z"/>
    <ellipse class="cls-10" cx="340.62" cy="182.48" rx="15.74" ry="16.5"/>
    <ellipse class="cls-10" cx="400.87" cy="187.89" rx="15.74" ry="16.54"/>
    <ellipse class="cls-11" cx="340.41" cy="182.59" rx="10.6" ry="11.49"/>
    <ellipse class="cls-11" cx="400.65" cy="189" rx="10.6" ry="11.49"/>
    <path class="cls-12" d="M350.18,212.12s-16.67,14.1-17.95,25,.64,18.58,3.85,21.15a17.68,17.68,0,0,0,18.58,1.92c8.33-3.85,11.54-42.3,11.54-42.3Z"/>
    <path class="cls-12" d="M359.79,214.69s-11.54,10.25-13.46,22.43,1.28,25,7.05,26.92,19.23,5.76,24.35-9,.65-34.61-1.28-37.81S359.79,214.69,359.79,214.69Z"/>
    <path class="cls-13" d="M338.64,239v.14c0,1.35,0,12.12.64,13.32s-1.28.64-1.92,0a12.4,12.4,0,0,1-2.57-7.05,9.26,9.26,0,0,1,2.57-5.77S338.64,238.4,338.64,239Z"/>
    <path class="cls-13" d="M354.66,241v.14c0,1.35,0,12.12.64,13.32s-1.28.64-1.92,0a12.37,12.37,0,0,1-2.56-7,9.31,9.31,0,0,1,2.56-5.77S354.66,240.32,354.66,241Z"/>
    <path class="cls-14" d="M368.12,189.05s-26.92,15.38-28.84,19.23a3.43,3.43,0,0,0,1.92,5.12s12.18,3.21,17.31,3.21c0,0,9.61,10.25,16.66,6.41s5.77-14.1,5.77-14.1S378.38,192.25,368.12,189.05Z"/>
    <path class="cls-15" d="M554.62,339.66c3.21-1.28,40.38-7.69,60.89-4.48s59.6,19.22,62.81,25S677,372.35,677,372.35s53.19,19.22,32,38.45c0,0,30.77,12.82,21.79,30.12s-25,34-44.22,39.1-13.46,7.05-13.46,7.05,18.59,12.18,3.21,18.59a169.63,169.63,0,0,1-80.12,12.17c-36.53-3.2-78.83-37.81-78.83-37.81l-16.66-87.8,21.15-30.13Z"/>
    <path class="cls-16" d="M625.76,339s28.84,10.9,30.13,16,3.2,7-6.41,8.34-19.23-1.93-25,0-11.53,5.12-6.41,8.33,14.74,3.2,21.15,3.2,31.41,3.21,34.61,5.77,13.46,11.54,6.41,15.38-23.71,5.77-30.76,7.05A129.33,129.33,0,0,1,630.89,405c-3.2,0-6.41,3.21-3.84,3.85s62.8,3.2,62.8,3.2,29.49,6.41,29.49,9.62-6.41,17.94-12.18,21.79S687.29,455,681.52,458.23s-27.56,8.33-34.61,10.25-45.5,14.74-53.19,14.1,4.49,5.77,4.49,5.77h66s4.48.64,2.56,3.21-19.87,10.89-31.4,11.53-35.25,4.49-45.51,1.92-18.58-4.48-26.27-10.25S535.4,455,532.83,450.54s-5.76-54.48,0-58.32,21.79-19.87,26.28-22.44S625.76,339,625.76,339Z"/>
    <path class="cls-17" d="M477.72,363.38s21.79-35.9,63.44-38.46S604,339,604,339s17.95,14.74,5.13,28.2c0,0-8.33,6.41-14.1,5.77,0,0,20.51,13.46,20.51,32s-21.15,23.08-21.15,23.08,16,17.94,9,28.2-16,12.17-23.07,11.53a74.16,74.16,0,0,1-9.61-1.28s9.61,10.26,7.69,17.3-6.41,16-15.38,15.39-30.26-8.15-30.26-8.15-21-10.44-33.19-23.26-18.59-26.92-25-48.07S470,376.83,477.72,363.38Z"/>
    <path class="cls-18" d="M593.08,339s11.53,20.51-36.53,21.15c0,0,71.78,55.12,1.28,48.07,0,0,40.38,50.63-17.31,34,0,0,45.51,83.31-55.75-8.34,0,0,8.33,29.49,29.48,44.23s40.37,17.3,40.37,17.3,12.18,1.28,16-2.56,7.05-10.26,4.48-15.38-6.41-10.9-7.69-12.18,0-3.85,1.92-3.21,7,2.57,10.26,2.57,10.89.64,12.82-1.28,12.82-5.13,9.61-16-15.38-19.22-15.38-19.22-1.28-1.93,1.92-2.57,18.59,0,21.79-9.61,7.69-16-3.84-26.28a209,209,0,0,0-22.43-17.3s-3.21-2.57,1.28-3.21,15.38,3.85,20.51-2.56,5.76-8.33,3.84-16-5.13-10.26-9-11.54S592.44,337.1,593.08,339Z"/>
    <path class="cls-19" d="M491.17,185.2s42.3,82.68,50.64,88.45c0,0-1.29,23.71-28.2,6.41l-14.74-9.62s-3.85-3.2-4.49,1.93-.64,25.63-4.49,31.4-16,18.59-31.4,5.13S447,305.69,447,305.69s1.92,16.67-1.92,21.79-3.85,8.34-8.33,8.34-12.18,1.28-16.67-9-7-17.3-8.33-17.94-2.56-.64-3.84,2.56-3.85,14.74-5.13,18.59-5.77,14.1-8.33,17.3-11.54,11.54-20.51,12.82-21.79,4.49-28.84-3.84-13.46-10.9-14.74-23.08a177.69,177.69,0,0,0-2.57-17.94,3.61,3.61,0,0,0-3.84,0c-1.92,1.28-5.13,12.17-10.9,17.3s-7.05,9-15.38,9.62S281,339,281,339s3.2-25.64,6.41-32.69c0,0,19.87-3.2,28.2-15.38s.64.64.64.64-4.49,5.13-1.92,7.69,8.33,0,10.89-3.2,8.33-8.33,9-6.41-1.28-1.28-.64,3.21,3.21,15.38,9,17.3,17.95,8.33,43.59-26.28c0,0,3.2-3.2,2.56.64s1.92,17.95,17.95,10.9,17.3-15.38,24.35-16.66,12.18,0,15.38,1.92,13.46,14.1,18.59,9,12.17-14.74,11.53-26.28,1.29,0,1.29,0,5.12,17.31,14.1,2.57,12.17-23.07,9-42.3-10.9-37.82-10.9-37.82S488,181.36,491.17,185.2Z"/>
    <line class="cls-20" x1="370.04" y1="216.61" x2="358.51" y2="216.61"/>
    <g>
      <path class="cls-12" d="M369.4,153.16s15.28-52.06,73-34.69c0,0,7.1-5.69,6.45-12.1s-4.48-16-14.1-19.22a17.62,17.62,0,0,0-16.66,3.2S420,82,413.63,76.89s-19.23-5.13-26.28,2.56-11.54,15.39-10.9,23.08c0,0-10.89-5.13-14.74,1.92,0,0-6.41,5.13-5.13,25.64C356.58,130.09,359.79,144.83,369.4,153.16Z"/>
      <path class="cls-13" d="M389.91,95.48s9.62-12.82,20.51-7.69c0,0,3.85,0,0-4.49,0,0-6.41-4.49-13.46-1.28,0,0-7,3.2-8.33,7a14,14,0,0,0-.64,3.84C388,94.84,389.27,96.12,389.91,95.48Z"/>
      <path class="cls-13" d="M371.33,109.58s-9,5.77-9.62,14.1c0,0-.64,1.28-1.28-.64s0-5.13,1.92-9.62,7-4.48,7.69-4.48S372,108.94,371.33,109.58Z"/>
      <path class="cls-13" d="M426.44,95.48s10.26,2.56,12.18,5.77S439.9,100,439.9,100s-.64-3.84-3.84-5.12-6.41-1.93-8.33-1.29S424.52,95.48,426.44,95.48Z"/>
    </g>
    <path class="cls-21" d="M465.41,593.92h-3.68a1.92,1.92,0,0,0,0,3.84h3.68A1.92,1.92,0,0,0,465.41,593.92Z"/>
    <path class="cls-21" d="M465.08,603.11l-3.34-.35a1.94,1.94,0,0,0-1.93,1.93,2,2,0,0,0,1.93,1.92l3.34.34A1.93,1.93,0,0,0,467,605,2,2,0,0,0,465.08,603.11Z"/>
    <path class="cls-21" d="M466.38,617.11c-1.54-.66-3.08-1.29-4.65-1.86a1.92,1.92,0,0,0-1,3.71c1.25.46,2.5.94,3.72,1.47a2,2,0,0,0,2.64-.69A2,2,0,0,0,466.38,617.11Z"/>
    <path class="cls-21" d="M463.57,628.62l-3-2.71a1.92,1.92,0,0,0-2.72,2.72l3,2.71a1.92,1.92,0,1,0,2.72-2.72Z"/>
    <path class="cls-21" d="M453.71,638a85,85,0,0,0-7-9.56c-1.6-1.89-4.31.84-2.72,2.72a77.72,77.72,0,0,1,6.42,8.78C451.71,642,455,640.1,453.71,638Z"/>
    <path class="cls-21" d="M547.17,598.55a47.5,47.5,0,0,0-6.19-.47c-2.47,0-2.47,3.84,0,3.85a37.2,37.2,0,0,1,5.17.33,2,2,0,0,0,2.37-1.34A2,2,0,0,0,547.17,598.55Z"/>
    <path class="cls-21" d="M548.67,608.77l-5.84.44c-2.45.18-2.47,4,0,3.84l5.84-.43C551.13,612.43,551.15,608.59,548.67,608.77Z"/>
    <path class="cls-21" d="M550,620.38a53.38,53.38,0,0,0-6.69-.39c-2.47,0-2.47,3.85,0,3.84a55.36,55.36,0,0,1,6.69.4,1.94,1.94,0,0,0,1.92-1.93A2,2,0,0,0,550,620.38Z"/>
    <path class="cls-21" d="M548,631.25a33.94,33.94,0,0,0-4.68-1,2,2,0,0,0-2.37,1.34,2,2,0,0,0,1.35,2.37,32.83,32.83,0,0,1,4.68,1C549.38,635.65,550.4,631.94,548,631.25Z"/>
    <path class="cls-21" d="M545,645.13l-4.24-2.92a1.94,1.94,0,0,0-2.63.69,2,2,0,0,0,.69,2.63l4.24,2.92a1.94,1.94,0,0,0,2.63-.69A2,2,0,0,0,545,645.13Z"/>
    <path class="cls-21" d="M425.42,635.21a8.49,8.49,0,0,1-1.36-2.68,1.92,1.92,0,1,0-3.71,1,11.91,11.91,0,0,0,1.75,3.6,2,2,0,0,0,2.63.69A2,2,0,0,0,425.42,635.21Z"/>
    <path class="cls-21" d="M415.52,639.24q-1.29-1.77-2.57-3.55a2,2,0,0,0-2.63-.69,1.94,1.94,0,0,0-.69,2.63l2.57,3.56a2,2,0,0,0,2.63.69A2,2,0,0,0,415.52,639.24Z"/>
    <path class="cls-21" d="M404.54,647c-.69-1-1.39-2.06-2.08-3.1a2,2,0,0,0-2.63-.69,2,2,0,0,0-.69,2.63l2.08,3.11a1.93,1.93,0,1,0,3.32-1.95Z"/>
    <path class="cls-21" d="M430.62,649.28l-1.57-1.47-.74-.69c-.12-.11-.25-.23-.36-.35l0,0a1.91,1.91,0,0,0-1.8-1.33,2,2,0,0,0-1.92,1.93,4,4,0,0,0,1.67,2.76q1,1,2,1.89a1.92,1.92,0,0,0,2.71-2.71Z"/>
    <path class="cls-21" d="M421.22,656.59l-3.6-4.34a1.93,1.93,0,0,0-2.72,0,2,2,0,0,0,0,2.72l3.6,4.34a1.92,1.92,0,1,0,2.72-2.72Z"/>
    <path class="cls-21" d="M414.56,664.42q-2-1.83-3.82-3.79c-1.69-1.81-4.41.91-2.72,2.72,1.23,1.3,2.5,2.57,3.82,3.79C413.65,668.81,416.38,666.1,414.56,664.42Z"/>
    <path class="cls-21" d="M443.85,658.12c-1.58-.64-3.14-1.32-4.74-1.92a1.92,1.92,0,0,0-1,3.71c1.59.6,3.16,1.27,4.74,1.92a1.93,1.93,0,0,0,2.36-1.35A2,2,0,0,0,443.85,658.12Z"/>
    <path class="cls-21" d="M439,666l-2.77-1.71a9.89,9.89,0,0,1-2.49-1.62,1.93,1.93,0,0,0-2.72,0,2,2,0,0,0,0,2.72,11.07,11.07,0,0,0,2.9,2l3.14,1.94C439.16,670.57,441.09,667.25,439,666Z"/>
    <path class="cls-21" d="M433.85,672.54c-1.94-.85-3.84-1.8-5.7-2.82-2.16-1.21-4.1,2.11-1.94,3.32,1.86,1,3.76,2,5.7,2.83a2,2,0,0,0,2.63-.69A2,2,0,0,0,433.85,672.54Z"/>
    <path class="cls-21" d="M516.83,647.75l-1.25-4.52c-.65-2.38-4.36-1.37-3.7,1,.41,1.51.82,3,1.24,4.52C513.77,651.15,517.49,650.14,516.83,647.75Z"/>
    <path class="cls-21" d="M505.68,651.76c-.36-1.74-1.46-3.33-1.65-5.09a2,2,0,0,0-1.92-1.93,1.94,1.94,0,0,0-1.93,1.93c.24,2.17,1.35,4,1.79,6.11C502.48,655.2,506.19,654.17,505.68,651.76Z"/>
    <path class="cls-21" d="M493.24,654.89a8.92,8.92,0,0,1-1.18-3,1.93,1.93,0,1,0-3.71,1,12.82,12.82,0,0,0,1.57,3.88,1.93,1.93,0,1,0,3.32-2Z"/>
    <path class="cls-21" d="M515,663,513,660.78a10.08,10.08,0,0,1-1.6-2,1.94,1.94,0,0,0-2.63-.69,2,2,0,0,0-.69,2.63,12,12,0,0,0,2,2.53l2.15,2.49a1.93,1.93,0,0,0,2.72,0A2,2,0,0,0,515,663Z"/>
    <path class="cls-21" d="M505.31,668.42l-1.44-2.27a7.93,7.93,0,0,1-1.1-2c-.65-2.38-4.36-1.37-3.71,1,.51,1.89,1.89,3.56,2.93,5.2C503.31,672.44,506.64,670.51,505.31,668.42Z"/>
    <path class="cls-21" d="M498.86,674.07l-3.7-4.58a1.94,1.94,0,0,0-2.72,0,2,2,0,0,0,0,2.72l3.7,4.58a1.93,1.93,0,0,0,2.72,0A2,2,0,0,0,498.86,674.07Z"/>
    <path class="cls-21" d="M526.68,672.88a67,67,0,0,0-8.1-3c-2.38-.69-3.4,3-1,3.71a59.55,59.55,0,0,1,7.18,2.56C527,677.17,529,673.86,526.68,672.88Z"/>
    <path class="cls-21" d="M517.76,676.9a36.85,36.85,0,0,1-3.81-1.38,2,2,0,0,0-2.63.69,1.93,1.93,0,0,0,.69,2.63,46.3,46.3,0,0,0,4.73,1.77C519.11,681.33,520.12,677.62,517.76,676.9Z"/>
    <path class="cls-21" d="M519.33,683.65a51.36,51.36,0,0,1-8.78-1.6c-2.39-.65-3.41,3.06-1,3.71a57.15,57.15,0,0,0,9.8,1.73C521.79,687.71,521.78,683.87,519.33,683.65Z"/>
    <path class="cls-21" d="M559.11,651.58l-2.85,5.25c-1.18,2.18,2.14,4.12,3.32,1.95l2.85-5.26C563.61,651.34,560.29,649.4,559.11,651.58Z"/>
    <path class="cls-21" d="M578.15,654.87a2,2,0,0,0-2.72,0,20.28,20.28,0,0,0-5,6c-1.19,2.17,2.13,4.11,3.32,1.94a17.47,17.47,0,0,1,4.43-5.25A1.93,1.93,0,0,0,578.15,654.87Z"/>
    <path class="cls-21" d="M479.69,637.68a1.94,1.94,0,0,0-2.72,0,35.11,35.11,0,0,0-2.76,3.89,1.92,1.92,0,1,0,3.32,1.94,26.55,26.55,0,0,1,2.16-3.11A2,2,0,0,0,479.69,637.68Z"/>
    <path class="cls-21" d="M492.15,641.18a1.93,1.93,0,0,0-2.63-.69l-4.69,3.34a2,2,0,0,0-.69,2.63,2,2,0,0,0,2.63.69l4.69-3.34A2,2,0,0,0,492.15,641.18Z"/>
    <path class="cls-22" d="M337.09,171.87c-5.77,0-5.78,9,0,9S342.88,171.87,337.09,171.87Z"/>
    <path class="cls-22" d="M398.45,177.55c-5.77,0-5.78,9,0,9S404.24,177.55,398.45,177.55Z"/>
  </g>
</svg>
