<svg id="Layer_1" data-name="Layer 1" xmlns="http://www.w3.org/2000/svg" viewBox="0 0 1000 1000">
  <defs>
    <style>
      .cls-1 {
        font-size: 150px;
        fill: #ed2024;
        font-family: FreeSansBold, FreeSans;
      }

      .cls-2 {
        letter-spacing: -0.02em;
      }

      .cls-3 {
        letter-spacing: 0em;
      }

      .cls-3, .cls-4 {
        fill: #000;
      }

      .cls-10, .cls-5, .cls-9 {
        fill: #d9a980;
      }

      .cls-10, .cls-11, .cls-12, .cls-14, .cls-5 {
        stroke: #b27f66;
      }

      .cls-10, .cls-11, .cls-12, .cls-14, .cls-15, .cls-19, .cls-5, .cls-8 {
        stroke-miterlimit: 10;
      }

      .cls-14, .cls-19, .cls-5 {
        stroke-width: 3px;
      }

      .cls-6 {
        fill: #c59175;
      }

      .cls-7 {
        fill: #8d402c;
      }

      .cls-8 {
        fill: #633c35;
        stroke: #573631;
      }

      .cls-10, .cls-11, .cls-12 {
        stroke-width: 2px;
      }

      .cls-11, .cls-13 {
        fill: #3f3c3b;
      }

      .cls-12 {
        fill: none;
      }

      .cls-14 {
        fill: #fff;
      }

      .cls-15 {
        fill: #181717;
        stroke: #e6e7e7;
        stroke-linecap: round;
      }

      .cls-16 {
        fill: #010101;
      }

      .cls-17 {
        fill: #b27f66;
      }

      .cls-18 {
        fill: #e6e7e7;
      }

      .cls-19 {
        fill: #794d47;
        stroke: #553633;
      }

      .cls-20 {
        fill: #663934;
      }

      .cls-21 {
        fill: #8c5753;
      }
    </style>
  </defs>
  <title>head</title>
  <text class="cls-1" transform="translate(324.03 822.81)"><tspan class="cls-2">H</tspan><tspan class="cls-3" x="105.3" y="0">e</tspan><tspan class="cls-4" x="187.95" y="0">ad</tspan></text>
  <g>
    <path class="cls-5" d="M323,395.41s-26-116.88-9.35-155S421.82,171,509.31,173s160.31,43.42,171,72.81,0,137.59-3.34,156.29c0,0,11.36-24.71,22.71-23.38s23.38,19.37,20.71,44.76S701,477.57,701,477.57,679,512.3,667,482.91c0,0-8,43.42-20,67.46s-43.42,64.12-56.78,77.48-39.4,46.76-73.47,46.76-54.77-3.34-62.12-6.68-50.76-45.42-70.8-70.8S353,553,345,533.67s-10.68-45.42-10.68-45.42-16,20-32.06-10-18.71-42.08-19.37-51.43-.67-38.08,12-44.09S315.62,382.05,323,395.41Z"/>
    <path class="cls-6" d="M690.32,471.56s-8,8.68-11.35,9.35-6-8.69-4.68-19.37,18-65.46,20.71-66.8,12,3.34,15.36,17.37,2,26.05,0,25.38-8.68-4.67-10.69-2.67,2.68,10-4,16-8.69,7.35-7.35,12A86.23,86.23,0,0,1,690.32,471.56Z"/>
    <path class="cls-6" d="M329,478.24c.67-1.34,0-34.07-8.68-56.11s-14-35.4-20.7-24.71-8.69,36.73-8.69,38.74,8.69-3.34,10.69-2.68,4,2.68,4,8,4.67,6.68,6.68,13.36,1.33,10,0,14,3.34,8,9.35,10.69S329,478.24,329,478.24Z"/>
    <path class="cls-6" d="M341,499.61c2,2.67,50.09,99.52,98.85,130.91s68.8,34.07,78.82,34.07,29.38-3.34,29.38-3.34a73.2,73.2,0,0,1-36.73,10c-21.38,0-51.43-4-57.44-8s-52.77-48.09-65.46-65.46-32.06-42.07-40.08-63.45S341,499.61,341,499.61Z"/>
    <path class="cls-7" d="M429.16,545.7S467.9,562.39,508,559.06s54.1-8,55.44-8.69,11.35-6.68,11.35-6.68a70.37,70.37,0,0,1-45.42,21.38c-28.72,2-55.44.66-72.8-4.68S429.16,545.7,429.16,545.7Z"/>
    <path class="cls-6" d="M481.93,604.47c2,0,37.4.67,40.08,0S503.3,615.83,496,613.16,481.93,604.47,481.93,604.47Z"/>
    <path class="cls-8" d="M460.56,366.69S431.17,342,405.79,340.64s-50.77,14-51.43,14.7S341,368,342.33,370.7s32.73-12,51.43-13.36S433.84,353.33,460.56,366.69Z"/>
    <path class="cls-8" d="M562.75,349.33s28-12.7,46.75-8.69,34.07,11.36,42.75,22.71,0,8-6.68,6-35.4-12.69-52.1-12.69-44.08,0-57.44,10.69Z"/>
    <path class="cls-6" d="M481.93,431.48s-10.69,27.39-13.36,31.39-6,10.69-10,16.7-9.35,12-7.35,18,12.7,12,19.37,12.69,19.37-18,19.37-18.71,2.68-42.74,2.68-43.41S481.93,431.48,481.93,431.48Z"/>
    <g>
      <path class="cls-9" d="M519.94,506.33l-4.54,4.18-3.9,3-4.8,1.33-5.5.52s-6-.17-7.77-.89-3.95-.79-6-2.13a20,20,0,0,1-5-4.22c-.95-1.37-3.19-5.6-3.19-5.6l1-29.53.8-7,1.05-4.73,1.25-5.11s.76-3.84.86-5,.42-6.1.42-6.1l0-4.77-.25-7.32-.73-9-.36-3.18s24,1.3,32.58.28l-.07,3.51.13,3,.14,3.7.13,4.12.21,3,.2,3.46.27,4,.14,2.74.37,4.37.8,5.71.84,4.06,1.37,6.44,1.22,30.46Z"/>
      <path class="cls-10" d="M481,466.24s-13.38,14.32-17.71,17.06-6.9,6-6.36,12.35,2.44,11.94,9.2,12.76,16.78,0,16.78,0"/>
      <path class="cls-11" d="M480,505.26s-9.61-6.45-13.53-3.57,5.41,3.57,6.76,3.57,6.63,1,6.63,1S480.9,506.49,480,505.26Z"/>
      <path class="cls-10" d="M519.42,464.13s10.73,12.73,19,19.45,3,20,3,20-1.21,3.16-8.93,4a64,64,0,0,1-13.8,0"/>
      <path class="cls-12" d="M521.36,475.48s4.46,20.17.4,26.07"/>
      <path class="cls-6" d="M478.74,471.64s-2.71,11-2.57,16.88.81,11,0,11-3.66-1.93-4.74-2.06a8.57,8.57,0,0,0-4.19,0c-1.49.55-1.63,1.1-3.12,1.51s-3-.41-1.35-1.65,2.17-1.51,4.47-3,3-1.65,4.06-3.43,1.62-1.78,2.57-4.25,1.35-7.55,2.7-9.33S478.74,471.64,478.74,471.64Z"/>
      <path class="cls-6" d="M480.9,499.5s1,6.58,9.47,10.42,17.32,2.89,18.27,1.92,3.38-2.19,2.57-2.19a97.94,97.94,0,0,1-10.15.27,20,20,0,0,1-9.74-3.7c-3.38-2.33-6.49-2.75-7.17-5.22s-1.49-3.43-1.76-5.9-.68-7-1.49-6.58S480.9,499.5,480.9,499.5Z"/>
      <path class="cls-13" d="M521,505.41l3.55-2.72a16.55,16.55,0,0,1,4.25-2c1.54-.25,3.19-.71,5.07.27s2.63,2.2,1.24,2.76-5.22,1.62-6.48,1.5a29.11,29.11,0,0,0-4.5.37H521.7Z"/>
      <path class="cls-12" d="M477.25,493.05s.27,15.91,12.58,20.3,21.92,0,21.92,0a68.6,68.6,0,0,0,6.9-5.76c.59-.59,1.43-1.43,2.46-2.32,3.47-3,9-6.71,13.51-3.85,5.82,3.7-11.91,4.25-11.91,4.25l-1.76-.14"/>
      <path class="cls-12" d="M483.34,420.46s3.11,23.6,0,35.81-4.6,22.09-4.6,23.33"/>
      <path class="cls-12" d="M516,420.46s.4,28.54,2.3,38,3.11,13.86,3.11,13.86"/>
    </g>
    <path class="cls-14" d="M541.71,413c.65-.66,14.89-28.37,44.69-29.69S635,395.83,635,395.83s.64,15.17-4.54,20.45-25.91,15.84-53.11,12.54S541.71,413,541.71,413Z"/>
    <circle class="cls-15" cx="591.25" cy="405.67" r="21.87"/>
    <circle class="cls-16" cx="591.07" cy="405.58" r="8.41"/>
    <path class="cls-17" d="M548.91,402.89s10.61-14.65,23.56-18.61,29.8-2.64,36.92-.66,28.5,11.22,28.5,11.22S633.67,412,632.54,413c0,0,2.11-14.87,1.46-16.85s-25.9-11.22-30.44-11.22c0,0-23.57-2.48-35.1,2.72S548.91,402.89,548.91,402.89Z"/>
    <path class="cls-14" d="M461.51,410.77c-.64-.65-14.89-28.18-44.67-29.49s-48.55,12.45-48.55,12.45-.65,15.08,4.53,20.32,25.9,15.73,53.09,12.45S461.51,410.77,461.51,410.77Z"/>
    <ellipse class="cls-15" cx="411.97" cy="403.48" rx="21.87" ry="21.75"/>
    <ellipse class="cls-16" cx="412.15" cy="403.4" rx="8.41" ry="8.37"/>
    <path class="cls-17" d="M454.31,400.75s-10.6-14.56-23.55-18.49-29.78-2.62-36.9-.65-28.48,11.14-28.48,11.14,4.21,17.08,5.34,18c0,0-2.11-14.76-1.46-16.73s25.9-11.14,30.43-11.14c0,0,23.56-2.47,35.09,2.7S454.31,400.75,454.31,400.75Z"/>
    <circle class="cls-18" cx="598.4" cy="399.73" r="2.96"/>
    <circle class="cls-18" cx="422.06" cy="397.72" r="2.96"/>
    <path class="cls-19" d="M325,396.75s19.37-22.71,28-92.84,29.39-78.82,29.39-78.82,48.76,47.42,80.15,60.78,48.76,38.74,48.76,38.74-2.67-52.1-17.37-71.47c0,0,70.8,35.4,80.15,49.43,0,0-13.35-34.06-17.36-38.74,0,0,64.12,52.77,66.79,58.78,0,0,4.68-46.76-3.34-77.48,0,0,23.38,53.43,26,70.13,0,0,4.68-36.07,2.67-45.42,0,0,17.37,58.78,19.37,91.51s4.68,61.45,7.35,56.1,18-87.49,18-106.2v-54.1s18.71,40.75,18.71,48.09c0,0,3.33-72.13-19.37-108.87l19.37,14s-16-48.76-54.11-70.14-53.43-26.71-86.83-31.39a44.6,44.6,0,0,0,28.06-32.06S529.35,91.51,508,92.17s-58.78,1.34-79.48,6-44.76,16-55.44,31.4c0,0-50.1,14.69-58.78,46.75s-15.36,110.88-12.69,132.25S308.94,380.05,325,396.75Z"/>
    <path class="cls-20" d="M711.86,273.44C708,263,681,229.77,681,229.77l4.68,60.78c-2-8.69-60.12-87.5-60.12-87.5l8,44.08c-3.34-6.68-52.77-48.09-52.77-48.09,12.69,10.69,25.38,76.81,25.38,76.81l-91.5-53.43,12.69,30.72-78.82-61.45,18.71,62.79c-18-3.34-89.51-68.8-89.51-68.8C324.3,197.71,321,299.9,321,299.9c-9.35-9.35-11.36-65.46-11.36-65.46V209.06s-6.68,52.77-6.68,79.48,10,74.14,10,74.14l10.69,28.06s20.71-40.08,25.38-79.49,6-69.46,32.73-92.84c0,0,57.44,52.1,74.14,58.11s42.08,22,46.76,29.39c0,0-5.35-48.76-14-60.11l70.8,38.74-6.68-26.72,64.12,50.76s4-54.1.67-68.79c0,0,20,20,25.38,54.1,0,0,5.34-24.05,4.68-32.06,0,0,20.7,54.1,24,78.81l8.68,44.75,11.36-68.13v-56.1l.67-8.68Z"/>
    <path class="cls-21" d="M345.67,142.94c7.35-5.35,30.06-11.36,30.06-11.36,1.33-2.67,12-12,32.73-24s50.76-9.36,56.77-10.69,44.08-2,51.43-2.67,78.15-12.69,78.15-12.69c-2.67,16.69-29.39,28.05-29.39,28.05,16.7.67,56.77,14.69,56.77,14.69,44.09,18.71,62.79,44.09,66.8,47.43s21.56,33.89,21.56,33.89-109.73-90.67-185.87-90L534,104.86s-98.86-6-151.62,35.4Z"/>
  </g>
</svg>
