<svg id="Layer_1" data-name="Layer 1" xmlns="http://www.w3.org/2000/svg" viewBox="0 0 1000 1000">
  <defs>
    <style>
      .cls-1 {
        font-size: 150px;
        fill: #ed2024;
        font-family: FreeSansBold, FreeSans;
      }

      .cls-2 {
        letter-spacing: -0.04em;
      }

      .cls-3, .cls-4, .cls-5 {
        fill: #000;
      }

      .cls-4 {
        letter-spacing: -0.01em;
      }

      .cls-5 {
        letter-spacing: -0.01em;
      }

      .cls-6 {
        fill: #fcf8cc;
        stroke: #e5e0b5;
        stroke-width: 2px;
      }

      .cls-11, .cls-13, .cls-15, .cls-6, .cls-7, .cls-9 {
        stroke-miterlimit: 10;
      }

      .cls-7 {
        fill: #7ea23e;
      }

      .cls-7, .cls-9 {
        stroke: #708e3b;
      }

      .cls-11, .cls-13, .cls-15, .cls-7, .cls-9 {
        stroke-width: 3px;
      }

      .cls-8 {
        fill: #718c3a;
      }

      .cls-9 {
        fill: #5b0a10;
      }

      .cls-10 {
        fill: #f7b1c8;
      }

      .cls-11 {
        fill: #debc25;
        stroke: #bea02f;
      }

      .cls-12 {
        fill: #d3b12a;
      }

      .cls-13 {
        fill: #c02730;
        stroke: #af1f2d;
      }

      .cls-14 {
        fill: #75923b;
      }

      .cls-15 {
        fill: #74923c;
        stroke: #6a8338;
      }

      .cls-16 {
        fill: #4e602b;
      }

      .cls-17 {
        fill: #fedd00;
      }

      .cls-18 {
        fill: #231f20;
      }
    </style>
  </defs>
  <title>iguana</title>
  <text class="cls-1" transform="translate(270.57 806.16)"><tspan class="cls-2">I</tspan><tspan class="cls-3" x="35.7" y="0">g</tspan><tspan class="cls-4" x="127.35" y="0">u</tspan><tspan class="cls-5" x="216.75" y="0">an</tspan><tspan class="cls-3" x="388.8" y="0">a</tspan></text>
  <g>
    <g>
      <path class="cls-6" d="M148.36,435.62s-7.85,5.41-7.06,9.91c0,0,9.26-4.09,12.52-3.33S148.36,435.62,148.36,435.62Z"/>
      <path class="cls-6" d="M146.47,453.45s-3.8,9.92-2.24,14.2l11.35-10Z"/>
      <path class="cls-6" d="M183.56,472s-5.09,8.9-3.13,15.28L192,478.2Z"/>
      <polygon class="cls-6" points="209.12 512.7 200.25 528.61 212.85 519.22 209.12 512.7"/>
      <path class="cls-6" d="M214.6,536.44s-10.1,12.26-8,18.78l11.18-11Z"/>
      <path class="cls-6" d="M246.94,560.7s-1.29,12.78,1.19,16.7l4.3-9.92Z"/>
      <path class="cls-6" d="M485,542s-2.51,12.21,0,15.6,8.24-11.48,8.24-11.48Z"/>
      <path class="cls-6" d="M535,551.83s-5,7.83-2.09,14.35l10.31-9.13Z"/>
      <path class="cls-6" d="M494.51,518.76s-11.77,4-10.66,13.62l14.58-5.59Z"/>
    </g>
    <path class="cls-7" d="M304.34,433.4s-43,44.08-54,50.34-17.74,2.87-31.3,0-25-2.08-29.22-2.87-10.7-4.17-6.26-8.87,2.87-4.95,9.65-6.26-17-10.43-24.52-9.13-8.87,3-14.09,3.73-8.09-1.38-8.35-3.47.53-9.13,5.48-11.21c0,0-9.39-9.4,1.57-14.87s25-.79,28.43,2.34c0,0,4.18-7.56,20.09,5s26.09,10.7,33.39,9.65,22.7-28.43,22.7-28.43l32.34-4.7Z"/>
    <path class="cls-8" d="M279.82,442s-21.65,28.7-26.09,32.09S237.56,484,237.56,484s9.65,1.31,27.39-15.39a383.83,383.83,0,0,0,30-31.56Z"/>
    <path class="cls-7" d="M231.3,470.57,209,465.74a62.17,62.17,0,0,0-14.59-.91"/>
    <path class="cls-7" d="M151.73,445.66s9.78-6.13,19.18-5.61,20,10,25.17,12.26a68.65,68.65,0,0,0,10.43,3.39"/>
    <path class="cls-9" d="M147.56,244.79l-1.35-3.53s22.48-26.8,48.5-37,80.61,4.5,80.61,4.5l-28,25.24s-66.72,18.58-67.89,18.78S147.56,244.79,147.56,244.79Z"/>
    <path class="cls-10" d="M166.73,246.55s1.76-10.76,18.59-22.11a57.9,57.9,0,0,1,46-8.22c11.52,2.74,16,10.53,16,10.53l-36.58,15.49-34.44,5.68Z"/>
    <path class="cls-7" d="M181.73,433.13s9.39,5.74,16.31,10.44,11.08,5.74,11.08,5.74"/>
    <path class="cls-11" d="M170.78,261.22s8.34,8.09,8.08,18.52-4.42,17.74,0,20.09,8.86,7.11,7,11.77-6,8.06-2.09,12,.84,2.61,2.51,11.48,7.14,24.26,10.79,31.82,4.7,20.35,11.22,19.05,5,0,11.22,7,10.43,10.44,15.13,7.3,5.22-1,3.91,11.22,3.65,22.9,14.09,28.54,19.3,12.39,26.09,7.84,3.47-9.69,9.13-6.64,15.91,8.87,24.78,2.61,14.09-11,13.82-20.35-26.6-45.65-34.95-61.56-29.22-61.05-45.13-77-20.61-25.3-37.31-27.65-39.39,3.39-39.39,3.39Z"/>
    <path class="cls-11" d="M181.73,267s6.78,11.18,8.35,14.85.52,8.37,5.35,6.8-.39-9.39,11.08-2.87,9.35,11.48,18.77,18.26,19.77,3.13,17.85-4.95-30.35-34.18-37.92-35.22S181.73,267,181.73,267Z"/>
    <path class="cls-11" d="M231.3,331.13c.78-1.56-24.13-43-39.33-55.82"/>
    <path class="cls-11" d="M238.86,369.74s2.35,20.12,0,30.28"/>
    <path class="cls-11" d="M261.3,363.22s20.61,44.09,23.48,58.18,0,18.62,0,18.62"/>
    <path class="cls-12" d="M271,361.66c.26,1.82,3.13,5.53-2.61,4.95s-7-1.76-10.43-2.45,10.76,15,14,25.41,6.66,15.74,5.46,26.91-.44,12.74-3.69,15.35-9,5.22-16.28,1.3-12.93-6.52-14-13.56-2.15-14.35-2.15-14.35-1,21,5.22,27.91,18.57,11.4,24.26,12.4,13.56-5.35,13.56-8.48,6.36,5.83,10.36,6.18,16.25-1.48,17.82-2.66,7.56-6.13,8.08-9.52,3.14-6.79-3.65-16.44-22.43-33.13-27.39-38.08S271,361.66,271,361.66Z"/>
    <g>
      <path class="cls-13" d="M315,144.35c1.56-.52,27.27-6.78,34.11-5.74s-17.92,14.09-22.63,16.18S315,144.35,315,144.35Z"/>
      <path class="cls-13" d="M335.91,159.48s36-18,49.56-18.52-38.61,25.3-39.91,28.44S335.91,159.48,335.91,159.48Z"/>
      <path class="cls-13" d="M356.25,180.09s41.48-19.56,53.22-15.13-42,19.83-46.17,25.3S356.25,180.09,356.25,180.09Z"/>
      <path class="cls-13" d="M374.78,206.7c1-.78,43.3-17.65,59-13s-30.15,7.26-50,26S374.78,206.7,374.78,206.7Z"/>
      <path class="cls-13" d="M392.11,234.35s26.23-24,60.4-22.69c0,0-3.82,3.65-14.17,7.82s-39.83,28.24-39.83,28.24Z"/>
      <path class="cls-13" d="M404.35,261.43s26.23-24,60.4-22.69c0,0-3.83,3.65-14.17,7.82s-39.83,28.24-39.83,28.24Z"/>
      <path class="cls-13" d="M426.14,289.16s21.17-28.57,55-33.81c0,0-3.06,4.31-12.42,10.39S435,301.06,435,301.06Z"/>
      <path class="cls-13" d="M450.11,306.88s21.16-28.57,55-33.81c0,0-3.06,4.32-12.42,10.39S459,318.78,459,318.78Z"/>
      <path class="cls-13" d="M481.1,319.61s21.17-28.57,55-33.81c0,0-3.06,4.31-12.42,10.39s-33.7,35.32-33.7,35.32Z"/>
      <path class="cls-13" d="M508.58,331.06s21.17-28.57,55-33.81c0,0-3.06,4.31-12.42,10.39S517.42,343,517.42,343Z"/>
      <path class="cls-13" d="M534.67,345.41s21.17-28.56,55-33.81c0,0-3.06,4.32-12.42,10.39s-33.7,35.32-33.7,35.32Z"/>
      <path class="cls-13" d="M558.34,358.62s21.16-28.57,55-33.81c0,0-3.06,4.31-12.42,10.39s-33.7,35.32-33.7,35.32Z"/>
      <path class="cls-13" d="M580.64,373.72s21.17-28.57,55-33.81c0,0-3.06,4.31-12.42,10.39s-33.7,35.32-33.7,35.32Z"/>
      <path class="cls-13" d="M602.42,391.12s21.16-28.56,55-33.81c0,0-3.06,4.32-12.42,10.39S611.26,403,611.26,403Z"/>
      <path class="cls-13" d="M622.74,405.8s21.17-28.56,55-33.81c0,0-3.06,4.32-12.42,10.39s-33.7,35.32-33.7,35.32Z"/>
      <path class="cls-13" d="M640.15,417.15s21.17-28.56,55-33.81c0,0-3.06,4.32-12.42,10.39S649,429.05,649,429.05Z"/>
      <path class="cls-13" d="M666.58,430.46s21.16-28.56,55-33.81c0,0-3.06,4.32-12.42,10.39s-33.7,35.32-33.7,35.32Z"/>
    </g>
    <path class="cls-7" d="M122.3,165.74c0-1.17,3-23.48,28.78-37.17,0,0,11.61-5.48,30.65-4.31s50.53-3.52,61.4-4.3,38.25-2.35,59,14.87c0,0,39.13,13.3,68.48,56.74s36.39,68.87,56,83.74,59.87,25.43,112.69,44.22,106.83,56.34,132.66,70S774.43,424,786.56,429.87,855.82,455.7,895,512.05s-17.22,116.61-25.44,123.26-51.26,32.87-122.86,16.82S594.82,613.4,558.82,611.44s-76.31-8.61-119-3.91-62.61,17.6-69.65,18.39,34.48-35.61,102.35-37.57,129.69-1.56,241.22,21.52S851.12,613,850,586s0-53.64-70.83-76.91-110-13.87-113.08-11.91-19.57,16.43-32.48,16c0,0,3.52,24.26-17.22,28.18s-54,9.39-59.48,12.13-11,8.21-16.82,7.82-11-10.17-.79-16.82c0,0-30.52-1.57-35.21.78s-13.31,5.09-15.26,3.91-11.35-12.52,9.39-18,32.08,0,32.08,0-16-5.87-31.69-3.13-8.61-20,9.39-17.22,10.17.79,10.17.79l-.39-6.33s-79.43-8.54-129.52-43c0,0-16.43,28.57-35.22,44.61s-31.3,37.57-45,43.83-41.48,10.56-49.69,16.82-14.08-4.69-10.17-10.17,19.95-9,19.95-9-25.43-6.26-36.78-3.13-15.38,4.69-18.45,2.35-7-17.61,14.53-17.61,27.4,2,27.4,2S227,521.44,218,521.44s-14.33-2.53-11.48-7.44,10.7-11.77,27.14-4.91c0,0,5.08-13.87,19.56-8s22.65,13.13,32.84,10.57,25.46-20.35,38-41.09,25.11-24.94,25.11-24.94-47.22-25.3-63.1-52.15-17.19-30.69-17.58-42.93c0,0-20.1-11.12-28.56-38.95s-28.57-36.29-38.35-38.25-36.39-4.9-43.83-9.69-11.69-11.05-11.52-22.4c0,0,8.13,9,60.3-6.65s54.79-22.69,54.79-22.69-62.65,4.69-100.83-17.22S122.3,165.74,122.3,165.74Z"/>
    <path class="cls-7" d="M268.47,350.55s25.19,14,58-1.94,27.13-41.06,27.13-41.06"/>
    <path class="cls-7" d="M356,373.13s25.05,37.05,30,62.09,2.22,27.13,2.22,27.13"/>
    <path class="cls-7" d="M641.65,441s-18.53-36.52-76.7-34.7-38.35,56.09-38.35,56.09,10.83,27.65,55.89,45.39c0,0-12.32,4.27-23,1.35s-27.39-10.48-34.43-8.65-7.31,4.89-7.31,4.89"/>
    <path class="cls-7" d="M519.29,512.33s31.57,7.15,47.75,6.37"/>
    <path class="cls-7" d="M530.25,531.22s7.31,2.61,23.22,0"/>
    <path class="cls-7" d="M539.25,544.53s18.4,1.3,35.87-5.22"/>
    <path class="cls-7" d="M582.69,436.79s36.78,31.56,50.87,76.43"/>
    <path class="cls-8" d="M594.69,458.16s28.43,55.06,27.39,64.19-13,15.13-18.78,17-17.48,5.32-17.48,5.32,32.61-4.66,39.39-10.54,8.61-15.65,3.65-26.35-13.3-29.21-21.91-40.17-16.7-20.35-16.7-20.35Z"/>
    <path class="cls-8" d="M627,475s42,6.66,62.87,7.44,65,6.89,88.69,13.49,50.61,13.9,64.18,30.6,9.65,64.17,9.65,64.17,1-40.06-21.13-58.9-86.87-35.87-86.87-35.87-42-6.45-58.18-5.14a68.77,68.77,0,0,0-28.69,8.34c-3.65,1.83-15.83,10.54-20.35,11S639,482.44,627,475Z"/>
    <path class="cls-14" d="M369,192.55s-10,21.32-13.89,28-8.22,16-15.27,22.3-10.56,10-10.56,10,29.15-18.39,35-24.46,14.09-15.06,15.07-18.39S369,192.55,369,192.55Z"/>
    <path class="cls-14" d="M406,252.81s-12.91,23.67-18.19,29.93-12.33,11.55-14.28,20.94-2.74,15.65-2.35,15.06,15.46-22.69,20-28.37,10.17-10.56,14.86-16.63,7.64-8.61,7.05-9.78S406,252.81,406,252.81Z"/>
    <path class="cls-14" d="M452,292.53s-2.93,34.82-2.54,46.17-1.76,23.48-4.89,30.52-7.05,9.59-6.07,9,20.16-30.72,23.87-37.17,8.81-23.48,9-30.33,0-11,0-11Z"/>
    <path class="cls-14" d="M546.1,324.81s17.81,6.85,18.39,7.63-9.39,15.85-12.71,19.17S541.21,362,537.49,371s-11.15,19.76-12.32,23.28,8.21-35.77,12.52-43.71,8-13.42,8.22-18.5S546.1,324.81,546.1,324.81Z"/>
    <path class="cls-14" d="M623,362.76s17.74,11.16,18.66,12.14-6.38,15.11-10,19.59-11.82,12.35-13.19,14.28,1-18.61,2-26.83S623,362.76,623,362.76Z"/>
    <circle class="cls-15" cx="254.19" cy="240.48" r="7.24"/>
    <circle class="cls-15" cx="250.86" cy="269.83" r="16.13"/>
    <circle class="cls-15" cx="282.75" cy="248.7" r="12.74"/>
    <circle class="cls-15" cx="309.36" cy="250.66" r="8.22"/>
    <circle class="cls-11" cx="299.19" cy="301.71" r="35.67"/>
    <path class="cls-16" d="M143.85,157.13s3.84-14.08,7.88-11.34,3,10.17,0,11.34S143.85,157.13,143.85,157.13Z"/>
    <path class="cls-7" d="M200.78,143.05c1.17-.39,21.16-5.87,30.54-9.39s28.36-7,50,2.74"/>
    <path class="cls-17" d="M220.73,170.83c-1.53,2.3,5.61,17.61,18.65,21.72s32.06-3.52,34.29-10.86.15-26.12-10.15-28.47S229.34,157.92,220.73,170.83Z"/>
    <circle class="cls-18" cx="249.75" cy="174.74" r="8.61"/>
    <path class="cls-8" d="M383.38,415.13s8.09,23.48,8.87,32.09,1.05,14.09,1.57,15.13S428,479.83,434,482.7s39.39,11.58,46.44,13.23,37.3,7.12,37.3,7.12,5.22-5.22,10.18-5.22,19.3,5.22,19.3,5.22,21.29,5.32,26.87,4.43-34.83-15.13-34.83-15.13-20.47-3.39-34.56-8.09-37.57-9.55-59.22-22.9S413.12,438,404,429.05s-24-28-25.3-29.31-6.21-6.52-6.21-6.52Z"/>
    <path class="cls-8" d="M376.34,420.35s4.17,33.65,0,45.91-29.72,31.26-36,37.05-15.65,19.3-20.35,24-15.39,15.91-21.13,18.52-19.3,10.43-19.3,10.43,27.65-6.41,35.74-14.29,34.84-38.68,47.21-49.1,21.66-29.19,22.7-32.33-4.17-35-5-37.32-7.77-17-7.77-17Z"/>
  </g>
</svg>
