<svg id="Layer_1" data-name="Layer 1" xmlns="http://www.w3.org/2000/svg" viewBox="0 0 1000 1000"><defs><style>.cls-1,.cls-14{fill:#fed1a5;}.cls-1{stroke:#d6a47c;}.cls-1,.cls-17,.cls-18,.cls-19,.cls-2,.cls-24,.cls-26,.cls-28,.cls-29,.cls-30,.cls-31,.cls-32,.cls-33,.cls-4,.cls-6,.cls-7,.cls-9{stroke-miterlimit:10;stroke-width:3px;}.cls-2{fill:#66af08;}.cls-2,.cls-33{stroke:#457704;}.cls-3{fill:#61a008;}.cls-4{fill:#fcf9a8;stroke:#e2dd96;}.cls-5{fill:#ede79d;}.cls-6{fill:#ccde6e;stroke:#b3bf5a;}.cls-7{fill:#4e6b3b;}.cls-17,.cls-18,.cls-19,.cls-7{stroke:#496835;}.cls-8{fill:#eabf98;}.cls-9{fill:#50413c;stroke:#3f332f;}.cls-10{fill:#5b4c48;}.cls-11{fill:#636166;}.cls-12{fill:#e7aebd;}.cls-13{fill:#e29fb4;}.cls-15{fill:#231f20;}.cls-16{fill:#fff;}.cls-17{fill:#5d7e47;}.cls-18{fill:#cede64;}.cls-19{fill:#749b5c;}.cls-20{fill:#688c51;}.cls-21{fill:#52703e;}.cls-22{fill:#6f9159;}.cls-23{fill:#dbe87c;}.cls-24{fill:#b0825b;stroke:#96623b;}.cls-25{fill:#936d4a;}.cls-26{fill:#c6102b;stroke:#930a25;}.cls-27{fill:#b70d2e;}.cls-28{fill:#b82426;}.cls-28,.cls-29{stroke:#9e181f;}.cls-29{fill:#ed3936;}.cls-30{fill:#fdaf43;stroke:#e09234;}.cls-31{fill:#8a5e38;stroke:#774a28;}.cls-32{fill:#693e1f;stroke:#4f2d15;}.cls-33{fill:#58a104;}.cls-34{fill:#77b809;}</style></defs><title>gardening</title><path class="cls-1" d="M728.1,436s4.78,31.79,6.43,39.36c1.74,7.89,4.64,60.95,5,63.44.75,4.91,2.63,4.83,3.73,10.77s2.07,14.21-6.68,21.84-28.26,11.51-35.5,7.12-2.92-13.92-2.92-13.92-2.5,3.73-4.73,2.78-1.54-12.68,7.74-18.76l-1.38-9.4-4.41-53.56-19.81-83.95L722,391Z"/><ellipse class="cls-2" cx="504" cy="850.5" rx="323" ry="127.5"/><path class="cls-3" d="M714.5,867.5c-3.79,1.62-53,29-85,31s-54,10-95,4-75-15-81-22-81,4-108,6-62,7-63-19,28-37,48-49,21.49-24.43,54.25-32.21,79.75,8.21,91.75,10.21,99-7,152-2,84,7,86,26S721.5,864.5,714.5,867.5Z"/><path class="cls-1" d="M417.79,471.09C410.18,468.44,363.3,443,361,442c-4.57-1.94-5.42-.28-11-2.45s-13.17-5.69-15.45-17.27,4-30.51,11.26-34.44,13.35,4.81,13.35,4.81-2-4.13-.07-5.55,11.61,5.34,12.28,16.57l8.73,3.76,48,24.4S425.1,473.64,417.79,471.09Z"/><path class="cls-4" d="M588.56,563.26s45,3.86,87.35-3.85c0,0,10.28-108.55,9.64-113S692,541.43,692,541.43L744,535s-16.06-174.07-26.34-189.48-34-22.48-34-22.48S642.51,307,628.38,303.77s-83.5,1.92-83.5,1.92-53.95,9-68.08,21.2c-4.7,4.07-13.15,19.92-22.61,40.47-6,13.08-10.56,41.08-16.69,56.14-3.77,9.25-15,0-24-5-20.78-11.54-23-11-37-18l-7,56,42,18,35,17.75c8.66.15,18.64-2.28,23-9.75l10-18,14-29.7s8.35,117.54,9,123.33S588.56,563.26,588.56,563.26Z"/><path class="cls-1" d="M618.11,327.53s3.21-23.12,3.21-23.76a27.41,27.41,0,0,0-1.61-4.1l-12.52-12.6h-52l-5.78,15.41v21.2l23.76,12.2.9,0,11.31,31.46L595,335.88l8.35.65Z"/><path class="cls-5" d="M711.24,343.59c-2.57-2.57-18-12.85-28.9-16.06s-18-4.49-26.34-8.35-14.77-8.35-19.91-9-12.85-5.78-10.92,0a63,63,0,0,1,2.57,10.92s46.25,15.42,57.81,18,16.06,3.22,20.55,5.79S711.24,343.59,711.24,343.59Z"/><path class="cls-5" d="M541,313.4c-5.78,0-32.76,5.14-39.18,7.07S490.93,325,489,326.89s-13.49,12.2-10.28,12.2,18.63-1.28,25-6.42,11.56-7.71,19.27-9,18.63-.64,18-1.93S541,313.4,541,313.4Z"/><path class="cls-6" d="M549.38,305.38s0,13.8,6.42,19.58S574.43,332,574.43,332l10.28,29.55,7.7-30.19s13.49-.65,18-3.86,9.56-11,9.92-16.09.39-9.48.39-9.48,5.75-2,7.67.52.65,21.84-4.49,26.34-11.57,9-17.35,9.63-10.92.64-10.92.64l-10.27,34.69s-7.71-20.55-9-23.12-5.78-13.49-5.78-13.49-17.34-6.43-21.19-8.35-5.14-15.42-5.78-18a15.38,15.38,0,0,1,0-5.78S548.09,303.13,549.38,305.38Z"/><path class="cls-5" d="M678.16,478.8s-.64,27-2.57,36-1.92,21.2-3.21,27,1.93,13.49-4.49,13.49-48.18.64-58.46,1.92-28.26-1.92-37.89-1.28-37.9-.64-46.25-3.21-15.42-3.22-16.7-7.07-4.5-23.12-3.21-22.48,5.78,12.85,30.83,17.34,37.25,5.14,58.45,5.14,37.9-9,47.53-7.71S664,525.05,664.67,512.2s6.43-20.55-3.21-18.63-9.63-4.49.64-7.71,14.14-19.91,16.06-21.19S678.16,478.8,678.16,478.8Z"/><path class="cls-5" d="M691,399.79s-1.29,32.12,0,40.47-.64,19.27,0,16.06-5.17-20.05-6.76-17.74-5.45,12-5.45,12l-8.35,7.06s0-20.55,5.14-32.11,9-16.06,9.64-28.27-.64-16.05.64-12.2S691,399.79,691,399.79Z"/><path class="cls-7" d="M423.48,194.57s16.06,5.14,50.1,4.5,173.3,7.28,196.17,4.28,70.4-11.35,69.75-12.63-32.6-23-32.6-23L564.15,132.27l-133,50.1Z"/><path class="cls-1" d="M473.57,208.34S457.63,216.67,457,227.4s3.64,21.68,11.44,26,25.7,5.58,25.7,5.58,19.71,31,46.62,41.71,41,10.47,54.5,8.55,32.57-6.17,52.17-24.31,28.53-36.64,28.53-36.64,21.85-.48,28.43-16.09-3.94-27.62-3.94-27.62-8-9.63-17.62-12.26-54.54-51-54.54-51l-101.52-8.44-28.22,4.73-25.36,38.58Z"/><path class="cls-8" d="M480.05,204.78s11-25.2,17.86-30.59,24.71-15.11,24.71-15.11,14.65,26.2,17.46,28.2,7.64,5.44,10.85,5.61S570.77,191,570.77,191l-31.45-25.15S571.22,181,576,182.31s21.75,7.33,29.2,7.49a87.08,87.08,0,0,0,14.34-1l-17.85-13.63-3.55-10.73,23.16-5.29-102-19.35-20,5.14-19.19,31.16Z"/><path class="cls-9" d="M492.65,246.18s-12.6-37.16-7.46-57.12,14.89-23,14.89-23,14.91,7.76,19.46,10.53c5.91,3.61,27,11.39,30.41,12.59s26.62,2.62,26.62,2.62a362.7,362.7,0,0,1,38.31.65s10,.45,14.51-2.1c0,0-18.25-16-20.84-20.91,0,0,15.67,13.29,28.58,18.55s33.5,9.95,33.5,9.95,5.36,29.88,4.1,35c0,0,11.8-16.13,14-26.4a72.66,72.66,0,0,0,1.22-12.75c.1-5,33.67-28.5,27.71-27.83-12.85,1.45-23.44-13.19-26.17-21.08-6.84-19.72-28.72-36.22-41.4-46.48S610.69,83.08,589.4,80.62s-42.21,1.42-58.14,14-18.49,22.56-18.49,22.56-27.07,5.24-38.29,26.94-13.33,32.35-12.18,39.22,5.7,23.45,5.7,23.45,5.52,13.93,13.39,25S492.65,246.18,492.65,246.18Z"/><path class="cls-10" d="M515.07,120.37s6.87-16,14.6-20.49,26.2-14.66,37.1-15.07,18.87-1.39,24.84.44,22.08,5.14,22.08,5.14-17.55.82-25,1-25.12,2.09-29.07,3.81-18.64,7-6.19,5.29a121.85,121.85,0,0,1,22.83-1s-21.4,1.11-28,5.76-15.82,11.14-18.8,14.47-10,10.17-10,10.17l-21.33,3.57c-4.47.75-22.41,14-24.65,17.58s4.81-13.54,11.23-17.45,12.72-10.62,19.19-12.06A44.41,44.41,0,0,1,515.07,120.37Z"/><path class="cls-11" d="M512.73,190.81s5.9-4.89,9.17-4.37,5.34,2.29,6.94,3.43a17.41,17.41,0,0,1,2.47,2.06s-2-5.67-4.71-7-5.28-2-7.27-1.28S512.73,190.81,512.73,190.81Z"/><path class="cls-8" d="M484.25,249.88s-4.48-7.74-6.09-8.88-3.21-.17-3.22-2.29,1.78-2.07.86-5.45-1.84-6.77-3.05-7.63a5.07,5.07,0,0,0-4.65-.28c-1.66.64-4.18,4.59-4.12,4.94s-2,2.81-.74,4,3.44-2.7,4.7-3.61,3.83-2.42,4,.39-3.14,6.54-.22,9.23,5.23,3.73,6.82,4.89S484.25,249.88,484.25,249.88Z"/><path class="cls-8" d="M681.91,240.8s.7-8.6,5.73-10.16,8-.64,6.41-3.9-3.1-3.73-2.58-7,1-6.89,3.37-7.29,3.73-1,5.51,1.2a10,10,0,0,1,2.13,4.24s-3.39-3.32-5.05-.57-1.66,2.76-1.08,6.2,1.66,5.73-1.26,7.28-4.93,2.25-7.17,3.68S681.91,240.8,681.91,240.8Z"/><path class="cls-12" d="M534.45,265.52s55,3.06,99.86-5.74c0,0-.79,20.58-16.6,27.59s-47.71,10.82-57.19,7c0,0-15.28-4.6-20.27-11.19S534.45,265.52,534.45,265.52Z"/><path class="cls-1" d="M580.51,234.26s-4.42-3.14-7.57-.85-.63,6.83,1.95,7.46a22,22,0,0,0,5.05.56"/><path class="cls-13" d="M559.23,290.91s5.91,3.61,18.3,3.65a104.27,104.27,0,0,0,24.89-3.46l12-4.5s-15.78-5.49-28.34-4.45S559.23,290.91,559.23,290.91Z"/><path class="cls-14" d="M522.83,262.82s-12.56,1.76-15.7,1.42-7-3.14-8-5.93-.7-7.33,8-9.42,15.35-.73,17.1.67,3.84,5.58,2.79,7.67S524.93,262.47,522.83,262.82Z"/><path class="cls-14" d="M640.92,246.43s8.94-5.74,14.16-6.28,12.79.35,13.37,1.65,4,7.11-3.44,9.08-13.6,3.34-17.89,3S638.69,250,640.92,246.43Z"/><circle class="cls-15" cx="529.25" cy="221.02" r="9.94"/><circle class="cls-16" cx="524.37" cy="217.27" r="2.34"/><circle class="cls-15" cx="623.8" cy="222.92" r="9.94"/><circle class="cls-16" cx="618.92" cy="219.17" r="2.34"/><path class="cls-17" d="M509.87,310.51s16.71,64.23,17.35,78.36,3.85,36,0,44.32-5.78,15.42-14.13,21.2-19.27,12.85-19.27,12.85,3,88.69,3.68,91.26,16.87,7.65,84.31,8.3,96.35-3.21,97-6.43,6.43-79,6.43-79-18-21.84-25.05-35.33-7.71-18-8.35-28.26,13.49-104.7,13.49-104.7L648,307.3s-11.56,80.93-12.84,85.43-84.15,4.49-88,.64-18-88.64-18-88.64Z"/><path class="cls-17" d="M460.42,146.08s6.42-64.88,27-82.22,64.77-30,100.53-26.65c34.68,3.21,73.54,17,90.88,29.22s25.06,82.22,25.06,82.22Z"/><path class="cls-6" d="M703.3,141.39s-3.77-23.72-4.66-25.41-29.15-24.18-85-27.39-77.08-.64-93.14,1.93S466.53,110,466.53,110l-6.43,29.3S606.54,129.7,638,134.2,703.3,141.39,703.3,141.39Z"/><path class="cls-17" d="M739.18,189.76S699.36,169.2,643.48,166s-129.11-3.21-159.94,3.21-57.17,25.05-59.74,25.05,8.35-53.95,52.67-73.22,124-17.66,177.61-10S739.18,189.76,739.18,189.76Z"/><circle class="cls-18" cx="539.06" cy="403.79" r="6.7"/><circle class="cls-18" cx="640.54" cy="405.07" r="6.7"/><polygon class="cls-19" points="544.88 440.58 638.34 440.58 628.14 511.95 590.76 535.74 549.98 510.25 544.88 440.58"/><path class="cls-20" d="M553.23,494.54c0,.64-1.28,13.48,0,14.13s30.83,19.27,36,19.91S622.6,510,623.89,506.1,629.67,474,629.67,474s-20.56,32.12-34,32.12S553.23,494.54,553.23,494.54Z"/><path class="cls-21" d="M679.13,503.24s-2.57,43.67-4.5,45.6-15.42,3.85-23.77,3.85-75.79,1.93-82.21,1.29-57.17-4.5-62.31-7.71-8.35-23.12-8.35-25,9,17.34,36,18,63.59,1.28,81.58,1.92,54-26.33,57.16-31.47S679.13,503.24,679.13,503.24Z"/><path class="cls-22" d="M431.19,182.37s9.64-27,23.12-39.18,23.13-17.34,37.26-21.84,37.25-9.64,50.1-9.64,35.33-.64,41.75,0,12.2,9.64-4.5,9.64-50.73,4-68.4,10-37.47,14.37-40.41,23.68-2.62,15-7.28,15.38S431.19,182.37,431.19,182.37Z"/><path class="cls-22" d="M476.15,96.94s9-27.62,16.7-33.4S532,46.84,540.39,44.91s32.75-4.49,34-3.85-23.77,9.63-35.33,12.2S514.69,57.76,507,65.47s-18,18-19.91,25S476.15,96.94,476.15,96.94Z"/><path class="cls-23" d="M474.87,109.14s-3.86,11.57-1.93,10.28,10.92-5.78,11.56-7.71,0-5.78,0-5.78Z"/><path class="cls-17" d="M498.5,564.5s-6,121-6,140-3,96-3,96l70,5s8-91,12-114a203,203,0,0,1,13-43s3,27,5,52,5,106,5,106,67-1,70-2c2.14-.71,4.37-52.59,6-91,.65-15.32,1-38.59,1-46,0-26,3.91-105,3.91-105l-171.91-5Z"/><path class="cls-21" d="M579,590s2,15,3,24,4,19,1,24-.16,8.52-12.58,13.76S555,657,545,657s-12,3-22,0-17-4-19-7-5-26-4-40,4-36,4-36-7-20-2-17,53.5,9.59,54.75,9.3S575,570,575,570Z"/><path class="cls-21" d="M574,592a497.57,497.57,0,0,0,52-6c22-4,39-5,40-6s4.45-15.77,4.45-15.77S610,574,605,574s-29,3-31,4-3,7-2,8S574,592,574,592Z"/><path class="cls-21" d="M584.29,631.37S590,634,592,626s3-21,9-26,15-13,20-15-17,0-20,0-27.8,3.76-27.8,3.76Z"/><path class="cls-17" d="M494.5,546.5s43,10,68,11,54,2,70,0,42.5-6.91,47.25-7,1.75,19,.75,19-61,9-80,8-55-3-69-5-34-4-35-8S492.5,545.5,494.5,546.5Z"/><path class="cls-17" d="M508.93,547.83s-3.43,12.67-.43,22.67l8,1s-2-17,0-21C516.5,550.5,513.36,546.15,508.93,547.83Z"/><path class="cls-17" d="M535.93,551.83s-3.43,12.67-.43,22.67l8,1s-2-17,0-21C543.5,554.5,540.36,550.15,535.93,551.83Z"/><path class="cls-17" d="M635.47,554.83s3.16,12.67.4,22.67l-7.37,1s1.84-17,0-21C628.5,557.5,631.4,553.15,635.47,554.83Z"/><path class="cls-17" d="M668.47,550.83s3.16,12.67.4,22.67l-7.37,1s1.84-17,0-21C661.5,553.5,664.4,549.15,668.47,550.83Z"/><path class="cls-17" d="M566.5,555.5s-2,20,0,22,32,3,33,2,2-24,0-24S567.5,554.5,566.5,555.5Z"/><polygon class="cls-24" points="336.4 675.04 335.37 386.04 356.37 385.96 355.41 677.97 336.4 675.04"/><polygon class="cls-25" points="342.89 392.51 346.88 671.5 337.88 671.53 336.89 390.53 342.89 392.51"/><path class="cls-26" d="M380.57,302.38l-70-.75s-1.91,26,4.15,42a63.77,63.77,0,0,0,17.09,24.94l.09,26,26,.91-.09-28s16-10.06,19.89-29.07A151.79,151.79,0,0,0,380.57,302.38Zm-12.88,32c-2,11-10.93,20-10.93,20l-24,.09a68.88,68.88,0,0,1-9.06-17c-3-9-3.08-22-3.08-22l49-.17A117.49,117.49,0,0,1,367.69,334.42Z"/><path class="cls-26" d="M291,695.7l112-.4s3.14,40-2.75,71-22.8,55.08-40.79,58.15-42-4.85-51.09-23.82-14.12-34.95-15.18-50.95S291,708.7,291,695.7Z"/><path class="cls-26" d="M331.86,665.55l26-.09s.12,33-.83,46-6.92,25-8.91,26-12,3-15.07-19S331.86,665.55,331.86,665.55Z"/><path class="cls-27" d="M338.5,818.5c-2,0-10-7-15-11s-7-7-11-16-9-16-8-21,9-13,15-4,9,16,16,16,8-11,12-18,8,1,19-2,19-14,22-17,9,16,6,26-4,23-11,28-9,19-17,20S338.5,818.5,338.5,818.5Z"/><path class="cls-1" d="M348.5,392.55s-7-5.79-13-6.95-10-1.15-11,1.16a24.62,24.62,0,0,0-2,9.26v20.83c0,5.79-1,12.73,0,15s13,8.1,19,8.1,8,0,9-3.47S354.5,400.65,348.5,392.55Z"/><path class="cls-28" d="M591.5,784.5,596,834.56l69.55-1.83,3-47.23s-11-8-45.09-5.84C591.12,781.7,591.5,784.5,591.5,784.5Z"/><path class="cls-29" d="M589.55,850.12s0-23.79,12.81-30.2,41.18-10.07,53.07-2.75,15.56,9.16,17.39,31.12c0,0-15.56,8.23-32,9.15S589.55,850.12,589.55,850.12Z"/><path class="cls-30" d="M617,852s30.2,1.83,43-2.75,14.64-4.57,14.64-4.57,4.58,11,1.83,15.55-32,11.9-54.9,9.15-33-8.23-33-8.23-5.49-5.49,0-15.56C588.63,845.54,606.93,852,617,852Z"/><path class="cls-28" d="M562.5,782.5l-4.24,50.06-69.42-1.83-.34-49.23s8-5,42.35-3.84C563.13,778.74,562.5,782.5,562.5,782.5Z"/><path class="cls-29" d="M564.65,848.12s0-23.79-12.79-30.2-41.1-10.07-53-2.75-15.52,9.16-17.35,31.12c0,0,15.53,8.23,32,9.15S564.65,848.12,564.65,848.12Z"/><path class="cls-30" d="M537.25,850s-30.14,1.83-42.93-2.75-14.62-4.57-14.62-4.57-4.56,11-1.82,15.55,32,11.9,54.8,9.15,32.88-8.23,32.88-8.23,5.48-5.49,0-15.56C565.56,843.54,547.3,850,537.25,850Z"/><path class="cls-31" d="M433.91,811.49s28.34,9,29.46,26.08S447.08,867.13,390.42,865s-59.91,6.93-70.81.13-24-23.81-.06-31.81,25.05-3.45,43.55-14.84,27.21-18.23,43.55-17.12A51.68,51.68,0,0,1,433.91,811.49Z"/><path class="cls-32" d="M377.28,827.5s22.9,10.18,41.41,2.2c0,0,22.77-60.25,23.76-115.91,0,0,68.62-13.76,84.8-104.66,0,0-17.3,76.14-83.74,87.61,0,0-2.36-100-35.15-161.24h-3.27s16.46,64.72,14.33,92c0,0-41.39,5.76-80.79-88.46,0,0,16.51,89.71,80.82,108.91C419.45,647.94,426.15,738.81,377.28,827.5Z"/><path class="cls-33" d="M509.87,639.83s1.1,9.08,13.08,6.79c0,0,22.9,10.18,25.06-3.45,0,0,16.36,10.19,20.7-1.18,0,0,18.5-9.12,8.67-23.87,0,0,3.22-23.86-9.85-26.11,0,0-6.56-12.48-17.44-4.51,0,0-3.31-22.71-12-15.88,0,0-21.79,1.17-17.41,9.12,0,0-12-9.07-16.35-1.11,0,0-13.07,2.3-8.69,13.65,0,0-13.06,9.11-1.06,15.9,0,0-8.7,11.38,1.11,11.36,0,0-2.17,8,4.38,10.22C500.05,630.76,499,644.39,509.87,639.83Z"/><path class="cls-33" d="M359.45,568.82s-.89,7.32-10.83,5.51c0,0-18.94,8.27-20.77-2.71,0,0-13.52,8.26-17.15-.88,0,0-15.36-7.3-7.26-19.21,0,0-2.74-19.21,8.09-21.06,0,0,5.4-10.08,14.44-3.69,0,0,2.67-18.31,9.9-12.83,0,0,18.06.89,14.46,7.3,0,0,9.92-7.34,13.54-.94,0,0,10.84,1.81,7.24,11,0,0,10.85,7.3.93,12.81,0,0,7.24,9.14-.89,9.15,0,0,1.82,6.4-3.59,8.24C367.56,561.48,368.48,572.46,359.45,568.82Z"/><path class="cls-33" d="M439.25,545.25s-1.51,12.4-18.34,9.33c0,0-32.08,14-35.18-4.58,0,0-22.91,14-29.05-1.5,0,0-26-12.36-12.29-32.53,0,0-4.65-32.55,13.69-35.68,0,0,9.15-17.07,24.46-6.24,0,0,4.53-31,16.78-21.74,0,0,30.59,1.5,24.49,12.36,0,0,16.8-12.43,22.93-1.59,0,0,18.36,3.07,12.27,18.58,0,0,18.37,12.37,1.57,21.7,0,0,12.26,15.48-1.5,15.5,0,0,3.07,10.85-6.09,14C453,532.82,454.55,551.42,439.25,545.25Z"/><path class="cls-34" d="M571.39,618.7s1.06-13.63-3.3-15.9-5.46-6.8-10.91-7.93-7.62,1.15-12,0-1.11-11.35-4.39-13.62-9.81-3.39-12,1.16,1.65,9.65-3.8,7.39-2.19-4.54-8.72-3.39-6.53,2.28-8.71,5.69-6,13.08-.52,11.93,4.37,4.54,6.55,7.94,7.66,15.89,8.74,13.62S527.84,637,530,639.22s9.8-5.69,13.07-4.56,6.53-1.15,8.72,2.25,5.44-3.42,6.54,1.13,6-4,6-2.85S572,634,572,628.36A79.09,79.09,0,0,0,571.39,618.7Z"/><path class="cls-34" d="M445.35,507s-2.19-7.94,0-12.49,1.07-8-1.11-11.36-2.2-11.35-4.38-11.35-4.37-3.4-10.9,0-9.79,6.83-13.06,4.57-3.29-9.09-9.82-7.94-10.9,1.16-14.15,8-7.6,13.64-12,11.38-9.81-5.66-14.16-1.11-9.8,4.56-10.88,11.38,5.47,11.35,0,18.17-10.88,8-6.52,11.38,6.55,6.8,8.74,11.34,3.28,8,9.81,5.66,15.23-12.52,21.77-10.26,5.47,11.35,13.1,11.34,17.43-2.31,22.87-5.73,9.79-9.1,14.15-8,10.88-6.84,9.78-11.38S450.8,507,445.35,507Z"/><path class="cls-34" d="M334.25,526.54c1.38.72-2.16,6.82,0,12.5s0,10.22,4.38,12.49,4.46,4.78,8.23,5.79,1.59,4.41,3.77,5.55,0,5.68-2.17,5.68-5.43,5.69-9.8,0-4.38-9.08-9.82-6.8-6.53,5.69-10.89,3.43-6.53,1.14-6.55-5.67,1.08-7.95,0-12.5-5.46-6.8,0-9.08,3.27-1.15,9.8-3.43S332.07,525.41,334.25,526.54Z"/><path class="cls-21" d="M551,772l6,3s8-76,9-87,7-28,10-34,9-13,10-14,4,10,5,22,3,61,4,68-2,32,0,36,2,13,2,13l10-2s-1-42-2-54-1-40-4-51-6-19-9-30,1-20-4-15-21,28-23,36-7,24-8,39-7,17-6,32S553,770,551,772Z"/></svg>