<svg id="Layer_1" data-name="Layer 1" xmlns="http://www.w3.org/2000/svg" viewBox="0 0 1000 1000"><defs><style>.cls-1{fill:#eaaa49;}.cls-1,.cls-2{stroke:#b25618;}.cls-1,.cls-10,.cls-12,.cls-18,.cls-2,.cls-22,.cls-24,.cls-25,.cls-26,.cls-27,.cls-28,.cls-29,.cls-3,.cls-4,.cls-5,.cls-6,.cls-7,.cls-8{stroke-miterlimit:10;}.cls-1,.cls-10,.cls-12,.cls-18,.cls-2,.cls-22,.cls-3,.cls-4,.cls-5,.cls-6,.cls-7,.cls-8{stroke-width:3px;}.cls-2{fill:#c6661c;}.cls-3{fill:#afafaf;}.cls-3,.cls-4{stroke:#939393;}.cls-20,.cls-4,.cls-7{fill:#fff;}.cls-12,.cls-5{fill:#fed1a5;}.cls-5{stroke:#d6a47c;}.cls-6{fill:#9d9d9e;stroke:#6d6d6d;}.cls-7{stroke:#d3d3d3;}.cls-8{fill:#2e63ff;stroke:#215bea;}.cls-9{fill:#2569d6;}.cls-10{fill:#4a9135;stroke:#336620;}.cls-11{fill:#407f2b;}.cls-12{stroke:#397725;}.cls-13{fill:#eabf98;}.cls-14{fill:#383d43;}.cls-15,.cls-18{fill:#32373b;}.cls-16{fill:#d591a8;}.cls-17{fill:#d17d9d;}.cls-18{stroke:#2b2a2a;}.cls-19{fill:#231f20;}.cls-21{fill:#2a2e30;}.cls-22{fill:#512314;stroke:#3f180d;}.cls-23{fill:#6c382a;}.cls-24{fill:#05b514;stroke:#0ea012;}.cls-24,.cls-25,.cls-26,.cls-27,.cls-28,.cls-29{stroke-width:2px;}.cls-25{fill:#fde801;stroke:#e0c605;}.cls-26{fill:#09b7f4;stroke:#0ab0dd;}.cls-27{fill:#ff308a;stroke:#ea2181;}.cls-28{fill:#ea0001;stroke:#cc050f;}.cls-29{fill:#bb48ff;stroke:#a63fef;}.cls-30{fill:#60dcfe;}.cls-31{fill:#f8f58e;}.cls-32{fill:#23e32b;}.cls-33{fill:#f3452c;}.cls-34{fill:#c37ef5;}.cls-35{fill:#fa8ac4;}</style></defs><title>painting</title><polygon class="cls-1" points="211.43 517.99 103.25 828.33 115.88 839.38 133.25 820.43 230.38 566.95 210.64 515.62 211.43 517.99"/><polygon class="cls-2" points="218.54 550.36 115.88 839.38 147.47 839.38 236.7 596.95 218.54 550.36"/><polygon class="cls-3" points="305.01 709.48 159.71 272.79 152.6 272 137.6 281.48 263.94 717.38 305.01 709.48"/><polygon class="cls-4" points="277.37 710.27 152.6 272 447.94 282.27 576.66 710.27 277.37 710.27"/><polygon class="cls-2" points="418.33 716.99 353.57 876.5 338.57 876.5 335.41 854.39 382.79 720.14 418.33 716.99"/><polygon class="cls-2" points="460.18 716.99 539.94 855.97 560.47 867.02 566.79 854.39 500.45 713.04 460.18 716.99"/><polygon class="cls-1" points="476.76 719.35 560.47 867.02 594.43 867.02 518.62 716.99 476.76 719.35"/><polygon class="cls-1" points="364.63 716.99 304.61 870.18 338.57 876.5 400.17 716.99 364.63 716.99"/><path class="cls-1" d="M285.66,687.77c5.53,0,298.5,10.26,298.5,10.26v28.43l-298.5-4.74Z"/><polygon class="cls-1" points="236.7 707.51 276.12 705.88 276.19 683.82 289.61 683.82 291.19 724.88 236.7 724.88 236.7 707.51"/><path class="cls-5" d="M621.5,479.5l-27,16s-45.2,6.42-49,6-18.48-6.29-27-7-18,13.44-18,20,3.23,17.46,12,20,72.07-.26,86-2c16-2,38-16,38-16Z"/><path class="cls-5" d="M868.72,528.64,853,576.28s-7.39,22.86-8.13,26.62-.9,9.13-2.79,17.5-10.48,16.27-17.16,14-16.37-2.88-16.27-12.13,14.11-46.8,18.45-60.17,10.93-49.39,10.93-49.39Z"/><path class="cls-5" d="M664.67,735.23S659.29,789,658.8,799s1.7,44.48,1.7,44.48,20.09,16.66,32.49,16.26,13.51-51.4,14-60.39,10.17-67.59,10.17-67.59Z"/><path class="cls-5" d="M811.68,736.8s5,53.83,5.48,63.82l2,45S801.68,862,789.5,861.5s-19.25-51.83-19.64-60.82-9.7-67.64-9.7-67.64Z"/><path class="cls-6" d="M826.5,855.5s2,14,1,18-15,29-18,32-11,14-21,15-27,2-33-2-9-6-10-9-1-12,1-17,37-20,47-21S826.5,855.5,826.5,855.5Z"/><path class="cls-6" d="M703.5,859.5l4.92-1.27s-1.92,10.27-3.92,14.27-16,17-20,20-19,15-26,17-23-1-28-5-12.63-11.61-9.82-23.81S652.5,861.5,652.5,861.5l29,7Z"/><path class="cls-7" d="M656.61,838.7s-31.11,24.8-34.11,31.8-4,25,11,32,28,4,39-4,26-22,30-28,9-18,8-25-5-12-10-10-6,10-8,6,4-5-6-8-18-4-23-5-8,1-8,4A22,22,0,0,0,656.61,838.7Z"/><path class="cls-7" d="M773.83,844.34S746.5,885.5,745.5,895.5s1,14,7,18,28,8,43,0,31-39,32-50-1-18-3-22-12-1-16-2-3-5-8-6-17-2-22,0S772.17,838.19,773.83,844.34Z"/><path class="cls-6" d="M682.5,853.5s-16,11-23,16-16,8-23,3,13-27,20-29S682.5,853.5,682.5,853.5Z"/><path class="cls-6" d="M774.5,855.5c3,0,22.39-.65,25.2,1.67s-9.2,20.33-13.2,24.33-17,6-21,3S774.5,855.5,774.5,855.5Z"/><path class="cls-8" d="M645.5,611.5s-5,84-6,99,0,61,0,61,72,1,78,0,13-75,13-75,17,76,19,76,82,2,86,2-10-174-10-174S650.5,603.5,645.5,611.5Z"/><path class="cls-9" d="M646.5,640.5s-5,13-2,16,7,4,18,6,26,4,36,7,14,3,23,7,18,4,24,0,10-4,24-8,9-8,24-4,17,6,24,8,10,1,10-3-2-25-2-25-136-5-151-8S646.5,640.5,646.5,640.5Z"/><path class="cls-9" d="M728.5,693.5s-8,61-9,65-3,9-5,9-22,2-24,2-23-2-25-2,22-4,31-8,16-8,19-18S728.5,693.5,728.5,693.5Z"/><path class="cls-9" d="M746.5,752.5c1,0,6,17,6,17s47,2,50,2-18-8-26-9-27-6-27-7S746.5,752.5,746.5,752.5Z"/><path class="cls-10" d="M702.4,413.75s-14.72,2.62-35.35,16.7S641.5,447.5,624.5,461.5c-13.58,11.19-26.19,19.3-26,23,.16,3.1,24.59,39.62,41,47,3.22,1.45,34.55-33.82,35-34,.64-.25-18.47,44.67-19.84,49.16-4.5,14.76-17.07,48.36-19.5,56.32-3.18,10.38-15.08,31.43,1.05,38s44.59,18.11,62.42,21.82,49.28,1.16,72.93-8.43,46.74,5.93,55,4.57,20.53-15.93,12.89-37.82-15.84-72.54-15.11-76.29,29.88,3.09,45.33-3.29S885,532.41,885,532.41s-8.55-39.49-18.09-62.21c-9-21.38-21.76-43.44-45.4-51.5-22.78-7.77-35.72-8.36-65.4-7.74S702.4,413.75,702.4,413.75Z"/><path class="cls-10" d="M824.37,544.85s-7-46.07-8.3-52.5"/><path class="cls-11" d="M726.48,658.13s33.39-9.28,42.66-14.84,18.55-10.2,28.75-10.2S811.8,634,812.73,622s-.93-75.12-4.64-84.4.93-48.22.93-48.22,11.13,44.51,11.13,55.64,12.05,67.7,14.84,73.27,4.63,27.82-4.64,31.53-5.57,4.64-20.4.93-26-5.57-39-.93-26,9.27-34.31,8.35S726.48,658.13,726.48,658.13Z"/><path class="cls-11" d="M820.15,506s6.49,35.24,7.42,35.24,24.11.93,28.75,0,23.18-6.49,24.11-8.34-13.91,3.71-21.33,2.78-15.77,0-22.26-5.57S820.15,506,820.15,506Z"/><path class="cls-11" d="M782.12,410.51s-.92,37.09-4.63,42.66-13.91,24.11-20.41,24.11-19.47-13-22.25-16.69-3.71-13-8.35-7.42-11.13,19.47-17.62,18.55-9.28-11.13-11.13-23.19,5.56-39.88,13-47.3S776.56,388.25,782.12,410.51Z"/><path class="cls-10" d="M773.43,410.78s5.45,26.16-1,39.14-14.84,25-18.55,23.19-23.18-28-24.58-29.76-19,25.12-21.79,26-7.42-4.64-8.35-7.42S688,439.72,701,412.83,771.7,397.59,773.43,410.78Z"/><path class="cls-12" d="M760.33,411.9s-5.56,20.4-11.13,25-24.11,3.71-30.6,0-8.35-29.68-8.35-29.68l37.1-4.63S760.33,411,760.33,411.9Z"/><path class="cls-5" d="M619,315.22s-20.17,8.44-20.54,22S605.81,365.84,619,368s15.77,0,15.77,0S648,406.92,687.61,419.4s78.5,2.93,78.5,2.93,34.11-12.11,56.49-37.05c0,0,9.9-11.37,13.93-21.64,0,0,25-.37,35.22-13.2s8.43-25.31,5.5-30.08S867,306.79,858.91,306.05s-16.14-65.29-16.14-65.29l-64.92-20.54-48.06,10.27H640.66l-15,57.59Z"/><path class="cls-13" d="M626.46,304.59s15.72-37,25.31-40,24.16-4,32.21-.73,31.35-1.7,39,.13,26.08,2.37,28,2,53-8,58.38-7.63,16.11,1.47,21.09,6.6,13.42,22.74,15.34,33.38S863.07,269,863.07,269s7.28-41.09-10-45.49-95.88-15-95.88-15L640.64,228.66,624.15,276Z"/><path class="cls-14" d="M641.76,218s1.1-23.11,4-21.27,1.83,8.06,12.1,9.17,13.57-5.14,18.34-6.61,4.77,0,14.31,1.84,18.34-6.24,22.74-7.34,7-.73,19.07,1.1,9.91.73,20.54,1.84,32.65,6.23,39.62,4.4S801,189.78,801,189.78s-3.3,8.07,5.87,13.93,11-5.86,16.14-2.2,4.77,4.77,8.44,8.07,4.4,8.44,13.94,7,9.9-5.13,15-2.2,7.7,13.94,8.43,15.77,0,12.11,0,12.11-9.17-11.37-28.24-17.61-23.48-8.43-39.62-11.37-34.84-7.33-46.58-6.23-27.14,5.13-35.21,5.86-20.54-1.46-29.71-2.2-20.55,0-25.68,2.2S641.76,218,641.76,218Z"/><path class="cls-15" d="M663,297.25s7.7-6.6,11.37-5.87a19.8,19.8,0,0,1,8.43,4l2.2,2.2s-1.83-7.71-7.33-8.81-10.64,1.1-11.74,2.94S663,297.25,663,297.25Z"/><path class="cls-15" d="M770.51,296.52s5.13-5.14,8.8-4.77,4.4-.37,6.61,1.83a52.83,52.83,0,0,1,3.66,4s-2.2-8.81-6.23-9.54-8.07.37-8.81,1.47S770.51,296.52,770.51,296.52Z"/><path class="cls-16" d="M679.54,374.46l111.88-.76s3.3,16.72-11.74,24.12-39.62,12-59.06,9.7-34.48-9.7-37.41-17.1A65.37,65.37,0,0,1,679.54,374.46Z"/><path class="cls-17" d="M692,393.69s13.58,9.17,26.41,12.1,32.28-1.1,34.48-1.83,15.41-5.14,18-7,7.33-4,8.43-5.87C779.31,391.12,712.19,381.58,692,393.69Z"/><path class="cls-5" d="M733.1,341.63s-3.67-2.2-5.51-.73-2.56,5.13.74,6.23a17.21,17.21,0,0,0,4.4,1.11"/><path class="cls-13" d="M846.62,351.72a47.14,47.14,0,0,0,5.5-5.87c2.94-3.67,5.51-3.67,8.07-7s-.36-1.47-2.2-5.13,0-11,1.84-12.47,1.1-4.41,5.5-1.84a16.85,16.85,0,0,1,7,7.34c.36,1.1-2.57-.74-4-1.84s-4.77-1.83-5.5,1.1-1.47,5.51,0,8.07-.37,7-1.83,9.17-6.24,4.4-7.34,5.51S846.62,351.72,846.62,351.72Z"/><path class="cls-13" d="M628,358s-1.84-5.51-4-7-5.87,3.3-5.13-2.94,2.2-4.4,0-9.17-3.31-8.07-5.14-7.33-5.87,4-6.23,7.7a46.68,46.68,0,0,0,0,7.7s2.2-8.44,4.4-8.8,4.4-.74,4,3.67-.37,8.8,1.1,10.27,5.14,2.93,6.6,4A15.72,15.72,0,0,0,628,358Z"/><path class="cls-18" d="M848.09,312.84s-13.57-40.72-13.57-56.49c0,0-155.9,9.17-181.2-3.67,0,0-14.68,37.78-19.81,40s-5.32,11.19-7.52,14.49a59.72,59.72,0,0,1-7.15,7.89s-9.54,7.34-9.54,5.13-9.17-51.71-7.7-60.88S607.1,234,610,232.14c0,0-12.47-26-5.13-45.12S621,164.28,621,164.28s17.24,29.71,26,29.71,71.53-26.41,94.64-23.1,80,11,92.43,18.34,15.41,15,15.41,15,26,10.28,30.07,22-9.17,41.08-10.63,48-4.6,33.14-6.15,32.71-11.09,9.84-10.36,13.14S848.09,312.84,848.09,312.84Z"/><circle class="cls-19" cx="674.76" cy="321.69" r="10.45"/><circle class="cls-20" cx="669.53" cy="317.88" r="2.46"/><circle class="cls-19" cx="779.38" cy="322.93" r="10.45"/><circle class="cls-20" cx="774.15" cy="319.12" r="2.46"/><path class="cls-21" d="M647.19,187.47S637.91,193,637,196.74s19.91,10.33,37.78,14,33.63,2.73,42,12.93,34.32,10.2,46.37,12.05,41.73,13,47.3,14.84,24.11-1.85,30.6,5.57,1.86,19.47,5.57,25,11.13,13,13,13.91,6.49-10.2,4.64-26-31.53-60.28-77.9-73.27S658.32,189.32,647.19,187.47Z"/><path class="cls-22" d="M818.38,147.67l9.15-18.42,7.14,9.2s-9.87,4.48-14.76,11.93Z"/><path class="cls-22" d="M641.93,193.31c1.07,4.2,56.52-4.53,110.52,16.88,53.79,21.33,61.33,21.41,73.26,36.17s29.41,39.35,46.17,47.52,23.2-17.24,24.31-20.63,3.33-25.06-11.72-56.54-44.6-54.45-44.6-54.45-42.35-37.81-76.75-42.07-68.31-3.26-91.08,11.55S634.19,162.81,641.93,193.31Z"/><path class="cls-23" d="M652.08,155.44c1-2.39,25.07-22.45,43.58-26.31s60.49-8.58,75.65-2.26,26.12,10.59,30.31,12.63,40.27,30.71,47.47,39.05,19,24.82,22.81,32,10.25,25.91,11.66,30.35.88,23.5-9.77,14.91-18.24-35.18-27-46.23-11.7-6.06-36.77-19.18S769.58,162.31,748.13,159s-27.07,2.35-48.83,3.36S646.82,168.07,652.08,155.44Z"/><path class="cls-5" d="M824.5,595.5s0-8.09,2-13.54-2-15.46,5-9.46,15,16,16,18-1,16-1,16-2,3-4,4-8,1-8,1l-7-10Z"/><path class="cls-2" d="M874.36,591.53c1.85,0,14.75,3.07,20.28,16s-3.07,35-11.06,43.62S851,676.94,822.13,682.47s-55.3,11.06-85.41-5.53-16.59-57.14-16.59-57.14l123.51,8Z"/><path class="cls-1" d="M884.19,595.33c-7.38-6.65-17.81-5.64-26.42-9.94s-7.37-13.52-8-18.44-5.53-14.75-35-13.52-59,19.67-59.6,19.67l-9.83,8.6c-21.51,14.75-32,44.24-28.22,62.79S730,669.57,742.87,675.1s42.4,9.21,71.28,4.3,43-16,56.53-25.2,22.12-26.42,22.12-38.09S891.57,602,884.19,595.33Zm-41.47,11.25c-1.23,3.08-19.05,2.46-24-3.07s-4.91-15.36,0-17.2,10.45.61,16.59,3.68,7.38,9.84,7.38,9.84C844.56,604.74,844,603.51,842.72,606.58Z"/><path class="cls-24" d="M792,584.77s3.68,9.22,0,11.06-14.14,4.3-15.37,2.46-12.28,0-12.28-8.6,4.91-8.61,8-12.91,12.91-9.21,21.51-5.53S799.4,583.54,792,584.77Z"/><path class="cls-25" d="M769.29,608.74c-.13.6-6.14-1.23-4.91,4.3s1.22,16-8,14.74-16-4.91-17.21-13.51-3.68-20.28,10.45-16.6S771.13,600.13,769.29,608.74Z"/><path class="cls-26" d="M761.92,639.46c-.87,1.74-3.07,3.07-1.85,10.44s6.15,11.68-2.45,12.29S743.48,669,739.18,661s-8.6-14.13,0-18.43,7.38-11.06,14.75-9.83S763.15,637,761.92,639.46Z"/><path class="cls-27" d="M789,609.35c-.55.27-8.6,6.14-9.21,11.67s-3.08,7.38,4.91,9.22,14.13,0,22.12,3.07,14.14,1.23,12.29-4.91.62-13.52-9.21-16S792.64,607.51,789,609.35Z"/><path class="cls-28" d="M850.38,619.83a3.18,3.18,0,0,0-.74,0c-4.45.59-12.14,6.46-12.14,13.43,0,7.38-4.31,7.38-4.31,12.29s1.85,12.91,11.06,10.45,21.51-4.3,22.74-9.83.61-4.92-2.46-11.68S859.58,621.1,850.38,619.83Z"/><path class="cls-29" d="M806.77,639.46c-3.68-.62-11.06-1.85-14.74,2.46s-4.92,8-10.45,11.67-12.9,8-8,13.52,8.6,13.52,18.44,6.76S803.7,661,809.85,655.43s6.14-12.29,3.07-14.13A13.23,13.23,0,0,0,806.77,639.46Z"/><path class="cls-30" d="M756.39,653.59c-2.46,0-4.3-.61-8.61,0s-8,1.84-4.3,3.07,9.22,3.69,11.68,1.85S756.39,653.59,756.39,653.59Z"/><path class="cls-31" d="M758.85,617.34c-2.46,0-11.68-2.46-10.45,0s9.83,4.3,10.45,2.46S758.85,617.34,758.85,617.34Z"/><path class="cls-32" d="M782.81,591.53c-2.46-.61-7.37-8.6-8.6-3.69s4.3,6.76,7.37,6.15S782.81,591.53,782.81,591.53Z"/><path class="cls-33" d="M854.09,646.83c-6.15-.61-10.45-1.23-7.38,1.23s8,1.84,8.6.61S854.09,646.83,854.09,646.83Z"/><path class="cls-34" d="M792,669.57c-3.54-5.89-9.84-1.23-8.61,0S793.87,672.64,792,669.57Z"/><path class="cls-35" d="M795.71,626.55c-4.3-2.45-7.37-6.14-8-3.07s4.31,4.3,6.76,4.3S795.71,626.55,795.71,626.55Z"/><path class="cls-5" d="M837.5,603.5s-8,4.41-8,5.21-.08,3.65-3,3.72-8.94-1.93-8.94-3.93a44,44,0,0,1,2-10c1-3,4-8,6-8"/><path class="cls-7" d="M467.69,510.36s-2.17-2.9-3.66-3a19.86,19.86,0,0,0-5.88,0c-1.84.45-4.43,1.57-5.34,3s-2.18,2.23-1.27,4,2.87,1.75,2.85,3.7-.82,2.65.44,3.81,1.59,2.54,3.44,2.09,12.71-6,10.9-11.44Z"/><path class="cls-24" d="M456,507.7c-1,.12-6.85,4.47-9.08,5.72s-3.93,2.9-5.94,2.2-4.13-2.33-1.94-.22,5,5.1,8,6.15,3.75,1.4,6,2.09c2.74.84,4.69,1.07,6,.42s1.26-8.78.54-10.61A40.12,40.12,0,0,0,456,507.7Z"/><path class="cls-1" d="M479.41,513c1.42-.18,70.51-13.91,72.09-16.5s1.62-6-2.62-5.41-73.25,18.57-73.25,18.57Z"/><path class="cls-1" d="M467.15,510.8c.58-.75,15.36-3.42,15.36-3.42s2.25,2.58,1.38,5.09l-15.19,2.92S465.51,512.93,467.15,510.8Z"/><path class="cls-5" d="M542,504s-6.78-5.13-10.39-6.57S523,495,520,497s-1,7,8,10"/><path class="cls-24" d="M296.5,594.5c4-3,53-27,97-25s114,29,114,29"/><path class="cls-2" d="M374.5,574.5c2-4,6-29,6-45s-4-30-6-44-7-27-7-32-18-12-18-12,18-4,28,7,26-12,26-12-16,16-13,31,8,38,8,57,18,50,18,50l-18-4-10,14v-17l-17,13Z"/><path class="cls-24" d="M381.5,474.5s-14-9-26,0-19,4-35-4-26,1-36-13-21-31-18-46,19-9,31-23,13-37,26-23,17,15,35,2,39-22,43-6,5,17,16,20,29,5,20,16-13,16-4,27,29,17,17,25-17,1-23,17-25,15-30,12S381.5,474.5,381.5,474.5Z"/><path class="cls-24" d="M296.5,440.5c3-4,23-7,30,0s16,12,25,6,12-9,17-2"/><path class="cls-24" d="M423.5,440.5c-5-5-8-23-26-19s-28-12-36-11"/><path class="cls-24" d="M388.5,390.5c-7-1-40,10-49,12s-10,8-19,8"/><path class="cls-24" d="M335.5,586.5s-20-29-9-22,13,16,14,2,0-26,4-16-3,21,4,13,13-23,12-13-7,26,1,16,1-15,7-10,12,11,14,3-3-33,6-13,7.27,30.52,20.13,20.76S427.5,542.5,427.5,553.5s-6,28,5,16,14-29,14-13-5,29,5,17,15-28,15-11-5,28,6,16,13-2,12,5a20.68,20.68,0,0,1-5,11"/></svg>