<?xml version="1.0" encoding="UTF-8" standalone="no"?>
<!-- Created with Inkscape (http://www.inkscape.org/) -->

<svg
   xmlns:dc="http://purl.org/dc/elements/1.1/"
   xmlns:cc="http://creativecommons.org/ns#"
   xmlns:rdf="http://www.w3.org/1999/02/22-rdf-syntax-ns#"
   xmlns:svg="http://www.w3.org/2000/svg"
   xmlns="http://www.w3.org/2000/svg"
   xmlns:sodipodi="http://sodipodi.sourceforge.net/DTD/sodipodi-0.dtd"
   xmlns:inkscape="http://www.inkscape.org/namespaces/inkscape"
   width="1000"
   height="1000"
   viewBox="0 0 264.58333 264.58334"
   version="1.1"
   id="svg2383"
   inkscape:version="0.92.5 (2060ec1f9f, 2020-04-08)"
   sodipodi:docname="How are you.svg"
   enable-background="new">
  <defs
     id="defs2377" />
  <sodipodi:namedview
     id="base"
     pagecolor="#ffffff"
     bordercolor="#666666"
     borderopacity="1.0"
     inkscape:pageopacity="0.0"
     inkscape:pageshadow="2"
     inkscape:zoom="0.70710678"
     inkscape:cx="563.40538"
     inkscape:cy="431.56025"
     inkscape:document-units="px"
     inkscape:current-layer="layer1"
     showgrid="false"
     units="px"
     inkscape:window-width="1920"
     inkscape:window-height="1031"
     inkscape:window-x="0"
     inkscape:window-y="25"
     inkscape:window-maximized="1"
     showguides="true"
     inkscape:lockguides="true"
     inkscape:object-nodes="false"
     inkscape:snap-nodes="false"
     inkscape:snap-others="false" />
  <metadata
     id="metadata2380">
    <rdf:RDF>
      <cc:Work
         rdf:about="">
        <dc:format>image/svg+xml</dc:format>
        <dc:type
           rdf:resource="http://purl.org/dc/dcmitype/StillImage" />
        <dc:title></dc:title>
      </cc:Work>
    </rdf:RDF>
  </metadata>
  <g
     inkscape:groupmode="layer"
     id="layer3"
     inkscape:label="Layer 2">
    <ellipse
       style="fill:#ace0d5;fill-opacity:1;stroke-width:0.45916313"
       id="path3018"
       cx="133.16296"
       cy="223.63484"
       rx="105.7971"
       ry="33.096272" />
    <path
       d="m 236.76137,106.45113 c -4.57629,21.39859 7.85183,31.07104 8.60356,42.93919 0.85588,13.52444 -8.44745,19.30375 -12.64159,19.21161 4.26066,-3.93636 -1.33261,-18.11529 -1.33261,-18.11529 0,0 3.25962,26.84333 -10.89321,27.92312 1.00025,-6.18099 1.17051,-18.77451 1.17051,-18.77451 0,0 -1.01439,26.75591 -16.26764,27.7341 2.43163,-5.87855 0.27521,-25.1067 0.27521,-25.1067 0,0 -3.64614,20.29139 -2.44655,24.3199 -15.09275,-4.01906 -16.85568,-21.72087 -17.14661,-28.55633 -2.54394,2.59666 -0.89591,11.78072 1.73366,16.1093 -11.99323,-5.94471 -14.75701,-13.56698 -12.17424,-29.55814 -5.48614,3.55122 -2.26018,17.7845 -0.98114,20.2654 -9.16851,-6.07939 -10.58096,-22.09655 -4.06829,-37.53508 3.29486,-7.81033 8.29929,-10.35906 7.66724,-19.03558 -0.28536,-3.91746 52.37634,-1.46491 58.5017,-1.82099"
       style="fill:#925536;fill-opacity:1;fill-rule:nonzero;stroke:none;stroke-width:0.03527778"
       id="path1658"
       inkscape:connector-curvature="0" />
    <path
       d="m 234.35922,115.01852 c 0,0 2.47384,7.34488 5.25234,1.27304 1.89477,3.75442 -3.3106,8.76563 -5.37481,4.14264 -2.06462,-4.62227 0.12247,-5.41568 0.12247,-5.41568"
       style="fill:#925536;fill-opacity:1;fill-rule:nonzero;stroke:none;stroke-width:0.03527778"
       id="path1660"
       inkscape:connector-curvature="0" />
    <path
       d="m 181.53841,113.84801 c 0,0 -7.43247,4.41033 -5.78305,-3.96992 -4.38671,1.63621 -3.0334,11.41118 2.11659,9.13326 5.15,-2.27724 3.66646,-5.16334 3.66646,-5.16334"
       style="fill:#925536;fill-opacity:1;fill-rule:nonzero;stroke:none;stroke-width:0.03527778"
       id="path1662"
       inkscape:connector-curvature="0" />
    <path
       d="m 248.4308,138.53815 c -0.55976,-0.31425 -1.45547,1.71774 -1.72331,1.74137 0.0137,-0.0803 0.78599,-2.41238 0.95923,-2.91566 0.40405,-1.17902 -0.48986,-1.78389 -0.99268,-0.84823 -0.42156,0.7868 -1.28103,2.66756 -1.33041,2.76207 0.0165,-0.10631 0.68641,-2.5636 0.81645,-3.01489 0.38213,-1.32786 -0.80689,-2.0211 -1.27088,-0.50562 -0.31602,1.02543 -0.81445,2.85657 -0.89311,2.99834 -0.0307,-0.0779 0.0584,-1.53579 0.0588,-2.3982 -2e-4,-1.42475 -1.02475,-1.62322 -1.26132,-0.0189 -0.1834,1.26879 -0.74276,4.27659 -0.74276,4.27659 0,0 -1.18206,-1.58305 -1.90751,-0.79388 -0.73421,0.78917 1.40649,3.47798 1.40649,3.47798 l 0.14377,0.0921 c -0.91761,1.76263 -7.06546,7.91998 -17.81968,1.92094 -2.37367,-1.32552 -3.65211,2.88492 -1.53352,4.00724 15.41911,8.15861 21.33159,-1.69646 22.73529,-3.9789 0,0 0.91502,0.53163 2.53198,-3.37874 0.63364,-1.53343 1.36228,-3.11884 0.82322,-3.42364"
       style="fill:#fabd99;fill-opacity:1;fill-rule:nonzero;stroke:none;stroke-width:0.03527778"
       id="path1664"
       inkscape:connector-curvature="0" />
    <path
       d="m 212.5481,188.90279 c 0,0 0.1402,32.41707 0.30966,36.02973 -2.01285,0.61197 -3.27954,0.16068 -3.27954,0.16068 l -1.0341,-36.75511 4.00398,0.5647"
       style="fill:#fabd99;fill-opacity:1;fill-rule:nonzero;stroke:none;stroke-width:0.03527778"
       id="path1666"
       inkscape:connector-curvature="0" />
    <path
       d="m 209.11922,227.23622 c -0.38233,1.00654 -1.79001,1.78862 1.59964,4.96417 2.03893,1.90911 4.2298,3.37875 7.20865,2.18319 2.50569,-1.00652 0.98371,-4.26951 0.98371,-4.26951 l -9.792,-2.87785"
       style="fill:#cdd0d0;fill-opacity:1;fill-rule:nonzero;stroke:none;stroke-width:0.03527778"
       id="path1668"
       inkscape:connector-curvature="0" />
    <path
       d="m 209.29625,222.39965 c -0.49286,0.93802 -1.67929,3.70952 0.52272,6.19281 1.48196,1.67046 4.27879,4.51759 7.98447,3.31494 2.90576,-0.94274 0.97078,-3.86783 -0.55957,-5.02795 -1.2165,-0.92621 -3.31358,-3.15902 -4.11888,-4.03087 -0.2063,-0.22446 -0.32797,-0.35913 -0.32797,-0.35913 0,0 -0.414,2.01069 -3.50077,-0.0898"
       style="fill:#186bbe;fill-opacity:1;fill-rule:nonzero;stroke:none;stroke-width:0.03527778"
       id="path1670"
       inkscape:connector-curvature="0" />
    <path
       d="m 213.45137,223.77714 c 0,-0.68757 0.5068,-1.99417 0,-2.78098 -0.40762,-0.63558 -3.2855,-0.68282 -3.65549,0.48674 -0.21706,0.68758 0.39786,2.22573 0.90506,2.58014 0.59461,0.41583 2.17155,0.10398 2.75043,-0.2859"
       style="fill:#186bbe;fill-opacity:1;fill-rule:nonzero;stroke:none;stroke-width:0.03527778"
       id="path1672"
       inkscape:connector-curvature="0" />
    <path
       d="m 214.32458,224.08194 c -0.88635,-0.19138 -2.15802,0.25991 -2.62379,0.8364 -0.46119,0.58125 0.0392,0.99474 0.415,0.94748 0.37675,-0.0449 1.48991,-0.55996 2.72633,-0.7608 1.23523,-0.19611 0.19157,-0.87185 -0.51754,-1.02308"
       style="fill:#e0e0de;fill-opacity:1;fill-rule:nonzero;stroke:none;stroke-width:0.03527778"
       id="path1674"
       inkscape:connector-curvature="0" />
    <path
       d="m 215.84556,225.8729 c -0.88635,-0.19138 -2.15782,0.25755 -2.62358,0.83643 -0.4612,0.57887 0.0392,0.99472 0.41499,0.94747 0.37656,-0.0472 1.48992,-0.56234 2.72613,-0.76318 1.23543,-0.1961 0.19177,-0.87186 -0.51754,-1.02072"
       style="fill:#e0e0de;fill-opacity:1;fill-rule:nonzero;stroke:none;stroke-width:0.03527778"
       id="path1676"
       inkscape:connector-curvature="0" />
    <path
       d="m 196.33424,189.1745 c -0.12724,26.95674 -0.0125,29.42346 -0.30986,35.75802 2.01305,0.61197 3.27974,0.16068 3.27974,0.16068 l 1.0339,-36.75511 -4.00378,0.83641"
       style="fill:#fabd99;fill-opacity:1;fill-rule:nonzero;stroke:none;stroke-width:0.03527778"
       id="path1678"
       inkscape:connector-curvature="0" />
    <path
       d="m 199.76292,227.23622 c 0.38254,1.00654 1.79002,1.78862 -1.59944,4.96417 -2.03913,1.90911 -4.22999,3.37875 -7.20864,2.18319 -2.5059,-1.00652 -0.98392,-4.26951 -0.98392,-4.26951 l 9.792,-2.87785"
       style="fill:#cdd0d0;fill-opacity:1;fill-rule:nonzero;stroke:none;stroke-width:0.03527778"
       id="path1680"
       inkscape:connector-curvature="0" />
    <path
       d="m 199.58609,222.39965 c 0.49266,0.93802 1.74521,3.90565 -0.52293,6.19281 -1.55742,1.56887 -4.27877,4.51759 -7.98446,3.31494 -2.90556,-0.94274 -0.97058,-3.86783 0.55957,-5.02795 1.2167,-0.92621 3.31378,-3.15902 4.11888,-4.03087 0.20651,-0.22446 0.32797,-0.35913 0.32797,-0.35913 0,0 0.414,2.01069 3.50097,-0.0898"
       style="fill:#186bbe;fill-opacity:1;fill-rule:nonzero;stroke:none;stroke-width:0.03527778"
       id="path1682"
       inkscape:connector-curvature="0" />
    <path
       d="m 195.43077,223.77714 c 0,-0.68757 -0.50679,-1.99417 0,-2.78098 0.40782,-0.63558 3.28551,-0.68282 3.6555,0.48674 0.21706,0.68758 -0.39787,2.22573 -0.90506,2.58014 -0.59462,0.41583 -2.17156,0.10398 -2.75044,-0.2859"
       style="fill:#186bbe;fill-opacity:1;fill-rule:nonzero;stroke:none;stroke-width:0.03527778"
       id="path1684"
       inkscape:connector-curvature="0" />
    <path
       d="m 194.55777,224.08194 c 0.88634,-0.19138 2.15781,0.25991 2.62359,0.8364 0.46119,0.58125 -0.0392,0.99474 -0.415,0.94748 -0.37656,-0.0449 -1.48992,-0.55996 -2.72614,-0.7608 -1.23542,-0.19611 -0.19177,-0.87185 0.51755,-1.02308"
       style="fill:#e0e0de;fill-opacity:1;fill-rule:nonzero;stroke:none;stroke-width:0.03527778"
       id="path1686"
       inkscape:connector-curvature="0" />
    <path
       d="m 193.03658,225.8729 c 0.88635,-0.19138 2.15782,0.25755 2.62359,0.83643 0.4612,0.57887 -0.039,0.99472 -0.41499,0.94747 -0.37656,-0.0472 -1.48972,-0.56234 -2.72614,-0.76318 -1.23543,-0.1961 -0.19177,-0.87186 0.51754,-1.02072"
       style="fill:#e0e0de;fill-opacity:1;fill-rule:nonzero;stroke:none;stroke-width:0.03527778"
       id="path1688"
       inkscape:connector-curvature="0" />
    <path
       d="m 198.24592,138.56178 3.38846,-0.47255 v -4.07529 h 5.32145 v 4.08474 l 3.30363,0.4631 c 0.33275,7.44507 -5.60362,7.83492 -5.99611,7.85146 v 0.002 l -0.0108,-0.002 -0.01,0.002 v -0.002 c -0.39289,-0.0165 -6.32906,-0.40639 -5.99711,-7.85146"
       style="fill:#fabd99;fill-opacity:1;fill-rule:nonzero;stroke:none;stroke-width:0.03527778"
       id="path1690"
       inkscape:connector-curvature="0" />
    <path
       d="m 204.25339,136.97401 c -0.94927,0 -1.77767,0.39931 -2.24344,0.99707 v -2.7597 h 4.48548 v 2.7597 c -0.46597,-0.59776 -1.29437,-0.99707 -2.24204,-0.99707"
       style="fill:#efa378;fill-opacity:1;fill-rule:nonzero;stroke:none;stroke-width:0.03527778"
       id="path1692"
       inkscape:connector-curvature="0" />
    <path
       d="m 196.9631,138.62557 c 0.0347,6.32276 3.7921,8.66426 7.30343,8.07356 v -0.007 l 0.0231,0.006 0.0237,-0.006 v 0.007 c 3.51113,0.5907 7.00752,-1.7508 7.04137,-8.07356 1.5174,0.002 7.17678,1.59015 11.68676,5.63519 -0.0703,1.50509 -3.03201,7.83728 -3.87714,8.59099 -1.23801,-0.99235 -2.00607,-1.29715 -2.77791,-2.22806 0.12963,5.29021 2.31533,22.1438 2.10464,24.31518 0,0 -6.52083,1.2428 -14.17772,1.34204 v 0.002 h -0.0237 -0.0231 v -0.002 c -7.65709,-0.0992 -13.92881,-1.73899 -13.92881,-1.73899 -0.21088,-2.17374 1.38478,-18.72962 1.41764,-23.62761 -0.9891,0.80569 -1.67671,1.33258 -2.09847,1.55941 -0.84513,-0.75372 -4.37278,-7.11663 -4.44347,-8.62171 4.9172,-4.54832 10.22512,-5.22407 11.74968,-5.22644"
       style="fill:#186bbe;fill-opacity:1;fill-rule:nonzero;stroke:none;stroke-width:0.03527778"
       id="path1694"
       inkscape:connector-curvature="0" />
    <path
       d="m 188.47085,153.77088 c 0,0 -3.98845,-4.97834 -4.59959,-9.26675 0.83218,-0.67575 1.96584,-1.37276 1.96584,-1.37276 0,0 1.98536,5.2784 4.81924,9.047 -1.26092,0.97582 -2.18549,1.59251 -2.18549,1.59251"
       style="fill:#fef5fa;fill-opacity:1;fill-rule:nonzero;stroke:none;stroke-width:0.03527778"
       id="path1706"
       inkscape:connector-curvature="0" />
    <path
       d="m 219.89833,153.77088 c 0,0 3.98845,-4.97834 4.59939,-9.26675 -0.83199,-0.67575 -1.96585,-1.37276 -1.96585,-1.37276 0,0 -1.98536,5.2784 -4.81903,9.047 1.26071,0.97582 2.18549,1.59251 2.18549,1.59251"
       style="fill:#fef5fa;fill-opacity:1;fill-rule:nonzero;stroke:none;stroke-width:0.03527778"
       id="path1708"
       inkscape:connector-curvature="0" />
    <path
       d="m 195.62612,138.81696 c 0,0 1.86449,-0.37804 2.89719,-0.84588 0.56236,3.8206 1.94993,7.05757 5.83522,7.14972 3.88649,-0.0921 5.27366,-3.32912 5.83621,-7.14972 1.0329,0.46784 2.8972,0.84588 2.8972,0.84588 0,0 -0.61273,9.65424 -8.66152,9.63062 v 0 c -0.0241,0 -0.0474,0 -0.0719,0 -0.0235,0 -0.0473,0 -0.0716,0 v 0 c -8.04839,0.0237 -8.66072,-9.63062 -8.66072,-9.63062"
       style="fill:#fef5fa;fill-opacity:1;fill-rule:nonzero;stroke:none;stroke-width:0.03527778"
       id="path1710"
       inkscape:connector-curvature="0" />
    <path
       d="m 211.92203,153.73544 c 0.14755,0 0.26723,-0.14177 0.26723,-0.31661 0,-0.79861 -0.0159,-1.31134 -0.23477,-1.65157 -0.23478,-0.3686 -0.61732,-0.43713 -1.2412,-0.43713 -0.97815,0 -1.02375,-0.18664 -1.02375,-0.92383 0,-0.85768 0.21128,-0.92384 0.90407,-0.92384 h 4.03862 c 0.69279,0 0.90387,0.0663 0.90387,0.92384 0,0.73719 -0.0456,0.92383 -1.02374,0.92383 -0.62389,0 -1.00642,0.0685 -1.2412,0.43713 -0.21885,0.34023 -0.23458,0.85296 -0.23458,1.65157 0,0.17484 0.11968,0.31661 0.26724,0.31661 0.14755,0 0.26703,-0.14177 0.26703,-0.31661 0,-0.58598 0.01,-1.08688 0.12606,-1.26881 0.0856,-0.13467 0.31423,-0.18665 0.81545,-0.18665 0.62229,0 1.02593,-0.15358 1.27047,-0.48438 0.2529,-0.34259 0.28775,-0.61667 0.28775,-1.07269 0,-0.75371 -0.14915,-1.55705 -1.43835,-1.55705 h -4.03862 c -1.2892,0 -1.43835,0.80334 -1.43835,1.55705 0,0.45602 0.0349,0.7301 0.28755,1.07269 0.24474,0.3308 0.64838,0.48438 1.27048,0.48438 0.50121,0 0.73002,0.052 0.81545,0.18665 0.11649,0.18193 0.12604,0.68283 0.12604,1.26881 0,0.17484 0.11969,0.31661 0.26725,0.31661"
       style="fill:#ffffff;fill-opacity:1;fill-rule:nonzero;stroke:none;stroke-width:0.03527778"
       id="path1712"
       inkscape:connector-curvature="0" />
    <path
       d="m 210.21924,149.93375 h 4.9397 l 1.09723,-10.5899 -4.93971,-1.23571 -1.09722,11.82561"
       style="fill:#f36717;fill-opacity:1;fill-rule:nonzero;stroke:none;stroke-width:0.03527778"
       id="path1714"
       inkscape:connector-curvature="0" />
    <path
       d="m 196.46985,153.73544 c -0.14756,0 -0.26724,-0.14177 -0.26724,-0.31661 0,-0.79861 0.0158,-1.31134 0.23459,-1.65157 0.23477,-0.3686 0.61751,-0.43713 1.2414,-0.43713 0.97794,0 1.02354,-0.18664 1.02354,-0.92383 0,-0.85768 -0.21109,-0.92384 -0.90387,-0.92384 h -4.03863 c -0.69279,0 -0.90407,0.0663 -0.90407,0.92384 0,0.73719 0.0456,0.92383 1.02375,0.92383 0.62389,0 1.00662,0.0685 1.2414,0.43713 0.21865,0.34023 0.23458,0.85296 0.23458,1.65157 0,0.17484 -0.11968,0.31661 -0.26724,0.31661 -0.14756,0 -0.26723,-0.14177 -0.26723,-0.31661 0,-0.58598 -0.009,-1.08688 -0.12586,-1.26881 -0.0856,-0.13467 -0.31423,-0.18665 -0.81565,-0.18665 -0.62209,0 -1.02574,-0.15358 -1.27047,-0.48438 -0.2527,-0.34259 -0.28756,-0.61667 -0.28756,-1.07269 0,-0.75371 0.14916,-1.55705 1.43835,-1.55705 h 4.03863 c 1.28919,0 1.43834,0.80334 1.43834,1.55705 0,0.45602 -0.0348,0.7301 -0.28775,1.07269 -0.24453,0.3308 -0.64818,0.48438 -1.27026,0.48438 -0.50142,0 -0.73003,0.052 -0.81566,0.18665 -0.11649,0.18193 -0.12585,0.68283 -0.12585,1.26881 0,0.17484 -0.11968,0.31661 -0.26724,0.31661"
       style="fill:#ffffff;fill-opacity:1;fill-rule:nonzero;stroke:none;stroke-width:0.03527778"
       id="path1716"
       inkscape:connector-curvature="0" />
    <path
       d="m 198.17264,149.93375 h -4.93971 l -1.08866,-11.96267 4.93114,0.13706 1.09723,11.82561"
       style="fill:#f36717;fill-opacity:1;fill-rule:nonzero;stroke:none;stroke-width:0.03527778"
       id="path1718"
       inkscape:connector-curvature="0" />
    <path
       d="m 204.27489,153.74489 c 0.0205,-0.005 5.51242,-0.0142 9.88501,-0.64267 1.45765,-0.21028 2.78826,12.40685 4.25927,12.03591 -0.0454,11.6106 2.19843,14.25453 2.59351,23.5142 -1.38717,1.98471 -26.61203,4.56957 -33.74898,-0.48672 0.41738,-6.42437 2.91273,-11.41688 2.86692,-23.02748 1.75856,0.44184 2.77991,-12.14223 4.4863,-11.92249 4.00357,0.51743 9.63925,0.52452 9.65797,0.52925"
       style="fill:#f36717;fill-opacity:1;fill-rule:nonzero;stroke:none;stroke-width:0.03527778"
       id="path1720"
       inkscape:connector-curvature="0" />
    <path
       d="m 197.02862,159.21704 h 14.57837 c 0,0 1.87884,13.66149 -7.22496,13.66149 -9.1038,0 -7.35341,-13.66149 -7.35341,-13.66149"
       style="fill:#8b1209;fill-opacity:1;fill-rule:nonzero;stroke:none;stroke-width:0.03527778"
       id="path1722"
       inkscape:connector-curvature="0" />
    <path
       d="m 211.22327,155.38465 c 0,0.91202 0.62209,1.64919 1.38955,1.64919 0.76746,0 1.38975,-0.73717 1.38975,-1.64919 0,-0.90967 -0.62229,-1.64921 -1.38975,-1.64921 -0.76746,0 -1.38955,0.73954 -1.38955,1.64921"
       style="fill:#ffffff;fill-opacity:1;fill-rule:nonzero;stroke:none;stroke-width:0.03527778"
       id="path1724"
       inkscape:connector-curvature="0" />
    <path
       d="m 194.47413,155.38465 c 0,0.91202 0.6223,1.64919 1.38975,1.64919 0.76747,0 1.38956,-0.73717 1.38956,-1.64919 0,-0.90967 -0.62209,-1.64921 -1.38956,-1.64921 -0.76745,0 -1.38975,0.73954 -1.38975,1.64921"
       style="fill:#ffffff;fill-opacity:1;fill-rule:nonzero;stroke:none;stroke-width:0.03527778"
       id="path1726"
       inkscape:connector-curvature="0" />
    <path
       d="m 226.18836,66.303328 c 0.088,-8.558635 -6.47801,-24.248081 -26.14844,-12.964004 -10.53657,6.044424 -9.52338,1.063011 -5.91667,-2.913286 -10.72971,-1.025194 -10.79563,10.937934 -8.87837,11.473105 -5.5855,-2.451599 -13.77687,0.539889 -11.77318,12.850588 2.01264,-4.269042 2.84742,-3.855793 2.84742,-3.855793 0,0 -12.83876,29.741272 4.15711,41.347612 4.05017,8.48847 38.0415,7.55447 50.44773,6.2162 6.57818,-1.73995 15.82416,-18.25778 8.85468,-37.84341 2.67716,0.6878 3.28929,5.552729 3.28929,5.552729 0,0 3.2863,-4.051432 1.49112,-10.523744 -2.17554,-7.843184 -9.61697,-14.594311 -18.37069,-9.339997"
       style="fill:#925536;fill-opacity:1;fill-rule:nonzero;stroke:none;stroke-width:0.03527778"
       id="path1728"
       inkscape:connector-curvature="0" />
    <path
       d="m 230.76187,111.55493 c -1.85016,17.36442 -14.50032,27.21241 -28.59302,25.09774 -14.09149,-2.11208 -24.28236,-15.3837 -22.43181,-32.75001 1.84896,-17.363459 14.70264,-29.101425 28.79473,-26.988404 14.0921,2.112312 24.07905,17.277927 22.2301,34.640674"
       style="fill:#fabd99;fill-opacity:1;fill-rule:nonzero;stroke:none;stroke-width:0.03527778"
       id="path1730"
       inkscape:connector-curvature="0" />
    <path
       d="m 230.76187,111.55493 c -1.85016,17.36442 -14.50032,27.21241 -28.59302,25.09774 -14.09149,-2.11208 -24.28236,-15.3837 -22.43181,-32.75001 1.84896,-17.363459 14.70264,-29.101425 28.79473,-26.988404 14.0921,2.112312 24.07905,17.277927 22.2301,34.640674"
       style="fill:#fabd99;fill-opacity:1;fill-rule:nonzero;stroke:none;stroke-width:0.03527778"
       id="path1732"
       inkscape:connector-curvature="0" />
    <path
       d="m 229.73016,111.53367 c 0,0 0.71887,-3.47586 4.37058,-3.55194 3.85125,-0.077 4.87121,6.02884 2.53318,9.32559 -2.33782,3.29086 -6.58156,2.85375 -7.66864,-0.0702 l 0.76488,-5.70347"
       style="fill:#fabd99;fill-opacity:1;fill-rule:nonzero;stroke:none;stroke-width:0.03527778"
       id="path1734"
       inkscape:connector-curvature="0" />
    <path
       d="m 234.71547,109.61345 c -2.4386,-0.78325 -4.83139,4.17667 -1.67412,7.22226 -1.14482,-3.8057 0.24732,-4.92163 1.89495,-2.98724 0.0697,-1.19532 -0.49166,-2.01283 -1.99531,-2.04094 0.23497,-1.56488 1.77448,-2.19408 1.77448,-2.19408"
       style="fill:#d37658;fill-opacity:1;fill-rule:nonzero;stroke:none;stroke-width:0.03527778"
       id="path1736"
       inkscape:connector-curvature="0" />
    <path
       d="m 206.9403,110.32135 c -0.71748,0.53138 -0.97297,-1.65488 -2.54692,-1.70805 -1.60661,-0.0546 -1.8402,2.15389 -2.59511,1.41363 -0.61612,-0.6032 0.22601,-3.27572 2.85538,-3.08741 2.19425,0.15642 2.96908,2.87643 2.28665,3.38183"
       style="fill:#ee5b63;fill-opacity:1;fill-rule:nonzero;stroke:none;stroke-width:0.03527778"
       id="path1738"
       inkscape:connector-curvature="0" />
    <path
       d="m 179.68646,111.3645 c 0.75034,7.71394 4.02012,14.2295 8.8969,18.75466 0.39906,-0.23296 0.78399,-0.51154 1.1492,-0.83902 3.52865,-3.16515 3.93429,-9.5862 0.90606,-14.33913 -2.77533,-4.35574 -7.47071,-5.79987 -10.95216,-3.57651"
       style="fill:#f79883;fill-opacity:1;fill-rule:nonzero;stroke:none;stroke-width:0.03527778"
       id="path1740"
       inkscape:connector-curvature="0" />
    <path
       d="m 229.25662,118.76325 c -2.75921,-3.17885 -7.46413,-3.44893 -11.15329,-0.40238 -4.12246,3.40451 -5.41484,9.65732 -2.88783,13.96535 0.44845,0.76435 0.9885,1.41411 1.59426,1.95022 5.62811,-2.95982 10.12117,-8.29495 12.44686,-15.51319"
       style="fill:#f79883;fill-opacity:1;fill-rule:nonzero;stroke:none;stroke-width:0.03527778"
       id="path1742"
       inkscape:connector-curvature="0" />
    <path
       d="m 193.88131,111.44034 c -0.50261,10.48382 3.08458,19.22178 8.49206,20.04096 5.40747,0.81917 10.72992,-6.5692 12.46358,-16.86659 l -20.95564,-3.17437"
       style="fill:#712131;fill-opacity:1;fill-rule:nonzero;stroke:none;stroke-width:0.03527778"
       id="path1744"
       inkscape:connector-curvature="0" />
    <path
       d="m 196.37925,126.10601 c 1.49011,3.02315 3.55612,5.00599 5.99412,5.37529 2.43819,0.36929 4.85767,-0.93401 6.94,-3.41586 -1.67212,-1.33471 -3.84447,-2.31219 -6.28386,-2.68172 -2.43938,-0.36954 -4.74894,-0.0711 -6.65026,0.72229"
       style="fill:#ee5b63;fill-opacity:1;fill-rule:nonzero;stroke:none;stroke-width:0.03527778"
       id="path1746"
       inkscape:connector-curvature="0" />
    <path
       d="m 203.91347,117.16958 c 5.21312,0.78963 9.6548,0.28564 10.83168,-2.5688 l -20.77224,-3.14649 c 0.53468,3.11364 4.72723,4.92564 9.94056,5.71529"
       style="fill:#ffffff;fill-opacity:1;fill-rule:nonzero;stroke:none;stroke-width:0.03527778"
       id="path1748"
       inkscape:connector-curvature="0" />
    <path
       d="m 187.5851,115.15342 c -0.24633,0.4409 -0.74695,0.56139 -1.11853,0.26913 -0.37139,-0.29204 -0.47295,-0.88628 -0.22662,-1.32692 0.24613,-0.44091 0.74695,-0.5614 1.11834,-0.26914 0.37158,0.29204 0.47294,0.88627 0.22681,1.32693"
       style="fill:#ee5b63;fill-opacity:1;fill-rule:nonzero;stroke:none;stroke-width:0.03527778"
       id="path1750"
       inkscape:connector-curvature="0" />
    <path
       d="m 189.72737,117.98709 c -0.24632,0.44065 -0.74714,0.56115 -1.11853,0.26889 -0.37138,-0.29205 -0.47294,-0.88629 -0.22681,-1.32693 0.24633,-0.44091 0.74695,-0.56116 1.11854,-0.26911 0.37138,0.29225 0.47294,0.88624 0.2268,1.32715"
       style="fill:#ee5b63;fill-opacity:1;fill-rule:nonzero;stroke:none;stroke-width:0.03527778"
       id="path1752"
       inkscape:connector-curvature="0" />
    <path
       d="m 186.94866,118.22644 c -0.24612,0.44065 -0.74694,0.56115 -1.11833,0.26887 -0.37158,-0.29203 -0.47293,-0.88627 -0.22681,-1.32691 0.24633,-0.44068 0.74696,-0.56117 1.11853,-0.26913 0.37139,0.29228 0.47295,0.88628 0.22661,1.32717"
       style="fill:#ee5b63;fill-opacity:1;fill-rule:nonzero;stroke:none;stroke-width:0.03527778"
       id="path1754"
       inkscape:connector-curvature="0" />
    <path
       d="m 220.7775,120.35504 c -0.40284,0.22659 -0.88396,0.0227 -1.07492,-0.45506 -0.19078,-0.47775 -0.0191,-1.04883 0.38372,-1.27519 0.40266,-0.22658 0.88396,-0.0227 1.07474,0.45508 0.19096,0.47775 0.0191,1.04882 -0.38354,1.27517"
       style="fill:#ee5b63;fill-opacity:1;fill-rule:nonzero;stroke:none;stroke-width:0.03527778"
       id="path1756"
       inkscape:connector-curvature="0" />
    <path
       d="m 221.36574,123.86989 c -0.40285,0.22634 -0.88395,0.0227 -1.07492,-0.45507 -0.19077,-0.47799 -0.0191,-1.04882 0.38373,-1.27542 0.40265,-0.22635 0.88396,-0.0227 1.07472,0.45532 0.19098,0.47774 0.0191,1.04859 -0.38353,1.27517"
       style="fill:#ee5b63;fill-opacity:1;fill-rule:nonzero;stroke:none;stroke-width:0.03527778"
       id="path1758"
       inkscape:connector-curvature="0" />
    <path
       d="m 218.68281,122.59259 c -0.40265,0.22658 -0.88394,0.0227 -1.07472,-0.45507 -0.19097,-0.47799 -0.0191,-1.04885 0.38354,-1.27542 0.40264,-0.22635 0.88394,-0.0227 1.07472,0.4553 0.19096,0.47775 0.0191,1.04883 -0.38354,1.27519"
       style="fill:#ee5b63;fill-opacity:1;fill-rule:nonzero;stroke:none;stroke-width:0.03527778"
       id="path1760"
       inkscape:connector-curvature="0" />
    <path
       d="m 211.37381,107.47728 c 0.72266,2.38167 3.63857,5.53667 6.69747,6.0078 3.05869,0.47137 4.69995,-1.62558 6.298,-4.00536 0.18778,-1.43632 -1.76035,-6.95361 -4.81924,-7.42497 -3.05889,-0.47138 -6.45273,2.19666 -8.17623,5.42253"
       style="fill:#ffffff;fill-opacity:1;fill-rule:nonzero;stroke:none;stroke-width:0.03527778"
       id="path1762"
       inkscape:connector-curvature="0" />
    <path
       d="m 215.17567,106.2796 c -0.77602,2.03788 -0.0914,4.39615 1.52955,5.26755 1.62194,0.86972 3.56728,-0.0766 4.3443,-2.11491 0.77682,-2.04096 0.0912,-4.3971 -1.52954,-5.26873 -1.62295,-0.86926 -3.56748,0.0782 -4.34431,2.11609"
       style="fill:#5cc8c0;fill-opacity:1;fill-rule:nonzero;stroke:none;stroke-width:0.03527778"
       id="path1764"
       inkscape:connector-curvature="0" />
    <path
       d="m 216.4344,106.95488 c -0.44347,1.16459 -0.0524,2.51232 0.87399,3.01016 0.92698,0.49688 2.03854,-0.0438 2.4826,-1.20856 0.44387,-1.16626 0.052,-2.51256 -0.87399,-3.01062 -0.92757,-0.4969 -2.03873,0.0446 -2.4826,1.20902"
       style="fill:#0c0907;fill-opacity:1;fill-rule:nonzero;stroke:none;stroke-width:0.03527778"
       id="path1766"
       inkscape:connector-curvature="0" />
    <path
       d="m 218.8919,107.02482 c -0.17205,0.62259 0.0914,1.28014 0.58426,1.47128 0.49306,0.19021 1.03092,-0.15499 1.20416,-0.77664 0.17047,-0.61951 -0.0896,-1.27777 -0.58067,-1.47389 -0.49544,-0.18664 -1.03749,0.15925 -1.20775,0.77925"
       style="fill:#ffffff;fill-opacity:1;fill-rule:nonzero;stroke:none;stroke-width:0.03527778"
       id="path1768"
       inkscape:connector-curvature="0" />
    <path
       d="m 215.51182,108.57148 c -0.10794,0.38608 0.0563,0.792 0.36361,0.91392 0.30527,0.11885 0.64121,-0.0971 0.74715,-0.48367 0.10115,-0.38466 -0.0564,-0.79224 -0.36422,-0.91179 -0.30507,-0.11861 -0.64042,0.0971 -0.74654,0.48154"
       style="fill:#ffffff;fill-opacity:1;fill-rule:nonzero;stroke:none;stroke-width:0.03527778"
       id="path1770"
       inkscape:connector-curvature="0" />
    <path
       d="m 224.36928,109.47972 c 0,0 -1.49988,-8.55933 -9.15915,-6.2684 8.8252,-5.914232 9.15915,6.2684 9.15915,6.2684"
       style="fill:#6d3a2c;fill-opacity:1;fill-rule:nonzero;stroke:none;stroke-width:0.03527778"
       id="path1772"
       inkscape:connector-curvature="0" />
    <path
       d="m 198.35525,105.35175 c -1.24141,2.05843 -4.77085,4.15302 -7.82237,3.6188 -3.05153,-0.53398 -4.14976,-3.08175 -5.14183,-5.88752 0.14855,-1.44295 3.28869,-6.122871 6.34002,-5.588885 3.05152,0.533985 5.70557,4.196975 6.62418,7.857605"
       style="fill:#ffffff;fill-opacity:1;fill-rule:nonzero;stroke:none;stroke-width:0.03527778"
       id="path1774"
       inkscape:connector-curvature="0" />
    <path
       d="m 194.71907,101.97276 c 0.77602,2.03788 0.0914,4.39615 -1.52955,5.26778 -1.62214,0.8695 -3.56748,-0.0766 -4.3443,-2.11515 -0.77682,-2.04071 -0.0912,-4.39686 1.52934,-5.268723 1.62315,-0.869253 3.56749,0.07818 4.34451,2.116093"
       style="fill:#5cc8c0;fill-opacity:1;fill-rule:nonzero;stroke:none;stroke-width:0.03527778"
       id="path1776"
       inkscape:connector-curvature="0" />
    <path
       d="m 193.46034,102.64827 c 0.44328,1.16436 0.0522,2.51209 -0.87399,3.01016 -0.92698,0.49688 -2.03854,-0.044 -2.48261,-1.20879 -0.44387,-1.16602 -0.0522,-2.51256 0.874,-3.01063 0.92757,-0.49665 2.03853,0.0446 2.4826,1.20926"
       style="fill:#0c0907;fill-opacity:1;fill-rule:nonzero;stroke:none;stroke-width:0.03527778"
       id="path1778"
       inkscape:connector-curvature="0" />
    <path
       d="m 191.22467,102.48902 c 0.0229,0.65473 -0.38155,1.20241 -0.89969,1.22723 -0.51794,0.0236 -0.95644,-0.48201 -0.98053,-1.13627 -0.0219,-0.65116 0.37914,-1.20028 0.8967,-1.23052 0.51974,-0.0198 0.96201,0.48815 0.98352,1.13956"
       style="fill:#ffffff;fill-opacity:1;fill-rule:nonzero;stroke:none;stroke-width:0.03527778"
       id="path1780"
       inkscape:connector-curvature="0" />
    <path
       d="m 194.12247,105.06868 c 0.0156,0.40616 -0.23578,0.74404 -0.55937,0.76224 -0.32101,0.0156 -0.59462,-0.30055 -0.60816,-0.70695 -0.009,-0.40261 0.23597,-0.74403 0.55957,-0.75962 0.321,-0.0158 0.59401,0.30007 0.60796,0.70433"
       style="fill:#ffffff;fill-opacity:1;fill-rule:nonzero;stroke:none;stroke-width:0.03527778"
       id="path1782"
       inkscape:connector-curvature="0" />
    <path
       d="m 185.39105,103.08303 c 0,0 3.40618,-7.752225 10.251,-3.07491 -7.13595,-8.540194 -10.251,3.07491 -10.251,3.07491"
       style="fill:#6d3a2c;fill-opacity:1;fill-rule:nonzero;stroke:none;stroke-width:0.03527778"
       id="path1784"
       inkscape:connector-curvature="0" />
    <path
       d="m 179.94016,103.56219 c 1.75875,-7.143813 9.56359,-7.764506 8.58485,-19.756227 1.75954,13.100799 15.14631,15.636049 17.46841,14.385195 -10.21456,-6.359372 -8.10017,-16.086384 -8.10017,-16.086384 0,0 2.15145,15.739765 22.83945,16.968638 -2.41669,-3.565882 -4.07945,-7.722679 -1.97043,-10.825469 3.40439,13.289597 11.45118,10.722694 7.22119,24.129007 8.53805,-2.35166 16.39766,-26.881624 2.34081,-37.662423 -14.05605,-10.781761 -32.00217,-14.375051 -42.87209,-0.972749 -11.43306,14.095994 -5.51202,29.820412 -5.51202,29.820412"
       style="fill:#925536;fill-opacity:1;fill-rule:nonzero;stroke:none;stroke-width:0.03527778"
       id="path1786"
       inkscape:connector-curvature="0" />
    <path
       d="m 183.43476,95.856275 c -0.0378,2.475231 -3.18834,9.883425 1.25554,10.777745 -6.55986,2.08702 -4.78479,-6.677877 -4.78479,-6.677877 0,0 2.70364,-5.026783 3.52925,-4.099868"
       style="fill:#925536;fill-opacity:1;fill-rule:nonzero;stroke:none;stroke-width:0.03527778"
       id="path1788"
       inkscape:connector-curvature="0" />
    <path
       d="m 233.47406,93.387189 c -1.64623,-2.761597 -6.16477,-6.916744 -8.62228,-5.181061 -1.7245,1.217999 -1.31946,13.061352 1.29197,13.573832 2.22293,0.43616 7.34167,-4.553755 7.34167,-4.553755 0,0 5.84258,5.068825 8.21964,3.569905 1.92264,-1.212343 1.885,-12.240296 -0.58725,-13.423091 -3.62761,-1.735684 -7.58699,5.138527 -7.64375,6.01417"
       style="fill:#f1457d;fill-opacity:1;fill-rule:nonzero;stroke:none;stroke-width:0.03527778"
       id="path1790"
       inkscape:connector-curvature="0" />
    <path
       d="m 233.68057,91.861784 c 1.11097,0.299611 1.28362,6.100425 0.038,6.32418 -1.24557,0.223988 -1.9774,-6.846815 -0.038,-6.32418"
       style="fill:#f89dd3;fill-opacity:1;fill-rule:nonzero;stroke:none;stroke-width:0.03527778"
       id="path1792"
       inkscape:connector-curvature="0" />
    <path
       d="m 236.92884,95.315445 c 0.48588,-0.111291 2.67137,0.380161 2.45831,1.182331 -0.27361,0.411344 -0.63743,-0.215251 -0.94669,-0.28661 -0.13441,-0.08173 -0.68681,-0.262503 -0.84592,-0.27361 -0.22064,-0.033 -0.44367,-0.04086 -0.6657,-0.02437 -0.32499,0.0056 -0.32619,-0.595899 0,-0.597782"
       style="fill:#d3295f;fill-opacity:1;fill-rule:nonzero;stroke:none;stroke-width:0.03527778"
       id="path1794"
       inkscape:connector-curvature="0" />
    <path
       d="m 236.71118,93.058057 c 0.70673,-0.520985 1.5644,-0.760809 2.3926,-0.657082 0.32438,0.0033 0.32638,0.603684 0,0.597782 -0.59303,-0.08217 -1.18226,0.0434 -1.67751,0.287784 -0.15931,0.08217 -0.31343,0.178386 -0.46099,0.28754 -0.27839,0.198242 -0.53587,-0.320385 -0.2541,-0.516024"
       style="fill:#d3295f;fill-opacity:1;fill-rule:nonzero;stroke:none;stroke-width:0.03527778"
       id="path1796"
       inkscape:connector-curvature="0" />
    <path
       d="m 230.83077,95.83714 c -0.48609,-0.11128 -2.67138,0.380172 -2.45831,1.18233 0.27361,0.411344 0.63743,-0.215251 0.94668,-0.28661 0.13422,-0.08173 0.68682,-0.262503 0.84572,-0.27361 0.22084,-0.033 0.44387,-0.04086 0.66591,-0.02437 0.32518,0.0056 0.32618,-0.595644 0,-0.59777"
       style="fill:#d3295f;fill-opacity:1;fill-rule:nonzero;stroke:none;stroke-width:0.03527778"
       id="path1798"
       inkscape:connector-curvature="0" />
    <path
       d="m 231.04842,93.579762 c -0.70673,-0.520996 -1.5646,-0.76082 -2.3926,-0.657092 -0.32438,0.0033 -0.32637,0.603695 0,0.597781 0.59303,-0.08217 1.18227,0.04341 1.67751,0.287784 0.15931,0.08217 0.31343,0.178386 0.461,0.287551 0.27838,0.198242 0.53586,-0.320396 0.25409,-0.516024"
       style="fill:#d3295f;fill-opacity:1;fill-rule:nonzero;stroke:none;stroke-width:0.03527778"
       id="path1800"
       inkscape:connector-curvature="0" />
    <path
       d="m 158.88087,140.75802 c 0.55977,-0.31425 1.45547,1.71774 1.72331,1.74137 -0.0137,-0.0803 -0.78598,-2.41238 -0.95924,-2.91565 -0.40403,-1.17902 0.48988,-1.78389 0.99268,-0.84824 0.42158,0.78681 1.28104,2.66756 1.33042,2.76208 -0.0165,-0.10631 -0.68641,-2.5636 -0.81645,-3.01489 -0.38214,-1.32786 0.80689,-2.0211 1.27088,-0.50563 0.31601,1.02544 0.81445,2.85657 0.89311,2.99834 0.0307,-0.0779 -0.0584,-1.53579 -0.0588,-2.39819 1.9e-4,-1.42475 1.02474,-1.62323 1.26131,-0.0189 0.1834,1.26878 0.74277,4.27659 0.74277,4.27659 0,0 1.18205,-1.58306 1.90748,-0.79389 0.73421,0.78917 -1.40647,3.47799 -1.40647,3.47799 l -0.14378,0.0921 c 0.91761,1.76263 7.06546,7.91997 17.81967,1.92093 2.37369,-1.32551 3.65212,2.88492 1.53354,4.00725 -15.41913,8.15861 -21.33159,-1.69647 -22.73529,-3.9789 0,0 -0.91502,0.53163 -2.53198,-3.37875 -0.63365,-1.53343 -1.36227,-3.11883 -0.82322,-3.42364"
       style="fill:#fabd99;fill-opacity:1;fill-rule:nonzero;stroke:none;stroke-width:0.03527778"
       id="path1664-3"
       inkscape:connector-curvature="0" />
    <path
       d="m 44.827543,136.39132 c -4.547171,0.97978 -8.210301,13.58248 -11.803044,28.58454 -3.592521,15.00205 -0.692712,17.66528 7.303538,19.64926 7.996919,1.98644 35.215575,0.70857 38.534355,-5.43396 3.316549,-6.14497 -1.140411,-41.38515 -4.450284,-42.45533 -4.033762,-1.3023 -19.03731,-2.6168 -29.584565,-0.34451"
       style="fill:#48c1b0;fill-opacity:1;fill-rule:nonzero;stroke:none;stroke-width:0.03527778"
       id="path954"
       inkscape:connector-curvature="0" />
    <path
       d="m 57.75808,194.76007 c 0,0 0,16.9616 0,31.67289 -2.327599,0.78675 -3.930636,-2.16477 -3.930636,-2.16477 0,0 0,-15.06315 0,-29.35908 0.839051,-2.52396 3.930636,-0.14904 3.930636,-0.14904"
       style="fill:#fabe98;fill-opacity:1;fill-rule:nonzero;stroke:none;stroke-width:0.03527778"
       id="path956"
       inkscape:connector-curvature="0" />
    <path
       d="m 53.469506,228.58555 c -0.412731,1.15081 -0.309825,3.33025 2.174803,5.44619 2.483514,2.11591 5.278861,3.50617 8.820376,1.98154 2.980219,-1.28276 0.982269,-4.83291 0.982269,-4.83291 l -11.977448,-2.59482"
       style="fill:#e6e6d0;fill-opacity:1;fill-rule:nonzero;stroke:none;stroke-width:0.03527778"
       id="path958"
       inkscape:connector-curvature="0" />
    <path
       d="m 53.614954,223.78194 c -0.701399,0.84541 -0.933936,5.10901 0.945739,6.75093 1.869877,1.64192 5.222064,4.62523 9.503066,3.09571 3.356643,-1.19967 0.953314,-4.24651 -0.893176,-5.40709 -1.842031,-1.16303 -5.41473,-4.47619 -5.41473,-4.47619 0,0 -0.427654,2.11593 -4.140899,0.0366"
       style="fill:#ef3728;fill-opacity:1;fill-rule:nonzero;stroke:none;stroke-width:0.03527778"
       id="path960"
       inkscape:connector-curvature="0" />
    <path
       d="m 55.230018,224.50029 c -0.227191,-0.17347 -0.888273,-2.06461 -0.57466,-2.69498 0.590251,-1.18502 4.038217,-1.22411 4.198587,-0.5742 0.280649,1.12149 -0.608072,2.86116 -0.608072,2.86116 0,0 -1.405468,1.25096 -3.015855,0.40802"
       style="fill:#e6e6d0;fill-opacity:1;fill-rule:nonzero;stroke:none;stroke-width:0.03527778"
       id="path962"
       inkscape:connector-curvature="0" />
    <path
       d="m 59.384059,224.85946 c -1.360922,-0.37137 -3.200727,0.43492 -3.808798,1.49778 -0.603618,1.06284 0.213826,1.83982 0.770668,1.75919 0.55907,-0.0782 2.14941,-1.0091 3.975852,-1.35605 1.824214,-0.33963 0.151462,-1.61017 -0.937722,-1.90092"
       style="fill:#f89d1b;fill-opacity:1;fill-rule:nonzero;stroke:none;stroke-width:0.03527778"
       id="path964"
       inkscape:connector-curvature="0" />
    <path
       d="m 61.918803,227.04625 c -1.363149,-0.37139 -3.200727,0.4349 -3.811026,1.49776 -0.601388,1.06285 0.213829,1.83983 0.770669,1.7592 0.559071,-0.0782 2.151638,-1.0091 3.978078,-1.35362 1.824215,-0.33961 0.151462,-1.61259 -0.937721,-1.90334"
       style="fill:#f89d1b;fill-opacity:1;fill-rule:nonzero;stroke:none;stroke-width:0.03527778"
       id="path966"
       inkscape:connector-curvature="0" />
    <path
       d="m 72.033281,192.35338 c 0,0 0,16.96161 0,31.67046 -2.327601,0.7892 -3.929076,-2.16235 -3.929076,-2.16235 0,0 0,-15.06313 0,-29.35906 0.837488,-2.52397 3.929076,-0.14905 3.929076,-0.14905"
       style="fill:#fabe98;fill-opacity:1;fill-rule:nonzero;stroke:none;stroke-width:0.03527778"
       id="path968"
       inkscape:connector-curvature="0" />
    <path
       d="m 67.745597,226.17886 c -0.412064,1.14837 -0.309603,3.33027 2.176139,5.44618 2.483514,2.11349 5.276634,3.5062 8.820378,1.98155 2.980213,-1.28274 0.98004,-4.83535 0.98004,-4.83535 l -11.976557,-2.59238"
       style="fill:#e6e6d0;fill-opacity:1;fill-rule:nonzero;stroke:none;stroke-width:0.03527778"
       id="path970"
       inkscape:connector-curvature="0" />
    <path
       d="m 67.890377,221.37284 c -0.701621,0.84781 -0.933267,5.11144 0.94663,6.75336 1.870989,1.63948 5.223178,4.62522 9.50418,3.09569 3.356643,-1.19966 0.953314,-4.2465 -0.893175,-5.40708 -1.844262,-1.16303 -5.414731,-4.47619 -5.414731,-4.47619 0,0 -0.429883,2.11594 -4.142904,0.0342"
       style="fill:#ef3728;fill-opacity:1;fill-rule:nonzero;stroke:none;stroke-width:0.03527778"
       id="path972"
       inkscape:connector-curvature="0" />
    <path
       d="m 69.507446,222.09117 c -0.227192,-0.17104 -0.88872,-2.06218 -0.576889,-2.69256 0.590253,-1.18745 4.038216,-1.22411 4.200816,-0.57417 0.278419,1.12149 -0.610299,2.86112 -0.610299,2.86112 0,0 -1.403242,1.251 -3.013628,0.40561"
       style="fill:#e6e6d0;fill-opacity:1;fill-rule:nonzero;stroke:none;stroke-width:0.03527778"
       id="path974"
       inkscape:connector-curvature="0" />
    <path
       d="m 73.65926,222.45278 c -1.360923,-0.37139 -3.198502,0.43248 -3.8088,1.49532 -0.601389,1.06285 0.216054,1.83983 0.770668,1.76164 0.559071,-0.0782 2.149411,-1.0091 3.978079,-1.35605 1.824214,-0.33962 0.149234,-1.6126 -0.939947,-1.90091"
       style="fill:#f89d1b;fill-opacity:1;fill-rule:nonzero;stroke:none;stroke-width:0.03527778"
       id="path976"
       inkscape:connector-curvature="0" />
    <path
       d="m 76.194003,224.63956 c -1.360922,-0.37137 -3.200728,0.43492 -3.808799,1.49778 -0.603616,1.06284 0.213827,1.83982 0.770669,1.75919 0.559069,-0.0782 2.149411,-1.0091 3.97585,-1.35606 1.824213,-0.33962 0.151461,-1.61015 -0.93772,-1.90091"
       style="fill:#f89d1b;fill-opacity:1;fill-rule:nonzero;stroke:none;stroke-width:0.03527778"
       id="path978"
       inkscape:connector-curvature="0" />
    <path
       d="m 56.486254,139.0741 c 0,0 2.389965,-0.50333 4.706427,-1.36582 0.120278,-2.62658 -0.461065,-5.53098 -0.461065,-5.53098 l 4.356731,-0.68657 c 0,0 0.510068,4.27022 0.518978,5.99032 3.211864,0.75743 5.893614,1.09705 5.893614,1.09705 0,0 1.552475,8.5932 -6.777879,9.4337 -2.915626,0.29321 -7.432727,-2.98574 -8.236806,-8.9377"
       style="fill:#fabe98;fill-opacity:1;fill-rule:nonzero;stroke:none;stroke-width:0.03527778"
       id="path980"
       inkscape:connector-curvature="0" />
    <path
       d="m 64.916842,132.59 -3.392283,0.31421 c 0,0 0.189326,4.41069 0.227192,5.64214 1.015679,-1.38783 2.677297,-1.71522 3.280912,-0.3665 -0.06459,-2.45067 -0.115821,-5.58985 -0.115821,-5.58985"
       style="fill:#eea378;fill-opacity:1;fill-rule:nonzero;stroke:none;stroke-width:0.03527778"
       id="path982"
       inkscape:connector-curvature="0" />
    <path
       d="m 72.155786,139.14252 c -2.078135,11.67178 -11.003197,10.96567 -15.970227,-0.73057 -1.761849,-0.13926 -13.670916,3.39379 -15.964881,14.22264 0.897406,1.42202 4.562539,-1.24366 6.727097,2.52152 0.218059,0.38116 2.174579,-0.59128 2.452776,-0.24189 0.155471,6.56767 -1.120365,14.2373 -1.36003,20.40181 0,0 10.392451,4.28072 27.525364,3.21054 0.0067,-0.003 1.162686,-22.24409 2.231823,-27.90284 -0.902085,-0.34696 7.434952,0.007 7.791335,-0.24189 0.966674,-0.67191 -0.610299,-8.38307 1.242872,-11.13915 -4.964807,0.28098 -7.192176,0.3885 -14.676129,-0.10017"
       style="fill:#f36717;fill-opacity:1;fill-rule:nonzero;stroke:none;stroke-width:0.03527778"
       id="path984"
       inkscape:connector-curvature="0" />
    <path
       d="m 69.85046,138.36554 c 0.296239,3.89466 -1.28742,6.5359 -4.958121,6.92684 -4.68861,0.496 -7.036255,-2.92711 -7.279037,-7.16873 -1.2451,0.35673 -3.443956,0.49843 -3.443956,0.49843 0,0 -0.1107,9.96146 10.106013,10.49411 9.706868,0.50823 8.929517,-10.31086 8.929517,-10.31086 l -3.354416,-0.43979"
       style="fill:#ef2f21;fill-opacity:1;fill-rule:nonzero;stroke:none;stroke-width:0.03527778"
       id="path986"
       inkscape:connector-curvature="0" />
    <path
       d="m 87.990142,138.69051 c 0.839716,6.22071 0.367514,9.24556 -0.202692,12.32659 -1.14709,0.17837 -2.973534,-0.0831 -2.973534,-0.0831 0.552388,-2.03528 0.841946,-6.52613 -0.08686,-12.16779 1.394332,-0.12217 3.26309,-0.0757 3.26309,-0.0757"
       style="fill:#ef2f21;fill-opacity:1;fill-rule:nonzero;stroke:none;stroke-width:0.03527778"
       id="path988"
       inkscape:connector-curvature="0" />
    <path
       d="m 78.702021,193.52129 c -5.811204,2.24054 -10.833919,1.74699 -13.21052,1.54175 -0.530114,-1.71278 -0.741713,-4.16833 -1.859853,-6.70939 -0.784033,1.63216 -1.343102,4.4713 -2.062541,7.03924 -3.245275,-0.46179 -10.102896,-1.10927 -14.695281,-2.58993 0.265947,-9.26267 0.997192,-17.87786 1.615286,-24.71674 6.542669,2.32116 20.287757,7.18095 27.125775,6.38198 2.655024,8.10942 3.087134,15.82546 3.087134,19.05309"
       style="fill:#59a3cb;fill-opacity:1;fill-rule:nonzero;stroke:none;stroke-width:0.03527778"
       id="path990"
       inkscape:connector-curvature="0" />
    <path
       d="m 62.243999,176.07591 c -0.02895,-0.0123 -7.550776,-0.88449 -14.182986,-3.17145 0.147451,-1.68345 0.290671,-3.2936 0.428099,-4.81824 6.542669,2.32116 20.2343,4.1048 27.484381,1.89602 -0.149233,1.52221 0.171509,3.83116 0,5.50971 -6.920431,0.74522 -13.696082,0.57907 -13.729494,0.58396"
       style="fill:#2b618e;fill-opacity:1;fill-rule:nonzero;stroke:none;stroke-width:0.03527778"
       id="path992"
       inkscape:connector-curvature="0" />
    <path
       d="m 53.569293,177.085 c 0,0 -1.79949,3.67966 -4.510197,5.23851 0.326978,0.97244 1.023253,2.60704 1.023253,2.60704 0,0 5.183307,-3.08349 6.22126,-6.91219 -1.686118,-0.19547 -2.734316,-0.93336 -2.734316,-0.93336"
       style="fill:#277b38;fill-opacity:1;fill-rule:nonzero;stroke:none;stroke-width:0.03527778"
       id="path994"
       inkscape:connector-curvature="0" />
    <path
       d="m 64.814381,192.62215 c 0,0 5.615196,0.87715 14.079194,-1.20456 0.144776,2.37736 0.351925,5.89575 0.211601,6.34777 0,0 -8.771378,2.15257 -13.892095,0.58396 -0.03342,-1.02131 -0.133643,-3.28139 -0.3987,-5.72717"
       style="fill:#2b618e;fill-opacity:1;fill-rule:nonzero;stroke:none;stroke-width:0.03527778"
       id="path996"
       inkscape:connector-curvature="0" />
    <path
       d="m 62.148222,193.80716 c 0,0 -6.849156,0.87472 -15.314711,-1.20456 -0.144111,2.37737 -0.351925,5.89332 -0.213159,6.34534 0,0 10.008453,2.15257 15.126943,0.58395 0.03342,-1.02131 0.133643,-3.28139 0.400927,-5.72473"
       style="fill:#2b618e;fill-opacity:1;fill-rule:nonzero;stroke:none;stroke-width:0.03527778"
       id="path998"
       inkscape:connector-curvature="0" />
    <path
       d="m 64.192945,173.74742 c 0.01782,0.98466 0.759533,1.76652 1.657162,1.74698 0.89763,-0.0195 1.610387,-0.83318 1.592569,-1.8154 -0.01782,-0.98466 -0.759533,-1.76652 -1.657162,-1.74697 -0.89763,0.0195 -1.610387,0.83072 -1.592569,1.81539"
       style="fill:#f8ac19;fill-opacity:1;fill-rule:nonzero;stroke:none;stroke-width:0.03527778"
       id="path1000"
       inkscape:connector-curvature="0" />
    <path
       d="m 39.376507,153.93444 c 6.9505,1.63948 6.939363,1.63948 11.191185,1.13126 0.287999,-1.22898 0.251916,-3.24719 0.251916,-3.24719 -1.904622,0.37628 -6.007433,0.19791 -11.014558,-1.43667 -0.265055,1.50999 -0.428543,3.5526 -0.428543,3.5526"
       style="fill:#ef2f21;fill-opacity:1;fill-rule:nonzero;stroke:none;stroke-width:0.03527778"
       id="path1002"
       inkscape:connector-curvature="0" />
    <path
       d="m 50.993342,139.45037 5.492912,-1.58816 c 0,0 -1.588115,20.82695 -7.138491,29.52277 0.861991,-14.8579 1.645579,-27.93461 1.645579,-27.93461"
       style="fill:#308882;fill-opacity:1;fill-rule:nonzero;stroke:none;stroke-width:0.03527778"
       id="path1004"
       inkscape:connector-curvature="0" />
    <path
       d="m 70.970827,138.40952 c 0,0 3.256411,22.41756 5.32118,28.13496 0.492247,-19.54422 -1.271828,-27.43618 -1.271828,-27.43618 l -4.049352,-0.69878"
       style="fill:#308882;fill-opacity:1;fill-rule:nonzero;stroke:none;stroke-width:0.03527778"
       id="path1006"
       inkscape:connector-curvature="0" />
    <path
       d="m 60.573474,149.81744 c -0.325196,0.13925 -24.974808,13.51894 -24.84651,13.87567 l 8.557547,23.8518 c 0.128073,0.35672 0.496034,0.53264 0.82123,0.39337 l 27.283918,-11.78174 c 0.327424,-0.13926 0.487794,-0.54242 0.358606,-0.90159 l -8.214532,-22.894 c -0.320742,-0.89671 -0.639253,-1.06531 -1.164913,-1.34873 l -2.795346,-1.19478"
       style="fill:#575cb3;fill-opacity:1;fill-rule:nonzero;stroke:none;stroke-width:0.03527778"
       id="path1008"
       inkscape:connector-curvature="0" />
    <path
       d="m 60.707116,151.00489 c -0.325196,0.13927 -25.3568,13.12557 -25.228949,13.48231 l 5.699611,20.09639 c 0.128073,0.35917 2.759486,2.62902 3.085349,2.48976 l 26.930436,-11.62782 c 0.325196,-0.14171 0.485566,-0.54486 0.358606,-0.90159 l -7.773514,-21.66257 c -0.209372,-0.58639 -0.414291,-0.71834 -1.011225,-0.92358 l -2.060314,-0.9529"
       style="fill:#e6e6d0;fill-opacity:1;fill-rule:nonzero;stroke:none;stroke-width:0.03527778"
       id="path1010"
       inkscape:connector-curvature="0" />
    <path
       d="m 32.72269,161.53076 c -0.325641,0.13927 -0.485789,0.54486 -0.357048,0.90159 l 7.962395,22.19277 c 0.127406,0.35673 0.49648,0.53265 0.821453,0.39339 L 68.433854,173.2392 c 0.325196,-0.14171 0.485566,-0.54486 0.358607,-0.90159 l -7.96284,-22.19522 c -0.129188,-0.35673 -0.496702,-0.53265 -0.821899,-0.39092 L 32.72269,161.53076"
       style="fill:#575cb3;fill-opacity:1;fill-rule:nonzero;stroke:none;stroke-width:0.03527778"
       id="path1012"
       inkscape:connector-curvature="0" />
    <path
       d="m 42.554736,154.71387 c 0,0 1.632885,12.76886 12.955931,20.89292 -0.371971,1.76164 0.686029,3.81161 2.670614,5.49505 1.066907,1.6688 2.053632,2.60459 2.55479,2.02308 0.516749,-0.60349 -0.804079,-2.35048 -1.075819,-2.83426 0.07128,0.0464 1.405469,1.45378 1.837579,1.85204 1.000088,0.92114 1.501246,-0.45689 1.118138,-1.00665 -0.581343,-0.83562 -1.552475,-1.98643 -1.630433,-2.08171 0.10246,0.0587 1.726211,1.39269 2.116,1.71521 1.160459,0.94801 1.819758,-0.8063 1.25178,-1.30229 -0.882038,-0.76721 -2.238505,-1.80074 -2.347645,-1.94978 0.08687,-0.01 1.478972,0.60594 2.327599,0.90891 1.396559,0.49356 1.968993,-0.74766 0.487793,-1.60038 -1.171595,-0.67436 -3.84221,-2.66323 -3.84221,-2.66323 0,0 2.822077,-0.7672 2.323145,-1.96932 -0.501157,-1.20456 -4.83116,0.63282 -4.83116,0.63282 0,0 -10.191321,-9.18204 -10.558836,-17.75079 -1.064905,0.088 -3.115864,-0.15883 -5.357266,-0.36162"
       style="fill:#fabe98;fill-opacity:1;fill-rule:nonzero;stroke:none;stroke-width:0.03527778"
       id="path1014"
       inkscape:connector-curvature="0" />
    <path
       d="m 30.040717,110.57679 c 3.605885,18.9026 19.450934,28.39957 36.045492,24.59286 C 82.67787,131.36124 93.725614,115.69215 90.119508,96.787616 86.515624,77.886247 70.275888,66.330508 53.682443,70.138448 37.089668,73.945638 26.436391,91.675916 30.040717,110.57679"
       style="fill:#fabd99;fill-opacity:1;fill-rule:nonzero;stroke:none;stroke-width:0.03527778"
       id="path1016"
       inkscape:connector-curvature="0" />
    <path
       d="m 30.040717,110.57679 c 3.605885,18.9026 19.450934,28.39957 36.045492,24.59286 C 82.67787,131.36124 93.725614,115.69215 90.119508,96.787616 86.515624,77.886247 70.275888,66.330508 53.682443,70.138448 37.089668,73.945638 26.436391,91.675916 30.040717,110.57679"
       style="fill:#fabd99;fill-opacity:1;fill-rule:nonzero;stroke:none;stroke-width:0.03527778"
       id="path1018"
       inkscape:connector-curvature="0" />
    <path
       d="m 31.265992,110.44485 c 0,0 -1.13618,-3.74708 -5.486229,-3.44607 -4.587709,0.32056 -5.306927,7.14332 -2.258774,10.52295 3.047039,3.37301 8.060176,2.44528 9.116616,-0.88498 l -1.371613,-6.1919"
       style="fill:#fabd99;fill-opacity:1;fill-rule:nonzero;stroke:none;stroke-width:0.03527778"
       id="path1020"
       inkscape:connector-curvature="0" />
    <path
       d="m 25.180378,108.85791 c 2.837444,-1.11831 6.085391,4.08477 2.575951,7.76686 1.05399,-4.30612 -0.692489,-5.38681 -2.495988,-3.08592 -0.17975,-1.30718 0.422086,-2.26547 2.208434,-2.45482 -0.406271,-1.69616 -2.288397,-2.22612 -2.288397,-2.22612"
       style="fill:#d37658;fill-opacity:1;fill-rule:nonzero;stroke:none;stroke-width:0.03527778"
       id="path1022"
       inkscape:connector-curvature="0" />
    <path
       d="m 58.611162,107.99248 c 0.895402,0.50895 1.022363,-1.9224 2.891123,-2.14646 1.906628,-0.22919 2.363238,2.17481 3.200729,1.28128 0.686028,-0.72812 -0.532343,-3.57874 -3.646202,-3.09496 -2.597112,0.40339 -3.298732,3.47637 -2.44565,3.96014"
       style="fill:#f14d45;fill-opacity:1;fill-rule:nonzero;stroke:none;stroke-width:0.03527778"
       id="path1024"
       inkscape:connector-curvature="0" />
    <path
       d="m 90.783258,104.98865 c -0.267282,8.56265 -3.630603,16.07272 -9.065381,21.56337 -0.494479,-0.21452 -0.973361,-0.48011 -1.434426,-0.8019 -4.454738,-3.10937 -5.457053,-10.12833 -2.238507,-15.67446 2.949036,-5.08286 8.417228,-7.16555 12.738314,-5.08701"
       style="fill:#f79883;fill-opacity:1;fill-rule:nonzero;stroke:none;stroke-width:0.03527778"
       id="path1026"
       inkscape:connector-curvature="0" />
    <path
       d="m 32.414422,118.3461 c 3.025211,-3.78668 8.60009,-4.57929 13.235242,-1.61725 5.179521,3.31023 7.222686,10.05089 4.565213,15.05484 -0.471534,0.8879 -1.061341,1.65853 -1.738683,2.31335 -6.934686,-2.66324 -12.711143,-8.05738 -16.061772,-15.75094"
       style="fill:#f79883;fill-opacity:1;fill-rule:nonzero;stroke:none;stroke-width:0.03527778"
       id="path1028"
       inkscape:connector-curvature="0" />
    <path
       d="m 75.922263,85.835867 c -1.692799,-0.339621 -2.585974,0.56319 -2.750798,1.46625 -0.149234,0.81485 0.298466,1.6297 1.285191,1.53148 1.093638,-0.11166 2.120454,-1.91e-4 2.911171,0.110919 0.824128,0.115821 1.392104,0.231631 1.523519,0.0973 0.572435,-0.58469 -1.156005,-2.844769 -2.969083,-3.205899"
       style="fill:#c7695b;fill-opacity:1;fill-rule:nonzero;stroke:none;stroke-width:0.03527778"
       id="path1030"
       inkscape:connector-curvature="0" />
    <path
       d="m 39.970991,94.090416 c 2.936338,-1.59354 4.215292,2.01038 2.161883,2.439671 -2.204872,0.454459 -3.898339,1.713999 -4.212177,1.537099 -0.69605,-0.38971 0.398032,-3.08251 2.050294,-3.97677"
       style="fill:#c7695b;fill-opacity:1;fill-rule:nonzero;stroke:none;stroke-width:0.03527778"
       id="path1032"
       inkscape:connector-curvature="0" />
    <path
       d="m 75.728482,112.04817 c -0.962222,-3.25868 -7.971747,-3.04414 -14.121512,-1.67929 -6.14976,1.36508 -12.684634,4.15683 -12.414901,7.56894 0.269735,3.41187 6.686113,10.11539 15.323846,8.19812 8.637731,-1.91704 12.172564,-10.82909 11.212567,-14.08777"
       style="fill:#4e1a1e;fill-opacity:1;fill-rule:nonzero;stroke:none;stroke-width:0.03527778"
       id="path1034"
       inkscape:connector-curvature="0" />
    <path
       d="m 53.137183,123.6149 c 2.749908,2.0954 6.743579,3.54991 11.378732,2.52104 4.635151,-1.02865 7.798015,-4.07181 9.588815,-7.17485 -2.828755,-0.59446 -6.973886,-0.19131 -10.791594,0.65579 -3.81771,0.84734 -7.782423,2.24444 -10.175953,3.99802"
       style="fill:#e3595d;fill-opacity:1;fill-rule:nonzero;stroke:none;stroke-width:0.03527778"
       id="path1036"
       inkscape:connector-curvature="0" />
    <path
       d="m 71.857318,109.61486 c -2.799802,-0.44372 -6.668738,-0.0408 -10.250348,0.75402 -3.581607,0.7948 -7.289281,2.07389 -9.71199,3.67671 2.715829,1.85327 6.468945,3.04024 10.774446,2.08441 4.305503,-0.95583 7.343631,-3.64985 9.187892,-6.51514"
       style="fill:#ffffff;fill-opacity:1;fill-rule:nonzero;stroke:none;stroke-width:0.03527778"
       id="path1038"
       inkscape:connector-curvature="0" />
    <path
       d="m 81.693372,109.98771 c 0.32965,0.45861 0.935497,0.53852 1.352012,0.17812 0.41875,-0.36064 0.492249,-1.02449 0.162599,-1.48335 -0.32742,-0.45886 -0.933268,-0.53852 -1.352012,-0.17811 -0.418743,0.36038 -0.490019,1.02449 -0.162599,1.48334"
       style="fill:#f14d45;fill-opacity:1;fill-rule:nonzero;stroke:none;stroke-width:0.03527778"
       id="path1040"
       inkscape:connector-curvature="0" />
    <path
       d="m 79.374686,113.32945 c 0.32965,0.45885 0.935491,0.53851 1.352012,0.17813 0.418744,-0.3604 0.492249,-1.02449 0.1626,-1.48335 -0.327428,-0.45886 -0.933268,-0.53851 -1.352019,-0.17813 -0.418743,0.36039 -0.490019,1.02449 -0.162593,1.48335"
       style="fill:#f14d45;fill-opacity:1;fill-rule:nonzero;stroke:none;stroke-width:0.03527778"
       id="path1042"
       inkscape:connector-curvature="0" />
    <path
       d="m 82.700145,113.30014 c 0.327421,0.45886 0.933268,0.53851 1.352012,0.17811 0.418743,-0.36038 0.49002,-1.02449 0.162599,-1.48334 -0.329649,-0.45886 -0.933267,-0.53852 -1.352012,-0.17812 -0.41875,0.36039 -0.492249,1.02449 -0.162599,1.48335"
       style="fill:#f14d45;fill-opacity:1;fill-rule:nonzero;stroke:none;stroke-width:0.03527778"
       id="path1044"
       inkscape:connector-curvature="0" />
    <path
       d="m 42.629799,119.20371 c 0.497594,0.20671 1.053544,-0.0682 1.241757,-0.61352 0.188659,-0.54584 -0.06191,-1.15545 -0.559292,-1.36239 -0.497594,-0.20671 -1.053321,0.0684 -1.241757,0.61376 -0.188434,0.54583 0.06214,1.15544 0.559292,1.36215"
       style="fill:#f14d45;fill-opacity:1;fill-rule:nonzero;stroke:none;stroke-width:0.03527778"
       id="path1046"
       inkscape:connector-curvature="0" />
    <path
       d="m 42.214617,123.13112 c 0.497372,0.2067 1.053323,-0.0679 1.241759,-0.61377 0.188211,-0.54558 -0.06214,-1.15545 -0.559515,-1.36215 -0.497372,-0.20647 -1.053324,0.0682 -1.241758,0.61376 -0.188435,0.54585 0.06215,1.15569 0.559514,1.36216"
       style="fill:#f14d45;fill-opacity:1;fill-rule:nonzero;stroke:none;stroke-width:0.03527778"
       id="path1048"
       inkscape:connector-curvature="0" />
    <path
       d="m 45.30264,121.444 c 0.497371,0.2067 1.053323,-0.0682 1.241757,-0.61377 0.188435,-0.54559 -0.06214,-1.15544 -0.559513,-1.36214 -0.497372,-0.20672 -1.053323,0.0682 -1.241759,0.61376 -0.188435,0.5456 0.06214,1.15544 0.559515,1.36215"
       style="fill:#f14d45;fill-opacity:1;fill-rule:nonzero;stroke:none;stroke-width:0.03527778"
       id="path1050"
       inkscape:connector-curvature="0" />
    <path
       d="m 44.146859,103.0699 c 2.192399,-0.41219 3.968501,0.76842 5.15658,1.94929 1.077599,1.07068 1.671638,2.14159 1.654041,2.02407 -0.576665,-3.67429 -3.740862,-6.15525 -7.055185,-5.53146 -3.313657,0.62476 -5.541023,4.12264 -4.964581,7.79666 0.03719,0.24752 0.73414,-5.3961 5.209145,-6.23856"
       style="fill:#0b0d10;fill-opacity:1;fill-rule:nonzero;stroke:none;stroke-width:0.03527778"
       id="path1052"
       inkscape:connector-curvature="0" />
    <path
       d="m 76.278643,95.771676 c 2.193959,-0.41439 3.971395,0.76721 5.158585,1.9488 1.078043,1.07067 1.670523,2.14158 1.652706,2.02455 -0.574663,-3.675259 -3.73975,-6.156219 -7.054076,-5.53317 -3.314323,0.62451 -5.541689,4.12434 -4.9648,7.796674 0.03564,0.24848 0.732804,-5.394154 5.207585,-6.236854"
       style="fill:#0b0d10;fill-opacity:1;fill-rule:nonzero;stroke:none;stroke-width:0.03527778"
       id="path1054"
       inkscape:connector-curvature="0" />
    <path
       d="M 90.119508,96.787616 C 86.453257,85.890597 76.672887,86.322337 70.601082,73.966167 64.734196,86.550297 31.492071,86.103907 29.821098,108.27861 15.654371,109.05166 10.506479,89.023436 16.543537,71.416307 25.604246,44.990456 65.96593,30.384955 72.60794,61.301888 90.043774,43.948132 103.22979,86.159857 90.119508,96.787616"
       style="fill:#c7695b;fill-opacity:1;fill-rule:nonzero;stroke:none;stroke-width:0.03527778"
       id="path1056"
       inkscape:connector-curvature="0" />
    <path
       d="m 23.676682,107.74669 c -0.07262,-0.24043 -0.140324,-0.48037 -0.203358,-0.7203 0.261269,0.13072 0.526548,0.25143 0.798065,0.36284 -0.211377,0.10213 -0.409168,0.2216 -0.594707,0.35746"
       style="fill:#a1dae2;fill-opacity:1;fill-rule:nonzero;stroke:none;stroke-width:0.03527778"
       id="path1058"
       inkscape:connector-curvature="0" />
    <path
       d="m 32.836286,117.85499 c -0.223183,-0.0804 -0.440351,-0.16444 -0.654178,-0.25288 0.190886,-0.29393 0.344796,-0.61621 0.455497,-0.96536 l -1.371613,-6.1919 c 0,0 -0.358829,-1.18306 -1.444894,-2.16624 0.452379,-5.98691 3.205182,-10.327484 7.100181,-13.718094 1.130611,-0.215009 2.286838,-0.43638 3.452642,-0.66116 -0.130524,0.0528 -0.264835,0.1163 -0.40293,0.19106 -1.652262,0.89426 -2.746344,3.58706 -2.050294,3.97677 0.02027,0.01149 0.04633,0.0169 0.07818,0.0169 0.457503,0 2.07212,-1.12907 4.133996,-1.55396 1.659388,-0.346949 1.142861,-2.76683 -0.666207,-2.84184 3.920168,-0.75963 7.874191,-1.545649 11.191188,-2.245179 1.660055,3.966749 1.945159,18.994213 -7.314232,25.096443 -1.821763,-1.09022 -3.774497,-1.61285 -5.651944,-1.61285 -2.618716,0 -5.09065,1.01667 -6.855393,2.92833 m 12.090371,-16.43925 c -0.338114,0 -0.680237,0.0313 -1.024366,0.096 -3.313656,0.62476 -5.541022,4.12263 -4.96458,7.79666 8.2e-4,0.005 0.0018,0.008 0.0033,0.008 0.06549,0 0.8268,-5.42199 5.205804,-6.24636 0.304703,-0.0572 0.601836,-0.0838 0.890279,-0.0838 1.785013,0 3.243493,1.01642 4.266301,2.0331 1.022806,1.01642 1.609941,2.03284 1.652038,2.03284 0.0022,0 0.0029,-0.003 0.0021,-0.009 -0.516749,-3.29262 -3.112077,-5.62747 -6.03082,-5.62747"
       style="fill:#a2c0b4;fill-opacity:1;fill-rule:nonzero;stroke:none;stroke-width:0.03527778"
       id="path1060"
       inkscape:connector-curvature="0" />
    <path
       d="m 32.182108,117.60211 c -1.369608,-0.5654 -2.551895,-1.2874 -3.568465,-2.12008 1.79704,-3.14995 -0.330318,-6.77853 -2.628963,-6.77853 -0.267507,0 -0.537909,0.0494 -0.804302,0.15441 0,0 1.882126,0.52996 2.288397,2.22612 -0.951976,0.10092 -1.567621,0.42026 -1.907739,0.89427 -0.837268,-1.34653 -1.448458,-2.78956 -1.884354,-4.23161 0.185539,-0.13586 0.38333,-0.25533 0.594707,-0.35746 1.44222,0.59202 3.031001,0.91137 4.761221,0.91112 0.259043,0 0.522985,-0.007 0.788488,-0.0217 2.18e-4,-9.7e-4 0,9.7e-4 0,0 1.086065,0.98318 1.444894,2.16624 1.444894,2.16624 l 1.371613,6.1919 c -0.110701,0.34916 -0.264611,0.67142 -0.455497,0.96536 m -4.138672,-2.61413 c -0.757973,-0.69488 -1.415491,-1.45499 -1.983471,-2.25762 0.332324,-0.24826 0.647273,-0.37189 0.925027,-0.37189 0.742827,0 1.22082,0.88351 1.058444,2.62951"
       style="fill:#a2c0b4;fill-opacity:1;fill-rule:nonzero;stroke:none;stroke-width:0.03527778"
       id="path1062"
       inkscape:connector-curvature="0" />
    <path
       d="m 28.613643,115.48203 c -0.196454,-0.16077 -0.38578,-0.3252 -0.570207,-0.49405 0.162376,-1.746 -0.315617,-2.6295 -1.058444,-2.6295 -0.277754,0 -0.592703,0.12363 -0.925027,0.37188 -0.174625,-0.24703 -0.340786,-0.49748 -0.498929,-0.75206 0.340118,-0.47401 0.955763,-0.79335 1.907739,-0.89427 -0.406271,-1.69616 -2.288397,-2.22612 -2.288397,-2.22612 0.266393,-0.10506 0.536795,-0.15441 0.804302,-0.15441 2.298645,0 4.426003,3.62858 2.628963,6.77853"
       style="fill:#919e90;fill-opacity:1;fill-rule:nonzero;stroke:none;stroke-width:0.03527778"
       id="path1064"
       inkscape:connector-curvature="0" />
    <path
       d="m 38.839042,118.93397 c -2.303545,-0.076 -4.291469,-0.46107 -6.002756,-1.07898 1.764743,-1.91166 4.236677,-2.92833 6.855393,-2.92833 1.877447,0 3.830182,0.52263 5.651945,1.61285 -0.526772,0.3472 -1.082723,0.66459 -1.672752,0.9502 -0.09689,-0.11264 -0.217836,-0.20329 -0.358608,-0.26191 -0.112259,-0.0467 -0.227637,-0.0686 -0.341009,-0.0686 -0.388676,0 -0.754856,0.26022 -0.900748,0.68242 -0.03809,0.11021 -0.05814,0.22284 -0.06214,0.33425 -0.978261,0.33841 -2.032475,0.59519 -3.169322,0.75817"
       style="fill:#a2b0a8;fill-opacity:1;fill-rule:nonzero;stroke:none;stroke-width:0.03527778"
       id="path1066"
       inkscape:connector-curvature="0" />
    <path
       d="m 37.998879,98.084046 c -0.03185,0 -0.05791,-0.005 -0.07818,-0.0169 -0.696051,-0.38971 0.398031,-3.08251 2.050293,-3.97676 0.138096,-0.0748 0.272406,-0.1383 0.40293,-0.19107 0.363062,-0.0701 0.728572,-0.14074 1.092747,-0.21111 1.809067,0.075 2.325594,2.49489 0.666206,2.841841 -2.061875,0.424899 -3.676493,1.553959 -4.133995,1.553959"
       style="fill:#8b9890;fill-opacity:1;fill-rule:nonzero;stroke:none;stroke-width:0.03527778"
       id="path1068"
       inkscape:connector-curvature="0" />
    <path
       d="m 42.008365,118.17579 c 0.004,-0.1114 0.02405,-0.22403 0.06214,-0.33423 0.145891,-0.42221 0.512071,-0.68242 0.900747,-0.68242 0.113371,0 0.22875,0.022 0.34101,0.0686 0.140769,0.0587 0.261716,0.14927 0.358607,0.26191 -0.527442,0.25534 -1.08228,0.4855 -1.662508,0.68609"
       style="fill:#a48f82;fill-opacity:1;fill-rule:nonzero;stroke:none;stroke-width:0.03527778"
       id="path1070"
       inkscape:connector-curvature="0" />
    <path
       d="m 38.941055,109.31629 c -0.0015,0 -0.0025,-0.003 -0.0033,-0.008 -0.576442,-3.67404 1.650925,-7.17191 4.96458,-7.79667 0.344128,-0.0648 0.686252,-0.096 1.024366,-0.096 2.918744,0 5.514072,2.33485 6.030821,5.62749 8.21e-4,0.006 1.66e-4,0.009 -0.0021,0.009 -0.04209,0 -0.629232,-1.01641 -1.652038,-2.03285 -1.022808,-1.01666 -2.481287,-2.03309 -4.266301,-2.03309 -0.288443,0 -0.585575,0.0266 -0.890279,0.0838 -4.379004,0.82439 -5.14032,6.24638 -5.205804,6.24638"
       style="fill:#264c58;fill-opacity:1;fill-rule:nonzero;stroke:none;stroke-width:0.03527778"
       id="path1072"
       inkscape:connector-curvature="0" />
    <path
       d="m 29.03261,108.30035 c -1.73022,1.8e-4 -3.319001,-0.3191 -4.761221,-0.91112 -0.271517,-0.11141 -0.536796,-0.23212 -0.798065,-0.36284 -1.126603,-4.27901 -0.783366,-8.416294 -0.326087,-9.900374 0,0 6.307905,-1.1447 13.774042,-2.5655 -3.894999,3.39061 -6.647802,7.731184 -7.100181,13.718094 0,9.7e-4 2.18e-4,-9.7e-4 0,0 -0.265503,0.0144 -0.529445,0.0217 -0.788488,0.0217"
       style="fill:#8b9890;fill-opacity:1;fill-rule:nonzero;stroke:none;stroke-width:0.03527778"
       id="path1074"
       inkscape:connector-curvature="0" />
    <path
       d="m 90.70085,106.57437 c 0.06905,-0.89034 0.102455,-1.79414 0.102455,-2.70819 0,-2.29452 -0.222733,-4.659914 -0.683797,-7.078564 2.338732,-1.89529 3.839982,-4.796019 4.630697,-8.1837 1.401015,4.97121 1.775203,12.463444 -4.049355,17.970454"
       style="fill:#a1dae2;fill-opacity:1;fill-rule:nonzero;stroke:none;stroke-width:0.03527778"
       id="path1076"
       inkscape:connector-curvature="0" />
    <path
       d="M 77.813297,110.48836 C 67.469404,108.13543 62.972349,94.293456 63.228495,89.993927 c 2.977992,-0.57736 6.457139,-1.290071 9.958562,-2.025031 0.120277,0.492821 0.494475,0.87276 1.111455,0.87276 0.05123,0 0.104688,-0.003 0.158144,-0.008 0.320741,-0.0327 0.637026,-0.0462 0.939949,-0.0462 0.735032,0 1.412151,0.0787 1.971222,0.15711 0.559068,0.0789 1.002315,0.157589 1.269597,0.157589 0.126965,0 0.211602,-0.0173 0.253922,-0.0603 0.343016,-0.349151 -0.135872,-1.29545 -0.962223,-2.0783 1.254009,-0.268279 2.483514,-0.53289 3.661795,-0.78773 3.534831,2.70672 6.751149,5.32695 8.52859,10.61188 v 0 c 0.461064,2.418649 0.683797,4.784045 0.683797,7.078575 0,0.91405 -0.03341,1.81783 -0.102455,2.70819 -0.0025,6.9e-4 -0.0025,0.002 -0.0025,0.003 0.04009,-0.52507 0.06905,-1.05453 0.08464,-1.58815 -1.120363,-0.53877 -2.316462,-0.79777 -3.525921,-0.79777 -3.459102,0 -7.027346,2.11911 -9.212393,5.88478 -0.08018,0.13658 -0.155912,0.27414 -0.231647,0.41267 M 77.058193,94.116386 c -0.336332,0 -0.679348,0.031 -1.022363,0.0958 -3.314323,0.62452 -5.54169,4.124339 -4.964801,7.796664 0,0.005 0.0022,0.008 0.0022,0.008 0.06681,0 0.826354,-5.420277 5.205358,-6.244907 0.307377,-0.0579 0.605843,-0.0845 0.893173,-0.0845 1.786349,0 3.243049,1.016669 4.265411,2.033339 1.022362,1.01643 1.610384,2.03334 1.650477,2.03334 0.0025,0 0.0025,-0.003 0.0025,-0.009 -0.516743,-3.29403 -3.111631,-5.628881 -6.031707,-5.628881"
       style="fill:#a2c0b4;fill-opacity:1;fill-rule:nonzero;stroke:none;stroke-width:0.03527778"
       id="path1078"
       inkscape:connector-curvature="0" />
    <path
       d="m 80.898206,110.83017 c -1.080278,0 -2.10932,-0.11996 -3.084909,-0.34181 0.07574,-0.13855 0.151462,-0.2761 0.231647,-0.4127 2.185048,-3.76565 5.753291,-5.88476 9.212394,-5.88476 1.209464,0 2.405556,0.25901 3.52592,0.79775 -0.01559,0.53363 -0.04451,1.0631 -0.08464,1.58817 -1.458928,1.37755 -3.303188,2.63073 -5.617422,3.68895 -1.474518,0.38677 -2.868845,0.5644 -4.182992,0.5644 m 1.552474,-2.55156 c -0.207149,0 -0.418744,0.0738 -0.59471,0.22576 -0.418743,0.36038 -0.490019,1.02449 -0.162599,1.48334 0.191555,0.26535 0.474432,0.40389 0.759537,0.40389 0.207144,0 0.416516,-0.0738 0.592475,-0.22577 0.41875,-0.36064 0.492249,-1.02449 0.162599,-1.48335 -0.189325,-0.26534 -0.472202,-0.40387 -0.757302,-0.40387"
       style="fill:#a2b0a8;fill-opacity:1;fill-rule:nonzero;stroke:none;stroke-width:0.03527778"
       id="path1080"
       inkscape:connector-curvature="0" />
    <path
       d="m 78.637424,89.102116 c -0.267282,0 -0.710529,-0.0787 -1.269597,-0.1576 -0.559071,-0.0784 -1.23619,-0.1571 -1.971222,-0.1571 -0.302923,0 -0.619208,0.0134 -0.939949,0.0462 -0.05346,0.005 -0.106913,0.008 -0.158144,0.008 -0.61698,0 -0.991178,-0.379929 -1.111455,-0.872749 1.59034,-0.33401 3.185135,-0.67265 4.742066,-1.00543 0.826351,0.782839 1.305239,1.72914 0.962223,2.07829 -0.0423,0.043 -0.126957,0.0604 -0.253922,0.0604"
       style="fill:#8b9890;fill-opacity:1;fill-rule:nonzero;stroke:none;stroke-width:0.03527778"
       id="path1082"
       inkscape:connector-curvature="0" />
    <path
       d="m 82.452909,110.3916 c -0.285105,0 -0.567982,-0.13854 -0.759537,-0.40389 -0.32742,-0.45885 -0.256144,-1.12296 0.162599,-1.48334 0.175966,-0.15199 0.38756,-0.22576 0.59471,-0.22576 0.2851,0 0.567976,0.13853 0.757302,0.40387 0.32965,0.45886 0.256151,1.12271 -0.162599,1.48335 -0.175959,0.15197 -0.385331,0.22577 -0.592475,0.22577"
       style="fill:#a48f82;fill-opacity:1;fill-rule:nonzero;stroke:none;stroke-width:0.03527778"
       id="path1084"
       inkscape:connector-curvature="0" />
    <path
       d="m 71.073285,102.01659 c 0,0 -0.0022,-0.003 -0.0022,-0.008 -0.57689,-3.672332 1.650477,-7.172161 4.964801,-7.796671 0.343015,-0.0648 0.686029,-0.0958 1.022362,-0.0958 2.920079,0 5.514963,2.33485 6.031714,5.62895 0,0.006 0,0.009 -0.0025,0.009 -0.04009,0 -0.628122,-1.01691 -1.650483,-2.03334 -1.022363,-1.01667 -2.479057,-2.03334 -4.265409,-2.03334 -0.28733,0 -0.585796,0.0266 -0.893173,0.0845 -4.379005,0.824621 -5.138538,6.244901 -5.205358,6.244901"
       style="fill:#264c58;fill-opacity:1;fill-rule:nonzero;stroke:none;stroke-width:0.03527778"
       id="path1086"
       inkscape:connector-curvature="0" />
    <path
       d="m 90.119508,96.787616 c -1.777441,-5.28493 -4.993759,-7.90516 -8.52859,-10.611879 6.218807,-1.34456 11.054425,-2.425251 11.054425,-2.425251 0.574656,0.762811 1.452242,2.533981 2.104862,4.85343 -0.790715,3.387681 -2.291965,6.28841 -4.630697,8.1837 v 0 0"
       style="fill:#8b9890;fill-opacity:1;fill-rule:nonzero;stroke:none;stroke-width:0.03527778"
       id="path1088"
       inkscape:connector-curvature="0" />
    <path
       d="M 94.763565,94.609386 C 94.471779,99.065046 92.66984,106.80503 83.87842,108.58133 78.904713,109.58626 74.438837,107.95682 70.609993,103.73815 66.355719,99.051116 64.346634,92.648606 64.14617,90.577646 l 28.657314,-5.791429 c 0.251694,0.21648 0.824128,0.96829 1.331965,2.83231 0.565754,2.072429 0.788487,4.555099 0.628116,6.990859 z M 50.75724,107.75059 c -2.207988,5.43862 -5.850403,8.70585 -10.823225,9.71127 -8.78897,1.7763 -12.989117,-4.75007 -14.710426,-8.79844 -0.941064,-2.21341 -1.539334,-4.62058 -1.684112,-6.7778 -0.130524,-1.940244 0.160592,-2.867004 0.325641,-3.167534 8.069308,-1.63092 24.745833,-5.001009 28.657311,-5.79143 0.483563,2.014041 0.687811,8.781334 -1.765189,14.823934 z M 93.119768,82.179917 c -0.138096,-0.0264 -0.278421,-0.0257 -0.416515,0.002 l -29.699722,6.00249 -10.190652,2.059239 h -1.67e-4 c -1.686563,0.34084 -21.085598,4.26117 -29.701724,6.00253 -0.137206,0.0279 -0.268621,0.0821 -0.388454,0.16028 -2.268351,1.481151 -1.836464,7.111324 -0.278866,11.656904 0.929481,2.71257 2.736766,6.51465 6.067349,9.22331 3.338379,2.71479 7.324921,3.62763 11.849374,2.71333 0.514077,-0.10408 1.008997,-0.22772 1.48766,-0.36968 6.925553,-2.05753 10.201565,-7.95499 11.739564,-12.70337 1.762737,-5.443 1.903061,-11.441383 1.230397,-14.464034 l 7.020663,-1.41908 c 0.02005,0.165171 0.04455,0.337421 0.0735,0.51798 0.552388,3.28262 2.710707,8.741024 6.147535,12.969214 4.51042,5.54635 10.125612,7.82451 16.244195,6.5882 0.53457,-0.10801 1.053545,-0.23653 1.556931,-0.38605 3.759792,-1.1171 6.659824,-3.39331 8.633272,-6.78148 2.231828,-3.8326 2.68621,-8.091573 2.67284,-10.989604 -0.02228,-4.855879 -1.447779,-10.285209 -4.047126,-10.782179"
       style="fill:#ee3e24;fill-opacity:1;fill-rule:nonzero;stroke:none;stroke-width:0.03527778"
       id="path1090"
       inkscape:connector-curvature="0" />
    <path
       d="m 108.19307,124.03499 c -0.67899,-0.0255 -0.56974,2.33732 -0.81255,2.49005 -0.0249,-0.0828 -0.39274,-2.67033 -0.46589,-3.23193 -0.17307,-1.31477 -1.30598,-1.45345 -1.34137,-0.32141 -0.0285,0.95133 0.0437,3.15322 0.0414,3.26689 -0.0345,-0.10884 -0.55848,-2.76528 -0.64807,-3.25657 -0.26408,-1.44527 -1.71849,-1.52415 -1.44355,0.13889 0.1841,1.12628 0.57529,3.10545 0.56759,3.27818 -0.0658,-0.059 -0.66912,-1.48494 -1.0756,-2.30302 -0.67228,-1.35112 -1.73736,-1.04079 -1.20487,0.59582 0.42464,1.29254 1.31312,4.4173 1.31312,4.4173 0,0 -1.86757,-0.92617 -2.18315,0.17527 -0.32389,1.10571 2.97427,2.61408 2.97427,2.61408 l 0.17978,0.0174 c -0.0386,2.11818 -2.96321,10.94927 -15.990065,10.49286 -2.875952,-0.10207 -2.101947,4.51315 0.43629,4.54664 18.468745,0.23457 19.425885,-11.98887 19.680145,-14.83655 0,0 1.11839,0.0589 0.80692,-4.43641 -0.12257,-1.76263 -0.17959,-3.62076 -0.83448,-3.64753"
       style="fill:#fabd99;fill-opacity:1;fill-rule:nonzero;stroke:none;stroke-width:0.03527778"
       id="path1664-6"
       inkscape:connector-curvature="0" />
  </g>
  <g
     inkscape:groupmode="layer"
     id="layer2"
     inkscape:label="Layer 3" />
  <g
     inkscape:label="Layer 1"
     inkscape:groupmode="layer"
     id="layer1"
     transform="translate(0,-32.41665)">
    <text
       xml:space="preserve"
       style="font-style:normal;font-variant:normal;font-weight:bold;font-stretch:normal;font-size:10.58333302px;line-height:1.25;font-family:sans-serif;-inkscape-font-specification:'sans-serif Bold';letter-spacing:0px;word-spacing:0px;fill:#000000;fill-opacity:1;stroke:none;stroke-width:0.26458332"
       x="150.05655"
       y="89.869026"
       id="text8811" />
    <text
       xml:space="preserve"
       style="font-style:normal;font-variant:normal;font-weight:bold;font-stretch:normal;font-size:10.58333302px;line-height:1.25;font-family:sans-serif;-inkscape-font-specification:'sans-serif Bold';letter-spacing:0px;word-spacing:0px;fill:#000000;fill-opacity:1;stroke:none;stroke-width:0.26458332"
       x="160.63989"
       y="97.806526"
       id="text8815" />
    <text
       xml:space="preserve"
       style="font-style:normal;font-variant:normal;font-weight:bold;font-stretch:normal;font-size:10.58333302px;line-height:1.25;font-family:sans-serif;-inkscape-font-specification:'sans-serif Bold';letter-spacing:0px;word-spacing:0px;fill:#000000;fill-opacity:1;stroke:none;stroke-width:0.26458332"
       x="156.86011"
       y="88.7351"
       id="text8819" />
    <flowRoot
       xml:space="preserve"
       id="flowRoot8821"
       style="font-style:normal;font-variant:normal;font-weight:bold;font-stretch:normal;font-size:40px;line-height:1.25;font-family:sans-serif;-inkscape-font-specification:'sans-serif Bold';letter-spacing:0px;word-spacing:0px;fill:#000000;fill-opacity:1;stroke:none"><flowRegion
         id="flowRegion8823"
         style="font-style:normal;font-variant:normal;font-weight:bold;font-stretch:normal;font-family:sans-serif;-inkscape-font-specification:'sans-serif Bold'" /><flowPara
         id="flowPara8827" /></flowRoot>    <flowRoot
       xml:space="preserve"
       id="flowRoot8829"
       style="font-style:normal;font-variant:normal;font-weight:bold;font-stretch:normal;font-size:40px;line-height:1.25;font-family:sans-serif;-inkscape-font-specification:'sans-serif Bold';letter-spacing:0px;word-spacing:0px;fill:#000000;fill-opacity:1;stroke:none"><flowRegion
         id="flowRegion8831"
         style="font-style:normal;font-variant:normal;font-weight:bold;font-stretch:normal;font-family:sans-serif;-inkscape-font-specification:'sans-serif Bold'" /><flowPara
         id="flowPara8835" /></flowRoot>    <flowRoot
       xml:space="preserve"
       id="flowRoot8837"
       style="font-style:normal;font-variant:normal;font-weight:bold;font-stretch:normal;font-size:40px;line-height:1.25;font-family:sans-serif;-inkscape-font-specification:'sans-serif Bold';letter-spacing:0px;word-spacing:0px;fill:#000000;fill-opacity:1;stroke:none"><flowRegion
         id="flowRegion8839"
         style="font-style:normal;font-variant:normal;font-weight:bold;font-stretch:normal;font-family:sans-serif;-inkscape-font-specification:'sans-serif Bold'" /><flowPara
         id="flowPara8843" /></flowRoot>    <text
       xml:space="preserve"
       style="font-style:normal;font-variant:normal;font-weight:bold;font-stretch:normal;font-size:10.58333302px;line-height:1.25;font-family:sans-serif;-inkscape-font-specification:'sans-serif Bold';letter-spacing:0px;word-spacing:0px;fill:#000000;fill-opacity:1;stroke:none;stroke-width:0.26458332"
       x="209.39882"
       y="107.25594"
       id="text8847" />
    <flowRoot
       xml:space="preserve"
       id="flowRoot8849"
       style="font-style:normal;font-variant:normal;font-weight:bold;font-stretch:normal;font-size:40px;line-height:1.25;font-family:sans-serif;-inkscape-font-specification:'sans-serif Bold';letter-spacing:0px;word-spacing:0px;fill:#000000;fill-opacity:1;stroke:none"><flowRegion
         id="flowRegion8851"
         style="font-style:normal;font-variant:normal;font-weight:bold;font-stretch:normal;font-family:sans-serif;-inkscape-font-specification:'sans-serif Bold'" /><flowPara
         id="flowPara8855" /></flowRoot>    <flowRoot
       xml:space="preserve"
       id="flowRoot8857"
       style="font-style:normal;font-variant:normal;font-weight:bold;font-stretch:normal;font-size:40px;line-height:1.25;font-family:sans-serif;-inkscape-font-specification:'sans-serif Bold';letter-spacing:0px;word-spacing:0px;fill:#000000;fill-opacity:1;stroke:none"><flowRegion
         id="flowRegion8859"
         style="font-style:normal;font-variant:normal;font-weight:bold;font-stretch:normal;font-family:sans-serif;-inkscape-font-specification:'sans-serif Bold'" /><flowPara
         id="flowPara8863" /></flowRoot>    <flowRoot
       xml:space="preserve"
       id="flowRoot8865"
       style="font-style:normal;font-variant:normal;font-weight:bold;font-stretch:normal;font-size:40px;line-height:1.25;font-family:sans-serif;-inkscape-font-specification:'sans-serif Bold';letter-spacing:0px;word-spacing:0px;fill:#000000;fill-opacity:1;stroke:none"><flowRegion
         id="flowRegion8867"
         style="font-style:normal;font-variant:normal;font-weight:bold;font-stretch:normal;font-family:sans-serif;-inkscape-font-specification:'sans-serif Bold'" /><flowPara
         id="flowPara8871" /></flowRoot>    <flowRoot
       xml:space="preserve"
       id="flowRoot8873"
       style="font-style:normal;font-variant:normal;font-weight:bold;font-stretch:normal;font-size:40px;line-height:1.25;font-family:sans-serif;-inkscape-font-specification:'sans-serif Bold';letter-spacing:0px;word-spacing:0px;fill:#000000;fill-opacity:1;stroke:none"><flowRegion
         id="flowRegion8875"
         style="font-style:normal;font-variant:normal;font-weight:bold;font-stretch:normal;font-family:sans-serif;-inkscape-font-specification:'sans-serif Bold'" /><flowPara
         id="flowPara8879" /></flowRoot>    <text
       xml:space="preserve"
       style="font-style:normal;font-weight:normal;font-size:10.58333302px;line-height:1.25;font-family:sans-serif;letter-spacing:0px;word-spacing:0px;fill:#000000;fill-opacity:1;stroke:none;stroke-width:0.26458332"
       x="101.02788"
       y="69.125984"
       id="text977"><tspan
         sodipodi:role="line"
         id="tspan975"
         x="101.02788"
         y="78.489754"
         style="stroke-width:0.26458332" /><tspan
         sodipodi:role="line"
         x="101.02788"
         y="91.718918"
         style="stroke-width:0.26458332"
         id="tspan979" /><tspan
         sodipodi:role="line"
         x="101.02788"
         y="104.94809"
         style="stroke-width:0.26458332"
         id="tspan981" /><tspan
         sodipodi:role="line"
         x="101.02788"
         y="118.17725"
         style="stroke-width:0.26458332"
         id="tspan983" /><tspan
         sodipodi:role="line"
         x="101.02788"
         y="131.40642"
         style="stroke-width:0.26458332"
         id="tspan985" /><tspan
         sodipodi:role="line"
         x="101.02788"
         y="144.63559"
         style="stroke-width:0.26458332"
         id="tspan987" /><tspan
         sodipodi:role="line"
         x="101.02788"
         y="157.86475"
         style="stroke-width:0.26458332"
         id="tspan989" /><tspan
         sodipodi:role="line"
         x="101.02788"
         y="171.09392"
         style="stroke-width:0.26458332"
         id="tspan991" /><tspan
         sodipodi:role="line"
         x="101.02788"
         y="184.32309"
         style="stroke-width:0.26458332"
         id="tspan993" /><tspan
         sodipodi:role="line"
         x="101.02788"
         y="197.55225"
         style="stroke-width:0.26458332"
         id="tspan995" /><tspan
         sodipodi:role="line"
         x="101.02788"
         y="210.78142"
         style="stroke-width:0.26458332"
         id="tspan997" /><tspan
         sodipodi:role="line"
         x="101.02788"
         y="224.01059"
         style="stroke-width:0.26458332"
         id="tspan999" /><tspan
         sodipodi:role="line"
         x="101.02788"
         y="237.23975"
         style="stroke-width:0.26458332"
         id="tspan1001" /><tspan
         sodipodi:role="line"
         x="101.02788"
         y="250.46892"
         style="stroke-width:0.26458332"
         id="tspan1003" /><tspan
         sodipodi:role="line"
         x="101.02788"
         y="263.69809"
         style="stroke-width:0.26458332"
         id="tspan1005" /><tspan
         sodipodi:role="line"
         x="101.02788"
         y="276.92725"
         style="stroke-width:0.26458332"
         id="tspan1007" /><tspan
         sodipodi:role="line"
         x="101.02788"
         y="290.1564"
         style="stroke-width:0.26458332"
         id="tspan1009" /><tspan
         sodipodi:role="line"
         x="101.02788"
         y="303.38559"
         style="stroke-width:0.26458332"
         id="tspan1011" /><tspan
         sodipodi:role="line"
         x="101.02788"
         y="316.61475"
         style="stroke-width:0.26458332"
         id="tspan1013" /><tspan
         sodipodi:role="line"
         x="101.02788"
         y="329.8439"
         style="stroke-width:0.26458332"
         id="tspan1015" /><tspan
         sodipodi:role="line"
         x="101.02788"
         y="343.07309"
         style="stroke-width:0.26458332"
         id="tspan1017" /><tspan
         sodipodi:role="line"
         x="101.02788"
         y="356.30225"
         style="stroke-width:0.26458332"
         id="tspan1019" /><tspan
         sodipodi:role="line"
         x="101.02788"
         y="369.5314"
         style="stroke-width:0.26458332"
         id="tspan1021" /><tspan
         sodipodi:role="line"
         x="101.02788"
         y="382.76059"
         style="stroke-width:0.26458332"
         id="tspan1023" /></text>
    <path
       style="fill:#ace0d5;fill-opacity:1;stroke-width:0.31561694"
       d="M 124.48497,91.394972 C 107.36501,91.02974 95.681724,89.067014 91.376801,85.832954 89.827397,84.66895 87.60116,82.103009 86.356029,80.046024 c -0.611639,-1.01042 0.02007,-1.009212 -8.740565,-0.01662 -3.822652,0.433097 -7.015326,0.752247 -7.094834,0.709206 -0.0795,-0.043 2.71261,-2.532225 6.2047,-5.531575 l 6.349226,-5.453362 -0.02118,-3.731687 c -0.05599,-9.846136 3.228254,-18.745742 8.275558,-22.424748 2.521351,-1.837845 7.238139,-3.046098 16.743186,-4.288964 5.68268,-0.743056 8.99935,-0.932362 21.89536,-1.249698 15.6722,-0.385608 21.32165,-0.240864 31.70932,0.812716 15.15958,1.53757 19.98658,3.477663 23.54079,9.461662 4.02959,6.784331 4.72025,17.914729 1.69452,27.308366 -1.10744,3.438166 -3.98363,7.955111 -6.00234,9.426594 -2.74881,2.003642 -10.04178,3.568245 -22.81483,4.894685 -6.4573,0.670536 -27.42786,1.564291 -33.6099,1.4324 z"
       id="path23965"
       inkscape:connector-curvature="0" />
    <text
       xml:space="preserve"
       style="font-style:normal;font-weight:normal;font-size:10.58333302px;line-height:1.25;font-family:sans-serif;letter-spacing:0px;word-spacing:0px;fill:#000000;fill-opacity:1;stroke:none;stroke-width:0.26458332"
       x="88.305847"
       y="68.751808"
       id="text2951"><tspan
         sodipodi:role="line"
         id="tspan2949"
         x="88.305847"
         y="68.751808"
         style="font-style:normal;font-variant:normal;font-weight:bold;font-stretch:normal;font-size:12.69999981px;font-family:sans-serif;-inkscape-font-specification:'sans-serif Bold';stroke-width:0.26458332">How are you?</tspan></text>
  </g>
</svg>
