<?xml version="1.0" encoding="UTF-8"?>
<svg id="bike" xmlns="http://www.w3.org/2000/svg" viewBox="0 0 1000 1000">
  <defs>
    <style>
      .cls-1 {
        fill: #8b8a8a;
        stroke: #474747;
      }

      .cls-1, .cls-2, .cls-3, .cls-4, .cls-5, .cls-6, .cls-7, .cls-8 {
        stroke-miterlimit: 10;
        stroke-width: 3px;
      }

      .cls-2 {
        fill: #565050;
        stroke: #2d2d2d;
      }

      .cls-9 {
        fill: #f16773;
      }

      .cls-10 {
        font-family: FreeSansBold, FreeSans;
        font-size: 150px;
      }

      .cls-3 {
        fill: #ed1b24;
        stroke: #af0b17;
      }

      .cls-4 {
        fill: #c8c6c7;
        stroke: #a5a5a5;
      }

      .cls-11 {
        letter-spacing: -.03em;
      }

      .cls-11, .cls-12 {
        fill: red;
      }

      .cls-5 {
        fill: #323b40;
        stroke: #1e2528;
      }

      .cls-13 {
        letter-spacing: -.01em;
      }

      .cls-6 {
        fill: #606060;
        stroke: #595959;
      }

      .cls-7 {
        fill: #ffde17;
        stroke: #aa8e05;
      }

      .cls-14 {
        fill: #e6e7e8;
      }

      .cls-8 {
        fill: #99a2b3;
        stroke: #73829b;
      }
    </style>
  </defs>
  <text class="cls-10" transform="translate(350.83 802.48)"><tspan class="cls-13" x="0" y="0">b</tspan><tspan class="cls-12" x="89.4" y="0">i</tspan><tspan class="cls-11" x="131.1" y="0">k</tspan><tspan class="cls-12" x="210.75" y="0">e</tspan></text>
  <g>
    <path class="cls-2" d="M785.39,289.7c-91.74,0-166.12,74.37-166.12,166.12s74.37,166.12,166.12,166.12,166.12-74.37,166.12-166.12-74.37-166.12-166.12-166.12Zm-1.94,295.06c-71.38,0-129.24-57.86-129.24-129.24s57.86-129.24,129.24-129.24,129.24,57.86,129.24,129.24-57.86,129.24-129.24,129.24Z"/>
    <polygon class="cls-7" points="779.25 329.87 779.25 582.75 783.7 582.75 782.81 329.87 779.25 329.87"/>
    <polygon class="cls-7" points="867.06 364.27 696.18 550.68 699.46 553.69 869.68 366.67 867.06 364.27"/>
    <polygon class="cls-7" points="690.08 370.68 869.74 548.66 872.87 545.5 692.59 368.15 690.08 370.68"/>
    <polygon class="cls-7" points="907.94 458.7 655.08 454.81 655.01 459.26 907.88 462.26 907.94 458.7"/>
    <circle class="cls-7" cx="783.26" cy="458.81" r="48.43"/>
    <path class="cls-7" d="M784,321.06c-74.09,0-134.16,60.06-134.16,134.16s60.06,134.16,134.16,134.16,134.16-60.06,134.16-134.16-60.06-134.16-134.16-134.16Zm-1.32,254.99c-66.43,0-120.29-53.85-120.29-120.29s53.85-120.29,120.29-120.29,120.29,53.85,120.29,120.29-53.85,120.29-120.29,120.29Z"/>
    <path class="cls-2" d="M214.61,295.04c-91.74,0-166.12,74.37-166.12,166.12s74.37,166.12,166.12,166.12,166.12-74.37,166.12-166.12-74.37-166.12-166.12-166.12Zm-1.94,295.06c-71.38,0-129.24-57.86-129.24-129.24s57.86-129.24,129.24-129.24,129.24,57.86,129.24,129.24-57.86,129.24-129.24,129.24Z"/>
    <polygon class="cls-7" points="208.48 335.21 208.48 588.09 212.93 588.09 212.04 335.21 208.48 335.21"/>
    <polygon class="cls-7" points="296.28 369.61 125.4 556.03 128.69 559.03 298.91 372.02 296.28 369.61"/>
    <polygon class="cls-7" points="119.31 376.02 298.96 554 302.1 550.84 121.82 373.49 119.31 376.02"/>
    <polygon class="cls-7" points="337.16 464.04 84.31 460.15 84.24 464.6 337.11 467.61 337.16 464.04"/>
    <circle class="cls-7" cx="212.48" cy="464.15" r="48.43"/>
    <path class="cls-7" d="M213.23,326.4c-74.09,0-134.16,60.06-134.16,134.16s60.06,134.16,134.16,134.16,134.16-60.06,134.16-134.16-60.06-134.16-134.16-134.16Zm-1.32,254.99c-66.43,0-120.29-53.85-120.29-120.29s53.85-120.29,120.29-120.29,120.29,53.85,120.29,120.29-53.85,120.29-120.29,120.29Z"/>
    <path class="cls-3" d="M673.29,198.08s28.49-33.84,28.49-39.18-22.26-8.9-24.93-7.12c-2.67,1.78-15.14,29.38-15.14,29.38l11.58,16.92Z"/>
    <path class="cls-3" d="M672.4,150.89c-1.78-.89-18.7-16.03-25.82-17.81-7.12-1.78-27.6,6.23-27.6,6.23,0,0,58.77,41.85,60.55,41.85s10.69-3.56,6.23-14.25c-4.45-10.69-13.36-16.03-13.36-16.03Z"/>
    <path class="cls-4" d="M683.97,220.34s-11.58-40.96-16.03-44.52-10.69-3.56-17.81,5.34l9.79,46.3,24.04-7.12Z"/>
    <path class="cls-3" d="M691.99,143.76c-3.98-1.99-18.7,1.78-21.37,6.23-2.67,4.45-1.78,16.03,2.67,18.7s14.25,4.45,18.7,1.78,19.59-16.92,0-26.71Z"/>
    <path class="cls-5" d="M647.47,127.73s11.58,10.69,7.12,19.59c-4.45,8.9-16.03,10.69-21.37,9.79s-9.79-.89-15.14,0-10.69,2.67-13.36,2.67-3.56-.89-7.12,.89-9.79,5.34-16.03-1.78c-6.23-7.12-16.03-17.81-.89-22.26,15.14-4.45,48.97-10.69,66.78-8.9Z"/>
    <path class="cls-4" d="M384.78,268.42c-.89-.89-32.06-70.34-32.06-70.34l-17.81,12.47s36.51,65,32.06,73.02,17.81-15.14,17.81-15.14Z"/>
    <path class="cls-5" d="M311.77,223.9c.89,0,25.82-.89,58.77-15.14s43.63-5.34,49.86-14.25,8.01-24.04-22.26-23.15-34.73,7.12-44.52,7.12-30.28-9.79-43.63-11.58c-13.36-1.78-27.6-2.67-33.84,13.36s.89,35.62,16.03,40.96,19.59,2.67,19.59,2.67Z"/>
    <path class="cls-4" d="M376.77,246.16s-22.26,11.58-24.93,13.36,0,14.25,5.34,15.14,27.6-14.25,27.6-14.25c0,0,1.78-8.9-8.01-14.25Z"/>
    <path class="cls-8" d="M450.68,458.09s-8.01-89.04-3.56-93.5,11.58-10.69,12.47,3.56,1.78,94.39,1.78,94.39l-10.69-4.45Z"/>
    <path class="cls-1" d="M434.65,374.39c4.44,.3,40.96,4.45,44.52,0s4.45-17.81-.89-17.81-45.41-.89-50.76,1.78-6.23,15.14,7.12,16.03Z"/>
    <path class="cls-3" d="M702.67,257.74c-15.14-47.19-6.23-52.54-73.91-30.28-67.67,22.26-228.84,78.36-228.84,78.36,0,0-14.25-40.96-16.03-41.85s-85.48,43.63-129.11,121.1c-43.63,77.47-18.7,53.43-39.18,59.66-20.48,6.23-22.26,12.47-21.37,23.15,.89,10.69,18.7,15.14,24.04,12.47,5.34-2.67,7.12-7.12,7.12-7.12,0,0,178.98,19.59,213.71,13.36,34.73-6.23,79.25-31.17,151.38-121.99,72.13-90.83,84.59-89.04,86.37-87.26s87.26,172.75,87.26,172.75c0,0,12.41,28.16,25.35,4.73,1.87-3.38-71.65-149.87-86.79-197.07ZM244.09,458.09l15.14-48.08c51.65-87.26,113.09-113.98,113.09-113.98l66.78,169.18c-49.86,15.14-195.01-7.12-195.01-7.12Zm418.51-208.36c-45.41,21.37-39.18,36.51-103.29,112.2-64.11,75.69-97.06,93.5-97.06,93.5l-48.97-120.21c14.25,0,229.73-89.04,241.31-89.04s8.01,3.56,8.01,3.56Z"/>
    <path class="cls-6" d="M482.73,464.32c-2.67-11.58-22.26-47.19-26.46-47.48-4.2-.29-243.34,20.77-243.34,20.77,0,0-9.79,49.86-6.21,51.08s239.5,36.18,242.81,36.4c3.31,.21,27.86-8.23,27.86-8.23,0,0,8.01-40.96,5.34-52.54Zm-33.84,57.88l-239.53-36.51,7.12-44.52s237.75-21.37,238.64-21.37l20.48,92.61-26.71,9.79Z"/>
    <path class="cls-9" d="M665.27,260.41s-27.6,23.15-34.73,29.38c-7.12,6.23-10.69,9.79-19.59,22.26-8.9,12.47-26.71,41.85-34.73,49.86-8.01,8.01-29.38,31.17-36.51,38.29-7.12,7.12-48.97,40.07-48.97,40.07,0,0,46.3-48.08,50.76-51.65s39.18-46.3,47.19-55.21,27.6-42.74,36.51-52.54c8.9-9.79,33.84-24.04,38.29-25.82,4.45-1.78,6.23,1.78,1.78,5.34Z"/>
    <circle class="cls-1" cx="213.18" cy="463.45" r="26.05"/>
    <circle class="cls-1" cx="454.88" cy="470.96" r="54.12"/>
    <circle class="cls-3" cx="452.67" cy="473.07" r="18.02"/>
    <circle class="cls-3" cx="781.24" cy="458.82" r="18.02"/>
    <path class="cls-8" d="M459.58,468.77s-12.47-5.34-11.58,6.23,0,102.4,0,102.4c0,0,16.92-1.78,16.03-3.56s-4.45-105.07-4.45-105.07Z"/>
    <path class="cls-1" d="M433.76,563.16s39.18-1.78,43.63,0,4.45,12.47,3.56,15.14-37.4,4.45-45.41,3.56-6.23-14.25-1.78-18.7Z"/>
    <path class="cls-14" d="M278.82,191.85s3.56-22.26,20.48-20.48c16.92,1.78,34.73,8.9,49.86,9.79,15.14,.89,21.37-3.56,35.62-2.67s24.93,5.34,24.93,5.34c0,0,3.56-1.78-15.14,0-18.7,1.78-40.96,8.01-52.54,9.79s-15.14,11.58-33.84,10.69c-18.7-.89-31.17-5.34-29.38-12.47Z"/>
    <path class="cls-9" d="M391.02,289.8l9.79,22.26s244.87-89.93,252-87.26c7.12,2.67,32.95,0,32.95,0,0,0-50.76,8.9-76.58,19.59-25.82,10.69-148.7,55.21-161.17,58.77s-47.19,17.81-47.19,17.81l-9.79-31.17Z"/>
    <path class="cls-9" d="M373.21,272.88s-50.76,34.73-61.44,45.41c-10.69,10.69-49.86,58.77-56.1,72.13-6.23,13.36-8.9,19.59-8.9,19.59,0,0,59.66-76.58,71.24-86.37s56.99-43.63,61.44-44.52,7.12-.89,7.12-.89l-4.45-12.47-8.9,7.12Z"/>
    <circle class="cls-3" cx="212.64" cy="462.77" r="7.84"/>
  </g>
</svg>