<?xml version="1.0" encoding="UTF-8"?>
<svg id="cry" xmlns="http://www.w3.org/2000/svg" viewBox="0 0 1000 1000">
  <defs>
    <style>
      .cls-1 {
        fill: #e85a71;
      }

      .cls-2 {
        font-family: FreeSansBold, FreeSans;
        font-size: 150px;
      }

      .cls-3 {
        fill: #664500;
      }

      .cls-4 {
        letter-spacing: 0em;
      }

      .cls-5 {
        fill: #5daded;
      }

      .cls-6 {
        fill: #ffcc4d;
      }

      .cls-7 {
        fill: red;
      }
    </style>
  </defs>
  <text class="cls-2" transform="translate(386.98 802.34)"><tspan class="cls-4" x="0" y="0">c</tspan><tspan x="81.9" y="0">r</tspan><tspan class="cls-7" x="140.25" y="0">y</tspan></text>
  <g>
    <circle class="cls-6" cx="500.1" cy="341.85" r="304.3"/>
    <path class="cls-3" d="M449.87,433.03l-13.52,44.14c-10.59,34.57-2.14,69.54,51.43,69.54h27.05c43.98,0,62.02-34.97,51.43-69.54l-13.52-44.14c-15.54-50.71-87.32-50.71-102.85,0Z"/>
    <rect class="cls-1" x="449.78" y="462.85" width="101.83" height="65.89" rx="30.91" ry="30.91"/>
    <ellipse class="cls-5" cx="499.5" cy="614.41" rx="305.5" ry="33.55"/>
    <polygon class="cls-5" points="332.01 325.11 332.01 627.45 394.83 627.45 394.83 318.26 332.01 325.11"/>
    <polygon class="cls-5" points="605.16 325.11 605.16 627.45 667.98 627.45 667.98 318.26 605.16 325.11"/>
    <path class="cls-3" d="M569.74,198.69c32.28,44.97,81,73.09,131.87,92.68,8.76,3.37,19.06-3.72,21.37-12.13,2.69-9.81-3.34-17.98-12.13-21.37-41.57-16.01-85.11-40.5-111.11-76.72-5.46-7.61-15.13-11.28-23.77-6.23-7.52,4.4-11.73,16.11-6.23,23.77h0Z"/>
    <path class="cls-3" d="M301,291.69c50.5-18.28,93.56-51.01,127.53-92.36,5.95-7.24,7.09-17.48,0-24.57-6.14-6.14-18.58-7.29-24.57,0-30.39,36.99-67.21,67.14-112.2,83.43-8.82,3.19-14.76,11.81-12.13,21.37,2.34,8.51,12.5,15.34,21.37,12.13h0Z"/>
    <path class="cls-3" d="M561.09,340.07c8.43-5.18,17.95-7.91,27.55-9.31,9.4-1.37,21.62-1.71,32.09-1.91,21.41-.41,41.16,.64,58.77,11.26,8.03,4.84,19.08,1.78,23.77-6.23,4.81-8.22,1.83-18.91-6.23-23.77-22.94-13.83-50.06-16.51-76.31-16s-54.18,1.84-77.17,15.97c-7.99,4.91-11.04,15.54-6.23,23.77,4.67,7.98,15.74,11.16,23.77,6.23h0Z"/>
    <path class="cls-3" d="M318.86,341.52c10.49-4.09,21.02-8.22,32-10.82,10.13-2.4,20.31-2.4,30.86-2.57,21.04-.35,40.47,2.14,59.42,11.49,8.41,4.15,18.8,2.26,23.77-6.23,4.48-7.67,2.21-19.6-6.23-23.77-23.58-11.64-48.36-16.58-74.59-16.27-13.13,.15-26.26,.46-39.17,3.12-12.16,2.51-23.76,7.04-35.29,11.54-8.73,3.41-14.8,11.65-12.13,21.37,2.29,8.33,12.58,15.56,21.37,12.13h0Z"/>
  </g>
</svg>