<?xml version="1.0" encoding="UTF-8"?>
<svg id="line" xmlns="http://www.w3.org/2000/svg" viewBox="0 0 1000 1000">
  <defs>
    <style>
      .cls-1 {
        font-family: FreeSansBold, FreeSans;
        font-size: 150px;
      }

      .cls-2 {
        letter-spacing: -.01em;
      }

      .cls-3 {
        letter-spacing: 0em;
      }

      .cls-3, .cls-4, .cls-5 {
        fill: red;
      }

      .cls-6 {
        fill: #1a004c;
      }

      .cls-4 {
        letter-spacing: 0em;
      }
    </style>
  </defs>
  <text class="cls-1" transform="translate(369.58 802.56)"><tspan class="cls-2" x="0" y="0">l</tspan><tspan class="cls-3" x="39.45" y="0">i</tspan><tspan class="cls-4" x="81.15" y="0">n</tspan><tspan class="cls-5" x="172.05" y="0">e</tspan></text>
  <path class="cls-6" d="M222.66,453.52c16.54-16.55,32.82-33.42,49.7-49.63,3.7-3.56,7.54-6.93,11.51-10.19,1.68-1.38-2.61,1.91-.83,.65,.43-.3,.85-.63,1.27-.93,.99-.72,2-1.41,3.03-2.09,2.34-1.54,4.75-2.97,7.25-4.23,1.06-.54,2.33-.94,3.33-1.58-.02,.01-3.11,1.18-1.39,.61,.69-.23,1.37-.52,2.06-.76,2.59-.91,5.23-1.66,7.91-2.26,1.25-.28,2.51-.53,3.77-.75,.72-.13,1.45-.23,2.17-.35,1.83-.31-1.65,.26-1.66,.23,0,.01,8.05-.6,8.83-.63,5.38-.16,10.76,.07,16.11,.53,2.59,.22,5.17,.5,7.74,.82,.55,.07,1.11,.16,1.67,.21-4.21-.36-2.03-.28-1.06-.14,1.48,.22,2.96,.43,4.44,.67,10.95,1.74,21.8,4.08,32.59,6.64,21.57,5.12,42.95,11.17,64.78,15.15,23.57,4.3,46.98,6.07,70.77,2.75,22.25-3.11,42.97-11.85,63.72-20.04,10.67-4.21,21.44-8.13,32.42-11.47,5.48-1.67,10.99-3.21,16.54-4.62,2.68-.68,5.37-1.34,8.07-1.95,1.55-.35,3.11-.69,4.68-.99,.59-.11,1.18-.19,1.77-.31,2.07-.42-3.43,.24-.25,.05,1.38-.08,2.75-.18,4.14-.17,.59,0,1.18,.05,1.77,.06,3.39,.06-.95,.08-.98-.19,.02,.13,3.12,.7,3.59,.83,.5,.14,1.01,.3,1.51,.46,.35,.12,3.46,1.44,.98,.28s1.31,.63,1.89,.92c1.12,.55,2.21,1.14,3.31,1.74,2.5,1.37,4.95,2.83,7.43,4.26,9.62,5.54,19.82,10.14,30.26,13.9,39.3,14.17,84.67,14.42,124.02,.33,5.65-2.02,11.2-4.36,16.66-6.84,3.54-1.61,6.59-6.27,7.58-9.86,1.09-3.95,.6-9.21-1.66-12.71-5.25-8.14-14.14-9.75-22.58-5.92-1.08,.49-2.17,.97-3.26,1.45-1.98,.88,3.14-1.27,1.13-.48-.47,.19-.94,.38-1.42,.57-2.52,1-5.07,1.94-7.64,2.81-4.65,1.58-9.38,2.95-14.15,4.12s-9.94,2.18-14.97,2.93c-.5,.07-1.01,.13-1.51,.22,4.47-.76,2.39-.31,1.36-.19-1.18,.14-2.36,.27-3.54,.39-2.53,.26-5.07,.46-7.61,.6-10,.56-20.04,.26-29.99-.9-4.14-.48,2.81,.44-.16,0-1.34-.2-2.68-.4-4.02-.63-2.51-.42-5.01-.9-7.5-1.43-4.81-1.03-9.57-2.26-14.27-3.7s-9.63-3.24-14.36-5.13c-2.71-1.08,3.45,1.52-.27-.13-1.08-.48-2.16-.97-3.24-1.48-2.3-1.08-4.58-2.22-6.83-3.41-10.01-5.3-19.66-12.29-30.95-14.62-13.77-2.84-27.34,.55-40.65,4.04-11.27,2.96-22.39,6.45-33.33,10.46-20.98,7.69-41.36,17.34-63.2,22.45-2.76,.65-5.54,1.22-8.33,1.7-1.26,.22-2.62,.3-3.85,.61-.05,.01,3.52-.43,1.64-.22-.92,.1-1.83,.22-2.75,.32-5.47,.58-10.98,.85-16.48,.85s-10.62-.24-15.91-.68c-2.56-.21-5.12-.48-7.67-.78-.73-.09-1.46-.18-2.19-.27-1.85-.21,1.65,.2,1.65,.23,0,.03-3.87-.56-4.38-.64-44.75-6.94-87.72-24.15-133.25-26.34-12.04-.58-24.53,.3-36.14,3.65-12.39,3.58-22.92,10.06-32.94,18-8.38,6.64-15.82,14.39-23.36,21.94-8.46,8.46-16.92,16.93-25.37,25.39l-12.47,12.48c-6.11,6.11-6.57,17.3,0,23.33s16.82,6.52,23.33,0h0Z"/>
</svg>