<?xml version="1.0" encoding="UTF-8"?>
<svg id="lie" xmlns="http://www.w3.org/2000/svg" viewBox="0 0 1000 1000">
  <defs>
    <style>
      .cls-1 {
        fill: #fff;
      }

      .cls-2 {
        fill: #a6d5ef;
      }

      .cls-3 {
        fill: #84322c;
      }

      .cls-4 {
        font-family: FreeSansBold, FreeSans;
        font-size: 150px;
      }

      .cls-5 {
        letter-spacing: 0em;
      }

      .cls-5, .cls-6 {
        fill: red;
      }

      .cls-7 {
        fill: #b8ccd7;
      }

      .cls-8 {
        opacity: .2;
      }

      .cls-9 {
        fill: #a82731;
      }

      .cls-10 {
        fill: #cccbaa;
      }

      .cls-11 {
        fill: #62a6cd;
      }

      .cls-12 {
        fill: #e78b48;
      }

      .cls-13 {
        fill: #c69c6d;
      }

      .cls-14 {
        fill: #d67c3d;
      }

      .cls-15 {
        fill: #e2e2c3;
      }

      .cls-16 {
        fill: #843630;
      }

      .cls-17 {
        letter-spacing: -.01em;
      }

      .cls-18 {
        fill: #3c8aba;
      }

      .cls-19 {
        fill: #993f34;
      }

      .cls-20 {
        fill: #76a3b2;
      }

      .cls-21 {
        fill: #aaa;
      }

      .cls-22 {
        fill: #53a5d3;
      }

      .cls-23 {
        fill: #7abbe5;
      }

      .cls-24 {
        fill: #bcbcbc;
      }

      .cls-25 {
        fill: #d87c3d;
      }

      .cls-26 {
        fill: #2689c6;
      }

      .cls-27 {
        fill: #a0521d;
      }

      .cls-28 {
        fill: #95abb6;
      }

      .cls-6 {
        letter-spacing: 0em;
      }

      .cls-29 {
        fill: #4a99d4;
      }

      .cls-30 {
        fill: #bd3f43;
      }
    </style>
  </defs>
  <text class="cls-4" transform="translate(415.78 802.46)"><tspan class="cls-17" x="0" y="0">l</tspan><tspan class="cls-6" x="39.45" y="0">i</tspan><tspan class="cls-5" x="79.65" y="0">e</tspan></text>
  <g>
    <g>
      <g>
        <path class="cls-12" d="M779.13,370.73l52.51-189.93s-63.53-12.96-126.41-16.21c-53.1-2.74-50.56-3.24-113.44,3.24l18.15,98.53,16.85,68.06,114.09,44.73,38.25-8.43Z"/>
        <path class="cls-27" d="M740.71,381.33l-115.68-45.35-17.11-69.11-18.59-100.87,2.24-.23c59.19-6.1,60.9-6.01,104.62-3.73l9.15,.48c62.31,3.21,126.08,16.12,126.72,16.25l2.19,.45-.6,2.15-52.84,191.14-40.09,8.83Zm-112.15-48.45l112.5,44.1,36.4-8.02,51.58-186.56c-11.71-2.28-68.4-12.87-123.91-15.73l-9.15-.48c-42.84-2.24-45.05-2.36-101.72,3.48l17.74,96.31,16.57,66.9Z"/>
      </g>
      <g>
        <path class="cls-29" d="M772.53,358.04s13.73-63.79,10.49-65.09c-3.24-1.3-22.04-11.02-31.12-12.96-9.08-1.94-69.36,14.91-69.36,14.91l-27.23,14.26,49.8,67.81,67.42-18.92Z"/>
        <path class="cls-26" d="M704.29,379.36l-52.09-70.93,29.78-15.55c6.22-1.74,61.06-16.93,70.36-14.94,7.1,1.52,19.43,7.39,26.79,10.9,2.2,1.05,3.93,1.87,4.66,2.17,2.02,.81,3.62,1.45-2.75,35.35-3,15.95-6.43,31.95-6.47,32.11l-.26,1.23-70.01,19.65Zm-45.86-69.48l47.51,64.69,64.82-18.2c5.74-26.79,11.21-56.5,10.67-61.84-.95-.42-2.34-1.09-4.09-1.92-6.73-3.21-19.25-9.17-25.87-10.59-6.27-1.35-44.11,8.1-68.15,14.82l-24.88,13.03Z"/>
      </g>
      <path class="cls-18" d="M701.34,331.19c.65,0,58.99-17.5,69.36-23.34,10.37-5.83,12.32-8.43,12.32-8.43l-8.43,44.08-2.31,12.39-46.96,12.89-16.85,5.83-7.13-43.43Z"/>
      <g>
        <polygon class="cls-12" points="782.37 399.9 379.17 552.24 168.49 461.49 177.57 407.68 390.19 471.21 790.15 347.4 782.37 399.9"/>
        <path class="cls-27" d="M379.12,554.49l-.77-.33-212.18-91.4,9.74-57.74,214.27,64.02,402.52-124.6-8.44,56.99-405.13,153.06Zm-208.3-94.27l208.4,89.77,401.27-151.6,7.11-48.02-397.4,123.02-.61-.18-210.36-62.85-8.41,49.87Z"/>
      </g>
      <path class="cls-14" d="M797.93,243.03c-.65-.65-12.32-33.06-51.86-46.02-39.54-12.96-68.06-14.26-93.35-10.37-25.28,3.89-33.71,14.91-33.06,14.91s47.97-3.24,69.36,17.5c21.39,20.74-64.82,4.54-68.06,5.19-3.24,.65-10.37-5.83-10.37-5.83l-13.61,7.78-3.24-19.45s24.63-23.98,49.27-31.12c24.63-7.13,53.8-8.43,76.49-7.13,22.69,1.3,57.69,24.63,57.69,24.63l31.12,29.82-10.37,20.1Z"/>
      <g>
        <polygon class="cls-12" points="616.42 209.97 613.18 162 572.99 162 572.99 232.66 617.07 228.12 616.42 209.97"/>
        <path class="cls-27" d="M570.91,234.97v-75.05h44.22l3.38,49.98,.72,20.1-48.32,4.97Zm4.17-70.88v66.26l39.84-4.1-.58-16.17-3.11-45.99h-36.16Z"/>
      </g>
      <g>
        <path class="cls-12" d="M851.73,194.41s-27.23,66.77-33.71,102.42c-6.48,35.65-14.26,60.29-11.02,100.48,3.24,40.19-18.15,36.95-32.41,33.06,0,0-10.37-2.59-9.08-14.91,1.3-12.32,6.48-66.12,9.08-82.33,2.59-16.21,18.15-92.05,22.04-106.31,3.89-14.26,14.91-52.51,14.91-52.51l40.19,20.1Z"/>
        <path class="cls-27" d="M787.94,434.65c-4.6,0-9.39-1.04-13.9-2.27-4.15-1.04-11.77-5.97-10.6-17.14,.25-2.38,.65-6.32,1.14-11.24,2.04-20.29,5.85-58.07,7.95-71.19,2.61-16.29,18.25-92.46,22.09-106.53,3.85-14.11,14.81-52.15,14.92-52.54l.69-2.41,44.16,22.08-.73,1.79c-.27,.67-27.22,66.98-33.59,102.01-1.29,7.11-2.64,13.78-3.93,20.22-5.17,25.66-9.63,47.81-7.06,79.72,1.35,16.74-1.3,27.63-8.1,33.27-3.78,3.13-8.3,4.24-13.04,4.24Zm24.91-257.35c-2.48,8.62-10.93,38.06-14.21,50.07-3.82,14-19.39,89.86-21.99,106.09-2.08,13.01-5.88,50.7-7.92,70.95-.5,4.93-.89,8.87-1.14,11.26-1.09,10.4,7.15,12.58,7.51,12.67,8.15,2.22,17.24,3.81,23.22-1.14,5.6-4.65,7.83-14.65,6.61-29.73-2.62-32.49,1.9-54.91,7.13-80.87,1.29-6.43,2.63-13.07,3.92-20.14,5.85-32.19,28.73-90.14,33.11-101.04l-36.23-18.11Z"/>
      </g>
      <path class="cls-14" d="M799.55,425.51s-12.32,2.59-13.61,1.3,.32-26.25,2.27-56.07c1.94-29.82,14.91-115.39,18.15-124.46,3.24-9.08,17.5-53.16,17.5-53.16l22.69,7.13s-23.34,62.88-25.28,70.01c-1.94,7.13-12.32,55.1-14.91,81.03-2.59,25.93-1.3,53.8-1.3,53.8l-5.51,20.42Z"/>
      <g>
        <path class="cls-12" d="M810.89,201.54s19.45,8.43,36.95,0c0,0,19.45-6.48,15.56-26.58-3.89-20.1-35.65-23.98-42.14-21.39-6.48,2.59-18.91,7.67-21.77,22.31,0,0,2.32,19.18,11.4,25.66Z"/>
        <path class="cls-27" d="M830.44,207.4c-11.09,0-19.83-3.7-20.37-3.94l-.38-.22c-9.71-6.94-12.16-26.29-12.26-27.11l-.04-.33,.06-.32c3.1-15.87,16.57-21.25,23.04-23.84,4.82-1.93,19.57-.79,30.79,5.33,7.87,4.29,12.76,10.38,14.16,17.6,4,20.67-14.91,28.2-16.79,28.9-6.16,2.95-12.5,3.93-18.21,3.93Zm-18.52-7.68c2.05,.82,19.52,7.42,35.02-.05l.24-.1c.72-.24,17.66-6.19,14.17-24.2-1.17-6.04-5.23-11-12.06-14.73-10.34-5.65-23.71-6.54-27.25-5.12-6.18,2.47-17.64,7.06-20.43,20.44,.35,2.45,2.84,18.2,10.31,23.76Z"/>
      </g>
      <g>
        <path class="cls-12" d="M572.64,176.82s16.55,7.17,31.44,0c0,0,13.79-5.52,10.48-22.62-3.31-17.1-27.58-20.41-33.1-18.2-5.52,2.21-16.09,6.52-18.53,18.98,0,0,1.98,16.32,9.7,21.84Z"/>
        <path class="cls-27" d="M589.28,182.11c-9.51,0-17-3.17-17.47-3.38l-.38-.22c-8.37-5.98-10.47-22.58-10.56-23.28l-.04-.33,.06-.32c2.67-13.67,14.24-18.29,19.8-20.52,3.92-1.57,14.77-.82,23.53,3.96,6.83,3.73,11.11,9.18,12.39,15.78,3.44,17.78-10.33,24.32-11.65,24.91-5.31,2.55-10.76,3.4-15.68,3.4Zm-15.61-7.12c1.87,.75,16.53,6.2,29.52-.05l.13-.06c.49-.2,12.14-5.16,9.21-20.29-1.05-5.42-4.51-9.76-10.29-12.92-7.71-4.2-17.32-4.82-19.99-3.75-5.2,2.08-14.83,5.93-17.19,17.12,.32,2.22,2.43,15.29,8.61,19.94Z"/>
      </g>
      <path class="cls-14" d="M596.36,147.03s4.96,8.83,2.76,13.24c-2.21,4.41-3.86,7.17-8.27,7.17s-13.24,0-16-1.65c-2.76-1.65-7.17-3.86-7.17-3.86,0,0,3.31,16.55,20.96,14.89,17.65-1.65,22.62-6.62,23.17-11.03s3.86-17.65-4.96-22.07c-8.83-4.41-10.48-6.07-17.1-6.62,0,0,5.52,8.27,6.62,9.93Z"/>
      <g>
        <path class="cls-23" d="M708.47,328.6s9.72-.65,12.32-2.59,3.89-5.83,3.89-5.83c0,0,22.69-7.13,35-24.63,12.32-17.5,14.26-47.32,12.96-51.21,0,0,20.1-11.67,20.74-17.5,.65-5.83-3.24-9.72-9.72-12.32s-26.58-3.24-26.58-3.24c0,0-35-27.87-81.03-28.52-46.02-.65-78.44,9.08-78.44,9.08,0,0-14.91-16.21-27.87-9.08-12.96,7.13,5.83,27.87,5.83,27.87,0,0-29.17,22.04-21.39,64.18,7.78,42.14,154.28,53.8,154.28,53.8Z"/>
        <path class="cls-22" d="M708.46,330.69h-.15c-6.05-.49-148.19-12.3-156.16-55.51-6.81-36.9,14.28-59.14,20.51-64.78-3.21-3.93-10.71-14.11-9.38-22.04,.54-3.22,2.38-5.72,5.48-7.42,12.45-6.85,25.91,5.02,29.5,8.56,6.37-1.73,36.95-9.37,77.84-8.82,43.05,.61,77.01,24.99,81.74,28.55,3.64,.14,20.48,.91,26.61,3.37,8.02,3.21,11.73,8.08,11.02,14.48-.66,5.92-14.59,14.81-20.53,18.35,.75,7.98-2.02,34.97-13.54,51.33-11.27,16.01-30.54,23.5-35.12,25.1-.62,1.47-1.99,4.16-4.23,5.84-2.94,2.2-11.7,2.89-13.43,3.01h-.15Zm-131.61-147.65c-2.05,0-4.11,.45-6.1,1.54-1.95,1.07-3.05,2.53-3.38,4.46-1.09,6.51,6.67,16.78,9.75,20.19l1.52,1.68-1.81,1.38c-.28,.21-28.04,21.84-20.6,62.14,7.3,39.52,146.82,51.64,152.25,52.09,4.36-.3,9.77-1.21,11.05-2.17,1.68-1.26,2.85-3.92,3.17-4.83l.34-1,1.01-.32c.22-.07,22.18-7.15,33.93-23.84,12.29-17.46,13.64-46.5,12.69-49.35l-.54-1.61,1.47-.85c9.23-5.36,19.39-12.97,19.72-15.93,.18-1.61,.72-6.49-8.43-10.15-5.03-2.01-20.38-2.92-25.87-3.09l-.69-.02-.54-.43c-.35-.27-35.02-27.44-79.76-28.07-45.09-.66-77.49,8.89-77.81,8.99l-1.25,.37-.88-.96c-.11-.12-9.55-10.2-19.24-10.2Z"/>
      </g>
      <path class="cls-11" d="M718.2,320.17c-.56-.33,0,2.59-3.89-12.96-3.89-15.56,1.94-39.54,9.08-48.62s18.15-18.8,27.23-23.34,20.74-9.08,26.58-11.02c5.83-1.94,17.5-2.59,14.26,.65-3.24,3.24-19.45,16.21-20.74,17.5-1.3,1.3-1.3,6.48-1.3,12.32s-3.24,29.17-9.72,36.3-12.96,14.26-18.8,18.15c-5.83,3.89-18.15,7.78-19.45,9.72-1.3,1.94,0,3.24-3.24,1.3Z"/>
      <path class="cls-14" d="M838.77,166.54s5.83,10.37,3.24,15.56-4.54,8.43-9.72,8.43-15.56,0-18.8-1.94-8.43-4.54-8.43-4.54c0,0,3.89,19.45,24.63,17.5,20.74-1.94,26.58-7.78,27.23-12.96,1.16-9.25,12.67-16.68-5.83-25.93-10.37-5.19-12.32-7.13-20.1-7.78,0,0,6.48,9.72,7.78,11.67Z"/>
      <path class="cls-2" d="M734.4,223.58c1.3-1.94,11.02-5.19,18.15-4.54,7.13,.65,17.5,1.3,11.02,3.89-6.48,2.59-15.56,1.3-20.74,1.94s-8.43-1.3-8.43-1.3Z"/>
      <path class="cls-2" d="M724.68,212.56s-26.58-11.67-39.54-12.32c-12.96-.65-46.67-5.19-60.29,0-13.61,5.19-20.48,5.94-23.21,8.48s2.46,5.78,9.59,3.84c7.13-1.94,27.87-3.89,34.36-4.54,6.48-.65,1.3-.65,7.78-.65s25.93-.65,36.95,0c11.02,.65,34.36,5.19,34.36,5.19Z"/>
      <path class="cls-2" d="M659.21,250.81c-7.78-.65-42.66-4.02-52.12-4.28s-12.7-.91-20.48,2.98c-7.78,3.89-13.61,11.02-18.15,7.13-4.54-3.89-8.43-10.37-7.13-12.96,1.3-2.59-1.3,3.24,2.59-4.54,3.89-7.78,9.72-22.04,12.96-25.93,3.24-3.89,6.48-3.89,3.24-7.78-3.24-3.89-10.37-14.91-9.72-16.85s5.83-1.94,5.83-1.94v3.24c0,1.94,0,2.59,.65,3.24s1.94,3.24,4.54,5.83c2.59,2.59,5.83-1.3,5.83,2.59s-5.83,15.56-7.13,19.45,.65,16.85,.65,16.85c0,0,23.34-7.78,49.91,2.59,26.58,10.37,28.52,10.37,28.52,10.37Z"/>
      <g>
        <path class="cls-29" d="M681.89,410.28s-62.23,24.63-63.53,25.28-1.94-.65-8.43,3.24c-6.48,3.89-59.64,25.28-77.14,34.36-17.5,9.08-41.49,13.61-53.8,16.21-12.32,2.59-24.63,12.32-35.65,15.56-11.02,3.24-27.87,10.37-41.49,4.54-13.61-5.83-178.91-70.66-178.91-70.66,0,0-26.58-54.45-25.93-55.75,.65-1.3,0-49.27,0-49.27,0,0,57.04-36.95,160.11-53.8,0,0,70.01-14.91,89.46-15.56,19.45-.65,141.32,23.98,141.32,23.98l74.55,43.43,7.78,41.49,11.67,36.95Z"/>
        <path class="cls-26" d="M413.55,513.75c-4.27,0-8.52-.66-12.51-2.38-13.43-5.76-177.2-69.99-178.85-70.63l-.76-.3-.36-.73c-.07-.14-6.72-13.78-13.22-27.41-12.56-26.36-13.29-28.71-12.83-29.91,.37-3.11,.14-31.26-.09-48.58l-.02-1.15,.97-.63c.57-.37,58.59-37.38,160.91-54.11,2.77-.59,70.32-14.94,89.72-15.58,19.49-.66,136.81,23.02,141.8,24.02l.34,.07,.3,.17,75.37,43.91,7.93,42.3,12.21,38.68-1.8,.71c-17.08,6.76-61.76,24.47-63.39,25.22-.7,.35-1.33,.4-1.84,.44-.83,.07-2.21,.18-6.42,2.71-3.08,1.85-15.14,7.01-30.42,13.54-17.52,7.49-37.38,15.98-46.83,20.88-16.44,8.53-38.31,13.07-51.38,15.78l-2.95,.62c-6.51,1.37-13.17,4.9-19.62,8.32-5.52,2.92-10.73,5.69-15.88,7.2-1.58,.46-3.28,1.01-5.08,1.59-7.27,2.33-16.36,5.24-25.31,5.24Zm-189.09-76.59c12.17,4.77,165.2,64.81,178.22,70.39,10.93,4.68,24.22,.42,34.9-3,1.83-.59,3.56-1.14,5.17-1.62,4.74-1.39,9.77-4.06,15.1-6.88,6.7-3.55,13.63-7.22,20.71-8.71l2.97-.62c12.86-2.67,34.37-7.14,50.31-15.4,9.59-4.97,29.52-13.5,47.11-21.01,13.93-5.95,27.08-11.58,29.92-13.28,4.65-2.79,6.61-3.15,8.22-3.29,.13-.01,.25,0,.36-.04,1.23-.62,48.33-19.27,61.87-24.64l-11.14-35.34-7.6-40.55-73.43-42.78c-7.13-1.44-121.97-24.5-140.5-23.88-19.04,.63-88.39,15.36-89.09,15.51-94.31,15.42-150.52,48.08-158.45,52.91,.49,36.69,.25,45.63-.02,48.06,.97,3.57,15.84,34.64,25.36,54.16Zm-25.37-54.07c-.06,.48-.11,.68-.16,.8,.14-.33,.17-.62,.16-.8Zm-4.08-.55s0,0,0,0t0,0Z"/>
      </g>
      <path class="cls-18" d="M642.35,333.14c-.65,0-83.62,26.58-84.92,26.58s2.59-.65-8.43,2.59-73.25,20.74-103.72,24.63c-30.47,3.89-56.4,10.37-56.4,10.37l-7.78,84.92,13.61,20.74s14.26,15.56,57.69-3.89c0,0,15.56-9.08,37.6-14.26,22.04-5.19,34.36-10.37,45.38-16.21,11.02-5.83,48.62-22.04,59.64-25.93,11.02-3.89,27.23-14.91,35-16.21,7.78-1.3,39.54-18.15,39.54-18.15l-27.23-75.2Z"/>
      <g>
        <path class="cls-7" d="M641.06,397.96s-6.48,33.71,9.72,30.47c16.21-3.24,59.64-20.74,62.88-22.04s9.08-3.24,10.37-17.5c1.3-14.26,.65-42.78-1.94-52.51-2.59-9.72-25.95-20.77-35.03-27.9-9.08-7.13-70.57-7.32-86.13-12.5s-42.85-36.09-71.37-39.33c-28.52-3.24-45.38-2.59-67.42-.65-22.04,1.94-58.99,11.67-61.58,12.32-2.59,.65-1.3,0-3.89,.65-2.59,.65-9.08,2.59-9.08,2.59,0,0-11.02,5.19,.65,6.48,11.67,1.3,55.1,3.89,64.82,5.83,9.72,1.94,67.42,12.96,97.88,21.39,30.47,8.43,49.91,11.67,64.18,20.1,14.26,8.43,22.69,21.39,24.63,33.06,1.94,11.67,1.94,34.36,1.3,39.54Z"/>
        <path class="cls-20" d="M648.71,430.73c-3.13,0-5.21-1.33-6.48-2.59-7.36-7.3-3.74-27.83-3.23-30.5,.6-5.02,.62-27.41-1.29-38.88-2.01-12.07-11.07-24.18-23.64-31.61-10.21-6.03-23.34-9.39-41.51-14.04-6.57-1.68-14.02-3.59-22.16-5.84-27.06-7.48-76.63-17.21-92.92-20.41-2.11-.42-3.75-.74-4.82-.95-6.02-1.2-25.98-2.72-42.02-3.94-9.82-.74-18.29-1.39-22.63-1.87-3.09-.34-6.7-1.1-7.17-3.92-.5-3.04,3.46-5.39,5.86-6.52l.29-.11c.27-.08,6.56-1.97,9.17-2.62,1.43-.36,1.92-.39,2.45-.39,.18,0,.39,0,1.44-.26l.88-.23c15.02-3.85,42.91-10.55,61.02-12.14,23.18-2.05,40.03-2.51,67.83,.65,18.43,2.09,36.27,15.32,50.6,25.95,8.43,6.25,15.7,11.64,21.19,13.48,6.58,2.19,22.64,3.54,38.17,4.84,25.97,2.18,43.39,3.91,48.58,8,2.63,2.07,6.64,4.56,10.89,7.2,10.71,6.66,22.84,14.2,24.87,21.8,2.63,9.86,3.36,38.35,2.01,53.23-1.38,15.16-7.91,17.75-11.42,19.15l-.62,.25c-11.01,4.41-48.09,19.04-62.88,22-.89,.18-1.71,.26-2.48,.26Zm-263.29-155.35c.54,.19,1.47,.42,3.06,.59,4.26,.47,12.71,1.11,22.48,1.86,16.99,1.29,36.25,2.75,42.52,4.01,1.06,.21,2.7,.53,4.8,.95,18.05,3.54,66.01,12.95,93.23,20.48,8.1,2.24,15.53,4.14,22.08,5.82,18.51,4.74,31.88,8.16,42.6,14.49,13.81,8.16,23.39,21.06,25.63,34.51,2.01,12.07,1.96,34.94,1.31,40.14l-.02,.13c-1.11,5.79-2.9,21.9,2.06,26.83,1.28,1.28,2.94,1.66,5.21,1.21,14.44-2.89,51.22-17.4,62.14-21.78l.63-.25c3.05-1.21,7.66-3.04,8.8-15.65,1.3-14.25,.6-42.46-1.88-51.78-1.6-6.01-13.49-13.4-23.04-19.34-4.35-2.7-8.45-5.25-11.26-7.46-4.61-3.62-27.76-5.56-46.36-7.12-16.5-1.38-32.09-2.69-39.15-5.04-6.12-2.04-13.65-7.62-22.36-14.08-13.93-10.33-31.26-23.18-48.58-25.15-27.45-3.12-44.1-2.66-67-.64-17.81,1.57-45.46,8.21-60.35,12.03l-.91,.23c-1.43,.36-1.92,.39-2.45,.39-.18,0-.39,0-1.44,.26-2.3,.57-7.83,2.22-8.83,2.52-1.11,.54-2.28,1.3-2.93,1.87Z"/>
      </g>
      <path class="cls-28" d="M701.64,324.45s16.78,12.81,17.43,18.64c.65,5.83,1.94,36.95,1.3,41.49-.65,4.54-.97,13.29-5.51,16.53-4.54,3.24-44.73,16.85-48.62,18.15-3.89,1.3-13.29,4.21-15.23,2.92s-5.19-5.83-4.54-8.43c.65-2.59,0-29.17,0-32.41s-1.3-16.85-1.3-17.5-1.3-9.08-1.94-11.02c-.65-1.94-11.02-18.15-11.02-18.15,0,0,16.85-.65,25.28-1.3,8.43-.65,30.47-6.48,36.95-7.78s7.2-1.14,7.2-1.14Z"/>
      <g>
        <path class="cls-12" d="M374.63,503.62l3.89-122.52s-12.96-12.32-56.4-23.98c-43.43-11.67-89.46-27.87-126.41-25.28-36.95,2.59-31.12,11.02-31.12,11.02l-3.89,85.57,79.08,36.95,134.83,38.25Z"/>
        <path class="cls-27" d="M376.63,506.35l-137.71-39.09-80.35-37.54,3.93-86.42c-.4-1-.51-2.42,.2-3.91,2.45-5.1,13.2-8.25,32.87-9.63,30.31-2.13,66.84,8.3,102.18,18.38,8.2,2.34,16.68,4.76,24.91,6.97,43.44,11.67,56.75,23.97,57.29,24.49l.68,.64-4,126.12Zm-136.1-42.94l132.1,37.47,3.77-118.84c-3.16-2.52-17.87-12.99-54.82-22.91-8.26-2.22-16.76-4.64-24.97-6.99-34.99-9.98-71.17-20.3-100.75-18.23-24.34,1.71-28.61,5.91-29.34,7.15-.25,.42-.17,.65-.14,.71l.6,.64-.3,.53-3.83,84.17,77.67,36.29Z"/>
      </g>
      <g>
        <path class="cls-12" d="M417.41,395.37s-5.83,79.08-5.19,102.42,1.94,18.15,3.89,42.78c1.94,24.63,1.3,29.17,1.3,29.17,0,0-22.04,20.1-55.75,0l6.48-95.94,1.94-85.57,47.32,7.13Z"/>
        <path class="cls-27" d="M390.96,580.69c-8.58,0-18.85-2.3-30.36-9.16l-1.1-.65,6.57-97.22,1.99-87.84,51.57,7.77-.14,1.93c-.06,.79-5.82,79.25-5.18,102.21,.36,13.12,.93,17.09,1.71,22.59,.59,4.17,1.33,9.36,2.17,20.09,1.94,24.58,1.31,29.44,1.28,29.63l-.11,.74-.55,.5c-.15,.14-10.62,9.41-27.86,9.41Zm-27.13-12.1c28.39,16.29,47.94,2.95,51.57,.11,.09-2.05,.14-8.92-1.36-27.97-.84-10.6-1.56-15.72-2.15-19.83-.8-5.64-1.38-9.71-1.75-23.06-.6-21.43,4.14-88.19,5.05-100.71l-43.07-6.49-1.89,83.2-6.4,94.75Z"/>
      </g>
      <g>
        <path class="cls-12" d="M146.45,325.36s-1.3,60.29-1.3,65.47-.65,95.94-.65,95.94c0,0,11.02,11.67,33.06,8.43,0,0,11.67-1.94,14.91-11.67l-10.1-158.17h-35.93Z"/>
        <path class="cls-27" d="M169.95,497.85c-17.61,0-26.53-9.2-26.96-9.65l-.58-.61v-.84c.01-.91,.65-90.8,.65-95.92s1.24-63.05,1.3-65.52l.04-2.04h39.92l10.25,160.53-.13,.39c-3.6,10.79-16.02,12.98-16.54,13.06-2.83,.42-5.48,.6-7.96,.6Zm-23.35-11.97c2.45,2.19,12.54,9.92,30.67,7.25,.06-.01,10.13-1.83,13.11-9.9l-9.95-155.8h-31.93c-.23,10.58-1.25,58.82-1.25,63.39,0,4.86-.57,85.58-.64,95.05Z"/>
      </g>
      <path class="cls-25" d="M388.89,567.15s15.56-1.94,23.34-7.13c0,0-1.94-38.25-1.3-41.49,.65-3.24,0-77.14,1.3-83.62,1.3-6.48,1.94-46.02,1.94-46.02l-18.8,8.43s-7.78,106.96-7.78,133.54-.32,15.23-.32,23.66,1.62,12.64,1.62,12.64Z"/>
      <path class="cls-25" d="M167.84,492.6s20.74-3.24,21.39-9.08-4.54-85.57-4.54-85.57l-4.54-70.66-12.32,2.59,1.94,108.26-1.94,54.45Z"/>
      <g>
        <path class="cls-12" d="M152.93,334.43s-15.56-5.19-16.85-16.21c-1.3-11.02,3.24-23.34,13.61-27.87s22.04-3.24,29.82,1.94c7.78,5.19,13.61,15.56,9.72,24.63-3.89,9.08-9.08,16.21-16.21,17.5-7.13,1.3-20.1,0-20.1,0Z"/>
        <path class="cls-27" d="M164.61,337.09c-5.9,0-11.53-.55-11.88-.59l-.45-.1c-.69-.23-16.83-5.74-18.27-17.94-1.27-10.78,2.84-24.77,14.85-30.03,10.5-4.59,22.99-3.76,31.81,2.12,8.35,5.56,14.86,16.98,10.48,27.19-4.85,11.31-10.65,17.44-17.75,18.73-2.52,.46-5.7,.61-8.79,.61Zm-11.22-4.71c1.8,.17,13.04,1.13,19.27,0,5.53-1.01,10.47-6.48,14.66-16.27,3.49-8.14-2.02-17.45-8.96-22.08-7.67-5.12-18.6-5.81-27.83-1.77-10.07,4.4-13.47,16.42-12.38,25.72,1.05,8.92,13.47,13.75,15.24,14.4Z"/>
      </g>
      <path class="cls-25" d="M170.44,296.83s6.48,12.32-3.89,17.5c-10.37,5.19-11.67,9.08-18.15,5.83-6.48-3.24-9.72-7.78-9.72-7.78,0,0,.65,13.61,9.72,16.21,9.08,2.59,19.45,5.83,27.23-1.3,7.78-7.13,11.67-7.13,9.08-16.85-2.59-9.72-4.54-13.61-14.26-13.61Z"/>
      <g>
        <path class="cls-12" d="M363.61,383.05s9.08,20.74,35.65,21.39c26.58,.65,29.82-20.1,29.82-23.98s-1.3-23.98-17.5-31.12c-16.21-7.13-33.06-.65-38.89,5.83-5.83,6.48-10.37,22.69-9.08,27.87Z"/>
        <path class="cls-27" d="M400.48,406.54c-.42,0-.84,0-1.27-.02-27.59-.67-37.12-21.74-37.51-22.64l-.11-.33c-1.48-5.92,3.38-22.92,9.55-29.77,6.63-7.36,24.66-13.66,41.28-6.35,18.53,8.16,18.75,32.01,18.75,33.02,0,3.52-1.69,11.82-8.06,18.05-5.47,5.33-13.07,8.04-22.62,8.04Zm-34.89-24.16c.95,2.03,9.8,19.4,33.72,19.98,8.96,.21,16-2.08,20.88-6.84,5.59-5.45,6.81-12.72,6.81-15.06,0-.9-.18-22.14-16.26-29.21-16.06-7.06-31.7-.02-36.51,5.32-5.37,5.97-9.58,21.23-8.64,25.81Z"/>
      </g>
      <path class="cls-25" d="M405.1,356.47s4.54,13.61,0,20.74c-4.54,7.13-7.78,11.02-16.21,10.37-8.43-.65-18.8-6.48-18.8-6.48,0,0,0,12.32,12.96,16.85,12.96,4.54,20.1,4.54,28.52-.65,8.43-5.19,12.96-8.43,12.32-20.1s-4.54-20.74-10.37-23.98c-5.83-3.24-14.26-3.89-14.26-3.89,0,0,5.19,3.89,5.83,7.13Z"/>
      <path class="cls-25" d="M327.63,475.1s8.1,2.62,10.21-4.52c2.11-7.14-1.78-53.17-1.78-53.17,0,0-11.67-27.87-34.36-40.19-22.69-12.32-42.14-16.85-62.88-12.96-20.74,3.89-30.47,16.21-30.47,16.85,0,.65,0,43,0,43,0,0,0,3.67,5.83,5.62s113.44,45.38,113.44,45.38Z"/>
      <path class="cls-18" d="M437.79,376.96s84.39-17,139.39-35.45c0,0-9.28-1.08-19.51-8.37l-16.8-14.77s-10.6-2.18-19.38,3.35c0,0-52.4,14.18-92.41,30,0,0,8.79,16.65,8.7,25.26Z"/>
    </g>
    <g>
      <g>
        <path class="cls-1" d="M588.56,303.54l29.34-1.17c1.14-.77,4.02-4.67,4.7-5.87l-38.73-15.26h-1.17c.15,1.97-.32,3.9-.17,5.87,.2,2.54,.39,5.09,1.09,7.54,.69,2.45,1.83,7.25,3.77,8.89h1.17Z"/>
        <path class="cls-24" d="M588.56,305.62c9.65-.39,19.33-.55,28.97-1.16,1.27-.08,2.06-.7,2.91-1.63,1.47-1.6,2.86-3.41,3.96-5.29,.74-1.26-.02-2.58-1.25-3.06-11.7-4.61-23.41-9.22-35.11-13.83-1.85-.73-3.36-1.5-5.35-1.5-1.09,0-2.13,.96-2.08,2.08,.07,1.53-.15,3.04-.19,4.56s.14,3,.3,4.48c.28,2.47,.83,4.84,1.52,7.22,.59,2.03,1.24,4.2,2.4,5.98,.53,.8,1.22,1.79,2.19,2.07,.54,.16,1.18,.07,1.73,.07,2.68,0,2.69-4.17,0-4.17h-1.17l1.47,.61c-1.98-1.84-2.51-5.31-3.19-7.81-.56-2.04-.81-4.09-.98-6.2-.19-2.29,.19-4.54,.09-6.82l-2.08,2.08c.32,0,.65,.02,.98,0,.43-.02-.57-.17-.3-.05,.17,.08,.35,.13,.52,.21,.8,.36,1.65,.65,2.47,.97l9.05,3.57c7.17,2.83,14.34,5.65,21.52,8.48,1.7,.67,3.41,1.34,5.11,2.01l-1.25-3.06c-.87,1.47-1.93,2.87-3.06,4.16-.08,.1-.83,.75-.83,.89,0,.33,.74-.28,.95-.21-.12-.04-.34,.02-.47,.02-1.96-.06-3.98,.16-5.94,.24-6.08,.24-12.16,.49-18.24,.73-1.55,.06-3.1,.12-4.65,.19-2.67,.11-2.69,4.28,0,4.17Z"/>
      </g>
      <g>
        <path class="cls-1" d="M562.74,292.97c5.67,.13,19.04-10.61,22.3-15.26l-12.91-24.65-19.95-3.52-11.74,10.56-2.35,14.09,5.87,12.91,6.98,5.28,11.8,.59Z"/>
        <path class="cls-24" d="M562.74,295.06c4.73-.01,9.46-3.47,13.11-6.12,3.98-2.9,8.1-6.14,10.99-10.17,.44-.61,.32-1.48,0-2.1-3.96-7.56-7.92-15.12-11.88-22.68-.56-1.07-1.02-2.51-2.28-2.93s-2.66-.47-3.92-.69c-4.95-.87-9.91-1.75-14.86-2.62-1.36-.24-2.4-.36-3.54,.63-1.66,1.44-3.26,2.94-4.89,4.4l-5.56,5.01c-1.01,.91-1.45,1.59-1.67,2.94-.71,4.26-1.7,8.57-2.14,12.87-.17,1.63,.98,3.36,1.64,4.81,1.12,2.46,2.23,4.91,3.35,7.37,.74,1.63,1.18,2.64,2.63,3.73,1.98,1.5,3.96,3.42,6.13,4.64,.69,.39,1.48,.35,2.25,.38l4.08,.2,6.58,.33c2.68,.13,2.67-4.03,0-4.17l-6.92-.34-4.13-.21c-.15,0-.6-.12-.74-.04,.34-.2,1.11,.67,.87,.16-.06-.14-.43-.33-.54-.41l-3.6-2.72c-.73-.55-1.75-1.69-2.64-1.99,.94,.32,.78,1.1,.53,.32-.14-.44-.39-.86-.58-1.28l-1.89-4.15c-1.07-2.36-2.15-4.72-3.22-7.08l.21,1.61c.71-4.27,1.42-8.54,2.13-12.81,.05-.29,.18-.67,.16-.96-.07-.77-.03,.49-.45,.58,.4-.08,1.1-.99,1.39-1.25,1.95-1.75,3.89-3.5,5.84-5.25,1.49-1.34,2.98-2.69,4.48-4.03l-2.03,.54c6.65,1.17,13.3,2.35,19.95,3.52l-1.25-.96c4.3,8.22,8.61,16.43,12.91,24.65v-2.1c-2.37,3.3-6.16,6.24-9.5,8.67-1.98,1.44-4.04,2.81-6.21,3.94-1.47,.77-3.21,1.6-4.79,1.61-2.68,0-2.69,4.17,0,4.17Z"/>
      </g>
      <g>
        <path class="cls-15" d="M682.46,260.11c1.69,3,1.66,6.72,1.85,10.16,.19,3.54-1.15,7.01-2.99,10.05-2.77,4.57-6.78,8.43-11.57,10.78s-10.24,4.24-15.45,3.06l-15.15-20.04,43.32-14Z"/>
        <path class="cls-10" d="M680.67,261.16c.92,1.74,1.23,3.67,1.38,5.61s.39,4.16,.03,6.16c-.68,3.86-2.94,7.46-5.52,10.35-2.53,2.83-5.54,4.96-8.98,6.55-3.94,1.82-8.37,3.21-12.73,2.31l1.25,.96c-5.05-6.68-10.1-13.36-15.15-20.04l-1.25,3.06c12.64-4.09,25.28-8.17,37.91-12.26,1.8-.58,3.6-1.16,5.4-1.75,2.54-.82,1.45-4.85-1.11-4.02-12.64,4.09-25.28,8.17-37.91,12.26-1.8,.58-3.6,1.16-5.4,1.75-1.14,.37-2.1,1.93-1.25,3.06,4.32,5.72,8.65,11.44,12.97,17.16,.69,.91,1.37,1.82,2.06,2.73,1.71,2.25,6.05,1.65,8.53,1.26,7.75-1.22,15.19-5.63,20-11.79,2.7-3.45,4.89-7.5,5.39-11.91s0-9.66-2.04-13.56c-1.25-2.37-4.85-.27-3.6,2.1Z"/>
      </g>
      <g>
        <path class="cls-15" d="M586.22,303.54l-8.22,19.95c8.59,10.06,22.67,15.31,35.74,13.26,1.62-.25,3.57-.95,3.79-2.58,.1-.72-.19-1.45-.08-2.17,.38-2.45,4.34-2.11,5.85-4.08,1.32-1.73,.15-4.4,1.17-6.32,.81-1.53,2.8-2.16,3.59-3.7,.57-1.12,.39-2.46,.19-3.7-.59-3.68-1.36-7.69-4.23-10.06-1.51-1.25-3.44-1.88-5.35-2.33-10.79-2.59-21.53-.27-32.45,1.72"/>
        <path class="cls-10" d="M584.21,302.98c-2.74,6.65-5.48,13.3-8.22,19.95-.29,.7,.09,1.51,.54,2.03,5.45,6.29,12.87,10.78,20.91,12.91,3.92,1.04,8.04,1.53,12.1,1.37,3.25-.13,8.72-.25,9.9-4.09,.15-.49,.2-1.01,.19-1.52,0-.39-.26-1.03-.09-1.4-.06,.13,.86-.38,1.15-.5,1.48-.6,3.01-1.07,4.09-2.33,1.31-1.53,1.24-3.44,1.31-5.34,.08-2.25,1.94-2.68,3.21-4.28s1.34-3.58,1.05-5.59-.65-4.11-1.34-6.05c-1.49-4.17-4.37-6.79-8.63-8.03-11.35-3.3-23.4-.64-34.7,1.42-2.63,.48-1.52,4.5,1.11,4.02,8.86-1.62,17.89-3.55,26.94-2.51,3.85,.44,8.65,1.12,10.67,4.86,.72,1.34,1.1,2.85,1.4,4.33,.33,1.56,1.2,4.02-.07,5.3-1.11,1.12-2.42,1.78-3.15,3.26-.86,1.75-.28,3.48-.71,5.26-.28,1.19-1.63,1.4-2.64,1.8-1.22,.48-2.48,1.06-3.21,2.22-.37,.59-.6,1.25-.65,1.94-.05,.6,.3,1.6-.06,2.05-.78,.96-3.62,.88-4.71,.96-3.52,.24-7.06-.02-10.5-.79-8-1.78-15.25-6.02-20.62-12.21l.54,2.03c2.74-6.65,5.48-13.3,8.22-19.95,1.02-2.48-3.01-3.56-4.02-1.11h0Z"/>
      </g>
      <g>
        <path class="cls-30" d="M532.22,302.36c-1.08-15.33-1.84-30.55-2.93-45.89-.2-2.76-.26-5.89,1.68-7.86,1.37-1.39,3.4-1.83,5.31-2.21,5.55-1.1,12.08-1.95,16.17,1.96,3.13,3,3.64,7.74,3.95,12.07,.61,8.42,1.22,16.84,1.83,25.26,.06,.85,.15,1.77,.7,2.42,.62,.74,1.66,.94,2.61,1.12,6.14,1.16,12.08,3.37,17.5,6.5,3.05,1.76,6.14,4.11,6.98,7.54,.93,3.78-1.18,7.58-3.2,10.9-2,3.28-4,6.57-6,9.85-.45,.74-1.01,1.55-1.87,1.68-.59,.09-1.16-.18-1.69-.45-13.97-6.92-27.64-14.43-40.99-22.5"/>
        <path class="cls-9" d="M534.31,302.36c-1.08-15.37-1.97-30.76-2.94-46.15-.18-2.84-.29-6.04,2.87-7.16,2.73-.97,5.97-1.38,8.86-1.47s5.77,.27,7.89,2.26,2.78,5.16,3.11,7.96c.83,7.2,1.09,14.51,1.61,21.74,.14,1.93,.27,3.87,.42,5.8,.11,1.5,.26,3.08,1.33,4.23,.94,1.01,2.23,1.39,3.53,1.66,1.84,.38,3.66,.79,5.46,1.33,3.43,1.02,6.74,2.37,9.89,4.05,2.57,1.37,5.47,2.95,6.99,5.55,1.86,3.18,.13,6.75-1.52,9.61-1.84,3.19-3.82,6.31-5.73,9.45-.28,.46-.98,2.23-1.51,2.39-.28,.08-2.05-1.06-2.35-1.21-1.89-.95-3.78-1.91-5.66-2.87-3.76-1.94-7.5-3.92-11.22-5.94-7.43-4.05-14.77-8.26-22.02-12.64-2.3-1.39-4.4,2.21-2.1,3.6,7.25,4.37,14.58,8.59,22.02,12.64,3.62,1.97,7.26,3.9,10.92,5.79,1.78,.92,3.57,1.83,5.36,2.73,1.61,.81,3.55,2.2,5.44,2.08,1.54-.1,2.6-1.13,3.43-2.34,1.22-1.8,2.28-3.73,3.41-5.59,2.09-3.44,4.56-6.86,5.84-10.71,1.13-3.38,.85-7.03-1.27-9.95-2-2.76-4.95-4.6-7.91-6.18-3.46-1.85-7.13-3.36-10.89-4.47-1.8-.53-3.63-.95-5.46-1.33-.67-.14-1.39-.14-1.68-.8-.39-.88-.23-2.5-.3-3.46-.6-8.29-.96-16.63-1.83-24.89-.33-3.17-.91-6.49-2.72-9.19s-4.63-4.5-7.82-5.12-6.66-.31-9.96,.25-6.68,1.08-8.79,3.72c-2.49,3.14-1.87,7.43-1.62,11.15,.33,4.79,.63,9.59,.92,14.38,.59,9.7,1.15,19.4,1.84,29.1,.19,2.66,4.36,2.68,4.17,0h0Z"/>
      </g>
      <g>
        <path class="cls-19" d="M627.39,130.81c.94-6.2,.75-12.81-2.14-18.38-.7-1.36-1.6-2.67-2.89-3.5-1.29-.83-2.86-1.09-4.39-1.17-3.85-.2-7.75,.64-11.17,2.42,2.58-.71,5.4,.11,7.62,1.62s3.92,3.64,5.53,5.79c2.74,3.67,5.05,8.27,7.36,12.23l.09,.99Z"/>
        <path class="cls-3" d="M629.4,131.36c1.04-7.05,.99-15.22-3.16-21.36-.99-1.46-2.21-2.67-3.84-3.39-1.71-.75-3.61-.95-5.46-.96-3.91-.02-7.72,.97-11.19,2.74-2.16,1.1-.63,4.36,1.61,3.81,4.5-1.11,8.15,2.93,10.56,6.14,2.94,3.92,5.14,8.31,7.59,12.53l-.28-1.05,.09,.99c.1,1.12,.89,2.08,2.08,2.08,1.05,0,2.18-.96,2.08-2.08-.03-.31-.05-.62-.08-.93-.08-.78-.41-1.31-.78-1.96-.78-1.36-1.53-2.73-2.3-4.1-1.5-2.66-3.06-5.29-4.9-7.73-3.61-4.77-8.64-9.51-15.15-7.9l1.61,3.81c2.75-1.4,5.79-2.15,8.88-2.17,1.29,0,2.71,.02,3.91,.55s1.94,1.56,2.55,2.65c2.9,5.16,3.03,11.52,2.18,17.24-.16,1.11,.28,2.24,1.46,2.56,.98,.27,2.4-.34,2.56-1.46Z"/>
      </g>
      <g>
        <path class="cls-19" d="M628.47,129.82c1.28-5.78,3.69-12.31,7.28-17.01,1.84-2.4,4.3-4.76,7.32-4.79,2.67-.03,4.98,1.77,6.92,3.6,3.19,3.01,6.27,6.98,5.62,11.32-3.23-3.18-7.03-6.45-11.56-6.44-5.19,0-9.29,4.27-12.49,8.36-1.59,2.03-2.49,3.62-3.1,6.13v-1.17Z"/>
        <path class="cls-3" d="M630.48,130.37c.81-3.59,1.9-7.15,3.48-10.48,1.47-3.11,3.37-6.62,6.23-8.68,3.31-2.38,6.33-.08,8.81,2.35s4.99,5.6,4.53,9.39l3.56-1.47c-2.51-2.46-5.21-4.84-8.51-6.16s-6.68-1.09-9.81,.36c-2.91,1.34-5.31,3.69-7.36,6.1-2.22,2.62-4.08,5.29-4.94,8.66l4.09,.55v-1.17c0-2.68-4.17-2.69-4.17,0v1.17c0,2.33,3.5,2.86,4.09,.55,.66-2.59,2.03-4.63,3.73-6.66s3.59-3.99,5.94-5.26c5.39-2.89,10.26,1.14,13.99,4.79,1.4,1.38,3.35,.24,3.56-1.47,.58-4.76-2.38-8.99-5.6-12.18s-7.48-6.12-12.18-4.15c-4.02,1.69-6.79,5.84-8.76,9.56-2.17,4.11-3.68,8.56-4.7,13.09-.59,2.61,3.43,3.73,4.02,1.11Z"/>
      </g>
      <g>
        <path class="cls-15" d="M671.11,219.08c-11.47-6.07-21.55-14.45-31.31-23.01-2.41-2.11-4.81-4.24-6.96-6.61-4.11-4.52-7.25-9.83-10.36-15.1-3.88-6.58-7.86-13.44-8.51-21.05-11.8,16.57-25.49,31.79-40.72,45.28l-.06-.71c-.34-6.16-2.58-12.33-6.85-16.78-3-3.13-7.05-5.31-11.3-5.98-1.8-.29-3.64-.31-5.45,0-5.49,.91-10.28,4.57-13.35,9.22-3.06,4.64-4.52,10.19-5.05,15.73-.28,2.96-.3,6,.58,8.84,.81,2.61,2.34,4.93,3.98,7.13,4.2,5.64,9.67,10.46,15.26,14.73l.31,1.09c-.42,7.04,1.96,14.01,5.52,20.1,3.56,6.08,8.27,11.4,12.94,16.68,4.37,4.93,8.8,9.91,14.27,13.58,3.53,2.36,7.42,4.13,11.32,5.79,11.69,4.97,23.99,9.15,36.69,9.43,12.7,.27,25.97-3.82,34.51-13.24,7.1-7.84,10.25-18.39,15.64-27.49,6.55-11.05,16.48-20.9,26.08-29.44-.97,.11-1.93,.18-2.89,.23-11.92,.66-23.67-2.78-34.29-8.4Z"/>
        <path class="cls-10" d="M672.16,217.28c-10.13-5.41-19.14-12.52-27.8-20-4.43-3.82-8.96-7.61-12.54-12.27s-6.25-9.43-9.07-14.31c-3.11-5.39-6.08-11.09-6.7-17.38-.21-2.1-2.65-2.78-3.88-1.05-11.73,16.42-25.31,31.46-40.39,44.86l3.56,1.47c-.64-7.2-2.62-14.14-7.92-19.37s-13.59-7.9-20.9-5.5-12.3,8.42-14.98,15.33c-2.78,7.18-4.07,16.52-.45,23.59,4.14,8.11,11.78,14.46,18.87,19.91l-.96-1.25c.33,1.17,.16,2.3,.22,3.54,.1,1.98,.38,3.97,.82,5.91,.84,3.71,2.3,7.3,4.1,10.65,3.61,6.73,8.71,12.53,13.74,18.22s10.3,11.57,16.99,15.55c6.8,4.05,14.55,6.95,22.03,9.47,14.02,4.73,29.47,6.96,43.77,2.05,6.22-2.13,12.05-5.52,16.64-10.27,5.07-5.26,8.3-11.87,11.41-18.39,3.57-7.49,7.52-14.51,12.83-20.92,5.51-6.66,11.77-12.66,18.21-18.4,1.28-1.14,.33-3.75-1.47-3.56-12.62,1.32-24.99-2.04-36.13-7.88-2.37-1.25-4.48,2.35-2.1,3.6,11.74,6.16,24.9,9.84,38.23,8.45l-1.47-3.56c-8.09,7.21-15.88,14.84-22.28,23.62-3.07,4.22-5.63,8.71-7.91,13.4s-4.38,9.45-7.1,13.89c-5.18,8.44-13.01,14.13-22.53,16.81-10.25,2.88-21.01,2.09-31.23-.54-5.54-1.42-10.95-3.34-16.25-5.49s-10.73-4.41-15.43-7.77-8.18-7.32-11.81-11.39-7.39-8.23-10.6-12.73c-3.2-4.5-5.91-9.38-7.33-14.75-.67-2.54-1.03-5.14-1-7.77,.01-.94,.02-1.71-.27-2.6-.39-1.2-1.33-1.71-2.28-2.47-4.3-3.39-8.41-7.07-11.91-11.29-1.64-1.98-3.21-4.1-4.35-6.41-1.28-2.61-1.55-5.44-1.42-8.31,.45-9.66,4.61-21.14,14.74-24.3,10.51-3.28,19.89,5.28,22.41,14.94,.52,1.98,.71,3.95,.89,5.98,.16,1.82,2.15,2.72,3.56,1.47,15.35-13.64,29.1-28.99,41.04-45.71l-3.88-1.05c.57,5.83,2.73,11.18,5.49,16.3s5.81,10.35,9.18,15.19c3.54,5.1,7.83,9.28,12.49,13.35s9.01,7.75,13.73,11.38c5.47,4.21,11.2,8.08,17.29,11.34,2.37,1.26,4.47-2.33,2.1-3.6Z"/>
      </g>
      <g>
        <path class="cls-19" d="M717.32,193.62c-.93-5.21-3.13-10.09-5.3-14.91-1.6-3.55-3.23-7.15-5.64-10.21-2.33-2.96-13.58-14.66-16.54-17-11.54-9.16-14.86-9.02-27.63-16.37-4.92-2.83-10.07-5.4-15.64-6.51s-10.91-1.76-15.75,1.2l-.72,.84c-3.48-3.85-8.92-3.03-14.11-2.94-6.15,.1-12.3,.71-18.35,1.81-2.37,.43-4.26,1.48-6.43,2.52-2.09,1-4.42,1.91-6.23,3.36-6.4,5.12-10.52,8.6-16,14.7-5.48,6.1-10.1,17.17-12.5,25.01h0c4.25,.67,6.87,2.87,9.87,6,4.27,4.45,6.51,10.62,6.85,16.78l.06,.71c15.22-13.49,28.91-28.72,40.72-45.28,.66,7.61,4.63,14.47,8.51,21.05,3.11,5.27,6.25,10.57,10.36,15.1,2.15,2.37,4.55,4.5,6.96,6.61,9.76,8.56,19.84,16.94,31.31,23.01,10.62,5.62,22.37,9.05,34.29,8.4l5.24-1.41c3.53-2.09,4.99-6.26,6.13-10.2,1.14-3.94,1.23-8.1,1.23-12.19,0-3.36-.08-6.75-.67-10.06Z"/>
        <path class="cls-3" d="M719.33,193.07c-.98-5.19-3.09-10.03-5.25-14.83-1.84-4.08-3.7-8.16-6.57-11.64-3.8-4.6-8.12-8.86-12.37-13.04-4.72-4.63-10.11-8.61-15.9-11.82-2.86-1.58-5.82-2.98-8.72-4.47-4.32-2.22-8.46-4.81-12.83-6.92-5.03-2.43-10.26-3.98-15.83-4.58-4.33-.47-10.19-.13-13.23,3.41h2.95c-4.61-4.8-11.95-3.71-17.98-3.48-7.35,.28-15.41,.66-22.12,3.9-3.17,1.53-6.18,2.89-8.94,5.11-2.57,2.07-5.13,4.16-7.57,6.38-4.59,4.16-8.94,8.67-12.13,14.02-3.6,6.06-6.29,12.73-8.38,19.45-.31,1,.37,2.37,1.46,2.56,4.76,.84,8.63,4.36,11.22,8.32s3.61,8.45,4.03,13.16c.16,1.82,2.15,2.72,3.56,1.47,15.35-13.64,29.1-28.99,41.04-45.71l-3.88-1.05c.57,5.83,2.73,11.18,5.49,16.3,2.84,5.28,5.91,10.54,9.36,15.45s7.73,9.1,12.31,13.09c4.55,3.98,9.17,7.89,13.98,11.57,9.52,7.3,19.93,13.66,31.48,17.15,8.33,2.51,18.25,4.32,26.67,1.2,4.95-1.84,7.11-8.93,8.07-13.54,.72-3.46,.84-7.02,.84-10.54s-.13-7.31-.74-10.93c-.45-2.64-4.46-1.52-4.02,1.11,.49,2.92,.58,5.88,.59,8.83,.02,2.93,.02,5.9-.4,8.8-.36,2.45-1.05,4.9-1.97,7.2-.69,1.73-1.85,4.08-3.5,5.03-.81,.46-2.25,.64-3.22,.9-1.4,.38-2.45,.52-3.92,.53-5.55,.04-11.05-.81-16.38-2.34-10.64-3.05-20.28-8.74-29.13-15.29-4.41-3.26-8.63-6.77-12.78-10.35s-8.6-7.28-12.13-11.66c-3.88-4.81-6.96-10.3-10.02-15.65-2.99-5.23-5.8-10.77-6.4-16.86-.21-2.1-2.65-2.78-3.88-1.05-11.73,16.42-25.31,31.46-40.39,44.86l3.56,1.47c-.5-5.61-1.66-11-4.91-15.72s-7.76-8.78-13.4-9.77l1.46,2.56c1.66-5.37,3.74-10.64,6.37-15.62,2.77-5.24,6.33-9.54,10.57-13.66,2.02-1.97,4.13-3.83,6.29-5.64,2.41-2.01,4.76-4.12,7.6-5.52s5.59-2.99,8.59-3.63c3.58-.77,7.28-1.15,10.92-1.44s7.47-.4,11.21-.47c3.12-.06,6.31,.07,8.6,2.45,.74,.77,2.22,.84,2.95,0,2.43-2.82,7.51-2.56,10.86-2.12,4.81,.63,9.37,2.08,13.71,4.22,4.03,1.99,7.85,4.36,11.84,6.43,2.81,1.45,5.68,2.81,8.46,4.32,10.64,5.75,19.02,14.31,26.98,23.28,2.73,3.08,4.58,6.67,6.28,10.39,2.29,5.02,4.57,10.07,5.6,15.53,.5,2.63,4.52,1.52,4.02-1.11Z"/>
      </g>
      <path class="cls-21" d="M549.83,214.33c-2.82-3.89-6.04-7.83-5.88-12.63,.08-2.5,.49-5.03,1.64-7.26,1.2-2.33,3.21-4.24,5.59-5.32,.58-.26,1.22-.49,1.85-.38,.73,.12,2.13,.44,2.67,.95,2.4,2.26,4.03,5.18,4.09,8.48,.07,3.33-2.31,6.16-4.66,8.53s-4.73,4.36-5.3,7.64"/>
      <g>
        <path class="cls-19" d="M636.69,200.25c-4.16-4.41-9.43-9.2-14.9-11.79s-11.9-3.58-17.67-1.72c2.13,.59,4.38,.52,6.57,.81,4.67,.61,7.33,2.78,11.08,5.63,3.75,2.85,7.92,7.66,11.11,11.11,.95-.55,3.36-3.03,3.81-4.04"/>
        <path class="cls-3" d="M638.16,198.77c-8.85-9.34-21.03-18.2-34.6-14.05-1.91,.58-2.06,3.51,0,4.02,2.98,.74,6.11,.46,9.06,1.32,2.48,.73,4.59,2.25,6.63,3.79,4.56,3.44,8.29,7.72,12.15,11.9,.6,.65,1.78,.81,2.53,.33,1.74-1.12,3.6-2.94,4.56-4.79,1.23-2.38-2.36-4.49-3.6-2.1-.63,1.23-1.91,2.55-3.06,3.29l2.53,.33c-4.12-4.47-8.13-8.88-13-12.55-2.16-1.63-4.37-3.1-6.94-3.99-3.16-1.09-6.53-.74-9.74-1.54v4.02c12.08-3.7,22.74,4.74,30.54,12.98,1.85,1.95,4.79-1,2.95-2.95h0Z"/>
      </g>
      <g>
        <path class="cls-19" d="M687.13,238.2c-3.84-6-8.4-10.02-15.47-12.77-1.15-.45-2.42-.84-3.62-.52-1.69,.46-2.59,2.33-3.22,3.81v1.05c4.35,0,8.62,1.41,12.33,3.44,3.71,2.03,7.9,4.5,11.14,7.1l-1.17-2.11Z"/>
        <path class="cls-3" d="M688.93,237.15c-3.23-5-7.4-9.21-12.72-11.96-2.8-1.44-6.67-3.54-9.78-1.87-1.31,.71-2.25,1.95-2.91,3.25-.55,1.09-.78,2-.78,3.19s.95,2.07,2.08,2.08c4.13,.05,8.03,1.37,11.63,3.35s7.17,4.04,10.37,6.59c1.77,1.4,4.5-.32,3.27-2.53-.39-.7-.78-1.41-1.17-2.11-1.3-2.34-4.91-.24-3.6,2.1,.39,.7,.78,1.41,1.17,2.11l3.27-2.53c-3.6-2.85-7.53-5.25-11.57-7.43s-8.66-3.66-13.38-3.72l2.08,2.08v-1.05l-.28,1.05c.36-.83,.72-1.81,1.37-2.46,.72-.71,1.66-.39,2.53-.09,2.14,.73,4.2,1.81,6.1,3.02,3.58,2.29,6.41,5.46,8.7,9.01,1.45,2.25,5.06,.16,3.6-2.1Z"/>
      </g>
      <path d="M594.09,214.41c-.88,6,2.14,11.58,7.04,14.96,2.46,1.7,5.38,2.79,8.29,3.41s6.54,1.19,9.56,.22c2.54-.82,1.46-4.84-1.11-4.02-2.3,.74-5.02,.27-7.34-.22s-4.63-1.29-6.68-2.58c-3.48-2.19-6.37-6.37-5.74-10.66,.16-1.11-.28-2.24-1.46-2.56-.98-.27-2.4,.34-2.56,1.46h0Z"/>
      <path d="M642.81,249.24c.48,2.53,1.04,5.11,2.48,7.3s3.32,3.79,5.47,5.1c4.57,2.77,10.1,3.97,15.41,3.47,1.12-.11,2.08-.88,2.08-2.08,0-1.05-.96-2.19-2.08-2.08-4.51,.42-9.07-.43-13.01-2.72-1.64-.95-3.22-2.17-4.27-3.77-1.24-1.89-1.64-4.12-2.06-6.3-.21-1.11-1.54-1.74-2.56-1.46-1.16,.32-1.67,1.45-1.46,2.56h0Z"/>
      <path d="M601.79,262.78c.68,4.96,4.13,9.34,8.59,11.51,4.1,2,10.79,3.37,14.3-.46,1.81-1.97-1.13-4.93-2.95-2.95-1.09,1.19-2.77,1.21-4.27,1.11-1.92-.13-3.85-.68-5.55-1.6-3.35-1.81-5.59-4.95-6.11-8.73-.15-1.12-1.58-1.73-2.56-1.46-1.2,.33-1.61,1.44-1.46,2.56h0Z"/>
      <path class="cls-16" d="M627.89,171.17s32.09,47.69,78.27,50.82c0,0,6.5,1.47,6.89-16.45,0,0-5.17,9.86-17.67,2.92,0,0-40.54-17.62-67.5-37.29Z"/>
      <path class="cls-10" d="M585.04,321.91s9.63,10.88,26.3,9.49c0,0,1.39-5.56,6.95-8.34,0,0-15.1,6.03-33.25-1.15Z"/>
      <path class="cls-24" d="M561.07,265.96s.27,15.43,1.65,19.6c0,0,2.78,1.39,5.56,1.39,0,0-7.48-16.97-7.21-20.99Z"/>
      <g class="cls-8">
        <path class="cls-13" d="M637.26,264.5c.9-.24,2.07-.7,2.89-.8l-1.05-.28,.16,.08-1.03-1.8c.03,.33-.46,1.1-.47,1.66-.03,1.17,.83,2.1,1.95,2.29,.75,.13,1.55-.07,2.29-.16,.38-.04,.77-.09,1.15-.11,.22-.01,.44-.02,.66-.02,.48,.04,.44,0-.11-.13l-1.03-1.8,.02,.17,.28-1.05c-.25,.57-.6,1.11-.9,1.65-.75,1.35,.19,3.17,1.8,3.14,.69-.02,1.46-.12,2.15-.03l-1.47-.61,.09,.11-.61-1.47v.16c.09-.35,.18-.7,.28-1.05,.16-.31-.35,.41-.4,.5-.21,.37-.3,.84-.3,1.26,0,.79,.46,1.53,1.1,1.97,.6,.41,1.2,.52,1.92,.54,.29,0,.59,0,.88,0h.29c.41,.06,.39,.02-.05-.09l-.96-1.25c.03-.23,.05-.18,.06,.14,0,.13,.03,.26,.07,.38,.07,.28,.19,.54,.35,.78,.31,.48,.77,.87,1.27,1.13s1.04,.38,1.6,.43c.24,.02,.47,.01,.71,.01h.3c.52,.05,.41-.06-.35-.33l-.61-1.47c.13,1.04,.4,1.87,1.34,2.46,.67,.43,1.44,.4,2.11,.58,2.6,.69,3.7-3.33,1.11-4.02-.35-.09-.74-.17-1.1-.18-.64-.01,.33,.28-.11-.05l.75,.75,.07,.45-.07-.55c-.1-.36-.32-.71-.59-.98-.35-.36-.79-.56-1.26-.7-.51-.14-1.05-.14-1.58-.14-.1,0-.53-.05-.59,0,.21-.17,.54,.64,.45,.48,.53,.93,.24,.12,.15-.2-.09-.29-.23-.57-.41-.81-.38-.49-.91-.77-1.5-.9-.46-.1-.96-.11-1.43-.12-.24,0-.49,0-.73,0-.13,0-.49-.1-.25-.02l.92,.54,.05,.09,.28,1.05v-.21c-.08,.35-.18,.7-.27,1.05,.66-.87,1.04-2.22-.01-3.29-.9-.91-2.47-.61-3.62-.58l1.8,3.14c.45-.81,1.17-1.74,1.19-2.7,.02-1.09-.71-2.02-1.75-2.29-1.71-.45-3.42,.29-5.12,.2l1.47,.61-.14-.11,.61,1.47c-.19,.71-.16,.73,.09,.05,.07-.17,.14-.34,.19-.52,.1-.34,.2-.74,.2-1.09,0-1-.51-1.85-1.46-2.21-.86-.33-1.68-.05-2.53,.18l-2.27,.6c-2.59,.68-1.49,4.7,1.11,4.02h0Z"/>
      </g>
      <g class="cls-8">
        <path class="cls-13" d="M588.76,231.42l4.79,.03-1.8-3.14c-.58,1.31-1.29,2.35-2.31,3.31-1.25,1.18-.35,3.7,1.47,3.56,.99-.08,1.98-.15,2.98-.23,.47-.04,.94-.07,1.41-.11,.21-.02,.42-.03,.63-.05,.14-.01,.28-.02,.41-.03,.28,0,.14-.04-.42-.11l-.75-.75c-.12-.24-.14-.47-.07-.7-.03,.13-.07,.26-.12,.39-.09,.26-.17,.5-.22,.78-.17,.98,.02,1.99,.76,2.7,1.19,1.14,3.41,1.05,4.94,.97l-2.01-1.53c-.03-.17,.3-1.18-.03-.75-.12,.16-.21,.42-.28,.6-.19,.47-.26,.95-.2,1.46,.13,1.01,.77,1.82,1.63,2.34,1.44,.88,3.39,1.08,5.02,1.23,1.12,.1,2.08-1.03,2.08-2.08,0-1.21-.96-1.98-2.08-2.08-.47-.04-.93-.11-1.39-.21-.42-.09-1.27-.4-1.5-.41,.12,.04,.08,0-.13-.1,.36,.21,.47,.52,.33,.93,.01,.94,.04,.59,.25,.17,.38-.75,.45-1.38,.31-2.21s-1.16-1.58-2.01-1.53c-.59,.03-1.16,.03-1.75,0-.21-.01-.4-.05-.6-.07-.75-.2-.51,.3,.7,1.49l.05-.2c.51-1.09,.54-2.53-.26-3.49-1-1.2-2.39-.99-3.78-.89-1.3,.1-2.61,.2-3.91,.3l1.47,3.56c1.24-1.18,2.27-2.59,2.96-4.15,.62-1.4-.09-3.12-1.8-3.14l-4.79-.03c-2.68-.02-2.69,4.15,0,4.17h0Z"/>
      </g>
    </g>
  </g>
</svg>