<?xml version="1.0" encoding="UTF-8"?>
<svg id="drive" xmlns="http://www.w3.org/2000/svg" viewBox="0 0 1000 1000">
  <defs>
    <style>
      .cls-1 {
        fill: #56a7ff;
      }

      .cls-2 {
        fill: #fff;
      }

      .cls-3 {
        fill: #d4b6aa;
      }

      .cls-4 {
        fill: #9ddafe;
        stroke-width: 2px;
      }

      .cls-4, .cls-5 {
        stroke: #000626;
        stroke-miterlimit: 10;
      }

      .cls-6 {
        font-family: FreeSansBold, FreeSans;
        font-size: 150px;
      }

      .cls-7 {
        fill: #ffb683;
      }

      .cls-8 {
        fill: #f47a8d;
      }

      .cls-9 {
        fill: #2f78bd;
      }

      .cls-10 {
        fill: #f2ab3c;
      }

      .cls-5 {
        fill: #95b6ff;
        stroke-width: 5px;
      }

      .cls-11 {
        fill: #d0dff3;
      }

      .cls-12 {
        fill: #5d517c;
      }

      .cls-13 {
        fill: #000626;
      }

      .cls-14 {
        letter-spacing: -.02em;
      }

      .cls-14, .cls-15, .cls-16 {
        fill: red;
      }

      .cls-17 {
        fill: #75d557;
      }

      .cls-15 {
        letter-spacing: -.02em;
      }

      .cls-18 {
        letter-spacing: -.02em;
      }
    </style>
  </defs>
  <text class="cls-6" transform="translate(354.58 802.72)"><tspan class="cls-18" x="0" y="0">d</tspan><tspan class="cls-14" x="88.65" y="0">i</tspan><tspan class="cls-15" x="126.6" y="0">v</tspan><tspan class="cls-16" x="207.75" y="0">e</tspan></text>
  <g>
    <circle class="cls-5" cx="500.5" cy="343.5" r="311.5"/>
    <g>
      <path class="cls-1" d="M620.31,311.21c-3.23-2.88-3.17-8.3-.68-11.84s6.78-5.42,11.04-6.14,8.62-.46,12.95-.64c11.78-.49,23.4-4.35,33.13-11.01,3.39-2.32,6.85-5.09,10.96-5.26,2.29-.1,4.52,.63,6.72,1.26,14.68,4.18,30.6,3.89,45.12-.82,.71-.23,1.53-.46,2.17-.08,.61,.36,.81,1.14,.85,1.85,.25,4.24-3.34,7.64-6.77,10.13-16.08,11.7-35.3,18.13-54.18,24.38-17.27,5.72-35.48,11.51-53.35,8.11"/>
      <path class="cls-13" d="M621.37,310.15c-2.45-2.29-2.58-6.13-1.07-9,1.76-3.33,5.38-5.18,8.89-6.08,4.39-1.11,8.98-.82,13.46-.95s8.52-.65,12.67-1.6c8.19-1.86,15.96-5.33,22.86-10.12,3.32-2.31,6.86-5.03,11.14-4.53,2.2,.26,4.33,1.07,6.47,1.63s4.31,1.01,6.49,1.38c8.79,1.48,17.76,1.48,26.55,.02,2.26-.37,4.5-.85,6.72-1.42,1.03-.27,2.06-.56,3.09-.87,.5-.15,.99-.32,1.49-.47,.54-.16,.74-.33,.92,.22,.49,1.55-.68,3.63-1.55,4.82-1.12,1.54-2.63,2.82-4.15,3.95-13.74,10.24-30.11,16.36-46.2,21.81-8.68,2.94-17.37,5.93-26.23,8.25s-18.14,3.91-27.4,3.35c-2.3-.14-4.58-.42-6.84-.84-1.89-.35-2.7,2.54-.8,2.89,19.79,3.68,39.36-3.18,57.9-9.36,17.39-5.79,35.03-12.03,50.07-22.77,3.16-2.26,6.44-4.89,7.76-8.69,.59-1.71,.87-4.17-.35-5.67-1.55-1.92-3.93-.82-5.86-.25-9.25,2.75-18.98,3.7-28.59,2.86-4.73-.41-9.42-1.29-13.99-2.59-2.32-.66-4.68-1.42-7.12-1.31-2.1,.09-4.11,.78-5.96,1.74-3.94,2.04-7.36,4.98-11.28,7.1s-8.22,3.88-12.6,5.12-8.86,2.02-13.4,2.27c-4.93,.27-9.9-.11-14.77,.84-3.87,.75-7.82,2.48-10.44,5.52-2.43,2.83-3.52,6.7-2.63,10.36,.42,1.72,1.33,3.28,2.62,4.49,1.41,1.32,3.53-.8,2.12-2.12h0Z"/>
    </g>
    <g>
      <path class="cls-1" d="M627.89,360.46c-2.07-3.79-2.24-8.57-.42-12.49s5.56-6.89,9.8-7.76c3.43-.71,7.01-.09,10.38,.87,11.24,3.2,21.3,10.14,32.82,12.14,8.19,1.42,16.57,.24,24.86-.38,5.14-.38,10.29-.55,15.45-.5,2.49,.02,5.06,.12,7.32,1.17s4.14,3.31,3.99,5.79c-.14,2.31-1.89,4.14-3.21,6.04-5.89,8.48-3.67,20.5,2.12,29.04,.77,1.13,1.64,2.4,1.4,3.75-.15,.88-.77,1.62-1.43,2.23-4.44,4.09-11.21,4.08-17.2,3.34-13.81-1.72-27.29-6.08-39.49-12.77-2.98-1.64-5.91-3.42-8.48-5.65-1.83-1.58-3.46-3.38-5.16-5.09-6.18-6.22-13.36-11.44-21.19-15.39"/>
      <path class="cls-13" d="M629.19,359.7c-1.95-3.7-1.99-8.3,.09-11.96,1.85-3.25,5.15-5.55,8.84-6.17,4.58-.77,9.41,.88,13.65,2.45s8.17,3.44,12.22,5.23,8.06,3.45,12.29,4.58c4.55,1.21,9.25,1.63,13.95,1.55s9.75-.63,14.63-1.01,9.97-.57,14.96-.54c3.53,.02,9.52-.09,10.66,4.31,.5,1.9-.78,3.58-1.85,5.02-1.19,1.61-2.24,3.22-3.01,5.07-3.03,7.26-1.71,15.63,1.6,22.56,.88,1.84,2.01,3.5,3.07,5.23,.58,.94,.93,1.79,.18,2.73-.61,.76-1.49,1.37-2.32,1.86-3.32,1.95-7.38,2.13-11.13,1.9-8.87-.55-17.82-2.82-26.16-5.79-4.32-1.53-8.54-3.34-12.63-5.42s-8.11-4.24-11.52-7.24-6.36-6.46-9.81-9.42-7.08-5.61-10.93-7.96c-1.87-1.14-3.79-2.2-5.74-3.2-1.72-.87-3.24,1.71-1.51,2.59,8.69,4.42,16.15,10.31,22.95,17.27s15.83,11.38,24.83,14.92,18.58,5.98,28.24,7.03c4.05,.44,8.38,.52,12.26-.88,3.66-1.32,8.5-4.52,6.4-9-.92-1.96-2.34-3.68-3.31-5.62s-1.71-3.93-2.25-6c-1.03-3.95-1.27-8.17-.21-12.13,.54-2,1.4-3.86,2.58-5.56s2.6-3.26,3.16-5.28c1.2-4.3-2.19-8-6.07-9.23-2.24-.71-4.66-.74-6.98-.76-2.66-.02-5.31,.02-7.97,.12-5.3,.19-10.57,.73-15.86,1.12s-10.46,.6-15.6-.3c-4.7-.82-9.2-2.46-13.57-4.33s-8.54-3.89-12.91-5.62-9.16-3.41-13.95-3.42c-8.95-.02-16.47,7.59-15.66,16.66,.19,2.17,.81,4.22,1.82,6.14,.9,1.71,3.49,.19,2.59-1.51h0Z"/>
    </g>
    <g>
      <path class="cls-7" d="M560.23,337.02c5.88-3.24,12.52-4.84,18.69-7.47,12.76-5.44,23.25-15.17,35.72-21.24,2.77-1.35,5.69-2.53,8.76-2.72s6.34,.72,8.4,3.01c2.68,2.98,2.71,7.65,1.12,11.33s-4.51,6.6-7.39,9.39c-5.85,5.67-11.83,11.22-18.08,16.46-3.97,3.33-8.08,6.56-12.7,8.89-6.63,3.33-14.04,4.69-21.34,6.01"/>
      <path class="cls-13" d="M560.98,338.32c4.82-2.62,10.1-4.16,15.21-6.08s9.45-4.17,13.88-6.88c8.84-5.41,17.04-12,26.51-16.32,4.21-1.92,10.17-3.41,13.88,.34,3.33,3.36,2.06,8.79-.21,12.34-2.83,4.41-7.2,7.96-10.99,11.52-4.25,3.99-8.58,7.89-13.05,11.64s-9.52,7.58-15.17,9.84-11.94,3.42-18.04,4.52c-1.9,.34-1.09,3.23,.8,2.89,5.8-1.05,11.66-2.11,17.19-4.2s10.23-5.2,14.77-8.83,9.13-7.73,13.52-11.79,8.84-7.81,12.37-12.41c2.98-3.89,4.93-9.09,3.21-13.95s-6.73-7.25-11.68-6.86c-5.51,.43-10.66,3.42-15.32,6.18s-9.39,6.06-14.05,9.14c-5.13,3.39-10.4,6.69-16.11,9.03-6.06,2.49-12.44,4.14-18.23,7.28-1.7,.92-.18,3.51,1.51,2.59h0Z"/>
    </g>
    <g>
      <path class="cls-7" d="M577.55,388.5c13.16-3.31,27.37-2.29,39.93,2.85-1.66-.68-3.31-1.36-4.97-2.05-.68-.28-1.41-.6-1.78-1.23-.56-.96-.07-2.16,.42-3.15,2.06-4.19,4.12-8.39,6.17-12.58,2.21-4.51,4.46-9.07,7.72-12.89,3.88-4.55,10.2-8.03,15.76-5.83,5.51,2.18,7.77,9.05,6.99,14.93-.77,5.87-3.77,11.17-5.9,16.7-3.4,8.83-5.15,19.24-12.8,24.8-5.29,3.85-12.22,4.38-18.75,4.79-10.79,.66-22,1.26-32.04-2.76"/>
      <path class="cls-13" d="M577.95,389.94c12.98-3.21,26.74-2.17,39.13,2.85,1.79,.73,2.56-2.17,.8-2.89-1.51-.62-3.02-1.22-4.52-1.86-.39-.16-1.12-.33-1.33-.73-.32-.62,.58-1.97,.84-2.51,1.38-2.82,2.77-5.64,4.15-8.46,2.6-5.29,5-10.93,8.79-15.5,2.99-3.6,7.82-7.17,12.79-6.3,4.54,.79,7.01,5.06,7.67,9.3,.83,5.3-1.36,10.53-3.43,15.3s-3.74,9.57-5.4,14.47c-1.51,4.44-3.22,9.06-6.38,12.62-3.56,4.01-8.52,5.74-13.71,6.48-3.07,.44-6.17,.58-9.26,.76-3.32,.19-6.65,.35-9.98,.34-6.62-.02-13.21-.74-19.41-3.18-1.8-.71-2.58,2.19-.8,2.89,6.14,2.41,12.74,3.2,19.3,3.28s12.96-.22,19.32-.99c5.81-.71,11.56-2.33,15.81-6.57,3.79-3.77,5.9-8.82,7.64-13.78,.9-2.58,1.7-5.19,2.61-7.76,1.04-2.96,2.34-5.8,3.56-8.69,2.26-5.34,4.1-10.97,2.87-16.81-1.02-4.8-4.24-9.35-9.24-10.48-5.6-1.26-11.24,1.84-15.01,5.8-5.03,5.28-7.9,12.37-11.07,18.82-.92,1.88-1.85,3.76-2.77,5.64-.74,1.5-1.87,3.19-1.93,4.92s.97,2.87,2.42,3.54c1.85,.86,3.78,1.57,5.67,2.34l.8-2.89c-12.87-5.21-27.26-6.18-40.72-2.85-1.87,.46-1.08,3.36,.8,2.89h0Z"/>
    </g>
    <g>
      <path class="cls-17" d="M506.35,357.84c.41-3.41,2.52-6.44,5.17-8.63s5.81-3.65,8.96-5.02c8.8-3.82,17.92-7.17,25.73-12.73,2.21-1.58,4.47-3.39,7.18-3.64,2.55-.24,5,.96,7.16,2.33,10.67,6.75,18.08,18.91,17.84,31.54-.02,.86-.08,1.76-.48,2.52-.4,.75-1.1,1.29-1.8,1.78-4.74,3.3-10.32,5.12-15.65,7.35s-10.67,5.04-14.11,9.69c9.47-7.15,22.21-7.89,34.07-7.56,.83,.02,1.71,.07,2.4,.52,.89,.59,1.24,1.7,1.5,2.73,2.99,11.58,2.79,23.96-.58,35.43-.16,.54-.35,1.11-.79,1.46-.53,.42-1.27,.41-1.94,.37-16.39-.83-32.74-2.48-48.97-4.95"/>
      <path class="cls-13" d="M507.79,358.24c.65-4.65,4.11-7.92,8.02-10.14,4.11-2.34,8.63-3.98,12.98-5.83s8.8-3.83,12.96-6.21c2.09-1.19,4.09-2.51,6.05-3.91,1.78-1.28,3.73-2.77,6.01-2.87s4.44,1.16,6.3,2.36c1.75,1.13,3.4,2.42,4.94,3.83,3.03,2.79,5.6,6.04,7.59,9.65s3.38,7.59,3.97,11.69c.26,1.85,.68,4.36,.16,6.18-.3,1.05-1.29,1.61-2.15,2.18-1.05,.69-2.14,1.31-3.26,1.88-9.07,4.68-19.82,6.61-26.31,15.19-.89,1.18,.88,2.93,2.05,2.05,5.88-4.38,13.01-6.34,20.22-7.03,3.67-.35,7.37-.42,11.06-.36,.88,.01,1.78-.02,2.66,.08,1.03,.11,1.4,.66,1.69,1.6,.58,1.92,.96,3.93,1.3,5.91,1.39,8.18,1.18,16.68-.6,24.79-.21,.97-.45,1.94-.71,2.9-.17,.65-.27,1.98-.9,2.27-.67,.31-2.05-.05-2.79-.09-1.15-.06-2.29-.13-3.44-.2-4.42-.27-8.84-.61-13.26-1-10-.89-19.98-2.09-29.91-3.6-1.89-.29-2.7,2.6-.8,2.89,9.71,1.47,19.46,2.67,29.23,3.57,4.9,.45,9.81,.83,14.73,1.13,1.15,.07,2.29,.14,3.44,.2s2.29,.25,3.39,.03c2.13-.41,2.63-2.36,3.12-4.19,2.38-8.78,2.95-18.02,1.73-27.04-.31-2.27-.72-4.52-1.25-6.75-.44-1.82-.9-3.84-2.65-4.84s-4.13-.67-6.02-.69c-2.05-.02-4.1,0-6.15,.1-9,.42-18.25,2.23-25.62,7.72l2.05,2.05c6.11-8.08,17.13-9.83,25.63-14.32,1.95-1.03,4.51-2.27,5.75-4.18s.95-4.76,.76-6.98c-.39-4.41-1.61-8.67-3.51-12.66s-4.51-7.66-7.59-10.82-6.94-6.34-11.16-7.88c-2.39-.87-4.87-.82-7.21,.19s-4.12,2.57-6.13,3.92c-4.35,2.92-9.07,5.22-13.85,7.32-5.2,2.29-10.67,4.19-15.66,6.94-4.66,2.57-9,6.62-9.77,12.15-.26,1.89,2.63,2.7,2.89,.8h0Z"/>
    </g>
    <g>
      <path class="cls-17" d="M500.64,364.86c.13-1.65,.28-3.35,1.04-4.82s2.29-2.67,3.94-2.52c.79,.07,1.53,.44,2.22,.82,13.73,7.5,22,22.4,25.91,37.55,1.34,5.2,2.26,10.56,1.95,15.91-.06,1.07-.23,2.25-1.03,2.96-1.36,1.19-3.46,.31-5.02-.61-2.44-1.44-4.87-2.88-7.31-4.33"/>
      <path class="cls-13" d="M502.14,364.86c.17-2.01,.74-6.64,3.86-5.74,1.12,.32,2.24,1.14,3.22,1.76,1.12,.7,2.2,1.45,3.25,2.26,4.08,3.16,7.55,7.09,10.41,11.38s5.25,9.13,7.05,14.06c2,5.47,3.59,11.27,4.15,17.08,.17,1.72,.23,3.46,.18,5.19-.04,1.32,.06,3.29-1.79,2.9-1.51-.31-2.9-1.41-4.2-2.18-1.72-1.02-3.44-2.04-5.16-3.05s-3.18,1.61-1.51,2.59,3.44,2.04,5.16,3.05c1.55,.92,3.13,2.05,4.91,2.48,1.31,.32,2.67,.23,3.77-.6,1.35-1.02,1.67-2.66,1.78-4.25,.49-7.21-1.28-14.65-3.51-21.46-3.83-11.67-10.32-22.82-20.31-30.23-1.42-1.05-2.9-2.02-4.45-2.88s-3.04-1.51-4.75-1.08c-3.93,1-4.76,5.26-5.05,8.71-.16,1.92,2.84,1.91,3,0h0Z"/>
    </g>
    <g>
      <path class="cls-7" d="M332.9,348.37c-3.08-.7-6.28,1.37-7.81,4.14s-1.74,6.06-1.7,9.22c.03,2.29,.18,4.61,.87,6.8,1.21,3.87,4.16,7.16,7.86,8.8s8.12,1.6,11.8-.11"/>
      <path class="cls-13" d="M333.3,346.92c-3.47-.66-6.73,.98-8.8,3.75-2.29,3.07-2.64,7.13-2.61,10.83s.51,7.77,2.63,11.1c1.81,2.85,4.46,5.07,7.59,6.32,4.07,1.63,8.61,1.34,12.57-.43,1.76-.79,.24-3.37-1.51-2.59-6.87,3.06-15.2-.6-17.46-7.79-.63-2-.77-4.09-.81-6.17-.03-1.96,0-3.94,.44-5.86,.74-3.2,3.37-7.01,7.16-6.28,1.89,.36,2.69-2.53,.8-2.89h0Z"/>
    </g>
    <g>
      <path class="cls-7" d="M421.55,403.29c2.18,5.33,6.79,9.3,11.71,12.29,9.12,5.55,19.7,8.41,30.33,9.44s21.36,.28,31.96-.95c9.71-1.13,19.49-2.72,28.43-6.67,.8-.35,1.63-.75,2.16-1.44,.7-.9,.78-2.13,.83-3.27,.25-5.56,.49-11.19-.63-16.64-1.64-7.97-6.07-15.04-10.58-21.81-3.85-5.77-8.69-12-15.59-12.71-2.63-.27-5.26,.32-7.85,.81-14.48,2.73-29.54,2.36-43.87-1.1"/>
      <path class="cls-13" d="M420.1,403.69c2.73,6.49,8.3,10.96,14.32,14.31,6.72,3.74,14.15,6.15,21.71,7.51,8.14,1.45,16.44,1.73,24.69,1.34s16.54-1.28,24.69-2.66c3.91-.66,7.8-1.5,11.6-2.66,1.89-.57,3.77-1.23,5.6-1.97,1.56-.63,3.39-1.21,4.51-2.54s1.22-3.13,1.29-4.81c.09-2.07,.18-4.14,.19-6.21,.02-4.05-.27-8.14-1.29-12.08-1.93-7.46-6.09-14.1-10.33-20.44-3.5-5.23-7.71-10.93-13.99-12.89-3.7-1.15-7.44-.4-11.14,.3-4.07,.77-8.19,1.28-12.33,1.54-8.24,.52-16.56,.08-24.69-1.37-2.03-.36-4.04-.79-6.05-1.27-1.88-.45-2.68,2.44-.8,2.89,15.19,3.63,30.73,3.72,46.04,.83,3.48-.66,6.89-.92,10.13,.77,2.64,1.38,4.79,3.51,6.67,5.79,2.05,2.47,3.79,5.19,5.53,7.89,2.01,3.11,3.92,6.3,5.49,9.66s2.66,6.68,3.24,10.22c.64,3.95,.58,7.99,.44,11.97-.05,1.41,.18,3.41-.38,4.74-.63,1.5-3.21,2.08-4.6,2.61-3.42,1.3-6.95,2.29-10.52,3.08-7.52,1.66-15.23,2.53-22.9,3.17s-16.07,.87-24.06,.06-16.25-2.76-23.66-6.25c-6.5-3.06-13.59-7.43-16.5-14.34-.32-.75-.99-1.27-1.85-1.05-.71,.19-1.36,1.1-1.05,1.85h0Z"/>
    </g>
    <g>
      <g>
        <path class="cls-7" d="M300.96,400.53c-7.01-.02-14.02,.14-21.02,.48-.33,.02-.67,.03-.99,.14-.97,.34-1.46,1.52-1.27,2.53s.91,1.85,1.74,2.46c1.46,1.09,3.28,1.61,5.1,1.78s3.64,.01,5.46-.15c2.8-.24,5.61-.49,8.41-.73"/>
        <path class="cls-13" d="M300.96,399.03c-4.72-.01-9.45,.05-14.17,.2-2.39,.08-4.81,.08-7.19,.3-1.87,.17-3.25,1.42-3.43,3.33-.41,4.22,4.81,6.18,8.15,6.54,2.32,.25,4.67-.04,6.98-.24s4.72-.41,7.08-.62c1.91-.17,1.93-3.17,0-3-3.7,.32-7.42,.78-11.14,.93-1.81,.07-3.68,0-5.38-.68-.94-.38-3.07-1.47-2.69-2.8,.21-.72,1.07-.51,1.68-.53,.91-.04,1.83-.08,2.74-.12,1.9-.08,3.81-.14,5.71-.19,3.88-.1,7.77-.14,11.66-.13,1.93,0,1.93-3,0-3h0Z"/>
      </g>
      <g>
        <path class="cls-7" d="M292.11,408c-4.46,.74-8.96,1.27-13.48,1.58-1.28,.09-2.77,.28-3.44,1.37-.29,.48-.37,1.06-.34,1.62,.1,1.9,1.45,3.68,3.25,4.29,.9,.3,1.86,.33,2.8,.31,6.03-.13,11.84-2.19,17.52-4.22"/>
        <path class="cls-13" d="M291.71,406.55c-4.57,.75-9.14,1.09-13.73,1.58-1.82,.19-3.72,.83-4.38,2.72-.58,1.64-.11,3.57,.85,4.98,2.53,3.69,7.4,3,11.24,2.39,4.52-.73,8.85-2.28,13.14-3.81,1.8-.65,1.03-3.55-.8-2.89-3.47,1.24-6.95,2.48-10.55,3.31-1.8,.41-3.62,.71-5.46,.82-1.54,.09-3.33,.26-4.55-.86-.68-.62-1.74-2.43-.81-3.23,.43-.37,1.29-.4,1.82-.44,.96-.08,1.91-.14,2.87-.23,3.74-.33,7.47-.81,11.17-1.42,1.9-.31,1.09-3.2-.8-2.89h0Z"/>
      </g>
      <g>
        <path class="cls-7" d="M296.37,414.14c-4.68,.56-9.32,1.47-13.87,2.73-1.49,.41-3.19,1.07-3.59,2.56-.21,.77,0,1.59,.2,2.36,.09,.35,.2,.72,.45,.99,.31,.34,.79,.44,1.25,.52,6.89,1.2,13.9-.76,20.55-2.91"/>
        <path class="cls-13" d="M296.37,412.64c-4.39,.54-8.74,1.33-13.03,2.45-1.66,.43-3.52,.86-4.78,2.11-1.42,1.41-1.42,3.36-.84,5.16,.71,2.24,2.67,2.45,4.74,2.66s4.3,.16,6.43-.09c4.41-.52,8.66-1.75,12.87-3.11,1.83-.59,1.05-3.49-.8-2.89-3.35,1.08-6.72,2.1-10.19,2.71-1.65,.29-3.32,.47-4.99,.5-.83,.02-1.66,0-2.49-.06-.63-.04-2.01,.02-2.53-.34-.36-.25-.53-1.59-.38-2.01,.18-.49,.74-.78,1.19-.99,1.31-.6,2.84-.86,4.23-1.2,3.48-.84,7.01-1.49,10.57-1.92,.81-.1,1.49-.62,1.5-1.5,0-.74-.7-1.6-1.5-1.5h0Z"/>
      </g>
      <path class="cls-7" d="M298.17,421.86c-5.02-5.24-5.31-12.64-.7-18.07,.28-.33,.58-.66,1.01-.89,.77-.42,1.86-.46,2.78-.24s1.71,.66,2.43,1.13c1.76,1.15,3.24,2.52,4.37,4.03,.8,1.08,1.43,2.28,1.33,3.5-.09,1.09-.74,2.1-1.42,3.07-1.93,2.78-4.14,5.45-6.59,8"/>
      <g>
        <path class="cls-7" d="M305.35,407.31l-3.57-6.95c-.32-.62-.67-1.27-1.27-1.61-.64-.36-1.43-.29-2.16-.28-3.44,.04-7.01-1.77-8.41-4.91-.36-.81-.52-1.88,.15-2.46,.54-.47,1.35-.37,2.05-.25,5.72,1.01,11.44,2.01,17.17,3.02,2.05,.36,4.16,.74,5.9,1.88,.9,.58,1.71,1.37,2.74,1.66,.66,.19,1.35,.16,2.03,.1,10.4-.89,19.19-8.58,29.54-9.95,.94-.12,1.9-.19,2.82-.01,1.18,.23,2.24,.85,3.28,1.45,2.59,1.52,5.18,3.03,7.76,4.55,1,.58,2,1.18,2.82,1.99,1.61,1.6,2.31,3.88,2.96,6.06,.39,1.32,.75,2.88-.09,3.98-.51,.66-1.34,.98-2.14,1.21-2.32,.66-4.75,.83-7.15,1.03-12.59,1.06-25.08,3.25-37.28,6.52-.48,.13-.98,.27-1.34,.62-.37,.35-.53,.86-.7,1.33-1.49,3.97-5.24,7-9.44,7.6-2.29,.33-4.71,0-6.86,.87-1.07,.43-2,1.13-2.98,1.74-2.96,1.85-6.42,2.88-9.91,2.95-1.21,.03-2.75-.35-2.92-1.54-.15-1.05,.91-1.83,1.84-2.35,2.57-1.45,5.14-2.9,7.71-4.36"/>
        <path class="cls-13" d="M306.64,406.55l-2.68-5.21c-.69-1.35-1.31-3.09-2.7-3.88-1.24-.71-2.65-.38-3.99-.53s-2.76-.67-3.9-1.48c-.55-.39-1.06-.88-1.46-1.42-.2-.27-1.03-1.4-.8-1.78,.05-.08,1.33,.18,1.59,.23,1.14,.2,2.29,.4,3.43,.6,3.76,.66,7.52,1.32,11.28,1.98,1.72,.3,3.48,.53,5.13,1.09s2.74,1.74,4.25,2.43c2.67,1.21,6.37,.1,9.03-.68,6.08-1.78,11.55-5.11,17.5-7.23,2.85-1.02,7-2.57,9.94-1.24,1.59,.72,3.1,1.75,4.61,2.64,1.71,1,3.42,1.98,5.12,3,1.52,.91,2.7,1.89,3.5,3.5,.69,1.39,1.25,3.03,1.51,4.56,.31,1.8-.81,2.09-2.35,2.45-1.78,.42-3.61,.56-5.43,.71-7.45,.63-14.88,1.61-22.23,2.99-3.77,.71-7.52,1.52-11.25,2.43-1.66,.41-3.38,.75-5.01,1.29-1.72,.57-2.19,1.68-2.85,3.21-1.3,2.98-4.04,5.26-7.2,6.03-1.78,.44-3.64,.28-5.45,.5-1.92,.23-3.48,.95-5.09,1.99s-3.27,1.9-5.12,2.46c-1.64,.49-3.65,.98-5.38,.74-.8-.11-.98-.17-.32-.69s1.58-.93,2.34-1.35c2-1.13,4-2.26,6-3.39,1.68-.95,.17-3.54-1.51-2.59-1.86,1.05-3.71,2.1-5.57,3.15-1.53,.86-3.52,1.66-4.38,3.29-.73,1.39-.22,3.06,1.08,3.88,1.4,.88,3.16,.79,4.73,.61,1.87-.21,3.71-.63,5.46-1.32,1.84-.73,3.42-1.75,5.11-2.77s3.53-1.09,5.49-1.19c1.77-.09,3.49-.32,5.14-1,2.93-1.19,5.47-3.39,6.95-6.19,.34-.64,.51-1.64,.97-2.19,.52-.64,2.06-.73,2.86-.94,2.01-.52,4.03-1.01,6.06-1.47,8.29-1.88,16.69-3.26,25.15-4.12,3.85-.39,8.15-.26,11.82-1.64,1.56-.59,2.74-1.68,3-3.38s-.4-3.55-.95-5.17-1.27-3.22-2.4-4.55c-1.29-1.51-3.14-2.44-4.82-3.42-1.87-1.09-3.74-2.19-5.61-3.28s-3.5-2.1-5.6-2.25c-3.53-.25-7.37,1.11-10.6,2.38s-6.41,2.83-9.61,4.25-6.57,2.7-10.06,3.25c-.83,.13-1.77,.31-2.62,.2-.96-.13-1.69-.84-2.46-1.37-1.48-1.02-3.2-1.58-4.95-1.95-4.2-.88-8.46-1.51-12.68-2.25-2.1-.37-4.2-.78-6.31-1.11-1.64-.25-3.48,.02-4.07,1.84-.98,3.04,2.23,6.21,4.65,7.46,1.41,.73,2.94,1.14,4.52,1.27,.65,.05,1.72-.21,2.3,.11,.66,.37,1.09,1.76,1.4,2.37l2.9,5.65c.88,1.72,3.47,.2,2.59-1.51h0Z"/>
      </g>
      <g>
        <path class="cls-7" d="M295.07,403.44c-.14,2.64-.11,5.28,.09,7.92,.07,.91,.16,1.82,.34,2.71,.66,3.27,2.56,6.28,5.23,8.27"/>
        <path class="cls-13" d="M293.57,403.44c-.1,2.04-.12,4.08-.02,6.12,.09,1.92,.2,3.9,.7,5.76,.91,3.36,2.97,6.21,5.72,8.31,.64,.49,1.68,.1,2.05-.54,.45-.77,.11-1.56-.54-2.05-5.44-4.15-5.23-11.42-4.92-17.6,.1-1.93-2.9-1.92-3,0h0Z"/>
      </g>
    </g>
    <g>
      <path class="cls-7" d="M331.53,324.47c-.38,13.89,.85,27.83,3.65,41.44,1.28,6.22,2.93,12.47,6.2,17.92,2.26,3.77,5.24,7.06,8.31,10.21,2.94,3.02,6,5.94,9.38,8.46,11.08,8.28,25.32,11.89,39.12,10.96s27.12-6.22,38.48-14.11c3.49-2.42,6.81-5.1,9.68-8.24,9.73-10.65,13.26-25.48,15.49-39.73,2.24-14.33,3.43-29.47-1.98-42.93-1.92-4.78-4.7-9.29-8.59-12.66-4.55-3.95-10.36-6.12-16.12-7.87-29.63-8.98-63.55-8.15-89.59,8.61-8.07,5.19-15.45,12.12-18.92,21.06"/>
      <path class="cls-13" d="M330.03,324.47c-.41,15.83,.97,32.12,5.01,47.46,.93,3.55,2.13,7.04,3.77,10.33s3.65,5.98,5.93,8.64c4.76,5.53,10.19,10.82,16.32,14.81,11.61,7.56,26.01,10.49,39.71,9.02,14.32-1.53,28.08-7.45,39.5-16.16,5.46-4.16,10.05-9.15,13.44-15.14s5.51-12.31,7.1-18.84,2.76-13.83,3.58-20.81,1.22-14.69,.32-22-2.88-14.31-6.76-20.43-9.41-10.04-16.01-12.69c-6.26-2.51-12.94-4.18-19.54-5.47s-13.59-2.14-20.46-2.38c-13.42-.47-27.04,1.27-39.69,5.85s-24.73,11.57-32.55,22.3c-1.85,2.54-3.34,5.3-4.5,8.22-.71,1.8,2.19,2.58,2.89,.8,4.67-11.81,16.06-19.8,27.11-25.13,11.61-5.6,24.45-8.42,37.29-9,13.04-.59,26.14,1.04,38.72,4.48,6.25,1.71,12.8,3.67,18.01,7.68s8.74,10.57,10.67,17.04c4.04,13.56,2.25,28.23-.15,41.93-2.16,12.33-5.62,25.22-14.17,34.76-4.66,5.19-10.56,9.26-16.61,12.67s-12.24,5.93-18.82,7.61c-13.01,3.31-27.04,2.74-39.45-2.58-6.35-2.72-11.9-6.68-16.87-11.45s-10.01-10.02-12.97-16.45-4.27-13.74-5.44-20.72c-1.28-7.68-2.05-15.44-2.32-23.22-.13-3.71-.14-7.43-.04-11.15,.05-1.93-2.95-1.93-3,0h0Z"/>
    </g>
    <g>
      <path class="cls-10" d="M331.98,329.16c-6.17,1.54-11.62-4.59-13.8-10.56-2.06-5.66-2.72-11.94-1.1-17.74,2.1-7.51,7.68-13.47,13.08-19.1-2.86,5.88-3.11,12.97-.68,19.04,1.26-7.56,3.41-14.98,6.38-22.05,1.37-3.27,2.94-6.5,5.17-9.26,5.4-6.67,13.93-9.8,22.04-12.63,2.55-.89,5.1-1.78,7.65-2.67,4.19-1.46,8.38-2.93,12.67-4.08,6.59-1.76,13.36-2.76,20.14-3.45,11.28-1.15,22.69-1.45,33.8-3.75s22.13-6.81,29.93-15.05c.94,7.33-.24,14.92-3.38,21.6,9.13-3.61,19.42-4.21,28.9-1.69-9.65,8.71-14.73,22.22-13.21,35.13,2.02-4.42,6.79-7.43,11.64-7.36-3.94,4.64-2.83,11.52-2.29,17.58,1.21,13.66-1.76,27.67-8.42,39.66-1.69,3.05-3.69,6.05-6.57,8.03-3.9,2.69-8.97,3.16-13.65,2.4-13.08-2.15-23.79-14.31-24.27-27.56-.05-1.42-.02-2.94-.79-4.14-.61-.95-1.63-1.55-2.63-2.09-19.49-10.58-42.53-12.98-64.64-11.24-5.01,.39-10.17,1.04-14.52,3.56-3.32,1.93-5.96,4.83-8.5,7.71-5.35,6.06-10.71,12.49-12.95,20.25"/>
      <path class="cls-13" d="M331.58,327.72c-7.11,1.61-11.54-7.23-12.96-12.76-1.04-4.02-1.31-8.31-.42-12.39,.8-3.66,2.51-6.99,4.64-10.05,2.45-3.51,5.43-6.62,8.38-9.71l-2.36-1.82c-3,6.32-3.38,13.65-.83,20.19,.47,1.21,2.62,1.62,2.89,0,.97-5.71,2.41-11.34,4.35-16.8,1.82-5.14,3.9-10.62,7.57-14.74,6.65-7.45,17.16-10.15,26.25-13.33,5.54-1.93,11.07-3.93,16.77-5.31s11.41-2.22,17.2-2.82c11.83-1.23,23.81-1.49,35.48-4.02,11.01-2.39,21.89-7.01,29.79-15.26l-2.56-1.06c.87,7.1-.17,14.34-3.17,20.85-.48,1.04,.35,2.73,1.69,2.2,8.96-3.49,18.79-4.12,28.11-1.69l-.66-2.51c-9.92,9.05-15.15,22.84-13.65,36.19,.15,1.31,2.08,2.25,2.8,.76,1.9-3.99,5.9-6.61,10.35-6.61l-1.06-2.56c-5.19,6.34-2.75,14.92-2.5,22.35,.29,8.7-1.11,17.41-4.07,25.6-1.44,3.99-3.25,7.9-5.49,11.51s-5.01,6.39-9.1,7.5c-7.11,1.93-15.06-.75-20.66-5.24s-9.3-10.56-10.49-17.43c-.31-1.82-.22-3.66-.47-5.48-.28-2.02-1.31-3.5-3.02-4.6-3.48-2.23-7.52-3.86-11.37-5.35-16.11-6.24-33.74-7.88-50.89-6.94-4.23,.23-8.53,.48-12.67,1.45s-7.93,2.96-11.12,5.89-5.82,6.13-8.46,9.36-5.12,6.62-6.98,10.35c-.94,1.88-1.72,3.84-2.32,5.85-.55,1.85,2.34,2.65,2.89,.8,2.41-8.11,8.14-14.7,13.71-20.87,2.85-3.16,5.93-6.09,10-7.58s8.32-1.82,12.56-2.11c17.04-1.17,34.51,.14,50.66,6.01,4,1.45,7.92,3.19,11.65,5.25,.8,.45,1.7,.93,2.12,1.8s.36,1.92,.39,2.86c.06,1.73,.27,3.46,.63,5.15,1.45,6.8,5.43,13.08,10.79,17.49s12.79,7.46,20.06,6.87c4.06-.33,7.9-1.77,10.86-4.62s4.84-6.39,6.56-9.92c3.81-7.79,6.16-16.23,6.97-24.86,.4-4.27,.39-8.57,0-12.84-.34-3.72-.95-7.63-.23-11.35,.34-1.74,.98-3.41,2.11-4.79,.79-.96,.33-2.56-1.06-2.56-5.42,0-10.6,3.18-12.94,8.1l2.8,.76c-1.42-12.63,3.37-25.5,12.77-34.07,.84-.76,.4-2.23-.66-2.51-9.79-2.55-20.27-1.99-29.7,1.69l1.69,2.2c3.22-6.99,4.52-14.71,3.58-22.36-.15-1.2-1.58-2.09-2.56-1.06-15.97,16.69-40.92,16.19-62.19,18.31-5.89,.59-11.78,1.39-17.56,2.7s-11.42,3.28-17.03,5.25c-9.28,3.24-19.7,5.96-27.08,12.84-4.5,4.19-7,9.87-9.16,15.52-2.34,6.15-4.06,12.52-5.16,19h2.89c-2.25-5.77-2.14-12.26,.52-17.88,.69-1.46-1.11-3.12-2.36-1.82-5.85,6.11-12.05,12.74-13.84,21.3s.18,18.2,5.96,24.49c2.88,3.14,6.87,5.1,11.16,4.12,1.88-.43,1.09-3.32-.8-2.89h0Z"/>
    </g>
    <g>
      <path class="cls-10" d="M384.37,261.91c-7.02,1.96-13.33,6.36-17.59,12.27s-6.44,13.29-6.08,20.57c.2,3.95,1.5,8.36,5.04,10.1,1.18,.58,2.5,.8,3.81,.95,12.27,1.38,25.09-3.71,33.08-13.13"/>
      <path class="cls-13" d="M383.97,260.46c-13.49,3.85-23.34,15.7-24.67,29.67-.54,5.71,.14,13.7,6.25,16.27,3.05,1.28,6.89,1.25,10.14,1.06s6.53-.78,9.66-1.76c7.06-2.22,13.5-6.34,18.32-11.96,1.25-1.46-.86-3.59-2.12-2.12-7.66,8.93-19.51,13.82-31.25,12.76-3.1-.28-5.55-1.25-6.91-4.19-1.14-2.46-1.31-5.29-1.23-7.96,.19-6.43,2.44-12.82,6.37-17.92s9.83-9.13,16.23-10.95c1.85-.53,1.07-3.42-.8-2.89h0Z"/>
    </g>
    <g>
      <path class="cls-10" d="M447.61,284.23c-.23,4.51-.5,9.07-1.83,13.39s-3.86,8.42-7.72,10.77c-2.81,1.71-6.14,2.39-9.42,2.54-9.17,.44-18.19-3.01-25.87-8.04-2.78-1.82-5.46-3.9-7.32-6.65s-2.78-6.28-1.81-9.46c1.17-3.8,4.68-6.3,7.98-8.52,3.86-2.6,7.8-5.23,12.24-6.62"/>
      <path class="cls-13" d="M446.11,284.23c-.35,6.8-.79,14.36-5.36,19.83s-11.75,5.99-18.22,5.11c-6.96-.95-13.54-3.93-19.35-7.8-4.92-3.28-11.08-9.46-7.36-15.83,1.73-2.97,4.9-4.87,7.68-6.73,3.39-2.26,6.86-4.46,10.76-5.71,1.83-.59,1.05-3.49-.8-2.89-3.86,1.25-7.35,3.29-10.72,5.52-2.88,1.9-6.01,3.81-8.23,6.51-2.36,2.87-3.26,6.4-2.43,10.05s3.25,6.74,6.09,9.11c5.88,4.89,13.31,8.55,20.78,10.18s16.07,1.62,22.04-3.47c6.86-5.85,7.69-15.48,8.13-23.87,.1-1.93-2.9-1.92-3,0h0Z"/>
    </g>
    <g>
      <path class="cls-9" d="M454.56,347.04l-13.82-.37c-.24,0-.48-.01-.71-.09-.79-.27-1.04-1.24-1.18-2.07-.28-1.72-.49-3.72,.72-4.98,.99-1.04,2.58-1.17,4.01-1.22,3.97-.15,7.94-.22,11.92-.2,1.19,0,2.39,.02,3.57,.21,.29,.05,.58,.11,.83,.25,.46,.27,.7,.8,.89,1.3,.48,1.32,.77,2.71,.86,4.11"/>
      <path class="cls-13" d="M454.56,345.54l-12.03-.32c-.47-.01-1.73,.17-1.97-.1-.32-.36-.34-1.48-.38-1.93-.12-1.36-.03-2.71,1.47-3.15s3.41-.29,5.02-.33c1.91-.05,3.83-.08,5.74-.1s3.87-.1,5.77,.09c1.07,.11,1.12,.36,1.42,1.37,.29,.95,.46,1.92,.53,2.91,.14,1.91,3.14,1.93,3,0-.13-1.8-.41-3.87-1.32-5.46s-2.62-1.76-4.31-1.86c-4.1-.24-8.28-.03-12.39,.1-3.14,.1-7.04,.27-7.84,4.05-.55,2.63-.09,7.11,3.27,7.35,4.64,.34,9.35,.26,14,.38,1.93,.05,1.93-2.95,0-3h0Z"/>
    </g>
    <g>
      <path class="cls-7" d="M448.14,350.06c.74-2.21,2.43-3.95,4.07-5.62,2.98-3.02,6.61-6.29,10.82-5.78,3.49,.42,6.13,3.38,7.81,6.47,2.09,3.84,3.22,8.19,3.28,12.56,.06,5.17-1.78,10.85-6.32,13.32-2.83,1.54-6.3,1.58-9.42,.78s-6-2.35-8.84-3.89"/>
      <path class="cls-13" d="M449.58,350.46c.8-2.21,2.61-3.9,4.25-5.52s3.46-3.32,5.64-4.24c4.66-1.96,8.26,1.75,10.27,5.59,2.2,4.2,3.28,9.18,2.75,13.91-.43,3.83-2.17,7.98-5.84,9.73-5.48,2.61-11.59-.71-16.37-3.3-1.7-.92-3.21,1.67-1.51,2.59,5.28,2.87,11.34,5.91,17.49,4.06,5.07-1.53,8.07-6.25,8.98-11.25,1.01-5.56-.08-11.41-2.51-16.47-2.29-4.78-6.62-9.38-12.41-8.24-3.01,.59-5.55,2.61-7.73,4.66-2.36,2.22-4.77,4.59-5.9,7.7-.66,1.82,2.24,2.6,2.89,.8h0Z"/>
    </g>
    <path class="cls-13" d="M462.37,347.04c-1.94,1.63-3.52,3.7-4.57,6.01-.53,1.16-.94,2.37-1.19,3.62s-.46,2.53,.02,3.7c.85,2.09,3.7,3.04,5.67,1.97,1.79-.97,2.28-3.42,1.41-5.17-1.12-2.26-4.11-2.76-6.23-1.7-.58,.29-.07,1.15,.5,.86,1.55-.77,3.74-.47,4.71,1.07,.85,1.35,.47,3.48-1.07,4.16-.89,.4-1.97,.25-2.8-.22-.95-.54-1.46-1.41-1.48-2.51-.02-1.97,.71-4.08,1.58-5.82,1.01-2.03,2.42-3.81,4.15-5.26,.49-.41-.22-1.12-.71-.71h0Z"/>
    <g>
      <path class="cls-9" d="M363.08,365.89c-2.71,.95-5.58,1.42-8.45,1.31-1.3-.05-2.66-.19-4.42-.4-4.07-.49-8.16-2.1-10.85-5.2-1.52-1.76-2.53-3.91-3.33-6.09-2.3-6.28-3.05-13.19-1.62-19.72s5.11-12.64,10.54-16.54c3.11-2.24,6.7-3.72,10.37-4.82,4.39-1.31,8.92-2.1,13.46-2.66,12.93-1.61,26-1.67,38.98-.54,6.78,.59,13.67,1.46,19.9,4.22s11.28,7.23,13.53,13.33c.95,2.58,1.33,5.35,1.4,8.1,.25,9.7-3.81,19.93-12.03,25.09-8.37,5.26-19.27,4.4-28.67,1.36-4.6-1.49-9.1-3.46-13.9-4.01-8.65-.99-17.09,2.72-24.9,6.59h0Z"/>
      <path class="cls-13" d="M362.68,364.44c-4.38,1.48-8.93,1.53-13.46,.7-4.21-.78-8.02-2.82-10.2-6.61-2.33-4.06-3.49-9.06-3.78-13.7s.32-8.99,1.98-13.17c1.5-3.77,3.88-7.21,6.94-9.9,3.47-3.05,7.84-4.84,12.23-6.1,9.62-2.75,19.94-3.45,29.9-3.67s20.09,.07,29.87,1.72c8.22,1.39,16.91,4.56,21.7,11.83,4.49,6.82,3.95,16.28,1.07,23.63-2.95,7.55-9.13,12.99-17.13,14.56-4.19,.82-8.59,.61-12.77-.15-4.41-.81-8.55-2.37-12.77-3.79-4.46-1.5-8.99-2.47-13.72-2.04s-9.33,1.94-13.72,3.81c-1.07,.45-2.13,.93-3.18,1.42-.97,.45-1.97,1.11-2.96,1.45-1.81,.63-1.03,3.53,.8,2.89,2.27-.79,4.42-2.14,6.65-3.09,2.42-1.03,4.92-1.93,7.47-2.59,4.97-1.28,9.9-1.3,14.85,.09s9.32,3.35,14.18,4.41c4.45,.97,9.07,1.41,13.61,.85,8.72-1.08,16.1-5.97,20.16-13.81s5.23-17.7,1.89-25.7-11.78-13.34-20.21-15.58c-4.91-1.3-10-1.84-15.04-2.26-5.43-.45-10.89-.7-16.34-.7-10.68-.02-21.69,.6-32.11,3.05-4.83,1.13-9.71,2.75-13.85,5.56-3.65,2.48-6.64,5.86-8.74,9.73-4.69,8.62-4.8,19.04-1.56,28.18,1.61,4.56,4.11,8.52,8.54,10.74,3.97,1.99,8.84,2.64,13.25,2.48,2.48-.09,4.92-.57,7.27-1.37,1.82-.62,1.04-3.51-.8-2.89Z"/>
    </g>
    <g>
      <path class="cls-1" d="M358.41,369.39c-2.71,.95-5.58,1.42-8.45,1.31-1.3-.05-2.66-.19-4.42-.4-4.07-.49-8.16-2.1-10.85-5.2-1.52-1.76-2.53-3.91-3.33-6.09-2.3-6.28-3.05-13.19-1.62-19.72s5.11-12.64,10.54-16.54c3.11-2.24,6.7-3.72,10.37-4.82,4.39-1.31,8.92-2.1,13.46-2.66,12.93-1.61,26-1.67,38.98-.54,6.78,.59,13.67,1.46,19.9,4.22s11.28,7.23,13.53,13.33c.95,2.58,1.33,5.35,1.4,8.1,.25,9.7-3.81,19.93-12.03,25.09-8.37,5.26-19.27,4.4-28.67,1.36-4.6-1.49-9.1-3.46-13.9-4.01-8.65-.99-17.09,2.72-24.9,6.59h0Z"/>
      <path class="cls-13" d="M358.01,367.95c-4.38,1.48-8.93,1.53-13.46,.7-4.21-.78-8.02-2.82-10.2-6.61-2.33-4.06-3.49-9.06-3.78-13.7s.32-8.99,1.98-13.17c1.5-3.77,3.88-7.21,6.94-9.9,3.47-3.05,7.84-4.84,12.23-6.1,9.62-2.75,19.94-3.45,29.9-3.67s20.09,.07,29.87,1.72c8.22,1.39,16.91,4.56,21.7,11.83,4.49,6.82,3.95,16.28,1.07,23.63s-9.13,12.99-17.13,14.56c-4.19,.82-8.59,.61-12.77-.15-4.41-.81-8.55-2.37-12.77-3.79-4.46-1.5-8.99-2.47-13.72-2.04s-9.33,1.94-13.72,3.81c-1.07,.45-2.13,.93-3.18,1.42-.97,.45-1.97,1.11-2.96,1.45-1.81,.63-1.03,3.53,.8,2.89,2.27-.79,4.42-2.14,6.65-3.09,2.42-1.03,4.92-1.93,7.47-2.59,4.97-1.28,9.9-1.3,14.85,.09s9.32,3.35,14.18,4.41c4.45,.97,9.07,1.41,13.61,.85,8.72-1.08,16.1-5.97,20.16-13.81s5.23-17.7,1.89-25.7-11.78-13.34-20.21-15.58c-4.91-1.3-10-1.84-15.04-2.26-5.43-.45-10.89-.7-16.34-.7-10.68-.02-21.69,.6-32.11,3.05-4.83,1.13-9.71,2.75-13.85,5.56-3.65,2.48-6.64,5.86-8.74,9.73-4.69,8.62-4.8,19.04-1.56,28.18,1.61,4.56,4.11,8.52,8.54,10.74,3.97,1.99,8.84,2.64,13.25,2.48,2.48-.09,4.92-.57,7.27-1.37,1.82-.62,1.04-3.51-.8-2.89Z"/>
    </g>
    <g>
      <path class="cls-3" d="M363.01,358.43c-2.36,.6-4.85,.91-7.35,.84-1.13-.03-2.31-.12-3.84-.26-3.54-.31-7.1-1.34-9.43-3.32-1.32-1.12-2.2-2.49-2.9-3.89-2-4.01-2.65-8.42-1.41-12.59s4.44-8.07,9.16-10.56c2.7-1.43,5.82-2.38,9.01-3.08,3.81-.84,7.75-1.34,11.7-1.7,11.24-1.03,22.6-1.07,33.88-.35,5.89,.38,11.88,.93,17.3,2.7,5.17,1.68,9.8,4.61,11.76,8.51,.83,1.65,1.15,3.41,1.22,5.17,.21,6.19-3.31,12.72-10.46,16.01-7.28,3.36-16.75,2.81-24.92,.87-4-.95-7.91-2.21-12.08-2.56-7.52-.63-14.86,1.74-21.64,4.21h0Z"/>
      <path class="cls-13" d="M362.61,356.99c-3.59,.89-7.14,.88-10.79,.53-3.29-.32-6.99-1.21-9.29-3.77s-3.52-6.48-3.58-9.88c-.05-3.13,.95-6.11,2.78-8.64,4.38-6.02,12.13-7.88,19.08-8.99,7.85-1.25,15.89-1.61,23.82-1.69s16.18,.15,24.19,1.07c6.6,.76,14.26,2.32,19.02,7.37,4.14,4.39,3.26,11.3,.04,15.95-3.77,5.46-10.53,7.56-16.88,7.85-3.83,.18-7.67-.19-11.43-.93-4.11-.8-8.1-2.16-12.24-2.81s-8.57-.47-12.83,.37c-2.12,.42-4.22,.99-6.28,1.63-1.88,.59-3.73,1.44-5.63,1.93s-1.08,3.37,.8,2.89,3.61-1.29,5.41-1.86c1.99-.63,4-1.18,6.05-1.61,4.15-.86,8.41-1.07,12.59-.31,3.96,.72,7.79,1.99,11.74,2.74s7.72,1.12,11.6,.96c6.95-.28,14.22-2.46,18.73-8.08,3.96-4.93,5.69-12.43,2.43-18.2-3.61-6.4-11.83-9.07-18.6-10.26-8.44-1.49-17.21-1.7-25.76-1.73s-17.52,.35-26.17,1.59c-7.6,1.09-15.91,3.01-21.13,9.11s-5.49,13.71-2.01,20.49c3.56,6.96,11.87,8.28,19.02,8.03,2.06-.07,4.11-.39,6.11-.88,1.87-.46,1.08-3.36-.8-2.89Z"/>
    </g>
    <ellipse class="cls-12" cx="357.32" cy="342.92" rx="8.77" ry="12.27"/>
    <ellipse class="cls-12" cx="415.76" cy="342.92" rx="8.77" ry="12.27"/>
    <path class="cls-12" d="M405.87,327.18c.04-.08,.09-.16,.15-.23l-.23,.3c.15-.19,.33-.35,.52-.49l-.3,.23c.74-.57,1.55-1.04,2.42-1.41l-.36,.15c.07-.03,.14-.06,.22-.09,.38-.15,.68-.33,.9-.69,.19-.32,.27-.8,.15-1.16s-.34-.71-.69-.9-.79-.3-1.16-.15c-.77,.31-1.51,.65-2.21,1.09-.39,.25-.75,.52-1.11,.8s-.66,.62-.88,1.01c-.19,.35-.26,.77-.15,1.16,.1,.35,.36,.73,.69,.9,.7,.37,1.65,.2,2.05-.54h0Z"/>
    <path class="cls-12" d="M367.85,326.71c-.78-.66-1.64-1.16-2.54-1.62-.81-.41-1.63-.82-2.35-1.37l.3,.23-.06-.05c-.33-.26-.63-.44-1.06-.44-.37,0-.81,.16-1.06,.44s-.46,.66-.44,1.06c.02,.37,.13,.82,.44,1.06,.78,.61,1.6,1.08,2.48,1.53,.77,.39,1.55,.79,2.24,1.32l-.3-.23c.08,.06,.16,.13,.24,.19,.31,.26,.64,.44,1.06,.44,.37,0,.81-.16,1.06-.44,.51-.56,.64-1.58,0-2.12h0Z"/>
    <path class="cls-13" d="M362.61,356.99c-3.59,.89-7.14,.88-10.79,.53-3.29-.32-6.99-1.21-9.29-3.77s-3.52-6.48-3.58-9.88c-.05-3.13,.95-6.11,2.78-8.64,4.38-6.02,12.13-7.88,19.08-8.99,7.85-1.25,15.89-1.61,23.82-1.69s16.18,.15,24.19,1.07c6.6,.76,14.26,2.32,19.02,7.37,4.14,4.39,3.26,11.3,.04,15.95-3.77,5.46-10.53,7.56-16.88,7.85-3.83,.18-7.67-.19-11.43-.93-4.11-.8-8.1-2.16-12.24-2.81s-8.57-.47-12.83,.37c-2.12,.42-4.22,.99-6.28,1.63-1.88,.59-3.73,1.44-5.63,1.93s-1.08,3.37,.8,2.89,3.61-1.29,5.41-1.86c1.99-.63,4-1.18,6.05-1.61,4.15-.86,8.41-1.07,12.59-.31,3.96,.72,7.79,1.99,11.74,2.74s7.72,1.12,11.6,.96c6.95-.28,14.22-2.46,18.73-8.08,3.96-4.93,5.69-12.43,2.43-18.2-3.61-6.4-11.83-9.07-18.6-10.26-8.44-1.49-17.21-1.7-25.76-1.73s-17.52,.35-26.17,1.59c-7.6,1.09-15.91,3.01-21.13,9.11s-5.49,13.71-2.01,20.49c3.56,6.96,11.87,8.28,19.02,8.03,2.06-.07,4.11-.39,6.11-.88,1.87-.46,1.08-3.36-.8-2.89Z"/>
    <path class="cls-11" d="M359.84,341.18c2.57,0,2.58-4,0-4s-2.58,4,0,4h0Z"/>
    <path class="cls-11" d="M417.17,339.77c2.57,0,2.58-4,0-4s-2.58,4,0,4h0Z"/>
    <path class="cls-13" d="M387.9,373.45c-.55,.49-1.32,.64-2.03,.77-.83,.15-1.67,.25-2.51,.21-1.51-.06-2.89-.8-3.48-2.25-.26-.64-.38-1.43-.15-2.1,.27-.75,1.02-1.28,1.57-1.82,1.32-1.33,2.52-2.78,3.59-4.32,.74-1.06-.99-2.06-1.73-1.01-.65,.93-1.35,1.82-2.1,2.66s-1.59,1.56-2.32,2.39c-1.4,1.58-1.41,3.81-.39,5.61s2.95,2.75,5.01,2.84c1.07,.05,2.17-.11,3.22-.32s1.95-.56,2.73-1.25c.96-.86-.45-2.27-1.41-1.41h0Z"/>
    <g>
      <path class="cls-2" d="M382.41,387.82c1.4,.2,2.82,.04,4.23-.15,3.42-.48,6.85-1.16,9.93-2.73,2.04-1.04,3.9-2.51,5.26-4.33-1.16-.49-2.57-.28-3.82,.05-3.47,.9-6.87,2.46-10.45,2.3h0c-1.42,.13-2.86,.09-4.28-.08-1.85-.22-3.71-.41-5.57-.55-1.2-.09-2.5-.14-3.49,.52-.1,.07-.17,.15-.26,.23,1.5,1.49,3.24,2.74,5.14,3.66,1.05,.51,2.16,.92,3.32,1.09Z"/>
      <path class="cls-13" d="M404.23,385.84c-.11-1.85-.37-3.97-1.92-4.98-.16-.1-.32-.19-.49-.26-1.36,1.82-3.22,3.29-5.26,4.33-3.07,1.56-6.51,2.25-9.93,2.73-1.4,.19-2.83,.36-4.23,.15-1.16-.17-2.27-.58-3.32-1.09-1.9-.92-3.64-2.17-5.14-3.66-.67,.58-1.07,1.45-1.18,2.34-.13,1,.06,2.02,.3,3,.61,2.48,1.61,4.89,3.02,7.01,2.08-1.52,4.57-2.48,7.14-2.67,.96-.07,1.97-.03,2.84,.37,1.36,.62,2.19,1.99,2.94,3.27,.07-1.87,2.02-3.08,3.82-3.57,1.99-.54,4.16-.61,6.08,.15,1.12,.45,2.13,1.21,2.85,2.18,.64-.8,1.28-1.61,1.72-2.53,.99-2.07,.88-4.48,.75-6.78Z"/>
      <path class="cls-8" d="M398.91,392.97c-1.92-.76-4.09-.69-6.08-.15-1.8,.49-3.75,1.71-3.82,3.57-.75-1.29-1.58-2.65-2.94-3.27-.88-.4-1.88-.44-2.84-.37-2.57,.19-5.06,1.15-7.14,2.67,.42,.64,.88,1.25,1.38,1.84,2.17,2.52,5.08,4.45,8.31,5.22,1.12,.27,2.29,.4,3.44,.31,1.62-.13,3.17-.68,4.7-1.23,1.5-.54,3.05-1.1,4.25-2.15,.58-.51,1.07-1.12,1.56-1.72,.66-.83,1.33-1.66,1.99-2.49,.02-.02,.03-.04,.05-.06-.72-.96-1.73-1.73-2.85-2.18Z"/>
      <path class="cls-13" d="M387.55,383.95c2.73,.07,5.33-.7,7.91-1.51,2.16-.67,6.09-2.42,7.28,.53,.42,1.03,.46,2.2,.52,3.3,.08,1.41,.14,2.86-.14,4.26-.55,2.71-2.84,5-4.58,7.06s-4.11,2.82-6.56,3.6c-2.75,.87-5.41,.76-8.07-.37-4.82-2.05-8.08-6.55-9.55-11.46-.43-1.44-.99-3.19-.37-4.65,.73-1.72,2.64-1.46,4.18-1.34,3.11,.25,6.26,.88,9.39,.6,1.27-.12,1.28-2.12,0-2-3.49,.32-6.97-.52-10.46-.67-3.06-.14-5.34,1.58-5.37,4.77s1.42,6.44,2.95,9.01,3.65,4.84,6.21,6.43,5.72,2.6,8.77,2.26c1.56-.18,3.05-.69,4.52-1.22s2.93-1.06,4.18-2c1.17-.87,2.02-2.07,2.92-3.2,1.07-1.34,2.31-2.66,3.06-4.21,1.3-2.69,1.14-6.08,.72-8.96-.48-3.33-2.68-5.27-6.12-4.72-3.88,.62-7.37,2.62-11.39,2.52-1.29-.03-1.29,1.97,0,2Z"/>
    </g>
    <g>
      <path class="cls-7" d="M485.93,387.11l8.63,13.97c8.2,13.27,16.53,26.86,19.99,42.07,3.06,13.46,2.14,27.47,3.37,41.22,.13,1.48,.31,3.02,1.12,4.26,.66,1.02,1.7,1.75,2.38,2.76,1.11,1.63,1.16,3.72,1.15,5.69-.04,8-.52,16-1.43,23.95-.13,1.1-.48,2.46-1.57,2.67-1.34,.26-2.13-1.42-2.43-2.76-.7-3.14-1.4-6.27-2.09-9.41,.21,4.85-.05,9.71-.78,14.51-.25,1.66-.84,3.63-2.47,4.04-1.26,.32-2.57-.55-3.18-1.7s-.67-2.49-.7-3.79c-.09-5.09,.23-10.18,.96-15.22-.74,5.75-1.47,11.49-2.21,17.24-.23,1.81-.5,3.7-1.59,5.16s-3.29,2.26-4.79,1.22c-1.53-1.06-1.53-3.29-1.31-5.14,.63-5.33,1.75-10.6,3.34-15.73-1.15,3.65-2.3,7.31-3.45,10.96-.52,1.66-1.13,3.43-2.55,4.44-2.28,1.62-6.05-.1-6.33-2.88-.09-.92,.14-1.83,.36-2.73,1.54-6.14,3.09-12.28,4.63-18.42-.92,2.66-1.98,5.5-4.32,7.07s-6.31,.85-6.91-1.9c-.34-1.55,.48-3.1,1.27-4.48,3.19-5.57,6.37-11.15,9.56-16.72,.67-1.16,1.34-2.36,1.59-3.67,.4-2.09-.32-4.21-.96-6.24-2.78-8.84-4.17-18.11-4.1-27.37,.01-1.52,.06-3.05-.21-4.54-.33-1.84-1.14-3.56-2-5.22-7.72-14.89-20.37-27.04-26.51-42.66"/>
      <path class="cls-13" d="M484.64,387.87c5.5,8.9,11.17,17.73,16.36,26.82,4.9,8.57,9.26,17.53,11.7,27.14,2.58,10.17,2.69,20.71,3.08,31.13,.1,2.62,.21,5.24,.38,7.86,.15,2.32,.11,4.93,.92,7.14s3.08,3.38,3.71,5.6,.31,4.72,.26,6.96c-.13,6.12-.51,12.24-1.14,18.33-.06,.53,.02,3-.58,3.32-.25,.13,0,.06,0,.06-.03,0-.24-.37-.3-.47-.29-.51-.39-1.11-.52-1.67-.67-2.98-1.33-5.96-1.99-8.94-.37-1.64-3.01-1.29-2.95,.4,.13,3.4,.06,6.79-.25,10.18-.15,1.57-.28,3.18-.62,4.73-.17,.75-.48,2.26-1.5,2.22-1.4-.06-1.67-2.18-1.73-3.19-.1-1.68-.05-3.38-.01-5.06,.09-3.56,.39-7.11,.89-10.64l-2.95-.4c-.55,4.27-1.1,8.54-1.64,12.8-.26,1.99-.42,4.01-.81,5.98-.29,1.43-.8,3.15-2.34,3.67-3.5,1.2-1.86-5.9-1.63-7.32,.66-4.05,1.61-8.05,2.81-11.98,.57-1.85-2.31-2.63-2.89-.8-1.21,3.83-2.37,7.68-3.63,11.5-.4,1.23-.97,2.92-2.34,3.34-.94,.29-2.05-.11-2.73-.77-1.14-1.1-.58-2.63-.25-3.97,.49-1.94,.97-3.88,1.46-5.82,1.02-4.04,2.03-8.08,3.05-12.12,.47-1.89-2.26-2.61-2.89-.8-.98,2.82-2.62,7.43-6.44,6.72-1.89-.35-2.22-1.84-1.5-3.49,.99-2.26,2.45-4.39,3.67-6.53s2.53-4.43,3.8-6.64,2.6-4.27,3.68-6.51,1.25-4.28,.74-6.62-1.38-4.62-1.99-6.94c-1.24-4.73-2.1-9.56-2.53-14.43-.21-2.42-.33-4.86-.34-7.29s.14-4.68-.45-6.96c-1.07-4.12-3.67-8.02-5.93-11.57s-4.81-7.16-7.33-10.66c-5.64-7.85-11.47-15.76-15.07-24.8-.71-1.77-3.61-1-2.89,.8,3.39,8.53,8.58,16.07,13.91,23.48,2.68,3.73,5.38,7.45,7.89,11.29,1.25,1.92,2.45,3.87,3.57,5.86s2.36,4.13,2.95,6.4c.63,2.44,.31,5.08,.36,7.57s.23,5.18,.51,7.75c.56,5.13,1.53,10.21,2.95,15.17,.66,2.3,1.83,4.77,1.69,7.2-.07,1.25-.67,2.36-1.27,3.42-.72,1.28-1.46,2.55-2.18,3.82-2.67,4.67-5.53,9.29-8.03,14.06-1.05,2.01-1.71,4.47-.26,6.47,1.12,1.55,3.1,2.27,4.97,2.21,4.91-.16,7.03-4.98,8.42-8.98l-2.89-.8c-1.26,5.01-2.52,10.02-3.78,15.02-.92,3.66-2.62,8.06,1.26,10.57,3.01,1.95,6.61,.72,8.2-2.38,.99-1.92,1.49-4.11,2.14-6.16,.8-2.54,1.6-5.08,2.4-7.63l-2.89-.8c-1.16,3.77-2.08,7.62-2.74,11.51-.49,2.9-1.58,6.85,.02,9.59s5.54,2.58,7.65,.39c2.4-2.5,2.36-6.6,2.77-9.82,.6-4.68,1.2-9.36,1.8-14.03,.21-1.66-2.71-2.07-2.95-.4-.65,4.53-1.02,9.08-1.03,13.65,0,3.3,.03,8.35,4.31,8.97,3.84,.55,4.82-3.72,5.2-6.59,.6-4.47,.81-8.97,.63-13.47l-2.95,.4c.63,2.82,1.26,5.65,1.88,8.47,.43,1.93,1.16,4.54,3.51,4.79s3.35-1.92,3.61-3.86c.38-2.77,.6-5.57,.81-8.35,.44-5.66,.82-11.41,.64-17.09-.08-2.47-.65-4.65-2.36-6.5-.82-.88-1.61-1.62-1.94-2.81-.37-1.33-.41-2.74-.51-4.11-.86-11.21-.5-22.5-2.14-33.65-1.57-10.66-5.51-20.68-10.52-30.17-5.85-11.1-12.79-21.63-19.38-32.3-1.01-1.64-3.61-.13-2.59,1.51h0Z"/>
    </g>
    <circle class="cls-4" cx="586.41" cy="262.26" r="14.03"/>
    <circle class="cls-4" cx="634.33" cy="445.77" r="14.03"/>
    <circle class="cls-4" cx="532.64" cy="228.37" r="11.69"/>
    <circle class="cls-4" cx="393.55" cy="459.8" r="11.69"/>
    <circle class="cls-4" cx="591.09" cy="189.8" r="9.35"/>
    <circle class="cls-4" cx="672.91" cy="480.84" r="9.35"/>
    <circle class="cls-4" cx="546.67" cy="132.52" r="7.01"/>
    <circle class="cls-4" cx="416.93" cy="503.05" r="7.01"/>
  </g>
</svg>