<?xml version="1.0" encoding="UTF-8"?>
<svg id="die" xmlns="http://www.w3.org/2000/svg" viewBox="0 0 1000 1000">
  <defs>
    <style>
      .cls-1 {
        font-family: FreeSansBold, FreeSans;
        font-size: 150px;
      }

      .cls-2 {
        fill: #f90000;
      }

      .cls-3 {
        fill: #2d2d2d;
      }

      .cls-4 {
        letter-spacing: -.02em;
      }

      .cls-5 {
        letter-spacing: 0em;
      }

      .cls-5, .cls-6 {
        fill: red;
      }
    </style>
  </defs>
  <text class="cls-1" transform="translate(394.03 802.28)"><tspan class="cls-4" x="0" y="0">d</tspan><tspan class="cls-5" x="88.65" y="0">i</tspan><tspan class="cls-6" x="128.85" y="0">e</tspan></text>
  <g>
    <path class="cls-3" d="M501,638.65c-10.65,0-21.3-2.6-31-7.81l-224.27-120.36c-22.03-11.83-35.72-34.98-35.72-60.43V219.69c0-25.45,13.69-48.61,35.72-60.43l.2-.1L470.1,53.98c19.36-10.35,42.45-10.35,61.81,0l224.28,105.22,.1,.05c22.03,11.83,35.72,34.98,35.72,60.43v230.35c0,25.45-13.69,48.61-35.72,60.43l-224.27,120.36c-9.71,5.21-20.36,7.81-31,7.81ZM249.62,166.75c-19.23,10.37-31.17,30.64-31.17,52.93v230.35c0,22.33,11.98,42.64,31.27,52.99l224.27,120.36c16.91,9.08,37.1,9.08,54.02,0l224.27-120.36c19.29-10.35,31.27-30.65,31.27-52.99V219.69c0-22.29-11.94-42.57-31.17-52.93l-224.27-105.22-.1-.05c-16.91-9.08-37.11-9.08-54.02,0l-.2,.1-224.17,105.17Z"/>
    <path class="cls-3" d="M248.47,189.65l-2.95-1.32c-1.6-.72-3.12-1.12-4.88-.64-1.47,.4-3.06,1.54-3.79,2.91-1.46,2.77-.96,7.22,2.27,8.67,27.61,12.39,55.22,24.78,82.83,37.17,27.53,12.36,55.06,24.71,82.59,37.07,15.49,6.95,30.98,13.9,46.47,20.86l6.4-10.94c-3.25-1.46-6.51-2.92-9.76-4.38-1.6-.72-3.12-1.12-4.88-.64-1.47,.4-3.06,1.54-3.79,2.91-1.46,2.77-.96,7.22,2.27,8.67,12.86,5.77,25.73,11.55,38.59,17.32l6.4-10.94c-23.2-10.41-46.41-20.83-69.61-31.24-6.56-2.94-13.12-5.89-19.68-8.83-1.6-.72-3.12-1.12-4.88-.64-1.47,.4-3.06,1.54-3.79,2.91-1.46,2.77-.96,7.22,2.27,8.67,23.2,10.41,46.41,20.83,69.61,31.24,6.56,2.94,13.12,5.89,19.68,8.83,1.6,.72,3.12,1.12,4.88,.64,1.47-.4,3.06-1.54,3.79-2.91,1.46-2.77,.96-7.22-2.27-8.67-12.86-5.77-25.73-11.55-38.59-17.32-2.13,3.65-4.26,7.3-6.4,10.94,3.25,1.46,6.51,2.92,9.76,4.38,1.6,.72,3.12,1.12,4.88,.64,1.47-.4,3.06-1.54,3.79-2.91,1.46-2.77,.96-7.22-2.27-8.67-27.61-12.39-55.22-24.78-82.83-37.17s-55.06-24.71-82.59-37.07c-15.49-6.95-30.98-13.9-46.47-20.86-2.13,3.65-4.26,7.3-6.4,10.94l2.95,1.32c1.6,.72,3.12,1.12,4.88,.64,1.47-.4,3.06-1.54,3.79-2.91,1.46-2.77,.96-7.22-2.27-8.67h0Z"/>
    <path class="cls-3" d="M518.72,294.85l-2.95,1.32c-3.04,1.36-3.99,6.01-2.27,8.67,2.03,3.14,5.42,3.73,8.67,2.27,27.63-12.35,55.26-24.69,82.89-37.04,27.55-12.31,55.1-24.62,82.65-36.93,15.5-6.93,31-13.85,46.5-20.78-2.13-3.65-4.26-7.3-6.4-10.94-3.26,1.45-6.51,2.91-9.77,4.36-3.04,1.36-3.99,6.01-2.27,8.67,2.03,3.14,5.42,3.73,8.67,2.27,12.87-5.75,25.75-11.51,38.62-17.26-2.13-3.65-4.26-7.3-6.4-10.94-23.22,10.38-46.44,20.75-69.66,31.13-6.57,2.93-13.13,5.87-19.7,8.8-3.04,1.36-3.99,6.01-2.27,8.67,2.03,3.14,5.42,3.73,8.67,2.27,23.22-10.38,46.44-20.75,69.66-31.13,6.57-2.93,13.13-5.87,19.7-8.8,3.04-1.36,3.99-6.01,2.27-8.67-2.03-3.14-5.42-3.73-8.67-2.27-12.87,5.75-25.75,11.51-38.62,17.26,2.13,3.65,4.26,7.3,6.4,10.94,3.26-1.45,6.51-2.91,9.77-4.36,3.04-1.36,3.99-6.01,2.27-8.67-2.03-3.14-5.42-3.73-8.67-2.27-27.63,12.35-55.26,24.69-82.89,37.04-27.55,12.31-55.1,24.62-82.65,36.93-15.5,6.93-31,13.85-46.5,20.78,2.13,3.65,4.26,7.3,6.4,10.94l2.95-1.32c3.04-1.36,3.99-6.01,2.27-8.67-2.03-3.14-5.42-3.73-8.67-2.27h0Z"/>
    <path class="cls-3" d="M506.7,328.51l-.02-3.48c-.02-3.31-2.9-6.49-6.34-6.34s-6.36,2.78-6.34,6.34c.18,32.54,.35,65.08,.53,97.62s.35,65.08,.53,97.62c.1,18.35,.2,36.7,.3,55.05h12.68c-.02-3.84-.04-7.69-.06-11.53-.02-3.31-2.9-6.49-6.34-6.34s-6.36,2.78-6.34,6.34c.08,15.2,.16,30.39,.25,45.59h12.68c-.15-27.41-.3-54.82-.44-82.23-.04-7.75-.08-15.5-.13-23.25-.02-3.31-2.9-6.49-6.34-6.34s-6.36,2.78-6.34,6.34c.15,27.41,.3,54.82,.44,82.23,.04,7.75,.08,15.5,.13,23.25,.02,3.31,2.9,6.49,6.34,6.34s6.36-2.78,6.34-6.34c-.08-15.2-.16-30.39-.25-45.59h-12.68c.02,3.84,.04,7.69,.06,11.53,.02,3.31,2.9,6.49,6.34,6.34s6.36-2.78,6.34-6.34c-.18-32.54-.35-65.08-.53-97.62-.18-32.54-.35-65.08-.53-97.62-.1-18.35-.2-36.7-.3-55.05h-12.68l.02,3.48c.02,3.31,2.9,6.49,6.34,6.34s6.36-2.78,6.34-6.34h0Z"/>
    <g>
      <ellipse class="cls-2" cx="653.1" cy="397.43" rx="27.46" ry="30.1"/>
      <path class="cls-2" d="M653.1,428.06c-15.43,0-27.99-13.74-27.99-30.63s12.56-30.63,27.99-30.63,27.99,13.74,27.99,30.63-12.56,30.63-27.99,30.63Zm0-60.21c-14.85,0-26.93,13.27-26.93,29.58s12.08,29.58,26.93,29.58,26.93-13.27,26.93-29.58-12.08-29.58-26.93-29.58Z"/>
    </g>
    <g>
      <ellipse class="cls-3" cx="352.6" cy="397.96" rx="27.46" ry="30.1"/>
      <path class="cls-3" d="M352.6,428.59c-15.43,0-27.99-13.74-27.99-30.63s12.56-30.63,27.99-30.63,27.99,13.74,27.99,30.63-12.56,30.63-27.99,30.63Zm0-60.21c-14.85,0-26.93,13.27-26.93,29.58s12.08,29.58,26.93,29.58,26.93-13.27,26.93-29.58-12.08-29.58-26.93-29.58Z"/>
    </g>
    <g>
      <ellipse class="cls-3" cx="427.59" cy="521.54" rx="27.46" ry="30.1"/>
      <path class="cls-3" d="M427.59,552.17c-15.43,0-27.99-13.74-27.99-30.63s12.56-30.63,27.99-30.63,27.99,13.74,27.99,30.63-12.56,30.63-27.99,30.63Zm0-60.21c-14.85,0-26.93,13.27-26.93,29.58s12.08,29.58,26.93,29.58,26.93-13.27,26.93-29.58-12.08-29.58-26.93-29.58Z"/>
    </g>
    <g>
      <ellipse class="cls-3" cx="280.77" cy="290.22" rx="27.46" ry="30.1"/>
      <path class="cls-3" d="M280.77,320.85c-15.43,0-27.99-13.74-27.99-30.63s12.56-30.63,27.99-30.63,27.99,13.74,27.99,30.63-12.56,30.63-27.99,30.63Zm0-60.21c-14.85,0-26.93,13.27-26.93,29.58s12.08,29.58,26.93,29.58,26.93-13.27,26.93-29.58-12.08-29.58-26.93-29.58Z"/>
    </g>
    <g>
      <ellipse class="cls-3" cx="501.53" cy="235.29" rx="30.63" ry="20.6"/>
      <path class="cls-3" d="M501.53,256.42c-17.18,0-31.16-9.48-31.16-21.13s13.98-21.13,31.16-21.13,31.16,9.48,31.16,21.13-13.98,21.13-31.16,21.13Zm0-41.19c-16.6,0-30.1,9-30.1,20.07s13.5,20.07,30.1,20.07,30.1-9,30.1-20.07-13.5-20.07-30.1-20.07Z"/>
    </g>
    <g>
      <ellipse class="cls-3" cx="501.53" cy="176.14" rx="30.63" ry="20.6"/>
      <path class="cls-3" d="M501.53,197.27c-17.18,0-31.16-9.48-31.16-21.13s13.98-21.13,31.16-21.13,31.16,9.48,31.16,21.13-13.98,21.13-31.16,21.13Zm0-41.19c-16.6,0-30.1,9-30.1,20.07s13.5,20.07,30.1,20.07,30.1-9,30.1-20.07-13.5-20.07-30.1-20.07Z"/>
    </g>
    <g>
      <ellipse class="cls-3" cx="640.95" cy="172.97" rx="30.63" ry="20.6"/>
      <path class="cls-3" d="M640.95,194.1c-17.18,0-31.16-9.48-31.16-21.13s13.98-21.13,31.16-21.13,31.16,9.48,31.16,21.13-13.98,21.13-31.16,21.13Zm0-41.19c-16.6,0-30.1,9-30.1,20.07s13.5,20.07,30.1,20.07,30.1-9,30.1-20.07-13.5-20.07-30.1-20.07Z"/>
    </g>
    <g>
      <ellipse class="cls-3" cx="365.27" cy="172.97" rx="30.63" ry="20.6"/>
      <path class="cls-3" d="M365.27,194.1c-17.18,0-31.16-9.48-31.16-21.13s13.98-21.13,31.16-21.13,31.16,9.48,31.16,21.13-13.98,21.13-31.16,21.13Zm0-41.19c-16.6,0-30.1,9-30.1,20.07s13.5,20.07,30.1,20.07,30.1-9,30.1-20.07-13.5-20.07-30.1-20.07Z"/>
    </g>
    <g>
      <ellipse class="cls-3" cx="501.53" cy="115.94" rx="30.63" ry="20.6"/>
      <path class="cls-3" d="M501.53,137.06c-17.18,0-31.16-9.48-31.16-21.13s13.98-21.13,31.16-21.13,31.16,9.48,31.16,21.13-13.98,21.13-31.16,21.13Zm0-41.19c-16.6,0-30.1,9-30.1,20.07s13.5,20.07,30.1,20.07,30.1-9,30.1-20.07-13.5-20.07-30.1-20.07Z"/>
    </g>
  </g>
</svg>