<?xml version="1.0" encoding="UTF-8"?>
<svg id="like" xmlns="http://www.w3.org/2000/svg" viewBox="0 0 1000 1000">
  <defs>
    <style>
      .cls-1 {
        font-family: FreeSansBold, FreeSans;
        font-size: 150px;
      }

      .cls-2 {
        letter-spacing: -.02em;
      }

      .cls-2, .cls-3, .cls-4 {
        fill: red;
      }

      .cls-3 {
        letter-spacing: 0em;
      }

      .cls-5 {
        letter-spacing: -.01em;
      }

      .cls-4 {
        letter-spacing: 0em;
      }

      .cls-6 {
        fill: #968b00;
      }

      .cls-7 {
        fill: #fff100;
      }
    </style>
  </defs>
  <text class="cls-1" transform="translate(375.2 802.45)"><tspan class="cls-5" x="0" y="0">l</tspan><tspan class="cls-4" x="39.45" y="0">i</tspan><tspan class="cls-2" x="81.15" y="0">k</tspan><tspan class="cls-3" x="160.8" y="0">e</tspan></text>
  <g>
    <g>
      <path class="cls-7" d="M635.98,500.44c-3.83,16.26-5.43,33.04-4.76,49.74,.18,4.48,.57,9.13,2.8,13.02,5.93,10.36,21.28,10.11,32.17,5.23,26.45-11.87,41.22-41.17,45.45-69.86,4.24-28.68,.04-57.85-.48-86.84-.33-18.24,.68-37.19-6.51-53.96-3.83-8.93-9.88-16.82-17.13-23.29-10.43-9.3-24.3-15.86-38.15-13.96s-26.57,14.31-25.46,28.24c-19.49-36.6-28.6-78.26-29.27-119.73-.23-14.16,.52-28.47,4.36-42.09,5-17.73,15.03-33.63,21.06-51.03,6.04-17.4,7.45-38.23-3.72-52.88-9.83-12.88-26.83-17.79-42.84-20.24-12.5-1.91-25.28-2.79-37.78-.89-31.36,4.76-58.35,27.18-73.44,55.09s-19.29,60.67-17.16,92.32c.87,12.91,2.74,25.89,1.02,38.71-1.71,12.82-7.71,25.85-18.89,32.35-13.16,7.65-30.35,4.75-43.83,11.82-14.91,7.82-21.39,25.59-24.63,42.11-4.84,24.66-5.34,49.95-5.15,75.07,.21,28.06,1.35,56.61,10.45,83.16,6.35,18.52,16.44,35.59,28.04,51.36,11.09,15.08,23.94,29.36,40.26,38.51,14.96,8.38,32.04,12.02,48.82,15.55,29.54,6.21,61.2,12.26,89.14,.83,11.51-4.71,21.71-12.19,30.82-20.64,15.41-14.28,28.51-32.8,29.87-53.77"/>
      <path class="cls-6" d="M626.32,497.78c-4.15,18.16-6.62,37.62-4.87,56.26,1.56,16.63,12.93,27.6,29.81,27.66,30.24,.1,52.74-28.31,62.91-53.84,13.28-33.32,8.9-69.77,7.38-104.67-.79-18.02,.48-36.31-3.03-54.11-3.29-16.7-12.35-31.94-25.36-42.92-13.78-11.63-33.05-19.88-51.17-14.22-15.91,4.97-28.81,19.63-28.08,36.84,6.22-1.68,12.44-3.37,18.66-5.05-20.5-38.94-29.66-84.21-27.76-128.1,.51-11.7,2.46-23.05,6.49-34.07,3.73-10.17,8.84-19.77,13.14-29.7,7.95-18.37,13.88-39.17,7.84-59.06-5.94-19.55-22.5-31.24-41.48-36.58-20.51-5.76-43.81-7.56-64.63-2.62-38.74,9.19-67.66,41.37-81.17,77.63-7.52,20.17-10.46,42.13-10.4,63.59,.03,11.73,1.49,23.34,2.06,35.03,.49,10.12,.33,20.81-4.23,30.11-4.07,8.32-10.32,12.96-19.26,15.06-9.6,2.26-19.68,2.35-28.96,5.95-18.91,7.34-28.83,25.19-33.59,44.03-5.6,22.17-6.74,45.61-6.98,68.38-.25,23.16,.05,46.41,3.28,69.38,3.16,22.42,10.37,43.71,21.61,63.38,10.4,18.19,23.31,36.21,38.9,50.32,16.35,14.81,35.73,23.03,57.01,28.07,21.58,5.1,43.92,10.03,66.16,10.66,22.07,.63,43.68-4.5,61.93-17.22,16.39-11.43,31.71-26.73,40.58-44.82,4.49-9.16,7.13-18.59,7.95-28.76,1.04-12.85-18.99-12.78-20.03,0-1.43,17.65-12.55,32.84-24.91,44.77-13.9,13.41-30.38,23.4-49.9,25.49-20.26,2.16-40.53-1.78-60.28-5.9-19.44-4.06-39.25-8.05-55.84-19.59-15.22-10.58-27.04-26.17-37.12-41.5-11.45-17.41-20-36-24.34-56.44s-4.85-41.93-4.98-62.97c-.14-21.89,.1-44.02,3.78-65.65,2.5-14.73,6.36-34.24,21.06-41.74,7.95-4.06,17.65-4.15,26.28-5.75,9.33-1.72,18.13-5.27,25.17-11.79,14.89-13.79,17.74-35.41,16.69-54.6-1.15-20.89-3.33-41.39-.04-62.25,5.64-35.75,23.78-69.89,56.9-86.94,17.19-8.85,36.25-9.94,55.16-7.39,15.21,2.05,33.74,5.91,41.97,20.38s2.74,34.73-3.55,49.44c-8.55,20-18.36,38.39-21.15,60.3s-1.28,42.36,1.53,63.13c2.79,20.56,7.6,40.8,15.05,60.2,3.71,9.66,7.96,19.1,12.78,28.25,4.59,8.71,19.08,4.78,18.66-5.05s7.51-16.88,16.51-18.32c11.58-1.86,23.29,4.79,31.43,12.43,10,9.39,15.82,21.07,17.88,34.6,2.11,13.91,1.1,28.24,1.63,42.26,1.08,28.8,5.37,58.73-1.53,87.12-5.08,20.89-16.67,42.93-37.17,52.19-7.28,3.29-19.59,5.38-21.21-5.02-2.55-16.36,.51-34.98,4.16-50.93,2.87-12.55-16.43-17.9-19.31-5.32h0Z"/>
    </g>
    <g>
      <path class="cls-7" d="M320.94,567.11c-7.95,11.7-3.88,28.56,5.89,38.79s23.82,15.12,37.57,18.45c43.17,10.42,89.23,8.57,131.41-5.3,13.87-4.56,28.02-10.92,36.55-22.78,8.52-11.86,9.01-30.54-2.45-39.59"/>
      <path class="cls-6" d="M312.29,562.05c-12.45,19.82-2.43,44.41,14.95,57.36,18.55,13.83,44.39,17.64,66.77,20.13,25.11,2.79,50.59,1.5,75.38-3.29,21.84-4.22,46.32-10.5,63.38-25.58,16.92-14.97,23.23-44.91,4.23-61.08-9.76-8.31-23.99,5.79-14.16,14.16,11.15,9.49,4.63,25.4-4.91,33.35-13.6,11.34-33.83,15.71-50.71,19.2-19.48,4.04-39.44,5.39-59.3,4.34-18.96-1-39.12-3.73-56.87-10.81-13.96-5.57-31.77-21.3-21.48-37.68,6.88-10.94-10.45-21.01-17.29-10.11h0Z"/>
    </g>
    <g>
      <path class="cls-7" d="M308.16,512.11c-8.01,14.05-2.62,32.82,8.79,44.28,11.41,11.46,27.45,16.95,43.22,20.54,41.45,9.43,85.32,8.03,126.09-4.02,14.88-4.4,29.88-10.55,40.42-21.94,10.54-11.4,15.46-29.19,8.13-42.87"/>
      <path class="cls-6" d="M299.52,507.05c-10.55,19.91-3.45,44.51,13.07,58.95,17.64,15.42,41.78,20.89,64.38,24.18,25.85,3.76,51.79,3.71,77.63-.09,22.84-3.36,48.45-8.88,67.69-22.32,20.68-14.45,33.16-40.63,21.18-64.74-5.73-11.54-23.01-1.41-17.29,10.11,7.15,14.4-3.74,30.63-15.59,38.42-15.99,10.51-36.2,14.96-54.8,18.18-20.75,3.6-42.1,4.22-63.06,2.32-18.26-1.66-38.43-4.68-54.95-13.09-14.38-7.32-30.06-24.66-20.97-41.8,6.03-11.38-11.25-21.51-17.29-10.11h0Z"/>
    </g>
    <g>
      <path class="cls-7" d="M303.2,424.85c-12.93,26.75-9.43,62.31,12.8,82.01,9.22,8.17,20.82,13.18,32.56,16.91,32.02,10.17,66.19,11.69,99.75,10.03,16.68-.82,33.56-2.46,49.21-8.29s30.13-16.3,37.79-31.15c7.65-14.85,7.27-34.33-3.42-47.17"/>
      <path class="cls-6" d="M294.55,419.8c-10.48,22.34-12.01,48.23-2.09,71.07,11.18,25.72,36,38.07,61.83,45.03,29.81,8.02,61.12,9.42,91.82,8.03,29.22-1.32,59.51-5.45,82.43-25.23,22.91-19.77,29.82-54.03,10.42-78.57-3.36-4.25-10.65-3.51-14.16,0-4.19,4.19-3.37,9.9,0,14.16,12.74,16.11,3.22,38.48-10.42,50.25-17.95,15.49-43.39,18.14-66.08,19.27-25.68,1.27-51.74,.83-76.99-4.43-20.69-4.31-45.19-10.87-57.1-29.98-10.94-17.55-11.05-40.98-2.37-59.48,2.3-4.89,1.37-10.8-3.59-13.7-4.34-2.54-11.39-1.33-13.7,3.59h0Z"/>
    </g>
    <g>
      <path class="cls-7" d="M412.17,285.32c-29.54,7.7-62.35,7.53-87.37,25.01-23,16.07-34.78,44.69-36.57,72.7-.64,10-.03,20.54,5.1,29.15,3.92,6.57,10.11,11.42,16.15,16.1,7.36,5.7,14.71,11.4,22.07,17.1,5.75,4.46,11.57,8.96,18.17,12.02,7.34,3.41,15.4,4.94,23.41,6.12,39.46,5.83,80.04,4.01,118.82-5.34,18.54-4.47,38.56-12.23,46.8-29.43,3.66-7.64,4.51-16.33,4.58-24.8,.12-14.25-1.97-29.04-9.69-41.02-11.5-17.86-33.18-26.24-53.98-30.55-19.4-4.02-39.32-5.48-59.09-4.34,2.02-2.2,4.04-4.4,6.07-6.59"/>
      <path class="cls-6" d="M409.51,275.66c-22.25,5.67-45.64,6.92-67.31,14.81-21.06,7.66-38.38,21.45-49.4,41.12-10.58,18.89-16.64,42.84-14.43,64.53,1.31,12.8,6.3,23.79,15.87,32.53s20.15,15.99,30.24,23.8,19.75,14.63,32.09,17.99,25.04,4.47,37.49,5.45c26.33,2.08,52.81,.7,78.85-3.64,21.68-3.62,45.04-8.51,62.31-23.01,18.97-15.93,20.29-42.68,16.57-65.49-9.64-59.21-82.42-68.3-131.22-65.73,2.36,5.7,4.72,11.4,7.08,17.09,2.02-2.2,4.04-4.4,6.07-6.59,8.72-9.47-5.41-23.67-14.16-14.16-2.02,2.2-4.04,4.4-6.07,6.59-5.54,6.02-2.01,17.57,7.08,17.09,22.38-1.18,45.21,.42,66.85,6.5,16.79,4.71,34.1,13.26,41.24,30.22,3.73,8.86,4.67,18.69,4.65,28.2s-.87,19.38-7.04,26.95c-11.15,13.7-31.46,17.68-47.81,21-22.3,4.53-45.08,6.4-67.83,5.81-11.28-.29-22.58-1.13-33.75-2.72-10.26-1.46-20.19-3.47-29.04-9.11-9.37-5.97-17.92-13.36-26.69-20.15-7.39-5.73-17.02-11.61-20.74-20.62s-2.76-19.55-1.43-28.72,3.57-17.6,7.09-25.72c8.38-19.34,23.22-33.65,43.2-40.54,21.2-7.31,43.89-8.67,65.54-14.19,12.48-3.18,7.19-22.5-5.32-19.31h0Z"/>
    </g>
  </g>
</svg>