<svg id="Layer_1" data-name="Layer 1" xmlns="http://www.w3.org/2000/svg" viewBox="0 0 1000 1000">
  <defs>
    <style>
      .cls-1 {
        font-size: 150px;
        fill: #ed2024;
        font-family: FreeSansBold, FreeSans;
      }

      .cls-2 {
        letter-spacing: -0.03em;
      }

      .cls-3 {
        letter-spacing: -0.03em;
      }

      .cls-3, .cls-4, .cls-5, .cls-6, .cls-7 {
        fill: #000;
      }

      .cls-4 {
        letter-spacing: -0.01em;
      }

      .cls-6 {
        letter-spacing: 0em;
      }

      .cls-7 {
        letter-spacing: -0.01em;
      }

      .cls-8 {
        fill: #c1c8ca;
        stroke: #909596;
      }

      .cls-10, .cls-14, .cls-18, .cls-8 {
        stroke-miterlimit: 10;
        stroke-width: 3px;
      }

      .cls-9 {
        fill: #d7dbdd;
      }

      .cls-10 {
        fill: #d61f26;
        stroke: #871719;
      }

      .cls-11 {
        fill: #f38a92;
      }

      .cls-12 {
        fill: #fabebd;
      }

      .cls-13 {
        fill: #f15a58;
      }

      .cls-14 {
        fill: #ea2d8c;
        stroke: #9d1f60;
      }

      .cls-15 {
        fill: #f6c9de;
      }

      .cls-16 {
        fill: #fff8f8;
      }

      .cls-17 {
        fill: #f284b5;
      }

      .cls-18 {
        fill: #e98926;
        stroke: #dc7827;
      }

      .cls-19 {
        fill: #dc7a27;
      }
    </style>
  </defs>
  <title>lollipop</title>
  <g>
    <text class="cls-1" transform="translate(232.46 811.69)"><tspan class="cls-2">L</tspan><tspan class="cls-3" x="87.15" y="0">o</tspan><tspan class="cls-4" x="174.3" y="0">ll</tspan><tspan class="cls-5" x="253.2" y="0">i</tspan><tspan class="cls-6" x="294.9" y="0">p</tspan><tspan class="cls-7" x="385.8" y="0">o</tspan><tspan class="cls-5" x="475.95" y="0">p</tspan></text>
    <g>
      <g>
        <path class="cls-8" d="M436.28,341.42s2.13,302,0,305.55-21.32,8.53-22.74,0,0-309.1,0-309.1Z"/>
        <path class="cls-9" d="M423.17,344.81s5.42,68.94,4.7,86.69S426.44,582,426.44,582s4.06,48.78,1.29,55.33-10.18,9.12-11,8.6,1.89,4.65,4.47,3.28,10.7-4.12,11.56-6.53.75-41.19.75-41.19L432,533.71l.66-94.62,1.54-102.88Z"/>
        <path class="cls-10" d="M286.35,228.44s-12.08-87.4,73.9-140.7,181.2,28.43,191.86,56.85,30.55,78.87,0,133.59S466.84,352.08,427,350.66s-89.53-24.16-118-63.24C309.09,287.42,294.16,266.81,286.35,228.44Z"/>
        <path class="cls-11" d="M559.92,225.6S549.26,281,498.1,291.68s-88.82,9.24-106.59-9.24-33.39-29.84-29.84-71.77,2.84-62.53,39.08-67.5,73.9,5,83.14,20.61,13.5,36.95,3.55,56.13-29.13,33.4-49,29.14-32.68-7.82-36.24-22.74-9.95-47.61,14.92-46.19,47.61,7.82,43.35,17S437,215.65,432.73,212.81s-7.82-2.85-5.69,2.13,36.24,18.47,40.51,0,8.52-45.48-13.5-48.32-56.14,2.13-64.67,9.24-14.92,55.42,3.55,73.9,48.32,35.53,78.17,22,60.4-47.61,53.29-81.71-32-77.46-73.9-82.43S365.93,124,355.27,135.35s-36.95,59.69-29.13,91,21.32,73.19,51.16,84.56,82.43,22.74,100.19,14.21,46.9-26.29,58.27-38.37,18.48-31.27,21.32-39.8S559.92,225.6,559.92,225.6Z"/>
        <path class="cls-12" d="M477.49,310.16c5.17-2.48-39.79,3.55-54.71-1.43s-29.85-8.52-37.66-15.63S368.06,274.63,361,264s-15.63-31.27-17.06-44.06-2.13-32,2.85-44,14.92-29.85,27-34.82,34.82-20.61,51.16-19.9,38.37,4.26,49.74,12.79,18.48,11.37,22.74,24.87,7.82,22.74,6.4,38.37,0,17.06-11.37,32.69-17.06,24.16-31.27,27-29.84,3.55-37.66,1.42-22.74-14.21-22.74-14.21,11.37,12.79,17.06,14.92,23.44,6.4,42.63.71,24.87-7.1,34.82-20.6,20.61-36.24,19.9-49.74-7.82-35.53-10.66-40.51S471.81,121.14,459,117.59s-44.77-5.69-61.82,2.84-40.51,22.74-46.9,32-12.08,19.18-14.92,35.53-2.85,40.5,5,56.84,17.06,47.61,34.82,54.72,41.92,14.21,54.72,14.92S461.15,318,477.49,310.16Z"/>
        <path class="cls-13" d="M319.74,142.46c.71-3.56,18.48-27,39.8-35.53S397.91,85.61,424.2,87s38.37,2.84,55.43,8.53a184.29,184.29,0,0,1,30.55,13.5s-9.24-10-20.61-14.92S451.2,77.08,434.86,77.08s-35.53.71-50.45,6.4S351,99.11,343.9,106.93s-24.16,24.87-25.58,35.53S319.74,142.46,319.74,142.46Z"/>
      </g>
      <g>
        <path class="cls-8" d="M611.81,359.24s-51.64,203.91-55.87,218.24-12.65,77.35-19.06,78.73-20.78,7.4-21.52-5.21,72.06-297.67,72.06-297.67Z"/>
        <path class="cls-9" d="M598.29,361.32S586.92,429.53,582,446.59s-37.66,145.67-37.66,145.67-7.82,48.32-12.08,54-12.08,6.4-12.79,5.69.71,5,3.55,4.26,11.37-1.42,12.79-3.55,10.66-39.79,10.66-39.79l14.92-66.09,23.45-91.66,26.29-99.49Z"/>
        <path class="cls-14" d="M766.8,280.51s32.76-82-41.5-154.8-189.62-16.66-207.06,8.36-49.41,69.19-31.44,129.84,68.7,92.66,109.21,101,96.07-1.6,134-32.64C730,332.28,749.88,315.9,766.8,280.51Z"/>
        <path class="cls-15" d="M491.28,210.89s-2.28,56.47,46.87,79.34,87.49,30.68,109.77,17.07,40.74-20.85,47-62.46,11.84-61.47-23.57-75.16-75.78-13.23-88.78-.29-22.33,32.61-16.8,53.69,21.56,39.58,42.65,40.3,34.83.39,41.93-13.25,21.25-43.84-4.2-48.53-49.9-4-47.77,6,19.33,23.69,24.3,22,8.56-.85,5.24,3.47-40.93,9.1-40.89-9.9,2.09-46.29,25-43.67,56.17,15.79,63.11,24.79,2,57.51-21,71-57.14,22.73-84.09,2.31-49.78-61-34.58-92.45,50.51-67.46,94-62,81.52,36.55,89.61,50.2,23.26,67.05,8,95.53-38.74,65.92-71.55,69.68-88.56,2-104.49-10.68-41.16-37-49.79-51.53-11.3-34.9-12.16-43.89S491.28,210.89,491.28,210.89Z"/>
        <path class="cls-16" d="M552,314.77c-4.64-3.66,39.34,13.18,55.57,12s32.14-1,41.7-6,21.56-13.79,31.24-22.41,23.14-26.57,27.59-38.65,9.67-30.56,7.49-43.51-8-32.66-19.06-40.44-30.31-28.54-47-31.85-39.74-5.23-53.23.28-21.32,6.53-28.8,18.61S554.23,183,552,198.54s-4,16.57,3.79,34.54S567.31,260.73,581,267s29.29,10.75,37.68,10.58S645,269.3,645,269.3s-14.48,9.65-20.72,10.33-25.18.49-43.21-9.73-23.44-13-30.31-28.53-12.27-40.26-8.38-53.21,16.25-32.62,20.29-36.76,39.52-19,53.27-19.28,46.53,5.42,61.74,17.88,35.54,32,39.82,42.54,7.68,21.6,6.71,38.18-6.66,40.06-18.4,54-28.42,42.11-48,44.67S612.09,333,599,330.55,566.61,326.36,552,314.77Z"/>
        <path class="cls-17" d="M753.31,188.78c.12-3.62-12.29-30.76-31.81-44.25s-33.72-30.1-60.6-35.14-39.4-6.62-58-5.26a195,195,0,0,0-34,5.65s11.67-7.41,24.31-9.46,42.75-7.2,59.25-3.21,35.7,9.38,49.43,18.55,30,23.35,35.37,32.69,18.54,30.07,17.47,40.78S753.31,188.78,753.31,188.78Z"/>
      </g>
    </g>
  </g>
  <g>
    <path class="cls-18" d="M1331-241.29s-41.87,42.65-79,57.13-75.52,23.09-96.65,30.52-45.39,27.39-63.78,54-21.91,33.26-36.78,38.35-26.22,8.22-27.79,9S986.43,27.93,984.56,33.8s2,27.39,13.39,29.34,18.39,2.61,18.39,2.61,10.56,8.74,20.74-2.61c0,0,18.39,2.22,19.56-11.6s-12.91-23.61-12.91-23.61S1041-6.9,1057.82-14.33s43.43-5.87,64.56-11,38.74-18.78,38.74-18.78,112.77,5.49,135.78,8.61,70,2,93.92-3.13,67.3-23.48,78.65-58.7,13.7-82.17,13.7-82.17l-84.92-72.4Z"/>
    <path class="cls-19" d="M1206.12-166.16s-68.35,18.78-97.76,65-50.15,50.87-59.54,57.13-29,41.87-34.83,57.91-10.56,24.26-9.39,32.87S1014,59.62,1014,59.62,999.82,62,993.25,56.49s-7.43-20.35-2-30.13,39.13-77.48,39.13-77.48,27.39-4.69,35.21-11.34,19.87-22.39,34-43.05,40.3-37.56,52.43-42.65S1190.86-163,1206.12-166.16Z"/>
  </g>
</svg>
