<svg id="Layer_1" data-name="Layer 1" xmlns="http://www.w3.org/2000/svg" viewBox="0 0 1000 1000">
  <defs>
    <style>
      .cls-1 {
        font-size: 150px;
        fill: #ed2024;
        font-family: FreeSansBold, FreeSans;
      }

      .cls-2 {
        letter-spacing: -0.04em;
      }

      .cls-3 {
        letter-spacing: -0.01em;
      }

      .cls-3, .cls-4, .cls-5 {
        fill: #000;
      }

      .cls-4 {
        letter-spacing: -0.03em;
      }

      .cls-11, .cls-6 {
        fill: #a8a8ac;
      }

      .cls-6 {
        stroke: #929293;
      }

      .cls-10, .cls-16, .cls-6, .cls-9 {
        stroke-miterlimit: 10;
        stroke-width: 3px;
      }

      .cls-7 {
        fill: #a09f9f;
      }

      .cls-8 {
        fill: #e7e7e9;
      }

      .cls-9 {
        fill: #59a345;
        stroke: #4d8e41;
      }

      .cls-10 {
        fill: #ab7d51;
        stroke: #9e6e46;
      }

      .cls-12 {
        fill: #d0d2d2;
      }

      .cls-13 {
        fill: #010101;
      }

      .cls-14 {
        fill: #fff;
      }

      .cls-15 {
        fill: #bbbcbe;
      }

      .cls-16 {
        fill: #4b4b4f;
        stroke: #3b3b3d;
      }

      .cls-17 {
        fill: #57585c;
      }
    </style>
  </defs>
  <title>koala</title>
  <text class="cls-1" transform="translate(297.01 807.88)"><tspan class="cls-2">K</tspan><tspan class="cls-3" x="102.3" y="0">oa</tspan><tspan class="cls-4" x="272.85" y="0">l</tspan><tspan class="cls-5" x="310.8" y="0">a</tspan></text>
  <g>
    <path class="cls-6" d="M561.16,594s21-.8,34.36,12.78,34.62,12.52,52.19-9.05,36.75-63.25,33.82-90.61-18.11-45.47-42.61-38S608.05,497,603,503.94s-35.41,31.69-35.41,31.69l-12.52,49Z"/>
    <path class="cls-7" d="M566,577.22s18.91,5.32,33.29,14.91,24.5,10.92,33.29,6.92,31.16-39.41,34.62-45.8,8-17.84,8-17.84-10.28,36.75-26.1,55.12-28.2,23.74-40,20.77S590,595.06,579.32,593.19a83.76,83.76,0,0,1-20.24-6.65Z"/>
    <path class="cls-6" d="M407.77,403.68s2,34.75-25.56,65.51-33.16,47.13-33.16,51.13h4.8s-12.38,38.74,2.39,65.91l2.14-2s3.72,17.84,16.11,27.56l.13-3.86s21,26.5,54.72,24.9,34-64.18,34-64.18l39.54,47s46.34,8.51,66.71-29,23.94-40.26,24-56.73S580.34,452,580.34,452L545.19,389.3l-111.45-7.59Z"/>
    <path class="cls-8" d="M495.12,417.39s-32.22,51.93-15.44,104.39,30.35,57,30.35,57,45,7.79,53.13-25.93,14.52-91.78,14.52-91.78L551.4,408.87l-57.88-3.75Z"/>
    <path class="cls-7" d="M382.21,476.51S365.7,496,360.91,502.87a40.92,40.92,0,0,0-6.13,12.79h5.06s-4.53,7.19-5.06,11.18-7.46,26.1,1.86,53.26l3.47-7.46s3.72,21.57,11.18,32.23l2.13-8.79s14.12,20.24,23.44,25.56,21.3,6.13,21.3,6.13-13.85-24.23-14.11-35.95S399.52,578,399.52,578,392.82,588.09,385,583s-14.22-24.23-16.62-32.49.27-22.1,1.07-30.09,1.59-16,3.73-22.37,9.27-14.91,11.82-19.71,8.68-18.9,8.68-18.9Z"/>
    <path class="cls-6" d="M558.1,404.07s42.61,42.44,51.66,63.3,15.85,40.83,10.39,67.73-26.63,25.42-26.63,25.42-16.11,7.32-27.43,0c0,0-24.23-7.58-20.77-30.62,0,0,3.86-18.11,18.91-45.14S545,413.13,545,413.13V400.75Z"/>
    <path class="cls-7" d="M607.5,472s12,27.76,6,52.93-15.58,33.15-15.58,33.15,13.12-.4,20.24-23S614.09,481.17,607.5,472Z"/>
    <path class="cls-6" d="M573.35,537.49s4,10.41-7.26,23"/>
    <path class="cls-6" d="M603.11,538.19s3.49,8.71-9.59,22.33"/>
    <path class="cls-9" d="M664.62,313.6s-35.84,22.13-48.83,38.08"/>
    <path class="cls-9" d="M545,419.45s-30-23.26-53.32-28.66"/>
    <g>
      <path class="cls-10" d="M702.2,384.14S638.84,375.85,568,428.53c0,0-53.39,48-61.42,73.83,0,0,2.81,13.84,10.53,2.19s17.11-38,57.44-70.72,100-48.27,125.43-45.75C699.93,388.08,710.05,390.13,702.2,384.14Z"/>
      <path class="cls-9" d="M663.8,389.16s-15.83,17.91-10.93,40c0,0,4.91,15.36,18.15,24.49,0,0,17.67-21.95,11.56-40.74S663.8,389.16,663.8,389.16Z"/>
      <path class="cls-9" d="M664.52,391.67s10.39,44.16,6.41,58.3"/>
      <path class="cls-9" d="M694.14,385c.25-.19,14-22.36,39.73-20.15,0,0,17.4,2.68,31.61,14.86a61.26,61.26,0,0,1-29.2,19.81C717.29,405.35,694.14,385,694.14,385Z"/>
      <path class="cls-9" d="M696.48,386.86s-5.49,23.45-3,35.55S720.7,449.9,730,454c0,0,7.32-20.79,1-35.65S709,389.83,696.48,386.86Z"/>
      <path class="cls-9" d="M699,393s22.76,32.71,28.61,55.52"/>
      <path class="cls-9" d="M702.2,384.14s32.45-8.87,51.68-4.28"/>
    </g>
    <path class="cls-6" d="M450.65,445.88s10.25,23.71,33.22,15.72,12-16,42.39-15.72c0,0,12.41,1.48,14.87,10.73,0,0,18.17,6.32,13.91,27.36,0,0,5.91,17.37-10.06,31s-44.71,18-53.32,17.41S456.31,526,456.31,526"/>
    <path class="cls-6" d="M541.13,456.61s-5,14-14.87,17.24"/>
    <path class="cls-6" d="M555,484s-3.73,7.72-18.64,10.38"/>
    <path class="cls-6" d="M462.63,503.41s-46.71,5.68-52.73,45.6,8,84.08,26.37,94.47S483.14,662.26,510,632.9s-1.86-112.62-19.44-122S462.63,503.41,462.63,503.41Z"/>
    <path class="cls-11" d="M510,621.91s-21.83,32-52.19,19.44S407,571.15,426.68,532.49s63.38-17.1,66.58-13.37,21.3,20.77,23.43,74C516.69,593.15,516.16,612.06,510,621.91Z"/>
    <path class="cls-12" d="M462.9,532.49s-26.63,12.06-18.11,65.19,60.68,40.7,66,13.84-1.59-61.78-10.12-71.9S481.27,524.28,462.9,532.49Z"/>
    <path class="cls-6" d="M532.4,128.45S547.18,74,611.9,71.33,710.16,134,710.16,134L695,127.25s30.76,37.55,29.16,65.51S719,213.94,719,213.94l-8-14s12.78,57.53-11.58,90.28-69.91,54.73-73.5,56.32-61.52-149.39-61.52-149.39Z"/>
    <path class="cls-12" d="M562,148.82s10.64-42.74,60.65-30.35,60.19,83.88,57.29,101.06-24.31,75.16-49.17,79.09S562,148.82,562,148.82Z"/>
    <path class="cls-7" d="M686.59,133.64s11.59,41.15,12.79,59.52-3.6,42.74-8,59.12S681.4,285,677,291.83,659.29,317,659.29,317s34.07-17.18,40.27-37.16,13.4-54.79,10.2-70.93l-3.19-16.15s10.16,4.9,12.38,12.79c0,0,3.59-20,0-28.36S703.77,147.63,701.37,142s-9.32-16-11.45-17.17-6.52-8.65-6.52-8.65l16.37,9.45s-13.18-14.78-17.57-20a124.76,124.76,0,0,0-12-11.58S684.11,124.46,686.59,133.64Z"/>
    <path class="cls-6" d="M602.71,207.45s-20-77.8-77.5-98.17S395,101.69,367,141.63c0,0-51.13-58.72-118.64-21.17s-59.92,88.45-59.92,88.45l12.39-10.15s-27.56,45.13,4.39,91.87l3.6-14.38s4.79,59.52,49.53,91.08,99.86,21.57,99.86,21.57,52.2,46.74,145.14,37.15,123.29-54.33,123.29-54.33,34.36-43.14,15.58-92.27S602.71,207.45,602.71,207.45Z"/>
    <path class="cls-12" d="M353.05,199.55s-20.77-61.11-66.71-46.33S231.22,239.5,243.2,271.86s43.94,69.1,81.49,72.3S355.05,317,355.05,317,340.67,240.3,353.05,199.55Z"/>
    <path class="cls-6" d="M358.24,388.9s13.94-1.2,26.74-19.18"/>
    <path class="cls-6" d="M367,141.63s3.73,2.8,8,14.78"/>
    <ellipse class="cls-13" cx="492.96" cy="296.52" rx="26.96" ry="17.32" transform="translate(94.77 711.7) rotate(-77.22)"/>
    <ellipse class="cls-13" cx="600.97" cy="271.08" rx="15.52" ry="21.07" transform="translate(-50.42 169.38) rotate(-15.4)"/>
    <circle class="cls-14" cx="492.56" cy="285.76" r="7.34"/>
    <circle class="cls-14" cx="600.29" cy="263.45" r="6.19"/>
    <path class="cls-15" d="M532.4,342.56s-21.37,13.78-9.18,37.75,59.32,17.57,70.3-.31-.18-39.84-10-45.43S532.4,342.56,532.4,342.56Z"/>
    <path class="cls-16" d="M545.79,265.86s-23.37,4.2-22.57,56.53,46.33,43.34,53.32,39.74,30.52-16.66,17.56-50.87S561.36,263.67,545.79,265.86Z"/>
    <path class="cls-17" d="M549.18,271.08s-18.37,11.06-8.19,44.26,29.36,33.41,41,27.42,12.36-30.34,0-49.66S558.77,267.51,549.18,271.08Z"/>
  </g>
</svg>
