<?xml version="1.0" encoding="UTF-8" standalone="no"?>
<!-- Created with Inkscape (http://www.inkscape.org/) -->

<svg
   xmlns:dc="http://purl.org/dc/elements/1.1/"
   xmlns:cc="http://creativecommons.org/ns#"
   xmlns:rdf="http://www.w3.org/1999/02/22-rdf-syntax-ns#"
   xmlns:svg="http://www.w3.org/2000/svg"
   xmlns="http://www.w3.org/2000/svg"
   xmlns:sodipodi="http://sodipodi.sourceforge.net/DTD/sodipodi-0.dtd"
   xmlns:inkscape="http://www.inkscape.org/namespaces/inkscape"
   width="1000"
   height="1000"
   viewBox="0 0 264.58333 264.58334"
   version="1.1"
   id="svg2383"
   inkscape:version="0.92.5 (2060ec1f9f, 2020-04-08)"
   sodipodi:docname="See you again tomorrow.svg"
   enable-background="new">
  <defs
     id="defs2377" />
  <sodipodi:namedview
     id="base"
     pagecolor="#ffffff"
     bordercolor="#666666"
     borderopacity="1.0"
     inkscape:pageopacity="0.0"
     inkscape:pageshadow="2"
     inkscape:zoom="0.70710678"
     inkscape:cx="199.6151"
     inkscape:cy="431.98556"
     inkscape:document-units="px"
     inkscape:current-layer="layer1"
     showgrid="false"
     units="px"
     inkscape:window-width="1920"
     inkscape:window-height="1031"
     inkscape:window-x="0"
     inkscape:window-y="25"
     inkscape:window-maximized="1"
     showguides="false" />
  <metadata
     id="metadata2380">
    <rdf:RDF>
      <cc:Work
         rdf:about="">
        <dc:format>image/svg+xml</dc:format>
        <dc:type
           rdf:resource="http://purl.org/dc/dcmitype/StillImage" />
        <dc:title></dc:title>
      </cc:Work>
    </rdf:RDF>
  </metadata>
  <g
     inkscape:groupmode="layer"
     id="layer3"
     inkscape:label="Layer 2">
    <ellipse
       style="fill:#9fe0e8;fill-opacity:1;stroke-width:0.42381442"
       id="path3018"
       cx="132.05324"
       cy="209.64865"
       rx="104.28757"
       ry="28.604719" />
  </g>
  <g
     inkscape:groupmode="layer"
     id="layer2"
     inkscape:label="Layer 3" />
  <g
     inkscape:label="Layer 1"
     inkscape:groupmode="layer"
     id="layer1"
     transform="translate(0,-32.41665)">
    <text
       xml:space="preserve"
       style="font-style:normal;font-variant:normal;font-weight:bold;font-stretch:normal;font-size:10.58333302px;line-height:1.25;font-family:sans-serif;-inkscape-font-specification:'sans-serif Bold';letter-spacing:0px;word-spacing:0px;fill:#000000;fill-opacity:1;stroke:none;stroke-width:0.26458332"
       x="150.05655"
       y="89.869026"
       id="text8811" />
    <text
       xml:space="preserve"
       style="font-style:normal;font-variant:normal;font-weight:bold;font-stretch:normal;font-size:10.58333302px;line-height:1.25;font-family:sans-serif;-inkscape-font-specification:'sans-serif Bold';letter-spacing:0px;word-spacing:0px;fill:#000000;fill-opacity:1;stroke:none;stroke-width:0.26458332"
       x="160.63989"
       y="97.806526"
       id="text8815" />
    <text
       xml:space="preserve"
       style="font-style:normal;font-variant:normal;font-weight:bold;font-stretch:normal;font-size:10.58333302px;line-height:1.25;font-family:sans-serif;-inkscape-font-specification:'sans-serif Bold';letter-spacing:0px;word-spacing:0px;fill:#000000;fill-opacity:1;stroke:none;stroke-width:0.26458332"
       x="156.86011"
       y="88.7351"
       id="text8819" />
    <flowRoot
       xml:space="preserve"
       id="flowRoot8821"
       style="font-style:normal;font-variant:normal;font-weight:bold;font-stretch:normal;font-size:40px;line-height:1.25;font-family:sans-serif;-inkscape-font-specification:'sans-serif Bold';letter-spacing:0px;word-spacing:0px;fill:#000000;fill-opacity:1;stroke:none"><flowRegion
         id="flowRegion8823"
         style="font-style:normal;font-variant:normal;font-weight:bold;font-stretch:normal;font-family:sans-serif;-inkscape-font-specification:'sans-serif Bold'" /><flowPara
         id="flowPara8827" /></flowRoot>    <flowRoot
       xml:space="preserve"
       id="flowRoot8829"
       style="font-style:normal;font-variant:normal;font-weight:bold;font-stretch:normal;font-size:40px;line-height:1.25;font-family:sans-serif;-inkscape-font-specification:'sans-serif Bold';letter-spacing:0px;word-spacing:0px;fill:#000000;fill-opacity:1;stroke:none"><flowRegion
         id="flowRegion8831"
         style="font-style:normal;font-variant:normal;font-weight:bold;font-stretch:normal;font-family:sans-serif;-inkscape-font-specification:'sans-serif Bold'" /><flowPara
         id="flowPara8835" /></flowRoot>    <flowRoot
       xml:space="preserve"
       id="flowRoot8837"
       style="font-style:normal;font-variant:normal;font-weight:bold;font-stretch:normal;font-size:40px;line-height:1.25;font-family:sans-serif;-inkscape-font-specification:'sans-serif Bold';letter-spacing:0px;word-spacing:0px;fill:#000000;fill-opacity:1;stroke:none"><flowRegion
         id="flowRegion8839"
         style="font-style:normal;font-variant:normal;font-weight:bold;font-stretch:normal;font-family:sans-serif;-inkscape-font-specification:'sans-serif Bold'" /><flowPara
         id="flowPara8843" /></flowRoot>    <text
       xml:space="preserve"
       style="font-style:normal;font-variant:normal;font-weight:bold;font-stretch:normal;font-size:10.58333302px;line-height:1.25;font-family:sans-serif;-inkscape-font-specification:'sans-serif Bold';letter-spacing:0px;word-spacing:0px;fill:#000000;fill-opacity:1;stroke:none;stroke-width:0.26458332"
       x="209.39882"
       y="107.25594"
       id="text8847" />
    <flowRoot
       xml:space="preserve"
       id="flowRoot8849"
       style="font-style:normal;font-variant:normal;font-weight:bold;font-stretch:normal;font-size:40px;line-height:1.25;font-family:sans-serif;-inkscape-font-specification:'sans-serif Bold';letter-spacing:0px;word-spacing:0px;fill:#000000;fill-opacity:1;stroke:none"><flowRegion
         id="flowRegion8851"
         style="font-style:normal;font-variant:normal;font-weight:bold;font-stretch:normal;font-family:sans-serif;-inkscape-font-specification:'sans-serif Bold'" /><flowPara
         id="flowPara8855" /></flowRoot>    <flowRoot
       xml:space="preserve"
       id="flowRoot8857"
       style="font-style:normal;font-variant:normal;font-weight:bold;font-stretch:normal;font-size:40px;line-height:1.25;font-family:sans-serif;-inkscape-font-specification:'sans-serif Bold';letter-spacing:0px;word-spacing:0px;fill:#000000;fill-opacity:1;stroke:none"><flowRegion
         id="flowRegion8859"
         style="font-style:normal;font-variant:normal;font-weight:bold;font-stretch:normal;font-family:sans-serif;-inkscape-font-specification:'sans-serif Bold'" /><flowPara
         id="flowPara8863" /></flowRoot>    <flowRoot
       xml:space="preserve"
       id="flowRoot8865"
       style="font-style:normal;font-variant:normal;font-weight:bold;font-stretch:normal;font-size:40px;line-height:1.25;font-family:sans-serif;-inkscape-font-specification:'sans-serif Bold';letter-spacing:0px;word-spacing:0px;fill:#000000;fill-opacity:1;stroke:none"><flowRegion
         id="flowRegion8867"
         style="font-style:normal;font-variant:normal;font-weight:bold;font-stretch:normal;font-family:sans-serif;-inkscape-font-specification:'sans-serif Bold'" /><flowPara
         id="flowPara8871" /></flowRoot>    <flowRoot
       xml:space="preserve"
       id="flowRoot8873"
       style="font-style:normal;font-variant:normal;font-weight:bold;font-stretch:normal;font-size:40px;line-height:1.25;font-family:sans-serif;-inkscape-font-specification:'sans-serif Bold';letter-spacing:0px;word-spacing:0px;fill:#000000;fill-opacity:1;stroke:none"><flowRegion
         id="flowRegion8875"
         style="font-style:normal;font-variant:normal;font-weight:bold;font-stretch:normal;font-family:sans-serif;-inkscape-font-specification:'sans-serif Bold'" /><flowPara
         id="flowPara8879" /></flowRoot>    <path
       d="M 69.600984,80.822109 C 20.838022,64.920801 65.620654,39.956211 143.80838,38.547202 221.99614,37.137291 284.28296,56.395897 240.55563,75.185151 196.8206,93.977129 102.7346,91.628459 69.600984,80.822109"
       style="fill:#50c9c9;fill-opacity:1;fill-rule:nonzero;stroke:none;stroke-width:0.15249158"
       id="path6821"
       inkscape:connector-curvature="0" />
    <path
       d="m 112.92581,100.58755 c -6.94375,-3.849616 -0.56555,-9.892435 10.57208,-10.234675 11.13897,-0.339013 20.01042,4.321146 13.78135,8.868321 -6.23177,4.547474 -19.63428,3.980764 -24.35343,1.366354"
       style="fill:#50c9c9;fill-opacity:1;fill-rule:nonzero;stroke:none;stroke-width:0.1042554"
       id="path6823"
       inkscape:connector-curvature="0" />
    <path
       d="m 106.5612,112.05576 c -4.75643,-2.83269 -0.38652,-7.27244 7.23966,-7.52442 7.63113,-0.24897 13.70456,3.17666 9.44064,6.51862 -4.26713,3.34518 -13.4479,2.92386 -16.6803,1.0058"
       style="fill:#50c9c9;fill-opacity:1;fill-rule:nonzero;stroke:none;stroke-width:0.12897873"
       id="path6825"
       inkscape:connector-curvature="0" />
    <path
       d="m 100.63256,118.97487 c 3.68743,17.84513 -9.352684,24.05806 5.16631,40.96209 36.8379,42.88829 -80.844306,82.80944 -91.409242,52.64714 -8.4567594,-19.21536 13.747165,-32.45768 6.068425,-42.01887 -17.2676833,-21.50095 14.063857,-27.85003 14.066309,-47.09675 18.793601,-11.59231 57.049567,-7.99413 66.108198,-4.49361"
       style="fill:#ed1c24;fill-opacity:1;fill-rule:nonzero;stroke:none;stroke-width:0.0126712"
       id="path22435"
       inkscape:connector-curvature="0" />
    <path
       d="m 58.384828,170.43924 c 0,0 -9.420613,-2.04021 -16.501454,12.45349 1.506191,3.11733 11.861594,10.03861 15.499779,10.19927 6.702395,0.29599 5.821768,-21.32076 1.001675,-22.65276"
       style="fill:#2f8677;fill-opacity:1;fill-rule:nonzero;stroke:none;stroke-width:0.0126712"
       id="path22437"
       inkscape:connector-curvature="0" />
    <path
       d="m 59.020666,170.81612 c -8.786759,-1.91106 -21.946997,16.00037 -19.469828,31.22925 0.961871,4.31618 16.141336,14.33359 23.20595,9.21003 7.064616,-5.12218 2.377597,-40.8394 -3.736122,-40.43928"
       style="fill:#33baab;fill-opacity:1;fill-rule:nonzero;stroke:none;stroke-width:0.0126712"
       id="path22439"
       inkscape:connector-curvature="0" />
    <path
       d="m 63.439084,175.5474 c 4.07873,8.84706 5.920763,30.60644 0.285644,34.69153 -2.663472,1.93253 -4.283126,1.05636 -9.802559,0.64098 -5.129552,-1.53501 -5.742393,-3.73161 -6.533137,-5.19096 -2.037903,-3.76187 7.743879,-23.1321 10.800737,-26.97402 1.536891,-1.93169 3.588571,-2.79052 5.249315,-3.16753"
       style="fill:#2f8677;fill-opacity:1;fill-rule:nonzero;stroke:none;stroke-width:0.0126712"
       id="path22441"
       inkscape:connector-curvature="0" />
    <path
       d="m 48.447557,189.80741 c 0,0 -5.289822,-3.35459 -6.749786,-3.26849 -1.459966,0.086 -4.037523,7.05319 -3.113708,9.11746 0.9237,2.06457 6.393523,6.27895 9.863494,-5.84897"
       style="fill:#2f8677;fill-opacity:1;fill-rule:nonzero;stroke:none;stroke-width:0.0126712"
       id="path22443"
       inkscape:connector-curvature="0" />
    <path
       d="m 97.811024,158.53497 c -0.448598,0.008 -0.454081,1.46059 -0.529961,1.81092 -0.01284,-0.0572 -0.138557,-1.85452 -0.161906,-2.24584 -0.05475,-0.91412 -0.799495,-0.96817 -0.874204,-0.17344 -0.06252,0.6664 -0.114868,2.20581 -0.121748,2.28518 -0.01729,-0.0736 -0.243854,-1.91464 -0.28086,-2.2552 -0.109148,-1.00147 -1.069614,-1.00188 -0.96292,0.15281 0.07055,0.78127 0.239654,2.15218 0.226809,2.2739 -0.04148,-0.0401 -0.375756,-1.01426 -0.608294,-1.57228 -0.384165,-0.921 -1.104166,-0.66269 -0.825638,0.46312 0.2226,0.88923 0.669216,3.0436 0.669216,3.0436 0,0 -1.196147,-0.57865 -1.455177,0.20536 -0.264976,0.78676 1.852423,1.71766 1.852423,1.71766 l 0.11836,0.005 c -0.149061,1.81271 -1.108253,8.186 -7.990294,9.80877 0.490507,0.85553 0.865564,2.08175 0.91891,2.7696 8.124888,-0.46352 9.765791,-11.13401 9.797427,-12.5931 0,0 0.757591,-0.14359 0.644828,-3.27701 -0.0468,-1.29802 0.01589,-2.42534 -0.416971,-2.41914"
       style="fill:#fabd99;fill-opacity:1;fill-rule:nonzero;stroke:none;stroke-width:0.0126712"
       id="path22445"
       inkscape:connector-curvature="0" />
    <path
       d="m 75.893797,213.35709 c 0,0 -2.812072,30.98759 -2.665923,34.07961 -1.735219,0.52405 -2.827247,2.33827 -2.827247,2.33827 l 1.006346,-34.70131 4.486824,-1.71657"
       style="fill:#fabd99;fill-opacity:1;fill-rule:nonzero;stroke:none;stroke-width:0.0126712"
       id="path22447"
       inkscape:connector-curvature="0" />
    <path
       d="m 69.899729,248.42565 c -1.866074,3.04663 4.695543,8.36963 7.637653,6.67782 2.251059,-0.81427 1.220666,-3.57067 1.220666,-3.57067 l -8.858319,-3.10715"
       style="fill:#ffffff;fill-opacity:1;fill-rule:nonzero;stroke:none;stroke-width:0.0126712"
       id="path22449"
       inkscape:connector-curvature="0" />
    <path
       d="m 69.939305,245.22909 c -0.222377,0.66985 -0.595685,2.30526 0.03034,3.68073 2.520125,3.52527 4.327251,5.52792 7.521853,4.49909 2.504715,-0.80739 0.836733,-3.31209 -0.482453,-4.30516 -1.317671,-0.99446 -3.833475,-3.75774 -3.833475,-3.75774 0,0 -0.978214,1.17051 -3.236275,-0.11692"
       style="fill:#33baab;fill-opacity:1;fill-rule:nonzero;stroke:none;stroke-width:0.0126712"
       id="path22451"
       inkscape:connector-curvature="0" />
    <path
       d="m 73.175579,245.34601 c 1.644753,-2.31902 -4.597489,-1.95314 -2.387168,0.27233 0.37436,0.45391 1.938451,0.35625 2.387168,-0.27233"
       style="fill:#33baab;fill-opacity:1;fill-rule:nonzero;stroke:none;stroke-width:0.0126712"
       id="path22453"
       inkscape:connector-curvature="0" />
    <path
       d="m 71.870631,247.69528 c 0.08171,0 0.162142,-0.0454 0.212454,-0.13067 0.405993,-0.68497 1.366695,-1.20214 2.271369,-0.88166 0.137159,0.0481 0.281322,-0.0426 0.322412,-0.20356 0.04109,-0.16093 -0.03642,-0.33149 -0.173229,-0.37963 -1.088524,-0.66985 -3.709856,1.12924 -2.633006,1.59552"
       style="fill:#ffffff;fill-opacity:1;fill-rule:nonzero;stroke:none;stroke-width:0.0126712"
       id="path22455"
       inkscape:connector-curvature="0" />
    <path
       d="m 72.854798,248.70624 c 0.08171,0 0.162141,-0.0454 0.212453,-0.13066 0.405994,-0.68498 1.36623,-1.20216 2.271486,-0.88167 0.137042,0.0481 0.281206,-0.0426 0.322297,-0.20358 0.04121,-0.1623 -0.0363,-0.33148 -0.17323,-0.37961 -1.088994,-0.67123 -3.709624,1.12924 -2.633006,1.59552"
       style="fill:#ffffff;fill-opacity:1;fill-rule:nonzero;stroke:none;stroke-width:0.0126712"
       id="path22457"
       inkscape:connector-curvature="0" />
    <path
       d="m 73.839084,249.7172 c 0.08171,0 0.162138,-0.0454 0.212451,-0.13066 0.405876,-0.68499 1.366229,-1.20354 2.271484,-0.88168 0.136927,0.0481 0.281211,-0.0426 0.322413,-0.20356 0.04121,-0.16231 -0.03642,-0.33149 -0.173345,-0.381 -1.089226,-0.66984 -3.709625,1.13062 -2.633003,1.5969"
       style="fill:#ffffff;fill-opacity:1;fill-rule:nonzero;stroke:none;stroke-width:0.0126712"
       id="path22459"
       inkscape:connector-curvature="0" />
    <path
       d="m 58.17471,213.35709 c 0,0 -4.261181,33.8334 -4.40733,36.92542 1.735222,0.52404 2.827131,2.33827 2.827131,2.33827 l 6.066907,-37.54712 -4.486708,-1.71657"
       style="fill:#fabd99;fill-opacity:1;fill-rule:nonzero;stroke:none;stroke-width:0.0126712"
       id="path22461"
       inkscape:connector-curvature="0" />
    <path
       d="m 57.095524,251.27146 c 1.866077,3.04663 -4.695539,8.36963 -7.637649,6.67783 -2.251059,-0.81428 -1.220782,-3.57068 -1.220782,-3.57068 l 8.858431,-3.10715"
       style="fill:#ffffff;fill-opacity:1;fill-rule:nonzero;stroke:none;stroke-width:0.0126712"
       id="path22463"
       inkscape:connector-curvature="0" />
    <path
       d="m 57.055837,248.07491 c 0.222489,0.67123 0.595681,2.30526 -0.03034,3.68071 -2.520006,3.52529 -4.327132,5.52794 -7.521734,4.49911 -2.504834,-0.8074 -0.836853,-3.3121 0.482453,-4.30518 1.317552,-0.99445 3.833474,-3.75773 3.833474,-3.75773 0,0 0.978214,1.17051 3.236159,-0.11691"
       style="fill:#33baab;fill-opacity:1;fill-rule:nonzero;stroke:none;stroke-width:0.0126712"
       id="path22465"
       inkscape:connector-curvature="0" />
    <path
       d="m 53.819678,248.19182 c -1.644753,-2.31763 4.597485,-1.95315 2.387165,0.27235 -0.374357,0.4539 -1.938447,0.35623 -2.387165,-0.27235"
       style="fill:#33baab;fill-opacity:1;fill-rule:nonzero;stroke:none;stroke-width:0.0126712"
       id="path22467"
       inkscape:connector-curvature="0" />
    <path
       d="m 55.124623,250.54109 c -0.08171,0 -0.162141,-0.0454 -0.212451,-0.12929 -0.405996,-0.68635 -1.366699,-1.20214 -2.271488,-0.88303 -0.137043,0.0481 -0.281207,-0.0426 -0.322297,-0.20358 -0.04109,-0.16093 0.03642,-0.33148 0.173232,-0.37962 1.088525,-0.66985 3.709857,1.12924 2.633004,1.59552"
       style="fill:#ffffff;fill-opacity:1;fill-rule:nonzero;stroke:none;stroke-width:0.0126712"
       id="path22469"
       inkscape:connector-curvature="0" />
    <path
       d="m 54.140339,251.55205 c -0.08159,0 -0.16214,-0.0454 -0.212333,-0.13067 -0.406112,-0.68498 -1.366231,-1.20214 -2.271489,-0.88166 -0.137043,0.0481 -0.281206,-0.0426 -0.322413,-0.20357 -0.04109,-0.16093 0.03642,-0.33149 0.173349,-0.37963 1.08899,-0.67121 3.709621,1.12926 2.632886,1.59553"
       style="fill:#ffffff;fill-opacity:1;fill-rule:nonzero;stroke:none;stroke-width:0.0126712"
       id="path22471"
       inkscape:connector-curvature="0" />
    <path
       d="m 53.156173,252.56301 c -0.08171,0 -0.162141,-0.0454 -0.21245,-0.13067 -0.405877,-0.68498 -1.366233,-1.20351 -2.271489,-0.88167 -0.136926,0.0481 -0.281322,-0.0426 -0.322412,-0.20356 -0.04121,-0.1623 0.03642,-0.33148 0.173348,-0.381 1.089222,-0.66984 3.709621,1.13062 2.633003,1.5969"
       style="fill:#ffffff;fill-opacity:1;fill-rule:nonzero;stroke:none;stroke-width:0.0126712"
       id="path22473"
       inkscape:connector-curvature="0" />
    <path
       d="m 68.494394,195.36562 c -0.0258,-0.007 -6.408581,-0.0176 -12.000038,-1.28771 0.01939,4.46142 -4.826281,37.48881 -6.401228,46.28482 1.294674,2.41668 11.473344,2.41668 13.041988,1.29844 3.402151,-38.90744 6.178039,-47.3358 4.461494,-1.4236 1.724128,1.37958 11.361282,1.66294 12.469884,-0.1623 -0.160271,-8.58834 0.408214,-41.43553 0.428173,-45.99736 -5.591923,1.27011 -11.974592,1.28096 -12.000273,1.28771"
       style="fill:#f0359a;fill-opacity:1;fill-rule:nonzero;stroke:none;stroke-width:0.0126712"
       id="path22475"
       inkscape:connector-curvature="0" />
    <path
       d="m 80.311047,234.29424 c 0,0 0.244905,6.2143 -0.315642,6.74797 -0.975411,0.92844 -7.502591,1.91876 -12.989692,0.4319 -0.273503,-1.93389 0.179534,-6.35872 0.179534,-6.35872 0,0 9.251821,1.86511 13.1258,-0.82115"
       style="fill:#cc247b;fill-opacity:1;fill-rule:nonzero;stroke:none;stroke-width:0.0126712"
       id="path22477"
       inkscape:connector-curvature="0" />
    <path
       d="m 50.460833,234.49781 c 0,0 -1.107435,6.62005 -0.547003,7.15373 0.975411,0.92844 8.84816,2.28601 13.332181,1.24478 0.273504,-1.9325 0.603388,-6.56091 0.603388,-6.56091 0,0 -9.514583,0.84729 -13.388566,-1.8376"
       style="fill:#cc247b;fill-opacity:1;fill-rule:nonzero;stroke:none;stroke-width:0.0126712"
       id="path22479"
       inkscape:connector-curvature="0" />
    <path
       d="m 79.136611,206.09607 c -2.113782,0.30673 -4.111882,-1.82246 -4.084802,-4.32579 -0.0079,-0.65472 0.854595,-0.65472 0.862533,0 -0.01727,1.96964 1.570976,3.58856 3.222384,3.30934 0.555408,-0.0138 0.558796,1.01233 -8.9e-5,1.01645"
       style="fill:#8f3541;fill-opacity:1;fill-rule:nonzero;stroke:none;stroke-width:0.0126712"
       id="path22481"
       inkscape:connector-curvature="0" />
    <path
       d="m 60.227792,201.84593 c -0.468797,2.03429 -2.214988,3.53215 -4.006939,3.39186 -0.232532,-0.0179 -0.431326,-0.22007 -0.431326,-0.50891 0,-0.25996 0.197629,-0.52542 0.431326,-0.50754 1.412572,0.11141 2.800746,-1.02058 3.175106,-2.645 0.145332,-0.62996 0.977748,-0.36312 0.831833,0.26959 v 0"
       style="fill:#8f3541;fill-opacity:1;fill-rule:nonzero;stroke:none;stroke-width:0.0126712"
       id="path22483"
       inkscape:connector-curvature="0" />
    <path
       d="m 68.703344,198.92446 c -0.127821,2.47994 -0.124437,4.96127 -0.155368,7.44534 -0.0019,0.1623 -0.217705,0.16367 -0.215604,0 0.03094,-2.48407 0.02743,-4.9654 0.155368,-7.44534 0.0083,-0.1623 0.224008,-0.16367 0.215604,0 v 0"
       style="fill:#8f3541;fill-opacity:1;fill-rule:nonzero;stroke:none;stroke-width:0.0126712"
       id="path22485"
       inkscape:connector-curvature="0" />
    <path
       d="m 66.434661,198.95748 c -0.489925,2.39466 -0.418719,6.50176 2.033936,7.2899 0.13564,0.0344 0.07832,0.27922 -0.05708,0.24483 -2.610244,-0.80739 -2.687988,-5.08505 -2.18487,-7.60213 0.04319,-0.15404 0.251439,-0.088 0.208016,0.0674 v 0"
       style="fill:#8f3541;fill-opacity:1;fill-rule:nonzero;stroke:none;stroke-width:0.0126712"
       id="path22487"
       inkscape:connector-curvature="0" />
    <path
       d="m 74.330173,170.80925 c 0,0 -2.234598,-0.32241 -3.856822,-0.49503 -0.151752,-1.99592 0,-4.81326 0,-4.81326 l -4.141065,-0.38334 c 0,0 -0.03584,3.85401 0,5.16454 -1.700201,0.41182 -3.814098,0.63519 -4.650365,0.75294 1.8495,6.34317 12.219963,7.53692 12.648252,-0.22585"
       style="fill:#fabd99;fill-opacity:1;fill-rule:nonzero;stroke:none;stroke-width:0.0126712"
       id="path22489"
       inkscape:connector-curvature="0" />
    <path
       d="m 70.193311,168.78966 0.0019,1.53831 c 0,0 -1.977791,-1.20407 -3.595225,0 0.04984,-0.90532 0.04984,-1.74999 0.04984,-1.74999 l 3.543282,0.21168"
       style="fill:#efa378;fill-opacity:1;fill-rule:nonzero;stroke:none;stroke-width:0.0126712"
       id="path22491"
       inkscape:connector-curvature="0" />
    <path
       d="m 55.789527,182.47281 c -4.333786,2.22163 -2.364288,4.24134 -2.364288,4.24134 0,0 -4.078259,6.87054 -6.123755,6.38087 -8.061971,-13.89332 4.13803,-20.75393 10.057272,-21.63946 0.252257,3.96282 -1.569229,11.01725 -1.569229,11.01725"
       style="fill:#4a6cbd;fill-opacity:1;fill-rule:nonzero;stroke:none;stroke-width:0.0126712"
       id="path22493"
       inkscape:connector-curvature="0" />
    <path
       d="m 73.081258,170.56028 c 0,0 3.503124,0.64537 5.592974,1.89951 1.330044,3.22735 5.423366,32.79589 4.426007,33.33919 -5.031611,2.74128 -24.435369,2.77979 -29.559902,-0.83902 0.804634,-13.63775 3.506158,-30.88884 4.705462,-32.50017 0.808605,-1.08634 5.548268,-1.89951 5.548268,-1.89951 1.0465,6.9393 8.392673,6.08776 9.287191,0"
       style="fill:#ffffff;fill-opacity:1;fill-rule:nonzero;stroke:none;stroke-width:0.0126712"
       id="path22495"
       inkscape:connector-curvature="0" />
    <path
       d="m 65.246796,170.04875 c -0.488989,4.09143 -2.565418,33.12999 -1.959813,44.37157 -5.675738,1.74958 -12.732415,1.24753 -12.732415,1.24753 0,0 4.328069,-35.74513 7.710843,-43.82702 1.271677,-0.64441 6.981385,-1.79208 6.981385,-1.79208"
       style="fill:#4a6cbd;fill-opacity:1;fill-rule:nonzero;stroke:none;stroke-width:0.0126712"
       id="path22497"
       inkscape:connector-curvature="0" />
    <path
       d="m 61.218144,214.95263 c -0.32603,-12.09299 1.295024,-39.10813 1.823818,-44.43334 1.23164,-0.27481 2.204834,-0.47054 2.204834,-0.47054 -0.488989,4.09143 -2.565418,33.12999 -1.959813,44.37157 -0.674824,0.20769 -1.369149,0.38375 -2.068839,0.53231"
       style="fill:#070605;fill-opacity:1;fill-rule:nonzero;stroke:none;stroke-width:0.0126712"
       id="path22499"
       inkscape:connector-curvature="0" />
    <path
       d="m 55.937195,171.85004 c -0.16868,0.78581 1.131129,8.13072 1.974518,9.86888 0.445567,0.91839 4.292698,0.71042 4.678616,-1.33804 0.524357,-2.7835 0.209767,-8.32754 -0.04634,-10.04012 -0.993039,-0.85182 -6.621733,0.14553 -6.60679,1.50928"
       style="fill:#f69e4f;fill-opacity:1;fill-rule:nonzero;stroke:none;stroke-width:0.0126712"
       id="path22501"
       inkscape:connector-curvature="0" />
    <path
       d="m 57.792531,170.09579 c 1.768838,20.53222 0.02485,20.56248 -6.923369,38.11023 l 2.513356,1.28743 c 7.224184,-17.56317 9.043453,-19.36542 7.341849,-39.8715 l -2.931836,0.47384"
       style="fill:#070605;fill-opacity:1;fill-rule:nonzero;stroke:none;stroke-width:0.0126712"
       id="path22503"
       inkscape:connector-curvature="0" />
    <path
       d="m 52.714344,186.98305 c 1.142688,0.68966 2.765145,0.78045 2.789423,0.65499 2.31608,0.13122 2.567403,-2.33881 2.919117,-1.498 0.232879,0.55678 0.06175,1.40585 0.103073,2.32988 0.127705,0.99061 2.478101,0.0956 2.576973,-0.0746 0.663388,0.48403 0.158173,1.29871 -0.08288,1.27354 0.469144,0.096 0.370975,0.97286 -0.244904,1.28109 0.248173,0.36615 -0.181634,1.15209 -1.066695,1.28344 -2.622149,0.38912 -4.765113,-1.57531 -4.765113,-1.57531 -1.484712,-0.32378 -2.844407,-0.68044 -4.018262,-1.09994 -0.05592,-0.78181 0.64646,-3.26492 1.789268,-2.57514"
       style="fill:#fabd99;fill-opacity:1;fill-rule:nonzero;stroke:none;stroke-width:0.0126712"
       id="path22505"
       inkscape:connector-curvature="0" />
    <path
       d="m 52.457184,183.88306 c 0,0 -5.112742,4.8372 -7.586056,8.18862 0.973194,1.80309 3.967834,3.5627 3.967834,3.5627 l 5.701184,-9.43396 -2.082962,-2.31736"
       style="fill:#070605;fill-opacity:1;fill-rule:nonzero;stroke:none;stroke-width:0.0126712"
       id="path22507"
       inkscape:connector-curvature="0" />
    <path
       d="m 78.551316,171.85004 c 6.003401,2.153 11.710193,-2.37595 11.710193,-2.37595 0,0 3.624059,3.54812 5.430832,6.7404 -2.973625,6.78676 -13.169224,8.46592 -15.781334,7.34616 -0.946577,-6.98702 -1.359691,-11.71061 -1.359691,-11.71061"
       style="fill:#4a6cbd;fill-opacity:1;fill-rule:nonzero;stroke:none;stroke-width:0.0126712"
       id="path22509"
       inkscape:connector-curvature="0" />
    <path
       d="m 87.712666,170.49426 6.850414,9.1806 3.349967,-4.47944 c 0,0 -5.487214,-6.70175 -7.15158,-7.68658 -0.557274,0.89239 -3.048801,2.98542 -3.048801,2.98542"
       style="fill:#070605;fill-opacity:1;fill-rule:nonzero;stroke:none;stroke-width:0.0126712"
       id="path22511"
       inkscape:connector-curvature="0" />
    <path
       d="m 71.569931,170.0581 c 0.488988,4.09129 2.565419,33.13028 1.95981,44.37048 5.675739,1.74957 12.732417,1.24891 12.732417,1.24891 0,0 -4.328071,-35.74556 -7.710842,-43.82745 -1.271677,-0.64439 -6.981385,-1.79194 -6.981385,-1.79194"
       style="fill:#4a6cbd;fill-opacity:1;fill-rule:nonzero;stroke:none;stroke-width:0.0126712"
       id="path22513"
       inkscape:connector-curvature="0" />
    <path
       d="m 71.569931,169.93418 c 0,0 1.12903,0 2.338022,0.42103 0.548992,5.08958 2.715652,32.7919 2.384366,44.74596 -0.933153,-0.17469 -1.865141,-0.39613 -2.762578,-0.67259 0.605609,-11.2402 -1.470822,-40.40298 -1.95981,-44.4944"
       style="fill:#070605;fill-opacity:1;fill-rule:nonzero;stroke:none;stroke-width:0.0126712"
       id="path22515"
       inkscape:connector-curvature="0" />
    <path
       d="m 72.698961,177.82432 c -0.0133,1.07204 1.415724,1.07204 1.4023,0 0.0133,-1.07189 -1.415722,-1.07189 -1.4023,0"
       style="fill:#33baab;fill-opacity:1;fill-rule:nonzero;stroke:none;stroke-width:0.0126712"
       id="path22517"
       inkscape:connector-curvature="0" />
    <path
       d="m 73.40017,187.40682 c -0.0133,1.07204 1.415725,1.07204 1.4023,-9e-5 0.0133,-1.07189 -1.415724,-1.07189 -1.4023,9e-5"
       style="fill:#33baab;fill-opacity:1;fill-rule:nonzero;stroke:none;stroke-width:0.0126712"
       id="path22519"
       inkscape:connector-curvature="0" />
    <path
       d="m 73.812467,198.59573 c -0.0133,1.07285 1.415725,1.07285 1.4023,0 0.0133,-1.07148 -1.415725,-1.07148 -1.4023,0"
       style="fill:#33baab;fill-opacity:1;fill-rule:nonzero;stroke:none;stroke-width:0.0126712"
       id="path22521"
       inkscape:connector-curvature="0" />
    <path
       d="m 74.513676,208.88275 c -0.0133,1.07285 1.415725,1.07285 1.402301,0 0.0133,-1.07149 -1.415725,-1.07149 -1.402301,0"
       style="fill:#33baab;fill-opacity:1;fill-rule:nonzero;stroke:none;stroke-width:0.0126712"
       id="path22523"
       inkscape:connector-curvature="0" />
    <path
       d="m 44.237507,141.27372 c 0.09502,16.83857 11.308052,27.96077 25.069109,27.85376 13.759656,-0.10674 24.850006,-11.40197 24.754986,-28.24301 -0.09397,-16.83693 -11.319146,-29.79231 -25.079619,-29.6864 -13.760356,0.10729 -24.83833,13.23873 -24.744476,30.07565"
       style="fill:#fabd99;fill-opacity:1;fill-rule:nonzero;stroke:none;stroke-width:0.0126712"
       id="path22525"
       inkscape:connector-curvature="0" />
    <path
       d="m 44.237507,141.27372 c 0.09502,16.83857 11.308052,27.96077 25.069109,27.85376 13.759656,-0.10674 24.850006,-11.40197 24.754986,-28.24301 -0.09397,-16.83693 -11.319146,-29.79231 -25.079619,-29.6864 -13.760356,0.10729 -24.83833,13.23873 -24.744476,30.07565"
       style="fill:#fabd99;fill-opacity:1;fill-rule:nonzero;stroke:none;stroke-width:0.0126712"
       id="path22527"
       inkscape:connector-curvature="0" />
    <path
       d="m 45.232062,141.39339 c 0,0 -0.354282,-3.41801 -3.859506,-3.98606 -3.697132,-0.59558 -5.27068,5.0988 -3.341452,8.56494 1.929463,3.46064 6.05395,3.61881 7.383293,0.97244 l -0.182335,-5.55132"
       style="fill:#fabd99;fill-opacity:1;fill-rule:nonzero;stroke:none;stroke-width:0.0126712"
       id="path22529"
       inkscape:connector-curvature="0" />
    <path
       d="m 40.622786,138.88319 c 2.421836,-0.41815 4.242271,4.6449 0.909809,7.12622 1.470472,-3.4799 0.239534,-4.73569 -1.53304,-3.11128 0.04891,-1.15125 0.66829,-1.85549 2.117399,-1.67943 -0.07436,-1.52675 -1.494168,-2.33551 -1.494168,-2.33551"
       style="fill:#d37658;fill-opacity:1;fill-rule:nonzero;stroke:none;stroke-width:0.0126712"
       id="path22531"
       inkscape:connector-curvature="0" />
    <path
       d="m 67.347854,144.48403 c 0.638757,0.6052 1.096579,-1.44836 2.615728,-1.28605 1.550783,0.16643 1.561289,2.30801 2.359268,1.7028 0.651133,-0.4924 0.100274,-3.15941 -2.447166,-3.33684 -2.125804,-0.14855 -3.135069,2.34515 -2.52783,2.92009"
       style="fill:#ee5b63;fill-opacity:1;fill-rule:nonzero;stroke:none;stroke-width:0.0126712"
       id="path22533"
       inkscape:connector-curvature="0" />
    <path
       d="m 93.386186,148.02031 c -1.470117,7.26653 -5.247563,13.04701 -10.377582,16.70832 -0.361283,-0.27674 -0.704475,-0.59502 -1.023969,-0.95745 -3.087211,-3.50218 -2.854447,-9.69061 0.519688,-13.81972 3.092229,-3.78525 7.748899,-4.528 10.881863,-1.93115"
       style="fill:#f79883;fill-opacity:1;fill-rule:nonzero;stroke:none;stroke-width:0.0126712"
       id="path22535"
       inkscape:connector-curvature="0" />
    <path
       d="m 44.986107,148.36418 c 2.962539,-2.66288 7.514384,-2.28325 10.767468,1.12786 3.635263,3.81139 4.271803,9.95981 1.422962,13.73226 -0.505566,0.66943 -1.088058,1.21673 -1.722732,1.64684 -5.126514,-3.59104 -8.930804,-9.2967 -10.467698,-16.50696"
       style="fill:#f79883;fill-opacity:1;fill-rule:nonzero;stroke:none;stroke-width:0.0126712"
       id="path22537"
       inkscape:connector-curvature="0" />
    <path
       d="m 84.373669,128.83275 c -2.468532,-1.16364 -3.294174,2.06592 -1.6067,2.28324 1.809812,0.22971 3.254838,1.19665 3.498339,1.01922 0.540587,-0.39063 -0.502647,-2.6505 -1.891639,-3.30246"
       style="fill:#ed1c24;fill-opacity:1;fill-rule:nonzero;stroke:none;stroke-width:0.0126712"
       id="path22539"
       inkscape:connector-curvature="0" />
    <path
       d="m 54.557772,129.06795 c 2.570087,-0.80464 3.058727,2.51708 1.362147,2.49507 -1.820901,-0.0302 -3.353127,0.72487 -3.577017,0.51442 -0.496578,-0.4649 0.769146,-2.55834 2.21487,-3.00949"
       style="fill:#ed1c24;fill-opacity:1;fill-rule:nonzero;stroke:none;stroke-width:0.0126712"
       id="path22541"
       inkscape:connector-curvature="0" />
    <path
       d="m 80.37128,151.19762 c -0.286107,-2.96823 -5.894726,-4.11399 -10.98832,-4.11399 -5.093483,0 -10.702099,1.14576 -10.988209,4.11399 -0.286226,2.96671 3.834408,9.91262 10.988209,9.91262 7.153912,0 11.27455,-6.94591 10.98832,-9.91262"
       style="fill:#4e1a1e;fill-opacity:1;fill-rule:nonzero;stroke:none;stroke-width:0.0126712"
       id="path22543"
       inkscape:connector-curvature="0" />
    <path
       d="m 60.700437,156.79736 c 1.879737,2.31228 4.843677,4.31288 8.682639,4.31288 3.838961,0 6.802784,-2.0006 8.682518,-4.31288 -2.162459,-1.04438 -5.521184,-1.48659 -8.682518,-1.48659 -3.161451,0 -6.520061,0.44221 -8.682639,1.48659"
       style="fill:#ee5b63;fill-opacity:1;fill-rule:nonzero;stroke:none;stroke-width:0.0126712"
       id="path22545"
       inkscape:connector-curvature="0" />
    <path
       d="m 77.649678,148.38344 c -2.162692,-0.91055 -5.301029,-1.29981 -8.266602,-1.29981 -2.965691,0 -6.104028,0.38926 -8.266722,1.29981 1.888604,2.09894 4.700445,3.82513 8.266722,3.82513 3.566159,0 6.377997,-1.72619 8.266602,-3.82513"
       style="fill:#ffffff;fill-opacity:1;fill-rule:nonzero;stroke:none;stroke-width:0.0126712"
       id="path22547"
       inkscape:connector-curvature="0" />
    <path
       d="m 85.420871,150.56766 c 0.194006,0.45527 0.663971,0.63821 1.04965,0.40851 0.385684,-0.22833 0.541054,-0.78126 0.346929,-1.23654 -0.194009,-0.45389 -0.664086,-0.63683 -1.049769,-0.4085 -0.385684,0.22832 -0.540935,0.78262 -0.34681,1.23653"
       style="fill:#ee5b63;fill-opacity:1;fill-rule:nonzero;stroke:none;stroke-width:0.0126712"
       id="path22549"
       inkscape:connector-curvature="0" />
    <path
       d="m 83.085299,152.98433 c 0.194125,0.4539 0.664086,0.63683 1.049769,0.4085 0.385683,-0.22832 0.540935,-0.78262 0.346809,-1.23652 -0.194009,-0.45528 -0.66397,-0.63822 -1.049653,-0.40852 -0.38568,0.22833 -0.540935,0.78263 -0.346925,1.23654"
       style="fill:#ee5b63;fill-opacity:1;fill-rule:nonzero;stroke:none;stroke-width:0.0126712"
       id="path22551"
       inkscape:connector-curvature="0" />
    <path
       d="m 85.734763,153.58953 c 0.194123,0.4539 0.664088,0.63766 1.04977,0.4085 0.38568,-0.22832 0.541051,-0.78263 0.346926,-1.23653 -0.194125,-0.4539 -0.664087,-0.63683 -1.04977,-0.40851 -0.385684,0.22833 -0.540935,0.78264 -0.346926,1.23654"
       style="fill:#ee5b63;fill-opacity:1;fill-rule:nonzero;stroke:none;stroke-width:0.0126712"
       id="path22553"
       inkscape:connector-curvature="0" />
    <path
       d="m 52.987963,151.03394 c 0.365369,0.27096 0.848057,0.14166 1.078019,-0.28884 0.22996,-0.43053 0.120117,-0.99859 -0.245372,-1.26955 -0.365368,-0.27097 -0.848056,-0.14167 -1.078018,0.28884 -0.22996,0.43052 -0.120117,0.99858 0.245371,1.26955"
       style="fill:#ee5b63;fill-opacity:1;fill-rule:nonzero;stroke:none;stroke-width:0.0126712"
       id="path22555"
       inkscape:connector-curvature="0" />
    <path
       d="m 52.081073,154.31219 c 0.36537,0.27097 0.848058,0.14153 1.078018,-0.28939 0.229962,-0.43052 0.120118,-0.99858 -0.245254,-1.26955 -0.365486,-0.27096 -0.848058,-0.14167 -1.078018,0.28884 -0.229962,0.43052 -0.120118,0.99859 0.245254,1.2701"
       style="fill:#ee5b63;fill-opacity:1;fill-rule:nonzero;stroke:none;stroke-width:0.0126712"
       id="path22557"
       inkscape:connector-curvature="0" />
    <path
       d="m 54.785632,153.45611 c 0.365489,0.27096 0.848176,0.14167 1.078022,-0.28885 0.230076,-0.43051 0.120233,-0.99995 -0.245256,-1.27091 -0.365369,-0.27097 -0.848057,-0.14168 -1.078018,0.28884 -0.229961,0.43052 -0.120117,0.99996 0.245252,1.27092"
       style="fill:#ee5b63;fill-opacity:1;fill-rule:nonzero;stroke:none;stroke-width:0.0126712"
       id="path22559"
       inkscape:connector-curvature="0" />
    <path
       d="m 56.562412,137.53386 c 3.44207,0.12105 4.828729,4.90625 4.835615,4.68755 0.08032,-3.24882 -2.072923,-5.96947 -4.801415,-6.06576 -2.728141,-0.0949 -5.013636,2.47307 -5.094179,5.72189 -0.0067,0.21871 1.376035,-4.47296 5.059979,-4.34368"
       style="fill:#070605;fill-opacity:1;fill-rule:nonzero;stroke:none;stroke-width:0.0126712"
       id="path22561"
       inkscape:connector-curvature="0" />
    <path
       d="m 83.198994,137.39219 c 3.44254,0.11829 4.830367,4.90486 4.834801,4.68617 0.08218,-3.24882 -2.072224,-5.96946 -4.799895,-6.06575 -2.728145,-0.0949 -5.01492,2.47307 -5.094649,5.72189 -0.0069,0.21869 1.375452,-4.4716 5.059743,-4.34231"
       style="fill:#070605;fill-opacity:1;fill-rule:nonzero;stroke:none;stroke-width:0.0126712"
       id="path22563"
       inkscape:connector-curvature="0" />
    <path
       d="m 94.061602,140.88447 c -1.317791,-10.0078 -9.162173,-11.49329 -12.180626,-23.20527 -6.513756,9.64192 -33.060459,2.01366 -37.644054,20.6483 -11.384862,-2.02742 -12.378367,-19.17932 -4.991221,-33.08102 11.087076,-20.865623 45.343572,-25.692088 46.091474,1.99028 16.418115,-11.523548 20.714655,27.0524 8.724427,33.64771"
       style="fill:#ed1c24;fill-opacity:1;fill-rule:nonzero;stroke:none;stroke-width:0.0126712"
       id="path22565"
       inkscape:connector-curvature="0" />
    <path
       d="m 52.632981,112.84724 c -2.290862,1.19801 -2.75814,-4.89799 -1.980475,-5.31339 0.812457,-0.43326 4.267369,4.11675 1.980475,5.31339 z m -3.117441,-8.47418 c -1.590123,0.84865 -0.634555,13.31577 4.049896,10.86471 4.67628,-2.44555 -2.388569,-11.7505 -4.049896,-10.86471"
       style="fill:#ffffff;fill-opacity:1;fill-rule:nonzero;stroke:none;stroke-width:0.0126712"
       id="path22567"
       inkscape:connector-curvature="0" />
    <path
       d="m 45.647278,118.09871 c -2.290865,1.19939 -2.758259,-4.89798 -1.980591,-5.31336 0.812455,-0.43328 4.267486,4.11673 1.980591,5.31336 z m -3.117443,-8.47416 c -1.590121,0.85003 -0.634671,13.31576 4.049779,10.86607 4.67628,-2.44693 -2.388451,-11.75186 -4.049779,-10.86607"
       style="fill:#ffffff;fill-opacity:1;fill-rule:nonzero;stroke:none;stroke-width:0.0126712"
       id="path22569"
       inkscape:connector-curvature="0" />
    <g
       id="g22031"
       transform="matrix(0.02540516,0,0,-0.02787363,-157.06879,283.11736)">
      <path
         d="m 15422.6,5354.89 c -27.7,-539.36 289.8,-1080.61 532,-1410.44 345.4,-470.32 46,-1095.35 -678.6,-779.86 139.9,-370.43 -549.2,-575.46 -986.1,-213.44 -42.7,-156.65 -974.4,-294.53 -904.9,233.28 -331.7,-302.84 -819.7,-47.89 -830.5,247.21 -25.2,687.23 879,783.67 687.8,1966.19 748.4,1129.28 1120.3,666.3 1120.3,666.3 l 1060,-709.24"
         style="fill:#562b29;fill-opacity:1;fill-rule:nonzero;stroke:none"
         id="path22033"
         inkscape:connector-curvature="0" />
    </g>
    <g
       id="g22035"
       transform="matrix(0.02343519,0,0,-0.02571225,-157.06879,283.11736)">
      <path
         d="m 16152.6,3248.7 c 0,0 -80.8,-148.58 -56.4,-168.42 29.2,-23.65 30,35.28 52,40.35 13,3.04 8.6,-31.14 5.4,-48.09 -8.4,-44.91 -39.2,-99.28 -21.2,-105.56 15.7,-10.99 42.7,16.22 44.3,25.64 3.1,-25.17 39.5,0.47 42.4,23.81 9.5,-12.56 29.2,17.33 42.2,50.14 38.7,97.13 -4.9,178.15 -4.9,178.15 l -103.8,3.98"
         style="fill:#fabd99;fill-opacity:1;fill-rule:nonzero;stroke:none"
         id="path22037"
         inkscape:connector-curvature="0" />
    </g>
    <g
       id="g22039"
       transform="matrix(0.02284366,0,0,-0.02506324,-157.06879,283.11736)">
      <path
         d="m 16287.9,3041.17 c 0,0 5.5,-1314.6 12.1,-1433.42 -78.5,-20.13 -128,-89.88 -128,-89.88 l -103.1,1484.43 219,38.87"
         style="fill:#fabd99;fill-opacity:1;fill-rule:nonzero;stroke:none"
         id="path22041"
         inkscape:connector-curvature="0" />
    </g>
    <g
       id="g22043"
       transform="matrix(0.02284366,0,0,-0.02506324,-157.06879,283.11736)">
      <path
         d="m 16291.8,2362.74 c 2.1,-348.5 5,-698.02 8.2,-754.99 -78.5,-20.13 -128,-89.88 -128,-89.88 l -55.4,839.34 c 35.7,-12.99 132.5,-20.67 175.2,5.53"
         style="fill:#f0359a;fill-opacity:1;fill-rule:nonzero;stroke:none"
         id="path22045"
         inkscape:connector-curvature="0" />
    </g>
    <g
       id="g22047"
       transform="matrix(0.02283482,0,0,-0.02505356,-157.06879,283.11736)">
      <path
         d="m 16300,2081.08 c -0.2,20.84 -0.3,42 -0.5,63.43 -46.5,-17.02 -122.5,-12.19 -162.5,-1.77 l 4.3,-64.56 c 41,-9.72 113.8,-13.75 158.7,2.9 z m -1.3,188.15 c 0.1,-21.22 0.2,-42.38 0.4,-63.33 -42.4,-21 -121,-17.77 -165.8,-7.78 l -4.2,64.45 c 43.8,-10.69 125.7,-14.77 169.6,6.66"
         style="fill:#fab20b;fill-opacity:1;fill-rule:nonzero;stroke:none"
         id="path22049"
         inkscape:connector-curvature="0" />
    </g>
    <g
       id="g22051"
       transform="matrix(0.02325992,0,0,-0.02551995,-157.06879,283.11736)">
      <path
         d="m 15860.2,1541.69 c -15.1,-33.64 -42.4,-73.39 62,-171.52 76,-71.4 182.1,-109.89 277.7,-80.52 100.1,30.69 54.3,134.78 54.3,134.78 l -394,117.26"
         style="fill:#ffffff;fill-opacity:1;fill-rule:nonzero;stroke:none"
         id="path22053"
         inkscape:connector-curvature="0" />
    </g>
    <g
       id="g22055"
       transform="matrix(0.02327317,0,0,-0.02553449,-157.06879,283.11736)">
      <path
         d="m 15853.1,1661.35 c -9.9,-25.3 -26.5,-86.96 1.3,-138.81 112,-132.96 192.3,-208.54 334.3,-169.7 111.3,30.47 37.2,124.9 -21.4,162.37 -58.6,37.52 -170.4,141.71 -170.4,141.71 0,0 -43.5,-44.11 -143.8,4.43"
         style="fill:#070605;fill-opacity:1;fill-rule:nonzero;stroke:none"
         id="path22057"
         inkscape:connector-curvature="0" />
    </g>
    <g
       id="g22059"
       transform="matrix(0.02287408,0,0,-0.02509661,-157.06879,283.11736)">
      <path
         d="m 16276,1685.83 c 24,34.47 11.8,63.8 -60.4,59.52 -50.3,-2.95 -100.2,-24.19 -47.6,-69.92 17,-17.43 87.7,-13.68 108,10.4"
         style="fill:#070605;fill-opacity:1;fill-rule:nonzero;stroke:none"
         id="path22061"
         inkscape:connector-curvature="0" />
    </g>
    <g
       id="g22063"
       transform="matrix(0.02326717,0,0,-0.0255279,-157.06879,283.11736)">
      <path
         d="m 16182.8,1507.7 c 62.2,-38.38 117.2,-130.89 13,-159.41 -79.5,-21.72 -149.2,-4.27 -205,33.84 0.3,85.35 105.5,123.72 192,125.57"
         style="fill:#f4f1f0;fill-opacity:1;fill-rule:nonzero;stroke:none"
         id="path22065"
         inkscape:connector-curvature="0" />
    </g>
    <g
       id="g22067"
       transform="matrix(0.02293822,0,0,-0.02516699,-157.06879,283.11736)">
      <path
         d="m 16171.6,1591.23 c 3.7,0 7.3,1.71 9.6,4.97 18.3,26.25 61.6,45.99 102.4,33.74 6.2,-1.82 12.7,1.66 14.5,7.81 1.9,6.2 -1.6,12.72 -7.8,14.54 -52.8,15.88 -105.5,-10.16 -128.2,-42.72 -3.7,-5.29 -2.5,-12.57 2.8,-16.25 2.1,-1.45 4.4,-2.09 6.7,-2.09"
         style="fill:#ffffff;fill-opacity:1;fill-rule:nonzero;stroke:none"
         id="path22069"
         inkscape:connector-curvature="0" />
    </g>
    <g
       id="g22071"
       transform="matrix(0.02300065,0,0,-0.02523549,-157.06879,283.11736)">
      <path
         d="m 16172,1548.3 c 3.6,0 7.2,1.76 9.5,5.02 18.3,26.12 61.4,45.85 102.1,33.64 6.2,-1.86 12.7,1.66 14.5,7.79 1.9,6.13 -1.6,12.63 -7.8,14.5 -52.6,15.84 -105.2,-10.13 -127.9,-42.6 -3.7,-5.28 -2.4,-12.53 2.9,-16.21 2,-1.44 4.3,-2.14 6.7,-2.14"
         style="fill:#ffffff;fill-opacity:1;fill-rule:nonzero;stroke:none"
         id="path22073"
         inkscape:connector-curvature="0" />
    </g>
    <g
       id="g22075"
       transform="matrix(0.02306319,0,0,-0.02530412,-157.06879,283.11736)">
      <path
         d="m 16172.3,1505.66 c 3.6,0 7.2,1.76 9.5,4.95 18.2,26.11 61.3,45.78 101.9,33.61 6.1,-1.86 12.6,1.59 14.4,7.76 1.9,6.12 -1.6,12.61 -7.7,14.47 -52.6,15.79 -105,-10.11 -127.6,-42.55 -3.7,-5.26 -2.4,-12.49 2.9,-16.16 2,-1.39 4.3,-2.08 6.6,-2.08"
         style="fill:#ffffff;fill-opacity:1;fill-rule:nonzero;stroke:none"
         id="path22077"
         inkscape:connector-curvature="0" />
    </g>
    <g
       id="g22079"
       transform="matrix(0.02229947,0,0,-0.02446618,-157.06879,283.11736)">
      <path
         d="m 16075.7,3115.38 c 0,0 -5.7,-1346.68 -12.4,-1468.4 80.4,-20.62 131.1,-92.07 131.1,-92.07 l 105.6,1520.65 -224.3,39.82"
         style="fill:#fabd99;fill-opacity:1;fill-rule:nonzero;stroke:none"
         id="path22081"
         inkscape:connector-curvature="0" />
    </g>
    <g
       id="g22083"
       transform="matrix(0.02223262,0,0,-0.02439284,-157.06879,283.11736)">
      <path
         d="m 16120,2427.67 c -2.2,-358.08 -5.2,-717.2 -8.4,-775.74 80.7,-20.68 131.5,-92.34 131.5,-92.34 l 56.9,862.4 c -36.7,-13.35 -136.1,-21.24 -180,5.68"
         style="fill:#f0359a;fill-opacity:1;fill-rule:nonzero;stroke:none"
         id="path22085"
         inkscape:connector-curvature="0" />
    </g>
    <g
       id="g22087"
       transform="matrix(0.02222392,0,0,-0.02438329,-157.06879,283.11736)">
      <path
         d="m 16287.5,2135.31 4.3,66.34 c -41,-10.71 -119.1,-15.68 -166.9,1.82 -0.2,-22.02 -0.3,-43.77 -0.5,-65.18 46.1,-17.1 120.9,-12.97 163.1,-2.98 z m 12.5,189.46 -4.4,-66.22 c -46,-10.27 -126.7,-13.58 -170.3,8 0.2,21.52 0.3,43.27 0.5,65.07 45,-22.03 129.2,-17.83 174.2,-6.85"
         style="fill:#fab20b;fill-opacity:1;fill-rule:nonzero;stroke:none"
         id="path22089"
         inkscape:connector-curvature="0" />
    </g>
    <g
       id="g22091"
       transform="matrix(0.02224734,0,0,-0.02440899,-157.06879,283.11736)">
      <path
         d="m 16255.6,1611.87 c 15.8,-35.17 44.4,-76.74 -64.8,-179.34 -79.3,-74.64 -190.3,-114.89 -290.3,-84.18 -104.6,32.09 -56.7,140.91 -56.7,140.91 l 411.8,122.61"
         style="fill:#ffffff;fill-opacity:1;fill-rule:nonzero;stroke:none"
         id="path22093"
         inkscape:connector-curvature="0" />
    </g>
    <g
       id="g22095"
       transform="matrix(0.02222208,0,0,-0.02438126,-157.06879,283.11736)">
      <path
         d="m 16272.3,1739.93 c 10.3,-26.5 27.7,-91.07 -1.4,-145.38 -117.3,-139.25 -201.4,-218.4 -350.1,-177.72 -116.6,31.9 -39,130.81 22.4,170.05 61.4,39.3 178.5,148.41 178.5,148.41 0,0 45.5,-46.19 150.6,4.64"
         style="fill:#070605;fill-opacity:1;fill-rule:nonzero;stroke:none"
         id="path22097"
         inkscape:connector-curvature="0" />
    </g>
    <g
       id="g22099"
       transform="matrix(0.0222043,0,0,-0.02436175,-157.06879,283.11736)">
      <path
         d="m 16134.6,1736.68 c -24.8,35.51 -12.2,65.73 62.2,61.31 51.8,-3.04 103.2,-24.91 49,-72.03 -17.5,-17.95 -90.4,-14.08 -111.2,10.72"
         style="fill:#070605;fill-opacity:1;fill-rule:nonzero;stroke:none"
         id="path22101"
         inkscape:connector-curvature="0" />
    </g>
    <g
       id="g22103"
       transform="matrix(0.02199334,0,0,-0.02413031,-157.06879,283.11736)">
      <path
         d="m 16096.9,1595.01 c -65.7,-40.59 -123.9,-138.46 -13.7,-168.63 84,-22.98 157.8,-4.52 216.8,35.8 -0.2,90.28 -111.5,130.88 -203.1,132.83"
         style="fill:#f4f1f0;fill-opacity:1;fill-rule:nonzero;stroke:none"
         id="path22105"
         inkscape:connector-curvature="0" />
    </g>
    <g
       id="g22107"
       transform="matrix(0.02208042,0,0,-0.02422585,-157.06879,283.11736)">
      <path
         d="m 16286.2,1653.05 c -3.8,0 -7.6,1.78 -9.9,5.17 -19,27.27 -64.1,47.77 -106.4,35.05 -6.4,-1.89 -13.2,1.72 -15.1,8.11 -1.9,6.44 1.7,13.22 8.1,15.1 54.9,16.5 109.7,-10.55 133.3,-44.38 3.8,-5.49 2.5,-13.05 -3,-16.88 -2.1,-1.5 -4.6,-2.17 -7,-2.17"
         style="fill:#ffffff;fill-opacity:1;fill-rule:nonzero;stroke:none"
         id="path22109"
         inkscape:connector-curvature="0" />
    </g>
    <g
       id="g22111"
       transform="matrix(0.02201788,0,0,-0.02415721,-157.06879,283.11736)">
      <path
         d="m 16286.2,1617.41 c -3.9,0 -7.6,1.84 -10,5.24 -19,27.29 -64.2,47.9 -106.7,35.15 -6.4,-1.95 -13.2,1.72 -15.1,8.13 -2,6.4 1.7,13.2 8.1,15.15 55.1,16.55 110,-10.58 133.7,-44.51 3.8,-5.51 2.5,-13.09 -3.1,-16.93 -2.1,-1.5 -4.5,-2.23 -6.9,-2.23"
         style="fill:#ffffff;fill-opacity:1;fill-rule:nonzero;stroke:none"
         id="path22113"
         inkscape:connector-curvature="0" />
    </g>
    <g
       id="g22115"
       transform="matrix(0.02195544,0,0,-0.02408872,-157.06879,283.11736)">
      <path
         d="m 16286.1,1581.62 c -3.8,0 -7.6,1.85 -10,5.2 -19.1,27.43 -64.3,48.1 -107,35.3 -6.4,-1.95 -13.2,1.68 -15.1,8.16 -2,6.42 1.7,13.24 8.1,15.19 55.2,16.6 110.3,-10.61 134,-44.69 3.9,-5.53 2.6,-13.12 -3,-16.98 -2.1,-1.45 -4.6,-2.18 -7,-2.18"
         style="fill:#ffffff;fill-opacity:1;fill-rule:nonzero;stroke:none"
         id="path22117"
         inkscape:connector-curvature="0" />
    </g>
    <g
       id="g22119"
       transform="matrix(0.02312084,0,0,-0.02536736,-157.06879,283.11736)">
      <path
         d="m 15790.1,3388.71 c -1,0.27 -260.1,0.69 -487,48.91 -5.6,-122.22 -21.3,-432.91 -19.5,-501.5 13.9,-70.34 948.9,-76.86 1013,0 3.4,68.59 -1.6,179.35 -19.6,501.5 -226.8,-48.22 -485.9,-48.64 -486.9,-48.91"
         style="fill:#f0359a;fill-opacity:1;fill-rule:nonzero;stroke:none"
         id="path22121"
         inkscape:connector-curvature="0" />
    </g>
    <g
       id="g22123"
       transform="matrix(0.0219617,0,0,-0.02409559,-157.06879,283.11736)">
      <path
         d="m 16147.7,3218.88 c -41.3,-35.75 22.5,-137.22 87.4,-69.03 64.9,68.19 -46.2,104.77 -87.4,69.03"
         style="fill:#fab20b;fill-opacity:1;fill-rule:nonzero;stroke:none"
         id="path22125"
         inkscape:connector-curvature="0" />
    </g>
    <g
       id="g22127"
       transform="matrix(0.0224388,0,0,-0.02461904,-157.06879,283.11736)">
      <path
         d="m 16150.9,3431.49 c -40.4,-34.98 22,-134.24 85.5,-67.56 63.6,66.74 -45.2,102.54 -85.5,67.56"
         style="fill:#fab20b;fill-opacity:1;fill-rule:nonzero;stroke:none"
         id="path22129"
         inkscape:connector-curvature="0" />
    </g>
    <g
       id="g22131"
       transform="matrix(0.02282551,0,0,-0.02504333,-157.06879,283.11736)">
      <path
         d="m 16153.9,3267.13 c -3.1,-70.82 98.5,-102.74 122.3,-54.17 23.8,48.63 -121.1,83.02 -122.3,54.17"
         style="fill:#fab20b;fill-opacity:1;fill-rule:nonzero;stroke:none"
         id="path22133"
         inkscape:connector-curvature="0" />
    </g>
    <g
       id="g22135"
       transform="matrix(0.02302469,0,0,-0.02526187,-157.06879,283.11736)">
      <path
         d="m 16191.8,3407.18 c -7.9,-41.02 27.1,-57.8 67.6,-19.6 40.6,38.19 -67.6,19.6 -67.6,19.6"
         style="fill:#fab20b;fill-opacity:1;fill-rule:nonzero;stroke:none"
         id="path22137"
         inkscape:connector-curvature="0" />
    </g>
    <g
       id="g22139"
       transform="matrix(0.02302579,0,0,-0.02526308,-157.06879,283.11736)">
      <path
         d="m 16190,3039.48 c 2.2,-39.36 72.1,-79.58 91,-38.99 19,40.64 -93.2,78.3 -91,38.99"
         style="fill:#fab20b;fill-opacity:1;fill-rule:nonzero;stroke:none"
         id="path22141"
         inkscape:connector-curvature="0" />
    </g>
    <g
       id="g22143"
       transform="matrix(0.0220354,0,0,-0.02417645,-157.06879,283.11736)">
      <path
         d="m 16185.1,3519.41 c 2.3,-41.08 75.3,-83.16 95.1,-40.69 19.8,42.41 -97.5,81.82 -95.1,40.69"
         style="fill:#fab20b;fill-opacity:1;fill-rule:nonzero;stroke:none"
         id="path22145"
         inkscape:connector-curvature="0" />
    </g>
    <g
       id="g22147"
       transform="matrix(0.02235123,0,0,-0.02452297,-157.06879,283.11736)">
      <path
         d="m 16198.2,3087.26 c -61.7,-55.2 27.1,-75.83 64.4,-58.93 37.4,16.9 -12.4,105.52 -64.4,58.93"
         style="fill:#fab20b;fill-opacity:1;fill-rule:nonzero;stroke:none"
         id="path22149"
         inkscape:connector-curvature="0" />
    </g>
    <g
       id="g22151"
       transform="matrix(0.02221558,0,0,-0.02437414,-157.06879,283.11736)">
      <path
         d="m 16197.2,3292.89 c 16.1,-9.33 48.4,-38.53 75.6,-7.56 27.2,30.97 -140.2,44.94 -75.6,7.56"
         style="fill:#fab20b;fill-opacity:1;fill-rule:nonzero;stroke:none"
         id="path22153"
         inkscape:connector-curvature="0" />
    </g>
    <g
       id="g22155"
       transform="matrix(0.022695,0,0,-0.02490015,-157.06879,283.11736)">
      <path
         d="m 16225.5,3041.1 c -30.2,-56.1 35.8,-108.63 55.2,-51.5 19.3,57.12 -25,107.65 -55.2,51.5"
         style="fill:#fab20b;fill-opacity:1;fill-rule:nonzero;stroke:none"
         id="path22157"
         inkscape:connector-curvature="0" />
    </g>
    <g
       id="g22159"
       transform="matrix(0.02249509,0,0,-0.02468081,-157.06879,283.11736)">
      <path
         d="m 16167.9,3174.88 c -10.4,-36.53 115.8,-95.47 124,-16.79 8.1,78.62 -113.5,53.37 -124,16.79"
         style="fill:#fab20b;fill-opacity:1;fill-rule:nonzero;stroke:none"
         id="path22161"
         inkscape:connector-curvature="0" />
    </g>
    <g
       id="g22163"
       transform="matrix(0.02266018,0,0,-0.02486193,-157.06879,283.11736)">
      <path
         d="m 16216,3419.98 c -27.4,-46.49 15.6,-83.73 49.8,-34.53 34.2,49.2 -22.3,81.03 -49.8,34.53"
         style="fill:#fab20b;fill-opacity:1;fill-rule:nonzero;stroke:none"
         id="path22165"
         inkscape:connector-curvature="0" />
    </g>
    <g
       id="g22167"
       transform="matrix(0.02310331,0,0,-0.02534811,-157.06879,283.11736)">
      <path
         d="m 16228.3,3206.12 c -25.7,-14.34 24.8,-63.44 48.2,-22.46 23.5,40.93 0.8,49.9 -48.2,22.46"
         style="fill:#fab20b;fill-opacity:1;fill-rule:nonzero;stroke:none"
         id="path22169"
         inkscape:connector-curvature="0" />
    </g>
    <g
       id="g22171"
       transform="matrix(0.02199604,0,0,-0.02413326,-157.06879,283.11736)">
      <path
         d="m 16224.7,3379.89 c -27,-15.05 26,-66.63 50.7,-23.64 24.6,43.05 0.8,52.47 -50.7,23.64"
         style="fill:#fab20b;fill-opacity:1;fill-rule:nonzero;stroke:none"
         id="path22173"
         inkscape:connector-curvature="0" />
    </g>
    <g
       id="g22175"
       transform="matrix(0.02277129,0,0,-0.02498385,-157.06879,283.11736)">
      <path
         d="m 16300,4610.73 c 0,0 -101.5,12.43 -175.2,19.08 -6.9,76.94 0,185.54 0,185.54 l -188,14.78 c 0,0 -1.7,-148.56 0,-199.09 -77.3,-15.87 -173.3,-24.48 -211.3,-29.02 84,-244.51 555.1,-290.54 574.5,8.71"
         style="fill:#fabd99;fill-opacity:1;fill-rule:nonzero;stroke:none"
         id="path22177"
         inkscape:connector-curvature="0" />
    </g>
    <g
       id="g22179"
       transform="matrix(0.02250821,0,0,-0.0246952,-157.06879,283.11736)">
      <path
         d="m 16299.9,4791.26 0.1,-60 c 0,0 -90.9,46.96 -165.2,0 2.3,35.31 2.3,68.25 2.3,68.25 l 162.8,-8.25"
         style="fill:#efa378;fill-opacity:1;fill-rule:nonzero;stroke:none"
         id="path22181"
         inkscape:connector-curvature="0" />
    </g>
    <g
       id="g22183"
       transform="matrix(0.02325171,0,0,-0.02551094,-157.06879,283.11736)">
      <path
         d="m 15188.9,3391.69 c -126.2,234.68 54.8,947.92 83.4,1088.06 28.6,9.32 162.4,42.87 194.9,42.29 -0.3,-145.02 132.9,-171.38 232.2,-169.02 99.3,-2.36 237.7,26.62 232.3,169.02 32.4,0.58 166.2,-32.97 194.8,-42.29 17.3,-118.35 173.5,-872 58.1,-1088.06 -138.2,-56.07 -739.9,-73.21 -995.7,0"
         style="fill:#4a6cbd;fill-opacity:1;fill-rule:nonzero;stroke:none"
         id="path22185"
         inkscape:connector-curvature="0" />
    </g>
    <g
       id="g22187"
       transform="matrix(0.02332309,0,0,-0.02558926,-157.06879,283.11736)">
      <path
         d="m 16137.3,4439.53 c 162.7,-219.03 11.4,-1177.43 11.4,-1177.43 0,0 -91.9,-35.39 -318.7,-28.03 25.3,392.14 2.1,1281.8 2.1,1281.8 0,0 216.4,-3.39 305.2,-76.34"
         style="fill:#216555;fill-opacity:1;fill-rule:nonzero;stroke:none"
         id="path22189"
         inkscape:connector-curvature="0" />
    </g>
    <g
       id="g22191"
       transform="matrix(0.02284746,0,0,-0.02506742,-157.06879,283.11736)">
      <path
         d="m 16226.2,3980.06 c 0,-20.38 16.6,-36.89 36.9,-36.89 20.4,0 36.9,16.51 36.9,36.89 0,20.36 -16.5,36.88 -36.9,36.88 -20.3,0 -36.9,-16.52 -36.9,-36.88"
         style="fill:#070605;fill-opacity:1;fill-rule:nonzero;stroke:none"
         id="path22193"
         inkscape:connector-curvature="0" />
    </g>
    <g
       id="g22195"
       transform="matrix(0.02284746,0,0,-0.02506742,-157.06879,283.11736)">
      <path
         d="m 16226.2,3749.95 c 0,-20.4 16.6,-36.93 36.9,-36.93 20.4,0 36.9,16.53 36.9,36.93 0,20.35 -16.5,36.86 -36.9,36.86 -20.3,0 -36.9,-16.51 -36.9,-36.86"
         style="fill:#070605;fill-opacity:1;fill-rule:nonzero;stroke:none"
         id="path22197"
         inkscape:connector-curvature="0" />
    </g>
    <g
       id="g22199"
       transform="matrix(0.02284746,0,0,-0.02506742,-157.06879,283.11736)">
      <path
         d="m 16226.2,3519.82 c 0,-20.4 16.6,-36.88 36.9,-36.88 20.4,0 36.9,16.48 36.9,36.88 0,20.34 -16.5,36.88 -36.9,36.88 -20.3,0 -36.9,-16.54 -36.9,-36.88"
         style="fill:#070605;fill-opacity:1;fill-rule:nonzero;stroke:none"
         id="path22201"
         inkscape:connector-curvature="0" />
    </g>
    <g
       id="g22203"
       transform="matrix(0.02213487,0,0,-0.02428559,-157.06879,283.11736)">
      <path
         d="m 15976.2,4677.82 c -171.4,-230.78 -11.9,-1240.62 -11.9,-1240.62 0,0 96.8,-37.29 335.7,-29.53 -26.6,413.18 -2.2,1350.59 -2.2,1350.59 0,0 -228,-3.57 -321.6,-80.44"
         style="fill:#216555;fill-opacity:1;fill-rule:nonzero;stroke:none"
         id="path22205"
         inkscape:connector-curvature="0" />
    </g>
    <g
       id="g22207"
       transform="matrix(0.02347701,0,0,-0.02575814,-157.06879,283.11736)">
      <path
         d="m 16106.5,3318.28 c 0,0 -27,-66.92 -18.9,-87.92 24.5,-21.58 157.1,-59.82 201.6,-25.39 10.8,23.98 10.8,88.02 10.8,88.02 l -193.5,25.29"
         style="fill:#136745;fill-opacity:1;fill-rule:nonzero;stroke:none"
         id="path22209"
         inkscape:connector-curvature="0" />
    </g>
    <g
       id="g22211"
       transform="matrix(0.02389365,0,0,-0.02621525,-157.06879,283.11736)">
      <path
         d="m 15747.1,3966.01 c 0,-7.57 41.6,-185.64 43.7,-340.96 2,-155.35 -66.8,-341.17 55.6,-390.81 58.4,-23.66 105.7,-10.57 161,-10.52 282.4,0.31 292.6,721.65 -260.3,1109.78 0,-242.47 0,-367.49 0,-367.49"
         style="fill:#259061;fill-opacity:1;fill-rule:nonzero;stroke:none"
         id="path22213"
         inkscape:connector-curvature="0" />
    </g>
    <g
       id="g22215"
       transform="matrix(0.02312317,0,0,-0.02536992,-157.06879,283.11736)">
      <path
         d="m 16292.4,4457.28 c 7.6,-29.83 0.4,-251.63 -14.1,-304.76 -10.7,-38.72 -187.8,-39.6 -205.1,38.16 -23.4,105.67 -37.1,280.85 -40.4,352.24 4.4,35.11 244.4,-11.99 259.6,-85.64"
         style="fill:#fab20b;fill-opacity:1;fill-rule:nonzero;stroke:none"
         id="path22217"
         inkscape:connector-curvature="0" />
    </g>
    <g
       id="g22219"
       transform="matrix(0.02314722,0,0,-0.02539629,-157.06879,283.11736)">
      <path
         d="m 16218.9,4507.53 c 14.8,-178.35 63,-521.93 81.1,-711.63 -102.5,208.32 -198.9,365.88 -204.9,750.17 14.5,26.29 112.2,-1.65 123.8,-38.54"
         style="fill:#f0359a;fill-opacity:1;fill-rule:nonzero;stroke:none"
         id="path22221"
         inkscape:connector-curvature="0" />
    </g>
    <g
       id="g22223"
       transform="matrix(0.02225151,0,0,-0.02441356,-157.06879,283.11736)">
      <path
         d="m 16155.1,3252.02 c -8,1.21 -631.9,149.87 -630.8,157.69 l 70.3,523.73 c 1.1,7.84 8.5,13.2 16.5,11.97 l 675.2,-103.4 c 8,-1.21 13.7,-8.54 12.7,-16.42 l -67.7,-502.69 c -2.6,-19.67 -9,-24.64 -19.3,-32.96 l -56.9,-37.92"
         style="fill:#ee2d21;fill-opacity:1;fill-rule:nonzero;stroke:none"
         id="path22225"
         inkscape:connector-curvature="0" />
    </g>
    <g
       id="g22227"
       transform="matrix(0.02221963,0,0,-0.02437858,-157.06879,283.11736)">
      <path
         d="m 16175.2,3281.35 c -8.1,1.21 -639.5,140.2 -638.4,148.1 l 25.3,434.44 c 1.1,7.86 48.8,66.74 56.8,65.53 l 667.3,-102.16 c 8.1,-1.27 13.8,-8.61 12.8,-16.51 l -64.1,-476.3 c -1.8,-12.86 -5.7,-16.56 -18.1,-23.62 l -41.6,-29.48"
         style="fill:#f4ede3;fill-opacity:1;fill-rule:nonzero;stroke:none"
         id="path22229"
         inkscape:connector-curvature="0" />
    </g>
    <g
       id="g22231"
       transform="matrix(0.0221502,0,0,-0.02430241,-157.06879,283.11736)">
      <path
         d="m 15538.4,3366.61 c -8.1,1.22 -13.9,8.58 -12.8,16.5 l 65.9,489.54 c 1,7.85 8.4,13.25 16.5,12.01 l 678.2,-103.87 c 8.1,-1.17 13.8,-8.59 12.7,-16.5 l -65.8,-489.48 c -1,-7.92 -8.5,-13.29 -16.5,-12.07 l -678.2,103.87"
         style="fill:#ee2d21;fill-opacity:1;fill-rule:nonzero;stroke:none"
         id="path22233"
         inkscape:connector-curvature="0" />
    </g>
    <g
       id="g22235"
       transform="matrix(0.02201737,0,0,-0.02415668,-157.06879,283.11736)">
      <path
         d="m 16228,3237.92 c -8.2,0.22 -652.6,70.74 -652.5,78.71 l 4.7,534.05 c 0,7.96 6.8,14.31 15,14.09 l 690,-18.66 c 8.2,-0.23 14.8,-6.85 14.7,-14.88 l -4.4,-512.59 c -0.2,-20.06 -5.9,-25.85 -15.3,-35.49 l -52.2,-45.23"
         style="fill:#070605;fill-opacity:1;fill-rule:nonzero;stroke:none"
         id="path22237"
         inkscape:connector-curvature="0" />
    </g>
    <g
       id="g22239"
       transform="matrix(0.02198917,0,0,-0.02412573,-157.06879,283.11736)">
      <path
         d="m 16242.6,3266.44 c -8.3,0.22 -658.8,60.07 -658.8,68.1 l -29.3,438.74 c 0.1,8.03 40.5,73.06 48.7,72.9 l 681.9,-18.41 c 8.3,-0.28 14.9,-6.92 14.8,-14.95 l -4.2,-485.59 c -0.1,-13.16 -3.6,-17.34 -15.2,-25.99 l -37.9,-34.8"
         style="fill:#f4ede3;fill-opacity:1;fill-rule:nonzero;stroke:none"
         id="path22241"
         inkscape:connector-curvature="0" />
    </g>
    <g
       id="g22243"
       transform="matrix(0.02193031,0,0,-0.02406114,-157.06879,283.11736)">
      <path
         d="m 15587.7,3263.8 c -8.2,0.23 -14.9,6.88 -14.8,14.94 l 4.4,498.86 c 0,8.05 6.8,14.37 15.1,14.15 l 692.7,-18.68 c 8.2,-0.22 14.9,-6.94 14.8,-14.99 l -4.4,-498.81 c 0,-8.05 -6.8,-14.37 -15,-14.15 l -692.8,18.68"
         style="fill:#070605;fill-opacity:1;fill-rule:nonzero;stroke:none"
         id="path22245"
         inkscape:connector-curvature="0" />
    </g>
    <g
       id="g22247"
       transform="matrix(0.02171947,0,0,-0.02382982,-157.06879,283.11736)">
      <path
         d="m 16188.6,3505.31 c 22.5,-58.56 111.4,-135.41 85.7,-157.55 -17,-14.68 -40.8,27.33 -80.9,19.37 -14.1,-2.76 -12.9,-26.25 -4.6,-47.26 13.7,-32.3 33.9,-33.15 36.6,-37.55 -9.9,-31.8 -59.6,-20.73 -61.3,-10.51 1.7,-20.27 -26.7,-17.9 -44.1,4.8 -10.2,-13.61 -42.6,-5.02 -56.7,30.38 -41.7,104.81 13.4,194.03 13.4,194.03 0,0 86.6,3.56 111.9,4.29"
         style="fill:#fabd99;fill-opacity:1;fill-rule:nonzero;stroke:none"
         id="path22249"
         inkscape:connector-curvature="0" />
    </g>
    <g
       id="g22251"
       transform="matrix(0.02162601,0,0,-0.02372728,-157.06879,283.11736)">
      <path
         d="m 16270.8,3602.3 c 0,0 29.2,-72.65 20.5,-95.45 -26.7,-23.42 -170.6,-64.94 -218.9,-27.56 -11.7,26.03 -11.7,95.56 -11.7,95.56 l 210.1,27.45"
         style="fill:#136745;fill-opacity:1;fill-rule:nonzero;stroke:none"
         id="path22253"
         inkscape:connector-curvature="0" />
    </g>
    <g
       id="g22255"
       transform="matrix(0.02173627,0,0,-0.02384826,-157.06879,283.11736)">
      <path
         d="m 16274.6,4359.67 c 0,-8.33 -45.8,-204.07 -48,-374.81 -2.2,-170.77 73.4,-375.03 -61.1,-429.6 -64.2,-26.01 -116.1,-11.62 -177,-11.56 -310.4,0.33 -321.7,793.27 286.1,1219.93 0,-266.53 0,-403.96 0,-403.96"
         style="fill:#259061;fill-opacity:1;fill-rule:nonzero;stroke:none"
         id="path22257"
         inkscape:connector-curvature="0" />
    </g>
    <g
       id="g22259"
       transform="matrix(0.02203529,0,0,-0.02417633,-157.06879,283.11736)">
      <path
         d="m 16027.6,4677.34 c -8,-31.3 -0.4,-264.06 14.9,-319.81 11.2,-40.63 197,-41.56 215.1,40.05 24.6,110.88 39,294.71 42.4,369.63 -4.6,36.83 -256.4,-12.59 -272.4,-89.87"
         style="fill:#fab20b;fill-opacity:1;fill-rule:nonzero;stroke:none"
         id="path22261"
         inkscape:connector-curvature="0" />
    </g>
    <g
       id="g22263"
       transform="matrix(0.02192306,0,0,-0.0240532,-157.06879,283.11736)">
      <path
         d="m 16169.4,4759.24 c -15.8,-188.31 -66.7,-551.08 -85.7,-751.37 108.2,219.96 210,386.31 216.3,792.06 -15.3,27.76 -118.5,-1.74 -130.6,-40.69"
         style="fill:#f0359a;fill-opacity:1;fill-rule:nonzero;stroke:none"
         id="path22265"
         inkscape:connector-curvature="0" />
    </g>
    <g
       id="g22267"
       transform="matrix(0.02568394,0,0,-0.0281795,-157.06879,283.11736)">
      <path
         d="m 15484.8,5818.09 c 0,0 730.1,-316.47 772.7,-448.19 42.5,-131.72 -305.5,-567.7 -551.7,-687.07 -246.3,-119.36 -1197.5,226.24 -1197.5,226.24 0,0 678.3,991.33 976.5,909.02"
         style="fill:#fab20b;fill-opacity:1;fill-rule:nonzero;stroke:none"
         id="path22269"
         inkscape:connector-curvature="0" />
    </g>
    <g
       id="g22271"
       transform="matrix(0.02441674,0,0,-0.02678917,-157.06879,283.11736)">
      <path
         d="m 16299.8,5885.5 c -0.1,-738.78 -646.7,-1230.46 -1358.1,-1230.33 -711.4,0.12 -1345.5,492.01 -1345.3,1230.87 0.1,738.72 551,1473.18 1345.8,1163.09 663.4,302.71 1357.8,-424.91 1357.6,-1163.63"
         style="fill:#562b29;fill-opacity:1;fill-rule:nonzero;stroke:none"
         id="path22273"
         inkscape:connector-curvature="0" />
    </g>
    <g
       id="g22275"
       transform="matrix(0.02396576,0,0,-0.02629438,-157.06879,283.11736)">
      <path
         d="m 16297.5,5490.04 c -2.4,-614.77 -483.8,-1022.1 -1075.8,-1019.73 -591.9,2.36 -1070.1,413.51 -1067.6,1028.36 2.5,614.73 484.2,1089.01 1076.1,1086.65 592,-2.35 1069.8,-480.57 1067.3,-1095.28"
         style="fill:#fabd99;fill-opacity:1;fill-rule:nonzero;stroke:none"
         id="path22277"
         inkscape:connector-curvature="0" />
    </g>
    <g
       id="g22279"
       transform="matrix(0.02396576,0,0,-0.02629438,-157.06879,283.11736)">
      <path
         d="m 16297.5,5490.04 c -2.4,-614.77 -483.8,-1022.1 -1075.8,-1019.73 -591.9,2.36 -1070.1,413.51 -1067.6,1028.36 2.5,614.73 484.2,1089.01 1076.1,1086.65 592,-2.35 1069.8,-480.57 1067.3,-1095.28"
         style="fill:#fabd99;fill-opacity:1;fill-rule:nonzero;stroke:none"
         id="path22281"
         inkscape:connector-curvature="0" />
    </g>
    <g
       id="g22283"
       transform="matrix(0.02447697,0,0,-0.02685524,-157.06879,283.11736)">
      <path
         d="m 15915.4,5371.02 c 0,0 14.6,122.21 162.1,142.9 155.7,21.71 222.5,-181.68 141.6,-305.8 -80.9,-123.92 -254.7,-130.03 -310.9,-35.59 l 7.2,198.49"
         style="fill:#fabd99;fill-opacity:1;fill-rule:nonzero;stroke:none"
         id="path22285"
         inkscape:connector-curvature="0" />
    </g>
    <g
       id="g22287"
       transform="matrix(0.02423044,0,0,-0.02658477,-157.06879,283.11736)">
      <path
         d="m 16273.1,5516.8 c -103.1,14.81 -180.1,-168.21 -38,-257.43 -63,125.51 -10.7,170.96 64.9,112.5 -2.2,41.56 -28.6,66.95 -90.3,60.39 3,55.15 63.4,84.54 63.4,84.54"
         style="fill:#d37658;fill-opacity:1;fill-rule:nonzero;stroke:none"
         id="path22289"
         inkscape:connector-curvature="0" />
    </g>
    <g
       id="g22291"
       transform="matrix(0.0208721,0,0,-0.02290012,-157.06879,283.11736)">
      <path
         d="m 16293.5,6307.67 c 0,0 -15.9,143.45 -188.9,169.08 -182.3,26.91 -262.5,-210.99 -168.9,-357.27 93.8,-146.08 297.4,-154.84 364.3,-44.66 l -6.5,232.85"
         style="fill:#fabd99;fill-opacity:1;fill-rule:nonzero;stroke:none"
         id="path22293"
         inkscape:connector-curvature="0" />
    </g>
    <g
       id="g22295"
       transform="matrix(0.02083923,0,0,-0.02286405,-157.06879,283.11736)">
      <path
         d="m 16092.2,6425.41 c 120,16.26 207.8,-197.29 41.9,-299.67 74.3,145.31 13.9,198.66 -74.5,131.41 2.9,48.29 33.9,77.54 105.4,69.4 -3,64.09 -72.8,98.86 -72.8,98.86"
         style="fill:#d37658;fill-opacity:1;fill-rule:nonzero;stroke:none"
         id="path22297"
         inkscape:connector-curvature="0" />
    </g>
    <g
       id="g22299"
       transform="matrix(0.02253925,0,0,-0.02472926,-157.06879,283.11736)">
      <path
         d="m 16272.2,5710.14 c -29.1,-23.57 -50.2,56.11 -119.7,49.61 -70.9,-6.62 -71.2,-89.74 -107.8,-66.37 -29.8,19.05 -4.9,122.65 111.6,129.83 97.3,6 143.7,-90.67 115.9,-113.07"
         style="fill:#ee5b63;fill-opacity:1;fill-rule:nonzero;stroke:none"
         id="path22301"
         inkscape:connector-curvature="0" />
    </g>
    <g
       id="g22303"
       transform="matrix(0.02177257,0,0,-0.02388808,-157.06879,283.11736)">
      <path
         d="m 15612.6,5765.93 c 70.4,-291.87 249.9,-523.71 493.2,-670.21 17,11.17 33.3,23.99 48.4,38.6 145.8,141.13 134.1,389.8 -26.1,555.34 -146.8,151.71 -367.4,180.98 -515.5,76.27"
         style="fill:#f79883;fill-opacity:1;fill-rule:nonzero;stroke:none"
         id="path22305"
         inkscape:connector-curvature="0" />
    </g>
    <g
       id="g22307"
       transform="matrix(0.02391585,0,0,-0.02623961,-157.06879,283.11736)">
      <path
         d="m 16300,5242.03 c -128,97.08 -324.2,82.66 -464.1,-42.49 -156.3,-139.84 -183.2,-364.85 -60,-502.55 21.8,-24.44 47,-44.4 74.4,-60.06 220.7,131.95 384.2,341.12 449.7,605.1"
         style="fill:#f79883;fill-opacity:1;fill-rule:nonzero;stroke:none"
         id="path22309"
         inkscape:connector-curvature="0" />
    </g>
    <g
       id="g22311"
       transform="matrix(0.02194808,0,0,-0.02408066,-157.06879,283.11736)">
      <path
         d="m 16300,6044.92 c -45,-85.71 -192.8,-186.99 -332.8,-185.7 -139.9,1.28 -202.7,90.99 -261.9,191.14 -0.9,55.59 115.8,252.41 255.8,251.13 139.9,-1.29 278.4,-123.59 338.9,-256.57"
         style="fill:#ffffff;fill-opacity:1;fill-rule:nonzero;stroke:none"
         id="path22313"
         inkscape:connector-curvature="0" />
    </g>
    <g
       id="g22315"
       transform="matrix(0.02176546,0,0,-0.02388028,-157.06879,283.11736)">
      <path
         d="m 16254.1,6201.96 c 45.9,-73 27.3,-167.39 -41.6,-210.84 -68.9,-43.38 -162.1,-19.42 -208.1,53.6 -45.9,73.11 -27.3,167.42 41.6,210.88 68.9,43.37 162.1,19.35 208.1,-53.64"
         style="fill:#259061;fill-opacity:1;fill-rule:nonzero;stroke:none"
         id="path22317"
         inkscape:connector-curvature="0" />
    </g>
    <g
       id="g22319"
       transform="matrix(0.02163718,0,0,-0.02373954,-157.06879,283.11736)">
      <path
         d="m 16256.4,6222.21 c 33.1,-21.38 43.6,-64.07 23.5,-95.36 -20.2,-31.28 -63.5,-39.33 -96.6,-17.95 -33.1,21.41 -43.6,64.09 -23.5,95.38 20.3,31.28 63.4,39.3 96.6,17.93"
         style="fill:#070605;fill-opacity:1;fill-rule:nonzero;stroke:none"
         id="path22321"
         inkscape:connector-curvature="0" />
    </g>
    <g
       id="g22323"
       transform="matrix(0.02152213,0,0,-0.02361331,-157.06879,283.11736)">
      <path
         d="m 16295.4,6275 c 4.6,-25.15 -11,-48.86 -34.6,-53.1 -23.7,-4.2 -46.5,12.56 -51.1,37.68 -4.4,25.03 11,48.79 34.6,53.23 23.7,4.05 46.7,-12.77 51.1,-37.81"
         style="fill:#ffffff;fill-opacity:1;fill-rule:nonzero;stroke:none"
         id="path22325"
         inkscape:connector-curvature="0" />
    </g>
    <g
       id="g22327"
       transform="matrix(0.02166366,0,0,-0.0237686,-157.06879,283.11736)">
      <path
         d="m 16297.2,6085.66 c 2.8,-15.49 -6.8,-30.03 -21.5,-32.77 -14.5,-2.62 -28.6,7.8 -31.4,23.31 -2.6,15.4 6.8,30.04 21.4,32.68 14.6,2.62 28.7,-7.79 31.5,-23.22"
         style="fill:#ffffff;fill-opacity:1;fill-rule:nonzero;stroke:none"
         id="path22329"
         inkscape:connector-curvature="0" />
    </g>
    <g
       id="g22331"
       transform="matrix(0.02174608,0,0,-0.02385902,-157.06879,283.11736)">
      <path
         d="m 15851.2,6106.55 c 0,0 113.6,317.79 448.8,181.83 -368.9,281.86 -448.8,-181.83 -448.8,-181.83"
         style="fill:#6d3a2c;fill-opacity:1;fill-rule:nonzero;stroke:none"
         id="path22333"
         inkscape:connector-curvature="0" />
    </g>
    <g
       id="g22335"
       transform="matrix(0.02355305,0,0,-0.02584157,-157.06879,283.11736)">
      <path
         d="m 15745,5632.11 c 41.8,-79.9 179.4,-174.42 309.8,-173.36 130.4,1.06 189,84.6 244.3,177.87 0.9,51.8 -107.7,235.32 -238.1,234.25 -130.4,-1.05 -259.6,-114.89 -316,-238.76"
         style="fill:#ffffff;fill-opacity:1;fill-rule:nonzero;stroke:none"
         id="path22337"
         inkscape:connector-curvature="0" />
    </g>
    <g
       id="g22339"
       transform="matrix(0.02338969,0,0,-0.02566232,-157.06879,283.11736)">
      <path
         d="m 16025,5770.21 c -42.8,-67.89 -25.6,-155.73 38.5,-196.23 64,-40.44 150.8,-18.23 193.7,49.67 42.8,67.99 25.5,155.77 -38.5,196.28 -64.2,40.43 -150.8,18.16 -193.7,-49.72"
         style="fill:#259061;fill-opacity:1;fill-rule:nonzero;stroke:none"
         id="path22341"
         inkscape:connector-curvature="0" />
    </g>
    <g
       id="g22343"
       transform="matrix(0.0232652,0,0,-0.02552574,-157.06879,283.11736)">
      <path
         d="m 16174.4,5760.88 c -19.5,-31 -11.7,-71.13 17.6,-89.63 29.2,-18.47 68.9,-8.32 88.4,22.69 19.6,31.06 11.7,71.15 -17.5,89.65 -29.3,18.47 -68.9,8.3 -88.5,-22.71"
         style="fill:#070605;fill-opacity:1;fill-rule:nonzero;stroke:none"
         id="path22345"
         inkscape:connector-curvature="0" />
    </g>
    <g
       id="g22347"
       transform="matrix(0.02332837,0,0,-0.02559504,-157.06879,283.11736)">
      <path
         d="m 16216.8,5769.72 c -4.2,-23.2 10.1,-45.09 31.9,-49.03 21.8,-3.89 42.9,11.55 47.1,34.72 4.2,23.08 -10,45.02 -31.8,49.15 -21.9,3.76 -43.1,-11.74 -47.2,-34.84"
         style="fill:#ffffff;fill-opacity:1;fill-rule:nonzero;stroke:none"
         id="path22349"
         inkscape:connector-curvature="0" />
    </g>
    <g
       id="g22351"
       transform="matrix(0.02308551,0,0,-0.02532861,-157.06879,283.11736)">
      <path
         d="m 16247.9,5722.76 c -2.6,-14.53 6.4,-28.19 20.1,-30.77 13.7,-2.48 27,7.28 29.6,21.84 2.4,14.45 -6.4,28.2 -20.1,30.68 -13.7,2.48 -26.9,-7.27 -29.6,-21.75"
         style="fill:#ffffff;fill-opacity:1;fill-rule:nonzero;stroke:none"
         id="path22353"
         inkscape:connector-curvature="0" />
    </g>
    <g
       id="g22355"
       transform="matrix(0.02355183,0,0,-0.02584022,-157.06879,283.11736)">
      <path
         d="m 16300,5636.92 c 0,0 -104.6,293.53 -414.3,168.32 340.9,259.89 414.3,-168.32 414.3,-168.32"
         style="fill:#6d3a2c;fill-opacity:1;fill-rule:nonzero;stroke:none"
         id="path22357"
         inkscape:connector-curvature="0" />
    </g>
    <g
       id="g22359"
       transform="matrix(0.02163042,0,0,-0.02373213,-157.06879,283.11736)">
      <path
         d="m 16142.8,6581.07 c 117.5,47.38 157.2,-83.15 76.8,-92.18 -86.2,-9.49 -155,-48.78 -166.6,-41.66 -25.8,15.76 23.7,107.28 89.8,133.84"
         style="fill:#562b29;fill-opacity:1;fill-rule:nonzero;stroke:none"
         id="path22361"
         inkscape:connector-curvature="0" />
    </g>
    <g
       id="g22363"
       transform="matrix(0.02347959,0,0,-0.02576097,-157.06879,283.11736)">
      <path
         d="m 16180.7,6057.42 c -112.9,29.7 -134,-94.17 -59.6,-93.13 80,1.32 147.4,-26.65 157.2,-18.77 21.7,17.39 -34.1,95.27 -97.6,111.9"
         style="fill:#562b29;fill-opacity:1;fill-rule:nonzero;stroke:none"
         id="path22365"
         inkscape:connector-curvature="0" />
    </g>
    <g
       id="g22367"
       transform="matrix(0.02304799,0,0,-0.02528744,-157.06879,283.11736)">
      <path
         d="m 15329.4,5464.35 c 26.7,-331.22 231.7,-589.22 482.2,-590.54 250.5,-1.32 458.2,254.5 488.4,585.42 l -970.6,5.12"
         style="fill:#712131;fill-opacity:1;fill-rule:nonzero;stroke:none"
         id="path22369"
         inkscape:connector-curvature="0" />
    </g>
    <g
       id="g22371"
       transform="matrix(0.02278209,0,0,-0.02499569,-157.06879,283.11736)">
      <path
         d="m 15693.9,5074 c 83.3,-89.16 188.1,-142.68 302.3,-143.28 114.2,-0.61 219.6,51.8 303.8,140.08 -83.6,34.75 -188.5,55.86 -302.8,56.46 -114.3,0.61 -219.4,-19.4 -303.3,-53.26"
         style="fill:#ee5b63;fill-opacity:1;fill-rule:nonzero;stroke:none"
         id="path22373"
         inkscape:connector-curvature="0" />
    </g>
    <g
       id="g22375"
       transform="matrix(0.0230421,0,0,-0.02528097,-157.06879,283.11736)">
      <path
         d="m 15818.1,5331.19 c 241.5,-1.27 441.7,34.58 481.9,129.47 l -962.4,5.08 c 39.1,-95.31 238.9,-133.27 480.5,-134.55"
         style="fill:#fef0f4;fill-opacity:1;fill-rule:nonzero;stroke:none"
         id="path22377"
         inkscape:connector-curvature="0" />
    </g>
    <g
       id="g22379"
       transform="matrix(0.02137078,0,0,-0.02344726,-157.06879,283.11736)">
      <path
         d="m 16290.6,5770.98 c -9.3,-18.63 -31.9,-26.18 -50.5,-16.86 -18.7,9.31 -26.2,31.96 -16.9,50.59 9.3,18.63 32,26.18 50.6,16.87 18.6,-9.32 26.2,-31.97 16.8,-50.6"
         style="fill:#ee5b63;fill-opacity:1;fill-rule:nonzero;stroke:none"
         id="path22381"
         inkscape:connector-curvature="0" />
    </g>
    <g
       id="g22383"
       transform="matrix(0.02151881,0,0,-0.02360967,-157.06879,283.11736)">
      <path
         d="m 16290.8,5633.34 c -9.3,-18.5 -31.8,-26 -50.3,-16.75 -18.5,9.25 -26,31.74 -16.8,50.25 9.3,18.5 31.8,26 50.3,16.75 18.5,-9.25 26,-31.75 16.8,-50.25"
         style="fill:#ee5b63;fill-opacity:1;fill-rule:nonzero;stroke:none"
         id="path22385"
         inkscape:connector-curvature="0" />
    </g>
    <g
       id="g22387"
       transform="matrix(0.0213514,0,0,-0.02342599,-157.06879,283.11736)">
      <path
         d="m 16290.7,5652.38 c -9.3,-18.65 -32,-26.21 -50.7,-16.88 -18.6,9.32 -26.2,32 -16.9,50.64 9.4,18.65 32,26.21 50.7,16.89 18.7,-9.32 26.2,-32 16.9,-50.65"
         style="fill:#ee5b63;fill-opacity:1;fill-rule:nonzero;stroke:none"
         id="path22389"
         inkscape:connector-curvature="0" />
    </g>
    <g
       id="g22391"
       transform="matrix(0.0234401,0,0,-0.02571763,-157.06879,283.11736)">
      <path
         d="m 16279.2,5247.82 c -16.1,-10.15 -37.3,-5.38 -47.5,10.67 -10.1,16.05 -5.4,37.29 10.7,47.44 16,10.16 37.2,5.38 47.4,-10.66 10.2,-16.05 5.4,-37.29 -10.6,-47.45"
         style="fill:#ee5b63;fill-opacity:1;fill-rule:nonzero;stroke:none"
         id="path22393"
         inkscape:connector-curvature="0" />
    </g>
    <g
       id="g22395"
       transform="matrix(0.02349787,0,0,-0.02578101,-157.06879,283.11736)">
      <path
         d="m 16279.2,5112.97 c -16,-10.13 -37.2,-5.37 -47.3,10.64 -10.1,16.01 -5.4,37.2 10.6,47.33 16.1,10.13 37.2,5.37 47.4,-10.64 10.1,-16.01 5.3,-37.19 -10.7,-47.33"
         style="fill:#ee5b63;fill-opacity:1;fill-rule:nonzero;stroke:none"
         id="path22397"
         inkscape:connector-curvature="0" />
    </g>
    <g
       id="g22399"
       transform="matrix(0.02332665,0,0,-0.02559316,-157.06879,283.11736)">
      <path
         d="m 16279.1,5182.3 c -16.2,-10.21 -37.5,-5.41 -47.7,10.71 -10.2,16.13 -5.4,37.48 10.7,47.68 16.2,10.21 37.5,5.41 47.7,-10.71 10.2,-16.13 5.4,-37.48 -10.7,-47.68"
         style="fill:#ee5b63;fill-opacity:1;fill-rule:nonzero;stroke:none"
         id="path22401"
         inkscape:connector-curvature="0" />
    </g>
    <g
       id="g22403"
       transform="matrix(0.0241566,0,0,-0.02650377,-157.06879,283.11736)">
      <path
         d="m 15111.4,6493.84 c 0,0 602,-778.59 1188.6,-799.16 -175,936.45 -689.4,1101.11 -1162.9,1101.11 -473.4,0 -1214.2,-349.89 -1214.2,-1152.58 318.9,0 1188.5,850.63 1188.5,850.63"
         style="fill:#562b29;fill-opacity:1;fill-rule:nonzero;stroke:none"
         id="path22405"
         inkscape:connector-curvature="0" />
    </g>
    <g
       id="g22407"
       transform="matrix(0.02389683,0,0,-0.02621875,-157.06879,283.11736)">
      <path
         d="m 15300.5,6941.93 c 0,0 372.2,-565.23 999.5,-654.83 -365.3,158.54 -999.5,654.83 -999.5,654.83"
         style="fill:#3a1c19;fill-opacity:1;fill-rule:nonzero;stroke:none"
         id="path22409"
         inkscape:connector-curvature="0" />
    </g>
    <g
       id="g22411"
       transform="matrix(0.02395742,0,0,-0.02628524,-157.06879,283.11736)">
      <path
         d="m 15399.3,7055 c 0,0 488.2,-350.65 900.7,-350.65 -419.4,171.9 -900.7,350.65 -900.7,350.65"
         style="fill:#3a1c19;fill-opacity:1;fill-rule:nonzero;stroke:none"
         id="path22413"
         inkscape:connector-curvature="0" />
    </g>
    <g
       id="g22415"
       transform="matrix(0.02235515,0,0,-0.02452727,-157.06879,283.11736)">
      <path
         d="m 16300,7420.69 c 0,0 -397.9,-604.21 -1068.4,-699.99 390.5,169.47 1068.4,699.99 1068.4,699.99"
         style="fill:#3a1c19;fill-opacity:1;fill-rule:nonzero;stroke:none"
         id="path22417"
         inkscape:connector-curvature="0" />
    </g>
    <g
       id="g22419"
       transform="matrix(0.02215303,0,0,-0.02430551,-157.06879,283.11736)">
      <path
         d="m 16300,7629.66 c 0,0 -527.9,-379.22 -974.1,-379.22 453.6,185.9 974.1,379.22 974.1,379.22"
         style="fill:#3a1c19;fill-opacity:1;fill-rule:nonzero;stroke:none"
         id="path22421"
         inkscape:connector-curvature="0" />
    </g>
    <g
       id="g22423"
       transform="matrix(0.02261088,0,0,-0.02480783,-157.06879,283.11736)">
      <path
         d="m 15923.9,7863.22 c -18.8,234.76 376.1,208.51 341.1,19.9 -155,-19.21 -341.1,-19.9 -341.1,-19.9"
         style="fill:#ee2d21;fill-opacity:1;fill-rule:nonzero;stroke:none"
         id="path22425"
         inkscape:connector-curvature="0" />
    </g>
    <g
       id="g22427"
       transform="matrix(0.0243943,0,0,-0.02676455,-157.06879,283.11736)">
      <path
         d="m 15256.2,6399.19 c -129.3,-41.5 -371.4,-66.55 -664.5,-21 -198,30.79 -107.6,255.04 -0.2,245.45 309.7,-27.63 488.9,0.82 627.5,13.86 108,10.17 166.7,-196.81 37.2,-238.31 z m 631.1,707.36 c -209.7,128.72 -608.6,207.4 -993.8,205.97 -379.5,-1.43 -764.8,-115.95 -960.7,-274.91 -306,-248.29 -318.4,-723.77 -324.8,-932.16 698.4,47.44 1809.1,38.45 2692,10.06 -37.5,333.45 -77,785.05 -412.7,991.04"
         style="fill:#f0359a;fill-opacity:1;fill-rule:nonzero;stroke:none"
         id="path22429"
         inkscape:connector-curvature="0" />
    </g>
    <g
       id="g22431"
       transform="matrix(0.02480922,0,0,-0.02721978,-157.06879,283.11736)">
      <path
         d="m 14827.4,5535.76 c 21.3,183.93 113,348.56 258.1,463.57 133.4,105.7 300.1,158.55 469.3,148.85 13.6,-0.78 27.4,-1.97 41,-3.54 183.6,-21.26 348.2,-112.99 463.3,-258.28 115.1,-145.29 166.8,-326.43 145.5,-510.07 -21.2,-183.93 -112.9,-348.57 -258,-463.57 -133.4,-105.71 -300.1,-158.57 -469.4,-148.86 -13.6,0.78 -27.4,1.98 -40.9,3.55 -183.6,21.26 -348.2,112.99 -463.3,258.27 -115.2,145.29 -166.8,326.44 -145.6,510.08 z m -888.5,581.29 c 184,-21.29 348.6,-112.94 463.6,-258.07 72.5,-91.51 121,-200.04 140.3,-313.85 0.1,-1.05 0.3,-2.03 0.5,-2.97 10.5,-63.67 12,-128.76 4.5,-193.46 -40.7,-351.04 -338.8,-613.52 -687.8,-613.53 -13.3,0 -26.6,0.38 -40.1,1.15 -13.5,0.77 -27.1,1.95 -40.5,3.5 -183.6,21.27 -348.1,112.99 -463.3,258.28 -115.1,145.29 -166.8,326.43 -145.5,510.07 42.1,364.4 361.9,633.38 727.9,612.39 13.4,-0.78 27,-1.96 40.4,-3.51 z m -679.7,-1164.07 c 127,-160.27 308.8,-261.48 511.9,-285 15,-1.73 30.2,-3.05 45.2,-3.91 14.6,-0.83 29.2,-1.26 43.7,-1.26 171.8,0 338.9,58.02 474.7,165.64 160.2,127 261.4,308.81 285,511.94 6.7,58.34 6.8,117.17 0.3,175.01 l 133.1,3.71 c -16.3,-196.48 42.9,-389.03 167.3,-543.38 126.9,-157.46 307.2,-256.96 507.6,-280.17 15,-1.73 30.1,-3.04 45.2,-3.9 186.9,-10.74 371,47.65 518.3,164.38 160.2,127 261.5,308.8 285,511.93 23.5,203.13 -33.4,403.25 -160.5,563.51 -127,160.26 -308.8,261.48 -511.9,285 -203.2,23.49 -403.3,-33.49 -563.5,-160.48 -146.7,-116.22 -245.2,-280.84 -278,-464.28 l -154.2,-4.29 c -24.5,115.91 -74.7,222.36 -149.2,316.47 -127,160.26 -308.8,261.47 -512,284.99 -419.3,48.55 -799.9,-253.1 -848.5,-672.4 -23.5,-203.13 33.5,-403.25 160.5,-563.51"
         style="fill:#2056ae;fill-opacity:1;fill-rule:nonzero;stroke:none"
         id="path22433"
         inkscape:connector-curvature="0" />
    </g>
    <text
       xml:space="preserve"
       style="font-style:normal;font-weight:normal;font-size:10.58333302px;line-height:1.25;font-family:sans-serif;letter-spacing:0px;word-spacing:0px;fill:#000000;fill-opacity:1;stroke:none;stroke-width:0.26458332"
       x="65.855209"
       y="66.506737"
       id="text5497"><tspan
         sodipodi:role="line"
         id="tspan5495"
         x="65.855209"
         y="66.506737"
         style="stroke-width:0.26458332"><tspan
           style="font-style:normal;font-variant:normal;font-weight:bold;font-stretch:normal;font-size:12.69999981px;font-family:sans-serif;-inkscape-font-specification:'sans-serif Bold'"
           id="tspan5499">See you again tomorrow</tspan><tspan
           style="-inkscape-font-specification:'sans-serif Bold';font-family:sans-serif;font-weight:bold;font-style:normal;font-stretch:normal;font-variant:normal"
           id="tspan5508">.</tspan></tspan></text>
  </g>
</svg>
