<svg id="Layer_2" data-name="Layer 2" xmlns="http://www.w3.org/2000/svg" viewBox="0 0 1000 1000"><defs><style>.cls-1{fill:#7c8371;}.cls-1,.cls-2,.cls-3{stroke:#63685a;stroke-miterlimit:10;stroke-width:3px;}.cls-2{fill:#90986f;}.cls-3{fill:none;}.cls-4{fill:#63685a;}.cls-5{font-size:110px;font-family:FCMagicItalic, FC Magic;}.cls-5,.cls-6{fill:#3b3d38;}</style></defs><title>magazines</title><path class="cls-1" d="M472.55,935.45s10.49,16,38.84,9.56S970.13,779.78,970.13,779.78s10.6-18,2.29-34.44S539.83,71.52,539.83,71.52L96.93,193.27S72.12,204.15,81.2,234.19,472.55,935.45,472.55,935.45Z"/><path class="cls-2" d="M478.65,912.75s12.68,19.6,34.48,10.54,446.63-157.9,446.63-157.9,16.18-5.4,14.1-16.67S552.53,63.83,552.53,63.83s-4.63-6.29-22.33-5.49S99.4,192.59,99.4,192.59s-7.89,8.09-.56,24.32S478.65,912.75,478.65,912.75Z"/><path class="cls-3" d="M498.71,925.94s-25.6,13.53,3.07,20.45"/><path class="cls-4" d="M352.34,287.24S346.67,393,255.68,416.67c0,0,44.07,68.92,29.6,86.39,0,0,136.08,20.45,151.33,108.31,0,0,47.83-132.43,190.93-68.19,0,0,52.54-110.24,116.81-123.47,0,0-133.43-82.89-87.39-166.69,0,0-51.68,65.39-135,26.87C522,279.89,494.33,330.18,352.34,287.24Z"/><text class="cls-5" transform="translate(188.76 341.59) rotate(-20.01)">magazines</text><polygon class="cls-4" points="765 705 811 782 947 734 896 648 765 705"/><polygon class="cls-4" points="111 206 146 274 211 249 174 184 111 206"/><path class="cls-6" d="M837,597.67S709.06,509,631,505.57c0,0,47.71-137,0-173.84s-183.23-51.81-221.17-13.82-88.91,146.21-45.54,192.26,120.35,56.42,120.35,56.42-52.05,122-31.45,193.41"/><polygon class="cls-4" points="375 692 505 641 630 864 495 915 375 692"/></svg>