<svg id="Layer_2" data-name="Layer 2" xmlns="http://www.w3.org/2000/svg" viewBox="0 0 1000 1000"><defs><style>.cls-1{fill:#894f1a;}.cls-1,.cls-3{stroke:#5b2f0f;stroke-miterlimit:10;stroke-width:3px;}.cls-2{fill:#915527;}.cls-3{fill:#723f15;}</style></defs><title>table</title><path class="cls-1" d="M223.5,236.5l-110,99,32,358,29,14,159-203,147-155Zm73,245-107,138v-85l133-162-34-33-2,19-97,126v-164l37-34,136,73v68Z"/><polygon class="cls-2" points="190 625 190 642 298 500 285 495 281 505 190 625"/><polygon class="cls-2" points="190 488 190 501 224 461 212 452 202 474 190 488"/><polygon class="cls-1" points="628.5 646.5 167.5 463.5 161.5 333.5 296.5 204.5 765.5 315.5 802.5 400.5 628.5 646.5"/><path class="cls-1" d="M820.5,303.5l-220,178,32,402,30,23,197-246Zm-159,316,141-175,4,70-139,168Zm18,207-7-86,140-172,6,82Z"/><path class="cls-3" d="M602.5,619.5c-3-1-428-170-428-170l-2-102,49-19,372,158Z"/><polygon class="cls-2" points="172 699 153 366 118 353 150 688 172 699"/><polygon class="cls-2" points="662 898 643 554 610 549 636 880 662 898"/><line class="cls-3" x1="174.5" y1="449.5" x2="273.5" y2="360.5"/><path class="cls-1" d="M856.5,303.5s-198,278-212,276-573-234-573-234-12-25,0-48,219-223,219-223,16-9,43,0,510,180,510,180S856.5,251.5,856.5,303.5Z"/><path class="cls-2" d="M624.5,532.5s19,12,40-5,179-252,179-252,4-9-5-13-508-179-508-179-26-7-36,0-213,218-213,218a43.57,43.57,0,0,0,15,12C106.5,318.5,624.5,532.5,624.5,532.5Z"/><polygon class="cls-2" points="681 831 682 838 821 661 821 654 681 831"/><polygon class="cls-2" points="670 686 670 695 808 527 808 518 670 686"/></svg>