<svg id="Layer_2" data-name="Layer 2" xmlns="http://www.w3.org/2000/svg" viewBox="0 0 1000 1000"><defs><style>.cls-1{fill:#b07e4b;}.cls-1,.cls-2{stroke:#996536;stroke-width:3px;}.cls-1,.cls-2,.cls-5,.cls-7,.cls-8{stroke-miterlimit:10;}.cls-2,.cls-6{fill:#895935;}.cls-3{fill:#7ee0cf;}.cls-4{fill:#edf9e8;}.cls-5{fill:#2d7210;}.cls-5,.cls-8{stroke:#2b6d0c;}.cls-7{fill:#7c5808;stroke:#664604;}.cls-8{fill:#367f14;}</style></defs><title>picture frame</title><path class="cls-1" d="M826,730.89s61,3.45,92-2.46l6-7.19L851,545.5l-17,97.87Z"/><path class="cls-2" d="M847.23,587.9s56.21,139.41,65.93,141.35,18.11-1.2,19.86-6.81-24.61-75.12-35.61-99.12-43-84.58-43-84.58l-10.51,28.37Z"/><path class="cls-2" d="M726.14,855.5c.87-.14,68.44,16.46,92.8-41.7s68.7-547.1,68.7-547.1-2.66-49.35-27.3-53.35-54.84-11.06-54.84-11.06l13.56,80L756.34,718.17Z"/><path class="cls-3" d="M733.4,719.22s-14.07,17.39-38.32,21.31-439.46-46.14-439.46-46.14l-85.85-25.2-6.31-39,28.86-255.33,33.87-153,67.61-21.62,377.89,39.23,122.83,45-35.62,252Z"/><path class="cls-4" d="M329,286.2c-3.51-.88-24.57-7.89-42.12-5.26s-27.2-.88-36-2.63-30.81-6.45-36.46-3.23-12.68,22.53-15.31,38.32S175.41,352,199.1,352s60.54-1.76,77.21-9.65,11.41-12.29,37.73-3.51,41.24,2.63,36-10.53S343,289.71,329,286.2Z"/><path class="cls-5" d="M172.8,560.35s449.27-82.16,592.26-60.45L730,761.1,602.64,781.73,151.16,716.2Z"/><path class="cls-6" d="M724.55,730.43s-459.42-32.25-535.17-60.86c0,0-8.94-.33-8.11-22.69,0,0,29-370.12,48.54-397.18,1.46-2,22.46-20.52,50.73-21.55s-97.86-17-97.86-17L131,567,129.45,716.6,302.1,750.86l349.38,27.85,60.63-9.83Z"/><path class="cls-1" d="M825.32,205.69c-39-10.57-623.72-64.3-623.72-64.3s-56.22-6.89-68.52,32.43S70.91,585.65,67.37,728.44c0,0-4.52,43.4,32.37,51.64,0,0,276.64,67.18,642,78.23,0,0,45.1,9.58,59.77-42.57s67.27-550.43,67.27-550.43S864.36,216.25,825.32,205.69ZM771.2,338,713.29,732.25c-7.92,28-40.64,23.47-40.64,23.47-186.61-10.66-499.4-59.54-499.4-59.54C141.39,691.56,147.91,655,147.91,655s37.7-359.87,57-394.11,57-27,57-27c88.13.83,478.63,57.57,478.63,57.57C776,301.67,771.2,338,771.2,338Z"/><path class="cls-6" d="M590.89,843.63s127.48,7.79,152.6,3.72,38-12.37,46.61-36,21.44-147.47,22.52-162.75S792.25,720.35,775.39,748,711,817.06,670.6,825.38,590.89,843.63,590.89,843.63Z"/><path class="cls-6" d="M686.83,193s134.36,17.35,143.28,23,27,29.41,27.8,39.94-4.86,52.34-6.69,74a336.67,336.67,0,0,1-6.54,41.94s.3-96.93-14.77-113.15-41.4-30.63-62-37.07S686.83,193,686.83,193Z"/><path class="cls-7" d="M437.75,563.46S479.87,481.86,486,449.4s-4.39-30.71,0-27.2,3.51,21.06,20.18,19.3,56.16-11.4,56.16-11.4-23.69,14.91-36,22.81-34.22,73.7-17.55,98.27-12.28,3.51-22.81,7.9-29.83,36.85-31.59,30.7,19.31-41.23,8.78-35.09S437.75,563.46,437.75,563.46Z"/><path class="cls-4" d="M726.42,383.59c-14.76-4.1-21.93-8.77-42.11-6.14s-22.82,3.51-36.86-2.63-33.34-19.3-40.36-12.28-22.81,17.54-7.89,28.95,51.76,14,67.56,12.28,32.46-2.63,42.11,4.39,19.31,12.29,22.82,3.51S742.21,388,726.42,383.59Z"/><path class="cls-8" d="M492.15,471.33s-23.69,4.39-46.5,2.64-64.93,7-63.17-7.9S407,445,400.9,430.1s-24.56-29.84-15.79-48.26,28.95-50,41.24-40.36,30.71-5.27,40.36-18.43,18.42-30.71,37.73-20.18,49.13,14,79.84,12.29,49.14,4.38,52.65,14,26.32,41.24,11.4,55.28-15.79,36-14,43.87-.87,35.1-24.56,32.47-48.26-16.67-57.91-5.27S508,474.84,492.15,471.33Z"/></svg>