<?xml version="1.0" encoding="UTF-8" standalone="no"?>
<!-- Created with Inkscape (http://www.inkscape.org/) -->

<svg
   xmlns:dc="http://purl.org/dc/elements/1.1/"
   xmlns:cc="http://creativecommons.org/ns#"
   xmlns:rdf="http://www.w3.org/1999/02/22-rdf-syntax-ns#"
   xmlns:svg="http://www.w3.org/2000/svg"
   xmlns="http://www.w3.org/2000/svg"
   xmlns:sodipodi="http://sodipodi.sourceforge.net/DTD/sodipodi-0.dtd"
   xmlns:inkscape="http://www.inkscape.org/namespaces/inkscape"
   width="1000"
   height="1000"
   viewBox="0 0 264.58333 264.58334"
   version="1.1"
   id="svg2383"
   inkscape:version="0.92.5 (2060ec1f9f, 2020-04-08)"
   sodipodi:docname="five.svg"
   enable-background="new">
  <defs
     id="defs2377" />
  <sodipodi:namedview
     id="base"
     pagecolor="#ffffff"
     bordercolor="#666666"
     borderopacity="1.0"
     inkscape:pageopacity="0.0"
     inkscape:pageshadow="2"
     inkscape:zoom="0.70710678"
     inkscape:cx="353.75655"
     inkscape:cy="501.85527"
     inkscape:document-units="px"
     inkscape:current-layer="layer1"
     showgrid="false"
     units="px"
     inkscape:window-width="1920"
     inkscape:window-height="1031"
     inkscape:window-x="0"
     inkscape:window-y="25"
     inkscape:window-maximized="1"
     showguides="true"
     inkscape:lockguides="true"
     inkscape:object-nodes="false" />
  <metadata
     id="metadata2380">
    <rdf:RDF>
      <cc:Work
         rdf:about="">
        <dc:format>image/svg+xml</dc:format>
        <dc:type
           rdf:resource="http://purl.org/dc/dcmitype/StillImage" />
        <dc:title></dc:title>
      </cc:Work>
    </rdf:RDF>
  </metadata>
  <g
     inkscape:groupmode="layer"
     id="layer3"
     inkscape:label="Layer 2" />
  <g
     inkscape:groupmode="layer"
     id="layer2"
     inkscape:label="Layer 3" />
  <g
     inkscape:label="Layer 1"
     inkscape:groupmode="layer"
     id="layer1"
     transform="translate(0,-32.41665)">
    <text
       xml:space="preserve"
       style="font-style:normal;font-variant:normal;font-weight:bold;font-stretch:normal;font-size:10.58333302px;line-height:1.25;font-family:sans-serif;-inkscape-font-specification:'sans-serif Bold';letter-spacing:0px;word-spacing:0px;fill:#000000;fill-opacity:1;stroke:none;stroke-width:0.26458332"
       x="150.05655"
       y="89.869026"
       id="text8811" />
    <text
       xml:space="preserve"
       style="font-style:normal;font-variant:normal;font-weight:bold;font-stretch:normal;font-size:10.58333302px;line-height:1.25;font-family:sans-serif;-inkscape-font-specification:'sans-serif Bold';letter-spacing:0px;word-spacing:0px;fill:#000000;fill-opacity:1;stroke:none;stroke-width:0.26458332"
       x="160.63989"
       y="97.806526"
       id="text8815" />
    <text
       xml:space="preserve"
       style="font-style:normal;font-variant:normal;font-weight:bold;font-stretch:normal;font-size:10.58333302px;line-height:1.25;font-family:sans-serif;-inkscape-font-specification:'sans-serif Bold';letter-spacing:0px;word-spacing:0px;fill:#000000;fill-opacity:1;stroke:none;stroke-width:0.26458332"
       x="156.86011"
       y="88.7351"
       id="text8819" />
    <flowRoot
       xml:space="preserve"
       id="flowRoot8821"
       style="font-style:normal;font-variant:normal;font-weight:bold;font-stretch:normal;font-size:40px;line-height:1.25;font-family:sans-serif;-inkscape-font-specification:'sans-serif Bold';letter-spacing:0px;word-spacing:0px;fill:#000000;fill-opacity:1;stroke:none"><flowRegion
         id="flowRegion8823"
         style="font-style:normal;font-variant:normal;font-weight:bold;font-stretch:normal;font-family:sans-serif;-inkscape-font-specification:'sans-serif Bold'" /><flowPara
         id="flowPara8827" /></flowRoot>    <flowRoot
       xml:space="preserve"
       id="flowRoot8829"
       style="font-style:normal;font-variant:normal;font-weight:bold;font-stretch:normal;font-size:40px;line-height:1.25;font-family:sans-serif;-inkscape-font-specification:'sans-serif Bold';letter-spacing:0px;word-spacing:0px;fill:#000000;fill-opacity:1;stroke:none"><flowRegion
         id="flowRegion8831"
         style="font-style:normal;font-variant:normal;font-weight:bold;font-stretch:normal;font-family:sans-serif;-inkscape-font-specification:'sans-serif Bold'" /><flowPara
         id="flowPara8835" /></flowRoot>    <flowRoot
       xml:space="preserve"
       id="flowRoot8837"
       style="font-style:normal;font-variant:normal;font-weight:bold;font-stretch:normal;font-size:40px;line-height:1.25;font-family:sans-serif;-inkscape-font-specification:'sans-serif Bold';letter-spacing:0px;word-spacing:0px;fill:#000000;fill-opacity:1;stroke:none"><flowRegion
         id="flowRegion8839"
         style="font-style:normal;font-variant:normal;font-weight:bold;font-stretch:normal;font-family:sans-serif;-inkscape-font-specification:'sans-serif Bold'" /><flowPara
         id="flowPara8843" /></flowRoot>    <text
       xml:space="preserve"
       style="font-style:normal;font-variant:normal;font-weight:bold;font-stretch:normal;font-size:10.58333302px;line-height:1.25;font-family:sans-serif;-inkscape-font-specification:'sans-serif Bold';letter-spacing:0px;word-spacing:0px;fill:#000000;fill-opacity:1;stroke:none;stroke-width:0.26458332"
       x="209.39882"
       y="107.25594"
       id="text8847" />
    <flowRoot
       xml:space="preserve"
       id="flowRoot8849"
       style="font-style:normal;font-variant:normal;font-weight:bold;font-stretch:normal;font-size:40px;line-height:1.25;font-family:sans-serif;-inkscape-font-specification:'sans-serif Bold';letter-spacing:0px;word-spacing:0px;fill:#000000;fill-opacity:1;stroke:none"><flowRegion
         id="flowRegion8851"
         style="font-style:normal;font-variant:normal;font-weight:bold;font-stretch:normal;font-family:sans-serif;-inkscape-font-specification:'sans-serif Bold'" /><flowPara
         id="flowPara8855" /></flowRoot>    <flowRoot
       xml:space="preserve"
       id="flowRoot8857"
       style="font-style:normal;font-variant:normal;font-weight:bold;font-stretch:normal;font-size:40px;line-height:1.25;font-family:sans-serif;-inkscape-font-specification:'sans-serif Bold';letter-spacing:0px;word-spacing:0px;fill:#000000;fill-opacity:1;stroke:none"><flowRegion
         id="flowRegion8859"
         style="font-style:normal;font-variant:normal;font-weight:bold;font-stretch:normal;font-family:sans-serif;-inkscape-font-specification:'sans-serif Bold'" /><flowPara
         id="flowPara8863" /></flowRoot>    <flowRoot
       xml:space="preserve"
       id="flowRoot8865"
       style="font-style:normal;font-variant:normal;font-weight:bold;font-stretch:normal;font-size:40px;line-height:1.25;font-family:sans-serif;-inkscape-font-specification:'sans-serif Bold';letter-spacing:0px;word-spacing:0px;fill:#000000;fill-opacity:1;stroke:none"><flowRegion
         id="flowRegion8867"
         style="font-style:normal;font-variant:normal;font-weight:bold;font-stretch:normal;font-family:sans-serif;-inkscape-font-specification:'sans-serif Bold'" /><flowPara
         id="flowPara8871" /></flowRoot>    <flowRoot
       xml:space="preserve"
       id="flowRoot8873"
       style="font-style:normal;font-variant:normal;font-weight:bold;font-stretch:normal;font-size:40px;line-height:1.25;font-family:sans-serif;-inkscape-font-specification:'sans-serif Bold';letter-spacing:0px;word-spacing:0px;fill:#000000;fill-opacity:1;stroke:none"><flowRegion
         id="flowRegion8875"
         style="font-style:normal;font-variant:normal;font-weight:bold;font-stretch:normal;font-family:sans-serif;-inkscape-font-specification:'sans-serif Bold'" /><flowPara
         id="flowPara8879" /></flowRoot>    <text
       xml:space="preserve"
       style="font-style:normal;font-weight:normal;font-size:10.58333302px;line-height:1.25;font-family:sans-serif;letter-spacing:0px;word-spacing:0px;fill:#000000;fill-opacity:1;stroke:none;stroke-width:0.26458332"
       x="101.02788"
       y="69.125984"
       id="text977"><tspan
         sodipodi:role="line"
         id="tspan975"
         x="101.02788"
         y="78.489754"
         style="stroke-width:0.26458332" /><tspan
         sodipodi:role="line"
         x="101.02788"
         y="91.718918"
         style="stroke-width:0.26458332"
         id="tspan979" /><tspan
         sodipodi:role="line"
         x="101.02788"
         y="104.94809"
         style="stroke-width:0.26458332"
         id="tspan981" /><tspan
         sodipodi:role="line"
         x="101.02788"
         y="118.17725"
         style="stroke-width:0.26458332"
         id="tspan983" /><tspan
         sodipodi:role="line"
         x="101.02788"
         y="131.40642"
         style="stroke-width:0.26458332"
         id="tspan985" /><tspan
         sodipodi:role="line"
         x="101.02788"
         y="144.63559"
         style="stroke-width:0.26458332"
         id="tspan987" /><tspan
         sodipodi:role="line"
         x="101.02788"
         y="157.86475"
         style="stroke-width:0.26458332"
         id="tspan989" /><tspan
         sodipodi:role="line"
         x="101.02788"
         y="171.09392"
         style="stroke-width:0.26458332"
         id="tspan991" /><tspan
         sodipodi:role="line"
         x="101.02788"
         y="184.32309"
         style="stroke-width:0.26458332"
         id="tspan993" /><tspan
         sodipodi:role="line"
         x="101.02788"
         y="197.55225"
         style="stroke-width:0.26458332"
         id="tspan995" /><tspan
         sodipodi:role="line"
         x="101.02788"
         y="210.78142"
         style="stroke-width:0.26458332"
         id="tspan997" /><tspan
         sodipodi:role="line"
         x="101.02788"
         y="224.01059"
         style="stroke-width:0.26458332"
         id="tspan999" /><tspan
         sodipodi:role="line"
         x="101.02788"
         y="237.23975"
         style="stroke-width:0.26458332"
         id="tspan1001" /><tspan
         sodipodi:role="line"
         x="101.02788"
         y="250.46892"
         style="stroke-width:0.26458332"
         id="tspan1003" /><tspan
         sodipodi:role="line"
         x="101.02788"
         y="263.69809"
         style="stroke-width:0.26458332"
         id="tspan1005" /><tspan
         sodipodi:role="line"
         x="101.02788"
         y="276.92725"
         style="stroke-width:0.26458332"
         id="tspan1007" /><tspan
         sodipodi:role="line"
         x="101.02788"
         y="290.1564"
         style="stroke-width:0.26458332"
         id="tspan1009" /><tspan
         sodipodi:role="line"
         x="101.02788"
         y="303.38559"
         style="stroke-width:0.26458332"
         id="tspan1011" /><tspan
         sodipodi:role="line"
         x="101.02788"
         y="316.61475"
         style="stroke-width:0.26458332"
         id="tspan1013" /><tspan
         sodipodi:role="line"
         x="101.02788"
         y="329.8439"
         style="stroke-width:0.26458332"
         id="tspan1015" /><tspan
         sodipodi:role="line"
         x="101.02788"
         y="343.07309"
         style="stroke-width:0.26458332"
         id="tspan1017" /><tspan
         sodipodi:role="line"
         x="101.02788"
         y="356.30225"
         style="stroke-width:0.26458332"
         id="tspan1019" /><tspan
         sodipodi:role="line"
         x="101.02788"
         y="369.5314"
         style="stroke-width:0.26458332"
         id="tspan1021" /><tspan
         sodipodi:role="line"
         x="101.02788"
         y="382.76059"
         style="stroke-width:0.26458332"
         id="tspan1023" /></text>
    <g
       id="g990"
       transform="matrix(0.0456632,0,0,-0.0456632,-291.42971,866.53671)">
      <path
         d="m 9877.57,16247.5 c 22.25,-14.5 31.44,-88.8 27.58,-222.9 -3.86,-134 -14.37,-229.3 -31.44,-285.8 -5.18,-15.5 -49.29,-26.4 -132.34,-32.8 -83.13,-6.4 -172.21,-10.5 -267.24,-12.2 113.03,-10.3 232.93,-78.2 359.71,-203.7 126.78,-125.5 186.76,-275.6 179.86,-450.3 2.6,-191 -61.04,-349.7 -190.75,-476 -129.79,-126.4 -280.75,-201.1 -452.88,-224.2 -185.96,-24 -360.86,11.3 -524.88,106 -164.02,94.6 -266.23,236.2 -306.4,424.6 -15.45,74.5 19.62,133.6 105.3,177.3 58.25,30 157.37,48.6 297.44,55.9 140.07,7.3 217.32,-24.2 231.92,-94.4 0.85,-6 3.02,-12 6.42,-18 9.42,-24.9 26.57,-41.6 51.37,-50.1 40.25,-16.3 72.85,-12.2 97.65,12.2 24.88,24.4 36.62,54.1 35.39,89.3 -1.32,35.1 -18.47,68.5 -51.46,100.2 -32.91,31.7 -86.68,47.5 -161.23,47.5 -51.38,-2.5 -109.63,-1.7 -174.68,2.6 -102.83,5.1 -170.04,24.2 -201.72,57.2 -31.75,32.9 -54,80.3 -66.82,141.9 -29.13,137.1 -46.9,304.1 -53.31,501.1 -6.49,197 11.74,316.1 54.55,357.2 15.45,15.4 81.42,27.4 197.93,36 116.42,8.5 243.2,13 380.25,13.5 137.05,0.4 264.68,-3.7 382.89,-12.2 118.2,-8.6 187.11,-21.9 206.89,-39.9"
         style="fill:#ef269d;fill-opacity:1;fill-rule:nonzero;stroke:none"
         id="path992"
         inkscape:connector-curvature="0" />
    </g>
    <g
       id="g994"
       transform="matrix(0.04530302,0,0,-0.04530302,-291.42971,866.53671)">
      <path
         d="m 9778.91,16082.7 c -32.63,-4.3 -65.42,39.8 -73.28,98.6 -7.79,58.8 12.3,110 44.85,114.4 32.63,4.3 65.41,-39.8 73.28,-98.6 7.86,-58.8 -12.23,-110 -44.85,-114.4"
         style="fill:#ffffff;fill-opacity:1;fill-rule:nonzero;stroke:none"
         id="path996"
         inkscape:connector-curvature="0" />
    </g>
    <g
       id="g998"
       transform="matrix(0.04460487,0,0,-0.04460487,-291.42971,866.53671)">
      <path
         d="m 9903.59,16189.6 c -16.53,2.4 -26.49,28.5 -22.22,58.3 4.27,29.8 21.12,52.1 37.65,49.8 16.53,-2.4 26.49,-28.5 22.22,-58.3 -4.19,-29.8 -21.04,-52.1 -37.65,-49.8"
         style="fill:#ffffff;fill-opacity:1;fill-rule:nonzero;stroke:none"
         id="path1000"
         inkscape:connector-curvature="0" />
    </g>
    <g
       id="g1002"
       transform="matrix(0.04538804,0,0,-0.04538804,-291.42971,866.53671)">
      <path
         d="m 8894.43,16037.5 c 144.57,-94.5 742.9,96.3 676.05,179.7 -34.97,43.7 -402.53,82.8 -564.9,42 -147.83,-37.2 -204.57,-160.6 -111.15,-221.7"
         style="fill:#f257b3;fill-opacity:1;fill-rule:nonzero;stroke:none"
         id="path1004"
         inkscape:connector-curvature="0" />
    </g>
    <g
       id="g1006"
       transform="matrix(0.04352008,0,0,-0.04352008,-291.42971,866.53671)">
      <path
         d="m 9458.74,16130.1 c 25.94,42 -131.88,169.9 -165.03,106.9 -33.16,-63.1 123.29,-174.7 165.03,-106.9"
         style="fill:#f257b3;fill-opacity:1;fill-rule:nonzero;stroke:none"
         id="path1008"
         inkscape:connector-curvature="0" />
    </g>
    <g
       id="g1010"
       transform="matrix(0.04387215,0,0,-0.04387215,-291.42971,866.53671)">
      <path
         d="m 9628,16279.8 c 194.59,-5.7 576.8,-212.5 647.6,-576.8 70.9,-364.3 -212.5,-647.7 -657.73,-678 -445.23,-30.4 -647.62,364.3 -516.08,485.7 131.56,121.4 263.11,81 425.05,-70.8 161.87,-151.8 435.11,121.4 404.79,283.3 -30.4,161.9 -323.89,182.1 -404.79,263.1 -80.97,81 -597.04,313.7 101.16,293.5"
         style="fill:#ed0f93;fill-opacity:1;fill-rule:nonzero;stroke:none"
         id="path1012"
         inkscape:connector-curvature="0" />
    </g>
    <g
       id="g1014"
       transform="matrix(0.04163871,0,0,-0.04163871,-291.42971,866.53671)">
      <path
         d="m 10412.1,16181.7 c -190.3,-76.6 -416.96,-52.3 -587.51,33 -170.63,85.3 -214.69,-102.4 30.59,-230.4 245.22,-127.9 532.82,-112.8 759.62,86.6 156.7,137.8 5.3,194.6 -202.7,110.8"
         style="fill:#b60776;fill-opacity:1;fill-rule:nonzero;stroke:none"
         id="path1016"
         inkscape:connector-curvature="0" />
    </g>
    <g
       id="g1018"
       transform="matrix(0.04253371,0,0,-0.04253371,-291.42971,866.53671)">
      <path
         d="m 10463.3,16280.6 c -71.2,19.4 -187.9,-261 -83.5,-281.8 104.4,-20.9 198.3,250.5 83.5,281.8"
         style="fill:#b60776;fill-opacity:1;fill-rule:nonzero;stroke:none"
         id="path1020"
         inkscape:connector-curvature="0" />
    </g>
    <g
       id="g1022"
       transform="matrix(0.04552738,0,0,-0.04552738,-291.42971,866.53671)">
      <path
         d="m 8993.41,15026.7 c -66.95,0 -141.26,-7.3 -198.68,-19.6 -93.6,-20.1 -113.44,-45.7 -117.62,-55.7 -12.32,-29.5 8.45,-109.2 71.99,-204.4 67.87,-101.6 158.84,-183.4 249.5,-224.4 65.4,-29.5 153.89,-45.8 249.12,-45.8 99.65,0 438.26,22.6 613.31,313 147.77,245.2 73.77,565.3 -172.25,744.8 -97.79,71.3 -201.32,112.5 -276.94,142.6 -85.31,34 -141.73,56.4 -131.81,101 9.38,42.2 104.61,47.6 319.64,49.9 78.34,0.8 174.65,1.8 198.98,10.3 0.47,14.1 3.1,39.7 7.52,81.3 6.04,56.5 14.18,133.9 17.12,198.9 4.42,99 -6.12,118.4 -8.52,121.5 -26.5,8.8 -257.03,26 -501.5,26 -281.97,0 -466.54,-22.9 -506.45,-62.7 -11.77,-11.8 -26.19,-72 -27.66,-202.7 -1.32,-110.5 7.13,-243.4 22.55,-355.6 24.41,-177.8 58.89,-255.7 82.99,-269.2 25.33,-14.3 61.6,-20.6 117.62,-20.6 25.11,0 51.76,1.1 79.97,2.4 30.53,1.4 62.06,2.8 94.22,2.8 66.1,0 151.95,-5.2 229.52,-45.3 70.82,-36.7 117.23,-110 123.98,-196.1 6.97,-88.3 -28.44,-170.1 -94.62,-218.9 -47.19,-34.8 -100.03,-53.1 -152.96,-53.1 -101.5,0 -181.08,66.5 -209.91,174.5 -18.13,3.3 -46.1,5.1 -79.11,5.1 z m 254.31,-583.8 v 0 c -99.96,0 -193.41,17.4 -263.06,48.9 -96.32,43.4 -192.4,129.6 -263.69,236.4 -64.94,97.2 -94.46,189.9 -75.16,236.2 31.69,76.1 241.21,96.2 347.6,96.2 42.93,0 77.56,-3 97.56,-8.4 5.96,-1.7 10.61,-6.5 12.01,-12.6 22.62,-97.8 91.35,-158.6 179.45,-158.6 45.65,0 91.6,16 132.82,46.5 56.72,41.8 87.02,112.4 80.97,188.9 -5.81,74.3 -45.41,137.4 -105.77,168.7 -71.05,36.8 -151.64,41.5 -213.94,41.5 -31.38,0 -62.61,-1.4 -92.75,-2.7 -28.59,-1.3 -55.64,-2.5 -81.44,-2.5 -41.84,0 -94.84,2.8 -134.21,25 -42.85,24 -76.48,123 -99.95,294.1 -15.66,113.7 -24.18,248.5 -22.86,360.6 1.47,126.6 14.1,202.8 37.58,226.2 48.19,48.3 226.65,72.7 530.39,72.7 230.68,0 486,-16.4 515.6,-29 20.15,-8.7 32.78,-36.7 28.59,-145.3 -2.55,-67.9 -11.23,-149.8 -17.59,-209.5 -4.18,-39.9 -7.82,-74.2 -7.44,-83.6 0.32,-6.1 -1.93,-11.9 -6.27,-16.5 -17.05,-18.1 -75.55,-20.3 -226.11,-21.9 -66.33,-0.7 -134.9,-1.4 -190.31,-5.5 -77.79,-5.7 -93.68,-15.8 -96.77,-18.8 -1.25,-16.4 56.02,-39.2 111.42,-61.2 77.26,-30.8 183.1,-72.9 284.38,-146.8 127.15,-92.7 215.02,-225.3 247.33,-373.3 31.77,-145.2 8.29,-293 -66.01,-416.3 -67.5,-111.9 -165.67,-197.8 -291.9,-255.4 -134.13,-61.1 -264.61,-74 -350.47,-74"
         style="fill:#f89dd3;fill-opacity:1;fill-rule:nonzero;stroke:none"
         id="path1024"
         inkscape:connector-curvature="0" />
    </g>
  </g>
</svg>
