<svg xmlns="http://www.w3.org/2000/svg" viewBox="0 0 1000 1000"><defs><style>.cls-1,.cls-13{fill:#fed1a5;}.cls-1{stroke:#d6a47c;}.cls-1,.cls-2,.cls-3,.cls-5,.cls-9{stroke-miterlimit:10;stroke-width:3px;}.cls-15,.cls-2{fill:#fff;}.cls-2{stroke:#bababa;}.cls-3{fill:#f73434;stroke:#c11111;}.cls-4{fill:#e5e5e5;}.cls-5{fill:#073f64;stroke:#063347;}.cls-6{fill:#082d40;}.cls-7{fill:#063347;}.cls-8{fill:#eabf98;}.cls-9{fill:#50413c;stroke:#3f332f;}.cls-10{fill:#5b4c48;}.cls-11{fill:#e7aebd;}.cls-12{fill:#e29fb4;}.cls-14{fill:#231f20;}</style></defs><title>steward</title><g id="Layer_2" data-name="Layer 2"><path class="cls-1" d="M275.85,741.66s-6,49.6-8.26,61.46c-2.32,12.34-4.94,94.68-5.42,98.56-.95,7.66-3.71,7.7-5.15,17s-2.61,22.17,10.52,33.21,42,15.41,52.52,8,3.86-21.79,3.86-21.79,3.81,5.57,7.06,3.91,1.87-19.74-12-28.37L320.72,899l4.83-83.24,26.57-131.51-68.67-12.7Z"/><path class="cls-1" d="M740.5,755.5s8,39,9,51c1,12.51,16.31,93.91,16.4,97.81.18,7.71,2.84,8.06,3.33,17.43s.39,22.29-13.31,31.79S714,964.13,704.6,955.6,703,933.55,703,933.55s-4.19,5.1-7.16,3.09.09-19.81,14.26-26.82l-.27-14.74,3.34-83.16-13-133.5,32.32,5.08Z"/><path class="cls-2" d="M432.77,489.14c-1.36,0-79.09-8.18-106.36,21.82s-43.64,64.09-54.55,169.09S240.5,891.41,240.5,891.41s42.95,25.77,100.91,24.92c3.14,0,.87-27.44,4.09-27.65,8.86-.58,21,22.88,25.95,16.75,30.05-37.26-4.13-159.93-4.13-159.93L488.68,636.41,659.13,738.68,685,886l5.46,25.91s94.09-19.09,95.45-21.81S760,776.86,756,697.77s-5.45-129.54-38.18-170.45-69.55-40.91-69.55-40.91Z"/><polygon class="cls-3" points="500.95 543.68 491.41 620.05 517.32 648.68 540.5 626.87 528.23 539.59 500.95 543.68"/><path class="cls-4" d="M359.14,531.41c0,4.09-40.91,167.73-43.64,200.46s-15,88.63-16.36,103.63-15,61.36-13.64,61.36,49.09,12.28,53.18,10.91,10.91-95.45,10.91-95.45L374.14,646Z"/><path class="cls-1" d="M588.5,495.5l-68,21h-40l-37-24s-4-9,0-9,60-18,136-2S588.5,495.5,588.5,495.5Z"/><path class="cls-4" d="M664.59,536.87s42.27,100.9,50.45,165l24.55,192.27-42.28,13.63L676.86,783.68,655,633.68Z"/><path class="cls-3" d="M472.32,524.59s15,27.28,23.18,30S531,557.32,533.68,556s25.91-27.28,25.91-27.28S532.32,509.59,531,509.59H480.5Z"/><path class="cls-2" d="M415.16,482c6-3.26,29-2.13,35.34.31,22.51,8.65,59.55,27.27,62.75,27.27,4.07,0,55.88-28.63,60-30s31.37-2.72,62.73,10.91c0,0-17.73,25.91-24.54,34.09S576,564.14,576,564.14s-32.72-32.73-43.63-36.82-19.09-6.82-19.09-6.82-19.1,5.46-20.46,6.82-40.91,30-40.91,30l-57.27-64.09Z"/><path class="cls-5" d="M349.59,491.87s12.27,99.54,6.82,155.45-4.09,85.91-15,102.27c0,0,2.73,126.82,0,152.73,0,0,110.45,32.73,115.91,35.45S516,857.32,516,857.32l58.64,83.18S689.13,901,691.86,899.59s0-152.72,0-152.72-19.09-53.19-17.73-110.46S685,491.87,685,491.87s-24.54-9.55-51.82-8.18l-115.9,150-113.18-150S368.68,483.69,349.59,491.87Z"/><polyline class="cls-5" points="515.95 857.32 499.59 838.23 496.86 654.14 517.32 633.68"/><path class="cls-6" d="M453.23,775.5s5.45,30-13.64,30H372.77s-15,1.36-10.91-31.36Z"/><path class="cls-6" d="M666,775.5s5.46,30-13.63,30H585.5s-15,1.36-10.91-31.36Z"/><circle class="cls-5" cx="521.85" cy="672.9" r="10.56"/><circle class="cls-5" cx="521.85" cy="745.18" r="10.56"/><circle class="cls-5" cx="521.85" cy="817.45" r="10.56"/><path class="cls-7" d="M511.86,857.32s-42.27,61.36-47.73,65.45-1.36,9.55-12.27,4.09-77.72-21.81-84.54-24.54S351,896.86,351,896.86s70.91,1.37,91.37,0S471,886,481.86,877.77s17.73-30,17.73-30Z"/><path class="cls-7" d="M532.32,864.14l40.9,61.36c2.73,4.09,17.73-5.45,43.64-9.55s67-14.86,69.63-23.11-.08-64.16-.08-64.16-15,45-36.82,51.82-15,24.55-54.55,8.18S532.32,864.14,532.32,864.14Z"/><path class="cls-7" d="M678.22,523.23c0-4.09,6.81-25.52,1.36-27.76s-24.54-6.33-32.72-7.69-13.57,1.6-13.57,1.6l-15.07,18.85s27.28-9.54,38.19-5.45S678.22,523.23,678.22,523.23Z"/><path class="cls-7" d="M401.41,486.41l-32.73,2.73-16.36,4.09L355,513.68s49.1-13.63,51.82-15S401.41,486.41,401.41,486.41Z"/><path class="cls-1" d="M296.55,291.2s-31.06,16.24-32.38,37.15,7.08,42.25,22.29,50.73S336.56,390,336.56,390s38.4,60.44,90.85,81.3,80,20.38,106.22,16.66,63.49-12,101.69-47.38,55.6-71.38,55.6-71.38,42.6-.94,55.42-31.36S738.69,284,738.69,284s-15.56-18.76-34.35-23.89S598,160.67,598,160.67L400.15,144.2l-55,9.22L295.71,228.6Z"/><path class="cls-8" d="M309.18,284.26s21.41-49.1,34.82-59.62,48.15-29.45,48.15-29.45,28.56,51.06,34,55,14.88,10.61,21.14,10.93S486,257.37,486,257.37l-61.31-49s62.18,29.57,71.58,32.13,42.38,14.27,56.91,14.59a168.64,168.64,0,0,0,27.95-1.93l-34.79-26.57-7-20.9,45.15-10.33L385.86,157.63l-39,10-37.39,60.74Z"/><path class="cls-9" d="M333.74,365s-24.55-72.42-14.53-111.33,29-44.86,29-44.86,29.06,15.13,37.92,20.53c11.52,7,52.68,22.2,59.27,24.54s51.88,5.09,51.88,5.09A711.94,711.94,0,0,1,572,260.19s19.45.88,28.28-4.05c0,0-35.58-31.27-40.62-40.77,0,0,30.54,25.91,55.71,36.17s65.3,19.39,65.3,19.39,10.46,58.23,8,68.3c0,0,23-31.44,27.23-51.45a141.11,141.11,0,0,0,2.37-24.85c.2-9.75,65.64-55.56,54-54.25-25,2.82-45.68-25.71-51-41.09-13.34-38.44-56-70.6-80.69-90.58s-76.72-29.89-118.2-34.66S440.08,45.12,409,69.63s-36.06,44-36.06,44-52.76,10.22-74.63,52.5-26,63-23.74,76.38,11.11,45.71,11.11,45.71,10.76,27.16,26.1,48.72S333.74,365,333.74,365Z"/><path class="cls-10" d="M377.44,119.74s13.38-31.2,28.46-39.93S457,51.25,478.21,50.45s36.77-2.72,48.4.84,43,10,43,10-34.2,1.6-48.62,1.95-49,4.07-56.68,7.43S428,84.37,452.3,81a237.5,237.5,0,0,1,44.49-1.94s-41.7,2.16-54.65,11.23S411.3,112,405.49,118.49s-19.43,19.8-19.43,19.8l-41.58,7c-8.72,1.47-43.68,27.32-48,34.26s9.37-26.39,21.88-34,24.8-20.7,37.43-23.51A86.25,86.25,0,0,1,377.44,119.74Z"/><path class="cls-9" d="M372.87,257s11.51-9.51,17.88-8.51,10.4,4.46,13.54,6.69a35,35,0,0,1,4.81,4s-3.93-11.06-9.18-13.63-10.29-3.79-14.2-2.44S372.87,257,372.87,257Z"/><path class="cls-8" d="M317.37,372.18s-8.74-15.09-11.87-17.32-6.26-.33-6.26-4.47,3.46-4,1.66-10.62-3.59-13.19-5.94-14.86-5.81-1.78-9-.55-8.16,8.95-8,9.62-3.91,5.48-1.45,7.83,6.7-5.26,9.16-7.05,7.49-4.71,7.72.77-6.14,12.75-.43,18,10.18,7.26,13.31,9.49S317.37,372.18,317.37,372.18Z"/><path class="cls-8" d="M702.59,354.47s1.33-16.77,11.16-19.79,15.65-1.25,12.52-7.62-6-7.26-5-13.63,1.89-13.42,6.58-14.21,7.27-1.9,10.74,2.34a19.6,19.6,0,0,1,4.14,8.27s-6.6-6.48-9.84-1.11-3.23,5.37-2.11,12.08S734,332,728.29,335s-9.61,4.37-14,7.17S702.59,354.47,702.59,354.47Z"/><path class="cls-11" d="M415.22,402.66s107.18,6,194.63-11.2c0,0-1.54,40.15-32.35,53.79S484.5,466.33,466,459c0,0-29.78-9-39.51-21.79S415.22,402.66,415.22,402.66Z"/><path class="cls-1" d="M505,341.75s-8.61-6.14-14.75-1.66S489,353.4,494,354.62a42.3,42.3,0,0,0,9.84,1.11"/><path class="cls-12" d="M463.5,452.13s11.53,7,35.67,7.12,48.51-6.75,48.51-6.75L571,443.76s-30.75-10.7-55.23-8.67S463.5,452.13,463.5,452.13Z"/><path class="cls-13" d="M392.57,397.39s-24.48,3.44-30.6,2.77-13.61-6.1-15.66-11.53-1.38-14.28,15.61-18.39,29.92-1.41,33.32,1.3,7.5,10.87,5.47,14.95S396.65,396.7,392.57,397.39Z"/><path class="cls-13" d="M622.73,365.45s17.42-11.19,27.6-12.21,24.93.65,26,3.22,7.84,13.85-6.69,17.67-26.49,6.51-34.88,5.84S618.37,372.39,622.73,365.45Z"/><circle class="cls-14" cx="405.07" cy="315.92" r="19.37"/><circle class="cls-15" cx="395.57" cy="308.61" r="4.56"/><circle class="cls-14" cx="589.36" cy="319.62" r="19.37"/><circle class="cls-15" cx="579.86" cy="312.31" r="4.56"/></g></svg>