<svg id="Layer_1" data-name="Layer 1" xmlns="http://www.w3.org/2000/svg" viewBox="0 0 1000 1000"><defs><style>.cls-1{fill:#fed1a5;stroke:#d6a47c;}.cls-1,.cls-11,.cls-16,.cls-17,.cls-2,.cls-4,.cls-5,.cls-7{stroke-miterlimit:10;stroke-width:3px;}.cls-2{fill:#bf1e30;stroke:#a00b21;}.cls-3{fill:#aa172c;}.cls-4{fill:#2d3892;stroke:#1d2a7c;}.cls-5{fill:#bcbcbc;stroke:#9b9b9b;}.cls-6{fill:#1c2b7f;}.cls-7{fill:#a66720;}.cls-16,.cls-7{stroke:#9b5713;}.cls-8{fill:#de95a0;}.cls-9{fill:#706664;}.cls-10{fill:#eabf98;}.cls-11{fill:#6f5753;stroke:#604946;}.cls-12{fill:#7a635f;}.cls-13{fill:#d88494;}.cls-14{fill:#231f20;}.cls-15{fill:#fff;}.cls-16{fill:#dca058;}.cls-17{fill:#a35f14;stroke:#8c4c0c;}.cls-18{fill:#eab071;}.cls-19{fill:#ad6823;}</style></defs><title>farmer</title><path class="cls-1" d="M705.75,710.36s7.44,49.5,10,61.29c2.71,12.28,7.23,94.89,7.82,98.76,1.17,7.64,4.09,7.53,5.81,16.77s3.22,22.13-10.4,34-44,17.92-55.27,11.08-4.55-21.67-4.55-21.67-3.89,5.82-7.36,4.33-2.4-19.73,12-29.2l-2.15-14.64-6.87-83.39L624,657l72.22-16.75Z"/><path class="cls-1" d="M277.37,697.74s-9.22,49.3-12.28,61c-3.19,12.18-10.33,94.94-11.06,98.79-1.44,7.61-4.48,7.31-6.55,16.49s-4,22,9.87,34.84,45.5,20.81,57.44,14.65,5.39-21.5,5.39-21.5,3.9,6.09,7.57,4.82,3.08-19.68-11.75-30.12l2.67-14.58,9.61-83.4,36.07-129.39-75-21.42Z"/><path class="cls-2" d="M488.5,908.5s70,6,136-6c0,0,16-169,15-176s10,148,10,148l81-10s-25-271-41-295-53-35-53-35-64-25-86-30-130,3-130,3-84,14-106,33c-23.1,20-67,272-72,310l84,14,14-156s13,183,14,192S488.5,908.5,488.5,908.5Z"/><path class="cls-1" d="M534.5,541.5s5-36,5-37-2.5-6.38-2.5-6.38L517.5,478.5h-81l-9,24v39l37,18,47-4Z"/><path class="cls-3" d="M679.5,566.5c-4-4-28-20-45-25s-28-7-41-13-23-13-31-14-20-9-17,0a99.11,99.11,0,0,1,4,17s72,24,90,28,25,5,32,9S679.5,566.5,679.5,566.5Z"/><path class="cls-3" d="M414.5,519.5c-9,0-51,8-61,11s-17,7-20,10-21,19-16,19,29-2,39-10,18-12,30-14,29-1,28-3S414.5,519.5,414.5,519.5Z"/><path class="cls-3" d="M653,792c1-8-6-38-6-53s-3-38-5-39-11,7-13,17-5,11-13-8-21-41-23-69a260,260,0,0,1,2-53s-14.85,20.58-30.43,25.29S534,617,510,618s-36,8-68-2-42-20-42-20-19,28-21,38-14,36-19,45-11,14-18,16-15-1-16,14-3,33-5,45-3,51-4,57-3,37,0,26,8-45,11-58,5-54,7-62,5-16,7-17,6,7,7,11,0,32,1,40,7,42,7,42,192,23,199,16,25-39,36-46,37,25,37,25,1-23,2-30,5-41,5-41l3-7s3,15,4,19,3,50,4,53,6,56,6,59-2,21,2,21,44,1,52,0,20-17,19-20-17,9-32,4-22-9-30-26S653,792,653,792Z"/><path class="cls-4" d="M638.5,929.5s-42,3-91,7-102-6-135-6-71-3-76-6,4-97,4-112-1.25-43.1,10.13-53.82C362.5,747.5,389.5,650.5,395.5,640.5s50-5,107-5,69.17.19,78,7,24,80,27,87,5.86,18.84,12,26c6,7,11,19,15,25s5,48,3,63S638.5,929.5,638.5,929.5Z"/><path class="cls-4" d="M367.5,516.5s11,92,12,106,2,17,3,27,2,28,5,31,24,10,31-4c7.21-14.42,3-7,0-30s-13-104-14-116-1-23-6-23S367.5,512.5,367.5,516.5Z"/><path class="cls-4" d="M579.5,510.5s-1,2-2,15-11,61-11,71-14,82-10,87,29,14,33-4,19-115,22-139,6-18,3-19S584.5,509.5,579.5,510.5Z"/><circle class="cls-5" cx="402.79" cy="665.58" r="12.51"/><circle class="cls-5" cx="573.93" cy="666.64" r="12.51"/><path class="cls-2" d="M539.5,502.5s-1,35-11,42a65.69,65.69,0,0,1-49,10c-21-4-45.22-8.06-49.11-22.53s.11-23.46-2.89-25-14.34.51-15.67,2.5,1.67,39,15.67,54,37,16,61,14,45-10,53-20,17.84-38.77,13.42-51.89C554.92,505.61,542.5,500.5,539.5,502.5Z"/><path class="cls-2" d="M242.5,837.5s14.14,4.45,23.34,7,25.88,3.36,40.78,4.8,23.64.6,24.88,1.15-1.38,5.62-2,12-7.4,8.3-12,7-56.21-4.78-63.62-8.07-10.69-1.15-11.38-2.93-4-8.19-2-11S239.48,837.64,242.5,837.5Z"/><path class="cls-2" d="M732.5,861.5s-16.89,6.74-28.75,7.43-38.62.8-46.43.35-8.78-3.22-9.82-.78,1.63,13.43,1,17,45.77,1.46,58.8,2.22,28.13-3.35,27.66-6.43S735.92,863.92,732.5,861.5Z"/><path class="cls-6" d="M633.22,813.57S626,891,627,900s4,19,0,20-76,7-92,6-81-3-86-3-56-3-67-5-42-2-40-8,4-15,4-15,57,5,101,6,100,6,120-13,38-38,47-51,12-24,12-38-10-30-10-32,18,22,18,28S633.22,813.57,633.22,813.57Z"/><path class="cls-7" d="M279.42,296.89S221.56,321.37,211.58,327c-9.4,5.3,52.11,12.72,162,38.41s332.66-4.51,360.2-10.87c28.95-6.68,67.61-.31,43-12.91s-84.76-49.73-84.76-49.73S531.92,261.58,473.57,260,346,270.18,317,276.86,279.42,296.89,279.42,296.89Z"/><path class="cls-1" d="M321.86,342.43s-21.72,5.56-23.74,22.74,4,31.33,12.63,37.39,20.71,8.59,20.71,8.59,21.73,54.56,60.63,76.29,72.25,25.26,87.41,25.26,72.75-9.6,103.07-31.83,50-49,54.56-58.1c0,0,33.86-6.57,39.41-27.29s.51-30.81-3.53-33.85-17.69-9.09-17.69-9.09l-3.53-95-93.47-33.34-151.07,3.53-48.5,24.76L331,324.75Z"/><path class="cls-8" d="M428.47,443.48s2,36.38,21.73,42.95,48.5,5.05,58.1-1S529.52,460.66,531,449s-35.36-10.61-35.36-10.61-36.89-3-48.51,0S428.47,443.48,428.47,443.48Z"/><path class="cls-9" d="M388.05,327.78s10.11-8.59,19.2-4.54c0,0,6.06,3,7.58,5.05,0,0-2-7.58-10.11-8.59S389.57,324.25,388.05,327.78Z"/><path class="cls-9" d="M547.2,339.91s6.57-5.05,12.63-4,10.61,3.53,11.62,5.05l1,1.51s-2.52-8.58-7.58-9.6-9.59-.5-12.63,1S547.2,339.91,547.2,339.91Z"/><path class="cls-1" d="M480,400s-6.56-2.52-7.07,1,3,7.08,6.06,6.07"/><path class="cls-10" d="M325.4,395s-1-7.58-3-10.11-5.05-1-2-5.55,5-8.09,2-14.65-6.06-11.63-10.61-9.1-8.08,13.64-7.58,14.15,4.55-11.12,9.6-9.6,3,14.14,3,16.17-1,8.58.51,11.11S322.87,397,325.4,395Z"/><path class="cls-10" d="M644.71,407.11s4-10.11,7.58-11.63,6.06-3,4-6.56-2-9.1,0-12.13,4-9.6,8.59-6.57,8.09,9.1,8.09,10.61-4.55-6.06-8.09-5.05-6.57,4-6.06,7.58,3,7.58,1.52,10.61-3,4.55-5.56,7.07S644.71,407.11,644.71,407.11Z"/><path class="cls-10" d="M626,327.78c0-2.52-9.6-32.84-14.65-39.91s-8.59-8.59-8.59-8.59S582.06,295.45,563.37,297s-55.07-1-65.18-4.54-25.26-16.17-25.26-16.17S582.06,254,582.57,253.51s39.41,1,39.41,1l14.65,24.25Z"/><path class="cls-10" d="M363.29,311.11l-6.06,14.15s-4-15.16-3.54-19.2-1.51-19.71-1.51-19.71,19.2-22.23,19.7-22.23,13.64,2.53,13.64,2.53Z"/><path class="cls-11" d="M336,381.34s-15-36.47-17.12-37.94,5.5-74.73,23.69-98.48,51-57.59,105.09-65.17,95-8.09,123.28,0,49,29.81,49,29.81,43.45,12.12,49,39.4,9.6,55.08,5.06,72.76-15.16,39.41-15.16,39.41L641.18,392s2.52-70.23-1.52-80.34c0,0-11.62,25.77-14.65,28.3,0,0,2.52-30.82-2.53-45s-15.15-32.33-20.71-35.36c0,0-22.74,28.29-48,32.84s-57.6-.51-83.87-9.6-47-12.13-57.6-9.1S381.48,283.83,373.9,297s-15.15,25.26-15.15,25.26.5-40.41,7.58-48.5c0,0-15.16,12.63-20.21,42.44s-9.1,44.46-8.59,52.55S336,381.34,336,381.34Z"/><path class="cls-12" d="M617.94,212.59s-16.68-18.7-35.37-24.76-43.45-8.59-52.55-9.09-36.88,1-36.88,1,68.71,9.09,81.34,13.64,20.72,8.08,27.29,14.65l12.63,12.63s31.32,6.57,36.38,10.11,12.63,13.13,14.65,18.18c0,0-1.52-15.15-14.65-22.23S634.61,214.1,617.94,212.59Z"/><path class="cls-13" d="M436.81,471.52s5.55,11.12,16.67,14.66,30.82,4,33.85,3.53,17.68-3,19.2-4,6.06-5.05,6.06-5.05S464.59,462.43,436.81,471.52Z"/><path class="cls-11" d="M420.85,447.45s87.92-11.42,121.34,6.7c0,0-17.5-23.51-31.87-28.17s-40-7.27-50.2-5.68-24,11.11-28.6,13.44S420.85,447.45,420.85,447.45Z"/><circle class="cls-14" cx="401.67" cy="368.52" r="14.39"/><circle class="cls-15" cx="394.47" cy="363.27" r="3.39"/><circle class="cls-14" cx="553.35" cy="373.77" r="14.39"/><circle class="cls-15" cx="546.16" cy="368.52" r="3.39"/><path class="cls-16" d="M210.26,327.72c8.33-7.05,48.5-39,121.88-65.15,0,0,56.84-129.86,65.53-144.18s41.57-59.64,68.4-61.08,36.53,20.42,44.6,19.46S553.05,57.31,567.37,66s41.69,24.67,65.75,83.33,42.71,118.4,45.2,122.53,84.14,47.74,106,74.19a.12.12,0,0,1-.13.18c-4.34-1.4-45.36-14.61-84-26.52-40.91-12.6-189.67-36.86-243.27-35.32s-118.14,7.93-157.42,18.16c-34.63,9-78.84,22.8-88.83,25.94A.45.45,0,0,1,210.26,327.72Z"/><path class="cls-17" d="M353,215.21c2.14-1.92,76.47-32.45,147.24-29.19s151.44,24.39,163,35.63l15.08,50.21s-106.22-18.29-166.25-22.4-179.93,13.11-179.93,13.11S341.83,225.25,353,215.21Z"/><path class="cls-18" d="M398,137s20-38,30-47,11-22,26-22,30,4,39,10,22,9,32,4,19-14,27-11,26,9,31,16,15,16,15,16-28-12-37-12-21,4-34,10-38,1-53-2-28-5-39,6S398,137,398,137Z"/><path class="cls-19" d="M356,220c2-1,60-13,76-17s54-9,56-9-39,20-41,30,3,21,4,21-53,3-60,4-35,3-41,4-9-9-4-16A152.57,152.57,0,0,0,356,220Z"/></svg>