<svg id="Layer_1" data-name="Layer 1" xmlns="http://www.w3.org/2000/svg" viewBox="0 0 1000 1000"><defs><style>.cls-1{fill:#fed1a5;stroke:#d6a47c;}.cls-1,.cls-2,.cls-4,.cls-5,.cls-6,.cls-9{stroke-miterlimit:10;stroke-width:3px;}.cls-2{fill:#e2c26d;stroke:#bf9d4f;}.cls-3{fill:#d3af5e;}.cls-4{fill:#7d7f4e;}.cls-4,.cls-5{stroke:#66663c;}.cls-5{fill:#5e544b;}.cls-6{fill:#806e2e;stroke:#665624;}.cls-7{fill:#6d6d41;}.cls-8{fill:#eabf98;}.cls-9{fill:#a3afbd;stroke:#8e949b;}.cls-10{fill:#e49ca0;}.cls-11{fill:#acb8c1;}.cls-12{fill:#231f20;}.cls-13{fill:#fff;}.cls-14{fill:#726128;}</style></defs><title>fisherman</title><path class="cls-1" d="M746.4,685s14.94,47.77,19.31,59c4.56,11.71,21.7,92.66,22.88,96.39,2.32,7.37,5.19,6.81,8.3,15.68s6.58,21.37-5.06,35.19-40.77,24.46-52.92,19.42S731.1,890,731.1,890s-3,6.35-6.61,5.42-5.4-19.14,7.43-30.71l-4.37-14.14L708,769.18,657.45,644.8l68.8-27.62Z"/><path class="cls-1" d="M252.32,662.48s-16.82,47.25-21.68,58.31c-5,11.52-25.06,92.15-26.38,95.84-2.62,7.29-5.58,6.52-9,15.26s-7.42,21.15,4.29,36,41.68,27.68,54.44,23.46,8.68-20.4,8.68-20.4,2.9,6.64,6.73,6,6.12-19-6.89-31.6l4.92-14,22.55-80.86,55.88-122.16-70.72-32.89Z"/><path class="cls-2" d="M494.5,893.5s100,3,166-9c0,0-11-192-12-199s23,42,23,42l94-36s-41-133-57-157-63-41-63-41-64-25-86-30-130,3-130,3-53,12-80,21-102,143-117,171l86,49,27-54s-17,222-16,231S494.5,893.5,494.5,893.5Z"/><path class="cls-1" d="M543.5,500.5s5-36,5-37-2.5-6.38-2.5-6.38L526.5,437.5h-81l-9,24v39l37,18,47-4Z"/><path class="cls-3" d="M326,668c1-1,24-31,26-28s-2,32-2,38-3,29-3,29,35,14,37-24-6-81-9-109-19.42-51.5-25.21-58.75-18.35-4.42-18.57-4.83S311,537,311,542s15-6,20,15,4,48,0,62-14,58-20,59-27-5-38-10-26-12-26-12,41,28,48,32,17.74,11.57,19.87,7.78S326,668,326,668Z"/><path class="cls-3" d="M638,718c1-1,2-30,4-35s7-10,13-5,17.35,28.52,18.17,32.26S678,718,686,713s34-7,28-12-19-9-30-19-22-11-30-25-3-31-2-50,4-49,11-61,17-18,27-11,15,29,17,14-34.29-35.28-44.14-40.14S634,499,634,499s-66,99-48,146,15,51,29,66S638,718,638,718Z"/><path class="cls-3" d="M533,887c-9-2-15,4-13-12s1-183,3-201,2-49,6-70,15-89,21-102,2.5-30.43,12.25-31.22S586,482,586,482L555,742,543,884Z"/><path class="cls-3" d="M457,887s15,4,16,0,0-202,0-222-9-96-13-114-11.43-45.35-15.22-46.17S429,513,429,513s34,99,34,165V823C463,841,457,887,457,887Z"/><path class="cls-2" d="M435.19,466.1s-2.69,27.4,9.31,33.4,43,12,62,10,33-13,36-18S548,461.86,548,461.86s10.21-.46,13.34,2.09-2.87,26.55-5.87,35.55-22,22-38,24-46,0-60-5-25-8-29-20-7.31-30.08-7.31-30.08S433.89,462.69,435.19,466.1Z"/><path class="cls-4" d="M576.5,464.5c5.51-6.33,81.89,24.87,83.22,28.85S622.5,575,622.5,609.5c0,41,2.71,70,12,82s16.35,20,19,24,14,149.4,14,164-4.92,11.36-62,18-76,5-76,5-3.78-259,5-297C543.5,566.5,550,495,576.5,464.5Z"/><path class="cls-4" d="M417.5,467.5c-6-6.33-90.59,23.87-92,27.85S366,577,366,611.5c0,41-2.94,70-13.05,82s-17.78,20-20.67,24S317,866.9,317,881.5s5.35,11.36,67.45,18,82.67,5,82.67,5,4.11-259-5.44-297C451.89,568.5,446.38,498,417.5,467.5Z"/><path class="cls-5" d="M654.5,737.5s-87,4-122,0v11s52,7,122,0Z"/><path class="cls-5" d="M462.5,737.5v10s-88,4-132,0l2-10S429.5,741.5,462.5,737.5Z"/><path class="cls-6" d="M560.5,795.5s-5,52,2,59,66,7,75-2,0-57,0-57Z"/><path class="cls-6" d="M558.5,788.5c1,0,79-1,81,0s7,18,4,19-34,5-43,5-39,0-44-4S558.5,788.5,558.5,788.5Z"/><path class="cls-6" d="M426.75,795.58s4.7,52-2,59-62.68,6.94-71.22-2.07.06-57,.06-57Z"/><path class="cls-6" d="M428.66,788.58c-1,0-75-1.08-76.92-.08s-6.67,18-3.82,19,32.28,5,40.83,5,37,0,41.79-4S428.66,788.58,428.66,788.58Z"/><path class="cls-6" d="M436.61,593.11s4.24,28.83.75,32.93-34.7,5.83-39.74,1.08-1.75-31.76-1.75-31.76Z"/><path class="cls-6" d="M437.45,589.15c-.53,0-41.83,1.75-42.86,2.37s-3.15,10.23-1.53,10.7S411.2,604,416,603.75s20.63-1.14,23.15-3.51S437.45,589.15,437.45,589.15Z"/><path class="cls-7" d="M657.45,820.61S669,882,661,884s-42.87,7-61.43,7.48S547,895.67,543,893.83,532,866,539,869s59,3,77-2,23,2,28-15A158,158,0,0,1,657.45,820.61Z"/><path class="cls-7" d="M454,897c-6,0-51-7-70-8s-45,2-52-5-9-29-8-32,34.37,12.75,52.69,16.87S415,882,429,887s29,4,29,7S454,897,454,897Z"/><path class="cls-1" d="M352.73,270.72s-26.23,2.14-26.23,25.16S350.59,328,350.59,328s-6.43,74.94,5.89,91.54,34.79,40.15,98.49,45,127.4-8,127.4-8,48.71-12.84,68-46a199.28,199.28,0,0,0,9.64-61s34.79-4.82,39.08-25.7-7-31-17.67-33.19S654.64,283,654.64,283s18.73-34.26-10.71-57.81-124.72-44.43-124.72-44.43l-130.08,36.4Z"/><path class="cls-8" d="M662.13,333.35c.54-1.07,1.61-5.36,2.68-5.36s4.28-2.14,4.28-4.81-4.82-2.15-2.68-5.89,1.61-7.5,4.82-10.17,5.89-5.36,10.17-4.29,5.89.54,7.5,3.22,1.6,4.28,2.14,5.88-1.07,5.89-1.07,5.89.53-7.49-.54-8.56-5.89-3.75-9.1-2.68-7,3.21-8,4.82-4.28,3.75-2.67,5.89,4.28,6.42,3.74,8.56-3.21,5.36-4.28,7.5-3.21,5.88-4.28,6.42S661.6,334.42,662.13,333.35Z"/><path class="cls-8" d="M352.19,312.47s-1.07-8-2.14-9.64-3.21-2.14-1.07-5.35,4.82-3.75,2.14-7.49-2.67-5.36-7-5.36-9.1,2.68-10.17,4.82-1.6,7-1.6,7,2.14-8,4.82-8.56,8.56-1.61,10.17.53,0,5.35-1.07,7.5-1.61,4.28,0,6.42,3.74,5.35,3.21,7.49A2.13,2.13,0,0,0,352.19,312.47Z"/><path class="cls-9" d="M450.69,269.11s-25.16-5.35-36.4-4.82A91.07,91.07,0,0,0,395.55,267s6.43-15.52,18.2-15.52,30,11.24,30,11.24Z"/><path class="cls-9" d="M563.1,270.72c1.07-.54,25.16-2.68,36.4.53s18.74,5.89,18.74,5.89-3.22-8.56-5.89-11.24-8-7.5-19.81-6.42S563.1,270.72,563.1,270.72Z"/><path class="cls-10" d="M457.33,405.71c.05.53,23.4,9.84,50.91,4.83l14.36-1.75s-8.82,22.77-19.27,26.34-16.71,5.71-32.14,1.1S457.33,405.71,457.33,405.71Z"/><path class="cls-8" d="M643.4,278.75s-3.22-1.07-7.5-7-5.89-5.36-14.45-9.64-11.24-8-10.71-16.59,4.82-16.6-10.7-19.27-46-7-64.77-7.5-72.27,8-80.83,7.5-50.86,16.59-56.21,16.06S379,249.84,379,249.84s11.78-15.52,12.31-16.59,107.06-28.37,107.06-28.37l92.61,3.74,41.75,16.06,18.2,26.77Z"/><path class="cls-9" d="M359.15,297.48c0-1.07-11.77-31.05-11.77-50.32s9.34-56.71,21.12-78.66,38.83-61.58,82.19-56.23,80.29,16.59,137,49.25,55.14,40.14,55.14,40.14,30-3.74,41.22,13.39,5.35,50.85,4.28,56.2S676.05,313,675,314.08s-24.09-15.53-24.09-15.53-11.78,20.34-11.78,19.81,2.14-51.93,2.14-51.93L614,254.66l-.53-31.58s-72.8-10.71-111.88-8-114,28.9-114,28.9-13.38,30-16.59,39.61Z"/><path class="cls-11" d="M367.72,158.3s32.65-38.54,57.27-40.68,60.49,1.07,84.05,10.71,61.56,27.3,61.56,27.3-25.7-2.68-30,.53S565.78,177,565.78,177s-50.32-3.75-63.7-3.21,23,19.27,23,19.27-45.51-28.91-76-26.77-68,31.59-68,31.59l-20.88,28.37s15.53-39.08,15-40.69-23,26.77-23,26.77S354.87,178.11,367.72,158.3Z"/><path class="cls-11" d="M641.25,205.41s-1.6-4.28-4.81-6.42-13.92-8-15-8.57,11.24,9.64,11.24,9.64l-10.17-1.61,16.59,13.92s9.1-2.14,15.53-2.14,23,2.14,23,2.14-10.17-6.42-20.87-7.49S641.25,205.41,641.25,205.41Z"/><path class="cls-9" d="M433.56,385.27s-2.68,24.62-2.68,27.84-1.6,48.71,0,51.38,64.77,12.32,92.07,5.89,33.44-5.52,35.19-8.65S545.44,388,545.44,388l-15.53-4.82s4.29,55.13,4.29,58.88-8.57,16.06-14.46,15-13.38-2.14-15.52-3.75-2.68-5.89-4.28-5.89-17.67-1.6-18.2-1.07-3.22,4.82-5.36,5.89-14.45,2.68-20.34,1.61-10.7,4.28-11.24-5.35,3.75-65.31,3.75-65.31Z"/><path class="cls-9" d="M425.53,388s13.92-27.84,39.61-33.19,44.43-3.75,62.1,7,27.3,30.51,27.3,30.51S464.61,383.66,425.53,388Z"/><path class="cls-11" d="M443.46,369.48s11.78-9.1,19.27-10.71S489.5,355,495.39,355s23.55,5.35,23.55,5.35-27.3-2.14-31.05-1.61S459.52,362,459.52,362Z"/><circle class="cls-12" cx="430.32" cy="313.88" r="15.25"/><circle class="cls-13" cx="422.7" cy="308.32" r="3.59"/><circle class="cls-12" cx="573.37" cy="311.94" r="15.25"/><circle class="cls-13" cx="565.74" cy="306.39" r="3.59"/><path class="cls-4" d="M354.56,224s-67,10.63-78.67,19.14-21.26,24.45,24.45,34,261,21.79,328,10.1,114.81-9.57,131.82-33-177.54-41.46-185-39.34S354.56,224,354.56,224Z"/><path class="cls-4" d="M332.77,239.38s55.28-139.27,58.47-143.53,78.67-29.76,126.51-26.57,89.3,10.63,123.32,25.51c0,0,54.22,141.4,51,144.59s-106.31,37.2-183.92,31.89S332.77,239.38,332.77,239.38Z"/><path class="cls-7" d="M593.23,85.22c-2.94-4.42,39.34,9.57,42.53,12.76s50,136.08,48.9,137.14-65.91,21.27-65.91,21.27S633.63,145.82,593.23,85.22Z"/><path class="cls-6" d="M358.28,187.28s183.92,30.83,314.69,0l11.69,33s-220.06,44.65-339.13,0Z"/><polygon class="cls-14" points="669.73 189.9 679.71 219.02 621 228.17 621.29 198.22 669.73 189.9"/><path class="cls-7" d="M730.38,242.56c-2.13,1.07-62.73,35.09-169,34L455,284s139.27,9.56,224.32-8.51c0,0,71.23-10.63,71.23-22.32S730.38,242.56,730.38,242.56Z"/></svg>