<svg id="Layer_1" data-name="Layer 1" xmlns="http://www.w3.org/2000/svg" viewBox="0 0 1000 1000">
  <defs>
    <style>
      .cls-1 {
        font-size: 120px;
        font-family: FreeSansBold, FreeSans;
      }

      .cls-2 {
        letter-spacing: -0.01em;
      }

      .cls-3, .cls-4 {
        fill: #ed2024;
      }

      .cls-3 {
        letter-spacing: -0.01em;
      }

      .cls-5 {
        fill: #d39755;
      }

      .cls-5, .cls-7 {
        stroke: #af6c2d;
        stroke-miterlimit: 10;
        stroke-width: 3px;
      }

      .cls-6 {
        fill: #bf792a;
      }

      .cls-7 {
        fill: none;
      }
    </style>
  </defs>
  <title>rope</title>
  <text class="cls-1" transform="translate(374.21 806.55)"><tspan class="cls-2">r</tspan><tspan class="cls-3" x="44.88" y="0">o</tspan><tspan x="117" y="0">p</tspan><tspan class="cls-4" x="190.32" y="0">e</tspan></text>
  <path class="cls-5" d="M321.74,155s-33.65,12.53-48.91,40.31-25,51.65-7.44,56.74,68.09-14.48,105.26-34.83,102.52-46.17,132.26-34.83,3.52,48.53-8.21,60.66-66.92,62.21-75.13,70.82-32.87,33.26-28.18,37.18,81.78-24.26,92.74-27,44.22-14.09,51.26,7-20,53.22-18.39,56,51.65-27.79,64.57-30.92S630.09,343.26,643,362s-29,62.61-57.13,85.7S493.52,524,482.17,546s-16,55.56,66.53,12.91c0,0,72.78-51.26,112.3-79s90.39-42.66,120.91-25.44-39.52,95.87-53.61,93.13-23.87-12.91-6.26-26.61,46.57-43,37.57-47.74-46.57,5.87-81.78,29-115.05,82.57-137.74,92-55.57,27.78-87.66-6.26,54.4-110,62.22-115.44,100.18-86.32,101-91.1-2.74-5.4-18.39,0-83.35,42.58-94.31,40.62-26.21-11.34-16.43-35.21,33.65-45.4,11.35-39.92-62.61,25.05-85.7,28.57-70,.39-41.09-45S468.09,234.48,474,229s22.3-24.26,5.08-22.3-83,27.39-124.43,48.91-97.44,34-114.65,14.09S217.65,216.48,263,164s75.53-35.61,77.48-28.17S344.43,156.61,321.74,155Z"/>
  <path class="cls-6" d="M332.3,142.52s1.18-1.17-8.21,0-38,16.83-44.61,22.7-27,32.48-29.74,38.74-5.48,25-3.13,30.13,5.87,9.39,6.65,7.43-2.6-27.39,27-60.65,50.18-27.78,52.09-29S332.3,142.52,332.3,142.52Z"/>
  <path class="cls-6" d="M230.57,246.74s11.21,27.91,56.08,18.78,109.83-44.87,125-48.78S464.3,198,476.83,200s15.91,5.22,13.56,7.31-1.3-1.57-7-2.35S420,223.59,397.26,233.6s-67.3,28.81-78.78,33.76S279.87,281.7,252,275.7C252,275.7,234.22,268.65,230.57,246.74Z"/>
  <path class="cls-6" d="M492.74,242s-60.26,48.3-66.26,50.65S397,312.74,393.35,318.74s-11.48,19.83-9.92,24.52a15.23,15.23,0,0,0,5.74,7.31s-1-9.14,24.26-34.18,53.48-49.3,53.48-49.3Z"/>
  <path class="cls-6" d="M364.13,350.57s28.44,17.21,43.3,13.3,45.66-20.61,57.92-23.74,30.78-9.13,39.39-6.78,21.39,4.95,18.52,11.48-15.65,20.34-20.35,27.65-12.78,20.87-13.82,25,0,14.87,0,14.87a24.63,24.63,0,0,1-3.92-14.87c.53-8.8,19.83-38.35,19.83-38.35s6.54-6.26,3.53-12.52-18.66-.26-18.66-.26-61.3,23.48-66.52,24.78-26.24,6.41-41.22,1.43S363.18,359.7,364.13,350.57Z"/>
  <path class="cls-6" d="M536.83,405.09c1.3-.79,24.52-21.92,40.17-28.7s42.78-12.52,48.52-7.82,11.74,10.17,3.13,18.52S604.39,407.43,596.3,414s-35.73,21.39-35.73,21.39S606.74,398.59,612,391s8.34-12.53,5.74-14.62-10.7,0-12.79.26S559,396.48,559,396.48L530.83,410.3Z"/>
  <path class="cls-6" d="M496.39,522.48c.53-.57-28.69,26.35-30.26,32.87s-8.09,12.52,0,20.35,13,13.82,22.7,12.52,19.3-.26,25.82-5,16.18-12.78,16.18-12.78-30.26,14.35-42.53,11.22-19.3-7.31-15.65-16.44S475.78,544.65,496.39,522.48Z"/>
  <path class="cls-6" d="M526.65,595.78c1.57-1.3,94.44-68.61,108.52-82.17s29.74-19.83,45.92-30,30.52-15.39,42.52-17.48,34.43-5.48,38.35,0,0,13,0,13,2.87-7.56-2.87-9.13-46.18,7.83-57.13,14.35-86.43,57.13-96.79,66.26S557.43,582,557.43,582Z"/>
  <g>
    <path class="cls-7" d="M323.7,127.34s-15.1,14.23-3.38,28.27"/>
    <path class="cls-7" d="M286,142s-3.14,22.14,3.45,33"/>
    <path class="cls-7" d="M263,164s-1.3,25.05,9.79,31.31"/>
    <path class="cls-7" d="M239.46,196.91s5.65,15.35,22,21.31"/>
    <path class="cls-7" d="M228,229.64s8.62,15.19,28.25,12.36"/>
    <path class="cls-7" d="M265.39,252.09s-5.94,15.62-30,11.46"/>
    <path class="cls-7" d="M292,249.91s-9.39,24.56-14.6,29.54"/>
    <path class="cls-7" d="M317.86,241.61s-.16,19.87-4.34,30.7"/>
    <path class="cls-7" d="M340.39,232.28s5.75,15.14,4.31,28.17"/>
    <path class="cls-7" d="M368.9,218.22s6.32,11.33,5.14,28.14"/>
    <path class="cls-7" d="M399.87,202.92s2.75,18.13,0,31.56"/>
    <path class="cls-7" d="M427.83,191.83s6,18.4,3.22,30"/>
    <path class="cls-7" d="M463.12,182s-.4,20.19-4.76,30.08"/>
    <path class="cls-7" d="M493.77,180.2s-1.15,17.73-13.94,26.42"/>
    <path class="cls-7" d="M516.49,198.5s-15.79,25-36.66,24.21"/>
    <path class="cls-7" d="M462,238.74s6.76,9.17,32.72,4.35"/>
    <path class="cls-7" d="M439.58,257.35s7.09,10.89,33.65,6.27"/>
    <path class="cls-7" d="M415.11,279.46s10,8.82,35.41,5.26"/>
    <path class="cls-7" d="M395.68,299.17a161.45,161.45,0,0,0,35.38,3.68"/>
    <path class="cls-7" d="M374.46,325.23a60.63,60.63,0,0,0,34.3,0"/>
    <path class="cls-7" d="M362.3,358.89s13.57,2.5,28.51-9.24"/>
    <path class="cls-7" d="M422.17,344.29s-10,26.65-32.32,31.72"/>
    <path class="cls-7" d="M452.61,334.4s-8.09,25.81-15.15,34"/>
    <path class="cls-7" d="M487.8,323.11s-5.1,24.39-12.28,31.27"/>
    <path class="cls-7" d="M523,319.69s-6,23.32-16.31,27.36"/>
    <path class="cls-7" d="M533.15,355.12s-20.87,15.26-34.42,9.4"/>
    <path class="cls-7" d="M518.65,382.83s-16.52,10.91-32.17,3.87"/>
    <path class="cls-7" d="M517,387.09s-11.51,20.11-31.71,22.64"/>
    <path class="cls-7" d="M533.83,379.8s0,26.82-17.89,39"/>
    <path class="cls-7" d="M553.65,369.23s-1.42,26.12-9.64,37.19"/>
    <path class="cls-7" d="M575.07,358.55s1.7,22-3.14,34.31"/>
    <path class="cls-7" d="M598,352.52s4.46,17.25-5.86,30.8"/>
    <path class="cls-7" d="M621.6,351.14s-1,14.9-9.51,26.34"/>
    <path class="cls-7" d="M638.37,357.14s-11.12,18.76-22.68,22.66"/>
    <path class="cls-7" d="M609.91,387.82s3,10.16,27.18,5"/>
    <path class="cls-7" d="M586,410.25s4.34,18.73,38.71-.52"/>
    <path class="cls-7" d="M567.31,427s12.34,13.22,33.64,7.53"/>
    <path class="cls-7" d="M547.1,444.81s14.13,13.3,32.06,8.44"/>
    <path class="cls-7" d="M524.39,464.41s16.54,10.12,36.53,4"/>
    <path class="cls-7" d="M494.66,490.35a66.57,66.57,0,0,0,39.67,1"/>
    <path class="cls-7" d="M477.84,508.18a45.72,45.72,0,0,0,36.65,1.3"/>
    <path class="cls-7" d="M458.75,533.22s15.6,5.66,32.62,0"/>
    <path class="cls-7" d="M446.2,561.3a46.69,46.69,0,0,0,30.09,1.09"/>
    <path class="cls-7" d="M448.25,582s26.32.45,30.12-7.15"/>
    <path class="cls-7" d="M472.42,602.79s26.2,4.85,36.11-26.64"/>
    <path class="cls-7" d="M536.05,565.14s-2.06,22.51-10.43,35.05"/>
    <path class="cls-7" d="M564.85,547.49s3.76,19.11-3.26,34.49"/>
    <path class="cls-7" d="M592.46,528.05a65,65,0,0,1,2.48,31.65"/>
    <path class="cls-7" d="M612.42,514s8.3,17.85,6.66,28.88"/>
    <path class="cls-7" d="M634.88,498.2s8.72,9.22,7,28.62"/>
    <path class="cls-7" d="M662.63,478.69s9,15.64,5.73,29.78"/>
    <path class="cls-7" d="M683,466.35s6.41,20.43,3.18,30.59"/>
    <path class="cls-7" d="M717.87,452.05s5,17.91,0,29.1"/>
    <path class="cls-7" d="M747.74,447.08s-1,19.36-5.78,26.44"/>
    <path class="cls-7" d="M772.22,450.19s-9.37,17.53-16.27,22"/>
    <path class="cls-7" d="M789.54,468.61a33.12,33.12,0,0,1-30.56,14"/>
    <path class="cls-7" d="M750.88,493.58s8.12,16.54,22.19,13.13"/>
    <path class="cls-7" d="M734.71,510.1S736,531,752.87,530.87"/>
    <path class="cls-7" d="M717.87,524.59s4.77,22.47,12.3,22.89"/>
  </g>
</svg>
