<svg id="Layer_1" data-name="Layer 1" xmlns="http://www.w3.org/2000/svg" viewBox="0 0 1000 1000"><defs><style>.cls-1{fill:#f4f9fc;stroke:#9dc0d1;}.cls-1,.cls-2,.cls-3,.cls-7{stroke-miterlimit:10;stroke-width:3px;}.cls-2{fill:#6a6663;}.cls-2,.cls-3{stroke:#565350;}.cls-3,.cls-6{fill:#54504d;}.cls-4{fill:#feffff;}.cls-5{fill:#e1eaef;}.cls-7{fill:#c2cdd1;stroke:#9eaaad;}.cls-8{fill:#8c959a;}.cls-9{fill:#71797c;}</style></defs><title>pepper</title><path class="cls-1" d="M405.5,345.5s-21-11-24,31-32,388-32,388,43,69,150,62,159-31,166-61-32-408-32-408l-148-5Z"/><path class="cls-1" d="M413.5,331.5s-46,16-22,40,71,39,137,35,99.66-31.87,104.33-41.44S629.5,342.5,615.5,337.5s-53-13-53-13Z"/><path class="cls-2" d="M380.5,523.5s-17,229-14,237,45,60,146,53,142-47,142-56-12-246-20-252S380.5,523.5,380.5,523.5Z"/><path class="cls-3" d="M634.5,496.5c-3.16-6.32-55-12-64-18s-84-14-122-5-78,33-68,50,69,13,79,13,90,12,119-10C578.5,526.5,645.5,518.5,634.5,496.5Z"/><path class="cls-4" d="M407.5,399.5c3,3,53,21,77,22s70-7,94-11,38-33,45-11,12,57,8,64-27-12-30-19-39-12-55-11-57,9-85,1-44-14-49-20S407.5,399.5,407.5,399.5Z"/><path class="cls-5" d="M399.5,355.5s35,26,58,31,63,5,74,4,38-6,49-11,32-17,33-19,4-15-6-21-177-3-185-3S398.5,344.5,399.5,355.5Z"/><path class="cls-6" d="M640.5,651.5s8,94,3,102-55,36-76,39-92,12-110,8-61-28-63-29,82,7,126,8,86-16,93-25,19-32,19-52S640.5,651.5,640.5,651.5Z"/><path class="cls-7" d="M407.5,307.5v40s24,27,88,28,105-13,116-34l-3-43Z"/><path class="cls-7" d="M420.5,291.5s-33.59,13,3.21,39.52,150,13.65,173.91-1.93,13.88-39.59-.12-39.59S420.5,291.5,420.5,291.5Z"/><path class="cls-7" d="M416.5,229.5v75s25,30,82,29,103-29,104-32-2-74-2-74Z"/><path class="cls-7" d="M507.5,196.5c-1,0-89,1-91,33s73,42,104,38,89-9,80-40S507.5,196.5,507.5,196.5Z"/><path class="cls-8" d="M539.5,270.5s21,12,21,22-12,28-16,29,49.69-18.18,52.85-22.59.15-49.41.15-49.41S580.5,268.5,539.5,270.5Z"/><path class="cls-9" d="M473.5,211.5a12.81,12.81,0,0,0-13,0c-7,4,4,7,7,6S476.5,217.5,473.5,211.5Z"/><path class="cls-9" d="M455.5,227.5a12.81,12.81,0,0,0-13,0c-7,4,4,7,7,6S458.5,233.5,455.5,227.5Z"/><path class="cls-9" d="M516.5,207.5a12.81,12.81,0,0,0-13,0c-7,4,4,7,7,6S519.5,213.5,516.5,207.5Z"/><path class="cls-9" d="M516.5,245.5a12.81,12.81,0,0,0-13,0c-7,4,4,7,7,6S519.5,251.5,516.5,245.5Z"/><path class="cls-9" d="M497.5,223.5a12.81,12.81,0,0,0-13,0c-7,4,4,7,7,6S500.5,229.5,497.5,223.5Z"/><path class="cls-9" d="M478.5,243.5a12.81,12.81,0,0,0-13,0c-7,4,4,7,7,6S481.5,249.5,478.5,243.5Z"/><path class="cls-9" d="M562.5,212.5a12.81,12.81,0,0,0-13,0c-7,4,4,7,7,6S565.5,218.5,562.5,212.5Z"/><path class="cls-9" d="M556.5,243.5a12.81,12.81,0,0,0-13,0c-7,4,4,7,7,6S559.5,249.5,556.5,243.5Z"/><path class="cls-9" d="M580.5,225.5a12.81,12.81,0,0,0-13,0c-7,4,4,7,7,6S583.5,231.5,580.5,225.5Z"/><path class="cls-9" d="M539.5,223.5a12.81,12.81,0,0,0-13,0c-7,4,4,7,7,6S542.5,229.5,539.5,223.5Z"/><line class="cls-1" x1="568.5" y1="407.5" x2="593.5" y2="785.5"/><line class="cls-1" x1="447.5" y1="407.5" x2="435.5" y2="798.5"/><path class="cls-8" d="M605,330s0,13-1,14-17,13-35,17-26,5-29,5,26-16,39-20S605,330,605,330Z"/><path class="cls-6" d="M419,560.76a1.5,1.5,0,0,0,0-3,1.5,1.5,0,0,0,0,3Z"/><path class="cls-6" d="M471.39,576.41a1.5,1.5,0,0,0,0-3,1.5,1.5,0,0,0,0,3Z"/><path class="cls-6" d="M478.43,646.07a1.5,1.5,0,0,0,0-3,1.5,1.5,0,0,0,0,3Z"/><path class="cls-6" d="M414.26,675a1.5,1.5,0,0,0,0-3,1.5,1.5,0,0,0,0,3Z"/><path class="cls-6" d="M426.78,621a1.5,1.5,0,0,0,0-3,1.5,1.5,0,0,0,0,3Z"/><path class="cls-6" d="M562.17,713.37a1.5,1.5,0,0,0,0-3,1.5,1.5,0,0,0,0,3Z"/><path class="cls-6" d="M498,758a1.5,1.5,0,0,0,0-3,1.5,1.5,0,0,0,0,3Z"/><path class="cls-6" d="M515.22,700.85a1.5,1.5,0,0,0,0-3,1.5,1.5,0,0,0,0,3Z"/><path class="cls-6" d="M535.57,634.33a1.5,1.5,0,0,0,0-3,1.5,1.5,0,0,0,0,3Z"/><path class="cls-6" d="M534.78,592.85a1.5,1.5,0,0,0,0-3,1.5,1.5,0,0,0,0,3Z"/><path class="cls-6" d="M501.91,580.33a1.5,1.5,0,0,0,0-3,1.5,1.5,0,0,0,0,3Z"/><path class="cls-6" d="M529.3,558.41a1.5,1.5,0,0,0,0-3,1.5,1.5,0,0,0,0,3Z"/><path class="cls-6" d="M613,545.11a1.5,1.5,0,0,0,0-3,1.5,1.5,0,0,0,0,3Z"/><path class="cls-6" d="M624,599.11a1.5,1.5,0,0,0,0-3,1.5,1.5,0,0,0,0,3Z"/><path class="cls-6" d="M601.3,621a1.5,1.5,0,0,0,0-3,1.5,1.5,0,0,0,0,3Z"/><path class="cls-6" d="M610.7,667.2a1.5,1.5,0,0,0,0-3,1.5,1.5,0,0,0,0,3Z"/><path class="cls-6" d="M596.61,588.93a1.5,1.5,0,0,0,0-3,1.5,1.5,0,0,0,0,3Z"/><path class="cls-6" d="M561.39,682.85a1.5,1.5,0,0,0,0-3,1.5,1.5,0,0,0,0,3Z"/><path class="cls-6" d="M418.17,749.37a1.5,1.5,0,0,0,0-3,1.5,1.5,0,0,0,0,3Z"/><path class="cls-6" d="M386.87,740a1.5,1.5,0,0,0,0-3,1.5,1.5,0,0,0,0,3Z"/><path class="cls-6" d="M413.48,709.46a1.5,1.5,0,0,0,0-3,1.5,1.5,0,0,0,0,3Z"/><path class="cls-6" d="M386.87,663.28a1.5,1.5,0,0,0,0-3,1.5,1.5,0,0,0,0,3Z"/><path class="cls-6" d="M396.26,595.2a1.5,1.5,0,0,0,0-3,1.5,1.5,0,0,0,0,3Z"/><path class="cls-6" d="M500.35,614.76a1.5,1.5,0,0,0,0-3,1.5,1.5,0,0,0,0,3Z"/><path class="cls-6" d="M474.52,711a1.5,1.5,0,0,0,0-3,1.5,1.5,0,0,0,0,3Z"/><path class="cls-6" d="M554.35,754.85a1.5,1.5,0,0,0,0-3,1.5,1.5,0,0,0,0,3Z"/><path class="cls-6" d="M620.09,722.76a1.5,1.5,0,0,0,0-3,1.5,1.5,0,0,0,0,3Z"/><path class="cls-6" d="M567.65,637.46a1.5,1.5,0,0,0,0-3,1.5,1.5,0,0,0,0,3Z"/><path class="cls-6" d="M558.26,596a1.5,1.5,0,0,0,0-3,1.5,1.5,0,0,0,0,3Z"/><path class="cls-6" d="M558.26,567a1.5,1.5,0,0,0,0-3,1.5,1.5,0,0,0,0,3Z"/><path class="cls-6" d="M518.35,666.41a1.5,1.5,0,0,0,0-3,1.5,1.5,0,0,0,0,3Z"/><path class="cls-6" d="M625.57,570.93a1.5,1.5,0,0,0,0-3,1.5,1.5,0,0,0,0,3Z"/><path class="cls-6" d="M587.22,539.63a1.5,1.5,0,0,0,0-3,1.5,1.5,0,0,0,0,3Z"/><path class="cls-6" d="M628.7,633.54a1.5,1.5,0,0,0,0-3,1.5,1.5,0,0,0,0,3Z"/><path class="cls-6" d="M523,501.28a1.5,1.5,0,0,0,0-3,1.5,1.5,0,0,0,0,3Z"/></svg>