<?xml version="1.0" encoding="UTF-8" standalone="no"?>
<!-- Created with Inkscape (http://www.inkscape.org/) -->

<svg
   width="1000mm"
   height="1000mm"
   viewBox="0 0 1000 1000"
   version="1.1"
   id="svg5"
   inkscape:version="1.2 (1:1.2.1+202207142221+cd75a1ee6d)"
   sodipodi:docname="I am a student.svg"
   xml:space="preserve"
   xmlns:inkscape="http://www.inkscape.org/namespaces/inkscape"
   xmlns:sodipodi="http://sodipodi.sourceforge.net/DTD/sodipodi-0.dtd"
   xmlns="http://www.w3.org/2000/svg"
   xmlns:svg="http://www.w3.org/2000/svg"><sodipodi:namedview
     id="namedview7"
     pagecolor="#ffffff"
     bordercolor="#000000"
     borderopacity="0.25"
     inkscape:showpageshadow="2"
     inkscape:pageopacity="0.0"
     inkscape:pagecheckerboard="0"
     inkscape:deskcolor="#d1d1d1"
     inkscape:document-units="mm"
     showgrid="false"
     inkscape:zoom="0.28441257"
     inkscape:cx="2204.5439"
     inkscape:cy="2111.3694"
     inkscape:window-width="1920"
     inkscape:window-height="1056"
     inkscape:window-x="0"
     inkscape:window-y="1080"
     inkscape:window-maximized="1"
     inkscape:current-layer="layer1" /><defs
     id="defs2" /><g
     inkscape:label="Layer 1"
     inkscape:groupmode="layer"
     id="layer1"><path
       d="m 899.66679,187.10303 c 0,0 -620.38312,4.76323 -765.99666,7.74306 0,0 18.50696,99.70101 29.91616,150.95406 57.55408,-0.70795 279.69141,-2.21133 339.26419,-2.21133 l 9.08654,40.57721 39.89283,-41.93942 c 48.96283,-1.64337 318.55559,-3.14562 318.55559,-3.14562 l 29.28135,-151.97796"
       style="fill:#b7c8c4;fill-opacity:1;fill-rule:nonzero;stroke:none;stroke-width:0.129861"
       id="path2007" /><text
       xml:space="preserve"
       style="font-weight:bold;font-size:88.1944px;font-family:FreeSans;-inkscape-font-specification:'FreeSans Bold';opacity:0.8;fill:#ff9d9c;fill-opacity:1;fill-rule:evenodd;stroke-width:0.300596;paint-order:fill markers stroke"
       x="203.56812"
       y="303.05869"
       id="text2839"><tspan
         sodipodi:role="line"
         id="tspan2837"
         style="font-size:88.1944px;fill:#ff9d9c;fill-opacity:1;stroke-width:0.300596"
         x="203.56812"
         y="303.05869"><tspan
           id="tspan24205"
           style="font-size:88.1944px;fill:#000000">I</tspan><tspan
           style="font-size:88.1944px;fill:#b7c8c4"
           id="tspan7090"> </tspan><tspan
           id="tspan24209"
           style="font-size:88.1944px;fill:#aa0000">am</tspan><tspan
           style="font-size:88.1944px;fill:#d35f5f"
           id="tspan3108"> </tspan><tspan
           id="tspan24315"
           style="font-size:88.1944px;fill:#000000">a student</tspan></tspan></text><path
       d="m 175.32608,545.61105 c -0.12492,0.0278 -0.27667,0.0278 -0.39335,-0.0168 -0.2082,-0.0892 -0.27667,-0.26779 -0.15106,-0.41283 2.06385,-2.33748 -0.65449,-4.38486 -2.5804,-5.22725 -0.19917,-0.0837 -0.2587,-0.26778 -0.13787,-0.40724 0.13787,-0.12825 0.40394,-0.17852 0.61368,-0.0836 2.18299,0.95396 5.25385,3.30259 2.8391,6.03058 l -0.19015,0.11718"
       style="fill:#ce6748;fill-opacity:1;fill-rule:nonzero;stroke:none;stroke-width:0.0674731"
       id="path7008" /><path
       d="m 504.14248,642.97722 c 4.98352,3.85947 32.63757,19.20862 28.25497,23.63687 -4.38509,4.4268 -29.38497,-14.1853 -29.38497,-14.1853 l 1.13,-9.45157"
       style="fill:#eaa376;fill-opacity:1;fill-rule:nonzero;stroke:none;stroke-width:0.249454"
       id="path1749" /><path
       d="m 435.59578,832.04624 c 0,0 1.5266,-29.07085 2.4972,-70.79622 6.03862,1.28944 10.47682,2.48645 10.47682,2.48645 0,0 -1.28197,23.98755 -2.91642,73.20624 -7.64818,4.54053 -10.0576,-4.89647 -10.0576,-4.89647"
       style="fill:#fabd99;fill-opacity:1;fill-rule:nonzero;stroke:none;stroke-width:0.249454"
       id="path1751" /><path
       d="m 438.0052,780.96354 -0.285,-6.36765 9.66881,-0.11275 -0.15351,8.51212 c 0,0 -2.21552,-9.04582 -9.23297,-2.02905"
       style="fill:#eaa376;fill-opacity:1;fill-rule:nonzero;stroke:none;stroke-width:0.249454"
       id="path1753" /><path
       d="m 478.50353,832.04624 c 0,0 -1.13467,-33.7284 -2.49152,-70.79622 -6.04918,1.28944 -10.4801,2.48645 -10.4801,2.48645 0,0 1.24479,24.41145 2.91167,73.20624 7.64825,4.54053 10.05995,-4.89647 10.05995,-4.89647"
       style="fill:#fabd99;fill-opacity:1;fill-rule:nonzero;stroke:none;stroke-width:0.249454"
       id="path1755" /><path
       d="m 475.87671,782.23391 0.28967,-6.3666 -9.67375,-0.11412 0.92062,7.94765 c 0,0 1.4493,-8.48102 8.46086,-1.46665"
       style="fill:#eaa376;fill-opacity:1;fill-rule:nonzero;stroke:none;stroke-width:0.249454"
       id="path1757" /><path
       d="m 478.74341,831.75662 c 0,0 0.5106,2.44942 0.55065,3.2589 5.19369,-0.7041 10.96847,4.9783 10.55885,16.75293 -10.23453,5.45746 -28.44178,1.81792 -28.44178,1.81792 0,0 -4.80497,-11.7339 6.68258,-17.62427 -0.24028,-1.34611 -0.47788,-3.17226 -0.47788,-3.17226 0,0 6.7678,1.48201 11.1229,-1.03322"
       style="fill:#8c3943;fill-opacity:1;fill-rule:nonzero;stroke:none;stroke-width:0.249454"
       id="path1759" /><path
       d="m 488.03565,843.8326 c -9.53212,9.13539 -25.26472,4.04841 -26.05584,1.66635 -1.22731,4.32355 1.12252,7.50375 1.12252,7.50375 0,0 17.22715,2.93304 26.20468,-1.86366 0.11212,-3.08362 -0.45453,-5.15905 -1.27136,-7.30644"
       style="fill:#6f2c33;fill-opacity:1;fill-rule:nonzero;stroke:none;stroke-width:0.249454"
       id="path1761" /><path
       d="m 476.93496,836.39427 c -0.16753,0.0467 -0.35908,0.02 -0.51528,-0.0955 -3.12787,-2.3346 -5.02635,-0.007 -5.11673,0.0868 -0.19957,0.25229 -0.564,0.29634 -0.81009,0.0895 -0.26363,-0.19823 -0.29635,-0.55932 -0.10075,-0.81856 0.0333,-0.0268 2.70625,-3.30521 6.73717,-0.29635 0.26565,0.1949 0.31037,0.55331 0.12275,0.8235 -0.0793,0.0955 -0.1949,0.17354 -0.30835,0.21359"
       style="fill:#eadedd;fill-opacity:1;fill-rule:nonzero;stroke:none;stroke-width:0.249454"
       id="path1767" /><path
       d="m 478.59843,839.70382 c -0.21625,0.0534 -0.46855,0.02 -0.6641,-0.12412 -4.07645,-3.03289 -6.54575,-0.005 -6.66082,0.11812 -0.2543,0.33173 -0.73313,0.40048 -1.0573,0.12413 -0.33173,-0.26164 -0.38646,-0.74194 -0.12748,-1.06519 0.04,-0.0467 3.51178,-4.30325 8.758,-0.39112 0.32905,0.24962 0.40515,0.71471 0.15552,1.05703 -0.0941,0.15085 -0.24495,0.23295 -0.40514,0.27967"
       style="fill:#eadedd;fill-opacity:1;fill-rule:nonzero;stroke:none;stroke-width:0.249454"
       id="path1769" /><path
       d="m 445.80543,832.42327 c 0,0 -0.21893,7.41318 -1.68818,16.26603 -7.56875,5.04946 -29.00364,5.18195 -36.43537,2.3806 -4.4848,-4.4784 -2.23475,-16.52894 6.86993,-20.1642 9.10802,-3.65396 15.41162,3.3552 17.22715,5.1742 1.26015,-0.69921 2.04554,-1.05958 2.04554,-1.05958 l 0.97293,-4.28602 c 0,0 4.31347,1.83147 11.008,1.68897"
       style="fill:#8c3943;fill-opacity:1;fill-rule:nonzero;stroke:none;stroke-width:0.249454"
       id="path1771" /><path
       d="m 437.44435,832.9814 -0.0534,0.18421 c 0.95993,0.82016 7.19338,3.0409 4.25299,9.87045 -12.94659,11.36308 -34.19493,-1.78856 -34.23518,-1.82594 -0.40246,1.19454 -1.92572,5.43845 0.89813,8.09443 6.89742,2.45462 27.4994,2.87171 34.5346,-1.53333 0.38577,-4.18123 2.29989,-13.39085 2.29989,-13.39085 -6.22143,0.11875 -7.69335,-1.39717 -7.69335,-1.39717"
       style="fill:#6f2c33;fill-opacity:1;fill-rule:nonzero;stroke:none;stroke-width:0.249454"
       id="path1773" /><path
       d="m 444.54133,845.05524 c -2.95112,1.95816 -19.06603,6.43862 -39.23663,1.11985 -1.39945,4.05342 1.26515,6.16436 1.26515,6.16436 0,0 19.7441,5.74394 37.68408,-1.54435 1.67625,-1.12445 0.285,-5.73986 0.285,-5.73986"
       style="fill:#ededed;fill-opacity:1;fill-rule:nonzero;stroke:none;stroke-width:0.249454"
       id="path1775" /><path
       d="m 444.54133,845.05524 c -0.19555,0.1175 -0.4425,0.25162 -0.72838,0.40046 0.0133,1.00986 -0.1722,1.96585 -0.82562,2.40189 -17.9312,7.28728 -37.67695,1.53407 -37.67695,1.53407 0,0 -0.16287,-0.11675 -0.37445,-0.36977 0.21625,2.19003 1.63372,3.32063 1.63372,3.32063 0,0 19.7441,5.74388 37.68408,-1.54441 1.67625,-1.12446 0.285,-5.73954 0.285,-5.73954"
       style="fill:#c6c5c5;fill-opacity:1;fill-rule:nonzero;stroke:none;stroke-width:0.249454"
       id="path1777" /><path
       d="m 439.68945,837.95096 c -0.18155,-0.0267 -0.32905,-0.13549 -0.42384,-0.30369 -1.80091,-3.46827 -4.52738,-2.20298 -4.63778,-2.15546 -0.29167,0.14818 -0.6394,0.0267 -0.78518,-0.26631 -0.1435,-0.29901 -0.007,-0.6501 0.28233,-0.78333 0.0267,-0.0133 3.87168,-1.79576 6.17885,2.6666 0.15352,0.29168 0.04,0.6501 -0.24962,0.798 -0.1175,0.0468 -0.24696,0.0601 -0.36443,0.0468"
       style="fill:#eadedd;fill-opacity:1;fill-rule:nonzero;stroke:none;stroke-width:0.249454"
       id="path1779" /><path
       d="m 433.39333,840.48534 c -0.12413,-0.12475 -0.1889,-0.31437 -0.15352,-0.50325 0.70817,-3.84178 -2.2202,-4.52332 -2.34021,-4.54774 -0.3157,-0.0688 -0.51794,-0.38313 -0.44987,-0.69923 0.0534,-0.30702 0.37045,-0.5066 0.69022,-0.44252 0.0334,0.002 4.15808,0.95112 3.25288,5.90214 -0.0602,0.31636 -0.36843,0.51993 -0.6832,0.46855 -0.13615,-0.0267 -0.24028,-0.0822 -0.32238,-0.18355"
       style="fill:#eadedd;fill-opacity:1;fill-rule:nonzero;stroke:none;stroke-width:0.249454"
       id="path1781" /><path
       d="m 429.0549,634.86557 c 4.33108,-13.14303 26.33751,-10.37463 42.04493,-9.02486 15.71338,1.35418 25.8081,4.63658 30.27107,18.09223 4.16041,12.5476 14.4031,33.46942 13.97893,48.72265 -0.34573,12.727 -2.33193,24.27195 -23.1192,29.2343 -20.79605,4.96303 -64.10115,9.52858 -66.4084,-11.22537 -2.30717,-20.75275 -0.92775,-63.16673 3.23267,-75.79895"
       style="fill:#ef3351;fill-opacity:1;fill-rule:nonzero;stroke:none;stroke-width:0.249454"
       id="path1783" /><path
       d="m 424.86225,724.01492 c 0,0 -2.96387,25.84199 -5.93257,48.29782 12.28843,9.31685 35.17015,4.44275 35.17015,4.44275 l 3.17312,-24.359 c 0,0 2.54211,13.13095 4.23543,23.72518 14.40878,5.50319 34.5344,-2.96341 34.5344,-2.96341 0,0 -3.39292,-29.23517 -6.35885,-50.4159 -22.87965,0 -64.82168,1.27256 -64.82168,1.27256"
       style="fill:#305eb2;fill-opacity:1;fill-rule:nonzero;stroke:none;stroke-width:0.249454"
       id="path1785" /><path
       d="m 425.50026,729.72924 -1.27236,14.8316 c 0,0 40.88318,-18.21912 66.73058,0.21425 -1.90817,-14.62057 -2.5462,-18.21985 -2.5462,-18.21985 l -62.91202,3.17545"
       style="fill:#27519b;fill-opacity:1;fill-rule:nonzero;stroke:none;stroke-width:0.249454"
       id="path1787" /><path
       d="m 441.21851,643.50137 c 0,0 -27.75618,11.13914 -73.0813,-25.03965 -3.53535,2.16714 -7.87016,0.38177 -13.08903,-3.13835 -4.4848,-1.3335 -7.29415,-3.01313 -6.42353,-4.62623 0.90286,-1.66962 5.74748,0.22293 7.00695,0.52195 -0.15817,-0.15085 -5.84392,-3.09597 -7.03892,-3.85613 -2.80122,-1.71414 -1.50985,-4.6056 1.16437,-3.55277 2.2451,0.87035 7.24903,3.2404 7.51855,3.3426 -0.20692,-0.18957 -5.61787,-4.10095 -6.63479,-4.81145 -2.97121,-2.07283 -1.07538,-5.67013 2.37452,-3.36062 2.3595,1.57652 6.38315,4.49062 6.80005,4.63792 -0.0533,-0.21158 -2.49225,-3.08375 -3.82155,-4.89455 -2.17522,-2.9783 0.0681,-5.24382 3.0957,-2.30958 2.38933,2.2975 8.3837,7.57028 8.3837,7.57028 0,0 0.50393,-5.44498 3.50945,-5.12868 3.01615,0.33373 1.83162,9.81573 1.83162,9.81573 0,0 26.49108,29.99933 67.2317,22.80042 9.25433,3.2956 1.17251,12.02785 1.17251,12.02785"
       style="fill:#fabd99;fill-opacity:1;fill-rule:nonzero;stroke:none;stroke-width:0.249454"
       id="path1789" /><path
       d="m 417.6381,632.99257 c -0.4265,1.74297 -1.38489,5.67987 -2.24517,9.02045 -2.31538,-0.24028 -5.9792,-0.97601 -10.57655,-2.97383 2.01745,-0.0961 4.64973,-0.64075 5.33515,-2.6023 0.91353,-2.64345 -0.97042,-4.78168 -2.55415,-5.902 3.59495,1.47973 5.6846,1.78643 10.04072,2.45768"
       style="fill:#eaa376;fill-opacity:1;fill-rule:nonzero;stroke:none;stroke-width:0.249454"
       id="path1791" /><path
       d="m 366.21155,610.99136 c 0.02,-0.0134 0.0467,-0.0134 0.0467,-0.0334 0.14216,-0.12475 0.16018,-0.34841 0.0268,-0.49459 -2.14799,-2.33313 -0.51327,-5.08663 0.79833,-6.34837 0.14485,-0.13083 0.14485,-0.34574 0.0134,-0.49391 -0.1355,-0.12749 -0.35508,-0.12749 -0.49458,-0.006 -1.48147,1.43888 -3.33238,4.5915 -0.82577,7.32105 0.0987,0.1335 0.30235,0.15017 0.4325,0.0533"
       style="fill:#ce6748;fill-opacity:1;fill-rule:nonzero;stroke:none;stroke-width:0.249454"
       id="path1793" /><path
       d="m 480.20213,633.50864 c 0,0 -7.6674,-2.15045 -12.57943,-4.21588 0.11213,-5.22572 1.78088,-10.89137 1.78088,-10.89137 l -9.36632,-2.02758 c 0,0 -1.70688,8.38163 -1.96831,11.78623 -7.08745,0.99777 -16.53674,1.68905 -16.53674,1.68905 0,0 -7.16848,21.06618 17.00342,22.81817 6.36293,0.47055 21.66182,-9.20047 21.6665,-19.15862"
       style="fill:#fabd99;fill-opacity:1;fill-rule:nonzero;stroke:none;stroke-width:0.249454"
       id="path1795" /><path
       d="m 461.18955,616.61374 7.94198,2.11695 c 0,0 -1.51357,3.9371 -1.96503,8.21005 -2.58732,-3.22038 -6.65287,-3.63707 -8.42657,-1.10557 0.54398,-3.59108 2.44962,-9.22143 2.44962,-9.22143"
       style="fill:#eaa376;fill-opacity:1;fill-rule:nonzero;stroke:none;stroke-width:0.249454"
       id="path1797" /><path
       d="m 392.74996,501.69449 c -10.61358,21.35747 -21.759,88.69702 38.48577,113.17048 59.9005,24.31874 99.98447,-13.88236 115.47798,-55.727 18.6934,-50.48671 -17.59625,-88.66493 -53.40228,-98.93503 -55.88243,-16.03422 -86.34732,12.86215 -100.56147,41.49155"
       style="fill:#fabd99;fill-opacity:1;fill-rule:nonzero;stroke:none;stroke-width:0.249454"
       id="path1799" /><path
       d="m 419.67556,558.81612 c -0.95505,5.5921 -9.77821,8.65089 -17.91243,5.2758 -8.1304,-3.36308 -11.58518,-10.83158 -10.0584,-17.43713 1.40745,-6.0192 9.83642,-9.80792 17.2375,-2.34983 6.91985,6.9603 11.7289,8.71143 10.73333,14.51116"
       style="fill:#f8a191;fill-opacity:1;fill-rule:nonzero;stroke:none;stroke-width:0.249454"
       id="path1801" /><path
       d="m 398.86928,546.41351 c -0.15352,0.73085 -1.02755,1.15241 -1.9685,0.96013 -0.948,-0.19223 -1.59415,-0.93043 -1.42915,-1.66437 0.13015,-0.72838 1.02293,-1.15481 1.96837,-0.96466 0.93998,0.19623 1.58133,0.94298 1.42928,1.6689"
       style="fill:#fcd3bb;fill-opacity:1;fill-rule:nonzero;stroke:none;stroke-width:0.249454"
       id="path1803" /><path
       d="m 448.6517,550.67144 c -0.15819,0.74045 -1.17232,1.1344 -2.29189,0.9124 -1.10008,-0.22827 -1.89095,-0.9977 -1.73163,-1.7235 0.15085,-0.73332 1.16763,-1.12758 2.283,-0.89498 1.11705,0.22093 1.89023,0.99458 1.74052,1.70608"
       style="fill:#fcd3bb;fill-opacity:1;fill-rule:nonzero;stroke:none;stroke-width:0.249454"
       id="path1805" /><path
       d="m 512.81826,580.92927 c -1.83648,7.54145 -10.13248,11.40479 -20.1411,9.96357 -9.64058,-1.40732 -17.94233,-10.48978 -14.84461,-17.21968 2.94598,-6.40579 7.70043,-3.03877 19.54426,-4.90649 11.45237,-1.82108 17.28509,4.64172 15.44145,12.1626"
       style="fill:#f8a191;fill-opacity:1;fill-rule:nonzero;stroke:none;stroke-width:0.249454"
       id="path1807" /><path
       d="m 506.83658,575.69867 c -0.16753,0.69207 -1.01553,1.06545 -1.91832,0.85052 -0.88303,-0.22625 -1.46958,-0.94797 -1.3046,-1.6263 0.17487,-0.6878 1.0228,-1.06545 1.91272,-0.85547 0.8911,0.21625 1.4792,0.94552 1.3102,1.63125"
       style="fill:#fcd3bb;fill-opacity:1;fill-rule:nonzero;stroke:none;stroke-width:0.249454"
       id="path1809" /><path
       d="m 420.79353,502.57706 c 9.13927,-2.08505 10.50173,7.92503 4.537,7.63055 -6.4128,-0.3177 -11.9061,1.73918 -12.66893,1.08088 -1.68677,-1.4525 2.99023,-7.54847 8.13193,-8.71143"
       style="fill:#37221a;fill-opacity:1;fill-rule:nonzero;stroke:none;stroke-width:0.249454"
       id="path1811" /><path
       d="m 502.60781,521.62054 c -7.28615,-5.89252 -12.91361,2.47197 -7.43111,4.84442 5.89245,2.53645 9.89828,6.80726 10.89618,6.55543 2.15025,-0.54865 0.6174,-8.0973 -3.46507,-11.39985"
       style="fill:#37221a;fill-opacity:1;fill-rule:nonzero;stroke:none;stroke-width:0.249454"
       id="path1813" /><path
       d="m 428.04973,563.87232 c 0,0 -6.9997,33.0271 16.2895,38.66752 23.27873,5.64195 23.73012,-27.724 23.73012,-27.724 0,0 -18.13,2.49398 -40.01962,-10.94352"
       style="fill:#461b1c;fill-opacity:1;fill-rule:nonzero;stroke:none;stroke-width:0.249454"
       id="path1815" /><path
       d="m 449.3658,572.94009 c -0.25897,8.31117 1.11998,20.27767 9.95288,26.4612 8.5132,-7.70525 8.75067,-24.58545 8.75067,-24.58545 0,0 -8.20182,1.06705 -18.70355,-1.87575"
       style="fill:#2c1616;fill-opacity:1;fill-rule:nonzero;stroke:none;stroke-width:0.249454"
       id="path1817" /><path
       d="m 431.36521,593.13499 c 2.17049,4.6851 7.12202,8.16705 13.42069,9.70105 11.52131,2.7818 17.49078,-4.33755 20.04766,-11.81358 -0.73093,-1.59427 -4.35038,-3.59255 -8.24621,-2.1229 -3.45792,-6.80005 -18.64402,-3.17319 -25.22214,4.23543"
       style="fill:#ee5b63;fill-opacity:1;fill-rule:nonzero;stroke:none;stroke-width:0.249454"
       id="path1819" /><path
       d="m 460.82986,589.96994 c -1.73338,-0.8885 -4.031,-0.61338 -5.0562,-0.0941 -0.65478,-1.41166 -1.82355,-3.05313 -5.34108,-3.4297 -8.71508,-1.02286 -20.11987,7.29382 -9.26393,12.45715 10.97348,5.23895 26.08701,-5.66771 19.66121,-8.93001"
       style="fill:#f57880;fill-opacity:1;fill-rule:nonzero;stroke:none;stroke-width:0.249454"
       id="path1821" /><path
       d="m 442.73543,589.27374 c 1.98292,-1.7285 6.68965,-2.58397 7.88478,-1.2996 1.43962,1.54675 -2.724,3.5567 -5.38858,3.70895 -2.67648,0.1602 -3.77425,-1.30693 -2.4962,-2.40935"
       style="fill:#f8a1a9;fill-opacity:1;fill-rule:nonzero;stroke:none;stroke-width:0.249454"
       id="path1823" /><path
       d="m 434.74518,567.49684 c -1.2177,3.40233 -0.87075,6.13607 3.6342,8.37877 4.18878,2.09806 10.45187,3.88636 14.86277,4.27088 5.29823,0.47055 8.10198,-1.62397 8.14148,-5.2485 -8.9946,-0.90052 -16.1239,-2.4699 -26.63845,-7.40115"
       style="fill:#ffffff;fill-opacity:1;fill-rule:nonzero;stroke:none;stroke-width:0.249454"
       id="path1825" /><path
       d="m 445.32653,559.34001 c 0.16753,0.04 0.34775,-0.0467 0.44252,-0.20959 0.11813,-0.21425 0.0533,-0.47788 -0.16287,-0.60003 -3.67437,-2.12543 -3.40485,-5.19857 -3.10783,-6.43535 0.574,-2.36538 2.49713,-4.22563 4.48473,-4.33843 2.10607,-0.10075 3.919,1.67858 5.13442,5.02396 0.0694,0.22827 0.32905,0.3384 0.54865,0.27299 0.22093,-0.0794 0.34106,-0.33639 0.25896,-0.55799 -1.80571,-5.05646 -4.53465,-5.69535 -5.99143,-5.60023 -2.36243,0.1215 -4.6277,2.28207 -5.2814,5.00373 -0.70535,2.951 0.6134,5.71197 3.51773,7.39142 0.0467,0.0267 0.10075,0.04 0.15819,0.0467"
       style="fill:#ce6748;fill-opacity:1;fill-rule:nonzero;stroke:none;stroke-width:0.249454"
       id="path1827" /><path
       d="m 433.64516,529.05366 c 1.25207,8.04745 -3.9118,15.54598 -11.52226,16.72556 -7.60312,1.17985 -14.79029,-4.40503 -16.03435,-12.45941 -1.26022,-8.07242 3.90385,-15.5588 11.50698,-16.74819 7.61593,-1.16303 14.7999,4.40984 16.04963,12.48204"
       style="fill:#eaa376;fill-opacity:1;fill-rule:nonzero;stroke:none;stroke-width:0.249454"
       id="path1829" /><path
       d="m 426.37588,542.03002 c 4.3955,1.37209 5.01195,3.6294 1.3817,5.03952 -3.63413,1.39137 -10.1501,1.41947 -14.53038,0.04 -4.3977,-1.37962 -5.01577,-3.63907 -1.38157,-5.04085 3.64455,-1.40692 10.13483,-1.4174 14.53025,-0.0333"
       style="fill:#eaa376;fill-opacity:1;fill-rule:nonzero;stroke:none;stroke-width:0.249454"
       id="path1831" /><path
       d="m 432.11863,529.06427 c 1.2295,7.96195 -3.8644,15.36797 -11.3799,16.53327 -7.5339,1.17252 -14.64057,-4.34335 -15.86047,-12.31825 -1.23933,-7.9773 3.8644,-15.37117 11.37969,-16.54602 7.5235,-1.15968 14.62536,4.35605 15.86068,12.331"
       style="fill:#ffffff;fill-opacity:1;fill-rule:nonzero;stroke:none;stroke-width:0.249454"
       id="path1833" /><path
       d="m 430.35196,530.17157 c -0.24963,-1.57898 -0.78766,-3.03068 -1.51925,-4.35278 0.287,0.79015 0.49925,1.6085 0.64275,2.4697 1.08507,6.99622 -3.39998,13.5146 -10.01808,14.54475 -3.93122,0.59737 -7.69818,-0.89492 -10.37472,-3.6519 2.55747,3.72932 6.90537,5.91955 11.47474,5.21633 6.46845,-1.00263 10.84866,-7.37145 9.7985,-14.2261"
       style="fill:#dcdbdb;fill-opacity:1;fill-rule:nonzero;stroke:none;stroke-width:0.249454"
       id="path1835" /><path
       d="m 427.95721,534.60879 c -1.00758,4.25058 -5.06568,6.9328 -9.07993,5.99203 -4.02612,-0.94311 -6.46505,-5.15105 -5.47775,-9.38948 1.00512,-4.27002 5.0618,-6.94423 9.07992,-6.01387 4.01171,0.94545 6.478,5.16072 5.47776,9.41132"
       style="fill:#897368;fill-opacity:1;fill-rule:nonzero;stroke:none;stroke-width:0.249454"
       id="path1837" /><path
       d="m 424.9015,534.21532 c -0.5907,2.54645 -3.02082,4.1508 -5.43492,3.59962 -2.38773,-0.576 -3.85398,-3.08635 -3.25835,-5.63567 0.5907,-2.54458 3.02635,-4.14593 5.42062,-3.59476 2.4127,0.564 3.88196,3.0887 3.27265,5.63081"
       style="fill:#231f20;fill-opacity:1;fill-rule:nonzero;stroke:none;stroke-width:0.249454"
       id="path1839" /><path
       d="m 420.59158,530.35326 c -0.2423,1.07278 -1.2723,1.75606 -2.29283,1.51951 -1.00265,-0.24495 -1.63359,-1.30926 -1.37922,-2.38453 0.25163,-1.07265 1.27235,-1.75425 2.2927,-1.5272 1.01458,0.24697 1.63825,1.31475 1.37935,2.39222"
       style="fill:#ffffff;fill-opacity:1;fill-rule:nonzero;stroke:none;stroke-width:0.249454"
       id="path1841" /><path
       d="m 424.19353,537.10111 c -0.15552,0.65943 -0.77097,1.06311 -1.39237,0.91835 -0.61205,-0.15085 -0.98968,-0.7936 -0.84566,-1.44704 0.16486,-0.64743 0.77338,-1.06805 1.40178,-0.91348 0.60872,0.14885 0.9907,0.7864 0.83625,1.44217"
       style="fill:#ffffff;fill-opacity:1;fill-rule:nonzero;stroke:none;stroke-width:0.249454"
       id="path1843" /><path
       d="m 499.37503,558.44442 c 0.4325,-0.0941 0.7364,-0.46388 0.77577,-0.9136 0.58335,-10.05981 -6.30814,-17.34108 -13.12374,-17.82318 -4.50241,-0.32705 -9.52638,2.41015 -10.24735,11.01132 -0.0267,0.55531 0.36377,1.04208 0.91587,1.08688 0.54598,0.04 1.02287,-0.37245 1.0704,-0.9203 0.51325,-6.07418 3.54162,-9.52095 8.11652,-9.19665 5.85753,0.43318 11.79658,6.83935 11.28798,15.7278 -0.04,0.54397 0.37777,1.02773 0.92308,1.05503 0.10075,0.0134 0.21892,-0.0133 0.28032,-0.0267"
       style="fill:#653a2c;fill-opacity:1;fill-rule:nonzero;stroke:none;stroke-width:0.249454"
       id="path1845" /><path
       d="m 538.18498,587.59509 c -5.37312,4.06558 -12.5528,-7.41657 -4.20615,-11.58185 -12.59745,-3.47235 -10.50205,-20.1658 -1.15255,-23.5256 -7.64805,-2.59685 -5.69995,-11.03623 2.28555,-11.63967 -11.63005,-5.68793 -20.11828,-20.77665 -10.46715,-29.47498 -11.18265,7.11935 -15.55065,-4.18598 -14.06698,-11.59248 -6.5898,7.955 -41.19107,-8.95965 -36.6137,-21.80892 -9.40977,17.74855 -20.38319,5.45045 -22.84247,-2.00055 -0.21158,15.81215 -24.55808,11.12312 -28.0104,2.8488 -2.90435,14.09408 -13.19122,12.664 -15.42925,6.31302 -2.53177,10.53476 -9.09427,10.10258 -10.40453,8.89076 -5.26032,9.34944 -8.3739,22.53012 -11.23952,31.46025 -8.7733,1.24252 -16.66617,-16.47613 -8.89318,-24.29323 -9.77587,-10.39 -1.38977,-19.88915 1.50156,-23.54103 -7.06163,-4.92892 -2.9855,-23.42349 6.03389,-22.48812 -9.31874,-16.16645 9.92323,-43.72072 32.29168,-37.46697 -5.65002,-21.82935 18.26745,-17.5442 20.34295,-2.92363 16.127,-23.52822 49.18612,-12.53558 51.77108,0.68975 10.27727,-22.69178 19.97297,-5.12383 17.27922,-0.005 12.88385,-23.4981 36.31195,0.52728 22.37585,9.88633 18.94817,-5.6001 40.4209,16.43589 41.2765,32.37107 14.02885,-13.66985 22.04095,6.25145 3.3524,9.34408 28.09075,6.87482 28.95595,41.28707 14.10145,42.26474 17.4441,12.24818 8.2839,46.21263 -12.77448,35.16453 4.15553,5.1044 1.53153,10.71185 -6.23092,9.18765 9.60602,8.97995 0.15552,22.69023 -6.68037,22.7023 -0.28968,16.96005 -17.00295,11.3773 -17.00295,11.3773 0,0 -0.73806,-4.5723 -6.59753,-0.1602"
       style="fill:#482e24;fill-opacity:1;fill-rule:nonzero;stroke:none;stroke-width:0.249454"
       id="path1847" /><path
       d="m 380.44726,492.14549 c 4.8041,-1.06805 9.64152,-12.81237 5.65477,-22.74763 3.186,9.12258 20.56527,2.23221 24.73035,-18.01562 4.9741,11.90125 30.69983,20.1779 30.9873,-2.5437 3.54475,10.70855 24.50563,29.3124 38.00827,3.82882 -6.57292,18.44945 31.78818,30.23081 41.24681,18.79873 -2.13978,10.64102 13.68239,28.91573 29.7399,18.6882 -17.20206,25.0628 -0.18756,47.84728 7.45822,48.16452 -11.45685,0.87555 -15.6754,11.51658 -4.6771,15.25136 -8.95745,3.20035 7.16155,19.93072 12.7866,3.96065 -3.28037,11.89882 -5.00647,17.00829 -9.37125,15.1148 -0.42383,14.35785 -9.2528,13.9194 -9.2528,13.9194 0,0 -3.40973,-3.10631 -9.12183,0.7378 -0.17687,-2.59438 0.92555,-5.30548 4.28288,-6.96971 -14.29623,-3.93355 -11.92138,-22.87717 -1.31987,-26.6681 -8.67585,-2.95092 -8.59863,-13.08675 0.45187,-13.78037 -14.8521,-11.85625 -15.92957,-25.803 -7.25372,-34.69532 -12.67468,8.07162 -20.11053,-2.901 -18.42923,-11.31066 -7.45908,9.02998 -46.71022,-10.15727 -41.51392,-24.71494 -10.66111,20.1176 -23.09123,6.17392 -25.89571,-2.28555 -0.23562,17.93837 -27.8358,12.62702 -31.76435,3.23832 -3.29072,15.98443 -14.96497,14.36767 -17.48145,7.1719 -2.88412,11.94795 -6.59802,14.16322 -8.08269,12.78867 0.3611,5.50273 -3.97873,13.82696 -8.35646,30.32565 -3.54242,0.25898 -7.439,-12.77672 -1.27464,-13.21044 -2.39981,-2.25538 -2.49233,-6.01698 -1.54915,-15.04678"
       style="fill:#37221a;fill-opacity:1;fill-rule:nonzero;stroke:none;stroke-width:0.249454"
       id="path1849" /><path
       d="m 541.1385,455.06971 c 7.73995,-12.159 -1.00024,-28.55224 -19.26074,-15.6804 19.82647,-3.70509 19.26074,15.6804 19.26074,15.6804"
       style="fill:#37221a;fill-opacity:1;fill-rule:nonzero;stroke:none;stroke-width:0.249454"
       id="path1851" /><path
       d="m 415.06628,433.79641 c -4.5879,-18.19047 -19.90362,-13.3827 -17.12002,8.76836 6.0445,-19.23578 17.12002,-8.76836 17.12002,-8.76836"
       style="fill:#37221a;fill-opacity:1;fill-rule:nonzero;stroke:none;stroke-width:0.249454"
       id="path1853" /><path
       d="m 569.30343,505.69064 c 24.3867,-0.77083 16.9133,-22.43125 -2.25725,-14.69517 18.84365,7.2216 2.25725,14.69517 2.25725,14.69517"
       style="fill:#37221a;fill-opacity:1;fill-rule:nonzero;stroke:none;stroke-width:0.249454"
       id="path1855" /><path
       d="m 460.33093,424.13801 c 1.4493,-24.34657 -20.7886,-18.87922 -14.84728,0.91013 8.91085,-18.0931 14.84728,-0.91013 14.84728,-0.91013"
       style="fill:#37221a;fill-opacity:1;fill-rule:nonzero;stroke:none;stroke-width:0.249454"
       id="path1857" /><path
       d="m 531.5315,567.97794 c 0,0 6.67035,-8.65562 17.19003,-4.31245 11.07793,4.59178 6.73505,21.2056 -4.31012,27.34968 -11.05378,6.14075 -23.44845,1.0726 -22.65325,-8.31221 l 9.77334,-14.72502"
       style="fill:#fabd99;fill-opacity:1;fill-rule:nonzero;stroke:none;stroke-width:0.249454"
       id="path1859" /><path
       d="m 547.13528,564.01476 c -2.68202,-1.1031 -5.07135,-1.29479 -7.15968,-1.00839 1.6418,-0.16485 3.38243,0.0267 5.12868,0.85294 10.19277,4.71973 5.29823,16.93821 -1.68357,22.16648 -9.45643,7.08732 -19.44001,3.2906 -21.5547,-4.32548 -0.7414,8.74366 10.88537,13.47061 21.25302,7.76813 10.35675,-5.71292 14.40777,-21.19115 4.01625,-25.45368"
       style="fill:#eaa376;fill-opacity:1;fill-rule:nonzero;stroke:none;stroke-width:0.249454"
       id="path1861" /><path
       d="m 548.2927,568.91397 c -5.89952,-5.18903 -19.33235,5.4528 -14.38369,17.75812 1.80632,-11.88115 7.2688,-13.21125 9.38462,-5.85455 1.78315,-3.19782 1.27243,-6.13707 -2.9735,-8.09002 2.7513,-4.00116 7.97257,-3.81355 7.97257,-3.81355"
       style="fill:#eaa376;fill-opacity:1;fill-rule:nonzero;stroke:none;stroke-width:0.249454"
       id="path1863" /><path
       d="m 462.66148,550.12726 c 3.00325,14.90208 17.57055,24.58331 32.4783,21.57258 l 0.47523,-0.0895 c 14.58985,-3.2027 24.05209,-17.72333 21.09849,-32.37065 -2.99585,-14.9051 -17.56882,-24.58358 -32.4709,-21.5804 l -0.48457,0.0941 c -14.57777,3.21104 -24.0543,17.7284 -21.09535,32.37372 z m 33.13187,24.83828 c -16.69832,3.36215 -33.02475,-7.4759 -36.3853,-24.17977 -3.31007,-16.41586 7.29878,-32.68063 23.63821,-36.27763 l 0.53462,-0.1055 c 16.7038,-3.36242 33.0197,7.48325 36.3877,24.17917 3.30975,16.40365 -7.29428,32.67781 -23.64807,36.2751 l -0.52728,0.11213"
       style="fill:#305eb2;fill-opacity:1;fill-rule:nonzero;stroke:none;stroke-width:0.249454"
       id="path1865" /><path
       d="m 389.60173,530.92239 c 1.45432,7.2218 5.63575,13.44057 11.76948,17.5167 6.1288,4.0783 13.48742,5.52213 20.70177,4.06535 l 0.4779,-0.0941 c 14.58838,-3.2077 24.05995,-17.73321 21.09628,-32.37613 -2.99853,-14.90695 -17.56428,-24.57585 -32.4639,-21.58225 l -0.48456,0.0987 c -14.58499,3.20282 -24.04717,17.7332 -21.0963,32.37138 z m 33.1246,24.84048 c -16.69572,3.35987 -33.01673,-7.48645 -36.3772,-24.17983 -3.30983,-16.41333 7.29662,-32.6875 23.64327,-36.27277 l 0.53196,-0.11275 c 16.69359,-3.36068 33.0128,7.48305 36.38229,24.17664 3.31303,16.41338 -7.3015,32.68515 -23.65055,36.2727 l -0.52929,0.11875"
       style="fill:#305eb2;fill-opacity:1;fill-rule:nonzero;stroke:none;stroke-width:0.249454"
       id="path1867" /><path
       d="m 462.1472,536.22782 c 0.58603,-0.13016 1.08795,-0.57401 1.24506,-1.20455 0.24229,-0.88851 -0.287,-1.78896 -1.17483,-2.03038 l -16.10217,-4.20607 c -0.88363,-0.23761 -1.79605,0.29635 -2.02551,1.18987 -0.2256,0.8885 0.29168,1.7963 1.18685,2.0185 l 16.09483,4.21515 c 0.26365,0.0682 0.5246,0.0602 0.77577,0.0134"
       style="fill:#305eb2;fill-opacity:1;fill-rule:nonzero;stroke:none;stroke-width:0.249454"
       id="path1869" /><path
       d="m 534.6852,564.59089 c 0.39446,-0.17953 0.72845,-0.49657 0.89243,-0.92307 0.33173,-0.85593 -0.0867,-1.81868 -0.93975,-2.15026 l -15.7029,-7.9548 c -0.85113,-0.33372 -1.82915,0.0895 -2.15347,0.9375 -0.33171,0.85528 0.0915,1.81888 0.94312,2.15026 l 15.69802,7.9598 c 0.42383,0.16754 0.8803,0.14752 1.26255,-0.02"
       style="fill:#305eb2;fill-opacity:1;fill-rule:nonzero;stroke:none;stroke-width:0.249454"
       id="path1871" /><path
       d="m 477.46371,632.38874 c 3.6342,1.79637 19.11242,4.75037 27.78594,7.19157 1.63118,4.07563 2.54233,14.02198 0.37645,18.59855 -1.359,1.35453 -9.32455,1.73403 -16.37402,-0.4305 0.11012,20.46173 3.6151,48.77998 13.87442,63.50946 -13.69167,17.52684 -74.99715,14.98305 -89.49217,5.06875 2.97603,-7.10901 8.66305,-47.45188 12.714,-72.64953 0.1035,-0.6314 -9.40397,-0.8534 -15.09685,-5.19042 -0.273,-12.47551 2.83933,-16.31461 3.17545,-17.6371 7.87045,0 26.15803,-0.89278 29.86952,-1.31961 -4.35277,20.46341 30.05593,29.17583 33.16713,2.85641"
       style="fill:#e6edf5;fill-opacity:1;fill-rule:nonzero;stroke:none;stroke-width:0.249454"
       id="path1873" /><path
       d="m 454.54648,652.93264 c 0,1.23612 0.99797,2.22875 2.22748,2.22875 1.22717,0 2.22275,-0.99263 2.22275,-2.22875 0,-1.22685 -0.99558,-2.219 -2.22275,-2.219 -1.22951,0 -2.22748,0.99215 -2.22748,2.219"
       style="fill:#305eb2;fill-opacity:1;fill-rule:nonzero;stroke:none;stroke-width:0.249454"
       id="path1875" /><path
       d="m 453.38933,662.42479 c 0,1.22475 0.9953,2.22273 2.225,2.22273 1.22972,0 2.22282,-0.99798 2.22282,-2.22273 0,-1.2316 -0.9931,-2.22743 -2.22282,-2.22743 -1.2297,0 -2.225,0.99583 -2.225,2.22743"
       style="fill:#305eb2;fill-opacity:1;fill-rule:nonzero;stroke:none;stroke-width:0.249454"
       id="path1877" /><path
       d="m 487.94555,663.95924 c -3.75402,15.80542 -4.33842,26.0377 -2.5245,44.4666 1.46145,15.0098 -22.00142,19.62195 -68.00987,16.41705 11.9109,4.89655 62.02818,11.86032 80.65952,-4.13858 -14.46357,-29.989 -10.12515,-56.74507 -10.12515,-56.74507"
       style="fill:#c6d2dd;fill-opacity:1;fill-rule:nonzero;stroke:none;stroke-width:0.249454"
       id="path1879" /><path
       d="m 473.05548,631.16969 c -1.27223,6.78137 -3.49425,11.75787 -15.14358,17.42345 5.08356,3.81348 10.13723,7.36325 10.13723,7.36325 0,0 13.53242,-11.57405 14.38067,-22.16295 -3.97379,-1.82867 -9.37432,-2.62375 -9.37432,-2.62375"
       style="fill:#305eb2;fill-opacity:1;fill-rule:nonzero;stroke:none;stroke-width:0.249454"
       id="path1881" /><path
       d="m 450.01676,629.10514 c -1.42928,3.17567 -0.47788,13.66097 7.89514,19.488 -4.95147,2.03987 -11.78704,4.73917 -11.78704,4.73917 0,0 -10.24501,-10.40475 -6.75245,-23.75034 5.0835,-1.03468 10.64435,-0.4779 10.64435,-0.4779"
       style="fill:#305eb2;fill-opacity:1;fill-rule:nonzero;stroke:none;stroke-width:0.249454"
       id="path1883" /><path
       d="m 419.83021,630.53489 c -1.42935,2.85942 -3.41433,15.41162 -3.73398,20.81195 -5.32338,-0.9501 -6.91258,-2.85788 -6.91258,-2.85788 0,0 2.22515,-14.62137 4.13391,-17.6375 3.81122,-0.4799 6.51265,-0.31437 6.51265,-0.31437"
       style="fill:#305eb2;fill-opacity:1;fill-rule:nonzero;stroke:none;stroke-width:0.249454"
       id="path1885" /><path
       d="m 499.74458,638.00099 c 0.9301,3.06045 1.15463,16.15182 0.55533,21.52745 5.8769,0.51995 8.65342,-2.02577 8.65342,-2.02577 0,0 -1.2498,-14.3951 -2.6216,-17.69003 -3.67965,-1.1103 -6.59008,-1.81165 -6.59008,-1.81165"
       style="fill:#305eb2;fill-opacity:1;fill-rule:nonzero;stroke:none;stroke-width:0.249454"
       id="path1887" /><path
       d="m 437.36225,629.31532 c 0,0 -11.01612,29.3399 -14.8306,49.99727 -3.4941,-26.37995 3.17873,-49.35852 3.17873,-49.35852 l 11.65187,-0.63808"
       style="fill:#c8213e;fill-opacity:1;fill-rule:nonzero;stroke:none;stroke-width:0.249454"
       id="path1889" /><path
       d="m 483.62481,634.19039 c 0,0 4.36592,28.91505 7.06735,47.50473 4.12819,-12.71185 4.60695,-44.64425 4.60695,-44.64425 0,0 -7.22883,-2.62683 -11.6743,-2.86048"
       style="fill:#c8213e;fill-opacity:1;fill-rule:nonzero;stroke:none;stroke-width:0.249454"
       id="path1891" /><path
       d="m 530.43708,661.57864 c -5.64763,-3.95123 -25.21473,-7.3583 -32.9749,-10.10445 -3.43777,-6.70747 -14.74497,-9.23757 -15.24395,-6.5627 -0.47523,1.58833 1.01792,2.7204 2.30703,3.14523 -2.83586,-0.04 -4.88873,3.54222 -0.49658,4.74182 -3.54175,0.58335 -2.01022,4.4031 0.4432,4.29812 -4.80672,3.21538 3.0603,5.16118 10.40427,4.42766 10.54698,3.53014 23.82763,7.93244 32.99271,8.68079 4.86384,0.40048 7.39882,-5.23795 2.56942,-8.62647"
       style="fill:#fabd99;fill-opacity:1;fill-rule:nonzero;stroke:none;stroke-width:0.249454"
       id="path1893" /></g></svg>
