<?xml version="1.0" encoding="UTF-8" standalone="no"?>
<!-- Created with Inkscape (http://www.inkscape.org/) -->

<svg
   xmlns:dc="http://purl.org/dc/elements/1.1/"
   xmlns:cc="http://creativecommons.org/ns#"
   xmlns:rdf="http://www.w3.org/1999/02/22-rdf-syntax-ns#"
   xmlns:svg="http://www.w3.org/2000/svg"
   xmlns="http://www.w3.org/2000/svg"
   xmlns:sodipodi="http://sodipodi.sourceforge.net/DTD/sodipodi-0.dtd"
   xmlns:inkscape="http://www.inkscape.org/namespaces/inkscape"
   width="1000"
   height="1000"
   viewBox="0 0 264.58333 264.58334"
   version="1.1"
   id="svg2383"
   inkscape:version="0.92.5 (2060ec1f9f, 2020-04-08)"
   sodipodi:docname="How tall are you.svg"
   enable-background="new">
  <defs
     id="defs2377" />
  <sodipodi:namedview
     id="base"
     pagecolor="#ffffff"
     bordercolor="#666666"
     borderopacity="1.0"
     inkscape:pageopacity="0.0"
     inkscape:pageshadow="2"
     inkscape:zoom="0.70710678"
     inkscape:cx="443.02728"
     inkscape:cy="431.56025"
     inkscape:document-units="px"
     inkscape:current-layer="layer1"
     showgrid="false"
     units="px"
     inkscape:window-width="1920"
     inkscape:window-height="1031"
     inkscape:window-x="0"
     inkscape:window-y="25"
     inkscape:window-maximized="1"
     showguides="true"
     inkscape:lockguides="true"
     inkscape:object-nodes="false"
     inkscape:snap-nodes="false"
     inkscape:snap-others="false" />
  <metadata
     id="metadata2380">
    <rdf:RDF>
      <cc:Work
         rdf:about="">
        <dc:format>image/svg+xml</dc:format>
        <dc:type
           rdf:resource="http://purl.org/dc/dcmitype/StillImage" />
        <dc:title />
      </cc:Work>
    </rdf:RDF>
  </metadata>
  <g
     inkscape:groupmode="layer"
     id="layer3"
     inkscape:label="Layer 2">
    <ellipse
       style="fill:#ebc8e9;fill-opacity:1;stroke-width:0.45916313"
       id="path3018"
       cx="133.16296"
       cy="211.66116"
       rx="105.7971"
       ry="33.096272" />
  </g>
  <g
     inkscape:groupmode="layer"
     id="layer2"
     inkscape:label="Layer 3" />
  <g
     inkscape:label="Layer 1"
     inkscape:groupmode="layer"
     id="layer1"
     transform="translate(0,-32.41665)">
    <text
       xml:space="preserve"
       style="font-style:normal;font-variant:normal;font-weight:bold;font-stretch:normal;font-size:10.58333302px;line-height:1.25;font-family:sans-serif;-inkscape-font-specification:'sans-serif Bold';letter-spacing:0px;word-spacing:0px;fill:#000000;fill-opacity:1;stroke:none;stroke-width:0.26458332"
       x="150.05655"
       y="89.869026"
       id="text8811" />
    <text
       xml:space="preserve"
       style="font-style:normal;font-variant:normal;font-weight:bold;font-stretch:normal;font-size:10.58333302px;line-height:1.25;font-family:sans-serif;-inkscape-font-specification:'sans-serif Bold';letter-spacing:0px;word-spacing:0px;fill:#000000;fill-opacity:1;stroke:none;stroke-width:0.26458332"
       x="160.63989"
       y="97.806526"
       id="text8815" />
    <text
       xml:space="preserve"
       style="font-style:normal;font-variant:normal;font-weight:bold;font-stretch:normal;font-size:10.58333302px;line-height:1.25;font-family:sans-serif;-inkscape-font-specification:'sans-serif Bold';letter-spacing:0px;word-spacing:0px;fill:#000000;fill-opacity:1;stroke:none;stroke-width:0.26458332"
       x="156.86011"
       y="88.7351"
       id="text8819" />
    <flowRoot
       xml:space="preserve"
       id="flowRoot8821"
       style="font-style:normal;font-variant:normal;font-weight:bold;font-stretch:normal;font-size:40px;line-height:1.25;font-family:sans-serif;-inkscape-font-specification:'sans-serif Bold';letter-spacing:0px;word-spacing:0px;fill:#000000;fill-opacity:1;stroke:none"><flowRegion
         id="flowRegion8823"
         style="font-style:normal;font-variant:normal;font-weight:bold;font-stretch:normal;font-family:sans-serif;-inkscape-font-specification:'sans-serif Bold'" /><flowPara
         id="flowPara8827" /></flowRoot>    <flowRoot
       xml:space="preserve"
       id="flowRoot8829"
       style="font-style:normal;font-variant:normal;font-weight:bold;font-stretch:normal;font-size:40px;line-height:1.25;font-family:sans-serif;-inkscape-font-specification:'sans-serif Bold';letter-spacing:0px;word-spacing:0px;fill:#000000;fill-opacity:1;stroke:none"><flowRegion
         id="flowRegion8831"
         style="font-style:normal;font-variant:normal;font-weight:bold;font-stretch:normal;font-family:sans-serif;-inkscape-font-specification:'sans-serif Bold'" /><flowPara
         id="flowPara8835" /></flowRoot>    <flowRoot
       xml:space="preserve"
       id="flowRoot8837"
       style="font-style:normal;font-variant:normal;font-weight:bold;font-stretch:normal;font-size:40px;line-height:1.25;font-family:sans-serif;-inkscape-font-specification:'sans-serif Bold';letter-spacing:0px;word-spacing:0px;fill:#000000;fill-opacity:1;stroke:none"><flowRegion
         id="flowRegion8839"
         style="font-style:normal;font-variant:normal;font-weight:bold;font-stretch:normal;font-family:sans-serif;-inkscape-font-specification:'sans-serif Bold'" /><flowPara
         id="flowPara8843" /></flowRoot>    <text
       xml:space="preserve"
       style="font-style:normal;font-variant:normal;font-weight:bold;font-stretch:normal;font-size:10.58333302px;line-height:1.25;font-family:sans-serif;-inkscape-font-specification:'sans-serif Bold';letter-spacing:0px;word-spacing:0px;fill:#000000;fill-opacity:1;stroke:none;stroke-width:0.26458332"
       x="209.39882"
       y="107.25594"
       id="text8847" />
    <flowRoot
       xml:space="preserve"
       id="flowRoot8849"
       style="font-style:normal;font-variant:normal;font-weight:bold;font-stretch:normal;font-size:40px;line-height:1.25;font-family:sans-serif;-inkscape-font-specification:'sans-serif Bold';letter-spacing:0px;word-spacing:0px;fill:#000000;fill-opacity:1;stroke:none"><flowRegion
         id="flowRegion8851"
         style="font-style:normal;font-variant:normal;font-weight:bold;font-stretch:normal;font-family:sans-serif;-inkscape-font-specification:'sans-serif Bold'" /><flowPara
         id="flowPara8855" /></flowRoot>    <flowRoot
       xml:space="preserve"
       id="flowRoot8857"
       style="font-style:normal;font-variant:normal;font-weight:bold;font-stretch:normal;font-size:40px;line-height:1.25;font-family:sans-serif;-inkscape-font-specification:'sans-serif Bold';letter-spacing:0px;word-spacing:0px;fill:#000000;fill-opacity:1;stroke:none"><flowRegion
         id="flowRegion8859"
         style="font-style:normal;font-variant:normal;font-weight:bold;font-stretch:normal;font-family:sans-serif;-inkscape-font-specification:'sans-serif Bold'" /><flowPara
         id="flowPara8863" /></flowRoot>    <flowRoot
       xml:space="preserve"
       id="flowRoot8865"
       style="font-style:normal;font-variant:normal;font-weight:bold;font-stretch:normal;font-size:40px;line-height:1.25;font-family:sans-serif;-inkscape-font-specification:'sans-serif Bold';letter-spacing:0px;word-spacing:0px;fill:#000000;fill-opacity:1;stroke:none"><flowRegion
         id="flowRegion8867"
         style="font-style:normal;font-variant:normal;font-weight:bold;font-stretch:normal;font-family:sans-serif;-inkscape-font-specification:'sans-serif Bold'" /><flowPara
         id="flowPara8871" /></flowRoot>    <flowRoot
       xml:space="preserve"
       id="flowRoot8873"
       style="font-style:normal;font-variant:normal;font-weight:bold;font-stretch:normal;font-size:40px;line-height:1.25;font-family:sans-serif;-inkscape-font-specification:'sans-serif Bold';letter-spacing:0px;word-spacing:0px;fill:#000000;fill-opacity:1;stroke:none"><flowRegion
         id="flowRegion8875"
         style="font-style:normal;font-variant:normal;font-weight:bold;font-stretch:normal;font-family:sans-serif;-inkscape-font-specification:'sans-serif Bold'" /><flowPara
         id="flowPara8879" /></flowRoot>    <text
       xml:space="preserve"
       style="font-style:normal;font-weight:normal;font-size:10.58333302px;line-height:1.25;font-family:sans-serif;letter-spacing:0px;word-spacing:0px;fill:#000000;fill-opacity:1;stroke:none;stroke-width:0.26458332"
       x="101.02788"
       y="69.125984"
       id="text977"><tspan
         sodipodi:role="line"
         id="tspan975"
         x="101.02788"
         y="78.489754"
         style="stroke-width:0.26458332" /><tspan
         sodipodi:role="line"
         x="101.02788"
         y="91.718918"
         style="stroke-width:0.26458332"
         id="tspan979" /><tspan
         sodipodi:role="line"
         x="101.02788"
         y="104.94809"
         style="stroke-width:0.26458332"
         id="tspan981" /><tspan
         sodipodi:role="line"
         x="101.02788"
         y="118.17725"
         style="stroke-width:0.26458332"
         id="tspan983" /><tspan
         sodipodi:role="line"
         x="101.02788"
         y="131.40642"
         style="stroke-width:0.26458332"
         id="tspan985" /><tspan
         sodipodi:role="line"
         x="101.02788"
         y="144.63559"
         style="stroke-width:0.26458332"
         id="tspan987" /><tspan
         sodipodi:role="line"
         x="101.02788"
         y="157.86475"
         style="stroke-width:0.26458332"
         id="tspan989" /><tspan
         sodipodi:role="line"
         x="101.02788"
         y="171.09392"
         style="stroke-width:0.26458332"
         id="tspan991" /><tspan
         sodipodi:role="line"
         x="101.02788"
         y="184.32309"
         style="stroke-width:0.26458332"
         id="tspan993" /><tspan
         sodipodi:role="line"
         x="101.02788"
         y="197.55225"
         style="stroke-width:0.26458332"
         id="tspan995" /><tspan
         sodipodi:role="line"
         x="101.02788"
         y="210.78142"
         style="stroke-width:0.26458332"
         id="tspan997" /><tspan
         sodipodi:role="line"
         x="101.02788"
         y="224.01059"
         style="stroke-width:0.26458332"
         id="tspan999" /><tspan
         sodipodi:role="line"
         x="101.02788"
         y="237.23975"
         style="stroke-width:0.26458332"
         id="tspan1001" /><tspan
         sodipodi:role="line"
         x="101.02788"
         y="250.46892"
         style="stroke-width:0.26458332"
         id="tspan1003" /><tspan
         sodipodi:role="line"
         x="101.02788"
         y="263.69809"
         style="stroke-width:0.26458332"
         id="tspan1005" /><tspan
         sodipodi:role="line"
         x="101.02788"
         y="276.92725"
         style="stroke-width:0.26458332"
         id="tspan1007" /><tspan
         sodipodi:role="line"
         x="101.02788"
         y="290.1564"
         style="stroke-width:0.26458332"
         id="tspan1009" /><tspan
         sodipodi:role="line"
         x="101.02788"
         y="303.38559"
         style="stroke-width:0.26458332"
         id="tspan1011" /><tspan
         sodipodi:role="line"
         x="101.02788"
         y="316.61475"
         style="stroke-width:0.26458332"
         id="tspan1013" /><tspan
         sodipodi:role="line"
         x="101.02788"
         y="329.8439"
         style="stroke-width:0.26458332"
         id="tspan1015" /><tspan
         sodipodi:role="line"
         x="101.02788"
         y="343.07309"
         style="stroke-width:0.26458332"
         id="tspan1017" /><tspan
         sodipodi:role="line"
         x="101.02788"
         y="356.30225"
         style="stroke-width:0.26458332"
         id="tspan1019" /><tspan
         sodipodi:role="line"
         x="101.02788"
         y="369.5314"
         style="stroke-width:0.26458332"
         id="tspan1021" /><tspan
         sodipodi:role="line"
         x="101.02788"
         y="382.76059"
         style="stroke-width:0.26458332"
         id="tspan1023" /></text>
    <g
       id="g6276"
       transform="translate(0.74835468,-0.37417734)">
      <g
         style="stroke-width:1.27769077"
         transform="matrix(0.83635977,0,0,0.73241187,33.602933,20.992677)"
         id="g922">
        <g
           id="g16220"
           transform="matrix(0.01801549,0,0,-0.0080811,-56.541967,171.91074)"
           style="stroke-width:4.38780689">
          <path
             d="m 7297.92,15487.6 c 807.74,812.4 6379.98,792.4 7454.28,-227.1 1030.8,-978.1 777.9,-4526.2 -86.3,-5471.09 -675.4,-738.49 -6189.32,-982.47 -7367.98,11.86 -1205.62,1017.13 -945.78,4735.33 0,5686.33"
             style="fill:#d1ceeb;fill-opacity:1;fill-rule:nonzero;stroke:none;stroke-width:4.38780689"
             id="path16222"
             inkscape:connector-curvature="0" />
        </g>
      </g>
      <g
         style="stroke-width:1.02752793"
         transform="matrix(0.94713681,0,0,1,3.9645249,0)"
         id="g6265">
        <path
           inkscape:connector-curvature="0"
           id="path16224"
           style="fill:#d1ceeb;fill-opacity:1;fill-rule:nonzero;stroke:none;stroke-width:0.0362489"
           d="M 74.995939,87.288886 104.86879,85.802874 94.911353,78.250882 Z" />
        <path
           inkscape:connector-curvature="0"
           id="path16228"
           style="fill:#c556e5;fill-opacity:1;fill-rule:nonzero;stroke:none;stroke-width:0.04219951"
           d="m 98.845426,55.902696 c 12.403164,-4.620248 97.962404,-4.506443 114.459104,1.291748 15.826,5.562951 11.94259,25.742231 -1.32574,31.115827 -10.3714,4.199987 -95.03562,5.587936 -113.133364,-0.06731 -18.511724,-5.78494 -14.521842,-26.931558 0,-32.340229" />
        <path
           inkscape:connector-curvature="0"
           id="path16230"
           style="fill:#c556e5;fill-opacity:1;fill-rule:nonzero;stroke:none;stroke-width:0.0362489"
           d="M 78.01181,86.702847 107.0909,85.275288 97.398008,78.018581 Z" />
        <text
           transform="scale(0.97499615,1.0256451)"
           xml:space="preserve"
           style="font-style:normal;font-weight:normal;font-size:10.31870937px;line-height:1.25;font-family:sans-serif;letter-spacing:0px;word-spacing:0px;fill:#000000;fill-opacity:1;stroke:none;stroke-width:0.27186677"
           x="97.557571"
           y="73.599533"
           id="text926"><tspan
             sodipodi:role="line"
             id="tspan924"
             x="97.557571"
             y="73.599533"
             style="font-style:normal;font-variant:normal;font-weight:bold;font-stretch:normal;font-size:12.38245106px;font-family:sans-serif;-inkscape-font-specification:'sans-serif Bold';stroke-width:0.27186677">How tall are you?</tspan></text>
      </g>
    </g>
    <path
       d="m 63.213174,85.629303 c 1.869495,1.726671 8.36472,2.590703 8.526755,4.640188 0.162035,2.049476 0.141904,2.774382 1.996217,3.343456 1.189021,0.364541 4.160412,3.350401 2.21617,5.536237 -1.944078,2.185836 0.810008,2.323566 1.134073,4.645766 0.323906,2.32218 0.810169,4.50802 -0.648136,7.92382 -1.458306,3.41579 -0.485937,5.46388 0.324071,6.42114 0.810171,0.95587 1.134234,3.14171 -1.134073,4.64438 -2.268313,1.50266 -1.134076,4.64576 0,6.14843 1.134073,1.50268 2.916114,7.37715 0.972037,9.1531 -1.944078,1.77621 0.324238,4.91832 0.486101,7.10417 0.161869,2.18597 -46.336784,12.15899 -49.091198,6.96753 -2.75425,-5.19145 -1.94408,-3.82528 -0.161869,-5.73799 1.782043,-1.91256 0.97204,-3.55201 -0.648137,-5.46473 -1.620175,-1.91257 -0.324233,-3.55202 1.620177,-5.60122 1.944243,-2.04919 2.106276,-4.37139 -0.648138,-7.37811 -2.754248,-3.00535 -1.620009,-4.09756 -0.647971,-6.14706 0.97204,-2.04947 -2.916448,-4.09896 -2.430182,-6.01068 0.485939,-1.91312 1.458144,-6.14845 -0.324231,-8.19792 -1.782209,-2.04949 -1.296108,-5.73798 0.648136,-7.24066 1.944244,-1.502668 0.969894,-2.747938 0.350469,-4.445413 -0.674042,-1.847723 1.116087,-4.985254 3.708302,-5.257966 2.592214,-0.274105 29.761461,-8.729414 33.751427,-5.046468"
       style="fill:#b25b41;fill-opacity:1;fill-rule:nonzero;stroke:none;stroke-width:0.03527778"
       id="path3246"
       inkscape:connector-curvature="0" />
    <path
       d="m 31.075323,117.52771 c 3.45667,1.20493 9.092715,12.01721 1.975428,23.61104 32.471653,-3.72427 39.388627,-5.59315 39.388627,-5.59315 0,0 -8.61668,-2.80889 -1.268051,-19.34943 -15.712688,0.13358 -40.096004,1.33154 -40.096004,1.33154"
       style="fill:#7d3e2b;fill-opacity:1;fill-rule:nonzero;stroke:none;stroke-width:0.03527778"
       id="path3248"
       inkscape:connector-curvature="0" />
    <path
       d="m 89.888896,172.96607 c 0,0 1.667362,0.81032 2.261551,1.77009 0.596155,0.96017 0.998106,3.78187 0.494183,4.29862 0.07489,0.98217 -0.158406,1.75966 -0.543859,1.71401 0.0579,0.83609 -0.302943,1.56223 -0.995133,1.70624 -0.692858,0.14581 -0.738395,-1.91243 -0.738395,-1.91243 0,0 -1.501537,-3.26553 -1.881544,-3.26331 0.125405,1.37272 0.226554,2.73376 -0.678659,3.05794 -0.90868,0.32433 -1.134407,-0.91912 -1.507147,-2.35752 -0.369941,-1.437 -0.599791,-4.38197 -0.599791,-4.38197 l 4.188794,-0.63167"
       style="fill:#fabd99;fill-opacity:1;fill-rule:nonzero;stroke:none;stroke-width:0.03527778"
       id="path3250"
       inkscape:connector-curvature="0" />
    <path
       d="m 92.107214,180.79944 c -0.02643,0.004 -0.05069,-0.0169 -0.05384,-0.0427 -0.277868,-2.20337 -1.642454,-3.7944 -1.657308,-3.81109 -0.01836,-0.02 -0.01682,-0.0516 0.0031,-0.0714 0.02043,-0.0181 0.05138,-0.0164 0.06866,0.004 0.01482,0.0169 1.400563,1.63138 1.681893,3.86479 0.0031,0.0284 -0.01467,0.0533 -0.04208,0.0566"
       style="fill:#dd8265;fill-opacity:1;fill-rule:nonzero;stroke:none;stroke-width:0.03527778"
       id="path3252"
       inkscape:connector-curvature="0" />
    <path
       d="m 92.650407,179.08515 c -0.02527,0.004 -0.04939,-0.0145 -0.05469,-0.042 -0.433632,-2.71315 -1.500714,-3.4663 -1.508963,-3.47285 -0.02412,-0.0159 -0.03003,-0.0471 -0.01452,-0.0709 0.01382,-0.022 0.04339,-0.0292 0.06582,-0.0139 0.04586,0.0302 1.113779,0.78543 1.554339,3.54061 0.0038,0.0275 -0.01467,0.0541 -0.03941,0.0587 -0.0022,3.1e-4 -0.0031,3.1e-4 -0.0031,3.1e-4"
       style="fill:#dd8265;fill-opacity:1;fill-rule:nonzero;stroke:none;stroke-width:0.03527778"
       id="path3254"
       inkscape:connector-curvature="0" />
    <path
       d="m 25.820435,172.59721 c 6.896348,-23.92826 11.877822,-34.27388 14.007035,-38.8544 0.756378,0.23834 1.733534,0.75983 1.733534,0.75983 0,0 -6.462222,12.71302 -14.262131,38.63735 -0.941844,0.18866 -1.427945,-0.27187 -1.478438,-0.54278"
       style="fill:#9e5a20;fill-opacity:1;fill-rule:nonzero;stroke:none;stroke-width:0.03527778"
       id="path3256"
       inkscape:connector-curvature="0" />
    <path
       d="m 70.701558,132.5141 c 4.605925,4.70155 9.646802,25.55685 20.049639,40.78617 -1.909914,1.26307 -3.276643,2.30967 -5.9705,2.20725 C 68.700056,156.27844 62.675095,138.29007 62.675095,138.29007 l 8.026463,-5.77597"
       style="fill:#f03c1f;fill-opacity:1;fill-rule:nonzero;stroke:none;stroke-width:0.03527778"
       id="path3258"
       inkscape:connector-curvature="0" />
    <path
       d="m 56.798473,230.13638 c 0,0 -0.128044,6.06078 -0.329678,10.16254 0.474057,1.05046 9.50506,5.36508 10.016903,3.15282 0.184147,-0.79029 -7.205233,-3.82904 -7.174212,-4.72229 0.0792,-2.38759 0.199985,-6.99856 0.05445,-8.68073 -0.883598,-0.36036 -2.567466,0.0876 -2.567466,0.0876"
       style="fill:#fabd99;fill-opacity:1;fill-rule:nonzero;stroke:none;stroke-width:0.03527778"
       id="path3260"
       inkscape:connector-curvature="0" />
    <path
       d="m 56.397349,239.27347 c -0.480657,0.16418 -0.999761,3.17649 -0.211866,3.89583 0.788225,0.72211 8.486656,4.00713 12.877744,4.04469 2.848138,0.025 2.834775,-1.0324 1.582395,-2.07453 -1.292319,-1.07692 -6.058461,-3.37962 -6.058461,-3.37962 0,0 1.195622,0.89465 -0.740866,1.14926 -1.971306,0.25322 -6.353815,-2.06477 -7.448946,-3.63563"
       style="fill:#1d1b1a;fill-opacity:1;fill-rule:nonzero;stroke:none;stroke-width:0.03527778"
       id="path3262"
       inkscape:connector-curvature="0" />
    <path
       d="m 50.191874,231.03798 c 0,0 -0.121939,8.4915 -0.0863,10.20843 0.297173,1.486 1.368875,5.91749 -0.599459,5.92862 -2.658382,0.0181 -2.110567,-4.26313 -2.176899,-5.64338 -0.06749,-1.38302 -0.104282,-10.3907 -0.104282,-10.3907 l 2.966939,-0.10297"
       style="fill:#fabd99;fill-opacity:1;fill-rule:nonzero;stroke:none;stroke-width:0.03527778"
       id="path3264"
       inkscape:connector-curvature="0" />
    <path
       d="m 50.105575,240.31421 c 0.519268,0.61778 1.020716,1.87001 1.51936,3.90834 0.519101,2.126 1.257991,5.77277 -0.981281,6.18462 -1.878242,0.34784 -3.759123,0.16696 -4.278885,-3.16119 -0.579659,-3.68154 0.86363,-6.83298 0.86363,-6.83298 0,0 0.04438,4.5581 1.735514,4.6875 1.691952,0.1294 1.00273,-2.16356 1.141662,-4.78629"
       style="fill:#1d1b1a;fill-opacity:1;fill-rule:nonzero;stroke:none;stroke-width:0.03527778"
       id="path3266"
       inkscape:connector-curvature="0" />
    <path
       d="m 56.572584,125.57815 c 0,0 0.01517,2.07312 0.216484,3.56328 3.666061,0.58437 5.733728,0.97673 5.733728,0.97673 0,0 2.623732,10.69278 -5.071731,10.98748 -5.319403,0.20409 -10.459941,-8.44267 -11.062372,-9.88134 1.060153,-0.3061 2.927009,-0.98786 6.176765,-1.9006 l -0.17309,-3.55772 4.180216,-0.18783"
       style="fill:#fabd99;fill-opacity:1;fill-rule:nonzero;stroke:none;stroke-width:0.03527778"
       id="path3268"
       inkscape:connector-curvature="0" />
    <path
       d="m 56.2665,128.24261 c -0.935904,-0.98927 -2.00447,-0.68594 -3.006211,0.0737 l -0.270772,-2.43211 3.028652,-0.19758 c 0.101147,1.12006 0.0104,0.25185 0.248331,2.55594"
       style="fill:#eaa376;fill-opacity:1;fill-rule:nonzero;stroke:none;stroke-width:0.03527778"
       id="path3270"
       inkscape:connector-curvature="0" />
    <path
       d="m 71.274122,165.56233 c 0,0 1.022693,4.17326 -0.826011,22.05118 -0.837562,8.10469 -6.187658,31.54779 -7.817732,43.01541 -0.573885,0.99344 -5.208355,1.35658 -6.594061,0.20871 -0.851915,-17.61885 0.860828,-42.83245 1.147604,-47.92749 -3.073696,17.1519 -5.308016,42.53734 -5.20687,48.36577 -0.575863,0.99065 -6.377408,1.09501 -7.052769,-0.0779 -0.579825,-19.27318 -0.840697,-24.35999 -0.989695,-27.49614 -0.152794,-3.13613 -5.944108,-31.38862 -2.689236,-37.48349 3.251899,-6.09279 30.02877,-0.65603 30.02877,-0.65603"
       style="fill:#454547;fill-opacity:1;fill-rule:nonzero;stroke:none;stroke-width:0.03527778"
       id="path3272"
       inkscape:connector-curvature="0" />
    <path
       d="m 61.386578,129.63814 c 0.685262,1.32458 0.738888,7.9472 -4.427885,8.36238 -6.608911,0.53094 -8.864847,-5.41129 -9.651751,-7.14493 -5.422036,1.54859 -8.9853,3.50373 -10.40681,5.2727 0.972038,1.76148 10.434695,12.98227 1.807291,32.64601 9.128191,5.36914 24.143236,5.07778 34.190666,0.0959 -1.974766,-7.85814 -3.803346,-13.09244 -3.580095,-15.79127 4.019666,-2.15788 4.780996,-3.58696 2.264188,-10.95881 -1.703667,-4.98861 -2.762501,-9.47798 -3.690979,-10.34201 -1.432563,-1.33433 -6.504625,-2.13992 -6.504625,-2.13992"
       style="fill:#36ab9c;fill-opacity:1;fill-rule:nonzero;stroke:none;stroke-width:0.03527778"
       id="path3274"
       inkscape:connector-curvature="0" />
    <path
       d="m 45.881637,131.23683 c 2.139772,4.96117 5.498266,23.628 6.033044,46.1809 -9.62799,0.45066 -15.245225,-4.2975 -15.245225,-4.2975 0,0 -3.078317,-12.34266 -0.759515,-36.81383 3.743616,-3.83405 9.971696,-5.06957 9.971696,-5.06957"
       style="fill:#f03c1f;fill-opacity:1;fill-rule:nonzero;stroke:none;stroke-width:0.03527778"
       id="path3276"
       inkscape:connector-curvature="0" />
    <path
       d="m 62.653974,129.78703 c 2.302633,5.24447 1.3961,38.22618 1.3961,47.46639 5.767389,1.21591 9.599776,-1.38748 9.599776,-1.38748 0,0 2.445526,-33.22438 -3.321862,-43.43811 -3.682729,-2.28322 -8.427092,-2.57123 -7.674014,-2.6408"
       style="fill:#f03c1f;fill-opacity:1;fill-rule:nonzero;stroke:none;stroke-width:0.03527778"
       id="path3278"
       inkscape:connector-curvature="0" />
    <path
       d="m 25.646357,168.62639 c 0,0 -3.042182,11.54527 -1.890123,18.50361 0.137943,0.83092 14.758793,5.67052 19.083881,5.75122 4.325252,0.0821 2.561029,-22.09096 1.984339,-21.76664 -0.576689,0.32377 -19.178097,-2.48819 -19.178097,-2.48819"
       style="fill:#ac7c5c;fill-opacity:1;fill-rule:nonzero;stroke:none;stroke-width:0.03527778"
       id="path3280"
       inkscape:connector-curvature="0" />
    <path
       d="m 44.501212,171.5811 c 0,0 -16.328808,-3.02816 -18.116957,-2.87692 -0.783606,1.32166 -2.118323,11.38427 6.269991,13.44962 10.418361,2.56608 11.846966,-10.5727 11.846966,-10.5727"
       style="fill:#794a31;fill-opacity:1;fill-rule:nonzero;stroke:none;stroke-width:0.03527778"
       id="path3282"
       inkscape:connector-curvature="0" />
    <path
       d="m 49.47229,170.51058 c 0,0 0.284632,14.2093 -0.406404,20.46725 -2.490408,1.16736 -6.225771,1.90339 -6.225771,1.90339 0,0 0.278857,-12.55401 1.937479,-21.88338 0.553918,-0.58298 4.4264,-0.3107 4.694696,-0.48726"
       style="fill:#966141;fill-opacity:1;fill-rule:nonzero;stroke:none;stroke-width:0.03527778"
       id="path3284"
       inkscape:connector-curvature="0" />
    <path
       d="m 49.47229,170.51058 c -0.599128,-0.50519 -18.114811,-3.31311 -19.774587,-3.31311 -1.382899,0.0776 -3.774139,0.57393 -3.774139,0.57393 0,0 17.609733,3.30408 18.670215,3.38214 1.059822,0.077 3.903503,-0.30638 4.878511,-0.64296"
       style="fill:#caa576;fill-opacity:1;fill-rule:nonzero;stroke:none;stroke-width:0.03527778"
       id="path3286"
       inkscape:connector-curvature="0" />
    <path
       d="m 44.686182,171.11458 c 0,0 -16.974965,-3.49386 -18.762618,-3.34318 -0.784099,1.3218 -2.118818,11.38359 6.269331,13.44963 10.418359,2.56595 12.493287,-10.10645 12.493287,-10.10645"
       style="fill:#b98b6b;fill-opacity:1;fill-rule:nonzero;stroke:none;stroke-width:0.03527778"
       id="path3288"
       inkscape:connector-curvature="0" />
    <path
       d="m 30.993645,182.04346 c -0.06319,0.53734 0.402445,1.01681 1.040516,1.0701 v 0 c 0.63741,0.0529 1.20552,-0.33992 1.268387,-0.87698 l 0.18827,-1.60341 c 0.0637,-0.53748 -0.402281,-1.01694 -1.039856,-1.0694 v 0 c -0.637743,-0.0543 -1.205851,0.33991 -1.268884,0.87698 l -0.188433,1.60271"
       style="fill:#fab817;fill-opacity:1;fill-rule:nonzero;stroke:none;stroke-width:0.03527778"
       id="path3290"
       inkscape:connector-curvature="0" />
    <path
       d="m 47.686451,172.08603 c -0.236946,-24.62451 -2.286461,-35.65581 -3.119567,-40.52502 -0.801426,0.0862 -1.893258,0.40489 -1.893258,0.40489 0,0 2.850447,13.62216 3.42664,40.36334 0.865447,0.36467 1.464083,0.0104 1.586185,-0.24321"
       style="fill:#fbc707;fill-opacity:1;fill-rule:nonzero;stroke:none;stroke-width:0.03527778"
       id="path3292"
       inkscape:connector-curvature="0" />
    <path
       d="m 28.547129,178.1379 c 0,0 -0.832776,1.46274 -0.679818,2.53855 0.151146,1.07539 1.710764,3.59556 2.473083,3.78145 0.59616,0.84609 1.309803,1.37661 1.59691,1.15511 0.512337,0.7171 1.296436,1.14452 1.964374,0.93374 0.669257,-0.21009 -0.672227,-1.92982 -0.672227,-1.92982 0,0 -0.94927,-3.40968 -0.634441,-3.58874 0.816441,1.19156 1.644761,2.36309 2.609375,2.1996 0.966759,-0.16543 0.319613,-1.29953 -0.336278,-2.6632 -0.657872,-1.36244 -2.441731,-3.90141 -2.441731,-3.90141 l -3.879247,1.47472"
       style="fill:#fabd99;fill-opacity:1;fill-rule:nonzero;stroke:none;stroke-width:0.03527778"
       id="path3294"
       inkscape:connector-curvature="0" />
    <path
       d="m 31.965519,185.65781 c 0.02525,-0.009 0.0312,-0.0379 0.01601,-0.0612 -1.246936,-1.94917 -1.187535,-3.91294 -1.186215,-3.93354 0.0013,-0.0258 -0.02046,-0.0508 -0.05049,-0.0579 -0.02855,-0.005 -0.0523,0.0108 -0.05395,0.0362 -9.98e-4,0.0212 -0.06188,2.01316 1.20255,3.99 0.01585,0.0242 0.04768,0.0371 0.07211,0.0265"
       style="fill:#dd8265;fill-opacity:1;fill-rule:nonzero;stroke:none;stroke-width:0.03527778"
       id="path3296"
       inkscape:connector-curvature="0" />
    <path
       d="m 30.369269,184.50228 c 0.02359,-0.008 0.03102,-0.0353 0.01666,-0.0605 -1.460286,-2.44532 -1.084572,-3.57524 -1.081931,-3.58429 0.0094,-0.0246 -0.0071,-0.053 -0.03614,-0.0654 -0.02557,-0.0113 -0.0556,-0.004 -0.06336,0.0196 -0.01766,0.0473 -0.392544,1.17862 1.090347,3.66206 0.01551,0.0245 0.04834,0.0372 0.07177,0.0295 0.0022,-3.9e-4 0.0026,-7.3e-4 0.0026,-7.3e-4"
       style="fill:#dd8265;fill-opacity:1;fill-rule:nonzero;stroke:none;stroke-width:0.03527778"
       id="path3298"
       inkscape:connector-curvature="0" />
    <path
       d="m 36.874556,148.62707 c -0.972699,11.48042 -3.173523,12.52937 -2.618449,30.09772 -2.392395,0.34408 -4.367,0.69595 -6.678542,-0.47391 -5.64875,-27.02683 8.425604,-42.15583 8.425604,-42.15583 0,0 1.327625,7.14466 0.871387,12.53202"
       style="fill:#f03c1f;fill-opacity:1;fill-rule:nonzero;stroke:none;stroke-width:0.03527778"
       id="path3300"
       inkscape:connector-curvature="0" />
    <path
       d="m 72.530295,114.78951 c -2.965948,6.45315 -8.324787,11.5038 -15.419305,12.32609 -7.216289,0.83483 -17.71682,-2.7716 -22.143551,-9.70477 C 29.042471,108.136 31.854142,91.475799 51.112431,90.547773 70.370228,89.619727 77.658458,103.62798 72.530295,114.78951"
       style="fill:#fabd99;fill-opacity:1;fill-rule:nonzero;stroke:none;stroke-width:0.03527778"
       id="path3302"
       inkscape:connector-curvature="0" />
    <path
       d="m 71.65924,114.30532 c -0.306081,1.41501 -2.078724,2.21923 -4.293903,2.06061 -2.136307,-0.15445 -4.073456,-1.74616 -3.480597,-3.02622 0.563985,-1.21884 1.652186,-0.64559 4.228063,-1.12144 2.491565,-0.45916 3.853015,0.67342 3.546437,2.08705"
       style="fill:#f68a78;fill-opacity:1;fill-rule:nonzero;stroke:none;stroke-width:0.03527778"
       id="path3304"
       inkscape:connector-curvature="0" />
    <path
       d="m 41.406889,115.67162 c 0.306249,1.41503 2.078722,2.21924 4.294069,2.06062 2.136142,-0.15444 4.07329,-1.74616 3.480429,-3.0276 -0.563982,-1.21746 -1.652184,-0.6442 -4.227899,-1.12005 -2.491727,-0.45916 -3.853176,0.67342 -3.546599,2.08703"
       style="fill:#f68a78;fill-opacity:1;fill-rule:nonzero;stroke:none;stroke-width:0.03527778"
       id="path3306"
       inkscape:connector-curvature="0" />
    <path
       d="m 49.126772,83.568689 c 0.730474,-1.280057 2.303623,-2.03696 4.775879,-2.322184 1.42679,-0.162802 3.714242,-0.173922 6.484826,1.067168 2.329033,1.043523 3.451392,0.946135 5.107869,1.825472 2.337448,1.241093 3.116598,2.846739 4.93478,4.087822 1.762904,1.203533 2.757051,3.026231 3.116593,5.621111 0.557389,4.021049 1.773304,9.525292 0.29932,9.354152 -2.754414,-0.31862 -2.268145,-2.13992 -3.726288,-3.369887 -1.458307,-1.228573 -4.78116,0.01527 -5.940809,-0.637244 -1.782043,-1.001786 -3.456341,-2.640805 -5.076351,-2.368102 -1.620342,0.274105 -5.122718,-2.71455 -5.770525,-4.626292 -0.324232,3.824861 -2.492387,6.812128 -4.760698,6.675777 -2.268147,-0.136361 -3.888487,1.229958 -4.050356,2.596268 -0.162034,1.36633 -4.212555,3.68852 -6.642735,3.55216 -2.430181,-0.13634 -1.237366,7.21145 -4.536459,6.2375 -4.919432,-3.70521 -6.655935,-16.258101 -5.160503,-19.896519 1.460946,-3.553546 3.532901,-5.253785 6.319988,-5.985653 1.729243,-0.454978 4.582163,-1.306489 6.493406,-2.190003 2.683628,-1.241104 5.097967,-1.469284 8.132063,0.378454"
       style="fill:#b25b41;fill-opacity:1;fill-rule:nonzero;stroke:none;stroke-width:0.03527778"
       id="path3308"
       inkscape:connector-curvature="0" />
    <path
       d="m 33.325978,117.28839 c 0.40723,0.2588 1.856133,1.70165 0.977814,2.73542 -0.83294,0.55099 -1.25337,0.0974 -1.25337,0.0974 0,0 1.214924,-1.55554 -0.448482,-2.8189 0.249321,-0.20731 0.724038,-0.0139 0.724038,-0.0139"
       style="fill:#c82025;fill-opacity:1;fill-rule:nonzero;stroke:none;stroke-width:0.03527778"
       id="path3310"
       inkscape:connector-curvature="0" />
    <path
       d="m 34.583473,111.91495 c 0,0 -1.264426,-2.70899 -4.185658,-2.29158 -3.077492,0.44247 -2.82388,5.07014 -0.306246,7.42293 2.517137,2.34861 5.959122,1.8686 6.239299,-0.63168 l -1.747395,-4.49967"
       style="fill:#fabd99;fill-opacity:1;fill-rule:nonzero;stroke:none;stroke-width:0.03527778"
       id="path3312"
       inkscape:connector-curvature="0" />
    <path
       d="m 33.094147,117.07413 c -1.388509,1.49432 0.143883,3.45893 1.209645,2.94968 -0.281331,0.41464 -1.41887,0.61637 -1.854975,0.44246 -0.892013,-0.35202 -1.889133,-1.76147 -0.268461,-3.31144 0.246679,-0.19339 0.827495,-0.25741 0.913791,-0.0806"
       style="fill:#f03c1f;fill-opacity:1;fill-rule:nonzero;stroke:none;stroke-width:0.03527778"
       id="path3314"
       inkscape:connector-curvature="0" />
    <path
       d="m 30.235616,111.01891 c 1.78353,-0.9503 4.230374,1.46511 2.328373,4.33549 0.15065,-3.22101 -0.734433,-2.66585 -1.659611,-0.89048 -0.292388,-0.95445 -0.0097,-1.68632 1.180605,-1.90755 -0.499303,-1.23136 -1.849367,-1.53746 -1.849367,-1.53746"
       style="fill:#d48a5b;fill-opacity:1;fill-rule:nonzero;stroke:none;stroke-width:0.03527778"
       id="path3316"
       inkscape:connector-curvature="0" />
    <path
       d="m 67.039124,102.10305 c -3.291503,-0.93499 -3.478451,1.3204 -1.212618,1.27032 2.650794,-0.0585 3.395623,0.30748 3.898056,0.71655 -0.08646,-0.4675 -0.797131,-1.45119 -2.685438,-1.98687"
       style="fill:#c87e52;fill-opacity:1;fill-rule:nonzero;stroke:none;stroke-width:0.03527778"
       id="path3318"
       inkscape:connector-curvature="0" />
    <path
       d="m 44.933027,103.15632 c 3.19151,-1.15623 3.593791,1.07969 1.330593,1.18405 -2.647655,0.12244 -3.355359,0.53706 -3.816873,0.97951 0.04142,-0.47167 0.655395,-1.49988 2.48628,-2.16356"
       style="fill:#c87e52;fill-opacity:1;fill-rule:nonzero;stroke:none;stroke-width:0.03527778"
       id="path3320"
       inkscape:connector-curvature="0" />
    <path
       d="m 58.510224,113.87538 c 0.02707,0.008 0.06023,0.0111 0.08597,0.003 0.897787,-0.28941 1.39379,-0.89187 1.328778,-1.61955 -0.05775,-0.67203 -0.59715,-1.26893 -1.248421,-1.39276 -0.410366,-0.0723 -1.209315,-0.0348 -1.948534,1.09779 -0.03597,0.0501 -0.01172,0.1127 0.04769,0.14191 0.06667,0.0306 0.137778,0.0126 0.170448,-0.0404 0.493199,-0.75133 1.083749,-1.10335 1.672647,-0.99204 0.560684,0.0974 1.008836,0.61915 1.062132,1.19935 0.02524,0.30472 -0.0363,1.0463 -1.171859,1.40668 -0.06138,0.0249 -0.09356,0.0821 -0.06996,0.13634 0.01222,0.0265 0.03416,0.0487 0.07112,0.0597"
       style="fill:#ce6748;fill-opacity:1;fill-rule:nonzero;stroke:none;stroke-width:0.03527778"
       id="path3322"
       inkscape:connector-curvature="0" />
    <path
       d="m 64.272005,117.25084 c -0.709023,3.51736 -1.998036,6.2013 -6.675902,6.40027 -4.877191,0.20871 -6.307613,-2.37506 -7.272227,-5.96895 2.555916,0.19897 6.735139,-0.97395 7.910297,-0.0181 1.171366,-0.99344 3.441161,0.18505 6.037832,-0.41323"
       style="fill:#f68a78;fill-opacity:1;fill-rule:nonzero;stroke:none;stroke-width:0.03527778"
       id="path3324"
       inkscape:connector-curvature="0" />
    <path
       d="m 64.272005,117.25084 c -1.659942,3.74693 -3.437036,4.66663 -6.77507,4.76958 -3.336053,0.10435 -5.011836,-0.68176 -7.173059,-4.33826 1.507313,0.44801 4.255291,0.68871 6.972249,0.62333 2.77042,-0.0667 5.507013,-0.44941 6.97588,-1.05465"
       style="fill:#461b1c;fill-opacity:1;fill-rule:nonzero;stroke:none;stroke-width:0.03527778"
       id="path3326"
       inkscape:connector-curvature="0" />
    <path
       d="m 63.206738,117.59033 c -0.132167,0.17948 -0.269452,0.34921 -0.433796,0.47723 -1.091997,0.84734 -1.949523,1.32596 -4.141108,1.48041 -2.155944,0.15166 -5.731089,-0.17531 -7.138409,-1.36492 -0.09851,-0.0834 -0.191074,-0.18506 -0.281662,-0.29219 3.093993,0.58436 8.867982,0.49115 11.994975,-0.30053"
       style="fill:#ffffff;fill-opacity:1;fill-rule:nonzero;stroke:none;stroke-width:0.03527778"
       id="path3328"
       inkscape:connector-curvature="0" />
    <path
       d="m 53.594753,121.33031 c 0.583785,-0.78891 1.703668,-1.1284 3.159499,-0.71933 1.336039,-0.59273 4.033689,-0.26436 4.823729,0.34784 -0.537582,0.3701 -1.129122,0.62194 -1.796399,0.78751 -0.735917,0.16419 -1.510283,0.25184 -2.284647,0.27409 -0.791195,0.0265 -1.563084,-0.0139 -2.291081,-0.13217 -0.583125,-0.10712 -1.112623,-0.28663 -1.611101,-0.55794"
       style="fill:#ee5b63;fill-opacity:1;fill-rule:nonzero;stroke:none;stroke-width:0.03527778"
       id="path3330"
       inkscape:connector-curvature="0" />
    <path
       d="m 54.938547,120.92125 c 0.45772,-0.22122 1.418374,-0.20731 1.60318,0.0459 0.221931,0.30331 -0.676187,0.4967 -1.204695,0.43549 -0.535108,-0.0627 -0.693183,-0.34088 -0.398485,-0.48141"
       style="fill:#f57880;fill-opacity:1;fill-rule:nonzero;stroke:none;stroke-width:0.03527778"
       id="path3332"
       inkscape:connector-curvature="0" />
    <path
       d="m 60.019849,122.2347 c 0.318953,-0.3562 1.20717,-0.66229 1.495927,-0.49116 0.345354,0.20454 -0.38908,0.68317 -0.902408,0.80143 -0.522568,0.11966 -0.79763,-0.0821 -0.593519,-0.31027"
       style="fill:#fccfd0;fill-opacity:1;fill-rule:nonzero;stroke:none;stroke-width:0.03527778"
       id="path3334"
       inkscape:connector-curvature="0" />
    <path
       d="m 59.488206,117.61259 c 0.245031,-0.10151 0.735588,-0.0653 0.821885,0.0695 0.101147,0.16 -0.367299,0.23516 -0.637246,0.18922 -0.272092,-0.0473 -0.341558,-0.19479 -0.184639,-0.25879"
       style="fill:#fccfd0;fill-opacity:1;fill-rule:nonzero;stroke:none;stroke-width:0.03527778"
       id="path3336"
       inkscape:connector-curvature="0" />
    <path
       d="m 49.588619,108.37531 c 0.891516,1.55556 0.204109,3.39216 -1.535694,4.10314 -1.741618,0.71099 -3.877431,0.0265 -4.769444,-1.52911 -0.892507,-1.55694 -0.203615,-3.39214 1.535859,-4.10313 1.742278,-0.7096 3.877266,-0.0249 4.769279,1.5291"
       style="fill:#ffffff;fill-opacity:1;fill-rule:nonzero;stroke:none;stroke-width:0.03527778"
       id="path3338"
       inkscape:connector-curvature="0" />
    <path
       d="m 47.849806,108.58958 c 0.550453,0.95866 0.125898,2.09122 -0.946794,2.5309 -1.073847,0.4369 -2.390415,0.0153 -2.941363,-0.94334 -0.55062,-0.96005 -0.125404,-2.09261 0.946958,-2.5309 1.075002,-0.43828 2.391241,-0.0153 2.941199,0.94334"
       style="fill:#21201f;fill-opacity:1;fill-rule:nonzero;stroke:none;stroke-width:0.03527778"
       id="path3340"
       inkscape:connector-curvature="0" />
    <path
       d="m 45.517472,108.88735 c 0.02459,0.31026 -0.238595,0.57741 -0.584774,0.59688 -0.347005,0.0195 -0.647808,-0.21566 -0.674042,-0.52593 -0.02476,-0.31027 0.236779,-0.57741 0.58296,-0.59968 0.348158,-0.0166 0.650941,0.21844 0.675856,0.52873"
       style="fill:#ffffff;fill-opacity:1;fill-rule:nonzero;stroke:none;stroke-width:0.03527778"
       id="path3342"
       inkscape:connector-curvature="0" />
    <path
       d="m 47.496201,110.07279 c 0.01617,0.1934 -0.146524,0.35758 -0.36334,0.3701 -0.214835,0.0126 -0.403598,-0.13358 -0.417954,-0.32698 -0.01238,-0.192 0.147018,-0.35757 0.363008,-0.3701 0.215496,-0.0126 0.403601,0.13497 0.418286,0.32698"
       style="fill:#ffffff;fill-opacity:1;fill-rule:nonzero;stroke:none;stroke-width:0.03527778"
       id="path3344"
       inkscape:connector-curvature="0" />
    <path
       d="m 42.557794,108.60906 c 0,0 2.515653,-2.93299 6.544391,-1.25779 -4.098372,-3.15978 -6.544391,1.25779 -6.544391,1.25779"
       style="fill:#6d3a2c;fill-opacity:1;fill-rule:nonzero;stroke:none;stroke-width:0.03527778"
       id="path3346"
       inkscape:connector-curvature="0" />
    <path
       d="m 63.730461,107.33736 c -0.559199,1.66268 0.494352,3.37127 2.354277,3.8179 1.860259,0.44525 3.823478,-0.53845 4.38383,-2.20114 0.559366,-1.66406 -0.494847,-3.37127 -2.352958,-3.8179 -1.862399,-0.44523 -3.823806,0.53985 -4.385149,2.20114"
       style="fill:#ffffff;fill-opacity:1;fill-rule:nonzero;stroke:none;stroke-width:0.03527778"
       id="path3348"
       inkscape:connector-curvature="0" />
    <path
       d="m 64.491954,107.36797 c -0.345188,1.02543 0.304929,2.0787 1.451541,2.35419 1.14744,0.2755 2.358238,-0.33254 2.703923,-1.35796 0.345355,-1.02544 -0.305091,-2.07732 -1.451375,-2.3542 -1.148432,-0.2741 -2.35857,0.33393 -2.704089,1.35797"
       style="fill:#21201f;fill-opacity:1;fill-rule:nonzero;stroke:none;stroke-width:0.03527778"
       id="path3350"
       inkscape:connector-curvature="0" />
    <path
       d="m 66.851019,107.32066 c 0.03928,0.31029 0.352615,0.53429 0.697967,0.50368 0.345847,-0.032 0.594346,-0.30611 0.555899,-0.61638 -0.03928,-0.30887 -0.351128,-0.53429 -0.696812,-0.50506 -0.345848,0.0335 -0.596821,0.30888 -0.557054,0.61776"
       style="fill:#ffffff;fill-opacity:1;fill-rule:nonzero;stroke:none;stroke-width:0.03527778"
       id="path3352"
       inkscape:connector-curvature="0" />
    <path
       d="m 65.144217,108.77742 c 0.02395,0.19202 0.218629,0.33114 0.434617,0.31167 0.214015,-0.0195 0.369118,-0.19062 0.344033,-0.38262 -0.02755,-0.19062 -0.218297,-0.33116 -0.433959,-0.31167 -0.214176,0.0195 -0.368784,0.1906 -0.344691,0.38262"
       style="fill:#ffffff;fill-opacity:1;fill-rule:nonzero;stroke:none;stroke-width:0.03527778"
       id="path3354"
       inkscape:connector-curvature="0" />
    <path
       d="m 70.703536,106.54289 c 0,0 -3.078979,-2.52254 -6.702797,-0.28522 3.388522,-3.70938 6.702797,0.28522 6.702797,0.28522"
       style="fill:#6d3a2c;fill-opacity:1;fill-rule:nonzero;stroke:none;stroke-width:0.03527778"
       id="path3356"
       inkscape:connector-curvature="0" />
    <path
       d="m 224.47057,175.67298 c 0.0985,0.276 -0.91272,4.41017 -4.35543,4.22209 1.80395,1.35353 1.42496,4.63109 -1.07308,5.071 2.61675,0.68093 2.0212,2.74803 0.94328,4.17733 2.77291,-0.53657 4.15832,2.60044 2.24538,4.2459 1.36807,2.48258 3.56973,4.85219 7.76207,5.02071 -1.27504,1.34239 -4.54076,0.86491 -4.54076,0.86491 0,0 0.22974,1.58638 3.13869,2.72022 -4.72748,0.40757 -6.92636,-1.87135 -7.64268,-7.83299 -2.29884,0.99314 -3.88969,-2.88876 -2.35505,-4.79363 -2.99154,-0.48432 -2.79095,-3.66737 -1.3285,-4.54539 -3.21366,-1.97159 -0.99186,-6.04674 1.06474,-5.6278 -2.2093,-2.65047 -1.37568,-6.50177 1.21466,-7.03424 3.63915,0.46069 4.92668,3.51189 4.92668,3.51189"
       style="fill:#ef9b11;fill-opacity:1;fill-rule:nonzero;stroke:none;stroke-width:0.03527778"
       id="path13728-3"
       inkscape:connector-curvature="0" />
    <path
       d="m 222.55001,192.99045 c 0,0 1.66652,1.05739 0.86138,2.16267 -1.05988,1.58827 -2.46195,1.13748 -2.46195,1.13748 0,0 -1.31948,-0.40841 -1.02517,-2.10336 1.02377,-0.0251 2.62574,-1.19679 2.62574,-1.19679"
       style="fill:#305eb2;fill-opacity:1;fill-rule:nonzero;stroke:none;stroke-width:0.03527778"
       id="path13730-6"
       inkscape:connector-curvature="0" />
    <path
       d="m 192.68038,186.13045 c 1.20354,-3.67197 7.32754,-2.89858 11.69964,-2.52146 4.3714,0.37921 8.55887,0.73479 8.73519,4.28619 0.18396,3.68828 3.36008,9.23252 4.06808,13.84977 0.53792,3.51524 -0.22768,6.95825 -6.01295,8.34455 -5.78458,1.38733 -18.74749,3.01754 -19.3909,-2.78149 -0.64205,-5.798 -0.25683,-17.64817 0.90094,-21.17756"
       style="fill:#d242a9;fill-opacity:1;fill-rule:nonzero;stroke:none;stroke-width:0.03527778"
       id="path13732-7"
       inkscape:connector-curvature="0" />
    <path
       d="m 195.56571,240.1862 c 0.36857,-2.8338 0.83917,-9.50019 0.79545,-18.15615 1.68179,0.36047 2.91726,0.1782 2.91726,0.1782 0,0 0,5.28156 -0.98214,17.82104 -0.0604,0.76854 -1.86156,0.42363 -2.73057,0.15686"
       style="fill:#fabd99;fill-opacity:1;fill-rule:nonzero;stroke:none;stroke-width:0.03527778"
       id="path13734-5"
       inkscape:connector-curvature="0" />
    <path
       d="m 190.7237,242.30968 c 0,0 4.76776,-1.82946 4.8566,-2.6854 0.14638,-1.42114 0.26445,-2.8999 0.38244,-4.79504 0.2353,0.74023 2.11143,0.96271 2.85828,0.0887 0.0299,2.19043 -0.16035,4.30906 -0.16586,7.06742 -6.66886,4.51623 -7.93141,0.32423 -7.93141,0.32423"
       style="fill:#e6edf5;fill-opacity:1;fill-rule:nonzero;stroke:none;stroke-width:0.03527778"
       id="path13736-3"
       inkscape:connector-curvature="0" />
    <path
       d="m 196.43612,226.53565 -0.0813,-1.77909 2.691,-0.0336 -0.0423,2.3786 c 0,0 -0.61637,-2.52692 -2.56747,-0.56599"
       style="fill:#eaa376;fill-opacity:1;fill-rule:nonzero;stroke:none;stroke-width:0.03527778"
       id="path13738-5"
       inkscape:connector-curvature="0" />
    <path
       d="m 198.64819,239.94281 c 0.58999,0.87689 0.94189,1.97239 0.55389,3.09867 -1.39445,2.00642 -5.31538,4.30715 -8.511,2.84984 -2.83326,-1.29235 -1.40135,-3.18306 0.59763,-3.8046 -0.62747,0.54502 0.44144,1.20902 2.26969,0.98335 3.58777,-0.29486 5.08979,-3.12726 5.08979,-3.12726"
       style="fill:#8c3943;fill-opacity:1;fill-rule:nonzero;stroke:none;stroke-width:0.03527778"
       id="path13740"
       inkscape:connector-curvature="0" />
    <path
       d="m 190.2205,245.47507 c -0.30748,-0.13988 -0.54904,-0.28916 -0.76003,-0.44106 -0.14638,-0.17286 -0.24642,-0.34983 -0.29986,-0.52542 0.0742,0.0397 0.14993,0.0808 0.2353,0.11893 3.1963,1.4595 7.31228,-0.0314 8.70673,-2.03855 0.11806,-0.34412 -0.0327,-1.49543 -0.039,-1.82865 0.21446,-0.25509 0.36856,-0.47126 0.46296,-0.61828 0.35746,0.75141 0.5976,2.30428 0.29567,3.18035 -1.39443,2.00698 -5.40629,3.61075 -8.6019,2.15263"
       style="fill:#6f2c33;fill-opacity:1;fill-rule:nonzero;stroke:none;stroke-width:0.03527778"
       id="path13742"
       inkscape:connector-curvature="0" />
    <path
       d="m 199.29787,242.85663 c 0,0 0.11726,0.38822 0.0118,0.9395 -1.95734,1.91468 -4.60185,2.84929 -7.16444,2.6688 -1.99553,-0.13889 -3.04568,-0.62044 -2.84649,-1.65332 2.81317,1.52073 6.84585,1.20792 9.99981,-1.95498"
       style="fill:#e2e1d0;fill-opacity:1;fill-rule:nonzero;stroke:none;stroke-width:0.03527778"
       id="path13744"
       inkscape:connector-curvature="0" />
    <path
       d="m 195.08123,242.84001 c -0.83013,-0.7198 -1.59919,-1.3122 -2.71599,-1.16465 0.83847,-0.40211 1.03283,-0.44948 1.03283,-0.44948 0,0 0.97659,-0.0383 2.68129,1.23489 -0.55113,0.3346 -0.99813,0.37924 -0.99813,0.37924"
       style="fill:#8c3943;fill-opacity:1;fill-rule:nonzero;stroke:none;stroke-width:0.03527778"
       id="path13746-6"
       inkscape:connector-curvature="0" />
    <path
       d="m 205.45795,240.1862 c -0.36926,-2.8338 -1.01754,-10.23253 -0.41993,-18.74499 -1.68248,0.36017 -3.19492,0.58884 -3.19492,0.58884 0,0 -0.39771,5.41601 0.88499,17.99934 0.0785,0.76718 1.86156,0.42361 2.72986,0.15686"
       style="fill:#fabd99;fill-opacity:1;fill-rule:nonzero;stroke:none;stroke-width:0.03527778"
       id="path13748-2"
       inkscape:connector-curvature="0" />
    <path
       d="m 210.29995,242.30968 c 0,0 -4.76704,-1.82946 -4.85588,-2.6854 -0.14638,-1.42114 -0.26516,-2.8999 -0.38314,-4.79504 -0.2353,0.74023 -2.11073,0.96271 -2.85758,0.0887 -0.0305,2.19043 0.15956,4.30906 0.16664,7.06742 6.66815,4.51623 7.93002,0.32423 7.93002,0.32423"
       style="fill:#e6edf5;fill-opacity:1;fill-rule:nonzero;stroke:none;stroke-width:0.03527778"
       id="path13750-9"
       inkscape:connector-curvature="0" />
    <path
       d="m 204.54382,226.44665 -0.0197,-2.4777 -2.58966,0.6662 0.0403,2.37804 c 0,0 0.61636,-2.52724 2.56816,-0.56654"
       style="fill:#eaa376;fill-opacity:1;fill-rule:nonzero;stroke:none;stroke-width:0.03527778"
       id="path13752-1"
       inkscape:connector-curvature="0" />
    <path
       d="m 202.37617,239.94281 c -0.59068,0.87689 -0.94257,1.97239 -0.55526,3.09867 1.3958,2.00642 5.31674,4.30715 8.51098,2.84984 2.83329,-1.29235 1.40206,-3.18306 -0.59761,-3.8046 0.62745,0.54502 -0.44077,1.20902 -2.26763,0.98335 -3.58845,-0.29486 -5.09048,-3.12726 -5.09048,-3.12726"
       style="fill:#8c3943;fill-opacity:1;fill-rule:nonzero;stroke:none;stroke-width:0.03527778"
       id="path13754"
       inkscape:connector-curvature="0" />
    <path
       d="m 210.80387,245.47507 c 0.30817,-0.13988 0.54901,-0.28916 0.76003,-0.44106 0.14638,-0.17286 0.2471,-0.34983 0.30054,-0.52542 -0.0756,0.0397 -0.15051,0.0808 -0.23598,0.11893 -3.19633,1.4595 -7.3123,-0.0314 -8.70673,-2.03855 -0.11865,-0.34412 0.0327,-1.49543 0.039,-1.82865 -0.21586,-0.25509 -0.36856,-0.47126 -0.46365,-0.61828 -0.35817,0.75141 -0.59692,2.30428 -0.29498,3.18035 1.39303,2.00698 5.40628,3.61075 8.6019,2.15263"
       style="fill:#6f2c33;fill-opacity:1;fill-rule:nonzero;stroke:none;stroke-width:0.03527778"
       id="path13756"
       inkscape:connector-curvature="0" />
    <path
       d="m 201.7265,242.85663 c 0,0 -0.11726,0.38822 -0.0118,0.9395 1.95735,1.91468 4.60254,2.84929 7.16513,2.6688 1.99485,-0.13889 3.04569,-0.62044 2.84648,-1.65332 -2.81315,1.52073 -6.84655,1.20792 -9.99982,-1.95498"
       style="fill:#e2e1d0;fill-opacity:1;fill-rule:nonzero;stroke:none;stroke-width:0.03527778"
       id="path13758"
       inkscape:connector-curvature="0" />
    <path
       d="m 205.94242,242.84001 c 0.83084,-0.7198 1.59851,-1.3122 2.71669,-1.16465 -0.83986,-0.40211 -1.03421,-0.44948 -1.03421,-0.44948 0,0 -0.97519,-0.0383 -2.67989,1.23489 0.55042,0.3346 0.99741,0.37924 0.99741,0.37924"
       style="fill:#8c3943;fill-opacity:1;fill-rule:nonzero;stroke:none;stroke-width:0.03527778"
       id="path13760-2"
       inkscape:connector-curvature="0" />
    <path
       d="m 191.51361,211.03665 c 0,0 -1.56311,5.44429 -2.97767,12.31049 11.43518,4.85357 23.69568,-0.11696 23.69568,-0.11696 0,0 -1.85602,-6.62993 -2.68129,-12.54823 -6.36555,0 -18.03672,0.35476 -18.03672,0.35476"
       style="fill:#305eb2;fill-opacity:1;fill-rule:nonzero;stroke:none;stroke-width:0.03527778"
       id="path13762-7"
       inkscape:connector-curvature="0" />
    <path
       d="m 191.68989,212.63521 -1.03212,4.31971 c 0,0 12.05504,-5.26684 19.24584,-0.11794 -0.53028,-4.08337 -1.2084,-5.20795 -1.2084,-5.20795 l -17.00532,1.00616"
       style="fill:#27519b;fill-opacity:1;fill-rule:nonzero;stroke:none;stroke-width:0.03527778"
       id="path13764-0"
       inkscape:connector-curvature="0" />
    <path
       d="m 196.06337,188.54417 c 0,0 -7.72248,3.11177 -20.33487,-6.99667 -0.98144,0.60635 -2.18917,0.10594 -3.64122,-0.87689 -1.24797,-0.37264 -2.02952,-0.84177 -1.7852,-1.29421 0.24917,-0.46605 1.59642,0.0635 1.94762,0.14658 -0.0423,-0.0389 -1.62486,-0.86413 -1.95943,-1.07754 -0.77877,-0.47726 -0.41991,-1.28446 0.32416,-0.99098 0.62537,0.24393 2.01772,0.90387 2.09268,0.93377 -0.0568,-0.0528 -1.56309,-1.14502 -1.8449,-1.34482 -0.82807,-0.57999 -0.30054,-1.58359 0.66008,-0.93823 0.65594,0.44118 1.7755,1.25506 1.89141,1.29562 -0.0157,-0.0585 -0.6927,-0.86143 -1.06197,-1.3681 -0.60595,-0.83285 0.0157,-1.46426 0.86068,-0.64398 0.66495,0.6412 2.33145,2.11447 2.33145,2.11447 0,0 0.14029,-1.52205 0.978,-1.43285 0.83917,0.0941 0.50806,2.74177 0.50806,2.74177 0,0 7.37198,8.38211 18.70655,6.36997 2.57648,0.92157 0.3269,3.36218 0.3269,3.36218"
       style="fill:#fabd99;fill-opacity:1;fill-rule:nonzero;stroke:none;stroke-width:0.03527778"
       id="path13766-9"
       inkscape:connector-curvature="0" />
    <path
       d="m 189.50418,185.60776 c -0.11667,0.48653 -0.3873,1.58637 -0.62468,2.51825 -0.6455,-0.0656 -1.66512,-0.27119 -2.94434,-0.82873 0.56291,-0.0287 1.2931,-0.1786 1.48466,-0.72769 0.25474,-0.73938 -0.2686,-1.33589 -0.71074,-1.64952 1.00227,0.41462 1.58321,0.49902 2.7951,0.68769"
       style="fill:#eaa376;fill-opacity:1;fill-rule:nonzero;stroke:none;stroke-width:0.03527778"
       id="path13768-3"
       inkscape:connector-curvature="0" />
    <path
       d="m 175.19267,179.46023 c 0.008,-0.004 0.0138,-0.004 0.0157,-0.0101 0.0417,-0.0344 0.0431,-0.0978 0.008,-0.13888 -0.59761,-0.65143 -0.14167,-1.42107 0.2228,-1.7742 0.041,-0.0344 0.041,-0.0964 0.002,-0.13672 -0.039,-0.0361 -0.0985,-0.0361 -0.13595,-0.002 -0.41369,0.40212 -0.92731,1.28306 -0.23046,2.04565 0.0285,0.0368 0.0854,0.0412 0.11805,0.0158"
       style="fill:#ce6748;fill-opacity:1;fill-rule:nonzero;stroke:none;stroke-width:0.03527778"
       id="path13770-6"
       inkscape:connector-curvature="0" />
    <path
       d="m 207.83175,190.44821 c 0,0 10.48916,2.24276 21.2726,-3.07086 0.85997,0.77722 2.13295,0.51643 3.74533,-0.17958 1.29448,-0.13751 2.1503,-0.45245 1.99553,-0.94032 -0.15898,-0.50396 -1.58324,-0.23416 -1.94416,-0.22079 0.0486,-0.0287 1.75606,-0.54639 2.1253,-0.68794 0.85305,-0.33028 0.64899,-1.1862 -0.13457,-1.03921 -0.66008,0.12465 -2.14821,0.5137 -2.22874,0.53036 0.0659,-0.043 1.74911,-0.83332 2.06146,-0.9771 0.91967,-0.41462 0.59137,-1.50198 -0.47406,-1.04458 -0.72533,0.30651 -1.97749,0.89891 -2.09824,0.91717 0.0244,-0.0544 0.83985,-0.71652 1.29448,-1.14452 0.75171,-0.70182 0.25542,-1.44175 -0.72186,-0.79521 -0.77461,0.50745 -2.68269,1.63998 -2.68269,1.63998 0,0 0.14088,-1.5199 -0.69894,-1.5877 -0.83985,-0.0684 -1.00574,2.60049 -1.00574,2.60049 0,0 -8.24722,4.60525 -19.56374,2.75341 -2.69863,0.42715 -0.94188,3.2465 -0.94188,3.2465"
       style="fill:#fabd99;fill-opacity:1;fill-rule:nonzero;stroke:none;stroke-width:0.03527778"
       id="path13772-0"
       inkscape:connector-curvature="0" />
    <path
       d="m 216.11438,190.55959 c -1.77827,0.18492 -2.88673,0.1296 -2.88673,0.1296 0,0 -1.75469,-2.01974 0.34079,-2.70253 1.0099,0.004 1.974,-0.0599 2.902,-0.15687 -1.10708,0.29132 -3.231,2.2629 -0.35606,2.72978"
       style="fill:#eaa376;fill-opacity:1;fill-rule:nonzero;stroke:none;stroke-width:0.03527778"
       id="path13774-6"
       inkscape:connector-curvature="0" />
    <path
       d="m 230.08857,185.45317 c 0.0197,0 0.0368,-0.004 0.0528,-0.0202 0.82321,-0.61602 0.48449,-1.58198 0.15209,-2.0532 -0.0299,-0.0425 -0.0909,-0.0545 -0.13182,-0.0229 -0.0459,0.0304 -0.0535,0.0913 -0.0236,0.13237 0.29222,0.41677 0.59693,1.26077 -0.1096,1.78918 -0.043,0.034 -0.0506,0.0934 -0.0201,0.13592 0.0201,0.0229 0.0494,0.0389 0.0805,0.0389"
       style="fill:#ce6748;fill-opacity:1;fill-rule:nonzero;stroke:none;stroke-width:0.03527778"
       id="path13776-2"
       inkscape:connector-curvature="0" />
    <path
       d="m 206.91208,185.75152 c 0,0 -2.13365,-0.60084 -3.50032,-1.17804 0.0319,-1.45918 0.49628,-3.04341 0.49628,-3.04341 l -2.60633,-0.56646 c 0,0 -0.47615,2.34235 -0.54834,3.29354 -1.97329,0.27878 -4.60254,0.47183 -4.60254,0.47183 0,0 -1.99273,5.88504 4.73233,6.37562 1.76857,0.13099 6.02683,-2.5697 6.02892,-5.35308"
       style="fill:#fabd99;fill-opacity:1;fill-rule:nonzero;stroke:none;stroke-width:0.03527778"
       id="path13778-6"
       inkscape:connector-curvature="0" />
    <path
       d="m 201.62238,181.03106 2.2093,0.59243 c 0,0 -0.4227,1.09822 -0.54764,2.29286 -0.71977,-0.89899 -1.85115,-1.01602 -2.34464,-0.30875 0.15346,-1.00346 0.68298,-2.57654 0.68298,-2.57654"
       style="fill:#eaa376;fill-opacity:1;fill-rule:nonzero;stroke:none;stroke-width:0.03527778"
       id="path13780-1"
       inkscape:connector-curvature="0" />
    <path
       d="m 206.14787,185.43845 c 1.01199,0.50119 5.32094,1.32852 7.73292,2.00942 0.45394,1.13742 0.70658,3.91758 0.10487,5.19626 -0.37827,0.37929 -2.59522,0.48432 -4.55465,-0.11972 0.0305,5.71771 1.00367,13.62877 3.85917,17.74401 -3.81057,4.89769 -20.86795,4.18651 -24.90202,1.41569 0.82945,-1.98495 2.41198,-13.25743 3.53918,-20.2971 0.0277,-0.17643 -2.61673,-0.23682 -4.20134,-1.4497 -0.0744,-3.48604 0.79057,-4.55925 0.88427,-4.92865 2.18918,0 7.27757,-0.24886 8.3104,-0.36811 -1.21188,5.71714 8.36243,8.15205 9.22727,0.798"
       style="fill:#e6edf5;fill-opacity:1;fill-rule:nonzero;stroke:none;stroke-width:0.03527778"
       id="path13782-8"
       inkscape:connector-curvature="0" />
    <path
       d="m 200.03083,191.26906 c 0,0.34354 0.27555,0.62043 0.61844,0.62043 0.34149,0 0.61843,-0.27689 0.61843,-0.62043 0,-0.34358 -0.27694,-0.62152 -0.61843,-0.62152 -0.34289,0 -0.61844,0.27794 -0.61844,0.62152"
       style="fill:#305eb2;fill-opacity:1;fill-rule:nonzero;stroke:none;stroke-width:0.03527778"
       id="path13784-7"
       inkscape:connector-curvature="0" />
    <path
       d="m 199.70807,193.91822 c 0,0.3436 0.27555,0.62154 0.61845,0.62154 0.34217,0 0.61843,-0.27794 0.61843,-0.62154 0,-0.34295 -0.27626,-0.62041 -0.61843,-0.62041 -0.3429,0 -0.61845,0.27746 -0.61845,0.62041"
       style="fill:#305eb2;fill-opacity:1;fill-rule:nonzero;stroke:none;stroke-width:0.03527778"
       id="path13786-9"
       inkscape:connector-curvature="0" />
    <path
       d="m 209.06585,194.25964 c -1.04461,4.41577 -1.20772,7.27406 -0.70242,12.42301 0.40743,4.19361 -6.1226,5.48213 -18.92449,4.5867 3.315,1.36859 17.25936,3.31542 22.44354,-1.15617 -4.02435,-8.37799 -2.81663,-15.85354 -2.81663,-15.85354"
       style="fill:#c6d2dd;fill-opacity:1;fill-rule:nonzero;stroke:none;stroke-width:0.03527778"
       id="path13788-2"
       inkscape:connector-curvature="0" />
    <path
       d="m 204.9228,185.09843 c -0.35329,1.89504 -0.97242,3.2846 -4.21383,4.8682 1.41456,1.06556 2.82149,2.05736 2.82149,2.05736 0,0 3.76475,-3.2345 4.00076,-6.19378 -1.105,-0.51071 -2.60842,-0.73178 -2.60842,-0.73178"
       style="fill:#305eb2;fill-opacity:1;fill-rule:nonzero;stroke:none;stroke-width:0.03527778"
       id="path13790-0"
       inkscape:connector-curvature="0" />
    <path
       d="m 198.51285,184.52121 c -0.39771,0.8873 -0.13262,3.81716 2.19612,5.44542 -1.37917,0.56926 -3.27961,1.32419 -3.27961,1.32419 0,0 -2.85203,-2.90779 -1.87822,-6.63783 1.41457,-0.28858 2.96171,-0.13176 2.96171,-0.13176"
       style="fill:#305eb2;fill-opacity:1;fill-rule:nonzero;stroke:none;stroke-width:0.03527778"
       id="path13792-2"
       inkscape:connector-curvature="0" />
    <path
       d="m 190.11291,184.92007 c -0.39771,0.79933 -0.95091,4.30634 -1.03837,5.81591 -1.48049,-0.26623 -1.92332,-0.79876 -1.92332,-0.79876 0,0 0.61914,-4.08471 1.14942,-4.92864 1.06056,-0.13255 1.81227,-0.0886 1.81227,-0.0886"
       style="fill:#305eb2;fill-opacity:1;fill-rule:nonzero;stroke:none;stroke-width:0.03527778"
       id="path13794-3"
       inkscape:connector-curvature="0" />
    <path
       d="m 212.3503,187.00601 c 0.25752,0.85565 0.32068,4.51403 0.15405,6.01601 1.63598,0.14422 2.40782,-0.56599 2.40782,-0.56599 0,0 -0.34774,-4.02267 -0.72949,-4.9434 -1.02309,-0.31092 -1.83241,-0.50662 -1.83241,-0.50662"
       style="fill:#305eb2;fill-opacity:1;fill-rule:nonzero;stroke:none;stroke-width:0.03527778"
       id="path13796-7"
       inkscape:connector-curvature="0" />
    <path
       d="m 194.99171,184.58059 c 0,0 -3.06652,8.19806 -4.12709,13.96882 -0.97242,-7.3694 0.88427,-13.79103 0.88427,-13.79103 l 3.24282,-0.17781"
       style="fill:#b52d8b;fill-opacity:1;fill-rule:nonzero;stroke:none;stroke-width:0.03527778"
       id="path13798-5"
       inkscape:connector-curvature="0" />
    <path
       d="m 207.86229,185.94102 c 0,0 1.21674,8.07958 1.96776,13.27319 1.14942,-3.55168 1.28199,-12.47526 1.28199,-12.47526 0,0 -2.01149,-0.73102 -3.24975,-0.79793"
       style="fill:#b52d8b;fill-opacity:1;fill-rule:nonzero;stroke:none;stroke-width:0.03527778"
       id="path13800-9"
       inkscape:connector-curvature="0" />
    <path
       d="m 184.85307,147.28445 c -3.27057,6.11568 -7.11169,25.58962 10.11157,33.25661 17.12746,7.62251 29.0763,-3.11743 33.94536,-15.141 5.87411,-14.50892 -4.2881,-25.94296 -14.56072,-29.25691 -16.03704,-5.1741 -25.11924,2.95085 -29.49621,11.1413"
       style="fill:#fabd99;fill-opacity:1;fill-rule:nonzero;stroke:none;stroke-width:0.03527778"
       id="path13802-2"
       inkscape:connector-curvature="0" />
    <path
       d="m 190.58976,163.74691 c -0.32969,1.62039 -2.91035,2.42327 -5.23903,1.37158 -2.32105,-1.05237 -3.25322,-3.25819 -2.74653,-5.16294 0.45672,-1.73747 2.93116,-2.76477 5.00789,-0.52827 1.93792,2.08872 3.31569,2.6421 2.97767,4.31963"
       style="fill:#f8a191;fill-opacity:1;fill-rule:nonzero;stroke:none;stroke-width:0.03527778"
       id="path13804-2"
       inkscape:connector-curvature="0" />
    <path
       d="m 184.67815,159.95067 c -0.0506,0.21047 -0.31094,0.32688 -0.58165,0.26137 -0.27346,-0.0648 -0.45532,-0.28854 -0.40049,-0.49901 0.0508,-0.20839 0.31166,-0.32479 0.58235,-0.26066 0.26931,0.0661 0.44837,0.29062 0.39979,0.4983"
       style="fill:#fbccc0;fill-opacity:1;fill-rule:nonzero;stroke:none;stroke-width:0.03527778"
       id="path13806-8"
       inkscape:connector-curvature="0" />
    <path
       d="m 199.05216,161.64633 c -0.0508,0.21397 -0.34705,0.3206 -0.66842,0.24186 -0.32276,-0.0725 -0.54001,-0.30806 -0.48934,-0.51784 0.0521,-0.21049 0.34983,-0.3178 0.67051,-0.23836 0.31789,0.0739 0.53723,0.30736 0.48725,0.51434"
       style="fill:#fcd3bb;fill-opacity:1;fill-rule:nonzero;stroke:none;stroke-width:0.03527778"
       id="path13808-9"
       inkscape:connector-curvature="0" />
    <path
       d="m 217.35749,171.03484 c -0.5983,2.17236 -3.03526,3.21916 -5.92061,2.70692 -2.78263,-0.49345 -5.10089,-3.20872 -4.14236,-5.14343 0.90927,-1.83714 2.25581,-0.80986 5.70338,-1.24753 3.33373,-0.42374 4.96137,1.50888 4.35959,3.68404"
       style="fill:#f8a191;fill-opacity:1;fill-rule:nonzero;stroke:none;stroke-width:0.03527778"
       id="path13810-7"
       inkscape:connector-curvature="0" />
    <path
       d="m 215.6771,169.45486 c -0.0555,0.20003 -0.30749,0.299 -0.56291,0.22722 -0.25544,-0.0711 -0.41994,-0.28645 -0.36648,-0.48717 0.0555,-0.19518 0.30402,-0.29899 0.5629,-0.22999 0.25196,0.0731 0.41507,0.29062 0.36649,0.48994"
       style="fill:#fbccc0;fill-opacity:1;fill-rule:nonzero;stroke:none;stroke-width:0.03527778"
       id="path13812-3"
       inkscape:connector-curvature="0" />
    <path
       d="m 191.42406,147.40503 c 2.66602,-0.52271 2.96796,2.39887 1.24034,2.26018 -1.85044,-0.15192 -3.4545,0.39796 -3.67452,0.19578 -0.47685,-0.4335 0.93909,-2.16401 2.43418,-2.45602"
       style="fill:#d67418;fill-opacity:1;fill-rule:nonzero;stroke:none;stroke-width:0.03527778"
       id="path13814-6"
       inkscape:connector-curvature="0" />
    <path
       d="m 214.98925,155.46933 c -2.05521,-1.77579 -3.76131,0.60425 -2.19542,1.34581 1.68179,0.79103 2.80414,2.06572 3.09358,2.0016 0.63163,-0.14363 0.26028,-2.34938 -0.89816,-3.34741"
       style="fill:#d67418;fill-opacity:1;fill-rule:nonzero;stroke:none;stroke-width:0.03527778"
       id="path13816-1"
       inkscape:connector-curvature="0" />
    <path
       d="m 192.96773,165.29762 c 0,0 -2.32869,9.53624 4.36377,11.39151 6.69036,1.84904 7.12626,-7.84897 7.12626,-7.84897 0,0 -4.95791,0.65443 -11.49003,-3.54254"
       style="fill:#461b1c;fill-opacity:1;fill-rule:nonzero;stroke:none;stroke-width:0.03527778"
       id="path13818-2"
       inkscape:connector-curvature="0" />
    <path
       d="m 199.01328,168.16273 c -0.15268,2.417 0.1818,5.86825 2.68755,7.75071 2.41334,-2.35846 2.75693,-7.07328 2.75693,-7.07328 0,0 -2.21,0.2753 -5.44448,-0.67743"
       style="fill:#2c1616;fill-opacity:1;fill-rule:nonzero;stroke:none;stroke-width:0.03527778"
       id="path13820-9"
       inkscape:connector-curvature="0" />
    <path
       d="m 193.66043,173.83027 c 0.71492,1.28934 1.85739,2.35497 3.67107,2.85886 3.31014,0.9109 5.08631,-1.00013 6.0414,-3.16412 -0.19853,-0.46625 -1.22856,-1.08723 -2.37035,-0.69763 -0.93771,-2.00581 -5.36951,-1.09142 -7.34212,1.00289"
       style="fill:#ee5b63;fill-opacity:1;fill-rule:nonzero;stroke:none;stroke-width:0.03527778"
       id="path13822-3"
       inkscape:connector-curvature="0" />
    <path
       d="m 202.22348,173.18001 c -0.49352,-0.27388 -1.15915,-0.21742 -1.46871,-0.0725 -0.17551,-0.41746 -0.49557,-0.90672 -1.50966,-1.0454 -2.5154,-0.37706 -5.89425,1.93122 -2.7972,3.53697 3.12899,1.62303 7.60173,-1.40714 5.77557,-2.41908"
       style="fill:#f57880;fill-opacity:1;fill-rule:nonzero;stroke:none;stroke-width:0.03527778"
       id="path13824-1"
       inkscape:connector-curvature="0" />
    <path
       d="m 196.98653,172.81342 c 0.59275,-0.48577 1.9622,-0.68927 2.29675,-0.30386 0.40189,0.45929 -0.82598,1.0057 -1.59224,1.02729 -0.77878,0.0197 -1.08209,-0.41467 -0.70451,-0.72343"
       style="fill:#f8a1a9;fill-opacity:1;fill-rule:nonzero;stroke:none;stroke-width:0.03527778"
       id="path13826-9"
       inkscape:connector-curvature="0" />
    <path
       d="m 194.87092,166.40853 c -0.38244,0.97641 -0.30608,1.77512 0.98007,2.47276 1.19452,0.64537 2.98878,1.22521 4.26451,1.37785 1.53118,0.18195 2.362,-0.39725 2.40642,-1.45799 -2.59729,-0.34013 -4.65181,-0.85935 -7.651,-2.39262"
       style="fill:#ffffff;fill-opacity:1;fill-rule:nonzero;stroke:none;stroke-width:0.03527778"
       id="path13828-4"
       inkscape:connector-curvature="0" />
    <path
       d="m 198.0596,164.13232 c -0.0319,0.004 -0.0659,0.004 -0.0896,-0.0138 -0.82666,-0.51782 -1.18413,-1.33046 -0.9509,-2.18142 0.21448,-0.78686 0.88913,-1.38902 1.56865,-1.40853 0.42548,-0.008 1.2119,0.19577 1.68943,1.68311 0.0223,0.0676 -0.0157,0.13652 -0.0832,0.15746 -0.0728,0.0287 -0.13675,-0.0101 -0.1582,-0.0788 -0.3172,-0.98757 -0.82598,-1.52352 -1.43748,-1.50818 -0.58235,0.0119 -1.1508,0.53943 -1.33889,1.21895 -0.0944,0.35752 -0.20546,1.24961 0.84331,1.89917 0.0577,0.0405 0.0744,0.11498 0.0395,0.17563 -0.0201,0.0314 -0.0472,0.048 -0.0826,0.0565"
       style="fill:#ce6748;fill-opacity:1;fill-rule:nonzero;stroke:none;stroke-width:0.03527778"
       id="path13830-7"
       inkscape:connector-curvature="0" />
    <path
       d="m 195.73647,155.38152 c 0.19026,2.24067 -1.36737,4.20396 -3.47673,4.38377 -2.1038,0.17978 -3.96674,-1.49493 -4.15554,-3.73282 -0.19026,-2.24554 1.3653,-4.20743 3.47187,-4.38863 2.11003,-0.17484 3.97161,1.49353 4.1604,3.73768"
       style="fill:#eaa376;fill-opacity:1;fill-rule:nonzero;stroke:none;stroke-width:0.03527778"
       id="path13832-8"
       inkscape:connector-curvature="0" />
    <path
       d="m 193.49801,158.81536 c 1.17787,0.45928 1.30421,1.0935 0.28181,1.41339 -1.0231,0.31363 -2.80693,0.19578 -3.98064,-0.26761 -1.17787,-0.46278 -1.30559,-1.0963 -0.28319,-1.41411 1.02517,-0.31571 2.80484,-0.19518 3.98202,0.26833"
       style="fill:#eaa376;fill-opacity:1;fill-rule:nonzero;stroke:none;stroke-width:0.03527778"
       id="path13834-4"
       inkscape:connector-curvature="0" />
    <path
       d="m 195.31862,155.35574 c 0.18455,2.21627 -1.35002,4.15586 -3.433,4.33358 -2.08573,0.17701 -3.92717,-1.47474 -4.1118,-3.69309 -0.18809,-2.21767 1.35,-4.15586 3.43299,-4.33568 2.08368,-0.17484 3.9251,1.47821 4.11181,3.69519"
       style="fill:#ffffff;fill-opacity:1;fill-rule:nonzero;stroke:none;stroke-width:0.03527778"
       id="path13836-5"
       inkscape:connector-curvature="0" />
    <path
       d="m 194.81263,155.62754 c -0.0368,-0.43836 -0.15819,-0.84887 -0.33109,-1.22591 0.0639,0.22303 0.10269,0.45231 0.12709,0.68926 0.16311,1.94935 -1.18827,3.65477 -3.02138,3.81366 -1.09111,0.0921 -2.09408,-0.39306 -2.77429,-1.20431 0.62885,1.07887 1.77965,1.76258 3.04292,1.65594 1.79492,-0.15272 3.11578,-1.82319 2.95683,-3.72864"
       style="fill:#dcdbdb;fill-opacity:1;fill-rule:nonzero;stroke:none;stroke-width:0.03527778"
       id="path13838-0"
       inkscape:connector-curvature="0" />
    <path
       d="m 194.07272,156.80398 c -0.35816,1.14856 -1.52008,1.81205 -2.60285,1.47682 -1.08487,-0.3387 -1.67276,-1.54371 -1.32226,-2.69297 0.35469,-1.15345 1.51939,-1.81066 2.60425,-1.47823 1.08072,0.33802 1.67415,1.54303 1.32086,2.69438"
       style="fill:#92c9d7;fill-opacity:1;fill-rule:nonzero;stroke:none;stroke-width:0.03527778"
       id="path13840-3"
       inkscape:connector-curvature="0" />
    <path
       d="m 193.24259,156.63742 c -0.20961,0.68788 -0.90649,1.08443 -1.55756,0.8865 -0.64341,-0.20419 -0.99672,-0.92276 -0.7871,-1.61341 0.21101,-0.6872 0.90927,-1.08375 1.55685,-0.88373 0.6483,0.20073 1.00159,0.92205 0.78781,1.61064"
       style="fill:#231f20;fill-opacity:1;fill-rule:nonzero;stroke:none;stroke-width:0.03527778"
       id="path13842-6"
       inkscape:connector-curvature="0" />
    <path
       d="m 192.1348,155.49026 c -0.086,0.29341 -0.38244,0.45857 -0.65661,0.37564 -0.27069,-0.085 -0.42407,-0.39028 -0.33385,-0.68022 0.0896,-0.29202 0.38313,-0.46138 0.65868,-0.37774 0.2728,0.0871 0.42342,0.391 0.33178,0.68232"
       style="fill:#ffffff;fill-opacity:1;fill-rule:nonzero;stroke:none;stroke-width:0.03527778"
       id="path13844-1"
       inkscape:connector-curvature="0" />
    <path
       d="m 192.99341,157.41659 c -0.0541,0.17978 -0.23323,0.27948 -0.3998,0.22652 -0.16527,-0.051 -0.25473,-0.23487 -0.20198,-0.4119 0.0555,-0.17621 0.2346,-0.28017 0.39911,-0.2258 0.16389,0.0493 0.2575,0.23626 0.20267,0.41118"
       style="fill:#ffffff;fill-opacity:1;fill-rule:nonzero;stroke:none;stroke-width:0.03527778"
       id="path13846-0"
       inkscape:connector-curvature="0" />
    <path
       d="m 214.76089,161.27486 c 0.20338,2.39818 -1.46176,4.49947 -3.71826,4.69043 -2.24956,0.19302 -4.24368,-1.60018 -4.44498,-3.99627 -0.20684,-2.39958 1.45968,-4.49528 3.7127,-4.69181 2.25791,-0.18669 4.24856,1.59878 4.45054,3.99765"
       style="fill:#eaa376;fill-opacity:1;fill-rule:nonzero;stroke:none;stroke-width:0.03527778"
       id="path13848-6"
       inkscape:connector-curvature="0" />
    <path
       d="m 212.36558,164.94915 c 1.26115,0.49413 1.39582,1.17085 0.30192,1.51235 -1.09388,0.33523 -3.00196,0.20978 -4.25826,-0.28644 -1.26047,-0.49483 -1.39582,-1.17156 -0.30195,-1.51166 1.096,-0.34012 2.9999,-0.20909 4.25829,0.28575"
       style="fill:#eaa376;fill-opacity:1;fill-rule:nonzero;stroke:none;stroke-width:0.03527778"
       id="path13850-3"
       inkscape:connector-curvature="0" />
    <path
       d="m 214.31389,161.24699 c 0.19852,2.37099 -1.44441,4.44926 -3.67314,4.63744 -2.23012,0.18966 -4.20344,-1.57717 -4.39848,-3.94886 -0.20198,-2.37308 1.4451,-4.44788 3.67384,-4.63956 2.22873,-0.18668 4.19927,1.57998 4.39778,3.95098"
       style="fill:#ffffff;fill-opacity:1;fill-rule:nonzero;stroke:none;stroke-width:0.03527778"
       id="path13852-2"
       inkscape:connector-curvature="0" />
    <path
       d="m 213.77388,161.53899 c -0.041,-0.46973 -0.17137,-0.90809 -0.35536,-1.31162 0.0659,0.23904 0.11392,0.48437 0.13674,0.73736 0.17412,2.08454 -1.27158,3.91122 -3.23447,4.07989 -1.16677,0.0976 -2.23777,-0.42095 -2.96727,-1.28864 0.67189,1.15482 1.90668,1.88592 3.25669,1.77302 1.91917,-0.16377 3.33304,-1.95144 3.16367,-3.99001"
       style="fill:#dcdbdb;fill-opacity:1;fill-rule:nonzero;stroke:none;stroke-width:0.03527778"
       id="path13854-0"
       inkscape:connector-curvature="0" />
    <path
       d="m 212.98192,162.79629 c -0.38313,1.23149 -1.62626,1.94098 -2.78332,1.57857 -1.1626,-0.35962 -1.79352,-1.64895 -1.41593,-2.87698 0.37967,-1.23428 1.62555,-1.93959 2.78538,-1.58135 1.15637,0.35962 1.79217,1.64827 1.41387,2.87976"
       style="fill:#92c9d7;fill-opacity:1;fill-rule:nonzero;stroke:none;stroke-width:0.03527778"
       id="path13856-6"
       inkscape:connector-curvature="0" />
    <path
       d="m 212.09488,162.61857 c -0.22628,0.73666 -0.97103,1.15971 -1.66931,0.94854 -0.68783,-0.21745 -1.06542,-0.98757 -0.83915,-1.72563 0.22628,-0.73458 0.97244,-1.15902 1.66374,-0.94713 0.69479,0.21605 1.07169,0.98755 0.84472,1.72422"
       style="fill:#231f20;fill-opacity:1;fill-rule:nonzero;stroke:none;stroke-width:0.03527778"
       id="path13858-1"
       inkscape:connector-curvature="0" />
    <path
       d="m 210.90797,161.39265 c -0.0931,0.31223 -0.40881,0.49274 -0.70242,0.40143 -0.28944,-0.092 -0.45324,-0.41817 -0.35814,-0.72969 0.0958,-0.31154 0.4102,-0.49065 0.70588,-0.40354 0.29152,0.0934 0.45254,0.42096 0.35468,0.7318"
       style="fill:#ffffff;fill-opacity:1;fill-rule:nonzero;stroke:none;stroke-width:0.03527778"
       id="path13860-5"
       inkscape:connector-curvature="0" />
    <path
       d="m 211.82765,163.45352 c -0.059,0.19163 -0.24917,0.29619 -0.42965,0.24321 -0.17491,-0.0579 -0.27278,-0.25368 -0.21516,-0.44256 0.0596,-0.18748 0.24987,-0.29897 0.42686,-0.24254 0.17708,0.0565 0.27626,0.25371 0.21795,0.44189"
       style="fill:#ffffff;fill-opacity:1;fill-rule:nonzero;stroke:none;stroke-width:0.03527778"
       id="path13862-5"
       inkscape:connector-curvature="0" />
    <path
       d="m 206.57683,135.25385 c 0,0 -3.05678,5.90588 -3.84737,11.79783 1.93098,0.98826 3.72175,1.35556 3.72175,1.35556 l 4.76496,-9.41918 c 0,0 -3.19493,7.24472 -3.10124,9.75789 3.05472,1.6887 12.57838,3.62757 16.01206,4.4458 -1.02171,4.06385 -1.21535,9.95998 -0.18179,16.70011 1.27712,0.61539 4.72331,1.67336 4.72331,1.67336 0,0 12.46177,-10.28198 11.93427,-24.81113 -0.34151,-9.52859 -14.54822,-15.95927 -14.54822,-15.95927 0,0 5.63049,0.79171 5.08422,-1.45869 -0.54137,-2.24486 -6.67371,0.42165 -6.67371,0.42165 0,0 2.20446,-2.99267 0.44422,-4.18027 -2.51747,-1.70402 -2.17042,3.83179 -2.17042,3.83179 0,0 -9.4036,-4.52803 -20.29115,-4.01579 -9.89153,0.46486 -17.45924,3.31187 -18.41918,23.89047 1.93582,-2.33754 4.45469,-7.28721 4.45469,-7.28721 0,0 5.30704,2.48528 9.73884,3.62618 2.75624,-7.03634 8.35482,-10.3691 8.35482,-10.3691"
       style="fill:#ef9b11;fill-opacity:1;fill-rule:nonzero;stroke:none;stroke-width:0.03527778"
       id="path13864-4"
       inkscape:connector-curvature="0" />
    <path
       d="m 239.08472,148.99963 c -0.86761,8.2497 -2.11905,10.48618 -11.05483,22.43526 -2.16419,0.15192 -4.18468,-6.3157 -2.033,-17.62637 2.01912,11.09533 7.68917,9.40036 13.08783,-4.80889"
       style="fill:#d67418;fill-opacity:1;fill-rule:nonzero;stroke:none;stroke-width:0.03527778"
       id="path13866-7"
       inkscape:connector-curvature="0" />
    <path
       d="m 201.31352,125.46391 c 6.95759,5.96583 23.42011,8.93619 30.48045,8.69993 3.98618,2.80379 8.61579,7.20149 8.80874,12.59025 0.0528,1.43988 -0.0256,2.83097 -0.20198,4.17816 -21.17127,-17.68769 -44.0944,-17.88212 -52.87124,-17.00955 3.01931,-6.2481 7.89393,-8.02041 13.78403,-8.45879"
       style="fill:#efb82e;fill-opacity:1;fill-rule:nonzero;stroke:none;stroke-width:0.03527778"
       id="path13868-6"
       inkscape:connector-curvature="0" />
    <path
       d="m 224.43518,167.8303 c 0,0 2.01286,-2.45812 5.01552,-1.09629 3.16299,1.4329 1.76092,6.22508 -1.49578,7.91239 -3.25669,1.68102 -6.80004,0.0962 -6.48561,-2.62609 l 2.96587,-4.19001"
       style="fill:#fabd99;fill-opacity:1;fill-rule:nonzero;stroke:none;stroke-width:0.03527778"
       id="path13870-5"
       inkscape:connector-curvature="0" />
    <path
       d="m 228.98982,166.81904 c -0.76558,-0.3429 -1.45411,-0.42027 -2.06424,-0.36102 0.47893,-0.0306 0.97728,0.0433 1.48051,0.2976 2.90754,1.46497 1.37571,4.97337 -0.69618,6.43346 -2.80065,1.96606 -5.65616,0.77292 -6.19825,-1.45452 -0.29361,2.53199 3.03039,4.0116 6.08094,2.45046 3.05264,-1.56674 4.36933,-6.02924 1.39722,-7.36598"
       style="fill:#eaa376;fill-opacity:1;fill-rule:nonzero;stroke:none;stroke-width:0.03527778"
       id="path13872-6"
       inkscape:connector-curvature="0" />
    <path
       d="m 229.28065,168.25405 c -1.66305,-1.56534 -5.64507,1.41129 -4.32767,5.03609 0.62954,-3.44359 2.22109,-3.77882 2.76736,-1.61968 0.54763,-0.91231 0.42408,-1.77373 -0.78504,-2.37519 0.83569,-1.14159 2.34535,-1.04122 2.34535,-1.04122"
       style="fill:#d48a5b;fill-opacity:1;fill-rule:nonzero;stroke:none;stroke-width:0.03527778"
       id="path13874-9"
       inkscape:connector-curvature="0" />
    <path
       d="m 192.18478,132.86124 c -0.01,-0.89627 0.2228,-2.56334 0.47962,-2.52501 0.38939,0.0642 1.22021,4.56845 0.16724,4.68345 -0.47407,0.0537 -0.63856,-0.96527 -0.6469,-2.15844 z m 1.80118,2.47207 c 0.89677,-2.82402 -0.70937,-6.66974 -1.53741,-6.74988 -0.68161,0.24393 -1.45136,3.89241 -0.83917,6.46832 0.34565,1.46079 1.74217,2.28596 2.37658,0.28156"
       style="fill:#305eb2;fill-opacity:1;fill-rule:nonzero;stroke:none;stroke-width:0.03527778"
       id="path13876-3"
       inkscape:connector-curvature="0" />
    <path
       d="m 231.50105,145.7275 c 0.84541,-0.54571 2.57441,-1.31234 2.70072,-1.03009 0.19026,0.4321 -3.55376,3.97606 -4.34017,2.97455 -0.3526,-0.45161 0.51432,-1.22451 1.63945,-1.94446 z m -1.198,3.30699 c 3.24767,-0.78339 5.87689,-4.72041 5.42781,-5.60621 -0.66702,-0.5471 -4.62196,0.85863 -6.67787,3.02473 -1.16469,1.22941 -1.05988,3.13903 1.25006,2.58148"
       style="fill:#305eb2;fill-opacity:1;fill-rule:nonzero;stroke:none;stroke-width:0.03527778"
       id="path13878-7"
       inkscape:connector-curvature="0" />
  </g>
</svg>
