<svg id="Layer_2" data-name="Layer 2" xmlns="http://www.w3.org/2000/svg" viewBox="0 0 1000 1000"><defs><style>.cls-1{fill:#bf6c58;}.cls-1,.cls-2{stroke:#a35141;}.cls-1,.cls-10,.cls-12,.cls-14,.cls-15,.cls-16,.cls-2,.cls-3,.cls-4,.cls-5,.cls-6,.cls-7,.cls-8{stroke-miterlimit:10;}.cls-1,.cls-12,.cls-14,.cls-15,.cls-16,.cls-2,.cls-3,.cls-4,.cls-5,.cls-6,.cls-7{stroke-width:3px;}.cls-2{fill:#c57160;}.cls-3{fill:#c5725e;stroke:#b25f4f;}.cls-4{fill:#d98760;stroke:#c6714f;}.cls-5{fill:#ebebeb;stroke:#b7b7b7;}.cls-6{fill:#366da4;stroke:#255f8e;}.cls-7{fill:#fcfffa;}.cls-7,.cls-8{stroke:#b2b2b2;}.cls-8{fill:#4689ac;stroke-width:2px;}.cls-9{fill:#649fbd;}.cls-10{fill:#c6e2ee;stroke:#9acadb;}.cls-11{fill:#daecf2;}.cls-12{fill:#999;stroke:#666;}.cls-13{fill:#f9fff9;}.cls-14{fill:#56606c;stroke:#404b56;}.cls-15{fill:#356bb2;stroke:#2a619e;}.cls-16{fill:#ea1a3a;stroke:#ce0f34;}</style></defs><title>police station</title><polygon class="cls-1" points="30.57 749.86 20.81 500.18 409.56 502.4 408.14 752.01 30.57 749.86"/><polygon class="cls-2" points="14.5 498.49 14.5 513.17 410.95 510.38 410.95 498.49 14.5 498.49"/><polygon class="cls-3" points="975.21 741.81 980.8 417.38 718.6 417.38 718.6 741.81 975.21 741.81"/><rect class="cls-4" x="713.71" y="406.19" width="271.99" height="19.58"/><rect class="cls-4" x="713.71" y="685.88" width="267.1" height="41.25"/><polygon class="cls-5" points="398.99 750.9 399.06 315.3 743.07 315.3 743.07 750.9 398.99 750.9"/><polygon class="cls-6" points="447.31 582.39 447.31 750.9 468.21 750.9 468.29 582.39 447.31 582.39"/><polygon class="cls-6" points="674.55 582.39 674.55 750.9 695.45 750.9 695.53 582.39 674.55 582.39"/><polygon class="cls-7" points="749.37 530.65 750.76 615.96 797.61 615.96 801.11 530.65 749.37 530.65"/><polygon class="cls-8" points="754.26 535.55 754.96 611.06 792.02 611.06 796.21 535.55 754.26 535.55"/><path class="cls-6" d="M392.77,543.24c2.8,1.4,358.69,3.49,358.69,3.49v38.46H392.77Z"/><rect class="cls-6" x="396.27" y="312.5" width="349.6" height="11.89"/><rect class="cls-7" x="92.81" y="522.96" width="256.61" height="38.46"/><rect class="cls-8" x="97.71" y="526.46" width="247.52" height="30.07"/><polygon class="cls-9" points="243.84 527.16 219.37 555.82 180.21 555.82 207.48 527.16 243.84 527.16"/><polygon class="cls-9" points="192.1 527.16 167.63 555.82 128.47 555.82 155.74 527.16 192.1 527.16"/><rect class="cls-7" x="426.68" y="456.54" width="299.26" height="66.42"/><rect class="cls-8" x="432.81" y="460.73" width="286.13" height="58.03"/><rect class="cls-7" x="426.68" y="357.25" width="299.26" height="66.42"/><rect class="cls-8" x="432.81" y="361.44" width="286.13" height="58.03"/><rect class="cls-7" x="751.81" y="456.19" width="203.51" height="41.6"/><rect class="cls-8" x="755.98" y="458.81" width="194.59" height="36.35"/><rect class="cls-6" x="507.64" y="611.46" width="136.49" height="130.56"/><polygon class="cls-10" points="512.31 616.13 512.31 739.48 573.39 739.48 573.35 616.13 512.31 616.13"/><polygon class="cls-10" points="578.43 616.13 578.43 739.48 639.52 739.48 639.47 616.13 578.43 616.13"/><polygon class="cls-11" points="578.86 620.37 578.86 633.08 639.05 673.77 639.05 658.94 578.86 620.37"/><polygon class="cls-11" points="578.86 650.04 639.05 684.8 639.05 697.09 578.86 664.45 578.86 650.04"/><polygon class="cls-11" points="512.73 618.25 512.73 630.11 572.92 669.96 572.92 656.82 512.73 618.25"/><polygon class="cls-11" points="512.73 641.98 512.73 652.16 572.92 688.19 572.92 677.17 512.73 641.98"/><rect class="cls-12" x="567.41" y="672.5" width="1.27" height="15.68"/><rect class="cls-12" x="582.25" y="672.5" width="1.27" height="15.68"/><polygon class="cls-7" points="899 530.65 900.39 615.96 947.24 615.96 950.74 530.65 899 530.65"/><polygon class="cls-8" points="903.89 535.54 904.59 611.06 941.64 611.06 945.85 535.55 903.89 535.54"/><polygon class="cls-7" points="821.38 530.65 822.78 615.96 869.63 615.96 873.13 530.65 821.38 530.65"/><polygon class="cls-8" points="826.28 535.55 826.98 611.06 864.04 611.06 868.23 535.55 826.28 535.55"/><path class="cls-13" d="M483.67,550.23H465.49V579.6h7.69v-9.09h10.49s6.29-1.4,7-7.69S489.26,551.63,483.67,550.23Zm-2.8,14h-7.69v-8.39h7.69C486.46,560,480.87,564.21,480.87,564.21Z"/><path class="cls-13" d="M520.68,549c-9.62,0-17.42,6.84-17.42,15.28s7.8,15.29,17.42,15.29,17.42-6.85,17.42-15.29S530.3,549,520.68,549ZM521,574.7c-6.39,0-11.58-4.69-11.58-10.49s5.19-10.48,11.58-10.48,11.59,4.69,11.59,10.48S527.35,574.7,521,574.7Z"/><polygon class="cls-13" points="552.89 549.53 552.89 579.6 573.87 579.6 573.87 573.3 560.58 573.3 560.58 549.53 552.89 549.53"/><rect class="cls-13" x="586.45" y="549.53" width="6.99" height="30.07"/><path class="cls-13" d="M634.7,569.81l7,3.49s-8.39,7-13.29,7-15.38-1.4-18.88-8.39-.69-16.79,5.6-19.58,11.88-3.5,16.78-2.1,9.09,6.29,9.09,6.29l-6.29,2.8s-9.79-7.69-15.39-2.1-6.29,11.89-1.39,14.69S629.1,576.1,634.7,569.81Z"/><polygon class="cls-13" points="654.27 550.23 654.27 578.9 675.95 578.9 675.95 574 661.97 574 661.97 567.71 674.55 567.71 674.55 562.12 661.97 562.12 661.97 555.82 675.95 555.82 675.95 550.23 654.27 550.23"/><rect class="cls-14" x="49.46" y="594.28" width="151.73" height="146.83"/><path class="cls-15" d="M101.9,573.3h18.88V588H101.9S90.71,582.39,101.9,573.3Z"/><path class="cls-16" d="M124.28,573.3h20.27s9.79,6.3,0,14.69H124.28Z"/><polygon class="cls-7" points="115.19 572.61 117.28 588.69 127.77 588.69 130.57 572.61 115.19 572.61"/><line class="cls-14" x1="49.46" y1="608.07" x2="201.19" y2="608.07"/><line class="cls-14" x1="49.81" y1="622.95" x2="201.54" y2="622.95"/><line class="cls-14" x1="49.81" y1="637.63" x2="201.54" y2="637.63"/><line class="cls-14" x1="49.46" y1="652.12" x2="201.19" y2="652.12"/><line class="cls-14" x1="49.81" y1="667" x2="201.54" y2="667"/><line class="cls-14" x1="49.81" y1="681.68" x2="201.54" y2="681.68"/><line class="cls-14" x1="49.46" y1="696.17" x2="201.19" y2="696.17"/><line class="cls-14" x1="49.81" y1="711.05" x2="201.54" y2="711.05"/><line class="cls-14" x1="49.81" y1="725.73" x2="201.54" y2="725.73"/><path class="cls-15" d="M287.89,570.51h18.88v14.68H287.89S276.7,579.6,287.89,570.51Z"/><path class="cls-16" d="M310.26,570.51h20.28s9.79,6.29,0,14.68H310.26Z"/><polygon class="cls-7" points="301.18 569.81 303.27 585.89 313.76 585.89 316.56 569.81 301.18 569.81"/><rect class="cls-14" x="232.65" y="594.28" width="151.73" height="146.83"/><line class="cls-14" x1="232.65" y1="608.07" x2="384.38" y2="608.07"/><line class="cls-14" x1="233" y1="622.95" x2="384.73" y2="622.95"/><line class="cls-14" x1="233" y1="637.63" x2="384.73" y2="637.63"/><line class="cls-14" x1="232.65" y1="652.12" x2="384.38" y2="652.12"/><line class="cls-14" x1="233" y1="667" x2="384.73" y2="667"/><line class="cls-14" x1="233" y1="681.68" x2="384.73" y2="681.68"/><line class="cls-14" x1="232.65" y1="696.17" x2="384.38" y2="696.17"/><line class="cls-14" x1="233" y1="711.05" x2="384.73" y2="711.05"/><line class="cls-14" x1="233" y1="725.73" x2="384.73" y2="725.73"/><rect class="cls-3" x="27.09" y="743.21" width="958.61" height="9.79"/><polygon class="cls-5" points="755.76 742.02 755.76 753 388.86 753 388.86 741.81 755.76 742.02"/><polygon class="cls-9" points="500.79 462.14 572.13 516.62 529.78 516.66 462.67 462.18 500.79 462.14"/><polygon class="cls-9" points="538.21 462.13 594.84 516.67 630.5 516.67 568.97 462.13 538.21 462.13"/><polygon class="cls-9" points="546.6 417.38 512.34 417.38 456.4 362.84 496.25 362.84 546.6 417.38"/><polygon class="cls-9" points="478.07 417.38 434.72 417.38 434.72 395.01 478.07 417.38"/><polygon class="cls-9" points="792.72 460.73 824.88 493.59 837.47 493.59 803.21 460.73 792.72 460.73"/><polygon class="cls-9" points="886.41 460.73 922.07 493.59 934.66 493.59 899 460.73 886.41 460.73"/><polygon class="cls-9" points="755.66 541.14 792.72 585.19 792.72 595.82 755.66 555.82 755.66 541.14"/><polygon class="cls-9" points="905.64 574 940.95 609.66 932.56 609.66 905.76 587.77 905.64 574"/><polygon class="cls-9" points="864.04 595.68 827.68 567.01 827.68 575.4 864.04 602.67 864.04 595.68"/><polygon class="cls-9" points="792.48 602.67 754.53 564.91 754.63 575.85 791.32 608.96 792.48 602.67"/></svg>