<svg id="Layer_2" data-name="Layer 2" xmlns="http://www.w3.org/2000/svg" viewBox="0 0 1000 1000"><defs><style>.cls-1{fill:#d8d1c5;stroke:#bab3a8;}.cls-1,.cls-2,.cls-3,.cls-4,.cls-7,.cls-9{stroke-miterlimit:10;stroke-width:3px;}.cls-2{fill:#df1a26;}.cls-2,.cls-7{stroke:#c41627;}.cls-3,.cls-6{fill:#fff;}.cls-3{stroke:#bab6a8;}.cls-4{fill:#c6e2ee;stroke:#9acadb;}.cls-5{fill:#77716c;}.cls-7{fill:none;}.cls-8{fill:#ba132b;}.cls-9{fill:#898989;stroke:#666665;}.cls-10{fill:#666665;}.cls-11{fill:#daecf2;}</style></defs><title>fire station</title><polygon class="cls-1" points="107.41 506.14 107.41 369.85 347.12 369.85 347.12 250.39 497.85 130.13 653.38 253.6 653.38 373.05 899.5 376.26 897.9 506.14 107.41 506.14"/><polygon class="cls-2" points="347.12 335.2 122.24 334.97 86.97 385.48 347.52 385.48 347.12 335.2"/><polygon class="cls-2" points="653.38 334.97 653.38 385.48 910.33 385.48 876.66 334.97 653.38 334.97"/><polygon class="cls-2" points="325.88 251.59 339.51 267.63 497.44 140.16 657.79 267.63 673.02 249.99 497.44 114.5 325.88 251.59"/><rect class="cls-3" x="129.46" y="414.34" width="88.19" height="61.73"/><rect class="cls-4" x="135.07" y="421.56" width="36.08" height="48.9"/><rect class="cls-4" x="176.76" y="421.56" width="36.08" height="48.9"/><circle class="cls-5" cx="499.57" cy="238.84" r="46.59"/><circle class="cls-6" cx="499.12" cy="239.15" r="42.51"/><polyline class="cls-7" points="501.45 206.7 501.45 242.78 475 242.78"/><rect class="cls-1" x="64.52" y="516.16" width="873.87" height="367.19"/><rect class="cls-2" x="56.5" y="494.51" width="887.5" height="32.87"/><polygon class="cls-3" points="89.37 555.44 89.37 609.16 322.67 607.56 322.67 555.44 89.37 555.44"/><rect class="cls-4" x="94.98" y="564.26" width="94.6" height="35.28"/><rect class="cls-4" x="221.65" y="564.26" width="95.4" height="35.28"/><polygon class="cls-2" points="241.7 644.43 241.7 883.35 445.52 883.35 445.33 644.43 241.7 644.43"/><rect class="cls-4" x="263.34" y="674.9" width="161.14" height="57.72"/><rect class="cls-8" x="277.77" y="759.08" width="131.48" height="7.22"/><rect class="cls-8" x="277.77" y="771.91" width="131.48" height="7.22"/><rect class="cls-8" x="277.77" y="784.73" width="131.48" height="7.22"/><rect class="cls-8" x="277.77" y="797.56" width="131.48" height="7.22"/><rect class="cls-8" x="277.77" y="810.39" width="131.48" height="7.22"/><rect class="cls-8" x="277.77" y="823.22" width="131.48" height="7.22"/><rect class="cls-8" x="277.77" y="836.04" width="131.48" height="7.22"/><rect class="cls-8" x="277.77" y="848.87" width="131.48" height="7.22"/><polygon class="cls-2" points="479.81 644.43 479.81 883.35 683.63 883.35 683.44 644.43 479.81 644.43"/><rect class="cls-4" x="501.45" y="674.9" width="161.14" height="57.72"/><rect class="cls-8" x="515.88" y="759.08" width="131.48" height="7.22"/><rect class="cls-8" x="515.88" y="771.91" width="131.48" height="7.22"/><rect class="cls-8" x="515.88" y="784.73" width="131.48" height="7.22"/><rect class="cls-8" x="515.88" y="797.56" width="131.48" height="7.22"/><rect class="cls-8" x="515.88" y="810.39" width="131.48" height="7.22"/><rect class="cls-8" x="515.88" y="823.22" width="131.48" height="7.22"/><rect class="cls-8" x="515.88" y="836.04" width="131.48" height="7.22"/><rect class="cls-8" x="515.88" y="848.87" width="131.48" height="7.22"/><polygon class="cls-2" points="721.92 644.43 721.92 883.35 925.75 883.35 925.56 644.43 721.92 644.43"/><rect class="cls-4" x="743.57" y="674.9" width="161.14" height="57.72"/><rect class="cls-8" x="758" y="759.08" width="131.48" height="7.22"/><rect class="cls-8" x="758" y="771.91" width="131.48" height="7.22"/><rect class="cls-8" x="758" y="784.73" width="131.48" height="7.22"/><rect class="cls-8" x="758" y="797.56" width="131.48" height="7.22"/><rect class="cls-8" x="758" y="810.39" width="131.48" height="7.22"/><rect class="cls-8" x="758" y="823.22" width="131.48" height="7.22"/><rect class="cls-8" x="758" y="836.04" width="131.48" height="7.22"/><rect class="cls-8" x="758" y="848.87" width="131.48" height="7.22"/><polygon class="cls-9" points="111.82 824.02 111.82 678.11 181.57 679.71 181.57 827.23 111.82 827.23 111.82 824.02"/><rect class="cls-4" x="119.84" y="694.14" width="52.91" height="50.51"/><rect class="cls-10" x="115.83" y="748.66" width="14.43" height="4.01"/><rect class="cls-1" x="135.07" y="779.12" width="21.65" height="105.02" transform="translate(-687.61 966.45) rotate(-89.24)"/><polygon class="cls-1" points="85.36 859.29 85.36 839.25 208.02 839.25 208.02 860.1 85.36 859.29"/><polygon class="cls-1" points="80.55 874.53 80.55 852.88 212.03 852.88 212.03 873.73 80.55 874.53"/><rect class="cls-1" x="75.74" y="869.72" width="141.9" height="15.23"/><polygon class="cls-2" points="98.19 640.43 87.77 682.12 87.77 689.33 204.82 689.33 204.82 680.51 195.2 640.43 98.19 640.43"/><path d="M361.28,600h-6.37V565.66h21.73V571H361.28v9.39h12.08v5.16H361.28Z"/><path d="M387.29,600h-6.2V565.66h6.2Z"/><path d="M421.64,600h-6.55l-5.34-14.13H401V600h-6.2V565.66h14.91c4.15,0,7.19.93,9.14,2.8a9.64,9.64,0,0,1,2.92,7.27,9.08,9.08,0,0,1-6.19,9.11ZM401,580.94h7.7a7.49,7.49,0,0,0,5-1.41,4.85,4.85,0,0,0,1.64-3.88,4.6,4.6,0,0,0-1.62-3.66,6.64,6.64,0,0,0-4.5-1.4H401Z"/><path d="M450.32,600H428V565.66h22.11v5.11H434.17v9.31H447v5h-12.8v9.62h16.15Z"/><path d="M465,591.74l6-1.28q1.08,5.12,8.31,5.11a8.49,8.49,0,0,0,5.08-1.31,3.92,3.92,0,0,0,1.77-3.25,4.58,4.58,0,0,0-.8-2.6,5.78,5.78,0,0,0-3.45-1.88l-6.57-1.71a16.31,16.31,0,0,1-5-2,7.76,7.76,0,0,1-2.58-3.16,10,10,0,0,1-1-4.36,9,9,0,0,1,3.42-7.39,13.45,13.45,0,0,1,8.77-2.78,16,16,0,0,1,7.92,1.94,8.74,8.74,0,0,1,4.44,5.49L485.42,574c-.91-2.61-3-3.91-6.35-3.91a7,7,0,0,0-4.42,1.21,3.77,3.77,0,0,0-1.52,3.07c0,2,1.59,3.34,4.78,4.13l5.85,1.46c3.54.89,5.91,2.21,7.12,3.94a9.86,9.86,0,0,1,1.81,5.76,9.49,9.49,0,0,1-3.81,8,15.84,15.84,0,0,1-9.88,2.91,18.19,18.19,0,0,1-9-2.14A10.48,10.48,0,0,1,465,591.74Z"/><path d="M510,600h-6.65V571h-9.14v-5.31h24.93V571H510Z"/><path d="M547.23,600h-6.62l-2.74-8.19H524.65L522,600h-5.28l11.4-34.37h7.63Zm-11-13.15-5-15.33-5,15.33Z"/><path d="M560.58,600h-6.65V571h-9.14v-5.31h24.93V571h-9.14Z"/><path d="M579.69,600H573.5V565.66h6.19Z"/><path d="M599.91,600.56a12.52,12.52,0,0,1-10.66-5.14,20.67,20.67,0,0,1-3.82-12.69,19.36,19.36,0,0,1,4.06-12.55,13,13,0,0,1,10.7-5,12.66,12.66,0,0,1,10.59,5,20.07,20.07,0,0,1,3.89,12.62q0,8-4,12.86A13.23,13.23,0,0,1,599.91,600.56Zm.05-5a7.13,7.13,0,0,0,5.67-2.77c1.54-1.85,2.31-5.19,2.31-10,0-3.94-.63-7-1.91-9.28a6.38,6.38,0,0,0-5.94-3.36q-8,0-8,12.82,0,6.23,2,9.43A6.46,6.46,0,0,0,600,595.57Z"/><path d="M646.39,600h-6l-13-22-1-1.64-.93-1.58V600h-5V565.66h6.85l12,20.24,2.19,3.7V565.66h4.88Z"/><polygon class="cls-11" points="136.27 425.17 169.14 465.25 169.14 451.62 145.89 422.76 136.27 422.76 136.27 425.17"/><polygon class="cls-11" points="136.27 435.59 162.73 469.26 154.71 469.26 136.27 446.01 136.27 435.59"/><polygon class="cls-11" points="177.96 456.43 187.58 469.26 177.96 469.26 177.96 456.43"/><polygon class="cls-11" points="177.96 433.18 211.63 469.26 211.63 454.03 177.96 422.76 177.96 433.18"/><rect class="cls-3" x="259.33" y="414.34" width="88.19" height="61.73"/><rect class="cls-4" x="264.95" y="421.56" width="36.08" height="48.9"/><rect class="cls-4" x="306.64" y="421.56" width="36.08" height="48.9"/><polygon class="cls-11" points="266.15 425.17 299.02 465.25 299.02 451.62 275.77 422.76 266.15 422.76 266.15 425.17"/><polygon class="cls-11" points="266.15 435.59 292.61 469.26 284.59 469.26 266.15 446.01 266.15 435.59"/><polygon class="cls-11" points="307.84 433.18 341.51 469.26 341.51 454.03 307.84 422.76 307.84 433.18"/><rect class="cls-3" x="390.82" y="414.34" width="88.19" height="61.73"/><rect class="cls-4" x="396.43" y="421.56" width="36.08" height="48.9"/><rect class="cls-4" x="438.12" y="421.56" width="36.08" height="48.9"/><polygon class="cls-11" points="397.63 425.17 430.5 465.25 430.5 451.62 407.25 422.76 397.63 422.76 397.63 425.17"/><polygon class="cls-11" points="397.63 435.59 424.09 469.26 416.07 469.26 397.63 446.01 397.63 435.59"/><polygon class="cls-11" points="439.32 433.18 472.99 469.26 472.99 454.03 439.32 422.76 439.32 433.18"/><rect class="cls-3" x="523.1" y="415.14" width="88.19" height="61.73"/><rect class="cls-4" x="528.71" y="422.36" width="36.08" height="48.9"/><rect class="cls-4" x="570.4" y="422.36" width="36.08" height="48.9"/><polygon class="cls-11" points="529.91 425.97 562.78 466.05 562.78 452.42 539.53 423.56 529.91 423.56 529.91 425.97"/><polygon class="cls-11" points="529.91 436.39 556.37 470.06 548.35 470.06 529.91 446.81 529.91 436.39"/><polygon class="cls-11" points="571.6 433.98 605.27 470.06 605.27 454.83 571.6 423.56 571.6 433.98"/><rect class="cls-3" x="389.21" y="307.71" width="88.19" height="61.73"/><rect class="cls-4" x="394.82" y="314.93" width="36.08" height="48.9"/><rect class="cls-4" x="436.51" y="314.93" width="36.08" height="48.9"/><polygon class="cls-11" points="396.03 318.54 428.9 358.62 428.9 344.99 405.65 316.13 396.03 316.13 396.03 318.54"/><polygon class="cls-11" points="396.03 328.96 422.48 362.63 414.47 362.63 396.03 339.38 396.03 328.96"/><polygon class="cls-11" points="437.72 326.55 471.39 362.63 471.39 347.4 437.72 316.13 437.72 326.55"/><rect class="cls-3" x="521.5" y="308.52" width="88.19" height="61.73"/><rect class="cls-4" x="527.11" y="315.73" width="36.08" height="48.9"/><rect class="cls-4" x="568.8" y="315.73" width="36.08" height="48.9"/><polygon class="cls-11" points="528.31 319.34 561.18 359.42 561.18 345.8 537.93 316.93 528.31 316.93 528.31 319.34"/><polygon class="cls-11" points="528.31 329.76 554.77 363.43 546.75 363.43 528.31 340.18 528.31 329.76"/><polygon class="cls-11" points="570 327.36 603.67 363.43 603.67 348.2 570 316.93 570 327.36"/><rect class="cls-3" x="652.98" y="415.14" width="88.19" height="61.73"/><rect class="cls-4" x="658.59" y="422.36" width="36.08" height="48.9"/><rect class="cls-4" x="700.28" y="422.36" width="36.08" height="48.9"/><polygon class="cls-11" points="659.79 425.97 692.66 466.05 692.66 452.42 669.41 423.56 659.79 423.56 659.79 425.97"/><polygon class="cls-11" points="659.79 436.39 686.25 470.06 678.23 470.06 659.79 446.81 659.79 436.39"/><polygon class="cls-11" points="701.48 433.98 735.15 470.06 735.15 454.83 701.48 423.56 701.48 433.98"/><rect class="cls-3" x="784.46" y="415.14" width="88.19" height="61.73"/><rect class="cls-4" x="790.07" y="422.36" width="36.08" height="48.9"/><rect class="cls-4" x="831.76" y="422.36" width="36.08" height="48.9"/><polygon class="cls-11" points="791.27 425.97 824.14 466.05 824.14 452.42 800.89 423.56 791.27 423.56 791.27 425.97"/><polygon class="cls-11" points="791.27 436.39 817.73 470.06 809.71 470.06 791.27 446.81 791.27 436.39"/><polygon class="cls-11" points="832.96 433.98 866.63 470.06 866.63 454.83 832.96 423.56 832.96 433.98"/><polygon class="cls-11" points="169.94 427.57 164.33 422.76 169.94 422.76 169.94 427.57"/><polygon class="cls-11" points="105 565.47 133.87 598.34 153.11 598.34 125.05 565.47 105 565.47"/><polygon class="cls-11" points="136.27 565.47 164.33 598.34 180.37 598.34 149.1 565.47 136.27 565.47"/><polygon class="cls-11" points="248.51 565.47 273.36 598.34 292.61 598.34 265.35 565.47 248.51 565.47"/><polygon class="cls-11" points="279.78 565.47 308.64 598.34 315.86 598.34 286.99 565.47 279.78 565.47"/><polygon class="cls-3" points="677.03 554.64 677.03 608.36 910.33 606.75 910.33 554.64 677.03 554.64"/><rect class="cls-4" x="682.64" y="563.46" width="94.6" height="35.28"/><rect class="cls-4" x="809.31" y="563.46" width="95.4" height="35.28"/><polygon class="cls-11" points="692.66 564.66 721.52 597.53 740.76 597.53 712.71 564.66 692.66 564.66"/><polygon class="cls-11" points="723.93 564.66 751.99 597.53 768.02 597.53 736.76 564.66 723.93 564.66"/><polygon class="cls-11" points="836.17 564.66 861.02 597.53 880.26 597.53 853 564.66 836.17 564.66"/><polygon class="cls-11" points="867.44 564.66 896.3 597.53 903.51 597.53 874.65 564.66 867.44 564.66"/><polygon class="cls-11" points="298.62 676.5 322.67 730.22 354.74 730.22 322.67 676.5 298.62 676.5"/><polygon class="cls-11" points="342.31 676.1 372.78 729.82 401.64 731.42 363.16 676.1 342.31 676.1"/><polygon class="cls-11" points="529.91 676.1 561.18 731.42 570 731.42 539.53 676.1 529.91 676.1"/><polygon class="cls-11" points="545.15 676.1 580.42 731.42 613.29 731.42 573.21 676.1 545.15 676.1"/><polygon class="cls-11" points="779.25 676.1 808.91 731.42 837.77 731.42 803.3 676.1 779.25 676.1"/><polygon class="cls-11" points="832.96 676.1 865.03 731.42 877.06 731.42 845.79 676.1 832.96 676.1"/></svg>