<svg id="Layer_2" data-name="Layer 2" xmlns="http://www.w3.org/2000/svg" viewBox="0 0 1000 1000"><defs><style>.cls-1{fill:#0091d4;stroke:#087399;}.cls-1,.cls-4,.cls-6{stroke-miterlimit:10;stroke-width:3px;}.cls-2{fill:#25bdf2;}.cls-3{fill:#0782a3;}.cls-4{fill:#e6e6e6;stroke:#b2b2b2;}.cls-5{fill:#fff;}.cls-6{fill:#211916;stroke:#14100f;}</style></defs><title>plane</title><path class="cls-1" d="M724.49,380.85s44.73-122.22,50.32-139,3.2-26.36-7.19-29.56-39.94-1.59-43.13,0-126.21,171-126.21,171Z"/><path class="cls-1" d="M284.35,389.64c1.6-1.6,12-36.75,9.58-41.54s-29.55-9.59-29.55-9.59l-39.94,51.13Z"/><path class="cls-2" d="M286.75,374.46c.79-.8,4.79-17.57,5.59-20.77s.8-4.79,0-5.59a25.67,25.67,0,0,0-4-2.4l-16,32.75Z"/><path class="cls-3" d="M253.2,374.46c0-.8,4-19.17,8-25.56s5.6-8,5.6-8l-1.6-1.6-29.56,39.94Z"/><path class="cls-2" d="M711.71,372.06c2.39-6.39,43.13-109.43,48.72-120.61S770,220.29,762,214.7c0,0,10.38,2.4,11.18,6.39s3.2,7.19-12.78,49.53-37.54,103-37.54,103Z"/><path class="cls-3" d="M668.57,373.66s-24-19.17,22.37-92.66,44.73-66.3,44.73-66.3h-9.59L609.46,376.06Z"/><path class="cls-4" d="M595.88,553.39s111,21.57,194.91,20,135.79-27.16,151.77-39.94,34.35-44.73,0-72.69-75.09-66.3-139-82.28-175.74-12.78-274.79-12-238.84,2.4-260.41,3.2-101.44,8.78-101.44,8.78-35.15,12.79-28,44.74,30.35,39.94,120.62,57.51S595.88,553.39,595.88,553.39Z"/><path class="cls-1" d="M23.14,787.44s28,29.55,81.48,12S441.71,641.26,499.23,606.91s104.64-65.5,107.83-68.7-1.59-17.57-9.58-20-120.62-20.76-167.75-20c0,0-115.83,79.08-131,89.47S16,781.85,23.14,787.44Z"/><path class="cls-2" d="M602.27,536.62c.8-3.2-1.6-9.59-6.39-12A23.63,23.63,0,0,0,581.5,523c-3.19.8-152.57,89.46-193.31,111.83s-155,86.27-181.32,100.65S97.43,789.83,88.64,794.63s-20,3.19-20.77,4.79,16,4,27.16,0,79.08-32.75,204.5-92.66,217.27-111.83,254-136.59S602.27,536.62,602.27,536.62Z"/><path class="cls-3" d="M478.46,507.86s-43.14-7.19-47.13-4-100.65,69.49-100.65,69.49L168.52,686.79,88.64,742.71s223.67-139.79,278-174.94S478.46,507.86,478.46,507.86Z"/><path class="cls-1" d="M145.36,301.77c1.6-.8,27.16-28.76,27.16-31.95s-6.39-5.59-14.38-1.6-32.75,22.37-32.75,22.37Z"/><path class="cls-5" d="M868.27,555s43.13-32.75,41.54-49.53-31.16-47.92-55.12-62.3S750.05,396,679,390.44s-235.64-1.6-283.57-.8-148.57,2.32-155,2.76-34.35-2-34.35-2l12-11.19s89.46-6.39,222.86-8.78,283.58,1.59,300.35,3.19,73.49,8.79,117.42,31.95,84.68,60.71,91.87,70.3,7.19,35.94-7.19,46.33S914.6,547,868.27,555Z"/><path class="cls-4" d="M245.21,381.65s1.6,11.18-12,13.58-71.9,2.4-77.49,0S66.28,287.39,63.88,281.8s-10.38-14.38,8-18.37,35.94.8,39.94,4.79S222,354.49,245.21,381.65Z"/><path class="cls-5" d="M240.42,384.84c-.8-1.59-54.32-50.32-74.29-67.89S112.61,273,109.41,271.42s-11.18-4.8-17.57-4.8-22.37-1.59-27.16,1.6,15.18,1.6,24,4,47.13,29.56,82.28,59.91,48.73,42.34,50.32,47.13-2.39,8-3.19,10.39,13.3,0,16.24,0S240.42,384.84,240.42,384.84Z"/><path class="cls-1" d="M133.38,313.75S87.05,347.3,77.46,352.09s-24,8.79-29.56,8.79-8.78-3.19-5.59-6.39S90.24,310.56,95,309.76s38.35-2.4,39.94,0S133.38,313.75,133.38,313.75Z"/><path class="cls-6" d="M893.83,425.58s-23.16,34.35-46.33,46.33S786,496.68,764.43,495.08s-28,1.6-33.55-14.38-3.2-22.37,15.17-28,37.55-5.59,62.31-23.16,35.15-32.75,35.15-32.75,11.18,3.19,28,13.58S893.83,425.58,893.83,425.58Z"/><polygon class="cls-5" points="825.86 421.37 874.16 442.09 881.61 436.84 830.57 417.96 825.86 421.37"/><polygon class="cls-5" points="834.16 413.53 883.42 432.2 889.37 427.5 838.6 409.37 834.16 413.53"/><path class="cls-5" d="M607.86,513.45c3.2-.8,78.28,8,92.66-3.19s8.79-76.69-28-84.68-336.29-7.19-373-8-67.1,0-75.09,5.59-18.37,12.78-18.37,20,28,20,99.85,29.55S607.86,513.45,607.86,513.45Z"/><path class="cls-1" d="M241.21,444.75s-65.5,45.54-79.08,45.54-45.53-2.4-41.53-8,51.92-43.94,55.91-45.53,62.27-4.83,67.1,0C247.6,440.76,241.21,444.75,241.21,444.75Z"/><path class="cls-2" d="M224.44,436c.8,0,12.78,0,15.18,1.6s3.19,4,.8,5.59S186.1,475.91,182.1,479.1s-16,8.79-19.17,8.79H151Z"/><path class="cls-3" d="M186.9,436.77c-3.2,0-7.19,0-8.79.8s-32.75,26.36-32.75,26.36l-16,13.58-5.59,4.79s1.6,1.6,8.79-3.2S186.9,436.77,186.9,436.77Z"/><path class="cls-6" d="M516.37,459.26c0-.8-.37-11.31-.37-11.31s11.34-2.63,15.77,6.34,3.1,21.72,1.37,24.84-8.36,6.46-10.75,6.36S516.37,459.26,516.37,459.26Z"/><path class="cls-6" d="M529.68,453.71s-5.52-7.15-12.06-6.38-9.15,8.48-9.56,11.65-.66,17.63,3.68,21.42,10.17,8.56,17.53,1.45S533.23,457.39,529.68,453.71Z"/><path class="cls-6" d="M478.07,458.41c0-.72-.41-10.46-.41-10.46s10.41-2.24,14.44,5.94,2.83,19.79,1.26,22.64-7.93,5.86-10.11,5.77S478.07,458.41,478.07,458.41Z"/><path class="cls-6" d="M490.2,453.36s-5-6.52-11-5.82-8.34,7.73-8.71,10.62-.61,16.07,3.35,19.52,9.27,7.8,16,1.33S493.44,456.72,490.2,453.36Z"/><path class="cls-6" d="M364.47,451.15c0-.57-.24-8-.24-8s8-1.82,11.07,4.49,2.18,15.28,1,17.48-5.93,4.75-7.61,4.68S364.47,451.15,364.47,451.15Z"/><path class="cls-6" d="M373.83,447.25s-3.88-5-8.48-4.5-6.44,6-6.73,8.2-.46,12.41,2.59,15.07,7.16,6,12.34,1S376.33,449.84,373.83,447.25Z"/><path class="cls-6" d="M402.81,453.54c0-.56-.24-8-.24-8s8-1.82,11.07,4.5,2.19,15.28,1,17.48-5.93,4.75-7.61,4.68S402.81,453.54,402.81,453.54Z"/><path class="cls-6" d="M412.18,449.64s-3.89-5-8.49-4.49-6.44,6-6.72,8.2-.47,12.4,2.59,15.07,7.15,6,12.33,1S414.68,452.23,412.18,449.64Z"/><path class="cls-6" d="M440.22,454.67c0-.62-.11-9.12-.11-9.12s8.68-1.77,12.14,5.24,2.42,17,1.07,19.41-6.58,5.28-8.45,5.2S440.22,454.67,440.22,454.67Z"/><path class="cls-6" d="M450.62,450.34s-4.31-5.59-9.43-5-7.14,6.63-7.46,9.11-.52,13.78,2.87,16.73,7.95,6.69,13.7,1.14S453.4,453.22,450.62,450.34Z"/></svg>