<svg id="Layer_2" data-name="Layer 2" xmlns="http://www.w3.org/2000/svg" viewBox="0 0 1000 1000"><defs><style>.cls-1{fill:#a25317;stroke:#8e420e;}.cls-1,.cls-2{stroke-miterlimit:10;stroke-width:3px;}.cls-2{fill:#868686;stroke:#686868;}.cls-3{fill:#b8b8b8;}</style></defs><title>trainway</title><polygon class="cls-1" points="46 612 134 805 162 792 73 600 46 612"/><polygon class="cls-1" points="124 576 212 769 240 756 151 564 124 576"/><polygon class="cls-1" points="204 539 292 732 320 719 231 527 204 539"/><polygon class="cls-1" points="282 503 370 696 398 683 309 491 282 503"/><polygon class="cls-1" points="363 467 451 660 479 647 390 455 363 467"/><polygon class="cls-1" points="441 431 529 624 557 611 468 419 441 431"/><polygon class="cls-1" points="521 394 609 587 637 574 548 382 521 394"/><polygon class="cls-1" points="599 358 687 551 715 538 626 346 599 358"/><polygon class="cls-1" points="680 323 768 516 796 503 707 311 680 323"/><polygon class="cls-1" points="760 286 848 479 876 466 787 274 760 286"/><polygon class="cls-1" points="838 250 926 443 954 430 865 238 838 250"/><polygon class="cls-2" points="30.5 645.5 43.5 675.5 914.5 278.5 900.5 247.5 30.5 645.5"/><polygon class="cls-3" points="37.5 650.5 900.5 258.5 903.5 256.5 899.5 249.5 33.5 646.5 37.5 650.5"/><polygon class="cls-2" points="84.5 762.5 97.5 792.5 968.5 395.5 954.5 364.5 84.5 762.5"/><polygon class="cls-3" points="91.5 767.5 954.5 375.5 957.5 373.5 953.5 366.5 87.5 763.5 91.5 767.5"/></svg>