<?xml version="1.0" encoding="UTF-8" standalone="no"?>
<!-- Created with Inkscape (http://www.inkscape.org/) -->

<svg
   xmlns:dc="http://purl.org/dc/elements/1.1/"
   xmlns:cc="http://creativecommons.org/ns#"
   xmlns:rdf="http://www.w3.org/1999/02/22-rdf-syntax-ns#"
   xmlns:svg="http://www.w3.org/2000/svg"
   xmlns="http://www.w3.org/2000/svg"
   xmlns:sodipodi="http://sodipodi.sourceforge.net/DTD/sodipodi-0.dtd"
   xmlns:inkscape="http://www.inkscape.org/namespaces/inkscape"
   width="1000"
   height="1000"
   viewBox="0 0 264.58333 264.58334"
   version="1.1"
   id="svg2383"
   inkscape:version="0.92.5 (2060ec1f9f, 2020-04-08)"
   sodipodi:docname="behind.svg"
   enable-background="new">
  <defs
     id="defs2377">
    <clipPath
       clipPathUnits="userSpaceOnUse"
       id="clipPath354">
      <path
         d="m 31307.7,14127.1 c -0.1,0 -0.1,0 -0.2,0 -609.8,0 -1203.1,260.3 -1614.8,726.2 v 0 c 411.7,-465.9 1005,-726.2 1614.8,-726.2 0.1,0 0.1,0 0.2,0 164.1,0 329.4,18.8 492.7,57.6 v 0 c -163.3,-38.8 -328.6,-57.6 -492.7,-57.6"
         id="path352"
         inkscape:connector-curvature="0" />
    </clipPath>
    <clipPath
       clipPathUnits="userSpaceOnUse"
       id="clipPath1664">
      <path
         d="M 9698.17,8491.28 7200.76,7969.5 c -86.98,172.77 -134.15,299.46 -12.67,473.38 l 2497.04,535.6 c -27.86,-156.16 -22.4,-347.1 13.04,-487.2 z"
         id="path1662"
         inkscape:connector-curvature="0" />
    </clipPath>
    <clipPath
       clipPathUnits="userSpaceOnUse"
       id="clipPath304">
      <path
         d="m 20986,8431.61 -2472.3,-630.05 c -94.4,168.82 -215.5,1863.91 -101.7,2042.96 l 2471.3,643.78 c -21,-157.2 61.2,-1918.28 102.7,-2056.69 z"
         id="path302"
         inkscape:connector-curvature="0" />
    </clipPath>
  </defs>
  <sodipodi:namedview
     id="base"
     pagecolor="#ffffff"
     bordercolor="#666666"
     borderopacity="1.0"
     inkscape:pageopacity="0.0"
     inkscape:pageshadow="2"
     inkscape:zoom="0.70710678"
     inkscape:cx="467.13112"
     inkscape:cy="478.64603"
     inkscape:document-units="px"
     inkscape:current-layer="layer1"
     showgrid="false"
     units="px"
     inkscape:window-width="1920"
     inkscape:window-height="1031"
     inkscape:window-x="0"
     inkscape:window-y="25"
     inkscape:window-maximized="1"
     showguides="true"
     inkscape:lockguides="true"
     inkscape:object-nodes="false"
     inkscape:snap-nodes="false"
     inkscape:snap-others="false" />
  <metadata
     id="metadata2380">
    <rdf:RDF>
      <cc:Work
         rdf:about="">
        <dc:format>image/svg+xml</dc:format>
        <dc:type
           rdf:resource="http://purl.org/dc/dcmitype/StillImage" />
        <dc:title></dc:title>
      </cc:Work>
    </rdf:RDF>
  </metadata>
  <g
     inkscape:groupmode="layer"
     id="layer3"
     inkscape:label="Layer 2" />
  <g
     inkscape:groupmode="layer"
     id="layer2"
     inkscape:label="Layer 3" />
  <g
     inkscape:label="Layer 1"
     inkscape:groupmode="layer"
     id="layer1"
     transform="translate(0,-32.41665)">
    <text
       xml:space="preserve"
       style="font-style:normal;font-variant:normal;font-weight:bold;font-stretch:normal;font-size:10.58333302px;line-height:1.25;font-family:sans-serif;-inkscape-font-specification:'sans-serif Bold';letter-spacing:0px;word-spacing:0px;fill:#000000;fill-opacity:1;stroke:none;stroke-width:0.26458332"
       x="150.05655"
       y="89.869026"
       id="text8811" />
    <text
       xml:space="preserve"
       style="font-style:normal;font-variant:normal;font-weight:bold;font-stretch:normal;font-size:10.58333302px;line-height:1.25;font-family:sans-serif;-inkscape-font-specification:'sans-serif Bold';letter-spacing:0px;word-spacing:0px;fill:#000000;fill-opacity:1;stroke:none;stroke-width:0.26458332"
       x="160.63989"
       y="97.806526"
       id="text8815" />
    <text
       xml:space="preserve"
       style="font-style:normal;font-variant:normal;font-weight:bold;font-stretch:normal;font-size:10.58333302px;line-height:1.25;font-family:sans-serif;-inkscape-font-specification:'sans-serif Bold';letter-spacing:0px;word-spacing:0px;fill:#000000;fill-opacity:1;stroke:none;stroke-width:0.26458332"
       x="156.86011"
       y="88.7351"
       id="text8819" />
    <flowRoot
       xml:space="preserve"
       id="flowRoot8821"
       style="font-style:normal;font-variant:normal;font-weight:bold;font-stretch:normal;font-size:40px;line-height:1.25;font-family:sans-serif;-inkscape-font-specification:'sans-serif Bold';letter-spacing:0px;word-spacing:0px;fill:#000000;fill-opacity:1;stroke:none"><flowRegion
         id="flowRegion8823"
         style="font-style:normal;font-variant:normal;font-weight:bold;font-stretch:normal;font-family:sans-serif;-inkscape-font-specification:'sans-serif Bold'" /><flowPara
         id="flowPara8827" /></flowRoot>    <flowRoot
       xml:space="preserve"
       id="flowRoot8829"
       style="font-style:normal;font-variant:normal;font-weight:bold;font-stretch:normal;font-size:40px;line-height:1.25;font-family:sans-serif;-inkscape-font-specification:'sans-serif Bold';letter-spacing:0px;word-spacing:0px;fill:#000000;fill-opacity:1;stroke:none"><flowRegion
         id="flowRegion8831"
         style="font-style:normal;font-variant:normal;font-weight:bold;font-stretch:normal;font-family:sans-serif;-inkscape-font-specification:'sans-serif Bold'" /><flowPara
         id="flowPara8835" /></flowRoot>    <flowRoot
       xml:space="preserve"
       id="flowRoot8837"
       style="font-style:normal;font-variant:normal;font-weight:bold;font-stretch:normal;font-size:40px;line-height:1.25;font-family:sans-serif;-inkscape-font-specification:'sans-serif Bold';letter-spacing:0px;word-spacing:0px;fill:#000000;fill-opacity:1;stroke:none"><flowRegion
         id="flowRegion8839"
         style="font-style:normal;font-variant:normal;font-weight:bold;font-stretch:normal;font-family:sans-serif;-inkscape-font-specification:'sans-serif Bold'" /><flowPara
         id="flowPara8843" /></flowRoot>    <text
       xml:space="preserve"
       style="font-style:normal;font-variant:normal;font-weight:bold;font-stretch:normal;font-size:10.58333302px;line-height:1.25;font-family:sans-serif;-inkscape-font-specification:'sans-serif Bold';letter-spacing:0px;word-spacing:0px;fill:#000000;fill-opacity:1;stroke:none;stroke-width:0.26458332"
       x="209.39882"
       y="107.25594"
       id="text8847" />
    <flowRoot
       xml:space="preserve"
       id="flowRoot8849"
       style="font-style:normal;font-variant:normal;font-weight:bold;font-stretch:normal;font-size:40px;line-height:1.25;font-family:sans-serif;-inkscape-font-specification:'sans-serif Bold';letter-spacing:0px;word-spacing:0px;fill:#000000;fill-opacity:1;stroke:none"><flowRegion
         id="flowRegion8851"
         style="font-style:normal;font-variant:normal;font-weight:bold;font-stretch:normal;font-family:sans-serif;-inkscape-font-specification:'sans-serif Bold'" /><flowPara
         id="flowPara8855" /></flowRoot>    <flowRoot
       xml:space="preserve"
       id="flowRoot8857"
       style="font-style:normal;font-variant:normal;font-weight:bold;font-stretch:normal;font-size:40px;line-height:1.25;font-family:sans-serif;-inkscape-font-specification:'sans-serif Bold';letter-spacing:0px;word-spacing:0px;fill:#000000;fill-opacity:1;stroke:none"><flowRegion
         id="flowRegion8859"
         style="font-style:normal;font-variant:normal;font-weight:bold;font-stretch:normal;font-family:sans-serif;-inkscape-font-specification:'sans-serif Bold'" /><flowPara
         id="flowPara8863" /></flowRoot>    <flowRoot
       xml:space="preserve"
       id="flowRoot8865"
       style="font-style:normal;font-variant:normal;font-weight:bold;font-stretch:normal;font-size:40px;line-height:1.25;font-family:sans-serif;-inkscape-font-specification:'sans-serif Bold';letter-spacing:0px;word-spacing:0px;fill:#000000;fill-opacity:1;stroke:none"><flowRegion
         id="flowRegion8867"
         style="font-style:normal;font-variant:normal;font-weight:bold;font-stretch:normal;font-family:sans-serif;-inkscape-font-specification:'sans-serif Bold'" /><flowPara
         id="flowPara8871" /></flowRoot>    <flowRoot
       xml:space="preserve"
       id="flowRoot8873"
       style="font-style:normal;font-variant:normal;font-weight:bold;font-stretch:normal;font-size:40px;line-height:1.25;font-family:sans-serif;-inkscape-font-specification:'sans-serif Bold';letter-spacing:0px;word-spacing:0px;fill:#000000;fill-opacity:1;stroke:none"><flowRegion
         id="flowRegion8875"
         style="font-style:normal;font-variant:normal;font-weight:bold;font-stretch:normal;font-family:sans-serif;-inkscape-font-specification:'sans-serif Bold'" /><flowPara
         id="flowPara8879" /></flowRoot>    <text
       xml:space="preserve"
       style="font-style:normal;font-weight:normal;font-size:10.58333302px;line-height:1.25;font-family:sans-serif;letter-spacing:0px;word-spacing:0px;fill:#000000;fill-opacity:1;stroke:none;stroke-width:0.26458332"
       x="101.02788"
       y="69.125984"
       id="text977"><tspan
         sodipodi:role="line"
         id="tspan975"
         x="101.02788"
         y="78.489754"
         style="stroke-width:0.26458332" /><tspan
         sodipodi:role="line"
         x="101.02788"
         y="91.718918"
         style="stroke-width:0.26458332"
         id="tspan979" /><tspan
         sodipodi:role="line"
         x="101.02788"
         y="104.94809"
         style="stroke-width:0.26458332"
         id="tspan981" /><tspan
         sodipodi:role="line"
         x="101.02788"
         y="118.17725"
         style="stroke-width:0.26458332"
         id="tspan983" /><tspan
         sodipodi:role="line"
         x="101.02788"
         y="131.40642"
         style="stroke-width:0.26458332"
         id="tspan985" /><tspan
         sodipodi:role="line"
         x="101.02788"
         y="144.63559"
         style="stroke-width:0.26458332"
         id="tspan987" /><tspan
         sodipodi:role="line"
         x="101.02788"
         y="157.86475"
         style="stroke-width:0.26458332"
         id="tspan989" /><tspan
         sodipodi:role="line"
         x="101.02788"
         y="171.09392"
         style="stroke-width:0.26458332"
         id="tspan991" /><tspan
         sodipodi:role="line"
         x="101.02788"
         y="184.32309"
         style="stroke-width:0.26458332"
         id="tspan993" /><tspan
         sodipodi:role="line"
         x="101.02788"
         y="197.55225"
         style="stroke-width:0.26458332"
         id="tspan995" /><tspan
         sodipodi:role="line"
         x="101.02788"
         y="210.78142"
         style="stroke-width:0.26458332"
         id="tspan997" /><tspan
         sodipodi:role="line"
         x="101.02788"
         y="224.01059"
         style="stroke-width:0.26458332"
         id="tspan999" /><tspan
         sodipodi:role="line"
         x="101.02788"
         y="237.23975"
         style="stroke-width:0.26458332"
         id="tspan1001" /><tspan
         sodipodi:role="line"
         x="101.02788"
         y="250.46892"
         style="stroke-width:0.26458332"
         id="tspan1003" /><tspan
         sodipodi:role="line"
         x="101.02788"
         y="263.69809"
         style="stroke-width:0.26458332"
         id="tspan1005" /><tspan
         sodipodi:role="line"
         x="101.02788"
         y="276.92725"
         style="stroke-width:0.26458332"
         id="tspan1007" /><tspan
         sodipodi:role="line"
         x="101.02788"
         y="290.1564"
         style="stroke-width:0.26458332"
         id="tspan1009" /><tspan
         sodipodi:role="line"
         x="101.02788"
         y="303.38559"
         style="stroke-width:0.26458332"
         id="tspan1011" /><tspan
         sodipodi:role="line"
         x="101.02788"
         y="316.61475"
         style="stroke-width:0.26458332"
         id="tspan1013" /><tspan
         sodipodi:role="line"
         x="101.02788"
         y="329.8439"
         style="stroke-width:0.26458332"
         id="tspan1015" /><tspan
         sodipodi:role="line"
         x="101.02788"
         y="343.07309"
         style="stroke-width:0.26458332"
         id="tspan1017" /><tspan
         sodipodi:role="line"
         x="101.02788"
         y="356.30225"
         style="stroke-width:0.26458332"
         id="tspan1019" /><tspan
         sodipodi:role="line"
         x="101.02788"
         y="369.5314"
         style="stroke-width:0.26458332"
         id="tspan1021" /><tspan
         sodipodi:role="line"
         x="101.02788"
         y="382.76059"
         style="stroke-width:0.26458332"
         id="tspan1023" /></text>
    <path
       d="m 92.23255,100.72831 c -1.199734,-3.482066 -0.195222,-6.697916 2.498323,-9.990086 1.514043,-1.8493 3.860625,-3.37736 5.701937,-5.28877 -2.466914,6.23826 -8.113475,10.51897 -8.20026,15.278856 m 94.85693,18.38114 c -1.15821,-0.74717 -4.64365,-3.35429 -3.4496,-9.71146 0.44245,-2.35333 -1.16814,-3.2123 -2.59043,-3.97012 -1.93874,-1.03468 -3.61393,-1.92916 -1.65957,-6.078536 2.4449,-5.18761 1.24339,-9.73631 -3.13227,-11.87311 -3.39173,-1.65585 -6.95544,-4.9072 -9.89692,-8.93234 -1.11064,-2.30186 -1.9934,-4.51143 -2.60232,-6.1442 -18.99733,-3.92044 -51.02101,4.13163 -60.78926,7.89056 l -1.20914,-1.55824 c -0.63678,4.7031 -4.749602,8.12128 -7.294777,11.23065 -3.082396,3.76603 -4.442035,7.75391 -2.510924,11.995566 0.764209,1.68247 1.354847,3.17858 0.823841,4.45464 -0.449013,1.07904 -1.721335,1.9966 -3.890796,2.80233 -2.14763,0.79687 -3.463433,1.83332 -4.01698,3.16616 -0.783908,1.88125 0.127427,3.88494 0.929794,5.6526 0.565614,1.24587 0.474392,3.12534 0.133285,4.09081 -1.256705,3.55838 -2.512521,4.85218 -1.887275,7.37411 -0.166649,-2.66746 1.345442,-4.05532 2.4859,-7.02626 0.425941,-1.10922 0.638024,-2.92125 -0.4176,-5.22665 -0.749835,-1.6381 -1.272145,-2.99579 -0.605369,-4.59839 0.477054,-1.1465 1.66046,-2.05695 3.620499,-2.78459 2.391306,-0.88915 3.753962,-1.90076 4.288696,-3.18569 0.201968,-0.48628 0.239415,-0.99386 0.215811,-1.51209 1.126259,2.51661 1.106382,4.57177 -3.439475,6.58079 -8.355725,3.68972 -0.232317,9.37071 -1.469676,11.84117 -2.123671,4.23989 -2.735606,5.0616 -2.400178,8.37506 0.383525,3.79798 3.072811,6.04837 5.756418,6.81151 0.03638,-0.59631 -2.666569,-4.08371 -0.363825,-9.84456 0.496576,3.17504 3.580036,10.64143 4.448601,10.83665 13.85161,3.0863 55.23499,6.83991 70.26858,-0.11713 2.87191,-1.32929 2.33434,-7.761 3.12819,-9.52511 0.29017,-0.64601 1.10034,1.86704 1.95684,4.38009 0.83893,2.46159 1.7224,4.92318 2.20513,4.41559 13.20418,-13.87858 10.28205,-18.2214 8.69559,-18.3971 -2.20726,-0.24315 -3.61411,-0.0675 -1.19441,-10.10368 1.17383,-4.86638 -7.88044,-2.3622 -4.22303,-10.13208 2.19324,-4.655176 1.23452,-8.625306 -2.97111,-11.413446 -1.47412,-0.97789 -2.81832,-2.46868 -4.04662,-4.15825 1.95081,1.49434 3.93232,2.7491 5.80912,3.66487 4.05869,1.98063 5.26837,5.79457 2.97023,10.67337 -2.23513,4.747476 0.0896,5.988026 1.95845,6.985436 1.44447,0.77024 2.60072,1.38076 2.23779,3.23183 -1.39106,7.09015 3.45083,9.62272 4.12879,9.83924"
       style="fill:#752912;fill-opacity:1;fill-rule:nonzero;stroke:none;stroke-width:0.03527778"
       id="path70"
       inkscape:connector-curvature="0" />
    <path
       d="m 135.24586,253.84175 c -20.03556,0 -36.277583,-1.38254 -36.277583,-3.08986 0,-1.70553 16.242023,-3.08984 36.277583,-3.08984 20.03557,0 36.27742,1.38431 36.27742,3.08984 0,1.70732 -16.24185,3.08986 -36.27742,3.08986"
       style="fill:#e3e3e3;fill-opacity:1;fill-rule:nonzero;stroke:none;stroke-width:0.03527778"
       id="path72"
       inkscape:connector-curvature="0" />
    <path
       d="m 128.8768,243.2926 c -0.0305,0.32656 -9.64135,-0.23249 -9.65555,-0.62827 -0.12707,-3.44833 -0.97097,-48.86077 -1.00735,-50.86003 l 15.13174,4.72404 c -0.41352,3.4125 -4.2477,44.40916 -4.46884,46.76426"
       style="fill:#ffc19f;fill-opacity:1;fill-rule:nonzero;stroke:none;stroke-width:0.03527778"
       id="path74"
       inkscape:connector-curvature="0" />
    <path
       d="m 129.82932,244.51008 c -0.0222,0.25201 -13.49134,0.26977 -13.53038,-0.0479 -0.28645,-2.35865 -0.0804,-8.01657 -0.20587,-9.38491 h 14.25855 c -0.22113,2.55565 -0.37944,7.81248 -0.5223,9.43283"
       style="fill:#f9e9a7;fill-opacity:1;fill-rule:nonzero;stroke:none;stroke-width:0.03527778"
       id="path76"
       inkscape:connector-curvature="0" />
    <path
       d="m 113.71969,240.89491 c 0.1812,-0.71878 0.56827,-1.63278 0.8659,-2.46691 0.22025,-0.6194 6.23613,-0.63714 6.28139,0.83945 0.0119,0.37803 0.002,0.71168 -0.0223,1.01517 1.02918,-0.0107 2.14479,-0.0444 3.32252,-0.11004 2.56008,-0.14376 4.85271,-0.39577 6.45922,-0.68505 0.14997,2.33557 0.0245,6.38379 0.17019,8.98025 0,0 -26.73064,5.54612 -31.0346,1.7375 -1.213044,-1.07374 5.42756,-6.07854 13.95774,-9.31037"
       style="fill:#f44d19;fill-opacity:1;fill-rule:nonzero;stroke:none;stroke-width:0.03527778"
       id="path78"
       inkscape:connector-curvature="0" />
    <path
       d="m 130.74083,246.83856 c 0.0119,0.57857 0.0279,1.13406 0.0557,1.62922 0,0 -26.73065,5.54612 -31.034609,1.7375 -0.171086,-0.15264 -0.183332,-0.38335 -0.0591,-0.67442 7.433918,1.46241 24.389748,-1.43932 31.037978,-2.6923"
       style="fill:#b22909;fill-opacity:1;fill-rule:nonzero;stroke:none;stroke-width:0.03527778"
       id="path80"
       inkscape:connector-curvature="0" />
    <path
       d="m 107.2539,243.45943 c 0.039,0.2041 0.23018,0.34253 0.44014,0.29816 1.24375,-0.25735 2.90066,0.323 4.01396,1.37011 0.0781,0.0728 0.17907,0.10648 0.27793,0.10116 0.0932,-0.005 0.18422,-0.0461 0.2529,-0.1189 0.14216,-0.15087 0.1347,-0.38868 -0.0165,-0.53066 -1.27818,-1.19973 -3.19545,-1.84397 -4.67044,-1.55824 -0.20339,0.039 -0.33668,0.23605 -0.29799,0.43837 z m 6.40633,0.59277 c 0.0786,0.0799 0.18493,0.11713 0.28875,0.11181 0.0877,-0.005 0.17464,-0.0408 0.24226,-0.10649 0.14819,-0.14552 0.14979,-0.38334 0.005,-0.53243 -1.21234,-1.23345 -2.84617,-1.81734 -4.48498,-1.59195 -0.20588,0.0284 -0.34999,0.21652 -0.3223,0.42239 0.028,0.20587 0.21954,0.36383 0.42257,0.32123 0.82491,-0.1118 2.41864,-0.0799 3.84909,1.37544 z m 1.87876,-0.95304 c 0.0786,0.0994 0.19842,0.14907 0.31661,0.14198 0.0742,-0.004 0.14784,-0.0302 0.21067,-0.0781 0.16327,-0.12956 0.19167,-0.36561 0.063,-0.52888 -1.06823,-1.35947 -2.898,-2.0463 -4.45002,-1.67714 -0.20144,0.0497 -0.3255,0.25201 -0.27669,0.45256 0.0485,0.20233 0.24953,0.323 0.45274,0.27863 1.27516,-0.31413 2.78992,0.27154 3.68368,1.41094"
       style="fill:#d3dae5;fill-opacity:1;fill-rule:nonzero;stroke:none;stroke-width:0.03527778"
       id="path82"
       inkscape:connector-curvature="0" />
    <path
       d="m 140.58291,243.2926 c 0.0307,0.32656 9.64118,-0.23249 9.65591,-0.62827 0.12636,-3.44833 0.97079,-48.86077 1.007,-50.86003 l -15.13139,4.72404 c 0.41334,3.4125 4.24699,44.40916 4.46848,46.76426"
       style="fill:#ffc19f;fill-opacity:1;fill-rule:nonzero;stroke:none;stroke-width:0.03527778"
       id="path84"
       inkscape:connector-curvature="0" />
    <path
       d="m 139.63022,244.51008 c 0.0222,0.25201 13.49133,0.26977 13.5302,-0.0479 0.28698,-2.35865 0.0809,-8.01657 0.20605,-9.38491 h -14.25856 c 0.22113,2.55565 0.37927,7.81248 0.52231,9.43283"
       style="fill:#f9e9a7;fill-opacity:1;fill-rule:nonzero;stroke:none;stroke-width:0.03527778"
       id="path86"
       inkscape:connector-curvature="0" />
    <path
       d="m 155.73985,240.89491 c -0.18103,-0.71878 -0.56846,-1.63278 -0.86537,-2.46691 -0.22078,-0.6194 -6.23631,-0.63714 -6.2821,0.83945 -0.0117,0.37803 -0.002,0.71168 0.0224,1.01517 -1.02918,-0.0107 -2.14479,-0.0444 -3.32217,-0.11004 -2.56026,-0.14376 -4.85288,-0.39577 -6.45904,-0.68505 -0.15014,2.33557 -0.025,6.38379 -0.17002,8.98025 0,0 26.73047,5.54612 31.03408,1.7375 1.21304,-1.07374 -5.42756,-6.07854 -13.95774,-9.31037"
       style="fill:#f44d19;fill-opacity:1;fill-rule:nonzero;stroke:none;stroke-width:0.03527778"
       id="path88"
       inkscape:connector-curvature="0" />
    <path
       d="m 138.71853,246.83856 c -0.0117,0.57857 -0.0275,1.13406 -0.055,1.62922 0,0 26.73047,5.54612 31.03407,1.7375 0.17127,-0.15264 0.18315,-0.38335 0.0589,-0.67442 -7.43391,1.46241 -24.38974,-1.43932 -31.03797,-2.6923"
       style="fill:#b22909;fill-opacity:1;fill-rule:nonzero;stroke:none;stroke-width:0.03527778"
       id="path90"
       inkscape:connector-curvature="0" />
    <path
       d="m 161.90783,243.02106 c -1.47517,-0.28573 -3.39208,0.35851 -4.67062,1.55824 -0.15103,0.14198 -0.15866,0.37979 -0.0163,0.53066 0.0685,0.0727 0.15954,0.11358 0.25254,0.1189 0.099,0.005 0.19984,-0.0284 0.27864,-0.10116 1.11295,-1.04711 2.76968,-1.62746 4.01397,-1.37011 0.20959,0.0444 0.40056,-0.0941 0.43978,-0.29816 0.039,-0.20232 -0.0944,-0.39932 -0.29798,-0.43837 z m -2.25944,-0.3443 c 0.20303,0.0426 0.39506,-0.11536 0.42257,-0.32123 0.0275,-0.20587 -0.11643,-0.394 -0.32211,-0.42239 -1.63899,-0.22539 -3.27283,0.3585 -4.48517,1.59195 -0.14517,0.14909 -0.1434,0.38691 0.005,0.53243 0.0676,0.0657 0.15476,0.10116 0.24243,0.10649 0.10436,0.005 0.20996,-0.0319 0.28876,-0.11181 1.43027,-1.4553 3.02418,-1.48724 3.84908,-1.37544 z m -2.04416,-0.98854 c 0.20374,0.0444 0.40482,-0.0763 0.45309,-0.27863 0.0488,-0.20055 -0.0756,-0.40287 -0.27704,-0.45256 -1.55166,-0.36916 -3.38126,0.31767 -4.45019,1.67714 -0.12796,0.16327 -0.0997,0.39932 0.0635,0.52888 0.0623,0.0479 0.1363,0.0745 0.21012,0.0781 0.1182,0.007 0.238,-0.0426 0.3168,-0.14198 0.89376,-1.1394 2.40852,-1.72507 3.68368,-1.41094"
       style="fill:#d3dae5;fill-opacity:1;fill-rule:nonzero;stroke:none;stroke-width:0.03527778"
       id="path92"
       inkscape:connector-curvature="0" />
    <path
       d="m 104.95808,201.00889 c 12.55035,9.40922 47.146,9.98743 61.05405,0 0,0 -5.91331,-15.03217 -9.0044,-23.55189 -7.96723,-0.82437 -35.90222,-0.87016 -44.47252,0.069 -2.52032,8.13849 -4.4864,14.36522 -7.57713,23.48285"
       style="fill:#2a535e;fill-opacity:1;fill-rule:nonzero;stroke:none;stroke-width:0.03527778"
       id="path94"
       inkscape:connector-curvature="0" />
    <path
       d="m 110.9926,182.48187 v 0 c 0.31395,-1.00309 0.63057,-2.01825 0.95499,-3.06146 h 1.4e-4 c -0.32425,1.04392 -0.64104,2.06049 -0.95429,3.06163 m 46.97568,-2.40834 c -0.14056,-0.37874 -0.27828,-0.75125 -0.4121,-1.11455 l 5e-4,-1.3e-4 c 0.13435,0.36471 0.27243,0.73706 0.41245,1.11437 v 0"
       style="fill:#c7c7c7;fill-opacity:1;fill-rule:nonzero;stroke:none;stroke-width:0.03527778"
       id="path96"
       inkscape:connector-curvature="0" />
    <path
       d="m 128.34509,184.30649 c -6.27039,-1.3e-4 -12.21901,-0.60093 -17.35249,-1.82462 0.31413,-1.00097 0.63092,-2.01754 0.95517,-3.06146 6.90841,2.29068 15.40132,3.57081 23.6424,3.57099 8.16423,1.3e-4 16.08035,-1.25653 21.96685,-4.03225 0.13382,0.3633 0.27154,0.73581 0.4121,1.11455 -9.44152,2.79435 -19.91967,4.23297 -29.62403,4.23279"
       style="fill:#214149;fill-opacity:1;fill-rule:nonzero;stroke:none;stroke-width:0.03527778"
       id="path98"
       inkscape:connector-curvature="0" />
    <path
       d="m 85.050295,126.05939 c -0.856852,-0.52 3.631149,-7.48769 4.521543,-7.01916 13.308002,6.99432 30.459412,14.77839 34.109722,16.13785 l -5.55001,9.33344 c -7.59595,-4.176 -21.7624,-11.57673 -33.081255,-18.45213"
       style="fill:#ffc19f;fill-opacity:1;fill-rule:nonzero;stroke:none;stroke-width:0.03527778"
       id="path100"
       inkscape:connector-curvature="0" />
    <path
       d="m 108.1301,127.20233 c -1.63455,3.22651 -4.27858,10.65563 -5.75323,14.10575 7.13452,3.60808 13.10195,6.16728 13.68354,6.10693 6.05351,-0.62826 10.51027,-12.31857 10.98059,-12.9486 -3.7868,-1.22991 -11.86069,-3.95238 -18.9109,-7.26408"
       style="fill:#28afc6;fill-opacity:1;fill-rule:nonzero;stroke:none;stroke-width:0.03527778"
       id="path102"
       inkscape:connector-curvature="0" />
    <path
       d="m 78.481749,123.35999 c -0.276862,0.5129 -1.161045,0.69215 -2.529913,1.01693 -1.185714,0.28219 -2.977684,0.64956 -3.585005,1.34527 -0.64885,0.74185 0.138253,1.39851 1.556105,1.56 2.341967,0.268 7.651501,0.68151 10.301565,0.69926 4.513201,0.31591 8.79817,-3.00288 8.9634,-7.2481 0.247933,-6.36427 -0.0449,-8.84893 -0.03638,-12.76581 0.0023,-0.96547 -1.982578,-0.12068 -2.488206,1.10035 -1.08331,2.61599 -0.623648,3.55661 -1.28723,4.85218 -0.647075,1.26185 -1.772448,0.94594 -2.874925,0.1331 -4.198183,-5.46447 -6.0276,-9.05835 -8.075667,-8.67677 -1.637921,0.58389 0.748414,4.74037 3.6528,9.30326 -4.782787,-3.41463 -8.900041,-5.7573 -9.596455,-4.38009 -0.824728,1.63277 3.240703,4.65518 6.699167,7.73438 -4.479658,-0.19168 -9.067223,-1.6665 -9.169625,0.67973 -0.0749,1.71442 9.250909,3.20521 8.470372,4.64631"
       style="fill:#ffc19f;fill-opacity:1;fill-rule:nonzero;stroke:none;stroke-width:0.03527778"
       id="path104"
       inkscape:connector-curvature="0" />
    <path
       d="m 183.68851,126.05939 c 0.85668,-0.52 -3.63114,-7.48769 -4.52136,-7.01916 -13.30818,6.99432 -30.45941,14.77839 -34.1099,16.13785 l 5.55001,9.33344 c 7.59595,-4.176 21.7624,-11.57673 33.08125,-18.45213"
       style="fill:#ffc19f;fill-opacity:1;fill-rule:nonzero;stroke:none;stroke-width:0.03527778"
       id="path106"
       inkscape:connector-curvature="0" />
    <path
       d="m 160.60871,127.20233 c 1.63455,3.22651 4.27858,10.65563 5.75322,14.10575 -7.13451,3.60808 -13.10212,6.16728 -13.68371,6.10693 -6.05334,-0.62826 -10.51027,-12.31857 -10.98023,-12.9486 3.78662,-1.22991 11.86051,-3.95238 18.91072,-7.26408"
       style="fill:#28afc6;fill-opacity:1;fill-rule:nonzero;stroke:none;stroke-width:0.03527778"
       id="path108"
       inkscape:connector-curvature="0" />
    <path
       d="m 190.25706,123.35999 c 0.27686,0.5129 1.16087,0.69215 2.52991,1.01693 1.18571,0.28219 2.97751,0.64956 3.585,1.34527 0.64885,0.74185 -0.13843,1.39851 -1.5561,1.56 -2.34197,0.268 -7.65186,0.68151 -10.30157,0.69926 -4.5132,0.31591 -8.79816,-3.00288 -8.96322,-7.2481 -0.24811,-6.36427 0.0447,-8.84893 0.0362,-12.76581 -0.002,-0.96547 1.98258,-0.12068 2.4882,1.10035 1.08332,2.61599 0.62366,3.55661 1.28724,4.85218 0.64707,1.26185 1.77244,0.94594 2.87492,0.1331 4.19819,-5.46447 6.0276,-9.05835 8.07567,-8.67677 1.63792,0.58389 -0.74842,4.74037 -3.6528,9.30326 4.78278,-3.41463 8.90004,-5.7573 9.59645,-4.38009 0.82473,1.63277 -3.2407,4.65518 -6.69916,7.73438 4.47966,-0.19168 9.06722,-1.6665 9.16962,0.67973 0.0749,1.71442 -9.25091,3.20521 -8.47037,4.64631"
       style="fill:#ffc19f;fill-opacity:1;fill-rule:nonzero;stroke:none;stroke-width:0.03527778"
       id="path110"
       inkscape:connector-curvature="0" />
    <path
       d="m 111.18409,179.16095 c 14.04275,4.89264 35.15595,5.506 47.09135,-0.5532 0,0 -5.62668,-35.66512 -7.38706,-44.43063 -8.36264,-1.10568 -24.77558,-1.39496 -33.47419,0.087 -1.26096,11.18273 -3.68297,28.9995 -6.2301,44.89687"
       style="fill:#28afc6;fill-opacity:1;fill-rule:nonzero;stroke:none;stroke-width:0.03527778"
       id="path112"
       inkscape:connector-curvature="0" />
    <path
       d="m 145.02938,135.2473 c 0.0254,-0.56793 -0.0701,-1.11278 -0.20605,-1.64875 -5.81338,-0.394 -14.54501,-0.52 -20.77173,-0.0231 -0.0479,0.24492 -0.15157,0.47208 -0.16292,0.72587 -0.19594,4.37832 4.37796,8.1408 10.21584,8.40169 5.83788,0.26089 10.72911,-3.07742 10.92486,-7.45574"
       style="fill:#ffc19f;fill-opacity:1;fill-rule:nonzero;stroke:none;stroke-width:0.03527778"
       id="path114"
       inkscape:connector-curvature="0" />
    <path
       d="m 141.92906,123.1133 -0.13399,12.36827 c -0.0289,2.66035 -3.43238,4.77941 -7.60217,4.73327 -4.16943,-0.0444 -7.5262,-2.23797 -7.49727,-4.89655 l 0.13399,-12.36827 15.09944,0.16328"
       style="fill:#ffc19f;fill-opacity:1;fill-rule:nonzero;stroke:none;stroke-width:0.03527778"
       id="path116"
       inkscape:connector-curvature="0" />
    <path
       d="m 142.02135,133.4406 c -0.0682,-0.004 -0.13559,-0.007 -0.2041,-0.0107 l 0.0761,-7.02271 c 1.12662,0.0479 2.19502,0.10649 3.17664,0.17215 0.1308,0.51646 0.22237,1.04001 0.1977,1.58486 -0.0944,2.11551 -1.32911,3.979 -3.24638,5.27634"
       style="fill:#712610;fill-opacity:1;fill-rule:nonzero;stroke:none;stroke-width:0.03527778"
       id="path118"
       inkscape:connector-curvature="0" />
    <path
       d="m 141.81565,133.57548 0.001,-0.14553 c 0.0685,0.004 0.13595,0.007 0.2041,0.0107 -0.0678,0.0444 -0.1363,0.0905 -0.2057,0.13488"
       style="fill:#e1a182;fill-opacity:1;fill-rule:nonzero;stroke:none;stroke-width:0.03527778"
       id="path120"
       inkscape:connector-curvature="0" />
    <path
       d="m 126.7329,131.86816 c -1.18944,-1.32042 -1.85622,-2.9177 -1.78043,-4.61081 0.0108,-0.24492 0.11038,-0.46498 0.15653,-0.69925 0.54237,-0.0426 1.10478,-0.0816 1.68282,-0.11536 l -0.0589,5.42542"
       style="fill:#712610;fill-opacity:1;fill-rule:nonzero;stroke:none;stroke-width:0.03527778"
       id="path122"
       inkscape:connector-curvature="0" />
    <path
       d="m 135.38447,135.34313 c -0.20356,0 -0.40872,-0.005 -0.61477,-0.0142 -3.35234,-0.14909 -6.27075,-1.49967 -8.0368,-3.46078 l 0.0589,-5.42542 c 2.34888,-0.13666 4.95991,-0.19523 7.57358,-0.19523 2.59186,0 5.18602,0.0586 7.52798,0.15973 l -0.0761,7.02271 -0.001,0.14553 c -1.73091,1.10745 -3.97882,1.76765 -6.43118,1.76765"
       style="fill:#e1a182;fill-opacity:1;fill-rule:nonzero;stroke:none;stroke-width:0.03527778"
       id="path124"
       inkscape:connector-curvature="0" />
    <path
       d="m 173.08417,110.98108 c -1.95684,7.07239 -8.92897,11.42231 -14.10841,10.64852 -5.17927,-0.77379 -6.08546,-6.61628 -5.06586,-13.44199 1.02119,-6.82748 6.05031,-11.750646 11.22728,-10.959106 7.07594,1.0826 9.78528,7.106116 7.94699,13.752576"
       style="fill:#ffc19f;fill-opacity:1;fill-rule:nonzero;stroke:none;stroke-width:0.03527778"
       id="path126"
       inkscape:connector-curvature="0" />
    <path
       d="m 166.81751,112.42217 c -0.44848,2.99224 -2.95106,5.09888 -5.59118,4.70488 -2.63871,-0.394 -4.41613,-3.14132 -3.96765,-6.13533 0.44759,-2.99223 2.95018,-5.09887 5.58889,-4.7031 2.64012,0.394 4.41682,3.13954 3.96994,6.13355"
       style="fill:#e0956c;fill-opacity:1;fill-rule:nonzero;stroke:none;stroke-width:0.03527778"
       id="path128"
       inkscape:connector-curvature="0" />
    <path
       d="m 96.117489,110.2197 c 1.815751,7.1079 8.701271,11.59803 13.894561,10.9254 5.19399,-0.67264 6.2159,-6.49383 5.33154,-13.33906 -0.88596,-6.84523 -5.81623,-11.867786 -11.00881,-11.179176 -7.095824,0.94239 -9.923541,6.910886 -8.217291,13.592836"
       style="fill:#ffc19f;fill-opacity:1;fill-rule:nonzero;stroke:none;stroke-width:0.03527778"
       id="path130"
       inkscape:connector-curvature="0" />
    <path
       d="m 102.73626,111.78681 c 0.38814,3.00289 2.84884,5.15744 5.49553,4.81491 2.64651,-0.34252 4.47806,-3.05258 4.08957,-6.05369 -0.38814,-3.00288 -2.84848,-5.15743 -5.49518,-4.81491 -2.64704,0.34253 -4.47806,3.05258 -4.08992,6.05369"
       style="fill:#e0956c;fill-opacity:1;fill-rule:nonzero;stroke:none;stroke-width:0.03527778"
       id="path132"
       inkscape:connector-curvature="0" />
    <path
       d="m 100.83798,82.748274 c -2.819906,23.107306 13.88427,38.609786 33.35439,38.803236 19.47048,0.19168 35.67329,-16.50167 33.9232,-39.049926 -0.97168,-12.51912 -13.98862,-22.46485 -32.59089,-22.52874 -19.47101,-0.0674 -32.6814,6.3412 -34.6867,22.77543"
       style="fill:#752912;fill-opacity:1;fill-rule:nonzero;stroke:none;stroke-width:0.03527778"
       id="path134"
       inkscape:connector-curvature="0" />
    <path
       d="m 106.8402,78.089544 c -1.80049,3.88671 -0.97398,38.327606 2.95674,43.165586 4.16926,5.13259 21.26139,10.17467 24.86379,10.21017 3.85903,0.039 20.69364,-4.16358 24.01226,-9.72566 3.92593,-6.58434 5.9472,-37.195316 4.75119,-40.853086 -4.04182,-12.35584 -14.75052,-12.87762 -28.76221,-13.01605 -13.10851,-0.12956 -23.15008,0.13488 -27.82177,10.21904"
       style="fill:#ffc19f;fill-opacity:1;fill-rule:nonzero;stroke:none;stroke-width:0.03527778"
       id="path136"
       inkscape:connector-curvature="0" />
    <path
       d="m 110.25252,112.22872 c -0.12352,1.39319 1.71229,2.69586 4.10093,2.90705 2.38722,0.21298 4.42446,-0.74539 4.54799,-2.13858 0.1237,-1.39318 -1.71282,-2.69408 -4.10004,-2.90527 -2.38864,-0.21297 -4.425,0.7454 -4.54888,2.1368"
       style="fill:#ff9797;fill-opacity:1;fill-rule:nonzero;stroke:none;stroke-width:0.03527778"
       id="path138"
       inkscape:connector-curvature="0" />
    <path
       d="m 150.10909,113.78874 c 0.0717,1.39673 2.07149,2.42786 4.46599,2.3054 2.39379,-0.12423 4.27751,-1.35591 4.2051,-2.75264 -0.0717,-1.39673 -2.07167,-2.42787 -4.46564,-2.30541 -2.3945,0.12246 -4.27733,1.35591 -4.20545,2.75265"
       style="fill:#ff9797;fill-opacity:1;fill-rule:nonzero;stroke:none;stroke-width:0.03527778"
       id="path140"
       inkscape:connector-curvature="0" />
    <path
       d="m 132.31166,109.44236 c 0.15441,0.002 0.29159,-0.10826 0.31964,-0.26444 0.19575,-1.11632 1.08668,-1.82977 2.26831,-1.81735 1.18856,0.0107 2.08552,0.75605 2.23123,1.85462 0.0239,0.1757 0.18634,0.29993 0.36133,0.27509 0.17606,-0.0231 0.29941,-0.18458 0.27598,-0.36028 -0.18671,-1.4056 -1.36408,-2.39769 -2.86215,-2.41366 -1.4899,-0.0142 -2.6584,0.92997 -2.90847,2.34977 -0.0307,0.17393 0.0862,0.34076 0.26071,0.3727 l 0.0534,0.004"
       style="fill:#c4735b;fill-opacity:1;fill-rule:nonzero;stroke:none;stroke-width:0.03527778"
       id="path142"
       inkscape:connector-curvature="0" />
    <path
       d="m 112.51125,89.643194 c 0.21706,-0.009 0.43056,-0.0941 0.59739,-0.25734 2.13254,-2.06581 6.31245,-2.78636 9.73098,-1.67004 0.47421,0.15795 0.99049,-0.10294 1.1488,-0.58389 0.156,-0.47741 -0.10454,-0.99032 -0.58354,-1.14827 -4.07857,-1.32929 -8.9437,-0.44901 -11.56466,2.09776 -0.36098,0.34963 -0.36933,0.92642 -0.0188,1.2867 0.18688,0.19345 0.44014,0.28573 0.68985,0.27508"
       style="fill:#8c2f22;fill-opacity:1;fill-rule:nonzero;stroke:none;stroke-width:0.03527778"
       id="path144"
       inkscape:connector-curvature="0" />
    <path
       d="m 156.65172,90.305184 c 0.24988,0.009 0.50261,-0.0834 0.68931,-0.27686 0.35052,-0.36205 0.34094,-0.93707 -0.0202,-1.2867 -2.62717,-2.54322 -7.49248,-3.4164 -11.5682,-2.08001 -0.4783,0.15795 -0.73848,0.67085 -0.58159,1.14826 0.15795,0.47919 0.67352,0.74008 1.14968,0.58212 3.4157,-1.12342 7.60057,-0.41174 9.73365,1.65585 0.16665,0.16328 0.38051,0.24846 0.59738,0.25734"
       style="fill:#8c2f22;fill-opacity:1;fill-rule:nonzero;stroke:none;stroke-width:0.03527778"
       id="path146"
       inkscape:connector-curvature="0" />
    <path
       d="m 158.08341,70.768684 c -5.04101,-2.81831 -14.52299,-4.42624 -23.05193,-4.66406 -9.27168,-0.25734 -18.85837,0.76669 -24.02167,3.93286 -3.41534,2.09243 -7.80484,18.29417 -6.1529,16.99683 1.89065,-1.4837 4.87827,-2.77395 8.46204,-3.80863 0.47634,-1.7854 3.04583,-6.20277 3.54276,-6.78489 -0.20037,0.94417 -0.56277,4.27894 -0.73723,6.05547 4.46883,-1.04711 9.57445,-1.72684 14.54837,-1.93981 -0.0699,-1.89544 0.91223,-4.3375 0.9195,-4.46706 0.56509,0.57857 1.6736,3.25313 2.14888,4.39252 0.74824,-0.004 1.48902,0.005 2.2204,0.0249 6.70449,0.18812 11.65499,0.74539 15.59352,1.61147 -0.11535,-5.85314 -0.11163,-7.68114 -0.15653,-7.28359 0.695,1.25475 1.54492,4.8504 1.56267,7.61725 1.47163,0.37447 2.79702,0.79864 4.02178,1.26717 0.15582,-1.70021 0.58815,-4.44398 0.65026,-4.91074 0.51664,0.32833 1.43472,4.1121 1.74637,5.93655 2.03812,0.97079 3.84535,2.08356 5.70565,3.31702 2.03174,1.34881 -2.93846,-15.02153 -7.00194,-17.29321"
       style="fill:#752912;fill-opacity:1;fill-rule:nonzero;stroke:none;stroke-width:0.03527778"
       id="path148"
       inkscape:connector-curvature="0" />
    <path
       d="m 141.8996,107.9072 c 0,0 9.64828,3.39333 13.50695,-1.62745 4.70221,-6.11936 -2.07611,-11.255496 -6.59197,-10.421356 -4.17831,0.77202 -8.05437,4.262956 -6.91498,12.048806"
       style="fill:#ffffff;fill-opacity:1;fill-rule:nonzero;stroke:none;stroke-width:0.03527778"
       id="path150"
       inkscape:connector-curvature="0" />
    <path
       d="m 156.36971,98.325294 c -1.7382,-2.32315 -4.14387,-3.10759 -6.78294,-2.92124 -2.69798,0.19167 -5.47778,2.02145 -6.30464,3.96657 1.5105,-2.17407 4.02799,-2.91414 5.5903,-3.20165 2.48768,-0.46321 5.69768,0.74184 7.09139,3.01886 1.23949,2.024986 1.04285,5.004806 -0.6831,7.249866 2.00494,-1.50322 2.90083,-5.69342 1.08899,-8.112406"
       style="fill:#773220;fill-opacity:1;fill-rule:nonzero;stroke:none;stroke-width:0.03527778"
       id="path152"
       inkscape:connector-curvature="0" />
    <path
       d="m 144.30528,101.42757 c -0.9589,2.22022 0.063,4.79716 2.28287,5.75553 2.22004,0.96014 4.79716,-0.0621 5.75642,-2.28234 0.95907,-2.22022 -0.0632,-4.79716 -2.28305,-5.757296 -2.22004,-0.95837 -4.79716,0.0639 -5.75624,2.284106"
       style="fill:#63190d;fill-opacity:1;fill-rule:nonzero;stroke:none;stroke-width:0.03527778"
       id="path154"
       inkscape:connector-curvature="0" />
    <path
       d="m 144.67958,100.74251 c -0.26604,0.61584 0.0176,1.33107 0.63358,1.59551 0.61549,0.26621 1.33071,-0.0178 1.59675,-0.63182 0.26639,-0.61761 -0.0174,-1.33106 -0.63359,-1.59728 -0.61548,-0.266206 -1.33053,0.016 -1.59674,0.63359"
       style="fill:#fefffe;fill-opacity:1;fill-rule:nonzero;stroke:none;stroke-width:0.03527778"
       id="path156"
       inkscape:connector-curvature="0" />
    <path
       d="m 127.18937,107.52208 c 0,0 -9.8286,2.82718 -13.39,-2.40835 -4.33945,-6.380236 2.72496,-11.113506 7.18492,-10.020256 4.12701,1.01338 7.79402,4.72085 6.20508,12.428606"
       style="fill:#ffffff;fill-opacity:1;fill-rule:nonzero;stroke:none;stroke-width:0.03527778"
       id="path158"
       inkscape:connector-curvature="0" />
    <path
       d="m 113.29907,97.116694 c 1.86988,-2.21667 4.31709,-2.86091 6.94053,-2.52193 2.68272,0.34785 5.3516,2.33558 6.06434,4.32508 -1.382,-2.25926 -3.85264,-3.14309 -5.39526,-3.52111 -2.45696,-0.60519 -5.73139,0.41174 -7.25431,2.60356 -1.35467,1.95046 -1.33106,4.935596 0.26143,7.276496 -1.91425,-1.61503 -2.56577,-5.851366 -0.61673,-8.162096"
       style="fill:#773220;fill-opacity:1;fill-rule:nonzero;stroke:none;stroke-width:0.03527778"
       id="path160"
       inkscape:connector-curvature="0" />
    <path
       d="m 117.2408,100.73364 c -0.95908,2.22022 0.063,4.79716 2.28304,5.7573 2.22005,0.95837 4.79699,-0.0639 5.75607,-2.28411 0.95907,-2.22021 -0.0634,-4.797156 -2.28322,-5.755516 -2.21987,-0.95837 -4.79717,0.0621 -5.75589,2.282326"
       style="fill:#63190d;fill-opacity:1;fill-rule:nonzero;stroke:none;stroke-width:0.03527778"
       id="path162"
       inkscape:connector-curvature="0" />
    <path
       d="m 117.61492,100.04859 c -0.26604,0.61583 0.0174,1.33106 0.63359,1.59727 0.61584,0.26621 1.33106,-0.0177 1.5971,-0.63358 0.26603,-0.61584 -0.0174,-1.331066 -0.63359,-1.597276 -0.61584,-0.26622 -1.33107,0.0177 -1.5971,0.633586"
       style="fill:#fefffe;fill-opacity:1;fill-rule:nonzero;stroke:none;stroke-width:0.03527778"
       id="path164"
       inkscape:connector-curvature="0" />
    <path
       d="m 145.69402,114.03188 c 0.73777,4.37122 -6.28422,10.00961 -12.42523,9.4133 -6.10693,-0.59277 -10.02524,-5.93123 -9.76453,-10.33618 0.51699,-2.39414 4.48836,-1.54048 10.52839,-1.40383 6.03292,0.13666 11.21254,-0.33188 11.66137,2.32671"
       style="fill:#701608;fill-opacity:1;fill-rule:nonzero;stroke:none;stroke-width:0.03527778"
       id="path166"
       inkscape:connector-curvature="0" />
    <path
       d="m 134.10345,119.4928 c -2.83499,-0.0816 -5.02965,0.52888 -6.47714,1.79073 1.55966,1.11986 3.68439,2.20424 6.05138,2.26281 2.66497,0.0674 5.01936,-0.28574 6.80583,-1.9895 -0.65612,-1.28315 -3.84465,-1.9895 -6.38007,-2.06404"
       style="fill:#dd6b5b;fill-opacity:1;fill-rule:nonzero;stroke:none;stroke-width:0.03527778"
       id="path168"
       inkscape:connector-curvature="0" />
    <path
       d="m 142.71759,112.02641 c -2.06901,-0.68329 -5.33155,-0.35141 -8.33834,-0.42062 -3.3928,-0.0763 -5.86929,-0.5626 -8.00201,-0.15441 0.75746,1.83332 3.5669,3.0792 7.47012,3.21231 4.50699,0.1544 8.21037,-0.7099 8.87023,-2.63728"
       style="fill:#ffffff;fill-opacity:1;fill-rule:nonzero;stroke:none;stroke-width:0.03527778"
       id="path170"
       inkscape:connector-curvature="0" />
    <path
       d="m 94.401301,81.534344 c 0,0 -2.62646,4.64631 0.349982,5.04208 2.976264,0.39577 5.681877,-1.48015 6.042867,-4.19197 0.36045,-2.71005 -1.760029,-5.22843 -4.73647,-5.6242 -2.976442,-0.39755 -1.656379,4.77409 -1.656379,4.77409"
       style="fill:#f9951e;fill-opacity:1;fill-rule:nonzero;stroke:none;stroke-width:0.03527778"
       id="path172"
       inkscape:connector-curvature="0" />
    <path
       d="m 110.38368,83.662274 c 0,0 1.32024,5.16986 -1.65656,4.77409 -2.97608,-0.39577 -5.09674,-2.91415 -4.73611,-5.62597 0.36099,-2.71005 3.06607,-4.58774 6.04269,-4.1902 2.97662,0.39577 0.34998,5.04208 0.34998,5.04208"
       style="fill:#f9951e;fill-opacity:1;fill-rule:nonzero;stroke:none;stroke-width:0.03527778"
       id="path174"
       inkscape:connector-curvature="0" />
    <path
       d="m 104.35555,82.929304 c -0.17145,1.28847 -1.2292,2.20957 -2.36274,2.05871 -1.13335,-0.15085 -1.91336,-1.31687 -1.74192,-2.60534 0.17127,-1.28847 1.22902,-2.20957 2.36291,-2.05871 1.13354,0.15085 1.91337,1.31687 1.74175,2.60534"
       style="fill:#f9951e;fill-opacity:1;fill-rule:nonzero;stroke:none;stroke-width:0.03527778"
       id="path176"
       inkscape:connector-curvature="0" />
    <path
       d="m 125.79121,147.29078 c -0.59259,1.18021 -0.24686,3.16971 0.38087,4.17245 1.06609,1.70199 3.17042,1.92029 4.2555,0.42062 0.48611,-0.67086 -3.02276,-2.93722 -4.63637,-4.59307"
       style="fill:#ffb8b6;fill-opacity:1;fill-rule:nonzero;stroke:none;stroke-width:0.03527778"
       id="path178"
       inkscape:connector-curvature="0" />
    <path
       d="m 126.58737,149.56424 c -0.15973,0.63891 0.37039,1.72329 0.90743,2.27347 0.9124,0.93174 2.20088,1.05952 2.60197,0.25023 0.17996,-0.36382 -2.27843,-1.61502 -3.5094,-2.5237"
       style="fill:#e08686;fill-opacity:1;fill-rule:nonzero;stroke:none;stroke-width:0.03527778"
       id="path180"
       inkscape:connector-curvature="0" />
    <path
       d="m 145.19301,147.27659 c 0.58106,1.18731 0.21652,3.17325 -0.42061,4.1689 -1.08243,1.68956 -3.18871,1.88301 -4.25942,0.37092 -0.47953,-0.67618 3.05027,-2.9035 4.68003,-4.53982"
       style="fill:#ffb8b6;fill-opacity:1;fill-rule:nonzero;stroke:none;stroke-width:0.03527778"
       id="path182"
       inkscape:connector-curvature="0" />
    <path
       d="m 144.37503,149.5394 c 0.15387,0.64246 -0.38654,1.72151 -0.92891,2.26459 -0.92127,0.92109 -2.21046,1.03468 -2.60427,0.22006 -0.17659,-0.3656 2.29369,-1.5884 3.53318,-2.48465"
       style="fill:#e08686;fill-opacity:1;fill-rule:nonzero;stroke:none;stroke-width:0.03527778"
       id="path184"
       inkscape:connector-curvature="0" />
    <path
       d="m 142.57986,162.39927 c -2.54144,2.75442 -9.2399,3.39688 -13.02031,0.93352 -3.01477,-1.96288 -3.2959,-5.55143 -0.98871,-9.45767 2.08462,-3.52821 6.15484,-5.80877 10.42721,-3.54951 3.24514,1.71619 7.50207,7.8249 3.58181,12.07366"
       style="fill:#ffb8b6;fill-opacity:1;fill-rule:nonzero;stroke:none;stroke-width:0.03527778"
       id="path186"
       inkscape:connector-curvature="0" />
    <path
       d="m 139.33987,158.92785 c -0.10489,0.42772 -0.53207,0.68683 -0.95393,0.58035 -0.42168,-0.10649 -0.67831,-0.53953 -0.57325,-0.96725 0.10507,-0.42771 0.53208,-0.68683 0.95394,-0.58034 0.42185,0.10649 0.67831,0.53952 0.57324,0.96724"
       style="fill:#773733;fill-opacity:1;fill-rule:nonzero;stroke:none;stroke-width:0.03527778"
       id="path188"
       inkscape:connector-curvature="0" />
    <path
       d="m 133.18147,158.80007 c -0.10506,0.42594 -0.53207,0.68683 -0.95393,0.58034 -0.42168,-0.10826 -0.67831,-0.5413 -0.57307,-0.96724 0.10489,-0.42771 0.53207,-0.68861 0.95376,-0.58212 0.42185,0.10826 0.67831,0.5413 0.57324,0.96902"
       style="fill:#773733;fill-opacity:1;fill-rule:nonzero;stroke:none;stroke-width:0.03527778"
       id="path190"
       inkscape:connector-curvature="0" />
    <path
       d="m 140.06593,153.87512 c -0.0864,0.20232 -0.41867,0.25202 -0.74221,0.10826 -0.32318,-0.14198 -0.51486,-0.42061 -0.42825,-0.62293 0.0866,-0.20233 0.41884,-0.25202 0.74185,-0.11004 0.323,0.14198 0.51521,0.42239 0.42861,0.62471"
       style="fill:#8e4d4c;fill-opacity:1;fill-rule:nonzero;stroke:none;stroke-width:0.03527778"
       id="path192"
       inkscape:connector-curvature="0" />
    <path
       d="m 132.43945,153.47048 c 0.0479,0.21474 -0.19185,0.45256 -0.53527,0.53065 -0.3436,0.0781 -0.6611,-0.0319 -0.70902,-0.24669 -0.0481,-0.21652 0.19168,-0.45434 0.53509,-0.53243 0.34395,-0.0781 0.6611,0.0319 0.7092,0.24847"
       style="fill:#8e4d4c;fill-opacity:1;fill-rule:nonzero;stroke:none;stroke-width:0.03527778"
       id="path194"
       inkscape:connector-curvature="0" />
    <path
       d="m 138.6392,161.20841 c 0.19167,1.49967 -1.22104,3.05436 -3.40664,3.04015 -1.83972,-0.0107 -3.74332,-1.91318 -2.97698,-3.47319 0.8423,-1.71619 6.09611,-1.8209 6.38362,0.43304"
       style="fill:#fff0f0;fill-opacity:1;fill-rule:nonzero;stroke:none;stroke-width:0.03527778"
       id="path196"
       inkscape:connector-curvature="0" />
    <path
       d="m 136.51109,161.6663 c -0.1198,0.0213 -0.249,0.0178 -0.38317,-0.0107 -0.30188,-0.0674 -0.60466,-0.27153 -0.77415,-0.57856 -0.13399,0.27686 -0.37163,0.5271 -0.6492,0.64245 -0.38317,0.15973 -0.75924,0.0444 -1.03238,-0.31945 -0.0413,-0.055 -0.0307,-0.13311 0.0234,-0.1757 0.0531,-0.0408 0.13151,-0.0319 0.17304,0.0231 0.26,0.34785 0.54715,0.32123 0.74149,0.24137 0.32727,-0.13666 0.5949,-0.51646 0.6114,-0.84124 -0.004,-0.0408 -0.005,-0.0816 -0.005,-0.12423 5.1e-4,-0.0657 0.049,-0.11891 0.11589,-0.12246 0.0648,-0.004 0.12104,0.0426 0.13009,0.10826 0.006,0.0408 0.008,0.0852 0.006,0.12956 0.0461,0.43304 0.3885,0.70103 0.71133,0.77202 0.24828,0.055 0.56384,0 0.70032,-0.31768 0.0272,-0.0657 0.10045,-0.0923 0.16239,-0.0657 0.0625,0.0284 0.0912,0.10116 0.0639,0.16505 -0.11181,0.25912 -0.32904,0.42594 -0.59561,0.47386"
       style="fill:#8e4d4c;fill-opacity:1;fill-rule:nonzero;stroke:none;stroke-width:0.03527778"
       id="path198"
       inkscape:connector-curvature="0" />
    <path
       d="m 136.36148,159.84718 c 0.0131,0.43481 -0.80468,0.8075 -1.02333,0.77733 -0.26763,-0.0373 -1.00965,-0.37624 -1.02279,-0.81106 -0.0131,-0.43481 2.03281,-0.40109 2.04612,0.0337"
       style="fill:#773733;fill-opacity:1;fill-rule:nonzero;stroke:none;stroke-width:0.03527778"
       id="path200"
       inkscape:connector-curvature="0" />
    <path
       d="M 79.140183,252.81238 H 169.82945 V 201.81836 H 79.140183 v 50.99402"
       style="fill:#ffb061;fill-opacity:1;fill-rule:nonzero;stroke:none;stroke-width:0.03527778"
       id="path202"
       inkscape:connector-curvature="0" />
    <path
       d="M 79.824351,252.42017 H 169.22036 V 202.85463 H 79.824351 v 49.56554"
       style="fill:#d86e1e;fill-opacity:1;fill-rule:nonzero;stroke:none;stroke-width:0.03527778"
       id="path204"
       inkscape:connector-curvature="0" />
    <path
       d="m 190.02084,270.40553 -20.19139,-17.59315 v -50.99402 l 20.19139,17.62153 v 50.96564"
       style="fill:#ffb061;fill-opacity:1;fill-rule:nonzero;stroke:none;stroke-width:0.03527778"
       id="path206"
       inkscape:connector-curvature="0" />
    <path
       d="m 188.21059,270.40553 -18.99023,-16.60637 v -50.94453 l 18.99023,16.55687 v 50.99403"
       style="fill:#b75811;fill-opacity:1;fill-rule:nonzero;stroke:none;stroke-width:0.03527778"
       id="path208"
       inkscape:connector-curvature="0" />
    <path
       d="M 98.162539,269.40102 H 188.85181 V 218.40698 H 98.162539 v 50.99404"
       style="fill:#ffb061;fill-opacity:1;fill-rule:nonzero;stroke:none;stroke-width:0.03527778"
       id="path210"
       inkscape:connector-curvature="0" />
    <path
       d="m 108.67175,202.24447 c 0,9.9081 3.53159,15.31242 5.34539,15.31242 1.81379,0 5.34538,-5.40432 5.34538,-15.31242 0,-9.90579 -3.53159,-15.30939 -5.34538,-15.30939 -1.8138,0 -5.34539,5.4036 -5.34539,15.30939 z m -5.43022,0 c 0,-11.82377 4.63123,-20.73996 10.77561,-20.73996 6.14437,0 10.7756,8.91619 10.7756,20.73996 0,11.82324 -4.63123,20.74138 -10.7756,20.74138 -6.14438,0 -10.77561,-8.91814 -10.77561,-20.74138"
       style="fill:#591c09;fill-opacity:1;fill-rule:nonzero;stroke:none;stroke-width:0.03527778"
       id="path212"
       inkscape:connector-curvature="0" />
    <path
       d="M 100.96008,270.38245 80.768698,252.78931 79.583872,201.818 l 1.184826,-0.0231 20.191382,17.5935 v 50.99402"
       style="fill:#ffa95c;fill-opacity:1;fill-rule:nonzero;stroke:none;stroke-width:0.03527778"
       id="path214"
       inkscape:connector-curvature="0" />
    <path
       d="M 124.24505,219.43989 104.05366,201.81836 H 79.140183 l 20.191387,17.62153 h 24.91348"
       style="fill:#ffb061;fill-opacity:1;fill-rule:nonzero;stroke:none;stroke-width:0.03527778"
       id="path216"
       inkscape:connector-curvature="0" />
    <path
       d="M 119.77604,215.50704 104.05366,201.81836 H 79.140183 l 20.191387,17.62153 20.44447,-3.93285"
       style="fill:#ef9341;fill-opacity:1;fill-rule:nonzero;stroke:none;stroke-width:0.03527778"
       id="path218"
       inkscape:connector-curvature="0" />
    <path
       d="M 99.33157,270.40553 79.140183,252.81238 v -50.99402 l 20.191387,17.62153 v 50.96564"
       style="fill:#db7e2a;fill-opacity:1;fill-rule:nonzero;stroke:none;stroke-width:0.03527778"
       id="path220"
       inkscape:connector-curvature="0" />
    <path
       d="m 99.33157,270.40553 h 90.68927 V 219.43989 H 99.33157 v 50.96564"
       style="fill:#ef9341;fill-opacity:1;fill-rule:nonzero;stroke:none;stroke-width:0.03527778"
       id="path222"
       inkscape:connector-curvature="0" />
    <path
       d="m 122.15172,199.49822 0.36951,1.09023 -21.56115,18.79998 -1.62851,0.0515 22.82015,-19.94167"
       style="fill:#e8883a;fill-opacity:1;fill-rule:nonzero;stroke:none;stroke-width:0.03527778"
       id="path224"
       inkscape:connector-curvature="0" />
    <path
       d="m 122.15172,199.49822 -22.364925,-15.7238 -20.646612,18.04394 20.191387,17.62153 22.82015,-19.94167"
       style="fill:#ffa95c;fill-opacity:1;fill-rule:nonzero;stroke:none;stroke-width:0.03527778"
       id="path226"
       inkscape:connector-curvature="0" />
    <path
       d="M 98.611907,188.21699 84.863058,200.2303 c -0.333299,0.2939 -0.528168,0.72481 -0.528168,1.18057 0,0.45771 0.194869,0.88862 0.528168,1.18252 l 13.263631,11.55596 c 0.563308,0.48273 1.364963,0.48805 1.928091,0.002 l 15.17008,-13.24336 c 0.35956,-0.31217 0.55035,-0.77201 0.52852,-1.25936 -0.0259,-0.48894 -0.26426,-0.9266 -0.65435,-1.20062 l -14.68894,-10.32739 c -0.25131,-0.1773 -0.545739,-0.26498 -0.835911,-0.26498 -0.346964,0 -0.689137,0.1214 -0.962272,0.36135 z M 97.702167,214.67823 84.4341,203.12102 c -0.485219,-0.42665 -0.766694,-1.04799 -0.762258,-1.71015 0,-0.65985 0.277039,-1.28137 0.762258,-1.70554 l 13.744767,-12.01332 c 0.732087,-0.64388 1.802264,-0.70262 2.603743,-0.14127 l 14.68911,10.32766 c 0.56757,0.39719 0.9101,1.03025 0.94435,1.73695 0.035,0.70493 -0.24261,1.36923 -0.76669,1.82019 l -15.1699,13.24269 c -0.40304,0.34963 -0.89696,0.52533 -1.386437,0.52533 -0.493914,0 -0.987829,-0.1757 -1.390876,-0.52533"
       style="fill:#db7e2a;fill-opacity:1;fill-rule:nonzero;stroke:none;stroke-width:0.03527778"
       id="path228"
       inkscape:connector-curvature="0" />
    <path
       d="m 154.47267,256.6423 c 0,7.98995 6.40509,14.46603 14.30613,14.46603 7.90138,0 14.30665,-6.47608 14.30665,-14.46603 0,-7.98994 -6.40527,-14.4678 -14.30665,-14.4678 -7.90104,0 -14.30613,6.47786 -14.30613,14.4678"
       style="fill:#ffb061;fill-opacity:1;fill-rule:nonzero;stroke:none;stroke-width:0.03527778"
       id="path230"
       inkscape:connector-curvature="0" />
    <path
       d="m 156.00553,257.33268 c 0,7.90121 6.40527,14.3063 14.30612,14.3063 7.90156,0 14.30648,-6.40509 14.30648,-14.3063 0,-7.9012 -6.40492,-14.30629 -14.30648,-14.30629 -7.90085,0 -14.30612,6.40509 -14.30612,14.30629"
       style="fill:#c66618;fill-opacity:1;fill-rule:nonzero;stroke:none;stroke-width:0.03527778"
       id="path232"
       inkscape:connector-curvature="0" />
    <path
       d="m 164.52098,257.33268 c 0,3.19812 2.59274,5.79103 5.79067,5.79103 3.19811,0 5.79067,-2.59291 5.79067,-5.79103 0,-3.19809 -2.59256,-5.79101 -5.79067,-5.79101 -3.19793,0 -5.79067,2.59292 -5.79067,5.79101"
       style="fill:#ef9341;fill-opacity:1;fill-rule:nonzero;stroke:none;stroke-width:0.03527778"
       id="path234"
       inkscape:connector-curvature="0" />
    <path
       d="m 169.36766,261.75359 c 3.19279,0 5.78073,-2.58936 5.78073,-5.78213 0,-0.95837 -0.25503,-1.84752 -0.66749,-2.64262 0.99937,1.04001 1.62142,2.44739 1.62142,4.00384 0,3.19812 -2.59256,5.79103 -5.79067,5.79103 -2.27346,0 -4.22143,-1.32397 -5.16897,-3.23005 1.05562,1.13762 2.55103,1.85993 4.22498,1.85993"
       style="fill:#ffb061;fill-opacity:1;fill-rule:nonzero;stroke:none;stroke-width:0.03527778"
       id="path236"
       inkscape:connector-curvature="0" />
    <path
       d="m 105.75672,256.6423 c 0,7.98995 6.40509,14.46603 14.30612,14.46603 7.90139,0 14.30665,-6.47608 14.30665,-14.46603 0,-7.98994 -6.40526,-14.4678 -14.30665,-14.4678 -7.90103,0 -14.30612,6.47786 -14.30612,14.4678"
       style="fill:#ffb061;fill-opacity:1;fill-rule:nonzero;stroke:none;stroke-width:0.03527778"
       id="path238"
       inkscape:connector-curvature="0" />
    <path
       d="m 107.28957,257.33268 c 0,7.90121 6.40509,14.3063 14.30612,14.3063 7.90139,0 14.30648,-6.40509 14.30648,-14.3063 0,-7.9012 -6.40509,-14.30629 -14.30648,-14.30629 -7.90103,0 -14.30612,6.40509 -14.30612,14.30629"
       style="fill:#c66618;fill-opacity:1;fill-rule:nonzero;stroke:none;stroke-width:0.03527778"
       id="path240"
       inkscape:connector-curvature="0" />
    <path
       d="m 115.80502,257.33268 c 0,3.19812 2.59257,5.79103 5.79067,5.79103 3.19847,0 5.79067,-2.59291 5.79067,-5.79103 0,-3.19809 -2.59274,-5.79101 -5.79067,-5.79101 -3.1981,0 -5.79067,2.59292 -5.79067,5.79101"
       style="fill:#ef9341;fill-opacity:1;fill-rule:nonzero;stroke:none;stroke-width:0.03527778"
       id="path242"
       inkscape:connector-curvature="0" />
    <path
       d="m 120.6517,261.75359 c 3.19278,0 5.78073,-2.58936 5.78073,-5.78213 0,-0.95837 -0.25521,-1.84752 -0.66748,-2.64262 0.99936,1.04001 1.62141,2.44739 1.62141,4.00384 0,3.19812 -2.5922,5.79103 -5.79067,5.79103 -2.27364,0 -4.22143,-1.32397 -5.16897,-3.23005 1.05562,1.13762 2.55103,1.85993 4.22498,1.85993"
       style="fill:#ffb061;fill-opacity:1;fill-rule:nonzero;stroke:none;stroke-width:0.03527778"
       id="path244"
       inkscape:connector-curvature="0" />
    <path
       d="m 84.452735,222.93439 c -2.137515,1.37366 -3.247092,11.9441 -3.283475,19.41581 -0.0039,0.15086 0.06531,0.30527 0.174636,0.40465 l 12.316089,10.897 c 0.181558,0.16149 0.411033,0.15084 0.556918,0.0834 0.189367,-0.0852 0.298515,-0.25557 0.294788,-0.45789 -0.167359,-14.34536 -2.600904,-28.34639 -7.061928,-30.36784 -0.564194,-0.25733 -1.095911,-0.38335 -1.587695,-0.38335 -0.509888,0 -0.983037,0.13666 -1.409333,0.4082 z m 8.835616,31.1363 -12.316088,-10.897 c -0.232671,-0.20764 -0.367729,-0.52001 -0.363825,-0.82881 0.0252,-5.42187 0.588863,-17.98537 3.542411,-19.87902 1.015692,-0.65135 2.203003,-0.66554 3.532116,-0.0657 4.741437,2.14923 7.214912,16.0846 7.389726,30.87009 0.0036,0.42417 -0.233381,0.79687 -0.622939,0.97257 -0.145352,0.0674 -0.298691,0.10116 -0.451321,0.10116 -0.255032,0 -0.506514,-0.0923 -0.71008,-0.27331"
       style="fill:#bc590f;fill-opacity:1;fill-rule:nonzero;stroke:none;stroke-width:0.03527778"
       id="path246"
       inkscape:connector-curvature="0" />
    <path
       d="m 82.573979,244.41425 h 0.604304 v -19.08749 h -0.604304 v 19.08749"
       style="fill:#bc590f;fill-opacity:1;fill-rule:nonzero;stroke:none;stroke-width:0.03527778"
       id="path248"
       inkscape:connector-curvature="0" />
    <path
       d="m 91.861271,252.73252 h 0.600933 v -22.40095 h -0.600933 v 22.40095"
       style="fill:#bc590f;fill-opacity:1;fill-rule:nonzero;stroke:none;stroke-width:0.03527778"
       id="path250"
       inkscape:connector-curvature="0" />
    <path
       d="m 89.59349,250.62944 h 0.592058 V 224.83692 H 89.59349 v 25.79252"
       style="fill:#bc590f;fill-opacity:1;fill-rule:nonzero;stroke:none;stroke-width:0.03527778"
       id="path252"
       inkscape:connector-curvature="0" />
    <path
       d="m 87.044054,248.30805 h 0.589042 v -25.74281 h -0.589042 v 25.74281"
       style="fill:#bc590f;fill-opacity:1;fill-rule:nonzero;stroke:none;stroke-width:0.03527778"
       id="path254"
       inkscape:connector-curvature="0" />
    <path
       d="m 84.771303,246.36825 h 0.588509 v -24.14377 h -0.588509 v 24.14377"
       style="fill:#bc590f;fill-opacity:1;fill-rule:nonzero;stroke:none;stroke-width:0.03527778"
       id="path256"
       inkscape:connector-curvature="0" />
  </g>
</svg>
