<?xml version="1.0" encoding="UTF-8" standalone="no"?>
<!-- Created with Inkscape (http://www.inkscape.org/) -->

<svg
   xmlns:dc="http://purl.org/dc/elements/1.1/"
   xmlns:cc="http://creativecommons.org/ns#"
   xmlns:rdf="http://www.w3.org/1999/02/22-rdf-syntax-ns#"
   xmlns:svg="http://www.w3.org/2000/svg"
   xmlns="http://www.w3.org/2000/svg"
   xmlns:sodipodi="http://sodipodi.sourceforge.net/DTD/sodipodi-0.dtd"
   xmlns:inkscape="http://www.inkscape.org/namespaces/inkscape"
   width="1000"
   height="1000"
   viewBox="0 0 264.58333 264.58334"
   version="1.1"
   id="svg2383"
   inkscape:version="0.92.5 (2060ec1f9f, 2020-04-08)"
   sodipodi:docname="between.svg"
   enable-background="new">
  <defs
     id="defs2377">
    <clipPath
       clipPathUnits="userSpaceOnUse"
       id="clipPath354">
      <path
         d="m 31307.7,14127.1 c -0.1,0 -0.1,0 -0.2,0 -609.8,0 -1203.1,260.3 -1614.8,726.2 v 0 c 411.7,-465.9 1005,-726.2 1614.8,-726.2 0.1,0 0.1,0 0.2,0 164.1,0 329.4,18.8 492.7,57.6 v 0 c -163.3,-38.8 -328.6,-57.6 -492.7,-57.6"
         id="path352"
         inkscape:connector-curvature="0" />
    </clipPath>
    <clipPath
       clipPathUnits="userSpaceOnUse"
       id="clipPath1664">
      <path
         d="M 9698.17,8491.28 7200.76,7969.5 c -86.98,172.77 -134.15,299.46 -12.67,473.38 l 2497.04,535.6 c -27.86,-156.16 -22.4,-347.1 13.04,-487.2 z"
         id="path1662"
         inkscape:connector-curvature="0" />
    </clipPath>
    <clipPath
       clipPathUnits="userSpaceOnUse"
       id="clipPath304">
      <path
         d="m 20986,8431.61 -2472.3,-630.05 c -94.4,168.82 -215.5,1863.91 -101.7,2042.96 l 2471.3,643.78 c -21,-157.2 61.2,-1918.28 102.7,-2056.69 z"
         id="path302"
         inkscape:connector-curvature="0" />
    </clipPath>
    <clipPath
       clipPathUnits="userSpaceOnUse"
       id="clipPath562">
      <path
         d="m 8410.68,3714.5 c -959.12,0 -1736.65,66.2 -1736.65,147.9 0,81.7 777.53,147.9 1736.65,147.9 959.13,0 1736.62,-66.2 1736.62,-147.9 0,-81.7 -777.49,-147.9 -1736.62,-147.9"
         id="path560"
         inkscape:connector-curvature="0" />
    </clipPath>
  </defs>
  <sodipodi:namedview
     id="base"
     pagecolor="#ffffff"
     bordercolor="#666666"
     borderopacity="1.0"
     inkscape:pageopacity="0.0"
     inkscape:pageshadow="2"
     inkscape:zoom="0.70710678"
     inkscape:cx="467.13112"
     inkscape:cy="478.64603"
     inkscape:document-units="px"
     inkscape:current-layer="layer1"
     showgrid="false"
     units="px"
     inkscape:window-width="1920"
     inkscape:window-height="1031"
     inkscape:window-x="0"
     inkscape:window-y="25"
     inkscape:window-maximized="1"
     showguides="true"
     inkscape:lockguides="true"
     inkscape:object-nodes="false"
     inkscape:snap-nodes="false"
     inkscape:snap-others="false" />
  <metadata
     id="metadata2380">
    <rdf:RDF>
      <cc:Work
         rdf:about="">
        <dc:format>image/svg+xml</dc:format>
        <dc:type
           rdf:resource="http://purl.org/dc/dcmitype/StillImage" />
        <dc:title></dc:title>
      </cc:Work>
    </rdf:RDF>
  </metadata>
  <g
     inkscape:groupmode="layer"
     id="layer3"
     inkscape:label="Layer 2" />
  <g
     inkscape:groupmode="layer"
     id="layer2"
     inkscape:label="Layer 3" />
  <g
     inkscape:label="Layer 1"
     inkscape:groupmode="layer"
     id="layer1"
     transform="translate(0,-32.41665)">
    <text
       xml:space="preserve"
       style="font-style:normal;font-variant:normal;font-weight:bold;font-stretch:normal;font-size:10.58333302px;line-height:1.25;font-family:sans-serif;-inkscape-font-specification:'sans-serif Bold';letter-spacing:0px;word-spacing:0px;fill:#000000;fill-opacity:1;stroke:none;stroke-width:0.26458332"
       x="150.05655"
       y="89.869026"
       id="text8811" />
    <text
       xml:space="preserve"
       style="font-style:normal;font-variant:normal;font-weight:bold;font-stretch:normal;font-size:10.58333302px;line-height:1.25;font-family:sans-serif;-inkscape-font-specification:'sans-serif Bold';letter-spacing:0px;word-spacing:0px;fill:#000000;fill-opacity:1;stroke:none;stroke-width:0.26458332"
       x="160.63989"
       y="97.806526"
       id="text8815" />
    <text
       xml:space="preserve"
       style="font-style:normal;font-variant:normal;font-weight:bold;font-stretch:normal;font-size:10.58333302px;line-height:1.25;font-family:sans-serif;-inkscape-font-specification:'sans-serif Bold';letter-spacing:0px;word-spacing:0px;fill:#000000;fill-opacity:1;stroke:none;stroke-width:0.26458332"
       x="156.86011"
       y="88.7351"
       id="text8819" />
    <flowRoot
       xml:space="preserve"
       id="flowRoot8821"
       style="font-style:normal;font-variant:normal;font-weight:bold;font-stretch:normal;font-size:40px;line-height:1.25;font-family:sans-serif;-inkscape-font-specification:'sans-serif Bold';letter-spacing:0px;word-spacing:0px;fill:#000000;fill-opacity:1;stroke:none"><flowRegion
         id="flowRegion8823"
         style="font-style:normal;font-variant:normal;font-weight:bold;font-stretch:normal;font-family:sans-serif;-inkscape-font-specification:'sans-serif Bold'" /><flowPara
         id="flowPara8827" /></flowRoot>    <flowRoot
       xml:space="preserve"
       id="flowRoot8829"
       style="font-style:normal;font-variant:normal;font-weight:bold;font-stretch:normal;font-size:40px;line-height:1.25;font-family:sans-serif;-inkscape-font-specification:'sans-serif Bold';letter-spacing:0px;word-spacing:0px;fill:#000000;fill-opacity:1;stroke:none"><flowRegion
         id="flowRegion8831"
         style="font-style:normal;font-variant:normal;font-weight:bold;font-stretch:normal;font-family:sans-serif;-inkscape-font-specification:'sans-serif Bold'" /><flowPara
         id="flowPara8835" /></flowRoot>    <flowRoot
       xml:space="preserve"
       id="flowRoot8837"
       style="font-style:normal;font-variant:normal;font-weight:bold;font-stretch:normal;font-size:40px;line-height:1.25;font-family:sans-serif;-inkscape-font-specification:'sans-serif Bold';letter-spacing:0px;word-spacing:0px;fill:#000000;fill-opacity:1;stroke:none"><flowRegion
         id="flowRegion8839"
         style="font-style:normal;font-variant:normal;font-weight:bold;font-stretch:normal;font-family:sans-serif;-inkscape-font-specification:'sans-serif Bold'" /><flowPara
         id="flowPara8843" /></flowRoot>    <text
       xml:space="preserve"
       style="font-style:normal;font-variant:normal;font-weight:bold;font-stretch:normal;font-size:10.58333302px;line-height:1.25;font-family:sans-serif;-inkscape-font-specification:'sans-serif Bold';letter-spacing:0px;word-spacing:0px;fill:#000000;fill-opacity:1;stroke:none;stroke-width:0.26458332"
       x="209.39882"
       y="107.25594"
       id="text8847" />
    <flowRoot
       xml:space="preserve"
       id="flowRoot8849"
       style="font-style:normal;font-variant:normal;font-weight:bold;font-stretch:normal;font-size:40px;line-height:1.25;font-family:sans-serif;-inkscape-font-specification:'sans-serif Bold';letter-spacing:0px;word-spacing:0px;fill:#000000;fill-opacity:1;stroke:none"><flowRegion
         id="flowRegion8851"
         style="font-style:normal;font-variant:normal;font-weight:bold;font-stretch:normal;font-family:sans-serif;-inkscape-font-specification:'sans-serif Bold'" /><flowPara
         id="flowPara8855" /></flowRoot>    <flowRoot
       xml:space="preserve"
       id="flowRoot8857"
       style="font-style:normal;font-variant:normal;font-weight:bold;font-stretch:normal;font-size:40px;line-height:1.25;font-family:sans-serif;-inkscape-font-specification:'sans-serif Bold';letter-spacing:0px;word-spacing:0px;fill:#000000;fill-opacity:1;stroke:none"><flowRegion
         id="flowRegion8859"
         style="font-style:normal;font-variant:normal;font-weight:bold;font-stretch:normal;font-family:sans-serif;-inkscape-font-specification:'sans-serif Bold'" /><flowPara
         id="flowPara8863" /></flowRoot>    <flowRoot
       xml:space="preserve"
       id="flowRoot8865"
       style="font-style:normal;font-variant:normal;font-weight:bold;font-stretch:normal;font-size:40px;line-height:1.25;font-family:sans-serif;-inkscape-font-specification:'sans-serif Bold';letter-spacing:0px;word-spacing:0px;fill:#000000;fill-opacity:1;stroke:none"><flowRegion
         id="flowRegion8867"
         style="font-style:normal;font-variant:normal;font-weight:bold;font-stretch:normal;font-family:sans-serif;-inkscape-font-specification:'sans-serif Bold'" /><flowPara
         id="flowPara8871" /></flowRoot>    <flowRoot
       xml:space="preserve"
       id="flowRoot8873"
       style="font-style:normal;font-variant:normal;font-weight:bold;font-stretch:normal;font-size:40px;line-height:1.25;font-family:sans-serif;-inkscape-font-specification:'sans-serif Bold';letter-spacing:0px;word-spacing:0px;fill:#000000;fill-opacity:1;stroke:none"><flowRegion
         id="flowRegion8875"
         style="font-style:normal;font-variant:normal;font-weight:bold;font-stretch:normal;font-family:sans-serif;-inkscape-font-specification:'sans-serif Bold'" /><flowPara
         id="flowPara8879" /></flowRoot>    <text
       xml:space="preserve"
       style="font-style:normal;font-weight:normal;font-size:10.58333302px;line-height:1.25;font-family:sans-serif;letter-spacing:0px;word-spacing:0px;fill:#000000;fill-opacity:1;stroke:none;stroke-width:0.26458332"
       x="101.02788"
       y="69.125984"
       id="text977"><tspan
         sodipodi:role="line"
         id="tspan975"
         x="101.02788"
         y="78.489754"
         style="stroke-width:0.26458332" /><tspan
         sodipodi:role="line"
         x="101.02788"
         y="91.718918"
         style="stroke-width:0.26458332"
         id="tspan979" /><tspan
         sodipodi:role="line"
         x="101.02788"
         y="104.94809"
         style="stroke-width:0.26458332"
         id="tspan981" /><tspan
         sodipodi:role="line"
         x="101.02788"
         y="118.17725"
         style="stroke-width:0.26458332"
         id="tspan983" /><tspan
         sodipodi:role="line"
         x="101.02788"
         y="131.40642"
         style="stroke-width:0.26458332"
         id="tspan985" /><tspan
         sodipodi:role="line"
         x="101.02788"
         y="144.63559"
         style="stroke-width:0.26458332"
         id="tspan987" /><tspan
         sodipodi:role="line"
         x="101.02788"
         y="157.86475"
         style="stroke-width:0.26458332"
         id="tspan989" /><tspan
         sodipodi:role="line"
         x="101.02788"
         y="171.09392"
         style="stroke-width:0.26458332"
         id="tspan991" /><tspan
         sodipodi:role="line"
         x="101.02788"
         y="184.32309"
         style="stroke-width:0.26458332"
         id="tspan993" /><tspan
         sodipodi:role="line"
         x="101.02788"
         y="197.55225"
         style="stroke-width:0.26458332"
         id="tspan995" /><tspan
         sodipodi:role="line"
         x="101.02788"
         y="210.78142"
         style="stroke-width:0.26458332"
         id="tspan997" /><tspan
         sodipodi:role="line"
         x="101.02788"
         y="224.01059"
         style="stroke-width:0.26458332"
         id="tspan999" /><tspan
         sodipodi:role="line"
         x="101.02788"
         y="237.23975"
         style="stroke-width:0.26458332"
         id="tspan1001" /><tspan
         sodipodi:role="line"
         x="101.02788"
         y="250.46892"
         style="stroke-width:0.26458332"
         id="tspan1003" /><tspan
         sodipodi:role="line"
         x="101.02788"
         y="263.69809"
         style="stroke-width:0.26458332"
         id="tspan1005" /><tspan
         sodipodi:role="line"
         x="101.02788"
         y="276.92725"
         style="stroke-width:0.26458332"
         id="tspan1007" /><tspan
         sodipodi:role="line"
         x="101.02788"
         y="290.1564"
         style="stroke-width:0.26458332"
         id="tspan1009" /><tspan
         sodipodi:role="line"
         x="101.02788"
         y="303.38559"
         style="stroke-width:0.26458332"
         id="tspan1011" /><tspan
         sodipodi:role="line"
         x="101.02788"
         y="316.61475"
         style="stroke-width:0.26458332"
         id="tspan1013" /><tspan
         sodipodi:role="line"
         x="101.02788"
         y="329.8439"
         style="stroke-width:0.26458332"
         id="tspan1015" /><tspan
         sodipodi:role="line"
         x="101.02788"
         y="343.07309"
         style="stroke-width:0.26458332"
         id="tspan1017" /><tspan
         sodipodi:role="line"
         x="101.02788"
         y="356.30225"
         style="stroke-width:0.26458332"
         id="tspan1019" /><tspan
         sodipodi:role="line"
         x="101.02788"
         y="369.5314"
         style="stroke-width:0.26458332"
         id="tspan1021" /><tspan
         sodipodi:role="line"
         x="101.02788"
         y="382.76059"
         style="stroke-width:0.26458332"
         id="tspan1023" /></text>
    <path
       d="M 25.285016,239.73097 H 98.019682 V 193.81126 H 25.285016 Z"
       style="fill:#ffb061;fill-opacity:1;fill-rule:nonzero;stroke:none;stroke-width:0.03527778"
       id="path338"
       inkscape:connector-curvature="0" />
    <path
       d="M 25.853232,239.37761 H 97.381466 V 194.74428 H 25.853232 Z"
       style="fill:#c66618;fill-opacity:1;fill-rule:nonzero;stroke:none;stroke-width:0.03527778"
       id="path340"
       inkscape:connector-curvature="0" />
    <path
       d="M 6.4510338,255.57411 25.285016,239.73097 V 193.81126 L 6.4510338,209.65364 v 45.92047"
       style="fill:#ffb061;fill-opacity:1;fill-rule:nonzero;stroke:none;stroke-width:0.03527778"
       id="path346"
       inkscape:connector-curvature="0" />
    <path
       d="M 8.1397314,255.57411 25.853232,240.61915 V 194.74428 L 8.1397314,209.65364 v 45.92047"
       style="fill:#b75811;fill-opacity:1;fill-rule:nonzero;stroke:none;stroke-width:0.03527778"
       id="path348"
       inkscape:connector-curvature="0" />
    <path
       d="M 7.5413013,254.66774 H 80.27578 V 208.74896 H 7.5413013 Z"
       style="fill:#ffb061;fill-opacity:1;fill-rule:nonzero;stroke:none;stroke-width:0.03527778"
       id="path350"
       inkscape:connector-curvature="0" />
    <path
       d="m 77.66625,255.55348 18.834178,-15.84334 1.105466,-45.89964 -1.105466,-0.0203 -18.834178,15.84296 v 45.92029"
       style="fill:#ffa95c;fill-opacity:1;fill-rule:nonzero;stroke:none;stroke-width:0.03527778"
       id="path352-2"
       inkscape:connector-curvature="0" />
    <path
       d="m 79.185696,255.57411 18.833986,-15.84314 v -45.91971 l -18.833986,15.84238 v 45.92047"
       style="fill:#db7e2a;fill-opacity:1;fill-rule:nonzero;stroke:none;stroke-width:0.03527778"
       id="path354"
       inkscape:connector-curvature="0" />
    <path
       d="M 6.4510338,255.57411 H 79.185504 V 209.65364 H 6.4510338 Z"
       style="fill:#ef9341;fill-opacity:1;fill-rule:nonzero;stroke:none;stroke-width:0.03527778"
       id="path356"
       inkscape:connector-curvature="0" />
    <path
       d="m 96.058124,214.76349 c -0.0385,1.70672 9.604746,3.45473 -6.50468,3.26538 -1.227083,-0.0144 -2.190123,-1.4333 -2.151845,-3.14022 0.03846,-1.70672 1.064194,-3.06797 2.290707,-3.04057 14.370244,-0.55564 6.404099,1.20869 6.365818,2.91541"
       style="fill:#913a0f;fill-opacity:1;fill-rule:nonzero;stroke:none;stroke-width:0.03527778"
       id="path358"
       inkscape:connector-curvature="0" />
    <path
       d="m 79.179126,240.17441 c 7.03762,-8.81866 16.188046,-22.549 17.800006,-25.66557 -2.209822,1.9169 -15.56166,13.53649 -22.682788,20.87418 -3.416066,3.51965 1.409666,9.14367 4.882782,4.79139"
       style="fill:#ba3c0f;fill-opacity:1;fill-rule:nonzero;stroke:none;stroke-width:0.03527778"
       id="path360"
       inkscape:connector-curvature="0" />
    <path
       d="m 115.63672,197.40372 c -6.45758,6.7385 -16.710853,15.7495 -19.089191,17.41325 1.32916,-2.02235 9.390061,-14.24564 14.624311,-20.89068 2.51083,-3.18751 7.65164,0.15125 4.46488,3.47743"
       style="fill:#ba3c0f;fill-opacity:1;fill-rule:nonzero;stroke:none;stroke-width:0.03527778"
       id="path362"
       inkscape:connector-curvature="0" />
    <path
       d="m 99.974292,214.89729 c -0.140175,3.11038 -1.814435,5.56172 -3.739024,5.47483 -1.924781,-0.0869 -3.371034,-2.67878 -3.23085,-5.78934 0.140175,-3.11058 1.814435,-5.56153 3.739024,-5.47483 1.924772,0.0865 3.371398,2.67877 3.23085,5.78934"
       style="fill:#ffeabb;fill-opacity:1;fill-rule:nonzero;stroke:none;stroke-width:0.03527778"
       id="path364"
       inkscape:connector-curvature="0" />
    <path
       d="m 99.392566,214.81134 c -0.09627,2.14058 -1.248284,3.8276 -2.573131,3.76774 -1.324277,-0.0597 -2.319791,-1.84334 -2.223331,-3.98392 0.09664,-2.14077 1.248651,-3.82779 2.573122,-3.76793 1.324662,0.0598 2.320167,1.84353 2.22334,3.98411"
       style="fill:#ffbb24;fill-opacity:1;fill-rule:nonzero;stroke:none;stroke-width:0.03527778"
       id="path366"
       inkscape:connector-curvature="0" />
    <path
       d="m 57.899622,191.7219 -0.34491,0.98182 20.111538,16.92947 1.519446,0.0205 -21.286074,-17.93174"
       style="fill:#ef9341;fill-opacity:1;fill-rule:nonzero;stroke:none;stroke-width:0.03527778"
       id="path368"
       inkscape:connector-curvature="0" />
    <path
       d="M 57.899622,191.7219 78.760844,177.56278 98.019682,193.81126 79.185696,209.65364 57.899622,191.7219"
       style="fill:#ffa95c;fill-opacity:1;fill-rule:nonzero;stroke:none;stroke-width:0.03527778"
       id="path370"
       inkscape:connector-curvature="0" />
    <path
       d="m 78.959384,181.238 c -0.270787,0 -0.545516,0.0792 -0.780083,0.23851 l -13.701252,9.30018 c -0.364045,0.24639 -0.586043,0.64065 -0.610624,1.08108 -0.02005,0.43873 0.157815,0.85288 0.493344,1.134 l 14.149927,11.92509 c 0.525627,0.43855 1.273055,0.43236 1.798676,-0.002 L 92.681464,194.5094 c 0.31094,-0.26497 0.492774,-0.65304 0.492774,-1.06513 0,-0.41022 -0.181834,-0.7981 -0.492774,-1.06288 l -12.82453,-10.81774 c -0.254834,-0.21618 -0.574224,-0.32559 -0.89755,-0.32559 z m 0.448496,24.62671 c -0.45638,0 -0.917259,-0.15801 -1.292943,-0.4729 L 63.96444,193.46672 c -0.48903,-0.40646 -0.747428,-1.00471 -0.71515,-1.63917 0.03229,-0.63671 0.35129,-1.20624 0.880848,-1.5641 l 13.701623,-9.30018 c 0.747805,-0.50497 1.745945,-0.45244 2.429007,0.12742 l 12.820396,10.81755 c 0.452813,0.38188 0.711585,0.94185 0.711585,1.53596 0.0035,0.59637 -0.258772,1.15614 -0.711585,1.54009 l -12.375655,10.40752 c -0.37587,0.31489 -0.836941,0.4729 -1.297629,0.4729"
       style="fill:#db7e2a;fill-opacity:1;fill-rule:nonzero;stroke:none;stroke-width:0.03527778"
       id="path372"
       inkscape:connector-curvature="0" />
    <path
       d="M 60.495079,255.57411 H 19.074948 l 9.500217,-39.53682 44.912202,-0.73091 1.359184,1.86791 -14.351472,38.39982"
       style="fill:#cb7734;fill-opacity:1;fill-rule:nonzero;stroke:none;stroke-width:0.03527778"
       id="path374"
       inkscape:connector-curvature="0" />
    <path
       d="M 41.336822,266.78836 H 7.0869926 l -1.0499301,-1.79396 19.3986365,-50.43114 49.32753,-1.7938 0.08333,4.40483 -33.509733,49.61407"
       style="fill:#ef9341;fill-opacity:1;fill-rule:nonzero;stroke:none;stroke-width:0.03527778"
       id="path376"
       inkscape:connector-curvature="0" />
    <path
       d="M 40.286708,264.9944 H 6.0370625 L 24.385577,212.76946 H 74.763229 L 40.286708,264.9944"
       style="fill:#ffb061;fill-opacity:1;fill-rule:nonzero;stroke:none;stroke-width:0.03527778"
       id="path378"
       inkscape:connector-curvature="0" />
    <path
       d="m 28.326708,216.55071 c -0.973367,0 -1.843896,0.61514 -2.168162,1.53483 l -14.079932,40.0707 c -0.249209,0.7131 -0.142249,1.47497 0.296677,2.09048 0.435365,0.61363 1.1158,0.96642 1.871485,0.96642 h 22.521968 c 0.77182,0 1.491481,-0.38281 1.918954,-1.03023 l 27.225911,-41.24899 c 0.316391,-0.4787 0.344349,-1.06813 0.07131,-1.57423 -0.268909,-0.50648 -0.775391,-0.80898 -1.352802,-0.80898 z m 8.442036,45.2723 H 14.246776 c -0.953479,0 -1.816124,-0.4466 -2.369894,-1.22537 -0.550016,-0.77878 -0.684381,-1.74144 -0.36799,-2.6422 l 14.079932,-40.07163 c 0.40383,-1.16102 1.507433,-1.94241 2.737884,-1.94241 h 36.305411 c 0.802787,0 1.511181,0.42316 1.890998,1.13136 0.379435,0.70634 0.340215,1.52714 -0.103025,2.19764 l -27.226286,41.24843 c -0.541756,0.8144 -1.447941,1.30418 -2.425062,1.30418"
       style="fill:#db7e2a;fill-opacity:1;fill-rule:nonzero;stroke:none;stroke-width:0.03527778"
       id="path380"
       inkscape:connector-curvature="0" />
    <path
       d="M 42.286921,255.7111 H 12.554132 l 1.836197,-5.08169 h 31.073215 l -3.176623,5.08169"
       style="fill:#db7e2a;fill-opacity:1;fill-rule:nonzero;stroke:none;stroke-width:0.03527778"
       id="path382"
       inkscape:connector-curvature="0" />
    <path
       d="M 48.966498,245.05793 H 16.605601 l 1.644231,-5.08245 h 34.052795 l -3.336129,5.08245"
       style="fill:#db7e2a;fill-opacity:1;fill-rule:nonzero;stroke:none;stroke-width:0.03527778"
       id="path384"
       inkscape:connector-curvature="0" />
    <path
       d="m 159.55284,239.85032 h 81.47038 v -45.80975 h -81.47038 v 45.80975"
       style="fill:#ffb061;fill-opacity:1;fill-rule:nonzero;stroke:none;stroke-width:0.03527778"
       id="path498"
       inkscape:connector-curvature="0" />
    <path
       d="m 160.16836,239.4979 h 80.30691 v -44.52675 h -80.30691 v 44.52675"
       style="fill:#d86e1e;fill-opacity:1;fill-rule:nonzero;stroke:none;stroke-width:0.03527778"
       id="path500"
       inkscape:connector-curvature="0" />
    <path
       d="m 259.16008,255.65482 -18.13686,-15.8045 v -45.80975 l 18.13686,15.82926 v 45.78499"
       style="fill:#ffb061;fill-opacity:1;fill-rule:nonzero;stroke:none;stroke-width:0.03527778"
       id="path502"
       inkscape:connector-curvature="0" />
    <path
       d="m 257.53498,255.65482 -17.05971,-14.91858 v -45.76509 l 17.05971,14.8739 v 45.80977"
       style="fill:#b75811;fill-opacity:1;fill-rule:nonzero;stroke:none;stroke-width:0.03527778"
       id="path504"
       inkscape:connector-curvature="0" />
    <path
       d="m 176.64258,254.75218 h 81.46849 v -45.80975 h -81.46849 v 45.80975"
       style="fill:#ffb061;fill-opacity:1;fill-rule:nonzero;stroke:none;stroke-width:0.03527778"
       id="path506"
       inkscape:connector-curvature="0" />
    <path
       d="m 186.0835,194.42339 c 0,8.90047 3.17136,13.75454 4.80022,13.75454 1.63071,0 4.80208,-4.85407 4.80208,-13.75454 0,-8.89879 -3.17137,-13.75304 -4.80208,-13.75304 -1.62886,0 -4.80022,4.85425 -4.80022,13.75304 z m -4.87903,0 c 0,-10.62184 4.16031,-18.63151 9.67925,-18.63151 5.5208,0 9.6811,8.00967 9.6811,18.63151 0,10.62163 -4.1603,18.633 -9.6811,18.633 -5.51894,0 -9.67925,-8.01137 -9.67925,-18.633"
       style="fill:#591c09;fill-opacity:1;fill-rule:nonzero;stroke:none;stroke-width:0.03527778"
       id="path508"
       inkscape:connector-curvature="0" />
    <path
       d="m 179.15528,255.63417 -18.13873,-15.80506 -1.06401,-45.78892 1.06401,-0.0208 18.13873,15.80504 v 45.80976"
       style="fill:#ffa95c;fill-opacity:1;fill-rule:nonzero;stroke:none;stroke-width:0.03527778"
       id="path510"
       inkscape:connector-curvature="0" />
    <path
       d="m 200.07317,209.86983 -18.13872,-15.82926 h -22.38161 l 18.13872,15.82926 h 22.38161"
       style="fill:#ffb061;fill-opacity:1;fill-rule:nonzero;stroke:none;stroke-width:0.03527778"
       id="path512"
       inkscape:connector-curvature="0" />
    <path
       d="m 196.05923,206.3376 -14.12478,-12.29703 h -22.38161 l 18.13872,15.82926 18.36767,-3.53223"
       style="fill:#ef9341;fill-opacity:1;fill-rule:nonzero;stroke:none;stroke-width:0.03527778"
       id="path514"
       inkscape:connector-curvature="0" />
    <path
       d="m 177.69156,255.65482 -18.13872,-15.8045 v -45.80975 l 18.13872,15.82926 v 45.78499"
       style="fill:#db7e2a;fill-opacity:1;fill-rule:nonzero;stroke:none;stroke-width:0.03527778"
       id="path516"
       inkscape:connector-curvature="0" />
    <path
       d="m 177.69156,255.65482 h 81.46852 v -45.78499 h -81.46852 v 45.78499"
       style="fill:#ef9341;fill-opacity:1;fill-rule:nonzero;stroke:none;stroke-width:0.03527778"
       id="path518"
       inkscape:connector-curvature="0" />
    <path
       d="m 198.19287,191.9561 0.33214,0.97955 -19.36973,16.88876 -1.46372,0.0454 20.50131,-17.91372"
       style="fill:#e8883a;fill-opacity:1;fill-rule:nonzero;stroke:none;stroke-width:0.03527778"
       id="path520"
       inkscape:connector-curvature="0" />
    <path
       d="m 198.19287,191.9561 -20.09221,-14.12497 -18.54782,16.20944 18.13872,15.82926 20.50131,-17.91373"
       style="fill:#ffa95c;fill-opacity:1;fill-rule:nonzero;stroke:none;stroke-width:0.03527778"
       id="path522"
       inkscape:connector-curvature="0" />
    <path
       d="m 177.04605,181.82217 -12.35145,10.79166 c -0.29838,0.26403 -0.47478,0.65116 -0.47478,1.06044 0,0.41134 0.1764,0.79828 0.47478,1.06231 l 11.91607,10.38088 c 0.5048,0.43311 1.2254,0.43931 1.73207,0.002 l 13.6275,-11.89676 c 0.32276,-0.28036 0.49352,-0.69338 0.47476,-1.131 -0.0243,-0.43948 -0.23832,-0.83262 -0.58925,-1.07826 l -13.194,-9.27785 c -0.22518,-0.15912 -0.49166,-0.23794 -0.7525,-0.23794 -0.30963,0 -0.61739,0.10902 -0.8632,0.32483 z m -0.81819,23.771 -11.91796,-10.38239 c -0.43536,-0.38337 -0.68869,-0.94165 -0.68494,-1.53651 0,-0.59262 0.24958,-1.15108 0.68494,-1.53202 l 12.34581,-10.79184 c 0.65867,-0.57855 1.61947,-0.63127 2.34006,-0.12705 l 13.1959,9.27767 c 0.51042,0.35692 0.81817,0.92551 0.8482,1.56053 0.0319,0.63315 -0.21768,1.22989 -0.6887,1.63504 l -13.62749,11.89657 c -0.36218,0.3147 -0.80504,0.47195 -1.24604,0.47195 -0.44285,0 -0.8876,-0.15725 -1.24978,-0.47195"
       style="fill:#db7e2a;fill-opacity:1;fill-rule:nonzero;stroke:none;stroke-width:0.03527778"
       id="path524"
       inkscape:connector-curvature="0" />
    <path
       d="m 227.22684,243.29022 c 0,7.1778 5.75349,12.99698 12.85248,12.99698 7.09711,0 12.85061,-5.81918 12.85061,-12.99698 0,-7.17798 -5.7535,-12.99641 -12.85061,-12.99641 -7.09899,0 -12.85248,5.81843 -12.85248,12.99641"
       style="fill:#ffb061;fill-opacity:1;fill-rule:nonzero;stroke:none;stroke-width:0.03527778"
       id="path526"
       inkscape:connector-curvature="0" />
    <path
       d="m 228.60423,243.91024 c 0,7.09823 5.75349,12.85172 12.85061,12.85172 7.09898,0 12.85248,-5.75349 12.85248,-12.85172 0,-7.09768 -5.7535,-12.85155 -12.85248,-12.85155 -7.09712,0 -12.85061,5.75387 -12.85061,12.85155"
       style="fill:#c66618;fill-opacity:1;fill-rule:nonzero;stroke:none;stroke-width:0.03527778"
       id="path528"
       inkscape:connector-curvature="0" />
    <path
       d="m 236.25304,243.91024 c 0,2.87298 2.32879,5.20292 5.20367,5.20292 2.87299,0 5.19992,-2.32994 5.19992,-5.20292 0,-2.87281 -2.32693,-5.2018 -5.20179,-5.2018 -2.87301,0 -5.2018,2.32899 -5.2018,5.2018"
       style="fill:#ef9341;fill-opacity:1;fill-rule:nonzero;stroke:none;stroke-width:0.03527778"
       id="path530"
       inkscape:connector-curvature="0" />
    <path
       d="m 240.6085,247.88214 c 2.86738,0 5.19243,-2.32617 5.19243,-5.19429 0,-0.86058 -0.22895,-1.65999 -0.60051,-2.37459 0.89887,0.93472 1.45621,2.19857 1.45621,3.59698 0,2.87298 -2.32693,5.20292 -5.19992,5.20292 -2.04357,0 -3.79251,-1.18974 -4.64446,-2.90209 0.94765,1.02141 2.29127,1.67107 3.79625,1.67107"
       style="fill:#ffb061;fill-opacity:1;fill-rule:nonzero;stroke:none;stroke-width:0.03527778"
       id="path532"
       inkscape:connector-curvature="0" />
    <path
       d="m 183.46384,243.29022 c 0,7.1778 5.7535,12.99698 12.85249,12.99698 7.0971,0 12.85059,-5.81918 12.85059,-12.99698 0,-7.17798 -5.75349,-12.99641 -12.85059,-12.99641 -7.09899,0 -12.85249,5.81843 -12.85249,12.99641"
       style="fill:#ffb061;fill-opacity:1;fill-rule:nonzero;stroke:none;stroke-width:0.03527778"
       id="path534"
       inkscape:connector-curvature="0" />
    <path
       d="m 184.84122,243.91024 c 0,7.09823 5.7535,12.85172 12.85248,12.85172 7.09712,0 12.85062,-5.75349 12.85062,-12.85172 0,-7.09768 -5.7535,-12.85155 -12.85062,-12.85155 -7.09898,0 -12.85248,5.75387 -12.85248,12.85155"
       style="fill:#c66618;fill-opacity:1;fill-rule:nonzero;stroke:none;stroke-width:0.03527778"
       id="path536"
       inkscape:connector-curvature="0" />
    <path
       d="m 192.49191,243.91024 c 0,2.87298 2.3288,5.20292 5.20179,5.20292 2.873,0 5.2018,-2.32994 5.2018,-5.20292 0,-2.87281 -2.3288,-5.2018 -5.2018,-5.2018 -2.87299,0 -5.20179,2.32899 -5.20179,5.2018"
       style="fill:#ef9341;fill-opacity:1;fill-rule:nonzero;stroke:none;stroke-width:0.03527778"
       id="path538"
       inkscape:connector-curvature="0" />
    <path
       d="m 196.84551,247.88214 c 2.86737,0 5.19241,-2.32617 5.19241,-5.19429 0,-0.86058 -0.22894,-1.65999 -0.60049,-2.37459 0.89887,0.93472 1.45807,2.19857 1.45807,3.59698 0,2.87298 -2.3288,5.20292 -5.2018,5.20292 -2.04356,0 -3.79249,-1.18974 -4.64445,-2.90209 0.94953,1.02141 2.29126,1.67107 3.79626,1.67107"
       style="fill:#ffb061;fill-opacity:1;fill-rule:nonzero;stroke:none;stroke-width:0.03527778"
       id="path540"
       inkscape:connector-curvature="0" />
    <path
       d="m 164.32678,213.01023 c -1.91971,1.23346 -2.91803,10.73011 -2.94994,17.44122 -0.003,0.13566 0.0582,0.27472 0.15577,0.36273 l 11.06413,9.78977 c 0.16325,0.14561 0.36968,0.13586 0.50103,0.0754 0.17078,-0.0771 0.26836,-0.23101 0.2646,-0.41265 -0.15012,-12.88569 -2.33631,-25.46346 -6.34273,-27.27921 -0.50856,-0.23081 -0.98519,-0.34528 -1.42806,-0.34528 -0.45787,0 -0.88198,0.12291 -1.2648,0.36799 z m 7.93593,27.96978 -11.06225,-9.78921 c -0.21017,-0.18672 -0.33215,-0.46652 -0.3284,-0.74462 0.0225,-4.87095 0.5292,-16.15652 3.18262,-17.85799 0.91201,-0.58379 1.97977,-0.59674 3.17325,-0.0585 4.25977,1.93003 6.4816,14.44923 6.63923,27.7307 0.002,0.38132 -0.21016,0.71647 -0.56109,0.87522 -0.12948,0.0606 -0.26647,0.0901 -0.40534,0.0901 -0.22892,0 -0.45411,-0.0835 -0.63802,-0.24564"
       style="fill:#bc590f;fill-opacity:1;fill-rule:nonzero;stroke:none;stroke-width:0.03527778"
       id="path542"
       inkscape:connector-curvature="0" />
    <path
       d="m 162.63789,232.30547 h 0.54421 v -17.14679 h -0.54421 v 17.14679"
       style="fill:#bc590f;fill-opacity:1;fill-rule:nonzero;stroke:none;stroke-width:0.03527778"
       id="path544"
       inkscape:connector-curvature="0" />
    <path
       d="m 170.98103,239.77826 h 0.54044 v -20.12374 h -0.54044 v 20.12374"
       style="fill:#bc590f;fill-opacity:1;fill-rule:nonzero;stroke:none;stroke-width:0.03527778"
       id="path546"
       inkscape:connector-curvature="0" />
    <path
       d="m 168.94309,237.88857 h 0.53295 v -23.16956 h -0.53295 v 23.16956"
       style="fill:#bc590f;fill-opacity:1;fill-rule:nonzero;stroke:none;stroke-width:0.03527778"
       id="path548"
       inkscape:connector-curvature="0" />
    <path
       d="m 166.65371,235.80354 h 0.5292 v -23.12489 h -0.5292 v 23.12489"
       style="fill:#bc590f;fill-opacity:1;fill-rule:nonzero;stroke:none;stroke-width:0.03527778"
       id="path550"
       inkscape:connector-curvature="0" />
    <path
       d="m 164.61202,234.06173 h 0.5292 v -21.68972 h -0.5292 v 21.68972"
       style="fill:#bc590f;fill-opacity:1;fill-rule:nonzero;stroke:none;stroke-width:0.03527778"
       id="path552"
       inkscape:connector-curvature="0" />
    <path
       d="m 90.471074,118.19196 c -1.077519,-3.12822 -0.174711,-6.01622 2.244541,-8.97366 1.36031,-1.66262 3.467862,-3.03626 5.122041,-4.75142 -2.216017,5.60338 -7.288147,9.4503 -7.366582,13.72508 m 85.212596,16.51363 c -1.03961,-0.67181 -4.17157,-3.01562 -3.09819,-8.72408 0.39783,-2.11487 -1.05087,-2.88613 -2.32691,-3.5692 -1.74144,-0.92889 -3.24645,-1.73205 -1.49187,-5.45888 2.19744,-4.65947 1.11654,-8.74659 -2.81295,-10.6663 -3.04751,-1.4881 -6.24891,-4.40801 -8.89109,-8.024129 -0.99775,-2.06794 -1.79079,-4.05146 -2.3376,-5.51892 -17.06571,-3.522285 -45.83378,3.71181 -54.6089,7.08772 l -1.086151,-1.3999 c -0.57197,4.225979 -4.266894,7.296019 -6.55291,10.088329 -2.769218,3.38341 -3.990481,6.96574 -2.255986,10.77701 0.686446,1.51063 1.217133,2.85611 0.74011,4.00081 -0.403262,0.97017 -1.546274,1.79397 -3.495255,2.51833 -1.92928,0.71496 -3.111134,1.6476 -3.608418,2.84484 -0.704081,1.6889 0.11428,3.48851 0.835063,5.07607 0.50836,1.12029 0.426165,2.80919 0.119914,3.67428 -1.128931,3.19876 -2.256926,4.36016 -1.695464,6.6261 -0.14975,-2.39579 1.208685,-3.64407 2.233282,-6.31272 0.382627,-0.99645 0.573097,-2.62529 -0.37512,-4.69513 -0.673685,-1.4712 -1.14282,-2.69096 -0.543824,-4.13028 0.428416,-1.03022 1.491669,-1.84652 3.252433,-2.50144 2.147904,-0.79941 3.372344,-1.70766 3.852745,-2.86173 0.181274,-0.43725 0.214865,-0.89324 0.193655,-1.35862 1.011833,2.26124 0.993825,4.10776 -3.089546,5.91112 -7.506386,3.31587 -0.209047,8.4182 -1.320528,10.63722 -1.9077,3.80959 -2.457152,4.54726 -2.156157,7.52403 0.344535,3.41156 2.760403,5.43336 5.17121,6.1198 0.03281,-0.5367 -2.395418,-3.66959 -0.3269,-8.8438 0.446057,2.85179 3.21622,9.55971 3.996676,9.73348 12.443021,2.77297 49.618771,6.14551 63.123921,-0.10397 2.57969,-1.19386 2.09741,-6.97195 2.81051,-8.55744 0.26084,-0.57985 0.98894,1.67764 1.75832,3.93513 0.7525,2.21151 1.54627,4.42302 1.97977,3.96721 11.86165,-12.46836 9.23637,-16.36877 7.81208,-16.52639 -1.98353,-0.21956 -3.24645,-0.0619 -1.0734,-9.07687 1.05462,-4.37236 -7.07834,-2.12238 -3.79251,-9.10127 1.97038,-4.18282 1.10717,-7.75014 -2.67033,-10.25533 -1.32296,-0.87635 -2.53146,-2.21621 -3.63487,-3.73434 1.7527,1.34173 3.53166,2.46954 5.21868,3.29147 3.64614,1.78085 4.73266,5.20742 2.66845,9.58917 -2.0079,4.26351 0.0807,5.37818 1.75833,6.27517 1.29857,0.69245 2.33632,1.2404 2.01166,2.90303 -1.24978,6.36901 3.10007,8.64526 3.70807,8.84042"
       style="fill:#752912;fill-opacity:1;fill-rule:nonzero;stroke:none;stroke-width:0.03527778"
       id="path554"
       inkscape:connector-curvature="0" />
    <g
       transform="matrix(0.0187655,0,0,-0.0187655,-28.719445,325.44178)"
       id="g556"
       style="stroke-width:1.87992835">
      <g
         id="g558"
         clip-path="url(#clipPath562)"
         style="stroke-width:1.87992835">
        <path
           d="m 6674.03,3714.5 h 3473.27 v 295.801 H 6674.03 Z"
           style="fill:#e3e3e3;fill-opacity:1;fill-rule:nonzero;stroke:none;stroke-width:1.87992835"
           id="path564"
           inkscape:connector-curvature="0" />
      </g>
    </g>
    <path
       d="m 123.38987,246.26154 c -0.0274,0.29275 -8.66103,-0.20866 -8.67416,-0.56465 -0.1139,-3.09743 -0.87203,-43.89267 -0.90468,-45.68871 l 13.59334,4.244 c -0.37155,3.06517 -3.81577,39.8945 -4.0145,42.00936"
       style="fill:#ffc19f;fill-opacity:1;fill-rule:nonzero;stroke:none;stroke-width:0.03527778"
       id="path566"
       inkscape:connector-curvature="0" />
    <path
       d="m 124.24558,247.35539 c -0.0203,0.22707 -12.11969,0.24263 -12.15479,-0.0435 -0.25727,-2.11826 -0.0725,-7.20127 -0.18502,-8.43058 h 12.80895 c -0.19873,2.2967 -0.3406,7.01866 -0.46914,8.4741"
       style="fill:#f9e9a7;fill-opacity:1;fill-rule:nonzero;stroke:none;stroke-width:0.03527778"
       id="path568"
       inkscape:connector-curvature="0" />
    <path
       d="m 109.77382,244.10821 c 0.16288,-0.64591 0.51042,-1.46653 0.77764,-2.21639 0.19798,-0.55621 5.60225,-0.57329 5.64297,0.75343 0.0105,0.33966 0.003,0.6401 -0.0201,0.91237 0.92457,-0.009 1.92665,-0.0396 2.98465,-0.0989 2.29972,-0.12855 4.35922,-0.35599 5.80248,-0.61476 0.13473,2.09684 0.022,5.73437 0.15293,8.06691 0,0 -24.01307,4.98223 -27.879318,1.55942 -1.089717,-0.96455 4.876028,-5.45852 12.538728,-8.3621"
       style="fill:#f44d19;fill-opacity:1;fill-rule:nonzero;stroke:none;stroke-width:0.03527778"
       id="path570"
       inkscape:connector-curvature="0" />
    <path
       d="m 125.06431,249.44718 c 0.0111,0.51792 0.0252,1.01896 0.0501,1.46371 0,0 -24.01307,4.98223 -27.879328,1.55942 -0.153685,-0.13512 -0.164754,-0.34342 -0.05294,-0.60425 6.678078,1.31358 21.910018,-1.29296 27.882148,-2.41888"
       style="fill:#b22909;fill-opacity:1;fill-rule:nonzero;stroke:none;stroke-width:0.03527778"
       id="path572"
       inkscape:connector-curvature="0" />
    <path
       d="m 103.96533,246.41206 c 0.0351,0.18314 0.2068,0.30662 0.3954,0.26758 1.11729,-0.23081 2.60558,0.29031 3.60579,1.23065 0.0703,0.0657 0.16082,0.0957 0.24996,0.0901 0.0835,-0.005 0.16531,-0.0413 0.22705,-0.10509 0.12761,-0.13698 0.12086,-0.35017 -0.0149,-0.47776 -1.14845,-1.07789 -2.87056,-1.6568 -4.19578,-1.39991 -0.18258,0.0347 -0.30249,0.21206 -0.26759,0.39446 z m 5.75501,0.53161 c 0.0705,0.0721 0.16607,0.10584 0.25933,0.10078 0.0792,-0.004 0.15689,-0.0368 0.21769,-0.0961 0.13305,-0.13079 0.13454,-0.34471 0.004,-0.4774 -1.08915,-1.10771 -2.55679,-1.63277 -4.02895,-1.43029 -0.18465,0.0248 -0.31432,0.19441 -0.28918,0.37906 0.0248,0.18483 0.19686,0.32708 0.37926,0.28899 0.74104,-0.10021 2.17322,-0.0715 3.45772,1.23495 z m 1.68758,-0.85645 c 0.0711,0.0903 0.17846,0.13455 0.28467,0.12872 0.0666,-0.004 0.13268,-0.0276 0.18916,-0.0713 0.14655,-0.11523 0.17208,-0.32728 0.0571,-0.47402 -0.96024,-1.22239 -2.60371,-1.83884 -3.9978,-1.50705 -0.18128,0.0437 -0.29275,0.22611 -0.24883,0.4072 0.0436,0.1809 0.22406,0.28918 0.40684,0.24902 1.14543,-0.28111 2.50612,0.24527 3.30892,1.26743"
       style="fill:#d3dae5;fill-opacity:1;fill-rule:nonzero;stroke:none;stroke-width:0.03527778"
       id="path574"
       inkscape:connector-curvature="0" />
    <path
       d="m 133.90567,246.26154 c 0.0277,0.29275 8.66084,-0.20866 8.67417,-0.56465 0.11391,-3.09743 0.87203,-43.89267 0.90468,-45.68871 l -13.59297,4.244 c 0.37137,3.06517 3.8154,39.8945 4.01412,42.00936"
       style="fill:#ffc19f;fill-opacity:1;fill-rule:nonzero;stroke:none;stroke-width:0.03527778"
       id="path576"
       inkscape:connector-curvature="0" />
    <path
       d="m 133.04997,247.35539 c 0.0199,0.22707 12.12007,0.24263 12.1546,-0.0435 0.25765,-2.11826 0.0726,-7.20127 0.18484,-8.43058 h -12.80877 c 0.19855,2.2967 0.34079,7.01866 0.46933,8.4741"
       style="fill:#f9e9a7;fill-opacity:1;fill-rule:nonzero;stroke:none;stroke-width:0.03527778"
       id="path578"
       inkscape:connector-curvature="0" />
    <path
       d="m 147.52211,244.10821 c -0.16308,-0.64591 -0.51118,-1.46653 -0.77802,-2.21639 -0.19779,-0.55621 -5.60206,-0.57329 -5.64316,0.75343 -0.0107,0.33966 -0.003,0.6401 0.0203,0.91237 -0.92476,-0.009 -1.92665,-0.0396 -2.98447,-0.0989 -2.30027,-0.12855 -4.35959,-0.35599 -5.80266,-0.61476 -0.13474,2.09684 -0.0223,5.73437 -0.15256,8.06691 0,0 24.01289,4.98223 27.87989,1.55942 1.08839,-0.96455 -4.87678,-5.45852 -12.53929,-8.3621"
       style="fill:#f44d19;fill-opacity:1;fill-rule:nonzero;stroke:none;stroke-width:0.03527778"
       id="path580"
       inkscape:connector-curvature="0" />
    <path
       d="m 132.23085,249.44718 c -0.0103,0.51792 -0.0246,1.01896 -0.0494,1.46371 0,0 24.01289,4.98223 27.87989,1.55942 0.15201,-0.13512 0.16327,-0.34342 0.0526,-0.60425 -6.67863,1.31358 -21.91039,-1.29296 -27.88307,-2.41888"
       style="fill:#b22909;fill-opacity:1;fill-rule:nonzero;stroke:none;stroke-width:0.03527778"
       id="path582"
       inkscape:connector-curvature="0" />
    <path
       d="m 153.06224,246.0176 c -1.32484,-0.25689 -3.04695,0.32202 -4.1954,1.39991 -0.13587,0.12759 -0.14243,0.34078 -0.0146,0.47776 0.0613,0.0638 0.14318,0.0995 0.22687,0.10509 0.0887,0.005 0.17959,-0.0244 0.25015,-0.0901 0.99982,-0.94034 2.48811,-1.46146 3.60578,-1.23065 0.18841,0.039 0.36011,-0.0844 0.3952,-0.26758 0.0349,-0.1824 -0.0848,-0.35974 -0.26797,-0.39446 z m -2.02949,-0.30888 c 0.18222,0.0381 0.35466,-0.10416 0.37962,-0.28899 0.0248,-0.18465 -0.10451,-0.35429 -0.28936,-0.37906 -1.47252,-0.20248 -2.93999,0.32258 -4.02894,1.43029 -0.1306,0.13269 -0.12892,0.34661 0.004,0.4774 0.0606,0.0593 0.13867,0.0916 0.21749,0.0961 0.0936,0.005 0.18877,-0.0287 0.25952,-0.10078 1.28506,-1.30645 2.71669,-1.33516 3.45773,-1.23495 z m -1.83621,-0.88893 c 0.18278,0.0402 0.3635,-0.0682 0.40703,-0.24901 0.0438,-0.18109 -0.0681,-0.36349 -0.24902,-0.4072 -1.3939,-0.33179 -3.03738,0.28465 -3.99761,1.50705 -0.11522,0.14673 -0.0897,0.35879 0.0571,0.47402 0.0559,0.0437 0.12254,0.0675 0.18897,0.0713 0.1064,0.006 0.21375,-0.0384 0.2843,-0.12872 0.80298,-1.02216 2.16366,-1.54853 3.30928,-1.26743"
       style="fill:#d3dae5;fill-opacity:1;fill-rule:nonzero;stroke:none;stroke-width:0.03527778"
       id="path584"
       inkscape:connector-curvature="0" />
    <path
       d="m 101.90283,208.277 c 11.2743,8.45255 42.35258,8.97216 54.84644,0 0,0 -5.31175,-13.50383 -8.08867,-21.15733 -7.15715,-0.74049 -32.25186,-0.78159 -39.95078,0.0621 -2.26425,7.31085 -4.03045,12.90447 -6.80699,21.09522"
       style="fill:#2a535e;fill-opacity:1;fill-rule:nonzero;stroke:none;stroke-width:0.03527778"
       id="path586"
       inkscape:connector-curvature="0" />
    <path
       d="m 107.32417,191.63352 v 0 c 0.28186,-0.90112 0.56616,-1.81294 0.85759,-2.75008 h 1.4e-4 c -0.29125,0.93771 -0.57573,1.85103 -0.85721,2.75026 m 42.19946,-2.16328 c -0.12647,-0.34077 -0.24976,-0.67443 -0.37005,-1.00132 v -1.5e-4 c 0.12065,0.32765 0.24469,0.66243 0.3706,1.00115 v 0"
       style="fill:#c7c7c7;fill-opacity:1;fill-rule:nonzero;stroke:none;stroke-width:0.03527778"
       id="path588"
       inkscape:connector-curvature="0" />
    <path
       d="m 122.91286,193.2725 c -5.63284,0 -10.97707,-0.5397 -15.58869,-1.63898 0.28205,-0.89905 0.56653,-1.81237 0.85777,-2.75008 6.20594,2.05763 13.83562,3.20777 21.23878,3.20777 7.33394,1.4e-4 14.44531,-1.12855 19.73342,-3.62211 0.12029,0.32689 0.24358,0.66055 0.37005,1.00132 -8.48162,2.51027 -17.89365,3.80245 -26.61133,3.80208"
       style="fill:#214149;fill-opacity:1;fill-rule:nonzero;stroke:none;stroke-width:0.03527778"
       id="path590"
       inkscape:connector-curvature="0" />
    <path
       d="m 167.90537,182.66324 c 0.52732,0.33196 4.697,-5.52625 4.19784,-5.89968 -7.46304,-5.58142 -18.56527,-15.91483 -20.43694,-17.79757 0,0 -3.78988,5.76626 -2.1751,10.5265 1.28582,3.79007 11.45408,8.78562 18.4142,13.17075"
       style="fill:#ffc19f;fill-opacity:1;fill-rule:nonzero;stroke:none;stroke-width:0.03527778"
       id="path592"
       inkscape:connector-curvature="0" />
    <path
       d="m 183.0585,185.8971 c -1.93472,-0.94053 -4.66886,-2.66376 -10.25347,-5.16708 -0.63802,-0.2858 -2.85985,1.79398 -2.17679,1.98876 3.96702,1.131 10.63815,5.65424 12.43026,3.17832"
       style="fill:#e0956c;fill-opacity:1;fill-rule:nonzero;stroke:none;stroke-width:0.03527778"
       id="path594"
       inkscape:connector-curvature="0" />
    <path
       d="m 185.56557,183.90026 c -1.93284,-0.94015 -6.11004,-4.1209 -11.9386,-4.98375 -0.7206,-0.10639 -2.62343,2.11432 -1.94035,2.3091 3.96701,1.13138 12.35707,4.68125 13.87895,2.67465"
       style="fill:#e0956c;fill-opacity:1;fill-rule:nonzero;stroke:none;stroke-width:0.03527778"
       id="path596"
       inkscape:connector-curvature="0" />
    <path
       d="m 187.23757,180.49883 c -1.93472,-0.94072 -13.26907,-4.4341 -19.09763,-5.29731 -0.72059,-0.1064 -2.08672,4.85669 -1.34175,5.74542 0.4729,2.70355 4.82274,3.90811 8.06167,8.57134 0.55921,0.80523 1.27981,-0.53444 1.31922,-0.98876 0.0994,-1.17097 -0.27585,-1.44889 -0.97582,-4.26145 -0.42785,-1.71405 1.23478,-2.82365 2.40012,-3.00342 5.07981,0.03 8.51952,0.97112 9.63419,-0.76582"
       style="fill:#ffc19f;fill-opacity:1;fill-rule:nonzero;stroke:none;stroke-width:0.03527778"
       id="path598"
       inkscape:connector-curvature="0" />
    <path
       d="m 158.74668,163.40234 c -2.47948,2.22896 -7.76234,7.3024 -10.4747,9.05435 -2.13683,-1.52639 -6.30972,-6.91977 -6.68558,-7.22565 -2.67634,-6.03142 -2.09855,-17.14172 -2.13158,-17.47011 4.52023,0.39388 7.1686,0.90656 8.26,1.73374 1.72699,1.30833 7.43901,9.31125 11.03186,13.90767"
       style="fill:#28afc6;fill-opacity:1;fill-rule:nonzero;stroke:none;stroke-width:0.03527778"
       id="path600"
       inkscape:connector-curvature="0" />
    <path
       d="m 107.49606,188.65037 c 12.61473,4.39525 31.5812,4.9462 42.30324,-0.49691 0,0 -5.05448,-32.03851 -6.63585,-39.91345 -7.51202,-0.99232 -22.25663,-1.25241 -30.07076,0.0775 -1.13287,10.04647 -3.30855,26.0512 -5.59663,40.33285"
       style="fill:#28afc6;fill-opacity:1;fill-rule:nonzero;stroke:none;stroke-width:0.03527778"
       id="path602"
       inkscape:connector-curvature="0" />
    <path
       d="m 137.89992,149.20061 c 0.0227,-0.50872 -0.0625,-0.9985 -0.18485,-1.48115 -5.22225,-0.3526 -13.06622,-0.46557 -18.66003,-0.0199 -0.043,0.21937 -0.13604,0.42447 -0.14637,0.65229 -0.17565,3.93362 3.93287,7.31235 9.17726,7.54673 5.2444,0.23476 9.63834,-2.76416 9.81399,-6.69797"
       style="fill:#ffc19f;fill-opacity:1;fill-rule:nonzero;stroke:none;stroke-width:0.03527778"
       id="path604"
       inkscape:connector-curvature="0" />
    <path
       d="m 135.11492,138.30143 -0.12028,11.11049 c -0.0259,2.38922 -3.08355,4.29354 -6.82933,4.25263 -3.74521,-0.0405 -6.76083,-2.01072 -6.73493,-4.39994 l 0.12048,-11.11049 13.56406,0.14731"
       style="fill:#ffc19f;fill-opacity:1;fill-rule:nonzero;stroke:none;stroke-width:0.03527778"
       id="path606"
       inkscape:connector-curvature="0" />
    <path
       d="m 135.19806,147.57778 c -0.061,-0.003 -0.12235,-0.005 -0.18352,-0.009 l 0.0685,-6.30971 c 1.01202,0.0438 1.9717,0.0963 2.85367,0.15575 0.11729,0.46351 0.19967,0.93414 0.17752,1.42318 -0.0848,1.90038 -1.19386,3.57351 -2.91616,4.73922"
       style="fill:#712610;fill-opacity:1;fill-rule:nonzero;stroke:none;stroke-width:0.03527778"
       id="path608"
       inkscape:connector-curvature="0" />
    <path
       d="m 135.01322,147.69937 8.8e-4,-0.13004 c 0.0612,0.003 0.12253,0.005 0.18352,0.009 -0.061,0.0411 -0.12254,0.0818 -0.18484,0.1216"
       style="fill:#e1a182;fill-opacity:1;fill-rule:nonzero;stroke:none;stroke-width:0.03527778"
       id="path610"
       inkscape:connector-curvature="0" />
    <path
       d="m 121.46397,146.16586 c -1.0687,-1.18635 -1.66769,-2.62154 -1.59957,-4.14286 0.01,-0.21899 0.0995,-0.41603 0.14055,-0.62657 0.48734,-0.039 0.99251,-0.0734 1.51175,-0.10378 l -0.0527,4.87321"
       style="fill:#712610;fill-opacity:1;fill-rule:nonzero;stroke:none;stroke-width:0.03527778"
       id="path612"
       inkscape:connector-curvature="0" />
    <path
       d="m 129.23551,149.28768 c -0.18277,0 -0.36687,-0.004 -0.55208,-0.0124 -3.01131,-0.13455 -5.63302,-1.34792 -7.21946,-3.10945 l 0.0527,-4.87321 c 2.11057,-0.1229 4.45569,-0.17677 6.804,-0.17677 2.32805,0 4.65872,0.0529 6.76234,0.14375 l -0.0685,6.30971 -8.8e-4,0.13004 c -1.55509,0.99495 -3.57464,1.58831 -5.7777,1.58831"
       style="fill:#e1a182;fill-opacity:1;fill-rule:nonzero;stroke:none;stroke-width:0.03527778"
       id="path614"
       inkscape:connector-curvature="0" />
    <path
       d="m 163.10328,127.40206 c -1.75832,6.35211 -8.02187,10.26284 -12.67477,9.56665 -4.65273,-0.69621 -5.46676,-5.94304 -4.55082,-12.0756 0.91744,-6.13256 5.43523,-10.55559 10.08569,-9.84437 6.35738,0.97204 8.79125,6.38402 7.1399,12.35332"
       style="fill:#ffc19f;fill-opacity:1;fill-rule:nonzero;stroke:none;stroke-width:0.03527778"
       id="path616"
       inkscape:connector-curvature="0" />
    <path
       d="m 157.47288,128.69688 c -0.40251,2.68909 -2.65081,4.58066 -5.02277,4.22598 -2.37027,-0.35466 -3.96702,-2.82233 -3.56412,-5.51142 0.40213,-2.68722 2.65023,-4.57878 5.0207,-4.22599 2.37176,0.35467 3.96796,2.82233 3.56619,5.51143"
       style="fill:#e0956c;fill-opacity:1;fill-rule:nonzero;stroke:none;stroke-width:0.03527778"
       id="path618"
       inkscape:connector-curvature="0" />
    <path
       d="m 93.961265,126.71712 c 1.630904,6.3859 7.816385,10.4186 12.481865,9.81622 4.66585,-0.60425 5.58386,-5.83418 4.78952,-11.98363 -0.79585,-6.14946 -5.22507,-10.66068 -9.88941,-10.0433 -6.374648,0.8482 -8.914931,6.2095 -7.381975,12.21071"
       style="fill:#ffc19f;fill-opacity:1;fill-rule:nonzero;stroke:none;stroke-width:0.03527778"
       id="path620"
       inkscape:connector-curvature="0" />
    <path
       d="m 99.906926,128.1264 c 0.348854,2.6966 2.559234,4.63321 4.936824,4.32545 2.37759,-0.30775 4.02295,-2.74351 3.67409,-5.43824 -0.34903,-2.6966 -2.55924,-4.63319 -4.93663,-4.32545 -2.37796,0.30589 -4.022946,2.74164 -3.674284,5.43824"
       style="fill:#e0956c;fill-opacity:1;fill-rule:nonzero;stroke:none;stroke-width:0.03527778"
       id="path622"
       inkscape:connector-curvature="0" />
    <path
       d="m 98.201699,102.0405 c -2.533142,20.75839 12.472681,34.68426 29.963241,34.85689 17.49075,0.17452 32.04657,-14.82286 30.47421,-35.07832 -0.87278,-11.24616 -12.5665,-20.180409 -29.27735,-20.238579 -17.49131,-0.06005 -29.35879,5.695323 -31.160101,20.460009"
       style="fill:#752912;fill-opacity:1;fill-rule:nonzero;stroke:none;stroke-width:0.03527778"
       id="path624"
       inkscape:connector-curvature="0" />
    <path
       d="m 103.59378,97.853921 c -1.61739,3.492259 -0.87503,34.430919 2.65606,38.777009 3.74522,4.61161 19.09952,9.14198 22.3362,9.17389 3.46673,0.0341 18.58927,-3.74109 21.57055,-8.73853 3.52716,-5.91301 5.34255,-33.41196 4.26821,-36.69779 -3.63113,-11.099786 -13.25049,-11.568926 -25.8382,-11.692783 -11.77535,-0.11634 -20.79629,0.120103 -24.99282,9.178204"
       style="fill:#ffc19f;fill-opacity:1;fill-rule:nonzero;stroke:none;stroke-width:0.03527778"
       id="path626"
       inkscape:connector-curvature="0" />
    <path
       d="m 106.6595,128.52423 c -0.11146,1.25166 1.53783,2.42075 3.68367,2.61028 2.14452,0.19141 3.97434,-0.66992 4.08543,-1.92159 0.11109,-1.24978 -1.53858,-2.42074 -3.68329,-2.61027 -2.14564,-0.18953 -3.97472,0.66993 -4.08581,1.92158"
       style="fill:#ff9797;fill-opacity:1;fill-rule:nonzero;stroke:none;stroke-width:0.03527778"
       id="path628"
       inkscape:connector-curvature="0" />
    <path
       d="m 142.46331,129.92414 c 0.0648,1.25542 1.86096,2.18243 4.01205,2.07171 2.15033,-0.11072 3.84243,-1.21788 3.77787,-2.47329 -0.0648,-1.25354 -1.86153,-2.18243 -4.01187,-2.07171 -2.15109,0.11071 -3.84261,1.21788 -3.77805,2.47329"
       style="fill:#ff9797;fill-opacity:1;fill-rule:nonzero;stroke:none;stroke-width:0.03527778"
       id="path630"
       inkscape:connector-curvature="0" />
    <path
       d="m 126.4753,126.02092 c 0.13886,0.002 0.26215,-0.0976 0.28729,-0.2402 0.17621,-1.00208 0.976,-1.64198 2.03756,-1.63072 1.06794,0.009 1.87354,0.67931 2.00453,1.66638 0.0214,0.15763 0.16739,0.26834 0.32445,0.2477 0.15839,-0.0225 0.2691,-0.16701 0.24846,-0.32464 -0.16814,-1.26293 -1.22576,-2.15428 -2.57163,-2.16742 -1.33778,-0.0131 -2.3879,0.83507 -2.61271,2.10925 -0.0276,0.15762 0.0775,0.30774 0.23438,0.33402 l 0.0477,0.005"
       style="fill:#c4735b;fill-opacity:1;fill-rule:nonzero;stroke:none;stroke-width:0.03527778"
       id="path632"
       inkscape:connector-curvature="0" />
    <path
       d="m 108.68823,108.23499 c 0.19479,-0.009 0.38676,-0.0863 0.53651,-0.23082 1.91577,-1.85778 5.67056,-2.50519 8.74153,-1.50124 0.42617,0.14075 0.88986,-0.0938 1.0321,-0.52355 0.14037,-0.42973 -0.094,-0.89137 -0.52374,-1.0321 -3.66453,-1.19537 -8.03482,-0.40346 -10.38932,1.88218 -0.32427,0.31526 -0.33159,0.83318 -0.0169,1.15782 0.16832,0.17452 0.39538,0.2571 0.61981,0.24771"
       style="fill:#8c2f22;fill-opacity:1;fill-rule:nonzero;stroke:none;stroke-width:0.03527778"
       id="path634"
       inkscape:connector-curvature="0" />
    <path
       d="m 148.34084,108.82798 c 0.22444,0.009 0.4515,-0.0731 0.61964,-0.2477 0.31451,-0.32464 0.30587,-0.84257 -0.0188,-1.15784 -2.35977,-2.28376 -6.73063,-3.06628 -10.39196,-1.86716 -0.42973,0.14074 -0.66335,0.60425 -0.52244,1.0321 0.14188,0.43161 0.60501,0.6643 1.03286,0.52168 3.06853,-1.00771 6.82782,-0.3678 8.74397,1.48998 0.14957,0.1445 0.3419,0.22144 0.53669,0.22894"
       style="fill:#8c2f22;fill-opacity:1;fill-rule:nonzero;stroke:none;stroke-width:0.03527778"
       id="path636"
       inkscape:connector-curvature="0" />
    <path
       d="m 149.62721,91.278493 c -4.52867,-2.531463 -13.04651,-3.976403 -20.70847,-4.190332 -8.32905,-0.230816 -16.94092,0.690568 -21.57918,3.533539 -3.06834,1.880301 -7.01154,16.43294 -5.52757,15.26948 1.69866,-1.33423 4.38231,-2.49206 7.60191,-3.42095 0.42766,-1.60445 2.73601,-5.573349 3.18263,-6.096899 -0.17996,0.8482 -0.50574,3.843159 -0.66261,5.440109 4.01468,-0.94015 8.60097,-1.55003 13.06941,-1.74332 -0.0629,-1.702029 0.81949,-3.895709 0.82587,-4.012049 0.5076,0.5198 1.50367,2.92366 1.93078,3.946379 0.6718,-0.004 1.33742,0.004 1.99421,0.0225 6.02297,0.1689 10.47002,0.66806 14.00825,1.44683 -0.10359,-5.258099 -0.10039,-6.900079 -0.14036,-6.543529 0.62413,1.12781 1.38751,4.35735 1.40346,6.843769 1.32203,0.33591 2.51271,0.71685 3.6131,1.13719 0.13981,-1.52751 0.52845,-3.991419 0.5838,-4.409889 0.46426,0.29462 1.28882,3.693049 1.56898,5.331279 1.83076,0.87259 3.45456,1.87279 5.12543,2.97996 1.82531,1.21225 -2.63956,-13.494269 -6.28964,-15.534074"
       style="fill:#752912;fill-opacity:1;fill-rule:nonzero;stroke:none;stroke-width:0.03527778"
       id="path638"
       inkscape:connector-curvature="0" />
    <path
       d="m 135.08866,124.64165 c 0,0 8.66703,3.04752 12.13357,-1.46371 4.22412,-5.49641 -1.86491,-10.10896 -5.92183,-9.36022 -3.75347,0.69245 -7.23541,3.82816 -6.21174,10.82393"
       style="fill:#ffffff;fill-opacity:1;fill-rule:nonzero;stroke:none;stroke-width:0.03527778"
       id="path640"
       inkscape:connector-curvature="0" />
    <path
       d="m 148.08751,116.03205 c -1.56167,-2.08485 -3.7227,-2.79043 -6.09334,-2.62154 -2.42375,0.17077 -4.92088,1.81462 -5.66362,3.56169 1.35694,-1.95349 3.61874,-2.61779 5.02202,-2.87675 2.23459,-0.41472 5.1183,0.66805 6.37033,2.71349 1.11335,1.81837 0.93678,4.49433 -0.61363,6.51162 1.80092,-1.34923 2.60576,-5.1136 0.97824,-7.28851"
       style="fill:#773220;fill-opacity:1;fill-rule:nonzero;stroke:none;stroke-width:0.03527778"
       id="path642"
       inkscape:connector-curvature="0" />
    <path
       d="m 137.24969,118.8206 c -0.86133,1.99289 0.0565,4.30855 2.05069,5.1699 1.9944,0.86133 4.3095,-0.0563 5.17121,-2.05107 0.86171,-1.9929 -0.0569,-4.30857 -2.05107,-5.1699 -1.99421,-0.86133 -4.30931,0.0563 -5.17083,2.05107"
       style="fill:#63190d;fill-opacity:1;fill-rule:nonzero;stroke:none;stroke-width:0.03527778"
       id="path644"
       inkscape:connector-curvature="0" />
    <path
       d="m 137.58597,118.20321 c -0.23908,0.55359 0.0156,1.19724 0.56915,1.43556 0.55321,0.23832 1.19536,-0.015 1.43462,-0.56859 0.23908,-0.55358 -0.0159,-1.19537 -0.56934,-1.43556 -0.55302,-0.23833 -1.19536,0.0151 -1.43443,0.56859"
       style="fill:#fefffe;fill-opacity:1;fill-rule:nonzero;stroke:none;stroke-width:0.03527778"
       id="path646"
       inkscape:connector-curvature="0" />
    <path
       d="m 121.87399,124.29637 c 0,0 -8.82953,2.53897 -12.02867,-2.16554 -3.89816,-5.73098 2.44777,-9.98324 6.45439,-8.99992 3.7075,0.90824 7.00158,4.24099 5.57428,11.16546"
       style="fill:#ffffff;fill-opacity:1;fill-rule:nonzero;stroke:none;stroke-width:0.03527778"
       id="path648"
       inkscape:connector-curvature="0" />
    <path
       d="m 109.39588,114.9474 c 1.67989,-1.99101 3.87808,-2.56899 6.23483,-2.26499 2.40987,0.31151 4.80754,2.0961 5.44781,3.88633 -1.2417,-2.03042 -3.46091,-2.82421 -4.84674,-3.16386 -2.20702,-0.5442 -5.14832,0.36967 -6.51688,2.33818 -1.21657,1.75269 -1.19574,4.43428 0.23493,6.5379 -1.71948,-1.45245 -2.30476,-5.2581 -0.55395,-7.33356"
       style="fill:#773220;fill-opacity:1;fill-rule:nonzero;stroke:none;stroke-width:0.03527778"
       id="path650"
       inkscape:connector-curvature="0" />
    <path
       d="m 112.93693,118.19758 c -0.86171,1.9929 0.0567,4.30857 2.05088,5.1699 1.9944,0.8632 4.30949,-0.0563 5.17064,-2.05107 0.86171,-1.99289 -0.0563,-4.30856 -2.0505,-5.1699 -1.99421,-0.86133 -4.30968,0.0563 -5.17102,2.05107"
       style="fill:#63190d;fill-opacity:1;fill-rule:nonzero;stroke:none;stroke-width:0.03527778"
       id="path652"
       inkscape:connector-curvature="0" />
    <path
       d="m 113.27302,117.58207 c -0.23889,0.55171 0.0159,1.19537 0.56897,1.43369 0.5534,0.23833 1.19573,-0.015 1.43481,-0.5686 0.23888,-0.55358 -0.0156,-1.19536 -0.56916,-1.43555 -0.55339,-0.23833 -1.19573,0.0169 -1.43462,0.57046"
       style="fill:#fefffe;fill-opacity:1;fill-rule:nonzero;stroke:none;stroke-width:0.03527778"
       id="path654"
       inkscape:connector-curvature="0" />
    <path
       d="m 138.49722,130.1437 c 0.66261,3.92574 -5.64523,8.9913 -11.1621,8.45573 -5.4859,-0.53276 -9.00593,-5.3294 -8.77173,-9.28517 0.46463,-2.15052 4.03214,-1.38489 9.45818,-1.26104 5.41947,0.12197 10.07238,-0.29837 10.47565,2.09048"
       style="fill:#701608;fill-opacity:1;fill-rule:nonzero;stroke:none;stroke-width:0.03527778"
       id="path656"
       inkscape:connector-curvature="0" />
    <path
       d="m 128.085,135.04899 c -2.54686,-0.0731 -4.51835,0.47477 -5.81844,1.60821 1.40123,1.0077 3.30968,1.97995 5.43619,2.03361 2.39372,0.06 4.50897,-0.25802 6.11379,-1.78778 -0.58905,-1.15221 -3.45398,-1.78836 -5.73154,-1.85404"
       style="fill:#dd6b5b;fill-opacity:1;fill-rule:nonzero;stroke:none;stroke-width:0.03527778"
       id="path658"
       inkscape:connector-curvature="0" />
    <path
       d="m 135.82332,128.34221 c -1.85835,-0.61364 -4.78951,-0.31714 -7.49062,-0.37719 -3.0477,-0.0695 -5.27254,-0.50666 -7.18831,-0.14074 0.68044,1.64761 3.20421,2.76603 6.71073,2.88614 4.04847,0.13886 7.37578,-0.63804 7.9682,-2.36821"
       style="fill:#ffffff;fill-opacity:1;fill-rule:nonzero;stroke:none;stroke-width:0.03527778"
       id="path660"
       inkscape:connector-curvature="0" />
    <path
       d="m 92.419489,100.95023 c 0,0 -2.359569,4.17344 0.314519,4.52811 2.673895,0.35655 5.104024,-1.3286 5.42829,-3.76436 0.32389,-2.435759 -1.580994,-4.698869 -4.254696,-5.053549 -2.673896,-0.35654 -1.488113,4.289799 -1.488113,4.289799"
       style="fill:#f9951e;fill-opacity:1;fill-rule:nonzero;stroke:none;stroke-width:0.03527778"
       id="path662"
       inkscape:connector-curvature="0" />
    <path
       d="m 106.77697,102.86055 c 0,0 1.18579,4.64446 -1.4881,4.2898 -2.67371,-0.35655 -4.5786,-2.61967 -4.2547,-5.05355 0.32427,-2.435759 2.75477,-4.120899 5.42829,-3.766239 2.6739,0.35655 0.31451,4.529989 0.31451,4.529989"
       style="fill:#f9951e;fill-opacity:1;fill-rule:nonzero;stroke:none;stroke-width:0.03527778"
       id="path664"
       inkscape:connector-curvature="0" />
    <path
       d="m 101.36163,102.20189 c -0.15407,1.15782 -1.10417,1.98538 -2.122382,1.85027 -1.018211,-0.13511 -1.71892,-1.1841 -1.56485,-2.34005 0.153685,-1.15784 1.104154,-1.985399 2.122566,-1.850279 1.018216,0.13511 1.718916,1.184099 1.564666,2.340059"
       style="fill:#f9951e;fill-opacity:1;fill-rule:nonzero;stroke:none;stroke-width:0.03527778"
       id="path666"
       inkscape:connector-curvature="0" />
    <path
       d="m 120.61784,160.02042 c -0.53201,1.06119 -0.22162,2.84785 0.34227,3.74823 0.95761,1.52976 2.84842,1.72417 3.82273,0.37831 0.43666,-0.60257 -2.715,-2.639 -4.165,-4.12654"
       style="fill:#ffb8b6;fill-opacity:1;fill-rule:nonzero;stroke:none;stroke-width:0.03527778"
       id="path668"
       inkscape:connector-curvature="0" />
    <path
       d="m 121.33317,162.06192 c -0.14374,0.57498 0.33271,1.54928 0.81517,2.04263 0.81949,0.8375 1.97695,0.95291 2.33743,0.225 0.16158,-0.32596 -2.04674,-1.45039 -3.1526,-2.26763"
       style="fill:#e08686;fill-opacity:1;fill-rule:nonzero;stroke:none;stroke-width:0.03527778"
       id="path670"
       inkscape:connector-curvature="0" />
    <path
       d="m 138.04722,160.00767 c 0.52206,1.06718 0.19441,2.85028 -0.37774,3.74446 -0.97243,1.51851 -2.86474,1.69134 -3.82667,0.33421 -0.43066,-0.60763 2.74033,-2.60784 4.20441,-4.07867"
       style="fill:#ffb8b6;fill-opacity:1;fill-rule:nonzero;stroke:none;stroke-width:0.03527778"
       id="path672"
       inkscape:connector-curvature="0" />
    <path
       d="m 137.31218,162.04091 c 0.13829,0.57647 -0.34716,1.54533 -0.83431,2.03305 -0.82775,0.82793 -1.98577,0.9302 -2.33969,0.19872 -0.15838,-0.32802 2.06064,-1.42748 3.174,-2.23177"
       style="fill:#e08686;fill-opacity:1;fill-rule:nonzero;stroke:none;stroke-width:0.03527778"
       id="path674"
       inkscape:connector-curvature="0" />
    <path
       d="m 135.69966,173.59238 c -2.28301,2.47422 -8.30054,3.05165 -11.69653,0.83937 -2.70824,-1.76395 -2.96101,-4.98785 -0.88836,-8.49625 1.87298,-3.17006 5.52926,-5.21795 9.36698,-3.18864 2.91578,1.54178 6.73963,7.02975 3.21791,10.84552"
       style="fill:#ffb8b6;fill-opacity:1;fill-rule:nonzero;stroke:none;stroke-width:0.03527778"
       id="path676"
       inkscape:connector-curvature="0" />
    <path
       d="m 132.78913,170.4743 c -0.0944,0.38395 -0.47814,0.61757 -0.85683,0.5215 -0.3787,-0.0961 -0.6095,-0.48509 -0.51511,-0.86922 0.0946,-0.38394 0.47832,-0.61758 0.85701,-0.52131 0.37869,0.0959 0.60932,0.48509 0.51493,0.86903"
       style="fill:#773733;fill-opacity:1;fill-rule:nonzero;stroke:none;stroke-width:0.03527778"
       id="path678"
       inkscape:connector-curvature="0" />
    <path
       d="m 127.25687,170.35889 c -0.0944,0.38394 -0.47795,0.61758 -0.85701,0.5215 -0.37869,-0.0961 -0.60932,-0.48509 -0.51494,-0.86903 0.0944,-0.38413 0.47816,-0.61758 0.85685,-0.52168 0.37906,0.0961 0.6095,0.48509 0.5151,0.86921"
       style="fill:#773733;fill-opacity:1;fill-rule:nonzero;stroke:none;stroke-width:0.03527778"
       id="path680"
       inkscape:connector-curvature="0" />
    <path
       d="m 133.44142,165.9355 c -0.0779,0.18165 -0.37625,0.22574 -0.66655,0.0978 -0.29068,-0.1276 -0.46276,-0.3785 -0.38507,-0.56053 0.0779,-0.18201 0.37625,-0.22575 0.66656,-0.0981 0.29029,0.12761 0.46275,0.37888 0.38506,0.56091"
       style="fill:#8e4d4c;fill-opacity:1;fill-rule:nonzero;stroke:none;stroke-width:0.03527778"
       id="path682"
       inkscape:connector-curvature="0" />
    <path
       d="m 126.59014,165.57126 c 0.043,0.19347 -0.17208,0.40721 -0.48077,0.47757 -0.30851,0.0705 -0.59393,-0.0292 -0.6369,-0.22274 -0.0431,-0.19347 0.17207,-0.4074 0.48058,-0.47796 0.30907,-0.0703 0.59393,0.0295 0.63709,0.22313"
       style="fill:#8e4d4c;fill-opacity:1;fill-rule:nonzero;stroke:none;stroke-width:0.03527778"
       id="path684"
       inkscape:connector-curvature="0" />
    <path
       d="m 132.15954,172.52293 c 0.17209,1.34774 -1.09684,2.74446 -3.06008,2.73188 -1.65286,-0.0102 -3.36296,-1.71892 -2.67428,-3.1207 0.75663,-1.5414 5.47616,-1.63635 5.73436,0.38882"
       style="fill:#fff0f0;fill-opacity:1;fill-rule:nonzero;stroke:none;stroke-width:0.03527778"
       id="path686"
       inkscape:connector-curvature="0" />
    <path
       d="m 130.24791,172.93445 c -0.10753,0.0188 -0.22369,0.0164 -0.34416,-0.0103 -0.27136,-0.0593 -0.54345,-0.24377 -0.69545,-0.51944 -0.12048,0.24959 -0.33403,0.47327 -0.58304,0.57799 -0.34435,0.14336 -0.68213,0.0395 -0.92776,-0.28768 -0.0369,-0.0492 -0.0274,-0.11972 0.021,-0.15744 0.0479,-0.0375 0.11822,-0.0284 0.15575,0.0213 0.23344,0.31114 0.49146,0.28843 0.6658,0.2158 0.29461,-0.12328 0.53444,-0.46406 0.54945,-0.75568 -0.003,-0.0362 -0.004,-0.0733 -0.004,-0.11147 5.4e-4,-0.0585 0.0441,-0.1064 0.10415,-0.11071 0.058,-0.004 0.10884,0.039 0.11672,0.0972 0.005,0.0381 0.007,0.0772 0.005,0.11673 0.0413,0.38881 0.34885,0.63014 0.63878,0.69357 0.22331,0.049 0.50647,-1.4e-4 0.6292,-0.2858 0.0246,-0.0574 0.0903,-0.0822 0.14599,-0.058 0.0559,0.0252 0.0816,0.091 0.0574,0.14787 -0.10077,0.23307 -0.29593,0.383 -0.53519,0.42597"
       style="fill:#8e4d4c;fill-opacity:1;fill-rule:nonzero;stroke:none;stroke-width:0.03527778"
       id="path688"
       inkscape:connector-curvature="0" />
    <path
       d="m 130.11336,171.29961 c 0.0124,0.39051 -0.72266,0.72623 -0.91913,0.69845 -0.24058,-0.0336 -0.90694,-0.33816 -0.91895,-0.72866 -0.0118,-0.38994 1.82644,-0.35974 1.83808,0.0302"
       style="fill:#773733;fill-opacity:1;fill-rule:nonzero;stroke:none;stroke-width:0.03527778"
       id="path690"
       inkscape:connector-curvature="0" />
    <path
       d="m 88.86005,182.66324 c -0.526741,0.33196 -4.696244,-5.52625 -4.196896,-5.89968 7.463219,-5.58142 18.565266,-15.91483 20.436936,-17.79757 0,0 3.78987,5.76626 2.17491,10.5265 -1.28562,3.79007 -11.453887,8.78562 -18.41495,13.17075"
       style="fill:#ffc19f;fill-opacity:1;fill-rule:nonzero;stroke:none;stroke-width:0.03527778"
       id="path692"
       inkscape:connector-curvature="0" />
    <path
       d="m 73.70861,185.8971 c 1.933594,-0.94053 4.667539,-2.66376 10.253278,-5.16708 0.637838,-0.2858 2.859859,1.79398 2.176796,1.98876 -3.967401,1.131 -10.639097,5.65424 -12.430074,3.17832"
       style="fill:#e0956c;fill-opacity:1;fill-rule:nonzero;stroke:none;stroke-width:0.03527778"
       id="path694"
       inkscape:connector-curvature="0" />
    <path
       d="m 71.20004,183.90026 c 1.933595,-0.94015 6.110042,-4.1209 11.939732,-4.98375 0.719469,-0.10639 2.622286,2.11432 1.939414,2.3091 -3.967592,1.13138 -12.357077,4.68125 -13.879146,2.67465"
       style="fill:#e0956c;fill-opacity:1;fill-rule:nonzero;stroke:none;stroke-width:0.03527778"
       id="path696"
       inkscape:connector-curvature="0" />
    <path
       d="m 69.529721,180.49883 c 1.933409,-0.94072 13.267581,-4.4341 19.097448,-5.29731 0.719101,-0.1064 2.08523,4.85669 1.341366,5.74542 -0.472894,2.70355 -4.822921,3.90811 -8.062033,8.57134 -0.559964,0.80523 -1.279054,-0.53444 -1.318465,-0.98876 -0.10152,-1.17097 0.274356,-1.44889 0.975431,-4.26145 0.427106,-1.71405 -1.234766,-2.82365 -2.400295,-3.00342 -5.080379,0.03 -8.520654,0.97112 -9.633452,-0.76582"
       style="fill:#ffc19f;fill-opacity:1;fill-rule:nonzero;stroke:none;stroke-width:0.03527778"
       id="path698"
       inkscape:connector-curvature="0" />
    <path
       d="m 98.019682,163.40234 c 2.479108,2.22896 7.762528,7.3024 10.474708,9.05435 2.13701,-1.52639 6.30933,-6.91977 6.68557,-7.22565 2.67596,-6.03142 2.09855,-17.14172 2.13139,-17.47011 -4.52004,0.39388 -7.16841,0.90656 -8.25982,1.73374 -1.72736,1.30833 -7.43901,9.31125 -11.031848,13.90767"
       style="fill:#28afc6;fill-opacity:1;fill-rule:nonzero;stroke:none;stroke-width:0.03527778"
       id="path700"
       inkscape:connector-curvature="0" />
  </g>
</svg>
