<?xml version="1.0" encoding="UTF-8" standalone="no"?>
<!-- Created with Inkscape (http://www.inkscape.org/) -->

<svg
   xmlns:dc="http://purl.org/dc/elements/1.1/"
   xmlns:cc="http://creativecommons.org/ns#"
   xmlns:rdf="http://www.w3.org/1999/02/22-rdf-syntax-ns#"
   xmlns:svg="http://www.w3.org/2000/svg"
   xmlns="http://www.w3.org/2000/svg"
   xmlns:sodipodi="http://sodipodi.sourceforge.net/DTD/sodipodi-0.dtd"
   xmlns:inkscape="http://www.inkscape.org/namespaces/inkscape"
   width="1000"
   height="1000"
   viewBox="0 0 264.58333 264.58334"
   version="1.1"
   id="svg2383"
   inkscape:version="0.92.5 (2060ec1f9f, 2020-04-08)"
   sodipodi:docname="up.svg"
   enable-background="new">
  <defs
     id="defs2377">
    <clipPath
       clipPathUnits="userSpaceOnUse"
       id="clipPath354">
      <path
         d="m 31307.7,14127.1 c -0.1,0 -0.1,0 -0.2,0 -609.8,0 -1203.1,260.3 -1614.8,726.2 v 0 c 411.7,-465.9 1005,-726.2 1614.8,-726.2 0.1,0 0.1,0 0.2,0 164.1,0 329.4,18.8 492.7,57.6 v 0 c -163.3,-38.8 -328.6,-57.6 -492.7,-57.6"
         id="path352"
         inkscape:connector-curvature="0" />
    </clipPath>
    <clipPath
       clipPathUnits="userSpaceOnUse"
       id="clipPath1664">
      <path
         d="M 9698.17,8491.28 7200.76,7969.5 c -86.98,172.77 -134.15,299.46 -12.67,473.38 l 2497.04,535.6 c -27.86,-156.16 -22.4,-347.1 13.04,-487.2 z"
         id="path1662"
         inkscape:connector-curvature="0" />
    </clipPath>
    <clipPath
       clipPathUnits="userSpaceOnUse"
       id="clipPath304">
      <path
         d="m 20986,8431.61 -2472.3,-630.05 c -94.4,168.82 -215.5,1863.91 -101.7,2042.96 l 2471.3,643.78 c -21,-157.2 61.2,-1918.28 102.7,-2056.69 z"
         id="path302"
         inkscape:connector-curvature="0" />
    </clipPath>
    <clipPath
       clipPathUnits="userSpaceOnUse"
       id="clipPath562">
      <path
         d="m 8410.68,3714.5 c -959.12,0 -1736.65,66.2 -1736.65,147.9 0,81.7 777.53,147.9 1736.65,147.9 959.13,0 1736.62,-66.2 1736.62,-147.9 0,-81.7 -777.49,-147.9 -1736.62,-147.9"
         id="path560"
         inkscape:connector-curvature="0" />
    </clipPath>
    <clipPath
       clipPathUnits="userSpaceOnUse"
       id="clipPath358">
      <path
         d="m 3757.34,8269.65 1.9,174.84 c 11.92,-0.69 23.52,-1.43 34.81,-2.19 4.53,-17.83 7.7,-35.96 6.85,-54.76 -1.93,-43.06 -17.52,-83.09 -43.56,-117.89 m -636.87,48.17 c -15.48,31.57 -23.27,65.72 -21.69,101.1 0.37,8.42 3.81,16.01 5.41,24.12 5.82,0.46 11.71,0.91 17.65,1.34 l -1.37,-126.56"
         id="path356"
         inkscape:connector-curvature="0" />
    </clipPath>
  </defs>
  <sodipodi:namedview
     id="base"
     pagecolor="#ffffff"
     bordercolor="#666666"
     borderopacity="1.0"
     inkscape:pageopacity="0.0"
     inkscape:pageshadow="2"
     inkscape:zoom="0.70710678"
     inkscape:cx="250.75644"
     inkscape:cy="472.98918"
     inkscape:document-units="px"
     inkscape:current-layer="layer1"
     showgrid="false"
     units="px"
     inkscape:window-width="1920"
     inkscape:window-height="1031"
     inkscape:window-x="0"
     inkscape:window-y="25"
     inkscape:window-maximized="1"
     showguides="true"
     inkscape:lockguides="true"
     inkscape:object-nodes="false"
     inkscape:snap-nodes="false"
     inkscape:snap-others="false" />
  <metadata
     id="metadata2380">
    <rdf:RDF>
      <cc:Work
         rdf:about="">
        <dc:format>image/svg+xml</dc:format>
        <dc:type
           rdf:resource="http://purl.org/dc/dcmitype/StillImage" />
        <dc:title />
      </cc:Work>
    </rdf:RDF>
  </metadata>
  <g
     inkscape:groupmode="layer"
     id="layer3"
     inkscape:label="Layer 2" />
  <g
     inkscape:groupmode="layer"
     id="layer2"
     inkscape:label="Layer 3" />
  <g
     inkscape:label="Layer 1"
     inkscape:groupmode="layer"
     id="layer1"
     transform="translate(0,-32.41665)">
    <text
       xml:space="preserve"
       style="font-style:normal;font-variant:normal;font-weight:bold;font-stretch:normal;font-size:10.58333302px;line-height:1.25;font-family:sans-serif;-inkscape-font-specification:'sans-serif Bold';letter-spacing:0px;word-spacing:0px;fill:#000000;fill-opacity:1;stroke:none;stroke-width:0.26458332"
       x="150.05655"
       y="89.869026"
       id="text8811" />
    <text
       xml:space="preserve"
       style="font-style:normal;font-variant:normal;font-weight:bold;font-stretch:normal;font-size:10.58333302px;line-height:1.25;font-family:sans-serif;-inkscape-font-specification:'sans-serif Bold';letter-spacing:0px;word-spacing:0px;fill:#000000;fill-opacity:1;stroke:none;stroke-width:0.26458332"
       x="160.63989"
       y="97.806526"
       id="text8815" />
    <text
       xml:space="preserve"
       style="font-style:normal;font-variant:normal;font-weight:bold;font-stretch:normal;font-size:10.58333302px;line-height:1.25;font-family:sans-serif;-inkscape-font-specification:'sans-serif Bold';letter-spacing:0px;word-spacing:0px;fill:#000000;fill-opacity:1;stroke:none;stroke-width:0.26458332"
       x="156.86011"
       y="88.7351"
       id="text8819" />
    <flowRoot
       xml:space="preserve"
       id="flowRoot8821"
       style="font-style:normal;font-variant:normal;font-weight:bold;font-stretch:normal;font-size:40px;line-height:1.25;font-family:sans-serif;-inkscape-font-specification:'sans-serif Bold';letter-spacing:0px;word-spacing:0px;fill:#000000;fill-opacity:1;stroke:none"><flowRegion
         id="flowRegion8823"
         style="font-style:normal;font-variant:normal;font-weight:bold;font-stretch:normal;font-family:sans-serif;-inkscape-font-specification:'sans-serif Bold'" /><flowPara
         id="flowPara8827" /></flowRoot>    <flowRoot
       xml:space="preserve"
       id="flowRoot8829"
       style="font-style:normal;font-variant:normal;font-weight:bold;font-stretch:normal;font-size:40px;line-height:1.25;font-family:sans-serif;-inkscape-font-specification:'sans-serif Bold';letter-spacing:0px;word-spacing:0px;fill:#000000;fill-opacity:1;stroke:none"><flowRegion
         id="flowRegion8831"
         style="font-style:normal;font-variant:normal;font-weight:bold;font-stretch:normal;font-family:sans-serif;-inkscape-font-specification:'sans-serif Bold'" /><flowPara
         id="flowPara8835" /></flowRoot>    <flowRoot
       xml:space="preserve"
       id="flowRoot8837"
       style="font-style:normal;font-variant:normal;font-weight:bold;font-stretch:normal;font-size:40px;line-height:1.25;font-family:sans-serif;-inkscape-font-specification:'sans-serif Bold';letter-spacing:0px;word-spacing:0px;fill:#000000;fill-opacity:1;stroke:none"><flowRegion
         id="flowRegion8839"
         style="font-style:normal;font-variant:normal;font-weight:bold;font-stretch:normal;font-family:sans-serif;-inkscape-font-specification:'sans-serif Bold'" /><flowPara
         id="flowPara8843" /></flowRoot>    <text
       xml:space="preserve"
       style="font-style:normal;font-variant:normal;font-weight:bold;font-stretch:normal;font-size:10.58333302px;line-height:1.25;font-family:sans-serif;-inkscape-font-specification:'sans-serif Bold';letter-spacing:0px;word-spacing:0px;fill:#000000;fill-opacity:1;stroke:none;stroke-width:0.26458332"
       x="209.39882"
       y="107.25594"
       id="text8847" />
    <flowRoot
       xml:space="preserve"
       id="flowRoot8849"
       style="font-style:normal;font-variant:normal;font-weight:bold;font-stretch:normal;font-size:40px;line-height:1.25;font-family:sans-serif;-inkscape-font-specification:'sans-serif Bold';letter-spacing:0px;word-spacing:0px;fill:#000000;fill-opacity:1;stroke:none"><flowRegion
         id="flowRegion8851"
         style="font-style:normal;font-variant:normal;font-weight:bold;font-stretch:normal;font-family:sans-serif;-inkscape-font-specification:'sans-serif Bold'" /><flowPara
         id="flowPara8855" /></flowRoot>    <flowRoot
       xml:space="preserve"
       id="flowRoot8857"
       style="font-style:normal;font-variant:normal;font-weight:bold;font-stretch:normal;font-size:40px;line-height:1.25;font-family:sans-serif;-inkscape-font-specification:'sans-serif Bold';letter-spacing:0px;word-spacing:0px;fill:#000000;fill-opacity:1;stroke:none"><flowRegion
         id="flowRegion8859"
         style="font-style:normal;font-variant:normal;font-weight:bold;font-stretch:normal;font-family:sans-serif;-inkscape-font-specification:'sans-serif Bold'" /><flowPara
         id="flowPara8863" /></flowRoot>    <flowRoot
       xml:space="preserve"
       id="flowRoot8865"
       style="font-style:normal;font-variant:normal;font-weight:bold;font-stretch:normal;font-size:40px;line-height:1.25;font-family:sans-serif;-inkscape-font-specification:'sans-serif Bold';letter-spacing:0px;word-spacing:0px;fill:#000000;fill-opacity:1;stroke:none"><flowRegion
         id="flowRegion8867"
         style="font-style:normal;font-variant:normal;font-weight:bold;font-stretch:normal;font-family:sans-serif;-inkscape-font-specification:'sans-serif Bold'" /><flowPara
         id="flowPara8871" /></flowRoot>    <flowRoot
       xml:space="preserve"
       id="flowRoot8873"
       style="font-style:normal;font-variant:normal;font-weight:bold;font-stretch:normal;font-size:40px;line-height:1.25;font-family:sans-serif;-inkscape-font-specification:'sans-serif Bold';letter-spacing:0px;word-spacing:0px;fill:#000000;fill-opacity:1;stroke:none"><flowRegion
         id="flowRegion8875"
         style="font-style:normal;font-variant:normal;font-weight:bold;font-stretch:normal;font-family:sans-serif;-inkscape-font-specification:'sans-serif Bold'" /><flowPara
         id="flowPara8879" /></flowRoot>    <text
       xml:space="preserve"
       style="font-style:normal;font-weight:normal;font-size:10.58333302px;line-height:1.25;font-family:sans-serif;letter-spacing:0px;word-spacing:0px;fill:#000000;fill-opacity:1;stroke:none;stroke-width:0.26458332"
       x="101.02788"
       y="69.125984"
       id="text977"><tspan
         sodipodi:role="line"
         id="tspan975"
         x="101.02788"
         y="78.489754"
         style="stroke-width:0.26458332" /><tspan
         sodipodi:role="line"
         x="101.02788"
         y="91.718918"
         style="stroke-width:0.26458332"
         id="tspan979" /><tspan
         sodipodi:role="line"
         x="101.02788"
         y="104.94809"
         style="stroke-width:0.26458332"
         id="tspan981" /><tspan
         sodipodi:role="line"
         x="101.02788"
         y="118.17725"
         style="stroke-width:0.26458332"
         id="tspan983" /><tspan
         sodipodi:role="line"
         x="101.02788"
         y="131.40642"
         style="stroke-width:0.26458332"
         id="tspan985" /><tspan
         sodipodi:role="line"
         x="101.02788"
         y="144.63559"
         style="stroke-width:0.26458332"
         id="tspan987" /><tspan
         sodipodi:role="line"
         x="101.02788"
         y="157.86475"
         style="stroke-width:0.26458332"
         id="tspan989" /><tspan
         sodipodi:role="line"
         x="101.02788"
         y="171.09392"
         style="stroke-width:0.26458332"
         id="tspan991" /><tspan
         sodipodi:role="line"
         x="101.02788"
         y="184.32309"
         style="stroke-width:0.26458332"
         id="tspan993" /><tspan
         sodipodi:role="line"
         x="101.02788"
         y="197.55225"
         style="stroke-width:0.26458332"
         id="tspan995" /><tspan
         sodipodi:role="line"
         x="101.02788"
         y="210.78142"
         style="stroke-width:0.26458332"
         id="tspan997" /><tspan
         sodipodi:role="line"
         x="101.02788"
         y="224.01059"
         style="stroke-width:0.26458332"
         id="tspan999" /><tspan
         sodipodi:role="line"
         x="101.02788"
         y="237.23975"
         style="stroke-width:0.26458332"
         id="tspan1001" /><tspan
         sodipodi:role="line"
         x="101.02788"
         y="250.46892"
         style="stroke-width:0.26458332"
         id="tspan1003" /><tspan
         sodipodi:role="line"
         x="101.02788"
         y="263.69809"
         style="stroke-width:0.26458332"
         id="tspan1005" /><tspan
         sodipodi:role="line"
         x="101.02788"
         y="276.92725"
         style="stroke-width:0.26458332"
         id="tspan1007" /><tspan
         sodipodi:role="line"
         x="101.02788"
         y="290.1564"
         style="stroke-width:0.26458332"
         id="tspan1009" /><tspan
         sodipodi:role="line"
         x="101.02788"
         y="303.38559"
         style="stroke-width:0.26458332"
         id="tspan1011" /><tspan
         sodipodi:role="line"
         x="101.02788"
         y="316.61475"
         style="stroke-width:0.26458332"
         id="tspan1013" /><tspan
         sodipodi:role="line"
         x="101.02788"
         y="329.8439"
         style="stroke-width:0.26458332"
         id="tspan1015" /><tspan
         sodipodi:role="line"
         x="101.02788"
         y="343.07309"
         style="stroke-width:0.26458332"
         id="tspan1017" /><tspan
         sodipodi:role="line"
         x="101.02788"
         y="356.30225"
         style="stroke-width:0.26458332"
         id="tspan1019" /><tspan
         sodipodi:role="line"
         x="101.02788"
         y="369.5314"
         style="stroke-width:0.26458332"
         id="tspan1021" /><tspan
         sodipodi:role="line"
         x="101.02788"
         y="382.76059"
         style="stroke-width:0.26458332"
         id="tspan1023" /></text>
    <g
       id="g60"
       transform="matrix(0.02571423,0,0,-0.02571423,-213.2201,350.66854)"
       style="stroke-width:1.87787831">
      <path
         d="m 15652,3279.89 h 423 l 225,-198.5 h -648 v 198.5"
         style="fill:#68cddd;fill-opacity:1;fill-rule:nonzero;stroke:none;stroke-width:1.87787831"
         id="path62"
         inkscape:connector-curvature="0" />
    </g>
    <g
       id="g64"
       transform="matrix(0.02469191,0,0,-0.02469191,-213.2201,350.66854)"
       style="stroke-width:1.87787831">
      <path
         d="m 15625.2,4231.88 h 440.5 l 234.3,-206.71 h -674.8 v 206.71"
         style="fill:#68cddd;fill-opacity:1;fill-rule:nonzero;stroke:none;stroke-width:1.87787831"
         id="path66"
         inkscape:connector-curvature="0" />
    </g>
    <g
       id="g68"
       transform="matrix(0.02366977,0,0,-0.02366977,-213.2201,350.66854)"
       style="stroke-width:1.87787831">
      <path
         d="m 15601.2,5266.16 h 454.3 l 244.5,-215.64 h -698.8 v 215.64"
         style="fill:#68cddd;fill-opacity:1;fill-rule:nonzero;stroke:none;stroke-width:1.87787831"
         id="path70"
         inkscape:connector-curvature="0" />
    </g>
    <path
       d="M 79.602527,266.32892 H 68.727324 l -5.78608,5.10416 h 16.661283 v -5.10416"
       style="fill:#68cddd;fill-opacity:1;fill-rule:nonzero;stroke:none;stroke-width:0.03527778"
       id="path72"
       inkscape:connector-curvature="0" />
    <g
       id="g74"
       transform="matrix(0.0189868,0,0,-0.0189868,-213.2201,350.66854)"
       style="stroke-width:1.87787831">
      <path
         d="m 16300,5503.45 h -572.9 l -304.7,-268.82 h 877.6 v 268.82"
         style="fill:#68cddd;fill-opacity:1;fill-rule:nonzero;stroke:none;stroke-width:1.87787831"
         id="path76"
         inkscape:connector-curvature="0" />
    </g>
    <g
       id="g78"
       transform="matrix(0.02000161,0,0,-0.02000161,-213.2201,350.66854)"
       style="stroke-width:1.87787831">
      <path
         d="m 16300,6231.92 h -537.7 L 15473,5976.64 h 827 v 255.28"
         style="fill:#68cddd;fill-opacity:1;fill-rule:nonzero;stroke:none;stroke-width:1.87787831"
         id="path80"
         inkscape:connector-curvature="0" />
    </g>
    <g
       id="g82"
       transform="matrix(0.02265476,0,0,-0.02473611,-213.2201,363.50278)"
       style="stroke-width:1.79713845">
      <path
         d="m 16044.6,6391.62 h -1398 l -255.5,-225.29 H 16300 l -255.4,225.29"
         style="fill:#68cddd;fill-opacity:1;fill-rule:nonzero;stroke:none;stroke-width:1.79713845"
         id="path84"
         inkscape:connector-curvature="0" />
    </g>
    <g
       id="g86"
       transform="matrix(0.02571423,0,0,-0.02571423,-213.2201,350.66854)"
       style="stroke-width:1.87787831">
      <path
         d="m 15652,3081.39 v 783.76 h -648 v 783.82 h -645 v 783.69 H 12678.9 V 4648.9 h -643.3 v -783.75 h -648 v -783.76 h -648 V 2297.57 H 16300 v 783.82 h -648"
         style="fill:#43a8bf;fill-opacity:1;fill-rule:nonzero;stroke:none;stroke-width:1.87787831"
         id="path88"
         inkscape:connector-curvature="0" />
    </g>
    <g
       id="g90"
       transform="matrix(0.02123322,0,0,-0.02318396,-213.2201,363.50278)"
       style="stroke-width:1.79713845">
      <path
         d="m 16234.3,6896.59 c -2,-12.07 -455.9,39.52 -455.5,54.32 3.6,128.81 32.7,386.79 36.2,461.37 l 485,-54.69 c -23.7,-126.15 -51.8,-373.79 -65.7,-461"
         style="fill:#ffc19f;fill-opacity:1;fill-rule:nonzero;stroke:none;stroke-width:1.79713845"
         id="path92"
         inkscape:connector-curvature="0" />
    </g>
    <g
       id="g94"
       transform="matrix(0.02125238,0,0,-0.02320488,-213.2201,363.50278)"
       style="stroke-width:1.79713845">
      <path
         d="m 16260.2,6841.17 c -1.3,-7.4 -527,27.12 -527.6,36.2 -5.8,78.97 7.7,236.99 5.9,282.72 l 561.5,-36.62 c -14.4,-84.25 -30.6,-228.91 -39.8,-282.3"
         style="fill:#ffffff;fill-opacity:1;fill-rule:nonzero;stroke:none;stroke-width:1.79713845"
         id="path96"
         inkscape:connector-curvature="0" />
    </g>
    <g
       id="g98"
       transform="matrix(0.02126346,0,0,-0.02321698,-213.2201,363.50278)"
       style="stroke-width:1.79713845">
      <path
         d="m 15664.8,6990.63 c 7.2,26.67 22.3,60.45 34.1,91.36 8.6,22.91 233,19.26 233.6,-35.86 0.1,-14.09 -0.5,-26.55 -1.6,-37.83 38.3,-0.38 79.9,0.07 123.9,1.69 95.5,3.48 181.2,11.25 241.3,20.82 3.9,-87.15 -3.7,-238.02 -0.2,-334.89 0,0 -1000.6,-187.34 -1158.3,-42.2 -44.4,40.89 206.8,222.62 527.2,336.91"
         style="fill:#fc2222;fill-opacity:1;fill-rule:nonzero;stroke:none;stroke-width:1.79713845"
         id="path100"
         inkscape:connector-curvature="0" />
    </g>
    <g
       id="g102"
       transform="matrix(0.0212582,0,0,-0.02321123,-213.2201,363.50278)"
       style="stroke-width:1.79713845">
      <path
         d="m 16299.1,6758.35 c 0,-21.56 0.2,-42.33 0.9,-60.76 0,0 -1000.9,-187.39 -1158.6,-42.21 -6.3,5.76 -6.6,14.37 -1.7,25.15 276.1,-59.94 910.6,35.92 1159.4,77.82"
         style="fill:#b21414;fill-opacity:1;fill-rule:nonzero;stroke:none;stroke-width:1.79713845"
         id="path104"
         inkscape:connector-curvature="0" />
    </g>
    <g
       id="g106"
       transform="matrix(0.02055637,0,0,-0.02244493,-213.2201,363.50278)"
       style="stroke-width:1.79713845">
      <path
         d="m 15952.3,7137.04 c 1.3,-7.88 8.7,-13.32 16.8,-11.81 48.1,8.98 111.6,-14.65 153.7,-55.83 3,-2.88 6.9,-4.24 10.7,-4.11 3.6,0.14 7.1,1.59 9.8,4.37 5.6,5.71 5.5,14.89 -0.2,20.48 -48.4,47.25 -121.9,73.53 -178.9,63.62 -7.9,-1.35 -13.2,-8.84 -11.9,-16.72 z m 246.6,-27.65 c 3,-3.14 7.1,-4.67 11.1,-4.53 3.4,0.13 6.7,1.44 9.4,3.95 5.8,5.49 6,14.68 0.5,20.48 -45.7,48.48 -108.3,72.25 -171.7,64.78 -7.9,-0.91 -13.7,-8.08 -12.8,-16.02 0.9,-7.97 8.3,-14.21 16.1,-12.73 31.9,3.69 93.3,1.25 147.4,-55.93 z m 73.2,35.36 c 3,-3.93 7.5,-5.92 12.1,-5.74 2.8,0.1 5.7,1.05 8.2,2.89 6.4,4.81 7.6,13.89 2.8,20.3 -40.2,53.28 -110.2,81.12 -170.3,68.05 -7.9,-1.73 -12.8,-9.46 -11.1,-17.28 1.8,-7.81 9.4,-12.6 17.3,-11.04 49.5,11.12 107.4,-12.63 141,-57.18"
         style="fill:#d3dae5;fill-opacity:1;fill-rule:nonzero;stroke:none;stroke-width:1.79713845"
         id="path108"
         inkscape:connector-curvature="0" />
    </g>
    <g
       id="g110"
       transform="matrix(0.02217573,0,0,-0.02421306,-213.2201,363.50278)"
       style="stroke-width:1.79713845">
      <path
         d="m 15803.7,6649.14 c -0.6,-11.68 434.7,-54.77 437.3,-40.82 22.6,121.29 47.2,368.65 59,439.17 l -465,46.42 c -3.3,-122.86 -26.8,-360.34 -31.3,-444.77"
         style="fill:#ffc19f;fill-opacity:1;fill-rule:nonzero;stroke:none;stroke-width:1.79713845"
         id="path112"
         inkscape:connector-curvature="0" />
    </g>
    <g
       id="g114"
       transform="matrix(0.02220878,0,0,-0.02424915,-213.2201,363.50278)"
       style="stroke-width:1.79713845">
      <path
         d="m 15775.6,6579.25 c 0.6,-7.15 504.5,-18.98 506,-10.37 12.2,74.76 12.8,226.53 18.4,269.96 l -538.3,12.88 c 6.6,-81.53 9.6,-220.79 13.9,-272.47"
         style="fill:#ffffff;fill-opacity:1;fill-rule:nonzero;stroke:none;stroke-width:1.79713845"
         id="path116"
         inkscape:connector-curvature="0" />
    </g>
    <g
       id="g118"
       transform="matrix(0.02302259,0,0,-0.02513772,-213.2201,363.50278)"
       style="stroke-width:1.79713845">
      <path
         d="m 15772.1,6456.46 c -6.7,24.64 -20.7,55.84 -31.5,84.39 -8,21.16 -215.2,17.79 -215.8,-33.12 -0.1,-13.02 0.4,-24.52 1.5,-34.94 -35.4,-0.36 -73.9,0.06 -114.5,1.56 -88.2,3.21 -167.3,10.38 -222.8,19.22 -3.6,-80.49 3.4,-219.83 0.1,-309.3 0,0 924.2,-173.02 1069.9,-38.97 41,37.77 -191.1,205.61 -486.9,311.16"
         style="fill:#fc2222;fill-opacity:1;fill-rule:nonzero;stroke:none;stroke-width:1.79713845"
         id="path120"
         inkscape:connector-curvature="0" />
    </g>
    <g
       id="g122"
       transform="matrix(0.02297318,0,0,-0.02508378,-213.2201,363.50278)"
       style="stroke-width:1.79713845">
      <path
         d="m 15222.6,6253.8 c 0,-19.94 -0.1,-39.16 -0.8,-56.22 0,0 926.2,-173.4 1072.1,-39.06 5.9,5.33 6.1,13.3 1.6,23.28 -255.5,-55.46 -842.6,33.23 -1072.9,72"
         style="fill:#b21414;fill-opacity:1;fill-rule:nonzero;stroke:none;stroke-width:1.79713845"
         id="path124"
         inkscape:connector-curvature="0" />
    </g>
    <g
       id="g126"
       transform="matrix(0.02259559,0,0,-0.0246715,-213.2201,363.50278)"
       style="stroke-width:1.79713845">
      <path
         d="m 16288,6508.16 c -51.9,9.02 -118.7,-14.89 -162.8,-57.87 -5.1,-5.09 -5.3,-13.44 -0.1,-18.63 2.4,-2.53 5.6,-3.86 8.9,-3.98 3.5,-0.12 7,1.12 9.7,3.74 38.3,37.46 96,58.96 139.9,50.79 7.3,-1.38 14,3.58 15.2,10.74 1.2,7.17 -3.6,13.99 -10.8,15.21 z m -79.5,10.52 c 7.2,-1.34 13.8,4.34 14.7,11.58 0.8,7.23 -4.4,13.75 -11.7,14.58 -57.6,6.8 -114.5,-14.83 -156.2,-58.94 -5,-5.28 -4.8,-13.63 0.5,-18.63 2.4,-2.28 5.5,-3.47 8.6,-3.59 3.6,-0.13 7.3,1.27 10,4.12 49.3,52.02 105.1,54.24 134.1,50.88 z m -72.4,33.31 c 7.3,-1.42 14.2,2.94 15.7,10.04 1.6,7.11 -2.9,14.15 -10,15.72 -54.6,11.89 -118.4,-13.44 -155,-61.91 -4.3,-5.82 -3.2,-14.09 2.6,-18.46 2.2,-1.68 4.9,-2.55 7.5,-2.64 4.1,-0.16 8.3,1.65 10.9,5.23 30.6,40.53 83.4,62.13 128.3,52.02"
         style="fill:#d3dae5;fill-opacity:1;fill-rule:nonzero;stroke:none;stroke-width:1.79713845"
         id="path128"
         inkscape:connector-curvature="0" />
    </g>
    <g
       id="g130"
       transform="matrix(0.02257736,0,0,-0.02465159,-213.2201,363.50278)"
       style="stroke-width:1.79713845">
      <path
         d="m 14806.9,6811.54 c 71.1,-17.17 433,-31.49 527,-32.79 14.6,191.22 102.3,1031.7 154.9,1320.29 19.4,106.81 158.4,90.22 156.3,-5.18 -1,-47.44 -111.7,-960.79 -143.3,-1294.82 108.5,-14.82 445,-28.1 549.7,-17.16 0,0 248.5,1840.75 233.8,2126.26 -255.7,28.87 -1121.4,28.6 -1396.3,-3.35 -47.1,-294.94 -69.6,-1660.7 -82.1,-2093.25"
         style="fill:#224966;fill-opacity:1;fill-rule:nonzero;stroke:none;stroke-width:1.79713845"
         id="path132"
         inkscape:connector-curvature="0" />
    </g>
    <g
       id="g134"
       transform="matrix(0.02254542,0,0,-0.02461671,-213.2201,363.50278)"
       style="stroke-width:1.79713845">
      <path
         d="m 16086.1,8507.95 c 0,-104.63 67.4,-192.69 160.8,-225.47 23.5,180.06 42.7,342.14 53.1,462.19 -120,-13.11 -213.9,-113.17 -213.9,-236.72"
         style="fill:#001d26;fill-opacity:1;fill-rule:nonzero;stroke:none;stroke-width:1.79713845"
         id="path136"
         inkscape:connector-curvature="0" />
    </g>
    <g
       id="g138"
       transform="matrix(0.02092232,0,0,-0.0228445,-213.2201,363.50278)"
       style="stroke-width:1.79713845">
      <path
         d="m 16049.1,9425.7 c -8.8,-133.15 -15.9,-313.64 -22.1,-514.74 4.9,-0.29 9.6,-1.47 14.5,-1.47 142.8,0 258.5,115.73 258.5,258.48 0,140.17 -111.7,253.64 -250.9,257.73"
         style="fill:#001d26;fill-opacity:1;fill-rule:nonzero;stroke:none;stroke-width:1.79713845"
         id="path140"
         inkscape:connector-curvature="0" />
    </g>
    <g
       id="g142"
       transform="matrix(0.02383002,0,0,-0.02601933,-213.2201,363.50278)"
       style="stroke-width:1.79713845">
      <path
         d="m 16275.6,10105.8 c 24.4,26.7 -166.8,230.5 -190.7,209.9 -358.7,-306.9 -646,-453.26 -1064.8,-641.58 73,-112.28 146.2,-221.38 220.9,-332.51 401,235.47 712.8,411 1034.6,764.19"
         style="fill:#ffc19f;fill-opacity:1;fill-rule:nonzero;stroke:none;stroke-width:1.79713845"
         id="path144"
         inkscape:connector-curvature="0" />
    </g>
    <g
       id="g146"
       transform="matrix(0.02300512,0,0,-0.02511865,-213.2201,363.50278)"
       style="stroke-width:1.79713845">
      <path
         d="m 16054.8,10282.2 c 63.3,-111 187.5,-374.9 245.2,-494.21 -257,-146.39 -487.9,-246.66 -509.2,-245.95 -222.1,7.35 -407.4,426.99 -425.3,448.3 137.2,53.26 435.4,174.06 689.3,291.86"
         style="fill:#fc2222;fill-opacity:1;fill-rule:nonzero;stroke:none;stroke-width:1.79713845"
         id="path148"
         inkscape:connector-curvature="0" />
    </g>
    <g
       id="g150"
       transform="matrix(0.02230665,0,0,-0.02435601,-213.2201,363.50278)"
       style="stroke-width:1.79713845">
      <path
         d="m 15778,8373.48 c -179.7,0 -358.9,29.36 -539.1,78.55 6.4,8.45 12.3,17.34 17.7,26.62 91.3,-15.72 188.9,-23.43 289.3,-23.43 236,-0.01 488,42.52 713.3,123.17 3.6,-42.39 18.1,-81.52 40.8,-114.71 -175.4,-62.98 -348.9,-90.2 -522,-90.2"
         style="fill:#162e40;fill-opacity:1;fill-rule:nonzero;stroke:none;stroke-width:1.79713845"
         id="path152"
         inkscape:connector-curvature="0" />
    </g>
    <g
       id="g154"
       transform="matrix(0.02251968,0,0,-0.02458861,-213.2201,363.50278)"
       style="stroke-width:1.79713845">
      <path
         d="m 16145.8,8383.59 c -22.5,32.88 -36.9,71.64 -40.5,113.62 67.7,24.24 133.1,51.98 194.7,83.05 -4.7,-43.87 -9.9,-90.54 -15.6,-139.43 -46.4,-21.67 -92.5,-40.7 -138.6,-57.24"
         style="fill:#011218;fill-opacity:1;fill-rule:nonzero;stroke:none;stroke-width:1.79713845"
         id="path156"
         inkscape:connector-curvature="0" />
    </g>
    <g
       id="g158"
       transform="matrix(0.02087874,0,0,-0.02279691,-213.2201,363.50278)"
       style="stroke-width:1.79713845">
      <path
         d="m 16281.1,9030.1 c -70.3,19.18 -140.7,41.18 -211.3,65.51 0.2,7.93 0.5,15.73 0.8,23.42 70.4,-26.34 147.6,-46.43 229.4,-60.5 -5.7,-9.91 -12.1,-19.41 -18.9,-28.43"
         style="fill:#011218;fill-opacity:1;fill-rule:nonzero;stroke:none;stroke-width:1.79713845"
         id="path160"
         inkscape:connector-curvature="0" />
    </g>
    <g
       id="g162"
       transform="matrix(0.02069012,0,0,-0.02259097,-213.2201,363.50278)"
       style="stroke-width:1.79713845">
      <path
         d="m 14773,11086.7 c -35.4,21.9 111.7,308.1 144.7,292.9 494.4,-226.3 858.9,-297.3 1382.3,-373.2 -45.3,-147.4 -91.8,-291.5 -139.4,-438.2 -518.5,133.8 -919.5,229.3 -1387.6,518.5"
         style="fill:#ffc19f;fill-opacity:1;fill-rule:nonzero;stroke:none;stroke-width:1.79713845"
         id="path164"
         inkscape:connector-curvature="0" />
    </g>
    <g
       id="g166"
       transform="matrix(0.02096402,0,0,-0.02289003,-213.2201,363.50278)"
       style="stroke-width:1.79713845">
      <path
         d="m 15484.7,10988.3 c -33.3,-136.2 -84.7,-452.1 -109.6,-595.4 315.4,-76.9 589.2,-113 611.5,-105.8 232.1,74.8 300.9,573.5 313.4,601.4 -160.8,14.7 -511.9,52.2 -815.3,99.8"
         style="fill:#fc2222;fill-opacity:1;fill-rule:nonzero;stroke:none;stroke-width:1.79713845"
         id="path168"
         inkscape:connector-curvature="0" />
    </g>
    <g
       id="g170"
       transform="matrix(0.02266565,0,0,-0.02474799,-213.2201,363.50278)"
       style="stroke-width:1.79713845">
      <path
         d="m 14751.7,8421.3 c 407.4,-181.7 1107.4,-108.67 1548.3,162.07 0,0 -232.4,1263.95 -323.5,1550.53 -331.8,53 -930.2,-35.8 -1220.1,-117 -2.8,-378.47 -13.6,-1038.08 -4.7,-1595.6"
         style="fill:#fc2222;fill-opacity:1;fill-rule:nonzero;stroke:none;stroke-width:1.79713845"
         id="path172"
         inkscape:connector-curvature="0" />
    </g>
    <g
       id="g174"
       transform="matrix(0.02209155,0,0,-0.02412115,-213.2201,363.50278)"
       style="stroke-width:1.79713845">
      <path
         d="m 15791.6,9163.53 c -11.3,0 -18.5,1.39 -21.6,4.17 -5.6,4.09 -9,9.64 -10.4,16.64 -4.5,23.52 -6.5,59.72 -5.8,108.66 0.7,48.91 3.2,100.09 7.7,153.54 4.4,53.43 10.1,103.78 17.2,151.03 7.1,47.27 14.4,81.03 22.4,101.05 3.1,7.83 14.9,16.38 35.2,25.72 20.3,9.35 43.2,17.32 68.6,23.89 25.4,6.58 50.2,10.74 74.4,12.51 4.9,0.35 9.5,0.53 13.8,0.53 17.3,0 30.4,-2.82 39,-8.62 16,-10.64 36.9,-36.89 63.1,-78.23 26.2,-41.35 52.7,-86.7 79.4,-136.1 26.7,-49.38 51.2,-96.96 73.4,-142.7 22.4,-45.76 37.5,-78.23 45.5,-97.38 5.7,-14.05 6.5,-24.38 2.3,-30.96 -4.1,-6.58 -12.3,-12.06 -24.6,-16.4 -20.8,-7.28 -46.9,-14.56 -78.3,-21.79 -31.4,-7.23 -51.2,-11.04 -59.4,-11.45 -0.2,0 -0.3,0 -0.3,0 -3.2,0 -6.2,0.62 -9.1,1.81 -9.6,3.93 -20.7,17.79 -33.2,41.82 -12.4,24.03 -23.4,40.13 -32.8,48.29 -5.2,4.52 -11.3,6.77 -18.5,6.77 -0.5,0 -0.9,-0.01 -1.4,-0.03 l -59.9,-9.83 c -18.7,-3.69 -29.8,-11.95 -33.3,-24.84 -4.7,-16.55 -10.1,-34.99 -16.1,-55.29 -6,-20.3 -10.9,-33.02 -14.5,-38.14 -1.8,-3.07 -4.8,-5.45 -9,-7.16 -9.6,-3.91 -33,-8.45 -70.3,-13.67 -18.2,-2.56 -32.7,-3.84 -43.5,-3.84 m 169.6,372.09 c -3.9,0 -7.1,-1.95 -9.7,-5.84 -6.6,-9.87 -12.1,-25.53 -16.6,-46.93 -4.5,-21.42 -5.1,-35.1 -1.8,-41.05 3.5,-6.38 11.4,-9.56 23.8,-9.56 7.1,0 15.7,1.07 25.9,3.2 27.6,5.84 41.6,15.16 41.9,27.99 0.2,7.8 -10,23.76 -30.7,47.89 -13.7,16.2 -24.7,24.3 -32.8,24.3"
         style="fill:#fd8686;fill-opacity:1;fill-rule:nonzero;stroke:none;stroke-width:1.79713845"
         id="path176"
         inkscape:connector-curvature="0" />
    </g>
    <g
       id="g178"
       transform="matrix(0.021902,0,0,-0.02391418,-213.2201,363.50278)"
       style="stroke-width:1.79713845">
      <path
         d="m 16288.2,10460.6 c -1.5,19.6 -16.7,64.5 -23.7,82.4 -201.7,-38.5 -494.8,-70.1 -707.7,-113.7 -0.6,-8.6 -3.3,-16.9 -2.6,-25.7 11.8,-152.1 185.7,-262.6 388.4,-246.8 202.7,15.7 357.4,151.7 345.6,303.8"
         style="fill:#9e330d;fill-opacity:1;fill-rule:nonzero;stroke:none;stroke-width:1.79713845"
         id="path180"
         inkscape:connector-curvature="0" />
    </g>
    <g
       id="g182"
       transform="matrix(0.02178855,0,0,-0.02379031,-213.2201,363.50278)"
       style="stroke-width:1.79713845">
      <path
         d="m 16228,10934.2 59.2,-446.2 c 12.8,-96 -98.9,-190 -249.3,-209.9 -150.4,-20 -282.7,41.7 -295.4,137.6 l -59.2,446.2 544.7,72.3"
         style="fill:#ffc19f;fill-opacity:1;fill-rule:nonzero;stroke:none;stroke-width:1.79713845"
         id="path184"
         inkscape:connector-curvature="0" />
    </g>
    <g
       id="g186"
       transform="matrix(0.02174627,0,0,-0.02374414,-213.2201,363.50278)"
       style="stroke-width:1.79713845">
      <path
         d="m 15752,10595.3 v 0 l -5.7,42.8 5.7,-42.8 m 548,55.8 -9.7,72.7 v 0 l 9.7,-72.7"
         style="fill:#e1d4d0;fill-opacity:1;fill-rule:nonzero;stroke:none;stroke-width:1.79713845"
         id="path188"
         inkscape:connector-curvature="0" />
    </g>
    <g
       id="g190"
       transform="matrix(0.02176148,0,0,-0.02376076,-213.2201,363.50278)"
       style="stroke-width:1.79713845">
      <path
         d="m 16048.6,10455.5 c -25.9,0 -52.6,2.3 -79.5,7.2 -96.4,17.6 -176.7,64.8 -228.2,125.2 l -5.7,42.8 -21.3,160.9 c 172.6,-11.2 394.8,-43.2 565,-75.3 l 9.7,-72.7 11.4,-86.2 c -53.5,-63.3 -146.4,-101.9 -251.4,-101.9"
         style="fill:#e1a182;fill-opacity:1;fill-rule:nonzero;stroke:none;stroke-width:1.79713845"
         id="path192"
         inkscape:connector-curvature="0" />
    </g>
    <g
       id="g194"
       transform="matrix(0.02037019,0,0,-0.02224165,-213.2201,363.50278)"
       style="stroke-width:1.79713845">
      <path
         d="m 15511.5,11986.8 c 101.3,-263.6 384.4,-404.4 580,-355.5 195.5,49 208.5,276.1 144,533.8 -64.4,257.7 -275.3,427.6 -470.8,378 -266.9,-67.8 -348.4,-308.6 -253.2,-556.3"
         style="fill:#ffc19f;fill-opacity:1;fill-rule:nonzero;stroke:none;stroke-width:1.79713845"
         id="path196"
         inkscape:connector-curvature="0" />
    </g>
    <g
       id="g198"
       transform="matrix(0.02017764,0,0,-0.0220314,-213.2201,363.50278)"
       style="stroke-width:1.79713845">
      <path
         d="m 15907.2,12068.9 c 28.6,-114.1 133.2,-186.1 233.8,-161 100.6,25.2 159,138.1 130.5,252.2 -28.6,114 -133.2,186.1 -233.9,160.9 -100.5,-25.1 -158.9,-138 -130.4,-252.1"
         style="fill:#e0956c;fill-opacity:1;fill-rule:nonzero;stroke:none;stroke-width:1.79713845"
         id="path200"
         inkscape:connector-curvature="0" />
    </g>
    <g
       id="g202"
       transform="matrix(0.02316911,0,0,-0.02529771,-213.2201,363.50278)"
       style="stroke-width:1.79713845">
      <path
         d="m 16264.3,10823.6 c -37.8,-245.3 -255.1,-419 -432.1,-413.4 -177.2,5.7 -230.6,198.4 -223.2,431.9 7.5,233.4 157.1,418.7 334.2,412.4 242.1,-8.6 356.8,-200.3 321.1,-430.9"
         style="fill:#ffc19f;fill-opacity:1;fill-rule:nonzero;stroke:none;stroke-width:1.79713845"
         id="path204"
         inkscape:connector-curvature="0" />
    </g>
    <g
       id="g206"
       transform="matrix(0.02281349,0,0,-0.02490942,-213.2201,363.50278)"
       style="stroke-width:1.79713845">
      <path
         d="m 16296.7,10916.7 c -3.4,-103.9 -80.4,-185.9 -172,-182.9 -91.7,2.9 -163.3,89.5 -160,193.5 3.4,103.9 80.4,185.8 172,182.9 91.7,-2.9 163.3,-89.6 160,-193.5"
         style="fill:#e0956c;fill-opacity:1;fill-rule:nonzero;stroke:none;stroke-width:1.79713845"
         id="path208"
         inkscape:connector-curvature="0" />
    </g>
    <g
       id="g210"
       transform="matrix(0.0229232,0,0,-0.0250292,-213.2201,363.50278)"
       style="stroke-width:1.79713845">
      <path
         d="m 16219.6,11701.7 c 80.4,-750.5 -378.3,-1141 -1071.1,-1215.2 -692.9,-74.1 -1237.2,209 -1317.5,959.5 -80.3,750.4 409.1,979.1 1102,1053.3 692.9,74.1 1206.3,-47.2 1286.6,-797.6"
         style="fill:#752912;fill-opacity:1;fill-rule:nonzero;stroke:none;stroke-width:1.79713845"
         id="path212"
         inkscape:connector-curvature="0" />
    </g>
    <g
       id="g214"
       transform="matrix(0.02270999,0,0,-0.0247964,-213.2201,363.50278)"
       style="stroke-width:1.79713845">
      <path
         d="m 16206.9,11496.7 c 93.1,-869.7 -287.2,-1306.1 -878.5,-1369.4 -591.3,-63.3 -1066.9,281.5 -1160,1151.2 -93.1,869.7 338.1,939.1 929.4,1002.3 591.3,63.4 1016.1,85.6 1109.1,-784.1"
         style="fill:#ffc19f;fill-opacity:1;fill-rule:nonzero;stroke:none;stroke-width:1.79713845"
         id="path216"
         inkscape:connector-curvature="0" />
    </g>
    <g
       id="g218"
       transform="matrix(0.02053495,0,0,-0.02242154,-213.2201,363.50278)"
       style="stroke-width:1.79713845">
      <path
         d="m 15982.1,11806 c 2.1,-50.9 74.6,-89.1 161.7,-85.4 87.2,3.7 156.2,47.9 154.1,98.8 -2.2,50.8 -74.7,89.1 -161.8,85.4 -87.2,-3.7 -156.2,-47.9 -154,-98.8"
         style="fill:#ff9797;fill-opacity:1;fill-rule:nonzero;stroke:none;stroke-width:1.79713845"
         id="path220"
         inkscape:connector-curvature="0" />
    </g>
    <g
       id="g222"
       transform="matrix(0.02190237,0,0,-0.02391458,-213.2201,363.50278)"
       style="stroke-width:1.79713845">
      <path
         d="m 16249.5,11137.4 c -26.2,86.7 -159.8,49.6 -382.2,27.9 -11.7,-1.1 -56.9,-5.8 -68.5,-7.1 -222.1,-24.6 -360.5,-15.9 -368.3,-106.2 -14.9,-173.9 219,-337.8 444.8,-315 l 3.9,0.5 c 225.7,24.2 420.8,232.8 370.3,399.9"
         style="fill:#701608;fill-opacity:1;fill-rule:nonzero;stroke:none;stroke-width:1.79713845"
         id="path224"
         inkscape:connector-curvature="0" />
    </g>
    <g
       id="g226"
       transform="matrix(0.02162998,0,0,-0.02361718,-213.2201,363.50278)"
       style="stroke-width:1.79713845">
      <path
         d="m 16079.6,10869.1 -4,-0.4 c -74.1,-7.4 -153.1,5.6 -228.8,37.4 l -4.6,1.9 3.3,3.6 c 53.9,59.5 130.8,97.1 216.7,106.1 85.7,8.9 168.8,-12.1 233.8,-59.1 l 4,-2.9 -4.1,-2.8 c -67.6,-46.8 -142.3,-75.8 -216.3,-83.8"
         style="fill:#dd6b5b;fill-opacity:1;fill-rule:nonzero;stroke:none;stroke-width:1.79713845"
         id="path228"
         inkscape:connector-curvature="0" />
    </g>
    <g
       id="g230"
       transform="matrix(0.02168014,0,0,-0.02367194,-213.2201,363.50278)"
       style="stroke-width:1.79713845">
      <path
         d="m 16007.4,11161.4 c -156.9,-16.4 -292.6,18.6 -315.6,81.5 l -1.4,3.8 609.6,63.5 -0.6,-4 c -9.7,-66.3 -135.3,-128.5 -292,-144.8"
         style="fill:#ffffff;fill-opacity:1;fill-rule:nonzero;stroke:none;stroke-width:1.79713845"
         id="path232"
         inkscape:connector-curvature="0" />
    </g>
    <g
       id="g234"
       transform="matrix(0.02235925,0,0,-0.02441345,-213.2201,363.50278)"
       style="stroke-width:1.79713845">
      <path
         d="m 16006,10964.9 c 8.5,-46 79.3,-71.5 158.1,-56.9 78.9,14.5 135.9,63.5 127.4,109.5 -8.5,46 -79.2,71.5 -158,57 -78.9,-14.5 -136,-63.6 -127.5,-109.6"
         style="fill:#ff9797;fill-opacity:1;fill-rule:nonzero;stroke:none;stroke-width:1.79713845"
         id="path236"
         inkscape:connector-curvature="0" />
    </g>
    <g
       id="g238"
       transform="matrix(0.02218662,0,0,-0.02422495,-213.2201,363.50278)"
       style="stroke-width:1.79713845">
      <path
         d="m 16127.6,13183.5 c 29.4,-103.1 -8,-196.5 -82.3,-280.5 41.8,134.9 26.6,301.2 -121.3,492.7 -78.4,-85.9 -161.8,-176.8 -245.1,-267 2.7,55.1 -4.5,113.9 -25,176.5 -123.9,-226.2 -276.7,-234.6 -763.9,-416.5 -333.4,-124.4 -338.5,-380.6 -281.2,-517.5 226.1,82.7 540.6,-17 792.7,9.9 316,33.9 550.2,120.6 664.8,232.4 139.1,135.5 233.7,383.6 61.3,570"
         style="fill:#752912;fill-opacity:1;fill-rule:nonzero;stroke:none;stroke-width:1.79713845"
         id="path240"
         inkscape:connector-curvature="0" />
    </g>
    <g
       id="g242"
       transform="matrix(0.0222796,0,0,-0.02432647,-213.2201,363.50278)"
       style="stroke-width:1.79713845">
      <path
         d="m 15759.3,11517.8 c -64.5,-121.4 -40.7,-244.4 32.5,-283.9 110.2,-59.5 354.1,-52.6 432.3,60.3 75.9,109.3 12.8,285.9 -138.4,347.8 -132.3,54.3 -264,-6.7 -326.4,-124.2"
         style="fill:#f9feff;fill-opacity:1;fill-rule:nonzero;stroke:none;stroke-width:1.79713845"
         id="path244"
         inkscape:connector-curvature="0" />
    </g>
    <g
       id="g246"
       transform="matrix(0.02228186,0,0,-0.02432894,-213.2201,363.50278)"
       style="stroke-width:1.79713845">
      <path
         d="m 16203.8,11598.8 c -130.8,162.2 -390.4,72.9 -448.3,-86.3 64.4,121.3 203.5,171.7 325.9,121.7 75.6,-31 134.1,-94.8 156.5,-170.6 17.9,-60.4 11.7,-131.1 -19.8,-176.5 38.6,31.6 81.9,192.6 -14.3,311.7"
         style="fill:#723c27;fill-opacity:1;fill-rule:nonzero;stroke:none;stroke-width:1.79713845"
         id="path248"
         inkscape:connector-curvature="0" />
    </g>
    <g
       id="g250"
       transform="matrix(0.02202637,0,0,-0.02404998,-213.2201,363.50278)"
       style="stroke-width:1.79713845">
      <path
         d="m 15978,11577.5 c -23.1,-82.6 25.2,-168.2 107.8,-191.2 82.5,-23.1 168.1,25.2 191.2,107.7 23,82.6 -25.3,168.2 -107.8,191.3 -82.6,23 -168.2,-25.3 -191.2,-107.8"
         style="fill:#752912;fill-opacity:1;fill-rule:nonzero;stroke:none;stroke-width:1.79713845"
         id="path252"
         inkscape:connector-curvature="0" />
    </g>
    <g
       id="g254"
       transform="matrix(0.02172692,0,0,-0.02372302,-213.2201,363.50278)"
       style="stroke-width:1.79713845">
      <path
         d="m 16209.4,11752.3 c -6.5,-23.2 7.1,-47.3 30.3,-53.8 23.2,-6.5 47.3,7.1 53.8,30.4 6.5,23.2 -7.1,47.2 -30.3,53.7 -23.2,6.5 -47.3,-7.1 -53.8,-30.3"
         style="fill:#fefffe;fill-opacity:1;fill-rule:nonzero;stroke:none;stroke-width:1.79713845"
         id="path256"
         inkscape:connector-curvature="0" />
    </g>
    <g
       id="g258"
       transform="matrix(0.02091723,0,0,-0.02283895,-213.2201,363.50278)"
       style="stroke-width:1.79713845">
      <path
         d="m 16202.6,12205.5 c 94.5,-111.8 97.4,-245.3 30.1,-302.9 -101.3,-86.8 -356.7,-134.5 -463.7,-34.7 -103.5,96.7 -77.7,294.7 65.8,393.3 125.5,86.3 276.2,52.5 367.8,-55.7"
         style="fill:#f9feff;fill-opacity:1;fill-rule:nonzero;stroke:none;stroke-width:1.79713845"
         id="path260"
         inkscape:connector-curvature="0" />
    </g>
    <g
       id="g262"
       transform="matrix(0.02079626,0,0,-0.02270686,-213.2201,363.50278)"
       style="stroke-width:1.79713845">
      <path
         d="m 15811,12261.5 c 100.3,199.4 392.3,164.8 489,11.2 -95,112.4 -251.9,133.7 -368.7,53.5 -72.2,-49.6 -119.1,-129.6 -125.4,-214.1 -5,-67.3 17.6,-140 60.9,-180.4 -47.6,24.4 -129.5,183.1 -55.8,329.8"
         style="fill:#723c27;fill-opacity:1;fill-rule:nonzero;stroke:none;stroke-width:1.79713845"
         id="path264"
         inkscape:connector-curvature="0" />
    </g>
    <g
       id="g266"
       transform="matrix(0.0208111,0,0,-0.02272306,-213.2201,363.50278)"
       style="stroke-width:1.79713845">
      <path
         d="m 15959.2,12151.6 c -24.4,-87.3 26.7,-178 114,-202.3 87.4,-24.4 178.1,26.7 202.4,114 24.4,87.4 -26.7,178 -114.1,202.4 -87.3,24.4 -177.9,-26.7 -202.3,-114.1"
         style="fill:#752912;fill-opacity:1;fill-rule:nonzero;stroke:none;stroke-width:1.79713845"
         id="path268"
         inkscape:connector-curvature="0" />
    </g>
    <g
       id="g270"
       transform="matrix(0.02051165,0,0,-0.0223961,-213.2201,363.50278)"
       style="stroke-width:1.79713845">
      <path
         d="m 16204.1,12345.2 c -6.9,-24.6 7.5,-50.1 32.1,-57 24.6,-6.8 50.1,7.6 56.9,32.1 6.9,24.6 -7.5,50.2 -32,57 -24.7,6.9 -50.1,-7.5 -57,-32.1"
         style="fill:#fefffe;fill-opacity:1;fill-rule:nonzero;stroke:none;stroke-width:1.79713845"
         id="path272"
         inkscape:connector-curvature="0" />
    </g>
    <g
       id="g274"
       transform="matrix(0.02217178,0,0,-0.02420875,-213.2201,363.50278)"
       style="stroke-width:1.79713845">
      <path
         d="m 16251.3,12013.3 c -11.2,-1.2 -22.8,1.5 -32.7,8.6 -77,55.3 -213.1,58.1 -316.8,6.2 -23.2,-11.7 -51.9,-2.1 -63.7,21.3 -11.7,23.4 -2.2,51.9 21.3,63.6 134.9,67.6 309.2,61.4 414.5,-14 21.3,-15.3 26.1,-45 10.8,-66.2 -8.2,-11.5 -20.5,-18.1 -33.4,-19.5"
         style="fill:#752912;fill-opacity:1;fill-rule:nonzero;stroke:none;stroke-width:1.79713845"
         id="path276"
         inkscape:connector-curvature="0" />
    </g>
    <g
       id="g278"
       transform="matrix(0.02066139,0,0,-0.0225596,-213.2201,363.50278)"
       style="stroke-width:1.79713845">
      <path
         d="m 15867.9,12723.3 c -13.9,-1.5 -28.3,2.7 -39.6,12.8 -20.8,18.8 -22.4,51 -3.6,71.9 93.1,103 274.5,149 431.7,108.9 27.1,-7 43.6,-34.7 36.7,-61.9 -6.9,-27.2 -34.8,-43.6 -61.9,-36.8 -120.7,31 -262.8,-3 -331,-78.5 -8.7,-9.6 -20.4,-15.1 -32.3,-16.4"
         style="fill:#752912;fill-opacity:1;fill-rule:nonzero;stroke:none;stroke-width:1.79713845"
         id="path280"
         inkscape:connector-curvature="0" />
    </g>
    <g
       id="g282"
       transform="matrix(0.02135363,0,0,-0.02331543,-213.2201,363.50278)"
       style="stroke-width:1.79713845">
      <path
         d="m 16288.6,11605.2 c -5.4,-0.6 -10.6,2.8 -12.1,8.2 -10.6,38.3 -44.2,60.2 -85.5,55.8 -41.4,-4.4 -70.3,-33.5 -71.7,-72.4 -0.2,-6.2 -5.5,-11.1 -11.7,-10.9 -6.2,0.2 -11.1,5.5 -10.8,11.7 1.7,49.8 39.5,88.5 91.8,94.1 52.1,5.6 96.2,-23.5 109.7,-72.2 1.7,-6.1 -1.8,-12.3 -7.9,-14 l -1.8,-0.3"
         style="fill:#c4735b;fill-opacity:1;fill-rule:nonzero;stroke:none;stroke-width:1.79713845"
         id="path284"
         inkscape:connector-curvature="0" />
    </g>
    <g
       id="g286"
       transform="matrix(0.02453599,0,0,-0.02679017,-213.2201,363.50278)"
       style="stroke-width:1.79713845">
      <path
         d="m 16036.2,9973.92 c 10.8,-15.42 39.8,-17.95 85,-23.41 39.1,-4.72 97.9,-10.01 120,-30.12 23.6,-21.47 0.7,-45.4 -44.3,-55.78 -74.1,-17.14 -243.1,-49.78 -328.2,-59.98 -143.8,-26.62 -293.5,64.35 -314.2,199.97 -31.2,203.5 -30.9,284.4 -45.4,410.1 -3.6,31 63.2,11.1 83.9,-26.3 44.3,-80 33,-111.9 59,-151 25.4,-38.2 60.4,-23.9 92.8,6.1 114.9,190.8 160.6,312.9 227.7,308.1 54.7,-12.7 -6.8,-154.9 -83.3,-312 141.1,127 264.7,217.3 292.1,175.6 32.4,-49.4 -87.1,-161.3 -186.9,-272.8 143.1,22.5 285.1,86.6 296.9,11.6 8.7,-54.7 -285.4,-136.6 -255.1,-180.08"
         style="fill:#ffc19f;fill-opacity:1;fill-rule:nonzero;stroke:none;stroke-width:1.79713845"
         id="path288"
         inkscape:connector-curvature="0" />
    </g>
    <g
       id="g290"
       transform="matrix(0.01916001,0,0,-0.02092028,-213.2201,363.50278)"
       style="stroke-width:1.79713845">
      <path
         d="m 15692.4,12096.6 c -10.8,-21.6 -47.2,-30 -103.3,-45.2 -48.8,-13.1 -122.4,-30.5 -146.7,-60 -26,-31.5 7.4,-57.7 66.3,-62.7 97.1,-8.2 317.3,-18.8 427,-16.2 187,-7.6 360.2,135 361.8,310.7 2.5,263.6 -12.7,366 -17.1,528.1 -1.1,39.9 -82.2,2.5 -101.6,-48.6 -41.6,-109.5 -21.5,-147.9 -47.2,-202.3 -25.3,-53 -72.2,-41.3 -118.9,-9 -180.3,220.9 -260.4,367.3 -344.6,349 -67.1,-26.1 36.8,-195.1 162.4,-380.4 -201.9,135.4 -375.2,227.3 -402.2,169.5 -32.2,-68.5 139.7,-188.6 286.6,-311.8 -185.7,2.5 -377.2,57.9 -378.6,-39.3 -1,-71 386.6,-121.2 356.1,-181.8"
         style="fill:#ffc19f;fill-opacity:1;fill-rule:nonzero;stroke:none;stroke-width:1.79713845"
         id="path292"
         inkscape:connector-curvature="0" />
    </g>
  </g>
</svg>
