<?xml version="1.0" encoding="UTF-8"?>
<svg id="Up" xmlns="http://www.w3.org/2000/svg" viewBox="0 0 1000 1000">
  <defs>
    <style>
      .cls-1, .cls-2 {
        fill: #fff;
      }

      .cls-3 {
        font-family: FreeSansBold, FreeSans;
        font-size: 150px;
      }

      .cls-4 {
        fill: #ce3a7d;
      }

      .cls-4, .cls-2, .cls-5 {
        stroke: #353535;
      }

      .cls-4, .cls-2, .cls-5, .cls-6 {
        stroke-miterlimit: 10;
      }

      .cls-6 {
        fill: #158db7;
        stroke: #0d7d9b;
        stroke-width: 4px;
      }

      .cls-7 {
        fill: red;
      }
    </style>
  </defs>
  <g>
    <path class="cls-6" d="M376.05,618.14v-233.48c0-6.05-4.74-10.96-10.6-10.96h-84.7L500.4,54.48l218.84,317.14h-92.19c-5.85,0-10.6,4.91-10.6,10.96v235.57c0,6.81-5.34,12.34-11.93,12.34h-216.54c-6.59,0-11.93-5.52-11.93-12.34Z"/>
    <g>
      <ellipse class="cls-1" cx="437.4" cy="294.48" rx="21.55" ry="22.29"/>
      <ellipse cx="438.23" cy="293.62" rx="14.09" ry="14.57"/>
      <ellipse class="cls-1" cx="444.86" cy="283.33" rx="4.14" ry="4.29"/>
    </g>
    <g>
      <ellipse class="cls-1" cx="568.37" cy="294.48" rx="21.55" ry="22.29"/>
      <ellipse cx="569.2" cy="293.62" rx="14.09" ry="14.57"/>
      <ellipse class="cls-1" cx="577.49" cy="283.33" rx="4.14" ry="4.29"/>
    </g>
    <g>
      <path class="cls-5" d="M529.29,366.69c7.66-7.06,12.37-16.13,12.19-22.76-.06-2.03-.57-3.48-1.46-4.5-4.42,8.53-18.34,13.69-35.47,14.19-17.23,.51-32.35-4.21-37.46-12.69-1.25,1.1-1.91,2.76-1.84,5.24,.2,7.38,6.62,17.43,16.27,24.17,6.7-4.22,15.92-7,26.24-7.27,7.91-.21,15.34,1.17,21.54,3.62Z"/>
      <path class="cls-2" d="M504.54,353.62c17.13-.5,31.05-5.66,35.47-14.19-4.55-5.2-19.19,.82-36.77,1.34-16.81,.49-31.21-4.19-36.16,.16,5.11,8.48,20.23,13.19,37.46,12.69Z"/>
      <path class="cls-4" d="M529.29,366.69c-6.2-2.45-13.62-3.83-21.54-3.62-10.32,.27-19.54,3.06-26.24,7.27,6.44,4.5,14.31,7.52,22.74,7.27,9.72-.29,18.46-4.87,25.03-10.92Z"/>
    </g>
  </g>
  <text class="cls-3" transform="translate(397.34 803.27)"><tspan class="cls-7" x="0" y="0">U</tspan><tspan x="108.3" y="0">p</tspan></text>
</svg>