<?xml version="1.0" encoding="UTF-8" standalone="no"?>
<!-- Created with Inkscape (http://www.inkscape.org/) -->

<svg
   xmlns:dc="http://purl.org/dc/elements/1.1/"
   xmlns:cc="http://creativecommons.org/ns#"
   xmlns:rdf="http://www.w3.org/1999/02/22-rdf-syntax-ns#"
   xmlns:svg="http://www.w3.org/2000/svg"
   xmlns="http://www.w3.org/2000/svg"
   xmlns:sodipodi="http://sodipodi.sourceforge.net/DTD/sodipodi-0.dtd"
   xmlns:inkscape="http://www.inkscape.org/namespaces/inkscape"
   width="1000"
   height="1000"
   viewBox="0 0 264.58333 264.58334"
   version="1.1"
   id="svg2383"
   inkscape:version="0.92.5 (2060ec1f9f, 2020-04-08)"
   sodipodi:docname="sunny.svg"
   enable-background="new">
  <defs
     id="defs2377" />
  <sodipodi:namedview
     id="base"
     pagecolor="#ffffff"
     bordercolor="#666666"
     borderopacity="1.0"
     inkscape:pageopacity="0.0"
     inkscape:pageshadow="2"
     inkscape:zoom="0.70710678"
     inkscape:cx="405.77588"
     inkscape:cy="570.83969"
     inkscape:document-units="px"
     inkscape:current-layer="layer1"
     showgrid="false"
     units="px"
     inkscape:window-width="1920"
     inkscape:window-height="1031"
     inkscape:window-x="0"
     inkscape:window-y="25"
     inkscape:window-maximized="1"
     showguides="true"
     inkscape:lockguides="true"
     inkscape:object-nodes="false"
     inkscape:snap-nodes="false"
     inkscape:snap-others="false" />
  <metadata
     id="metadata2380">
    <rdf:RDF>
      <cc:Work
         rdf:about="">
        <dc:format>image/svg+xml</dc:format>
        <dc:type
           rdf:resource="http://purl.org/dc/dcmitype/StillImage" />
        <dc:title></dc:title>
      </cc:Work>
    </rdf:RDF>
  </metadata>
  <g
     inkscape:groupmode="layer"
     id="layer3"
     inkscape:label="Layer 2" />
  <g
     inkscape:groupmode="layer"
     id="layer2"
     inkscape:label="Layer 3" />
  <g
     inkscape:label="Layer 1"
     inkscape:groupmode="layer"
     id="layer1"
     transform="translate(0,-32.41665)">
    <text
       xml:space="preserve"
       style="font-style:normal;font-variant:normal;font-weight:bold;font-stretch:normal;font-size:10.58333302px;line-height:1.25;font-family:sans-serif;-inkscape-font-specification:'sans-serif Bold';letter-spacing:0px;word-spacing:0px;fill:#000000;fill-opacity:1;stroke:none;stroke-width:0.26458332"
       x="150.05655"
       y="89.869026"
       id="text8811" />
    <text
       xml:space="preserve"
       style="font-style:normal;font-variant:normal;font-weight:bold;font-stretch:normal;font-size:10.58333302px;line-height:1.25;font-family:sans-serif;-inkscape-font-specification:'sans-serif Bold';letter-spacing:0px;word-spacing:0px;fill:#000000;fill-opacity:1;stroke:none;stroke-width:0.26458332"
       x="160.63989"
       y="97.806526"
       id="text8815" />
    <text
       xml:space="preserve"
       style="font-style:normal;font-variant:normal;font-weight:bold;font-stretch:normal;font-size:10.58333302px;line-height:1.25;font-family:sans-serif;-inkscape-font-specification:'sans-serif Bold';letter-spacing:0px;word-spacing:0px;fill:#000000;fill-opacity:1;stroke:none;stroke-width:0.26458332"
       x="156.86011"
       y="88.7351"
       id="text8819" />
    <flowRoot
       xml:space="preserve"
       id="flowRoot8821"
       style="font-style:normal;font-variant:normal;font-weight:bold;font-stretch:normal;font-size:40px;line-height:1.25;font-family:sans-serif;-inkscape-font-specification:'sans-serif Bold';letter-spacing:0px;word-spacing:0px;fill:#000000;fill-opacity:1;stroke:none"><flowRegion
         id="flowRegion8823"
         style="font-style:normal;font-variant:normal;font-weight:bold;font-stretch:normal;font-family:sans-serif;-inkscape-font-specification:'sans-serif Bold'" /><flowPara
         id="flowPara8827" /></flowRoot>    <flowRoot
       xml:space="preserve"
       id="flowRoot8829"
       style="font-style:normal;font-variant:normal;font-weight:bold;font-stretch:normal;font-size:40px;line-height:1.25;font-family:sans-serif;-inkscape-font-specification:'sans-serif Bold';letter-spacing:0px;word-spacing:0px;fill:#000000;fill-opacity:1;stroke:none"><flowRegion
         id="flowRegion8831"
         style="font-style:normal;font-variant:normal;font-weight:bold;font-stretch:normal;font-family:sans-serif;-inkscape-font-specification:'sans-serif Bold'" /><flowPara
         id="flowPara8835" /></flowRoot>    <flowRoot
       xml:space="preserve"
       id="flowRoot8837"
       style="font-style:normal;font-variant:normal;font-weight:bold;font-stretch:normal;font-size:40px;line-height:1.25;font-family:sans-serif;-inkscape-font-specification:'sans-serif Bold';letter-spacing:0px;word-spacing:0px;fill:#000000;fill-opacity:1;stroke:none"><flowRegion
         id="flowRegion8839"
         style="font-style:normal;font-variant:normal;font-weight:bold;font-stretch:normal;font-family:sans-serif;-inkscape-font-specification:'sans-serif Bold'" /><flowPara
         id="flowPara8843" /></flowRoot>    <text
       xml:space="preserve"
       style="font-style:normal;font-variant:normal;font-weight:bold;font-stretch:normal;font-size:10.58333302px;line-height:1.25;font-family:sans-serif;-inkscape-font-specification:'sans-serif Bold';letter-spacing:0px;word-spacing:0px;fill:#000000;fill-opacity:1;stroke:none;stroke-width:0.26458332"
       x="209.39882"
       y="107.25594"
       id="text8847" />
    <flowRoot
       xml:space="preserve"
       id="flowRoot8849"
       style="font-style:normal;font-variant:normal;font-weight:bold;font-stretch:normal;font-size:40px;line-height:1.25;font-family:sans-serif;-inkscape-font-specification:'sans-serif Bold';letter-spacing:0px;word-spacing:0px;fill:#000000;fill-opacity:1;stroke:none"><flowRegion
         id="flowRegion8851"
         style="font-style:normal;font-variant:normal;font-weight:bold;font-stretch:normal;font-family:sans-serif;-inkscape-font-specification:'sans-serif Bold'" /><flowPara
         id="flowPara8855" /></flowRoot>    <flowRoot
       xml:space="preserve"
       id="flowRoot8857"
       style="font-style:normal;font-variant:normal;font-weight:bold;font-stretch:normal;font-size:40px;line-height:1.25;font-family:sans-serif;-inkscape-font-specification:'sans-serif Bold';letter-spacing:0px;word-spacing:0px;fill:#000000;fill-opacity:1;stroke:none"><flowRegion
         id="flowRegion8859"
         style="font-style:normal;font-variant:normal;font-weight:bold;font-stretch:normal;font-family:sans-serif;-inkscape-font-specification:'sans-serif Bold'" /><flowPara
         id="flowPara8863" /></flowRoot>    <flowRoot
       xml:space="preserve"
       id="flowRoot8865"
       style="font-style:normal;font-variant:normal;font-weight:bold;font-stretch:normal;font-size:40px;line-height:1.25;font-family:sans-serif;-inkscape-font-specification:'sans-serif Bold';letter-spacing:0px;word-spacing:0px;fill:#000000;fill-opacity:1;stroke:none"><flowRegion
         id="flowRegion8867"
         style="font-style:normal;font-variant:normal;font-weight:bold;font-stretch:normal;font-family:sans-serif;-inkscape-font-specification:'sans-serif Bold'" /><flowPara
         id="flowPara8871" /></flowRoot>    <flowRoot
       xml:space="preserve"
       id="flowRoot8873"
       style="font-style:normal;font-variant:normal;font-weight:bold;font-stretch:normal;font-size:40px;line-height:1.25;font-family:sans-serif;-inkscape-font-specification:'sans-serif Bold';letter-spacing:0px;word-spacing:0px;fill:#000000;fill-opacity:1;stroke:none"><flowRegion
         id="flowRegion8875"
         style="font-style:normal;font-variant:normal;font-weight:bold;font-stretch:normal;font-family:sans-serif;-inkscape-font-specification:'sans-serif Bold'" /><flowPara
         id="flowPara8879" /></flowRoot>    <text
       xml:space="preserve"
       style="font-style:normal;font-weight:normal;font-size:10.58333302px;line-height:1.25;font-family:sans-serif;letter-spacing:0px;word-spacing:0px;fill:#000000;fill-opacity:1;stroke:none;stroke-width:0.26458332"
       x="101.02788"
       y="69.125984"
       id="text977"><tspan
         sodipodi:role="line"
         id="tspan975"
         x="101.02788"
         y="78.489754"
         style="stroke-width:0.26458332" /><tspan
         sodipodi:role="line"
         x="101.02788"
         y="91.718918"
         style="stroke-width:0.26458332"
         id="tspan979" /><tspan
         sodipodi:role="line"
         x="101.02788"
         y="104.94809"
         style="stroke-width:0.26458332"
         id="tspan981" /><tspan
         sodipodi:role="line"
         x="101.02788"
         y="118.17725"
         style="stroke-width:0.26458332"
         id="tspan983" /><tspan
         sodipodi:role="line"
         x="101.02788"
         y="131.40642"
         style="stroke-width:0.26458332"
         id="tspan985" /><tspan
         sodipodi:role="line"
         x="101.02788"
         y="144.63559"
         style="stroke-width:0.26458332"
         id="tspan987" /><tspan
         sodipodi:role="line"
         x="101.02788"
         y="157.86475"
         style="stroke-width:0.26458332"
         id="tspan989" /><tspan
         sodipodi:role="line"
         x="101.02788"
         y="171.09392"
         style="stroke-width:0.26458332"
         id="tspan991" /><tspan
         sodipodi:role="line"
         x="101.02788"
         y="184.32309"
         style="stroke-width:0.26458332"
         id="tspan993" /><tspan
         sodipodi:role="line"
         x="101.02788"
         y="197.55225"
         style="stroke-width:0.26458332"
         id="tspan995" /><tspan
         sodipodi:role="line"
         x="101.02788"
         y="210.78142"
         style="stroke-width:0.26458332"
         id="tspan997" /><tspan
         sodipodi:role="line"
         x="101.02788"
         y="224.01059"
         style="stroke-width:0.26458332"
         id="tspan999" /><tspan
         sodipodi:role="line"
         x="101.02788"
         y="237.23975"
         style="stroke-width:0.26458332"
         id="tspan1001" /><tspan
         sodipodi:role="line"
         x="101.02788"
         y="250.46892"
         style="stroke-width:0.26458332"
         id="tspan1003" /><tspan
         sodipodi:role="line"
         x="101.02788"
         y="263.69809"
         style="stroke-width:0.26458332"
         id="tspan1005" /><tspan
         sodipodi:role="line"
         x="101.02788"
         y="276.92725"
         style="stroke-width:0.26458332"
         id="tspan1007" /><tspan
         sodipodi:role="line"
         x="101.02788"
         y="290.1564"
         style="stroke-width:0.26458332"
         id="tspan1009" /><tspan
         sodipodi:role="line"
         x="101.02788"
         y="303.38559"
         style="stroke-width:0.26458332"
         id="tspan1011" /><tspan
         sodipodi:role="line"
         x="101.02788"
         y="316.61475"
         style="stroke-width:0.26458332"
         id="tspan1013" /><tspan
         sodipodi:role="line"
         x="101.02788"
         y="329.8439"
         style="stroke-width:0.26458332"
         id="tspan1015" /><tspan
         sodipodi:role="line"
         x="101.02788"
         y="343.07309"
         style="stroke-width:0.26458332"
         id="tspan1017" /><tspan
         sodipodi:role="line"
         x="101.02788"
         y="356.30225"
         style="stroke-width:0.26458332"
         id="tspan1019" /><tspan
         sodipodi:role="line"
         x="101.02788"
         y="369.5314"
         style="stroke-width:0.26458332"
         id="tspan1021" /><tspan
         sodipodi:role="line"
         x="101.02788"
         y="382.76059"
         style="stroke-width:0.26458332"
         id="tspan1023" /></text>
    <path
       d="m 43.394159,115.60875 c 0,0 -2.983504,121.03247 3.719067,133.09587 5.514755,9.92769 33.7834,9.19243 59.887454,8.45714 8.19012,-0.2315 21.41044,0.11773 35.994,0.46585 31.89974,0.76195 70.31964,1.5239 76.87962,-3.77462 9.56009,-7.72188 6.25132,-69.04216 6.25132,-90.07906 0,-23.89946 0,-69.489745 -3.30877,-79.785093 -3.30877,-10.293956 -46.69463,-11.029216 -85.29957,-11.029216 -38.605264,0 -80.048787,0.638445 -86.360002,5.146938 -7.720884,5.514628 -7.763119,37.502191 -7.763119,37.502191"
       style="fill:#b4e6ee;fill-opacity:1;fill-rule:nonzero;stroke:none;stroke-width:0.0352778"
       id="path178"
       inkscape:connector-curvature="0" />
    <path
       d="m 178.80798,141.88527 c 3.40558,-3.81532 10.31639,-8.01937 12.53486,-9.23874 3.52065,-2.05992 6.03521,3.05901 2.60155,4.99825 -4.3752,2.65064 -11.52598,5.49637 -14.08541,6.20077 -0.9584,0.0605 -1.59545,-1.18012 -1.051,-1.96028"
       style="fill:#f9d017;fill-opacity:1;fill-rule:nonzero;stroke:none;stroke-width:0.0352778"
       id="path186"
       inkscape:connector-curvature="0" />
    <path
       d="m 92.607956,190.31425 c -3.40615,3.81531 -10.31696,8.01932 -12.53572,9.23873 -3.52009,2.05849 -6.03492,-3.0604 -2.60085,-4.99825 4.37451,-2.65207 11.52541,-5.49637 14.08528,-6.20077 0.95812,-0.0605 1.59447,1.18008 1.05129,1.96029"
       style="fill:#f9d017;fill-opacity:1;fill-rule:nonzero;stroke:none;stroke-width:0.0352778"
       id="path188"
       inkscape:connector-curvature="0" />
    <path
       d="m 162.16593,123.82735 c 1.19551,-5.00943 5.28727,-12.07039 6.6624,-14.22291 2.12305,-3.52348 6.73683,-0.25537 4.63343,3.11931 -2.59455,4.46224 -7.53525,10.4455 -9.45205,12.31319 -0.81247,0.51915 -1.95468,-0.25974 -1.84378,-1.20959"
       style="fill:#f9d017;fill-opacity:1;fill-rule:nonzero;stroke:none;stroke-width:0.0352778"
       id="path190"
       inkscape:connector-curvature="0" />
    <path
       d="m 109.24961,208.37216 c -1.19708,5.00944 -5.28772,12.0704 -6.66244,14.22292 -2.12348,3.52348 -6.737664,0.25536 -4.633404,-3.11932 2.594394,-4.46223 7.535234,-10.44689 9.450904,-12.31319 0.814,-0.51919 1.95523,0.25974 1.84494,1.20959"
       style="fill:#f9d017;fill-opacity:1;fill-rule:nonzero;stroke:none;stroke-width:0.0352778"
       id="path192"
       inkscape:connector-curvature="0" />
    <path
       d="m 139.28334,116.10269 c -1.28266,-4.9884 -0.97412,-13.18035 -0.76796,-15.73981 0.22514,-4.128238 5.81013,-3.482752 5.53229,0.50515 -0.20365,5.18067 -1.76116,12.83656 -2.57729,15.40585 -0.47357,0.85033 -1.84127,0.71844 -2.18704,-0.17104"
       style="fill:#f9d017;fill-opacity:1;fill-rule:nonzero;stroke:none;stroke-width:0.0352778"
       id="path194"
       inkscape:connector-curvature="0" />
    <path
       d="m 132.13189,216.09683 c 1.28254,4.98839 0.9734,13.18034 0.76783,15.73981 -0.22513,4.1268 -5.81012,3.48275 -5.53216,-0.50516 0.20325,-5.18206 1.76104,-12.83799 2.57728,-15.40585 0.47358,-0.85176 1.8406,-0.71843 2.18705,0.17104"
       style="fill:#f9d017;fill-opacity:1;fill-rule:nonzero;stroke:none;stroke-width:0.0352778"
       id="path196"
       inkscape:connector-curvature="0" />
    <path
       d="m 113.41377,121.40682 c -3.628,-3.59643 -7.51812,-10.77386 -8.63956,-13.07371 -1.90093,-3.65394 3.20816,-6.03943 4.99346,-2.47808 2.45337,4.54361 5.0016,11.91888 5.60568,14.54848 0.0259,0.97666 -1.21195,1.58284 -1.95958,1.00331"
       style="fill:#f9d017;fill-opacity:1;fill-rule:nonzero;stroke:none;stroke-width:0.0352778"
       id="path198"
       inkscape:connector-curvature="0" />
    <path
       d="m 158.00134,210.79269 c 3.62853,3.59643 7.51823,10.77382 8.63939,13.07371 1.90138,3.65394 -3.20773,6.038 -4.9926,2.47804 -2.45422,-4.54357 -5.00232,-11.91884 -5.60695,-14.54848 -0.0239,-0.97662 1.21253,-1.5828 1.96016,-1.00327"
       style="fill:#f9d017;fill-opacity:1;fill-rule:nonzero;stroke:none;stroke-width:0.0352778"
       id="path200"
       inkscape:connector-curvature="0" />
    <path
       d="m 93.699796,139.96989 c -4.94141,-1.12117 -11.95142,-5.15258 -14.09132,-6.5109 -3.49974,-2.09361 -0.38042,-6.85468 2.97411,-4.77793 4.42951,2.55664 10.39918,7.47208 12.26826,9.38746 0.52564,0.81807 -0.21595,1.99536 -1.15105,1.90137"
       style="fill:#f9d017;fill-opacity:1;fill-rule:nonzero;stroke:none;stroke-width:0.0352778"
       id="path202"
       inkscape:connector-curvature="0" />
    <path
       d="m 177.71486,192.22962 c 4.94213,1.12117 11.95114,5.15259 14.09105,6.5109 3.50101,2.09357 0.38026,6.85468 -2.97342,4.77793 -4.42993,-2.55664 -10.39916,-7.47208 -12.26824,-9.3875 -0.52619,-0.81946 0.21599,-1.99536 1.15061,-1.90133"
       style="fill:#f9d017;fill-opacity:1;fill-rule:nonzero;stroke:none;stroke-width:0.0352778"
       id="path204"
       inkscape:connector-curvature="0" />
    <path
       d="m 87.031746,165.22206 c -4.75927,1.75822 -12.7977,2.19599 -15.31899,2.22268 -4.05682,0.14996 -3.93895,-5.57214 -0.0139,-5.65635 5.08439,-0.26928 12.7128,0.60758 15.2999,1.19973 0.87476,0.40273 0.87041,1.80034 0.033,2.23394"
       style="fill:#f9d017;fill-opacity:1;fill-rule:nonzero;stroke:none;stroke-width:0.0352778"
       id="path206"
       inkscape:connector-curvature="0" />
    <path
       d="m 184.92175,165.13785 c 4.75968,-1.75961 12.79726,-2.19743 15.31887,-2.22408 4.05667,-0.14995 3.93878,5.57354 0.0119,5.65775 -5.08525,0.26928 -12.7131,-0.60901 -15.30061,-1.19977 -0.87559,-0.40269 -0.86998,-1.80169 -0.0318,-2.2339"
       style="fill:#f9d017;fill-opacity:1;fill-rule:nonzero;stroke:none;stroke-width:0.0352778"
       id="path208"
       inkscape:connector-curvature="0" />
    <path
       d="m 170.86582,131.01599 c 2.27881,-4.60531 7.8313,-10.53949 9.64847,-12.32019 2.85131,-2.9439 6.62032,1.30219 3.82093,4.1058 -3.51783,3.74798 -9.65969,8.43893 -11.93993,9.81689 -0.90785,0.3186 -1.8466,-0.70304 -1.52947,-1.6025"
       style="fill:#f9d017;fill-opacity:1;fill-rule:nonzero;stroke:none;stroke-width:0.0352778"
       id="path210"
       inkscape:connector-curvature="0" />
    <path
       d="m 100.54872,201.18348 c -2.278674,4.60535 -7.831174,10.53954 -9.648194,12.32019 -2.8509,2.94394 -6.61922,-1.30215 -3.82052,-4.10576 3.51799,-3.74798 9.65914,-8.44032 11.93992,-9.81688 0.90773,-0.31861 1.846624,0.70304 1.528794,1.60245"
       style="fill:#f9d017;fill-opacity:1;fill-rule:nonzero;stroke:none;stroke-width:0.0352778"
       id="path212"
       inkscape:connector-curvature="0" />
    <path
       d="m 150.08412,118.15557 c -0.16427,-5.15259 1.9213,-13.07088 2.67931,-15.52089 1.11934,-3.973899 6.42347,-2.08378 5.28449,1.74279 -1.32701,5.00665 -4.51331,12.11951 -5.8688,14.44045 -0.64671,0.72121 -1.95073,0.2836 -2.095,-0.66235"
       style="fill:#f9d017;fill-opacity:1;fill-rule:nonzero;stroke:none;stroke-width:0.0352778"
       id="path214"
       inkscape:connector-curvature="0" />
    <path
       d="m 121.3304,214.04391 c 0.16503,5.15258 -1.92057,13.07092 -2.67929,15.52092 -1.11808,3.97386 -6.42347,2.08375 -5.28392,-1.74279 1.32645,-5.00664 4.51272,-12.11951 5.86822,-14.44044 0.64744,-0.72266 1.95144,-0.28361 2.09499,0.66231"
       style="fill:#f9d017;fill-opacity:1;fill-rule:nonzero;stroke:none;stroke-width:0.0352778"
       id="path216"
       inkscape:connector-curvature="0" />
    <path
       d="m 126.00646,116.95302 c -2.54765,-4.4552 -4.40356,-12.43244 -4.87826,-14.95539 -0.86887,-4.038458 4.68208,-4.939306 5.46257,-1.02153 1.16703,5.04734 1.67835,12.84778 1.56765,15.54614 -0.23229,0.94858 -1.58463,1.19416 -2.15196,0.43078"
       style="fill:#f9d017;fill-opacity:1;fill-rule:nonzero;stroke:none;stroke-width:0.0352778"
       id="path218"
       inkscape:connector-curvature="0" />
    <path
       d="m 145.40865,215.24646 c 2.54765,4.45519 4.40368,12.43243 4.87837,14.95403 0.86819,4.03981 -4.68164,4.9407 -5.46324,1.02292 -1.16647,-5.04734 -1.67839,-12.84917 -1.56765,-15.54614 0.23309,-0.94858 1.58519,-1.19416 2.15252,-0.43081"
       style="fill:#f9d017;fill-opacity:1;fill-rule:nonzero;stroke:none;stroke-width:0.0352778"
       id="path220"
       inkscape:connector-curvature="0" />
    <path
       d="m 102.47645,129.11887 c -4.441444,-2.47669 -10.076874,-8.33085 -11.761704,-10.24061 -2.79225,-3.0015 1.5034,-6.69331 4.15967,-3.74798 3.5584,3.70725 7.952834,10.11854 9.226114,12.48717 0.28177,0.93453 -0.75198,1.85503 -1.62408,1.50142"
       style="fill:#f9d017;fill-opacity:1;fill-rule:nonzero;stroke:none;stroke-width:0.0352778"
       id="path222"
       inkscape:connector-curvature="0" />
    <path
       d="m 168.93919,203.08064 c 4.44115,2.47526 10.07646,8.32946 11.76169,10.24062 2.79101,3.00149 -1.50421,6.69331 -4.16049,3.74797 -3.55852,-3.70728 -7.95198,-10.11854 -9.22613,-12.48717 -0.28201,-0.93453 0.75213,-1.85503 1.62493,-1.50142"
       style="fill:#f9d017;fill-opacity:1;fill-rule:nonzero;stroke:none;stroke-width:0.0352778"
       id="path224"
       inkscape:connector-curvature="0" />
    <path
       d="m 88.363806,152.38128 c -5.05646,0.26531 -12.8701,-1.70631 -15.28895,-2.43178 -3.92296,-1.06222 -2.16894,-6.49964 1.6092,-5.41356 4.93986,1.25446 11.98439,4.36256 14.28874,5.69843 0.72125,0.64549 0.31614,1.98133 -0.60899,2.14691"
       style="fill:#f9d017;fill-opacity:1;fill-rule:nonzero;stroke:none;stroke-width:0.0352778"
       id="path226"
       inkscape:connector-curvature="0" />
    <path
       d="m 183.05129,179.81823 c 5.05577,-0.2665 12.87025,1.70631 15.28938,2.43035 3.92196,1.06365 2.16796,6.50108 -1.60949,5.41499 -4.9407,-1.25589 -11.98484,-4.36399 -14.2889,-5.69843 -0.72122,-0.64549 -0.31583,-1.98133 0.60901,-2.14691"
       style="fill:#f9d017;fill-opacity:1;fill-rule:nonzero;stroke:none;stroke-width:0.0352778"
       id="path228"
       inkscape:connector-curvature="0" />
    <path
       d="m 88.456976,177.71762 c -4.12305,2.99167 -11.75188,5.60583 -14.17466,6.31866 -3.86921,1.25167 -5.26036,-4.29383 -1.50073,-5.44586 4.82788,-1.64597 12.40844,-2.88217 15.05658,-3.01689 0.94927,0.14876 1.3127,1.49864 0.61881,2.14409"
       style="fill:#f9d017;fill-opacity:1;fill-rule:nonzero;stroke:none;stroke-width:0.0352778"
       id="path230"
       inkscape:connector-curvature="0" />
    <path
       d="m 182.87166,151.75123 c 4.12262,-2.99302 11.7519,-5.60722 14.17383,-6.32005 3.87005,-1.25028 5.26066,4.29521 1.50142,5.44725 -4.82841,1.64597 -12.40857,2.88082 -15.05642,3.0155 -0.94997,-0.14877 -1.3134,-1.49721 -0.61883,-2.1427"
       style="fill:#f9d017;fill-opacity:1;fill-rule:nonzero;stroke:none;stroke-width:0.0352778"
       id="path232"
       inkscape:connector-curvature="0" />
    <path
       d="m 95.596376,174.28677 c 4.30715,22.08652 26.682874,36.17196 49.978814,31.46137 23.29527,-4.71199 38.68986,-26.43646 34.38343,-48.52297 -4.30647,-22.08655 -26.68331,-36.17335 -49.97925,-31.46137 -23.29554,4.71056 -38.689724,26.43507 -34.382994,48.52297"
       style="fill:#f9d017;fill-opacity:1;fill-rule:nonzero;stroke:none;stroke-width:0.0352778"
       id="path234"
       inkscape:connector-curvature="0" />
    <path
       d="m 122.44917,134.00345 c -8.18253,5.17223 -12.84273,12.39313 -14.77481,14.37307 -1.8396,1.88311 -3.34244,-0.65388 -2.53349,-2.25216 2.92148,-5.7756 12.33674,-12.74957 16.62145,-13.52974 0.8057,-0.14598 1.2459,0.87137 0.68685,1.40883"
       style="fill:#ffffff;fill-opacity:1;fill-rule:nonzero;stroke:none;stroke-width:0.0352778"
       id="path236"
       inkscape:connector-curvature="0" />
    <path
       d="m 104.3604,152.7012 c 0.30254,1.10574 -1.23005,6.62597 -2.1542,7.58016 -0.61714,0.63845 -1.94261,0.7493 -2.405254,-0.19212 -0.76124,-1.54915 -0.0651,-3.48279 0.753244,-4.92526 0.60072,-1.05805 1.75402,-2.93834 3.08258,-2.96781 0.30647,-0.004 0.63691,0.18933 0.72363,0.50515"
       style="fill:#ffffff;fill-opacity:1;fill-rule:nonzero;stroke:none;stroke-width:0.0352778"
       id="path238"
       inkscape:connector-curvature="0" />
    <path
       d="m 137.44656,202.981 c -7.64427,0 -15.55756,-2.00097 -22.9272,-6.22463 0.88037,-4.91966 6.03717,-8.86687 10.95442,-8.86687 0.0716,0 0.14279,0 0.21439,0.001 2.37395,0.0561 4.98744,0.84616 7.31048,0.84616 1.50242,0 2.88245,-0.32974 3.99956,-1.40322 1.91088,-1.83543 1.84509,-4.91827 2.97481,-7.33319 1.90033,-4.06089 6.72934,-5.56093 11.02937,-6.59367 4.29955,-1.03418 9.129,-2.42192 11.17066,-6.41265 1.0903,-2.13009 1.15482,-4.632 1.20676,-7.03431 0.0517,-2.40231 0.14041,-4.90844 1.26989,-7.01744 0.85316,-1.59264 4.5464,-2.49774 7.26163,-2.49774 0.87981,0 1.65719,0.0955 2.20161,0.29315 l 0.12768,-0.25815 c 0,0 7.99971,17.71135 -3.47853,35.19391 -7.31354,11.13868 -19.89613,17.30579 -33.31545,17.30718"
       style="fill:#f7c012;fill-opacity:1;fill-rule:nonzero;stroke:none;stroke-width:0.0352778"
       id="path240"
       inkscape:connector-curvature="0" />
  </g>
</svg>
