<?xml version="1.0" encoding="UTF-8" standalone="no"?>
<!-- Created with Inkscape (http://www.inkscape.org/) -->

<svg
   xmlns:dc="http://purl.org/dc/elements/1.1/"
   xmlns:cc="http://creativecommons.org/ns#"
   xmlns:rdf="http://www.w3.org/1999/02/22-rdf-syntax-ns#"
   xmlns:svg="http://www.w3.org/2000/svg"
   xmlns="http://www.w3.org/2000/svg"
   xmlns:sodipodi="http://sodipodi.sourceforge.net/DTD/sodipodi-0.dtd"
   xmlns:inkscape="http://www.inkscape.org/namespaces/inkscape"
   width="1000"
   height="1000"
   viewBox="0 0 264.58333 264.58334"
   version="1.1"
   id="svg2383"
   inkscape:version="0.92.5 (2060ec1f9f, 2020-04-08)"
   sodipodi:docname="rainbow.svg"
   enable-background="new">
  <defs
     id="defs2377">
    <clipPath
       clipPathUnits="userSpaceOnUse"
       id="clipPath342">
      <path
         d="m 1633.07,3379.27 c 0,0 -21.26,-862.54 26.5,-948.51 39.31,-70.75 240.76,-65.51 426.79,-60.27 58.37,1.65 152.58,-0.84 256.51,-3.32 227.33,-5.43 501.14,-10.86 547.89,26.9 68.13,55.03 44.55,492.03 44.55,641.95 0,170.32 0,495.22 -23.59,568.59 -23.58,73.36 -332.76,78.6 -607.88,78.6 -275.12,0 -570.47,-4.55 -615.45,-36.68 -55.02,-39.3 -55.32,-267.26 -55.32,-267.26"
         id="path340"
         inkscape:connector-curvature="0" />
    </clipPath>
    <clipPath
       clipPathUnits="userSpaceOnUse"
       id="clipPath254">
      <path
         d="m 3086.51,3379.27 c 0,0 -21.26,-862.54 26.51,-948.51 39.3,-70.75 240.76,-65.51 426.79,-60.27 58.36,1.65 152.58,-0.84 256.51,-3.32 227.33,-5.43 501.14,-10.86 547.89,26.9 68.12,55.03 44.54,492.03 44.54,641.95 0,170.32 0,495.22 -23.58,568.59 -23.58,73.36 -332.77,78.6 -607.89,78.6 -275.12,0 -570.46,-4.55 -615.44,-36.68 -55.02,-39.3 -55.33,-267.26 -55.33,-267.26"
         id="path252"
         inkscape:connector-curvature="0" />
    </clipPath>
    <clipPath
       clipPathUnits="userSpaceOnUse"
       id="clipPath32">
      <path
         d="m 3118.44,1617.21 c 0,0 -21.26,-862.538 26.51,-948.511 39.3,-70.75 240.75,-65.508 426.79,-60.269 58.36,1.652 152.57,-0.84 256.49,-3.321 227.33,-5.429 501.15,-10.859 547.91,26.903 68.12,55.027 44.54,492.028 44.54,641.948 0,170.31 0,495.22 -23.58,568.58 -23.58,73.37 -332.77,78.61 -607.89,78.61 -275.12,0 -570.47,-4.56 -615.44,-36.68 -55.03,-39.31 -55.33,-267.26 -55.33,-267.26"
         id="path30"
         inkscape:connector-curvature="0" />
    </clipPath>
  </defs>
  <sodipodi:namedview
     id="base"
     pagecolor="#ffffff"
     bordercolor="#666666"
     borderopacity="1.0"
     inkscape:pageopacity="0.0"
     inkscape:pageshadow="2"
     inkscape:zoom="0.70710678"
     inkscape:cx="405.77588"
     inkscape:cy="570.83969"
     inkscape:document-units="px"
     inkscape:current-layer="layer1"
     showgrid="false"
     units="px"
     inkscape:window-width="1920"
     inkscape:window-height="1031"
     inkscape:window-x="0"
     inkscape:window-y="25"
     inkscape:window-maximized="1"
     showguides="true"
     inkscape:lockguides="true"
     inkscape:object-nodes="false"
     inkscape:snap-nodes="false"
     inkscape:snap-others="false" />
  <metadata
     id="metadata2380">
    <rdf:RDF>
      <cc:Work
         rdf:about="">
        <dc:format>image/svg+xml</dc:format>
        <dc:type
           rdf:resource="http://purl.org/dc/dcmitype/StillImage" />
        <dc:title></dc:title>
      </cc:Work>
    </rdf:RDF>
  </metadata>
  <g
     inkscape:groupmode="layer"
     id="layer3"
     inkscape:label="Layer 2" />
  <g
     inkscape:groupmode="layer"
     id="layer2"
     inkscape:label="Layer 3" />
  <g
     inkscape:label="Layer 1"
     inkscape:groupmode="layer"
     id="layer1"
     transform="translate(0,-32.41665)">
    <text
       xml:space="preserve"
       style="font-style:normal;font-variant:normal;font-weight:bold;font-stretch:normal;font-size:10.58333302px;line-height:1.25;font-family:sans-serif;-inkscape-font-specification:'sans-serif Bold';letter-spacing:0px;word-spacing:0px;fill:#000000;fill-opacity:1;stroke:none;stroke-width:0.26458332"
       x="150.05655"
       y="89.869026"
       id="text8811" />
    <text
       xml:space="preserve"
       style="font-style:normal;font-variant:normal;font-weight:bold;font-stretch:normal;font-size:10.58333302px;line-height:1.25;font-family:sans-serif;-inkscape-font-specification:'sans-serif Bold';letter-spacing:0px;word-spacing:0px;fill:#000000;fill-opacity:1;stroke:none;stroke-width:0.26458332"
       x="160.63989"
       y="97.806526"
       id="text8815" />
    <text
       xml:space="preserve"
       style="font-style:normal;font-variant:normal;font-weight:bold;font-stretch:normal;font-size:10.58333302px;line-height:1.25;font-family:sans-serif;-inkscape-font-specification:'sans-serif Bold';letter-spacing:0px;word-spacing:0px;fill:#000000;fill-opacity:1;stroke:none;stroke-width:0.26458332"
       x="156.86011"
       y="88.7351"
       id="text8819" />
    <flowRoot
       xml:space="preserve"
       id="flowRoot8821"
       style="font-style:normal;font-variant:normal;font-weight:bold;font-stretch:normal;font-size:40px;line-height:1.25;font-family:sans-serif;-inkscape-font-specification:'sans-serif Bold';letter-spacing:0px;word-spacing:0px;fill:#000000;fill-opacity:1;stroke:none"><flowRegion
         id="flowRegion8823"
         style="font-style:normal;font-variant:normal;font-weight:bold;font-stretch:normal;font-family:sans-serif;-inkscape-font-specification:'sans-serif Bold'" /><flowPara
         id="flowPara8827" /></flowRoot>    <flowRoot
       xml:space="preserve"
       id="flowRoot8829"
       style="font-style:normal;font-variant:normal;font-weight:bold;font-stretch:normal;font-size:40px;line-height:1.25;font-family:sans-serif;-inkscape-font-specification:'sans-serif Bold';letter-spacing:0px;word-spacing:0px;fill:#000000;fill-opacity:1;stroke:none"><flowRegion
         id="flowRegion8831"
         style="font-style:normal;font-variant:normal;font-weight:bold;font-stretch:normal;font-family:sans-serif;-inkscape-font-specification:'sans-serif Bold'" /><flowPara
         id="flowPara8835" /></flowRoot>    <flowRoot
       xml:space="preserve"
       id="flowRoot8837"
       style="font-style:normal;font-variant:normal;font-weight:bold;font-stretch:normal;font-size:40px;line-height:1.25;font-family:sans-serif;-inkscape-font-specification:'sans-serif Bold';letter-spacing:0px;word-spacing:0px;fill:#000000;fill-opacity:1;stroke:none"><flowRegion
         id="flowRegion8839"
         style="font-style:normal;font-variant:normal;font-weight:bold;font-stretch:normal;font-family:sans-serif;-inkscape-font-specification:'sans-serif Bold'" /><flowPara
         id="flowPara8843" /></flowRoot>    <text
       xml:space="preserve"
       style="font-style:normal;font-variant:normal;font-weight:bold;font-stretch:normal;font-size:10.58333302px;line-height:1.25;font-family:sans-serif;-inkscape-font-specification:'sans-serif Bold';letter-spacing:0px;word-spacing:0px;fill:#000000;fill-opacity:1;stroke:none;stroke-width:0.26458332"
       x="209.39882"
       y="107.25594"
       id="text8847" />
    <flowRoot
       xml:space="preserve"
       id="flowRoot8849"
       style="font-style:normal;font-variant:normal;font-weight:bold;font-stretch:normal;font-size:40px;line-height:1.25;font-family:sans-serif;-inkscape-font-specification:'sans-serif Bold';letter-spacing:0px;word-spacing:0px;fill:#000000;fill-opacity:1;stroke:none"><flowRegion
         id="flowRegion8851"
         style="font-style:normal;font-variant:normal;font-weight:bold;font-stretch:normal;font-family:sans-serif;-inkscape-font-specification:'sans-serif Bold'" /><flowPara
         id="flowPara8855" /></flowRoot>    <flowRoot
       xml:space="preserve"
       id="flowRoot8857"
       style="font-style:normal;font-variant:normal;font-weight:bold;font-stretch:normal;font-size:40px;line-height:1.25;font-family:sans-serif;-inkscape-font-specification:'sans-serif Bold';letter-spacing:0px;word-spacing:0px;fill:#000000;fill-opacity:1;stroke:none"><flowRegion
         id="flowRegion8859"
         style="font-style:normal;font-variant:normal;font-weight:bold;font-stretch:normal;font-family:sans-serif;-inkscape-font-specification:'sans-serif Bold'" /><flowPara
         id="flowPara8863" /></flowRoot>    <flowRoot
       xml:space="preserve"
       id="flowRoot8865"
       style="font-style:normal;font-variant:normal;font-weight:bold;font-stretch:normal;font-size:40px;line-height:1.25;font-family:sans-serif;-inkscape-font-specification:'sans-serif Bold';letter-spacing:0px;word-spacing:0px;fill:#000000;fill-opacity:1;stroke:none"><flowRegion
         id="flowRegion8867"
         style="font-style:normal;font-variant:normal;font-weight:bold;font-stretch:normal;font-family:sans-serif;-inkscape-font-specification:'sans-serif Bold'" /><flowPara
         id="flowPara8871" /></flowRoot>    <flowRoot
       xml:space="preserve"
       id="flowRoot8873"
       style="font-style:normal;font-variant:normal;font-weight:bold;font-stretch:normal;font-size:40px;line-height:1.25;font-family:sans-serif;-inkscape-font-specification:'sans-serif Bold';letter-spacing:0px;word-spacing:0px;fill:#000000;fill-opacity:1;stroke:none"><flowRegion
         id="flowRegion8875"
         style="font-style:normal;font-variant:normal;font-weight:bold;font-stretch:normal;font-family:sans-serif;-inkscape-font-specification:'sans-serif Bold'" /><flowPara
         id="flowPara8879" /></flowRoot>    <text
       xml:space="preserve"
       style="font-style:normal;font-weight:normal;font-size:10.58333302px;line-height:1.25;font-family:sans-serif;letter-spacing:0px;word-spacing:0px;fill:#000000;fill-opacity:1;stroke:none;stroke-width:0.26458332"
       x="101.02788"
       y="69.125984"
       id="text977"><tspan
         sodipodi:role="line"
         id="tspan975"
         x="101.02788"
         y="78.489754"
         style="stroke-width:0.26458332" /><tspan
         sodipodi:role="line"
         x="101.02788"
         y="91.718918"
         style="stroke-width:0.26458332"
         id="tspan979" /><tspan
         sodipodi:role="line"
         x="101.02788"
         y="104.94809"
         style="stroke-width:0.26458332"
         id="tspan981" /><tspan
         sodipodi:role="line"
         x="101.02788"
         y="118.17725"
         style="stroke-width:0.26458332"
         id="tspan983" /><tspan
         sodipodi:role="line"
         x="101.02788"
         y="131.40642"
         style="stroke-width:0.26458332"
         id="tspan985" /><tspan
         sodipodi:role="line"
         x="101.02788"
         y="144.63559"
         style="stroke-width:0.26458332"
         id="tspan987" /><tspan
         sodipodi:role="line"
         x="101.02788"
         y="157.86475"
         style="stroke-width:0.26458332"
         id="tspan989" /><tspan
         sodipodi:role="line"
         x="101.02788"
         y="171.09392"
         style="stroke-width:0.26458332"
         id="tspan991" /><tspan
         sodipodi:role="line"
         x="101.02788"
         y="184.32309"
         style="stroke-width:0.26458332"
         id="tspan993" /><tspan
         sodipodi:role="line"
         x="101.02788"
         y="197.55225"
         style="stroke-width:0.26458332"
         id="tspan995" /><tspan
         sodipodi:role="line"
         x="101.02788"
         y="210.78142"
         style="stroke-width:0.26458332"
         id="tspan997" /><tspan
         sodipodi:role="line"
         x="101.02788"
         y="224.01059"
         style="stroke-width:0.26458332"
         id="tspan999" /><tspan
         sodipodi:role="line"
         x="101.02788"
         y="237.23975"
         style="stroke-width:0.26458332"
         id="tspan1001" /><tspan
         sodipodi:role="line"
         x="101.02788"
         y="250.46892"
         style="stroke-width:0.26458332"
         id="tspan1003" /><tspan
         sodipodi:role="line"
         x="101.02788"
         y="263.69809"
         style="stroke-width:0.26458332"
         id="tspan1005" /><tspan
         sodipodi:role="line"
         x="101.02788"
         y="276.92725"
         style="stroke-width:0.26458332"
         id="tspan1007" /><tspan
         sodipodi:role="line"
         x="101.02788"
         y="290.1564"
         style="stroke-width:0.26458332"
         id="tspan1009" /><tspan
         sodipodi:role="line"
         x="101.02788"
         y="303.38559"
         style="stroke-width:0.26458332"
         id="tspan1011" /><tspan
         sodipodi:role="line"
         x="101.02788"
         y="316.61475"
         style="stroke-width:0.26458332"
         id="tspan1013" /><tspan
         sodipodi:role="line"
         x="101.02788"
         y="329.8439"
         style="stroke-width:0.26458332"
         id="tspan1015" /><tspan
         sodipodi:role="line"
         x="101.02788"
         y="343.07309"
         style="stroke-width:0.26458332"
         id="tspan1017" /><tspan
         sodipodi:role="line"
         x="101.02788"
         y="356.30225"
         style="stroke-width:0.26458332"
         id="tspan1019" /><tspan
         sodipodi:role="line"
         x="101.02788"
         y="369.5314"
         style="stroke-width:0.26458332"
         id="tspan1021" /><tspan
         sodipodi:role="line"
         x="101.02788"
         y="382.76059"
         style="stroke-width:0.26458332"
         id="tspan1023" /></text>
    <path
       d="m 42.645747,116.73127 c 0,0 -2.9832,121.03217 3.7185,133.09596 5.51602,9.92774 33.78368,9.19216 59.887613,8.45702 8.18912,-0.23189 21.40876,0.11774 35.99232,0.46602 31.89914,0.76179 70.32182,1.52374 76.88184,-3.77507 9.56008,-7.72144 6.25132,-69.04182 6.25132,-90.07876 0,-23.89806 0,-69.489734 -3.30877,-79.783688 -3.3102,-10.295347 -46.69462,-11.030607 -85.29972,-11.030607 -38.605093,0 -80.048923,0.639838 -86.360533,5.146978 -7.72045,5.516019 -7.76257,37.502147 -7.76257,37.502147"
       style="fill:#b4e6ee;fill-opacity:1;fill-rule:nonzero;stroke:none;stroke-width:0.03527779"
       id="path904"
       inkscape:connector-curvature="0" />
    <path
       d="m 173.10214,203.99814 c 0,0 -0.7493,-35.49544 -31.94687,-39.92959 -29.19659,-4.14928 -41.224903,18.20663 -45.333483,30.66154 l 0.97944,9.19355 2.77975,-0.98478 c 0,0 4.568873,-33.91275 38.860503,-30.88743 20.88396,1.84239 28.10346,38.92052 28.10346,38.92052 l 6.5572,-6.97381"
       style="fill:#a67ac4;fill-opacity:1;fill-rule:nonzero;stroke:none;stroke-width:0.03527779"
       id="path912"
       inkscape:connector-curvature="0" />
    <path
       d="m 179.96525,204.16806 c 0,0 -0.96822,-42.03454 -36.87495,-47.43688 -33.60127,-5.05577 -47.375153,21.35686 -52.066093,36.08492 l 1.15485,10.89044 3.19509,-1.15215 c 0,0 5.156803,-40.1346 44.617873,-36.38384 24.03419,2.28302 32.4492,46.22443 32.4492,46.22443 l 7.52403,-8.22692"
       style="fill:#55a3cc;fill-opacity:1;fill-rule:nonzero;stroke:none;stroke-width:0.03527779"
       id="path914"
       inkscape:connector-curvature="0" />
    <path
       d="m 186.39194,200.11278 c 0,0 -1.0959,-47.06362 -41.13647,-53.1367 -37.47132,-5.68444 -52.818223,23.8798 -58.043803,40.36752 l 1.29237,12.1939 3.56134,-1.28815 c 0,0 5.73495,-44.93218 49.739603,-40.70713 26.79988,2.57351 36.20138,51.77719 36.20138,51.77719 l 8.38558,-9.20663"
       style="fill:#a2d620;fill-opacity:1;fill-rule:nonzero;stroke:none;stroke-width:0.03527779"
       id="path916"
       inkscape:connector-curvature="0" />
    <path
       d="m 198.43008,203.3079 c 0,0 -2.68994,-57.60736 -50.19981,-65.11453 -44.46071,-7.02444 -61.314653,29.32149 -67.476153,49.27652 l 1.55898,14.77719 4.22365,-1.54633 c 0,0 4.98,-58.5433 58.908133,-49.13337 31.50909,5.49637 43.05889,62.86222 43.05889,62.86222 l 9.92631,-11.1217"
       style="fill:#f9d017;fill-opacity:1;fill-rule:nonzero;stroke:none;stroke-width:0.03527779"
       id="path918"
       inkscape:connector-curvature="0" />
    <path
       d="m 202.67199,197.66699 c 0,0 -2.87799,-61.63175 -53.70506,-69.66093 -47.56456,-7.51556 -65.595833,31.36736 -72.186723,52.71579 l 1.66845,15.80997 4.51692,-1.6544 c 0,0 5.328,-62.63084 63.022363,-52.56421 33.70787,5.88085 46.06457,67.25174 46.06457,67.25174 l 10.61948,-11.89796"
       style="fill:#f5781c;fill-opacity:1;fill-rule:nonzero;stroke:none;stroke-width:0.03527779"
       id="path920"
       inkscape:connector-curvature="0" />
    <path
       d="m 206.64307,192.97469 c 0,0 -2.99307,-64.10283 -55.85898,-72.45476 -49.47154,-7.81726 -68.225453,32.62465 -75.081533,54.83045 l 1.73579,16.4428 4.69794,-1.72174 c 0,0 5.54267,-65.14118 65.549533,-54.67186 35.06057,6.11799 47.9126,69.94971 47.9126,69.94971 l 11.04465,-12.3746"
       style="fill:#f35b98;fill-opacity:1;fill-rule:nonzero;stroke:none;stroke-width:0.03527779"
       id="path922"
       inkscape:connector-curvature="0" />
    <path
       d="m 208.77733,195.00092 c 0,0 -3.20209,-68.57767 -59.75846,-77.51331 -52.927683,-8.36311 -72.990743,34.90345 -80.323933,58.65837 l 4.44115,9.28785 2.97481,0.96541 c 0,0 5.43603,-67.39195 70.125403,-58.49 44.41721,6.11238 51.25785,74.83317 51.25785,74.83317 l 11.28318,-7.74149"
       style="fill:#ef3821;fill-opacity:1;fill-rule:nonzero;stroke:none;stroke-width:0.03527779"
       id="path924"
       inkscape:connector-curvature="0" />
    <path
       d="m 184.59725,218.10586 c 0,0 22.44573,0.93358 32.69477,-7.52244 10.24905,-8.45702 0.75913,-14.07829 -5.11189,-11.31393 0,0 4.45098,-7.48895 -1.72875,-10.54797 -6.17972,-3.05897 -10.65599,3.94443 -10.65599,3.94443 0,0 2.60437,-13.95629 -9.86314,-15.83241 -12.46891,-1.87468 -17.03496,16.04151 -17.03496,16.04151 0,0 -13.63359,-8.8683 -19.54812,3.30173 -6.12921,12.61039 13.71358,22.24104 31.24808,21.92908"
       style="fill:#fcf8dc;fill-opacity:1;fill-rule:nonzero;stroke:none;stroke-width:0.03527779"
       id="path926"
       inkscape:connector-curvature="0" />
    <path
       d="m 196.64378,191.90543 c -0.49812,-4.17875 -2.49209,-7.24337 -2.91304,-8.35189 -0.39991,-1.05522 0.90367,-1.26432 1.38778,-0.67635 1.74979,2.12022 2.73063,7.09183 2.21986,8.97212 -0.0955,0.35361 -0.58793,0.37031 -0.6946,0.0561"
       style="fill:#ffffff;fill-opacity:1;fill-rule:nonzero;stroke:none;stroke-width:0.03527779"
       id="path928"
       inkscape:connector-curvature="0" />
    <path
       d="m 192.63761,181.50345 c -0.50093,-0.0517 -2.41631,-1.56459 -2.61976,-2.09501 -0.13763,-0.3548 0.0728,-0.91488 0.5388,-0.95418 0.76617,-0.0644 1.40604,0.53041 1.8256,1.09591 0.30866,0.41677 0.83912,1.1899 0.59497,1.73857 -0.0561,0.12609 -0.19768,0.2303 -0.33969,0.21479"
       style="fill:#ffffff;fill-opacity:1;fill-rule:nonzero;stroke:none;stroke-width:0.03527779"
       id="path930"
       inkscape:connector-curvature="0" />
    <path
       d="m 184.03454,214.71909 c -18.13365,9.9e-4 -27.47202,-10.78229 -28.81069,-12.97856 1.02296,-1.40461 3.18948,-2.1413 5.06838,-2.1413 0.47151,0 0.92615,0.0461 1.33866,0.14041 2.05714,0.46868 3.76202,1.74978 5.3743,3.03232 1.61228,1.28282 3.24565,2.62681 5.24662,3.25826 0.99909,0.31383 2.02623,0.43793 3.07162,0.43793 1.83399,0 3.72272,-0.37787 5.61984,-0.75364 1.89576,-0.37588 3.79849,-0.75212 5.65774,-0.75212 0.71847,0 1.4313,0.0561 2.13291,0.19092 3.03793,0.58093 5.63387,2.58875 8.7504,2.75322 0.1416,0.008 0.28361,0.0119 0.42517,0.0119 2.88921,0 5.67178,-1.5058 8.51608,-2.31643 0.9135,-0.26093 1.9252,-0.40564 2.92569,-0.40564 2.26759,0 4.47202,0.74664 5.32517,2.5959 0,0 -11.14568,6.58639 -29.81821,6.92079 -0.27644,0.004 -0.55145,0.008 -0.82368,0.008"
       style="fill:#f9f0bb;fill-opacity:1;fill-rule:nonzero;stroke:none;stroke-width:0.03527779"
       id="path932"
       inkscape:connector-curvature="0" />
    <path
       d="m 86.004947,207.4388 c 0,0 -22.94249,-0.95979 -32.66112,-10.44395 -9.72003,-9.48709 0.42516,-14.40393 6.16989,-11.08816 0,0 -3.8953,-8.0081 2.65911,-10.59701 6.55437,-2.59033 10.51706,4.92523 10.51706,4.92523 0,0 -1.46356,-14.43758 11.39404,-15.28656 12.85903,-0.84751 15.985383,17.7899 15.985383,17.7899 0,0 14.64108,-7.87199 19.62807,5.0263 5.16946,13.36697 -15.86044,21.48581 -33.692433,19.67425"
       style="fill:#fcf8dc;fill-opacity:1;fill-rule:nonzero;stroke:none;stroke-width:0.03527779"
       id="path934"
       inkscape:connector-curvature="0" />
    <path
       d="m 75.964957,179.72836 c 0.86299,-4.21383 3.1544,-7.16616 3.67781,-8.25786 0.49673,-1.04121 -0.81246,-1.36535 -1.35548,-0.80825 -1.96311,2.0108 -3.38598,6.99219 -3.02533,8.94965 0.0672,0.36912 0.56689,0.42799 0.703,0.11654"
       style="fill:#ffffff;fill-opacity:1;fill-rule:nonzero;stroke:none;stroke-width:0.03527779"
       id="path936"
       inkscape:connector-curvature="0" />
    <path
       d="m 80.932307,169.47514 c 0.51359,-0.0119 2.59173,-1.38779 2.84574,-1.9112 0.16984,-0.34923 0.003,-0.93875 -0.46868,-1.01731 -0.77456,-0.13047 -1.47617,0.42095 -1.95328,0.96119 -0.34804,0.39696 -0.95558,1.13942 -0.75352,1.71892 0.0461,0.13325 0.18257,0.25098 0.32974,0.2482"
       style="fill:#ffffff;fill-opacity:1;fill-rule:nonzero;stroke:none;stroke-width:0.03527779"
       id="path938"
       inkscape:connector-curvature="0" />
    <path
       d="m 90.621467,204.19598 c -1.47334,0 -3.00424,-0.0744 -4.59409,-0.23547 -18.99102,-1.92942 -29.78173,-9.5867 -29.78173,-9.5867 0.90227,-1.59124 2.79382,-2.2269 4.80601,-2.2269 1.28815,0 2.62542,0.26093 3.78445,0.6974 2.96638,1.12116 5.79807,3.0141 8.91039,3.10949 0.0843,0.003 0.16706,0.004 0.24979,0.004 3.08566,0 5.83455,-1.73857 8.89634,-2.0627 0.37589,-0.0406 0.75213,-0.0589 1.1296,-0.0589 2.23673,0 4.49871,0.64549 6.74944,1.29097 2.25216,0.64688 4.49449,1.29236 6.6947,1.29236 0.71847,0 1.4313,-0.0688 2.13991,-0.22871 2.092183,-0.4729 3.868653,-1.70213 5.621273,-2.87099 1.75121,-1.17025 3.59782,-2.32933 5.73212,-2.63103 0.25417,-0.0358 0.52198,-0.0533 0.79842,-0.0533 2.04027,0 4.53936,0.96402 5.55671,2.63664 -1.44252,1.97432 -10.56618,10.92384 -26.693293,10.92384"
       style="fill:#f9f0bb;fill-opacity:1;fill-rule:nonzero;stroke:none;stroke-width:0.03527779"
       id="path940"
       inkscape:connector-curvature="0" />
  </g>
</svg>
