<?xml version="1.0" encoding="UTF-8" standalone="no"?>
<!-- Created with Inkscape (http://www.inkscape.org/) -->

<svg
   xmlns:dc="http://purl.org/dc/elements/1.1/"
   xmlns:cc="http://creativecommons.org/ns#"
   xmlns:rdf="http://www.w3.org/1999/02/22-rdf-syntax-ns#"
   xmlns:svg="http://www.w3.org/2000/svg"
   xmlns="http://www.w3.org/2000/svg"
   xmlns:sodipodi="http://sodipodi.sourceforge.net/DTD/sodipodi-0.dtd"
   xmlns:inkscape="http://www.inkscape.org/namespaces/inkscape"
   width="1000"
   height="1000"
   viewBox="0 0 264.58333 264.58334"
   version="1.1"
   id="svg2383"
   inkscape:version="0.92.5 (2060ec1f9f, 2020-04-08)"
   sodipodi:docname="Let me introduce myselfsvg.svg"
   enable-background="new">
  <defs
     id="defs2377" />
  <sodipodi:namedview
     id="base"
     pagecolor="#ffffff"
     bordercolor="#666666"
     borderopacity="1.0"
     inkscape:pageopacity="0.0"
     inkscape:pageshadow="2"
     inkscape:zoom="0.70710678"
     inkscape:cx="105.2823"
     inkscape:cy="465.53014"
     inkscape:document-units="px"
     inkscape:current-layer="layer3"
     showgrid="false"
     units="px"
     inkscape:window-width="1920"
     inkscape:window-height="1031"
     inkscape:window-x="0"
     inkscape:window-y="25"
     inkscape:window-maximized="1"
     showguides="false"
     inkscape:lockguides="true"
     inkscape:object-nodes="false"
     inkscape:snap-nodes="false"
     inkscape:snap-others="false" />
  <metadata
     id="metadata2380">
    <rdf:RDF>
      <cc:Work
         rdf:about="">
        <dc:format>image/svg+xml</dc:format>
        <dc:type
           rdf:resource="http://purl.org/dc/dcmitype/StillImage" />
        <dc:title />
      </cc:Work>
    </rdf:RDF>
  </metadata>
  <g
     inkscape:groupmode="layer"
     id="layer3"
     inkscape:label="Layer 2">
    <ellipse
       style="fill:#a1e1e1;fill-opacity:1;stroke-width:0.45916313"
       id="path3018"
       cx="132.7888"
       cy="228.12498"
       rx="115.52571"
       ry="32.722095" />
    <path
       sodipodi:nodetypes="ccccc"
       id="path1929-2"
       style="fill:#a1e1e1;fill-opacity:1;fill-rule:nonzero;stroke:none;stroke-width:0.01865087"
       d="M 55.015024,11.107896 C 77.763933,4.984326 186.33988,5.439422 216.59664,13.12529 c 29.02759,7.373279 32.51636,29.149474 8.18098,36.272249 -19.02257,5.567203 -136.568931,12.074212 -169.762596,4.578044 -33.952833,-7.667822 -26.634973,-35.698127 0,-42.867687"
       inkscape:connector-curvature="0" />
    <text
       transform="scale(0.93339443,1.0713584)"
       id="text35640-1"
       y="72.838692"
       x="21.684183"
       style="font-weight:bold;font-size:22.36219978px;font-family:FreeSans;-inkscape-font-specification:'FreeSans Bold';opacity:0.8;fill:#a1e1e1;fill-opacity:1;fill-rule:evenodd;stroke-width:0.16210657;paint-order:fill markers stroke"
       xml:space="preserve"><tspan
         id="tspan38320-0"
         y="93.523727"
         x="21.684183"
         style="fill:#a1e1e1;fill-opacity:1;stroke-width:0.16210657"
         sodipodi:role="line" /></text>
    <path
       sodipodi:nodetypes="cccc"
       id="path1931-1"
       style="fill:#a1e1e1;fill-opacity:1;fill-rule:nonzero;stroke:none;stroke-width:0.00860131"
       d="M 101.09754,64.88062 89.606433,53.742152 114.89297,57.542121 Z"
       inkscape:connector-curvature="0" />
    <text
       xml:space="preserve"
       style="font-style:normal;font-weight:normal;font-size:10.58333302px;line-height:1.25;font-family:sans-serif;letter-spacing:0px;word-spacing:0px;fill:#000000;fill-opacity:1;stroke:none;stroke-width:0.26458332"
       x="49.017227"
       y="37.083511"
       id="text3594"><tspan
         sodipodi:role="line"
         id="tspan3592"
         x="49.017227"
         y="37.083511"
         style="font-style:normal;font-variant:normal;font-weight:bold;font-stretch:normal;font-size:12.69999981px;font-family:sans-serif;-inkscape-font-specification:'sans-serif Bold';stroke-width:0.26458332">Let me introduce myself.</tspan></text>
    <path
       d="m 83.164839,231.58017 c 12.194668,-0.48664 31.769261,4.2561 15.817928,6.70977 -15.951341,2.4537 -44.0407,0.46249 -45.020949,-2.15774 -0.980821,-2.61837 13.497212,-3.92407 29.203021,-4.55203"
       style="fill:#58902f;fill-opacity:1;fill-rule:nonzero;stroke:none;stroke-width:0.03527778"
       id="path312"
       inkscape:connector-curvature="0" />
    <path
       d="m 82.312605,149.69667 c 0,0 10.969538,-2.55536 19.894065,11.8173 -1.63649,3.24718 -13.496743,10.81188 -17.759682,11.16219 -7.853973,0.64316 -7.735021,-21.37958 -2.134383,-22.97949"
       style="fill:#f89c0e;fill-opacity:1;fill-rule:nonzero;stroke:none;stroke-width:0.03527778"
       id="path820"
       inkscape:connector-curvature="0" />
    <path
       d="m 81.582344,150.11251 c 0,0 4.994262,-0.8927 10.707038,2.62581 4.496785,2.76594 15.831768,17.02823 13.466088,28.12856 -0.94686,4.43852 -18.337084,15.39715 -26.846744,10.55025 -8.50758,-4.84859 -4.519334,-41.4001 2.673618,-41.30462"
       style="fill:#fbc508;fill-opacity:1;fill-rule:nonzero;stroke:none;stroke-width:0.03527778"
       id="path822"
       inkscape:connector-curvature="0" />
    <path
       d="m 76.596247,155.14844 c -4.411362,9.20242 -5.652704,31.41747 1.134702,35.28431 3.207647,1.8266 5.071603,0.85328 11.530338,0.15029 5.95672,-1.82238 6.58157,-4.08647 7.4482,-5.61057 2.23283,-3.9301 -10.067175,-23.12191 -13.817472,-26.87292 -1.886575,-1.88544 -4.330393,-2.65332 -6.295768,-2.95111"
       style="fill:#f89c0e;fill-opacity:1;fill-rule:nonzero;stroke:none;stroke-width:0.03527778"
       id="path824"
       inkscape:connector-curvature="0" />
    <path
       d="m 94.794797,168.87996 c 0,0 6.066013,-3.67972 7.784833,-3.6684 1.71676,0.0131 5.03578,6.96576 4.03891,9.11165 -0.99687,2.1459 -7.238153,6.7097 -11.823743,-5.44325"
       style="fill:#ee2d21;fill-opacity:1;fill-rule:nonzero;stroke:none;stroke-width:0.03527778"
       id="path826"
       inkscape:connector-curvature="0" />
    <path
       d="m 35.535932,139.60727 c 0.526912,-0.014 0.594679,1.46215 0.698669,1.81382 0.01275,-0.059 0.084,-1.89109 0.09497,-2.29134 0.02564,-0.93262 0.897336,-1.02409 1.01866,-0.22053 0.1016,0.67487 0.228067,2.23691 0.239708,2.31605 0.01706,-0.0743 0.205021,-1.95851 0.234113,-2.30625 0.08563,-1.02386 1.212991,-1.07342 1.136662,0.10532 -0.0499,0.79957 -0.190133,2.20166 -0.170027,2.32455 0.04691,-0.0439 0.398057,-1.05017 0.647315,-1.63049 0.41195,-0.95518 1.267849,-0.72875 0.988751,0.42912 -0.223684,0.91614 -0.656669,3.12786 -0.656669,3.12786 0,0 1.379465,-0.64907 1.716632,0.13576 0.344347,0.7856 -2.101389,1.8393 -2.101389,1.8393 l -0.138919,0.013 c 0.251882,1.8341 1.647319,8.26537 9.793325,9.56373 -0.539651,0.89529 -0.927895,2.16078 -0.961255,2.86268 -9.555516,-0.0561 -11.93317,-10.82055 -12.031738,-12.30373 0,0 -0.895511,-0.10585 -0.8957,-3.29738 -7.1e-5,-1.32299 -0.121263,-2.46558 0.386939,-2.48146"
       style="fill:#fabd99;fill-opacity:1;fill-rule:nonzero;stroke:none;stroke-width:0.03527778"
       id="path828"
       inkscape:connector-curvature="0" />
    <path
       d="m 63.824788,200.11527 c 0,0 4.35611,25.18197 4.315322,28.33425 2.057843,0.4437 3.415719,2.23186 3.415719,2.23186 l -2.392834,-29.05019 -5.338207,-1.51592"
       style="fill:#fabd99;fill-opacity:1;fill-rule:nonzero;stroke:none;stroke-width:0.03527778"
       id="path830"
       inkscape:connector-curvature="0" />
    <path
       d="m 72.087452,229.28256 c 0.437043,0.88865 1.20278,1.92807 -1.443582,4.69328 -1.924471,2.00951 -4.681,3.16761 -7.236597,2.48757 -2.676518,-0.71195 -1.584488,-3.56898 -1.584488,-3.56898 l 10.264667,-3.61187"
       style="fill:#e0dedc;fill-opacity:1;fill-rule:nonzero;stroke:none;stroke-width:0.03527778"
       id="path832"
       inkscape:connector-curvature="0" />
    <path
       d="m 71.906458,226.03729 c 0.288891,0.66882 0.796275,2.31294 0.11854,3.74153 -2.806956,3.71319 -4.844367,5.84159 -8.635932,4.95834 -2.974384,-0.69196 -1.123784,-3.32476 0.38382,-4.40099 1.504034,-1.07855 4.33917,-4.01531 4.33917,-4.01531 0,0 1.1988,1.13855 3.794377,-0.28357"
       style="fill:#40bfbc;fill-opacity:1;fill-rule:nonzero;stroke:none;stroke-width:0.03527778"
       id="path834"
       inkscape:connector-curvature="0" />
    <path
       d="m 68.112081,226.32086 c -0.660617,-0.88633 -0.376198,-1.67735 1.502872,-1.64564 1.309281,0.0218 2.626044,0.52749 1.311001,1.79893 -0.41982,0.48091 -2.25997,0.461 -2.813873,-0.15329"
       style="fill:#40bfbc;fill-opacity:1;fill-rule:nonzero;stroke:none;stroke-width:0.03527778"
       id="path836"
       inkscape:connector-curvature="0" />
    <path
       d="m 63.47958,230.56121 c -1.59837,1.10588 -2.945249,3.66389 -0.163215,4.31266 2.121666,0.49313 3.943835,-0.0578 5.372671,-1.14796 -0.10082,-2.29981 -2.921532,-3.21365 -5.209456,-3.1647"
       style="fill:#f4f1f0;fill-opacity:1;fill-rule:nonzero;stroke:none;stroke-width:0.03527778"
       id="path838"
       inkscape:connector-curvature="0" />
    <path
       d="m 69.743672,228.64187 c -0.09601,0.005 -0.192925,-0.0373 -0.255212,-0.12168 -0.505844,-0.67558 -1.655569,-1.15244 -2.702153,-0.78086 -0.160131,0.0557 -0.333107,-0.0289 -0.387812,-0.18994 -0.05465,-0.16149 0.0279,-0.34006 0.18804,-0.39567 1.357199,-0.48187 2.7568,0.15127 3.385709,0.9915 0.101174,0.13511 0.07623,0.32934 -0.05823,0.43435 -0.05164,0.0394 -0.111002,0.0608 -0.170333,0.0623"
       style="fill:#e0e0de;fill-opacity:1;fill-rule:nonzero;stroke:none;stroke-width:0.03527778"
       id="path840"
       inkscape:connector-curvature="0" />
    <path
       d="m 68.631028,229.71979 c -0.09581,0.004 -0.192925,-0.0373 -0.255208,-0.12169 -0.50585,-0.67557 -1.653683,-1.15225 -2.702157,-0.78085 -0.16032,0.0576 -0.333107,-0.0289 -0.387809,-0.18994 -0.05465,-0.1615 0.02986,-0.33986 0.188038,-0.39568 1.357198,-0.48184 2.75699,0.14935 3.385904,0.98957 0.100977,0.13705 0.07603,0.33127 -0.05842,0.4363 -0.04975,0.0396 -0.110986,0.0607 -0.170333,0.0623"
       style="fill:#e0e0de;fill-opacity:1;fill-rule:nonzero;stroke:none;stroke-width:0.03527778"
       id="path842"
       inkscape:connector-curvature="0" />
    <path
       d="m 67.51839,230.7977 c -0.09582,0.004 -0.191031,-0.0372 -0.255214,-0.12168 -0.503959,-0.67537 -1.653677,-1.15225 -2.702156,-0.78086 -0.158243,0.0559 -0.333109,-0.0289 -0.38781,-0.18992 -0.05465,-0.16151 0.02986,-0.33987 0.188036,-0.39567 1.3572,-0.48186 2.756997,0.14934 3.385907,0.98955 0.100977,0.13706 0.07603,0.33127 -0.05654,0.43648 -0.05164,0.0394 -0.111001,0.0608 -0.172223,0.0621"
       style="fill:#e0e0de;fill-opacity:1;fill-rule:nonzero;stroke:none;stroke-width:0.03527778"
       id="path844"
       inkscape:connector-curvature="0" />
    <path
       d="m 84.620469,199.21044 c 0,0 6.176976,28.00175 6.479401,31.13871 -2.014238,0.62076 -3.219701,2.52111 -3.219701,2.52111 l -8.452478,-31.68669 5.192778,-1.97313"
       style="fill:#fabd99;fill-opacity:1;fill-rule:nonzero;stroke:none;stroke-width:0.03527778"
       id="path846"
       inkscape:connector-curvature="0" />
    <path
       d="m 87.236432,231.52388 c -0.362218,0.92134 -1.038324,2.0247 1.827356,4.54873 2.084297,1.83564 4.927873,2.74989 7.418259,1.85083 2.60741,-0.94356 1.28181,-3.69483 1.28181,-3.69483 l -10.527425,-2.70473"
       style="fill:#e0dedc;fill-opacity:1;fill-rule:nonzero;stroke:none;stroke-width:0.03527778"
       id="path848"
       inkscape:connector-curvature="0" />
    <path
       d="m 87.147662,228.27252 c -0.232728,0.69307 -0.603228,2.37348 0.191306,3.73926 3.105749,3.45476 5.312791,5.40048 9.017519,4.18994 2.90583,-0.94985 0.8412,-3.40893 -0.74918,-4.35201 -1.588292,-0.94483 -4.658126,-3.62429 -4.658126,-3.62429 0,0 -1.098054,1.2392 -3.801519,0.0471"
       style="fill:#40bfbc;fill-opacity:1;fill-rule:nonzero;stroke:none;stroke-width:0.03527778"
       id="path850"
       inkscape:connector-curvature="0" />
    <path
       d="m 90.949181,228.22542 c 0.585625,-0.94121 0.237326,-1.70384 -1.633683,-1.50868 -1.302061,0.1368 -2.571505,0.75434 -1.156516,1.90733 0.46014,0.44291 2.291409,0.26316 2.790199,-0.39865"
       style="fill:#40bfbc;fill-opacity:1;fill-rule:nonzero;stroke:none;stroke-width:0.03527778"
       id="path852"
       inkscape:connector-curvature="0" />
    <path
       d="m 95.917817,232.04923 c 1.68581,0.96265 3.2398,3.39256 0.52133,4.2818 -2.073071,0.67509 -3.933849,0.28481 -5.447857,-0.6777 -0.09118,-2.30073 2.643988,-3.45521 4.926527,-3.6041"
       style="fill:#f4f1f0;fill-opacity:1;fill-rule:nonzero;stroke:none;stroke-width:0.03527778"
       id="path854"
       inkscape:connector-curvature="0" />
    <path
       d="m 89.516984,230.68113 c 0.09602,-0.005 0.188666,-0.0547 0.245251,-0.14429 0.447064,-0.71776 1.551858,-1.29184 2.627503,-1.01159 0.163999,0.0402 0.328515,-0.0597 0.36968,-0.225 0.04122,-0.16527 -0.05651,-0.3351 -0.21849,-0.37712 -1.394,-0.3617 -2.735769,0.38867 -3.291662,1.28034 -0.09067,0.14462 -0.0485,0.33599 0.09314,0.42851 0.05382,0.0347 0.11523,0.0509 0.174582,0.0491"
       style="fill:#e0e0de;fill-opacity:1;fill-rule:nonzero;stroke:none;stroke-width:0.03527778"
       id="path856"
       inkscape:connector-curvature="0" />
    <path
       d="m 90.716501,231.65801 c 0.09579,-0.004 0.186784,-0.0549 0.243366,-0.14446 0.446874,-0.71584 1.551869,-1.29184 2.627505,-1.01161 0.163811,0.0422 0.328327,-0.0578 0.369679,-0.22498 0.04309,-0.16509 -0.05682,-0.33318 -0.21849,-0.37713 -1.394,-0.3617 -2.735959,0.3906 -3.291863,1.28229 -0.0905,0.14266 -0.0485,0.33597 0.09333,0.42656 0.05364,0.0367 0.115226,0.0509 0.176468,0.0494"
       style="fill:#e0e0de;fill-opacity:1;fill-rule:nonzero;stroke:none;stroke-width:0.03527778"
       id="path858"
       inkscape:connector-curvature="0" />
    <path
       d="m 91.914134,232.6347 c 0.09579,-0.004 0.188666,-0.0547 0.243174,-0.14251 0.447066,-0.71778 1.552051,-1.29379 2.629579,-1.01337 0.16193,0.0419 0.32833,-0.0578 0.3695,-0.22304 0.0414,-0.1672 -0.0566,-0.33513 -0.22038,-0.3773 -1.39193,-0.36346 -2.735771,0.38864 -3.291676,1.28034 -0.0907,0.14457 -0.0485,0.33596 0.09314,0.42847 0.05569,0.035 0.115235,0.0509 0.176666,0.0474"
       style="fill:#e0e0de;fill-opacity:1;fill-rule:nonzero;stroke:none;stroke-width:0.03527778"
       id="path860"
       inkscape:connector-curvature="0" />
    <path
       d="m 71.747813,181.44636 c 0.02949,-0.008 7.52107,-0.34618 14.029957,-1.92276 0.165983,4.53555 4.591735,12.45756 5.130421,20.96342 -1.417715,2.5215 -13.9532,3.4816 -15.841694,2.426 -0.799614,-5.1736 -2.17588,-9.49664 -2.818089,-9.46922 -0.565463,0.0236 -0.925513,3.83672 -1.238658,8.81588 -1.964802,1.49096 -13.306437,1.23731 -14.684908,-0.56074 -0.175604,-8.73933 1.500895,-16.31184 1.284363,-20.95 6.61738,1.00655 14.108753,0.69043 14.138608,0.69742"
       style="fill:#111213;fill-opacity:1;fill-rule:nonzero;stroke:none;stroke-width:0.03527778"
       id="path862"
       inkscape:connector-curvature="0" />
    <path
       d="m 56.174803,198.09444 c 0,0 -0.726558,4.0832 -0.04613,4.59748 1.184292,0.8935 8.848178,2.604 15.225544,0.81322 0.239791,-1.98029 0.137781,-3.9977 0.137781,-3.9977 0,0 -10.656722,1.11844 -15.317202,-1.413"
       style="fill:#474c63;fill-opacity:1;fill-rule:nonzero;stroke:none;stroke-width:0.03527778"
       id="path864"
       inkscape:connector-curvature="0" />
    <path
       d="m 90.856677,197.20638 c 0,0 1.064173,4.00448 0.427313,4.57607 -1.104438,0.99497 -11.001158,3.22237 -16.307889,2.39164 -0.402586,-1.9509 -0.470032,-3.9706 -0.470032,-3.9706 0,0 11.916654,-0.0691 16.350608,-2.99711"
       style="fill:#474c63;fill-opacity:1;fill-rule:nonzero;stroke:none;stroke-width:0.03527778"
       id="path866"
       inkscape:connector-curvature="0" />
    <path
       d="m 57.265771,192.56599 c 1.224187,0.0792 2.456466,-0.40768 3.329091,-1.28428 0.858629,-0.86246 1.315829,-2.09942 1.282028,-3.32263 -0.01864,-0.66437 -1.030908,-0.62051 -1.012643,0.0458 0.02688,0.95945 -0.341405,1.90161 -1.015787,2.57845 -0.692354,0.69447 -1.667448,1.01108 -2.625745,0.94944 -0.27364,-0.0164 -0.495412,0.28025 -0.484696,0.53855 0.01257,0.30524 0.253358,0.47812 0.527752,0.49467"
       style="fill:#474c63;fill-opacity:1;fill-rule:nonzero;stroke:none;stroke-width:0.03527778"
       id="path868"
       inkscape:connector-curvature="0" />
    <path
       d="m 81.894879,186.66442 c 0.6359,2.04312 2.748548,3.47642 4.846721,3.2423 0.272162,-0.0305 0.495946,-0.24707 0.484691,-0.53854 -0.01181,-0.26621 -0.255391,-0.52507 -0.529449,-0.49484 -1.652302,0.18453 -3.328537,-0.89405 -3.837067,-2.52658 -0.196894,-0.63402 -1.163484,-0.31849 -0.964896,0.31766"
       style="fill:#474c63;fill-opacity:1;fill-rule:nonzero;stroke:none;stroke-width:0.03527778"
       id="path870"
       inkscape:connector-curvature="0" />
    <path
       d="m 71.654228,185.07447 c 0.253315,2.51424 0.355055,5.03626 0.496675,7.56044 0.0083,0.16648 0.263298,0.15569 0.253057,-0.0109 -0.141614,-2.52417 -0.243355,-5.0462 -0.496674,-7.56044 -0.01798,-0.16552 -0.271048,-0.15455 -0.253058,0.0109"
       style="fill:#474c63;fill-opacity:1;fill-rule:nonzero;stroke:none;stroke-width:0.03527778"
       id="path872"
       inkscape:connector-curvature="0" />
    <path
       d="m 74.317703,184.99206 c 0.329498,0.89514 0.383322,1.93335 0.369949,2.87894 -0.01739,1.19843 -0.202682,2.5121 -0.89006,3.51688 -0.381143,0.5531 -0.918048,0.94403 -1.559445,1.11766 -0.157093,0.0442 -0.08019,0.28987 0.07857,0.24775 2.560114,-0.69705 2.805663,-4.14391 2.551111,-6.35627 -0.05754,-0.49888 -0.134729,-1.01148 -0.309479,-1.48344 -0.05712,-0.15592 -0.297765,-0.0774 -0.240653,0.0785"
       style="fill:#474c63;fill-opacity:1;fill-rule:nonzero;stroke:none;stroke-width:0.03527778"
       id="path874"
       inkscape:connector-curvature="0" />
    <path
       d="m 63.61384,150.88748 c 0,0 2.60901,-0.44262 4.505175,-0.70144 0.09454,-2.03613 -0.203251,-4.89204 -0.203251,-4.89204 l 4.843367,-0.60231 c 0,0 0.206253,3.91617 0.219163,5.25218 2.013724,0.33005 4.502573,0.44983 5.489584,0.52606 -1.901553,6.54394 -14.022575,8.28713 -14.854034,0.41751"
       style="fill:#fabd99;fill-opacity:1;fill-rule:nonzero;stroke:none;stroke-width:0.03527778"
       id="path876"
       inkscape:connector-curvature="0" />
    <path
       d="m 68.345629,147.37438 0.06108,1.56308 c 0,0 2.270989,-1.32497 4.219689,-0.18328 -0.09627,-0.9179 -0.131552,-1.77689 -0.131552,-1.77689 l -4.149213,0.39709"
       style="fill:#efa378;fill-opacity:1;fill-rule:nonzero;stroke:none;stroke-width:0.03527778"
       id="path878"
       inkscape:connector-curvature="0" />
    <path
       d="m 57.775518,152.82143 c -6.955015,2.49708 -10.823258,1.15586 -10.823258,1.15586 0,0 -3.549176,5.9827 -3.123888,10.29941 4.250423,2.2866 9.163018,1.82195 12.181404,0.5505 0.815262,-7.1526 1.765742,-12.00577 1.765742,-12.00577"
       style="fill:#40bfbc;fill-opacity:1;fill-rule:nonzero;stroke:none;stroke-width:0.03527778"
       id="path880"
       inkscape:connector-curvature="0" />
    <path
       d="m 48.980567,154.07501 -3.591513,11.56844 -2.815552,-1.37121 c 0,0 2.541885,-9.18442 3.872334,-10.95695 0.977133,0.52534 2.534731,0.75972 2.534731,0.75972"
       style="fill:#111213;fill-opacity:1;fill-rule:nonzero;stroke:none;stroke-width:0.03527778"
       id="path882"
       inkscape:connector-curvature="0" />
    <path
       d="m 86.481512,162.81994 c 1.371801,1.45444 2.339872,3.16936 2.339872,3.16936 0,0 6.514743,-3.37244 8.609113,-6.17304 -4.78467,-6.30083 -9.290859,-8.31565 -13.263322,-9.16489 -0.128747,4.04146 2.314337,12.16857 2.314337,12.16857"
       style="fill:#40bfbc;fill-opacity:1;fill-rule:nonzero;stroke:none;stroke-width:0.03527778"
       id="path884"
       inkscape:connector-curvature="0" />
    <path
       d="m 65.069341,150.56967 c 0,0 -4.894268,0.87182 -7.293823,2.25176 -1.424358,3.3489 -4.167051,33.58511 -2.973316,34.08599 6.021381,2.53123 28.796752,1.5769 34.657576,-2.3636 -1.522614,-13.82313 -4.207649,-31.27508 -5.683655,-32.85327 -0.994389,-1.06295 -7.806309,-1.59462 -7.806309,-1.59462 0,0 -0.747164,2.90225 -5.013097,3.41789 -4.876804,0.58914 -5.887376,-2.94415 -5.887376,-2.94415"
       style="fill:#40bfbc;fill-opacity:1;fill-rule:nonzero;stroke:none;stroke-width:0.03527778"
       id="path886"
       inkscape:connector-curvature="0" />
    <path
       d="m 76.327014,175.21699 c -0.449275,-6.12927 -0.657949,-12.27863 -0.620752,-18.42409 0.01239,-2.11279 0.05729,-4.22614 0.126766,-6.33696 -0.156434,0.34632 -0.470676,0.89852 -1.055162,1.44237 -0.117512,4.35243 -0.116918,8.70725 0.01,13.05951 0.176738,6.14411 0.600492,12.28052 1.263721,18.38897 0.162256,1.48584 0.340199,2.96743 0.529864,4.44635 0.337564,-0.0355 0.673427,-0.0728 1.003625,-0.11103 -0.529393,-4.14235 -0.950494,-8.29885 -1.257993,-12.46512 z m 3.999889,0.22469 c -0.488685,-6.61853 -0.708046,-13.25802 -0.654511,-19.89672 0.01254,-1.67047 0.04606,-3.34073 0.09471,-5.00944 -0.342213,-0.0527 -0.679317,-0.0992 -1.007161,-0.14269 -0.136328,4.65834 -0.143203,9.32027 -0.0123,13.97885 0.187427,6.63426 0.644737,13.26124 1.374213,19.85779 0.113184,1.01703 0.232227,2.03273 0.358831,3.04923 0.337584,-0.055 0.669686,-0.11227 0.998017,-0.17007 -0.47711,-3.87974 -0.861608,-7.76946 -1.151789,-11.667 z m -13.753132,-0.43173 c -0.0042,-5.63141 0.135025,-11.2637 0.416655,-16.8891 0.08609,-1.69992 0.185595,-3.40042 0.296438,-5.09974 -0.378549,-0.18705 -0.700376,-0.40723 -0.966252,-0.63722 -0.297869,4.41178 -0.510508,8.83041 -0.632813,13.25054 -0.154258,5.63072 -0.167532,11.26425 -0.03925,16.89484 0.0443,1.92571 0.107665,3.85146 0.186541,5.7749 0.335446,0.005 0.673159,0.007 1.012965,0.006 -0.178172,-4.43155 -0.272055,-8.86615 -0.27428,-13.30105 z m 19.485832,2.07006 c -0.702894,-6.73018 -1.407674,-13.46057 -2.112268,-20.19289 -0.189905,-1.82381 -0.380001,-3.64568 -0.571794,-5.46968 -0.271068,-0.13507 -0.634749,-0.2602 -1.054759,-0.37551 0.513921,4.91621 1.027653,9.83437 1.541581,14.75059 0.704778,6.73039 1.40748,13.46252 2.11226,20.1929 0.0034,0.0237 0.0049,0.0472 0.0082,0.0709 0.340657,-0.10523 0.669974,-0.21162 0.982666,-0.32362 -0.302674,-2.88366 -0.603455,-5.76717 -0.905936,-8.65277 z M 71.963784,160.54614 c 0.193388,-2.47604 0.432183,-4.94743 0.705154,-7.41724 -0.318174,0.10948 -0.665238,0.20236 -1.043096,0.27842 -0.570773,5.24882 -0.973791,10.5188 -1.201804,15.7951 -0.272295,6.34144 -0.295701,12.69487 -0.0738,19.03846 0.337356,-0.014 0.674714,-0.028 1.012258,-0.0439 -0.09163,-2.62424 -0.143003,-5.25019 -0.150532,-7.87553 -0.01907,-6.5994 0.232864,-13.19819 0.751817,-19.77534 z m -9.028085,27.30564 c -0.458102,-4.99037 -0.575245,-10.01188 -0.463908,-15.02157 0.114891,-5.16714 0.476022,-10.33038 1.116634,-15.45899 0.280703,-2.2469 0.61959,-4.48585 1.022543,-6.71429 -0.266898,0.0543 -0.637953,0.1311 -1.074042,0.22845 -0.768759,4.34775 -1.286213,8.74083 -1.632071,13.14379 -0.407267,5.18381 -0.565849,10.38933 -0.444718,15.58856 0.06428,2.76368 0.2104,5.52601 0.463116,8.27791 0.01009,0.11016 0.04819,0.19785 0.101413,0.26957 0.263798,0.0176 0.531779,0.0333 0.802574,0.0476 0.0768,-0.0856 0.122467,-0.20562 0.108439,-0.36098 z m -5.888025,-9.04092 c 0.128591,-5.26899 0.521001,-10.53228 1.170778,-15.76127 0.46658,-3.75338 1.070713,-7.48677 1.80561,-11.19503 0.364483,-0.12419 0.736145,-0.24181 1.104582,-0.35003 -0.330385,1.63387 -0.63772,3.27205 -0.915953,4.91518 -0.869294,5.13626 -1.485197,10.31613 -1.837861,15.51531 -0.354579,5.23014 -0.447052,10.47558 -0.280038,15.71462 0.0011,0.0333 -0.0021,0.0641 -0.0061,0.0948 -0.352607,-0.0557 -0.689322,-0.11766 -1.00959,-0.18185 -0.0906,-2.91642 -0.10238,-5.8364 -0.03139,-8.75176"
       style="fill:#8ad7c9;fill-opacity:1;fill-rule:nonzero;stroke:none;stroke-width:0.03527778"
       id="path888"
       inkscape:connector-curvature="0" />
    <path
       d="m 70.601411,155.11784 c -0.364183,0.015 -0.735345,0.004 -1.112911,-0.0385 -2.585453,-0.2817 -4.809044,-1.90959 -5.287025,-3.87022 -0.121613,-0.49964 0.17596,-1.00483 0.664599,-1.12794 0.488463,-0.12508 0.98351,0.17917 1.105312,0.67689 0.290105,1.18918 1.91947,2.27462 3.711638,2.47078 1.078489,0.11635 3.751726,0.051 5.283448,-3.12117 0.221362,-0.46239 0.768851,-0.65154 1.219747,-0.42392 0.452974,0.2259 0.638219,0.78468 0.415158,1.24493 -1.239164,2.5691 -3.432844,4.07741 -5.999968,4.18921"
       style="fill:#111213;fill-opacity:1;fill-rule:nonzero;stroke:none;stroke-width:0.03527778"
       id="path890"
       inkscape:connector-curvature="0" />
    <path
       d="m 85.245014,151.00587 c 0.231139,0.78952 -0.983815,8.32381 -1.899856,10.13511 -0.483952,0.95557 -5.00848,0.93993 -5.547031,-1.12241 -0.734394,-2.80342 -0.599016,-8.45557 -0.372082,-10.20918 1.131012,-0.91626 7.778709,-0.19107 7.818969,1.19648"
       style="fill:#ee2d21;fill-opacity:1;fill-rule:nonzero;stroke:none;stroke-width:0.03527778"
       id="path892"
       inkscape:connector-curvature="0" />
    <path
       d="m 82.993507,149.31666 c 0,0 -0.406038,16.85903 0.156367,18.87316 0.562596,2.01221 9.581676,19.51992 9.581676,19.51992 l -2.894756,1.43615 c 0,0 -9.410903,-17.85005 -10.007502,-20.67631 C 79.230989,165.64119 79.5329,148.98577 79.5329,148.98577 l 3.460611,0.33085"
       style="fill:#111213;fill-opacity:1;fill-rule:nonzero;stroke:none;stroke-width:0.03527778"
       id="path894"
       inkscape:connector-curvature="0" />
    <path
       d="m 95.997567,161.83542 c -0.8894,-2.16275 -2.153027,0.0941 -4.327946,0.35142 0.99649,4.03259 -4.749311,5.05447 -4.749311,5.05447 0,0 -0.162836,0.12157 -0.359757,0.31758 -0.05706,-0.21436 -0.103753,-0.39842 -0.138975,-0.52479 -2.712772,0.25268 -3.112755,-2.24548 -3.489291,-1.37238 -0.249819,0.57636 -0.01175,1.43091 -0.02285,2.37281 -0.0036,0.40295 -0.751005,0.56763 -1.370083,0.5156 -0.961329,-0.10426 -1.519621,-0.42337 -1.65736,-0.45898 -0.758334,0.52598 -0.12911,1.32725 0.151105,1.28984 -0.54648,0.12107 -0.393672,1.00774 0.341975,1.29 -0.274771,0.38479 0.262913,1.16301 1.306042,1.2509 3.095185,0.26201 5.525655,-1.84534 5.525655,-1.84534 7.091992,-1.66268 11.691486,-3.77481 8.790806,-8.24113"
       style="fill:#fabd99;fill-opacity:1;fill-rule:nonzero;stroke:none;stroke-width:0.03527778"
       id="path896"
       inkscape:connector-curvature="0" />
    <path
       d="m 87.574079,164.78147 c 0,0 5.11322,-3.77389 8.752528,-6.34924 1.6618,1.35962 2.3514,2.57045 2.3514,2.57045 l -10.080729,5.74682 -1.023199,-1.96803"
       style="fill:#111213;fill-opacity:1;fill-rule:nonzero;stroke:none;stroke-width:0.03527778"
       id="path898"
       inkscape:connector-curvature="0" />
    <path
       d="M 113.8596,84.746383 C 100.05597,62.422567 62.950822,48.619307 44.17103,62.725822 c -10.456544,7.855326 -3.973984,23.494475 -3.973984,23.494475 0,0 -16.464451,-4.307638 -20.030289,14.731273 -0.978595,5.22612 2.366466,23.15166 15.56078,33.50034 12.860091,10.08591 24.271805,13.5695 35.431522,12.34697 27.573928,1.26007 39.001221,-17.4228 39.001221,-17.4228 16.5506,-23.31111 8.56848,-36.751678 3.69932,-44.629697"
       style="fill:#111213;fill-opacity:1;fill-rule:nonzero;stroke:none;stroke-width:0.03527778"
       id="path900"
       inkscape:connector-curvature="0" />
    <path
       d="m 40.197046,86.220297 c -1.159083,2.818948 -18.681912,-2.634198 -17.869251,-7.236569 0.81266,-4.604315 11.538803,2.78937 11.538803,2.78937 0,0 -5.341462,-8.651465 -3.159868,-11.56585 2.181784,-2.914366 9.610706,10.024224 9.490316,16.013049"
       style="fill:#111213;fill-opacity:1;fill-rule:nonzero;stroke:none;stroke-width:0.03527778"
       id="path902"
       inkscape:connector-curvature="0" />
    <path
       d="m 38.689418,118.07557 c 0.296449,18.56666 14.687108,30.69038 32.204798,30.39704 C 88.408877,148.18091 102.41056,135.584 102.11346,117.01432 101.81986,98.447759 87.394255,84.301847 69.877132,84.595256 52.36077,84.886782 38.394425,99.509631 38.689418,118.07557"
       style="fill:#fabd99;fill-opacity:1;fill-rule:nonzero;stroke:none;stroke-width:0.03527778"
       id="path904"
       inkscape:connector-curvature="0" />
    <path
       d="m 38.689418,118.07557 c 0.296449,18.56666 14.687108,30.69038 32.204798,30.39704 C 88.408877,148.18091 102.41056,135.584 102.11346,117.01432 101.81986,98.447759 87.394255,84.301847 69.877132,84.595256 52.36077,84.886782 38.394425,99.509631 38.689418,118.07557"
       style="fill:#fabd99;fill-opacity:1;fill-rule:nonzero;stroke:none;stroke-width:0.03527778"
       id="path906"
       inkscape:connector-curvature="0" />
    <path
       d="m 39.956615,118.19471 c 0,0 -0.486421,-3.76441 -4.954734,-4.34633 -4.712895,-0.6104 -6.656889,5.68913 -4.164665,9.48734 2.492304,3.79162 7.74486,3.91376 9.409599,0.97923 l -0.290212,-6.12012"
       style="fill:#fabd99;fill-opacity:1;fill-rule:nonzero;stroke:none;stroke-width:0.03527778"
       id="path908"
       inkscape:connector-curvature="0" />
    <path
       d="m 34.062669,115.48485 c 3.07884,-0.4913 5.449084,5.06864 1.232492,7.84682 1.835733,-3.85642 0.255719,-5.22456 -1.984044,-3.4106 0.05027,-1.27027 0.831394,-2.05556 2.678141,-1.87853 -0.110512,-1.68276 -1.926589,-2.55769 -1.926589,-2.55769"
       style="fill:#d37658;fill-opacity:1;fill-rule:nonzero;stroke:none;stroke-width:0.03527778"
       id="path910"
       inkscape:connector-curvature="0" />
    <path
       d="m 101.04842,117.18645 c 0,0 0.36648,-3.77851 4.81369,-4.50889 4.6936,-0.76718 6.8355,5.46464 4.46844,9.34291 -2.37224,3.8729 -7.61873,4.16989 -9.37478,1.29309 l 0.0927,-6.12711"
       style="fill:#fabd99;fill-opacity:1;fill-rule:nonzero;stroke:none;stroke-width:0.03527778"
       id="path912"
       inkscape:connector-curvature="0" />
    <path
       d="m 106.85454,114.28139 c -3.09418,-0.38802 -5.28587,5.24882 -0.9823,7.884 -1.95756,-3.7923 -0.4216,-5.2128 1.8729,-3.47576 -0.0885,-1.26701 -0.89536,-2.0254 -2.73419,-1.78836 0.0578,-1.68414 1.84359,-2.61988 1.84359,-2.61988"
       style="fill:#d37658;fill-opacity:1;fill-rule:nonzero;stroke:none;stroke-width:0.03527778"
       id="path914"
       inkscape:connector-curvature="0" />
    <path
       d="m 68.143679,121.32274 c 0.819409,0.65895 1.380774,-1.61166 3.316038,-1.45142 1.976779,0.16317 2.012366,2.52422 3.022329,1.84745 0.823868,-0.55157 0.09477,-3.48576 -3.151456,-3.64884 -2.707132,-0.13623 -3.966172,2.62606 -3.186911,3.25281"
       style="fill:#ee5b63;fill-opacity:1;fill-rule:nonzero;stroke:none;stroke-width:0.03527778"
       id="path916"
       inkscape:connector-curvature="0" />
    <path
       d="m 101.32851,124.8908 c -1.794933,8.03262 -6.544093,14.45549 -13.037424,18.55688 -0.462921,-0.29899 -0.901986,-0.64621 -1.313419,-1.04121 -3.966428,-3.82393 -3.733873,-10.65131 0.517743,-15.24806 3.896745,-4.21281 9.817287,-5.09063 13.8331,-2.26761"
       style="fill:#f79883;fill-opacity:1;fill-rule:nonzero;stroke:none;stroke-width:0.03527778"
       id="path918"
       inkscape:connector-curvature="0" />
    <path
       d="m 39.716233,125.88464 c 3.743801,-2.97357 9.542509,-2.61224 13.719475,1.10767 4.667465,4.15696 5.541901,10.92839 1.954539,15.12434 -0.636648,0.74503 -1.372576,1.35707 -2.17604,1.83941 -6.563802,-3.89642 -11.466451,-10.13925 -13.497974,-18.07142"
       style="fill:#f79883;fill-opacity:1;fill-rule:nonzero;stroke:none;stroke-width:0.03527778"
       id="path920"
       inkscape:connector-curvature="0" />
    <path
       d="m 94.214356,117.22593 c 0,0 -7.794622,-5.68768 -14.526414,-0.31433 7.366547,-10.26527 14.526414,0.31433 14.526414,0.31433"
       style="fill:#6d3a2c;fill-opacity:1;fill-rule:nonzero;stroke:none;stroke-width:0.03527778"
       id="path922"
       inkscape:connector-curvature="0" />
    <path
       d="m 63.049311,116.40617 c -1.189496,2.38734 -5.156097,5.24347 -8.949803,5.2598 -3.793725,0.0165 -5.525505,-2.4418 -7.168091,-5.19005 -0.0436,-1.53712 3.047309,-7.02456 6.841033,-7.04108 3.793707,-0.0163 7.590647,3.3153 9.276861,6.97133"
       style="fill:#ffffff;fill-opacity:1;fill-rule:nonzero;stroke:none;stroke-width:0.03527778"
       id="path924"
       inkscape:connector-curvature="0" />
    <path
       d="m 58.102249,113.55685 c 1.260267,1.98563 0.794619,4.58155 -1.041144,5.79858 -1.837314,1.21531 -4.350062,0.5923 -5.611825,-1.39367 -1.261894,-1.98852 -0.794338,-4.58249 1.040879,-5.79976 1.838636,-1.21519 4.350457,-0.59051 5.61209,1.39485"
       style="fill:#111213;fill-opacity:1;fill-rule:nonzero;stroke:none;stroke-width:0.03527778"
       id="path926"
       inkscape:connector-curvature="0" />
    <path
       d="m 53.933113,114.75544 c 0.129476,0.68065 -0.276991,1.32954 -0.90313,1.45314 -0.626419,0.12256 -1.238163,-0.32387 -1.369261,-1.00353 -0.127908,-0.67721 0.274666,-1.32728 0.899068,-1.45647 0.629083,-0.11861 1.245831,0.3293 1.373323,1.00686"
       style="fill:#ffffff;fill-opacity:1;fill-rule:nonzero;stroke:none;stroke-width:0.03527778"
       id="path928"
       inkscape:connector-curvature="0" />
    <path
       d="m 57.857962,116.90799 c 0.08196,0.42188 -0.171085,0.82254 -0.561748,0.90254 -0.387877,0.077 -0.769894,-0.20238 -0.849323,-0.6248 -0.0738,-0.41949 0.171106,-0.82274 0.562279,-0.90016 0.387857,-0.0768 0.768965,0.20209 0.848792,0.62242"
       style="fill:#ffffff;fill-opacity:1;fill-rule:nonzero;stroke:none;stroke-width:0.03527778"
       id="path930"
       inkscape:connector-curvature="0" />
    <path
       d="m 46.931417,116.47592 c 0,0 2.936722,-8.75097 11.987704,-5.14818 -10.005293,-7.58895 -11.987704,5.14818 -11.987704,5.14818"
       style="fill:#6d3a2c;fill-opacity:1;fill-rule:nonzero;stroke:none;stroke-width:0.03527778"
       id="path932"
       inkscape:connector-curvature="0" />
    <path
       d="m 89.65466,103.84635 c -3.153807,-1.25169 -4.171444,2.31988 -2.020751,2.53893 2.306149,0.22992 4.155352,1.27743 4.463213,1.0792 0.684755,-0.43823 -0.665969,-2.9162 -2.442462,-3.61813"
       style="fill:#111213;fill-opacity:1;fill-rule:nonzero;stroke:none;stroke-width:0.03527778"
       id="path934"
       inkscape:connector-curvature="0" />
    <path
       d="m 51.700436,104.48411 c 3.26368,-0.92023 3.920232,2.73757 1.760057,2.73401 -2.318373,-0.009 -4.261061,0.84269 -4.548351,0.61301 -0.637106,-0.50651 0.952457,-2.83162 2.788294,-3.34702"
       style="fill:#111213;fill-opacity:1;fill-rule:nonzero;stroke:none;stroke-width:0.03527778"
       id="path936"
       inkscape:connector-curvature="0" />
    <path
       d="m 91.215238,127.80201 c 0.252277,0.49868 0.851408,0.6944 1.340694,0.43748 0.487413,-0.25728 0.679743,-0.86996 0.427463,-1.3686 -0.25039,-0.49847 -0.851411,-0.6944 -1.338806,-0.43731 -0.489304,0.25711 -0.681632,0.86978 -0.429351,1.36843"
       style="fill:#ee5b63;fill-opacity:1;fill-rule:nonzero;stroke:none;stroke-width:0.03527778"
       id="path938"
       inkscape:connector-curvature="0" />
    <path
       d="m 88.266674,130.496 c 0.25228,0.49866 0.851392,0.69456 1.340697,0.43748 0.489304,-0.2571 0.679742,-0.86997 0.429354,-1.36844 -0.25228,-0.49867 -0.853301,-0.69457 -1.340716,-0.43727 -0.489286,0.25691 -0.681613,0.86956 -0.429335,1.36823"
       style="fill:#ee5b63;fill-opacity:1;fill-rule:nonzero;stroke:none;stroke-width:0.03527778"
       id="path940"
       inkscape:connector-curvature="0" />
    <path
       d="m 91.645754,131.13004 c 0.252261,0.49886 0.853277,0.69478 1.340697,0.43748 0.489285,-0.2569 0.681609,-0.86957 0.429329,-1.36822 -0.252262,-0.49885 -0.853276,-0.69478 -1.340696,-0.43749 -0.489287,0.25692 -0.681608,0.86958 -0.42933,1.36823"
       style="fill:#ee5b63;fill-opacity:1;fill-rule:nonzero;stroke:none;stroke-width:0.03527778"
       id="path942"
       inkscape:connector-curvature="0" />
    <path
       d="m 49.930789,128.72825 c 0.467995,0.29406 1.081163,0.14529 1.369341,-0.33252 0.288355,-0.4777 0.142553,-1.10333 -0.325418,-1.3976 -0.467993,-0.29407 -1.081161,-0.1453 -1.369338,0.33251 -0.288355,0.4777 -0.142554,1.10336 0.325415,1.39761"
       style="fill:#ee5b63;fill-opacity:1;fill-rule:nonzero;stroke:none;stroke-width:0.03527778"
       id="path944"
       inkscape:connector-curvature="0" />
    <path
       d="m 48.810421,132.35414 c 0.468164,0.29427 1.081162,0.14529 1.369509,-0.33232 0.288167,-0.4777 0.142583,-1.10353 -0.325605,-1.39761 -0.467974,-0.29426 -1.080973,-0.14529 -1.369319,0.33232 -0.288167,0.47772 -0.142584,1.10355 0.325415,1.39761"
       style="fill:#ee5b63;fill-opacity:1;fill-rule:nonzero;stroke:none;stroke-width:0.03527778"
       id="path946"
       inkscape:connector-curvature="0" />
    <path
       d="m 52.244793,131.3757 c 0.467993,0.29406 1.080973,0.14527 1.369319,-0.33232 0.288184,-0.47791 0.142572,-1.10354 -0.325586,-1.39782 -0.467994,-0.29407 -1.080973,-0.14529 -1.369339,0.33251 -0.288167,0.47771 -0.142563,1.10335 0.325606,1.39763"
       style="fill:#ee5b63;fill-opacity:1;fill-rule:nonzero;stroke:none;stroke-width:0.03527778"
       id="path948"
       inkscape:connector-curvature="0" />
    <path
       d="m 62.714498,127.38159 c 2.398567,-0.39746 0.651559,4.67886 4.771108,6.5845 4.204429,1.94691 7.268238,-2.62597 8.57439,-0.0835 1.068101,2.07378 -4.087133,7.10206 -10.876854,3.69092 -5.665976,-2.84343 -4.749586,-9.81418 -2.468644,-10.19197"
       style="fill:#4e1a1e;fill-opacity:1;fill-rule:nonzero;stroke:none;stroke-width:0.03527778"
       id="path950"
       inkscape:connector-curvature="0" />
    <path
       d="m 38.570928,115.51831 c 0,0 9.58625,2.68229 8.758426,-16.620258 3.942167,4.100048 29.154058,18.683248 33.351269,11.105218 1.489672,-2.68923 -0.554806,-8.97962 -4.809234,-14.195351 7.392887,7.510221 17.171752,9.137001 17.554934,2.485083 2.017614,3.185108 6.328154,6.193558 8.629997,17.021868 C 117.23334,86.997286 69.50247,58.361767 41.148193,92.233683 32.031031,103.12541 38.570928,115.51831 38.570928,115.51831"
       style="fill:#111213;fill-opacity:1;fill-rule:nonzero;stroke:none;stroke-width:0.03527778"
       id="path952"
       inkscape:connector-curvature="0" />
    <path
       d="m 9.9662172,235.67917 c -5.6699429,-1.8069 -7.6648437,3.02263 -2.207988,2.7867 -3.6834417,3.20824 2.6509888,4.42229 5.1810978,0.56775 1.692964,4.2781 10.100165,0.45878 5.144053,-1.76818 5.880287,-1.31646 2.549054,-5.07119 -2.672554,-2.25247 0.426942,-3.53058 -7.2794578,-2.29321 -5.4446118,0.66623"
       style="fill:#ffffff;fill-opacity:1;fill-rule:nonzero;stroke:none;stroke-width:0.03527778"
       id="path1808"
       inkscape:connector-curvature="0" />
    <path
       d="m 48.094567,241.66975 c 0.07188,1.32455 -3.834255,2.6819 -8.715301,2.95886 -4.880855,0.27502 -9.8643,-0.27887 -9.935996,-1.60145 -0.07151,-1.32256 3.761901,-1.51445 8.642945,-1.78946 4.881423,-0.2769 9.936656,-0.89054 10.008352,0.43205"
       style="fill:#58902f;fill-opacity:1;fill-rule:nonzero;stroke:none;stroke-width:0.03527778"
       id="path1900"
       inkscape:connector-curvature="0" />
    <path
       d="m 37.28748,230.54814 c 0.09998,3.98318 0.247583,7.96542 0.723293,11.92491 0.04575,0.37881 0.62843,0.34915 0.582298,-0.0335 -0.475522,-3.95754 -0.622558,-7.94166 -0.723484,-11.92493 -0.0095,-0.38483 -0.592144,-0.34931 -0.582108,0.0335"
       style="fill:#217738;fill-opacity:1;fill-rule:nonzero;stroke:none;stroke-width:0.03527778"
       id="path1902"
       inkscape:connector-curvature="0" />
    <path
       d="m 34.298807,228.58434 c -6.712008,-2.45814 -9.307028,3.36558 -2.762729,3.31242 -4.546633,3.76599 2.986997,5.52543 6.180331,0.92066 1.846103,5.30471 12.075144,0.9994 6.23558,-1.93983 7.096431,-1.35632 3.267504,-6.09741 -3.104797,-2.87204 0.661187,-4.30232 -8.619013,-3.12403 -6.548385,0.57879"
       style="fill:#ee2d21;fill-opacity:1;fill-rule:nonzero;stroke:none;stroke-width:0.03527778"
       id="path1904"
       inkscape:connector-curvature="0" />
    <path
       d="m 40.509105,229.98738 c 0.0442,0.82094 -1.153727,1.5569 -2.676668,1.64175 -1.522752,0.0868 -2.792937,-0.50767 -2.837326,-1.33057 -0.04458,-0.81904 1.153917,-1.55494 2.676481,-1.64178 1.522749,-0.0848 2.792747,0.50959 2.837513,1.3306"
       style="fill:#fbc508;fill-opacity:1;fill-rule:nonzero;stroke:none;stroke-width:0.03527778"
       id="path1906"
       inkscape:connector-curvature="0" />
    <g
       id="g290"
       transform="matrix(0.02890559,-0.00489506,-0.00505992,-0.03085618,-299.34655,360.87248)"
       style="stroke-width:1.85230255">
      <path
         d="m 16133,750.948 c -0.5,9.372 36.7,11.009 82.7,3.586 46.1,-7.549 83.6,-21.263 83.9,-30.76 0.4,-9.374 -36.8,-11.008 -82.8,-3.459 -45.8,7.359 -83.6,21.073 -83.8,30.633"
         style="fill:#fcf998;fill-opacity:1;fill-rule:nonzero;stroke:none;stroke-width:1.85230255"
         id="path292"
         inkscape:connector-curvature="0" />
    </g>
    <g
       id="g308"
       transform="matrix(0.03221614,-0.00545569,-0.00563943,-0.03439011,-299.34655,360.87248)"
       style="stroke-width:1.85230255">
      <path
         d="m 15337.4,1253.76 c 384.3,-55.87 962.6,-314.142 447.1,-296.476 -515.4,17.609 -1147.5,214.356 -1159.8,299.976 -12.3,85.62 217.7,68.41 712.7,-3.5"
         style="fill:#58902f;fill-opacity:1;fill-rule:nonzero;stroke:none;stroke-width:1.85230255"
         id="path310"
         inkscape:connector-curvature="0" />
    </g>
    <g
       id="g480"
       transform="matrix(0.03483282,-0.00589881,-0.00609748,-0.0371834,-299.34655,360.87248)"
       style="stroke-width:1.85230255">
      <path
         d="m 15787.1,4479.31 c -120.9,-582.61 89,-1220.55 263.7,-1616.81 249.2,-565.01 -147.4,-1198.98 -787.3,-743.95 69.3,-424.65 -720.7,-545.65 -938.3,-81.64 -133.3,-256.99 -1031.6,-168.82 -872.6,394.79 -371.2,-278.39 -794.8,74.28 -753.6,397.03 96,751.69 980.3,717.23 1003.8,2033.47 947.2,112.24 1139.7,171.08 1139.7,171.08 l 944.6,-553.97"
         style="fill:#c86633;fill-opacity:1;fill-rule:nonzero;stroke:none;stroke-width:1.85230255"
         id="path482"
         inkscape:connector-curvature="0" />
    </g>
    <g
       id="g484"
       transform="matrix(0.03179375,-0.00538417,-0.00556548,-0.03393923,-299.34655,360.87248)"
       style="stroke-width:1.85230255">
      <path
         d="m 16200.5,2696.45 c 0,0 -77.8,-100.83 -62.1,-118.5 18.9,-21.04 26.6,22.65 43.5,23.79 10,0.69 2.7,-24.19 -1.7,-36.43 -11.6,-32.37 -41,-69.14 -28.4,-75.94 10.4,-10.07 33.8,6.92 36.1,13.78 -0.7,-19.1 29.3,-4.35 34.3,12.64 5.6,-10.53 23.8,9.38 37.4,32.2 40.4,67.65 17.6,133.13 17.6,133.13 l -76.7,15.33"
         style="fill:#fabd99;fill-opacity:1;fill-rule:nonzero;stroke:none;stroke-width:1.85230255"
         id="path486"
         inkscape:connector-curvature="0" />
    </g>
    <g
       id="g488"
       transform="matrix(0.03113335,-0.00527233,-0.00544989,-0.03323427,-299.34655,360.87248)"
       style="stroke-width:1.85230255">
      <path
         d="m 16300,2571.43 c 0,0 -183.6,-1168.3 -192.8,-1257.13 -60.6,-5.55 -105.5,-51.27 -105.5,-51.27 l 131.5,1305.65 166.8,2.75"
         style="fill:#fabd99;fill-opacity:1;fill-rule:nonzero;stroke:none;stroke-width:1.85230255"
         id="path490"
         inkscape:connector-curvature="0" />
    </g>
    <g
       id="g492"
       transform="matrix(0.03092479,-0.00523701,-0.00541338,-0.03301163,-299.34655,360.87248)"
       style="stroke-width:1.85230255">
      <path
         d="m 16300,1886.97 c -40.1,-260.06 -79.8,-520.94 -84.3,-563.81 -60.9,-5.58 -106.1,-51.62 -106.1,-51.62 l 59.2,632.24 c 25.1,-13.93 96.3,-31.22 131.2,-16.81"
         style="fill:#1c62b7;fill-opacity:1;fill-rule:nonzero;stroke:none;stroke-width:1.85230255"
         id="path494"
         inkscape:connector-curvature="0" />
    </g>
    <g
       id="g496"
       transform="matrix(0.03090424,-0.00523353,-0.00540978,-0.0329897,-299.34655,360.87248)"
       style="stroke-width:1.85230255">
      <path
         d="m 16278.5,1677.29 c 2.3,15.53 4.7,31.36 7.2,47.31 -36.7,-7.12 -92.8,5.59 -121.4,18.18 l -4.6,-48.66 c 29.5,-12.18 83.3,-23.83 118.8,-16.83 z m 21.5,140.44 c -2.5,-15.82 -4.9,-31.59 -7.3,-47.3 -34.1,-10.53 -92.3,1.23 -124.5,14.06 l 4.6,48.6 c 31.4,-13.24 92,-26.06 127.2,-15.36"
         style="fill:#8d9fd8;fill-opacity:1;fill-rule:nonzero;stroke:none;stroke-width:1.85230255"
         id="path498"
         inkscape:connector-curvature="0" />
    </g>
    <g
       id="g500"
       transform="matrix(0.03112518,-0.00527094,-0.00544846,-0.03322552,-299.34655,360.87248)"
       style="stroke-width:1.85230255">
      <path
         d="m 15995.2,1304.48 c -15.4,-23.48 -40.9,-50.18 26,-136.81 48.6,-63.1 123.9,-104.92 199.6,-94.41 79.2,11.04 57.3,95.11 57.3,95.11 l -282.9,136.11"
         style="fill:#e0dedc;fill-opacity:1;fill-rule:nonzero;stroke:none;stroke-width:1.85230255"
         id="path502"
         inkscape:connector-curvature="0" />
    </g>
    <g
       id="g504"
       transform="matrix(0.03115336,-0.00527571,-0.00545339,-0.03325562,-299.34655,360.87248)"
       style="stroke-width:1.85230255">
      <path
         d="m 15996.7,1393.95 c -10.5,-17.86 -30.4,-62.28 -15.8,-104.77 68.4,-113.81 119.7,-180.53 231.5,-168.44 87.6,9.51 43.1,89.65 3.5,125.01 -39.6,35.38 -111.3,127.48 -111.3,127.48 0,0 -38.1,-28.02 -107.9,20.72"
         style="fill:#ef2789;fill-opacity:1;fill-rule:nonzero;stroke:none;stroke-width:1.85230255"
         id="path506"
         inkscape:connector-curvature="0" />
    </g>
    <g
       id="g508"
       transform="matrix(0.0308217,-0.00521955,-0.00539533,-0.03290158,-299.34655,360.87248)"
       style="stroke-width:1.85230255">
      <path
         d="m 16277.8,1388 c 22.2,22.89 16.5,46.37 -38.1,51.85 -38,3.78 -77.9,-6.07 -43.9,-46.66 10.5,-15.1 64,-20.83 82,-5.19"
         style="fill:#ef2789;fill-opacity:1;fill-rule:nonzero;stroke:none;stroke-width:1.85230255"
         id="path510"
         inkscape:connector-curvature="0" />
    </g>
    <g
       id="g512"
       transform="matrix(0.03114554,-0.00527438,-0.00545201,-0.03324727,-299.34655,360.87248)"
       style="stroke-width:1.85230255">
      <path
         d="m 16227.5,1238.71 c 42.3,-36.43 72.5,-112.85 -9.5,-121.72 -62.5,-6.78 -113,14.88 -150.4,50.32 10.5,64.33 94.4,80.51 159.9,71.4"
         style="fill:#f4f1f0;fill-opacity:1;fill-rule:nonzero;stroke:none;stroke-width:1.85230255"
         id="path514"
         inkscape:connector-curvature="0" />
    </g>
    <g
       id="g516"
       transform="matrix(0.03087024,-0.00522777,-0.00540383,-0.03295341,-299.34655,360.87248)"
       style="stroke-width:1.85230255">
      <path
         d="m 16197.4,1325.51 c 2.7,-0.47 5.6,0.41 7.8,2.59 16.8,17.43 51.7,27.03 80.8,12.96 4.4,-2.13 9.7,-0.3 11.9,4.12 2.1,4.36 0.3,9.66 -4.1,11.84 -37.7,18.26 -80.4,5.06 -101.4,-16.61 -3.4,-3.54 -3.3,-9.13 0.2,-12.55 1.4,-1.29 3,-2.12 4.8,-2.35"
         style="fill:#e0e0de;fill-opacity:1;fill-rule:nonzero;stroke:none;stroke-width:1.85230255"
         id="path518"
         inkscape:connector-curvature="0" />
    </g>
    <g
       id="g520"
       transform="matrix(0.03092443,-0.00523695,-0.00541331,-0.03301125,-299.34655,360.87248)"
       style="stroke-width:1.85230255">
      <path
         d="m 16197.5,1288.9 c 2.8,-0.47 5.7,0.42 7.8,2.59 16.9,17.41 51.7,26.99 80.7,12.94 4.4,-2.18 9.7,-0.3 11.8,4.05 2.2,4.41 0.3,9.7 -4,11.82 -37.7,18.29 -80.3,5.12 -101.2,-16.52 -3.4,-3.53 -3.3,-9.12 0.2,-12.52 1.4,-1.3 3,-2.12 4.7,-2.36"
         style="fill:#e0e0de;fill-opacity:1;fill-rule:nonzero;stroke:none;stroke-width:1.85230255"
         id="path522"
         inkscape:connector-curvature="0" />
    </g>
    <g
       id="g524"
       transform="matrix(0.03097843,-0.00524609,-0.00542277,-0.0330689,-299.34655,360.87248)"
       style="stroke-width:1.85230255">
      <path
         d="m 16197.8,1252.43 c 2.7,-0.47 5.6,0.41 7.7,2.58 16.8,17.38 51.6,27 80.6,12.92 4.4,-2.11 9.7,-0.3 11.8,4.05 2.1,4.4 0.3,9.68 -4.1,11.8 -37.6,18.25 -80.1,5.1 -101,-16.5 -3.4,-3.52 -3.3,-9.09 0.3,-12.5 1.3,-1.29 3,-2.11 4.7,-2.35"
         style="fill:#e0e0de;fill-opacity:1;fill-rule:nonzero;stroke:none;stroke-width:1.85230255"
         id="path526"
         inkscape:connector-curvature="0" />
    </g>
    <g
       id="g528"
       transform="matrix(0.03059241,-0.00518072,-0.0053552,-0.03265683,-299.34655,360.87248)"
       style="stroke-width:1.85230255">
      <path
         d="m 16139.7,2688.93 c 0,0 -195.1,-1187.58 -214.4,-1276.38 56.7,-24.67 85.5,-83.15 85.5,-83.15 l 289.2,1303.72 -160.3,55.81"
         style="fill:#fabd99;fill-opacity:1;fill-rule:nonzero;stroke:none;stroke-width:1.85230255"
         id="path530"
         inkscape:connector-curvature="0" />
    </g>
    <g
       id="g532"
       transform="matrix(0.03031876,-0.00513438,-0.00530729,-0.03236471,-299.34655,360.87248)"
       style="stroke-width:1.85230255">
      <path
         d="m 16167.5,1998.33 c -44.2,-264.72 -89.2,-530.09 -98.5,-573.03 57.3,-24.89 86.3,-83.9 86.3,-83.9 l 144.7,631.32 c -28.7,-5.52 -103.3,0.48 -132.5,25.61"
         style="fill:#1c62b7;fill-opacity:1;fill-rule:nonzero;stroke:none;stroke-width:1.85230255"
         id="path534"
         inkscape:connector-curvature="0" />
    </g>
    <g
       id="g536"
       transform="matrix(0.03028803,-0.00512917,-0.00530192,-0.03233191,-299.34655,360.87248)"
       style="stroke-width:1.85230255">
      <path
         d="m 16268.2,1764 11.1,48.57 c -31.6,-3 -90.1,2.58 -123.4,21.25 -2.7,-16.26 -5.4,-32.35 -8.1,-48.2 32.1,-18.13 88,-24.02 120.4,-21.62 z m 31.8,138.8 -11.1,-48.5 c -35.3,-2.17 -95.5,4.98 -125.1,26.17 2.6,15.91 5.3,32 8,48.15 30.8,-21.68 93.6,-28.58 128.2,-25.82"
         style="fill:#8d9fd8;fill-opacity:1;fill-rule:nonzero;stroke:none;stroke-width:1.85230255"
         id="path538"
         inkscape:connector-curvature="0" />
    </g>
    <g
       id="g540"
       transform="matrix(0.03013766,-0.0051037,-0.00527559,-0.03217138,-299.34655,360.87248)"
       style="stroke-width:1.85230255">
      <path
         d="m 16276.2,1386.32 c 7.5,-28.05 23.8,-62.44 -69.8,-125.79 -68.1,-46.09 -155.5,-62.81 -226.3,-27.99 -74.1,36.44 -25.4,111.79 -25.4,111.79 l 321.5,41.99"
         style="fill:#e0dedc;fill-opacity:1;fill-rule:nonzero;stroke:none;stroke-width:1.85230255"
         id="path542"
         inkscape:connector-curvature="0" />
    </g>
    <g
       id="g544"
       transform="matrix(0.03013693,-0.00510359,-0.00527546,-0.0321706,-299.34655,360.87248)"
       style="stroke-width:1.85230255">
      <path
         d="m 16290.2,1480.54 c 4.6,-20.94 9.8,-71.08 -18.4,-108 -103.9,-89.6 -176,-138.41 -281.7,-90.38 -83,37.65 -13.4,101.96 37,123.8 50.3,21.9 150.5,89.12 150.5,89.12 0,0 28.3,-39.83 112.6,-14.54"
         style="fill:#ef2789;fill-opacity:1;fill-rule:nonzero;stroke:none;stroke-width:1.85230255"
         id="path546"
         inkscape:connector-curvature="0" />
    </g>
    <g
       id="g548"
       transform="matrix(0.03014602,-0.00510513,-0.00527705,-0.0321803,-299.34655,360.87248)"
       style="stroke-width:1.85230255">
      <path
         d="m 16172.7,1494.62 c -14.1,29.37 -1.2,50.31 53.6,38.12 38.1,-8.44 73.7,-30.82 27.7,-59.35 -15,-11.28 -68.7,0.3 -81.3,21.23"
         style="fill:#ef2789;fill-opacity:1;fill-rule:nonzero;stroke:none;stroke-width:1.85230255"
         id="path550"
         inkscape:connector-curvature="0" />
    </g>
    <g
       id="g552"
       transform="matrix(0.02988109,-0.00506026,-0.00523068,-0.03189751,-299.34655,360.87248)"
       style="stroke-width:1.85230255">
      <path
         d="m 16154.4,1413.26 c -53.7,-22.28 -108.6,-88.05 -30.3,-123.65 59.6,-27.08 116.6,-22.15 165.3,0.73 10.6,67.12 -67.2,110.56 -135,122.92"
         style="fill:#f4f1f0;fill-opacity:1;fill-rule:nonzero;stroke:none;stroke-width:1.85230255"
         id="path554"
         inkscape:connector-curvature="0" />
    </g>
    <g
       id="g556"
       transform="matrix(0.02999547,-0.00507963,-0.0052507,-0.03201959,-299.34655,360.87248)"
       style="stroke-width:1.85230255">
      <path
         d="m 16288.1,1425.44 c -2.8,0.49 -5.4,2.25 -6.7,5.03 -10.9,22.55 -41.9,43.16 -74.9,38.8 -5,-0.67 -9.6,2.79 -10.2,7.82 -0.7,4.97 2.8,9.58 7.8,10.25 42.7,5.69 80.2,-20.92 93.7,-48.92 2.2,-4.55 0.3,-10.01 -4.2,-12.19 -1.8,-0.85 -3.7,-1.03 -5.5,-0.79"
         style="fill:#e0e0de;fill-opacity:1;fill-rule:nonzero;stroke:none;stroke-width:1.85230255"
         id="path558"
         inkscape:connector-curvature="0" />
    </g>
    <g
       id="g560"
       transform="matrix(0.02992364,-0.00506746,-0.00523813,-0.03194293,-299.34655,360.87248)"
       style="stroke-width:1.85230255">
      <path
         d="m 16288.1,1404.5 c -2.9,0.42 -5.4,2.25 -6.8,5.04 -10.9,22.55 -41.9,43.27 -75,38.83 -5,-0.67 -9.6,2.86 -10.3,7.84 -0.6,4.98 2.9,9.6 7.9,10.27 42.8,5.71 80.4,-20.96 93.9,-48.98 2.2,-4.55 0.3,-10.02 -4.2,-12.21 -1.8,-0.85 -3.7,-1.1 -5.5,-0.79"
         style="fill:#e0e0de;fill-opacity:1;fill-rule:nonzero;stroke:none;stroke-width:1.85230255"
         id="path562"
         inkscape:connector-curvature="0" />
    </g>
    <g
       id="g564"
       transform="matrix(0.02985182,-0.0050553,-0.00522555,-0.03186625,-299.34655,360.87248)"
       style="stroke-width:1.85230255">
      <path
         d="m 16288.1,1383.39 c -2.9,0.49 -5.5,2.26 -6.8,5.06 -11,22.6 -42,43.37 -75.2,38.92 -5.1,-0.61 -9.6,2.86 -10.3,7.92 -0.7,4.99 2.8,9.62 7.8,10.29 43,5.73 80.6,-21.01 94.2,-49.15 2.2,-4.57 0.2,-10.05 -4.3,-12.25 -1.7,-0.85 -3.6,-1.09 -5.4,-0.79"
         style="fill:#e0e0de;fill-opacity:1;fill-rule:nonzero;stroke:none;stroke-width:1.85230255"
         id="path566"
         inkscape:connector-curvature="0" />
    </g>
    <g
       id="g568"
       transform="matrix(0.03149681,-0.00533388,-0.00551352,-0.03362226,-299.34655,360.87248)"
       style="stroke-width:1.85230255">
      <path
         d="m 15933.5,2862.21 c -0.8,0.29 -192.6,31.46 -354.9,94.16 -18.7,-89.83 -67.3,-318.09 -74.2,-369.12 1,-25.81 160.6,-65.93 332.7,-95.26 12.1,-2.07 45.3,127.41 57.4,125.45 11.7,-1.85 2.3,-135.14 14,-136.88 163.7,-24.53 320.6,-36.31 346.3,-13.91 10.7,50.4 20.2,133.01 45.2,373.8 -173.8,-8.72 -365.7,21.82 -366.5,21.76"
         style="fill:#1c62b7;fill-opacity:1;fill-rule:nonzero;stroke:none;stroke-width:1.85230255"
         id="path570"
         inkscape:connector-curvature="0" />
    </g>
    <g
       id="g572"
       transform="matrix(0.03142137,-0.0053211,-0.0055003,-0.03354171,-299.34655,360.87248)"
       style="stroke-width:1.85230255">
      <path
         d="m 16282.2,2617.01 c -35,1.85 -68.5,19.56 -90.5,46.87 -21.6,26.91 -30.5,62.9 -25.5,96.87 2.7,18.46 31.3,13.89 28.6,-4.63 -3.9,-26.67 3.5,-54.1 20.5,-75.22 17.4,-21.71 44.1,-33.8 71.5,-35.25 7.9,-0.4 13.2,-9.49 12,-16.61 -1.3,-8.44 -8.7,-12.49 -16.6,-12.03"
         style="fill:#8d9fd8;fill-opacity:1;fill-rule:nonzero;stroke:none;stroke-width:1.85230255"
         id="path574"
         inkscape:connector-curvature="0" />
    </g>
    <g
       id="g576"
       transform="matrix(0.03144063,-0.00532436,-0.00550367,-0.03356229,-299.34655,360.87248)"
       style="stroke-width:1.85230255">
      <path
         d="m 15934.6,2470.65 h 0.1 c 118.1,-17.7 321.8,-42.62 358.6,-10.58 6.1,5.26 6.7,14.45 1.4,20.47 -5.2,6.07 -14.4,6.71 -20.4,1.44 -13,-11.27 -113,-16.02 -335.2,17.35 -8,1.16 -15.4,-4.28 -16.5,-12.2 -1.2,-7.86 4.2,-15.21 12,-16.48"
         style="fill:#8d9fd8;fill-opacity:1;fill-rule:nonzero;stroke:none;stroke-width:1.85230255"
         id="path578"
         inkscape:connector-curvature="0" />
    </g>
    <g
       id="g580"
       transform="matrix(0.0306326,-0.00518753,-0.00536223,-0.03269971,-299.34655,360.87248)"
       style="stroke-width:1.85230255">
      <path
         d="m 16281.6,2547.58 c 8,-1.31 15.6,4.15 17,12.17 1.4,8.13 -4.1,15.78 -12.1,17.21 -219.5,37.39 -318,72.3 -330.1,86.24 -1.4,7.01 -7.7,12.17 -15.1,11.88 -8.2,-0.3 -14.7,-7.18 -14.4,-15.38 0.6,-14.42 10,-32.29 116,-61.43 61.8,-16.98 146.5,-34.97 238.5,-50.69 h 0.2"
         style="fill:#8d9fd8;fill-opacity:1;fill-rule:nonzero;stroke:none;stroke-width:1.85230255"
         id="path582"
         inkscape:connector-curvature="0" />
    </g>
    <g
       id="g584"
       transform="matrix(0.03143082,-0.0053227,-0.00550196,-0.0335518,-299.34655,360.87248)"
       style="stroke-width:1.85230255">
      <path
         d="m 16300,3692.07 c 0,0 -72.7,21.06 -125.8,34.54 4,57.1 21.8,135.66 21.8,135.66 l -135.8,32.92 c 0,0 -18.6,-108.42 -23.4,-145.55 -58.3,-2.55 -129.5,2.42 -157.8,3.58 32.6,-188.59 371.6,-277.62 421,-61.15"
         style="fill:#fabd99;fill-opacity:1;fill-rule:nonzero;stroke:none;stroke-width:1.85230255"
         id="path586"
         inkscape:connector-curvature="0" />
    </g>
    <g
       id="g588"
       transform="matrix(0.03119354,-0.00528251,-0.00546042,-0.03329851,-299.34655,360.87248)"
       style="stroke-width:1.85230255">
      <path
         d="m 16300,3834.7 -6.9,-43.72 c 0,0 -60.7,44.82 -120.3,19.35 5.8,25.47 9.6,49.43 9.6,49.43 l 117.6,-25.06"
         style="fill:#efa378;fill-opacity:1;fill-rule:nonzero;stroke:none;stroke-width:1.85230255"
         id="path590"
         inkscape:connector-curvature="0" />
    </g>
    <g
       id="g592"
       transform="matrix(0.03170556,-0.00536922,-0.00555005,-0.03384508,-299.34655,360.87248)"
       style="stroke-width:1.85230255">
      <path
         d="m 15452.1,2920.55 c -65.5,188.74 153.2,694.96 191,795.26 22.3,3.5 125.3,12.44 149.3,8.14 -17.5,-107.3 78,-142.62 151.7,-152.66 73.3,-13.59 179.1,-8.6 192,97.44 24.1,-3.45 119.1,-44.16 139.2,-54.49 -1.3,-89.63 24.7,-665.93 -86.4,-812.11 -108.9,-25.01 -556.3,33.83 -736.8,118.42"
         style="fill:#36bdcf;fill-opacity:1;fill-rule:nonzero;stroke:none;stroke-width:1.85230255"
         id="path594"
         inkscape:connector-curvature="0" />
    </g>
    <g
       id="g596"
       transform="matrix(0.0319223,-0.00540592,-0.00558799,-0.03407645,-299.34655,360.87248)"
       style="stroke-width:1.85230255">
      <path
         d="m 16206,3563.06 c 94,-180.73 -131.1,-869.43 -131.1,-869.43 0,0 -71.9,-15.15 -238.2,17.08 65,286.11 153.4,944.8 153.4,944.8 0,0 159.1,-28.14 215.9,-92.45"
         style="fill:#ee2d21;fill-opacity:1;fill-rule:nonzero;stroke:none;stroke-width:1.85230255"
         id="path598"
         inkscape:connector-curvature="0" />
    </g>
    <g
       id="g600"
       transform="matrix(0.03137245,-0.00531282,-0.00549173,-0.0334895,-299.34655,360.87248)"
       style="stroke-width:1.85230255">
      <path
         d="m 16243.4,3249.13 c -2.4,-15.01 7.8,-29.1 22.8,-31.47 14.9,-2.44 29,7.76 31.4,22.71 2.4,15.02 -7.7,29.1 -22.8,31.48 -14.9,2.43 -29,-7.77 -31.4,-22.72"
         style="fill:#111213;fill-opacity:1;fill-rule:nonzero;stroke:none;stroke-width:1.85230255"
         id="path602"
         inkscape:connector-curvature="0" />
    </g>
    <g
       id="g604"
       transform="matrix(0.03132008,-0.00530395,-0.00548257,-0.0334336,-299.34655,360.87248)"
       style="stroke-width:1.85230255">
      <path
         d="m 16243.3,3085.15 c -2.4,-15.04 7.8,-29.14 22.8,-31.52 15,-2.44 29.1,7.78 31.5,22.76 2.4,15.03 -7.8,29.14 -22.8,31.52 -15,2.44 -29.1,-7.78 -31.5,-22.76"
         style="fill:#111213;fill-opacity:1;fill-rule:nonzero;stroke:none;stroke-width:1.85230255"
         id="path606"
         inkscape:connector-curvature="0" />
    </g>
    <g
       id="g608"
       transform="matrix(0.03126772,-0.00529508,-0.00547341,-0.03337771,-299.34655,360.87248)"
       style="stroke-width:1.85230255">
      <path
         d="m 16243.2,2920.63 c -2.4,-15.07 7.8,-29.2 22.8,-31.58 15,-2.44 29.2,7.79 31.6,22.79 2.4,15.06 -7.8,29.2 -22.8,31.58 -15,2.44 -29.2,-7.79 -31.6,-22.79"
         style="fill:#111213;fill-opacity:1;fill-rule:nonzero;stroke:none;stroke-width:1.85230255"
         id="path610"
         inkscape:connector-curvature="0" />
    </g>
    <g
       id="g612"
       transform="matrix(0.03078879,-0.00521398,-0.00538957,-0.03286645,-299.34655,360.87248)"
       style="stroke-width:1.85230255">
      <path
         d="m 16057.3,3813.98 c -151.2,-147.46 -153.3,-898.6 -153.3,-898.6 0,0 65.9,-38.33 240.1,-60.59 28.9,302.84 155.9,980.04 155.9,980.04 0,0 -165.8,23.98 -242.7,-20.85"
         style="fill:#ee2d21;fill-opacity:1;fill-rule:nonzero;stroke:none;stroke-width:1.85230255"
         id="path614"
         inkscape:connector-curvature="0" />
    </g>
    <g
       id="g616"
       transform="matrix(0.03186756,-0.00539666,-0.00557841,-0.03401805,-299.34655,360.87248)"
       style="stroke-width:1.85230255">
      <path
         d="m 16159.1,2748.34 c 0,0 -28,-46.56 -24.5,-63.1 15.7,-19 109.6,-63.28 146.8,-42.97 11,16.55 18.6,64.14 18.6,64.14 l -140.9,41.93"
         style="fill:#ee2d21;fill-opacity:1;fill-rule:nonzero;stroke:none;stroke-width:1.85230255"
         id="path618"
         inkscape:connector-curvature="0" />
    </g>
    <g
       id="g620"
       transform="matrix(0.0324567,-0.00549643,-0.00568153,-0.03464692,-299.34655,360.87248)"
       style="stroke-width:1.85230255">
      <path
         d="m 15891.7,3231.96 c -0.9,-5.61 8.8,-142.86 -8.2,-258.49 -17.1,-115.63 -90.3,-245.43 -5.3,-296.97 40.5,-24.54 77.2,-20.45 118.3,-27 209.8,-33.5 303.5,501.11 -60.9,855.45 -28.9,-180.11 -43.9,-272.99 -43.9,-272.99"
         style="fill:#f9b2dc;fill-opacity:1;fill-rule:nonzero;stroke:none;stroke-width:1.85230255"
         id="path622"
         inkscape:connector-curvature="0" />
    </g>
    <g
       id="g624"
       transform="matrix(0.03175975,-0.0053784,-0.00555953,-0.03390294,-299.34655,360.87248)"
       style="stroke-width:1.85230255">
      <path
         d="m 16298,3564.29 c 2,-22.79 -29.4,-184.92 -46.4,-222.25 -12.4,-27.19 -142.6,-6.93 -146.1,52.27 -4.8,80.38 5.8,210.69 11.9,263.53 7.3,25.3 178.1,-37.67 180.6,-93.55"
         style="fill:#111213;fill-opacity:1;fill-rule:nonzero;stroke:none;stroke-width:1.85230255"
         id="path626"
         inkscape:connector-curvature="0" />
    </g>
    <g
       id="g628"
       transform="matrix(0.03168738,-0.00536614,-0.00554687,-0.03382568,-299.34655,360.87248)"
       style="stroke-width:1.85230255">
      <path
         d="m 16300,3619.6 c -10.2,-133.24 -15.3,-392.21 -24.5,-534.17 -50.8,165.72 -103.2,293.28 -62.1,577.21 13.8,17.67 82.5,-14.46 86.6,-43.04"
         style="fill:#8d9fd8;fill-opacity:1;fill-rule:nonzero;stroke:none;stroke-width:1.85230255"
         id="path630"
         inkscape:connector-curvature="0" />
    </g>
    <g
       id="g632"
       transform="matrix(0.03071042,-0.0052007,-0.00537585,-0.03278278,-299.34655,360.87248)"
       style="stroke-width:1.85230255">
      <path
         d="m 16125.8,2768.31 c -5.8,1.83 -444.5,183.84 -442.8,189.46 l 113,374.61 c 1.7,5.62 7.8,8.7 13.5,6.86 l 481.4,-154.94 c 5.8,-1.84 9.1,-7.88 7.4,-13.5 l -108.5,-359.63 c -4.2,-14.03 -9.5,-16.93 -18,-21.79 l -46,-21.07"
         style="fill:#ee2d21;fill-opacity:1;fill-rule:nonzero;stroke:none;stroke-width:1.85230255"
         id="path634"
         inkscape:connector-curvature="0" />
    </g>
    <g
       id="g636"
       transform="matrix(0.03067369,-0.00519448,-0.00536942,-0.03274359,-299.34655,360.87248)"
       style="stroke-width:1.85230255">
      <path
         d="m 16145.7,2790.05 c -5.8,1.84 -450.9,177.6 -449.3,183.23 l 69.6,314.59 c 1.7,5.63 43.5,43.04 49.2,41.2 l 475.8,-153.06 c 5.7,-1.83 9,-7.88 7.3,-13.51 l -102.7,-340.61 c -2.8,-9.25 -6.2,-11.44 -16.1,-15.18 l -33.8,-16.66"
         style="fill:#f4ede3;fill-opacity:1;fill-rule:nonzero;stroke:none;stroke-width:1.85230255"
         id="path638"
         inkscape:connector-curvature="0" />
    </g>
    <g
       id="g640"
       transform="matrix(0.03059076,-0.00518044,-0.00535492,-0.03265508,-299.34655,360.87248)"
       style="stroke-width:1.85230255">
      <path
         d="m 15695.9,2933.07 c -5.8,1.91 -9.1,7.97 -7.4,13.62 l 105.6,349.91 c 1.7,5.65 7.7,8.68 13.5,6.84 l 483.3,-155.49 c 5.8,-1.85 9.1,-7.97 7.4,-13.56 l -105.6,-349.97 c -1.7,-5.59 -7.7,-8.68 -13.5,-6.84 l -483.3,155.49"
         style="fill:#ee2d21;fill-opacity:1;fill-rule:nonzero;stroke:none;stroke-width:1.85230255"
         id="path642"
         inkscape:connector-curvature="0" />
    </g>
    <g
       id="g644"
       transform="matrix(0.03046641,-0.00515938,-0.00533313,-0.03252231,-299.34655,360.87248)"
       style="stroke-width:1.85230255">
      <path
         d="m 16177.1,2766.6 c -6,1.13 -467.7,128.02 -466.7,133.87 l 66,388.88 c 1,5.79 6.6,9.61 12.6,8.54 l 501,-94.48 c 5.9,-1.13 10,-6.74 9,-12.59 l -63.3,-373.31 c -2.5,-14.56 -7.3,-18.14 -15.3,-24.05 l -43.3,-26.86"
         style="fill:#111213;fill-opacity:1;fill-rule:nonzero;stroke:none;stroke-width:1.85230255"
         id="path646"
         inkscape:connector-curvature="0" />
    </g>
    <g
       id="g648"
       transform="matrix(0.03043294,-0.00515371,-0.00532728,-0.03248659,-299.34655,360.87248)"
       style="stroke-width:1.85230255">
      <path
         d="m 16193.2,2788.1 c -6.1,1.14 -473.3,120.99 -472.4,126.85 l 30.1,323.35 c 1,5.86 38,48.51 44.1,47.44 l 495,-93.33 c 5.9,-1.13 10,-6.81 9,-12.6 l -60,-353.59 c -1.6,-9.56 -4.7,-12.18 -14.1,-17.2 l -31.7,-20.92"
         style="fill:#f4ede3;fill-opacity:1;fill-rule:nonzero;stroke:none;stroke-width:1.85230255"
         id="path650"
         inkscape:connector-curvature="0" />
    </g>
    <g
       id="g652"
       transform="matrix(0.03035912,-0.00514121,-0.00531436,-0.0324078,-299.34655,360.87248)"
       style="stroke-width:1.85230255">
      <path
         d="m 15722,2868.42 c -6,1.08 -10,6.77 -9.1,12.64 l 61.7,363.13 c 0.9,5.81 6.6,9.64 12.6,8.5 l 502.7,-94.75 c 6.1,-1.13 10.1,-6.82 9.1,-12.63 l -61.6,-363.13 c -0.9,-5.87 -6.6,-9.7 -12.6,-8.57 l -502.8,94.81"
         style="fill:#111213;fill-opacity:1;fill-rule:nonzero;stroke:none;stroke-width:1.85230255"
         id="path654"
         inkscape:connector-curvature="0" />
    </g>
    <g
       id="g656"
       transform="matrix(0.03005311,-0.00508938,-0.00526079,-0.03208113,-299.34655,360.87248)"
       style="stroke-width:1.85230255">
      <path
         d="m 16234.6,2997.95 c 9.6,-45.31 65.4,-111.81 44,-124.93 -14.1,-8.72 -26.5,24.68 -56.6,23.65 -10.6,-0.42 -12.6,-17.67 -9,-33.94 6.3,-25.23 20.9,-28.19 22.3,-31.7 -10.9,-22.03 -45.8,-8.11 -45.9,-0.49 -1.1,-15 -21.6,-9.92 -31.6,8.65 -9.1,-8.71 -31.6,1.4 -37.8,28.8 -18.1,81.38 32.5,139.95 32.5,139.95 0,0 63.6,-7.57 82.1,-9.99"
         style="fill:#fabd99;fill-opacity:1;fill-rule:nonzero;stroke:none;stroke-width:1.85230255"
         id="path658"
         inkscape:connector-curvature="0" />
    </g>
    <g
       id="g660"
       transform="matrix(0.02999002,-0.0050787,-0.00524975,-0.03201377,-299.34655,360.87248)"
       style="stroke-width:1.85230255">
      <path
         d="m 16287.3,3062.41 c 0,0 12.7,-56.33 3.7,-71.85 -22.1,-13.94 -131.7,-27.34 -162.5,5.52 -5.5,20.31 2.6,70.88 2.6,70.88 l 156.2,-4.55"
         style="fill:#ee2d21;fill-opacity:1;fill-rule:nonzero;stroke:none;stroke-width:1.85230255"
         id="path662"
         inkscape:connector-curvature="0" />
    </g>
    <g
       id="g664"
       transform="matrix(0.03033767,-0.00513758,-0.00531061,-0.03238489,-299.34655,360.87248)"
       style="stroke-width:1.85230255">
      <path
         d="m 16253,3577.98 c -0.9,-6 -56.7,-142.17 -78.2,-265.39 -21.5,-123.17 9.5,-279.66 -94.2,-303.45 -49.3,-11.39 -85.2,5.09 -129.2,12.16 -224.4,36.33 -140.4,610.92 348.6,848.74 -31,-192.69 -47,-292.06 -47,-292.06"
         style="fill:#f9b2dc;fill-opacity:1;fill-rule:nonzero;stroke:none;stroke-width:1.85230255"
         id="path666"
         inkscape:connector-curvature="0" />
    </g>
    <g
       id="g668"
       transform="matrix(0.03069041,-0.00519732,-0.00537235,-0.03276144,-299.34655,360.87248)"
       style="stroke-width:1.85230255">
      <path
         d="m 16091.2,3812.96 c -9.4,-21.75 -31,-191.25 -26.4,-233.43 3.3,-30.75 137.9,-53.03 160.5,3.96 30.7,77.5 62.6,208.97 73.8,262.88 0.9,27.19 -187.3,20.74 -207.9,-33.41"
         style="fill:#111213;fill-opacity:1;fill-rule:nonzero;stroke:none;stroke-width:1.85230255"
         id="path670"
         inkscape:connector-curvature="0" />
    </g>
    <g
       id="g672"
       transform="matrix(0.03057715,-0.00517813,-0.00535252,-0.03264051,-299.34655,360.87248)"
       style="stroke-width:1.85230255">
      <path
         d="m 16200.8,3862.04 c -33.3,-134.39 -112.3,-390.93 -149.4,-533.58 103.9,146.52 196.9,255.04 248.6,547.85 -7.9,21.89 -85.9,12.49 -99.2,-14.27"
         style="fill:#8d9fd8;fill-opacity:1;fill-rule:nonzero;stroke:none;stroke-width:1.85230255"
         id="path674"
         inkscape:connector-curvature="0" />
    </g>
    <g
       id="g676"
       transform="matrix(0.0341897,-0.0057899,-0.0059849,-0.03649686,-299.34655,360.87248)"
       style="stroke-width:1.85230255">
      <path
         d="m 16111.4,4456.94 c -160.3,-583.35 -682.8,-910.8 -1258,-818.26 -575.1,92.48 -983.7,569.74 -953.2,1174.04 32,634.9 662.3,1115.41 1264.6,761.43 575.8,158.55 1135.2,-430.3 946.6,-1117.21"
         style="fill:#c86633;fill-opacity:1;fill-rule:nonzero;stroke:none;stroke-width:1.85230255"
         id="path678"
         inkscape:connector-curvature="0" />
    </g>
    <g
       id="g680"
       transform="matrix(0.03340801,-0.00565753,-0.00584807,-0.03566242,-299.34655,360.87248)"
       style="stroke-width:1.85230255">
      <path
         d="m 14404.6,4567.99 c -75.9,-521.81 280.7,-928.48 783.2,-1001.63 502.5,-73.15 960.3,214.93 1036.2,736.82 76,521.78 -272.4,985.27 -774.9,1058.42 -502.4,73.17 -968.5,-271.83 -1044.5,-793.61"
         style="fill:#fabd99;fill-opacity:1;fill-rule:nonzero;stroke:none;stroke-width:1.85230255"
         id="path682"
         inkscape:connector-curvature="0" />
    </g>
    <g
       id="g684"
       transform="matrix(0.03340801,-0.00565753,-0.00584807,-0.03566242,-299.34655,360.87248)"
       style="stroke-width:1.85230255">
      <path
         d="m 14404.6,4567.99 c -75.9,-521.81 280.7,-928.48 783.2,-1001.63 502.5,-73.15 960.3,214.93 1036.2,736.82 76,521.78 -272.4,985.27 -774.9,1058.42 -502.4,73.17 -968.5,-271.83 -1044.5,-793.61"
         style="fill:#fabd99;fill-opacity:1;fill-rule:nonzero;stroke:none;stroke-width:1.85230255"
         id="path686"
         inkscape:connector-curvature="0" />
    </g>
    <g
       id="g688"
       transform="matrix(0.02960308,-0.00501318,-0.00518201,-0.03160072,-299.34655,360.87248)"
       style="stroke-width:1.85230255">
      <path
         d="m 16296.4,5144.71 c 0,0 3.6,121.62 -137.7,163.45 -149,44.01 -244.1,-145.07 -183.1,-278.28 61,-133.01 229.9,-164.39 298.7,-80.3 l 22.1,195.13"
         style="fill:#fabd99;fill-opacity:1;fill-rule:nonzero;stroke:none;stroke-width:1.85230255"
         id="path690"
         inkscape:connector-curvature="0" />
    </g>
    <g
       id="g692"
       transform="matrix(0.02954836,-0.00500391,-0.00517243,-0.03154231,-299.34655,360.87248)"
       style="stroke-width:1.85230255">
      <path
         d="m 16149.8,5271.05 c 102.1,-0.6 150.2,-189.24 -0.4,-255.16 79.2,112.58 35.1,164.24 -46.7,118.52 8.1,39.99 37.5,60.77 96.3,45.47 5.1,53.91 -49.2,91.17 -49.2,91.17"
         style="fill:#d37658;fill-opacity:1;fill-rule:nonzero;stroke:none;stroke-width:1.85230255"
         id="path694"
         inkscape:connector-curvature="0" />
    </g>
    <g
       id="g696"
       transform="matrix(0.0338624,-0.00573448,-0.00592761,-0.03614748,-299.34655,360.87248)"
       style="stroke-width:1.85230255">
      <path
         d="m 15975.5,4245.55 c 0,0 27.3,102.82 156.1,102.63 135.9,-0.28 168.4,-182.42 84.1,-278.81 -84.3,-96.27 -233.6,-80.43 -270.3,7.15 l 30.1,169.03"
         style="fill:#fabd99;fill-opacity:1;fill-rule:nonzero;stroke:none;stroke-width:1.85230255"
         id="path698"
         inkscape:connector-curvature="0" />
    </g>
    <g
       id="g700"
       transform="matrix(0.03357349,-0.00568556,-0.00587703,-0.03583906,-299.34655,360.87248)"
       style="stroke-width:1.85230255">
      <path
         d="m 16291.4,4336.28 c -86.3,25.12 -174.2,-122 -63.6,-215.37 -38.6,114.82 11.5,147.37 69.1,88.28 3.1,35.8 -16.4,60.66 -69.8,62.55 9.2,46.69 64.3,64.54 64.3,64.54"
         style="fill:#d37658;fill-opacity:1;fill-rule:nonzero;stroke:none;stroke-width:1.85230255"
         id="path702"
         inkscape:connector-curvature="0" />
    </g>
    <g
       id="g704"
       transform="matrix(0.03164156,-0.00535838,-0.00553885,-0.03377676,-299.34655,360.87248)"
       style="stroke-width:1.85230255">
      <path
         d="m 16083,4582.49 c 21.5,-23.56 49.4,40.91 107.1,26.67 58.9,-14.49 48.6,-84.6 82.4,-69.48 27.5,12.29 19.6,102.69 -77.7,123.42 -81.1,17.31 -132.4,-58.26 -111.8,-80.61"
         style="fill:#ee5b63;fill-opacity:1;fill-rule:nonzero;stroke:none;stroke-width:1.85230255"
         id="path706"
         inkscape:connector-curvature="0" />
    </g>
    <g
       id="g708"
       transform="matrix(0.03313273,-0.00561091,-0.00579988,-0.03536856,-299.34655,360.87248)"
       style="stroke-width:1.85230255">
      <path
         d="m 16300,4119.96 c -88.6,-218.58 -255,-377.89 -461.1,-463.45 -12,10.7 -23.1,22.55 -33.1,35.67 -97,126.61 -59,318.46 84.8,428.49 131.7,100.82 306.5,97.91 409.4,-0.71"
         style="fill:#f79883;fill-opacity:1;fill-rule:nonzero;stroke:none;stroke-width:1.85230255"
         id="path710"
         inkscape:connector-curvature="0" />
    </g>
    <g
       id="g712"
       transform="matrix(0.03053986,-0.00517182,-0.00534599,-0.03260073,-299.34655,360.87248)"
       style="stroke-width:1.85230255">
      <path
         d="m 15750.7,4752.32 c 132,72.16 311.7,31.61 423.9,-103.66 125.4,-151.16 119.1,-363.3 -14.1,-473.74 -23.6,-19.59 -49.7,-34.59 -77.2,-45.25 -186.1,152.78 -308.4,369.14 -332.6,622.65"
         style="fill:#f79883;fill-opacity:1;fill-rule:nonzero;stroke:none;stroke-width:1.85230255"
         id="path714"
         inkscape:connector-curvature="0" />
    </g>
    <g
       id="g716"
       transform="matrix(0.03287982,-0.00556809,-0.00575561,-0.03509857,-299.34655,360.87248)"
       style="stroke-width:1.85230255">
      <path
         d="m 15822.7,4504.22 c 25.4,-72.97 130.1,-170.36 240.7,-185.9 110.6,-15.54 170.7,47.89 229.4,119.95 7.2,43.77 -61.6,212.92 -172.2,228.44 -110.7,15.52 -234.5,-64.65 -297.9,-162.49"
         style="fill:#ffffff;fill-opacity:1;fill-rule:nonzero;stroke:none;stroke-width:1.85230255"
         id="path718"
         inkscape:connector-curvature="0" />
    </g>
    <g
       id="g720"
       transform="matrix(0.03267761,-0.00553384,-0.00572021,-0.03488273,-299.34655,360.87248)"
       style="stroke-width:1.85230255">
      <path
         d="m 16077.1,4594.33 c -44.8,-52.09 -41.3,-128.62 7.8,-170.98 49.2,-42.28 125.5,-34.38 170.3,17.7 44.8,52.16 41.2,128.65 -7.8,170.99 -49.3,42.3 -125.5,34.36 -170.3,-17.71"
         style="fill:#111213;fill-opacity:1;fill-rule:nonzero;stroke:none;stroke-width:1.85230255"
         id="path722"
         inkscape:connector-curvature="0" />
    </g>
    <g
       id="g724"
       transform="matrix(0.0326098,-0.00552235,-0.00570833,-0.03481034,-299.34655,360.87248)"
       style="stroke-width:1.85230255">
      <path
         d="m 16228.5,4552.65 c -6.5,-19.1 2.9,-39.44 20.9,-45.5 17.9,-6.04 37.7,4.38 44.2,23.45 6.4,19.01 -2.9,39.36 -20.8,45.58 -18,5.93 -37.9,-4.51 -44.3,-23.53"
         style="fill:#ffffff;fill-opacity:1;fill-rule:nonzero;stroke:none;stroke-width:1.85230255"
         id="path726"
         inkscape:connector-curvature="0" />
    </g>
    <g
       id="g728"
       transform="matrix(0.03230724,-0.00547112,-0.00565537,-0.03448735,-299.34655,360.87248)"
       style="stroke-width:1.85230255">
      <path
         d="m 16255.3,4548.49 c -4.1,-11.94 1.9,-24.63 13.1,-28.53 11.2,-3.81 23.7,2.77 27.7,14.75 3.9,11.91 -1.8,24.63 -13.1,28.46 -11.2,3.8 -23.6,-2.77 -27.7,-14.68"
         style="fill:#ffffff;fill-opacity:1;fill-rule:nonzero;stroke:none;stroke-width:1.85230255"
         id="path730"
         inkscape:connector-curvature="0" />
    </g>
    <g
       id="g732"
       transform="matrix(0.03286526,-0.00556562,-0.00575306,-0.03508305,-299.34655,360.87248)"
       style="stroke-width:1.85230255">
      <path
         d="m 16300,4440.24 c 0,0 -51.7,261.96 -329.9,194.84 321.7,177.34 329.9,-194.84 329.9,-194.84"
         style="fill:#6d3a2c;fill-opacity:1;fill-rule:nonzero;stroke:none;stroke-width:1.85230255"
         id="path734"
         inkscape:connector-curvature="0" />
    </g>
    <g
       id="g736"
       transform="matrix(0.03096715,-0.00524418,-0.0054208,-0.03305685,-299.34655,360.87248)"
       style="stroke-width:1.85230255">
      <path
         d="m 16300,4856.45 c -48.4,-66.23 -184.8,-132.72 -302,-114.21 -117.2,18.51 -158.6,101.52 -195.8,192.86 6.2,46.7 128.5,197.15 245.7,178.64 117.2,-18.51 218,-138.28 252.1,-257.29"
         style="fill:#ffffff;fill-opacity:1;fill-rule:nonzero;stroke:none;stroke-width:1.85230255"
         id="path738"
         inkscape:connector-curvature="0" />
    </g>
    <g
       id="g740"
       transform="matrix(0.03075915,-0.00520895,-0.00538437,-0.03283481,-299.34655,360.87248)"
       style="stroke-width:1.85230255">
      <path
         d="m 16270.6,5001 c 29.4,-66.81 2.1,-143.49 -61,-171.28 -63.1,-27.73 -138.1,3.91 -167.5,70.74 -29.3,66.9 -2,143.51 61,171.31 63.1,27.72 138.1,-3.97 167.5,-70.77"
         style="fill:#111213;fill-opacity:1;fill-rule:nonzero;stroke:none;stroke-width:1.85230255"
         id="path742"
         inkscape:connector-curvature="0" />
    </g>
    <g
       id="g744"
       transform="matrix(0.03044948,-0.00515651,-0.00533017,-0.03250426,-299.34655,360.87248)"
       style="stroke-width:1.85230255">
      <path
         d="m 16299.3,5036.26 c 0.7,-21.59 -15.3,-39.48 -35.6,-40.09 -20.2,-0.58 -37.3,16.27 -38,37.84 -0.6,21.48 15.2,39.42 35.5,40.21 20.3,0.44 37.5,-16.47 38.1,-37.96"
         style="fill:#ffffff;fill-opacity:1;fill-rule:nonzero;stroke:none;stroke-width:1.85230255"
         id="path746"
         inkscape:connector-curvature="0" />
    </g>
    <g
       id="g748"
       transform="matrix(0.03065895,-0.00519199,-0.00536685,-0.03272787,-299.34655,360.87248)"
       style="stroke-width:1.85230255">
      <path
         d="m 16299.6,4916.22 c 0.4,-13.3 -9.4,-24.26 -22,-24.72 -12.5,-0.39 -23,10.07 -23.4,23.38 -0.2,13.18 9.4,24.26 22,24.64 12.5,0.39 23,-10.06 23.4,-23.3"
         style="fill:#ffffff;fill-opacity:1;fill-rule:nonzero;stroke:none;stroke-width:1.85230255"
         id="path750"
         inkscape:connector-curvature="0" />
    </g>
    <g
       id="g752"
       transform="matrix(0.03077243,-0.0052112,-0.00538671,-0.03284898,-299.34655,360.87248)"
       style="stroke-width:1.85230255">
      <path
         d="m 15902.2,4966.34 c 0,0 134.4,251.49 397.8,96.22 -273.3,281.38 -397.8,-96.22 -397.8,-96.22"
         style="fill:#6d3a2c;fill-opacity:1;fill-rule:nonzero;stroke:none;stroke-width:1.85230255"
         id="path754"
         inkscape:connector-curvature="0" />
    </g>
    <g
       id="g756"
       transform="matrix(0.03279816,-0.00555425,-0.00574131,-0.03501142,-299.34655,360.87248)"
       style="stroke-width:1.85230255">
      <path
         d="m 16223.6,4818.09 c -86.1,50.66 -132.3,-46.5 -70.7,-62.93 66.2,-17.47 115.2,-56.13 125.1,-51.93 22,9.27 -5.9,86.42 -54.4,114.86"
         style="fill:#b26942;fill-opacity:1;fill-rule:nonzero;stroke:none;stroke-width:1.85230255"
         id="path758"
         inkscape:connector-curvature="0" />
    </g>
    <g
       id="g760"
       transform="matrix(0.03061732,-0.00518493,-0.00535956,-0.03268342,-299.34655,360.87248)"
       style="stroke-width:1.85230255">
      <path
         d="m 16191.2,5334.11 c 106.4,11.61 108.8,-103.59 41.3,-92.54 -72.2,12.05 -137.1,-4.18 -145,4.3 -17.3,18.72 43.8,81.78 103.7,88.24"
         style="fill:#b26942;fill-opacity:1;fill-rule:nonzero;stroke:none;stroke-width:1.85230255"
         id="path762"
         inkscape:connector-curvature="0" />
    </g>
    <g
       id="g764"
       transform="matrix(0.03208705,-0.00543383,-0.00561683,-0.03425231,-299.34655,360.87248)"
       style="stroke-width:1.85230255">
      <path
         d="m 15502.2,4299.22 c 25,89.25 233.1,91.86 417.1,62.33 183.8,-29.58 380.7,-97.24 376.4,-189.83 -4.3,-92.6 -187.2,-281.53 -445.5,-240.05 -258.4,41.54 -372.9,278.3 -348,367.55"
         style="fill:#4e1a1e;fill-opacity:1;fill-rule:nonzero;stroke:none;stroke-width:1.85230255"
         id="path766"
         inkscape:connector-curvature="0" />
    </g>
    <g
       id="g768"
       transform="matrix(0.03186048,-0.00539546,-0.00557717,-0.03401046,-299.34655,360.87248)"
       style="stroke-width:1.85230255">
      <path
         d="m 16300,4042.04 c -79.8,-60.38 -197.5,-104.83 -337.1,-82.41 -139.6,22.43 -237.5,101.53 -294.4,183.88 83.9,19.58 208.2,13.59 323.2,-4.85 114.9,-18.49 234.9,-51.76 308.3,-96.62"
         style="fill:#ee5b63;fill-opacity:1;fill-rule:nonzero;stroke:none;stroke-width:1.85230255"
         id="path770"
         inkscape:connector-curvature="0" />
    </g>
    <g
       id="g772"
       transform="matrix(0.03191249,-0.00540427,-0.00558627,-0.03406597,-299.34655,360.87248)"
       style="stroke-width:1.85230255">
      <path
         d="m 15699.7,4393.56 c 83.1,15.44 199,9.12 306.6,-8.15 107.7,-17.32 219.7,-47.63 293.7,-88.31 -79,-53.67 -189.6,-90.43 -319.1,-69.63 -129.4,20.8 -223,90.42 -281.2,166.09"
         style="fill:#fffafa;fill-opacity:1;fill-rule:nonzero;stroke:none;stroke-width:1.85230255"
         id="path774"
         inkscape:connector-curvature="0" />
    </g>
    <g
       id="g776"
       transform="matrix(0.03263507,-0.00552663,-0.00571277,-0.03483731,-299.34655,360.87248)"
       style="stroke-width:1.85230255">
      <path
         d="m 16238.8,4147.35 c 5,-15.49 21.8,-23.96 37.2,-18.95 15.5,5.07 24,21.73 19,37.28 -5.1,15.49 -21.7,23.95 -37.3,18.89 -15.5,-5.02 -23.9,-21.73 -18.9,-37.22"
         style="fill:#ee5b63;fill-opacity:1;fill-rule:nonzero;stroke:none;stroke-width:1.85230255"
         id="path778"
         inkscape:connector-curvature="0" />
    </g>
    <g
       id="g780"
       transform="matrix(0.03243723,-0.00549313,-0.00567813,-0.03462614,-299.34655,360.87248)"
       style="stroke-width:1.85230255">
      <path
         d="m 16238.4,4108.97 c 5.1,-15.58 21.9,-24.1 37.4,-19.06 15.6,5.1 24.2,21.86 19.1,37.5 -5.1,15.58 -21.9,24.11 -37.4,19 -15.7,-5.04 -24.2,-21.86 -19.1,-37.44"
         style="fill:#ee5b63;fill-opacity:1;fill-rule:nonzero;stroke:none;stroke-width:1.85230255"
         id="path782"
         inkscape:connector-curvature="0" />
    </g>
    <g
       id="g784"
       transform="matrix(0.03262944,-0.00552569,-0.00571177,-0.0348313,-299.34655,360.87248)"
       style="stroke-width:1.85230255">
      <path
         d="m 16238.8,4050.49 c 5,-15.49 21.7,-23.96 37.2,-18.89 15.5,5.02 24,21.68 18.9,37.23 -5,15.49 -21.7,23.96 -37.2,18.89 -15.5,-5.02 -24,-21.68 -18.9,-37.23"
         style="fill:#ee5b63;fill-opacity:1;fill-rule:nonzero;stroke:none;stroke-width:1.85230255"
         id="path786"
         inkscape:connector-curvature="0" />
    </g>
    <g
       id="g788"
       transform="matrix(0.03018804,-0.00511224,-0.00528441,-0.03222515,-299.34655,360.87248)"
       style="stroke-width:1.85230255">
      <path
         d="m 16243.4,4667.02 c 13.4,-11.56 33.5,-10.06 45.1,3.25 11.5,13.37 10.1,33.49 -3.3,45.06 -13.3,11.5 -33.5,10.06 -45,-3.31 -11.6,-13.32 -10.1,-33.49 3.2,-45"
         style="fill:#ee5b63;fill-opacity:1;fill-rule:nonzero;stroke:none;stroke-width:1.85230255"
         id="path790"
         inkscape:connector-curvature="0" />
    </g>
    <g
       id="g792"
       transform="matrix(0.03008839,-0.00509536,-0.00526696,-0.03211878,-299.34655,360.87248)"
       style="stroke-width:1.85230255">
      <path
         d="m 16243.3,4575.37 c 13.4,-11.54 33.6,-10.09 45.2,3.27 11.5,13.41 10.1,33.65 -3.3,45.2 -13.4,11.54 -33.6,10.09 -45.2,-3.27 -11.6,-13.41 -10.1,-33.6 3.3,-45.2"
         style="fill:#ee5b63;fill-opacity:1;fill-rule:nonzero;stroke:none;stroke-width:1.85230255"
         id="path794"
         inkscape:connector-curvature="0" />
    </g>
    <g
       id="g796"
       transform="matrix(0.03029895,-0.00513102,-0.00530383,-0.03234354,-299.34655,360.87248)"
       style="stroke-width:1.85230255">
      <path
         d="m 16243.7,4556.25 c 13.3,-11.47 33.4,-10.02 44.8,3.24 11.5,13.32 10.1,33.36 -3.2,44.89 -13.3,11.46 -33.4,10.02 -44.9,-3.24 -11.5,-13.33 -10,-33.43 3.3,-44.89"
         style="fill:#ee5b63;fill-opacity:1;fill-rule:nonzero;stroke:none;stroke-width:1.85230255"
         id="path798"
         inkscape:connector-curvature="0" />
    </g>
    <g
       id="g800"
       transform="matrix(0.03381569,-0.00572657,-0.00591942,-0.03609759,-299.34655,360.87248)"
       style="stroke-width:1.85230255">
      <path
         d="m 15283.2,5203.1 c 0,0 387.8,-676.79 755.4,-888.88 261.4,693.66 -369.9,1057.04 -740.4,1116.58 -370.4,59.52 -1023.7,-136.62 -1054.4,-837.18 249.6,-40.11 1039.4,609.48 1039.4,609.48"
         style="fill:#c86633;fill-opacity:1;fill-rule:nonzero;stroke:none;stroke-width:1.85230255"
         id="path802"
         inkscape:connector-curvature="0" />
    </g>
    <g
       id="g804"
       transform="matrix(0.03321201,-0.00562434,-0.00581376,-0.0354532,-299.34655,360.87248)"
       style="stroke-width:1.85230255">
      <path
         d="m 15595.2,5463.83 c 0,0 221.7,-492.63 704.8,-642.7 -267.9,171.22 -704.8,642.7 -704.8,642.7"
         style="fill:#a04223;fill-opacity:1;fill-rule:nonzero;stroke:none;stroke-width:1.85230255"
         id="path806"
         inkscape:connector-curvature="0" />
    </g>
    <g
       id="g808"
       transform="matrix(0.0358536,-0.0058639,-0.00627616,-0.03696333,-323.59378,365.38294)"
       style="stroke-width:1.75534093">
      <path
         d="m 15636.5,5519.94 c 0,0 339.3,-337.24 663.5,-389.35 -307.9,188.08 -663.5,389.35 -663.5,389.35"
         style="fill:#a04223;fill-opacity:1;fill-rule:nonzero;stroke:none;stroke-width:1.75534093"
         id="path810"
         inkscape:connector-curvature="0" />
    </g>
    <g
       id="g812"
       transform="matrix(0.03169212,-0.00536695,-0.0055477,-0.03383072,-299.34655,360.87248)"
       style="stroke-width:1.85230255">
      <path
         d="m 16300,5732.79 c 0,0 -382.5,-417.45 -912.5,-408.2 322.9,82.45 912.5,408.2 912.5,408.2"
         style="fill:#a04223;fill-opacity:1;fill-rule:nonzero;stroke:none;stroke-width:1.85230255"
         id="path814"
         inkscape:connector-curvature="0" />
    </g>
    <g
       id="g816"
       transform="matrix(0.03150465,-0.0053352,-0.00551488,-0.03363061,-299.34655,360.87248)"
       style="stroke-width:1.85230255">
      <path
         d="m 16300,5894.12 c 0,0 -453.6,-226.74 -797.2,-171.51 372.4,87.04 797.2,171.51 797.2,171.51"
         style="fill:#a04223;fill-opacity:1;fill-rule:nonzero;stroke:none;stroke-width:1.85230255"
         id="path818"
         inkscape:connector-curvature="0" />
    </g>
    <g
       id="g1876"
       transform="matrix(0.02966837,-0.00502423,-0.00519344,-0.03167041,-299.34655,360.87248)"
       style="stroke-width:1.85230255">
      <path
         d="m 15714.4,1038.38 c -214.9,150.77 -362.4,-26.47 -129.7,-88.374 -197.3,-86.66 53.4,-221.182 210.6,-92.114 15,-202.431 419.1,-152.235 239.8,6.804 264.9,-21.882 174.1,180.244 -82.8,130.11 64.5,143.164 -276.1,192.444 -237.9,43.574"
         style="fill:#ffffff;fill-opacity:1;fill-rule:nonzero;stroke:none;stroke-width:1.85230255"
         id="path1878"
         inkscape:connector-curvature="0" />
    </g>
    <g
       id="g1880"
       transform="matrix(0.02899068,-0.00490947,-0.00507481,-0.03094702,-299.34655,360.87248)"
       style="stroke-width:1.85230255">
      <path
         d="m 16293.6,950.825 c -6.4,-29.603 -57.1,-43.84 -113.2,-31.735 -56.2,12.042 -96.5,45.911 -90.1,75.577 6.4,29.663 57,43.843 113.2,31.803 56.1,-12.11 96.5,-45.978 90.1,-75.645"
         style="fill:#fbc508;fill-opacity:1;fill-rule:nonzero;stroke:none;stroke-width:1.85230255"
         id="path1882"
         inkscape:connector-curvature="0" />
    </g>
    <g
       id="g1916"
       transform="matrix(0.03245179,-0.00549559,-0.00568068,-0.03464167,-299.34655,360.87248)"
       style="stroke-width:1.85230255">
      <path
         d="m 15870.2,794.227 c -153.5,124.667 -273.8,-0.784 -102.1,-59.561 -152.8,-54.741 28.4,-169.042 153.4,-80.346 0.6,-152.962 306.9,-136.488 180.6,-7.509 197.9,-30.423 140.4,126.236 -55.4,102.145 56,104.159 -197.4,159.18 -176.5,45.271"
         style="fill:#ee2d21;fill-opacity:1;fill-rule:nonzero;stroke:none;stroke-width:1.85230255"
         id="path1918"
         inkscape:connector-curvature="0" />
    </g>
    <g
       id="g1920"
       transform="matrix(0.03190703,-0.00540334,-0.00558532,-0.03406016,-299.34655,360.87248)"
       style="stroke-width:1.85230255">
      <path
         d="m 16293.6,713.193 c -6.3,-21.827 -44.9,-29.803 -86.2,-17.78 -41.3,11.967 -69.6,39.321 -63.3,61.148 6.3,21.826 44.9,29.804 86.2,17.837 41.3,-12.025 69.7,-39.379 63.3,-61.205"
         style="fill:#fbc508;fill-opacity:1;fill-rule:nonzero;stroke:none;stroke-width:1.85230255"
         id="path1922"
         inkscape:connector-curvature="0" />
    </g>
  </g>
  <g
     inkscape:groupmode="layer"
     id="layer2"
     inkscape:label="Layer 3" />
  <g
     inkscape:label="Layer 1"
     inkscape:groupmode="layer"
     id="layer1"
     transform="translate(0,-32.41665)">
    <text
       xml:space="preserve"
       style="font-style:normal;font-variant:normal;font-weight:bold;font-stretch:normal;font-size:10.58333302px;line-height:1.25;font-family:sans-serif;-inkscape-font-specification:'sans-serif Bold';letter-spacing:0px;word-spacing:0px;fill:#000000;fill-opacity:1;stroke:none;stroke-width:0.26458332"
       x="150.05655"
       y="89.869026"
       id="text8811" />
    <text
       xml:space="preserve"
       style="font-style:normal;font-variant:normal;font-weight:bold;font-stretch:normal;font-size:10.58333302px;line-height:1.25;font-family:sans-serif;-inkscape-font-specification:'sans-serif Bold';letter-spacing:0px;word-spacing:0px;fill:#000000;fill-opacity:1;stroke:none;stroke-width:0.26458332"
       x="160.63989"
       y="97.806526"
       id="text8815" />
    <text
       xml:space="preserve"
       style="font-style:normal;font-variant:normal;font-weight:bold;font-stretch:normal;font-size:10.58333302px;line-height:1.25;font-family:sans-serif;-inkscape-font-specification:'sans-serif Bold';letter-spacing:0px;word-spacing:0px;fill:#000000;fill-opacity:1;stroke:none;stroke-width:0.26458332"
       x="156.86011"
       y="88.7351"
       id="text8819" />
    <flowRoot
       xml:space="preserve"
       id="flowRoot8821"
       style="font-style:normal;font-variant:normal;font-weight:bold;font-stretch:normal;font-size:40px;line-height:1.25;font-family:sans-serif;-inkscape-font-specification:'sans-serif Bold';letter-spacing:0px;word-spacing:0px;fill:#000000;fill-opacity:1;stroke:none"><flowRegion
         id="flowRegion8823"
         style="font-style:normal;font-variant:normal;font-weight:bold;font-stretch:normal;font-family:sans-serif;-inkscape-font-specification:'sans-serif Bold'" /><flowPara
         id="flowPara8827" /></flowRoot>    <flowRoot
       xml:space="preserve"
       id="flowRoot8829"
       style="font-style:normal;font-variant:normal;font-weight:bold;font-stretch:normal;font-size:40px;line-height:1.25;font-family:sans-serif;-inkscape-font-specification:'sans-serif Bold';letter-spacing:0px;word-spacing:0px;fill:#000000;fill-opacity:1;stroke:none"><flowRegion
         id="flowRegion8831"
         style="font-style:normal;font-variant:normal;font-weight:bold;font-stretch:normal;font-family:sans-serif;-inkscape-font-specification:'sans-serif Bold'" /><flowPara
         id="flowPara8835" /></flowRoot>    <flowRoot
       xml:space="preserve"
       id="flowRoot8837"
       style="font-style:normal;font-variant:normal;font-weight:bold;font-stretch:normal;font-size:40px;line-height:1.25;font-family:sans-serif;-inkscape-font-specification:'sans-serif Bold';letter-spacing:0px;word-spacing:0px;fill:#000000;fill-opacity:1;stroke:none"><flowRegion
         id="flowRegion8839"
         style="font-style:normal;font-variant:normal;font-weight:bold;font-stretch:normal;font-family:sans-serif;-inkscape-font-specification:'sans-serif Bold'" /><flowPara
         id="flowPara8843" /></flowRoot>    <text
       xml:space="preserve"
       style="font-style:normal;font-variant:normal;font-weight:bold;font-stretch:normal;font-size:10.58333302px;line-height:1.25;font-family:sans-serif;-inkscape-font-specification:'sans-serif Bold';letter-spacing:0px;word-spacing:0px;fill:#000000;fill-opacity:1;stroke:none;stroke-width:0.26458332"
       x="209.39882"
       y="107.25594"
       id="text8847" />
    <flowRoot
       xml:space="preserve"
       id="flowRoot8849"
       style="font-style:normal;font-variant:normal;font-weight:bold;font-stretch:normal;font-size:40px;line-height:1.25;font-family:sans-serif;-inkscape-font-specification:'sans-serif Bold';letter-spacing:0px;word-spacing:0px;fill:#000000;fill-opacity:1;stroke:none"><flowRegion
         id="flowRegion8851"
         style="font-style:normal;font-variant:normal;font-weight:bold;font-stretch:normal;font-family:sans-serif;-inkscape-font-specification:'sans-serif Bold'" /><flowPara
         id="flowPara8855" /></flowRoot>    <flowRoot
       xml:space="preserve"
       id="flowRoot8857"
       style="font-style:normal;font-variant:normal;font-weight:bold;font-stretch:normal;font-size:40px;line-height:1.25;font-family:sans-serif;-inkscape-font-specification:'sans-serif Bold';letter-spacing:0px;word-spacing:0px;fill:#000000;fill-opacity:1;stroke:none"><flowRegion
         id="flowRegion8859"
         style="font-style:normal;font-variant:normal;font-weight:bold;font-stretch:normal;font-family:sans-serif;-inkscape-font-specification:'sans-serif Bold'" /><flowPara
         id="flowPara8863" /></flowRoot>    <flowRoot
       xml:space="preserve"
       id="flowRoot8865"
       style="font-style:normal;font-variant:normal;font-weight:bold;font-stretch:normal;font-size:40px;line-height:1.25;font-family:sans-serif;-inkscape-font-specification:'sans-serif Bold';letter-spacing:0px;word-spacing:0px;fill:#000000;fill-opacity:1;stroke:none"><flowRegion
         id="flowRegion8867"
         style="font-style:normal;font-variant:normal;font-weight:bold;font-stretch:normal;font-family:sans-serif;-inkscape-font-specification:'sans-serif Bold'" /><flowPara
         id="flowPara8871" /></flowRoot>    <flowRoot
       xml:space="preserve"
       id="flowRoot8873"
       style="font-style:normal;font-variant:normal;font-weight:bold;font-stretch:normal;font-size:40px;line-height:1.25;font-family:sans-serif;-inkscape-font-specification:'sans-serif Bold';letter-spacing:0px;word-spacing:0px;fill:#000000;fill-opacity:1;stroke:none"><flowRegion
         id="flowRegion8875"
         style="font-style:normal;font-variant:normal;font-weight:bold;font-stretch:normal;font-family:sans-serif;-inkscape-font-specification:'sans-serif Bold'" /><flowPara
         id="flowPara8879" /></flowRoot>    <text
       xml:space="preserve"
       style="font-style:normal;font-weight:normal;font-size:10.58333302px;line-height:1.25;font-family:sans-serif;letter-spacing:0px;word-spacing:0px;fill:#000000;fill-opacity:1;stroke:none;stroke-width:0.26458332"
       x="101.02788"
       y="69.125984"
       id="text977"><tspan
         sodipodi:role="line"
         id="tspan975"
         x="101.02788"
         y="78.489754"
         style="stroke-width:0.26458332" /><tspan
         sodipodi:role="line"
         x="101.02788"
         y="91.718918"
         style="stroke-width:0.26458332"
         id="tspan979" /><tspan
         sodipodi:role="line"
         x="101.02788"
         y="104.94809"
         style="stroke-width:0.26458332"
         id="tspan981" /><tspan
         sodipodi:role="line"
         x="101.02788"
         y="118.17725"
         style="stroke-width:0.26458332"
         id="tspan983" /><tspan
         sodipodi:role="line"
         x="101.02788"
         y="131.40642"
         style="stroke-width:0.26458332"
         id="tspan985" /><tspan
         sodipodi:role="line"
         x="101.02788"
         y="144.63559"
         style="stroke-width:0.26458332"
         id="tspan987" /><tspan
         sodipodi:role="line"
         x="101.02788"
         y="157.86475"
         style="stroke-width:0.26458332"
         id="tspan989" /><tspan
         sodipodi:role="line"
         x="101.02788"
         y="171.09392"
         style="stroke-width:0.26458332"
         id="tspan991" /><tspan
         sodipodi:role="line"
         x="101.02788"
         y="184.32309"
         style="stroke-width:0.26458332"
         id="tspan993" /><tspan
         sodipodi:role="line"
         x="101.02788"
         y="197.55225"
         style="stroke-width:0.26458332"
         id="tspan995" /><tspan
         sodipodi:role="line"
         x="101.02788"
         y="210.78142"
         style="stroke-width:0.26458332"
         id="tspan997" /><tspan
         sodipodi:role="line"
         x="101.02788"
         y="224.01059"
         style="stroke-width:0.26458332"
         id="tspan999" /><tspan
         sodipodi:role="line"
         x="101.02788"
         y="237.23975"
         style="stroke-width:0.26458332"
         id="tspan1001" /><tspan
         sodipodi:role="line"
         x="101.02788"
         y="250.46892"
         style="stroke-width:0.26458332"
         id="tspan1003" /><tspan
         sodipodi:role="line"
         x="101.02788"
         y="263.69809"
         style="stroke-width:0.26458332"
         id="tspan1005" /><tspan
         sodipodi:role="line"
         x="101.02788"
         y="276.92725"
         style="stroke-width:0.26458332"
         id="tspan1007" /><tspan
         sodipodi:role="line"
         x="101.02788"
         y="290.1564"
         style="stroke-width:0.26458332"
         id="tspan1009" /><tspan
         sodipodi:role="line"
         x="101.02788"
         y="303.38559"
         style="stroke-width:0.26458332"
         id="tspan1011" /><tspan
         sodipodi:role="line"
         x="101.02788"
         y="316.61475"
         style="stroke-width:0.26458332"
         id="tspan1013" /><tspan
         sodipodi:role="line"
         x="101.02788"
         y="329.8439"
         style="stroke-width:0.26458332"
         id="tspan1015" /><tspan
         sodipodi:role="line"
         x="101.02788"
         y="343.07309"
         style="stroke-width:0.26458332"
         id="tspan1017" /><tspan
         sodipodi:role="line"
         x="101.02788"
         y="356.30225"
         style="stroke-width:0.26458332"
         id="tspan1019" /><tspan
         sodipodi:role="line"
         x="101.02788"
         y="369.5314"
         style="stroke-width:0.26458332"
         id="tspan1021" /><tspan
         sodipodi:role="line"
         x="101.02788"
         y="382.76059"
         style="stroke-width:0.26458332"
         id="tspan1023" /></text>
    <text
       xml:space="preserve"
       style="font-style:normal;font-weight:normal;font-size:10.58333302px;line-height:1.25;font-family:sans-serif;letter-spacing:0px;word-spacing:0px;fill:#000000;fill-opacity:1;stroke:none;stroke-width:0.26458332"
       x="77.080528"
       y="66.506737"
       id="text8703"><tspan
         sodipodi:role="line"
         id="tspan8701"
         x="77.080528"
         y="75.870506"
         style="font-style:normal;font-variant:normal;font-weight:bold;font-stretch:normal;font-size:12.69999981px;font-family:sans-serif;-inkscape-font-specification:'sans-serif Bold';stroke-width:0.26458332" /></text>
  </g>
</svg>
