<?xml version="1.0" encoding="UTF-8" standalone="no"?>
<svg
   id="Layer_2"
   data-name="Layer 2"
   viewBox="0 0 1000 1000"
   version="1.1"
   sodipodi:docname="2 policemen.svg"
   inkscape:version="1.2 (1:1.2.1+202207142221+cd75a1ee6d)"
   xmlns:inkscape="http://www.inkscape.org/namespaces/inkscape"
   xmlns:sodipodi="http://sodipodi.sourceforge.net/DTD/sodipodi-0.dtd"
   xmlns="http://www.w3.org/2000/svg"
   xmlns:svg="http://www.w3.org/2000/svg">
  <sodipodi:namedview
     id="namedview6367"
     pagecolor="#ffffff"
     bordercolor="#000000"
     borderopacity="0.25"
     inkscape:showpageshadow="2"
     inkscape:pageopacity="0.0"
     inkscape:pagecheckerboard="0"
     inkscape:deskcolor="#d1d1d1"
     showgrid="false"
     inkscape:zoom="0.877"
     inkscape:cx="499.42987"
     inkscape:cy="509.69213"
     inkscape:window-width="1920"
     inkscape:window-height="1031"
     inkscape:window-x="0"
     inkscape:window-y="25"
     inkscape:window-maximized="1"
     inkscape:current-layer="Layer_2" />
  <defs
     id="defs6270">
    <style
       id="style6268">.cls-1{fill:#fed1a5;stroke:#d6a47c;}.cls-1,.cls-10,.cls-15,.cls-16,.cls-18,.cls-2,.cls-3,.cls-5{stroke-miterlimit:10;}.cls-1,.cls-10,.cls-15,.cls-16,.cls-18,.cls-2,.cls-3{stroke-width:3px;}.cls-2{fill:#77a2cf;stroke:#386084;}.cls-3{fill:#335d83;stroke:#2a5472;}.cls-4{fill:#628fb7;}.cls-5{fill:#fcbf26;stroke:#d39816;stroke-width:2px;}.cls-6{fill:#e3af1b;}.cls-7{fill:#de95a0;}.cls-8{fill:#706664;}.cls-9{fill:#eabf98;}.cls-10{fill:#6f5753;stroke:#604946;}.cls-11{fill:#7a635f;}.cls-12{fill:#d88494;}.cls-13{fill:#231f20;}.cls-14{fill:#fff;}.cls-15{fill:#3b6693;}.cls-15,.cls-18{stroke:#275782;}.cls-16{fill:#212121;stroke:#040404;}.cls-17{fill:#363636;}.cls-18{fill:#4478aa;}</style>
  </defs>
  <title
     id="title6272">policeman</title>
  <path
     class="cls-1"
     d="m 292.16235,521.20253 c 0,0 -0.0594,20.56179 -0.32172,25.51551 -0.26926,5.1562 1.98626,38.93691 1.97927,40.54316 0,3.17651 -0.88822,3.32498 -1.00013,7.19888 -0.1119,3.87389 0,9.18306 4.58799,13.04796 4.58799,3.86489 13.92832,4.26533 16.98115,0.73338 3.05283,-3.53194 0.41264,-9.09307 0.41264,-9.09307 0,0 1.39877,2.09217 2.38841,1.2553 0.98963,-0.83687 -0.14687,-8.15723 -4.87474,-11.01428 v -6.07405 l -1.58761,-34.25314 3.49694,-55.0309 -22.2895,-1.87621 z"
     id="path6274" />
  <path
     class="cls-1"
     d="m 454.03226,520.7976 c 0,0 0.4581,20.54378 0.81479,25.49301 0.37417,5.14719 -1.24491,39.0044 -1.20644,40.61065 0.0769,3.1765 0.96165,3.29349 1.14699,7.15388 0.18534,3.8604 0.17485,9.18307 -4.36768,13.22793 -4.54252,4.04487 -13.9423,4.76476 -17.08605,1.34979 -3.14375,-3.41496 -0.58749,-9.07508 -0.58749,-9.07508 0,0 -1.39877,2.14617 -2.38142,1.34979 -0.98264,-0.79638 0,-8.16172 4.6964,-11.18525 l -0.1224,-6.07405 0.93019,-34.32064 -4.59848,-54.89141 22.43288,-2.68158 z"
     id="path6276" />
  <path
     class="cls-2"
     d="m 362.20958,405.55711 c -0.63994,0.82337 -6.71413,0 -6.71413,0 0,0 -27.18872,18.10967 -35.50444,20.98922 -8.31573,2.87955 -28.78682,15.22562 -31.02836,46.09529 l -2.23804,30.86518 c 0,0 13.11353,11.10876 32.62646,5.34966 v 101.64811 c 0,0 38.70065,3.70292 54.69566,2.47011 15.995,-1.2328 54.05571,-4.52629 54.05571,-4.52629 l 0.95817,-99.59193 c 0,0 19.51293,6.17304 31.98652,-3.29348 0,0 -1.97927,-26.00594 -6.09517,-46.7162 a 27.709763,35.652426 0 0 0 -11.69727,-20.98922 c -5.39928,-4.53529 -12.49807,-10.2179 -17.71201,-13.34491 -9.44174,-5.66911 -32.30474,-20.16585 -32.30474,-20.16585 z"
     id="path6278" />
  <path
     class="cls-3"
     d="m 346.11666,411.65366 c 0,0 0.41963,-4.04937 -1.4967,-3.62643 -1.91632,0.42293 -37.43825,21.39865 -39.02236,22.63146 -1.58412,1.23281 0.77632,2.98303 2.30448,2.92904 1.52816,-0.054 32.3537,-15.42359 38.21458,-21.93407 z"
     id="path6280" />
  <path
     class="cls-3"
     d="m 405.71153,412.14408 c 0,0 -0.9127,-4.76475 0.95816,-4.11685 1.87086,0.6479 35.36806,23.6393 36.86126,25.07008 1.49319,1.43077 -0.99313,2.87055 -2.50731,2.63209 -1.51417,-0.23847 -27.63633,-17.82622 -35.31211,-23.58532 z"
     id="path6282" />
  <path
     class="cls-4"
     d="m 391.95806,427.78364 c 0,0.40943 1.5981,5.7591 1.5981,5.7591 0,0 -6.3959,-4.52629 -8.95567,-6.99641 -2.55976,-2.47011 -3.84663,-4.52629 -6.71762,-5.7591 -2.87099,-1.23281 -7.67579,-2.88405 -9.27389,-1.64674 -1.5981,1.23731 -5.43774,4.52629 -6.71762,7.0189 -1.27988,2.49261 -3.1997,6.58247 -5.11952,7.40584 -1.91983,0.82338 -2.87799,0 -2.87799,0 v -13.99281 c 0,0 -1.27988,-2.05618 -2.55626,-0.82337 -1.27638,1.23281 -15.99501,6.96041 -18.55477,8.62065 -2.55976,1.66024 -12.47359,7.40584 -17.27139,10.69933 -4.79781,3.29349 -12.79531,8.64315 -13.11353,9.05708 -0.31823,0.41394 -1.27988,-5.35416 2.55976,-8.23371 3.83964,-2.87955 22.06919,-12.7555 26.22706,-14.81618 4.15786,-2.06068 12.7953,-6.58247 15.03684,-8.22922 2.24154,-1.64674 8.63745,-4.94922 10.55377,-4.94922 1.91633,0 11.51543,1.2373 11.51543,1.2373 h 11.51543 l 8.63744,4.5263 z"
     id="path6284"
     style="stroke-width:0.396658" />
  <path
     class="cls-4"
     d="m 441.86291,439.69328 c 0,0 -7.34358,-5.7546 -11.19021,-8.22022 -3.84664,-2.46561 -10.88948,-6.16403 -14.73612,-8.62965 -3.84663,-2.46561 -6.3994,-4.4993 -9.92082,-6.57797 -3.52142,-2.07868 -5.43774,-2.46112 -8.31922,-4.10786 a 49.173988,63.269108 0 0 0 -6.71762,-2.87505 c 0,0 -0.31473,11.11326 0,11.5272 0.31472,0.41393 11.51542,2.45661 14.3969,3.68942 2.88148,1.23281 9.59561,4.4993 15.03685,6.98291 5.44124,2.48361 8.31573,4.10786 14.07519,6.98291 5.75946,2.87505 8.97665,2.46111 7.37505,1.22831 z"
     id="path6286"
     style="stroke-width:0.396658" />
  <polygon
     class="cls-2"
     points="510.52,506.85 493.15,506.85 494.72,510.17 489.79,953.69 510.56,952.76 "
     id="polygon6288"
     transform="matrix(0.34969413,0,0,0.44992965,198.07714,184.09724)" />
  <path
     class="cls-1"
     d="m 385.24043,396.50453 -2.55976,11.5227 -6.99388,3.99987 -5.50768,0.10798 -8.61646,-7.81077 -2.55627,-6.17304 c 0,0 23.99601,-6.58697 26.23405,-1.64674 z"
     id="path6290" />
  <path
     class="cls-2"
     d="m 362.84952,400.62138 c 0,0 6.07768,10.69933 9.91733,11.10877 3.83964,0.40943 11.51542,-11.10877 11.51542,-11.10877 0,0 9.91383,-1.2373 11.51543,1.64675 1.6016,2.88405 0.63644,21.80809 -1.91982,34.97753 0,0 -8.95567,-22.63146 -20.79281,-24.69214 0,0 -12.79181,5.34966 -19.19122,24.69214 0,0 -4.15786,-25.10158 -1.91982,-32.92135 2.23804,-7.81978 10.87549,-3.70293 10.87549,-3.70293 z"
     id="path6292" />
  <rect
     class="cls-5"
     x="326.38693"
     y="465.23126"
     width="29.74848"
     height="11.113263"
     id="rect6294" />
  <path
     class="cls-5"
     d="m 396.43414,441.36252 c 0,0 -1.27638,0.82337 -0.63644,2.47011 0.63994,1.64674 2.55626,7.81978 2.55626,7.81978 0,0 -3.1962,12.34607 -1.91982,16.45842 1.27639,4.11236 6.71763,6.58697 10.87549,6.58697 4.15786,0 8.95567,-2.87955 10.23555,-7.81977 1.27988,-4.94023 -1.6086,-15.22562 -1.6086,-15.22562 l 2.23805,-8.23372 c 0,0 0.32172,-2.05617 -1.27988,-2.05617 z"
     id="path6296" />
  <ellipse
     class="cls-6"
     cx="407.2467"
     cy="456.95709"
     id="circle6298"
     rx="4.5460238"
     ry="5.8490853"
     style="stroke-width:0.396658" />
  <path
     class="cls-2"
     d="m 325.74697,492.39354 c 0,0 -0.31822,30.0418 0.63994,30.86517 0.95817,0.82337 11.19022,5.7636 13.43525,5.7636 2.24504,0 14.07169,-5.7636 14.39341,-6.99641 0.32172,-1.2328 0.63994,-30.86517 0.31822,-31.27911 -0.32172,-0.41393 -28.78682,1.64675 -28.78682,1.64675 z"
     id="path6300" />
  <rect
     class="cls-3"
     x="324.78882"
     y="489.9234"
     width="30.70664"
     height="7.4058418"
     id="rect6302" />
  <path
     class="cls-2"
     d="m 392.91622,492.80297 c 0,0 -0.31822,30.0463 0.63994,30.86968 0.95816,0.82337 11.19021,5.7591 13.43525,5.7591 2.24504,0 14.07519,-5.7591 14.39341,-6.99641 0.31822,-1.23731 0.63994,-30.86517 0.31822,-31.27461 -0.32172,-0.40944 -28.78682,1.64224 -28.78682,1.64224 z"
     id="path6304" />
  <rect
     class="cls-3"
     x="391.95807"
     y="490.33734"
     width="30.70664"
     height="7.4058418"
     id="rect6306" />
  <path
     class="cls-4"
     d="m 320.94917,522.84927 c 0,-1.2373 1.27988,-29.22293 1.27988,-34.15865 0,-4.93573 0.31822,-13.58338 -0.63994,-19.34698 -0.95816,-5.7636 -2.23804,-9.44852 -4.47958,-2.87955 -2.24154,6.56897 -5.43775,15.22562 -7.03585,20.57528 -1.5981,5.34967 -4.7978,9.87596 -10.55377,10.28989 -5.75596,0.41394 -9.5956,-2.88404 -9.91732,-3.70742 -0.32172,-0.82337 -0.95816,8.23372 -0.95816,8.23372 0,0 8.95566,2.87955 13.75347,3.28898 4.7978,0.40944 7.67578,1.64675 10.55376,0.41394 2.87799,-1.23281 4.15787,-2.05618 5.43775,-1.23281 1.27988,0.82337 2.24154,4.52629 2.24154,4.52629 z"
     id="path6308"
     style="stroke-width:0.396658" />
  <path
     class="cls-4"
     d="m 456.24932,481.28027 c 0,0 2.87799,23.0499 2.23805,23.0499 -0.63994,0 -9.59561,4.94923 -14.39341,4.52629 -4.79781,-0.42293 -12.15537,-1.2373 -13.11353,-1.64674 -0.95817,-0.40944 -2.87799,-0.82337 -3.19971,1.64674 -0.32171,2.47012 0,20.57529 0,20.57529 v 13.99281 c 0,0 -2.87798,-11.11326 -3.1962,-11.5227 -0.31822,-0.40944 -2.88148,-3.29349 -6.3994,-2.47011 -3.51792,0.82337 -11.51543,3.70292 -8.95567,2.47011 2.55976,-1.23281 11.51543,-4.52629 13.43525,-6.99641 1.91982,-2.47011 2.23804,-7.40584 2.55976,-12.34607 0.32172,-4.94022 0.95816,-21.39865 0.95816,-27.16225 0,-5.7636 1.27988,-19.75191 1.27988,-22.63596 0,-2.88405 0.63994,-7.40584 1.59811,-2.87955 0.95816,4.52629 1.27988,19.75191 2.87798,28.7955 1.5981,9.04358 -4.47609,13.57887 3.1997,13.16944 7.67579,-0.40944 13.43525,2.87955 15.67329,-4.52629 2.23804,-7.40585 5.43774,-16.04 5.43774,-16.04 z"
     id="path6310"
     style="stroke-width:0.396658" />
  <line
     class="cls-2"
     x1="319.35107"
     y1="508.85645"
     x2="319.35107"
     y2="470.99487"
     id="line6312" />
  <line
     class="cls-2"
     x1="429.06061"
     y1="508.85645"
     x2="428.7424"
     y2="468.9342"
     id="line6314" />
  <path
     class="cls-4"
     d="m 426.18262,568.53063 c 0,0 -0.63994,31.68855 -0.95816,34.5681 -0.31822,2.87955 -4.15786,4.52629 -7.69327,4.52629 -3.53541,0 -14.71163,0.82337 -18.88348,0.82337 -4.17185,0 -15.35507,2.05618 -16.95317,2.05618 h -3.48995 c 0,0 19.83115,-12.34607 28.4651,-16.04899 8.63395,-3.70292 7.69327,-2.05618 11.83715,-10.69933 4.14387,-8.64315 7.67578,-15.22562 7.67578,-15.22562 z"
     id="path6316"
     style="stroke-width:0.396658" />
  <path
     class="cls-4"
     d="m 320.94917,575.1131 v 26.74832 c 0,3.70742 -0.63994,6.58697 2.23804,6.99641 2.87798,0.40943 16.63495,1.64674 18.88348,1.64674 2.24854,0 -1.91982,-4.11236 -7.34357,-7.40584 -5.42376,-3.29349 -7.99751,-4.11686 -9.59561,-12.34607 a 84.055977,108.14959 0 0 0 -4.18234,-15.63956 z"
     id="path6318"
     style="stroke-width:0.396658" />
  <path
     class="cls-1"
     d="m 314.70363,328.2367 c 0,0 -7.69327,3.06852 -8.08842,11.02778 -0.39516,7.95925 2.01424,14.33476 5.19995,16.93085 3.18571,2.5961 7.57437,3.46896 7.57437,3.46896 0,0 8.77033,24.63365 23.07982,33.74472 14.30948,9.11108 26.32847,9.94795 31.75572,9.5925 5.42725,-0.35544 25.87736,-6.11904 36.32623,-17.07033 10.44886,-10.95129 17.01961,-23.74729 18.48133,-28.04411 0,0 12.0015,-3.81541 13.61359,-13.49789 1.61209,-9.68249 -0.37767,-14.20878 -1.88135,-15.51358 -1.50369,-1.30479 -6.49732,-3.77491 -6.49732,-3.77491 l -2.98988,-43.67467 -34.06021,-13.19194 -54.01725,5.1697 -16.9252,12.53953 -8.63744,33.9337 z"
     id="path6320" />
  <path
     class="cls-7"
     d="m 354.70864,372.29381 c 0,0 1.39878,16.71489 8.56051,19.27949 7.16174,2.5646 17.45673,1.19231 20.78582,-1.82671 3.32909,-3.01903 7.14775,-11.90064 7.47996,-17.2863 0.33221,-5.38566 -12.85825,-4.04937 -12.85825,-4.04937 0,0 -13.26041,-0.53542 -17.36581,1.13382 -4.10541,1.66924 -6.60223,2.74907 -6.60223,2.74907 z"
     id="path6322"
     style="stroke-width:0.396658" />
  <path
     class="cls-8"
     d="m 338.13664,319.94 c 0,0 3.46197,-4.19334 6.79106,-2.5466 0,0 2.22405,1.2553 2.79755,2.15066 0,0 -0.86025,-3.44196 -3.7732,-3.72092 -2.91295,-0.27895 -5.33983,2.45212 -5.81541,4.11686 z"
     id="path6324"
     style="stroke-width:0.396658" />
  <path
     class="cls-8"
     d="m 395.3396,321.80271 c 0,0 2.25902,-2.47911 4.44811,-2.15516 2.18909,0.32394 3.84664,1.38128 4.25578,2.05617 l 0.38816,0.6749 c 0,0 -1.04908,-3.89639 -2.88848,-4.24734 -1.83939,-0.35094 -3.44448,0 -4.50406,0.76038 -1.05957,0.76038 -1.69951,2.91105 -1.69951,2.91105 z"
     id="path6326"
     style="stroke-width:0.396658" />
  <path
     class="cls-1"
     d="m 372.37169,351.07513 c 0,0 -2.3954,-1.01234 -2.5143,0.6299 -0.1189,1.64225 1.21344,3.1855 2.28001,2.65009"
     id="path6328" />
  <path
     class="cls-9"
     d="m 316.92419,352.37093 c 0,0 -0.50006,-3.46896 -1.26939,-4.58478 -0.76933,-1.11583 -1.8254,-0.35095 -0.82528,-2.51511 1.00013,-2.16416 1.66455,-3.8424 0.4581,-6.79844 -1.20644,-2.95604 -2.38142,-5.21018 -3.96203,-3.94138 -1.58062,1.2688 -2.64719,6.47449 -2.44786,6.69495 0.19932,0.22047 1.42675,-5.22818 3.26264,-4.64777 1.8359,0.58041 1.34283,6.44749 1.3778,7.37884 0.035,0.93136 -0.20282,3.98188 0.38466,5.11121 0.58749,1.12932 2.15412,4.28333 3.02136,3.30248 z"
     id="path6330"
     style="stroke-width:0.396658" />
  <path
     class="cls-9"
     d="m 431.47699,350.48122 c 0,0 1.2624,-4.74675 2.50031,-5.52963 1.23792,-0.78288 2.09817,-1.53876 1.32884,-3.12251 -0.76932,-1.58376 -0.88822,-4.13936 -0.2203,-5.58363 0.66791,-1.44427 1.27288,-4.4993 2.95491,-3.226 1.68203,1.27331 3.05982,3.99988 3.0878,4.69727 0.028,0.69739 -1.74847,-2.69958 -2.98639,-2.13717 -1.23792,0.56242 -2.27651,2.01569 -2.03172,3.63094 0.24478,1.61524 1.22043,3.41946 0.73436,4.85474 -0.48608,1.43527 -1.00363,2.16416 -1.86038,3.38797 -0.85675,1.22381 -3.50743,3.02802 -3.50743,3.02802 z"
     id="path6332"
     style="stroke-width:0.396658" />
  <path
     class="cls-9"
     d="m 423.33961,314.37437 c -0.0455,-1.16082 -4.03197,-14.90167 -5.96928,-18.04218 -1.9373,-3.14051 -3.23117,-3.75691 -3.23117,-3.75691 0,0 -7.12327,7.93226 -13.79194,9.06608 -6.66867,1.13382 -19.73674,0.82337 -23.42951,-0.57141 -3.69277,-1.39478 -9.33683,-6.85693 -9.33683,-6.85693 0,0 38.66918,-12.7915 38.84402,-13.04796 0.17485,-0.25646 14.12765,-0.44993 14.12765,-0.44993 l 5.68602,10.82981 z"
     id="path6334"
     style="stroke-width:0.396658" />
  <path
     class="cls-9"
     d="m 328.96766,312.83561 -1.91283,6.65896 c 0,0 -1.72399,-6.88842 -1.61559,-8.76013 0.10841,-1.87171 -0.90221,-9.04359 -0.90221,-9.04359 0,0 6.47284,-10.69033 6.64419,-10.69932 0.17135,-0.009 4.93069,0.84136 4.93069,0.84136 z"
     id="path6336"
     style="stroke-width:0.396658" />
  <path
     class="cls-10"
     d="m 320.47009,345.82895 c 0,0 -6.04971,-16.44943 -6.81904,-17.09733 -0.76932,-0.64789 0.60847,-34.55459 6.68965,-45.91982 6.08118,-11.36522 17.22593,-27.72916 36.44512,-32.48042 19.21919,-4.75125 33.86788,-5.94357 44.14539,-2.86605 10.27751,3.07752 18.08968,12.59803 18.08968,12.59803 0,0 15.7782,4.56679 18.26452,17.00734 2.48633,12.44056 4.43762,25.14657 3.14725,33.39828 -1.29037,8.25171 -4.72787,18.50561 -4.72787,18.50561 l -5.78044,14.60921 c 0,0 -0.37417,-32.39493 -2.00375,-36.97522 0,0 -3.69277,12.1481 -4.73136,13.37641 0,0 0.3497,-14.25827 -1.72049,-20.65627 -2.07019,-6.398 -6.00425,-14.54172 -8.04996,-15.79703 0,0 -7.62683,13.56538 -16.58949,16.25146 -8.96266,2.68608 -20.63196,1.11133 -30.20308,-2.46561 -9.57113,-3.57694 -17.0441,-4.4993 -20.78932,-2.84356 -3.74522,1.65574 -10.84052,5.37666 -13.32684,11.60819 -2.48633,6.23152 -4.96916,11.99062 -4.96916,11.99062 0,0 -0.55251,-18.63159 1.8324,-22.52348 0,0 -5.19645,6.17304 -6.46235,20.02637 -1.26589,13.85334 -2.44786,20.69677 -2.12264,24.40869 0.32522,3.71192 -0.31822,5.84458 -0.31822,5.84458 z"
     id="path6338" />
  <path
     class="cls-11"
     d="m 418.35297,261.48514 c 0,0 -6.29449,-8.22472 -13.11353,-10.58235 -6.81903,-2.35763 -15.71176,-2.93804 -18.9779,-2.96053 -3.26614,-0.0225 -13.18696,1.32729 -13.18696,1.32729 0,0 24.76883,2.58709 29.3743,4.38231 4.60547,1.79522 7.56389,3.244 10.03622,6.11455 l 4.75235,5.52513 c 0,0 11.33708,2.29015 13.20794,3.80191 1.87087,1.51176 4.76284,5.7591 5.57763,8.03574 0,0 -0.81829,-6.94691 -5.65106,-9.89845 -4.83277,-2.95154 -6.02173,-5.42615 -12.01899,-5.7456 z"
     id="path6340"
     style="stroke-width:0.396658" />
  <path
     class="cls-12"
     d="m 358.20558,385.01782 c 0,0 2.18909,4.98972 6.23505,6.36201 4.04596,1.37229 11.10628,1.13832 12.18334,0.83687 1.07706,-0.30145 6.27701,-1.79972 6.80155,-2.31264 0.52454,-0.51292 2.09817,-2.46561 2.09817,-2.46561 0,0 -17.53367,-7.25737 -27.31811,-2.42063 z"
     id="path6342"
     style="stroke-width:0.396658" />
  <path
     class="cls-10"
     d="m 352.05446,374.3005 c 0,0 31.27315,-7.31586 43.5649,0.24746 0,0 -6.68965,-10.41587 -11.92108,-12.22909 -5.23142,-1.81321 -14.47034,-2.41612 -18.07569,-1.44427 -3.60534,0.97185 -8.39265,5.67811 -9.99775,6.86143 -1.6051,1.18331 -3.57038,6.56447 -3.57038,6.56447 z"
     id="path6344" />
  <ellipse
     class="cls-13"
     cx="345.47324"
     cy="339.70538"
     id="circle6346"
     rx="5.1579885"
     ry="6.6364622"
     style="stroke-width:0.396658" />
  <ellipse
     class="cls-14"
     cx="342.77359"
     cy="336.74487"
     id="circle6348"
     rx="1.2169355"
     ry="1.5657552"
     style="stroke-width:0.396658" />
  <ellipse
     class="cls-13"
     cx="400.34723"
     cy="336.40289"
     id="circle6350"
     rx="5.1579885"
     ry="6.6364622"
     style="stroke-width:0.396658" />
  <ellipse
     class="cls-14"
     cx="397.39929"
     cy="334.17126"
     id="circle6352"
     rx="1.2169355"
     ry="1.5657552"
     style="stroke-width:0.396658" />
  <path
     class="cls-15"
     d="m 317.9383,292.98021 c 0,0 -16.55452,-15.3426 -18.10016,-19.7969 -1.54565,-4.4543 -7.31561,-20.80475 3.84663,-36.16085 11.16224,-15.3561 42.35845,-45.08295 72.77135,-45.08295 30.4129,0 52.74436,17.83521 68.54005,34.19466 15.79568,16.35944 20.40465,46.06829 5.77694,57.95543 -14.6277,11.88715 -14.25703,6.91992 -18.10716,8.89061 -3.85013,1.9707 -114.72765,0 -114.72765,0 z"
     id="path6354" />
  <path
     class="cls-16"
     d="m 438.63523,287.2976 c 0,0 1.92332,11.88714 -4.2348,16.84087 -6.15811,4.95373 -50.43638,9.89845 -71.22569,7.92326 -20.78932,-1.97519 -46.58276,-0.49492 -46.20159,-23.27936 0.38116,-22.78444 71.60686,-18.33013 71.60686,-18.33013 0,0 45.43576,4.4588 50.05522,16.84536 z"
     id="path6356" />
  <path
     class="cls-17"
     d="m 429.57466,292.49429 c -3.5529,-1.70973 -23.1008,-12.38206 -44.65944,-11.88714 -21.55864,0.49492 -58.12266,8.42268 -58.50033,11.88714 -0.37767,3.46446 6.53928,12.88149 23.07981,12.88149 16.54053,0 66.98741,1.48476 73.53368,-2.47912 6.54628,-3.96388 9.63757,-8.9131 6.54628,-10.40237 z"
     id="path6358"
     style="stroke-width:0.396658" />
  <path
     class="cls-18"
     d="m 317.05008,291.30648 c 0,0 34.19309,-16.89036 59.59837,-16.39544 25.40528,0.49492 39.27065,3.96388 52.74436,11.39222 l 9.52567,5.00322 c 0,0 2.79756,-18.87005 0.10141,-22.83393 -2.69614,-3.96388 -35.03585,-21.7946 -60.84677,-22.28952 -25.81093,-0.49492 -44.65944,11.39222 -61.19648,23.77428 0,0 -1.00711,12.97598 0.0734,21.34917"
     id="path6360" />
  <ellipse
     class="cls-5"
     cx="375.43503"
     cy="230.84042"
     rx="12.805799"
     ry="24.287203"
     id="ellipse6362" />
  <ellipse
     class="cls-6"
     cx="375.53644"
     cy="233.07211"
     rx="6.9309373"
     ry="13.142445"
     id="ellipse6364"
     style="stroke-width:0.396658" />
  <path
     class="cls-1"
     d="m 524.28032,518.42714 c 0,0 -0.0594,20.56179 -0.32172,25.51551 -0.26926,5.1562 1.98626,38.93691 1.97927,40.54316 0,3.17651 -0.88822,3.32498 -1.00013,7.19888 -0.1119,3.87389 0,9.18306 4.58799,13.04796 4.58799,3.86489 13.92832,4.26533 16.98115,0.73338 3.05283,-3.53194 0.41264,-9.09307 0.41264,-9.09307 0,0 1.39877,2.09217 2.38841,1.2553 0.98963,-0.83687 -0.14687,-8.15723 -4.87474,-11.01428 v -6.07405 l -1.58761,-34.25314 3.49694,-55.0309 -22.2895,-1.87621 z"
     id="path6274-8"
     style="fill:#fed1a5;stroke:#d6a47c;stroke-width:1.18997px;stroke-miterlimit:10" />
  <path
     class="cls-1"
     d="m 686.15023,518.02221 c 0,0 0.4581,20.54378 0.81479,25.49301 0.37417,5.14719 -1.24491,39.0044 -1.20644,40.61065 0.0769,3.1765 0.96165,3.29349 1.14699,7.15388 0.18534,3.8604 0.17485,9.18307 -4.36768,13.22793 -4.54252,4.04487 -13.9423,4.76476 -17.08605,1.34979 -3.14375,-3.41496 -0.58749,-9.07508 -0.58749,-9.07508 0,0 -1.39877,2.14617 -2.38142,1.34979 -0.98264,-0.79638 0,-8.16172 4.6964,-11.18525 l -0.1224,-6.07405 0.93019,-34.32064 -4.59848,-54.89141 22.43288,-2.68158 z"
     id="path6276-8"
     style="fill:#fed1a5;stroke:#d6a47c;stroke-width:1.18997px;stroke-miterlimit:10" />
  <path
     class="cls-2"
     d="m 594.32755,402.78172 c -0.63994,0.82337 -6.71413,0 -6.71413,0 0,0 -27.18872,18.10967 -35.50444,20.98922 -8.31573,2.87955 -28.78682,15.22562 -31.02836,46.09529 l -2.23804,30.86518 c 0,0 13.11353,11.10876 32.62646,5.34966 v 101.64811 c 0,0 38.70065,3.70292 54.69566,2.47011 15.995,-1.2328 54.05571,-4.52629 54.05571,-4.52629 l 0.95817,-99.59193 c 0,0 19.51293,6.17304 31.98652,-3.29348 0,0 -1.97927,-26.00594 -6.09517,-46.7162 a 27.709763,35.652426 0 0 0 -11.69727,-20.98922 c -5.39928,-4.53529 -12.49807,-10.2179 -17.71201,-13.34491 -9.44174,-5.66911 -32.30474,-20.16585 -32.30474,-20.16585 z"
     id="path6278-6"
     style="fill:#77a2cf;stroke:#386084;stroke-width:1.18997px;stroke-miterlimit:10" />
  <path
     class="cls-3"
     d="m 578.23463,408.87827 c 0,0 0.41963,-4.04937 -1.4967,-3.62643 -1.91632,0.42293 -37.43825,21.39865 -39.02236,22.63146 -1.58412,1.23281 0.77632,2.98303 2.30448,2.92904 1.52816,-0.054 32.3537,-15.42359 38.21458,-21.93407 z"
     id="path6280-0"
     style="fill:#335d83;stroke:#2a5472;stroke-width:1.18997px;stroke-miterlimit:10" />
  <path
     class="cls-3"
     d="m 637.8295,409.36869 c 0,0 -0.9127,-4.76475 0.95816,-4.11685 1.87086,0.6479 35.36806,23.6393 36.86126,25.07008 1.49319,1.43077 -0.99313,2.87055 -2.50731,2.63209 -1.51417,-0.23847 -27.63633,-17.82622 -35.31211,-23.58532 z"
     id="path6282-4"
     style="fill:#335d83;stroke:#2a5472;stroke-width:1.18997px;stroke-miterlimit:10" />
  <path
     class="cls-4"
     d="m 624.07603,425.00825 c 0,0.40943 1.5981,5.7591 1.5981,5.7591 0,0 -6.3959,-4.52629 -8.95567,-6.99641 -2.55976,-2.47011 -3.84663,-4.52629 -6.71762,-5.7591 -2.87099,-1.23281 -7.67579,-2.88405 -9.27389,-1.64674 -1.5981,1.23731 -5.43774,4.52629 -6.71762,7.0189 -1.27988,2.49261 -3.1997,6.58247 -5.11952,7.40584 -1.91983,0.82338 -2.87799,0 -2.87799,0 v -13.99281 c 0,0 -1.27988,-2.05618 -2.55626,-0.82337 -1.27638,1.23281 -15.99501,6.96041 -18.55477,8.62065 -2.55976,1.66024 -12.47359,7.40584 -17.27139,10.69933 -4.79781,3.29349 -12.79531,8.64315 -13.11353,9.05708 -0.31823,0.41394 -1.27988,-5.35416 2.55976,-8.23371 3.83964,-2.87955 22.06919,-12.7555 26.22706,-14.81618 4.15786,-2.06068 12.7953,-6.58247 15.03684,-8.22922 2.24154,-1.64674 8.63745,-4.94922 10.55377,-4.94922 1.91633,0 11.51543,1.2373 11.51543,1.2373 h 11.51543 l 8.63744,4.5263 z"
     id="path6284-6"
     style="fill:#628fb7;stroke-width:0.396658" />
  <path
     class="cls-4"
     d="m 673.98088,436.91789 c 0,0 -7.34358,-5.7546 -11.19021,-8.22022 -3.84664,-2.46561 -10.88948,-6.16403 -14.73612,-8.62965 -3.84663,-2.46561 -6.3994,-4.4993 -9.92082,-6.57797 -3.52142,-2.07868 -5.43774,-2.46112 -8.31922,-4.10786 a 49.173988,63.269108 0 0 0 -6.71762,-2.87505 c 0,0 -0.31473,11.11326 0,11.5272 0.31472,0.41393 11.51542,2.45661 14.3969,3.68942 2.88148,1.23281 9.59561,4.4993 15.03685,6.98291 5.44124,2.48361 8.31573,4.10786 14.07519,6.98291 5.75946,2.87505 8.97665,2.46111 7.37505,1.22831 z"
     id="path6286-7"
     style="fill:#628fb7;stroke-width:0.396658" />
  <polygon
     class="cls-2"
     points="494.72,510.17 489.79,953.69 510.56,952.76 510.52,506.85 493.15,506.85 "
     id="polygon6288-6"
     transform="matrix(0.34969413,0,0,0.44992965,430.19511,181.32185)"
     style="fill:#77a2cf;stroke:#386084;stroke-width:3px;stroke-miterlimit:10" />
  <path
     class="cls-1"
     d="m 617.3584,393.72914 -2.55976,11.5227 -6.99388,3.99987 -5.50768,0.10798 -8.61646,-7.81077 -2.55627,-6.17304 c 0,0 23.99601,-6.58697 26.23405,-1.64674 z"
     id="path6290-0"
     style="fill:#fed1a5;stroke:#d6a47c;stroke-width:1.18997px;stroke-miterlimit:10" />
  <path
     class="cls-2"
     d="m 594.96749,397.84599 c 0,0 6.07768,10.69933 9.91733,11.10877 3.83964,0.40943 11.51542,-11.10877 11.51542,-11.10877 0,0 9.91383,-1.2373 11.51543,1.64675 1.6016,2.88405 0.63644,21.80809 -1.91982,34.97753 0,0 -8.95567,-22.63146 -20.79281,-24.69214 0,0 -12.79181,5.34966 -19.19122,24.69214 0,0 -4.15786,-25.10158 -1.91982,-32.92135 2.23804,-7.81978 10.87549,-3.70293 10.87549,-3.70293 z"
     id="path6292-9"
     style="fill:#77a2cf;stroke:#386084;stroke-width:1.18997px;stroke-miterlimit:10" />
  <rect
     class="cls-5"
     x="558.50494"
     y="462.45587"
     width="29.74848"
     height="11.113263"
     id="rect6294-7"
     style="fill:#fcbf26;stroke:#d39816;stroke-width:0.793316px;stroke-miterlimit:10" />
  <path
     class="cls-5"
     d="m 628.55211,438.58713 c 0,0 -1.27638,0.82337 -0.63644,2.47011 0.63994,1.64674 2.55626,7.81978 2.55626,7.81978 0,0 -3.1962,12.34607 -1.91982,16.45842 1.27639,4.11236 6.71763,6.58697 10.87549,6.58697 4.15786,0 8.95567,-2.87955 10.23555,-7.81977 1.27988,-4.94023 -1.6086,-15.22562 -1.6086,-15.22562 l 2.23805,-8.23372 c 0,0 0.32172,-2.05617 -1.27988,-2.05617 z"
     id="path6296-5"
     style="fill:#fcbf26;stroke:#d39816;stroke-width:0.793316px;stroke-miterlimit:10" />
  <ellipse
     class="cls-6"
     cx="639.36469"
     cy="454.1817"
     id="circle6298-9"
     rx="4.5460238"
     ry="5.8490853"
     style="fill:#e3af1b;stroke-width:0.396658" />
  <path
     class="cls-2"
     d="m 557.86494,489.61815 c 0,0 -0.31822,30.0418 0.63994,30.86517 0.95817,0.82337 11.19022,5.7636 13.43525,5.7636 2.24504,0 14.07169,-5.7636 14.39341,-6.99641 0.32172,-1.2328 0.63994,-30.86517 0.31822,-31.27911 -0.32172,-0.41393 -28.78682,1.64675 -28.78682,1.64675 z"
     id="path6300-7"
     style="fill:#77a2cf;stroke:#386084;stroke-width:1.18997px;stroke-miterlimit:10" />
  <rect
     class="cls-3"
     x="556.9068"
     y="487.14801"
     width="30.70664"
     height="7.4058418"
     id="rect6302-8"
     style="fill:#335d83;stroke:#2a5472;stroke-width:1.18997px;stroke-miterlimit:10" />
  <path
     class="cls-2"
     d="m 625.03419,490.02758 c 0,0 -0.31822,30.0463 0.63994,30.86968 0.95816,0.82337 11.19021,5.7591 13.43525,5.7591 2.24504,0 14.07519,-5.7591 14.39341,-6.99641 0.31822,-1.23731 0.63994,-30.86517 0.31822,-31.27461 -0.32172,-0.40944 -28.78682,1.64224 -28.78682,1.64224 z"
     id="path6304-5"
     style="fill:#77a2cf;stroke:#386084;stroke-width:1.18997px;stroke-miterlimit:10" />
  <rect
     class="cls-3"
     x="624.07605"
     y="487.56195"
     width="30.70664"
     height="7.4058418"
     id="rect6306-3"
     style="fill:#335d83;stroke:#2a5472;stroke-width:1.18997px;stroke-miterlimit:10" />
  <path
     class="cls-4"
     d="m 553.06714,520.07388 c 0,-1.2373 1.27988,-29.22293 1.27988,-34.15865 0,-4.93573 0.31822,-13.58338 -0.63994,-19.34698 -0.95816,-5.7636 -2.23804,-9.44852 -4.47958,-2.87955 -2.24154,6.56897 -5.43775,15.22562 -7.03585,20.57528 -1.5981,5.34967 -4.7978,9.87596 -10.55377,10.28989 -5.75596,0.41394 -9.5956,-2.88404 -9.91732,-3.70742 -0.32172,-0.82337 -0.95816,8.23372 -0.95816,8.23372 0,0 8.95566,2.87955 13.75347,3.28898 4.7978,0.40944 7.67578,1.64675 10.55376,0.41394 2.87799,-1.23281 4.15787,-2.05618 5.43775,-1.23281 1.27988,0.82337 2.24154,4.52629 2.24154,4.52629 z"
     id="path6308-3"
     style="fill:#628fb7;stroke-width:0.396658" />
  <path
     class="cls-4"
     d="m 688.36729,478.50488 c 0,0 2.87799,23.0499 2.23805,23.0499 -0.63994,0 -9.59561,4.94923 -14.39341,4.52629 -4.79781,-0.42293 -12.15537,-1.2373 -13.11353,-1.64674 -0.95817,-0.40944 -2.87799,-0.82337 -3.19971,1.64674 -0.32171,2.47012 0,20.57529 0,20.57529 v 13.99281 c 0,0 -2.87798,-11.11326 -3.1962,-11.5227 -0.31822,-0.40944 -2.88148,-3.29349 -6.3994,-2.47011 -3.51792,0.82337 -11.51543,3.70292 -8.95567,2.47011 2.55976,-1.23281 11.51543,-4.52629 13.43525,-6.99641 1.91982,-2.47011 2.23804,-7.40584 2.55976,-12.34607 0.32172,-4.94022 0.95816,-21.39865 0.95816,-27.16225 0,-5.7636 1.27988,-19.75191 1.27988,-22.63596 0,-2.88405 0.63994,-7.40584 1.59811,-2.87955 0.95816,4.52629 1.27988,19.75191 2.87798,28.7955 1.5981,9.04358 -4.47609,13.57887 3.1997,13.16944 7.67579,-0.40944 13.43525,2.87955 15.67329,-4.52629 2.23804,-7.40585 5.43774,-16.04 5.43774,-16.04 z"
     id="path6310-8"
     style="fill:#628fb7;stroke-width:0.396658" />
  <line
     class="cls-2"
     x1="551.46906"
     y1="506.08105"
     x2="551.46906"
     y2="468.21948"
     id="line6312-3"
     style="fill:#77a2cf;stroke:#386084;stroke-width:1.18997px;stroke-miterlimit:10" />
  <line
     class="cls-2"
     x1="661.17859"
     y1="506.08105"
     x2="660.86035"
     y2="466.15881"
     id="line6314-7"
     style="fill:#77a2cf;stroke:#386084;stroke-width:1.18997px;stroke-miterlimit:10" />
  <path
     class="cls-4"
     d="m 658.30059,565.75524 c 0,0 -0.63994,31.68855 -0.95816,34.5681 -0.31822,2.87955 -4.15786,4.52629 -7.69327,4.52629 -3.53541,0 -14.71163,0.82337 -18.88348,0.82337 -4.17185,0 -15.35507,2.05618 -16.95317,2.05618 h -3.48995 c 0,0 19.83115,-12.34607 28.4651,-16.04899 8.63395,-3.70292 7.69327,-2.05618 11.83715,-10.69933 4.14387,-8.64315 7.67578,-15.22562 7.67578,-15.22562 z"
     id="path6316-9"
     style="fill:#628fb7;stroke-width:0.396658" />
  <path
     class="cls-4"
     d="m 553.06714,572.33771 v 26.74832 c 0,3.70742 -0.63994,6.58697 2.23804,6.99641 2.87798,0.40943 16.63495,1.64674 18.88348,1.64674 2.24854,0 -1.91982,-4.11236 -7.34357,-7.40584 -5.42376,-3.29349 -7.99751,-4.11686 -9.59561,-12.34607 a 84.055977,108.14959 0 0 0 -4.18234,-15.63956 z"
     id="path6318-3"
     style="fill:#628fb7;stroke-width:0.396658" />
  <path
     class="cls-1"
     d="m 546.8216,325.46131 c 0,0 -7.69327,3.06852 -8.08842,11.02778 -0.39516,7.95925 2.01424,14.33476 5.19995,16.93085 3.18571,2.5961 7.57437,3.46896 7.57437,3.46896 0,0 8.77033,24.63365 23.07982,33.74472 14.30948,9.11108 26.32847,9.94795 31.75572,9.5925 5.42725,-0.35544 25.87736,-6.11904 36.32623,-17.07033 10.44886,-10.95129 17.01961,-23.74729 18.48133,-28.04411 0,0 12.0015,-3.81541 13.61359,-13.49789 1.61209,-9.68249 -0.37767,-14.20878 -1.88135,-15.51358 -1.50369,-1.30479 -6.49732,-3.77491 -6.49732,-3.77491 l -2.98988,-43.67467 -34.06021,-13.19194 -54.01725,5.1697 -16.9252,12.53953 -8.63744,33.9337 z"
     id="path6320-7"
     style="fill:#fed1a5;stroke:#d6a47c;stroke-width:1.18997px;stroke-miterlimit:10" />
  <path
     class="cls-7"
     d="m 586.82661,369.51842 c 0,0 1.39878,16.71489 8.56051,19.27949 7.16174,2.5646 17.45673,1.19231 20.78582,-1.82671 3.32909,-3.01903 7.14775,-11.90064 7.47996,-17.2863 0.33221,-5.38566 -12.85825,-4.04937 -12.85825,-4.04937 0,0 -13.26041,-0.53542 -17.36581,1.13382 -4.10541,1.66924 -6.60223,2.74907 -6.60223,2.74907 z"
     id="path6322-8"
     style="fill:#de95a0;stroke-width:0.396658" />
  <path
     class="cls-8"
     d="m 570.25461,317.16461 c 0,0 3.46197,-4.19334 6.79106,-2.5466 0,0 2.22405,1.2553 2.79755,2.15066 0,0 -0.86025,-3.44196 -3.7732,-3.72092 -2.91295,-0.27895 -5.33983,2.45212 -5.81541,4.11686 z"
     id="path6324-7"
     style="fill:#706664;stroke-width:0.396658" />
  <path
     class="cls-8"
     d="m 627.45757,319.02732 c 0,0 2.25902,-2.47911 4.44811,-2.15516 2.18909,0.32394 3.84664,1.38128 4.25578,2.05617 l 0.38816,0.6749 c 0,0 -1.04908,-3.89639 -2.88848,-4.24734 -1.83939,-0.35094 -3.44448,0 -4.50406,0.76038 -1.05957,0.76038 -1.69951,2.91105 -1.69951,2.91105 z"
     id="path6326-4"
     style="fill:#706664;stroke-width:0.396658" />
  <path
     class="cls-1"
     d="m 604.48966,348.29974 c 0,0 -2.3954,-1.01234 -2.5143,0.6299 -0.1189,1.64225 1.21344,3.1855 2.28001,2.65009"
     id="path6328-1"
     style="fill:#fed1a5;stroke:#d6a47c;stroke-width:1.18997px;stroke-miterlimit:10" />
  <path
     class="cls-9"
     d="m 549.04216,349.59554 c 0,0 -0.50006,-3.46896 -1.26939,-4.58478 -0.76933,-1.11583 -1.8254,-0.35095 -0.82528,-2.51511 1.00013,-2.16416 1.66455,-3.8424 0.4581,-6.79844 -1.20644,-2.95604 -2.38142,-5.21018 -3.96203,-3.94138 -1.58062,1.2688 -2.64719,6.47449 -2.44786,6.69495 0.19932,0.22047 1.42675,-5.22818 3.26264,-4.64777 1.8359,0.58041 1.34283,6.44749 1.3778,7.37884 0.035,0.93136 -0.20282,3.98188 0.38466,5.11121 0.58749,1.12932 2.15412,4.28333 3.02136,3.30248 z"
     id="path6330-9"
     style="fill:#eabf98;stroke-width:0.396658" />
  <path
     class="cls-9"
     d="m 663.59496,347.70583 c 0,0 1.2624,-4.74675 2.50031,-5.52963 1.23792,-0.78288 2.09817,-1.53876 1.32884,-3.12251 -0.76932,-1.58376 -0.88822,-4.13936 -0.2203,-5.58363 0.66791,-1.44427 1.27288,-4.4993 2.95491,-3.226 1.68203,1.27331 3.05982,3.99988 3.0878,4.69727 0.028,0.69739 -1.74847,-2.69958 -2.98639,-2.13717 -1.23792,0.56242 -2.27651,2.01569 -2.03172,3.63094 0.24478,1.61524 1.22043,3.41946 0.73436,4.85474 -0.48608,1.43527 -1.00363,2.16416 -1.86038,3.38797 -0.85675,1.22381 -3.50743,3.02802 -3.50743,3.02802 z"
     id="path6332-0"
     style="fill:#eabf98;stroke-width:0.396658" />
  <path
     class="cls-9"
     d="m 655.45758,311.59898 c -0.0455,-1.16082 -4.03197,-14.90167 -5.96928,-18.04218 -1.9373,-3.14051 -3.23117,-3.75691 -3.23117,-3.75691 0,0 -7.12327,7.93226 -13.79194,9.06608 -6.66867,1.13382 -19.73674,0.82337 -23.42951,-0.57141 -3.69277,-1.39478 -9.33683,-6.85693 -9.33683,-6.85693 0,0 38.66918,-12.7915 38.84402,-13.04796 0.17485,-0.25646 14.12765,-0.44993 14.12765,-0.44993 l 5.68602,10.82981 z"
     id="path6334-9"
     style="fill:#eabf98;stroke-width:0.396658" />
  <path
     class="cls-9"
     d="m 561.08563,310.06022 -1.91283,6.65896 c 0,0 -1.72399,-6.88842 -1.61559,-8.76013 0.10841,-1.87171 -0.90221,-9.04359 -0.90221,-9.04359 0,0 6.47284,-10.69033 6.64419,-10.69932 0.17135,-0.009 4.93069,0.84136 4.93069,0.84136 z"
     id="path6336-8"
     style="fill:#eabf98;stroke-width:0.396658" />
  <path
     class="cls-10"
     d="m 552.58806,343.05356 c 0,0 -6.04971,-16.44943 -6.81904,-17.09733 -0.76932,-0.64789 0.60847,-34.55459 6.68965,-45.91982 6.08118,-11.36522 17.22593,-27.72916 36.44512,-32.48042 19.21919,-4.75125 33.86788,-5.94357 44.14539,-2.86605 10.27751,3.07752 18.08968,12.59803 18.08968,12.59803 0,0 15.7782,4.56679 18.26452,17.00734 2.48633,12.44056 4.43762,25.14657 3.14725,33.39828 -1.29037,8.25171 -4.72787,18.50561 -4.72787,18.50561 l -5.78044,14.60921 c 0,0 -0.37417,-32.39493 -2.00375,-36.97522 0,0 -3.69277,12.1481 -4.73136,13.37641 0,0 0.3497,-14.25827 -1.72049,-20.65627 -2.07019,-6.398 -6.00425,-14.54172 -8.04996,-15.79703 0,0 -7.62683,13.56538 -16.58949,16.25146 -8.96266,2.68608 -20.63196,1.11133 -30.20308,-2.46561 -9.57113,-3.57694 -17.0441,-4.4993 -20.78932,-2.84356 -3.74522,1.65574 -10.84052,5.37666 -13.32684,11.60819 -2.48633,6.23152 -4.96916,11.99062 -4.96916,11.99062 0,0 -0.55251,-18.63159 1.8324,-22.52348 0,0 -5.19645,6.17304 -6.46235,20.02637 -1.26589,13.85334 -2.44786,20.69677 -2.12264,24.40869 0.32522,3.71192 -0.31822,5.84458 -0.31822,5.84458 z"
     id="path6338-8"
     style="fill:#6f5753;stroke:#604946;stroke-width:1.18997px;stroke-miterlimit:10" />
  <path
     class="cls-11"
     d="m 650.47094,258.70975 c 0,0 -6.29449,-8.22472 -13.11353,-10.58235 -6.81903,-2.35763 -15.71176,-2.93804 -18.9779,-2.96053 -3.26614,-0.0225 -13.18696,1.32729 -13.18696,1.32729 0,0 24.76883,2.58709 29.3743,4.38231 4.60547,1.79522 7.56389,3.244 10.03622,6.11455 l 4.75235,5.52513 c 0,0 11.33708,2.29015 13.20794,3.80191 1.87087,1.51176 4.76284,5.7591 5.57763,8.03574 0,0 -0.81829,-6.94691 -5.65106,-9.89845 -4.83277,-2.95154 -6.02173,-5.42615 -12.01899,-5.7456 z"
     id="path6340-5"
     style="fill:#7a635f;stroke-width:0.396658" />
  <path
     class="cls-12"
     d="m 590.32355,382.24243 c 0,0 2.18909,4.98972 6.23505,6.36201 4.04596,1.37229 11.10628,1.13832 12.18334,0.83687 1.07706,-0.30145 6.27701,-1.79972 6.80155,-2.31264 0.52454,-0.51292 2.09817,-2.46561 2.09817,-2.46561 0,0 -17.53367,-7.25737 -27.31811,-2.42063 z"
     id="path6342-8"
     style="fill:#d88494;stroke-width:0.396658" />
  <ellipse
     class="cls-13"
     cx="577.59125"
     cy="336.92999"
     id="circle6346-3"
     rx="5.1579885"
     ry="6.6364622"
     style="fill:#231f20;stroke-width:0.396658" />
  <ellipse
     class="cls-14"
     cx="574.8916"
     cy="333.96948"
     id="circle6348-7"
     rx="1.2169355"
     ry="1.5657552"
     style="fill:#ffffff;stroke-width:0.396658" />
  <ellipse
     class="cls-13"
     cx="632.46521"
     cy="333.6275"
     id="circle6350-1"
     rx="5.1579885"
     ry="6.6364622"
     style="fill:#231f20;stroke-width:0.396658" />
  <ellipse
     class="cls-14"
     cx="629.51727"
     cy="331.39587"
     id="circle6352-3"
     rx="1.2169355"
     ry="1.5657552"
     style="fill:#ffffff;stroke-width:0.396658" />
  <path
     class="cls-15"
     d="m 550.05627,290.20482 c 0,0 -16.55452,-15.3426 -18.10016,-19.7969 -1.54565,-4.4543 -7.31561,-20.80475 3.84663,-36.16085 11.16224,-15.3561 42.35845,-45.08295 72.77135,-45.08295 30.4129,0 52.74436,17.83521 68.54005,34.19466 15.79568,16.35944 20.40465,46.06829 5.77694,57.95543 -14.6277,11.88715 -14.25703,6.91992 -18.10716,8.89061 -3.85013,1.9707 -114.72765,0 -114.72765,0 z"
     id="path6354-8"
     style="fill:#3b6693;stroke:#275782;stroke-width:1.18997px;stroke-miterlimit:10" />
  <path
     class="cls-16"
     d="m 670.7532,284.52221 c 0,0 1.92332,11.88714 -4.2348,16.84087 -6.15811,4.95373 -50.43638,9.89845 -71.22569,7.92326 -20.78932,-1.97519 -46.58276,-0.49492 -46.20159,-23.27936 0.38116,-22.78444 71.60686,-18.33013 71.60686,-18.33013 0,0 45.43576,4.4588 50.05522,16.84536 z"
     id="path6356-0"
     style="fill:#212121;stroke:#040404;stroke-width:1.18997px;stroke-miterlimit:10" />
  <path
     class="cls-17"
     d="m 661.69263,289.7189 c -3.5529,-1.70973 -23.1008,-12.38206 -44.65944,-11.88714 -21.55864,0.49492 -58.12266,8.42268 -58.50033,11.88714 -0.37767,3.46446 6.53928,12.88149 23.07981,12.88149 16.54053,0 66.98741,1.48476 73.53368,-2.47912 6.54628,-3.96388 9.63757,-8.9131 6.54628,-10.40237 z"
     id="path6358-9"
     style="fill:#363636;stroke-width:0.396658" />
  <path
     class="cls-18"
     d="m 549.16805,288.53109 c 0,0 34.19309,-16.89036 59.59837,-16.39544 25.40528,0.49492 39.27065,3.96388 52.74436,11.39222 l 9.52567,5.00322 c 0,0 2.79756,-18.87005 0.10141,-22.83393 -2.69614,-3.96388 -35.03585,-21.7946 -60.84677,-22.28952 -25.81093,-0.49492 -44.65944,11.39222 -61.19648,23.77428 0,0 -1.00711,12.97598 0.0734,21.34917"
     id="path6360-7"
     style="fill:#4478aa;stroke:#275782;stroke-width:1.18997px;stroke-miterlimit:10" />
  <ellipse
     class="cls-5"
     cx="607.55304"
     cy="228.06503"
     rx="12.805799"
     ry="24.287203"
     id="ellipse6362-9"
     style="fill:#fcbf26;stroke:#d39816;stroke-width:0.793316px;stroke-miterlimit:10" />
  <ellipse
     class="cls-6"
     cx="607.65442"
     cy="230.29672"
     rx="6.9309373"
     ry="13.142445"
     id="ellipse6364-9"
     style="fill:#e3af1b;stroke-width:0.396658" />
  <text
     xml:space="preserve"
     style="font-weight:bold;font-size:96px;font-family:FreeSans;-inkscape-font-specification:'FreeSans Bold';opacity:0.8;fill:#004455;fill-rule:evenodd;paint-order:fill markers stroke"
     x="239.10786"
     y="808.45441"
     id="text775"><tspan
       sodipodi:role="line"
       id="tspan773"
       x="239.10786"
       y="808.45441"
       style="fill:#1a1a1a">2 policemen<tspan
   style="fill:#ff2a2a"
   id="tspan929" /></tspan></text>
</svg>
