<?xml version="1.0" encoding="UTF-8" standalone="no"?>
<svg
   id="Layer_3"
   data-name="Layer 3"
   viewBox="0 0 1000 1000"
   version="1.1"
   sodipodi:docname="a dish.svg"
   inkscape:version="1.2 (1:1.2.1+202207142221+cd75a1ee6d)"
   xmlns:inkscape="http://www.inkscape.org/namespaces/inkscape"
   xmlns:sodipodi="http://sodipodi.sourceforge.net/DTD/sodipodi-0.dtd"
   xmlns="http://www.w3.org/2000/svg"
   xmlns:svg="http://www.w3.org/2000/svg">
  <sodipodi:namedview
     id="namedview2960"
     pagecolor="#ffffff"
     bordercolor="#000000"
     borderopacity="0.25"
     inkscape:showpageshadow="2"
     inkscape:pageopacity="0.0"
     inkscape:pagecheckerboard="0"
     inkscape:deskcolor="#d1d1d1"
     showgrid="false"
     inkscape:zoom="0.877"
     inkscape:cx="499.42987"
     inkscape:cy="683.01026"
     inkscape:window-width="1920"
     inkscape:window-height="1031"
     inkscape:window-x="0"
     inkscape:window-y="25"
     inkscape:window-maximized="1"
     inkscape:current-layer="Layer_3" />
  <defs
     id="defs2943">
    <style
       id="style2941">.cls-1,.cls-6{fill:#a99556;}.cls-1{stroke:#8e7940;}.cls-1,.cls-2{stroke-miterlimit:10;stroke-width:3px;}.cls-2{fill:#e2d647;stroke:#c6b014;}.cls-3{fill:#e8de85;}.cls-4{fill:#d7dadd;}.cls-5{fill:#bfbfbf;}</style>
  </defs>
  <title
     id="title2945">dish</title>
  <path
     class="cls-1"
     d="m 247.15328,440.22726 c 0,0 16.04011,42.47051 130.20739,53.52209 114.16728,11.05159 282.87092,-0.57861 316.24528,-11.6302 33.37436,-11.05159 53.88017,-14.54809 59.64914,-34.32853 5.76897,-19.78045 -68.62613,1.74411 -246.30677,4.07511 -177.68063,2.331 -259.79504,-11.63847 -259.79504,-11.63847 z"
     id="path2947" />
  <path
     class="cls-2"
     d="m 265.75433,304.68205 c 0,0 232.83673,-40.14777 462.46544,-3.4965 229.62871,36.65126 164.84855,102.97733 164.84855,102.97733 0,0 -27.57805,42.4705 -202.68862,64.57368 -175.11057,22.10318 -335.46607,7.56335 -389.34624,0 -53.88018,-7.56335 -152.67265,-30.8651 -180.24159,-63.99506 -27.568933,-33.12997 21.80908,-62.25095 48.11121,-72.74045 26.30213,-10.48951 42.97108,-16.26741 96.85125,-27.319 z"
     id="path2949" />
  <path
     class="cls-3"
     d="m 828.92612,329.69484 c 0,0 67.35022,25.62448 64.1422,44.21462 -3.20802,18.59015 -2.56095,33.16304 -82.74326,61.08545 -80.1823,27.92241 -252.07574,35.48577 -324.55697,33.74165 -72.48123,-1.74412 -212.34914,-2.331 -302.75701,-37.19682 -90.407874,-34.86582 -53.24222,-67.52463 -53.24222,-67.52463 0,0 20.52405,-20.93768 66.71226,-34.32027 0,0 -64.78927,35.48577 -53.24221,53.52209 11.54705,18.03633 51.52884,58.37422 240.96614,67.5825 189.43731,9.20828 388.9179,-15.2259 429.32804,-35.00635 40.41013,-19.78044 59.01118,-26.75691 53.88017,-43.62773 -5.13101,-16.87083 -14.108,-20.94595 -23.09411,-30.25342 -8.9861,-9.30747 -15.39303,-12.21709 -15.39303,-12.21709 z"
     id="path2951"
     style="stroke-width:0.867948" />
  <path
     class="cls-4"
     d="m 357.47458,344.24293 c 0,0 89.1593,-8.72885 114.17639,-8.15023 25.0171,0.57861 135.34752,-0.57862 165.48651,4.65373 l 90.44433,15.70533 c 0,0 40.41013,10.4647 45.56848,20.35906 5.15836,9.89435 -1.92299,24.43417 -23.0941,30.25341 -21.17112,5.81924 -95.56623,19.78044 -128.92236,22.10318 -33.35613,2.32273 -118.66945,5.24062 -139.83145,3.48823 -21.162,-1.75238 -91.72936,-4.06685 -110.33041,-6.97647 -18.60106,-2.90962 -76.99252,-9.2992 -94.95561,-18.60667 -17.9631,-9.30748 -28.86308,-11.05986 -26.94009,-22.10318 1.92299,-11.04332 8.97699,-15.12671 32.0711,-23.8473 23.09411,-8.72058 53.88017,-18.04459 76.32721,-16.87909 z"
     id="path2953"
     style="stroke-width:0.867948" />
  <path
     class="cls-5"
     d="m 286.59736,410.27142 c 0,0 -21.48098,-24.65736 -17.02439,-29.52601 4.4566,-4.86865 6.37959,-13.53137 71.84328,-27.06275 65.46368,-13.53138 187.96088,-9.7373 227.08598,-8.65446 39.1251,1.08284 137.26139,13.53138 157.14748,20.02015 19.88608,6.48878 36.56415,14.05214 31.43314,22.73139 -5.13101,8.67926 -15.07406,20.16068 -15.07406,20.16068 0,0 30.14811,-11.62194 32.70906,-19.19356 2.56095,-7.57162 -8.28435,-21.64855 -20.05013,-25.62447 -11.76579,-3.97593 -93.19667,-19.15223 -93.19667,-19.15223 0,0 -84.66624,-8.66273 -107.12239,-8.11718 -22.45615,0.54556 -89.74257,-0.97538 -116.39102,2.47979 -26.64845,3.45517 -73.56576,2.92615 -89.55119,6.98474 -15.98542,4.05858 -64.41561,13.77109 -64.41561,13.77109 l -26.94009,13.38259 -9.62406,13.9612 15.39303,14.54809 z"
     id="path2955"
     style="stroke-width:0.867948" />
  <path
     class="cls-6"
     d="m 766.70691,367.51161 c -32.70906,-20.36733 -127.63732,-29.65826 -127.63732,-29.65826 0,0 -267.47789,-19.78045 -363.69119,22.11144 -96.2133,41.89189 65.42723,63.99506 65.42723,63.99506 47.46413,9.91915 171.25548,12.79571 171.25548,12.79571 153.30149,2.331 239.25277,-27.3438 239.25277,-27.3438 8.33903,-1.76065 48.1112,-21.54109 15.39303,-41.90015 z m 3.85509,23.8473 c -5.13101,7.56335 -32.71817,22.11144 -139.19349,34.32853 -106.47532,12.21709 -265.5549,-2.331 -265.5549,-2.331 l -41.68605,-6.39786 c -80.82026,-14.53982 -76.33632,-31.41064 -67.99729,-40.72638 8.33903,-9.31574 51.94807,-21.4915 87.87427,-26.1783 35.92619,-4.6868 88.52133,-13.37432 202.05066,-11.6302 113.52932,1.74411 182.8481,20.92114 203.33569,27.34379 20.48759,6.42265 26.30213,18.02806 21.17111,25.59142 z"
     id="path2957"
     style="stroke-width:0.867948" />
  <text
     xml:space="preserve"
     style="font-weight:bold;font-size:96px;font-family:FreeSans;-inkscape-font-specification:'FreeSans Bold';opacity:0.8;fill:#004455;fill-rule:evenodd;paint-order:fill markers stroke"
     x="369.45105"
     y="795.09009"
     id="text775"><tspan
       sodipodi:role="line"
       id="tspan773"
       x="369.45105"
       y="795.09009"
       style="fill:#1a1a1a">a dish</tspan></text>
</svg>
