<svg id="Layer_1" data-name="Layer 1" xmlns="http://www.w3.org/2000/svg" viewBox="0 0 1000 1000"><defs><style>.cls-1{fill:#418bca;stroke:#0761a3;}.cls-1,.cls-12,.cls-15,.cls-16,.cls-20,.cls-21,.cls-3,.cls-5,.cls-6,.cls-7,.cls-8,.cls-9{stroke-miterlimit:10;}.cls-1,.cls-12,.cls-15,.cls-16,.cls-20,.cls-3,.cls-5,.cls-6,.cls-7,.cls-8,.cls-9{stroke-width:3px;}.cls-2{fill:#2b7dba;}.cls-3{fill:#bf1029;stroke:#9b001e;}.cls-4{fill:#aa0f34;}.cls-15,.cls-5{fill:#fed1a5;}.cls-5{stroke:#d3a885;}.cls-6{fill:#3b3b3b;stroke:#191919;}.cls-7{fill:#efefef;stroke:#828282;}.cls-8{fill:#ececec;}.cls-8,.cls-9{stroke:#5b5b5b;}.cls-12,.cls-9{fill:#fce910;}.cls-10{fill:#dcb303;}.cls-11{fill:#575757;}.cls-12{stroke:#a89807;}.cls-13{fill:#ffb092;}.cls-14{fill:#dab504;}.cls-15{stroke:#eabf98;}.cls-16{fill:#452b1e;stroke:#2b1a13;}.cls-17{fill:#655244;}.cls-18{fill:#191818;}.cls-19{fill:#fff;}.cls-20{fill:#ea1f4b;stroke:#e50e47;}.cls-21{fill:none;stroke:#d36037;stroke-width:4px;}</style></defs><title>exercise</title><path class="cls-1" d="M265.25,953.45c55.05,34.32,290.29,41.1,384.78,17.69S812.82,951.88,814,901.57,781.18,773.35,719.66,755,405.22,708.49,308.9,735.94,161.76,834.81,199.3,880.51,227.59,930,265.25,953.45Z"/><path class="cls-2" d="M582.53,907s-68.89,25.75-93.25,29.23-72.37-11.14-87-14.62-52.19-22.26-32-43.14,43.84-47.32,66.8-51.49,42.45-7.66,43.84-13.92,65.41,2.79,70.28,18.79,44.54,13.92,46.62,33.4S582.53,907,582.53,907Z"/><path class="cls-3" d="M564.28,616.36l-15.38,4.81,7.69-17.3S565.24,610.59,564.28,616.36Z"/><path class="cls-4" d="M535,758.38s11.59-4.79,14.65-7.81,4-6.36,4.27-2.4,7.78,17.68,8.38,19.51,2.7,5.18-.68,10.33-12.89,19.37-14.74,23-6.8,16.37-10.16,18.48-15,9.93-20.12,9.59-12.78,1.13-17.92-2.25-7.87-5.52-7.25-6.73,17.28,6.5,30.41-2.84a69,69,0,0,0,22.68-26.6C548.2,783.39,557,779.5,555.28,771s-2-15.51-4.77-14.62S537.12,758.69,535,758.38Z"/><path class="cls-5" d="M494.89,587.77s-9.46,51.62-12,62.54c0,0,.59,1.83,2,24.64s0,49.55-2.79,53.48-40.47,6.11-40.47,6.11-1.44-57.15-4.44-63.25-10.19-22-8-30.76-7.63-42-7.63-42S458.8,576.29,475.49,581,494.89,587.77,494.89,587.77Z"/><path class="cls-6" d="M665.37,524.31s-34.91,17.22-42.25,20.9S598.52,559.4,596,562.57s-5,17,4.69,16.91,66.55-38,70-42.19S665.37,524.31,665.37,524.31Z"/><path class="cls-7" d="M441.37,725.88a20.64,20.64,0,0,0,19.75,3.32c11.88-3.87,22.89-15.26,23.5-14.08s-3.19,23.64-4.13,27,2.92,18.26,2.92,18.26L453.61,762l-11.84-2.21-.89-2.74S441.05,726.34,441.37,725.88Z"/><path class="cls-8" d="M492.77,770.45s4.49,10.67,4.17,12.79-10.48,20.61-15.4,30.3-10.79,22.73-26,28.7-31.93,1.31-35.84-4.49-6.38-16.47-5.86-18,44.4-18.85,44.4-18.85Z"/><path class="cls-9" d="M443.64,753.1s11.82,5.25,22.81-1.37,15-11.45,15.26-10.54.21,14.6,9,22.86-3.18,21.26-7.47,26.7-8,18.8-12.64,26.36-20.8,19.93-36.9,17.09-20.6-10.48-20.26-15.64S426,798.27,429.71,791s6.89-31.56,8.13-34S437.58,750,443.64,753.1Z"/><path class="cls-10" d="M460,758.38s11.58-4.79,14.64-7.81,4-6.36,4.27-2.4,7.79,17.68,8.38,19.51,2.7,5.18-.67,10.33-12.9,19.37-14.75,23-6.79,16.37-10.15,18.48-15,9.93-20.13,9.59-12.77,1.13-17.92-2.25-7.86-5.52-7.25-6.73,17.29,6.5,30.42-2.84a69,69,0,0,0,22.67-26.6c3.7-7.27,12.54-11.16,10.77-19.69s-2-15.51-4.77-14.62S462.14,758.69,460,758.38Z"/><path class="cls-5" d="M569.87,587.77s-9.46,51.62-12,62.54c0,0,.6,1.83,2,24.64s0,49.55-2.79,53.48-40.47,6.11-40.47,6.11-1.44-57.15-4.44-63.25-10.19-22-8-30.76-7.62-42-7.62-42,37.23-22.24,53.92-17.57S569.87,587.77,569.87,587.77Z"/><path class="cls-7" d="M516.35,725.88a20.64,20.64,0,0,0,19.75,3.32c11.88-3.87,22.89-15.26,23.49-14.08s-3.19,23.64-4.12,27,2.92,18.26,2.92,18.26L528.59,762l-11.84-2.21-.9-2.74S516,726.34,516.35,725.88Z"/><path class="cls-8" d="M567.74,770.45s4.49,10.67,4.17,12.79-10.47,20.61-15.4,30.3-10.79,22.73-26,28.7-31.92,1.31-35.84-4.49-6.38-16.47-5.86-18,44.41-18.85,44.41-18.85Z"/><path class="cls-9" d="M518.61,753.1s11.82,5.25,22.81-1.37,15-11.45,15.27-10.54.21,14.6,9,22.86-3.18,21.26-7.48,26.7-8,18.8-12.63,26.36S524.74,837,508.65,834.2s-20.6-10.48-20.26-15.64S501,798.27,504.68,791s6.9-31.56,8.13-34S512.56,750,518.61,753.1Z"/><path class="cls-10" d="M536,760.3s11.58-4.79,14.64-7.81,4-6.35,4.27-2.4,7.79,17.68,8.38,19.51,2.7,5.19-.68,10.33-12.89,19.37-14.74,23-6.8,16.37-10.15,18.48-15,9.93-20.13,9.59-12.77,1.13-17.92-2.24-7.87-5.53-7.25-6.74,17.28,6.5,30.42-2.84a69,69,0,0,0,22.67-26.6c3.69-7.27,12.53-11.16,10.77-19.68s-2-15.52-4.77-14.63S538.08,760.62,536,760.3Z"/><path class="cls-6" d="M422,495.25s1.92,58.63,0,63.44-4.81,44.21-3.85,48.06,11.54,13.46,42.3,9.61,31.33-7.74,31.33-7.74l9-35.51,1.92-14.42,2.89-40.37Z"/><path class="cls-11" d="M465.27,523.12c1,1.92,7.69,20.19,11.54,26s5.77,13.46,3.84,20.19-2.88,16.34-3.84,21.15S472,601,474.89,605.79s6.73,3.84,8.65,1.92,7.69-20.19,7.69-20.19l9.61-28.83V529.85l-19.22-9.61Z"/><path class="cls-6" d="M489,528.09s8.27,27.24,7.67,31.16-7.4,35.42-7.14,38.29,3.64,11.31,5.55,11.13,18.8-8.46,42.3-4.8,30.65,7.76,31.78,9.59,10.27-3.83,11.32-13.58-1.4-36.55-1-42.38,1.48-47.43-1-54-33.94,8.88-46.29,11-32.11,7.75-36.81,9.15S489,528.09,489,528.09Z"/><path class="cls-6" d="M481.62,538.5s16.51,13.87,14.5,20.39"/><path class="cls-11" d="M544.45,518.09s18.72,9.43,19.45,14.84-3.06,13.28-4,20.76,3.26,17,3.87,21.53,1.89,14-.82,15.51-13.67-.69-13.67-.69,13.35,5.55,15.74,8.9,4.91,7.61,6.69,6.46,5.19-19.08,4.06-41.9-.35-45.9-.6-47.71-3.12-8.77-4.07-8.64S544.45,518.09,544.45,518.09Z"/><polygon class="cls-3" points="584.85 400.53 593.12 383.74 581.58 373.17 580.62 400.08 584.85 400.53"/><path class="cls-12" d="M601.11,423.68s8.42-1,11.75-5.56-5-13.72-5-13.72l-8,.49S593.72,422.27,601.11,423.68Z"/><path class="cls-5" d="M423.66,320.54c-1.91.27-13.31-1.57-23,26.92s-11,61.65-11,61.65S354.62,450.76,341.72,470c0,0-22.32,19.33-30.24,25.27-2.52,1.88-11.23,20.14-4.81,25,27.1,20.43,30.7,18,36.53,14.42,12.69-7.85,15.6-17,16.34-19.23,2.88-8.65,3.79-22.2,6.38-24.5s57-51.44,61.38-54.95,11.51-36.5,13.19-45.46.81-65.11-3.26-66.49S423.66,320.54,423.66,320.54Z"/><path class="cls-13" d="M435.48,390.47c-1,0-16.35,32.68-21.15,38.45s-14.42,14.42-21.15,20.19-21.15,20.18-23.07,22.1-10.57,11.54-10.57,11.54,54.79-34.61,60.56-39.41,19.22-36.53,19.22-39.41S435.48,390.47,435.48,390.47Z"/><path class="cls-5" d="M589.27,318.38c1,0,14.42-1,24,15.38S645,398.16,647,402s10.57,12.49,9.61,34.6-11.53,69.21-12.5,73.05S646,524.08,646,526s5.76,16.34,6.73,20.18-7.69,22.11-12.5,27.88-18.26-1-23.07-2.89-5.77-11.53-4.81-15.38-2.88,1-4.8,0-4.81-4.8-2.89-12.49,7.69-20.19,8.66-26.92-1.93-59.59,0-69.21,3.84-16.34,3.84-16.34S596,403.93,589.27,389.51s-20.18-27.88-20.18-27.88Z"/><path class="cls-13" d="M590.24,368.36s11.53,23.07,16.34,30.76,9.61,11.54,12.49,16.34,7.69,10.58,5.77,16.34S620,446.22,619.07,451s-1,11.53-1.92,13.46,1-23.07,1.92-31.72-14.42-25-19.22-29.8-12.5-20.11-13-25S590.24,368.36,590.24,368.36Z"/><path class="cls-12" d="M423,320.3s-10.57,1.92-15.38,11.54-13.46,36.52-15.38,42.29-3.84,12.5-5.77,17.3,9.62,2.89,21.15,8.65,20.19,10.58,26.91,12.5,11.54,5.77,11.54,2.88-14.42-70.17-15.38-71.13S423,320.3,423,320.3Z"/><path class="cls-14" d="M420.58,325.59c-1,0-1.93,5.76-1.93,16.34s2.89,21.15,3.85,31.72,2.88,13.46,0,19.22-6.73,8.65-2.88,9.62,20.18,4.8,20.18,5.76,1-45.17,0-48.06S420.58,325.59,420.58,325.59Z"/><path class="cls-12" d="M606.58,324.15s13.45,12.49,18.26,22.1,12.5,26.92,15.38,31.72A57.55,57.55,0,0,1,645,389.51s-25,6.73-28.84,8.65-15.38,11.54-15.38,15.38-1.92,7.69,0,9.61-5.77,2.89-7.69-3.84l-9.61-33.65-10.58-11.53s8.65-44.22,11.54-47.1S606.58,324.15,606.58,324.15Z"/><path class="cls-12" d="M463.35,311.65c-1.92,0-24,1.92-29.8,3.84s-12.49,3.85-12.49,5.77,1.92,26.92,5.76,40.37a196.88,196.88,0,0,1,6.73,32.69c1,8.65-9.61,38.45-9.61,45.17s-4.81,19.23-4.81,25-4.8,24,1.93,34.6,24,23.07,51.9,26.92,57.68-1.93,69.21-4.81,37.49-13.46,41.34-18.26-2.89-48.07-1.93-55.76,4.18-57.85,4-64.49,1.75-46.05,15.21-55.66c0,0,3-2.09,8.73,1.36,0,0,2.8-.4,1.84-2.32s-6.73-9.61-26-14.42S549.86,304,549.86,304,498,302,480.65,307.8,463.35,311.65,463.35,311.65Z"/><path class="cls-15" d="M467.2,311.65s15.38,49,30.76,50,47.1-27.87,50-32.68,4.81-21.15,4.81-21.15l-10.58-7.69Z"/><path class="cls-12" d="M550.82,302c-4.8-1-90.35,6.73-90.35,6.73s-3.85,17.3,14.42,40.37,25,24,29.8,23.07,37.48-26,42.29-31.72,14.42-24,14.42-28.84S555.63,303,550.82,302Zm-11.53,22.11c-4.81,8.65-23.07,28.83-39.41,29.79s-25-41.33-25-41.33,62.48-13.46,70.17-6.73S544.1,315.49,539.29,324.15Z"/><path class="cls-14" d="M576.78,404.89c-1,10.57-12.5,43.25-15.38,46.14s-17.3,14.42-8.65,13.46,21.14-14.42,18.26-1.93-3.84,22.11-9.61,27.88,18.26-2.88,10.57,3.84-24,17.31-17.3,15.38,25-8.65,26-15.38-3.84-55.75-2.88-64.4S576.78,404.89,576.78,404.89Z"/><path class="cls-14" d="M433.55,408.73c1,2.89-2.88,22.11,1.93,34.61s1,20.18-2.89,17.3-1,17.3,0,22.11,1.92,12.5-1.92,12.5S423,484.67,423,476s1-30.76,2.88-35.57S433.55,408.73,433.55,408.73Z"/><path class="cls-14" d="M580.62,323.18c-1,0-7.69-3.84-12.49,0s-8.65,6.73-8.65,3.85,3.84-15.38,3.84-16.34,20.19,2.88,22.11,3.84S580.62,323.18,580.62,323.18Z"/><path class="cls-14" d="M456.62,322.22c-1.92-1-13.45,1.93-17.3,2.89S429.71,328,427.79,328s-10.58-6.73-1.93-7.69,25-2.88,26.92-3.84S456.62,322.22,456.62,322.22Z"/><path class="cls-13" d="M646,536.58s6.73,7.69,3.84,14.42a124.23,124.23,0,0,1-9.61,17.3c-1.92,2.88-1.92,5.77-6.73,4.81s-12.5-1-13.46-2.89-3.84-5.77-4.8-7.69,1,7.69,10.57,2.89,16.34-5.77,17.3-12.5,0-10.57-1-16.34-2.88-7.69-1.92-12.5a49.07,49.07,0,0,0,1-8.65Z"/><path class="cls-16" d="M390.3,162.66,409,218.89s9.61-10.57,8.65-12.5-4.32-43.73-4.32-43.73Z"/><path class="cls-5" d="M412.17,204.42s-8.9-3.79-11.78-2.83-7.69,4.8-7.69,7.69-1.92,12.49,1.92,21.14S409,245.8,413.85,246.77,412.17,204.42,412.17,204.42Z"/><path class="cls-13" d="M408.08,234.27s-4.81-1-4.81-4.81,2.89-5.76,1.93-8.65-1-4.8-2.89-5.77a7.43,7.43,0,0,0-2.88-1s1.92-6.73,4.81-4.8a11.82,11.82,0,0,1,4.8,9.61C409,222.73,408.08,234.27,408.08,234.27Z"/><path class="cls-5" d="M594.56,252.53s1.92,18.27-10.57,29.8-53.83,34.61-74,37.49S443.65,315,426.34,288.1,412.89,242,413.85,231.39s-2.89-37.49-5.77-55.76,6.73-40.37,55.75-42.29,106.7,1,123,9.61,13.46,67.29,13.46,67.29,13.46-8.65,19.22-6.73,15.38,13.46,12.5,23.07-6.73,20.19-21.15,24S594.56,252.53,594.56,252.53Z"/><path class="cls-13" d="M601.29,239.08c.68-.68,3.84,1,4.81-2.89s1-4.8,0-6.73,0-6.73,1.92-9.61,5.77-6.73,9.61-5.77,6.73,3.85,6.73,6.73,1,6.73-1,4.81-4.81-4.81-7.69-3.85-6.73,1.93-5.77,5.77,1,6.73,0,9.61-1.92,5.77-4.81,5.77-3.84,1-3.84,0S600.33,240,601.29,239.08Z"/><path class="cls-16" d="M578.7,168.42s9.61,34.61,9.61,37.49,2.89,15.38,2.89,15.38,10.57-12.49,12.49-14.42,11.81-3.41,13.6-3.63,5.63,4.6,7.55,2.67,11.53-35.56,11.53-35.56Z"/><path class="cls-16" d="M606.1,91c0-3.84-17.31-49-32.69-54.79s-34.6-12.49-35.56-9.61,6.73,11.54-1.92,6.73S510,22.8,501.32,22.8s-27.88,2.88-29.8,7.69-61.52,7.69-73,17.3-6.73,21.15-6.73,21.15a38.25,38.25,0,0,1-21.63,16.82c-15.13,4.73-12.49,22.11-9.61,26.91S371.07,129,373,128.05,358.58,149.2,363.38,155s12.36,11.39,17.31,16.34c8.65,8.65,42.77,17.78,62,4.32,0,0,17.3,17.31,59.59,1,0,0,1,3.85,10.58,2.89s40.37-2.89,53.82-12.5a155.76,155.76,0,0,1,9.14,13.94c5.76,9.61,11.53-6.73,12.49-7.69s5.77,11.54,6.73,15.38,19.23-6.73,22.11-8.65,7.69,1,12.5,3.84,5.72-1.76,7.69-2.88,6.24-5.29,5.28-17.78c0,0,2.89,1.92,5.77-3.85s-4.81-45.18-21.15-54.79c0,0-8.65-9.61-17.3-8.65,0,0-1-18.26-1.92-15.38S606.1,91,606.1,91Z"/><path class="cls-17" d="M593.6,96.81c-1.92-6.73-15.38-32.68-26-39.41s-18.27,0-19.23,2.89-18.26-9.62-27.87-12.5S504.2,38.18,490.75,42s-28.84,12.5-41.34,10.58-26.91-6.73-32.68,1.92-18.26,23.07-21.15,31.72S379.24,119.88,385,117s26.92-41.34,49-44.22S468.64,56.44,492.67,67s33.64,1,30.76-1-5.77-5.76,12.5,5.77,22.1-1.92,32.68,7.69,12.49,17.3,20.18,24,25,7.69,31.72,18.26,11.54,30.76,12.5,23.07-3.84-23.07-11.53-29.79S593.6,96.81,593.6,96.81Z"/><path class="cls-16" d="M532.47,194.65a1.35,1.35,0,0,1-1.08-2.31c3.41-3.28,9.78-8.13,16.07-6.12,9.2,2.95,15.38,6.23,15,8.11s-4,5-9.46,2.9-13.16-2.81-14.1-3A54,54,0,0,0,532.47,194.65Z"/><path class="cls-16" d="M456,189.19s-7.82-4.6-12.62-4.47S432,186,430.54,187.48s.65,8.15,5.43,7.06,14.42-.39,16.34-.44S457,190.12,456,189.19Z"/><ellipse class="cls-18" cx="539.3" cy="227.94" rx="11.81" ry="10.77" transform="translate(253.66 739.03) rotate(-83.71)"/><circle class="cls-19" cx="533.95" cy="224.91" r="3.39"/><ellipse class="cls-18" cx="453.59" cy="226.98" rx="11.81" ry="10.77" transform="translate(178.3 652.98) rotate(-83.71)"/><circle class="cls-19" cx="448.25" cy="223.95" r="3.39"/><path class="cls-5" d="M486.42,242a27.91,27.91,0,0,1-5.63,12.56c-2.68,3.36-5.9,4.63-1.8,8.46s13.7,4.88,15,3.2"/><path class="cls-20" d="M473.93,281.85s1,17.3,11.53,18.26,22.11,0,29.8-19.22Z"/><path class="cls-6" d="M369.58,490.63s-36.23,14.25-43.85,17.3S300,520,297.21,523s-6.37,16.49,3.26,17.24S370,507.93,373.72,504,369.58,490.63,369.58,490.63Z"/><path class="cls-13" d="M560,614s-10.58-3.85-15.38-4.81-5.77-2.88-2.89,2.89,5.77,21.14,5.77,33.64,0,22.11,1,32.68,1.92,30.76,1.92,33.64,0,4.81,2.89-1.92,2.88-47.1,1.92-52.87S560,612,560,612Z"/><path class="cls-21" d="M598.89,573.11S503.72,830.72,453.74,854.75s-91.32,27.87-143.23,0-80.74-102.85-73-146.11,22.11-87.47,26.92-99,33.16-75.45,33.16-75.45"/><path class="cls-5" d="M319.85,535.62s-8.91-9.61-7.8-12.5,2.23-10.57,10-9.61,14.48-1,21.17-4.81a35.81,35.81,0,0,1,15.59-4.8c2.23,0,6.69,5.76,4.46,9.61s-8.91,25-22.28,24S322.08,540.42,319.85,535.62Z"/><path class="cls-14" d="M607.54,332.8s8.65,7.69,10.57,11.53,2.88,7.69,6.73,15.38,12.5,22.11,12.5,23.07-8.66,2.88-14.42,5.77-14.42,6.73-14.42,6.73S599,403,598,404.4s-1,6.26-3.92-.47-8.23-11.16-5.08-11.35,19.5-5,25.27-8.84,11.53-7.69,7.69-19.22S607.54,332.8,607.54,332.8Z"/><path class="cls-14" d="M534,402.49s-5.76,11.53-13.45,15.38-18.27,6.72-22.11,2.88-4.81,1-1,4.81,15.38,7.69,23.07,3.84,20.18-13.46,25-22.11S556.11,389,556.11,389Z"/><path class="cls-14" d="M461.91,436.13c1.92,4.81,19.22,27.88,24,28.84s11.54,9.61,2.88,7.69-21.14-13.46-26.91-21.15-9.61-23.07-9.61-27.88S461.91,436.13,461.91,436.13Z"/><path class="cls-14" d="M472.48,499.57c8.37,3.49,28.84,8.65,33.65,10.57s7.69,2.89-7.69,1.93-26,1-32.69-5.77S461,494.76,472.48,499.57Z"/><path class="cls-13" d="M469.6,618.76s10.57-1.92,13.46-2.88-3.85,12.5-4.81,19.23-3.84,21.14-1.92,26.91,2.88,24,2.88,26.92-1,15.37-1,15.37-1-39.41-2.88-43.25-2.89-16.34-2.89-22.11S469.6,618.76,469.6,618.76Z"/></svg>