<svg id="Capa_1" enable-background="new 0 0 512 512" height="512" viewBox="0 0 512 512" width="512" xmlns="http://www.w3.org/2000/svg"><path d="m449.919 180.259h-81.73c-10.235 0-18.533-8.297-18.533-18.533v-30.432c0-10.235 8.297-18.533 18.533-18.533h81.73c10.235 0 18.533 8.297 18.533 18.533v30.432c0 10.236-8.297 18.533-18.533 18.533z" fill="#81a7c6"/><path d="m436.728 127.718c-4.204 0-7.612-3.408-7.612-7.612v-79.098c0-4.204 3.407-7.612 7.612-7.612 4.204 0 7.612 3.408 7.612 7.612v79.099c0 4.203-3.408 7.611-7.612 7.611z" fill="#4d5961"/><path d="m381.381 127.718c-4.204 0-7.612-3.408-7.612-7.612v-79.098c0-4.204 3.407-7.612 7.612-7.612s7.612 3.408 7.612 7.612v79.099c-.001 4.203-3.408 7.611-7.612 7.611z" fill="#4d5961"/><path d="m351.346 48.353h153.042v-44.549h-153.042c-12.143 0-21.987 9.844-21.987 21.987v.575c0 12.143 9.844 21.987 21.987 21.987z" fill="#909ba5"/><path d="m318.292 508.196h186.096v-94.033h-171.228c-8.211 0-14.867 6.656-14.867 14.867v79.166z" fill="#b9c1cb"/><path d="m496.777 3.804h15.223v504.391h-15.223z" fill="#909ba5"/><path d="m51.209 454.136h215.872v31.169h-215.872z" fill="#c6865c"/><path d="m90.917 419.5-9.677 26.557-22.651 62.139h-58.589l42.004-65.09 15.231-23.606z" fill="#b9c1cb"/><path d="m70.305 419.5-40.329 88.696h-29.976l57.235-88.696z" fill="#909ba5"/><path d="m318.296 508.196h-58.597l-22.652-62.139-9.676-26.557h33.69l15.231 23.606z" fill="#b9c1cb"/><g fill="#909ba5"><path d="m247.987 419.5 40.329 88.696h29.976l-57.235-88.696z"/><path d="m57.235 419.5 20.08-12.983 13.602 12.983-9.677 26.557h-24.005c-5.389 0-10.527-1.05-15.231-2.951z"/><path d="m276.292 443.106c-4.704 1.901-9.85 2.951-15.231 2.951h-24.014l-9.677-26.557 11.849-19.043 21.841 19.043z"/></g><path d="m159.145 140.305 75.089-33.005-2.817-20.775c-.746-5.536-5.469-9.657-11.05-9.657h-122.442c-5.582 0-10.304 4.12-11.05 9.657l-2.818 20.775z" fill="#b9c1cb"/><path d="m172.371 134.495-13.226 5.815-75.087-33.013 2.812-20.768c.746-5.537 5.468-9.659 11.048-9.659h26.444c-5.58 0-10.301 4.122-11.048 9.659l-2.812 20.768z" fill="#909ba5"/><path d="m261.057 107.299h-203.825c-22.457 0-40.662 18.205-40.662 40.662v230.881c0 22.457 18.205 40.662 40.662 40.662h203.825c22.457 0 40.662-18.205 40.662-40.662v-230.881c.001-22.457-18.205-40.662-40.662-40.662z" fill="#da4a54"/><path d="m80.323 419.5h-23.094c-22.452 0-40.659-18.199-40.659-40.659v-230.877c0-22.46 18.208-40.668 40.659-40.668h23.094c-22.46 0-40.668 18.208-40.668 40.668v230.877c0 22.46 18.208 40.659 40.668 40.659z" fill="#d82e3d"/><path d="m131.059 170.873h-71.412c-10.865 0-19.673 8.808-19.673 19.673v62.319c0 10.865 8.808 19.673 19.673 19.673h71.412c10.865 0 19.673-8.808 19.673-19.673v-62.319c0-10.865-8.808-19.673-19.673-19.673z" fill="#d3effb"/><path d="m167.558 190.546v62.319c0 10.865 8.808 19.673 19.673 19.673h71.413c10.865 0 19.673-8.808 19.673-19.673v-62.319c0-10.865-8.808-19.673-19.673-19.673h-71.414c-10.865 0-19.672 8.808-19.672 19.673z" fill="#d3effb"/><path d="m131.059 277.745h-71.412c-13.719 0-24.88-11.161-24.88-24.88v-62.319c0-13.719 11.161-24.88 24.88-24.88h71.412c13.719 0 24.88 11.161 24.88 24.88v62.319c0 13.719-11.161 24.88-24.88 24.88zm-71.412-101.665c-7.976 0-14.465 6.489-14.465 14.466v62.319c0 7.976 6.489 14.465 14.465 14.465h71.412c7.976 0 14.466-6.489 14.466-14.465v-62.319c0-7.976-6.489-14.466-14.466-14.466z" fill="#d82e3d"/><path d="m258.643 277.745h-71.413c-13.719 0-24.88-11.161-24.88-24.88v-62.319c0-13.719 11.161-24.88 24.88-24.88h71.413c13.719 0 24.88 11.161 24.88 24.88v62.319c0 13.719-11.161 24.88-24.88 24.88zm-71.413-101.665c-7.976 0-14.465 6.489-14.465 14.466v62.319c0 7.976 6.489 14.465 14.465 14.465h71.413c7.976 0 14.465-6.489 14.465-14.465v-62.319c0-7.976-6.489-14.466-14.465-14.466z" fill="#d82e3d"/><circle cx="63.729" cy="343.808" fill="#ecbe6b" r="23.431"/><circle cx="254.561" cy="343.808" fill="#ecbe6b" r="23.431"/><path d="m63.729 373.748c-16.509 0-29.94-13.431-29.94-29.94s13.431-29.94 29.94-29.94 29.94 13.431 29.94 29.94-13.431 29.94-29.94 29.94zm0-46.861c-9.331 0-16.922 7.591-16.922 16.922s7.591 16.922 16.922 16.922 16.922-7.591 16.922-16.922-7.591-16.922-16.922-16.922z" fill="#d82e3d"/><path d="m254.561 373.748c-16.509 0-29.939-13.431-29.939-29.94s13.431-29.94 29.939-29.94 29.939 13.432 29.939 29.941c0 16.508-13.431 29.939-29.939 29.939zm0-46.861c-9.33 0-16.922 7.591-16.922 16.922s7.591 16.922 16.922 16.922 16.922-7.591 16.922-16.922c-.001-9.331-7.592-16.922-16.922-16.922z" fill="#d82e3d"/><circle cx="266.651" cy="139.35" fill="#e7ecf1" r="10.567"/><circle cx="51.639" cy="139.35" fill="#e7ecf1" r="10.567"/><path d="m208.872 419.504-5.139-30.194c-1.195-7.032-7.295-12.179-14.43-12.179h-60.312c-7.143 0-13.235 5.146-14.437 12.179l-5.139 30.194" fill="#4d5961"/><path d="m188.201 151.828h-58.113c-6.364 0-11.522-5.159-11.522-11.522 0-6.364 5.159-11.522 11.522-11.522h58.113c6.364 0 11.522 5.159 11.522 11.522.001 6.363-5.158 11.522-11.522 11.522z" fill="#ecbe6b"/><path d="m206.233 314.827h-94.183c-3.595 0-6.509-2.914-6.509-6.509s2.914-6.509 6.509-6.509h94.183c3.595 0 6.509 2.914 6.509 6.509s-2.913 6.509-6.509 6.509z" fill="#4d5961"/><path d="m206.233 337.379h-94.183c-3.595 0-6.509-2.914-6.509-6.509s2.914-6.509 6.509-6.509h94.183c3.595 0 6.509 2.914 6.509 6.509s-2.913 6.509-6.509 6.509z" fill="#4d5961"/></svg>