<svg id="Layer_1" data-name="Layer 1" xmlns="http://www.w3.org/2000/svg" viewBox="0 0 1000 1000">
  <defs>
    <style>
      .cls-1 {
        font-size: 120px;
        font-family: FreeSansBold, FreeSans;
      }

      .cls-2 {
        letter-spacing: -0.02em;
      }

      .cls-3, .cls-6 {
        letter-spacing: -0.01em;
      }

      .cls-4, .cls-7 {
        letter-spacing: 0em;
      }

      .cls-5 {
        letter-spacing: -0.02em;
      }

      .cls-6, .cls-7 {
        fill: #ec1e24;
      }

      .cls-8 {
        fill: #f9ed3f;
      }

      .cls-14, .cls-8, .cls-9 {
        stroke: #b7aa34;
      }

      .cls-12, .cls-14, .cls-15, .cls-8, .cls-9 {
        stroke-miterlimit: 10;
      }

      .cls-12, .cls-15, .cls-8, .cls-9 {
        stroke-width: 3px;
      }

      .cls-9 {
        fill: #f1fcdc;
      }

      .cls-10 {
        fill: #fafb6f;
      }

      .cls-11 {
        fill: #e9d129;
      }

      .cls-12, .cls-13 {
        fill: #fff;
      }

      .cls-12 {
        stroke: #c9c9c9;
      }

      .cls-14 {
        fill: none;
        stroke-width: 4px;
      }

      .cls-15 {
        fill: #5050f9;
        stroke: #1e1ef4;
      }

      .cls-16 {
        fill: #7c7cf7;
      }
    </style>
  </defs>
  <title>glue</title>
  <text class="cls-1" transform="translate(122.83 802.7)"><tspan class="cls-2">g</tspan><tspan x="70.92" y="0">l + </tspan><tspan class="cls-3" x="241.08" y="0">u</tspan><tspan class="cls-4" x="313.2" y="0">e = </tspan><tspan class="cls-5" x="516.72" y="0">g</tspan><tspan x="587.64" y="0">l</tspan><tspan class="cls-6" x="621" y="0">u</tspan><tspan class="cls-7" x="693.12" y="0">e</tspan></text>
  <g>
    <path class="cls-8" d="M529.83,210.57,311.88,443S354,512.43,374,521.55,418.92,538,418.92,538L640.25,306.27Z"/>
    <path class="cls-9" d="M548.8,213.84c-.43-.41-7.72-6.51-13.17-5.94s-10.77,5.32-10.52,14.55S537.43,244,548.22,255s39.66,39.24,58,50.09,33.3,5.41,34.42-.08-3.24-11.25-8.48-18.66S548.8,213.84,548.8,213.84Z"/>
    <path class="cls-9" d="M325,429s8.6,26.45,22.47,42.87,34.47,33.5,57.89,45.89,24.77,8.46,24.77,8.46l-55.72,58.68s-29.5-4.25-61-35.73S267.72,487,267.72,487Z"/>
    <path class="cls-10" d="M519.82,228.88,479,272c-2.86,3-23,20.75-26.61,25.47s-15.81,21-7.53,16.57,52.07-46.3,59.55-49,21.41-15.68,25.24-13.68,15.62,3.36,10-1.95-15.82-26.44-17.47-25.56S519.82,228.88,519.82,228.88Z"/>
    <path class="cls-11" d="M507.75,421.87s-67.88,51.75-81.57,57.58-23.65,10.28-33.83,6.35S360.5,472,354.9,466.65s-14.12-10.11-11.9-5.56,23.86,29.17,40.52,40.06,30.6,14.29,37,17.06a21,21,0,0,0,11.38,1.8l99.21-104.64S555.13,388.29,507.75,421.87Z"/>
    <path class="cls-9" d="M686.23,236.21c.41-.43,4.07-5.15-2.07-15.06s-21-30.5-29.1-36.58-34.32-27.63-44-29.47-12.24-2.61-14.33-2.14-5.6,10.23-5.6,10.23l18.08,32.67s41.66,35.41,42.09,35.82,27.09,8.51,27.09,8.51Z"/>
    <path class="cls-12" d="M676.35,243.19S696,225,694.54,217.1s-43.83-53.82-62.21-66.34-21.22-8.67-24.53-6.91-26.08,29.24-26.08,29.24,66.92,70,75,72.72S676.35,243.19,676.35,243.19Z"/>
    <path class="cls-9" d="M594.52,155.73a.19.19,0,0,0-.3-.21c-3.58,3.48-17.36,17.12-24,27.11-7.67,11.54-16.9,11.78-19.37,13.53s-8.91,12-10.12,14.12c-1.11,2-6.09,6.55-6.84,7.23a.19.19,0,0,0,0,.21c.72,1.81,10,24.06,42.53,54.15s50.09,31.7,51.54,31.78a.17.17,0,0,0,.16-.07c.7-.9,7.37-9.4,9.74-10.26s8.78-.65,10.13-13.22a.18.18,0,0,1,0-.1c.71-.89,13.28-16.59,24-27.88,11-11.63,16.35-16.39,15.88-18.48s-8.49,12.4-29.07-3.84-33.29-20.94-59.8-55.06v0C598.75,174.34,591.92,162.06,594.52,155.73Z"/>
    <path class="cls-13" d="M589.47,164.91s-15.42,19.72-17.87,22.3a59.77,59.77,0,0,1-12.36,8.72c-2.9,1.34-8.37,1.07-8.71,4s-4.38,8.94-5.19,9.8-5.74,5.19-5.72,6,2,10,5.41,14.12-1.47-7.93.53-11.76,1.11-5.49,4-6.83,5-.13,4.92-4.33-2.22-4.55,4.42-7.25a84.35,84.35,0,0,0,19.82-12.28c4.52-3.9,7.63-13.21,11.09-9.11s7.82,9.87,8.16,6.92S592.6,172,592.1,169A6,6,0,0,0,589.47,164.91Z"/>
    <line class="cls-9" x1="324.01" y1="441.45" x2="277.46" y2="490.54"/>
    <line class="cls-9" x1="331.12" y1="456.37" x2="284.94" y2="503.35"/>
    <line class="cls-9" x1="342.06" y1="473.29" x2="296.34" y2="521.52"/>
    <line class="cls-9" x1="358.47" y1="490.48" x2="311.52" y2="540"/>
    <line class="cls-9" x1="375.22" y1="504.73" x2="329.97" y2="555.04"/>
    <line class="cls-9" x1="392.27" y1="514.35" x2="346.13" y2="563.01"/>
    <line class="cls-9" x1="408.95" y1="526.08" x2="365.26" y2="572.15"/>
    <g>
      <path class="cls-14" d="M399.31,428.5s6.86-8.64,11.3-11.2a17.18,17.18,0,0,1,15.9-.64c5.86,2.59,14.14,8,16.88,12.6s9.27,11.38-1.61,19.95-16.09,18.52-30.45,13.66-26-9.53-27.94-21.9-6.47-25.06,4.34-35.65S400.14,393,400.14,393"/>
      <polyline class="cls-14" points="410.41 379.66 460.85 430.57 484.48 404.34"/>
      <path class="cls-14" d="M438.05,347.88s47.07,49.49,57.11,44.73,18.12-8.09,16.89-16.74-48.43-53.32-48.43-53.32"/>
      <polyline class="cls-14" points="567.46 320.97 531.25 362.63 476.96 309.32 509.26 274.83"/>
      <line class="cls-14" x1="503.11" y1="335.72" x2="534.19" y2="300"/>
    </g>
  </g>
  <g>
    <path class="cls-15" d="M481.05,429.32s7.76,57.09,67.4,102.7l88.11-51.68L568.41,373.19Z"/>
    <path class="cls-15" d="M616.14,422.22c-.67-1-7.84-13.3-15.39-24s-17.76-21-22.82-23.43-9.51-3.06-10.94-.73,1,34.63,32.61,72.86,36.46,33.7,37.46,33.06S635.11,449.53,616.14,422.22Z"/>
    <path class="cls-16" d="M528.78,402.68s-26,17.9-28.46,18.81-13.72,5-13.61,9.18,13.31,42.88,20.75,54,19.08,23,22.93,25.83,11.92,6.4-.47-17.61-18.37-43.59-15.67-52.47,12.37-24.26,17.68-29.85S539.44,393.17,528.78,402.68Z"/>
    <line class="cls-15" x1="620.16" y1="476.77" x2="544.35" y2="521.25"/>
    <line class="cls-15" x1="605.94" y1="461.22" x2="530.59" y2="507.52"/>
    <line class="cls-15" x1="590.29" y1="442.36" x2="514.45" y2="488.98"/>
    <line class="cls-15" x1="576.82" y1="421.39" x2="501.94" y2="469.51"/>
    <line class="cls-15" x1="567.77" y1="401.81" x2="494.03" y2="450.61"/>
    <line class="cls-15" x1="562.1" y1="386.41" x2="489.22" y2="433.25"/>
    <path class="cls-16" d="M573.87,378s1.79,19.68,4.89,25.89,8.43,17,13.23,24,13.51,18.53,17.38,22.21,14.28,16,15.5,14.7.46-14.29-4.82-23.38-14.07-24-20.57-31.77S585.37,384,573.87,378Z"/>
  </g>
</svg>
