<?xml version="1.0" encoding="UTF-8"?>
<svg id="tub" xmlns="http://www.w3.org/2000/svg" viewBox="0 0 1000 1000">
  <defs>
    <style>
      .cls-1 {
        font-family: FreeSansBold, FreeSans;
        font-size: 150px;
      }

      .cls-2 {
        fill: #d3c513;
      }

      .cls-3 {
        fill: #fdf31f;
      }

      .cls-4 {
        fill: #efefef;
      }

      .cls-5 {
        fill: #cae9fb;
      }

      .cls-6 {
        fill: #92d4f6;
      }

      .cls-7 {
        fill: #cecece;
      }

      .cls-8 {
        fill: #528daa;
      }

      .cls-9 {
        fill: red;
      }
    </style>
  </defs>
  <text class="cls-1" transform="translate(97.4 802.61)"><tspan x="0" y="0">t + ub = t</tspan><tspan class="cls-9" x="625.2" y="0">ub</tspan></text>
  <g>
    <g>
      <g>
        <path class="cls-4" d="M192.99,313.29c-5.12-15.14,.45-33.25,13.18-42.9,12.73-9.65,31.67-10.12,44.87-1.11-.77-13.15,1.73-26.89,9.41-37.59s21.17-17.71,34.14-15.44c4.54-18.39,18.2-34.29,35.69-41.55,17.49-7.26,38.4-5.72,54.63,4.04,3.71,2.23,7.36,4.92,11.66,5.43,7.36,.86,13.62-4.81,19.87-8.81,22.19-14.19,55.45-6.29,68.89,16.36,3.95,6.65,8.23,15.45,15.95,15.04,3.09-.17,5.83-1.93,8.69-3.11,9.52-3.93,21.47-.86,27.92,7.18,1.61,2.01,3.07,4.41,5.5,5.26,3.6,1.25,7.25-1.47,10.16-3.92,11.03-9.27,23.99-17.47,38.39-18.08,21.44-.9,39.56,14.82,55.16,29.55,5.26-11.73,10.69-23.72,19.66-32.93s22.35-15.21,34.79-11.97c18.92,4.93,26.69,27.03,31.48,45.98,10.87-6.93,25.59-7.29,36.78-.9,11.2,6.38,18.38,19.24,17.95,32.12,21.34,.5,37.49,26.61,28.41,45.93"/>
        <path class="cls-7" d="M199.37,311.53c-4.07-12.57-.14-27.32,10.44-35.64,10.82-8.51,26.64-8.37,37.89-.9,4.1,2.72,10.21-.84,9.96-5.71-.62-11.9,1.22-24.55,8.56-34.33,5.94-7.91,16.49-13.92,26.62-12.32,3.48,.55,7.18-.85,8.14-4.62,3.1-12.12,10.27-23.12,20.34-30.62,11.05-8.24,24.61-11.64,38.28-10.3,6.69,.66,13.41,2.72,19.34,5.87,6.94,3.69,13.02,8.71,21.39,7.73,7.58-.89,13.25-5.67,19.46-9.61,4.84-3.06,9.86-4.91,15.66-5.8,10.17-1.55,21.56,.87,30.7,6.41,4.25,2.58,8.32,6.08,11.24,9.99,3.82,5.1,6.18,11.11,10.63,15.79,5,5.25,12.09,7.33,18.98,4.7,3.27-1.25,6.25-3.14,9.81-3.55,2.56-.29,5.28,.09,7.79,.88,2.27,.71,4.41,1.89,6.2,3.45,2.64,2.31,4.24,5.47,7.1,7.56,8.31,6.1,16.22-.39,22.74-5.63,11.92-9.59,26.64-16.99,42.21-13.05,15.63,3.96,28.17,15.73,39.58,26.49,2.81,2.65,8.58,2.71,10.39-1.34,6.92-15.44,14.81-33.95,31.8-40.53,7.03-2.72,14.69-2.61,20.95,1.07,5.65,3.32,9.59,8.85,12.71,14.88,3.92,7.57,6.28,15.87,8.38,24.1,1.04,4.08,6.13,6.17,9.72,3.96,9.33-5.76,21.43-6.19,30.89-.44,8.91,5.42,14.08,15.62,13.88,25.94-.07,3.68,3.09,6.48,6.62,6.62,4.02,.15,7.64,1.37,11.37,3.77,3.27,2.1,6.4,5.44,8.52,8.86,4.4,7.12,6.09,16.06,2.8,23.34-1.47,3.25-.93,7.12,2.37,9.06,2.84,1.66,7.57,.9,9.06-2.37,10.95-24.2-7.24-54.86-34.12-55.88,2.21,2.21,4.41,4.41,6.62,6.62,.29-14.96-7.64-29.57-20.44-37.36s-31.04-7.71-44.26,.44l9.72,3.96c-4.27-16.77-10.35-35.28-25.2-45.63-17.77-12.38-41.07-4.09-54.24,10.98-8.23,9.41-13.51,20.67-18.58,31.97,3.46-.45,6.93-.89,10.39-1.34-11.39-10.73-23.39-21.37-38.02-27.39s-31.16-4.81-45.62,2.6c-7.01,3.59-13.17,8.4-19.27,13.32-1.05,.85-2.1,1.64-3.34,2.21-.51,.24,.41,.42,.38,.42-.57-.16-1.39-1.46-1.75-1.9-2.27-2.78-4.45-5.21-7.41-7.31-5.88-4.17-13.69-6.18-20.85-5.4-3.64,.39-6.89,1.35-10.23,2.85-1.41,.64-2.85,1.52-4.4,1.79-.9,.16-1.59-.13-2.33-.62-3.85-2.54-6.34-8.95-9.21-13.2-3.82-5.67-8.62-10.4-14.22-14.31-10.17-7.09-23.06-10.73-35.42-10.35-6.35,.2-12.71,1.39-18.61,3.77-6.72,2.71-12,7.3-18.33,10.66-2.46,1.31-4.98,2.03-7.7,1.02-3.19-1.19-5.98-3.46-8.95-5.11-6.84-3.79-14.4-6.39-22.13-7.55-17.05-2.56-34.83,.88-49,10.96-13.28,9.45-23.11,23.22-27.16,39.07l8.14-4.62c-14.74-2.33-29.7,3.7-39.15,15.28-10.09,12.36-13.6,28.44-12.79,44.14,3.32-1.9,6.64-3.81,9.96-5.71-16.05-10.66-38.22-9.51-53.24,2.42s-20.11,31.85-14.53,49.07c2.61,8.07,15.4,4.62,12.76-3.52h0Z"/>
      </g>
      <g>
        <path class="cls-4" d="M301.2,160.07l-9.41,1.5c-2.62,.42-5.26,.83-7.92,.84-7.44,0-15.35-4.06-17.63-11.14-1.47-4.58-.34-9.78,2.4-13.73s6.95-6.75,11.47-8.39c6.35-2.3,13.46-2.43,19.89-.36,2.09,.67,4.19,1.63,5.56,3.35,2.01,2.53,1.99,6.07,1.72,9.29-.4,4.92-1.29,10.14-4.62,13.8"/>
        <path class="cls-7" d="M299.44,153.69l-6.51,1.04c-.97,.15-1.93,.31-2.9,.46-1.29,.2-1.89,.31-2.55,.38-1.71,.18-3.42,.29-5.14,.17-.11,0-1.7-.28-.65-.05,.93,.2-.16-.05-.39-.1-.84-.17-1.67-.4-2.48-.67-.33-.11-.64-.24-.97-.35-.89-.31,.98,.53,.17,.06-.66-.38-1.35-.69-2-1.1-.28-.18-.55-.39-.84-.56,1.1,.66,.45,.38,.15,.11-.62-.56-1.15-1.19-1.76-1.75,.88,.82,.38,.55,.13,.17-.18-.28-.37-.55-.53-.83-.21-.36-.38-.73-.58-1.1-.44-.79,.27,1.08,.1,.19-.07-.37-.23-.74-.32-1.11s-.22-1.64-.11-.3c-.07-.91-.03-1.78,0-2.69,.04-1.03-.44,1.38,.09-.32,.12-.38,.19-.78,.31-1.17s.26-.76,.39-1.14c-.37,1.07-.06,.15,.06-.08,.39-.71,.8-1.39,1.23-2.07,.93-1.47-.54,.45,.2-.25,.34-.33,.64-.72,.98-1.06s.69-.67,1.05-.98c.14-.12,1.08-.88,.45-.39s.35-.23,.5-.33c.4-.27,.81-.53,1.22-.78,.67-.4,1.36-.74,2.04-1.1,.22-.11,1.16-.52,0-.04,.56-.23,1.13-.44,1.7-.63,1.65-.56,3.35-.98,5.07-1.24-1.18,.18,.22,0,.51-.03,.43-.04,.87-.06,1.3-.08,1.09-.04,2.18-.03,3.27,.04,.43,.03,.87,.08,1.3,.11,1.19,.09-1.47-.35,.5,.09,.85,.19,1.7,.35,2.55,.58,.78,.21,1.53,.49,2.3,.73-1.17-.37-.36-.18-.06,0,.47,.28,.97,.51,1.41,.84-1.08-.8-.32-.11-.11,.03-.39-.55-.45-.63-.2-.23,.15,.23,.29,.48,.4,.73-.56-1.12-.17-.33-.1,0,.38,1.76,.02-1.35,.12,.49,.1,1.93-.06,3.84-.24,5.76-.03,.28-.2,1.29,.02-.04-.09,.57-.18,1.14-.29,1.71-.17,.84-.37,1.68-.62,2.51-.14,.45-.29,.9-.45,1.34,.32-.87,.14-.32-.13,.22-.22,.42-.48,.8-.7,1.21-.64,1.19,.64-.66-.34,.45-2.27,2.61-2.76,6.83,0,9.36,2.49,2.29,6.93,2.79,9.36,0,3.32-3.8,5.19-8.32,5.94-13.28,.81-5.31,1.39-10.86-.91-15.89s-7.39-7.58-12.5-8.86c-5.44-1.36-10.98-1.42-16.48-.44-10.1,1.79-19.49,8.29-23.1,18.09-3.61,9.78,.56,20.23,9.27,25.57,4.23,2.6,9.36,3.94,14.31,3.95,6.34,.02,12.84-1.58,19.09-2.57,3.43-.55,5.64-5,4.62-8.14-1.2-3.72-4.47-5.21-8.14-4.62h0Z"/>
      </g>
      <g>
        <path class="cls-4" d="M414.7,145.04c-3.77-1.82-7.52-3.7-11.23-5.63-2.75-1.43-5.64-3.04-7.05-5.8-.95-1.86-1.1-4-1.23-6.08-.23-3.68-.36-7.73,1.91-10.63,1.84-2.35,4.85-3.4,7.69-4.33,4.34-1.42,8.74-2.86,13.3-3.01s9.38,1.16,12.49,4.49c1.46,1.56,2.47,3.47,3.44,5.37,.98,1.93,1.93,3.91,2.25,6.04,.69,4.62-1.78,9.27-5.26,12.39s-7.86,5.01-12.16,6.84"/>
        <path class="cls-7" d="M418.04,139.33c-3.56-1.72-7.1-3.49-10.61-5.31-1.27-.66-2.55-1.31-3.74-2.1-.17-.11-1.1-.81-.44-.28s-.22-.22-.36-.36-.92-.98-.38-.33-.28-.51-.37-.68c.49,.91,.06,.12,0-.16-.08-.41-.18-.81-.26-1.22,.23,1.15,.03,.14,.01-.11-.02-.42-.06-.84-.09-1.25-.11-1.77-.19-3.55-.02-5.32-.14,1.4,.24-.66,.36-1.05-.07,.24-.57,1.15,.03,.03,.19-.36,.72-.75-.04-.04,.27-.25,.52-.52,.79-.77-.23,.21-1.02,.62,0,.07,.38-.21,2.19-1.06,.94-.56,3.39-1.35,7-2.46,10.57-3.23,.45-.1,.89-.18,1.34-.27,.16-.03,1.29-.18,.26-.06,.87-.1,1.74-.15,2.61-.16,.77,0,1.53,.05,2.29,.11-.28-.02-1.29-.27-.05,.02,.47,.11,.93,.2,1.39,.33,.37,.1,.72,.26,1.09,.34,.93,.23-.83-.5,0-.01,.57,.33,1.16,.62,1.71,.98,1.06,.68,.17,.17,0,0,.27,.27,.55,.52,.81,.79,.87,.88,.36,.41,.17,.15,.37,.52,.71,1.07,1.03,1.62,.43,.74,.82,1.5,1.21,2.26,.2,.39,.38,.78,.58,1.16,.08,.15,.53,1.15,.13,.2,.33,.8,.56,1.63,.76,2.46-.07-.27-.02-1.21-.01,.03,0,.18-.01,1.77,.04,.84,.05-.86-.07,.32-.12,.54-.11,.47-.29,.92-.41,1.39,.28-1.06,.15-.29-.02,.03-.28,.52-.58,1.02-.88,1.53-.11,.19-.71,1.04,0,.1-.29,.39-.64,.76-.97,1.11-.63,.66-1.3,1.29-2.02,1.85,.24-.19,.86-.59-.19,.09-.44,.29-.88,.58-1.33,.86-.82,.5-1.65,.96-2.51,1.39-1.9,.97-3.86,1.81-5.82,2.64-3.2,1.36-4.14,6.31-2.37,9.06,2.14,3.32,5.63,3.83,9.06,2.37,8.67-3.7,17.58-8.81,20.18-18.61,1.48-5.6-.1-10.71-2.64-15.72-2.16-4.26-5.06-8.2-9.42-10.42-9.16-4.65-19.15-2.29-28.36,.88-4.65,1.6-9.11,3.92-11.48,8.47s-2.25,9.58-1.77,14.4c.3,2.99,.85,5.92,2.55,8.47s3.92,4.38,6.45,5.92c4.35,2.63,9.08,4.75,13.65,6.96,3.11,1.5,7.3,.95,9.06-2.37,1.57-2.96,.95-7.45-2.37-9.06h0Z"/>
      </g>
      <g>
        <path class="cls-4" d="M506.49,105.72l-13.15-5.98c-5.36-2.43-11.02-5.12-14.15-10.1-3.67-5.82-2.88-13.72,.79-19.54s9.79-9.74,16.24-12.11c5.4-1.99,11.55-2.98,16.85-.72,6.93,2.95,10.55,10.52,12.95,17.66,2.02,6.01,3.5,12.99,.15,18.38-2.89,4.64-8.5,6.66-13.69,8.37"/>
        <path class="cls-7" d="M509.83,100c-4.9-2.23-9.83-4.42-14.71-6.69-1.92-.89-3.82-1.82-5.62-2.93-.81-.49-1.61-1.01-2.36-1.59,1.19,.92-.25-.27-.39-.4-.55-.51-1.05-1.05-1.55-1.61,.86,.97,.05,.06-.14-.24-.26-.4-.47-.83-.73-1.23-.9-1.42,.24,1.11-.23-.49-.16-.54-.34-1.07-.47-1.63-.09-.37-.15-.74-.22-1.11,.29,1.59,.03-.22,.02-.5-.02-.57-.01-1.14,.02-1.71s.26-1.68,.03-.52c.23-1.14,.55-2.23,.88-3.35,.5-1.72-.62,1.03,.22-.55,.18-.34,.34-.69,.53-1.02,.28-.5,.58-.99,.9-1.47,.11-.17,1.26-1.62,.32-.49,.73-.87,1.49-1.71,2.32-2.5,.42-.39,.85-.75,1.28-1.14,1.34-1.2-.66,.4,.24-.2s1.73-1.2,2.63-1.74c.83-.49,1.67-.95,2.53-1.38,.52-.26,1.04-.5,1.57-.74-1.37,.63,.83-.32,1.08-.41,1.01-.37,2.03-.7,3.07-.99,.63-.17,1.25-.33,1.89-.46,.11-.02,2.2-.35,.79-.18,1.05-.13,2.13-.18,3.19-.15,.15,0,2.19,.23,.76,0,.62,.1,1.24,.24,1.84,.41,.18,.05,2.04,.82,.7,.19,.48,.23,.95,.47,1.4,.75s.88,.56,1.31,.87c-.21-.16-.96-.87-.12-.05,.76,.74,1.46,1.5,2.18,2.28-.86-.93-.25-.35-.06-.07,.4,.6,.81,1.18,1.18,1.8,.52,.86,.99,1.74,1.44,2.64,.2,.41,.39,.83,.59,1.24,.8,1.64-.46-1.26,.2,.44,.82,2.12,1.59,4.26,2.2,6.46,.33,1.18,.57,2.37,.83,3.56,.41,1.88,0-1.27,.09,.63,.03,.59,.09,1.18,.09,1.78s-.03,1.17-.07,1.76c.09-1.55-.17,.72-.28,1.08,0,0-.67,1.67-.26,.83,.32-.66-.65,1.03-.77,1.22,.78-1.25-.09,.08-.32,.32-.14,.14-1.6,1.42-.93,.9,.79-.62-.63,.41-.65,.42-.61,.39-1.25,.75-1.9,1.08-.41,.21-.84,.39-1.25,.6-.44,.19-.34,.16,.3-.12-.34,.14-.69,.28-1.04,.41-1.21,.46-2.44,.87-3.66,1.27-3.28,1.08-5.76,4.62-4.62,8.14,1.06,3.27,4.62,5.78,8.14,4.62,5.34-1.76,10.96-3.81,14.95-7.96,4.43-4.6,6.13-10.98,5.39-17.24-.71-5.98-2.62-11.67-5.14-17.13-2.32-5.02-5.69-9.48-10.27-12.64-10.39-7.18-25.4-3.01-35,3.63-4.73,3.27-9.04,7.52-11.39,12.85-2.55,5.76-3.55,12.4-1.54,18.51,2.19,6.68,7.25,11.46,13.31,14.75s12.39,5.8,18.59,8.62c3.14,1.43,7.27,1.01,9.06-2.37,1.53-2.9,.99-7.53-2.37-9.06h0Z"/>
      </g>
      <g>
        <path class="cls-4" d="M589.27,124.16c-.52-5.27-.9-11.08,2.21-15.37,3.12-4.29,8.79-5.71,13.99-6.79,7.96-1.64,16.93-2.99,23.66,1.58,4.19,2.84,6.78,7.64,7.79,12.6,.61,2.97,.67,6.22-.78,8.88-1.3,2.4-3.66,4.03-6.02,5.4-5.01,2.9-10.57,5.08-16.36,5.3s-11.82-1.68-15.77-5.91"/>
        <path class="cls-7" d="M595.89,124.16c-.17-1.79-.33-3.58-.35-5.37,0-.9,.09-1.79,.09-2.68,0-1.06-.38,1.45,.04-.27,.14-.56,.3-1.12,.42-1.68,.06-.27,.47-1.16-.06-.02,.16-.35,.34-.69,.53-1.02,.02-.04,1.11-1.45,.46-.73s.57-.52,.57-.53c.19-.22,.98-.76-.11,.01,.29-.21,.59-.41,.89-.6,.38-.24,.78-.46,1.18-.67,.24-.13,.49-.25,.73-.36-.66,.26-.76,.31-.31,.13,3.31-1.16,6.7-1.92,10.14-2.54,.88-.16,1.76-.29,2.64-.44,1.14-.19-1.59,.14,.31-.03,.39-.04,.79-.08,1.18-.12,1.84-.16,3.7-.21,5.55-.06,.37,.03,1.64,.24,.23,0,.37,.06,.74,.13,1.11,.21,.83,.18,1.62,.49,2.44,.69,.97,.23-1.26-.72,.24,.1,.33,.18,.67,.34,1,.54s.65,.41,.98,.61c1.22,.75-.48-.6,.42,.35,.32,.34,.67,.64,.99,.98,.13,.14,.92,1.02,.39,.39-.62-.73,.47,.69,.47,.69,.21,.31,.4,.63,.59,.96s.37,.66,.54,.99c0,0,.73,1.67,.37,.75s.27,.82,.26,.8c.18,.54,.34,1.08,.47,1.63,.11,.42,.47,2.45,.31,1.15,.13,1.01,.15,2.04,.07,3.05,.03-.33,.31-1.15-.05,.02-.12,.38-.19,.78-.35,1.14,.55-1.24-.05-.01-.13,.02-.43,.63-.43,.64-.02,.04l-.4,.42c.05-.04-1.38,1.22-.66,.63s-.81,.54-.77,.51c-.67,.44-1.37,.85-2.07,1.24-.94,.53-1.89,1.03-2.86,1.49-.39,.19-.78,.36-1.17,.54,1.09-.5-.76,.29-.81,.31-2,.74-4.08,1.32-6.19,1.65,1.22-.19-.16,0-.47,.02-.6,.05-1.2,.07-1.8,.07-.47,0-.94,0-1.41-.04-.36-.02-2.03-.24-.48,0-.93-.15-1.85-.34-2.75-.6-.36-.1-.72-.21-1.07-.34-.3-.1-1.7-.86-.49-.17-.81-.46-1.62-.9-2.42-1.37-1.46-.85,.51,.56-.21-.13-.47-.45-.96-.87-1.42-1.34-2.41-2.49-6.97-2.6-9.36,0s-2.57,6.7,0,9.36c7.5,7.75,19.1,9.36,29.15,6.45,4.7-1.36,9.49-3.54,13.48-6.4,5.13-3.68,8.26-8.92,7.98-15.38-.46-10.65-6.85-20.55-17.11-24.02-4.56-1.54-9.62-1.58-14.36-1.02s-9.61,1.34-14.18,2.78c-5.42,1.7-10.73,4.75-13.43,9.97-2.79,5.38-2.77,11.35-2.2,17.22,.33,3.44,2.81,6.79,6.62,6.62,3.3-.15,6.98-2.93,6.62-6.62h0Z"/>
      </g>
    </g>
    <g>
      <g>
        <path class="cls-3" d="M328.81,548.75c1.05,7.14,7.28,12.15,12.25,17.39,9.12,9.62,15.07,24.05,9.77,36.2-1.63,3.74-4.22,7-7.08,9.91-14.8,15.09-39.28,21.21-58.09,11.57-3.81-1.95-7.37-4.53-9.92-7.97-3.11-4.21-4.51-9.45-5.06-14.66-.46-4.41-.34-8.93,.81-13.22,2.66-9.94,11.16-18.09,21.21-20.33,10.05-2.24,21.2,1.53,27.83,9.41,3.03,3.6,5.18,8.2,4.77,12.88-.6,6.92-7.07,12.49-13.98,13.18-6.91,.69-13.81-2.88-18.26-8.21"/>
        <path class="cls-2" d="M322.43,550.51c1.66,10,10.58,16,16.58,23.33-.93-1.13,.26,.36,.36,.5,.34,.47,.67,.95,.99,1.43,.65,.97,1.25,1.95,1.82,2.97s1.06,2.05,1.58,3.09c.85,1.68-.42-1.22,.24,.53,.2,.54,.41,1.07,.6,1.61,.37,1.07,.69,2.16,.96,3.26,.13,.55,.25,1.1,.35,1.65,.05,.26,.26,2.1,.1,.45,.11,1.1,.19,2.2,.18,3.31,0,.55-.02,1.1-.06,1.65-.02,.37-.27,2.01,0,.43-.18,1.09-.41,2.17-.73,3.23-.16,.54-.35,1.06-.54,1.59,.52-1.46-.18,.37-.28,.57-.54,1.09-1.17,2.15-1.86,3.16,.06-.09-1.1,1.55-.56,.82,.27-.34,.19-.24-.24,.3-.26,.32-.52,.63-.79,.94-1.49,1.72-3.11,3.34-4.82,4.84-.4,.36-.81,.71-1.23,1.05-.18,.15-1.6,1.26-.35,.31-.86,.66-1.74,1.28-2.63,1.89-1.8,1.21-3.66,2.31-5.59,3.3-.96,.49-1.94,.95-2.93,1.4-1.13,.51-.13,.06,.09-.03-.67,.27-1.34,.53-2.02,.78-2.02,.74-4.09,1.36-6.19,1.85-1.04,.25-2.1,.46-3.15,.64-.35,.06-.7,.11-1.06,.17-.76,.11-.71,.1,.17-.02-.35,.04-.71,.08-1.06,.12-2.12,.21-4.25,.28-6.37,.22-1.06-.03-2.12-.1-3.17-.21-.35-.04-.7-.08-1.05-.12,1.8,.2-.52-.1-.85-.16-2.08-.38-4.13-.92-6.14-1.6-.5-.17-1-.37-1.5-.55-1.62-.57,.82,.4-.14-.05-1.1-.51-2.19-1.02-3.26-1.61s-2.09-1.27-3.12-1.94c-1.61-1.04,.83,.81-.6-.45-.46-.4-.92-.8-1.36-1.22s-.83-.89-1.26-1.32c-1.29-1.31,.3,.58-.3-.34-.75-1.14-1.43-2.28-2.05-3.5-.87-1.72,.28,1.11-.29-.73-.19-.6-.41-1.19-.58-1.79-.35-1.21-.63-2.44-.85-3.68-.02-.14-.29-2.19-.13-.73-.05-.43-.09-.86-.13-1.29-.14-1.55-.21-3.11-.18-4.66,.01-.67,.04-1.33,.09-2,0-.07,.24-2.23,.06-.88,.18-1.27,.46-2.53,.82-3.77,.25-.85,.54-1.69,.87-2.51-.59,1.51,.08-.12,.2-.36,.31-.63,.65-1.26,1.01-1.87,.54-.92,1.14-1.8,1.77-2.65-.95,1.27,.14-.13,.3-.31,.35-.4,.71-.79,1.08-1.17,.62-.64,1.26-1.24,1.94-1.82,.19-.17,1.6-1.22,.32-.29,.57-.42,1.15-.82,1.75-1.2,.9-.57,1.82-1.09,2.78-1.56,.25-.12,1.88-.77,.36-.19,.5-.19,.99-.38,1.5-.54,.84-.28,1.7-.52,2.56-.71,.54-.12,1.08-.21,1.62-.31-1.69,.3,.64-.03,.97-.05,1.1-.06,2.2-.05,3.3,.02,.55,.03,1.1,.09,1.64,.15-1.67-.2,.15,.06,.41,.11,.9,.18,1.79,.4,2.67,.66,.53,.16,1.05,.33,1.57,.51,.35,.12,.69,.25,1.03,.39-.73-.31-.75-.32-.07,0,1.15,.59,2.29,1.16,3.37,1.86,.46,.3,.91,.62,1.36,.93,1.05,.72-.66-.58,.6,.51,.9,.78,1.75,1.62,2.53,2.52,.11,.12,1.21,1.59,.46,.53,.48,.67,.93,1.36,1.34,2.08,.3,.54,.59,1.08,.84,1.65-.53-1.21,.29,1.05,.36,1.3,.05,.21,.32,2.12,.19,.63,.05,.61,.02,1.21,.05,1.82,.09,1.8,.41-1.12-.04,.38-.2,.66-.35,1.31-.59,1.96,.58-1.54-.06-.02-.22,.26-.19,.33-1.52,1.96-.44,.76-.35,.39-.68,.77-1.06,1.14-.15,.15-1.63,1.33-.91,.83,.84-.58-.6,.36-.62,.38-.6,.37-1.21,.68-1.84,.99,1.45-.7-.08-.01-.37,.08-.67,.21-1.34,.35-2.03,.49,1.72-.35-.07-.03-.42-.02-.77,.02-1.53-.02-2.29-.08,1.58,.12-.23-.06-.5-.12-.56-.12-1.12-.27-1.66-.44s-1.1-.36-1.63-.58c1.38,.58-.79-.46-1.02-.59-.51-.29-1-.59-1.49-.91-.32-.22-.64-.44-.95-.67,.57,.44,.56,.43-.03-.05-1-.93-1.97-1.85-2.86-2.89-2.26-2.64-7.07-2.49-9.36,0-2.58,2.81-2.41,6.54,0,9.36,7.94,9.27,21.95,13.57,32.91,7.02,4.98-2.98,9.19-8.06,10.25-13.87,1.33-7.26-1.27-13.99-5.76-19.63-6.89-8.65-18.82-13.63-29.83-12.58s-21.67,7.58-27.43,17.52c-6.33,10.93-6.1,25.48-1,36.83,4.82,10.74,16.72,17.18,27.89,19.23,21.52,3.95,44.49-5.25,57.66-22.66,7.24-9.57,7.93-22.2,3.47-33.13-2.28-5.59-5.36-10.57-9.3-15.15-1.73-2.01-3.64-3.83-5.49-5.72-.86-.88-1.71-1.76-2.53-2.68-.37-.42-.72-.87-1.1-1.28-.51-.54,.11,.17,.17,.25-.28-.36-.54-.74-.8-1.12-.67-.98-1.22-2-1.75-3.06,.51,1.03,.06,.1-.1-.43-.21-.7-.36-1.41-.48-2.13-.57-3.43-4.99-5.64-8.14-4.62-3.7,1.2-5.23,4.47-4.62,8.14h0Z"/>
      </g>
      <g>
        <path class="cls-3" d="M686.68,599.03c-.95,5.14-8.09,7.15-12.61,4.52-4.52-2.63-6.6-8.11-7.15-13.32-.4-3.74-.17-7.62,1.27-11.1,2.95-7.18,10.99-11.63,18.74-11.19,7.75,.44,14.9,5.29,18.99,11.89,4.09,6.6,5.32,14.72,4.35,22.42-.43,3.38-1.3,6.8-3.25,9.6-2.18,3.11-5.5,5.19-8.72,7.18-4.85,3-9.77,6.02-15.22,7.69-14.34,4.39-29.82-1.28-42.86-8.69-2.52-1.44-5.05-2.97-6.97-5.15-2.2-2.5-3.47-5.69-4.27-8.93-2.34-9.5-.88-19.7,2.99-28.69,3.86-8.99,10.02-16.85,17.01-23.69"/>
        <path class="cls-2" d="M680.3,597.28c-.34,1.52-.17,0,.13,.02,.12,0-.45,.65-.42,.71l.53-.69c-.18,.21-.38,.4-.58,.58-.16-.32,1.23-.74,.34-.29-1.39,.71,.07,.14,.06,.09,0,.02-.89,.29-.82,.27-1.56,.44-.01-.12,.04,.09,0,0-1.27,.04-1.32,.04-1.36,.09,.96,.39,.23,.06-.3-.13-.74-.19-1.06-.27-1.34-.32,.83,.57,.18,.07-.32-.24-.72-.45-1.06-.67,1.09,.68,.4,.34,.15,.06-.34-.37-.7-.75-1.05-1.11,.88,.91,.31,.44,.12,.1-.34-.6-.69-1.2-1.03-1.8-.17-.3-.39-1.13,.03,.14-.17-.5-.36-1-.52-1.5-.23-.76-.42-1.54-.58-2.32-.09-.43-.16-.87-.22-1.31,.24,1.63,.05,.14,.02-.28-.09-1.22-.11-2.44-.04-3.66,0-.1,.32-2.19,.07-.88,.08-.43,.17-.87,.27-1.29,.16-.64,.36-1.27,.58-1.9-.08,.23-.53,1.03,0,0,.41-.78,.87-1.51,1.34-2.25-.82,1.3,.05-.04,.28-.29,.35-.39,.72-.76,1.11-1.12,.02-.02,1.32-1.14,.54-.5s.58-.39,.61-.41c.74-.49,1.51-.89,2.3-1.3,1.08-.56,.11-.05-.12,.03,.5-.18,1-.37,1.5-.52,.34-.1,.68-.2,1.02-.28s2.62-.4,.85-.23c.88-.08,1.76-.14,2.64-.11,.36,0,.72,.04,1.08,.06,1.74,.1-.87-.24,.16,.02,.89,.23,1.79,.38,2.67,.65,.44,.14,.87,.3,1.3,.45-1.4-.49,.12,.06,.44,.21,.83,.41,1.63,.86,2.41,1.36,.47,.3,.92,.62,1.37,.94-.21-.15-.96-.82-.03,0,.7,.61,1.39,1.23,2.03,1.9,.39,.4,.74,.83,1.12,1.24,.93,1.01-.5-.83,.33,.42,.54,.8,1.07,1.59,1.55,2.44,.2,.35,.39,.71,.58,1.08,.06,.11,.89,1.94,.35,.64,.86,2.06,1.46,4.25,1.86,6.45,.07,.4,.14,.81,.2,1.21-.22-1.49,.03,.52,.04,.68,.07,.92,.11,1.84,.11,2.76,0,1.03-.03,2.05-.1,3.07-.04,.51-.09,1.02-.14,1.53-.16,1.61,.21-.78-.11,.64-.22,.98-.4,1.97-.69,2.94-.04,.14-.72,2-.16,.67-.15,.36-.34,.73-.52,1.08-.28,.53-.6,1.04-.94,1.53,.16-.24,.78-.85-.08,.06-.41,.43-.81,.86-1.25,1.27-.2,.18-1.53,1.29-.5,.49-3.45,2.7-7.48,4.94-11.32,7.02-.87,.47-1.74,.92-2.63,1.35-.49,.24-.99,.47-1.49,.69,.99-.43-.3,.11-.54,.2-2.11,.8-4.24,1.31-6.44,1.76-1.96,.4,1.28-.05-.7,.1-.41,.03-.82,.08-1.24,.1-1.03,.07-2.07,.1-3.1,.08s-2.07-.07-3.11-.15c-.62-.05-1.24-.11-1.86-.2,1.19,.16-.39-.08-.72-.14-4.4-.79-8.68-2.15-12.82-3.83,.26,.11,1.01,.45-.2-.09-.49-.22-.98-.43-1.47-.66-.98-.45-1.95-.91-2.91-1.39-2-1-3.97-2.05-5.9-3.17-.9-.52-1.8-1.05-2.66-1.63-.09-.06-1.65-1.31-.65-.45-.31-.27-.62-.54-.92-.83-.44-.43-.89-.88-1.26-1.37,.21,.27,.53,.84-.05-.18-.31-.54-.61-1.09-.91-1.63-.65-1.18,.16,.68-.31-.72-.4-1.2-.77-2.4-1.05-3.63-.1-.42-.19-.85-.27-1.27-.08-.43-.16-.85-.22-1.28,.07,.58,.07,.63,.02,.15-.24-2.49-.33-4.96-.18-7.46,.03-.54,.08-1.08,.13-1.62,.03-.32,.07-.65,.11-.97-.09,.68-.08,.62,.04-.18,.23-1.29,.48-2.57,.79-3.84,.58-2.33,1.33-4.61,2.21-6.84-.46,1.17,.32-.71,.34-.77,.26-.57,.53-1.13,.8-1.69,.55-1.12,1.14-2.22,1.76-3.3,1.14-1.98,2.38-3.9,3.71-5.76,.36-.51,.73-1.01,1.11-1.51,1.22-1.63-.79,.95,.5-.63,.79-.97,1.59-1.93,2.42-2.87,1.65-1.88,3.39-3.69,5.17-5.44,2.47-2.43,2.62-6.96,0-9.36s-6.72-2.59-9.36,0c-15.6,15.34-27.83,37.6-21.38,60.02,1.75,6.1,5.09,10.88,10.25,14.53,4.29,3.03,9.23,5.39,14.04,7.46,10.39,4.47,21.42,7.1,32.75,5.3,5.69-.9,11.04-3.26,16.03-6.08,4.59-2.6,9.46-5.35,13.35-8.94,8.45-7.8,9.18-21.59,6.67-32.12s-10.01-19.81-20.36-23.91c-9.58-3.8-20.96-1.51-28.32,5.71-4.86,4.76-7.14,11.33-7.19,18.05-.04,5.64,1.21,11.83,4.48,16.52,3.42,4.91,8.81,8.34,14.97,7.85,6.1-.49,12.09-4.17,13.48-10.49,.75-3.37-1.02-7.32-4.62-8.14-3.35-.76-7.34,1.01-8.14,4.62h0Z"/>
      </g>
      <path class="cls-5" d="M633.12,476.26c5.63-6.12,10.06-13.23,14.31-20.37,16.62-27.93,31.27-57.79,35.9-89.96,3.66-25.41,.34-52.59-11.86-74.86l-506.28,4.56c-.3,0-.59,0-.89-.02l-3.21-.18c-1.29-.07-2.47,.78-2.79,2.03-3.38,12.96,5.17,26.92,16.02,35.25,11.45,8.8,25.46,13.77,36.95,22.51,29.16,22.15,35.91,62.21,45.12,97.65,8.29,31.93,20.26,62.9,35.6,92.11,3.09,5.88,6.52,11.92,12.04,15.61,4.96,3.31,11.05,4.35,16.95,5.18,33.74,4.76,67.92,5.33,101.99,5.89,20.67,.34,41.35,.68,62.03,.9,42.18-24.38,83.57-50.12,124.07-77.2,8.53-5.7,17.1-11.53,24.05-19.08Z"/>
      <path class="cls-6" d="M833.09,291.61c-2.72-1.36-5.77-1.94-8.81-1.91l-152.81,1.38c12.2,22.27,15.52,49.45,11.86,74.86-4.64,32.17-19.28,62.03-35.9,89.96-4.25,7.14-8.68,14.25-14.31,20.37-6.95,7.55-15.52,13.38-24.05,19.08-40.5,27.08-81.89,52.82-124.07,77.2,61.11,.64,122.23,.21,183.14-4.48,10.68-.82,21.89-1.96,30.7-8.05,9.1-6.29,14.16-16.84,18.35-27.08,13.51-33.02,22.14-67.83,34.52-101.29,12.39-33.46,29.12-66.31,55.59-90.24,11.37-10.28,24.88-19.43,30.7-33.6,2.24-5.46,3.18-12.16-4.91-16.2Z"/>
      <path class="cls-8" d="M165.19,302.25c3.77-.03,7.54-.07,11.31-.1,10.43-.09,20.85-.19,31.28-.28,15.94-.14,31.89-.29,47.83-.43,20.1-.18,40.2-.36,60.3-.54,23.2-.21,46.4-.42,69.6-.63,24.88-.22,49.75-.45,74.63-.67l76.62-.69,74.27-.67c22.96-.21,45.92-.41,68.88-.62,19.82-.18,39.64-.36,59.46-.54,15.39-.14,30.77-.28,46.16-.42l29.49-.27c4.89-.04,14.03-1.25,17.32,2.67,.82,.97,.72,1.65,.56,3.01,.09-.74-.25,.92-.31,1.15-.2,.73-.44,1.49-.72,2.19-1.69,4.22-4.48,8.1-7.48,11.47-6.68,7.49-14.8,13.48-22.19,20.21-15.78,14.38-28.35,32.11-38.38,50.87-22,41.17-31.96,87.1-48.11,130.58-3.68,9.91-7.29,20.58-13.65,29.16-6.01,8.1-14.86,11.43-24.56,12.81-11.5,1.64-23.31,1.96-34.9,2.64-12.78,.75-25.56,1.32-38.35,1.77-50.52,1.74-101.09,1.33-151.62,.57-25.15-.38-50.33-.57-75.47-1.61-12.38-.51-24.75-1.27-37.07-2.48-6.16-.61-12.33-1.29-18.45-2.19-4.86-.72-10.14-1.48-14.26-4.35-3.67-2.56-6.05-6.61-8.17-10.45-2.73-4.94-5.24-10.01-7.7-15.09-5.04-10.38-9.64-20.97-13.79-31.74-8-20.78-13.86-42.09-19.24-63.67-4.64-18.62-9.62-37.46-18.71-54.48-4.36-8.17-9.82-15.9-16.38-22.45-7.63-7.61-16.8-13.09-26.22-18.18-8.75-4.73-17.89-9.34-24.66-16.81-2.81-3.11-5.28-6.77-6.75-10.71-.72-1.92-1.3-3.96-1.49-6-.09-.97-.1-1.97-.05-2.95,.02-.37,.12-.82,.07-1.18-.19-1.37,1.26-.92-.77,.09l-3.34,.9c1.67-.2,3.36,.05,5.04,.09,8.52,.2,8.52-13.03,0-13.24-3.97-.09-7.73-.57-10.86,2.58-3.77,3.79-3.72,10.7-3.1,15.67,1.33,10.63,7.41,20.32,15.23,27.46,8.26,7.54,18.43,12.41,28.13,17.78,8.97,4.97,17.01,10.64,23.69,18.49,12.16,14.28,18.37,32.81,23.29,50.6,5.72,20.63,10.18,41.52,17,61.84,7.69,22.92,17.17,45.47,28.69,66.74,5.36,9.89,12.45,17.57,23.67,20.45,11.92,3.06,24.85,3.73,37.08,4.74,25.6,2.13,51.31,2.51,76.98,2.93,25.84,.43,51.67,.84,77.51,1.02,51.87,.35,103.79-.3,155.56-3.89,11.34-.79,23.44-.94,34.25-4.83s18.71-11.32,24.37-21.14c5.68-9.86,9.51-20.94,13.36-31.6,4.23-11.72,8.04-23.6,11.81-35.48,13.49-42.61,26.82-87.58,56.47-122.2,6.93-8.1,14.76-15.1,22.84-22.02s15.54-13.75,20.54-22.81c4.42-8.01,7.04-18.15,.03-25.58-4.47-4.73-11.27-6.64-17.6-6.69-4.78-.04-9.57,.09-14.36,.13-11.62,.1-23.25,.21-34.87,.31-17.15,.15-34.29,.31-51.44,.46-21.35,.19-42.69,.38-64.04,.58-24.23,.22-48.46,.44-72.69,.65-25.79,.23-51.59,.46-77.38,.7-26.04,.23-52.08,.47-78.12,.7-24.97,.22-49.93,.45-74.9,.67-22.57,.2-45.15,.41-67.72,.61-18.86,.17-37.73,.34-56.59,.51-13.83,.12-27.67,.25-41.5,.37-7.49,.07-14.97,.13-22.46,.2-.95,0-1.9,.02-2.85,.03-8.51,.08-8.53,13.31,0,13.24Z"/>
    </g>
  </g>
</svg>