<?xml version="1.0" encoding="UTF-8"?>
<svg id="hum" xmlns="http://www.w3.org/2000/svg" viewBox="0 0 1000 1000">
  <defs>
    <style>
      .cls-1 {
        fill: #fff;
      }

      .cls-2 {
        font-family: FreeSansBold, FreeSans;
        font-size: 150px;
      }

      .cls-3 {
        fill: #98e1da;
      }

      .cls-4 {
        fill: #ff94ab;
      }

      .cls-5 {
        fill: #f4f1e8;
      }

      .cls-6 {
        fill: #999487;
      }

      .cls-7 {
        fill: #ffdee5;
      }

      .cls-8 {
        fill: #fedde4;
      }

      .cls-9 {
        fill: #f7f4eb;
      }

      .cls-10 {
        fill: #cdc6c4;
      }

      .cls-11 {
        fill: #aaa393;
      }

      .cls-12 {
        letter-spacing: -.02em;
      }

      .cls-13 {
        fill: red;
      }
    </style>
  </defs>
  <text class="cls-2" transform="translate(13.7 801.96)"><tspan x="0" y="0">h + um = </tspan><tspan class="cls-12" x="658.65" y="0">h</tspan><tspan class="cls-13" x="747.3" y="0">um</tspan></text>
  <g>
    <g>
      <g>
        <g>
          <path class="cls-8" d="M292.13,238.83c-2.13-.82-4.17-1.84-6.19-2.9-4.16-2.18-8.26-4.62-11.83-7.64-.26,1.68,.07,3.54,.55,5.21,1.12,3.9,2.86,7.69,5.58,10.71,1.96,2.18,4.37,3.91,6.76,5.62,4.64,3.31,9.32,6.65,14.49,9.04,7.67,3.54,16.16,4.88,24.56,5.7l12.9-16.58c-13.37-1.25-26.64-3.58-39.63-6.95-2.43-.63-4.85-1.3-7.19-2.21Z"/>
          <path class="cls-6" d="M292.53,237.38c-6.13-2.42-12.3-5.92-17.36-10.15-1.06-.89-2.4-.25-2.56,1.06-.49,3.93,1.2,8.21,2.95,11.65,1.83,3.63,4.49,6.51,7.69,8.98,6.74,5.19,13.96,10.23,22.03,13.09,4.05,1.44,8.26,2.37,12.5,3.03,2.07,.33,4.16,.59,6.25,.82,1.06,.12,2.37,.53,3.19-.36s1.54-1.98,2.3-2.96l3.98-5.11c2.18-2.8,4.35-5.59,6.53-8.39,.82-1.05,.3-2.43-1.06-2.56-7.92-.75-15.8-1.87-23.61-3.37-3.81-.73-7.61-1.56-11.38-2.47s-7.73-1.86-11.43-3.27c-1.81-.69-2.59,2.21-.8,2.89,3.7,1.41,7.58,2.34,11.43,3.27s7.89,1.8,11.86,2.56c7.92,1.51,15.91,2.63,23.93,3.39l-1.06-2.56c-4.3,5.53-8.6,11.06-12.9,16.58l1.06-.44c-8.64-.86-17.43-2.26-25.26-6.2-4-2.01-7.7-4.54-11.34-7.13-3.41-2.42-7.04-4.79-9.48-8.25-1.34-1.9-2.38-4-3.16-6.18s-1.5-4.6-1.2-7.02l-2.56,1.06c5.49,4.59,12.03,8.3,18.68,10.92,1.8,.71,2.58-2.19,.8-2.89Z"/>
        </g>
        <g>
          <path class="cls-5" d="M345.19,223.72c-.08-4.5-.77-9.65-4.51-12.14-3.71-2.47-8.64-1.18-12.91,.11-12.32,3.71-24.87,6.7-37.54,8.92-3.94,.69-7.94,1.32-11.65,2.84-1.24,.51-2.48,1.14-3.33,2.18-.64,.78-.98,1.7-1.13,2.67,3.57,3.02,7.67,5.45,11.83,7.64,2.02,1.06,4.07,2.08,6.19,2.9,2.34,.91,4.76,1.58,7.19,2.21,13,3.37,26.26,5.7,39.63,6.95l5.24-6.73c.76-5.81,1.09-11.68,1-17.54Z"/>
          <path class="cls-6" d="M346.69,223.72c-.09-4.55-.72-9.89-4.55-12.92-4.44-3.51-10.33-1.89-15.23-.43-12.33,3.69-24.86,6.64-37.54,8.86-3.48,.61-7,1.19-10.33,2.42-3.07,1.14-5.73,2.78-6.37,6.23-.09,.5-.04,1.1,.39,1.46,5.42,4.54,11.9,8.25,18.47,10.84,3.46,1.36,7.1,2.24,10.7,3.12s7.56,1.76,11.37,2.51c7.43,1.46,14.93,2.58,22.47,3.38,1.17,.12,3.05,.72,3.98-.18,.34-.33,.62-.8,.91-1.17l3.37-4.33c.31-.4,.64-.78,.93-1.19,.53-.76,.52-1.62,.63-2.52,.12-.97,.22-1.94,.31-2.91,.41-4.38,.57-8.77,.5-13.17-.03-1.93-3.03-1.93-3,0,.09,5.87-.24,11.72-1,17.54l.44-1.06c-1.75,2.24-3.49,4.49-5.24,6.73l1.06-.44c-8.97-.85-17.88-2.18-26.71-3.99s-17.18-3.53-24.95-7.55c-4.26-2.21-8.45-4.63-12.13-7.72l.39,1.46c.53-2.88,3.06-3.78,5.59-4.58s5.38-1.34,8.11-1.82c5.69-1,11.35-2.1,16.98-3.38s11.26-2.71,16.83-4.29c2.6-.74,5.18-1.59,7.8-2.25,2.24-.56,4.7-1.03,6.98-.42,5.1,1.35,5.75,7.35,5.84,11.78,.04,1.93,3.04,1.93,3,0Z"/>
        </g>
      </g>
      <g>
        <path class="cls-10" d="M341.88,213.34c-10.79-10.33-18.11-24.22-20.53-38.96-.25-1.54-.41-3.28,.56-4.5,.63-.8,1.62-1.21,2.59-1.5,5.76-1.71,11.93-.01,17.7,1.69,7.94,2.33,15.88,4.67,23.83,7"/>
        <path class="cls-6" d="M342.94,212.28c-8.04-7.75-14.14-17.42-17.63-28.03-.85-2.58-1.54-5.21-2.08-7.87-.26-1.29-.61-2.65-.58-3.98,.03-1.53,.85-2.16,2.24-2.58,6.2-1.88,12.86,.5,18.8,2.25,7.31,2.15,14.61,4.29,21.92,6.44,1.86,.55,2.65-2.35,.8-2.89-7.15-2.1-14.3-4.2-21.44-6.3-6.47-1.9-13.42-4.27-20.21-2.57-3.11,.78-5.23,2.66-5.1,6.05,.12,2.92,.95,5.94,1.71,8.74,1.59,5.88,3.96,11.58,6.99,16.87,3.37,5.89,7.58,11.29,12.46,15.99,1.39,1.34,3.51-.78,2.12-2.12h0Z"/>
      </g>
      <g>
        <g>
          <path class="cls-8" d="M568.23,181.05c-6.72,8.4-14.64,15.76-22.52,23.08-.89,.82-1.77,1.65-2.66,2.47l10.4,11.2c16.05-14.57,25.94-35.67,27.02-57.3-2.91,7.42-7.25,14.3-12.24,20.54Z"/>
          <path class="cls-6" d="M567.17,179.99c-7.51,9.35-16.42,17.42-25.18,25.55-.61,.57-.54,1.54,0,2.12,3.47,3.73,6.93,7.47,10.4,11.2,.57,.61,1.54,.53,2.12,0,12.69-11.58,21.63-27.14,25.45-43.88,1.09-4.76,1.75-9.61,2.01-14.48,.1-1.82-2.37-1.86-2.95-.4-2.86,7.2-7.04,13.84-11.85,19.88-1.19,1.5,.92,3.63,2.12,2.12,5.16-6.48,9.56-13.49,12.63-21.21l-2.95-.4c-.87,16.58-6.93,32.78-17.06,45.93-2.86,3.71-6.06,7.15-9.52,10.31h2.12c-3.47-3.73-6.93-7.47-10.4-11.2v2.12c8.76-8.14,17.67-16.21,25.18-25.55,1.2-1.49-.91-3.63-2.12-2.12Z"/>
        </g>
        <g>
          <path class="cls-11" d="M568.23,181.05c4.99-6.24,9.33-13.12,12.24-20.54,.05-1.09,.11-2.19,.12-3.28,0-.73,0-1.49-.35-2.12-.56-1.04-1.84-1.45-3.02-1.59-4.16-.47-8.19,1.4-12.06,2.99-17.32,7.1-36.29,9.33-53.79,15.97l31.69,34.13c.89-.82,1.77-1.65,2.66-2.47,7.88-7.32,15.8-14.68,22.52-23.08Z"/>
          <path class="cls-6" d="M569.29,182.11c4.28-5.38,8.11-11.13,11-17.38,.68-1.46,1.6-3.07,1.71-4.69s.34-3.46-.16-5.01c-1.02-3.11-5.02-3.3-7.71-2.97-3.45,.42-6.6,1.88-9.79,3.17s-6.6,2.48-9.96,3.52c-6.75,2.09-13.62,3.75-20.46,5.47-7.74,1.94-15.46,3.99-22.94,6.81-1.06,.4-1.48,1.63-.66,2.51,3.56,3.83,7.11,7.66,10.67,11.49,5.7,6.14,11.4,12.28,17.1,18.42,1.3,1.41,2.61,2.81,3.91,4.22,.57,.61,1.54,.54,2.12,0,8.76-8.14,17.67-16.21,25.18-25.55,1.2-1.49-.91-3.63-2.12-2.12-7.51,9.35-16.42,17.42-25.18,25.55h2.12c-3.56-3.83-7.11-7.66-10.67-11.49-5.7-6.14-11.4-12.28-17.1-18.42-1.3-1.41-2.61-2.81-3.91-4.22l-.66,2.51c12.23-4.61,25.09-7.11,37.66-10.6,6.21-1.72,12.25-3.8,18.22-6.24,2.86-1.17,5.97-2.4,9.13-2.11,1.31,.12,2.27,.45,2.32,1.89,.06,1.75-.06,3.32-.76,4.94-2.82,6.55-6.72,12.62-11.16,18.19-1.19,1.5,.92,3.63,2.12,2.12Z"/>
        </g>
      </g>
      <g>
        <path class="cls-10" d="M487.75,155.71c10.73-6.99,21.73-13.55,32.97-19.68,1.48-.81,3.51-1.54,4.67-.32,.59,.62,.7,1.53,.78,2.37,1.24,13.49,0,27.2-3.66,40.25"/>
        <path class="cls-6" d="M488.51,157c9.39-6.11,18.99-11.9,28.77-17.36,1.12-.62,2.24-1.24,3.36-1.86,.87-.48,1.99-1.26,3.04-1.22s.99,1.4,1.06,2.23c.13,1.49,.22,2.98,.29,4.48,.24,5.43,.09,10.87-.46,16.28-.63,6.22-1.82,12.36-3.5,18.38-.52,1.86,2.38,2.66,2.89,.8,3.24-11.66,4.63-23.84,4.04-35.93-.07-1.42-.16-2.83-.29-4.24-.11-1.27-.21-2.58-1.04-3.62-1.54-1.95-4.12-1.45-6.1-.51-2.73,1.29-5.34,2.91-7.96,4.4s-5.28,3.03-7.89,4.58c-5.99,3.55-11.9,7.22-17.74,11.02-1.61,1.05-.11,3.65,1.51,2.59h0Z"/>
      </g>
    </g>
    <g>
      <g>
        <path class="cls-9" d="M436.34,634.26c.18,1.97-.34,4.41,1.26,5.58,.49,.36,1.11,.51,1.71,.65,2.08,.47,4.18,.85,6.29,1.14,1.61,.22,3.24,.39,4.78,.93s2.99,1.49,3.78,2.91,.76,3.36-.35,4.55c-.66,.71-1.6,1.08-2.53,1.36-3.13,.96-6.42,1.2-9.69,1.38-8.77,.51-18.06,.6-25.72-3.71-1.28-.72-2.54-1.61-3.23-2.91s-.6-3.1,.53-4.03c.69-.57,1.66-.75,2.25-1.42,.37-.42,.54-.98,.71-1.52,1.16-3.89,2.32-7.78,3.48-11.67"/>
        <path class="cls-6" d="M434.84,634.26c.17,2.29-.3,4.99,1.7,6.64,1.06,.88,2.5,1.07,3.81,1.34,1.75,.36,3.51,.64,5.29,.89,2.45,.33,6.28,.65,7.35,3.37,1.26,3.21-3.15,3.8-5.3,4.17-3.06,.53-6.22,.62-9.32,.74-2.93,.11-5.87,.13-8.8-.09s-5.89-.74-8.7-1.68c-1.34-.45-2.64-1.01-3.88-1.68s-2.71-1.47-3.17-2.85c-.52-1.57,.59-1.94,1.71-2.62,1.31-.79,1.76-1.99,2.18-3.39,1.12-3.73,2.23-7.47,3.34-11.2,.55-1.85-2.34-2.65-2.89-.8-1.11,3.73-2.22,7.47-3.34,11.2-.16,.52-.24,1.13-.66,1.51-.48,.43-1.22,.6-1.75,.99-1.16,.87-1.74,2.25-1.71,3.68,.07,3.28,3.07,5.24,5.71,6.53,2.96,1.44,6.13,2.36,9.38,2.86,6.61,1.01,13.58,.78,20.21,.02,2.89-.33,7.06-.67,9.06-3.1,1.87-2.27,1.2-5.62-.77-7.58-2.7-2.71-6.73-2.76-10.26-3.34-1.13-.19-2.26-.4-3.38-.63-.66-.14-1.72-.19-2.25-.68-.95-.87-.49-3.16-.57-4.31-.14-1.91-3.14-1.93-3,0h0Z"/>
      </g>
      <g>
        <path class="cls-9" d="M473.44,627.1l-.25,10.82c-.04,1.6-.05,3.31,.81,4.67,.61,.97,1.6,1.64,2.62,2.16,4.12,2.11,8.94,2.2,13.57,2.2,6.1,0,12.24-.07,18.24-1.15,1-.18,2.02-.4,2.85-.98s1.42-1.61,1.2-2.6c-.18-.76-.78-1.33-1.35-1.87-3.57-3.4-6.9-7.79-6.57-12.71"/>
        <path class="cls-6" d="M471.94,627.1l-.2,8.85c-.06,2.43-.38,5.22,.97,7.39,1.27,2.04,3.7,3.12,5.9,3.84,2.46,.81,5.08,1.09,7.65,1.2,5.53,.24,11.18,.14,16.69-.36,2.57-.23,5.48-.37,7.9-1.32,2.14-.84,3.88-3.09,2.88-5.43-.52-1.22-1.64-2.06-2.54-2.98-.95-.98-1.86-2.01-2.64-3.13-1.57-2.26-2.62-4.74-2.48-7.53,.09-1.93-2.91-1.93-3,0-.2,4.22,1.85,7.98,4.49,11.12,.7,.83,1.45,1.62,2.22,2.37,.71,.69,1.8,1.48,.74,2.39-.65,.56-1.67,.68-2.49,.83-1.37,.25-2.75,.44-4.13,.58-4.91,.51-9.87,.54-14.81,.51-4.2-.02-9.34-.05-12.87-2.68-2.09-1.55-1.54-4.53-1.49-6.81l.2-8.85c.04-1.93-2.96-1.93-3,0h0Z"/>
      </g>
    </g>
    <g>
      <path class="cls-4" d="M369.04,466.54c.02,6.61-3.1,13.17-8.24,17.33-2.43,8.36-4.86,16.72-7.29,25.07-2.33,8.01-4.66,16.03-6.33,24.21-2.21,10.87-3.24,21.98-3.05,33.07,.3,17.29,4.14,35.66,16.41,47.85,8.16,8.11,19.18,12.62,30.13,16.13,22.06,7.08,45.15,10.95,68.32,11.46,6.77,.15,14.74-.63,18.27-6.41,.66-1.08,1.16-2.34,2.21-3.05,1.41-.95,3.29-.61,4.95-.24,11.62,2.58,23.71,4.34,35.39,2.06,16.31-3.18,30.46-14.2,39.62-28.07,9.16-13.87,13.69-30.38,15.42-46.91,4.01-38.5-7.11-78.38-30.48-109.24"/>
      <path class="cls-6" d="M367.54,466.54c-.03,4.11-1.25,8.1-3.5,11.54-1.13,1.72-2.52,3.08-4,4.48-.85,.8-.99,1.94-1.31,3.04-.37,1.26-.73,2.52-1.1,3.78-2.84,9.78-5.78,19.53-8.48,29.34-5.15,18.71-7.99,38.29-5.9,57.7,1.74,16.18,7.46,32.38,20.74,42.62,6.87,5.3,14.95,8.76,23.12,11.55,9.23,3.15,18.7,5.67,28.25,7.63,9.69,1.99,19.51,3.39,29.37,4.19,4.86,.4,9.73,.66,14.6,.74,3.64,.06,7.39-.13,10.9-1.18,3.32-1,6.35-2.86,8.24-5.83,.49-.78,.84-1.75,1.5-2.4,.77-.77,1.87-.73,2.88-.57,2.43,.37,4.84,1.04,7.26,1.49,9.6,1.8,19.48,2.7,29.17,.98,16.05-2.84,29.97-13.1,39.47-26.07,10.71-14.63,15.75-32.7,17.61-50.53s.54-34.9-3.46-51.82c-3.99-16.84-10.74-33.07-19.97-47.71-2.27-3.59-4.69-7.08-7.24-10.47-1.15-1.52-3.75-.03-2.59,1.51,10.29,13.63,18.23,28.96,23.49,45.2s7.84,33.16,7.57,50.16-3.36,35.61-11.39,51.36c-7.26,14.25-19.03,26.68-34.11,32.6-8.4,3.3-17.34,4.15-26.3,3.45-4.87-.38-9.7-1.18-14.48-2.17-2.12-.44-4.4-1.22-6.58-1.06-2.07,.15-3.51,1.32-4.54,3.05-.91,1.53-1.75,2.91-3.22,3.98-1.32,.96-2.84,1.6-4.41,2.04-3.44,.97-7.04,1.05-10.59,.96-9.78-.23-19.55-1.05-29.23-2.49s-19.07-3.42-28.4-5.98c-8.56-2.35-17.21-4.98-25.19-8.93-7.42-3.67-14.14-8.66-18.94-15.49s-7.41-14.1-9.07-21.87c-1.76-8.22-2.21-16.66-2.03-25.05,.21-9.97,1.42-19.89,3.58-29.62s5.04-19.03,7.79-28.48c1.4-4.81,2.8-9.62,4.2-14.43,.27-.94,.43-2.32,.95-3.13,.22-.34,.71-.62,1.01-.91,.42-.4,.83-.82,1.21-1.26,1.29-1.45,2.42-3.05,3.33-4.76,1.83-3.46,2.8-7.3,2.83-11.21,.01-1.93-2.99-1.93-3,0h0Z"/>
    </g>
    <path class="cls-6" d="M480.67,633.3c5.33-10.87,6.57-23.46,7.52-35.38,.5-6.34-.27-12.6-1.38-18.84s-2.55-11.9-4.43-17.69c-2.15-6.63-4.81-13.1-7.93-19.33-.86-1.73-3.45-.21-2.59,1.51,5.32,10.63,9.21,21.96,11.55,33.62,1.18,5.91,2.18,11.99,1.95,18.03s-1,11.94-1.89,17.8c-.99,6.45-2.49,12.88-5.38,18.76-.85,1.73,1.74,3.25,2.59,1.51h0Z"/>
    <g>
      <path class="cls-3" d="M375.23,452.94c-10.49-1.3-19.06-8.67-26.94-15.7-3.69-3.29-7.37-6.58-11.06-9.87-5.78-5.16-11.61-10.38-16.05-16.72-6.4-9.15-9.61-20.31-10.11-31.46-.5-11.15,1.61-22.31,5.1-32.91,1.95-5.9,4.59-12,9.72-15.49,4.93-3.35,11.45-3.69,17.2-2.12s10.87,4.87,15.7,8.37c10.8,7.84,20.64,17.01,29.23,27.23,6.44,7.65,12.22,15.98,15.96,25.26s5.34,19.59,3.34,29.39"/>
      <path class="cls-6" d="M375.23,451.44c-8.69-1.15-16.02-6.68-22.46-12.25-3.77-3.25-7.45-6.61-11.16-9.93s-7.26-6.4-10.73-9.78c-6.68-6.51-12.03-13.9-15.05-22.79s-3.83-18.32-3.02-27.63c.43-4.96,1.33-9.87,2.56-14.69,1.14-4.46,2.43-9.01,4.35-13.21,1.65-3.6,3.88-7.13,7.27-9.31,3.6-2.32,8-2.93,12.19-2.45,9.05,1.04,16.96,7.25,23.88,12.72,7.33,5.79,14.17,12.21,20.41,19.16,12.42,13.83,23.77,30.84,23.21,50.2-.07,2.36-.33,4.7-.79,7.02-.37,1.89,2.52,2.69,2.89,.8,4.03-20.31-6.03-39.5-18.55-54.75-6.26-7.62-13.21-14.66-20.73-21.03-3.76-3.19-7.66-6.23-11.7-9.06s-8.19-5.29-12.82-6.81c-8.43-2.77-18.22-1.5-24.02,5.71-2.79,3.46-4.54,7.58-5.96,11.76-1.65,4.86-2.99,9.85-3.93,14.9-3.64,19.53-.84,40.39,12.35,55.9,3.19,3.75,6.79,7.12,10.44,10.41,4.02,3.62,8.06,7.21,12.1,10.81,6.88,6.14,13.96,12.62,22.79,15.77,2.12,.76,4.28,1.23,6.51,1.53,.81,.11,1.49-.77,1.5-1.5,0-.9-.7-1.39-1.5-1.5h0Z"/>
    </g>
    <g>
      <path class="cls-3" d="M533.33,429.15l17.9-6.23c3.26-1.13,6.52-2.27,9.66-3.69,13.79-6.25,24.89-18.21,30.09-32.44,5.69-15.57,4.36-32.72,2.96-49.24-.48-5.61-1.14-11.67-4.94-15.82-4.44-4.85-11.79-5.6-18.35-5.1-17.27,1.3-33.97,9.18-45.96,21.67s-19.18,29.5-19.77,46.81"/>
      <path class="cls-6" d="M533.73,430.59l15.07-5.25c4.67-1.63,9.41-3.17,13.88-5.31,7.33-3.51,13.92-8.65,19.18-14.83s9.5-13.84,11.83-21.9c2.7-9.32,3.19-19.14,2.87-28.8-.16-4.9-.53-9.79-.94-14.68-.36-4.29-.58-8.72-1.97-12.83-1.31-3.88-3.72-7.24-7.33-9.27s-7.57-2.65-11.53-2.73c-8.47-.18-17.19,1.81-25.04,4.89-8.06,3.16-15.54,7.68-22.04,13.42-13.09,11.57-21.55,27.99-23.77,45.28-.28,2.16-.45,4.34-.53,6.52-.07,1.93,2.93,1.93,3,0,.62-16.59,7.31-32.85,18.63-45.01s26.83-19.93,43.18-21.75c7.06-.79,16.37-.85,20.79,5.81,2.22,3.36,2.86,7.48,3.25,11.41,.44,4.46,.78,8.94,1.05,13.41,.56,9.26,.65,18.66-1.13,27.8-1.58,8.12-4.71,15.78-9.5,22.54-4.45,6.27-10.22,11.62-16.8,15.59-7.95,4.79-17.15,7.3-25.87,10.33l-7.07,2.46c-1.81,.63-1.03,3.53,.8,2.89h0Z"/>
    </g>
    <g>
      <path class="cls-3" d="M389.3,383.44c-3.36,30.91-22.99,57.73-29.87,88.05-.4,1.75-.75,3.55-.46,5.32,.35,2.08,1.57,3.91,2.94,5.52,9.48,11.18,25.44,13.79,40.01,15.39,38.35,4.2,78.79,6.15,113.83-9.99,9.09-4.19,17.62-9.52,26.76-13.58,7.71-3.43,16.43-6.43,20.79-13.65,1.07-1.78,1.84-3.87,1.47-5.91-.24-1.35-.95-2.56-1.65-3.75-8.25-13.98-16.5-27.97-24.76-41.95-9.05-15.33-18.16-30.75-29.8-44.21"/>
      <path class="cls-6" d="M387.8,383.44c-3.13,28.13-19.4,52.39-27.53,79.06-1.03,3.39-2.07,6.86-2.65,10.36s.21,6.66,2.46,9.58c3.79,4.92,9.11,8.46,14.78,10.87,11.91,5.05,25.36,5.85,38.09,7.05,28.86,2.7,58.75,3.45,86.8-4.99,6.92-2.08,13.66-4.75,20.14-7.95,7.01-3.47,13.75-7.44,20.82-10.79,5.7-2.7,11.82-4.72,17.04-8.34,4.72-3.28,10.52-9.41,7.99-15.66-.67-1.65-1.68-3.16-2.58-4.68-1.09-1.85-2.19-3.71-3.28-5.56-2.11-3.57-4.21-7.13-6.32-10.7-4.13-6.99-8.25-13.98-12.38-20.97-7.75-13.14-15.44-26.38-24.67-38.55-2.21-2.91-4.49-5.76-6.88-8.53-1.26-1.46-3.38,.67-2.12,2.12,9.65,11.19,17.55,23.72,25.1,36.37,8.03,13.46,15.95,26.99,23.91,40.49,1.97,3.34,4.08,6.65,5.92,10.06,.8,1.48,1.14,2.92,.68,4.57s-1.35,3.03-2.37,4.3c-3.74,4.67-9.5,7.19-14.86,9.52-6.57,2.85-12.9,6.05-19.2,9.43s-12.99,6.78-19.87,9.34c-26.5,9.86-55.33,10.43-83.22,8.41-7.09-.51-14.18-1.2-21.25-1.97-6.09-.66-12.19-1.46-18.13-2.99s-11.37-3.66-16.17-7.22c-2.39-1.77-4.78-3.99-6.37-6.52-.88-1.39-1.37-2.84-1.31-4.5,.07-1.89,.64-3.79,1.09-5.62,6.61-26.34,22.13-49.57,27.77-76.21,.68-3.23,1.2-6.48,1.57-9.76,.21-1.92-2.79-1.9-3,0h0Z"/>
    </g>
    <g>
      <g>
        <path class="cls-1" d="M483.27,428.26c6.97,1.01,14.06-.03,21.03-1.07,4.27-.64,8.54-1.27,12.8-1.91,.27-.04,.58-.1,.75-.31,.15-.18,.17-.44,.18-.68,.34-6.37,.03-12.76-.93-19.07-.05-.31-.1-.63-.31-.86-.23-.26-.6-.33-.94-.39-7.91-1.26-15.67,2.42-22.83,6-3.34,1.67-6.68,3.34-10.02,5.01"/>
        <path class="cls-6" d="M482.87,429.7c6.66,.92,13.27,.18,19.88-.78,3.44-.5,6.88-1.02,10.32-1.54,1.46-.22,2.99-.34,4.43-.66,1.58-.35,1.97-1.44,2.06-2.92,.21-3.34,.14-6.71-.05-10.05-.09-1.55-.22-3.1-.39-4.64s-.17-3.42-.71-4.89c-.49-1.34-1.72-1.65-3-1.81-1.48-.19-2.96-.23-4.45-.12-3.13,.23-6.19,1.01-9.13,2.1-6.76,2.49-13.14,6.09-19.58,9.3-1.73,.86-.21,3.45,1.51,2.59,5.11-2.55,10.18-5.25,15.39-7.58,4.86-2.17,10.19-3.93,15.58-3.36,.29,.03,.61,.03,.89,.12l.17,.03c-.22-.27-.27-.22-.14,.14-.1,.57,.21,1.44,.28,2.03,.18,1.46,.33,2.92,.44,4.39,.23,2.93,.32,5.88,.27,8.82-.01,.65-.03,1.31-.05,1.96-.01,.3-.17,.95-.05,1.22v.24c.54-.42,.64-.58,.29-.48-.37-.16-1.65,.25-2.11,.32-.82,.12-1.64,.24-2.46,.37-2.87,.43-5.74,.86-8.62,1.28-6.59,.98-13.34,1.95-19.99,1.03-.81-.11-1.6,.2-1.85,1.05-.2,.7,.25,1.73,1.05,1.85h0Z"/>
      </g>
      <g>
        <path class="cls-1" d="M478.03,419.5c-.45,18.99,5.78,37.74,4.69,56.71,6.71,1.03,13.69,.15,19.94-2.49,.31-.13,.63-.28,.82-.55,.25-.37,.2-.85,.14-1.29-2.66-18.82-6.62-37.45-11.84-55.72"/>
        <path class="cls-6" d="M476.53,419.5c-.4,19.05,5.72,37.63,4.69,56.71-.03,.59,.48,1.36,1.1,1.45,5.21,.76,10.49,.56,15.6-.76,1.17-.3,2.32-.66,3.45-1.07,1.04-.38,2.42-.72,3.16-1.6s.64-1.93,.49-2.99c-.2-1.44-.41-2.87-.63-4.3-1.69-11.06-3.83-22.06-6.41-32.95-1.45-6.11-3.04-12.19-4.76-18.23-.53-1.85-3.42-1.07-2.89,.8,2.78,9.76,5.22,19.61,7.28,29.55,1.03,4.97,1.97,9.95,2.82,14.95,.43,2.54,.84,5.08,1.22,7.63,.08,.56,.17,1.11,.25,1.67,.06,.38,.42,1.52,.26,1.85-.25,.51-2.2,.95-2.86,1.17-5.2,1.68-10.76,2.18-16.18,1.39l1.1,1.45c1.03-19.08-5.09-37.65-4.69-56.71,.04-1.93-2.96-1.93-3,0h0Z"/>
      </g>
      <g>
        <path class="cls-1" d="M424.25,395.49c13.95,11.99,33.59,15.07,48.66,25.62,3.28,2.29,6.35,4.95,9.99,6.61s8.09,2.18,11.53,.14c.17-.1,.35-.22,.45-.39,.2-.33,.06-.75-.08-1.11-.97-2.54-1.94-5.08-2.91-7.63-.39-1.01-.78-2.04-1.49-2.86-.54-.62-1.23-1.08-1.92-1.52-14.56-9.35-31.96-13.75-46.06-23.78"/>
        <path class="cls-6" d="M423.19,396.56c14.64,12.47,34.59,15.41,50.01,26.6,4.05,2.94,8.08,6.3,13.14,7.24,2.33,.44,4.81,.43,7.06-.4,.93-.34,2.07-.77,2.66-1.61,.84-1.21,.14-2.56-.32-3.77-.98-2.58-1.85-5.25-3-7.77-1.06-2.32-3.03-3.52-5.13-4.8-4.4-2.68-9.03-4.95-13.71-7.1-10.45-4.78-21.27-8.98-30.71-15.66-1.58-1.12-3.08,1.48-1.51,2.59,7.85,5.55,16.67,9.4,25.41,13.28,4.32,1.92,8.64,3.85,12.84,6.02,2.16,1.12,4.28,2.29,6.35,3.56,.94,.57,2,1.12,2.79,1.9,.86,.85,1.23,2.06,1.65,3.17,.46,1.2,.91,2.39,1.37,3.59,.23,.6,.46,1.2,.68,1.79,.1,.26,.54,1.99,.91,1.38-.39,.64-2.29,.93-2.96,1.03-1.18,.17-2.41,.11-3.57-.1-4.64-.84-8.38-3.98-12.08-6.69-7.25-5.31-15.49-8.82-23.73-12.27-9.1-3.8-18.43-7.66-26.02-14.12-1.46-1.25-3.59,.87-2.12,2.12h0Z"/>
      </g>
      <g>
        <path class="cls-1" d="M498.4,380.73c-7.34,14.02-16.19,27.25-26.36,39.38,2.21,1.6,4.61,2.95,7.12,4.01,.74,.31,1.57,.6,2.32,.33,.62-.22,1.05-.77,1.45-1.3,10.74-14.24,21.7-28.9,26.68-46.04"/>
        <path class="cls-6" d="M497.1,379.97c-7.29,13.91-16.05,27.03-26.12,39.07-.66,.79-.53,1.76,.3,2.36,1.92,1.37,3.94,2.56,6.08,3.55,1.91,.88,4.05,1.78,5.85,.16,1.57-1.42,2.77-3.52,4.04-5.21,1.35-1.81,2.7-3.62,4.03-5.45,5.28-7.28,10.3-14.8,14.27-22.89,2.22-4.52,4.1-9.21,5.52-14.04,.55-1.86-2.35-2.65-2.89-.8-4.66,15.85-14.37,29.49-24.17,42.54-.7,.93-1.39,1.86-2.1,2.79-.32,.41-.62,.98-1.19,1.01-.44,.02-1.03-.33-1.42-.5-2.29-1.01-4.46-2.28-6.5-3.74l.3,2.36c10.24-12.24,19.18-25.54,26.59-39.68,.9-1.71-1.69-3.23-2.59-1.51h0Z"/>
      </g>
      <path class="cls-6" d="M478.81,411.03c2.79,1.45,5.55,2.97,8.26,4.57,.68,.4,1.67,.18,2.05-.54s.18-1.63-.54-2.05c-2.71-1.6-5.46-3.12-8.26-4.57-.7-.36-1.66-.2-2.05,.54-.36,.69-.21,1.67,.54,2.05h0Z"/>
    </g>
    <g>
      <path class="cls-5" d="M582.96,276.63c-1.24-27.02-17.16-50.88-32.65-73.05-8.92-12.77-17.99-25.6-29.39-36.21-30.74-28.59-77.75-37.72-117.46-24.11-39.71,13.61-70.89,48.84-81.03,89.58-3.36,13.5-4.56,27.45-5.06,41.35-.62,17.37,.2,35.92,10.08,50.22l107.84-6.2,97.4-11.65,50.27-29.93Z"/>
      <path class="cls-6" d="M584.46,276.63c-.96-19.61-9.45-37.68-19.67-54.1-5.24-8.42-10.94-16.54-16.65-24.64-5.91-8.37-11.99-16.65-18.9-24.22-12.1-13.27-26.96-23.45-43.72-29.92-16.09-6.21-33.56-8.94-50.78-8.01s-33.75,5.52-48.85,13.52c-14.7,7.79-27.79,18.62-38.43,31.4s-19.02,27.74-24.18,43.7c-3.07,9.5-4.88,19.35-5.99,29.26s-1.71,20.65-1.57,30.96c.13,9.39,1.06,18.95,4.12,27.88,1.49,4.33,3.45,8.57,6.06,12.35,.64,.93,1.19,1.12,2.16,1.07l16.69-.96c10.23-.59,20.45-1.18,30.68-1.76,10.96-.63,21.92-1.26,32.88-1.89l22.9-1.32c2.34-.13,4.63-.3,6.96-.58,7.46-.89,14.92-1.78,22.38-2.68,10.91-1.3,21.83-2.61,32.74-3.91l28.85-3.45,8.37-1c1.01-.12,2.25-.1,3.15-.59,2.27-1.24,4.46-2.66,6.69-3.98,4.23-2.52,8.47-5.04,12.7-7.56,8.68-5.17,17.36-10.34,26.04-15.5,1.54-.92,3.09-1.84,4.63-2.76,1.66-.99,.15-3.58-1.51-2.59-6.9,4.11-13.81,8.22-20.71,12.33l-27.63,16.45c-.36,.21-1.75,.74-1.92,1.15,.14-.32,1.15-.21,.48-.17-.28,.02-.56,.07-.84,.1l-8.52,1.02c-10.97,1.31-21.93,2.62-32.9,3.93-12.11,1.45-24.22,2.9-36.32,4.34-6.15,.74-12.3,1.64-18.47,2.21-4.65,.43-9.34,.54-14,.81-11.39,.66-22.79,1.31-34.18,1.97-12.28,.71-24.56,1.41-36.84,2.12l-21.84,1.26-1.05,.06,1.3,.74c-9-13.15-10.29-29.57-10-45.06,.32-17.26,1.75-34.8,6.79-51.38,4.04-13.29,10.35-25.85,18.43-37.15s18.06-21.38,29.38-29.49c11.38-8.16,24.13-14.4,37.67-18.05s28.57-4.79,42.94-3.3c14.26,1.48,28.31,5.54,41.1,12.02,13.72,6.95,25.44,16.66,35.41,28.33,5.61,6.57,10.68,13.56,15.65,20.62s9.52,13.56,14,20.53c8.75,13.62,16.61,28.22,19.89,44.22,.79,3.86,1.28,7.75,1.47,11.68,.09,1.92,3.09,1.93,3,0Z"/>
    </g>
    <path class="cls-11" d="M449.38,172.83c2.06,14.67,6.87,29.15,15.57,41.14,3.49,4.81,7.56,9.17,11.7,13.45,12.9,13.35,26.99,26.33,44.34,32.93,8.66,3.3,17.86,4.9,27.03,6.2,11.4,1.62,22.87,2.81,34.37,3.57-3.23-24.38-17.82-46.18-32.06-66.56-8.92-12.77-17.99-25.6-29.39-36.21-19.56-18.19-45.7-28.49-72.36-30.08-.77,11.87-.83,23.78,.82,35.54Z"/>
    <path class="cls-11" d="M349.51,305.82c12.47-8.82,25.35-17.06,38.58-24.68,8.48-4.88,17.82-10.35,20.84-19.66,3.43-10.56-3.14-22.31-12.46-28.33-9.32-6.02-20.75-7.61-31.78-8.82-9.37-1.03-19.13-1.85-27.98,1.39-3.91,1.43-7.5,3.61-11.05,5.79-1.14,.7-2.28,1.42-3.42,2.13-3.21,13.25-4.39,26.91-4.87,40.54-.55,15.47,.05,31.87,7.18,45.38,3.57-1.12,7.04-2.51,10.37-4.25,5.15-2.69,9.85-6.14,14.59-9.49Z"/>
    <path class="cls-6" d="M584.46,276.63c-.96-19.61-9.45-37.68-19.67-54.1-5.24-8.42-10.94-16.54-16.65-24.64-5.91-8.37-11.99-16.65-18.9-24.22-12.1-13.27-26.96-23.45-43.72-29.92-16.09-6.21-33.56-8.94-50.78-8.01s-33.75,5.52-48.85,13.52c-14.7,7.79-27.79,18.62-38.43,31.4s-19.02,27.74-24.18,43.7c-3.07,9.5-4.88,19.35-5.99,29.26s-1.71,20.65-1.57,30.96c.13,9.39,1.06,18.95,4.12,27.88,1.49,4.33,3.45,8.57,6.06,12.35,.64,.93,1.19,1.12,2.16,1.07l16.69-.96c10.23-.59,20.45-1.18,30.68-1.76,10.96-.63,21.92-1.26,32.88-1.89l22.9-1.32c2.34-.13,4.63-.3,6.96-.58,7.46-.89,14.92-1.78,22.38-2.68,10.91-1.3,21.83-2.61,32.74-3.91l28.85-3.45,8.37-1c1.01-.12,2.25-.1,3.15-.59,2.27-1.24,4.46-2.66,6.69-3.98,4.23-2.52,8.47-5.04,12.7-7.56,8.68-5.17,17.36-10.34,26.04-15.5,1.54-.92,3.09-1.84,4.63-2.76,1.66-.99,.15-3.58-1.51-2.59-6.9,4.11-13.81,8.22-20.71,12.33l-27.63,16.45c-.36,.21-1.75,.74-1.92,1.15,.14-.32,1.15-.21,.48-.17-.28,.02-.56,.07-.84,.1l-8.52,1.02c-10.97,1.31-21.93,2.62-32.9,3.93-12.11,1.45-24.22,2.9-36.32,4.34-6.15,.74-12.3,1.64-18.47,2.21-4.65,.43-9.34,.54-14,.81-11.39,.66-22.79,1.31-34.18,1.97-12.28,.71-24.56,1.41-36.84,2.12l-21.84,1.26-1.05,.06,1.3,.74c-9-13.15-10.29-29.57-10-45.06,.32-17.26,1.75-34.8,6.79-51.38,4.04-13.29,10.35-25.85,18.43-37.15s18.06-21.38,29.38-29.49c11.38-8.16,24.13-14.4,37.67-18.05s28.57-4.79,42.94-3.3c14.26,1.48,28.31,5.54,41.1,12.02,13.72,6.95,25.44,16.66,35.41,28.33,5.61,6.57,10.68,13.56,15.65,20.62s9.52,13.56,14,20.53c8.75,13.62,16.61,28.22,19.89,44.22,.79,3.86,1.28,7.75,1.47,11.68,.09,1.92,3.09,1.93,3,0Z"/>
    <g>
      <path class="cls-7" d="M334.85,295.28c1.35-1.21,2.57-2.54,3.7-3.95,14.96-18.7,35.49-32.55,57.6-41.81,22.95-9.61,47.63-14.5,72.35-17.31,9.59-1.09,19.25-1.88,28.9-1.58,29.33,.9,58.23,12.15,80.44,31.32,4.28,3.69,8.36,7.72,11.35,12.51,10.45,16.76,5.37,39.22-5.15,55.93-20.45,32.47-57.46,50.35-93.7,62.96-12.5,4.35-25.21,8.29-38.29,10.27-21.34,3.23-43.25,1.16-64.22-3.95-16.5-4.02-32.88-10.09-45.97-20.91s-22.54-26.98-22.14-43.95c.3-12.52,5.74-24.25,11.78-35.29,.87-1.59,2-3.03,3.35-4.24h0Z"/>
      <path class="cls-6" d="M335.91,296.34c2.22-2.03,4.01-4.41,5.96-6.69,1.77-2.08,3.61-4.1,5.51-6.05,3.81-3.91,7.88-7.57,12.15-10.98,8.64-6.9,18.14-12.72,28.07-17.58,22-10.77,46.13-16.57,70.29-19.98,12.88-1.82,25.96-3.29,38.99-2.94,11.12,.3,22.17,2.1,32.83,5.28s20.85,7.7,30.34,13.46c4.75,2.89,9.32,6.07,13.64,9.56s9.02,7.58,12.49,12.27c13.3,17.94,6.36,42.41-5.03,59.39s-28.12,30.2-46.04,40.19c-9.2,5.13-18.79,9.53-28.57,13.45-10.58,4.23-21.37,8.06-32.3,11.28-12.33,3.63-24.9,6.09-37.77,6.56s-25.63-.73-38.2-3.15c-22.14-4.26-45.71-11.64-61.57-28.55-7.21-7.69-12.66-17.21-14.69-27.61-2.26-11.56,.69-23.07,5.5-33.59,1.21-2.65,2.53-5.25,3.89-7.83,1.26-2.37,2.47-4.68,4.5-6.49,1.44-1.29-.69-3.41-2.12-2.12-2.16,1.93-3.51,4.37-4.85,6.89-1.45,2.71-2.83,5.46-4.11,8.26-2.53,5.58-4.67,11.38-5.76,17.43-2,11.04-.13,22.11,4.88,32.11,10.55,21,31.9,32.95,53.62,39.53,24.52,7.43,51.01,10.53,76.41,6.39,12.98-2.12,25.57-6.1,37.95-10.44,10.1-3.55,20.09-7.45,29.8-11.95,19.29-8.94,37.85-20.46,52.22-36.32,14.16-15.64,25.71-37.15,21.72-58.89-.96-5.23-2.97-10.29-5.95-14.69-3.32-4.91-7.66-9.01-12.18-12.79-8.82-7.39-18.61-13.59-29.05-18.42s-21.35-8.28-32.61-10.26c-12.21-2.15-24.54-2.35-36.88-1.37-25.71,2.04-51.73,6.53-75.97,15.53-21.51,7.99-41.85,19.88-57.92,36.43-1.85,1.91-3.64,3.87-5.36,5.9-1.94,2.28-3.73,4.66-5.96,6.69-1.43,1.3,.7,3.42,2.12,2.12Z"/>
    </g>
    <path class="cls-6" d="M481.63,289.55c.93-3.45,4.34-5.72,7.84-5.81,3.31-.09,6.63,1.53,8.67,4.13,4.33,5.53,.75,13.98-5.82,15.64-1.63,.41-1.3,2.98,.4,2.95,5.72-.12,12.66,2.26,13.57,8.74,.4,2.86-.71,5.43-3.18,6.97-3,1.88-6.64,2.71-10.14,2.77-1.93,.03-1.93,3.03,0,3,4.22-.07,8.82-1.12,12.31-3.62,2.97-2.13,4.43-5.53,4.01-9.15-.94-8.19-9.12-11.87-16.57-11.71l.4,2.95c6.63-1.67,11.09-8.84,9.69-15.53s-8.77-11.14-15.38-9.91c-4.03,.75-7.61,3.79-8.69,7.78-.5,1.87,2.39,2.66,2.89,.8h0Z"/>
    <path class="cls-6" d="M397.76,223.79c.11-.46,.23-.91,.38-1.35,.06-.18,.13-.35,.19-.53-.2,.5,.05-.08,.09-.18,.18-.38,.39-.75,.61-1.1,.12-.2,.25-.39,.39-.59,.11-.15,.39-.5,.12-.18,.56-.69,1.19-1.32,1.88-1.88,.39-.31-.55,.36,.18-.12,.16-.1,.31-.21,.47-.31,.4-.25,.81-.46,1.23-.67,.17-.09,.36-.15,.07-.04,.23-.09,.47-.17,.71-.25,.43-.14,.87-.25,1.31-.34-.02,0,.8-.12,.49-.09-.33,.04,.43-.03,.5-.03,.45-.03,.9-.03,1.36,0,.25,.01,.5,.03,.75,.06-.43-.04,.07,.01,.25,.05,.44,.08,.88,.19,1.32,.32,.24,.07,.48,.15,.71,.24,.08,.03,.66,.29,.26,.1,.45,.22,.89,.46,1.32,.72,1.34,.82,3.36,.34,4.1-1.08s.36-3.23-1.08-4.1c-4.49-2.74-10.08-3-14.85-.84-4.26,1.93-7.5,6.07-8.54,10.6-.35,1.53,.47,3.32,2.1,3.69,1.53,.35,3.31-.46,3.69-2.1h0Z"/>
    <path class="cls-6" d="M502.22,201.11c.19-.26,.13-.16-.04,.03,.13-.15,.26-.31,.39-.45,.25-.27,.51-.51,.78-.75,.24-.22,.17-.12-.04,.02,.13-.09,.26-.19,.39-.27,.3-.2,.61-.38,.94-.54,.28-.14,.43-.2,.05-.05,.15-.06,.3-.12,.45-.17,.34-.12,.69-.22,1.04-.3,.16-.04,.32-.06,.47-.1,.36-.09-.55,.03,.04,0,.36-.02,.72-.04,1.08-.02,.16,0,.31,.03,.47,.03,.42,0-.51-.11-.1-.02,.34,.08,.69,.14,1.03,.24,.19,.05,.37,.12,.56,.18,.07,.03,.54,.23,.19,.06s.11,.06,.17,.09c.17,.09,.35,.18,.52,.28,.31,.18,.59,.38,.88,.58,.34,.23-.35-.33-.06-.03,.11,.11,.24,.21,.35,.31,.26,.24,.49,.5,.73,.76,.37,.41-.15-.26,.03,.04,.1,.17,.22,.33,.32,.49,.84,1.33,2.71,1.97,4.1,1.08s1.97-2.68,1.08-4.1c-2.23-3.55-6.07-5.82-10.27-5.99s-8.29,2.13-10.73,5.58c-.91,1.29-.27,3.39,1.08,4.1,1.54,.81,3.14,.3,4.1-1.08h0Z"/>
    <path class="cls-6" d="M397.07,187.9l-3.24,3.52c-.27,.29-.44,.66-.44,1.06,0,.37,.16,.81,.44,1.06s.66,.46,1.06,.44,.79-.15,1.06-.44l3.24-3.52c.27-.29,.44-.66,.44-1.06,0-.37-.16-.81-.44-1.06s-.66-.46-1.06-.44-.79,.15-1.06,.44h0Z"/>
    <path class="cls-6" d="M494.58,173.75c.7-.03,1.4,0,2.1,.07-.33-.04,.24,.04,.29,.05,.18,.03,.37,.07,.55,.11,.34,.07,.68,.16,1.02,.27s.66,.22,.99,.35c.16,.07,.17,.07,.03,0,.09,.04,.17,.08,.26,.11,.15,.07,.3,.14,.44,.21,.65,.33,1.26,.71,1.84,1.14,.63,.47,1.7,.13,2.05-.54,.41-.78,.14-1.55-.54-2.05-2.57-1.9-5.84-2.86-9.03-2.73-.78,.03-1.54,.67-1.5,1.5,.04,.78,.66,1.54,1.5,1.5h0Z"/>
    <path class="cls-6" d="M411.61,267.11c3.14,0,6.15-2.76,6-6s-2.64-6-6-6c-3.14,0-6.15,2.76-6,6s2.64,6,6,6h0Z"/>
    <path class="cls-6" d="M522.71,250.89c3.14,0,6.15-2.76,6-6s-2.64-6-6-6c-3.14,0-6.15,2.76-6,6s2.64,6,6,6h0Z"/>
    <path class="cls-6" d="M645.88,273.18c9.3-.61,19.05-1.56,27.29-6.3,7.19-4.14,12.92-11.23,13.81-19.65,.95-9.01-4.58-16.83-10.03-23.39s-12.16-13.31-11.94-22.03c.22-8.7,9-13.54,15.92-17.3,3.39-1.84,.37-7.03-3.03-5.18-6.67,3.62-14.06,7.97-17.24,15.23-3.94,8.98,.06,18.3,5.56,25.64,4.88,6.51,11.7,12.39,14.11,20.4,2.22,7.38-1.19,14.33-7.11,19.04-7.55,6.02-18.04,6.94-27.36,7.55-1.62,.11-3,1.3-3,3,0,1.54,1.37,3.11,3,3h0Z"/>
    <path class="cls-6" d="M601.99,137.34c.24,1.31,.25-.57,0,.76,.18-1.02-.31,.6-.04,0,.16-.35,.63-.65-.03-.04,.11-.1,.85-.58,.3-.31-.77,.37,1.11-.25-.35,.17,.23-.07,1.32-.27,.13-.08,.41-.07,.45-.26-.16-.07,.23,.05,.45,.11,.67,.18-.48-.22-.57-.26-.28-.11,.21,.15,.87,.59,.11-.02,.28,.23,.52,.48,.76,.74-.09-.1-.6-.71-.08-.05,.62,.78-.14-.83,.15,.26,.07,.27,.14,.52,.2,.79-.19-1-.05,.26-.04,.43,.01,.84-.02,.25,.03,.03-.1,.54-.25,1.08-.45,1.59,.35-.89-.04,.07-.06,.05l-.2,.36c.84-1.15,2.14-1.48,3.9-1.01,.38,0,.36,.34,.01-.07-.26-.3-.57-.57-.84-.86-.46-.49-.89-1-1.31-1.51,.54,.65-.02-.03-.15-.2-.27-.38-.54-.76-.8-1.15-.74-1.12-1.41-2.28-2.03-3.46-.31-.6-.61-1.2-.89-1.81-.17-.37-.34-.74-.5-1.11-.55-1.22,.32,.82-.18-.42-2.43-6.02-4.27-12.29-6.11-18.51-1.93-6.54-3.71-13.13-5.45-19.72-.95-3.61-1.69-7.51-3.66-10.74-2.19-3.6-5.74-6.06-10.01-6.26v9c15.82-.33,31.49-4.6,45.3-12.34,3.83-2.15,7.5-4.58,10.98-7.26l-6.77-3.89c.38,20.29,3.36,40.51,8.26,60.19,1.22,4.89,2.55,9.74,4,14.57,1.27,4.22,2.74,9.1,6.94,11.33,2.45,1.31,5.48,1.27,7.86-.21s3.67-3.93,4.4-6.47c1.33-4.62,1.3-9.66,.29-14.34-.58-2.68-1.6-5.31-2.9-7.72-1.58-2.93-3.98-5.35-7.51-5.4-3.02-.05-6.09,2.05-7.39,4.73-1.52,3.14-1.13,6.45-.46,9.76,.47,2.31,3.33,3.86,5.54,3.14,2.45-.79,3.65-3.06,3.14-5.54-.09-.43-.17-.86-.25-1.28-.17-.91-.04-.3-.02-.1-.02-.22-.04-.43-.05-.65s0-.43,0-.65c0-.06,.07-.74,0-.25s.06-.19,.08-.24c.27-.91-.17,.32,.05-.1s-.14,.18-.19,.22c.11-.08,.4-.51,.05-.11-.31,.35-.07,.05,.09-.05,.18-.11,.55-.15,.06-.05-.28,.06-.49,.15-.79,.16,.79-.04-.1-.02-.24-.05-.18-.05-.42-.25-.58-.28-.38-.06,.23,.31,0,.02-.25-.32,.32,.54,.41,.7,.24,.42,.47,.85,.69,1.29,.19,.37,.37,.75,.53,1.14-.04-.08-.21-.59-.06-.11,.11,.33,.25,.65,.36,.98,.27,.79,.5,1.6,.69,2.41,.11,.48,.21,.95,.29,1.43,.04,.21,.07,.41,.1,.62-.07-.46-.04-.34,0,.05,.08,.9,.13,1.81,.12,2.71,0,.42-.02,.84-.04,1.25-.01,.21-.03,.42-.04,.63,0,.11-.13,1.22-.06,.65,.05-.41-.12,.66-.15,.85-.08,.41-.17,.82-.27,1.23s-.23,.82-.36,1.22c-.03,.1-.28,.61-.04,.13,.26-.52-.11,.17-.17,.26-.09,.15-.18,.3-.28,.45,.08-.13,.59-.71,.04-.13,.03-.03,.67-.46,.24-.2s.27-.1,.3-.11c-.83,.25,.82-.04,.02-.03-.03,0,1,.14,.51,.03-.55-.13,.95,.25,.17,.04-.3-.08-.21-.38-.02,0s.16,.15,0-.05c-.3-.37-.5-.69-.13-.08-.42-.68-.8-1.36-1.18-2.07,.36,.66,.1,.25-.05-.18s-.28-.87-.42-1.3c-.33-1.07-.65-2.14-.97-3.21-.59-1.99-1.16-3.99-1.71-6-1.12-4.09-2.17-8.19-3.12-12.32-1.91-8.25-3.46-16.59-4.62-24.98,0,0-.1-.77-.05-.35s-.09-.72-.11-.83c-.07-.55-.14-1.11-.21-1.66-.14-1.19-.28-2.38-.41-3.57-.26-2.38-.48-4.77-.67-7.15-.37-4.78-.61-9.56-.7-14.36-.03-1.59-.84-3.07-2.23-3.89-1.25-.73-3.31-.95-4.54,0-5.9,4.54-12.33,8.35-19.16,11.33-.19,.09-.39,.17-.59,.25,.08-.03,.58-.24,.1-.04s-.92,.38-1.38,.56c-.86,.34-1.72,.67-2.58,.98-1.8,.65-3.62,1.25-5.45,1.78-3.53,1.04-7.13,1.86-10.76,2.47-.56,.09-1.12,.18-1.68,.26-.21,.03-.42,.06-.63,.09-.73,.11,.67-.07-.07,0-1.06,.12-2.11,.25-3.17,.34-2.12,.19-4.24,.3-6.36,.34-2.35,.05-4.61,2.04-4.5,4.5s1.98,4.38,4.5,4.5c1.27,.06-.96-.12,.29,.06,.96,.14-.5-.43,.31,.12,.13,.08,1.11,.81,.34,.16,.3,.25,.55,.53,.83,.8,.81,.76-.3-.66,.24,.3,.21,.37,.44,.72,.64,1.1,.04,.07,.57,1.33,.24,.47,.2,.53,.38,1.07,.55,1.61,1.16,3.76,2.03,7.62,3.06,11.42,2.11,7.84,4.32,15.66,6.81,23.39,2.16,6.71,4.43,13.74,8.67,19.47,2.55,3.45,6.76,8.84,11.6,5.84,1.93-1.2,3.05-3.58,3.64-5.69s.69-4.67,0-6.84c-1.53-4.85-6.28-8.22-11.4-7.36-2.4,.4-4.43,1.89-5.82,3.84-1.47,2.06-1.77,4.43-1.32,6.87s3.37,3.85,5.54,3.14c2.49-.81,3.59-3.05,3.14-5.54h0Z"/>
    <path class="cls-6" d="M712.29,168.7c.22,1.51,.3-.61,.05,.96,.14-.9-.52,.79,0,.05-.65,.94-.31,.32-.06,.13,.5-.37-.98,.52-.09,.06l.26-.16c.44-.22,.36-.19-.24,.07,.03-.12,.63-.15,.74-.21,.51-.27-1.09,.07-.14,.05,.5,.03,.4,0-.3-.07,.2,.04,.39,.1,.58,.17-.93-.28-.27-.04,0,.08,.52,.22-.64-.72,.03,.02,.14,.16,.84,1.01,.2,.12,.17,.24,.32,.48,.47,.73s.28,.51,.4,.78c-.47-1-.02,.05,.04,.25,.1,.34,.17,.69,.25,1.04,.22,.9,.05-.79,.01,.2-.01,.41,.02,.81,0,1.22,.03-.91-.06-.02-.06,.2l-.05,.19c.22-.45,.21-.45-.04,.01l.26-.33c-.36,.34-.3,.31,.18-.08-.82,.55,.9-.11-.08,.08-.15,.03-.5,.19-.63,.15l.54-.09c-.22,.01-.44,0-.66,0,.64,.11,.71,.11,.2,.02-.17-.04-.33-.08-.49-.13-.58-.07,.83,.54-.01,.01-.12-.07-1.02-.68-.29-.11-.51-.4-.97-.9-1.37-1.4,.62,.77-.15-.29-.21-.38-.21-.34-.41-.69-.61-1.04-.38-.7-.73-1.43-1.07-2.15-.32-.68-.63-1.37-.93-2.06-.18-.41-.36-.83-.54-1.25,.33,.78-.24-.59-.25-.59-.63-1.54-1.23-3.08-1.8-4.64-1.19-3.26-2.24-6.57-3.15-9.92s-1.62-6.44-2.23-9.7c-.31-1.63-.58-3.27-.83-4.91-.04-.3-.09-.6-.13-.9-.21-1.47,.1,.88-.08-.6-.11-.9-.22-1.8-.31-2.7-.8-7.66-.88-15.37-.26-23.04,.11-1.39-.73-2.73-1.77-3.53-1.22-.94-2.44-1.03-3.92-.81-8.39,1.29-16.51,4.19-23.89,8.39-2.05,1.16-2.92,4.13-1.61,6.16s3.97,2.86,6.16,1.61c1.7-.96,3.43-1.86,5.2-2.68,.54-.25,1.09-.5,1.65-.73-.69,.29,.5-.19,.59-.23,.91-.36,1.82-.69,2.74-1.01,3.76-1.29,7.63-2.23,11.56-2.84l-5.7-4.34c-1.34,16.61,.62,33.57,5.69,49.44,1.34,4.18,2.91,8.27,4.65,12.3,1.56,3.62,3.17,7.62,6.36,10.14,3.39,2.68,8.54,3.75,12.28,1.06,4.05-2.92,4.73-8.44,3.15-12.94s-5.46-8.63-10.54-8.15c-2.38,.23-4.7,1.13-6.38,2.88-2.05,2.13-2.61,4.67-2.2,7.52,.34,2.34,3.43,3.83,5.54,3.14,2.56-.83,3.5-3.03,3.14-5.54h0Z"/>
    <path class="cls-6" d="M721.89,78.13c.06-.39,.39-1.04-.13,.02,.41-.83-.71,.69-.02,.06l-.47,.37c.16-.1,.32-.19,.49-.28l-.54,.24c.18-.06,.37-.11,.56-.14l-.62,.09c.19-.01,.39,0,.58,0l-.62-.07c.46,.14,.38,.08-.26-.17,.31-.27,.86,1.12,.15,.05,.33,.36,.32,.31-.05-.15,.13,.18,.25,.37,.35,.57,.53,.82-.1-.79,.05,.19l.09,.33c.1,.51,.1,.45,0-.17,.13,.24,.01,.78,.02,1.04,.04,1.06,.33-.94-.04,.24-.12,.39-.23,.8-.35,1.2-.36,1.19,.41-.64-.2,.46-.48,.86-.94,1.72-1.47,2.55-.23,.35-.47,.7-.69,1.06-.57,.91,.62-.47-.21,.21l2.82-.7c1.17,.8,1.46,.94,.9,.4l.27,.37c-.16-.22-.32-.44-.47-.67-1-1.46-1.88-3-2.63-4.6-.04-.09-.58-1.32-.2-.42-.16-.38-.3-.76-.45-1.14-.28-.77-.54-1.54-.78-2.32-.51-1.7-.9-3.44-1.19-5.2-.02-.12-.21-1.47-.08-.44-.05-.41-.1-.82-.14-1.23-.08-.82-.15-1.65-.19-2.47-.09-1.79-.09-3.58,0-5.36s.24-3.42,.45-5.12c-.11,.84,.1-.72,.1-.7,.07-.47,.15-.95,.23-1.42,.19-1.1,.39-2.2,.62-3.3,.8-3.93,1.83-7.8,2.9-11.66,1.16-4.17,3.78-10.12-1.11-13-2.15-1.26-4.92-.9-7.31-.91s-4.58,0-6.87,0c-4.58,0-9.16,0-13.74,0-2.35,0-4.61,2.07-4.5,4.5s1.98,4.5,4.5,4.5c4.58,0,9.16,0,13.74,0,2.37,0,4.74,0,7.11,0,1.05,0,2.15,.11,3.19,0,.35-.04,.64,.19-.2-.09-.73-.24-.77-.72-1.23-1.47-.09-.15-1.06-1.17-.67-1.72-.15,.2-.16,.69-.23,.93-2.48,8.96-5.05,17.88-5.84,27.19-.7,8.26,.34,16.63,3.62,24.27,.75,1.75,1.63,3.44,2.67,5.04,1.37,2.12,2.87,4.16,5.46,4.76,3.44,.79,5.86-1.6,7.57-4.22,1.21-1.85,2.29-3.77,2.99-5.88,1.55-4.68,.24-10.82-4.42-13.27s-11.38-.2-12.2,5.24c-.35,2.32,.58,4.95,3.14,5.54,2.14,.49,5.16-.65,5.54-3.14h0Z"/>
  </g>
</svg>