<?xml version="1.0" encoding="UTF-8"?>
<svg id="Vest" xmlns="http://www.w3.org/2000/svg" viewBox="0 0 1000 1000">
  <defs>
    <style>
      .cls-1 {
        fill: red;
        letter-spacing: -.03em;
      }

      .cls-2 {
        fill: #073f64;
      }

      .cls-2, .cls-3 {
        stroke: #063347;
        stroke-miterlimit: 10;
        stroke-width: 3px;
      }

      .cls-4 {
        font-family: FreeSansBold, FreeSans;
        font-size: 150px;
      }

      .cls-3 {
        fill: #0a3349;
      }

      .cls-5 {
        fill: #063347;
      }

      .cls-6 {
        letter-spacing: 0em;
      }

      .cls-7 {
        fill: #082d40;
      }

      .cls-8 {
        letter-spacing: -.02em;
      }
    </style>
  </defs>
  <g>
    <path class="cls-3" d="M353.24,70.38s146.74-24.75,297.26,0l3.52,139.75-45.43,92.07-88.89,27.42-131.07-19.31-35.39-103.3V70.38Z"/>
    <path class="cls-2" d="M282.46,81s15.92,129.17,8.85,201.71c-7.08,72.55-5.31,111.47-19.46,132.7,0,0,3.54,164.55,0,198.17,0,0,143.32,42.47,150.4,46s76.08-104.39,76.08-104.39l76.08,107.93s148.63-51.31,152.17-53.08c3.54-1.77,0-198.17,0-198.17,0,0-24.77-69.01-23-143.32,1.77-74.31,14.16-187.56,14.16-187.56,0,0-31.85-12.39-67.24-10.62l-150.4,194.63L353.24,70.38s-46,0-70.78,10.62Z"/>
    <polyline class="cls-2" points="498.33 555.2 477.1 530.43 473.56 291.56 500.1 265.02"/>
    <path class="cls-7" d="M416.94,449.04s7.08,38.93-17.69,38.93h-86.7s-19.46,1.77-14.16-40.7l118.55,1.77Z"/>
    <path class="cls-7" d="M692.96,449.04s7.08,38.93-17.69,38.93h-86.7s-19.46,1.77-14.16-40.7l118.55,1.77Z"/>
    <circle class="cls-2" cx="505.98" cy="315.91" r="13.71"/>
    <circle class="cls-2" cx="505.98" cy="409.69" r="13.71"/>
    <circle class="cls-2" cx="505.98" cy="503.46" r="13.71"/>
    <path class="cls-5" d="M493.02,555.2s-54.85,79.62-61.93,84.93c-7.08,5.31-1.77,12.39-15.92,5.31-14.16-7.08-100.86-28.31-109.7-31.85-8.85-3.54-21.23-7.08-21.23-7.08,0,0,92.01,1.77,118.55,0s37.16-14.16,51.31-24.77c14.16-10.62,23-38.93,23-38.93l15.92,12.39Z"/>
    <path class="cls-5" d="M519.56,564.05s49.54,74.31,53.08,79.62,23-7.08,56.62-12.39,86.92-19.29,90.35-29.99-.11-83.25-.11-83.25c0,0-19.46,58.39-47.77,67.24-28.31,8.85-19.46,31.85-70.78,10.62-51.31-21.23-81.39-31.85-81.39-31.85Z"/>
    <path class="cls-5" d="M708.89,121.7c0-5.31,8.83-33.11,1.76-36.02-7.07-2.91-31.84-8.21-42.46-9.98-10.62-1.77-17.61,2.08-17.61,2.08l-19.54,24.46s35.39-12.39,49.54-7.08c14.16,5.31,28.31,26.54,28.31,26.54Z"/>
    <path class="cls-5" d="M349.7,73.92l-42.47,3.54-21.23,5.31,3.54,26.54s63.7-17.69,67.24-19.46-7.08-15.92-7.08-15.92Z"/>
  </g>
  <text class="cls-4" transform="translate(346.72 802.36)"><tspan class="cls-1" x="0" y="0">V</tspan><tspan class="cls-6" x="95.55" y="0">e</tspan><tspan class="cls-8" x="177.45" y="0">s</tspan><tspan x="257.85" y="0">t</tspan></text>
</svg>