<svg id="Layer_1" height="512" viewBox="0 0 64 64" width="512" xmlns="http://www.w3.org/2000/svg" data-name="Layer 1"><path d="m57.09 5.27a69.56 69.56 0 0 1 -2.63 9.08c-1.27-.56-2.02-.88-2.82-1.23-.65-.29-1.34-.59-2.37-1.04a62.8182 62.8182 0 0 0 3.12-8.08c.72.19 1.44.39 2.16.58.84.23 1.69.46 2.54.69z" fill="#1e5f30"/><path d="m54.55 4.58a58.5776 58.5776 0 0 1 -2.91 8.54c-.65-.29-1.34-.59-2.37-1.04a62.8182 62.8182 0 0 0 3.12-8.08c.72.19 1.44.39 2.16.58z" fill="#317e3d"/><path d="m56.93 20.15q-.495 1.335-1.05 2.64-1.095 2.64-2.39 5.18-1.305 2.535-2.79 4.97c.1-2.39.13-4.7.11-6.93a36.9955 36.9955 0 0 1 -5.48 2.31c.05-1.14.08-2.26.09-3.35.02-.98.02-1.95.02-2.89a34.5006 34.5006 0 0 1 -5.48 1.62q.12-2.895.12-5.55a55.6677 55.6677 0 0 0 3.31-4.55 4.5662 4.5662 0 0 1 5.65-1.62c.08.03.16.07.23.1 1.03.45 1.72.75 2.37 1.04.8.35 1.55.67 2.82 1.23.01 0 .02.01.03.01a4.5761 4.5761 0 0 1 2.44 5.79z" fill="#378e43"/><path d="m45.42 24.97c.02-.98.02-1.95.02-2.89a34.5006 34.5006 0 0 1 -5.48 1.62q.12-2.895.12-5.55a55.6677 55.6677 0 0 0 3.31-4.55 4.5662 4.5662 0 0 1 5.65-1.62c.08.03.16.07.23.1 1.03.45 1.72.75 2.37 1.04a72.2966 72.2966 0 0 1 -6.22 11.85z" fill="#42a047"/><path d="m50.81 26.01q.03 3.345-.1 6.93a76.5185 76.5185 0 0 1 -25.15 25.21 12.2463 12.2463 0 0 1 -18.05-6.42c-.1-.3-.19-.61-.27-.92a1.9734 1.9734 0 0 1 -.07-.26 12.1861 12.1861 0 0 1 7.75-14.56 55.9779 55.9779 0 0 0 25.17-17.84c-.01 1.77-.04 3.62-.13 5.55a34.6169 34.6169 0 0 0 5.49-1.62c0 .94 0 1.9-.02 2.88q-.03 1.65-.09 3.36a37.3358 37.3358 0 0 0 5.47-2.31z" fill="#9b51a0"/><path d="m45.45 22.08c0 .94 0 1.9-.02 2.88a64.7323 64.7323 0 0 1 -4.79 6.46c-7.74 9.15-21.09 19.05-33.13 20.31-.1-.3-.19-.61-.27-.92a1.9734 1.9734 0 0 1 -.07-.26 12.1861 12.1861 0 0 1 7.75-14.56 55.9779 55.9779 0 0 0 25.17-17.84c-.01 1.77-.04 3.62-.13 5.55a34.6169 34.6169 0 0 0 5.49-1.62z" fill="#ab6cad"/><path d="m19.1079 57a1 1 0 0 1 0-2 7.2988 7.2988 0 0 0 3.8276-1.1006 72.1028 72.1028 0 0 0 22.7056-22.2842 1 1 0 1 1 1.6836 1.0782 74.0886 74.0886 0 0 1 -23.3389 22.9072 9.2863 9.2863 0 0 1 -4.8779 1.3994z" fill="#783293"/></svg>