<svg id="Layer_1" height="512" viewBox="0 0 64 64" width="512" xmlns="http://www.w3.org/2000/svg" data-name="Layer 1"><path d="m60 24.89a6.0664 6.0664 0 0 1 -.19 1.54c-.69 2.58-3.28 3.42-7.16 3.54-1.01.04-2.12.03-3.3-.01-1.52-.06-3.16-.17-4.91-.3-.53-.04-1.09-.07-1.63-.11-.47-1.35-.87-2.72-1.22-4.1-2.98-.21-6.2-.38-9.59-.38h-.17c-1.92 0-3.87.05-5.82.15-1.23.07-2.43.14-3.6.22-.34 1.38-.75 2.75-1.21 4.1-1.87.13-3.65.26-5.28.35a33.3253 33.3253 0 0 1 -7.39-.18c-.17-.03-.33-.07-.49-.1-2.31-.53-3.75-1.7-3.99-3.96a4.4749 4.4749 0 0 1 -.05-.76c0-5.84 6.56-14.16 16.04-18.31a28.3445 28.3445 0 0 1 5.65-1.86 27.9329 27.9329 0 0 1 6.31-.72 28.8864 28.8864 0 0 1 8.89 1.42h.03a27.6489 27.6489 0 0 1 3.29 1.27h.02a33.0805 33.0805 0 0 1 9.88 6.86 26.0917 26.0917 0 0 1 3.54 4.44 13.5479 13.5479 0 0 1 2.35 6.9z" fill="#6d4d42"/><path d="m60 24.89a6.0664 6.0664 0 0 1 -.19 1.54c-.69 2.58-3.28 3.42-7.16 3.54-1.01.04-2.12.03-3.3-.01-1.52-.06-3.16-.17-4.91-.3-.53-.04-1.09-.07-1.63-.11-.47-1.35-.87-2.72-1.22-4.1-2.98-.21-6.2-.38-9.59-.38v-21.07a28.8864 28.8864 0 0 1 8.89 1.42h.03a27.6489 27.6489 0 0 1 3.29 1.27h.02a33.0805 33.0805 0 0 1 9.88 6.86 26.0917 26.0917 0 0 1 3.54 4.44 13.5479 13.5479 0 0 1 2.35 6.9z" fill="#5e4137"/><path d="m50 46.94c0 7.21-6.31 13.06-14.1 13.06h-7.8c-7.79 0-14.1-5.85-14.1-13.06a12.3279 12.3279 0 0 1 2.01-6.73 48.8537 48.8537 0 0 0 6.4-14.77c1.17-.08 2.37-.15 3.6-.22 1.95-.1 3.9-.15 5.82-.15h.17c3.39 0 6.61.17 9.59.38a48.9068 48.9068 0 0 0 6.4 14.76 12.3279 12.3279 0 0 1 2.01 6.73z" fill="#a1887f"/><path d="m50 46.94c0 7.21-6.31 13.06-14.1 13.06h-3.9v-34.93c3.39 0 6.61.17 9.59.38a48.9068 48.9068 0 0 0 6.4 14.76 12.3279 12.3279 0 0 1 2.01 6.73z" fill="#8d6e63"/><path d="m46 47.9355a1 1 0 0 1 -1-1 7.36 7.36 0 0 0 -1.2061-4.0039 53.7466 53.7466 0 0 1 -6.2465-13.375 1 1 0 1 1 1.9111-.59 51.737 51.737 0 0 0 6.0142 12.8779 9.3607 9.3607 0 0 1 1.5273 5.091 1 1 0 0 1 -1 1z" fill="#5e4137"/><path d="m28.0957 57c-6.1182 0-11.0957-4.5146-11.0957-10.0645a1 1 0 1 1 2 0c0 4.4463 4.08 8.0645 9.0957 8.0645a1 1 0 0 1 0 2z" fill="#6d4d42"/><path d="m49.4854 26.959c-.0123 0-.0245 0-.0372-.001-1.5068-.0547-3.1948-.1719-4.7944-.2871l-.1938-.0127c-3.7286-.2783-7.9488-.5928-12.46-.5928h-.1733c-1.8916 0-3.8306.0528-5.7627.1582-2.0518.1055-4.0284.2452-5.8941.377-1.6157.1142-3.06.2158-4.4145.29a.9847.9847 0 0 1 -1.0533-.9433 1 1 0 0 1 .9439-1.0528c1.3437-.0742 2.7783-.1757 4.2871-.2822 1.9741-.14 3.9629-.2793 6.0249-.3867 1.9658-.1065 3.9409-.16 5.8687-.16h.1733c4.5854 0 8.8452.3174 12.6035.5977l.1914.0127c1.5845.1142 3.2525.23 4.7266.2842a1 1 0 0 1 -.0361 1.999z" fill="#4e342e"/></svg>