<?xml version="1.0" encoding="UTF-8" standalone="no"?>
<!-- Created with Inkscape (http://www.inkscape.org/) -->

<svg
   xmlns:dc="http://purl.org/dc/elements/1.1/"
   xmlns:cc="http://creativecommons.org/ns#"
   xmlns:rdf="http://www.w3.org/1999/02/22-rdf-syntax-ns#"
   xmlns:svg="http://www.w3.org/2000/svg"
   xmlns="http://www.w3.org/2000/svg"
   xmlns:sodipodi="http://sodipodi.sourceforge.net/DTD/sodipodi-0.dtd"
   xmlns:inkscape="http://www.inkscape.org/namespaces/inkscape"
   width="1000"
   height="1000"
   viewBox="0 0 264.58333 264.58334"
   version="1.1"
   id="svg2383"
   inkscape:version="0.92.5 (2060ec1f9f, 2020-04-08)"
   sodipodi:docname="entrance.svg"
   enable-background="new">
  <defs
     id="defs2377">
    <clipPath
       clipPathUnits="userSpaceOnUse"
       id="clipPath946">
      <path
         d="m 20267.9,8947.39 h -57.1 l -0.1,1.09 h 57.1 l 0.1,-1.09"
         id="path944"
         inkscape:connector-curvature="0" />
    </clipPath>
  </defs>
  <sodipodi:namedview
     id="base"
     pagecolor="#ffffff"
     bordercolor="#666666"
     borderopacity="1.0"
     inkscape:pageopacity="0.0"
     inkscape:pageshadow="2"
     inkscape:zoom="0.70710678"
     inkscape:cx="320.3168"
     inkscape:cy="514.27115"
     inkscape:document-units="px"
     inkscape:current-layer="layer1"
     showgrid="false"
     units="px"
     inkscape:window-width="1920"
     inkscape:window-height="1031"
     inkscape:window-x="0"
     inkscape:window-y="25"
     inkscape:window-maximized="1"
     showguides="true"
     inkscape:lockguides="true"
     inkscape:object-nodes="false"
     inkscape:snap-nodes="false"
     inkscape:snap-others="false" />
  <metadata
     id="metadata2380">
    <rdf:RDF>
      <cc:Work
         rdf:about="">
        <dc:format>image/svg+xml</dc:format>
        <dc:type
           rdf:resource="http://purl.org/dc/dcmitype/StillImage" />
        <dc:title></dc:title>
      </cc:Work>
    </rdf:RDF>
  </metadata>
  <g
     inkscape:groupmode="layer"
     id="layer3"
     inkscape:label="Layer 2" />
  <g
     inkscape:groupmode="layer"
     id="layer2"
     inkscape:label="Layer 3" />
  <g
     inkscape:label="Layer 1"
     inkscape:groupmode="layer"
     id="layer1"
     transform="translate(0,-32.41665)">
    <text
       xml:space="preserve"
       style="font-style:normal;font-variant:normal;font-weight:bold;font-stretch:normal;font-size:10.58333302px;line-height:1.25;font-family:sans-serif;-inkscape-font-specification:'sans-serif Bold';letter-spacing:0px;word-spacing:0px;fill:#000000;fill-opacity:1;stroke:none;stroke-width:0.26458332"
       x="150.05655"
       y="89.869026"
       id="text8811" />
    <text
       xml:space="preserve"
       style="font-style:normal;font-variant:normal;font-weight:bold;font-stretch:normal;font-size:10.58333302px;line-height:1.25;font-family:sans-serif;-inkscape-font-specification:'sans-serif Bold';letter-spacing:0px;word-spacing:0px;fill:#000000;fill-opacity:1;stroke:none;stroke-width:0.26458332"
       x="160.63989"
       y="97.806526"
       id="text8815" />
    <text
       xml:space="preserve"
       style="font-style:normal;font-variant:normal;font-weight:bold;font-stretch:normal;font-size:10.58333302px;line-height:1.25;font-family:sans-serif;-inkscape-font-specification:'sans-serif Bold';letter-spacing:0px;word-spacing:0px;fill:#000000;fill-opacity:1;stroke:none;stroke-width:0.26458332"
       x="156.86011"
       y="88.7351"
       id="text8819" />
    <flowRoot
       xml:space="preserve"
       id="flowRoot8821"
       style="font-style:normal;font-variant:normal;font-weight:bold;font-stretch:normal;font-size:40px;line-height:1.25;font-family:sans-serif;-inkscape-font-specification:'sans-serif Bold';letter-spacing:0px;word-spacing:0px;fill:#000000;fill-opacity:1;stroke:none"><flowRegion
         id="flowRegion8823"
         style="font-style:normal;font-variant:normal;font-weight:bold;font-stretch:normal;font-family:sans-serif;-inkscape-font-specification:'sans-serif Bold'" /><flowPara
         id="flowPara8827" /></flowRoot>    <flowRoot
       xml:space="preserve"
       id="flowRoot8829"
       style="font-style:normal;font-variant:normal;font-weight:bold;font-stretch:normal;font-size:40px;line-height:1.25;font-family:sans-serif;-inkscape-font-specification:'sans-serif Bold';letter-spacing:0px;word-spacing:0px;fill:#000000;fill-opacity:1;stroke:none"><flowRegion
         id="flowRegion8831"
         style="font-style:normal;font-variant:normal;font-weight:bold;font-stretch:normal;font-family:sans-serif;-inkscape-font-specification:'sans-serif Bold'" /><flowPara
         id="flowPara8835" /></flowRoot>    <flowRoot
       xml:space="preserve"
       id="flowRoot8837"
       style="font-style:normal;font-variant:normal;font-weight:bold;font-stretch:normal;font-size:40px;line-height:1.25;font-family:sans-serif;-inkscape-font-specification:'sans-serif Bold';letter-spacing:0px;word-spacing:0px;fill:#000000;fill-opacity:1;stroke:none"><flowRegion
         id="flowRegion8839"
         style="font-style:normal;font-variant:normal;font-weight:bold;font-stretch:normal;font-family:sans-serif;-inkscape-font-specification:'sans-serif Bold'" /><flowPara
         id="flowPara8843" /></flowRoot>    <text
       xml:space="preserve"
       style="font-style:normal;font-variant:normal;font-weight:bold;font-stretch:normal;font-size:10.58333302px;line-height:1.25;font-family:sans-serif;-inkscape-font-specification:'sans-serif Bold';letter-spacing:0px;word-spacing:0px;fill:#000000;fill-opacity:1;stroke:none;stroke-width:0.26458332"
       x="209.39882"
       y="107.25594"
       id="text8847" />
    <flowRoot
       xml:space="preserve"
       id="flowRoot8849"
       style="font-style:normal;font-variant:normal;font-weight:bold;font-stretch:normal;font-size:40px;line-height:1.25;font-family:sans-serif;-inkscape-font-specification:'sans-serif Bold';letter-spacing:0px;word-spacing:0px;fill:#000000;fill-opacity:1;stroke:none"><flowRegion
         id="flowRegion8851"
         style="font-style:normal;font-variant:normal;font-weight:bold;font-stretch:normal;font-family:sans-serif;-inkscape-font-specification:'sans-serif Bold'" /><flowPara
         id="flowPara8855" /></flowRoot>    <flowRoot
       xml:space="preserve"
       id="flowRoot8857"
       style="font-style:normal;font-variant:normal;font-weight:bold;font-stretch:normal;font-size:40px;line-height:1.25;font-family:sans-serif;-inkscape-font-specification:'sans-serif Bold';letter-spacing:0px;word-spacing:0px;fill:#000000;fill-opacity:1;stroke:none"><flowRegion
         id="flowRegion8859"
         style="font-style:normal;font-variant:normal;font-weight:bold;font-stretch:normal;font-family:sans-serif;-inkscape-font-specification:'sans-serif Bold'" /><flowPara
         id="flowPara8863" /></flowRoot>    <flowRoot
       xml:space="preserve"
       id="flowRoot8865"
       style="font-style:normal;font-variant:normal;font-weight:bold;font-stretch:normal;font-size:40px;line-height:1.25;font-family:sans-serif;-inkscape-font-specification:'sans-serif Bold';letter-spacing:0px;word-spacing:0px;fill:#000000;fill-opacity:1;stroke:none"><flowRegion
         id="flowRegion8867"
         style="font-style:normal;font-variant:normal;font-weight:bold;font-stretch:normal;font-family:sans-serif;-inkscape-font-specification:'sans-serif Bold'" /><flowPara
         id="flowPara8871" /></flowRoot>    <flowRoot
       xml:space="preserve"
       id="flowRoot8873"
       style="font-style:normal;font-variant:normal;font-weight:bold;font-stretch:normal;font-size:40px;line-height:1.25;font-family:sans-serif;-inkscape-font-specification:'sans-serif Bold';letter-spacing:0px;word-spacing:0px;fill:#000000;fill-opacity:1;stroke:none"><flowRegion
         id="flowRegion8875"
         style="font-style:normal;font-variant:normal;font-weight:bold;font-stretch:normal;font-family:sans-serif;-inkscape-font-specification:'sans-serif Bold'" /><flowPara
         id="flowPara8879" /></flowRoot>    <text
       xml:space="preserve"
       style="font-style:normal;font-weight:normal;font-size:10.58333302px;line-height:1.25;font-family:sans-serif;letter-spacing:0px;word-spacing:0px;fill:#000000;fill-opacity:1;stroke:none;stroke-width:0.26458332"
       x="101.02788"
       y="69.125984"
       id="text977"><tspan
         sodipodi:role="line"
         id="tspan975"
         x="101.02788"
         y="78.489754"
         style="stroke-width:0.26458332" /><tspan
         sodipodi:role="line"
         x="101.02788"
         y="91.718918"
         style="stroke-width:0.26458332"
         id="tspan979" /><tspan
         sodipodi:role="line"
         x="101.02788"
         y="104.94809"
         style="stroke-width:0.26458332"
         id="tspan981" /><tspan
         sodipodi:role="line"
         x="101.02788"
         y="118.17725"
         style="stroke-width:0.26458332"
         id="tspan983" /><tspan
         sodipodi:role="line"
         x="101.02788"
         y="131.40642"
         style="stroke-width:0.26458332"
         id="tspan985" /><tspan
         sodipodi:role="line"
         x="101.02788"
         y="144.63559"
         style="stroke-width:0.26458332"
         id="tspan987" /><tspan
         sodipodi:role="line"
         x="101.02788"
         y="157.86475"
         style="stroke-width:0.26458332"
         id="tspan989" /><tspan
         sodipodi:role="line"
         x="101.02788"
         y="171.09392"
         style="stroke-width:0.26458332"
         id="tspan991" /><tspan
         sodipodi:role="line"
         x="101.02788"
         y="184.32309"
         style="stroke-width:0.26458332"
         id="tspan993" /><tspan
         sodipodi:role="line"
         x="101.02788"
         y="197.55225"
         style="stroke-width:0.26458332"
         id="tspan995" /><tspan
         sodipodi:role="line"
         x="101.02788"
         y="210.78142"
         style="stroke-width:0.26458332"
         id="tspan997" /><tspan
         sodipodi:role="line"
         x="101.02788"
         y="224.01059"
         style="stroke-width:0.26458332"
         id="tspan999" /><tspan
         sodipodi:role="line"
         x="101.02788"
         y="237.23975"
         style="stroke-width:0.26458332"
         id="tspan1001" /><tspan
         sodipodi:role="line"
         x="101.02788"
         y="250.46892"
         style="stroke-width:0.26458332"
         id="tspan1003" /><tspan
         sodipodi:role="line"
         x="101.02788"
         y="263.69809"
         style="stroke-width:0.26458332"
         id="tspan1005" /><tspan
         sodipodi:role="line"
         x="101.02788"
         y="276.92725"
         style="stroke-width:0.26458332"
         id="tspan1007" /><tspan
         sodipodi:role="line"
         x="101.02788"
         y="290.1564"
         style="stroke-width:0.26458332"
         id="tspan1009" /><tspan
         sodipodi:role="line"
         x="101.02788"
         y="303.38559"
         style="stroke-width:0.26458332"
         id="tspan1011" /><tspan
         sodipodi:role="line"
         x="101.02788"
         y="316.61475"
         style="stroke-width:0.26458332"
         id="tspan1013" /><tspan
         sodipodi:role="line"
         x="101.02788"
         y="329.8439"
         style="stroke-width:0.26458332"
         id="tspan1015" /><tspan
         sodipodi:role="line"
         x="101.02788"
         y="343.07309"
         style="stroke-width:0.26458332"
         id="tspan1017" /><tspan
         sodipodi:role="line"
         x="101.02788"
         y="356.30225"
         style="stroke-width:0.26458332"
         id="tspan1019" /><tspan
         sodipodi:role="line"
         x="101.02788"
         y="369.5314"
         style="stroke-width:0.26458332"
         id="tspan1021" /><tspan
         sodipodi:role="line"
         x="101.02788"
         y="382.76059"
         style="stroke-width:0.26458332"
         id="tspan1023" /></text>
    <g
       id="g18"
       transform="matrix(0.01371762,0,0,-0.01371762,-20.781876,400.59891)"
       style="stroke-width:3.19933867">
      <path
         d="m 3435.84,8999.49 c -0.97,-57.32 -2.2,-114.63 -3.27,-171.86 L 16300,10863.9 v 131.5 L 3435.84,8999.49"
         style="fill:#c9c9c9;fill-opacity:1;fill-rule:nonzero;stroke:none;stroke-width:3.19933867"
         id="path20"
         inkscape:connector-curvature="0" />
    </g>
    <g
       id="g22"
       transform="matrix(0.02191975,0,0,-0.02191975,-20.781876,400.59891)"
       style="stroke-width:3.19933867">
      <path
         d="M 3315.57,5708.33 7951.8,6442.22 V 15497 c 0,41.1 -25.1,78.4 -56.14,83.3 l -4504.8,713.1 c -41.55,6.6 -75.29,-26.7 -75.29,-74.4 V 5708.33"
         style="fill:#b79e9e;fill-opacity:1;fill-rule:nonzero;stroke:none;stroke-width:3.19933867"
         id="path24"
         inkscape:connector-curvature="0" />
    </g>
    <g
       id="g26"
       transform="matrix(0.02132773,0,0,-0.02132773,-20.781876,400.59891)"
       style="stroke-width:3.19933867">
      <path
         d="m 3764.21,5923.25 4138.45,655.1 V 15601 c 0,54.3 -33.45,103.2 -74.86,109.3 l -3967.1,581.9 c -53.22,7.8 -96.49,-35.9 -96.49,-97.7 V 5923.25"
         style="fill:#967c7c;fill-opacity:1;fill-rule:nonzero;stroke:none;stroke-width:3.19933867"
         id="path28"
         inkscape:connector-curvature="0" />
    </g>
    <g
       id="g30"
       transform="matrix(0.02123333,0,0,-0.02123333,-20.781876,400.59891)"
       style="stroke-width:3.19933867">
      <path
         d="m 3837.71,5945.13 4056.16,642.12 v 9068.35 c 0,33.8 -20.87,64.2 -46.63,67.9 l -3949.65,571.7 c -33.05,4.8 -59.88,-22.4 -59.88,-60.8 V 5945.13"
         style="fill:#ffffff;fill-opacity:1;fill-rule:nonzero;stroke:none;stroke-width:3.19933867"
         id="path32"
         inkscape:connector-curvature="0" />
    </g>
    <g
       id="g34"
       transform="matrix(0.02123798,0,0,-0.02123798,-20.781876,400.59891)"
       style="stroke-width:3.19933867">
      <path
         d="m 7682.39,15684.2 c 25.8,-3.7 46.67,-34.2 46.67,-68 V 6665.19 l 164.74,-66.61 v 9057.12 c 0,33.8 -20.92,64.3 -46.72,68 l -3950.31,571.8 c -31.2,4.5 -56.05,-19.9 -58.85,-54.9 l 3844.47,-556.4"
         style="fill:#8e7373;fill-opacity:1;fill-rule:nonzero;stroke:none;stroke-width:3.19933867"
         id="path36"
         inkscape:connector-curvature="0" />
    </g>
    <g
       id="g38"
       transform="matrix(0.02066437,0,0,-0.02066437,-20.781876,400.59891)"
       style="stroke-width:3.19933867">
      <path
         d="m 8147.01,16151.6 c -0.59,1.5 -1.23,3 -1.87,4.5 l -0.27,19.3 289.16,124.6 v -104.2 l -273.1,-39.5 c -4.8,-0.7 -9.5,-2.3 -13.92,-4.7"
         style="fill:#a18b8b;fill-opacity:1;fill-rule:nonzero;stroke:none;stroke-width:3.19933867"
         id="path40"
         inkscape:connector-curvature="0" />
    </g>
    <g
       id="g42"
       transform="matrix(0.02048199,0,0,-0.02048199,-20.781876,400.59891)"
       style="stroke-width:3.19933867">
      <path
         d="m 8217.79,16294.4 -0.11,5.6 c 0.65,-1.5 1.3,-3 1.89,-4.6 -0.59,-0.3 -1.19,-0.6 -1.78,-1"
         style="fill:#846d6d;fill-opacity:1;fill-rule:nonzero;stroke:none;stroke-width:3.19933867"
         id="path44"
         inkscape:connector-curvature="0" />
    </g>
    <g
       id="g46"
       transform="matrix(0.02122749,0,0,-0.02122749,-20.781876,400.59891)"
       style="stroke-width:3.19933867">
      <path
         d="m 12172.1,16215.2 c -65.5,19.9 -265,84.8 -265,84.8 l -836.8,-133.6 V 6115.31 l 836.8,-133.6 c 0,0 199.5,64.88 265,84.83 33,10.07 59.2,31.79 59.2,70.17 V 16145 c 0,38.4 -26.2,60.1 -59.2,70.2"
         style="fill:#8e7373;fill-opacity:1;fill-rule:nonzero;stroke:none;stroke-width:3.19933867"
         id="path48"
         inkscape:connector-curvature="0" />
    </g>
    <g
       id="g50"
       transform="matrix(0.02123313,0,0,-0.02123313,-20.781876,400.59891)"
       style="stroke-width:3.19933867">
      <path
         d="m 11854.6,5973.68 -3959,626.4 v 9055.52 c 0,33.8 20.98,64.2 46.73,67.9 l 3949.67,571.7 c 33.1,4.8 59.9,-22.4 59.9,-60.8 V 6056.72 c 0,-51.67 -46.2,-91.14 -97.3,-83.04"
         style="fill:#b79e9e;fill-opacity:1;fill-rule:nonzero;stroke:none;stroke-width:3.19933867"
         id="path52"
         inkscape:connector-curvature="0" />
    </g>
    <g
       id="g54"
       transform="matrix(0.01471442,0,0,-0.01471442,-20.781876,400.59891)"
       style="stroke-width:3.19933867">
      <path
         d="m 12352.5,10618.1 3744.1,-496.7 -9.9,3755.6 -3734.2,187.3 z M 16124,9904.2 c -7.4,0 -14.9,0.38 -22.4,1.43 l -3804,504.57 c -90.4,11.9 -158.5,97.4 -158.5,198.9 v 3482.8 c 0,55.3 21.3,107.3 58.3,142.6 33.1,31.5 73.2,47.3 119.4,45.2 l 3804.2,-190.8 c 100.2,-4.9 179,-93.9 179,-202.5 V 10093 c 0,-57.8 -23.4,-111.24 -63.8,-146.68 -31.2,-27.36 -71.2,-42.12 -112.2,-42.12"
         style="fill:#967c7c;fill-opacity:1;fill-rule:nonzero;stroke:none;stroke-width:3.19933867"
         id="path56"
         inkscape:connector-curvature="0" />
    </g>
    <g
       id="g58"
       transform="matrix(0.02020556,0,0,-0.02020556,-20.781876,400.59891)"
       style="stroke-width:3.19933867">
      <path
         d="m 8975.35,15803 h -0.16 z m 20.19,-4538.6 2719.36,-63.4 v 4936.3 l -2719.25,-331.8 z m 2741.66,-219.3 c -1,0 -2.1,0 -3,0 l -2770.25,64.7 c -69.31,1.6 -123.77,63.2 -123.77,140.3 v 4562.6 c 0,74.4 50.04,136.5 116.34,144.5 l 2770.08,338 c 35,4.8 70.6,-6.4 97.5,-30.4 29.3,-25.9 46.2,-64.8 46.2,-106.8 v -4969.5 c 0,-40.6 -15.9,-79.3 -43.6,-106.3 -24.6,-24.1 -56.1,-37.1 -89.5,-37.1"
         style="fill:#967c7c;fill-opacity:1;fill-rule:nonzero;stroke:none;stroke-width:3.19933867"
         id="path60"
         inkscape:connector-curvature="0" />
    </g>
    <g
       id="g62"
       transform="matrix(0.01537767,0,0,-0.01537767,-20.781876,400.59891)"
       style="stroke-width:3.19933867">
      <path
         d="m 16234,13030 -395.1,22.4 c -35.8,2 -64.8,37.7 -64.8,79.7 V 14441 c 0,41.9 29,75.3 64.8,74.4 l 395.1,-10 c 36.4,-0.9 66,-36.1 66,-78.6 v -1323.6 c 0,-42.5 -29.6,-75.3 -66,-73.2"
         style="fill:#7f7f7f;fill-opacity:1;fill-rule:nonzero;stroke:none;stroke-width:3.19933867"
         id="path64"
         inkscape:connector-curvature="0" />
    </g>
    <g
       id="g66"
       transform="matrix(0.0153682,0,0,-0.0153682,-20.781876,400.59891)"
       style="stroke-width:3.19933867">
      <path
         d="m 16239.4,13066.8 -386.2,21.7 c -32.8,1.8 -59.4,34.5 -59.4,73 v 1283.4 c 0,38.5 26.6,69.4 59.4,68.6 l 386.2,-9.9 c 33.5,-0.9 60.6,-33.1 60.6,-72 v -1297.7 c 0,-39 -27.1,-69 -60.6,-67.1"
         style="fill:#c9c9c9;fill-opacity:1;fill-rule:nonzero;stroke:none;stroke-width:3.19933867"
         id="path68"
         inkscape:connector-curvature="0" />
    </g>
    <g
       id="g70"
       transform="matrix(0.0153682,0,0,-0.0153682,-20.781876,400.59891)"
       style="stroke-width:3.19933867">
      <path
         d="m 16300,13244.8 -18.5,1170.1 c 0,38.8 -27.1,71.1 -60.5,72 l -385.9,10 c -0.3,0 -0.5,0 -0.6,0 -10.5,0 -18.5,-7.2 -27,-12.7 10.6,16.9 25.2,29.3 44.5,29.3 0.2,0 0.4,0 0.6,0 0.2,0 0.4,0 0.6,0 v 0 l 386.2,-9.9 c 33.5,-0.9 60.6,-33.1 60.6,-72 v -1186.8"
         style="fill:#f1f1f1;fill-opacity:1;fill-rule:nonzero;stroke:none;stroke-width:3.19933867"
         id="path72"
         inkscape:connector-curvature="0" />
    </g>
    <g
       id="g74"
       transform="matrix(0.0152618,0,0,-0.0152618,-20.781876,400.59891)"
       style="stroke-width:3.19933867">
      <path
         d="m 16192.1,13949.3 -1276.2,50.4 c -56.3,2.2 -101.7,58.7 -101.7,126.2 v 65.4 c 0,67.4 45.4,120.7 101.7,118.8 l 1276.2,-41.8 c 59.5,-1.9 107.9,-59.9 107.9,-129.6 v -67.5 c 0,-69.7 -48.4,-124.3 -107.9,-121.9"
         style="fill:#7f7f7f;fill-opacity:1;fill-rule:nonzero;stroke:none;stroke-width:3.19933867"
         id="path76"
         inkscape:connector-curvature="0" />
    </g>
    <g
       id="g78"
       transform="matrix(0.01525373,0,0,-0.01525373,-20.781876,400.59891)"
       style="stroke-width:3.19933867">
      <path
         d="m 16192,13982.7 -1268.1,49.4 c -56.4,2.2 -101.8,58.7 -101.8,126.2 v 40.5 c 0,67.5 45.4,120.8 101.8,118.9 l 1268.1,-41.5 c 59.6,-1.9 108,-60 108,-129.7 v -41.9 c 0,-69.7 -48.4,-124.2 -108,-121.9"
         style="fill:#c9c9c9;fill-opacity:1;fill-rule:nonzero;stroke:none;stroke-width:3.19933867"
         id="path80"
         inkscape:connector-curvature="0" />
    </g>
    <g
       id="g82"
       transform="matrix(0.01525373,0,0,-0.01525373,-20.781876,400.59891)"
       style="stroke-width:3.19933867">
      <path
         d="m 16272.7,14024.1 c 4.5,13.6 11.8,33.2 11.8,48.9 v 59.3 c 0,69.6 -48.4,127.7 -107.9,129.6 l -1275.5,51 c 7.2,1.9 14.1,4.8 21.8,4.8 0.3,0 0.6,0 1,0 l 1268.1,-41.5 c 59.6,-1.9 108,-60 108,-129.7 v -41.9 0 c 0,-31.5 -10.9,-59 -27.3,-80.5"
         style="fill:#f1f1f1;fill-opacity:1;fill-rule:nonzero;stroke:none;stroke-width:3.19933867"
         id="path84"
         inkscape:connector-curvature="0" />
    </g>
    <g
       id="g86"
       transform="matrix(0.01515792,0,0,-0.01515792,-20.781876,400.59891)"
       style="stroke-width:3.19933867">
      <path
         d="m 16300,13561.1 -63.9,3.2 v 185.1 l 63.9,-3 v -185.3"
         style="fill:#707070;fill-opacity:1;fill-rule:nonzero;stroke:none;stroke-width:3.19933867"
         id="path88"
         inkscape:connector-curvature="0" />
    </g>
    <g
       id="g90"
       transform="matrix(0.01518252,0,0,-0.01518252,-20.781876,400.59891)"
       style="stroke-width:3.19933867">
      <path
         d="m 16300,13762.6 c 0,-37.6 -26.1,-66.9 -58.2,-65.3 -32.1,1.4 -58,33 -58,70.5 0,37.5 25.9,66.7 58,65.3 32.1,-1.4 58.2,-33 58.2,-70.5"
         style="fill:#707070;fill-opacity:1;fill-rule:nonzero;stroke:none;stroke-width:3.19933867"
         id="path92"
         inkscape:connector-curvature="0" />
    </g>
    <g
       id="g174"
       transform="matrix(0.01188204,0,0,-0.01188204,-20.781876,400.59891)"
       style="stroke-width:3.19933867">
      <path
         d="m 12908.3,10249.1 c -1873.1,0 -3391.63,60.6 -3391.63,135.4 0,74.8 1518.53,135.5 3391.63,135.5 1873.2,0 3391.7,-60.7 3391.7,-135.5 0,-74.8 -1518.5,-135.4 -3391.7,-135.4"
         style="fill:#e3e3e3;fill-opacity:1;fill-rule:nonzero;stroke:none;stroke-width:3.19933867"
         id="path176"
         inkscape:connector-curvature="0" />
    </g>
    <g
       id="g178"
       transform="matrix(0.0110581,0,0,-0.0110581,-20.781876,400.59891)"
       style="stroke-width:3.19933867">
      <path
         d="m 13815.6,16300 c 335.9,-33.8 646.4,-76 853.4,-124.7 458.3,-1331.7 570.2,-1640.2 670,-2099.5 62.4,-287 669.8,-2280.5 669.8,-2280.5 -287.8,-1.4 -615.8,56.1 -933.7,111.7 -333.1,917.4 -1067.7,2595.2 -1379.5,2931.3 -17.9,19.3 -37.4,38.4 -57.2,57 51.8,469.2 110.2,937.4 177.2,1404.7"
         style="fill:#ffc19f;fill-opacity:1;fill-rule:nonzero;stroke:none;stroke-width:3.19933867"
         id="path180"
         inkscape:connector-curvature="0" />
    </g>
    <path
       d="m 91.881157,232.70924 c 5.734904,3.63326 13.102893,8.69005 13.693913,7.64143 3.58034,-4.90793 -0.53369,0.0872 2.159,-4.38528 2.33433,0.007 12.51518,6.11977 12.49422,6.15393 -2.89116,4.66205 -4.7216,9.81479 -8.57868,11.79514 -5.17477,2.65741 -14.359919,-5.36775 -24.894835,-13.84607 1.045973,-2.38397 3.692928,-5.43612 5.126382,-7.35915"
       style="fill:#ffc19f;fill-opacity:1;fill-rule:nonzero;stroke:none;stroke-width:0.03527778"
       id="path182"
       inkscape:connector-curvature="0" />
    <path
       d="m 92.039928,231.72347 -6.269942,9.11016 c 4.394319,3.67736 5.222413,4.35 6.064853,5.07224 l 6.767012,-9.70342 c -0.54361,-0.2988 -1.48638,-1.0001 -6.561923,-4.47898"
       style="fill:#ffffe3;fill-opacity:1;fill-rule:nonzero;stroke:none;stroke-width:0.03527778"
       id="path184"
       inkscape:connector-curvature="0" />
    <path
       d="m 86.069806,243.88025 c 0.56037,0.24591 1.351404,0.4554 2.045762,0.68367 0.514829,0.1698 3.569305,-3.74131 2.629834,-4.5176 -0.240367,-0.19846 -0.463111,-0.36165 -0.67372,-0.49839 0.527074,-0.666 1.11369,-1.37502 1.752119,-2.10939 1.388256,-1.59557 2.711455,-2.96174 3.711554,-3.86261 -1.444488,-1.27799 -4.147093,-3.24403 -5.764693,-4.65101 0,0 -17.129914,14.61353 -16.824151,19.34394 0.08601,1.3331 6.704166,-0.46422 13.123295,-4.38861"
       style="fill:#ec3a3a;fill-opacity:1;fill-rule:nonzero;stroke:none;stroke-width:0.03527778"
       id="path186"
       inkscape:connector-curvature="0" />
    <path
       d="m 90.803844,229.78387 c -0.370489,-0.29989 -0.725554,-0.59101 -1.033182,-0.85895 0,0 -17.129914,14.61353 -16.824151,19.34394 0.01146,0.18853 0.155927,0.31314 0.408977,0.3793 2.806038,-5.58387 13.26995,-15.16597 17.448356,-18.86429"
       style="fill:#982121;fill-opacity:1;fill-rule:nonzero;stroke:none;stroke-width:0.03527778"
       id="path188"
       inkscape:connector-curvature="0" />
    <path
       d="m 81.566099,246.82548 c 0.932309,-0.8171 1.481985,-2.39168 1.346352,-3.83175 -0.01632,-0.17091 -0.167277,-0.29551 -0.337748,-0.27897 -0.08229,0.007 -0.154152,0.0474 -0.204645,0.10486 -0.05339,0.0616 -0.08286,0.14444 -0.07456,0.23265 0.11864,1.25373 -0.340938,2.62653 -1.137598,3.30797 -0.134388,0.11465 -0.141403,0.30876 -0.02833,0.43665 0.113068,0.12898 0.308637,0.14111 0.436644,0.0288 z m 1.366862,-1.29893 c -0.130383,0.11133 -0.124374,0.31645 -0.0044,0.43776 0.119786,0.12239 0.315694,0.12346 0.437861,0.003 0.975643,-0.95379 1.420788,-2.31447 1.230238,-3.72809 -0.02304,-0.1698 -0.178955,-0.28888 -0.348438,-0.26573 -0.07758,0.0119 -0.144777,0.0486 -0.192409,0.10369 -0.05625,0.0651 -0.08544,0.15326 -0.07327,0.24477 0.224839,1.66724 -0.560255,2.72248 -1.049953,3.20324 z m 1.678132,-0.83142 c -0.131813,0.11015 -0.155142,0.30213 -0.04837,0.43555 0.106765,0.13339 0.302026,0.15548 0.435442,0.0486 1.025249,-0.82478 1.503368,-2.36408 1.157017,-3.74793 -0.04164,-0.1665 -0.209625,-0.26684 -0.375671,-0.22606 -0.06383,0.0166 -0.11808,0.0517 -0.158233,0.097 -0.06411,0.0739 -0.09259,0.17643 -0.06683,0.27898 0.289673,1.15778 -0.09447,2.44129 -0.943313,3.11388"
       style="fill:#d3dae5;fill-opacity:1;fill-rule:nonzero;stroke:none;stroke-width:0.03527778"
       id="path190"
       inkscape:connector-curvature="0" />
    <path
       d="m 146.94792,273.31793 10.14557,-3.93758 c -1.57019,-5.50998 -1.66501,-5.52432 -1.95612,-6.595 l -10.97147,3.70163 c 0.28009,0.55243 1.39929,3.42816 2.78202,6.83095"
       style="fill:#ffffe3;fill-opacity:1;fill-rule:nonzero;stroke:none;stroke-width:0.03527778"
       id="path192"
       inkscape:connector-curvature="0" />
    <g
       id="g194"
       transform="matrix(0.01186561,0,0,-0.01186561,-20.781876,400.59891)"
       style="stroke-width:3.19933867">
      <path
         d="m 15127.2,11237 c -26.1,44.4 -69.8,97.9 -105.8,147.8 -26.9,37 -428.6,-79 -402.9,-178.4 6.6,-25.5 13.8,-47.6 21.3,-67.3 -68.8,-19.4 -143.9,-39 -223.8,-57.5 -173.5,-40.3 -331.5,-68.1 -444.3,-80.2 35.5,-158.7 122.8,-426.4 163.7,-602.4 0,0 1891.7,150.9 2104.6,489 60,95.2 -480.7,299.7 -1112.8,349"
         style="fill:#ec3a3a;fill-opacity:1;fill-rule:nonzero;stroke:none;stroke-width:3.19933867"
         id="path196"
         inkscape:connector-curvature="0" />
    </g>
    <g
       id="g198"
       transform="matrix(0.011828,0,0,-0.011828,-20.781876,400.59891)"
       style="stroke-width:3.19933867">
      <path
         d="m 14152.1,10542 c 10.5,-38.9 20.3,-76.3 28.2,-110 0,0 1897.6,151.4 2111.2,490.5 8.5,13.5 4.8,29.2 -9.2,46.3 -469,-243.2 -1660.7,-380.7 -2130.2,-426.8"
         style="fill:#982121;fill-opacity:1;fill-rule:nonzero;stroke:none;stroke-width:3.19933867"
         id="path200"
         inkscape:connector-curvature="0" />
    </g>
    <g
       id="g202"
       transform="matrix(0.01136323,0,0,-0.01136323,-20.781876,400.59891)"
       style="stroke-width:3.19933867">
      <path
         d="m 16268.9,11711.2 c -108.6,-10.1 -229.1,-94 -293.8,-203.7 -7.5,-13 -3.3,-29.7 9.7,-37.2 6.2,-3.8 13.4,-4.7 20,-3.1 7,1.6 13.4,6 17.4,12.7 56.3,95.5 159.8,169.6 251.8,177.1 15.4,1.2 26,14.6 24.5,29.7 -1.4,14.9 -14.7,26 -29.6,24.5 z m -164.4,-22 c 14.9,1.2 25.1,16.1 22.9,30.9 -2.4,15 -16.2,25.2 -31.1,22.9 -118.8,-17.6 -220.7,-91.7 -280.1,-202.2 -7.1,-13.2 -2.2,-29.8 11.1,-37 6.1,-3.2 12.8,-3.8 19.2,-2.5 7.3,1.8 13.9,6.5 17.7,13.7 70.1,130.5 180.5,165.2 240.3,174.2 z m -162.7,27.3 c 15.2,1 26.7,13.5 25.9,28.6 -0.6,14.9 -13.3,26.6 -28.4,25.9 -115.7,-5.9 -229.2,-90.9 -276,-207.5 -5.6,-13.9 1.2,-29.9 15.3,-35.5 5.3,-2.1 10.9,-2.4 16.2,-1.2 8.3,2 15.7,7.8 19.1,16.4 39.2,97.5 132.7,169.2 227.9,173.3"
         style="fill:#d3dae5;fill-opacity:1;fill-rule:nonzero;stroke:none;stroke-width:3.19933867"
         id="path204"
         inkscape:connector-curvature="0" />
    </g>
    <g
       id="g206"
       transform="matrix(0.01115538,0,0,-0.01115538,-20.781876,400.59891)"
       style="stroke-width:3.19933867">
      <path
         d="m 12442.1,13719.7 c 215.9,353.6 435.9,691.9 639.4,981.1 119.1,169.3 243.3,154 348.3,-67.1 172.9,-364 401.2,-908.5 476.8,-1089.5 313.5,34.5 1065.8,253.8 1329,441.1 -112.4,355.2 -366.3,1235.6 -526.9,1899.4 -527.3,124.2 -1966.7,413.4 -2549.4,415.3 -224.8,-312.5 -782.9,-1477 -1002.3,-1859.3 225.6,-225.8 1065.4,-650.1 1285.1,-721"
         style="fill:#224a66;fill-opacity:1;fill-rule:nonzero;stroke:none;stroke-width:3.19933867"
         id="path208"
         inkscape:connector-curvature="0" />
    </g>
    <path
       d="m 144.96643,229.9173 c -0.0727,-0.27455 -0.14665,-0.54912 -0.21832,-0.82259 0.0107,-0.004 0.0189,-0.0107 0.0276,-0.0144 0.0849,0.36056 0.15216,0.65607 0.19074,0.83691"
       style="fill:#5a4949;fill-opacity:1;fill-rule:nonzero;stroke:none;stroke-width:0.03527778"
       id="path210"
       inkscape:connector-curvature="0" />
    <path
       d="m 133.08091,231.52276 c -8.34053,0 -16.71744,-3.28591 -21.396,-7.22459 0.11688,-0.18636 0.35725,-0.61088 0.63953,-1.12471 4.89801,3.67515 11.72678,6.85191 19.70672,7.43082 1.07949,0.0772 2.09064,0.1124 3.0334,0.1124 5.8893,0 9.10685,-1.33642 9.68355,-1.62201 0.0716,0.27345 0.14557,0.54803 0.21832,0.82258 0.002,0.0155 0.004,0.0308 0.0107,0.0452 -0.0254,-0.002 -0.053,-0.002 -0.0828,-0.002 -0.91298,0 -3.74351,1.0795 -9.69789,1.49192 -0.70347,0.0485 -1.40918,0.0714 -2.11487,0.0714"
       style="fill:#152f40;fill-opacity:1;fill-rule:nonzero;stroke:none;stroke-width:0.03527778"
       id="path212"
       inkscape:connector-curvature="0" />
    <g
       id="g214"
       transform="matrix(0.01366392,0,0,-0.01366392,-20.781876,400.59891)"
       style="stroke-width:3.19933867">
      <path
         d="m 14545.6,15808.7 c 54,27.8 -182.9,491.3 -238.6,466.9 -850.1,-372.1 -1935.3,-682.4 -2165,-738.8 l 315,-690.6 c 485.2,200.5 1363.3,590.2 2088.6,962.5"
         style="fill:#ffc19f;fill-opacity:1;fill-rule:nonzero;stroke:none;stroke-width:3.19933867"
         id="path216"
         inkscape:connector-curvature="0" />
    </g>
    <g
       id="g218"
       transform="matrix(0.01324844,0,0,-0.01324844,-20.781876,400.59891)"
       style="stroke-width:3.19933867">
      <path
         d="m 13383.2,16300 c 81.7,-217.6 192.5,-701 262.8,-931.5 -469.3,-176 -858.9,-294 -895,-285.9 -374.7,85.4 -606.3,888.6 -631.8,932.3 244.8,49.8 766.3,134.2 1264,285.1"
         style="fill:#1ba6d2;fill-opacity:1;fill-rule:nonzero;stroke:none;stroke-width:3.19933867"
         id="path220"
         inkscape:connector-curvature="0" />
    </g>
    <g
       id="g222"
       transform="matrix(0.01319001,0,0,-0.01319001,-20.781876,400.59891)"
       style="stroke-width:3.19933867">
      <path
         d="m 12554,13004.9 c -32.4,-17.7 -354,-161.2 -968.4,-116.7 -633.4,46 -1171,307.7 -1545.3,602.6 87.9,199.6 283.8,762.2 461.3,1314.9 170.6,531 258.9,1029.6 463.3,1195.9 366.8,298.4 887.2,159.2 1028.7,148.8 222,-16.3 420.7,-94.2 837.1,-247.9 70.1,-696.1 -13.2,-1369.2 -321.9,-2528.8 1,-233.2 159.6,-283.9 45.2,-368.8"
         style="fill:#1ba6d2;fill-opacity:1;fill-rule:nonzero;stroke:none;stroke-width:3.19933867"
         id="path224"
         inkscape:connector-curvature="0" />
    </g>
    <g
       id="g226"
       transform="matrix(0.01310223,0,0,-0.01310223,-20.781876,400.59891)"
       style="stroke-width:3.19933867">
      <path
         d="m 12557.1,15638.8 c 128.5,42.5 233,207.5 171.4,442.6 -257.9,89.8 -769.7,206.8 -1156.3,218.6 -50.6,-28 -60.6,-89.5 6.8,-134.6 110.6,-73.9 212.6,-198.8 293,-283.4 227.2,-238.8 512,-300.5 685.1,-243.2"
         style="fill:#037b9f;fill-opacity:1;fill-rule:nonzero;stroke:none;stroke-width:3.19933867"
         id="path228"
         inkscape:connector-curvature="0" />
    </g>
    <g
       id="g230"
       transform="matrix(0.013654,0,0,-0.013654,-20.781876,400.59891)"
       style="stroke-width:3.19933867">
      <path
         d="m 12319.4,16108.4 -171.1,-794.8 c -33.6,-174.2 -122.4,-229.2 -317.8,-200.7 -225,32.7 -397.6,289.9 -609,486 l 141.4,701.1 956.5,-191.6"
         style="fill:#ffc19f;fill-opacity:1;fill-rule:nonzero;stroke:none;stroke-width:3.19933867"
         id="path232"
         inkscape:connector-curvature="0" />
    </g>
    <g
       id="g234"
       transform="matrix(0.01297487,0,0,-0.01297487,-20.781876,400.59891)"
       style="stroke-width:3.19933867">
      <path
         d="m 12816.8,16251.6 c -1,0.4 -2,0.7 -3,1.1 l 10.2,47.3 c -1,-16.9 -3.3,-33.1 -7.2,-48.4"
         style="fill:#2e87ab;fill-opacity:1;fill-rule:nonzero;stroke:none;stroke-width:3.19933867"
         id="path236"
         inkscape:connector-curvature="0" />
    </g>
    <g
       id="g238"
       transform="matrix(0.01293717,0,0,-0.01293717,-20.781876,400.59891)"
       style="stroke-width:3.19933867">
      <path
         d="m 12844.4,16269.3 6.7,30.7 c 1,-0.3 2,-0.7 3.1,-1 -2.6,-10.3 -5.8,-20.2 -9.8,-29.7"
         style="fill:#1b6482;fill-opacity:1;fill-rule:nonzero;stroke:none;stroke-width:3.19933867"
         id="path240"
         inkscape:connector-curvature="0" />
    </g>
    <g
       id="g242"
       transform="matrix(0.01361254,0,0,-0.01361254,-20.781876,400.59891)"
       style="stroke-width:3.19933867">
      <path
         d="m 11302.7,15879.8 c -75.5,150.4 -85.4,290.6 -11.5,368.3 25.1,26.4 57.9,43.5 96.3,51.9 l -84.8,-420.2"
         style="fill:#e7d0d0;fill-opacity:1;fill-rule:nonzero;stroke:none;stroke-width:3.19933867"
         id="path244"
         inkscape:connector-curvature="0" />
    </g>
    <g
       id="g246"
       transform="matrix(0.01361761,0,0,-0.01361761,-20.781876,400.59891)"
       style="stroke-width:3.19933867">
      <path
         d="m 12011.7,15345.3 c -142.2,0 -333.6,90.2 -500.9,249.3 -93.2,88.7 -165.4,186 -212.3,279.2 l 84.7,420 c 18.9,4.2 39.2,6.2 60.5,6.2 142.3,0 333.6,-90.2 500.9,-249.4 180.3,-171.4 282,-374.8 274,-520 l -9.7,-45.1 -6.3,-29.2 c -8.2,-19.8 -19.5,-37.6 -34.2,-53 -37.5,-39.4 -91.9,-58 -156.7,-58"
         style="fill:#e79d82;fill-opacity:1;fill-rule:nonzero;stroke:none;stroke-width:3.19933867"
         id="path248"
         inkscape:connector-curvature="0" />
    </g>
    <g
       id="g250"
       transform="matrix(0.01254241,0,0,-0.01254241,-20.781876,400.59891)"
       style="stroke-width:3.19933867">
      <path
         d="m 11038.8,15554.6 c 48,326 109.7,672.1 171.1,740 8.4,3.6 21.6,5.4 38.9,5.4 3.7,0 7.4,-0.1 11.5,-0.3 -67.4,-214.1 -132.5,-468.1 -216.5,-729.6 -1.6,-5.2 -3.3,-10.3 -5,-15.5"
         style="fill:#c9cdd3;fill-opacity:1;fill-rule:nonzero;stroke:none;stroke-width:3.19933867"
         id="path252"
         inkscape:connector-curvature="0" />
    </g>
    <g
       id="g254"
       transform="matrix(0.01254219,0,0,-0.01254219,-20.781876,400.59891)"
       style="stroke-width:3.19933867">
      <path
         d="m 12043.1,14864.6 c -327.6,0 -821,72 -1077.6,155.6 15.9,111.9 41.8,318.9 73.5,534.6 1.7,5.2 3.4,10.4 5,15.6 84,261.4 149,515.4 216.5,729.6 221.7,-8.4 980.4,-241.9 1068.8,-291.4 -0.1,-1.7 -0.3,-3.4 -0.4,-5.1 -259.6,25.8 -512.4,66.3 -719.7,119.4 -37.4,-197.1 -76.5,-402.9 -118,-616.5 211.2,-52.3 501.5,-96.6 762.8,-124.3 -30.4,-214.9 -62.2,-416.7 -81,-512.8 -39,-3.2 -82.8,-4.7 -129.9,-4.7"
         style="fill:#1787b0;fill-opacity:1;fill-rule:nonzero;stroke:none;stroke-width:3.19933867"
         id="path256"
         inkscape:connector-curvature="0" />
    </g>
    <g
       id="g258"
       transform="matrix(0.01185203,0,0,-0.01185203,-20.781876,400.59891)"
       style="stroke-width:3.19933867">
      <path
         d="m 13463.3,14629.8 c 90.8,39.6 279.6,511.5 235.8,531.4 -750.1,342 -1497.8,1006.9 -1655,1138.8 0,0 -405.2,-473.8 -185.9,-805.3 206,-311.5 572.4,-513.4 1605.1,-864.9"
         style="fill:#ffc19f;fill-opacity:1;fill-rule:nonzero;stroke:none;stroke-width:3.19933867"
         id="path260"
         inkscape:connector-curvature="0" />
    </g>
    <g
       id="g262"
       transform="matrix(0.0112362,0,0,-0.0112362,-20.781876,400.59891)"
       style="stroke-width:3.19933867">
      <path
         d="m 15071.1,15908.9 c 28,19.9 157.8,234.4 -130.6,345.1 -85.7,32.8 -270.4,46 -363.8,34.1 -131.2,-16.7 -237.8,-100.1 -419,-216.7 -27.9,-24.3 75.1,-79.6 122.1,-108.2 47,-28.6 741.8,-301.5 676.7,-240.1 -64.1,60.4 -219.9,121.1 -79.3,181.3 168.1,72 121.6,-46.5 193.9,4.5"
         style="fill:#ffc19f;fill-opacity:1;fill-rule:nonzero;stroke:none;stroke-width:3.19933867"
         id="path264"
         inkscape:connector-curvature="0" />
    </g>
    <g
       id="g266"
       transform="matrix(0.01113795,0,0,-0.01113795,-20.781876,400.59891)"
       style="stroke-width:3.19933867">
      <path
         d="m 15057.7,16125.9 c -27.8,-72.2 -347.2,-9.8 -319.3,62.3 27.9,72.2 145,111.8 232.5,103 98.8,-10 114.7,-93.2 86.8,-165.3"
         style="fill:#e0956c;fill-opacity:1;fill-rule:nonzero;stroke:none;stroke-width:3.19933867"
         id="path268"
         inkscape:connector-curvature="0" />
    </g>
    <g
       id="g270"
       transform="matrix(0.01118483,0,0,-0.01118483,-20.781876,400.59891)"
       style="stroke-width:3.19933867">
      <path
         d="m 14578.3,16262.4 c 155.2,-43.2 413.6,-285.7 524.1,-15.5 45.9,53.1 197.1,-75.9 146.1,-228.2 -28.5,-49.7 36.9,-74.4 11.1,-193.8 -17.1,-79.4 -51.1,-83.6 -45.8,-116.9 22.3,-139 -70.8,-140.8 -67.4,-201.1 -57.7,-97.1 -122.1,-91.8 -167,-108.7 -70.7,-26.5 -459.1,-14.9 -712.9,104.3 -204.9,96.3 -175.1,400 -139.7,456.5 146,232.9 349.3,331.8 451.5,303.4"
         style="fill:#ffc19f;fill-opacity:1;fill-rule:nonzero;stroke:none;stroke-width:3.19933867"
         id="path272"
         inkscape:connector-curvature="0" />
    </g>
    <g
       id="g274"
       transform="matrix(0.0123177,0,0,-0.0123177,-20.781876,400.59891)"
       style="stroke-width:3.19933867">
      <path
         d="m 13080.5,15627.4 c -109.8,0 -221.7,3.8 -337,11.5 -81.7,5.5 -172.1,13.4 -266.2,23.5 33.1,234.5 64.6,484.3 76.3,632.8 218.1,-21.7 441,-33.2 646.5,-33.2 212.1,0 405.5,12.2 556,38 -9.6,-197.7 -31.4,-406.3 -66.1,-631.7 -200.9,-27.2 -401.3,-40.9 -609.5,-40.9"
         style="fill:#98d7eb;fill-opacity:1;fill-rule:nonzero;stroke:none;stroke-width:3.19933867"
         id="path276"
         inkscape:connector-curvature="0" />
    </g>
    <g
       id="g278"
       transform="matrix(0.0124059,0,0,-0.0124059,-20.781876,400.59891)"
       style="stroke-width:3.19933867">
      <path
         d="m 12388.6,15551 c -264.2,28.1 -557.7,72.8 -771.2,125.7 41.9,216 81.5,424 119.3,623.3 209.5,-53.7 465.1,-94.7 727.6,-120.7 -11.5,-147.5 -42.8,-395.4 -75.7,-628.3"
         style="fill:#96c9db;fill-opacity:1;fill-rule:nonzero;stroke:none;stroke-width:3.19933867"
         id="path280"
         inkscape:connector-curvature="0" />
    </g>
    <g
       id="g282"
       transform="matrix(0.01319497,0,0,-0.01319497,-20.781876,400.59891)"
       style="stroke-width:3.19933867">
      <path
         d="m 11522.2,14170.6 c -271.7,-6.7 -784.2,49.9 -1042.5,137.1 32.4,412.1 78.1,1060.8 131.3,1206.7 81.1,222.4 356.4,443.5 403.2,482.8 359.8,302.8 746.3,-203 771.2,-271.1 -37,-256.9 -169.6,-1059.2 -263.2,-1555.5"
         style="fill:#1ba6d2;fill-opacity:1;fill-rule:nonzero;stroke:none;stroke-width:3.19933867"
         id="path284"
         inkscape:connector-curvature="0" />
    </g>
    <g
       id="g286"
       transform="matrix(0.01673858,0,0,-0.01673858,-20.781876,400.59891)"
       style="stroke-width:3.19933867">
      <path
         d="m 7730.21,14669.5 c 206.45,-1113.4 794.92,-1602.7 1770.4,-1653.3 946.59,-49.2 1851.89,1025.9 1669.79,2161 -101.2,630.3 -687.7,1122.8 -1590.08,1048.4 -960.6,-79.1 -2023.89,-619.2 -1850.11,-1556.1"
         style="fill:#752912;fill-opacity:1;fill-rule:nonzero;stroke:none;stroke-width:3.19933867"
         id="path288"
         inkscape:connector-curvature="0" />
    </g>
    <g
       id="g290"
       transform="matrix(0.01621691,0,0,-0.01621691,-20.781876,400.59891)"
       style="stroke-width:3.19933867">
      <path
         d="m 10874.1,15955.6 c -4.1,-121.3 354.9,-1612.8 521.2,-1600.7 166.3,12 262,490.2 247.1,992.8 -14.1,479.7 -107.2,792.9 -394.3,895.9 -156.9,56.4 -369,-143.1 -374,-288"
         style="fill:#752912;fill-opacity:1;fill-rule:nonzero;stroke:none;stroke-width:3.19933867"
         id="path292"
         inkscape:connector-curvature="0" />
    </g>
    <g
       id="g294"
       transform="matrix(0.01637119,0,0,-0.01637119,-20.781876,400.59891)"
       style="stroke-width:3.19933867">
      <path
         d="m 8534.79,15317 c -30.58,-156.6 290.77,-1652.4 544.42,-1920.2 222.61,-235.1 702.7,-475.8 1410.69,-435.9 523.2,29.3 953.5,468.4 980.7,846.7 23,319.9 -38.7,681.4 -64.1,1097.2 -12.3,202.5 0.7,631.5 -114,884.4 -170.7,376.4 -750.2,510.8 -1487.15,427.3 -651.58,-73.7 -1159.63,-332.2 -1270.56,-899.5"
         style="fill:#ffc19f;fill-opacity:1;fill-rule:nonzero;stroke:none;stroke-width:3.19933867"
         id="path296"
         inkscape:connector-curvature="0" />
    </g>
    <g
       id="g298"
       transform="matrix(0.01645907,0,0,-0.01645907,-20.781876,400.59891)"
       style="stroke-width:3.19933867">
      <path
         d="m 9034.42,15164 c 39.93,-555.9 -56.54,-1239.5 -287.2,-1249.5 -161.33,-6.9 -644.15,280.5 -807.62,717.9 -101.42,271.4 -146.85,620.6 -64.65,957.2 115.3,471.9 464.34,710.4 758.91,583.6 212.98,-91.7 372.02,-612.7 400.56,-1009.2"
         style="fill:#752912;fill-opacity:1;fill-rule:nonzero;stroke:none;stroke-width:3.19933867"
         id="path300"
         inkscape:connector-curvature="0" />
    </g>
    <g
       id="g302"
       transform="matrix(0.01454683,0,0,-0.01454683,-20.781876,400.59891)"
       style="stroke-width:3.19933867">
      <path
         d="m 9453.97,15609.8 c 150.91,-305.5 502.25,-424.8 715.93,-354 166.3,55 141.2,345.5 48.7,611.9 -99.5,286.9 -287.47,432.3 -515.18,403 -305.62,-39.4 -383.85,-389 -249.45,-660.9"
         style="fill:#ffc19f;fill-opacity:1;fill-rule:nonzero;stroke:none;stroke-width:3.19933867"
         id="path304"
         inkscape:connector-curvature="0" />
    </g>
    <g
       id="g306"
       transform="matrix(0.01426046,0,0,-0.01426046,-20.781876,400.59891)"
       style="stroke-width:3.19933867">
      <path
         d="m 9938.4,15990.2 c 42.92,-142.6 238.7,-243.4 360.5,-174.7 40.9,23.1 -131.4,484.5 -199.4,477.7 -154.6,-15.4 -204.09,-160.3 -161.1,-303"
         style="fill:#e0956c;fill-opacity:1;fill-rule:nonzero;stroke:none;stroke-width:3.19933867"
         id="path308"
         inkscape:connector-curvature="0" />
    </g>
    <g
       id="g310"
       transform="matrix(0.01407102,0,0,-0.01407102,-20.781876,400.59891)"
       style="stroke-width:3.19933867">
      <path
         d="m 11646.6,16076.5 c 23.4,151.2 242.9,131.4 544,152.7 15.8,1.1 77,4.9 92.8,5.7 301.4,16.1 475.4,65.1 499.3,-86.6 42.9,-274 -164,-581.1 -468.3,-617.5 -303.4,-36.4 -713.9,248.5 -667.8,545.7"
         style="fill:#701608;fill-opacity:1;fill-rule:nonzero;stroke:none;stroke-width:3.19933867"
         id="path312"
         inkscape:connector-curvature="0" />
    </g>
    <g
       id="g314"
       transform="matrix(0.01360493,0,0,-0.01360493,-20.781876,400.59891)"
       style="stroke-width:3.19933867">
      <path
         d="m 13005.7,16180.8 c -75.9,-61.3 -166.5,-105.6 -269.5,-117.9 -111.1,-13.4 -235.5,16.4 -348.6,72.2 79.6,97.1 206.8,155.4 329.9,160.4 112.3,4.5 221.3,-35.7 288.2,-114.7"
         style="fill:#dd6b5b;fill-opacity:1;fill-rule:nonzero;stroke:none;stroke-width:3.19933867"
         id="path316"
         inkscape:connector-curvature="0" />
    </g>
    <g
       id="g318"
       transform="matrix(0.01404445,0,0,-0.01404445,-20.781876,400.59891)"
       style="stroke-width:3.19933867">
      <path
         d="m 12299.7,16070.1 c 223.3,13.8 397.9,90.6 414.3,201.3 l 0.9,6.8 c -67.9,21.8 -258.8,-0.3 -374,-6.6 -125.6,-6.8 -486.6,-33 -486.6,-33 l 1.9,-6.7 c 30.2,-107.7 220.6,-175.7 443.5,-161.8"
         style="fill:#ffffff;fill-opacity:1;fill-rule:nonzero;stroke:none;stroke-width:3.19933867"
         id="path320"
         inkscape:connector-curvature="0" />
    </g>
    <g
       id="g322"
       transform="matrix(0.01405636,0,0,-0.01405636,-20.781876,400.59891)"
       style="stroke-width:3.19933867">
      <path
         d="m 10918.1,16154.9 c 0.8,-77.9 109.8,-139.9 243.4,-138.5 133.5,1.5 241.1,65.8 240.2,143.7 -0.8,77.9 -109.8,139.9 -243.3,138.5 -133.6,-1.5 -241.2,-65.8 -240.3,-143.7"
         style="fill:#ff8a8a;fill-opacity:1;fill-rule:nonzero;stroke:none;stroke-width:3.19933867"
         id="path324"
         inkscape:connector-curvature="0" />
    </g>
    <g
       id="g326"
       transform="matrix(0.01419673,0,0,-0.01419673,-20.781876,400.59891)"
       style="stroke-width:3.19933867">
      <path
         d="m 13230.2,16185.2 c 9.3,-69.3 -62.3,-136.1 -160,-149.3 -97.7,-13.1 -184.4,32.4 -193.7,101.6 -9.4,69.3 62.2,136.2 159.9,149.4 97.6,13.1 184.4,-32.4 193.8,-101.7"
         style="fill:#ff8a8a;fill-opacity:1;fill-rule:nonzero;stroke:none;stroke-width:3.19933867"
         id="path328"
         inkscape:connector-curvature="0" />
    </g>
    <g
       id="g330"
       transform="matrix(0.0143446,0,0,-0.0143446,-20.781876,400.59891)"
       style="stroke-width:3.19933867">
      <path
         d="m 11937.8,16125.7 c 8.8,0.7 16.1,7.6 16.9,16.7 5.7,64.5 52.9,109.4 120.3,114.5 67.7,5.1 122.3,-32.9 136,-94.6 2.2,-10 12,-16.2 21.9,-14 9.9,2.1 16.1,12 13.9,21.9 -17.5,79.1 -89.3,129.8 -174.6,123.3 -84.9,-6.3 -146.8,-65.8 -154.1,-147.8 -0.9,-10.1 6.6,-19 16.7,-20 h 3"
         style="fill:#c4735b;fill-opacity:1;fill-rule:nonzero;stroke:none;stroke-width:3.19933867"
         id="path332"
         inkscape:connector-curvature="0" />
    </g>
    <g
       id="g334"
       transform="matrix(0.0173317,0,0,-0.0173317,-20.781876,400.59891)"
       style="stroke-width:3.19933867">
      <path
         d="m 10546,15906.9 c 25.9,-170.6 -6.9,-275.6 -68.2,-323.1 12.1,185.6 -91.5,515.3 -334,716.2 -109.3,-129.5 -283.13,-229.7 -385.37,-337.6 7.83,75 12.54,177.6 -32.44,243.4 -107.97,-165.6 -216.51,-234.5 -400.37,-280 -300.04,-74.4 -656.44,-104.9 -947.95,-213 -280.76,-104.2 -486.26,-267.9 -520.1,-591.6 -12.47,-118.9 358.5,-96.1 520.99,-173 386.62,246.6 930.58,83.8 1265.8,61.6 439.74,-29.1 925.24,50.8 1037.64,251.3 114.5,204.6 91.3,487.1 -136,645.8"
         style="fill:#752912;fill-opacity:1;fill-rule:nonzero;stroke:none;stroke-width:3.19933867"
         id="path336"
         inkscape:connector-curvature="0" />
    </g>
    <g
       id="g338"
       transform="matrix(0.01499427,0,0,-0.01499427,-20.781876,400.59891)"
       style="stroke-width:3.19933867">
      <path
         d="m 11859.8,16041.5 c -73.3,-181.9 -48.2,-374.4 32.7,-442.1 121.8,-102 393,-113.2 481.4,54.3 85.6,162.2 17.7,441 -149.7,550.5 -146.6,95.8 -293.6,13.4 -364.4,-162.7"
         style="fill:#f9feff;fill-opacity:1;fill-rule:nonzero;stroke:none;stroke-width:3.19933867"
         id="path340"
         inkscape:connector-curvature="0" />
    </g>
    <g
       id="g342"
       transform="matrix(0.01507796,0,0,-0.01507796,-20.781876,400.59891)"
       style="stroke-width:3.19933867">
      <path
         d="m 12288.2,16038.9 c -142.7,261.1 -430.9,147.2 -496.8,-92.6 72.8,180.8 227.1,246 361.8,157.9 83.3,-54.5 147.3,-157.8 171.2,-276.3 19,-94.6 11.3,-202.9 -24.1,-269.9 43.1,45.3 92.9,288.9 -12.1,480.9"
         style="fill:#723c27;fill-opacity:1;fill-rule:nonzero;stroke:none;stroke-width:3.19933867"
         id="path344"
         inkscape:connector-curvature="0" />
    </g>
    <g
       id="g346"
       transform="matrix(0.01482536,0,0,-0.01482536,-20.781876,400.59891)"
       style="stroke-width:3.19933867">
      <path
         d="m 12022.5,16107.5 c -26.6,-125.6 26.1,-262.3 117.5,-305.5 91.5,-43 187.3,23.9 213.9,149.5 26.6,125.6 -26,262.4 -117.5,305.4 -91.5,43.1 -187.2,-23.8 -213.9,-149.4"
         style="fill:#752912;fill-opacity:1;fill-rule:nonzero;stroke:none;stroke-width:3.19933867"
         id="path348"
         inkscape:connector-curvature="0" />
    </g>
    <g
       id="g350"
       transform="matrix(0.01471905,0,0,-0.01471905,-20.781876,400.59891)"
       style="stroke-width:3.19933867">
      <path
         d="m 12121.8,16246.2 c -7.4,-35.1 7.3,-73.3 32.9,-85.4 25.6,-12 52.3,6.7 59.7,41.8 7.5,35.1 -7.2,73.3 -32.8,85.3 -25.5,12.1 -52.3,-6.6 -59.8,-41.7"
         style="fill:#fefffe;fill-opacity:1;fill-rule:nonzero;stroke:none;stroke-width:3.19933867"
         id="path352"
         inkscape:connector-curvature="0" />
    </g>
    <g
       id="g354"
       transform="matrix(0.0149032,0,0,-0.0149032,-20.781876,400.59891)"
       style="stroke-width:3.19933867">
      <path
         d="m 11095.8,16076 c 120.6,-169.8 119,-365.3 27.6,-445.1 -137.7,-120.3 -477.8,-173 -615.3,-19.8 -133.1,148.3 -90.9,436.3 103,571 169.8,117.9 368,58.4 484.7,-106.1"
         style="fill:#f9feff;fill-opacity:1;fill-rule:nonzero;stroke:none;stroke-width:3.19933867"
         id="path356"
         inkscape:connector-curvature="0" />
    </g>
    <g
       id="g358"
       transform="matrix(0.01496703,0,0,-0.01496703,-20.781876,400.59891)"
       style="stroke-width:3.19933867">
      <path
         d="m 10411.3,16017.8 c 139.4,282.2 520.8,212.9 641.2,-16 -119.9,169.1 -324.8,210.3 -481.1,101.9 -96.6,-67.2 -161.2,-180 -172.9,-301.9 -9.3,-97.1 17.3,-203.9 72.4,-265.3 -61.4,38.6 -162.2,273.8 -59.6,481.3"
         style="fill:#723c27;fill-opacity:1;fill-rule:nonzero;stroke:none;stroke-width:3.19933867"
         id="path360"
         inkscape:connector-curvature="0" />
    </g>
    <g
       id="g362"
       transform="matrix(0.01473901,0,0,-0.01473901,-20.781876,400.59891)"
       style="stroke-width:3.19933867">
      <path
         d="m 10677.3,16103.9 c -36.1,-126.9 28.2,-263.7 143.5,-305.5 115.4,-41.8 238.2,27.4 274.2,154.3 36.2,127 -28.2,263.7 -143.5,305.6 -115.4,41.7 -238.2,-27.4 -274.2,-154.4"
         style="fill:#752912;fill-opacity:1;fill-rule:nonzero;stroke:none;stroke-width:3.19933867"
         id="path364"
         inkscape:connector-curvature="0" />
    </g>
    <g
       id="g366"
       transform="matrix(0.01463129,0,0,-0.01463129,-20.781876,400.59891)"
       style="stroke-width:3.19933867">
      <path
         d="m 10772.1,16245.2 c -10,-35.5 7.9,-73.7 40.2,-85.4 32.3,-11.7 66.5,7.7 76.6,43.1 10.1,35.5 -7.9,73.7 -40.1,85.4 -32.3,11.7 -66.6,-7.6 -76.7,-43.1"
         style="fill:#fefffe;fill-opacity:1;fill-rule:nonzero;stroke:none;stroke-width:3.19933867"
         id="path368"
         inkscape:connector-curvature="0" />
    </g>
    <g
       id="g370"
       transform="matrix(0.01558575,0,0,-0.01558575,-20.781876,400.59891)"
       style="stroke-width:3.19933867">
      <path
         d="m 11396.5,16223.7 c 169.3,76.3 389.1,44.3 532.2,-74.9 28.8,-24 32.1,-68.9 8.4,-99 -12.8,-16.2 -30.8,-25 -49.2,-25.9 -15.9,-0.7 -31,5.8 -45.2,15.7 -103.5,72.3 -267.4,99.2 -395.4,54.6 -35.1,-12.2 -73.3,1.5 -87.4,37.2 -14,35.7 2.4,77 36.6,92.3"
         style="fill:#752912;fill-opacity:1;fill-rule:nonzero;stroke:none;stroke-width:3.19933867"
         id="path372"
         inkscape:connector-curvature="0" />
    </g>
    <g
       id="g374"
       transform="matrix(0.01551164,0,0,-0.01551164,-20.781876,400.59891)"
       style="stroke-width:3.19933867">
      <path
         d="m 9854,16064.5 c 154.7,172.8 489.1,235.5 714.3,168 37.4,-11.2 60.6,-48.4 50.8,-86.3 -9.7,-37.8 -48.3,-58.2 -86.3,-50.8 -217.9,43.1 -463.8,-17.9 -574.16,-126.3 -12.94,-12.7 -28.44,-21 -45.07,-22.7 -19.34,-2 -39.45,3.9 -54.95,18.1 -28.86,26.3 -30.71,70.8 -4.62,100"
         style="fill:#752912;fill-opacity:1;fill-rule:nonzero;stroke:none;stroke-width:3.19933867"
         id="path376"
         inkscape:connector-curvature="0" />
    </g>
    <g
       id="g378"
       transform="matrix(0.01371806,0,0,-0.01371806,-20.781876,400.59891)"
       style="stroke-width:3.19933867">
      <path
         d="m 15177.2,15950.1 c -96.6,-108.8 -248,-117.8 -381.3,-59.5 -133.3,58.4 -121.8,162.6 -67.2,297.3 45.5,112.1 333.5,107.3 474.7,71.7 102.7,-26 90.9,-177.8 -26.2,-309.5"
         style="fill:#f29d77;fill-opacity:1;fill-rule:nonzero;stroke:none;stroke-width:3.19933867"
         id="path380"
         inkscape:connector-curvature="0" />
    </g>
    <g
       id="g382"
       transform="matrix(0.01354265,0,0,-0.01354265,-20.781876,400.59891)"
       style="stroke-width:3.19933867">
      <path
         d="m 15157.8,16189.2 c -73.2,-5 -134.1,14.7 -136,44 -2.1,29.3 55.7,56.9 128.9,61.9 73.2,4.9 134.2,-14.8 136.2,-44.1 1.9,-29.2 -55.8,-56.9 -129.1,-61.8"
         style="fill:#c16b49;fill-opacity:1;fill-rule:nonzero;stroke:none;stroke-width:3.19933867"
         id="path384"
         inkscape:connector-curvature="0" />
    </g>
    <g
       id="g386"
       transform="matrix(0.01405702,0,0,-0.01405702,-20.781876,400.59891)"
       style="stroke-width:3.19933867">
      <path
         d="m 15128.9,16284.5 c -143.6,-27.3 -887.5,-341.6 -1263,-481 -46.3,-17.1 86.5,-326.7 149.9,-373.3 150.4,-110.3 337.6,-108.8 722.9,-89.1 14.3,0.8 258.7,126.9 323.8,165.9 50.5,30.2 -13.4,106.7 -78.7,120 -124.5,25.4 -273.3,-82.9 -362.2,-1.9 -88.7,80.8 -31.6,143.4 35.6,187 193.5,125.7 372.5,219.3 467.2,300.6 72.1,61.8 86.4,187.3 4.5,171.8"
         style="fill:#ffc19f;fill-opacity:1;fill-rule:nonzero;stroke:none;stroke-width:3.19933867"
         id="path388"
         inkscape:connector-curvature="0" />
    </g>
  </g>
</svg>
