<?xml version="1.0" encoding="UTF-8" standalone="no"?>
<!-- Created with Inkscape (http://www.inkscape.org/) -->

<svg
   xmlns:dc="http://purl.org/dc/elements/1.1/"
   xmlns:cc="http://creativecommons.org/ns#"
   xmlns:rdf="http://www.w3.org/1999/02/22-rdf-syntax-ns#"
   xmlns:svg="http://www.w3.org/2000/svg"
   xmlns="http://www.w3.org/2000/svg"
   xmlns:sodipodi="http://sodipodi.sourceforge.net/DTD/sodipodi-0.dtd"
   xmlns:inkscape="http://www.inkscape.org/namespaces/inkscape"
   width="1000"
   height="1000"
   viewBox="0 0 264.58333 264.58334"
   version="1.1"
   id="svg2383"
   inkscape:version="0.92.5 (2060ec1f9f, 2020-04-08)"
   sodipodi:docname="play.svg"
   enable-background="new">
  <defs
     id="defs2377">
    <clipPath
       clipPathUnits="userSpaceOnUse"
       id="clipPath220">
      <path
         d="m 24264.5,11588.5 c -409.8,0 -813.3,52.7 -1159.9,166.6 3.8,45 7.4,89.1 10.9,133 336.4,-114.1 738.6,-165.9 1147.5,-165.9 260.9,0 524.6,21.1 775.6,60.6 7.4,-44.9 15.5,-88.5 24.3,-130.2 -258.1,-41.7 -529.2,-64.1 -798.4,-64.1"
         id="path218"
         inkscape:connector-curvature="0" />
    </clipPath>
  </defs>
  <sodipodi:namedview
     id="base"
     pagecolor="#ffffff"
     bordercolor="#666666"
     borderopacity="1.0"
     inkscape:pageopacity="0.0"
     inkscape:pageshadow="2"
     inkscape:zoom="0.70710678"
     inkscape:cx="319.40352"
     inkscape:cy="570.83969"
     inkscape:document-units="px"
     inkscape:current-layer="g350"
     showgrid="false"
     units="px"
     inkscape:window-width="1920"
     inkscape:window-height="1031"
     inkscape:window-x="0"
     inkscape:window-y="25"
     inkscape:window-maximized="1"
     showguides="true"
     inkscape:lockguides="true"
     inkscape:object-nodes="false"
     inkscape:snap-nodes="false"
     inkscape:snap-others="false" />
  <metadata
     id="metadata2380">
    <rdf:RDF>
      <cc:Work
         rdf:about="">
        <dc:format>image/svg+xml</dc:format>
        <dc:type
           rdf:resource="http://purl.org/dc/dcmitype/StillImage" />
        <dc:title></dc:title>
      </cc:Work>
    </rdf:RDF>
  </metadata>
  <g
     inkscape:groupmode="layer"
     id="layer3"
     inkscape:label="Layer 2" />
  <g
     inkscape:groupmode="layer"
     id="layer2"
     inkscape:label="Layer 3" />
  <g
     inkscape:label="Layer 1"
     inkscape:groupmode="layer"
     id="layer1"
     transform="translate(0,-32.41665)">
    <text
       xml:space="preserve"
       style="font-style:normal;font-variant:normal;font-weight:bold;font-stretch:normal;font-size:10.58333302px;line-height:1.25;font-family:sans-serif;-inkscape-font-specification:'sans-serif Bold';letter-spacing:0px;word-spacing:0px;fill:#000000;fill-opacity:1;stroke:none;stroke-width:0.26458332"
       x="150.05655"
       y="89.869026"
       id="text8811" />
    <text
       xml:space="preserve"
       style="font-style:normal;font-variant:normal;font-weight:bold;font-stretch:normal;font-size:10.58333302px;line-height:1.25;font-family:sans-serif;-inkscape-font-specification:'sans-serif Bold';letter-spacing:0px;word-spacing:0px;fill:#000000;fill-opacity:1;stroke:none;stroke-width:0.26458332"
       x="160.63989"
       y="97.806526"
       id="text8815" />
    <text
       xml:space="preserve"
       style="font-style:normal;font-variant:normal;font-weight:bold;font-stretch:normal;font-size:10.58333302px;line-height:1.25;font-family:sans-serif;-inkscape-font-specification:'sans-serif Bold';letter-spacing:0px;word-spacing:0px;fill:#000000;fill-opacity:1;stroke:none;stroke-width:0.26458332"
       x="156.86011"
       y="88.7351"
       id="text8819" />
    <flowRoot
       xml:space="preserve"
       id="flowRoot8821"
       style="font-style:normal;font-variant:normal;font-weight:bold;font-stretch:normal;font-size:40px;line-height:1.25;font-family:sans-serif;-inkscape-font-specification:'sans-serif Bold';letter-spacing:0px;word-spacing:0px;fill:#000000;fill-opacity:1;stroke:none"><flowRegion
         id="flowRegion8823"
         style="font-style:normal;font-variant:normal;font-weight:bold;font-stretch:normal;font-family:sans-serif;-inkscape-font-specification:'sans-serif Bold'" /><flowPara
         id="flowPara8827" /></flowRoot>    <flowRoot
       xml:space="preserve"
       id="flowRoot8829"
       style="font-style:normal;font-variant:normal;font-weight:bold;font-stretch:normal;font-size:40px;line-height:1.25;font-family:sans-serif;-inkscape-font-specification:'sans-serif Bold';letter-spacing:0px;word-spacing:0px;fill:#000000;fill-opacity:1;stroke:none"><flowRegion
         id="flowRegion8831"
         style="font-style:normal;font-variant:normal;font-weight:bold;font-stretch:normal;font-family:sans-serif;-inkscape-font-specification:'sans-serif Bold'" /><flowPara
         id="flowPara8835" /></flowRoot>    <flowRoot
       xml:space="preserve"
       id="flowRoot8837"
       style="font-style:normal;font-variant:normal;font-weight:bold;font-stretch:normal;font-size:40px;line-height:1.25;font-family:sans-serif;-inkscape-font-specification:'sans-serif Bold';letter-spacing:0px;word-spacing:0px;fill:#000000;fill-opacity:1;stroke:none"><flowRegion
         id="flowRegion8839"
         style="font-style:normal;font-variant:normal;font-weight:bold;font-stretch:normal;font-family:sans-serif;-inkscape-font-specification:'sans-serif Bold'" /><flowPara
         id="flowPara8843" /></flowRoot>    <text
       xml:space="preserve"
       style="font-style:normal;font-variant:normal;font-weight:bold;font-stretch:normal;font-size:10.58333302px;line-height:1.25;font-family:sans-serif;-inkscape-font-specification:'sans-serif Bold';letter-spacing:0px;word-spacing:0px;fill:#000000;fill-opacity:1;stroke:none;stroke-width:0.26458332"
       x="209.39882"
       y="107.25594"
       id="text8847" />
    <flowRoot
       xml:space="preserve"
       id="flowRoot8849"
       style="font-style:normal;font-variant:normal;font-weight:bold;font-stretch:normal;font-size:40px;line-height:1.25;font-family:sans-serif;-inkscape-font-specification:'sans-serif Bold';letter-spacing:0px;word-spacing:0px;fill:#000000;fill-opacity:1;stroke:none"><flowRegion
         id="flowRegion8851"
         style="font-style:normal;font-variant:normal;font-weight:bold;font-stretch:normal;font-family:sans-serif;-inkscape-font-specification:'sans-serif Bold'" /><flowPara
         id="flowPara8855" /></flowRoot>    <flowRoot
       xml:space="preserve"
       id="flowRoot8857"
       style="font-style:normal;font-variant:normal;font-weight:bold;font-stretch:normal;font-size:40px;line-height:1.25;font-family:sans-serif;-inkscape-font-specification:'sans-serif Bold';letter-spacing:0px;word-spacing:0px;fill:#000000;fill-opacity:1;stroke:none"><flowRegion
         id="flowRegion8859"
         style="font-style:normal;font-variant:normal;font-weight:bold;font-stretch:normal;font-family:sans-serif;-inkscape-font-specification:'sans-serif Bold'" /><flowPara
         id="flowPara8863" /></flowRoot>    <flowRoot
       xml:space="preserve"
       id="flowRoot8865"
       style="font-style:normal;font-variant:normal;font-weight:bold;font-stretch:normal;font-size:40px;line-height:1.25;font-family:sans-serif;-inkscape-font-specification:'sans-serif Bold';letter-spacing:0px;word-spacing:0px;fill:#000000;fill-opacity:1;stroke:none"><flowRegion
         id="flowRegion8867"
         style="font-style:normal;font-variant:normal;font-weight:bold;font-stretch:normal;font-family:sans-serif;-inkscape-font-specification:'sans-serif Bold'" /><flowPara
         id="flowPara8871" /></flowRoot>    <flowRoot
       xml:space="preserve"
       id="flowRoot8873"
       style="font-style:normal;font-variant:normal;font-weight:bold;font-stretch:normal;font-size:40px;line-height:1.25;font-family:sans-serif;-inkscape-font-specification:'sans-serif Bold';letter-spacing:0px;word-spacing:0px;fill:#000000;fill-opacity:1;stroke:none"><flowRegion
         id="flowRegion8875"
         style="font-style:normal;font-variant:normal;font-weight:bold;font-stretch:normal;font-family:sans-serif;-inkscape-font-specification:'sans-serif Bold'" /><flowPara
         id="flowPara8879" /></flowRoot>    <text
       xml:space="preserve"
       style="font-style:normal;font-weight:normal;font-size:10.58333302px;line-height:1.25;font-family:sans-serif;letter-spacing:0px;word-spacing:0px;fill:#000000;fill-opacity:1;stroke:none;stroke-width:0.26458332"
       x="101.02788"
       y="69.125984"
       id="text977"><tspan
         sodipodi:role="line"
         id="tspan975"
         x="101.02788"
         y="78.489754"
         style="stroke-width:0.26458332" /><tspan
         sodipodi:role="line"
         x="101.02788"
         y="91.718918"
         style="stroke-width:0.26458332"
         id="tspan979" /><tspan
         sodipodi:role="line"
         x="101.02788"
         y="104.94809"
         style="stroke-width:0.26458332"
         id="tspan981" /><tspan
         sodipodi:role="line"
         x="101.02788"
         y="118.17725"
         style="stroke-width:0.26458332"
         id="tspan983" /><tspan
         sodipodi:role="line"
         x="101.02788"
         y="131.40642"
         style="stroke-width:0.26458332"
         id="tspan985" /><tspan
         sodipodi:role="line"
         x="101.02788"
         y="144.63559"
         style="stroke-width:0.26458332"
         id="tspan987" /><tspan
         sodipodi:role="line"
         x="101.02788"
         y="157.86475"
         style="stroke-width:0.26458332"
         id="tspan989" /><tspan
         sodipodi:role="line"
         x="101.02788"
         y="171.09392"
         style="stroke-width:0.26458332"
         id="tspan991" /><tspan
         sodipodi:role="line"
         x="101.02788"
         y="184.32309"
         style="stroke-width:0.26458332"
         id="tspan993" /><tspan
         sodipodi:role="line"
         x="101.02788"
         y="197.55225"
         style="stroke-width:0.26458332"
         id="tspan995" /><tspan
         sodipodi:role="line"
         x="101.02788"
         y="210.78142"
         style="stroke-width:0.26458332"
         id="tspan997" /><tspan
         sodipodi:role="line"
         x="101.02788"
         y="224.01059"
         style="stroke-width:0.26458332"
         id="tspan999" /><tspan
         sodipodi:role="line"
         x="101.02788"
         y="237.23975"
         style="stroke-width:0.26458332"
         id="tspan1001" /><tspan
         sodipodi:role="line"
         x="101.02788"
         y="250.46892"
         style="stroke-width:0.26458332"
         id="tspan1003" /><tspan
         sodipodi:role="line"
         x="101.02788"
         y="263.69809"
         style="stroke-width:0.26458332"
         id="tspan1005" /><tspan
         sodipodi:role="line"
         x="101.02788"
         y="276.92725"
         style="stroke-width:0.26458332"
         id="tspan1007" /><tspan
         sodipodi:role="line"
         x="101.02788"
         y="290.1564"
         style="stroke-width:0.26458332"
         id="tspan1009" /><tspan
         sodipodi:role="line"
         x="101.02788"
         y="303.38559"
         style="stroke-width:0.26458332"
         id="tspan1011" /><tspan
         sodipodi:role="line"
         x="101.02788"
         y="316.61475"
         style="stroke-width:0.26458332"
         id="tspan1013" /><tspan
         sodipodi:role="line"
         x="101.02788"
         y="329.8439"
         style="stroke-width:0.26458332"
         id="tspan1015" /><tspan
         sodipodi:role="line"
         x="101.02788"
         y="343.07309"
         style="stroke-width:0.26458332"
         id="tspan1017" /><tspan
         sodipodi:role="line"
         x="101.02788"
         y="356.30225"
         style="stroke-width:0.26458332"
         id="tspan1019" /><tspan
         sodipodi:role="line"
         x="101.02788"
         y="369.5314"
         style="stroke-width:0.26458332"
         id="tspan1021" /><tspan
         sodipodi:role="line"
         x="101.02788"
         y="382.76059"
         style="stroke-width:0.26458332"
         id="tspan1023" /></text>
    <g
       id="g350"
       transform="matrix(0.03291558,0,0,-0.03291558,-306.13476,362.40025)"
       style="stroke-width:1.5527097">
      <g
         id="g402"
         transform="matrix(1.0585859,0,0,1.0585859,-4082.9347,323.08972)"
         style="stroke-width:2.45686412">
        <path
           d="m 16118.7,5404.68 c 0,0 -492.2,25.06 -920.9,879.07 -67.9,-7.95 -120.4,48.62 -174.4,137.42 -57.7,50.86 -88.1,95.32 -64,113.54 25,18.81 84.4,-42.95 101.3,-56.07 -1.3,3.12 -66.2,86.6 -78.9,106.06 -30,45.11 9.4,79.36 42,45.38 27.5,-28.68 86.3,-98.61 89.5,-102.11 -1.7,4.21 -55.6,100.2 -66,117.79 -30.1,51.58 22.8,92.43 58.7,33.98 24.4,-39.86 64.5,-111.23 69.8,-116.35 0.6,3.59 -16,63.34 -23.4,99.59 -12.1,59.67 37,78.08 62.2,13.25 20,-50.98 73.2,-171.13 73.2,-171.13 0,0 45.3,77.96 87.9,52.5 43,-25.83 -40.4,-159.51 -40.4,-159.51 0,0 189.5,-631.81 848.9,-805.22 115.8,-113.28 -65.5,-188.19 -65.5,-188.19"
           style="fill:#fabd99;fill-opacity:1;fill-rule:nonzero;stroke:none;stroke-width:2.45686412"
           id="path404"
           inkscape:connector-curvature="0" />
      </g>
      <g
         id="g406"
         transform="matrix(1.0417879,0,0,1.0417879,-4082.9347,323.08972)"
         style="stroke-width:2.45686412">
        <path
           d="m 16300,5710.64 c -12.2,-27.22 -62,-96.37 -86.2,-148.81 -37.5,11.09 -95.7,34.3 -165.2,81.33 33.7,-4.59 100.3,3.47 117.7,33.78 23.2,40.84 -29.5,101.55 -52.1,124.87 54.7,-35.36 116.3,-66.65 185.8,-91.17"
           style="fill:#efad84;fill-opacity:1;fill-rule:nonzero;stroke:none;stroke-width:2.45686412"
           id="path408"
           inkscape:connector-curvature="0" />
      </g>
      <g
         id="g410"
         transform="matrix(0.99272104,0,0,0.99272104,-4082.9347,323.08972)"
         style="stroke-width:2.45686412">
        <path
           d="m 16230.4,6834.22 c 0.5,-0.01 0.9,0.04 1.2,0.21 3.3,0.8 4.9,4.32 3.9,7.57 -17.1,53.14 29.4,84.94 59.7,95.51 3.3,1.03 4.8,4.51 3.8,7.71 -1.3,3.22 -4.7,4.83 -7.9,3.83 -34.2,-12.06 -87,-48.78 -67.1,-110.88 0.7,-2.8 3.7,-4.54 6.4,-3.95"
           style="fill:#ce6748;fill-opacity:1;fill-rule:nonzero;stroke:none;stroke-width:2.45686412"
           id="path412"
           inkscape:connector-curvature="0" />
      </g>
      <g
         id="g414"
         transform="matrix(1.2143884,0,0,1.2143884,-4082.9347,323.08972)"
         style="stroke-width:2.45686412">
        <path
           d="m 14940.8,4509.13 c 0,0 553.8,-0.73 1042.1,381.88 51.6,-29.93 113.1,-3.13 187.2,48.94 63.8,20.76 103.6,45.76 90.7,68.69 -13.4,23.64 -82.4,-5.11 -100.5,-9.6 2.2,1.94 82.9,46.25 100,57.29 39.7,25.69 20.2,66.54 -17.8,50.8 -32,-13.21 -103.2,-48.79 -106.9,-50.44 2.8,2.91 79.4,60.63 93.7,71.14 42.1,30.78 13.8,81.93 -35.1,47.56 -33.4,-23.3 -90.4,-66.34 -96.2,-68.72 0.7,3.15 34.7,45.18 53.2,71.53 30.3,43.39 -2.5,75.23 -45,32.3 -33.7,-33.85 -118,-111.21 -118,-111.21 0,0 -9.1,77.95 -52.1,72.44 -43.2,-5.61 -23.2,-141.69 -23.2,-141.69 0,0 -367.5,-319.71 -958.8,-347.69 -131.8,-50.26 -13.3,-173.22 -13.3,-173.22"
           style="fill:#fabd99;fill-opacity:1;fill-rule:nonzero;stroke:none;stroke-width:2.45686412"
           id="path416"
           inkscape:connector-curvature="0" />
      </g>
      <g
         id="g418"
         transform="matrix(1.1271941,0,0,1.1271941,-4082.9347,323.08972)"
         style="stroke-width:2.45686412">
        <path
           d="m 16283.3,4889.72 c -99.3,-9.61 -161.4,-5.79 -161.4,-5.79 0,0 -100.5,117.37 15.9,155.65 56.5,-0.69 110.5,2.42 162.2,7.57 -61.7,-16.25 -178.1,-128.74 -16.7,-157.43"
           style="fill:#efad84;fill-opacity:1;fill-rule:nonzero;stroke:none;stroke-width:2.45686412"
           id="path420"
           inkscape:connector-curvature="0" />
      </g>
      <g
         id="g422"
         transform="matrix(1.1957276,0,0,1.1957276,-4082.9347,323.08972)"
         style="stroke-width:2.45686412">
        <path
           d="m 16261.8,5076.17 c 1,0.32 1.9,0.83 2.6,1.69 35.6,40.5 7.7,86.04 -14.5,106.56 -1.9,1.78 -5.2,1.87 -6.9,-0.19 -2.1,-2.13 -1.9,-5.26 0.1,-7.18 19.6,-18.03 44.3,-57.84 13.8,-92.51 -1.8,-2.12 -1.6,-5.33 0.4,-7.14 1.3,-1.04 2.9,-1.48 4.5,-1.23"
           style="fill:#ce6748;fill-opacity:1;fill-rule:nonzero;stroke:none;stroke-width:2.45686412"
           id="path424"
           inkscape:connector-curvature="0" />
      </g>
      <g
         id="g426"
         transform="matrix(1.099037,0,0,1.099037,-4082.9347,323.08972)"
         style="stroke-width:2.45686412">
        <path
           d="m 16300,5241.04 c 0,0 -116.3,49.21 -189.5,91.58 12.2,82.02 49.9,167.9 49.9,167.9 l -143.5,50.81 c 0,0 -43.7,-128.52 -54.6,-181.65 -113.7,-1.53 -263.9,6.51 -263.9,6.51 0,0 -155.2,-317.11 222,-393.33 99.2,-20.13 359.5,101.29 379.6,258.18"
           style="fill:#fabd99;fill-opacity:1;fill-rule:nonzero;stroke:none;stroke-width:2.45686412"
           id="path428"
           inkscape:connector-curvature="0" />
      </g>
      <g
         id="g430"
         transform="matrix(1.0879015,0,0,1.0879015,-4082.9347,323.08972)"
         style="stroke-width:2.45686412">
        <path
           d="m 16184.5,5555.38 115.5,-40.04 c 0,0 -26.9,-56.61 -38.2,-119.73 -34.8,50.68 -94.7,61.21 -123.9,25.59 12.1,52.79 46.6,134.18 46.6,134.18"
           style="fill:#efad84;fill-opacity:1;fill-rule:nonzero;stroke:none;stroke-width:2.45686412"
           id="path432"
           inkscape:connector-curvature="0" />
      </g>
      <g
         id="g434"
         transform="matrix(1.1319694,0,0,1.1319694,-4082.9347,323.08972)"
         style="stroke-width:2.45686412">
        <path
           d="m 15322,5213.72 c -214,-382.82 444.5,-527.96 509.5,-133.8 58.5,-9.34 268.2,-5.85 444.4,42.83 8.6,-151.93 14.9,-273.88 24.1,-376.31 -70.9,-14.42 -181.2,-50.87 -333.8,-62.65 -72.1,-133.14 -103.6,-836.71 -90,-873.03 0,0 -579,-66.72 -1131.6,96.75 -0.2,0.06 216.9,1016.92 225,1032.7 4.2,7.96 -152.7,37.66 -255.9,143.62 15.7,169.13 115.3,286.28 161.8,331.37 145.4,-142.43 380.5,-188.51 446.5,-201.48"
           style="fill:#ecb50e;fill-opacity:1;fill-rule:nonzero;stroke:none;stroke-width:2.45686412"
           id="path436"
           inkscape:connector-curvature="0" />
      </g>
      <g
         id="g438"
         transform="matrix(1.1008724,0,0,1.1008724,-4082.9347,323.08972)"
         style="stroke-width:2.45686412">
        <path
           d="m 15795.5,5371.05 c -42.2,-115.58 -50.5,-275.9 131.7,-305.59 160.5,-26.18 241.2,43.98 267.2,203.41 36.2,-7.01 105.6,-42.45 105.6,-42.45 0,0 -64.5,-345.24 -409.2,-268.33 -327.4,73.1 -205.5,421.28 -205.5,421.28 l 110.2,-8.32"
           style="fill:#29806a;fill-opacity:1;fill-rule:nonzero;stroke:none;stroke-width:2.45686412"
           id="path440"
           inkscape:connector-curvature="0" />
      </g>
      <g
         id="g442"
         transform="matrix(1.0366739,0,0,1.0366739,-4082.9347,323.08972)"
         style="stroke-width:2.45686412">
        <path
           d="m 16230.3,5929.32 c 0,0 -184.9,-224.41 -196,-380.56 33.7,-30.06 79.5,-54.77 79.5,-54.77 0,0 78.8,231.31 186.2,377.91 -43.4,24.4 -69.7,57.42 -69.7,57.42"
           style="fill:#29806a;fill-opacity:1;fill-rule:nonzero;stroke:none;stroke-width:2.45686412"
           id="path444"
           inkscape:connector-curvature="0" />
      </g>
      <g
         id="g446"
         transform="matrix(1.1371036,0,0,1.1371036,-4082.9347,323.08972)"
         style="stroke-width:2.45686412">
        <path
           d="m 16125.1,5093.26 c 0,0 22.8,-245.46 79.5,-376.4 38.6,1.84 95.4,34.49 95.4,34.49 -29.8,57.41 -72.5,198.86 -74.4,373.5 -49.3,-21.04 -100.5,-31.59 -100.5,-31.59"
           style="fill:#29806a;fill-opacity:1;fill-rule:nonzero;stroke:none;stroke-width:2.45686412"
           id="path448"
           inkscape:connector-curvature="0" />
      </g>
      <g
         id="g450"
         transform="matrix(1.0206345,0,0,1.0206345,-4082.9347,323.08972)"
         style="stroke-width:2.45686412">
        <path
           d="m 16125.1,3171.97 c 0,0 -60.4,-236.92 -97.1,-364.74 80.6,-41.54 138.1,-37.69 138.1,-37.69 l 133.9,383.78 -174.9,18.65"
           style="fill:#fabd99;fill-opacity:1;fill-rule:nonzero;stroke:none;stroke-width:2.45686412"
           id="path452"
           inkscape:connector-curvature="0" />
      </g>
      <g
         id="g454"
         transform="matrix(1.1371849,0,0,1.1371849,-4082.9347,323.08972)"
         style="stroke-width:2.45686412">
        <path
           d="m 15992.2,2774.27 c 0,0 134.5,-173.15 204.9,-269.82 73.9,34.19 102.9,77.14 102.9,77.14 l -198.2,306.39 -109.6,-113.71"
           style="fill:#fabd99;fill-opacity:1;fill-rule:nonzero;stroke:none;stroke-width:2.45686412"
           id="path456"
           inkscape:connector-curvature="0" />
      </g>
      <g
         id="g458"
         transform="matrix(1.0142539,0,0,1.0142539,-4082.9347,323.08972)"
         style="stroke-width:2.45686412">
        <path
           d="m 15986.1,2726.19 c -41.7,-63.11 -111.5,-309.13 53,-366.23 183.2,-63.78 255.6,155.94 260.9,250.3 -166.7,108.52 -313.9,115.93 -313.9,115.93"
           style="fill:#e5e5e4;fill-opacity:1;fill-rule:nonzero;stroke:none;stroke-width:2.45686412"
           id="path460"
           inkscape:connector-curvature="0" />
      </g>
      <g
         id="g462"
         transform="matrix(1.017268,0,0,1.017268,-4082.9347,323.08972)"
         style="stroke-width:2.45686412">
        <path
           d="m 16098,2914.28 c -140.7,-82.3 -278,-388.92 -73.3,-471.82 204.9,-82.76 275.3,244.1 235.9,420.48 -133.1,8.52 -162.6,51.34 -162.6,51.34"
           style="fill:#933c47;fill-opacity:1;fill-rule:nonzero;stroke:none;stroke-width:2.45686412"
           id="path464"
           inkscape:connector-curvature="0" />
      </g>
      <g
         id="g466"
         transform="matrix(1.1515175,0,0,1.1515175,-4082.9347,323.08972)"
         style="stroke-width:2.45686412">
        <path
           d="m 16215.9,2499.46 c 42,-17.65 84.1,-85.82 69.7,-211.82 -14.2,-125.88 -53,-301.34 -204.6,-324.87 -157.2,-24.24 -133.9,124.58 -133.9,124.58 l 268.8,412.11"
           style="fill:#e5e5e4;fill-opacity:1;fill-rule:nonzero;stroke:none;stroke-width:2.45686412"
           id="path468"
           inkscape:connector-curvature="0" />
      </g>
      <g
         id="g470"
         transform="matrix(1.1477175,0,0,1.1477175,-4082.9347,323.08972)"
         style="stroke-width:2.45686412">
        <path
           d="m 16137,2597.97 c 42.6,-11.57 163,-75.31 153.3,-171.98 -9.6,-96.43 -37.8,-363.3 -189,-381.54 -151.1,-17.76 -136.7,108.47 -115.3,191.8 21.5,83.34 42.1,277.79 42.1,277.79 0,0 53.3,-17.17 108.9,83.93"
           style="fill:#933c47;fill-opacity:1;fill-rule:nonzero;stroke:none;stroke-width:2.45686412"
           id="path472"
           inkscape:connector-curvature="0" />
      </g>
      <g
         id="g474"
         transform="matrix(1.0160352,0,0,1.0160352,-4082.9347,323.08972)"
         style="stroke-width:2.45686412">
        <path
           d="m 16062.7,2820.34 c 62.7,13.4 184.4,-32.66 210.9,-77.79 26.4,-45 -12.3,-76.2 -37.5,-72.34 -25.4,4.27 -97,45.2 -180,61.93 -82.6,16.8 -43.3,77.47 6.6,88.2"
           style="fill:#e5e5e4;fill-opacity:1;fill-rule:nonzero;stroke:none;stroke-width:2.45686412"
           id="path476"
           inkscape:connector-curvature="0" />
      </g>
      <g
         id="g478"
         transform="matrix(1.1389866,0,0,1.1389866,-4082.9347,323.08972)"
         style="stroke-width:2.45686412">
        <path
           d="m 16076.3,2390 c 28.9,49.36 132.8,101.34 178.3,91.53 45.4,-9.99 42.8,-53.94 24.9,-68.16 -18,-14.27 -88,-36.51 -149.2,-80.75 -61,-44.37 -77.2,18.13 -54,57.38"
           style="fill:#e5e5e4;fill-opacity:1;fill-rule:nonzero;stroke:none;stroke-width:2.45686412"
           id="path480"
           inkscape:connector-curvature="0" />
      </g>
      <g
         id="g482"
         transform="matrix(1.12714,0,0,1.12714,-4082.9347,323.08972)"
         style="stroke-width:2.45686412">
        <path
           d="m 15965.3,4214.51 c 16,-328.42 58.9,-807.42 334.7,-1282.59 -55.8,-64.48 -74.4,-184.43 -293.1,-191.52 -214.2,255.34 -599,748.77 -640.6,858.93 -144.7,-139.6 -460.4,-669.75 -595.3,-875.09 -207.4,25.6 -270.9,136.05 -270.9,136.05 0,0 259.4,1055.97 387.2,1469.24 111.1,-70.25 390.5,-246.15 1078,-115.02"
           style="fill:#f14b1c;fill-opacity:1;fill-rule:nonzero;stroke:none;stroke-width:2.45686412"
           id="path484"
           inkscape:connector-curvature="0" />
      </g>
      <g
         id="g486"
         transform="matrix(1.1049095,0,0,1.1049095,-4082.9347,323.08972)"
         style="stroke-width:2.45686412">
        <path
           d="m 16164,4022.28 c 0,0 48,-124.45 136,-185.56 -15.2,-29.43 -45.9,-78.23 -45.9,-78.23 0,0 -168,120.28 -188.9,246.01 59.4,-1.04 98.8,17.78 98.8,17.78"
           style="fill:#c02023;fill-opacity:1;fill-rule:nonzero;stroke:none;stroke-width:2.45686412"
           id="path488"
           inkscape:connector-curvature="0" />
      </g>
      <g
         id="g490"
         transform="matrix(1.0375681,0,0,1.0375681,-4082.9347,323.08972)"
         style="stroke-width:2.45686412">
        <path
           d="m 16195.4,4376.31 c 0,0 -55.8,-130.7 -152,-192.32 15.3,-31.99 46.1,-85 46.1,-85 0,0 183.3,121.43 210.5,254.47 -63.4,1.18 -104.6,22.85 -104.6,22.85"
           style="fill:#c02023;fill-opacity:1;fill-rule:nonzero;stroke:none;stroke-width:2.45686412"
           id="path492"
           inkscape:connector-curvature="0" />
      </g>
      <g
         id="g494"
         transform="matrix(1.0299072,0,0,1.0299072,-4082.9347,323.08972)"
         style="stroke-width:2.45686412">
        <path
           d="m 15878,3297.78 c 0,0 224.8,-147.72 422,-157.19 -43.1,-70.89 -134.4,-159.15 -134.4,-159.15 0,0 -221.3,9.93 -315,119.3 20.4,137.32 27.4,197.04 27.4,197.04"
           style="fill:#c02023;fill-opacity:1;fill-rule:nonzero;stroke:none;stroke-width:2.45686412"
           id="path496"
           inkscape:connector-curvature="0" />
      </g>
      <g
         id="g498"
         transform="matrix(1.1312039,0,0,1.1312039,-4082.9347,323.08972)"
         style="stroke-width:2.45686412">
        <path
           d="m 15856.7,2806.85 c 0,0 264.3,58.21 391.6,185.27 21.4,-72.52 51.7,-153.47 51.7,-153.47 0,0 -196.3,-174.67 -327.5,-170.95 -79.9,97.96 -115.8,139.15 -115.8,139.15"
           style="fill:#c02023;fill-opacity:1;fill-rule:nonzero;stroke:none;stroke-width:2.45686412"
           id="path500"
           inkscape:connector-curvature="0" />
      </g>
      <g
         id="g502"
         transform="matrix(1.1044963,0,0,1.1044963,-4082.9347,323.08972)"
         style="stroke-width:2.45686412">
        <path
           d="m 16287.1,4354.46 12.9,-238.37 c 0,0 -618.7,-187.17 -1169.1,127.5 47.8,175.02 83.6,240.58 83.6,240.58 0,0 326.3,-279.71 1072.6,-129.71"
           style="fill:#c02023;fill-opacity:1;fill-rule:nonzero;stroke:none;stroke-width:2.45686412"
           id="path504"
           inkscape:connector-curvature="0" />
      </g>
      <g
         id="g506"
         transform="matrix(1.0690238,0,0,1.0690238,-4082.9347,323.08972)"
         style="stroke-width:2.45686412">
        <path
           d="m 16137.4,4333.81 c 4.5,-43.65 43.5,-75.46 87.2,-70.96 v 0 c 43.7,4.5 75.4,43.53 70.9,87.18 v 0 c -4.4,43.66 -43.5,75.47 -87.2,70.97 v 0 c -43.6,-4.5 -75.4,-43.53 -70.9,-87.19 v 0"
           style="fill:#f14b1c;fill-opacity:1;fill-rule:nonzero;stroke:none;stroke-width:2.45686412"
           id="path508"
           inkscape:connector-curvature="0" />
      </g>
      <g
         id="g510"
         transform="matrix(1.2158381,0,0,1.2158381,-4082.9347,323.08972)"
         style="stroke-width:2.45686412">
        <path
           d="m 16291.1,3731.4 c 8.9,67.18 -62.1,115.43 -116.2,145.9 -66.7,37.49 -164.6,77.1 -291.2,117.77 -232.9,74.87 -686.9,177.27 -1053.8,244.23 -5.3,-31.25 -11.4,-72.53 -13.5,-88.91 332.5,-61.78 794.4,-163.68 1013,-231.98 323.4,-101 367,-164.17 372.3,-175.15 -9.4,-10.75 -87.9,-76.71 -598,-75.15 -377.5,1.11 -868.5,39.39 -1382.7,107.63 -199.6,26.46 -396.1,56.6 -584,89.58 -385.2,67.58 -718.6,143.84 -964.2,220.56 -323.4,101.06 -367,164.23 -372.3,175.2 9.3,10.76 87.9,76.72 598,75.16 238.8,-0.73 659.7,-28.92 966.5,-57.55 7.3,18.49 13.9,60.11 18.8,88.63 -340.7,32.93 -759.2,59.11 -1018.5,58.39 -189.2,-0.56 -339.6,-10.64 -446.9,-30.03 -84.1,-15.15 -196.9,-44.35 -207.3,-122.73 -8.9,-67.19 62.1,-115.43 116.2,-145.9 66.7,-37.5 164.6,-77.11 291.2,-117.77 251.4,-80.84 598.3,-161.06 1003.1,-232.09 189.1,-33.15 386.8,-63.51 587.7,-90.14 534.9,-71.03 1042,-109.53 1427.6,-108.41 189.2,0.55 339.6,10.64 446.9,30.03 84.1,15.15 196.9,44.34 207.3,122.73"
           style="fill:#00a990;fill-opacity:1;fill-rule:nonzero;stroke:none;stroke-width:2.45686412"
           id="path512"
           inkscape:connector-curvature="0" />
      </g>
      <g
         id="g514"
         transform="matrix(0.9680049,0,0,0.9680049,-4082.9347,323.08972)"
         style="stroke-width:2.45686412">
        <path
           d="m 15446.6,5685.76 c 45.1,6.17 91.3,11.69 137.1,16.39 226.3,23.23 462.1,28.45 700.9,15.52 8.9,-0.47 15,-6.67 15.2,-15.39 0.2,-8.76 -6,-18.47 -16.8,-19.57 -1,-0.1 -2,-0.13 -3,-0.07 -234.6,12.68 -467.4,7.42 -692.2,-15.62 -46,-4.72 -92.2,-10.27 -137.5,-16.47 l -0.6,-0.07 c -9.5,-0.97 -17.2,5.33 -18.4,15.01 -1,8.67 4,18.73 15.3,20.27"
           style="fill:#f14b1c;fill-opacity:1;fill-rule:nonzero;stroke:none;stroke-width:2.45686412"
           id="path516"
           inkscape:connector-curvature="0" />
      </g>
      <g
         id="g518"
         transform="matrix(0.94895799,0,0,0.94895799,-4082.9347,323.08972)"
         style="stroke-width:2.45686412">
        <path
           d="m 16284.6,5933.3 c -0.6,-0.07 -1.2,-0.11 -1.9,-0.11 -132.9,-1.13 -263,-3.27 -394.5,-16.75 -17.5,-1.8 -35,-3.81 -51.9,-5.95 0,0 -0.4,-0.05 -0.5,-0.06 -9.7,-1.01 -17.7,5.51 -18.9,15.5 -1,8.85 4.2,19.05 15.7,20.51 17,2.14 34.6,4.16 52.2,5.97 132.2,13.56 268.1,15.76 396,16.84 11.5,0.11 18.2,-9.15 18.6,-17.92 0.6,-9.51 -5.7,-17.1 -14.8,-18.03"
           style="fill:#f14b1c;fill-opacity:1;fill-rule:nonzero;stroke:none;stroke-width:2.45686412"
           id="path520"
           inkscape:connector-curvature="0" />
      </g>
      <g
         id="g522"
         transform="matrix(1.2040794,0,0,1.2040794,-4082.9347,323.08972)"
         style="stroke-width:2.45686412">
        <path
           d="m 15613.7,3499.39 c 0.7,0.06 1.4,0.06 2.2,0.06 172.1,-6.75 342.7,-1.57 507.2,15.3 53.5,5.46 107.1,12.27 159.3,20.25 9.5,1.35 15.7,-5.68 16.6,-12.88 1,-7.59 -3.8,-13.95 -11.3,-15.07 -53,-8.1 -107.3,-15.02 -161.5,-20.54 -166.2,-17.1 -338.4,-22.27 -511.7,-15.52 -7.6,0.28 -13.1,5.85 -13.3,13.5 -0.2,7.71 5.1,14.12 12.5,14.9"
           style="fill:#f14b1c;fill-opacity:1;fill-rule:nonzero;stroke:none;stroke-width:2.45686412"
           id="path524"
           inkscape:connector-curvature="0" />
      </g>
      <g
         id="g526"
         transform="matrix(1.1890898,0,0,1.1890898,-4082.9347,323.08972)"
         style="stroke-width:2.45686412">
        <path
           d="m 15928.6,3424.75 c 91.7,2.16 189.1,5.07 284.4,14.87 23.8,2.45 47.1,5.3 69.2,8.43 l 0.7,0.05 c 9,0.92 15.2,-6.03 16.1,-13.27 1,-7.69 -3.9,-14.01 -11.5,-15.09 -22.7,-3.25 -46.6,-6.15 -71,-8.66 -97.4,-10.03 -196,-12.99 -288.6,-15.15 -7.6,-0.17 -13.3,5.07 -13.8,12.64 -0.4,7.58 4.8,15.89 14.5,16.18"
           style="fill:#f14b1c;fill-opacity:1;fill-rule:nonzero;stroke:none;stroke-width:2.45686412"
           id="path528"
           inkscape:connector-curvature="0" />
      </g>
      <g
         id="g530"
         transform="matrix(0.99125798,0,0,0.99125798,-4082.9347,323.08972)"
         style="stroke-width:2.45686412">
        <path
           d="m 16272.3,5842.67 c 27.7,360.74 -239.1,604.82 -364.5,505.97 -127.1,-100.03 128.4,-163.33 223.1,-291.97 98,-132.99 141.4,-214 141.4,-214"
           style="fill:#ecb50e;fill-opacity:1;fill-rule:nonzero;stroke:none;stroke-width:2.45686412"
           id="path532"
           inkscape:connector-curvature="0" />
      </g>
      <g
         id="g534"
         transform="matrix(0.98182266,0,0,0.98182266,-4082.9347,323.08972)"
         style="stroke-width:2.45686412">
        <path
           d="m 16300,5825.06 c -96.4,206.38 -318.3,257.61 -356.5,164.56 -38.7,-94.18 121,-49.81 212.7,-91.01 94.9,-42.6 143.8,-73.55 143.8,-73.55"
           style="fill:#ecb50e;fill-opacity:1;fill-rule:nonzero;stroke:none;stroke-width:2.45686412"
           id="path536"
           inkscape:connector-curvature="0" />
      </g>
      <g
         id="g538"
         transform="matrix(1.212729,0,0,1.212729,-4082.9347,323.08972)"
         style="stroke-width:2.45686412">
        <path
           d="m 15831.6,4325.19 c 47,291.95 305.8,434.76 386.6,332.17 81.8,-103.83 -133.3,-105.18 -233.3,-189.24 -103.3,-86.91 -153.3,-142.93 -153.3,-142.93"
           style="fill:#ecb50e;fill-opacity:1;fill-rule:nonzero;stroke:none;stroke-width:2.45686412"
           id="path540"
           inkscape:connector-curvature="0" />
      </g>
      <g
         id="g542"
         transform="matrix(1.2085023,0,0,1.2085023,-4082.9347,323.08972)"
         style="stroke-width:2.45686412">
        <path
           d="m 15974.4,4257.52 c 115.5,144.6 300.5,142.81 313,62.04 12.6,-81.71 -105,-16.3 -185.4,-31.33 -83,-15.58 -127.6,-30.71 -127.6,-30.71"
           style="fill:#ecb50e;fill-opacity:1;fill-rule:nonzero;stroke:none;stroke-width:2.45686412"
           id="path544"
           inkscape:connector-curvature="0" />
      </g>
      <g
         id="g546"
         transform="matrix(1.2050344,0,0,1.2050344,-4082.9347,323.08972)"
         style="stroke-width:2.45686412">
        <path
           d="m 15974,5651.59 c 0,0 108.7,181.84 140.3,431.45 5.2,-45.2 80.5,-83.05 80.5,-83.05 0,0 105.2,380.63 -12,675.9 -15.7,39.45 70.7,151.16 14.8,231.54 -10.6,-53.4 -70.2,-146.25 -111.4,-67.44 -41.1,78.8 -254,314.88 -451.7,321.16 56.9,68.33 192.7,38.9 192.7,38.9 0,0 -99,94.92 -245.7,21.33 -17.4,115.96 -150.5,169.9 -150.5,169.9 0,0 47.1,-69.55 -7.2,-113.35 -94.1,94.4 -486,324.82 -934.6,119.83 18.7,82.33 56.7,113.01 56.7,113.01 0,0 -152.9,-38.2 -149.7,-147.69 -66.2,76.54 -171.1,23.28 -171.1,23.28 0,0 145.5,-30.46 80.4,-83.02 -260.1,-66.41 -480,-221.43 -565.8,-559.47 27.7,26.78 66.9,22.56 66.9,22.56 0,0 -81.8,-254.15 -56.9,-485 224.9,-123.25 2224.3,-629.84 2224.3,-629.84"
           style="fill:#933c47;fill-opacity:1;fill-rule:nonzero;stroke:none;stroke-width:2.45686412"
           id="path548"
           inkscape:connector-curvature="0" />
      </g>
      <g
         id="g550"
         transform="matrix(1.1765182,0,0,1.1765182,-4082.9347,323.08972)"
         style="stroke-width:2.45686412">
        <path
           d="m 16136.8,5707.61 c -163.1,-554.77 -704.6,-796.76 -1238.8,-639.64 -534.2,157.09 -858.6,653.71 -695.3,1208.55 163.1,554.73 722.4,857.15 1256.6,700.03 534.2,-157.09 840.7,-714.21 677.5,-1268.94"
           style="fill:#fabd99;fill-opacity:1;fill-rule:nonzero;stroke:none;stroke-width:2.45686412"
           id="path552"
           inkscape:connector-curvature="0" />
      </g>
      <g
         id="g554"
         transform="matrix(1.0733588,0,0,1.0733588,-4082.9347,323.08972)"
         style="stroke-width:2.45686412">
        <path
           d="m 16173.2,7133.7 c 124.1,13.47 126.8,-120.84 48.2,-107.9 -84.3,14.07 -159.9,-4.81 -169.1,5.1 -20.2,21.82 51.1,95.28 120.9,102.8"
           style="fill:#732c33;fill-opacity:1;fill-rule:nonzero;stroke:none;stroke-width:2.45686412"
           id="path556"
           inkscape:connector-curvature="0" />
      </g>
      <g
         id="g558"
         transform="matrix(1.1466135,0,0,1.1466135,-4082.9347,323.08972)"
         style="stroke-width:2.45686412">
        <path
           d="m 16233.4,6352.96 c -88.9,75.77 -161.7,-26.73 -94.1,-58.13 72.7,-33.49 121.2,-87.95 133.5,-85.11 27.2,6.23 10.7,100.66 -39.4,143.24"
           style="fill:#732c33;fill-opacity:1;fill-rule:nonzero;stroke:none;stroke-width:2.45686412"
           id="path560"
           inkscape:connector-curvature="0" />
      </g>
      <g
         id="g562"
         transform="matrix(1.0997143,0,0,1.0997143,-4082.9347,323.08972)"
         style="stroke-width:2.45686412">
        <path
           d="m 16286.3,6214.59 c 1.3,-0.38 2.7,-0.5 4.1,-0.29 5.7,0.76 9.6,5.92 8.9,11.58 -7.4,54.23 -39,95.52 -82.6,107.79 -43.6,12.27 -92.1,-6.49 -126.5,-48.95 -3.6,-4.41 -3,-10.91 1.4,-14.5 4.4,-3.58 10.9,-2.9 14.5,1.51 29.3,35.98 69.5,52.12 105.1,42.1 35.5,-10.01 61.5,-44.76 67.6,-90.72 0.6,-4.17 3.6,-7.46 7.5,-8.52"
           style="fill:#ce6748;fill-opacity:1;fill-rule:nonzero;stroke:none;stroke-width:2.45686412"
           id="path564"
           inkscape:connector-curvature="0" />
      </g>
      <g
         id="g566"
         transform="matrix(1.1522491,0,0,1.1522491,-4082.9347,323.08972)"
         style="stroke-width:2.45686412">
        <path
           d="m 16261.4,5582.75 c -38.7,-92.5 -152.4,-124.95 -277.2,-86.25 -120.4,37.33 -207.7,170.07 -154.6,249.77 50.5,75.83 104.4,23.09 259.3,23.06 149.8,-0.02 211.1,-94.18 172.5,-186.58"
           style="fill:#f8a191;fill-opacity:1;fill-rule:nonzero;stroke:none;stroke-width:2.45686412"
           id="path568"
           inkscape:connector-curvature="0" />
      </g>
      <g
         id="g570"
         transform="matrix(1.1451167,0,0,1.1451167,-4082.9347,323.08972)"
         style="stroke-width:2.45686412">
        <path
           d="m 16296.5,5696.96 c -3.5,-8.48 -15.3,-11.61 -26.3,-7 -11,4.63 -17,15.14 -13.5,23.64 3.6,8.37 15.3,11.58 26.3,7.05 11,-4.66 17,-15.23 13.5,-23.69"
           style="fill:#fbccc0;fill-opacity:1;fill-rule:nonzero;stroke:none;stroke-width:2.45686412"
           id="path572"
           inkscape:connector-curvature="0" />
      </g>
      <g
         id="g574"
         transform="matrix(1.0612277,0,0,1.0612277,-4082.9347,323.08972)"
         style="stroke-width:2.45686412">
        <path
           d="m 15808.2,6612.69 c -19.2,-107.21 65.6,-203.66 202.2,-241.7 131.8,-36.57 289.6,33.18 288,137.15 -1.5,98.95 -81.8,82.47 -223.2,173.54 -136.8,88.03 -248.1,38.02 -267,-68.99"
           style="fill:#f8a191;fill-opacity:1;fill-rule:nonzero;stroke:none;stroke-width:2.45686412"
           id="path576"
           inkscape:connector-curvature="0" />
      </g>
      <g
         id="g578"
         transform="matrix(1.0392207,0,0,1.0392207,-4082.9347,323.08972)"
         style="stroke-width:2.45686412">
        <path
           d="m 16251.5,6786.83 c -1.8,-10 7.2,-19.92 20.1,-22.23 13,-2.21 24.9,3.96 26.6,13.89 1.8,9.88 -7.2,19.87 -20.1,22.21 -12.9,2.23 -24.8,-3.97 -26.6,-13.87"
           style="fill:#fbccc0;fill-opacity:1;fill-rule:nonzero;stroke:none;stroke-width:2.45686412"
           id="path580"
           inkscape:connector-curvature="0" />
      </g>
      <g
         id="g582"
         transform="matrix(1.2022031,0,0,1.2022031,-4082.9347,323.08972)"
         style="stroke-width:2.45686412">
        <path
           d="m 14704.3,7377.13 c 675.2,100.19 972.8,-305.79 972.8,-305.79 0,0 250.1,3.48 422.7,-354.07 200.2,-414.98 26.7,-1049.4 -215.2,-1221.49 -218.4,146 -78.9,643.95 -78.9,643.95 -95.3,-22.94 -356.1,18.22 -429.8,72.5 161.3,82.21 171.8,253.23 171.8,253.23 0,0 -232.9,-266.59 -429.7,-185.82 129.1,92.25 142.7,342.72 142.7,342.72 0,0 -299.6,-259.66 -173.5,-505.2 -264.7,127.79 -246,550.06 -246,550.06 0,0 -141.6,-84.26 -70.2,-284.18 -170.2,16.7 -178,401.64 -178,401.64 0,0 -157,-186.81 -21.7,-347.15 -190.1,20.37 -271.8,62.26 -367.6,158.69 -57,-242.97 -221.9,-401.36 -301.1,-475.91 -268.1,483.79 155.6,1160.89 801.7,1256.82"
           style="fill:#933c47;fill-opacity:1;fill-rule:nonzero;stroke:none;stroke-width:2.45686412"
           id="path584"
           inkscape:connector-curvature="0" />
      </g>
      <g
         id="g586"
         transform="matrix(1.1897807,0,0,1.1897807,-4082.9347,323.08972)"
         style="stroke-width:2.45686412">
        <path
           d="m 16300,6159.97 c 0,0 -37,-253.31 -170.6,-453.38 -81.7,-24.24 -164,7.64 -164,7.64 0,0 -23.5,272.97 36.8,467.68 18.6,-288.9 143.6,-292.38 297.8,-21.94"
           style="fill:#732c33;fill-opacity:1;fill-rule:nonzero;stroke:none;stroke-width:2.45686412"
           id="path588"
           inkscape:connector-curvature="0" />
      </g>
      <g
         id="g590"
         transform="matrix(1.0433863,0,0,1.0433863,-4082.9347,323.08972)"
         style="stroke-width:2.45686412">
        <path
           d="m 15992.5,7801.66 c 0,0 -106.2,-271.84 -86.9,-545.46 67.3,-70.15 166.9,-85.03 166.9,-85.03 0,0 177.4,257.18 227.5,484.21 -181.4,-275.79 -307.3,-208.73 -307.5,146.28"
           style="fill:#732c33;fill-opacity:1;fill-rule:nonzero;stroke:none;stroke-width:2.45686412"
           id="path592"
           inkscape:connector-curvature="0" />
      </g>
      <g
         id="g594"
         transform="matrix(1.1934924,0,0,1.1934924,-4082.9347,323.08972)"
         style="stroke-width:2.45686412">
        <path
           d="m 15673.6,7083.41 c 20.1,61.41 152.9,128.86 362.4,-123.78 209.5,-252.63 218.8,-471.29 157.4,-418.04 -41.2,35.63 -200.5,338.73 -200.5,338.73 0,0 307.1,-626.23 139.2,-565.31 -168,60.93 -234.1,580.83 -234.1,580.83 0,0 31.7,-434.01 -89.4,-340.59 -62,47.88 -198.1,335.32 -135,528.16 z m -94.1,-17.79 c 51.6,62.3 34.3,248.04 -373.2,301.22 -407.4,53.18 -645.2,-83.03 -547.8,-112.57 65.3,-19.77 492.7,13.89 492.7,13.89 0,0 -868.4,-92.94 -691.7,-230.11 176.7,-137.14 771.4,140.02 771.4,140.02 0,0 -480.8,-256.29 -300.9,-322.1 92.1,-33.74 487.4,14.06 649.5,209.65"
           style="fill:#a9525f;fill-opacity:1;fill-rule:nonzero;stroke:none;stroke-width:2.45686412"
           id="path596"
           inkscape:connector-curvature="0" />
      </g>
      <g
         id="g598"
         transform="matrix(1.1853914,0,0,1.1853914,-4082.9347,323.08972)"
         style="stroke-width:2.45686412">
        <path
           d="m 15953.7,5721.84 c 0,0 51.5,127.16 193.1,110.24 149.4,-17.94 153.2,-233.46 40.4,-345.11 -112.7,-111.4 -279.7,-92.13 -301.8,23.99 l 68.3,210.88"
           style="fill:#fabd99;fill-opacity:1;fill-rule:nonzero;stroke:none;stroke-width:2.45686412"
           id="path600"
           inkscape:connector-curvature="0" />
      </g>
      <g
         id="g602"
         transform="matrix(1.1751703,0,0,1.1751703,-4082.9347,323.08972)"
         style="stroke-width:2.45686412">
        <path
           d="m 16300,5817.4 c -89.7,43.11 -217,-132.45 -114.8,-265.52 -18.5,150.98 43.3,185.81 94.3,103.26 10.9,45.06 -5.3,79.22 -63.8,88.51 19.9,58.22 84.3,73.75 84.3,73.75"
           style="fill:#de8359;fill-opacity:1;fill-rule:nonzero;stroke:none;stroke-width:2.45686412"
           id="path604"
           inkscape:connector-curvature="0" />
      </g>
      <g
         id="g606"
         transform="matrix(1.0309097,0,0,1.0309097,-4082.9347,323.08972)"
         style="stroke-width:2.45686412">
        <path
           d="m 16270.6,7189.14 c 0,0 29.4,154.91 -118.1,226.74 -155.6,75.63 -293.4,-130.41 -253.9,-308.47 39.6,-177.87 213,-263.18 306.7,-164.7 l 65.3,246.43"
           style="fill:#fabd99;fill-opacity:1;fill-rule:nonzero;stroke:none;stroke-width:2.45686412"
           id="path608"
           inkscape:connector-curvature="0" />
      </g>
      <g
         id="g610"
         transform="matrix(1.0262428,0,0,1.0262428,-4082.9347,323.08972)"
         style="stroke-width:2.45686412">
        <path
           d="m 16173.1,7394.6 c 113.2,-14.13 126.9,-262.08 -53.9,-326.83 111.3,133.87 73.3,205.82 -26.9,157.94 17.4,50.14 54.2,72.94 116.2,45.71 16.9,68.34 -35.4,123.18 -35.4,123.18"
           style="fill:#de8359;fill-opacity:1;fill-rule:nonzero;stroke:none;stroke-width:2.45686412"
           id="path612"
           inkscape:connector-curvature="0" />
      </g>
      <g
         id="g614"
         transform="matrix(1.1437077,0,0,1.1437077,-4082.9347,323.08972)"
         style="stroke-width:2.45686412">
        <path
           d="m 16128,6073.37 c 128.4,-40.01 137.8,-207.35 139.9,-200.4 32.1,102.85 -24.6,212.31 -126.3,244 -101.8,31.71 -210.6,-26.15 -242.7,-128.97 -2.2,-6.94 91.7,128.2 229.1,85.37"
           style="fill:#69282e;fill-opacity:1;fill-rule:nonzero;stroke:none;stroke-width:2.45686412"
           id="path616"
           inkscape:connector-curvature="0" />
      </g>
      <g
         id="g618"
         transform="matrix(1.0744493,0,0,1.0744493,-4082.9347,323.08972)"
         style="stroke-width:2.45686412">
        <path
           d="m 16116.9,6790.7 c 136.6,-42.6 146.7,-220.73 149,-213.35 34.1,109.48 -26.3,225.99 -134.5,259.75 -108.3,33.75 -224.2,-27.85 -258.3,-137.3 -2.3,-7.4 97.5,136.46 243.8,90.9"
           style="fill:#69282e;fill-opacity:1;fill-rule:nonzero;stroke:none;stroke-width:2.45686412"
           id="path620"
           inkscape:connector-curvature="0" />
      </g>
      <g
         id="g622"
         transform="matrix(1.1082894,0,0,1.1082894,-4082.9347,323.08972)"
         style="stroke-width:2.45686412">
        <path
           d="m 15709.7,6078.58 c 0,0 231.7,-135.24 590.3,-186.06 -2.1,-34.41 -110.6,-371.67 -413.3,-278.53 -304.9,94.08 -177,464.59 -177,464.59"
           style="fill:#69282e;fill-opacity:1;fill-rule:nonzero;stroke:none;stroke-width:2.45686412"
           id="path624"
           inkscape:connector-curvature="0" />
      </g>
      <g
         id="g626"
         transform="matrix(1.103514,0,0,1.103514,-4082.9347,323.08972)"
         style="stroke-width:2.45686412">
        <path
           d="m 15850.6,6069.78 c 52.4,-23.41 131.4,-55.24 230.9,-85.44 0.2,-0.07 0.4,-0.13 0.7,-0.22 64.5,-19.6 137.8,-38.46 217.8,-53.8 -9.9,-35.63 -39.4,-110.57 -258.4,-41.61 -216.9,68.43 -198.6,149.99 -191,181.07"
           style="fill:#ffffff;fill-opacity:1;fill-rule:nonzero;stroke:none;stroke-width:2.45686412"
           id="path628"
           inkscape:connector-curvature="0" />
      </g>
      <g
         id="g630"
         transform="matrix(1.0958465,0,0,1.0958465,-4082.9347,323.08972)"
         style="stroke-width:2.45686412">
        <path
           d="m 16110.7,5793.25 c -88.4,74.09 -178.7,56.36 -210.4,12.66 30.6,-54.76 82,-102.05 166.7,-128.18 95.3,-29.26 171.6,-16.44 231.5,16.13 1.5,39.71 -95,112.5 -187.8,99.39"
           style="fill:#ee5b63;fill-opacity:1;fill-rule:nonzero;stroke:none;stroke-width:2.45686412"
           id="path632"
           inkscape:connector-curvature="0" />
      </g>
    </g>
  </g>
</svg>
