<?xml version="1.0" encoding="UTF-8" standalone="no"?>
<!-- Created with Inkscape (http://www.inkscape.org/) -->

<svg
   xmlns:dc="http://purl.org/dc/elements/1.1/"
   xmlns:cc="http://creativecommons.org/ns#"
   xmlns:rdf="http://www.w3.org/1999/02/22-rdf-syntax-ns#"
   xmlns:svg="http://www.w3.org/2000/svg"
   xmlns="http://www.w3.org/2000/svg"
   xmlns:sodipodi="http://sodipodi.sourceforge.net/DTD/sodipodi-0.dtd"
   xmlns:inkscape="http://www.inkscape.org/namespaces/inkscape"
   width="1000"
   height="1000"
   viewBox="0 0 264.58333 264.58334"
   version="1.1"
   id="svg2383"
   inkscape:version="0.92.5 (2060ec1f9f, 2020-04-08)"
   sodipodi:docname="open.svg"
   enable-background="new">
  <defs
     id="defs2377" />
  <sodipodi:namedview
     id="base"
     pagecolor="#ffffff"
     bordercolor="#666666"
     borderopacity="1.0"
     inkscape:pageopacity="0.0"
     inkscape:pageshadow="2"
     inkscape:zoom="0.70710678"
     inkscape:cx="406.18131"
     inkscape:cy="508.61429"
     inkscape:document-units="px"
     inkscape:current-layer="layer1"
     showgrid="false"
     units="px"
     inkscape:window-width="1920"
     inkscape:window-height="1031"
     inkscape:window-x="0"
     inkscape:window-y="25"
     inkscape:window-maximized="1"
     showguides="true"
     inkscape:lockguides="true"
     inkscape:object-nodes="false"
     inkscape:snap-nodes="false"
     inkscape:snap-others="false" />
  <metadata
     id="metadata2380">
    <rdf:RDF>
      <cc:Work
         rdf:about="">
        <dc:format>image/svg+xml</dc:format>
        <dc:type
           rdf:resource="http://purl.org/dc/dcmitype/StillImage" />
        <dc:title></dc:title>
      </cc:Work>
    </rdf:RDF>
  </metadata>
  <g
     inkscape:groupmode="layer"
     id="layer3"
     inkscape:label="Layer 2" />
  <g
     inkscape:groupmode="layer"
     id="layer2"
     inkscape:label="Layer 3" />
  <g
     inkscape:label="Layer 1"
     inkscape:groupmode="layer"
     id="layer1"
     transform="translate(0,-32.41665)">
    <text
       xml:space="preserve"
       style="font-style:normal;font-variant:normal;font-weight:bold;font-stretch:normal;font-size:10.58333302px;line-height:1.25;font-family:sans-serif;-inkscape-font-specification:'sans-serif Bold';letter-spacing:0px;word-spacing:0px;fill:#000000;fill-opacity:1;stroke:none;stroke-width:0.26458332"
       x="150.05655"
       y="89.869026"
       id="text8811" />
    <text
       xml:space="preserve"
       style="font-style:normal;font-variant:normal;font-weight:bold;font-stretch:normal;font-size:10.58333302px;line-height:1.25;font-family:sans-serif;-inkscape-font-specification:'sans-serif Bold';letter-spacing:0px;word-spacing:0px;fill:#000000;fill-opacity:1;stroke:none;stroke-width:0.26458332"
       x="160.63989"
       y="97.806526"
       id="text8815" />
    <text
       xml:space="preserve"
       style="font-style:normal;font-variant:normal;font-weight:bold;font-stretch:normal;font-size:10.58333302px;line-height:1.25;font-family:sans-serif;-inkscape-font-specification:'sans-serif Bold';letter-spacing:0px;word-spacing:0px;fill:#000000;fill-opacity:1;stroke:none;stroke-width:0.26458332"
       x="156.86011"
       y="88.7351"
       id="text8819" />
    <flowRoot
       xml:space="preserve"
       id="flowRoot8821"
       style="font-style:normal;font-variant:normal;font-weight:bold;font-stretch:normal;font-size:40px;line-height:1.25;font-family:sans-serif;-inkscape-font-specification:'sans-serif Bold';letter-spacing:0px;word-spacing:0px;fill:#000000;fill-opacity:1;stroke:none"><flowRegion
         id="flowRegion8823"
         style="font-style:normal;font-variant:normal;font-weight:bold;font-stretch:normal;font-family:sans-serif;-inkscape-font-specification:'sans-serif Bold'" /><flowPara
         id="flowPara8827" /></flowRoot>    <flowRoot
       xml:space="preserve"
       id="flowRoot8829"
       style="font-style:normal;font-variant:normal;font-weight:bold;font-stretch:normal;font-size:40px;line-height:1.25;font-family:sans-serif;-inkscape-font-specification:'sans-serif Bold';letter-spacing:0px;word-spacing:0px;fill:#000000;fill-opacity:1;stroke:none"><flowRegion
         id="flowRegion8831"
         style="font-style:normal;font-variant:normal;font-weight:bold;font-stretch:normal;font-family:sans-serif;-inkscape-font-specification:'sans-serif Bold'" /><flowPara
         id="flowPara8835" /></flowRoot>    <flowRoot
       xml:space="preserve"
       id="flowRoot8837"
       style="font-style:normal;font-variant:normal;font-weight:bold;font-stretch:normal;font-size:40px;line-height:1.25;font-family:sans-serif;-inkscape-font-specification:'sans-serif Bold';letter-spacing:0px;word-spacing:0px;fill:#000000;fill-opacity:1;stroke:none"><flowRegion
         id="flowRegion8839"
         style="font-style:normal;font-variant:normal;font-weight:bold;font-stretch:normal;font-family:sans-serif;-inkscape-font-specification:'sans-serif Bold'" /><flowPara
         id="flowPara8843" /></flowRoot>    <text
       xml:space="preserve"
       style="font-style:normal;font-variant:normal;font-weight:bold;font-stretch:normal;font-size:10.58333302px;line-height:1.25;font-family:sans-serif;-inkscape-font-specification:'sans-serif Bold';letter-spacing:0px;word-spacing:0px;fill:#000000;fill-opacity:1;stroke:none;stroke-width:0.26458332"
       x="209.39882"
       y="107.25594"
       id="text8847" />
    <flowRoot
       xml:space="preserve"
       id="flowRoot8849"
       style="font-style:normal;font-variant:normal;font-weight:bold;font-stretch:normal;font-size:40px;line-height:1.25;font-family:sans-serif;-inkscape-font-specification:'sans-serif Bold';letter-spacing:0px;word-spacing:0px;fill:#000000;fill-opacity:1;stroke:none"><flowRegion
         id="flowRegion8851"
         style="font-style:normal;font-variant:normal;font-weight:bold;font-stretch:normal;font-family:sans-serif;-inkscape-font-specification:'sans-serif Bold'" /><flowPara
         id="flowPara8855" /></flowRoot>    <flowRoot
       xml:space="preserve"
       id="flowRoot8857"
       style="font-style:normal;font-variant:normal;font-weight:bold;font-stretch:normal;font-size:40px;line-height:1.25;font-family:sans-serif;-inkscape-font-specification:'sans-serif Bold';letter-spacing:0px;word-spacing:0px;fill:#000000;fill-opacity:1;stroke:none"><flowRegion
         id="flowRegion8859"
         style="font-style:normal;font-variant:normal;font-weight:bold;font-stretch:normal;font-family:sans-serif;-inkscape-font-specification:'sans-serif Bold'" /><flowPara
         id="flowPara8863" /></flowRoot>    <flowRoot
       xml:space="preserve"
       id="flowRoot8865"
       style="font-style:normal;font-variant:normal;font-weight:bold;font-stretch:normal;font-size:40px;line-height:1.25;font-family:sans-serif;-inkscape-font-specification:'sans-serif Bold';letter-spacing:0px;word-spacing:0px;fill:#000000;fill-opacity:1;stroke:none"><flowRegion
         id="flowRegion8867"
         style="font-style:normal;font-variant:normal;font-weight:bold;font-stretch:normal;font-family:sans-serif;-inkscape-font-specification:'sans-serif Bold'" /><flowPara
         id="flowPara8871" /></flowRoot>    <flowRoot
       xml:space="preserve"
       id="flowRoot8873"
       style="font-style:normal;font-variant:normal;font-weight:bold;font-stretch:normal;font-size:40px;line-height:1.25;font-family:sans-serif;-inkscape-font-specification:'sans-serif Bold';letter-spacing:0px;word-spacing:0px;fill:#000000;fill-opacity:1;stroke:none"><flowRegion
         id="flowRegion8875"
         style="font-style:normal;font-variant:normal;font-weight:bold;font-stretch:normal;font-family:sans-serif;-inkscape-font-specification:'sans-serif Bold'" /><flowPara
         id="flowPara8879" /></flowRoot>    <text
       xml:space="preserve"
       style="font-style:normal;font-weight:normal;font-size:10.58333302px;line-height:1.25;font-family:sans-serif;letter-spacing:0px;word-spacing:0px;fill:#000000;fill-opacity:1;stroke:none;stroke-width:0.26458332"
       x="101.02788"
       y="69.125984"
       id="text977"><tspan
         sodipodi:role="line"
         id="tspan975"
         x="101.02788"
         y="78.489754"
         style="stroke-width:0.26458332" /><tspan
         sodipodi:role="line"
         x="101.02788"
         y="91.718918"
         style="stroke-width:0.26458332"
         id="tspan979" /><tspan
         sodipodi:role="line"
         x="101.02788"
         y="104.94809"
         style="stroke-width:0.26458332"
         id="tspan981" /><tspan
         sodipodi:role="line"
         x="101.02788"
         y="118.17725"
         style="stroke-width:0.26458332"
         id="tspan983" /><tspan
         sodipodi:role="line"
         x="101.02788"
         y="131.40642"
         style="stroke-width:0.26458332"
         id="tspan985" /><tspan
         sodipodi:role="line"
         x="101.02788"
         y="144.63559"
         style="stroke-width:0.26458332"
         id="tspan987" /><tspan
         sodipodi:role="line"
         x="101.02788"
         y="157.86475"
         style="stroke-width:0.26458332"
         id="tspan989" /><tspan
         sodipodi:role="line"
         x="101.02788"
         y="171.09392"
         style="stroke-width:0.26458332"
         id="tspan991" /><tspan
         sodipodi:role="line"
         x="101.02788"
         y="184.32309"
         style="stroke-width:0.26458332"
         id="tspan993" /><tspan
         sodipodi:role="line"
         x="101.02788"
         y="197.55225"
         style="stroke-width:0.26458332"
         id="tspan995" /><tspan
         sodipodi:role="line"
         x="101.02788"
         y="210.78142"
         style="stroke-width:0.26458332"
         id="tspan997" /><tspan
         sodipodi:role="line"
         x="101.02788"
         y="224.01059"
         style="stroke-width:0.26458332"
         id="tspan999" /><tspan
         sodipodi:role="line"
         x="101.02788"
         y="237.23975"
         style="stroke-width:0.26458332"
         id="tspan1001" /><tspan
         sodipodi:role="line"
         x="101.02788"
         y="250.46892"
         style="stroke-width:0.26458332"
         id="tspan1003" /><tspan
         sodipodi:role="line"
         x="101.02788"
         y="263.69809"
         style="stroke-width:0.26458332"
         id="tspan1005" /><tspan
         sodipodi:role="line"
         x="101.02788"
         y="276.92725"
         style="stroke-width:0.26458332"
         id="tspan1007" /><tspan
         sodipodi:role="line"
         x="101.02788"
         y="290.1564"
         style="stroke-width:0.26458332"
         id="tspan1009" /><tspan
         sodipodi:role="line"
         x="101.02788"
         y="303.38559"
         style="stroke-width:0.26458332"
         id="tspan1011" /><tspan
         sodipodi:role="line"
         x="101.02788"
         y="316.61475"
         style="stroke-width:0.26458332"
         id="tspan1013" /><tspan
         sodipodi:role="line"
         x="101.02788"
         y="329.8439"
         style="stroke-width:0.26458332"
         id="tspan1015" /><tspan
         sodipodi:role="line"
         x="101.02788"
         y="343.07309"
         style="stroke-width:0.26458332"
         id="tspan1017" /><tspan
         sodipodi:role="line"
         x="101.02788"
         y="356.30225"
         style="stroke-width:0.26458332"
         id="tspan1019" /><tspan
         sodipodi:role="line"
         x="101.02788"
         y="369.5314"
         style="stroke-width:0.26458332"
         id="tspan1021" /><tspan
         sodipodi:role="line"
         x="101.02788"
         y="382.76059"
         style="stroke-width:0.26458332"
         id="tspan1023" /></text>
    <g
       id="g88"
       transform="matrix(0.01878847,0,0,-0.02005672,36.912178,375.26325)"
       style="stroke-width:1.85462236">
      <path
         d="M 9148.94,5174.51 V 16300 H 2735.26 l 15.32,-11125.49 h 6398.36"
         style="fill:#2c2a2a;fill-opacity:1;fill-rule:nonzero;stroke:none;stroke-width:1.85462236"
         id="path90"
         inkscape:connector-curvature="0" />
    </g>
    <g
       id="g92"
       transform="matrix(0.01891458,0,0,-0.02019135,36.912178,375.26325)"
       style="stroke-width:1.85462236">
      <path
         d="M 8910.13,16300 H 2928.05 2519.51 l 20.44,-11169.53 h 418.61 l 25.07,10844.93 h 5870.9 l 25.06,-10844.93 h 418.62 L 9318.67,16300 h -408.54"
         style="fill:#af711d;fill-opacity:1;fill-rule:nonzero;stroke:none;stroke-width:1.85462236"
         id="path94"
         inkscape:connector-curvature="0" />
    </g>
    <g
       id="g96"
       transform="matrix(0.01891458,0,0,-0.02019135,36.912178,375.26325)"
       style="stroke-width:1.85462236">
      <path
         d="M 8910.13,16300 H 2928.05 2519.51 l 20.44,-2659 h 418.61 l 25.07,2334.4 h 5883.42 v -2370.8 l 451.62,170 V 16300 h -408.54"
         style="fill:#9d661d;fill-opacity:1;fill-rule:nonzero;stroke:none;stroke-width:1.85462236"
         id="path98"
         inkscape:connector-curvature="0" />
    </g>
    <g
       id="g100"
       transform="matrix(0.01887297,0,0,-0.02014693,36.912178,375.26325)"
       style="stroke-width:1.85462236">
      <path
         d="m 4033.13,16300 h 237.49 v -275.9 H 3926.7 c 0,0 433.98,56.8 106.43,275.9"
         style="fill:#8f561b;fill-opacity:1;fill-rule:nonzero;stroke:none;stroke-width:1.85462236"
         id="path102"
         inkscape:connector-curvature="0" />
    </g>
    <g
       id="g104"
       transform="matrix(0.01885825,0,0,-0.02013121,36.912178,375.26325)"
       style="stroke-width:1.85462236">
      <path
         d="m 4559.71,16300 v -276.9 H 8881 l 25.14,-10877.29 h 81.51 V 16082.4 L 7398.97,16300 H 4559.71"
         style="fill:#844e19;fill-opacity:1;fill-rule:nonzero;stroke:none;stroke-width:1.85462236"
         id="path106"
         inkscape:connector-curvature="0" />
    </g>
    <path
       d="m 106.28963,183.8405 c 0,0 10.58242,6.83927 31.51277,-5.67383 1.29719,1.19687 3.18553,0.73306 5.55182,-0.42648 1.92129,-0.26137 3.17945,-0.79398 2.93516,-1.55849 -0.25702,-0.79201 -2.36279,-0.31444 -2.89743,-0.27906 0.0731,-0.0472 2.59217,-0.92566 3.13326,-1.16739 1.2576,-0.55225 0.92345,-1.90045 -0.23768,-1.63711 -0.97648,0.22209 -3.17653,0.88833 -3.29398,0.92173 0.0954,-0.0707 2.56861,-1.38554 3.03016,-1.61941 1.35702,-0.69375 0.82313,-2.39767 -0.74543,-1.63709 -1.06375,0.51688 -2.90202,1.49756 -3.08484,1.53293 0.0376,-0.0904 1.22667,-1.16739 1.88742,-1.86311 1.08952,-1.1379 0.32697,-2.28761 -1.10627,-1.22635 -1.13242,0.83329 -3.92877,2.69837 -3.92877,2.69837 0,0 0.15852,-2.40947 -1.08915,-2.48414 -1.25466,-0.0708 -1.40654,4.14678 -1.40654,4.14678 0,0 -12.82777,11.1708 -28.97325,5.11373 -3.99836,0.77433 -1.28725,5.15892 -1.28725,5.15892"
       style="fill:#fabd99;fill-opacity:1;fill-rule:nonzero;stroke:none;stroke-width:0.03527778"
       id="path108"
       inkscape:connector-curvature="0" />
    <path
       d="m 139.08504,175.04969 c -0.007,-0.006 -0.0116,-0.0118 -0.0151,-0.0176 -0.0503,-0.0668 -0.0389,-0.16312 0.0217,-0.21619 1.03651,-0.86473 0.55066,-2.18345 0.10182,-2.82807 -0.0506,-0.0649 -0.0341,-0.16116 0.0286,-0.21226 0.0606,-0.0472 0.15281,-0.0335 0.1992,0.0295 0.51144,0.73308 1.05289,2.24047 -0.15464,3.25063 -0.052,0.0492 -0.13127,0.0413 -0.18154,-0.006"
       style="fill:#ce6748;fill-opacity:1;fill-rule:nonzero;stroke:none;stroke-width:0.03527778"
       id="path110"
       inkscape:connector-curvature="0" />
    <path
       d="m 107.37786,272.37751 c -0.31537,0.37933 -0.36527,2.10093 -0.0506,2.66497 1.37028,2.23258 4.58122,5.41834 8.4809,5.67776 2.84402,0.1926 5.6886,-1.08287 6.26632,-2.67871 0.17085,-0.46774 0.42362,-1.71766 -0.26069,-2.606 -4.06076,-2.48217 -14.4359,-3.05802 -14.4359,-3.05802"
       style="fill:#ffffff;fill-opacity:1;fill-rule:nonzero;stroke:none;stroke-width:0.03527778"
       id="path112"
       inkscape:connector-curvature="0" />
    <path
       d="m 106.56929,234.57094 c 0,0 1.00998,34.32799 1.14475,38.71062 1.70222,2.61975 4.08506,-0.53061 4.08506,-0.53061 0,0 -0.58545,-35.04731 -0.92328,-38.18001 -1.93768,-0.27515 -4.30653,0 -4.30653,0"
       style="fill:#fabd99;fill-opacity:1;fill-rule:nonzero;stroke:none;stroke-width:0.03527778"
       id="path114"
       inkscape:connector-curvature="0" />
    <path
       d="m 110.85999,244.63527 0.13422,4.28437 c 0,0 -0.47333,-2.64726 -1.89259,-2.55687 -1.41281,0.0944 -1.92499,2.75144 -1.92499,2.75144 l -0.06,-4.71085 3.74337,0.23191"
       style="fill:#eaa376;fill-opacity:1;fill-rule:nonzero;stroke:none;stroke-width:0.03527778"
       id="path116"
       inkscape:connector-curvature="0" />
    <path
       d="m 107.74772,268.17177 c 0,0 1.52733,2.68069 2.42078,2.16381 -0.63148,-1.01215 -0.47444,-3.24472 0.89934,-3.50414 1.37028,-0.25353 1.37028,2.29546 1.37028,2.29546 0,0 1.79483,-1.58404 5.21436,-0.56796 3.4199,1.01212 4.58122,5.66794 4.16129,6.87659 -0.69058,1.14186 -3.69035,2.606 -7.4306,2.03606 -3.73526,-0.56797 -6.15531,-3.82645 -6.63545,-4.27256 -0.46983,-0.44219 -0.84484,-1.586 -0.46983,-2.48022 0.36398,-0.89029 -0.42215,-2.54704 0.46983,-2.54704"
       style="fill:#8c3943;fill-opacity:1;fill-rule:nonzero;stroke:none;stroke-width:0.03527778"
       id="path118"
       inkscape:connector-curvature="0" />
    <path
       d="m 116.94184,269.25661 c 1.31615,-0.45004 4.47721,2.54901 3.05684,4.26865 -1.42072,1.71572 -5.79556,0.75467 -5.79556,0.75467 0,0 3.68796,-0.30853 3.26617,-2.34068 -0.15722,-0.77039 -1.64901,-2.30333 -0.52745,-2.68264"
       style="fill:#a3535e;fill-opacity:1;fill-rule:nonzero;stroke:none;stroke-width:0.03527778"
       id="path120"
       inkscape:connector-curvature="0" />
    <path
       d="m 112.73232,270.46529 c 0.0843,0 0.16827,-0.0452 0.22258,-0.13757 1.13021,-1.80809 2.32467,-0.81757 2.37383,-0.77237 0.12666,0.10808 0.30229,0.0766 0.38588,-0.0766 0.0935,-0.15528 0.0635,-0.37538 -0.0626,-0.48152 -0.016,-0.0118 -1.69266,-1.40912 -3.14652,0.92371 -0.0983,0.1533 -0.0674,0.36161 0.0532,0.47758 0.0512,0.0452 0.10954,0.0668 0.17362,0.0668"
       style="fill:#ffffff;fill-opacity:1;fill-rule:nonzero;stroke:none;stroke-width:0.03527778"
       id="path122"
       inkscape:connector-curvature="0" />
    <path
       d="m 115.43662,271.10989 c 0.0901,0 0.17341,-0.0472 0.22736,-0.13166 1.13647,-1.81398 2.32504,-0.81758 2.37567,-0.76843 0.1263,0.10219 0.30284,0.0629 0.38882,-0.0905 0.0889,-0.15132 0.0607,-0.35571 -0.0608,-0.47167 -0.0181,-0.0118 -1.69872,-1.40714 -3.14816,0.9237 -0.0998,0.1474 -0.0718,0.36161 0.0501,0.47364 0.051,0.0472 0.10954,0.0648 0.16698,0.0648"
       style="fill:#ffffff;fill-opacity:1;fill-rule:nonzero;stroke:none;stroke-width:0.03527778"
       id="path124"
       inkscape:connector-curvature="0" />
    <path
       d="m 96.186606,272.37751 c 0.315919,0.37933 0.365618,2.10093 0.05099,2.66497 -1.371018,2.23258 -4.581595,5.41834 -8.480533,5.67776 -2.844947,0.1926 -5.68971,-1.08287 -6.267057,-2.67871 -0.170663,-0.46774 -0.423806,-1.71766 0.260506,-2.606 4.060212,-2.48217 14.436088,-3.05802 14.436088,-3.05802"
       style="fill:#ffffff;fill-opacity:1;fill-rule:nonzero;stroke:none;stroke-width:0.03527778"
       id="path126"
       inkscape:connector-curvature="0" />
    <path
       d="m 96.995363,234.57094 c 0,0 -1.032085,34.32799 -1.16906,38.71062 -1.74069,2.61975 -4.174901,-0.53061 -4.174901,-0.53061 0,0 0.598152,-35.04731 0.943712,-38.18001 1.979661,-0.27515 4.400249,0 4.400249,0"
       style="fill:#fabd99;fill-opacity:1;fill-rule:nonzero;stroke:none;stroke-width:0.03527778"
       id="path128"
       inkscape:connector-curvature="0" />
    <path
       d="m 92.560135,244.90255 -0.137708,4.28436 c 0,0 0.484008,-2.6453 1.934737,-2.55687 1.443184,0.0944 1.966594,2.75143 1.966594,2.75143 l 0.0613,-4.71082 -3.824932,0.2319"
       style="fill:#eaa376;fill-opacity:1;fill-rule:nonzero;stroke:none;stroke-width:0.03527778"
       id="path130"
       inkscape:connector-curvature="0" />
    <path
       d="m 95.817285,268.17177 c 0,0 -1.527312,2.68069 -2.421317,2.16381 0.630735,-1.01215 0.475171,-3.24472 -0.899164,-3.50414 -1.370097,-0.25353 -1.370097,2.29546 -1.370097,2.29546 0,0 -1.795374,-1.58404 -5.214354,-0.56796 -3.421007,1.01212 -4.580857,5.66794 -4.161837,6.87659 0.69094,1.14186 3.691085,2.606 7.431324,2.03606 3.734349,-0.56797 6.15476,-3.82645 6.635445,-4.27256 0.469653,-0.44219 0.844299,-1.586 0.469653,-2.48022 -0.363791,-0.89029 0.420681,-2.54704 -0.469653,-2.54704"
       style="fill:#8c3943;fill-opacity:1;fill-rule:nonzero;stroke:none;stroke-width:0.03527778"
       id="path132"
       inkscape:connector-curvature="0" />
    <path
       d="m 86.622439,269.25661 c -1.316706,-0.45004 -4.47739,2.54901 -3.056851,4.26865 1.421094,1.71572 5.796306,0.75467 5.796306,0.75467 0,0 -3.688875,-0.30853 -3.265991,-2.34068 0.155937,-0.77039 1.64846,-2.30333 0.526536,-2.68264"
       style="fill:#a3535e;fill-opacity:1;fill-rule:nonzero;stroke:none;stroke-width:0.03527778"
       id="path134"
       inkscape:connector-curvature="0" />
    <path
       d="m 90.831774,270.46529 c -0.08394,0 -0.167166,-0.0452 -0.22258,-0.13757 -1.129842,-1.80809 -2.324305,-0.81757 -2.374196,-0.77237 -0.125926,0.10808 -0.301376,0.0766 -0.38496,-0.0766 -0.09297,-0.15528 -0.06406,-0.37538 0.06168,-0.48152 0.01657,-0.0118 1.693564,-1.40912 3.147059,0.92371 0.09868,0.1533 0.06793,0.36161 -0.05394,0.47758 -0.05081,0.0452 -0.108988,0.0668 -0.173056,0.0668"
       style="fill:#ffffff;fill-opacity:1;fill-rule:nonzero;stroke:none;stroke-width:0.03527778"
       id="path136"
       inkscape:connector-curvature="0" />
    <path
       d="m 88.127851,271.10989 c -0.09003,0 -0.17361,-0.0472 -0.228106,-0.13166 -1.135547,-1.81398 -2.324671,-0.81758 -2.374561,-0.76843 -0.126297,0.10219 -0.30285,0.0629 -0.389747,-0.0905 -0.08819,-0.15132 -0.0602,-0.35571 0.06167,-0.47167 0.01767,-0.0118 1.697983,-1.40714 3.148164,0.9237 0.09942,0.1474 0.07107,0.36161 -0.051,0.47364 -0.05007,0.0472 -0.108619,0.0648 -0.166428,0.0648"
       style="fill:#ffffff;fill-opacity:1;fill-rule:nonzero;stroke:none;stroke-width:0.03527778"
       id="path138"
       inkscape:connector-curvature="0" />
    <path
       d="m 85.889891,216.63754 c 0,0 -0.635708,8.69843 -0.321628,27.96825 4.000195,2.42126 14.087582,0.9571 14.087582,0.9571 l 2.167245,-12.1456 c 0,0 1.13997,6.95917 1.684,11.63069 2.72583,1.52115 13.06157,-0.0629 14.63363,-2.84968 -0.51586,-14.60223 -1.63466,-26.77141 -1.63466,-26.77141 l -30.616169,1.21065"
       style="fill:#555658;fill-opacity:1;fill-rule:nonzero;stroke:none;stroke-width:0.03527778"
       id="path140"
       inkscape:connector-curvature="0" />
    <path
       d="m 118.25303,239.53334 c 0,0 -6.6789,3.41568 -15.15373,2.61189 0.34077,2.27582 0.50408,3.7498 0.50408,3.7498 0,0 5.7256,1.06912 14.87444,-2.2778 0,-2.20898 -0.22479,-4.08389 -0.22479,-4.08389"
       style="fill:#3e3e40;fill-opacity:1;fill-rule:nonzero;stroke:none;stroke-width:0.03527778"
       id="path142"
       inkscape:connector-curvature="0" />
    <path
       d="m 85.620917,240.80489 c 0,0 6.448583,2.14413 14.924513,1.34034 -0.33986,2.27582 -0.505,3.7498 -0.505,3.7498 0,0 -5.724501,2.00854 -14.874064,-1.34035 0,-2.20898 0.454551,-3.74979 0.454551,-3.74979"
       style="fill:#3e3e40;fill-opacity:1;fill-rule:nonzero;stroke:none;stroke-width:0.03527778"
       id="path144"
       inkscape:connector-curvature="0" />
    <path
       d="m 86.524495,219.62872 0.129057,12.19668 c 0,0 13.526988,-11.13737 30.194758,-1.62923 -0.31462,-9.25461 -1.33383,-13.86131 -1.33383,-13.86131 l -28.989985,3.29386"
       style="fill:#3e3e40;fill-opacity:1;fill-rule:nonzero;stroke:none;stroke-width:0.03527778"
       id="path146"
       inkscape:connector-curvature="0" />
    <path
       d="m 89.495921,181.46641 c 0,0 3.452119,-1.42287 5.59674,-2.56472 -0.206747,-2.50183 -1.130215,-5.16481 -1.130215,-5.16481 l 4.148396,-1.27745 c 0,0 1.013311,3.96205 1.235529,5.58343 3.215529,0.24959 7.474399,0.27907 7.474399,0.27907 0,0 3.01137,14.81448 -7.785543,16.43586 -2.844937,0.42646 -9.229091,-8.52551 -9.539306,-13.29138"
       style="fill:#fabd99;fill-opacity:1;fill-rule:nonzero;stroke:none;stroke-width:0.03527778"
       id="path148"
       inkscape:connector-curvature="0" />
    <path
       d="m 97.789953,173.67594 -3.502932,1.26763 c 0,0 0.8049,1.83363 1.132603,3.87557 0.855525,-1.06322 2.613717,-1.97708 3.753865,-0.7979 -0.36047,-1.70785 -1.383536,-4.3453 -1.383536,-4.3453"
       style="fill:#eaa376;fill-opacity:1;fill-rule:nonzero;stroke:none;stroke-width:0.03527778"
       id="path150"
       inkscape:connector-curvature="0" />
    <path
       d="m 85.569552,183.75993 c 0,0 -8.195722,8.29162 -18.234135,27.51429 -7.261398,3.03835 -7.857709,6.35186 -6.668401,5.82319 -1.659875,1.46022 -0.940583,3.37248 0.710637,1.43272 -1.887977,2.15003 -0.504627,3.72032 1.238278,1.85918 -0.843929,1.33443 -0.07162,3.25847 2.37751,0.52473 1.506517,-1.6764 2.912512,-3.08358 2.912512,-3.08358 0,0 -0.292171,3.65744 1.122478,3.19559 1.397158,-0.45987 1.495286,-4.9801 1.527687,-6.37544 2.533997,-4.21755 7.93393,-14.5472 16.707552,-24.6646 -1.635388,-3.20344 -1.694118,-6.22608 -1.694118,-6.22608"
       style="fill:#fabd99;fill-opacity:1;fill-rule:nonzero;stroke:none;stroke-width:0.03527778"
       id="path152"
       inkscape:connector-curvature="0" />
    <path
       d="m 65.565817,217.45707 c 0.04529,-0.057 0.04529,-0.14544 -0.0035,-0.20243 -0.05358,-0.0668 -0.146914,-0.0748 -0.208773,-0.0157 -0.01859,0.0138 -1.776228,1.64693 -3.113922,3.40195 -0.05928,0.0766 -0.07824,0.19062 -0.0029,0.25744 0.06278,0.0531 0.157223,0.0432 0.208403,-0.0237 -0.0011,0.006 0.01695,-0.0236 0.02578,-0.0354 1.320756,-1.73142 3.059059,-3.34494 3.076732,-3.36264 0.0068,-0.006 0.01399,-0.0137 0.01823,-0.0196"
       style="fill:#ce6748;fill-opacity:1;fill-rule:nonzero;stroke:none;stroke-width:0.03527778"
       id="path154"
       inkscape:connector-curvature="0" />
    <path
       d="m 64.525635,215.78654 c 0.0427,-0.0551 0.04473,-0.13756 0.0027,-0.19456 -0.04915,-0.0708 -0.142128,-0.0845 -0.208405,-0.0314 -1.176419,0.94728 -2.810703,2.53328 -3.369825,3.2683 -0.0017,0 -0.0031,0.002 -0.0048,0.004 -0.05137,0.0689 -0.04143,0.16902 0.02264,0.22404 0.0637,0.057 0.15704,0.0432 0.208221,-0.0236 0,0 0.0032,-0.004 0.0045,-0.006 0.537214,-0.70554 2.177388,-2.29547 3.319381,-3.21523 0.0094,-0.008 0.01859,-0.0157 0.0254,-0.0256"
       style="fill:#ce6748;fill-opacity:1;fill-rule:nonzero;stroke:none;stroke-width:0.03527778"
       id="path156"
       inkscape:connector-curvature="0" />
    <path
       d="m 63.857709,214.53465 c 0.03719,-0.0472 0.0451,-0.11596 0.01584,-0.17491 -0.03867,-0.0766 -0.128873,-0.10613 -0.201961,-0.0629 -1.289275,0.74877 -3.173388,2.73961 -3.252736,2.82414 -0.0578,0.0629 -0.05836,0.16311 0,0.22403 0.05725,0.0629 0.151149,0.0629 0.210063,0 0.01823,-0.0196 1.933636,-2.04195 3.186458,-2.76911 0.01804,-0.0118 0.03093,-0.0256 0.04234,-0.0413"
       style="fill:#ce6748;fill-opacity:1;fill-rule:nonzero;stroke:none;stroke-width:0.03527778"
       id="path158"
       inkscape:connector-curvature="0" />
    <path
       d="m 90.567218,180.84538 c -1.383168,0.76058 -3.155345,1.49953 -4.863086,2.54114 1.44245,3.29189 2.224887,9.97001 0.917755,11.80559 1.020116,13.22651 -1.155065,18.23216 -3.241505,24.88864 5.928858,7.95555 30.298968,4.75603 35.812308,-0.46186 -2.85415,-20.33697 -9.83149,-40.18656 -10.00417,-40.82922 -3.55061,-0.50311 -4.74233,-0.72323 -6.23465,-0.8156 5.67277,17.23967 -12.275823,15.7028 -12.386652,2.87131"
       style="fill:#356cbe;fill-opacity:1;fill-rule:nonzero;stroke:none;stroke-width:0.03527778"
       id="path160"
       inkscape:connector-curvature="0" />
    <path
       d="m 90.801212,183.18999 c -1.433611,-0.0295 -2.801682,-0.15723 -4.064077,-0.39699 -0.343721,0.18671 -0.690388,0.38519 -1.033003,0.59352 0.191834,0.43631 0.372808,0.93549 0.536845,1.47594 1.585129,0.32625 3.350124,0.47168 5.211409,0.46577 -0.278549,-0.6564 -0.498367,-1.36981 -0.651174,-2.13824 z m 10.750518,6.65452 c 3.71502,-0.82934 7.266,-2.02032 10.08002,-3.36461 -0.20252,-0.67212 -0.39675,-1.30495 -0.58029,-1.90044 -2.18384,1.01214 -4.77398,1.92993 -7.51951,2.65905 -0.44296,1.17527 -1.13739,2.03607 -1.98022,2.606 z m -14.508248,-1.29317 c 0.105492,0.74289 0.1795,1.48578 0.216689,2.19525 3.042858,0.48346 6.64355,0.36555 10.282906,-0.16312 -1.227964,-0.22602 -2.465879,-0.81756 -3.551167,-1.74126 -2.478584,0.16116 -4.854438,0.0865 -6.948428,-0.29087 z m -0.421595,6.64077 c 0.01049,0.13561 0.02007,0.26729 0.02964,0.40092 7.927116,1.94764 20.157443,-0.12577 26.664953,-3.30367 -0.17931,-0.64659 -0.35772,-1.27549 -0.53188,-1.8867 -6.46533,3.01282 -17.946926,4.92898 -25.612244,3.13269 -0.104939,0.70556 -0.284255,1.2814 -0.550468,1.65676 z m 22.801363,-15.68313 c -1.71179,0.70554 -3.60952,1.34622 -5.59765,1.89062 0.12629,0.73502 0.19845,1.42484 0.22478,2.06947 2.1459,-0.59157 4.18504,-1.29121 5.99716,-2.05965 -0.26455,-0.81364 -0.47646,-1.45432 -0.62429,-1.90044 z m -24.556602,35.88058 c -0.192943,0.64069 -0.391958,1.27351 -0.595943,1.90832 7.005309,6.25557 28.047565,3.64368 34.428775,-0.94139 -0.10292,-0.63676 -0.20877,-1.27156 -0.31832,-1.90439 -6.59605,4.41016 -26.431879,6.8432 -33.514512,0.93746 z m 1.900864,-10.27659 c -0.04934,0.75664 -0.112856,1.47399 -0.18981,2.16577 8.576997,3.13861 23.787048,0.99444 29.847908,-2.6394 -0.14175,-0.6289 -0.28536,-1.25387 -0.42877,-1.87098 -6.29799,3.51005 -20.947079,5.49303 -29.229328,2.34461 z m 0.112671,-3.35281 c 8.246356,2.25814 21.621257,-0.11792 27.995277,-3.60043 -0.16127,-0.64069 -0.32402,-1.2696 -0.48584,-1.89063 -6.53382,3.40194 -19.563911,5.63649 -27.535211,3.28599 0.02117,0.76451 0.02964,1.49953 0.02578,2.20507 z m 30.400037,6.86874 c 0.12686,0.61907 0.2513,1.24208 0.37355,1.86902 -5.81269,4.14875 -23.620996,6.67221 -32.106311,2.44877 0.167166,-0.66232 0.323471,-1.34426 0.466335,-2.05178 8.294769,4.06031 25.187526,1.71963 31.266426,-2.26601"
       style="fill:#5988ce;fill-opacity:1;fill-rule:nonzero;stroke:none;stroke-width:0.03527778"
       id="path162"
       inkscape:connector-curvature="0" />
    <path
       d="m 102.438,177.78147 c 0.55379,3.14056 2.91547,11.60905 -3.311636,12.46595 -5.012582,0.69177 -7.273001,-5.70136 -7.906133,-9.73418 -0.856263,0.18081 -1.485896,0.70358 -1.485896,0.70358 0,0 1.184335,12.64086 10.1185,11.04306 8.200325,-1.46808 4.164035,-14.34477 4.164035,-14.34477 l -1.57887,-0.13364"
       style="fill:#ffffff;fill-opacity:1;fill-rule:nonzero;stroke:none;stroke-width:0.03527778"
       id="path164"
       inkscape:connector-curvature="0" />
    <path
       d="m 83.746747,218.9271 c 6.231893,7.421 29.328003,4.46911 35.270293,-0.52472 0.0597,0.40681 0.26107,1.44253 0.31852,1.84737 -5.51372,5.21789 -30.276332,8.42527 -36.205192,0.46972 0.122615,-0.3911 0.494135,-1.41306 0.616379,-1.79237"
       style="fill:#ffffff;fill-opacity:1;fill-rule:nonzero;stroke:none;stroke-width:0.03527778"
       id="path166"
       inkscape:connector-curvature="0" />
    <path
       d="m 87.673852,204.93807 c -0.485113,5.54019 -1.566534,11.01946 -2.901466,14.40176 3.579149,3.18574 16.055084,8.16584 32.884324,-0.64463 -0.69867,-5.92538 -1.87546,-12.26153 -1.87546,-12.26153 0,0 1.00226,12.74303 -13.78344,14.33101 -14.785321,1.5919 -14.323958,-15.82661 -14.323958,-15.82661"
       style="fill:#2b589b;fill-opacity:1;fill-rule:nonzero;stroke:none;stroke-width:0.03527778"
       id="path168"
       inkscape:connector-curvature="0" />
    <path
       d="m 117.46248,217.12296 c -0.086,-0.66231 -0.17582,-1.32264 -0.26749,-1.97119 -1.63541,0.85882 -3.76934,1.61743 -6.17741,2.22471 -2.03029,1.64693 -4.91702,2.94796 -9.01977,3.3882 -4.105491,0.44415 -7.034026,-0.57978 -9.125253,-2.29156 -2.753447,-0.42646 -5.208462,-1.19687 -7.055754,-2.38785 -0.185392,0.69573 -0.379253,1.35213 -0.580294,1.96139 7.332463,4.96435 25.053131,2.98135 32.225971,-0.9237 z m -0.87172,-5.95684 c -0.11379,-0.70751 -0.22056,-1.35999 -0.31943,-1.94173 -0.23527,0.12579 -0.48161,0.24764 -0.73714,0.3695 -0.14103,0.73893 -0.35515,1.56044 -0.67805,2.41535 0.63276,-0.26925 1.21213,-0.55226 1.73462,-0.84312 z m -30.132725,2.19131 c 0.989555,0.41075 2.081469,0.74289 3.246658,1.00231 -0.3949,-0.80381 -0.713215,-1.62729 -0.969302,-2.43698 -0.658537,-0.19063 -1.288906,-0.40681 -1.881534,-0.65051 -0.123717,0.71341 -0.25572,1.40913 -0.395822,2.08518 z m 0.941503,-5.80159 c 0.08635,-0.70946 0.163668,-1.42286 0.230497,-2.14021 0.01546,0.004 0.03055,0.008 0.04584,0.0136 0.01032,0.47559 0.04602,1.27351 0.163485,2.25814 -0.148755,-0.0432 -0.294934,-0.0865 -0.439822,-0.13169"
       style="fill:#356cbe;fill-opacity:1;fill-rule:nonzero;stroke:none;stroke-width:0.03527778"
       id="path170"
       inkscape:connector-curvature="0" />
    <path
       d="m 85.412512,184.71703 c 0.316474,1.13792 2.082576,6.58378 0.961203,9.56711 0.120403,0.80577 0.261794,3.45109 0.261794,3.45109 0,0 1.512041,0.45005 1.847107,-5.09015 0.26695,-4.418 -1.666869,-9.92676 -1.666869,-9.92676 l -1.804395,0.8549 0.40116,1.14381"
       style="fill:#ffffff;fill-opacity:1;fill-rule:nonzero;stroke:none;stroke-width:0.03527778"
       id="path172"
       inkscape:connector-curvature="0" />
    <path
       d="m 107.77019,178.50078 c 3.31311,9.17207 3.78111,9.13669 4.92844,11.92153 -0.74765,-5.31025 -2.89723,-11.48326 -2.89723,-11.48326 l -2.03121,-0.43827"
       style="fill:#ffffff;fill-opacity:1;fill-rule:nonzero;stroke:none;stroke-width:0.03527778"
       id="path174"
       inkscape:connector-curvature="0" />
    <path
       d="m 53.552015,149.3435 c 0,0 -3.217498,-6.5543 -3.793465,-15.31956 -0.249478,1.56439 -2.778522,2.7357 -2.778522,2.7357 0,0 -2.737228,-13.47806 1.63515,-23.54435 0.583091,-1.34427 -2.033127,-5.4105 -0.06069,-8.10295 0.250619,1.88276 2.024195,5.23753 3.514787,2.57061 1.489801,-2.66691 8.876482,-10.482935 15.347157,-10.311955 -1.733516,-2.49594 -6.221953,-1.73537 -6.221953,-1.73537 0,0 3.407383,-3.116968 8.065931,-0.26138 0.77986,-4.011179 5.227795,-5.62863 5.227795,-5.62863 0,0 -1.667239,2.330853 0.0267,3.964024 3.245189,-3.105191 16.474476,-10.372887 30.749295,-2.342653 -0.46027,-2.908644 -1.64571,-4.052457 -1.64571,-4.052457 0,0 4.9244,1.63317 4.61934,5.443891 2.30331,-2.539165 5.633,-0.475595 5.633,-0.475595 0,0 -4.81098,0.776292 -2.77885,2.735707 8.37338,2.828063 15.27228,8.665028 17.45354,20.621938 -0.85461,-0.99051 -2.14388,-0.91976 -2.14388,-0.91976 0,0 2.20389,9.02272 0.96561,17.02347 -7.57291,3.85594 -73.815225,17.59932 -73.815225,17.59932"
       style="fill:#b97629;fill-opacity:1;fill-rule:nonzero;stroke:none;stroke-width:0.03527778"
       id="path176"
       inkscape:connector-curvature="0" />
    <path
       d="m 119.79949,136.51202 c 0,0 -0.57901,-4.66958 3.65593,-6.56608 4.46596,-1.99479 7.99338,4.38263 6.61022,9.62802 -1.38814,5.23951 -6.3674,7.49372 -8.83051,4.39836 l -1.43564,-7.4603"
       style="fill:#eab08c;fill-opacity:1;fill-rule:nonzero;stroke:none;stroke-width:0.03527778"
       id="path178"
       inkscape:connector-curvature="0" />
    <path
       d="m 124.83913,131.66754 c -3.16805,0.22993 -3.93777,7.57233 0.99195,9.79705 -2.89079,-4.16251 -1.71935,-6.23395 0.99342,-4.64599 -0.40485,-1.51721 -1.39403,-2.25616 -3.16124,-1.55063 -0.36489,-2.05766 1.17587,-3.60043 1.17587,-3.60043"
       style="fill:#d48a5b;fill-opacity:1;fill-rule:nonzero;stroke:none;stroke-width:0.03527778"
       id="path180"
       inkscape:connector-curvature="0" />
    <path
       d="m 60.559867,152.52926 c 4.20731,19.19907 21.043735,28.47531 38.363249,24.14967 17.318214,-4.32563 28.554034,-20.61016 24.345804,-39.81119 -4.20769,-19.19907 -21.50455,-30.56641 -38.822581,-26.24273 -17.318774,4.32564 -28.094151,22.70517 -23.886472,41.90425"
       style="fill:#fabd99;fill-opacity:1;fill-rule:nonzero;stroke:none;stroke-width:0.03527778"
       id="path182"
       inkscape:connector-curvature="0" />
    <path
       d="m 79.523603,137.41213 c 1.462699,-0.24369 -0.233075,-2.87721 -1.515169,-2.69247 -5.961447,0.85491 -7.605672,5.60309 -7.605672,5.60309 0,0 4.1889,-2.08126 9.120841,-2.91062"
       style="fill:#8d511f;fill-opacity:1;fill-rule:nonzero;stroke:none;stroke-width:0.03527778"
       id="path184"
       inkscape:connector-curvature="0" />
    <path
       d="m 103.70206,131.25679 c -1.42644,0.42843 -0.91187,-2.71998 0.32475,-3.12287 5.75268,-1.87293 9.10189,1.70982 9.10189,1.70982 0,0 -4.62099,-0.0275 -9.42664,1.41305"
       style="fill:#8d511f;fill-opacity:1;fill-rule:nonzero;stroke:none;stroke-width:0.03527778"
       id="path186"
       inkscape:connector-curvature="0" />
    <path
       d="m 97.127554,150.37332 c -0.06533,0.0295 -0.1401,0.0138 -0.191469,-0.0452 -0.06258,-0.0727 -0.05452,-0.18473 0.01228,-0.25156 1.500618,-1.43662 2.071703,-3.02656 1.570574,-4.34921 -0.354576,-0.93155 -1.213415,-1.58404 -2.040414,-1.55063 -0.636622,0.0237 -1.112898,0.45398 -1.342845,1.20278 -0.02416,0.0924 -0.120215,0.14738 -0.207117,0.11593 -0.09041,-0.0313 -0.13752,-0.12773 -0.108065,-0.22599 0.267322,-0.88833 0.868594,-1.42289 1.645147,-1.4504 0.964879,-0.0373 1.958296,0.70751 2.361304,1.7727 0.263449,0.69769 0.634411,2.5549 -1.655826,4.75211 -0.01346,0.0118 -0.02682,0.0216 -0.04372,0.0295"
       style="fill:#ce6748;fill-opacity:1;fill-rule:nonzero;stroke:none;stroke-width:0.03527778"
       id="path188"
       inkscape:connector-curvature="0" />
    <path
       d="m 106.21378,154.32555 c 0,0 -7.186471,3.91881 -18.046532,4.90148 0.004,1.10842 2.693061,12.12003 11.944992,9.67912 9.32132,-2.46646 6.10154,-14.5806 6.10154,-14.5806"
       style="fill:#2c1616;fill-opacity:1;fill-rule:nonzero;stroke:none;stroke-width:0.03527778"
       id="path190"
       inkscape:connector-curvature="0" />
    <path
       d="m 103.97674,155.3141 c -1.6098,0.65444 -4.026521,1.52899 -7.05097,2.31316 -0.0079,0.004 -0.01434,0.006 -0.02122,0.008 -1.96603,0.509 -4.186503,0.97871 -6.607829,1.32461 0.235837,1.15559 0.993236,3.60437 7.65907,1.79432 6.605059,-1.79432 6.193779,-4.43374 6.020899,-5.43996"
       style="fill:#ffffff;fill-opacity:1;fill-rule:nonzero;stroke:none;stroke-width:0.03527778"
       id="path192"
       inkscape:connector-curvature="0" />
    <path
       d="m 99.007062,165.1642 c 2.749958,-2.1913 5.404158,-1.46807 6.273128,-0.0256 -0.99895,1.68033 -2.60488,3.08946 -5.16795,3.76749 -2.878824,0.75664 -5.121759,0.21422 -6.846621,-0.92565 0.01989,-1.26173 3.008057,-3.39802 5.741443,-2.81629"
       style="fill:#ee5b63;fill-opacity:1;fill-rule:nonzero;stroke:none;stroke-width:0.03527778"
       id="path194"
       inkscape:connector-curvature="0" />
    <path
       d="m 99.049226,165.4315 c 1.859624,-1.48186 3.654074,-0.99249 4.241724,-0.0176 -0.67565,1.13792 -1.76278,2.08913 -3.493532,2.54705 -1.947077,0.51096 -3.464091,0.14543 -4.629274,-0.62497 0.01267,-0.85296 2.03305,-2.29941 3.881082,-1.90438"
       style="fill:#f57880;fill-opacity:1;fill-rule:nonzero;stroke:none;stroke-width:0.03527778"
       id="path196"
       inkscape:connector-curvature="0" />
    <path
       d="m 70.679099,160.62828 c 1.044787,3.15628 4.54054,4.45337 8.504649,3.39802 3.824191,-1.02196 6.787333,-5.28079 5.268667,-8.04007 -1.443923,-2.62172 -3.221439,-0.96497 -8.059303,-1.25386 -4.68064,-0.28104 -6.758245,2.74357 -5.714013,5.89591"
       style="fill:#f8a191;fill-opacity:1;fill-rule:nonzero;stroke:none;stroke-width:0.03527778"
       id="path198"
       inkscape:connector-curvature="0" />
    <path
       d="m 72.870665,158.12055 c 0.09518,0.28693 0.455655,0.41469 0.804899,0.28104 0.348323,-0.13167 0.554888,-0.46971 0.460994,-0.7586 -0.09573,-0.28498 -0.455839,-0.41273 -0.805268,-0.28105 -0.348138,0.13168 -0.55323,0.47167 -0.460625,0.75861"
       style="fill:#fbccc0;fill-opacity:1;fill-rule:nonzero;stroke:none;stroke-width:0.03527778"
       id="path200"
       inkscape:connector-curvature="0" />
    <path
       d="m 123.17392,147.37623 c 0.37447,3.32332 -2.22084,6.13961 -6.21072,7.07117 -3.85144,0.89618 -8.2782,-1.51918 -8.0628,-4.70887 0.20398,-3.0364 2.48484,-2.39178 6.70025,-4.94275 4.07917,-2.46842 7.19825,-0.74092 7.57327,2.58045"
       style="fill:#f8a191;fill-opacity:1;fill-rule:nonzero;stroke:none;stroke-width:0.03527778"
       id="path202"
       inkscape:connector-curvature="0" />
    <path
       d="m 120.16696,146.1656 c 0.0329,0.30266 -0.23657,0.58566 -0.60532,0.63283 -0.36657,0.0452 -0.69188,-0.15919 -0.72593,-0.46186 -0.0343,-0.30069 0.23547,-0.58564 0.6022,-0.63281 0.36839,-0.0472 0.69278,0.16116 0.72905,0.46184"
       style="fill:#fbccc0;fill-opacity:1;fill-rule:nonzero;stroke:none;stroke-width:0.03527778"
       id="path204"
       inkscape:connector-curvature="0" />
    <path
       d="m 99.292231,92.33589 c -21.818066,-4.80911 -32.260399,8.73185 -32.260399,8.73185 0,0 -8.145646,-0.60925 -14.425279,11.49113 -7.287044,14.04408 -2.79463,36.45642 4.771458,42.91442 7.386958,-4.65189 3.753128,-22.24726 3.753128,-22.24726 3.062927,0.98461 11.636796,0.0629 14.139311,-1.68034 -5.104815,-3.17594 -5.133167,-9.14653 -5.133167,-9.14653 0,0 7.100312,9.73024 13.664142,7.30701 -4.041618,-3.46288 -4.023576,-12.20259 -4.023576,-12.20259 0,0 9.287823,9.62017 4.724641,17.91376 8.862727,-3.92668 9.028971,-18.65468 9.028971,-18.65468 0,0 4.460639,3.20934 1.765551,10.02502 5.577038,-0.24762 6.536958,-13.62546 6.536958,-13.62546 0,0 4.77562,6.80585 0.071,12.12004 6.23226,-0.33607 8.97116,-1.63317 12.26881,-4.79928 1.41207,8.56284 6.4959,14.39587 8.94134,17.14532 9.62658,-16.30613 -2.93939,-40.691625 -23.822946,-45.29241"
       style="fill:#b97629;fill-opacity:1;fill-rule:nonzero;stroke:none;stroke-width:0.03527778"
       id="path206"
       inkscape:connector-curvature="0" />
    <path
       d="m 50.43362,134.10059 c 0,0 0.733118,8.79081 4.676737,15.93863 2.592045,0.99247 5.305909,0.0551 5.305909,0.0551 0,0 1.254849,-9.35291 -0.339669,-16.17447 -1.12303,9.91103 -5.15977,9.78918 -9.642977,0.1808"
       style="fill:#8d511f;fill-opacity:1;fill-rule:nonzero;stroke:none;stroke-width:0.03527778"
       id="path208"
       inkscape:connector-curvature="0" />
    <path
       d="m 123.8643,115.24938 c 0,0 2.00066,6.74099 1.01607,14.96973 -1.03723,2.71409 -1.70977,5.19037 -1.70977,5.19037 0,0 -5.992,-9.53959 -7.04581,-16.47908 4.69279,8.63554 7.16806,7.0358 7.73951,-3.68102"
       style="fill:#8d511f;fill-opacity:1;fill-rule:nonzero;stroke:none;stroke-width:0.03527778"
       id="path210"
       inkscape:connector-curvature="0" />
    <path
       d="m 68.250595,100.85351 c 4.053216,11.82721 22.316438,13.39553 22.316438,13.39553 0,0 -7.841876,-5.47338 -13.419282,-15.645805 8.108641,9.333235 33.566609,8.313245 33.566609,8.313245 0,0 -15.754804,-4.33349 -26.075817,-10.133115 21.234467,-0.60923 26.086687,5.616845 36.587187,11.540275 C 117.28832,98.066715 106.43194,94.092868 93.017999,93.031597 80.818401,92.066633 66.003614,97.141055 68.250595,100.85351 Z m -10.061609,13.69032 c 0,0 5.44117,-10.21959 8.253899,-7.39937 2.785482,3.52968 0.914809,14.4784 -10.611893,25.38389 3.668993,-7.1439 8.4496,-20.5512 8.4496,-20.5512 0,0 -6.585739,3.51199 -11.830324,22.00552 -0.452416,-14.98153 3.214111,-21.08183 3.214111,-21.08183 0,0 -4.496721,3.44518 -6.931339,14.68869 -2.082667,-12.01588 5.835796,-22.01142 8.752487,-19.99502 2.522583,1.74519 0.703459,6.94932 0.703459,6.94932"
       style="fill:#c98d3e;fill-opacity:1;fill-rule:nonzero;stroke:none;stroke-width:0.03527778"
       id="path212"
       inkscape:connector-curvature="0" />
    <path
       d="m 52.455735,117.59988 c -0.386045,1.29907 -0.52254,2.42912 -0.440042,3.40588 0.655003,-1.50151 1.316411,-2.70819 1.922074,-3.66135 -0.954024,0.17883 -1.482032,0.25547 -1.482032,0.25547"
       style="fill:#ec9912;fill-opacity:1;fill-rule:nonzero;stroke:none;stroke-width:0.03527778"
       id="path214"
       inkscape:connector-curvature="0" />
    <path
       d="m 62.666561,150.69562 c 0,0 -1.422199,-4.45927 -6.004895,-4.15465 -4.830224,0.32821 -5.342473,7.71382 -1.922755,11.76039 3.420802,4.0387 8.821471,3.70067 9.742539,-0.23976 l -1.814889,-7.36598"
       style="fill:#fabd99;fill-opacity:1;fill-rule:nonzero;stroke:none;stroke-width:0.03527778"
       id="path216"
       inkscape:connector-curvature="0" />
    <path
       d="m 56.137156,148.74015 c 2.934972,-1.29317 6.675397,4.92112 3.182776,9.2507 0.859947,-5.09997 -1.050124,-6.40298 -2.821382,-3.69282 -0.267501,-1.55455 0.311871,-2.68264 2.189723,-2.88899 -0.529664,-2.01641 -2.551117,-2.66889 -2.551117,-2.66889"
       style="fill:#d48a5b;fill-opacity:1;fill-rule:nonzero;stroke:none;stroke-width:0.03527778"
       id="path218"
       inkscape:connector-curvature="0" />
    <path
       d="m 103.30513,135.82416 c -1.50486,3.61419 -0.13311,7.77278 3.06403,9.29 3.194,1.51525 7.00569,-0.18473 8.51146,-3.80091 1.50303,-3.61419 0.13036,-7.77278 -3.06477,-9.28606 -3.19677,-1.51918 -7.00824,0.18278 -8.51072,3.79697"
       style="fill:#eaa376;fill-opacity:1;fill-rule:nonzero;stroke:none;stroke-width:0.03527778"
       id="path220"
       inkscape:connector-curvature="0" />
    <path
       d="m 113.41479,141.40759 c 2.08258,-0.30462 2.77462,0.56012 1.54868,1.93584 -1.23331,1.37178 -3.92085,2.73569 -5.99846,3.04032 -2.08735,0.30462 -2.77885,-0.56405 -1.55437,-1.93976 1.23146,-1.37571 3.91605,-2.72981 6.00415,-3.0364"
       style="fill:#eaa376;fill-opacity:1;fill-rule:nonzero;stroke:none;stroke-width:0.03527778"
       id="path222"
       inkscape:connector-curvature="0" />
    <path
       d="m 103.04812,135.66694 c -1.46656,3.52183 -0.12887,7.57429 2.98523,9.05416 3.11374,1.47594 6.82638,-0.18276 8.29294,-3.7046 1.46655,-3.5238 0.12887,-7.57429 -2.9845,-9.05023 -3.1141,-1.47792 -6.82729,0.17885 -8.29367,3.70067"
       style="fill:#ffffff;fill-opacity:1;fill-rule:nonzero;stroke:none;stroke-width:0.03527778"
       id="path224"
       inkscape:connector-curvature="0" />
    <path
       d="m 113.03885,134.67053 c 0.78594,1.60565 0.89346,3.61616 0.12427,5.46552 -1.30032,3.1209 -4.58877,4.59095 -7.34867,3.28008 -0.77378,-0.36751 -1.41925,-0.91779 -1.92461,-1.586 0.54053,1.10843 1.39717,2.0223 2.51945,2.55491 2.7599,1.30889 6.04908,-0.16116 7.34903,-3.28011 0.93414,-2.24437 0.5792,-4.72852 -0.71947,-6.4344"
       style="fill:#dcdbdb;fill-opacity:1;fill-rule:nonzero;stroke:none;stroke-width:0.03527778"
       id="path226"
       inkscape:connector-curvature="0" />
    <path
       d="m 105.22477,139.25755 c 0.40779,2.04196 2.20059,3.36459 4.00738,2.95582 1.8055,-0.41271 2.9392,-2.40161 2.53198,-4.44355 -0.4067,-2.04195 -2.20041,-3.36461 -4.00812,-2.95386 -1.80698,0.41075 -2.93883,2.39964 -2.53124,4.44159"
       style="fill:#75b6e6;fill-opacity:1;fill-rule:nonzero;stroke:none;stroke-width:0.03527778"
       id="path228"
       inkscape:connector-curvature="0" />
    <path
       d="m 106.08251,138.60703 c 0.25259,1.2637 1.36347,2.08127 2.48338,1.83166 1.11731,-0.25745 1.81819,-1.48773 1.56837,-2.75142 -0.25425,-1.2637 -1.36586,-2.08518 -2.48374,-1.82773 -1.11567,0.25156 -1.81766,1.48184 -1.56801,2.74749"
       style="fill:#231f20;fill-opacity:1;fill-rule:nonzero;stroke:none;stroke-width:0.03527778"
       id="path230"
       inkscape:connector-curvature="0" />
    <path
       d="m 105.72277,137.31583 c 0.10586,0.51885 0.56134,0.85294 1.01846,0.74878 0.45823,-0.10613 0.74617,-0.60728 0.64418,-1.12612 -0.10586,-0.52081 -0.55802,-0.85688 -1.01956,-0.7527 -0.45751,0.10612 -0.74415,0.61121 -0.64308,1.13004"
       style="fill:#ffffff;fill-opacity:1;fill-rule:nonzero;stroke:none;stroke-width:0.03527778"
       id="path232"
       inkscape:connector-curvature="0" />
    <path
       d="m 109.15115,139.69581 c 0.0649,0.31249 0.33801,0.51884 0.61564,0.45596 0.27818,-0.0668 0.45142,-0.37145 0.38845,-0.6859 -0.0617,-0.31248 -0.33819,-0.51295 -0.61508,-0.45006 -0.27635,0.0609 -0.45253,0.36358 -0.38901,0.68"
       style="fill:#ffffff;fill-opacity:1;fill-rule:nonzero;stroke:none;stroke-width:0.03527778"
       id="path234"
       inkscape:connector-curvature="0" />
    <path
       d="m 84.064509,142.46296 c 1.911542,3.03246 1.292772,7.05545 -1.388138,8.98735 -2.680176,1.92993 -6.410842,1.03965 -8.326068,-1.99283 -1.917803,-3.03443 -1.296088,-7.05741 1.382614,-8.9893 2.686618,-1.93388 6.412132,-1.03769 8.331592,1.99478"
       style="fill:#eaa376;fill-opacity:1;fill-rule:nonzero;stroke:none;stroke-width:0.03527778"
       id="path236"
       inkscape:connector-curvature="0" />
    <path
       d="m 83.62174,149.11748 c 1.915594,-0.28102 2.550199,0.51492 1.424591,1.78057 -1.133156,1.26173 -3.604005,2.51363 -5.514444,2.7927 -1.918539,0.27908 -2.552774,-0.51884 -1.426247,-1.78252 1.131867,-1.2637 3.598297,-2.5097 5.5161,-2.79075"
       style="fill:#eaa376;fill-opacity:1;fill-rule:nonzero;stroke:none;stroke-width:0.03527778"
       id="path238"
       inkscape:connector-curvature="0" />
    <path
       d="m 83.483664,142.75973 c 1.892948,2.99708 1.280069,6.97486 -1.369729,8.88514 -2.65035,1.90635 -6.335913,1.02785 -8.230151,-1.9712 -1.89608,-3.00102 -1.279149,-6.97683 1.367152,-8.8871 2.653479,-1.90636 6.338673,-1.02394 8.232728,1.97316"
       style="fill:#ffffff;fill-opacity:1;fill-rule:nonzero;stroke:none;stroke-width:0.03527778"
       id="path240"
       inkscape:connector-curvature="0" />
    <path
       d="m 83.011439,143.54585 c -0.376492,-0.59352 -0.8408,-1.08093 -1.351134,-1.47595 0.244673,0.26728 0.473698,0.55815 0.678604,0.88046 1.662821,2.63547 1.123582,6.13372 -1.206244,7.81405 -1.386297,0.99838 -3.0887,1.10844 -4.596505,0.49919 1.642017,1.02785 3.686299,1.08484 5.296465,-0.0688 2.280303,-1.64693 2.807206,-5.06853 1.178814,-7.64897"
       style="fill:#dcdbdb;fill-opacity:1;fill-rule:nonzero;stroke:none;stroke-width:0.03527778"
       id="path242"
       inkscape:connector-curvature="0" />
    <path
       d="m 81.811822,145.46006 c 0.381647,1.91224 -0.684128,3.77927 -2.377693,4.16251 -1.695775,0.38717 -3.378663,-0.85491 -3.759388,-2.76912 -0.385329,-1.91813 0.680813,-3.78125 2.372722,-4.16447 1.695959,-0.38521 3.381055,0.85293 3.764359,2.77108"
       style="fill:#75b6e6;fill-opacity:1;fill-rule:nonzero;stroke:none;stroke-width:0.03527778"
       id="path244"
       inkscape:connector-curvature="0" />
    <path
       d="m 80.115127,145.45612 c 0.227183,1.14577 -0.409446,2.2601 -1.422566,2.49202 -1.01533,0.22993 -2.021637,-0.51099 -2.250109,-1.66069 -0.22792,-1.14578 0.408156,-2.26207 1.421461,-2.49397 1.013672,-0.22798 2.022006,0.51491 2.251214,1.66264"
       style="fill:#231f20;fill-opacity:1;fill-rule:nonzero;stroke:none;stroke-width:0.03527778"
       id="path246"
       inkscape:connector-curvature="0" />
    <path
       d="m 77.78401,144.70734 c 0.09683,0.48739 -0.173977,0.95907 -0.60128,1.05537 -0.428593,0.0963 -0.853502,-0.21619 -0.952181,-0.70162 -0.09573,-0.48544 0.172873,-0.95514 0.599254,-1.05733 0.429514,-0.0944 0.857922,0.22012 0.954207,0.70358"
       style="fill:#ffffff;fill-opacity:1;fill-rule:nonzero;stroke:none;stroke-width:0.03527778"
       id="path248"
       inkscape:connector-curvature="0" />
    <path
       d="m 80.357222,146.76109 c 0.05965,0.2948 -0.104756,0.57779 -0.366181,0.63873 -0.258113,0.0591 -0.517699,-0.13169 -0.576796,-0.42648 -0.05523,-0.29283 0.10494,-0.57976 0.366365,-0.63872 0.259954,-0.059 0.518435,0.13167 0.576612,0.42647"
       style="fill:#ffffff;fill-opacity:1;fill-rule:nonzero;stroke:none;stroke-width:0.03527778"
       id="path250"
       inkscape:connector-curvature="0" />
    <g
       id="g252"
       transform="matrix(0.01925168,0,0,-0.0205512,36.912178,375.26325)"
       style="stroke-width:1.85462236">
      <path
         d="M 8731.69,15706 V 5050.2 L 4394.28,4036.91 V 16300 l 4337.41,-594"
         style="fill:#eaa336;fill-opacity:1;fill-rule:nonzero;stroke:none;stroke-width:1.85462236"
         id="path254"
         inkscape:connector-curvature="0" />
    </g>
    <g
       id="g256"
       transform="matrix(0.01925168,0,0,-0.0205512,36.912178,375.26325)"
       style="stroke-width:1.85462236">
      <path
         d="M 8731.69,15706 V 13330.5 L 4394.28,12317.3 V 16300 l 4337.41,-594"
         style="fill:#dd912a;fill-opacity:1;fill-rule:nonzero;stroke:none;stroke-width:1.85462236"
         id="path258"
         inkscape:connector-curvature="0" />
    </g>
    <g
       id="g260"
       transform="matrix(0.01910789,0,0,-0.02039771,36.912178,375.26325)"
       style="stroke-width:1.85462236">
      <path
         d="m 4638.66,16300 c 0,0 4011.55,-740.4 3916.1,-5451.5 C 8436.3,5004.38 4533.44,4174.33 4533.44,4174.33 L 8756.61,5184.07 8711.55,15739 4638.66,16300"
         style="fill:#dd912a;fill-opacity:1;fill-rule:nonzero;stroke:none;stroke-width:1.85462236"
         id="path262"
         inkscape:connector-curvature="0" />
    </g>
    <g
       id="g264"
       transform="matrix(0.01910789,0,0,-0.02039771,36.912178,375.26325)"
       style="stroke-width:1.85462236">
      <path
         d="m 8711.55,15739 -4072.89,561 c 0,0 2529,-467 3523.13,-3017.6 l 559.68,130.7 -9.92,2325.9"
         style="fill:#cc8421;fill-opacity:1;fill-rule:nonzero;stroke:none;stroke-width:1.85462236"
         id="path266"
         inkscape:connector-curvature="0" />
    </g>
    <g
       id="g268"
       transform="matrix(0.01925168,0,0,-0.0205512,36.912178,375.26325)"
       style="stroke-width:1.85462236">
      <path
         d="m 4124.15,4147.36 270.13,-122.4 V 16300 l -270.13,-30.6 V 4147.36"
         style="fill:#bb7d1f;fill-opacity:1;fill-rule:nonzero;stroke:none;stroke-width:1.85462236"
         id="path270"
         inkscape:connector-curvature="0" />
    </g>
    <g
       id="g272"
       transform="matrix(0.01925168,0,0,-0.0205512,36.912178,375.26325)"
       style="stroke-width:1.85462236">
      <path
         d="m 4394.28,4024.96 c 0,0 19.11,857.98 19.11,5845.36 0,4828.38 -19.11,6429.68 -19.11,6429.68 -10.89,-1316.8 -39.09,-1316.2 -39.09,-6358.06 0,-4884.09 39.09,-5916.98 39.09,-5916.98"
         style="fill:#fbc25f;fill-opacity:1;fill-rule:nonzero;stroke:none;stroke-width:1.85462236"
         id="path274"
         inkscape:connector-curvature="0" />
    </g>
    <path
       d="m 143.83214,173.97861 c 0,3.69476 -2.83317,6.69187 -6.32762,6.69187 -3.49336,0 -6.32469,-2.99711 -6.32469,-6.69187 0,-3.69673 2.83133,-6.6899 6.32469,-6.6899 3.49445,0 6.32762,2.99317 6.32762,6.6899"
       style="fill:#bb7d1f;fill-opacity:1;fill-rule:nonzero;stroke:none;stroke-width:0.03527778"
       id="path276"
       inkscape:connector-curvature="0" />
    <path
       d="m 145.63746,173.97861 c 0,3.69476 -2.83133,6.69187 -6.32487,6.69187 -3.49244,0 -6.32523,-2.99711 -6.32523,-6.69187 0,-3.69673 2.83279,-6.6899 6.32523,-6.6899 3.49354,0 6.32487,2.99317 6.32487,6.6899"
       style="fill:#e0f0f4;fill-opacity:1;fill-rule:nonzero;stroke:none;stroke-width:0.03527778"
       id="path278"
       inkscape:connector-curvature="0" />
    <path
       d="m 140.79223,178.64424 c -3.03991,0 -5.50321,-2.60599 -5.50321,-5.82124 0,-1.32855 0.42528,-2.54899 1.13407,-3.52771 -1.42661,1.04947 -2.36259,2.79663 -2.36259,4.77568 0,3.2172 2.46477,5.82124 5.50303,5.82124 1.78507,0 3.36558,-0.90011 4.37281,-2.29154 -0.89179,0.65837 -1.97598,1.04357 -3.14411,1.04357"
       style="fill:#bbc8cb;fill-opacity:1;fill-rule:nonzero;stroke:none;stroke-width:0.03527778"
       id="path280"
       inkscape:connector-curvature="0" />
  </g>
</svg>
