<svg id="Layer_3" data-name="Layer 3" xmlns="http://www.w3.org/2000/svg" viewBox="0 0 1000 1000"><defs><style>.cls-1,.cls-5,.cls-6{fill:#d8a880;}.cls-1,.cls-10,.cls-6,.cls-7,.cls-8{stroke:#b27f66;}.cls-1,.cls-10,.cls-11,.cls-4,.cls-6,.cls-7,.cls-8{stroke-miterlimit:10;}.cls-1,.cls-10{stroke-width:3px;}.cls-2{fill:#c59175;}.cls-3{fill:#8c3f2b;}.cls-4{fill:#633b34;stroke:#563530;}.cls-6,.cls-7,.cls-8{stroke-width:2px;}.cls-7,.cls-9{fill:#3f3c3b;}.cls-8{fill:none;}.cls-10{fill:#fff;}.cls-11{fill:#161515;stroke:#e6e7e8;stroke-linecap:round;}.cls-12{fill:#b27f66;}.cls-13{fill:#e6e7e8;}</style></defs><title>face</title><path class="cls-1" d="M232.5,468.5s-39-175-14-232,162-104,293-101,240,65,256,109,0,206-5,234c0,0,17-37,34-35s35,29,31,67-29,81-29,81-33,52-51,8c0,0-12,65-30,101s-65,96-85,116-59,70-110,70-82-5-93-10-76-68-106-106-46-66-58-95-16-68-16-68-24,30-48-15-28-63-29-77-1-57,18-66S221.5,448.5,232.5,468.5Z"/><path class="cls-2" d="M782.5,582.5s-12,13-17,14-9-13-7-29,27-98,31-100,18,5,23,26,3,39,0,38-13-7-16-4,4,15-6,24-13,11-11,18A132,132,0,0,1,782.5,582.5Z"/><path class="cls-2" d="M241.5,592.5c1-2,0-51-13-84s-21-53-31-37-13,55-13,58,13-5,16-4,6,4,6,12,7,10,10,20,2,15,0,21,5,12,14,16S241.5,592.5,241.5,592.5Z"/><path class="cls-2" d="M259.5,624.5c3,4,75,149,148,196s103,51,118,51,44-5,44-5-23,15-55,15-77-6-86-12-79-72-98-98-48-63-60-95S259.5,624.5,259.5,624.5Z"/><path class="cls-3" d="M391.5,693.5s58,25,118,20,81-12,83-13,17-10,17-10-25,29-68,32-83,1-109-7S391.5,693.5,391.5,693.5Z"/><path class="cls-2" d="M470.5,781.5c3,0,56,1,60,0s-28,17-39,13S470.5,781.5,470.5,781.5Z"/><path class="cls-4" d="M438.5,425.5s-44-37-82-39-76,21-77,22-20,19-18,23,49-18,77-20S398.5,405.5,438.5,425.5Z"/><path class="cls-4" d="M591.5,399.5s42-19,70-13,51,17,64,34,0,12-10,9-53-19-78-19-66,0-86,16Z"/><path class="cls-2" d="M470.5,522.5s-16,41-20,47-9,16-15,25-14,18-11,27,19,18,29,19,29-27,29-28,4-64,4-65S470.5,522.5,470.5,522.5Z"/><path class="cls-5" d="M527.4,634.57l-6.79,6.25-5.84,4.42-7.18,2-8.23.77s-9-.25-11.64-1.33-5.92-1.18-8.94-3.18-6.07-4.28-7.49-6.33-4.77-8.37-4.77-8.37l1.53-44.21,1.19-10.52,1.57-7.08,1.87-7.65s1.14-5.75,1.29-7.51.63-9.13.63-9.13l.07-7.13-.39-11-1.08-13.45-.54-4.77s35.91,2,48.77.43l-.1,5.25.2,4.52.2,5.55.21,6.16.3,4.48.3,5.17.41,6,.2,4.11.56,6.54,1.2,8.55,1.25,6.08,2.05,9.65,1.83,45.6Z"/><path class="cls-6" d="M469.14,574.53s-20,21.45-26.51,25.56-10.33,9-9.52,18.49,3.64,17.87,13.77,19.1,25.12,0,25.12,0"/><path class="cls-7" d="M467.54,633s-14.38-9.66-20.25-5.34,8.1,5.34,10.13,5.34,9.92,1.44,9.92,1.44S469,634.81,467.54,633Z"/><path class="cls-6" d="M526.64,571.38s16.06,19,28.42,29.12,4.45,30,4.45,30-1.82,4.73-13.37,6a95.7,95.7,0,0,1-20.66,0"/><path class="cls-8" d="M529.53,588.38s6.69,30.2.61,39"/><path class="cls-2" d="M465.72,582.63s-4.05,16.43-3.85,25.26,1.22,16.44,0,16.44-5.47-2.88-7.09-3.08-4-.82-6.28,0-2.43,1.64-4.66,2.26-4.45-.62-2-2.47,3.24-2.26,6.68-4.52,4.46-2.46,6.08-5.13,2.43-2.67,3.85-6.37,2-11.3,4.05-14S465.72,582.63,465.72,582.63Z"/><path class="cls-2" d="M469,624.33s1.42,9.86,14.18,15.61,25.93,4.32,27.35,2.88,5.06-3.29,3.85-3.29-10.54.82-15.19.41a30,30,0,0,1-14.59-5.54c-5.06-3.5-9.72-4.11-10.74-7.81s-2.22-5.14-2.63-8.83-1-10.48-2.23-9.87S469,624.33,469,624.33Z"/><path class="cls-9" d="M528.91,633.19l5.33-4.08s4-2.58,6.35-3,4.79-1.07,7.6.4,3.94,3.3,1.86,4.13-7.82,2.43-9.71,2.25a43.73,43.73,0,0,0-6.74.55H530Z"/><path class="cls-8" d="M463.49,614.67s.41,23.83,18.84,30.41,32.82,0,32.82,0a104.61,104.61,0,0,0,10.33-8.63c.88-.89,2.14-2.14,3.68-3.48,5.2-4.53,13.5-10.05,20.22-5.76,8.71,5.54-17.82,6.36-17.82,6.36l-2.64-.2"/><path class="cls-8" d="M472.61,506s4.66,35.33,0,53.62-6.89,33.07-6.89,34.92"/><path class="cls-8" d="M521.43,506s.61,42.73,3.44,56.9,4.66,20.75,4.66,20.75"/><path class="cls-10" d="M560,494.81c1-1,22.3-42.48,66.91-44.45s72.73,18.76,72.73,18.76,1,22.72-6.79,30.62-38.79,23.71-79.52,18.77S560,494.81,560,494.81Z"/><circle class="cls-11" cx="634.17" cy="483.86" r="32.75"/><circle cx="633.91" cy="483.73" r="12.59"/><path class="cls-12" d="M570.78,479.7s15.88-21.94,35.28-27.86,44.61-3.95,55.27-1S704,467.64,704,467.64s-6.31,25.75-8,27.2c0,0,3.15-22.26,2.18-25.22s-38.79-16.79-45.57-16.79c0,0-35.3-3.72-52.56,4.06S570.78,479.7,570.78,479.7Z"/><path class="cls-10" d="M439.93,491.5c-1-1-22.29-42.2-66.88-44.16S300.36,466,300.36,466s-1,22.57,6.79,30.42,38.77,23.55,79.47,18.65S439.93,491.5,439.93,491.5Z"/><ellipse class="cls-11" cx="365.76" cy="480.58" rx="32.75" ry="32.57"/><ellipse cx="366.02" cy="480.45" rx="12.59" ry="12.53"/><path class="cls-12" d="M429.15,476.49s-15.87-21.79-35.26-27.68-44.58-3.92-55.24-1S296,464.51,296,464.51s6.31,25.58,8,27c0,0-3.15-22.11-2.18-25.06s38.77-16.68,45.55-16.68c0,0,35.28-3.69,52.53,4S429.15,476.49,429.15,476.49Z"/><circle class="cls-13" cx="644.87" cy="474.96" r="4.43"/><circle class="cls-13" cx="380.87" cy="471.96" r="4.43"/></svg>