<svg id="Layer_1" data-name="Layer 1" xmlns="http://www.w3.org/2000/svg" viewBox="0 0 1000 1000"><defs><style>.cls-1{fill:#eaeaea;}.cls-1,.cls-2{stroke:#1b1c1e;}.cls-1,.cls-14,.cls-2,.cls-4,.cls-6,.cls-7,.cls-9{stroke-miterlimit:10;stroke-width:3px;}.cls-2{fill:#383b44;}.cls-3{fill:#eabf98;}.cls-4{fill:#0061ff;stroke:#0056d3;}.cls-5{fill:#0142f0;}.cls-6{fill:#fed1a5;stroke:#d6a47c;}.cls-7{fill:#439126;stroke:#317515;}.cls-8{fill:#397c1d;}.cls-9{fill:#50413c;stroke:#3f332f;}.cls-10{fill:#5b4c48;}.cls-11{fill:#ef6466;}.cls-12{fill:#f76f76;}.cls-13{fill:#fcc0cc;}.cls-14{fill:#f94b68;stroke:#f42727;}</style></defs><title>pain</title><path class="cls-1" d="M410,917.84s-2,26.89,3.55,32.66,14.81,14.62,29,16,20.38,4.37,29-4.94,9-16.9,8-26.06-25.64-20.08-25.64-20.08L424,917.35Z"/><path class="cls-2" d="M454.16,887.62s-15.71,3.3-26.77,2.41-11.6-2.61-11.84-1-12.16,42.34-1.93,53.75,43.5,23.94,55.64,12.71,12.63-14.42,8.77-25.67S467.64,898.72,467,892.88s-5.3-12.29-6.33-10.81S454.16,887.62,454.16,887.62Z"/><path class="cls-1" d="M533,913.84s-2,26.89,3.55,32.66,14.81,14.62,29,16,20.38,4.37,29-4.94,9-16.9,8-26.06-25.64-20.08-25.64-20.08L547,913.35Z"/><path class="cls-2" d="M577.16,883.62s-15.71,3.3-26.77,2.41-11.6-2.61-11.84-1-12.16,42.34-1.93,53.75,43.5,23.94,55.64,12.71,12.63-14.42,8.77-25.67S590.64,894.72,590,888.88s-5.3-12.29-6.33-10.81S577.16,883.62,577.16,883.62Z"/><path class="cls-3" d="M526.5,719.5s9,51,11,57,3,37,2,46,1,48,2,51,2,6,8,6,11,0,8-3-9-14-9-26-2-87-3-97-9-43-9-43Z"/><path class="cls-3" d="M464.5,719.5v34c0,10-2,38-4,52s-11,48-11,54-5,20-5,20,6,0,8-2,16-89,16-89l10-75-14,5Z"/><path class="cls-4" d="M405.29,537.32s-6.77,42.5-7.58,64.55S412.5,890.5,412.5,890.5s43.65,9.8,54-4c9-12,21-137,21-137l15-104s3.92,30.54,4.63,39.69S535.5,885.5,535.5,885.5s39,1.74,50-1,15-137,15-137-.48-149.08-1.71-161.31-7.16-45.14-7.16-45.14l-40.53,4.31Z"/><path class="cls-5" d="M409.69,537.56s-9.19,35.94-4.19,40.94,43,9,73,6,69-2,80-10,25.69-32.66,25.69-32.66Z"/><path class="cls-6" d="M478,277s-3,32-4,35,1,24,4,27,22,11,30,11,24-7,27-13,2-46,3-51-42-25-53-22S478,277,478,277Z"/><path class="cls-6" d="M624.5,387.5c6,5,6,37,18,27s23-44,27-56c3.82-11.46,12-34,12-42s16-39,23-38,28,13,26,28-12,24-16,30-16,60-21,74-23,50-37,55-30,9-42-5-44-52-44-52Z"/><path class="cls-7" d="M591.5,438.5c.58-4.08,35-13,42-20s8-1-4-25-20-44-23-52-21-21-35-28c-11.59-5.8-26.62-9.54-31.44-10.65-.83-.19-.46.8-.56,1.65-.72,5.95-4.72,26.43-9,29-5,3-26,11-41,2s-13.84-35.48-16-35-26,8-39,11-34,12-35,25-3,92-3,98,4,87,2,99c0,0-2,19-2,22s70,17,128,10,73-16,73-16S590.5,445.5,591.5,438.5Z"/><path class="cls-8" d="M538.5,345.5c-1,2-1,18-8,34s-22,22-26,35-5,36-25,46-37,3-48,10-11,10-11,26-6,27,10,35,23,13,56,14,67,2,78,2,24-8,24-8-34,22-67,21-105-4-113-7-5-71-5-83-1-89-1-89l28-17s16-1,24,0,14-4,19-12-2-18,10-17,21,7,32,6S538.5,345.5,538.5,345.5Z"/><path class="cls-6" d="M370.8,183.11S351.92,193,351.11,205.7s4.31,25.68,13.56,30.84,30.45,6.63,30.45,6.63,23.35,36.75,55.24,49.43S499,305,514.94,302.73s38.6-7.31,61.82-28.81,33.8-43.4,33.8-43.4,25.9-.56,33.7-19.06-4.66-32.75-4.66-32.75-9.45-11.41-20.88-14.53-64.62-60.43-64.62-60.43l-120.31-10-33.44,5.61-30.06,45.7Z"/><path class="cls-3" d="M378.48,178.89s13-29.85,21.17-36.25,29.27-17.9,29.27-17.9,17.37,31.05,20.7,33.42,9,6.45,12.85,6.65S486,162.54,486,162.54l-37.27-29.8s37.81,18,43.52,19.53,25.77,8.68,34.6,8.87a102,102,0,0,0,17-1.17l-21.15-16.15-4.23-12.71,27.45-6.28L425.1,101.91,401.38,108l-22.73,36.93Z"/><path class="cls-9" d="M393.41,228s0-23.79,6.09-47.45,16-29,16-29,9.61-3.29,15,0c7,4.28,26.8,7.47,30.81,8.89s31.54,3.1,31.54,3.1a434,434,0,0,1,45.4.77s11.83.53,17.2-2.46c0,0-21.64-19-24.7-24.79,0,0,18.57,15.75,33.87,22s39.7,11.79,39.7,11.79,6.36,35.4,4.87,41.52c0,0,14-19.11,16.55-31.28a84.55,84.55,0,0,0,1.44-15.1c.13-5.93,39.91-33.78,32.84-33-15.23,1.71-27.77-15.64-31-25C620.89,84.59,595,65,579.94,52.89S533.3,34.72,508.08,31.82s-50,1.68-68.9,16.59-21.93,26.73-21.93,26.73-32.07,6.21-45.37,31.92-15.8,38.28-14.43,46.43,6.76,27.79,6.76,27.79,6.54,16.51,15.86,29.62S393.41,228,393.41,228Z"/><path class="cls-10" d="M420,78.87s8.13-19,17.3-24.28,31.05-17.36,44-17.85,22.36-1.65,29.43.52,26.17,6.09,26.17,6.09-20.79,1-29.56,1.18S477.51,47,472.83,49.05s-22.09,8.32-7.34,6.26a144.94,144.94,0,0,1,27.05-1.18S467.19,55.45,459.31,61,440.57,74.16,437,78.11s-11.82,12-11.82,12l-25.28,4.24c-5.3.89-26.56,16.61-29.2,20.82s5.69-16,13.3-20.67S399.11,82,406.79,80.25A52.57,52.57,0,0,1,420,78.87Z"/><path class="cls-3" d="M383.46,232.34s-5.31-9.17-7.22-10.53-3.8-.2-3.81-2.71,2.11-2.45,1-6.46-2.19-8-3.61-9a6,6,0,0,0-5.51-.34c-2,.75-5,5.44-4.89,5.85s-2.37,3.33-.88,4.76,4.08-3.2,5.57-4.29,4.55-2.86,4.69.47-3.73,7.76-.26,10.95,6.19,4.41,8.1,5.77S383.46,232.34,383.46,232.34Z"/><path class="cls-3" d="M617.66,221.58s.8-10.2,6.78-12,9.52-.75,7.61-4.63-3.67-4.41-3.07-8.28,1.15-8.16,4-8.64,4.41-1.16,6.52,1.42a11.92,11.92,0,0,1,2.52,5s-4-3.94-6-.68-2,3.27-1.28,7.35,2,6.79-1.49,8.63-5.84,2.66-8.49,4.36S617.66,221.58,617.66,221.58Z"/><path class="cls-11" d="M523.09,279.46s-1.94,5.79-9.07,5.28-14.26-1-17.49-3.16-3.7-14.49-2.29-17.31,7-8.72,15-8,12.51.72,14.6,4.17,1.41,7.17-.13,10.73S523.09,279.46,523.09,279.46Z"/><path class="cls-12" d="M499,275.5s10.23,3.38,13.86,3.26,5.51-.54,4.17-3.08-8.82-6.2-10.56-6.52S497.91,271.46,499,275.5Z"/><path class="cls-6" d="M513.5,214.5s3,11,4,15-8,8-8,8"/><path class="cls-6" d="M440.49,191.26s28.4-6,40,3.48c0,0-22-3.24-30,3.76"/><path class="cls-6" d="M571.78,188.55c-11.55-8.47-30.68,4.87-30.68,4.87s17.4-3.92,22.4.08"/><path class="cls-13" d="M458,256c0,1-16.5-5.5-18.5-3.5s-12,6-5,14,12.08,23,22,23,30-3,20-15A129.65,129.65,0,0,0,458,256Z"/><path class="cls-6" d="M425.5,418.94S471.08,443,486,436.88s26.67-31.4,25.57-51.22S500.44,331,500.53,325.37s.66-41-1.36-47.4-6.2-10.71-7.61-10.73-1.48,4.22-1.48,4.22-5.46-12.82-7.66-7.9c0,0-6.86-12.84-7.72-3.66,0,0-7.16-9.59-11.05,6.43s-3.15,15.17-4.15,21.17,1.28-7.95-5-13-10.39,3.75-7,13,3.26,17,9,23,8.71,12.9,8.62,18.55-.45,28.28-2.74,38.85-.9,12-3.78,14.8-19.68-7.39-19.68-7.39Z"/><path class="cls-7" d="M439.5,350.5s-1.87,2.88,2,11,10.5,10.5,11,12c1,3,1,6-2,6s-3,8-5,25c-1.52,12.91,8,34,8,38s-55-26-59-30c-3.81-3.81-14-32-8-57s16-33,22-36,15-4.59,15-4.59"/><path class="cls-8" d="M404.5,329.5c3.81-2.34-14,24-13,34s0,21,5,26,6,7,6,7l-8,10s-7-28-6-38S391.5,337.5,404.5,329.5Z"/><path class="cls-7" d="M591.43,439.32s.07-44.82,2.07-56.82"/><path class="cls-8" d="M621.5,421.5s-18,6-22,8-6,2-6,2l2-36S599.5,413.5,621.5,421.5Z"/><path class="cls-3" d="M496.33,318.89c-.74.67.86,26.23.39,36.12s2.48,22.07-.15,32.56,3.09,24.22-8.69,33.56-23.14,10.22-23.14,10.22,14,3.5,20.58-1.14,17.09-16.87,19.05-28.11-2.27-41.17-2.27-41.17Z"/><polygon class="cls-14" points="423.5 276.5 408.5 276.5 402.5 283.5 383.5 283.5 391.5 293.5 411.5 286.5 411.5 281.5 423.5 276.5"/><polygon class="cls-14" points="431.9 288.26 417.67 292.99 414.18 301.52 404.5 304.5 406.89 314.48 423.67 301.53 422.09 296.79 431.9 288.26"/><polygon class="cls-14" points="418.02 262.08 403.46 258.47 395.95 263.82 381.63 259.24 386.5 269.5 403.96 268.9 405.17 264.05 418.02 262.08"/><path class="cls-6" d="M685.5,296.5s5,4,9,4h6s-4,1,0,3a9.66,9.66,0,0,0,8,0s-4,3,0,5,9,0,9,0-3,5,0,7,7,0,7,0a3.74,3.74,0,0,0,6-1c2.64-4.11,6-21-3-28s-26.8-15.45-36-7S685.5,296.5,685.5,296.5Z"/><path class="cls-6" d="M685.5,291.5s14,3,17,6,8,6,4,8-7.89,2.73-14,.36-9-1.36-11-4.36S678.5,290.5,685.5,291.5Z"/><path class="cls-5" d="M504.5,637.5c4,3,15,109,19,119s12,105,15,111,14.79,13,19.9,12,22.1-4,22.1-4-25,2-32-21-12.68-70.9-14.84-96-10.16-75-16.16-91S504.5,637.5,504.5,637.5Z"/><path class="cls-5" d="M478.5,743.61s-11,93.89-14,103.89-15,31.19-16,32.1-27-3.1-29-5.1,16-5,22-15,23.89-52,25.95-64.5S478.5,743.61,478.5,743.61Z"/></svg>