<svg id="Layer_2" data-name="Layer 2" xmlns="http://www.w3.org/2000/svg" viewBox="0 0 1000 1000"><defs><style>.cls-1{fill:#fed1a5;stroke:#d6a47c;}.cls-1,.cls-10,.cls-3,.cls-4,.cls-5,.cls-7{stroke-miterlimit:10;stroke-width:3px;}.cls-2{fill:#eabf98;}.cls-3{fill:#93999d;stroke:#778389;}.cls-4{fill:#0b3b76;stroke:#033260;}.cls-5{fill:#2c3992;stroke:#1b2d87;}.cls-6{fill:#252f64;}.cls-7{fill:#deedff;stroke:#a5ccf2;}.cls-8{fill:#bcd2ff;}.cls-9{fill:#725259;}.cls-10{fill:#8a676d;stroke:#725259;}.cls-11{fill:#8e7278;}.cls-12{fill:#ef6466;}.cls-13{fill:#f76f76;}</style></defs><title>sore throat</title><path class="cls-1" d="M474.21,688.91s-8.35,57.48-10.55,70.33-12.43,68.15-13.88,84.09-4.87,30.68-6.17,33.58-29.6,17.35-35.79,5.78-7.41-43.86-5.33-66.76c2-22,2.87-42.92,3.69-51.88s-10.08-60.16-5.24-101.9,76.35-7.1,76.35-7.1Z"/><path class="cls-1" d="M582.5,686.5s-3,58-4,71-6,69-6,85-2,31-3,34-31,28-35,10c-2.82-12.69-12-68-10-90s-3-38-4-47-12-41-11-83,73-14,73-14Z"/><path class="cls-2" d="M516.5,707.5s9,51,11,57,3,37,2,46,1,48,2,51,2,6,8,6,11,0,8-3-9-14-9-26-2-87-3-97-9-43-9-43Z"/><path class="cls-2" d="M454.5,707.5v34c0,10-2,38-4,52s-11,48-11,54-5,20-5,20,6,0,8-2,16-89,16-89l10-75-14,5Z"/><path class="cls-3" d="M530.69,882.87s-2.21,21.91-1.19,25.63S543,935,549.11,943.39s19.43,28.87,39.89,25.14,23.53-9.31,22.51-28.86-27.62-39.11-27.62-39.11Z"/><path class="cls-4" d="M533.5,870.5s-2.19-2.06-3,3S528.65,894,529.67,895,543,915.46,544,918.25s11.25,31.66,25.58,36.32,32.73,11.17,40.91-4.66,4.09-29.8-9.2-43.76-25.58-27.94-25.58-33.52-3.39-13.18-4.2-8.13.11,5.33-10.12,8.13S533.5,870.5,533.5,870.5Z"/><path class="cls-3" d="M402.29,875.15s-4.1,22-3.39,25.8,12.12,31.74,17.67,40.66,17.37,30.57,38.75,28.78,25.05-7.07,25.77-26.64-24.86-41.54-24.86-41.54Z"/><path class="cls-4" d="M405.07,867.37s-2.06-.18-2.51,4.79S400,890.55,401,891.57s11.82,21.65,12.62,24.53,8.7,32.58,23,38.56,32.65,14.19,42.51-.81,6.91-29.29-5.5-44.44-23.78-30.22-23.27-35.78-1.27-13.35-2.56-8.39-1.39,5.22-12.17,7S405.07,867.37,405.07,867.37Z"/><path class="cls-5" d="M395.29,525.32s-6.77,42.5-7.58,64.55-1.21,99.63-1.21,99.63,37.65,14.39,53.85,20.32,48.15,2.68,48.15,2.68l7.32-73.7s.6,25.24,1.31,34.39-.16,39.25-.16,39.25,64.45-3.52,75.45-6.26,30.93-13.49,30.93-13.49S590,586.42,588.79,574.19s-7.16-45.14-7.16-45.14l-40.53,4.31Z"/><path class="cls-6" d="M500.5,636.5s11,38,15,45,11,10,23,11,44,1,48,1,8,1,7,0-20,8-45,10-48,4-48,4Z"/><path class="cls-6" d="M568.5,540.5s12,12-5,17-43,6-67,7-42-3-55-1-19,4-23,13-4,20-7,39-4,21-5,40-12,26,4,32,46,9,52,10,17,2,19,1,6-11,6-11l-2,22s-25,2-43-4-52-19-52-19,2-94,2-98,3-32,4-38,8-20,8-20Z"/><path class="cls-1" d="M468,265s-3,32-4,35,1,24,4,27,22,11,30,11,24-7,27-13,2-46,3-51-42-25-53-22S468,265,468,265Z"/><path class="cls-1" d="M615.85,406.3s8.74,47.29,9.26,60.43.9,45.39.65,56.43-1.14,19-.37,21.09,3.41,5.42,3.84,10.5.82,28.28.15,34.24-11.29,10.8-17.25,10.12-23.76,5.36-26.06-.94-6.64-48-3.09-52.68-3.07-61.74-2.73-64.72-5.33-41.87-4.88-45.84,3-43.95,5.07-44.71S615.85,406.3,615.85,406.3Z"/><path class="cls-2" d="M613.66,408.4s2.15,16,.05,16.78-12.26,1.63-15.14,9.36-10.49,48.12-8.52,57.4,4,26.63,4,35.68-1.37,21-2.93,25.84-.24,11-1.91,16.89-3.23,10.7-3.11,9.71-3.38-23.53-1.71-29.38,2.39-29.92.64-41.19-6-80.18-6-80.18,4.35-20.65,5.46-21.53S613.66,408.4,613.66,408.4Z"/><path class="cls-7" d="M581.5,426.5c.58-4.08,35-13,42-20s8-1-4-25-20-44-23-52-21-21-35-28c-11.59-5.8-26.62-9.54-31.44-10.65-.83-.19-.46.8-.56,1.65-.72,5.95-4.72,26.43-9,29-5,3-26,11-41,2s-13.84-35.48-16-35-26,8-39,11-34,12-35,25-3,92-3,98,4,87,2,99c0,0-2,19-2,22s70,17,128,10,73-16,73-16S580.5,433.5,581.5,426.5Z"/><path class="cls-8" d="M528.5,333.5c-1,2-1,18-8,34s-22,22-26,35-5,36-25,46-37,3-48,10-11,10-11,26-6,27,10,35,23,13,56,14,67,2,78,2,24-8,24-8-34,22-67,21-105-4-113-7-5-71-5-83-1-89-1-89l28-17s16-1,24,0,14-4,19-12-2-18,10-17,21,7,32,6S528.5,333.5,528.5,333.5Z"/><path class="cls-1" d="M384.5,383.5s16,49,31,55,41-4,54-19,30-47,34-51,29-29,32-35,3-12,2-13-4,2-4,2,5-13,0-11c0,0,4-14-3-8,0,0,10.87-18.61-3.07-9.8s-21.93,19.8-27.93,18.8-4-6-5-14-6-13-10-4-6.85,19.34-6.92,27.67,1.92,20.33-2.08,24.33-20,20-29,26-9,8-13,8-9-19-9-19Z"/><path class="cls-1" d="M435,380.36a108.48,108.48,0,0,0-16.54,9.14"/><path class="cls-7" d="M426.5,327.5s12,39,13,42-4,7-7,7-19.95-5.68-29.47,3.16S389.5,398.5,389.5,402.5s-4,7-6,2-13-36-7-61,16-33,22-36,15-4.59,15-4.59"/><path class="cls-8" d="M394.5,317.5c3.81-2.34-14,24-13,34s0,21,5,26,6,7,6,7l-8,10s-7-28-6-38S381.5,325.5,394.5,317.5Z"/><path class="cls-7" d="M581.43,427.32s.07-44.82,2.07-56.82"/><path class="cls-8" d="M611.5,409.5s-18,6-22,8-6,2-6,2l2-36S589.5,401.5,611.5,409.5Z"/><path class="cls-2" d="M504.5,360.5c-1,0-17,20-24,27s-13,18-22,24-14,20-29,19-24-8-24-8,8,12,16,13,24-1,33-8,26-32,26-32Z"/><path class="cls-1" d="M602.72,222.35s-16.38,40.17-58.55,57.11-84.63-1-91.25-4.41-27-14.85-44.19-43.15c0,0-21.29,2.42-33.35-13.23s-2.08-33.81-2.08-33.81,7.14-10.35,15.33-12.61,5.37-62.62,14.69-74,32.84-20.4,62.34-16.07,44.33-.37,68.72.33,48.54,5.34,56,12.2,23.14,59.25,22.55,63.64a4.76,4.76,0,0,0,3.4,5.42s19.14,1.79,22.15,19-7.42,31.94-17.89,34.5S603.61,220.27,602.72,222.35Z"/><path class="cls-2" d="M397.05,220.71s-1.15-8.86-6.48-11.29-7.63-5.27-5.7-8.26,2.33-5.8.51-7.91-2.74-6.3-5.43-3.2-3.73,9.9-3.73,9.9,3.27-7.49,4.58-3.35.75,5.78,2.72,9.05,6,7.82,8.56,9.44S397.05,220.71,397.05,220.71Z"/><path class="cls-2" d="M615.43,207.35s2.82-5.08,4.13-6.82,4.61-.21,4.26-2.91-2.88-4.32-2.42-6.74.53-4.77,3.14-5.5,6.88-.52,7.36.2,1.48,2.55,1.48,2.55-4.47-1.76-5.84-.41-.93,1.69-1.24,5.26,1,7.32-1.18,8.78S615.43,207.35,615.43,207.35Z"/><path class="cls-9" d="M451,153.19s5.58,6.58,8.49,6.25,8.94-1.74,8.94-1.74-3.41,5.87-7.92,4.9-6-2.65-7.36-4.69A19.89,19.89,0,0,1,451,153.19Z"/><path class="cls-9" d="M558.25,146.16s-2,6.6-5.62,8.85-6.5,3.35-9.33,2.36-5.8-4.42-5.8-4.42,8.88.73,11-.1,4.86-2.3,5.65-3.44S558.25,146.16,558.25,146.16Z"/><path class="cls-10" d="M513.54,227.86s-.06,5.49,1.61,6.45,10.31,2.16,12.31,2.68,13.7,4.46,13.7,4.46-7.32-8.83-12.18-10.54-7.32-2.95-10-3S513.49,227.47,513.54,227.86Z"/><path class="cls-10" d="M506,228.86s-.05,5.49-.76,6-4.13.93-10.09,2.51-12.7,3.24-15.59,4.8c0,0,1.91-6.13,5.88-8.23a45,45,0,0,1,13.74-4.16C503.3,229.21,505.09,228.19,506,228.86Z"/><path class="cls-1" d="M509.08,209.83s4.4-1.75,5.94,1.18.75,5.78-1.86,6.51a11.69,11.69,0,0,1-4.17.55"/><path class="cls-10" d="M576.18,122s15.18,27.78,18.29,30.89,9.44,13.26,9.69,15.18,3,5.48,3,5.48,4.23-9.7,7.75-10.49,4.31,1.18,4.31,1.18l-6.32-47.48-46.48-10.32Z"/><path class="cls-10" d="M417.31,131.63S404,165.52,402.42,168.47,396.84,179,396.84,179s-5.3-6.77-6.88-7.72-.13-46.21-.13-46.21Z"/><path class="cls-10" d="M626.7,107c-2,2.41,7.3,17.55-.9,22.74s-13.66,10.65-20.06,3S593,115.09,593.42,118.12s6.19,12-1.76,16.17-19.31,8.72-24.11-1.44-11.92,6.2-17.18,4.32-17.68-5.38-18.65-9.87-14,8-18.79,12.76-15.08,8.67-23.45,3.61-6.68-21.74-12.72-14.77-10.24,16.26-23.15,14.88-21.15-5.43-21.88-11-7.53-1.58-12.51,1.65-13.48,12.06-17.5,4.88-7.62-5.16-9.75-.77-8.17,11.37-10.6,4.49-10.53-18.66-2.89-22.24-3.16-12.43-6.42-19.71S366.51,79.2,369,77.33s16.6,6,16.86-6.85,1.66-22.84,7.79-23.13,19.18,2.09,20.45,2.95,12.68-21.21,21-19.73,12.67,17.34,18.43,17.1,24-26.3,29.33-17.76,10.53,18.66,19.55,13.87,24-17,27.64-12.9S536.28,61.41,540.7,48s10-30.11,18.73-25.09,11.41,16.48,14.39,18.66,13.67,1.28,20.51,3.46.73,20.47,11.47,17,22.19-4.47,23.14-3.05,1.45-.71,2,3.33-12.18,19.09-5.14,22.79S629,104.16,626.7,107Z"/><path class="cls-11" d="M618.27,103.33s-3-4.49-4-14.93,5-17.45,1.83-19.58-14.63,11-18.61,2.73-6.93-18.64-10.15-21.16-9.09,1.74-13.67,2-3-10.71-12.43-8.55-6.75,2.37-17,10-19.15,6.27-20.31.12,0-11.68-10.42-7.13S493,56,483.88,45.25s-13.69,1.64-18.1,4.65-19.57,5.9-19.57,5.9,39.18,7.26,49.61,8.55,10.78-5.35,20.34.27,22.71,7.52,32.87,4.54,15.43-4.48,22.91-1.45,15.39,1,19.73,8.88S618.27,103.33,618.27,103.33Z"/><path class="cls-12" d="M521.09,264.46s-1.94,5.79-9.07,5.28-14.26-1-17.49-3.16-3.7-14.49-2.29-17.31,7-8.72,15-8.05,12.51.72,14.6,4.17,1.41,7.17-.13,10.73S521.09,264.46,521.09,264.46Z"/><path class="cls-1" d="M444.43,184.5S458.08,173.91,474,186"/><path class="cls-1" d="M538.36,180.84s20.42-13.09,31.48-4.38"/><path class="cls-13" d="M497,260.5s10.23,3.38,13.86,3.26,5.51-.54,4.17-3.08-8.82-6.2-10.56-6.52S495.91,256.46,497,260.5Z"/></svg>