<?xml version="1.0" encoding="UTF-8"?>
<svg id="Queue" xmlns="http://www.w3.org/2000/svg" viewBox="0 0 1000 1000">
  <defs>
    <style>
      .cls-1 {
        fill: #3c7ca0;
      }

      .cls-2 {
        fill: #ce3932;
      }

      .cls-3, .cls-4 {
        fill: #fff;
      }

      .cls-5 {
        fill: #1d3f70;
      }

      .cls-6 {
        fill: #f9f8f3;
      }

      .cls-7 {
        fill: #23659b;
      }

      .cls-8 {
        fill: #f99370;
      }

      .cls-9 {
        font-family: FreeSansBold, FreeSans;
        font-size: 150px;
      }

      .cls-10 {
        fill: #3a72aa;
      }

      .cls-11 {
        fill: #3185ba;
      }

      .cls-12 {
        fill: #161c23;
      }

      .cls-13 {
        fill: #b7ea54;
      }

      .cls-14 {
        fill: #f4d4be;
      }

      .cls-15 {
        fill: #163356;
      }

      .cls-16 {
        fill: #0b121c;
      }

      .cls-17 {
        fill: #e57d61;
      }

      .cls-18 {
        letter-spacing: 0em;
      }

      .cls-19 {
        fill: #3fa9f5;
      }

      .cls-20 {
        fill: #eb5648;
      }

      .cls-21 {
        fill: #d1a68f;
      }

      .cls-4 {
        opacity: .2;
      }

      .cls-22 {
        fill: #155784;
      }

      .cls-23 {
        letter-spacing: 0em;
      }

      .cls-24 {
        fill: red;
        letter-spacing: -.01em;
      }

      .cls-25 {
        fill: #8baa3f;
      }

      .cls-26 {
        fill: #c93535;
      }

      .cls-27 {
        fill: #103663;
      }

      .cls-28 {
        fill: #395b96;
      }

      .cls-29 {
        fill: #e8c0a6;
      }

      .cls-30 {
        fill: #c16256;
      }
    </style>
  </defs>
  <g>
    <g id="_4" data-name="4">
      <path class="cls-8" d="M863.55,602.05c0,.57,.71,2.55,1.28,2.55l24.11,.5c.57,0,2.98-2.23,2.98-2.23,.17-7.44-5.89-12.24-4.42-20,0,0,7.65-137.86,5.35-199.15-.56-14.88-58.95-24.66-58.25-16.88,5.23,57.51,32.72,216.38,32.72,216.38,.33,4.18-.47,8.41-2.44,11.91-1.59,2.8-1.33,6.91-1.33,6.91Z"/>
      <path class="cls-8" d="M758.21,605.95h48.03c2.19,0,3.92-1.84,3.81-4.03-5.32-24.36,19.03-149.44,18.92-235.39,0-2.26-52.06,3.82-54.28,29.84-4,46.86,12.91,180.96,12.91,180.96,1.61,14.04-13.36,15.51-22.92,17.37-3.8,.95-7.77,2.44-9.62,5.27-1.73,2.54,.08,5.98,3.15,5.98Z"/>
      <path class="cls-10" d="M896.47,558.91c-.25,8.09-.41,12.88-.41,12.88-19.96,8.22-40.6,.52-40.6,.52l-1.39-11.88-21.95-187.6c-7.32,63.16-10.99,152.65-12.17,185.88-.29,8.29-.43,13.08-.43,13.08-2.67,.62-5.27,1.09-7.77,1.45-19.09,2.71-32.72-1.45-32.72-1.45,0,0-.56-4.7-1.41-13.08-3.79-37.35-13.32-147.82-4.62-241.81,4.58-49.48,120.85-27.55,120.85-27.55,0,0,2.88,18.36,4.51,134.94,.62,44.26-1.07,107.69-1.88,134.62Z"/>
      <path class="cls-7" d="M789.48,566.67l4.4-.46c-14.1-135.99-.15-243.4,0-244.47l-4.38-.58c-.14,1.07-14.16,108.97,0,245.51Z"/>
      <path class="cls-7" d="M873.07,567.49l4.39-.48c-7.03-64.22-21.05-242.35-21.2-244.14l-4.41,.35c.14,1.79,14.17,180,21.21,244.28Z"/>
      <path class="cls-8" d="M824.83,209.89c-93.15,7.47-138.91-79.54-25.27-97.48,5.11-.41,13.63-2.44,14.16,5.01,.09,2.31-1.18,4.32-3.08,5.36-11.27,6.84-46.69,20.08-41.34,34.78,3.57,9.81,37.33,11.34,54.93,13.15,25.64-.27,26.22,38.68,.6,39.19Z"/>
      <path class="cls-25" d="M772.98,316.91s3.26,5.61,12.35,9.91c9.09,4.3,25.85,11.77,32.3,11.47,6.45-.3,6.14-7.82,11.34-8.47,5.21-.64,2.63,5.99,9.08,8.47,6.45,2.49,29.17-.34,58-15.26v-16.43l-123.07,10.3Z"/>
      <path class="cls-13" d="M826.68,169.73l-29.15,31.16-8.04,8.59c-13.68,.63-31.85-6.13-45.3-16.72,0,0-.02-.01-.03-.01-16.04-12.65-25.34-30.75-12.17-48.27,24.19-32.19,67.69-32.65,67.69-32.65,10.03,3.91,8.3,13.04,8.3,13.04-46.34,23.03-38.29,42.13-16.3,40.95,21.98-1.17,35,3.9,35,3.9Z"/>
      <path class="cls-25" d="M797.53,200.9l-8.04,8.59c-13.68,.63-31.85-6.13-45.3-16.72,15.12,9.32,38.08,13.9,41.14,10.99,3.06-2.9,11.04-9.91,11.04-9.91l1.16,7.05Z"/>
      <path class="cls-13" d="M895.17,314.99c-4.41,1.24-8.73,2.34-12.97,3.29-64.82,14.73-109.22-1.38-109.22-1.38,3.37-50.02,6.26-128.12,47.23-145.5,6.78-3.2,19.24-.66,25.63-.96,10.25,7.33,18.85,20.08,25.84,35.22,16.89,36.58,24.43,87.16,23.48,109.33Z"/>
      <path class="cls-5" d="M811.46,600.97c-.09,.77-.24,1.53-.45,2.28-.45,1.6-1.91,2.7-3.58,2.7h-49.82c-2.54,0-4.36-2.5-3.52-4.9,.01-.03,.02-.06,.03-.09,1.93-5.44,8-13.57,31.54-14.9,0,0,9.04,3.48,23.75,0,0,0,.7,1.23,1.27,2.94,.97,2.92,1.3,7.6,.77,11.97Z"/>
      <path class="cls-5" d="M888.1,605.95h-21.29c-2.68,0-4.84-2.22-4.73-4.9,0-.03,0-.06,0-.09,.27-5.85,2.74-14.78,15.37-14.9,12.67-.11,15.12,8.97,15.37,14.9,0,.03,0,.07,0,.1,.1,2.67-2.05,4.88-4.73,4.88Z"/>
      <path class="cls-28" d="M754.13,600.97h57.33c-.21,1.75-.69,3.45-1.57,4.98h-52.27c-2.54,0-4.36-2.5-3.52-4.9,.01-.03,.02-.06,.03-.09Z"/>
      <path class="cls-28" d="M888.1,605.95h-21.29c-2.68,0-4.84-2.22-4.73-4.9v-.09h30.74s0,.07,0,.1c.1,2.67-2.05,4.88-4.73,4.88Z"/>
      <path class="cls-8" d="M810.21,122.8s5.84-1.23,7.36-4.42c3.78-7.93,12.64-17.7,12.64-17.7,0,0-3.12-2.41-8.24-.83-5.12,1.58-15.24,12-15.24,12l3.49,10.95Z"/>
      <path class="cls-8" d="M869.77,348.62c2.12,1.69,5.23-2.77,7.7-3.14-.42,3.82-2.05,7.49-2.03,7.51-2.78,3.91-5.78,7.64-8.97,11.24-.8,7.08,10.67-6.72,12.34-8.02,.02,.01,.05,.02,.07,.04-1.88,4.61-4.04,9.11-6.6,13.38,.68,7.69,9.74-10.31,10.85-12.05,.01,0,.03,0,.04,0-.95,4.64-2.52,9.16-4.61,13.42,1.63,7.55,8.94-11.15,9.51-13.32,.02,0,.04,0,.06,0-.16,3.77-.84,7.51-1.73,11.17,2.56,6.94,6.37-10.25,6.63-12.28,.78-1.12,3.5-8.62,2.95-17.18-.18-2.81-10.17-5.63-11.61-3.3-1.08,1.75-5.87,4.27-6.82,5.14-2.15,1.41-8.84,4.53-7.78,7.38Z"/>
      <path class="cls-8" d="M897.86,338.28s0,0,0,.01c-.8,1-1.61,1.98-2.43,2.93l-11.06-5.13s.73-1.92,.74-1.95c2.49-6.96,10.05-31.97,4.53-65.3-5.91-35.67-34.13-56.15-37.82-91.48-.23-2.13-5.93-4.66-5.97-6.91,0,0,6.71,2.31,8.32,2.53,8.21,1.13,31.78,6.06,48.84,35.14,31.99,54.54,18.45,100.83-5.15,130.16Z"/>
      <path class="cls-25" d="M895.17,314.99c-4.41,1.24-8.73,2.34-12.97,3.29,2.32-16.35,1.6-37.89-1.09-53.26-3.04-17.41-22.86-51.19-22.86-51.19l13.43-8.16c16.89,36.58,24.43,87.16,23.48,109.33Z"/>
      <path class="cls-13" d="M898.48,339.1s-4.52-3.87-14.62-5.55c0,0,14.52-48.2-2.74-84.61-16.11-33.98-40.7-46.88-35.27-69.04,.5-2.05-.93-7.28,0-9.46,8.21,1.13,42.64,7.54,59.7,36.62,31.99,54.54,16.53,102.71-7.08,132.04Z"/>
      <path class="cls-12" d="M817.57,118.38s-2.72-15.32,10.73-20.29l8.5,6.38-19.23,13.9Z"/>
      <path class="cls-8" d="M826.68,169.73c-.19-1.42-.31-2.95-.37-4.55-.37-9.25,1.07-20.71,1.82-25,.21-1.16,.36-1.79,.41-1.72,.07-.27,.14-.54,.23-.8,.99-3.11,3.1-4.99,5.54-5.83h0c3.61-1.23,7.96-.19,10.61,2.54,.06,.06,.11,.12,.16,.17,1.68,1.81,2.62,4.32,2.17,7.38-.02,.14-.04,.28-.07,.42-.03,.19-.07,.38-.12,.57-.44-.29-1.69,11.76-1.7,20.5,0,2.88,.13,5.41,.47,7.01,17.94,5.38-27.18,11.68-19.17-.72Z"/>
      <path class="cls-17" d="M847.26,141.93c-.02,.14-.04,.28-.07,.42-.03,.19-.07,.38-.12,.57-.44-.29-1.69,11.76-1.7,20.5-8.22,3.74-17.39,2.09-19.07,1.75-.37-9.25,1.07-20.71,1.82-25,.22-1.01,.38-1.59,.41-1.72,.07-.27,.14-.54,.23-.8,.92-2.74,2.99-4.83,5.54-5.83h0c1.77-.69,3.75-.87,5.73-.39,1.96,.48,3.63,1.53,4.88,2.93,.06,.06,.11,.12,.16,.17,1.68,1.99,2.53,4.65,2.17,7.38Z"/>
      <path class="cls-8" d="M860.18,133.88c-1.38,8.56-4.27,18.22-11.04,23.88h-.01c-2.75,2.28-6.06,3.71-9.59,4.41-19.8,5.72-43.52-17.84-27.81-34.56,5.29-4.83,6.47-12.87,10.23-18.11,16.78-22.5,42.85,1.11,38.22,24.39Z"/>
      <path class="cls-30" d="M827.49,128.6c-.32-.64-.07-1.42,.57-1.74s1.42-.07,1.74,.57c.32,.64,.07,1.42-.57,1.74-.64,.32-1.42,.07-1.74-.57Z"/>
      <path class="cls-30" d="M816.59,126.77c-.32-.64-.07-1.42,.57-1.74,.64-.32,1.42-.07,1.74,.57,.32,.64,.07,1.42-.57,1.74-.64,.32-1.42,.07-1.74-.57Z"/>
      <path class="cls-17" d="M860.18,133.88c-.09,.71-.2,1.4-.33,2.11-.12,.64-.26,1.3-.41,1.95-.02,.09-.04,.17-.06,.25-.17,.68-.33,1.34-.49,1.99-.12,.43-.24,.87-.37,1.29-.14,.48-.28,.95-.43,1.41-.52,1.65-1.08,3.21-1.71,4.67-.42,.98-.87,1.92-1.34,2.8-1.61,2.99-3.54,5.46-5.89,7.4h-.01c-.56,.47-1.15,.9-1.76,1.29,5.15-5.11,8.13-16.07,8.13-16.07l-1.21-9.28c-8.31-8.42-4.73-17.89-4.73-17.89-13.9,3.9-18.58-4.68-18.58-4.68-4.39,.57-9.02-1.65-9.02-1.65,.38-.57,.77-1.12,1.17-1.63,.98-1.26,2.02-2.35,3.12-3.28,1-.84,2.05-1.55,3.16-2.12,.74-.39,1.52-.71,2.31-.97,.07-.02,.15-.05,.23-.07,1.83-.56,3.79-.81,5.91-.72,1.44,.06,2.94,.27,4.52,.64,3.66,.86,6.89,2.68,9.57,5.25,.11,.11,.21,.21,.32,.31,1.92,1.91,3.54,4.2,4.83,6.77,2.85,5.7,4.05,12.8,3.09,20.21Z"/>
      <path class="cls-12" d="M855.92,111.56s-10.13,4.6-.37,20.17l6.35,5.27s14.39-22.68-5.98-25.43Z"/>
      <path class="cls-30" d="M820.71,138.04c-1.73,0-3.61-.75-4.05-1.8-.15-.34-.34-1.22,.99-1.94,2.45-1.33,4.25-6.4,4.27-6.45,.09-.26,.37-.39,.62-.3,.26,.09,.39,.37,.3,.63-.08,.22-1.95,5.49-4.73,6.99-.32,.17-.67,.43-.56,.69,.32,.74,2.65,1.57,4.29,1.04,.26-.08,.53,.06,.62,.32,.08,.26-.06,.53-.32,.62-.44,.14-.93,.21-1.44,.21Z"/>
      <path class="cls-8" d="M865.62,138.21c-.87,4.11-4.26,6.88-7.56,6.18-3.31-.7-5.29-4.6-4.42-8.71,.87-4.11,4.26-6.88,7.56-6.18,3.31,.7,5.29,4.6,4.42,8.71Z"/>
      <path class="cls-30" d="M862.53,140.22s-.1,0-.14-.02c-.26-.08-.41-.35-.33-.61,.88-2.89,.85-4.87-.09-5.75-1.25-1.16-3.82-.18-3.84-.17-.25,.1-.54-.03-.64-.28-.1-.25,.03-.54,.28-.64,.13-.05,3.17-1.21,4.87,.36,1.25,1.16,1.38,3.43,.36,6.76-.06,.21-.26,.35-.47,.35Z"/>
      <path class="cls-30" d="M857.95,139.53c-.06,0-.13-.01-.19-.04-.25-.11-.37-.39-.26-.64,.07-.17,1.8-4.14,5.55-4.39,.27-.01,.5,.19,.52,.46,.02,.27-.19,.5-.46,.52-3.14,.21-4.7,3.76-4.72,3.8-.08,.19-.26,.3-.45,.3Z"/>
      <path class="cls-12" d="M856.24,96.55c-.5-.64-1.1-1.25-1.83-1.82-6.9-5.35-10.16-14.37-10.16-14.37,0,0-4.35,5.47-5.98,11.89-2.82-3.47-5.42-7.1-7.33-10.6,0,0-2.78,3.84-3.86,9.28-4.95-4.53-10.64-5.52-10.64-5.52-6.6,18.42,8.36,21.7,14.93,22.27,6.56,7.56,18.1,8.29,24.62,5.24l7.64,9.87c12.1-18.61-1.3-24.58-7.38-26.25Z"/>
      <path class="cls-7" d="M832.11,372.84c-7.32,63.16-10.99,152.65-12.17,185.88-.29,8.29-.43,13.08-.43,13.08-2.67,.62-5.27,1.09-7.77,1.45h-.03s.12-4.74,.34-12.65c1.03-36.97,4.18-143.39,6.97-160.72,3.38-21.03,13.08-27.04,13.08-27.04Z"/>
      <path class="cls-7" d="M819.94,558.72c-.29,8.29-.43,13.08-.43,13.08-2.67,.62-5.27,1.09-7.77,1.45-19.09,2.71-32.72-1.45-32.72-1.45,0,0-.56-4.7-1.41-13.08,0,0,11.93,6.26,34.45,1.88,2.49-.49,5.13-1.1,7.89-1.88Z"/>
      <path class="cls-7" d="M896.47,558.91c-.25,8.09-.41,12.88-.41,12.88-19.96,8.22-40.6,.52-40.6,.52l-1.39-11.88s21.66,8.33,42.4-1.52h0Z"/>
      <path class="cls-25" d="M826.68,169.73s-3.59-2.77-8.2-2.18c0,0-6.36,10.67,3.31,16.31,0,0,1.6-4.99,6.52-5.89,0,0-1.52,4.74-.97,7.64,0,0,13.24-.52,21.77-7.52,3.01-2.47,5.09-6.03,5.09-6.03,0,0-3.78-2.68-8.36-1.6,0,0-7.8,6.2-15.16,5.2-6.2-.84-4.01-5.91-4.01-5.91Z"/>
      <path class="cls-30" d="M822.04,147.02c.32,.18,.68,.27,1.05,.27,1.09,0,2.3-.76,3.03-2.02,.41-.71,.6-1.46,.6-2.16,0-.97-.39-1.82-1.13-2.25-1.27-.73-3.1,.05-4.08,1.75-.98,1.7-.74,3.67,.53,4.41Zm.3-3.94c.71-1.22,1.99-1.87,2.78-1.4,.8,.46,.89,1.89,.18,3.11-.71,1.23-1.99,1.87-2.78,1.4-.81-.46-.89-1.89-.18-3.12Z"/>
      <path class="cls-30" d="M833.67,126.41c.2,0,.39-.1,.51-.28,.17-.28,.08-.64-.2-.81-.04-.02-3.98-2.44-6.12-5.88-.17-.28-.54-.36-.81-.19-.28,.17-.36,.54-.19,.81,2.3,3.69,6.35,6.17,6.52,6.27,.1,.06,.2,.09,.3,.09Z"/>
      <path class="cls-30" d="M816.16,122.9c.08,0,.16-.02,.24-.05,3.04-1.34,6.17-2.86,6.2-2.87,.29-.14,.42-.5,.27-.79-.14-.29-.5-.41-.79-.27-.03,.02-3.14,1.52-6.16,2.85-.3,.13-.43,.48-.3,.78,.1,.22,.31,.35,.54,.35Z"/>
    </g>
    <g id="_3" data-name="3">
      <polygon class="cls-8" points="597.57 386.81 605.56 371.66 590.7 362.15 588.57 380.67 597.57 386.81"/>
      <path class="cls-10" d="M590.28,365.04s5.11,4.22,15.28,6.62c7.77-11.83,20.45-30.38,26.07-43.33,8.93-68.2,20.69-91.31,22.81-95.4-54.85,14.47-56.54,89.41-64.16,132.11Z"/>
      <path class="cls-7" d="M590.28,365.04s5.11,4.22,15.28,6.62c0,0,1.72-2.55,4.25-6.41l-.79-1.36s-8.69-1.78-17.46-6.66c-.41,2.76-.84,5.37-1.28,7.81Z"/>
      <path class="cls-8" d="M686.59,614.42c.8-.54,27.59,.26,26.75-2.05l.25-.32c0-3.67-.17-5.77-1.79-8.61-2.08-3.65-2.95-8.06-2.58-12.42,.61-3.02,19.84-93.66,5.15-109.32-6.59-6.98-36.38-5.03-40.12,5.48-6.72,24.4,20.67,104.23,11.95,116.29-1.24,2.16-2.09,5.18-2.42,7.54-.09,.63,2.17,3.41,2.81,3.41Z"/>
      <path class="cls-8" d="M589.8,614.42h54.04c.73-5.37-2.73-17.3-.83-26.16,0,0,22.76-80.85,9.61-97.59-6.44-8.19-27.51-21.2-34.05-13.08-13.77,17.09,3.02,111.02,3.02,111.02,.51,18.75-29.05,7.7-34.61,22-.72,1.85,.84,3.81,2.82,3.81Z"/>
      <path class="cls-5" d="M589.5,614.42h54.34c.82-5.64-1.25-14.88-1.41-20.27,0,0-9.22,15.42-45.91,9.07-4.77,1.36-8.46,3.4-9.67,7.79-.48,1.71,.86,3.41,2.64,3.41Z"/>
      <path class="cls-5" d="M683.78,611.01h0c0,.58,2.23,3.41,2.81,3.41h24.25c5.76-.52,2.46-7.88,.96-10.98-2.15-4.42-25.89-13.2-28.02,7.57Z"/>
      <path class="cls-16" d="M669.42,154.44c-24.33-7.28-20.88,17.16-33.3,29.86-5.72,7.53-6.36,15.34-4.41,21.52,1.96,6.18-2.41,10-4.31,15.45-1.91,5.45-1.89,10.3,1.09,13.08,5.68,5.3,28.72,9.27,32.49,1.91,3.77-7.36,8.45-81.82,8.45-81.82Z"/>
      <path class="cls-8" d="M622.29,362.15h78.94c-3.99-18.76-5.84-38.47-6.02-57.66-2.34-26.11,15.12-65.05-19.14-75.98-1.04-7.57-.25-21.26,1.25-28,3.21-12.1-16.21-16.78-18.85-4.54-.74,2.32-2.54,22.32-2.28,31.79,.2,9.43-14.62,10.36-17.57,20.66-11.5,36.64-16.74,75.35-16.33,113.73Z"/>
      <path class="cls-17" d="M656.22,221.94c4.23,1.02,14.73,1.9,21.36-2.23-.03-.89-1.97-.08-2.01-.94,.03-7.65,.76-13.77,1.85-18.83,2.08-11.59-15.01-15.94-18.73-4.77-1.06,3.37-1.99,14.89-2.48,26.78Z"/>
      <path class="cls-8" d="M644.96,212c6.61,6.75,16.81,8.64,24.98,6.9,.46-.1,.93-.2,1.38-.32,17.64-4.57,22.74-32.01,15.48-46.29-4.36-9.73-16.75-15.66-26.59-10.78-6.88,3.65-9.49,10.66-12.56,18.04-.92,1.92-2.7,4.43-4.44,6.13-6.67,6.72-6.68,17.27,1.75,26.32Z"/>
      <path class="cls-8" d="M695,195.86c-2.02,9.35-13.45,6.94-11.51-2.43,2.02-9.35,13.45-6.94,11.51,2.43Z"/>
      <path class="cls-6" d="M650.18,201.24l10.79-5.51c.98,6.55-5.85,10.74-10.79,5.51Z"/>
      <path class="cls-30" d="M692.03,197.8c.2,0,.39-.13,.45-.33,2.13-5.96-1.1-8.45-5.02-6.84-.57,.22-.22,1.11,.34,.88,3.36-1.38,5.56,.71,3.78,5.69-.1,.3,.14,.61,.45,.61Z"/>
      <path class="cls-30" d="M687.63,197.14c.85-.11,1.33-3.56,4.97-3.94,.26-.02,.46-.24,.44-.5-.02-.26-.24-.46-.5-.44-3.62,.3-6.33,4.67-4.9,4.88Z"/>
      <path class="cls-30" d="M658.36,186.63c-.75-1.43,1.51-2.58,2.22-1.13,.75,1.43-1.51,2.58-2.22,1.13Z"/>
      <path class="cls-17" d="M666.84,178.64c10.89,4.62,1.42,16.69,4.04,25.5l6.71-23.76c-3.82-4.82-11.26-14.86-14.61-19.96-2.12,.6-4.01,1.65-5.72,3.07,0,0-1.31,10.54,9.58,15.15Z"/>
      <path class="cls-30" d="M647.89,184.87c-.75-1.43,1.51-2.58,2.22-1.13,.75,1.43-1.51,2.58-2.22,1.13Z"/>
      <path class="cls-30" d="M650.18,201.71c.27,.03,10.77-5.5,11.01-5.57,.23-.12,.32-.4,.2-.63,.08-1.2-11.19,5.45-11.43,5.31-.44,.21-.26,.91,.21,.89Z"/>
      <path class="cls-30" d="M651.85,195.7c.59-.06,1.82,.05,1.69-.79-.08-.25-.35-.38-.59-.31-1.59,.56-5.44-.54-3.59-1.67,2.67-1.45,4.47-6.51,4.54-6.72,.21-.57-.7-.89-.89-.31-.02,.05-1.75,4.93-4.1,6.2-2.89,2.03,.66,3.56,2.94,3.59Z"/>
      <path class="cls-10" d="M600.56,502.83s64.75,21.51,137.07,.73c-13.48-64.61-6.73-123.43-30.25-171.19-6.73-13.2-2.73-42.36,14.35-41.68,7.7,1.06-32.14-24.2-34.42-33.94-3.66-15.62-6.19-25.71-6.35-26.36-11.03,7.06-15.73,32.81-26.5,32.21-6.97-.38-.02-29.68-.02-29.68-11.88,6.21-17.88,14.76-22.25,27.34-.06,0-.11,.02-.17,.02-27.12,78.95-31.03,183.09-31.46,242.54Z"/>
      <path class="cls-7" d="M705.16,325.64c-2.75-10.31,1.19-22.05,3.43-32.02h-12.46s-.5,23.88,11.25,38.75c-.99-2.46-1.78-4.75-2.22-6.73Z"/>
      <path class="cls-8" d="M685.4,262.46c20.33,10.06,29.12,36.49,29.18,60.26-.67,17.51-16.29,31.78-28.01,43.66-9.13,47.72,139.18-64.78-3.03-135.3,0,0,1.31,31.11,1.86,31.38Z"/>
      <path class="cls-10" d="M680.96,230.39c2.92,9.8-1.06,45.97,16.74,65.01,16.83,17.47,16.27,41.36,.89,58.32,2.09,10.82,13.15,15.66,13.28,15.59,14.43-7.61,32.83-24.2,39.55-41.86,16.05-44.25-29.52-91.48-70.46-97.07Z"/>
      <path class="cls-14" d="M642.96,271.5c6.2-3.75,10.39-2.74,15.97,1.88,5.59,4.62,15.19,7.65,16.2-2.45,.66-10.51,9.23-11.15,15.84-16.74,9.79-7.36,2.62-19.97,2.62-19.97-7.54-3.05-12.65-3.82-12.64-3.82-11.03,7.06-15.73,32.81-26.5,32.21-6.97-.38-.02-29.68-.02-29.68-7.41-.49-14.98,6.1-14.98,6.1,1.84,5.1,8.09,7.23,2.2,14.58-6.35,7.93-4.9,21.64,1.3,17.89Z"/>
      <path class="cls-16" d="M660.21,161.51c12.29-16.5,45.63-12.41,51.29,10.43,.82,4.63,6.33,7.28,8.34,12.36,2.01,5.08,1,10.09-.53,15.35s2.28,9.89,3.37,13.98c1.09,4.09,1.64,10.56,0,14.14-1.64,3.58,1.79,6.58,1.03,12.3-.76,5.72-45.52,7.09-54.29-1.09-8.77-8.18,3.96-15.95,4.68-21.33,.72-5.38-4.19-9.2-3.09-16.42,1.09-7.22,3.46-10.29,3.09-16.93-.37-6.64-17.04-9.24-13.89-22.8Z"/>
      <path class="cls-1" d="M680.06,353.95s3.85,15.59,21.93,27.13l-9.89,9.04s-15.12-10.77-23-28.08l10.96-8.08Z"/>
      <path class="cls-7" d="M705.64,384.32c1.45,.05,1.96-2.11,.6-2.69-.2-.09-19.58-9.29-24.81-28.06-.21-.75-.99-1.19-1.74-.98-.75,.21-1.19,.99-.98,1.74,6.12,20.41,25.2,29.58,26.94,29.99Z"/>
      <path class="cls-7" d="M600.56,502.83s64.75,21.51,137.07,.73l-2.14-11.17s-55.43,20.22-134.8-1.72c-.13,7.7-.13,12.16-.13,12.16Z"/>
      <path class="cls-7" d="M609.03,363.89c1.41-11.69,5.38-33.97,6.72-40.94,1.34-6.97-9-22.89,1.1-34.58,5.56-6.43,12.12-22.79,12.12-22.79,0,0-6.06,12.41-13.95,21.45-7.89,9.04-5.77,18.66-2.89,29.24,3.93,9.54-7.12,40.61-3.11,47.62Z"/>
      <path class="cls-7" d="M698.59,353.72c2.09,10.82,13.15,15.66,13.28,15.59,2.19-1.13,5.55-3.26,8.23-5.04,0,0-8.2-2.27-16.77-16.64-2.31,3.59-4.75,6.08-4.75,6.08Z"/>
      <path class="cls-7" d="M701.99,351.91c5.74-5.08,7.35-15.71,7.43-15.59,.2-1.08-1.5-1.37-1.67-.28-.01,.08-1.46,8.31-6.42,14.49-.45,.53-.02,1.4,.66,1.38Z"/>
      <path class="cls-8" d="M594.03,387.02c3.9,7.48-1.16,16.69,2.15,16.96,3.17,.23,2.91-7.57,3.28-9.87,.04-3.07-.25-6.28-1.5-9.14-1.3-2.57-5.3-.48-3.93,2.05Z"/>
      <path class="cls-8" d="M593.35,389.69c-6.05,5.31-4.97,14.51-1.4,20.92,.86,1.88,3.81,.59,3.02-1.32-.87-2.08-1.73-4.47-1.93-6.72-.39-3.3,.48-7.05,3.09-9.19,2.43-1.77-.4-5.53-2.77-3.7Z"/>
      <path class="cls-8" d="M597.85,385.99s-7.69,12.46-5.77,24.29c0,0-15.97-.4-3.5-29.61,0,0,7.22,1.32,9.28,5.32Z"/>
      <path class="cls-17" d="M591.47,410.2c1.69-.68-4.11-5.62-.72-14.56,.09-.26-.04-.54-.3-.63-.26-.09-.54,.04-.63,.3-2.93,8.73,.89,14.59,1.65,14.89Z"/>
      <path class="cls-17" d="M587.84,408.37c.39,.01,.64-.47,.4-.78h0s-3.45-5.03-.37-13.83c.09-.26-.05-.54-.3-.63-.26-.09-.54,.05-.63,.3-3.19,9.66,.11,14.61,.9,14.94Z"/>
      <path class="cls-27" d="M683.78,611.01c-.25,1.81,1.21,3.41,3.03,3.41h24.4c1.82,0,3.15-1.6,2.9-3.41h-30.33Z"/>
      <path class="cls-27" d="M589.5,614.42h54.34s.25-1.21,.19-3.41h-57.18c-.48,1.71,.86,3.41,2.64,3.41Z"/>
      <path class="cls-30" d="M647.35,181.39c-.28,0-.51-.23-.52-.51,0-.28,.22-.52,.51-.52,.04,0,3.69-.08,5.99-1.5,.24-.15,.56-.07,.71,.17,.15,.24,.07,.56-.17,.71-2.55,1.58-6.36,1.65-6.52,1.66h0Z"/>
      <path class="cls-30" d="M663.95,185.72c-.08,0-.15-.02-.23-.05-3.38-1.66-5.79-4.33-5.89-4.44-.19-.21-.17-.54,.04-.73,.21-.19,.54-.17,.73,.04,.02,.03,2.38,2.64,5.58,4.21,.26,.13,.36,.43,.24,.69-.09,.18-.27,.29-.46,.29Z"/>
    </g>
    <g id="_2" data-name="2">
      <polygon class="cls-11" points="106.53 633.56 188.7 633.56 188.7 322.19 106.53 195.98 106.53 633.56"/>
      <polygon class="cls-11" points="76.32 633.56 148.08 633.56 106.53 195.98 76.32 195.98 76.32 633.56"/>
      <rect class="cls-19" x="188.7" y="322.19" width="164.34" height="311.37" transform="translate(541.74 955.75) rotate(180)"/>
      <polygon class="cls-19" points="105.34 195.98 269.68 195.98 353.04 322.19 188.7 322.19 105.34 195.98"/>
      <polygon class="cls-5" points="150.92 210.41 162.81 228.4 197.12 280.37 288.21 280.37 242.01 210.41 150.92 210.41"/>
      <polygon class="cls-10" points="308.76 311.18 217.67 311.18 210.89 300.93 209.9 299.43 203.04 289.05 294.13 289.05 300.91 299.3 301.9 300.8 308.76 311.18"/>
      <path class="cls-3" d="M245.45,397.8c-.19-.48-.66-.8-1.18-.8h-8.07c-.52,0-.99,.32-1.18,.81l-14.72,37.78c-.15,.39-.1,.83,.13,1.18,.24,.35,.63,.55,1.05,.55h8.09c.53,0,1.01-.33,1.19-.84l2.82-7.75h13.34l2.99,7.77c.19,.49,.66,.81,1.18,.81h8.3c.42,0,.81-.21,1.05-.56,.24-.35,.28-.79,.13-1.18l-15.13-37.78Zm-1.92,22.04h-6.67l3.3-9.08,3.37,9.08Z"/>
      <path class="cls-3" d="M286.85,397.01h-30.03c-.7,0-1.27,.57-1.27,1.27v6.39c0,.7,.57,1.27,1.27,1.27h9.94v30.12c0,.7,.57,1.27,1.27,1.27h7.63c.7,0,1.27-.57,1.27-1.27v-30.12h9.92c.7,0,1.27-.57,1.27-1.27v-6.39c0-.7-.57-1.27-1.27-1.27Z"/>
      <path class="cls-3" d="M329.98,397.01h-11.44c-.58,0-1.08,.39-1.23,.95l-5.56,21.14-5.62-21.14c-.15-.56-.65-.94-1.23-.94h-11.42c-.7,0-1.27,.57-1.27,1.27v37.78c0,.7,.57,1.27,1.27,1.27h7.09c.7,0,1.27-.57,1.27-1.27v-19.49l4.98,19.8c.14,.56,.65,.96,1.23,.96h7.35c.58,0,1.09-.39,1.23-.96l5-19.83v19.52c0,.7,.57,1.27,1.27,1.27h7.09c.7,0,1.27-.57,1.27-1.27v-37.78c0-.7-.57-1.27-1.27-1.27Z"/>
      <path class="cls-11" d="M207.25,351.25h127.23c3.45,0,6.25-2.8,6.25-6.25h0c0-3.45-2.8-6.25-6.25-6.25h-127.23c-3.45,0-6.25,2.8-6.25,6.25h0c0,3.45,2.8,6.25,6.25,6.25Z"/>
      <rect class="cls-11" x="201.01" y="357.63" width="139.72" height="12.49" rx="4.19" ry="4.19" transform="translate(541.74 727.76) rotate(-180)"/>
      <path class="cls-19" d="M97.57,592.52h67.15c3.45,0,6.25-2.8,6.25-6.25h0c0-3.45-2.8-6.25-6.25-6.25H97.57c-3.45,0-6.25,2.8-6.25,6.25h0c0,3.45,2.8,6.25,6.25,6.25Z"/>
      <path class="cls-19" d="M97.57,611.27h67.15c3.45,0,6.25-2.8,6.25-6.25h0c0-3.45-2.8-6.25-6.25-6.25H97.57c-3.45,0-6.25,2.8-6.25,6.25h0c0,3.45,2.8,6.25,6.25,6.25Z"/>
      <path class="cls-19" d="M97.57,555.04h67.15c3.45,0,6.25-2.8,6.25-6.25h0c0-3.45-2.8-6.25-6.25-6.25H97.57c-3.45,0-6.25,2.8-6.25,6.25h0c0,3.45,2.8,6.25,6.25,6.25Z"/>
      <path class="cls-19" d="M97.57,573.78h67.15c3.45,0,6.25-2.8,6.25-6.25h0c0-3.45-2.8-6.25-6.25-6.25H97.57c-3.45,0-6.25,2.8-6.25,6.25h0c0,3.45,2.8,6.25,6.25,6.25Z"/>
      <polygon class="cls-4" points="173.5 210.41 242.81 280.37 274.06 280.37 204.75 210.41 173.5 210.41"/>
      <polygon class="cls-4" points="150.92 210.41 162.81 228.4 214.29 280.37 229.91 280.37 160.6 210.41 150.92 210.41"/>
      <path class="cls-22" d="M301.9,300.8l-1-1.5h-17.25l-6.77-10.25h-1.78c0,.16,.03,.29,.13,.44l6.48,9.81h-16.27l-6.77-10.25h-1.79c0,.15,.05,.31,.15,.44l6.46,9.81h-16.25l-6.77-10.25h-1.8c0,.16,.03,.29,.13,.44l6.48,9.81h-16.27l-6.77-10.25h-1.78c0,.16,.03,.29,.13,.44l6.48,9.81h-16.71c-.16,0-.33,.05-.46,.13l1,1.5h17.25l6.77,10.25h1.78c0-.16-.03-.29-.13-.44l-6.48-9.81h16.27l6.77,10.25h1.8c0-.15-.05-.31-.15-.44l-6.46-9.81h16.25l6.77,10.25h1.8c0-.16-.03-.29-.13-.44l-6.48-9.81h16.27l6.77,10.25h1.78c0-.16-.03-.29-.13-.44l-6.48-9.81h16.71c.16,0,.33-.05,.46-.13Z"/>
    </g>
    <g id="_1" data-name="1">
      <path class="cls-8" d="M451.44,302.99c-41.73,42.65-109.03,41.11-157.7,11.28-5.77-3.29-2.57-12.72,3.94-11.89,52.11,7.11,86.74,10.82,129.07-25.31,17.03-16.08,41.58,9.7,24.7,25.92Z"/>
      <path class="cls-8" d="M513.08,632.87l41.19-20.88c-1.27-2.03-6.34-6.39-9-15.44-14.37-48.87-37.14-95.87-40.68-103.42l-38.17,7.9,60.04,99.53c2.3,3.4,1.85,7.95-1.05,10.85-6.14,6.67-15.01,9.62-17.4,17.73-.49,2.85,2.49,5.04,5.07,3.73Z"/>
      <path class="cls-20" d="M553.51,607.37c.54,1.49,.84,3.04,.76,4.63l-41.83,21.2c-2.03,1.03-4.52-.22-4.82-2.48-.68-5.29,1.53-14.59,20.3-25.37,0,0,7.55-1.37,17.34-8.79,0,0,6.05,4.79,8.24,10.82Z"/>
      <path class="cls-29" d="M519.19,622.99c-.33,.16-.74,.12-1.04-.14-3.45-3-6.8-2.76-6.94-2.75-1.22,.12-1.4-1.8-.17-1.89,.17-.02,4.27-.36,8.36,3.21,.51,.43,.39,1.29-.21,1.57Z"/>
      <path class="cls-29" d="M525.37,618.86c-.36,.18-.81,.11-1.1-.19-3.55-3.67-8.42-3.78-8.46-3.78-3.97-2.95,5.48-2.42,9.83,2.46,.45,.45,.31,1.25-.27,1.51Z"/>
      <path class="cls-29" d="M532.4,614.14c-.35,.17-.78,.11-1.08-.17-3.89-3.74-8.8-4.37-8.85-4.37-3.62-3.37,5.57-1.72,10.16,3,.48,.44,.34,1.27-.24,1.54Z"/>
      <path class="cls-2" d="M507.62,630.63l45.89-23.26c.54,1.49,.84,3.04,.76,4.63l-41.83,21.2c-2.06,1.05-4.58-.27-4.83-2.56Z"/>
      <path class="cls-8" d="M382.11,631.91l46.86-.13c.79-2.47-1.84-13.75-1.1-17.84,15.76-86.99,13.52-117.86,13.78-121.3l-44.73-3.46,12.34,119.88c.52,4.07-1.92,7.93-5.82,9.22-8.68,3.43-19.29,1.57-24.24,9.22-.98,2.05,.62,4.42,2.9,4.41Z"/>
      <path class="cls-20" d="M430.36,627.3c-.18,1.57-.61,3.1-1.4,4.48l-46.89,.13c-2.28,0-3.94-2.23-3.19-4.39,1.76-5.03,7.92-12.34,29.53-13.53,0,0,7.36,2.17,19.44-.05,0,0,3.26,7,2.5,13.37Z"/>
      <path class="cls-29" d="M392.08,625.6c-1.57-3.82-5.1-6.14-5.23-5.94-1.14-.44-.44-2.23,.7-1.77,.16,.06,3.97,1.6,6.03,6.62,.4,.89-.79,1.73-1.49,1.08Z"/>
      <path class="cls-29" d="M399.46,624.69c-1.43-4.45-6.04-7.86-6.15-7.63-1.1-.54-.21-2.27,.87-1.69,.2,.11,5.03,2.65,6.8,8.3,.31,.88-.85,1.63-1.52,1.01Z"/>
      <path class="cls-29" d="M407.86,623.64c-2.18-6.3-7.37-8.08-6.49-9.61,1.29-1.5,5.53,2.58,8,8.57,.34,.88-.82,1.67-1.51,1.04Z"/>
      <path class="cls-2" d="M378.92,627.45l51.44-.14c-.18,1.57-.61,3.1-1.4,4.48l-46.89,.13c-2.31,0-3.97-2.3-3.16-4.46Z"/>
      <path class="cls-8" d="M454.15,256.07c67.16,2.47,137.18,72.09,47.5,109.04-9.13,3.43-12.8-7.31-5.45-12.38,50.68-40.69-9.9-55.21-46.13-61.09-23.06-3.32-19.09-37.57,4.08-35.57Z"/>
      <path class="cls-5" d="M545.13,311.33c-.5,2.23-1.3,3.39-1.3,3.39,.34-.56-21.81-1.77-28.52,7.24-3.34-.08-9.57-3.27-12.95-7.68-5.94-6.54-18.33-11.31-24-13.42l-28.82-54.9c14.05-5.42,100.33,24.34,95.6,65.37Z"/>
      <path class="cls-29" d="M393.86,489.18c.5,6.02,.88,9.54,.88,9.54,59.07,21.53,115.98,.29,115.98,.29-.07-2.46-.02-4.97,.12-7.54,1.32-26.15,11.68-58.39,7.09-90.91-5.05-35.72-17.52-55.35-17.52-55.35l-98.13,5.25c-15.37,35.19-10.66,111.86-8.42,138.72Z"/>
      <path class="cls-21" d="M498.47,495.51c-.02-.24-2.29-24.2,1.63-67.55,3.86-42.69-12.35-81.61-12.51-82l3.6-1.52c.17,.4,16.75,40.22,12.8,83.87-3.89,42.99-1.66,66.58-1.64,66.81l-3.89,.38Z"/>
      <path class="cls-21" d="M405.82,497.59c-9.31-68.72,6-148.14,6.16-148.94l3.83,.75c-.15,.79-15.34,79.59-6.12,147.66l-3.87,.52Z"/>
      <path class="cls-21" d="M422.09,501.15c-3.26-51.93,3.88-149.65,3.95-150.63l3.9,.29c-.07,.98-7.19,98.43-3.95,150.1l-3.9,.25Z"/>
      <path class="cls-21" d="M439.64,501.03c0-.39-.08-39.1,2.86-72.4,2.92-33.06,.03-77.4,0-77.84l3.9-.26c.03,.45,2.94,45.09,0,78.44-2.92,33.11-2.84,71.66-2.84,72.04h-3.91Z"/>
      <path class="cls-21" d="M464.47,501.09c-.01-.37-1.23-37.09,0-72.35,1.22-35-5.78-78.16-5.85-78.59l3.86-.63c.07,.44,7.14,43.97,5.9,79.36-1.22,35.13-.01,71.72,0,72.09l-3.91,.13Z"/>
      <path class="cls-21" d="M481.7,497.57c-1.5-16.01-1.1-32.08-.55-54.33,.17-6.82,.36-14.54,.51-23.01,.64-35.38-9.01-71.2-9.1-71.56l3.77-1.03c.1,.36,9.9,36.7,9.24,72.66-.16,8.48-.35,16.22-.51,23.04-.56,22.94-.94,38.1,.54,53.87l-3.89,.36Z"/>
      <rect class="cls-8" x="431.88" y="226.47" width="16.81" height="21.64" transform="translate(-20.01 41.61) rotate(-5.29)"/>
      <path class="cls-8" d="M461.72,209.9c1.68,32.99-51.5,33.06-49.35-.43,.12-6.61,2.05-11.18,2.19-21.71,.31-24.38,34.52-28.85,39.94-3.88,2.13,9.85,6.45,16.86,7.22,26.03Z"/>
      <path class="cls-15" d="M518.28,318.81c-1,.74-2.1,2.19-2.97,3.15,0,0-6.67-.39-12.95-7.68-5.08-5.89-17.65-11.04-22.26-12.79l4.9-15.41s12.83,11.64,19.44,23.09c6.45,11.18,13.47,9.68,13.84,9.63Z"/>
      <path class="cls-5" d="M500.41,345.2s-37.55,13.87-92.25,6.15c-1.94-.28-3.89-.58-5.87-.9-.05-.5-.09-1.01-.12-1.54-.08-1.21-.14-2.51-.17-3.88-.05-2.02-.05-4.2,.01-6.5,.18-7.69,.88-16.71,1.91-25.47,.02-.14,.03-.28,.05-.42,.94-7.95,2.15-15.66,3.46-21.96,2.77-20.75,12.85-36.12,25.14-42.91,21.73-12.04,50.34,2.75,57.53,61.97,2.6,15.55,4.18,22.66,10.32,35.47Z"/>
      <path class="cls-15" d="M401.99,345.03c-.05-2.02-.05-4.2,.01-6.5,.18-7.69,.88-16.71,1.91-25.47,.02-.14,.03-.28,.05-.42l36.28-30.87s8.44,46.16-38.26,63.26Z"/>
      <path class="cls-15" d="M545.13,311.33c-.5,2.23-1.3,3.39-1.3,3.39,.34-.56-21.81-1.77-28.52,7.24,0,0-1.46-.12-4.59-1.47,0,0,13.22-17.67,34.41-9.16Z"/>
      <path class="cls-21" d="M393.86,489.18c.5,6.02,.88,9.54,.88,9.54,59.07,21.53,115.98,.29,115.98,.29-.07-2.46-.02-4.97,.12-7.54h0s-62.87,18.45-116.97-2.29Z"/>
      <path class="cls-5" d="M428.08,319.99c-9.93,13.93-31.78,23.02-46.64,26.05t-.02,0h0c-5.44,1.11-10.95,1.35-16.43,.52-6.39-.95-12.74-3.34-18.86-7.45h0c-2.71-2.85-3.53-5.42-3.53-5.42,8.42-13.32,2.74-26.9,2.74-26.9,9.9-10.01,22.77-7.82,43.46-15.28,16.82-6.07,18.88-34.99,43.39-44.01,0,0,24.08,32.94-4.1,72.47Z"/>
      <path class="cls-15" d="M352.11,301.89c7.75,26.72-5.98,37.24-5.98,37.24-2.71-2.85-3.53-5.42-3.53-5.42,8.42-13.31,2.74-26.9,2.74-26.9,1.65-2.26,4.51-3.75,6.78-4.92Z"/>
      <path class="cls-8" d="M288.66,300.12c-6.78-1.94-14.01-2.23-20.87-.63-2.4,1-8.28,1.26-7.48,4.83,.39,.87,1.35,1.3,2.24,1.06,7.61-2.3,16.05-1.28,23.23,1.95,4.96,2.64,8.3-5.7,2.88-7.22Z"/>
      <path class="cls-8" d="M297.42,315.44s-9.54,4.55-17.02,.99c-7.48-3.56-7.29-12.2-7.29-12.2,0,0,20.54-2.7,24.32,11.2Z"/>
      <path class="cls-8" d="M295.45,301.35s-13.15-.83-22.05,4.64l20.2,3.24,1.86-7.88Z"/>
      <path class="cls-8" d="M276.96,294.98c.28,1.01,.98,1.87,1.85,2.45,4.2,2.77,8.93,5.41,11.76,9.54,4.04,5.39,12.26-1,6.84-4.8-1.77-2.13-22.16-13.34-20.46-7.18Z"/>
      <path class="cls-17" d="M279.98,307.77c.03-.06,.05-.12,.05-.19,0-.22-.18-.4-.4-.4-4.5,.02-5.61,2-5.63,2.06-.1,.2-.03,.44,.17,.54,.2,.1,.44,.03,.54-.16,.02-.03,.99-1.62,4.92-1.63,.15,0,.29-.09,.35-.21Z"/>
      <path class="cls-17" d="M281.53,312.11c.03-.06,.05-.14,.05-.21-.01-.22-.2-.39-.42-.38-3.23,.17-4.42,1.49-4.46,1.55-.15,.17-.13,.42,.04,.57,.17,.14,.42,.13,.57-.04,.02-.03,1.06-1.13,3.9-1.27,.15,0,.27-.09,.33-.21Z"/>
      <path class="cls-26" d="M417.03,175.08s-12.67,4.2,.8,24.47c8.33,12.53-12.91,31.5,4.12,48.5,39.52,51.97,153.92,19.38,91.16-28.44-16.66-12.7-17.94-21.9-24.13-34.65-8.25-16.99-45.66-48.93-71.95-9.87Z"/>
    </g>
  </g>
  <text class="cls-9" transform="translate(268.7 802.38)"><tspan class="cls-24" x="0" y="0">Q</tspan><tspan class="cls-23" x="114.45" y="0">u</tspan><tspan class="cls-18" x="204.6" y="0">e</tspan><tspan class="cls-23" x="287.25" y="0">u</tspan><tspan x="377.4" y="0">e</tspan></text>
</svg>