<svg id="Layer_1" data-name="Layer 1" xmlns="http://www.w3.org/2000/svg" viewBox="0 0 1000 1000"><defs><style>.cls-1{fill:#e289f4;stroke:#b651ce;stroke-miterlimit:10;stroke-width:3px;}.cls-2{fill:#c48fd1;}.cls-3{fill:#e9bdf4;}</style></defs><title>pillow</title><path class="cls-1" d="M648.56,777.55s12.3,20,28.39,28.39c16.9,8.83,37.73,6,42.58,2.37,3-2.29,7.55-16.1,4.73-28.39-1.93-8.38-6.14-18.41-7.1-21.29-1.39-4.17-9.46-11.83-9.46-11.83s82.79-26,127.73-89.89S887.48,484.23,882.74,470c0,0,73.34-42.58,75.7-63.87S946.61,370.69,923,361.23s-97-11.83-97-11.83S698.24,247.68,530.29,245.32s-286.23,33.12-286.23,33.12-54.41-59.14-101.71-33.12S163.63,347,163.63,347,52.46,425.1,80.84,578.85c1,5.69-33.11,23.66-28.38,35.49.39,1,.71,11.52,4.73,18.92,4.35,8,12.55,12.94,16.56,14.19,37.84,11.83,50-17.27,52-14.19C212.14,762.66,648.56,777.55,648.56,777.55Z"/><path class="cls-2" d="M666.63,733.45c-2-1.23,0,9.56-14.11-47.79s7.05-145.78,32.92-179.23,65.84-69.31,98.77-86,75.25-33.46,96.41-40.63,63.49-9.56,51.74,2.39-70.55,59.74-75.26,64.52-4.7,23.9-4.7,45.41-11.76,107.54-35.27,133.82-47,52.58-68.2,66.92-65.84,28.67-70.55,35.84S678.38,740.62,666.63,733.45Z"/><path class="cls-3" d="M808.16,468.42S647.3,603.25,694.61,683.68c0,0,35.48-42.58,78.06-111.18S808.16,468.42,808.16,468.42Z"/><path class="cls-3" d="M724.18,377.34c4.73-7.09,40.21-18.92,66.23-16.55s63.87,4.73,40.22,14.19-56.77,4.73-75.7,7.1S724.18,377.34,724.18,377.34Z"/><path class="cls-3" d="M688.7,337.13s-97-42.58-144.3-44.94-170.31-18.93-220,0-74.74,21.68-84.68,30.94,9,21.1,35,14,101.71-14.19,125.37-16.56,4.73-2.36,28.38-2.36,94.62-2.37,134.84,0S688.7,337.13,688.7,337.13Z"/><path class="cls-3" d="M458.78,508.7C430.4,506.33,303.11,494,268.59,493.08s-46.36-3.31-74.74,10.88-49.68,40.22-66.24,26-30.75-37.85-26-47.31-4.73,11.82,9.47-16.56,35.48-80.43,47.31-94.62,23.65-14.2,11.82-28.39-37.84-54.41-35.48-61.5,21.29-7.1,21.29-7.1v11.83c0,7.1,0,9.46,2.37,11.83s7.09,11.82,16.55,21.29,21.29-4.73,21.29,9.46-21.29,56.77-26,71,2.37,61.51,2.37,61.51S257.72,433,354.7,470.85,458.78,508.7,458.78,508.7Z"/><path class="cls-3" d="M80.39,540.82s4.73,30.75,4.73,37.85-2.36,11.83-9.46,16.56S59.1,604.69,59.1,609.42s-2.36,18.93,4.73,23.66,4.73,14.19,16.56,11.82,35.48-23.65,35.48-23.65-18.92,7.1-23.65,0S78,604.69,82.76,600s11.82-18.92,11.82-26S80.39,540.82,80.39,540.82Z"/><path class="cls-2" d="M673.32,723.89s14.2,18.92,16.56,26,4.73,14.19,2.37,21.29-2.37,21.29-14.2,11.83-23.65-26-33.11-28.39-35.49-2.36-45-4.73-73.33-7.1-73.33-7.1l-68.6-7.09s144.3,2.36,160.86-2.37,30.75-7.09,35.48-16.56a104.22,104.22,0,0,0,7.09-18.92l23.66,9.46Z"/></svg>