<svg id="Layer_2" data-name="Layer 2" xmlns="http://www.w3.org/2000/svg" viewBox="0 0 1000 1000"><defs><style>.cls-1{fill:#94ab81;stroke:#7a9163;}.cls-1,.cls-3,.cls-5,.cls-7,.cls-8{stroke-miterlimit:10;stroke-width:3px;}.cls-2{fill:#7d916a;}.cls-3{fill:#c7be9f;stroke:#a3997f;}.cls-4{fill:#b2a88b;}.cls-5{fill:#c5bc9f;stroke:#ada284;}.cls-6{fill:#b5ab8f;}.cls-7{fill:#bd9d60;stroke:#aa864d;}.cls-8{fill:#393651;stroke:#242335;}</style></defs><title>sheet</title><path class="cls-1" d="M133.5,762.5s13,104.07,13,111,29.36,15.23,118,18,575.15,9.31,589,1c4.75-2.85,3.27-33.47-.73-72.48-7.67-74.71-24.56-180.18-24.56-180.18S772.8,139.84,759,128.76s-410-15.24-410-15.24-54-2.77-59.56,4.16S133.5,762.5,133.5,762.5Z"/><path class="cls-2" d="M270,303.27c2.77-2.77,13.85-99.72,22.16-116.34s15.24-54,77.57-47.09,123.27-2.77,173.13-1.38S666.16,160.62,680,160.62s49.86-27.71,60.94-12.47S764.49,270,760.34,303.27s-121.89,69.26-205,70.64S270,303.27,270,303.27Z"/><path class="cls-3" d="M339.29,242.33s263.15,20.78,295,16.62,79-2.77,83.1-20.77,0-137.12-11.08-144S522.11,62.28,441.78,69.2s-84.49,18-88.64,22.16S331,216,339.29,242.33Z"/><path class="cls-4" d="M653.69,101.06c-2.72,1.48-12.47,70.64-44.32,83.1s-52.63,18-99.72,19.39-70.64,6.93-97,4.16-58.17,2.77-62.32,9.69-1.39,20.78,8.31,22.16S484.72,247.87,536,252,698,247.87,707.71,241s4.15-131.58-1.39-137.12S684.16,84.44,653.69,101.06Z"/><path class="cls-5" d="M806.43,278.29s70.25,458.5,68.87,475.12-2.77,76.18-22.16,87.26-229.92-1.38-299.17,0-426.6-5.54-443.22-24.93-5.54-121.88,13.85-178.67S228.7,265.73,228.7,265.73s185.76-11,189.92-12.37,296.4-1.38,303.32,0S806.43,278.29,806.43,278.29Z"/><path class="cls-6" d="M739.56,350.37s4.16,163.43-29.08,238.22S624.6,706.32,555.35,727.1s-127.42,38.78-178.67,37.39-110.8,4.16-163.43,0-92.8-26.31-98.34-18-4.16,52.63,0,59.55S256.18,825.44,349,828.21s358.73,6.92,398.89,4.15,99.73,2.77,113.58-40.17-27.7-235.45-27.7-235.45L804.66,368.37Z"/><path class="cls-7" d="M215.5,307.5s-5-19.9-2.25-35.14,18-51.25,26.31-55.4,245.16-15.24,357.34-9.7,202.22,30.47,210.53,44.33,16.62,37.39,15.24,49.86-4.16,19.39-8.32,23.54,0-13.85-55.4-18S578.9,305.6,511,298.68,282.5,295.91,259,297.29,215.42,306.83,215.5,307.5Z"/><path class="cls-8" d="M839.05,273.87S819.79,245.6,814.44,250s-133,161.08-140,160-46.39-46.49-57-34.94S606.21,497.54,616,498.5s130.43,2.62,134.1-8.63-50.91-54.61-50.91-54.61Z"/></svg>