<svg id="Layer_1" data-name="Layer 1" xmlns="http://www.w3.org/2000/svg" viewBox="0 0 992.06 747.86"><defs><style>.cls-1{fill:#f7c759;}.cls-1,.cls-3{stroke:#a57304;stroke-miterlimit:10;stroke-width:3px;}.cls-2{fill:#e8b34b;}.cls-3{fill:#ffd361;}.cls-4{fill:#3d1313;}.cls-5{fill:#a57304;}</style></defs><title>menu</title><polygon class="cls-1" points="2.58 572.4 418.3 1.58 989.58 63.04 584.16 746.08 2.58 572.4"/><path class="cls-2" d="M1416.71,228.28c18.08,3.61,37.35,10.84,26.51,20.48s-374.74,620.55-382,623S519.17,744.36,519.17,744.36l116.73-145L958.83,194.54Z" transform="translate(-499.38 -168.42)"/><polygon class="cls-3" points="2.58 572.4 560.06 687.04 967.34 9.86 418.3 1.58 2.58 572.4"/><polygon class="cls-4" points="474.89 95.06 505.86 32.67 526.45 33.75 530.26 55.23 544.8 37.38 561.79 38.7 554.3 109.22 533.47 104.53 537.84 78.89 523.96 88.25 511.81 68.51 501.66 98.15 474.89 95.06"/><polygon class="cls-4" points="580.71 42.66 569.9 108.08 611.7 109.48 612.62 93.43 589.45 93.73 591.59 84.81 613.58 84.71 615.86 62.31 595.67 65.77 596.82 58.24 614.64 55.19 621.09 35.75 580.71 42.66"/><polygon class="cls-4" points="624.39 112.2 637.55 39.04 657.16 39.35 677.88 67.59 673.21 40.27 703.34 44.9 683.26 120.46 659.48 117.2 649.82 82.17 641.83 114.1 624.39 112.2"/><path class="cls-4" d="M1215.61,217.22s-14.17,67.22-7.21,72.14,33.15,15.11,40.24,6.56,22.89-66.27,22.89-66.27l-20.63-6.24s-14.4,58.69-19.56,57.13,1-51.51,2.12-59Z" transform="translate(-499.38 -168.42)"/><path class="cls-4" d="M1287.18,257.8c-2.41-1.21-18.08,15.66-10.85,20.48s96.4,16.87,100,10.85,7.23-19.28,0-22.9S1287.18,257.8,1287.18,257.8Z" transform="translate(-499.38 -168.42)"/><path class="cls-4" d="M973.89,222.86s4.82,18.07-7.23,18.07-72.3-7.23-72.3-9.64-1.2-14.46,16.87-14.46S973.89,222.86,973.89,222.86Z" transform="translate(-499.38 -168.42)"/><path class="cls-5" d="M1177.29,333.44,940.64,298.39l-66.9-9.9c-7.59-1.13-10.86,10.48-3.2,11.62l236,34.95,67.56,10C1181.67,346.19,1184.94,334.58,1177.29,333.44Z" transform="translate(-499.38 -168.42)"/><path class="cls-5" d="M1174.13,386.26c-24.19-6.68-48.61-10-73.54-12.3a181.14,181.14,0,0,1-36.45-6.69c-11.57-3.5-22.87-7.24-35-8.44-7.71-.77-7.61,11.28,0,12.05,11.65,1.16,22.67,5.36,33.83,8.65,11.56,3.4,23.37,5.13,35.35,6.27,24.63,2.36,48.65,5.48,72.57,12.09C1178.45,400,1181.6,388.33,1174.13,386.26Z" transform="translate(-499.38 -168.42)"/><path class="cls-5" d="M1197.75,442.34Q1095.71,425.11,995,401c-7.54-1.81-10.76,9.81-3.21,11.62Q1092.44,436.7,1194.55,454C1202.13,455.24,1205.39,443.63,1197.75,442.34Z" transform="translate(-499.38 -168.42)"/><path class="cls-5" d="M1195.89,506.21q-113.81-27.6-228.47-51.51c-7.57-1.58-10.8,10-3.2,11.62q114.65,23.91,228.47,51.51C1200.22,519.66,1203.44,508,1195.89,506.21Z" transform="translate(-499.38 -168.42)"/><path class="cls-5" d="M1070.88,541.66c-39.17-9.28-78.35-18.57-117-29.8-38.27-11.11-76-23.91-113.58-37.29-21.35-7.61-42.63-15.42-63.91-23.23-7.3-2.67-10.44,9-3.21,11.62,75,27.53,150.19,54.41,227.72,74.11,22.21,5.65,44.5,10.93,66.8,16.2C1075.22,555.06,1078.44,543.44,1070.88,541.66Z" transform="translate(-499.38 -168.42)"/><path class="cls-5" d="M916.42,560A1014,1014,0,0,0,754.1,509.3c-7.55-1.68-10.78,9.93-3.2,11.62a1013.9,1013.9,0,0,1,162.31,50.71C920.39,574.55,923.51,562.9,916.42,560Z" transform="translate(-499.38 -168.42)"/><path class="cls-5" d="M875.77,624.14c-13.48-2.67-27-5.35-40-10.16s-24.18-12.57-36.38-18.68c-24-12-50.72-15.34-77.11-18.35-7.69-.88-7.63,11.18,0,12,26.62,3,52.94,6.75,76.79,19.73,11,6,21.68,12.47,33.5,16.87,12.92,4.81,26.48,7.49,40,10.16C880.14,637.25,883.38,625.64,875.77,624.14Z" transform="translate(-499.38 -168.42)"/><path class="cls-5" d="M1005.1,739.69l-126.92-36C836.68,691.94,795,680.64,754.1,667c-23-7.7-45.74-16.22-67.9-26.11-7-3.14-13.15,7.24-6.08,10.4,39.18,17.49,79.93,30.91,121,43,42.4,12.47,85,24.26,127.55,36.31l73.18,20.75C1009.37,753.43,1012.56,741.81,1005.1,739.69Z" transform="translate(-499.38 -168.42)"/><path class="cls-5" d="M1029.05,575.48c-6.35.37-76.48,2.26-87.37,68.06s121.79,98.05,150.56,32.08S1041,574.8,1029.05,575.48Z" transform="translate(-499.38 -168.42)"/><path class="cls-5" d="M903.18,326.74c-5.95,0-71.58-2-87.7,56.59s104.77,94.56,137.6,36.76S914.36,326.75,903.18,326.74Z" transform="translate(-499.38 -168.42)"/></svg>