<?xml version="1.0" encoding="UTF-8" standalone="no"?>
<svg
   enable-background="new 0 0 492 492"
   height="1000"
   viewBox="0 0 960.9375 960.9375"
   width="1000"
   version="1.1"
   id="svg2262"
   sodipodi:docname="anglizbot.svg"
   inkscape:version="1.2 (1:1.2.1+202207142221+cd75a1ee6d)"
   inkscape:export-filename="chatbot2.svg"
   inkscape:export-xdpi="96"
   inkscape:export-ydpi="96"
   xmlns:inkscape="http://www.inkscape.org/namespaces/inkscape"
   xmlns:sodipodi="http://sodipodi.sourceforge.net/DTD/sodipodi-0.dtd"
   xmlns="http://www.w3.org/2000/svg"
   xmlns:svg="http://www.w3.org/2000/svg">
  <defs
     id="defs2266" />
  <sodipodi:namedview
     id="namedview2264"
     pagecolor="#ffffff"
     bordercolor="#000000"
     borderopacity="0.25"
     inkscape:showpageshadow="2"
     inkscape:pageopacity="0.0"
     inkscape:pagecheckerboard="0"
     inkscape:deskcolor="#d1d1d1"
     showgrid="false"
     showguides="true"
     inkscape:zoom="0.61455711"
     inkscape:cx="84.61378"
     inkscape:cy="557.31191"
     inkscape:window-width="1920"
     inkscape:window-height="1056"
     inkscape:window-x="0"
     inkscape:window-y="1080"
     inkscape:window-maximized="1"
     inkscape:current-layer="Layer_1-1" />
  <g
     id="Layer_1"
     transform="translate(61.447885,46.439537)">
    <g
       id="Layer_1-1"
       transform="matrix(2.1695982,0,0,2.1360292,-250.81292,-110.85038)">
      <path
         id="path2227"
         style="fill:#ff0066;fill-opacity:1;stroke-width:1"
         d="m 197.3205,228.22858 c -37.69592,0 -68.25284,30.55695 -68.25284,68.25281 0,37.69593 30.55692,68.25472 68.25284,68.25472 h 211.11723 c 37.69589,0 68.25472,-30.55879 68.25472,-68.25472 0,-37.69586 -30.55883,-68.25281 -68.25472,-68.25281 z m 165.40136,43.55937 a 22.174,22.174 0 0 1 22.1729,22.17476 22.174,22.174 0 0 1 -22.1729,22.17476 22.174,22.174 0 0 1 -22.17476,-22.17476 22.174,22.174 0 0 1 22.17476,-22.17476 z m -108.96317,0.0977 a 22.174,22.174 0 0 1 22.17476,22.17287 22.174,22.174 0 0 1 -22.17476,22.17476 22.174,22.174 0 0 1 -22.17288,-22.17476 22.174,22.174 0 0 1 22.17288,-22.17287 z" />
      <path
         id="path10125"
         style="opacity:0.8;fill:#d40055;fill-opacity:1;fill-rule:evenodd;stroke-width:0.891923;paint-order:fill markers stroke"
         d="M 309.14514,155.07935 A 138.92662,137.46992 0 0 0 170.21835,292.54783 138.92662,137.46992 0 0 0 309.14514,430.0182 138.92662,137.46992 0 0 0 448.07192,292.54783 138.92662,137.46992 0 0 0 309.14514,155.07935 Z m 54.1109,117.60597 a 22.174,22.174 0 0 1 22.17287,22.17476 22.174,22.174 0 0 1 -22.17287,22.1729 22.174,22.174 0 0 1 -22.17476,-22.1729 22.174,22.174 0 0 1 22.17476,-22.17476 z m -107.75449,0.20847 a 22.174,22.174 0 0 1 22.17476,22.1729 22.174,22.174 0 0 1 -22.17476,22.17476 22.174,22.174 0 0 1 -22.17475,-22.17476 22.174,22.174 0 0 1 22.17475,-22.1729 z" />
      <path
         d="m 187.59974,180.16795 c 0,-11.13695 26.01566,-20.22189 37.19935,-23.60821 24.56295,-7.43979 54.37284,-11.53623 83.93728,-11.53623 29.56444,0 59.37434,4.09644 83.93728,11.53623 11.18368,3.38632 37.19935,12.47126 37.19935,23.62085 l -0.1925,19.97676 63.4306,-25.64506 c 3.52889,-1.42529 5.64156,-3.34336 5.80408,-5.26143 0.16271,-1.92059 -1.61187,-4.03326 -4.87875,-5.79212 L 323.85026,71.646502 c -8.19539,-4.41738 -22.03902,-4.41738 -30.22778,0 L 123.43621,163.45874 c -3.26357,1.75886 -5.04128,3.869 -4.87877,5.79212 0.16253,1.9206 2.27521,3.83614 5.80079,5.2589 l 63.14534,25.53135 z m 0,0"
         id="path66814"
         style="fill:#002255;fill-opacity:1;stroke-width:0.741142" />
    </g>
  </g>
</svg>
