<?xml version="1.0" encoding="UTF-8" standalone="no"?>
<!-- Created with Inkscape (http://www.inkscape.org/) -->

<svg
   xmlns:dc="http://purl.org/dc/elements/1.1/"
   xmlns:cc="http://creativecommons.org/ns#"
   xmlns:rdf="http://www.w3.org/1999/02/22-rdf-syntax-ns#"
   xmlns:svg="http://www.w3.org/2000/svg"
   xmlns="http://www.w3.org/2000/svg"
   xmlns:sodipodi="http://sodipodi.sourceforge.net/DTD/sodipodi-0.dtd"
   xmlns:inkscape="http://www.inkscape.org/namespaces/inkscape"
   width="1000"
   height="1000"
   viewBox="0 0 264.58333 264.58334"
   version="1.1"
   id="svg2383"
   inkscape:version="0.92.5 (2060ec1f9f, 2020-04-08)"
   sodipodi:docname="Happy birthday.svg"
   enable-background="new">
  <defs
     id="defs2377" />
  <sodipodi:namedview
     id="base"
     pagecolor="#ffffff"
     bordercolor="#666666"
     borderopacity="1.0"
     inkscape:pageopacity="0.0"
     inkscape:pageshadow="2"
     inkscape:zoom="0.70710678"
     inkscape:cx="460.4395"
     inkscape:cy="537.13793"
     inkscape:document-units="px"
     inkscape:current-layer="layer3"
     showgrid="false"
     units="px"
     inkscape:window-width="1920"
     inkscape:window-height="1031"
     inkscape:window-x="0"
     inkscape:window-y="25"
     inkscape:window-maximized="1"
     showguides="true"
     inkscape:lockguides="true"
     inkscape:object-nodes="false"
     inkscape:snap-nodes="false"
     inkscape:snap-others="false" />
  <metadata
     id="metadata2380">
    <rdf:RDF>
      <cc:Work
         rdf:about="">
        <dc:format>image/svg+xml</dc:format>
        <dc:type
           rdf:resource="http://purl.org/dc/dcmitype/StillImage" />
        <dc:title></dc:title>
      </cc:Work>
    </rdf:RDF>
  </metadata>
  <g
     inkscape:groupmode="layer"
     id="layer3"
     inkscape:label="Layer 2">
    <ellipse
       style="fill:#ebc8e9;fill-opacity:1;stroke-width:0.45916313"
       id="path3018"
       cx="133.53714"
       cy="218.77054"
       rx="105.7971"
       ry="33.096272" />
    <path
       d="m 187.33848,69.433886 -4.33593,5.57606 7.21211,0.69713 z"
       style="fill:#6964af;fill-opacity:1;fill-rule:nonzero;stroke:none;stroke-width:0.03527779"
       id="path16572"
       inkscape:connector-curvature="0" />
    <path
       d="m 165.76361,52.985473 1.6845,-1.841613 11.56262,10.409552 -1.68493,1.840838 -11.56219,-10.408777"
       style="fill:#f03c21;fill-opacity:1;fill-rule:nonzero;stroke:none;stroke-width:0.03527779"
       id="path16580"
       inkscape:connector-curvature="0" />
    <path
       d="m 183.02506,30.496263 -7.05483,-0.6361 3.24599,6.42335 z"
       style="fill:#f03c21;fill-opacity:1;fill-rule:nonzero;stroke:none;stroke-width:0.03527779"
       id="path16590"
       inkscape:connector-curvature="0" />
    <path
       d="m 149.36903,126.4785 c 0.3524,1.67788 -0.73273,3.32544 -2.42413,3.68068 -1.69074,0.3551 -3.34767,-0.71655 -3.70007,-2.39442 -0.35171,-1.67458 0.73373,-3.32392 2.42447,-3.67902 1.6914,-0.35525 3.34802,0.71818 3.69973,2.39276"
       style="fill:#f9abd9;fill-opacity:1;fill-rule:nonzero;stroke:none;stroke-width:0.03527779"
       id="path16608"
       inkscape:connector-curvature="0" />
    <path
       d="m 198.50882,61.203154 -2.37484,-0.770696 4.90608,-14.749576 2.37656,0.77033 -4.9078,14.749942"
       style="fill:#4090cd;fill-opacity:1;fill-rule:nonzero;stroke:none;stroke-width:0.03527779"
       id="path16612"
       inkscape:connector-curvature="0" />
    <path
       d="m 249.23487,81.771555 -0.004,5e-4 c -0.16898,0.0324 -0.33392,-0.0783 -0.36463,-0.24358 -0.56321,-2.9376 -2.70873,-4.66176 -4.59714,-6.18014 -1.8279,-1.46809 -3.4053,-2.73421 -2.60406,-4.63282 0.68585,-1.62755 2.92499,-2.77874 5.29453,-3.99528 3.22674,-1.66068 6.27065,-3.22685 5.21842,-5.81407 -0.80988,-1.98482 -4.6749,-2.55559 -8.14867,-2.23764 -0.17381,0.014 -0.3239,-0.10974 -0.33903,-0.27918 -0.0154,-0.17107 0.11227,-0.32304 0.28249,-0.33808 3.59561,-0.32541 7.79287,0.18767 8.78151,2.62253 1.26611,3.1067 -2.17823,4.87866 -5.50867,6.59131 -2.16805,1.11556 -4.40801,2.26779 -5.00678,3.68805 -0.58998,1.40115 0.47995,2.35444 2.42056,3.9145 1.87705,1.50783 4.21021,3.37984 4.81644,6.54141 0.0336,0.16641 -0.0737,0.32701 -0.24072,0.3621"
       style="fill:#9c440e;fill-opacity:1;fill-rule:nonzero;stroke:none;stroke-width:0.03527779"
       id="path16884"
       inkscape:connector-curvature="0" />
    <path
       d="m 245.31777,56.266635 c -0.96321,0.89788 -1.81372,2.40812 -0.30777,2.95657 2.02753,0.74007 2.28786,2.22241 0.98416,2.05264 -1.33187,-0.17158 -2.41869,-0.32395 -3.76057,0.71135 -1.44313,1.11346 -2.39837,-0.20569 -1.47085,-1.21169 1.53726,-1.67174 1.72032,-2.76997 0.0825,-3.56946 1.92294,-0.27873 4.4725,-0.93936 4.4725,-0.93936"
       style="fill:#e0910e;fill-opacity:1;fill-rule:nonzero;stroke:none;stroke-width:0.03527779"
       id="path16886"
       inkscape:connector-curvature="0" />
    <path
       d="m 245.60362,56.535415 c 8.54004,-4.6666 17.27336,-18.67437 12.93987,-34.83183 C 253.99766,4.7613837 239.72783,3.4632857 232.56016,4.9687037 c -6.70925,1.40913 -20.78079,9.3794713 -16.30895,27.7171613 4.14901,17.01606 17.5912,23.76439 24.4992,24.97673 2.45677,0.1278 3.75985,-0.53078 4.85321,-1.12716"
       style="fill:#f6c00a;fill-opacity:1;fill-rule:nonzero;stroke:none;stroke-width:0.03527779"
       id="path16888"
       inkscape:connector-curvature="0" />
    <path
       d="m 256.42797,38.677005 c -3.84684,10.91544 -17.33233,14.30355 -26.37698,7.33669 -9.04273,-6.96899 -12.10269,-15.14188 -12.10269,-15.14188 0,0 2.22918,13.81538 14.75407,21.82561 12.5234,8.01143 22.30214,-5.72918 23.7256,-14.02042"
       style="fill:#e0910e;fill-opacity:1;fill-rule:nonzero;stroke:none;stroke-width:0.03527779"
       id="path16890"
       inkscape:connector-curvature="0" />
    <path
       d="m 240.40353,7.5001377 c -5.08191,-0.91843 -18.99867,0.565 -16.17621,14.3403413 3.85076,18.79089 30.42298,25.75803 32.82325,13.75266 2.61808,-13.11087 -3.98212,-25.8045403 -16.64704,-28.0930013"
       style="fill:#fbd621;fill-opacity:1;fill-rule:nonzero;stroke:none;stroke-width:0.03527779"
       id="path16892"
       inkscape:connector-curvature="0" />
    <path
       d="m 253.55937,15.356185 c 2.51276,4.05393 3.48701,8.59065 4.19433,12.71914 -0.88431,-0.61428 -1.74432,-0.93592 -3.37424,-1.44192 -0.75905,-2.78083 -1.79168,-5.55771 -3.39392,-7.91291 0.92882,-1.12624 1.84407,-2.29885 2.57383,-3.36431 z m -4.28225,2.47006 c -0.60704,1.12685 -1.33825,2.33416 -2.18773,3.52574 -1.04632,-0.53711 -2.15558,-0.86249 -3.30494,-0.84806 -0.002,-0.002 -0.004,-0.002 -0.005,-0.004 -0.0947,-0.15358 -0.13344,-0.2326 -0.13344,-0.2326 0,0 -0.0689,-2.7834 -0.56777,-5.84324 2.67898,0.66453 4.67492,1.86948 6.199,3.40139 z m -1.11474,4.15906 c 0.6884,-0.76681 1.51803,-1.70481 2.36041,-2.70849 1.56376,2.11731 2.50036,4.64252 3.2008,7.17157 -0.49473,-0.13345 -1.01384,-0.23409 -1.54323,-0.31536 -1.03726,-1.52023 -2.42394,-3.0646 -4.01798,-4.14772 z m 1.51851,-4.92823 c 1.10356,-2.15886 1.73166,-3.89769 1.91061,-4.41511 -2.75161,-3.2391403 -6.68584,-5.0812503 -11.13664,-5.7171203 1.16132,1.13517 1.87465,3.7512803 2.35235,6.0319803 2.95002,0.74136 5.17065,2.20981 6.87368,4.10025"
       style="fill:#f7f7e9;fill-opacity:1;fill-rule:nonzero;stroke:none;stroke-width:0.03527779"
       id="path16894"
       inkscape:connector-curvature="0" />
    <path
       d="m 220.85451,16.303215 c 0.87068,0.3824 0.9995,1.97693 0.28811,3.55374 -0.71085,1.58103 -1.99341,2.55116 -2.86478,2.16544 -0.87279,-0.38454 -1.0025,-1.97629 -0.29254,-3.55367 0.71301,-1.58233 1.997,-2.55018 2.86921,-2.16551"
       style="fill:#f7f7e9;fill-opacity:1;fill-rule:nonzero;stroke:none;stroke-width:0.03527779"
       id="path16896"
       inkscape:connector-curvature="0" />
    <path
       d="m 218.23099,22.864175 c 0.3724,0.10901 0.51005,0.74379 0.31008,1.41752 -0.20291,0.67347 -0.66769,1.13441 -1.03926,1.02432 -0.37288,-0.10635 -0.51012,-0.74034 -0.31071,-1.41738 0.20195,-0.67328 0.66648,-1.13244 1.03995,-1.02447"
       style="fill:#f7f7e9;fill-opacity:1;fill-rule:nonzero;stroke:none;stroke-width:0.03527779"
       id="path16898"
       inkscape:connector-curvature="0" />
    <path
       d="m 243.40632,58.908445 c -0.45909,0.0964 -1.02127,0.13082 -1.65566,-0.009 -0.20066,-0.0458 -0.3284,-0.24429 -0.28434,-0.44427 0.0461,-0.19954 0.24608,-0.32871 0.44856,-0.28408 1.35991,0.29692 2.29402,-0.36702 2.3338,-0.39431 0.16725,-0.12311 0.40307,-0.0847 0.52294,0.0783 0.12322,0.16571 0.089,0.39729 -0.0761,0.51998 -0.0316,0.0223 -0.51209,0.36991 -1.28923,0.53313"
       style="fill:#9c440e;fill-opacity:1;fill-rule:nonzero;stroke:none;stroke-width:0.03527779"
       id="path16900"
       inkscape:connector-curvature="0" />
    <text
       xml:space="preserve"
       style="font-style:normal;font-weight:normal;font-size:10.58333302px;line-height:1.25;font-family:sans-serif;letter-spacing:0px;word-spacing:0px;fill:#000000;fill-opacity:1;stroke:none;stroke-width:0.26458332"
       x="2.6192422"
       y="64.398453"
       id="text20604"><tspan
         sodipodi:role="line"
         id="tspan20602"
         x="2.6192422"
         y="73.762222"
         style="font-style:normal;font-variant:normal;font-weight:bold;font-stretch:normal;font-size:12.69999981px;font-family:sans-serif;-inkscape-font-specification:'sans-serif Bold';stroke-width:0.26458332" /></text>
    <path
       d="m 239.87804,142.38782 c 4.43079,0.79789 9.40891,4.81778 6.75994,8.242 8.49367,2.20323 1.4093,13.69057 -2.4107,8.66314 -1.30269,6.64619 -10.5102,1.83075 -7.35368,-3.60986 -3.168,-3.82339 -2.3493,-7.85149 -0.47547,-10.67409 1.87151,-2.81853 3.47991,-2.62119 3.47991,-2.62119"
       style="fill:#ef9b11;fill-opacity:1;fill-rule:nonzero;stroke:none;stroke-width:0.03527778"
       id="path2396"
       inkscape:connector-curvature="0" />
    <path
       d="m 242.85764,143.45934 c 0.60569,1.60626 -6.2791,8.59684 -8.21121,7.12198 -0.86587,-1.47327 -0.96178,-3.61936 -0.96178,-3.61936 0,0 2.56846,-5.24041 6.69294,-5.38183 1.33648,0.13348 2.48005,1.87921 2.48005,1.87921"
       style="fill:#ef2e32;fill-opacity:1;fill-rule:nonzero;stroke:none;stroke-width:0.03527778"
       id="path2398"
       inkscape:connector-curvature="0" />
    <path
       d="m 200.71749,163.54146 c 0,0 -14.98815,-2.88085 -26.52069,-14.92497 -1.11354,-0.003 -2.39954,0.16031 -4.1641,-1.51184 -1.60237,-0.80868 -0.34321,-8.46098 5.27331,-4.13672 0.92359,0.71434 1.7049,2.87546 1.7049,2.87546 0,0 8.58432,9.89766 23.89391,13.12705 3.2798,1.86659 -0.18733,4.57102 -0.18733,4.57102"
       style="fill:#fabd99;fill-opacity:1;fill-rule:nonzero;stroke:none;stroke-width:0.03527778"
       id="path2400"
       inkscape:connector-curvature="0" />
    <path
       d="m 194.51885,161.44911 c 2.49396,0.80257 4.08738,1.06752 4.08738,1.06752 0,0 2.98796,-2.32762 0.16184,-3.93911 -1.4411,-0.30273 -2.79667,-0.68498 -4.09522,-1.11004 1.50535,0.7524 4.06121,4.19593 -0.154,3.98163"
       style="fill:#eaa376;fill-opacity:1;fill-rule:nonzero;stroke:none;stroke-width:0.03527778"
       id="path2402"
       inkscape:connector-curvature="0" />
    <path
       d="m 173.78714,145.58323 c 0.0398,0.0166 0.0813,0.0141 0.11714,-0.0105 0.0622,-0.0355 0.0773,-0.11882 0.0341,-0.17677 -0.67714,-1.02193 0.0793,-1.93981 0.6331,-2.32107 0.0589,-0.0375 0.0722,-0.11967 0.0254,-0.18222 -0.0412,-0.0588 -0.12051,-0.0737 -0.18162,-0.0353 -0.62358,0.43261 -1.48223,1.48609 -0.69106,2.67632 0.0168,0.0234 0.0406,0.0407 0.0629,0.0495"
       style="fill:#ce6748;fill-opacity:1;fill-rule:nonzero;stroke:none;stroke-width:0.03527778"
       id="path2404"
       inkscape:connector-curvature="0" />
    <path
       d="m 174.95805,145.68065 c -0.69621,-0.27958 -1.26652,-2.1641 -0.27374,-2.45833 -0.96007,-1.1086 -1.36002,-2.31366 -0.41608,-2.71849 1.03714,-0.44873 2.69326,2.76362 2.19103,3.86307 l -1.50121,1.31375"
       style="fill:#fabd99;fill-opacity:1;fill-rule:nonzero;stroke:none;stroke-width:0.03527778"
       id="path2406"
       inkscape:connector-curvature="0" />
    <path
       d="m 232.39544,207.86081 c 0,0 0.2937,1.50759 -7.11229,-0.13734 -4.57022,-1.01646 -12.38786,-5.79474 -24.06902,-4.41316 -9.57613,1.13344 -14.35783,0.0425 -14.64629,-1.10332 -0.58046,-2.30843 7.35964,-6.11743 23.86953,-2.65028 10.22707,2.14813 19.46928,5.63023 21.95807,8.3041"
       style="fill:#af1e23;fill-opacity:1;fill-rule:nonzero;stroke:none;stroke-width:0.03527778"
       id="path2408"
       inkscape:connector-curvature="0" />
    <path
       d="m 221.61275,166.91744 c 0,0 14.51116,1.29586 27.743,-7.6489 1.3149,0.90749 2.96228,0.34477 4.95845,-0.86005 1.70219,-0.39351 2.77264,-0.95965 2.45786,-1.59248 -0.32457,-0.65309 -2.16342,-0.0572 -2.64278,0.023 0.0589,-0.0466 2.22236,-1.02658 2.68401,-1.27955 1.06741,-0.58319 0.60405,-1.70599 -0.40878,-1.37868 -0.85223,0.27374 -2.7582,1.04522 -2.85956,1.08563 0.08,-0.074 2.15006,-1.41765 2.54269,-1.6625 1.13453,-0.70681 0.45107,-2.1176 -0.86894,-1.32818 -0.90286,0.54015 -2.44195,1.53671 -2.60024,1.58623 0.024,-0.0838 0.96603,-1.1087 1.47779,-1.7595 0.84556,-1.07232 0.0232,-1.98612 -1.14413,-0.95319 -0.92281,0.81178 -3.2193,2.6532 -3.2193,2.6532 0,0 -0.14803,-2.07174 -1.2833,-2.02231 -1.1377,0.0474 -0.76997,3.66764 -0.76997,3.66764 0,0 -9.99881,7.57048 -25.52103,6.94377 -3.51463,1.0209 -0.54577,4.52591 -0.54577,4.52591"
       style="fill:#fabd99;fill-opacity:1;fill-rule:nonzero;stroke:none;stroke-width:0.03527778"
       id="path2410"
       inkscape:connector-curvature="0" />
    <path
       d="m 226.46347,166.88672 c -2.98629,0.19474 -4.85072,0.0308 -4.85072,0.0308 0,0 -2.96886,-3.50501 0.54577,-4.52591 1.6988,0.0698 3.31854,0.0237 4.87835,-0.0823 -1.86002,0.42449 -5.41078,3.60529 -0.5734,4.57755"
       style="fill:#eaa376;fill-opacity:1;fill-rule:nonzero;stroke:none;stroke-width:0.03527778"
       id="path2412"
       inkscape:connector-curvature="0" />
    <path
       d="m 250.23811,156.51324 c -0.0403,0.005 -0.0831,-0.007 -0.1138,-0.0368 -0.0509,-0.0547 -0.0524,-0.13662 -0.002,-0.18569 0.82711,-0.83192 0.23388,-1.91738 -0.24898,-2.43224 -0.05,-0.052 -0.05,-0.13457 2e-4,-0.18056 0.0495,-0.0489 0.13423,-0.0487 0.1838,0.007 0.54456,0.58322 1.22051,1.82592 0.25054,2.79254 -0.0171,0.0196 -0.0432,0.0308 -0.0697,0.0358"
       style="fill:#ce6748;fill-opacity:1;fill-rule:nonzero;stroke:none;stroke-width:0.03527778"
       id="path2414"
       inkscape:connector-curvature="0" />
    <path
       d="m 212.43918,154.09107 c 0,0 -0.39013,4.11962 -0.47799,5.24632 4.28569,1.4291 6.72075,1.79502 6.72075,1.79502 l -1.45428,6.39 -14.59403,-1.45611 -0.82048,-7.5466 c 0,0 2.89337,0.51199 6.79969,0.35706 0.17919,-2.30385 0.38002,-5.39396 0.38002,-5.39396 l 3.44632,0.60827"
       style="fill:#fabd99;fill-opacity:1;fill-rule:nonzero;stroke:none;stroke-width:0.03527778"
       id="path2416"
       inkscape:connector-curvature="0" />
    <path
       d="m 206.47556,158.90011 c 0.66844,0.0132 1.38564,0.008 2.13728,-0.0234 0.17919,-2.30385 0.38002,-5.39396 0.38002,-5.39396 l 3.44632,0.60827 c 0,0 -0.39013,4.11962 -0.47799,5.24632 0.59164,0.19901 1.141,0.37331 1.66411,0.53136 -4.65779,1.89968 -6.70147,-0.35024 -7.14974,-0.96864"
       style="fill:#eaa376;fill-opacity:1;fill-rule:nonzero;stroke:none;stroke-width:0.03527778"
       id="path2418"
       inkscape:connector-curvature="0" />
    <path
       d="m 213.71845,200.94555 c 0.16848,0.6558 1.77637,16.0018 14.87106,29.82621 0.14405,1.63912 0.96377,4.17524 1.55189,4.4707 3.19079,1.60183 3.51291,-2.47029 3.33177,-3.74766 -0.1514,-1.06393 -0.63004,-2.54115 -1.93382,-3.88473 -5.88112,-6.06455 -10.41005,-13.44011 -13.37584,-27.26157 -2.18462,-0.25 -4.44506,0.59705 -4.44506,0.59705"
       style="fill:#fabd99;fill-opacity:1;fill-rule:nonzero;stroke:none;stroke-width:0.03527778"
       id="path2420"
       inkscape:connector-curvature="0" />
    <path
       d="m 232.32254,228.64158 c 0.44668,1.11772 1.14574,5.18939 -1.33514,5.61094 -1.5271,0.26021 -2.37414,-3.50312 -2.37414,-3.50312 0,0 0.34328,8.25597 3.02887,8.72242 2.30984,0.40435 3.60588,-2.43655 3.13695,-6.74145 -0.44084,-4.04166 -2.90318,-5.06889 -3.22157,-5.13726 0.53897,0.69277 0.76503,1.04847 0.76503,1.04847"
       style="fill:#ef2e32;fill-opacity:1;fill-rule:nonzero;stroke:none;stroke-width:0.03527778"
       id="path2422"
       inkscape:connector-curvature="0" />
    <path
       d="m 231.10201,236.77286 c -0.34377,-0.99051 -1.66214,-0.55047 -0.6195,0.94488 0.80816,1.16156 2.07049,1.5134 2.8804,-0.0483 -1.2844,0.53248 -2.01441,-0.2038 -2.2609,-0.89654"
       style="fill:#f35c67;fill-opacity:1;fill-rule:nonzero;stroke:none;stroke-width:0.03527778"
       id="path2424"
       inkscape:connector-curvature="0" />
    <path
       d="m 219.8788,200.53059 c 0,0 0.41131,12.13324 8.70738,23.29556 0.26382,1.74056 -1.90644,3.64412 -4.05213,2.84816 -6.30688,-8.17315 -11.59258,-21.41877 -11.87377,-26.03055 3.85914,-0.11021 7.21852,-0.11317 7.21852,-0.11317"
       style="fill:#599ec4;fill-opacity:1;fill-rule:nonzero;stroke:none;stroke-width:0.03527778"
       id="path2426"
       inkscape:connector-curvature="0" />
    <path
       d="m 219.1497,200.89223 c 0.14789,3.20059 0.67998,5.49916 1.03649,6.71673 -1.26714,-1.35014 -4.73757,-2.34574 -4.89437,0.26357 -1.58376,-4.13266 -1.69108,-6.38705 -1.75952,-6.65442 0,0 3.43285,-0.57898 5.6174,-0.32588"
       style="fill:#4789b1;fill-opacity:1;fill-rule:nonzero;stroke:none;stroke-width:0.03527778"
       id="path2428"
       inkscape:connector-curvature="0" />
    <path
       d="m 190.53877,199.94726 c -0.21312,0.62979 -5.60051,8.57808 -1.38083,23.31178 -0.76885,1.4157 -1.44113,3.92795 -1.09044,4.49336 1.87625,3.05894 4.36497,-0.0732 4.89959,-1.21718 0.45171,-0.94931 1.3038,-2.56282 0.45115,-4.22531 -1.61262,-3.15058 -3.4195,-11.49472 1.27313,-20.39926 -1.74883,-1.40663 -4.1526,-1.96339 -4.1526,-1.96339"
       style="fill:#fabd99;fill-opacity:1;fill-rule:nonzero;stroke:none;stroke-width:0.03527778"
       id="path2430"
       inkscape:connector-curvature="0" />
    <path
       d="m 193.52899,223.58392 c -0.22335,1.15116 -1.82804,4.84947 -4.1983,3.82866 -1.45565,-0.62689 -0.14465,-4.15335 -0.14465,-4.15335 0,0 -4.1837,6.90285 -2.12723,8.75876 1.7741,1.6038 4.4297,0.003 6.36585,-3.75792 1.82249,-3.52862 0.25069,-5.72393 0.0188,-5.95179 0.0908,0.85736 0.0855,1.27564 0.0855,1.27564"
       style="fill:#ef2e32;fill-opacity:1;fill-rule:nonzero;stroke:none;stroke-width:0.03527778"
       id="path2432"
       inkscape:connector-curvature="0" />
    <path
       d="m 188.0636,229.53139 c 0.23944,-1.00206 -1.13461,-1.36413 -1.04802,0.42498 0.0641,1.38578 0.96046,2.36877 2.5069,1.54649 -1.39979,-0.27763 -1.62408,-1.27352 -1.45888,-1.97147"
       style="fill:#f35c67;fill-opacity:1;fill-rule:nonzero;stroke:none;stroke-width:0.03527778"
       id="path2434"
       inkscape:connector-curvature="0" />
    <path
       d="m 195.73927,199.08129 c 0,0 -5.63009,13.21301 -2.82543,21.82669 -1.32837,2.24606 -3.40835,2.36721 -4.33133,1.27327 -1.78009,-5.09162 -2.55956,-16.84059 1.36372,-24.52194 2.62571,0.45546 5.79304,1.42198 5.79304,1.42198"
       style="fill:#599ec4;fill-opacity:1;fill-rule:nonzero;stroke:none;stroke-width:0.03527778"
       id="path2436"
       inkscape:connector-curvature="0" />
    <path
       d="m 194.87431,198.98727 c -1.09704,2.84125 -1.94192,5.78848 -2.29906,6.97562 -0.35247,-1.79747 -2.64629,-4.28576 -4.20113,-2.2485 0.3957,-3.49794 2.10046,-6.55698 2.18705,-6.81132 0,0 2.56383,0.67779 4.31314,2.0842"
       style="fill:#4789b1;fill-opacity:1;fill-rule:nonzero;stroke:none;stroke-width:0.03527778"
       id="path2438"
       inkscape:connector-curvature="0" />
    <path
       d="m 222.92137,161.95119 c -0.30437,-0.66483 -3.88394,-1.96849 -6.70304,-1.62215 -2.83504,8.33733 -13.94896,5.62734 -11.52116,-1.67267 -1.30742,-0.41513 -3.19093,-0.65663 -5.02305,-0.63872 -6.21246,6.73283 -14.9941,33.83341 -13.10628,44.18934 5.48683,-6.17997 30.12513,-2.19754 45.8276,5.65382 -0.8446,-10.38118 -11.4474,-31.66775 -8.52005,-38.78432 -2.64755,-1.0059 -2.60181,-5.2715 -0.95402,-7.1253"
       style="fill:#ef2e32;fill-opacity:1;fill-rule:nonzero;stroke:none;stroke-width:0.03527778"
       id="path2440"
       inkscape:connector-curvature="0" />
    <path
       d="m 221.4304,167.77264 c -3.07811,11.12742 4.69633,25.77437 -4.7522,25.77935 -9.44453,0.004 -20.92912,-1.86558 -28.95596,6.40403 11.97714,-6.10015 30.15204,-1.28832 41.6019,2.92643 -2.94848,-13.78299 -8.53653,-19.56946 -6.24039,-34.03544 0.0784,-0.47412 -1.65335,-1.07437 -1.65335,-1.07437"
       style="fill:#d02325;fill-opacity:1;fill-rule:nonzero;stroke:none;stroke-width:0.03527778"
       id="path2442"
       inkscape:connector-curvature="0" />
    <path
       d="m 201.99601,165.02131 c 0.0268,-2.9941 -3.72196,-3.41454 -5.7713,1.78374 -1.89432,4.8167 -1.28952,6.85468 -1.25694,8.36105 3.10075,-5.63082 7.00911,-7.12342 7.02824,-10.14479"
       style="fill:#f35c67;fill-opacity:1;fill-rule:nonzero;stroke:none;stroke-width:0.03527778"
       id="path2444"
       inkscape:connector-curvature="0" />
    <path
       d="m 221.71946,161.17267 c -1.37898,1.01352 -1.56458,7.13169 1.72941,8.88209 1.05192,-0.16052 0.52663,-1.34241 0.52663,-1.34241 0,0 -3.12365,-2.86046 -0.82473,-6.76472 -0.22812,-0.82906 -1.43131,-0.77496 -1.43131,-0.77496"
       style="fill:#ffffff;fill-opacity:1;fill-rule:nonzero;stroke:none;stroke-width:0.03527778"
       id="path2446"
       inkscape:connector-curvature="0" />
    <path
       d="m 215.45142,160.20827 c -0.57799,1.74987 -3.27137,5.53881 -7.24235,4.69362 -3.9704,-0.8485 -2.78795,-6.22256 -2.78795,-6.22256 0,0 -0.68693,-0.71183 -1.61634,-0.21536 -0.40379,3.65743 0.46827,6.77995 4.05699,7.68813 3.58902,0.90498 8.02164,-1.15508 9.45687,-5.90337 -0.66945,-0.74073 -1.8672,-0.0405 -1.8672,-0.0405"
       style="fill:#ffffff;fill-opacity:1;fill-rule:nonzero;stroke:none;stroke-width:0.03527778"
       id="path2448"
       inkscape:connector-curvature="0" />
    <path
       d="m 199.15085,157.92697 c 0,0 -3.04933,3.86513 -2.81264,5.42467 1.72629,-2.93061 3.73331,-4.64177 4.45697,-5.28557 -0.50113,-0.67525 -1.64433,-0.1391 -1.64433,-0.1391"
       style="fill:#ffffff;fill-opacity:1;fill-rule:nonzero;stroke:none;stroke-width:0.03527778"
       id="path2450"
       inkscape:connector-curvature="0" />
    <path
       d="m 159.82139,146.12138 c 0.75008,-0.32168 1.49559,-0.15195 2.04236,0.0877 1.8217,0.79417 3.90256,3.48085 4.34451,6.98971 -2.9384,-0.17147 -6.13422,-1.78042 -7.37791,-3.69734 -0.73638,-1.13113 -0.62408,-2.09701 0.33554,-2.95212 0.2133,-0.19243 0.43322,-0.33263 0.6555,-0.42796 z m -0.5873,20.64047 0.0521,-0.0263 c 7.09722,-3.87884 8.33217,-9.03987 8.30236,-12.2391 0.77067,-0.0735 1.50956,-0.24971 2.18928,-0.53816 l 0.0282,-0.0121 c 2.2343,-0.95821 5.54823,-3.97319 2.90633,-13.41839 -4.21239,-15.04273 -18.01577,-45.079098 -22.8884,-51.111202 -0.23273,-0.285632 -0.64623,-0.337728 -0.91684,-0.120722 -0.2722,0.220745 -0.30608,0.629896 -0.0781,0.917558 4.80555,5.950741 18.45488,35.692216 22.63435,50.617516 1.76265,6.31354 0.98272,10.5422 -2.20873,11.91089 l -0.0202,0.009 c -0.53278,0.22454 -1.11235,0.36386 -1.72439,0.42444 -0.44331,-3.64594 -2.56509,-7.03089 -5.17579,-8.16273 -1.49304,-0.65061 -2.9348,-0.46056 -4.05562,0.54322 -1.42116,1.26717 -1.61246,2.95522 -0.52505,4.62715 1.49458,2.30796 5.12135,4.19401 8.53966,4.34321 0.005,2.88586 -1.17395,7.50563 -7.66738,11.05518 -0.30866,0.16909 -0.41003,0.56434 -0.22943,0.88458 0.17238,0.30233 0.53659,0.42451 0.83737,0.29553"
       style="fill:#8c1b72;fill-opacity:1;fill-rule:nonzero;stroke:none;stroke-width:0.03527778"
       id="path2452"
       inkscape:connector-curvature="0" />
    <path
       d="m 158.84821,116.34589 c 1.50378,0.22997 3.32264,1.12017 2.33251,2.63077 -1.33457,2.03458 -0.54871,3.62475 0.52326,2.61134 1.10408,-1.03637 1.98818,-1.89885 3.93031,-1.78651 2.08685,0.12369 2.04157,-1.76268 0.49829,-2.12255 -2.55802,-0.59156 -3.48707,-1.52687 -2.54666,-3.36488 -1.95163,0.99605 -4.73771,2.03183 -4.73771,2.03183"
       style="fill:#e06aaf;fill-opacity:1;fill-rule:nonzero;stroke:none;stroke-width:0.03527778"
       id="path2454"
       inkscape:connector-curvature="0" />
    <path
       d="m 158.77724,116.7893 c -11.03803,1.12717 -28.71496,-6.56266 -35.95559,-24.879988 -7.59963,-19.20956 4.53131,-29.799055 12.11707,-33.052304 7.10133,-3.04549 25.47202,-4.628449 34.10418,15.863598 8.00453,19.01756 0.41057,34.284164 -5.05247,39.973664 -2.15633,1.72625 -3.8039,1.95255 -5.21319,2.09503"
       style="fill:#f573c0;fill-opacity:1;fill-rule:nonzero;stroke:none;stroke-width:0.03527778"
       id="path2456"
       inkscape:connector-curvature="0" />
    <path
       d="m 136.51374,106.78074 c 11.08008,7.93407 25.74011,2.34134 29.16475,-10.256199 3.42738,-12.598712 0.556,-22.431886 0.556,-22.431886 0,0 7.53998,14.695506 1.65998,30.573045 -5.88014,15.87455 -24.33246,9.11988 -31.38073,2.11504"
       style="fill:#df56a6;fill-opacity:1;fill-rule:nonzero;stroke:none;stroke-width:0.03527778"
       id="path2458"
       inkscape:connector-curvature="0" />
    <path
       d="m 127.98647,65.540023 c 4.00541,-4.210899 17.73818,-11.905207 24.71023,3.134806 9.5102,20.516233 -9.91965,44.596971 -20.43465,34.673851 -11.4776,-10.837947 -14.24906,-27.321526 -4.27558,-37.808657"
       style="fill:#f9acd9;fill-opacity:1;fill-rule:nonzero;stroke:none;stroke-width:0.03527778"
       id="path2460"
       inkscape:connector-curvature="0" />
    <path
       d="m 127.64635,84.101393 c 0.17867,3.303631 1.15247,6.642523 2.38784,9.801937 -1.13671,1.555102 -1.69298,2.423832 -2.07945,3.589881 -2.21638,-4.421174 -4.47069,-9.401185 -4.98894,-14.929949 1.40413,0.544966 3.05683,1.068982 4.68055,1.538131 z m 4.24326,-9.296103 c 1.6667,3.258926 3.53524,5.966316 3.53524,5.966316 0,0 0.0195,0.101771 0.0368,0.31154 l -0.004,0.01096 c -1.05436,0.736669 -1.84679,1.773974 -2.42393,2.972856 -1.60695,-0.580349 -3.1123,-1.262391 -4.44783,-1.940784 0.33245,-2.470516 1.32342,-4.92672 3.3037,-7.320807 z m -0.1925,17.179612 c -0.42596,0.418223 -0.83023,0.857737 -1.19189,1.309568 -1.11342,-2.881337 -2.0072,-5.911934 -2.05068,-8.964576 1.46989,0.406638 2.87644,0.760908 4.03685,1.046368 -0.70788,2.080893 -0.90099,4.470236 -0.79428,6.60864 z m -0.57678,-18.761603 c -1.14628,-2.497101 -2.30911,-5.473494 -2.03013,-7.318444 -3.62814,3.522944 -5.93908,7.869802 -6.20742,12.769243 0.52043,0.37944 2.29964,1.632321 4.80395,2.98109 0.2418,-2.930266 1.25963,-5.789545 3.4336,-8.431889"
       style="fill:#fffefe;fill-opacity:1;fill-rule:nonzero;stroke:none;stroke-width:0.03527778"
       id="path2462"
       inkscape:connector-curvature="0" />
    <path
       d="m 151.23215,59.630192 c 0,0 -0.23963,2.011619 -0.8427,2.989129 6.2653,1.491721 11.96139,5.020156 14.24789,7.737959 -4.14366,-7.531646 -13.40519,-10.727088 -13.40519,-10.727088"
       style="fill:#f8d6dd;fill-opacity:1;fill-rule:nonzero;stroke:none;stroke-width:0.03527778"
       id="path2464"
       inkscape:connector-curvature="0" />
    <path
       d="m 169.55137,142.32789 c 0.49146,-1.43746 2.74906,-3.6048 3.96485,-2.62728 0.33357,0.37699 -0.35278,1.3015 -0.35278,1.3015 0,0 2.40048,-0.0873 0.70877,1.81901 0.85961,0.0504 1.45157,1.35058 0.3141,1.91487 0.99706,0.10774 0.8963,1.2675 0.0922,2.07735 0,0 -1.60867,1.85845 -2.99616,1.37067 -1.57753,-0.55319 -2.76935,-2.86864 -1.7309,-5.85606"
       style="fill:#fabd99;fill-opacity:1;fill-rule:nonzero;stroke:none;stroke-width:0.03527778"
       id="path2466"
       inkscape:connector-curvature="0" />
    <path
       d="m 174.18631,144.73599 c 0.99706,0.10774 0.8963,1.2675 0.0922,2.07735 0,0 -1.23291,1.42505 -2.47169,1.45157 0.51808,-0.38431 0.87321,-0.79052 0.87321,-0.79052 0.80773,-0.80525 0.9103,-1.96886 -0.0884,-2.07895 1.13417,-0.55979 0.54204,-1.86292 -0.31477,-1.91762 1.6928,-1.90065 -0.71183,-1.81465 -0.71183,-1.81465 0,0 0.68795,-0.91908 0.35794,-1.30065 -0.20539,-0.16276 -0.43458,-0.22966 -0.67824,-0.23834 0.78277,-0.61102 1.66045,-0.91706 2.27156,-0.42357 0.33357,0.37699 -0.35278,1.3015 -0.35278,1.3015 0,0 2.40048,-0.0873 0.70878,1.81901 0.8596,0.0504 1.45157,1.35058 0.31409,1.91487"
       style="fill:#eaa376;fill-opacity:1;fill-rule:nonzero;stroke:none;stroke-width:0.03527778"
       id="path2468"
       inkscape:connector-curvature="0" />
    <path
       d="m 174.19014,144.60892 -0.036,1.6e-4 c -2.25512,0.48685 -2.88884,1.70083 -2.91774,1.75299 -0.0288,0.0582 0.002,0.13687 0.0617,0.17237 0.062,0.0346 0.14322,0.012 0.16869,-0.051 0.008,-0.01 0.62338,-1.16364 2.75232,-1.62392 0.0692,-0.008 0.10708,-0.0826 0.0927,-0.14988 -0.0206,-0.0584 -0.0678,-0.10246 -0.12157,-0.10081"
       style="fill:#dd8265;fill-opacity:1;fill-rule:nonzero;stroke:none;stroke-width:0.03527778"
       id="path2470"
       inkscape:connector-curvature="0" />
    <path
       d="m 173.87004,142.68746 -0.0108,6.9e-4 c -1.91856,0.1039 -3.13765,1.76164 -3.18297,1.83002 -0.0462,0.0597 -0.0331,0.14266 0.0273,0.18407 0.0556,0.0434 0.13486,0.0309 0.17355,-0.0286 0.016,-0.0158 1.20844,-1.63481 3.01159,-1.729 0.0671,-9e-4 0.11917,-0.0633 0.11233,-0.13687 -0.0124,-0.065 -0.0654,-0.11877 -0.13145,-0.12104"
       style="fill:#dd8265;fill-opacity:1;fill-rule:nonzero;stroke:none;stroke-width:0.03527778"
       id="path2472"
       inkscape:connector-curvature="0" />
    <path
       d="m 173.16436,140.87324 -0.0234,-0.002 c -1.16985,0.12238 -2.4177,1.43148 -2.46779,1.48356 -0.0478,0.0511 -0.0431,0.13169 0.007,0.18034 0.0495,0.0522 0.13459,0.0524 0.17802,1.1e-4 0.0167,-0.0111 1.23933,-1.29321 2.32464,-1.40686 0.0697,-0.008 0.11416,-0.0703 0.10824,-0.14123 -0.0117,-0.0653 -0.0652,-0.11272 -0.12718,-0.11371"
       style="fill:#dd8265;fill-opacity:1;fill-rule:nonzero;stroke:none;stroke-width:0.03527778"
       id="path2474"
       inkscape:connector-curvature="0" />
    <path
       d="m 180.79909,109.87786 c -3.41226,8.98254 -5.13168,36.73749 20.23324,45.28748 25.22432,8.50018 39.83921,-8.06132 44.37499,-25.51594 5.47028,-21.06436 -10.78431,-35.785127 -25.67711,-39.119837 -23.25096,-5.207571 -34.36932,7.321496 -38.93112,19.348297"
       style="fill:#fabd99;fill-opacity:1;fill-rule:nonzero;stroke:none;stroke-width:0.03527778"
       id="path2476"
       inkscape:connector-curvature="0" />
    <path
       d="m 191.82828,132.20517 c -0.15615,2.30925 -3.59228,3.76147 -7.02208,2.5863 -3.42767,-1.18219 -5.12956,-4.15072 -4.78039,-6.88231 0.31599,-2.49405 3.56236,-4.24419 6.86707,-1.37573 3.07694,2.67248 5.09732,3.27743 4.9354,5.67174"
       style="fill:#f8a191;fill-opacity:1;fill-rule:nonzero;stroke:none;stroke-width:0.03527778"
       id="path2478"
       inkscape:connector-curvature="0" />
    <path
       d="m 182.91161,127.63821 c -0.0311,0.30394 -0.37578,0.49459 -0.76525,0.43832 -0.38457,-0.0553 -0.68151,-0.34707 -0.64727,-0.64931 0.0304,-0.29446 0.37054,-0.49235 0.7581,-0.4383 0.39058,0.0619 0.67819,0.35155 0.65442,0.64929"
       style="fill:#fbccc0;fill-opacity:1;fill-rule:nonzero;stroke:none;stroke-width:0.03527778"
       id="path2480"
       inkscape:connector-curvature="0" />
    <path
       d="m 203.20425,128.1891 c -0.0306,0.30372 -0.42835,0.48655 -0.88464,0.41915 -0.46065,-0.0594 -0.80935,-0.3626 -0.77592,-0.66143 0.032,-0.30127 0.42717,-0.48911 0.88695,-0.42319 0.45553,0.0677 0.80529,0.36739 0.77361,0.66547"
       style="fill:#fcd3bb;fill-opacity:1;fill-rule:nonzero;stroke:none;stroke-width:0.03527778"
       id="path2482"
       inkscape:connector-curvature="0" />
    <path
       d="m 230.39176,139.00428 c -0.42501,3.12202 -3.62068,4.89631 -7.72354,4.54513 -3.96039,-0.33887 -7.68672,-3.84635 -6.7148,-6.6737 0.92295,-2.69012 2.98641,-1.42453 7.698,-2.47544 4.55452,-1.01107 7.17524,1.4808 6.74034,4.60401"
       style="fill:#f8a191;fill-opacity:1;fill-rule:nonzero;stroke:none;stroke-width:0.03527778"
       id="path2484"
       inkscape:connector-curvature="0" />
    <path
       d="m 227.76482,137.01063 c -0.0396,0.28007 -0.3743,0.45419 -0.7411,0.38817 -0.36655,-0.0661 -0.6396,-0.34669 -0.59727,-0.6371 0.0423,-0.27815 0.36499,-0.45631 0.73486,-0.39467 0.3669,0.0721 0.63588,0.35746 0.60351,0.6436"
       style="fill:#fbccc0;fill-opacity:1;fill-rule:nonzero;stroke:none;stroke-width:0.03527778"
       id="path2486"
       inkscape:connector-curvature="0" />
    <path
       d="m 189.95523,109.21208 c 3.60623,-1.0663 4.56844,2.98114 2.14378,3.00844 -2.60013,0.023 -4.72852,0.99698 -5.07069,0.73993 -0.74621,-0.54569 0.89718,-3.15015 2.92691,-3.74837"
       style="fill:#d7792c;fill-opacity:1;fill-rule:nonzero;stroke:none;stroke-width:0.03527778"
       id="path2488"
       inkscape:connector-curvature="0" />
    <path
       d="m 224.21163,117.51265 c -3.18733,-2.23051 -5.12159,1.32157 -2.80385,2.15996 2.48496,0.8982 4.28428,2.54014 4.67186,2.41063 0.85331,-0.27727 -0.0752,-3.31739 -1.86801,-4.57059"
       style="fill:#d7792c;fill-opacity:1;fill-rule:nonzero;stroke:none;stroke-width:0.03527778"
       id="path2490"
       inkscape:connector-curvature="0" />
    <path
       d="m 195.42698,134.06961 c 0,0 -1.46525,13.65078 8.18147,15.3993 9.64351,1.73763 8.44424,-11.89923 8.44424,-11.89923 0,0 -7.25576,1.53019 -16.62571,-3.50007"
       style="fill:#461b1c;fill-opacity:1;fill-rule:nonzero;stroke:none;stroke-width:0.03527778"
       id="path2492"
       inkscape:connector-curvature="0" />
    <path
       d="m 204.41507,137.25384 c 0.23637,3.40431 1.2901,8.25986 5.12077,10.57239 2.91653,-3.60625 2.51685,-10.25655 2.51685,-10.25655 0,0 -3.51579,0.69409 -7.63762,-0.31584"
       style="fill:#2c1616;fill-opacity:1;fill-rule:nonzero;stroke:none;stroke-width:0.03527778"
       id="path2494"
       inkscape:connector-curvature="0" />
    <path
       d="m 197.97029,145.93093 c 1.11902,1.8725 3.09122,3.18945 5.70733,3.66433 4.77039,0.8572 6.81826,-1.99416 7.73959,-5.32597 -0.36171,-0.62799 -1.91119,-1.36146 -3.42372,-0.67609 -1.67722,-2.68543 -7.66755,-0.83834 -10.0232,2.33773"
       style="fill:#ee5b63;fill-opacity:1;fill-rule:nonzero;stroke:none;stroke-width:0.03527778"
       id="path2496"
       inkscape:connector-curvature="0" />
    <path
       d="m 209.75442,143.9362 c -0.73689,-0.32025 -1.65095,-0.16073 -2.05607,0.0803 -0.31728,-0.55834 -0.85588,-1.20529 -2.29097,-1.26896 -3.56457,-0.20883 -7.83581,3.4553 -3.23071,5.30724 4.64988,1.87555 10.30683,-2.93655 7.57775,-4.11858"
       style="fill:#f57880;fill-opacity:1;fill-rule:nonzero;stroke:none;stroke-width:0.03527778"
       id="path2498"
       inkscape:connector-curvature="0" />
    <path
       d="m 202.40536,144.08395 c 0.73735,-0.75061 2.60245,-1.2109 3.13649,-0.7119 0.64852,0.58759 -0.95887,1.51249 -2.02213,1.63198 -1.07935,0.13251 -1.58131,-0.43839 -1.11436,-0.92008"
       style="fill:#f8a1a9;fill-opacity:1;fill-rule:nonzero;stroke:none;stroke-width:0.03527778"
       id="path2500"
       inkscape:connector-curvature="0" />
    <path
       d="m 198.27288,135.38507 c -0.34592,1.4148 -0.092,2.52951 1.8245,3.34116 1.78333,0.74942 4.38491,1.33452 6.18626,1.38488 2.15821,0.0594 3.20856,-0.85598 3.07173,-2.3452 -3.67184,-0.14752 -6.62563,-0.61829 -11.08249,-2.38084"
       style="fill:#ffffff;fill-opacity:1;fill-rule:nonzero;stroke:none;stroke-width:0.03527778"
       id="path2502"
       inkscape:connector-curvature="0" />
    <path
       d="m 202.2842,131.79262 c -0.0424,0.0143 -0.0853,0.0152 -0.12782,-0.006 -1.24168,-0.62381 -1.88914,-1.71048 -1.72584,-2.93683 0.15106,-1.12933 0.98118,-2.05433 1.92006,-2.16942 0.59329,-0.0709 1.72219,0.121 2.66105,2.14112 0.0439,0.0944 0.002,0.19198 -0.0868,0.23611 -0.0934,0.046 -0.19009,-9e-4 -0.23449,-0.0922 -0.62173,-1.34242 -1.43332,-2.02833 -2.2766,-1.92975 -0.80872,0.0868 -1.50051,0.90046 -1.63351,1.87521 -0.0677,0.5093 -0.0551,1.7734 1.52114,2.55354 0.0888,0.0475 0.12634,0.14771 0.0876,0.23774 -0.0221,0.0431 -0.0531,0.0778 -0.10479,0.0908"
       style="fill:#ce6748;fill-opacity:1;fill-rule:nonzero;stroke:none;stroke-width:0.03527778"
       id="path2504"
       inkscape:connector-curvature="0" />
    <path
       d="m 221.8575,129.60214 c -0.0347,0.0109 -0.0688,0.0236 -0.1038,0.02 -0.19807,0.003 -0.37145,-0.15883 -0.3786,-0.36072 -0.17137,-3.24864 -2.56306,-5.44411 -4.68797,-5.45359 -1.66237,-0.006 -2.61373,1.31976 -2.55928,3.54788 0.011,0.19718 -0.14953,0.35778 -0.35342,0.35652 -0.19659,-0.007 -0.36498,-0.1708 -0.36741,-0.37472 -0.0882,-3.14361 1.62312,-4.26294 3.25173,-4.25781 2.47574,0.012 5.24754,2.49718 5.43903,6.17464 0.006,0.16595 -0.0959,0.30422 -0.24027,0.34777"
       style="fill:#382f2c;fill-opacity:1;fill-rule:nonzero;stroke:none;stroke-width:0.03527778"
       id="path2506"
       inkscape:connector-curvature="0" />
    <path
       d="m 196.9346,123.07122 c -0.034,0.0106 -0.0711,0.0122 -0.10415,0.0141 -0.19932,0.003 -0.36845,-0.16013 -0.37943,-0.35732 -0.15631,-3.07766 -2.42,-5.15367 -4.43145,-5.16287 -1.55859,-0.005 -2.46481,1.24979 -2.41552,3.34551 0.0118,0.20603 -0.15008,0.36109 -0.34816,0.36345 -0.20151,-0.008 -0.36615,-0.17335 -0.36798,-0.3714 -0.082,-3.00858 1.55143,-4.07314 3.10013,-4.06738 2.36348,0.0143 5.00166,2.37625 5.18482,5.87986 0.008,0.16774 -0.0883,0.30709 -0.23825,0.35608"
       style="fill:#382f2c;fill-opacity:1;fill-rule:nonzero;stroke:none;stroke-width:0.03527778"
       id="path2508"
       inkscape:connector-curvature="0" />
    <path
       d="m 192.10446,94.429781 c 0,0 18.26392,18.068309 44.38595,18.731629 -0.66824,5.81734 0.15992,14.10094 2.85127,23.40869 1.88573,0.69634 6.8747,1.74122 6.8747,1.74122 0,0 15.41038,-15.97879 11.98017,-36.25758 -2.24596,-13.301168 -23.18922,-20.498731 -23.18922,-20.498731 0,0 7.97451,0.391614 6.79983,-2.68676 -1.17546,-3.074985 -9.20315,1.438458 -9.20315,1.438458 0,0 2.5089,-4.471518 -0.15701,-5.916173 -3.81547,-2.062083 -2.30733,5.645408 -2.30733,5.645408 0,0 -13.91431,-5.149281 -28.94972,-3.04502 -13.66351,1.907467 -23.65316,6.855469 -21.1645,35.794438 4.51815,-13.240873 12.07901,-18.355579 12.07901,-18.355579"
       style="fill:#ef9b11;fill-opacity:1;fill-rule:nonzero;stroke:none;stroke-width:0.03527778"
       id="path2510"
       inkscape:connector-curvature="0" />
    <path
       d="m 256.47999,108.98143 c 0.32541,11.65922 -4.64603,18.37374 -12.31148,29.78295 -3.78652,-4.34738 -6.04787,-7.21668 -5.15889,-23.3276 4.86758,15.27568 12.60132,14.12784 17.47037,-6.45535"
       style="fill:#d67321;fill-opacity:1;fill-rule:nonzero;stroke:none;stroke-width:0.03527778"
       id="path2512"
       inkscape:connector-curvature="0" />
    <path
       d="m 257.76906,100.29457 c -0.086,-0.27514 -0.1704,-0.550976 -0.27226,-0.822368 -0.0596,-0.170262 -0.12912,-0.339244 -0.20051,-0.510527 -0.097,-0.239847 -0.19643,-0.484733 -0.30644,-0.718998 -0.0815,-0.17615 -0.17117,-0.348732 -0.25674,-0.520056 -0.1142,-0.229398 -0.23379,-0.453426 -0.36068,-0.67738 -0.0952,-0.167195 -0.18933,-0.340957 -0.29042,-0.502555 -0.13607,-0.223084 -0.27651,-0.441219 -0.41975,-0.661233 -0.10441,-0.160173 -0.20843,-0.317461 -0.31687,-0.472849 -0.15677,-0.226431 -0.32317,-0.445685 -0.49297,-0.663472 -0.10259,-0.142614 -0.20587,-0.284919 -0.31839,-0.426325 -0.19985,-0.247724 -0.41301,-0.501982 -0.62549,-0.744294 -0.0843,-0.09844 -0.16447,-0.195603 -0.24797,-0.297451 -0.30613,-0.336749 -0.61911,-0.673619 -0.94334,-0.996483 -0.059,-0.06648 -0.12094,-0.119443 -0.18058,-0.17646 -0.26871,-0.270202 -0.53894,-0.533632 -0.81873,-0.789907 -0.10992,-0.102748 -0.22102,-0.195821 -0.33114,-0.298488 -0.23493,-0.211269 -0.47145,-0.424918 -0.71505,-0.626351 -0.12222,-0.106655 -0.24566,-0.203611 -0.36943,-0.309604 -0.23522,-0.195853 -0.47748,-0.388681 -0.71882,-0.578851 -0.12262,-0.09731 -0.24625,-0.191124 -0.37114,-0.287452 -0.24769,-0.190501 -0.49784,-0.379954 -0.74988,-0.562468 -0.11812,-0.087 -0.23017,-0.167431 -0.34874,-0.254241 -0.27611,-0.193602 -0.55126,-0.387626 -0.82632,-0.575572 -0.0914,-0.06177 -0.18511,-0.128625 -0.27878,-0.192468 -0.32871,-0.219993 -0.66152,-0.435173 -0.99084,-0.645731 -0.0378,-0.02352 -0.076,-0.04693 -0.11643,-0.07243 -0.77251,-0.488527 -1.54031,-0.945424 -2.28844,-1.364874 -9.77317,1.224062 -33.20686,-0.843027 -43.98832,-8.311703 -1.396,0.234661 -2.78748,0.516332 -4.1512,0.853399 -6.22023,1.627543 -11.19464,4.791785 -13.80878,12.128882 12.8559,-2.24022 45.24197,-3.737157 77.02303,17.71438 l 0.003,-0.0685 c -0.002,-0.28658 -0.0152,-0.58082 -0.0211,-0.86892 -0.005,-0.25499 -0.0134,-0.50509 -0.028,-0.75887 -0.0152,-0.28718 -0.0323,-0.57348 -0.0518,-0.8649 -0.0238,-0.30492 -0.0543,-0.61603 -0.0788,-0.92371 -0.0263,-0.23346 -0.0488,-0.46542 -0.0744,-0.70226 -0.0682,-0.56113 -0.14428,-1.12198 -0.23997,-1.68968 -0.0758,-0.44168 -0.17561,-0.87913 -0.29215,-1.31248 -0.0387,-0.1486 -0.0899,-0.29487 -0.13531,-0.44671"
       style="fill:#efb82e;fill-opacity:1;fill-rule:nonzero;stroke:none;stroke-width:0.03527778"
       id="path2514"
       inkscape:connector-curvature="0" />
    <path
       d="m 239.6399,133.62176 c 0,0 2.34102,-3.69901 6.76575,-2.17659 4.66726,1.60807 3.60493,8.49992 -0.60985,11.27414 -4.21256,2.76409 -9.4342,0.9961 -9.49992,-2.8546 l 3.34402,-6.24295"
       style="fill:#fabd99;fill-opacity:1;fill-rule:nonzero;stroke:none;stroke-width:0.03527778"
       id="path2516"
       inkscape:connector-curvature="0" />
    <path
       d="m 245.77936,131.62505 c -1.12647,-0.38261 -2.10127,-0.402 -2.93499,-0.24023 0.65906,-0.10827 1.365,-0.0653 2.11289,0.22877 4.31162,1.68105 2.83765,6.78554 0.22699,9.09205 -3.5298,3.11063 -7.71566,1.80391 -8.88457,-1.24941 0.0568,3.5823 4.95858,5.23659 8.9091,2.66136 3.95191,-2.58195 4.94855,-8.999 0.57058,-10.49254"
       style="fill:#eaa376;fill-opacity:1;fill-rule:nonzero;stroke:none;stroke-width:0.03527778"
       id="path2518"
       inkscape:connector-curvature="0" />
    <path
       d="m 246.45284,133.59686 c -2.60145,-1.97703 -7.58701,2.69704 -5.08375,7.60088 0.23698,-4.89823 2.38618,-5.57215 3.54618,-2.61902 0.59665,-1.34185 0.26175,-2.53503 -1.5324,-3.22783 0.94899,-1.704 3.06991,-1.754 3.06991,-1.754"
       style="fill:#d48a5b;fill-opacity:1;fill-rule:nonzero;stroke:none;stroke-width:0.03527778"
       id="path2520"
       inkscape:connector-curvature="0" />
    <path
       d="M 109.85517,91.97979 C 92.149323,73.238066 103.64211,69.76846 129.60826,55.693828 169.91673,33.847439 134.71471,-6.7186682 53.240137,8.2499522 16.847041,14.93609 1.2714295,36.897092 14.987636,57.460722 25.68104,73.501221 54.273951,88.074645 109.85517,91.97979"
       style="fill:#f03940;fill-opacity:1;fill-rule:nonzero;stroke:none;stroke-width:0.03527778"
       id="path18882"
       inkscape:connector-curvature="0" />
    <text
       xml:space="preserve"
       style="font-style:normal;font-weight:normal;font-size:10.58333302px;line-height:1.25;font-family:sans-serif;letter-spacing:0px;word-spacing:0px;fill:#000000;fill-opacity:1;stroke:none;stroke-width:0.26458332"
       x="20.579752"
       y="42.321995"
       id="text20997"><tspan
         sodipodi:role="line"
         id="tspan20995"
         x="20.579752"
         y="42.321995"
         style="font-style:normal;font-variant:normal;font-weight:bold;font-stretch:normal;font-size:12.69999981px;font-family:sans-serif;-inkscape-font-specification:'sans-serif Bold';stroke-width:0.26458332">Happy Birthday!</tspan></text>
    <flowRoot
       xml:space="preserve"
       id="flowRoot20999"
       style="fill:black;fill-opacity:1;stroke:none;font-family:sans-serif;font-style:normal;font-weight:normal;font-size:40px;line-height:1.25;letter-spacing:0px;word-spacing:0px"><flowRegion
         id="flowRegion21001"><rect
           id="rect21003"
           width="33.941124"
           height="135.7645"
           x="292.74222"
           y="186.82719" /></flowRegion><flowPara
         id="flowPara21005"></flowPara></flowRoot>  </g>
  <g
     inkscape:groupmode="layer"
     id="layer2"
     inkscape:label="Layer 3" />
  <g
     inkscape:label="Layer 1"
     inkscape:groupmode="layer"
     id="layer1"
     transform="translate(0,-32.41665)">
    <text
       xml:space="preserve"
       style="font-style:normal;font-variant:normal;font-weight:bold;font-stretch:normal;font-size:10.58333302px;line-height:1.25;font-family:sans-serif;-inkscape-font-specification:'sans-serif Bold';letter-spacing:0px;word-spacing:0px;fill:#000000;fill-opacity:1;stroke:none;stroke-width:0.26458332"
       x="150.05655"
       y="89.869026"
       id="text8811" />
    <text
       xml:space="preserve"
       style="font-style:normal;font-variant:normal;font-weight:bold;font-stretch:normal;font-size:10.58333302px;line-height:1.25;font-family:sans-serif;-inkscape-font-specification:'sans-serif Bold';letter-spacing:0px;word-spacing:0px;fill:#000000;fill-opacity:1;stroke:none;stroke-width:0.26458332"
       x="160.63989"
       y="97.806526"
       id="text8815" />
    <text
       xml:space="preserve"
       style="font-style:normal;font-variant:normal;font-weight:bold;font-stretch:normal;font-size:10.58333302px;line-height:1.25;font-family:sans-serif;-inkscape-font-specification:'sans-serif Bold';letter-spacing:0px;word-spacing:0px;fill:#000000;fill-opacity:1;stroke:none;stroke-width:0.26458332"
       x="156.86011"
       y="88.7351"
       id="text8819" />
    <flowRoot
       xml:space="preserve"
       id="flowRoot8821"
       style="font-style:normal;font-variant:normal;font-weight:bold;font-stretch:normal;font-size:40px;line-height:1.25;font-family:sans-serif;-inkscape-font-specification:'sans-serif Bold';letter-spacing:0px;word-spacing:0px;fill:#000000;fill-opacity:1;stroke:none"><flowRegion
         id="flowRegion8823"
         style="font-style:normal;font-variant:normal;font-weight:bold;font-stretch:normal;font-family:sans-serif;-inkscape-font-specification:'sans-serif Bold'" /><flowPara
         id="flowPara8827" /></flowRoot>    <flowRoot
       xml:space="preserve"
       id="flowRoot8829"
       style="font-style:normal;font-variant:normal;font-weight:bold;font-stretch:normal;font-size:40px;line-height:1.25;font-family:sans-serif;-inkscape-font-specification:'sans-serif Bold';letter-spacing:0px;word-spacing:0px;fill:#000000;fill-opacity:1;stroke:none"><flowRegion
         id="flowRegion8831"
         style="font-style:normal;font-variant:normal;font-weight:bold;font-stretch:normal;font-family:sans-serif;-inkscape-font-specification:'sans-serif Bold'" /><flowPara
         id="flowPara8835" /></flowRoot>    <flowRoot
       xml:space="preserve"
       id="flowRoot8837"
       style="font-style:normal;font-variant:normal;font-weight:bold;font-stretch:normal;font-size:40px;line-height:1.25;font-family:sans-serif;-inkscape-font-specification:'sans-serif Bold';letter-spacing:0px;word-spacing:0px;fill:#000000;fill-opacity:1;stroke:none"><flowRegion
         id="flowRegion8839"
         style="font-style:normal;font-variant:normal;font-weight:bold;font-stretch:normal;font-family:sans-serif;-inkscape-font-specification:'sans-serif Bold'" /><flowPara
         id="flowPara8843" /></flowRoot>    <text
       xml:space="preserve"
       style="font-style:normal;font-variant:normal;font-weight:bold;font-stretch:normal;font-size:10.58333302px;line-height:1.25;font-family:sans-serif;-inkscape-font-specification:'sans-serif Bold';letter-spacing:0px;word-spacing:0px;fill:#000000;fill-opacity:1;stroke:none;stroke-width:0.26458332"
       x="209.39882"
       y="107.25594"
       id="text8847" />
    <flowRoot
       xml:space="preserve"
       id="flowRoot8849"
       style="font-style:normal;font-variant:normal;font-weight:bold;font-stretch:normal;font-size:40px;line-height:1.25;font-family:sans-serif;-inkscape-font-specification:'sans-serif Bold';letter-spacing:0px;word-spacing:0px;fill:#000000;fill-opacity:1;stroke:none"><flowRegion
         id="flowRegion8851"
         style="font-style:normal;font-variant:normal;font-weight:bold;font-stretch:normal;font-family:sans-serif;-inkscape-font-specification:'sans-serif Bold'" /><flowPara
         id="flowPara8855" /></flowRoot>    <flowRoot
       xml:space="preserve"
       id="flowRoot8857"
       style="font-style:normal;font-variant:normal;font-weight:bold;font-stretch:normal;font-size:40px;line-height:1.25;font-family:sans-serif;-inkscape-font-specification:'sans-serif Bold';letter-spacing:0px;word-spacing:0px;fill:#000000;fill-opacity:1;stroke:none"><flowRegion
         id="flowRegion8859"
         style="font-style:normal;font-variant:normal;font-weight:bold;font-stretch:normal;font-family:sans-serif;-inkscape-font-specification:'sans-serif Bold'" /><flowPara
         id="flowPara8863" /></flowRoot>    <flowRoot
       xml:space="preserve"
       id="flowRoot8865"
       style="font-style:normal;font-variant:normal;font-weight:bold;font-stretch:normal;font-size:40px;line-height:1.25;font-family:sans-serif;-inkscape-font-specification:'sans-serif Bold';letter-spacing:0px;word-spacing:0px;fill:#000000;fill-opacity:1;stroke:none"><flowRegion
         id="flowRegion8867"
         style="font-style:normal;font-variant:normal;font-weight:bold;font-stretch:normal;font-family:sans-serif;-inkscape-font-specification:'sans-serif Bold'" /><flowPara
         id="flowPara8871" /></flowRoot>    <flowRoot
       xml:space="preserve"
       id="flowRoot8873"
       style="font-style:normal;font-variant:normal;font-weight:bold;font-stretch:normal;font-size:40px;line-height:1.25;font-family:sans-serif;-inkscape-font-specification:'sans-serif Bold';letter-spacing:0px;word-spacing:0px;fill:#000000;fill-opacity:1;stroke:none"><flowRegion
         id="flowRegion8875"
         style="font-style:normal;font-variant:normal;font-weight:bold;font-stretch:normal;font-family:sans-serif;-inkscape-font-specification:'sans-serif Bold'" /><flowPara
         id="flowPara8879" /></flowRoot>    <text
       xml:space="preserve"
       style="font-style:normal;font-weight:normal;font-size:10.58333302px;line-height:1.25;font-family:sans-serif;letter-spacing:0px;word-spacing:0px;fill:#000000;fill-opacity:1;stroke:none;stroke-width:0.26458332"
       x="101.02788"
       y="69.125984"
       id="text977"><tspan
         sodipodi:role="line"
         id="tspan975"
         x="101.02788"
         y="78.489754"
         style="stroke-width:0.26458332" /><tspan
         sodipodi:role="line"
         x="101.02788"
         y="91.718918"
         style="stroke-width:0.26458332"
         id="tspan979" /><tspan
         sodipodi:role="line"
         x="101.02788"
         y="104.94809"
         style="stroke-width:0.26458332"
         id="tspan981" /><tspan
         sodipodi:role="line"
         x="101.02788"
         y="118.17725"
         style="stroke-width:0.26458332"
         id="tspan983" /><tspan
         sodipodi:role="line"
         x="101.02788"
         y="131.40642"
         style="stroke-width:0.26458332"
         id="tspan985" /><tspan
         sodipodi:role="line"
         x="101.02788"
         y="144.63559"
         style="stroke-width:0.26458332"
         id="tspan987" /><tspan
         sodipodi:role="line"
         x="101.02788"
         y="157.86475"
         style="stroke-width:0.26458332"
         id="tspan989" /><tspan
         sodipodi:role="line"
         x="101.02788"
         y="171.09392"
         style="stroke-width:0.26458332"
         id="tspan991" /><tspan
         sodipodi:role="line"
         x="101.02788"
         y="184.32309"
         style="stroke-width:0.26458332"
         id="tspan993" /><tspan
         sodipodi:role="line"
         x="101.02788"
         y="197.55225"
         style="stroke-width:0.26458332"
         id="tspan995" /><tspan
         sodipodi:role="line"
         x="101.02788"
         y="210.78142"
         style="stroke-width:0.26458332"
         id="tspan997" /><tspan
         sodipodi:role="line"
         x="101.02788"
         y="224.01059"
         style="stroke-width:0.26458332"
         id="tspan999" /><tspan
         sodipodi:role="line"
         x="101.02788"
         y="237.23975"
         style="stroke-width:0.26458332"
         id="tspan1001" /><tspan
         sodipodi:role="line"
         x="101.02788"
         y="250.46892"
         style="stroke-width:0.26458332"
         id="tspan1003" /><tspan
         sodipodi:role="line"
         x="101.02788"
         y="263.69809"
         style="stroke-width:0.26458332"
         id="tspan1005" /><tspan
         sodipodi:role="line"
         x="101.02788"
         y="276.92725"
         style="stroke-width:0.26458332"
         id="tspan1007" /><tspan
         sodipodi:role="line"
         x="101.02788"
         y="290.1564"
         style="stroke-width:0.26458332"
         id="tspan1009" /><tspan
         sodipodi:role="line"
         x="101.02788"
         y="303.38559"
         style="stroke-width:0.26458332"
         id="tspan1011" /><tspan
         sodipodi:role="line"
         x="101.02788"
         y="316.61475"
         style="stroke-width:0.26458332"
         id="tspan1013" /><tspan
         sodipodi:role="line"
         x="101.02788"
         y="329.8439"
         style="stroke-width:0.26458332"
         id="tspan1015" /><tspan
         sodipodi:role="line"
         x="101.02788"
         y="343.07309"
         style="stroke-width:0.26458332"
         id="tspan1017" /><tspan
         sodipodi:role="line"
         x="101.02788"
         y="356.30225"
         style="stroke-width:0.26458332"
         id="tspan1019" /><tspan
         sodipodi:role="line"
         x="101.02788"
         y="369.5314"
         style="stroke-width:0.26458332"
         id="tspan1021" /><tspan
         sodipodi:role="line"
         x="101.02788"
         y="382.76059"
         style="stroke-width:0.26458332"
         id="tspan1023" /></text>
  </g>
</svg>
