<?xml version="1.0" encoding="UTF-8" standalone="no"?>
<!-- Created with Inkscape (http://www.inkscape.org/) -->

<svg
   xmlns:dc="http://purl.org/dc/elements/1.1/"
   xmlns:cc="http://creativecommons.org/ns#"
   xmlns:rdf="http://www.w3.org/1999/02/22-rdf-syntax-ns#"
   xmlns:svg="http://www.w3.org/2000/svg"
   xmlns="http://www.w3.org/2000/svg"
   xmlns:sodipodi="http://sodipodi.sourceforge.net/DTD/sodipodi-0.dtd"
   xmlns:inkscape="http://www.inkscape.org/namespaces/inkscape"
   width="1000"
   height="1000"
   viewBox="0 0 264.58333 264.58334"
   version="1.1"
   id="svg2383"
   inkscape:version="0.92.5 (2060ec1f9f, 2020-04-08)"
   sodipodi:docname="What day is today.svg"
   enable-background="new">
  <defs
     id="defs2377" />
  <sodipodi:namedview
     id="base"
     pagecolor="#ffffff"
     bordercolor="#666666"
     borderopacity="1.0"
     inkscape:pageopacity="0.0"
     inkscape:pageshadow="2"
     inkscape:zoom="0.70710678"
     inkscape:cx="394.8676"
     inkscape:cy="480.97961"
     inkscape:document-units="px"
     inkscape:current-layer="layer3"
     showgrid="false"
     units="px"
     inkscape:window-width="1920"
     inkscape:window-height="1031"
     inkscape:window-x="0"
     inkscape:window-y="25"
     inkscape:window-maximized="1"
     showguides="true"
     inkscape:lockguides="true"
     inkscape:object-nodes="false"
     inkscape:snap-nodes="false"
     inkscape:snap-others="false" />
  <metadata
     id="metadata2380">
    <rdf:RDF>
      <cc:Work
         rdf:about="">
        <dc:format>image/svg+xml</dc:format>
        <dc:type
           rdf:resource="http://purl.org/dc/dcmitype/StillImage" />
        <dc:title />
      </cc:Work>
    </rdf:RDF>
  </metadata>
  <g
     inkscape:groupmode="layer"
     id="layer3"
     inkscape:label="Layer 2">
    <ellipse
       style="fill:#9595e8;fill-opacity:1;stroke-width:0.45916313"
       id="path3018"
       cx="133.53714"
       cy="218.77054"
       rx="105.7971"
       ry="33.096272" />
    <text
       xml:space="preserve"
       style="font-style:normal;font-weight:normal;font-size:10.58333302px;line-height:1.25;font-family:sans-serif;letter-spacing:0px;word-spacing:0px;fill:#000000;fill-opacity:1;stroke:none;stroke-width:0.26458332"
       x="2.6192422"
       y="64.398453"
       id="text20604"><tspan
         sodipodi:role="line"
         id="tspan20602"
         x="2.6192422"
         y="73.762222"
         style="font-style:normal;font-variant:normal;font-weight:bold;font-stretch:normal;font-size:12.69999981px;font-family:sans-serif;-inkscape-font-specification:'sans-serif Bold';stroke-width:0.26458332" /></text>
    <text
       xml:space="preserve"
       style="font-style:normal;font-weight:normal;font-size:10.58333302px;line-height:1.25;font-family:sans-serif;letter-spacing:0px;word-spacing:0px;fill:#000000;fill-opacity:1;stroke:none;stroke-width:0.26458332"
       x="40.411156"
       y="38.954399"
       id="text20997"><tspan
         sodipodi:role="line"
         id="tspan20995"
         x="40.411156"
         y="48.318169"
         style="font-style:normal;font-variant:normal;font-weight:bold;font-stretch:normal;font-size:12.69999981px;font-family:sans-serif;-inkscape-font-specification:'sans-serif Bold';stroke-width:0.26458332" /></text>
    <flowRoot
       xml:space="preserve"
       id="flowRoot20999"
       style="fill:black;fill-opacity:1;stroke:none;font-family:sans-serif;font-style:normal;font-weight:normal;font-size:40px;line-height:1.25;letter-spacing:0px;word-spacing:0px"><flowRegion
         id="flowRegion21001"><rect
           id="rect21003"
           width="33.941124"
           height="135.7645"
           x="292.74222"
           y="186.82719" /></flowRegion><flowPara
         id="flowPara21005" /></flowRoot>    <path
       d="m 12.160045,154.42451 c -0.016,0.004 -0.0312,0.003 -0.0499,0.002 -1.56668,-0.26116 -3.3095203,-0.31808 -3.3272003,-0.31571 -0.0673,-0.003 -0.12498,-0.0467 -0.13058,-0.0987 -0.003,-0.0508 0.0484,-0.0922 0.11584,-0.0883 0.0157,-0.002 1.7817503,0.0565 3.3687903,0.31836 0.0677,0.0126 0.11495,0.0611 0.10978,0.11179 -0.007,0.0362 -0.0393,0.0632 -0.0866,0.0706"
       style="fill:#ce6748;fill-opacity:1;fill-rule:nonzero;stroke:none;stroke-width:0.03527778"
       id="path16424"
       inkscape:connector-curvature="0" />
    <path
       sodipodi:nodetypes="ccccc"
       id="path1929-2"
       style="fill:#9595e8;fill-opacity:1;fill-rule:nonzero;stroke:none;stroke-width:0.01865088"
       d="m 24.631997,11.547716 c 20.42148,-5.2392627 117.889103,-4.8498875 145.050293,1.72606 26.05777,6.308501 29.18963,24.939986 7.34399,31.03415 C 159.9499,49.071175 54.429633,54.6385 24.631997,48.224857 c -30.4791348,-6.560509 -23.90996257,-30.542941 0,-36.677141"
       inkscape:connector-curvature="0" />
    <text
       xml:space="preserve"
       style="font-style:normal;font-weight:normal;font-size:10.58333302px;line-height:1.25;font-family:sans-serif;letter-spacing:0px;word-spacing:0px;fill:#000000;fill-opacity:1;stroke:none;stroke-width:0.26458332"
       x="14.218737"
       y="35.212624"
       id="text2025"><tspan
         sodipodi:role="line"
         id="tspan2023"
         x="14.218737"
         y="35.212624"
         style="font-style:normal;font-variant:normal;font-weight:bold;font-stretch:normal;font-size:12.69999981px;font-family:sans-serif;-inkscape-font-specification:'sans-serif Bold';stroke-width:0.26458332">What day is tomorrow?</tspan></text>
    <g
       id="g464"
       transform="matrix(0.0218427,0,0,-0.02354528,-283.59222,269.57719)"
       style="stroke-width:1.69940853">
      <path
         d="m 16285.7,2392.69 c 0,0 6.4,-258.69 14.3,-399.29 -93,-23.8 -151.5,-6.22 -151.5,-6.22 l -47.7,427.48 184.9,-21.97"
         style="fill:#fabd99;fill-opacity:1;fill-rule:nonzero;stroke:none;stroke-width:1.69940853"
         id="path466"
         inkscape:connector-curvature="0" />
    </g>
    <g
       id="g468"
       transform="matrix(0.02229296,0,0,-0.02403063,-283.59222,269.57719)"
       style="stroke-width:1.69940853">
      <path
         d="m 15794.6,1884.09 c -17.9,-39.64 -23.4,-110.77 68.9,-189.69 92.1,-78.93 183.6,-145.57 322.4,-97.4 114.1,39.55 66.1,173.81 66.1,173.81 l -457.4,113.28"
         style="fill:#e0e0de;fill-opacity:1;fill-rule:nonzero;stroke:none;stroke-width:1.69940853"
         id="path470"
         inkscape:connector-curvature="0" />
    </g>
    <g
       id="g472"
       transform="matrix(0.02230675,0,0,-0.02404551,-283.59222,269.57719)"
       style="stroke-width:1.69940853">
      <path
         d="m 15799.8,2048.47 c -22.2,-35.76 -45.9,-174.78 23.7,-235.92 69.3,-61.12 216,-183.83 352.4,-133.55 124.1,45.89 52.5,154.62 -16.6,198.81 -69.2,44.28 -201.2,167.25 -201.2,167.25 0,0 -18.7,-76.63 -158.3,3.41"
         style="fill:#48c1b0;fill-opacity:1;fill-rule:nonzero;stroke:none;stroke-width:1.69940853"
         id="path474"
         inkscape:connector-curvature="0" />
    </g>
    <g
       id="g476"
       transform="matrix(0.02208562,0,0,-0.02380714,-283.59222,269.57719)"
       style="stroke-width:1.69940853">
      <path
         d="m 16195.2,2001.17 c -52.5,15.76 -125.4,-9.5 -150.9,-45.99 -25.2,-36.57 5.2,-65.72 27,-63.91 21.9,1.72 85.5,31.78 157.1,40.65 71.6,8.69 8.6,56.94 -33.2,69.25"
         style="fill:#e0e0de;fill-opacity:1;fill-rule:nonzero;stroke:none;stroke-width:1.69940853"
         id="path478"
         inkscape:connector-curvature="0" />
    </g>
    <g
       id="g480"
       transform="matrix(0.02222697,0,0,-0.02395952,-283.59222,269.57719)"
       style="stroke-width:1.69940853">
      <path
         d="m 16195.7,1888.51 c -52,15.66 -124.5,-9.35 -149.8,-45.69 -25,-36.35 5.2,-65.22 26.9,-63.51 21.7,1.8 84.8,31.66 156,40.48 71.2,8.63 8.6,56.49 -33.1,68.72"
         style="fill:#e0e0de;fill-opacity:1;fill-rule:nonzero;stroke:none;stroke-width:1.69940853"
         id="path482"
         inkscape:connector-curvature="0" />
    </g>
    <g
       id="g484"
       transform="matrix(0.02086898,0,0,-0.02249567,-283.59222,269.57719)"
       style="stroke-width:1.69940853">
      <path
         d="m 16106.5,2504.34 c 0,0 -6.8,-270.76 -15,-417.92 97.3,-24.91 158.5,-6.51 158.5,-6.51 l 50,447.42 -193.5,-22.99"
         style="fill:#fabd99;fill-opacity:1;fill-rule:nonzero;stroke:none;stroke-width:1.69940853"
         id="path486"
         inkscape:connector-curvature="0" />
    </g>
    <g
       id="g488"
       transform="matrix(0.02086737,0,0,-0.02249393,-283.59222,269.57719)"
       style="stroke-width:1.69940853">
      <path
         d="m 16280.9,2012.79 c 19.1,-42.35 18.8,-124.46 -79.8,-208.78 -98.5,-84.32 -211.1,-142.09 -359.8,-91.89 -125,42.36 -49,179.66 -49,179.66 l 488.6,121.01"
         style="fill:#e0e0de;fill-opacity:1;fill-rule:nonzero;stroke:none;stroke-width:1.69940853"
         id="path490"
         inkscape:connector-curvature="0" />
    </g>
    <g
       id="g492"
       transform="matrix(0.02088537,0,0,-0.02251334,-283.59222,269.57719)"
       style="stroke-width:1.69940853">
      <path
         d="m 16250.9,2187.89 c 23.7,-38.2 49.1,-186.68 -25.3,-251.98 -74.1,-65.28 -206.7,-183.9 -385.6,-134.98 -140.3,38.39 -46.9,157.48 27,204.68 73.8,47.29 214.7,178.64 214.7,178.64 0,0 20,-81.85 169.2,3.64"
         style="fill:#48c1b0;fill-opacity:1;fill-rule:nonzero;stroke:none;stroke-width:1.69940853"
         id="path494"
         inkscape:connector-curvature="0" />
    </g>
    <g
       id="g496"
       transform="matrix(0.02073982,0,0,-0.02235643,-283.59222,269.57719)"
       style="stroke-width:1.69940853">
      <path
         d="m 16112.5,2131.04 c 55.7,16.77 133.4,-10.13 160.6,-48.98 26.9,-38.94 -5.6,-69.99 -28.8,-68.06 -23.3,1.83 -90.9,33.84 -167.2,43.29 -76.2,9.25 -9.2,60.63 35.4,73.75"
         style="fill:#e0e0de;fill-opacity:1;fill-rule:nonzero;stroke:none;stroke-width:1.69940853"
         id="path498"
         inkscape:connector-curvature="0" />
    </g>
    <g
       id="g500"
       transform="matrix(0.02062364,0,0,-0.0222312,-283.59222,269.57719)"
       style="stroke-width:1.69940853">
      <path
         d="m 16111.4,2043.27 c 56.1,16.87 134.2,-10.08 161.6,-49.16 27,-39.16 -5.7,-70.38 -29,-68.44 -23.4,1.84 -91.5,34.03 -168.1,43.53 -76.7,9.31 -9.3,60.88 35.5,74.07"
         style="fill:#e0e0de;fill-opacity:1;fill-rule:nonzero;stroke:none;stroke-width:1.69940853"
         id="path502"
         inkscape:connector-curvature="0" />
    </g>
    <g
       id="g504"
       transform="matrix(0.02205383,0,0,-0.02377287,-283.59222,269.57719)"
       style="stroke-width:1.69940853">
      <path
         d="m 15682.3,3910.86 c 1.3,0.36 308.5,0.82 577.5,58.02 -2,-447.5 40.2,-1103.17 23.2,-1653.03 -63.4,-76.52 -134.3,-44.51 -388.9,-58.11 -82.6,336.71 -178.4,805.89 -211.8,1002.53 -33.3,-196.64 -129.1,-665.82 -211.7,-1002.53 -254.5,13.6 -325.5,-18.41 -388.9,58.11 -17,549.86 25.2,1205.53 23.1,1653.03 269.2,-57.2 576.3,-57.66 577.5,-58.02"
         style="fill:#3f4042;fill-opacity:1;fill-rule:nonzero;stroke:none;stroke-width:1.69940853"
         id="path506"
         inkscape:connector-curvature="0" />
    </g>
    <g
       id="g508"
       transform="matrix(0.02199944,0,0,-0.02371425,-283.59222,269.57719)"
       style="stroke-width:1.69940853">
      <path
         d="m 15721.1,3745.11 c -1.2,0.36 -304.6,0.82 -577.8,56.53 -0.5,61.8 -0.9,163.78 -1.2,219.76 346.7,-105.88 888.2,-57.35 1157.9,0 -0.3,-55.98 -0.6,-157.96 -1.1,-219.76 -273.3,-55.71 -576.6,-56.17 -577.8,-56.53"
         style="fill:#1d1c1c;fill-opacity:1;fill-rule:nonzero;stroke:none;stroke-width:1.69940853"
         id="path510"
         inkscape:connector-curvature="0" />
    </g>
    <g
       id="g512"
       transform="matrix(0.02196806,0,0,-0.02368041,-283.59222,269.57719)"
       style="stroke-width:1.69940853">
      <path
         d="m 16139.6,3707.48 c 0,0 58,-141.43 160.4,-209.51 -16.8,-33.95 -50.8,-90.65 -50.8,-90.65 0,0 -195.4,133.88 -222.4,277.5 68.1,0.18 112.8,22.66 112.8,22.66"
         style="fill:#1d1c1c;fill-opacity:1;fill-rule:nonzero;stroke:none;stroke-width:1.69940853"
         id="path514"
         inkscape:connector-curvature="0" />
    </g>
    <g
       id="g516"
       transform="matrix(0.02082658,0,0,-0.02244997,-283.59222,269.57719)"
       style="stroke-width:1.69940853">
      <path
         d="m 16181.1,3910.71 c 0,0 -61.2,-149.18 -169.2,-221 17.7,-35.81 53.6,-95.62 53.6,-95.62 0,0 206.1,141.23 234.5,292.72 -71.9,0.19 -118.9,23.9 -118.9,23.9"
         style="fill:#1d1c1c;fill-opacity:1;fill-rule:nonzero;stroke:none;stroke-width:1.69940853"
         id="path518"
         inkscape:connector-curvature="0" />
    </g>
    <g
       id="g520"
       transform="matrix(0.02205122,0,0,-0.02377008,-283.59222,269.57719)"
       style="stroke-width:1.69940853">
      <path
         d="m 15849.5,2409.61 c 0,0 249.6,-41.89 441.9,43.34 6.9,-86.69 8.6,-213.17 3.3,-229.67 0,0 -263,-80.07 -404.6,-20.95 -16.3,47.87 -26.7,134.56 -40.6,207.28"
         style="fill:#1d1c1c;fill-opacity:1;fill-rule:nonzero;stroke:none;stroke-width:1.69940853"
         id="path522"
         inkscape:connector-curvature="0" />
    </g>
    <g
       id="g524"
       transform="matrix(0.02099374,0,0,-0.02263014,-283.59222,269.57719)"
       style="stroke-width:1.69940853">
      <path
         d="m 16300,2530.98 c 0,0 -262.1,-44 -464,45.53 -7.3,-91.05 -9.1,-223.91 -3.5,-241.24 0,0 276.3,-84.1 425,-22 17.1,50.28 28,141.33 42.5,217.71"
         style="fill:#1d1c1c;fill-opacity:1;fill-rule:nonzero;stroke:none;stroke-width:1.69940853"
         id="path526"
         inkscape:connector-curvature="0" />
    </g>
    <g
       id="g528"
       transform="matrix(0.02130565,0,0,-0.02296638,-283.59222,269.57719)"
       style="stroke-width:1.69940853">
      <path
         d="m 16161.8,3957.34 c 4.6,-36.88 38.2,-63.06 75,-58.46 36.9,4.5 63.2,38.1 58.6,74.98 -4.5,36.98 -38.2,63.16 -75.1,58.56 -36.9,-4.6 -63,-38.2 -58.5,-75.08"
         style="fill:#3f4042;fill-opacity:1;fill-rule:nonzero;stroke:none;stroke-width:1.69940853"
         id="path530"
         inkscape:connector-curvature="0" />
    </g>
    <g
       id="g532"
       transform="matrix(0.02157676,0,0,-0.02325862,-283.59222,269.57719)"
       style="stroke-width:1.69940853">
      <path
         d="m 16285,5337.61 -167.8,17.98 v 155.12 h -215.8 v -155.4 l -158.8,-17.7 c -15,-283.28 253,-298.11 270.7,-298.75 v -0.09 l 0.5,0.09 0.4,-0.09 v 0.09 c 17.8,0.64 285.8,15.47 270.8,298.75"
         style="fill:#fabd99;fill-opacity:1;fill-rule:nonzero;stroke:none;stroke-width:1.69940853"
         id="path534"
         inkscape:connector-curvature="0" />
    </g>
    <g
       id="g536"
       transform="matrix(0.02130825,0,0,-0.02296917,-283.59222,269.57719)"
       style="stroke-width:1.69940853">
      <path
         d="m 16208.6,5464.92 c 38.7,0 72.4,-16.42 91.4,-41.09 v 113.91 h -182.7 v -113.91 c 19,24.67 52.7,41.09 91.3,41.09"
         style="fill:#efa378;fill-opacity:1;fill-rule:nonzero;stroke:none;stroke-width:1.69940853"
         id="path538"
         inkscape:connector-curvature="0" />
    </g>
    <g
       id="g540"
       transform="matrix(0.02231875,0,0,-0.02405844,-283.59222,269.57719)"
       style="stroke-width:1.69940853">
      <path
         d="m 15788.1,5157.83 c -1.4,-232.56 -154.1,-318.65 -307.3,-296.97 v 0.27 l -1,-0.18 -1,0.18 v -0.27 c -153.3,-21.68 -305.9,64.41 -307.4,296.97 -66.2,-0.09 -388.8,-119.68 -537.1,-349.29 3.1,-55.27 238.7,-260.6 277,-234.98 12.9,8.51 49.7,30.37 65.6,66.65 -20.2,-162.6 -173.1,-801.6 -202.3,-941.44 324.5,-49.54 1236.8,-112.88 1434.8,18.54 -20.5,108.49 -202.9,835.11 -204.3,1015.26 66.4,-22.04 171.8,-48.02 236.5,-58.58 42.3,183.46 55.4,321.69 58.4,377.06 -156.3,18.18 -445.6,106.69 -511.9,106.78"
         style="fill:#f1511b;fill-opacity:1;fill-rule:nonzero;stroke:none;stroke-width:1.69940853"
         id="path542"
         inkscape:connector-curvature="0" />
    </g>
    <g
       id="g544"
       transform="matrix(0.02034613,0,0,-0.02193206,-283.59222,269.57719)"
       style="stroke-width:1.69940853">
      <path
         d="m 15779.7,3972.51 c 32.1,-1.68 41.5,98.36 54,104.65 0.7,-3.54 2.3,-113.3 2.3,-137.18 0.2,-55.82 53.2,-62.7 61.8,-14.84 7.3,40.19 17.4,133.45 18.2,138.17 0.9,-4.53 9.5,-117.44 10.8,-138.27 3.6,-61.42 72.4,-66.14 69.5,4.52 -1.8,47.86 -8.2,131.88 -6.8,139.25 2.7,-2.66 22.7,-63.48 37,-98.47 23.7,-57.78 76.3,-45.6 61,24.08 -12.2,55.13 -35.3,188.09 -35.3,188.09 0,0 83.2,-40.88 105,5.4 22.2,46.49 -125.5,113.41 -125.5,113.41 l -8.4,0.88 c 14.8,89.53 -80.2,287.05 253.1,797.76 23.6,31.45 -113.2,71.06 -129.4,91.5 -230.1,-248.63 -289.2,-756.69 -318.9,-876.88 0,0 -52.9,3.54 -65.6,-187.01 -5.2,-74.58 -13.8,-153.3 17.2,-155.06"
         style="fill:#fabd99;fill-opacity:1;fill-rule:nonzero;stroke:none;stroke-width:1.69940853"
         id="path546"
         inkscape:connector-curvature="0" />
    </g>
    <g
       id="g548"
       transform="matrix(0.02048529,0,0,-0.02208207,-283.59222,269.57719)"
       style="stroke-width:1.69940853">
      <path
         d="m 16225,4919.75 c 0,0 -247.6,120.15 -335.1,270.85 27.5,39.23 68.2,84.32 68.2,84.32 0,0 162.6,-164.84 341.9,-258.94 -42.5,-57.68 -75,-96.23 -75,-96.23"
         style="fill:#ed1c24;fill-opacity:1;fill-rule:nonzero;stroke:none;stroke-width:1.69940853"
         id="path550"
         inkscape:connector-curvature="0" />
    </g>
    <g
       id="g552"
       transform="matrix(0.02171353,0,0,-0.02340604,-283.59222,269.57719)"
       style="stroke-width:1.69940853">
      <path
         d="m 16300,5301.62 c 0,0 -79.4,21 -129.9,24.78 -25.3,-144.48 -87.5,-266.86 -261.8,-270.36 -174.4,3.5 -236.6,125.88 -261.9,270.36 -46.3,-17.69 -129.9,-32.05 -129.9,-32.05 0,0 27.4,-365.01 388.6,-364.09 v 0 c 1,0 2.1,0 3.2,0 1,0 2.1,0 3.2,0 v 0 c 361.1,-0.92 388.5,371.36 388.5,371.36"
         style="fill:#ed1c24;fill-opacity:1;fill-rule:nonzero;stroke:none;stroke-width:1.69940853"
         id="path554"
         inkscape:connector-curvature="0" />
    </g>
    <g
       id="g556"
       transform="matrix(0.02369835,0,0,-0.02554559,-283.59222,269.57719)"
       style="stroke-width:1.69940853">
      <path
         d="m 12711.4,5960.19 c -213.9,-276.29 55.5,-566.94 300,-463.78 -105.7,-86.12 31.5,-256.99 149.1,-115.47 -5.9,-248.79 170.4,-328.9 266.6,-98.99 76.1,-309.3 318,-254.55 481.5,-17.32 -9.6,-303.37 412.6,-191.89 423.3,-16.59 14.5,-255.99 242.2,-341.62 399.8,-124.62 1.3,-154.99 344,-77.88 306,70.01 129.9,-133.71 429.7,-56.98 397.6,117.95 80.2,-59.93 202.2,15.22 158.6,95.71 196.5,-25.27 439.9,192.45 352.8,333.23 159.6,-12.11 353.3,286.05 58.1,384.61 287.4,90.06 163.2,277.69 -2.1,242.58 232.1,109.81 88.2,445.52 -192.9,328.54 168.8,338.4 -23.3,565.87 -353.4,448.5 -168.7,369.19 -1263.2,696.76 -1810.3,139.49 -538,-193.28 -934.7,-1323.85 -934.7,-1323.85"
         style="fill:#111213;fill-opacity:1;fill-rule:nonzero;stroke:none;stroke-width:1.69940853"
         id="path558"
         inkscape:connector-curvature="0" />
    </g>
    <g
       id="g560"
       transform="matrix(0.02285999,0,0,-0.02464188,-283.59222,269.57719)"
       style="stroke-width:1.69940853">
      <path
         d="m 13990.4,6037.92 c 83.8,-638.38 637.7,-997.97 1252.5,-917.24 614.7,80.64 1057.1,571.02 973.3,1209.47 -83.8,638.35 -646.9,1067.45 -1261.7,986.76 -614.7,-80.67 -1047.9,-640.66 -964.1,-1278.99"
         style="fill:#fabd99;fill-opacity:1;fill-rule:nonzero;stroke:none;stroke-width:1.69940853"
         id="path562"
         inkscape:connector-curvature="0" />
    </g>
    <g
       id="g564"
       transform="matrix(0.02285999,0,0,-0.02464188,-283.59222,269.57719)"
       style="stroke-width:1.69940853">
      <path
         d="m 13990.4,6037.92 c 83.8,-638.38 637.7,-997.97 1252.5,-917.24 614.7,80.64 1057.1,571.02 973.3,1209.47 -83.8,638.35 -646.9,1067.45 -1261.7,986.76 -614.7,-80.67 -1047.9,-640.66 -964.1,-1278.99"
         style="fill:#fabd99;fill-opacity:1;fill-rule:nonzero;stroke:none;stroke-width:1.69940853"
         id="path566"
         inkscape:connector-curvature="0" />
    </g>
    <path
       d="m 37.257115,120.76724 c 0,0 -0.73179,-3.14692 -4.37473,-3.19713 -3.8449,-0.0498 -4.83661,5.49033 -2.49128,8.46677 2.34732,2.97083 6.5801,2.5527 7.65178,-0.1035 l -0.78577,-5.16619"
       style="fill:#fabd99;fill-opacity:1;fill-rule:nonzero;stroke:none;stroke-width:0.03527778"
       id="path568"
       inkscape:connector-curvature="0" />
    <path
       d="m 32.274555,119.0525 c 2.42931,-0.72266 4.83861,3.76117 1.69951,6.53824 1.12767,-3.45576 -0.26592,-4.46013 -1.90345,-2.69798 -0.0739,-1.08324 0.48386,-1.82723 1.98343,-1.86043 -0.23993,-1.41753 -1.77949,-1.97983 -1.77949,-1.97983"
       style="fill:#d37658;fill-opacity:1;fill-rule:nonzero;stroke:none;stroke-width:0.03527778"
       id="path570"
       inkscape:connector-curvature="0" />
    <g
       id="g572"
       transform="matrix(0.0214434,0,0,-0.02311486,-283.59222,269.57719)"
       style="stroke-width:1.69940853">
      <path
         d="m 16032.2,6444.08 c 33.5,-20.68 45,65.12 118.1,67.56 74.8,2.49 86.1,-84.06 121.1,-54.87 28.6,23.8 -11.1,128.42 -133.5,120.45 -102,-6.63 -137.6,-113.47 -105.7,-133.14"
         style="fill:#ee5b63;fill-opacity:1;fill-rule:nonzero;stroke:none;stroke-width:1.69940853"
         id="path574"
         inkscape:connector-curvature="0" />
    </g>
    <g
       id="g576"
       transform="matrix(0.02274724,0,0,-0.02452033,-283.59222,269.57719)"
       style="stroke-width:1.69940853">
      <path
         d="m 16300,6085.65 c -31.6,-285.33 -173.8,-526.89 -386.9,-695.22 -17.5,8.54 -34.5,18.75 -50.6,30.79 -155.3,116.26 -174.3,353.54 -42.2,529.89 120.9,161.62 326.6,216 479.7,134.54"
         style="fill:#f79883;fill-opacity:1;fill-rule:nonzero;stroke:none;stroke-width:1.69940853"
         id="path578"
         inkscape:connector-curvature="0" />
    </g>
    <g
       id="g580"
       transform="matrix(0.02073141,0,0,-0.02234738,-283.59222,269.57719)"
       style="stroke-width:1.69940853">
      <path
         d="m 15500.8,6365.82 c 132.1,129.59 358.5,141.63 536.7,18.91 199,-137.15 262.5,-390.48 141.7,-565.8 -21.5,-31.13 -47.3,-57.62 -76.3,-79.51 -271.5,118.79 -488.8,334.15 -602.1,626.4"
         style="fill:#f79883;fill-opacity:1;fill-rule:nonzero;stroke:none;stroke-width:1.69940853"
         id="path582"
         inkscape:connector-curvature="0" />
    </g>
    <g
       id="g584"
       transform="matrix(0.02240092,0,0,-0.02414703,-283.59222,269.57719)"
       style="stroke-width:1.69940853">
      <path
         d="m 15723.2,6395.06 c 54.4,-77.65 210.3,-157.74 346.1,-139.21 135.7,18.54 185.5,113.39 230.7,217.95 -6.1,54.08 -143.6,230.78 -279.4,212.24 -135.7,-18.53 -255.1,-154.39 -297.4,-290.98"
         style="fill:#ffffff;fill-opacity:1;fill-rule:nonzero;stroke:none;stroke-width:1.69940853"
         id="path586"
         inkscape:connector-curvature="0" />
    </g>
    <g
       id="g588"
       transform="matrix(0.02223758,0,0,-0.02397094,-283.59222,269.57719)"
       style="stroke-width:1.69940853">
      <path
         d="m 16002.8,6567.71 c -35.5,-76.47 -5.8,-165.73 66.3,-199.38 72.3,-33.57 159.7,1.17 195.3,77.67 35.6,76.59 5.8,165.77 -66.4,199.43 -72.2,33.55 -159.6,-1.25 -195.2,-77.72"
         style="fill:#111213;fill-opacity:1;fill-rule:nonzero;stroke:none;stroke-width:1.69940853"
         id="path590"
         inkscape:connector-curvature="0" />
    </g>
    <g
       id="g592"
       transform="matrix(0.0221616,0,0,-0.02388905,-283.59222,269.57719)"
       style="stroke-width:1.69940853">
      <path
         d="m 16214.4,6569 c -1.4,-24.77 16.6,-45.68 39.9,-46.87 23.1,-1.15 43.1,17.77 44.4,42.52 1.3,24.63 -16.6,45.61 -39.7,46.99 -23.3,1 -43.4,-18 -44.6,-42.64"
         style="fill:#ffffff;fill-opacity:1;fill-rule:nonzero;stroke:none;stroke-width:1.69940853"
         id="path594"
         inkscape:connector-curvature="0" />
    </g>
    <g
       id="g596"
       transform="matrix(0.02193886,0,0,-0.02364894,-283.59222,269.57719)"
       style="stroke-width:1.69940853">
      <path
         d="m 16246.5,6538.5 c -0.9,-15.51 10.4,-28.54 25.1,-29.4 14.5,-0.76 27,11.2 27.9,26.72 0.5,15.39 -10.4,28.55 -25.1,29.31 -14.6,0.76 -27.1,-11.18 -27.9,-26.63"
         style="fill:#ffffff;fill-opacity:1;fill-rule:nonzero;stroke:none;stroke-width:1.69940853"
         id="path598"
         inkscape:connector-curvature="0" />
    </g>
    <g
       id="g600"
       transform="matrix(0.02240092,0,0,-0.02414703,-283.59222,269.57719)"
       style="stroke-width:1.69940853">
      <path
         d="m 16300,6473.8 c 0,0 -148.2,291.82 -454.1,120 320.4,316.29 454.1,-120 454.1,-120"
         style="fill:#6d3a2c;fill-opacity:1;fill-rule:nonzero;stroke:none;stroke-width:1.69940853"
         id="path602"
         inkscape:connector-curvature="0" />
    </g>
    <g
       id="g604"
       transform="matrix(0.02081279,0,0,-0.0224351,-283.59222,269.57719)"
       style="stroke-width:1.69940853">
      <path
         d="m 16300,6802.83 c -35.5,-95.6 -176.4,-221.21 -322.8,-238.63 -146.4,-17.42 -224,67.92 -299.3,164.62 -8.4,57.97 87.1,279.27 233.5,296.69 146.5,17.41 307.6,-91.83 388.6,-222.68"
         style="fill:#ffffff;fill-opacity:1;fill-rule:nonzero;stroke:none;stroke-width:1.69940853"
         id="path606"
         inkscape:connector-curvature="0" />
    </g>
    <g
       id="g608"
       transform="matrix(0.02062625,0,0,-0.02223401,-283.59222,269.57719)"
       style="stroke-width:1.69940853">
      <path
         d="m 16242.1,6951.04 c 57.9,-70.17 51.1,-171.36 -15.1,-226.02 -66.3,-54.61 -166.9,-42.05 -224.8,28.13 -57.9,70.28 -51,171.39 15.1,226.07 66.3,54.6 167,41.97 224.8,-28.18"
         style="fill:#111213;fill-opacity:1;fill-rule:nonzero;stroke:none;stroke-width:1.69940853"
         id="path610"
         inkscape:connector-curvature="0" />
    </g>
    <g
       id="g612"
       transform="matrix(0.02036412,0,0,-0.02195145,-283.59222,269.57719)"
       style="stroke-width:1.69940853">
      <path
         d="m 16291.9,6975.26 c 8.1,-25.74 -5.1,-52.67 -29.2,-60.28 -24.2,-7.57 -50.3,6.91 -58.5,32.61 -8.1,25.6 5,52.56 29,60.38 24.4,7.43 50.7,-7.1 58.7,-32.71"
         style="fill:#ffffff;fill-opacity:1;fill-rule:nonzero;stroke:none;stroke-width:1.69940853"
         id="path614"
         inkscape:connector-curvature="0" />
    </g>
    <g
       id="g616"
       transform="matrix(0.02056606,0,0,-0.02216913,-283.59222,269.57719)"
       style="stroke-width:1.69940853">
      <path
         d="m 16294.9,6841.99 c 5.1,-15.78 -3.1,-32.27 -17.9,-37.08 -14.9,-4.68 -31.1,4.3 -36,20.12 -4.8,15.74 3.1,32.27 18,36.98 14.8,4.69 31,-4.29 35.9,-20.02"
         style="fill:#ffffff;fill-opacity:1;fill-rule:nonzero;stroke:none;stroke-width:1.69940853"
         id="path618"
         inkscape:connector-curvature="0" />
    </g>
    <g
       id="g620"
       transform="matrix(0.02058086,0,0,-0.02218508,-283.59222,269.57719)"
       style="stroke-width:1.69940853">
      <path
         d="m 15854.5,6804.62 c 0,0 76.2,347.97 445.5,250.64 -424.1,245.56 -445.5,-250.64 -445.5,-250.64"
         style="fill:#6d3a2c;fill-opacity:1;fill-rule:nonzero;stroke:none;stroke-width:1.69940853"
         id="path622"
         inkscape:connector-curvature="0" />
    </g>
    <g
       id="g624"
       transform="matrix(0.02222678,0,0,-0.02395931,-283.59222,269.57719)"
       style="stroke-width:1.69940853">
      <path
         d="m 16174,6925.3 c -119.2,31.26 -141.4,-99.48 -62.8,-98.33 84.4,1.43 155.5,-28.03 165.9,-19.73 22.9,18.36 -36.1,100.56 -103.1,118.06"
         style="fill:#111213;fill-opacity:1;fill-rule:nonzero;stroke:none;stroke-width:1.69940853"
         id="path626"
         inkscape:connector-curvature="0" />
    </g>
    <g
       id="g628"
       transform="matrix(0.0203955,0,0,-0.02198529,-283.59222,269.57719)"
       style="stroke-width:1.69940853">
      <path
         d="m 16133.4,7351.03 c 124.5,50.28 166.6,-87.98 81.5,-97.61 -91.5,-10.08 -164.2,-51.78 -176.6,-44.21 -27.3,16.67 25,113.63 95.1,141.82"
         style="fill:#111213;fill-opacity:1;fill-rule:nonzero;stroke:none;stroke-width:1.69940853"
         id="path630"
         inkscape:connector-curvature="0" />
    </g>
    <g
       id="g632"
       transform="matrix(0.02195186,0,0,-0.02366295,-283.59222,269.57719)"
       style="stroke-width:1.69940853">
      <path
         d="m 16284.1,6247.5 c 15.9,-348.17 -163.3,-643.75 -423.7,-678.27 -260.4,-34.53 -510.4,204.16 -585.6,544.47 l 1009.3,133.8"
         style="fill:#712131;fill-opacity:1;fill-rule:nonzero;stroke:none;stroke-width:1.69940853"
         id="path634"
         inkscape:connector-curvature="0" />
    </g>
    <g
       id="g636"
       transform="matrix(0.02175351,0,0,-0.02344915,-283.59222,269.57719)"
       style="stroke-width:1.69940853">
      <path
         d="m 16300,5808.67 c -74.6,-103.53 -176.4,-172.92 -294.9,-188.63 -118.4,-15.7 -234.7,24.78 -333.8,105.29 82.2,47.09 188.3,82.85 306.8,98.57 118.6,15.71 230.4,8.83 321.9,-15.23"
         style="fill:#ee5b63;fill-opacity:1;fill-rule:nonzero;stroke:none;stroke-width:1.69940853"
         id="path638"
         inkscape:connector-curvature="0" />
    </g>
    <g
       id="g640"
       transform="matrix(0.02192446,0,0,-0.02363343,-283.59222,269.57719)"
       style="stroke-width:1.69940853">
      <path
         d="m 15817.4,6050.95 c -251.4,-33.33 -464.7,-22.51 -519.1,71.01 l 1001.7,132.79 c -28.2,-104.46 -231.3,-170.48 -482.6,-203.8"
         style="fill:#ffffff;fill-opacity:1;fill-rule:nonzero;stroke:none;stroke-width:1.69940853"
         id="path642"
         inkscape:connector-curvature="0" />
    </g>
    <g
       id="g644"
       transform="matrix(0.02236194,0,0,-0.024105,-283.59222,269.57719)"
       style="stroke-width:1.69940853">
      <path
         d="m 16229.1,6046.32 c 11.1,-16.53 33.4,-20.95 50,-9.89 16.5,11.08 20.9,33.44 9.8,49.96 -11.1,16.52 -33.4,20.94 -49.9,9.88 -16.5,-11.07 -21,-33.43 -9.9,-49.95"
         style="fill:#ee5b63;fill-opacity:1;fill-rule:nonzero;stroke:none;stroke-width:1.69940853"
         id="path646"
         inkscape:connector-curvature="0" />
    </g>
    <g
       id="g648"
       transform="matrix(0.02223158,0,0,-0.02396448,-283.59222,269.57719)"
       style="stroke-width:1.69940853">
      <path
         d="m 16228.7,5974.14 c 11.1,-16.63 33.6,-21.07 50.2,-9.94 16.6,11.13 21.1,33.62 9.9,50.24 -11.1,16.62 -33.6,21.08 -50.2,9.94 -16.7,-11.13 -21.1,-33.63 -9.9,-50.24"
         style="fill:#ee5b63;fill-opacity:1;fill-rule:nonzero;stroke:none;stroke-width:1.69940853"
         id="path650"
         inkscape:connector-curvature="0" />
    </g>
    <g
       id="g652"
       transform="matrix(0.02240174,0,0,-0.0241479,-283.59222,269.57719)"
       style="stroke-width:1.69940853">
      <path
         d="m 16229.2,5920.37 c 11.1,-16.49 33.4,-20.9 49.9,-9.86 16.4,11.05 20.9,33.37 9.8,49.87 -11,16.49 -33.3,20.91 -49.9,9.86 -16.4,-11.05 -20.8,-33.37 -9.8,-49.87"
         style="fill:#ee5b63;fill-opacity:1;fill-rule:nonzero;stroke:none;stroke-width:1.69940853"
         id="path654"
         inkscape:connector-curvature="0" />
    </g>
    <g
       id="g656"
       transform="matrix(0.02031154,0,0,-0.02189477,-283.59222,269.57719)"
       style="stroke-width:1.69940853">
      <path
         d="m 16238,6433.51 c 19.9,-9.27 43.5,-0.73 52.7,19.11 9.3,19.82 0.7,43.42 -19.1,52.7 -19.8,9.29 -43.4,0.73 -52.7,-19.1 -9.3,-19.83 -0.7,-43.42 19.1,-52.71"
         style="fill:#ee5b63;fill-opacity:1;fill-rule:nonzero;stroke:none;stroke-width:1.69940853"
         id="path658"
         inkscape:connector-curvature="0" />
    </g>
    <g
       id="g660"
       transform="matrix(0.02027634,0,0,-0.02185684,-283.59222,269.57719)"
       style="stroke-width:1.69940853">
      <path
         d="m 16237.9,6298.74 c 19.8,-9.3 43.5,-0.73 52.7,19.13 9.4,19.86 0.8,43.5 -19.1,52.8 -19.8,9.3 -43.5,0.74 -52.8,-19.13 -9.2,-19.86 -0.6,-43.5 19.2,-52.8"
         style="fill:#ee5b63;fill-opacity:1;fill-rule:nonzero;stroke:none;stroke-width:1.69940853"
         id="path662"
         inkscape:connector-curvature="0" />
    </g>
    <g
       id="g664"
       transform="matrix(0.0204403,0,0,-0.02203357,-283.59222,269.57719)"
       style="stroke-width:1.69940853">
      <path
         d="m 16238.4,6301.42 c 19.7,-9.22 43.1,-0.73 52.4,18.97 9.2,19.71 0.7,43.16 -19,52.38 -19.7,9.23 -43.2,0.73 -52.4,-18.97 -9.2,-19.7 -0.7,-43.16 19,-52.38"
         style="fill:#ee5b63;fill-opacity:1;fill-rule:nonzero;stroke:none;stroke-width:1.69940853"
         id="path666"
         inkscape:connector-curvature="0" />
    </g>
    <g
       id="g668"
       transform="matrix(0.02378213,0,0,-0.02563589,-283.59222,269.57719)"
       style="stroke-width:1.69940853">
      <path
         d="m 14229.1,7956.35 c -149.6,282.45 -781.1,124.63 -774,-214.57 -195.7,159.63 -194.3,25.88 -144.1,-115.69 -203.7,194.45 -712.5,-47.23 -600.6,-385.91 -134.6,57.3 -198,-43.05 -66.6,-174.4 -231.5,69.34 -194.5,-237.73 -26.9,-336.44 -281.1,-32.79 -337,-503.56 -69.1,-531.59 -149.4,-211.51 -42.7,-360.88 131.6,-309.82 -96.3,-279.03 216,-280.97 273.3,-124.64 76.4,-178.63 344.7,-147.65 374.5,-56.62 143.3,-234.32 221.3,201.85 119.2,322.78 223.1,-88.58 110.9,160.18 54.1,248.42 145.3,-58.35 282.6,97.47 146.2,188.84 157.9,-66.97 319.9,81.31 286.4,181.14 139.5,-17.3 339.3,148.67 189.1,228.21 118.5,12.35 426.7,202.81 405,-71.93 -21.8,-274.71 200.1,-87.08 269.2,73.48 -17,-485.06 301.9,-278.2 419.9,-171.05 -139.1,-327.81 116.4,-352.75 215.9,-195.93 56.5,-189.71 461.6,-215.26 397.4,-38.12 175.3,-75.89 353.9,150.88 175.8,254.17 201.1,68.16 294.6,363.18 -13.9,303.49 204.6,109.94 48.7,239.42 -45.5,224.05 108.8,182.71 -259.3,419.56 -452.6,301.45 141.6,205.89 -102.5,395.22 -211.9,307.31 25.7,206.56 -178.1,267.35 -308.9,115.62 -29.6,189.69 -158.1,157.98 -154,42.42 -163.4,270.65 -588.9,287.11 -589.5,-64.67"
         style="fill:#111213;fill-opacity:1;fill-rule:nonzero;stroke:none;stroke-width:1.69940853"
         id="path670"
         inkscape:connector-curvature="0" />
    </g>
    <g
       id="g692"
       transform="matrix(0.02247531,0,0,-0.02422721,-283.59222,269.57719)"
       style="stroke-width:1.69940853">
      <path
         d="m 16210.2,4622.33 c 0,0 89.8,234.24 54,389.12 -42.8,8.9 -97.8,13.52 -97.8,13.52 0,0 -5.4,-211.01 -65.9,-385.38 64.1,-11.92 109.7,-17.26 109.7,-17.26"
         style="fill:#ed1c24;fill-opacity:1;fill-rule:nonzero;stroke:none;stroke-width:1.69940853"
         id="path694"
         inkscape:connector-curvature="0" />
    </g>
    <path
       d="m 108.26313,145.55593 c -0.59538,-0.29865 -1.54805,1.63232 -1.83293,1.65477 0.0147,-0.0764 0.83598,-2.29245 1.02023,-2.77068 0.42976,-1.12041 -0.52101,-1.69519 -1.05582,-0.80606 -0.44836,0.74768 -1.36251,2.53492 -1.41505,2.62473 0.0176,-0.10102 0.7301,-2.43614 0.86839,-2.86497 0.40646,-1.26185 -0.85821,-1.9206 -1.35171,-0.4805 -0.33613,0.97445 -0.86627,2.71454 -0.94993,2.84927 -0.0327,-0.0742 0.062,-1.45943 0.0625,-2.27897 -2.1e-4,-1.35389 -1.08995,-1.54249 -1.34156,-0.0179 -0.19507,1.20573 -0.79003,4.06397 -0.79003,4.06397 0,0 -1.25725,-1.50434 -2.028835,-0.75441 -0.78092,0.74991 1.495935,3.30504 1.495935,3.30504 l 0.15294,0.0876 c -0.97599,1.67497 -7.514935,7.52617 -18.953285,1.82543 -2.52468,-1.25961 -3.88444,2.74145 -1.63108,3.80797 16.40001,7.75295 22.688615,-1.61211 24.181605,-3.78104 0,0 0.97322,0.5052 2.69306,-3.21074 0.67394,-1.4572 1.44894,-2.96379 0.87559,-3.2534"
       style="fill:#fabd99;fill-opacity:1;fill-rule:nonzero;stroke:none;stroke-width:0.03527778"
       id="path740-3-6"
       inkscape:connector-curvature="0" />
    <path
       sodipodi:nodetypes="cccc"
       id="path1931-1"
       style="fill:#9595e8;fill-opacity:1;fill-rule:nonzero;stroke:none;stroke-width:0.00860131"
       d="m 75.041095,57.084887 -9.1448,-10.068564 20.12341,3.434964 z"
       inkscape:connector-curvature="0" />
    <path
       d="m 219.14345,138.89912 c 4.13413,0.87732 7.46451,12.1622 10.73091,25.59554 3.26619,13.43333 0.62979,15.81808 -6.64011,17.5946 -7.27053,1.77871 -32.01675,0.63447 -35.03407,-4.86576 -3.01529,-5.50241 1.03682,-37.05762 4.04603,-38.0159 3.66736,-1.16612 17.30805,-2.34318 26.89724,-0.30848"
       style="fill:#48c1b0;fill-opacity:1;fill-rule:nonzero;stroke:none;stroke-width:0.03527778"
       id="path30"
       inkscape:connector-curvature="0" />
    <path
       d="m 207.38747,191.16442 c 0,0 0,15.18798 0,28.36097 2.11616,0.70447 3.57359,-1.93842 3.57359,-1.93842 0,0 0,-13.48804 0,-26.2891 -0.76283,-2.26003 -3.57359,-0.13345 -3.57359,-0.13345"
       style="fill:#fabe98;fill-opacity:1;fill-rule:nonzero;stroke:none;stroke-width:0.03527778"
       id="path32"
       inkscape:connector-curvature="0" />
    <path
       d="m 211.28649,221.45287 c 0.37524,1.03048 0.28168,2.98202 -1.97725,4.87671 -2.25793,1.89465 -4.79936,3.13954 -8.01917,1.77432 -2.70951,-1.14862 -0.89305,-4.32754 -0.89305,-4.32754 l 10.88947,-2.32349"
       style="fill:#e6e6d0;fill-opacity:1;fill-rule:nonzero;stroke:none;stroke-width:0.03527778"
       id="path34"
       inkscape:connector-curvature="0" />
    <path
       d="m 211.15425,217.15158 c 0.63769,0.75699 0.84909,4.57476 -0.85984,6.04499 -1.70002,1.47024 -4.7477,4.14158 -8.63984,2.77201 -3.05173,-1.07424 -0.86672,-3.80248 0.81204,-4.84169 1.67472,-1.04142 4.92288,-4.00814 4.92288,-4.00814 0,0 0.38882,1.89468 3.76476,0.0328"
       style="fill:#ef3728;fill-opacity:1;fill-rule:nonzero;stroke:none;stroke-width:0.03527778"
       id="path36"
       inkscape:connector-curvature="0" />
    <path
       d="m 209.68589,217.7948 c 0.20656,-0.15533 0.80759,-1.84872 0.52246,-2.41317 -0.53663,-1.06112 -3.67141,-1.09611 -3.8172,-0.51416 -0.25516,1.00422 0.55283,2.56198 0.55283,2.56198 0,0 1.2778,1.12016 2.74191,0.36535"
       style="fill:#e6e6d0;fill-opacity:1;fill-rule:nonzero;stroke:none;stroke-width:0.03527778"
       id="path38"
       inkscape:connector-curvature="0" />
    <path
       d="m 205.90919,218.11641 c 1.2373,-0.33253 2.90997,0.38944 3.46281,1.34116 0.54879,0.9517 -0.1944,1.64743 -0.70065,1.57525 -0.50829,-0.07 -1.95418,-0.90359 -3.61471,-1.21426 -1.65851,-0.30412 -0.13771,-1.44179 0.85255,-1.70215"
       style="fill:#f89d1b;fill-opacity:1;fill-rule:nonzero;stroke:none;stroke-width:0.03527778"
       id="path40"
       inkscape:connector-curvature="0" />
    <path
       d="m 203.60469,220.07453 c 1.23933,-0.33255 2.90998,0.38944 3.46484,1.34115 0.54677,0.95171 -0.19439,1.64744 -0.70066,1.57524 -0.50828,-0.07 -1.95619,-0.90358 -3.61673,-1.21207 -1.65851,-0.3041 -0.1377,-1.44396 0.85255,-1.70432"
       style="fill:#f89d1b;fill-opacity:1;fill-rule:nonzero;stroke:none;stroke-width:0.03527778"
       id="path42"
       inkscape:connector-curvature="0" />
    <path
       d="m 194.40897,189.00939 c 0,0 0,15.18799 0,28.35877 2.11616,0.70668 3.57217,-1.93623 3.57217,-1.93623 0,0 0,-13.48803 0,-26.28907 -0.76141,-2.26004 -3.57217,-0.13347 -3.57217,-0.13347"
       style="fill:#fabe98;fill-opacity:1;fill-rule:nonzero;stroke:none;stroke-width:0.03527778"
       id="path44"
       inkscape:connector-curvature="0" />
    <path
       d="m 198.30717,219.29784 c 0.37464,1.0283 0.28148,2.98203 -1.97846,4.8767 -2.25793,1.89249 -4.79733,3.13956 -8.01918,1.77434 -2.70951,-1.14861 -0.89102,-4.32974 -0.89102,-4.32974 l 10.88866,-2.3213"
       style="fill:#e6e6d0;fill-opacity:1;fill-rule:nonzero;stroke:none;stroke-width:0.03527778"
       id="path46"
       inkscape:connector-curvature="0" />
    <path
       d="m 198.17554,214.99438 c 0.63788,0.75917 0.8485,4.57694 -0.86064,6.04718 -1.70104,1.46804 -4.74873,4.14157 -8.64085,2.77198 -3.05175,-1.07421 -0.86673,-3.80245 0.81204,-4.84167 1.67673,-1.04142 4.92288,-4.00813 4.92288,-4.00813 0,0 0.39082,1.89468 3.76657,0.0306"
       style="fill:#ef3728;fill-opacity:1;fill-rule:nonzero;stroke:none;stroke-width:0.03527778"
       id="path48"
       inkscape:connector-curvature="0" />
    <path
       d="m 196.70536,215.63759 c 0.20656,-0.15316 0.808,-1.84654 0.52449,-2.411 -0.53663,-1.06329 -3.67141,-1.09611 -3.81923,-0.51414 -0.25314,1.00422 0.55486,2.56196 0.55486,2.56196 0,0 1.27578,1.12018 2.73988,0.36318"
       style="fill:#e6e6d0;fill-opacity:1;fill-rule:nonzero;stroke:none;stroke-width:0.03527778"
       id="path50"
       inkscape:connector-curvature="0" />
    <path
       d="m 192.93069,215.96139 c 1.23729,-0.33255 2.90796,0.38725 3.46281,1.33896 0.54677,0.95171 -0.19642,1.64745 -0.70066,1.57743 -0.50828,-0.07 -1.95417,-0.90358 -3.61673,-1.21425 -1.6585,-0.30411 -0.13567,-1.44398 0.85458,-1.70214"
       style="fill:#f89d1b;fill-opacity:1;fill-rule:nonzero;stroke:none;stroke-width:0.03527778"
       id="path52"
       inkscape:connector-curvature="0" />
    <path
       d="m 190.62618,217.91951 c 1.2373,-0.33254 2.90999,0.38944 3.46283,1.34115 0.54878,0.95171 -0.19441,1.64744 -0.70067,1.57525 -0.50828,-0.07 -1.95417,-0.90359 -3.61469,-1.21425 -1.65852,-0.30413 -0.13771,-1.44179 0.85253,-1.70215"
       style="fill:#f89d1b;fill-opacity:1;fill-rule:nonzero;stroke:none;stroke-width:0.03527778"
       id="path54"
       inkscape:connector-curvature="0" />
    <path
       d="m 208.54376,141.30136 c 0,0 -2.17287,-0.45069 -4.27892,-1.223 -0.10934,-2.35192 0.41919,-4.95261 0.41919,-4.95261 l -3.96098,-0.61478 c 0,0 -0.46373,3.82369 -0.47184,5.36392 -2.92011,0.67823 -5.35826,0.98235 -5.35826,0.98235 0,0 -1.41145,7.69462 6.16221,8.44724 2.65078,0.26254 6.75757,-2.67353 7.4886,-8.00312"
       style="fill:#fabe98;fill-opacity:1;fill-rule:nonzero;stroke:none;stroke-width:0.03527778"
       id="path56"
       inkscape:connector-curvature="0" />
    <path
       d="m 200.87899,135.49529 3.08413,0.28135 c 0,0 -0.17213,3.94949 -0.20656,5.05215 -0.92342,-1.24269 -2.43409,-1.53587 -2.98288,-0.32817 0.0587,-2.19441 0.10531,-5.00533 0.10531,-5.00533"
       style="fill:#eea378;fill-opacity:1;fill-rule:nonzero;stroke:none;stroke-width:0.03527778"
       id="path58"
       inkscape:connector-curvature="0" />
    <path
       d="m 194.29759,141.36263 c 1.88936,10.4513 10.00371,9.81902 14.51955,-0.65418 1.60182,-0.12469 12.42911,3.03892 14.51471,12.73543 -0.8159,1.27331 -4.1481,-1.11361 -6.11604,2.25785 -0.19825,0.3413 -1.97705,-0.52947 -2.22998,-0.2166 -0.14135,5.88091 1.0186,12.74854 1.2365,18.26846 0,0 -9.44845,3.8331 -25.02508,2.87482 -0.007,-0.002 -1.05708,-19.91809 -2.0291,-24.98513 0.82014,-0.31067 -6.75959,0.007 -7.0836,-0.21659 -0.87887,-0.60166 0.55486,-7.50648 -1.12998,-9.97436 4.51383,0.2516 6.53888,0.34788 13.34302,-0.0897"
       style="fill:#f36717;fill-opacity:1;fill-rule:nonzero;stroke:none;stroke-width:0.03527778"
       id="path60"
       inkscape:connector-curvature="0" />
    <path
       d="m 196.3935,140.66689 c -0.26932,3.48741 1.17048,5.85247 4.50775,6.20253 4.26272,0.44413 6.39711,-2.62103 6.61785,-6.41912 1.13199,0.31943 3.13112,0.44631 3.13112,0.44631 0,0 0.10064,8.91983 -9.18803,9.39677 -8.82514,0.45508 -8.1184,-9.23267 -8.1184,-9.23267 l 3.04971,-0.39382"
       style="fill:#ef2f21;fill-opacity:1;fill-rule:nonzero;stroke:none;stroke-width:0.03527778"
       id="path62"
       inkscape:connector-curvature="0" />
    <path
       d="m 179.90155,140.95787 c -0.76344,5.57025 -0.33412,8.27878 0.18428,11.03766 1.0429,0.1597 2.70343,-0.0744 2.70343,-0.0744 -0.50221,-1.82248 -0.76546,-5.84372 0.079,-10.89545 -1.26767,-0.10938 -2.96668,-0.0678 -2.96668,-0.0678"
       style="fill:#ef2f21;fill-opacity:1;fill-rule:nonzero;stroke:none;stroke-width:0.03527778"
       id="path64"
       inkscape:connector-curvature="0" />
    <path
       d="m 188.34598,190.05518 c 5.28333,2.00625 9.84981,1.56431 12.01053,1.38053 0.48196,-1.53367 0.67435,-3.73245 1.69093,-6.0078 0.7128,1.46147 1.22109,4.00375 1.87518,6.30317 2.95049,-0.41351 9.18519,-0.99329 13.36043,-2.31912 -0.2418,-8.2941 -0.90662,-16.00843 -1.46857,-22.13218 -5.94836,2.07845 -18.44491,6.43006 -24.66179,5.71463 -2.41385,7.26145 -2.80671,14.17063 -2.80671,17.06077"
       style="fill:#59a3cb;fill-opacity:1;fill-rule:nonzero;stroke:none;stroke-width:0.03527778"
       id="path66"
       inkscape:connector-curvature="0" />
    <path
       d="m 203.30903,174.434 c 0.0263,-0.011 6.86489,-0.79199 12.89466,-2.83981 -0.13406,-1.50741 -0.26427,-2.9492 -0.38921,-4.31441 -5.94836,2.07845 -18.39629,3.67557 -24.98782,1.69777 0.13568,1.36301 -0.15592,3.43052 0,4.93357 6.29181,0.66728 12.45199,0.51851 12.48237,0.52288"
       style="fill:#2b618e;fill-opacity:1;fill-rule:nonzero;stroke:none;stroke-width:0.03527778"
       id="path68"
       inkscape:connector-curvature="0" />
    <path
       d="m 211.19575,175.33759 c 0,0 1.63604,3.29487 4.10052,4.69073 -0.29728,0.87076 -0.9303,2.33442 -0.9303,2.33442 0,0 -4.71248,-2.76105 -5.65615,-6.1894 1.53296,-0.17502 2.48593,-0.83575 2.48593,-0.83575"
       style="fill:#277b38;fill-opacity:1;fill-rule:nonzero;stroke:none;stroke-width:0.03527778"
       id="path70"
       inkscape:connector-curvature="0" />
    <path
       d="m 200.97214,189.25005 c 0,0 -5.10514,0.78544 -12.80032,-1.07859 -0.13161,2.12876 -0.31994,5.27924 -0.19238,5.684 0,0 7.97463,1.92748 12.63021,0.52289 0.0304,-0.91452 0.1215,-2.93826 0.36249,-5.1283"
       style="fill:#2b618e;fill-opacity:1;fill-rule:nonzero;stroke:none;stroke-width:0.03527778"
       id="path72"
       inkscape:connector-curvature="0" />
    <path
       d="m 203.39611,190.31116 c 0,0 6.22701,0.78325 13.92358,-1.0786 0.13102,2.12877 0.31996,5.27706 0.19381,5.68182 0,0 -9.09933,1.92748 -13.75289,0.52289 -0.0303,-0.91452 -0.1215,-2.93828 -0.3645,-5.12611"
       style="fill:#2b618e;fill-opacity:1;fill-rule:nonzero;stroke:none;stroke-width:0.03527778"
       id="path74"
       inkscape:connector-curvature="0" />
    <path
       d="m 201.53712,172.34899 c -0.0162,0.88171 -0.69054,1.58181 -1.50664,1.56432 -0.81609,-0.0175 -1.4641,-0.74606 -1.4479,-1.62557 0.0162,-0.8817 0.69053,-1.58181 1.50663,-1.56431 0.81609,0.0175 1.46411,0.74387 1.44791,1.62556"
       style="fill:#f8ac19;fill-opacity:1;fill-rule:nonzero;stroke:none;stroke-width:0.03527778"
       id="path76"
       inkscape:connector-curvature="0" />
    <path
       d="m 224.09934,154.60781 c -6.31915,1.46805 -6.30903,1.46805 -10.17463,1.01297 -0.26184,-1.10048 -0.22903,-2.90765 -0.22903,-2.90765 1.73161,0.33694 5.46174,0.17723 10.01404,-1.28644 0.24098,1.35209 0.38962,3.18112 0.38962,3.18112"
       style="fill:#ef2f21;fill-opacity:1;fill-rule:nonzero;stroke:none;stroke-width:0.03527778"
       id="path78"
       inkscape:connector-curvature="0" />
    <path
       d="m 213.53773,141.63829 -4.99397,-1.4221 c 0,0 1.44386,18.64915 6.49007,26.43568 -0.7837,-13.30425 -1.4961,-25.01358 -1.4961,-25.01358"
       style="fill:#308882;fill-opacity:1;fill-rule:nonzero;stroke:none;stroke-width:0.03527778"
       id="path80"
       inkscape:connector-curvature="0" />
    <path
       d="m 195.37491,140.70627 c 0,0 -2.96061,20.07343 -4.83783,25.19298 -0.44753,-17.50054 1.1563,-24.56725 1.1563,-24.56725 l 3.68153,-0.62573"
       style="fill:#308882;fill-opacity:1;fill-rule:nonzero;stroke:none;stroke-width:0.03527778"
       id="path82"
       inkscape:connector-curvature="0" />
    <path
       d="m 204.82781,150.9213 c 0.29566,0.1247 22.7062,12.10532 22.58956,12.42473 l -7.78022,21.3577 c -0.11643,0.31942 -0.45097,0.47695 -0.74663,0.35224 l -24.80557,-10.54976 c -0.29768,-0.12471 -0.44348,-0.4857 -0.32602,-0.80731 l 7.46836,-20.50007 c 0.29161,-0.80293 0.58118,-0.95389 1.05909,-1.20768 l 2.54143,-1.06985"
       style="fill:#575cb3;fill-opacity:1;fill-rule:nonzero;stroke:none;stroke-width:0.03527778"
       id="path84"
       inkscape:connector-curvature="0" />
    <path
       d="m 204.70632,151.98458 c 0.29564,0.12471 23.05349,11.75308 22.93725,12.0725 l -5.18188,17.99499 c -0.11644,0.3216 -2.50883,2.35411 -2.80509,2.22941 l -24.4842,-10.41193 c -0.29565,-0.1269 -0.44146,-0.48789 -0.32603,-0.80732 l 7.0674,-19.39738 c 0.19035,-0.52508 0.37666,-0.64322 0.91937,-0.827 l 1.87318,-0.85327"
       style="fill:#e6e6d0;fill-opacity:1;fill-rule:nonzero;stroke:none;stroke-width:0.03527778"
       id="path86"
       inkscape:connector-curvature="0" />
    <path
       d="m 230.14875,161.40981 c 0.29606,0.1247 0.44166,0.48788 0.32462,0.8073 l -7.23912,19.87215 c -0.11584,0.31943 -0.45139,0.47695 -0.74685,0.35225 l -24.80596,-10.54758 c -0.29566,-0.1269 -0.44146,-0.48789 -0.32604,-0.80731 l 7.23953,-19.87434 c 0.11745,-0.31942 0.45159,-0.47695 0.74725,-0.35006 l 24.80657,10.54759"
       style="fill:#575cb3;fill-opacity:1;fill-rule:nonzero;stroke:none;stroke-width:0.03527778"
       id="path88"
       inkscape:connector-curvature="0" />
    <path
       d="m 221.20981,155.30573 c 0,0 -1.48457,11.43365 -11.77907,18.70822 0.33818,1.57742 -0.62372,3.41303 -2.42804,4.92045 -0.96999,1.49429 -1.86707,2.33223 -2.32271,1.81152 -0.46982,-0.54039 0.73103,-2.10469 0.97808,-2.53788 -0.0648,0.0415 -1.27779,1.30176 -1.67065,1.65838 -0.90925,0.82481 -1.36489,-0.40913 -1.01657,-0.9014 0.52853,-0.74823 1.41145,-1.77871 1.48233,-1.86404 -0.0931,0.0525 -1.56941,1.24707 -1.92379,1.53586 -1.05506,0.8489 -1.65446,-0.72198 -1.13808,-1.16611 0.80192,-0.68699 2.03517,-1.61243 2.1344,-1.74589 -0.079,-0.009 -1.34463,0.54259 -2.11617,0.81387 -1.2697,0.44195 -1.79015,-0.66947 -0.44348,-1.43303 1.06517,-0.60385 3.49319,-2.38475 3.49319,-2.38475 0,0 -2.56573,-0.68698 -2.11212,-1.76339 0.45564,-1.07862 4.39232,0.56665 4.39232,0.56665 0,0 9.26558,-8.22191 9.59972,-15.89467 0.96817,0.0788 2.83282,-0.1422 4.87064,-0.32379"
       style="fill:#fabe98;fill-opacity:1;fill-rule:nonzero;stroke:none;stroke-width:0.03527778"
       id="path90"
       inkscape:connector-curvature="0" />
    <path
       d="m 232.5871,115.78394 c -3.27834,16.926 -17.6841,25.42992 -32.77127,22.02125 -15.08455,-3.41018 -25.12876,-17.44079 -21.85022,-34.36854 3.27652,-16.924909 18.04111,-27.272295 33.12728,-23.862547 15.08556,3.409093 24.77115,19.28537 21.49421,36.209837"
       style="fill:#fabd99;fill-opacity:1;fill-rule:nonzero;stroke:none;stroke-width:0.03527778"
       id="path92"
       inkscape:connector-curvature="0" />
    <path
       d="m 232.5871,115.78394 c -3.27834,16.926 -17.6841,25.42992 -32.77127,22.02125 -15.08455,-3.41018 -25.12876,-17.44079 -21.85022,-34.36854 3.27652,-16.924909 18.04111,-27.272295 33.12728,-23.862547 15.08556,3.409093 24.77115,19.28537 21.49421,36.209837"
       style="fill:#fabd99;fill-opacity:1;fill-rule:nonzero;stroke:none;stroke-width:0.03527778"
       id="path94"
       inkscape:connector-curvature="0" />
    <path
       d="m 231.47313,115.66579 c 0,0 1.03297,-3.35527 4.98789,-3.08572 4.17097,0.28704 4.82486,6.39636 2.05359,9.42258 -2.77026,3.02031 -7.32803,2.18959 -8.28851,-0.79244 l 1.24703,-5.54442"
       style="fill:#fabd99;fill-opacity:1;fill-rule:nonzero;stroke:none;stroke-width:0.03527778"
       id="path96"
       inkscape:connector-curvature="0" />
    <path
       d="m 237.00595,114.2448 c -2.5797,-1.00138 -5.53263,3.65763 -2.34195,6.9547 -0.95826,-3.85585 0.62958,-4.82353 2.26926,-2.76323 0.16341,-1.17051 -0.38375,-2.02857 -2.00783,-2.19813 0.36936,-1.51879 2.08052,-1.99334 2.08052,-1.99334"
       style="fill:#d37658;fill-opacity:1;fill-rule:nonzero;stroke:none;stroke-width:0.03527778"
       id="path98"
       inkscape:connector-curvature="0" />
    <path
       d="m 206.61188,113.46986 c -0.81407,0.45573 -0.9295,-1.72139 -2.62851,-1.92201 -1.73343,-0.20521 -2.14858,1.94738 -2.91,1.1473 -0.6237,-0.65198 0.48399,-3.20453 3.31501,-2.77133 2.3612,0.36121 2.99909,3.11285 2.2235,3.54604"
       style="fill:#f14d45;fill-opacity:1;fill-rule:nonzero;stroke:none;stroke-width:0.03527778"
       id="path100"
       inkscape:connector-curvature="0" />
    <path
       d="m 177.36215,110.78013 c 0.243,7.66729 3.30082,14.39205 8.24192,19.30855 0.44956,-0.19208 0.88495,-0.4299 1.30414,-0.71804 4.05009,-2.78426 4.96136,-9.06925 2.03517,-14.03543 -2.68117,-4.55136 -7.65264,-6.41627 -11.58123,-4.55508"
       style="fill:#f79883;fill-opacity:1;fill-rule:nonzero;stroke:none;stroke-width:0.03527778"
       id="path102"
       inkscape:connector-curvature="0" />
    <path
       d="m 230.42902,122.74083 c -2.75042,-3.39072 -7.81889,-4.10045 -12.03301,-1.44813 -4.70904,2.96409 -6.56662,8.9999 -4.15053,13.48058 0.42871,0.79507 0.96492,1.48511 1.58075,2.07146 6.30476,-2.38475 11.55651,-7.21485 14.60279,-14.10391"
       style="fill:#f79883;fill-opacity:1;fill-rule:nonzero;stroke:none;stroke-width:0.03527778"
       id="path104"
       inkscape:connector-curvature="0" />
    <path
       d="m 190.87324,93.630096 c 1.53903,-0.304107 2.35108,0.5043 2.50093,1.312921 0.13568,0.729645 -0.27136,1.459292 -1.16845,1.371341 -0.9943,-0.09998 -1.92785,-1.65e-4 -2.64674,0.09933 -0.74926,0.103707 -1.26565,0.207405 -1.38513,0.08705 -0.52043,-0.523555 1.05101,-2.547305 2.69939,-2.870669"
       style="fill:#c7695b;fill-opacity:1;fill-rule:nonzero;stroke:none;stroke-width:0.03527778"
       id="path106"
       inkscape:connector-curvature="0" />
    <path
       d="m 223.55886,101.02149 c -2.66962,-1.426904 -3.8324,1.80016 -1.96551,2.18456 2.00459,0.40694 3.54423,1.53477 3.82955,1.37637 0.63283,-0.34896 -0.36187,-2.76017 -1.86404,-3.56093"
       style="fill:#c7695b;fill-opacity:1;fill-rule:nonzero;stroke:none;stroke-width:0.03527778"
       id="path108"
       inkscape:connector-curvature="0" />
    <path
       d="m 191.04943,117.10145 c 0.87481,-2.91791 7.24761,-2.72582 12.83877,-1.5037 5.59114,1.22235 11.53241,3.72217 11.28718,6.77749 -0.24523,3.0551 -6.07878,9.05766 -13.93189,7.34085 -7.85312,-1.71657 -11.06687,-9.69671 -10.19406,-12.61464"
       style="fill:#4e1a1e;fill-opacity:1;fill-rule:nonzero;stroke:none;stroke-width:0.03527778"
       id="path110"
       inkscape:connector-curvature="0" />
    <path
       d="m 211.58862,127.45869 c -2.50012,1.87628 -6.13102,3.17871 -10.34513,2.2574 -4.21412,-0.92107 -7.08968,-3.64603 -8.71782,-6.42458 2.57181,-0.5323 6.34042,-0.1713 9.81135,0.58722 3.47091,0.75874 7.07549,2.00974 9.2516,3.57996"
       style="fill:#e3595d;fill-opacity:1;fill-rule:nonzero;stroke:none;stroke-width:0.03527778"
       id="path112"
       inkscape:connector-curvature="0" />
    <path
       d="m 194.56894,114.92259 c 2.54548,-0.39732 6.06298,-0.0365 9.31926,0.67516 3.25626,0.71171 6.62715,1.85705 8.82979,3.29227 -2.46913,1.65947 -5.88133,2.72232 -9.79574,1.86644 -3.91441,-0.85588 -6.67658,-3.2682 -8.35331,-5.83387"
       style="fill:#ffffff;fill-opacity:1;fill-rule:nonzero;stroke:none;stroke-width:0.03527778"
       id="path114"
       inkscape:connector-curvature="0" />
    <path
       d="m 185.62635,115.25645 c -0.29971,0.41067 -0.85052,0.4822 -1.2292,0.1595 -0.38071,-0.32293 -0.44753,-0.91736 -0.14783,-1.32824 0.29768,-0.41087 0.8485,-0.4822 1.2292,-0.1595 0.38072,0.32272 0.44551,0.91737 0.14783,1.32824"
       style="fill:#f14d45;fill-opacity:1;fill-rule:nonzero;stroke:none;stroke-width:0.03527778"
       id="path116"
       inkscape:connector-curvature="0" />
    <path
       d="m 187.73442,118.24876 c -0.29971,0.41088 -0.85052,0.4822 -1.2292,0.15949 -0.38071,-0.3227 -0.44754,-0.91736 -0.14783,-1.32823 0.29769,-0.41088 0.84849,-0.48219 1.22921,-0.1595 0.3807,0.32271 0.44551,0.91736 0.14782,1.32824"
       style="fill:#f14d45;fill-opacity:1;fill-rule:nonzero;stroke:none;stroke-width:0.03527778"
       id="path118"
       inkscape:connector-curvature="0" />
    <path
       d="m 184.71103,118.22251 c -0.29769,0.41087 -0.84849,0.4822 -1.2292,0.15949 -0.3807,-0.32271 -0.44551,-0.91736 -0.14784,-1.32823 0.29972,-0.41088 0.8485,-0.4822 1.22921,-0.15951 0.38072,0.32272 0.44754,0.91737 0.14783,1.32825"
       style="fill:#f14d45;fill-opacity:1;fill-rule:nonzero;stroke:none;stroke-width:0.03527778"
       id="path120"
       inkscape:connector-curvature="0" />
    <path
       d="m 221.14156,123.50877 c -0.45239,0.18508 -0.95785,-0.0611 -1.12896,-0.54938 -0.17152,-0.48876 0.0563,-1.03462 0.50849,-1.21993 0.45239,-0.1851 0.95763,0.0613 1.12896,0.54958 0.17132,0.48877 -0.0566,1.03462 -0.50849,1.21973"
       style="fill:#f14d45;fill-opacity:1;fill-rule:nonzero;stroke:none;stroke-width:0.03527778"
       id="path122"
       inkscape:connector-curvature="0" />
    <path
       d="m 221.51903,127.0255 c -0.4522,0.18509 -0.95765,-0.0609 -1.12897,-0.54959 -0.17111,-0.48854 0.0566,-1.03463 0.5087,-1.21972 0.45218,-0.18488 0.95764,0.061 1.12896,0.54958 0.17133,0.48877 -0.0565,1.03485 -0.50869,1.21973"
       style="fill:#f14d45;fill-opacity:1;fill-rule:nonzero;stroke:none;stroke-width:0.03527778"
       id="path124"
       inkscape:connector-curvature="0" />
    <path
       d="m 218.71152,125.51479 c -0.45221,0.1851 -0.95766,-0.0611 -1.12897,-0.54959 -0.17132,-0.48854 0.0566,-1.03462 0.50869,-1.21971 0.45219,-0.1851 0.95765,0.0611 1.12896,0.54959 0.17132,0.48854 -0.0566,1.03462 -0.50868,1.21971"
       style="fill:#f14d45;fill-opacity:1;fill-rule:nonzero;stroke:none;stroke-width:0.03527778"
       id="path126"
       inkscape:connector-curvature="0" />
    <path
       d="m 219.76231,109.06202 c -1.99326,-0.36908 -3.60803,0.68808 -4.68819,1.74546 -0.97971,0.95871 -1.51979,1.91765 -1.50378,1.81241 0.52428,-3.29007 3.40105,-5.5116 6.41431,-4.95305 3.01266,0.55943 5.0377,3.69154 4.51362,6.98139 -0.0339,0.22163 -0.66746,-4.83183 -4.73596,-5.58621"
       style="fill:#0b0d10;fill-opacity:1;fill-rule:nonzero;stroke:none;stroke-width:0.03527778"
       id="path128"
       inkscape:connector-curvature="0" />
    <path
       d="m 190.54923,102.52695 c -1.99467,-0.37106 -3.61065,0.68698 -4.68999,1.74502 -0.98013,0.95871 -1.51879,1.91765 -1.50259,1.81284 0.52246,-3.29094 3.40005,-5.51248 6.41332,-4.95458 3.01326,0.55921 5.03829,3.69307 4.51382,6.98139 -0.0324,0.22251 -0.66625,-4.83009 -4.73456,-5.58467"
       style="fill:#0b0d10;fill-opacity:1;fill-rule:nonzero;stroke:none;stroke-width:0.03527778"
       id="path130"
       inkscape:connector-curvature="0" />
    <path
       d="m 177.96561,103.43665 c 3.33323,-9.757543 12.22519,-9.370954 17.74546,-20.435076 5.33396,11.268247 35.55652,10.868528 37.0757,30.724486 12.87988,0.69223 17.56016,-17.241713 12.0715,-33.007714 -8.23768,-23.662581 -44.93309,-36.740829 -50.97178,-9.056782 -15.85202,-15.539131 -27.84029,22.25864 -15.92088,31.775086"
       style="fill:#c7695b;fill-opacity:1;fill-rule:nonzero;stroke:none;stroke-width:0.03527778"
       id="path132"
       inkscape:connector-curvature="0" />
    <path
       d="m 238.37306,113.24977 c 0.066,-0.21529 0.12758,-0.43014 0.18489,-0.64497 -0.23754,0.11705 -0.47873,0.22512 -0.72557,0.32488 0.19217,0.0914 0.37199,0.19844 0.54068,0.32009"
       style="fill:#a1dae2;fill-opacity:1;fill-rule:nonzero;stroke:none;stroke-width:0.03527778"
       id="path134"
       inkscape:connector-curvature="0" />
    <path
       d="m 230.04548,122.30107 c 0.2029,-0.072 0.40035,-0.14724 0.59475,-0.22644 -0.17356,-0.2632 -0.31348,-0.55177 -0.41413,-0.86442 l 1.24703,-5.54442 c 0,0 0.32624,-1.05934 1.31364,-1.93973 -0.41127,-5.36086 -2.91404,-9.24756 -6.45523,-12.28362 -1.02791,-0.19253 -2.07911,-0.39075 -3.13902,-0.59203 0.11867,0.0473 0.24079,0.10414 0.36634,0.17108 1.50217,0.80076 2.49687,3.21197 1.86404,3.56093 -0.0185,0.0102 -0.0421,0.0152 -0.0711,0.0152 -0.41594,0 -1.8839,-1.011 -3.75848,-1.39146 -1.50866,-0.31068 -1.03905,-2.47752 0.6057,-2.54468 -3.56408,-0.680201 -7.15894,-1.384026 -10.17463,-2.010404 -1.50927,3.551954 -1.76847,17.008044 6.64983,22.472164 1.65628,-0.97621 3.43164,-1.44419 5.13855,-1.44419 2.38084,0 4.62824,0.91036 6.23269,2.62213 m -10.99214,-14.72022 c 0.30739,0 0.61844,0.028 0.93131,0.086 3.01265,0.55943 5.03769,3.69154 4.51362,6.9814 -5.7e-4,0.004 -0.002,0.007 -0.003,0.007 -0.0595,0 -0.7517,-4.85504 -4.73294,-5.59322 -0.27703,-0.0512 -0.54716,-0.0751 -0.8094,-0.0751 -1.62288,0 -2.94887,0.91014 -3.87878,1.8205 -0.9299,0.91015 -1.4637,1.82028 -1.50197,1.82028 -0.002,0 -0.003,-0.002 -0.002,-0.008 0.46982,-2.94834 2.8294,-5.03904 5.48301,-5.03904"
       style="fill:#a2c0b4;fill-opacity:1;fill-rule:nonzero;stroke:none;stroke-width:0.03527778"
       id="path136"
       inkscape:connector-curvature="0" />
    <path
       d="m 230.64023,122.07463 c 1.24519,-0.50627 2.32009,-1.15276 3.24431,-1.89839 -1.63379,-2.82056 0.30033,-6.06971 2.39017,-6.06971 0.24321,0 0.48905,0.0442 0.73124,0.13827 0,0 -1.71116,0.47455 -2.08052,1.99334 0.86549,0.0904 1.42522,0.37631 1.73444,0.80075 0.76121,-1.20572 1.31689,-2.49786 1.71319,-3.78912 -0.16869,-0.12165 -0.34851,-0.22863 -0.54068,-0.32009 -1.31123,0.53012 -2.75568,0.81607 -4.32874,0.81585 -0.23552,0 -0.47548,-0.007 -0.71687,-0.0195 -1.9e-4,-0.002 0,0.002 0,0 -0.9874,0.88038 -1.31364,1.93973 -1.31364,1.93973 l -1.24703,5.54442 c 0.10065,0.31264 0.24057,0.60121 0.41413,0.86441 m 3.76274,-2.34077 c 0.68912,-0.62222 1.28691,-1.30285 1.80329,-2.02155 -0.30213,-0.2223 -0.58848,-0.333 -0.841,-0.333 -0.67535,0 -1.10993,0.79113 -0.96229,2.35455"
       style="fill:#a2c0b4;fill-opacity:1;fill-rule:nonzero;stroke:none;stroke-width:0.03527778"
       id="path138"
       inkscape:connector-curvature="0" />
    <path
       d="m 233.88454,120.17624 c 0.17863,-0.14396 0.35075,-0.2912 0.51843,-0.44237 -0.14764,-1.56344 0.28694,-2.35456 0.96229,-2.35456 0.25252,0 0.53887,0.1107 0.841,0.33299 0.15877,-0.22119 0.30983,-0.44544 0.45361,-0.67341 -0.30922,-0.42444 -0.86895,-0.71039 -1.73444,-0.80075 0.36936,-1.51879 2.08052,-1.99334 2.08052,-1.99334 -0.24219,-0.094 -0.48803,-0.13827 -0.73124,-0.13827 -2.08984,0 -4.02396,3.24915 -2.39017,6.06971"
       style="fill:#919e90;fill-opacity:1;fill-rule:nonzero;stroke:none;stroke-width:0.03527778"
       id="path140"
       inkscape:connector-curvature="0" />
    <path
       d="m 224.58798,123.26722 c 2.0943,-0.0681 3.90165,-0.41284 5.4575,-0.96615 -1.60445,-1.71176 -3.85184,-2.62212 -6.23269,-2.62212 -1.7069,0 -3.48226,0.46798 -5.13854,1.44419 0.47892,0.3109 0.98438,0.5951 1.52081,0.85085 0.0881,-0.10086 0.19804,-0.18203 0.32603,-0.23453 0.10206,-0.0418 0.20695,-0.0615 0.31003,-0.0615 0.35338,0 0.68629,0.233 0.81893,0.61106 0.0346,0.0987 0.0529,0.19954 0.0566,0.2993 0.8894,0.30302 1.84785,0.53297 2.88144,0.67888"
       style="fill:#a2b0a8;fill-opacity:1;fill-rule:nonzero;stroke:none;stroke-width:0.03527778"
       id="path142"
       inkscape:connector-curvature="0" />
    <path
       d="m 225.35183,104.59751 c 0.0289,0 0.0526,-0.005 0.0711,-0.0151 0.63282,-0.34896 -0.36187,-2.76017 -1.86405,-3.56093 -0.12555,-0.0669 -0.24767,-0.12383 -0.36633,-0.17109 -0.33007,-0.0628 -0.66239,-0.12601 -0.99348,-0.18903 -1.64475,0.0672 -2.11436,2.234 -0.6057,2.54469 1.87458,0.38046 3.34254,1.39146 3.75848,1.39146"
       style="fill:#8b9890;fill-opacity:1;fill-rule:nonzero;stroke:none;stroke-width:0.03527778"
       id="path144"
       inkscape:connector-curvature="0" />
    <path
       d="m 221.70655,122.58834 c -0.003,-0.0998 -0.0218,-0.20063 -0.0566,-0.2993 -0.13265,-0.37807 -0.46557,-0.61106 -0.81893,-0.61106 -0.10308,0 -0.20797,0.0197 -0.31004,0.0615 -0.12798,0.0525 -0.23794,0.13367 -0.32603,0.23453 0.47953,0.22864 0.98397,0.43472 1.51149,0.61435"
       style="fill:#a48f82;fill-opacity:1;fill-rule:nonzero;stroke:none;stroke-width:0.03527778"
       id="path146"
       inkscape:connector-curvature="0" />
    <path
       d="m 224.49523,114.65523 c 7.9e-4,0 0.002,-0.002 0.003,-0.007 0.52408,-3.28984 -1.50096,-6.42195 -4.51361,-6.98139 -0.31288,-0.0581 -0.62393,-0.086 -0.93132,-0.086 -2.65363,0 -5.01321,2.0907 -5.48302,5.03904 -5.8e-4,0.005 -1.4e-4,0.008 0.002,0.008 0.0383,0 0.57208,-0.91014 1.50198,-1.82029 0.9299,-0.91036 2.2559,-1.8205 3.87876,-1.8205 0.26225,0 0.5324,0.0239 0.80942,0.0751 3.98123,0.73817 4.67339,5.59321 4.73293,5.59321"
       style="fill:#264c58;fill-opacity:1;fill-rule:nonzero;stroke:none;stroke-width:0.03527778"
       id="path148"
       inkscape:connector-curvature="0" />
    <path
       d="m 233.50364,113.74553 c 1.57306,1.7e-4 3.01751,-0.28573 4.32874,-0.81585 0.24684,-0.0998 0.48803,-0.20783 0.72557,-0.32488 1.02426,-3.83157 0.7122,-7.53624 0.29646,-8.86513 0,0 -5.73492,-1.025 -12.52287,-2.29723 3.54119,3.03606 6.04396,6.92276 6.45523,12.28362 0,0.002 -1.9e-4,-0.002 0,0 0.24139,0.0129 0.48135,0.0194 0.71687,0.0194"
       style="fill:#8b9890;fill-opacity:1;fill-rule:nonzero;stroke:none;stroke-width:0.03527778"
       id="path150"
       inkscape:connector-curvature="0" />
    <path
       d="m 177.43707,112.20004 c -0.0627,-0.79725 -0.0931,-1.60653 -0.0931,-2.42501 0,-2.05458 0.2025,-4.17263 0.62169,-6.33838 -2.12629,-1.6971 -3.49118,-4.294513 -4.21008,-7.327946 -1.27374,4.451376 -1.61394,11.160166 3.68154,16.091336"
       style="fill:#a1dae2;fill-opacity:1;fill-rule:nonzero;stroke:none;stroke-width:0.03527778"
       id="path152"
       inkscape:connector-curvature="0" />
    <path
       d="m 189.15397,115.70475 c 9.40431,-2.1069 13.49287,-14.50144 13.25999,-18.351383 -2.70749,-0.51699 -5.8706,-1.155185 -9.05397,-1.813289 -0.10936,0.441294 -0.44957,0.781496 -1.01049,0.781496 -0.0465,0 -0.0952,-0.0019 -0.14378,-0.0068 -0.29161,-0.02928 -0.57917,-0.04143 -0.85457,-0.04143 -0.66826,0 -1.28388,0.07042 -1.79217,0.140676 -0.50828,0.07071 -0.91127,0.141122 -1.15426,0.141122 -0.11544,0 -0.19238,-0.01556 -0.23087,-0.05408 -0.31185,-0.312639 0.12353,-1.159989 0.87482,-1.860975 -1.1401,-0.240222 -2.25792,-0.477165 -3.32917,-0.705362 -3.21375,2.423697 -6.1379,4.769937 -7.75389,9.502225 v 0 c -0.41919,2.16575 -0.62169,4.2838 -0.62169,6.3384 0,0.81847 0.0304,1.62775 0.0931,2.425 0.002,6.2e-4 0.002,0.002 0.002,0.002 -0.0365,-0.47016 -0.0627,-0.94427 -0.077,-1.42209 1.01858,-0.48243 2.10603,-0.71433 3.20563,-0.71433 3.1449,0 6.38902,1.89751 8.37558,5.26941 0.0729,0.1223 0.14176,0.24547 0.21061,0.36952 m 0.68621,-14.66057 c 0.30578,0 0.61764,0.0278 0.92949,0.0858 3.01327,0.55921 5.03831,3.69307 4.51383,6.98139 0,0.005 -0.002,0.007 -0.002,0.007 -0.0608,0 -0.75129,-4.85351 -4.73253,-5.5919 -0.27945,-0.0519 -0.55081,-0.0757 -0.81204,-0.0757 -1.62408,0 -2.94846,0.91036 -3.87795,1.82072 -0.92951,0.91014 -1.46411,1.82072 -1.50057,1.82072 -0.002,0 -0.002,-0.002 -0.002,-0.008 0.4698,-2.94964 2.82899,-5.04034 5.48381,-5.04034"
       style="fill:#a2c0b4;fill-opacity:1;fill-rule:nonzero;stroke:none;stroke-width:0.03527778"
       id="path154"
       inkscape:connector-curvature="0" />
    <path
       d="m 186.34929,116.01082 c 0.98214,0 1.91772,-0.10742 2.80468,-0.30607 -0.0688,-0.12406 -0.1377,-0.24724 -0.21059,-0.36954 -1.98657,-3.3719 -5.2307,-5.26941 -8.37559,-5.26941 -1.0996,0 -2.18704,0.23191 -3.20564,0.71433 0.0141,0.47783 0.0404,0.95193 0.0769,1.4221 1.32641,1.23351 3.00315,2.35565 5.10716,3.3032 1.34059,0.34633 2.60826,0.50539 3.80303,0.50539 m -1.41145,-2.28476 c 0.18834,0 0.38071,0.066 0.54069,0.20215 0.38071,0.32272 0.4455,0.91737 0.14783,1.32824 -0.17416,0.23759 -0.43134,0.36165 -0.69054,0.36165 -0.18833,0 -0.37869,-0.066 -0.53866,-0.20215 -0.38072,-0.32293 -0.44754,-0.91736 -0.14783,-1.32824 0.17212,-0.2376 0.42931,-0.36165 0.68851,-0.36165"
       style="fill:#a2b0a8;fill-opacity:1;fill-rule:nonzero;stroke:none;stroke-width:0.03527778"
       id="path156"
       inkscape:connector-curvature="0" />
    <path
       d="m 188.40472,96.554802 c 0.24299,0 0.64598,-0.07042 1.15426,-0.141113 0.50829,-0.07022 1.12391,-0.140676 1.79217,-0.140676 0.2754,0 0.56296,0.01196 0.85457,0.04133 0.0487,0.0049 0.0972,0.0068 0.14378,0.0068 0.56092,0 0.90113,-0.340212 1.01049,-0.781506 -1.44588,-0.299071 -2.89581,-0.602308 -4.31132,-0.900286 -0.75129,0.700973 -1.18667,1.548333 -0.87482,1.860973 0.0385,0.03851 0.11543,0.05408 0.23087,0.05408"
       style="fill:#8b9890;fill-opacity:1;fill-rule:nonzero;stroke:none;stroke-width:0.03527778"
       id="path158"
       inkscape:connector-curvature="0" />
    <path
       d="m 184.93581,115.6181 c 0.25921,0 0.51639,-0.12406 0.69054,-0.36165 0.29768,-0.41087 0.23289,-1.00552 -0.14783,-1.32824 -0.15998,-0.13607 -0.35235,-0.20215 -0.54068,-0.20215 -0.2592,0 -0.51639,0.12405 -0.68852,0.36165 -0.2997,0.41088 -0.23288,1.00531 0.14783,1.32824 0.15998,0.13608 0.35033,0.20215 0.53866,0.20215"
       style="fill:#a48f82;fill-opacity:1;fill-rule:nonzero;stroke:none;stroke-width:0.03527778"
       id="path160"
       inkscape:connector-curvature="0" />
    <path
       d="m 195.28176,108.11885 c 0,0 0.002,-0.002 0.002,-0.007 0.52449,-3.28833 -1.50056,-6.42219 -4.51382,-6.9814 -0.31186,-0.0581 -0.62371,-0.0858 -0.9295,-0.0858 -2.65483,0 -5.01401,2.0907 -5.48381,5.04034 0,0.006 0,0.008 0.002,0.008 0.0365,0 0.57107,-0.91058 1.50055,-1.82072 0.9295,-0.91036 2.25388,-1.82073 3.87796,-1.82073 0.26123,0 0.53258,0.0239 0.81204,0.0757 3.98124,0.7384 4.67178,5.5919 4.73253,5.5919"
       style="fill:#264c58;fill-opacity:1;fill-rule:nonzero;stroke:none;stroke-width:0.03527778"
       id="path162"
       inkscape:connector-curvature="0" />
    <path
       d="m 177.96561,103.43665 c 1.61599,-4.732296 4.54014,-7.078535 7.75389,-9.502226 -5.65392,-1.203964 -10.05028,-2.171646 -10.05028,-2.171646 -0.52247,0.68304 -1.32034,2.26901 -1.91368,4.345926 0.71889,3.033433 2.08378,5.630846 4.21007,7.327946 v 0 0"
       style="fill:#8b9890;fill-opacity:1;fill-rule:nonzero;stroke:none;stroke-width:0.03527778"
       id="path164"
       inkscape:connector-curvature="0" />
    <path
       d="m 173.7434,101.48619 c 0.26528,3.98975 1.90354,10.92038 9.89638,12.51095 4.52192,0.89985 8.58214,-0.55921 12.06318,-4.33675 3.86784,-4.19693 5.69443,-9.929943 5.87668,-11.784353 l -26.0542,-5.185836 c -0.22884,0.193844 -0.74928,0.867041 -1.21099,2.536149 -0.51436,1.855722 -0.71686,4.078793 -0.57105,6.25984 z m 40.00897,11.76707 c 2.00743,4.86992 5.31899,7.7955 9.8401,8.69579 7.99062,1.59056 11.80925,-4.25337 13.3742,-7.8784 0.85558,-1.98197 1.3995,-4.13742 1.53114,-6.06908 0.11867,-1.73736 -0.14601,-2.56721 -0.29606,-2.83631 -7.33634,-1.46038 -22.49804,-4.47807 -26.05421,-5.185839 -0.43964,1.803449 -0.62534,7.863109 1.60483,13.273839 z M 175.23788,90.356431 c 0.12555,-0.02363 0.25313,-0.023 0.37868,0.0016 l 27.00193,5.374858 9.26498,1.843915 h 1.5e-4 c 1.53336,0.305199 19.17027,3.815576 27.00376,5.374866 0.12472,0.0249 0.24421,0.0735 0.35316,0.14351 2.0623,1.32627 1.66964,6.36771 0.25352,10.43797 -0.84504,2.42894 -2.48816,5.83343 -5.5162,8.25887 -3.03514,2.43091 -6.65956,3.24829 -10.77304,2.4296 -0.46738,-0.0932 -0.91734,-0.20392 -1.35253,-0.33102 -6.29646,-1.84238 -9.27489,-7.12317 -10.67318,-11.37501 -1.60263,-4.87386 -1.7302,-10.245 -1.11864,-12.951568 l -6.38293,-1.2707 c -0.0182,0.147892 -0.0405,0.302135 -0.0668,0.463819 -0.50221,2.939359 -2.46447,7.826989 -5.58912,11.613039 -4.10071,4.9664 -9.20585,7.00634 -14.76864,5.8993 -0.48601,-0.0967 -0.95785,-0.21178 -1.4155,-0.34568 -3.41827,-1.00028 -6.05488,-3.03847 -7.84908,-6.07235 -2.02908,-3.43185 -2.44219,-7.24547 -2.43004,-9.84047 0.0203,-4.348108 1.31628,-9.209701 3.67951,-9.6547"
       style="fill:#ee3e24;fill-opacity:1;fill-rule:nonzero;stroke:none;stroke-width:0.03527778"
       id="path166"
       inkscape:connector-curvature="0" />
    <path
       d="m 154.82279,126.6348 c 0.66407,-0.13196 1.05318,2.14127 1.3247,2.24866 0.008,-0.0831 -0.17426,-2.61152 -0.22021,-3.15923 -0.10583,-1.28262 0.98201,-1.59428 1.25493,-0.51913 0.22818,0.90371 0.6199,3.01729 0.64603,3.12546 0.0111,-0.10939 -0.0309,-2.72841 -0.0457,-3.21158 -0.0435,-1.42161 1.37384,-1.72703 1.45245,-0.0958 0.0553,1.1044 0.0858,3.0558 0.12969,3.21949 0.0527,-0.0669 0.34759,-1.52351 0.57623,-2.3689 0.37874,-1.39627 1.4941,-1.26855 1.31321,0.37824 -0.14688,1.30122 -0.36585,4.425 -0.36585,4.425 0,0 1.64659,-1.17973 2.18934,-0.17812 0.55183,1.00434 -2.38282,2.96631 -2.38282,2.96631 l -0.17363,0.045 c 0.48344,2.01609 5.2239,9.98433 17.97176,7.48723 2.8141,-0.55254 3.02142,3.97605 0.52589,4.40968 -18.15997,3.14646 -21.67388,-8.37177 -22.52334,-11.05018 0,0 -1.09028,0.23325 -1.72844,-4.10775 -0.24978,-1.70218 -0.58428,-3.48518 0.0558,-3.61432"
       style="fill:#fabd99;fill-opacity:1;fill-rule:nonzero;stroke:none;stroke-width:0.03527778"
       id="path740-3-6-6"
       inkscape:connector-curvature="0" />
  </g>
  <g
     inkscape:groupmode="layer"
     id="layer2"
     inkscape:label="Layer 3" />
  <g
     inkscape:label="Layer 1"
     inkscape:groupmode="layer"
     id="layer1"
     transform="translate(0,-32.41665)">
    <text
       xml:space="preserve"
       style="font-style:normal;font-variant:normal;font-weight:bold;font-stretch:normal;font-size:10.58333302px;line-height:1.25;font-family:sans-serif;-inkscape-font-specification:'sans-serif Bold';letter-spacing:0px;word-spacing:0px;fill:#000000;fill-opacity:1;stroke:none;stroke-width:0.26458332"
       x="150.05655"
       y="89.869026"
       id="text8811" />
    <text
       xml:space="preserve"
       style="font-style:normal;font-variant:normal;font-weight:bold;font-stretch:normal;font-size:10.58333302px;line-height:1.25;font-family:sans-serif;-inkscape-font-specification:'sans-serif Bold';letter-spacing:0px;word-spacing:0px;fill:#000000;fill-opacity:1;stroke:none;stroke-width:0.26458332"
       x="160.63989"
       y="97.806526"
       id="text8815" />
    <text
       xml:space="preserve"
       style="font-style:normal;font-variant:normal;font-weight:bold;font-stretch:normal;font-size:10.58333302px;line-height:1.25;font-family:sans-serif;-inkscape-font-specification:'sans-serif Bold';letter-spacing:0px;word-spacing:0px;fill:#000000;fill-opacity:1;stroke:none;stroke-width:0.26458332"
       x="156.86011"
       y="88.7351"
       id="text8819" />
    <flowRoot
       xml:space="preserve"
       id="flowRoot8821"
       style="font-style:normal;font-variant:normal;font-weight:bold;font-stretch:normal;font-size:40px;line-height:1.25;font-family:sans-serif;-inkscape-font-specification:'sans-serif Bold';letter-spacing:0px;word-spacing:0px;fill:#000000;fill-opacity:1;stroke:none"><flowRegion
         id="flowRegion8823"
         style="font-style:normal;font-variant:normal;font-weight:bold;font-stretch:normal;font-family:sans-serif;-inkscape-font-specification:'sans-serif Bold'" /><flowPara
         id="flowPara8827" /></flowRoot>    <flowRoot
       xml:space="preserve"
       id="flowRoot8829"
       style="font-style:normal;font-variant:normal;font-weight:bold;font-stretch:normal;font-size:40px;line-height:1.25;font-family:sans-serif;-inkscape-font-specification:'sans-serif Bold';letter-spacing:0px;word-spacing:0px;fill:#000000;fill-opacity:1;stroke:none"><flowRegion
         id="flowRegion8831"
         style="font-style:normal;font-variant:normal;font-weight:bold;font-stretch:normal;font-family:sans-serif;-inkscape-font-specification:'sans-serif Bold'" /><flowPara
         id="flowPara8835" /></flowRoot>    <flowRoot
       xml:space="preserve"
       id="flowRoot8837"
       style="font-style:normal;font-variant:normal;font-weight:bold;font-stretch:normal;font-size:40px;line-height:1.25;font-family:sans-serif;-inkscape-font-specification:'sans-serif Bold';letter-spacing:0px;word-spacing:0px;fill:#000000;fill-opacity:1;stroke:none"><flowRegion
         id="flowRegion8839"
         style="font-style:normal;font-variant:normal;font-weight:bold;font-stretch:normal;font-family:sans-serif;-inkscape-font-specification:'sans-serif Bold'" /><flowPara
         id="flowPara8843" /></flowRoot>    <text
       xml:space="preserve"
       style="font-style:normal;font-variant:normal;font-weight:bold;font-stretch:normal;font-size:10.58333302px;line-height:1.25;font-family:sans-serif;-inkscape-font-specification:'sans-serif Bold';letter-spacing:0px;word-spacing:0px;fill:#000000;fill-opacity:1;stroke:none;stroke-width:0.26458332"
       x="209.39882"
       y="107.25594"
       id="text8847" />
    <flowRoot
       xml:space="preserve"
       id="flowRoot8849"
       style="font-style:normal;font-variant:normal;font-weight:bold;font-stretch:normal;font-size:40px;line-height:1.25;font-family:sans-serif;-inkscape-font-specification:'sans-serif Bold';letter-spacing:0px;word-spacing:0px;fill:#000000;fill-opacity:1;stroke:none"><flowRegion
         id="flowRegion8851"
         style="font-style:normal;font-variant:normal;font-weight:bold;font-stretch:normal;font-family:sans-serif;-inkscape-font-specification:'sans-serif Bold'" /><flowPara
         id="flowPara8855" /></flowRoot>    <flowRoot
       xml:space="preserve"
       id="flowRoot8857"
       style="font-style:normal;font-variant:normal;font-weight:bold;font-stretch:normal;font-size:40px;line-height:1.25;font-family:sans-serif;-inkscape-font-specification:'sans-serif Bold';letter-spacing:0px;word-spacing:0px;fill:#000000;fill-opacity:1;stroke:none"><flowRegion
         id="flowRegion8859"
         style="font-style:normal;font-variant:normal;font-weight:bold;font-stretch:normal;font-family:sans-serif;-inkscape-font-specification:'sans-serif Bold'" /><flowPara
         id="flowPara8863" /></flowRoot>    <flowRoot
       xml:space="preserve"
       id="flowRoot8865"
       style="font-style:normal;font-variant:normal;font-weight:bold;font-stretch:normal;font-size:40px;line-height:1.25;font-family:sans-serif;-inkscape-font-specification:'sans-serif Bold';letter-spacing:0px;word-spacing:0px;fill:#000000;fill-opacity:1;stroke:none"><flowRegion
         id="flowRegion8867"
         style="font-style:normal;font-variant:normal;font-weight:bold;font-stretch:normal;font-family:sans-serif;-inkscape-font-specification:'sans-serif Bold'" /><flowPara
         id="flowPara8871" /></flowRoot>    <flowRoot
       xml:space="preserve"
       id="flowRoot8873"
       style="font-style:normal;font-variant:normal;font-weight:bold;font-stretch:normal;font-size:40px;line-height:1.25;font-family:sans-serif;-inkscape-font-specification:'sans-serif Bold';letter-spacing:0px;word-spacing:0px;fill:#000000;fill-opacity:1;stroke:none"><flowRegion
         id="flowRegion8875"
         style="font-style:normal;font-variant:normal;font-weight:bold;font-stretch:normal;font-family:sans-serif;-inkscape-font-specification:'sans-serif Bold'" /><flowPara
         id="flowPara8879" /></flowRoot>    <text
       xml:space="preserve"
       style="font-style:normal;font-weight:normal;font-size:10.58333302px;line-height:1.25;font-family:sans-serif;letter-spacing:0px;word-spacing:0px;fill:#000000;fill-opacity:1;stroke:none;stroke-width:0.26458332"
       x="101.02788"
       y="69.125984"
       id="text977"><tspan
         sodipodi:role="line"
         id="tspan975"
         x="101.02788"
         y="78.489754"
         style="stroke-width:0.26458332" /><tspan
         sodipodi:role="line"
         x="101.02788"
         y="91.718918"
         style="stroke-width:0.26458332"
         id="tspan979" /><tspan
         sodipodi:role="line"
         x="101.02788"
         y="104.94809"
         style="stroke-width:0.26458332"
         id="tspan981" /><tspan
         sodipodi:role="line"
         x="101.02788"
         y="118.17725"
         style="stroke-width:0.26458332"
         id="tspan983" /><tspan
         sodipodi:role="line"
         x="101.02788"
         y="131.40642"
         style="stroke-width:0.26458332"
         id="tspan985" /><tspan
         sodipodi:role="line"
         x="101.02788"
         y="144.63559"
         style="stroke-width:0.26458332"
         id="tspan987" /><tspan
         sodipodi:role="line"
         x="101.02788"
         y="157.86475"
         style="stroke-width:0.26458332"
         id="tspan989" /><tspan
         sodipodi:role="line"
         x="101.02788"
         y="171.09392"
         style="stroke-width:0.26458332"
         id="tspan991" /><tspan
         sodipodi:role="line"
         x="101.02788"
         y="184.32309"
         style="stroke-width:0.26458332"
         id="tspan993" /><tspan
         sodipodi:role="line"
         x="101.02788"
         y="197.55225"
         style="stroke-width:0.26458332"
         id="tspan995" /><tspan
         sodipodi:role="line"
         x="101.02788"
         y="210.78142"
         style="stroke-width:0.26458332"
         id="tspan997" /><tspan
         sodipodi:role="line"
         x="101.02788"
         y="224.01059"
         style="stroke-width:0.26458332"
         id="tspan999" /><tspan
         sodipodi:role="line"
         x="101.02788"
         y="237.23975"
         style="stroke-width:0.26458332"
         id="tspan1001" /><tspan
         sodipodi:role="line"
         x="101.02788"
         y="250.46892"
         style="stroke-width:0.26458332"
         id="tspan1003" /><tspan
         sodipodi:role="line"
         x="101.02788"
         y="263.69809"
         style="stroke-width:0.26458332"
         id="tspan1005" /><tspan
         sodipodi:role="line"
         x="101.02788"
         y="276.92725"
         style="stroke-width:0.26458332"
         id="tspan1007" /><tspan
         sodipodi:role="line"
         x="101.02788"
         y="290.1564"
         style="stroke-width:0.26458332"
         id="tspan1009" /><tspan
         sodipodi:role="line"
         x="101.02788"
         y="303.38559"
         style="stroke-width:0.26458332"
         id="tspan1011" /><tspan
         sodipodi:role="line"
         x="101.02788"
         y="316.61475"
         style="stroke-width:0.26458332"
         id="tspan1013" /><tspan
         sodipodi:role="line"
         x="101.02788"
         y="329.8439"
         style="stroke-width:0.26458332"
         id="tspan1015" /><tspan
         sodipodi:role="line"
         x="101.02788"
         y="343.07309"
         style="stroke-width:0.26458332"
         id="tspan1017" /><tspan
         sodipodi:role="line"
         x="101.02788"
         y="356.30225"
         style="stroke-width:0.26458332"
         id="tspan1019" /><tspan
         sodipodi:role="line"
         x="101.02788"
         y="369.5314"
         style="stroke-width:0.26458332"
         id="tspan1021" /><tspan
         sodipodi:role="line"
         x="101.02788"
         y="382.76059"
         style="stroke-width:0.26458332"
         id="tspan1023" /></text>
  </g>
</svg>
