<svg id="Layer_1" data-name="Layer 1" xmlns="http://www.w3.org/2000/svg" viewBox="0 0 1000 1000">
  <defs>
    <style>
      .cls-1 {
        font-size: 150px;
        fill: #ed2024;
        font-family: FreeSansBold, FreeSans;
      }

      .cls-2, .cls-3, .cls-4 {
        fill: #000;
      }

      .cls-3 {
        letter-spacing: -0.01em;
      }

      .cls-4 {
        letter-spacing: 0em;
      }

      .cls-5 {
        font-size: 72px;
        font-family: MicrosoftSansSerif, Microsoft Sans Serif;
      }

      .cls-6 {
        fill: #f5a223;
      }

      .cls-6, .cls-8, .cls-9 {
        stroke: #de8826;
        stroke-miterlimit: 10;
        stroke-width: 3px;
      }

      .cls-7 {
        fill: #fcb429;
      }

      .cls-8 {
        fill: #fcd900;
      }

      .cls-9 {
        fill: none;
      }

      .cls-10 {
        fill: #fef080;
      }
    </style>
  </defs>
  <title>ginger</title>
  <text class="cls-1" transform="translate(271.26 797.83)">G<tspan class="cls-2" x="116.7" y="0">i</tspan><tspan class="cls-3" x="158.4" y="0">ng</tspan><tspan class="cls-4" x="338.7" y="0">e</tspan><tspan class="cls-2" x="421.35" y="0">r</tspan></text>
  <text class="cls-5" transform="translate(416.97 882.1) scale(0.95 1)">จินเจอะ</text>
  <g>
    <path class="cls-6" d="M498.54,577.45s-35.33-25.67-75.15-28.32-64.61-6.2-86.73-5.31-59.3,11.5-80.54,7.08-56.62-19.47-69.91-45.13c0,0-45.13-21-29.2-58.3s44.24-37.28,60.17-29.32,35.4,16.82,44.25,18.59a185.1,185.1,0,0,0,36.29,3.54H319s-51.33-.89-82.31-30.09-64.6-84.46-61.06-103.3,3.54-23.26,3.54-23.26-46-26.55-14.16-61.06,47.79-17.7,47.79-17.7,9.73-46.9,69-52.21,112.39,18.58,124.78,48.67S426,261.51,423.39,273.9s-5.31,33-5.31,33l15.17,8.6s.76-31,9.61-39.82S426,226.11,479.14,231.42c0,0,28.32-49.56,81.42-38.94s86.73,25.66,92.92,73.45-13.27,75.82-14.16,86.59-19.47,49.33-19.47,49.33L523.39,512l-10.62,41.59,22.12,8.85Z"/>
    <path class="cls-7" d="M445.51,487.18s-13.69-11.85-41.36-13.89-46.24-21.51-49.79-7.35-4.71,36.29-9.44,43.37-13.26,15-24.48,17.69-24.49-3.54-41.31-3.54-19.47,23-42.48-3.54S218.07,496,201.25,486.3s-27.43-30.09-31.85-29.21-10.62,9.74,0,23,23,17.7,29.2,28.32,16.81,15.85,30.09,24.3,28.32,13.75,39.82,12.87,37.48-4.43,51.93-5.31,60.47-1.77,71.09-.89,56,8,65.63,10.62,23.91,0,23.91,0l-11.66-57.52Z"/>
    <path class="cls-8" d="M462.33,538.51s-7.07-47.79-7.08-53.1,14.16-13.27,17.7-18.58,3.54-18.59,8.85-28.32,10.62-15.93,23.89-24.78,11.5-28.32,32.74-37.17,76.77-16.18,95.91-7.65,18.92,43.93,20.36,53.67-3,38.54-11.84,52.46-33.63,58.16-42.48,63.47-44.25,36.28-54.87,38.94-35,7.51-47,0S462.33,538.51,462.33,538.51Z"/>
    <path class="cls-9" d="M433.25,315.49s5.18,15.93,12.26,19.47,13.28.25,21.24,8.54a182.22,182.22,0,0,1,14.32,17"/>
    <path class="cls-9" d="M445.51,335C401.26,327.88,380,360.53,380,360.53"/>
    <path class="cls-9" d="M323.38,447.47s-20.35-52.33,46-50.56"/>
    <path class="cls-6" d="M344.92,439.39S351.7,413.73,375.6,412"/>
    <path class="cls-6" d="M445.51,396.87s-21,17.74-12.26,69.07"/>
    <path class="cls-7" d="M184.34,213S155.8,231.57,159,243.07s2.4,27.44,12.54,31,17.22.88,12.79,9.73-.88,45.39,5.31,56.32,31.86,49.88,48.68,62.27S295,419.14,304.7,428s11.22,0,11.22,0,1.92-25.27,17.9-29.55c0,0-30-4.14-48.59-5s-29.2,0-29.2-5.27-21.24-18.88-34.52-39.09-14.16-1.62-21.24-40.56-4.42-46-4.42-60.18-2.66-3.54-7.08-19.47Z"/>
    <path class="cls-7" d="M549.94,288.94c-7.57,4.68-45.53,10.24-52,17.95s-7.32,20.75-5.55,27.07,26.54,1.65,38.93,0,29.21.9,31,4.05,0,9.23,0,9.23-25.16-8.15-45.94-1.32c0,0-17.05,4.52-24.77,8.7l-7.73,4.18a49.69,49.69,0,0,0-5.34-6.28c-2.65-2.51-6.49-9-6.49-9s-6.78-8.19-11.8-9.54-17.11-4.9-17.11-4.9-2.06-5.9-2.95-7.67-3.54-4.72-3.54-8.55,2.95-16.52,6.2-23.9,8.85-20.94,9.73-21.24-8,13.87,2.66,14.46,12.68-2.36,13.86.29,7.67-4.72,14.75-11.21,21.53-19.47,27.73-13-2.66,14.75-10.32,19.47-14.85,10.62-1.38,8.26,40.31-13,49.46-9.44S560,282.75,549.94,288.94Z"/>
    <path class="cls-9" d="M455.25,382.75s33.63-43.36,92-38.94,87.06,25.1,87.06,25.1"/>
    <path class="cls-7" d="M457.16,369.92c0-.14-7.45-11.51-18.84-15.49s-18-7.52-29.54-4-17.85,10.76-21.68,8.35,23-19.07,33.19-20.79,20.35-2.6,32.74,3.59,17.26,4.88,19.92,11.73-8.13,12.34-8.85,16.59S456.86,376.11,457.16,369.92Z"/>
    <path class="cls-7" d="M375.6,311.07c-13.28.18-41.11,3.1-53.3,7.08s-21,14.36-26.79,15.81-6.2-10.5,5.31-16.25,22.12-11.07,42-13.72,31.86-4,35.4,0S383.62,311,375.6,311.07Z"/>
    <path class="cls-7" d="M338.35,240.71c-1.44,2.66-31.78,5.75-44.17,12.83s-19.47,9.3-27,25.23-9.3,17.25-13.72,31-3.1,22.59-6.2,27-16.37-6.07-10.17-19,23-35.47,29.2-45.65,12.39-20.8,31-27S343.13,231.86,338.35,240.71Z"/>
    <path class="cls-9" d="M316.3,233.19S234,254,227.8,334.08c0,0-7.13,52.23,8.85,76.11"/>
    <path class="cls-9" d="M357,287.16s-71.94,5.53-85.75,46.8-15.31,75.39,5.79,98.82"/>
    <path class="cls-9" d="M201.25,236.55s-18.35,21.81-22.12,47.08"/>
    <path class="cls-9" d="M232.81,425.67s-31.21,13.41-26.69,54.43"/>
    <path class="cls-9" d="M303.91,440.28s-42.43,19.91-42.9,52.65"/>
    <path class="cls-9" d="M362.32,466.6s.89,52.35,13.28,78.73"/>
    <path class="cls-9" d="M381.27,457.06s5.12,55.12,5.46,68.62"/>
    <path class="cls-9" d="M401.7,459.3s1.8,44.25,2.45,51.77"/>
    <path class="cls-9" d="M412.77,461.07s6.19,53.1,3.54,72.13"/>
    <path class="cls-9" d="M445.51,480.1s-.44,37.61-1.77,50.89"/>
    <path class="cls-9" d="M516.75,431.4s-18.14,28.79-21.24,34.54-7.08,15.49-3.09,31.2"/>
    <path class="cls-9" d="M512.33,514.17c1.32,1.77,21.12,6.64,32.46,3.1"/>
    <path class="cls-10" d="M555.11,410.19c-3.08.25-18,16.37-29.51,30.09S504.36,457.14,507.9,475s-1.16,23.2,20.66,25.86,37.31,1.33,43.5-15.71,15.05-14,31-28.13,25.22-21.65,22.12-31.39-15-31.28-28.76-23.82-14.6,22.82-20.35,33.5-25.78,9.35-31.26,23.95-8.4,29.65-16.23,20.8-17.12-16-4.29-23,36.73-34,35.85-38.91S566,409.3,555.11,410.19Z"/>
    <path class="cls-9" d="M538.43,392c1.33-1.32,38.94-17.7,77-9.29"/>
    <path class="cls-9" d="M632.24,392s10.18,37.37-3.09,72.23"/>
    <path class="cls-9" d="M555.11,542.93c-5.61.45-47.65,3.54-60.48-4.42"/>
    <path class="cls-6" d="M647,329.56s-25.53-38.85-80.55-45.93"/>
    <path class="cls-6" d="M606.74,228.76s14,10.62,17.1,21.69"/>
    <path class="cls-6" d="M546.84,216.37s-19.47-1.77-30.09,7.53"/>
    <path class="cls-9" d="M471.62,287.16S455.31,299.51,458.13,338"/>
    <path class="cls-9" d="M455.25,287.16s-14.32,19.39-14.1,44"/>
    <path class="cls-9" d="M519.85,283.63s-53.15,8.31-46.48,67.21"/>
    <g>
      <path class="cls-6" d="M798.93,500.65S837,526.15,841.68,539s9.57,23.82,11.64,36.15-.22,26.93-17.05,39.27-48.74,23.81-63.48,22.73-42.91-7.23-61.65-11.53-46.08-8.4-58.84-16.23S632.2,593.07,629.13,583s-4.3-27.19,7.26-35.63,88.84-24.77,102.68-22.06S798.93,500.65,798.93,500.65Z"/>
      <path class="cls-8" d="M628,578.2s31.49,14.27,48.77,21.6S714.5,611.88,738,615.25s32.77,2.75,46.84-1,23.43-5,33.85-19.06,14.5-19.77,12.19-25.65-2-7.66.63-17.21S833.69,534.66,830,528s-10.45-25-40.64-37-61-5.14-77,.9-17.51,12.77-37.83,24.19S616.25,541.82,628,578.2Z"/>
      <path class="cls-10" d="M709.44,507.73c3.52-3.59,21-10.55,34-12.06s9.66,2.34,13,8.29,20.35,14.4,23.7,18.88,9.88.82,15.67,13.4,16.67,20.5,4.32,32.26-12.54,16.77-29.58,18.91-17.07,7.41-35.73,7.79-20.71,6.25-36.9-.12-43.91-6.51-25.43-11,30.38,3.23,44.11-9.83,13.68-16.57-8.77-9.59-52.47,14.61-32-1.11,39.5-17.79,33.82-29.71-13-9.92-5.95-15.45S709.44,507.73,709.44,507.73Z"/>
      <path class="cls-9" d="M811.61,569.75S779.2,606.22,738,589.51"/>
      <path class="cls-9" d="M785.42,544c-4.49,8.12-14.39,19.18-14.39,19.18"/>
      <path class="cls-9" d="M749.68,508.3s25.38,2.77,38.39,9.48"/>
    </g>
    <g>
      <path class="cls-6" d="M583.13,493.38s-19.87,42-16.67,55.31,5.16,25.22,10.47,36.72,15.93,22.57,38.5,23.9,58.41-6.2,71.24-15,35-29.2,49.56-42.92,37.17-31.9,44.25-45.38,8.85-24.53,5.75-34.71-12-25.22-27.43-26.11-95.58,27-106.64,36.73S583.13,493.38,583.13,493.38Z"/>
      <path class="cls-8" d="M784.53,466.6s-20.42,29-31.93,44.47-27.43,30.54-46.9,46-28.32,20-43.37,24.37-24.33,8.38-42,2.18-24.78-8.85-26.11-15-2.66-7.52-10.62-14.16-12.33-13.68-12.83-21.24-5.09-26.74,15.48-53.1,52.66-37.17,70.8-40.71,23.45,1.33,48.68,0S774,429.66,784.53,466.6Z"/>
      <path class="cls-10" d="M669,451.13c-5.31-1.12-25.31,2.42-38.1,8.17s-7.46,7.18-7,14S613.66,496.38,613.22,502s-8.54,6-6.48,19.73-3.26,26.26,14.88,29.5,21.24,7.38,38.06,0,19.91-3,37.17-12.68,22.56-5.89,33.63-20,36.28-29.14,16.81-22.94-25.85,19.09-46,15.48-22.17-6.59,2.41-12.81,56.44-15.95,28.57-18.16-46.47,6.29-48.24-6.81,6.1-15.37-3.58-16.23S669,451.13,669,451.13Z"/>
      <path class="cls-9" d="M611.89,558.42s50.89,13.28,78.76-23"/>
      <path class="cls-9" d="M620.74,522.58c8.85,4.42,24.34,8.41,24.34,8.41"/>
      <path class="cls-9" d="M632.56,473.29S611,489.3,603,502"/>
    </g>
  </g>
</svg>
