<svg id="Layer_1" data-name="Layer 1" xmlns="http://www.w3.org/2000/svg" viewBox="0 0 1000 1000">
  <defs>
    <style>
      .cls-1 {
        font-size: 150px;
        fill: #ed2024;
        font-family: FreeSansBold, FreeSans;
      }

      .cls-2 {
        letter-spacing: -0.01em;
      }

      .cls-3 {
        letter-spacing: -0.03em;
      }

      .cls-3, .cls-4 {
        fill: #000;
      }

      .cls-5 {
        fill: #b8d876;
      }

      .cls-6 {
        fill: #9c4c2d;
        stroke: #9c4c2d;
      }

      .cls-11, .cls-14, .cls-15, .cls-16, .cls-17, .cls-6, .cls-7, .cls-9 {
        stroke-miterlimit: 10;
      }

      .cls-14, .cls-16, .cls-17, .cls-7, .cls-9 {
        fill: none;
      }

      .cls-7 {
        stroke: #95ae53;
      }

      .cls-11, .cls-17, .cls-7, .cls-9 {
        stroke-width: 3px;
      }

      .cls-8 {
        fill: #d8865f;
      }

      .cls-14, .cls-9 {
        stroke: #fff;
      }

      .cls-10 {
        fill: #acc168;
      }

      .cls-11, .cls-13 {
        fill: #fbf9fb;
      }

      .cls-11 {
        stroke: #939393;
      }

      .cls-12 {
        fill: #b83829;
      }

      .cls-15 {
        fill: #c32a27;
        stroke: #000;
        stroke-width: 2px;
      }

      .cls-16, .cls-17 {
        stroke: #8e4128;
      }
    </style>
  </defs>
  <title>gym</title>
  <text class="cls-1" transform="translate(342.13 797.83)"><tspan class="cls-2">G</tspan><tspan class="cls-3" x="115.2" y="0">y</tspan><tspan class="cls-4" x="194.1" y="0">m</tspan></text>
  <g>
    <rect class="cls-5" x="128.68" y="119.73" width="750.31" height="380.07"/>
    <polygon class="cls-6" points="128.68 499.8 238.45 418.67 771.09 418.67 878.99 499.8 878.65 421.94 769.22 364.42 237.05 364.42 128.68 423.35 128.68 499.8"/>
    <line class="cls-7" x1="238.45" y1="418.67" x2="238.45" y2="119.73"/>
    <line class="cls-7" x1="771.09" y1="418.67" x2="771.09" y2="119.73"/>
    <polygon class="cls-8" points="128.68 616.95 878.99 616.95 878.99 499.8 771.09 418.67 238.45 418.67 128.68 499.8 128.68 616.95"/>
    <polyline class="cls-9" points="128.68 578.37 287.09 432.11 721.99 432.11 878.99 578.37"/>
    <path class="cls-9" d="M403.53,617s28.05-40,100.3-38.58S604.14,617,604.14,617"/>
    <path class="cls-9" d="M314.44,432.11S252.71,476,349.52,495.6s219.55,28,311.44,0,35.78-63.49,35.78-63.49"/>
    <polyline class="cls-9" points="432.99 432.11 416.86 483.87 590.12 483.87 575.38 432.11"/>
    <path class="cls-9" d="M440.47,483.87s7.16,19.44,63.91,18.51,63.29-18.07,63.29-18.07"/>
    <path class="cls-10" d="M472.39,144.87H443.86V215h98.91V177l-1.23-23Z"/>
    <rect class="cls-11" x="452.28" y="140.13" width="102.76" height="71.37"/>
    <rect class="cls-12" x="455.61" y="143.11" width="96.63" height="64.71"/>
    <rect class="cls-13" x="458.59" y="146.44" width="90.66" height="58.4"/>
    <rect class="cls-12" x="481.39" y="166.61" width="45.77" height="34.72"/>
    <rect class="cls-13" x="484.55" y="169.77" width="40.16" height="28.58"/>
    <g>
      <polyline class="cls-14" points="521.63 245.33 528.86 203.09 488.4 243.54 479.75 203.09 521.63 245.33"/>
      <line class="cls-14" x1="522.66" y1="238.28" x2="485.25" y2="203.09"/>
      <polyline class="cls-14" points="482.21 216.65 496.59 203.09 524.71 227.29 498.11 244.47 485.83 232.31 517.28 203.09 527.8 212.91"/>
      <polygon class="cls-14" points="525.7 219.1 506.29 203.09 484.55 223.31 509.45 244.47 525.7 219.1"/>
    </g>
    <rect class="cls-15" x="478.41" y="196.25" width="52.08" height="6.84"/>
    <line class="cls-16" x1="144.81" y1="487.88" x2="144.81" y2="414.57"/>
    <line class="cls-16" x1="161.86" y1="405.3" x2="161.86" y2="475.28"/>
    <line class="cls-16" x1="176.93" y1="397.11" x2="176.93" y2="464.14"/>
    <line class="cls-16" x1="191.08" y1="389.42" x2="191.08" y2="453.68"/>
    <line class="cls-16" x1="204.33" y1="382.21" x2="204.33" y2="443.89"/>
    <line class="cls-16" x1="215.9" y1="375.92" x2="215.9" y2="435.34"/>
    <line class="cls-16" x1="227.1" y1="369.83" x2="227.1" y2="427.06"/>
    <line class="cls-16" x1="863.65" y1="414.06" x2="863.65" y2="488.27"/>
    <line class="cls-16" x1="847.74" y1="405.69" x2="847.74" y2="476.3"/>
    <line class="cls-16" x1="830.97" y1="396.88" x2="830.97" y2="463.7"/>
    <line class="cls-16" x1="816.17" y1="389.1" x2="816.17" y2="453.27"/>
    <line class="cls-16" x1="803.85" y1="382.62" x2="803.85" y2="443.3"/>
    <line class="cls-16" x1="791.9" y1="376.34" x2="791.9" y2="434.32"/>
    <line class="cls-16" x1="781.16" y1="370.7" x2="781.16" y2="426.24"/>
    <polyline class="cls-17" points="128.68 499.8 238.45 418.67 771.09 418.67 878.99 499.8"/>
    <polygon class="cls-11" points="595.03 432.11 595.03 318.48 412.65 318.48 412.65 432.11 399.67 432.11 399.67 307.6 607.3 307.6 607.3 432.11 595.03 432.11"/>
  </g>
</svg>
