<svg id="Layer_1" data-name="Layer 1" xmlns="http://www.w3.org/2000/svg" viewBox="0 0 1000 1000">
  <defs>
    <style>
      .cls-1 {
        font-size: 150px;
        fill: #ed2024;
        font-family: FreeSansBold, FreeSans;
      }

      .cls-2 {
        letter-spacing: -0.04em;
      }

      .cls-3 {
        letter-spacing: -0.01em;
      }

      .cls-3, .cls-4, .cls-5, .cls-6, .cls-7 {
        fill: #000;
      }

      .cls-5 {
        letter-spacing: -0.02em;
      }

      .cls-6 {
        letter-spacing: -0.01em;
      }

      .cls-7 {
        letter-spacing: 0em;
      }

      .cls-8 {
        font-size: 72px;
        font-family: MicrosoftSansSerif, Microsoft Sans Serif;
      }

      .cls-9 {
        fill: #e98024;
        stroke: #d87427;
      }

      .cls-11, .cls-13, .cls-15, .cls-17, .cls-9 {
        stroke-miterlimit: 10;
        stroke-width: 3px;
      }

      .cls-10 {
        fill: #d87427;
      }

      .cls-11 {
        fill: #44230f;
        stroke: #2c190d;
      }

      .cls-12 {
        fill: #653513;
      }

      .cls-13 {
        fill: #ffcd34;
        stroke: #d8a029;
      }

      .cls-14 {
        fill: #eeb422;
      }

      .cls-15 {
        fill: #cb2c27;
        stroke: #ae2424;
      }

      .cls-16 {
        fill: #ef3e23;
      }

      .cls-17 {
        fill: #bcd437;
        stroke: #99ab3a;
      }

      .cls-18 {
        fill: #7fbf45;
      }

      .cls-19 {
        fill: #f4ab42;
      }

      .cls-20 {
        fill: #fbd4a9;
      }
    </style>
  </defs>
  <title>hamburger</title>
  <text class="cls-1" transform="translate(117.12 805.04)"><tspan class="cls-2">H</tspan><tspan class="cls-3" x="102.3" y="0">a</tspan><tspan class="cls-4" x="184.2" y="0">m</tspan><tspan class="cls-3" x="317.55" y="0">bu</tspan><tspan class="cls-5" x="497.85" y="0">r</tspan><tspan class="cls-6" x="553.2" y="0">g</tspan><tspan class="cls-7" x="643.35" y="0">e</tspan><tspan class="cls-4" x="726" y="0">r</tspan></text>
  <text class="cls-8" transform="translate(326.66 895.42)">แฮมเบอเกอะ</text>
  <g>
    <path class="cls-9" d="M224.05,474.37s-26.36,82.26,21.56,109.41,143,48.71,289.9,48.71,216.43-42.32,232.4-53.5,31.15-39.93,30.35-55.11-7.19-45.52-16.77-49.51S224.05,474.37,224.05,474.37Z"/>
    <path class="cls-10" d="M232,486.35c.8,4.79,8,52.71,50.32,73.47S394.15,579,428.5,587s91.84,10.39,126.18,8.79,108.61-13.58,134.17-19.17,56.7-11.18,65.48-28,22.36-75.87,22.36-75.87Z"/>
    <path class="cls-11" d="M203.28,424.05c-3.19.8-16,54.31,7.19,75.87s31.95,20,49.52,31.15,25.55,12,52.71,17.57,33.54,16,59.89,16.77,55.91-6.39,72.68,0S478,574.2,496.38,571s67.08-6.39,83.85-4.79,34.34-5.59,51.12-9.58,38.33-9.59,59.89-12,32-12.78,47.12-17.57,33.54-4.79,43.13-10.39,10.38-24,16.77-31.94,19.16-34.34,0-50.31S203.28,424.05,203.28,424.05Z"/>
    <path class="cls-12" d="M780.29,486s-10.38,29.55-22.36,28.75-16.77-4-20,0-7.19,8.78-13.58,10.38-8,3.19-16.77,4.79-12.77,2.4-22.36,4.79-16,1.6-26.35,3.2-18.37-5.59-27.95,0-16,1.6-28,5.59-16,4-31.94,4.79-15.17-.8-38.33,0-35.14-8.78-52.71,0-27.16,11.18-48.72,8.79-18.37-6.39-35.94-8.79-23.16-4-39.13-7.19-13.58-1.59-30.35-6.39-16.77-9.58-34.34-15.17S262,513.1,256.39,508.31s-7.18-11.18-16-16-13.58-19.17-16-20-7.19-2.39-8-10.38-3.19-22.36-3.19-22.36S400.94,450,408.13,446s214,.8,225.21,0,154.93,13.57,154.93,13.57Z"/>
    <path class="cls-13" d="M278.35,332.21S258.21,468.27,256.7,508.05c0,0,34.43-17.71,151.83-29.69s210.7-29.55,226.34-28.75,145,51.11,166.58,58.3c0,0,17.57-50.31-3.19-95s-113.41-85.45-113.41-85.45l-194.06,12Z"/>
    <path class="cls-14" d="M272.37,457.2c.79,4.79,0,16,0,23.16s4,8.78,17.56,5.59,35.94-7.19,35.94-7.19Z"/>
    <path class="cls-14" d="M793.86,434.84c1.6,7.18,8.79,29.55,2.4,37.53s-5.59,16-16,12.78-22.36-7.19-29.55-8-14.09-8.4-27-9-16.91,3.4-12.92-.59S793.86,434.84,793.86,434.84Z"/>
    <path class="cls-13" d="M232.83,345s-66.28,40.73-92.64,106.22c0,0,89.45-3.2,143.76,16.77S442.07,540.65,462,556.63s53.51,30.34,64.69,37.53S569.85,550.24,629,513.5,756.73,456,781.49,450.41s69.48-12.78,79.86-12.78,13.57-8.78-20-44.72-83-63.09-84.65-63.09-402.51-44.73-402.51-44.73Z"/>
    <path class="cls-14" d="M214.47,376.94s-26.36,35.93-4,46.32,83.86,37.53,108.61,43.92,73.48,15.17,93.44,22.36,57.5,12,75.07,8,24-11.18,54.31-12.78,51.91.8,75.07-5.59,53.51-4.79,71.88-12S728,453.6,744,450.41s39.93-6.39,54.31-16,20-7.19,21.56-22.36-.8-16-18.37-35.14S716,341,716,341l-352.19-8.79Z"/>
    <path class="cls-15" d="M241.62,358.57c-7.19,0-32.75,59.89,27.95,85.45s132.57,32,183.68-38.33c0,0-4.79-35.14-32.74-43.93S346.24,345,327.87,346.59,241.62,358.57,241.62,358.57Z"/>
    <path class="cls-16" d="M387.77,395.3s39.93,11.19,37.53,14.38-6.39,21.56-18.37,24.76-20,6.39-34.34,8-19.16,6.39-31.14,0-18.37-8-18.37-13.57-7.19-27.16-8.79-27.16-1.75,12.18-4.47,21.66S307.11,436,296.72,436s-14.37,3.2-24-4.79-16-9.58-21.56-16-13.57-4.79-10.38-16-4.79-12,6.39-16.77,8-9.59,30.35-8.79,24.75,2.4,47.91,5.59S387.77,395.3,387.77,395.3Z"/>
    <path class="cls-15" d="M436.48,346.59c-6.39,2.39-79.86,67.88,39.13,119s258-40.73,212.44-78.26S545.89,324.23,544.3,325,436.48,346.59,436.48,346.59Z"/>
    <path class="cls-16" d="M457.25,380.93c-4,4-18.37,35.94-9.59,44.72s29.55,22.36,31.95,24.76S484.4,455.2,490,456s7.19.8,16,0,20.77.8,21.56-16-10.38-18.37,0-24.76,12-14.38,24.76-5.59,12.78,15.17,14.38,22.36-6.39,4,4.79,13.58,0,13.57,20,11.18,20-1.6,25.56-3.2,2.4,0,12-3.19,7.19,4.79,20-10.38,15.17-26.36,13.57-30.35-6.39-18.37-14.37-24.76-20.77-16-34.34-20.76S589,349,561.07,342.6s-53.51-4-70.28,8S457.25,380.93,457.25,380.93Z"/>
    <path class="cls-15" d="M751.94,332.21c6.39,7.19,20.37,23.69,34.94,34.21s18.56,39.27,11.38,46.45S747.94,443.22,720.79,448s-84.65-8-100.63-20.76-32.74-43.13-22.36-54.31S635.34,329,656.9,325,751.94,332.21,751.94,332.21Z"/>
    <path class="cls-16" d="M775.1,373.74c0,4.79,2.39,17.57-2.4,21.56s-12,2.4-20,0-10.39-12-8-2.39,5.59,9.58,4.79,16.77-5.59,6.39-14.37,13.58-2.4,10.38-17.57,10.38-18.92,5.26-31-5.36-21.68-9.82-20.88-18.6,4.79-24.76,23.95-28.75S716.8,369,724,365.76s14.37-4.8,22.36,0S775.1,373.74,775.1,373.74Z"/>
    <path class="cls-17" d="M222.45,285.09s-55.9,31.15-59.9,39.94,8.79,26.35,23.16,29.54,20,27.16,28.76,31.95,28.75,5.59,35.13,12,5.59,35.14,20.77,36.74,17.9,6.16,29.32.68,5.63-17.36,22.5-12.62,12.07,12.73,26.44,11.94,25.56.79,35.14-7.19,19.79-12.83,30.26-9.21,18.46,13.2,27.24,23.58,4,13.58,20.77,15.18,38.53,4,48.81,0,11.88-8,26.26-5.59,31.63-2.9,30.59-9.84-2.89-24,14-18.28,9.7,8.95,40,16.14,43.13,11.18,55.11,5.59,20.76-12.78,28.75-25.56-8.79-12,15.17-21.56,36.74-6.39,47.92-12-1.6-10.38,18.37-14.38,30.34-.79,43.12-9.58,21.56-16,17.57-23.16-21.56-10.38-15.17-24,21.56-16,9.58-26.35-43.12-26.36-69.48-27.16-134.17-5.59-166.11-8.78-112.61-.8-153.34,4.79S222.45,285.09,222.45,285.09Z"/>
    <path class="cls-18" d="M236.83,305.86c-11.18,8-37.54,5.59-30.35,21.56s20,28.75,24,35.14.8,18.37,26.35,24,24-7.19,25.56,5.59-10.38,14.38,4,17.57,1.6-20.76,28-14.38,20,11.19,43.93,14.38,28.75,0,44.72,0,17.62-.66,41.95,8.06,29.13-2.47,41.9-8.06,22.37-5.59,39.14-11.18,10.38-12.78,40.73-3.2,35.94,19.17,51.91,20,86.25-19.17,102.22-28.75,9.16-12.15,31.73-20.85,25-3.11,29.76-15.09,9.59-2.39,16-15.17,23.16-12,12.78-29.55,4-27.95-41.53-27.95S236.83,305.86,236.83,305.86Z"/>
    <path class="cls-9" d="M510.75,391.31c-6.39,0-162.12,10.38-234-28.75s-89.45-35.14-75.07-99.83S258.39,122.18,370.2,87.84s257.15-16,323.44,31.94,106.21,109.41,99.83,165.31-28.75,72.68-127.78,93.44Z"/>
    <path class="cls-19" d="M361.41,116.59c-3.19-1.6-70.28,16.77-78.26,52.7s14.37,93.44,42.32,111.81,101.45,50.5,135,60.79,71.87,19.07,93.43,20.67,60.69,4,83.85,3.2,64.69-10.39,69.48-10.39-67.88,20.77-101.42,22.36-136.56,12.78-230.8,0S236.83,335.41,224.05,321s-20.77-37.53-12-63.09,35.94-75.07,57.5-103.82,75.87-50.31,95-56.7,39.93-2.4,40.73,0S361.41,116.59,361.41,116.59Z"/>
    <path class="cls-20" d="M502.77,126.17c-3.2,3.19-3.2,13.58,0,10.38S502.77,126.17,502.77,126.17Z"/>
    <path class="cls-20" d="M456.45,126.17c-3.2,3.19-3.2,13.58,0,10.38S456.45,126.17,456.45,126.17Z"/>
    <path class="cls-20" d="M544.3,131.76c-3.2,3.19-3.2,13.58,0,10.38S544.3,131.76,544.3,131.76Z"/>
    <path class="cls-20" d="M565.06,168.5c-3.19,3.19-3.19,13.57,0,10.38S565.06,168.5,565.06,168.5Z"/>
    <path class="cls-20" d="M566.66,194.85c-3.2,3.19-3.2,13.58,0,10.38S566.66,194.85,566.66,194.85Z"/>
    <path class="cls-20" d="M533.11,166.1c-3.19,3.19-3.19,13.58,0,10.38S533.11,166.1,533.11,166.1Z"/>
    <path class="cls-20" d="M595.41,166.1c-3.2,3.19-3.2,13.58,0,10.38S595.41,166.1,595.41,166.1Z"/>
    <path class="cls-20" d="M605.79,142.94c-3.19,3.19-3.19,13.58,0,10.38S605.79,142.94,605.79,142.94Z"/>
    <path class="cls-20" d="M391.76,137.35c-3.2,3.19-3.2,13.58,0,10.38S391.76,137.35,391.76,137.35Z"/>
    <path class="cls-20" d="M447.66,166.1c-3.19,3.19-3.19,13.58,0,10.38S447.66,166.1,447.66,166.1Z"/>
    <path class="cls-20" d="M496.38,166.1c-3.2,3.19-3.2,13.58,0,10.38S496.38,166.1,496.38,166.1Z"/>
    <path class="cls-20" d="M446.07,198c-3.2,3.2-3.2,13.58,0,10.39S446.07,198,446.07,198Z"/>
    <path class="cls-20" d="M513.15,200.44c-3.2,3.2-3.2,13.58,0,10.38S513.15,200.44,513.15,200.44Z"/>
    <path class="cls-20" d="M545.89,220.41c-3.19,3.19-3.19,13.57,0,10.38S545.89,220.41,545.89,220.41Z"/>
    <path class="cls-20" d="M377.38,192.45c-3.19,3.2-3.19,13.58,0,10.39S377.38,192.45,377.38,192.45Z"/>
    <path class="cls-20" d="M405.34,166.1c-3.2,3.19-3.2,13.58,0,10.38S405.34,166.1,405.34,166.1Z"/>
  </g>
</svg>
