<svg id="Layer_1" data-name="Layer 1" xmlns="http://www.w3.org/2000/svg" viewBox="0 0 1000 1000">
  <defs>
    <style>
      .cls-1 {
        font-size: 150px;
        fill: #ed2024;
        font-family: FreeSansBold, FreeSans;
        letter-spacing: -0.04em;
      }

      .cls-2 {
        letter-spacing: -0.02em;
      }

      .cls-2, .cls-3 {
        fill: #000;
      }

      .cls-3 {
        letter-spacing: 0em;
      }

      .cls-4 {
        font-size: 72px;
        font-family: MicrosoftSansSerif, Microsoft Sans Serif;
      }

      .cls-5 {
        fill: #613011;
        stroke: #391c11;
        stroke-miterlimit: 10;
        stroke-width: 3px;
      }

      .cls-6 {
        fill: #4f280f;
      }

      .cls-7 {
        fill: #b57339;
      }

      .cls-8 {
        fill: #351c0d;
      }
    </style>
  </defs>
  <title>hat</title>
  <text class="cls-1" transform="translate(379.08 810.91)">H<tspan class="cls-2" x="102.3" y="0">a</tspan><tspan class="cls-3" x="182.7" y="0">t</tspan></text>
  <text class="cls-4" transform="translate(443.23 895.57)">แฮท</text>
  <g>
    <path class="cls-5" d="M323.21,348.89s-118.43,46.95-163.82,82.95c0,0-25.57,16.18-28.18,29.74S178.69,543,247,568.54s167.48,45.91,263,30.26S675.39,568,722.86,556.54s110.61-57.26,125.74-83.15,32.87-70.24,28.18-79.11-55.31-25.57-87.13-36-125.22-26.61-125.22-26.61Z"/>
    <path class="cls-6" d="M295,365.54s-30.79,11-33.39,23S259.56,456,364.43,473.39s196.69-3.46,217,10.63,40.7,62.08,58.44,69.39,151.3-37,168.52-49.57,67.3-97.56,63.13-104.87-94.44-41.74-139.83-46.43-216.52,15.13-241,15.13S295,365.54,295,365.54Z"/>
    <path class="cls-7" d="M179.21,437.58s-22.43,36.52,15.65,57.91,93.92,49.57,120.53,61.57,36,29.22,84.52,35.48c0,0-94.65-5.47-138.9-29.74s-101.62-64.7-108.93-77.22-13-24.43-4.17-32.56S179.21,437.58,179.21,437.58Z"/>
    <path class="cls-5" d="M275.21,401.06s53.22,76.7,221.74,61.56,247.3-97.08,247.3-97.08-50.08-165.87-73-194.57S580.43,124,522.52,126.62,404.6,154.28,374.86,168.89s-51.13,54.78-64.69,100.17S275.85,370.81,275.21,401.06Z"/>
    <path class="cls-6" d="M358.69,189.23s7.3,31.83,60,36,120.52-6.78,135.65,8.35,26.61,77.74,29.22,98.09,7.83,56.87,0,77.22-56.87,37-92.87,41.73-55.83,9.4-55.83,9.4S535,467.84,633.12,427.15l105.4-61.61s-53.74-182-79.31-197.18-70.65-39.47-131-36.52-118.95,29.74-134.6,35S361.3,177.76,358.69,189.23Z"/>
    <path class="cls-5" d="M369.65,188.71s-.53,17.22,38.6,18.78,108-.52,143-9.39,81.39-31.3,81.39-31.3"/>
    <path class="cls-8" d="M559,137.58s10,7.31,7.37,12-34.5,24.52-59,29.74S406.68,202.93,391,200.71s-17.94-4.41-17.94-4.41-.85,13.19,76.37,11.67,116.87-5.69,138.78-8.3,39.66,7.3,44.35,21.91S656,318.16,661.82,335.84s16.57,64.85,16.57,64.85l60.13-35.15S689,189.19,661.86,170.43s-77-35.15-95.45-36.88S559,137.58,559,137.58Z"/>
    <path class="cls-7" d="M346.69,253.93S330.52,358.28,336.25,382.8s16.51,54.26,4.61,47S295,410.45,297.12,391.15,329,285.23,335.73,274.28A188.43,188.43,0,0,0,346.69,253.93Z"/>
  </g>
</svg>
