<svg id="Layer_1" data-name="Layer 1" xmlns="http://www.w3.org/2000/svg" viewBox="0 0 1000 1000">
  <defs>
    <style>
      .cls-1 {
        font-size: 150px;
        fill: #ed2024;
        font-family: FreeSansBold, FreeSans;
      }

      .cls-2 {
        letter-spacing: -0.03em;
      }

      .cls-3, .cls-4, .cls-5, .cls-6, .cls-7 {
        fill: #000;
      }

      .cls-4 {
        letter-spacing: 0em;
      }

      .cls-5 {
        letter-spacing: -0.01em;
      }

      .cls-6 {
        letter-spacing: -0.01em;
      }

      .cls-7 {
        letter-spacing: 0em;
      }

      .cls-8 {
        font-size: 72px;
        font-family: MicrosoftSansSerif, Microsoft Sans Serif;
      }

      .cls-9 {
        fill: #e8b864;
        stroke: #753e1f;
      }

      .cls-11, .cls-13, .cls-15, .cls-9 {
        stroke-miterlimit: 10;
        stroke-width: 3px;
      }

      .cls-10 {
        fill: #83472c;
      }

      .cls-11 {
        fill: #f06696;
        stroke: #cc2561;
      }

      .cls-12 {
        fill: #ed1b68;
      }

      .cls-13 {
        fill: #f99f1b;
        stroke: #cb7b29;
      }

      .cls-14 {
        fill: #f26722;
      }

      .cls-15 {
        fill: #78cfe2;
        stroke: #18a7aa;
      }

      .cls-16 {
        fill: #fff;
      }

      .cls-17 {
        fill: #49c1ba;
      }
    </style>
  </defs>
  <title>icecream</title>
  <text class="cls-1" transform="translate(186.46 809.16)"><tspan class="cls-2">I</tspan><tspan class="cls-3" x="37.2" y="0">c</tspan><tspan class="cls-4" x="120.6" y="0">e</tspan><tspan class="cls-5" x="203.25" y="0">c</tspan><tspan class="cls-3" x="285.15" y="0">r</tspan><tspan class="cls-4" x="343.5" y="0">e</tspan><tspan class="cls-6" x="426.15" y="0">a</tspan><tspan class="cls-7" x="508.05" y="0">m</tspan></text>
  <text class="cls-8" transform="translate(387.56 899.34)">ไอศกรีม</text>
  <g>
    <path class="cls-9" d="M374,466c-1.31,7.24,15.12,121,17.09,128.19s7.89,29.58,14.47,30.89,66.39-46.67,74.28-53.9,33.52-60.48,33.52-60.48Z"/>
    <path class="cls-10" d="M492.66,517.65c-7.23,2.63-47.32,23-58.5,28.26s-12.49,4.6-23,11.83-9.86,9.21-14.46,5.92-2-12.49-4.6-8.55.66,29.59,2.63,35.5,6.57-.66,26.29-8.54,39.44-15.78,53.91-23,39.44-27.55,38.45-28.24S492.66,517.65,492.66,517.65Z"/>
    <path class="cls-9" d="M526.19,514.36c-7.89,5.92-58.51,33.52-70.34,38.13s-24.32,9.2-37.47,16.43-30.89,12.49-32.21,14.46,21,65.74,22.35,71.65,3.29,20.38,5.92,24.32,6.57,2,23.66-18.4,99.26-121,108.47-131.47S526.19,514.36,526.19,514.36Z"/>
    <path class="cls-11" d="M497.92,340.16c-9.86-2.63-97.94,4.6-105.83,10.52s-30.9,33.52-35.5,52.59,4.6,33.52,0,40.75-11.17,27.61-1.31,33.53,13.15,3.94,13.15,3.94,6.57,27.61,30.23,25.64,25.64-3.95,25.64-3.95,1.31,25,23,27,33.52-2.63,33.52-2.63,19.06,13.14,32.21,7.88c0,0-2.63,17.1,0,25s24.58,21.07,23.79-14.77c0,0,18.94-2.32,17.62-16.12,0,0,31.56,9.86,34.19-14.46S586,494,586,494s21-23.66,17.75-51.93,3.28-31.55-15.78-71S497.92,340.16,497.92,340.16Z"/>
    <path class="cls-12" d="M392.09,359.88s2.63,24.32,17.75,30.9,21.69,20.38,33.52,20.38,12.49-2,27.61,7.23,32.87-4.6,46.67,0,28.27,18.4,46,18.4,28.26-3.94,30.24-10.51,9.86-10.52,0-28.27-64.42-38.13-74.28-38.13S401.29,354,401.29,354Z"/>
    <path class="cls-12" d="M358.57,451.25c-.66,4.61-4.61,17.1,4.6,14.47s13.8-12.49,19.06,0,4.6,21,21,21,23.13-13.94,30-1.71,10.79,19.46,27.22,18.8,16.44-11.17,30.9-3.28,15.12,13.14,28.92,11.17,12.49-10.52,20.38-5.92,13.15,15.78,22.35,6.58,7.89-23,11.17-12.49-4.6,21.69-13.8,21.69-15.12,7.23-19.72,9.86-13.27,14.75-11.89,20.85-3.17,17.51-6.48,7.86.62-23.45-4-26.08-4.79-4.54-13.57-5.88-14.7-4.64-20.61-6-9.2-.66-16.44,0-17.09,4.6-24.32-.66-10.51-12.49-13.8-17.75S423,495.3,415.75,496s-15.77,7.23-26.29,2-13.15-9.86-15.78-13.15-1.31-9.2-5.91-10.52-7.23-6.57-10.52-8.54S358.57,451.25,358.57,451.25Z"/>
    <path class="cls-13" d="M448.62,206.72c-17.09,5.26-58.5,53.25-61.79,74.94s-6.57,33.52-6.57,33.52-17.09,32.21,6.57,48c0,0,2,21,35.5,23.66,0,0,19.72,17.1,35.49,8.55,0,0,32.21,33.52,63.11,9.2,0,0,13.15,21.7,30.9,20.38s31.55-7.23,31.55-13.8c0,0,23-2.63,26.29-13.81s0-15.77,0-15.77,17.09-18.41,20.38-55.88-23-87.43-23-87.43Z"/>
    <path class="cls-14" d="M614.93,273.11c3.29,4.6,16.43,23,3.94,23.67s-13.14-2-20.37,3.28-4.6,23-5.26,30.24-3.29,13.81-15.12,11.83-19.72,0-22.35-8.54-1.32-26.29-6.57-28.92-5.92-7.89-21-7.23S502.52,304,492,294.81,482.8,279,474.92,276.4s-13.15-1.31-27-3.29-21-6.57-25.63-10.51-13.15-9.86,0-24.33,37.47-17.09,63.76-7.23,69,25,86.11,28.27S614.93,273.11,614.93,273.11Z"/>
    <path class="cls-15" d="M639.25,244.85c-1.77-3.76,24.32-42.73,7.23-89.4S595.87,73.94,530.13,73.94s-114.38,43.38-120.29,73a328.85,328.85,0,0,0-5.92,57.19s-20.38,38.13,11.18,40.76c0,0,15.77,38.12,54.56,20.38,0,0,26.95,39.44,64.42,18.4,0,0,16.43,13.15,23.66,16.43s0,17.1,0,21,2.63,20.38,23.67,15.12-2-35.5,4.6-39.44,20.37-5.26,23-8.55,19.72,2.63,26.3-11.83S644.51,256,639.25,244.85Z"/>
    <path class="cls-16" d="M421,185.69C425,166,438.1,131.78,447.31,123.9s17.75-18.41,35.49-19.72,46,3.28,63.11,0,39.44,0,49.3,6.57,23,32.21,28.92,42.07,11.18,29.58,13.81,30.24,5.26-19.07,0-32.87-27-46-39.44-51.27-23-16.44-50-18.41-65.08,5.92-87.43,19.06S423.64,125.87,421,139s-9.2,28.27-9.86,38.79,1.32,15.12,4,17.75S421,185.69,421,185.69Z"/>
    <path class="cls-14" d="M392.09,325.7c6.57,16.43,20.38,18.41,30.24,28.27s5.91,17.09,21,17.09,15.12-9.2,24.32,0,9.86,17.09,27.61,17.75,16.44-11.84,34.19-2,28.26,22.35,37.46,14.47,15.78-19.07,23-13.81,13.81-10.52,14.46-2-15.12,17.75-19.72,18.41-8.54,10.51-19.06,11.83-22.35,5.91-28.27,0-10.51-14.46-15.12-15.12-8.54,2.63-15.11,2.63-2.63,5.26-19.72-.66-17.1-6.57-24.33-10.52-7.23-.65-17.09-2.63-16.43-3.94-21-7.23-2.63,3.29-13.81-5.91-8.54-8.55-13.8-12.49a81.22,81.22,0,0,1-13.15-12.49c-3.28-3.95-8.54-2-5.26-13.81s11.84-19.72,13.15-21.69S392.09,325.7,392.09,325.7Z"/>
    <path class="cls-17" d="M405.24,225.13c9.2,2,20.73-10.58,24.49-5.29s-2.8,21.72,10.35,25,23,3.28,32.21,0,9.86-4.6,16.43,3.94,5.92,13.81,22.35,13.15,21.69-9.86,31.55-2,8.55,11.17,21,9.2,18.4-13.8,27.61-10.52,17.09,9.86,23.66,5.26,11.83-5.26,11.18-11.83-5.26-16.44,1.31-7.89,11.83,12.49,7.23,21-6.2,15.34-15.26,14.57-10.38-7.34-15-.11-25.63,6.57-27.61,13.14a35.09,35.09,0,0,0,1.32,23c3.29,7.89,5.26,16.43-2,13.81s-11.84-5.92-9.21-17.1,5.92-19.72-2-23-24.32-13.81-32.21-11.18-7.23,3.95-19.06,3.29-15.78.66-22.35-4-8.55-4.6-11.83-8.54-3.95-7.89-7.89-8.55-2-.65-13.15.66-11.83,4-20.38-.66-7.23-3.28-13.8-9.86-4.6-12.49-9.2-13.14-10.52-1.32-11.84-5.26S405.24,225.13,405.24,225.13Z"/>
    <path class="cls-10" d="M398.33,594.88c10.52-4.6,40.1-20.37,58.51-25.63s35.5-15.78,45.36-21.69,7.88-5.92,5.91-5.26-34.6,17.71-42.61,21-25.1,9.22-33,12.51-30.58,15-30.58,15Z"/>
    <path class="cls-10" d="M398.33,606.06s48-18.41,57.19-21.69,22.35-8.55,32.21-15.12,14.49-8.06,20.38-11.83-.66,2.63-.66,2.63-5.25,3.28-6.57,3.94-25.64,15.12-25.64,15.12-24.32,7.89-31.55,11.83-35.5,12.49-40.1,15.12S398.33,606.06,398.33,606.06Z"/>
    <path class="cls-10" d="M512.71,564s-28.26,23-35.49,27.61-27,12.49-33.53,17.09-17.75,9.86-23,11.17-15.11,5.26-15.11,5.26,13.8-2.63,21-4.6,19.06-11.83,26.95-15.12,25-11.83,28.27-13.14,22.35-19.73,23.66-19.73,7.23-7.23,7.23-7.23Z"/>
    <path class="cls-10" d="M407.54,579.77s19.06,41.41,20.38,42.72,13.14,25,13.14,25l-28.92-52.59-6.57-15.11Z"/>
    <path class="cls-10" d="M477.22,547.56l21,34.18,1.32-.66S493,566.62,491,564.65s-6.57-10.52-7.89-12.49S475.9,541,477.22,547.56Z"/>
    <path class="cls-10" d="M466.7,551.5l23,42.73-1.32,1.31s-22.35-42.73-23-44S466.7,551.5,466.7,551.5Z"/>
    <path class="cls-10" d="M449,557.42s14.46,30.89,17.75,36.81,7.89,12.49,9.2,13.8a4.07,4.07,0,0,1,1.32,2.63l-.66,1.32s-13.15-19.72-15.12-23.67-6.57-9.2-7.23-13.15-5.92-17.74-5.92-17.74Z"/>
    <path class="cls-10" d="M427.92,566s17.09,28.27,19.72,32.87,5.25,9.86,7.88,13.15,5.26,9.2,7.23,10.51a7.83,7.83,0,0,1,2.63,2.63l-1.31,1.32s-7.23-7.23-9.86-12.49-7.23-14.46-10.52-19.07S433.15,579,432.5,577.41s-5.9-10.79-5.9-10.79Z"/>
    <path class="cls-10" d="M406.22,617.89s11.84,27,15.78,31.55a84.18,84.18,0,0,1,7.89,11.84v1.31s-13.15-19.72-16.44-27-7.23-16.43-7.88-16.43-7.24-16.44-7.24-16.44l2-.65Z"/>
  </g>
  <path class="cls-10" d="M468.4,612.32c-.65-.09-21,12.29-25.45,15.65s-6.59,4.37-12.26,6.89-11.15,3.73-12.64,4.85-7.53,1.59-7.62,2.24l-.18,1.3,15.33-5.13c2.79-.93,14.77-5.87,17-7.55s12.54-8.85,14-10,15.32-9.78,15.32-9.78l-1.95-.28Z"/>
</svg>
