<svg id="Layer_1" data-name="Layer 1" xmlns="http://www.w3.org/2000/svg" viewBox="0 0 1000 1000">
  <defs>
    <style>
      .cls-1 {
        font-size: 150px;
        fill: #ed2024;
        font-family: FreeSansBold, FreeSans;
      }

      .cls-2 {
        letter-spacing: -0.05em;
      }

      .cls-3 {
        letter-spacing: -0.01em;
      }

      .cls-3, .cls-4, .cls-5, .cls-6, .cls-7 {
        fill: #000;
      }

      .cls-4 {
        letter-spacing: 0em;
      }

      .cls-5 {
        letter-spacing: 0em;
      }

      .cls-6 {
        letter-spacing: -0.01em;
      }

      .cls-8 {
        font-size: 72px;
        font-family: MicrosoftSansSerif, Microsoft Sans Serif;
      }

      .cls-9 {
        fill: #75b843;
      }

      .cls-10, .cls-12, .cls-9 {
        stroke: #68a042;
        stroke-miterlimit: 10;
        stroke-width: 3px;
      }

      .cls-10 {
        fill: #c6dd75;
      }

      .cls-11 {
        fill: #588d3f;
      }

      .cls-12 {
        fill: #fff;
      }

      .cls-13 {
        fill: #14140f;
      }
    </style>
  </defs>
  <title>insect</title>
  <text class="cls-1" transform="translate(295.57 807.16)"><tspan class="cls-2">I</tspan><tspan class="cls-3" x="34.2" y="0">n</tspan><tspan class="cls-4" x="123.6" y="0">s</tspan><tspan class="cls-5" x="207" y="0">e</tspan><tspan class="cls-6" x="289.65" y="0">c</tspan><tspan class="cls-7" x="370.8" y="0">t</tspan></text>
  <text class="cls-8" transform="translate(393.6 891.67)">อินเซคท</text>
  <g>
    <path class="cls-9" d="M633.29,494.91s3.63,12.71,12.35,10.89,46.47-27.23,93.67-86.77l4-5.81-2.18-10.17s-38.49,17.79-63.18,37S633.29,494.91,633.29,494.91Z"/>
    <path class="cls-9" d="M801.4,606.74s8.35,0,7.62-5.45-30.13-62.45-41-107.47-21.78-87.14-22.51-90.77-7.26-1.45-6.89,5.45,11.25,48.65,11.25,48.65S785.79,585,801.4,606.74Z"/>
    <path class="cls-9" d="M807.57,601.47s21.24-5.26,33.4,0,18,12.53,17.79,15.25-8.89-6.9-9.44-5.26,1.09,7.62.55,7.62-11.8-9.08-12-8.35,2.72,6.35.18,5.81-11.62-6-12.16-4.9,3.26,8.53,1.81,7.44-16.88-3.81-20.15-6-7.62-4.67-6.9-7.42S807.57,601.47,807.57,601.47Z"/>
    <path class="cls-9" d="M751.66,639.6s18.88-3.64,28-1.64,23.24,6.36,24.15,15.25l-8.9-4.54.91,7.63s-10.89-8.17-12.34-8.17.54,5.81-.19,5.81-10.34-5.09-12-5.27,2.18,8.17,1.64,7.63-11.08-5.09-14.71-5.09-3.27.55-6.53-1.81-4.91-4.36-4.18-6.72S751.66,639.6,751.66,639.6Z"/>
    <path class="cls-9" d="M553.17,453.52s25.18,37,42.12,45,19.61.24,17.19-7.75-19.61-26.38-19.61-26.38l-27.11-20.09Z"/>
    <path class="cls-9" d="M398.2,565.89c-.55-.18-22.33-5.63-27.23-3.81s-14,7.26-14.89,9.26,13.62-2.36,12.53,0-1.09,9.44,0,8.17,7.26-6.54,7.62-6-.76,6.11.89,6.14,8.73-6.51,8.73-6.51,0,7.38.73,6.51,2.36-3.78,5.27-3.6,5.28,1.81,7.9-1.09,4.8-6,2.62-8A3.93,3.93,0,0,0,398.2,565.89Z"/>
    <path class="cls-9" d="M394.93,566.44s3.81,3.08,7.44.54S442,462.59,442,462.59l-3.63-2.54S397.47,551.55,394.93,566.44Z"/>
    <path class="cls-9" d="M510.21,460.05s-65.35-4-69.89-2.9-2.91,5.81-2.18,7.26,55.55,9.62,75,7.08c0,0,8.54-1.27,4.72-12.34Z"/>
    <path class="cls-9" d="M501.13,381.63s1.27,45.2,2.73,56.64,2.17,22.33,6,23.78,9.07,1.8,10.71-5.09,0-43,0-43l-2.73-32.31Z"/>
    <path class="cls-9" d="M503.86,390s3.81,55.37,27,84.41,18.7-8.35,16-16.52a180.9,180.9,0,0,1-4.9-20.24L530.9,420.84Z"/>
    <path class="cls-9" d="M418.44,608.92c-.82-.19-22.24-1.46-30.23,2.72S375,624,374.78,626.34s11.44-4,12.16-4.54.37,5.77,1.64,5.07,8-7.06,8-7.06.5,7,1,7.11,8.72-9.16,8.72-9.16l1.09,7.86S419.8,616,422,614,418.44,608.92,418.44,608.92Z"/>
    <path class="cls-9" d="M471.9,498.18s-8,9.25-18.33,30.13S416.9,608,417.08,610s4.54,5.63,6.9,2.18S474.26,501.9,474.26,501.9Z"/>
    <path class="cls-9" d="M544,481.64s-44.84,8.37-54.47,10.91-20.38,4.09-19.9,8.58,55.14,0,78.9-9.75C548.51,491.38,555.05,480.71,544,481.64Z"/>
    <path class="cls-10" d="M493.51,347.68s-1.8,32.86,21.34,68.8,61.26,52.29,80.5,59.19,86.41,16.56,86.41,16.56l-62.45-67.4L505.85,364.56Z"/>
    <path class="cls-9" d="M497.86,343.32l7.27-6.71s248.7,91.13,285.38,114,33,33.41,23.6,39.94-61.73,8.35-91.86,6.17-113.65-8-183.72-70.8C538.53,425.92,489.15,371.46,497.86,343.32Z"/>
    <path class="cls-9" d="M685.58,442.38s-24.69,9.2-45.51,26.14-29.77,26.15-29.77,26.15l-7,5.08s2.66,10.41,11.13,11.86,15.49-5.32,32-19.12,41.94-41.15,41.94-41.15Z"/>
    <path class="cls-9" d="M683.88,446.26s23.72,97.79,28.32,110.61S737.89,640.77,748,646c0,0,6.63-1.35,5.61-6.75s-26.28-59.86-34.83-90.84-26.36-95.21-27.68-106S679.28,447.71,683.88,446.26Z"/>
    <path class="cls-9" d="M397.05,275.85s-21.3,30-29.53,68.26,4.36,17.19,4.36,17.19,30-30,36.06-44.78,1.94-33.16,1.94-33.16Z"/>
    <path class="cls-11" d="M399.75,296.67s-5,24.14-8.27,30.5-15.25,22.51-15.25,22.51v5.44s24.21-29,25.63-32.49S399.75,296.67,399.75,296.67Z"/>
    <path class="cls-9" d="M238.51,314.82c-6.06.24-31.71,17.19-43.57,38s-27.36,51.8-24.94,80.12S174.6,453,174.6,453l7-39.69s1.94,11.13,3.15,11.37-.24-30.74,2.9-28.8,6.06,20.82,7.27,10.89,4.11-32.43,4.6-29.77,4.59,11.52,4.59,11.52L207,365.89l4.36,8.48L219.14,347l2.91,9s1-19.61,11.86-27.59S238.51,314.82,238.51,314.82Z"/>
    <path class="cls-9" d="M374.54,353.31s1.94-10.65-7.26-14.28-74.07-27.6-96.82-28.57-37.15-3.83-39.94,10.66,19.85,33.88,54,43.08,88.1,6.05,88.1,6.05Z"/>
    <path class="cls-9" d="M279.47,362.75s-5.2,31.71,23,51.8,63.33,28.73,83.42,23.08,15.49-9.77,15.49-9.77l-35.34.73,6.05-6.32H350.33l8-6.51-21.54-1.45,4.84-5.81s-26.87-5.33-26.14-21.55-13-25.17-13-25.17Z"/>
    <path class="cls-11" d="M307.07,357.12c-4.54-.54-37.58-10.35-47.38-15.43s-25.6-15.43-26.15-17.07,2.36,12.22,7.45,15.55,22.46,18,44.11,21.61S307.07,357.12,307.07,357.12Z"/>
    <path class="cls-9" d="M403.1,286s-1.94,58.09,23.24,92,0-101.18,0-101.18l-22,8.47Z"/>
    <path class="cls-11" d="M423.62,321.47c.18,4.79,7.29,31.11,8.18,36s2.7,13.75,2.52,14.69,1.09-23.4,0-31-1.05-10.72-2.52-12S423.62,321.47,423.62,321.47Z"/>
    <path class="cls-9" d="M431.91,374.61c-1.39-1.53-21.06-8.47-42.36-12.83s-59.55-7.69-80.85-7.35-34.85,1.3-28.56,14.37,47.92,34.37,82.05,37.76S422,396.64,428.27,390,436.5,379.69,431.91,374.61Z"/>
    <path class="cls-11" d="M428.52,376.36S418.17,388.16,408,390s-36.49,1.09-61.72-2.72a154.94,154.94,0,0,1-49.2-16.49c-6.53-3.3-15.43-10.56-15.43-10.56s.36,11.25,12,19.06,43.25,23.24,71.1,25.78,54.53-10.17,57.8-12.71,9.62-11.62,9.25-13.25S428.52,376.36,428.52,376.36Z"/>
    <path class="cls-10" d="M383.74,245.59s3.39,37,37.76,71.65S486.13,355,495.32,354.4s-16.21-35.71-16.21-35.71l-55.92-64.14-26.14-17.43Z"/>
    <path class="cls-9" d="M413.27,212c.72,1,17.79,14.39,37.76,55.91s40.18,52.77,47.44,58.58,9.2,15.85,6.29,21.24-9.92,10.35-27.35,0-38.66-19.3-66.16-60.69-8.18-59.06-8.18-59.06Z"/>
    <path class="cls-11" d="M417,225.38s-9.56,25.66-7.26,33.89,18,47.2,32.67,59.18,40.55,31,50.47,32.07,10.89-5.08,10.89-5.08-4.16,7.15-8.71,7.26S460,336,451.26,330.14,422,301.87,415.32,290.25s-14.8-24.93-15.57-30.86a142.89,142.89,0,0,1-.64-15.49Z"/>
    <path class="cls-9" d="M388,183.15s32.32,27.46,32.31,36-17,28.93-23.64,32-13.89,1.67-18.73-7.29a116.88,116.88,0,0,1-8-19.85Z"/>
    <path class="cls-9" d="M369.94,150S396,107.14,431.6,100.42s66.08,9.81,66.08,9.81-51.37-11.44-75.34,2.54-29,18.7-43,44.48S369.94,150,369.94,150Z"/>
    <path class="cls-9" d="M315,141.72s-26.15-42-61.82-48.62-66.25,9.62-66.25,9.62,51.5-11.22,75.53,2.49,29.12,18.35,43.13,43.63S315,141.72,315,141.72Z"/>
    <path class="cls-9" d="M293.69,151.44s12.55-17.22,47-13.07,47,19.84,51.07,30.74,1.44,40.33-8,53.73S346,255.52,340.89,260.12s-10.4,15-16.94,16.7-20.09-3.15-26.63-22.51-7.5-60.51-6.29-72.37S293.69,151.44,293.69,151.44Z"/>
    <path class="cls-11" d="M380.59,209.71s-18.88,26.87-25.6,31-15.25,17.07-15.25,17.07,20.77-15.8,26.87-20.7a89.18,89.18,0,0,0,15.61-16.88c3.09-4.54,4.72-12.81,4.72-12.81Z"/>
    <path class="cls-12" d="M355.42,213.52s-8.23-25.53,3.51-42.6,24.81-19.48,32.92-9.92,7.28,33.9,1,45.5S379,221.63,369.94,221,355.42,213.52,355.42,213.52Z"/>
    <path class="cls-12" d="M289.82,206.14A73.5,73.5,0,0,0,303,175.52c3-17.91.36-28.84-2.18-30.21s-22.39,5.28-24,27.67S289.82,206.14,289.82,206.14Z"/>
    <ellipse class="cls-13" cx="295.57" cy="173.28" rx="6.02" ry="11.42"/>
    <ellipse class="cls-13" cx="381.03" cy="185.39" rx="12.99" ry="6.85" transform="matrix(0.18, -0.98, 0.98, 0.18, 128.53, 525.69)"/>
  </g>
</svg>
