<svg xmlns="http://www.w3.org/2000/svg" viewBox="0 0 1000 1000"><defs><style>.cls-1{fill:#ef1818;stroke:#ad0404;}.cls-1,.cls-4{stroke-miterlimit:10;stroke-width:3px;}.cls-2{fill:#ff3030;}.cls-3{fill:#7e5619;}.cls-4{fill:none;stroke:#74402a;}.cls-5{fill:#ad0404;}</style></defs><title>apple</title><g id="Layer_3" data-name="Layer 3"><path class="cls-1" d="M250.27,231.83s93.84-60.08,245.05-50.63,230.88-5.4,334.84,98.56c0,0,131,168.77-20.25,445.55,0,0-106.66,147.16-155.27,153.91s-99.91-6.75-99.91-6.75-68.86-14.85-98.56-1.35S390,890,369.76,887.32,230.7,790.11,194.24,701s-56.7-126.91-56.7-266C137.54,435,151,294.61,250.27,231.83Z"/><path class="cls-2" d="M827.68,411.12c-5.15-38.38-19.95-74.36-46.54-102.95-12.54-13.47-37.14-13.62-49.64,0-13.25,14.44-13.38,35.27,0,49.65,1.67,1.8,4.44,6.47,6.63,8,.88,1.28,1.75,2.57,2.58,3.89,3.92,6.22,6.87,12.78,10.15,19.33-4.66-9.3.18,1,1.15,3.93q1.75,5.22,3.13,10.55t2.45,10.75c.35,1.83.66,3.66,1,5.5a261.11,261.11,0,0,1-.23,49.93c-.18,1.77-.92,4.4-.75,6.17q-1,6.36-2.17,12.69c-1.68,8.92-3.66,17.78-5.79,26.6-4.3,17.82,5.63,38.88,24.52,43.18,18.06,4.12,38.57-5.42,43.18-24.51C827,493.68,833.22,452.29,827.68,411.12Z"/><path class="cls-2" d="M787.81,611.69c-.85-19-15.43-35.1-35.11-35.1-18.36,0-36,16.14-35.1,35.1s15.42,35.1,35.1,35.1C771.07,646.79,788.66,630.65,787.81,611.69Z"/></g><g id="Layer_4" data-name="Layer 4"><path class="cls-2" d="M406.89,231.83s53.48,42,168.09,0"/><path class="cls-3" d="M495.68,165.61v0h0c0-.36-.09-.72-.14-1.08a3.5,3.5,0,0,0-.58-1.58,10.23,10.23,0,0,0,.85-6.42C494,145.17,491,134,489.38,122.57a3.65,3.65,0,0,0-2.54-2.72c1.65-2.35.62-6.54-3.14-6.54a4,4,0,0,0-1.68.34c-4.61-1.63-9.66,0-14.13,1.48a3.87,3.87,0,0,0-2.79,3.48c-1.17.16-2.33.31-3.46.5a3.27,3.27,0,0,0-2.91,3.58,4.16,4.16,0,0,0-1.34,2.67c-.54,4.79.58,9.59,4.53,11.25a7.91,7.91,0,0,0,1.22,2.15c2.73,3.35,7,3.73,9.21,8.29,2,4.3,4,9.4,5.69,13.88.8,2.11,1.37,3.69,2.61,4.76,1.57,7,2.72,13.78,2,21a110.5,110.5,0,0,0-.51,17.45c.33,6,.72,12.1,1.08,18.14.41,6.92,1.69,14.35,0,21.16a4.11,4.11,0,0,0,3.9,5.13l12.53.56a4.08,4.08,0,0,0,4.05-4.06C501.62,218.52,499.22,192,495.68,165.61Z"/><path class="cls-4" d="M487.59,115.42s-8.37-9-31.5,7.48C456.09,122.9,473.94,136.23,487.59,115.42Z"/><path class="cls-4" d="M504.27,249.92s-10.2-119.07-16.68-134.5"/><path class="cls-4" d="M482.5,248c.91-1.46,4.42-97.29-13-106.55-18-9.56-1.73-.79-1.73-.79l-9.47-4.32-2.18-13.47"/><path class="cls-5" d="M575.58,229.49c-26.16,11.94-55.38,17.36-84.72,17.66A296,296,0,0,1,445,243.92c-12.89-1.89-28.16-3.46-37.72-12.16-3-2.75-7.8,1.46-4.77,4.22,9.55,8.69,23.42,11,36.39,13a314.49,314.49,0,0,0,49.83,4.13c31.27,0,62.44-5.77,90.31-18.5C582.84,232.87,579.44,227.73,575.58,229.49Z"/></g></svg>