<svg xmlns="http://www.w3.org/2000/svg" viewBox="0 0 1000 1000"><defs><style>.cls-1{fill:#adc85d;}.cls-1,.cls-2,.cls-5{stroke:#228b22;stroke-miterlimit:10;}.cls-1,.cls-2{stroke-width:3px;}.cls-2{fill:none;}.cls-3{fill:#fefdfb;}.cls-4,.cls-5{fill:#90ae3e;}.cls-5{stroke-width:4px;}.cls-6{fill:#228b22;}</style></defs><title>coco</title><g id="ลูก"><path class="cls-1" d="M445.71,204.88S567,187.55,666.05,213.55,813.36,323.72,827,362.09,879,523,840.6,646.81,677.19,877.06,677.19,877.06s-48.27,50.75-99,38.37L515,917.91s-48.28,14.85-101.51-6.19S260,780.5,227.84,739.65s-43.33-101.5-43.33-101.5-27.23-101.51,6.19-200.54S281.07,230.88,445.71,204.88Z"/><path class="cls-2" d="M637.58,332.38s142.36,163.41,17.33,456.79"/><path class="cls-3" d="M373.29,307s-100,227.77-8.69,411C364.6,718,183.53,471.65,373.29,307Z"/><path class="cls-4" d="M399.29,799.69s-61.9-177,60.65-205.49,222.82,34.66,182,172.07S758.28,666,758.28,666s56.94-69.32,58.18-13.62-123.15,202.2-123.15,202.2l-89.77,42.9-168.36-8.66L341.1,830.64S211.12,730.37,213.6,671s42.09-60.66,42.09-60.66,50.75,6.19,73,89.13S399.29,799.69,399.29,799.69Z"/></g><g id="Layer_3" data-name="Layer 3"><path class="cls-5" d="M463,261.82s24.75-3.71,32.18,8.67,32.19,3.71,32.19,3.71,1.24-12.38,18.57,0,17.33-7.42,17.33-7.42,1.23-8.67,27.23-2.48,8.67-19.81,5-22.28-24.76-9.9-37.14-12.38-61.89-6.19-81.7-3.71-22.28,14.85-22.28,14.85-6.19,7.43-22.28,6.19-8.67,11.14-2.48,11.14S433.33,281.63,463,261.82Z"/><path class="cls-2" d="M424.33,255.41s-39,31.88,17.82,14.2c0,0,9.75,12,53.07.88"/><path class="cls-4" d="M592.24,247.37c-.32-.35-.66-.34-1-.53s-.61-.45-1-.63-.75-.18-1.1-.34a8.57,8.57,0,0,0-1-.49c-1.47-.53-2.88-1.41-4.31-2.06a32,32,0,0,0-4.35-1.83c-1.53-.42-3.08-.77-4.61-1.21s-2.88-1-4.36-1.44-3.07-1.29-4.66-1.82c-.4-.13-.87-.4-1.27-.5s-.94,0-1.41-.09c-.87-.18-1.73-.49-2.6-.68-1.79-.39-3.6-.44-5.38-.78-3.24-.62-6.42-1.46-9.64-2.19-1.53-.34-3-.68-4.59-1a12.25,12.25,0,0,0-2.48-.42,6.59,6.59,0,0,1-1.27-.19c-.47-.08-.93,0-1.4-.11-1-.19-1.94,0-2.9-.24a12.54,12.54,0,0,0-2.67-.19c-.85,0-1.58-.18-2.41-.25s-2,0-2.92,0H520c-1,0-1.89-.2-2.86-.26s-1.94,0-2.9,0a35.7,35.7,0,0,1-5.76-.06c-1.86-.31-3.75,0-5.64-.17-.42,0-.76-.23-1.18-.27s-1,0-1.47,0h-2.91c-1,0-1.91-.25-2.9-.25s-1.94,0-2.91,0-1.93.07-2.87,0a22.15,22.15,0,0,0-2.22-.25h-2.9c-.48,0-1,0-1.47,0s-.77-.23-1.18-.27c-1.91-.16-3.91,0-5.83,0a4.84,4.84,0,0,0-2.35.48c-.67.3-1.37.54-2.06.79-1.49.53-3.07.74-4.55,1.33s-2,1.74-2.91,2.72c-.51.53-.94,1.14-1.44,1.69s-1.12,1.13-1.7,1.71a23,23,0,0,0-2.92,3.62c-.39.59-.6,1.34-1,1.95a4.81,4.81,0,0,1-1.38,1.69,12,12,0,0,1-4.17,1.88c-3.18.85-6.27,1.93-9.5,2.54a31.71,31.71,0,0,1-5.77.18h-2.9a11.47,11.47,0,0,0-2.87,0,1.68,1.68,0,0,0-1.29,1.66c0,.77.8,1.18,1.25,1.74a14.51,14.51,0,0,0,1.39,1.64,17.41,17.41,0,0,0,1.52,1.2,11.34,11.34,0,0,1,1.69,1.77c.58.69,1.26,1.26,1.88,1.94,1.11,1.21,2.1,2.47,3.26,3.62a20.74,20.74,0,0,0,3.59,2.8c.57.35,1.1.74,1.68,1.08.82.47,1.23,1,2.19.74a22.74,22.74,0,0,0,2.11-.86,10.55,10.55,0,0,0,2.07-.9c1.18-.78,2-1.79,3.13-2.67a16.43,16.43,0,0,1,3.77-2.49c.67-.28,1.33-.6,2-.9s1.46-.5,2.18-.78c3.4-1.32,7.27-.92,10.9-.92h5.82a12.44,12.44,0,0,1,1.93,0,14.73,14.73,0,0,1,2,.68,43.64,43.64,0,0,1,8.36,3.69c.68.4,1.33.73,2,1.16s1.15.7,1.69,1.08c1.19.81,2.24,1.76,3.4,2.61a27.7,27.7,0,0,0,3.82,2.61,51.43,51.43,0,0,0,4.83,2.05,20.7,20.7,0,0,0,7.89.86c.77-.16,1.52-.55,2.29-.75,3.18-.81,6.42-1.27,9-3.38a14.69,14.69,0,0,1,1.64-1.41,8.26,8.26,0,0,1,2.23-.89,17.48,17.48,0,0,1,2.66-.56c1-.08,2,0,2.92,0a10.48,10.48,0,0,1,2.49.43,11.45,11.45,0,0,1,2.3.6c.66.31,1.3.63,2,.91a12.87,12.87,0,0,1,1.88,1.22,28.18,28.18,0,0,0,8.23,3.87c.85.18,1.7.28,2.54.43a3.21,3.21,0,0,0,2.38-.42c1.34-1,1.59-2.52,2.22-3.94a38.2,38.2,0,0,1,1.76-4.31,12.54,12.54,0,0,1,2.85-3.64,10.64,10.64,0,0,1,2.19-1.15,6,6,0,0,1,2.59-.29c1.94,0,3.88,0,5.82,0,1.63,0,3.29.65,4.89.92s3.52.52,5.28.84a13.3,13.3,0,0,0,2.66.43c.93,0,1.75.26,2.66.24s1.75.26,2.66.25,2,.08,2.93,0a8.12,8.12,0,0,0,3.86-1.76,3.21,3.21,0,0,0,1.28-1.69,5.2,5.2,0,0,0,.13-2.82c-.12-.32-.38-.6-.51-.94a4.3,4.3,0,0,0-.4-1.05,15.3,15.3,0,0,0-1.52-1.49c-1.13-1.15-2.56-2-3.76-3.09-.68-.59-1.24-1.34-1.87-2-.47-.45-1.08-.86-1.58-1.26-1.23-1-2.33-2-3.64-2.85a15.79,15.79,0,0,0-4.41-1.87c-.93-.27-1.88-.31-2.8-.6-.36-.12-.71-.29-1.07-.38s-.83,0-1.16-.29"/><path class="cls-4" d="M594.42,260.21a5.46,5.46,0,0,1,.53-1.39,10.33,10.33,0,0,0,.88-1.76,7.23,7.23,0,0,0-.2-3.7,6.34,6.34,0,0,0-1.46-2.11,14.59,14.59,0,0,0-2.12-2.19c-1.53-1.07-3.11-2.06-4.66-3.09-.44-.29-1-.48-1.41-.78a9,9,0,0,0-1.5-1,11.28,11.28,0,0,1-1.64-.71c-.37-.23-.79-.71-1.26-.73"/><path class="cls-4" d="M588.36,245.44c.54,0,1.59,1,1.88,1.44a12,12,0,0,1,1.09,2.25,19.13,19.13,0,0,1,.85,2.17,14.46,14.46,0,0,1,.3,3.35c0,1.61-1.83,3-3.39,3.14a22.63,22.63,0,0,0-2.91.48,16.19,16.19,0,0,1-2.66.73"/><path class="cls-4" d="M580.61,241.8c1.07-.18,2.14.86,2.91,1.44a9.19,9.19,0,0,1,2.36,2.87A9.76,9.76,0,0,1,587.4,250a10.19,10.19,0,0,1-.55,4.32c-.85,2.23-3.27,3.29-5.37,4a24.78,24.78,0,0,1-8.62,1.08"/><path class="cls-6" d="M518.33,244c-6.11-1.77-13.65-3.51-20-2.43-5.23.88-9.33,5.75-4.18,9.94,5.4,4.4,13.8,6.43,20.51,7.53a58.65,58.65,0,0,0,9.37.55c2.56,0,5.85.54,7.86-1.49,9.7-9.83-24.95-16.86-29.51-17.26-4.85-.43-15.45-.54-15.37,6.79.06,5.78,10,8.76,14.35,9.59a112,112,0,0,0,24,1.92c4.26-.15,8.47-1.24,12.6-2.19,3.89-.89,7.91-.78,11.76-1.66,3.25-.75,3-4.72.84-6.4-2-1.56-5.6-2.07-8-2.79-3.94-1.17-7.86-1.92-11.86-2.76-6.62-1.4-13.17-3.38-19.88-4.32a102.84,102.84,0,0,0-20.66-1.2c-4.25.28-15.68.57-18.11,5a3.46,3.46,0,0,0,0,3.53c2.83,3.66,9.14,4.74,13.44,5.47,6.49,1.11,12.9,2.54,19.37,3.77,4.4.84,6.29-5.9,1.86-6.75-5.26-1-10.48-2.34-15.76-3.18-2.29-.36-4.61-.65-6.86-1.23-.64-.17-5.71-1.23-6-1.61v3.53c-.07.12,7-.78,7.66-.88a62.52,62.52,0,0,1,12.31-.52,101.66,101.66,0,0,1,14.76,1.57c5.85,1.14,11.6,2.81,17.46,3.93,3.22.62,6.36,1.22,9.52,2.13,2,.57,5.58,1.1,7.22,2.36l.83-6.4c-3.32.76-6.87.64-10.23,1.32-3.84.77-7.57,1.93-11.49,2.26-6.69.57-14.42-.43-21.1-1.39-1.49-.21-10-1.58-10.34-3.59.18,1.05,8.12.73,9.87,1a78.93,78.93,0,0,1,12.57,3.16c1.79.6,8.88,2.35,9.25,4.51l.35-2.69c.46-.94-4.51-.51-5.72-.59a49.06,49.06,0,0,1-7.24-.81,70.32,70.32,0,0,1-8.2-2.33c-1.26-.44-6.66-1.82-7.09-3.25l-.35,2.7c1.27-2.47,15.39,1,18.35,1.91,4.33,1.25,6.18-5.5,1.86-6.75Z"/></g><g id="Layer_4" data-name="Layer 4"><path class="cls-5" d="M512.55,251.92S579.4,138,632.63,114.51c0,0-9.9,32.19,9.9,38.38,0,0-44.56,23.52-54.47,37.14s-56.94,53.23-64.37,61.89S512.55,251.92,512.55,251.92Z"/><path class="cls-5" d="M513.79,251.92s-7.43,3.72-18.57,0S432.09,182.6,372.67,136.8s-60.66-65.61-78-75.51-37.13-33.43-26-29.71,56.94,29.71,74.27,52,95.32,91.6,113.89,101.5C456.85,185.07,505.13,228.4,513.79,251.92Z"/><path class="cls-5" d="M632.63,114.51s13.62,21,9.9,38.38"/><path class="cls-6" d="M301.35,50.13a10.69,10.69,0,0,1-2.29,1.45c-.83.42-1.46,1.07-2.25,1.55a1.5,1.5,0,0,0,1.51,2.59c.88-.53,1.6-1.21,2.52-1.68a13,13,0,0,0,2.63-1.79c1.47-1.25-.67-3.37-2.12-2.12Z"/><path class="cls-6" d="M322.8,64.11c-1.07.61-2.3,1.13-3.42,1.68-.61.3-1.21.62-1.81.95a6.28,6.28,0,0,1-1.6.88c-1.9.2-1.92,3.2,0,3,1.49-.16,2.71-1.11,4-1.79s3-1.34,4.34-2.13a1.5,1.5,0,0,0-1.52-2.59Z"/><path class="cls-6" d="M318.47,86.55c1.95-.43,3.77-1.41,5.76-1.85s4.14-.84,6.19-1.38a1.5,1.5,0,0,0-.8-2.89c-2,.53-4.12.93-6.19,1.38s-3.81,1.42-5.76,1.84-1.09,3.31.8,2.9Z"/><path class="cls-6" d="M348.9,115.37c.81-2,2.6-3.56,4.23-5,1.13-1,3-2.45,2-4.13-.82-1.43-2.89-1.25-4.19-.69-2.21.94-4.06,2.65-6.2,3.72-1.73.86-.21,3.45,1.51,2.59,1.53-.77,3-1.79,4.47-2.69.54-.33,1.37-.64,1.84-1l.36,0c-.05-1.18-.26-1.54-.64-1.08-.14,0-.59.54-.69.63-2.26,2-4.45,3.93-5.6,6.83-.71,1.8,2.19,2.58,2.89.8Z"/><path class="cls-6" d="M323.18,90.27c1.59-.69,2.77-2.06,4.31-2.86,1.15-.59,2.56-1.29,3.1-2.55.34-.77.17-2-.89-2.2-1.68-.24-3.09.91-4.69,1.34a19.16,19.16,0,0,0-2.32.78,28.83,28.83,0,0,0-2.8,1c-1.69.93-.18,3.52,1.52,2.59.62-.33,1.44-.4,2.1-.67a17.07,17.07,0,0,1,2.29-.76,22.83,22.83,0,0,0,3.85-1.56l-1.16.15.41.06-.9-2.2c-.46,1.05-2.05,1.43-2.94,2a25.73,25.73,0,0,1-3.39,2.32c-1.76.77-.24,3.36,1.51,2.59Z"/><path class="cls-6" d="M327.27,68.42c-3.82,0-7.79.9-11.59.47l1.45,1.1c-.41,1-.31,1.22.29.81.3-.11.59-.21.89-.3s.77-.23,1.16-.32a17.2,17.2,0,0,1,4.41-.37c1.93,0,1.93-3,0-3-2.09-.06-10.45.19-9.65,4a1.56,1.56,0,0,0,1.45,1.1c3.82.44,7.77-.46,11.59-.47a1.5,1.5,0,0,0,0-3Z"/><path class="cls-6" d="M328.36,82.36c0-.13-.35.26-.47.36-.35.26-.73.46-1.08.72a22,22,0,0,0-2.86,2c-1.38,1.36.74,3.48,2.12,2.13,1.54-1.52,5.43-2.58,5.29-5.26-.1-1.92-3.11-1.94-3,0Z"/><path class="cls-6" d="M306.85,52.65c-1.55.22-3,1-4.61,1.19-.7.08-1.4,0-2.1.07-.27,0-1.27.35-1.54.2l.69.89c.24.63-.38.58.3.32.46-.17.78-.61,1.37-.71a13.91,13.91,0,0,1,2.58,0c1.93,0,1.93-3,0-3s-4.1-.24-5.75,1.22c-1.05.94-2.3,2.5-.85,3.73,1.1.94,3.06.35,4.34.31,2.24-.07,4.2-1,6.37-1.34,1.9-.27,1.09-3.16-.8-2.9Z"/><path class="cls-6" d="M374.26,115.57c-1.38.05-2,1-2.8,2a25.36,25.36,0,0,1-3.09,2.86c-1,.92-2.2,2.57-1.31,4,.71,1.1,2.13,1.09,3.25.81a18.19,18.19,0,0,0,4.05-1.83,5.19,5.19,0,0,0,2.47-2.51c1.05-2.92-3.36-2.94-4.94-2a1.5,1.5,0,0,0,1.51,2.59,1.93,1.93,0,0,1,.79-.13l.37,0c.43,0,.38,0-.16-.15l-.44-1.06c0-.3.22-.31,0-.13s-.25.32-.39.44a8.46,8.46,0,0,1-1.7.92c-.49.23-2.2,1.4-2.7,1l.69.89c-.11-.25,2.7-2.25,3.07-2.68s.68-.82,1-1.24a4.1,4.1,0,0,0,.35-.47c.24-.37.48-.28,0-.27,1.92-.06,1.93-3.06,0-3Z"/><path class="cls-6" d="M382.58,144.61c.95-1.17,2.05-2.31,3.11-3.38.52-.53,1-1.1,1.56-1.61.34-.32,1.88-1.68,2.4-1.69l-1.06-.44.08.1-.38-1.46c-.16.73-1.32,1.45-1.81,2-.78.79-1.53,1.62-2.36,2.36s-2.87,1.86-2.35,3.41a1.57,1.57,0,0,0,1.45,1.1c1.35.12,2.48-.93,3.37-1.79a8.43,8.43,0,0,0,2.84-4.38c.36-1.88-2.53-2.69-2.89-.79a5.18,5.18,0,0,1-1.82,2.81c-.35.34-1,1.2-1.5,1.15l1.44,1.1c-.26.9-.21,1.13.16.69.16-.15.33-.29.5-.43s.59-.45.87-.7c.85-.75,1.62-1.6,2.41-2.41,1-1,3.34-2.76,2.43-4.43-2-3.67-9.33,5.18-10.57,6.72s.91,3.63,2.12,2.12Z"/><path class="cls-6" d="M411.61,151.3a6.64,6.64,0,0,0-1.85,2.09c-.74,1-1.46,2-2.29,3-1.12,1.33-3,3.33-1.8,5.22s3.75.46,4.89-.7c.95-.95,1.59-2.16,2.52-3.15a9.21,9.21,0,0,0,2-3c.67-1.82-2.23-2.6-2.89-.8-.44,1.19-1.79,2.05-2.54,3a14.68,14.68,0,0,1-1.23,1.77c-.31.31-1.15.52-.71.77l.69.89c-.33-.78,2-2.78,2.47-3.41.65-.84,1.31-2.58,2.23-3.13a1.5,1.5,0,0,0-1.51-2.59Z"/><path class="cls-6" d="M433.91,190.21c2.18-.62,10.37-8.31,6.84-10.42-1.61-1-4.5-.11-5.86.91-1.71,1.29-4.21,3-5,5.07-.45,1.2.85,2,1.85,1.85s2.07-1.17,3-1.7,1.81-1.62,2.88-2c1.8-.65,1-3.55-.8-2.89a11.84,11.84,0,0,0-2.88,1.84c-.57.41-1.21.66-1.8,1-.39.27-.72.74-1.21.81l1.85,1.85c.14-.38.89-.87,1.19-1.16.56-.54,1.17-1,1.76-1.47a6,6,0,0,1,1.73-1.28,4.54,4.54,0,0,1,1.87-.21l-.75-1.3c0,.31-.59,1.1-.75,1.36a25.37,25.37,0,0,1-1.76,2.26c-.71.87-1.85,2.23-3,2.55a1.5,1.5,0,0,0,.79,2.89Z"/><path class="cls-6" d="M458.45,187.38a78.05,78.05,0,0,0-6,7c-.85,1.21-1.61,2.47-2.52,3.63a18.29,18.29,0,0,0-2.48,3.27,1.52,1.52,0,0,0,1.3,2.26c2.16.09,4.06-2.3,5.11-3.93,1.66-2.56,3.08-5.66,5.07-8h-2.12c1.43,1.74-1.53,4.2-2.51,5.36-1.7,2-3.51,3.91-5.24,5.89-1.27,1.44.84,3.57,2.12,2.12,2.63-3,5.48-5.86,7.9-9a5.39,5.39,0,0,0-.15-6.45,1.5,1.5,0,0,0-2.12,0,39.37,39.37,0,0,0-3.15,5.07c-.78,1.26-3.43,6-4.91,5.95l1.29,2.26c1-2.16,3.19-4.09,4.53-6.1a66.38,66.38,0,0,1,6-7.19c1.27-1.45-.84-3.58-2.12-2.12Z"/><path class="cls-6" d="M463.17,220.41c2-1.36,3.23-3.46,4.58-5.38,1-1.41,3.6-3.25,3.48-5.13a1.51,1.51,0,0,0-.74-1.3c-1.57-.74-3.64.73-5.13,1.26a15.75,15.75,0,0,0-6.27,4.29c-1.15,1.33-1,3.27,1.09,3.37a7.17,7.17,0,0,0,5.15-2.65c1.14-1.56-1.46-3.06-2.59-1.52-.23.31-.85.45-1.2.61s-1.6.4-1,.67l.69.9,0-.2-.15,1.16a11.2,11.2,0,0,1,4.7-3.6,31.29,31.29,0,0,1,4.17-1.63l-1.15-.15.17.09-.74-1.3c0,.16-1.16,1.14-1.33,1.33a22.49,22.49,0,0,0-1.58,2.06c-1.08,1.51-2.1,3.45-3.66,4.53s-.08,3.7,1.51,2.59Z"/><path class="cls-6" d="M484.77,215.47c-1.12,1.44-2,3-3.14,4.43-.86,1.16-2,3-.24,4,1.58.9,3-.53,4-1.58s2.17-2,2.29-3.58c.16-1.92-2.85-1.91-3,0,0-.24-.33.36-.39.44-.23.27-.51.51-.77.76s-.53.61-.82.89a2,2,0,0,1-.37.34c.59,1.3,1.08,1.57,1.46.81a9.74,9.74,0,0,0,1.6-2.17,24.37,24.37,0,0,1,1.53-2.27,1.55,1.55,0,0,0,0-2.12,1.52,1.52,0,0,0-2.12,0Z"/><path class="cls-6" d="M568.09,171.42c.73.77,1.25,1.67,2,2.42,1,.92,2,1.73,3,2.65a21.92,21.92,0,0,1,4.75,5.84,1.51,1.51,0,0,0,2.8-.76c-.12-2.34-2-3.55-3.62-4.9a45.58,45.58,0,0,0-6.84-4.7c-1.7-.94-3.21,1.65-1.52,2.59a36.45,36.45,0,0,1,5.5,3.61c.91.75,3.41,2.11,3.48,3.4l2.79-.75a23,23,0,0,0-4.7-6c-1-.93-2-1.77-3-2.66s-1.66-2-2.56-2.91c-1.34-1.4-3.45.72-2.12,2.13Z"/><path class="cls-6" d="M600.58,138.06c.14,2.55,2.32,4.84,3.74,6.82,2.32,3.22,5.81,6.45,6.45,10.62l2.51-1.46c-2.06-2-3-4.61-5.37-6.52-2-1.65-5.6-4.3-5.62-7.2a1.5,1.5,0,0,0-3,0c0,2.88,2.22,5.49,4.23,7.39,1.56,1.49,3.43,2.62,4.77,4.33,1,1.33,1.67,2.93,2.87,4.12a1.51,1.51,0,0,0,2.5-1.46c-.49-3.16-2.84-6.65-4.73-9.15-1.36-1.79-5.22-5.16-5.35-7.49-.1-1.92-3.1-1.93-3,0Z"/><path class="cls-6" d="M601.92,177.06c-.69-2.8-3.07-4.62-5.25-6.31-.95-.74-1.79-1.47-2.67-2.29a2.86,2.86,0,0,0-2.62-1.07,1.52,1.52,0,0,0-1.1,1.45,3,3,0,0,0,1.05,2.32c.63.65,1.13,1.43,1.79,2,.42.39,1,.62,1.39,1a12.53,12.53,0,0,1,1.09,1.6c.7,1,1.4,2.07,2.2,3,1.24,1.48,3.35-.65,2.12-2.12s-2-3.45-3.48-4.77a11.34,11.34,0,0,1-1.81-1.65,17.13,17.13,0,0,1-1.35-1.46l-1.1,1.44c-.8.15-.51.08,0,.58.24.24.46.51.71.74.76.68,1.64,1.21,2.42,1.87,1.48,1.24,3.25,2.42,3.73,4.39s3.36,1.08,2.9-.8Z"/><path class="cls-6" d="M559.67,216.86c-.29-2.92-3.07-4.75-5.65-5.5a33,33,0,0,1-5-1.57c-1-.46-2.17-1-3.21-.46-2.24,1.26-.17,3.58,1.11,4.54,2.66,2,5.3,3.22,6.76,6.49a1.54,1.54,0,0,0,2.06.54c2-1.11,2-3.65,2-5.66a1.5,1.5,0,0,0-3,0c0,.71.24,2.67-.48,3.06l2,.54c-1.48-3.3-4.67-6-7.88-7.59-.68-.35-.3-1-1,.19-.58,1-.26.77.55,1.16a13.94,13.94,0,0,0,2.07.87c1.69.51,6.37.87,6.62,3.39.18,1.9,3.18,1.92,3,0Z"/><path class="cls-6" d="M631.63,122a84.12,84.12,0,0,1,5.1,13c1.15,4,1.45,8.18,2.65,12.17l2.74-1.16c-3.73-7-7.35-13.87-8.49-21.86-.23-1.65-3.14-1.28-2.94.4a58.24,58.24,0,0,0,4.87,17.17c.47,1,3.09,5.87,3.15,3.28,0-1.45-2.64-5.89-3.51-7.3l-2.36,1.82c3.28,2.77,5.41,7,7.38,10.71l2.35-1.82c-2.78-2.56-4.07-8.14-5.54-11.43-.76-1.69-1.56-2.94-3.38-3.5a1.5,1.5,0,0,0-1.69.69c-1.14,2.09.7,4.91,1.8,6.76a1.52,1.52,0,0,0,2.8-.76c.68-5.47-3.55-10.2-2.7-15.94.41-2.77.35-6.16,1-8.81l.89-2.09c.19-.87.36-.95.52-.25.39,0,2,3.8,1.93,3.63,2.29,5.09,3,10,4,15.39.51,2.71,1,5.43,1.51,8.14.37,1.92,2.73,9.23,1.57,10.72l2.06-.54c-3.19-2.34-2.67-7.23-3.08-10.72a79.26,79.26,0,0,0-2-10.47c-1.41-5.6-3.82-10.88-5.27-16.42a1.5,1.5,0,0,0-2.9.79c2,7.49,5.22,14.42,6.57,22.11,1,5.79-.2,13.34,5.17,17.31a1.54,1.54,0,0,0,2-.54c1.65-2.14,0-6.08-.45-8.39-.85-4.25-1.53-8.53-2.32-12.79-1.23-6.55-1.87-15.36-7-20.43-3.84-3.82-6.14,2.27-6.48,5.54-.4,3.84-1.4,8.12-1,12s3.29,7.84,2.8,11.75l2.79-.76c-.25-.41-2-3.29-1.8-3.73l-1.7.69c1.43.45,3.69,7.11,4.28,8.38.85,1.86,1.79,4.38,3.32,5.78a1.51,1.51,0,0,0,2.36-1.81c-2.11-4-4.33-8.35-7.85-11.32-1.23-1-3.31.28-2.35,1.81.65,1.05,5.53,14.16,8.16,8.26,1-2.14-1.71-5.24-2.52-7.05a57.78,57.78,0,0,1-4.56-15.87l-3,.4c1.18,8.29,4.92,15.32,8.79,22.57a1.5,1.5,0,0,0,2.74-1.15c-1.37-4.55-1.69-9.29-3.16-13.83a89.25,89.25,0,0,0-4.89-12.1c-.86-1.73-3.45-.21-2.59,1.52Z"/></g></svg>