<svg xmlns="http://www.w3.org/2000/svg" viewBox="0 0 1000 1000"><defs><style>.cls-1{fill:#457d3c;}.cls-1,.cls-2{stroke:#2c6530;stroke-miterlimit:10;stroke-width:3px;}.cls-2{fill:#def1b1;}.cls-3{fill:#e7f5c4;}.cls-4{fill:#a3c781;}.cls-5{fill:#cbdf98;}</style></defs><title>cucumber</title><g id="Layer_2" data-name="Layer 2"><path class="cls-1" d="M400.91,363.63S595.5,288.5,611.5,283.5s116-30,151-31,59-16,106,6,60,48,65,57-2,79-28,111-36,48-72,69-50,35-71,44-82,43-126,56c0,0-126.14,53-137.07,54s-114.93-173-114.93-173Z"/><path id="หน้า" class="cls-2" d="M352.5,502.5s-22-104,40-135,99,5,99,5,52,28,76,98-8,137-8,137-40,56-87,40-83-63-83-63S355.5,528.5,352.5,502.5Z"/><path class="cls-3" d="M517,458c-6-11-6-28-29-42s-72-4-72-4-12,7-21,13-16,52-17,63,15,42,17,49,57,29,63,30,21-1,31-3,24-35,28-47S523,469,517,458Z"/><path class="cls-4" d="M485.5,337.5c1,2,101-39,139-47s102-25,129-24,51-12,75-9,51,13,58,20,36,42,36,46,7,33,0,47-16,51-26,59-52,53-63,56-74,44-87,48-65,35-87,41-36,11-50,18-33,12-33,12,182-88,203-102,91-65,100-78,16-42,14-44-15,2-27,7-51,20-63,31-42,20-66,30-45,32-60,39-28,1-51,0,53-4,66-23,82-49,98-53,42-28,56-40,30-25,35-34-4-27-10-34-12-14-25-14-33,14-50,14-82-4-101,7-52-6-91,14-71,15-89,19-48,1-53,2S485.5,337.5,485.5,337.5Z"/><path class="cls-4" d="M576,401s43-26,68-28-1-3,32-9,54-12,63-19-30,26-41,28-35,10-55,14-71,12-71,12Z"/></g><g id="ชิ้น2"><path class="cls-1" d="M93.5,550.5s-7,77-3,84,24,33,48,40,39,20,70,22,48-3,48-3l34-29-46-92-122-22Z"/><path class="cls-4" d="M192,693s-5-10-3-14,3-6,2-12a40.49,40.49,0,0,1,1-16c1-4-3-7,3-10s14,9,17,13,8,14,6,21-2,13-3,17S192,693,192,693Z"/><path class="cls-4" d="M103,597s-5,7-5,8v8c0,9,3,10,1,16s0,10-1,11,0,3,0,3l12,13s7-9,5-14-1-9,0-14,6-17,6-17Z"/><path class="cls-2" d="M255.5,649.5s-43,4-62,0-88-33-93-48-14-57,4-75,37-40,87-54,114,8,114,8,48,21,66,44,10,59,3,68-62,44-80,48S255.5,649.5,255.5,649.5Z"/><path class="cls-3" d="M257,503s-33-7-56,0-35,30-34,37,2,43,15,51,27,16,44,17,32-2,37-4,40-40,31-59S264,504,257,503Z"/></g><g id="ชิ้นเเรก"><path id="ฐานชิ้นเเรก" class="cls-1" d="M277.87,581.19S251.5,636.5,248.5,646.5s-1,68,9,89,30,52,61,69,77,25,102,24,69-9,78-15,37.39-40.69,37.39-40.69L522.5,710.5l-210-124Z"/><path class="cls-4" d="M303,793s-5-12-2-16,4-2,3-10,0-10,0-15,28,7,28,7,4,23-2,28-12.65,16.94-13.33,16.47S303,793,303,793Z"/><path class="cls-4" d="M419,801s-4,7-3,11,2,5,0,8a14.33,14.33,0,0,0-2,7s14,1,17,0,4-8,7-13,1-9,4-11,5-7,5-7l-27-3Z"/><path id="หน้าชิ้นเเรก" class="cls-2" d="M333.5,544.5c-2-.33-33,6-45,18s-39,84-18,147,127,89,127,89,48,10,124-13c0,0,38-25,38-69,0,0,1-60-12-76s-35-50-68-62-42-27-77-31c0,0-26-13-47-12C355.5,535.5,339.5,545.5,333.5,544.5Z"/><path class="cls-3" d="M379,594s-41,15-36,41-4,55,28,75,71,31,87,27,37.74-31,38.87-42.5-2.22-48.86-11.05-59.18S455,601,443,600,403,590,379,594Z"/></g><g id="Layer_5" data-name="Layer 5"><path class="cls-5" d="M448.5,485.5l-20-60s36-25,53,18Z"/><path class="cls-5" d="M454.5,490.5l32-42s34,19,20,46Z"/><path class="cls-5" d="M454.5,498.5l14,61s48-19,35-57Z"/><path class="cls-5" d="M448.5,499l9,56.5s-37-1-41-17.84Z"/><path class="cls-5" d="M442.5,494.5l-31,35s-28-21-16-44Z"/><path class="cls-5" d="M438.5,485.5l-49-7s-7-43,33-49Z"/><path class="cls-5" d="M231.5,555.5l-10-36s32-25,45,12Z"/><path class="cls-5" d="M226.5,560l-10-38.26s-46-14.63-35,32.63Z"/><path class="cls-5" d="M238.5,559.5l34-22s20,18,4,38Z"/><path class="cls-5" d="M226.5,562.5l-17,29s-33-9-27-35Z"/><path class="cls-5" d="M231.5,564.5l-13,29s42,21,48-12Z"/><path class="cls-5" d="M416.5,671.5l-21,39s-40-21-33-60Z"/><path class="cls-5" d="M420.5,673.5l-15,42s23,20,40,3Z"/><path class="cls-5" d="M425.5,673.5l26,42s33-11,25-40Z"/><path class="cls-5" d="M425.5,668.5h47s2-36-30-33Z"/><path class="cls-5" d="M417.5,664.5l-22-53s-30,2-32,26Z"/><path class="cls-5" d="M423.5,661.5l19-34s-4-29-31-16Z"/><path class="cls-3" d="M492,457.27c-3.47-3.83-9.11,1.85-5.66,5.65,1.73,1.91,3.94,4.15,4,6.89.15,5.14,8.15,5.16,8,0S495.25,460.88,492,457.27Z"/><path class="cls-3" d="M421.59,469.47l-12.89-1.38c-2.15-.23-4,2-4,4,0,2.35,1.84,3.77,4,4l12.89,1.38c2.15.23,4-2,4-4C425.59,471.11,423.75,469.7,421.59,469.47Z"/><path class="cls-3" d="M452.28,542.48a5.73,5.73,0,0,0-.73-2.32,7.24,7.24,0,0,0-2-2.08,4,4,0,0,0-5.47,1.44,4.4,4.4,0,0,0-.52,1.67,3.83,3.83,0,0,0-2.65,1.87,4.08,4.08,0,0,0,1.43,5.47,6.65,6.65,0,0,0,8.71-1.42A6.1,6.1,0,0,0,452.28,542.48Z"/><path class="cls-3" d="M390.57,617c-5-.95-10.51,1.27-12.6,6.14-.85,2-.59,4.29,1.44,5.47,1.68,1,4.61.56,5.47-1.43a3.71,3.71,0,0,1,1.65-2.06,2.63,2.63,0,0,1,1.05-.38l.42-.09c-.27.06-.27.07,0,.05s1,.11.44,0a4.11,4.11,0,0,0,4.92-2.79C393.91,620,392.71,617.42,390.57,617Z"/><path class="cls-3" d="M393.94,681.83a74.92,74.92,0,0,1-4,7.11L387,686.22c-3.87-3.62-8.73,1.69-5.65,5.65a34.49,34.49,0,0,0,8.13,7.49c3.16,2.13,6.16-1.08,5.82-4.06a75.35,75.35,0,0,0,5.54-9.43C403.1,681.26,396.2,677.2,393.94,681.83Z"/><path class="cls-3" d="M456.56,700.13l-8.23-7.81c-3.74-3.54-9.4,2.11-5.66,5.66l8.24,7.81C454.64,709.33,460.31,703.68,456.56,700.13Z"/><path class="cls-3" d="M215.75,539.54c-.77-2.09-1.53-4.18-2.3-6.26a29.25,29.25,0,0,0-2.21-5.57c-2.32-3.61-7.78-2.92-11.5-3.15-5.14-.32-5.12,7.68,0,8,1.52.09,3.39,0,5,.21l.3.84,1,2.69,2,5.36C209.8,546.45,217.54,544.38,215.75,539.54Z"/><path class="cls-3" d="M209.25,576.93a4,4,0,0,0-2.83-1.17,3.9,3.9,0,0,0-2.83,1.17l-1.55,2a4.34,4.34,0,0,0-1.17,2.83,4.06,4.06,0,0,0,1.17,2.83,4,4,0,0,0,2.83,1.17,3.93,3.93,0,0,0,2.83-1.17c.51-.66,1-1.31,1.55-2a4.39,4.39,0,0,0,1.17-2.83A4.11,4.11,0,0,0,209.25,576.93Z"/><path class="cls-3" d="M262.68,527.4c-.62-1.92-2.82-3.58-4.92-2.8a33.32,33.32,0,0,0-7.18,3.61,4.08,4.08,0,0,0-1.43,5.47c1.11,1.72,3.62,2.69,5.47,1.44a28.75,28.75,0,0,1,2.81-1.7,16.84,16.84,0,0,1,2.45-1.1C261.84,531.59,263.38,529.58,262.68,527.4Z"/></g></svg>