<svg xmlns="http://www.w3.org/2000/svg" viewBox="0 0 1000 1000"><defs><style>.cls-1{fill:#e5ae5e;}.cls-1,.cls-2{stroke:#e09248;}.cls-1,.cls-2,.cls-3{stroke-miterlimit:10;stroke-width:3px;}.cls-2{fill:#efc885;}.cls-3{fill:#724836;stroke:#442213;}.cls-4{fill:#e09248;}</style></defs><title>onion</title><g id="Layer_2" data-name="Layer 2"><path class="cls-1" d="M427.29,157.9c0-1.67,0-31.64-3.33-38.3s-10-18.31-10-18.31,11.66,0,16.65,6.66,1.67-20,0-25,15,3.33,18.31,11.65,10-6.66,10-6.66l3.33-25,20,33.3,13.32,59.93-25,51.61Z"/><path class="cls-2" d="M490.56,853.79s-146.51-8.32-219.76-73.25-98.23-158.16-96.56-214.76S187.56,419.27,244.16,356,330.73,252.79,369,226.15s41.62-56.6,41.62-56.6l3.33,10s8.33-33.3,6.66-40,20,16.65,20,16.65,21.64-64.93,44.95-79.91a35.78,35.78,0,0,0,5,16.65S512.2,79.65,512.2,69.66s15,20,15,33.3S540.5,96.3,540.5,96.3V83s11.65,31.63,8.32,49.94,25,61.6,30,66.6,89.9,64.92,113.21,78.24,94.89,79.91,114.87,143.18,30,106.55,25,149.83-28.31,109.88-48.28,139.85S712,792.2,692,803.85s-71.59,51.61-124.86,49.94S490.56,853.79,490.56,853.79Z"/></g><g id="Layer_3" data-name="Layer 3"><path class="cls-3" d="M473.91,842.14s-11.66-6.66-11.66-3.33-5,3.33-5,3.33-11.66-8.32-13.32-6.66-8.32-3.33-10,0-11.65,6.66-15,3.33-10,1.67-11.66,0-20.18-2-24.24-3.52,2.6,3.52,5.93,8.51,15,10,11.65,15,10-5,10-5-1.66,11.66-5,16.65-15,15-5,10,18.32-6.66,20-11.65,6.66,6.66,6.66,10S419,892.08,419,892.08s16.65-8.32,20-15,11.65,3.33,11.65,6.66,8.32,1.67,11.65-8.32,13.32,1.66,8.33,15,13.32-20,13.32-20,5,18.32,16.64,23.31,3.33-6.66,11.66-5,8.32,3.32,20,6.65,13.31-6.65,23.3-1.66-26.63-8.32-26.63-11.65-1.67-13.32,10-6.66,21.64,10,28.3,16.64,11.65,10,16.65,11.66-11.66-16.65-13.32-18.31-1.67-6.66,3.33-11.66,6.66-11.65,18.31-5,13.32,5,23.31,5-6.66-5-11.66-8.32-10-10-10-10-1.66,3.33,20-1.67S652,855.46,652,857.12s-21.64-8.32-30-10,10.58-8.77,10.58-8.77-2.26-9.54-5.59-6.21-25,8.33-25,8.33l-6.66-6.66a28.63,28.63,0,0,0-6.66,5c-3.33,3.33-13.32,5-15-1.66s-8.33-10-8.33-3.33,3.33,11.65-6.66,10-13.32-1.66-13.32-3.32,1.67-6.66-1.66-5-6.66,8.32-6.66,8.32,5,5-5,1.67a64.37,64.37,0,0,1-16.65-8.32s0-6.66-5-1.67,0,10-6.66,10-8.32,3.33-15-1.67-5-15-10-8.32Z"/><path class="cls-4" d="M638.72,812.17s64.93-54.94,78.25-174.8-83.24-269.71-91.56-288-54.94-88.24-64.93-111.54-28.3-74.92-31.63-91.57c0,0,10,61.6,16.64,76.58s23.31,51.61,30,63.27S648.71,401,657,420.94s36.62,86.57,41.62,108.21S717,600.74,712,630.71,700.32,709,680.35,742.25,647.05,810.51,638.72,812.17Z"/><path class="cls-4" d="M555.48,292.75s43.29,86.57,51.61,106.55,30,63.26,35,79.91,23.31,63.26,21.65,106.55S657,700.63,645.38,722.27s-40,81.58-49.94,94.9c0,0,43.28-91.57,48.28-113.21s18.31-98.23,15-113.21-6.66-59.93-25-116.54S580.46,381,583.79,369.33,555.48,292.75,555.48,292.75Z"/><path class="cls-4" d="M577.13,237.81S650.38,331,663.7,351,715.31,444.25,722,460.89s36.62,69.93,35,93.23S753.6,672.33,745.27,694s-20,59.93-26.63,69.92-15,20-15,20,36.63-43.28,45-68.26,13.32-88.23,13.32-96.56,8.33-63.26,3.33-76.58-5-26.64-15-46.61-30-61.6-40-79.92S677,362.67,663.7,341,590.44,251.13,577.13,237.81Z"/><path class="cls-4" d="M633.73,276.1s113.21,91.56,133.19,163.15,41.62,94.9,26.63,163.15-20,88.24-21.64,91.57,31.63-106.55,33.3-123.2-3.33-54.94-10-69.92-20-61.6-21.64-71.59S746.94,374.32,732,362.67,642.05,286.09,633.73,276.1Z"/><path class="cls-4" d="M325.74,286.09s-71.86,91.56-84.54,163.15-26.42,94.9-16.91,163.15S237,700.63,238,704,218,597.41,216.9,580.76s2.11-54.94,6.34-69.92,12.68-61.6,13.73-71.59,16.91-54.94,26.42-66.59S320.45,296.08,325.74,286.09Z"/><path class="cls-4" d="M518.86,241.14s56.6,168.14,58.27,206.44,10,113.2,3.33,166.48-26.64,136.51-41.62,169.81l-13.32,33.3s45-94.9,48.28-111.55,10-86.57,13.32-101.55,0-98.23,0-111.54-5-89.9-23.31-128.2S518.86,241.14,518.86,241.14Z"/><path class="cls-4" d="M362.05,272.11s-54,152.66-57.18,187.9-13.55,104-10.72,153.38,15,127,25.56,158.36L328.9,803S297,713.61,295.14,698.11s-3.93-80.25-5.9-94.21S294,513.32,294.61,501s8.38-82.69,25.07-117.23S362.05,272.11,362.05,272.11Z"/><path class="cls-4" d="M465.58,224.49s3.33,89.9,20,123.2,40,243.06,40,243.06,1.66,173.14-21.65,211.43c0,0,28.31-158.15,15-208.1,0,0-5-86.57-15-128.19s1.67-26.64-18.31-104.89S463.92,292.75,465.58,224.49Z"/><path class="cls-4" d="M470.58,534.15s-5,74.91-5,108.21-3.33,53.27,0,74.92-6.66,58.27-8.32,78.24,6.66,21.65,6.66,21.65-16.65,0-15-26.64,8.33-28.3,10-54.94,1.67-46.61,0-54.94,1.67-41.62,0-59.93,10-99.89,11.66-113.21S470.58,534.15,470.58,534.15Z"/><path class="cls-4" d="M453.93,344.36s-18.31,143.17-20,178.13S427.29,634,422.3,644,419,695.63,419,705.62s1.66,54.94,5,64.93,8.33,43.29,11.66,46.62-5,6.66-6.66,0-16.65-61.6-16.65-84.91S415.64,639,419,627.38s11.65-123.2,13.32-154.83S453.93,344.36,453.93,344.36Z"/><path class="cls-4" d="M425.63,252.79s-78.25,264.71-69.93,303S354,675.66,360.7,704s15,98.22,21.64,113.21S359,732.26,355.7,707.29s-8.32-128.19-8.32-148.17,15-106.55,23.31-131.52S425.63,252.79,425.63,252.79Z"/></g></svg>