<?xml version="1.0" encoding="UTF-8" standalone="no"?>
<!-- Created with Inkscape (http://www.inkscape.org/) -->

<svg
   xmlns:dc="http://purl.org/dc/elements/1.1/"
   xmlns:cc="http://creativecommons.org/ns#"
   xmlns:rdf="http://www.w3.org/1999/02/22-rdf-syntax-ns#"
   xmlns:svg="http://www.w3.org/2000/svg"
   xmlns="http://www.w3.org/2000/svg"
   xmlns:xlink="http://www.w3.org/1999/xlink"
   xmlns:sodipodi="http://sodipodi.sourceforge.net/DTD/sodipodi-0.dtd"
   xmlns:inkscape="http://www.inkscape.org/namespaces/inkscape"
   width="1000"
   height="1000"
   viewBox="0 0 264.58333 264.58334"
   version="1.1"
   id="svg2383"
   inkscape:version="0.92.5 (2060ec1f9f, 2020-04-08)"
   sodipodi:docname="See you later.svg"
   enable-background="new">
  <defs
     id="defs2377">
    <linearGradient
       inkscape:collect="always"
       id="linearGradient1052">
      <stop
         style="stop-color:#f9790d;stop-opacity:1;"
         offset="0"
         id="stop1048" />
      <stop
         style="stop-color:#f9790d;stop-opacity:0;"
         offset="1"
         id="stop1050" />
    </linearGradient>
    <linearGradient
       inkscape:collect="always"
       id="linearGradient1044">
      <stop
         style="stop-color:#f9860d;stop-opacity:1;"
         offset="0"
         id="stop1040" />
      <stop
         style="stop-color:#f9860d;stop-opacity:0;"
         offset="1"
         id="stop1042" />
    </linearGradient>
    <linearGradient
       inkscape:collect="always"
       xlink:href="#linearGradient1044"
       id="linearGradient1046"
       x1="118.07713"
       y1="113.50332"
       x2="132.92366"
       y2="113.50332"
       gradientUnits="userSpaceOnUse"
       gradientTransform="translate(-24.321527,19.457222)" />
    <linearGradient
       inkscape:collect="always"
       xlink:href="#linearGradient1052"
       id="linearGradient1054"
       x1="121.31777"
       y1="100.20094"
       x2="147.20404"
       y2="100.20094"
       gradientUnits="userSpaceOnUse"
       gradientTransform="translate(-26.192414,15.341271)" />
  </defs>
  <sodipodi:namedview
     id="base"
     pagecolor="#ffffff"
     bordercolor="#666666"
     borderopacity="1.0"
     inkscape:pageopacity="0.0"
     inkscape:pageshadow="2"
     inkscape:zoom="0.70710678"
     inkscape:cx="199.6151"
     inkscape:cy="423.35303"
     inkscape:document-units="px"
     inkscape:current-layer="layer1"
     showgrid="false"
     units="px"
     inkscape:window-width="1920"
     inkscape:window-height="1031"
     inkscape:window-x="0"
     inkscape:window-y="25"
     inkscape:window-maximized="1"
     showguides="false" />
  <metadata
     id="metadata2380">
    <rdf:RDF>
      <cc:Work
         rdf:about="">
        <dc:format>image/svg+xml</dc:format>
        <dc:type
           rdf:resource="http://purl.org/dc/dcmitype/StillImage" />
        <dc:title></dc:title>
      </cc:Work>
    </rdf:RDF>
  </metadata>
  <g
     inkscape:groupmode="layer"
     id="layer3"
     inkscape:label="Layer 2">
    <ellipse
       style="fill:#e29f44;fill-opacity:1;stroke-width:0.42381442"
       id="path3018"
       cx="132.42741"
       cy="221.24815"
       rx="104.28757"
       ry="28.604719" />
  </g>
  <g
     inkscape:groupmode="layer"
     id="layer2"
     inkscape:label="Layer 3" />
  <g
     inkscape:label="Layer 1"
     inkscape:groupmode="layer"
     id="layer1"
     transform="translate(0,-32.41665)">
    <text
       xml:space="preserve"
       style="font-style:normal;font-variant:normal;font-weight:bold;font-stretch:normal;font-size:10.58333302px;line-height:1.25;font-family:sans-serif;-inkscape-font-specification:'sans-serif Bold';letter-spacing:0px;word-spacing:0px;fill:#000000;fill-opacity:1;stroke:none;stroke-width:0.26458332"
       x="150.05655"
       y="89.869026"
       id="text8811" />
    <text
       xml:space="preserve"
       style="font-style:normal;font-variant:normal;font-weight:bold;font-stretch:normal;font-size:10.58333302px;line-height:1.25;font-family:sans-serif;-inkscape-font-specification:'sans-serif Bold';letter-spacing:0px;word-spacing:0px;fill:#000000;fill-opacity:1;stroke:none;stroke-width:0.26458332"
       x="160.63989"
       y="97.806526"
       id="text8815" />
    <text
       xml:space="preserve"
       style="font-style:normal;font-variant:normal;font-weight:bold;font-stretch:normal;font-size:10.58333302px;line-height:1.25;font-family:sans-serif;-inkscape-font-specification:'sans-serif Bold';letter-spacing:0px;word-spacing:0px;fill:#000000;fill-opacity:1;stroke:none;stroke-width:0.26458332"
       x="156.86011"
       y="88.7351"
       id="text8819" />
    <flowRoot
       xml:space="preserve"
       id="flowRoot8821"
       style="font-style:normal;font-variant:normal;font-weight:bold;font-stretch:normal;font-size:40px;line-height:1.25;font-family:sans-serif;-inkscape-font-specification:'sans-serif Bold';letter-spacing:0px;word-spacing:0px;fill:#000000;fill-opacity:1;stroke:none"><flowRegion
         id="flowRegion8823"
         style="font-style:normal;font-variant:normal;font-weight:bold;font-stretch:normal;font-family:sans-serif;-inkscape-font-specification:'sans-serif Bold'" /><flowPara
         id="flowPara8827" /></flowRoot>    <flowRoot
       xml:space="preserve"
       id="flowRoot8829"
       style="font-style:normal;font-variant:normal;font-weight:bold;font-stretch:normal;font-size:40px;line-height:1.25;font-family:sans-serif;-inkscape-font-specification:'sans-serif Bold';letter-spacing:0px;word-spacing:0px;fill:#000000;fill-opacity:1;stroke:none"><flowRegion
         id="flowRegion8831"
         style="font-style:normal;font-variant:normal;font-weight:bold;font-stretch:normal;font-family:sans-serif;-inkscape-font-specification:'sans-serif Bold'" /><flowPara
         id="flowPara8835" /></flowRoot>    <flowRoot
       xml:space="preserve"
       id="flowRoot8837"
       style="font-style:normal;font-variant:normal;font-weight:bold;font-stretch:normal;font-size:40px;line-height:1.25;font-family:sans-serif;-inkscape-font-specification:'sans-serif Bold';letter-spacing:0px;word-spacing:0px;fill:#000000;fill-opacity:1;stroke:none"><flowRegion
         id="flowRegion8839"
         style="font-style:normal;font-variant:normal;font-weight:bold;font-stretch:normal;font-family:sans-serif;-inkscape-font-specification:'sans-serif Bold'" /><flowPara
         id="flowPara8843" /></flowRoot>    <text
       xml:space="preserve"
       style="font-style:normal;font-variant:normal;font-weight:bold;font-stretch:normal;font-size:10.58333302px;line-height:1.25;font-family:sans-serif;-inkscape-font-specification:'sans-serif Bold';letter-spacing:0px;word-spacing:0px;fill:#000000;fill-opacity:1;stroke:none;stroke-width:0.26458332"
       x="209.39882"
       y="107.25594"
       id="text8847" />
    <flowRoot
       xml:space="preserve"
       id="flowRoot8849"
       style="font-style:normal;font-variant:normal;font-weight:bold;font-stretch:normal;font-size:40px;line-height:1.25;font-family:sans-serif;-inkscape-font-specification:'sans-serif Bold';letter-spacing:0px;word-spacing:0px;fill:#000000;fill-opacity:1;stroke:none"><flowRegion
         id="flowRegion8851"
         style="font-style:normal;font-variant:normal;font-weight:bold;font-stretch:normal;font-family:sans-serif;-inkscape-font-specification:'sans-serif Bold'" /><flowPara
         id="flowPara8855" /></flowRoot>    <flowRoot
       xml:space="preserve"
       id="flowRoot8857"
       style="font-style:normal;font-variant:normal;font-weight:bold;font-stretch:normal;font-size:40px;line-height:1.25;font-family:sans-serif;-inkscape-font-specification:'sans-serif Bold';letter-spacing:0px;word-spacing:0px;fill:#000000;fill-opacity:1;stroke:none"><flowRegion
         id="flowRegion8859"
         style="font-style:normal;font-variant:normal;font-weight:bold;font-stretch:normal;font-family:sans-serif;-inkscape-font-specification:'sans-serif Bold'" /><flowPara
         id="flowPara8863" /></flowRoot>    <flowRoot
       xml:space="preserve"
       id="flowRoot8865"
       style="font-style:normal;font-variant:normal;font-weight:bold;font-stretch:normal;font-size:40px;line-height:1.25;font-family:sans-serif;-inkscape-font-specification:'sans-serif Bold';letter-spacing:0px;word-spacing:0px;fill:#000000;fill-opacity:1;stroke:none"><flowRegion
         id="flowRegion8867"
         style="font-style:normal;font-variant:normal;font-weight:bold;font-stretch:normal;font-family:sans-serif;-inkscape-font-specification:'sans-serif Bold'" /><flowPara
         id="flowPara8871" /></flowRoot>    <flowRoot
       xml:space="preserve"
       id="flowRoot8873"
       style="font-style:normal;font-variant:normal;font-weight:bold;font-stretch:normal;font-size:40px;line-height:1.25;font-family:sans-serif;-inkscape-font-specification:'sans-serif Bold';letter-spacing:0px;word-spacing:0px;fill:#000000;fill-opacity:1;stroke:none"><flowRegion
         id="flowRegion8875"
         style="font-style:normal;font-variant:normal;font-weight:bold;font-stretch:normal;font-family:sans-serif;-inkscape-font-specification:'sans-serif Bold'" /><flowPara
         id="flowPara8879" /></flowRoot>    <path
       d="M 78.653175,90.414584 C 51.623245,74.964976 76.446825,50.709542 119.78726,49.340558 163.12773,47.970698 197.6541,66.682235 173.41549,84.937753 149.17261,103.19592 97.019545,100.91396 78.653175,90.414584"
       style="fill:#f9870d;fill-opacity:1;fill-rule:nonzero;stroke:none;stroke-width:0.11190915"
       id="path6821"
       inkscape:connector-curvature="0" />
    <path
       d="m 97.677769,119.6929 c -6.13466,-3.87775 -0.49965,-9.96472 9.340241,-10.30946 9.84107,-0.34149 17.67883,4.35272 12.17556,8.93311 -5.50565,4.58071 -17.34651,4.00985 -21.515801,1.37635"
       style="fill:url(#linearGradient1054);fill-opacity:1;fill-rule:nonzero;stroke:none;stroke-width:0.09835084"
       id="path6823"
       inkscape:connector-curvature="0" />
    <path
       d="m 95.21962,135.34206 c -3.518927,-2.22633 -0.28596,-5.71572 5.35608,-5.91376 5.6457,-0.19568 10.13897,2.49667 6.98442,5.12327 -3.15693,2.62911 -9.94909,2.29798 -12.3405,0.79049"
       style="fill:url(#linearGradient1046);fill-opacity:1;fill-rule:nonzero;stroke:none;stroke-width:0.09835084"
       id="path6825"
       inkscape:connector-curvature="0" />
    <path
       d="m 55.877032,253.48004 c 0,0.26331 1.307406,0.47753 2.920321,0.47753 1.614034,0 2.92144,-0.21422 2.92144,-0.47753 0,-0.26332 -1.307406,-0.47643 -2.92144,-0.47643 -1.612915,0 -2.920321,0.21311 -2.920321,0.47643"
       style="fill:#f0f59a;fill-opacity:1;fill-rule:nonzero;stroke:none;stroke-width:0.01119462"
       id="path21563"
       inkscape:connector-curvature="0" />
    <g
       id="g21581"
       transform="matrix(0.01136554,0,0,-0.01129002,-110.77088,281.32546)">
      <path
         d="m 14829.2,8391.37 c 0,0 839.6,154.33 1470.8,-942.03 -134.3,-235.81 -1057.2,-759.38 -1381.6,-771.54 -597.4,-22.33 -518.8,1612.82 -89.2,1713.57"
         style="fill:#fab20b;fill-opacity:1;fill-rule:nonzero;stroke:none"
         id="path21583"
         inkscape:connector-curvature="0" />
    </g>
    <g
       id="g21585"
       transform="matrix(0.01165993,0,0,-0.01158245,-110.77088,281.32546)">
      <path
         d="m 14399.4,8151.67 c 0,0 371.8,48.85 783.2,-223.8 323.6,-214.49 1117.4,-1282.68 908.4,-2078.85 -83.6,-318.27 -1402.4,-1056.82 -2016.1,-679.12 -613.8,377.71 -206.6,3011.28 324.5,2981.77"
         style="fill:#fdd849;fill-opacity:1;fill-rule:nonzero;stroke:none"
         id="path21587"
         inkscape:connector-curvature="0" />
    </g>
    <path
       d="m 52.650083,190.94927 c -4.131128,7.55544 -5.997884,26.13769 -0.288663,29.62771 2.697924,1.64906 4.338917,0.90151 9.930203,0.54671 5.195918,-1.31099 5.817049,-3.18654 6.61789,-4.43282 2.064439,-3.21332 -7.844422,-19.75545 -10.941081,-23.0365 -1.556755,-1.64972 -3.635797,-2.3832 -5.318349,-2.7051"
       style="fill:#fab20b;fill-opacity:1;fill-rule:nonzero;stroke:none;stroke-width:0.01119462"
       id="path21589"
       inkscape:connector-curvature="0" />
    <g
       id="g21591"
       transform="matrix(0.01162792,0,0,-0.01155066,-110.77088,281.32546)">
      <path
         d="m 15360.2,6769.99 c 0,0 460.9,248.02 588.1,241.66 127.2,-6.36 351.7,-521.44 271.2,-674.16 -80.4,-152.61 -556.9,-464.23 -859.3,432.5"
         style="fill:#ed1c24;fill-opacity:1;fill-rule:nonzero;stroke:none"
         id="path21593"
         inkscape:connector-curvature="0" />
    </g>
    <g
       id="g21595"
       transform="matrix(0.01236046,0,0,-0.01227835,-110.77088,281.32546)">
      <path
         d="m 9876.9,9455.58 c -371.29,-503.91 123.8,-1012.81 557,-817.61 -185.6,-158.76 67.6,-458.84 272.1,-200.38 0,-445.76 319.1,-581.71 481.4,-165.84 149.8,-550.64 580.5,-442.23 863.2,-10.37 -4.3,-543.59 746.9,-325.95 758.7,-11.58 36.8,-457.7 448.2,-601.32 721.1,-206.03 9,-277.46 619.4,-124.76 544.9,138.5 238.4,-233.81 772,-83.62 707,228.25 146.2,-103.9 361.5,35.91 280,178.17 352.8,-36.84 779.3,363.46 617.4,611.8 286.3,-14.83 620.3,527.38 87.4,691.2 510.9,173.61 280.5,504.21 -14.1,434.31 411,206.6 138.9,801.5 -359.4,580 287.8,613.2 -65.9,1012.3 -652.1,788 -318,653.8 -2291.7,1193.5 -3247.6,172.2 -955.2,-369.2 -1617,-2410.62 -1617,-2410.62"
         style="fill:#f08811;fill-opacity:1;fill-rule:nonzero;stroke:none"
         id="path21597"
         inkscape:connector-curvature="0" />
    </g>
    <g
       id="g21599"
       transform="matrix(0.01150448,0,0,-0.01142803,-110.77088,281.32546)">
      <path
         d="m 11998.3,10105 c 184,-1181.05 1228,-1823.76 2365.2,-1646.69 1137.1,177.03 1936.5,1106.68 1752.6,2287.79 -183.9,1181 -1248,1952.3 -2385.2,1775.2 -1137.2,-177 -1916.3,-1235.4 -1732.6,-2416.3"
         style="fill:#fabd99;fill-opacity:1;fill-rule:nonzero;stroke:none"
         id="path21601"
         inkscape:connector-curvature="0" />
    </g>
    <g
       id="g21603"
       transform="matrix(0.01150448,0,0,-0.01142803,-110.77088,281.32546)">
      <path
         d="m 11998.3,10105 c 184,-1181.05 1228,-1823.76 2365.2,-1646.69 1137.1,177.03 1936.5,1106.68 1752.6,2287.79 -183.9,1181 -1248,1952.3 -2385.2,1775.2 -1137.2,-177 -1916.3,-1235.4 -1732.6,-2416.3"
         style="fill:#fabd99;fill-opacity:1;fill-rule:nonzero;stroke:none"
         id="path21605"
         inkscape:connector-curvature="0" />
    </g>
    <path
       d="m 28.224994,165.80214 c 0,0 -0.748051,-2.69227 -4.152469,-2.65434 -3.590866,0.0413 -4.40294,4.83227 -2.149802,7.34177 2.252015,2.50484 6.196689,2.05095 7.143546,-0.25896 l -0.841275,-4.42847"
       style="fill:#fabd99;fill-opacity:1;fill-rule:nonzero;stroke:none;stroke-width:0.01119462"
       id="path21607"
       inkscape:connector-curvature="0" />
    <path
       d="m 23.535638,164.43649 c 2.255382,-0.67615 4.597252,3.12963 1.72411,5.58949 0.980552,-2.99876 -0.342577,-3.83222 -1.834185,-2.28022 -0.09098,-0.93053 0.413337,-1.58324 1.813967,-1.64459 -0.254967,-1.21505 -1.703892,-1.66468 -1.703892,-1.66468"
       style="fill:#d37658;fill-opacity:1;fill-rule:nonzero;stroke:none;stroke-width:0.01119462"
       id="path21609"
       inkscape:connector-curvature="0" />
    <path
       d="m 49.644402,165.16729 c 0.680658,0.39608 0.869356,-1.31657 2.335132,-1.39913 1.494978,-0.0859 1.763423,1.63008 2.449696,1.03317 0.560477,-0.48646 -0.28417,-2.54945 -2.730498,-2.33301 -2.040853,0.18075 -2.701293,2.32297 -2.05433,2.69897"
       style="fill:#ee5b63;fill-opacity:1;fill-rule:nonzero;stroke:none;stroke-width:0.01119462"
       id="path21611"
       inkscape:connector-curvature="0" />
    <g
       id="g21613"
       transform="matrix(0.01138778,0,0,-0.01131211,-110.77088,281.32546)">
      <path
         d="m 16300,10341.8 c -46.1,-533.75 -300.6,-990.76 -690.7,-1314.29 -33.2,15.13 -65.2,33.42 -95.7,55.15 -295,209.98 -341,651.81 -102.6,986.74 218.5,306.9 599.8,417.5 889,272.4"
         style="fill:#f79883;fill-opacity:1;fill-rule:nonzero;stroke:none"
         id="path21615"
         inkscape:connector-curvature="0" />
    </g>
    <path
       d="m 28.829275,171.42902 c 2.499118,-2.55303 6.877347,-2.88886 10.382854,-0.61075 3.918839,2.5461 5.264433,7.3893 3.006803,10.81717 -0.400983,0.6083 -0.889574,1.12946 -1.442189,1.56393 -5.310485,-2.15929 -9.617954,-6.20148 -11.947468,-11.77035"
       style="fill:#f79883;fill-opacity:1;fill-rule:nonzero;stroke:none;stroke-width:0.01119462"
       id="path21617"
       inkscape:connector-curvature="0" />
    <path
       d="m 57.404584,160.27479 c 1.174867,1.58657 4.477072,3.17427 7.308656,2.72127 2.830462,-0.45298 3.825617,-2.44903 4.718559,-4.6448 -0.153877,-1.12021 -3.120245,-4.72402 -5.950706,-4.27215 -2.831587,0.45298 -5.259941,3.33605 -6.076509,6.19568"
       style="fill:#ffffff;fill-opacity:1;fill-rule:nonzero;stroke:none;stroke-width:0.01119462"
       id="path21619"
       inkscape:connector-curvature="0" />
    <path
       d="m 60.749469,157.60148 c -0.69975,1.5955 -0.03931,3.42196 1.475884,4.08024 1.517443,0.65718 3.315685,-0.10263 4.016563,-1.69814 0.700874,-1.59774 0.03931,-3.42308 -1.475884,-4.08137 -1.517443,-0.65717 -3.315683,0.10378 -4.016563,1.69927"
       style="fill:#070605;fill-opacity:1;fill-rule:nonzero;stroke:none;stroke-width:0.01119462"
       id="path21621"
       inkscape:connector-curvature="0" />
    <path
       d="m 64.00338,157.96076 c -0.01461,0.50988 0.366162,0.93051 0.848014,0.9439 0.481851,0.0122 0.883959,-0.38716 0.899683,-0.89593 0.01461,-0.50766 -0.363915,-0.92941 -0.84577,-0.94727 -0.482974,-0.009 -0.888449,0.39163 -0.901927,0.8993"
       style="fill:#ffffff;fill-opacity:1;fill-rule:nonzero;stroke:none;stroke-width:0.01119462"
       id="path21623"
       inkscape:connector-curvature="0" />
    <path
       d="m 61.33578,160.00366 c -0.01009,0.31575 0.226886,0.57572 0.527906,0.58576 0.298771,0.009 0.550367,-0.24099 0.558227,-0.55786 0.0045,-0.31353 -0.226886,-0.57572 -0.527901,-0.58353 -0.298772,-0.009 -0.549244,0.24099 -0.558232,0.55563"
       style="fill:#ffffff;fill-opacity:1;fill-rule:nonzero;stroke:none;stroke-width:0.01119462"
       id="path21625"
       inkscape:connector-curvature="0" />
    <path
       d="m 69.431799,158.35126 c 0,0 -3.246043,-5.99039 -9.56067,-2.26718 6.544882,-6.73347 9.56067,2.26718 9.56067,2.26718"
       style="fill:#6d3a2c;fill-opacity:1;fill-rule:nonzero;stroke:none;stroke-width:0.01119462"
       id="path21627"
       inkscape:connector-curvature="0" />
    <path
       d="m 45.329068,162.11241 c -0.646962,1.86216 -3.324668,4.35248 -6.162991,4.75638 -2.838327,0.4039 -4.384971,-1.20723 -5.895673,-3.04039 -0.188698,-1.11462 1.564616,-5.43251 4.402941,-5.83642 2.838325,-0.40388 6.020348,1.63121 7.655723,4.12043"
       style="fill:#ffffff;fill-opacity:1;fill-rule:nonzero;stroke:none;stroke-width:0.01119462"
       id="path21629"
       inkscape:connector-curvature="0" />
    <path
       d="m 41.334975,160.54814 c 1.146786,1.31657 1.062543,3.25572 -0.187574,4.33129 -1.251246,1.07556 -3.195503,0.88143 -4.343413,-0.43513 -1.146786,-1.31769 -1.061423,-3.25684 0.187575,-4.33241 1.252366,-1.07558 3.196625,-0.88032 4.343412,0.43625"
       style="fill:#070605;fill-opacity:1;fill-rule:nonzero;stroke:none;stroke-width:0.01119462"
       id="path21631"
       inkscape:connector-curvature="0" />
    <path
       d="m 38.337156,161.85132 c 0.166233,0.48311 -0.07189,0.99746 -0.527905,1.15256 -0.45714,0.15396 -0.960335,-0.10822 -1.127692,-0.59023 -0.16511,-0.47977 0.06964,-0.99524 0.524536,-1.15367 0.458264,-0.15062 0.965949,0.11157 1.131061,0.59134"
       style="fill:#ffffff;fill-opacity:1;fill-rule:nonzero;stroke:none;stroke-width:0.01119462"
       id="path21633"
       inkscape:connector-curvature="0" />
    <path
       d="m 41.494468,163.01392 c 0.104457,0.29902 -0.0438,0.617 -0.329098,0.71629 -0.281922,0.096 -0.596419,-0.068 -0.698631,-0.36707 -0.09884,-0.29902 0.04381,-0.617 0.329099,-0.71407 0.281924,-0.0959 0.595297,0.0669 0.69863,0.36485"
       style="fill:#ffffff;fill-opacity:1;fill-rule:nonzero;stroke:none;stroke-width:0.01119462"
       id="path21635"
       inkscape:connector-curvature="0" />
    <path
       d="m 33.270404,163.8284 c 0,0 1.30628,-6.67879 8.448705,-4.98957 -8.263377,-4.49419 -8.448705,4.98957 -8.448705,4.98957"
       style="fill:#6d3a2c;fill-opacity:1;fill-rule:nonzero;stroke:none;stroke-width:0.01119462"
       id="path21637"
       inkscape:connector-curvature="0" />
    <path
       d="m 63.87421,149.10738 c -2.489007,-0.58576 -2.885497,2.12102 -1.253489,2.05853 1.749945,-0.0714 3.241554,0.50097 3.45159,0.32468 0.467253,-0.38938 -0.79747,-2.05519 -2.198101,-2.38321"
       style="fill:#f08811;fill-opacity:1;fill-rule:nonzero;stroke:none;stroke-width:0.01119462"
       id="path21639"
       inkscape:connector-curvature="0" />
    <path
       d="m 35.526911,153.49446 c 2.349733,-1.00752 3.213474,1.58881 1.596066,1.80971 -1.736464,0.23208 -3.1034,1.05438 -3.341518,0.91603 -0.529026,-0.30237 0.423446,-2.16117 1.745452,-2.72574"
       style="fill:#f08811;fill-opacity:1;fill-rule:nonzero;stroke:none;stroke-width:0.01119462"
       id="path21641"
       inkscape:connector-curvature="0" />
    <path
       d="m 62.443255,165.8278 c 0.498702,7.08303 -3.028146,13.19013 -8.350984,14.02024 -5.322842,0.82999 -10.564813,-3.90932 -12.275445,-10.80357 l 20.626429,-3.21667"
       style="fill:#712131;fill-opacity:1;fill-rule:nonzero;stroke:none;stroke-width:0.01119462"
       id="path21643"
       inkscape:connector-curvature="0" />
    <path
       d="m 59.99019,175.89889 c -1.465775,2.12547 -3.498766,3.57481 -5.897919,3.94915 -2.400278,0.37421 -4.782583,-0.38661 -6.833544,-1.9637 1.646609,-0.98999 3.784057,-1.76297 6.185458,-2.13742 2.400276,-0.37455 4.674755,-0.28942 6.546005,0.15197"
       style="fill:#ee5b63;fill-opacity:1;fill-rule:nonzero;stroke:none;stroke-width:0.01119462"
       id="path21645"
       inkscape:connector-curvature="0" />
    <path
       d="m 52.570336,170.22225 c -5.130775,0.80019 -9.503389,0.68405 -10.662532,-1.19117 L 62.3534,165.84231 c -0.525657,2.13776 -4.651169,3.57928 -9.783064,4.37994"
       style="fill:#fef0f4;fill-opacity:1;fill-rule:nonzero;stroke:none;stroke-width:0.01119462"
       id="path21647"
       inkscape:connector-curvature="0" />
    <path
       d="m 67.576277,167.50364 c 0.239239,0.33807 0.708735,0.4184 1.047943,0.18074 0.34033,-0.23765 0.4212,-0.70402 0.181957,-1.04097 -0.239239,-0.33807 -0.708739,-0.4184 -1.047942,-0.18075 -0.340331,0.23765 -0.421201,0.70404 -0.181958,1.04098"
       style="fill:#ee5b63;fill-opacity:1;fill-rule:nonzero;stroke:none;stroke-width:0.01119462"
       id="path21649"
       inkscape:connector-curvature="0" />
    <path
       d="m 65.644373,169.77148 c 0.239243,0.33718 0.708739,0.41785 1.047946,0.18008 0.340327,-0.23764 0.421197,-0.70402 0.181958,-1.04098 -0.239242,-0.33806 -0.708739,-0.41839 -1.049069,-0.18075 -0.339206,0.23765 -0.420076,0.70403 -0.180835,1.04165"
       style="fill:#ee5b63;fill-opacity:1;fill-rule:nonzero;stroke:none;stroke-width:0.01119462"
       id="path21651"
       inkscape:connector-curvature="0" />
    <path
       d="m 68.238961,169.88417 c 0.239243,0.33729 0.70874,0.41796 1.047946,0.1802 0.339207,-0.23777 0.421201,-0.70414 0.180834,-1.0411 -0.239239,-0.33695 -0.707615,-0.4184 -1.047942,-0.18074 -0.339208,0.23765 -0.420077,0.70402 -0.180838,1.04164"
       style="fill:#ee5b63;fill-opacity:1;fill-rule:nonzero;stroke:none;stroke-width:0.01119462"
       id="path21653"
       inkscape:connector-curvature="0" />
    <path
       d="m 36.765801,172.44512 c 0.380762,0.16591 0.824428,-0.005 0.991782,-0.3837 0.166237,-0.37779 -0.0067,-0.81862 -0.386379,-0.98464 -0.380765,-0.1659 -0.824428,0.006 -0.991785,0.38371 -0.166234,0.37778 0.0056,0.81861 0.386382,0.98463"
       style="fill:#ee5b63;fill-opacity:1;fill-rule:nonzero;stroke:none;stroke-width:0.01119462"
       id="path21655"
       inkscape:connector-curvature="0" />
    <path
       d="m 36.297424,175.20256 c 0.379642,0.16589 0.824429,-0.006 0.990662,-0.3837 0.167357,-0.3778 -0.0056,-0.81862 -0.386378,-0.98464 -0.379642,-0.16592 -0.823305,0.006 -0.990663,0.38371 -0.167357,0.37778 0.0056,0.8186 0.386379,0.98463"
       style="fill:#ee5b63;fill-opacity:1;fill-rule:nonzero;stroke:none;stroke-width:0.01119462"
       id="path21657"
       inkscape:connector-curvature="0" />
    <path
       d="m 38.768463,174.13479 c 0.379641,0.16592 0.823307,-0.006 0.990661,-0.38369 0.167357,-0.3778 -0.0056,-0.81873 -0.386378,-0.98465 -0.379642,-0.1659 -0.823305,0.006 -0.990663,0.38371 -0.167356,0.37779 0.0057,0.81862 0.38638,0.98463"
       style="fill:#ee5b63;fill-opacity:1;fill-rule:nonzero;stroke:none;stroke-width:0.01119462"
       id="path21659"
       inkscape:connector-curvature="0" />
    <g
       id="g21661"
       transform="matrix(0.01231295,0,0,-0.01223115,-110.77088,281.32546)">
      <path
         d="m 12526.8,13358.2 c -282.1,503 -1414.4,191.1 -1386.9,-420.5 -359.9,279.5 -351.7,38.3 -255,-214.9 -376,342 -1283.26,-116 -1066.79,-722.1 -245.11,97.6 -355.4,-86.2 -112.47,-317.5 -420.71,115.1 -340.71,-437.2 -34.03,-608 -505.73,-71.3 -586.26,-922.9 -101.71,-962 -260.34,-387.94 -61.48,-652.8 250.67,-553.16 -161.55,-507.5 401.73,-497.51 498.33,-213.04 145.5,-318.94 628.3,-251.48 678.1,-85.96 268.7,-416.52 390.4,373.65 201.1,587.4 406.1,-150.17 193.1,293.76 86.9,450.46 264.6,-99 505.6,188 255.5,347 287.8,-114 573.6,160.4 508.8,339.1 252.4,-25.2 605.8,282.8 331.3,419.8 213.3,27.4 761.1,384.3 733.6,-112.2 -27.4,-496.5 364.7,-148.5 482.6,144.1 -9.9,-875.7 556.7,-488.8 764.8,-290.4 -136.1,-375.8 225.1,-631.3 397.9,-344.1 110.1,-339.8 842,-368.4 718.5,-51.7 319.6,-129.3 631.9,287.5 306.1,466.2 359.9,131.6 515.9,667.8 -38,546.8 364.3,207.2 77.5,434 -91.9,402.2 188.5,334.3 -285.7,811 -629.2,589.6 277.2,556.8 -183.5,602.8 -377.1,439.5 37.3,373.8 -626.9,890 -780.9,235.6 -61.6,340.9 -291.9,278.2 -279.5,69.9 -306.5,481.2 -1074.8,492.5 -1060.7,-142.1"
         style="fill:#fab20b;fill-opacity:1;fill-rule:nonzero;stroke:none"
         id="path21663"
         inkscape:connector-curvature="0" />
    </g>
    <path
       d="m 56.847477,218.37005 c 0,0 -0.22801,26.46416 -0.07975,29.1051 -1.757805,0.44741 -2.864156,1.99716 -2.864156,1.99716 l -0.727834,-29.63619 3.671737,-1.46607"
       style="fill:#fabd99;fill-opacity:1;fill-rule:nonzero;stroke:none;stroke-width:0.01119462"
       id="path21665"
       inkscape:connector-curvature="0" />
    <path
       d="m 53.397009,248.31864 c -0.345943,0.76094 -0.967075,1.66022 1.410739,3.88164 1.730848,1.6156 4.147973,2.48587 6.325856,1.82202 2.280095,-0.69512 1.236645,-3.05044 1.236645,-3.05044 l -8.97324,-2.65322"
       style="fill:#ffffff;fill-opacity:1;fill-rule:nonzero;stroke:none;stroke-width:0.01119462"
       id="path21667"
       inkscape:connector-curvature="0" />
    <path
       d="m 53.436321,245.58955 c -0.224638,0.57237 -0.603156,1.96816 0.03146,3.14303 2.553032,3.01026 4.382723,4.7218 7.619781,3.8426 2.537307,-0.68953 0.846894,-2.8284 -0.489713,-3.67635 -1.334361,-0.8502 -3.882898,-3.20998 -3.882898,-3.20998 0,0 -0.990662,0.9997 -3.27862,-0.0993"
       style="fill:#fab20b;fill-opacity:1;fill-rule:nonzero;stroke:none;stroke-width:0.01119462"
       id="path21669"
       inkscape:connector-curvature="0" />
    <path
       d="m 56.714941,245.68885 c 0.538011,-0.76651 0.26395,-1.41921 -1.354578,-1.32438 -1.126568,0.0669 -2.243031,0.53891 -1.063671,1.55645 0.379642,0.38828 1.963353,0.3046 2.418249,-0.23207"
       style="fill:#fab20b;fill-opacity:1;fill-rule:nonzero;stroke:none;stroke-width:0.01119462"
       id="path21671"
       inkscape:connector-curvature="0" />
    <path
       d="m 55.392934,247.69606 c 0.08311,0 0.163989,-0.039 0.215656,-0.11157 0.411089,-0.58464 1.383781,-1.02648 2.300309,-0.75312 0.139279,0.0413 0.285295,-0.0368 0.326854,-0.17406 0.04155,-0.13835 -0.03707,-0.2834 -0.175222,-0.32468 -1.187221,-0.3548 -2.37107,0.2265 -2.882126,0.95396 -0.08311,0.11826 -0.05391,0.28005 0.06515,0.36262 0.04493,0.0313 0.09772,0.0469 0.149384,0.0469"
       style="fill:#ffffff;fill-opacity:1;fill-rule:nonzero;stroke:none;stroke-width:0.01119462"
       id="path21673"
       inkscape:connector-curvature="0" />
    <path
       d="m 56.390337,248.55853 c 0.08199,0 0.163984,-0.0379 0.214529,-0.11046 0.412215,-0.58576 1.384904,-1.02759 2.301435,-0.75313 0.139276,0.0413 0.285294,-0.0368 0.32685,-0.17517 0.04156,-0.13723 -0.03707,-0.28227 -0.175217,-0.32356 -1.188346,-0.35479 -2.371075,0.2265 -2.88213,0.95284 -0.08311,0.11827 -0.05391,0.28117 0.06403,0.3626 0.04605,0.0324 0.09884,0.0469 0.150508,0.0469"
       style="fill:#ffffff;fill-opacity:1;fill-rule:nonzero;stroke:none;stroke-width:0.01119462"
       id="path21675"
       inkscape:connector-curvature="0" />
    <path
       d="m 57.386614,249.4221 c 0.08312,0 0.165109,-0.039 0.215653,-0.11157 0.411092,-0.58465 1.38378,-1.02759 2.301436,-0.75313 0.138152,0.0413 0.284167,-0.0368 0.32685,-0.17404 0.04156,-0.13836 -0.03707,-0.28339 -0.176342,-0.32468 -1.187221,-0.35481 -2.371074,0.22649 -2.88213,0.95394 -0.08199,0.11828 -0.05391,0.28007 0.06515,0.36262 0.04606,0.0313 0.09772,0.0469 0.149387,0.0469"
       style="fill:#ffffff;fill-opacity:1;fill-rule:nonzero;stroke:none;stroke-width:0.01119462"
       id="path21677"
       inkscape:connector-curvature="0" />
    <path
       d="m 43.406153,218.37005 c 0,0 0.226887,26.46416 0.07862,29.1051 1.757806,0.44741 2.86416,1.99716 2.86416,1.99716 l 0.728955,-29.63619 -3.671737,-1.46607"
       style="fill:#fabd99;fill-opacity:1;fill-rule:nonzero;stroke:none;stroke-width:0.01119462"
       id="path21679"
       inkscape:connector-curvature="0" />
    <path
       d="m 46.85662,248.31864 c 0.344822,0.76094 0.967075,1.66022 -1.411862,3.88164 -1.729725,1.6156 -4.14685,2.48587 -6.324732,1.82202 -2.281219,-0.69512 -1.236642,-3.05044 -1.236642,-3.05044 l 8.973236,-2.65322"
       style="fill:#ffffff;fill-opacity:1;fill-rule:nonzero;stroke:none;stroke-width:0.01119462"
       id="path21681"
       inkscape:connector-curvature="0" />
    <path
       d="m 46.816185,245.58955 c 0.225761,0.57237 0.604283,1.96816 -0.03032,3.14303 -2.553032,3.01026 -4.383845,4.7218 -7.619782,3.8426 -2.537307,-0.68953 -0.848014,-2.8284 0.488591,-3.67635 1.334361,-0.8502 3.8829,-3.20998 3.8829,-3.20998 0,0 0.991785,0.9997 3.278617,-0.0993"
       style="fill:#fab20b;fill-opacity:1;fill-rule:nonzero;stroke:none;stroke-width:0.01119462"
       id="path21683"
       inkscape:connector-curvature="0" />
    <path
       d="m 43.537568,245.68885 c -0.538014,-0.76651 -0.263953,-1.41921 1.354578,-1.32438 1.126569,0.0669 2.243027,0.53891 1.064791,1.55645 -0.379641,0.38828 -1.964474,0.3046 -2.419369,-0.23207"
       style="fill:#fab20b;fill-opacity:1;fill-rule:nonzero;stroke:none;stroke-width:0.01119462"
       id="path21685"
       inkscape:connector-curvature="0" />
    <path
       d="m 44.859572,247.69606 c -0.08199,0 -0.163986,-0.039 -0.21453,-0.11157 -0.411091,-0.58464 -1.384904,-1.02648 -2.301436,-0.75312 -0.138155,0.0413 -0.28417,-0.0368 -0.325725,-0.17406 -0.04268,-0.13835 0.03594,-0.2834 0.175217,-0.32468 1.186097,-0.3548 2.371074,0.2265 2.88213,0.95396 0.08199,0.11826 0.05391,0.28005 -0.06515,0.36262 -0.04605,0.0313 -0.09772,0.0469 -0.150508,0.0469"
       style="fill:#ffffff;fill-opacity:1;fill-rule:nonzero;stroke:none;stroke-width:0.01119462"
       id="path21687"
       inkscape:connector-curvature="0" />
    <path
       d="m 43.863293,248.55853 c -0.08311,0 -0.163984,-0.0379 -0.215652,-0.11046 -0.411093,-0.58576 -1.38378,-1.02759 -2.300312,-0.75313 -0.139276,0.0413 -0.285291,-0.0368 -0.326851,-0.17517 -0.04155,-0.13723 0.03707,-0.28227 0.175218,-0.32356 1.187221,-0.35479 2.371074,0.2265 2.882131,0.95284 0.08311,0.11827 0.05391,0.28117 -0.06515,0.3626 -0.04493,0.0324 -0.09772,0.0469 -0.149387,0.0469"
       style="fill:#ffffff;fill-opacity:1;fill-rule:nonzero;stroke:none;stroke-width:0.01119462"
       id="path21689"
       inkscape:connector-curvature="0" />
    <path
       d="m 42.865895,249.4221 c -0.08311,0 -0.163989,-0.039 -0.214532,-0.11157 -0.412213,-0.58465 -1.384906,-1.02759 -2.301433,-0.75313 -0.139279,0.0413 -0.285295,-0.0368 -0.326853,-0.17404 -0.04155,-0.13836 0.03707,-0.28339 0.17522,-0.32468 1.188343,-0.35481 2.371071,0.22649 2.882127,0.95394 0.08311,0.11828 0.05391,0.28007 -0.06515,0.36262 -0.04493,0.0313 -0.09772,0.0469 -0.149383,0.0469"
       style="fill:#ffffff;fill-opacity:1;fill-rule:nonzero;stroke:none;stroke-width:0.01119462"
       id="path21691"
       inkscape:connector-curvature="0" />
    <path
       d="m 51.484202,209.95517 c -0.02133,-0.003 -7.069418,0.46191 -11.810441,-0.0915 0.248227,3.14303 -0.823305,15.19633 -1.681428,21.49243 1.208562,1.62451 9.719042,2.39214 10.972532,1.50847 0.148263,-3.63507 0.290908,-12.72052 1.68592,-12.77964 1.220921,-0.0513 1.131066,9.1178 1.755563,12.52749 1.514074,0.86692 9.586504,0.47864 10.417673,-0.87586 -0.581818,-6.04394 -1.152403,-20.20375 -1.373672,-23.42154 -4.608489,1.23736 -9.944809,1.63457 -9.966147,1.64014"
       style="fill:#27b4bb;fill-opacity:1;fill-rule:nonzero;stroke:none;stroke-width:0.01119462"
       id="path21693"
       inkscape:connector-curvature="0" />
    <path
       d="m 63.099202,227.61951 c 0,0 0.529029,4.36476 0.08873,4.77535 -0.767144,0.71408 -6.69202,1.84877 -11.35779,1.13582 -0.329098,-1.34558 -0.114565,-4.49754 -0.114565,-4.49754 0,0 8.284718,0.71631 11.383621,-1.41363"
       style="fill:#99ddd8;fill-opacity:1;fill-rule:nonzero;stroke:none;stroke-width:0.01119462"
       id="path21695"
       inkscape:connector-curvature="0" />
    <path
       d="m 38.01255,227.61951 c 0,0 -0.529025,4.36476 -0.08761,4.77535 0.767147,0.71408 6.690901,1.84877 11.356666,1.13582 0.329098,-1.34558 0.114569,-4.49754 0.114569,-4.49754 0,0 -8.284717,0.71631 -11.383625,-1.41363"
       style="fill:#99ddd8;fill-opacity:1;fill-rule:nonzero;stroke:none;stroke-width:0.01119462"
       id="path21697"
       inkscape:connector-curvature="0" />
    <path
       d="m 60.942661,217.28444 c -0.861492,0.15509 -1.774654,-0.0803 -2.464297,-0.61254 -0.678414,-0.52439 -1.101859,-1.34111 -1.177113,-2.18684 -0.04044,-0.4608 0.680658,-0.51435 0.721094,-0.0524 0.05841,0.66386 0.396487,1.2831 0.928884,1.6948 0.546999,0.42287 1.263599,0.56122 1.93752,0.44072 0.19319,-0.0345 0.374025,0.15287 0.387502,0.33137 0.01573,0.21087 -0.141522,0.35035 -0.33359,0.38493 v 0"
       style="fill:#99ddd8;fill-opacity:1;fill-rule:nonzero;stroke:none;stroke-width:0.01119462"
       id="path21699"
       inkscape:connector-curvature="0" />
    <path
       d="m 44.91124,214.61337 c -0.286415,1.46273 -1.667952,2.62421 -3.173037,2.63426 -0.195437,0.003 -0.372902,-0.12832 -0.387503,-0.33138 -0.01347,-0.18409 0.138152,-0.3827 0.33359,-0.38493 1.187222,-0.008 2.28908,-0.88924 2.51709,-2.05743 0.08873,-0.45409 0.798591,-0.31574 0.70986,0.13948 v 0"
       style="fill:#99ddd8;fill-opacity:1;fill-rule:nonzero;stroke:none;stroke-width:0.01119462"
       id="path21701"
       inkscape:connector-curvature="0" />
    <path
       d="m 51.844747,212.45107 c 0.02248,1.75617 0.155004,3.50453 0.258338,5.25736 0.0067,0.11492 -0.172974,0.12829 -0.179711,0.0134 -0.104459,-1.75283 -0.235875,-3.50118 -0.258337,-5.25736 -0.0022,-0.11492 0.178587,-0.12942 0.17971,-0.0134 v 0"
       style="fill:#78899e;fill-opacity:1;fill-rule:nonzero;stroke:none;stroke-width:0.01119462"
       id="path21703"
       inkscape:connector-curvature="0" />
    <path
       d="m 49.94991,212.61397 c -0.16174,0.64378 -0.116813,1.36454 -0.03031,2.01614 0.108951,0.82452 0.347067,1.71712 0.915407,2.35196 0.314497,0.35147 0.726709,0.57684 1.196207,0.64489 0.114569,0.0167 0.07975,0.19304 -0.03594,0.1763 -1.871248,-0.27001 -2.323899,-2.62868 -2.322775,-4.17508 0.0013,-0.34812 0.01461,-0.70961 0.09997,-1.04991 0.02807,-0.11158 0.205546,-0.077 0.177465,0.0357 v 0"
       style="fill:#99ddd8;fill-opacity:1;fill-rule:nonzero;stroke:none;stroke-width:0.01119462"
       id="path21705"
       inkscape:connector-curvature="0" />
    <path
       d="m 56.665519,186.87226 c 0,0 -2.263246,-0.27536 -3.906487,-0.42275 -0.153877,-1.70462 0,-4.11071 0,-4.11071 l -4.19515,-0.32725 c 0,0 -0.03706,3.29131 0,4.41063 -1.722987,0.35167 -3.863803,0.54235 -4.711818,0.64299 -2.726005,11.02135 16.382982,13.85131 12.813455,-0.19291"
       style="fill:#fabd99;fill-opacity:1;fill-rule:nonzero;stroke:none;stroke-width:0.01119462"
       id="path21707"
       inkscape:connector-curvature="0" />
    <path
       d="m 52.463632,185.26471 0.0022,0.86838 c 0,0 -2.00379,-1.02826 -3.642534,0 0,-0.6247 0,-0.98587 0,-0.98587 l 3.640286,0.11749"
       style="fill:#efa378;fill-opacity:1;fill-rule:nonzero;stroke:none;stroke-width:0.01119462"
       id="path21709"
       inkscape:connector-curvature="0" />
    <path
       d="m 56.644179,186.83075 c 0,0 2.198101,0.0343 4.397325,0.66833 1.346714,2.56754 0.117934,16.07408 4.48718,27.16896 -5.097079,2.18126 -24.754185,2.21027 -29.944491,-0.66832 3.93906,-9.1323 3.056227,-25.54222 4.734286,-26.24502 1.374796,-0.5755 4.197394,-0.91435 4.197394,-0.91435 0,0 -0.286415,7.53692 5.721576,7.95197 6.594302,0.45566 6.40673,-7.96157 6.40673,-7.96157"
       style="fill:#ed1c24;fill-opacity:1;fill-rule:nonzero;stroke:none;stroke-width:0.01119462"
       id="path21711"
       inkscape:connector-curvature="0" />
    <path
       d="m 63.568702,208.08296 c -0.192066,-0.88031 -0.360548,-1.75839 -0.508811,-2.6309 -6.258466,1.25073 -18.896702,1.20276 -25.115854,-0.48089 -0.13703,0.87697 -0.29091,1.74949 -0.465004,2.60637 6.196689,1.86216 19.881747,1.90009 26.089669,0.50542"
       style="fill:#27b4bb;fill-opacity:1;fill-rule:nonzero;stroke:none;stroke-width:0.01119462"
       id="path21713"
       inkscape:connector-curvature="0" />
    <path
       d="m 38.613462,199.66373 c -0.08873,0.87485 -0.187575,1.76744 -0.299895,2.66661 6.203429,1.55412 18.089122,1.60878 24.346465,0.46069 -0.120181,-0.91212 -0.22127,-1.80895 -0.30888,-2.68402 -6.230385,1.07412 -17.562342,1.01554 -23.73769,-0.44328"
       style="fill:#27b4bb;fill-opacity:1;fill-rule:nonzero;stroke:none;stroke-width:0.01119462"
       id="path21715"
       inkscape:connector-curvature="0" />
    <path
       d="m 50.747381,195.37641 c 1.530921,0 2.830463,-0.46058 3.870547,-1.3727 2.713649,-2.37886 2.641764,-6.98952 2.638392,-7.18468 -0.0079,-0.3086 -0.279675,-0.5544 -0.612141,-0.5544 -0.0034,0 -0.0079,0 -0.01235,2.5e-4 -0.338083,0.006 -0.606528,0.26499 -0.598667,0.57751 0,0.0425 0.06177,4.31032 -2.258753,6.34196 -0.915404,0.80108 -2.057697,1.14162 -3.490903,1.04354 -5.359904,-0.3702 -5.158852,-7.29769 -5.155484,-7.36766 0.01124,-0.3124 -0.25272,-0.57449 -0.590802,-0.58553 -0.33359,-0.004 -0.620005,0.23341 -0.632362,0.54571 -0.0034,0.081 -0.06738,2.00709 0.636854,4.01508 0.972692,2.76971 2.925934,4.33307 5.650814,4.5213 0.187575,0.0129 0.372902,0.0196 0.554861,0.0196"
       style="fill:#27b4bb;fill-opacity:1;fill-rule:nonzero;stroke:none;stroke-width:0.01119462"
       id="path21717"
       inkscape:connector-curvature="0" />
    <path
       d="m 61.92209,195.19711 c 0.0067,0 0.01235,-9e-5 0.0191,-3.2e-4 0.33696,-0.009 0.603156,-0.27057 0.593047,-0.58286 -0.142646,-4.3256 -0.868232,-7.13112 -0.898558,-7.2485 -0.07975,-0.3037 -0.409968,-0.49037 -0.739066,-0.41628 -0.327973,0.0737 -0.529026,0.37958 -0.449279,0.6834 0.0067,0.0277 0.725588,2.81779 0.86374,7.01574 0.0101,0.30661 0.281922,0.54884 0.611019,0.54884"
       style="fill:#27b4bb;fill-opacity:1;fill-rule:nonzero;stroke:none;stroke-width:0.01119462"
       id="path21719"
       inkscape:connector-curvature="0" />
    <path
       d="m 39.114409,196.1033 c 0.332467,0 0.60428,-0.24579 0.61102,-0.55429 0.07301,-3.22103 0.733449,-6.62513 1.068163,-7.54662 0.107825,-0.29645 -0.06515,-0.61734 -0.385257,-0.71687 -0.320113,-0.0995 -0.667181,0.0602 -0.773885,0.35649 -0.365041,1.00662 -1.055807,4.50177 -1.131061,7.88357 -0.0079,0.31252 0.26058,0.57102 0.598663,0.57761 0.0045,0 0.0079,0 0.01235,0"
       style="fill:#27b4bb;fill-opacity:1;fill-rule:nonzero;stroke:none;stroke-width:0.01119462"
       id="path21721"
       inkscape:connector-curvature="0" />
    <path
       d="m 32.423512,225.82652 c 5.893427,-0.51659 10.250315,-5.68246 9.729151,-11.53448 -0.520041,-5.85539 -5.720452,-10.18221 -11.61388,-9.66562 -5.892303,0.51546 -10.248069,5.68355 -9.726903,11.53781 0.52004,5.85093 5.718206,10.17887 11.611632,9.66229"
       style="fill:#070605;fill-opacity:1;fill-rule:nonzero;stroke:none;stroke-width:0.01119462"
       id="path21723"
       inkscape:connector-curvature="0" />
    <path
       d="m 38.807777,220.24337 c 0.580693,-0.0502 1.100734,-0.16959 1.543274,-0.35034 0.631236,-0.87139 1.420846,-2.43565 1.662333,-3.66965 -0.0034,-0.0346 -0.0045,-0.0781 -0.01124,-0.13279 -0.04829,-0.56233 -0.296527,-2.49477 -1.392769,-3.85597 -0.499823,-0.0246 -1.682551,-0.0401 -2.371074,0.02 -0.09884,0.008 -0.184202,0.0167 -0.254964,0.0291 -0.247104,1.66245 -1.597189,3.56589 -2.091396,4.21302 0.726709,1.07111 1.213056,2.39214 1.374796,3.7366 0.546996,0.0469 1.062544,0.0513 1.541029,0.01 z m -2.001541,-13.84628 c 0.521165,0.15174 1.153523,0.38046 1.86451,0.84126 -0.889574,-0.78993 -1.910562,-1.43707 -3.021405,-1.90009 0.433554,0.33806 0.819933,0.69175 1.156895,1.05883 z m 5.426174,9.19143 c 0.01796,-0.44071 0.0067,-0.89036 -0.0337,-1.34223 -0.169604,-1.91683 -0.840153,-3.66519 -1.869002,-5.13908 0.42457,1.02983 0.602031,2.02841 0.525657,2.97678 0.907543,1.1414 1.251243,2.61195 1.377042,3.50453 z m -17.014221,8.26538 c 1.797119,1.28086 3.996342,2.02394 6.339337,2.0072 0,0 0.0022,-0.002 0.0034,-0.003 0.368409,-0.17184 0.717725,-0.33361 1.070408,-0.46304 0.19993,-0.50654 0.523412,-1.56203 0.644717,-2.41556 -1.003017,-0.28117 -2.968614,-1.52411 -3.503258,-1.94362 -0.649209,0.27336 -1.564616,0.48535 -2.463175,0.56345 -0.741312,0.0658 -1.380413,0.0335 -1.816213,-0.0881 -0.165111,0.58241 -0.302141,1.53191 -0.275184,2.34193 z m 7.733226,1.51293 c 0.250474,0.058 0.50544,0.15621 0.749173,0.26666 2.743976,-0.5679 5.067875,-2.16006 6.595425,-4.3257 0,-0.13612 0.0013,-0.30237 0,-0.48647 -0.0013,-0.18632 0,-0.39497 -0.0013,-0.59803 -0.837906,0.30125 -1.90719,0.40277 -3.114629,0.28786 -0.579572,0.64378 -2.781041,2.23928 -3.615579,2.49256 -0.116812,0.83903 -0.415583,1.82646 -0.613266,2.36312 z m 7.379418,-4.10925 c -0.01009,0.0167 -0.02245,0.0313 -0.03481,0.0502 v 0.002 c 0.01235,-0.0178 0.02471,-0.0346 0.03481,-0.0513 z M 23.573825,209.77219 c -0.289785,-0.26443 -0.563845,-0.5322 -0.818812,-0.79998 -1.443311,2.0005 -2.203716,4.50646 -1.968968,7.15186 0.04829,0.54559 0.1404,1.0778 0.266199,1.5955 0.499823,-0.18632 1.167005,-0.29455 1.520811,-0.34252 0.129169,-0.62258 0.664934,-2.88975 1.737589,-4.27996 -0.387503,-0.75313 -0.954719,-2.11655 -0.736819,-3.3249 z m -0.818812,-0.79998 v 0 c 0.0011,-0.004 0.0034,-0.004 0.0045,-0.007 -0.0011,0.003 -0.0034,0.003 -0.0045,0.007 z m 13.718753,-2.51042 c -0.429061,-0.44406 -0.937869,-0.87473 -1.515195,-1.2764 -0.09884,-0.0702 -0.199929,-0.13835 -0.30551,-0.2064 -1.288309,-0.39497 -2.676582,-0.55341 -4.105292,-0.42957 -0.181958,0.0167 -0.360547,0.0379 -0.540258,0.0625 -0.663812,0.37043 -1.729728,1.09119 -2.439589,2.17569 0.648085,0.19748 2.062194,1.05661 2.740606,1.82646 0.403229,-0.12051 1.317512,-0.36597 2.403645,-0.46191 0.86374,-0.0759 1.661213,-0.0425 2.373321,0.10264 0.442542,-0.94726 0.897438,-1.53525 1.388272,-1.79299 z m -9.194506,14.8538 0.0057,0.0592 h 0.0034 l -0.0045,-0.0592 h 0.0022 c 0.874973,-0.0781 1.764546,-0.28228 2.391292,-0.55117 0.10221,-0.31241 0.205545,-0.62816 0.306633,-0.93946 0.331343,-1.01755 0.67055,-2.06968 1.069286,-3.05375 -0.578448,-0.56123 -2.203717,-2.23817 -2.777672,-3.87942 -0.580694,0.0523 -1.199577,0.10488 -1.802734,0.15508 -0.391998,0.0346 -0.775008,0.0658 -1.138925,0.0971 -0.28754,0.0256 -0.532395,0.0479 -0.750297,0.068 -0.615514,0.77208 -1.046821,1.86327 -1.302911,2.64764 -0.165111,0.50097 -0.279677,0.9428 -0.345945,1.2262 -0.04156,0.17293 -0.07076,0.30794 -0.08761,0.38938 0.79747,1.4315 1.744327,2.64207 2.649626,3.74107 0.391996,0.12831 1.037836,0.16512 1.782517,0.0993 z m 1.974584,-16.57314 c 0.0146,-0.003 0.03032,-0.005 0.04718,-0.0111 -0.0146,0.005 -0.03033,0.009 -0.04718,0.0111 z m 1.091749,4.15947 c -0.767146,1.22508 -1.337729,2.62086 -1.81509,3.83925 0.320112,0.96399 1.058054,1.96481 1.624145,2.63982 0.269569,0.32133 0.558231,0.64044 0.863741,0.95061 0.126922,0.12943 0.225764,0.22538 0.281923,0.27895 0.445911,-0.0291 0.880589,-0.0425 1.3411,-0.0614 0.75479,-0.0302 1.535413,-0.0603 2.41488,-0.13724 0.19431,-0.0179 0.391995,-0.0357 0.581817,-0.0546 0.04268,-0.0558 0.08986,-0.1205 0.142646,-0.18967 0.517793,-0.70292 1.734217,-2.48251 1.925163,-3.99657 -0.943489,-1.56761 -1.791504,-2.75252 -2.588974,-3.61721 -0.70537,-0.1551 -1.505088,-0.19303 -2.380059,-0.11604 -0.741312,0.0658 -1.393891,0.20194 -1.811721,0.3046 -0.239241,0.0592 -0.424569,0.11268 -0.540259,0.14837 -0.01348,0.003 -0.02696,0.007 -0.03931,0.0112 z m -1.091749,-4.15947 c -2.588974,0.54559 -4.805046,2.00162 -6.324735,3.99321 0.243734,0.26109 0.50544,0.51883 0.785116,0.77433 0.607651,-0.78882 2.571003,-2.48809 3.525722,-2.74136 0.552614,-0.90821 1.360194,-1.58324 2.013897,-2.02618"
       style="fill:#ece7e5;fill-opacity:1;fill-rule:nonzero;stroke:none;stroke-width:0.01119462"
       id="path21725"
       inkscape:connector-curvature="0" />
    <path
       d="m 24.26684,212.77686 c 1.082764,-5.65008 11.382501,-21.41945 15.18902,-24.03507 0.01911,-0.0367 -0.468373,2.58918 -0.785114,4.99258 -5.630598,7.07511 -12.14403,19.79115 -12.14403,19.79115 0.01124,1.3255 1.618529,2.83844 0.940118,3.08503 -0.44928,0.16401 -0.603157,-0.37937 -1.432078,-0.64267 -0.37515,-0.11829 -0.597544,0.79216 -0.668305,1.55198 -0.06851,0.73973 -0.06627,1.7863 -0.329097,1.99047 -0.435801,0.55563 -0.769391,-1.75617 -0.72671,-1.97039 -0.102211,1.77736 -1.175989,2.07639 -0.950226,-0.50544 -0.598666,1.14476 -1.054684,0.68507 -0.813196,-0.51992 0.484098,-2.4256 1.719618,-3.73772 1.719618,-3.73772"
       style="fill:#fabd99;fill-opacity:1;fill-rule:nonzero;stroke:none;stroke-width:0.01119462"
       id="path21727"
       inkscape:connector-curvature="0" />
    <path
       d="m 60.249647,187.79162 c 0.171849,0.67101 -1.145661,6.94368 -1.999292,8.42817 -0.451528,0.78436 -4.34903,0.60674 -4.739901,-1.14263 -0.531273,-2.37718 -0.212285,-7.11192 0.04718,-8.57455 1.005263,-0.72733 6.707745,0.12441 6.692021,1.28901"
       style="fill:#fab20b;fill-opacity:1;fill-rule:nonzero;stroke:none;stroke-width:0.01119462"
       id="path21729"
       inkscape:connector-curvature="0" />
    <path
       d="m 58.370536,186.29341 c 0,0 -0.95472,14.12099 -0.542507,15.82986 0.41334,1.70874 7.55576,16.71763 7.55576,16.71763 l -2.546292,1.09899 c 0,0 -7.467025,-15.31013 -7.880366,-17.70304 -0.413336,-2.39259 0.443667,-16.34812 0.443667,-16.34812 l 2.969738,0.40468"
       style="fill:#070605;fill-opacity:1;fill-rule:nonzero;stroke:none;stroke-width:0.01119462"
       id="path21731"
       inkscape:connector-curvature="0" />
    <path
       d="m 62.414053,192.97824 c 2.053208,2.09445 3.144957,3.25326 3.098906,3.92059 -0.12917,1.90869 -4.807293,4.44731 -4.824143,4.37602 -2.346359,0.11213 -2.600203,-1.99739 -2.956258,-1.27931 -0.236995,0.47554 -0.0629,1.20065 -0.104456,1.98981 -0.01799,0.33784 -0.668305,0.44752 -1.199579,0.38248 -0.825548,-0.12407 -1.295046,-0.4106 -1.411859,-0.44618 -0.671672,0.41338 -0.159495,1.10915 0.08424,1.08762 -0.475113,0.082 -0.37515,0.83055 0.248227,1.09386 -0.251595,0.3124 0.184203,0.98408 1.080517,1.09677 2.656364,0.33138 4.82751,-1.34557 4.82751,-1.34557 0.815443,-0.15063 7.236772,-2.69172 7.781522,-6.23652 0.322358,-2.09402 -4.480439,-6.99891 -7.250248,-9.4571 0.05616,-0.66765 0.516672,3.96544 0.625621,4.81753"
       style="fill:#fabd99;fill-opacity:1;fill-rule:nonzero;stroke:none;stroke-width:0.01119462"
       id="path21733"
       inkscape:connector-curvature="0" />
    <text
       xml:space="preserve"
       style="font-style:normal;font-weight:normal;font-size:10.58333302px;line-height:1.25;font-family:sans-serif;letter-spacing:0px;word-spacing:0px;fill:#000000;fill-opacity:1;stroke:none;stroke-width:0.26458332"
       x="76.70636"
       y="78.106247"
       id="text1058"><tspan
         sodipodi:role="line"
         id="tspan1056"
         x="76.70636"
         y="78.106247"
         style="font-style:normal;font-variant:normal;font-weight:bold;font-stretch:normal;font-size:12.69999981px;font-family:sans-serif;-inkscape-font-specification:'sans-serif Bold';stroke-width:0.26458332">See you later.</tspan></text>
    <g
       id="g21543"
       transform="matrix(0.01877846,0,0,-0.01899733,-56.263556,284.69007)">
      <path
         d="m 15930.8,1758.54 c 247.8,1.22 369.2,284.02 161.9,415.46 -207.3,131.45 -981,333.72 -1112.4,0 -131.5,-333.72 96.2,-412.57 303.3,-415.46 207.3,-2.82 647.2,0 647.2,0"
         style="fill:#f1d4b5;fill-opacity:1;fill-rule:nonzero;stroke:none"
         id="path21545"
         inkscape:connector-curvature="0" />
    </g>
    <g
       id="g21547"
       transform="matrix(0.01877846,0,0,-0.01899733,-56.263556,284.69007)">
      <path
         d="m 15588.3,1976.29 c 188.7,0.9 304.1,165.28 256.7,301.61 105.9,-32.56 195.1,-70.51 247.7,-103.9 207.3,-131.44 85.9,-414.24 -161.9,-415.46 0,0 -439.9,-2.82 -647.2,0 -184.3,2.57 -384.8,65.31 -334.2,314.13 195.9,-177.93 638.9,-96.38 638.9,-96.38"
         style="fill:#d6b697;fill-opacity:1;fill-rule:nonzero;stroke:none"
         id="path21549"
         inkscape:connector-curvature="0" />
    </g>
    <g
       id="g21735"
       transform="matrix(0.01700132,0,0,-0.01719947,-56.263556,284.69007)">
      <path
         d="m 14688.5,6607.35 c 107.7,34.95 1454.8,48.77 1533.1,0 78.4,-48.77 -169.2,-533.78 -766.5,-533.78 -597.4,0 -860,503.43 -766.6,533.78"
         style="fill:#070605;fill-opacity:1;fill-rule:nonzero;stroke:none"
         id="path21737"
         inkscape:connector-curvature="0" />
    </g>
    <g
       id="g21739"
       transform="matrix(0.01541963,0,0,-0.01559935,-56.263556,284.69007)">
      <path
         d="m 16177.2,4920.62 c 0,0 122.8,-225.45 85.7,-255.56 -44.2,-35.97 -45.6,53.49 -78.9,61.24 -54.2,-29.64 63.9,-228.35 24,-233.28 -24,-16.66 -64.9,24.56 -67.3,38.95 -4.8,-38.24 -59.9,0.7 -64.4,36.12 -14.3,-19.08 -44.2,26.28 -64,76.09 -58.7,147.49 7.5,270.42 7.5,270.42 l 157.4,6.02"
         style="fill:#6e4048;fill-opacity:1;fill-rule:nonzero;stroke:none"
         id="path21741"
         inkscape:connector-curvature="0" />
    </g>
    <g
       id="g21743"
       transform="matrix(0.01600615,0,0,-0.01619269,-56.263556,284.69007)">
      <path
         d="m 15987.8,4642.01 c 0,0 -7.8,-2206.57 -17.2,-2375.92 112,-28.71 182.4,-128.07 182.4,-128.07 l 147,2448.62 -312.2,55.37"
         style="fill:#6e4048;fill-opacity:1;fill-rule:nonzero;stroke:none"
         id="path21745"
         inkscape:connector-curvature="0" />
    </g>
    <g
       id="g21747"
       transform="matrix(0.0159426,0,0,-0.01612841,-56.263556,284.69007)">
      <path
         d="m 16046.5,3568.24 c -3.1,-586.17 -7.5,-1206.3 -12.4,-1293.13 112.5,-28.82 183.2,-128.58 183.2,-128.58 l 82.7,1376.71 c 0,0 -54,-22.31 -144.3,-4.77 -76.6,14.91 -109.2,49.77 -109.2,49.77"
         style="fill:#8eacca;fill-opacity:1;fill-rule:nonzero;stroke:none"
         id="path21749"
         inkscape:connector-curvature="0" />
    </g>
    <g
       id="g21751"
       transform="matrix(0.01596201,0,0,-0.01614805,-56.263556,284.69007)">
      <path
         d="m 16014.7,3659.32 v -251.86 c 0,0 124.9,-98.51 265.5,-19.57 15.3,208.65 19.8,255.04 19.8,255.04 0,0 -149,-65.5 -285.3,16.39"
         style="fill:#ed1c24;fill-opacity:1;fill-rule:nonzero;stroke:none"
         id="path21753"
         inkscape:connector-curvature="0" />
    </g>
    <g
       id="g21755"
       transform="matrix(0.01601181,0,0,-0.01619843,-56.263556,284.69007)">
      <path
         d="m 16179.6,2211.13 c 120.4,-166.8 -302.9,-458.25 -492.8,-365.62 -145.2,44.58 -78.7,195.5 -78.7,195.5 l 571.5,170.12"
         style="fill:#ffffff;fill-opacity:1;fill-rule:nonzero;stroke:none"
         id="path21757"
         inkscape:connector-curvature="0" />
    </g>
    <g
       id="g21759"
       transform="matrix(0.01592886,0,0,-0.01611451,-56.263556,284.69007)">
      <path
         d="m 16261.3,2398.58 c 14.5,-36.94 38.7,-126.87 -2,-202.57 -163.3,-194.02 -280.6,-304.24 -487.7,-247.62 -162.4,44.44 -54.3,182.29 31.3,236.94 85.4,54.74 248.6,206.82 248.6,206.82 0,0 63.4,-64.42 209.8,6.43"
         style="fill:#ed1c24;fill-opacity:1;fill-rule:nonzero;stroke:none"
         id="path21761"
         inkscape:connector-curvature="0" />
    </g>
    <g
       id="g21763"
       transform="matrix(0.01597733,0,0,-0.01616354,-56.263556,284.69007)">
      <path
         d="m 16002.7,2384.88 c -106.3,127.17 297.3,107.17 154.4,-14.94 -24.3,-24.91 -125.4,-19.55 -154.4,14.94"
         style="fill:#ed1c24;fill-opacity:1;fill-rule:nonzero;stroke:none"
         id="path21765"
         inkscape:connector-curvature="0" />
    </g>
    <g
       id="g21767"
       transform="matrix(0.01583684,0,0,-0.01602142,-56.263556,284.69007)">
      <path
         d="m 16229.8,2275.99 c -5.3,0 -10.6,2.51 -13.9,7.16 -26.5,37.99 -89.1,66.54 -148.1,48.88 -8.9,-2.66 -18.4,2.36 -21,11.27 -2.7,8.91 2.3,18.35 11.2,21.01 71.1,37.09 242,-62.51 171.8,-88.32"
         style="fill:#ffffff;fill-opacity:1;fill-rule:nonzero;stroke:none"
         id="path21769"
         inkscape:connector-curvature="0" />
    </g>
    <g
       id="g21771"
       transform="matrix(0.01577451,0,0,-0.01595836,-56.263556,284.69007)">
      <path
         d="m 16229.5,2228.8 c -5.3,0 -10.6,2.53 -13.9,7.27 -26.6,38.06 -89.5,66.81 -148.7,49 -9,-2.68 -18.5,2.37 -21.1,11.31 -2.8,8.94 2.3,18.42 11.3,21.1 71.3,37.3 242.9,-62.76 172.4,-88.68"
         style="fill:#ffffff;fill-opacity:1;fill-rule:nonzero;stroke:none"
         id="path21773"
         inkscape:connector-curvature="0" />
    </g>
    <g
       id="g21775"
       transform="matrix(0.01571217,0,0,-0.01589529,-56.263556,284.69007)">
      <path
         d="m 16229.2,2181.24 c -5.3,0 -10.6,2.54 -13.9,7.29 -26.7,38.22 -89.9,67.16 -149.4,49.2 -9,-2.69 -18.5,2.38 -21.2,11.36 -2.7,9.05 2.4,18.49 11.4,21.25 71.6,37.38 243.9,-63.08 173.1,-89.1"
         style="fill:#ffffff;fill-opacity:1;fill-rule:nonzero;stroke:none"
         id="path21777"
         inkscape:connector-curvature="0" />
    </g>
    <g
       id="g21779"
       transform="matrix(0.01654962,0,0,-0.01674251,-56.263556,284.69007)">
      <path
         d="m 16283.4,4489.58 c 0,0 7.5,-2134.11 16.6,-2297.91 -108.3,-27.75 -176.5,-123.86 -176.5,-123.86 l -142.1,2368.22 302,53.55"
         style="fill:#6e4048;fill-opacity:1;fill-rule:nonzero;stroke:none"
         id="path21781"
         inkscape:connector-curvature="0" />
    </g>
    <g
       id="g21783"
       transform="matrix(0.01654962,0,0,-0.01674251,-56.263556,284.69007)">
      <path
         d="m 16039.8,3392.87 85,-1323.46 c 9.3,12.46 75,96.54 175.2,122.26 -4.7,83.58 -8.9,680.02 -11.9,1244.26 -28.3,-56.32 -204.3,-68.49 -248.3,-43.06"
         style="fill:#8eacca;fill-opacity:1;fill-rule:nonzero;stroke:none"
         id="path21785"
         inkscape:connector-curvature="0" />
    </g>
    <g
       id="g21787"
       transform="matrix(0.01654407,0,0,-0.01673688,-56.263556,284.69007)">
      <path
         d="m 16300,3530.6 v -243 c 0,0 -120.6,-95.05 -256.1,-18.88 -14.9,201.31 -13.7,246.06 -13.7,246.06 0,0 138.3,-63.19 269.8,15.82"
         style="fill:#ed1c24;fill-opacity:1;fill-rule:nonzero;stroke:none"
         id="path21789"
         inkscape:connector-curvature="0" />
    </g>
    <g
       id="g21791"
       transform="matrix(0.01696526,0,0,-0.01716299,-56.263556,284.69007)">
      <path
         d="m 15697.9,2086.86 c -113.6,-157.43 286,-432.49 465.1,-345.07 137,42.08 74.3,184.51 74.3,184.51 l -539.4,160.56"
         style="fill:#ffffff;fill-opacity:1;fill-rule:nonzero;stroke:none"
         id="path21793"
         inkscape:connector-curvature="0" />
    </g>
    <g
       id="g21795"
       transform="matrix(0.01697853,0,0,-0.01717641,-56.263556,284.69007)">
      <path
         d="m 15688.1,2250.29 c -13.5,-34.66 -36.2,-119.04 1.8,-190.06 153.4,-182.02 263.3,-285.43 457.7,-232.3 152.4,41.69 50.9,171.02 -29.4,222.29 -80.1,51.35 -233.2,194.03 -233.2,194.03 0,0 -59.5,-60.44 -196.9,6.04"
         style="fill:#ed1c24;fill-opacity:1;fill-rule:nonzero;stroke:none"
         id="path21797"
         inkscape:connector-curvature="0" />
    </g>
    <g
       id="g21799"
       transform="matrix(0.01665054,0,0,-0.0168446,-56.263556,284.69007)">
      <path
         d="m 16198,2288.46 c 102,122.03 -285.3,102.84 -148.2,-14.34 23.2,-23.9 120.3,-18.75 148.2,14.34"
         style="fill:#ed1c24;fill-opacity:1;fill-rule:nonzero;stroke:none"
         id="path21801"
         inkscape:connector-curvature="0" />
    </g>
    <g
       id="g21803"
       transform="matrix(0.01664403,0,0,-0.01683802,-56.263556,284.69007)">
      <path
         d="m 16123.3,2165.61 c 5.1,0 10.1,2.4 13.2,6.82 25.1,36.15 84.7,63.32 140.9,46.51 8.5,-2.54 17.5,2.24 20.1,10.72 2.5,8.48 -2.4,17.46 -10.8,19.99 -67.6,35.29 -230.3,-59.47 -163.4,-84.04"
         style="fill:#ffffff;fill-opacity:1;fill-rule:nonzero;stroke:none"
         id="path21805"
         inkscape:connector-curvature="0" />
    </g>
    <g
       id="g21807"
       transform="matrix(0.01670637,0,0,-0.01690108,-56.263556,284.69007)">
      <path
         d="m 16124,2104.48 c 5,0 10,2.38 13.1,6.86 25.1,35.94 84.4,63.08 140.5,46.26 8.4,-2.52 17.3,2.24 19.9,10.69 2.5,8.44 -2.3,17.39 -10.8,19.92 -67.3,35.22 -229.4,-59.26 -162.7,-83.73"
         style="fill:#ffffff;fill-opacity:1;fill-rule:nonzero;stroke:none"
         id="path21809"
         inkscape:connector-curvature="0" />
    </g>
    <g
       id="g21811"
       transform="matrix(0.01676871,0,0,-0.01696415,-56.263556,284.69007)">
      <path
         d="m 16124.6,2043.8 c 5,0 10,2.37 13.1,6.83 25,35.81 84.1,62.92 139.9,46.1 8.5,-2.52 17.4,2.23 19.9,10.64 2.5,8.49 -2.2,17.33 -10.7,19.92 -67.1,35.02 -228.5,-59.11 -162.2,-83.49"
         style="fill:#ffffff;fill-opacity:1;fill-rule:nonzero;stroke:none"
         id="path21813"
         inkscape:connector-curvature="0" />
    </g>
    <g
       id="g21815"
       transform="matrix(0.01684818,0,0,-0.01704455,-56.263556,284.69007)">
      <path
         d="m 15603.4,4634.8 c 1.4,0.36 356.4,0.93 667.4,66.99 7.7,-167.47 29.2,-593.31 26.8,-687.36 -9.1,-46.23 -308.7,-72.28 -627.8,-75.36 -22.2,-0.21 -44.6,242.98 -67,242.98 -21.7,0 -43.3,-243.12 -65,-242.91 -302.3,3.22 -588.7,27.49 -628.6,75.29 -4.7,94.05 2.1,245.85 26.7,687.36 311.1,-66.06 666.1,-66.63 667.5,-66.99"
         style="fill:#fab20b;fill-opacity:1;fill-rule:nonzero;stroke:none"
         id="path21817"
         inkscape:connector-curvature="0" />
    </g>
    <g
       id="g21819"
       transform="matrix(0.01573592,0,0,-0.01591932,-56.263556,284.69007)">
      <path
         d="m 16030,4572.9 c 138.8,-17.09 270,101.53 268.2,240.99 0.5,36.48 -56.1,36.48 -56.7,0 1.2,-109.73 -103,-199.92 -211.5,-184.37 -36.4,0.77 -36.7,-56.39 0,-56.62"
         style="fill:#ed1c24;fill-opacity:1;fill-rule:nonzero;stroke:none"
         id="path21821"
         inkscape:connector-curvature="0" />
    </g>
    <g
       id="g21823"
       transform="matrix(0.01609575,0,0,-0.01628334,-56.263556,284.69007)">
      <path
         d="m 16264.2,4095.64 c -206.3,10.56 -725.4,-1.8 -675.8,127.73 11.7,9.82 29.2,8.24 39,-3.52 21.1,-25.17 208,-64.35 637.1,-68.85 35.5,0.15 35.5,-55.96 -0.3,-55.36"
         style="fill:#ed1c24;fill-opacity:1;fill-rule:nonzero;stroke:none"
         id="path21825"
         inkscape:connector-curvature="0" />
    </g>
    <g
       id="g21827"
       transform="matrix(0.0169918,0,0,-0.01718983,-56.263556,284.69007)">
      <path
         d="m 15537.4,3879.6 c -33.6,-0.5 -34.2,52.58 -0.2,52.44 440,6.67 547.4,30.52 627.8,74.23 135,-121.85 -500,-123.48 -627.6,-126.67"
         style="fill:#ed1c24;fill-opacity:1;fill-rule:nonzero;stroke:none"
         id="path21829"
         inkscape:connector-curvature="0" />
    </g>
    <g
       id="g21831"
       transform="matrix(0.01655648,0,0,-0.01674945,-56.263556,284.69007)">
      <path
         d="m 15510.8,6323.56 c 0,0 139.4,17.07 240.6,26.21 9.5,105.69 0,254.87 0,254.87 l 258.4,20.29 c 0,0 2.2,-204.07 0,-273.47 106.1,-21.8 238,-33.62 290.2,-39.87 -115.4,-335.86 -762.5,-399.08 -789.2,11.97"
         style="fill:#6e4048;fill-opacity:1;fill-rule:nonzero;stroke:none"
         id="path21833"
         inkscape:connector-curvature="0" />
    </g>
    <g
       id="g21835"
       transform="matrix(0.0162455,0,0,-0.01643485,-56.263556,284.69007)">
      <path
         d="m 16071.5,6619.85 -0.1,-83.01 c 0,0 125.7,64.98 228.6,0 -3.2,48.86 -3.2,94.44 -3.2,94.44 l -225.3,-11.43"
         style="fill:#432528;fill-opacity:1;fill-rule:nonzero;stroke:none"
         id="path21837"
         inkscape:connector-curvature="0" />
    </g>
    <g
       id="g21839"
       transform="matrix(0.01703785,0,0,-0.01723643,-56.263556,284.69007)">
      <path
         d="m 16128,4613.23 c 172,319.9 -74.7,1292.01 -113.6,1483.03 -39,12.69 -221.4,58.42 -265.7,57.64 0.5,-197.68 -247.7,-279.78 -321.2,-281.81 -51.9,0 -319.2,87.71 -311.8,281.81 -44.2,0.78 -226.6,-44.95 -265.6,-57.64 -23.5,-161.32 -236.5,-1188.54 -79.2,-1483.03 188.3,-76.43 1008.5,-99.79 1357.1,0"
         style="fill:#bfdce3;fill-opacity:1;fill-rule:nonzero;stroke:none"
         id="path21841"
         inkscape:connector-curvature="0" />
    </g>
    <g
       id="g21843"
       transform="matrix(0.01587544,0,0,-0.01606047,-56.263556,284.69007)">
      <path
         d="m 15849.2,6503.71 c -238.7,-321.36 -16.6,-1727.62 -16.6,-1727.62 0,0 134.7,-51.88 467.4,-41.09 -37,575.36 -3,1880.72 -3,1880.72 0,0 -317.5,-4.97 -447.8,-112.01"
         style="fill:#4a6cbd;fill-opacity:1;fill-rule:nonzero;stroke:none"
         id="path21845"
         inkscape:connector-curvature="0" />
    </g>
    <g
       id="g21847"
       transform="matrix(0.01578307,0,0,-0.01596702,-56.263556,284.69007)">
      <path
         d="m 16299,5743.9 c 1,-69.18 -107.6,-69.18 -106.6,0.01 -1,69.18 107.6,69.18 106.6,-0.01"
         style="fill:#ed1c24;fill-opacity:1;fill-rule:nonzero;stroke:none"
         id="path21849"
         inkscape:connector-curvature="0" />
    </g>
    <g
       id="g21851"
       transform="matrix(0.01578307,0,0,-0.01596702,-56.263556,284.69007)">
      <path
         d="m 16299,5411.2 c 1,-69.21 -107.6,-69.21 -106.6,0 -1,69.18 107.6,69.18 106.6,0"
         style="fill:#ed1c24;fill-opacity:1;fill-rule:nonzero;stroke:none"
         id="path21853"
         inkscape:connector-curvature="0" />
    </g>
    <g
       id="g21855"
       transform="matrix(0.01578307,0,0,-0.01596702,-56.263556,284.69007)">
      <path
         d="m 16299,5078.48 c 1,-69.22 -107.6,-69.22 -106.6,0 -1,69.22 107.6,69.22 106.6,0"
         style="fill:#ed1c24;fill-opacity:1;fill-rule:nonzero;stroke:none"
         id="path21857"
         inkscape:connector-curvature="0" />
    </g>
    <g
       id="g21859"
       transform="matrix(0.01706209,0,0,-0.01726095,-56.263556,284.69007)">
      <path
         d="m 16077.9,6051.38 c 222.1,-299.01 15.5,-1607.47 15.5,-1607.47 0,0 -125.4,-48.27 -435,-38.23 34.5,535.35 2.9,1749.92 2.9,1749.92 0,0 295.3,-4.62 416.6,-104.22"
         style="fill:#4a6cbd;fill-opacity:1;fill-rule:nonzero;stroke:none"
         id="path21861"
         inkscape:connector-curvature="0" />
    </g>
    <g
       id="g21863"
       transform="matrix(0.01536718,0,0,-0.01554628,-56.263556,284.69007)">
      <path
         d="m 16259,5052.48 c 0,0 41,-102.09 28.8,-134.18 -37.5,-32.88 -239.8,-91.26 -307.6,-38.69 -16.5,36.57 -16.5,134.26 -16.5,134.26 l 295.3,38.61"
         style="fill:#ed1c24;fill-opacity:1;fill-rule:nonzero;stroke:none"
         id="path21865"
         inkscape:connector-curvature="0" />
    </g>
    <g
       id="g21867"
       transform="matrix(0.01547715,0,0,-0.01565754,-56.263556,284.69007)">
      <path
         d="m 16264.4,6104.45 c 0,-11.69 -64.2,-286.23 -67.3,-525.72 -3.1,-239.48 102.9,-525.96 -85.8,-602.55 -747.9,-238.32 -768.1,1007.77 153.1,1694.86 0,-373.83 0,-566.59 0,-566.59"
         style="fill:#8eacca;fill-opacity:1;fill-rule:nonzero;stroke:none"
         id="path21869"
         inkscape:connector-curvature="0" />
    </g>
    <g
       id="g21871"
       transform="matrix(0.01530761,0,0,-0.01548602,-56.263556,284.69007)">
      <path
         d="m 16234,6060.36 c -72.6,-218.65 -323.9,-139.34 -257.9,81.35 72.5,218.64 323.9,139.33 257.9,-81.35"
         style="fill:#4a6cbd;fill-opacity:1;fill-rule:nonzero;stroke:none"
         id="path21873"
         inkscape:connector-curvature="0" />
    </g>
    <g
       id="g21875"
       transform="matrix(0.0157821,0,0,-0.01596605,-56.263556,284.69007)">
      <path
         d="m 15920.1,6511.99 c -11,-43.64 -0.5,-368.21 20.8,-445.95 15.6,-56.66 274.7,-57.94 300,55.84 34.3,154.63 54.4,410.96 59.1,515.43 -6.3,51.38 -357.6,-17.54 -379.9,-125.32"
         style="fill:#070605;fill-opacity:1;fill-rule:nonzero;stroke:none"
         id="path21877"
         inkscape:connector-curvature="0" />
    </g>
    <g
       id="g21879"
       transform="matrix(0.01566996,0,0,-0.0158526,-56.263556,284.69007)">
      <path
         d="m 16117.5,6639.56 c -22,-263.11 -93.1,-770.01 -119.7,-1049.86 151.1,307.34 293.4,539.78 302.2,1106.72 -21.3,38.79 -165.5,-2.43 -182.5,-56.86"
         style="fill:#ed1c24;fill-opacity:1;fill-rule:nonzero;stroke:none"
         id="path21881"
         inkscape:connector-curvature="0" />
    </g>
    <g
       id="g21883"
       transform="matrix(0.01733316,0,0,-0.01753518,-56.263556,284.69007)">
      <path
         d="m 15489.7,4160.07 c 10.3,1.59 810.3,192.21 808.9,202.23 l -90.3,671.46 c -1.3,10.05 -10.8,16.92 -21.1,15.36 l -865.6,-132.57 c -10.3,-1.55 -17.6,-10.97 -16.3,-21.05 l 86.8,-644.58 c 1.7,-44.8 70.7,-67.2 97.6,-90.85"
         style="fill:#3a5bb2;fill-opacity:1;fill-rule:nonzero;stroke:none"
         id="path21885"
         inkscape:connector-curvature="0" />
    </g>
    <g
       id="g21887"
       transform="matrix(0.01734642,0,0,-0.0175486,-56.263556,284.69007)">
      <path
         d="m 15482,4188.47 c 10.2,1.6 818,179.41 816.7,189.49 l -32.5,555.79 c -1.3,10.05 -62.3,85.39 -72.6,83.84 l -853.7,-130.73 c -10.3,-1.6 -17.6,-11.01 -16.3,-21.04 l 82,-609.37 c 2.3,-16.48 7.3,-21.2 23.1,-30.31 l 53.3,-37.67"
         style="fill:#f4ede3;fill-opacity:1;fill-rule:nonzero;stroke:none"
         id="path21889"
         inkscape:connector-curvature="0" />
    </g>
    <g
       id="g21891"
       transform="matrix(0.0174277,0,0,-0.01763082,-56.263556,284.69007)">
      <path
         d="m 16282.4,4264.13 c 10.3,1.52 17.6,10.93 16.2,20.97 l -83.6,621.37 c -1.3,9.97 -10.8,16.82 -21,15.25 l -860.9,-131.81 c -10.2,-1.52 -17.5,-11 -16.1,-20.97 l 83.6,-621.4 c 1.3,-9.96 10.7,-16.81 21,-15.21 l 860.8,131.8"
         style="fill:#3a5bb2;fill-opacity:1;fill-rule:nonzero;stroke:none"
         id="path21893"
         inkscape:connector-curvature="0" />
    </g>
    <g
       id="g21895"
       transform="matrix(0.01748545,0,0,-0.01768925,-56.263556,284.69007)">
      <path
         d="m 15479.3,4062.67 c 10.3,0.28 820.7,88.9 820.6,98.96 l -5.9,671.6 c -0.1,10.05 -8.6,17.97 -18.9,17.7 l -867.7,-23.43 c -10.3,-0.25 -18.7,-8.59 -18.6,-18.73 l 5.7,-644.65 c -3.8,-44.28 61.2,-74.83 84.8,-101.45"
         style="fill:#070605;fill-opacity:1;fill-rule:nonzero;stroke:none"
         id="path21897"
         inkscape:connector-curvature="0" />
    </g>
    <g
       id="g21899"
       transform="matrix(0.01754044,0,0,-0.01774488,-56.263556,284.69007)">
      <path
         d="m 15438.5,4080.4 c 10.4,0.34 824.9,75.21 824.8,85.24 l 36.7,549.42 c -0.1,10.03 -50.7,91.43 -61,91.22 l -853.7,-23.1 c -10.4,-0.27 -18.7,-8.59 -18.6,-18.63 l 5.3,-607.98 c 0.2,-16.5 4.5,-21.73 19,-32.59 l 47.5,-43.58"
         style="fill:#f4ede3;fill-opacity:1;fill-rule:nonzero;stroke:none"
         id="path21901"
         inkscape:connector-curvature="0" />
    </g>
    <g
       id="g21903"
       transform="matrix(0.01757204,0,0,-0.01777683,-56.263556,284.69007)">
      <path
         d="m 16281.4,4058.86 c 10.3,0.27 18.6,8.57 18.5,18.66 l -5.5,621.79 c 0,10.01 -8.5,17.91 -18.8,17.63 l -863.4,-23.33 c -10.3,-0.21 -18.6,-8.58 -18.5,-18.6 l 5.5,-621.78 c 0,-10.02 8.4,-17.91 18.7,-17.64 l 863.5,23.27"
         style="fill:#070605;fill-opacity:1;fill-rule:nonzero;stroke:none"
         id="path21905"
         inkscape:connector-curvature="0" />
    </g>
    <g
       id="g21907"
       transform="matrix(0.0171758,0,0,-0.01737598,-56.263556,284.69007)">
      <path
         d="m 16089.1,4417.49 c -28.5,-73.92 -140.7,-171.02 -108.2,-198.95 21.5,-18.61 51.5,34.46 102.2,24.5 17.7,-3.51 16.3,-33.21 5.8,-59.75 -17.4,-40.79 -42.9,-41.84 -46.3,-47.39 12.5,-40.15 75.2,-26.18 77.4,-13.34 -2.1,-25.55 33.8,-22.53 55.8,6.11 12.9,-17.2 53.7,-6.32 71.5,38.33 52.7,132.41 -16.8,245.09 -16.8,245.09 0,0 -109.5,4.49 -141.4,5.4"
         style="fill:#6e4048;fill-opacity:1;fill-rule:nonzero;stroke:none"
         id="path21909"
         inkscape:connector-curvature="0" />
    </g>
    <g
       id="g21911"
       transform="matrix(0.01721584,0,0,-0.01741648,-56.263556,284.69007)">
      <path
         d="m 16036.4,4509.93 c 0,0 -36.6,-91.13 -25.7,-119.78 33.4,-29.34 214,-81.45 274.6,-34.53 14.7,32.64 14.7,119.84 14.7,119.84 l -263.6,34.47"
         style="fill:#ed1c24;fill-opacity:1;fill-rule:nonzero;stroke:none"
         id="path21913"
         inkscape:connector-curvature="0" />
    </g>
    <g
       id="g21915"
       transform="matrix(0.0176972,0,0,-0.01790346,-56.263556,284.69007)">
      <path
         d="m 15494.4,5338.69 c 0,-10.22 56.1,-250.32 58.8,-459.77 2.7,-209.44 -90,-459.98 75,-526.96 654.2,-208.43 671.8,881.35 -133.8,1482.25 0,-326.94 0,-495.52 0,-495.52"
         style="fill:#8eacca;fill-opacity:1;fill-rule:nonzero;stroke:none"
         id="path21917"
         inkscape:connector-curvature="0" />
    </g>
    <g
       id="g21919"
       transform="matrix(0.01747822,0,0,-0.01768192,-56.263556,284.69007)">
      <path
         d="m 16300,4894.15 c -13.7,165.25 -68.9,353.37 -173.2,535.39 -67.5,-18.93 -195,-38.46 -195,-38.46 l 161.6,-545.23 206.6,48.3"
         style="fill:#bfdce3;fill-opacity:1;fill-rule:nonzero;stroke:none"
         id="path21921"
         inkscape:connector-curvature="0" />
    </g>
    <g
       id="g21923"
       transform="matrix(0.01686855,0,0,-0.01706516,-56.263556,284.69007)">
      <path
         d="m 16289.6,6092.56 c 10.4,-40.84 0.6,-344.5 -19.4,-417.23 -14.6,-53.01 -257,-54.22 -280.7,52.25 -32,144.66 -50.9,384.48 -55.3,482.22 6,48.07 334.6,-16.41 355.4,-117.24"
         style="fill:#070605;fill-opacity:1;fill-rule:nonzero;stroke:none"
         id="path21925"
         inkscape:connector-curvature="0" />
    </g>
    <g
       id="g21927"
       transform="matrix(0.01689267,0,0,-0.01708956,-56.263556,284.69007)">
      <path
         d="m 16188.9,6158.99 c 20.4,-244.07 86.4,-714.28 111.1,-973.87 -140.2,285.09 -272.2,500.71 -280.4,1026.61 19.9,35.99 153.6,-2.25 169.3,-52.74"
         style="fill:#ed1c24;fill-opacity:1;fill-rule:nonzero;stroke:none"
         id="path21929"
         inkscape:connector-curvature="0" />
    </g>
    <g
       id="g21939"
       transform="matrix(0.01902313,0,0,-0.01924484,-56.263556,284.69007)">
      <path
         d="m 12436.5,7620.87 c -81.8,83.05 -46.2,299.19 65.7,238.52 -87,63.17 -54.5,316.78 74.1,239.98 -98.3,81.01 -12.8,302.4 141.5,205.88 -68.2,55.62 31.2,228.73 145.8,122.72 -56.5,105.3 48.2,318.8 223.2,211.69 -94.9,158.04 67.8,258.7 178.5,160.22 -140.6,130.55 107.7,342.12 182.4,166.9 -2,136.29 223.2,188.15 314.8,80.92 -24.9,183.47 284.5,284.12 374,64.66 23,151.41 258.3,225.23 309.9,8.76 68.5,141.08 240.1,117.07 264.9,-72.48 81.7,98.59 277.9,145.34 290.8,-93.91 78.8,86.22 324.1,0.31 310.7,-153.9 92.7,95.98 355,-29.81 276.8,-260.46 117,50.9 332.8,-96.79 213.1,-290.65 133.1,20.78 309.2,-143.79 130.4,-265.88 169.6,7.85 337.7,-204.44 140.1,-296.39 158.4,-12.05 128,-192.42 -26.6,-286.43 80.1,-5.96 253.4,-127.66 -17.3,-286.23 155.5,-15.97 164.8,-222.47 -24.5,-208.7 107.3,-38.68 125.4,-302.88 -94.4,-280.87 4,-6.97 7.4,-13.74 10.5,-20.34 1.6,1.18 2.5,2.51 2.8,3.97 123.3,-162.78 -62.7,-280.19 -172.9,-192.89 -1.4,-0.28 -3,-0.56 -4.5,-0.84 48.7,-105.21 -4.4,-295.8 -171.4,-193.51 92.9,-154.83 -162.1,-272.62 -270.6,-176.13 137.9,-127.91 -146.2,-259.4 -219.4,-87.73 1.9,-133.52 -218.7,-184.33 -308.4,-79.28 24.4,-179.74 -278.6,-278.34 -366.3,-63.35 -22.5,-148.32 -253.1,-220.64 -303.6,-8.57 -67.2,-138.21 -235.3,-114.7 -259.5,71 -80.1,-96.59 -272.3,-142.38 -285,92 -77.1,-84.47 -317.5,-0.31 -304.3,150.77 -90.9,-94.03 -347.8,29.2 -271.2,255.15 -114.6,-49.85 -326,94.82 -208.7,284.74 -130.5,-20.36 -362.9,79.48 -187.7,199.08 -159.5,-7.38 -248.8,191.21 -84.9,286.88 -130.5,88.18 -168.5,168.77 -70.1,231.06 -158,29.79 -127.4,238.58 1.3,243.64"
         style="fill:#240f10;fill-opacity:1;fill-rule:nonzero;stroke:none"
         id="path21941"
         inkscape:connector-curvature="0" />
    </g>
    <g
       id="g21943"
       transform="matrix(0.01858505,0,0,-0.01880166,-56.263556,284.69007)">
      <path
         d="m 16299,6764.6 c -4.2,5.54 -8.7,11.13 -13.6,16.76 10.3,-6.86 14.6,-12.4 13.6,-16.76"
         style="fill:#4b1d23;fill-opacity:1;fill-rule:nonzero;stroke:none"
         id="path21945"
         inkscape:connector-curvature="0" />
    </g>
    <g
       id="g21947"
       transform="matrix(0.0181864,0,0,-0.01839837,-56.263556,284.69007)">
      <path
         d="M 15937,6884.62 C 15609,5279.41 12804.7,5686.51 13252.7,7431.47 13619.5,9221.88 16300,8675.76 15937,6884.62"
         style="fill:#6e4048;fill-opacity:1;fill-rule:nonzero;stroke:none"
         id="path21949"
         inkscape:connector-curvature="0" />
    </g>
    <g
       id="g21951"
       transform="matrix(0.01550187,0,0,-0.01568255,-56.263556,284.69007)">
      <path
         d="m 16110.5,9277.64 c 168,34.9 189.5,-148.44 80.2,-141.16 -117.1,8 -218.1,-27.87 -231.8,-15.56 -30.6,27.19 57.2,137.21 151.6,156.72"
         style="fill:#240f10;fill-opacity:1;fill-rule:nonzero;stroke:none"
         id="path21953"
         inkscape:connector-curvature="0" />
    </g>
    <g
       id="g21955"
       transform="matrix(0.01693741,0,0,-0.01713482,-56.263556,284.69007)">
      <path
         d="m 16164.7,8211.28 c -142.4,66.25 -199.9,-92.66 -101,-109 106.1,-17.3 188.6,-70.34 203.4,-62.27 32.9,17.82 -22.3,134.18 -102.4,171.27"
         style="fill:#240f10;fill-opacity:1;fill-rule:nonzero;stroke:none"
         id="path21957"
         inkscape:connector-curvature="0" />
    </g>
    <g
       id="g21959"
       transform="matrix(0.01548101,0,0,-0.01566144,-56.263556,284.69007)">
      <path
         d="m 16030.7,8902.91 c -194.5,32.61 -317.5,-180.16 -315.8,-169.63 26.1,155.8 172.7,261.51 326.8,235.71 154.2,-25.83 258.3,-173.56 232.3,-329.32 -1.8,-10.52 -35.2,228.37 -243.3,263.24"
         style="fill:#070605;fill-opacity:1;fill-rule:nonzero;stroke:none"
         id="path21961"
         inkscape:connector-curvature="0" />
    </g>
    <g
       id="g21963"
       transform="matrix(0.01687013,0,0,-0.01706674,-56.263556,284.69007)">
      <path
         d="m 16052.9,7922.5 c -178.5,29.9 -291.4,-165.34 -289.8,-155.65 24,142.95 158.5,239.97 299.9,216.29 141.4,-23.72 237,-159.28 213.1,-302.16 -1.6,-9.7 -32.3,209.6 -223.2,241.52"
         style="fill:#070605;fill-opacity:1;fill-rule:nonzero;stroke:none"
         id="path21965"
         inkscape:connector-curvature="0" />
    </g>
    <g
       id="g21967"
       transform="matrix(0.01649608,0,0,-0.01668834,-56.263556,284.69007)">
      <path
         d="m 14983.9,7799.05 c -34.2,-455.18 189.2,-848.91 528.8,-903.98 339.6,-55.08 675.9,247.91 787.3,690.56 l -1316.1,213.42"
         style="fill:#070605;fill-opacity:1;fill-rule:nonzero;stroke:none"
         id="path21969"
         inkscape:connector-curvature="0" />
    </g>
    <g
       id="g21971"
       transform="matrix(0.01614156,0,0,-0.01632969,-56.263556,284.69007)">
      <path
         d="m 15469.8,7307.91 c 95,-140.12 227.1,-236.01 383.6,-261.39 156.5,-25.37 312.2,23.83 446.6,126.77 -107.1,65.58 -246.4,117.07 -403,142.46 -156.5,25.39 -304.9,20.55 -427.2,-7.84"
         style="fill:#ee5b63;fill-opacity:1;fill-rule:nonzero;stroke:none"
         id="path21973"
         inkscape:connector-curvature="0" />
    </g>
    <g
       id="g21975"
       transform="matrix(0.01649029,0,0,-0.01668248,-56.263556,284.69007)">
      <path
         d="m 15618.5,7516.05 c 327.5,-53.11 606.8,-47.05 681.5,73.2 l -1305,211.64 c 32.8,-137.7 295.9,-231.73 623.5,-284.84"
         style="fill:#fef0f4;fill-opacity:1;fill-rule:nonzero;stroke:none"
         id="path21977"
         inkscape:connector-curvature="0" />
    </g>
    <g
       id="g21979"
       transform="matrix(0.01813648,0,0,-0.01834786,-56.263556,284.69007)">
      <path
         d="m 16190.2,7084.56 c -67.5,-196.7 -441.6,-231.79 -403.5,52.01 -214.7,-76.94 -118.8,206.53 -67.3,237.85 -87.1,-36.28 -228.7,113.6 -84.5,252.41 -142.4,-22.84 -122.6,129.96 -66.3,198.64 -99.5,-34.72 -221.2,152.03 -118.5,211.67 -119.2,-41.59 -223.1,161.89 -213.4,236.6 -70.8,-180.74 -169.2,-119.54 -222.5,-17.77 17.2,-87.63 -146.8,-178.35 -238.8,-55.63 11.2,-134.32 -267.3,-201.42 -344.9,-44.18 -58.7,-87.36 -209.8,-73.86 -184.6,97.15 -105.7,-132.11 -184,35.42 -134.6,123.98 -197.8,-77.22 -130.5,123.15 -130.5,123.15 0,0 -57.5,-109.35 -135.5,-51.84 42.8,-109.93 -1.8,-162.05 -110.3,-119.61 81.4,-105.4 1.6,-209.02 -133.6,-153.64 81.3,-105.4 -14.6,-201.81 -103.2,-152.43 98.8,-117.14 -43.3,-247.01 -114.4,-209.37 70.9,-113.54 -25.4,-216.66 -53.3,-213.05 78.6,-199.96 -274.4,-176.88 -279.6,4.14 -5.2,181.02 301.4,1493.64 1737.7,1291.12 1391.4,-196.18 1511.4,-1490.9 1401.6,-1811.2"
         style="fill:#240f10;fill-opacity:1;fill-rule:nonzero;stroke:none"
         id="path21981"
         inkscape:connector-curvature="0" />
    </g>
    <g
       id="g21983"
       transform="matrix(0.01839573,0,0,-0.01861014,-56.263556,284.69007)">
      <path
         d="m 15678.2,6809.16 c 134.7,305.94 621.8,72.15 343.2,-282.82 -133.6,-136.4 -355,-100.22 -402.4,33.44 l 59.2,249.38"
         style="fill:#6e4048;fill-opacity:1;fill-rule:nonzero;stroke:none"
         id="path21985"
         inkscape:connector-curvature="0" />
    </g>
    <g
       id="g21987"
       transform="matrix(0.01800239,0,0,-0.01821221,-56.263556,284.69007)">
      <path
         d="m 16294.8,7024.65 c -128.2,45.24 -273.4,-169.38 -114.4,-319.84 -48.5,176.72 30,221.55 111.8,127.4 7.8,53.8 -19.5,93 -100.1,100.35 17.9,69.84 102.7,92.09 102.7,92.09"
         style="fill:#48292c;fill-opacity:1;fill-rule:nonzero;stroke:none"
         id="path21989"
         inkscape:connector-curvature="0" />
    </g>
    <g
       id="g21991"
       transform="matrix(0.01602918,0,0,-0.016216,-56.263556,284.69007)">
      <path
         d="m 16255.7,8118.67 c -46.5,-22.79 -50.6,91.1 -146.2,103.7 -97.6,12.88 -123.5,-99.07 -165.6,-56.32 -34.3,34.85 31.1,166.83 190.4,140.66 132.8,-21.81 165.7,-166.37 121.4,-188.04"
         style="fill:#ee5b63;fill-opacity:1;fill-rule:nonzero;stroke:none"
         id="path21993"
         inkscape:connector-curvature="0" />
    </g>
    <g
       id="g21995"
       transform="matrix(0.01516822,0,0,-0.01534501,-56.263556,284.69007)">
      <path
         d="m 15862.1,8785.16 c 124.3,-55.13 234.9,-157.33 304.5,-295.87 133.4,-265.41 70.5,-571.97 -136.5,-721.02 -170.3,269.53 -244.7,610.67 -168,1016.89"
         style="fill:#a04b59;fill-opacity:1;fill-rule:nonzero;stroke:none"
         id="path21997"
         inkscape:connector-curvature="0" />
    </g>
    <g
       id="g21999"
       transform="matrix(0.01492754,0,0,-0.01510152,-56.263556,284.69007)">
      <path
         d="m 16279.7,8633.85 c -20.3,-21.12 -53.9,-21.74 -75.1,-1.4 -21.1,20.35 -21.7,53.95 -1.4,75.06 20.4,21.11 54,21.74 75.1,1.4 21.1,-20.34 21.7,-53.95 1.4,-75.06"
         style="fill:#ee5b63;fill-opacity:1;fill-rule:nonzero;stroke:none"
         id="path22001"
         inkscape:connector-curvature="0" />
    </g>
    <g
       id="g22003"
       transform="matrix(0.01502858,0,0,-0.01520374,-56.263556,284.69007)">
      <path
         d="m 16279.8,8397.1 c -20.2,-20.97 -53.5,-21.59 -74.6,-1.39 -20.9,20.21 -21.5,53.59 -1.3,74.56 20.2,20.96 53.6,21.59 74.5,1.39 21,-20.21 21.6,-53.59 1.4,-74.56"
         style="fill:#ee5b63;fill-opacity:1;fill-rule:nonzero;stroke:none"
         id="path22005"
         inkscape:connector-curvature="0" />
    </g>
    <g
       id="g22007"
       transform="matrix(0.0148617,0,0,-0.01503491,-56.263556,284.69007)">
      <path
         d="m 16279.6,8511.37 c -20.5,-21.2 -54.2,-21.83 -75.4,-1.4 -21.2,20.44 -21.8,54.19 -1.4,75.39 20.4,21.21 54.2,21.83 75.4,1.4 21.2,-20.43 21.8,-54.18 1.4,-75.39"
         style="fill:#ee5b63;fill-opacity:1;fill-rule:nonzero;stroke:none"
         id="path22009"
         inkscape:connector-curvature="0" />
    </g>
    <g
       id="g22011"
       transform="matrix(0.01752296,0,0,-0.01772718,-56.263556,284.69007)">
      <path
         d="m 15339,6860.07 c 0,-265.39 215.1,-480.53 480.5,-480.53 265.4,0 480.5,215.14 480.5,480.53 0,265.38 -215.1,480.51 -480.5,480.51 -265.4,0 -480.5,-215.13 -480.5,-480.51"
         style="fill:#a04b59;fill-opacity:1;fill-rule:nonzero;stroke:none"
         id="path22013"
         inkscape:connector-curvature="0" />
    </g>
    <g
       id="g22015"
       transform="matrix(0.01690968,0,0,-0.01710676,-56.263556,284.69007)">
      <path
         d="m 16271.6,7336.03 c -21.9,-13.84 -50.8,-7.33 -64.7,14.54 -13.8,21.87 -7.3,50.81 14.6,64.65 21.9,13.85 50.8,7.34 64.7,-14.53 13.8,-21.86 7.2,-50.81 -14.6,-64.66"
         style="fill:#ee5b63;fill-opacity:1;fill-rule:nonzero;stroke:none"
         id="path22017"
         inkscape:connector-curvature="0" />
    </g>
    <g
       id="g22019"
       transform="matrix(0.01696647,0,0,-0.01716421,-56.263556,284.69007)">
      <path
         d="m 16271.7,7145.43 c -21.7,-13.8 -50.6,-7.32 -64.4,14.48 -13.8,21.8 -7.3,50.65 14.4,64.44 21.9,13.79 50.7,7.31 64.5,-14.49 13.8,-21.79 7.3,-50.64 -14.5,-64.43"
         style="fill:#ee5b63;fill-opacity:1;fill-rule:nonzero;stroke:none"
         id="path22021"
         inkscape:connector-curvature="0" />
    </g>
    <g
       id="g22023"
       transform="matrix(0.01679825,0,0,-0.01699404,-56.263556,284.69007)">
      <path
         d="m 16271.4,7260.44 c -22,-13.94 -51.1,-7.39 -65.1,14.62 -13.9,22.02 -7.4,51.16 14.7,65.1 22,13.93 51.1,7.38 65.1,-14.64 13.9,-22.01 7.4,-51.15 -14.7,-65.08"
         style="fill:#ee5b63;fill-opacity:1;fill-rule:nonzero;stroke:none"
         id="path22025"
         inkscape:connector-curvature="0" />
    </g>
    <g
       id="g22027"
       transform="matrix(0.01843565,0,0,-0.01865052,-56.263556,284.69007)">
      <path
         d="m 12972.2,7017 c -1029.1,188.44 -776.4,1722.19 258.7,1570.69 1029,-188.4 776.4,-1722.36 -258.7,-1570.69 z m 2040.1,-335.07 c -1029,188.46 -776.4,1722.29 258.6,1570.79 1029.1,-188.42 776.4,-1722.28 -258.6,-1570.79 z m 268.4,1697.41 c -514.3,85.9 -1003.2,-279.27 -1065.6,-797.08 l -203.1,33.48 c 225.1,1215.88 -1589.1,1551.57 -1814.4,335.78 C 12016,6900.48 13530.4,6457.83 13950,7423.48 l 262.1,-43.1 c 88.3,-1049.53 1664.6,-1115.27 1829.3,-61.53 82.8,502.04 -258.5,977.83 -760.7,1060.49"
         style="fill:#fab20b;fill-opacity:1;fill-rule:nonzero;stroke:none"
         id="path22029"
         inkscape:connector-curvature="0" />
    </g>
  </g>
</svg>
