<?xml version="1.0" encoding="UTF-8" standalone="no"?>
<!-- Created with Inkscape (http://www.inkscape.org/) -->

<svg
   xmlns:dc="http://purl.org/dc/elements/1.1/"
   xmlns:cc="http://creativecommons.org/ns#"
   xmlns:rdf="http://www.w3.org/1999/02/22-rdf-syntax-ns#"
   xmlns:svg="http://www.w3.org/2000/svg"
   xmlns="http://www.w3.org/2000/svg"
   xmlns:sodipodi="http://sodipodi.sourceforge.net/DTD/sodipodi-0.dtd"
   xmlns:inkscape="http://www.inkscape.org/namespaces/inkscape"
   width="1000"
   height="1000"
   viewBox="0 0 264.58333 264.58334"
   version="1.1"
   id="svg2383"
   inkscape:version="0.92.5 (2060ec1f9f, 2020-04-08)"
   sodipodi:docname="Do you like listening to music.svg"
   enable-background="new">
  <defs
     id="defs2377" />
  <sodipodi:namedview
     id="base"
     pagecolor="#ffffff"
     bordercolor="#666666"
     borderopacity="1.0"
     inkscape:pageopacity="0.0"
     inkscape:pageshadow="2"
     inkscape:zoom="0.70710678"
     inkscape:cx="122.0321"
     inkscape:cy="482.47194"
     inkscape:document-units="px"
     inkscape:current-layer="layer3"
     showgrid="false"
     units="px"
     inkscape:window-width="1920"
     inkscape:window-height="1031"
     inkscape:window-x="0"
     inkscape:window-y="25"
     inkscape:window-maximized="1"
     showguides="true"
     inkscape:lockguides="true"
     inkscape:object-nodes="false"
     inkscape:snap-nodes="false"
     inkscape:snap-others="false" />
  <metadata
     id="metadata2380">
    <rdf:RDF>
      <cc:Work
         rdf:about="">
        <dc:format>image/svg+xml</dc:format>
        <dc:type
           rdf:resource="http://purl.org/dc/dcmitype/StillImage" />
        <dc:title />
      </cc:Work>
    </rdf:RDF>
  </metadata>
  <g
     inkscape:groupmode="layer"
     id="layer3"
     inkscape:label="Layer 2">
    <ellipse
       style="fill:#000080;fill-opacity:1;stroke-width:0.45916313"
       id="path3018"
       cx="130.91789"
       cy="227.00244"
       rx="105.7971"
       ry="33.096272" />
    <g
       id="g2076"
       transform="matrix(0.02729838,0,0,-0.00644161,-170.27984,109.82847)"
       style="fill:#000080;fill-opacity:1;stroke-width:3.09705114">
      <path
         d="m 7516.4,15512.4 c 793.36,787.6 6266.1,768.2 7321.3,-220.2 1012.3,-948.3 763.9,-4388.2 -84.8,-5304.22 -663.4,-715.96 -6078.89,-952.56 -7236.5,11.48 -1184.09,986.14 -928.88,4590.94 0,5512.94"
         style="fill:#000080;fill-opacity:1;fill-rule:nonzero;stroke:none;stroke-width:3.09705114"
         id="path2078"
         inkscape:connector-curvature="0" />
    </g>
    <path
       d="m 57.580377,67.11537 2.043948,-29.718702 13.539991,9.627326 z"
       style="fill:#000080;fill-opacity:1;fill-rule:nonzero;stroke:none;stroke-width:0.03527778"
       id="path2080"
       inkscape:connector-curvature="0" />
    <text
       xml:space="preserve"
       style="font-style:normal;font-weight:normal;font-size:10.58333302px;line-height:1.25;font-family:sans-serif;letter-spacing:0px;word-spacing:0px;fill:#000000;fill-opacity:1;stroke:none;stroke-width:0.26458332"
       x="19.831404"
       y="32.219208"
       id="text3144"><tspan
         sodipodi:role="line"
         id="tspan3142"
         x="19.831404"
         y="32.219208"
         style="font-style:normal;font-variant:normal;font-weight:bold;font-stretch:normal;font-size:12.69999981px;font-family:sans-serif;-inkscape-font-specification:'sans-serif Bold';fill:#000000;stroke-width:0.26458332">Do you like listening to music?</tspan></text>
    <path
       d="m 57.172238,184.58394 c -0.189972,-7.16009 3.324201,-14.20471 11.998343,-19.10709 4.592116,-2.59528 16.789977,9.31162 26.257423,-0.28963 13.030136,-13.21431 4.506519,-44.77228 1.458839,-56.47425 -2.028124,-7.78639 -53.203292,-25.426591 -61.243078,-16.809647 -7.835492,8.400347 -14.13418,22.758097 -13.767441,26.726657 1.328535,-1.51951 3.26406,-2.70197 3.535335,-2.83067 0,0 -9.490353,19.36163 -0.645969,46.9838 l 32.406548,21.80083"
       style="fill:#f36527;fill-opacity:1;fill-rule:nonzero;stroke:none;stroke-width:0.03527778"
       id="path478"
       inkscape:connector-curvature="0" />
    <path
       d="m 24.301735,162.08735 c 7.148155,25.10923 -1.774667,18.58066 -2.648954,32.53011 -0.522823,8.34433 4.645894,14.97923 7.774078,17.75655 -2.48826,-5.19916 -1.409043,-9.07374 0.36833,-20.99229 0.07113,17.7127 2.447686,23.19576 6.116828,27.22679 -1.057417,-5.17483 -0.237863,-9.19404 1.335377,-16.41802 -0.651061,10.14056 2.103859,18.02182 5.261,19.64891 -0.234045,-5.96062 -0.03803,-13.16795 0.720431,-15.70649 1.930752,2.44456 1.169589,9.57584 1.270143,10.25423 3.110522,-1.56087 5.373327,-10.25423 6.455089,-17.53048 2.040375,9.56777 -3.282198,17.94396 -5.044454,20.94754 5.393534,-3.15752 16.247903,-13.39278 14.680868,-21.42744 4.122595,6.40274 -5.047955,15.67088 -5.047955,15.67088 0,0 29.653058,-7.31616 19.837174,-37.82629 -2.680139,-8.33072 -14.647773,-11.58061 -1.689226,-13.3303 0,-0.25651 -1.126472,-0.97536 -1.386132,-1.40227 -23.790483,2.18359 -38.217418,6.25238 -48.002597,0.59857"
       style="fill:#f36527;fill-opacity:1;fill-rule:nonzero;stroke:none;stroke-width:0.03527778"
       id="path480"
       inkscape:connector-curvature="0" />
    <path
       d="m 39.825548,177.38609 c 0,0 -5.8944,-14.59546 0.89879,-27.68519 -2.812358,8.8534 -0.89879,27.68519 -0.89879,27.68519"
       style="fill:#cd3927;fill-opacity:1;fill-rule:nonzero;stroke:none;stroke-width:0.03527778"
       id="path482"
       inkscape:connector-curvature="0" />
    <path
       d="m 45.266496,188.31693 c -0.566894,0.9868 -4.313046,-16.20518 1.572603,-27.38233 -2.071559,6.52124 -1.572603,27.38233 -1.572603,27.38233"
       style="fill:#cd3927;fill-opacity:1;fill-rule:nonzero;stroke:none;stroke-width:0.03527778"
       id="path484"
       inkscape:connector-curvature="0" />
    <path
       d="m 32.922575,180.70095 c 0,0 -6.283095,-19.43251 2.091449,-32.03305 -4.032223,8.85072 -2.091449,32.03305 -2.091449,32.03305"
       style="fill:#cd3927;fill-opacity:1;fill-rule:nonzero;stroke:none;stroke-width:0.03527778"
       id="path486"
       inkscape:connector-curvature="0" />
    <path
       d="m 80.624778,171.65369 c 0,0 16.604937,-2.11342 23.071802,-16.62886 1.59154,-0.0551 3.07186,-1.70443 4.00772,-4.24422 1.15288,-1.5614 1.70322,-2.84803 1.08049,-3.23215 -0.6428,-0.39452 -1.79853,1.4565 -2.14332,1.8698 0.0223,-0.0902 1.2205,-2.53389 1.45216,-3.09396 0.53301,-1.29953 -0.49196,-2.04774 -1.13331,-1.02728 -0.53142,0.86062 -1.64198,2.92179 -1.70498,3.02756 0.0256,-0.12242 0.9384,-2.84802 1.11374,-3.34367 0.51709,-1.47673 -0.85249,-2.34236 -1.47635,-0.66927 -0.42274,1.13897 -1.10132,3.16916 -1.20077,3.32399 -0.0314,-0.0902 0.14543,-1.72751 0.18935,-2.70734 0.0688,-1.60991 -1.13157,-1.90114 -1.4859,-0.10847 -0.27939,1.41801 -1.30371,4.76509 -1.30371,4.76509 0,0 -1.100222,-1.86014 -1.996145,-1.02172 -0.902766,0.83843 1.488755,4.02799 1.488755,4.02799 0,0 -3.929916,10.57588 -20.509082,14.40482 0.744458,1.7139 0.54955,4.65769 0.54955,4.65769"
       style="fill:#fabd99;fill-opacity:1;fill-rule:nonzero;stroke:none;stroke-width:0.03527778"
       id="path488"
       inkscape:connector-curvature="0" />
    <path
       d="m 70.602214,157.05644 c 0,0 -0.281456,5.23658 -0.352897,6.48382 -1.463772,0.65872 -5.090754,1.97668 -5.090754,1.97668 l -1.328854,6.46056 14.565041,0.0814 -1.715003,-7.9371 c 0.01065,0.0771 -1.160361,-0.25222 -3.011717,-0.69184 0.145739,-2.53711 0.340647,-6.33132 0.340647,-6.33132 l -3.406463,-0.0422"
       style="fill:#fabe98;fill-opacity:1;fill-rule:nonzero;stroke:none;stroke-width:0.03527778"
       id="path490"
       inkscape:connector-curvature="0" />
    <path
       d="m 70.701973,163.29845 c 0.05745,-1.00185 0.210022,-4.78336 0.210022,-4.78336 l 2.736145,0.0339 c 0,0 -0.156558,2.45371 -0.273663,4.49178 -0.511205,-0.54076 -2.290969,-0.21122 -2.672504,0.25775"
       style="fill:#e9a276;fill-opacity:1;fill-rule:nonzero;stroke:none;stroke-width:0.03527778"
       id="path492"
       inkscape:connector-curvature="0" />
    <path
       d="m 90.580522,215.61924 1.780075,0.66228 3.210915,0.80908 c -1.404899,-0.33652 -2.195972,-2.5364 -1.454703,-3.54952 0.74382,-1.01492 2.087474,-0.86278 4.012015,-0.45466 -0.0078,-0.0125 -0.0167,-0.0215 -0.02643,-0.034 -3.918937,-0.98807 -6.463363,-1.86337 -6.463363,-1.86337 0,0 -1.171337,0.49403 -1.058532,4.4302"
       style="fill:#e9a276;fill-opacity:1;fill-rule:nonzero;stroke:none;stroke-width:0.03527778"
       id="path496"
       inkscape:connector-curvature="0" />
    <path
       d="m 110.79461,219.86686 c 0.0312,0.56204 0.43659,2.12827 1.78375,1.01491 0.96768,0.11277 3.45529,0.11813 4.80802,0.20763 0.6431,-1.78461 0.26379,-5.44868 0.26379,-5.44868 0,0 -3.93262,-0.33831 -4.86642,-0.41527 0.0399,-1.08652 -0.99091,-1.00418 -1.43529,0.27743 -0.35115,1.01314 -0.61686,3.26493 -0.55385,4.36398"
       style="fill:#ffffff;fill-opacity:1;fill-rule:nonzero;stroke:none;stroke-width:0.03527778"
       id="path498"
       inkscape:connector-curvature="0" />
    <path
       d="m 115.72627,220.95872 c -0.61432,-2.42898 -0.38424,-4.39796 -0.0481,-5.5328 0.0807,-0.64081 1.1018,-0.9648 1.89001,-0.65871 0.78917,0.3025 2.12058,-0.929 2.22987,-1.92602 -0.87986,-1.55369 -0.23309,-4.37273 1.1392,-5.17248 1.36848,-0.79583 2.89526,-0.72011 3.55204,-0.38091 0.84549,0.78472 0.71821,6.26939 0.0908,9.24074 -0.45712,2.16408 -1.48494,4.92959 -2.27155,5.89439 -0.0863,0.10562 -1.3917,0.17363 -2.80329,-0.36874 -1.41,-0.54773 -3.7234,0.65514 -4.47852,-1.10619 0.42466,-0.0143 0.69944,0.0108 0.69944,0.0108"
       style="fill:#050606;fill-opacity:1;fill-rule:nonzero;stroke:none;stroke-width:0.03527778"
       id="path500"
       inkscape:connector-curvature="0" />
    <path
       d="m 123.40504,207.10361 c -1.60395,3.32058 -1.98691,9.69164 -2.46774,15.40524 0.049,0.89678 1.62909,1.18675 2.2041,0.81087 -0.42832,-2.29834 -0.20016,-4.61099 0.4202,-8.65096 0.60253,-3.94689 0.90929,-6.12834 1.62287,-7.11103 -0.72584,-1.40388 -1.77943,-0.45412 -1.77943,-0.45412"
       style="fill:#fef1e5;fill-opacity:1;fill-rule:nonzero;stroke:none;stroke-width:0.03527778"
       id="path502"
       inkscape:connector-curvature="0" />
    <path
       d="m 125.64286,208.46417 c -0.0977,-0.31664 -0.39617,-1.52721 -0.9392,-0.9716 -0.47286,0.47972 -1.23705,4.32118 -1.52248,7.17977 -0.28958,2.85681 -1.09306,8.65453 -0.0398,8.64738 1.46345,-0.0108 2.32739,-5.73687 2.57878,-8.28402 0.32713,-3.30071 0.23389,-5.57487 -0.0774,-6.57153"
       style="fill:#dfbd90;fill-opacity:1;fill-rule:nonzero;stroke:none;stroke-width:0.03527778"
       id="path504"
       inkscape:connector-curvature="0" />
    <path
       d="m 85.62723,220.72604 1.378177,0.66945 3.143456,1.0883 c -1.377539,-0.45644 -2.017463,-2.71898 -1.201569,-3.66585 0.813192,-0.94512 2.136158,-0.67842 4.028248,-0.10204 -0.0062,-0.0108 -0.0177,-0.0197 -0.02288,-0.0304 -3.839229,-1.33352 -6.315234,-2.43257 -6.315234,-2.43257 0,0 -0.851221,0.53877 -1.010165,4.47315"
       style="fill:#e9a276;fill-opacity:1;fill-rule:nonzero;stroke:none;stroke-width:0.03527778"
       id="path508"
       inkscape:connector-curvature="0" />
    <path
       d="m 105.12821,226.59536 c -0.006,0.56206 0.28926,2.1605 1.71007,1.16886 0.95607,0.19689 3.43654,0.42423 4.77843,0.62649 0.76371,-1.72196 0.64263,-5.40394 0.64263,-5.40394 0,0 -3.89602,-0.68376 -4.82456,-0.84307 0.1182,-1.08472 -0.91804,-1.09188 -1.44882,0.15214 -0.42117,0.97733 -0.84247,3.19869 -0.85775,4.29952"
       style="fill:#ffffff;fill-opacity:1;fill-rule:nonzero;stroke:none;stroke-width:0.03527778"
       id="path510"
       inkscape:connector-curvature="0" />
    <path
       d="m 109.97013,228.11684 c -0.44725,-2.47553 -0.0767,-4.41586 0.33682,-5.52028 0.12633,-0.63185 1.16784,-0.86276 1.93283,-0.49224 0.76418,0.3759 2.17799,-0.73389 2.35603,-1.72195 -0.7688,-1.62709 0.0743,-4.37829 1.49529,-5.04952 1.42129,-0.67841 2.93725,-0.4654 3.56651,-0.0716 0.79028,0.85917 0.27971,6.31145 -0.55162,9.22552 -0.60731,2.11575 -1.82495,4.77744 -2.6752,5.67064 -0.0913,0.10024 -1.39998,0.0537 -2.76973,-0.61574 -1.36895,-0.66588 -3.75601,0.32576 -4.39133,-1.50001 0.42833,0.0286 0.7004,0.0752 0.7004,0.0752"
       style="fill:#141a21;fill-opacity:1;fill-rule:nonzero;stroke:none;stroke-width:0.03527778"
       id="path512"
       inkscape:connector-curvature="0" />
    <path
       d="m 118.59144,214.982 c -1.82828,3.17005 -2.65739,9.48866 -3.53358,15.13962 -0.0145,0.90035 1.54349,1.32816 2.13902,1.00237 -0.26475,-2.32696 0.12188,-4.61454 1.02384,-8.59007 0.877,-3.87708 1.33108,-6.02506 2.11134,-6.94331 -0.62385,-1.46063 -1.74062,-0.60861 -1.74062,-0.60861"
       style="fill:#fef1e5;fill-opacity:1;fill-rule:nonzero;stroke:none;stroke-width:0.03527778"
       id="path514"
       inkscape:connector-curvature="0" />
    <path
       d="m 120.78727,216.9635 c -0.0416,-0.96837 -0.42879,-1.91347 -0.92966,-1.48029 -0.50468,0.44032 -1.64038,4.27266 -2.12486,7.09724 -0.48511,2.82458 -1.56052,8.27864 -0.53587,8.54354 1.02735,0.26672 2.31674,-5.55428 2.79739,-8.06203 0.48115,-2.50238 0.83388,-5.08174 0.793,-6.09846"
       style="fill:#dfbd90;fill-opacity:1;fill-rule:nonzero;stroke:none;stroke-width:0.03527778"
       id="path516"
       inkscape:connector-curvature="0" />
    <path
       d="m 66.75328,204.63505 c 0,0 8.888617,14.25626 38.40883,16.61903 0.64167,-2.19987 1.80998,-7.70227 1.84658,-8.30907 -16.660467,-6.37911 -18.124082,-12.12242 -22.159013,-13.7112 -3.827609,1.77458 -18.096397,5.40124 -18.096397,5.40124"
       style="fill:#f78d11;fill-opacity:1;fill-rule:nonzero;stroke:none;stroke-width:0.03527778"
       id="path518"
       inkscape:connector-curvature="0" />
    <path
       d="m 58.99766,202.14216 c 0,0 -1.221297,11.58686 1.108015,14.12684 3.246399,3.53878 13.926229,9.98806 38.777953,10.8025 0.64088,-2.1981 2.954592,-4.5698 2.215862,-8.72613 -16.661101,-6.3741 -24.034866,-14.61103 -28.067884,-16.20321 -3.827615,1.77493 -14.033946,0 -14.033946,0"
       style="fill:#f9ae0c;fill-opacity:1;fill-rule:nonzero;stroke:none;stroke-width:0.03527778"
       id="path520"
       inkscape:connector-curvature="0" />
    <path
       d="m 59.123991,169.13967 c 1.653271,-2.40035 8.737306,-4.8068 8.737306,-4.8068 0,0 2.139654,7.78496 6.907745,7.16617 3.204556,-0.4151 1.628607,-7.62942 1.628607,-7.62942 0,0 4.950745,1.27733 7.026601,2.30566 1.951593,2.00711 0.432451,10.36361 1.17118,20.75084 0.527753,7.42248 4.098726,7.90506 2.634953,13.17511 -6.278321,4.15489 -23.854443,6.44624 -29.709862,4.53382 1.953186,-7.53937 -0.153219,-8.15691 -0.153219,-20.0146 0,-8.88722 0.06842,-13.02976 1.756689,-15.48078"
       style="fill:#474ba7;fill-opacity:1;fill-rule:nonzero;stroke:none;stroke-width:0.03527778"
       id="path522"
       inkscape:connector-curvature="0" />
    <path
       d="m 59.123991,170.45727 c -2.225892,5.00817 -6.48691,21.94653 2.776718,34.39724 -0.588533,1.66467 0.16738,3.8488 1.865995,5.82618 0.814622,1.80967 1.644679,2.89082 2.205846,2.40036 0.577392,-0.50656 -0.472068,-2.43616 -0.671905,-2.95596 0.06476,0.0589 1.580559,2.26861 1.945069,2.73042 0.847717,1.06682 1.865839,0.30609 1.288917,-0.76074 -0.490522,-0.8914 -1.729323,-2.85805 -1.790417,-2.96508 0.08958,0.075 1.94905,2.10232 2.283329,2.48001 0.99839,1.12051 2.249281,0.0519 1.133151,-1.25746 -0.760522,-0.88944 -2.145861,-2.39768 -2.232734,-2.562 0.08624,0.003 1.350971,0.83753 2.132498,1.27268 1.285421,0.71187 2.000599,-0.41116 0.679702,-1.49034 -1.045006,-0.85256 -3.367,-3.24183 -3.367,-3.24183 0,0 1.954774,-0.39522 1.627494,-1.65357 -0.324416,-1.26551 -3.877094,-0.0664 -3.877094,-0.0664 0,0 -9.512948,-11.73204 -2.486349,-29.18912 0.878264,-4.28198 -2.049444,-6.25812 -3.51322,-2.96438"
       style="fill:#fabd99;fill-opacity:1;fill-rule:nonzero;stroke:none;stroke-width:0.03527778"
       id="path524"
       inkscape:connector-curvature="0" />
    <path
       d="m 30.81824,129.66894 c 4.873575,20.58345 24.13081,29.48536 41.748773,24.20404 17.616217,-5.28026 25.906755,-19.0917 24.95148,-40.3677 C 96.886843,99.437323 90.684097,87.227904 84.252235,83.059055 78.73412,79.482682 71.669501,79.310845 66.667841,85.15332 49.257987,79.958815 40.092051,85.287569 33.496312,94.531007 26.365499,104.52354 27.863005,117.19459 30.81824,129.66894"
       style="fill:#f36527;fill-opacity:1;fill-rule:nonzero;stroke:none;stroke-width:0.03527778"
       id="path526"
       inkscape:connector-curvature="0" />
    <path
       d="m 45.040565,140.71075 c 4.039543,16.79427 18.375947,24.42868 32.751171,20.05326 14.373794,-4.37469 23.336244,-19.10009 19.296219,-35.89633 -4.038112,-16.79337 -18.816354,-26.257327 -33.191103,-21.88084 -14.374431,4.37399 -22.894238,20.9309 -18.856287,37.72391"
       style="fill:#fabd99;fill-opacity:1;fill-rule:nonzero;stroke:none;stroke-width:0.03527778"
       id="path528"
       inkscape:connector-curvature="0" />
    <path
       d="m 45.040565,140.71075 c 4.039543,16.79427 18.375947,24.42868 32.751171,20.05326 14.373794,-4.37469 23.336244,-19.10009 19.296219,-35.89633 -4.038112,-16.79337 -18.816354,-26.257327 -33.191103,-21.88084 -14.374431,4.37399 -22.894238,20.9309 -18.856287,37.72391"
       style="fill:#fabd99;fill-opacity:1;fill-rule:nonzero;stroke:none;stroke-width:0.03527778"
       id="path530"
       inkscape:connector-curvature="0" />
    <path
       d="m 46.109281,140.52173 c 0,0 -1.170384,-3.30502 -4.971426,-2.7852 -4.008199,0.55131 -4.322433,6.7287 -1.492573,9.59373 2.828903,2.85911 7.182043,1.73788 7.954025,-1.31797 l -1.490026,-5.49056"
       style="fill:#fabd99;fill-opacity:1;fill-rule:nonzero;stroke:none;stroke-width:0.03527778"
       id="path532"
       inkscape:connector-curvature="0" />
    <path
       d="m 40.698562,139.44308 c 2.43655,-1.1683 5.526229,3.32525 2.619522,6.83789 0.724409,-3.93329 -0.857264,-4.80537 -2.332176,-2.63234 -0.218134,-1.16545 0.265071,-2.06186 1.822877,-2.33448 -0.434995,-1.50233 -2.110223,-1.87107 -2.110223,-1.87107"
       style="fill:#d37658;fill-opacity:1;fill-rule:nonzero;stroke:none;stroke-width:0.03527778"
       id="path534"
       inkscape:connector-curvature="0" />
    <path
       d="m 69.975654,136.75008 c 0.810008,0.40631 0.808422,-1.78765 2.436393,-2.09625 1.661543,-0.3154 2.173548,1.82059 2.867091,0.9691 0.566098,-0.69416 -0.634358,-3.18813 -3.341545,-2.57488 -2.259307,0.51157 -2.732009,3.31556 -1.961939,3.70203"
       style="fill:#f25655;fill-opacity:1;fill-rule:nonzero;stroke:none;stroke-width:0.03527778"
       id="path536"
       inkscape:connector-curvature="0" />
    <path
       d="m 98.050704,132.20568 c 0.162129,7.71659 -2.438139,14.66384 -6.949906,19.91312 -0.442798,-0.16432 -0.876359,-0.3759 -1.295446,-0.63885 -4.050202,-2.54158 -5.254635,-8.797 -2.690161,-13.9695 2.350312,-4.74039 7.049505,-6.92685 10.935513,-5.30477"
       style="fill:#f79883;fill-opacity:1;fill-rule:nonzero;stroke:none;stroke-width:0.03527778"
       id="path538"
       inkscape:connector-curvature="0" />
    <path
       d="m 47.483001,147.56241 c 2.47712,-3.57905 7.329377,-4.61115 11.531684,-2.21241 4.695855,2.68032 6.800667,8.62571 4.702377,13.27858 -0.372466,0.82571 -0.853922,1.55316 -1.417474,2.17984 -6.204975,-1.9978 -11.521184,-6.51838 -14.816587,-13.24601"
       style="fill:#f79883;fill-opacity:1;fill-rule:nonzero;stroke:none;stroke-width:0.03527778"
       id="path540"
       inkscape:connector-curvature="0" />
    <path
       d="m 78.04376,129.47973 c 1.510553,1.846 5.399103,3.39755 8.507557,2.43204 3.108454,-0.96569 3.972877,-3.6306 4.698879,-6.53412 -0.310097,-1.39798 -4.073912,-5.54947 -7.182365,-4.58378 -3.108454,0.96533 -5.466402,4.95197 -6.024071,8.68586"
       style="fill:#ffffff;fill-opacity:1;fill-rule:nonzero;stroke:none;stroke-width:0.03527778"
       id="path542"
       inkscape:connector-curvature="0" />
    <path
       d="m 81.355074,125.40306 c -0.584873,2.11682 0.380264,4.33819 2.156207,4.96164 1.777053,0.62165 3.693327,-0.5898 4.279314,-2.70734 0.585352,-2.11987 -0.380742,-4.33908 -2.156365,-4.96289 -1.778166,-0.62094 -3.693169,0.59159 -4.279156,2.70859"
       style="fill:#4bc3c6;fill-opacity:1;fill-rule:nonzero;stroke:none;stroke-width:0.03527778"
       id="path544"
       inkscape:connector-curvature="0" />
    <path
       d="m 83.237618,125.24286 c -0.601741,0.7457 -0.583124,1.86873 0.04199,2.50883 0.625925,0.63956 1.621771,0.55399 2.223985,-0.19153 0.602692,-0.74678 0.583123,-1.86927 -0.04185,-2.50936 -0.626401,-0.63938 -1.621928,-0.55329 -2.224142,0.19206"
       style="fill:#301413;fill-opacity:1;fill-rule:nonzero;stroke:none;stroke-width:0.03527778"
       id="path546"
       inkscape:connector-curvature="0" />
    <path
       d="m 84.167116,124.24102 c 0.04709,0.64743 0.525687,1.12767 1.066009,1.07738 0.540165,-0.0514 0.940318,-0.612 0.894654,-1.25925 -0.04757,-0.64368 -0.523144,-1.12625 -1.063308,-1.08133 -0.541437,0.0557 -0.945406,0.61898 -0.897355,1.2632"
       style="fill:#ffffff;fill-opacity:1;fill-rule:nonzero;stroke:none;stroke-width:0.03527778"
       id="path548"
       inkscape:connector-curvature="0" />
    <path
       d="m 82.658152,128.62001 c 0.02783,0.40184 0.325056,0.6979 0.662677,0.66909 0.334761,-0.0308 0.584715,-0.38144 0.554647,-0.78312 -0.03392,-0.39755 -0.325056,-0.69791 -0.662677,-0.66658 -0.334604,0.0308 -0.583763,0.3809 -0.554647,0.78061"
       style="fill:#ffffff;fill-opacity:1;fill-rule:nonzero;stroke:none;stroke-width:0.03527778"
       id="path550"
       inkscape:connector-curvature="0" />
    <path
       d="m 91.250196,125.37765 c 0,0 -4.371916,-7.13538 -10.96861,-1.54636 6.481344,-9.43139 10.96861,1.54636 10.96861,1.54636"
       style="fill:#532628;fill-opacity:1;fill-rule:nonzero;stroke:none;stroke-width:0.03527778"
       id="path552"
       inkscape:connector-curvature="0" />
    <path
       d="m 64.77289,133.47979 c -0.492274,2.44744 -3.177027,5.97188 -6.29996,6.8769 -3.122773,0.90483 -5.052253,-0.92147 -6.96757,-3.03239 -0.350192,-1.3858 1.075237,-7.09475 4.198012,-7.99975 3.122772,-0.90485 6.932565,1.23024 9.069518,4.15524"
       style="fill:#ffffff;fill-opacity:1;fill-rule:nonzero;stroke:none;stroke-width:0.03527778"
       id="path554"
       inkscape:connector-curvature="0" />
    <path
       d="m 60.017372,131.8246 c 1.444364,1.50769 1.591218,3.97464 0.32744,5.51079 -1.265689,1.53473 -3.463579,1.55836 -4.909376,0.0505 -1.446273,-1.50985 -1.591218,-3.97536 -0.327756,-5.51152 1.266801,-1.5349 3.464213,-1.55692 4.909692,-0.0498"
       style="fill:#4bc3c6;fill-opacity:1;fill-rule:nonzero;stroke:none;stroke-width:0.03527778"
       id="path556"
       inkscape:connector-curvature="0" />
    <path
       d="m 58.675312,133.18283 c 0.656312,0.68503 0.722978,1.80573 0.148765,2.50364 -0.575011,0.69738 -1.573559,0.70794 -2.230349,0.023 -0.657108,-0.68609 -0.722977,-1.80625 -0.148923,-2.50417 0.575487,-0.69737 1.573876,-0.7074 2.230507,-0.0225"
       style="fill:#301413;fill-opacity:1;fill-rule:nonzero;stroke:none;stroke-width:0.03527778"
       id="path558"
       inkscape:connector-curvature="0" />
    <path
       d="m 56.669463,133.14292 c 0.245819,0.58782 0.04359,1.27249 -0.447247,1.53168 -0.49116,0.25829 -1.086376,-0.003 -1.333309,-0.59034 -0.243909,-0.58497 -0.04518,-1.26981 0.443111,-1.53364 0.494024,-0.25525 1.093853,0.007 1.337445,0.5923"
       style="fill:#ffffff;fill-opacity:1;fill-rule:nonzero;stroke:none;stroke-width:0.03527778"
       id="path560"
       inkscape:connector-curvature="0" />
    <path
       d="m 60.232323,135.00109 c 0.153856,0.36389 0.02705,0.78723 -0.278435,0.95155 -0.303892,0.16091 -0.675722,-0.003 -0.827669,-0.3682 -0.146536,-0.36372 -0.02705,-0.78741 0.279391,-0.9494 0.303891,-0.16092 0.674927,0.003 0.826713,0.36605"
       style="fill:#ffffff;fill-opacity:1;fill-rule:nonzero;stroke:none;stroke-width:0.03527778"
       id="path562"
       inkscape:connector-curvature="0" />
    <path
       d="m 51.50536,137.3243 c 0,0 0.631332,-8.63681 8.825928,-7.48783 -9.795998,-4.54546 -8.825928,7.48783 -8.825928,7.48783"
       style="fill:#532628;fill-opacity:1;fill-rule:nonzero;stroke:none;stroke-width:0.03527778"
       id="path564"
       inkscape:connector-curvature="0" />
    <path
       d="m 84.129885,115.83081 c -2.855479,-0.39683 -2.963666,3.08574 -1.146998,2.7802 1.947458,-0.33259 3.686013,0.18526 3.899213,-0.067 0.474295,-0.55865 -1.146041,-2.49219 -2.752215,-2.71325"
       style="fill:#cd3927;fill-opacity:1;fill-rule:nonzero;stroke:none;stroke-width:0.03527778"
       id="path566"
       inkscape:connector-curvature="0" />
    <path
       d="m 84.365839,135.81177 c 1.435932,8.89832 -1.750325,17.11931 -7.59747,18.90804 -5.847148,1.78854 -12.294917,-3.48508 -15.062087,-11.97637 l 22.659557,-6.93167"
       style="fill:#712131;fill-opacity:1;fill-rule:nonzero;stroke:none;stroke-width:0.03527778"
       id="path568"
       inkscape:connector-curvature="0" />
    <path
       d="m 82.872309,148.90221 c -1.374675,2.8942 -3.467557,5.01104 -6.10394,5.8176 -2.636229,0.80638 -5.393694,0.17344 -7.881793,-1.53902 1.716752,-1.48157 4.010905,-2.75656 6.648721,-3.56348 2.63766,-0.80693 5.18988,-1.01457 7.337012,-0.7151"
       style="fill:#f25655;fill-opacity:1;fill-rule:nonzero;stroke:none;stroke-width:0.03527778"
       id="path570"
       inkscape:connector-curvature="0" />
    <path
       d="m 73.873754,142.74363 c -5.637127,1.72446 -10.53934,2.18341 -12.06819,-0.0306 l 22.460991,-6.87101 c -0.32171,2.78019 -4.755676,5.17714 -10.392801,6.90161"
       style="fill:#ffffff;fill-opacity:1;fill-rule:nonzero;stroke:none;stroke-width:0.03527778"
       id="path572"
       inkscape:connector-curvature="0" />
    <path
       d="m 90.311628,137.22226 c 0.309461,0.39399 0.844061,0.43103 1.194091,0.0828 0.350193,-0.34814 0.38313,-0.94957 0.07367,-1.34337 -0.309463,-0.39398 -0.844055,-0.43102 -1.19409,-0.0828 -0.350195,0.34814 -0.383129,0.94957 -0.07367,1.34336"
       style="fill:#f25655;fill-opacity:1;fill-rule:nonzero;stroke:none;stroke-width:0.03527778"
       id="path574"
       inkscape:connector-curvature="0" />
    <path
       d="m 88.433067,140.36081 c 0.309302,0.39379 0.844055,0.43084 1.194087,0.0827 0.350033,-0.34815 0.38297,-0.94959 0.07352,-1.34339 -0.309465,-0.39378 -0.84406,-0.43084 -1.194092,-0.0827 -0.350033,0.34797 -0.382971,0.94958 -0.07351,1.34338"
       style="fill:#f25655;fill-opacity:1;fill-rule:nonzero;stroke:none;stroke-width:0.03527778"
       id="path576"
       inkscape:connector-curvature="0" />
    <path
       d="m 91.347246,140.14405 c 0.309472,0.39379 0.844063,0.43083 1.194094,0.0826 0.350192,-0.34814 0.38313,-0.94956 0.07367,-1.34336 -0.309464,-0.39397 -0.844055,-0.43103 -1.194249,-0.0828 -0.35003,0.34815 -0.382968,0.94976 -0.07352,1.34356"
       style="fill:#f25655;fill-opacity:1;fill-rule:nonzero;stroke:none;stroke-width:0.03527778"
       id="path578"
       inkscape:connector-curvature="0" />
    <path
       d="m 56.4814,147.74875 c 0.445815,0.15734 0.920587,-0.12153 1.060441,-0.62327 0.139854,-0.50136 -0.108033,-1.0355 -0.553847,-1.19302 -0.445816,-0.15733 -0.920588,0.12172 -1.060443,0.62327 -0.139854,0.50138 0.108034,1.03551 0.553849,1.19302"
       style="fill:#f25655;fill-opacity:1;fill-rule:nonzero;stroke:none;stroke-width:0.03527778"
       id="path580"
       inkscape:connector-curvature="0" />
    <path
       d="m 56.299382,151.30471 c 0.445815,0.15753 0.920588,-0.12153 1.060442,-0.62309 0.140013,-0.50155 -0.108033,-1.03568 -0.553848,-1.19302 -0.445815,-0.15733 -0.920588,0.12155 -1.060441,0.6231 -0.140013,0.50155 0.108031,1.03568 0.553847,1.19301"
       style="fill:#f25655;fill-opacity:1;fill-rule:nonzero;stroke:none;stroke-width:0.03527778"
       id="path582"
       inkscape:connector-curvature="0" />
    <path
       d="m 58.929245,149.61033 c 0.445816,0.15733 0.920588,-0.12155 1.060442,-0.6231 0.140013,-0.50155 -0.108033,-1.03567 -0.553848,-1.19301 -0.445815,-0.15735 -0.920587,0.12153 -1.060442,0.62308 -0.139853,0.50156 0.108192,1.03569 0.553848,1.19303"
       style="fill:#f25655;fill-opacity:1;fill-rule:nonzero;stroke:none;stroke-width:0.03527778"
       id="path584"
       inkscape:connector-curvature="0" />
    <path
       d="m 78.04376,106.03857 c 0,0 -22.725425,25.88895 -36.964138,30.76144 C 37.78231,109.50128 49.772378,99.086493 61.372637,95.612147 68.596685,93.448066 93.096779,95.033979 98.643372,118.47048 90.828091,120.81142 78.04376,106.03857 78.04376,106.03857"
       style="fill:#f36527;fill-opacity:1;fill-rule:nonzero;stroke:none;stroke-width:0.03527778"
       id="path586"
       inkscape:connector-curvature="0" />
    <path
       d="m 72.786582,95.393772 c 0,0 -10.818093,26.058458 -29.927996,32.007258 11.04641,-6.08288 29.927996,-32.007258 29.927996,-32.007258"
       style="fill:#cd3927;fill-opacity:1;fill-rule:nonzero;stroke:none;stroke-width:0.03527778"
       id="path588"
       inkscape:connector-curvature="0" />
    <path
       d="m 63.849757,88.529214 c 0,0 -6.857468,17.018356 -20.043695,19.507146 9.079542,-7.75238 20.043695,-19.507146 20.043695,-19.507146"
       style="fill:#cd3927;fill-opacity:1;fill-rule:nonzero;stroke:none;stroke-width:0.03527778"
       id="path590"
       inkscape:connector-curvature="0" />
    <path
       d="m 77.327626,94.531007 c 0,0 9.318042,13.387583 19.276809,16.653023 C 87.689087,103.19556 77.327626,94.531007 77.327626,94.531007"
       style="fill:#cd3927;fill-opacity:1;fill-rule:nonzero;stroke:none;stroke-width:0.03527778"
       id="path592"
       inkscape:connector-curvature="0" />
    <path
       d="m 188.80635,175.20524 c 0,0 -3.61462,-0.33719 -5.14831,-0.59694 0.0315,-2.33258 0,-5.10115 0,-5.10115 h -5.86807 c 0,0 0.10979,3.5783 0,5.10115 -2.86696,0.31099 -5.02109,0.59694 -5.02109,0.59694 0,0 -0.8627,9.09078 7.93333,9.09078 6.21317,0 8.13375,-4.63998 8.10414,-9.09078"
       style="fill:#fabe98;fill-opacity:1;fill-rule:nonzero;stroke:none;stroke-width:0.03527778"
       id="path154"
       inkscape:connector-curvature="0" />
    <path
       d="m 178.51323,170.60556 4.3954,0.69592 c 0,0 0.0541,1.51913 -0.0244,3.30224 -1.17815,-1.26923 -3.86209,-1.09162 -4.55226,0 0.14117,-1.50227 0.18125,-3.99816 0.18125,-3.99816"
       style="fill:#eea378;fill-opacity:1;fill-rule:nonzero;stroke:none;stroke-width:0.03527778"
       id="path156"
       inkscape:connector-curvature="0" />
    <path
       d="m 222.17322,137.87956 c 0,0 17.29491,12.84278 17.56331,16.52284 0.26838,3.68018 -11.80416,12.74716 -19.11338,14.26762 -7.30922,1.52029 -30.2744,-13.48428 -30.2744,-13.48428 0,0 24.45355,-21.33597 31.82447,-17.30618"
       style="fill:#5f53ae;fill-opacity:1;fill-rule:nonzero;stroke:none;stroke-width:0.03527778"
       id="path158"
       inkscape:connector-curvature="0" />
    <path
       d="m 151.31299,142.84666 c -1.05965,16.64344 11.53924,28.53054 27.95837,29.52755 16.4174,0.99738 30.43143,-9.27331 31.49281,-25.91862 1.06139,-16.64224 -11.4242,-30.34223 -27.84334,-31.33924 -16.41914,-0.99771 -30.54646,11.08858 -31.60784,27.73031"
       style="fill:#fabd99;fill-opacity:1;fill-rule:nonzero;stroke:none;stroke-width:0.03527778"
       id="path160"
       inkscape:connector-curvature="0" />
    <path
       d="m 151.31299,142.84666 c -1.05965,16.64344 11.53924,28.53054 27.95837,29.52755 16.4174,0.99738 30.43143,-9.27331 31.49281,-25.91862 1.06139,-16.64224 -11.4242,-30.34223 -27.84334,-31.33924 -16.41914,-0.99771 -30.54646,11.08858 -31.60784,27.73031"
       style="fill:#fabd99;fill-opacity:1;fill-rule:nonzero;stroke:none;stroke-width:0.03527778"
       id="path162"
       inkscape:connector-curvature="0" />
    <path
       d="m 177.00916,148.04461 c 0.7198,0.64898 1.40821,-1.34355 3.20855,-1.06081 1.83869,0.28798 1.70274,2.40437 2.69615,1.87089 0.81041,-0.43448 0.33985,-3.11375 -2.68569,-3.49274 -2.52535,-0.3166 -3.90393,2.06567 -3.21901,2.68266"
       style="fill:#ee5b63;fill-opacity:1;fill-rule:nonzero;stroke:none;stroke-width:0.03527778"
       id="path164"
       inkscape:connector-curvature="0" />
    <path
       d="m 209.46053,153.45027 c -2.25868,7.06185 -7.16821,12.47006 -13.54172,15.67616 -0.41131,-0.30244 -0.79821,-0.64421 -1.15376,-1.02798 -3.43858,-3.70759 -2.72926,-9.80306 1.58249,-13.61255 3.95273,-3.49105 9.55765,-3.8515 13.11299,-1.03563"
       style="fill:#f79883;fill-opacity:1;fill-rule:nonzero;stroke:none;stroke-width:0.03527778"
       id="path166"
       inkscape:connector-curvature="0" />
    <path
       d="m 151.53781,148.85793 c 1.0457,7.28964 4.89385,13.3332 10.48657,17.47782 0.41654,-0.27115 0.81042,-0.58026 1.17815,-0.93153 3.65993,-3.4987 3.32879,-9.62392 -0.7407,-13.68076 -3.07783,-3.06747 -7.41048,-4.0713 -10.92402,-2.86553"
       style="fill:#f79883;fill-opacity:1;fill-rule:nonzero;stroke:none;stroke-width:0.03527778"
       id="path168"
       inkscape:connector-curvature="0" />
    <path
       d="m 188.06913,144.19839 c 0.99864,2.19818 4.58015,4.95093 8.13724,5.14893 3.55537,0.19802 5.29992,-1.9226 6.97304,-4.30775 0.11677,-1.37638 -2.51489,-6.44638 -6.072,-6.64439 -3.5571,-0.19785 -7.27977,2.60612 -9.03828,5.80321"
       style="fill:#ffffff;fill-opacity:1;fill-rule:nonzero;stroke:none;stroke-width:0.03527778"
       id="path170"
       inkscape:connector-curvature="0" />
    <path
       d="m 193.13901,141.52676 c -1.27749,1.71966 -0.96727,4.06995 0.69538,5.25001 1.66266,1.1787 4.05033,0.74117 5.32955,-0.97867 1.27923,-1.7222 0.96727,-4.07077 -0.69363,-5.25102 -1.66616,-1.17852 -4.05034,-0.73964 -5.3313,0.97968"
       style="fill:#070605;fill-opacity:1;fill-rule:nonzero;stroke:none;stroke-width:0.03527778"
       id="path172"
       inkscape:connector-curvature="0" />
    <path
       d="m 196.99065,142.80294 c -0.15513,0.60406 0.19519,1.2056 0.77729,1.34678 0.58036,0.14018 1.1764,-0.23067 1.33153,-0.83388 0.15334,-0.60102 -0.19346,-1.20337 -0.77209,-1.34933 -0.58384,-0.13678 -1.18338,0.23509 -1.33673,0.83643"
       style="fill:#ffffff;fill-opacity:1;fill-rule:nonzero;stroke:none;stroke-width:0.03527778"
       id="path174"
       inkscape:connector-curvature="0" />
    <path
       d="m 193.20523,144.54353 c -0.0976,0.37442 0.12025,0.74594 0.48276,0.83644 0.36076,0.0878 0.73198,-0.14408 0.82783,-0.51917 0.0889,-0.37274 -0.12024,-0.74612 -0.48449,-0.83423 -0.35903,-0.0878 -0.73025,0.14391 -0.8261,0.51696"
       style="fill:#ffffff;fill-opacity:1;fill-rule:nonzero;stroke:none;stroke-width:0.03527778"
       id="path176"
       inkscape:connector-curvature="0" />
    <path
       d="m 203.17941,145.03957 c 0,0 -2.32842,-7.98914 -10.99025,-5.19555 9.75109,-6.32189 10.99025,5.19555 10.99025,5.19555"
       style="fill:#6d3a2c;fill-opacity:1;fill-rule:nonzero;stroke:none;stroke-width:0.03527778"
       id="path178"
       inkscape:connector-curvature="0" />
    <path
       d="m 172.5946,143.27723 c -1.28621,2.05153 -5.20406,4.32338 -8.75767,4.06533 -3.55188,-0.25791 -4.99669,-2.58315 -6.33692,-5.16154 0.0715,-1.37927 3.36016,-6.06943 6.91205,-5.81156 3.55186,0.25807 6.86671,3.51351 8.18254,6.90777"
       style="fill:#ffffff;fill-opacity:1;fill-rule:nonzero;stroke:none;stroke-width:0.03527778"
       id="path180"
       inkscape:connector-curvature="0" />
    <path
       d="m 168.46063,140.01533 c 1.03697,1.86801 0.41479,4.15855 -1.39078,5.11612 -1.80904,0.95584 -4.11481,0.21739 -5.15352,-1.65113 -1.03873,-1.87088 -0.41304,-4.15939 1.39251,-5.11714 1.80731,-0.95567 4.11482,-0.21603 5.15179,1.65215"
       style="fill:#070605;fill-opacity:1;fill-rule:nonzero;stroke:none;stroke-width:0.03527778"
       id="path182"
       inkscape:connector-curvature="0" />
    <path
       d="m 164.47305,140.78864 c 0.0715,0.61854 -0.35553,1.17022 -0.9516,1.23588 -0.59428,0.0645 -1.13456,-0.37886 -1.2095,-0.99687 -0.0698,-0.61529 0.35379,-1.16851 0.94809,-1.23909 0.59606,-0.0609 1.14155,0.38427 1.21301,1.00008"
       style="fill:#ffffff;fill-opacity:1;fill-rule:nonzero;stroke:none;stroke-width:0.03527778"
       id="path184"
       inkscape:connector-curvature="0" />
    <path
       d="m 167.99182,142.99755 c 0.0453,0.38378 -0.21961,0.72417 -0.59082,0.76771 -0.36949,0.0411 -0.70585,-0.23644 -0.75118,-0.62039 -0.0384,-0.38088 0.21961,-0.72434 0.59258,-0.76533 0.36773,-0.041 0.7041,0.2361 0.74942,0.61801"
       style="fill:#ffffff;fill-opacity:1;fill-rule:nonzero;stroke:none;stroke-width:0.03527778"
       id="path186"
       inkscape:connector-curvature="0" />
    <path
       d="m 157.50001,142.18102 c 0,0 3.38107,-7.62289 11.59326,-3.74706 -8.81869,-7.51301 -11.59326,3.74706 -11.59326,3.74706"
       style="fill:#6d3a2c;fill-opacity:1;fill-rule:nonzero;stroke:none;stroke-width:0.03527778"
       id="path188"
       inkscape:connector-curvature="0" />
    <path
       d="m 198.42324,134.10614 c -2.86346,-1.34731 -4.07297,1.77681 -2.0757,2.12742 2.14366,0.37152 3.79935,1.44254 4.1026,1.28724 0.67099,-0.34312 -0.41478,-2.6587 -2.0269,-3.41466"
       style="fill:#070605;fill-opacity:1;fill-rule:nonzero;stroke:none;stroke-width:0.03527778"
       id="path190"
       inkscape:connector-curvature="0" />
    <path
       d="m 162.91844,132.59043 c 3.12141,-0.58908 3.47171,2.73252 1.45004,2.57414 -2.16982,-0.17555 -4.04857,0.44808 -4.30129,0.22182 -0.55944,-0.49927 1.09449,-2.46646 2.85125,-2.79596"
       style="fill:#070605;fill-opacity:1;fill-rule:nonzero;stroke:none;stroke-width:0.03527778"
       id="path192"
       inkscape:connector-curvature="0" />
    <path
       d="m 192.36171,152.16727 c -1.2984,8.57503 -7.22053,14.93704 -13.90251,14.53965 -6.68023,-0.39738 -11.76755,-7.41416 -11.99062,-16.07967 l 25.89313,1.54002"
       style="fill:#712131;fill-opacity:1;fill-rule:nonzero;stroke:none;stroke-width:0.03527778"
       id="path194"
       inkscape:connector-curvature="0" />
    <path
       d="m 186.67835,163.53553 c -2.34932,2.15226 -5.2058,3.35052 -8.21915,3.17139 -3.01159,-0.17912 -5.69728,-1.70707 -7.76253,-4.12181 2.26393,-0.75155 5.06464,-1.11611 8.07971,-0.9368 3.01336,0.17931 5.7496,0.87317 7.90197,1.88722"
       style="fill:#ee5b63;fill-opacity:1;fill-rule:nonzero;stroke:none;stroke-width:0.03527778"
       id="path196"
       inkscape:connector-curvature="0" />
    <path
       d="m 179.20165,154.83361 c -6.44146,-0.38308 -11.71701,-1.66113 -12.61979,-4.19955 l 25.66656,1.52659 c -1.21127,2.41269 -6.6053,3.05607 -13.04677,2.67296"
       style="fill:#ffffff;fill-opacity:1;fill-rule:nonzero;stroke:none;stroke-width:0.03527778"
       id="path198"
       inkscape:connector-curvature="0" />
    <path
       d="m 198.14091,155.50335 c 0.19868,0.46457 0.74767,0.683 1.22345,0.48806 0.4758,-0.19495 0.69887,-0.72979 0.49845,-1.1942 -0.19866,-0.46456 -0.74766,-0.68299 -1.22346,-0.48806 -0.47579,0.19514 -0.69887,0.72979 -0.49844,1.1942"
       style="fill:#ee5b63;fill-opacity:1;fill-rule:nonzero;stroke:none;stroke-width:0.03527778"
       id="path200"
       inkscape:connector-curvature="0" />
    <path
       d="m 195.18682,157.70324 c 0.19868,0.46457 0.74767,0.683 1.22346,0.48805 0.47578,-0.1951 0.69887,-0.72978 0.5002,-1.19419 -0.20044,-0.46457 -0.74768,-0.683 -1.22345,-0.48805 -0.47756,0.19512 -0.70064,0.72977 -0.50021,1.19419"
       style="fill:#ee5b63;fill-opacity:1;fill-rule:nonzero;stroke:none;stroke-width:0.03527778"
       id="path202"
       inkscape:connector-curvature="0" />
    <path
       d="m 198.30474,158.51382 c 0.19867,0.46458 0.74766,0.68301 1.22345,0.48807 0.4758,-0.19515 0.69886,-0.72979 0.49845,-1.19419 -0.19868,-0.4646 -0.74592,-0.683 -1.22346,-0.48807 -0.4758,0.19511 -0.69886,0.72979 -0.49844,1.19419"
       style="fill:#ee5b63;fill-opacity:1;fill-rule:nonzero;stroke:none;stroke-width:0.03527778"
       id="path204"
       inkscape:connector-curvature="0" />
    <path
       d="m 159.42584,153.36521 c 0.41653,0.29685 1.00212,0.2077 1.30537,-0.19922 0.30499,-0.40689 0.21436,-0.97763 -0.20391,-1.27464 -0.41654,-0.29684 -1.00038,-0.2077 -1.30537,0.19919 -0.30326,0.40692 -0.21263,0.97765 0.20391,1.27467"
       style="fill:#ee5b63;fill-opacity:1;fill-rule:nonzero;stroke:none;stroke-width:0.03527778"
       id="path206"
       inkscape:connector-curvature="0" />
    <path
       d="m 158.11697,156.53066 c 0.41653,0.29701 1.00039,0.20788 1.30539,-0.19904 0.30323,-0.40708 0.21261,-0.97764 -0.20392,-1.27464 -0.41654,-0.29701 -1.00212,-0.20789 -1.30537,0.19902 -0.305,0.40709 -0.21437,0.97764 0.2039,1.27466"
       style="fill:#ee5b63;fill-opacity:1;fill-rule:nonzero;stroke:none;stroke-width:0.03527778"
       id="path208"
       inkscape:connector-curvature="0" />
    <path
       d="m 161.4022,155.90158 c 0.41653,0.29703 1.00037,0.20772 1.30537,-0.1992 0.30324,-0.40691 0.21262,-0.97765 -0.20391,-1.27465 -0.41653,-0.29702 -1.00213,-0.2077 -1.30537,0.1992 -0.30501,0.40692 -0.21438,0.97763 0.20391,1.27465"
       style="fill:#ee5b63;fill-opacity:1;fill-rule:nonzero;stroke:none;stroke-width:0.03527778"
       id="path210"
       inkscape:connector-curvature="0" />
    <path
       d="m 147.74892,123.87371 c -1.579,4.41238 -0.94984,16.13667 3.68607,21.02383 3.3131,-10.70091 7.27105,-18.16526 7.27105,-18.16526 l -10.95712,-2.85857"
       style="fill:#070605;fill-opacity:1;fill-rule:nonzero;stroke:none;stroke-width:0.03527778"
       id="path212"
       inkscape:connector-curvature="0" />
    <path
       d="m 212.41113,117.49825 c 2.30577,-14.16201 -18.56105,-35.306945 -33.99548,-25.748345 -17.91624,11.094705 -17.36201,8.886655 -21.28162,1.26053 -2.88786,-5.620498 -13.07641,-0.336813 -5.36093,16.241965 -4.44943,0.89105 -5.10997,-10.085607 -11.29698,-10.073697 -4.94787,0.008 -11.93312,11.115977 8.67751,21.575837 -9.894,6.3e-4 -11.71699,0.9858 0.8139,5.49141 12.53089,4.50541 41.84345,8.28003 54.97213,4.88424 -0.78601,11.98066 8.06229,19.41439 8.06229,19.41439 0,0 9.87241,-0.91181 13.48493,-10.34758 2.12066,-12.58524 -8.2371,-17.70221 -8.2371,-17.70221 0,0 7.20413,-2.54999 5.22602,-5.1248 -1.97932,-2.57483 -7.44481,1.42231 -7.44481,1.42231 0,0 5.44667,-5.89337 2.3143,-8.62911 -3.13169,-2.73575 -5.93416,7.33506 -5.93416,7.33506"
       style="fill:#070605;fill-opacity:1;fill-rule:nonzero;stroke:none;stroke-width:0.03527778"
       id="path214"
       inkscape:connector-curvature="0" />
    <path
       d="m 209.75334,146.53317 c 0,0 0.61521,-3.35633 4.8311,-3.69043 4.4482,-0.34974 6.00473,5.38304 3.50918,8.68491 -2.50009,3.29662 -7.43053,3.18554 -8.86836,0.48398 l 0.52808,-5.47846"
       style="fill:#fabd99;fill-opacity:1;fill-rule:nonzero;stroke:none;stroke-width:0.03527778"
       id="path216"
       inkscape:connector-curvature="0" />
    <path
       d="m 215.39835,144.34977 c -2.86869,-0.56969 -5.32608,4.31899 -1.48837,6.98719 -1.55809,-3.53544 -0.0191,-4.69696 2.00424,-2.97662 0.007,-1.14096 -0.69191,-1.87771 -2.42949,-1.79759 0.17426,-1.50377 1.91362,-2.21298 1.91362,-2.21298"
       style="fill:#d37658;fill-opacity:1;fill-rule:nonzero;stroke:none;stroke-width:0.03527778"
       id="path218"
       inkscape:connector-curvature="0" />
    <path
       d="m 207.77174,92.756968 c 2.80596,-5.055729 10.73127,0.736593 7.42443,4.13203 -3.51178,-1.670507 -7.42443,-4.13203 -7.42443,-4.13203"
       style="fill:#ef3120;fill-opacity:1;fill-rule:nonzero;stroke:none;stroke-width:0.03527778"
       id="path220"
       inkscape:connector-curvature="0" />
    <path
       d="m 191.27418,103.13892 c -3.32879,-1.70453 -7.80261,-3.648907 -14.40443,-8.706346 -2.28833,-1.753853 -7.63356,1.900158 -3.6059,5.424879 5.9622,5.213927 11.80936,8.138167 15.3473,9.078537 3.53793,0.94158 5.25634,-4.4719 2.66303,-5.79707 z m 34.86536,38.61734 c -19.56162,-13.30517 -47.80407,-33.58509 -64.30514,-42.567347 3.2103,-4.509681 11.11225,-12.026933 21.68945,-13.117349 6.77086,-0.699165 16.53766,1.114234 25.14545,6.532306 8.73677,5.499724 16.60545,12.96424 19.45862,18.81985 4.56655,9.37045 2.06821,22.42912 -1.98838,30.33254"
       style="fill:#f9a70d;fill-opacity:1;fill-rule:nonzero;stroke:none;stroke-width:0.03527778"
       id="path222"
       inkscape:connector-curvature="0" />
    <path
       d="m 159.32474,181.74724 c 0,0 -18.18809,-2.00852 -25.27267,-15.8036 -1.74282,-0.0522 -3.36539,-1.61981 -4.39016,-4.03353 -1.26182,-1.48389 -1.86484,-2.70666 -1.1834,-3.0717 0.70411,-0.37494 1.9694,1.3842 2.3476,1.77699 -0.0245,-0.0857 -1.33675,-2.40795 -1.58946,-2.94023 -0.5856,-1.23519 0.53854,-1.94625 1.24089,-0.97645 0.58211,0.81807 1.79858,2.77691 1.86656,2.87729 -0.028,-0.11636 -1.02652,-2.70666 -1.21998,-3.17769 -0.56641,-1.40328 0.93416,-2.22609 1.61734,-0.6359 0.46359,1.08243 1.20604,3.01166 1.31582,3.15899 0.0348,-0.0859 -0.15859,-1.64193 -0.20737,-2.57312 -0.0749,-1.52982 1.23914,-1.80675 1.62779,-0.1029 0.305,1.34744 1.42738,4.52854 1.42738,4.52854 0,0 1.20603,-1.76798 2.18725,-0.97099 0.98817,0.79663 -1.6313,3.82802 -1.6313,3.82802 0,0 4.30477,10.05076 22.465,13.68961 -0.81392,1.62882 -0.60129,4.42667 -0.60129,4.42667"
       style="fill:#fabd99;fill-opacity:1;fill-rule:nonzero;stroke:none;stroke-width:0.03527778"
       id="path224"
       inkscape:connector-curvature="0" />
    <path
       d="m 201.83395,182.63164 c 0,0 18.26078,-1.23025 25.95552,-14.70994 1.74421,0.0221 3.4344,-1.47452 4.56654,-3.84216 1.32804,-1.42877 1.98507,-2.62448 1.32001,-3.0183 -0.6865,-0.40469 -2.03019,1.29882 -2.42496,1.6751 0.0281,-0.0846 1.44341,-2.34872 1.72069,-2.86961 0.63875,-1.20899 -0.45103,-1.96736 -1.19644,-1.02851 -0.61818,0.79239 -1.92129,2.69748 -1.99467,2.79478 0.0332,-0.11501 1.14818,-2.66021 1.36115,-3.1224 0.62864,-1.37792 -0.83325,-2.26386 -1.5872,-0.70445 -0.51098,1.06168 -1.34004,2.95741 -1.4556,3.09979 -0.0304,-0.0872 0.23285,-1.63342 0.32243,-2.56172 0.14412,-1.52522 -1.15723,-1.8578 -1.62135,-0.17232 -0.36617,1.33317 -1.62954,4.46323 -1.62954,4.46323 0,0 -1.12482,-1.81766 -2.14106,-1.06338 -1.02356,0.75378 1.45788,3.89403 1.45788,3.89403 0,0 -4.75095,9.8575 -23.05773,12.71794 0.74243,1.662 0.40433,4.44792 0.40433,4.44792"
       style="fill:#fabd99;fill-opacity:1;fill-rule:nonzero;stroke:none;stroke-width:0.03527778"
       id="path226"
       inkscape:connector-curvature="0" />
    <path
       d="m 196.73793,203.31421 c 0,0 7.57954,14.71164 -15.82657,14.71164 -23.40438,0 -16.24486,-14.71164 -16.24486,-14.71164 h 32.07143"
       style="fill:#5f53ae;fill-opacity:1;fill-rule:nonzero;stroke:none;stroke-width:0.03527778"
       id="path228"
       inkscape:connector-curvature="0" />
    <path
       d="m 173.6403,174.86432 c -0.63439,9.35516 13.79619,9.98117 14.01578,0 1.88224,0.0443 9.40253,1.52948 20.69254,0.35689 0.92022,4.33548 0.65182,8.97716 1.37858,11.88694 -2.16983,0.68793 -9.13065,1.89113 -12.98403,2.16807 -0.64659,4.86453 1.92582,16.92087 2.5114,17.91282 0,0 -18.7615,2.54384 -36.85548,-0.0357 -0.006,-0.003 2.4748,-17.49809 2.08965,-17.8771 -1.29318,0.0146 -7.51854,-1.21135 -12.06209,-2.16806 -0.22482,-4.92441 1.33674,-10.41222 2.60901,-11.88694 7.4192,1.36906 16.58994,0.21519 18.60464,-0.35689"
       style="fill:#f0451d;fill-opacity:1;fill-rule:nonzero;stroke:none;stroke-width:0.03527778"
       id="path230"
       inkscape:connector-curvature="0" />
    <path
       d="m 181.36971,218.43582 c 0,0 -18.6726,-14.04309 -21.77831,-15.86194 -3.46995,-2.03164 -8.67229,2.37035 -4.51042,6.43364 4.16361,4.06296 25.42082,15.01648 25.42082,15.01648 l 0.86791,-5.58818"
       style="fill:#fabe98;fill-opacity:1;fill-rule:nonzero;stroke:none;stroke-width:0.03527778"
       id="path232"
       inkscape:connector-curvature="0" />
    <path
       d="m 176.49505,214.78862 c 2.65083,1.97671 4.59931,3.44137 4.84505,3.62508 -1.88225,1.0666 -3.76799,2.1162 -5.58228,3.11307 -0.003,0 -0.003,-0.002 -0.004,-0.002 -2.47482,-1.32177 -5.63281,-3.03481 -8.75594,-4.80907 2.17504,-0.81995 6.96432,-0.95604 9.49664,-1.92737"
       style="fill:#eea378;fill-opacity:1;fill-rule:nonzero;stroke:none;stroke-width:0.03527778"
       id="path234"
       inkscape:connector-curvature="0" />
    <path
       d="m 183.45936,218.09731 c 2.77632,-0.33853 8.67404,-1.01557 12.14225,1.01556 2.7432,1.60755 2.08267,9.48205 -2.08093,9.82056 -4.49474,0.36576 -10.40813,-1.35409 -12.14225,-3.72544 -1.73411,-2.36965 -1.18336,-6.71094 2.08093,-7.11068"
       style="fill:#e0dfdd;fill-opacity:1;fill-rule:nonzero;stroke:none;stroke-width:0.03527778"
       id="path236"
       inkscape:connector-curvature="0" />
    <path
       d="m 181.08216,218.04457 c -0.31893,-0.3113 -2.43473,-0.79953 -3.18414,-0.3113 -1.91189,1.2435 -2.29879,6.02876 -0.63787,6.8402 1.27399,0.62091 2.86694,0.3113 2.86694,0.3113 l 0.95507,-6.8402"
       style="fill:#e0dfdd;fill-opacity:1;fill-rule:nonzero;stroke:none;stroke-width:0.03527778"
       id="path238"
       inkscape:connector-curvature="0" />
    <path
       d="m 181.36971,217.75878 c 2.77458,-0.33852 8.67229,-1.01557 12.14052,1.01556 2.7432,1.60757 2.08267,9.48207 -2.08093,9.82058 -4.49475,0.36575 -10.4064,-1.35407 -12.14226,-3.72546 -1.73411,-2.36965 -1.18337,-6.71262 2.08267,-7.11068"
       style="fill:#ce2c1b;fill-opacity:1;fill-rule:nonzero;stroke:none;stroke-width:0.03527778"
       id="path240"
       inkscape:connector-curvature="0" />
    <path
       d="m 186.57204,226.42768 c 0.122,0 0.24401,-0.0391 0.34683,-0.11907 0.24051,-0.18711 0.27885,-0.52734 0.0871,-0.7604 -0.62219,-0.75869 -0.87839,-2.03454 -0.65532,-3.24743 0.17603,-0.95604 0.61349,-1.70114 1.20081,-2.04645 0.26316,-0.15311 0.34858,-0.48654 0.18998,-0.74169 -0.15686,-0.25688 -0.49846,-0.34023 -0.75988,-0.18543 -0.8627,0.50354 -1.49011,1.5191 -1.72365,2.78134 -0.28233,1.53101 0.0557,3.10794 0.88187,4.11501 0.10979,0.13438 0.27014,0.20412 0.43221,0.20412"
       style="fill:#e0dfdd;fill-opacity:1;fill-rule:nonzero;stroke:none;stroke-width:0.03527778"
       id="path242"
       inkscape:connector-curvature="0" />
    <path
       d="m 184.14429,226.08918 c 0.12199,0 0.244,-0.0391 0.34683,-0.11908 0.23877,-0.18714 0.27711,-0.52736 0.0871,-0.76042 -0.62217,-0.75868 -0.88012,-2.03453 -0.65528,-3.24745 0.176,-0.95602 0.61347,-1.70111 1.2008,-2.04643 0.26316,-0.1531 0.34855,-0.48653 0.18995,-0.74169 -0.15684,-0.25687 -0.49845,-0.34022 -0.76161,-0.18542 -0.86095,0.50352 -1.49011,1.51739 -1.72191,2.78133 -0.28233,1.531 0.0557,3.10795 0.88014,4.11501 0.10979,0.1344 0.27187,0.20415 0.43395,0.20415"
       style="fill:#e0dfdd;fill-opacity:1;fill-rule:nonzero;stroke:none;stroke-width:0.03527778"
       id="path244"
       inkscape:connector-curvature="0" />
    <path
       d="m 180.81899,218.43582 c 0,0 18.67086,-14.04309 21.77657,-15.86194 3.46995,-2.03164 8.67404,2.37035 4.51043,6.43364 -4.1636,4.06296 -25.42082,15.01648 -25.42082,15.01648 l -0.86618,-5.58818"
       style="fill:#fabe98;fill-opacity:1;fill-rule:nonzero;stroke:none;stroke-width:0.03527778"
       id="path246"
       inkscape:connector-curvature="0" />
    <path
       d="m 178.7276,218.09731 c -2.77633,-0.33853 -8.67229,-1.01557 -12.14225,1.01556 -2.7432,1.60755 -2.08093,9.48205 2.08092,9.82056 4.49475,0.36576 10.40816,-1.35409 12.14227,-3.72544 1.7341,-2.36965 1.18511,-6.71094 -2.08094,-7.11068"
       style="fill:#e0dfdd;fill-opacity:1;fill-rule:nonzero;stroke:none;stroke-width:0.03527778"
       id="path248"
       inkscape:connector-curvature="0" />
    <path
       d="m 181.10481,218.04457 c 0.31893,-0.3113 2.43646,-0.79953 3.18589,-0.3113 1.91012,1.2435 2.29878,6.02876 0.63612,6.8402 -1.27401,0.62091 -2.86694,0.3113 -2.86694,0.3113 l -0.95507,-6.8402"
       style="fill:#e0dfdd;fill-opacity:1;fill-rule:nonzero;stroke:none;stroke-width:0.03527778"
       id="path250"
       inkscape:connector-curvature="0" />
    <path
       d="m 180.81899,217.75878 c -2.77632,-0.33852 -8.67404,-1.01557 -12.14225,1.01556 -2.74321,1.60757 -2.08093,9.48207 2.08093,9.82058 4.49473,0.36575 10.40813,-1.35407 12.14225,-3.72546 1.73411,-2.36965 1.18512,-6.71262 -2.08093,-7.11068"
       style="fill:#f0451d;fill-opacity:1;fill-rule:nonzero;stroke:none;stroke-width:0.03527778"
       id="path252"
       inkscape:connector-curvature="0" />
    <path
       d="m 175.61491,226.42768 c -0.12199,0 -0.24398,-0.0391 -0.34682,-0.11907 -0.23876,-0.18711 -0.2771,-0.52734 -0.0853,-0.7604 0.62045,-0.75869 0.87839,-2.03454 0.6553,-3.24743 -0.17603,-0.95604 -0.61522,-1.70114 -1.20255,-2.04645 -0.26315,-0.15311 -0.34682,-0.48654 -0.18997,-0.74169 0.15687,-0.25688 0.49845,-0.34023 0.76161,-0.18543 0.86097,0.50354 1.49013,1.5191 1.72192,2.78134 0.28233,1.53101 -0.0557,3.10794 -0.88012,4.11501 -0.1098,0.13438 -0.27187,0.20412 -0.43397,0.20412"
       style="fill:#e0dfdd;fill-opacity:1;fill-rule:nonzero;stroke:none;stroke-width:0.03527778"
       id="path254"
       inkscape:connector-curvature="0" />
    <path
       d="m 178.04267,226.08918 c -0.12199,0 -0.24399,-0.0391 -0.34508,-0.11908 -0.24051,-0.18714 -0.27884,-0.52736 -0.0871,-0.76042 0.62218,-0.75868 0.87839,-2.03453 0.65529,-3.24745 -0.17601,-0.95602 -0.61347,-1.70111 -1.20253,-2.04643 -0.26142,-0.1531 -0.34682,-0.48653 -0.18998,-0.74169 0.15859,-0.25687 0.49844,-0.34022 0.76163,-0.18542 0.86269,0.50352 1.4901,1.51739 1.72189,2.78133 0.28235,1.531 -0.0541,3.10795 -0.88012,4.11501 -0.1098,0.1344 -0.27188,0.20415 -0.43396,0.20415"
       style="fill:#e0dfdd;fill-opacity:1;fill-rule:nonzero;stroke:none;stroke-width:0.03527778"
       id="path256"
       inkscape:connector-curvature="0" />
  </g>
  <g
     inkscape:groupmode="layer"
     id="layer2"
     inkscape:label="Layer 3" />
  <g
     inkscape:label="Layer 1"
     inkscape:groupmode="layer"
     id="layer1"
     transform="translate(0,-32.41665)">
    <text
       xml:space="preserve"
       style="font-style:normal;font-variant:normal;font-weight:bold;font-stretch:normal;font-size:10.58333302px;line-height:1.25;font-family:sans-serif;-inkscape-font-specification:'sans-serif Bold';letter-spacing:0px;word-spacing:0px;fill:#000000;fill-opacity:1;stroke:none;stroke-width:0.26458332"
       x="150.05655"
       y="89.869026"
       id="text8811" />
    <text
       xml:space="preserve"
       style="font-style:normal;font-variant:normal;font-weight:bold;font-stretch:normal;font-size:10.58333302px;line-height:1.25;font-family:sans-serif;-inkscape-font-specification:'sans-serif Bold';letter-spacing:0px;word-spacing:0px;fill:#000000;fill-opacity:1;stroke:none;stroke-width:0.26458332"
       x="160.63989"
       y="97.806526"
       id="text8815" />
    <text
       xml:space="preserve"
       style="font-style:normal;font-variant:normal;font-weight:bold;font-stretch:normal;font-size:10.58333302px;line-height:1.25;font-family:sans-serif;-inkscape-font-specification:'sans-serif Bold';letter-spacing:0px;word-spacing:0px;fill:#000000;fill-opacity:1;stroke:none;stroke-width:0.26458332"
       x="156.86011"
       y="88.7351"
       id="text8819" />
    <flowRoot
       xml:space="preserve"
       id="flowRoot8821"
       style="font-style:normal;font-variant:normal;font-weight:bold;font-stretch:normal;font-size:40px;line-height:1.25;font-family:sans-serif;-inkscape-font-specification:'sans-serif Bold';letter-spacing:0px;word-spacing:0px;fill:#000000;fill-opacity:1;stroke:none"><flowRegion
         id="flowRegion8823"
         style="font-style:normal;font-variant:normal;font-weight:bold;font-stretch:normal;font-family:sans-serif;-inkscape-font-specification:'sans-serif Bold'" /><flowPara
         id="flowPara8827" /></flowRoot>    <flowRoot
       xml:space="preserve"
       id="flowRoot8829"
       style="font-style:normal;font-variant:normal;font-weight:bold;font-stretch:normal;font-size:40px;line-height:1.25;font-family:sans-serif;-inkscape-font-specification:'sans-serif Bold';letter-spacing:0px;word-spacing:0px;fill:#000000;fill-opacity:1;stroke:none"><flowRegion
         id="flowRegion8831"
         style="font-style:normal;font-variant:normal;font-weight:bold;font-stretch:normal;font-family:sans-serif;-inkscape-font-specification:'sans-serif Bold'" /><flowPara
         id="flowPara8835" /></flowRoot>    <flowRoot
       xml:space="preserve"
       id="flowRoot8837"
       style="font-style:normal;font-variant:normal;font-weight:bold;font-stretch:normal;font-size:40px;line-height:1.25;font-family:sans-serif;-inkscape-font-specification:'sans-serif Bold';letter-spacing:0px;word-spacing:0px;fill:#000000;fill-opacity:1;stroke:none"><flowRegion
         id="flowRegion8839"
         style="font-style:normal;font-variant:normal;font-weight:bold;font-stretch:normal;font-family:sans-serif;-inkscape-font-specification:'sans-serif Bold'" /><flowPara
         id="flowPara8843" /></flowRoot>    <text
       xml:space="preserve"
       style="font-style:normal;font-variant:normal;font-weight:bold;font-stretch:normal;font-size:10.58333302px;line-height:1.25;font-family:sans-serif;-inkscape-font-specification:'sans-serif Bold';letter-spacing:0px;word-spacing:0px;fill:#000000;fill-opacity:1;stroke:none;stroke-width:0.26458332"
       x="209.39882"
       y="107.25594"
       id="text8847" />
    <flowRoot
       xml:space="preserve"
       id="flowRoot8849"
       style="font-style:normal;font-variant:normal;font-weight:bold;font-stretch:normal;font-size:40px;line-height:1.25;font-family:sans-serif;-inkscape-font-specification:'sans-serif Bold';letter-spacing:0px;word-spacing:0px;fill:#000000;fill-opacity:1;stroke:none"><flowRegion
         id="flowRegion8851"
         style="font-style:normal;font-variant:normal;font-weight:bold;font-stretch:normal;font-family:sans-serif;-inkscape-font-specification:'sans-serif Bold'" /><flowPara
         id="flowPara8855" /></flowRoot>    <flowRoot
       xml:space="preserve"
       id="flowRoot8857"
       style="font-style:normal;font-variant:normal;font-weight:bold;font-stretch:normal;font-size:40px;line-height:1.25;font-family:sans-serif;-inkscape-font-specification:'sans-serif Bold';letter-spacing:0px;word-spacing:0px;fill:#000000;fill-opacity:1;stroke:none"><flowRegion
         id="flowRegion8859"
         style="font-style:normal;font-variant:normal;font-weight:bold;font-stretch:normal;font-family:sans-serif;-inkscape-font-specification:'sans-serif Bold'" /><flowPara
         id="flowPara8863" /></flowRoot>    <flowRoot
       xml:space="preserve"
       id="flowRoot8865"
       style="font-style:normal;font-variant:normal;font-weight:bold;font-stretch:normal;font-size:40px;line-height:1.25;font-family:sans-serif;-inkscape-font-specification:'sans-serif Bold';letter-spacing:0px;word-spacing:0px;fill:#000000;fill-opacity:1;stroke:none"><flowRegion
         id="flowRegion8867"
         style="font-style:normal;font-variant:normal;font-weight:bold;font-stretch:normal;font-family:sans-serif;-inkscape-font-specification:'sans-serif Bold'" /><flowPara
         id="flowPara8871" /></flowRoot>    <flowRoot
       xml:space="preserve"
       id="flowRoot8873"
       style="font-style:normal;font-variant:normal;font-weight:bold;font-stretch:normal;font-size:40px;line-height:1.25;font-family:sans-serif;-inkscape-font-specification:'sans-serif Bold';letter-spacing:0px;word-spacing:0px;fill:#000000;fill-opacity:1;stroke:none"><flowRegion
         id="flowRegion8875"
         style="font-style:normal;font-variant:normal;font-weight:bold;font-stretch:normal;font-family:sans-serif;-inkscape-font-specification:'sans-serif Bold'" /><flowPara
         id="flowPara8879" /></flowRoot>    <text
       xml:space="preserve"
       style="font-style:normal;font-weight:normal;font-size:10.58333302px;line-height:1.25;font-family:sans-serif;letter-spacing:0px;word-spacing:0px;fill:#000000;fill-opacity:1;stroke:none;stroke-width:0.26458332"
       x="101.02788"
       y="69.125984"
       id="text977"><tspan
         sodipodi:role="line"
         id="tspan975"
         x="101.02788"
         y="78.489754"
         style="stroke-width:0.26458332" /><tspan
         sodipodi:role="line"
         x="101.02788"
         y="91.718918"
         style="stroke-width:0.26458332"
         id="tspan979" /><tspan
         sodipodi:role="line"
         x="101.02788"
         y="104.94809"
         style="stroke-width:0.26458332"
         id="tspan981" /><tspan
         sodipodi:role="line"
         x="101.02788"
         y="118.17725"
         style="stroke-width:0.26458332"
         id="tspan983" /><tspan
         sodipodi:role="line"
         x="101.02788"
         y="131.40642"
         style="stroke-width:0.26458332"
         id="tspan985" /><tspan
         sodipodi:role="line"
         x="101.02788"
         y="144.63559"
         style="stroke-width:0.26458332"
         id="tspan987" /><tspan
         sodipodi:role="line"
         x="101.02788"
         y="157.86475"
         style="stroke-width:0.26458332"
         id="tspan989" /><tspan
         sodipodi:role="line"
         x="101.02788"
         y="171.09392"
         style="stroke-width:0.26458332"
         id="tspan991" /><tspan
         sodipodi:role="line"
         x="101.02788"
         y="184.32309"
         style="stroke-width:0.26458332"
         id="tspan993" /><tspan
         sodipodi:role="line"
         x="101.02788"
         y="197.55225"
         style="stroke-width:0.26458332"
         id="tspan995" /><tspan
         sodipodi:role="line"
         x="101.02788"
         y="210.78142"
         style="stroke-width:0.26458332"
         id="tspan997" /><tspan
         sodipodi:role="line"
         x="101.02788"
         y="224.01059"
         style="stroke-width:0.26458332"
         id="tspan999" /><tspan
         sodipodi:role="line"
         x="101.02788"
         y="237.23975"
         style="stroke-width:0.26458332"
         id="tspan1001" /><tspan
         sodipodi:role="line"
         x="101.02788"
         y="250.46892"
         style="stroke-width:0.26458332"
         id="tspan1003" /><tspan
         sodipodi:role="line"
         x="101.02788"
         y="263.69809"
         style="stroke-width:0.26458332"
         id="tspan1005" /><tspan
         sodipodi:role="line"
         x="101.02788"
         y="276.92725"
         style="stroke-width:0.26458332"
         id="tspan1007" /><tspan
         sodipodi:role="line"
         x="101.02788"
         y="290.1564"
         style="stroke-width:0.26458332"
         id="tspan1009" /><tspan
         sodipodi:role="line"
         x="101.02788"
         y="303.38559"
         style="stroke-width:0.26458332"
         id="tspan1011" /><tspan
         sodipodi:role="line"
         x="101.02788"
         y="316.61475"
         style="stroke-width:0.26458332"
         id="tspan1013" /><tspan
         sodipodi:role="line"
         x="101.02788"
         y="329.8439"
         style="stroke-width:0.26458332"
         id="tspan1015" /><tspan
         sodipodi:role="line"
         x="101.02788"
         y="343.07309"
         style="stroke-width:0.26458332"
         id="tspan1017" /><tspan
         sodipodi:role="line"
         x="101.02788"
         y="356.30225"
         style="stroke-width:0.26458332"
         id="tspan1019" /><tspan
         sodipodi:role="line"
         x="101.02788"
         y="369.5314"
         style="stroke-width:0.26458332"
         id="tspan1021" /><tspan
         sodipodi:role="line"
         x="101.02788"
         y="382.76059"
         style="stroke-width:0.26458332"
         id="tspan1023" /></text>
    <text
       xml:space="preserve"
       style="font-style:normal;font-weight:normal;font-size:10.58333302px;line-height:1.25;font-family:sans-serif;letter-spacing:0px;word-spacing:0px;fill:#000000;fill-opacity:1;stroke:none;stroke-width:0.26458332"
       x="77.080528"
       y="66.506737"
       id="text8703"><tspan
         sodipodi:role="line"
         id="tspan8701"
         x="77.080528"
         y="75.870506"
         style="font-style:normal;font-variant:normal;font-weight:bold;font-stretch:normal;font-size:12.69999981px;font-family:sans-serif;-inkscape-font-specification:'sans-serif Bold';stroke-width:0.26458332" /></text>
  </g>
</svg>
