<?xml version="1.0" encoding="UTF-8" standalone="no"?>
<!-- Created with Inkscape (http://www.inkscape.org/) -->

<svg
   xmlns:dc="http://purl.org/dc/elements/1.1/"
   xmlns:cc="http://creativecommons.org/ns#"
   xmlns:rdf="http://www.w3.org/1999/02/22-rdf-syntax-ns#"
   xmlns:svg="http://www.w3.org/2000/svg"
   xmlns="http://www.w3.org/2000/svg"
   xmlns:sodipodi="http://sodipodi.sourceforge.net/DTD/sodipodi-0.dtd"
   xmlns:inkscape="http://www.inkscape.org/namespaces/inkscape"
   width="1000"
   height="1000"
   viewBox="0 0 264.58333 264.58334"
   version="1.1"
   id="svg2383"
   inkscape:version="0.92.5 (2060ec1f9f, 2020-04-08)"
   sodipodi:docname="walk.svg"
   enable-background="new">
  <defs
     id="defs2377" />
  <sodipodi:namedview
     id="base"
     pagecolor="#ffffff"
     bordercolor="#666666"
     borderopacity="1.0"
     inkscape:pageopacity="0.0"
     inkscape:pageshadow="2"
     inkscape:zoom="0.70710678"
     inkscape:cx="374.85533"
     inkscape:cy="401.13407"
     inkscape:document-units="px"
     inkscape:current-layer="layer1"
     showgrid="false"
     units="px"
     inkscape:window-width="1920"
     inkscape:window-height="1031"
     inkscape:window-x="0"
     inkscape:window-y="25"
     inkscape:window-maximized="1"
     showguides="true"
     inkscape:lockguides="true"
     inkscape:object-nodes="false"
     inkscape:snap-nodes="false"
     inkscape:snap-others="false" />
  <metadata
     id="metadata2380">
    <rdf:RDF>
      <cc:Work
         rdf:about="">
        <dc:format>image/svg+xml</dc:format>
        <dc:type
           rdf:resource="http://purl.org/dc/dcmitype/StillImage" />
        <dc:title></dc:title>
      </cc:Work>
    </rdf:RDF>
  </metadata>
  <g
     inkscape:groupmode="layer"
     id="layer3"
     inkscape:label="Layer 2" />
  <g
     inkscape:groupmode="layer"
     id="layer2"
     inkscape:label="Layer 3" />
  <g
     inkscape:label="Layer 1"
     inkscape:groupmode="layer"
     id="layer1"
     transform="translate(0,-32.41665)">
    <text
       xml:space="preserve"
       style="font-style:normal;font-variant:normal;font-weight:bold;font-stretch:normal;font-size:10.58333302px;line-height:1.25;font-family:sans-serif;-inkscape-font-specification:'sans-serif Bold';letter-spacing:0px;word-spacing:0px;fill:#000000;fill-opacity:1;stroke:none;stroke-width:0.26458332"
       x="150.05655"
       y="89.869026"
       id="text8811" />
    <text
       xml:space="preserve"
       style="font-style:normal;font-variant:normal;font-weight:bold;font-stretch:normal;font-size:10.58333302px;line-height:1.25;font-family:sans-serif;-inkscape-font-specification:'sans-serif Bold';letter-spacing:0px;word-spacing:0px;fill:#000000;fill-opacity:1;stroke:none;stroke-width:0.26458332"
       x="160.63989"
       y="97.806526"
       id="text8815" />
    <text
       xml:space="preserve"
       style="font-style:normal;font-variant:normal;font-weight:bold;font-stretch:normal;font-size:10.58333302px;line-height:1.25;font-family:sans-serif;-inkscape-font-specification:'sans-serif Bold';letter-spacing:0px;word-spacing:0px;fill:#000000;fill-opacity:1;stroke:none;stroke-width:0.26458332"
       x="156.86011"
       y="88.7351"
       id="text8819" />
    <flowRoot
       xml:space="preserve"
       id="flowRoot8821"
       style="font-style:normal;font-variant:normal;font-weight:bold;font-stretch:normal;font-size:40px;line-height:1.25;font-family:sans-serif;-inkscape-font-specification:'sans-serif Bold';letter-spacing:0px;word-spacing:0px;fill:#000000;fill-opacity:1;stroke:none"><flowRegion
         id="flowRegion8823"
         style="font-style:normal;font-variant:normal;font-weight:bold;font-stretch:normal;font-family:sans-serif;-inkscape-font-specification:'sans-serif Bold'" /><flowPara
         id="flowPara8827" /></flowRoot>    <flowRoot
       xml:space="preserve"
       id="flowRoot8829"
       style="font-style:normal;font-variant:normal;font-weight:bold;font-stretch:normal;font-size:40px;line-height:1.25;font-family:sans-serif;-inkscape-font-specification:'sans-serif Bold';letter-spacing:0px;word-spacing:0px;fill:#000000;fill-opacity:1;stroke:none"><flowRegion
         id="flowRegion8831"
         style="font-style:normal;font-variant:normal;font-weight:bold;font-stretch:normal;font-family:sans-serif;-inkscape-font-specification:'sans-serif Bold'" /><flowPara
         id="flowPara8835" /></flowRoot>    <flowRoot
       xml:space="preserve"
       id="flowRoot8837"
       style="font-style:normal;font-variant:normal;font-weight:bold;font-stretch:normal;font-size:40px;line-height:1.25;font-family:sans-serif;-inkscape-font-specification:'sans-serif Bold';letter-spacing:0px;word-spacing:0px;fill:#000000;fill-opacity:1;stroke:none"><flowRegion
         id="flowRegion8839"
         style="font-style:normal;font-variant:normal;font-weight:bold;font-stretch:normal;font-family:sans-serif;-inkscape-font-specification:'sans-serif Bold'" /><flowPara
         id="flowPara8843" /></flowRoot>    <text
       xml:space="preserve"
       style="font-style:normal;font-variant:normal;font-weight:bold;font-stretch:normal;font-size:10.58333302px;line-height:1.25;font-family:sans-serif;-inkscape-font-specification:'sans-serif Bold';letter-spacing:0px;word-spacing:0px;fill:#000000;fill-opacity:1;stroke:none;stroke-width:0.26458332"
       x="209.39882"
       y="107.25594"
       id="text8847" />
    <flowRoot
       xml:space="preserve"
       id="flowRoot8849"
       style="font-style:normal;font-variant:normal;font-weight:bold;font-stretch:normal;font-size:40px;line-height:1.25;font-family:sans-serif;-inkscape-font-specification:'sans-serif Bold';letter-spacing:0px;word-spacing:0px;fill:#000000;fill-opacity:1;stroke:none"><flowRegion
         id="flowRegion8851"
         style="font-style:normal;font-variant:normal;font-weight:bold;font-stretch:normal;font-family:sans-serif;-inkscape-font-specification:'sans-serif Bold'" /><flowPara
         id="flowPara8855" /></flowRoot>    <flowRoot
       xml:space="preserve"
       id="flowRoot8857"
       style="font-style:normal;font-variant:normal;font-weight:bold;font-stretch:normal;font-size:40px;line-height:1.25;font-family:sans-serif;-inkscape-font-specification:'sans-serif Bold';letter-spacing:0px;word-spacing:0px;fill:#000000;fill-opacity:1;stroke:none"><flowRegion
         id="flowRegion8859"
         style="font-style:normal;font-variant:normal;font-weight:bold;font-stretch:normal;font-family:sans-serif;-inkscape-font-specification:'sans-serif Bold'" /><flowPara
         id="flowPara8863" /></flowRoot>    <flowRoot
       xml:space="preserve"
       id="flowRoot8865"
       style="font-style:normal;font-variant:normal;font-weight:bold;font-stretch:normal;font-size:40px;line-height:1.25;font-family:sans-serif;-inkscape-font-specification:'sans-serif Bold';letter-spacing:0px;word-spacing:0px;fill:#000000;fill-opacity:1;stroke:none"><flowRegion
         id="flowRegion8867"
         style="font-style:normal;font-variant:normal;font-weight:bold;font-stretch:normal;font-family:sans-serif;-inkscape-font-specification:'sans-serif Bold'" /><flowPara
         id="flowPara8871" /></flowRoot>    <flowRoot
       xml:space="preserve"
       id="flowRoot8873"
       style="font-style:normal;font-variant:normal;font-weight:bold;font-stretch:normal;font-size:40px;line-height:1.25;font-family:sans-serif;-inkscape-font-specification:'sans-serif Bold';letter-spacing:0px;word-spacing:0px;fill:#000000;fill-opacity:1;stroke:none"><flowRegion
         id="flowRegion8875"
         style="font-style:normal;font-variant:normal;font-weight:bold;font-stretch:normal;font-family:sans-serif;-inkscape-font-specification:'sans-serif Bold'" /><flowPara
         id="flowPara8879" /></flowRoot>    <text
       xml:space="preserve"
       style="font-style:normal;font-weight:normal;font-size:10.58333302px;line-height:1.25;font-family:sans-serif;letter-spacing:0px;word-spacing:0px;fill:#000000;fill-opacity:1;stroke:none;stroke-width:0.26458332"
       x="101.02788"
       y="69.125984"
       id="text977"><tspan
         sodipodi:role="line"
         id="tspan975"
         x="101.02788"
         y="78.489754"
         style="stroke-width:0.26458332" /><tspan
         sodipodi:role="line"
         x="101.02788"
         y="91.718918"
         style="stroke-width:0.26458332"
         id="tspan979" /><tspan
         sodipodi:role="line"
         x="101.02788"
         y="104.94809"
         style="stroke-width:0.26458332"
         id="tspan981" /><tspan
         sodipodi:role="line"
         x="101.02788"
         y="118.17725"
         style="stroke-width:0.26458332"
         id="tspan983" /><tspan
         sodipodi:role="line"
         x="101.02788"
         y="131.40642"
         style="stroke-width:0.26458332"
         id="tspan985" /><tspan
         sodipodi:role="line"
         x="101.02788"
         y="144.63559"
         style="stroke-width:0.26458332"
         id="tspan987" /><tspan
         sodipodi:role="line"
         x="101.02788"
         y="157.86475"
         style="stroke-width:0.26458332"
         id="tspan989" /><tspan
         sodipodi:role="line"
         x="101.02788"
         y="171.09392"
         style="stroke-width:0.26458332"
         id="tspan991" /><tspan
         sodipodi:role="line"
         x="101.02788"
         y="184.32309"
         style="stroke-width:0.26458332"
         id="tspan993" /><tspan
         sodipodi:role="line"
         x="101.02788"
         y="197.55225"
         style="stroke-width:0.26458332"
         id="tspan995" /><tspan
         sodipodi:role="line"
         x="101.02788"
         y="210.78142"
         style="stroke-width:0.26458332"
         id="tspan997" /><tspan
         sodipodi:role="line"
         x="101.02788"
         y="224.01059"
         style="stroke-width:0.26458332"
         id="tspan999" /><tspan
         sodipodi:role="line"
         x="101.02788"
         y="237.23975"
         style="stroke-width:0.26458332"
         id="tspan1001" /><tspan
         sodipodi:role="line"
         x="101.02788"
         y="250.46892"
         style="stroke-width:0.26458332"
         id="tspan1003" /><tspan
         sodipodi:role="line"
         x="101.02788"
         y="263.69809"
         style="stroke-width:0.26458332"
         id="tspan1005" /><tspan
         sodipodi:role="line"
         x="101.02788"
         y="276.92725"
         style="stroke-width:0.26458332"
         id="tspan1007" /><tspan
         sodipodi:role="line"
         x="101.02788"
         y="290.1564"
         style="stroke-width:0.26458332"
         id="tspan1009" /><tspan
         sodipodi:role="line"
         x="101.02788"
         y="303.38559"
         style="stroke-width:0.26458332"
         id="tspan1011" /><tspan
         sodipodi:role="line"
         x="101.02788"
         y="316.61475"
         style="stroke-width:0.26458332"
         id="tspan1013" /><tspan
         sodipodi:role="line"
         x="101.02788"
         y="329.8439"
         style="stroke-width:0.26458332"
         id="tspan1015" /><tspan
         sodipodi:role="line"
         x="101.02788"
         y="343.07309"
         style="stroke-width:0.26458332"
         id="tspan1017" /><tspan
         sodipodi:role="line"
         x="101.02788"
         y="356.30225"
         style="stroke-width:0.26458332"
         id="tspan1019" /><tspan
         sodipodi:role="line"
         x="101.02788"
         y="369.5314"
         style="stroke-width:0.26458332"
         id="tspan1021" /><tspan
         sodipodi:role="line"
         x="101.02788"
         y="382.76059"
         style="stroke-width:0.26458332"
         id="tspan1023" /></text>
    <path
       d="m 163.39006,174.35812 c 9.16374,3.29909 23.41923,0.4556 30.30978,-13.37726 4.32019,-2.72947 6.37635,-6.05056 5.8255,-6.87704 -0.76329,-1.14473 -2.94788,1.80386 -3.66311,2.0605 0.0119,-0.11401 1.8453,-4.57203 2.03463,-5.31495 0.43615,-1.72258 -0.86244,-2.43643 -1.7702,-1.17495 -0.78139,1.08474 -2.28533,3.59054 -2.34554,3.73729 0.007,-0.15613 0.64013,-3.88931 0.76742,-4.53952 0.37158,-1.93114 -1.69236,-2.71986 -2.45544,-0.0975 -0.42629,1.46799 -0.9286,3.93854 -1.03048,4.15351 -0.0648,-0.10096 -0.91532,-2.23037 -1.24546,-3.40807 -0.53939,-1.91948 -2.47947,-1.71365 -2.39385,0.46133 0.0698,1.7963 1.13809,6.8008 1.13809,6.8008 0,0 -3.38335,-2.10789 -4.03493,-0.98309 -0.82259,1.42106 3.80117,3.87009 3.80117,3.87009 0,0 -8.78301,13.58078 -21.43816,9.33271 -0.77704,1.29446 -2.64775,4.30989 -3.49942,5.35617"
       style="fill:#fabd99;fill-opacity:1;fill-rule:nonzero;stroke:none;stroke-width:0.03527778"
       id="path270"
       inkscape:connector-curvature="0" />
    <path
       d="m 106.7944,168.56146 c 0,0 -10.144777,7.85258 -19.57502,18.71144 -2.21321,-0.33883 -4.635905,1.29125 -6.508217,4.13932 -1.951069,1.60492 -3.004216,3.02895 -2.231984,3.65397 0.797873,0.64333 2.818541,-1.31186 3.3893,-1.72625 -0.05197,0.10074 -2.265409,2.76565 -2.712768,3.38838 -1.034144,1.44465 0.211545,2.61456 1.331315,1.53623 0.930432,-0.90892 2.935761,-3.13197 3.04657,-3.24644 -0.06296,0.14424 -1.946948,3.22354 -2.302041,3.78217 -1.051086,1.66214 0.643335,3.06328 1.888337,1.18822 0.842747,-1.27751 2.244806,-3.57153 2.418117,-3.73409 0.02198,0.11676 -0.596631,2.0605 -0.880523,3.24186 -0.463384,1.93687 1.129157,2.59624 2.029139,0.50826 0.710188,-1.65298 2.888828,-5.46034 2.888828,-5.46034 0,0 1.09573,2.53901 2.526178,1.74914 1.43869,-0.78986 -1.137399,-5.27489 -1.137399,-5.27489 0,0 8.794692,-10.22468 19.489398,-16.67406 -0.9428,-2.67453 -3.65923,-5.78292 -3.65923,-5.78292"
       style="fill:#fabd99;fill-opacity:1;fill-rule:nonzero;stroke:none;stroke-width:0.03527778"
       id="path272"
       inkscape:connector-curvature="0" />
    <path
       d="m 150.07346,200.04574 c 0,0 -1.29742,20.29826 -26.151,38.78326 -9.18092,-0.38232 -11.47609,-7.269 -11.47609,-7.269 l 9.31416,-32.73682 28.31293,1.22256"
       style="fill:#e03c20;fill-opacity:1;fill-rule:nonzero;stroke:none;stroke-width:0.03527778"
       id="path274"
       inkscape:connector-curvature="0" />
    <path
       d="m 118.00171,236.36099 c 0,0 -5.70599,6.70809 -8.55819,8.4366 -3.30779,-0.0435 -4.79273,-1.9071 -4.79273,-1.9071 l 7.39286,-8.92198 5.95806,2.39248"
       style="fill:#fabd99;fill-opacity:1;fill-rule:nonzero;stroke:none;stroke-width:0.03527778"
       id="path276"
       inkscape:connector-curvature="0" />
    <path
       d="m 103.49302,245.33791 c -0.88304,1.25233 -1.8176,3.7982 0.84068,7.14308 2.65485,3.34717 5.45255,6.27996 10.57566,5.58625 4.30965,-0.5815 2.81877,-6.03956 2.81877,-6.03956 l -14.23511,-6.68977"
       style="fill:#e9e9e9;fill-opacity:1;fill-rule:nonzero;stroke:none;stroke-width:0.03527778"
       id="path278"
       inkscape:connector-curvature="0" />
    <path
       d="m 107.40225,239.61199 c -1.0101,1.08751 -5.82733,5.4924 -3.83094,8.0749 1.98587,2.57791 6.67146,8.47782 12.77055,8.01764 4.78198,-0.35944 3.00284,-5.62288 0.3148,-7.22092 -2.48336,-1.47897 -4.66933,-5.703 -4.66933,-5.703 0,0 -4.1249,0.60898 -4.58508,-3.16862"
       style="fill:#933c47;fill-opacity:1;fill-rule:nonzero;stroke:none;stroke-width:0.03527778"
       id="path280"
       inkscape:connector-curvature="0" />
    <path
       d="m 113.46975,245.20514 c -1.68778,-0.88602 -4.35293,-0.50827 -5.46766,0.57234 -1.10741,1.08292 -0.25825,2.28258 0.50047,2.3673 0.76033,0.0847 3.1338,-0.52199 5.64464,-0.35028 2.50855,0.18086 0.67401,-1.88879 -0.67745,-2.58936"
       style="fill:#e9e9e9;fill-opacity:1;fill-rule:nonzero;stroke:none;stroke-width:0.03527778"
       id="path282"
       inkscape:connector-curvature="0" />
    <path
       d="m 125.62398,156.73005 c 0,0 3.2849,-0.38944 6.4986,-1.23082 0.39745,-3.23361 -0.13348,-6.88025 -0.13348,-6.88025 l 5.96791,-0.42515 c 0,0 0.31022,5.32526 0.17079,7.45216 4.28746,1.24706 7.89448,1.92978 7.89448,1.92978 0,0 1.34437,10.77094 -10.02504,10.99897 -3.97906,0.0806 -9.81097,-4.40903 -10.37326,-11.84469"
       style="fill:#fabd99;fill-opacity:1;fill-rule:nonzero;stroke:none;stroke-width:0.03527778"
       id="path284"
       inkscape:connector-curvature="0" />
    <path
       d="m 137.62504,149.53499 -4.62469,0.0602 c 0,0 -0.13622,5.46949 -0.19346,6.99313 1.49868,-1.61659 3.78218,-1.85722 4.4816,-0.13417 0.12798,-3.03535 0.33655,-6.91918 0.33655,-6.91918"
       style="fill:#efa378;fill-opacity:1;fill-rule:nonzero;stroke:none;stroke-width:0.03527778"
       id="path286"
       inkscape:connector-curvature="0" />
    <path
       d="m 145.63514,157.54967 c 4.88912,17.06258 -14.95491,13.58627 -21.70742,-0.90502 -2.39316,-0.17354 -17.58274,5.99308 -20.46126,10.00741 -1.97809,2.75902 4.96581,6.07138 7.90684,10.73957 0.29626,0.46935 2.95614,-0.73262 3.33367,-0.29991 0.2104,8.13671 -0.69668,16.00325 -1.57011,17.30595 0,0 12.73392,5.90449 36.02083,4.5789 0.008,-0.003 2.59508,-17.58984 4.04867,-24.59784 -1.2251,-0.43271 8.00253,4.69107 8.48698,4.38429 1.3146,-0.83336 5.83809,-9.68324 4.46672,-12.86624 -0.16553,-0.38463 -11.05278,-7.27336 -20.52492,-8.34711"
       style="fill:#ecb50e;fill-opacity:1;fill-rule:nonzero;stroke:none;stroke-width:0.03527778"
       id="path288"
       inkscape:connector-curvature="0" />
    <path
       d="m 144.41417,156.83192 c 0.22094,4.83829 1.05407,10.21621 -6.13938,9.18322 -6.33743,-0.90961 -10.33641,-4.83418 -10.47194,-10.09624 -1.70816,0.3766 -4.69979,0.44438 -4.69979,0.44438 0,0 1.41855,12.93698 15.2704,14.11194 13.16205,1.11633 10.57566,-12.93059 10.57566,-12.93059 l -4.53495,-0.71271"
       style="fill:#29806a;fill-opacity:1;fill-rule:nonzero;stroke:none;stroke-width:0.03527778"
       id="path290"
       inkscape:connector-curvature="0" />
    <path
       d="m 99.976421,168.716 c 5.692949,7.80794 5.681959,7.79878 10.410359,11.178 1.30613,-0.87456 2.93759,-2.7748 2.93759,-2.7748 -2.24229,-1.37596 -6.25363,-5.25384 -9.98223,-11.29775 -1.51333,1.15388 -3.365719,2.89455 -3.365719,2.89455"
       style="fill:#29806a;fill-opacity:1;fill-rule:nonzero;stroke:none;stroke-width:0.03527778"
       id="path292"
       inkscape:connector-curvature="0" />
    <path
       d="m 169.65719,167.07813 c -4.01181,8.79102 -4.0031,8.77958 -7.95744,13.04025 -1.4554,-0.59755 -3.4344,-2.1292 -3.4344,-2.1292 1.92062,-1.7995 5.07296,-6.40266 7.51397,-13.07183 1.71365,0.82695 3.87787,2.16078 3.87787,2.16078"
       style="fill:#29806a;fill-opacity:1;fill-rule:nonzero;stroke:none;stroke-width:0.03527778"
       id="path294"
       inkscape:connector-curvature="0" />
    <path
       d="m 148.53816,254.2599 c 0,0 2.047,8.68387 3.30505,13.37496 -2.96736,1.46068 -5.06586,1.28209 -5.06586,1.28209 l -4.63362,-14.09157 6.39443,-0.56548"
       style="fill:#fabd99;fill-opacity:1;fill-rule:nonzero;stroke:none;stroke-width:0.03527778"
       id="path296"
       inkscape:connector-curvature="0" />
    <path
       d="m 146.27138,271.28425 c -0.32899,1.495 -0.006,3.98592 3.74165,6.03728 3.74462,2.05592 7.37546,3.69058 11.80852,1.03025 3.64389,-2.18644 1.02224,-6.46542 1.02224,-6.46542 l -16.57241,-0.60211"
       style="fill:#e9e9e9;fill-opacity:1;fill-rule:nonzero;stroke:none;stroke-width:0.03527778"
       id="path298"
       inkscape:connector-curvature="0" />
    <path
       d="m 145.59714,265.47133 c -0.50918,1.39427 -0.32373,6.35552 2.51816,7.96041 2.82999,1.6072 8.77156,4.7758 13.10641,2.05822 3.94839,-2.47718 0.69599,-5.7076 -2.00716,-6.73099 -2.70177,-1.02796 -8.13739,-4.31331 -8.13739,-4.31331 0,0 -0.0923,2.77481 -5.48002,1.02567"
       style="fill:#933c47;fill-opacity:1;fill-rule:nonzero;stroke:none;stroke-width:0.03527778"
       id="path300"
       inkscape:connector-curvature="0" />
    <path
       d="m 154.17043,266.08948 c -1.89841,-0.16254 -4.20869,1.22028 -4.81769,2.64889 -0.60006,1.42862 0.64746,2.20474 1.3794,1.98724 0.73423,-0.21748 2.68622,-1.69648 5.06793,-2.51151 2.38103,-0.80818 -0.11218,-2.00327 -1.62964,-2.12462"
       style="fill:#e9e9e9;fill-opacity:1;fill-rule:nonzero;stroke:none;stroke-width:0.03527778"
       id="path302"
       inkscape:connector-curvature="0" />
    <path
       d="m 113.53065,194.94256 c -3.06741,4.47129 -3.57864,15.11494 4.66681,27.55582 3.54155,6.138 19.30487,30.10167 21.02608,33.545 8.01833,0.30678 14.16872,-2.46117 14.16872,-2.46117 0,0 -7.43911,-37.96592 -17.13196,-51.85831 -5.11005,-1.81324 -11.60247,-3.15486 -22.72965,-6.78134"
       style="fill:#f1511b;fill-opacity:1;fill-rule:nonzero;stroke:none;stroke-width:0.03527778"
       id="path304"
       inkscape:connector-curvature="0" />
    <path
       d="m 123.73083,203.97443 c 0,0 -3.71188,3.74097 -7.86998,4.55372 0.0849,1.30499 0.42011,3.5578 0.42011,3.5578 0,0 7.98789,-1.68274 10.74119,-5.9022 -2.16788,-0.90433 -3.29132,-2.20932 -3.29132,-2.20932"
       style="fill:#c02023;fill-opacity:1;fill-rule:nonzero;stroke:none;stroke-width:0.03527778"
       id="path306"
       inkscape:connector-curvature="0" />
    <path
       d="m 125.4699,237.97963 c 0,0 -7.64104,-3.14113 -12.58419,-8.47785 -2.5944,3.04955 -3.47332,5.67785 -3.96647,6.30515 0,0 3.59741,7.16598 11.33575,7.86198 1.17311,-1.29813 3.77897,-3.56696 5.21491,-5.68928"
       style="fill:#c02023;fill-opacity:1;fill-rule:nonzero;stroke:none;stroke-width:0.03527778"
       id="path308"
       inkscape:connector-curvature="0" />
    <path
       d="m 152.67955,249.33758 c 0,0 -7.52657,5.55879 -14.78321,5.05053 0.80452,3.26703 3.41014,6.53409 3.47882,7.32853 0,0 10.13654,-1.07146 12.85114,-4.904 -0.0339,-1.74915 -1.14128,-4.94521 -1.54675,-7.47506"
       style="fill:#c02023;fill-opacity:1;fill-rule:nonzero;stroke:none;stroke-width:0.03527778"
       id="path310"
       inkscape:connector-curvature="0" />
    <path
       d="m 113.86766,189.5738 -1.60308,7.36745 c 0,0 16.39315,9.86065 37.87299,3.68372 0.28046,-6.80424 0.50894,-7.77955 0.50894,-7.77955 0,0 -11.73594,7.00342 -36.77885,-3.27162"
       style="fill:#c02023;fill-opacity:1;fill-rule:nonzero;stroke:none;stroke-width:0.03527778"
       id="path312"
       inkscape:connector-curvature="0" />
    <path
       d="m 146.95981,198.52326 c -0.17148,1.23171 -1.3075,2.09026 -2.53808,1.91856 v 0 c -1.23081,-0.16943 -2.08981,-1.30728 -1.91856,-2.53671 v 0 c 0.17102,-1.23173 1.30705,-2.09027 2.53786,-1.91857 v 0 c 1.2308,0.16943 2.08958,1.30499 1.91878,2.53672 v 0"
       style="fill:#f1511b;fill-opacity:1;fill-rule:nonzero;stroke:none;stroke-width:0.03527778"
       id="path314"
       inkscape:connector-curvature="0" />
    <path
       d="m 185.10685,109.40415 c 0,0 1.96663,-8.40228 0.1044,-18.480435 0.75735,1.69191 4.14871,2.22535 4.14871,2.22535 0,0 -0.63142,-16.07193 -8.83704,-26.07682 -1.09574,-1.33705 0.87228,-6.74015 -2.29037,-9.16925 0.24497,2.20703 -0.91486,6.54553 -3.48729,3.99738 -2.57265,-2.54816 -13.75638,-9.070802 -21.50685,-6.86606 1.36267,-3.356335 6.99472,-3.896645 6.99472,-3.896645 0,0 -5.01664,-2.456579 -9.7993,2.216185 -2.1095,-4.283558 -7.94257,-4.727712 -7.94257,-4.727712 0,0 2.68965,2.115453 1.12527,4.487322 -4.81952,-2.497789 -22.88305,-6.584456 -37.74867,6.92558 -0.29236,-3.4273 0.80154,-5.08715 0.80154,-5.08715 0,0 -5.46011,3.37465 -3.97998,7.58265 -3.517512,-2.14979 -6.92902,1.21799 -6.92902,1.21799 0,0 6.02469,-0.62044 4.148941,2.22535 -9.268378,5.79688 -15.883971,14.53571 -15.02726,28.71656 0.742698,-1.38283 2.31761,-1.70564 2.31761,-1.70564 0,0 -0.02518,10.874875 3.800715,19.524425 10.252384,1.99639 94.106444,-3.10908 94.106444,-3.10908"
       style="fill:#933c47;fill-opacity:1;fill-rule:nonzero;stroke:none;stroke-width:0.03527778"
       id="path316"
       inkscape:connector-curvature="0" />
    <path
       d="m 177.58899,115.18272 c 0.52726,22.98951 -17.06052,38.7052 -39.19858,39.21255 -22.136,0.50802 -40.429163,-14.38439 -40.956423,-37.37641 -0.52726,-22.988355 17.005343,-41.207795 39.142713,-41.716045 22.13715,-0.50826 40.48571,16.89155 41.01229,39.879905"
       style="fill:#fabd99;fill-opacity:1;fill-rule:nonzero;stroke:none;stroke-width:0.03527778"
       id="path318"
       inkscape:connector-curvature="0" />
    <path
       d="m 174.94811,128.26532 c -0.33861,3.88955 -4.17596,6.44182 -9.2622,6.48327 -4.90788,0.04 -9.72169,-3.85063 -8.69509,-7.43683 0.9769,-3.41082 3.6013,-2.09439 9.34942,-3.92824 5.55992,-1.77203 8.94648,0.99592 8.60787,4.8818"
       style="fill:#f8a191;fill-opacity:1;fill-rule:nonzero;stroke:none;stroke-width:0.03527778"
       id="path320"
       inkscape:connector-curvature="0" />
    <path
       d="m 171.57391,126.11484 c -0.0316,0.35509 -0.4295,0.60968 -0.88807,0.56916 -0.45811,-0.0426 -0.80566,-0.35853 -0.77658,-0.71339 0.0325,-0.3503 0.42858,-0.60671 0.88808,-0.57008 0.45857,0.0435 0.8036,0.36174 0.77657,0.71431"
       style="fill:#fbccc0;fill-opacity:1;fill-rule:nonzero;stroke:none;stroke-width:0.03527778"
       id="path322"
       inkscape:connector-curvature="0" />
    <path
       d="m 104.87539,126.81817 c 0.51695,3.87168 4.46557,6.24263 9.54883,6.05238 4.90217,-0.1875 9.5351,-4.29227 8.34504,-7.82717 -1.13167,-3.36549 -3.69311,-1.92772 -9.5193,-3.49599 -5.63548,-1.51562 -8.89222,1.40571 -8.37457,5.27078"
       style="fill:#f8a191;fill-opacity:1;fill-rule:nonzero;stroke:none;stroke-width:0.03527778"
       id="path324"
       inkscape:connector-curvature="0" />
    <path
       d="m 108.14678,124.51451 c 0.0478,0.35487 0.45606,0.59068 0.91349,0.52887 0.45514,-0.0641 0.78734,-0.39607 0.74041,-0.74866 -0.0467,-0.35028 -0.45469,-0.58838 -0.91212,-0.52886 -0.45583,0.0641 -0.78688,0.39837 -0.74178,0.74865"
       style="fill:#fbccc0;fill-opacity:1;fill-rule:nonzero;stroke:none;stroke-width:0.03527778"
       id="path326"
       inkscape:connector-curvature="0" />
    <path
       d="m 113.34841,59.272085 c 24.89661,-12.221082 41.43193,-0.18316 41.43193,-0.18316 0,0 9.64088,-3.22354 20.73875,8.4847 12.8793,13.59017 14.00044,40.294305 6.76304,49.944335 -10.25857,-2.9534 -11.01019,-23.954505 -11.01019,-23.954505 -3.4051,2.06737 -14.00822,3.69517 -17.53421,2.50465 5.22797,-5.17415 3.52049,-11.92344 3.52049,-11.92344 0,0 -5.72157,13.19638 -14.33906,12.50268 3.86047,-5.16729 1.29103,-15.03024 1.29103,-15.03024 0,0 -8.39015,13.75273 -0.47071,21.699395 -11.82845,-1.67587 -16.32286,-18.253775 -16.32286,-18.253775 0,0 -4.44153,5.01161 0.79489,11.86851 -6.79417,1.45609 -11.85362,-13.34978 -11.85362,-13.34978 0,0 -3.76958,9.17154 3.44928,13.70693 -7.61036,1.56141 -11.29042,0.95012 -16.18823,-1.60032 0.79398,10.110195 -3.631987,18.278955 -5.777202,22.143545 C 81.482707,102.41675 89.518216,70.971175 113.34841,59.272085"
       style="fill:#933c47;fill-opacity:1;fill-rule:nonzero;stroke:none;stroke-width:0.03527778"
       id="path328"
       inkscape:connector-curvature="0" />
    <path
       d="m 184.42117,91.219065 c 0,0 1.68113,10.158275 -0.98882,19.455735 -2.83503,1.92771 -6.37932,1.7125 -6.37932,1.7125 0,0 -4.24052,-10.16973 -4.30806,-18.365945 4.2444,10.840525 9.074,9.446255 11.6762,-2.80229"
       style="fill:#732c33;fill-opacity:1;fill-rule:nonzero;stroke:none;stroke-width:0.03527778"
       id="path330"
       inkscape:connector-curvature="0" />
    <path
       d="m 88.916778,92.924695 c 0,0 -0.65524,10.272755 2.930495,19.258845 3.013144,1.63467 6.51852,1.06688 6.51852,1.06688 0,0 3.202027,-10.54291 2.449707,-18.707085 -3.139289,11.211435 -8.08427,10.307105 -11.898722,-1.61864"
       style="fill:#732c33;fill-opacity:1;fill-rule:nonzero;stroke:none;stroke-width:0.03527778"
       id="path332"
       inkscape:connector-curvature="0" />
    <path
       d="m 150.73466,62.056055 c 0.0186,-2.60539 4.29615,-6.82714 15.44806,0.31136 11.15099,7.13851 14.18909,15.4286 11.17434,14.13507 -2.01906,-0.86542 -11.86117,-10.55666 -11.86117,-10.55666 0,0 19.48596,20.29826 12.28518,20.01666 -7.20054,-0.28161 -16.11979,-19.45116 -16.11979,-19.45116 0,0 6.54143,16.29172 0.74225,14.18542 -2.97056,-1.07833 -11.72885,-10.45591 -11.66887,-18.64069 z m -3.3964,1.83843 c 1.21959,-3.02895 -1.72372,-9.95224 -18.03583,-6.99885 -16.31118,2.95339 -23.77822,11.10612 -19.6714,11.0443 2.74986,-0.0389 18.76272,-6.5753 18.76272,-6.5753 0,0 -32.230865,14.22206 -23.75898,17.32655 8.47119,3.1045 27.92945,-14.84478 27.92945,-14.84478 0,0 -15.33359,15.74912 -7.61609,16.07193 3.95457,0.16714 18.56102,-6.52035 22.39013,-16.02385"
       style="fill:#a9525f;fill-opacity:1;fill-rule:nonzero;stroke:none;stroke-width:0.03527778"
       id="path334"
       inkscape:connector-curvature="0" />
    <path
       d="m 174.51609,113.77013 c 0,0 0.41278,-5.48094 6.02559,-6.56156 5.91846,-1.13556 8.69076,7.04692 5.74653,12.68126 -2.94561,5.62517 -9.55272,6.9233 -11.81242,2.76107 l 0.0403,-8.88077"
       style="fill:#fabd99;fill-opacity:1;fill-rule:nonzero;stroke:none;stroke-width:0.03527778"
       id="path336"
       inkscape:connector-curvature="0" />
    <path
       d="m 181.81554,109.52778 c -3.91542,-0.54719 -6.61124,7.63302 -1.13831,11.4358 -2.52389,-5.4901 -0.60236,-7.55748 2.32448,-5.04824 -0.13234,-1.83613 -1.15962,-2.93279 -3.48272,-2.57791 0.049,-2.44514 2.29655,-3.80965 2.29655,-3.80965"
       style="fill:#de8359;fill-opacity:1;fill-rule:nonzero;stroke:none;stroke-width:0.03527778"
       id="path338"
       inkscape:connector-curvature="0" />
    <path
       d="m 99.213805,115.49408 c 0,0 -0.664628,-5.45346 -6.320482,-6.27538 -5.966076,-0.86312 -8.358322,7.43842 -5.161106,12.93082 3.200651,5.48414 9.8602,6.47776 11.925743,2.21847 l -0.444155,-8.87391"
       style="fill:#fabd99;fill-opacity:1;fill-rule:nonzero;stroke:none;stroke-width:0.03527778"
       id="path340"
       inkscape:connector-curvature="0" />
    <path
       d="m 91.726848,111.59516 c 3.886111,-0.72576 6.95466,7.32394 1.661682,11.3694 2.26999,-5.59771 0.253443,-7.5735 -2.552507,-4.93606 0.04671,-1.84071 1.022926,-2.98315 3.358394,-2.73589 -0.162322,-2.43826 -2.467569,-3.69745 -2.467569,-3.69745"
       style="fill:#de8359;fill-opacity:1;fill-rule:nonzero;stroke:none;stroke-width:0.03527778"
       id="path342"
       inkscape:connector-curvature="0" />
    <path
       d="m 118.35429,109.79336 c 4.15604,-1.79722 1.83705,-6.08307 -0.41073,-4.26754 -2.4085,1.9529 -5.1334,2.71071 -5.24536,3.18921 -0.24817,1.05085 3.31948,2.09026 5.65609,1.07833"
       style="fill:#732c33;fill-opacity:1;fill-rule:nonzero;stroke:none;stroke-width:0.03527778"
       id="path344"
       inkscape:connector-curvature="0" />
    <path
       d="m 160.54884,102.21757 c -4.4184,-0.98676 -2.944,-5.632045 -0.39562,-4.269825 2.73132,1.46754 5.55055,1.70106 5.74927,2.149795 0.44095,0.98446 -2.86868,2.67407 -5.35365,2.12003"
       style="fill:#732c33;fill-opacity:1;fill-rule:nonzero;stroke:none;stroke-width:0.03527778"
       id="path346"
       inkscape:connector-curvature="0" />
    <path
       d="m 135.29942,121.98926 c -0.0499,-0.003 -0.10097,-0.0138 -0.14904,-0.0367 -0.19094,-0.0916 -0.27085,-0.32052 -0.17904,-0.51054 0.88419,-1.83385 2.47765,-2.92821 4.15947,-2.85723 1.68252,0.0687 3.18005,1.29354 3.90878,3.19148 0.0753,0.19689 -0.0229,0.41898 -0.22025,0.49453 -0.19735,0.0755 -0.4185,-0.0229 -0.4952,-0.21979 -0.61724,-1.60948 -1.8524,-2.64431 -3.22515,-2.70155 -1.37184,-0.0573 -2.68873,0.87228 -3.43738,2.42453 -0.0685,0.14194 -0.21315,0.22207 -0.36219,0.21521"
       style="fill:#ce6748;fill-opacity:1;fill-rule:nonzero;stroke:none;stroke-width:0.03527778"
       id="path348"
       inkscape:connector-curvature="0" />
    <path
       d="m 151.23376,111.23113 c -1.39107,4.02714 0.55931,8.36565 4.36347,9.68437 3.80322,1.31643 8.0252,-0.87915 9.42085,-4.90859 1.39725,-4.034 -0.55519,-8.36793 -4.35683,-9.69123 -3.81101,-1.32102 -8.02566,0.88144 -9.42749,4.91545"
       style="fill:#efa378;fill-opacity:1;fill-rule:nonzero;stroke:none;stroke-width:0.03527778"
       id="path350"
       inkscape:connector-curvature="0" />
    <path
       d="m 153.76177,118.58942 c -2.38813,0.29534 -2.91332,1.39657 -1.18067,2.46345 1.74181,1.05544 5.08854,1.67816 7.47186,1.38053 2.39132,-0.29762 2.91469,-1.39885 1.18088,-2.46344 -1.7386,-1.06231 -5.08005,-1.67817 -7.47207,-1.38054"
       style="fill:#efa378;fill-opacity:1;fill-rule:nonzero;stroke:none;stroke-width:0.03527778"
       id="path352"
       inkscape:connector-curvature="0" />
    <path
       d="m 152.02384,111.37766 c -1.38099,3.98135 0.5481,8.26949 4.30807,9.57676 3.76226,1.3027 7.93226,-0.8677 9.31279,-4.85363 1.381,-3.98822 -0.55084,-8.27407 -4.30805,-9.57906 -3.765,-1.30041 -7.93272,0.87228 -9.31281,4.85593"
       style="fill:#ffffff;fill-opacity:1;fill-rule:nonzero;stroke:none;stroke-width:0.03527778"
       id="path354"
       inkscape:connector-curvature="0" />
    <path
       d="m 152.82745,112.11486 c 0.27496,-0.78986 0.68775,-1.48814 1.18388,-2.09485 -0.21614,0.37777 -0.40341,0.77842 -0.55497,1.20654 -1.21135,3.50285 0.4865,7.27358 3.79476,8.42517 1.96572,0.67997 4.04843,0.25871 5.67875,-0.9112 -1.66786,1.68504 -4.1107,2.40164 -6.39398,1.61635 -3.23591,-1.1264 -4.89644,-4.8147 -3.70844,-8.24201"
       style="fill:#dcdbdb;fill-opacity:1;fill-rule:nonzero;stroke:none;stroke-width:0.03527778"
       id="path356"
       inkscape:connector-curvature="0" />
    <path
       d="m 154.35496,114.25091 c 0.11563,2.278 1.9552,4.04317 4.10956,3.93328 2.15392,-0.1076 3.80736,-2.04448 3.69312,-4.32477 -0.11218,-2.28487 -1.9529,-4.04317 -4.10406,-3.93557 -2.15689,0.10761 -3.81056,2.04448 -3.69862,4.32706"
       style="fill:#75b6e6;fill-opacity:1;fill-rule:nonzero;stroke:none;stroke-width:0.03527778"
       id="path358"
       inkscape:connector-curvature="0" />
    <path
       d="m 155.95576,114.33563 c 0.0706,1.36451 1.17219,2.41765 2.45863,2.35583 1.29056,-0.0664 2.27983,-1.22256 2.21023,-2.59164 -0.0703,-1.36452 -1.16899,-2.41767 -2.45772,-2.35586 -1.28897,0.0664 -2.27938,1.22715 -2.21114,2.59167"
       style="fill:#231f20;fill-opacity:1;fill-rule:nonzero;stroke:none;stroke-width:0.03527778"
       id="path360"
       inkscape:connector-curvature="0" />
    <path
       d="m 158.53733,112.74904 c 0.0282,0.57922 0.49589,1.02338 1.03964,0.9959 0.54444,-0.0298 0.96157,-0.51741 0.93502,-1.09665 -0.0302,-0.57464 -0.49453,-1.02108 -1.03759,-0.99819 -0.5458,0.032 -0.9666,0.522 -0.93707,1.09894"
       style="fill:#ffffff;fill-opacity:1;fill-rule:nonzero;stroke:none;stroke-width:0.03527778"
       id="path362"
       inkscape:connector-curvature="0" />
    <path
       d="m 156.05649,115.88557 c 0.0157,0.3503 0.299,0.61816 0.63143,0.60443 0.3283,-0.016 0.58358,-0.31595 0.56595,-0.66623 -0.022,-0.348 -0.29992,-0.61816 -0.63189,-0.60212 -0.32923,0.016 -0.5838,0.31594 -0.56549,0.66392"
       style="fill:#ffffff;fill-opacity:1;fill-rule:nonzero;stroke:none;stroke-width:0.03527778"
       id="path364"
       inkscape:connector-curvature="0" />
    <path
       d="m 152.40046,129.64242 c 0,0 -11.25058,2.4836 -26.58417,-0.15591 -0.36837,1.43411 -0.3686,16.65185 13.23645,16.82586 13.7074,0.16506 13.34772,-16.66995 13.34772,-16.66995"
       style="fill:#69282e;fill-opacity:1;fill-rule:nonzero;stroke:none;stroke-width:0.03527778"
       id="path366"
       inkscape:connector-curvature="0" />
    <path
       d="m 148.9743,130.11771 c -2.44376,0.26512 -6.07711,0.52635 -10.52048,0.45445 -0.01,-9.4e-4 -0.0199,-9.4e-4 -0.0307,-5.1e-4 -2.88722,-0.0485 -6.11397,-0.23832 -9.57516,-0.66325 -0.0648,1.57972 0.15523,5.01848 9.97536,5.07868 9.73084,0.0559 10.0516,-3.50446 10.15095,-4.86943"
       style="fill:#ffffff;fill-opacity:1;fill-rule:nonzero;stroke:none;stroke-width:0.03527778"
       id="path368"
       inkscape:connector-curvature="0" />
    <path
       d="m 138.7874,141.07319 c 4.53951,-1.84599 7.96041,0.046 8.67495,2.22625 -1.94763,1.81623 -4.64232,3.05917 -8.40961,3.01293 -4.23273,-0.0565 -7.14949,-1.56577 -9.14635,-3.66198 0.45309,-1.62551 5.30122,-3.31375 8.88101,-1.5772"
       style="fill:#ee5b63;fill-opacity:1;fill-rule:nonzero;stroke:none;stroke-width:0.03527778"
       id="path370"
       inkscape:connector-curvature="0" />
    <path
       d="m 120.31223,114.09982 c 4.80921,0.1946 6.68496,5.89303 6.69572,5.63203 0.15591,-3.85084 -2.81877,-7.11102 -6.62979,-7.26671 -3.81102,-0.15339 -7.03914,2.85495 -7.19436,6.70809 -0.011,0.2587 1.98129,-5.28176 7.12843,-5.07341"
       style="fill:#69282e;fill-opacity:1;fill-rule:nonzero;stroke:none;stroke-width:0.03527778"
       id="path372"
       inkscape:connector-curvature="0" />
  </g>
</svg>
