<svg id="Layer_1" data-name="Layer 1" xmlns="http://www.w3.org/2000/svg" viewBox="0 0 312.2 951.38"><defs><style>.cls-1{fill:#942020;stroke:#720c0c;}.cls-1,.cls-10,.cls-4,.cls-6,.cls-9{stroke-miterlimit:10;stroke-width:3px;}.cls-2{fill:#903b36;}.cls-3{fill:#881b22;}.cls-4{fill:#fcfcfc;stroke:#c1c1c1;}.cls-5{fill:#c1c1c1;}.cls-6,.cls-8{fill:#fffae7;}.cls-6{stroke:#249b1e;}.cls-7{fill:#78c46a;}.cls-9{fill:#ef3224;stroke:#bc201d;}.cls-10{fill:#30411e;stroke:#243313;}.cls-11{fill:#e42821;}.cls-12{fill:#ffc9a6;}</style></defs><title>tomato sauce</title><path class="cls-1" d="M915.5,109.5s-16,106-20,147-17,138-38,193c0,0-18,48-19,54s2,447,2,447,42,37,141,38,143-16,166-37v-433s-1-9-4-16-47-97-58-200-27-193-27-193Z" transform="translate(-836.8 -38.67)"/><path class="cls-2" d="M1033.5,149.5c5-1,24-9,25,8s16,222,48,295,27,74,26,114,0,278,1,319,2,61-9,68-71,14-71,14,8-10,20-13,30-5,36-41,2-278,1-313,2-36-6-43-33-7-21-18,3-59-7-87-28-144-33-212S1033.5,149.5,1033.5,149.5Z" transform="translate(-836.8 -38.67)"/><path class="cls-3" d="M863.5,511.5s47,23,129,20,119-19,123-20,11,22-44,31-141,9-165,0-46-19-48-24,1-10,7-7" transform="translate(-836.8 -38.67)"/><path class="cls-3" d="M843.5,533.5s4,215,4,238-2,145,0,156,21,32,34,37-12-36-12-53,0-217-1-232-13-141-16-146S843.5,521.5,843.5,533.5Z" transform="translate(-836.8 -38.67)"/><path class="cls-4" d="M905.5,64.5s-4,52,3,63,95,33,135,9c0,0,18-8,20-15s2-53,0-57-85-13-85-13Z" transform="translate(-836.8 -38.67)"/><path class="cls-4" d="M961.5,41.5s-52,5-57,23c0,0,0,20,84,20,0,0,71-2,76-20s-57-23-57-23S979.5,38.5,961.5,41.5Z" transform="translate(-836.8 -38.67)"/><path class="cls-5" d="M907.5,74.5s0,45,3,48,30,14,42,16,30,3,30,3-4-21-37.5-32S922.5,78.5,907.5,74.5Z" transform="translate(-836.8 -38.67)"/><path class="cls-6" d="M878.5,648.5s0,209,4,219,175,17,216,0c0,0,12-199,5-219S974.5,575.5,878.5,648.5Z" transform="translate(-836.8 -38.67)"/><path class="cls-7" d="M890.5,856.5c.18,2.23,105,25,201,0,0,0,10-194,4-202s-107-68-209,0C886.5,654.5,887.5,819.5,890.5,856.5Z" transform="translate(-836.8 -38.67)"/><path class="cls-8" d="M1088.5,657.5s0,173-5,194c0,0-99,22-185,0,0,0-8-167-5-194C893.5,657.5,988.5,594.5,1088.5,657.5Z" transform="translate(-836.8 -38.67)"/><path class="cls-9" d="M1008.71,710.28s-63.39-14.41-80.87,24.83,8.25,91.68,79.27,89.3S1085.38,748.94,1008.71,710.28Z" transform="translate(-836.8 -38.67)"/><path class="cls-10" d="M1008.15,708.11,988.58,704c-3.91-.82,7.36,4.38,7.36,4.38L982.81,712s20.81-1.74,24.31,1,6.74,11.64,6.74,11.64l1.86-8.81,12,5.84-14.84-11.56,6-14-6.85-1.45Z" transform="translate(-836.8 -38.67)"/><path class="cls-11" d="M1051.69,763.3s-4.24,29.76-23.35,38-29.93,11.06-45.38,6.78-32.23-11.92-35-13.52S932,783,932,783s25.27,40.08,66.88,36.6,56.51-20.78,57.81-31.74S1051.69,763.3,1051.69,763.3Z" transform="translate(-836.8 -38.67)"/><path class="cls-12" d="M977.5,720.5s-15,0-25,7-17,12-17,17,11,9,20,4,23-12,24-18A13.83,13.83,0,0,0,977.5,720.5Z" transform="translate(-836.8 -38.67)"/></svg>