<svg xmlns="http://www.w3.org/2000/svg" viewBox="0 0 448.17 669.4"><defs><style>.cls-1,.cls-4{fill:#ffcc2b;}.cls-1,.cls-3{stroke:#c69714;}.cls-1,.cls-2,.cls-3{stroke-miterlimit:10;stroke-width:3px;}.cls-2{fill:#ffcb71;stroke:#e29f3d;}.cls-3{fill:#ffdc44;}.cls-5{fill:#d3a21a;}</style></defs><title>toothpick</title><g id="Layer_3" data-name="Layer 3"><path class="cls-1" d="M974.5,573.5s144-58,146-65,25-43-73-58-264-14-309,32l12,74Z" transform="translate(-709.17 -217.72)"/><path class="cls-2" d="M1039.85,824.17s72.86-375.23,116-509.19C1155.87,315,1078,725.05,1039.85,824.17Z" transform="translate(-709.17 -217.72)"/><path class="cls-2" d="M990.76,816.8S1051,439.38,1089.6,304.07C1089.6,304.07,1025.54,716.48,990.76,816.8Z" transform="translate(-709.17 -217.72)"/><path class="cls-2" d="M994.86,843.59s72.86-375.23,116-509.19C1110.88,334.4,1033,744.47,994.86,843.59Z" transform="translate(-709.17 -217.72)"/><path class="cls-2" d="M1037.55,784.19S1110.41,409,1153.56,275C1153.56,275,1075.68,685.07,1037.55,784.19Z" transform="translate(-709.17 -217.72)"/><path class="cls-2" d="M1019.09,834.45s72.86-375.23,116-509.19C1135.1,325.26,1057.22,735.33,1019.09,834.45Z" transform="translate(-709.17 -217.72)"/><path class="cls-2" d="M970,827.08s60.21-377.42,98.84-512.73C1068.84,314.35,1004.78,726.76,970,827.08Z" transform="translate(-709.17 -217.72)"/><path class="cls-2" d="M974.1,853.87s72.86-375.23,116-509.19C1090.11,344.68,1012.23,754.75,974.1,853.87Z" transform="translate(-709.17 -217.72)"/><path class="cls-2" d="M1016.78,794.47s72.86-375.23,116-509.19C1132.8,285.28,1054.91,695.35,1016.78,794.47Z" transform="translate(-709.17 -217.72)"/><path class="cls-2" d="M966,784s55.23-378.22,92.07-514C1058.1,269.91,999.49,683.17,966,784Z" transform="translate(-709.17 -217.72)"/><path class="cls-2" d="M908.65,779.9s42.48-379.82,74.74-516.79C983.39,263.11,938.7,678.06,908.65,779.9Z" transform="translate(-709.17 -217.72)"/><path class="cls-2" d="M914,806.47s55.22-378.23,92.06-514.06C1006.06,292.41,947.45,705.67,914,806.47Z" transform="translate(-709.17 -217.72)"/><path class="cls-2" d="M961.86,744.13s55.22-378.22,92.06-514C1053.92,230.08,995.31,643.34,961.86,744.13Z" transform="translate(-709.17 -217.72)"/><path class="cls-2" d="M945.77,795.21S1001,417,1037.83,281.15C1037.83,281.15,979.23,694.41,945.77,795.21Z" transform="translate(-709.17 -217.72)"/><path class="cls-2" d="M888.39,791.14s42.48-379.82,74.74-516.79C963.13,274.35,918.44,689.3,888.39,791.14Z" transform="translate(-709.17 -217.72)"/><path class="cls-2" d="M893.74,817.71S949,439.48,985.8,303.65C985.8,303.65,927.19,716.91,893.74,817.71Z" transform="translate(-709.17 -217.72)"/><path class="cls-2" d="M933.6,756.38s55.22-378.23,92.06-514.06C1025.66,242.32,967.05,655.58,933.6,756.38Z" transform="translate(-709.17 -217.72)"/><path class="cls-2" d="M941.47,785.12s-13.37-382-1.43-522.23C940,262.89,956.34,680,941.47,785.12Z" transform="translate(-709.17 -217.72)"/><path class="cls-2" d="M908.12,794.65s-62-377.13-68.07-517.71C840.05,276.94,909.46,688.48,908.12,794.65Z" transform="translate(-709.17 -217.72)"/><path class="cls-2" d="M920.47,818.77s-49.31-379-50.65-519.77C869.82,299,925.36,712.68,920.47,818.77Z" transform="translate(-709.17 -217.72)"/><path class="cls-2" d="M924.24,746.68s-13.37-382-1.44-522.23C922.8,224.45,939.11,641.52,924.24,746.68Z" transform="translate(-709.17 -217.72)"/><path class="cls-2" d="M908.55,799.81s-13.37-382-1.43-522.24C907.12,277.57,923.42,694.65,908.55,799.81Z" transform="translate(-709.17 -217.72)"/><path class="cls-2" d="M891.67,811s-62-377.13-68.08-517.71C823.59,293.25,893,704.79,891.67,811Z" transform="translate(-709.17 -217.72)"/><path class="cls-2" d="M904,835.08S854.7,456,853.36,315.31C853.36,315.31,908.91,729,904,835.08Z" transform="translate(-709.17 -217.72)"/><path class="cls-2" d="M925.76,765.25s-49.31-379-50.65-519.78C875.11,245.47,930.65,659.15,925.76,765.25Z" transform="translate(-709.17 -217.72)"/><path class="cls-2" d="M874.29,771.3s-67-376.32-74.92-516.84C799.37,254.46,874.21,665.1,874.29,771.3Z" transform="translate(-709.17 -217.72)"/><path class="cls-2" d="M818.56,785.56S739,411.74,726.34,271.6C726.34,271.6,814.92,679.44,818.56,785.56Z" transform="translate(-709.17 -217.72)"/><path class="cls-2" d="M832,809.08S765,432.76,757.1,292.24C757.1,292.24,832,702.87,832,809.08Z" transform="translate(-709.17 -217.72)"/><path class="cls-2" d="M857.76,734.82S790.76,358.5,782.84,218C782.84,218,857.68,628.62,857.76,734.82Z" transform="translate(-709.17 -217.72)"/><path class="cls-2" d="M858.62,788.36S791.62,412,783.7,271.53C783.7,271.53,858.54,682.16,858.62,788.36Z" transform="translate(-709.17 -217.72)"/><path class="cls-2" d="M802.89,802.62s-79.6-373.81-92.23-514C710.66,288.66,799.25,696.5,802.89,802.62Z" transform="translate(-709.17 -217.72)"/><path class="cls-2" d="M816.35,826.14s-67-376.32-74.92-516.83C741.43,309.31,816.27,719.94,816.35,826.14Z" transform="translate(-709.17 -217.72)"/><path class="cls-2" d="M834.81,755.36s-67-376.32-74.92-516.83C759.89,238.53,834.73,649.16,834.81,755.36Z" transform="translate(-709.17 -217.72)"/><path class="cls-3" d="M738.5,482.5s1,48,168,49c165.85,1,206.76-14.69,217.45-39.44a.07.07,0,0,1,.14,0c-1.72,14-35.82,291.28-44.59,363.4,0,0-137,71-296-5Z" transform="translate(-709.17 -217.72)"/><path class="cls-4" d="M859.5,867.5s70,19,126,6,86-24,86-24l30-227s-47,130-84,167-69,60-97,68S859.5,867.5,859.5,867.5Z" transform="translate(-709.17 -217.72)"/><path class="cls-4" d="M805.5,605.5s137,31,253,0l-12,98s-116,33-224,0Z" transform="translate(-709.17 -217.72)"/><path class="cls-5" d="M837.5,634.5c-1-.18,4,48,7,54s148,13,182-2c0,0,12-46,9-48S892.5,644.5,837.5,634.5Z" transform="translate(-709.17 -217.72)"/></g></svg>