<?xml version="1.0" encoding="UTF-8" standalone="no"?>
<!-- Created with Inkscape (http://www.inkscape.org/) -->

<svg
   xmlns:dc="http://purl.org/dc/elements/1.1/"
   xmlns:cc="http://creativecommons.org/ns#"
   xmlns:rdf="http://www.w3.org/1999/02/22-rdf-syntax-ns#"
   xmlns:svg="http://www.w3.org/2000/svg"
   xmlns="http://www.w3.org/2000/svg"
   xmlns:sodipodi="http://sodipodi.sourceforge.net/DTD/sodipodi-0.dtd"
   xmlns:inkscape="http://www.inkscape.org/namespaces/inkscape"
   width="1000"
   height="1000"
   viewBox="0 0 264.58333 264.58334"
   version="1.1"
   id="svg2383"
   inkscape:version="0.92.5 (2060ec1f9f, 2020-04-08)"
   sodipodi:docname="I have 2 brothers and 1 sister.svg"
   enable-background="new">
  <defs
     id="defs2377" />
  <sodipodi:namedview
     id="base"
     pagecolor="#ffffff"
     bordercolor="#666666"
     borderopacity="1.0"
     inkscape:pageopacity="0.0"
     inkscape:pageshadow="2"
     inkscape:zoom="0.70710678"
     inkscape:cx="307.23521"
     inkscape:cy="435.36168"
     inkscape:document-units="px"
     inkscape:current-layer="layer3"
     showgrid="false"
     units="px"
     inkscape:window-width="1920"
     inkscape:window-height="1031"
     inkscape:window-x="0"
     inkscape:window-y="25"
     inkscape:window-maximized="1"
     showguides="true"
     inkscape:lockguides="true"
     inkscape:object-nodes="false"
     inkscape:snap-nodes="false"
     inkscape:snap-others="false" />
  <metadata
     id="metadata2380">
    <rdf:RDF>
      <cc:Work
         rdf:about="">
        <dc:format>image/svg+xml</dc:format>
        <dc:type
           rdf:resource="http://purl.org/dc/dcmitype/StillImage" />
        <dc:title></dc:title>
      </cc:Work>
    </rdf:RDF>
  </metadata>
  <g
     inkscape:groupmode="layer"
     id="layer3"
     inkscape:label="Layer 2">
    <ellipse
       style="fill:#e8ebc8;fill-opacity:1;stroke-width:0.45916313"
       id="path3018"
       cx="135.40804"
       cy="227.75078"
       rx="105.7971"
       ry="33.096272" />
    <g
       id="g8721"
       transform="matrix(-0.03341591,0,0,-0.03534853,570.78596,279.95416)"
       style="stroke-width:2.65799928">
      <path
         d="m 15770.8,3521.9 c 0,0 302.1,55.52 529.2,-338.93 -48.3,-84.85 -380.4,-273.18 -497,-277.55 -215,-8.07 -186.7,580.23 -32.2,616.48"
         style="fill:#f9a939;fill-opacity:1;fill-rule:nonzero;stroke:none;stroke-width:2.65799928"
         id="path8723"
         inkscape:connector-curvature="0" />
    </g>
    <g
       id="g8725"
       transform="matrix(-0.03372742,0,0,-0.03567805,570.78596,279.95416)"
       style="stroke-width:2.65799928">
      <path
         d="m 15605,3479.21 c 0,0 135.9,17.86 286.4,-81.84 118.4,-78.43 408.6,-469.04 332.2,-760.2 -30.6,-116.39 -512.9,-386.48 -737.3,-248.35 -224.4,138.12 -75.5,1101.18 118.7,1090.39"
         style="fill:#f9a939;fill-opacity:1;fill-rule:nonzero;stroke:none;stroke-width:2.65799928"
         id="path8727"
         inkscape:connector-curvature="0" />
    </g>
    <g
       id="g8729"
       transform="matrix(-0.03318789,0,0,-0.03510732,570.78596,279.95416)"
       style="stroke-width:2.65799928">
      <path
         d="m 15716,3406.13 c -131.7,-242.43 -191.2,-838.66 -9.2,-950.64 86,-52.92 138.3,-28.93 316.5,-17.54 165.6,42.07 185.4,102.26 210.9,142.23 65.8,103.08 -250,633.87 -348.7,739.16 -49.6,52.92 -115.9,76.45 -169.5,86.79"
         style="fill:#f9a939;fill-opacity:1;fill-rule:nonzero;stroke:none;stroke-width:2.65799928"
         id="path8731"
         inkscape:connector-curvature="0" />
    </g>
    <g
       id="g8733"
       transform="matrix(-0.0336936,0,0,-0.03564229,570.78596,279.95416)"
       style="stroke-width:2.65799928">
      <path
         d="m 15956.9,2970.11 c 0,0 168.3,90.54 214.7,88.24 46.4,-2.34 128.4,-190.39 99,-246.11 -29.3,-55.69 -203.3,-169.48 -313.7,157.87"
         style="fill:#f25035;fill-opacity:1;fill-rule:nonzero;stroke:none;stroke-width:2.65799928"
         id="path8735"
         inkscape:connector-curvature="0" />
    </g>
    <g
       id="g8737"
       transform="matrix(-0.03045874,0,0,-0.03222033,570.78596,279.95416)"
       style="stroke-width:2.65799928">
      <path
         d="m 15915,4219.27 c 15.8,-0.26 15.9,-43.61 18.7,-54.07 0.4,1.7 4.8,55.37 5.6,67.05 1.9,27.29 28.2,28.91 30.8,5.18 2.2,-19.9 4,-65.86 4.3,-68.23 0.6,2.2 8.5,57.17 9.8,67.34 3.9,29.9 37.7,29.9 33.9,-4.57 -2.5,-23.33 -8.4,-64.26 -8,-67.89 1.5,1.2 13.3,30.28 21.5,46.94 13.5,27.5 38.8,19.79 29,-13.82 -7.9,-26.55 -23.6,-90.88 -23.6,-90.88 0,0 42.1,17.28 51.3,-6.13 9.3,-23.49 -65.2,-51.28 -65.2,-51.28 l -4.2,-0.15 c 5.2,-54.13 39,-244.43 281.1,-292.86 -17.2,-25.54 -30.4,-62.15 -32.3,-82.7 -285.8,13.86 -343.6,332.43 -344.7,376 0,0 -26.6,4.28 -22.7,97.84 1.7,38.75 -0.5,72.41 14.7,72.23"
         style="fill:#fabd99;fill-opacity:1;fill-rule:nonzero;stroke:none;stroke-width:2.65799928"
         id="path8739"
         inkscape:connector-curvature="0" />
    </g>
    <g
       id="g8741"
       transform="matrix(-0.03154129,0,0,-0.03336549,570.78596,279.95416)"
       style="stroke-width:2.65799928">
      <path
         d="m 16113.4,2326.75 c 0,0 95.5,-718.27 90.5,-807.46 59,-15.09 96.1,-67.38 96.1,-67.38 l -34.2,825.33 -152.4,49.51"
         style="fill:#fabd99;fill-opacity:1;fill-rule:nonzero;stroke:none;stroke-width:2.65799928"
         id="path8743"
         inkscape:connector-curvature="0" />
    </g>
    <g
       id="g8745"
       transform="matrix(-0.03163691,0,0,-0.03346663,570.78596,279.95416)"
       style="stroke-width:2.65799928">
      <path
         d="m 16267.7,1486.31 c 11.5,-25.61 32.3,-55.88 -47.2,-130.64 -57.9,-54.38 -138.7,-83.66 -211.5,-61.35 -76.3,23.41 -41.3,102.67 -41.3,102.67 l 300,89.32"
         style="fill:#fde7d3;fill-opacity:1;fill-rule:nonzero;stroke:none;stroke-width:2.65799928"
         id="path8747"
         inkscape:connector-curvature="0" />
    </g>
    <g
       id="g8749"
       transform="matrix(-0.03161071,0,0,-0.03343893,570.78596,279.95416)"
       style="stroke-width:2.65799928">
      <path
         d="m 16279.8,1579.48 c 7.5,-19.27 20.2,-66.3 -1,-105.86 -85.4,-101.44 -146.7,-159.08 -255,-129.45 -84.9,23.23 -28.3,95.29 16.4,123.86 44.6,28.62 129.9,108.1 129.9,108.1 0,0 33.2,-33.68 109.7,3.35"
         style="fill:#40bfbc;fill-opacity:1;fill-rule:nonzero;stroke:none;stroke-width:2.65799928"
         id="path8751"
         inkscape:connector-curvature="0" />
    </g>
    <g
       id="g8753"
       transform="matrix(-0.03159226,0,0,-0.0334194,570.78596,279.95416)"
       style="stroke-width:2.65799928">
      <path
         d="m 16179.5,1577.05 c -18,25.86 -8.8,47.87 45.4,44.65 37.7,-2.25 75.1,-18.18 35.6,-52.49 -12.7,-13.07 -65.7,-10.25 -81,7.84"
         style="fill:#40bfbc;fill-opacity:1;fill-rule:nonzero;stroke:none;stroke-width:2.65799928"
         id="path8755"
         inkscape:connector-curvature="0" />
    </g>
    <g
       id="g8757"
       transform="matrix(-0.03137378,0,0,-0.0331883,570.78596,279.95416)"
       style="stroke-width:2.65799928">
      <path
         d="m 16152.5,1473.07 c -47.7,-29.49 -90,-100.61 -10,-122.53 61,-16.7 114.6,-3.25 157.5,25.99 -0.2,65.61 -81,95.1 -147.5,96.54"
         style="fill:#f4f1f0;fill-opacity:1;fill-rule:nonzero;stroke:none;stroke-width:2.65799928"
         id="path8759"
         inkscape:connector-curvature="0" />
    </g>
    <g
       id="g8761"
       transform="matrix(-0.03146386,0,0,-0.03328359,570.78596,279.95416)"
       style="stroke-width:2.65799928">
      <path
         d="m 16290,1515.56 c -2.8,0 -5.5,1.32 -7.2,3.78 -13.9,19.81 -46.6,34.74 -77.4,25.47 -4.7,-1.36 -9.6,1.27 -11,5.9 -1.4,4.68 1.3,9.6 5.9,10.99 39.9,11.98 79.7,-7.66 96.9,-32.27 2.8,-3.98 1.8,-9.48 -2.2,-12.27 -1.5,-1.06 -3.3,-1.6 -5,-1.6"
         style="fill:#e0e0de;fill-opacity:1;fill-rule:nonzero;stroke:none;stroke-width:2.65799928"
         id="path8763"
         inkscape:connector-curvature="0" />
    </g>
    <g
       id="g8765"
       transform="matrix(-0.03139921,0,0,-0.03321519,570.78596,279.95416)"
       style="stroke-width:2.65799928">
      <path
         d="m 16290,1489.43 c -2.8,0 -5.6,1.31 -7.3,3.78 -13.9,19.81 -46.6,34.81 -77.5,25.52 -4.7,-1.4 -9.6,1.23 -11,5.92 -1.4,4.68 1.2,9.57 5.9,11.01 40,12 79.9,-7.68 97.1,-32.34 2.8,-4.03 1.8,-9.54 -2.2,-12.33 -1.5,-1.07 -3.3,-1.56 -5,-1.56"
         style="fill:#e0e0de;fill-opacity:1;fill-rule:nonzero;stroke:none;stroke-width:2.65799928"
         id="path8767"
         inkscape:connector-curvature="0" />
    </g>
    <g
       id="g8769"
       transform="matrix(-0.03133443,0,0,-0.03314667,570.78596,279.95416)"
       style="stroke-width:2.65799928">
      <path
         d="m 16290,1463.18 c -2.8,0 -5.6,1.32 -7.3,3.75 -13.9,19.89 -46.7,34.92 -77.7,25.61 -4.7,-1.4 -9.6,1.24 -11,5.94 -1.4,4.65 1.2,9.59 5.9,10.99 40.1,12.11 80,-7.66 97.3,-32.41 2.8,-4 1.9,-9.51 -2.2,-12.31 -1.5,-1.07 -3.3,-1.57 -5,-1.57"
         style="fill:#e0e0de;fill-opacity:1;fill-rule:nonzero;stroke:none;stroke-width:2.65799928"
         id="path8771"
         inkscape:connector-curvature="0" />
    </g>
    <g
       id="g8773"
       transform="matrix(-0.03263468,0,0,-0.03452211,570.78596,279.95416)"
       style="stroke-width:2.65799928">
      <path
         d="m 16155.3,2248.79 c 0,0 139.9,-773.52 144.7,-859.68 -57,-14.63 -92.8,-65.17 -92.8,-65.17 l -199.3,877 147.4,47.85"
         style="fill:#fabd99;fill-opacity:1;fill-rule:nonzero;stroke:none;stroke-width:2.65799928"
         id="path8775"
         inkscape:connector-curvature="0" />
    </g>
    <g
       id="g8777"
       transform="matrix(-0.03306594,0,0,-0.03497831,570.78596,279.95416)"
       style="stroke-width:2.65799928">
      <path
         d="m 15979.6,1343.79 c -11.1,-24.47 -31,-53.47 45.1,-124.96 55.4,-52.06 132.7,-80.08 202.4,-58.7 72.9,22.36 39.5,98.23 39.5,98.23 l -287,85.43"
         style="fill:#fde7d3;fill-opacity:1;fill-rule:nonzero;stroke:none;stroke-width:2.65799928"
         id="path8779"
         inkscape:connector-curvature="0" />
    </g>
    <g
       id="g8781"
       transform="matrix(-0.03307962,0,0,-0.03499279,570.78596,279.95416)"
       style="stroke-width:2.65799928">
      <path
         d="m 15974.2,1431.08 c -7.2,-18.41 -19.3,-63.35 1,-101.15 81.7,-96.94 140.2,-151.98 243.7,-123.7 81.1,22.2 27.1,91.05 -15.7,118.36 -42.7,27.34 -124.2,103.3 -124.2,103.3 0,0 -31.6,-32.15 -104.8,3.19"
         style="fill:#40bfbc;fill-opacity:1;fill-rule:nonzero;stroke:none;stroke-width:2.65799928"
         id="path8783"
         inkscape:connector-curvature="0" />
    </g>
    <g
       id="g8785"
       transform="matrix(-0.03266616,0,0,-0.03455541,570.78596,279.95416)"
       style="stroke-width:2.65799928">
      <path
         d="m 16282.6,1445.96 c 17.4,25.01 8.6,46.3 -43.9,43.18 -36.4,-2.17 -72.6,-17.54 -34.4,-50.73 12.3,-12.64 63.6,-9.91 78.3,7.55"
         style="fill:#40bfbc;fill-opacity:1;fill-rule:nonzero;stroke:none;stroke-width:2.65799928"
         id="path8787"
         inkscape:connector-curvature="0" />
    </g>
    <g
       id="g8789"
       transform="matrix(-0.03307342,0,0,-0.03498623,570.78596,279.95416)"
       style="stroke-width:2.65799928">
      <path
         d="m 16214.6,1319.1 c 45.3,-27.97 85.4,-95.44 9.4,-116.19 -57.8,-15.84 -108.7,-3.12 -149.3,24.66 0.2,62.19 76.8,90.17 139.9,91.53"
         style="fill:#f4f1f0;fill-opacity:1;fill-rule:nonzero;stroke:none;stroke-width:2.65799928"
         id="path8791"
         inkscape:connector-curvature="0" />
    </g>
    <g
       id="g8793"
       transform="matrix(-0.03273262,0,0,-0.03462572,570.78596,279.95416)"
       style="stroke-width:2.65799928">
      <path
         d="m 16206.8,1377.74 c 2.6,0 5.3,1.26 6.9,3.62 13.3,19.04 44.8,33.43 74.4,24.53 4.5,-1.35 9.2,1.18 10.6,5.67 1.3,4.46 -1.2,9.19 -5.7,10.53 -38.4,11.55 -76.7,-7.37 -93.1,-31.03 -2.7,-3.82 -1.8,-9.1 2.1,-11.79 1.4,-1.02 3.1,-1.53 4.8,-1.53"
         style="fill:#e0e0de;fill-opacity:1;fill-rule:nonzero;stroke:none;stroke-width:2.65799928"
         id="path8795"
         inkscape:connector-curvature="0" />
    </g>
    <g
       id="g8797"
       transform="matrix(-0.03279727,0,0,-0.03469411,570.78596,279.95416)"
       style="stroke-width:2.65799928">
      <path
         d="m 16207,1347 c 2.7,0 5.3,1.26 6.9,3.62 13.3,19.01 44.7,33.37 74.2,24.48 4.5,-1.34 9.2,1.18 10.6,5.62 1.3,4.49 -1.2,9.21 -5.7,10.55 -38.3,11.53 -76.5,-7.36 -92.9,-30.97 -2.7,-3.81 -1.8,-9.09 2,-11.76 1.5,-1.02 3.2,-1.54 4.9,-1.54"
         style="fill:#e0e0de;fill-opacity:1;fill-rule:nonzero;stroke:none;stroke-width:2.65799928"
         id="path8799"
         inkscape:connector-curvature="0" />
    </g>
    <g
       id="g8801"
       transform="matrix(-0.03286205,0,0,-0.03476264,570.78596,279.95416)"
       style="stroke-width:2.65799928">
      <path
         d="m 16207.1,1316.39 c 2.7,0 5.3,1.26 7,3.61 13.2,18.97 44.5,33.3 74,24.39 4.5,-1.34 9.2,1.22 10.5,5.65 1.4,4.48 -1.2,9.19 -5.6,10.53 -38.2,11.5 -76.3,-7.34 -92.8,-30.91 -2.7,-3.8 -1.7,-9.07 2.1,-11.74 1.5,-1.02 3.2,-1.53 4.8,-1.53"
         style="fill:#e0e0de;fill-opacity:1;fill-rule:nonzero;stroke:none;stroke-width:2.65799928"
         id="path8803"
         inkscape:connector-curvature="0" />
    </g>
    <g
       id="g8805"
       transform="matrix(-0.03269352,0,0,-0.03458435,570.78596,279.95416)"
       style="stroke-width:2.65799928">
      <path
         d="m 15788,2745.2 c 0.9,0.16 210,0.47 393.3,35.8 -0.6,-124.1 113.6,-345.69 118.7,-578.61 -42.4,-67.21 -393,-78.5 -444.4,-47.44 -16.3,142.25 -49.7,261.97 -67.6,261.97 -15.8,0 -30.2,-103.69 -44.7,-239.35 -56.5,-38.33 -372.4,-17.96 -408.7,32.84 5.2,238.87 60.7,443.69 60.1,570.59 183.3,-35.33 392.5,-35.64 393.3,-35.8"
         style="fill:#071216;fill-opacity:1;fill-rule:nonzero;stroke:none;stroke-width:2.65799928"
         id="path8807"
         inkscape:connector-curvature="0" />
    </g>
    <g
       id="g8809"
       transform="matrix(-0.0316111,0,0,-0.03343933,570.78596,279.95416)"
       style="stroke-width:2.65799928">
      <path
         d="m 15859.6,2388.02 c 0,0 -25.9,-114.42 -6.8,-129.77 33,-26.7 251.9,-84.46 437.9,-41.68 9.3,55.64 8.8,112.75 8.8,112.75 0,0 -308.6,-18.53 -439.9,58.7"
         style="fill:#f25035;fill-opacity:1;fill-rule:nonzero;stroke:none;stroke-width:2.65799928"
         id="path8811"
         inkscape:connector-curvature="0" />
    </g>
    <g
       id="g8813"
       transform="matrix(-0.03274837,0,0,-0.03464237,570.78596,279.95416)"
       style="stroke-width:2.65799928">
      <path
         d="m 16275,2288.19 c 0,0 25,-110.45 6.6,-125.27 -31.9,-25.81 -309.9,-74.79 -456.6,-45.91 -8.9,53.71 -8.5,108.84 -8.5,108.84 0,0 331.8,-12.25 458.5,62.34"
         style="fill:#f25035;fill-opacity:1;fill-rule:nonzero;stroke:none;stroke-width:2.65799928"
         id="path8815"
         inkscape:connector-curvature="0" />
    </g>
    <g
       id="g8817"
       transform="matrix(-0.03109996,0,0,-0.03289863,570.78596,279.95416)"
       style="stroke-width:2.65799928">
      <path
         d="m 16159,2584.66 c 35.8,-3.82 72.5,8.63 99.1,32.69 26.2,23.7 41.2,58.63 41.7,93.78 0.2,19.13 -29.5,19.17 -29.8,0 -0.4,-27.59 -12.3,-54.15 -32.9,-72.74 -21.2,-19.13 -50.1,-26.97 -78.1,-24.03 -8,0.83 -14.9,-7.42 -14.9,-14.85 0,-8.75 6.9,-14.02 14.9,-14.85 v 0"
         style="fill:#f25035;fill-opacity:1;fill-rule:nonzero;stroke:none;stroke-width:2.65799928"
         id="path8819"
         inkscape:connector-curvature="0" />
    </g>
    <g
       id="g8821"
       transform="matrix(-0.03251337,0,0,-0.03439379,570.78596,279.95416)"
       style="stroke-width:2.65799928">
      <path
         d="m 16153.7,2604.97 c 15.5,-56.91 73,-98.78 132.1,-94.85 7.7,0.51 14.2,6.15 14.2,14.2 0,7.31 -6.5,14.73 -14.2,14.21 -46.6,-3.09 -92.3,28.54 -104.6,73.99 -4.8,17.62 -32.3,10.16 -27.5,-7.55 v 0"
         style="fill:#f25035;fill-opacity:1;fill-rule:nonzero;stroke:none;stroke-width:2.65799928"
         id="path8823"
         inkscape:connector-curvature="0" />
    </g>
    <g
       id="g8825"
       transform="matrix(-0.0316773,0,0,-0.03350937,570.78596,279.95416)"
       style="stroke-width:2.65799928">
      <path
         d="m 16287.4,2731.09 c 4.3,-71.21 4.2,-142.46 5.2,-213.75 0.1,-4.68 7.4,-4.68 7.3,0 -1,71.29 -0.9,142.54 -5.2,213.75 -0.3,4.64 -7.6,4.68 -7.3,0 v 0"
         style="fill:#f25035;fill-opacity:1;fill-rule:nonzero;stroke:none;stroke-width:2.65799928"
         id="path8827"
         inkscape:connector-curvature="0" />
    </g>
    <g
       id="g8829"
       transform="matrix(-0.0318386,0,0,-0.03367999,570.78596,279.95416)"
       style="stroke-width:2.65799928">
      <path
         d="m 16281.2,2716.28 c 8.4,-25.49 8.7,-54.67 7.2,-81.18 -1.9,-33.56 -8.8,-70.2 -29.7,-97.52 -11.5,-15.08 -27.4,-25.37 -45.9,-29.5 -4.6,-0.98 -2.7,-7.99 1.9,-6.98 74.2,16.38 85.3,112.8 80.6,175.1 -1,14.06 -2.7,28.57 -7.1,42.03 -1.4,4.41 -8.4,2.51 -7,-1.95 v 0"
         style="fill:#f25035;fill-opacity:1;fill-rule:nonzero;stroke:none;stroke-width:2.65799928"
         id="path8831"
         inkscape:connector-curvature="0" />
    </g>
    <g
       id="g8833"
       transform="matrix(-0.03211437,0,0,-0.03397172,570.78596,279.95416)"
       style="stroke-width:2.65799928">
      <path
         d="m 15878,3654.15 c 0,0 74.5,9.13 128.6,14.02 5.1,56.52 0,136.3 0,136.3 l 138.2,10.86 c 0,0 1.2,-109.14 0,-146.25 56.8,-11.66 127.3,-17.99 155.2,-21.32 -61.7,-179.61 -407.8,-213.44 -422,6.39"
         style="fill:#fabd99;fill-opacity:1;fill-rule:nonzero;stroke:none;stroke-width:2.65799928"
         id="path8835"
         inkscape:connector-curvature="0" />
    </g>
    <g
       id="g8837"
       transform="matrix(-0.03179176,0,0,-0.03363044,570.78596,279.95416)"
       style="stroke-width:2.65799928">
      <path
         d="m 16178.9,3784.13 -0.1,-44.01 c 0,0 66.7,34.44 121.2,0 -1.7,25.9 -1.7,50.06 -1.7,50.06 l -119.4,-6.05"
         style="fill:#efa378;fill-opacity:1;fill-rule:nonzero;stroke:none;stroke-width:2.65799928"
         id="path8839"
         inkscape:connector-curvature="0" />
    </g>
    <g
       id="g8841"
       transform="matrix(-0.03095194,0,0,-0.03274206,570.78596,279.95416)"
       style="stroke-width:2.65799928">
      <path
         d="m 16300,3742.92 c -207.8,-63.29 -320.1,-19.72 -320.1,-19.72 0,0 -111.8,-168.19 -104.6,-293.22 122.3,-71.34 267.6,-64.04 358,-31.15 32.8,205.29 66.7,344.09 66.7,344.09"
         style="fill:#fde7d3;fill-opacity:1;fill-rule:nonzero;stroke:none;stroke-width:2.65799928"
         id="path8843"
         inkscape:connector-curvature="0" />
    </g>
    <g
       id="g8845"
       transform="matrix(-0.03045732,0,0,-0.03221883,570.78596,279.95416)"
       style="stroke-width:2.65799928">
      <path
         d="m 16300,3778.15 -121.9,-334.54 -82.5,43.81 c 0,0 87.5,265.99 129.5,316.28 28.6,-16.65 74.9,-25.55 74.9,-25.55"
         style="fill:#40bfbc;fill-opacity:1;fill-rule:nonzero;stroke:none;stroke-width:2.65799928"
         id="path8847"
         inkscape:connector-curvature="0" />
    </g>
    <g
       id="g8849"
       transform="matrix(-0.03315292,0,0,-0.03507032,570.78596,279.95416)"
       style="stroke-width:2.65799928">
      <path
         d="m 15995.6,3191.52 c 36,-40.79 60.7,-88.12 60.7,-88.12 0,0 182.9,83.22 243.7,156.16 -124.3,175.36 -245.9,234.87 -354.1,262.41 -8.2,-108.69 49.7,-330.45 49.7,-330.45"
         style="fill:#fde7d3;fill-opacity:1;fill-rule:nonzero;stroke:none;stroke-width:2.65799928"
         id="path8851"
         inkscape:connector-curvature="0" />
    </g>
    <g
       id="g8853"
       transform="matrix(-0.03264965,0,0,-0.03453794,570.78596,279.95416)"
       style="stroke-width:2.65799928">
      <path
         d="m 15658.7,3601.19 c 0,0 -137.6,-17.98 -206.2,-52.89 -43.7,-89.92 -155.4,-913.52 -122.7,-928.66 165.2,-76.36 802,-77.39 970.2,23.4 -26.4,379.86 -81.1,860.36 -120.5,905.26 -26.5,30.24 -216,52.89 -216,52.89 0,0 -24.2,-78.47 -143.9,-87.48 -136.8,-10.31 -160.9,87.48 -160.9,87.48"
         style="fill:#40bfbc;fill-opacity:1;fill-rule:nonzero;stroke:none;stroke-width:2.65799928"
         id="path8855"
         inkscape:connector-curvature="0" />
    </g>
    <g
       id="g8857"
       transform="matrix(-0.03250731,0,0,-0.03438737,570.78596,279.95416)"
       style="stroke-width:2.65799928">
      <path
         d="m 16014.1,2926.53 c -5.5,168.91 -4.2,338.02 4.1,506.81 2.8,58.04 6.5,115.99 10.9,173.89 -4.8,-9.34 -14.2,-24.11 -31.3,-38.36 -8.4,-119.37 -13.4,-239.02 -14.9,-358.71 -2.2,-168.99 2.5,-338.05 13.9,-506.65 2.9,-40.96 6.1,-81.89 9.7,-122.78 9.5,0.6 19,1.23 28.3,1.91 -10,114.4 -17,229.09 -20.7,343.89 z m 111.8,-11 c -6,182.41 -4.4,365.06 4.9,547.3 2.3,45.89 5.2,91.7 8.5,137.53 -9.5,1.83 -18.9,3.53 -28.1,5.09 -9.2,-127.77 -14.8,-255.83 -16.6,-383.93 -2.5,-182.45 2.6,-365.05 15.3,-547.1 2,-28.07 4.2,-56.1 6.5,-84.16 9.5,1.11 18.9,2.26 28.2,3.49 -8.8,107.1 -15.1,214.4 -18.7,321.78 z m -385.1,28.31 c 6.5,154.7 17,309.24 31.5,463.42 4.3,46.6 9.1,93.17 14.2,139.69 -10.4,5.6 -19.1,12.03 -26.3,18.7 -13.5,-120.84 -24.7,-241.95 -33.2,-363.23 -11,-154.46 -17.9,-309.2 -20.9,-464.01 -1,-52.96 -1.4,-105.91 -1.5,-158.87 9.4,-0.48 18.9,-0.95 28.4,-1.35 0.2,121.91 2.7,243.82 7.8,365.65 z m 544,-80.15 c -11.9,185.7 -23.8,371.44 -35.7,557.19 -3.2,50.29 -6.4,100.59 -9.6,150.88 -7.5,4.07 -17.5,7.94 -29.2,11.6 8.7,-135.65 17.3,-271.29 26,-406.98 11.9,-185.74 23.8,-371.44 35.7,-557.18 0,-0.68 0.1,-1.31 0.1,-1.99 9.7,2.5 19,5.04 27.9,7.74 -5.1,79.6 -10.2,159.15 -15.2,238.74 z m -376,471 c 8.4,67.77 18,135.41 28.5,202.89 -9.1,-2.62 -18.9,-4.8 -29.6,-6.35 -22.1,-143.54 -39.6,-287.8 -52.1,-432.45 -15.1,-173.88 -23.2,-348.34 -24.3,-522.85 9.4,-0.04 18.9,-0.04 28.4,0 0.5,72.21 2.1,144.37 5,216.5 7.2,181.26 21.9,362.24 44.1,542.26 z m -285,-739.23 c -6.9,137.63 -4.4,275.69 4.6,413.16 9.3,141.8 25.4,283.2 49.4,423.25 10.4,61.41 22.5,122.51 36.4,183.22 -7.5,-1.14 -18,-2.81 -30.3,-4.99 -26.7,-118.49 -46.3,-238.57 -61.1,-359.05 -17.5,-141.87 -28,-284.7 -30.7,-427.65 -1.4,-75.98 -0.5,-152.04 3.3,-227.94 0.2,-3.02 1.1,-5.48 2.6,-7.5 7.3,-0.8 14.8,-1.55 22.4,-2.27 2.3,2.27 3.7,5.52 3.4,9.77 z m -154.5,255.41 c 9.8,144.57 27,288.67 51.3,431.5 17.4,102.54 38.7,204.36 63.7,305.33 10.3,2.98 20.9,5.74 31.3,8.28 -11.1,-44.46 -21.6,-89.08 -31.4,-133.9 -30.3,-140.01 -53.7,-281.57 -69.6,-423.96 -16.1,-143.23 -24.8,-287.25 -26.2,-431.35 0,-0.91 -0.2,-1.74 -0.3,-2.58 -9.8,1.99 -19.2,4.05 -28.1,6.23 0.9,80.23 3.9,160.38 9.3,240.45"
         style="fill:#8ad7c9;fill-opacity:1;fill-rule:nonzero;stroke:none;stroke-width:2.65799928"
         id="path8859"
         inkscape:connector-curvature="0" />
    </g>
    <g
       id="g8861"
       transform="matrix(-0.0320225,0,0,-0.03387452,570.78596,279.95416)"
       style="stroke-width:2.65799928">
      <path
         d="m 16117.4,3538.19 c -10.4,0 -21,0.81 -31.7,2.42 -73.2,11.04 -134.6,59.12 -145.8,114.36 -2.9,14.05 6.2,27.78 20.2,30.65 14.1,2.89 27.8,-6.19 30.7,-20.25 6.8,-33.51 51.9,-65.72 102.7,-73.38 30.5,-4.59 106.7,-5.96 154,80.64 6.9,12.59 22.7,17.22 35.3,10.33 12.6,-6.88 17.2,-22.67 10.3,-35.26 -38.3,-70.1 -102.5,-109.51 -175.7,-109.51"
         style="fill:#fde7d3;fill-opacity:1;fill-rule:nonzero;stroke:none;stroke-width:2.65799928"
         id="path8863"
         inkscape:connector-curvature="0" />
    </g>
    <g
       id="g8865"
       transform="matrix(-0.03250318,0,0,-0.03438302,570.78596,279.95416)"
       style="stroke-width:2.65799928">
      <path
         d="m 16294.4,3581.33 c 5.6,-21.97 -37.3,-227.51 -65.1,-276.1 -14.7,-25.73 -141.5,-19.89 -154.2,37.4 -17.3,77.89 -6.9,233.01 1.5,280.93 32.8,23.83 218.3,-4.07 217.8,-42.23"
         style="fill:#f25035;fill-opacity:1;fill-rule:nonzero;stroke:none;stroke-width:2.65799928"
         id="path8867"
         inkscape:connector-curvature="0" />
    </g>
    <g
       id="g8869"
       transform="matrix(-0.03282514,0,0,-0.03472359,570.78596,279.95416)"
       style="stroke-width:2.65799928">
      <path
         d="m 16074,3594.8 c 0,0 -30.8,-458.1 -17.5,-513.53 13.3,-55.43 243.5,-542.32 243.5,-542.32 l -82,-35.65 c 0,0 -240.7,496.67 -254,574.27 -13.3,77.65 14.3,530.35 14.3,530.35 l 95.7,-13.12"
         style="fill:#071216;fill-opacity:1;fill-rule:nonzero;stroke:none;stroke-width:2.65799928"
         id="path8871"
         inkscape:connector-curvature="0" />
    </g>
    <g
       id="g8873"
       transform="matrix(-0.03321989,0,0,-0.03514117,570.78596,279.95416)"
       style="stroke-width:2.65799928">
      <path
         d="m 16225.5,3200.4 c -21.9,59.16 -59.2,0 -119.1,-4.35 22.7,-109.59 -136.1,-130.33 -136.1,-130.33 0,0 -4.6,-3.07 -10.2,-8.12 -1.3,5.83 -2.4,10.84 -3.2,14.26 -74.7,-3.58 -82.8,64.01 -94.2,41.02 -7.5,-15.27 -2,-38.5 -3.3,-63.79 -0.6,-10.83 -21.3,-14.33 -38.2,-12.27 -26.3,4 -41.2,13.17 -45,14.29 -21.4,-13.24 -5,-35.54 2.7,-34.84 -15.1,-2.64 -11.9,-26.65 7.9,-35.08 -8,-10.02 5.9,-31.54 34.4,-35.11 84.6,-10.69 153.7,43.11 153.7,43.11 196.5,36.36 325.1,87.79 250.6,211.21"
         style="fill:#fabd99;fill-opacity:1;fill-rule:nonzero;stroke:none;stroke-width:2.65799928"
         id="path8875"
         inkscape:connector-curvature="0" />
    </g>
    <g
       id="g8877"
       transform="matrix(-0.03321989,0,0,-0.03514117,570.78596,279.95416)"
       style="stroke-width:2.65799928">
      <path
         d="m 15991.1,3131.1 c 0,0 144.5,95.44 247.3,160.43 44.1,-38.54 61.6,-71.87 61.6,-71.87 l -283.1,-142.68 -25.8,54.12"
         style="fill:#40bfbc;fill-opacity:1;fill-rule:nonzero;stroke:none;stroke-width:2.65799928"
         id="path8879"
         inkscape:connector-curvature="0" />
    </g>
    <g
       id="g8881"
       transform="matrix(-0.03363902,0,0,-0.03558455,570.78596,279.95416)"
       style="stroke-width:2.65799928">
      <path
         d="m 14635.9,4485.03 c -84.8,-452.98 212.2,-820.67 648.4,-902.33 436.1,-81.66 846.1,153.67 930.9,606.69 84.8,452.94 -203,869.98 -639.2,951.64 -436.1,81.68 -855.3,-203.09 -940.1,-656"
         style="fill:#fabd99;fill-opacity:1;fill-rule:nonzero;stroke:none;stroke-width:2.65799928"
         id="path8883"
         inkscape:connector-curvature="0" />
    </g>
    <g
       id="g8885"
       transform="matrix(-0.03363902,0,0,-0.03558455,570.78596,279.95416)"
       style="stroke-width:2.65799928">
      <path
         d="m 14635.9,4485.03 c -84.8,-452.98 212.2,-820.67 648.4,-902.33 436.1,-81.66 846.1,153.67 930.9,606.69 84.8,452.94 -203,869.98 -639.2,951.64 -436.1,81.68 -855.3,-203.09 -940.1,-656"
         style="fill:#fabd99;fill-opacity:1;fill-rule:nonzero;stroke:none;stroke-width:2.65799928"
         id="path8887"
         inkscape:connector-curvature="0" />
    </g>
    <g
       id="g8889"
       transform="matrix(-0.03204843,0,0,-0.03390197,570.78596,279.95416)"
       style="stroke-width:2.65799928">
      <path
         d="m 16112.6,4468.06 c 18,-21.17 44.4,33.79 94,19.4 50.6,-14.67 39.2,-75.12 69.1,-63.22 24.3,9.7 20.6,88.46 -63.1,109.88 -69.8,17.89 -117,-45.91 -100,-66.06"
         style="fill:#ee5b63;fill-opacity:1;fill-rule:nonzero;stroke:none;stroke-width:2.65799928"
         id="path8891"
         inkscape:connector-curvature="0" />
    </g>
    <g
       id="g8893"
       transform="matrix(-0.03334313,0,0,-0.03527153,570.78596,279.95416)"
       style="stroke-width:2.65799928">
      <path
         d="m 16300,4037.37 c -85.2,-187.86 -236.2,-321.13 -419.3,-388.57 -10.1,9.74 -19.4,20.49 -27.7,32.3 -80.2,114.06 -40.2,280.35 89.3,371.37 118.6,83.42 271.3,74.68 357.7,-15.1"
         style="fill:#f79883;fill-opacity:1;fill-rule:nonzero;stroke:none;stroke-width:2.65799928"
         id="path8895"
         inkscape:connector-curvature="0" />
    </g>
    <g
       id="g8897"
       transform="matrix(-0.03106511,0,0,-0.03286177,570.78596,279.95416)"
       style="stroke-width:2.65799928">
      <path
         d="m 15834.2,4645.38 c 116.6,57.75 270.4,16.41 362.7,-104.45 103.1,-135.07 90.2,-318.17 -28.7,-408.97 -21.2,-16.11 -44.2,-28.16 -68.4,-36.45 -155.5,138.57 -253.7,329.87 -265.6,549.87"
         style="fill:#f79883;fill-opacity:1;fill-rule:nonzero;stroke:none;stroke-width:2.65799928"
         id="path8899"
         inkscape:connector-curvature="0" />
    </g>
    <g
       id="g8901"
       transform="matrix(-0.03314453,0,0,-0.03506145,570.78596,279.95416)"
       style="stroke-width:2.65799928">
      <path
         d="m 15884.5,4390.38 c 19.6,-64.55 107.4,-153.19 203.3,-170.65 96,-17.45 150.6,35.73 204.3,96.5 7.9,37.93 -46.1,187.89 -142.1,205.34 -95.9,17.45 -206.7,-48.1 -265.5,-131.19"
         style="fill:#fde7d3;fill-opacity:1;fill-rule:nonzero;stroke:none;stroke-width:2.65799928"
         id="path8903"
         inkscape:connector-curvature="0" />
    </g>
    <g
       id="g8905"
       transform="matrix(-0.03296542,0,0,-0.03487198,570.78596,279.95416)"
       style="stroke-width:2.65799928">
      <path
         d="m 16109.3,4462.92 c -40.9,-43.81 -40.5,-110.64 0.8,-149.28 41.4,-38.6 108.1,-34.41 149,9.4 40.9,43.88 40.5,110.67 -0.8,149.31 -41.4,38.6 -108.1,34.37 -149,-9.43"
         style="fill:#44c0bd;fill-opacity:1;fill-rule:nonzero;stroke:none;stroke-width:2.65799928"
         id="path8907"
         inkscape:connector-curvature="0" />
    </g>
    <g
       id="g8909"
       transform="matrix(-0.03286102,0,0,-0.03476154,570.78596,279.95416)"
       style="stroke-width:2.65799928">
      <path
         d="m 16194,4445.82 c -22.7,-24.35 -22.5,-61.5 0.4,-82.97 23,-21.46 60.1,-19.13 82.9,5.22 22.7,24.39 22.5,61.51 -0.5,82.99 -23,21.46 -60.1,19.11 -82.8,-5.24"
         style="fill:#071216;fill-opacity:1;fill-rule:nonzero;stroke:none;stroke-width:2.65799928"
         id="path8911"
         inkscape:connector-curvature="0" />
    </g>
    <g
       id="g8913"
       transform="matrix(-0.03290916,0,0,-0.03481246,570.78596,279.95416)"
       style="stroke-width:2.65799928">
      <path
         d="m 16237.8,4421.76 c -6.3,-16.42 1.1,-34.46 16.6,-40.39 15.4,-5.89 33,2.49 39.3,18.88 6.3,16.33 -1.1,34.39 -16.4,40.44 -15.5,5.8 -33.3,-2.59 -39.5,-18.93"
         style="fill:#fde7d3;fill-opacity:1;fill-rule:nonzero;stroke:none;stroke-width:2.65799928"
         id="path8915"
         inkscape:connector-curvature="0" />
    </g>
    <g
       id="g8917"
       transform="matrix(-0.03263997,0,0,-0.03452771,570.78596,279.95416)"
       style="stroke-width:2.65799928">
      <path
         d="m 16261.2,4421.92 c -4,-10.25 0.7,-21.49 10.4,-25.29 9.6,-3.71 20.7,1.58 24.6,11.86 3.8,10.23 -0.7,21.5 -10.4,25.23 -9.6,3.71 -20.7,-1.58 -24.6,-11.8"
         style="fill:#fde7d3;fill-opacity:1;fill-rule:nonzero;stroke:none;stroke-width:2.65799928"
         id="path8919"
         inkscape:connector-curvature="0" />
    </g>
    <g
       id="g8921"
       transform="matrix(-0.03314053,0,0,-0.03505722,570.78596,279.95416)"
       style="stroke-width:2.65799928">
      <path
         d="m 16294.1,4316.75 c 0,0 -35.8,230.23 -280.8,181.54 286.7,143.26 280.8,-181.54 280.8,-181.54"
         style="fill:#071216;fill-opacity:1;fill-rule:nonzero;stroke:none;stroke-width:2.65799928"
         id="path8923"
         inkscape:connector-curvature="0" />
    </g>
    <g
       id="g8925"
       transform="matrix(-0.03146941,0,0,-0.03328945,570.78596,279.95416)"
       style="stroke-width:2.65799928">
      <path
         d="m 16300,4705.65 c -44.2,-55.6 -164.6,-108.35 -265.3,-88.23 -100.8,20.13 -133.6,93.4 -162.6,173.73 6.9,40.19 118.1,166.07 218.8,145.95 100.7,-20.13 183.8,-127.29 209.1,-231.45"
         style="fill:#fde7d3;fill-opacity:1;fill-rule:nonzero;stroke:none;stroke-width:2.65799928"
         id="path8927"
         inkscape:connector-curvature="0" />
    </g>
    <g
       id="g8929"
       transform="matrix(-0.03128953,0,0,-0.03309916,570.78596,279.95416)"
       style="stroke-width:2.65799928">
      <path
         d="m 16276.9,4834.15 c 23.1,-58.77 -3.2,-124.09 -58.6,-145.91 -55.6,-21.76 -119.3,8.22 -142.4,67.01 -23,58.86 3.3,124.12 58.8,145.94 55.5,21.75 119.2,-8.27 142.2,-67.04"
         style="fill:#44c0bd;fill-opacity:1;fill-rule:nonzero;stroke:none;stroke-width:2.65799928"
         id="path8931"
         inkscape:connector-curvature="0" />
    </g>
    <g
       id="g8933"
       transform="matrix(-0.03118448,0,0,-0.03298805,570.78596,279.95416)"
       style="stroke-width:2.65799928">
      <path
         d="m 16287.1,4832.91 c 12.9,-32.86 -1.8,-69.37 -32.8,-81.56 -31,-12.17 -66.6,4.59 -79.5,37.46 -12.9,32.89 1.8,69.37 32.8,81.57 31,12.16 66.6,-4.62 79.5,-37.47"
         style="fill:#071216;fill-opacity:1;fill-rule:nonzero;stroke:none;stroke-width:2.65799928"
         id="path8935"
         inkscape:connector-curvature="0" />
    </g>
    <g
       id="g8937"
       transform="matrix(-0.03101982,0,0,-0.03281386,570.78596,279.95416)"
       style="stroke-width:2.65799928">
      <path
         d="m 16299.8,4867.48 c -0.2,-18.66 -14.6,-33.54 -32.1,-33.35 -17.5,0.21 -31.6,15.34 -31.5,33.98 0.2,18.56 14.5,33.49 32.1,33.46 17.5,-0.33 31.7,-15.53 31.5,-34.09"
         style="fill:#fde7d3;fill-opacity:1;fill-rule:nonzero;stroke:none;stroke-width:2.65799928"
         id="path8939"
         inkscape:connector-curvature="0" />
    </g>
    <g
       id="g8941"
       transform="matrix(-0.03119868,0,0,-0.03300305,570.78596,279.95416)"
       style="stroke-width:2.65799928">
      <path
         d="m 16299.9,4761.71 c -0.1,-11.51 -9,-20.63 -19.8,-20.59 -10.8,0.1 -19.6,9.51 -19.4,21.02 0.2,11.4 8.9,20.63 19.8,20.52 10.8,-0.1 19.5,-9.5 19.4,-20.95"
         style="fill:#fde7d3;fill-opacity:1;fill-rule:nonzero;stroke:none;stroke-width:2.65799928"
         id="path8943"
         inkscape:connector-curvature="0" />
    </g>
    <g
       id="g8945"
       transform="matrix(-0.03130992,0,0,-0.03312072,570.78596,279.95416)"
       style="stroke-width:2.65799928">
      <path
         d="m 15952.9,4815.56 c 0,0 125,212.62 347.1,69.22 -226.3,252.73 -347.1,-69.22 -347.1,-69.22"
         style="fill:#071216;fill-opacity:1;fill-rule:nonzero;stroke:none;stroke-width:2.65799928"
         id="path8947"
         inkscape:connector-curvature="0" />
    </g>
    <g
       id="g8949"
       transform="matrix(-0.03308827,0,0,-0.03500194,570.78596,279.95416)"
       style="stroke-width:2.65799928">
      <path
         d="m 16237.2,4648.82 c -73.3,47.2 -117,-35.85 -63.8,-52.34 57,-17.57 98.4,-53 107.1,-49.69 19.5,7.31 -2.1,75.53 -43.3,102.03"
         style="fill:#071216;fill-opacity:1;fill-rule:nonzero;stroke:none;stroke-width:2.65799928"
         id="path8951"
         inkscape:connector-curvature="0" />
    </g>
    <g
       id="g8953"
       transform="matrix(-0.03118693,0,0,-0.03299064,570.78596,279.95416)"
       style="stroke-width:2.65799928">
      <path
         d="m 16207.7,5123 c 92.3,6.29 90.3,-93.23 32.5,-81.33 -62,12.93 -118.6,1.19 -125.1,8.78 -14.3,16.77 40.7,69.06 92.6,72.55"
         style="fill:#071216;fill-opacity:1;fill-rule:nonzero;stroke:none;stroke-width:2.65799928"
         id="path8955"
         inkscape:connector-curvature="0" />
    </g>
    <g
       id="g8957"
       transform="matrix(-0.03249944,0,0,-0.03437905,570.78596,279.95416)"
       style="stroke-width:2.65799928">
      <path
         d="m 16300,4236.46 c -66.1,-238.99 -252.5,-399.32 -436.2,-365.16 -183.8,34.15 -300.1,250.77 -275.9,497.53 l 712.1,-132.37"
         style="fill:#4e1a1e;fill-opacity:1;fill-rule:nonzero;stroke:none;stroke-width:2.65799928"
         id="path8959"
         inkscape:connector-curvature="0" />
    </g>
    <g
       id="g8961"
       transform="matrix(-0.03210586,0,0,-0.0339627,570.78596,279.95416)"
       style="stroke-width:2.65799928">
      <path
         d="m 16300,3981.4 c -73.6,-53.71 -157.9,-78.24 -241.8,-62.65 -83.8,15.59 -153.7,68.8 -203.1,145.35 66.2,13.76 146,14.52 229.9,-1.08 84,-15.59 158.2,-45.02 215,-81.62"
         style="fill:#ee5b63;fill-opacity:1;fill-rule:nonzero;stroke:none;stroke-width:2.65799928"
         id="path8963"
         inkscape:connector-curvature="0" />
    </g>
    <g
       id="g8965"
       transform="matrix(-0.03249312,0,0,-0.03437236,570.78596,279.95416)"
       style="stroke-width:2.65799928">
      <path
         d="m 15929,4206.63 c -177.2,32.94 -318.8,87.29 -335,162.46 l 706,-131.24 c -42.1,-64.35 -193.8,-64.15 -371,-31.22"
         style="fill:#fde7d3;fill-opacity:1;fill-rule:nonzero;stroke:none;stroke-width:2.65799928"
         id="path8967"
         inkscape:connector-curvature="0" />
    </g>
    <g
       id="g8969"
       transform="matrix(-0.03290322,0,0,-0.03480619,570.78596,279.95416)"
       style="stroke-width:2.65799928">
      <path
         d="m 16246.5,4071.38 c 3.9,-13.7 18.1,-21.68 31.8,-17.82 13.7,3.86 21.7,18.09 17.8,31.79 -3.8,13.71 -18.1,21.68 -31.8,17.82 -13.7,-3.86 -21.6,-18.09 -17.8,-31.79"
         style="fill:#ee5b63;fill-opacity:1;fill-rule:nonzero;stroke:none;stroke-width:2.65799928"
         id="path8971"
         inkscape:connector-curvature="0" />
    </g>
    <g
       id="g8973"
       transform="matrix(-0.03272463,0,0,-0.03461725,570.78596,279.95416)"
       style="stroke-width:2.65799928">
      <path
         d="m 16246.2,4041.62 c 3.9,-13.78 18.2,-21.8 32,-17.92 13.8,3.88 21.8,18.2 17.9,31.97 -3.9,13.78 -18.2,21.8 -31.9,17.92 -13.8,-3.88 -21.9,-18.19 -18,-31.97"
         style="fill:#ee5b63;fill-opacity:1;fill-rule:nonzero;stroke:none;stroke-width:2.65799928"
         id="path8975"
         inkscape:connector-curvature="0" />
    </g>
    <g
       id="g8977"
       transform="matrix(-0.03289121,0,0,-0.03479349,570.78596,279.95416)"
       style="stroke-width:2.65799928">
      <path
         d="m 16246.5,3987.87 c 3.9,-13.71 18.1,-21.69 31.8,-17.83 13.7,3.86 21.7,18.1 17.9,31.81 -3.9,13.71 -18.2,21.69 -31.9,17.83 -13.7,-3.86 -21.7,-18.11 -17.8,-31.81"
         style="fill:#ee5b63;fill-opacity:1;fill-rule:nonzero;stroke:none;stroke-width:2.65799928"
         id="path8979"
         inkscape:connector-curvature="0" />
    </g>
    <g
       id="g8981"
       transform="matrix(-0.03076457,0,0,-0.03254385,570.78596,279.95416)"
       style="stroke-width:2.65799928">
      <path
         d="m 16250.6,4558.55 c 11.1,-10.41 28.6,-9.85 39,1.25 10.4,11.11 9.8,28.55 -1.3,38.97 -11.1,10.41 -28.5,9.85 -38.9,-1.26 -10.5,-11.1 -9.9,-28.54 1.2,-38.96"
         style="fill:#ee5b63;fill-opacity:1;fill-rule:nonzero;stroke:none;stroke-width:2.65799928"
         id="path8983"
         inkscape:connector-curvature="0" />
    </g>
    <g
       id="g8985"
       transform="matrix(-0.03067012,0,0,-0.03244393,570.78596,279.95416)"
       style="stroke-width:2.65799928">
      <path
         d="m 16250.5,4482.13 c 11.1,-10.45 28.6,-9.89 39,1.25 10.5,11.14 9.9,28.64 -1.2,39.08 -11.1,10.45 -28.6,9.89 -39.1,-1.24 -10.4,-11.15 -9.9,-28.65 1.3,-39.09"
         style="fill:#ee5b63;fill-opacity:1;fill-rule:nonzero;stroke:none;stroke-width:2.65799928"
         id="path8987"
         inkscape:connector-curvature="0" />
    </g>
    <g
       id="g8989"
       transform="matrix(-0.03085594,0,0,-0.0326405,570.78596,279.95416)"
       style="stroke-width:2.65799928">
      <path
         d="m 16250.8,4462.09 c 11.1,-10.38 28.4,-9.83 38.8,1.25 10.4,11.07 9.9,28.46 -1.2,38.85 -11.1,10.38 -28.5,9.82 -38.9,-1.25 -10.4,-11.07 -9.8,-28.46 1.3,-38.85"
         style="fill:#ee5b63;fill-opacity:1;fill-rule:nonzero;stroke:none;stroke-width:2.65799928"
         id="path8991"
         inkscape:connector-curvature="0" />
    </g>
    <g
       id="g8993"
       transform="matrix(-0.03074638,0,0,-0.0325246,570.78596,279.95416)"
       style="stroke-width:2.65799928">
      <path
         d="m 15984.3,5508.49 c -63.7,-128.9 -89.2,-489.18 30.5,-655.47 139.1,314.53 285.2,527.85 285.2,527.85 l -315.7,127.62"
         style="fill:#071216;fill-opacity:1;fill-rule:nonzero;stroke:none;stroke-width:2.65799928"
         id="path8995"
         inkscape:connector-curvature="0" />
    </g>
    <g
       id="g8997"
       transform="matrix(-0.02837722,0,0,-0.0241319,476.07122,227.16339)"
       style="stroke-width:3.62497377">
      <path
         d="m 15906.1,4898.66 c 108.3,375.61 -372.1,1015.73 -811.6,807.51 -510.2,-241.71 -676.2,-151.67 -652,79.64 24.2,231.28 -516.6,95.11 -195.2,-425.48 -145.1,67.91 -172.1,356.46 -275,334.64 -128.9,-27.32 -256.8,-327.79 252.5,-678.01 -261.2,32.26 -349.3,-84.68 -33.4,-247.46 315.8,-162.77 1113.4,-290.67 1471.5,-241.64 -60.8,-321.56 81.8,-617.05 81.8,-617.05 0,0 331.5,-99.68 457.2,327.84 98.1,333.56 -158.3,505.78 -158.3,505.78 0,0 198.8,45.48 155.1,121.6 -43.7,76.12 -201.3,-14.19 -201.3,-14.19 0,0 163.5,141.67 89.9,225.89 -73.5,84.24 -181.2,-179.07 -181.2,-179.07"
         style="fill:#071216;fill-opacity:1;fill-rule:nonzero;stroke:none;stroke-width:3.62497377"
         id="path8999"
         inkscape:connector-curvature="0" />
    </g>
    <g
       id="g9001"
       transform="matrix(-0.03399441,0,0,-0.03596048,570.78596,279.95416)"
       style="stroke-width:2.65799928">
      <path
         d="m 16018.6,4146.79 c 0,0 27.6,89.07 140.4,84.34 119,-5.06 141,-165.75 63.8,-247.19 -77.3,-81.29 -207.5,-62.13 -236.5,15.89 l 32.3,146.96"
         style="fill:#fabd99;fill-opacity:1;fill-rule:nonzero;stroke:none;stroke-width:2.65799928"
         id="path9003"
         inkscape:connector-curvature="0" />
    </g>
    <g
       id="g9005"
       transform="matrix(-0.03374368,0,0,-0.03569525,570.78596,279.95416)"
       style="stroke-width:2.65799928">
      <path
         d="m 16295.7,4218.69 c -74.6,25.04 -156.7,-100.52 -63.3,-186.13 -29.6,101.81 15.4,128.49 63.5,74.78 4.1,31.17 -12.1,53.62 -58.7,57.16 9.7,40.54 58.5,54.19 58.5,54.19"
         style="fill:#d37658;fill-opacity:1;fill-rule:nonzero;stroke:none;stroke-width:2.65799928"
         id="path9007"
         inkscape:connector-curvature="0" />
    </g>
    <g
       id="g9009"
       transform="matrix(-0.03447961,0,0,-0.03647375,570.78596,279.95416)"
       style="stroke-width:2.65799928">
      <path
         d="m 14502.4,5045.03 c 10.6,-0.45 21.1,-1.21 31.5,-2.27 129.9,-13.16 248.9,-72.68 337.8,-169.67 96.2,-104.77 145.7,-240.7 139.6,-382.74 -12.6,-293.24 -261.4,-521.53 -554.6,-508.91 -10.6,0.45 -21.1,1.21 -31.5,2.27 -129.9,13.15 -248.9,72.68 -337.9,169.68 -96.1,104.76 -145.7,240.69 -139.6,382.73 12.6,293.24 261.5,521.53 554.7,508.91 z m 707.6,-580.89 c 0.3,0.63 0.5,1.3 0.7,1.97 28.3,83.77 77.4,159.56 144.3,221 104.8,96.12 240.8,145.69 382.8,139.58 10.4,-0.45 20.8,-1.2 31.1,-2.25 278.1,-28.17 490,-269.64 477.8,-552.44 -12.6,-293.23 -261.5,-521.53 -554.7,-508.9 -10.4,0.44 -20.8,1.2 -31.1,2.24 -278.1,28.15 -490,269.64 -477.8,552.44 2.2,50.53 11.3,99.67 26.9,146.36 z m -1302,73.7 c -6.6,-152.67 46.7,-298.75 150,-411.35 95.6,-104.23 223.5,-168.22 363.1,-182.36 11.2,-1.13 22.5,-1.94 33.8,-2.43 311.7,-13.42 576.7,226.43 595.6,536.58 l 115.4,-21.74 c -12.9,-44.07 -20.5,-90 -22.6,-137.05 -6.5,-152.66 46.8,-298.75 150.1,-411.34 95.6,-104.24 223.5,-168.22 363.1,-182.36 11.2,-1.14 22.5,-1.95 33.8,-2.44 152.7,-6.57 298.7,46.7 411.3,150.01 112.6,103.3 178.3,244.27 184.9,396.93 13.5,315.15 -231.8,582.56 -547,596.14 -152.7,6.57 -298.8,-46.7 -411.3,-150 -67.8,-62.18 -118.5,-138 -149.6,-221.79 l -127,23.91 c -1.2,141.75 -54,276.21 -150.5,381.43 -103.3,112.59 -244.3,178.21 -397,184.79 -152.6,6.58 -298.7,-46.7 -411.3,-150 -112.6,-103.3 -178.2,-244.27 -184.8,-396.93"
         style="fill:#f25035;fill-opacity:1;fill-rule:nonzero;stroke:none;stroke-width:2.65799928"
         id="path9011"
         inkscape:connector-curvature="0" />
    </g>
    <path
       d="m 86.465374,59.939347 c 6.52822,-6.078799 -1.1515,-7.90489 -1.1515,-7.90489 -6.38501,0.608937 -12.88069,0.906353 -19.28343,0.905655 -28.383294,0 -54.884327,-5.848331 -61.1054602,-16.347552 C -0.81783716,26.904533 12.994425,9.3792843 70.003194,4.1011261 c 8.1034,-0.749895 15.78014,-1.0987654 22.95938,-1.0987654 41.389506,0 66.228236,11.5902443 60.359906,24.6739123 -7.29435,16.274271 -52.58128,22.110614 -52.58128,22.110614 0,0 0.95516,7.35305 -14.275826,10.15246"
       style="fill:#eee1b3;fill-opacity:1;fill-rule:nonzero;stroke:none;stroke-width:0.03527778"
       id="path7388"
       inkscape:connector-curvature="0" />
    <text
       xml:space="preserve"
       style="font-style:normal;font-weight:normal;font-size:10.58333302px;line-height:1.25;font-family:sans-serif;letter-spacing:0px;word-spacing:0px;fill:#000000;fill-opacity:1;stroke:none;stroke-width:0.26458332"
       x="14.592917"
       y="26.606548"
       id="text1229"><tspan
         sodipodi:role="line"
         id="tspan1227"
         x="14.592917"
         y="26.606548"
         style="font-style:normal;font-variant:normal;font-weight:normal;font-stretch:normal;font-size:11.28888893px;font-family:sans-serif;-inkscape-font-specification:sans-serif;fill:#808080;stroke-width:0.26458332">How many brothers and </tspan><tspan
         sodipodi:role="line"
         x="14.592917"
         y="40.717659"
         style="font-style:normal;font-variant:normal;font-weight:normal;font-stretch:normal;font-size:11.28888893px;font-family:sans-serif;-inkscape-font-specification:sans-serif;fill:#808080;stroke-width:0.26458332"
         id="tspan1231">sisters do you have ?</tspan></text>
    <path
       d="m 150.14731,108.90364 c -6.73217,-5.5958 -0.10555,-8.49014 -0.10555,-8.49014 5.81582,-0.16074 11.68607,-0.664199 17.42999,-1.470835 25.46322,-3.572211 48.39547,-13.081594 52.46431,-24.948649 3.75658,-10.950424 -11.15893,-27.713543 -63.06287,-26.110834 -7.37773,0.228192 -14.31496,0.82605 -20.75559,1.729599 -37.131372,5.209106 -57.745288,20.571062 -50.596197,33.644969 8.887987,16.262766 50.356447,16.724589 50.356447,16.724589 0,0 0.20221,7.882861 14.26946,8.921301"
       style="fill:#fcd64d;fill-opacity:1;fill-rule:nonzero;stroke:none;stroke-width:0.03527778"
       id="path7388-3"
       inkscape:connector-curvature="0" />
    <text
       xml:space="preserve"
       style="font-style:normal;font-weight:normal;font-size:10.58333302px;line-height:1.25;font-family:sans-serif;letter-spacing:0px;word-spacing:0px;fill:#000000;fill-opacity:1;stroke:none;stroke-width:0.26458332"
       x="104.39548"
       y="73.004539"
       id="text1873"><tspan
         sodipodi:role="line"
         id="tspan1871"
         x="104.39548"
         y="73.004539"
         style="font-style:normal;font-variant:normal;font-weight:bold;font-stretch:normal;font-size:11.28888893px;font-family:sans-serif;-inkscape-font-specification:'sans-serif Bold';stroke-width:0.26458332">I have 2 brothers</tspan><tspan
         sodipodi:role="line"
         x="104.39548"
         y="87.115654"
         style="font-style:normal;font-variant:normal;font-weight:bold;font-stretch:normal;font-size:11.28888893px;font-family:sans-serif;-inkscape-font-specification:'sans-serif Bold';stroke-width:0.26458332"
         id="tspan1875"> and 1 sister.</tspan></text>
    <g
       id="g8425"
       transform="matrix(0.02072659,0,0,-0.02630623,-101.80174,273.05753)"
       style="stroke-width:3.11653113">
      <path
         d="m 16161.4,3265.94 c 0,0 -76.2,-139.8 -53.1,-158.47 27.4,-22.25 28.2,33.21 48.8,38.01 33.6,-18.42 -39.6,-141.55 -14.8,-144.61 14.8,-10.37 40.2,15.22 41.7,24.09 3,-23.65 37.1,0.49 39.9,22.45 8.9,-11.88 27.4,16.29 39.7,47.17 36.4,91.38 -4.7,167.63 -4.7,167.63 l -97.5,3.73"
         style="fill:#fabd99;fill-opacity:1;fill-rule:nonzero;stroke:none;stroke-width:3.11653113"
         id="path8427"
         inkscape:connector-curvature="0" />
    </g>
    <g
       id="g8429"
       transform="matrix(0.02031644,0,0,-0.02578567,-101.80174,273.05753)"
       style="stroke-width:3.11653113">
      <path
         d="m 16288.7,2064.19 c 0,0 5.1,-204.65 11.3,-315.88 -73.5,-18.84 -119.8,-84.02 -119.8,-84.02 l -37.8,338.13 146.3,61.77"
         style="fill:#fabd99;fill-opacity:1;fill-rule:nonzero;stroke:none;stroke-width:3.11653113"
         id="path8431"
         inkscape:connector-curvature="0" />
    </g>
    <g
       id="g8433"
       transform="matrix(0.02066278,0,0,-0.02622524,-101.80174,273.05753)"
       style="stroke-width:3.11653113">
      <path
         d="m 15888.1,1684.09 c -77.8,-107.71 195.6,-295.9 318.1,-236.08 93.8,28.73 50.9,126.23 50.9,126.23 l -369,109.85"
         style="fill:#fde7d3;fill-opacity:1;fill-rule:nonzero;stroke:none;stroke-width:3.11653113"
         id="path8435"
         inkscape:connector-curvature="0" />
    </g>
    <g
       id="g8437"
       transform="matrix(0.02067384,0,0,-0.02623928,-101.80174,273.05753)"
       style="stroke-width:3.11653113">
      <path
         d="m 15881.3,1796.14 c -9.3,-23.72 -24.8,-81.45 1.3,-130.05 104.9,-124.57 180.1,-195.33 313.1,-158.98 104.3,28.53 34.9,117.03 -20.1,152.12 -54.8,35.14 -159.6,132.78 -159.6,132.78 0,0 -40.7,-41.36 -134.7,4.13"
         style="fill:#f25035;fill-opacity:1;fill-rule:nonzero;stroke:none;stroke-width:3.11653113"
         id="path8439"
         inkscape:connector-curvature="0" />
    </g>
    <g
       id="g8441"
       transform="matrix(0.02040043,0,0,-0.02589229,-101.80174,273.05753)"
       style="stroke-width:3.11653113">
      <path
         d="m 16230.6,1816.02 c 69.4,82.99 -193.9,69.89 -100.7,-9.75 15.8,-16.26 81.8,-12.76 100.7,9.75"
         style="fill:#f25035;fill-opacity:1;fill-rule:nonzero;stroke:none;stroke-width:3.11653113"
         id="path8443"
         inkscape:connector-curvature="0" />
    </g>
    <g
       id="g8445"
       transform="matrix(0.02077411,0,0,-0.02636655,-101.80174,273.05753)"
       style="stroke-width:3.11653113">
      <path
         d="m 16108.2,1643.87 c 191.8,-144.13 -78,-202.6 -179,-117.04 0.3,79.56 98.3,115.3 179,117.04"
         style="fill:#f4f1f0;fill-opacity:1;fill-rule:nonzero;stroke:none;stroke-width:3.11653113"
         id="path8447"
         inkscape:connector-curvature="0" />
    </g>
    <g
       id="g8449"
       transform="matrix(0.02039501,0,0,-0.02588539,-101.80174,273.05753)"
       style="stroke-width:3.11653113">
      <path
         d="m 16179.8,1732.36 c 3.5,0 6.9,1.62 9,4.63 17.2,24.58 57.7,43.06 95.9,31.63 5.7,-1.73 11.9,1.53 13.6,7.29 1.7,5.76 -1.6,11.87 -7.3,13.6 -46,23.99 -156.6,-40.5 -111.2,-57.15"
         style="fill:#fde7d3;fill-opacity:1;fill-rule:nonzero;stroke:none;stroke-width:3.11653113"
         id="path8451"
         inkscape:connector-curvature="0" />
    </g>
    <g
       id="g8453"
       transform="matrix(0.02044706,0,0,-0.02595145,-101.80174,273.05753)"
       style="stroke-width:3.11653113">
      <path
         d="m 16180.1,1691.83 c 3.4,0 6.8,1.62 8.9,4.67 17.1,24.47 57.6,42.95 95.7,31.5 5.8,-1.72 11.8,1.52 13.5,7.27 1.8,5.75 -1.5,11.85 -7.2,13.57 -45.9,23.97 -156.2,-40.4 -110.9,-57.01"
         style="fill:#fde7d3;fill-opacity:1;fill-rule:nonzero;stroke:none;stroke-width:3.11653113"
         id="path8455"
         inkscape:connector-curvature="0" />
    </g>
    <g
       id="g8457"
       transform="matrix(0.02049901,0,0,-0.02601738,-101.80174,273.05753)"
       style="stroke-width:3.11653113">
      <path
         d="m 16180.4,1651.52 c 3.4,0 6.8,1.61 8.9,4.66 17.1,24.4 57.4,42.83 95.4,31.41 5.8,-1.71 11.8,1.52 13.6,7.26 1.7,5.78 -1.6,11.81 -7.3,13.57 -45.7,23.87 -155.8,-40.29 -110.6,-56.9"
         style="fill:#fde7d3;fill-opacity:1;fill-rule:nonzero;stroke:none;stroke-width:3.11653113"
         id="path8459"
         inkscape:connector-curvature="0" />
    </g>
    <g
       id="g8461"
       transform="matrix(0.01959542,0,0,-0.02487055,-101.80174,273.05753)"
       style="stroke-width:3.11653113">
      <path
         d="m 16148.4,2140.13 c 0,0 -5.4,-212.17 -11.8,-327.49 76.2,-19.54 124.2,-87.12 124.2,-87.12 l 39.2,350.57 -151.6,64.04"
         style="fill:#fabd99;fill-opacity:1;fill-rule:nonzero;stroke:none;stroke-width:3.11653113"
         id="path8463"
         inkscape:connector-curvature="0" />
    </g>
    <g
       id="g8465"
       transform="matrix(0.01967339,0,0,-0.02496951,-101.80174,273.05753)"
       style="stroke-width:3.11653113">
      <path
         d="m 16218.3,1768.79 c 81.7,-113.13 -205.4,-310.78 -334.1,-247.96 -98.5,30.19 -53.5,132.59 -53.5,132.59 l 387.6,115.37"
         style="fill:#fde7d3;fill-opacity:1;fill-rule:nonzero;stroke:none;stroke-width:3.11653113"
         id="path8467"
         inkscape:connector-curvature="0" />
    </g>
    <g
       id="g8469"
       transform="matrix(0.01960416,0,0,-0.02488165,-101.80174,273.05753)"
       style="stroke-width:3.11653113">
      <path
         d="m 16273.9,1894.15 c 9.7,-25.02 26.1,-85.9 -1.4,-137.16 -110.6,-131.36 -190,-205.98 -330.2,-167.64 -110,30.08 -36.7,123.41 21.2,160.42 57.8,37.05 168.3,140.02 168.3,140.02 0,0 42.9,-43.62 142.1,4.36"
         style="fill:#f25035;fill-opacity:1;fill-rule:nonzero;stroke:none;stroke-width:3.11653113"
         id="path8471"
         inkscape:connector-curvature="0" />
    </g>
    <g
       id="g8473"
       transform="matrix(0.01964456,0,0,-0.02493291,-101.80174,273.05753)"
       style="stroke-width:3.11653113">
      <path
         d="m 16098.6,1885.9 c -72.1,86.18 201.4,72.58 104.6,-10.13 -16.4,-16.88 -85,-13.24 -104.6,10.13"
         style="fill:#f25035;fill-opacity:1;fill-rule:nonzero;stroke:none;stroke-width:3.11653113"
         id="path8475"
         inkscape:connector-curvature="0" />
    </g>
    <g
       id="g8477"
       transform="matrix(0.01941386,0,0,-0.02464011,-101.80174,273.05753)"
       style="stroke-width:3.11653113">
      <path
         d="m 16108.6,1759.05 c -205.3,-154.23 83.4,-216.8 191.4,-125.25 -0.2,85.14 -105.1,123.39 -191.4,125.25"
         style="fill:#f4f1f0;fill-opacity:1;fill-rule:nonzero;stroke:none;stroke-width:3.11653113"
         id="path8479"
         inkscape:connector-curvature="0" />
    </g>
    <g
       id="g8481"
       transform="matrix(0.0195276,0,0,-0.02478447,-101.80174,273.05753)"
       style="stroke-width:3.11653113">
      <path
         d="m 16252.6,1809.32 c -3.6,0 -7.2,1.69 -9.4,4.83 -17.9,25.68 -60.3,44.97 -100.1,33.04 -6.1,-1.81 -12.4,1.59 -14.2,7.61 -1.9,6.02 1.6,12.4 7.6,14.2 48,25.06 163.5,-42.29 116.1,-59.68"
         style="fill:#fde7d3;fill-opacity:1;fill-rule:nonzero;stroke:none;stroke-width:3.11653113"
         id="path8483"
         inkscape:connector-curvature="0" />
    </g>
    <g
       id="g8485"
       transform="matrix(0.01947566,0,0,-0.02471853,-101.80174,273.05753)"
       style="stroke-width:3.11653113">
      <path
         d="m 16252.4,1776.23 c -3.6,0 -7.1,1.7 -9.4,4.9 -17.9,25.69 -60.4,45.09 -100.4,33.07 -6,-1.81 -12.4,1.6 -14.2,7.63 -1.8,6.04 1.6,12.44 7.6,14.24 48.2,25.18 164,-42.41 116.4,-59.84"
         style="fill:#fde7d3;fill-opacity:1;fill-rule:nonzero;stroke:none;stroke-width:3.11653113"
         id="path8487"
         inkscape:connector-curvature="0" />
    </g>
    <g
       id="g8489"
       transform="matrix(0.01942361,0,0,-0.02465249,-101.80174,273.05753)"
       style="stroke-width:3.11653113">
      <path
         d="m 16252.3,1742.95 c -3.7,0 -7.2,1.71 -9.5,4.92 -17.9,25.76 -60.5,45.21 -100.6,33.16 -6.1,-1.81 -12.4,1.6 -14.3,7.65 -1.8,6.11 1.6,12.47 7.7,14.33 48.3,25.19 164.4,-42.52 116.7,-60.06"
         style="fill:#fde7d3;fill-opacity:1;fill-rule:nonzero;stroke:none;stroke-width:3.11653113"
         id="path8491"
         inkscape:connector-curvature="0" />
    </g>
    <g
       id="g8493"
       transform="matrix(0.0206876,0,0,-0.02625674,-101.80174,273.05753)"
       style="stroke-width:3.11653113">
      <path
         d="m 15650.4,3334.56 c -1,0.24 -241.9,0.63 -452.9,45.46 1.6,-350.95 -219.4,-1037.27 -243.7,-1454.72 125.4,-79.36 463.1,-48.96 530.5,-18.21 102.4,1588.86 237.1,1592.26 268.2,-11.66 94.9,-34.87 427.1,-56.73 534.1,13.65 13.4,431.34 -184.9,1119.99 -183.3,1470.94 -211,-44.83 -451.9,-45.22 -452.9,-45.46"
         style="fill:#f9a939;fill-opacity:1;fill-rule:nonzero;stroke:none;stroke-width:3.11653113"
         id="path8495"
         inkscape:connector-curvature="0" />
    </g>
    <g
       id="g8497"
       transform="matrix(0.02044756,0,0,-0.02595209,-101.80174,273.05753)"
       style="stroke-width:3.11653113">
      <path
         d="m 16276.5,3062.03 c -89,-10.96 -173.1,65.11 -172,154.54 -0.3,23.39 36,23.39 36.3,0 -0.7,-70.37 66.1,-128.2 135.7,-118.23 23.4,0.5 23.5,-36.16 0,-36.31"
         style="fill:#071216;fill-opacity:1;fill-rule:nonzero;stroke:none;stroke-width:3.11653113"
         id="path8499"
         inkscape:connector-curvature="0" />
    </g>
    <g
       id="g8501"
       transform="matrix(0.01953132,0,0,-0.02478919,-101.80174,273.05753)"
       style="stroke-width:3.11653113">
      <path
         d="m 16293.6,3366.33 c -20.7,-76.08 -97.6,-132.1 -176.6,-126.81 -10.3,0.67 -19,8.24 -19,18.99 0,9.77 8.7,19.7 19,19.03 62.2,-4.16 123.4,38.12 139.9,98.93 6.4,23.56 43.1,13.53 36.7,-10.14 v 0"
         style="fill:#071216;fill-opacity:1;fill-rule:nonzero;stroke:none;stroke-width:3.11653113"
         id="path8503"
         inkscape:connector-curvature="0" />
    </g>
    <g
       id="g8505"
       transform="matrix(0.02060028,0,0,-0.02614592,-101.80174,273.05753)"
       style="stroke-width:3.11653113">
      <path
         d="m 16290.5,1937.41 c -41.4,441.66 -92.1,640.85 -147.9,1081.33 67,-306.54 89,-472.18 131.1,-809.9 9,-90.13 17.7,-180.36 25.8,-270.64 0.5,-5.76 -8.5,-6.59 -9,-0.79 v 0"
         style="fill:#071216;fill-opacity:1;fill-rule:nonzero;stroke:none;stroke-width:3.11653113"
         id="path8507"
         inkscape:connector-curvature="0" />
    </g>
    <g
       id="g8509"
       transform="matrix(0.01932313,0,0,-0.02452496,-101.80174,273.05753)"
       style="stroke-width:3.11653113">
      <path
         d="m 16077.3,2086.21 c 62.1,481.65 134.7,704.83 212.2,1184.67 1,6.08 10.5,4.89 9.5,-1.2 -27.5,-170.6 -54.4,-341.26 -80.3,-512.13 -43.7,-297.01 -94.3,-376.46 -131.8,-672.54 -0.8,-6.13 -10.3,-4.94 -9.6,1.2 v 0"
         style="fill:#071216;fill-opacity:1;fill-rule:nonzero;stroke:none;stroke-width:3.11653113"
         id="path8511"
         inkscape:connector-curvature="0" />
    </g>
    <g
       id="g8513"
       transform="matrix(0.02017417,0,0,-0.02560509,-101.80174,273.05753)"
       style="stroke-width:3.11653113">
      <path
         d="m 16300,4545.79 c 0,0 -95.3,11.68 -164.6,17.93 -6.4,72.27 0,174.29 0,174.29 l -176.7,13.87 c 0,0 -1.5,-139.55 0,-187 -72.5,-14.91 -162.7,-23 -198.4,-27.27 79,-229.68 521.4,-272.9 539.7,8.18"
         style="fill:#fabd99;fill-opacity:1;fill-rule:nonzero;stroke:none;stroke-width:3.11653113"
         id="path8515"
         inkscape:connector-curvature="0" />
    </g>
    <g
       id="g8517"
       transform="matrix(0.01995524,0,0,-0.02532722,-101.80174,273.05753)"
       style="stroke-width:3.11653113">
      <path
         d="m 16299.9,4674.26 0.1,-56.31 c 0,0 -85.3,44.08 -155.1,0 2.2,33.14 2.2,64.06 2.2,64.06 l 152.8,-7.75"
         style="fill:#efa378;fill-opacity:1;fill-rule:nonzero;stroke:none;stroke-width:3.11653113"
         id="path8519"
         inkscape:connector-curvature="0" />
    </g>
    <g
       id="g8521"
       transform="matrix(0.0204764,0,0,-0.02598869,-101.80174,273.05753)"
       style="stroke-width:3.11653113">
      <path
         d="m 16269.5,3456.95 c 0,0 30.5,-173.61 9.4,-187.94 -82.3,-31.26 -674.3,-74.24 -941.5,0 -9.9,53.14 6.7,172.87 6.7,172.87 l 925.4,15.07"
         style="fill:#f25035;fill-opacity:1;fill-rule:nonzero;stroke:none;stroke-width:3.11653113"
         id="path8523"
         inkscape:connector-curvature="0" />
    </g>
    <g
       id="g8525"
       transform="matrix(0.02057397,0,0,-0.02611252,-101.80174,273.05753)"
       style="stroke-width:3.11653113">
      <path
         d="m 15255,3400.54 c -118.7,220.74 51.6,891.52 78.4,1023.33 26.9,8.77 152.8,40.32 183.3,39.77 59.1,-214.71 377.7,-214.71 436.8,0 30.5,0.55 156.4,-31 183.3,-39.77 16.2,-111.3 163.2,-820.12 54.6,-1023.33 -129.9,-52.74 -695.8,-68.86 -936.4,0"
         style="fill:#fde7d3;fill-opacity:1;fill-rule:nonzero;stroke:none;stroke-width:3.11653113"
         id="path8527"
         inkscape:connector-curvature="0" />
    </g>
    <g
       id="g8529"
       transform="matrix(0.02018944,0,0,-0.02562448,-101.80174,273.05753)"
       style="stroke-width:3.11653113">
      <path
         d="m 15886.1,4557.19 c -25.5,-153.98 313.7,-160.7 306.3,0 27.3,0.87 83.7,-4.47 83.7,-4.47 23.9,-221.47 -503.3,-254.66 -478.5,0 l 88.5,4.47"
         style="fill:#f25035;fill-opacity:1;fill-rule:nonzero;stroke:none;stroke-width:3.11653113"
         id="path8531"
         inkscape:connector-curvature="0" />
    </g>
    <g
       id="g8533"
       transform="matrix(0.02097336,0,0,-0.02661942,-101.80174,273.05753)"
       style="stroke-width:3.11653113">
      <path
         d="m 15755.7,4359.1 c 150.7,-27.05 208.7,-66.28 292,-268.35 99.9,-235.37 252.3,-1009.39 -112.4,-873.48 -18.6,585.23 -179.6,1141.83 -179.6,1141.83"
         style="fill:#f25035;fill-opacity:1;fill-rule:nonzero;stroke:none;stroke-width:3.11653113"
         id="path8535"
         inkscape:connector-curvature="0" />
    </g>
    <g
       id="g8537"
       transform="matrix(0.02046695,0,0,-0.0259767,-101.80174,273.05753)"
       style="stroke-width:3.11653113">
      <path
         d="m 16292.9,4402.48 c 7.1,-28.08 0.4,-236.62 -13.3,-286.55 -10,-36.42 -176.6,-37.21 -192.8,35.89 -22,99.36 -34.9,264.06 -38,331.17 4.1,33 229.8,-11.28 244.1,-80.51"
         style="fill:#071216;fill-opacity:1;fill-rule:nonzero;stroke:none;stroke-width:3.11653113"
         id="path8539"
         inkscape:connector-curvature="0" />
    </g>
    <g
       id="g8541"
       transform="matrix(0.02045951,0,0,-0.02596727,-101.80174,273.05753)"
       style="stroke-width:3.11653113">
      <path
         d="m 16231.6,4462.41 c 21.6,-115.29 68.4,-738.1 68.4,-738.1 0,0 -165.3,405.94 -170.9,767.74 13.6,24.75 91.6,5.09 102.5,-29.64"
         style="fill:#f9a939;fill-opacity:1;fill-rule:nonzero;stroke:none;stroke-width:3.11653113"
         id="path8543"
         inkscape:connector-curvature="0" />
    </g>
    <g
       id="g8545"
       transform="matrix(0.01974162,0,0,-0.0250561,-101.80174,273.05753)"
       style="stroke-width:3.11653113">
      <path
         d="m 16164.1,3269.9 c -7.5,1.12 -592.8,140.58 -591.8,147.96 l 66.1,491.25 c 1,7.32 7.9,12.36 15.5,11.19 l 633.2,-96.95 c 7.6,-1.18 12.9,-8.05 11.9,-15.43 l -63.4,-471.55 c -1.3,-32.77 -51.8,-49.16 -71.5,-66.47"
         style="fill:#071216;fill-opacity:1;fill-rule:nonzero;stroke:none;stroke-width:3.11653113"
         id="path8547"
         inkscape:connector-curvature="0" />
    </g>
    <g
       id="g8549"
       transform="matrix(0.01971509,0,0,-0.02502243,-101.80174,273.05753)"
       style="stroke-width:3.11653113">
      <path
         d="m 16182.9,3297.44 c -7.5,1.17 -599.7,131.49 -598.7,138.88 l 23.8,407.51 c 0.9,7.39 45.7,62.58 53.2,61.46 l 625.9,-95.87 c 7.5,-1.17 12.9,-8.05 11.9,-15.44 l -60.1,-446.7 c -1.6,-12.08 -5.3,-15.54 -16.9,-22.22 l -39.1,-27.62"
         style="fill:#f4ede3;fill-opacity:1;fill-rule:nonzero;stroke:none;stroke-width:3.11653113"
         id="path8551"
         inkscape:connector-curvature="0" />
    </g>
    <g
       id="g8553"
       transform="matrix(0.01965732,0,0,-0.02494911,-101.80174,273.05753)"
       style="stroke-width:3.11653113">
      <path
         d="m 15585.8,3377.41 c -7.6,1.18 -13,8.07 -12,15.49 l 61.8,459.05 c 0.9,7.36 7.9,12.42 15.5,11.3 l 636,-97.43 c 7.5,-1.12 12.9,-8.07 11.9,-15.48 l -61.8,-459.01 c -0.9,-7.41 -7.9,-12.47 -15.5,-11.29 l -635.9,97.37"
         style="fill:#071216;fill-opacity:1;fill-rule:nonzero;stroke:none;stroke-width:3.11653113"
         id="path8555"
         inkscape:connector-curvature="0" />
    </g>
    <g
       id="g8557"
       transform="matrix(0.01954679,0,0,-0.02480883,-101.80174,273.05753)"
       style="stroke-width:3.11653113">
      <path
         d="m 16232.5,3256.91 c -7.7,0.2 -611.7,66.26 -611.6,73.76 l 4.3,500.56 c 0.1,7.51 6.4,13.42 14.1,13.21 l 646.8,-17.47 c 7.7,-0.16 13.9,-6.43 13.8,-13.93 l -4.2,-480.52 c 2.9,-33 -45.6,-55.82 -63.2,-75.61"
         style="fill:#071216;fill-opacity:1;fill-rule:nonzero;stroke:none;stroke-width:3.11653113"
         id="path8559"
         inkscape:connector-curvature="0" />
    </g>
    <g
       id="g8561"
       transform="matrix(0.01952327,0,0,-0.02477898,-101.80174,273.05753)"
       style="stroke-width:3.11653113">
      <path
         d="m 16246.2,3283.61 c -7.8,0.21 -617.5,56.3 -617.5,63.82 l -27.4,411.25 c 0,7.52 37.9,68.5 45.6,68.3 l 639.2,-17.24 c 7.7,-0.21 13.9,-6.49 13.8,-14 l -3.9,-455.16 c -0.2,-12.3 -3.4,-16.21 -14.2,-24.34 l -35.6,-32.63"
         style="fill:#f4ede3;fill-opacity:1;fill-rule:nonzero;stroke:none;stroke-width:3.11653113"
         id="path8563"
         inkscape:connector-curvature="0" />
    </g>
    <g
       id="g8565"
       transform="matrix(0.01947424,0,0,-0.02471675,-101.80174,273.05753)"
       style="stroke-width:3.11653113">
      <path
         d="m 15632.5,3281.21 c -7.7,0.2 -14,6.45 -13.9,13.98 l 4.1,467.55 c 0.1,7.48 6.4,13.41 14.2,13.21 l 649.1,-17.49 c 7.8,-0.21 14,-6.51 13.9,-14.04 l -4.1,-467.5 c 0,-7.53 -6.3,-13.46 -14.1,-13.26 l -649.2,17.55"
         style="fill:#071216;fill-opacity:1;fill-rule:nonzero;stroke:none;stroke-width:3.11653113"
         id="path8567"
         inkscape:connector-curvature="0" />
    </g>
    <g
       id="g8569"
       transform="matrix(0.01929891,0,0,-0.02449423,-101.80174,273.05753)"
       style="stroke-width:3.11653113">
      <path
         d="m 16195.7,3507.56 c 21.1,-54.82 104.3,-126.83 80.2,-147.6 -15.9,-13.74 -38.2,25.62 -75.8,18.22 -13.1,-2.6 -12.1,-24.67 -4.3,-44.3 12.9,-30.3 31.8,-31.08 34.3,-35.14 -9.2,-29.84 -55.7,-19.42 -57.3,-9.9 1.5,-18.95 -25.1,-16.71 -41.4,4.48 -9.6,-12.7 -39.9,-4.63 -53,28.48 -39.1,98.19 12.4,181.75 12.4,181.75 0,0 81.2,3.33 104.9,4.01"
         style="fill:#fabd99;fill-opacity:1;fill-rule:nonzero;stroke:none;stroke-width:3.11653113"
         id="path8571"
         inkscape:connector-curvature="0" />
    </g>
    <g
       id="g8573"
       transform="matrix(0.01942964,0,0,-0.02466013,-101.80174,273.05753)"
       style="stroke-width:3.11653113">
      <path
         d="m 16300,4701.51 c -430.7,-55.26 -469.1,-1012.93 -352.2,-1217.56 27,-23.94 110.1,-20.89 179.5,0 20.1,631.72 172.7,1217.56 172.7,1217.56"
         style="fill:#f25035;fill-opacity:1;fill-rule:nonzero;stroke:none;stroke-width:3.11653113"
         id="path8575"
         inkscape:connector-curvature="0" />
    </g>
    <g
       id="g8577"
       transform="matrix(0.01957714,0,0,-0.02484735,-101.80174,273.05753)"
       style="stroke-width:3.11653113">
      <path
         d="m 16044.9,4602.58 c -7.5,-29.36 -0.4,-247.38 13.9,-299.57 10.5,-38.09 184.5,-38.91 201.5,37.51 23.1,103.88 36.5,276.07 39.7,346.22 -4.3,34.51 -240.2,-11.78 -255.1,-84.16"
         style="fill:#071216;fill-opacity:1;fill-rule:nonzero;stroke:none;stroke-width:3.11653113"
         id="path8579"
         inkscape:connector-curvature="0" />
    </g>
    <g
       id="g8581"
       transform="matrix(0.01948379,0,0,-0.02472887,-101.80174,273.05753)"
       style="stroke-width:3.11653113">
      <path
         d="m 16192.3,4685.87 c -22.7,-121.07 -73.6,-720.25 -73.6,-720.25 0,0 175.3,371.45 181.3,751.37 -14.3,25.99 -96.3,5.35 -107.7,-31.12"
         style="fill:#f9a939;fill-opacity:1;fill-rule:nonzero;stroke:none;stroke-width:3.11653113"
         id="path8583"
         inkscape:connector-curvature="0" />
    </g>
    <g
       id="g8585"
       transform="matrix(0.02252551,0,0,-0.02409701,-101.80174,252.73181)"
       style="stroke-width:3.3946321">
      <path
         d="m 15187.6,4595.48 c 523.2,-298.65 933.1,435.4 745.5,522.6 366.9,316.57 207.3,670.13 9.3,702.91 115.4,93.28 170,373.53 -42,562.26 -196.6,174.92 -406.1,73.31 -406.1,73.31 0,0 75.7,260.25 -188.2,407.31 -260.5,145.16 -527.9,71.98 -681.3,-74.1 -302.8,387.59 -982.4,259.48 -936,-142.53 -434.7,127.76 -669,-339.79 -470.6,-538.54 -414.8,58.24 -537.6,-550.08 -218.4,-684.87 -147.1,-12.89 25.9,-890.89 610.1,-661.73 393.8,154.49 1577.7,-166.62 1577.7,-166.62"
         style="fill:#f25035;fill-opacity:1;fill-rule:nonzero;stroke:none;stroke-width:3.3946321"
         id="path8587"
         inkscape:connector-curvature="0" />
    </g>
    <g
       id="g8589"
       transform="matrix(0.02145755,0,0,-0.02723397,-101.80174,273.05753)"
       style="stroke-width:3.11653113">
      <path
         d="m 16227.9,5283.86 c -72.1,-597.89 -586.5,-939.64 -1162.3,-870.22 -575.7,69.41 -994.3,523.66 -922.2,1121.61 72.1,597.85 594.5,1004.72 1170.2,935.3 575.7,-69.4 986.4,-588.86 914.3,-1186.69"
         style="fill:#fabd99;fill-opacity:1;fill-rule:nonzero;stroke:none;stroke-width:3.11653113"
         id="path8591"
         inkscape:connector-curvature="0" />
    </g>
    <g
       id="g8593"
       transform="matrix(0.02145755,0,0,-0.02723397,-101.80174,273.05753)"
       style="stroke-width:3.11653113">
      <path
         d="m 16227.9,5283.86 c -72.1,-597.89 -586.5,-939.64 -1162.3,-870.22 -575.7,69.41 -994.3,523.66 -922.2,1121.61 72.1,597.85 594.5,1004.72 1170.2,935.3 575.7,-69.4 986.4,-588.86 914.3,-1186.69"
         style="fill:#fabd99;fill-opacity:1;fill-rule:nonzero;stroke:none;stroke-width:3.11653113"
         id="path8595"
         inkscape:connector-curvature="0" />
    </g>
    <g
       id="g8597"
       transform="matrix(0.02180451,0,0,-0.02767432,-101.80174,273.05753)"
       style="stroke-width:3.11653113">
      <path
         d="m 15928.3,5200.26 c 0,0 28.2,117.85 174.8,121.27 154.7,3.49 196.9,-203.02 103.6,-315.19 -93.3,-111.95 -263.8,-98.13 -308.1,0.63 l 29.7,193.29"
         style="fill:#fabd99;fill-opacity:1;fill-rule:nonzero;stroke:none;stroke-width:3.11653113"
         id="path8599"
         inkscape:connector-curvature="0" />
    </g>
    <g
       id="g8601"
       transform="matrix(0.02159099,0,0,-0.02740332,-101.80174,273.05753)"
       style="stroke-width:3.11653113">
      <path
         d="m 16287.6,5318.48 c -99.1,26.23 -195.2,-143.93 -66.5,-247.34 -47.2,129.87 9.1,168.35 76.3,102.58 2.6,40.89 -20.3,68.72 -81.4,69.33 9.3,53.57 71.6,75.43 71.6,75.43"
         style="fill:#d37658;fill-opacity:1;fill-rule:nonzero;stroke:none;stroke-width:3.11653113"
         id="path8603"
         inkscape:connector-curvature="0" />
    </g>
    <g
       id="g8605"
       transform="matrix(0.01866481,0,0,-0.02368941,-101.80174,273.05753)"
       style="stroke-width:3.11653113">
      <path
         d="m 16299.3,6352.89 c 0,0 0.7,141.56 -164.8,186.15 -174.6,46.93 -279.8,-175.72 -205.1,-328.86 74.7,-152.95 272.1,-184.61 349.8,-84.85 l 20.1,227.56"
         style="fill:#fabd99;fill-opacity:1;fill-rule:nonzero;stroke:none;stroke-width:3.11653113"
         id="path8607"
         inkscape:connector-curvature="0" />
    </g>
    <g
       id="g8609"
       transform="matrix(0.01863096,0,0,-0.02364643,-101.80174,273.05753)"
       style="stroke-width:3.11653113">
      <path
         d="m 16119.9,6495.23 c 118.8,2.22 180.1,-215.83 6.8,-296.75 88.8,133.15 36.2,191.99 -57.6,136.5 8.3,46.72 41.8,71.71 110.6,55.65 4.4,62.8 -59.8,104.6 -59.8,104.6"
         style="fill:#d37658;fill-opacity:1;fill-rule:nonzero;stroke:none;stroke-width:3.11653113"
         id="path8611"
         inkscape:connector-curvature="0" />
    </g>
    <g
       id="g8613"
       transform="matrix(0.02010826,0,0,-0.02552144,-101.80174,273.05753)"
       style="stroke-width:3.11653113">
      <path
         d="m 16270.4,5634.24 c -31.2,-19.68 -42.8,60.52 -111.3,62.08 -70,1.6 -79.8,-79.54 -112.8,-52.55 -27,21.99 9.2,120.33 123.7,114.07 95.7,-5.2 130,-104.87 100.4,-123.6"
         style="fill:#ee5b63;fill-opacity:1;fill-rule:nonzero;stroke:none;stroke-width:3.11653113"
         id="path8615"
         inkscape:connector-curvature="0" />
    </g>
    <g
       id="g8617"
       transform="matrix(0.01937126,0,0,-0.02458604,-101.80174,273.05753)"
       style="stroke-width:3.11653113">
      <path
         d="m 15666,5847 c 35.6,-293.81 184.9,-541.29 406.3,-712.49 18,8.98 35.4,19.7 51.9,32.27 158.8,121.55 175.8,366.37 37.8,546.73 -126.4,165.3 -339.1,219.12 -496,133.49"
         style="fill:#f79883;fill-opacity:1;fill-rule:nonzero;stroke:none;stroke-width:3.11653113"
         id="path8619"
         inkscape:connector-curvature="0" />
    </g>
    <g
       id="g8621"
       transform="matrix(0.02128363,0,0,-0.02701322,-101.80174,273.05753)"
       style="stroke-width:3.11653113">
      <path
         d="m 16300,5076.63 c -114.2,109.62 -307.9,117.88 -459.1,11.34 -169,-119.07 -221,-336.26 -116.1,-485.11 18.6,-26.41 40.9,-48.81 66,-67.27 231,104 414.9,290.11 509.2,541.04"
         style="fill:#f79883;fill-opacity:1;fill-rule:nonzero;stroke:none;stroke-width:3.11653113"
         id="path8623"
         inkscape:connector-curvature="0" />
    </g>
    <g
       id="g8625"
       transform="matrix(0.01961482,0,0,-0.02489516,-101.80174,273.05753)"
       style="stroke-width:3.11653113">
      <path
         d="m 16300,5999.02 c -53.6,-78.43 -209.1,-160.37 -345.4,-143.22 -136.3,17.15 -187.2,111.72 -233.6,216.08 5.4,54.28 141.5,232.89 277.8,215.74 136.3,-17.15 257.4,-152.1 301.2,-288.6"
         style="fill:#fde7d3;fill-opacity:1;fill-rule:nonzero;stroke:none;stroke-width:3.11653113"
         id="path8627"
         inkscape:connector-curvature="0" />
    </g>
    <g
       id="g8629"
       transform="matrix(0.01946029,0,0,-0.02469903,-101.80174,273.05753)"
       style="stroke-width:3.11653113">
      <path
         d="m 16263.5,6171 c 36.5,-76.34 7.7,-166.21 -64.4,-200.72 -72.1,-34.44 -160.1,-0.51 -196.7,75.86 -36.5,76.45 -7.6,166.23 64.4,200.75 72.2,34.43 160.2,0.45 196.7,-75.89"
         style="fill:#317e93;fill-opacity:1;fill-rule:nonzero;stroke:none;stroke-width:3.11653113"
         id="path8631"
         inkscape:connector-curvature="0" />
    </g>
    <g
       id="g8633"
       transform="matrix(0.0193584,0,0,-0.02456971,-101.80174,273.05753)"
       style="stroke-width:3.11653113">
      <path
         d="m 16282.1,6171.43 c 17.9,-37.52 3.8,-81.68 -31.7,-98.64 -35.4,-16.93 -78.7,-0.25 -96.6,37.27 -18,37.58 -3.7,81.7 31.6,98.67 35.5,16.92 78.7,0.21 96.7,-37.3"
         style="fill:#071216;fill-opacity:1;fill-rule:nonzero;stroke:none;stroke-width:3.11653113"
         id="path8635"
         inkscape:connector-curvature="0" />
    </g>
    <g
       id="g8637"
       transform="matrix(0.0192319,0,0,-0.02440917,-101.80174,273.05753)"
       style="stroke-width:3.11653113">
      <path
         d="m 16298.4,6221.16 c 1.6,-25.04 -16.3,-46.38 -39.8,-47.84 -23.5,-1.41 -43.9,17.52 -45.5,42.54 -1.5,24.9 16.3,46.32 39.7,47.97 23.6,1.26 44.1,-17.75 45.6,-42.67"
         style="fill:#fde7d3;fill-opacity:1;fill-rule:nonzero;stroke:none;stroke-width:3.11653113"
         id="path8639"
         inkscape:connector-curvature="0" />
    </g>
    <g
       id="g8641"
       transform="matrix(0.01938905,0,0,-0.02460862,-101.80174,273.05753)"
       style="stroke-width:3.11653113">
      <path
         d="m 16299,6075.59 c 1,-15.41 -10,-28.47 -24.6,-29.47 -14.5,-0.91 -27,10.84 -28,26.25 -0.7,15.28 10.1,28.47 24.6,29.37 14.5,0.91 27,-10.82 28,-26.15"
         style="fill:#fde7d3;fill-opacity:1;fill-rule:nonzero;stroke:none;stroke-width:3.11653113"
         id="path8643"
         inkscape:connector-curvature="0" />
    </g>
    <g
       id="g8645"
       transform="matrix(0.0194643,0,0,-0.02470413,-101.80174,273.05753)"
       style="stroke-width:3.11653113">
      <path
         d="m 15842.5,6118.84 c 0,0 146.6,296.41 457.5,126.07 -327.1,316.15 -457.5,-126.07 -457.5,-126.07"
         style="fill:#071216;fill-opacity:1;fill-rule:nonzero;stroke:none;stroke-width:3.11653113"
         id="path8647"
         inkscape:connector-curvature="0" />
    </g>
    <g
       id="g8649"
       transform="matrix(0.02102118,0,0,-0.02668013,-101.80174,273.05753)"
       style="stroke-width:3.11653113">
      <path
         d="m 15751.9,5533.62 c 31.7,-82.75 155.2,-190.65 282.7,-204.45 127.4,-13.8 194,61.08 258.7,145.83 6.7,50.46 -78.4,241.93 -205.8,255.73 -127.4,13.8 -266.4,-82.62 -335.6,-197.11"
         style="fill:#fde7d3;fill-opacity:1;fill-rule:nonzero;stroke:none;stroke-width:3.11653113"
         id="path8651"
         inkscape:connector-curvature="0" />
    </g>
    <g
       id="g8653"
       transform="matrix(0.02087368,0,0,-0.02649292,-101.80174,273.05753)"
       style="stroke-width:3.11653113">
      <path
         d="m 16040.5,5649.81 c -49.5,-61.4 -42.7,-149.11 15.2,-195.93 58,-46.76 145.1,-34.95 194.7,26.46 49.6,61.49 42.7,149.14 -15.2,195.96 -58,46.77 -145.2,34.9 -194.7,-26.49"
         style="fill:#317e93;fill-opacity:1;fill-rule:nonzero;stroke:none;stroke-width:3.11653113"
         id="path8655"
         inkscape:connector-curvature="0" />
    </g>
    <g
       id="g8657"
       transform="matrix(0.02077431,0,0,-0.0263668,-101.80174,273.05753)"
       style="stroke-width:3.11653113">
      <path
         d="m 16170.1,5634.1 c -24.8,-30.73 -21.4,-74.65 7.6,-98.08 29,-23.42 72.7,-17.5 97.5,13.24 24.8,30.79 21.4,74.67 -7.6,98.11 -29.1,23.41 -72.7,17.46 -97.5,-13.27"
         style="fill:#071216;fill-opacity:1;fill-rule:nonzero;stroke:none;stroke-width:3.11653113"
         id="path8659"
         inkscape:connector-curvature="0" />
    </g>
    <g
       id="g8661"
       transform="matrix(0.02082174,0,0,-0.026427,-101.80174,273.05753)"
       style="stroke-width:3.11653113">
      <path
         d="m 16217.8,5609.34 c -6.8,-22.16 4.7,-45.17 25.5,-51.49 20.9,-6.28 43.2,6.4 50,28.53 6.7,22.05 -4.7,45.09 -25.5,51.59 -20.9,6.15 -43.4,-6.56 -50,-28.63"
         style="fill:#fde7d3;fill-opacity:1;fill-rule:nonzero;stroke:none;stroke-width:3.11653113"
         id="path8663"
         inkscape:connector-curvature="0" />
    </g>
    <g
       id="g8665"
       transform="matrix(0.0206021,0,0,-0.02614822,-101.80174,273.05753)"
       style="stroke-width:3.11653113">
      <path
         d="m 16248.6,5610.84 c -4.3,-13.88 3,-28.24 16.1,-32.32 13,-3.97 27.1,4.05 31.3,17.96 4,13.83 -3,28.25 -16.1,32.24 -13.1,3.97 -27.1,-4.04 -31.3,-17.88"
         style="fill:#fde7d3;fill-opacity:1;fill-rule:nonzero;stroke:none;stroke-width:3.11653113"
         id="path8667"
         inkscape:connector-curvature="0" />
    </g>
    <g
       id="g8669"
       transform="matrix(0.02101255,0,0,-0.02666916,-101.80174,273.05753)"
       style="stroke-width:3.11653113">
      <path
         d="m 16300,5477.26 c 0,0 -68.7,298.51 -385.4,211.49 362.4,214.98 385.4,-211.49 385.4,-211.49"
         style="fill:#071216;fill-opacity:1;fill-rule:nonzero;stroke:none;stroke-width:3.11653113"
         id="path8671"
         inkscape:connector-curvature="0" />
    </g>
    <g
       id="g8673"
       transform="matrix(0.01938723,0,0,-0.02460632,-101.80174,273.05753)"
       style="stroke-width:3.11653113">
      <path
         d="m 16156.6,6549.2 c 119.6,32.73 143.4,-98.62 64.2,-98.29 -84.9,0.54 -156.1,-29.87 -166.7,-21.62 -23.2,18.24 35.2,101.58 102.5,119.91"
         style="fill:#f25035;fill-opacity:1;fill-rule:nonzero;stroke:none;stroke-width:3.11653113"
         id="path8675"
         inkscape:connector-curvature="0" />
    </g>
    <g
       id="g8677"
       transform="matrix(0.02099476,0,0,-0.02664659,-101.80174,273.05753)"
       style="stroke-width:3.11653113">
      <path
         d="m 16194.5,5893.91 c -106.7,41.75 -141.3,-76.53 -68.6,-83.98 78,-7.78 140.5,-42.69 150.9,-36.12 23.2,14.47 -22.3,96.68 -82.3,120.1"
         style="fill:#f25035;fill-opacity:1;fill-rule:nonzero;stroke:none;stroke-width:3.11653113"
         id="path8679"
         inkscape:connector-curvature="0" />
    </g>
    <g
       id="g8681"
       transform="matrix(0.02048805,0,0,-0.02600348,-101.80174,273.05753)"
       style="stroke-width:3.11653113">
      <path
         d="m 16299.2,5178.96 c -0.9,106.47 -230.9,171.86 -443.7,194.34 -212.9,22.47 -451.4,6.57 -474.5,-97.37 -23.1,-103.95 123.1,-368.41 422,-399.97 298.8,-31.57 497,196.53 496.2,303"
         style="fill:#4e1a1e;fill-opacity:1;fill-rule:nonzero;stroke:none;stroke-width:3.11653113"
         id="path8683"
         inkscape:connector-curvature="0" />
    </g>
    <g
       id="g8685"
       transform="matrix(0.02033955,0,0,-0.02581499,-101.80174,273.05753)"
       style="stroke-width:3.11653113">
      <path
         d="m 15569.2,5104.18 c 70.4,-90.94 187.6,-175.56 349.1,-192.63 161.6,-17.06 293.9,41.22 381.7,115.45 -87.1,46.91 -226.7,77.64 -359.8,91.68 -133.1,14.06 -276.1,13.19 -371,-14.5"
         style="fill:#ee5b63;fill-opacity:1;fill-rule:nonzero;stroke:none;stroke-width:3.11653113"
         id="path8687"
         inkscape:connector-curvature="0" />
    </g>
    <g
       id="g8689"
       transform="matrix(0.02035724,0,0,-0.02583745,-101.80174,273.05753)"
       style="stroke-width:3.11653113">
      <path
         d="m 16300,5324.71 c -87.5,42.09 -218,69.93 -342.7,83.1 -124.7,13.17 -258.1,13.2 -352.5,-9.68 71.5,-83.28 183.2,-157.37 333.2,-173.21 149.9,-15.83 274.7,33.28 362,99.79"
         style="fill:#fde7d3;fill-opacity:1;fill-rule:nonzero;stroke:none;stroke-width:3.11653113"
         id="path8691"
         inkscape:connector-curvature="0" />
    </g>
    <g
       id="g8693"
       transform="matrix(0.01905636,0,0,-0.02418637,-101.80174,273.05753)"
       style="stroke-width:3.11653113">
      <path
         d="m 16288.8,5798.9 c -11.2,-17.14 -34.2,-21.94 -51.4,-10.72 -17.1,11.22 -21.9,34.22 -10.7,51.36 11.2,17.14 34.2,21.94 51.4,10.71 17.1,-11.22 21.9,-34.21 10.7,-51.35"
         style="fill:#ee5b63;fill-opacity:1;fill-rule:nonzero;stroke:none;stroke-width:3.11653113"
         id="path8695"
         inkscape:connector-curvature="0" />
    </g>
    <g
       id="g8697"
       transform="matrix(0.01917222,0,0,-0.02433341,-101.80174,273.05753)"
       style="stroke-width:3.11653113">
      <path
         d="m 16288.8,5655.3 c -11.1,-17.04 -34,-21.81 -51,-10.65 -17,11.15 -21.8,34 -10.6,51.04 11.1,17.03 34,21.8 51,10.65 17,-11.15 21.8,-34 10.6,-51.04"
         style="fill:#ee5b63;fill-opacity:1;fill-rule:nonzero;stroke:none;stroke-width:3.11653113"
         id="path8699"
         inkscape:connector-curvature="0" />
    </g>
    <g
       id="g8701"
       transform="matrix(0.01902291,0,0,-0.02414392,-101.80174,273.05753)"
       style="stroke-width:3.11653113">
      <path
         d="m 16288.8,5689.66 c -11.2,-17.17 -34.3,-21.97 -51.4,-10.73 -17.3,11.24 -22.1,34.27 -10.8,51.44 11.2,17.17 34.3,21.97 51.4,10.73 17.2,-11.24 22,-34.27 10.8,-51.44"
         style="fill:#ee5b63;fill-opacity:1;fill-rule:nonzero;stroke:none;stroke-width:3.11653113"
         id="path8703"
         inkscape:connector-curvature="0" />
    </g>
    <g
       id="g8705"
       transform="matrix(0.02085902,0,0,-0.0264743,-101.80174,273.05753)"
       style="stroke-width:3.11653113">
      <path
         d="m 16276,5121.59 c -16.8,-8.11 -37.1,-1.01 -45.2,15.85 -8.1,16.87 -1,37.12 15.9,45.23 16.8,8.11 37.1,1.02 45.2,-15.85 8.1,-16.86 1,-37.11 -15.9,-45.23"
         style="fill:#ee5b63;fill-opacity:1;fill-rule:nonzero;stroke:none;stroke-width:3.11653113"
         id="path8707"
         inkscape:connector-curvature="0" />
    </g>
    <g
       id="g8709"
       transform="matrix(0.02089157,0,0,-0.02651562,-101.80174,273.05753)"
       style="stroke-width:3.11653113">
      <path
         d="m 16276.1,4989.57 c -16.8,-8.11 -37.1,-1.02 -45.2,15.82 -8,16.84 -1,37.06 15.9,45.16 16.8,8.1 37,1.01 45.1,-15.83 8.1,-16.84 1,-37.06 -15.8,-45.15"
         style="fill:#ee5b63;fill-opacity:1;fill-rule:nonzero;stroke:none;stroke-width:3.11653113"
         id="path8711"
         inkscape:connector-curvature="0" />
    </g>
    <g
       id="g8713"
       transform="matrix(0.02074708,0,0,-0.02633224,-101.80174,273.05753)"
       style="stroke-width:3.11653113">
      <path
         d="m 16275.9,5069.12 c -17,-8.16 -37.3,-1.03 -45.4,15.93 -8.2,16.96 -1.1,37.32 15.9,45.48 16.9,8.16 37.3,1.02 45.5,-15.94 8.1,-16.96 1,-37.32 -16,-45.47"
         style="fill:#ee5b63;fill-opacity:1;fill-rule:nonzero;stroke:none;stroke-width:3.11653113"
         id="path8715"
         inkscape:connector-curvature="0" />
    </g>
    <g
       id="g8717"
       transform="matrix(0.02154466,0,0,-0.02734452,-101.80174,273.05753)"
       style="stroke-width:3.11653113">
      <path
         d="m 14305.9,6156.46 c 55.6,212.72 493.8,504.67 1078,377.77 399.2,-86.7 667.2,-377.61 719.3,-562.2 196.8,12.68 137.2,-602.85 137.2,-602.85 -80.7,-30.22 -186,124.69 -75.4,229.18 -57.4,47.69 -110.9,131.95 -117.7,219.59 -87.2,-28.94 -225.6,-10.06 -479.3,265.37 83.1,-296.98 -605,-466.62 -835,57.68 -70.6,-184.85 -282.1,-228.85 -387.3,-128.56 -18.8,-93.27 -94.7,-173.47 -166.1,-210.91 86.3,-125.28 -49.1,-254.81 -121.6,-208.42 0,0 67.3,588.06 247.9,563.35"
         style="fill:#f25035;fill-opacity:1;fill-rule:nonzero;stroke:none;stroke-width:3.11653113"
         id="path8719"
         inkscape:connector-curvature="0" />
    </g>
  </g>
  <g
     inkscape:groupmode="layer"
     id="layer2"
     inkscape:label="Layer 3" />
  <g
     inkscape:label="Layer 1"
     inkscape:groupmode="layer"
     id="layer1"
     transform="translate(0,-32.41665)">
    <text
       xml:space="preserve"
       style="font-style:normal;font-variant:normal;font-weight:bold;font-stretch:normal;font-size:10.58333302px;line-height:1.25;font-family:sans-serif;-inkscape-font-specification:'sans-serif Bold';letter-spacing:0px;word-spacing:0px;fill:#000000;fill-opacity:1;stroke:none;stroke-width:0.26458332"
       x="150.05655"
       y="89.869026"
       id="text8811" />
    <text
       xml:space="preserve"
       style="font-style:normal;font-variant:normal;font-weight:bold;font-stretch:normal;font-size:10.58333302px;line-height:1.25;font-family:sans-serif;-inkscape-font-specification:'sans-serif Bold';letter-spacing:0px;word-spacing:0px;fill:#000000;fill-opacity:1;stroke:none;stroke-width:0.26458332"
       x="160.63989"
       y="97.806526"
       id="text8815" />
    <text
       xml:space="preserve"
       style="font-style:normal;font-variant:normal;font-weight:bold;font-stretch:normal;font-size:10.58333302px;line-height:1.25;font-family:sans-serif;-inkscape-font-specification:'sans-serif Bold';letter-spacing:0px;word-spacing:0px;fill:#000000;fill-opacity:1;stroke:none;stroke-width:0.26458332"
       x="156.86011"
       y="88.7351"
       id="text8819" />
    <flowRoot
       xml:space="preserve"
       id="flowRoot8821"
       style="font-style:normal;font-variant:normal;font-weight:bold;font-stretch:normal;font-size:40px;line-height:1.25;font-family:sans-serif;-inkscape-font-specification:'sans-serif Bold';letter-spacing:0px;word-spacing:0px;fill:#000000;fill-opacity:1;stroke:none"><flowRegion
         id="flowRegion8823"
         style="font-style:normal;font-variant:normal;font-weight:bold;font-stretch:normal;font-family:sans-serif;-inkscape-font-specification:'sans-serif Bold'" /><flowPara
         id="flowPara8827" /></flowRoot>    <flowRoot
       xml:space="preserve"
       id="flowRoot8829"
       style="font-style:normal;font-variant:normal;font-weight:bold;font-stretch:normal;font-size:40px;line-height:1.25;font-family:sans-serif;-inkscape-font-specification:'sans-serif Bold';letter-spacing:0px;word-spacing:0px;fill:#000000;fill-opacity:1;stroke:none"><flowRegion
         id="flowRegion8831"
         style="font-style:normal;font-variant:normal;font-weight:bold;font-stretch:normal;font-family:sans-serif;-inkscape-font-specification:'sans-serif Bold'" /><flowPara
         id="flowPara8835" /></flowRoot>    <flowRoot
       xml:space="preserve"
       id="flowRoot8837"
       style="font-style:normal;font-variant:normal;font-weight:bold;font-stretch:normal;font-size:40px;line-height:1.25;font-family:sans-serif;-inkscape-font-specification:'sans-serif Bold';letter-spacing:0px;word-spacing:0px;fill:#000000;fill-opacity:1;stroke:none"><flowRegion
         id="flowRegion8839"
         style="font-style:normal;font-variant:normal;font-weight:bold;font-stretch:normal;font-family:sans-serif;-inkscape-font-specification:'sans-serif Bold'" /><flowPara
         id="flowPara8843" /></flowRoot>    <text
       xml:space="preserve"
       style="font-style:normal;font-variant:normal;font-weight:bold;font-stretch:normal;font-size:10.58333302px;line-height:1.25;font-family:sans-serif;-inkscape-font-specification:'sans-serif Bold';letter-spacing:0px;word-spacing:0px;fill:#000000;fill-opacity:1;stroke:none;stroke-width:0.26458332"
       x="209.39882"
       y="107.25594"
       id="text8847" />
    <flowRoot
       xml:space="preserve"
       id="flowRoot8849"
       style="font-style:normal;font-variant:normal;font-weight:bold;font-stretch:normal;font-size:40px;line-height:1.25;font-family:sans-serif;-inkscape-font-specification:'sans-serif Bold';letter-spacing:0px;word-spacing:0px;fill:#000000;fill-opacity:1;stroke:none"><flowRegion
         id="flowRegion8851"
         style="font-style:normal;font-variant:normal;font-weight:bold;font-stretch:normal;font-family:sans-serif;-inkscape-font-specification:'sans-serif Bold'" /><flowPara
         id="flowPara8855" /></flowRoot>    <flowRoot
       xml:space="preserve"
       id="flowRoot8857"
       style="font-style:normal;font-variant:normal;font-weight:bold;font-stretch:normal;font-size:40px;line-height:1.25;font-family:sans-serif;-inkscape-font-specification:'sans-serif Bold';letter-spacing:0px;word-spacing:0px;fill:#000000;fill-opacity:1;stroke:none"><flowRegion
         id="flowRegion8859"
         style="font-style:normal;font-variant:normal;font-weight:bold;font-stretch:normal;font-family:sans-serif;-inkscape-font-specification:'sans-serif Bold'" /><flowPara
         id="flowPara8863" /></flowRoot>    <flowRoot
       xml:space="preserve"
       id="flowRoot8865"
       style="font-style:normal;font-variant:normal;font-weight:bold;font-stretch:normal;font-size:40px;line-height:1.25;font-family:sans-serif;-inkscape-font-specification:'sans-serif Bold';letter-spacing:0px;word-spacing:0px;fill:#000000;fill-opacity:1;stroke:none"><flowRegion
         id="flowRegion8867"
         style="font-style:normal;font-variant:normal;font-weight:bold;font-stretch:normal;font-family:sans-serif;-inkscape-font-specification:'sans-serif Bold'" /><flowPara
         id="flowPara8871" /></flowRoot>    <flowRoot
       xml:space="preserve"
       id="flowRoot8873"
       style="font-style:normal;font-variant:normal;font-weight:bold;font-stretch:normal;font-size:40px;line-height:1.25;font-family:sans-serif;-inkscape-font-specification:'sans-serif Bold';letter-spacing:0px;word-spacing:0px;fill:#000000;fill-opacity:1;stroke:none"><flowRegion
         id="flowRegion8875"
         style="font-style:normal;font-variant:normal;font-weight:bold;font-stretch:normal;font-family:sans-serif;-inkscape-font-specification:'sans-serif Bold'" /><flowPara
         id="flowPara8879" /></flowRoot>    <text
       xml:space="preserve"
       style="font-style:normal;font-weight:normal;font-size:10.58333302px;line-height:1.25;font-family:sans-serif;letter-spacing:0px;word-spacing:0px;fill:#000000;fill-opacity:1;stroke:none;stroke-width:0.26458332"
       x="101.02788"
       y="69.125984"
       id="text977"><tspan
         sodipodi:role="line"
         id="tspan975"
         x="101.02788"
         y="78.489754"
         style="stroke-width:0.26458332" /><tspan
         sodipodi:role="line"
         x="101.02788"
         y="91.718918"
         style="stroke-width:0.26458332"
         id="tspan979" /><tspan
         sodipodi:role="line"
         x="101.02788"
         y="104.94809"
         style="stroke-width:0.26458332"
         id="tspan981" /><tspan
         sodipodi:role="line"
         x="101.02788"
         y="118.17725"
         style="stroke-width:0.26458332"
         id="tspan983" /><tspan
         sodipodi:role="line"
         x="101.02788"
         y="131.40642"
         style="stroke-width:0.26458332"
         id="tspan985" /><tspan
         sodipodi:role="line"
         x="101.02788"
         y="144.63559"
         style="stroke-width:0.26458332"
         id="tspan987" /><tspan
         sodipodi:role="line"
         x="101.02788"
         y="157.86475"
         style="stroke-width:0.26458332"
         id="tspan989" /><tspan
         sodipodi:role="line"
         x="101.02788"
         y="171.09392"
         style="stroke-width:0.26458332"
         id="tspan991" /><tspan
         sodipodi:role="line"
         x="101.02788"
         y="184.32309"
         style="stroke-width:0.26458332"
         id="tspan993" /><tspan
         sodipodi:role="line"
         x="101.02788"
         y="197.55225"
         style="stroke-width:0.26458332"
         id="tspan995" /><tspan
         sodipodi:role="line"
         x="101.02788"
         y="210.78142"
         style="stroke-width:0.26458332"
         id="tspan997" /><tspan
         sodipodi:role="line"
         x="101.02788"
         y="224.01059"
         style="stroke-width:0.26458332"
         id="tspan999" /><tspan
         sodipodi:role="line"
         x="101.02788"
         y="237.23975"
         style="stroke-width:0.26458332"
         id="tspan1001" /><tspan
         sodipodi:role="line"
         x="101.02788"
         y="250.46892"
         style="stroke-width:0.26458332"
         id="tspan1003" /><tspan
         sodipodi:role="line"
         x="101.02788"
         y="263.69809"
         style="stroke-width:0.26458332"
         id="tspan1005" /><tspan
         sodipodi:role="line"
         x="101.02788"
         y="276.92725"
         style="stroke-width:0.26458332"
         id="tspan1007" /><tspan
         sodipodi:role="line"
         x="101.02788"
         y="290.1564"
         style="stroke-width:0.26458332"
         id="tspan1009" /><tspan
         sodipodi:role="line"
         x="101.02788"
         y="303.38559"
         style="stroke-width:0.26458332"
         id="tspan1011" /><tspan
         sodipodi:role="line"
         x="101.02788"
         y="316.61475"
         style="stroke-width:0.26458332"
         id="tspan1013" /><tspan
         sodipodi:role="line"
         x="101.02788"
         y="329.8439"
         style="stroke-width:0.26458332"
         id="tspan1015" /><tspan
         sodipodi:role="line"
         x="101.02788"
         y="343.07309"
         style="stroke-width:0.26458332"
         id="tspan1017" /><tspan
         sodipodi:role="line"
         x="101.02788"
         y="356.30225"
         style="stroke-width:0.26458332"
         id="tspan1019" /><tspan
         sodipodi:role="line"
         x="101.02788"
         y="369.5314"
         style="stroke-width:0.26458332"
         id="tspan1021" /><tspan
         sodipodi:role="line"
         x="101.02788"
         y="382.76059"
         style="stroke-width:0.26458332"
         id="tspan1023" /></text>
  </g>
</svg>
