<svg id="Layer_1" data-name="Layer 1" xmlns="http://www.w3.org/2000/svg" viewBox="0 0 1000 1000">
  <defs>
    <style>
      .cls-1 {
        font-size: 150px;
        font-family: FreeSansBold, FreeSans;
      }

      .cls-1, .cls-29 {
        fill: #231f20;
      }

      .cls-2 {
        letter-spacing: -0.01em;
      }

      .cls-3 {
        fill: #ed1c24;
        letter-spacing: 0em;
      }

      .cls-17, .cls-4, .cls-6 {
        fill: #fff;
      }

      .cls-4 {
        stroke: #e1e4f3;
      }

      .cls-11, .cls-12, .cls-14, .cls-20, .cls-22, .cls-23, .cls-28, .cls-4, .cls-5, .cls-6, .cls-7, .cls-8, .cls-9 {
        stroke-miterlimit: 10;
      }

      .cls-11, .cls-12, .cls-14, .cls-20, .cls-22, .cls-23, .cls-28, .cls-4, .cls-5, .cls-7, .cls-8, .cls-9 {
        stroke-width: 3px;
      }

      .cls-5 {
        fill: #fed2a5;
        stroke: #d7a57c;
      }

      .cls-6 {
        stroke: #c2c1c0;
      }

      .cls-7 {
        fill: #69be54;
        stroke: #4ead48;
      }

      .cls-8 {
        fill: #ffebd1;
        stroke: #f2d6b7;
      }

      .cls-9 {
        fill: #7cc46f;
        stroke: #54aa47;
      }

      .cls-10 {
        fill: #f48a99;
      }

      .cls-11 {
        fill: #f48b95;
        stroke: #ef6579;
      }

      .cls-12, .cls-14 {
        fill: #332d27;
      }

      .cls-12 {
        stroke: #333;
      }

      .cls-13 {
        fill: #e9bf98;
      }

      .cls-14 {
        stroke: #1e1e1e;
      }

      .cls-15 {
        fill: #b2aeb0;
      }

      .cls-16 {
        fill: #191818;
      }

      .cls-18 {
        fill: #e39ba5;
      }

      .cls-19 {
        fill: #e3849c;
      }

      .cls-20 {
        fill: #29292b;
        stroke: #1a1a1c;
      }

      .cls-21 {
        fill: #1d1d1e;
      }

      .cls-22 {
        fill: #ebf7fe;
        stroke: #c8cccd;
      }

      .cls-23 {
        fill: #3354a5;
        stroke: #1e4399;
      }

      .cls-24 {
        fill: #393e44;
      }

      .cls-25, .cls-28 {
        fill: #33383c;
      }

      .cls-26 {
        fill: #d491a8;
      }

      .cls-27 {
        fill: #d17d9d;
      }

      .cls-28 {
        stroke: #2c2b2a;
      }

      .cls-30 {
        fill: #393d40;
      }
    </style>
  </defs>
  <title>wed</title>
  <text class="cls-1" transform="translate(40.11 802.26)">w + ed = <tspan class="cls-2" x="633.75" y="0">w</tspan><tspan class="cls-3" x="748.95" y="0">ed</tspan></text>
  <g>
    <path class="cls-4" d="M232,623.58S282.85,513,326.3,495s99.5,0,99.5,0,55.15,39.09,82.29,103.9l6.78,17.82Z"/>
    <path class="cls-5" d="M356.48,286.16s2.36,36.87-3.54,42.47S308.11,339.84,294.55,349s-26.55,31-38.94,75.8-23.3,92.32-18.87,103.82,74.91,47.2,84.35,51.62,29.5,10.91,37.46,12.39,38.05-16.81,21.23-23.3-94.67-33-104.11-58.11l25.66-94.68,17.11,17.41s74,25.07,74.91,24.77,50.73-28.9,50.73-28.9l2.66-.89s10.32,58.11,16.81,64,52.5-8.26,70.2-19.47-3.25-38.05-3.25-38.05l-9.91,12.09-31.38,9.15s-10.32-66.37-13-76.39-12.39-26.25-33-36.87-39.82-9.14-44.54-20.06-.59-41-.59-41Z"/>
    <path class="cls-4" d="M323.75,505l-4.43-6.86s11.95-15.93,11.28-23S316,453.69,310.25,444s-9.78-24.24-9.78-24.24,4.23-30.61,15.08-36.15,44.69-1.54,60.18,18.81c0,0,25-31,65.7-18.14,0,0,11.63,26.82,5.59,46.26s-19.75,27-21.3,35.36,2.21,23.45,4.65,28.54S426.16,505,426.16,505L360,510.54Z"/>
    <circle class="cls-6" cx="409.94" cy="331.32" r="3.69"/>
    <circle class="cls-6" cx="408.39" cy="338.22" r="3.69"/>
    <circle class="cls-6" cx="405.3" cy="344.71" r="3.69"/>
    <circle class="cls-6" cx="401.4" cy="350.69" r="3.69"/>
    <circle class="cls-6" cx="397.76" cy="357.09" r="3.69"/>
    <circle class="cls-6" cx="391.95" cy="362.17" r="3.69"/>
    <circle class="cls-6" cx="385.81" cy="366.49" r="3.69"/>
    <circle class="cls-6" cx="370.35" cy="367.34" r="3.69"/>
    <circle class="cls-6" cx="363.32" cy="363.73" r="3.69"/>
    <circle class="cls-6" cx="356.94" cy="358.51" r="3.69"/>
    <circle class="cls-6" cx="352.15" cy="352.58" r="3.69"/>
    <circle class="cls-6" cx="348.31" cy="346.22" r="3.69"/>
    <circle class="cls-6" cx="344.52" cy="339.84" r="3.69"/>
    <circle class="cls-6" cx="341.5" cy="333.11" r="3.69"/>
    <ellipse class="cls-7" cx="378.26" cy="374.36" rx="6.49" ry="8.63" transform="translate(-19.84 21.18) rotate(-3.12)"/>
    <path class="cls-4" d="M331.71,396.17s34.21,1.77,43.5,15.78c0,0,18-14.45,40-16.51"/>
    <path class="cls-4" d="M409.2,441.67c-21.4-2.82-33.32-21.48-33.32-21.48s-15.21,19.71-38.94,21.92"/>
    <path class="cls-4" d="M338.05,453.84s24.78-4,37.61-25.52A73.45,73.45,0,0,0,409.13,453"/>
    <g>
      <path class="cls-8" d="M340.84,606.76s11.87,0,16.63,4.34-.49,5.18,7.23,7.83,7.49,4.65,16.56,5.09,2.27.66,13.08,0,5.84,5.31,16.51-4.43,8.47-8.77,14.43-13.68,7.42-4.75,10.4-11,4.86-8.73,5.53-19.8,2-13.49,1.32-21.47,2.07-9.28-2.83-17.69-3.16-11.82-12.67-16.41-8.23-4.66-20.69-6.49-18.24-3.54-31.73-1.61-25,1.71-29.63,3.7-9.28,2.44-13.37,8-9.27,8.73-11.21,14.85-5.28,9.35-5.5,14.39-1.33,8.5,0,15,1.1,8.39,3.54,15.39,0,5,4.74,13,4.94,8.91,7,10.21S340.84,606.76,340.84,606.76Z"/>
      <path class="cls-9" d="M421,556.33c.66-.44,20.13-9.59,38.27,9.69,0,0-6.2,16-28.1,17.18s-27.93-23.73-27.93-23.73l18.66,34.33s14.8,5.89,14.58,22.48V622s-16.15,5.48-36.5-16.17l-9.37,6.34s9,14.25-10.92,33.5c0,0-20.54-17.51-3.29-41l-17.12-6.17s-.66,25.66-36.06,23.67c0,0-.54-33.38,17.54-37.15l-1.47-30.39S323,533.1,324.51,509.65c0,0,28.59-2.18,40.07,16.83s22.55,9.88,22.55,9.88l21.88-11s-2.65-11.76,25-13.76c0,0-2.43,23.23-8.85,21.9S421,556.33,421,556.33Z"/>
      <g>
        <path class="cls-10" d="M406.48,575.35s6.19-6.85,9.73-6.19,8.18,2.43,10,6.19,5.09,6.64.89,9.29-2.66,9.07-11.06,4.43S405.37,579.11,406.48,575.35Z"/>
        <path class="cls-11" d="M399.4,570.71c1.11-.72,7.3,3.09,10.17,6.63s6.64,7.52,6.42,11.73-.44,8.85-1.11,10.17,1.34,10.84-7.18,1.33-11.4-7.52-12.95-14.82S396.3,572.7,399.4,570.71Z"/>
        <path class="cls-11" d="M400.06,572s3.54-7.3,9.51-9.07,10-4.86,15.27-2.65,8.4,4.65,9.29,7.52,1.55,5.31,1.55,5.31-10.84,2.21-18,2S402.94,574.91,400.06,572Z"/>
        <path class="cls-11" d="M437,571.81s-10.17,1.11-10.84,3.54-1.77,4-3.53,7.52-3.77,2.85-4.76,7.84-2.77,6.07-3,8.53-.51,4.4-.51,4.4,13.12-3.95,16.88-7.94,8.19-4.86,8.41-10.84S439.18,573.46,437,571.81Z"/>
      </g>
      <g>
        <path class="cls-10" d="M403.34,547.92s-3.69-8.47-1.62-11.42,5.6-6.45,9.76-6.51,8.14-1.89,8.82,3,7.16,6.16-.54,11.9S406.31,550.48,403.34,547.92Z"/>
        <path class="cls-11" d="M396.18,552.45c-.19-1.32,5.84-5.37,10.25-6.53s9.59-2.93,13.33-1,7.87,4.06,8.81,5.21,10.42,3.26-1.76,7.09-11.56,7.27-18.85,5.66S396.72,556.09,396.18,552.45Z"/>
        <path class="cls-11" d="M397.67,552.39s-5.19-6.24-4.33-12.41-.32-11.07,3.89-15,7.7-5.74,10.69-5.36,5.47.79,5.47.79-2.46,10.78-5.63,17.24S401.47,551,397.67,552.39Z"/>
        <path class="cls-11" d="M412.73,518.66s-3.2,9.72-1.25,11.33,2.89,3.26,5.38,6.34,1,4.59,5.17,7.57,4.39,5,6.54,6.24,3.79,2.29,3.79,2.29,1.82-13.59-.25-18.66-1.05-9.46-6.4-12.13S415.14,517.36,412.73,518.66Z"/>
      </g>
      <g>
        <path class="cls-10" d="M372.43,534.32s-7.08-5.94-6.55-9.5,2.12-8.27,5.81-10.18,6.45-5.33,9.26-1.23,9.16,2.31,4.83,10.89S376.23,535.28,372.43,534.32Z"/>
        <path class="cls-11" d="M368.05,541.56c-.76-1.09,2.83-7.41,6.25-10.41s7.27-6.92,11.48-6.85,8.86.11,10.21.72,10.78-1.74,1.6,7.13-7.09,11.67-14.33,13.49S370.16,544.58,368.05,541.56Z"/>
        <path class="cls-11" d="M369.36,540.85s-7.43-3.26-9.42-9.17-5.24-9.76-3.23-15.15S361,508,363.88,507s5.25-1.75,5.25-1.75,2.61,10.74,2.66,17.94S372.12,537.87,369.36,540.85Z"/>
        <path class="cls-11" d="M367.75,503.94s1.49,10.13,3.94,10.7,4.05,1.62,7.65,3.26,3,3.65,8,4.46,6.18,2.53,8.64,2.66,4.42.35,4.42.35-4.45-13-8.57-16.57-5.17-8-11.14-8S369.32,501.71,367.75,503.94Z"/>
      </g>
      <g>
        <path class="cls-10" d="M336.72,551.66s-7.08-5.93-6.55-9.5,2.12-8.27,5.81-10.17,6.44-5.34,9.25-1.24,9.17,2.32,4.84,10.89S340.52,552.62,336.72,551.66Z"/>
        <path class="cls-11" d="M332.34,558.91c-.76-1.09,2.82-7.41,6.25-10.42s7.27-6.91,11.48-6.85,8.86.11,10.21.73,10.78-1.74,1.59,7.13-7.09,11.67-14.32,13.49S334.45,561.93,332.34,558.91Z"/>
        <path class="cls-11" d="M333.64,558.19s-7.42-3.26-9.42-9.16S319,539.26,321,533.87s4.33-8.57,7.17-9.56,5.25-1.75,5.25-1.75,2.61,10.75,2.66,17.94S336.41,555.21,333.64,558.19Z"/>
        <path class="cls-11" d="M332,521.29s1.49,10.12,3.94,10.7,4,1.62,7.65,3.25,3,3.65,8,4.46,6.17,2.54,8.64,2.67,4.42.35,4.42.35-4.45-13-8.57-16.58-5.17-8-11.15-8S333.61,519.05,332,521.29Z"/>
      </g>
      <g>
        <path class="cls-10" d="M342.66,594s-7.09-5.93-6.56-9.49,2.13-8.27,5.82-10.18,6.44-5.33,9.25-1.23,9.16,2.31,4.84,10.88S346.46,595,342.66,594Z"/>
        <path class="cls-11" d="M338.28,601.26c-.76-1.09,2.82-7.41,6.25-10.42S351.8,583.93,356,584s8.85.12,10.21.73,10.78-1.74,1.59,7.13-7.09,11.67-14.33,13.49S340.38,604.28,338.28,601.26Z"/>
        <path class="cls-11" d="M339.58,600.55s-7.43-3.27-9.42-9.17-5.23-9.76-3.22-15.15,4.33-8.58,7.17-9.57,5.24-1.74,5.24-1.74S342,575.66,342,582.86,342.35,597.57,339.58,600.55Z"/>
        <path class="cls-11" d="M338,563.64s1.48,10.13,3.94,10.7,4,1.62,7.65,3.25,3,3.66,8,4.46,6.17,2.54,8.64,2.67,4.41.35,4.41.35-4.44-13-8.56-16.58-5.17-8-11.15-8S339.55,561.4,338,563.64Z"/>
      </g>
      <g>
        <path class="cls-10" d="M378.37,610.16s-7.09-5.93-6.56-9.49,2.13-8.27,5.82-10.18,6.44-5.34,9.25-1.23,9.16,2.31,4.84,10.88S382.17,611.13,378.37,610.16Z"/>
        <path class="cls-11" d="M374,617.41c-.76-1.09,2.82-7.41,6.25-10.42s7.27-6.91,11.48-6.85,8.86.11,10.21.73,10.78-1.74,1.59,7.13-7.09,11.67-14.32,13.49S376.09,620.43,374,617.41Z"/>
        <path class="cls-11" d="M375.29,616.7s-7.43-3.27-9.42-9.17-5.23-9.77-3.22-15.15,4.33-8.58,7.17-9.57,5.24-1.75,5.24-1.75,2.62,10.75,2.67,17.94S378.06,613.71,375.29,616.7Z"/>
        <path class="cls-11" d="M373.69,579.79s1.48,10.13,3.94,10.7,4.05,1.62,7.65,3.25,3,3.65,8,4.46,6.17,2.54,8.64,2.67,4.41.35,4.41.35-4.44-13-8.56-16.58-5.17-8-11.15-8S375.26,577.55,373.69,579.79Z"/>
      </g>
      <g>
        <path class="cls-10" d="M368.59,553.81s6.2-6.86,9.74-6.2,8.18,2.43,9.95,6.2,5.09,6.63.89,9.29-2.66,9.07-11.06,4.42S367.49,557.57,368.59,553.81Z"/>
        <path class="cls-11" d="M361.52,549.16c1.11-.72,7.3,3.1,10.17,6.64s6.64,7.52,6.42,11.72-.45,8.85-1.11,10.18,1.34,10.84-7.18,1.32-11.4-7.52-12.95-14.82S358.42,551.15,361.52,549.16Z"/>
        <path class="cls-11" d="M362.18,550.49s3.54-7.3,9.51-9.07,10-4.87,15.26-2.66,8.41,4.65,9.3,7.52,1.54,5.31,1.54,5.31-10.83,2.22-18,2S365.05,553.36,362.18,550.49Z"/>
        <path class="cls-11" d="M399.12,550.27s-10.17,1.1-10.84,3.54-1.77,4-3.54,7.52-3.76,2.84-4.75,7.83-2.77,6.08-3,8.54-.52,4.4-.52,4.4,13.13-4,16.89-7.94,8.18-4.87,8.41-10.84S401.3,551.92,399.12,550.27Z"/>
      </g>
    </g>
    <g>
      <path class="cls-5" d="M447.32,225.8s1.05,41.64-7.85,54.86-32.86,29.16-38.89,32-17.64,8-42.26-.52-35.08-22-40.34-28.53-12.08-29.2-12.08-29.2-12.94,1.78-17.68-2.28-7.53-11.82-6.26-20.46,3.21-20.91,13.23-20.89,23.35-12.64,23.35-12.64l64.14-62.06,48.37.74,17.23,53.89Z"/>
      <path class="cls-12" d="M313.07,124.72s-11.63-27.65,9.32-47.39,51.22-21,59.41-17.51S401.73,72.68,405.19,83s.71,22.8.71,22.8Z"/>
      <path class="cls-13" d="M447.32,233.94s-13.38-20.66-16.7-25.45S416.54,191.88,414,186.56s-19.32-32.06-20.45-34.69,7.51-3.93,5.71-4.64-1.18,1.12-1.18,1.12,20.19,4.51,20.82,6.36,18.54,41.48,19.1,41.94,13.94,12.13,13.94,12.13Z"/>
      <path class="cls-13" d="M401.58,159s1.22-6.6-1.53-7.5-5.15,1.67-8.5,4.06-11.23,22.33-15.82,26.17-21.7,19.48-24.87,20.88-25.31,5.73-25.31,5.73l22.08-32.07,34.54-29.5,19.53-4.18Z"/>
      <path class="cls-14" d="M305.78,241.07c.06.75-8.48-31.2-8.48-31.2s-12.12,7.43-13.4,12a92.2,92.2,0,0,0-2.14,16.34c.17.71-10.24-16.5-9.5-32.78s1.92-29.73,6-41.55,21.11-53.15,58.77-66.25,68.28-2,75.33,1.86,42.76,29.38,47.67,55.38a179.51,179.51,0,0,1,1.72,50.34s10.32,10.69,15.73,11.12c0,0-13.49,3-17.48,1.87,0,0-5.57,21.44-11.4,25,0,0-2.36.54-2.3.21s-3.44-30.49-3.44-30.49-42.23-51.8-43.81-53.56c-1.87-2.1-6.65-13-8.95-12.8S386,160.08,377,174s-32.4,33.7-45.65,37.13-21.22,1.09-21.22,1.09S305.58,238.63,305.78,241.07Z"/>
      <path class="cls-14" d="M460,218.16s-15.21-3.83-17.45-5.49"/>
      <path class="cls-14" d="M461.79,205.17s-13.9-17.59-15.55-26.15"/>
      <path class="cls-15" d="M398.85,80.42s-7.36-15.35-20.92-17.06-18.52-1.51-23.66,1.55-15.07,7.52-19.46,12S321,92.1,319.44,95.78c0,0,25.61-26.44,40.92-27.21S381,70,385.92,72.36,398.85,80.42,398.85,80.42Z"/>
      <ellipse class="cls-16" cx="411.83" cy="217.36" rx="7.72" ry="8.17"/>
      <ellipse class="cls-17" cx="415.46" cy="216.95" rx="2.05" ry="2.17"/>
      <ellipse class="cls-16" cx="354.74" cy="214.81" rx="7.72" ry="8.17"/>
      <ellipse class="cls-17" cx="358.38" cy="214.4" rx="2.05" ry="2.17"/>
      <path class="cls-14" d="M399.88,197.17s5.71-4.64,10.63-3.28a30.15,30.15,0,0,1,6.67,2.41s-2.95-6.78-7.56-6.36-8,3.14-8.94,4.66A4.48,4.48,0,0,0,399.88,197.17Z"/>
      <path class="cls-14" d="M359.23,194.94s-6.61-2.74-9.78-1.34a24.41,24.41,0,0,0-6.58,4.12c-.43.6,1.53-6.53,6.19-7.28S358.23,193.36,359.23,194.94Z"/>
      <path class="cls-5" d="M381.93,233.18s4.6-2.14,6.35.62,1.4,6.45-1.21,6.6-4.55.09-4.55.09"/>
      <path class="cls-18" d="M410.24,273.5s-42.72-3.34-57.61-6.76c0,0-2.26,2.8,1.82,10.49s15.74,12.84,20.79,13.54,17.69,2.29,23.89-1.57,9.36-8.68,10.34-12.24S410.24,273.5,410.24,273.5Z"/>
      <path class="cls-19" d="M407.19,280.6s-6.07,8.33-13.09,9.62-17.55.48-23.35-1.4-13.3-8.57-14.11-9.42a6.91,6.91,0,0,1-1.25-2S390.6,274.09,407.19,280.6Z"/>
      <path class="cls-13" d="M303.07,247s-2.52-7.37-4.89-8.54-2.38-2.89-1.52-5.79S298,220,295,219s-7.77,1.82-8.45,3.73a27.56,27.56,0,0,0-1,5.28s3.64-5.75,5.45-5,3.62,1.44,3.38,4.47-1,7.32-.39,9.16,2.63,3.28,3.82,5.58S303.07,247,303.07,247Z"/>
      <path class="cls-15" d="M278.74,179s17.76-50.77,34.2-62.78,34.78-18.49,44.73-19.86,27.38-2.9,37.1.48,17.89,6.43,21.83,9.64,10.94,10.82,10.94,10.82S379.72,99.55,361,104.58s-24.06,6-35.67,14.55-16.42,15.43-23,28.45S278.74,179,278.74,179Z"/>
    </g>
  </g>
  <g>
    <path class="cls-5" d="M495.42,579.67s-1.26,8.16-2.51,15.7.63,13.82,4.4,12.57c0,0,5,5.65,10.67,1.25,0,0,8.8,6.28,12.57.63,0,0,10.68,5,11.3-1.88,0,0,0-9.43,1.89-10.68s4.4,0,3.14-10S504.21,569,495.42,579.67Z"/>
    <g>
      <path class="cls-5" d="M789.12,583.57s1.21,8.13,2.42,15.63-.6,13.76-4.24,12.51c0,0-4.85,5.63-10.31,1.25,0,0-8.48,6.26-12.12.63,0,0-10.31,5-10.91-1.88,0,0,0-9.38-1.82-10.63s-4.24,0-3-10S780.63,572.93,789.12,583.57Z"/>
      <path class="cls-20" d="M540.52,606.83S559,647,634.74,637l5.66-.62s43.27,11.88,97.36-28.9c0,0-7.17-170.15-5.5-180.14,0,0,10.15,58.14,11.16,65.18,1.25,8.8,1.66,101.25,1.66,101.25l47.44-6.66s-.1-81.39-5.13-113.43c-4.88-31.12-29.33-121.23-32.66-127.89s-20.81-20-52.43-26.63-126.49-3.33-134,0-46.6,15-49.09,18.31-13,43.88-17,55.17c-3.36,9.48-13,78.37-13.82,86.69s-3.14,116.21-3.14,116.21l50.88,4.4s0-99.25.63-104.28c.55-4.44,0-42.06,7.54-70.35l-2.52,95.48C541.2,542.65,540.52,606.83,540.52,606.83Z"/>
      <path class="cls-21" d="M767.6,404.87c0-.83-10.38-47.45-13.7-52.44s-11.66-13.32-20-17.48S699,324.13,699,324.13s-11.65,25-10.82,25,42.44-6.66,49.93.83S767.6,404.87,767.6,404.87Z"/>
      <path class="cls-21" d="M567.49,339.11c-5,0-35.78,8.32-37.45,10.82s-22.52,48.29-25,54.94,13.36-62.43,17.53-65.76,42.44-13.31,48.26-15S567.49,339.11,567.49,339.11Z"/>
      <path class="cls-22" d="M683.74,320.38s-12.56,92.35-14.45,104.91-29.52,60.93-29.52,60.93l-8.8,8.17s-22.61-50.26-34.55-71.61-12.22-79.93-12.56-83.55,16.33-11.94,16.33-11.94L667.41,311Z"/>
      <polygon class="cls-23" points="622.41 354.92 613.39 465.49 630.35 492.5 642.91 486.22 656.73 469.89 656.73 462.35 642.39 352.43 622.41 354.92"/>
      <path class="cls-23" d="M614.92,349.93s4.17,10,8.33,10.82,17.47,5.82,27.46-8.32-5.83-20.81-23.3-18.31S614.92,349.93,614.92,349.93Z"/>
      <path class="cls-5" d="M600.51,303.11s5,27.64,13.82,30.78,22,5,36.43-4.4,23.24-20.1,20.1-26.38S600.51,303.11,600.51,303.11Z"/>
      <path class="cls-22" d="M668.18,307.49s-23.3,24.13-34.95,22.47-27.11-11.19-30-18.31c-3.32-8.32-6.22-4.46-11.24-1.32s-14.55,18.8-12.06,26.29,30,30.79,31.63,30.79,20-31.63,21.63-32.46,16.65,30.79,19.14,32.46,24.13-11.66,29.13-22.47,6-26.9-4-32.72S668.18,307.49,668.18,307.49Z"/>
      <path class="cls-21" d="M543.34,565.06s-3.14,37.06,0,40.83,29.53,22,42.72,25.13,42.72-.63,46.48,0,9.43,1.88,15.71,1.25,42.09.63,63.45-14.45,21.35-17,21.35-18.84-1.88-44.6-1.88-44.6-9.42,42.71-32,49.62-49,10.68-71,6.91-45.23-.62-58.42-13.82S543.34,565.06,543.34,565.06Z"/>
      <path class="cls-20" d="M640.4,636.36s2.26-122-4.4-142"/>
      <path class="cls-20" d="M678.09,320.38s2.58,13.74-4.08,43.7-22.34,87.66-27.33,97.64-12.56,30.78-12.56,30.78l-1.89.63,3.14,5.66s31.74-35,50.88-71.62,23.64-38.77,19.48-44.6-22.58-4.43-17.59-9.42,27.65-14.48,30.15-19.47S715.11,325,703.21,318.5c-13.82-7.54-17.19-6.91-21.35-6.91S676.42,315.39,678.09,320.38Z"/>
      <path class="cls-20" d="M588.26,313.47s-1.63,19.82,2.53,48.11,25.65,91.59,44,129c0,0,2.65,9.1,1.82,10.76s-32.47-41.44-45.79-57.25-31.41-44-31.41-49,22.19-21.6,21.36-25.76-29.3-9.89-27.64-18.22,5.94-21,17.59-30.15S588.26,313.47,588.26,313.47Z"/>
      <path class="cls-20" d="M659,542.16s-.83,17.47,1.66,17.47,58.25-7.49,60.75-10,.83-15-1.66-15.81S659,541.33,659,542.16Z"/>
      <path class="cls-20" d="M614.09,559.63c0-.83,4.16-15,.83-16.64s-54.92-5.82-55.75-5-4.16,15-2.5,15.81S614.09,560.47,614.09,559.63Z"/>
      <circle class="cls-20" cx="628.33" cy="530.16" r="6.32"/>
      <path class="cls-21" d="M492.46,592.7c.83,0,35.82,5.21,38.32,1.88S533.05,539,533.05,539s-16.65,31.63-25,38.28-20.64,14.78-20.64,14.78Z"/>
      <path class="cls-21" d="M788.36,583.77s-11.65,4.16-21.64,4.16-18.31,3.33-19.14,1.66-.08-84.65-.08-88,.08,67.18,11.73,73.83S788.36,583.77,788.36,583.77Z"/>
      <g>
        <g>
          <path class="cls-5" d="M532.08,216.93s-17.53,7.34-17.85,19.13,6.37,24.86,17.85,26.78,13.71,0,13.71,0,11.47,33.79,45.9,44.63S659.91,310,659.91,310s29.64-10.52,49.09-32.2c0,0,8.6-9.88,12.11-18.81,0,0,21.68-.32,30.6-11.47s7.33-22,4.78-26.14-8.92-11.8-15.94-12.43-14-56.75-14-56.75l-56.42-17.85-41.76,8.93H550.89l-13.07,50Z"/>
          <path class="cls-13" d="M538.54,207.69s13.67-32.2,22-34.75,21-3.5,28-.63,23,.6,29.65,2.19,22.56.89,24.23.57,50.43-7.86,55.1-7.54,14,1.27,18.33,5.73,11.66,19.77,13.33,29,15-25.5,15-25.5,6.33-35.7-8.67-39.53-83.31-13.07-83.31-13.07L550.87,141.7l-14.33,41.13Z"/>
          <path class="cls-24" d="M551.84,132.46s1-20.08,3.51-18.49,1.59,7,10.52,8,11.79-4.46,15.94-5.74,4.14,0,12.43,1.6,15.94-5.42,19.76-6.38,6.06-.64,16.58,1,8.61.64,17.85,1.59,28.37,5.42,34.43,3.83,7.33-9.88,7.33-9.88-2.87,7,5.1,12.11,9.56-5.1,14-1.91,4.14,4.14,7.33,7,3.82,7.33,12.11,6.06,8.61-4.47,13.07-1.92,6.69,12.12,7.33,13.71,0,10.52,0,10.52-8-9.88-24.54-15.3-20.41-7.33-34.43-9.88-30.28-6.38-40.48-5.42-23.59,4.46-30.61,5.1-17.85-1.28-25.82-1.92-17.85,0-22.31,1.92S551.84,132.46,551.84,132.46Z"/>
          <path class="cls-25" d="M570.33,201.31s6.7-5.73,9.88-5.1a17.25,17.25,0,0,1,7.33,3.51l1.92,1.91s-1.6-6.69-6.38-7.65-9.24,1-10.2,2.55S570.33,201.31,570.33,201.31Z"/>
          <path class="cls-25" d="M663.73,200.68s4.46-4.47,7.65-4.15,3.83-.32,5.74,1.6,3.19,3.5,3.19,3.5-1.92-7.65-5.42-8.28-7,.31-7.65,1.27S663.73,200.68,663.73,200.68Z"/>
          <path class="cls-26" d="M584.68,268.42l97.22-.67s2.87,14.53-10.2,21-34.43,10.43-51.32,8.43-30-8.43-32.52-14.86A56.23,56.23,0,0,1,584.68,268.42Z"/>
          <path class="cls-27" d="M595.51,285.12s11.8,8,23,10.52,28-.95,30-1.59,13.39-4.46,15.62-6.06,6.38-3.5,7.33-5.1C671.38,282.89,613.05,274.6,595.51,285.12Z"/>
          <path class="cls-5" d="M631.22,239.89s-3.19-1.92-4.79-.64-2.23,4.46.64,5.42a15.17,15.17,0,0,0,3.83,1"/>
          <path class="cls-13" d="M729.88,248.65a41.15,41.15,0,0,0,4.78-5.1c2.55-3.19,4.78-3.19,7-6.05s-.32-1.28-1.91-4.47,0-9.56,1.59-10.84,1-3.82,4.78-1.59a14.57,14.57,0,0,1,6.06,6.38c.32,1-2.23-.64-3.51-1.6s-4.14-1.59-4.78,1-1.27,4.78,0,7-.32,6.06-1.59,8-5.42,3.83-6.38,4.78S729.88,248.65,729.88,248.65Z"/>
          <path class="cls-13" d="M539.89,254.07s-1.6-4.78-3.51-6.06-5.1,2.87-4.46-2.55,1.91-3.82,0-8-2.87-7-4.46-6.38-5.1,3.51-5.42,6.69a40.88,40.88,0,0,0,0,6.7s1.91-7.33,3.82-7.65,3.83-.64,3.51,3.19-.32,7.65,1,8.92,4.46,2.55,5.73,3.51A13.75,13.75,0,0,0,539.89,254.07Z"/>
          <path class="cls-28" d="M731.15,214.86s-11.79-35.38-11.79-49.09c0,0-135.48,8-157.48-3.19,0,0-12.75,32.84-17.21,34.75s-4.62,9.72-6.53,12.59a52.33,52.33,0,0,1-6.22,6.86s-8.29,6.37-8.29,4.46-8-45-6.69-52.92,4.78-22,7.33-23.59c0,0-10.84-22.63-4.46-39.21s14-19.76,14-19.76,15,25.82,22.63,25.82,62.16-23,82.25-20.08,69.49,9.56,80.33,15.94,13.39,13.07,13.39,13.07,22.63,8.92,26.14,19.12-8,35.71-9.25,41.76-4,28.8-5.34,28.42-9.64,8.56-9,11.43S731.15,214.86,731.15,214.86Z"/>
          <circle class="cls-29" cx="580.52" cy="222.55" r="9.08"/>
          <circle class="cls-17" cx="575.98" cy="219.25" r="2.14"/>
          <circle class="cls-29" cx="671.44" cy="223.63" r="9.08"/>
          <circle class="cls-17" cx="666.9" cy="220.32" r="2.14"/>
        </g>
        <path class="cls-30" d="M530.86,98.45s6.19,15.21,7.32,18,7.89,11.84,15.21,11.84,19.16-1.13,29.86-7.33,27.61-11.27,37.19-11.83,20.84-2.82,32.11-3.38,45.64,5.63,52.4,9,18.59,11.27,19.72,13.53,7.62-2,11.41.95,9.43,7.5,11.69,13.69,11.83,11.84,6.19,2.26-14.08-19.72-19.15-20.85-5.64-5.07-11.83-9-18-8.45-32.12-11.27-37.18-5.63-48.45-5.63-2.82-2.82-22.54,2.25-36,13-43.94,15.21-19.16,5.07-24.79,0S537.05,97.32,534.8,96.19s-3.94-5.07-3.94-5.07Z"/>
      </g>
    </g>
  </g>
</svg>
