<?xml version="1.0" encoding="UTF-8" standalone="no"?>
<!-- Created with Inkscape (http://www.inkscape.org/) -->

<svg
   xmlns:dc="http://purl.org/dc/elements/1.1/"
   xmlns:cc="http://creativecommons.org/ns#"
   xmlns:rdf="http://www.w3.org/1999/02/22-rdf-syntax-ns#"
   xmlns:svg="http://www.w3.org/2000/svg"
   xmlns="http://www.w3.org/2000/svg"
   xmlns:sodipodi="http://sodipodi.sourceforge.net/DTD/sodipodi-0.dtd"
   xmlns:inkscape="http://www.inkscape.org/namespaces/inkscape"
   width="1000"
   height="1000"
   viewBox="0 0 264.58333 264.58334"
   version="1.1"
   id="svg2383"
   inkscape:version="0.92.5 (2060ec1f9f, 2020-04-08)"
   sodipodi:docname="study.svg"
   enable-background="new">
  <defs
     id="defs2377">
    <clipPath
       clipPathUnits="userSpaceOnUse"
       id="clipPath220">
      <path
         d="m 24264.5,11588.5 c -409.8,0 -813.3,52.7 -1159.9,166.6 3.8,45 7.4,89.1 10.9,133 336.4,-114.1 738.6,-165.9 1147.5,-165.9 260.9,0 524.6,21.1 775.6,60.6 7.4,-44.9 15.5,-88.5 24.3,-130.2 -258.1,-41.7 -529.2,-64.1 -798.4,-64.1"
         id="path218"
         inkscape:connector-curvature="0" />
    </clipPath>
  </defs>
  <sodipodi:namedview
     id="base"
     pagecolor="#ffffff"
     bordercolor="#666666"
     borderopacity="1.0"
     inkscape:pageopacity="0.0"
     inkscape:pageshadow="2"
     inkscape:zoom="0.70710678"
     inkscape:cx="319.40352"
     inkscape:cy="401.13407"
     inkscape:document-units="px"
     inkscape:current-layer="g350"
     showgrid="false"
     units="px"
     inkscape:window-width="1920"
     inkscape:window-height="1031"
     inkscape:window-x="0"
     inkscape:window-y="25"
     inkscape:window-maximized="1"
     showguides="true"
     inkscape:lockguides="true"
     inkscape:object-nodes="false"
     inkscape:snap-nodes="false"
     inkscape:snap-others="false" />
  <metadata
     id="metadata2380">
    <rdf:RDF>
      <cc:Work
         rdf:about="">
        <dc:format>image/svg+xml</dc:format>
        <dc:type
           rdf:resource="http://purl.org/dc/dcmitype/StillImage" />
        <dc:title></dc:title>
      </cc:Work>
    </rdf:RDF>
  </metadata>
  <g
     inkscape:groupmode="layer"
     id="layer3"
     inkscape:label="Layer 2" />
  <g
     inkscape:groupmode="layer"
     id="layer2"
     inkscape:label="Layer 3" />
  <g
     inkscape:label="Layer 1"
     inkscape:groupmode="layer"
     id="layer1"
     transform="translate(0,-32.41665)">
    <text
       xml:space="preserve"
       style="font-style:normal;font-variant:normal;font-weight:bold;font-stretch:normal;font-size:10.58333302px;line-height:1.25;font-family:sans-serif;-inkscape-font-specification:'sans-serif Bold';letter-spacing:0px;word-spacing:0px;fill:#000000;fill-opacity:1;stroke:none;stroke-width:0.26458332"
       x="150.05655"
       y="89.869026"
       id="text8811" />
    <text
       xml:space="preserve"
       style="font-style:normal;font-variant:normal;font-weight:bold;font-stretch:normal;font-size:10.58333302px;line-height:1.25;font-family:sans-serif;-inkscape-font-specification:'sans-serif Bold';letter-spacing:0px;word-spacing:0px;fill:#000000;fill-opacity:1;stroke:none;stroke-width:0.26458332"
       x="160.63989"
       y="97.806526"
       id="text8815" />
    <text
       xml:space="preserve"
       style="font-style:normal;font-variant:normal;font-weight:bold;font-stretch:normal;font-size:10.58333302px;line-height:1.25;font-family:sans-serif;-inkscape-font-specification:'sans-serif Bold';letter-spacing:0px;word-spacing:0px;fill:#000000;fill-opacity:1;stroke:none;stroke-width:0.26458332"
       x="156.86011"
       y="88.7351"
       id="text8819" />
    <flowRoot
       xml:space="preserve"
       id="flowRoot8821"
       style="font-style:normal;font-variant:normal;font-weight:bold;font-stretch:normal;font-size:40px;line-height:1.25;font-family:sans-serif;-inkscape-font-specification:'sans-serif Bold';letter-spacing:0px;word-spacing:0px;fill:#000000;fill-opacity:1;stroke:none"><flowRegion
         id="flowRegion8823"
         style="font-style:normal;font-variant:normal;font-weight:bold;font-stretch:normal;font-family:sans-serif;-inkscape-font-specification:'sans-serif Bold'" /><flowPara
         id="flowPara8827" /></flowRoot>    <flowRoot
       xml:space="preserve"
       id="flowRoot8829"
       style="font-style:normal;font-variant:normal;font-weight:bold;font-stretch:normal;font-size:40px;line-height:1.25;font-family:sans-serif;-inkscape-font-specification:'sans-serif Bold';letter-spacing:0px;word-spacing:0px;fill:#000000;fill-opacity:1;stroke:none"><flowRegion
         id="flowRegion8831"
         style="font-style:normal;font-variant:normal;font-weight:bold;font-stretch:normal;font-family:sans-serif;-inkscape-font-specification:'sans-serif Bold'" /><flowPara
         id="flowPara8835" /></flowRoot>    <flowRoot
       xml:space="preserve"
       id="flowRoot8837"
       style="font-style:normal;font-variant:normal;font-weight:bold;font-stretch:normal;font-size:40px;line-height:1.25;font-family:sans-serif;-inkscape-font-specification:'sans-serif Bold';letter-spacing:0px;word-spacing:0px;fill:#000000;fill-opacity:1;stroke:none"><flowRegion
         id="flowRegion8839"
         style="font-style:normal;font-variant:normal;font-weight:bold;font-stretch:normal;font-family:sans-serif;-inkscape-font-specification:'sans-serif Bold'" /><flowPara
         id="flowPara8843" /></flowRoot>    <text
       xml:space="preserve"
       style="font-style:normal;font-variant:normal;font-weight:bold;font-stretch:normal;font-size:10.58333302px;line-height:1.25;font-family:sans-serif;-inkscape-font-specification:'sans-serif Bold';letter-spacing:0px;word-spacing:0px;fill:#000000;fill-opacity:1;stroke:none;stroke-width:0.26458332"
       x="209.39882"
       y="107.25594"
       id="text8847" />
    <flowRoot
       xml:space="preserve"
       id="flowRoot8849"
       style="font-style:normal;font-variant:normal;font-weight:bold;font-stretch:normal;font-size:40px;line-height:1.25;font-family:sans-serif;-inkscape-font-specification:'sans-serif Bold';letter-spacing:0px;word-spacing:0px;fill:#000000;fill-opacity:1;stroke:none"><flowRegion
         id="flowRegion8851"
         style="font-style:normal;font-variant:normal;font-weight:bold;font-stretch:normal;font-family:sans-serif;-inkscape-font-specification:'sans-serif Bold'" /><flowPara
         id="flowPara8855" /></flowRoot>    <flowRoot
       xml:space="preserve"
       id="flowRoot8857"
       style="font-style:normal;font-variant:normal;font-weight:bold;font-stretch:normal;font-size:40px;line-height:1.25;font-family:sans-serif;-inkscape-font-specification:'sans-serif Bold';letter-spacing:0px;word-spacing:0px;fill:#000000;fill-opacity:1;stroke:none"><flowRegion
         id="flowRegion8859"
         style="font-style:normal;font-variant:normal;font-weight:bold;font-stretch:normal;font-family:sans-serif;-inkscape-font-specification:'sans-serif Bold'" /><flowPara
         id="flowPara8863" /></flowRoot>    <flowRoot
       xml:space="preserve"
       id="flowRoot8865"
       style="font-style:normal;font-variant:normal;font-weight:bold;font-stretch:normal;font-size:40px;line-height:1.25;font-family:sans-serif;-inkscape-font-specification:'sans-serif Bold';letter-spacing:0px;word-spacing:0px;fill:#000000;fill-opacity:1;stroke:none"><flowRegion
         id="flowRegion8867"
         style="font-style:normal;font-variant:normal;font-weight:bold;font-stretch:normal;font-family:sans-serif;-inkscape-font-specification:'sans-serif Bold'" /><flowPara
         id="flowPara8871" /></flowRoot>    <flowRoot
       xml:space="preserve"
       id="flowRoot8873"
       style="font-style:normal;font-variant:normal;font-weight:bold;font-stretch:normal;font-size:40px;line-height:1.25;font-family:sans-serif;-inkscape-font-specification:'sans-serif Bold';letter-spacing:0px;word-spacing:0px;fill:#000000;fill-opacity:1;stroke:none"><flowRegion
         id="flowRegion8875"
         style="font-style:normal;font-variant:normal;font-weight:bold;font-stretch:normal;font-family:sans-serif;-inkscape-font-specification:'sans-serif Bold'" /><flowPara
         id="flowPara8879" /></flowRoot>    <text
       xml:space="preserve"
       style="font-style:normal;font-weight:normal;font-size:10.58333302px;line-height:1.25;font-family:sans-serif;letter-spacing:0px;word-spacing:0px;fill:#000000;fill-opacity:1;stroke:none;stroke-width:0.26458332"
       x="101.02788"
       y="69.125984"
       id="text977"><tspan
         sodipodi:role="line"
         id="tspan975"
         x="101.02788"
         y="78.489754"
         style="stroke-width:0.26458332" /><tspan
         sodipodi:role="line"
         x="101.02788"
         y="91.718918"
         style="stroke-width:0.26458332"
         id="tspan979" /><tspan
         sodipodi:role="line"
         x="101.02788"
         y="104.94809"
         style="stroke-width:0.26458332"
         id="tspan981" /><tspan
         sodipodi:role="line"
         x="101.02788"
         y="118.17725"
         style="stroke-width:0.26458332"
         id="tspan983" /><tspan
         sodipodi:role="line"
         x="101.02788"
         y="131.40642"
         style="stroke-width:0.26458332"
         id="tspan985" /><tspan
         sodipodi:role="line"
         x="101.02788"
         y="144.63559"
         style="stroke-width:0.26458332"
         id="tspan987" /><tspan
         sodipodi:role="line"
         x="101.02788"
         y="157.86475"
         style="stroke-width:0.26458332"
         id="tspan989" /><tspan
         sodipodi:role="line"
         x="101.02788"
         y="171.09392"
         style="stroke-width:0.26458332"
         id="tspan991" /><tspan
         sodipodi:role="line"
         x="101.02788"
         y="184.32309"
         style="stroke-width:0.26458332"
         id="tspan993" /><tspan
         sodipodi:role="line"
         x="101.02788"
         y="197.55225"
         style="stroke-width:0.26458332"
         id="tspan995" /><tspan
         sodipodi:role="line"
         x="101.02788"
         y="210.78142"
         style="stroke-width:0.26458332"
         id="tspan997" /><tspan
         sodipodi:role="line"
         x="101.02788"
         y="224.01059"
         style="stroke-width:0.26458332"
         id="tspan999" /><tspan
         sodipodi:role="line"
         x="101.02788"
         y="237.23975"
         style="stroke-width:0.26458332"
         id="tspan1001" /><tspan
         sodipodi:role="line"
         x="101.02788"
         y="250.46892"
         style="stroke-width:0.26458332"
         id="tspan1003" /><tspan
         sodipodi:role="line"
         x="101.02788"
         y="263.69809"
         style="stroke-width:0.26458332"
         id="tspan1005" /><tspan
         sodipodi:role="line"
         x="101.02788"
         y="276.92725"
         style="stroke-width:0.26458332"
         id="tspan1007" /><tspan
         sodipodi:role="line"
         x="101.02788"
         y="290.1564"
         style="stroke-width:0.26458332"
         id="tspan1009" /><tspan
         sodipodi:role="line"
         x="101.02788"
         y="303.38559"
         style="stroke-width:0.26458332"
         id="tspan1011" /><tspan
         sodipodi:role="line"
         x="101.02788"
         y="316.61475"
         style="stroke-width:0.26458332"
         id="tspan1013" /><tspan
         sodipodi:role="line"
         x="101.02788"
         y="329.8439"
         style="stroke-width:0.26458332"
         id="tspan1015" /><tspan
         sodipodi:role="line"
         x="101.02788"
         y="343.07309"
         style="stroke-width:0.26458332"
         id="tspan1017" /><tspan
         sodipodi:role="line"
         x="101.02788"
         y="356.30225"
         style="stroke-width:0.26458332"
         id="tspan1019" /><tspan
         sodipodi:role="line"
         x="101.02788"
         y="369.5314"
         style="stroke-width:0.26458332"
         id="tspan1021" /><tspan
         sodipodi:role="line"
         x="101.02788"
         y="382.76059"
         style="stroke-width:0.26458332"
         id="tspan1023" /></text>
    <g
       id="g350"
       transform="matrix(0.03291558,0,0,-0.03291558,-306.13476,362.40025)"
       style="stroke-width:1.5527097">
      <path
         d="m 12854.054,4071.0633 h -115.872 v 680.0405 h 115.872 v -680.0405"
         style="fill:#ababa9;fill-opacity:1;fill-rule:nonzero;stroke:none;stroke-width:1.0717653"
         id="path634"
         inkscape:connector-curvature="0" />
      <path
         d="m 13720.553,4071.0633 h -115.873 v 680.0405 h 115.873 v -680.0405"
         style="fill:#ababa9;fill-opacity:1;fill-rule:nonzero;stroke:none;stroke-width:1.0717653"
         id="path636"
         inkscape:connector-curvature="0" />
      <path
         d="m 12325.514,2782.7653 h -100.766 l 320.804,1263.7622 170.358,3.2444 -390.396,-1267.0066"
         style="fill:#ababa9;fill-opacity:1;fill-rule:nonzero;stroke:none;stroke-width:1.0717653"
         id="path638"
         inkscape:connector-curvature="0" />
      <path
         d="m 12502.293,3848.6869 h 160.22 l 27.908,105.105 h -165.147 l -22.981,-105.105"
         style="fill:#878888;fill-opacity:1;fill-rule:nonzero;stroke:none;stroke-width:1.0717653"
         id="path640"
         inkscape:connector-curvature="0" />
      <path
         d="m 14133.221,2782.7653 h 100.766 l -320.811,1263.7622 -170.366,3.2444 390.411,-1267.0066"
         style="fill:#ababa9;fill-opacity:1;fill-rule:nonzero;stroke:none;stroke-width:1.0717653"
         id="path642"
         inkscape:connector-curvature="0" />
      <path
         d="m 13956.448,3848.6869 h -160.219 l -27.916,105.105 h 165.133 l 23.002,-105.105"
         style="fill:#878888;fill-opacity:1;fill-rule:nonzero;stroke:none;stroke-width:1.0717653"
         id="path644"
         inkscape:connector-curvature="0" />
      <path
         d="m 14206.003,3932.5005 h -1953.251 v 211.3591 h 1953.251 v -211.3591"
         style="fill:#454547;fill-opacity:1;fill-rule:nonzero;stroke:none;stroke-width:1.0717653"
         id="path646"
         inkscape:connector-curvature="0" />
      <path
         d="m 13204.49,4491.2812 c 680.047,0 990.746,732.9646 937.843,1027.6645 -52.885,294.6999 -575.146,324.9135 -937.843,324.9135 -362.69,0 -884.971,-30.2136 -937.869,-324.9135 -52.896,-294.6999 257.802,-1027.6645 937.869,-1027.6645"
         style="fill:#454547;fill-opacity:1;fill-rule:nonzero;stroke:none;stroke-width:1.0717653"
         id="path648"
         inkscape:connector-curvature="0" />
      <path
         d="m 12938.869,6071.9407 c 0,0 140.225,40.4604 227.284,60.8798 12.666,86.8148 0.533,185.2351 0.533,185.2351 l 160.848,7.7731 c 0,0 4.853,-143.4093 -0.148,-200.4365 114.715,-36.0804 268.994,-73.675 268.994,-73.675 0,0 60.644,-368.3883 -344.264,-330.8074 -106.62,10.0036 -340.419,186.3504 -313.247,351.0309"
         style="fill:#fabd99;fill-opacity:1;fill-rule:nonzero;stroke:none;stroke-width:1.0717653"
         id="path650"
         inkscape:connector-curvature="0" />
      <path
         d="m 13306.115,6287.2541 -137.327,-13.0046 c 0,0 14.418,-69.268 9.861,-141.429 39.61,28.7671 110.804,44.7186 142.632,-5.1301 0.657,61.123 -15.166,159.5637 -15.166,159.5637"
         style="fill:#eaa376;fill-opacity:1;fill-rule:nonzero;stroke:none;stroke-width:1.0717653"
         id="path652"
         inkscape:connector-curvature="0" />
      <path
         d="m 12931.812,6067.5539 c 1.622,-250.461 165.958,-343.197 331.003,-319.8777 v 0.338 c 0.365,-0.067 0.744,-0.1353 1.075,-0.2028 0.365,0.068 0.743,0.1355 1.115,0.2028 v -0.338 c 165.045,-23.3193 329.388,69.4167 330.984,319.8777 71.321,-0.068 340.925,-72.8368 542.828,-188.6822 -3.298,-59.5483 -95.973,-344.177 -135.69,-373.985 -82.779,19.8719 -112.527,39.6764 -184.83,54.3438 1.555,-194.0559 55.372,-772.641 45.476,-858.7529 0,0 -258.552,-6.1508 -618.464,-10.1386 l 3.379,-16.8981 c -0.371,0 15.567,80.5694 15.202,80.5694 -0.331,0 -0.71,0 -1.075,0 l -17.506,-63.6713 c -359.919,3.9878 -591.428,23.657 -591.428,23.657 -9.902,86.1118 58.164,600.2145 59.711,794.2027 -72.31,-14.5999 -106.167,16.5599 -188.898,-3.312 -39.737,29.7403 -190.799,92.4654 -194.124,152.0139 139.692,306.4405 529.939,410.5858 601.242,410.6533"
         style="fill:#ecb50e;fill-opacity:1;fill-rule:nonzero;stroke:none;stroke-width:1.0717653"
         id="path654"
         inkscape:connector-curvature="0" />
      <path
         d="m 14023.54,5478.3232 c 0,0 157.231,222.0388 161.294,394.3301 -42.549,20.8858 -99.252,40.555 -99.252,40.555 0,0 -62.36,-220.2814 -172.792,-387.233 64.24,-29.7404 110.75,-47.6521 110.75,-47.6521"
         style="fill:#933c47;fill-opacity:1;fill-rule:nonzero;stroke:none;stroke-width:1.0717653"
         id="path656"
         inkscape:connector-curvature="0" />
      <path
         d="m 12856.663,6059.9364 c 0,0 87.646,15.0189 136.19,33.5457 26.443,-151.3649 91.649,-279.566 274.282,-283.2161 182.672,3.6501 247.885,131.8512 274.327,283.2161 48.551,-18.5268 136.176,-33.5457 136.176,-33.5457 0,0 -28.806,-382.4205 -407.124,-381.4742 v -0.068 c -1.136,0 -2.231,0.068 -3.379,0.068 -1.103,0 -2.232,-0.068 -3.367,-0.068 v 0.068 c -378.317,-0.9463 -407.105,381.4742 -407.105,381.4742"
         style="fill:#29806a;fill-opacity:1;fill-rule:nonzero;stroke:none;stroke-width:1.0717653"
         id="path658"
         inkscape:connector-curvature="0" />
      <path
         d="m 12283.148,5581.7384 c 0,0 232.995,-187.4993 404.265,-190.4058 20.447,42.4476 29.91,126.8696 29.91,126.8696 0,0 -220.639,64.2798 -387.213,172.8996 -29.111,-64.0092 -46.962,-109.3634 -46.962,-109.3634"
         style="fill:#29806a;fill-opacity:1;fill-rule:nonzero;stroke:none;stroke-width:1.0717653"
         id="path660"
         inkscape:connector-curvature="0" />
      <path
         d="m 12561.24,5419.9915 c -24.955,-45.5569 -161.504,-270.0289 -129.85,-262.9318 110.81,24.8737 300.012,63.4686 406.503,63.3335 158.975,-0.1355 287.866,-122.341 272.955,-147.8907 -14.916,-25.5498 -99.001,14.87 -107.505,23.3868 17.487,-50.4236 -60.196,-24.9415 -75.101,-16.425 14.391,-40.1494 -156.251,-22.7784 -190.311,-18.5201 -34.058,4.2583 -318.364,-62.3871 -395.025,-60.2241 -76.636,2.0953 -131.392,80.2989 -86.565,185.8096 66.003,155.3933 107.139,268.0687 147.579,317.0051 50.992,-33.593 157.32,-83.5433 157.32,-83.5433"
         style="fill:#fabd99;fill-opacity:1;fill-rule:nonzero;stroke:none;stroke-width:1.0717653"
         id="path662"
         inkscape:connector-curvature="0" />
      <path
         d="m 14498.635,7620.8455 c 0,0 37.65,251.9819 -41.44,543.9782 26.387,-47.9226 127.477,-55.4928 127.477,-55.4928 0,0 -57.276,471.3848 -322.818,746.0098 -35.458,36.7024 9.443,200.4773 -89.47,264.2835 12.531,-64.2798 -11.153,-194.7989 -92.994,-125.9909 -81.839,68.8085 -426.611,233.8674 -649.359,150.2567 32.017,102.0631 196.434,131.4657 196.434,131.4657 0,0 -153.514,60.224 -282.999,-88.7481 -72.377,120.9892 -245.088,119.9757 -245.088,119.9757 0,0 84.226,-55.7633 43.907,-129.3031 -147.816,61.9141 -689.185,138.6306 -1094.072,-294.6326 -16.858,100.1711 11.342,151.6082 11.342,151.6082 0,0 -152.528,-112.4721 -98.86,-232.7178 -108.668,54.7493 -200.971,-52.5192 -200.971,-52.5192 0,0 175.806,32.7822 127.451,-55.4248 -258.774,-192.9744 -432.377,-466.0452 -373.046,-881.1935 18.534,42.4475 64.098,55.7631 64.098,55.7631 0,0 25.421,-320.0467 158.84,-565.3371 306.481,-34.0933 2761.568,318.019 2761.568,318.019"
         style="fill:#933c47;fill-opacity:1;fill-rule:nonzero;stroke:none;stroke-width:1.0717653"
         id="path664"
         inkscape:connector-curvature="0" />
      <path
         d="m 14295.508,7433.1433 c 70.857,-675.2211 -408.841,-1179.9757 -1059.047,-1248.2163 -650.111,-68.2339 -1224.214,325.9341 -1295.077,1001.2023 -70.87,675.14 401.17,1253.4546 1051.355,1321.7227 650.151,68.2675 1231.933,-399.6026 1302.769,-1074.7087"
         style="fill:#fabd99;fill-opacity:1;fill-rule:nonzero;stroke:none;stroke-width:1.0717653"
         id="path666"
         inkscape:connector-curvature="0" />
      <path
         d="m 13712.239,7906.7585 c -125.328,46.4356 -163.301,-92.3302 -78.305,-99.495 91.235,-7.4352 164.877,-46.8411 176.97,-38.9328 26.766,17.3711 -28.147,112.3374 -98.665,138.4278"
         style="fill:#732c33;fill-opacity:1;fill-rule:nonzero;stroke:none;stroke-width:1.0717653"
         id="path668"
         inkscape:connector-curvature="0" />
      <path
         d="m 12412.477,7768.0603 c 112.927,71.5796 178.949,-56.304 97.286,-80.9748 -87.688,-26.2257 -151.541,-80.0963 -165.012,-74.8917 -29.762,11.4229 4.183,115.717 67.726,155.8665"
         style="fill:#732c33;fill-opacity:1;fill-rule:nonzero;stroke:none;stroke-width:1.0717653"
         id="path670"
         inkscape:connector-curvature="0" />
      <path
         d="m 13249.465,7108.4867 c 1.475,0.1826 2.948,0.649 4.313,1.4464 5.421,3.1296 7.266,10.0308 4.137,15.4516 -30.039,51.9915 -79.388,80.6706 -128.742,74.9186 -49.382,-5.7791 -90.769,-45.0904 -108.047,-102.5704 -1.776,-5.9886 1.61,-12.2949 7.579,-14.0861 5.981,-1.8048 12.274,1.6019 14.092,7.5703 14.627,48.7268 48.7,81.9143 88.992,86.6255 40.257,4.6976 81.083,-19.7502 106.558,-63.7998 2.311,-4.0014 6.765,-6.0562 11.118,-5.5561"
         style="fill:#ce6748;fill-opacity:1;fill-rule:nonzero;stroke:none;stroke-width:1.0717653"
         id="path672"
         inkscape:connector-curvature="0" />
      <path
         d="m 14147.219,7079.5507 c -0.534,-101.9553 -94.98,-176.5563 -227.297,-188.4794 -127.667,-11.5042 -261.263,79.5216 -242.167,175.0828 18.161,90.8838 89.294,62.1438 235.002,122.1179 140.949,58.0072 235.01,-6.8537 234.462,-108.7213"
         style="fill:#f8a191;fill-opacity:1;fill-rule:nonzero;stroke:none;stroke-width:1.0717653"
         id="path674"
         inkscape:connector-curvature="0" />
      <path
         d="m 14054.815,7128.3452 c -0.07,-9.2938 -9.876,-16.7695 -21.915,-16.7019 -12.01,0.1282 -21.729,7.6311 -21.736,16.9047 0.101,9.2128 9.888,16.7425 21.906,16.7357 12.031,-0.1216 21.711,-7.7258 21.745,-16.9385"
         style="fill:#fbccc0;fill-opacity:1;fill-rule:nonzero;stroke:none;stroke-width:1.0717653"
         id="path676"
         inkscape:connector-curvature="0" />
      <path
         d="m 12161.22,6868.3469 c 21.723,-99.6167 129.62,-152.9466 261.524,-137.0896 127.262,15.3028 239.018,132.1013 200.478,221.5994 -36.669,85.1116 -100.266,42.2314 -255.267,70.5862 -149.939,27.4219 -228.461,-55.5807 -206.735,-155.096"
         style="fill:#f8a191;fill-opacity:1;fill-rule:nonzero;stroke:none;stroke-width:1.0717653"
         id="path678"
         inkscape:connector-curvature="0" />
      <path
         d="m 12241.464,6935.2897 c 1.987,-9.0843 13.152,-14.3497 24.9,-11.7812 11.728,2.6225 19.677,11.9841 17.742,21.0616 -2.019,8.9694 -13.139,14.3158 -24.899,11.8083 -11.741,-2.6361 -19.629,-12.0652 -17.743,-21.0887"
         style="fill:#fbccc0;fill-opacity:1;fill-rule:nonzero;stroke:none;stroke-width:1.0717653"
         id="path680"
         inkscape:connector-curvature="0" />
      <path
         d="m 12248.48,8921.31 c 703.163,419.4745 1218.704,105.038 1218.704,105.038 0,0 275.918,118.0824 630.646,-199.6664 411.693,-368.9152 508.959,-1151.9654 319.215,-1453.3569 -308.949,62.1843 -440.09,747.6995 -440.09,747.6995 -95.21,-68.9435 -312.449,-109.5661 -419.068,-83.0026 141.368,164.8562 42.501,257.119 42.501,257.119 0,0 -136.576,-402.1032 -391.829,-402.4412 101.172,161.3414 1.805,445.4294 1.805,445.4294 0,0 -213.759,-424.949 38.392,-639.688 -352.085,20.8182 -524.241,497.813 -524.241,497.813 0,0 -118.61,-158.1645 51.964,-347.2863 -196.407,-59.2103 -380.92,364.2519 -380.92,364.2519 0,0 -175.183,-161.0711 48.139,-277.1261 -220.18,-64.2121 -223.458,-59.0752 -373.721,4.1907 47.706,-295.5787 -82.996,-660.5334 -136.812,-779.4272 -518.456,414.2291 -357.723,1358.8233 315.315,1760.4532"
         style="fill:#933c47;fill-opacity:1;fill-rule:nonzero;stroke:none;stroke-width:1.0717653"
         id="path682"
         inkscape:connector-curvature="0" />
      <path
         d="m 14416.693,8152.3193 c 0,0 73.919,-294.8351 17.731,-574.8677 -78.772,-63.5361 -183.608,-65.7667 -183.608,-65.7667 0,0 -149.215,289.0222 -170.932,530.1219 150.96,-308.8266 289.713,-256.105 336.809,110.5125"
         style="fill:#732c33;fill-opacity:1;fill-rule:nonzero;stroke:none;stroke-width:1.0717653"
         id="path684"
         inkscape:connector-curvature="0" />
      <path
         d="m 11610.624,7872.2192 c 0,0 5.407,-303.8249 132.561,-559.592 92.613,-40.8524 194.38,-15.6812 194.38,-15.6812 0,0 68.835,317.9514 27.029,556.3474 -65.381,-337.4854 -213.042,-322.7504 -353.97,18.9258"
         style="fill:#732c33;fill-opacity:1;fill-rule:nonzero;stroke:none;stroke-width:1.0717653"
         id="path686"
         inkscape:connector-curvature="0" />
      <path
         d="m 13355.273,8929.286 c -5.725,76.7845 109.986,211.2918 455.292,28.1185 345.299,-183.2414 454.662,-419.8126 362.839,-389.0586 -61.481,20.5482 -374.424,282.128 -374.424,282.128 0,0 622.222,-550.399 409.666,-559.4566 -212.542,-9.0568 -521.138,533.5018 -521.138,533.5018 0,0 231.704,-463.5442 55.992,-415.5543 -90.025,24.6039 -370.281,279.4244 -388.227,520.3212 z m -95.526,-62.1842 c 28.597,91.9922 -74.683,288.7518 -547.534,162.4904 -472.858,-126.1935 -672.943,-383.9887 -552.237,-372.3626 80.811,7.8404 536.251,238.6662 536.251,238.6662 0,0 -914.163,-496.0559 -657.403,-567.027 256.748,-70.9037 786.085,504.0312 786.085,504.0312 0,0 -413.283,-500.246 -185.405,-491.2566 116.759,4.6643 530.474,236.5711 620.243,525.4584"
         style="fill:#a9525f;fill-opacity:1;fill-rule:nonzero;stroke:none;stroke-width:1.0717653"
         id="path688"
         inkscape:connector-curvature="0" />
      <path
         d="m 14219.665,7469.2372 c 0,0 -1.022,162.2202 161.517,207.5743 171.446,47.5846 272.691,-186.418 199.631,-359.3177 -73.134,-172.6359 -264.426,-226.7228 -340.932,-109.681 l -20.216,261.4244"
         style="fill:#fabd99;fill-opacity:1;fill-rule:nonzero;stroke:none;stroke-width:1.0717653"
         id="path690"
         inkscape:connector-curvature="0" />
      <path
         d="m 14424.251,7611.5854 c -116.535,6.6916 -176.165,-240.5588 -5.956,-339.1955 -87.497,155.4813 -35.925,220.8425 56.237,154.1294 -8.301,53.7355 -41.183,83.4758 -108.687,67.4566 -4.434,72.0527 58.406,117.6095 58.406,117.6095"
         style="fill:#de8359;fill-opacity:1;fill-rule:nonzero;stroke:none;stroke-width:1.0717653"
         id="path692"
         inkscape:connector-curvature="0" />
      <path
         d="m 12008.076,7237.1814 c 0,0 -32.68,158.9216 -201.078,169.466 -177.631,11.0174 -228.042,-238.9706 -120.752,-392.8769 107.389,-153.6968 305.75,-166.9179 356.254,-36.5604 l -34.424,259.9713"
         style="fill:#fabd99;fill-opacity:1;fill-rule:nonzero;stroke:none;stroke-width:1.0717653"
         id="path694"
         inkscape:connector-curvature="0" />
      <path
         d="m 11778.372,7333.9186 c 112.622,30.7544 222.283,-198.7467 76.278,-330.537 53.303,170.1893 -10.767,223.492 -86.977,139.0835 -3.069,54.2627 22.9,90.2214 92.222,88.5925 -10.625,71.2957 -81.523,102.861 -81.523,102.861"
         style="fill:#de8359;fill-opacity:1;fill-rule:nonzero;stroke:none;stroke-width:1.0717653"
         id="path696"
         inkscape:connector-curvature="0" />
      <path
         d="m 13178.603,6731.7035 c 109.336,9.821 207.289,51.3426 283.493,113.3581 -11.889,-127.6064 -124.889,-234.2189 -271.475,-247.4127 -146.587,-13.1196 -276.742,71.6809 -311.166,195.1305 86.024,-47.463 189.798,-70.8699 299.148,-61.0759"
         style="fill:#f1907b;fill-opacity:1;fill-rule:nonzero;stroke:none;stroke-width:1.0717653"
         id="path698"
         inkscape:connector-curvature="0" />
      <path
         d="m 13451.957,6829.0829 -0.946,-4.718 0.07,0.1962 -13.309,-14.9716 -13.755,-14.4308 -14.268,-13.8023 -14.823,-13.1194 -15.276,-12.5248 -15.884,-11.6393 -16.276,-10.9295 -16.783,-10.0442 -17.29,-9.0912 -17.607,-8.3137 -18.021,-7.327 -18.391,-6.2453 -18.642,-5.3669 -18.879,-4.3664 -19.115,-3.2579 -19.242,-2.1359 -19.651,-1.2842 -19.093,-0.2028 -19.345,0.9462 -19.271,1.9332 -19.223,2.8794 -19.034,3.9946 -18.79,5.0626 -18.635,5.894 -18.324,6.908 -17.953,7.8474 -17.675,8.5977 -17.256,9.5709 -16.944,10.2537 -16.48,11.0648 -16.128,11.7676 -15.735,12.3828 0.116,-0.1824 -1.825,4.4475 0.967,-4.6977 0.02,-0.1014 0.107,-0.068 13.64,-14.877 14.484,-14.059 15.372,-13.2142 16.066,-12.4437 16.836,-11.477 17.46,-10.5781 c 5.961,-3.2782 12.065,-6.3333 18.114,-9.483 l 18.689,-8.4897 19.15,-7.4688 19.641,-6.1171 20,-5.0221 20.278,-3.8864 c 6.814,-0.953 13.66,-1.7372 20.501,-2.5145 l 20.656,-1.2437 20.987,-0.094 20.318,1.1356 20.528,2.5752 20.325,3.7581 20.082,4.9139 c 6.616,1.967 13.193,4.0015 19.729,6.1035 l 19.251,7.4419 18.79,8.5233 18.236,9.5237 17.512,10.7742 16.871,11.6392 c 5.388,4.2042 10.875,8.2868 16.142,12.5585 l 15.309,13.5183 14.533,14.2755 13.592,15.1066 c 4.258,5.2587 8.611,10.4227 12.761,15.7557 l 11.775,16.418 10.754,17.0467 0.07,0.115 0.02,0.081 0.136,4.7786"
         style="fill:#db5f4e;fill-opacity:1;fill-rule:nonzero;stroke:none;stroke-width:1.0717653"
         id="path700"
         inkscape:connector-curvature="0" />
      <path
         d="m 13339.984,6748.4256 c -2.399,6.7322 -22.968,5.475 -45.962,-2.7576 -22.961,-8.2328 -39.648,-20.3451 -37.249,-27.03 2.399,-6.7119 22.981,-5.4682 45.963,2.751 22.966,8.2122 39.654,20.3586 37.248,27.0366"
         style="fill:#f9b1a3;fill-opacity:1;fill-rule:nonzero;stroke:none;stroke-width:1.0717653"
         id="path702"
         inkscape:connector-curvature="0" />
      <path
         d="m 12746.192,7431.3183 c 58.547,-111.3911 20.912,-246.6759 -84.24,-302.1147 -105.152,-55.3779 -238.139,-10.0306 -296.802,101.3269 -58.724,111.4991 -21.035,246.7502 84.057,302.243 105.34,55.4928 238.146,10.0036 296.985,-101.4552"
         style="fill:#efa378;fill-opacity:1;fill-rule:nonzero;stroke:none;stroke-width:1.0717653"
         id="path704"
         inkscape:connector-curvature="0" />
      <path
         d="m 12705.19,7205.2511 c 70.992,2.021 91.216,-27.7802 45.415,-66.605 -46.151,-38.6218 -141.057,-71.6405 -211.941,-73.5735 -71.133,-1.9669 -91.315,27.9019 -45.427,66.6522 46.029,38.7436 140.805,71.539 211.953,73.5263"
         style="fill:#efa378;fill-opacity:1;fill-rule:nonzero;stroke:none;stroke-width:1.0717653"
         id="path706"
         inkscape:connector-curvature="0" />
      <path
         d="m 12723.819,7423.4777 c 57.999,-110.1069 20.778,-243.8236 -83.153,-298.6811 -103.981,-54.756 -235.353,-9.9359 -293.394,100.2318 -58.042,110.3097 -20.723,243.8709 83.117,298.7554 104.085,54.6816 235.408,9.8009 293.43,-100.3061"
         style="fill:#ffffff;fill-opacity:1;fill-rule:nonzero;stroke:none;stroke-width:1.0717653"
         id="path708"
         inkscape:connector-curvature="0" />
      <path
         d="m 12703.622,7398.4011 c -11.524,21.8322 -26.672,40.3523 -43.874,55.8309 8.009,-10.0036 15.249,-20.886 21.562,-32.7145 50.938,-96.8589 18.175,-214.4752 -73.243,-262.7628 -54.371,-28.5913 -117.007,-25.6241 -169.803,1.2978 56.155,-41.7717 130.674,-51.8294 193.805,-18.7094 89.424,47.2668 121.483,162.2945 71.553,257.058"
         style="fill:#dcdbdb;fill-opacity:1;fill-rule:nonzero;stroke:none;stroke-width:1.0717653"
         id="path710"
         inkscape:connector-curvature="0" />
      <path
         d="m 12668.556,7329.2548 c 6.766,-67.0713 -39.076,-126.7005 -102.435,-133.088 -63.369,-6.4348 -120.232,42.7179 -127.02,109.7689 -6.901,67.1862 38.98,126.7345 102.247,133.1558 63.441,6.4211 120.3,-42.7181 127.208,-109.8367"
         style="fill:#75b6e6;fill-opacity:1;fill-rule:nonzero;stroke:none;stroke-width:1.0717653"
         id="path712"
         inkscape:connector-curvature="0" />
      <path
         d="m 12622.2,7319.6568 c 4.043,-40.1697 -23.447,-75.8109 -61.264,-79.7312 -37.953,-3.7986 -71.985,25.5835 -76.041,65.8072 -4.035,40.1495 23.374,75.7705 61.266,79.6907 37.891,3.8528 71.957,-25.6172 76.039,-65.7667"
         style="fill:#231f20;fill-opacity:1;fill-rule:nonzero;stroke:none;stroke-width:1.0717653"
         id="path714"
         inkscape:connector-curvature="0" />
      <path
         d="m 12539.814,7354.4665 c 1.73,-17.0331 -9.917,-32.106 -25.922,-33.6607 -16.02,-1.6221 -30.356,10.7471 -32.16,27.7803 -1.697,16.9655 9.875,32.0384 25.833,33.7958 16.067,1.4195 30.538,-10.9498 32.249,-27.9154"
         style="fill:#ffffff;fill-opacity:1;fill-rule:nonzero;stroke:none;stroke-width:1.0717653"
         id="path716"
         inkscape:connector-curvature="0" />
      <path
         d="m 12626.175,7273.9513 c 1.089,-10.3212 -5.981,-19.392 -15.749,-20.433 -9.672,-0.9935 -18.451,6.5834 -19.472,16.925 -0.913,10.2266 5.988,19.4055 15.748,20.3519 9.699,1.0138 18.439,-6.5699 19.473,-16.8439"
         style="fill:#ffffff;fill-opacity:1;fill-rule:nonzero;stroke:none;stroke-width:1.0717653"
         id="path718"
         inkscape:connector-curvature="0" />
      <path
         d="m 13455.188,7500.6674 c -30.098,-122.2058 38.865,-244.4995 154.238,-273.1178 115.359,-28.5238 233.603,47.3818 263.837,169.5673 30.268,122.341 -38.751,244.5468 -154.082,273.2733 -115.581,28.5913 -233.584,-47.4494 -263.993,-169.7228"
         style="fill:#efa378;fill-opacity:1;fill-rule:nonzero;stroke:none;stroke-width:1.0717653"
         id="path720"
         inkscape:connector-curvature="0" />
      <path
         d="m 13549.235,7291.0654 c -69.431,-15.0999 -81.928,-48.9025 -28.131,-75.5945 54.059,-26.4352 154.114,-35.7222 223.396,-20.5816 69.519,15.127 81.949,48.9566 28.105,75.5946 -53.958,26.5973 -153.838,35.7222 -223.37,20.5815"
         style="fill:#efa378;fill-opacity:1;fill-rule:nonzero;stroke:none;stroke-width:1.0717653"
         id="path722"
         inkscape:connector-curvature="0" />
      <path
         d="m 13478.804,7498.4368 c -29.93,-120.8539 38.278,-241.6943 152.326,-270.0356 114.107,-28.2195 230.892,46.7937 260.802,167.6343 29.929,120.9892 -38.359,241.7756 -152.324,270.0965 -114.191,28.1856 -230.901,-46.9086 -260.804,-167.6952"
         style="fill:#ffffff;fill-opacity:1;fill-rule:nonzero;stroke:none;stroke-width:1.0717653"
         id="path724"
         inkscape:connector-curvature="0" />
      <path
         d="m 13504.422,7478.9029 c 5.961,23.9274 16.215,45.5568 29.172,64.7529 -5.333,-11.6934 -9.767,-23.9951 -13.065,-36.9727 -26.233,-106.2541 33.795,-212.5084 134.122,-237.5106 59.643,-14.7282 119.745,3.1904 164.538,41.9678 -44.53,-54.0058 -114.426,-81.6305 -183.653,-64.6245 -98.157,24.4682 -156.874,128.4311 -131.114,232.3871"
         style="fill:#dcdbdb;fill-opacity:1;fill-rule:nonzero;stroke:none;stroke-width:1.0717653"
         id="path726"
         inkscape:connector-curvature="0" />
      <path
         d="m 13555.034,7420.1657 c 9.517,-66.713 68.329,-113.6218 131.385,-104.632 63.043,8.9897 106.457,70.363 96.98,137.076 -9.409,66.8482 -68.253,113.6893 -131.201,104.6996 -63.131,-8.9897 -106.558,-70.2954 -97.164,-137.1436"
         style="fill:#75b6e6;fill-opacity:1;fill-rule:nonzero;stroke:none;stroke-width:1.0717653"
         id="path728"
         inkscape:connector-curvature="0" />
      <path
         d="m 13602.355,7421.9906 c 5.711,-39.9466 40.921,-67.9296 78.583,-62.6574 37.756,5.4072 63.745,42.0421 58.048,82.0563 -5.712,39.9467 -40.853,67.9972 -78.583,62.7251 -37.716,-5.4073 -63.719,-42.1096 -58.048,-82.124"
         style="fill:#231f20;fill-opacity:1;fill-rule:nonzero;stroke:none;stroke-width:1.0717653"
         id="path730"
         inkscape:connector-curvature="0" />
      <path
         d="m 13673.989,7475.5233 c 2.379,-16.9655 17.33,-28.7264 33.235,-26.4283 15.931,2.2979 26.881,17.709 24.542,34.6745 -2.42,16.8304 -17.269,28.7265 -33.174,26.6312 -15.957,-2.4334 -27.016,-17.9794 -24.603,-34.8774"
         style="fill:#ffffff;fill-opacity:1;fill-rule:nonzero;stroke:none;stroke-width:1.0717653"
         id="path732"
         inkscape:connector-curvature="0" />
      <path
         d="m 13609.459,7376.7042 c 1.392,-10.2739 10.443,-17.4386 20.177,-16.0869 9.604,1.352 16.323,10.8148 14.849,21.0888 -1.562,10.1387 -10.483,17.3711 -20.176,16.0191 -9.645,-1.3518 -16.33,-10.8146 -14.85,-21.021"
         style="fill:#ffffff;fill-opacity:1;fill-rule:nonzero;stroke:none;stroke-width:1.0717653"
         id="path734"
         inkscape:connector-curvature="0" />
      <path
         d="m 13770.503,3584.5383 c 0,0 6.583,-263.3375 14.553,-406.4289 -94.609,-24.2655 -154.17,-6.4213 -154.17,-6.4213 l -48.585,435.2229 188.202,-22.3727"
         style="fill:#fabd99;fill-opacity:1;fill-rule:nonzero;stroke:none;stroke-width:1.0717653"
         id="path736"
         inkscape:connector-curvature="0" />
      <path
         d="m 13601.936,3106.327 c -18.567,-41.2313 -24.312,-115.1763 71.573,-197.0975 95.764,-82.0564 136.718,-151.2702 280.905,-101.2526 118.542,41.1634 122.767,180.6051 122.767,180.6051 l -475.245,117.745"
         style="fill:#e9e9e9;fill-opacity:1;fill-rule:nonzero;stroke:none;stroke-width:1.0717653"
         id="path738"
         inkscape:connector-curvature="0" />
      <path
         d="m 13617.645,3278.4152 c -23.157,-37.2427 -47.835,-181.754 24.576,-245.29 72.066,-63.5366 224.553,-191.1496 366.265,-138.8336 129.081,47.7195 54.662,160.7332 -17.247,206.6953 -71.858,46.0299 -209.036,173.8463 -209.036,173.8463 0,0 -19.459,-79.6232 -164.558,3.582"
         style="fill:#933c47;fill-opacity:1;fill-rule:nonzero;stroke:none;stroke-width:1.0717653"
         id="path740"
         inkscape:connector-curvature="0" />
      <path
         d="m 13861.637,3208.5931 c -53.884,16.1546 -128.986,-9.7332 -155.238,-47.382 -25.975,-37.5807 5.374,-67.5915 27.814,-65.6991 22.529,1.7576 87.903,32.7147 161.652,41.8396 73.689,8.9222 8.888,58.5341 -34.228,71.2415"
         style="fill:#e9e9e9;fill-opacity:1;fill-rule:nonzero;stroke:none;stroke-width:1.0717653"
         id="path742"
         inkscape:connector-curvature="0" />
      <path
         d="m 12769.22,3584.5383 c 0,0 -6.591,-263.3375 -14.559,-406.4289 94.614,-24.2655 154.149,-6.4213 154.149,-6.4213 l 48.605,435.2229 -188.195,-22.3727"
         style="fill:#fabd99;fill-opacity:1;fill-rule:nonzero;stroke:none;stroke-width:1.0717653"
         id="path744"
         inkscape:connector-curvature="0" />
      <path
         d="m 12937.779,3106.327 c 18.568,-41.2313 18.251,-121.0568 -77.628,-203.0458 -95.75,-82.0561 -205.297,-138.2927 -349.868,-89.356 -121.617,41.1634 -47.747,174.6568 -47.747,174.6568 l 475.243,117.745"
         style="fill:#e9e9e9;fill-opacity:1;fill-rule:nonzero;stroke:none;stroke-width:1.0717653"
         id="path746"
         inkscape:connector-curvature="0" />
      <path
         d="m 12922.072,3278.4152 c 23.156,-37.2427 47.834,-181.754 -24.576,-245.29 -72.06,-63.5366 -201.127,-178.9831 -375.304,-131.3983 -136.576,37.3781 -45.624,153.2979 26.301,199.26 71.843,46.0299 209.02,173.8463 209.02,173.8463 0,0 19.459,-79.6232 164.559,3.582"
         style="fill:#933c47;fill-opacity:1;fill-rule:nonzero;stroke:none;stroke-width:1.0717653"
         id="path748"
         inkscape:connector-curvature="0" />
      <path
         d="m 12678.079,3208.5931 c 53.884,16.1546 128.992,-9.7332 155.238,-47.382 25.976,-37.5807 -5.373,-67.5915 -27.828,-65.6991 -22.514,1.7576 -87.896,32.7147 -161.639,41.8396 -73.694,8.9222 -8.887,58.5341 34.229,71.2415"
         style="fill:#e9e9e9;fill-opacity:1;fill-rule:nonzero;stroke:none;stroke-width:1.0717653"
         id="path750"
         inkscape:connector-curvature="0" />
      <path
         d="m 13256.447,4645.9312 c 1.271,0.2702 310.22,0.811 586.784,59.5482 -2.135,-460.0292 375.399,-292.2667 84.646,-1176.5015 -65.192,-78.6093 -138.069,-45.6918 -399.704,-59.6833 48.335,423.4619 68.613,626.2371 -271.726,656.5859 -362.615,-3.3123 -295.024,-388.5851 -251.439,-656.5859 -261.628,13.9915 -334.534,-18.926 -399.705,59.6833 -356.262,872.136 80.475,617.6532 77.866,1176.5015 276.599,-58.7372 572.009,-59.2779 573.278,-59.5482"
         style="fill:#f14b1c;fill-opacity:1;fill-rule:nonzero;stroke:none;stroke-width:1.0717653"
         id="path752"
         inkscape:connector-curvature="0" />
      <path
         d="m 13256.158,4466.0695 c -1.372,0.3382 -294.802,0.8111 -598.768,57.9261 -0.535,63.4012 -0.981,167.8979 -1.258,225.2832 385.719,-108.4846 907.298,-58.7372 1207.377,0 -0.27,-57.3853 -0.702,-161.882 -1.243,-225.2832 -303.953,-57.115 -604.722,-57.5881 -606.108,-57.9261"
         style="fill:#c02023;fill-opacity:1;fill-rule:nonzero;stroke:none;stroke-width:1.0717653"
         id="path754"
         inkscape:connector-curvature="0" />
      <path
         d="m 13797.229,4476.1407 c 0,0 59.312,-144.849 164.167,-214.5362 -17.195,-34.8098 -51.964,-92.8035 -51.964,-92.8035 0,0 -200.099,137.0762 -227.711,284.0882 69.79,0.2028 115.508,23.2515 115.508,23.2515"
         style="fill:#c02023;fill-opacity:1;fill-rule:nonzero;stroke:none;stroke-width:1.0717653"
         id="path756"
         inkscape:connector-curvature="0" />
      <path
         d="m 12748.935,4476.1407 c 0,0 -59.352,-144.849 -164.214,-214.5362 17.162,-34.8098 51.986,-92.8035 51.986,-92.8035 0,0 200.071,137.0762 227.688,284.0882 -69.788,0.2028 -115.46,23.2515 -115.46,23.2515"
         style="fill:#c02023;fill-opacity:1;fill-rule:nonzero;stroke:none;stroke-width:1.0717653"
         id="path758"
         inkscape:connector-curvature="0" />
      <path
         d="m 13520.981,3625.0932 c 0,0 249.725,-42.9882 447.309,44.5432 7.131,-89.0182 -18.148,-218.9972 -23.589,-236.0303 0,0 -270.293,-82.2592 -415.804,-21.562 -16.77,49.2744 6.36,138.2925 -7.916,213.0491"
         style="fill:#c02023;fill-opacity:1;fill-rule:nonzero;stroke:none;stroke-width:1.0717653"
         id="path760"
         inkscape:connector-curvature="0" />
      <path
         d="m 13004.932,3625.0932 c 0,0 -263.222,-42.9882 -460.806,44.5432 -7.111,-89.0182 31.673,-218.9972 37.135,-236.0303 0,0 270.285,-82.2592 415.824,-21.562 16.714,49.2744 -6.393,138.2925 7.847,213.0491"
         style="fill:#c02023;fill-opacity:1;fill-rule:nonzero;stroke:none;stroke-width:1.0717653"
         id="path762"
         inkscape:connector-curvature="0" />
      <path
         d="m 13191.045,4550.424 c 4.536,-36.6348 37.872,-62.7251 74.542,-58.1289 v 0 c 36.634,4.461 62.637,37.8514 58.128,74.4861 v 0 c -4.528,36.6347 -37.925,62.6575 -74.54,58.1289 v 0 c -36.642,-4.5286 -62.671,-37.919 -58.13,-74.4861 v 0"
         style="fill:#f14b1c;fill-opacity:1;fill-rule:nonzero;stroke:none;stroke-width:1.0717653"
         id="path764"
         inkscape:connector-curvature="0" />
      <path
         d="m 15365.776,2805.2059 h 69.579 l -389.612,1994.6315 h -153.042 l 473.075,-1994.6315"
         style="fill:#ababa9;fill-opacity:1;fill-rule:nonzero;stroke:none;stroke-width:1.0717653"
         id="path766"
         inkscape:connector-curvature="0" />
      <path
         d="m 14911.958,4694.8 -19.257,105.0374 h 153.042 L 15061.62,4694.8 h -149.662"
         style="fill:#878888;fill-opacity:1;fill-rule:nonzero;stroke:none;stroke-width:1.0717653"
         id="path768"
         inkscape:connector-curvature="0" />
      <path
         d="m 11408.295,2805.2059 h -69.579 l 389.598,1994.6315 h 153.062 l -473.081,-1994.6315"
         style="fill:#ababa9;fill-opacity:1;fill-rule:nonzero;stroke:none;stroke-width:1.0717653"
         id="path770"
         inkscape:connector-curvature="0" />
      <path
         d="m 11862.106,4694.8 19.27,105.0374 h -153.062 L 11712.458,4694.8 h 149.648"
         style="fill:#878888;fill-opacity:1;fill-rule:nonzero;stroke:none;stroke-width:1.0717653"
         id="path772"
         inkscape:connector-curvature="0" />
      <path
         d="m 15045.574,4201.3803 23.866,72.7963 -970.461,667.4682 -23.874,-72.8638 970.469,-667.4007"
         style="fill:#ababa9;fill-opacity:1;fill-rule:nonzero;stroke:none;stroke-width:1.0717653"
         id="path774"
         inkscape:connector-curvature="0" />
      <path
         d="m 11728.503,4201.3803 970.469,667.4007 -23.874,72.8638 -970.468,-667.4682 23.873,-72.7963"
         style="fill:#ababa9;fill-opacity:1;fill-rule:nonzero;stroke:none;stroke-width:1.0717653"
         id="path776"
         inkscape:connector-curvature="0" />
      <path
         d="m 11205.83,4740.4243 h 4100.959 v 263.3374 H 11205.83 v -263.3374"
         style="fill:#00a990;fill-opacity:1;fill-rule:nonzero;stroke:none;stroke-width:1.0717653"
         id="path778"
         inkscape:connector-curvature="0" />
      <path
         d="m 15155.343,5044.587 c 0,-22.3728 -18.156,-40.4874 -40.549,-40.4874 h -2149.652 c -22.38,0 -40.536,18.1146 -40.536,40.4874 v 0 c 0,22.373 18.156,40.5551 40.536,40.5551 h 2149.652 c 22.393,0 40.549,-18.1821 40.549,-40.5551 v 0"
         style="fill:#5b5c5e;fill-opacity:1;fill-rule:nonzero;stroke:none;stroke-width:1.0717653"
         id="path780"
         inkscape:connector-curvature="0" />
      <path
         d="m 15113.598,6242.5016 c -110.634,0 -854.258,0 -958.288,0 0,0 -4.204,0 -11.809,0 -104.017,0 -672.579,0 -783.206,0 -107.071,0 -89.781,-78.1833 -89.781,-78.1833 l -53.451,-1116.3516 h 926.438 11.809 938.018 l 110.052,1116.3516 c 0,0 8.01,78.1833 -89.782,78.1833"
         style="fill:#e3e1e0;fill-opacity:1;fill-rule:nonzero;stroke:none;stroke-width:1.0717653"
         id="path782"
         inkscape:connector-curvature="0" />
      <path
         d="m 15156.195,6242.5016 c -110.635,0 -854.273,0 -958.303,0 0,0 -4.19,0 -11.801,0 -104.01,0 -672.585,0 -783.205,0 -107.066,0 -89.783,-78.1833 -89.783,-78.1833 l -53.444,-1116.3516 h 926.432 11.801 938.031 l 110.04,1116.3516 c 0,0 8.023,78.1833 -89.768,78.1833"
         style="fill:#ababa9;fill-opacity:1;fill-rule:nonzero;stroke:none;stroke-width:1.0717653"
         id="path784"
         inkscape:connector-curvature="0" />
      <path
         d="m 14439.33,5609.3159 c 0,-121.5299 -98.535,-220.0787 -220.079,-220.0787 -121.556,0 -220.086,98.5488 -220.086,220.0787 0,121.5299 98.53,220.0786 220.086,220.0786 121.544,0 220.079,-98.5487 220.079,-220.0786"
         style="fill:#d0cecc;fill-opacity:1;fill-rule:nonzero;stroke:none;stroke-width:1.0717653"
         id="path786"
         inkscape:connector-curvature="0" />
      <path
         d="m 14734.678,6219.3379 c -7.401,2.4535 -254.496,-903.5053 -334.22,-1171.3712 h 90.424 l 385.685,1182.9429 c 0,0 -133.203,-14.4714 -141.889,-11.5717"
         style="fill:#d0cecc;fill-opacity:1;fill-rule:nonzero;stroke:none;stroke-width:1.0717653"
         id="path788"
         inkscape:connector-curvature="0" />
      <path
         d="m 13836.966,6242.5016 -124.524,-2.8929 -428.686,-688.3541 -24.097,-503.2879 h 145.152 c 148.303,259.2819 599.424,1117.2505 643.169,1194.5349 -61.238,0 -135.115,0 -211.014,0"
         style="fill:#d0cecc;fill-opacity:1;fill-rule:nonzero;stroke:none;stroke-width:1.0717653"
         id="path790"
         inkscape:connector-curvature="0" />
      <path
         d="m 13386.974,6213.5048 c 112.426,0 693.329,0 799.029,0 7.753,0 11.998,0 11.998,0 105.699,0 861.693,0 974.125,0 35.965,0 57.703,-10.4497 70.984,-23.7315 -6.455,22.8258 -26.421,52.7283 -86.915,52.7283 -110.635,0 -854.273,0 -958.303,0 0,0 -4.19,0 -11.801,0 -104.01,0 -672.585,0 -783.205,0 -64.132,0 -83.612,-28.0438 -88.964,-50.5517 13.402,12.2542 35.823,21.5549 73.052,21.5549"
         style="fill:#e3e1e0;fill-opacity:1;fill-rule:nonzero;stroke:none;stroke-width:1.0717653"
         id="path792"
         inkscape:connector-curvature="0" />
      <path
         d="m 11887.986,5034.9215 v 229.6767 c 12.93,0 23.448,11.4229 23.448,25.5496 0,14.1267 -10.518,25.6172 -23.448,25.6172 h -61.339 -761.426 -23.466 c -116.555,0 -115.791,-332.0781 0,-332.0781 h 23.466 761.426 61.339 c 12.93,0 23.448,11.4906 23.448,25.6173 0,14.1267 -10.518,25.6173 -23.448,25.6173"
         style="fill:#116888;fill-opacity:1;fill-rule:nonzero;stroke:none;stroke-width:1.0717653"
         id="path794"
         inkscape:connector-curvature="0" />
      <path
         d="m 12148.35,5018.4967 h -870.095 v 265.703 h 870.095 c 0,0 -21.333,-19.6015 -21.333,-129.5733 0,-111.1884 21.333,-136.1297 21.333,-136.1297"
         style="fill:#fde3ae;fill-opacity:1;fill-rule:nonzero;stroke:none;stroke-width:1.0717653"
         id="path796"
         inkscape:connector-curvature="0" />
      <path
         d="m 12173.183,5034.9215 h -822.761 c -0.817,0 -1.602,-0.2028 -2.413,-0.2702 -56.073,0 -56.073,230.1498 0,230.1498 0.811,-0.068 1.596,-0.2028 2.413,-0.2028 h 822.761 c 12.929,0 23.454,11.423 23.454,25.5498 0,14.1265 -10.525,25.6171 -23.454,25.6171 h -61.333 -761.428 -23.46 c -25.213,0 -99.822,-22.3052 -99.822,-49.815 l 9.125,-232.448 c 0,-27.5099 65.484,-49.8151 90.697,-49.8151 h 23.46 761.428 61.333 c 12.929,0 23.454,11.4906 23.454,25.6173 0,14.1267 -10.525,25.6172 -23.454,25.6172"
         style="fill:#116888;fill-opacity:1;fill-rule:nonzero;stroke:none;stroke-width:1.0717653"
         id="path798"
         inkscape:connector-curvature="0" />
      <path
         d="m 12047.923,5349.3582 v 160.5978 c 11.726,0 21.223,8.0435 21.223,17.9119 0,9.8684 -9.497,17.9117 -21.223,17.9117 h -55.488 -721.784 -21.224 c -105.428,0 -104.717,-232.1775 0,-232.1775 h 21.224 721.784 55.488 c 11.726,0 21.223,7.9758 21.223,17.9118 0,9.8685 -9.497,17.8443 -21.223,17.8443"
         style="fill:#fab40a;fill-opacity:1;fill-rule:nonzero;stroke:none;stroke-width:1.0717653"
         id="path800"
         inkscape:connector-curvature="0" />
      <path
         d="m 12192.629,5337.9352 h -407.28 v 185.742 h 407.28 c 0,0 -19.285,-13.7212 -19.285,-90.5729 0,-77.7981 19.285,-95.1691 19.285,-95.1691"
         style="fill:#fde3ae;fill-opacity:1;fill-rule:nonzero;stroke:none;stroke-width:1.0717653"
         id="path802"
         inkscape:connector-curvature="0" />
      <path
         d="m 12215.11,5349.3582 h -364.495 c -0.757,0 -1.453,-0.068 -2.19,-0.2028 -50.7,0 -50.7,161.0035 0,161.0035 0.737,-0.068 1.433,-0.2029 2.19,-0.2029 h 364.495 c 11.713,0 21.203,8.0435 21.203,17.9119 0,9.8684 -9.49,17.9117 -21.203,17.9117 h -55.493 -309.002 -21.203 c -22.806,0 -90.317,-15.6136 -90.317,-34.8097 l 8.267,-162.558 c 0,-19.2637 59.244,-34.8098 82.05,-34.8098 h 21.203 309.002 55.493 c 11.713,0 21.203,7.9758 21.203,17.9118 0,9.8685 -9.49,17.8443 -21.203,17.8443"
         style="fill:#fab40a;fill-opacity:1;fill-rule:nonzero;stroke:none;stroke-width:1.0717653"
         id="path804"
         inkscape:connector-curvature="0" />
    </g>
  </g>
</svg>
