<svg height="512" viewBox="0 0 512 512" width="512" xmlns="http://www.w3.org/2000/svg"><g id="_27.a" data-name="27.a"><path d="m307.27 306.22h-11.66v66a39.47 39.47 0 0 1 -4.13 17.63 135.93 135.93 0 0 1 -33.77 4.05 126.33 126.33 0 0 1 -37.91-5.56 39.4 39.4 0 0 1 -3.42-16.12v-66h-11.66c-15.78 0-23.21-19.51-11.42-30l51.27-45.65a17.18 17.18 0 0 1 22.85 0l51.27 45.65c11.79 10.49 4.36 30-11.42 30z" fill="#90d1bb"/><path d="m431.61 23h14.14a51.4 51.4 0 0 1 51.4 51.4v365.35a49.27 49.27 0 0 1 -49.26 49.25h-18.42a49.27 49.27 0 0 1 -49.26-49.26q-34.21 32.56-68.66 46.91t-74.66 14.35q-90.27 0-156.15-70t-65.89-174.14q0-107.94 63.75-176.86t154.87-69a196.87 196.87 0 0 1 78.71 15.85q36.79 15.84 68 47.54a51.4 51.4 0 0 1 51.43-51.39zm-174.32 96q-54.21 0-90.07 38.33t-35.86 98.3q0 60.39 36.49 99.37t89.86 39q55.08 0 91.36-38.34t36.28-100.44q0-60.81-36.28-98.51t-91.78-37.77z" fill="#f5d367"/><path d="m295.67 492.4a196.67 196.67 0 0 1 -58.78 8.6q-90.27 0-156.16-70t-65.88-174.14q0-77.27 32.67-134.56c20.37 158.7 115.11 294.06 248.15 370.1z" fill="#e2c061"/></g></svg>