<svg height="512" viewBox="0 0 512 512" width="512" xmlns="http://www.w3.org/2000/svg"><g id="_5.E" data-name="5.E"><path d="m197.6 120.48v52.18a18.21 18.21 0 0 0 18.22 18.21h111.86a44.81 44.81 0 1 1 0 89.61h-111.86a18.21 18.21 0 0 0 -18.22 18.21v92.49a18.21 18.21 0 0 0 18.22 18.21h72.45a119.32 119.32 0 0 0 -2.53 22.48 69.14 69.14 0 0 0 54 67.47 44.75 44.75 0 0 1 -12.1 1.66h-155.64a67 67 0 0 1 -67-67v-356a67 67 0 0 1 67-67h155.7a44.8 44.8 0 0 1 44.8 44.8v1.66a44.81 44.81 0 0 1 -44.8 44.81h-111.88a18.21 18.21 0 0 0 -18.22 18.21z" fill="#a9defc"/><path d="m424 431.87a69.13 69.13 0 1 1 -138.25 0c0-38.17 30.94-120.41 69.12-120.41s69.13 82.24 69.13 120.41z" fill="#ffebb9"/><path d="m323.79 501h-151.79a67 67 0 0 1 -67-67v-356a67 67 0 0 1 67-67h1.27a502.56 502.56 0 0 0 24.33 312v68.2a18.21 18.21 0 0 0 18.22 18.21h28.46a502.66 502.66 0 0 0 79.51 91.59z" fill="#a2d4ea"/></g></svg>