<svg height="512" viewBox="0 0 512 512" width="512" xmlns="http://www.w3.org/2000/svg"><g id="_12.L" data-name="12.L"><path d="m384.92 282.2a85.76 85.76 0 0 1 -49.37 77.66v-.29h-72.94v.29a85.8 85.8 0 1 1 122.31-77.66z" fill="#ffebb9"/><g fill="#666"><path d="m290.55 336.87h-10.55a15 15 0 0 1 -15-15v-1.51a15 15 0 0 1 15-15h1.53a15 15 0 0 1 15 15v10.51a6 6 0 0 1 -5.98 6zm-10.55-19.51a3 3 0 0 0 -3 3v1.51a3 3 0 0 0 3 3h4.53v-4.51a3 3 0 0 0 -3-3z"/><path d="m318.15 336.87h-10.53a6 6 0 0 1 -6-6v-10.51a15 15 0 0 1 15-15h1.53a15 15 0 0 1 15 15v1.51a15 15 0 0 1 -15 15zm-4.53-12h4.53a3 3 0 0 0 3-3v-1.51a3 3 0 0 0 -3-3h-1.53a3 3 0 0 0 -3 3z"/><path d="m310.08 336.87h-22.69a6 6 0 0 1 0-12h22.69a6 6 0 1 1 0 12z"/><path d="m307.62 365.57a6 6 0 0 1 -6-6v-33.29a6 6 0 0 1 12 0v33.29a6 6 0 0 1 -6 6z"/><path d="m290.55 365.57a6 6 0 0 1 -6-6v-33.29a6 6 0 0 1 12 0v33.29a6 6 0 0 1 -6 6z"/></g><path d="m262.61 359.57h72.94v19.06h-72.94z" fill="#cfdce5"/><path d="m262.61 378.63h72.94v19.06h-72.94z" fill="#ccc"/><path d="m335.55 397.69v1.48a17.56 17.56 0 0 1 -9.07 15.38 44.43 44.43 0 0 0 -14.7-2.49h-43.54a17.54 17.54 0 0 1 -5.63-12.89v-1.48z" fill="#cfdce5"/><path d="m356.25 456.53a44.47 44.47 0 0 1 -44.47 44.47h-140.24a44.47 44.47 0 0 1 -44.47-44.47v-401.06a44.47 44.47 0 0 1 44.47-44.47h4.33a44.47 44.47 0 0 1 44.47 44.47v192.53a85.89 85.89 0 0 0 0 68.39v73a22.71 22.71 0 0 0 22.71 22.71h68.73a44.47 44.47 0 0 1 44.47 44.43z" fill="#f17b89"/><path d="m288 501h-116.46a44.47 44.47 0 0 1 -44.47-44.47v-401.06a44.47 44.47 0 0 1 44.47-44.47h1.21a500.82 500.82 0 0 0 115.25 490z" fill="#d36e7f"/></g></svg>