<svg height="512" viewBox="0 0 512 512" width="512" xmlns="http://www.w3.org/2000/svg"><g id="_24.X" data-name="24.X"><path d="m426.45 501a43.86 43.86 0 0 1 -36.69-19.85l-86.76-132.65a15.46 15.46 0 0 0 -25.87 0l-86.67 132.5a44.28 44.28 0 0 1 -57.52 15 21 21 0 0 0 8.26-16.73v-19.12h30.86c15.43 0 22-19.61 9.69-28.91l-23.42-17.71h1.07a11 11 0 0 0 7.62-19l-15.58-14.88 80.49-122.8a15.45 15.45 0 0 0 0-17l-105.29-161c-19.08-29.1 1.84-67.85 36.71-67.85a43.84 43.84 0 0 1 36.65 19.86l77 117.72a15.45 15.45 0 0 0 25.85 0l77.26-117.77a43.83 43.83 0 0 1 36.65-19.81c25.75 0 43.89 21.16 43.89 44a43.39 43.39 0 0 1 -7.22 23.9l-105.43 161.21a15.46 15.46 0 0 0 0 16.94l115.14 176c19.11 29.21-1.82 67.95-36.69 67.95z" fill="#f17b89"/><path d="m231.83 417.76-41.37 63.24a44.28 44.28 0 0 1 -57.52 15 21 21 0 0 0 8.26-16.73v-19.12h30.86c15.43 0 22-19.61 9.69-28.91l-23.42-17.71h1.07a11 11 0 0 0 7.62-19l-15.58-14.88 23.27-35.5a500.62 500.62 0 0 0 57.12 73.61z" fill="#d36e7f"/><path d="m88.58 460.14h52.62a0 0 0 0 1 0 0v19.08a21.1 21.1 0 0 1 -21.1 21.1h-10.41a21.1 21.1 0 0 1 -21.1-21.1v-19.08a0 0 0 0 1 -.01 0z" fill="#eddab0"/><g fill="#88bfac"><path d="m172.06 460.15h-114.34c-15.42 0-22-19.61-9.7-28.91l23.42-17.71h86.9l23.42 17.71c12.31 9.3 5.73 28.91-9.7 28.91z"/><path d="m159.4 413.53h-89a11 11 0 0 1 -7.62-19l28-26.76h48.22l28 26.76a11 11 0 0 1 -7.6 19z"/><path d="m109.43 322.46-33.16 31.68a7.91 7.91 0 0 0 5.47 13.63h66.26a7.91 7.91 0 0 0 5.47-13.63l-33.15-31.68a7.89 7.89 0 0 0 -10.89 0z"/></g><path d="m120.75 322.54-3.25-1.67a5.18 5.18 0 0 0 -4.78.06l-3.22 1.74a5.14 5.14 0 0 1 -7.51-5.33l.58-3.61a5.09 5.09 0 0 0 -1.53-4.52l-2.65-2.53a5.13 5.13 0 0 1 2.75-8.78l3.61-.57a5.13 5.13 0 0 0 3.83-2.85l1.58-3.3a5.13 5.13 0 0 1 9.21-.1l1.65 3.26a5.16 5.16 0 0 0 3.9 2.76l3.63.48a5.13 5.13 0 0 1 2.94 8.72l-2.59 2.59a5.1 5.1 0 0 0 -1.42 4.56l.66 3.59a5.14 5.14 0 0 1 -7.39 5.5z" fill="#e2c061"/></g></svg>